<svg xmlns="http://www.w3.org/2000/svg" viewBox="0 0 1920 1080"><defs><style>.cls-1{fill:#f2f2f2;}.cls-2{fill:#141213;}</style></defs><g id="Capa_2" data-name="Capa 2"><g id="Capa_1-2" data-name="Capa 1"><rect class="cls-1" x="1919" y="1079" width="1" height="1"/><rect class="cls-1" width="1" height="1"/><rect class="cls-1" y="1079" width="1" height="1"/><rect class="cls-1" x="1919" width="1" height="1"/></g><g id="Capa_3" data-name="Capa 3"><path class="cls-2" d="M1100.1,760.19c0,.28.15.45.47.63A1.58,1.58,0,0,0,1100.1,760.19Zm0,0c0,.28.15.45.47.63A1.58,1.58,0,0,0,1100.1,760.19Zm0,0c0,.28.15.45.47.63A1.58,1.58,0,0,0,1100.1,760.19Zm0,0c0,.28.15.45.47.63A1.58,1.58,0,0,0,1100.1,760.19Zm290.67-567.12a53.2,53.2,0,0,0-60,22c-10.09,15.74-11.1,32.52-4.57,49.91,2.61,6.94,2.59,7-3.72,11.11Q1308,285.6,1293.4,295c-1.67,1.08-4,3.38-5.28,1.67-2.75-3.66-3.9-2-5.64.55-1.42,2.1-2.15,5.12-6.2,5.27a533.12,533.12,0,0,0-38.12-66c-36.38-53.35-80.69-98.51-136.2-132.22-8.12-4.93-15.7-7.68-24.72-3.52-5.18,2.39-9.65,1-14.36-1.93a341.77,341.77,0,0,0-35.05-18.93c-13.67-6.49-10.33-7.68-18.83,4.54-.31.45-1,.6-1.6.88-2.27-.43-3.16-2.49-4.47-4-2.43-2.72-4.44-2.17-6.9,0q-21.22,19.23-42.63,38.26a9.94,9.94,0,0,0-3.5,8.08q.12,19.44,0,38.89c0,3.77.75,6.72,4.77,7.93,6.19,1.86,8.84,6.62,10.94,12.36,9.57,26.22,19.57,52.27,29.1,78.5,2.2,6.08,5.11,11,11.12,13.83,4.18,1.94,5.88,5.17,5.35,9.87-.38,3.37.17,6.83-.14,10.21-.89,9.88,1.81,18.68,6.45,27.36,8.19,15.31,15.53,31.08,23.64,46.44a47.75,47.75,0,0,1,5.69,24.45c-.41,14-.8,28,.06,41.94.51,8.45-2.9,12.59-9.61,16.78q-152.44,95.19-304.6,190.83-93.42,58.59-186.77,117.28c-4.1,2.57-7.27,5.05-12.61,1.16-19.08-13.92-37.41-28.6-52.08-47.29-19.57-24.93-31.45-52.56-28.51-85,1.32-14.59,2.94-29.16,4.43-43.74,3.86-37.64,7.86-75.27,11.44-112.93A29.85,29.85,0,0,1,475,459.9c35.14-44.38,70-89,105.31-133.25a29,29,0,0,0,6.82-20.57c-.2-4.72-1-7.16-6.43-8.08-15.78-2.68-31.41-6.24-47.12-9.34-15.36-3.05-15.38-3-13.48-19.45,1.39-.73,2.66-.17,4,.12,19.69,4.46,39.19,3.2,58.77-1.25,6.37-1.44,9.35-4.3,9.64-10.71.19-4.07,1.42-8.08,1.73-12.14.41-5.34,3.17-8.29,7.86-10.71,15.14-7.79,29.91-16.3,45.09-24,5.64-2.85,8.46-6.26,7.37-12.58-1.21-7,1.06-11.91,8.31-13.88,1.3-.35,2.4-1.35,3.67-1.77,4.56-1.48,6.06-4.42,5.91-9.26-.35-12.26-.27-24.56-.12-36.84,0-4.38-1-7.83-4.4-10.84-14.84-13.05-29.51-26.28-44.56-39.72l-8.09,7.47c-1.37-1.54-2.12-2.23-2.7-3.06-6.05-8.83-6.07-8.89-15.5-4.27-34.06,16.73-66.27,36.42-96,60.09-22.45,17.88-43.74,37-62.52,58.8-3.35,3.88-5.7,7.42-12.19,3.34-4.48-2.82-11.42-5.67-16.6-3-10.41,5.4-21.81,9.73-28.64,20.52-11.12,17.57-22.07,35.21-31.68,53.67-53.64,103-74.71,212-59.65,327.51,10.88,83.47,39.86,160.24,86.39,230.38,4.33,6.53,8.85,12.93,13.45,19.28,2.4,3.32,1.68,5.36-1.83,7.15-5,2.54-10.41,3.1-15.72,4.28-1.06.23-3.56.39-2.43,1.77,4.81,5.84-1.68,6.29-3.89,7.77-12.7,8.55-25.73,16.63-38.56,25-2.9,1.89-6.4,3.28-8.64,7.49,4.78-1,7.47-3.67,10.47-5.59,13.46-8.63,27-17.21,40.1-26.33,4-2.77,5.63-1.15,7.79,2.13,2.27-3.32,4.17-6.52,6.49-9.37,7.25-8.92,9.58-8.9,16.71-.27,1.74,2.11,3.45,4.23,5.19,6.34A487.42,487.42,0,0,0,507.09,971c7.35,5.06,14.53,8.49,23.57,7.39,17.84-2.16,34.3,1,49.06,12,3.88,2.91,8.91,7.06,13.55,5.66,4.25-1.28,5.15-7.58,7-11.87,1.94-4.54,4.3-4,7.93-2.22,10.74,5.12,21.71,9.79,32.46,14.91a62.45,62.45,0,0,0,17.49,5.34c19.73,3.06,33.12-6.12,37.54-25.7,5.7-25.32,10.36-50.75,8.46-76.91a114.35,114.35,0,0,1,0-14.34c.5-10-2.48-18.92-8-27-12-17.51-27.31-31.41-47-39.75-28.15-11.94-56.56-23.25-84.84-34.86a85.17,85.17,0,0,1-22.92-13.53l503.84-316c2,4.57,1.38,8,1.38,11.27,0,29.34-.08,58.69-.11,88,0,44.35-.25,88.7,0,133,.07,10.85-3.35,20-9.64,28.39-3.7,5-8.14,9.15-12.6,13.38-7.14,6.78-15.11,9.74-25.06,8.05-4.59-.78-10.55-3.16-13.87-.37-3.88,3.27-1.48,9.64-1.46,14.61s-2.44,11.24,1.39,14.6c3.23,2.84,9.14.66,13.88.9a6.81,6.81,0,0,0,1,0c4.17-.45,6.35,1,6.23,5.61-.18,6.81-.24,13.66.21,20.46.29,4.65-1.81,6.65-5.79,8.15-7.65,2.88-15.06,6.36-22.74,9.17-18.85,6.89-33.44,19.51-46.21,34.41-8.93,10.43-13.75,22.4-13.08,36.59.62,13.27-.25,26.62.21,39.91.66,19.16,5.21,37.79,10.33,56.09,3.31,11.87,12.4,18.25,25.22,18.73,9.37.35,18.25-1,26.81-5,12.56-6,25.3-11.55,37.51-17.09,1,.61,1.38.7,1.5.93q2.65,4.95,5.23,9.93c3.49,6.71,3.51,6.77,10.53,3.13a511.68,511.68,0,0,0,131.75-97.56c5.46-5.61,9.84-13.66,16.46-16.41,7-2.91,16.13-1.37,24.27-.79,6.93.49,11.09-2.16,15.21-7.52,80.11-104.17,115.2-222,107.3-352.86-4.07-67.37-20.28-131.81-47.61-193.48-4.42-10-4.39-9.94,5.91-12.56,1.33-.35,4.6-.83,3.31-2.18-4.85-5,.82-5.54,2.78-6.88,9.55-6.54,19.48-12.51,29-19.15,4.54-3.18,7-2.72,10.68,1.59,14.57,16.89,33.48,21.73,54.61,16.5,23.08-5.71,38.81-26.74,39.06-50.38C1429.11,220.71,1414.09,200.09,1390.77,193.07Zm-778-87c4.48-1.14,6.91-5.35,10.87-8.67,9.48,8.52,18.31,17.58,28.3,25.11,9.42,7.1,13.56,15.29,12,27-.81,6-.37,12.26-.1,18.4.2,4.62-.83,8-5.79,9.31-1,.24-1.81,1-2.79,1.25-7.31,2.1-10.52,6.74-9.11,14.38,1.17,6.35-1.87,9.74-7.47,12.56-14.9,7.51-29.38,15.83-44.22,23.45-4.7,2.42-7.78,5.19-7.69,10.77,0,1.65-.75,3.31-1.06,5-2.75,15.28-2.77,15.08-17.46,17.57a104.8,104.8,0,0,1-50.5-3.49,35.7,35.7,0,0,0-3.93-1.08A11.72,11.72,0,0,0,511,258c0,10,.21,20.14-.09,30.29-.15,5.06,3.35,5.32,6.58,6,14.67,2.95,29.38,5.76,44.07,8.62,4,.78,8.05,1.41,12,2.35,4.93,1.18,6.16,3.36,4.85,8.15-.83,3-3,5.34-4.84,7.74-34,43.11-67.84,86.32-102.09,129.2a51.14,51.14,0,0,0-11.7,28.54c-4.73,50.23-10.28,100.37-15.55,150.54-3.47,32.9,6.76,61.87,25.55,88.28,14,19.67,32,35.33,51.2,49.64,2.69,2,6.17,3.15,7.66,7.76-30.93,19.41-61.83,38.67-92.56,58.24-4.59,2.92-6.78,2.12-9.69-2.08q-13.09-18.93-25.14-38.52c-3.43-5.62-3.87-11.53-3.49-17.69.29-4.51-.28-8.26-5.74-9-5.7-.72-7.45-5.24-9.47-9.63-17.33-37.64-28.76-77.09-36.16-117.77-.36-2-1.17-4.6-.3-6,4.38-7.1,1.13-12.58-2.35-18.8s-2.81-14-3.46-21a654.5,654.5,0,0,1-2.23-81.78c.06-2-.16-4.52.92-5.92,3.94-5.16,6.89-10,2-16.3-1.2-1.53.68-3.84,1.6-5.59q16.94-32.28,7.31-67.39a18.23,18.23,0,0,1,.35-11.06c5.44-15.76,10.81-31.54,17.2-47,1.84-4.47,4.34-6.7,9-8.23,8.94-2.9,9.1-3.49,6.16-12.29A16.84,16.84,0,0,1,384,322.78c4.41-8.07,6.91-18.59,14-23.36,6.78-4.55,17.21-1,26-1.31,15.51-.47,11.92,2.62,17.82-12.33,3.12-7.92,5.63-16.09,8.95-23.92,1.61-3.79,1.25-6.45-1.76-9-.78-.67-1.46-1.44-2.16-2.17-10.67-11.07-10.62-11,0-22.1,2-2.13,4-3.44,7-3.28,3.38.18,6.79,0,10,0,.57-.8,1.34-1.41,1.25-1.85-2.34-11.21,2.12-19.44,10.46-26.7,10.8-9.4,21.08-19.4,31.45-29.27a21.14,21.14,0,0,1,12.77-5.74c3.38-.38,6.74-.9,10.07-1.59,21.87-4.5,39.79-14.17,47.29-36.92,4.57.38,7.54,3.55,11.4,4.53.52-.43,1.38-.79,1.5-1.32C592.82,114.32,601.55,108.87,612.8,106ZM344.14,443c-.16-.28-.47-.57-.45-.82a10.45,10.45,0,0,1,.45-1.72c.31.44.82.85.8,1.23S344.43,442.6,344.14,443ZM403.9,288.2c8-14.22,17.81-27.14,27.35-40.19,1.3.67,1.89.89,2.4,1.24,8.44,5.72,9.44,12.75,4.61,21.59-3,5.58-2.85,13.61-7.67,17.34-5.3,4.09-13.08.91-19.76,1.41C408.89,289.73,406.78,290.18,403.9,288.2ZM552.39,121c-5,10.34-7.34,11.92-23.81,15.81C537,129.54,544.76,125.36,552.39,121Zm-44.91,30.47A28.59,28.59,0,0,1,527,145c11.24.18,21.34-3.22,29.18-12,3.56-4,5.38-8.66,6.87-13.51a17.4,17.4,0,0,1,9.54-11.25c9.15-4.49,18.18-9.27,27.13-14.17,3.12-1.7,5-1.24,6.43,1.92,1.62,3.63-1.57,3.8-3.53,4.68q-13.49,6.06-27,12c-3.18,1.41-5.73,3-6.68,7-3.94,16.33-15.72,24.84-30.78,29.75a88.47,88.47,0,0,1-21,4.32,22.69,22.69,0,0,0-13.91,5.55C436.7,217.32,385.58,286.48,353.66,369.3c-2.32,6-4.41,12.14-6.62,18.22-4.55,12.41-9.63,24.66-3.74,38.24a11.58,11.58,0,0,1-.49,10.88c-2.35-14.54-5.68-27.05-1.22-41.45C372.07,296.91,426.94,215.59,507.48,151.51ZM513,964.73A471.17,471.17,0,0,1,406.26,864.06c-8.44-10.95-17.11-21.82-24.3-33.7s-14.75-23.75-21.7-35.86a358.66,358.66,0,0,1-19.13-38.41q-8.19-19.26-15.74-38.81c-5.13-13.36-9.16-27.09-12.93-40.89A525.55,525.55,0,0,1,295.24,494c7.53-93.31,38.47-178.59,88.77-257.29,6.65-10.42,15.67-16.73,25.84-22.25,5.85-3.17,10.92,1.42,18.29,2.09a514.08,514.08,0,0,0-45.72,64.79A501.88,501.88,0,0,0,318.73,459.2a517.27,517.27,0,0,0,8.23,205,500.77,500.77,0,0,0,77.92,172.1c3.26,4.62,6.16,9,3.84,15,3.38.21,6.19-1.7,9,2C452,898.34,493.07,935.9,540.17,967a16.8,16.8,0,0,1,2.07,2.35C531.63,970.14,522.35,971.16,513,964.73ZM329.87,449.63c-.19-.57-.62-1.18-.53-1.71.84-4.82,1.77-9.63,2.78-15C335.34,444.7,335.34,444.7,329.87,449.63ZM472.56,901.26c13.21,1.82,19.8,7.75,23.63,22.2C487.29,915.48,479.17,909.51,472.56,901.26Zm119.85,80.23c-1.67,4.66-4.29,4-7.9,2a573.88,573.88,0,0,1-69.45-44.69,19.45,19.45,0,0,1-7.49-10.56c-1.1-3.92-2.6-7.72-3.9-11.59-4.68-14-15.12-21-28.82-24.58-6.32-1.67-14-.23-18.42-7a3,3,0,0,1-1.06-1.06c-11.24-10.39-20.49-22.54-30-34.45-1.56-2-5-4.6-.22-7.07-4.85,2.24-6.44-1.72-8.57-4.62a491.55,491.55,0,0,1-40.18-65.21c-28.35-54.79-45.36-113.07-52.56-174.18-4.94-41.83-4.11-83.73,1.36-125.51.27-2,.3-4.14,1.75-5.76,5.15-5.73,10.35-11.42,16.75-18.48-.17,12.31-4.13,21.25-8.7,30-2.38,4.57-4.29,9.06-4.58,14.38C325.25,589.5,336.82,682.9,380,770.67a402.13,402.13,0,0,0,35.56,59.61c3,4.16,4.65,9.52,9.6,12.18l0,0c7,11.64,16.59,21.21,25.22,31.54,2.13,2.56,5.28,4.42,5.9,8.1,1.08.17,2.06.47,2.39,1.7,29.4.65,48.48,15.9,58.38,42.73,2.87,7.79,7.41,12.13,14.4,15.7,21.15,10.82,42,22.15,62.88,33.2C594.56,978,593.09,979.61,592.41,981.49Zm-82.12-83.41c3.81-4.09,6.91-6.44,11.56-5,5.66,1.7,10.68,4.26,13.88,9.47a4.91,4.91,0,0,1,0,5.71c-3.22,4.61-5.63,9.86-10.36,14.4C521,913.53,516.82,905.24,510.29,898.08Zm51-106.44c27.27,11.46,54.73,22.45,82.13,33.61,18.23,7.41,32.21,20.15,44,35.5a39.05,39.05,0,0,1,8.39,26.69,96.62,96.62,0,0,0,0,13.29c2,25.16-3.12,49.5-8.49,73.78-3.53,16-12.83,21.93-29.27,19a38.6,38.6,0,0,1-9.83-2.65C627,981,605.37,971.77,584.59,960.79c-5.83-3.08-8.07-9.51-13.07-12.45-4.64-2.71-11.17.2-16.59-3.21-7.46-4.68-15.47-8.47-23.62-12.84,2.76-7.4,7.55-13.19,12-19,3.72-4.9,3.52-9.13.52-14-5.61-9.12-13.91-13.68-24.29-14.93a11.74,11.74,0,0,0-10.31,3.35c-3.64,3.72-6.7,2.85-10.6,0-8.64-6.36-18.59-9.92-29.17-11.5-3.1-.47-6.16-.85-8.39-3.22a416,416,0,0,1-28.88-34.3c32.56-20.39,64.31-40.16,95.89-60.2,3.76-2.39,6.78-3.22,9.74.25C544,786,553.09,788.19,561.32,791.64ZM1095,110.26c58.81,34.67,104.41,82.72,141.55,139.38a518.93,518.93,0,0,1,30.26,53.28c3.43,6.87,3.32,6.92-4.94,11.59Q1200.42,186.76,1081,109.79C1086.22,105.3,1090.38,107.54,1095,110.26Zm-3,17.81c-10.53.49-17.54-4.7-23.45-15.11C1078.2,117.29,1084.8,123.14,1092,128.07Zm-68.43-40.83c9.53,5.25,19.2,10.27,28.93,15.15,4.12,2.07,6.12,5.65,6.93,9.6,3.58,17.3,20.19,26.63,37,25.34,6.54-.52,11.59,1.6,16.75,5.62q87.81,68.36,137.16,168c4.51,9.15,9.41,18.18,12.93,27.82,3.74,10.23,8,20.25,11.56,30.53,3.41,9.95,6.08,20.16,9.26,30.19,1.07,3.36.76,6.15-.14,9.68-2.35,9.14-3.37,18.62-5.58,27.9-1-8.08.28-16,2.46-23.74a31.16,31.16,0,0,0-.36-19,622.06,622.06,0,0,0-22.21-58.13c-34.29-76.93-84.33-135.64-134.08-179.9-6.29-5.58-12.69-9.52-21.51-10.15a72.66,72.66,0,0,1-26.47-7.22c-10.61-5.17-18.66-12.78-21.71-24.39-1.39-5.31-4.43-7.89-9.13-9.85-10-4.18-19.87-8.75-29.81-13.17C1016.85,86.66,1018.73,84.6,1023.55,87.24Zm195.78,194.25c-9.82,1.43-18.55,1.06-27.27.37-4.8-8.62-7.09-18.25-10.93-27.26a4.47,4.47,0,0,1,1.39-5.46c2.76-2.47,5.4-5,8.27-7.76,1.44.25,2.33,1.76,3.33,3.11C1202.84,256.16,1211.14,268.11,1219.33,281.49ZM959.48,154.65c-.82-1.09-1.14-1.32-1.14-1.55,0-8.51-1.91-17.71.72-25.34,2.52-7.31,11.15-11.55,17.17-17.06,7.52-6.89,15.21-13.58,23.29-20.75,5,7.2,12.33,9.81,19.6,12.47,5.44,2,9,5.2,10.94,11,2.68,8,3.17,7.83,11.24,4.1a21.74,21.74,0,0,1,2.86-1c.27-.08.61.11,1.59.34,5.47,16.22,17.15,26.79,33.49,32.6a108.6,108.6,0,0,0,24.83,5.66,19.68,19.68,0,0,1,11.66,5.31c12.55,11,24.4,22.82,36.34,34.49,4.54,4.43,6.54,8.81,5.5,15.34-1.34,8.53-.79,8.54,8.44,8.84,3,.09,6.39-1.22,8.75,1.34,3.45,3.75,6.58,7.81,9.69,11.87.4.51,0,2-.48,2.74a10.46,10.46,0,0,1-2.81,2.93c-10.57,7.23-11.55,16.11-5.43,26.9,2.48,4.37,3.46,9.57,5.39,14.3,5.64,13.89,2.32,11.31,16.25,11.52,7.16.11,14.33.23,21.48-.06,4.18-.17,7,.82,9,4.84,4,7.92,8.31,15.63,12.63,23.36,2.19,3.93,1.65,7-2,9.73-1.35,1-2.23,2.68-3.65,3.53-13.64,8.19-26.48,17.66-40.77,24.86-3.68,1.85-5,1.44-5.86-1.65-12.74-44.56-39.63-81.91-62.49-121.18-20.66-35.53-46.6-67.22-78.54-93.54-6.83-5.62-14.22-10.57-21.19-16-12-9.35-24.63-8.32-37.54-2.61-8.35,3.69-14.61,10-19.64,17.42C965.55,144.11,962.78,149.18,959.48,154.65ZM1157,341.25c-4.48,0-8.88-4.55-9-9.28a9.3,9.3,0,0,1,8.81-9.27,9.48,9.48,0,0,1,9.6,8.49C1166.76,335.77,1161.64,341.27,1157,341.25Zm-114.78-174a31.83,31.83,0,0,1-31.4,32.32c-17.28.23-32.14-14.51-32.08-31.79s14.86-31.93,32.11-31.93C1027.79,135.79,1042,150,1042.22,167.2Zm-66.9-21.95c8.71-13.68,17.71-18.51,32.91-18-12.76,2.11-21.72,6.61-28.67,14.82-7.17,8.47-9.18,18.56-9.58,31.11C962.34,160.79,970.35,153.05,975.32,145.25Zm59.35,196c-6.7-15-18-28.44-15.36-46.55.43-3-.22-6.16.13-9.18.61-5.39-1-9.26-6.19-11.51-6.39-2.8-9.36-8.19-11.71-14.54-8-21.68-15.53-43.52-24.61-64.77-.36-.86,0-2,0-4,3.29,4.59,9.1,6.19,7.59,13.18-.67,3.11,3,4.33,6.13,5.34s4.93,2.17,4.65-2.71c-.12-2.1,2-.35,3-.2,6.38,1,12.59,2.31,19.22,1,20.34-4,33.52-19.73,33.15-40.42-.07-3.66-.45-7.31-.8-12.59,50.14,45,80.37,102,111,158.87-21,4.18-26.1,14-16.55,32.31-2,1.78-4.33.8-6.46.67q-34.66-2.28-69.36-4.64c-3.73-.26-7.9.88-6.14-6.16.73-3-3.34-6.86-8.74-9.18.54,6.58,5.12,9.5,8,14.44-6.57-.36-11.89-.77-17.2-.87-2.18-.05-5.08-1.53-6.4,1.35S1035.37,342.78,1034.67,341.21Zm3.71,7.17c10.38-1.21,19.1,1.2,27.94,1.42a6.19,6.19,0,0,1,5.08,2.87c.85,1.14,2.78,2.16,3.4,1.08,3.65-6.44,9-2.61,13.54-2.33,22.79,1.4,45.56,3.14,68.34,4.67,4,.26,7.89,1.09,8-5.74.06-4.81,6.39-6.4,9.19-10.84,3.67,7.09,4.74,14.18,6.85,20.92,1,3.3.34,5.72-2.87,7.71q-60.27,37.33-120.44,74.86a3.59,3.59,0,0,1-1.06.19c-2.54-2.13-1.29-5-1.3-7.57-.06-14.66-.09-29.32.09-44a35.61,35.61,0,0,0-4.51-18.56C1046.31,365.43,1042.78,357.37,1038.38,348.38Zm-.75,379.4c11.8-12.33,18-26.51,17.86-44.15-.52-74.73-.19-149.45-.63-224.18,0-8.51,2.2-13.47,9.73-17.81,17.37-10,34.11-21.08,50.85-31.56,4.48,2,4.87,8,10.39,8.51,1.75-5-3.54-6.87-5-11.88l60.52-37.87c8.89,27.53.94,79.84-18.37,111.05-2.19-.22-1.73-4.14-4.35-3.37s-1.72,3.24-1.64,5.17a50.79,50.79,0,0,1-5.08,24.6c-5.71,12-10.76,24.3-16.32,36.36a30.81,30.81,0,0,0-2.9,12.84c0,4.78.68,9.68-.15,14.31-3.52,19.75,6.4,34.28,18,48.32,1.49,1.83,3.5,3.93,3.66,6,.86,11.47,3.11,23.28-1.8,34.26C1139.58,687,1127.65,716,1113,743.7a22.81,22.81,0,0,0-1.51,4.85c-.48,1.82-1.65,3.7-3.41,2.66-4.19-2.47-6.29.81-8.83,2.67-2.74,2-6.55,4.42.43,6.08a1.27,1.27,0,0,1,.47.22,1.83,1.83,0,0,1,.17-.65c.52-1.24.94-2.29,2.67-1.72.91.3,1.15.57-.22,2.27.07-.08.14,1.68-1.8.89l-.35-.15a3.49,3.49,0,0,1-.07,2.63c-2.52,6.28-8.32,9.46-16,8.55h0l.06-.08-.07.06c-3,3.25-6.87,3.29-10.69,2.5-3.09-.65-5.34-2.22-5.12-6.32.37-7.14-.14-14.33.17-21.48.21-4.66-1.11-6.85-6.14-6.94-9.54-.18-19.08-.85-28.62-1.37-1.63-.09-3.44.13-5.24-2.8C1031.63,733.13,1034.85,730.67,1037.63,727.78Zm115.67-121c-10.49-10.73-13.44-23.39-12.54-38.21.69-11.38,1.39-22.2,7.23-32.39,3.67-6.41,6.15-13.51,9.18-20.3.48.13,1,.26,1.44.41,1.92,17.6,3.87,35.19,5.73,52.8,2,18.65,3.63,37.31,5.73,55.94,2.12,18.83-1.68,36.64-8.79,53.88-5.64,13.64-13.83,25.74-23.53,36.9-2-1.11-.76-2.18-.4-3.14.48-1.27,1.05-2.51,1.61-3.75,5.83-12.68,11.23-25.59,17.64-38,5.35-10.33,6.88-21,7.33-32.43C1164.41,626.18,1161.91,615.56,1153.3,606.74ZM996,757.53c-5.22,0-3.41-4-3.51-6.64-.11-2.86-1-6.54,4.11-6.17,3.74.27,7.49.29,11.22.48,15.63.83,31.26,1.8,46.9,2.46,4.34.19,5.78,1.82,5.85,6.17.1,7.65-1.34,15.42,1.31,23.76-7.41,1-14.5,3-20.23,9.74,3.27,1.68,6.85,1.25,6.48,6.23-.78,10.51-.65,21.09-.71,31.64,0,3.47-1.47,5-4.83,4.92-1.71,0-3.43.15-5.12,0-7.33-.65-14.83,1.54-22.06-1.21a87.92,87.92,0,0,1-.14-25.4c1.12-7.08-1.31-13.66-.58-20.57.75-7.08.24-14.3.24-21.44,0-3.06-1.82-4.07-4.63-4C1005.57,757.53,1000.81,757.54,996,757.53Zm23,205.88c-14.15,6.72-28.51,13-42.72,19.58a43,43,0,0,1-20.88,3.83c-9.21-.51-15.93-4.9-18.21-13.75-4.42-17.13-9-34.34-9.82-52.1-.67-14.31,0-28.66-.21-43a36.15,36.15,0,0,1,6.64-22.12c11.64-16.43,26.12-29.58,44.94-37.43,8.7-3.63,17.49-7.07,26.92-10.88,1.45,8.53.53,16,.76,23.37s.19,7.61,7.1,7.67c11.6.09,23.21-.26,34.79.1,5.46.16,7.3-2.06,7.34-7.08.1-12.27.34-24.56.55-36.83.13-7.54.16-7.54,7.69-8.82,4.36-.75,8.71-2.15,13.08-2.15,22.13,0,33.07-15.12,42.22-31.8a74.24,74.24,0,0,1,13.16-17.83c17.21-16.9,31.11-36.06,39.53-59,6.62-18,8.42-36.3,6.3-55.3-4-36.25-7.4-72.58-11.48-108.83a48,48,0,0,1,4.91-27.55c7.53-15.3,13.92-31.09,17.48-47.88,4.5-21.21,6-42.56,2.2-64-1-6.06-.11-9.79,5.77-13.13,13.58-7.73,26.64-16.39,40.39-25,.34,6.73,5.57,8.49,10.08,9.63,4.31,1.1,5.91,3.35,7.42,7,6.14,14.78,11.58,29.81,16.67,45a27,27,0,0,1,.72,16c-5.6,21.33-3.3,41.85,6.28,61.65,2.18,4.52,5.31,8.95,1,14.18-1.71,2.07-.55,4.6,1.22,6.46,3.61,3.81,3.8,8.51,3.91,13.36.58,29.69,0,59.34-3.33,88.89-.61,5.47-1.24,10.87-4.8,15.39-2,2.6-3.28,6.25-1.81,8.61,4.2,6.84,1.16,13.29,0,19.76a453.18,453.18,0,0,1-34.29,108.85c-2.39,5.13-4.73,9.81-10.94,10.93-4.21.75-5.63,3.71-5,7.52,1.61,10.58-3.06,19-8.35,27.6a471.57,471.57,0,0,1-50.94,67.74c-2.75,3.05-5.47,5.9-10,6.54a82.18,82.18,0,0,0-19.68,5.33c-6,2.46-11.19,6.44-17,10.13-6.34-6.29-13.74-8.56-22.34-5.68A30.53,30.53,0,0,0,1078.07,894c-1.92,3.75-2,6.87.54,10.41,4.51,6.37,8.65,13,13.59,20.5-10.09,5.29-19.78,10.13-29.22,15.43-4.2,2.37-8.86-2.76-12.58,1.3-3,3.25-4.79,7.6-8.81,9.83C1034.14,955.56,1026.72,959.76,1019,963.41Zm91.33-70.08c-5.38,6.54-8.69,14.37-13.43,22.59-2.86-4.08-5.17-7.29-7.39-10.56-4.91-7.2-4.6-9.89,2.23-15.12,4.78-3.65,10.16-5.71,16.12-3.16C1110.37,888.14,1113,890.08,1110.36,893.33Zm16,23.52c3.88-14.43,9.23-19.47,23.42-22.62C1143.29,902.26,1135.14,908.48,1126.34,916.85Zm42.48-40.67a24.11,24.11,0,0,1-15,7.86c-6.41,1-12.8,2.27-18.42,5.74-7.41,4.58-14.11,10.13-16,19.05-3,14.77-12.14,24.22-24.33,32.27-17.93,11.83-35.81,23.65-54.67,34-7,3.83-6.75,6.07-11.52-3.94-.3-.61-.52-1.24-1.09-2.6,21.84-11.5,42.84-22.74,64-33.64,6.65-3.42,11.13-7.66,13.79-15.17,8.54-24,25-39.51,51.18-42.52,6.89-.79,10.78-5,14.89-9.51,50.23-55.3,84.49-119.23,103.6-191.39,9.55-36.06,14.73-72.7,16.83-109.92,1.53-27,1.92-53.83,0-80.76a28.45,28.45,0,0,0-3.62-12.51c-5-8.94-8.7-18.38-9.91-29,10.77,5.76,18.16,15.74,19.37,26.31,15,130.81-14.48,250.39-90.41,358.23C1195.82,845.41,1182.51,860.94,1168.82,876.18Zm121.68-449.1c.85,5.37,3.5,10.48,2.82,16.47C1285.27,438.86,1288.23,432.92,1290.5,427.08Zm33.18,110.07q2.73,178-104.91,320.05c-3.71,4.88-7.6,7.22-13.65,6.64-3.94-.38-7.95-.07-11.8-.07-.55-3.2,1.55-4.3,2.74-5.76,56.66-69.38,92.38-148.47,107.14-236.57,16.9-101,5.42-199-35.24-293.27-.8-1.87-1.32-4-2.59-5.52-3.95-4.62-.68-6.38,2.83-8.39,2.24-1.28,3.74-1.08,4.8,1.39,1.2,2.82,2.48,5.59,3.71,8.4C1306.56,392,1322.55,463,1323.68,537.15Zm60.56-272c-7.34,1.6-15.86,3-22.08.24-8.25-3.69-.78-13.35-3.35-18.89,0-6.16.07-11.25,0-16.34-.06-3.17.76-5.24,4.44-5.17,6.45.12,13-.46,19.33.28,10.54,1.23,17,8.78,17.47,19.21S1394.47,263,1384.24,265.18ZM1100.57,760.82a1.58,1.58,0,0,0-.47-.63C1100.1,760.47,1100.25,760.64,1100.57,760.82Zm-.47-.63c0,.28.15.45.47.63A1.58,1.58,0,0,0,1100.1,760.19Zm0,0c0,.28.15.45.47.63A1.58,1.58,0,0,0,1100.1,760.19Z"/><path class="cls-1" d="M1261.86,314.51Q1200.42,186.76,1081,109.79c5.21-4.49,9.37-2.25,14,.47,58.81,34.67,104.41,82.72,141.55,139.38a518.93,518.93,0,0,1,30.26,53.28C1270.23,309.79,1270.12,309.84,1261.86,314.51Z"/><path class="cls-1" d="M1218.77,857.2c-3.71,4.88-7.6,7.22-13.65,6.64-3.94-.38-7.95-.07-11.8-.07-.55-3.2,1.55-4.3,2.74-5.76,56.66-69.38,92.38-148.47,107.14-236.57,16.9-101,5.42-199-35.24-293.27-.8-1.87-1.32-4-2.59-5.52-3.95-4.62-.68-6.38,2.83-8.39,2.24-1.28,3.74-1.08,4.8,1.39,1.2,2.82,2.48,5.59,3.71,8.4,29.85,67.91,45.84,138.91,47,213.1Q1326.41,715.17,1218.77,857.2Z"/><path class="cls-1" d="M542.24,969.34c-10.61.8-19.89,1.82-29.22-4.61A471.17,471.17,0,0,1,406.26,864.06c-8.44-10.95-17.11-21.82-24.3-33.7s-14.75-23.75-21.7-35.86a358.66,358.66,0,0,1-19.13-38.41q-8.19-19.26-15.74-38.81c-5.13-13.36-9.16-27.09-12.93-40.89A525.55,525.55,0,0,1,295.24,494c7.53-93.31,38.47-178.59,88.77-257.29,6.65-10.42,15.67-16.73,25.84-22.25,5.85-3.17,10.92,1.42,18.29,2.09a514.08,514.08,0,0,0-45.72,64.79A501.88,501.88,0,0,0,318.73,459.2a517.27,517.27,0,0,0,8.23,205,500.77,500.77,0,0,0,77.92,172.1c3.26,4.62,6.16,9,3.84,15,3.38.21,6.19-1.7,9,2C452,898.34,493.07,935.9,540.17,967A16.8,16.8,0,0,1,542.24,969.34Z"/><path class="cls-2" d="M1632.23,778.41c.11-44,0-88-.09-132,0-2.12-.24-4.24-.36-6.35l-2.19.11v21c-5.83,0-9.46-2.79-13.53-4.22-1.34-.47-3.8-1.89-3.49,1.13.47,4.64-2.48,4-5.14,4l-153.6-.08c-5.41,1.11-5.58-2.64-5-6.4-6.2,1-10.38,5.66-16.33,4.77-2.24-7,1-14.6-2.59-22.39-.66,1.78-1,2.33-1,2.88q.12,82.38.35,164.77c0,7.49.25,7.63,8.39,7.65,23.88.06,47.76,0,71.63,0,3.34,0,6.84-.87,10.63,1.41v10.78q0,58.34,0,116.67l-.59,62.78h25.35V992.45q0-85.47,0-170.92c0-9.52.13-8.36,8.21-8.36,23.88,0,47.76,0,71.64,0,12.1,0,9.62-.34,10.41-10.73C1635.45,794.14,1632.21,786.55,1632.23,778.41Zm-96.6,217.06h-6.78v-183h6.78Zm88-191a18.34,18.34,0,0,1-4.07.23c-25.87-.39-51.76.92-77.62-.67-14.45-.89-28.79,1.12-43.23.75-14.29-.37-28.6,0-42.9,0-4.43,0-8.86,0-13.29,0-2.85,0-4.35-1-4.47-4.14-.11-3.48,1.28-4.9,4.77-4.88,12.6.06,25.2,0,37.8,0q26.06,0,52.11,0v0h83.78a62.76,62.76,0,0,1,7.13.21c2,.23,2.59,1.85,2.62,3.72C1626.3,801.81,1626.25,803.93,1623.63,804.47Zm-7.56-24.11c.42,5.42-1.4,7-6.76,6.95l-149-.08c-12,0-12,0-12-11.62,0-5.45.12-10.91,0-16.36-.11-3.53,1.3-4.72,4.79-4.7l155.6.15c7.11,0,7.16.14,7.25,7.27C1616,768.1,1615.59,774.27,1616.07,780.36Zm13.37,2.48c-.12,1.94.4,4.55-2.67,4.38s-2.27-2.81-2.27-4.67c0-9.89-.28-19.79.19-29.65.25-5.6-1.9-6.86-7-6.81l-177.68.19c0,11.08,0,21.6,0,32.1,0,2,0,4.08,0,6.13,0,3-2.27,2.91-4.24,3.06-2.26.16-4-.44-4.07-3.2,0-1.7-.07-3.41-.07-5.11q0-54.19.08-108.37c0-2-.3-4,1-6,3.57-.28,6.35,2.11,9.54,2.76,2.15.44,6.95,6.6,6.73-2.15,0-1.6,2.84-1.19,4.48-1.2l153.26,0c2.61.14,7.9-2.31,5.56,4.62-.56,1.63,1.69,1.36,2.89.82a95,95,0,0,0,9.2-4.29c3.66-2.14,5-.52,5.12,2.9.2,4.07.18,8.17.18,12.26q-.06,49.59-.13,99.17C1629.44,780.8,1629.5,781.83,1629.44,782.84Z"/><path class="cls-1" d="M1609.31,787.31l-149-.08c-12,0-12,0-12-11.62,0-5.45.12-10.91,0-16.36-.11-3.53,1.3-4.72,4.79-4.7l155.6.15c7.11,0,7.16.14,7.25,7.27.07,6.13-.36,12.3.12,18.39C1616.49,785.78,1614.67,787.36,1609.31,787.31Z"/><path class="cls-2" d="M636.48,168.21a26.69,26.69,0,1,1-26-27.09A26.52,26.52,0,0,1,636.48,168.21Zm-27.2-18.77c-9.77.28-18.11,9.09-17.76,18.78s9.12,18.12,18.81,17.8a18.56,18.56,0,0,0,17.77-18.78C627.78,157.46,619,149.16,609.28,149.44Z"/><path class="cls-2" d="M382.19,563.31c-14.64,1-24.66-12.42-24.39-24.5A24.49,24.49,0,0,1,383,514.72c13.07.31,24.14,11.5,24,24.37C406.83,551.77,396.66,564.35,382.19,563.31ZM382,523.68a16.06,16.06,0,0,0-15.62,16.52c.39,8.56,7.32,14.9,16.15,14.79a15.73,15.73,0,0,0,15.7-15.33A16,16,0,0,0,382,523.68Z"/><path class="cls-2" d="M433.82,749.07a22,22,0,0,1,22.64,21.54c.35,12.64-9.5,22.72-22.39,22.91A22,22,0,0,1,412,772.42C411.48,759.38,420.93,749.28,433.82,749.07Zm14,21.77c-.27-7.05-7.27-13.54-14.28-13.24s-13.79,7.59-13.38,14.24c.43,7.14,7.31,13.5,14.37,13.31C441.4,785,448.07,777.77,447.81,770.84Z"/><path class="cls-2" d="M465,356.37c-10-.26-17.3-7.85-17-17.78a17.63,17.63,0,1,1,35.24,1.16C482.73,349.71,475.14,356.64,465,356.37Zm.84-8.47a9,9,0,0,0,9.05-8.94c0-4.62-4.43-9.22-8.94-9.37s-9.3,4.06-9.56,8.63A9.29,9.29,0,0,0,465.86,347.9Z"/><path class="cls-2" d="M1240.06,556.75a24.61,24.61,0,0,1,.81-49.21c13.37.1,24.34,11.46,24.17,25A24.77,24.77,0,0,1,1240.06,556.75Zm16.41-24.21c.15-8.27-8.1-16.56-16.31-16.4-8,.16-15.58,7.78-15.69,15.86a16.41,16.41,0,0,0,16.16,16.29C1248.47,548.22,1256.34,540.4,1256.47,532.54Z"/><path class="cls-2" d="M1188.24,786.23c-12.66-.08-21.66-9.14-21.72-21.86-.06-13,9.51-22.57,22.45-22.5A22,22,0,0,1,1210.88,764C1210.91,776.9,1201.31,786.32,1188.24,786.23Zm13.74-22a13.06,13.06,0,0,0-13.41-13.38,13.42,13.42,0,1,0,0,26.83A13.2,13.2,0,0,0,1202,764.24Z"/><path class="cls-2" d="M1155,461c-.24-2.53-.36-4.49,1.74-4.85,2.45-.41,2.22,1.91,2.45,3.36.47,2.88,2,5.82,0,8.66a1.94,1.94,0,0,1-1.83.18C1154.19,466.37,1156.56,462.65,1155,461Z"/><path class="cls-2" d="M1129.64,423.37c5.56,1.43,7.13,5.31,9.42,8.42a1.58,1.58,0,0,1-.67,2.45c-.89.5-1.81.83-2.6-.06C1133.26,431.33,1130.11,428.84,1129.64,423.37Z"/><path class="cls-2" d="M1084.66,771.83c-.78-3.46-4.51,1-5.45-2.05a2,2,0,0,1,1-2.53c3.1-1.59,6.76-6.93,9-4.18,3.25,3.93-4.29,4-5.27,7.21-.14.47.35,1.13.54,1.71Z"/><path class="cls-2" d="M1142.22,439.64c5.78.92,7.1,5.18,9.55,8.08a1.47,1.47,0,0,1-.77,2.43c-.87.2-2.26.26-2.74-.25C1145.76,447.27,1142.83,444.84,1142.22,439.64Z"/><path class="cls-2" d="M1064.82,290.9c-3.15,3.85-6.91,3.68-10.53,3.9-1.43.09-2.69-.34-2.79-2a1.85,1.85,0,0,1,1.82-2C1056.82,290.77,1060.27,288.31,1064.82,290.9Z"/><path class="cls-2" d="M1050.32,322.14a9.29,9.29,0,0,1-2.15-.28c-3.49-2.16-6.15-5-6.91-9.18-.18-.95,1.32-1.87,2.07-1.37C1046.94,313.66,1050,316.48,1050.32,322.14Z"/><path class="cls-2" d="M1001.06,213.55c1.26-.88,1.83-1.62,2.3-1.55,4.1.55,7.72,2.1,10.1,5.69.19.29-.42,1.62-.79,1.68-4,.63-6.63-2.24-9.68-4A14.13,14.13,0,0,1,1001.06,213.55Z"/><path class="cls-2" d="M1104.86,283.05c-4,4.15-8.48,3.52-13.13,3.54C1094.37,281.76,1095.87,281.35,1104.86,283.05Z"/><path class="cls-2" d="M1049.19,258.19c-4.88,2.36-9.06,1.11-14.38-2.62C1041.21,253.14,1045.18,255.77,1049.19,258.19Z"/><path class="cls-2" d="M1033.47,228.13c-6.06,2.49-9.18-1.3-12.83-3.25a1.78,1.78,0,0,1-.65-2.56c.51-.63,2-1.28,2.52-1C1026,223.19,1029.9,224.33,1033.47,228.13Z"/><path class="cls-2" d="M1085.24,287.05c-4.71,3.83-8.9,3.87-13.4,3.33C1074.38,285.79,1076.28,285.27,1085.24,287.05Z"/><path class="cls-2" d="M1089.86,259.09c-3.57,4.1-8.08,3.07-13.56,3.17C1080.25,255.74,1085.42,258.68,1089.86,259.09Z"/><path class="cls-2" d="M1034.81,250c-4.59-3.64-3.16-8-4-11.66a1.59,1.59,0,0,1,1.75-1.91,3.1,3.1,0,0,1,2.11,1.65C1035.74,241.61,1036.67,245.18,1034.81,250Z"/><path class="cls-2" d="M1040.61,306.09c-3.48-4.47-2.95-7.81-2.13-11a2.89,2.89,0,0,1,3.26-1.86,2.25,2.25,0,0,1,1.93,2.94C1043,299,1042,301.84,1040.61,306.09Z"/><path class="cls-2" d="M1096.39,258.37c3.39-3.7,7.38-4.26,11.08-5.39,1.46-.45,1.71.57,2,1.48s0,2.38-1,2.57C1104.84,257.73,1101.44,260.94,1096.39,258.37Z"/><path class="cls-2" d="M1108,265.11c2,4.18,2.35,8.45.41,13.85C1104.12,273.81,1105.17,269.54,1108,265.11Z"/><path class="cls-2" d="M1055.36,260.33c5.51-3.49,9.44-2.84,13.23-.42.27.18.17,1.67,0,1.73C1064.44,263,1060.46,262.51,1055.36,260.33Z"/><path class="cls-2" d="M1102,387.05c-6.88-1.87-9.1-5.68-10.06-10.46-.07-.33,1.11-1.33,1.39-1.22C1098.08,377.22,1099.84,381.27,1102,387.05Z"/><path class="cls-2" d="M1112.81,403.05c-4.31-1.87-6.13-5.46-8.25-8.69-.32-.49.29-1.79.75-2.54a1.76,1.76,0,0,1,1.68-.29C1109.91,394.64,1114.54,396.94,1112.81,403.05Z"/><path class="cls-2" d="M1080.74,359.54c3.21.57,4.48,3.46,6.31,5.69,1,1.24,2.3,2.51,1.41,4.31a2,2,0,0,1-1.66.76c-2.58-.2-8.18-7.17-7.61-9.47C1079.31,360.36,1080.09,360.06,1080.74,359.54Z"/><path class="cls-2" d="M1026.7,796.4c-1.54.1-2.53-.09-2.94-1.1a2,2,0,0,1,.87-2.54,3,3,0,0,1,.87-.45c3.1-.85,5.77-3.51,9.33-2.29.4.14.92,1.3.74,1.57C1033.37,795,1029.41,795,1026.7,796.4Z"/><path class="cls-2" d="M1367.57,245.46a8.16,8.16,0,0,1,0-2c1.12-3.73-2.93-9.5,3.87-11,8.07-1.74,16,1.93,18.15,8,2.33,6.55.2,12.73-5.31,16-2.49,1.46-5.18,1.56-7.87,1.8-8.6.78-8.71.68-8.87-7.61C1367.54,248.86,1367.57,247.16,1367.57,245.46Z"/><path class="cls-2" d="M1011.17,141.1a26.67,26.67,0,0,1-.55,53.33,26.67,26.67,0,1,1,.55-53.33ZM1029,167.18c-.25-9.55-9.33-18.08-18.89-17.74a18.6,18.6,0,0,0-17.69,18.82c.21,9.66,9.22,18.18,18.76,17.77C1021,185.6,1029.24,176.88,1029,167.18Z"/></g></g></svg>