<svg xmlns="http://www.w3.org/2000/svg" viewBox="0 0 1920 1080"><defs><style>.cls-1{fill:#f2f2f2;}.cls-2{isolation:isolate;}</style></defs><g id="Capa_2" data-name="Capa 2"><g id="Capa_1-2" data-name="Capa 1"><g id="Capa_2-2" data-name="Capa 2"><g id="Capa_1-2-2" data-name="Capa 1-2"><rect class="cls-1" width="1" height="1"/><rect class="cls-1" x="1919" y="1079" width="1" height="1"/><rect class="cls-1" y="1079" width="1" height="1"/><rect class="cls-1" x="1919" width="1" height="1"/><path d="M961.33,843.81c2-.68,3.1-1.3,4.19-1.37a76.13,76.13,0,0,1,9.31-.13c94.5,6.51,187.36,21.06,277.79,50.77,18,5.91,39.08,2.29,58.77,2.53,2.54,0,5.33-2.89,7.66-4.86,69.81-58.9,139-118.46,209.72-176.29,16.63-13.59,24.27-27.25,21.47-48.12-2.14-15.92,2.61-32.34-5.07-48.13-3.21-6.59,2.41-11.71,10-12,8.16-.3,16.38-.71,24.47,0,9.88.94,12.62-2.93,12.5-12.5L1593,471.1l-4.64-3.64c-15.46-6.64-29.65-12.67-43.77-18.79-132-57.08-266.72-105-410.95-120.35-1.91-.19-5.16-.19-5.48-1.09-4.37-12.31-14.72-7.41-22.84-7.88a311.83,311.83,0,0,0-31.48,0c-11.39.51-19.33-7.23-20.7-15.3-3.76-22.33-4.4-45.16-6.29-68l12-1.49v-.95l-10.55-1.43c-4.18-14.36-8-27.61-12-41.35,2.69-.15,5.69-.49,8.67-.51h133c5.43,0,11.43,1.41,16.16-.43,4.45-1.71,7.55-6.87,11.26-10.51-3.56-3.34-6.79-7.15-10.81-9.78-1.91-1.26-5.31-.28-8-.28-54,0-108.08.13-162.12-.21-5.82,0-11.73-2.55-17.42-4.41-8.82-2.91-17.32-8.28-26.24-9l-54.84-.3c-12.39,10.25-22.08,13.91-36.53,13.91H731.94c-2.34,0-5.33-.9-6.87.22-4.13,3-7.66,6.87-11.43,10.4,3.89,3.47,7.3,8.09,11.86,10,3.93,1.69,9.16.34,13.82.34h143.5c-4.1,14.1-8,27.61-12.24,42.08L858,233.57a9.53,9.53,0,0,1-.11,1l14.19,1.84c-1.8,22.58-2.4,44.71-5.84,66.39-1.46,9.1-9.12,16.84-20.85,16.59-10.89-.24-21.79-.41-32.64.06-7.83.34-17.65-4-21.76,7.73-.32.92-3.51,1-5.4,1.24-145.77,15.45-281.72,64.27-415,122l-39.9,17.27-2.52,3.56L327,590.56c0,15.6.05,15.62,16.08,15.79,6.61.07,13.24-.25,19.84.11,10.1.56,13.05,6.14,9.8,15.77a68.53,68.53,0,0,0-3.81,19c-.56,14,.34,28-.36,42-.45,9.06,2.69,15,9.65,20.76q82.35,68.7,164.16,138.11c19.11,16.12,38.16,32.36,59.28,50.3,3.87,3.94,11.41,4,11.41,4,24.37.28,48.13-.11,72.19-8.28,78-26.54,159.25-37.8,241.12-44.67,10.18-.86,20.52-.11,32.36-.11Zm140.61-669.72c29.84.3,59.69,0,89.53.36,3,0,5.86,3.32,8.8,5.1-2.29,2-4.58,5.82-6.92,5.84-32.83.38-65.68.26-98.15.26-2.12-7.65-1.63-11.65,6.74-11.56Zm-12.86.79v10.74c-26,0-51.54.45-77-.4-4.79-.15-9.41-5.48-13.31-10.34Zm-52.86,58.86c-11.69-3.47-6.94-13.7-10.15-19.78-3.77-7.08-6.85-14.55-10.17-21.79,11-1,20.66,17.3,20.32,41.57ZM957.9,169.89c0,9.1.37,18.22-.3,27.27-.12,1.8-3.91,4-6.42,4.86-15.73,5.24-27.46,18.85-27.58,32.57-.13,14.36,11.47,27.87,27.78,33.67,2.89,1,5.56,5.24,6.5,8.52,1.12,3.91.26,8.39.26,12.71,1.13-.19,2.25-.32,2.25-.36-.88-12.35,2.2-19.91,15.43-26.26,9.16-4.41,18.81-19.4,18.36-29.2-.51-11-7.79-26-22.26-29.28-11.13-2.56-11.7-8.88-11.13-17.57.35-5.35.07-10.74.07-16.8,35.31,1.65,60.44,26.95,63.07,62.39l-14.34,1.22v1.07l13.29,1.46c3.85,29.51-24.21,60.93-56.63,64.07-36.21,3.54-70-23.09-72.51-57.16C890.7,202.85,917.69,171.16,957.9,169.89Zm-26.19,63.38c-.34-14.13,10.21-26.18,22.43-26.61,18.94-.68,31.82,9.18,33.36,25.58,1.5,15.84-8.75,28.55-26,30.71-.37-7.3-.67-13.74-1-20.18l-1.88-.13c-.3,6.53-.58,13-.88,19.5-15,1.37-24.59-7.26-27.63-26.07h44.41v-2.8ZM884.92,235c-5-18.19,5.48-41.91,15.58-43C895.69,205.27,890.66,219.2,884.92,235ZM765.24,185.69c-13.18,0-26.37.28-39.51-.3-2.44-.11-4.71-3.75-7-5.76,2.12-1.78,4.24-5.09,6.4-5.11,32.85-.32,65.7-.22,99.16-.22.19,4,.32,6.94.53,11.39Zm64.74,0c-.25-3.57-.51-5.48-.49-7.38a17.71,17.71,0,0,1,.86-3.66h89.27c-5.7,8.09-12.46,11.53-22.31,11.25-22.08-.62-44.17-.19-67.31-.19ZM803,328.53c13.53,0,27-.56,40.47.19,9.72.54,17.51-1.6,23.18-9.74,6.08-8.73,14.13-12.58,24.85-10.46,1.56.32,3.38-.69,5.14-3.62l-20.29-1.13c1.79-23,3.57-45.53,5.33-68l4.64-.32a82.6,82.6,0,0,1,2.87,9.82c4.69,27.69,20.22,46.59,46.48,56.22,9.57,3.51,17.94,10.19,29.86,7.41,32.36-7.53,56.48-31.31,63.14-63.63.7-3.4,3.66-6.36,5.56-9.5,1.37,3.25,3.68,6.44,4,9.8,1.72,18.92,2.94,37.86,4.41,57.87-7.21.58-13.82,1.11-21.91,1.78,2,1.71,2.91,3,3.51,2.91,14.53-2.87,23.71,5.11,32.68,14.87,2.89,3.17,8.5,5,13,5.33,10,.77,20.18.24,30.29.24,17.27,0,17.27,0,21.33,18.28-53.48-3.36-106.09-6.68-159.57-10.06-.54-3-1.18-6.57-1.8-10.13l-1.26-.1c-.56,3.48-1.12,7-1.63,10.23l-159.88,10C799.16,340.92,800.88,335.31,803,328.53ZM957,831.36c-27.38,2.56-54.84,4.34-82.08,7.81-72.11,9.22-143.4,21.79-212.55,45.61-15.37,5.3-33.79,2-50.81,2.07-2.55,0-5.29-3-7.62-5q-109.58-92.42-218.87-185.2c-3.51-3-6.12-8.82-6.42-13.51a396.42,396.42,0,0,1-.11-40.79,59.54,59.54,0,0,1,3.79-17.83c5.14-13.91-2.18-26.51-17.08-27.5-9.18-.6-18.45-.11-29-.11,0-28.14-.15-55.24.28-82.31,0-2.59,3.36-5.59,5.82-7.6,4.2-3.49,8.93-6.33,13.44-9.46-.64-1.07-1.3-2.14-2-3.19l-17.63,9.93c0-8.92-.64-16.2.3-23.28.38-3,3.49-6.83,6.33-8.09,134.86-59.76,271.73-113.16,419.4-132.23,10.34-1.32,20.7-2.37,31.57-3.63-.34,8.43-3.49,11.9-11.21,12.77-110.37,12.5-215.37,45.7-319.37,83-17.42,6.23-33.43,14-46.7,27.44-4.9,4.94-12.33,7.38-20.78,12.2,4.64.53,7,.79,10.74,1.24-17.23,25.42-14.51,54-14.49,82.23,0,26.81.11,53.63,0,80.43-.25,35.64,13.19,64.64,40.3,87.88,49.53,42.52,98.63,85.52,147.85,128.39,18.84,16.42,40.05,26.86,65.58,25.3,8-.49,16-2.68,23.65-5.22C758.75,842.85,850,824,944.72,825.11c4.47,0,8.93,1.15,13.4,1.77C957.75,828.38,957.37,829.86,957,831.36Zm-88.08-7.88c-68.35,5.8-134.87,21.9-199.64,44.54-31.18,10.89-58.13,4.26-82.33-16.22-31.16-26.37-61.73-53.4-92.55-80.13-18.79-16.31-37.32-32.9-56.41-48.85-27.72-23.17-41.57-52.3-41-88.64.51-35.38.92-70.78-.11-106.14-1.2-41.37,24.81-76.06,63.16-89.25,76-26.15,151.87-52.8,230.8-69,84.59-17.42,170.32-24.59,256.53-26.8,3-.08,6.06.45,10.43.82v29.87l2.82.07V344.22c4-.56,6.61-1.4,9.18-1.2,52.63,3.81,105.3,7.49,157.91,11.68,102.3,8.18,199.21,38.72,295.5,71.7,13.23,4.54,26.33,9.42,39.56,14,33.79,11.57,59.22,45.07,59.11,81.28-.11,40.43.32,80.86-.22,121.29-.36,29-11.55,53.76-33.47,73-52.33,45.85-104.59,91.75-157.5,136.91-23.37,20-50.17,26.2-80.39,15.35-123.62-44.49-251.37-55.75-381.37-44.75Zm713.9-333.32c-.62,4-.08,8.17-.08,13.93l-17.19-9.71c-.68.74-1.35,1.49-2,2.24,3,2.57,5.58,6,9,7.54,8.39,3.7,10.51,9.52,10.27,18.42-.66,24.36-.23,48.76-.23,74.53-10.21,0-19.46-.39-28.64.08-13.4.71-20.74,11.54-18.43,24,2.55,13.89,3,28.14,5.35,42,3.47,20.76-5.54,33.58-21.5,46.68-68.51,56.14-135.63,114-203.56,170.84-4.52,3.76-11.5,5.43-17.57,6.35-29.18,4.37-55.52-7.23-82.68-15-75.36-21.44-152.47-33-230.53-38.56-6.95-.52-13.95-.9-20.93-1.4-.68-.06-1.35-.64-3.34-4,3.28-1.09,6.64-3.29,9.83-3.08,39.87,2.55,79.93,3.88,119.57,8.63,55.28,6.63,108.83,21.61,161.4,39.85,29.64,10.27,56.84,3.94,79.72-15.28,55-46.21,109.17-93.49,162.9-141.24,20.84-18.53,31.63-43.42,32.16-71.42.82-42.35,1.22-84.75-.23-127.06-.54-15.31-7-30.42-10.68-45.5h5.73c-.81-1.55-1-2.77-1.75-3.26-8.5-5.93-16.93-12-25.66-17.5-8.16-5.21-16.12-11.26-25.07-14.54-83.17-30.41-166.91-59-254.17-75.68-25.53-4.88-51.41-8-77-12.62-4.83-.88-9-5.14-13.56-7.86.7-1.69,1.41-3.36,2.11-5,20.53,2.93,41.1,5.67,61.58,8.84,114.07,17.61,221.56,56.7,327.46,100.87,18.27,7.62,36.1,16.35,54.64,23.24,10.53,4,14.81,9.75,13.09,20.67Z"/><path class="cls-1" d="M1521.64,642.93c-.36,29-11.55,53.76-33.47,73-52.33,45.85-104.59,91.75-157.5,136.91-23.37,19.95-50.17,26.2-80.39,15.35-123.6-44.43-251.35-55.69-381.35-44.69-68.35,5.8-134.87,21.9-199.64,44.54-31.18,10.89-58.13,4.26-82.33-16.22-31.16-26.37-61.73-53.4-92.55-80.13-18.79-16.31-37.32-32.9-56.41-48.85-27.72-23.17-41.57-52.3-41-88.64.51-35.38.92-70.78-.11-106.14-1.2-41.37,24.81-76.06,63.16-89.25,76-26.15,151.87-52.8,230.8-69,84.59-17.42,170.32-24.59,256.53-26.8,3-.08,6.06.45,10.43.82V373.7l2.82.07V344.22c4-.56,6.61-1.4,9.18-1.2,52.63,3.81,105.3,7.49,157.91,11.68,102.3,8.18,199.21,38.72,295.5,71.7,13.23,4.54,26.33,9.42,39.56,14,33.79,11.57,59.22,45.07,59.11,81.28C1521.75,562.07,1522.18,602.5,1521.64,642.93Z"/></g><g id="Capa_3" data-name="Capa 3"><g class="cls-2"><path d="M800.83,530.87v111H781V571.16l-19.5,14.91L745.32,598.6l-16.18-12.53-19.51-14.91V641.9H689.8v-111l19.83,15.23,35.69,27.44L781,546.1Z"/><path d="M854.75,567.83v75.5H834.93V565.77a15.83,15.83,0,0,0-13.48-13.49H817V532.61h4.29v.16a35.55,35.55,0,0,1,13.48,3.65,35.17,35.17,0,0,1,16,16.18,42.55,42.55,0,0,1,2.7,7.45,33.53,33.53,0,0,1,1,8.09Z"/><path d="M940.4,530.87a35.81,35.81,0,0,1,35.85,35.85v39.17a35.81,35.81,0,0,1-35.85,35.85H906.14a35.81,35.81,0,0,1-35.84-35.85V566.72a35.81,35.81,0,0,1,35.84-35.85ZM906.14,550.7A16.25,16.25,0,0,0,890,566.88v39.17a16.25,16.25,0,0,0,16.18,16.18H940.4a16.24,16.24,0,0,0,16.18-16.18V566.88A16.24,16.24,0,0,0,940.4,550.7Z"/><path d="M1102.82,622.39v19.83H992.11V609.54a31.61,31.61,0,0,1,2.69-12.84,32.58,32.58,0,0,1,28.87-20h48.06a13,13,0,0,0-1.11-25.85H992.43V531h78.19a32.63,32.63,0,0,1,32.68,32.67,32.4,32.4,0,0,1-9.36,22.68,33,33,0,0,1-22.37,10h-47.9a12.91,12.91,0,0,0-11.58,12.85v12.84Z"/><path d="M1229.71,622.39v19.83H1119V609.54a31.62,31.62,0,0,1,2.7-12.84,32.57,32.57,0,0,1,28.87-20h48.06a13,13,0,0,0-1.11-25.85h-78.2V531h78.2a32.62,32.62,0,0,1,32.67,32.67,32.33,32.33,0,0,1-9.35,22.68,33,33,0,0,1-22.37,10h-47.9A12.91,12.91,0,0,0,1139,609.23v12.84Z"/></g></g></g></g></g></svg>