<svg xmlns="http://www.w3.org/2000/svg" viewBox="0 0 1920 1080"><defs><style>.cls-1{fill:#f2f2f2;}.cls-2{fill:#020202;}.cls-3{isolation:isolate;}</style></defs><g id="Capa_2" data-name="Capa 2"><g id="Capa_1-2" data-name="Capa 1"><g id="Capa_2-2" data-name="Capa 2"><g id="Capa_1-2-2" data-name="Capa 1-2"><rect class="cls-1" width="1" height="1"/><rect class="cls-1" x="1919" y="1079" width="1" height="1"/><rect class="cls-1" y="1079" width="1" height="1"/><rect class="cls-1" x="1919" width="1" height="1"/><path class="cls-2" d="M1704.14,623c-8.84-5.33-16.63-5.13-24.46-5.1-18.89.12-37.79.27-56.66-.09-4-.09-11.35,3.24-10.27-6.17.1-24.7-4.73-48.29-16.26-70.3-12.11-20.11-28.51-35.91-48.37-48.26a1354.69,1354.69,0,0,0-169.07-68.59c-96.06-29.6-194.09-49.65-294.27-58.11-27.31-2.29-47.79-19.28-61.5-37.21-13.58-17.73-28.73-31.76-45.62-44.91-6.26-4.87-8.31-10.15-8.23-17.7.28-25.89-.16-51.79.14-77.7.08-8.16.29-15.06-11.11-13.17-3.3.56-5.8-.1-6.84-4.58-3.82-16.68.86-23,17.93-23h298.81c6.46,0,13-.23,19.42.07,5,.23,7.87-1.58,8.86-6.49,1.77-8.84-8.9-14.7-5.88-24.49.39-1.26-10-1.42-15.46-1.42-255.36-.07-49-.07-304.37,0-7.86,0-16-1.14-23.51.43l-13.88,2.6c-16.41,12.13-12.72,29.58-12.44,45.83.15,9-2.24,12.89-11.45,11.16-11.38-2.12-13.65,3.28-13.52,13.81.56,43.94.25,87.87.18,131.83,0,3.66.91,9-1.07,10.69-15.46,13.47-29,30-51.4,32.91-22.92,2.94-45.73,6.56-69,6-3.84-.08-9.21-3.53-11.9,2.7-7.5.87-14.35,5.24-22.23,4.22C673.93,388.29,608.65,405,544,424.45a1291.09,1291.09,0,0,0-150.39,59c-26.36,11.24-47.59,29.12-65.82,50.89-.1,1.38.28,3-.34,4.1-12.84,21.64-18.53,45.06-17.6,70.14.21,5.84-1,9.36-8.18,9.61-26.23.86-52.52-2.31-78.77,1.7-17.52,6.46-9.5,91-9.5,91C213.32,731.88,230,748,251,748c17.58,0,35.16.39,52.72-.13,7.64-.22,12.06,1.68,13.89,9.6,4.7,20.26,17,35.32,32.89,48.26,19.37,15.75,38,32.4,56.89,48.71,30.56,26.39,65.18,45,104.32,55.18,93.21,22.66,180-14.59,180-14.59C773.42,868.5,857.93,856.6,944,855.81l27,.08c37.48.66,74.84,2.49,112.07,7,64.9,7.76,127.21,26.35,189.83,44.08,87.58,24.8,167.28,7.78,238-49.59C1531,841.07,1550,823.38,1570,807c16.48-13.54,30-28.7,34.61-50.22,1.39-6.48,5.21-9.06,11.83-8.88,12.5.31,25.1-1,37.43.38,21.77,2.42,40-2.26,52.8-21.16,3.88-11.39,1.21-23.32,3-34.88C1709.56,692.19,1714.22,631,1704.14,623ZM258.32,737.3c-23.6.51-33.9-9-33.92-32.4,0-20.35.44-40.72-.18-61.06-.31-10.55,2.9-14.93,14-15,29-.19,29-.61,29.07,28.63v27.75c0,14.34-.51,28.71.25,43C268,736,265.11,737.14,258.32,737.3Zm26.84,0c-9.06.66-12.79-1.15-12.41-11.77,1-27.21,1.34-54.51-.05-81.67-.74-14.39,5.66-14.51,16.7-15.28,12.82-.91,13.07,5.29,12.74,14.59-.46,13.36-.12,26.76-.12,40.16,0,13.84-.79,27.75.22,41.53C303.31,739.51,293.75,736.66,285.16,737.3Zm642-598.59c.35-10.42,9.61-14.9,18.89-17.21,3.51-.87,7.36-.44,11.05-.44,258.18,0,54.68,0,312.86.2,4.81,0,12.16-3.8,14.32,3.55,1.65,5.64,9.76,10,5.8,15.89-3,4.55-10.28,1.86-15.57,1.86-255.41.1-49.12.07-304.53.05-22.63,0-23.7,1.06-23.7,23.32,0,15.72-.07,31.45,0,47.17,0,5.62-.08,11.11-8.55,15.29V178.72h-2.34c0,13.25.12,26.5-.1,39.75,0,2.77,1.78,7.38-3,7.66-3.89.25-5.11-3.81-5.13-7-.29-26.81-.92-53.64,0-80.42ZM1614.5,638.34c0,30.06-.21,60.12-.15,90.16,0,4.47.37,8.09-5.62,9-9.16,1.36-12.77,8.38-14.68,16.42-4.15,17.39-14.14,30.6-27.77,41.89-23.5,19.43-45.58,40.69-69.83,59.12-69.38,52.75-146.67,65.32-229.37,39.2-96.67-30.54-195-49.49-296.69-48.91-5,0-9.51.18-9-6.76.55-7.79,6.61-4.89,10.48-4.93,68.28-.41,135.37,9.35,202,23.34,38.94,8.16,76,23.24,114.7,31.61,89.65,19.4,167.22-4.71,231.4-70.5,14.52-14.88,28.39-30.41,42.15-46,20.29-23,31.17-49.94,31.48-80.8.17-17.11-1-34.28,0-51.32,2.25-35.3-6.79-66.68-29.51-94-25-24-57.71-35.23-87-52.16-94.45-39.94-193.56-64-293.35-85.46-39.8-8.57-80.23-13.55-120.85-16.22-20.73-1.37-29.66,5.09-35.75,24.74C1019.63,441.05,1015.81,444,991,444c-21.75,0-43.5,0-65.26-.29-18-.23-23.68-4.55-29.3-21.44-9.33-28.09-14.58-32-44.17-29.82-88.87,6.55-174.91,27.8-260.56,51.22-67,18.31-132,41.09-193.56,74.05-47.81,25.61-71.66,63.55-70.09,117.5.81,28.1-2.74,56.4,4.14,84.26,2.8,11.33,6.13,22.7,13.05,31.83,35.84,47.3,73.15,93.42,128.48,119.68,59.49,28.24,120.68,31.46,183.36,10.94A970.64,970.64,0,0,1,934.6,833.54c5.55-.14,11.1-.08,16.64-.16,3.87-.07,7.17-.12,7.32,5.49.18,6.23-3.28,6.33-7.86,6.39-13.42.18-26.82.64-40.23,1-88.05,2.48-172.78,22.38-256.58,48-89.59,27.39-170.59,10.68-242-50.58-19.28-16.56-38.53-33.17-58-49.47-12.43-10.37-21.53-22.73-25.55-38.53-2.25-8.92-5.53-17.06-16-18.46-5.82-.77-4.56-4.68-4.56-8.19q-.06-45.78.06-91.58c0-2.67.25-7.28,1.47-7.68,15.85-5.17,11.11-18.44,11.62-29.25,2.16-46.2,23.65-80,65.05-100.3,126-61.69,259-99.94,398.26-116.75,16-1.92,32.08-4.15,48.18-5.58,24.39-2.18,45.18-11.65,64.18-32.58,0,19-.1,34.47,0,49.93.17,23.72,12.12,35.5,36.06,35.75,20.6.19,41.7,3.44,60.7-7.73,2.75-1.63,12.46-1.49,5.63-9.61-24.07,17.22-51.3,12.59-77.68,9.9-13-1.33-19.1-12.29-19.14-25.26-.13-69.37,0-138.75-.18-208.13,0-6.26,1.35-9.41,8.41-8.88,5.7.41,11.42-.61,10.73,8.11-.4,5.06.13,10.18,0,15.26-.3,12.13-1.36,24.42,13,30.5,1.28.56,1.31,4,2.53,8.19.61-3.49.37-5.83,1.21-6.34,18.44-10.88,13.56-28.86,14-45.24.15-4.6-2.24-10.76,6.57-10.4,8.08.35,5.26,6.08,5.29,10,.23,25,.56,49.95.13,74.92-.16,10.18,2.44,18,11.51,23.3,3.95,2.32,7.43,5.47,11.12,8.26,37.21,28.29,44.71,68.19,20.32,108.24,7.6-.89,7.7-.84,11-7.2,5.85-11.42,7.3-23.65,6.58-36.31-.28-4.86,0-9.76,0-19.15,32.13,39.88,75.69,34.79,115.44,39.85A1297.52,1297.52,0,0,1,1497,481.73a34.81,34.81,0,0,1,4.67,2.93c21.4,9,43.09,17.63,61.1,33a87,87,0,0,1,19.57,24.16c14.78,19.78,19,42.57,19,66.57,0,8.37-.78,17,9.94,20.37C1615.85,630.21,1614.5,634.83,1614.5,638.34ZM513.92,658.76V492.36c-3.67-14.26,1.78-20.75,16.24-24.87C591.51,450,652.6,431.54,715.29,419.13c48.49-12.37,98-18.12,147.73-22,14.79-1.15,21.3,5.11,26.45,22.6,9.23,26.51,13.42,29.25,45.27,29.6,23.55.26,23.55.26,23.6,24,0,6.46-.69,13,.2,19.36.68,4.78,2.74,1.11,4.09-.28-.2-13.36-5.18-29.66.72-39.27,6.2-10.1,23.72-2.59,36.23-3.64,17.17-1.45,24.7-6.73,30.39-23.19,10.13-29.3,11.89-30.87,42.63-28.13,40,3.56,79.8,8.5,119,17.48,70.11,14.24,138.92,33.46,207.29,54.34,13.88,4.23,8.14,13.94,8.41,22.3v47.23a694.55,694.55,0,0,1,0,72.15v47.23a717.08,717.08,0,0,1,0,72.13c.18,47.17.09,94.34.79,141.5.12,7.9-3.89,9.36-9.44,10.62-42.37,9.49-84.43,9.09-125.89-4.58-100.88-33.26-204.34-50.9-310.57-51a971.29,971.29,0,0,0-308,49.6c-42.73,14.16-86.06,16.07-129.91,6.18-5.72-1.28-11.27-1.83-11.16-10.72.66-48.09.66-96.18.89-144.27Zm1073.52.06c.38,23.49,3.3,47.2-6.79,69.66a52.11,52.11,0,0,1-10.12,22.6c-32.91,41.21-65.89,82.48-113,108.85-13.57,7.58-27.41,14.9-43.06,16.94V731.22c.11-2,.23-3.94.33-5.9a26.21,26.21,0,0,1,0-14.11c-1.85-17.3-1.42-34.64-.27-52a279.16,279.16,0,0,1,.13-50.24,484.37,484.37,0,0,1,0-66.86c-1.53-19.34-1.88-38.65.35-57.95-1.86-2.24-2.29-5.22-.45-7,2.79-2.64,5.46,0,7.9,1.66,43.47,14.92,84.86,34.1,123,59.89,23.52,18.69,40.51,40.87,39,72.94C1591.46,627,1586.8,643.1,1587.44,658.82ZM507.31,731.07V878.14a212.37,212.37,0,0,1-74.91-39.68c-28.76-23.49-52.79-51.75-76.19-80.33-12.76-15.56-19.65-34.48-21.26-54.75-2.54-31.8-3.35-63.74.38-95.47,3.44-29.41,17.93-53.85,42.14-70.35,29.73-20.25,62.08-36.17,96-48.5,9.94-6.82,21.87-8.47,32.74-13.63,2.49,6.2,1.5,11.55,1.07,16.89q0,84.62-.08,169.25Q507.26,696.33,507.31,731.07Zm1129.06,5.67c-5.31-1.52-14.63,6.76-15.84-5.78a576.64,576.64,0,0,1,.12-66.52c-.27-6.43.06-13-.92-19.28-2.13-13.37,2.81-17.4,16.28-16.56,9.72.61,13.53,1.93,13.18,12.8q-1.29,41.54,0,83.11c.31,10.49-2.83,15.08-12.82,12.23Zm61.47-93.08c-.21,21.65-.61,43.31-.94,65,3.48,13.25-6.92,18.93-14.32,26.25-7.32,4.22-15.26,1.37-22.89,2-5.75.46-5.09-3.89-5.11-7.52V636.63c0-1.82-.09-4.88.76-5.24,11.45-4.87,23.51-2.2,35.25-1.75,8.17.24,7.32,8.12,7.25,14Z"/><path class="cls-1" d="M1407.28,611.64v47.23a717.08,717.08,0,0,1,0,72.13c.18,47.17.09,94.34.79,141.5.12,7.9-3.89,9.36-9.44,10.62-42.37,9.49-84.43,9.09-125.89-4.58-100.88-33.26-204.34-50.9-310.57-51a971.29,971.29,0,0,0-308,49.6c-42.73,14.16-86.06,16.07-129.91,6.18C518.54,882,513,881.49,513.1,872.6c.66-48.09.66-96.18.89-144.27l-.15-69.61V492.36c-3.67-14.26,1.78-20.75,16.24-24.87C591.51,450,652.6,431.54,715.29,419.13c48.49-12.37,98-18.12,147.73-22,14.79-1.15,21.3,5.11,26.45,22.6,9.23,26.51,13.42,29.25,45.27,29.6,23.55.26,23.55.26,23.6,24,0,6.46-.69,13,.2,19.36.68,4.78,2.74,1.11,4.09-.28-.2-13.36-5.18-29.66.72-39.27,6.2-10.1,23.72-2.59,36.23-3.64,17.17-1.45,24.7-6.73,30.39-23.19,10.13-29.3,11.89-30.87,42.63-28.13,40,3.56,79.8,8.5,119,17.48,70.11,14.24,138.92,33.46,207.29,54.34,13.88,4.23,8.14,13.94,8.41,22.3v47.23A693.78,693.78,0,0,1,1407.28,611.64Z"/><path class="cls-1" d="M1587.44,658.82c.38,23.49,3.3,47.2-6.79,69.66a52.11,52.11,0,0,1-10.12,22.6c-32.91,41.21-65.89,82.48-113,108.85-13.57,7.58-27.41,14.9-43.06,16.94V731.22c.11-2,.23-3.94.33-5.9a26.21,26.21,0,0,1,0-14.11c-1.85-17.3-1.42-34.64-.27-52a279.16,279.16,0,0,1,.13-50.24,484.37,484.37,0,0,1,0-66.86c-1.53-19.34-1.88-38.65.35-57.95-1.86-2.24-2.29-5.22-.45-7,2.79-2.64,5.46,0,7.9,1.66,43.47,14.92,84.86,34.1,123,59.89,23.52,18.69,40.51,40.87,39,72.94C1591.46,627,1586.8,643.1,1587.44,658.82Z"/><path class="cls-1" d="M507.31,492.32q0,84.62-.08,169.25,0,34.75.08,69.5V878.14a212.37,212.37,0,0,1-74.91-39.68c-28.76-23.49-52.79-51.75-76.19-80.33-12.76-15.56-19.65-34.48-21.26-54.75-2.54-31.8-3.35-63.74.38-95.47,3.44-29.41,17.93-53.85,42.14-70.35,29.73-20.25,62.08-36.17,96-48.5,9.94-6.82,21.87-8.47,32.74-13.63C508.73,481.63,507.74,487,507.31,492.32Z"/><path class="cls-2" d="M1473.87,107.5c33.06,5,64.94-4.21,97.41-5.32,4.65-.16,11.65-5.75,13.65,5.33.69,3.84,11.25,3.92,12.28-.34,2.33-9.62,8.79-6.54,14-6.62,19.43-.3,38.87-.06,58.3-.2,3.72,0,9.38,1.68,8.74-5.2-.71-7.68,3.28-10.79,9.65-9,7.45,2.14,19.47-7.76,22.08,7.68,1.07,6.28,5.61,4.86,9.59,4.87h41.64c4.58,0,9.36-.79,10.26,6.07.86,6.59,6.45,3.84,10,3.88,22.2.23,44.41,0,66.62.16,15.34.12,18.82,4.69,18.75,23.55-.06,17.85-4.53,23.39-19.32,23.49-17.58.12-35.19-.58-52.73.28-8.94.44-20.48-5.8-26.2,7.62-.49,1.16-5.19.71-7.94.73-13,.06-25.91-.06-38.86.06-5.58.05-10.22-1.52-12.63,7.78-2.57,9.88-14.24,3.14-21.73,4.58-4.55.88-9.83.28-9-6.78.91-7.77-3.9-7.66-9.41-7.61-18,.17-36.1.35-54.13-.09-6.51-.16-15.06,3.94-18.16-6.91-.8-2.8-6-2.1-7.42-1.06-13.52,10.34-28,3-41.89,2.47-14.78-.57-29.5-2.48-44.27-3.36-8-.48-15.62-1.57-24.11,1.77-5.25,2.07-16.49,6.55-20.65-6.21-1.13-3.49-7.66-1.5-11.7-1.5-40.72-.08-81.43,0-122.14,0-9.7,0-20.92-17.86-17.11-26.86,2.92-6.86,8.86-5.42,14.27-5.42,41.64,0,83.29-.43,124.92.27,0,0,11.45,1.92,13.12-3.11C1459.76,112.51,1463.24,105.88,1473.87,107.5Zm167.13-.76V106c-8.75,0-17.52.47-26.22-.13-8-.56-11.85,1.17-11.14,10.31a236.3,236.3,0,0,1,0,31.71c-.43,7.3,2,9.49,9.22,9.29,17.47-.48,35-.92,52.44.11,11.31.67,14.46-3.33,13.23-13.83-1.44-12.17,5.24-28.58-2.85-35.49C1668.8,102.07,1652.91,106.74,1641,106.74Zm-252.25,35.52c20.8,0,41.62-.45,62.41.22,8.66.28,9-4.13,8.42-10.19-.48-4.91,2.53-11.59-7.11-11.55-44.38.19-88.77,0-133.16.05-2.64,0-5.8-.48-6.88,3-1.32,4.27,10.36,18.37,15.28,18.38C1348.06,142.27,1368.4,142.24,1388.75,142.26Zm350.32-38.06c-29.14,0-29.14,0-29.19,28.16-.05,26.54-.05,26.54,26.75,26.52,28.8,0,28.8,0,29-28.11.24-26.57.24-26.57-26.56-26.57Zm71.69,46.15h13.83c27.07,0,26.71,0,25.84-27.34-.24-7.79-3.21-9-9.87-8.87-15.2.38-30.41.15-45.62.16-24.06,0-23.63,0-23.94,23.65-.12,9.31,2,13.53,12.13,12.59C1792.27,149.7,1801.54,150.37,1810.76,150.35Zm-233.24-7.69c3.21-11.82,1.75-18.12-10-16.32-7.67,1.17-11.36-1.65-10.43-9.71.56-4.79-.35-8-6.58-7.18-10,1.32-20.15,2.09-30.24,3-5.12.46-7.14,3-6.69,8.2s-1.08,8.72-7.63,8.61c-5.74-.11-7.29-3.09-7.19-7.75.09-4.33-.52-7.31-6-6.27-4.42.85-9.61.24-9.28,7.28a163.73,163.73,0,0,1,0,16.58c-.28,5.13,1.67,7.48,6.87,8,4.69.51,8.32.67,8-5.62-.24-5.61,4-5.07,7.64-5.35,4.12-.31,6.29,1.82,5.88,5.66-.73,6.88,3.71,7.3,8.57,7.65,9.65.69,19.31,1.27,28.93,2.27,4.4.46,6.89-.06,7.09-5.34.15-4.1-2.4-10.27,4.39-11.3C1566.92,134.19,1573.87,132.9,1577.52,142.66ZM1693,131.26v33.13c0,4.07.6,7.25,5.87,7.13s5.51-3.56,5.5-7.46V99.2c0-3.68.55-7.54-5-7.75-6-.23-6.43,3.51-6.38,8.06C1693.09,110.09,1693,120.68,1693,131.26Zm-214.9,1.07v-11c.06-4.74.41-9.08-6.8-8.85-6.28.19-6.18,4-6.2,8.19,0,7.31.13,14.61,0,21.91-.11,4.55.17,7.9,6.23,8.08,5.79.16,7.07-2.51,6.83-7.41-.11-3.61,0-7.25,0-10.92Zm120,.26c0-3.23-.11-6.47,0-9.7.2-4.57-.11-7.89-6.37-7.91s-8.09,2.39-7.76,8.21a165.21,165.21,0,0,1,0,19.4c-.4,6.44,3.66,6,8,6.34,5.17.38,6.36-2.23,6.15-6.63-.06-3.23.07-6.47.06-9.71Zm86.49,37,2-.23V93.31h-2Zm-113.06-15.86c2.61-.34,8.37.89,6.63-3.1-1.91-4.35-7.36-8-12.08-10-4.56-2-4.07,2.78-4.44,5.82-.91,8.15,5.11,6.77,10,7.29Zm284.64-7.44,3.7-.49c2.26-9.39,2.76-18.71-3.7-27.79Z"/><path class="cls-2" d="M1227.53,544.28c-7.12,1.83-14.21,3.78-21.34,5.48-2.41.56-5.54,3.79-7.25.57-2.33-4.38,3.36-4.35,5.07-6.62,6-1.45,12-3.07,18-4.3C1225.65,538.66,1228.22,539.8,1227.53,544.28Z"/><path class="cls-2" d="M1305.42,643.18c-2.48,4.83-4.7,9.79-7,14.7-3.68,1-4.11,7.32-9.13,5.72-.65-.2-.45-3-.65-4.58,5.64-5,8.46-11.65,11.44-18.29.82-1.85,1.55-4.93,4.6-3.38C1307.11,638.62,1306.59,640.89,1305.42,643.18Z"/><path class="cls-2" d="M1268.53,549.53c-9-4.14-21.21.16-27.88-10,8.91-1.7,17,1.64,25.15,4.28C1266.74,545.83,1269.44,549.94,1268.53,549.53Z"/><path class="cls-2" d="M1307.39,625.47c-4.48-4-1.22-9.6-3.08-13.8v-18.9c7.88,4.66,4.81,12.14,6.56,18C1309,615.25,1312.49,620.88,1307.39,625.47Z"/><path class="cls-2" d="M632.74,664.46c-6.24-.12-6.44-7.15-10.79-9.43-1-6-7.45-10.58-4-19.71C624.26,645.49,630,654.12,632.74,664.46Z"/><path class="cls-2" d="M724.66,547.94c-.33,1.24-.65,2.48-1,3.71l-29.79-8.57C705.72,538.48,715.44,542.24,724.66,547.94Z"/><path class="cls-2" d="M615.69,624c-7.83-10.42-4.4-20.65.62-30.74C619.49,603.73,613.27,613.6,615.69,624Z"/><path class="cls-2" d="M641.78,558.33l-18.25,23.36c-.44-12.59,7.12-19.41,15.48-25.66C639.93,556.81,640.85,557.57,641.78,558.33Z"/><path class="cls-2" d="M682,542.39q-14.68,4.13-29.37,8.29C660.15,540.74,669.91,537.86,682,542.39Z"/><path class="cls-2" d="M752.34,583.61l-17.55-23.9C745.67,564.11,752.52,571.38,752.34,583.61Z"/><path class="cls-2" d="M1187.91,559.33c-5,7.35-9.94,14.7-15,22-1,1.48-2.42,3.12-4.46,1.86-2.51-1.51-2-3.67-.68-5.85C1172.54,569.55,1177.18,561.67,1187.91,559.33Z"/><path class="cls-2" d="M1299.24,582l-19-24.11Q1297.91,563.1,1299.24,582Z"/><path class="cls-2" d="M959,394.05V331.72h1.73v62.55Z"/><path class="cls-2" d="M935.64,342V277.71H937v63.72Z"/></g><g id="Capa_3" data-name="Capa 3"><g class="cls-3"><path d="M800.83,622.87v111H781V663.16l-19.5,14.91L745.32,690.6l-16.18-12.53-19.51-14.91V733.9H689.8v-111l19.83,15.23,35.69,27.44L781,638.1Z"/><path d="M854.75,659.83v75.5H834.93V657.77a15.83,15.83,0,0,0-13.48-13.49H817V624.61h4.29v.16a35.55,35.55,0,0,1,13.48,3.65,35.17,35.17,0,0,1,16,16.18,42.55,42.55,0,0,1,2.7,7.45,33.53,33.53,0,0,1,1,8.09Z"/><path d="M940.4,622.87a35.81,35.81,0,0,1,35.85,35.85v39.17a35.81,35.81,0,0,1-35.85,35.85H906.14a35.81,35.81,0,0,1-35.84-35.85V658.72a35.81,35.81,0,0,1,35.84-35.85ZM906.14,642.7A16.25,16.25,0,0,0,890,658.88v39.17a16.25,16.25,0,0,0,16.18,16.18H940.4a16.24,16.24,0,0,0,16.18-16.18V658.88A16.24,16.24,0,0,0,940.4,642.7Z"/><path d="M1103.14,656.5a32.67,32.67,0,0,1-9.2,22.84,32.75,32.75,0,0,1-23.48,55.51H992.27V715h78.19a13.07,13.07,0,0,0,13-13,12.92,12.92,0,0,0-12.21-13h-59V669.19h59a13,13,0,0,0-.64-26H992.43V623.35h78.19A32.63,32.63,0,0,1,1103.3,656Z"/><path d="M1230,622.87v111H1210.2V688.22h-58.53a31.42,31.42,0,0,1-14.91-3.65,32.4,32.4,0,0,1-17.77-29V622.87h19.83v32.67a13.07,13.07,0,0,0,13,13h58.53V622.87Z"/></g></g></g></g></g></svg>