<svg xmlns="http://www.w3.org/2000/svg" viewBox="0 0 1920 1080"><defs><style>.cls-1{fill:#f2f2f2;}.cls-2{fill:#030303;}</style></defs><g id="Capa_2" data-name="Capa 2"><g id="Capa_1-2" data-name="Capa 1"><rect class="cls-1" width="1" height="1"/><rect class="cls-1" x="100.69" y="151.2" width="1" height="1"/><rect class="cls-1" y="1079" width="1" height="1"/><rect class="cls-1" x="1919" width="1" height="1"/><polygon class="cls-1" points="490.56 356.17 508.47 338.92 530.88 321.76 559.93 313.85 620.06 300.27 639.4 294.15 671.14 290.27 693 287.14 724.86 287.14 774.62 287.14 839.08 286 890.54 287.29 1006.65 287.24 1104.85 287.44 1212.86 287.24 1267.14 290.75 1336.88 308.95 1379.86 321.42 1409.45 337.6 1425.29 357.76 1438.48 381.14 1444.34 411.11 1444.87 454.08 1444.56 508.75 1444.56 560.92 1444.34 613.92 1441.51 634.1 1436.78 653.32 1419.46 680.12 1398.9 697.05 1347.63 745.87 1315.02 778.16 1301.83 788.09 1278.45 796.76 1249.99 801.2 1202.87 801.2 1156.69 801.2 1070.36 794.56 1007.06 791.04 945.96 788.62 890.92 793.49 845.87 793.49 786.49 799.24 731.08 801.27 681.13 801.48 638.34 795 615.35 788.62 576.55 753.22 500.74 678.69 481.89 652.56 475.44 626.36 473.65 532.12 472.61 410.54 480.57 376.24 490.56 356.17"/><path class="cls-2" d="M944.78,820.42c-53,2.1-105.3,10.12-157.78,17-54.35,7.15-109.14,3.88-163.68,1.82-24.66-.93-41.85-18.66-56.88-36.38-10.89-12.84-18.34-13.71-29.14.06s-24.19,25.16-35.64,38.32c-6.5,7.46-11,7.4-17.51.27S470.31,828.48,463.33,822c-19.46-20.45-39.37-40.46-60.8-58.87-9.89-9.09-10.79-16.49.81-26.3,14.85-12.57,27.61-27.6,41.31-41.53,4.45-4.52,9.56-8.85,1.82-14.82C430.21,646.2,437,609.58,436,573.81c-.75-27-4.64-31.55-31.29-31.57-28.79,0-57.59.18-86.38-.08-20.08-.18-49-28.25-49-47.91,0,0-.62-104,4.61-111.24,17.92-28.94,43.76-23,67.91-23.18,23.13-.13,46.27-.38,69.39.26,9.15.25,12.69-2.51,14.1-11.79,4-26.06,20-43.41,44.81-49.67C600,266,731,240.49,865,233.26c12.55-.68,23.68.79,31,12.52,3.94,6.33,10.39,5.84,16.61,5.85,30.39,0,60.79,0,91.18.13,8.75,0,16.39-1,21.81-9.43,5.06-7.9,13.56-8.67,22.48-8.66l91.59,6c24.44,3.49,48.94,6.65,73.32,10.53,77.94,12.41,155.35,27.52,231.78,47.32,26.39,6.84,44,22.94,48.26,50.37,1.67,10.58,6.06,12.33,15.48,12.13,27.09-.59,54.23.61,81.29-.47,20-.79,35.31,4,51.82,17.74,13.75,11.45,7.64,111.88,7.64,111.88,0,25.82-26.74,53-52.45,53-29.35.1-58.71-.11-88.06,0-19.81.11-25.87,6.44-26,26.54-.07,15.24-.52,30.5.13,45.71,1,22.84-1.58,44.93-10.83,66-23.63,33-56.56,57.18-82.82,87.69l-55.82,54-30.14,19c-18-1.72-36.07-.74-54.09.43-41.83-3.33-84,2.5-125.69-4.45A610.45,610.45,0,0,0,1039,826.42c-23.72-6.12-48.21-1.62-72.14-5.12ZM469.94,680.49c-7.27,6.16.84,8.76,3.37,11.33,24.5,24.85,49.71,49,74,74.11,7.74,8,11,5.2,18.42-.71,6.26-5,3.49-12.66,10.69-17.48,23.61-15.81,45.61-33.91,52.31-64,6.49-26.92-4.69-53.21-28.78-67.61-23.77-14.22-53.44-12.3-73.48,6.63C506.88,641.27,488.71,661.2,469.94,680.49ZM927.48,807.64c35.93-1.91,71.7,1.64,107.53,3.13l85,11c42.72,9.27,85.93,5.14,129,4.57,27.3,1.49,55.14,4.87,77.43-16.47,13.67-13.09,26.74-26.82,40.08-40.26,29-28,58.89-55.26,85.39-85.82,12.45-14.3,17.16-31.38,17.37-49.85.26-22.54,0-45.08.12-67.62.18-25.21,12-37.2,37.2-37.4,29.3-.22,58.61,0,87.92-.1,20-.06,41.11-20.49,41.21-40q.22-42.27,0-84.53c-.09-17.52-13-30.79-30.24-31.15-14.09-.28-28.19.27-42.26-.22-7.61-.26-12,2.38-16.28,8.94-12.54,19-27.4,23.36-49.69,16.54-16.64-5.09-33.35-10-50-14.92l-4-.18c.33,1.25.65,2.5,1,3.76.52,10,7,20.16-.05,31.06-4.64-4.87-4-10.45-4.06-15.05-.14-18-8.67-25.46-26.33-29.58-54.33-12.67-108.77-24.5-163.83-33.46-91.39-14.88-183.25-26.73-275.9-27-155.24-.49-307.88,21.86-458.45,58.77-12.19,3-28.11.34-34.2,16.77-.29.76-3.85,1.25-4,1-6.2-13.65-14.9-3.08-21.73-1.58-14.25,3.15-28,8.32-42.14,12.24-14.46,4-29.3.74-36.27-11.35-9.22-16-21.62-16.69-36.55-15.86-9,.5-18.06-.11-27.08.1-17.47.42-30.52,13.37-30.64,30.82q-.29,43.15.09,86.32c.14,17.06,22,38.46,39.29,38.54,30.47.15,60.95-.18,91.42.13,22.91.24,35.34,12.91,35.54,35.79.22,23.7,0,47.4.16,71.09.12,14.63,3.73,28.23,12,40.77,14.08-10,23.05-19.65,12.6-36.56-2.62-4.24-4.77-11.56,2.93-19.49,1.22,7.16,1.73,12.42,3.09,17.45,1.24,4.57,1,11.37,6.15,12.32,2.76.52,6.86-4.7,9.95-7.74,8-7.9,15.32-16.65,23.85-23.95,23.13-19.81,49.26-23.92,77.23-11.81,28.5,12.35,41.87,38.41,40.5,76.77-5.58,24.34-22.15,41.48-39.94,56.8-13.65,11.76-12.6,19.63,1.64,28.27-.14,3.07,1,8.08-4.58,5.53-3.93-1.78-7.17-5.38-10.27-8.61-6.49-6.77-10.14-.8-13.16,3.32s-13.22,6.75-6,14.4c21.73,22.91,42.79,43.19,79.22,44.8C740,832.25,833.3,815.27,927.48,807.64ZM491.57,369.79c5.17-1.17,9-1.92,12.76-2.88,148.25-37.93,344.85-63.83,472-61,117,2.63,232.72,17.83,347.46,40.42,59.71,11.77,118.73,26.43,176.56,45.56,14.05,4.64,26.68,3.25,37-8.33,2.17-2.44,5.05-5,3.28-8.73-1.55-3.27-5-1.69-7.56-1.74-9.6-.16-19.26-.78-28.77.12-15.5,1.47-22.72-4.48-24.15-20.37-2-22.12-15.51-36.11-36.56-41.45-124.23-31.52-249.8-55.35-377.9-64.08-13.8-.94-28.26-4-37.24,12-2.76,4.89-9.68,5.38-15.43,5.5-10.15.22-20.3.3-30.45.31-24.76,0-25.19.55-18.49,24.77-12.51.55-24.85,2.32-41.15-2,10.3-5.68,17.58-4,24.29-3.82,7.6.18,11.08-1.54,10.89-10.14-.17-8.22-4.08-8.9-10.56-8.77-13,.26-25.95-.06-38.93-.12-6.89,0-15.06,0-18.63-5.94-8.87-14.81-22.24-12.77-35.73-11.88-126.4,8.4-250.23,32.13-373,62.26-25.34,6.21-41.09,20.29-43.39,46.91-1.12,13-8,17.26-20.22,16.79-13.28-.51-26.6-.12-41.7-.12,7.32,17.47,19.84,25.66,34.05,20.19,28.09-10.8,63.77-5.92,81.25-38.29C497.09,360.11,491.34,363.82,491.57,369.79ZM485.65,814.2c2.26,1.42,4.09,2.55,5.9,3.7,5.91,3.76,10.33,16.76,19.09,3.6,5.5-8.25,24.7-13.62,6.06-27.75-9.74-7.39,10.46-7.3,4.4-14.51,5.54-4.32,7.3,1.8,10.57,3.81,3.72,2.27,6.36,10.48,11.88,3.87,4.1-4.92-2.13-7.76-5-10.68-22.35-22.3-44.53-44.78-67.45-66.49-5.2-4.93-11.65-17.81-16.94-12.25-7.77,8.15,5.83,14.3,11.16,18,12.13,8.43.86,17.22-1.29,19.7-5.22,6-8.88-3-12.36-6.35-15.77-15-15.16-14.77-31.28.72-7.27,7-6.47,11,.18,17.41,5.61,5.39,13.64,9.55,15.42,20.9-10.88-3.69-15-12.37-21.92-17.41-2.73-2-4.41-8.15-9.21-4.05-5.94,5.1.62,7.84,3.25,10.45,24,23.83,48.06,47.6,72.49,71,4,3.84,8.84,13.68,13.38,9.22,6.88-6.76-5.45-9.56-7.82-15C485.26,820.12,483.15,818.72,485.65,814.2Zm-23.14-87.55-1.21-2.17c-.37.37-1.12.83-1.06,1.11a11.1,11.1,0,0,0,1.06,2.27Z"/><path class="cls-2" d="M1377.3,680.5c-5.85,9.7-11.94,19-24.43,21.12-8.31,1.39-4.74,8.83-7.51,16.09-.15-12-4.58-17.77-14.71-17.71-12.14-5.16-13-19.54-22.18-27.44-3.06-2.62,4.1-6.17,5.89-10,9-19.21,22.25-27.31,36.35-23.69C1371.44,644.21,1378.47,655.2,1377.3,680.5Zm-29.43,5.37c-.87,3-2.45,7.56,1.21,8.27,7.64,1.48,13.07-3.08,16.86-9.54,7.1-7.44,2.08-16.43,1.79-24.2-.29-8-8.58-14.72-16.69-13.51s-3.37,10.15-3.79,15.52C1346.65,670.17,1347.59,678,1347.87,685.87Zm-28-18.47c.59,11.45,3.44,17.86,9.58,22.62,3.57,2.77,7.7,6.11,12.09,4.1,5.08-2.32,1.54-8,2.55-12,1.5-6.05-8-11.12-.69-18.73,2.65-2.75,4.35-13.36-1.83-16.32-6.8-3.26-12.2,3.2-16.44,8.57C1321.52,660.13,1319.63,665.3,1319.84,667.4Z"/><path class="cls-2" d="M1123.57,794.69c16.62,4.31,33.87,2.81,50.79,5.49-17.73,8.9-36.23,0-54.15,2.62l-24.82-4.45C1105,790,1114.49,797.52,1123.57,794.69Z"/><path class="cls-2" d="M1248.92,805.27c-1.93-1.68-5.77-4-5.46-4.92,1.29-3.85,5.86-.92,8.46-2.9l34.24-3.44C1272.83,805.71,1260.11,802.78,1248.92,805.27Z"/><path class="cls-2" d="M1444.17,542c4.56,12.66,4.34,25.3.22,37.94C1440.05,567.23,1440.38,554.59,1444.17,542Z"/><path class="cls-2" d="M1043.37,796.16l-.09-6.83c12.42.18,24.92-.21,39.65,5.18C1068,801.32,1055.49,794.68,1043.37,796.16Z"/><path class="cls-2" d="M1444.23,487.94c3.54,12.74,4.18,25.32.43,37.8C1439.31,513.1,1441.84,500.44,1444.23,487.94Z"/><path class="cls-2" d="M1446,596.26c1.87,12.77,3.63,25.54-4.52,37.84v-38Z"/><path class="cls-2" d="M1423.72,679.89l-8.38.45c5.79-9.27,11.55-18.55,17.39-27.78,1.17-1.85,2.65-3.91,5.21-3,3.86,1.43,2.65,4.55,1.25,6.78C1434.21,664.32,1428.9,672.06,1423.72,679.89Z"/><path class="cls-2" d="M1442.25,470.34v-35.9l5-.34C1447.39,446.18,1448.86,458.19,1442.25,470.34Z"/><path class="cls-2" d="M1294.41,792.83c9.41-13.41,22.23-17.15,32.41-29.34C1322.73,778.38,1313,787,1294.41,792.83Z"/><path class="cls-2" d="M1338,751.82l25.14-23.73c-3.76,13.72-13.24,22.19-24.11,29.44C1338.7,755.63,1338.35,753.72,1338,751.82Z"/><path class="cls-2" d="M476,406.41v37.53l-4.26,0c-3.14-12.47-2-24.93-.46-37.4Z"/><path class="cls-2" d="M475.93,460.68v38.19l-4.42.15c-3.08-12.54-1.74-25.26-.31-38Z"/><path class="cls-2" d="M474.68,552.73c-6.43-12.74-4.54-25.28,0-38Z"/><path class="cls-2" d="M475.44,568.85v37.21C468.72,593.61,469.07,581.13,475.44,568.85Z"/><path class="cls-2" d="M1347.48,311.24c-18.42,1.7-30.25-3.68-42-9.6C1319.09,299.47,1331.38,302.8,1347.48,311.24Z"/><path class="cls-2" d="M550.58,315.22c9.41-7.17,21.52-6.66,32.18-10.3,1.88-.64,4.57-.68,5.29,2.15s-1.34,3.95-3.58,4.51c-10.94,2.72-21.9,5.36-32.86,8Z"/><path class="cls-2" d="M639.41,294.15a54.76,54.76,0,0,1-36.51,10.21C613.55,295.23,626.53,294.94,639.41,294.15Z"/><path class="cls-2" d="M504.89,342.37c6.91-11.37,14.32-16.93,28.64-21.49C531.54,329.4,520.82,337.45,504.89,342.37Z"/><path class="cls-2" d="M1397.45,328.54c-17.82-1.34-28.72-8.35-43.12-13.37C1368.23,312.37,1381.08,316.27,1397.45,328.54Z"/><path class="cls-2" d="M1252.44,290a58.85,58.85,0,0,1,36.89,6.6C1276.33,298.78,1264.13,296,1252.44,290Z"/><path class="cls-2" d="M693,287.14c-11.66,5.17-23.52,8.37-36,5.05C668.38,285.61,680.54,284.92,693,287.14Z"/><path class="cls-2" d="M1429.18,365.72l-23.46-27,3.34-3.07C1419.85,342.08,1427.71,351.24,1429.18,365.72Z"/><path class="cls-2" d="M1198.8,287.48c12.43-4.42,24.7-4.86,36.56,1C1223.06,291.66,1210.89,291.64,1198.8,287.48Z"/><path class="cls-2" d="M1180.64,287.29c-12.26,3.87-24.46,4.38-36.58-.39C1156.31,283.66,1168.52,283.07,1180.64,287.29Z"/><path class="cls-2" d="M1126.83,287.29c-12.39,3.88-24.73,4.85-37-.07C1102.13,282.63,1114.48,283.3,1126.83,287.29Z"/><path class="cls-2" d="M1036.17,285.13h36.77l0,4.21C1060.79,291.41,1048.55,291.69,1036.17,285.13Z"/><path class="cls-2" d="M1018,287.4c-12.21,4.79-24.38,2.58-36.62.59C993.44,283,1005.67,283.07,1018,287.4Z"/><path class="cls-2" d="M873.58,287.87c12.24-5.14,24.48-4.21,36.72-1.07C898.17,292.56,885.86,290.1,873.58,287.87Z"/><path class="cls-2" d="M855.37,285.61c-12.27,5.72-24.49,6.39-36.68,0Z"/><path class="cls-2" d="M764.7,287.44c12.32-4.3,24.66-4.69,37-.33C789.52,292.42,777.13,290.9,764.7,287.44Z"/><path class="cls-2" d="M710.94,287.35c12.14-4.45,24.42-3.85,36.81-.46C735.77,292.17,723.41,291,710.94,287.35Z"/><path class="cls-2" d="M958.66,695.69c20.72,8.41,34.49,27.3,48.64,46.27-4.75-1-10.6-.31-13.21,9.46-4.28,16.07-17,24.6-34.11,25-16.32.34-29.05-6.79-34.34-22.11-3.61-10.44-7.34-17.13-21.09-14.08,12.33-.29,18.35-4.44,21.23-15.73,2.76-10.79,11.52-18.29,22.74-20.36C956.19,702.68,958.58,698.56,958.66,695.69Zm-18.3,41.41c13.37,2.85,20-.24,17.35-12.79-1-4.87,4.71-13.18-5.56-13.93-8.45-.61-22.58,13.88-22,22C930.77,742.1,938.44,736.26,940.36,737.1Zm35.94.21c2.79-1.56,12.73,5.43,11.72-5.31-1.09-11.58-9.56-19.3-20.88-21.32-10.47-1.88-5.38,7.29-6,11.58C959.72,732.07,960.56,740.91,976.3,737.31Zm.74,4.19c-11.83-3-18.46.18-15.9,13,1,4.93-4.71,14.64,5.7,13.69,11.56-1,19.32-9.77,21.27-21.08C989.87,736.93,980.65,742.72,977,741.5Zm-35.5.51c-2.22,1.56-12.43-6.13-10.95,5.13s9.85,19.42,21,21,5-8.27,6-13C960.23,743.59,955.8,738.21,941.54,742Z"/><path class="cls-2" d="M931.22,788.94a2.35,2.35,0,0,0,1.65-2.59c12.61,1,25.58-3,40.66,2.7C957.54,799.3,944.38,792.84,931.22,788.94Z"/><path class="cls-2" d="M989,789h36.09C1013.31,796.36,1001.25,795.57,989,789Z"/><path class="cls-2" d="M1227.93,800.42c-12.6,5.38-25.33,4-38.07,1.07C1202.39,795.88,1215.13,799.23,1227.93,800.42Z"/><path class="cls-2" d="M663,799.24h38.31C688.71,805.46,676,805,663,799.24Z"/><path class="cls-2" d="M754.49,800.69c-12.79,3.74-25.33,5.2-37.68.19C729.46,796.71,742.1,798.77,754.49,800.69Z"/><path class="cls-2" d="M863.55,791.79c-11.58,7.78-24.32,7-37.3,4.76C837.85,789.92,850.66,790.65,863.55,791.79Z"/><path class="cls-2" d="M613.54,783.35l33.08,12.87c-14.63,5.64-24.34-2.42-35-7.87Q612.59,785.84,613.54,783.35Z"/><path class="cls-2" d="M916.61,790.94c-12.08,5.06-24.3,4.81-36.67,2.39C891.62,785.44,904.34,789.55,916.61,790.94Z"/><path class="cls-2" d="M772.15,801.51c11.06-8.49,23.57-5.46,36-3.73C797,804.66,784.33,801.47,772.15,801.51Z"/><path class="cls-2" d="M483.59,748.44c-.17-3.06-1.68-7.45-.23-8.9,3.3-3.31,5.71.91,7.92,3.05,5.26,5.09,10.39,10.31,15.51,15.54,1.9,1.94,4.66,4.15,2.38,7-2.78,3.51-5.94-2-9.08-.31l.37.49c.78-3.33,0-5.05-3.82-3.79l.42.42c.95-3.49,0-5.08-3.8-3.8l.41.41c1.31-3.84-.39-4.68-3.8-3.81l.42.42c1.12-3.66-.43-4.65-3.81-3.81l.43.43c.57-3.12.27-5.37-3.83-3.8Z"/><path class="cls-2" d="M500.09,764.85c.7,2.5,2.73,5.74,1.83,7.34-2.14,3.83-4.62.52-6.43-1.17-5.74-5.38-11.85-10.51-16.82-16.54-6.54-7.94,1.12-5.74,4.92-6l-.51-.43c-.16,2.72,1.14,4,3.83,3.8l-.43-.43c-.25,2.79.84,4.24,3.81,3.81l-.42-.42q-.4,4.2,3.8,3.81l-.41-.41c-.3,2.83,1.15,3.92,3.8,3.8l-.42-.42c-.24,2.79.74,4.34,3.82,3.79Z"/><path class="cls-2" d="M450.06,775.76c8.16,7.68,16.62,15.52,21.83,26.68Z"/><path class="cls-2" d="M543.15,686.68c-11.58-13.36-5.21-27.47,2.79-37.5s21.84-13.25,35.48-9.34c13.43,3.85,20.19,13.61,22.4,26.81.64,3.83.14,7.85.15,11.79-11.89,24.07-26.21,28.74-50.56,19.62C546.49,695.46,548.19,688.79,543.15,686.68Zm14.94-3.21c-.94,5.74-2,11.19,6.94,11.22,7.75,0,17.1,5.17,19.66-7.7,12.79-.26,12.86-10.25,12.53-18.51-.26-6.33-1.29-15.5-12.55-11.57,4.25-16-9.09-10.93-15.15-11.13-8.31-.28-17.14,2.49-11.49,14.73-8.18-6.89-10.79-.84-10.79,5.66C547.25,673.54,542.74,685.19,558.09,683.47Z"/><path class="cls-2" d="M498.9,683.34c-1-4-7.38-5.74-4-12.55,11.65,5.45,17.9,17,27.68,24.11-1.33,4.25-2.8,7.58-7.69,2.87C509.72,692.79,504.24,688.13,498.9,683.34Z"/><path class="cls-2" d="M560.18,736.2c-12.51-4.47-21.11-13.33-27.42-24.76C545.56,715.59,553.82,724.83,560.18,736.2Z"/><path class="cls-2" d="M1403.67,691.28c-4.31,12.65-13.91,20.31-24.93,26.63C1383.84,706,1392.3,697.27,1403.67,691.28Z"/><path class="cls-2" d="M564.34,677.25c5.13-4.61-1.12-9.37.19-14,3,2.72,5.73,6.09,10.46,3.39,0,3.56,0,7.13,0,10.7C571.44,674.71,567.89,676.94,564.34,677.25Z"/><path class="cls-2" d="M585.13,687.49l-3.84-3.83Q586.42,682.36,585.13,687.49Z"/><path class="cls-2" d="M581.31,660.29l3.86-3.83C585.3,659.17,584.48,660.92,581.31,660.29Z"/><path class="cls-2" d="M577.91,663.68l3.85-3.84C582.21,662.85,581.08,664.29,577.91,663.68Z"/><path class="cls-2" d="M574.54,667.05l3.84-3.82C579.09,666.5,577.62,667.58,574.54,667.05Z"/><path class="cls-2" d="M578.36,680.71l-3.83-3.82C577.86,676.1,579,677.55,578.36,680.71Z"/><path class="cls-2" d="M581.74,684.1l-3.83-3.84C581,679.75,582.76,680.54,581.74,684.1Z"/><path class="cls-2" d="M564.89,663.52c-4.43,2.94-5.58-.9-7.32-3.53C561.29,658.5,562.85,661.51,564.89,663.52Z"/><path class="cls-2" d="M561,680.62a4.07,4.07,0,0,1,3.84-3.84Q565.72,681.52,561,680.62Z"/><path class="cls-2" d="M557.59,684l3.85-3.84C561.85,683.13,561.09,684.94,557.59,684Z"/></g><g id="Capa_3" data-name="Capa 3"><path d="M800.83,458.91v111H781V499.2L761.5,514.11l-16.18,12.53-16.18-12.53L709.63,499.2v70.74H689.8v-111l19.83,15.23,35.69,27.44L781,474.14Z"/><path d="M854.76,495.87v75.5H834.93V493.81a15.8,15.8,0,0,0-13.48-13.48H817V460.66h4.29v.16a35.35,35.35,0,0,1,29.5,19.82,42.36,42.36,0,0,1,2.7,7.46,33.47,33.47,0,0,1,1,8.09Z"/><path d="M940.4,458.91a35.81,35.81,0,0,1,35.85,35.85v39.18a35.82,35.82,0,0,1-35.85,35.85H906.14a35.82,35.82,0,0,1-35.84-35.85V494.76a35.81,35.81,0,0,1,35.84-35.85Zm-34.26,19.83A16.24,16.24,0,0,0,890,494.92V534.1a16.24,16.24,0,0,0,16.17,16.18H940.4a16.25,16.25,0,0,0,16.18-16.18V494.92a16.25,16.25,0,0,0-16.18-16.18Z"/><path d="M1103.14,458.91v111h-19.83V524.26h-58.53a31.45,31.45,0,0,1-14.91-3.65,32.39,32.39,0,0,1-17.76-29V458.91h19.83v32.68a13.05,13.05,0,0,0,13,13h58.53V458.91Z"/><path d="M1230,458.91v111H1210.2V524.26h-58.53a31.42,31.42,0,0,1-14.91-3.65,32.38,32.38,0,0,1-17.77-29V458.91h19.83v32.68a13.06,13.06,0,0,0,13,13h58.53V458.91Z"/></g></g></svg>