<svg xmlns="http://www.w3.org/2000/svg" viewBox="0 0 1920 1080"><defs><style>.cls-1{fill:#f2f2f2;}.cls-2{fill:#020202;}.cls-3{isolation:isolate;}</style></defs><g id="Capa_2" data-name="Capa 2"><g id="Capa_1-2" data-name="Capa 1"><g id="Capa_2-2" data-name="Capa 2"><g id="Capa_1-2-2" data-name="Capa 1-2"><polygon class="cls-1" points="285.91 439.2 284 471.87 284 544.81 284.01 608.67 293.21 629.13 309.81 647.75 364.54 695.6 401.05 732.48 441.65 769.42 495.1 816.2 550.52 818.49 601.65 812.48 676.94 786.78 735.46 774.22 781.22 765.06 840.93 754.97 924.6 747.68 1007.57 749.61 1066.22 753.11 1133.15 762.89 1185.28 773.75 1247.39 790.18 1306.94 806.34 1321.11 813.26 1357.52 818.49 1420.3 818.49 1463.35 791.13 1504.63 745.51 1559.49 695.15 1612.69 648.5 1631.88 626.79 1636.97 589.89 1636.97 489.82 1636.8 469.32 1634.97 439.2 1623 411.5 1606.73 393.58 1578.49 374.03 1450.32 321.89 1313.46 282.79 1176.6 256.72 1066.76 244.85 948.49 241.51 840.93 244.85 789.91 250.2 700.84 263.24 592.22 287.13 461.88 326.24 359.77 367.51 305.46 393.58 296.77 404.44 293.76 410.38 285.91 439.2"/><path class="cls-2" d="M172.9,512.05c18.66-12,38.1-7,56.86-7.5,25.57-.65,25.58-.18,23.55-26.74.2-33,2.66-65.5,23.16-93.51,12.38-11.33,24.41-22.95,40.07-30.1,137.88-62.94,279.16-115,430.14-137,16.06-2.33,32.85-2.5,49.9-9.44l70.55-7.08c14.23,0,29.25-3,37.08,14.36,2,4.46,7.93,2.78,12.14,2.79q44.1.21,88.2,0c4.24,0,10,1.67,12.1-2.89,8.16-17.94,23-13.18,37.19-12.18,194.7,13.75,377.88,69.32,553.14,153,38.22,18.26,57.79,50.38,59.39,92.89a406.58,406.58,0,0,1,0,41.31c-.76,11.85,4,14.33,15.09,14.72,22.07.79,45.08-5.93,66.14,6.93l7.3,5.65c0,41.9,1,83.81,1.14,125.72.2,49-15,64.2-63.22,64.19-25,0-50.1.4-75.13-.18-9.91-.23-14.59,3.29-12.69,12.87,8.32,41.77-12.2,67.6-45.1,89.56-25.89,17.29-48.83,39-73.15,58.66-7.3,5.9-14.65,11.77-25,11.32-9.78-.43-18.29-3.23-17.4-14.75.93-12.06-5.09-13.54-14.55-12.6-68.23,6.79-132.77-8.9-196.17-32-21.89-8-44.56-11.08-68.08-10.42-33.79.94-67.63.59-101.43.07-16.94-.26-32.82,1.09-49.6-10.44-12.7-8.74-33.76-3.59-51.09-1.11h-4c-22.25.13-45.64-9.26-65.7,9.28-3.33,3.07-10.78,2.2-16.34,2.24-30,.22-60.11,1.29-90.07-.09-43-2-84.85,2.18-125,18.21C609.07,849.15,553.85,856.07,497,852.14c-11-.76-20.78-1.7-20.21,15.05.32,9.46-8.62,12.36-17.8,12.32l-18-6.73-96.3-76.28c-20.26-14-29.9-31.47-28.23-57.84,2.29-36.08,5.73-30.25-31.26-31.63-32.18-1.2-64.81,5.38-96.5-5.08-23-15.16-23.76-39-24.38-62.8,1.86-6.06,2.09-12.09-.26-18.09A379.51,379.51,0,0,0,164,560c2.34-6,2.12-12,.26-18C164.26,542,162,521.91,172.9,512.05ZM403.12,801.56c30.56,27.5,22.73,30.47,49.46-.49,9-4.34,8-8.56,1.32-15.13-6.09-6-17.48-9-15.7-23.59,8.13,7.2,14.46,13.13,21.17,18.61,2.93,2.4,5.59,8.06,10.67,3.09s2.21-8.86-2-12.53c-10.78-9.53-21.61-19-32.28-28.64-41.64-37.62-41.42-37.49-76.47,7.62-5.71,7.36-5,11.38,1.77,16.73C375.32,778.41,389.14,790.09,403.12,801.56ZM1530.7,721.85l.2.19c-1-7.9-3.71-15.61-12.64-8.1-22.91,19.27-44.88,39.66-67.25,59.57-4.49,4-2.92,7.68.49,11.16,4,4.12,6.21-.22,9.08-2,8.09-5.14,12.42-16.06,27.63-18-5.13,6.29-7.48,9.79-10.44,12.68-17.46,17.07-17.51,17-.58,34.5,2.18,2.24,4.58,4.29,6.53,6.72,5,6.22,9.59,6.06,15.62.78,20.17-17.71,40.77-34.92,61.06-52.49,3-2.63,8.82-6.7,5.56-10.14C1554.64,744.66,1547.79,728,1530.7,721.85ZM303.7,385.74c6.9-2.89,13.85-5.69,20.72-8.68,177.2-77.18,360.58-128.5,554.9-137.77,173.91-8.31,344.15,10.54,510.89,60.91,77.19,23.32,151.77,53.47,226,84.71,2,2.74,4.41,3.92,7.63,2l-4.18-5.22c-16.76-14.9-38.18-20.88-57.91-30-161.46-74.61-330.52-120.55-508.1-134.34-10.78-.84-20.54-3.47-26.75,9.56-3.2,6.7-11.67,5.79-18.64,5.76-28.57-.11-57.13.06-85.69-.08-12.79-.06-26.85,3.25-33.62-13.21-2-4.79-7.52-3.26-11.84-2.92-42.4,3.34-84.53,8.76-126.61,15-147.14,21.71-285.46,71.08-419.8,133-10.57,4.88-22.24,8.33-29.14,19l-3.38,2.63c2,2.29,3.74,1,5.51-.35ZM738.42,260.65c-25.63,5.37-51.53,9.38-77.2,14.58C553.42,297.09,449.52,331.16,349,375.66c-9.92,1.06-15.85,9-23.73,13.61-5.08,3-8.23,10.05-15.39,8.58-19.44-4-29.28,6.17-35,22.92-5.89,17.3-7.07,35-4.64,53-.36,6.77-.94,13.53-1.05,20.3-.33,20.72-4.2,24.82-24.95,25.12q-21.36.3-42.72,0c-15.56-.22-23.62,6-20.27,22.57a891,891,0,0,0,0,97.51c-3.49,42.62,6,53,48.12,53,25,0,50,.33,75-.21,12.52-.27,21.85,3.76,27.81,14.91,0,14.32,1.16,28.77-.42,42.92-1.51,13.5,5.15,21,14.75,27.59,3.3,2.28,6.83,7.64,11,3.51,4.91-4.82-1.23-7.55-4.13-10-10.15-8.64-8.13-16.6,0-25.39,10.51-11.34,20.4-23.26,30.56-34.92,7.73-8.07,16.13-10.2,25.63-3,20,18.29,39.48,37.17,60.15,54.65C481.26,772.1,485.17,781,474,793c-12.08,11.9-22.17,29.13-36.67,34.56-28.19,10.57-8,15.8,0,23.1A113.61,113.61,0,0,0,452,862.14c5.2,3.35,10.93,2.6,10.2-4.61-2.22-21.86,11.93-21.28,26.34-20,65.94,5.67,128.91-6.58,189.91-31l37.1-10.77L738,793.92c2.4,1.54,4.79,1.74,7.19,0l4,0a12.91,12.91,0,0,0,11,0q59,.6,118,1.14c3,0,7.44.13,8.9-1.67,13.38-16.56,32-12.58,48.6-11.12,34.32,3,70.89-11.68,102.82,12.33,2.42,1.82,7.32.42,11.06.42,36.25,0,72.5.46,108.74-.08,25.74-.37,51.12.4,75.61,9.6,66.69,25,135.09,39.63,206.85,33,12.61-1.16,18.86,4.12,18.29,17.09-.64,14.69,6.85,10.3,13.41,5.15,11.26-8.82,22-18.25,33-27.43,3.49-1.29,8.11-4.29,6.07-7.14-3.62-5.07-7-.54-9.5,2.88-9.51,5.71-17.13,3.54-24.54-4.5-10.46-11.34-21.72-21.94-32.63-32.85l-5.46-12.43c.92-6.91,6.34-10.53,10.94-14.64,19.58-17.49,39.78-34.32,58.67-52.52,10.53-10.15,19.1-9.48,28.74-.17,7,12.08,17.46,21.15,26.87,31.09,9.78,10.34,16.06,20,.55,30.59-2.54,1.73-5.48,4.29-3.12,7.58,2.79,3.88,6.43,2.48,9.74-.07,10.5-8.09,20.27-15.73,18.62-31.88-1.52-14.83,0-30,.27-45,6.64-8.75,15.61-11.3,26.32-11.17,30,.36,60,.52,90,0,20-.33,33.36-12.8,33.7-32.66.71-40.63.19-81.28.29-121.92,0-12.55-6.37-18.26-18.49-18.28-13.76,0-27.52.07-41.27,0-26.58-.08-29.36-3.42-30-30.61-.51-23.58,3.61-47.64-5.86-70.48-6.19-14.92-16.08-24.07-33.48-20.29-3.72.81-5.9-.88-8.15-2.9-22-19.73-49.91-27.83-76.48-38.42-167.92-67-341.31-108.22-522.85-111-11.24-.17-22.49-.1-33.73-.11l-37.73.18c-7.41-.76-15-.21-22.46.1-26.12,1.08-52.22,2.31-82.46,3.66ZM1515,816.18l3.83,4.39c14.34-6.81,25.11-18.77,37.46-28.41a4.11,4.11,0,0,0,.11-6.52c-2.3-1.91-4.83-1-6.72.56C1538,796.11,1526.5,806.17,1515,816.18ZM403.9,818.49c-7.87-14.24-21.44-22.12-32.7-32.43-2.12-1.95-4.28-2-6.58-.09-2.77,2.26-1.66,5,.16,6.28C377.58,801.25,387.61,814.33,403.9,818.49Zm9.45,5.55-2.41,1.34c.41.41.92,1.24,1.23,1.17a12.28,12.28,0,0,0,2.52-1.17Z"/><path class="cls-2" d="M288.35,542.52l.12,5.83v9.34c-2.65,3.34,1.36,8.95-5,12-6.36-8.7-.85-19.14-3.93-28,.59-4.68,1.17-9.36,1.91-15.26C290.43,530.09,286,537.75,288.35,542.52Z"/><path class="cls-2" d="M1636.67,528a63.11,63.11,0,0,1-.18,41.57A63.94,63.94,0,0,1,1636.67,528Z"/><path class="cls-2" d="M722.91,771.43l29.76-4.13c-12.67,10.37-26.6,14.7-42,13.7C710.2,772,719.62,775.65,722.91,771.43Z"/><path class="cls-2" d="M1629,629.63c4-13,2.51-27.08,8-39.74C1641.37,604.4,1642,618.23,1629,629.63Z"/><path class="cls-2" d="M1636.74,510.31c-5.35-13.79-3.47-27.35.06-41C1639.92,483,1641.49,496.67,1636.74,510.31Z"/><path class="cls-2" d="M1634.74,451.39q-5.88-20-11.74-39.89C1635.82,422.36,1641.14,435.37,1634.74,451.39Z"/><path class="cls-2" d="M695.47,786.1l-24.31,9.32c-5.87.9-11.52,4.62-21.56-.61C666.54,789.47,678.42,777.55,695.47,786.1Z"/><path class="cls-2" d="M482.32,804.63l3.81-.24c8.18,11.9,22.49,6.38,34.75,10.74C500.91,825.23,487.31,821,482.32,804.63Z"/><path class="cls-2" d="M1615.31,643c-5.47,13.68-16,22.38-29.08,28.42C1591,657.18,1603.38,650.38,1615.31,643Z"/><path class="cls-2" d="M603.93,807.34l25.32-8.44c5.85.46,11.58,3.08,3.61,7.53-8.88,5-19.66,6.52-29.64,9.47-2.58.76-5.47.16-5.56-2.76C597.54,809.53,601.19,808.62,603.93,807.34Z"/><path class="cls-2" d="M1557.79,702.74c-6.4.92-8.39,10.77-16.53,8.17,7.45-12.24,18.59-20.7,30.5-32C1574.21,693.61,1561.13,695.08,1557.79,702.74Z"/><path class="cls-2" d="M579.11,816c-13.14,5.84-26.78,4.16-40.55,1.28C551.54,810.64,565.3,813.68,579.11,816Z"/><path class="cls-2" d="M335.49,671c-13.41-5.11-23.63-13.81-29.58-27.1C319.81,648.23,328,659.23,335.49,671Z"/><path class="cls-2" d="M279.8,470.27c9.13-4.36,6.61,4,8.4,7.68q-.79,16.23-1.57,32.46C276.9,497.83,282.06,483.55,279.8,470.27Z"/><path class="cls-2" d="M381,710.8c-10.94,2.45-13.62-10.29-22.26-12.08-2.21-6.1-11.61-7.32-10.48-18.64C362.23,688.6,371.45,699.87,381,710.8Z"/><path class="cls-2" d="M831.13,757.16c13-6.23,26.64-7.84,40.84-6.08A53.59,53.59,0,0,1,831.13,757.16Z"/><path class="cls-2" d="M931.91,745.07c-5.51,15.4-19.78,5.11-28.92,9.87a5.79,5.79,0,0,0-7.06,0l-4.44-.32c-4.46-10.18,3.67-8.29,8.63-8.58C910.7,745.45,921.31,745.37,931.91,745.07Z"/><path class="cls-2" d="M771.17,765c12.58-6.91,26.21-9,40.42-8.34l1.14,4.65-40.11,9C772.14,768.59,771.65,766.81,771.17,765Z"/><path class="cls-2" d="M1315.71,806.37c2.47,2.45,8.39,2.15,7.75,6.59-.81,5.57-6.19,3.58-8.58,1.9-9.46-6.62-25.43,0-30.55-15.09C1295.61,798.09,1304.85,806.07,1315.71,806.37Z"/><path class="cls-2" d="M1440.27,805.2c-7,20.91-23.77,13.87-39.93,14.45,8.11-12.54,23.53-1.55,30.18-12.47Z"/><path class="cls-2" d="M293.21,629.13c-13.65-10.78-14.13-24.37-9.11-39C287.53,603,289.41,616.16,293.21,629.13Z"/><path class="cls-2" d="M1168.51,769.14c14.46.1,28.68,1,40.45,10.72C1194.38,780.59,1180.64,778,1168.51,769.14Z"/><path class="cls-2" d="M1030.55,750.29c-14.08,2.82-27.85,5.47-40.66-2.29C1003.8,745.24,1017.52,745.08,1030.55,750.29Z"/><path class="cls-2" d="M1109,758.82c14.65-2.48,28.49-.89,40.8,8.33C1135.34,768.81,1122.05,764.49,1109,758.82Z"/><path class="cls-2" d="M1090.1,757.34c-14.44,3.55-27.82.43-40.74-6.22C1063.47,748.92,1077,751.31,1090.1,757.34Z"/><path class="cls-2" d="M1227.16,784.35c14.73-2.23,27.4,2.7,42.93,12.08C1251.59,797.41,1239,792.14,1227.16,784.35Z"/><path class="cls-2" d="M1342.67,816.69c13.21-4.61,26.52-4.79,40,.83C1369.37,820.11,1356.09,821.4,1342.67,816.69Z"/><path class="cls-2" d="M298.53,412.09l-12.46,39.49-5.1-1.41c-.75-14.61,5.13-27.44,12.79-39.79Z"/><path class="cls-2" d="M1530.7,721.85c-7.57,13.66-17.59,24.64-32.94,29.79,8.27-12.93,18.66-23.53,33.14-29.6Z"/><path class="cls-2" d="M393.47,725.28c13,5.3,23.21,13.83,29.71,26.54C409.39,747.4,400.82,737,393.47,725.28Z"/><rect class="cls-1" width="1" height="1"/><rect class="cls-1" x="1919" y="1079" width="1" height="1"/><rect class="cls-1" y="1079" width="1" height="1"/><rect class="cls-1" x="1919" width="1" height="1"/></g><g id="Capa_3" data-name="Capa 3"><g class="cls-3"><path d="M800.84,468.87v111H781V509.16L761.5,524.07,745.33,536.6l-16.18-12.53-19.51-14.91V579.9H689.81v-111l19.83,15.23,35.69,27.44L781,484.1Z"/><path d="M854.76,505.83v75.5H834.94V503.77a15.83,15.83,0,0,0-13.48-13.49H817V470.61h4.29v.16a35.6,35.6,0,0,1,13.48,3.65,35.17,35.17,0,0,1,16,16.18,42.55,42.55,0,0,1,2.7,7.45,33.53,33.53,0,0,1,1,8.09Z"/><path d="M940.41,468.87a35.81,35.81,0,0,1,35.85,35.85v39.17a35.81,35.81,0,0,1-35.85,35.85H906.15a35.81,35.81,0,0,1-35.84-35.85V504.72a35.81,35.81,0,0,1,35.84-35.85ZM906.15,488.7A16.24,16.24,0,0,0,890,504.87v39.18a16.25,16.25,0,0,0,16.18,16.18h34.26a16.24,16.24,0,0,0,16.18-16.18V504.87a16.24,16.24,0,0,0-16.18-16.17Z"/><path d="M1103.15,468.87v111h-19.83V534.22h-58.53a31.42,31.42,0,0,1-14.91-3.65,32.41,32.41,0,0,1-17.76-29V468.87H1012v32.67a13.06,13.06,0,0,0,13,13h58.53V468.87Z"/><path d="M1227.66,488.85a34.5,34.5,0,0,1,2.53,12.85v45.53a32.66,32.66,0,0,1-10.46,24.1,34,34,0,0,1-7.3,5.24,31.42,31.42,0,0,1-14.91,3.65h-69V560.39h69a13.07,13.07,0,0,0,13-13V531.84a32.49,32.49,0,0,1-12.38,2.54h-46.79a32.76,32.76,0,0,1,.48-65.51h45.52a32.59,32.59,0,0,1,30.14,20ZM1139,501.7a13.06,13.06,0,0,0,12.37,13h46.79a13,13,0,0,0-.63-26H1152A13.06,13.06,0,0,0,1139,501.7Z"/></g></g></g><path class="cls-2" d="M950.73,745.07s30.7.1,24.1,3.78-30.54,4.75-29.22,1.16A9.18,9.18,0,0,1,950.73,745.07Z"/></g></g></svg>