<svg xmlns="http://www.w3.org/2000/svg" viewBox="0 0 1920 1080"><defs><style>.cls-1{fill:#010101;}.cls-2{fill:#f2f2f2;}</style></defs><g id="Capa_2" data-name="Capa 2"><g id="Capa_1-2" data-name="Capa 1"><path class="cls-1" d="M1765.8,557.29V493.9c0-10.69-13.57-19.07-13.57-19.07-17.63-10.52-35.29-21-52.85-31.59-54.73-33.13-111.83-61.88-169.92-88.43-31.39-14.34-64.07-26.19-96.94-37.08-66.59-22.06-134.12-40.25-203.12-53.42-37.81-7.22-75.74-13.33-114-17.35-33.35-3.5-66.89-5.09-100.35-7.42-4.27-.31-8.89.62-8.28-6.19.45-5.21-2.61-6.84-7.36-6.77l-79.81,0c-3,0-7.15-1.51-6,5.18.67,4-2.19,7.23-8.39,7.05-25.78,0-73.3,4.43-73.3,4.43l-27.39,4.58c-48.32,2.83-95.66,12.13-142.85,22.24-105.05,22.49-207.1,54.18-304.22,100.51A1717.68,1717.68,0,0,0,182.76,466.3c-7.7,4.81-15,10.17-22.64,15.32-4.58,3.16-4.71,10.38-4.71,10.38s-1.4,74.9-1.2,80.74a35.81,35.81,0,0,0,1.33,9.21c16.91,18.48,34.3,36.56,50.57,55.59,9.89,11.59,21,17.37,36.38,15.8,9.3-1,18.79-.06,28.2-.29,12.7-.33,19-6.5,19.37-19.12.31-10.91.24-21.84.22-32.77,0-8.66,4.13-14.59,12.13-17.2s14.34,0,18.39,7.48c3,5.44,8.28,4.53,12.9,4.58,17.3.2,34.59.05,51.88,0,6.21,0,11.37,1.39,13.78,7.94C407.6,626.32,417,648.3,424,671.16c10.05,20.76,15.27,43.58,27,63.65,16.86,24.88,39.37,42.36,67.88,52.16,7.45,2.53,14.45,6.31,21.82,9,4.67,1.71,9.18,2.52,8.3,9.39-.38,3,3.4,3.76,5.9,4.77q10.86,4.38,21.69,8.81c15.79,5.58,31.56,11.2,47.37,16.73,3.36,1.16,7.15,4.54,9.65-1.5.7-1.66,2.81-.73,4.14-.31,16.3,5.16,32.55,10.42,50.61,16.22,8.45,2.7,19.94,3.45,19.94,3.45,25.9-.24,51.66-1.86,77-8.58,18.28-4.85,37.14-7.42,55.77-11,19.26-4.58,39-5.6,58.65-7.06,16.94-1.24,34-1,51-2.11l25.45.58c32.47.46,64.92,1.13,96.9,7.81,23,2.46,45.37,7.84,67.72,13.39,16.58,4.1,33.46,5.49,50.44,6.33,31,0,60.51-7.64,89.34-18.5,1.64-.62,4.56-1.73,4.94-1.18,6.64,9.1,13.1,1.51,19-.53,20-6.94,39.68-14.6,59.49-22,4.09-1.55,9.16-2.12,7.86-8.89-.6-3.15,2.83-3.39,4.95-4.3,11.69-4.94,23.4-9.91,35.13-14.8,33.17-13.81,55.77-37.79,68.78-71.11q8.4-21.51,16.82-43,11.89-32.35,23.79-64.69c2.17-5.91,6.33-8.1,12.66-8,17.29.25,34.6,0,51.91,0,6.54,0,12.36-.62,16.22-7.47,2.94-5.18,8.5-6.38,14.41-4.79,7.06,1.88,11.92,5.94,13.27,13.31,1.91,10.55.87,21.2,1,31.8.27,19.58,5.16,24.5,25.05,24.48,10.63,0,21.25-.11,31.87-.09,6.69,0,12.78-1.9,17.36-6.69,20-20.76,40.37-41.12,58.23-63.8C1765.43,574.29,1765.89,565.85,1765.8,557.29Zm-770-304.64c1.86.06,3.68.81,3.63,3.14s-1.65,3.18-3.62,3.14c-8.75-.18-17.51-.44-26.27-.73-2.44-.07-4.06-1.35-3.92-3.94.2-3.39,3-2.24,4.84-2.34,3.9-.2,7.84-.07,11.76-.07v.75C986.76,252.6,991.3,252.51,995.81,252.65Zm-.83-19c1.77,0,3.93-.24,4.26,2.24a2.5,2.5,0,0,1-2.59,3c-10-.18-20,1-29.83-1.55-.57-.14-.86-1.33-2.28-3.7C975.63,233.59,985.3,233.59,995,233.61Zm-73.61,2c.15-2.15,1.87-2,3.27-2,12.26,0,24.5,0,36.74,0,0,1,.07,2,.13,3-12.44,2.37-25.08,2.39-37.75,2.13C922,238.73,921.27,237.37,921.37,235.65Zm40.32,19.12c0,2.61-1.82,2.72-3.68,2.81l-16.39.8v.73H925.24c-2.59,0-3.94-1.13-3.72-3.88.18-2.36,1.64-3,3.69-3l32.8-.34C960,251.89,961.67,252.22,961.69,254.77Zm-35.13,22.57c-.26-3.11,0-5.26,4-5.46,8.49-.4,17-1.07,25.43-1.69,3.45-.26,6,.25,5.84,4.65-.16,3.63.71,7.59-5,7.68A83.92,83.92,0,0,0,937,284.85c-3,.77-5.34,2.06-4.49,5.49.93,3.74,4.11,1.83,6,1.44a113,113,0,0,1,42.51-.2c2.37.42,6.18,2,7.09-1.51,1-3.89-2.46-4.87-5.67-5.35-3-.45-6-.94-8.94-1.6s-8.12,1.68-8.1-4.43c0-5.13-.24-11.13,5.68-13.12,3.94-1.35,9.28-2.43,11.54,3.65.68,1.86,1.7,3.45,3.91,2.92,8.1-1.92,8.26,3,7.75,8.72-1.06,12.06,1.64,23.62,5.82,34.69,2.46,6.55.07,7.23-5.38,7.14-11.55-.18-23.1-.06-34.63-.06s-23.09-.07-34.62.08c-5.46.07-7.19-1.65-5-7.08C925.32,303.35,927.69,290.58,926.56,277.34Zm171.88,354.25c.11,4.64-1.86,5.57-5.91,5.39-7.19-.33-14.39-.31-21.6-.44-32.2.09-64.4.23-96.58.2-3.72,0-9.38,2-8.77-5.37.44-5.45-2.43-11.65,7.59-13,29.71-4,55-28.26,61.33-57.36,9.12-41.76-16.2-81.75-58-90.81-7.35-1.59-12.64-3.12-11.46-12,.08-.45-.49-1.06-.87-1.51-.11-.15-.57,0-1.08,0-2.22,1.33-1.26,3.68-1.15,5.53.29,4.52-1.24,6.14-6.09,6.58-56,5-86.85,59.18-62.76,109.79a29,29,0,0,1,1.15,3.41c11.64,16.86,25.89,30.28,46.63,35,4.11.93,8.34,2,12.48,1.94,8.23-.19,8.85,4.47,8.65,10.94-.15,4.69-.75,7.08-6.37,7-36.94-.3-73.9-.28-110.84-.35-22.46,1.4-22.4,1.4-22.4-20.89,0-49.8.14-99.6-.15-149.39,0-6.2,1.9-7.61,7.64-7.79,24.28-.84,42.23-11.6,51.65-34.68,1.37-3.37,3.25-4.38,6.78-4.36q72,.16,143.92.06c3.39,0,5.35.76,6.75,4.3,9.56,24.05,28.41,34.35,53.34,34.85,4.58.09,6.35.82,6.32,5.92-.35,39.77-.39,79.54-.53,119.31C1098.17,599.76,1098.11,615.69,1098.44,631.59ZM956.71,489.28c-35.3,1-68.26,41.39-41.79,86.49,8.13,13.85,22.71,22,39.47,22.6,8.18.31,7.57,4.67,7.43,10-.09,3.65-1.72,4.41-5.18,4.25-34.26-1.57-64.23-33.06-64.58-68-.37-35.39,28.35-66.62,63.28-68.9,3.49-.24,7.19-1,6.41,4.45C961.24,483.74,964.28,489.06,956.71,489.28ZM914,554.41c-6.89-26.09,10.66-51.85,38-57.54,3.05-.64,8-2.59,9.05.6,1.46,4.65,1,10.27,0,15.22-.64,3.26-4.69,1.68-7.19,1.69-23.64.26-23.62.22-23.49,24,0,7.59,0,15.2,0,22.79,0,7,3,11.78,10.35,12.51,13.3,1.34,26.61,1.65,39.91-.31,6.61-1,9.33-5.21,9.54-11.32s.06-12.15.06-18.23h.11c0-4.54,0-9.1,0-13.66-.18-12.59-2.92-15.25-15.58-15.71-4.41-.16-9.87,1.86-9.74-6.55.16-12.79.18-13.15,12.42-8.43,18.92,7.32,32.31,27,31.22,45.9-1.26,21.56-15.6,40.3-35.58,44.28C947.43,594.76,922.54,586.5,914,554.41Zm51.36-26.73c-.43-7.79,4.79-6.09,9-6.09s9.45-1.7,9.1,6.09c-.43,10.27-.18,20.6-.07,30.91,0,4.48.15,9-6.18,8.53-4.77-.36-11.79,3-12-6.31,0-.76-.7-1.51-1.3-2.72-3.54,2.58-.07,10.86-8.14,9.25-4.67-.93-9.66-.14-14.5-.47-3.06-.2-3.57-2.63-3.56-5.29q.12-17.3.11-34.55c0-3.67,1.41-5.17,5.33-5.57,18.52-1.84,18.44-2,18.7,16.79,0,2.75-1.44,6,2.5,9.1C966.29,540.36,965.72,533.94,965.4,527.68Zm5.09,70.62c9.9-1.29,18.53-5.93,25.88-12.33,17.13-14.92,23-34.24,17.48-55.86-5.37-20.91-19.34-34.57-40.85-39.52-4.85-1.11-8.35-2.17-7.84-8.59.44-5.51,2.39-6.44,7.37-5.51,32.21,6.06,56.44,34.9,56.46,67.52a68.5,68.5,0,0,1-56.46,67.28c-3.18.58-7.06,2.43-7.1-3.34C965.41,604,963.83,599.18,970.49,598.3Zm-10.33-239c-4.47,4.8-14.39,1.1-21.89,1.57-6.68.4-13.37.09-20,.26-2.57.07-6-.53-6.15,3.52-.16,4.32,3.36,3.5,5.91,3.54,12.46.16,24.92.51,37.36.22,5.28-.13,6.44,1.55,6.5,6.6.18,20.1.36,20.1-19.6,19.9-5.76-.05-11.52,0-17.31,0v.17c-10,0-20,0-30.06,0-5,0-6.82-1.1-3.21-6.11a137.56,137.56,0,0,0,22.6-51.18c1.53-6.91,4.82-9.15,12-8.46a221.14,221.14,0,0,0,29.13.36c5.4-.2,6.93,1.7,6.42,6.75C961,344.21,964.94,354.14,960.16,359.28Zm-69.69,42.27q33.19.27,66.39.15c4.18,0,5,2.1,5,5.69.06,4.12-1.87,5-5.58,5-10.91-.18-21.82-.07-32.73-.07v.12H890.82c-3.25,0-6-.16-5.93-4.7C885,403.76,885.84,401.52,890.47,401.55Zm139.63,10.87c-10-.11-20,0-29.93,0v-.09c-9.67,0-19.34-.08-29,0-3.5,0-5.67-.6-5.73-4.9s1.5-5.75,5.78-5.73q29.47.14,59-.24c4.69,0,5.43,2.35,5.62,6.17C1036,412,1033.55,412.46,1030.1,412.42Zm.37-18.17c-1.41,2.32-4.47.93-6.79.95-8.19.09-16.38,0-24.57,0v-.11c-9.11,0-18.19-.11-27.29.05-4.4.08-6.33-1.09-6.52-6.12-.73-20.67-.93-20.67,19.87-20.73,5.47,0,10.93.07,16.38-.18,2.72-.13,6.93,1.2,7.1-3.34s-4-3.63-6.79-3.68c-9.7-.21-19.43-.42-29.11-.21-5.53.13-7.17-1.91-7.32-7.4-.67-23.64-.84-23.64,23-24.19,15.47-.35,15.65-.4,19.48,14.43a137.93,137.93,0,0,0,19.77,43.49C1029.08,389.29,1032.16,391.43,1030.47,394.25ZM408.35,589.54c-7-5.87-15-8.42-24.28-8.15-14.56.4-29.12.22-43.67.22-4.25,0-8.63.14-11.7-3.65-13.64-17-40.21-9.87-50.66,9.25-3.72,14-2.37,28.29-2.17,42.45.13,7.83-2.57,10.18-9.89,9.43a50.69,50.69,0,0,0-13.59,0c-18.15,3-31.08-4.19-42-18.44-8.94-11.73-19.6-22.17-29.48-33.19-7.78-4.92-11.44-11.65-11.24-21.18.42-20.66.56-41.35-.09-62-.3-9.09,3-14.49,10.43-19.23,46.36-29.57,94.43-56.08,143.19-81.42,115.71-60.2,238.65-99,366.19-124.63,71.33-14.34,143.42-21.06,215.9-25a6.15,6.15,0,0,1,1.81-.07c2.31.6,6.42-2.13,6.67,2,.3,4.74-4.32,3-6.95,3.34-5.41.62-10.89.84-16.34,1.22-118.87,8.08-235,31.08-349.15,64.6-35.21,10.32-70,21.78-104.64,33.93-21.53,7.55-33.33,21.4-35.56,44.47-.91,9.44-5.47,18.48-8.15,27.77-.9,3.14-2.81,7.28-.18,9.54,3.41,2.92,4.63-3.89,8.7-3.27v51.78c-4.69-4.76-5.2-9.38-5.44-14.12-.25-5.16-.56-10.33-.91-15.47-.13-2.05-1-3.36-3.34-3.47-2.48-.13-3,1.44-3.17,3.4-1.08,12-2.52,26.39,5.82,33.94,10.32,9.4,7,19.12,6.65,28.59-.82,22.64,4.8,43.82,11.52,65,9.88,22.11,16.54,45.41,24.79,68.12,4.05,11.17,8.79,22.19,10.43,34.17C434.16,656.35,422.82,622.33,408.35,589.54Zm41.25,104.9a5.05,5.05,0,0,1-.53-1.51c0-.33.44-.64.78-1.08a6.56,6.56,0,0,1,.57,1.77C450.42,693.89,449.89,694.17,449.6,694.44Zm105.08,89.21c-.86,1.84-3.31,1.2-4.95.47-23.38-10.54-48.92-17-68.06-35.63-3.52-3.44-7.46-6.51-8.54-12.31,11,7.79,21.91,15.67,33,23.3,3.14,2.17,6.64,6.22,9.8-.73,1.48-3.27,5.05-.73,6,.78,7,11,17.82,16,29.64,19.54C553.84,779.76,555.77,781.28,554.68,783.65Zm401,27.14c-29.16.55-58.31.93-87.3,4.56s-58.05,8.32-86.36,16.13c-47,12.95-92.51,7.43-137.18-10.25-2.38-.93-5.44-1.88-4-4.71s4.24-.44,6.32.4c6.73,2.72,13.4,5.57,20.14,8.32,3.44,1.41,8.3,3,9.83-.6,1.9-4.51-3.76-4.91-6.68-6.33-7-3.41-15.12-4-21.73-8.41-.91-.6-1.53-1.64-3.08-3.34,11.81-.42,21.4,3.89,31.31,6.59q17.5,4.73,35,9.56c21.71,6,42.75.62,63.67-4.18,34.26-7.88,68.69-15.18,103.69-18.37,25.93-2.36,52-4.82,78.12-4.29,1.35,0,3.12-.64,3.78,2.21-6.13,3.06-12.74.44-19,1a110.7,110.7,0,0,1-12.75,0,4.35,4.35,0,0,0-4.89,4.29c-.37,4.07,3,3,5.12,3,8.82.15,17.63,0,26.42.17,2.08,0,5.87-1.52,5.69,2.18C961.55,811.87,957.88,810.74,955.64,810.79Zm320.19,10.46c-25.54,8.83-51.28,16.89-78.6,17.55-21.42.51-42.26-3.49-62.94-8.69-52.8-13.28-106.56-18.81-160.89-19.61-2.44,0-8.66,3.36-7.15-3.9.9-4.22-2.21-12.13,7.76-10.09,4,.82,8.33.13,13.53.13-1.9,3.32-6.4,4.3-4.5,8.06,1.55,3,4.92,1.61,7.46,1.66,8.5.22,17,.42,25.5,0,2.7-.12,10.34,4.15,6.2-5.45-1.16-2.68,3.56-1.93,5.49-1.81a420.67,420.67,0,0,1,53.15,7.14c25.72,5.09,51.46,10.05,78.42,15.3-7.22,6.7-3.19,9.42,3,10,9.34.88,18.61,3.14,28.08,2.37,2.3-.18,5.29.86,6.6-1.77,1.85-3.61-3.5-3.3-4-6.47,24.3-3.52,47-12.46,70.48-18.76,3.61-1,10.81-5,8.32,6.12-1.94,8.57,6.12-.92,8.13,3.32C1280.61,819.26,1278.68,820.26,1275.83,821.25Zm124.47-49c-9.15,3.94-18.53,7.37-27.82,11-2.15.84-4.41,3.2-6.56.93-2-2.09-1.61-5.23-.79-7.79,2-6.38,8-7.73,13.34-9.68.47-.19,2,.85,1.93,1.15-2.11,12.69,6.5,3.43,7.86,3,11.37-3.74,22-7.68,30.51-18,5.65-6.88,16.8-9.23,25.5-13.59C1434.05,756.47,1417.49,764.84,1400.3,772.25Zm53.55-57.78c-4.25-1.59-.9-6.06-4.42-8-3.85,2.36-4.85,7-6.46,10.87-8.15,19.62-24.92,27.9-43.51,34-3.06,1-4.7.36-4.76-3,0-1.82.09-3.65-.07-5.46-.16-2,.09-4.88-2.64-5-3.11-.18-4.16,2.77-3.65,5.13,2.66,11.84-5,15-14,17.71-6.51,2-11.87,5.49-15.67,11.6s-10.94,7.24-17,10c-4.12,1.89-8.33,3.59-12.47,5.43-2.58,1.17-5.51,2.85-4.31,6,1.35,3.43,4.49,1.77,7,.77,6.71-2.78,13.52-5.31,20.07-8.45,4.49-2.17,6.22-1,7.9,3.52,4.76,12.9,5,12.84-7.77,17.66-17.28,6.51-34.79,12.5-51.78,19.7-11.29,4.78-8.94-5.6-11.85-9.63-4.31-5.91,1.51-6.68,5.21-8.23,4.73-2,9.47-3.94,14.18-6,1.46-.64,2.73-1.86,2.3-3.47-.59-2.21-2.72-2.37-4.49-1.9-2.92.79-5.66,2.19-8.58,3-7.44,2-14.59,7.39-22.42-.51-3-3-8.68-1.46-13.17-.13-16.23,4.83-32.49,9.6-48.72,14.43-7.61,2.24-15.31,3.72-23.3,3-15.12,1.75-29.37-3.36-43.89-6-25-4.52-49.9-9.79-74.82-14.75-32.69-3.93-65.38-7.59-98.4-6.77L956,789.67c-37.28-.77-74.31,2.42-111.21,7.37-35.38,5.94-70,15.91-105.56,20.65a57.09,57.09,0,0,1-20.7-1.06c-19.39-3.54-37.6-11.26-56.68-15.89-15.82-3.85-22-.87-28.59,14-6.26,14.16-6.26,14.19-20.89,8.74-16.71-6.22-33.33-12.7-50.13-18.64-5-1.76-6.53-4-3.66-8.45s1.2-11.91,9-13.19c1.86-.31,1.33-2.44.16-3.65-6.75-7-10.36-17.71-21.87-19-14.6-1.6-16-11.69-15.4-23.19-5.55.88-6.2,4.86-6.13,9.44,0,2.6-.42,5.27-4.07,3.79-16.91-6.82-33.86-13.59-47.72-26-9.85-12.94-13.83-28.48-18.92-43.44C441.68,646.1,429.84,611,416.69,576.39a13.71,13.71,0,0,1-.37-3.48c-1.22-3.74-3-7.41-3.5-11.24-.38-3.14-6.75-10.33,4.16-8.37,1.48.25,2.61-1.56,2.44-3.25a13.08,13.08,0,0,0-1-4.34c-11-24.67-10.41-50.83-9.48-76.92.75-20.85.58-41.73,1.33-62.57.58-16.07,5.31-26.18,17-35.1,3.47-2.62,7.3-3.12,11.77-3.34-5.42,4.53-10.91,9-16.24,13.58-2.33,2-4.89,5.05-2.59,7.8,2.88,3.49,5.33-.32,7.35-2.15,6.61-5.84,13.25-11.58,21-15.94,2.1-1.19,4.18-2.48,5-5,2.86-8.59,8.77-10.52,16.36-5.47,2.56,1.71,5.2.64,7.83-.15,7.55-2.24,15.19-4.19,22.64-6.73,4.34-1.48,10-1,9.05-9.52-.46-4.22,7.69-4.56,12.18-4.95,5.16-.43,2.94,4.07,2.92,6.72,0,5.76-.16,11.53-.36,17.29-.17,4.29.87,7.68,7.07,9.6,0-8.45.19-16.13-.07-23.77-.15-4.44,1.59-6.57,5.88-7.61,6.74-1.66,13.42-3.72,20.06-5.82,4.09-1.3,7.77-1.79,9.32-7.92,1.12-4.41,9.31-7,13.76-3.88s7.62,2.48,11.67,1.44c7.63-2,16-2.61,22.68-6.28,9.32-5.09,15.91-12.82,29.3-7.7,7.22,2.76,17.9-3.57,27-5.74a11.91,11.91,0,0,0,7.3-5c3.87-5.48,9.78-5.53,15.56-4.56,15.69,2.6,30.67,2.49,43.69-8.58a12.05,12.05,0,0,1,11.24-2.15c16.31,4.43,31.43.6,46.23-6.19,4.89-2.24,10-5.12,14.65.81,1.26,1.62,3.36,1.26,5.12,1.07,10.88-1.13,21.71-2.4,32.59-3.54,2.84-.31,3.59-2.5,5.2-4.3,4.46-5.09,11.87-5,15.21-1.21,3.48,4,6.35,3.71,10.05,3.43,7.88-.58,15.74-1.29,23.59-2.2,3.19-.37,6.8-.33,8.5-4.13,1.26-2.81,3.76-3,6.18-2.17,2.69.88,3.38,3.36,3.38,5.88,0,7,1.39,14.41-.47,20.87-9.27,32.18-14.45,66-35,94-4,5.51-5.81,11.69-6.15,18.64-1.3,25-19.23,45.06-44.13,44.15-24.32-.9-38.2,8.61-46.08,30.39-4.86,13.46-14.78,18.3-29.23,17.7-23.06-1-46.19,0-69.27-.5-7.79-.18-10.5,2.74-12,9.87-5.2,24.78-3.7,49.44-.22,74.18,1,5.32,4.76,6.16,9.38,6.13,12.15-.09,24.28,0,36.41,0,12.75-.12,25.52-.09,38.27-.43,8.45-.24,13.5,3.48,16.22,11.42,3.52,10.32,7.56,20.45,11.31,30.68,3.54,9.72,10.38,14.43,20.78,14.38,11.84-.08,23.7.21,35.54.34,37,0,74.1,0,111.13-.23l20.31.36,94.75-.16c12.7-.11,25.41-.1,38.13-.35,14.21-.27,19.12-3.8,24.32-17.26,3.59-9.3,7.46-18.53,10.32-28,2.45-8.08,7.3-10.85,15.36-10.82,24.85.13,49.68-.12,74.51-.32,3.72,0,8.13,1.11,9.85-4,3.83-24.39,5.94-48.71.82-73.32-1.88-8.92-5.09-12.68-14.76-12.41-23.7.68-47.43-.07-71.13.35-10.32.16-17.46-3.69-22.22-12.66-3.28-6.15-7.22-12-10.16-18.3-5.58-12-15-16.75-27.84-16.22-13.64.57-26.63-1.11-37.54-10.6-10-8.73-16.86-19-17.53-32.69-.33-6.36-.75-12.82-4.84-18.2-17.09-22.61-23.7-49.5-31.23-76-3.16-11.13-5.91-22.15-6-33.88-.06-6,1.18-8.15,7.42-7.77,6.46.39,13,1.23,19.14-3.26,2.75-2,8.3-2.08,11,1.31,3.77,4.87,9,5.49,13.84,5.2,11.08-.64,22.24,5.42,33.53-1.5,3-1.84,10.29-1.84,13.81,3.71,2.1,3.28,5.91,3.08,9,3.28,11.79.8,23.32,5.86,35.54.51,3.83-1.68,10.49-1.48,13.13,5,.77,1.88,2.78,2.21,4.62,2.38,13,1.14,25.61,6.29,39.24,2.06,4.31-1.33,11.89-1.68,14.12,6.07.15.55.58,1.41,1,1.44,13.22,1.21,25.34,10,39.46,5.6,5.65-1.77,11.86-3.92,15,4.2,1.13,2.92,3.76,3.61,6.5,4.27,9.41,2.3,18.79,4.7,28.18,7.09,2.17.55,3.91.5,5.71-1.38,5.35-5.57,13.12-2.19,14.91,1.15,4.21,7.9,11.62,7.9,17.93,10.49,5.29,2.15,11,3.26,16.6,4.74,1.7.44,3.72,1.26,5.2.73,15.34-5.47,21.64-1.17,22.27,15.54.21,5.17.1,10.35.28,15.51.09,2.75.34,6.11,4,6,3.37-.12,2.62-3.52,2.75-5.76.2-3.63.24-7.3.09-10.93-.38-9.87-.43-9.87,9.53-6.93,4.36,1.29,8.7,2.64,13.09,3.81,1.61.44,3.11,1.66,5,.18,8.19-6.27,13.22-4.61,16.6,5.39.8,2.35,2.63,2.95,4.71,3.68,9.43,3.27,19.19,5.64,28.2,10.11,1.77.87,5.47,1.71,5.4-.62-.4-13.63,7.32-3.1,9-2.39,13.17,5.41,18.46,11.13,19.87,19.57-4.2.46-5-3.9-7.7-5.42-2.25-1.22-4.56-4.41-7.08-2.06s.09,5,1.79,7c3.66,4.44,7.61,8.67,11.24,13.14a32.12,32.12,0,0,1,7.29,21.87c-.73,33.09,1.15,66.24-1.13,99.33-.24,3.62.55,7.28.59,10.91.05,4.09,3.63,10.47-5.77,8.81-2.12-.36-2.79,3-3.52,4.88-4.47,11.25-9.25,22.42-11.31,34.47,6.75,2.14,7.24-3.55,8.92-7.38,3.32-7.56,4.85-15.89,10.25-22.59-13.48,46.78-30.88,92.18-48.21,137.7,1.77-6,3.72-11.9,5.25-17.92s5.2-11.76,2.26-19.17c-8.83,4.07-6.49,13.7-10.43,19.85-1,3.79-1.41,7.88-3.14,11.31-3.65,7.28-1.68,9.92,7.33,8.24C1459.43,699.4,1458.79,707.68,1453.85,714.47ZM815.18,548.86h-.25c0,26.09.09,52.18-.09,78.26,0,3.38,3,8.8-3.14,9.62-5.24.71-11.38,1.06-14.07-5.44-4.47-10.91-8.84-21.87-13-32.93-3.06-8.3-6.57-15.79-16.86-16.71-3-.27-3.84-2.42-3.86-5.16q-.06-33.22-.17-66.42c0-2.85.93-4.43,4.13-4.67,12.64-.93,20-9,25.54-19.34,3.57-6.66,7.07-13.37,10.85-19.92,1.92-3.34,4-7.83,8.76-6.24,4.1,1.37,2,5.86,2,8.87C815.26,495.47,815.18,522.17,815.18,548.86Zm-58.3,26.67c0,4.05-1.53,5.51-5.24,5.46-.6,0-1.22,0-1.82,0-24,1-24,1-23.88-22.7q0-7.74,0-15.49h0c0-10,.41-20.06-.14-30.06-.33-6.35,2.13-7.83,7.84-7.37a106.63,106.63,0,0,0,16.38,0c5-.38,6.92,1,6.85,6.41C756.61,533,756.7,554.26,756.88,575.53Zm-38.16-31.79h-.13c0,10-.18,20,.09,30,.14,5.25-1.21,8.13-7.08,7.42-8.68-1-19.54,3.7-25.58-1.57s-3.53-16.44-4.68-25c-2-15.23,1.11-30.17,3-45.19.5-3.77,2.89-4.05,5.8-4,7.57.08,15.16.4,22.73,0,5.22-.25,6,2.21,5.88,6.55C718.57,522.52,718.72,533.14,718.72,543.74Zm387.36,46.35q0-64.22-.07-128.43c-.29-1.2-.11-2,1.42-1.73,5.9-.69,7.63,4.1,9.8,7.83,4.4,7.55,8.39,15.36,12.57,23,4.51,8.28,11.38,13.55,20.76,14.28,5.44.42,6.28,2.66,6.24,7.37-.22,20.58-.18,41.17-.07,61.75,0,4.07-.46,7.32-5.42,7.57-4.56.22-7.7,3.12-11,5.79q-7.18,18.53-14.35,37.08c-1.43,3.67-2.78,7.36-6,10a13.37,13.37,0,0,1-12.06,2.23c-4.3-1.15-2.19-5.69-2.2-8.67C1105.66,615.47,1105.94,602.79,1106.08,590.09ZM1164,542.82h.06c0-9.72.33-19.46-.13-29.17-.29-6.07,1-9.1,7.83-8.26,7.46.91,17.26-3.16,21.91,1.4s1.31,14.4,1.42,21.91c.26,14.89-.18,29.79.15,44.68.12,5.66-1,8.61-7.37,7.75-7.72-1-18,3.62-22.52-1.71-3.81-4.51-1.2-14.45-1.33-22C1163.93,552.57,1164,547.69,1164,542.82Zm38.39,12.52c-.24-4.23,0-8.48,0-12.72h.15c0-10.3.22-20.61-.09-30.9-.13-4.58,1-6.62,6-6.37,7.26.37,14.54.3,21.8,0,4.09-.15,5.84,1.22,6.62,5.38a181.57,181.57,0,0,1,.15,65c-.62,3.6-1.79,5.62-5.58,5.48-.62,0-1.23,0-1.83,0-8.7-.75-19.72,3.7-25.5-1.53C1198.57,574.75,1202.86,563.68,1202.39,555.34Zm304.87-165.43a5.61,5.61,0,0,1,.57-1.22c.2.2.4.4.64.66-.2.38-.42.78-.64,1.16C1507.63,390.31,1507.23,390.08,1507.26,389.91ZM1467.6,701.63l.31-.55.09.62Zm2.37-4.07c-.25,1-.78,1-1,0-.13-.49.24-1.1.38-1.64a4.63,4.63,0,0,1,.55,0A4.28,4.28,0,0,1,1470,697.56Zm267-107.14q-20.14,22.14-40.29,44.26c-3.15,3.46-7.2,4.14-11.56,4.16-10.89,0-21.8-.17-32.69.23-5.46.2-7.26-1.36-7.26-7.09,0-14.78,1.57-29.67-2.08-44.28-8.61-12.86-19.28-21.63-36.09-18.46-4.25.8-8.63,2.15-11.29,5.34-5.82,7-13.24,7.28-21.31,7.08-12.69-.29-25.41-.18-38.11,0-17.18.22-24.9,5.79-31.37,22.24q-14.78,40.43-29.61,80.78a15.25,15.25,0,0,1-3.78,5.91c10.33-30.23,19-61,31.65-90.43.72-7.95,5.13-14.68,7.48-22.11,3.51-11,7.17-22,7.68-33.56.75-17,2.28-33.84,8.32-50,.91-2.46,1.59-5.91-.25-7.92-2.34-2.53-3.25,3-7.63,1.3V437.22c0-1.24.35-2.58,1.79-2.56,2.55,0,2.52,2.1,2.64,3.89.59,8.48,1.21,17,1.7,25.47.15,2.51.16,5.43,3.21,5.61,3.87.24,2.79-3.39,2.83-5.43.13-9.69.82-19.45-1.41-29-.58-2.5-1.07-7.08-4.14-6-10,3.38-5.52-4-6.09-7.5a34.26,34.26,0,0,1,.06-5.45c.18-35.67-7.76-47.27-41.58-59.27-99-35.1-200.14-62.14-303.8-79.5a1549.24,1549.24,0,0,0-160.94-18.12c-2.33-.13-6.45,1.41-6.09-3,.35-4.08,4.21-2.5,6.62-2.37,44.28,2.19,88.5,5.49,132.46,11.13,88,11.25,174,31.91,258.54,58.56,96.78,30.5,187.57,74.19,275.21,124.87q30.73,17.76,60.82,36.61c7.57,4.73,10.9,10.53,10.69,19.4-.4,18.22-1,36.5.08,54.67C1752.19,572.78,1747.54,582.65,1737,590.42Z"/><path class="cls-2" d="M1505.82,541.78c9.4,1.66,5.82-4.72,5.77-8.81,0-3.63-.83-7.29-.59-10.91,2.28-33.09.4-66.24,1.13-99.33a32.12,32.12,0,0,0-7.29-21.87c-3.63-4.47-7.58-8.7-11.24-13.14-1.7-2-4.36-4.61-1.79-7s4.83.84,7.08,2.06c2.72,1.52,3.5,5.88,7.7,5.42-1.41-8.44-6.7-14.16-19.87-19.57-1.71-.71-9.43-11.24-9,2.39.07,2.33-3.63,1.49-5.4.62-9-4.47-18.77-6.84-28.2-10.11-2.08-.73-3.91-1.33-4.71-3.68-3.38-10-8.41-11.66-16.6-5.39-1.93,1.48-3.43.26-5-.18-4.39-1.17-8.73-2.52-13.09-3.81-10-2.94-9.91-2.94-9.53,6.93.15,3.63.11,7.3-.09,10.93-.13,2.24.62,5.64-2.75,5.76-3.62.13-3.87-3.23-4-6-.18-5.16-.07-10.34-.28-15.51-.63-16.71-6.93-21-22.27-15.54-1.48.53-3.5-.29-5.2-.73-5.56-1.48-11.31-2.59-16.6-4.74-6.31-2.59-13.72-2.59-17.93-10.49-1.79-3.34-9.56-6.72-14.91-1.15-1.8,1.88-3.54,1.93-5.71,1.38-9.39-2.39-18.77-4.79-28.18-7.09-2.74-.66-5.37-1.35-6.5-4.27-3.13-8.12-9.34-6-15-4.2-14.12,4.44-26.24-4.39-39.46-5.6-.37,0-.8-.89-1-1.44-2.23-7.75-9.81-7.4-14.12-6.07-13.63,4.23-26.23-.92-39.24-2.06-1.84-.17-3.85-.5-4.62-2.38-2.64-6.44-9.3-6.64-13.13-5-12.22,5.35-23.75.29-35.54-.51-3.12-.2-6.93,0-9-3.28-3.52-5.55-10.8-5.55-13.81-3.71-11.29,6.92-22.45.86-33.53,1.5-4.89.29-10.07-.33-13.84-5.2-2.65-3.39-8.2-3.32-11-1.31-6.13,4.49-12.68,3.65-19.14,3.26-6.24-.38-7.48,1.75-7.42,7.77.09,11.73,2.84,22.75,6,33.88,7.53,26.54,14.14,53.43,31.23,76,4.09,5.38,4.51,11.84,4.84,18.2.67,13.72,7.49,24,17.53,32.69,10.91,9.49,23.9,11.17,37.54,10.6,12.81-.53,22.26,4.18,27.84,16.22,2.94,6.31,6.88,12.15,10.16,18.3,4.76,9,11.9,12.82,22.22,12.66,23.7-.42,47.43.33,71.13-.35,9.67-.27,12.88,3.49,14.76,12.41,5.12,24.61,3,48.93-.82,73.32-1.72,5.16-6.13,4-9.85,4-24.83.2-49.66.45-74.51.32-8.06,0-12.91,2.74-15.36,10.82-2.86,9.51-6.73,18.74-10.32,28-5.2,13.46-10.11,17-24.32,17.26-12.72.25-25.43.24-38.13.35l-94.75.16-20.31-.36c-37,.23-74.08.2-111.13.23-11.84-.13-23.7-.42-35.54-.34-10.4,0-17.24-4.66-20.78-14.38-3.75-10.23-7.79-20.36-11.31-30.68-2.72-7.94-7.77-11.66-16.22-11.42-12.75.34-25.52.31-38.27.43-12.13,0-24.26-.12-36.41,0-4.62,0-8.39-.81-9.38-6.13-3.48-24.74-5-49.4.22-74.18,1.5-7.13,4.21-10.05,12-9.87,23.08.55,46.21-.49,69.27.5,14.45.6,24.37-4.24,29.23-17.7,7.88-21.78,21.76-31.29,46.08-30.39,24.9.91,42.83-19.14,44.13-44.15.34-6.95,2.1-13.13,6.15-18.64,20.54-28,25.72-61.79,35-94,1.86-6.46.47-13.89.47-20.87,0-2.52-.69-5-3.38-5.88-2.42-.8-4.92-.64-6.18,2.17-1.7,3.8-5.31,3.76-8.5,4.13-7.85.91-15.71,1.62-23.59,2.2-3.7.28-6.57.53-10.05-3.43-3.34-3.81-10.75-3.88-15.21,1.21-1.61,1.8-2.36,4-5.2,4.3-10.88,1.14-21.71,2.41-32.59,3.54-1.76.19-3.86.55-5.12-1.07-4.64-5.93-9.76-3.05-14.65-.81-14.8,6.79-29.92,10.62-46.23,6.19a12.05,12.05,0,0,0-11.24,2.15c-13,11.07-28,11.18-43.69,8.58-5.78-1-11.69-.92-15.56,4.56a11.91,11.91,0,0,1-7.3,5c-9.13,2.17-19.81,8.5-27,5.74-13.39-5.12-20,2.61-29.3,7.7-6.69,3.67-15,4.31-22.68,6.28-4.05,1-7.31,1.62-11.67-1.44s-12.64-.53-13.76,3.88c-1.55,6.13-5.23,6.62-9.32,7.92-6.64,2.1-13.32,4.16-20.06,5.82-4.29,1-6,3.17-5.88,7.61.26,7.64.07,15.32.07,23.77-6.2-1.92-7.24-5.31-7.07-9.6.2-5.76.36-11.53.36-17.29,0-2.65,2.24-7.15-2.92-6.72-4.49.39-12.64.73-12.18,4.95.94,8.54-4.71,8-9.05,9.52-7.45,2.54-15.09,4.49-22.64,6.73-2.63.79-5.27,1.86-7.83.15-7.59-5.05-13.5-3.12-16.36,5.47-.86,2.54-2.94,3.83-5,5-7.73,4.36-14.37,10.1-21,15.94-2,1.83-4.47,5.64-7.35,2.15-2.3-2.75.26-5.78,2.59-7.8,5.33-4.62,10.82-9.05,16.24-13.58-4.47.22-8.3.72-11.77,3.34-11.69,8.92-16.42,19-17,35.1-.75,20.84-.58,41.72-1.33,62.57-.93,26.09-1.53,52.25,9.48,76.92a13.08,13.08,0,0,1,1,4.34c.17,1.69-1,3.5-2.44,3.25-10.91-2-4.54,5.23-4.16,8.37.46,3.83,2.28,7.5,3.5,11.24a13.71,13.71,0,0,0,.37,3.48c13.15,34.63,25,69.71,36.92,104.77,5.09,15,9.07,30.5,18.92,43.44,13.86,12.42,30.81,19.19,47.72,26,3.65,1.48,4.11-1.19,4.07-3.79-.07-4.58.58-8.56,6.13-9.44-.55,11.5.8,21.59,15.4,23.19,11.51,1.28,15.12,12,21.87,19,1.17,1.21,1.7,3.34-.16,3.65-7.83,1.28-6.19,8.72-9,13.19s-1.32,6.69,3.66,8.45c16.8,5.94,33.42,12.42,50.13,18.64,14.63,5.45,14.63,5.42,20.89-8.74,6.57-14.88,12.77-17.86,28.59-14,19.08,4.63,37.29,12.35,56.68,15.89a57.09,57.09,0,0,0,20.7,1.06C774.79,813,809.36,803,844.74,797c36.9-4.95,73.93-8.14,111.21-7.37l16.43.31c33-.82,65.71,2.84,98.4,6.77,24.92,5,49.81,10.23,74.82,14.75,14.52,2.65,28.77,7.76,43.89,6,8,.67,15.69-.81,23.3-3,16.23-4.83,32.49-9.6,48.72-14.43,4.49-1.33,10.2-2.86,13.17.13,7.83,7.9,15,2.5,22.42.51,2.92-.79,5.66-2.19,8.58-3,1.77-.47,3.9-.31,4.49,1.9.43,1.61-.84,2.83-2.3,3.47-4.71,2-9.45,4-14.18,6-3.7,1.55-9.52,2.32-5.21,8.23,2.91,4,.56,14.41,11.85,9.63,17-7.2,34.5-13.19,51.78-19.7,12.75-4.82,12.53-4.76,7.77-17.66-1.68-4.54-3.41-5.69-7.9-3.52-6.55,3.14-13.36,5.67-20.07,8.45-2.46,1-5.6,2.66-7-.77-1.2-3.12,1.73-4.8,4.31-6,4.14-1.84,8.35-3.54,12.47-5.43,6-2.78,13.19-4,17-10s9.16-9.65,15.67-11.6c9-2.68,16.64-5.87,14-17.71-.51-2.36.54-5.31,3.65-5.13,2.73.15,2.48,3,2.64,5,.16,1.81.06,3.64.07,5.46.06,3.41,1.7,4.07,4.76,3,18.59-6.15,35.36-14.43,43.51-34,1.61-3.83,2.61-8.51,6.46-10.87,3.52,1.95.17,6.42,4.42,8,4.94-6.79,5.58-15.07,9.37-23.3-9,1.68-11-1-7.33-8.24,1.73-3.43,2.13-7.52,3.14-11.31,3.94-6.15,1.6-15.78,10.43-19.85,2.94,7.41-.75,13.17-2.26,19.17s-3.48,11.95-5.25,17.92c17.33-45.52,34.73-90.92,48.21-137.7-5.4,6.7-6.93,15-10.25,22.59-1.68,3.83-2.17,9.52-8.92,7.38,2.06-12,6.84-23.22,11.31-34.47C1503,544.76,1503.7,541.42,1505.82,541.78ZM525.1,391.85c.42-2.19,1.43-4.55,3.84-4.36,3,.22,2.15,3.15,2.2,5.07.13,5.74,0,11.49,0,17.24h.09c0,5.74,0,11.49,0,17.24,0,1.71.55,4.17-1.73,4.52s-4-1.2-4.41-3.65a28.22,28.22,0,0,1-.82-6.2C524.7,411.75,523.26,401.75,525.1,391.85Zm.39,56.55a3.19,3.19,0,0,1,3.92-2.83c2,.4,1.68,2.28,1.7,3.65.09,6,0,12.1,0,18.15h.11c0,5.75,0,11.49,0,17.24,0,1.68.82,4-1.66,4.45a3.34,3.34,0,0,1-4-2.84A116.78,116.78,0,0,1,525.49,448.4ZM436.61,607.31c-3.29,1.35-5-1.42-5.86-4.12-3.28-10.07-6.42-20.2-9.63-30.3.51-1.64-.35-4.22,1.64-4.76,1.79-.5,3.32,1.33,4.05,3,2.35,5.57,4.54,11.19,6.79,16.79,1.35,4.3,2.88,8.57,4,12.95C438.09,603,439.55,606.13,436.61,607.31Zm19.57,56.25c-2.31,1.13-4.41-.41-5.27-2.29a187.6,187.6,0,0,1-11.27-31.83c.36-2.72-.3-5.91,2.75-6.4,2.43-.4,3.25,2.39,3.92,4.3q5.43,15.3,10.6,30.67C457.55,659.91,458.81,662.28,456.18,663.56ZM472.66,718c-8.78-10.36-11.55-23.18-14-35.92-1-5.36,3.34-3,6-2.17,3.63,10.51,7.4,21,10.81,31.56C476.29,714,479.48,718.41,472.66,718Zm50.13-179.93c-8.94,17.21-22.82,22-40,18.74-16.16-3.09-23.59-12-26.09-31.34a80.4,80.4,0,0,1,1.55-29.83c3.67-14.59,14.94-23.81,30-24.61,17.82-.95,26.87,6.55,34.92,20.45,9.26,16,7.62,32.53,7.88,49.27,0,2.1,1.8,5.53-1.42,6.19-3.51.69-3.95-2.81-4.64-5.44C524.81,540.67,524.08,540,522.79,538.06Zm8.33,181.46c0,1.12.17,2.69-1.53,2.65a5.22,5.22,0,0,1-3.15-1.22c-1.94-1.74-2.28-4.29-2.17-6.68.45-11.69-1.08-23.5,1.51-35.12,1.5-.33,3-.65,4.51-1C532.38,691.9,530.6,705.75,531.12,719.52Zm0-76.49c0,5.77,0,11.55,0,17.31,0,1.63.77,3.93-2.13,4-2.08,0-3.58-1-3.76-3.1-1.17-12.7-1.48-25.38.28-38a3,3,0,0,1,3.28-2.59c2,.11,2.22,1.81,2.24,3.3.06,6.37,0,12.76,0,19.12Zm-2.1-36.26c-3.28.21-4.25-3.14-4.45-5.82-.45-6.28-.49-12.59-.71-18.89.35-5,.55-10.1,1.09-15.14.24-2.17,1.68-4.34,4-4.19,3,.18,2.06,3.12,2.17,5,.29,5.36.35,10.74.5,16.12-.15,5.7-.13,11.41-.53,17.1C531,603,532.6,606.53,529.06,606.77Zm94.46,197.86c-.49,2.37-2.93,2-4.48,1.49-11.86-3.59-23-9-34.1-14.45-1.59-.78-3.05-2.24-2.32-4.39.57-1.7,2.08-2,5.06-1.72,10.8,4.33,23.31,8,34.24,15.18A4.67,4.67,0,0,1,623.52,804.63Zm764.89-413a3.67,3.67,0,0,1,3.12-3.87c2.75-.29,3.52,1.9,3.54,4.18.07,6.06,0,12.11,0,18.17,0,5.46,0,10.91,0,16.35,0,2.48-.2,5.29-3.5,5.2-2.44-.08-3.34-2.25-3.34-4.6C1388.3,415.22,1388.32,403.41,1388.41,391.59Zm-.06,75.89c0-5.75,0-11.49,0-17.24,0-2.15.48-4.49,3.14-4.72,2.92-.26,3.45,2.19,3.45,4.3-.08,11.79-.28,23.57-.53,35.36,0,1.73-.2,3.79-2.74,3.9-3.12.11-3.19-2.33-3.25-4.38-.12-5.73,0-11.47,0-17.22Zm3.38,254.58c-4-.16-3.61-4.32-3.59-7.24.09-11.81.36-23.61.58-35.41,2.15-.82,4.3-1.21,6.33.34,0,11.81.09,23.63,0,35.45C1395,717.88,1396.4,722.28,1391.73,722.06Zm3.34-79.45c0,5.75,0,11.48,0,17.21,0,2.15,0,4.48-3,4.48-2.68,0-3.65-1.91-3.67-4.23,0-11.77,0-23.53.06-35.3,0-2.17.71-4.45,3.58-4.21s2.73,2.9,2.79,4.85c.16,5.73,0,11.47,0,17.2Zm-.31-39.84c-.15,1.77-.35,4-2.5,4.18-2.41.18-3.8-1.63-3.91-4-.32-6.27-.52-12.55-.78-18.82q.36-7.67.69-15.33c.13-2.77.31-6.09,3.85-5.95,3,.13,2.85,3.4,2.94,5.73.26,6.92.38,13.85.57,20.76C1395.34,593.83,1395.1,598.3,1394.76,602.77Zm66.4-65.51c-4.29,13.23-15.21,20.1-31.05,20.74-14.14.59-25-5.89-30.7-18.22-1-2.06-.88-4.84-3.87-5.62-2.46,3-.47,6.42-1,9.56-.26,1.48-.13,3.3-2,3.52a3.25,3.25,0,0,1-3.78-3.1c-.18-12.43-3.28-26,.88-36.83,2.88-7.47,6.82-16.2,12-23.3,8.45-11.6,20.67-14.08,34-12.68,12.7,1.35,21.46,8.32,25.47,20.32A71.83,71.83,0,0,1,1461.16,537.26Zm29.15,65.62c-3,10.47-7.53,21.36-12.47,32.09a3.15,3.15,0,0,1-3.67,2c-2.54-.57-2.08-2.87-1.68-4.42a223.66,223.66,0,0,1,11.11-32.67c.82-1.91,1.86-4.65,4.25-4.05C1490.57,596.48,1490.64,599.4,1490.31,602.88Z"/><path class="cls-1" d="M531.09,540.74c-.26-16.74,1.38-33.25-7.88-49.27-8.05-13.9-17.1-21.4-34.92-20.45-15.09.8-26.36,10-30,24.61a80.4,80.4,0,0,0-1.55,29.83c2.5,19.37,9.93,28.25,26.09,31.34,17.17,3.3,31.05-1.53,40-18.74,1.29,2,2,2.61,2.24,3.43.69,2.63,1.13,6.13,4.64,5.44C532.89,546.27,531.12,542.84,531.09,540.74ZM466,532.94a64.75,64.75,0,0,1-.24-36.78c3.49-12.08,12-18,25.16-18.1,12.84-.09,20.36,4.65,23.88,15.95-15-6.95-28.64-6.74-39.15,6.95-7.4,9.63-7.51,20.16-1.73,30.61,7.22,13.08,19.08,15.3,34.95,12.55C491.68,556.74,471.14,550.52,466,532.94Zm31.67,5.47c-10.45,0-20.52-9.67-20.81-20-.33-11.19,10.07-22,21-21.95,11.2.07,21.31,9.92,21.22,20.65A21.57,21.57,0,0,1,497.63,538.41Z"/><path class="cls-1" d="M529.5,431.56c-2.17.31-4-1.2-4.41-3.65a28.22,28.22,0,0,1-.82-6.2c.43-10-1-20,.83-29.86.42-2.19,1.43-4.55,3.84-4.36,3,.22,2.15,3.15,2.2,5.07.13,5.74,0,11.49,0,17.24h.09c0,5.74,0,11.49,0,17.24C531.23,428.75,531.78,431.21,529.5,431.56Z"/><path class="cls-1" d="M529.59,489.06a3.34,3.34,0,0,1-4-2.84,116.78,116.78,0,0,1-.09-37.82,3.19,3.19,0,0,1,3.92-2.83c2,.4,1.68,2.28,1.7,3.65.09,6,0,12.1,0,18.15h.11c0,5.75,0,11.49,0,17.24C531.23,486.29,532.07,488.59,529.59,489.06Z"/><path class="cls-1" d="M529.06,606.77c-3.28.21-4.25-3.14-4.45-5.82-.45-6.28-.49-12.59-.71-18.89.35-5,.55-10.1,1.09-15.14.24-2.17,1.68-4.34,4-4.19,3,.18,2.06,3.12,2.17,5,.29,5.36.35,10.74.5,16.12-.15,5.7-.13,11.41-.53,17.1C531,603,532.6,606.53,529.06,606.77Z"/><path class="cls-1" d="M436.61,607.31c-3.29,1.35-5-1.42-5.86-4.12-3.28-10.07-6.42-20.2-9.63-30.3.51-1.64-.35-4.22,1.64-4.76,1.79-.5,3.32,1.33,4.05,3,2.35,5.57,4.54,11.19,6.79,16.79,1.35,4.3,2.88,8.57,4,12.95C438.09,603,439.55,606.13,436.61,607.31Z"/><path class="cls-1" d="M1461.07,491.65c-4-12-12.77-19-25.47-20.32-13.35-1.4-25.57,1.08-34,12.68-5.16,7.1-9.1,15.83-12,23.3-4.16,10.78-1.06,24.4-.88,36.83a3.25,3.25,0,0,0,3.78,3.1c1.91-.22,1.78-2,2-3.52.53-3.14-1.46-6.55,1-9.56,3,.78,2.92,3.56,3.87,5.62,5.66,12.33,16.56,18.81,30.7,18.22,15.84-.64,26.76-7.51,31.05-20.74A71.83,71.83,0,0,0,1461.07,491.65ZM1401.4,517c0-10.32,10-20.37,20.39-20.52,11.5-.15,21.86,10,21.57,21.05-.31,11.7-9.53,21-20.71,20.89A21.4,21.4,0,0,1,1401.4,517Zm54.91,10.86c-3.3,20-19.7,24.08-34.17,23.17-3.19-.19-4.65-2.36-6-5.64,15,1.4,26.91-3.23,32.4-17.7,4-10.61,2.59-21.3-5.71-29.6-10.79-10.79-23.46-10.93-37.53-3.4a14.87,14.87,0,0,1,6.44-11.38c15.91-12,39.33-3.76,43.78,15.69A74,74,0,0,1,1456.31,527.83Z"/><path class="cls-1" d="M1395.62,589.34c-.28,4.49-.52,9-.86,13.43-.15,1.77-.35,4-2.5,4.18-2.41.18-3.8-1.63-3.91-4-.32-6.27-.52-12.55-.78-18.82q.36-7.67.69-15.33c.13-2.77.31-6.09,3.85-5.95,3,.13,2.85,3.4,2.94,5.73C1395.31,575.5,1395.43,582.43,1395.62,589.34Z"/><path class="cls-1" d="M1395.1,410.07c0,5.46,0,10.91,0,16.35,0,2.48-.2,5.29-3.5,5.2-2.44-.08-3.34-2.25-3.34-4.6,0-11.8.06-23.61.15-35.43a3.67,3.67,0,0,1,3.12-3.87c2.75-.29,3.52,1.9,3.54,4.18C1395.14,398,1395.09,404,1395.1,410.07Z"/><path class="cls-1" d="M1395,449.82c-.08,11.79-.28,23.57-.53,35.36,0,1.73-.2,3.79-2.74,3.9-3.12.11-3.19-2.33-3.25-4.38-.12-5.73,0-11.47,0-17.22h-.08c0-5.75,0-11.49,0-17.24,0-2.15.48-4.49,3.14-4.72C1394.45,445.26,1395,447.71,1395,449.82Z"/><path class="cls-1" d="M1391.73,722.06c-4-.16-3.61-4.32-3.59-7.24.09-11.81.36-23.61.58-35.41,2.15-.82,4.3-1.21,6.33.34,0,11.81.09,23.63,0,35.45C1395,717.88,1396.4,722.28,1391.73,722.06Z"/><path class="cls-1" d="M623.52,804.63c-.49,2.37-2.93,2-4.48,1.49-11.86-3.59-23-9-34.1-14.45-1.59-.78-3.05-2.24-2.32-4.39.57-1.7,2.08-2,5.06-1.72,10.8,4.33,23.31,8,34.24,15.18A4.67,4.67,0,0,1,623.52,804.63Z"/><path class="cls-1" d="M529,664.34c-2.08,0-3.58-1-3.76-3.1-1.17-12.7-1.48-25.38.28-38a3,3,0,0,1,3.28-2.59c2,.11,2.22,1.81,2.24,3.3.06,6.37,0,12.76,0,19.12h.11c0,5.77,0,11.55,0,17.31C531.11,662,531.89,664.27,529,664.34Z"/><path class="cls-1" d="M531.12,719.52c0,1.12.17,2.69-1.53,2.65a5.22,5.22,0,0,1-3.15-1.22c-1.94-1.74-2.28-4.29-2.17-6.68.45-11.69-1.08-23.5,1.51-35.12,1.5-.33,3-.65,4.51-1C532.38,691.9,530.6,705.75,531.12,719.52Z"/><path class="cls-1" d="M456.18,663.56c-2.31,1.13-4.41-.41-5.27-2.29a187.6,187.6,0,0,1-11.27-31.83c.36-2.72-.3-5.91,2.75-6.4,2.43-.4,3.25,2.39,3.92,4.3q5.43,15.3,10.6,30.67C457.55,659.91,458.81,662.28,456.18,663.56Z"/><path class="cls-1" d="M472.66,718c-8.78-10.36-11.55-23.18-14-35.92-1-5.36,3.34-3,6-2.17,3.63,10.51,7.4,21,10.81,31.56C476.29,714,479.48,718.41,472.66,718Z"/><path class="cls-1" d="M1395.07,642.61c0,5.75,0,11.48,0,17.21,0,2.15,0,4.48-3,4.48-2.68,0-3.65-1.91-3.67-4.23,0-11.77,0-23.53.06-35.3,0-2.17.71-4.45,3.58-4.21s2.73,2.9,2.79,4.85c.16,5.73,0,11.47,0,17.2Z"/><path class="cls-1" d="M1490.31,602.88c-3,10.47-7.53,21.36-12.47,32.09a3.15,3.15,0,0,1-3.67,2c-2.54-.57-2.08-2.87-1.68-4.42a223.66,223.66,0,0,1,11.11-32.67c.82-1.91,1.86-4.65,4.25-4.05C1490.57,596.48,1490.64,599.4,1490.31,602.88Z"/><path class="cls-1" d="M749.32,831.51c1.6-2.17,2.09-3.6,3-3.9,12.22-4.22,25-6.25,37.63-8.44,1.44-.25,3.47.63,3.24,2.32a5.32,5.32,0,0,1-4.25,4.23C776.35,828.35,764.14,833.35,749.32,831.51Z"/><path class="cls-1" d="M910.48,803.35c-4,5.44-8.76,4.42-13,5.24-9,1.75-18,1.66-27.1,2-1.66.07-3.93.28-4.39-2-.17-.89.75-2.82,1.39-2.93C881.33,803.35,895.27,800.09,910.48,803.35Z"/><path class="cls-1" d="M842.67,808.83c3.86-.2,6.32-.16,6.91,2.32s-1.87,3.78-3.79,4.17q-15.88,3.21-31.87,5.92c-1.84.32-4.74.92-5.16-1.91s2.45-4.25,4.58-4.72C823.62,812.37,834,810.51,842.67,808.83Z"/><path class="cls-1" d="M722.7,834.54c-8.29-1.35-16.59-2.66-24.88-4-2.58-.43-5.15-1.66-4.26-4.62.75-2.52,3.66-1.37,5.52-1.14,9.88,1.22,19.67,3.27,29.71,2.81,2.75-.13,6.17-.35,6.08,3.44-.07,3.21-3.42,2.73-5.73,2.89-2.11.15-4.23,0-6.35,0Z"/><path class="cls-1" d="M1220.63,832.09c-2.92-.62-6.84,1.12-7.33-2.51-.47-3.42,3.5-3.76,6-4.29,10-2.16,20.14-4.1,30.25-5.95,1.9-.35,4.78-1.48,5.64.91,1,2.87-1.71,4.25-4,5.14C1241.23,829.33,1230.65,830.35,1220.63,832.09Z"/><path class="cls-1" d="M1136.37,826.21c-11.8-1.16-22.1-5.19-33.1-5.09a4.67,4.67,0,0,1-4.84-4.52c-.13-3.1,2.58-3,4.61-2.72,11.07,1.28,22.14,2.59,32.74,6.33,2.41.85,4.79,2.07,4.23,4.82C1139.56,827.25,1137,826.16,1136.37,826.21Z"/><path class="cls-1" d="M1047.14,805.64c9.84,1.29,19.67,2.55,29.5,3.85,2.64.35,5.94.28,5.07,4.42-.66,3.15-3.22,2.94-5.74,2.52q-15-2.52-30.11-4.94c-2.25-.36-4.55-1.06-4.31-3.57C1041.89,804.33,1044.79,805.26,1047.14,805.64Z"/><rect class="cls-2" width="1" height="1"/><rect class="cls-2" x="1919" y="1079" width="1" height="1"/><rect class="cls-2" y="1079" width="1" height="1"/><rect class="cls-2" x="1919" width="1" height="1"/></g><g id="Capa_3" data-name="Capa 3"><path d="M851.34,679.28v75.8H837.8v-48.3L824.48,717l-11,8.56L802.39,717l-13.32-10.18v48.3H775.54v-75.8l13.53,10.39,24.37,18.74,24.36-18.74Z"/><path d="M888.15,704.51v51.54H874.61V703.1a10.8,10.8,0,0,0-9.2-9.2h-3V680.47h2.92v.11a24.18,24.18,0,0,1,20.14,13.53,28.42,28.42,0,0,1,1.84,5.09,23,23,0,0,1,.65,5.53Z"/><path d="M946.62,679.28a24.44,24.44,0,0,1,24.47,24.47V730.5A24.44,24.44,0,0,1,946.62,755H923.23a24.44,24.44,0,0,1-24.47-24.47V703.75a24.44,24.44,0,0,1,24.47-24.47Zm-23.39,13.53a11.1,11.1,0,0,0-11,11.05v26.75a11.09,11.09,0,0,0,11,11h23.39a11.1,11.1,0,0,0,11-11V703.86a11.11,11.11,0,0,0-11-11.05Z"/><path d="M1055.88,724.33a21.56,21.56,0,0,1,1.84,8.77,22.27,22.27,0,0,1-22.31,22.3H982V741.87h53.38a8.83,8.83,0,0,0,8.77-8.88,8.71,8.71,0,0,0-7.79-8.77H982V679.6h69.41v13.54H995.56v17.54h40.72A22,22,0,0,1,1056,724.22Z"/><path d="M1144.34,702.24a22.3,22.3,0,0,1-6.28,15.59,22.36,22.36,0,0,1-16,37.9h-53.38V742.19H1122a8.89,8.89,0,0,0,.55-17.76h-40.29V710.9h40.29a8.89,8.89,0,0,0-.44-17.76h-53.38V679.6h53.38a22.28,22.28,0,0,1,22.31,22.31Z"/></g></g></svg>