<svg xmlns="http://www.w3.org/2000/svg" viewBox="0 0 1920 1080"><defs><style>.cls-1{fill:#f2f2f2;}.cls-2{fill:#020202;}</style></defs><g id="Capa_2" data-name="Capa 2"><g id="Capa_1-2" data-name="Capa 1"><rect class="cls-1" width="1" height="1"/><rect class="cls-1" x="1919" y="1079" width="1" height="1"/><rect class="cls-1" y="1079" width="1" height="1"/><rect class="cls-1" x="1919" width="1" height="1"/></g><g id="Capa_3" data-name="Capa 3"><path class="cls-2" d="M1720.78,491.27s-.45-17.85-11.24-26.73c-9.13-7.17-19.55-9.2-31-8.93-20.62.48-41.25-.25-61.84.36-8.71.25-11.58-2.73-11.45-11.15.32-20.9.09-41.82,0-62.72-.09-17.26-8.27-30.08-23.52-37.17-29.71-13.83-59.91-26.63-89.85-40-7.95-3.53-14.82-3.26-20.51,4.11-3.66,4.76-7.73,5.71-14,3.82-26.73-7.94-53.68-15.12-80.59-22.44-5.11-1.4-9.42-2.83-10.62-9.08-1.35-6.82-6.28-10.48-13-11.89-17.22-3.63-34.39-7.47-51.61-11-45.59-9.38-91.07-19.07-137.27-25.53-41.59-5.81-83.35-8.74-125.14-11.9-13.27-1-15.28,1.3-17.53,14a9,9,0,0,1-1,7.52c-2.1-1.26-2.69-3.34-3.41-5.35-15.43-2.91-31-1.22-46.52-1.17,0,0-17.09.15-22.53-.1-15-.69-29-.11-43.88.71-1,1.94-2.8,2.66-4.67,3.32q-.18-2.44-.39-4.86c-2.07-12.06-4.74-14.16-18.3-14.17l-77.47,5.68c-15.88,2.09-31.72,4.26-47.6,6.21-38,4.68-75.28,12.7-112.67,20.38-24.52,5-48.91,10.82-73.43,15.88-8.06,1.67-14,4.86-15.59,13.56-.83,4.38-4,6.16-8.06,7.29q-43.08,11.87-86.1,24c-3.82,1.08-5.74-.18-8.34-2.94-9.15-9.78-12.63-10.25-25.17-4.76-27.58,12.08-55.1,24.28-82.69,36.31-18.62,8.13-28.4,21.66-27.92,42.51.45,19.41.13,38.84,0,58.25-.09,11.39-1.1,12.33-12.22,12.36-18.82.07-37.66.18-56.48,0-14.51-.14-28.76.22-40.94,14-4.36,5.83-6.6,24.6-6.6,24.6v63.46c-2.07,22.31,6.33,39.9,24,53.32a47.37,47.37,0,0,1,3.87,3.64c7.77,5.17,16.38,6.19,25.55,6,16.42-.39,32.83.11,49.23-.23,7.45-.14,12.59,2.35,15.73,9.19,8.53,18.67,17.07,37.35,25.86,55.9,1.81,3.82.45,5.06-2.73,6.75-16.38,8.68-16.13,8.68-9,25.78,3.65,8.7,9,16.68,10.88,26.1,10,16.24,16.39,34.27,24.59,51.38,8.63,18,8.33,18.36,26.56,10.32,4.89-2.15,7.73-2.87,9.79,3.48,2.71,8.27,8.94,13.83,16.88,17.46q23.21,10.54,46.29,21.26s12.2,6.64,22.72,8.27c14.94,2.31,42.21,2.15,78.33,2.15,2.92-4.66,2.7-9.9,2.31-15-.34-4.27.16-6.33,5.45-6.26,25.64.31,51.28.15,76.92.15,2.65,0,6.17-.61,7.05,2.44,2.22,7.75,7.23,5.34,12,3.87C683,840.4,694,837,705.05,833.55c6.44-3.84,13.9-4.74,20.81-7.27,3.41-1.23,7.34-2.4,7-6.85-.46-7,3.38-7.39,8.81-7.19,7.57.28,4.51,5.68,4.56,9.09.25,13.53,1,14.3,14.28,12.38,1.47-.21,2.89-.64,4.36-.91,27.2-5,54.4-10.19,81.94-13.08,30.3-4.9,60.87-6.33,91.49-7.07q11.65-.17,23.29-.29h3.59c1.79,0,3.59,0,5.38,0l7.18,0c22.19-.3,44.26,1.78,66.33,3.74l3.64.14,17.83,2.1c30.21,3.25,60,9.09,89.89,14.39,1.16.19,2.29.57,3.48.77,14,2.24,15.84,1,15.35-13.19-.25-7.12,2.28-8.82,8.69-8.14,3.44.36,5,1.65,4.54,5-.72,5.67,2.62,7.9,7.35,9.39,17.58,5.52,35.1,11.26,52.68,16.81,5.29,1.67,11,4.57,13.6-4,.89-3,4-2,6.22-2,25.66-.05,51.31.13,77-.16,5.42-.07,6.58,1.87,6.31,6.71-.28,5-.64,10.19,2.57,14.66,27.63-.52,55.35,2.39,82.89-1.85,20-9.29,39.79-18.93,60-27.75,13-5.71,22.22-14.37,27.68-27.54,4.43-10.71,9.7-21.06,14.58-31.58,17.59-41.75,37.7-82.35,56.75-123.41,14.19-30.63,7.21-25.34,40.57-25.89,10.46-.18,20.95-.56,31.36.14,11.68.77,21.78-2.19,30.68-9.63a55.38,55.38,0,0,1,4.3-4.49c13.67-11.48,19.32-25.47,18.75-43.86ZM1048.53,262.11a18.11,18.11,0,0,1-2.67-.12c-4.17-.83-11.4,2.42-12-1.74-1.09-7.68.72-15.95,2.35-23.77.56-2.68,4.83-1.39,7.36-1.17,29.44,2.4,58.93,4.47,88.32,7.55,71.28,7.45,141,23.74,210.82,38.93,5.73,1.26,10.57,2.61,11.9,9.78,1,5.58,5.6,8.67,11.28,10.23,25.23,6.92,50.4,14.08,75.59,21.17,4.56,1.27,9.2,2.37,13.69,3.91,9.72,3.34,18.28,2.39,24.72-6.42,2.49-3.41,5-3,8.47-1.46,29.08,13.05,58.33,25.75,87.37,38.88,9.8,4.43,14.78,12.69,15.14,23.45.22,6.55,0,13.1,0,21.06-20.45-8.57-40.17-16.65-59.69-25.17-4.72-2.06-6.67-7.53-10.26-11.1-2.25-2.25-4.58-6.57-7.77-4.69-4,2.41,0,6.12,1.72,10.86-7.82-2.91-14.28-5.46-20.85-7.72-14.62-5-29.15-10.35-44-14.73-8.29-2.44-10.08-6.88-6.26-13.76,2.73-4.91,1.7-6.69-3.53-8-10.11-2.53-20-5.88-30.43-6.87-1.65-.14-4-.7-4.69,1.36-.93,2.68,1.49,3.79,3.4,4.33,6.54,1.88,13.2,3.39,19.77,5.2,2.22.63,4.91,1.19,6.31,2.75,1.85,2,1.42,5.31.32,7.67-1.48,3.27-4.18,1-6.18.33-73.38-23.31-148.36-40.08-224.11-53.25-55.92-9.71-112.49-14.26-169.2-16.92-3.24-.16-7.15.77-9.86-5,8.36,0,15.62.05,22.89-.05,1.56,0,4,.62,4.18-2S1050.84,262.2,1048.53,262.11ZM329.13,396.26c.34-5.37.31-10.75.7-16.11.7-9.67,5.2-17.3,14.05-21.35,29.8-13.66,59.78-26.95,89.63-40.48,4.13-1.88,6.35.54,8.26,3.14,6,8.11,13.67,8.29,22.35,5.85q43-12.13,86-24c8.39-2.33,15.93-5.46,17-15.77.47-4.52,4.59-4.16,7.59-4.85,50.27-11.42,100.61-22.49,151.44-31.21,49.19-8.44,98.94-11.79,148.57-16.29,8.77-.81,11.75,2,11.59,10.26-.09,5,2.8,11.16.75,14.76-2.46,4.38-9.29.94-14.14,1.8-2,.34-4.82.05-4.55,3,.44,4.81,4.84,1.76,7.12,3.07,6.33-.54,12.65-1,20,.71-4.2,4.63-8.54,4-12.79,3.68l-.83.34-.82-.25a7.18,7.18,0,0,1-5.46.22c-2.17,2-4.88,1.79-7.57,1.86-76.3,2.05-151.44,13.08-225.91,29.34C591.11,315,540.58,327.69,490.69,342.87c-2.35.71-5.85,4.3-7.07-1-.86-3.82-.7-7.66,4.86-8.7,7-1.31,13.91-3.25,20.82-5,2.65-.7,5.92-2,5.54-5-.49-3.92-4.47-2.24-6.51-1.81-9.6,2-19.11,4.56-28.62,7-4,1-5,3.36-3.44,7.39,2.9,7.75,1,12.11-8,14.82a603.61,603.61,0,0,0-61.32,21.76c-.37-.66-.91-1.16-.9-1.61.22-3.28,5.44-7,1.49-9.29-3.32-2-6,3.1-7.94,5.7-6.57,8.76-15.45,13.49-25.5,17.17-13.13,4.79-26,10.28-38.84,16C330.17,402.52,328.81,401.39,329.13,396.26Zm55.19,406.59c-3.77,1.82-5.31.42-6.71-2.78-5.67-13-11.43-26-17.15-39-8.33-17.78-16.56-35.59-25.07-53.26-1.67-3.45-.41-4.83,2.35-6.19,17.08-8.44,34.13-16.92,51.24-25.26,1.76-.85,3.88-2.44,5.89-1,5.24,3.62,8.14,3.39,7.6-4a2.53,2.53,0,0,1,2.73-2.82c2.62,0,3.27,2,4.2,3.93q11.57,23.65,23.25,47.2c7.27,14.68,14.66,29.28,21.87,44,1.08,2.19,3.66,4.14,1.17,8.61-8.31-9.76-11.18-22.44-20.87-31.27-2.19,7.55,2.44,12.74,5.26,18.08,8.25,15.67,8.43,15.59-7.9,22.54-4.09,1.74-8.28,3.23-12.45,4.82C407.93,791.91,396,797.2,384.32,802.85Zm39.07-129c15.63-5.81,31.4-11.39,46.51-18.37,6.85-3.15,7.19,5.15,11.19,4.33,4.59-.94.25-9,7.72-9.82,15-1.76,33.87,9.42,40.15,25.8,2.46,6.35,4.25,13,4.11,20.06-.33,12.86-4.94,23.13-17.32,28.85-7.84,3.62-15.52,7.59-23.39,11.16-3.28,1.51-7.54,7.07-9.56-1.53-.33-1.41-2.64-1.2-4-.77-1.71.56-1.44,2.21-1.64,3.7-.75,5.6-12.89,15-18.44,14.58-2.69-.19-3.23-2.31-4.12-4.1-11.11-22.43-22.16-44.88-33.36-67.27C419.59,677.27,419.2,675.47,423.39,673.89ZM649.18,822.18c-1.22,2.71-5.4,1-8.2,1-24.77.14-49.55.34-74.31.05-8.29-.09-11.7,3.1-10.39,11.18s-1.29,11-9.94,10.28c-11.55-1-23.23-.43-34.86-.52a56,56,0,0,1-31.11-5.31c-15.78-7.5-31.73-14.7-47.59-22-1.89-.87-3.72-1.92-5.64-2.67-6.71-2.58-11.62-7.89-11.75-14.41s8-5.34,12.35-7.78c10-4.51,19.89-9.31,30.06-13.39,7.38-2.94,10.39-6.51,5-13.74-1.67-2.21-3-5.22.66-6.62,4.32-1.67,8.07-6.46,12.9-4.61,2.62,1,.59,5.4,1,8.24.57,4.16-2,11.66,2.54,11.66,6.21,0,4.15-7.92,3.56-11.77-1.64-10.53,2.72-15.86,12.16-19.25,7.25-2.59,14-6.48,21-9.78,10.23-5.78,19.14-12.78,22.87-24.58,3-23.9-2.08-44.51-23.53-58.54A39.08,39.08,0,0,0,492.14,643c-7.78.43-9.06-2.91-8.3-9.37a49.08,49.08,0,0,0-.29-9.83c-.2-2.24.11-5.27-3.46-5.08-3,.18-2.55,2.91-2.62,4.83a160.44,160.44,0,0,0-.18,16.11c.25,4.32-1.31,6.28-5.38,7.79q-26,9.57-51.69,19.93c-3.43,1.38-5.8,1.81-6.87-2.14-1.62-5.88-5-7.1-10-4s-7.43.73-9.26-4a148.34,148.34,0,0,0-6.33-13.81c-1.15-2.26-3.41-4-5.89-2.66-2.15,1.13-1.49,3.75-.71,5.65a156,156,0,0,0,7.08,16.35c1.92,3.53,1.46,5.27-2,6.94-7.79,3.77-15.56,7.59-23.16,11.68-3.66,2-5.37.63-6.8-2.62Q344.19,651.47,332,624.16c-7.09-14-18.77-18.64-33.94-18-16.38.67-32.84,0-49.25.31-6.5.14-10.93-2.66-16-6.37-15.83-11.7-21.66-26.86-18.37-45.93-.09-20.56-.65-41.14-.09-61.68.43-15.65,7.32-22,23-22.21,22.66-.34,45.34-.06,68-.2,15.88-.11,23-6.89,23.68-22.57.39-10.14.38-20.29.11-30.41-.13-4.72.63-7.88,5.86-9.28,6.12-1.65,11.25-6.31,20-6.78-10.49,13.64-15.07,27.72-15.12,43.24q-.14,30.4-.34,60.82-.17,25.48-.34,50.95c1,10.28,1.49,20.62,7.12,29.89,4.77,7.86,10.71,14.89,19.47,17.31,9.09,2.52,10.67,7.65,9.06,15.51.66,2.42-.2,6.44,3.37,6.33,4-.11,3.89-4.23,3.43-7-1.56-9.15,2.69-10.41,10.83-10.33,42,.41,84.09.19,126.15.16,13.7,0,25.4,4.34,32.31,16.81,14.55,26.23,27.47,53.3,40.31,80.39q20.13,39.67,40.26,79.34c2,3.85,3.71,7.8,5.58,11.71,2.28,3.23,6.69,6.71-1,8.83-1.64.45-2.75,1.52-2,3.21a4.4,4.4,0,0,0,3.51,2.39c2.79.5,6.43-1.46,8.2,1.86C647.57,815.5,650.63,819,649.18,822.18Zm288.67-24.31c-28,1.58-55.89,3.62-83.82,5.47q-43.95,7.36-87.89,14.78c-3,.5-5.38,1.67-5.74-3.41-1.13-16.41-1.37-16.4-18-16.41-2.06,0-4.12-.2-6.71-.33,1.71-5.16,5.69-8.3,9.82-7.57,12.68,2.23,24.34-2.06,35.91-5.18,16.31-4.38,33.18-3.11,49.47-6.68,5.2-1.14,10.51-1.81,15.78-2.69,5.71-2.19,11.74-1.27,17.62-1.81,14.19-1.29,28.4-1.92,42.61-3.7,15.72-2,32.05-.05,48.1-.8,2.23-.11,3.3,1,3.43,3.1.05.9,0,1.8.05,2.67C959.42,796.93,959.4,796.66,937.85,797.87Zm232.89.25c-7,0-10.94,1.85-10.48,10.17.63,11.32.15,11.09-10.92,9.08-23.7-4.31-47.46-8.29-71.17-12.42-36.48-4-73.08-6.24-109.71-7.73-5-.21-6.05-2.1-5.92-6.39.77-26.91-4.7-20.22,20.31-21,27.63-.93,54.84,4.88,82.42,4.81,2.6,0,5.4-.33,7.77,1.36,28.31,5.22,57.42,5.38,85.22,13.85,4.28,1.31,8.84,2.19,13.22,1.2,5.85-1.29,9.65.85,13.2,6.3C1179.84,799.16,1175.17,798.1,1170.74,798.12Zm95.11,6.08c-4.76-.34-9.53-.83-14.3-.86-2.19,0-5.92-2.44-6.25,2-.23,3,2.79,4.68,5.49,4.88,5,.36,10.11.11,16.06.11-2.49,9.54-8.16,16.65-11.5,24.77-1.43,3.52-4.27,2.09-6.87,1.24-16.15-5.2-32.26-10.44-48.48-15.39-4.79-1.47-5.32-4.54-5.41-8.79-.27-14.53-.38-14.52,13.47-11.09,5.2,1.29,10.41,2.55,15.63,3.71,2.35.52,5.24,1,6.11-1.88,1.12-3.68-2.06-4.27-4.7-4.92-5.77-1.41-11.5-3.28-17.35-4.18-18.22-2.79-33.83-13.72-52.63-15.5-28.75-2.69-57.31-7.39-86-11.25-28.1-2.79-56.19-6.08-84.5-5.7-4.52.07-5.44-1.74-5.33-5.78.29-10.1.14-20.24.25-30.35,0-3.52.06-6.84-5-5.87-3.79,10.76-.79,21.92-2,32.83-.39,3.45,2.7,9-5,8.63-7.25-.32-4.82-5.58-5-9.13-.36-9.24-.21-18.52-.29-27.77,0-2.62.78-5.42-2.44-8.65-2.11,10.39-.84,20.11-1.34,29.69a67.47,67.47,0,0,0,0,9.85c.45,4.84-1.74,5.94-6.22,6.05-4.65.12-5.42-1.83-5.33-5.8.19-9.26.12-18.51,0-27.77,0-2.89.49-7-3.53-7s-3.14,4.25-3.18,7c-.16,9.54-.12,19.11-.1,28.67,0,2.83.14,5.36-4,5.29-29.92-.61-59.53,3.72-89.25,6.24-32.42,4.74-64.82,9.57-97.26,14.14-12.22,1.72-21.62,11-34.29,11.83-6.71.44-13.27,3.1-19.86,4.95-2.22.61-5.11,1.4-4.39,4.55s3.69,2.5,5.94,2c8.1-1.79,16.3-3.35,24.2-5.85,5.27-1.68,5.31.44,5.29,4.47-.09,15,0,15-14.33,19.63-13.32,4.31-26.7,8.47-39.85,13.19-4.11,1.49-5.85.61-7.52-3a169.06,169.06,0,0,0-8.47-16.72c-3.14-5.27-.77-5.95,3.9-6,4.37,0,8.93,1,13.06-1.69,1.74-1.13,2.53-2.42,2-4.39-.64-2.53-2.29-1.63-4.14-1.49-20.74,1.65-20.85,1.67-29.86-16.4C629,761.86,616.85,737,604.63,712.25l-45.21-89.63c-10.1-15.59-24.61-22.39-43-21.84-8.62.27-17.26-.23-25.88.24-5.41.3-7.06-1.06-6.83-6.78.45-10.93,1.36-22-.9-32.84l-1.83-.53c-4.86.14-3.51,3.82-3.57,6.51-.14,9-.41,17.92-.07,26.87.2,4.83-.74,6.82-6.17,6.77-27.49-.27-55-.31-82.46,0-5.81.05-7.46-2-6.65-7.22a5.84,5.84,0,0,0,0-1.77c-.48-3.3,1.35-9-3-9-4.89,0-3.8,5.8-3.58,9.28.41,7.14-2.18,7.84-7.54,4.27-11.73-7.82-20.29-17.62-20.38-32.65-.05-8.63.11-17.28.18-25.91a229.78,229.78,0,0,1,.09-39.26c-.15-19.69-1.1-39.41-.22-59.06.94-21.13,12.06-37,29.75-48.26,2.82-1.77,6.31-4.79,7.14,2.3.45,3.93,3.84,2.58,4.65.16,3.6-10.85,13.43-12.79,22.26-16,19.29-7,38.72-13.64,58-20.58,5.56-2,8.84-2.21,8,5.47-.36,3.36-2.42,9.62,2.37,9.87,5.27.25,4.57-6.37,4-9.87-1.47-8.56,2.64-11,10-13.29a1835.46,1835.46,0,0,1,217.92-51.78c56.54-9.94,113.59-14.66,170.82-17.8,6-.32,11.77-1.15,17.12-4.39,8.82-5.4,9.54-13.69,8.57-22.65-.84-7.69,1.15-11.1,10.14-10.24,11.23,1.09,22.68.21,34,.09,10-.11,4.94,7.46,5.8,11.7s.66,8.3-6.08,7.71c-7.12-.63-14.34-.12-21.5-.09-2.42,0-5.52.06-5.84,2.82-.44,3.53,3.37,3.37,5.23,3.05,9.64-1.71,10.84,3.34,10.14,11.16-.56,6.22-.05,12.54,0,18.8,0,2.24.83,4.5,3.16,4.66,2.78.22,3.12-2.63,3.21-4.48.34-7.77.56-15.54.36-23.29-.11-4.25.54-6.6,5.58-6.83s5.76,2.08,5.92,6.31c.18,4.79-1.15,9.87,3.07,14.44.25-5.07.7-10.15.68-15.23,0-4.3,1.86-5.77,6-5.7,4.43.09,4.45,2.81,4.41,6-.05,7.46,0,14.94.15,22.4.07,3.05.75,6.79,4.36,6.7,3.89-.11,2.29-4.1,2.37-6.39.23-7.47.35-14.95,0-22.41-.24-5.27,1.75-7.07,6.8-6.19a25.81,25.81,0,0,0,5.34.32c1.78-.07,3.93-.25,4.25-2.42.4-2.73-1.7-3.6-4-3.66-7.45-.16-14.91-.55-22.32-.14-5.15.28-8.7-.58-7.34-6.48,1.08-4.66-4.52-13,6.69-12.74,11.65.27,23.33.33,35-.25,6.26-.3,8.15,1.46,8.31,7.84.18,6.75-2.64,13.85,3.25,20.35,6.53,7.19,14.42,8.9,23.27,9.29,38.18,1.69,76.26,4.93,114.21,9.33,47.08,5.45,93.54,14.68,139.78,25.06,45,10.1,89.7,21.32,133.76,35,6.7,2.1,10,4.29,9.21,11.93-.43,4.11-1.72,11.67,4.38,11.63,4.64,0,2.13-7,2.1-10.71,0-6,.84-7.89,7.35-5.47,22,8.2,44.23,15.89,66.42,23.63,6.13,2.13,11.3,4.84,13.81,11.48,1,2.78,4.27,8,6.62,1.47,2-5.58,3.93-3.82,6.77-2,18.28,12,29.76,28.21,30.16,50.79.17,10.45-.22,20.89-.36,31.35q0,38.57,0,77.11c2.19,18.87-1.87,35.09-19.49,45.42-2.47,1.44-5.22,4.27-8.07,2.59s-1.36-5.4-1.51-8.25c-.09-1.78.22-3.58.26-5.37s-1-3-2.61-2.87a3.5,3.5,0,0,0-2.63,1.88c-.74,2.25-1.64,4.76-1.26,7,1.54,9.42-3.19,10.19-11.07,10-25.67-.5-51.38-.32-77.07,0-5.94.09-7.65-1.6-7.29-7.43.58-9.52.36-19.09.49-28.63-.18-1.19-.38-2.35-.56-3.54a8.38,8.38,0,0,0-6.71.67c.09,11-.12,22.07.4,33.08.25,5.2-1.87,5.87-6.21,5.72-8.36-.26-16.72,0-25.06-.1-22-.4-37.07,9.11-46.83,29.15-22.18,45.5-45.19,90.58-67.93,135.8-2,4-4.34,7.76-6.53,11.64-3.44,7.55-7,15.07-10.28,22.69C1271.52,803.39,1269.17,804.45,1265.85,804.2Zm401.41-197.89c-15.54,0-31.09.38-46.61-.09-16.42-.48-26.38,6.84-33.14,21.82-22.46,49.68-45.77,99-68.75,148.4-.12.58-.25,1.15-.41,1.71-6.6,22.41-20,38.21-43.22,44.44a19.1,19.1,0,0,0-3.21,1.58c-46.31,21.89-50.4,22.62-101.53,20.47-5-.2-5.71-1.94-5.67-6.33.11-15-.07-15.11-15.41-15.16-26.19-.08-52.39,0-79.46,0,2.89-6.53,3.59-13.78,12.86-12.62a3.89,3.89,0,0,0,4.29-2.58c.93-2.69-1.42-2.74-3-3.07-4.79-.91-3.71-3.64-2.15-6.58q6.48-12.16,13-24.36,24.76-50.05,49.54-100.1c7.69-15.46,15.53-30.86,23.35-46.27,6.39-12.63,17-19.23,30.88-19.34,44.51-.32,89-.11,133.52-.34,4.66,0,5.77,1.69,5.27,5.72a20.5,20.5,0,0,0,0,3.59c.18,3.3.38,7.79,4.22,7.74s2.8-4.7,2.53-7.32c-.76-7.07,1.36-10.57,8.61-13.73,17.4-7.55,27.63-21.22,28.07-41,.1-4.17.29-8.33.45-12.49a329.85,329.85,0,0,1,0-40.51c-.25-18.19-1.1-36.39-.56-54.54.56-19.27-1.7-37.46-15-54.51,9.39,1.56,15.81,5.91,22.91,8.26,3.38,1.13,2.43,4.43,2.46,7,.13,8.65.41,17.32,0,25.95-.36,8,1.2,15.36,5.63,22.06,5.87,4.58,12.47,6.23,19.95,6.14,21.75-.29,43.51-.18,65.27-.11,17.6.07,24,6.17,24.08,23.45.1,23.83-.15,47.64-.25,71.44C1706.93,587.53,1689.5,606.26,1667.26,606.31Z"/><path class="cls-1" d="M1572.89,550.66q0-38.56,0-77.11c.14-10.46.53-20.9.36-31.35-.4-22.58-11.88-38.77-30.16-50.79-2.84-1.86-4.78-3.62-6.77,2-2.35,6.57-5.58,1.31-6.62-1.47-2.51-6.64-7.68-9.35-13.81-11.48-22.19-7.74-44.41-15.43-66.42-23.63-6.51-2.42-7.39-.52-7.35,5.47,0,3.7,2.54,10.67-2.1,10.71-6.1,0-4.81-7.52-4.38-11.63.82-7.64-2.51-9.83-9.21-11.93-44.06-13.7-88.77-24.92-133.76-35-46.24-10.38-92.7-19.61-139.78-25.06-38-4.4-76-7.64-114.21-9.33-8.85-.39-16.74-2.1-23.27-9.29-5.89-6.5-3.07-13.6-3.25-20.35-.16-6.38-2-8.14-8.31-7.84-11.62.58-23.3.52-35,.25-11.21-.27-5.61,8.08-6.69,12.74-1.36,5.9,2.19,6.76,7.34,6.48,7.41-.41,14.87,0,22.32.14,2.26.06,4.36.93,4,3.66-.32,2.17-2.47,2.35-4.25,2.42a25.81,25.81,0,0,1-5.34-.32c-5-.88-7,.92-6.8,6.19.35,7.46.23,14.94,0,22.41-.08,2.29,1.52,6.28-2.37,6.39-3.61.09-4.29-3.65-4.36-6.7-.16-7.46-.2-14.94-.15-22.4,0-3.22,0-5.94-4.41-6-4.13-.07-6,1.4-6,5.7,0,5.08-.43,10.16-.68,15.23-4.22-4.57-2.89-9.65-3.07-14.44-.16-4.23-.81-6.56-5.92-6.31s-5.69,2.58-5.58,6.83c.2,7.75,0,15.52-.36,23.29-.09,1.85-.43,4.7-3.21,4.48-2.33-.16-3.14-2.42-3.16-4.66-.05-6.26-.56-12.58,0-18.8.7-7.82-.5-12.87-10.14-11.16-1.86.32-5.67.48-5.23-3.05.32-2.76,3.42-2.8,5.84-2.82,7.16,0,14.38-.54,21.5.09,6.74.59,6.92-3.55,6.08-7.71s4.16-11.81-5.8-11.7c-11.33.12-22.78,1-34-.09-9-.86-11,2.55-10.14,10.24,1,9,.25,17.25-8.57,22.65-5.35,3.24-11.15,4.07-17.12,4.39-57.23,3.14-114.28,7.86-170.82,17.8a1835.46,1835.46,0,0,0-217.92,51.78c-7.38,2.24-11.49,4.73-10,13.29.61,3.5,1.31,10.12-4,9.87-4.79-.25-2.73-6.51-2.37-9.87.84-7.68-2.44-7.48-8-5.47-19.32,6.94-38.75,13.56-58,20.58-8.83,3.21-18.66,5.15-22.26,16-.81,2.42-4.2,3.77-4.65-.16-.83-7.09-4.32-4.07-7.14-2.3-17.69,11.27-28.81,27.13-29.75,48.26-.88,19.65.07,39.37.22,59.06a229.78,229.78,0,0,0-.09,39.26c-.07,8.63-.23,17.28-.18,25.91.09,15,8.65,24.83,20.38,32.65,5.36,3.57,7.95,2.87,7.54-4.27-.22-3.48-1.31-9.31,3.58-9.28,4.33.06,2.5,5.73,3,9a5.84,5.84,0,0,1,0,1.77c-.81,5.22.84,7.27,6.65,7.22,27.49-.33,55-.29,82.46,0,5.43.05,6.37-1.94,6.17-6.77-.34-9-.07-17.92.07-26.87.06-2.69-1.29-6.37,3.57-6.51l1.83.53c2.26,10.89,1.35,21.91.9,32.84-.23,5.72,1.42,7.08,6.83,6.78,8.62-.47,17.26,0,25.88-.24,18.37-.55,32.88,6.25,43,21.84l45.21,89.63C616.85,737,629,761.86,641.3,786.58c9,18.07,9.12,18,29.86,16.4,1.85-.14,3.5-1,4.14,1.49.49,2-.3,3.26-2,4.39-4.13,2.66-8.69,1.65-13.06,1.69-4.67,0-7,.72-3.9,6a169.06,169.06,0,0,1,8.47,16.72c1.67,3.65,3.41,4.53,7.52,3,13.15-4.72,26.53-8.88,39.85-13.19,14.33-4.65,14.24-4.63,14.33-19.63,0-4,0-6.15-5.29-4.47-7.9,2.5-16.1,4.06-24.2,5.85-2.25.49-5.21,1.24-5.94-2s2.17-3.94,4.39-4.55c6.59-1.85,13.15-4.51,19.86-4.95,12.67-.81,22.07-10.11,34.29-11.83,32.44-4.57,64.84-9.4,97.26-14.14,29.72-2.52,59.33-6.85,89.25-6.24,4.13.07,4-2.46,4-5.29,0-9.56-.06-19.13.1-28.67,0-2.71-1-7,3.18-7s3.51,4.16,3.53,7c.09,9.26.16,18.51,0,27.77-.09,4,.68,5.92,5.33,5.8,4.48-.11,6.67-1.21,6.22-6.05a67.47,67.47,0,0,1,0-9.85c.5-9.58-.77-19.3,1.34-29.69,3.22,3.23,2.43,6,2.44,8.65.08,9.25-.07,18.53.29,27.77.15,3.55-2.28,8.81,5,9.13,7.72.32,4.63-5.18,5-8.63,1.26-10.91-1.74-22.07,2-32.83,5.1-1,5.08,2.35,5,5.87-.11,10.11,0,20.25-.25,30.35-.11,4,.81,5.85,5.33,5.78,28.31-.38,56.4,2.91,84.5,5.7,28.65,3.86,57.21,8.56,86,11.25,18.8,1.78,34.41,12.71,52.63,15.5,5.85.9,11.58,2.77,17.35,4.18,2.64.65,5.82,1.24,4.7,4.92-.87,2.92-3.76,2.4-6.11,1.88-5.22-1.16-10.43-2.42-15.63-3.71-13.85-3.43-13.74-3.44-13.47,11.09.09,4.25.62,7.32,5.41,8.79,16.22,4.95,32.33,10.19,48.48,15.39,2.6.85,5.44,2.28,6.87-1.24,3.34-8.12,9-15.23,11.5-24.77-5.95,0-11,.25-16.06-.11-2.7-.2-5.72-1.83-5.49-4.88.33-4.43,4.06-2,6.25-2,4.77,0,9.54.52,14.3.86,3.32.25,5.67-.81,7.08-4.06,3.32-7.62,6.84-15.14,10.28-22.69,2.19-3.88,4.54-7.66,6.53-11.64,22.74-45.22,45.75-90.3,67.93-135.8,9.76-20,24.88-29.55,46.83-29.15,8.34.14,16.7-.16,25.06.1,4.34.15,6.46-.52,6.21-5.72-.52-11-.31-22-.4-33.08a8.38,8.38,0,0,1,6.71-.67c.18,1.19.38,2.35.56,3.54-.13,9.54.09,19.11-.49,28.63-.36,5.83,1.35,7.52,7.29,7.43,25.69-.36,51.4-.54,77.07,0,7.88.15,12.61-.62,11.07-10-.38-2.19.52-4.7,1.26-7a3.5,3.5,0,0,1,2.63-1.88c1.64-.09,2.62,1.15,2.61,2.87s-.35,3.59-.26,5.37c.15,2.85-1.36,6.56,1.51,8.25s5.6-1.15,8.07-2.59C1571,585.75,1575.08,569.53,1572.89,550.66ZM382.18,562.43c-.1,2.42-.48,5.24-3.75,4.86-2.29-.25-3.12-2.42-3.15-4.74-.08-5.34-.22-10.71-.34-16,.23-5.58.41-11.18.71-16.76.11-1.72.27-3.84,2.48-4.13,2.82-.37,3.46,2.12,3.68,4,.52,5,.62,10,.89,15C382.54,550.53,382.45,556.49,382.18,562.43ZM382,470.16c0,11.8.11,23.63-.07,35.43,0,2,.43,5.45-3.07,5.22-2.7-.2-3.48-2.82-3.49-5.35q-.17-14.18-.31-28.32C376.82,474.25,372.1,464.92,382,470.16Zm1.78-54.22c-1.85,10.66-1,21.44-1.83,32.13-.14,1.71-.65,3.82-2.87,3.95-2.73.14-3.5-2.06-3.57-4.2-.16-4.48-.05-8.95-.05-13.44l-.56-.05c.65-6.21,1.26-12.43,2-18.64.25-2.07.63-4.52,3.46-4.22A3.72,3.72,0,0,1,383.78,415.94Zm93.62-7.48c0-5.33,0-10.66,0-16,0-1.86,0-3.6,2.63-3.57,2.08,0,3.54,1,3.59,3.05.29,11.54,1.08,23.09-.12,34.61-.2,1.87-1.15,3.53-3.32,3.45s-2.77-1.92-2.77-3.77C477.36,420.32,477.4,414.4,477.4,408.46Zm6,133.14c-.2,1.74-.41,3.75-2.92,3.64-2.89-.13-3.09-2.33-3.11-4.47,0-5.65,0-11.3,0-16.95h.12V507.74c0-2.15.06-4.45,2.93-4.54,2.2-.07,3,1.71,3.12,3.61C484,518.4,484.63,530,483.35,541.6Zm.49-60.19c-1.19,2.31,1,6.72-3.32,6.85-5.12.16-2.23-5-3.88-7.25,0-.79-.05-1.58-.07-2.35,0-3.43,0-6.83.07-10.26q.44-8.91.9-17.82c.09-1.81.21-4,2.35-4.28,2.8-.4,3.44,2,3.53,4.09.45,9.52.74,19.05,1.08,28.58A12.55,12.55,0,0,1,483.84,481.41ZM940.25,323.63c.06-2,.26-4.39,3.13-4.41,2.33,0,2.92,2,3,3.73.21,11.23.34,22.48.28,33.73,0,1.6-.48,3.75-2.78,3.91-2.81.22-3.53-2-3.59-4.09-.14-5.92,0-11.84,0-17.76C940.22,333.7,940.13,328.66,940.25,323.63Zm6.48,376.3c0,2-.18,4.52-3,4.59-3.22.11-3.66-2.35-3.66-4.9v-16h0c0-5,0-10.07,0-15.11.05-2.38.14-5.09,3.5-5.06,2.78,0,3.14,2.41,3.15,4.49C946.86,678.59,946.86,689.25,946.73,699.93Zm13.8-398.44a25.29,25.29,0,0,1-.13,15.95C957.94,312,957.77,306.66,960.53,301.49ZM960.85,705c-3.46-5.52-2.4-11-.68-16.54C962.77,694,961.93,699.5,960.85,705Zm13.38-.39c-3.6-13-1.05-26.21-1.13-39.33,1.15-1.22,1.66-3.41,3.86-3.14s2.46,2.3,2.46,4c.05,11.52,0,23.06.05,34.57C979.47,704.52,977.34,705.17,974.23,704.61Zm2.44-344.22a3.51,3.51,0,0,1-3.55-3.4c-.11-11.61,0-23.22.25-34.83.06-1.86,1.42-4.36,4-3.87,2,.39,2.12,2.6,2.12,4.45q0,8.5,0,17c0,5.37,0,10.75,0,16.12C979.46,357.86,979.8,360.38,976.67,360.39Zm462.68,28.39c3,0,3,2.24,3,4.37V410h0c0,5,.14,10.06-.09,15.09-.09,2,1.25,5.29-2.66,5.27-3.21,0-3.57-2.94-3.71-5.17-.36-5-.25-10-.29-15.07,0-5.61.09-11.25-.14-16.86C1435.28,390.28,1436.47,388.78,1439.35,388.78Zm.52,157a3.49,3.49,0,0,1-3.53-3.37c-1.38-12.47-.7-24.92.23-37.37.13-1.63,1.53-2.51,3.2-2.48,2.65,0,2.47,2.12,2.49,3.81.09,6.26,0,12.5,0,18.74h0c0,5.37.11,10.73,0,16.08C1442.22,542.91,1443.36,545.81,1439.87,545.74Zm2.41-62.43c-.18,1.94,1.49,5.36-2.67,5.2-3.22-.13-3.5-2.8-3.68-5.2-.33-4.43-.52-8.88-.77-13.31.28-6.48.61-13,.88-19.45.08-2.57.64-5,3.74-4.88,2.86.16,2.5,2.78,2.55,4.79.18,6.49.31,13,.45,19.48C1442.64,474.39,1442.67,478.88,1442.28,483.31Zm96.11-69.63c.21-1.42.68-3,2.62-3,2.4,0,2.92,1.81,3,3.59.11,5.94,0,11.87,0,17.79h.18c0,5.35.07,10.68,0,16,0,2,.2,4.48-2.82,4.5a3.5,3.5,0,0,1-3.39-3.54C1537.17,437.29,1536.54,425.47,1538.39,413.68Zm2.44,54.63c2.74-.72,3.41,1.29,3.73,3.44-.07,11.31-.09,22.61-.29,33.91,0,2,1.46,5.35-2.42,5.53-3.57.18-4.36-2.77-4.43-5.51-.23-10.12-.25-20.24-.36-30.34C1538,472.78,1537.22,469.24,1540.83,468.31Zm3.32,94.58c-.09,2.1.93,5.31-2.68,5.37-2.85,0-3.66-2.73-4-5-.45-3.17-.41-6.42-.58-9.63.2-7,.24-14.12.67-21.15.16-2.73-.18-6.88,3.61-7,4.87-.2,2.52,4.25,2.87,6.71.5,3.46.43,7,.59,10.53C1544.51,549.44,1544.43,556.17,1544.15,562.89Z"/><path class="cls-2" d="M484.5,479a12.55,12.55,0,0,1-.66,2.44c-1.19,2.31,1,6.72-3.32,6.85-5.12.16-2.23-5-3.88-7.25,0-.79-.05-1.58-.07-2.35,0-3.43,0-6.83.07-10.26q.44-8.91.9-17.82c.09-1.81.21-4,2.35-4.28,2.8-.4,3.44,2,3.53,4.09C483.87,459.91,484.16,469.44,484.5,479Z"/><path class="cls-2" d="M1439.61,488.51c-3.22-.13-3.5-2.8-3.68-5.2-.33-4.43-.52-8.88-.77-13.31.28-6.48.61-13,.88-19.45.08-2.57.64-5,3.74-4.88,2.86.16,2.5,2.78,2.55,4.79.18,6.49.31,13,.45,19.48-.14,4.45-.11,8.94-.5,13.37C1442.1,485.25,1443.77,488.67,1439.61,488.51Z"/><path class="cls-2" d="M483.5,426.56c-.2,1.87-1.15,3.53-3.32,3.45s-2.77-1.92-2.77-3.77c-.05-5.92,0-11.84,0-17.78,0-5.33,0-10.66,0-16,0-1.86,0-3.6,2.63-3.57,2.08,0,3.54,1,3.59,3.05C483.91,403.49,484.7,415,483.5,426.56Z"/><path class="cls-2" d="M979.47,700.73c0,3.79-2.13,4.44-5.24,3.88-3.6-13-1.05-26.21-1.13-39.33,1.15-1.22,1.66-3.41,3.86-3.14s2.46,2.3,2.46,4C979.47,677.68,979.44,689.22,979.47,700.73Z"/><path class="cls-2" d="M1544.27,505.66c0,2,1.46,5.35-2.42,5.53-3.57.18-4.36-2.77-4.43-5.51-.23-10.12-.25-20.24-.36-30.34.9-2.56.16-6.1,3.77-7,2.74-.72,3.41,1.29,3.73,3.44C1544.49,483.06,1544.47,494.36,1544.27,505.66Z"/><path class="cls-2" d="M381.93,505.59c0,2,.43,5.45-3.07,5.22-2.7-.2-3.48-2.82-3.49-5.35q-.17-14.18-.31-28.32c1.76-2.89-3-12.22,6.94-7C382,482,382.11,493.79,381.93,505.59Z"/><path class="cls-2" d="M1439.55,430.4c-3.21,0-3.57-2.94-3.71-5.17-.36-5-.25-10-.29-15.07,0-5.61.09-11.25-.14-16.86-.13-3,1.06-4.52,3.94-4.52s3,2.24,3,4.37V410h0c0,5,.14,10.06-.09,15.09C1442.12,427.1,1443.46,430.42,1439.55,430.4Z"/><path class="cls-2" d="M979.47,355.86c0,2,.33,4.52-2.8,4.53a3.51,3.51,0,0,1-3.55-3.4c-.11-11.61,0-23.22.25-34.83.06-1.86,1.42-4.36,4-3.87,2,.39,2.12,2.6,2.12,4.45q0,8.5,0,17C979.51,345.11,979.55,350.49,979.47,355.86Z"/><path class="cls-2" d="M383.78,415.94c-1.85,10.66-1,21.44-1.83,32.13-.14,1.71-.65,3.82-2.87,3.95-2.73.14-3.5-2.06-3.57-4.2-.16-4.48-.05-8.95-.05-13.44l-.56-.05c.65-6.21,1.26-12.43,2-18.64.25-2.07.63-4.52,3.46-4.22A3.72,3.72,0,0,1,383.78,415.94Z"/><path class="cls-2" d="M1544.15,448.13c0,2,.2,4.48-2.82,4.5a3.5,3.5,0,0,1-3.39-3.54c-.77-11.8-1.4-23.62.45-35.41.21-1.42.68-3,2.62-3,2.4,0,2.92,1.81,3,3.59.11,5.94,0,11.87,0,17.79h.18C1544.18,437.45,1544.25,442.78,1544.15,448.13Z"/><path class="cls-2" d="M946.62,356.68c0,1.6-.48,3.75-2.78,3.91-2.81.22-3.53-2-3.59-4.09-.14-5.92,0-11.84,0-17.76,0-5-.09-10.08,0-15.11.06-2,.26-4.39,3.13-4.41,2.33,0,2.92,2,3,3.73C946.55,334.18,946.68,345.43,946.62,356.68Z"/><path class="cls-2" d="M960.4,317.44c-2.46-5.43-2.63-10.78.13-15.95A25.29,25.29,0,0,1,960.4,317.44Z"/><path class="cls-2" d="M483.35,541.6c-.2,1.74-.41,3.75-2.92,3.64-2.89-.13-3.09-2.33-3.11-4.47,0-5.65,0-11.3,0-16.95h.12V507.74c0-2.15.06-4.45,2.93-4.54,2.2-.07,3,1.71,3.12,3.61C484,518.4,484.63,530,483.35,541.6Z"/><path class="cls-2" d="M382.7,544.59c-.16,5.94-.25,11.9-.52,17.84-.1,2.42-.48,5.24-3.75,4.86-2.29-.25-3.12-2.42-3.15-4.74-.08-5.34-.22-10.71-.34-16,.23-5.58.41-11.18.71-16.76.11-1.72.27-3.84,2.48-4.13,2.82-.37,3.46,2.12,3.68,4C382.33,534.6,382.43,539.61,382.7,544.59Z"/><path class="cls-2" d="M1439.87,545.74a3.49,3.49,0,0,1-3.53-3.37c-1.38-12.47-.7-24.92.23-37.37.13-1.63,1.53-2.51,3.2-2.48,2.65,0,2.47,2.12,2.49,3.81.09,6.26,0,12.5,0,18.74h0c0,5.37.11,10.73,0,16.08C1442.22,542.91,1443.36,545.81,1439.87,545.74Z"/><path class="cls-2" d="M1541.47,568.26c-2.85,0-3.66-2.73-4-5-.45-3.17-.41-6.42-.58-9.63.2-7,.24-14.12.67-21.15.16-2.73-.18-6.88,3.61-7,4.87-.2,2.52,4.25,2.87,6.71.5,3.46.43,7,.59,10.53-.16,6.75-.24,13.48-.52,20.2C1544.06,565,1545.08,568.2,1541.47,568.26Z"/><path class="cls-2" d="M1434.51,722.77c-15.63,0-27.28-12.5-27.3-29.19,0-14,12.78-26.31,27.39-26.36,15.56-.06,28.2,12.13,28.37,27.36C1463.14,710.32,1450.54,722.81,1434.51,722.77Zm-19.83-29.13c.2,11,7.62,20.42,16.32,21.88,3.51.59,5.29.49,4.93-4.35-.67-9.15-.25-18.38-.19-27.58,0-3.15,2.73-7.63,0-9.1-3.11-1.65-7.52.28-10.79,2.6C1418.84,681.39,1414.37,686.68,1414.68,693.64Zm27.57-18c0,2.86,0,4.57,0,6.27,0,8.94-.14,17.87-.11,26.8,0,1.62-.79,3.8,1.51,4.57,2,.66,3.3-.88,4.65-2C1460,701.47,1457.75,684.56,1442.25,675.59Z"/><path class="cls-2" d="M1493.93,728.21c-3-.35-3-2.49-1.88-5,4.47-10.31,9.32-20.43,15.52-29.84,1.09-1.66,2.57-3.72,5-2.8,2.61,1,2,3.63,1.35,5.36-3.79,11-9.84,20.8-15.57,30.79C1497.5,728.17,1496,728.32,1493.93,728.21Z"/><path class="cls-2" d="M1473.25,774.41c-2.88,1.28-3.89,10.37-9,2.17,3.33-10.94,9.71-20.27,15.84-29.71,1.3-2,2.58-5.83,5.83-4,2.91,1.59,1.26,4.77.06,7.12C1481.77,758.12,1477.48,766.26,1473.25,774.41Z"/><path class="cls-2" d="M1522.24,678.13c-3.5-.2-4.57-2.34-3.35-4.88,5-10.4,10.24-20.68,15.53-30.94a3.46,3.46,0,0,1,4.56-1.73,2.87,2.87,0,0,1,1.41,3.8c-4,11.5-10.05,22-16,32.6C1524,677.62,1522.86,677.81,1522.24,678.13Z"/><path class="cls-2" d="M1442.24,639.94c0,5.67,0,11.34,0,17,0,1.44.24,3.13-1.89,3.35-2,.2-3.64-.32-3.94-2.57-1.66-12.49-1-25,.17-37.47a2.8,2.8,0,0,1,3.26-2.42c1.61.2,2.38,1.65,2.38,3.29C1442.24,627.4,1442.23,633.67,1442.24,639.94Z"/><path class="cls-2" d="M1442.08,774.45a5,5,0,0,1-5.65-1.87c-1.9-11.46-.18-23-1-34.53-.19-2.67.38-4.68,3.64-4.82,3.8-.16,3.26,2.54,3.25,4.83Q1442.24,756.26,1442.08,774.45Z"/><path class="cls-2" d="M946.73,699.93c0,2-.18,4.52-3,4.59-3.22.11-3.66-2.35-3.66-4.9v-16h0c0-5,0-10.07,0-15.11.05-2.38.14-5.09,3.5-5.06,2.78,0,3.14,2.41,3.15,4.49C946.86,678.59,946.86,689.25,946.73,699.93Z"/><path class="cls-2" d="M960.85,705c-3.46-5.52-2.4-11-.68-16.54C962.77,694,961.93,699.5,960.85,705Z"/><path class="cls-2" d="M1465,336c10.77,1.79,20.73,4.67,30,9.51,2.73,1.43,5.8,3.41,4.22,6.76-1.4,3-4.94,1.76-7.13.56-8.7-4.76-18.19-7.24-27.55-10.12-2.33-.71-4.82-1.74-4.26-4.76S1463.51,336.09,1465,336Z"/><path class="cls-2" d="M1356.3,305c9.58,2.64,20.46,5.56,31.29,8.65,2,.58,4,2.05,3,4.57s-3.38,2.11-5.45,1.6c-10.38-2.56-20.77-5.12-31.11-7.85-2.2-.58-5-1.53-4.35-4.61C1350.24,304.91,1352.82,305.07,1356.3,305Z"/><path class="cls-2" d="M1190.75,262.05c9.77,1.58,19.45,3.1,29.1,4.76,2.33.39,5.24,1,4.85,4.12-.49,3.95-3.64,2.85-6.27,2.46-9.4-1.41-18.8-2.74-28.2-4.16-2.86-.43-6.94-.48-6.64-4.26C1183.91,260.89,1188.1,262.37,1190.75,262.05Z"/><path class="cls-2" d="M1274.4,289.1c-10.16-3.05-21-6.22-31.68-9.6-1.47-.46-3.58-1.44-2.75-3.81.61-1.74,2.44-1.69,3.76-1.39,11.27,2.56,22.54,5.18,33.74,8,2,.49,3.84,2.11,3,4.69C1279.56,289.76,1277,288.58,1274.4,289.1Z"/><path class="cls-2" d="M1331.43,304.57c-11.41-3.18-21.71-5.92-31.92-9-2.38-.71-5.85-1.92-4.49-5.38,1.14-2.89,4.2-1.22,6.28-.69,10,2.52,20,5.26,30.07,7.93,2.49.66,4.69,1.95,4,4.83A2.86,2.86,0,0,1,1331.43,304.57Z"/><path class="cls-2" d="M1090,262c5,0,10.09-.06,15.13,0,2.3,0,5.13-.33,5.19,3.2.06,3-2.5,3.13-4.45,3.12-11,0-21.94-.24-32.91-.46-1.87,0-3.6-.63-3.55-3s1.83-2.83,3.68-2.85C1078.75,262,1084.38,262,1090,262Z"/><path class="cls-2" d="M1146.7,267.89c-5.08,0-10.15.06-15.22,0-1.94,0-4.6.71-4.93-2.32-.3-2.77,1.87-3.49,4.12-3.5,11,0,22.1,0,33.15.1,2.16,0,4.39.76,4.07,3.57-.26,2.29-2.5,2.41-4.17,2.46-5.67.14-11.35.05-17,.05Z"/><path class="cls-2" d="M455.71,336.14c1.69-.08,3.3-.23,3.81,1.66s0,3.84-2,4.41c-11.09,3.31-22.11,6.79-32.71,11.52-1.5.67-3.75.7-4.53-1.43-.72-1.95.54-3.43,2.12-4.46C432.64,341.25,444.13,338.28,455.71,336.14Z"/><path class="cls-2" d="M570.77,307.89c-.42,3-3.07,3.54-5.16,4.11-10,2.71-20,5.13-30,7.69-2.07.53-4.4,1.23-5.36-1.31s1.12-3.77,3.1-4.54c11.06-4.28,22.64-6.61,34.25-8.77C569.5,304.71,571.16,305.26,570.77,307.89Z"/><path class="cls-2" d="M728.69,262.09c2.71.59,6.69-1.62,7.33,2.89s-3.15,4-6,4.35c-9.38,1.26-18.75,2.62-28.13,4-2.2.32-4.85,1.95-5.69-1.75s1.76-4.74,4.52-5.19C710,264.85,719.41,263.49,728.69,262.09Z"/><path class="cls-2" d="M830.2,262q8.07,0,16.13,0c2.24,0,4.5.48,4.81,2.94.4,3.31-2.6,2.69-4.42,2.84a201.4,201.4,0,0,1-32.21.19c-1.91-.16-4.8.12-4.84-2.75,0-3.41,3-3.14,5.3-3.2C820.05,261.94,825.13,262,830.2,262Z"/><path class="cls-2" d="M774.14,262.12c5.37,0,10.73-.05,16.09,0,2.24,0,4.35.84,4.23,3.45-.11,2.34-2.44,2.39-4.1,2.41-11,.16-22.05.19-33.07.24-2.36,0-4.22-.8-4.06-3.52.13-2.37,2.12-2.61,3.92-2.63,5.66-.06,11.33,0,17,0Z"/><path class="cls-2" d="M590.08,304.63c-2.76.2-4.18-.16-4.6-1.93a3.6,3.6,0,0,1,2.25-4.38,245.71,245.71,0,0,1,35.32-9.19,1.87,1.87,0,0,1,2.43,1.87,3.58,3.58,0,0,1-2.47,3.38C611.69,297.94,600.35,301.44,590.08,304.63Z"/><path class="cls-2" d="M681.12,274.32c-.55,3.81-2.8,4.85-5,5.53q-14.85,4.59-29.83,8.82c-1.84.52-4.33,1.24-5.45-1.27-.79-1.75-.3-4,1.62-4.53C655,279.21,667.4,274.39,681.12,274.32Z"/><path class="cls-2" d="M498.88,808.85c-10.83-1.81-21.36-5.44-30.61-12.31-2.18-1.62-4.67-3.49-2.84-6.53,1.5-2.51,4.17-1.39,6.45-.78,10.6,2.82,18.66,11.13,29.47,13.59a3.54,3.54,0,0,1,2.72,4.83C503.19,809.71,501,808.53,498.88,808.85Z"/><path class="cls-2" d="M540.12,810.36c-5.63,0-11.26.07-16.88,0-2.11,0-4.37-.53-4.53-3.21-.18-3,2.32-3.05,4.34-3.07,11-.07,21.93,0,32.89,0,2.19,0,4.29.42,4.37,3.23s-1.94,3.28-4.19,3.28h-16Z"/><path class="cls-2" d="M598,804c5.35,0,10.71-.14,16,.07,2.2.09,5.31,0,5.05,3.47-.19,2.61-2.52,3-4.71,3q-16.05,0-32.12,0c-2.51,0-5-.27-4.77-3.69s3-3.05,5.33-3.07c5.06,0,10.11,0,15.17,0Z"/><path class="cls-2" d="M1421.83,808.92c-2-.33-4.15.68-4.94-1.71-.63-1.92,0-4.22,1.79-4.39,11.6-1.11,18.58-12.37,30.14-13.49,2.12-.2,4.35-1,5.57,1.22,1.32,2.36.52,4.65-1.78,6.14A81.11,81.11,0,0,1,1421.83,808.92Z"/><path class="cls-2" d="M1380.19,804.19c5.64,0,11.29-.11,16.92.06,1.74,0,3.7.8,3.5,3.14-.22,2.64-2.19,3.17-4.47,3.17-11,0-22-.06-33,0-2.56,0-3.94-1-4-3.56-.08-2.83,1.75-3.33,4.1-3.31,5.64,0,11.29,0,16.93,0Z"/><path class="cls-2" d="M1323.27,804c5.36,0,10.73-.11,16.09,0,2,.06,4.47.3,4.29,3.3-.17,2.68-2.19,3.26-4.44,3.26-10.73,0-21.46,0-32.18-.06-2.13,0-4.43-.24-4.68-3-.31-3.53,2.5-3.63,4.83-3.69,5.36-.13,10.73,0,16.09,0Z"/><path class="cls-2" d="M428.31,723.69c.38,2.15,0,3.49-1.62,4.13s-3.22.31-4-1c-5.75-10.34-11.85-20.51-16-31.63a3.78,3.78,0,0,1,1.73-4.63c1.94-1.09,3.43.29,4.42,1.81C419.32,702.33,423.4,713.5,428.31,723.69Z"/><path class="cls-2" d="M486.05,667.16c14.92.05,27.54,12.65,27.36,27.31-.19,15.52-12.65,28.37-27.55,28.41-16.38,0-28.33-12.49-28.06-29.41C458,678.61,470.38,667.11,486.05,667.16Zm-2.69,27.52h-.19c0,5.66,0,11.32,0,17,0,3.63.92,5.53,5.29,4.64,9.13-1.87,17.16-11.23,17.61-21.18.4-9-6.56-18.06-15.71-20.35-4.67-1.17-8.29-1.34-7.14,5.64C484,685.05,483.36,689.91,483.36,694.68Zm-6,1.06h.05c0-4.43.07-8.86,0-13.29,0-1.62,1.12-3.83-1-4.76-2.39-1.05-3.7,1.26-5.07,2.6a21.16,21.16,0,0,0-.93,28.94c1.35,1.58,2.76,3.62,5,3.09,3.41-.8,1.72-3.87,1.87-6C477.52,702.85,477.34,699.29,477.34,695.74Z"/><path d="M800.83,461.27v111H781V501.56l-19.51,14.9L745.32,529l-16.18-12.54-19.51-14.9V572.3H689.8v-111l19.83,15.22,35.69,27.44L781,476.49Z"/><path d="M854.76,498.22v75.5H834.93V496.16a15.8,15.8,0,0,0-13.48-13.48H817V463h4.29v.16a35.55,35.55,0,0,1,13.48,3.65,35.17,35.17,0,0,1,16,16.18,42.26,42.26,0,0,1,2.7,7.45,33.53,33.53,0,0,1,1,8.09Z"/><path d="M940.4,461.27a35.81,35.81,0,0,1,35.85,35.84v39.18a35.81,35.81,0,0,1-35.85,35.85H906.14a35.81,35.81,0,0,1-35.84-35.85V497.11a35.81,35.81,0,0,1,35.84-35.84Zm-34.26,19.82A16.24,16.24,0,0,0,890,497.27v39.18a16.24,16.24,0,0,0,16.17,16.18H940.4a16.25,16.25,0,0,0,16.18-16.18V497.27a16.25,16.25,0,0,0-16.18-16.18Z"/><path d="M1100.44,527.25a31.54,31.54,0,0,1,2.7,12.85,32.63,32.63,0,0,1-32.68,32.67H992.27V553h78.19a12.93,12.93,0,0,0,12.85-13,12.77,12.77,0,0,0-11.42-12.85H992.27V461.74h101.67v19.83h-81.85v25.7h59.64a32.15,32.15,0,0,1,28.87,19.82Z"/><path d="M1229.71,552.79v19.82H1119V539.94a31.7,31.7,0,0,1,2.7-12.85,32.56,32.56,0,0,1,28.87-20h48.06a13,13,0,0,0-1.11-25.86h-78.2V461.43h78.2a32.62,32.62,0,0,1,32.67,32.67,32.33,32.33,0,0,1-9.35,22.68,32.93,32.93,0,0,1-22.37,10h-47.9A12.91,12.91,0,0,0,1139,539.62v12.85Z"/></g></g></svg>