<svg xmlns="http://www.w3.org/2000/svg" viewBox="0 0 1920 1080"><defs><style>.cls-1{fill:#f2f2f2;}.cls-2{fill:#020202;}</style></defs><g id="Capa_2" data-name="Capa 2"><g id="Capa_1-2" data-name="Capa 1"><rect class="cls-1" width="1" height="1"/><rect class="cls-1" x="1919" y="1079" width="1" height="1"/><rect class="cls-1" y="1079" width="1" height="1"/><rect class="cls-1" x="1919" width="1" height="1"/><polygon class="cls-1" points="321.3 408.12 306.24 445.21 302.86 473.94 306.98 505.8 425.96 717.69 465.62 786.36 497.2 811.33 525.1 825.01 564.76 825.5 680.81 825.5 702.11 825.01 748.01 814.52 815.21 796.18 861.85 792.03 1055.74 792.7 1097.23 795.9 1168.84 813.24 1220.62 826.05 1284.88 826.05 1367.51 825.32 1407.6 823.71 1447.19 794.19 1485.02 735.68 1609.22 516.08 1612.94 498.58 1620.25 479.82 1615.74 441.17 1601.64 409.88 1569.47 381.31 1422.59 327.33 1269.83 285.84 1154.88 265.64 1075.93 256.13 955.12 253.16 824.02 259.03 723.77 273.35 621.32 293.92 535.75 315.58 471.49 336.15 424.12 354.14 345.17 384.72 321.3 408.12"/><path class="cls-2" d="M1051.15,210.56c11,15.22,20.77,13.42,32.6,14.77,183.6,20.91,359.31,69.34,526.49,148.68,28.42,13.49,43.85,31.29,41.19,64.07-1.83,22.65,9.68,32.22,33,32.81,20.12.51,40.39-2.38,60.33,2.48l10.64,6q.25,59.4.49,118.78c-.42,6.8-.26,13.71-.08,20.38,1.13,42.15-4.78,57.72-31.37,76.82-7.46.74-14.92,2.08-22.39,2.12q-67.9.3-135.82,0c-9.72,0-19,.43-24.83,9.85q-13.89,22.32-27.81,44.64l-76,114.11a17.61,17.61,0,0,1-13.43,6c-13-.25-26-.55-39-.72-6.26-.08-13,.27-17.21-5.06-9.62-12.29-22.37-11-35.41-9.33-10-.26-20.09-1.35-30-.61-19.92,1.5-42.94-8.25-57.41,15.33-1.51,2.47-8.08,2-12.35,2.6-14.52,2.1-24.43-7.91-35.89-13.85-23.31-16-51.13-17.59-77.34-24.32-6.25-1.61-12.83-1.79-18,2.51-16.88,14.15-34.72,10.62-52.91,3.65-4.08-6.46-10.64-5.76-16.9-5.76-47.87,0-95.73.06-143.6-.13-6.6,0-12,2-17.72,5.09-17.26,9.17-34.63,10.49-51.14-2-5.36-4.06-10.91-5.9-17.58-4.14-30.85,8.1-63,11.77-89.87,32.05-16.69,12.59-31.35,10.08-44.53-4.73-4.26-4.79-8.54-6.71-14.61-6.56-22,.51-44,.81-66,1.19-12.88-2.48-22.75,1.63-34.58,8.39-20,11.4-46.14,11.73-64.71,1-15.64-9.06-21.64-1.6-31.64,3.76-9.07,4.87-18.09,16.91-28,1-15.59-25.43-30.47-51.33-47.06-76.09-8.22-12.26-8.89-20.67,4.83-27.91,3.29-1.79,6.43-4,9.92-5.3,12.89-4.75,13.19-11.26,5.6-22.15-35.24-50.56-17.13-41.51-77.54-42.35-36.61-.51-73.24,0-109.86-.22-21.8-.15-47.69-25.53-47.7-47.21,0,0-7.67-175.87,6.09-175.83,21.46-6,42.85-2.94,64.09-3.49,23.47-.61,35-10.43,33.37-33-2.36-31.69,11.47-49.92,39.59-63.27C475.3,295.78,649.75,247,832.21,226.06c14.11-1.62,28-1.58,37.8-16.48,6.6-10,23.69-12.55,30-3.17,15.69,23.23,36.59,16.47,57.18,15.5l7.81.3c10.69.3,21.37.66,32.06.88,4.38.1,9.75,1,11.95-3.68,9-19.19,23.15-22.31,37.54-14.18C1047.67,205.86,1050.12,209.14,1051.15,210.56Zm688.79,289.53c.22-10.63-4-14.7-14.44-14.39-16.37.48-32.77.59-49.13.1-21.07-.63-39.78-19.19-40.48-39.34-1-29.48-1-29.48-28.74-36.43-1.85-1-3.77-3.23-5.51-.15-.18.3,2,1.95,3.14,3,.3,3,2,7.47.65,8.82-4.33,4.29-5.94-1.07-8.28-3.57-12-12.81-12-12.8-23.52-3.63-1.64-8.4,9.65-21.5-4.26-24.29-18.8-3.78-32.11-16.78-49-23.51-49.77-19.83-100.79-35.6-152.09-50.77-213.32-63.07-430.17-77-648.71-38.13-121.92,21.68-244.37,46.41-353.38,111.29-23.28-4.58-23.2,9.24-17.79,27.8-11.94-12.36-11.87-12.29-23.84.43-2.23,2.37-3.11,8-8.25,5.22-4-2.12-1.26-5.44-.44-8.28.06-1.56.78-3.89,0-4.51-1.69-1.42-2.9.09-3.47,1.88-27,3.63-27,3.63-27.4,31.16-.34,24.71-17.94,42.62-42.42,43-15.14.2-30.31.7-45.41-.05-12.55-.63-16.53,4.47-16.42,16.6.44,48.57.05,97.15.31,145.73.08,14.35,19.33,34.25,33.86,34.4,29,.3,58-.38,86.93-.65,18,.33,36,1.21,53.92.82C372,682.23,385,687,394.05,700.83c7.39,11.7,14.63,23.51,22.25,35.07,2.49,3.78,4.15,10.06,11.25,6.09,7.92-4.42,3.07-9.32.79-14.19-2.51-5.37-8.51-9.74-5.07-17,5,.08,6.4,4.22,7.52,7.32,5.55,15.36,13.53,16.4,25.65,6.21,36.56-30.72,93.89-19.44,106.13,40.57l.15,7.27-.87,7.44c-5.26,17.23-13.61,32.61-28.75,43-10.7,7.35-22.33,13.33-33.31,20.3-3.29,2.1-9.44,3-7.39,9.08,1.38,4.08,5.67,4.63,9.61,4.26,18-1.71,38.11,6.6,52.93-11.36,3.21-3.88,9.14-3.54,14.3-3.53q43.54.12,87.09,0c7.81,0,15.83.65,20,8.05,8.5,14.9,19.17,12.07,29.81,3.9,28.8-22.13,63.91-25.48,97.49-33.15,8.59-2,17.39.87,24.62,7.11,9.84,8.49,22.66,8.69,31.79,2.66,12.89-8.5,26-8.27,39.77-8.3,19.56,0,39.24-1.63,58.65,0,36.38,3.09,74.4-9.35,109.09,11,1.7,1,4.87-.48,7.35-.8,6,2.25,11,.24,15.54-3.82,10-8.94,21.9-9,33.84-6.19,22.61,5.3,45.06,11.25,67.59,16.92,7.33,4.69,14.87,9.1,21.95,14.14,11.7,8.34,22,11.22,31.12-3.81,4.79-7.91,13.64-7.55,21.91-7.63,20.6-.21,41.19-.65,61.79-1,16.59,2.89,34.32-2.68,49,13.18,9.44,10.23,47.94,1.74,55.25-8.81,18.5-25.75,36-52.12,51.72-79.68l41.58-63.85c10.32-14.85,24.77-19,42.35-18.72,44.56.73,89.14.4,133.71.25a33.92,33.92,0,0,0,33.53-28.85s4.81-12.33,4.15-39.41S1739.94,500.09,1739.94,500.09Zm-181.47-126,2-5.31c-6.42-3.07-12.72-6.4-19.26-9.18-150.08-63.79-306.46-103.17-468.46-120.51-11.94-1.28-22-4.24-28.93-14.88-4.94-7.58-12.39-11-17.84-1.65-8.91,15.3-22.34,16.1-37.46,15.67-20.77-.6-41.57-.51-62.35-.07-12.1.26-22.28-1.73-29.15-13.17-6.27-10.44-13.65-10-20.41-.05-6.59,9.72-16,12.77-27.35,14.09-35.68,4.2-71.58,7.63-106.83,14.31-126.51,24-250.79,55.95-368.71,109.1-4.5,2-11.79,1.52-11.53,11.73C554.31,294.54,753,249,960.61,249S1367,294.54,1558.47,374.06ZM490.33,805.43c7.22,3,11.48,4,14.87,6.32,16.75,11.38,28.15,3.1,38-10.15a53.49,53.49,0,0,0-1.9-66.29c-16.25-19.63-42-26.16-64.46-14.11-12.1,6.51-24.37,21.16-33.53,23.5-28.6,7.29-8.82,17.72-4.29,25.64,9.67,16.86,21,32.8,31.6,49.11,15.82,24.26,15.83,24.28,39.16,7,.66-.48.46-2.15.61-3C504.65,818,494.44,818.75,490.33,805.43Zm-61.58-22.77c-4.34,9.36-8.47,15.55-18,13.35-5.57-1.28-9.23-5.37-9.32-10.59-.14-7.81,4.14-13.15,12.55-13.64,3.27-.19,7,.38,4.47-4.54-1.54-3-3.28-7.49-8.32-4.53s-9.36,6.65-14.52,8.83c-13.24,5.58-13.65,12.36-5.59,23.83,14.11,20.1,26.53,41.38,39.74,62.12,10.89,17.08,12.24,17,27-1.13-9.15-2.61-22.36-1.64-20.23-16,1.6-10.85,10.89-11.8,23.73-8.65ZM291.31,405.41c15.13,1.63,25.2-5.69,35.64-11.91,2.49-1.47,3.38-3.79,2.42-6.25-1.09-2.82-3.87-3-6.16-1.85C312.57,390.88,300.06,393.52,291.31,405.41ZM1627.5,404c-10.12-9-20.76-17-34.66-18.48-.49-.06-2.29,4-1.83,4.42C1600.92,399.7,1612.63,405.45,1627.5,404ZM455.67,859c17.28-8.57,17.28-8.57,6.77-21Z"/><path class="cls-2" d="M1440.91,765.41c0,11.29-5.05,20.16-13.25,27.5-22.82,5.71-36.7.73-42.16-15.09-5.33-15.5,1.94-31.05,17.1-36.54C1419.73,735.09,1433.47,743.74,1440.91,765.41Zm-8,3.57c-.75-13.06-7.48-21.22-19.73-21.72-13.34-.55-21.47,7.74-21.48,21,0,12.47,7.66,20,20.28,20.18C1424.85,788.66,1430.92,780.36,1432.93,769Z"/><path class="cls-2" d="M1519.5,460.56c3,11.28,3,11.28,25.08,26.16-10.57,2.52-18.31,9.31-26.2.08C1511.45,478.71,1509.63,469.48,1519.5,460.56Z"/><path class="cls-2" d="M376.91,488.39c6.85-13.23,28.7-7.69,20.49-31.18,13.42,11.5,11.93,19.87,6.32,28.25C396.37,496.41,387.41,488.83,376.91,488.39Z"/><path class="cls-2" d="M368.27,605.73c4,12.82,16.2,22,15.1,37.18-7.23-12.35-23.24-20.37-17.78-38.92C367.16,604,368.05,604.54,368.27,605.73Z"/><path class="cls-2" d="M1567.23,426.72c-.15,19.1-8.93,29.73-14.76,41.39-.49,1-3.55,1.55-4.8,1s-2.48-3.4-2-4.3C1551.85,453.37,1554.63,439.86,1567.23,426.72Z"/><path class="cls-2" d="M322,537.48c-11.61-9.54-14.63-23.23-19.14-36.19l5-2.53q9.54,18.13,19.09,36.27Z"/><path class="cls-2" d="M1586.28,550.94c1.8,16-8,25.77-15.18,36.77-1.37,2.09-4,3.42-6.11.93-1-1.22-1.72-4.1-1-5.19C1571.23,572.49,1578.8,561.74,1586.28,550.94Z"/><path class="cls-2" d="M1427.18,806.38c7,11.29-7.6,8.52-9.25,14.18-9.31,1.56-17.78,8.78-31.79,3.71Z"/><path class="cls-2" d="M354.9,432.14c11.28,9.67,16.94,22.35,21.4,41.8C360.46,460.64,358.39,446,354.9,432.14Z"/><path class="cls-2" d="M1617.29,439.09c4,13.56,10.7,26.92.39,46.29-2.31-18.32-4-31.89-5.73-45.47Z"/><path class="cls-2" d="M1559.79,605.65c-2.52,12.67-10.92,22.47-16.5,33.65-1,2-3,4.62-6,3.21-3.92-1.82-2.93-4.63-1.16-7.68,4.72-8.15,9.25-16.4,13.86-24.62C1552.73,607.54,1555,603.86,1559.79,605.65Z"/><path class="cls-2" d="M1546.72,407.68c-1.24,14.1-9,24.93-16.25,36.05C1530.52,429.27,1537.81,418,1546.72,407.68Z"/><path class="cls-2" d="M354.09,589.45c-11-9.86-18.55-21.79-21.07-36.62C344.86,562.24,351,575,354.09,589.45Z"/><path class="cls-2" d="M1612.94,498.58c2.28,16.39-5.36,28-13.88,39.18l-4.59-2.21Q1603.69,517.07,1612.94,498.58Z"/><path class="cls-2" d="M1090.15,798.19c-.08-3.13.07-6.14,3.65-7.48,12.44,3.1,25.68,3.66,40.12,13C1116.43,806.31,1103.67,798.6,1090.15,798.19Z"/><path class="cls-2" d="M1467.55,761.66c2.27,18.88-12.21,26.5-21.82,37.4l-4.35-2.83,23.15-33.39A3.08,3.08,0,0,0,1467.55,761.66Z"/><path class="cls-2" d="M1498,711.55c-3.82,14.32-9.13,27.18-20.6,36.43C1480.17,733.41,1487.56,721.35,1498,711.55Z"/><path class="cls-2" d="M374.37,408.12c9.1,10.45,15.64,21.94,19.68,39.37C381.11,434.18,377.3,421.27,374.37,408.12Z"/><path class="cls-2" d="M1505,692.84c6.91-12,10.15-26.49,23.89-37.19,1.1,16.72-12.82,24.39-15.08,36.84C1510.87,693.74,1508.12,698.48,1505,692.84Z"/><path class="cls-2" d="M310.31,434.62c-2.81,18.86-4.82,32.28-7.17,48.06C295.11,464.74,296.38,454,310.31,434.62Z"/><path class="cls-2" d="M1191.68,815.52q-1.56,2.78-3.14,5.55c-11.57-4.73-25.18-3.62-37.49-12.62C1166.88,806,1178.78,813.61,1191.68,815.52Z"/><path class="cls-2" d="M1328.59,829.44c-1.37-4,.25-6.58,3.9-8.2,12.59,2.31,25.82-2.06,43,4.34C1357.17,832,1342.59,828,1328.59,829.44Z"/><path class="cls-2" d="M890.15,793c-14,4.4-27.68,3.17-41.34,0A62.05,62.05,0,0,1,890.15,793Z"/><path class="cls-2" d="M1031.16,794.19c13.39-6.1,27-5.41,40.84,0Z"/><path class="cls-2" d="M969.22,790.76h40.51l.15,3.46H969.41C969.35,793.06,969.28,791.91,969.22,790.76Z"/><path class="cls-2" d="M414.71,696.13c-4.73-.07-6.27-4.55-9.42-6.81-1.56-11.34-14.76-18.09-13-36.71C403.67,668.94,413.84,679.88,414.71,696.13Z"/><path class="cls-2" d="M831,797.13l-40,8.81c11.42-11,24.79-14.34,39.22-13.69C830.51,793.88,830.77,795.5,831,797.13Z"/><path class="cls-2" d="M711.46,822.18c-14.7,8.16-21.2,8.72-45.67,4.19C682.88,818.43,697.45,822.92,711.46,822.18Z"/><path class="cls-2" d="M592.61,826c-14.19,3.68-28.51,4.35-42.81-.14C563.91,820.39,578.15,820.87,592.61,826Z"/><path class="cls-2" d="M652.79,828.55H610l-.18-4.86c14.1-3,28.33-2.79,42.67-.25C652.6,825.14,652.7,826.84,652.79,828.55Z"/><path class="cls-2" d="M770.19,807.79c-11.63,7.86-24.74,10-38.2,10.91C743,809.35,756.84,809.09,770.19,807.79Z"/><path class="cls-2" d="M1209.34,823.08c13.91-.84,28-3.83,41.3,3.43C1236.6,829,1222.56,831.5,1209.34,823.08Z"/><path class="cls-2" d="M1310.87,825.64c-14,4.59-28.17,4.2-42.34.41C1282.56,820.24,1296.69,821.21,1310.87,825.64Z"/><path class="cls-2" d="M480.24,787.51c2-4.84-2.29-8.12-3.11-12.28-2.8-14,1.87-25.45,14.19-32,13.18-7,26.3-4,35.64,7.54,8.23,10.2,9,22.4,1,33.31-8.88,12.17-21.28,14.53-35.33,9.72-4.61-1.57-7-7.21-12.73-6.61Zm25.26,1c12.2-1.23,19.45-8.07,19.59-20.64.14-12.77-7.6-20.38-19.8-20.58-13.21-.22-21.39,7.82-21,21.33C484.7,781.17,492.62,787.7,505.5,788.54Z"/><path class="cls-2" d="M480,787.24c-5.38,2.49,2.93,8.44-2.46,10.47-4.37,1.65-6.93-2.21-9-5.07-6.39-9-16.34-16.11-17.51-31.82,13.26,8.24,13.81,26,29.22,26.69Z"/></g><g id="Capa_3" data-name="Capa 3"><path d="M803.29,481.87v111H783.46V522.15L764,537.06l-16.18,12.53L731.6,537.06l-19.51-14.91V592.9H692.26v-111l19.83,15.22,35.68,27.44,35.69-27.44Z"/><path d="M857.21,518.82v75.5H837.39V516.76a15.83,15.83,0,0,0-13.49-13.48h-4.44V483.61h4.29v.16a35.42,35.42,0,0,1,29.5,19.82,41.54,41.54,0,0,1,2.69,7.46,33,33,0,0,1,1,8.09Z"/><path d="M942.86,481.87a35.8,35.8,0,0,1,35.85,35.84v39.18a35.81,35.81,0,0,1-35.85,35.85H908.6a35.81,35.81,0,0,1-35.85-35.85V517.71a35.8,35.8,0,0,1,35.85-35.84ZM908.6,501.69a16.25,16.25,0,0,0-16.18,16.18v39.18a16.25,16.25,0,0,0,16.18,16.18h34.26A16.25,16.25,0,0,0,959,557.05V517.87a16.25,16.25,0,0,0-16.18-16.18Z"/><path d="M1102.9,547.85a31.67,31.67,0,0,1,2.7,12.85,32.63,32.63,0,0,1-32.68,32.67h-78.2V573.54h78.2a12.92,12.92,0,0,0,12.85-13,12.77,12.77,0,0,0-11.42-12.85H994.72V482.34H1096.4v19.83h-81.85v25.69h59.64a32.17,32.17,0,0,1,28.87,19.83Z"/><path d="M1191.72,481.87a35.81,35.81,0,0,1,35.85,35.84v39.18a35.82,35.82,0,0,1-35.85,35.85h-34.26a35.81,35.81,0,0,1-35.85-35.85V517.71a35.8,35.8,0,0,1,35.85-35.84Zm-34.26,19.82a16.25,16.25,0,0,0-16.18,16.18v39.18a16.25,16.25,0,0,0,16.18,16.18h34.26a16.25,16.25,0,0,0,16.18-16.18V517.87a16.25,16.25,0,0,0-16.18-16.18Z"/></g></g></svg>