<svg xmlns="http://www.w3.org/2000/svg" viewBox="0 0 1920 1080"><defs><style>.cls-1{fill:#020202;}.cls-2{fill:#f2f2f2;}</style></defs><g id="Capa_2" data-name="Capa 2"><g id="Capa_1-2" data-name="Capa 1"><path class="cls-1" d="M1699.84,422.7c-3.31,1.59-6.08-3.45-9.26-5.24-82.3-46.53-166.9-88.06-256.51-118.86-2.27-.78-6.33-.69-4.49-5,2.54-5.95-1.39-7.06-5.62-8.4-23.3-7.44-46.56-15-69.9-22.38-4.33-1.36-9.5-4.87-11.42,3.48-.63,2.73-3.69,1.39-5.75.8-26.17-7.58-52.79-13.39-79.45-18.91-50.46-10.43-101.27-19-152.48-24.76-45.5-5.14-91.14-8.82-137-8.58l-19.12.41c-56.49.58-79.53,2.92-105.94,5.17-16.32,1.37-31.9,4.36-48.12,5.53-69.66,9.43-138.66,22.27-206.75,39.81-4.64,1.19-10.92,6.63-13.35-3.4-.53-2.2-3.81-1.34-5.95-.66l-75.48,24c-2.38.76-5.74,2-4.47,4.8,4.37,9.46-3.79,8.29-8.07,9.74-51.43,17.51-101,39.56-149.81,63.22-36.46,17.66-72.26,36.56-107.21,57a20.53,20.53,0,0,1-3.42,1.1c-3.42,1.07-3.61,10.38-3.61,10.38-1.31,34.33-5.13,68.79,7,102.18a5.27,5.27,0,0,1,.07,1.64c1.79,4.56,3.6,9.12,5.38,13.69,11.3,29,36.8,47,68,47.74,9.64.25,19.31.32,28.94-.13s14.62-5.7,14.92-15.23c.35-11,.09-22.06.38-33.08.37-13.52,10.27-19.22,21.14-11.46,7.76,5.53,15.76,7,24.82,6.72,12.13-.36,24.27.12,36.41-.15,9.31-.21,15.29,4.3,18.36,12.51,7.29,19.55,14.19,39.23,21.25,58.86q10.47,28.38,20.92,56.76c10.54,26.52,18,54.25,30.64,79.88,26.49,53.69,68.73,88.18,126.36,105.55,25.15,7.58,61.17,7.72,61.17,7.72,4.37-.05,8.45-2.51,12.9-1.43,5.68-1,11.38-1.86,17-3,15.32-3.08,30.23-7.7,45.24-12,2.42-.69,6.82-3.47,7.06,1.55.43,8.83,5.45,7,10.7,5.83l62.39-14.32c19.46-9.65,40.73-9.51,61.62-11.18,11-.86,22-.78,32.92-1.39,4.37-.25,5.85,1.26,5.62,5.6-.3,5.63-.88,11.38,1.34,18.34,3.79-6.1,2.37-11.55,2.13-16.5-.28-5.95,1.78-7.85,7.43-7.29,4.34.45,8.79-.48,13.08.91,28.73.88,57.6.94,84.44,13.57,14.93.59,28.79,6.38,43.32,8.88,4.86.83,9.55,2.53,14.38,3.54,5.1,1.08,10.59,3,10.44-6-.08-4.56,3.54-2.67,6.13-1.93,14.76,4.24,29.32,9.21,44.45,12.13,63.76,12.33,120.37-2.88,170.31-44,1.25-1,2.64-1.89,4-2.83,37.86-34,54-80,70.08-126.19,8.63-24.83,18.17-49.35,27.32-74,6.61-18.37,13-36.82,19.94-55.06,4.48-11.81,8.67-14.28,21.12-14.33,13.24-.07,26.49-.27,39.73,0,6.38.11,11.88-1.29,16.87-5.39,4.62-3.81,9.64-6.42,15.88-3.19s7.9,8.51,7.76,15.12c-.24,9.92-.12,19.86.09,29.79.24,11.23,5.41,16.68,16.64,17.06,13,.43,26.14,1.48,38.83-1,27.45-5.27,46.68-21.22,56.9-47.53,1.59-4.07,3.07-8.2,4.59-12.31,2.57-12.36,8.9-23.95,8.68-36.82,0,0,.93-28.46,1.2-52.15C1705.19,424.59,1699.84,422.7,1699.84,422.7ZM1030.47,229.83c49.46,3.4,98.61,9.33,147.57,17.32,50,8.15,99.56,17.89,148.58,30.49,2.12.55,4.21,1.3,6.36,1.69,3.78.72,3.86,3.15,3.35,6.2-.66,3.94-3.11,4-6.13,3.1-5.53-1.58-11-3.27-16.63-4.66-1.94-.48-4.67-1.55-5.39,1.73-.63,2.91,1.88,3.81,3.91,4.44,5,1.52,10,2.93,15.09,4.1,4.73,1.11,4.44,3.07,1.55,6.07-5.9,6.08-13,7.93-21.16,6.39-22.43-4.26-44.73-9.28-67.29-12.62-30.4-4.49-55.75,17.44-56.19,48.14q-.71,48,0,95.92c.11,8.15-2.42,10.58-10.24,9.94a170.31,170.31,0,0,0-23.15-.1c-8.4.45-14.18-2.8-18.2-10.12-3-5.54-6.89-10.64-9.94-16.17-5.27-9.51-13-14.65-23.94-15-21.65-.64-39.64-8.4-52.18-26.8-2.8-4.11-5.64-8.33-6.51-13.24-2.49-13.73-9.68-25.11-17.81-35.88-3.53-4.66-4.54-8.5-1.23-13.29a4.3,4.3,0,0,0,.61-1.52c.57-2.87,3.35-6,1-8.55-3.35-3.51-4.34,3.4-8.53,1.72-3.32-23.75-12.38-47-10.61-71.88.34-4.5-2.65-6.52-6.11-9.06C1008.3,228.74,1019.4,229.07,1030.47,229.83Zm65,189.56c0-1.35-.28-2.89,1.29-3.6,2-.88,3.07.66,4.14,1.81,5.52,5.86,9.28,13,12.91,20,5.66,11,13.17,18.21,26.35,17.1,3.47-.29,4.08,1.45,4.06,4.44q-.16,29.73-.15,59.48c0,2.69-.28,5.31-3.74,5.07-11.68-.82-17.11,7-22.17,15.53-4.68,9.9-9.26,19.88-14.13,29.7-1.31,2.65-3.49,5.68-7,4.57-3.71-1.19-1.46-4.74-1.46-7.19,0-8.51.32-17,.48-25.54Q1095.8,480.08,1095.49,419.39Zm15.44-1.18.15-.33.15.16.06,0c0,.07,0,.13.09.2,6.92,7.47,11.18,16.67,16,25.48a79.87,79.87,0,0,1-16-25.48,1.29,1.29,0,0,0-.15-.17Zm18.52,114.85,2.3,1.15c-6.92,12.42-10.27,26.59-19,38.1-.76-.37-1.52-.75-2.29-1.11Q1119.94,552.14,1129.45,533.06Zm-2.35,26.63c.66-1.51,1.32-3,2-4.53,11.53-25.44,23.66-31.47,51.32-26,3.53.72,3.45,2.7,3.58,5.27,1,19.3-14.41,37.29-33.86,39.35-4.37.46-8.8.49-10.77.59C1120.5,574.6,1120.5,574.6,1127.1,559.69ZM1176.53,479c1-4.37.61-8.85,2.6-12.89.68-1.37,1.81-2.43,3.2-2,1.61.5.93,2.1.91,3.44-.25,15.56,1.06,31.15-1.23,47-1.78,1-3.06-2.64-5.53-1.69,0,4.11,5,5.27,6.25,10.22-9.93,0-19.14,0-28.35,0-3,0-3.71-1.35-3.71-4,.07-20.15.1-40.28,0-60.42,0-3.37,1.3-4.21,4.38-4.19,8.28.05,16.55-.19,24.83-.22a4,4,0,0,1,2.82.9c1.12,1.44-.24,2.65-1.18,3.44C1174.79,464.23,1175.37,471.65,1176.53,479ZM1089,569.86c.2,4-2.23,4.49-5.3,4.4-5.78-.11-11.56-.21-17.33-.33-27.58.15-55.16.07-82.73.63-7.12.15-3.64-7.17-8-8.84-3.71,1.95-1.39,9.9-8.6,8.91-3.43-.48-5.68-.81-5.58-5,.22-9.1.3-18.21.07-27.31-.17-6.16,4.42-4.35,7.5-4.83,5-.76,3.21,3,3.3,5.41.11,4-1.29,10.16,3.72,10.11,4.23-.05,2.81-6.39,2.56-10-.33-5.24,1.16-8.3,6-11.23,34.22-21,33-65.59-2.17-85.21-3.43-1.92-3.81-4.17-3.81-7.3.05-8.28.11-16.55,0-24.83,0-2.47,1.18-6.43-3-6.33-3.37.1-2.48,3.69-2.56,6-.27,7.44-.37,14.88-.57,22.32-.06,2.45,1.56,6.16-3.34,5.52-3.45-.45-8.22.82-7.89-5.55s.18-12.68.2-19c0-1.91.13-3.89-4-5.83v24.22c0,3.09,0,5.73-4.24,6.66-4.66,1-6.5.31-6.27-4.89.34-8,.1-16,0-24,0-2.48,0-5.56-3.49-5.38-2.94.15-2.65,3-2.72,5.15-.08,3.59-.3,7.19-.07,10.77.77,12.44-.58,21.88-12.9,31-22.32,16.48-19.93,54.09,1.92,72,1.89,1.56,3.73,3.16,5.6,4.76l0,0c1.21,1.34,3.78-.1,4.51,2.22,1.61,4.81.28,9.81,1,14.68.25,1.9.5,4.07,3.16,4s3.09-1.87,3.09-4a27.75,27.75,0,0,1,.13-5.77c.46-2.17-2.16-6.34,2.73-6,3.41.25,8.13-.47,7.94,5.73-.32,9.08-.15,18.17-.22,27.27,0,2.2.12,4.84-3.18,4.44-2.63-.32-6.44,1.75-7.42-2.85-.45-2.12-.23-4.86-3.45-4.47-2.33.26-2.65,2.55-2.81,4.45-.25,3-2.11,3.28-4.61,3.27q-37.54-.48-75.13-.78c-8.53.06-19.08,3.23-25-.65-6.11-4-1.79-15.24-1.85-23.28-.32-42.7-.19-85.41-.44-128.12,0-5.32.9-8.35,6.76-9.87,20-5.2,36.15-15.89,45.58-35,1.52-3.08,4-3.21,6.87-3.2,14,0,28.12.13,42.16-.16,4.46-.1,5.84,1.39,5.59,5.66a82.24,82.24,0,0,0,.36,11.53,2.86,2.86,0,0,0,3.35,2.84,2.82,2.82,0,0,0,2.38-2.94c.19-2.47.25-4.95.32-7.42.05-1.66-.52-3.54.1-4.92,4.74-10.49,13.9-1.62,20.61-4.47,3.81-1.63,5,1.24,4.85,5.05-.15,4.11.48,8.23.79,12.34.12,1.56.93,2.6,2.57,2.55s2.37-1.16,2.52-2.66.17-2.75.22-4.13c.48-13.27.48-13.27,13.46-13.28,12.41,0,24.8.08,37.21,0,3.23,0,5.77.33,7.42,3.74,9.48,19.57,26.23,29.76,46.47,35,4.61,1.19,6,3.21,6,7.92-.25,37.19-.21,74.4-.3,111.59a31.07,31.07,0,0,1-.51,4.06C1090.07,547.29,1088.4,558.59,1089,569.86ZM953.33,463.1c-3.94.44-7.29-2.58-11.26-1.44-5,1.44-9.16,2.94-8.2,9.88.81,5.93.16,12.07.16,18.14H934c0,5.5,0,11,0,16.5-.06,4.49-.21,8.84,4.63,11.41a4.2,4.2,0,0,1,1.6,6.35c-1.82,2.1-4.09-.39-5.5-1.71-12-11.25-18.34-24.57-14.51-41.35,4-17.63,15.41-27.85,32.55-32.35,3.71-1,5.62.28,4.82,3.86S961.83,462.21,953.33,463.1Zm-12.87,43.16c.33-2.75-1.84-7.11,2.11-7.84,5.49-1,4.4-4.57,4.45-7.95.05-5,.22-9.92-.08-14.86-.25-4.16.21-6.34,5.5-6.38,5.68-.05,5.12,3,5.38,6.7.45,6.09-1.65,12.44,1.58,19.31,3.16-7.2,2-13.88,1.85-20.29-.11-5.22,2.35-5.5,6.43-5.67,4.6-.21,5.52,1.71,5.42,5.8-.17,6.88.15,13.75.39,20.63,0,1.19-.31,3,1.56,3.31,2.52.36,2.52-1.92,2.57-3.28.3-7.14.3-14.3.51-21.44.07-1.95-1-4.93,2.67-4.69,2.75.19,2.42,2.51,2.35,4.4-.38,11-.79,22-1.16,33-.08,2.23-.91,4.07-3.29,3.69-6-1-12.86,2.9-17.91-2.8-2.3-2.6-2.44.24-3.33.93-4.44,3.43-9.49,1.79-14.3,1.76C940.66,510.55,940.23,508.23,940.46,506.26Zm48.11,2.7c-.25-11.56-.07-23.13-.13-34.71-.09-11-4.87-14.57-15.69-11.76-9.21,2.39-11.45.95-11.43-8.1-1-6,1.74-7.17,8-5.62,17.15,4.25,28.23,14.62,32.19,31.65,4.14,17.87-2.27,32.33-16.65,43.4-1.69,1.29-3.4,3.59-5.65,2-.9-.63-.66-3-.73-4.62-.12-2.51.7-4.33,3.69-4.2C988,517.23,988.67,513.71,988.57,509Zm-39.28,8.15c2.92-.74,5.93-1.69,8.12,1.47,1,1.45,1.21,3.95,3.61.7a7.85,7.85,0,0,1,10.34-1.82c3.38,2,1.64,6.66,1.21,9.92-.58,4.52-5,3.15-8,3.61a40.36,40.36,0,0,1-5.08,0c-4.36-1.16-12.82,2.9-12.57-7.84C947,521,945.78,518,949.29,517.11ZM915.21,333.64c-.82-1.69-1.93-3.23-3.86-6.36,14.95,0,28.38.11,41.8-.09,3.83-.05,4.74,1.56,4.52,4.89s-.21,6.61-.24,9.92c-.09,12.51-.27,12.71-12.28,9.65-3.18-.82-6.2-2.27-9.36-3.12s-7.94-4.69-7.17,3.38c.21,2.47-2.22,1.92-3.71,1.92-8.54,0-17.08-.08-25.63,0-4.14,0-5-1.46-2.7-4.87s4.7-6.79,6.66-10.4c2.07-3.81,4-4.25,6.51-.57,1.59,2.36,4,3.7,6.29,2.07C919,338,916.21,335.68,915.21,333.64Zm42.23-23c.38,10.41.22,10.41-10.37,10.37-9.36,0-18.74-.15-28.11,0-4.33.08-6.88-.25-5.2-5.85a141.79,141.79,0,0,0,3.72-18.56c.55-3.56,2.41-4.47,5.64-4.37,5.23.15,10.47,0,15.7,0a4.61,4.61,0,0,1,0,.52c6,0,13.8-2.29,17.54.63C960.36,296.53,957.23,304.66,957.44,310.61Zm-5,56.79c-2.22-.31-5.32.75-5.45-3.66-.12-3.91,2.18-3.58,4.68-3.41s5.64-.7,5.85,3.54C957.72,367.72,955.11,367.33,952.46,367.4Zm-14.53-7.09c2.91,0,2.61,2.09,2.66,4,.07,2.73-1.75,3-3.84,3H915.33q-10.29,0-20.59,0c-1.82,0-4.16.53-4.11-2.5,0-2.34.66-4.42,3.63-4.42Q916.1,360.32,937.93,360.31Zm46.58,6.86c-2.43-.05-6,1.11-5.7-3.6.23-3.74,2.9-3.24,5.37-3.24,14,0,28,.13,42-.09,3.68-.05,6.23,1,6.1,4.66-.14,3.84-3.67,2.34-5.77,2.38-7.12.19-14.26.07-21.4.07v-.13C998.23,367.22,991.37,367.32,984.51,367.17Zm41.76-14.79c-1.62,4.35-11.91.76-18.33,1.3-4.1.34-8.24.1-12.36.09-1.61,0-4.33.36-4.46-1.13-.93-10-6.64-4-10.1-2.85-19,6.33-19.65,5.82-19.7-13.91,0-6.37,1.09-9.23,8.45-8.78,12,.72,24.13.19,36.66.19a11.39,11.39,0,0,1,0,2.37c-.89,3.45-6.29,7.31-2.4,10,4.34,3,5.83-3,8-5.85,1.48-2,2.92-2.34,4.51-.17a4,4,0,0,1,.35.75C1019.57,340.91,1028.4,346.64,1026.27,352.38ZM973,363.81c.2,5.28-4.46,2.43-6.17,3.71-3-.12-5.71.28-5.71-3.55,0-4.34,3.06-3.66,5.75-3.71S972.85,359.83,973,363.81Zm29.52-42.68c-5.73-.53-11.53-.11-17.31-.11v0c-6.31,0-12.64-.17-19,0-3.59.13-5.06-1.25-4.72-4.76.05-.55,0-1.09,0-1.66.1-7.09-2.47-16.35,1.05-20.72,3.76-4.66,13.4-1.33,20.46-1.38,21.23-.13,20.92.07,25.61,21.06C1010.09,320,1009,321.73,1002.52,321.13ZM931.43,236c6.53-.56,13-1.94,19.5-2.65,2.47-.27,7.17-2.27,5.93,3.18-1,4.41,5,11.68-4.52,13-5.7.79-11.46,1.2-17.21,1.73-2.34.24-4.44.55-4.38,3.67.07,3.52,2.69,3,4.73,2.78,10.4-1.18,20.79-2.2,31.27-1.72,4.39.18,8.78.54,13.14,1.09,2.29.28,4.65.94,5.32-2,.74-3.38-1.73-4.21-4.39-4.47-4.66-.45-9.33-1.33-14-1.11-7.75.36-5.57-4.92-5.52-8.93s-1.2-8.8,5.9-7.67c8.68,1.37,17.41,2.45,26.16,3.31,3.66.35,3.78,2.55,3.63,5.11a116.85,116.85,0,0,0,4.62,39.09c1.34,4.66-.83,5.6-5,5.53-11.84-.18-23.69-.06-35.53-.06v0c-11.83,0-23.68-.25-35.51.13-5,.15-5.51-1.46-4.34-5.68,3.53-12.5,5.41-25.27,4.54-38.27C925.5,237.57,927.34,236.33,931.43,236ZM587.67,279.45c39.85-10.67,80.19-19.25,120.78-26.7,44.68-8.19,89.62-14.67,134.82-19.17,20-2,40.05-4.26,60.22-3.86,7,.13,13.84-3.23,23.44,0-8.68,2.29-7.95,7.62-7.76,12.54,1.05,25.35-8.41,48.81-12.31,74.85-3.91-4.28-3.36-9.59-8.53-11-3.23,5.68-.49,11,1.81,15.92,2,4.35,1.64,7.35-1.21,11.18a99.2,99.2,0,0,0-16.19,32.14c-6.64,23.16-23,37.78-46.73,39.42-21.32,1.48-35.15,10.21-43.49,29.16-4.82,11-13.1,15.31-25.14,14.12-8.47-.83-17.1-.44-25.63,0-5.62.3-6.81-1.76-6.76-7.06.26-31.71.2-63.41.15-95.12,0-36.37-27.58-58.58-63.19-51.23-19.92,4.11-39.92,7.87-59.87,11.92a22.08,22.08,0,0,1-19.31-4.78c-1.71-1.39-4.18-2.46-3.93-4.92.3-2.78,3.2-2.35,5.19-2.93,4-1.12,8-2.17,11.84-3.49,2.57-.88,6.38-2,5.72-5-.8-3.46-4.63-1.92-7.13-1.34a105.89,105.89,0,0,0-14.24,4.11c-3.93,1.51-6.08,1.16-7.43-3.21C581.3,280.11,585,280.15,587.67,279.45ZM827.46,493.6h-.4q0,36.75,0,73.52c0,2.26,1.59,5.31-1.79,6.37s-5.1-1.46-6.38-4c-5.21-10.29-10.52-20.56-15.42-31-4.17-8.86-9.67-15.39-20.54-14.64-3.6.24-4.74-1.53-4.71-5,.15-19.83.22-39.66.1-59.49,0-3.64,1.21-4.87,4.72-4.75,11.47.36,19-5.31,24.36-15.2,3.89-7.24,8.69-14,13.22-20.87,1.22-1.87,3.11-3.74,5.36-3.23,3.19.73,1.45,3.63,1.46,5.55C827.5,445.13,827.46,469.37,827.46,493.6Zm-92.07-10.09c-.35-.76.33-2.9.78-3,9.21-1.56,3.77-7.62,3.71-11.95,0-1.27-1.08-2.75.71-3.44s2.3.76,3.15,1.87c2.71,3.58,1.32,8,2.55,11.94,3.11-7.91,1.29-13.21-9.33-24.58,11.63,0,21.83,0,32.06,0,3.59,0,2.73,2.73,2.73,4.75,0,19.53,0,39.08,0,58.63,0,3.53-.5,5.7-4.84,5.57-8.76-.24-17.54-.07-27-.07,1.59-5.93,8.3-8.75,6.56-15.26-3.3,2.35-3.37,7.14-7.21,8.77-.71.46-1.33,1.87-2.32.77s.35-1.57,1-2.15c2.17-3.63,2.68-7.69,3.06-11.78.13-1.34.8-3.49-.54-3.79C729.19,497.36,737.74,488.73,735.39,483.51Zm1.9-22.56c.37-.23,1.51.75,2.29,1.16,1,.88,1.87,1.94.35,2.93-1,.67-1.79-.18-2.24-1.16S735.7,462,737.29,461Zm3.88,68.47c4.65.38,9.36.08,14.05.08v-.08c3.31,0,6.62.13,9.92,0,11.6-.58,19.33,4.34,23.64,15.3,3.21,8.15,7,16.11,11,23.91,2.64,5.12,1,6.08-4,5.88-8-.33-16,0-24-.45-20.05-1.11-36.25-18.55-36.74-38.71C735,530.41,736.5,529,741.17,529.42Zm50.72,3.76c8.87,11.81,13.8,25.73,21.42,39.06C806.77,570.14,799,556,791.89,533.18Zm3.35-89.26c4.79-8.83,9-18,16.42-25.08C806.62,427.54,802.73,436.91,795.24,443.92Zm-66.53,46.27h0c0,8.53-.2,17.08.08,25.6.18,5.21-1.56,7.43-7,7.37-17.71-.25-15.52,3.71-16.36-15.24a353.9,353.9,0,0,1,1-47.85c.48-5.23,2.35-6.72,7.17-5.7a16.66,16.66,0,0,0,4.94.17c8.08-.73,10.72,3.21,10.32,10.87C728.38,473.64,728.71,481.92,728.71,490.19ZM341.13,524.9C332,530.4,328,538.56,328.05,549c.07,9.35-.14,18.71.05,28.07.09,4.6-1,6.82-6.34,7.09-17.51.83-17.58,1.06-17.1-16.52.18-6.31.5-12.66,1.25-18.92,2.43-20.49,19.1-32.37,40.38-28.49C345.32,523.36,342.93,523.82,341.13,524.9Zm78.47,6a74.53,74.53,0,0,0-14.86-.09c-17.25,1.61-32.35-2-47.25-12.11-19.31-13.05-41.06-5.68-56.31,16.22a5.56,5.56,0,0,1-1.19,1c-.76,14.55-1.62,29.11-2.22,43.67-.16,3.66-1.52,4.8-5,4.44-15.44-1.61-28.3-8.43-39.23-19.19-2.15-2.12-2.44-4.88-2.32-7.67.27-7.14.63-14.28,1-21.42-.31-13.5-.25-27.08,2-40.35,7.17-41.35,38.05-69.91,80.59-75.36,9.26-1.19,18.49-2.85,27.8-3.58,26.34-2.1,44.68,12,49.55,37.67,4.39,23.19,8.7,46.4,13.16,69.58C426.21,528.59,425.93,531.61,419.6,530.93ZM772.76,836.74c-21.22,5.8-42.19,13-64.34,14.25-30.34,1.77-59.86-2-87.67-15.16-1.73-.38-3.7-.18-4.79-2.05-1.09-.57-2.19-1.15-3.3-1.71-1.35,0-2.68-.08-3.33-1.57-10.9-5.07-21.13-11.15-29.91-19.47a4.41,4.41,0,0,1-3.53-2.73c-27.5-21.8-45.71-50-57.57-82.74-20.56-56.75-41.5-113.38-62.26-170.07-.36-1-.51-2.1-.78-3.14-.39-.8-.77-1.59-1.17-2.37-3.86-7.59-8.88-14-17.4-16.7-3.53-1.13-3.92-4.16-4.47-7.19-4.54-24.9-8.88-49.85-13.73-74.68-5.5-28.13-27.59-44.42-56.41-41.7a292,292,0,0,0-42.39,6.64c-42.56,10.49-71.17,45.25-73.34,89-.58,11.56-.85,23.16-1.45,34.72-.13,2.53,1.05,5.47-2.33,8.56-5.34-17.52-13.15-33.76-13.9-51.72-.76-18.73,0-37.52-.31-56.27-.1-5.78,2.23-9.26,7-11.95C316.13,383.25,399,342.44,486.76,312.1c3.23-1.11,7.67-4.75,9.49,1.36,1.33,4.46,5.17,9.79-2.32,13.39-4.15,2-7.75,5.21-11.46,8.06-2,1.56-4,3.95-2.14,6.3s3.8-.45,5.53-1.41c3.57-1.95,5.9-5.86,10.76-6.66.79,4.86-2.77,7-5.6,9.18a80.8,80.8,0,0,1-13.82,9c-2,1-5,9.22-8.07.4-.39-1.09-2.37.35-3.38,1.28-8.35,7.57-13.41,17.38-18.48,27.17-.78,1.5-1.2,3.54.38,4.54s3.41-.27,4.34-1.54c3.13-4.36,6-8.88,9.65-14.32v29.47c0,29.52.12,59.05,0,88.57-.08,14.26,7.42,26.25,11.17,39.38.89,3.16,2,6.27,3,9.4a62.83,62.83,0,0,1,6,16.7q7,19,13.94,37.91a45.05,45.05,0,0,1,4.78,13.22q18.57,47.58,34.79,96c3.22,5.15,4.54,11,6.46,16.68,3.73,10.87,9.21,20.41,19.67,26.25,3.72,0,4.42,2.4,4.42,5.46,0,2.44,0,4.89.18,7.34.14,1.91.32,4.14,3,4.06,2.88-.1,1.94-2.6,2.37-4.31,1-4-3.63-11.84,6.49-9.9,13.21-.7,26.41-1.08,39.58.49,3.85.47,7.64,1.1,10.55,4,9.36,5,12,14.67,15.64,23.45,9.68,23.39,26.69,38,51.41,43.29,12.06,2.59,24.12.95,36.06-1.44,6.48-1.29,12.92-2.68,19.42-3.93,8.38-1.62,15.84.19,22.13,6.18,3.28,3.13,6.13,6.12-.41,8.9-1,.41-1.39,2.12-2.06,3.21a9.76,9.76,0,0,0,1.63,1.21c2.61,1,7.24-1.85,7.85,2.11S775.33,836.05,772.76,836.74Zm180-20.49a705.56,705.56,0,0,0-77.41,5.15c-3.33.41-5.06-.22-5.87-3.76-3.15-13.68,5.8-27.22,19.7-28.84,9-1.06,18.11-1.38,27.17-2,0,.12,0,.22,0,.31,4.68-.29,9.35-.71,14-.89,12.27-.46,9.59-2.53,10.39,10.07.24,4-1,5.62-5.06,5.14a27.06,27.06,0,0,0-5.76.05,3.84,3.84,0,0,0-3.75,3.74c-.13,3.12,2.46,2.32,4.18,2.32,7.44,0,14.88,0,22.3-.26,3.44-.12,5.1.73,5,4.49C957.57,815.24,956.36,816.18,952.72,816.25ZM952,801.59c-5.88.15-5.17-3.32-4.92-6.84.26-4.11-2.24-9.55,5.93-9.36s2.52,6.19,4.36,8.08C958.1,798.46,957.79,801.45,952,801.59Zm9.57-8.39c-.21-3.51-1.85-7.5,4.82-7.73,7.74-.28,5.4,4.77,6,10,.6,2.78.78,5.83-5.33,6C959.83,801.67,961.8,796.85,961.58,793.2Zm88.35,23.73c-.84,4.3-3.15,5.41-7,4.93a732,732,0,0,0-77.31-5.6c-3.48-.06-3.88-1.93-4.11-4.73-.28-3.4,1.23-4.29,4.29-4.28,7.16.09,14.31,0,21.47,0,2.34,0,4.74-.25,4.62-3.28-.11-3.23-2.73-2.66-4.93-2.66-7.29,0-11-6.1-8.27-13.11,1.16-2.9,3.48-2.23,5.55-2.17,6.31.22,12.64.6,19,.9,9.31.73,18.69.11,28,1.93C1044.63,791.48,1052.58,803.43,1049.93,816.93Zm68.8,2.28c-2.17-.82-6.84-2.32-7.6,1.88-.75,4,3.39,4.19,6.34,4.75.28,0,.53.13.81.2,15.86,4,15.79,4,10.87,19.7-1,3.29-2.47,4.32-6,3.48q-32.52-7.82-65.13-15.21c-3.27-.75-4-2.31-3.67-5.15.2-1.64.38-3.28.58-4.93.83-6.64.7-12.42,11.17-7.81,8,3.51,17.78,3,26.79,4.1,1.85.24,4.25.42,4.5-2.25a3.62,3.62,0,0,0-3.43-4c-11.91-1.53-23.62-5.46-35.88-3.25-1.84.51-1.57-.75-1.54-1.81-.07-1.67-.15-3.33-.21-5-4.56-14.2-14.35-21.42-29.19-22.22-15.64-.84-31.28-1.92-46.9-2.9-2.21,0-4.39.15-6.6.15-6.28,0-14.28,2.7-14-9.16-1,11.55-9,9-15.37,9.1-17.91.25-35.75,1.44-53.59,3-11.4,1-19.7,6.11-25.61,15.62-.45,11.28-7.57,13.12-17.17,13.19-7.33.06-14.69,2-22,3.18-2.37.4-4.23,1.79-3.73,4.49.37,2,2.25,2.38,3.94,2,11.72-2.6,24.11-1.71,36-7.27.88,5.43,1.66,10.68,2.58,15.93.62,3.45-1.42,4.06-4.14,4.69q-32.52,7.63-65,15.51c-1.9.46-3.71,1.54-4.48-1.38-1.43-5.3-3.09-10.55-4.23-15.92-.78-3.62,2.64-3.67,4.84-4.25,4.5-1.21,9.09-2.08,13.63-3.17,2-.48,3.7-1.32,3-3.94-.6-2.25-2.63-2.25-4-1.72-13.4,5.45-22.71.91-31.67-10-5.37-6.49-15.08-5.87-23.44-4.39-10.29,1.82-20.46,4.41-30.82,5.8-29.24,3.92-54.78-10.34-67.31-37.21-2.32-5-4.07-10.21-6.09-15.32-7.76-14.95-20.76-20.12-36.76-19.87-9.61.14-19.25-.28-28.85.22-5.94.3-9-1.14-8-7.61a20.26,20.26,0,0,0,0-4.92c-.16-1.77.43-4.12-2.5-4.32s-2.5,2.14-3,3.89c-.85,3.32,2,8.9-1.53,9.64-4.82,1-7.87-4.42-10.1-8.23-7.39-12.59-10.8-26.87-16.12-40.35-1-2.54-1.56-5.24-2.32-7.86q-12.55-30.84-22.66-62.57-14.34-39-28.7-78.06c-4.75-12.85-9.46-25.73-14.26-38.55a35.75,35.75,0,0,1-2-12.95c.05-35,.27-70.06,0-105.08-.09-10.46,3.81-18.36,12.5-23.51,11.91-7.06,22.62-14.81,25.75-29.47.36-1.67,2.13-3.13,3.48-4.47,1.8-1.83,1.9-3.32-.5-4.49-10.67-5.21-7.9-17.08-12.53-25.33-1.32-2.37,1.69-2.79,3.48-3.37,21.69-7,43.41-14,65.08-21.1,3.74-1.23,5.5-.6,6.23,3.53A42.64,42.64,0,0,0,575,283.14c2.15,4.83,3.83,9.31-3.63,13,7,2.07,11.27,5.6,15.33,9.71,6.81,6.91,15.47,9.42,25,7.62,20.28-3.83,40.52-7.76,60.7-12,31.58-6.6,55.7,12,56.13,44.16.45,32,0,64,.26,96,0,5.3-1.72,7-6.61,6.33a12.82,12.82,0,0,0-1.64,0c-20.21.1-20.46.08-21.52,20-1,18.72-1.57,37.48,1.13,56.15.28,1.89.12,3.89,1.86,5.25,1.37,0,2.75,0,4.1,0,6.88,0,14.93-2.21,20.26.64,5.49,2.92,2.16,11.91,3.76,18.14,4.59,17.88,18.92,29.59,41.6,33.1l89.34.45c25-.23,50.12-.37,75.18-.75,4.09-.06,4.36,1.89,4.29,5-.1,5.23-.06,10.47.27,15.69.11,1.8,1,4,3.59,3.59,2-.3,2.42-2.08,2.46-3.79.11-5,.41-9.94.06-14.88-.35-4.72,2.12-5.28,5.9-5.6,4.59-.38,4.84,2.22,4.8,5.57,0,8.93,0,17.86,1.39,26.82,3.6-8.48,2.22-17.34,2.47-26,.1-3.1-.36-6,4.24-6.3,4.89-.36,7.19.9,6.75,6.25a94.16,94.16,0,0,0,.15,13.22c.18,3.49,1.54,5.93,5.74,4.39.14-6.06.58-12.14.29-18.19-.19-4,1.31-5.53,5.07-5.52,27.56,0,55.13-1,82.69.42q34.57-.25,69.15-.5c6.88,0,13.79.16,20.49-1.48,20.78-5.06,34.36-22.09,34.3-43.56,0-5.42,1.32-7.29,6.85-7,7.68.45,15.4.07,23.1,0,5.45-11.38,3.89-23.77,4.29-35.68.41-12.87-1.71-25.81-2.06-38.75-.16-6.16-2.86-7.2-8.13-6.86-6,.4-12.14-.11-18.21.17-4.15.2-5.86-1-5.83-5.48.2-33.37-.39-66.73.4-100.08.71-29.52,25-47.17,55-41.22,19.68,3.89,39.38,7.61,59,11.75,10.57,2.22,19.73-.15,27.48-7.36,3.83-3.56,7.54-7.07,13.6-8.81-4.93-4-4.77-7.89-2.17-12.51a38,38,0,0,0,3.76-10.87c.88-4.34,2.59-5.26,6.85-3.87,20.59,6.81,41.23,13.5,62,19.84,6,1.84,7.44,4.39,4.36,9.86-3.86,6.83-1.69,17-11.45,20.63-1.28.48-1.37,2.07-.51,3.54,7.87,13.58,14.24,28.06,30.21,35.09,9.48,4.14,12.51,13.4,12.5,23.41-.07,33.91-.3,67.82-.27,101.75,0,16.25-8.35,30-12.79,45a84.45,84.45,0,0,1-3.83,9.08c-9,26-18,52.06-28.27,77.63q-16.71,46.59-33.39,93.16c-2.68,7.51-4.68,15.36-10.22,21.46-2,2.17-4,5.61-7.15,4.77-3.6-1-1.13-4.72-1.56-7.21s.28-6.34-3.69-6.13c-4.54.23-2.56,4.41-2.29,6.48,1,8.13-1.48,11-10.22,10.42a200.76,200.76,0,0,0-36.35.51c-13,1.53-21.85,8.39-27.3,19.95-2.22,4.74-4,9.67-6.11,14.45-12,26.6-38.44,41.26-67.28,37.09-8.41-1.23-16.73-3.3-25.08-5-11.93-2-24.78-4-33,6.78C1135.7,821.38,1128.8,823.09,1118.73,819.21Zm71.92-329.81h-.05c0-7.16,0-14.3,0-21.46.1-8.88,4-13.17,13-13.28,14.23-.19,12-2.84,13.17,11.59a325.84,325.84,0,0,1,.19,49.4c-.47,6.33-2.57,9.13-9.13,7.79-2.4-.48-4.94-.28-7.41-.42-6.67-.34-9.92-3.72-9.79-10.53C1190.78,504.8,1190.65,497.1,1190.65,489.4Zm424.16,92.32c-5.52,5.23-12.26,1.36-18.39,2.35-3.88.65-5.3-1.52-5.23-5.33.13-8.8-.37-17.61.06-26.39.65-12.74-3.43-22.62-15.22-28.6-1.13-.56-2-1.64-3.93-3.31,21.72-3.88,38.82,7.69,41.42,27.57,1.37,10.58,1,21.4,1.39,32.1C1614.92,580.66,1615.09,581.45,1614.81,581.72ZM1665,565.29a65.05,65.05,0,0,1-37.56,18.8c-4.5.66-5.88-.58-5.86-4.92,0-6.86-.57-13.72-.55-20.58,0-8.31-.86-16.41-3.94-24.18-15.86-23.41-37.13-29-59.92-12.73-13.4,9.55-27.09,9.21-41.53,9-7.31-.08-17.28,3.36-21.09-1.54-3-3.83,1.31-13.45,2.6-20.46,3.1-17,6.92-34,9.36-51.14,3.41-24.17,20.42-45.18,51.64-41,13.07,1.76,26.3,3.06,39.09,6.1,38.58,9.11,65.26,40.57,68.84,80.08a245.79,245.79,0,0,1,1,33c.34,7.13.66,14.25,1,21.37A10.29,10.29,0,0,1,1665,565.29Zm25.74-80.9c0,19.29-7.25,50.53-14.81,63.85-2.8-2.4-1.56-5.58-1.67-8.3-.65-15.69.63-31.58-2.5-47-9-44.47-39.73-72.63-85.93-79.34-10.89-1.57-21.82-3.13-32.79-4-24.4-1.85-46,13.82-51.09,37.76-5.48,25.82-10.19,51.83-14.71,77.84-.83,4.71-2.22,7.27-6.69,8.88-4.71,1.69-8.3,5.3-11.65,9-8.06,15.77-11.83,33.23-19.5,49.15-13,36.17-25.87,72.38-39.09,108.46-8,21.87-15.11,44.08-27.7,64.08-38.85,61.64-113.07,95.69-184.52,84.54-18-2.8-35.18-8.24-52.46-13.52-2.64-.31-6.31-.43-5.78-3.81.44-2.8,3.81-1.29,6-1,2.47-.14,3.95-1,3-3.85-7.93-5-7.83-5.2-1-11.28,6.44-5.71,13.82-6.08,21.69-4.59,10,1.91,19.89,4.18,29.95,5.63a78,78,0,0,0,31.9-2.25c23.43-8.05,38.84-24.32,46.64-47.38,5.53-16.32,16.47-23.06,33-22.69,9.9.21,19.84.28,29.75-.17,5.22-.23,7.83.88,6.91,6.58a23.47,23.47,0,0,0,.08,5c.1,1.76.63,3.35,2.7,3.46a2.68,2.68,0,0,0,2.78-3.31c-1.8-10.67,5.4-15.32,12.69-20.38,5.12-3.54,7.62-9.26,9.73-15q22.23-61.14,44.54-122.25c.57-1.54,1.4-3,2.09-4.45,5.91-19.81,13.34-39.06,21.09-58.22,2.47-7.55,4.39-15.34,7.55-22.59,5.41-12.38,7.21-25.13,7.14-38.54-.18-35.08.53-70.17-1.11-105.95,4.39,4.11,6,9.21,9,13.3,1.05,1.41,2,3.88,4.43,2.58,1.74-1,1-2.8.38-4.42A78.27,78.27,0,0,0,1454,353c-.75-.76-1.48-2.17-2.6-1.31-1.66,1.31-2.24,5.3-5.37,2.6-7.34-6.33-18.47-8-22.48-18.36l-.68-1.82,2,.33c3.36,2.36,6.68,4.82,10.14,7,1.41.9,3.44,1.25,4.64,0,1.74-1.78.36-3.87-1-5-4-3.33-8-7-12.59-9.28-7.87-3.91-4.87-9.16-2.76-14.51,2.5-6.41,6.42-1.84,9.39-.8,87.29,30.65,170,71.12,250.51,116.33,5.5,3.08,7.86,6.74,7.69,13.09C1690.52,455.7,1690.81,470.05,1690.78,484.39Z"/><path class="cls-2" d="M1451.47,382c-.07,33.91-.3,67.82-.27,101.75,0,16.25-8.35,30-12.79,45a84.45,84.45,0,0,1-3.83,9.08c-9,26-18,52.06-28.27,77.63q-16.71,46.59-33.39,93.16c-2.68,7.51-4.68,15.36-10.22,21.46-2,2.17-4,5.61-7.15,4.77-3.6-1-1.13-4.72-1.56-7.21s.28-6.34-3.69-6.13c-4.54.23-2.56,4.41-2.29,6.48,1,8.13-1.48,11-10.22,10.42a200.76,200.76,0,0,0-36.35.51c-13,1.53-21.85,8.39-27.3,19.95-2.22,4.74-4,9.67-6.11,14.45-12,26.6-38.44,41.26-67.28,37.09-8.41-1.23-16.73-3.3-25.08-5-11.93-2-24.78-4-33,6.78-7,9.27-13.92,11-24,7.1-2.17-.82-6.84-2.32-7.6,1.88-.75,4,3.39,4.19,6.34,4.75.28,0,.53.13.81.2,15.86,4,15.79,4,10.87,19.7-1,3.29-2.47,4.32-6,3.48q-32.52-7.82-65.13-15.21c-3.27-.75-4-2.31-3.67-5.15.2-1.64.38-3.28.58-4.93.83-6.64.7-12.42,11.17-7.81,8,3.51,17.78,3,26.79,4.1,1.85.24,4.25.42,4.5-2.25a3.62,3.62,0,0,0-3.43-4c-11.91-1.53-23.62-5.46-35.88-3.25-1.84.51-1.57-.75-1.54-1.81-.07-1.67-.15-3.33-.21-5-4.56-14.2-14.35-21.42-29.19-22.22-15.64-.84-31.28-1.92-46.9-2.9-2.21,0-4.39.15-6.6.15-6.28,0-14.28,2.7-14-9.16-1,11.55-9,9-15.37,9.1-17.91.25-35.75,1.44-53.59,3-11.4,1-19.7,6.11-25.61,15.62-.45,11.28-7.57,13.12-17.17,13.19-7.33.06-14.69,2-22,3.18-2.37.4-4.23,1.79-3.73,4.49.37,2,2.25,2.38,3.94,2,11.72-2.6,24.11-1.71,36-7.27.88,5.43,1.66,10.68,2.58,15.93.62,3.45-1.42,4.06-4.14,4.69q-32.52,7.63-65,15.51c-1.9.46-3.71,1.54-4.48-1.38-1.43-5.3-3.09-10.55-4.23-15.92-.78-3.62,2.64-3.67,4.84-4.25,4.5-1.21,9.09-2.08,13.63-3.17,2-.48,3.7-1.32,3-3.94-.6-2.25-2.63-2.25-4-1.72-13.4,5.45-22.71.91-31.67-10-5.37-6.49-15.08-5.87-23.44-4.39-10.29,1.82-20.46,4.41-30.82,5.8-29.24,3.92-54.78-10.34-67.31-37.21-2.32-5-4.07-10.21-6.09-15.32-7.76-14.95-20.76-20.12-36.76-19.87-9.61.14-19.25-.28-28.85.22-5.94.3-9-1.14-8-7.61a20.26,20.26,0,0,0,0-4.92c-.16-1.77.43-4.12-2.5-4.32s-2.5,2.14-3,3.89c-.85,3.32,2,8.9-1.53,9.64-4.82,1-7.87-4.42-10.1-8.23-7.39-12.59-10.8-26.87-16.12-40.35-1-2.54-1.56-5.24-2.32-7.86q-12.55-30.84-22.66-62.57-14.34-39-28.7-78.06c-4.75-12.85-9.46-25.73-14.26-38.55a35.75,35.75,0,0,1-2-12.95c.05-35,.27-70.06,0-105.08-.09-10.46,3.81-18.36,12.5-23.51,11.91-7.06,22.62-14.81,25.75-29.47.36-1.67,2.13-3.13,3.48-4.47,1.8-1.83,1.9-3.32-.5-4.49-10.67-5.21-7.9-17.08-12.53-25.33-1.32-2.37,1.69-2.79,3.48-3.37,21.69-7,43.41-14,65.08-21.1,3.74-1.23,5.5-.6,6.23,3.53A42.64,42.64,0,0,0,575,283.14c2.15,4.83,3.83,9.31-3.63,13,7,2.07,11.27,5.6,15.33,9.71,6.81,6.91,15.47,9.42,25,7.62,20.28-3.83,40.52-7.76,60.7-12,31.58-6.6,55.7,12,56.13,44.16.45,32,0,64,.26,96,0,5.3-1.72,7-6.61,6.33a12.82,12.82,0,0,0-1.64,0c-20.21.1-20.46.08-21.52,20-1,18.72-1.57,37.48,1.13,56.15.28,1.89.12,3.89,1.86,5.25,1.37,0,2.75,0,4.1,0,6.88,0,14.93-2.21,20.26.64,5.49,2.92,2.16,11.91,3.76,18.14,4.59,17.88,18.92,29.59,41.6,33.1l89.34.45c25-.23,50.12-.37,75.18-.75,4.09-.06,4.36,1.89,4.29,5-.1,5.23-.06,10.47.27,15.69.11,1.8,1,4,3.59,3.59,2-.3,2.42-2.08,2.46-3.79.11-5,.41-9.94.06-14.88-.35-4.72,2.12-5.28,5.9-5.6,4.59-.38,4.84,2.22,4.8,5.57,0,8.93,0,17.86,1.39,26.82,3.6-8.48,2.22-17.34,2.47-26,.1-3.1-.36-6,4.24-6.3,4.89-.36,7.19.9,6.75,6.25a94.16,94.16,0,0,0,.15,13.22c.18,3.49,1.54,5.93,5.74,4.39.14-6.06.58-12.14.29-18.19-.19-4,1.31-5.53,5.07-5.52,27.56,0,55.13-1,82.69.42q34.57-.25,69.15-.5c6.88,0,13.79.16,20.49-1.48,20.78-5.06,34.36-22.09,34.3-43.56,0-5.42,1.32-7.29,6.85-7,7.68.45,15.4.07,23.1,0,5.45-11.38,3.89-23.77,4.29-35.68.41-12.87-1.71-25.81-2.06-38.75-.16-6.16-2.86-7.2-8.13-6.86-6,.4-12.14-.11-18.21.17-4.15.2-5.86-1-5.83-5.48.2-33.37-.39-66.73.4-100.08.71-29.52,25-47.17,55-41.22,19.68,3.89,39.38,7.61,59,11.75,10.57,2.22,19.73-.15,27.48-7.36,3.83-3.56,7.54-7.07,13.6-8.81-4.93-4-4.77-7.89-2.17-12.51a38,38,0,0,0,3.76-10.87c.88-4.34,2.59-5.26,6.85-3.87,20.59,6.81,41.23,13.5,62,19.84,6,1.84,7.44,4.39,4.36,9.86-3.86,6.83-1.69,17-11.45,20.63-1.28.48-1.37,2.07-.51,3.54,7.87,13.58,14.24,28.06,30.21,35.09C1448.45,362.68,1451.48,371.94,1451.47,382Z"/><path class="cls-1" d="M975.31,764.46c-5.85-7.3-3-15.94-2.67-23.75.39-8.63-1.84-11.37-10.14-9.39a12.89,12.89,0,0,1-5.65-.23c-9.72-2.23-9.71-2.28-9.76,7.48,0,6.88,0,13.76-.14,20.64,0,2.15.13,4.89-3,4.84-2.93,0-3.23-2.77-3.25-4.88-.09-9.63-.19-19.27.17-28.89.14-3.91.08-6.56-4.34-8.34-5.84-2.35-8.55-7.44-8.54-13.84,0-17.61,0-35.23.1-52.84,0-4.58,1.13-9.17,5.54-11.25,6.71-3.16,7.43-8.41,7.15-14.86-.16-3.46-1.83-9.6,2.83-9.77,5.22-.18,2.53,6,3.45,9.37.62,2.23-2.06,6.19,2.68,6.34,3.89.11,8-.31,8.12-5.84a27.51,27.51,0,0,1,.73-4c3.07.95,2.16,3.23,2.55,4.8,1.22,4.87,5.16,3.05,8.13,3.41,4.21.5,3.06-2.75,3.24-5,.27-3.51-.15-7.21,2.79-10,6.27,2.22,3,7.49,3.22,11.3.26,4.54,1,7.44,5.79,9.43,8.5,3.55,13.06,9.7,12.57,19.88a451.51,451.51,0,0,0,0,46.1c.51,9.49-3.38,15.54-11.18,19-6.21,2.74-7.49,6.6-7,12.77.58,7.09.11,14.27,0,21.4C978.65,760.89,979.53,764.13,975.31,764.46ZM957.84,649.18c4.53,3.52,3.65,6.77,3.67,9.69q.12,24.79,0,49.59c-.07,19.1.72,19.63,18.56,11,4.41-2.13,9.82-4.14,9.93-10,.33-18.45.39-36.92,0-55.37-.11-5.18-4.81-8.79-9.41-8.78-4,0-1,5-2,7.51-.1.24,0,.55-.08.81-.46,1.77-.26,4.33-2.86,4.2-2.36-.11-2.71-2.6-3-4.39-.38-2.42-.13-4.94-.27-7.41-.11-1.87.33-4.36-1.82-5.11-6.82-2.37-13.65-.73-20.27,1-5.44,1.44-2.54,6.45-3.34,9.86-.51,2.2,1.08,5.67-2.54,6-3.35.29-3.44-2.77-3.65-5.31-.12-1.55.1-3.65-2.21-3.71-1.91-.06-2.88,1.61-3.17,3.22a51.06,51.06,0,0,0-.8,8.19c-.13,12.94-.15,25.89-.2,38.84-.06,14.79,2.09,17.7,16,22.92,4.92,1.84,7.5,2.06,7.38-4.68-.33-17.62,0-35.26,0-52.89C957.86,659.87,957.84,655.32,957.84,649.18Z"/><path class="cls-1" d="M1348.72,615.6c2.77-.82,4,1.15,5.39,2.91,0,10.11.05,20.21,0,30.32,0,2.36.13,5.62-3,5.78-3.39.17-3.29-3.07-3.22-5.47C1348.13,638,1346.91,626.74,1348.72,615.6Z"/><path class="cls-1" d="M1347.88,687c0-4.93-.06-9.87,0-14.8,0-1.53-.25-3.51,2-3.82a3.16,3.16,0,0,1,3.84,3.29q0,16-.38,32c0,1.47-.53,3.6-2.77,3.3-1.76-.23-2.72-1.71-2.73-3.54C1347.86,698,1347.88,692.47,1347.88,687Z"/><path class="cls-1" d="M565.91,432.33c0-9,0-16.66,0-24.34,0-1.73-.85-4.22,2.17-4.44s3.83,2,3.62,4.34c-1.11,11.87,2.51,24-2.76,35.73-1.88,4.18-.25,9.05.88,13.71,3,12.38,4.14,25.42.17,37.38-6.82,20.56-33.15,29.06-54.69,18.93C505,508.75,498.09,502.3,499,489c1.11-15.86.22-31.87-.1-47.8-.1-4.86,2.56-7.6,5.82-10.25,16.1-13.13,35-14.46,52.93-3.73C560,428.62,562.29,430.08,565.91,432.33Zm-59.86,35.31c1.18-.64,1.82-.77,2.07-1.15,15.26-23.29,34.8-23.26,49.07.11.68,1.12,1,2.72,2.78,2.15s1.42-2.16,1.43-3.46c0-7.71-.11-15.43.06-23.13.08-3.23-1.64-5.21-3.87-6.84-8-5.86-16.81-9.8-26.84-8.51-9.65,1.24-20.67,3.72-24.1,13.18C503.72,448.1,506.05,458.1,506.05,467.64Zm26.26-11.42c-10.27.11-19.18,9.41-19.1,19.92.09,9.92,10,19.23,20.22,19,9.68-.2,19.16-9.69,19.26-19.27C552.79,465.29,543.27,456.1,532.31,456.22Zm-25.38,25.12c-4.58,15.86.7,23.65,18.52,28.78,11,3.15,28.92-.81,33.86-9.63,5.56-9.9,2.18-21.15.35-32.31.22,16.48-4.8,29.34-22.11,32.7C522.35,503.83,512.65,495.73,506.93,481.34Z"/><path class="cls-1" d="M530.35,315.79c-3.69.26-5.8.67-6.13-1.43s1.4-3.5,3.3-4.2q14.6-5.39,29.25-10.65c1.26-.45,2.8-.79,3,1.28s-.12,4-2.23,4.84C547.89,309.31,538.18,312.88,530.35,315.79Z"/><path class="cls-1" d="M572.49,539.18c-2.16,2.56,1.12,8.86-3.71,8.49-5.56-.44-1.94-6.88-3.81-10.17,1.52-7.57.62-15.25,1.08-22.87.12-2.09-.2-5.06,2.74-5.07s2.64,3,2.74,5.06C571.93,522.8,572.18,531,572.49,539.18Z"/><path class="cls-1" d="M571.67,318.23c0,4.66.08,9.31,0,14,0,2.16-.15,4.89-3.17,4.76-2.56-.1-2.42-2.67-2.42-4.49,0-10.13.14-20.26.26-30.39,0-1.65.08-3.59,2.32-3.61,2,0,2.69,1.53,2.77,3.36q.38,8.21.77,16.4Z"/><path class="cls-1" d="M566.19,369.21c0-5.19-.05-10.38,0-15.56,0-1.26.06-2.84,1.92-3s3.28.86,3.37,2.7a250.57,250.57,0,0,1-.12,33.56,2.3,2.3,0,0,1-2.73,2.33c-1.86-.31-2.64-1.8-2.65-3.6,0-5.46,0-10.93,0-16.39Z"/><path class="cls-1" d="M1419.87,469.09c0,8.54-.19,17.08.06,25.61.17,5.5-2,9.35-6.24,12.69-15.42,12.2-33,13.66-50.11,4.54-7.9-4.21-13.29-10.41-14.71-18.81-2-11.6-2.54-23.52.58-35.09,1.47-5.45,2.37-10.49.41-16-4.06-11.5-1.38-23.49-1.93-35.26-.08-1.67.27-3.34,2.65-3.22,2.62.14,3.14,2.14,3.21,4,.2,5.51.07,11,.24,16.53.06,2.11-1,4.84,1,6.17,2.37,1.6,3.82-1.37,5.51-2.4,17.9-10.86,35.84-10.26,52.56,1.64,4.42,3.14,6.91,6.81,6.83,12.32-.14,9.1,0,18.19,0,27.29Zm-7.1-.52c0-10.17.08-19.08,0-28,0-3.11-2.57-4.73-4.77-6.38a37.49,37.49,0,0,0-45.33.15c-3.37,2.53-5.09,5.22-5,9.61.23,16.25.2,32.51,0,48.77-.05,4.91,1.88,8.25,5.78,11.09,12.77,9.28,28,9.89,41.77,1.41,8.94-5.49,10.78-11,7.18-21.25-14.52,17.33-22.41,20.81-35.52,15.67-11-4.31-16.73-14-15.91-27,.68-10.74,8-19.32,19.06-22.27C1392.51,447.05,1401.78,452,1412.77,468.57Zm-26.45-12.37c-10.39,0-19.61,9.09-19.58,19.35,0,10.42,9.76,19.68,20.49,19.48,9.57-.17,18.61-9.68,18.58-19.53C1405.79,465.1,1396.81,456.22,1386.32,456.2Z"/><path class="cls-1" d="M1394.84,313.31c-.19,2.27-1.58,3.51-3.83,3-10.5-2.22-20.13-6.86-29.94-11-1.72-.73-2-2.5-1.65-4.22.52-2.39,2.32-1.92,3.86-1.39,9.57,3.26,19.12,6.54,28.64,9.94C1393.43,310.22,1394.91,311.22,1394.84,313.31Z"/><path class="cls-1" d="M1354.52,539.1c-.15,1.34-.26,2.69-.47,4-.34,2.12-.4,4.7-3.42,4.56s-2.74-2.73-2.85-4.87-.27-4.31-.41-6.46c.16-6.84.18-13.68.54-20.51.12-2.17-1.47-5.85,1.79-6.22,4.16-.46,4.22,3.62,4.34,6.51C1354.36,523.78,1354.38,531.44,1354.52,539.1Z"/><path class="cls-1" d="M1354,370.11c0,5,.12,9.92-.06,14.87-.07,1.81-.41,4.22-2.9,4.23-2.3,0-3.18-1.85-3.18-4,0-10.46,0-20.93.08-31.4,0-1.65.2-3.39,2.6-3.25s3.4,1.85,3.46,3.87c.16,5.23,0,10.46,0,15.69Z"/><path class="cls-1" d="M1348,317.71c0-4.94-.06-9.88,0-14.82,0-1.92.41-4.23,2.69-4.41,2.49-.19,3,2.06,3,4.07.14,9.87.33,19.75.25,29.63,0,2-.19,5-3.26,4.7-2.76-.26-2.82-2.94-2.84-5.16,0-4.67,0-9.34,0-14Z"/><path class="cls-1" d="M571.79,618.59c0,10.11.16,20.21,0,30.31,0,2.29.27,5.8-3,5.79s-2.94-3.47-3-5.79c-.05-10.1.07-20.21.13-30.31C567.92,612.54,569.86,615.4,571.79,618.59Z"/><path class="cls-1" d="M565.14,681.65c.33-2.91.57-5.85,1-8.75.28-1.87-.8-4.82,2.78-4.6,2.48.15,2.64,2.31,2.85,4.18s.25,3.75.37,5.62c-.22,8.24-.4,16.48-.67,24.72-.05,1.53.27,3.57-2,3.82-2.57.28-3.27-1.53-3.37-3.64C565.73,695.89,565.45,688.77,565.14,681.65Z"/><path class="cls-1" d="M571.49,582c0,4.91.06,9.83,0,14.74,0,1.52.06,3.46-2.24,3.63-2.65.18-3.2-1.74-3.2-3.74,0-10.37.09-20.75.18-31.12,0-1.65.07-3.38,2.53-3.21,2.1.15,2.79,1.54,2.81,3.31.06,5.46,0,10.92,0,16.39Z"/><path class="cls-1" d="M958.1,401.36V387.08l2.36-.09C961.19,391.81,962.74,396.59,958.1,401.36Z"/><path class="cls-1" d="M786.76,254.47c-2.2-.64-5.67,1.44-6.36-1.87-.77-3.7,2.89-4.24,5.45-4.64,9.17-1.44,18.39-2.6,27.59-3.84,2.16-.29,5-.86,5.55,1.84.69,3.15-2.33,4.16-4.68,4.54C805.15,252,795.94,253.17,786.76,254.47Z"/><path class="cls-1" d="M899.11,287.53c-.14,1.83.55,4.21-2.06,4.69-2.26.43-3.74-1.4-4.12-3.24-2-9.66-4-19.26-10.22-27.37a3.15,3.15,0,0,1,.57-4.46c1.75-1.33,3.07.23,4.2,1.31C895.71,266.4,897.87,276.78,899.11,287.53Z"/><path class="cls-1" d="M733.88,261.24c-2.4-.59-5,.82-5.42-2-.34-2.29,1.75-3.31,3.66-3.68q15.24-2.94,30.52-5.64c1.64-.29,3.71.18,4.1,1.92.6,2.67-1.43,3.9-3.76,4.31C753.06,258,743.13,259.64,733.88,261.24Z"/><path class="cls-1" d="M682.31,271.34c-2.18-.33-4.59.69-5.15-2-.62-3,1.79-3.89,3.88-4.31q14.49-2.89,29.07-5.38c1.72-.3,4.37-.66,4.49,2.08.09,2-1.78,3.59-3.66,4C701.29,267.73,691.59,269.54,682.31,271.34Z"/><path class="cls-1" d="M847.7,240.85c8.67,0,15.21.22,21.3,3.38,1.68.87,2.74,1.89,2.33,3.75-.49,2.23-2.47,2.11-4,1.65-9.94-3-20-2.59-30.19-1.78-1.71.14-4.12.62-4.27-2.39-.14-2.61,1.85-3.25,3.73-3.5C841,241.38,845.37,241.08,847.7,240.85Z"/><path class="cls-1" d="M657.41,270.74c1.72.54,4-.82,4.46,1.48s-1.45,3.32-3.39,3.81c-9.54,2.38-19.11,4.69-28.65,7.07-1.62.41-3.45,1.22-4.28-.78-1-2.34,1.09-3.53,2.74-4.11A156.14,156.14,0,0,1,657.41,270.74Z"/><path class="cls-1" d="M1106.66,244c9.11,1.28,18,2.5,26.94,3.8,2.77.41,6,1.16,5.34,4.72-.65,3.37-4.15,2-6.22,1.76-9-.93-17.87-2.14-26.75-3.56-2.47-.39-6.22-.87-5.48-4.62C1101.2,242.53,1104.73,245.2,1106.66,244Z"/><path class="cls-1" d="M1161.59,250.66c6.81,1.18,14.69,2.35,22.47,4,2.7.57,7.2.89,6.56,4.68-.58,3.43-4.74,1.75-7.13,1.48-7.9-.87-15.79-2-23.58-3.6-2.91-.59-8-.74-7.25-5C1153.39,248.28,1157.76,251.16,1161.59,250.66Z"/><path class="cls-1" d="M1071.89,247.78a51.18,51.18,0,0,0-19.43,1.59c-1.5.41-4.14,1.27-4.75-1.47-.41-1.84,1.29-2.79,2.77-3.58,10.62-5.63,21.82-3.32,32.9-2.35a3,3,0,0,1,2.75,3.44c-.19,2.34-2,2.32-3.59,2.35C1079,247.83,1075.44,247.78,1071.89,247.78Z"/><path class="cls-1" d="M1236.52,271.33c-8.76-1.73-18.13-3.54-27.48-5.47-2.23-.46-4.3-1.59-3.81-4.39s2.86-2.21,4.61-1.9c9.4,1.65,18.8,3.36,28.14,5.33,1.9.41,4.56,1.18,4.27,4.12C1241.9,272.59,1239.09,271,1236.52,271.33Z"/><path class="cls-1" d="M1036,256c2.18,3.3.64,5.66-1,7.85-5,6.8-8.44,14.1-8.64,22.72-.06,2.57-.94,5.8-3.71,5.58-3.56-.29-2.07-3.69-1.89-6C1021.73,274.11,1024.54,263,1036,256Z"/><path class="cls-1" d="M1263.37,270.92a185.72,185.72,0,0,1,27.57,7.09c1.48.49,3.47,1.49,3.08,3.33-.52,2.46-2.89,2.2-4.74,1.77-9-2.11-18-4.24-27-6.59-2.13-.56-5.74-.74-4.86-4.16C1258.12,269.67,1261.21,271.41,1263.37,270.92Z"/><path class="cls-1" d="M1347.86,580.27c0-4.66,0-9.32,0-14,0-1.89-.05-4,2.86-3.87,2.5.13,3.3,1.88,3.29,3.9-.07,10.14-.19,20.27-.48,30.4,0,1.76-.4,4.12-3.22,3.71-2-.3-2.43-2-2.45-3.73C1347.83,591.23,1347.86,585.75,1347.86,580.27Z"/><path class="cls-1" d="M466.94,536.75c-4.18,3.59-5.57-.63-7.7-2.75-2.88-8.28-5.89-16.5-8.55-24.84-.87-2.71-2.29-6.65,1.41-7.91,3.35-1.14,4.19,2.81,5.16,5.19C461.27,516.28,464.89,526.27,466.94,536.75Z"/><path class="cls-1" d="M433.53,429.84c1.76-8.83,3.54-18.26,5.54-27.64.44-2.06,1.39-4.94,4-4.35,2.07.47,3,3.08,2.57,5.51-1.84,10-3.67,19.95-5.64,29.91-.38,1.93-1.54,3.81-3.93,3.32C432.27,435.81,434.42,432.59,433.53,429.84Z"/><path class="cls-1" d="M448.77,483.51c-.15,1.42.69,3.72-1.86,4.44-2.33.67-3.75-1.06-4.41-2.81a124.29,124.29,0,0,1-7-30.27c-.23-2,.27-4.07,2.62-4.34,2-.23,2.83,1.76,3.21,3.22C443.9,463.53,446.26,473.35,448.77,483.51Z"/><path class="cls-1" d="M1458.52,537.38c-3,2.86-4.55,1.3-5.7-1.75,2.1-10.49,6-20.42,10.12-30.22.86-2,1.88-5.33,5.08-4,2.49,1,1.41,3.8,1,5.87C1466.89,517.79,1461.68,527.23,1458.52,537.38Z"/><path class="cls-1" d="M1485.54,429.56c-.67,2.5,1.71,6.95-2.75,7.2-3.75.21-3.56-4.15-4.13-6.95-1.64-8.07-3.26-16.15-4.61-24.26-.41-2.48-1.85-6.07,1.83-7.12,3.95-1.12,4,2.55,4.69,5.15C1482.68,412.1,1484.86,420.62,1485.54,429.56Z"/><path class="cls-1" d="M1483.69,456.62c-1.43,9.42-3,18.86-6.67,27.78-1,2.32-2.25,5-5.24,3.79-2.6-1.07-1.31-3.73-.81-5.79,2.17-9,4.31-18,6.57-27,.52-2.05.94-5,3.7-4.69C1485,451,1483.2,454.4,1483.69,456.62Z"/><path class="cls-1" d="M959.34,760.12c-2.29-5.52-1.5-10.62-.9-16.52C962.32,749.23,962.5,753.58,959.34,760.12Z"/><path class="cls-1" d="M540.24,750.09l2.06-.42c7.56,7.3,11.81,17.14,19,24.76,1.11,1.17,2,3.15,3.3,3.45,7.75,1.79,7.78,1.66,6.55,9.46l-2,3.13c-2.48-5.73-8.39-7.63-12.44-11.41C548.47,771.37,540.29,762.79,540.24,750.09Z"/><path class="cls-1" d="M467.3,552.47c3.71-1.24,6,.66,7.72,3.61,2.83,8,5.83,16,8.41,24.07.85,2.67,2.41,6.66-1.12,8.06-3.84,1.53-5-2.64-5.89-5.29C473,572.9,467.75,563.39,467.3,552.47Z"/><path class="cls-1" d="M526.07,703.19c3.16,9.33,6.35,18.66,9.48,28,.93,2.8,2.7,6-2.38,6.73-8.44-9.29-10.81-21.23-13.21-32.81C518.74,699.28,523,700.94,526.07,703.19Z"/><path class="cls-1" d="M486.77,601.1c6.42,1,4.5,8.13,8.18,11.15,2.05,6.49,4.19,13,6.11,19.5.68,2.31,1.45,5.42-1.53,6.41-3.17,1.05-3.94-2.19-4.81-4.37-3.12-7.86-6.32-15.71-9-23.71C484.71,607.22,483.18,603.68,486.77,601.1Z"/><path class="cls-1" d="M690.24,845.87c-5.82-.73-12.62-1.42-19.35-2.54-2.23-.38-5.34-1.23-4.54-4.6.71-3,3.54-1.93,5.55-1.78,9.81.74,19.62,1.6,29.42,2.45,1.87.17,4.15,0,3.92,2.91-.19,2.47-2.19,2.91-4.15,3.05C697.82,845.58,694.53,845.67,690.24,845.87Z"/><path class="cls-1" d="M518.92,681.91c-.13,3,.12,5.47-2.66,6.15s-3.8-1.6-4.53-3.68c-3.16-9-6.24-18.06-9.37-27.09-.69-2-.64-3.86,1.3-5.06,1.79-1.1,3.24-.14,4.06,1.45C512.49,662.94,515.62,672.85,518.92,681.91Z"/><path class="cls-1" d="M620.57,829.2l-4.35-2.57c-1.22-4.86,1.73-5.29,5-4.16,9,3.1,17.91,6.47,26.79,9.92,1.87.73,4.77,1.49,4.14,4.27-.73,3.29-3.92,2.6-6.12,2.2C637,837.2,628.94,832.74,620.57,829.2Z"/><path class="cls-1" d="M757.89,829.25c-.41,5.76-3.46,7.07-6.71,7.8-9.59,2.16-19.23,4.14-28.86,6.16-1.6.34-3.46.8-3.74-1.64a3.3,3.3,0,0,1,2.43-3.83C733.11,834.88,745.23,832.15,757.89,829.25Z"/><path class="cls-1" d="M584.78,807.79l-8.39-7.5c-1.13-1.83-2.69-3.53-3.29-5.51-.72-2.43,1-4.17,3.12-2.57,9.82,7.39,20.2,14.2,29.63,24.37C595.3,818.39,591.11,810.75,584.78,807.79Z"/><path class="cls-1" d="M1347.83,775.11c5.68,4.85,8.31,2.19,11.19-2,4.65-6.78,9.68-13.29,14.56-19.9,1.18-1.6,2.67-3.31,4.72-2.32,2.27,1.09,1.28,3.53.64,5.1-3.89,9.52-10.09,17.49-17.24,24.75-.72.73-2.18,1.77-2.67,1.51-4.75-2.6-5.26.18-5.55,3.92-.12,1.58-1,3.22-3.16,3.06s-2.45-1.85-2.48-3.53C1347.79,782.18,1347.83,778.64,1347.83,775.11Z"/><path class="cls-1" d="M1161.64,830.77c13.42.3,26.14,4,38.8,8,.41,2.44,1.36,5.48-2.93,4.67-10.77-2-21.69-3.4-32.1-7C1162.94,835.57,1161.29,833.72,1161.64,830.77Z"/><path class="cls-1" d="M1427.73,604.39c1.87-1.31,3-3.73,5.68-3.82,2,4.11.75,8-.71,11.92-2.59,6.91-5,13.89-7.73,20.74-.91,2.29-1.37,6.43-5.1,4.9-3.07-1.26-1.81-4.75-1-7.32,1.9-6,3.94-11.95,5.94-17.92C1425.77,610.05,1426.76,607.22,1427.73,604.39Z"/><path class="cls-1" d="M1214.4,839c13.1,1.36,26-2.53,39-1.85.48,3-.17,5.34-3.65,6.07a112.28,112.28,0,0,1-31.51,2.41C1213.49,845.23,1213,842.75,1214.4,839Z"/><path class="cls-1" d="M1400.81,682.55A151.69,151.69,0,0,1,1411.08,655c.81-1.59,2.05-3.91,4.2-3.12,2.58,1,2.07,3.53,1.34,5.66q-4.63,13.51-9.41,27c-.64,1.77-1.51,3.83-4,3.35C1400.15,687.26,1401,684.67,1400.81,682.55Z"/><path class="cls-1" d="M1399.8,705.84a195.32,195.32,0,0,1-10.94,29.44c-.89,1.88-2.61,3.05-4.76,2.27s-1.52-2.73-1.08-4.22c2.85-9.76,5.64-19.54,10.3-28.64.86-1.68,1.76-3.72,4.15-3.39C1400.4,701.71,1399,704.3,1399.8,705.84Z"/><path class="cls-1" d="M1317.09,817.25c-.29-.19-1.61-.56-1.88-1.31-.63-1.74.5-3.26,1.81-4.25,8.53-6.4,17.54-12.19,25.34-19.55a3,3,0,0,1,2.91-.27,3.49,3.49,0,0,1,.86,2.87C1345.41,799.63,1322.72,817.61,1317.09,817.25Z"/><path class="cls-1" d="M1267.59,834.08l6.54-3.19c7.62-2.69,15.23-5.42,22.87-8.06,2-.69,4.74-2.07,5.87.28,1.22,2.53-1.69,3.48-3.55,4.59a90.71,90.71,0,0,1-24.79,10.67C1271.93,839,1265.67,842.19,1267.59,834.08Z"/><path class="cls-1" d="M959.36,266.29c2.9,6.29,3.12,11.22.27,16.95C956.89,277.57,956.63,272.64,959.36,266.29Z"/><path class="cls-1" d="M1038.25,812.26l-27-3.11c-2.23-.26-4.75-.38-4.38-3.56.38-3.37,3-2.41,5.11-2.23,8.77.73,17.54,1.45,26.29,2.27,2.88.27,6.85-.22,6.47,4.29C1044.34,814.6,1040.42,811.36,1038.25,812.26Z"/><path class="cls-1" d="M900.34,803.87c3-.23,6-.53,9-.66,1.64-.07,3.61.07,3.81,2.12a3.34,3.34,0,0,1-2.71,3.61c-11.25,2.59-22.8,2.26-34.19,3.44-1.84.19-2.08-1.27-2.09-2.72,0-2.76,1.53-3.85,4.08-4.07,7.36-.62,14.71-1.29,22.07-1.94Z"/><path class="cls-1" d="M1435.37,582.76c3.24-9.34,6-19.15,10.68-28.25.85-1.66,2.2-3.53,4.53-2.36s1.88,3.4,1.27,5.14q-4.86,14-10.11,27.9c-.65,1.73-1.73,3.85-4.11,3.33C1434.6,587.86,1435.55,585.16,1435.37,582.76Z"/><path class="cls-1" d="M947,692.5c0,5,0,9.9,0,14.85,0,1.93,0,4.06-2.89,3.93a3.15,3.15,0,0,1-3-3.34c-.12-10.71-.07-21.43.06-32.14,0-1.89,1.38-2.9,3.37-2.62,2.15.29,2.46,2,2.47,3.65C947,682.06,947,687.28,947,692.5Z"/><path class="cls-1" d="M978.58,692.72c0,4.92,0,9.84,0,14.76,0,1.87.19,4-2.71,4a3,3,0,0,1-3.16-3.11,193.39,193.39,0,0,1,.55-32.73c.15-1.41.83-2.69,2.54-2.67,2.13,0,2.69,1.62,2.71,3.33.07,5.47,0,10.94,0,16.41Z"/><rect class="cls-2" width="1" height="1"/><rect class="cls-2" x="1919" y="1079" width="1" height="1"/><rect class="cls-2" y="1079" width="1" height="1"/><rect class="cls-2" x="1919" width="1" height="1"/></g><g id="Capa_3" data-name="Capa 3"><path d="M665.05,637.08V696H654.52V658.46l-10.35,7.91L635.59,673,627,666.37l-10.35-7.91V696H606.13V637.08l10.52,8.08,18.94,14.56,18.93-14.56Z"/><path d="M693.67,656.69v40.07H683.15V655.6a8.4,8.4,0,0,0-7.16-7.15h-2.36V638h2.28v.08a19,19,0,0,1,7.15,1.94,18.69,18.69,0,0,1,8.5,8.58,21.8,21.8,0,0,1,1.43,4,17.51,17.51,0,0,1,.51,4.29Z"/><path d="M739.12,637.08a19,19,0,0,1,19,19v20.78a19,19,0,0,1-19,19H720.94a19,19,0,0,1-19-19V656.11a19,19,0,0,1,19-19ZM720.94,647.6a8.63,8.63,0,0,0-8.59,8.59V677a8.63,8.63,0,0,0,8.59,8.58h18.18A8.62,8.62,0,0,0,747.7,677V656.19a8.63,8.63,0,0,0-8.58-8.59Z"/><path d="M820.51,666.29a17.38,17.38,0,0,1-12.45,29.46H783.9a17.29,17.29,0,0,1-16-10.61,18.21,18.21,0,0,1-1.35-6.81V654.17a17.05,17.05,0,0,1,4.38-11.36,17.77,17.77,0,0,1,5-4,16.71,16.71,0,0,1,7.91-1.93h36.61v10.52H783.9a6.93,6.93,0,0,0-6.9,6.9v8.25a17.29,17.29,0,0,1,6.56-1.35h24.83a17.38,17.38,0,0,1,12.21,5.3ZM808,685.23a6.93,6.93,0,0,0,6.9-6.9,6.86,6.86,0,0,0-6.48-6.91H783.56a6.91,6.91,0,0,0,.34,13.81H808Z"/><path d="M892.82,637.08V696H882.3V671.76H851.24a16.68,16.68,0,0,1-7.91-1.93,17.21,17.21,0,0,1-9.43-15.41V637.08h10.52v17.34a6.93,6.93,0,0,0,6.9,6.9h31.06V637.08Z"/></g></g></svg>