<svg xmlns="http://www.w3.org/2000/svg" viewBox="0 0 1920 1080"><defs><style>.cls-1{fill:#f2f2f2;}.cls-2{fill:#020202;}</style></defs><g id="Capa_2" data-name="Capa 2"><g id="Capa_1-2" data-name="Capa 1"><path class="cls-1" d="M1675.7,549c-.07,13.31-6.76,20.36-20.74,20-15.77-.35-31.53.32-47.3-.14-31.46-.95-55.53,12.86-72.17,38.33-10.83,16.61-23.93,23.33-43.56,22.56-30.3-1.15-60.68-.35-91.06-.35-50.94,0-80.58,40.26-64.78,88.61,6.69,20.46,14.33,40.61,21.62,60.86,2.66,7.36,4.8,14.79-1.37,21.3s-14.08,6.94-22.6,4.45c-43.06-12.72-87.1-21.26-130.89-30.72a1492.23,1492.23,0,0,0-228.93-21.27c-9.85-.14-12.76-3.33-12.37-13,.73-18.5.21-37-3-55.63,0,18.43-.49,36.89.21,55.28.39,9.32-1.44,13.63-11.91,13.35-16.78-.45-33.64.49-50.46.88a1507.75,1507.75,0,0,0-251.87,35.84c-19.84,4.56-39.46,9.95-59,15.45-8.62,2.39-16.22,1.89-22.39-4.8s-4-14-1.09-21.3c3.61-9.11,7.15-18.25,10.72-27.4,2.56-8.16,4.38-16.68,7.82-24.45,9.84-22.43,10-44.43-.74-66.47-16.12-22.81-38.08-32.09-65.9-31.08-29,1.09-58.16-.52-87.17.56-20.46.74-34.83-6.27-43-25.19-21.17-26.2-48-38.85-82.17-35.88-12.68,1.13-25.54.22-38.33.18s-19.37-6.55-19.3-19.34c0-12.16.42-24.35.63-36.51-.25-18.08-.6-36.16-.74-54.24-.07-12.71,6.14-19.48,19.17-19.41,16.92,0,33.88-.56,50.77.25s27.15-6.41,30-22.6c1.82-10.41,7.29-15.73,16.4-20.36,167.3-84.89,345.46-128.37,532.06-138.67,22.36-1.23,45.59-9.78,67.84,1.89,170.63-8.55,332.88,29.68,491.39,88.4,36.65,13.56,71.51,31.22,106.82,47.75,9.64,4.49,15.73,10.13,17.7,21.48,2.59,15,12.16,22.85,28.59,22s32.69.24,49-.25c14.47-.42,22,5.64,22.08,20.36C1675.67,489.46,1675.91,519.21,1675.7,549Z"/><path class="cls-2" d="M993.16,784.08c31.11.69,62.08,5.82,92.73,10.52,56.38,6.9,111.21,20.49,163.24,43.09,31.67,13.77,63.8,21.23,98.17,18.92,15.17-.17,30.38-1.33,45.48-.35,22.6,1.44,37.21-8.27,48.18-27.61,33.88-59.81,69.54-118.63,102.58-178.9,21.24-38.68,50.6-58.93,95.48-55.25,14.5,1.19,29.18.21,43.76.18,29.82,0,39.8.77,33.6-33-1.82-10-7.36-41-7.36-41-5-27.61-9.91-54.87-14.82-82.13-3.64-20.18-11-26.2-32.13-26.34-10.51-.07-21-.28-31.53-.11-6.59.14-12.65-2.1-13.42-8.55-2-15.73-14.4-20.21-25.65-25.93C1391,276.09,1178.43,223.81,953.74,223L834,228c-35.49,5.15-71.23,8.94-106.41,15.7C586.2,271,449.69,313.05,322,380.85c-8.86,4.69-17.34,9.14-18.85,20.95-.94,7.18-6.51,10.48-14,10.34-10.51-.21-21-.07-31.54,0-21.3.14-28.17,5.61-32,26.1-4.52,24.07-8.76,48.14-13.21,72.21l-10.44,56.27c-.28,10.72,2.77,19.13,10.62,26,30,4.83,60.19,1.05,90.25,2.13,7,.25,13.52.67,20.18,3.72,25.79,11.87,45.2,29.5,54.69,56.86,4.56,7.32,9.29,14.61,13.67,22,5.64,9.53,14.47,18.78,15.66,28.87,1.37,11.28-12.26,17-19.79,24.38-8,8-.46,13.77.7,20.5,6.65,10.76,14.22,21.09,19.72,32.41s11.18,15,24.18,10.65c23.47-7.78,23.82-6.8,35.56,16.29,9.56,11.64,14.05,26.6,25.44,37.11l9.18,7.08c42.49,0,81,.56,123.53.84,15.53-6.45,30.91-13.28,46.6-19.2,43-16.26,86.37-31.12,132.34-36.62,48.24-11.31,97.48-14.83,146.7-16.29C961.62,783.25,982.56,783.84,993.16,784.08ZM977.24,237.83c166.92,1,327,36.4,482.46,95.54a1102.23,1102.23,0,0,1,130.23,59.25c5.54,3,11.28,5.05,13.14,12.68,3.71,15.35,14.68,21.27,30.06,20.64,10.51-.42,21,.07,31.54-.07,9.63-.14,15.45,3.47,15.24,17.8-9.78-12.3-21.13-11.18-32.24-11.07-9.32.07-18.67,0-28,0-28.66-.1-28.8,0-39.28-26.24-3.12-7.78-9.28-11.53-16.15-15-119.9-60.61-246.31-101.05-378.75-123.16C1116.34,256.61,1046.69,251,976.72,248c-5.08-.21-14.16,3.54-14.37-4.62C962,233,972.16,237.79,977.24,237.83ZM1451.4,348.37c36.65,13.56,71.51,31.22,106.82,47.75,9.64,4.49,15.73,10.13,17.7,21.48,2.59,15,12.16,22.85,28.59,22s32.69.24,49-.25c14.47-.42,22,5.64,22.08,20.36.07,29.78.31,59.53.1,89.31-.07,13.31-6.76,20.36-20.74,20-15.77-.35-31.53.32-47.3-.14-31.46-.95-55.53,12.86-72.17,38.33-10.83,16.61-23.93,23.33-43.56,22.56-30.3-1.15-60.68-.35-91.06-.35-50.94,0-80.58,40.26-64.78,88.61,6.69,20.46,14.33,40.61,21.62,60.86,2.66,7.36,4.8,14.79-1.37,21.3s-14.08,6.94-22.6,4.45c-43.06-12.72-87.1-21.26-130.89-30.72a1492.23,1492.23,0,0,0-228.93-21.27c-9.85-.14-12.76-3.33-12.37-13,.73-18.5.21-37-3-55.63,0,18.43-.49,36.89.21,55.28.39,9.32-1.44,13.63-11.91,13.35-16.78-.45-33.64.49-50.46.88a1507.75,1507.75,0,0,0-251.87,35.84c-19.84,4.56-39.46,9.95-59,15.45-8.62,2.39-16.22,1.89-22.39-4.8s-4-14-1.09-21.3c3.61-9.11,7.15-18.25,10.72-27.4,2.56-8.16,4.38-16.68,7.82-24.45,9.84-22.43,10-44.43-.74-66.47-16.12-22.81-38.08-32.09-65.9-31.08-29,1.09-58.16-.52-87.17.56-20.46.74-34.83-6.27-43-25.19-21.17-26.2-48-38.85-82.17-35.88-12.68,1.13-25.54.22-38.33.18s-19.37-6.55-19.3-19.34c0-12.16.42-24.35.63-36.51-.25-18.08-.6-36.16-.74-54.24-.07-12.71,6.14-19.48,19.17-19.41,16.92,0,33.88-.56,50.77.25s27.15-6.41,30-22.6c1.82-10.41,7.29-15.73,16.4-20.36,167.3-84.89,345.46-128.37,532.06-138.67,22.36-1.23,45.59-9.78,67.84,1.89C1130.64,251.42,1292.89,289.65,1451.4,348.37ZM254.29,425.87c12.23,0,24.5-.18,36.76-.14,11.88,0,20.7-5.4,23.93-16.57,2.52-8.76,7.71-13.25,15.24-17.14C485,312.14,649.4,263.86,822.17,244.27c41.06-4.66,82.65-4.66,124-6.55,4.52-.21,12.12-3.33,12.15,5.05s-7.7,5.15-12.19,5.29c-135.77,4.2-269,23.79-398.82,64.78-66.22,20.88-129.81,47.93-192.14,78.27-10.41,5.08-16.47,12.34-18.15,23.69-2,13.24-9.88,18.57-23.27,17.9-14-.7-28,0-42-.14-10.76-.07-21.69-1.19-31.64,9.85C240,429,245.47,425.83,254.29,425.87ZM429.2,787.31c-6.69,2-10.48,2-13.87-4.8-6-11.91-12.79-23.37-19.24-35-3.57-3.93-7.29-7.43-1.75-13,20.21-20.46,40.18-41.2,61.8-63.45,15.77,28.52,30,54.24,44.25,80,9.39,9.67,10.13,15.27-5.67,18.6C472.57,774.21,450.85,780.79,429.2,787.31Zm69.13-65.73c.73,1.44,1.47,2.84,2.2,4.24,1,1.37,2,2.7,3,4,14.58.21,25.4-6.52,31.54-19.2,4.86-10,.73-19.2-6.8-26.63-10.9-10.72-21.55-6.48-32.87.14-8.72,5.05-14.08,9.88-7.32,19.94.81,1.71,3.4,3.68.7,5.22-3,1.71-2.94-1.47-3.5-3.23-4.87-7.77-9-16.11-14.75-23.19-11.42-14.16-3.37-20.46,9.42-23.76,15.24-3.88,31.26-4.9,46.5-1.15,26.31,6.55,40.29,36.47,28.38,60.86-6.52,13.35-13,27.29-25.51,36.79-7.95,6.06-14.86,8.26-19.52-3.89-2.7-7-6.65-13.46-10-20.15-.66-1-1.29-1.89-2-2.87-.77-1.61-1.51-3.26-2.28-4.87-2.41-2-6-5.15-2.94-7.29C496.54,713.77,496.65,719.44,498.33,721.58Zm-5.43-24.53c4-7.6,11.63-11.56,19.58-12,11.6-.7,14.89,8.55,17.24,16.85-.81,12.34-10.41,15.35-18.18,19.77C509.19,723,491.28,700.14,492.9,697.05ZM1690.14,580.77c-22.71,0-45.44-.11-68.15.31-9.81.18-19.62,1.51-29.43,2.35-37.45,16.54-56.16,49.47-74.87,83.32-29,52.45-60.06,103.74-89.66,155.84-7.75,13.6-17.42,20.36-33.53,19.76-29.68-1.12-59.39-.87-89.1-1.19-6.9,2.38-12.48-1.54-18.19-4.1-103.67-46.91-213.82-67-326.19-67.23C854.72,769.58,749.93,787,651.19,830c-20.21,8.79-40.36,13.38-62.47,12.33-22.67-1.12-45.44-.28-68.18-.21-12.72,0-22.46-4.2-26-17.66-30.9-38.61-30.93-38.75,14.58-51.5,18.15-5.08,31.92-15.66,42.25-31.11,2.67-5.15,5.26-10.27,8-15.38,16.74-31.54,1.54-69.1-33.36-75-31.81-5.36-63.17-2.91-86.05,26.62-18.08,23.44-19,22.67-33.46-2.27-6.73-11.56-15.07-22.5-20-34.79-11.24-28.21-34.47-42.82-59.17-56.38-7.5-4.13-15.59-4.06-23.79-4-24.49.11-49,0-73.51.07-8.58.07-15.63-1.15-13.66-12.4,5.92-33.64,11.91-67.27,20.32-100.59q0,38.2,0,76.45c0,24,7.46,31.6,30.93,31.78,13.42.07,26.88.7,40.26-.14,31.71-1.93,55.22,12.26,71.9,37.59,11.21,17,25.43,23.79,45.37,23.27,31.5-.88,63-.35,94.49-.32,45.27.11,71.34,36.61,56.83,79.78-4.06,12.05-9,23.75-13.59,35.63-2.45,7.64-4.34,15.56-7.5,22.88-6,13.91-4.06,25.75,7.46,35.77a47.62,47.62,0,0,0,29,.32c116.05-33.5,234.68-50.17,355.31-51,101.43-.74,202,8.61,301.07,31.56,28.87,4.28,56.62,13.28,84.76,20.64,11.39,3,20.91,1.3,28.73-6.94,7.67-8.09,6.93-17.83,3.29-27.78-7.6-20.74-15.27-41.48-22.25-62.44-13.73-41.27,11.74-77.18,55.29-77.85,32.62-.49,65.31-.84,97.93-.07,19.51.46,33.18-6.69,43.69-23.12,12.26-19.24,28.87-33.36,52.73-36.37,20.25-3.43,40.68-1,61-1.54,21.34-.63,29.22-8.27,29.36-29.92.21-25,.07-50,3.12-75.33,6,33.11,12.16,66.15,17.76,99.33C1705.31,580.07,1697.74,580.77,1690.14,580.77Z"/><path class="cls-2" d="M454.42,509.63c-3,15.92-11.47,27-28.44,27.74-16.14.71-25.23-9.31-30-23.88,2.8-22.68,11.27-32.67,28.1-33.15C440.54,479.88,449.77,488.79,454.42,509.63Zm-28.24-22.36c-14.29.24-23.16,9.69-22.43,22.79.74,13.45,9.21,19.65,21.61,20.14,11.93.48,22.74-11.05,21.39-22.75C445.3,494.87,437.67,487.83,426.18,487.27Z"/><path class="cls-2" d="M1522.75,509c-.12,16.26-12.55,28.68-28.54,28.52a28,28,0,0,1-28.12-28.84c.2-16.53,12.2-28.42,28.53-28.29C1511.22,480.53,1522.87,492.38,1522.75,509Zm-28.35-21.72c-12.63,1.46-20.88,7.71-21,21.06-.16,13.11,7.26,20.72,20.14,21.92,12,1.11,22.81-9.67,22.15-21.72C1514.92,495.42,1507.23,488.74,1494.4,487.29Z"/><path class="cls-2" d="M1427.89,701.1c.31,13.44-9.05,23-22.76,23.33-13.47.29-23.3-9.21-23.4-22.62-.1-13.25,9.78-23.59,22.66-23.72A23.08,23.08,0,0,1,1427.89,701.1Zm-6.82,1.25c-.51-10.72-6.23-17-16.15-17.15-10.08-.19-16.23,6.09-16.13,16.43.1,9.37,5.47,15.27,15,15.69C1414.06,717.78,1419.84,712.25,1421.07,702.35Z"/><rect class="cls-1" width="1" height="1"/><rect class="cls-1" x="1919" y="1079" width="1" height="1"/><rect class="cls-1" y="1079" width="1" height="1"/><rect class="cls-1" x="1919" width="1" height="1"/></g><g id="Capa_3" data-name="Capa 3"><path d="M813.05,457v111H793.22V497.31l-19.51,14.91-16.18,12.53-16.18-12.53-19.51-14.91v70.75H702V457l19.83,15.22,35.69,27.44,35.69-27.44Z"/><path d="M867,494v75.5H847.14V491.92a15.8,15.8,0,0,0-13.48-13.48h-4.44V458.77h4.28v.16A35.42,35.42,0,0,1,863,478.75a42.36,42.36,0,0,1,2.7,7.46,33.47,33.47,0,0,1,.95,8.09Z"/><path d="M952.62,457a35.8,35.8,0,0,1,35.84,35.84v39.18a35.81,35.81,0,0,1-35.84,35.85H918.36a35.81,35.81,0,0,1-35.85-35.85V492.87A35.8,35.8,0,0,1,918.36,457Zm-34.26,19.82A16.25,16.25,0,0,0,902.18,493v39.18a16.25,16.25,0,0,0,16.18,16.18h34.26a16.25,16.25,0,0,0,16.18-16.18V493a16.25,16.25,0,0,0-16.18-16.18Z"/><path d="M1092.35,476.69a34.51,34.51,0,0,1,3.65,15.55V567.9h-19.83V490.33a15.81,15.81,0,0,0-13.48-13.48h-58.21V457h56.31a34.46,34.46,0,0,1,15.54,3.64,35.17,35.17,0,0,1,16,16.18Z"/><path d="M1182,457a35.8,35.8,0,0,1,35.85,35.84v39.18A35.81,35.81,0,0,1,1182,567.9H1147.7a35.81,35.81,0,0,1-35.84-35.85V492.87A35.8,35.8,0,0,1,1147.7,457Zm-34.26,19.82A16.25,16.25,0,0,0,1131.52,493v39.18a16.25,16.25,0,0,0,16.18,16.18H1182a16.25,16.25,0,0,0,16.18-16.18V493A16.25,16.25,0,0,0,1182,476.85Z"/></g></g></svg>