<svg xmlns="http://www.w3.org/2000/svg" viewBox="0 0 1920 1080"><defs><style>.cls-1{fill:#f2f2f2;}</style></defs><g id="Capa_2" data-name="Capa 2"><g id="Capa_1-2" data-name="Capa 1"><path class="cls-1" d="M1622.4,691.77c0,5.69-.29,11.26-2.48,16.63-5.64,13.78-16.4,20-30.68,20-38.92,0-77.82.32-116.73-.17-18.22-.23-36.5.23-54.75.24q-102.71,0-205.43,0c-7.13,0-13.85.66-19.22,6.17-2.6,2.66-6,1.74-9.28,1.31-4.93-.64-9.68-2.59-14.75-2.1-1.65.15-3.89-.43-4.33,1.86-.5,2.56,1.81,3.34,3.6,3.84,4.6,1.26,9.26,2.41,13.94,3.29,4.06.74,6,2.51,5.74,7-.35,7.38,0,14.78-.14,22.18-.2,11.92-4.84,16.6-16.7,16.62q-79.25.07-158.48,0a71.1,71.1,0,0,0-7.16.16c-5.82.62-9,3.92-9.37,9.8-.23,4.12-.81,8.27-.45,12.35.4,4.94-1.36,6.67-6.2,6.49-6.73-.26-13.49-.29-20.22,0-5.33.27-6.74-2.16-6.63-7,.23-9.34.07-18.69,0-28a43,43,0,0,0-.27-5.2c-.16-1.31-.65-2.68-2.19-2.85-2.06-.22-2.51,1.43-2.68,3a57.18,57.18,0,0,0-.23,5.86c0,9.35-.17,18.7,0,28,.07,4.4-1.52,6.32-6.08,6.21-7.18-.18-14.35,0-21.53.16-4.14.12-6-1.54-5.76-5.77.18-2.82.06-5.65.06-8.48,0-12-2.61-14.7-14.42-14.74q-29-.08-58-.06-51.21,0-102.39.05c-12.16,0-16.87-4.71-17-17-.08-7,.35-13.94-.15-20.87-.4-5.7,2.17-7.67,7.26-8.42a95.12,95.12,0,0,0,12-2.9c1.65-.46,3.58-1.33,3.25-3.47s-2.5-2.09-4.2-2a37.22,37.22,0,0,0-5.15.67c-8.34,1.55-16.56,4.5-23.82-3.61-3.08-3.45-8.55-2.44-13.12-2.44q-119.65,0-239.34-.08-67.76,0-135.54.06c-14.39,0-25.87-5-32.39-18.69a34.67,34.67,0,0,1-3.2-15.18q-.06-139.89,0-279.77c0-21.24,17.08-37.36,39.42-37.62,25-.29,50-.21,75,0,5.59,0,9.85-1.4,13.9-5.44q47.84-47.61,96-94.89a68.71,68.71,0,0,1,6.58-6.32c6.69-5,9.85-11.33,8.84-19.72-.6-4.88,1-6.6,6.59-6.43,18.67.55,37.39.68,56,.07,6.23-.2,7.43,1.6,7.31,7.1-.29,12.16-.22,24.35-.08,36.52.31,24.35,19.27,43.1,43.71,43.33,8.38.08,16.77,0,25.14,0,0,.59,0,1.19,0,1.78-5.24,1.3-10.5,2.54-15.72,3.93-2.34.61-5.1,1.56-4.37,4.6s3.59,2.5,6,2c6.34-1.46,12.7-2.9,19-4.53,2.91-.76,4.92-1.9,6.26-5.52,1.62-4.34,6.55-2.76,9.07-.45,2.79,2.57,5.45,2.44,8.35,1.7,12.77-3.22,25.74-3.53,38.82-3.5q94.23.16,188.47,0c5.2,0,10.34-.56,9.7,7.24a3.13,3.13,0,0,0,3.1,3.55c2.29,0,2.46-2.06,2.84-3.76a18.38,18.38,0,0,0,.43-2.57c.21-3.22,1.88-4.54,5.11-4.39,3.72.15,4,2.62,4,5.4,0,8,0,16.08,0,24.13a37.25,37.25,0,0,0,.19,5.19c.22,1.44.42,3.33,2.52,3.15,1.63-.13,1.81-1.79,1.88-3q.4-8.79.6-17.58c.1-4.34.08-8.68.14-13,0-2.94,1.52-4.29,4.5-4.25,2.55,0,4.2.87,4.43,3.62a14,14,0,0,0,.28,2.59c.52,2,.34,4.82,3.46,4.55,2.39-.22,3.16-2.49,3-4.44-.53-6.11,3.08-6.43,7.76-6.41q103,.11,206.09,0c5.06,0,9.88,1.32,14.81,2,6.24.91,12.48,3.78,18.7-1.23,1.38-1.12,8.06-4.68,7.5,3.51-.15,1.94,2.54,2.8,4.45,3.27q10.43,2.57,20.92,4.91c2.19.48,4.67.61,5.26-2.25s-1.74-3.78-3.88-4.34c-5.41-1.42-10.88-2.67-16.39-4,.64-2.7,2.49-1.8,3.7-1.81,7.4-.12,14.79,0,22.18-.09a43.57,43.57,0,0,0,43.15-43.31c.13-12.6.16-25.22,0-37.82-.05-4.39,1.18-6,6-5.88q29,.63,58,.22c4.88-.08,6.35,1.45,5.82,5.79-1,8.37,2.74,14.22,8.58,19.95,31.33,30.76,62.59,61.61,93.35,92.94,9.53,9.71,19.2,15.1,33.54,14.14,20.33-1.37,40.84-.39,61.27-.32,27.74.1,43.12,15.53,43.12,43.27Q1622.41,556.13,1622.4,691.77Z"/><path d="M1658.54,296.52c0-3-10.22-10.18-10.22-10.18-17.81-9.09-36.06-17.35-53.57-27-13-7.16-26.23-9.94-41.06-9.77-52.18.59-104.36.21-156.54.33-4.71,0-8.16-.33-7.71-6.47.33-4.28-2.76-5.41-6.47-5.41-23.48,0-47,.05-70.44,0-4,0-6.06,1.56-6,5.76,0,2.32.25,4.81-2.83,5.88a13.2,13.2,0,0,1-17.46-11.43c-.32-4.12-.33-8.26-.79-12.35-1.56-13.92-9.78-21.49-23.7-21.67-11.52-.16-23.07.44-34.55-.17-14.09-.77-25.26,4.41-35.07,14.13-16.2,16.06-32.78,31.76-49.06,47.76a15.26,15.26,0,0,1-11.53,4.8l-342.31,0a16.67,16.67,0,0,1-12.66-5.28c-15.65-15.41-31.74-30.36-47.15-46-10.76-10.9-23-15.64-38.45-15.56H662a31.39,31.39,0,0,0-24.27,10.92c-3.73,6.52-3.76,13.7-3.9,20.88-.21,9.8-5,14.3-14.56,14.18-3.64-.05-6-1.08-5.75-5.14.35-5.12-2.07-6.83-7-6.81-23,.15-46.07.11-69.11,0-4.38,0-7.38,1.17-6.93,6.2s-2.28,5.7-6.39,5.67c-15.86-.13-31.74-.06-47.6-.06-40.22,0-80.42.09-120.64-.07a44.8,44.8,0,0,0-21.23,5.1c-20.9,10.66-42,20.9-62.95,31.53C261.07,291.75,261,310.17,261,310.17c-.5,134.14-.27,268.27-.31,402.41,0,4.78-.13,9.61,1.53,14.19,3.11,8.64,8.29,15.07,18,16.88,11.73,2.2,23.47,4.38,35.09,7,32.15,7.35,64.21,15,96.33,22.4,26.2,6,52.46,11.95,78.68,18a77.46,77.46,0,0,0,17.43,2.05c33.26-.05,66.53.16,99.79-.13,6.12,0,9.58,2.18,12.34,7.33,7.29,13.58,14.91,27,22.44,40.44,1.9,3.42,4,6.73,5.84,10.16a29.68,29.68,0,0,0,13.67,10.36,94.46,94.46,0,0,0,54.84-16.94A52.18,52.18,0,0,1,733.23,837c32.4-8.52,65.33-14.26,98.5-18.54A677,677,0,0,1,911,812.81c3.62,0,7.35-.34,6.86,5.08s2.58,6.69,7.2,6.65l70.86,0c3.77,0,6.69-1.15,6.28-5.5-.51-5.71,2.63-6.49,7.19-6.19,15.17,1,30.37,1.16,45.54,2.29a781.89,781.89,0,0,1,127,20.42c11.79,2.87,22.91,7.54,34.19,12,20.57,8.25,42.6,12,64,17.82,9,2.43,17.78,6.21,27.26,6,13-.27,26-.92,39-1.86,4.05-.3,7.2-.32,9.24,3.83,1.05,2.13,3.34,2.75,5.63,2.6,20.79-1.41,41.58-2.95,62.38-4.24,4.47-.28,7.52-2,8.83-6.26,1.38-4.54,4.49-5.66,8.93-5.73,17.38-.27,34.76-1,52.14-1.2,4.78-.06,7.61-2,9.74-6.09,7-13.72,14.34-27.32,21.48-41,3.24-6.24,2-8.35-4.88-8.52q-26.73-.66-53.44-1.11c-5-.08-9.63.42-13-5-2-3.15-6.76-2.25-10.38-2.68-5.34-.65-10.8.42-18.11-1.55a41.54,41.54,0,0,1,4.59-1.79q102.62-23.42,205.21-46.84c19.27-4.41,24.65-11.27,24.59-30.79C1658.79,574.33,1659.74,435.43,1658.54,296.52Zm-1045-29.33c0-3.56,1.76-5.1,5.14-5.32,2-.12,3.89-.47,5.83-.69,12.89-1.48,20.78-9.83,21.51-22.77,0-.22,0-.44,0-.65.86-21.22,1.13-21.5,22.07-21.52,9.56,0,19.12.13,28.68,0a26.54,26.54,0,0,1,19.92,8.08c17.69,17.33,35.64,34.41,53.24,51.84a18.83,18.83,0,0,0,14.41,5.93c55.64-.15,111.29,0,166.92-.17,5,0,8.76.12,6.26,6.71a5.62,5.62,0,0,0-.13,2.59c.27,2-.37,5,2.8,4.9,2.57-.08,2.11-2.77,2.53-4.61.66-2.93-2-6.63.61-8.65s6.72-.82,10.15-.82c26.73-.08,53.47-.05,80.2-.05,27.6,0,55.2-.08,82.81.1a17.4,17.4,0,0,0,13.27-5.5c17.46-17.27,35.19-34.26,52.68-51.5,6.08-6,13-9,21.6-8.83,12,.24,23.9-.06,35.86.06,9.86.09,13.57,3.89,14,13.84.2,4.33-.31,8.69.79,13,3.1,12.18,10.55,18.46,24.2,18.13,7-.17,8.06,2.48,7.68,8.26-.51,7.79.38,15.6-1.08,23.4-3.51,18.66-17.14,31.21-36.07,31.49-27.16.41-54.36.77-81.48-.28-9.44-.37-18.73-4.78-28.52-5.5-4-.28-8-1.77-8.49,4.52-.22,2.64-2.85,2.07-4.76,2.06q-73.65-.27-147.29-.54c-5,0-10,.38-15,.73-4,.28-5.52-1.52-5.43-5.37a16.64,16.64,0,0,0-.6-6.44c-2.15-5.47-5.1-10.09-12.31-9.1a36.54,36.54,0,0,1-9.11,0c-10.51-1.23-13.63,3.36-14.58,13.62-.56,5.95-2.43,6.75-7.88,6.7-51.93-.55-103.87-.26-155.81.5-4.13.06-9.24,1.92-10.27-5.3-.34-2.4-3.94-2.11-6.34-1.65-8.48,1.6-17.29,1.53-25.39,5.36-2.19,1-5.11.65-7.71.7-17.37.31-34.75,0-52.14.73a254.38,254.38,0,0,1-30.59-1c-13.64-1.07-28.36-15.09-30.88-29C613.26,285.9,613.45,276.53,613.54,267.19ZM914.08,800.58c-6.29.32-12.58.68-18.88.85-47.05,1.2-93.49,7.43-139.44,17.36-11,2.38-22,5.32-32.9,8.16a31.2,31.2,0,0,0-11.53,5.93c-12.93,10.25-28.32,13.86-44,16.67-5.22.94-7.24-2.86-9.33-6.53-9.38-16.41-19-32.67-28.06-49.28-5.08-9.34-12.43-13-22.81-13-32,.24-63.92,0-95.88.14a103.69,103.69,0,0,1-23.87-2.73Q388,755.06,288.58,732.26c-11.91-2.71-15.57-6.81-15.56-19.6q0-201.53-.22-403c0-7.93,2.57-12.17,9.61-15.49,19.26-9.11,38.28-18.72,57.23-28.43,7.28-3.74,15-4.41,22.8-4.43q78.92-.19,157.83-.07c1.83,0,4.48-1,5.26,1.21.72,2-1.71,3.28-3,4.61q-50.37,49.68-100.71,99.39c-3.3,3.27-6.9,4-11.19,4-22.61-.09-45.21-.06-67.82-.05-6.09,0-12.21.23-18.12,1.77-21,5.47-33.71,21.76-33.77,44.67q-.37,139.58-.21,279.14c0,24.16,16.45,39.36,42.26,39.57,32.82.27,65.67.56,98.48,0,11.71-.19,22.12,1.51,31.62,8.62,2.73,2,7,6.58,9.83,1.56,2.38-4.2-3.45-5.43-6.14-7.56-.5-.4-1-.82-2.92-2.48h8l236.74,0c13,0,16.4,3.43,16.57,16.72.07,6.31,0,12.61.06,18.91.26,17.07,7.84,24.51,25,24.51q78.59,0,157.17-.07a60.78,60.78,0,0,1,7.14.39,2.57,2.57,0,0,1,2.43,2.63C916.91,800.39,915.36,800.51,914.08,800.58Zm82.1-2c-.23,4.12-.81,8.27-.45,12.35.4,4.94-1.36,6.67-6.2,6.49-6.73-.26-13.49-.29-20.22,0-5.33.27-6.74-2.16-6.63-7,.23-9.34.07-18.69,0-28a43,43,0,0,0-.27-5.2c-.16-1.31-.65-2.68-2.19-2.85-2.06-.22-2.51,1.43-2.68,3a57.18,57.18,0,0,0-.23,5.86c0,9.35-.17,18.7,0,28,.07,4.4-1.52,6.32-6.08,6.21-7.18-.18-14.35,0-21.53.16-4.14.12-6-1.54-5.76-5.77.18-2.82.06-5.65.06-8.48,0-12-2.61-14.7-14.42-14.74q-29-.08-58-.06-51.21,0-102.39.05c-12.16,0-16.87-4.71-17-17-.08-7,.35-13.94-.15-20.87-.4-5.7,2.17-7.67,7.26-8.42a95.12,95.12,0,0,0,12-2.9c1.65-.46,3.58-1.33,3.25-3.47s-2.5-2.09-4.2-2a37.22,37.22,0,0,0-5.15.67c-8.34,1.55-16.56,4.5-23.82-3.61-3.08-3.45-8.55-2.44-13.12-2.44q-119.65,0-239.34-.08-67.76,0-135.54.06c-14.39,0-25.87-5-32.39-18.69a34.67,34.67,0,0,1-3.2-15.18q-.06-139.89,0-279.77c0-21.24,17.08-37.36,39.42-37.62,25-.29,50-.21,75,0,5.59,0,9.85-1.4,13.9-5.44q47.84-47.61,96-94.89a68.71,68.71,0,0,1,6.58-6.32c6.69-5,9.85-11.33,8.84-19.72-.6-4.88,1-6.6,6.59-6.43,18.67.55,37.39.68,56,.07,6.23-.2,7.43,1.6,7.31,7.1-.29,12.16-.22,24.35-.08,36.52.31,24.35,19.27,43.1,43.71,43.33,8.38.08,16.77,0,25.14,0,0,.59,0,1.19,0,1.78-5.24,1.3-10.5,2.54-15.72,3.93-2.34.61-5.1,1.56-4.37,4.6s3.59,2.5,6,2c6.34-1.46,12.7-2.9,19-4.53,2.91-.76,4.92-1.9,6.26-5.52,1.62-4.34,6.55-2.76,9.07-.45,2.79,2.57,5.45,2.44,8.35,1.7,12.77-3.22,25.74-3.53,38.82-3.5q94.23.16,188.47,0c5.2,0,10.34-.56,9.7,7.24a3.13,3.13,0,0,0,3.1,3.55c2.29,0,2.46-2.06,2.84-3.76a18.38,18.38,0,0,0,.43-2.57c.21-3.22,1.88-4.54,5.11-4.39,3.72.15,4,2.62,4,5.4,0,8,0,16.08,0,24.13a37.25,37.25,0,0,0,.19,5.19c.22,1.44.42,3.33,2.52,3.15,1.63-.13,1.81-1.79,1.88-3q.4-8.79.6-17.58c.1-4.34.08-8.68.14-13,0-2.94,1.52-4.29,4.5-4.25,2.55,0,4.2.87,4.43,3.62a14,14,0,0,0,.28,2.59c.52,2,.34,4.82,3.46,4.55,2.39-.22,3.16-2.49,3-4.44-.53-6.11,3.08-6.43,7.76-6.41q103,.11,206.09,0c5.06,0,9.88,1.32,14.81,2,6.24.91,12.48,3.78,18.7-1.23,1.38-1.12,8.06-4.68,7.5,3.51-.15,1.94,2.54,2.8,4.45,3.27q10.43,2.57,20.92,4.91c2.19.48,4.67.61,5.26-2.25s-1.74-3.78-3.88-4.34c-5.41-1.42-10.88-2.67-16.39-4,.64-2.7,2.49-1.8,3.7-1.81,7.4-.12,14.79,0,22.18-.09a43.57,43.57,0,0,0,43.15-43.31c.13-12.6.16-25.22,0-37.82-.05-4.39,1.18-6,6-5.88q29,.63,58,.22c4.88-.08,6.35,1.45,5.82,5.79-1,8.37,2.74,14.22,8.58,19.95,31.33,30.76,62.59,61.61,93.35,92.94,9.53,9.71,19.2,15.1,33.54,14.14,20.33-1.37,40.84-.39,61.27-.32,27.74.1,43.12,15.53,43.12,43.27q0,135.66,0,271.3c0,5.69-.29,11.26-2.48,16.63-5.64,13.78-16.4,20-30.68,20-38.92,0-77.82.32-116.73-.17-18.22-.23-36.5.23-54.75.24q-102.71,0-205.43,0c-7.13,0-13.85.66-19.22,6.17-2.6,2.66-6,1.74-9.28,1.31-4.93-.64-9.68-2.59-14.75-2.1-1.65.15-3.89-.43-4.33,1.86-.5,2.56,1.81,3.34,3.6,3.84,4.6,1.26,9.26,2.41,13.94,3.29,4.06.74,6,2.51,5.74,7-.35,7.38,0,14.78-.14,22.18-.2,11.92-4.84,16.6-16.7,16.62q-79.25.07-158.48,0a71.1,71.1,0,0,0-7.16.16C999.73,789.4,996.54,792.7,996.18,798.58Zm308.09,58.89c-1,4.7-3.14,6.24-7.76,4.93-7.3-2.06-14.65-4.06-22-5.8-3.92-.91-4.41-2.37-2.44-5.83,9.35-16.41,18.72-32.82,27.61-49.48,4-7.43,8.94-2.36,13.5-2,2.87.25,5.77,1.2,5.14,4.66-3.14,11.9-6.15,23.23-9.15,34.57C1307.47,844.84,1305.58,851.09,1304.27,857.47Zm139.36-56.33c2.7,0,5.38.26,6.76,3,2.28,4.45,6.25,4.8,10.54,4.8,13.68,0,27.35.21,41,.09,4.78,0,5.83,1.27,3.48,5.61q-8.81,16.33-17.15,32.93c-2,3.9-4.88,4.91-9,5-13.9.15-27.79-.1-41.67.95-5.18.4-8.71,2.07-10.46,7-1.25,3.55-3.9,4.83-7.55,5-16,.81-32.07,1.75-48.33,2.66-5.17,1-10.31,2-13.67-4.47-1.26-2.4-5.1-1.83-8-1.65-11,.72-22.08,1.28-33.11,2.21-5.11.43-6.57-1-5.16-6.17q6.87-25.11,13.17-50.39c1.05-4.16,3.08-5.57,7.31-5.35,13,.68,26,1,39,1.51,3.55.15,6.91-.09,9.52-3.06,2.28-2.63,5.51-2.29,8.52-2.08C1407.2,800,1425.39,801,1443.63,801.14Zm-124.85-7.89h36.6c5.85,0,11.69-.06,17.54,0,1.2,0,2.93-.36,3,1.45.07,1.46-1.47,2-2.69,2.45a4.52,4.52,0,0,1-1.9.3q-24.93-1.26-49.87-2.61C1321,794.79,1320.46,794.25,1318.78,793.25Zm328.3-79.12c0,12.56-2,15-15.66,18.24-33.4,7.85-66.88,15.45-100.32,23.16L1429.49,779a84.85,84.85,0,0,1-19.4,2q-48.25-.1-96.52,0c-6.36,0-12.65.31-17.72,4.94-1.91,1.74-4,1.19-6.15.56-4-1.16-7.9-2.33-11.92-3.23-1.74-.39-3.65.05-4.27,2.09-.65,2.2,1,3.23,2.69,3.79a65.7,65.7,0,0,0,8.78,2.44c4.61.89,5.1,3.09,2.87,6.88-6.08,10.29-12,20.66-18,31-3.5,6-7.14,11.94-10.44,18-1.9,3.5-4.26,4.27-8,3.17-8.33-2.45-16.75-4.6-25.15-6.82-13.79-3.65-21.73-12.86-25.12-26.39-.48-1.89-.69-3.86-1.2-5.74s-1.49-3.86-3.93-3.56c-2.22.26-2.31,2.31-2.52,4a27,27,0,0,0,1.15,10.29c.85,3.18-.32,3.87-3.38,3-30.23-8.24-61-13.76-92-17.79-22.63-2.92-45.32-5-68.11-6-8-.32-16-.61-24.09-1-1.46-.07-3.51.19-3.76-1.71-.28-2.15,1.63-2.94,3.45-3.05q5.53-.33,11.07-.33,75.64,0,151.28.07a52.19,52.19,0,0,0,6.51-.26c12.28-1.6,19-9,19.36-21.4.22-8,0-16.08.17-24.13.21-10.08,4.24-14.14,14.45-14.17,36.74-.06,73.47.07,110.2,0,44.57-.09,89.11-.34,133.67-.5a15.72,15.72,0,0,1,3,1c-3,2.05-5.14,3.42-7.16,5-1.61,1.24-3,3-1.8,5s3.47,1.37,5.2.36c3.57-2.07,7.35-3.94,10.49-6.54,4.35-3.63,9.13-4.41,14.53-4.4q53.15.15,106.29,0c11.49,0,22.53-1.81,31.81-9.47,11.16-9.2,13.56-21.76,13.59-35.2q.13-76.93.14-153.88,0-58-.12-116.08c0-32.15-17.58-50.26-49.84-50.55-22.37-.19-44.76.24-67.13.71-6.59.14-11.39-2-16.1-6.65-31.86-31.75-64-63.24-96-94.81-2.3-2.27-4.83-4.37-6.41-7.41,1.64-1.91,3.71-1,5.45-1,52.61-.06,105.21,0,157.82-.09a55.38,55.38,0,0,1,26.3,6.14c18.7,9.72,37.62,19,56.6,28.2,5.26,2.55,7.15,6,7.13,11.76Q1647,510.68,1647.08,714.13Z"/><path d="M962.68,697.17c0,3.26.07,6.51,0,9.77s.33,6,4.72,6,4.12-2.9,4.17-5.78c.1-5.2.11-10.41.3-15.62.07-2.15.17-4.77,3.16-4.77,2.81,0,3.4,2.4,3.45,4.66.12,5.21.2,10.42,0,15.62-.12,4.4,1.18,7.15,6.16,7.07,2.47,0,5.31.58,5.05,3.69-.24,2.94-3.2,2.35-5.26,2.38-5.43.09-10.86.18-16.28,0-4-.12-5.44,1.64-5.37,5.45.1,5.21,0,10.42-.14,15.62,0,1.72-.34,3.79-2.7,3.71s-2.46-2.15-2.53-3.86c-.14-3.47-.14-6.95-.15-10.42,0-10.45,0-10.45-10.76-10.47-3.91,0-7.81,0-11.72-.06-1.74,0-3.74-.07-3.9-2.44s1.65-3.62,3.77-3.48c6.19.41,7.14-3.1,6.9-8.18s-.07-10,.11-15c.08-2.21.56-4.59,3.58-4.39,2.81.18,3.36,2.26,3.34,4.66-.05,5.64-.09,11.29-.09,16.93,0,2.65.67,4.71,4,4.63,3.11-.08,4.84-1.13,4.8-4.6-.09-7.38,0-14.76.15-22.14,0-2-.43-5.07,2.52-5.13s2.57,3,2.65,5C962.78,689.79,962.68,693.48,962.68,697.17Z"/><path d="M419.14,697.17a5.86,5.86,0,0,1,4.44,2.05c4.87,5.23,9.74,10.48,14.51,15.82,1.26,1.42,2.79,3.19,1.11,5.16a3.8,3.8,0,0,1-5.36.39c-6.47-5-13-10-16.34-17.9C416.51,700.32,416.3,698,419.14,697.17Z"/><path d="M1549.05,631.76a19.14,19.14,0,0,1-1.51,3.66c-3.48,5.47-7,10.91-10.68,16.26-1.35,2-3.21,4.06-5.89,2.43s-1.72-4.14-.37-6.24c3.86-6,7.74-12,11.76-17.88,1.09-1.6,2.71-3,5-2C1548.7,628.53,1549,629.83,1549.05,631.76Z"/><path d="M373.75,627.66a5.41,5.41,0,0,1,4.25,2.5c3.9,6,7.79,11.94,11.52,18,1.14,1.86,2,4.44,0,6-2.52,1.9-4.55-.23-5.91-2.19-3.94-5.68-7.83-11.4-11.42-17.3C370.5,631.93,370,628.9,373.75,627.66Z"/><path d="M1588.08,559.27c-1,7.45-3.81,14.71-7.34,21.7-1.13,2.25-2.93,4-5.76,2.46-2.46-1.35-2.06-3.61-1.18-5.71q4.26-10.2,8.7-20.32c.76-1.72,1.56-4.13,4-3.53C1589.11,554.52,1587.86,557.07,1588.08,559.27Z"/><path d="M1010.64,714.43c5.25.43,10.21.77,15.16,1.29,2.25.24,4.46,1.08,4.3,3.86s-2.58,3.19-4.81,3.09c-7.55-.36-15.11-.78-22.65-1.31-2.22-.16-4.69-1-4.66-3.59s2.74-2.41,4.55-2.68C1005.3,714.68,1008.12,714.62,1010.64,714.43Z"/><path d="M1061.73,725.49l-17.55-1.42c-1.85-.15-3.48-.65-3.53-2.94a3.33,3.33,0,0,1,3.14-3.54c8.67-1.26,17.24.82,25.87,1.06a2.77,2.77,0,0,1,2.55,3.22,3.18,3.18,0,0,1-2.78,3.16C1066.65,725.36,1063.83,725.38,1061.73,725.49Z"/><path d="M1570.51,462.24a2.9,2.9,0,0,1-5,2.2c-5.57-6-11.11-12.11-16.52-18.28-1.15-1.31-1.66-3.19-.22-4.75a2.91,2.91,0,0,1,4.14-.18c6.78,5.46,12.89,11.55,17.12,19.28A7.9,7.9,0,0,1,1570.51,462.24Z"/><path d="M1109,729.9c-7.94-.67-15.88-1.3-23.82-2-1.8-.16-3.57-.8-3.43-3a3.54,3.54,0,0,1,3.19-3.57,80.07,80.07,0,0,1,26.23,2.7,3,3,0,0,1,2,4.13C1112.51,730.11,1110.77,730.32,1109,729.9Z"/><path d="M859.89,725.12c-2.81,0-5.64.21-8.42-.07-2-.21-3.73-1.43-3.52-3.86.19-2.19,2-2.74,3.76-2.85,7.34-.45,14.68-.88,22-1.1,2.38-.07,5.18.41,5.41,3.47.27,3.45-2.66,3.3-5,3.51l-14.23,1.24Z"/><path d="M1588.49,498.59c.37,2.7-.11,4.08-1.81,4.66s-3.35.13-4-1.35q-5-12-9.5-24.1A3,3,0,0,1,1575,474a3.14,3.14,0,0,1,4.46,1.39C1583.84,482.94,1585.9,491.41,1588.49,498.59Z"/><path d="M830.59,720.71c3.2.59,7.31-1.18,7.34,3.68,0,4.19-3.66,3.38-6.3,3.64-6.63.68-13.28,1.25-19.92,1.91-2.24.23-4.63.46-5.08-2.43-.42-2.72,1.77-3.87,4-4.19C817.4,722.3,824.24,721.52,830.59,720.71Z"/><path d="M1149.6,736.56c-7.51-1.15-15-2.28-22.52-3.47-1.83-.29-3.46-1.1-3.42-3.25,0-2.49,2-3.5,4-3.35a153.15,153.15,0,0,1,23.82,3.36c2.15.51,3.44,2.08,2.91,4.36C1153.8,736.76,1151.64,736.52,1149.6,736.56Z"/><path d="M421.79,419.38c-2.16,0-3.38-.36-4-1.69a2.77,2.77,0,0,1,.8-3.53c7.62-5.64,16.58-8.15,25.55-10.55a2.14,2.14,0,0,1,2.57,1.5c.55,1.62.21,3.4-1.19,4C437.43,412.77,429.26,416.18,421.79,419.38Z"/><path d="M1380.78,376.53a140.47,140.47,0,0,1-23.11-6.7c-1.83-.73-3.74-2-3.1-4.35s3-2.41,4.92-1.89c7.54,2.05,15,4.25,22.5,6.55,1.92.59,3.69,1.87,3,4.31C1384.4,376.43,1382.71,376.9,1380.78,376.53Z"/><path d="M1279.54,342.23a117.51,117.51,0,0,1,21.6,5.25c2.25.76,4,2.13,3.06,4.77-.85,2.31-3,2.1-5,1.63-7.13-1.74-14.26-3.48-21.36-5.32-2.09-.53-4.62-1.23-4-4.06S1277,342.23,1279.54,342.23Z"/><path d="M352,465.27c-2.8-.62-2.91-2.54-1.87-4.42A61.83,61.83,0,0,1,367,441.59a3.36,3.36,0,0,1,4.22-.33,2.83,2.83,0,0,1,.51,4.08c-5.18,7.2-11.52,13.33-18.05,19.27A5.25,5.25,0,0,1,352,465.27Z"/><path d="M539.48,376.45c-2.21.18-3.72-.19-4.37-1.8-.83-2,.42-3.57,2.14-4.11q11.79-3.72,23.7-7c1.63-.46,3.74-.33,4.48,1.66.91,2.44-1.06,3.6-2.82,4.4C555.06,373,546.92,374.56,539.48,376.45Z"/><path d="M500.85,389.14c-3.1,0-5,.2-5.54-2.08-.46-2.06.77-3.36,2.55-4,7.39-2.47,14.79-4.92,22.24-7.21,2.21-.68,4.57-.31,5.34,2.28.86,2.85-1.41,3.73-3.55,4.41C514.47,384.92,507,387.22,500.85,389.14Z"/><path d="M332.19,559.91c.26-2.24-.45-4.74,2.17-5.2,2.1-.37,2.78,1.79,3.46,3.33q4.33,9.84,8.5,19.76c.88,2.11,1.33,4.37-1.37,5.55-2.5,1.09-4.32-.3-5.38-2.36A70,70,0,0,1,332.19,559.91Z"/><path d="M412.27,687c-.06,1.65-.57,2.8-2,3.24a3,3,0,0,1-3.49-1.1c-4.63-7-9.64-13.79-12.91-21.58-.66-1.59-.61-3.54,1.25-4.58a2.59,2.59,0,0,1,3.43,1c4.69,7,10.15,13.46,13.37,21.35A8,8,0,0,1,412.27,687Z"/><path d="M1478,403.77c7.35,2.65,15,4.93,22,8.93,1.92,1.1,3.55,2.83,2,5.32-1.28,2.13-3.31,1.68-5.18.9q-10.15-4.2-20.27-8.53c-1.9-.82-3.29-2.24-2.89-4.53S1476.11,403.92,1478,403.77Z"/><path d="M332,498.68c2.07-7.24,3.86-14.87,7.76-21.74,1.25-2.21,3-4.14,5.74-2.57,2.44,1.4,1.5,3.75.69,5.8-2.65,6.65-5.29,13.3-8,19.91-.76,1.84-1.93,3.69-4.32,3.17S332,500.68,332,498.68Z"/><path d="M620.56,353.82c-2.21.07-3.89.33-4.63-1.44a3.17,3.17,0,0,1,1.8-4.34,83.13,83.13,0,0,1,25.2-5.89c1.57-.08,3.12.55,3.34,2.41.27,2.16-1.37,3.22-3,3.65C635.48,350.23,627.68,352.08,620.56,353.82Z"/><path d="M1418.42,389.09c-6.33-2.09-14.13-4.6-21.88-7.29a2.9,2.9,0,0,1-2-3.65,3.36,3.36,0,0,1,4-2.45c8.57,1.55,16.5,5.11,24.6,8.11a2.48,2.48,0,0,1,1.24,3.33C1423.69,389.23,1421.77,388.93,1418.42,389.09Z"/><path d="M1483.32,721.22c-2.88-.55-3.64-2.63-1.9-4.65,5.38-6.23,11.07-12.19,16.73-18.17a2.68,2.68,0,0,1,3.6-.24,2.9,2.9,0,0,1,1,2.91c-.41,4-14,19.13-18,20C1484.31,721.12,1483.87,721.15,1483.32,721.22Z"/><path d="M771.89,736c-2.73-.31-5.54.46-6-2.48-.47-3.23,2.43-3.79,4.73-4.14,7-1.09,14.11-2,21.19-2.86,2-.24,4.1.09,4.57,2.55s-1.31,3.53-3.39,3.85C785.77,734,778.5,735,771.89,736Z"/><path d="M911.56,714.71c2.8,1,8.87-1.69,8.85,3.65,0,4.69-5.78,2.83-9.15,3.16-4.71.46-9.45.63-14.18.83-2.68.11-6.39,1.15-6.9-2.66-.53-4,3.3-3.83,6-4.07C901.09,715.19,906,715,911.56,714.71Z"/><path d="M1540.16,433.74c-.65,3.08-2.73,3.7-4.92,2.63-7.18-3.53-14.25-7.29-21.31-11.06a3,3,0,0,1-1.7-3.8,2.55,2.55,0,0,1,3.13-1.73A79.15,79.15,0,0,1,1539,431.64C1539.59,432.1,1539.81,433.09,1540.16,433.74Z"/><path d="M1510.72,690c-2.75-.46-3.23-2.36-2.4-4.32,3.37-8,8.52-14.93,13.66-21.84a2.32,2.32,0,0,1,2.89-.77,2.54,2.54,0,0,1,1.47,3.23c-3.27,8.49-8.36,15.91-13.94,23C1512.06,689.75,1511.25,689.8,1510.72,690Z"/><path d="M368,614.6c.08,2.54,0,3.88-1.52,4.42a3,3,0,0,1-3.45-1.2,134.45,134.45,0,0,1-13-21.75,2.75,2.75,0,0,1,.79-3.53,2.25,2.25,0,0,1,3,.14C360.17,599.37,364,607.67,368,614.6Z"/><path d="M581,364c-3,.08-4.91.09-5.48-2s.77-3.39,2.59-3.87c7.75-2,15.53-4,23.32-5.87,1.53-.37,3.23-.25,3.73,1.63.73,2.72-1.16,4.19-3.29,4.78C594.6,360.64,587.22,362.41,581,364Z"/><path d="M408.09,422c-.17,2.58-1.77,3.39-3.32,4.18q-9.27,4.75-18.57,9.45c-2,1-4.24,2.16-5.83-.21-1.7-2.54.49-4.12,2.32-5.19,6.56-3.85,13.21-7.54,20.47-9.95C405.49,419.48,407.41,419.58,408.09,422Z"/><path d="M1338.82,364c-6-1.51-13.3-3.29-20.58-5.3-2.15-.6-4.11-2.11-3.31-4.75s3-1.95,4.91-1.47q10.7,2.67,21.36,5.44c2,.53,3.74,1.66,3.23,4.07C1344,364.09,1342.06,364.14,1338.82,364Z"/><path d="M1463.52,400.47c-.39,2.69-2.23,2.87-3.92,2.46a130.83,130.83,0,0,1-23-8.4,3.11,3.11,0,0,1-1.82-4.27c.69-1.74,2.25-2,3.78-1.5,7.76,2.57,15.53,5.19,22.83,8.95A4,4,0,0,1,1463.52,400.47Z"/><path d="M1567.69,592c2.74.37,3.44,2.29,2.47,4.23a150.54,150.54,0,0,1-13.26,21.62,2.71,2.71,0,0,1-3.46,1,2.49,2.49,0,0,1-1.2-3.35c3.62-8.14,7.84-15.94,13.77-22.69A5.1,5.1,0,0,1,1567.69,592Z"/><path d="M460.36,403c-1.81.05-3.22.13-3.83-1.34-.77-1.84.49-2.92,1.84-3.65,7.49-4,15.49-6.72,23.61-9.1,1.28-.37,2.72-.42,3.36,1.07a3.16,3.16,0,0,1-1.71,4.35A148.58,148.58,0,0,1,460.36,403Z"/><path d="M1591.62,529c0,4.11.11,8.23,0,12.34-.07,1.73-.73,3.6-2.88,3.75-2.35.16-2.87-1.72-2.88-3.51-.07-8.66,0-17.33,0-26,0-1.6.56-3.14,2.41-3.35,2.16-.25,3.3,1.24,3.37,3.12.17,4.54.06,9.1.06,13.65Z"/><path d="M334.28,529.3c0,3.9,0,7.8,0,11.69,0,1.58-.43,3.24-2.2,3.54a2.78,2.78,0,0,1-3.24-2.55,149.66,149.66,0,0,1-.08-27.19,2.4,2.4,0,0,1,2.72-2.24,2.87,2.87,0,0,1,2.68,3.12c.1,4.54,0,9.09,0,13.63Z"/><path d="M379.78,349.69c-3.69,0-7.43-.36-11.08.07-19.87,2.37-26.71-9.59-30.08-23.65s-1.29-27.15,8.78-38.38a17.44,17.44,0,0,1,13.72-6.25c13,0,26.09.1,39.13-.1,7.46-.11,11.18,4.86,14.92,10,11.05,15.31,9.5,38.91-3.31,52.52-3.64,3.87-7.68,6.06-13.17,5.81C392.4,349.46,386.09,349.68,379.78,349.69Zm-.24-7v0c6.29,0,12.58-.11,18.87,0a10.18,10.18,0,0,0,8.9-4.25c11-13.7,11.06-31.82.11-45.57a10.72,10.72,0,0,0-9.43-4.45c-10.19.18-20.39,0-30.59,0-12.68,0-16.66,2.73-21.11,14.61a37.28,37.28,0,0,0-1.13,21.81c3,13,9.47,17.81,22.66,17.82Z"/><path d="M710.63,814c-.09,9.7-3.49,14.24-13,16.68-4.6,1.17-8.9,3.21-13.71,3.83-8.12,1.06-12.07-.42-16.45-7.31a25.06,25.06,0,0,1-3.69-17.46c.89-6.29,3.79-11,10.54-12.48,3.81-.84,7.56-1.94,11.33-2.93C700.29,790.48,710.78,798.72,710.63,814Zm-40-1.94c-.16,11.76,6.58,16.91,17.24,13.78,2.28-.66,4.59-1.26,6.9-1.84q10.8-2.68,7.85-15c-1.88-7.83-6.16-10.58-13.71-8.69-3.78.95-7.46,2.32-11.28,3C672.32,804.37,670.43,807.61,670.63,812Z"/><path d="M505.14,764.63c-7.18-2-14.89-4.69-21.91-9a3.51,3.51,0,0,1-1.36-5c1.08-1.88,2.87-1.87,4.53-1.17q11,4.58,22,9.36c1.69.74,2.89,2.11,2,4.13S507.6,764.5,505.14,764.63Z"/><path d="M543.82,775.22c-6.39-1.4-13-2.78-19.51-4.3-2.25-.52-4.35-1.74-3.79-4.41.62-2.91,3.13-2.46,5.31-2.07q9.6,1.69,19.19,3.48c2.53.48,5.8.7,5.38,4.28C549.94,776,546.38,774.41,543.82,775.22Z"/><path d="M688.54,753.88c-2.46,0-4.41,0-4.95-2.07s.8-3.45,2.59-3.93q11.9-3.17,23.88-6c1.69-.4,3.76-.1,4.33,1.92s-1.08,3.2-2.72,3.86C704,750.75,695.87,752.1,688.54,753.88Z"/><path d="M608.32,776.19c-2.32-.13-4.5-.08-4.85-2.68-.29-2.2,1.47-3,3.19-3.45,7.36-1.85,14.74-3.61,22.12-5.39,1.8-.44,3.68-.44,4.51,1.46,1.08,2.45-1,3.58-2.69,4.41C623.46,774,615.69,775,608.32,776.19Z"/><path d="M648.34,764.92c-2.24.18-4,.24-4.49-1.55s.76-2.87,2.22-3.45C653.5,757,661,754.34,669,753.15c1.46-.22,3.24-.66,3.95,1.17.8,2.1-.84,3.24-2.38,4A78.67,78.67,0,0,1,648.34,764.92Z"/><path d="M577.15,776.23c-3.7,0-7.39.07-11.08,0-1.82,0-3.59-.61-3.79-2.78-.22-2.34,1.58-3,3.4-3q11.73-.12,23.46,0c1.82,0,3.61.72,3.5,3s-2,2.71-3.76,2.76c-3.91.12-7.82,0-11.73,0Z"/><path d="M1539.67,349.69c-4.78,0-9.61-.46-14.33.09-11.66,1.39-18.63-4.78-23-14.33-7.61-16.54-6.38-32.44,4.88-47.2a15.91,15.91,0,0,1,13.38-6.78c13.25,0,26.5,0,39.76,0a14.79,14.79,0,0,1,11,4.87c14.61,14.86,15.67,40.12,2.38,56-4.19,5-9,7.79-15.75,7.43C1551.85,349.43,1545.75,349.69,1539.67,349.69Zm.86-7.05v0h18.86c2.65,0,5-.34,7.08-2.44,12.2-12.22,12.56-35.53.7-48.17a10.14,10.14,0,0,0-7.94-3.6q-18.87.15-37.73,0a9.86,9.86,0,0,0-7.88,3.61c-10.92,11.7-12.14,30-3.2,43.28,3.63,5.39,7.82,8.15,14.5,7.48C1530.08,342.23,1535.32,342.64,1540.53,342.64Z"/><path d="M1256.58,815.21c-1.24,6.47-1.86,14.67-10.69,18.56-2.26,1-4.59,1.65-6.93,1.06C1231.62,833,1224.32,831,1217,829c-2.68-.74-4.29-2.73-5.39-5.24-4-9.31-2.22-17.89,3.72-25.6,3.7-4.8,8.71-6.88,15-4.95,4.34,1.34,8.8,2.25,13.19,3.42C1253.18,799.2,1256.64,803.77,1256.58,815.21Zm-7.15-2.58c.46-4.75-1.54-8.38-7.47-9.4-3.18-.55-6.28-1.63-9.41-2.5-8.71-2.42-13.17.3-15.61,9.51-1.93,7.3,1,11.76,9.27,14,2.3.63,4.57,1.34,6.87,2C1242.94,828.93,1249.32,823.92,1249.43,812.63Z"/><path d="M1414.5,764.61c-2.61,0-4.58.07-5-2.16-.4-2,1.06-3.19,2.74-3.91,7-3,13.89-6,20.91-8.87,1.76-.72,3.92-1.23,5.2,1,1.08,1.87.09,3.53-1.41,4.48A77.74,77.74,0,0,1,1414.5,764.61Z"/><path d="M1231.84,753.94a138,138,0,0,1-23.42-6.25c-1.67-.62-3.28-1.82-2.7-3.84s2.65-2.28,4.34-1.9q11.67,2.65,23.26,5.64c2,.51,3.72,1.81,3.09,4.2C1235.88,753.81,1234,753.93,1231.84,753.94Z"/><path d="M1238.31,773c7.27,1.51,15,2.77,22.29,5.7,1.92.77,3.53,2.27,2.9,4.5-.71,2.49-3,2.22-4.9,1.72q-11-2.83-22-5.8c-1.75-.47-3.45-1.39-3.18-3.52C1233.71,772.94,1236,773.11,1238.31,773Z"/><path d="M1219.19,775.64c1.3,0,2.75-.12,3.44,1.22.86,1.66-.09,3.07-1.42,3.84-7,4.07-13.12,9-17.43,16a2.61,2.61,0,0,1-3.38,1.14c-1.65-.76-1.78-2.25-1.55-3.85C1199.78,787.7,1212.86,775.85,1219.19,775.64Z"/><path d="M1375.14,775c-2.39-.13-5.07.48-5.66-2.35-.68-3.27,2.11-3.89,4.43-4.35,7-1.4,14-2.65,21-4,2-.37,4.09-.48,4.61,2.11.46,2.34-1.14,3.65-3.11,4.28C1389.37,772.93,1382.1,773.92,1375.14,775Z"/><path d="M1290.35,764.51c8.16,2,15.72,3.75,23.24,5.64,1.74.44,3.38,1.47,3,3.6s-2.31,2.62-4,2.38c-7.9-1.1-15.86-2.07-23.14-5.66-1.54-.77-3.19-1.93-2.65-4S1289.2,764.46,1290.35,764.51Z"/><path d="M1251.46,753.22A109.89,109.89,0,0,1,1274,760c1.47.6,2.74,1.72,2.16,3.49s-2.29,1.78-3.85,1.57a77.71,77.71,0,0,1-23-6.84c-1.4-.66-2.75-1.76-2.26-3.51C1247.67,752.7,1249.53,753.33,1251.46,753.22Z"/><path d="M1342.87,770.37c3.67,0,7.33,0,11,0,1.78,0,3.63.47,3.86,2.62s-1.51,3.08-3.33,3.1c-8,.07-16,.07-23.92-.08-1.8,0-3.46-1-3.23-3.24.19-1.8,1.75-2.4,3.33-2.43,4.09-.08,8.19,0,12.29,0Z"/><path d="M714,285c0,18-13.92,31.8-31.82,31.7A32,32,0,0,1,650,284.42c-.14-17.47,14.88-32.06,32.77-31.83C700.37,252.81,714.06,267,714,285ZM682.24,309.9c13.14.09,24.93-11.61,25.11-24.94.17-13.49-11.68-25.41-25.29-25.43-13.17,0-24.92,11.54-25.3,24.89C656.38,297.25,668.93,309.8,682.24,309.9Z"/><path d="M1206.13,284.28A31.49,31.49,0,0,1,1238,252.56a32.28,32.28,0,0,1,32,32.54c-.29,17.89-14.76,31.8-32.92,31.64C1219.28,316.59,1206,302.7,1206.13,284.28Zm32,25.6c12.83.13,24.81-11.68,25.27-24.9.45-12.78-12.06-25.31-25.38-25.44s-25.55,11.8-25.55,25.14C1212.46,297.68,1224.74,309.75,1238.12,309.88Z"/><path d="M918.93,311.77c-3.69,0-7.38.08-11.07,0-1.77-.05-3.58-.58-3.84-2.75s1.43-3,3.25-3.23c8.21-1.18,16.46-.66,24.7-.49,1.6,0,3,.85,3,2.74,0,2.42-1.58,3.58-3.72,3.66-4.12.15-8.25,0-12.37,0Z"/><path d="M826.18,317.74c-2,.27-4,.26-4.54-2.3s1.08-3.74,3.21-4c7.51-.88,15-1.7,22.58-2.27,2-.15,4.85,0,5.05,2.86.23,3.29-2.61,3.47-5,3.7C840.38,316.44,833.28,317.08,826.18,317.74Z"/><path d="M1078.93,309.47c5.18.62,10.34,1.19,15.49,1.87,2.21.3,4.57.9,4.21,3.84s-2.81,3-5,2.83c-7.32-.7-14.64-1.52-21.94-2.37-2-.23-4.19-.78-4.19-3.23,0-2.62,2.36-2.79,4.29-2.9C1074.15,309.37,1076.54,309.47,1078.93,309.47Z"/><path d="M886.31,306.46c.68.08,2.18.25,3.68.44,1.81.24,3.53.67,3.46,3-.07,2.16-1.51,3.06-3.41,3.17-7.78.42-15.55.81-23.34,1.09-2.08.07-4.08-.74-4.08-3.21s2-3.23,4-3.37C872.94,307.16,879.21,306.86,886.31,306.46Z"/><path d="M1001,311.69c-4.11,0-8.22.1-12.32,0-2-.07-4-.9-4.12-3.31-.1-2.67,2.18-3.1,4.09-3.07,8,.1,16,.38,24,.65,1.59.06,3.15.65,3.29,2.48.16,2.12-1.34,3.19-3.25,3.25C1008.75,311.79,1004.86,311.69,1001,311.69Z"/><path d="M790.93,321.07c-3.07.14-5.66.38-8.24.35-1.54,0-3.07-.54-3.24-2.49a3,3,0,0,1,2.95-3.51c7.94-.79,15.88-1.54,23.83-2.17,1.87-.15,3.53.73,3.6,2.87s-1.55,3-3.33,3.36C801.2,320.45,795.88,321.43,790.93,321.07Z"/><path d="M1127,321.13a69.81,69.81,0,0,1-12.3-1.26c-2.23-.38-4.61-.74-4.45-3.59s2.48-3.13,4.82-2.91c7.09.65,14.18,1.25,21.27,2,2,.2,4.11.75,4.05,3.29-.07,2.91-2.57,2.38-4.39,2.48C1133.62,321.22,1131.24,321.13,1127,321.13Z"/><path d="M1041.28,307c4.09.23,8.2.35,12.28.71,2,.18,4,1,3.75,3.56s-2.36,3.12-4.31,2.83c-7.3-1.06-14.64-.66-22-.92-2-.07-4.15-.47-4.24-3-.09-2.67,2.16-2.92,4.12-3,3.45-.1,6.91,0,10.36,0Z"/><rect class="cls-1" width="1" height="1"/><rect class="cls-1" x="1919" y="1079" width="1" height="1"/><rect class="cls-1" y="1079" width="1" height="1"/><rect class="cls-1" x="1919" width="1" height="1"/></g><g id="Capa_3" data-name="Capa 3"><path d="M810.59,470.7v111H790.77V511L771.26,525.9l-16.18,12.53L738.9,525.9,719.39,511v70.74H699.56v-111l19.83,15.23,35.69,27.44,35.69-27.44Z"/><path d="M864.52,507.66v75.5H844.69V505.6a15.83,15.83,0,0,0-13.48-13.49h-4.44V472.45h4.28v.15a35.55,35.55,0,0,1,13.48,3.65,35.17,35.17,0,0,1,16,16.18,42.36,42.36,0,0,1,2.7,7.46,33.41,33.41,0,0,1,1,8.09Z"/><path d="M950.17,470.7A35.81,35.81,0,0,1,986,506.55v39.18a35.81,35.81,0,0,1-35.84,35.84H915.91a35.81,35.81,0,0,1-35.85-35.84V506.55a35.81,35.81,0,0,1,35.85-35.85Zm-34.26,19.83a16.24,16.24,0,0,0-16.18,16.18v39.17a16.24,16.24,0,0,0,16.18,16.18h34.26a16.25,16.25,0,0,0,16.18-16.18V506.71a16.25,16.25,0,0,0-16.18-16.18Z"/><path d="M1089.9,490.37a34.47,34.47,0,0,1,3.65,15.54v75.66h-19.83V504a15.8,15.8,0,0,0-13.48-13.48H1002V470.7h56.31a34.47,34.47,0,0,1,15.54,3.65,35.17,35.17,0,0,1,16,16.18Z"/><path d="M1220.28,504.33a32.67,32.67,0,0,1-9.2,22.84,32.75,32.75,0,0,1-23.48,55.51h-78.19V562.86h78.19a13.07,13.07,0,0,0,13-13,12.92,12.92,0,0,0-12.21-13h-59V517h59a13,13,0,0,0-.64-26h-78.2V471.18h78.2a32.63,32.63,0,0,1,32.68,32.67Z"/></g></g></svg>