<svg xmlns="http://www.w3.org/2000/svg" viewBox="0 0 1920 1080"><defs><style>.cls-1{fill:#f2f2f2;}</style></defs><g id="Capa_2" data-name="Capa 2"><g id="Capa_1-2" data-name="Capa 1"><path d="M1676.2,527.76a21.83,21.83,0,0,0-11.29-18,608.78,608.78,0,0,0-56.21-29.69c-5-2.3-7.08-4.86-7.19-10.53-.24-12.16-5.37-21.9-16.94-27.2-9.54-4.38-19.12-8.69-28.81-12.72a1457.12,1457.12,0,0,0-207.9-68.69,1651.09,1651.09,0,0,0-204.44-37.26c-4.5-.54-7.25-2.19-9.12-6-2.34-4.8-5.68-8.57-10.92-10.3a4.63,4.63,0,0,1-3.46-5.17c.45-6-3-7.21-8.08-7.14-12.15.17-24.3.1-36.45,0-6.76-.06-12.65-5-13.23-11.36-2-21.72-3.66-43.45-5.62-65.16-.31-3.38.87-4.48,4-4.39,3.71.11,7.42.08,11.12-.07,1.74-.07,4.28.18,4.18-2.4-.09-2.14-2.43-1.79-4-1.83-3.3-.12-6.6-.23-9.89,0-4.36.28-6.2-1.36-6.56-5.9-.74-9.22-1.81-18.43-4.85-27.27-2.38-6.9-2.28-7,5.23-7l160,0a50.47,50.47,0,0,0,8.62-.47c6.23-1.09,10-5.56,10-11.49.1-6.76-3.63-11.43-10.34-12.49a64.44,64.44,0,0,0-9.84-.53c-56.83,0-113.67-.16-170.5.15-8.08,0-14.62-1.55-20.71-7.06-7.91-7.17-17.67-11.18-28-13.84-7.48-1.94-15.08-1.94-22.69-1.88l-21.89.15c-25.19,0-37.15,5.46-37.15,5.46-7.37,3.89-14,7.69-19.61,12.83-3.66,3.35-7.58,4.26-12.34,4.25q-87.09-.16-174.21,0a74.49,74.49,0,0,0-10.46.5c-7.65,1.11-11.36,6.32-10.27,14,1,7.42,5.43,10.47,15.51,10.47q80.61.06,161.23,0c1.65,0,3.3,0,4.94,0,2.65,0,4,.87,2.84,3.72-4.06,9.86-4.95,20.36-5.95,30.79-.46,4.72-2.67,5.78-6.83,5.66-6-.2-11.94-.08-17.91,0-1.55,0-3.72,0-3.52,2.36.15,1.8,2.05,1.81,3.45,1.84,5.56.09,11.14.37,16.67,0s7.28,1.77,6.78,7.17c-1.9,20.47-3.41,41-5.32,61.46-.7,7.49-6.6,12.33-14.34,12.37-12.16.06-24.3.1-36.45,0-4.74,0-7.61,1.46-7.13,6.75.21,2.49-.48,4.51-3.09,5.37C791.92,309,788.59,313,786.13,318c-1.4,2.82-3.17,5.14-6.84,5.48-6.35.58-12.66,1.53-19,2.32q-67.72,8.46-134.43,22.74A1522.23,1522.23,0,0,0,478,387.87a1452.88,1452.88,0,0,0-139,52.88c-13.48,5.95-20,16-20,30.35,0,4.4-1.85,6.53-5.72,8.31-18.33,8.44-36.11,18-53.86,27.56-11.29,6.09-16.1,15.14-15.81,27.68,0,0-.44,35.19-.27,43.53a22.35,22.35,0,0,0,5.63,14c7.4,7.51,15.12,8.89,23.41,8.7,6.17-.12,12.35.12,18.53,0,5.74-.15,8.24,2.42,8.16,8.16-.14,11.74,0,23.47,0,35.2,0,37.05.22,74.1-.13,111.14-.13,13.08,4.4,22.66,15.28,30.3,29.79,20.94,59.12,42.56,88.77,63.74,3.46,2.47,3.62,4.44,1.06,7.38-3.32,3.83-2.36,7.19,1.45,9.94q26.55,19.13,53.16,38.18c3.42,2.45,6.2,1.79,8.25-1.72s4.19-4,7.49-1.62c21.62,15.77,43.3,31.44,64.92,47.21,10.59,7.71,23.46,9.22,23.46,9.22h65.95a58.81,58.81,0,0,0,21.1-3.81c20.24-7.59,40.86-14.06,61.71-19.77a826,826,0,0,1,133.82-25c35.23-3.64,70.53-5.57,105.94-6l18.18,0a1027.59,1027.59,0,0,1,123.13,7.82c61.86,7.84,122.24,22.09,180.74,43.89a45.24,45.24,0,0,0,16.3,2.83c21.62-.11,43.25-.36,64.86.11,10,.21,18.26-2.78,26.22-8.74,21.27-15.9,42.94-31.27,64.38-46.93,3.27-2.39,6-3.61,8.6.73s5.62,3.71,9.28,1q25.74-18.71,51.67-37.09c4.16-2.94,5.49-6.06,2.16-10.22-2.7-3.37-1.94-5.47,1.48-7.91,29.31-20.94,58.31-42.32,87.84-62.95,10.7-7.46,15.81-16.57,15.33-29.53-.45-12.33-.1-24.71-.09-37.06q.06-54.35.16-108.69c0-8.33,1.43-9.75,9.65-9.84,6.79-.07,13.58,0,20.38-.06a26.7,26.7,0,0,0,15.18-4.41c9.41-5.84,9.56-26,9.56-26C1676.23,556.14,1677.42,542,1676.2,527.76Zm-21.88-11.17c4.82,2.64,10,5,10.56,12.52-16.37-7.91-31.89-15.48-47.47-22.93-49.27-23.55-100-43.42-151.59-61.32-83.38-28.94-168.65-50.58-255.38-66.69-10.51-1.95-21.08-3.6-31.62-5.42a19.75,19.75,0,0,1-3.59-.85c-3-1.14-6.42-3.22-5.87-6.26.5-2.78,4.29-.91,6.47-.75,29.58,2.15,58.83,6.89,87.85,12.76a1501,1501,0,0,1,266.23,80.07A1177.28,1177.28,0,0,1,1654.32,516.59Zm-508-186.25c21.8,2.93,43.58,5.84,65.32,9.27a1548,1548,0,0,1,185.94,41.3,1398,1398,0,0,1,180.28,65.35c8.63,3.81,15.1,9.15,16.17,19.18.62,5.78-.86,6.95-6.08,4.62-36.65-16.36-73.8-31.48-111.65-44.84-73-25.77-147.34-46.92-223.58-61-28.32-5.23-56.75-9.54-85.52-11.4-12.2-.8-20.86-8.08-24.63-19.89C1141.83,330.57,1142.33,330.22,1146.34,330.34Zm-26-179.15c16.65.09,33.29,0,49.94,0H1219c4.23,0,8.91-.11,8.76,5.87s-4.77,5.76-9,5.76c-32.89,0-65.77,0-98.65.14-4.79,0-6.49-1.57-6.5-6.4C1113.54,151.38,1116.43,151.17,1120.31,151.19Zm-78.11,0c19.53,0,39.06.06,58.59,0,3.74,0,6.28.36,6.26,5.19s-1.63,6.6-6.47,6.55c-16.85-.19-33.7,0-50.56-.11-5.85,0-7.69-1.95-11.23-10.86C1039.72,150.79,1041.05,151.21,1042.2,151.21Zm-30.35-6c3.23.09,5.71,2,8,4.14,16,14.54,23.06,33,24.1,54.17.16,3.27.25,6.18-4.46,6.25-4.26,0-6.83-.68-7.33-5.81-2.1-21.67-12.32-38.83-29.92-51.56-3.23-2.34-6.79-4.25-11.63-7.24C998.86,145.19,1005.37,145.08,1011.85,145.24Zm-48.72-9.55c.17-3.31,2.87-2.87,5.09-3,11.77-.48,23.25.81,33.91,6.52q-16.95,0-33.88,0C965.74,139.24,962.92,139.4,963.13,135.69Zm-5,26.77c.09,1.19.53,2.57,2.1,2.6s2-1.37,2.14-2.55a96.17,96.17,0,0,0,.41-10.46c-.15-4.48,1.49-6.51,6.19-5.87,31.59,4.31,54.17,30.24,57.1,59.52.47,4.72-3.12,3.82-5.85,4.11-1.93.21-5-.53-5,2.18s3.14,2.28,5,2.07c5.88-.66,6.1,2.09,5.34,6.95-5.08,32.6-32.85,56.72-65.65,56.67-33.08-.06-62.33-26.14-65-59.07a101.43,101.43,0,0,1-.23-13.61c1.71-28.42,26.28-54.32,54.28-58.57,7.59-1.15,8.59-.29,8.72,7.41C957.83,156.72,957.89,159.61,958.14,162.46Zm-28.2-28.12a110.32,110.32,0,0,1,22.75-1.62c2.27.1,4.9-.17,4.74,3.26-.12,2.74-2.26,3.16-4.44,3.17-11.27,0-22.55,0-35.26,0C922.09,135.71,926.11,135,929.94,134.34Zm-30.45,16.11c4-3.84,8.16-5.85,13.75-5.4,4.4.36,8.86.07,13.44.07-.45,3.07-2.49,3.52-4,4.42-20.34,12.7-32.2,30.78-34.37,54.75-.46,5-2.93,5.43-6.9,5.49-4.88.08-5.15-2.67-5-6.4C877.58,182.87,884.42,164.94,899.49,150.45ZM800.73,163c-16.84-.23-33.69-.09-50.55-.09q-23.41,0-46.85,0a46.4,46.4,0,0,1-5.54-.21c-3.41-.41-5.09-2.6-5-5.91a5.14,5.14,0,0,1,4.88-5.39,34.22,34.22,0,0,1,4.31-.16q49,0,98,0c3.65,0,7-.28,7,5.12C807,160.92,805.79,163,800.73,163Zm66.66.08c-15.82-.57-31.67-.24-47.51-.08-4.24,0-6.44-1-6.36-5.84.07-4.7,2-6,6.36-6,9.67.2,19.34.06,29,.06v0c9.88,0,19.76,0,29.62,0,3.1,0,4.14.45,2.41,3.8C878,160.61,874.26,163.29,867.39,163ZM865.16,296.1c6.73-4.58,4.35-13.28,5.09-20.19,2-18.59,3.52-37.24,4.78-55.9.35-5.14,2.64-6,7-6s5.92,1.43,6.37,6a70.76,70.76,0,0,0,63.74,63.4c4.89.43,5.66,2.84,5.63,6.83-.1,14.21-.07,28.4-.09,42.61a41.51,41.51,0,0,0,0,4.32c.24,2.27-.72,5.94,2.61,5.88s2.49-3.71,2.5-6c.07-15.23.16-30.47-.1-45.7-.08-5.34,1.47-7.54,7.21-8.09,31.81-3,59.57-31.19,62.18-63.09.42-5.15,2.45-6,6.85-6.09s6.08,1.25,6.44,5.86c1.72,21.71,4.14,43.38,5.62,65.11.5,7.5,4,12.4,9.6,16.23,4.66,3.23,5.77,7.29,5.65,12.64-.31,14.2,0,28.41-.18,42.61-.16,15.43-9,24.19-24.41,23.81-24.27-.6-48.53-1.56-72.79-2.25-3.51-.1-6.07-.73-6.32-4.89-.07-1.18-.64-2.5-2.19-2.55s-2.08,1.32-2.22,2.48c-.44,3.48-2.18,4.8-5.75,4.9-24.68.68-49.35,1.67-74,2.29-14.64.37-23.86-8.93-24-23.64-.06-7.21,0-14.41,0-21.61h0c0-3.91.34-7.86-.06-11.72C853.16,312.23,855,303,865.16,296.1ZM325.75,468c1.06-10.1,6.19-17.09,15.57-21.22,24.49-10.79,49.2-21,74.26-30.41,95.49-35.86,193.8-60.93,294.45-77.06,21.51-3.45,43.13-6.23,64.71-9.31,4.21-.18,4.22,1.55,2.27,4.42a39.4,39.4,0,0,0-3.53,5.8c-3.9,8.7-10.71,12.21-20,12.72-38.53,2.07-76.37,8.91-114,16.92a1517.21,1517.21,0,0,0-290.52,93c-6.22,2.72-12.47,5.39-18.61,8.28C326.59,473,325.35,471.82,325.75,468Zm-62,50.28c26-14.62,52.69-28,79.83-40.43,60.37-27.62,122.75-49.82,186.33-68.68,55.66-16.51,112-30.1,169.44-39,17.21-2.68,34.53-4.87,52.41-6-1.29,6-5.33,7.68-10.21,8.48q-64.87,10.71-128.79,26.1a1683.13,1683.13,0,0,0-239.59,76.74c-38.74,15.69-76.77,32.93-113.95,52-1,.52-2,1.57-3.71.5C256.12,523.08,259.77,520.53,263.71,518.31Zm70,266.6c-4.83-3.51-9.61-7.09-14.6-10.37-6.08-4-8.54-9.36-8.52-16.65.15-46.72.06-93.45,0-140.16,0-3.51.08-7-.14-10.5-.7-10.62-5.75-16.42-16.34-17.44-8.17-.79-16.45-.35-24.68-.57-10.26-.28-14.11-4.1-14.24-14.39s.16-20.59-.14-30.87c-.14-4.75,1.51-7.35,5.84-9.54q55.69-28.11,113.3-52c102-42.4,207.71-72.55,316-93.89,16.75-3.3,33.57-6.2,50.41-9,8-1.34,14.59-4.23,17.8-12.3a6.18,6.18,0,0,1,4.49-3.82c9.38-2.45,15.62-8.61,20.13-17,4.2-7.77,8.74-15.38,13.22-23,.88-1.49,1.24-3.56,3.41-3.95,1.17.72.84,1.85.84,2.81,0,14.81.14,29.64-.1,44.45-.2,12.18-7.86,20.71-19.88,22.06a1323.67,1323.67,0,0,0-187.91,35c-62.78,16.46-124.74,35.63-183.84,62.69-47.48,21.73-71.13,60-71.5,112.24-.22,33.55-.65,67.11.13,100.65.89,38.69,17,70.25,48,93.77,12.44,9.45,25.33,18.35,38.21,27.22,3.29,2.26,3.36,4,1.15,6.9-2.87,3.77-5.63,7.62-8.19,11.6-2.23,3.46-4.34,3.37-7.52,1Q371.45,812.26,333.69,784.91Zm1104.6,108.65c-21.12,15.06-42.25,30.1-63,45.71-7.56,5.7-15.58,7.87-24.65,7.82-9.68-.06-19.37,0-33.86,0-18.67,2.73-40.59-2.69-62.73-10.49-57.08-20.09-116.17-31.94-176.3-38.43-30.27-3.27-60.64-5.52-91.13-5.36-6.57,0-13.12-1.46-19.72-.58-3.05.4-4-1.05-4.13-3.84-.05-1.61-.2-3.66-2.2-3.94-2.29-.35-2.48,1.86-2.68,3.38-.46,3.5-2.69,4.1-5.68,4.19-19.13.64-38.25,1.23-57.36,2.1A858.76,858.76,0,0,0,756.12,912,837.28,837.28,0,0,0,642.89,944.5a50,50,0,0,1-17,2.58c-19.56,0-39.13,0-58.69.08a30.49,30.49,0,0,1-19-5.92q-33.37-24.45-67.09-48.42c-3.4-2.43-4.2-4.54-1.41-8,3.35-4.17,6.45-8.55,9.43-13,1.86-2.81,3.34-2.56,5.91-.68,18.82,13.67,38,26.86,56.61,40.78,20.46,15.28,42.51,17.71,66,9.27A1009.89,1009.89,0,0,1,734.26,887a983.61,983.61,0,0,1,130.88-20.87c28.29-2.55,56.63-3.91,85-4.76,6-.17,8.14,1.86,7.74,7.74-.18,2.54-1.41,7.12,2.18,7.22s2.79-4.5,2.57-7.06c-.53-6.35,2.05-8.07,8.21-7.91,47.95,1.29,95.7,4.64,143.16,12A1020.89,1020.89,0,0,1,1284.1,914.7c7.22,2.43,14.33,5.21,21.57,7.51,22,7,42.54,4.54,61.5-9.31s38.23-27.23,57.17-41.08c3.88-2.84,5.82-2.41,8.12,1.55A61.31,61.31,0,0,0,1440,883.9C1443.94,888.2,1442.44,890.59,1438.29,893.56Zm69.29-29.33c-14.85,10.36-29.68,20.77-44.35,31.39-3.6,2.61-5.53,2-7.9-1.49-6.48-9.52-13.44-18.74-19.88-28.29-3.24-4.83-6.19-5.44-11-1.93-20,14.53-40.26,28.65-60.21,43.21-18.34,13.37-38,15.56-59.07,8a1015,1015,0,0,0-187.54-47.79c-33.54-5.17-67.24-9.22-101.21-10.42-15.84-.56-31.65-1.43-47.49-1.89-4.5-.13-6.25-1.81-6.16-6.28.18-9.46.14-18.94.05-28.4,0-2.1.45-5.32-2.78-5.17-2.55.13-2.24,3.1-2.26,5.06-.11,8.84-.4,17.71,0,26.54.27,6.06-1.53,8.19-7.92,8.33-29.42.67-58.83,1.6-88.12,4.63-54.52,5.63-108.38,15-161.39,29-29.07,7.71-57.71,16.73-86.08,26.68-20.65,7.25-39.85,4.8-57.8-8.47-19.85-14.69-40.28-28.6-60.29-43.08-4.69-3.39-7.6-3.29-10.95,1.75-6.47,9.78-13.6,19.13-20.23,28.8-2.3,3.35-4.23,3.57-7.48,1.23Q435.24,879.65,412.68,864c-3.26-2.27-3-4-.83-6.92,6.88-9.25,13.51-18.68,20.13-28.11,4.22-6,3.65-8.27-2.39-12.62-12.86-9.27-25.8-18.44-38.46-28-25.83-19.47-41.8-45-46.42-77.23a113.88,113.88,0,0,1-.78-16c0-31.91.65-63.83,0-95.72-1.1-51.4,30.91-92.64,75.1-110.9A1353,1353,0,0,1,654.6,415.7a1226.14,1226.14,0,0,1,123.57-20c19.36-2.08,28.92-12.68,28.93-32.33,0-18.11.12-36.23-.16-54.34-.09-5.69,1.89-7.62,7.54-7.4,9.45.38,18.94.26,28.4,0,4.32-.11,5.86,1.52,5.75,5.77-.38,15.23.38,30.46-.57,45.68-1.35,21.6,11.07,34.63,32.59,33.79,23.24-.91,46.45-2.14,69.71-2.37,5.68,0,7.61,1.67,7.44,7.36-.35,11.51-.16,23.05-.08,34.58,0,2.11-.55,5.35,2.5,5.43s2.62-3.15,2.63-5.28c.07-11.73.17-23.46-.06-35.2-.11-4.9,1.34-6.93,6.64-6.89,21.4.19,42.8.69,64.14,2.3,14.12,1.07,26.78-.63,35.08-14,4.18-6.73,3.74-14.25,3.92-21.57.33-14.2.29-28.41,0-42.6-.11-5.48,2-7.24,7.25-7.05,8.83.28,17.71.29,26.54-.1,5.59-.24,7.15,2,7,7.24-.33,9.45-.09,18.94-.09,29.83.6,10.28-1,22.05,1,33.71s10,20.49,21.76,22.25c23.18,3.46,46.49,5.92,69.63,9.78,74.23,12.42,147.08,30.29,218.17,55,29.08,10.12,58.36,20,86,33.57,41.42,20.38,65.08,53.65,66.6,100.34,1.14,34.55.53,69.16.19,103.75-.39,39-17.68,69.49-48.63,92.54-12.22,9.1-24.78,17.73-37.18,26.57-6.48,4.61-6.78,7.19-2,13.63,6.73,9.11,13.26,18.35,20,27.42C1511.13,860.26,1510.61,862.11,1507.58,864.23Zm157.78-290.8c-.17,11.65-4.47,15.67-16.27,15.86-7.81.15-15.64-.56-23.44.65-9.49,1.49-14.28,6.12-15.48,15.59a81.43,81.43,0,0,0-.35,10.49c0,46.11-.19,92.23.14,138.33.07,10.06-3.35,16.86-11.64,22.71-28.75,20.29-57.16,41.08-85.51,61.93-4.33,3.18-7,3.47-9.68-1.48-1.16-2.15-2.78-4.06-4.16-6.11-5.54-8.3-5.57-8.36,2.3-14.07,12.16-8.83,24.82-17,36.51-26.44,28.52-22.94,44.17-53.14,45.28-89.63s1.49-72.92,0-109.3c-2.13-50.54-27.62-87.05-73.81-107.13-77.25-33.56-157.78-57.18-240-75-37.64-8.15-75.6-14.23-113.74-19.31-5.1-.67-10.23-1.06-15.33-1.7-12-1.51-19.85-10-20-22-.2-14.61-.09-29.23-.07-43.85,0-1.17-.4-2.49,1-3.68,2.53,1.49,3.52,4.25,4.89,6.63,4.32,7.48,8.44,15.08,12.79,22.55,4.17,7.18,9.75,12.76,18.17,14.71,2.36.53,4.26,1.5,5.14,3.88,3.12,8.49,10,11.21,18.23,12.51,49.61,7.87,98.66,18.48,147.35,30.74a1558.57,1558.57,0,0,1,154.62,47.28c36,13.18,71.85,27.18,106.75,43.21,23.92,11,48.11,21.41,71.42,33.71,3.62,1.9,5.15,4,5.07,8C1665.24,552.84,1665.49,563.14,1665.36,573.43Z"/><path class="cls-1" d="M1576.61,697.05c-.39,39-17.68,69.49-48.63,92.54-12.22,9.1-24.78,17.73-37.18,26.57-6.48,4.61-6.78,7.19-2,13.63,6.73,9.11,13.26,18.35,20,27.42,2.29,3,1.77,4.9-1.26,7-14.85,10.36-29.68,20.77-44.35,31.39-3.6,2.61-5.53,2-7.9-1.49-6.48-9.52-13.44-18.74-19.88-28.29-3.24-4.83-6.19-5.44-11-1.93-20,14.53-40.26,28.65-60.21,43.21-18.34,13.37-38,15.56-59.07,8a1015,1015,0,0,0-187.54-47.79c-33.54-5.17-67.24-9.22-101.21-10.42-15.84-.56-31.65-1.43-47.49-1.89-4.5-.13-6.25-1.81-6.16-6.28.18-9.46.14-18.94.05-28.4,0-2.1.45-5.32-2.78-5.17-2.55.13-2.24,3.1-2.26,5.06-.11,8.84-.4,17.71,0,26.54.27,6.06-1.53,8.19-7.92,8.33-29.42.67-58.83,1.6-88.12,4.63-54.52,5.63-108.38,15-161.39,29-29.07,7.71-57.71,16.73-86.08,26.68-20.65,7.25-39.85,4.8-57.8-8.47-19.85-14.69-40.28-28.6-60.29-43.08-4.69-3.39-7.6-3.29-10.95,1.75-6.47,9.78-13.6,19.13-20.23,28.8-2.3,3.35-4.23,3.57-7.48,1.23Q435.24,879.65,412.68,864c-3.26-2.27-3-4-.83-6.92,6.88-9.25,13.51-18.68,20.13-28.11,4.22-6,3.65-8.27-2.39-12.62-12.86-9.27-25.8-18.44-38.46-28-25.83-19.47-41.8-45-46.42-77.23a113.88,113.88,0,0,1-.78-16c0-31.91.65-63.83,0-95.72-1.1-51.4,30.91-92.64,75.1-110.9A1353,1353,0,0,1,654.6,415.7a1226.14,1226.14,0,0,1,123.57-20c19.36-2.08,28.92-12.68,28.93-32.33,0-18.11.12-36.23-.16-54.34-.09-5.69,1.89-7.62,7.54-7.4,9.45.38,18.94.26,28.4,0,4.32-.11,5.86,1.52,5.75,5.77-.38,15.23.38,30.46-.57,45.68-1.35,21.6,11.07,34.63,32.59,33.79,23.24-.91,46.45-2.14,69.71-2.37,5.68,0,7.61,1.67,7.44,7.36-.35,11.51-.16,23.05-.08,34.58,0,2.11-.55,5.35,2.5,5.43s2.62-3.15,2.63-5.28c.07-11.73.17-23.46-.06-35.2-.11-4.9,1.34-6.93,6.64-6.89,21.4.19,42.8.69,64.14,2.3,14.12,1.07,26.78-.63,35.08-14,4.18-6.73,3.74-14.25,3.92-21.57.33-14.2.29-28.41,0-42.6-.11-5.48,2-7.24,7.25-7.05,8.83.28,17.71.29,26.54-.1,5.59-.24,7.15,2,7,7.24-.33,9.45-.09,18.94-.09,29.83.6,10.28-1,22.05,1,33.71s10,20.49,21.76,22.25c23.18,3.46,46.49,5.92,69.63,9.78,74.23,12.42,147.08,30.29,218.17,55,29.08,10.12,58.36,20,86,33.57,41.42,20.38,65.08,53.65,66.6,100.34C1577.56,627.85,1577,662.46,1576.61,697.05Z"/><path d="M922,211.17c-.33-19.18,13.55-34.41,34.48-37.82,16.45-2.68,34.77,9.27,40.17,26.11,1.51,4.71.77,11.4,8.91,10.72.44,0,1.36,1.08,1.37,1.67a1.93,1.93,0,0,1-2,1.92c-6.54-.66-6.79,4.2-8,8.58-4.15,14.64-14.35,22.33-28.6,26.94-6,1.93-9.73,2-15.84.1C933.41,243.62,922.31,231,922,211.17Zm70.14.4c-.07-14.48-10.38-28.25-24.65-30.68-4.3-.73-9.44-.17-14,0-11.28.38-23.17,13.68-24.64,24.54-.23,1.71-.36,3.23,1.68,4.08a7.34,7.34,0,0,0,9.76-4.35c3.36-9,10-13.89,19-14,10.25-.17,16.88,4.09,20.57,13.51,1,2.59,1.73,5.1,5.12,5.3,1,.06,2.1.59,2.1,1.83s-1,1.78-2,2c-2,.51-3.94.82-4.68,3.32-2.23,7.47-7.3,12-14.63,14.63-4.56,1.61-3.24,5.93-2.53,9.06.81,3.59,3.86,2,6.13,1.3C982.42,238.25,992.17,225.12,992.11,211.57Zm-57.81,2.55c-4.74-.54-6.59,1.12-4.83,6,3.76,10.49,10.51,18,21.14,21.76,2.3.81,5.71,2.86,6.68-1.09.86-3.46,2.09-7.89-3.64-9.5a18.34,18.34,0,0,1-13.08-12.86C939.51,215,937.63,213.78,934.3,214.12Z"/><rect class="cls-1" width="1" height="1"/><rect class="cls-1" x="1919" y="1079" width="1" height="1"/><rect class="cls-1" y="1079" width="1" height="1"/><rect class="cls-1" x="1919" width="1" height="1"/></g><g id="Capa_3" data-name="Capa 3"><path d="M810.52,569.48v111H790.69V609.76l-19.51,14.91L755,637.21l-16.18-12.54-19.51-14.91v70.75H699.48v-111l19.83,15.22L755,612.14l35.69-27.44Z"/><path d="M864.44,606.43v75.5H844.61V604.37a15.8,15.8,0,0,0-13.48-13.48h-4.44V571.22H831v.16a35.4,35.4,0,0,1,29.5,19.83,42.26,42.26,0,0,1,2.7,7.45,33.47,33.47,0,0,1,1,8.09Z"/><path d="M950.09,569.48a35.81,35.81,0,0,1,35.84,35.84V644.5a35.81,35.81,0,0,1-35.84,35.85H915.83A35.81,35.81,0,0,1,880,644.5V605.32a35.81,35.81,0,0,1,35.85-35.84ZM915.83,589.3a16.25,16.25,0,0,0-16.18,16.18v39.18a16.25,16.25,0,0,0,16.18,16.18h34.26a16.25,16.25,0,0,0,16.18-16.18V605.48a16.25,16.25,0,0,0-16.18-16.18Z"/><path d="M1089.82,589.14a34.51,34.51,0,0,1,3.65,15.55v75.66h-19.83V602.79a15.81,15.81,0,0,0-13.48-13.49H1002V569.48h56.31a34.46,34.46,0,0,1,15.54,3.64,35.17,35.17,0,0,1,16,16.18Z"/><path d="M1211.32,625.15a32.75,32.75,0,0,1-23.48,55.51h-45.52a32.58,32.58,0,0,1-30.14-20,34.31,34.31,0,0,1-2.54-12.85,32.67,32.67,0,0,1,9.2-22.84,31.24,31.24,0,0,1-6.82-10,34.5,34.5,0,0,1-2.53-12.85,32.2,32.2,0,0,1,32-32.83H1188A32.87,32.87,0,0,1,1211,625Zm-24.27-9.68a12.94,12.94,0,0,0,.47-25.85h-46.79a12.93,12.93,0,0,0,.32,25.85h46Zm.16,45.53a13.07,13.07,0,0,0,13-13A12.92,12.92,0,0,0,1188,635h-46.47a12.89,12.89,0,0,0-12.22,12.85,13.07,13.07,0,0,0,13,13h45.52Z"/></g></g></svg>