<svg xmlns="http://www.w3.org/2000/svg" viewBox="0 0 1920 1080"><defs><style>.cls-1{fill:#f2f2f2;}.cls-2{fill:#020202;}</style></defs><g id="Capa_2" data-name="Capa 2"><g id="Capa_1-2" data-name="Capa 1"><polygon class="cls-1" points="357.78 445 357.78 661.63 358.54 688.25 367.54 708.9 403.62 755.2 443.17 798.62 468.45 810.2 1429.89 810.2 1458.06 808.26 1481.79 794.57 1543.34 722.4 1556.27 702.92 1561.8 677.83 1561.8 421.8 1560.85 394.3 1547.39 362.47 1496.74 346.26 1304.57 298.31 1246.98 281.14 1141.34 267.54 1066.67 260.93 967.69 257.99 852.21 261.13 768.28 267.5 684.64 277.97 561.06 304.58 455.13 333.24 398.99 348.57 375.26 361.6 363.1 381.86 358.06 401.54 357.78 445"/><path class="cls-2" d="M912.63,850.58c-4.42,0-8.77.63-12,4.22-6.61,7.38-15.24,9-24.61,9-16.32,0-32.64.16-49,.26-2.32-.11-4.64-.34-7-.34q-169.93,0-339.87,0h-59a16.07,16.07,0,0,1-10.64-14.37c-.36-5.95-.53-12.18-.34-18.29A16.91,16.91,0,0,0,406.21,819Q385,794,363.94,769c-4-5-8.56-9.61-12-15-8.56-13.39-19.45-20.52-36.25-18.19-8.93,1.24-13.26-3.93-13.92-13-.35-4.93-.31-9.89-.45-14.84l0-85.86c.49-7.63,1.92-14.86,6.19-21.54,4.49-7,3.29-9.17-5.19-9.32-16.63-.28-33.27-.1-49.91-.13-16.13,0-22.79-6.54-22.84-22.82V445s2.37-4.7,3.48-5.55c10.23-8.22,21.17-6.5,31.77-6.58,15.76-.12,31.52,0,47.28-.1,11,0,11.72-.76,11.88-12,.15-10.21-.37-20.46.37-30.62,2.34-32.18,15.79-58.1,44-75.22,18.3-11.09,38.16-18.73,58.37-25.35,63.22-20.7,128.13-34.69,193.33-47.27,46.53-7.76,92-13.89,140.35-17.84,30-2.46,120.17-8.16,120.17-8.16,6.29-.17,11.55,1.36,15.38,6.5,4.24,5.69,9.86,7.43,16.82,7.19l94.43,0c5.94.12,10.82-1.23,14.65-6,5.19-6.5,12.24-8.3,20.31-7.93q67.33,3.08,134.47,9.18c100.2,9,198,30.38,294.64,57.36A393.56,393.56,0,0,1,1540.6,309c35.93,17.82,53.35,47.24,55.05,86.65.36,8.45.14,16.92.21,25.39.09,11.72.1,11.8,11.53,11.84q29.77.09,59.55,0c5,0,9.91.38,14.13,3.56,0,0,9.32,4.8,9.32,14.06V567.3c0,16.22-7.26,23.53-23.39,23.74-16.64.21-33.28-.07-49.91.29-8.86.19-10.36,2.8-5.07,9.84,5.41,7.19,5.08,15.2,5.75,23.23-.62,27.83-.76,55.65,0,83.47q-.15,7-.29,14c-.22,9.77-4,13.77-13.68,14.18-4.66.2-9.33-.09-14,.08-1.89.07-4.53-1.1-5.54,1.14-1.3,2.89,1.72,4.13,3.42,5.26,7,4.66,6.91,8.79,1.3,15.22-19,21.72-37.23,44-55.85,66-8.34,9.85-8.42,9.75-18.12,1.44-1.2-1-2-3.21-4.14-2.25-2,.87-1.63,3-1.68,4.61-.2,7-.18,14-.36,21-.29,10.64-4.09,14.5-14.84,15.1-2.9.16-5.83.11-8.74.11q-133.39,0-266.78-.07c-20.11,0-40.22.26-60.33.39H1044.29c-10.14-.23-19.71-1.65-26.66-10.4-2.52-3.17-6.79-3.27-10.57-3.27Zm478.75-140.32a31.73,31.73,0,0,0,3.35,3.92c22.65,19.16,45.44,38.15,67.94,57.48,4.35,3.74,5.62,1,7.94-1.87,17.39-21.09,34.69-42.25,52.47-63,4.59-5.35,3.12-7.83-2.1-10.37-21.9-18.62-43.68-37.38-65.76-55.79-8.27-6.9-14.22-6.73-20.54.53q-22,25.3-43.31,51.26C1386.86,697.92,1385.14,704.33,1391.38,710.26ZM690.54,283.48l24.41-3.3c11.28-.32,22.24-3.08,33.37-4.55L771,273.25c10.75,1,21.06-2.23,31.6-3.33,5.81.11,11.65.64,17.35-1l40.62-4.71c3.89,4.64,8.31-.21,12.54.6,3.46.66,8.5,1.2,4.19-5.59-2.12-3.33,2-3.26,4-3.37,9.32-.53,18.67-.75,28-1.39,6.92-.47,10.69.79,4.89,8.47h20c-4-7.25-1.08-9.29,5.67-8.75,3.77.3,7.59,0,11.37.15s6.77-.13,6.93-5.27c.18-5.45-3-5.2-6.77-5.2-14.89,0-29.78-.13-44.66-.1-5.8,0-11.48-.92-14.95-5.72-5.58-7.73-12.92-8.54-21.56-8-65.2,4.08-130.42,7.84-195.16,17.21-76.79,11.13-152.27,28.3-226.76,49.73-28,8-55.52,17.87-79.88,34.6-12.18,8.37-18.82,20.76-25.7,35.33,16.82-5.28,32.54-8.09,45.64-18.08,5.62-4.28,12.33-6.56,19.21-8.08,2.78-.61,5.72-1.33,8.29,1a8.58,8.58,0,0,0,13-1.69c5.32-10.26,15.24-9.68,23.74-11.78,6.8-1.68,13.77-5.84,21.5-.22,2.71,2,9.55,0,11.38-4,2.13-4.69,5.78-5.32,9.5-6.51,7.21-2.31,14.48-4.43,21.77-6.45,3-.82,5.77-1.89,8.74,1.27,3.86,4.12,13.79,1.78,15.93-3.82a6.76,6.76,0,0,1,5.48-4.74c6.26-1.39,12.51-2.9,18.84-3.76,6-.81,11.87-4,18.1,1.45,2.41,2.11,9.65,1.29,11.34-3.31,1.94-5.27,5.68-6.14,9.86-7.16,7.35-1.8,14.85-3.09,22.08-5.24,6.16-1.84,10.95-2.9,8.95,6.33,12.53-1.82,12.54-1.82,15.77-9.58.69-1.64,2.21-1.64,3.62-1.9,10-1.85,20.11-3.37,30-5.67,6.63-1.54,6.26,1.51,5,5.94-10.15-.16-19.27,4.62-29.2,5.51C671.44,288.13,680.86,284.68,690.54,283.48Zm528.75-1.55c9.79,3.18,20.13,2.54,30.13,4.4-9.5-4.55-19.93-5-30-7.08-1-1.36-2.85-2.8-2.74-4.08.18-2.17,2.66-1.78,4.29-1.73,11.44.38,22.36,3.89,33.56,5.73,1.55.25,3.16,1.29,2.19,2.87-4.9,8,2.8,6.3,5.68,6.67,3.63.47,10,3.89,10.78-.17,1.52-8.32,5.89-5.3,10.13-4.46,8.28,1.63,16.51,3.52,24.81,5.09,2.44.46,4.16.48,4.27,3.94.15,4.79,12.72,10.2,14.91,6.39,4.34-7.58,9.55-3.53,14.31-2.65,8,1.48,15.84,3.84,23.75,5.82,2.19.55,4,.76,5,3.79,2,6.05,8.51,7.82,13.54,4.38s36.11,2.8,39.2,8c.44.73.43,1.73.87,2.46,2.15,3.58,14,7.25,15.27,4.44,2.94-6.47,7.22-3.28,10.93-2.5a171.83,171.83,0,0,1,18.51,5.1c4.48,1.48,9.19,2.12,11.18,8.25,1.6,4.91,12.21,5.88,16.13,2,1.51-1.49,2.81-2,4.45-1.58,10.38,2.87,21.67,4.74,29.86,11.7,13.16,11.18,29.69,11.46,44.58,18.15a16.5,16.5,0,0,0,.21-3.18,13.81,13.81,0,0,0-.86-2.46c-9.35-21.79-27-34.3-47.86-43.64-38.44-17.22-79.1-27.1-119.64-37.77-119-31.34-240.45-44.66-363-50-5.37-.23-9.74.74-13,5.22-5,6.69-12,8.87-20,8.83-13.72-.07-27.44-.11-41.16,0-3.18,0-7.36-1.53-7.53,4.34-.14,4.94,1.63,6.93,6.7,6.15,2.56-.39,5.27-.35,5.47,3.67.51,10.1,8.25,3.3,12.37,4.76,5,1.76,4.83-1.26,3.5-5.53-1-3.32,2.85-2.74,5-2.69,8.46.23,16.93.42,25.36,1.07,4,.3,11.38-2.46,8.12,6.87-.15.45.78,1.82,1.25,1.84,5.23.26,10.53.86,15.69.29,3.6-.4-.27-3.46.76-5.34.93-1.69,2.2-1.75,3.56-1.72,10.5.26,21,.49,31.5,1,2.08.1,6,.57,5,3.4-3,8.67,3.39,6.08,7.19,6.58,3.45.44,6.92.64,10.39.94l38.65,3.72c6.39,0,12.62,2.82,19.1,1,13.16,4.24,27.16,2.67,40.48,5.81C1207.78,280.75,1213.41,282.45,1219.29,281.93ZM389.5,776.21c5.42,9,12.56,16.86,19.8,24.27,11.66,11.93,17.12,25.36,14.76,41.83-.9,6.28,1.59,7.61,7.64,7.6,77.55-.24,155.09-.17,232.64-.22,15.73,0,31.46-.19,47.19-.29l115.53-.09c17.74.1,35.49.16,53.23.31a12,12,0,0,0,9.39-3.77c6.9-7.38,15.74-9.36,25.39-9.32,12.22.05,24.45,0,36.68-.07,2.26,0,5.7.64,6-2.11.59-6.33,1.3-13-.2-19-1.24-5-7.08-1.41-10.79-2.13-2.42-.47-5-.63-5.26-3.42-.37-3.42,2.65-3.2,4.85-3.42,2.89-.3,5.79-.37,8.69-.54,5.53.19,11,.29,16.57.6,2.36.13,5.85-1.14,6.1,2.9.29,4.73-3.72,4.05-6.23,3.61-8.87-1.56-10.38,3.07-9.46,10.28a15.46,15.46,0,0,1,0,4.35c-1.09,7,1.15,9.81,8.8,9.28,11.31-.78,22.69-.41,34.05-.42,9,0,17.31,1.81,23.87,8.68,3.2,3.34,7.36,4.48,12,4.08,39.78,1,79.55.66,119.33.2a5.35,5.35,0,0,0,.86.15q164.13.15,328.26.39c5.29,0,6.21-2,6.3-6.66.17-9.53-1.22-19.32,3.7-28.28,1.29-2.35-.43-3.69-2.08-5a80,80,0,0,1-7.9-6.88c-3.9-4.13-7.28-4.11-12-.75-6.61,4.74-14,8.39-22.25,9.53-2.13.29-4.3.36-4.88-2.3s1.48-3.28,3.48-4c5.42-2.09,10.74-4.43,16.17-6.51,7.08-2.7,8.24-5.24,1.65-10.85-30.1-25.62-61.43-49.81-90.4-76.77-2.4-13,3.09-22.86,11.6-32.17,10-10.93,19.17-22.63,28.62-34.06,5.41-6.54,11.06-12.76,19.09-16.18l10.48.15a98.1,98.1,0,0,1,14.35,9.89c26,22.11,52.08,44,78,66.15,3.08,2.62,5.3,4.76,7.81-.49,1.14-2.4,3.65-4.7,6.34-2.81,2.93,2,1,4.9-.89,6.68-3.77,3.63-3,6.17,1,8.94,3.59,2.47,6.82,5.45,10.16,8.26,1.59,1.34,3.28,3,5.37,1.62,8-5.47,17.1-5.14,26.14-4.9,3.64.09,5.14-1,5.09-5-.47-33.51-.74-67-1.08-100.53.77-3.28-1.32-5.49-2.93-7.9a36,36,0,0,1-3.68-5.93c-4.78-11.62,2.15-23.36,15.21-24.86,18.3-2.12,36.73-.83,55.1-1,7-.08,9.84-2.28,9.79-9.59q-.36-55.14.06-110.28c.07-8.21-3.12-10.66-10.89-10.52-20.13.35-40.27.19-60.41.12-15.66-.05-22.89-7.35-23.28-23-.36-14,.73-28-1.42-41.93-.39-2.57.06-5.71-2.93-6.79-7.38-2.68-14.89-5-23.44-7.82,2.94,7.85,5.56,13.71,7.3,19.82,1.33,4.66,4.72,12.21-.64,13.65-5.08,1.36-3.44-7.05-5.22-11-5.49-12-8.79-25-24.52-29.58-74.83-21.92-150.14-41.88-226.67-56.93-55.75-11-112-18.45-168.57-24.08-42.36-4.23-84.79-7.81-127.35-9a1651.29,1651.29,0,0,0-219.33,8.33c-47.82,5-95.5,10.81-142.86,19-74.38,12.81-147.44,31.34-220,51.73-20.3,5.71-40.44,12-61.83,18.31,3.73,3.15,8.88,4.68,5.56,9.91-5.28,8.3-7.46,17.61-8.85,27.17-.27,1.82-.69,3.71-2.81,3.81-2.49.11-3.61-1.75-3.71-4a47.71,47.71,0,0,1,.4-6.07c1-11.25,4.88-21.5,13-32.44-8.62,3-14.65,5.86-21,7.14-6.56,1.31-8.59,5-8.67,10.89-.17,12-.38,23.92-.53,35.88-.25,20.08-7,26.89-26.83,26.95-19.26.06-38.54.33-57.79-.16-7.81-.2-10,2.55-9.9,10.08.27,36.76.3,73.52-.17,110.28-.11,8.37,3,10.36,10.62,10.22,16.91-.3,33.89-.68,50.75.44,18.63,1.25,25,14.89,15.12,30.68-2.71,4.34-5,8.51-3.8,13.81l0,84c-.11,1.73-.29,3.46-.31,5.19-.12,10.9-.1,11.21,11.09,10.72,11.76-.52,20.45,4.22,27.79,13.15C365.86,749.17,377.79,762.6,389.5,776.21ZM1505,806.65c3.74-1.81,4.87-5.39,7.06-8q24.86-29.4,49.45-59c2-2.39,6.11-4.88,1.61-8.6s-8.66-9.25-13.68-10.19c-4-.74-6,6.94-9.44,10.36-.82.81-1.39,2-2.34,2.56-1.4.83-2.9,2.35-4.73,1.12-2.26-1.52-1.55-3.69-.45-5.4a58.9,58.9,0,0,1,6.7-9.15c4.17-4.34,2.81-7-1.32-10.57-4.77-4.2-6.82-1.55-9.67,1.9q-26.19,31.68-52.65,63.15c-2.84,3.35-3.32,5.38.39,8.3,8.69,6.87,17.13,14.07,25.69,21.11C1502.72,805.12,1503.92,805.88,1505,806.65Zm16.43,15.93c3.94.07,4.6-1.33,5.52-2.42,18.36-21.76,36.66-43.56,55.14-65.22,3.41-4,1.92-6.29-1.26-9.36-4.24-4.11-5.92-.61-8.11,2q-26.81,32.1-53.63,64.2c-1.3,1.56-3.27,2.86-1.79,5.16S1520.7,821.59,1521.44,822.58Z"/><path class="cls-2" d="M430.09,539.86c-25.28,0-44.56-19.39-44.66-44.94-.09-25.89,19.38-45.71,45-45.81s46,20.22,46,46.09C476.39,520.19,456,539.85,430.09,539.86Zm.38-7c21,.06,38.81-17.34,38.93-38,.12-20.19-18.41-39-38.41-38.91-21,.06-38.59,17.46-38.6,38.24C392.37,515.3,409.62,532.82,430.47,532.88Z"/><path class="cls-2" d="M1485.55,448.59c26.35.3,46,20.16,45.68,46.1-.34,25.29-20.57,45-46.17,45-24.73,0-45.42-21.37-44.84-46.31C1440.8,468.14,1460.87,448.31,1485.55,448.59Zm-.57,7.05c-20.48.05-37.89,18-37.69,38.86.19,20.35,18.41,38.17,38.92,38.06,20.67-.1,38.2-17.88,38.11-38.66C1524.24,472.92,1506.41,455.57,1485,455.64Z"/><path class="cls-2" d="M1241.35,813.25h-16.56c-2.24,0-4.26-.7-4.4-3.16-.18-3.13,2.52-2.64,4.39-2.67,11.33-.21,22.65-.26,34-.49,2.13,0,3.45.76,3.74,2.7.4,2.69-1.37,3.54-3.71,3.55-5.81,0-11.62,0-17.43,0Z"/><path class="cls-2" d="M1566.23,623.92c-1.45,2.17-.18,6.57-4.37,6.38-3.76-.17-2.16-4.09-3.3-6.17.24-10.45.44-20.89.74-31.34.06-2.18-.62-5.23,2.79-5.33s3.26,2.93,3.34,5.13C1565.8,603,1566,613.48,1566.23,623.92Z"/><path class="cls-2" d="M1559.32,493.89c0-5.82,0-11.63,0-17.44,0-1.92.58-3.39,3-3.25,1.82.11,2.5,1.25,2.64,2.82a221,221,0,0,1,.29,36.56c-.14,1.83-.85,3.52-3.17,3.28-2.12-.21-2.84-1.69-2.84-3.66q0-9.17,0-18.31Z"/><path class="cls-2" d="M1559.32,551.61c0-5.79,0-11.58,0-17.37,0-1.79.36-3.93,2.3-4.19,2.5-.34,3.42,1.77,3.56,4a262,262,0,0,1,.07,35.55c-.12,1.6-.37,3.64-2.82,3.59-2.75,0-3.21-2-3.22-4.17,0-5.79,0-11.58,0-17.36Z"/><path class="cls-2" d="M1565.3,437.66c0,5.8.13,11.6-.07,17.39-.07,1.88-.37,4.4-3.33,4.06-2.12-.25-2.71-2.06-2.72-3.87,0-11.61,0-23.22,0-34.82,0-2,.57-3.25,2.9-3.29,2.91-.06,3.32,1.87,3.34,4,.08,5.51,0,11,0,16.53Z"/><path class="cls-2" d="M1413.54,807.23c5.22,0,10.45.18,15.66-.09,2.12-.1,4.1-.95,4.44,2.17.27,2.43-.51,3.83-3.27,3.82-11.61,0-23.22,0-34.82,0-1.93,0-3.62-1-3.73-2.88-.17-2.91,2.28-2.91,4.31-2.93,5.8-.06,11.61,0,17.41,0Z"/><path class="cls-2" d="M361.08,502.16c0,5.21.06,10.42,0,15.63,0,1.9.47,4.34-2.49,4.68-2.76.32-3.63-1.76-3.64-3.79q0-16.47.31-32.94c0-1.95.57-4.57,3.13-4.48,3.31.11,2.76,3.09,2.79,5.27.08,5.21,0,10.42,0,15.63Z"/><path class="cls-2" d="M361.11,445.18c0,5.24,0,10.48,0,15.72,0,2,0,4.57-2.6,4.72-2.34.14-3.6-2.08-3.68-4.17-.44-11.33-.8-22.67.7-34,.25-1.9,1.18-3.4,3.37-3.06,1.74.26,2.15,1.82,2.17,3.3.05,5.82,0,11.64,0,17.46Z"/><path class="cls-2" d="M361,557.05c0,5.8.05,11.6,0,17.41,0,1.74-.35,3.61-2.6,3.87-2.41.27-3-1.74-3.15-3.35a171.76,171.76,0,0,1,.11-34.68c.15-1.68.87-3.67,3.1-3.52,2.84.2,2.65,2.64,2.69,4.6.08,5.22,0,10.45,0,15.67Z"/><path class="cls-2" d="M361.57,623.87c-2.05,3.36,2.77,10.38-3.5,10.49-6.45.12-2.09-7-4-10.46.17-8.08.24-16.16.55-24.24.1-2.48.08-5.75,3.87-5.48,3.43.23,2.58,3.32,2.64,5.43C361.39,607.69,361.45,615.79,361.57,623.87Z"/><path class="cls-2" d="M792.34,813.23c-5.5,0-11,0-16.49,0-2.08,0-4.25-.36-4.49-3-.28-3.15,2.16-2.86,4.14-2.89,11.57-.14,23.14-.16,34.7-.43,2.36-.06,3.07.94,3.25,2.89.25,2.74-1.43,3.44-3.75,3.44-5.79,0-11.57,0-17.36,0Z"/><path class="cls-2" d="M1014.08,807c5.82,0,11.63,0,17.44,0,1.76,0,3.71-.31,4,2.07s-.88,4.06-3.37,4.07c-12.5,0-25,0-37.5-.09-2.23,0-3-1.43-2.82-3.43.24-2.44,2.22-2.32,3.91-2.34,6.11,0,12.22,0,18.32,0Z"/><path class="cls-2" d="M721.86,814a34.33,34.33,0,0,0-4.21-.81c-2.14-.15-3.16-1.18-3-3.28.13-2.41,1.94-2.48,3.71-2.52L735.6,807c5.52.1,11,.17,16.55.3,1.88,0,4.39-.95,4.73,2.2.37,3.35-2,3.68-4.5,3.74Q737.13,813.63,721.86,814Z"/><path class="cls-2" d="M828.8,807.59c12.2-.08,24.39-.19,36.59-.23,2.15,0,5.19-1,5.28,2.6.1,3.36-2.83,3.11-5.1,3.15-12.19.19-24.39.85-36.57-.4Z"/><path class="cls-2" d="M1164,812.74l-.45-4.93q18.72-.25,37.45-.49c1.88,0,4.38-.81,4.45,2.43.07,3.41-2.53,3.44-4.86,3.45C1188.37,813.25,1176.16,814.07,1164,812.74Z"/><path class="cls-2" d="M1356.76,807.35c5.23,0,10.47,0,15.7,0,1.86,0,4.32-1,4.6,2.22.23,2.71-1.53,3.51-3.82,3.52q-17.43.06-34.86,0c-1.94,0-3.41-.76-3.42-3s1.64-2.83,3.49-2.84c6.1,0,12.21,0,18.31,0Z"/><path class="cls-2" d="M1298.4,807.14h17.39c1.76,0,3.62,0,3.88,2.33.27,2.58-1.19,3.7-3.6,3.71q-17,.08-33.91.08c-2.65,0-4.86-1.1-4.38-4,.42-2.61,3.12-2,5-2,5.21-.11,10.43,0,15.65,0Z"/><path class="cls-2" d="M480.47,709.73c-2.77,15.42-16.2,21.91-26.38,31-3.69,3.29-7-.34-9.46-3.26-7.85-9.27-15.6-18.63-23.39-28,7.37-11.48,17.39-20.58,30.35-23.94C467.23,681.48,477.68,691.21,480.47,709.73Zm-24-18.44c-4.14,0-24.65,12.49-25,16.36-.65,6.93,6.62,9.43,9.89,14.28,2.09,3.11,5,5.67,7.25,8.69,1.76,2.34,3.49,3,5.73.93,5.15-4.69,10.46-9.23,15.33-14.19s4.13-10.72,1.37-16.22C468.1,695.32,463,692.17,456.48,691.29Z"/><path class="cls-2" d="M378.31,715.71c4.18,5.53,8.47,11,12.47,16.64,1.33,1.87,2.23,4.37-.51,6.07-2.3,1.43-4-.26-5.22-1.75-7.49-9.14-16.48-17.21-20.76-28.68,2.56-4.42,4.67-1.37,6.69.5C373.5,710.81,375.88,713.3,378.31,715.71Z"/><path class="cls-2" d="M413.17,772.45c-3.71-4.94-7.54-9.79-11.05-14.86-1.38-2-3.86-4.81-1.65-6.87,2.64-2.46,5.41,0,7.3,2.19,6,7,11.8,14.13,17.69,21.21,0,2.65,4.27,5.47.87,7.66s-5.73-1.36-7.91-3.6C416.61,776.32,414.91,774.36,413.17,772.45Z"/><path class="cls-2" d="M468.55,812.11c-9.87-2.34-19.57-5.15-28-11-2.38-1.66-5-3.86-3-7.1,2.35-3.9,5.18-1.12,7.27.5,7.45,5.8,15.49,10.09,25,11.19,2.35.27,5.08.51,4.33,3.87C473.47,812.37,471.09,812.7,468.55,812.11Z"/><path class="cls-2" d="M354.54,668c0-4.36-.08-8.73,0-13.09.07-2.48.83-4.78,3.94-4.65s2.56,2.67,2.66,4.59c.49,10.45.91,20.92,1.37,31.38.1,2.17,0,4.15-2.88,4.3-2.41.13-3.56-.91-4.06-3.4C354.33,680.82,354.55,674.44,354.54,668Z"/><path class="cls-2" d="M566.57,807.31c6.1,0,12.21,0,18.31,0,1.67,0,3.72-.18,3.66,2.4a3.11,3.11,0,0,1-3.26,3.33c-12.49.05-25,0-37.49,0-2.15,0-3.16-1.46-3.24-3.33-.13-2.69,2.15-2.23,3.71-2.25,6.1-.1,12.2,0,18.31,0Z"/><path class="cls-2" d="M623.34,807.24c5.5,0,11-.06,16.49,0,1.56,0,3.82-.48,4,2.05.12,2.32-1.07,3.74-3.66,3.74-11.58,0-23.15.07-34.73.06-2.43,0-3.86-1.57-3.59-3.85s2.62-1.8,4.16-1.83c5.79-.12,11.58-.05,17.37-.05Z"/><path class="cls-2" d="M510.42,807.31c5.22,0,10.44-.07,15.65,0,2,0,5.13-1.34,5,2.62-.07,2.55-2,3.28-4.25,3.28-11.3,0-22.6-.06-33.9-.14-2.24,0-4.1-.86-3.88-3.51.21-2.47,2.38-2.12,4-2.14,5.8-.09,11.6,0,17.39,0Z"/><path class="cls-2" d="M680.34,807.34c5.54,0,11.09,0,16.63,0,1.63,0,3.72-.61,3.93,2,.15,2-.84,3.52-2.92,3.54q-17.94.2-35.88.17c-2,0-3.29-1.08-3.12-3.28.19-2.49,2.15-2.32,3.84-2.33,5.84-.05,11.68,0,17.52,0Z"/><path class="cls-2" d="M905.65,807.37c5.83,0,11.66,0,17.49,0,1.85,0,3.55.57,3.62,2.83s-1.58,3-3.45,3c-11.66,0-23.32,0-35,0-2.4,0-4.11-1.05-4-3.51.15-3.26,3-2.08,4.7-2.13,5.53-.18,11.07-.07,16.61-.07Z"/><path class="cls-2" d="M1201.79,276.82c-13.78,1.75-26.9-2-40.15-4.76-.92-3.5-1.24-6.45,4-5.7,10.56,1.51,21.15,2.79,31.69,4.41C1200.46,271.25,1202.59,273.14,1201.79,276.82Z"/><path class="cls-2" d="M1142.46,270.79l-38.41-4.47c-.88-4.38,1.31-5.69,5.25-5.33,9.71.86,19.45,1.49,29.12,2.67C1142.14,264.12,1146.52,265.37,1142.46,270.79Z"/><path class="cls-2" d="M802.63,267.23,771,271.08c-2.38-1.16-6.93.7-7-3.46,0-4.49,4.43-3.81,7.37-4.1,9.26-.94,18.54-1.64,27.83-2.34C804.58,260.78,805.68,262.89,802.63,267.23Z"/><path class="cls-2" d="M747.48,273.73c-10.92.76-22,.67-32.51,4.24-2.61-1.27-7.63,1.45-7.82-3.15s4.46-4.39,7.89-4.72c8.64-.83,17.29-1.53,25.92-2.49C745.76,267.07,748.3,268.5,747.48,273.73Z"/><path class="cls-2" d="M860.48,264.07c-13.47.79-26.9,2.47-40.44,1.67-1.76-3.07-1.92-5.86,2.42-6.17,11-.78,21.94-1.27,32.91-1.77C859.69,257.61,860.7,260.42,860.48,264.07Z"/><path class="cls-2" d="M1565.92,665.73c-.31,4.95-.7,10.43-1,15.92-.15,2.9-1.54,4.09-4.43,3.89s-2.89-2.18-2.79-4.3q.81-16.49,1.57-33c.08-1.8.1-3.65,2.49-3.78,2.22-.13,3,1.43,3.13,3.34C1565.26,653.61,1565.56,659.39,1565.92,665.73Z"/><path class="cls-2" d="M1070.7,807.34c5.26,0,10.51,0,15.76,0,2.19,0,5.09-.78,5.1,2.91,0,2.94-2.32,2.89-4.37,2.89-11.38,0-22.77,0-34.15,0-2.28,0-4.31-.83-4.39-3.23-.11-3.21,2.8-2.31,4.54-2.36,5.84-.17,11.68-.06,17.51-.06Z"/><path class="cls-2" d="M1127.49,807.3c5.24,0,10.49-.11,15.73.06,2,.07,5.21-1.39,5.07,2.59-.09,2.51-2,3.17-4.34,3.16-11.36,0-22.73,0-34.09,0-2.25,0-4.19-.76-3.92-3.45.24-2.42,2.45-2.12,4.06-2.15,5.83-.1,11.66,0,17.49,0Z"/><path class="cls-2" d="M1490.88,701.24c5.45,4.09,6,8.09,1,13.36-7,7.35-13.29,15.32-19.86,23-2.39,2.82-5.5,5.69-8.84,2.94-11.42-9.37-25.88-16.62-26.46-34.38,4.89-23.06,27.63-27.94,43.87-12.73C1483.68,696.4,1487.42,698.67,1490.88,701.24Zm-30-9.66c-6.71.22-11.56,3.68-14.7,9.29-3.28,5.86-2.94,11.94,1.67,16.93,4.1,4.45,9.16,8,13.3,12.41,3.18,3.4,5.12,3.58,8.12-.22,4.47-5.68,9.49-10.93,14.32-16.33,1.38-1.54,2.81-2.95,1.93-5.31C1484.1,704.43,1465.4,691.66,1460.91,691.58Z"/><path class="cls-2" d="M1497.58,778.6c-3-.18-3.8-2.13-2.57-4.16a110.35,110.35,0,0,1,22.8-27.35c.8-.68,3-.55,4,.06a3.13,3.13,0,0,1,1,4.6A204.71,204.71,0,0,1,1500,777.94C1499.42,778.46,1498.31,778.41,1497.58,778.6Z"/><rect class="cls-1" width="1" height="1"/><rect class="cls-1" x="1919" y="1079" width="1" height="1"/><rect class="cls-1" y="1079" width="1" height="1"/><rect class="cls-1" x="1919" width="1" height="1"/></g><g id="Capa_3" data-name="Capa 3"><path d="M810.59,476.43v111H790.76V516.72l-19.51,14.91-16.18,12.53-16.18-12.53-19.51-14.91v70.74H699.56v-111l19.82,15.23,35.69,27.44,35.69-27.44Z"/><path d="M864.51,513.39v75.5H844.68V511.32a15.8,15.8,0,0,0-13.48-13.48h-4.44V478.17H831v.16A35.55,35.55,0,0,1,844.52,482a35.17,35.17,0,0,1,16,16.18,41.76,41.76,0,0,1,2.7,7.45,33,33,0,0,1,1,8.09Z"/><path d="M950.16,476.43A35.81,35.81,0,0,1,986,512.28v39.17a35.81,35.81,0,0,1-35.85,35.85H915.9a35.81,35.81,0,0,1-35.85-35.85V512.28a35.81,35.81,0,0,1,35.85-35.85ZM915.9,496.25a16.25,16.25,0,0,0-16.18,16.18v39.18a16.25,16.25,0,0,0,16.18,16.18h34.26a16.25,16.25,0,0,0,16.18-16.18V512.43a16.25,16.25,0,0,0-16.18-16.18Z"/><path d="M1089.89,496.1a34.47,34.47,0,0,1,3.65,15.54V587.3h-19.82V509.74a15.85,15.85,0,0,0-13.49-13.49H1002V476.43h56.31a34.44,34.44,0,0,1,15.54,3.65,35.2,35.2,0,0,1,16,16.17Z"/><path d="M1220,568v19.83H1109.24V555.1a31.54,31.54,0,0,1,2.7-12.85,32.56,32.56,0,0,1,28.86-20h48.06a13,13,0,0,0-1.11-25.86h-78.19V476.59h78.19a32.63,32.63,0,0,1,32.68,32.67,32.4,32.4,0,0,1-9.36,22.68,32.94,32.94,0,0,1-22.36,10H1140.8a12.89,12.89,0,0,0-11.57,12.84v12.85Z"/></g></g></svg>