<svg xmlns="http://www.w3.org/2000/svg" viewBox="0 0 1920 1080"><defs><style>.cls-1{fill:#f2f2f2;}.cls-2{fill:#010101;}</style></defs><g id="Capa_2" data-name="Capa 2"><g id="Capa_1-2" data-name="Capa 1"><rect class="cls-1" width="1" height="1"/><rect class="cls-1" x="1919" y="1079" width="1" height="1"/><rect class="cls-1" y="1079" width="1" height="1"/><rect class="cls-1" x="1919" width="1" height="1"/></g><g id="Capa_3" data-name="Capa 3"><path class="cls-2" d="M1712.85,471.13c0-15.27-9.6-23.46-9.6-23.46-7.63-6-16.57-6.32-25.66-6.27-25,.18-49.95.21-74.93.52-4.59.06-7-1-9.11-5.7A212.3,212.3,0,0,0,1552,374.49c-24-14.89-48.7-28.69-75.88-36.91-7.74-2.34-9.54-4.64-5.73-11.66,3.05-5.66,2-9.58-5.34-11.12-7-1.43-13.67-4.05-20.43-6.32-22.9-7.68-46.68-12.66-69.09-21.91-5.22-2.15-7.23.91-8,5.5-.72,4.43-.7,9.08-4,12.71-2.25.82-4.29.68-6-1.21-3-.66-6.14-1.24-9.16-2-65.38-16.57-130.93-32.18-198-40.36-37.09-4.53-74.3-6.8-111.57-8.8-22.94-1.23-45.88-1.5-68.82-1.49H942.11c-14.42,0-101.82,3-101.82,3l-33.6,2.44c-21,2.76-42,5.33-62.94,8.33-44.29,6.37-87.89,16.25-131.36,26.66q-25,6-49.64,13.07c-5.65,1.63-7.48.21-8.79-5.27-3.2-13.35-3.48-13.3-16.26-9.42-27.46,8.31-54.85,16.84-82.41,24.8-6.36,1.84-8.42,4.77-5.71,10.44,3.77,7.95.71,10.9-7.09,13.17-25,7.29-47.15,20.86-69.57,33.72-20.81,16.92-34.07,39.39-45.32,63.09-2.63,5.56-5.51,6.85-11.15,6.76-24.7-.33-49.42-.14-74.13-.21-9.72,0-19,1.66-27.4,6.76-7.13,6.79-7.77,19.13-7.77,19.13V516.5q.28,42.63.59,85.25a12.59,12.59,0,0,1,2.48,2.2c13.06,20,32.05,24,54.54,22.39,19.65-1.44,39.5-.06,59.28-.1,11.42,0,18.82,5.78,22.29,16.06,3.79,11.23,6.57,22.8,9.76,34.24,1,3.5-.28,5.3-4,6-7.41,1.41-14.7,3.31-22.09,4.87-4.34.9-5.6,3.14-4.5,7.49,7.68,30.56,15.36,61.13,22.66,91.8,1.64,6.92,6,6,10.49,5,10.21-2.11,20.34-4.56,30.52-6.84,2.44-.55,4.87-1.94,7.19.66,11.05,12.43,25.73,18.47,41.11,23.3,13.34,3.81,46.09,5,46.09,5,60.17-1,120.37-.26,180.54-.67,6.1,0,7.06,2.34,6.3,7.07-1.11,7.14,2.1,9,8.8,8.72,11-.42,22.09,0,33.12.05h43.73l8.64,0c1.78,0,3.55,0,5.33,0,5.2,0,10.42,0,15.62,0,1.19,0,2.38,0,3.56,0,3-.51,3.84-2.64,3.35-5.12-1.78-9.11,3.48-9.27,10.36-9.23,49.44.19,98.86.1,148.28,0,5.1,0,10.28-.79,11.16,8.29-.28-7.79,3.31-8.33,8.31-8.31q75.44.21,150.88,0c5,0,7.09,1.27,6.27,6.26-1.12,6.74,2,8.23,8.32,8.17,33.71-.33,67.44-.21,101.17-.24,12.43,0,12.43,0,12.94-12.36-.28-1.17-.14-2.08,1.36-2.08a65.67,65.67,0,0,1,6.82-.7q88,0,176,.11c11.87,0,23.65-.33,35.43-2.5,35.41-6.49,62.73-23.11,75.72-58.5,1.08-2.95,2.68-5.72,4-8.57,7.86-25.07,13.93-50.57,19.83-76.15a123.12,123.12,0,0,1,4.78-26.36c3-9.41,10.39-15.4,19.78-15.47,22.63-.15,45.27.09,67.9.16,2.89-.09,5.83-.56,8.67-.23,18.79,2.25,29.37-9.88,39.54-22.52,3.3-4.1,2.64-9.37,2.64-14.31C1712.8,589.32,1712.85,486.41,1712.85,471.13ZM1470,349.37c26.06,8.69,50.71,20.61,72.86,36.66,15.14,11,22.61,28.64,33.68,46-35.35-18.91-71.3-30.29-105.43-45.85-5.83-2.67-9.34-7.59-12.34-15.74,8.22,2.7,14.7,4.8,21.14,7,2.43.84,4.94,1.2,5.81-1.69.7-2.33-1.44-3.55-3.4-4.32-5.66-2.25-11.22-4.74-17-6.63-8.36-2.74-2.45-8-2.29-12.1C1463.19,347.83,1466.63,348.25,1470,349.37ZM969.11,264.49c16,.33,32,.12,48,.12,111.09,1.48,219.34,21.26,326.27,49.81,3.07.82,6.12,1.74,9.21,2.53,7.76,1.95,9.78,6.63,5.59,13.37-2.84,4.57-6.18.21-9.27.23-2.84,0-6.77-3.22-7.93,1.32s3.32,4.3,6.41,5c2.41.54,6,.21,6.78,2.69,1,3.35-2.78,4.72-4.94,6.37-4.93,3.77-10.48,4.23-16.54,2.92q-47.62-10.25-95.33-20.15c-62.74-12.93-126.2-19.69-190.17-22-19.18-.68-38.35-1.43-57.54-1.5-6.51,0-9.18-1.83-8.17-8.38a24.34,24.34,0,0,0,.16-6.09c-.64-6.07,1-9.58,8.07-8.5,2,.31,5,1.36,5.46-2.27.49-3.95-2.62-4-5.18-4.05-7-.18-14-.38-20.94-.12-4,.15-5.67-.86-5.58-5.22C963.53,266.42,964.12,264.38,969.11,264.49ZM962.7,292.1c1.7-1.57,1-3.7.9-5.48-.34-4.41,2.39-4.54,5.51-4.41,2.81.1,6.25-.72,6.3,3.77.07,5.48,1.45,11.62-.52,16.32-2.5,5.94-9.17,1.57-13.93,2.29-2.29.35-4.64.17-6.93.43-3.95.44-6.09-.76-5.73-5.18.25-2.88-.28-5.83.07-8.68.42-3.4-2.72-8.38,4.45-9.06,6.38-.61,8.23,1.94,7.72,7.67C960.44,291,961.27,291.88,962.7,292.1Zm-395,24.72c59.48-15.74,119.34-29.78,180.2-39A1100.62,1100.62,0,0,1,874.6,266.42c10.45-.34,20.91-1,31.37-1.44v-.67c16,0,32,.05,48,0,3.82,0,6.53,0,6.44,5.34-.07,5.11-1.76,6.49-6.6,6.27-7.24-.35-14.54-.2-21.8-.07-2.65.05-6.42-1.16-6.69,3.35-.31,5.32,4,2.7,6.27,3.05a31.85,31.85,0,0,0,7,0c3.05-.21,4.27,1.17,4,4.12a4.31,4.31,0,0,0,0,.88c1,17.77,1,17.72-17,17.84a1338.62,1338.62,0,0,0-292.82,33.83c-15.53,3.58-31.19,6.69-46.75,10.16a16.45,16.45,0,0,1-12.57-1.92c-2.93-1.76-7.24-3.49-6.8-7.07.41-3.4,5.11-2.86,8-3.42,3.23-.63,6.21-1.38,5-5.26-1.1-3.45-4.33-1.32-6.7-1.39-3.72-.12-8.17,6.37-11.07-2C559.37,321.28,560.17,318.81,567.71,316.82ZM378.26,386c21.91-16,46.14-27.79,71.88-36.49,3.16-1.06,7-2.34,7.1,2.64.07,4.19,6.76,10-2.48,12.72-5.79,1.73-11.34,4.35-16.93,6.71-1.92.8-3.72,2.16-2.85,4.64.95,2.67,3.08,1.78,5.1,1.4,7-1.28,13-6.11,20.92-6.06-2.08,8.33-7.23,13-14.27,15.89-22,9.08-43.78,18.5-65.93,27.11A324.83,324.83,0,0,0,346,430.77C354.68,414.31,362.83,397.23,378.26,386ZM321.72,612.27c-24.68-.15-49.35.07-74,.13H235.79c3.74-4.56,6.52-3.43,8.86-3.43q41.79-.11,83.6,0a34.26,34.26,0,0,1,32.63,23.06c4.41,13.15,8.34,26.47,12.36,39.75.59,2,2.35,5.33-.4,6.08-3.46.94-3.55-3-4.14-5.34-2.52-9.52-4.84-19.08-7.19-28.65C356.37,622.94,343.38,612.4,321.72,612.27ZM372.59,781.8c-4.38,1.05-3.7-1.85-4.28-4.34-2.27-9.61-4.59-19.17-7.19-28.67-.61-2.25-1.15-5.92-4.75-5s-2.27,4.41-1.76,6.63c2.22,9.57,4.57,19.13,7.4,28.54.86,2.85,2.2,4.89-1.8,5.71-2.81.58-4.83.4-5.74-3.26-6.76-27.59-13.76-55.1-20.63-82.66-.55-2.19-1.3-4.89,1.83-5.83,3.37-1,4.48,1.08,5.2,4.06,2,8.43,4.35,16.8,6.49,25.21.76,2.9,1.51,6.16,5.4,5.29,4.77-1.06,2-4.87,1.52-7.12-1.75-8.19-3.93-16.31-6.22-24.37-1-3.48-.54-5.68,3.35-6.3,20.27-3.36,39.67-10.62,60.11-13.18q26.82-6.69,53.65-13.34c2.2-.54,5.39-1.17,5.69,2,1.31,14,7.92,27.06,7.52,41.37,6.31,14,7.46,29.49,12.1,44,1.36,4.22-1.45,5-4.42,5.64-16.37,3.75-32.75,7.43-49.09,11.26-3.59.85-5.36-1.17-7.17-3.57-5.1-6.68-10.18-13.35-15.36-20-2.06-2.64-4.33-7.18-7.88-4.89-3.19,2,.42,5.65,1.66,8.38C412,755.53,418.29,762,425,769.6,406.74,773.83,389.63,777.72,372.59,781.8ZM497.74,669.71c.07,2,1,3.32,3.08,3.51,2.32.21,3-1.5,3.19-3.27a40.22,40.22,0,0,0,.28-8.69c-.73-6,2-8,7.58-9,6.26-1.06,6,2.68,7.1,6.83,6.88,26,13.93,52,21.33,77.83,1.49,5.2,1,7.21-4.66,8.18-8.81,1.52-17.47,4-26.22,6a23.77,23.77,0,0,1-2.41.58c-2-6.13-10.84-4.66-12.34-11.66q-8-37.35-16.79-74.55c-1.05-4.4-.16-5.81,4-6.23a34.88,34.88,0,0,0,7.58-1.69c6.73-2.33,10.09-.88,8.24,6.23C497.73,666.24,497.69,668,497.74,669.71Zm30.87-21.21c6-1.12,11.89-2.59,17.82-3.89,15.43-3.64,30.8-7.63,46.33-10.83,20.45-4.19,35.51,3.35,45.2,22.05,7,13.53,12.68,27.37,8.07,43.1-1.07,3.62-2.15,7.21-5,9.92-4.12,8.76-11.7,13.88-20.43,16.2-22.12,5.87-44.48,10.84-66.76,16.18-3.47.82-5.15-.33-6.12-4q-11.09-41.58-22.66-83C523.89,650.19,525,649.16,528.61,648.5ZM667.43,785.84c-.42.82,0,2.23.37,3.24,4.15,11.07,4.17,11.07-7.44,11-66-.32-132-.44-198-1.08-18.38-.18-34.83-7.41-50.08-16.48-.27-3.49,2.18-3.29,3.52-3.6,25.42-5.74,50.91-11.19,76.29-17.09,5-1.17,5.82-.14,5.87,4.7.29,23.72.43,23.74,23.86,23.7,4.37,0,8.73-.08,13.1-.1,2.32,0,4-.7,3.77-3.44-.27-2.39-1.54-3.37-4.11-3.32-7.84.19-15.69.14-23.55.16-1.74,0-4.47.56-5.06-.3-4.15-6-.44-12.79-1.52-19.18-.45-2.67-.09-4.82,3.62-5.59,21.54-4.5,43-9.29,64.54-14,13.44-3.3,26.79-7.08,40.36-9.74,15.31-3,27.46-10.35,36.41-23.06,11.14-24.86,3.84-47.2-10.4-67.91-11.59-16.81-29.19-20.55-48-16.74-26.67,5.39-53.19,11.7-79.59,18.38-6.8,1.71-7.34-.49-7-5.78.28-3.73,1.12-8.06-5.12-7.31-.43,1-1.43,2.22-1.24,3.14,2.52,12.28-5.06,14.51-14.76,16.67-31.11,6.88-62.07,14.48-93,22.12-6.49,1.63-9.88.86-11.68-6.44-3-12.06-6.82-24-10.84-35.73-6.86-20.18-20.29-29.84-41.88-30-30.22-.23-60.44-.09-90.64-.11-12,0-13.74-1.38-13.77-13.49-.09-23.52.21-47,.35-70.55-.13-16.23-.48-32.47-.27-48.69.13-9.13,4.42-13.74,13.24-13.82,29.81-.27,59.63-.11,91.18-.11-11.23,19.05-8.47,39.37-9.67,59.15.07,10.72.2,21.44.22,32.15.05,27.1,15.92,43.68,43,43.79,7,0,9.67,2.2,10.65,8.71.86,5.83,2,11.78,6.81,17.16,3.65-8.33-.77-15.36-1.08-22.56-.4-1.27-.93-2.61,1.32-2.49l1.79-.16,112.26-.52c1.91,0,3.46.33,3.77,2.56,3.15.84,2.61,3.41,2.64,5.66.05,4.07.05,8.13.09,12.2,0,2.76.47,5.8,3.84,5.66,2.88-.11,2.84-3.14,2.86-5.45.07-4.92.28-9.88-.05-14.8-.26-4,.65-5.68,5.1-5.64,36.29.3,72.64-.47,108.9.78,27.13,1,50.9,27.06,51.78,55.41.69,22.63,0,45.29-.11,67.95q0,16.75,0,33.5C669.35,760.87,673.66,773.72,667.43,785.84ZM495.93,592.13a5.13,5.13,0,0,1,1.17-.54c.14,0,.38.35.57.54a4,4,0,0,1-1.17.54C496.35,592.7,496.12,592.32,495.93,592.13Zm619.2,209.07q-42.27.21-84.53.33a18.64,18.64,0,0,1-4.16-.94c-8,1.76-16.08.22-24.12.29-33.82.25-67.65.3-101.47.37-2.27,0-4.52-.42-6.77-.63-2.37,1.64-5.05,1-7.59,1q-38.65-.08-77.32-.26c-2.41,0-5.28,1.38-7.82-2.81h92.71c5.06-1,9.81-2.22,13.88-6.14,4.68-4.53,11.12-1.3,16.71-2.15,2.37-.37,5.78.94,6-3.07.19-4.61-3.46-3.65-6.22-3.71a44.2,44.2,0,0,0-6.09.09c-4.38.51-6.2-.94-6-5.71.52-16.79.68-33.6,1-50.4,0-13.33-.75-26.71,0-40,.89-15.07,9.39-26.68,22.31-33.12,5.75-2.88,13-4.21,19.45-6.72,3.27-1.27,5.27.37,5.31,4.42,0,5.76-1,11.62,1,17.26,5.22-5,1.17-11.26,2.18-16.86.58-3.16.63-6.15,5-4.61,16.93,6,32.89,13.27,37.5,33.24a41.39,41.39,0,0,1,1.43,8.5c.33,29.64.38,59.29.89,88.93.09,5.81-3.35,4.54-6.69,5.1-4.1.68-11.59-2.8-11.45,3.56s7.51,2.55,11.54,2.9c5,.43,9.74.52,13.53,4.48,3,3.13,7.58,2.57,11.14,4.4,6.21-2.16,12.64-.91,18.94-1,21.19-.28,42.4-.24,63.61-.22,3.36,0,7-.81,9.94,1.69C1118,801.32,1116.52,801.18,1115.13,801.2Zm128-145.35c.21,3.45-.21,7-.33,10.44q0,42.78,0,85.59c.11,8.71,0,17.44.41,26.14.22,4.87-1.87,6-6.18,5.62a73,73,0,0,0-13.06-.07c-3.53.35-9.76-2.6-9.74,3.51,0,5.36,6,2.75,9.28,3a92.94,92.94,0,0,0,14.83,0c4-.3,5.34,1.14,4.71,4.89a6.31,6.31,0,0,0,0,.87c-.07,8.4,3,19.31-1.1,24.48-4.31,5.41-15.69,1.36-24,1.46-25.3.32-50.59.28-75.89.23-3,0-7.91,1.76-7.17-4.33,1.5-12.52-3.51-21.09-15.05-27.55,5.9,0,11.82,0,17.72,0,2.06,0,4.21.09,4.36-2.88.16-3.23-1.83-3.87-4.45-3.87-10.47,0-20.93,0-31.4.05-1.72,0-4.37.26-3.9,2.3,1,4.28.53,7.09-4.47,6-4.36-.94-11.87,4.1-12-6-.05-3.21-3.52-2.35-5.65-2.37-9.31-.07-18.61,0-27.92.05-1.95,0-4.15-.49-5.32,1.89-2.6,5.25-14,9.56-15.14,6-3-8.82-9.23-7.26-15.32-8.59-2.48-.52-1.24-4.68-1.24-7.17-.11-25.6-.23-51.17,0-76.76.16-23.33-7.21-40.52-30.27-51.68-5.22-2.53-9.37-5.38-22.54-5.38-18.69,0-38.35,12.29-38.35,12.29-12.48,6.25-17.46,20.62-17.88,35-.63,21.45-.73,42.92-1,64.4.12,7.82,0,15.66.48,23.46.32,5.39-1.41,7.38-6.91,6.72-3.75-.45-8.95-1.64-6.84,5.73.73,2.55-1.68,2.41-3.37,2.42-3.77,0-7.56,0-11.33,0-1.45,0-3.72-.1-3.6-1.5,1-10.79-7-6.39-11.66-6.81a128.33,128.33,0,0,0-18.29,0c-3.9.19-8.87-2.62-9.38,5.87-.26,4.71-7.94,1.6-12.2,2.42-3.35.67-4.8-.87-4-4.45.75-3.12-1.09-4-3.93-4-10.18.1-20.34.08-30.52.14-2.44,0-5,.22-5,3.44-.1,4.22,3.21,3.23,5.66,3.26a152.71,152.71,0,0,1,17.65.84c-12.64,5.24-17.67,14.38-16.08,27.3.49,4-2.24,3.84-5,3.83-32.56-.06-65.12-.14-97.68,0-4.55,0-6.54-1.18-5.69-5.85a16.2,16.2,0,0,0,.06-2.61c.17-7.51-2.43-17.25,1.29-21.93,4-5,14.14-.89,21.56-1.64,2.41-.25,5.85,1.05,6-2.95.21-4.47-3.35-3.53-6.2-3.77-7.4-.61-17.52,3.56-21.49-1.71-3.66-4.87-1.06-14.49-1.11-22,0-3.19.2-6.39.31-9.56V727.39c-.12-21.11-.87-42.23-.19-63.3.7-21.32-2.15-41.25-16.06-58.36-16.33-17.06-36.66-23.06-59.81-22.66-29.31.49-58.62.16-87.95.12-5.21,0-11.3,1.27-11.54-8.4-3.63,9.85-10.6,8.54-17.48,8.5-34.25-.19-68.5-.29-102.75.09-5.83.07-7.89-3.52-11.68-6.25-6.08-4.36-2.34,6.72-8.61,7-19.1.82-36.31-13-36.87-31.26-.78-26.84-4-53.84,2-80.36,4.05-17.72,16.31-30.17,31.2-40,.56-.36,1.57,0,3.17,0-1.78,4.31-3.54,8.1-4.87,12-.75,2.21-3.05,5.34.47,6.77,3.25,1.31,4-2.44,5.49-4.35.89-1.1,1.65-2.3,2.48-3.47,3.52-11.24,9.61-19.22,21.66-23.52,20.37-7.24,40.05-16.44,60.16-24.45,11.59-4.61,19.79-11.74,21.77-24.64a7.06,7.06,0,0,1,3-5.06c-1.4-6.76-7.39-11.23-8.36-18.52-1.14-8.5-7.95-18.42-5.24-24.65,2.86-6.6,15.27-5.8,23.44-8.45,19.56-6.36,39.39-11.93,59-18.12,4.09-1.29,5.89-1.73,6.88,3.52a220.92,220.92,0,0,0,7.3,27.73c1.95,5.91-.28,8-5.45,8.88a23,23,0,0,0-4.22,1c-2.22.85-4.8,2.27-4.35,4.76.59,3.23,3.84,2.45,5.74,1.56,8.19-3.83,13.15-1,18.4,6,4.94,6.58,13.2,8.2,21.42,6.49,24.11-5,48.15-10.42,72.28-15.39,62.3-12.85,125-22.77,188.71-25.53,29.35-1.25,58.66-3.19,88-3.12l52.77,0c41.88.25,83.68,2.69,125.42,6,72.81,5.71,143.92,21.23,214.92,37.38,13.28,3,24.91.84,32.75-11.54,1.81-2.84,3.84-3,6.61-2.09s5.57,1.52,8.35,2.28c1.46.4,3,.6,3.82-1,1-1.92-.26-3.29-1.64-4.4a4.75,4.75,0,0,0-2.32-1.17c-12.52-1.21-10.63-8.23-7.54-16.85,3-8.29,1.72-21,8.08-24.34,5.48-2.86,16,3.86,24.27,6.31,19.18,5.62,38.33,11.33,57.55,16.76,4.86,1.38,6.6,3.42,4.94,8.57-2.86,8.83-6,17.7-7.33,26.81-.75,5-8.71,4.77-6.25,10.79.7.91,1.87,1.73,2,2.69,2.2,17.56,14.39,24.81,29.42,30.32,18.15,6.65,35.59,15.28,53.8,21.77,12,4.31,17.91,12.73,21.51,23.92,3.07,2,2.84,9.81,8,6.65,3.59-2.18-.14-7.33-1.52-11-.89-2.32-2-4.56-4.12-9.1,15.17,8,24.68,18.28,31.4,31.22a57.65,57.65,0,0,1,6.6,25.91c.25,20.93.72,41.89-.15,62.79-.86,20.2-14.09,32.07-34.36,33.1-3.88.21-6.69.1-7.73-4.58-1.35-6-4.12-4-5.75-.26-1.52,3.44-3.26,4.59-7.14,4.58-36-.18-72.11,0-108.16-.09-4.63,0-9.92,1.55-12.07-5.36-1-3.25-3.47-1.2-4,.87-1.2,4.47-4.17,4.56-8,4.54-31.1-.19-62.23.33-93.32-.33C1270.86,582.16,1240.42,614.33,1243.09,655.85ZM1699,590c0,9.86-2.74,12.08-12.75,12-8.1,0-16.2-.24-24.31-.36-21.16.13-42.32.24-63.48.45-28.61.28-41,10.19-47.83,38-2.48,10.07-4.51,20.3-9,29.78-3.91,15.82-8.78,31.27-16,45.81l-2.55-.82c2-7.7,4.15-15.36,5.86-23.11.58-2.62,1.85-6.81-1.36-7.77-4.59-1.38-4.47,3.61-5.2,6.26-2.51,9.24-4.71,18.54-6.7,27.9-.49,2.31-2.12,5.33,3.1,6.13,4.07.61,1,4.28-.1,6-5.64,8.7-14.93,14.35-20,23.6-2.51,3.11-5,6.24-7.52,9.36-1.73,2.13-5,4.07-2.34,7.25,2.84,3.4,5.79.92,8.32-.84,6.92-4.84,12.36-11.14,17.32-17.9,1.35-1.83,2.83-3.57,4.24-5.36,18.65-34.37,30.78-71.05,39.34-109.1,4.2-18.67,17.28-28.41,36.22-28.39l80.3.12a23.78,23.78,0,0,1,8,1.28c-3,2.46-6.37,1.93-9.6,1.93-24.44.11-48.88.48-73.31,0-14.94-.28-26.43,5.85-35.36,17-3.76,4.68-4.12,11.21-5.29,17.11-5.85,29.43-11.37,59-21.27,87.41-2.16,6.25-5.15,12.22-7.77,18.31-7.92,25.47-28.5,35.91-51.58,43.38-15.77,5.1-32.14,4.47-48.36,4.54-57.78.26-115.58.11-173.37.25-4.4,0-8.69-.84-6.32-5.78,2.88-6,.39-10.88-.1-16.39-.75-8.63,0-17.39.15-26.1q0-42,0-83.89c-.46-9.88-.79-19.72,1-29.55,4.75-26,27.3-46.7,53.86-47.33,35.47-.84,70.94-.45,106.44-.73,3.56,0,4.5,1.29,4.41,4.55-.15,5.82,0,11.63,0,17.44,0,2.2.55,4.37,3,4.54,2.6.19,3.3-2.14,3.39-4.17a134.82,134.82,0,0,0,.17-16.57c-.38-4.87,1.59-5.83,5.92-5.81q55.83.18,111.67,0c5.08,0,5.22,2.28,4.51,5.84-.8,4-2,7.89-2.55,11.91-.35,2.48-3.3,6.32.84,7.28,3.73.87,3.79-3.68,4.59-6.23a116.71,116.71,0,0,0,3.07-12.66c.84-4.29,2.6-5.92,7.54-5.94,30.19-.15,45.57-15.76,45.69-45.8.07-17.74-.11-35.49-.11-53.23,0-12.36-3.33-24-8.55-35.91h59.69c9.84-.09,19.69-.54,29.52-.16,10.32.4,14.31,4.33,14.38,14.47Q1699.21,529.94,1699,590Z"/><path class="cls-1" d="M1596.46,487.86a57.65,57.65,0,0,0-6.6-25.91c-6.72-12.94-16.23-23.2-31.4-31.22,2.08,4.54,3.23,6.78,4.12,9.1,1.38,3.65,5.11,8.8,1.52,11-5.21,3.16-5-4.66-8-6.65-3.6-11.19-9.46-19.61-21.51-23.92-18.21-6.49-35.65-15.12-53.8-21.77-15-5.51-27.22-12.76-29.42-30.32-.12-1-1.29-1.78-2-2.69-2.46-6,5.5-5.79,6.25-10.79,1.38-9.11,4.47-18,7.33-26.81,1.66-5.15-.08-7.19-4.94-8.57-19.22-5.43-38.37-11.14-57.55-16.76-8.3-2.45-18.79-9.17-24.27-6.31-6.36,3.34-5.12,16-8.08,24.34-3.09,8.62-5,15.64,7.54,16.85a4.75,4.75,0,0,1,2.32,1.17c1.38,1.11,2.64,2.48,1.64,4.4-.82,1.57-2.36,1.37-3.82,1-2.78-.76-5.61-1.41-8.35-2.28s-4.8-.75-6.61,2.09c-7.84,12.38-19.47,14.54-32.75,11.54-71-16.15-142.11-31.67-214.92-37.38-41.74-3.28-83.54-5.72-125.42-6l-52.77,0c-29.38-.07-58.69,1.87-88,3.12-63.7,2.76-126.41,12.68-188.71,25.53C634.05,345.61,610,351,585.9,356c-8.22,1.71-16.48.09-21.42-6.49-5.25-7-10.21-9.85-18.4-6-1.9.89-5.15,1.67-5.74-1.56-.45-2.49,2.13-3.91,4.35-4.76a23,23,0,0,1,4.22-1c5.17-.92,7.4-3,5.45-8.88a220.92,220.92,0,0,1-7.3-27.73c-1-5.25-2.79-4.81-6.88-3.52-19.6,6.19-39.43,11.76-59,18.12-8.17,2.65-20.58,1.85-23.44,8.45-2.71,6.23,4.1,16.15,5.24,24.65,1,7.29,7,11.76,8.36,18.52a7.06,7.06,0,0,0-3,5.06c-2,12.9-10.18,20-21.77,24.64-20.11,8-39.79,17.21-60.16,24.45-12,4.3-18.14,12.28-21.66,23.52-.83,1.17-1.59,2.37-2.48,3.47-1.51,1.91-2.24,5.66-5.49,4.35-3.52-1.43-1.22-4.56-.47-6.77,1.33-3.95,3.09-7.74,4.87-12-1.6,0-2.61-.33-3.17,0-14.89,9.83-27.15,22.28-31.2,40-6,26.52-2.79,53.52-2,80.36.56,18.24,17.77,32.08,36.87,31.26,6.27-.28,2.53-11.36,8.61-7,3.79,2.73,5.85,6.32,11.68,6.25,34.25-.38,68.5-.28,102.75-.09,6.88,0,13.85,1.35,17.48-8.5.24,9.67,6.33,8.38,11.54,8.4,29.33,0,58.64.37,87.95-.12,23.15-.4,43.48,5.6,59.81,22.66,13.91,17.11,16.76,37,16.06,58.36-.68,21.07.07,42.19.19,63.3v22.75c-.11,3.17-.33,6.37-.31,9.56.05,7.53-2.55,17.15,1.11,22,4,5.27,14.09,1.1,21.49,1.71,2.85.24,6.41-.7,6.2,3.77-.17,4-3.61,2.7-6,2.95-7.42.75-17.58-3.34-21.56,1.64-3.72,4.68-1.12,14.42-1.29,21.93a16.2,16.2,0,0,1-.06,2.61c-.85,4.67,1.14,5.87,5.69,5.85,32.56-.15,65.12-.07,97.68,0,2.77,0,5.5.22,5-3.83-1.59-12.92,3.44-22.06,16.08-27.3a152.71,152.71,0,0,0-17.65-.84c-2.45,0-5.76,1-5.66-3.26,0-3.22,2.57-3.43,5-3.44,10.18-.06,20.34,0,30.52-.14,2.84,0,4.68.89,3.93,4-.84,3.58.61,5.12,4,4.45,4.26-.82,11.94,2.29,12.2-2.42.51-8.49,5.48-5.68,9.38-5.87a128.33,128.33,0,0,1,18.29,0c4.61.42,12.68-4,11.66,6.81-.12,1.4,2.15,1.5,3.6,1.5,3.77,0,7.56,0,11.33,0,1.69,0,4.1.13,3.37-2.42-2.11-7.37,3.09-6.18,6.84-5.73,5.5.66,7.23-1.33,6.91-6.72-.48-7.8-.36-15.64-.48-23.46.31-21.48.41-43,1-64.4.42-14.39,5.4-28.76,17.88-35,0,0,19.66-12.29,38.35-12.29,13.17,0,17.32,2.85,22.54,5.38,23.06,11.16,30.43,28.35,30.27,51.68-.19,25.59-.07,51.16,0,76.76,0,2.49-1.24,6.65,1.24,7.17,6.09,1.33,12.36-.23,15.32,8.59,1.19,3.54,12.54-.77,15.14-6,1.17-2.38,3.37-1.87,5.32-1.89,9.31-.05,18.61-.12,27.92-.05,2.13,0,5.6-.84,5.65,2.37.16,10.11,7.67,5.07,12,6,5,1.08,5.47-1.73,4.47-6-.47-2,2.18-2.28,3.9-2.3,10.47-.05,20.93,0,31.4-.05,2.62,0,4.61.64,4.45,3.87-.15,3-2.3,2.87-4.36,2.88-5.9,0-11.82,0-17.72,0,11.54,6.46,16.55,15,15.05,27.55-.74,6.09,4.17,4.33,7.17,4.33,25.3.05,50.59.09,75.89-.23,8.28-.1,19.66,3.95,24-1.46,4.12-5.17,1-16.08,1.1-24.48a6.31,6.31,0,0,1,0-.87c.63-3.75-.75-5.19-4.71-4.89a92.94,92.94,0,0,1-14.83,0c-3.33-.28-9.27,2.33-9.28-3,0-6.11,6.21-3.16,9.74-3.51a73,73,0,0,1,13.06.07c4.31.33,6.4-.75,6.18-5.62-.42-8.7-.3-17.43-.41-26.14q0-42.81,0-85.59c.12-3.48.54-7,.33-10.44-2.67-41.52,27.77-73.69,72.66-72.73,31.09.66,62.22.14,93.32.33,3.83,0,6.8-.07,8-4.54.56-2.07,3-4.12,4-.87,2.15,6.91,7.44,5.34,12.07,5.36,36,.05,72.11-.09,108.16.09,3.88,0,5.62-1.14,7.14-4.58,1.63-3.7,4.4-5.71,5.75.26,1,4.68,3.85,4.79,7.73,4.58,20.27-1,33.5-12.9,34.36-33.1C1597.18,529.75,1596.71,508.79,1596.46,487.86ZM347.8,504.4a48.09,48.09,0,0,1-.91-10.3c.21-7.8-.54-15.69,1.4-23.35.58-2.29.89-5.78,4.66-5,3.25.7,2,3.63,2,5.76-.18,4.63-.53,9.25-.82,13.86a.56.56,0,0,0,.17,0c-.37,6.07-.7,12.15-1.13,18.21-.09,1.31.33,3.16-1.52,3.56A3.28,3.28,0,0,1,347.8,504.4Zm16.45,55.5c-3.55.82-4.46-2-5.08-4.55-2.36-9.55-4.6-19.14-6.88-28.72-.19-3.67,0-7,5.18-4.91,4.16,10.25,6.2,21.09,8.77,31.77C366.78,555.75,368.17,559,364.25,559.9ZM464.7,533.47c-27.73,19.89-56.39,9.59-72.28-10.33.09-15.82.49-31.65.16-47.47-.19-9.5.58-18.17,9.34-24,26.83-16.74,43.4-15.76,68,4,4,5,5.29,10.58,5.17,17-.25,13.93.07,27.86.14,41.8C476.43,523.38,471.54,528.55,464.7,533.47Zm39.52,24.11c0,1.69-.54,3.63-2.62,4a2.89,2.89,0,0,1-3.46-3c.3-12.82-2.6-25.84,2.06-38.43.83.2,1.63.37,2.45.55C506.18,532.84,504.13,545.26,504.22,557.58Zm-.45-108.2c-1.68-.05-3.37-.11-5-.14-2.06-12-.65-24.11-.49-36.17,0-1.91.11-4.52,2.8-4.49s2.91,2.64,3,4.56C504.57,425.22,505.25,437.3,503.77,449.38Zm.59,52.28c0,2.06-.45,4.26-3.3,4-2.5-.24-3.23-2.13-3.25-4.33,0-5.76,0-11.52,0-17.28h.1c0-4.9,0-9.79,0-14.7,0-2.11.07-4.29,2.86-4.33,2.33,0,3.56,1.24,3.56,3.81C504.29,479.75,504.39,490.7,504.36,501.66ZM523.07,350c-.76.33-1.69.31-2.51.57-16.83,5.45-16.83,5.45-15.62,23.19-.21,5.2-.28,10.4-.65,15.59-.16,2.26-.54,5.13-3.74,4.73-2.34-.32-2.77-2.66-2.75-4.79,0-7.84-.58-15.73.24-23.48s-1.08-9.58-7.87-5.53c-3.6-1.76-4.61-4.4-.37-5.85,10.39-3.54,21-6.42,31.51-9.48,1.55-.44,3.68-1.12,4.4,1.21C526.34,348.2,524.72,349.26,523.07,350Zm240.1,437.11c-.25,2.69-2.19,3.08-4.37,3.06q-7.83,0-15.67,0c-5.5,0-11,0-16.54,0-1.76,0-3.59-.23-3.77-2.61-.19-2.54,1.26-3.84,3.6-3.87,11-.14,22.05-.19,33.06-.25C761.87,783.43,763.39,784.49,763.17,787.09Zm430.08,3c-5.52,0-11,0-16.57,0v0c-5,0-9.9,0-14.84,0-2.41,0-5.06-.44-5-3.44,0-2.44,2.42-3.07,4.5-3.09q16.13-.15,32.28-.05c2.15,0,4.15.58,4,3.39S1195.34,790.06,1193.25,790.1ZM1416,484.89h.21c0-5.24.08-10.48,0-15.7-.05-2.34.37-4.15,3.07-4.17s3.37,1.73,3.37,4.07c0,10.47.09,20.93,0,31.4,0,2.26-.15,5.08-3.35,5.14s-3.23-2.71-3.25-5C1416,495.36,1416,490.12,1416,484.89Zm6.44-36.94c-1.85,1.87-3.84,2.48-6.08.66,0-11.52,0-23,.09-34.55,0-2.2,0-5.43,2.79-5.57,3.69-.19,3.25,3.41,3.27,5.76C1422.6,425.5,1422.46,436.72,1422.43,448Zm0,109.73c-.07,2.06-1,4.23-3.65,3.86-2-.26-2.74-2-2.73-3.89q.14-16.53.44-33c0-1.69.3-3.7,2.65-3.63,2.17.07,2.85,2.06,3,3.72.44,5.76.6,11.56.86,17.34h-.47C1422.52,547.25,1422.66,552.48,1422.45,557.68Zm8.73-197.61c-6.52-2.92-9.71-2.24-8.7,6.28.89,7.44.25,15.07.11,22.61,0,2.23-.16,5.22-3.37,5-3-.18-3.13-3-3.2-5.31-.17-5.8-.26-11.59-.38-17.37.92-15.8.92-15.83-14.54-20.51-2.66-.81-7-.75-6-4.4s5.08-1.52,7.51-.84c8.88,2.48,17.63,5.46,26.46,8.15C1432.92,354.88,1435,356.42,1431.18,360.07Zm92.61,168.53c-26,20.27-45.25,21.33-71.86,2.13-4.9-3.54-6.74-8-6.56-14.16.38-14,.59-27.93-.07-41.84-.42-9.17,2.13-16.48,8.76-22.56,26.85-16.77,43.68-16.34,66.76,1.75,6.07,5.5,7.66,12.43,7.51,20.42-.28,14,0,27.9.26,41.85C1528.68,521.08,1528,525.35,1523.79,528.6ZM1560.61,557c-.67,2.23-2.15,3.46-4.53,2.93s-2.3-2.42-1.95-4.15c2.15-10.74,4.08-21.53,8.31-31.72.66-1.61,1.74-3.36,3.66-3.18,2.59.21,1.47,2.57,1.85,3.93C1566.66,536,1563.7,546.51,1560.61,557Zm12.13-53.19c-.16,1.67-1.26,3.44-3.37,3.35-2.45-.11-2.24-2.27-2.32-3.9q-.69-16.07-1.24-32.15c-.07-2.32,0-5.17,3-5.34,3.23-.2,3.22,3.19,3.5,5.11.82,5.43,1,10.95,1.46,17.11C1573.51,492.88,1573.28,498.38,1572.74,503.85Z"/><path class="cls-2" d="M1528.33,474.34c.15-8-1.44-14.92-7.51-20.42-23.08-18.09-39.91-18.52-66.76-1.75-6.63,6.08-9.18,13.39-8.76,22.56.66,13.91.45,27.89.07,41.84-.18,6.13,1.66,10.62,6.56,14.16,26.61,19.2,45.85,18.14,71.86-2.13,4.17-3.25,4.89-7.52,4.8-12.41C1528.36,502.24,1528.05,488.29,1528.33,474.34Zm-6.71,41.6a11.14,11.14,0,0,1-2.32,7.28c-14.35,17.65-50.63,17.85-64.84.34-1.79-2.22-2.11-4.63-2.09-7.28.05-7.84,0-15.66,0-23.5h-.14c0-4.92.61-9.94-.13-14.75-2.35-15.75,8-22.51,19.66-27.87,8.4-3.84,17.56-3.78,26.38-1.1,16,4.88,22.76,13,23.55,29.51C1522.29,491,1521.74,503.48,1521.62,515.94Z"/><path class="cls-2" d="M523.07,350c-.76.33-1.69.31-2.51.57-16.83,5.45-16.83,5.45-15.62,23.19-.21,5.2-.28,10.4-.65,15.59-.16,2.26-.54,5.13-3.74,4.73-2.34-.32-2.77-2.66-2.75-4.79,0-7.84-.58-15.73.24-23.48s-1.08-9.58-7.87-5.53c-3.6-1.76-4.61-4.4-.37-5.85,10.39-3.54,21-6.42,31.51-9.48,1.55-.44,3.68-1.12,4.4,1.21C526.34,348.2,524.72,349.26,523.07,350Z"/><path class="cls-2" d="M1431.18,360.07c-6.52-2.92-9.71-2.24-8.7,6.28.89,7.44.25,15.07.11,22.61,0,2.23-.16,5.22-3.37,5-3-.18-3.13-3-3.2-5.31-.17-5.8-.26-11.59-.38-17.37.92-15.8.92-15.83-14.54-20.51-2.66-.81-7-.75-6-4.4s5.08-1.52,7.51-.84c8.88,2.48,17.63,5.46,26.46,8.15C1432.92,354.88,1435,356.42,1431.18,360.07Z"/><path class="cls-2" d="M1573.8,488c-.29,4.85-.52,10.35-1.06,15.82-.16,1.67-1.26,3.44-3.37,3.35-2.45-.11-2.24-2.27-2.32-3.9q-.69-16.07-1.24-32.15c-.07-2.32,0-5.17,3-5.34,3.23-.2,3.22,3.19,3.5,5.11C1573.16,476.35,1573.33,481.87,1573.8,488Z"/><path class="cls-2" d="M1568,524.85c-1.29,11.12-4.25,21.66-7.34,32.19-.67,2.23-2.15,3.46-4.53,2.93s-2.3-2.42-1.95-4.15c2.15-10.74,4.08-21.53,8.31-31.72.66-1.61,1.74-3.36,3.66-3.18C1568.69,521.13,1567.57,523.49,1568,524.85Z"/><path class="cls-2" d="M1422.6,500.49c0,2.26-.15,5.08-3.35,5.14s-3.23-2.71-3.25-5c0-5.24,0-10.48,0-15.71h.21c0-5.24.08-10.48,0-15.7-.05-2.34.37-4.15,3.07-4.17s3.37,1.73,3.37,4.07C1422.6,479.56,1422.69,490,1422.6,500.49Z"/><path class="cls-2" d="M1422.43,448c-1.85,1.87-3.84,2.48-6.08.66,0-11.52,0-23,.09-34.55,0-2.2,0-5.43,2.79-5.57,3.69-.19,3.25,3.41,3.27,5.76C1422.6,425.5,1422.46,436.72,1422.43,448Z"/><path class="cls-2" d="M1422.52,542c0,5.21.14,10.44-.07,15.64-.07,2.06-1,4.23-3.65,3.86-2-.26-2.74-2-2.73-3.89q.14-16.53.44-33c0-1.69.3-3.7,2.65-3.63,2.17.07,2.85,2.06,3,3.72.44,5.76.6,11.56.86,17.34Z"/><path class="cls-2" d="M1197.58,786.94c-.16,2.77-2.24,3.12-4.33,3.16-5.52,0-11,0-16.57,0v0c-5,0-9.9,0-14.84,0-2.41,0-5.06-.44-5-3.44,0-2.44,2.42-3.07,4.5-3.09q16.13-.15,32.28-.05C1195.73,783.55,1197.73,784.13,1197.58,786.94Z"/><path class="cls-2" d="M763.17,787.09c-.25,2.69-2.19,3.08-4.37,3.06q-7.83,0-15.67,0c-5.5,0-11,0-16.54,0-1.76,0-3.59-.23-3.77-2.61-.19-2.54,1.26-3.84,3.6-3.87,11-.14,22.05-.19,33.06-.25C761.87,783.43,763.39,784.49,763.17,787.09Z"/><path class="cls-2" d="M475.26,514.43c-.07-13.94-.39-27.87-.14-41.8.12-6.39-1.14-12-5.17-17-24.63-19.74-41.2-20.72-68-4-8.76,5.82-9.53,14.49-9.34,24,.33,15.82-.07,31.65-.16,47.47,15.89,19.92,44.55,30.22,72.28,10.33C471.54,528.55,476.43,523.38,475.26,514.43Zm-7-8.09c-.63,7.42,2.13,15.68-6.85,20.86-11.24,6.52-22.29,12.71-35.94,9a63.31,63.31,0,0,1-8.19-2.91c-11.4-4.84-19.36-11.38-18.26-25.91.72-9.42.09-19.11.37-28.7.47-16.41,5.64-23.67,21.45-29.17a38.09,38.09,0,0,1,26.43.28c15.77,5.88,20.74,12.94,21,29.56.07,4.64,0,9.28,0,13.94h.06C468.33,497.63,468.62,502,468.26,506.34Z"/><path class="cls-2" d="M364.25,559.9c-3.55.82-4.46-2-5.08-4.55-2.36-9.55-4.6-19.14-6.88-28.72-.19-3.67,0-7,5.18-4.91,4.16,10.25,6.2,21.09,8.77,31.77C366.78,555.75,368.17,559,364.25,559.9Z"/><path class="cls-2" d="M504.22,557.58c0,1.69-.54,3.63-2.62,4a2.89,2.89,0,0,1-3.46-3c.3-12.82-2.6-25.84,2.06-38.43.83.2,1.63.37,2.45.55C506.18,532.84,504.13,545.26,504.22,557.58Z"/><path class="cls-2" d="M503.77,449.38c-1.68-.05-3.37-.11-5-.14-2.06-12-.65-24.11-.49-36.17,0-1.91.11-4.52,2.8-4.49s2.91,2.64,3,4.56C504.57,425.22,505.25,437.3,503.77,449.38Z"/><path class="cls-2" d="M1342.13,668.24c11.26,17.68,6.92,35.63-10.06,41.58-10.73,3.77-21.49.8-28.13-7.74a25.69,25.69,0,0,1-1.41-30.05c.77-1.2,1.54-2.42,2.31-3.63C1319,658.52,1327.92,658.48,1342.13,668.24Zm-.49,17.55c-.18-9.84-8.59-17.8-18.77-17.75-9.76,0-17.66,8.73-17.26,19,.36,9.46,8.88,17.8,18,17.65S1341.81,695.17,1341.64,685.79Z"/><path class="cls-2" d="M1423.07,668c-.78,1.93-.13,4.81-3.24,5.21-2.5.33-3.24-1.71-4.13-3.46.16-10.46.28-20.92.49-31.38,0-2.48-.69-6,3.11-6s3.26,3.45,3.31,6C1422.82,648.28,1422.92,658.16,1423.07,668Z"/><path class="cls-2" d="M1533.28,667.76c-1.47,1.14-2.83,3.46-4.73.5,1.17-12.15,5.52-23.61,7.79-35.51.44-2.29,1.43-4.11,3.86-3.56,2.88.65,2,3.18,1.5,5C1539,645.42,1536.1,656.58,1533.28,667.76Z"/><path class="cls-2" d="M1422.94,748.37c-1,11.85.83,23.77-1,35.62-.69,4.34-1.84,6.59-6.9,6.36-9.28-.43-18.58-.07-27.87-.12-2.51,0-5.87.57-5.65-3.4.2-3.57,3.26-3.39,5.93-3.38,6.1,0,12.33-.79,18.27.21,9.51,1.59,11.1-2.49,10.52-10.79-.64-9.24,0-18.57.16-27.86C1420.8,741.69,1421.84,745.09,1422.94,748.37Z"/><path class="cls-2" d="M1416.55,707.66c0-4.94-.1-9.89,0-14.82.06-1.91-.06-4.51,2.91-4.38,2.14.1,2.74,2.14,2.76,3.85q.26,16.56.2,33.12c0,1.76-.79,3.62-2.88,3.76-2.71.17-3.4-2-3.45-4.09-.13-5.81,0-11.63,0-17.44Z"/><path class="cls-2" d="M391.46,663.28c.31,3,.62,4.49-1.35,5s-2.79-.8-3.24-2.14a247.18,247.18,0,0,1-8.26-33.4c-.27-1.43-.23-3,1.67-3.4a2.71,2.71,0,0,1,3.42,1.89C386.47,642.37,389.12,653.57,391.46,663.28Z"/><path class="cls-2" d="M845.39,282.45a12.43,12.43,0,0,1,2.59,0c2.72.62,7.43-1.93,7.52,3,.07,4.34-4.43,3.5-7.4,3.82-8.9,1-17.81,1.82-26.72,2.7-2.93.29-6.39.72-6.69-3.32s3.48-3,5.77-3.31c8.28-1.2,16.58-2.21,24.88-3.29Z"/><path class="cls-2" d="M875.79,287.16c-2.3.33-5.07.69-5.46-2.42-.34-2.77,1.74-3.87,4.37-4.31a219.91,219.91,0,0,1,31-3.28c2.39-.06,5,.07,5.09,3.23s-2.33,3.5-4.82,3.74C895.93,285.09,885.86,286.14,875.79,287.16Z"/><path class="cls-2" d="M712.55,307c-4.62,0-7.95,2-8.77-1.81s2.5-4.8,5.45-5.22c9.75-1.38,19.51-2.68,29.28-3.82,1.92-.23,4.89-1.86,5.34,2.09.36,3.25-2.15,3.83-4.38,4.23C729.78,304.2,720.08,305.77,712.55,307Z"/><path class="cls-2" d="M601.12,330.1c-2.67-.09-5,.27-5.67-2.25-.82-3.2,1.73-3.82,4-4.39,10-2.51,20.06-5,30.13-7.44,1.87-.45,4.42-1,5.32,1.38,1.13,3-1.43,4.22-3.59,4.81C621.09,325,610.78,327.6,601.12,330.1Z"/><path class="cls-2" d="M768.77,298.42c-2.46,0-4.48.14-6.48-.05a2.74,2.74,0,0,1-2.74-2.77c-.07-1.63.54-2.86,2.24-3.11q16.71-2.49,33.45-4.86c1.8-.25,3.78.31,4,2.41.24,2.8-1.74,4.07-4.3,4.46C786.06,295.84,777.21,297.16,768.77,298.42Z"/><path class="cls-2" d="M655.29,317.53c-3.18-.36-5.3.77-5.76-1.92a3.62,3.62,0,0,1,3-4.52q15.72-3.27,31.51-6.24c1.59-.3,3.64-.6,4,1.95.39,2.8-1,4.45-3.66,5C674.2,313.84,664,315.82,655.29,317.53Z"/><path class="cls-2" d="M1020.24,277.29c6.84.84,15.15,1.81,23.43,2.9,2.72.35,6.68,0,6.23,4.13-.52,5-4.82,3-7.59,2.77-8.89-.76-17.75-1.91-26.63-2.85-2.54-.27-6,.14-6-3.31-.06-4.15,3.71-3.47,6.49-3.63C1017,277.25,1017.9,277.29,1020.24,277.29Z"/><path class="cls-2" d="M1077.28,282.49l23.8,3.07c2.24.29,5.05.07,4.51,3.59-.37,2.36-2.35,3.32-4.51,3.12q-16.33-1.54-32.65-3.34c-2.09-.23-4.11-1.23-3.81-3.79s2.64-2.61,4.67-2.64S1073.33,282.49,1077.28,282.49Z"/><path class="cls-2" d="M1181.57,296.12c10,1.35,20.12,2.6,30.14,4.1,2.51.37,5.64,1.14,5,4.72-.7,3.8-3.74,2.62-6.26,2.24-9.73-1.49-19.45-2.93-29.17-4.44-2.28-.35-4.78-.58-4.62-3.93C1176.83,295.19,1179.15,295.58,1181.57,296.12Z"/><path class="cls-2" d="M1319.74,330.12c-9.88-2.48-20.52-5.08-31.1-7.86-2-.54-3.62-2.18-3-4.53.59-2.15,2.66-2.06,4.34-1.66,10.65,2.57,21.27,5.23,31.89,7.9,1.74.43,3.44,1.21,3.26,3.37C1324.92,330.25,1322.47,329.76,1319.74,330.12Z"/><path class="cls-2" d="M1264.63,317.54l-28-5.54c-2.93-.58-5-2.11-4.13-5.36.72-2.86,3.33-1.86,5.08-1.55q14.51,2.63,28.93,5.63c2.26.47,4.76,1.37,4.48,4.36C1270.67,318.88,1267.61,317,1264.63,317.54Z"/><path class="cls-2" d="M1151.09,298.44c-8.29-1.27-16.57-2.63-24.87-3.75-2.63-.35-4.82-1.23-4.63-4,.27-3.9,3.57-3.17,6-2.84,8.9,1.18,17.8,2.41,26.62,4,2.41.44,6.93-.74,6.54,3.7-.38,4.25-4.36,2.51-7,2.67a22.77,22.77,0,0,1-2.6-.14C1151.12,298.21,1151.1,298.32,1151.09,298.44Z"/><path class="cls-2" d="M1448.19,790.24c-3.8,0-5.54,0-7.27,0-2-.07-4.25,0-4.2-3a3.36,3.36,0,0,1,3.16-3.54c11-.49,21.69-2.89,32.2-6.19,1.54-.48,3.7-.41,4.43,1.61.9,2.5-1.14,3.65-2.88,4.65C1465.11,788.67,1455.68,789.74,1448.19,790.24Z"/><path class="cls-2" d="M1344.57,790.21c-5.49,0-11,0-16.45,0-1.88,0-3.45-.64-3.5-2.86,0-2,1.11-3.51,3-3.54,11.53-.18,23.07-.21,34.6-.2,2.14,0,2.92,1.49,2.92,3.48,0,2.19-1.32,3.06-3.28,3.07-5.77,0-11.54,0-17.31,0Z"/><path class="cls-2" d="M1290.05,783.5h14.72c2.3,0,4.78-.32,4.87,3.18s-2.27,3.47-4.66,3.48c-10.39,0-20.78.07-31.17.05-2,0-4.41.19-4.65-2.61-.26-3,1.92-4,4.44-4.05C1279.08,783.44,1284.57,783.51,1290.05,783.5Z"/><path class="cls-2" d="M472.77,790.24a62.73,62.73,0,0,1-22.69-4.76c-3-1.16-6.95-2.69-5.56-6.33,1.12-2.91,5.27-1.62,7.77-.63a74.24,74.24,0,0,0,25.37,4.73c2.68.07,5.6.06,5.85,3.59.29,4.19-3.13,3.2-5.53,3.38C476.25,790.34,474.51,790.24,472.77,790.24Z"/><path class="cls-2" d="M629.59,790.24H614.76c-2.17,0-4.17-.29-4-3.21.13-2.53,1.64-3.53,4-3.53l32.28,0c2.31,0,4,.81,4.09,3.41.06,2.76-1.9,3.27-4.1,3.28-5.82,0-11.63,0-17.45,0Z"/><path class="cls-2" d="M575.32,790.23c-5.23,0-10.46,0-15.69,0-2,0-4.3.32-4.35-2.77,0-2.49,1.27-3.84,3.69-3.85q16.56-.12,33.12-.08c2.51,0,3.66,1.56,3.5,4s-1.84,2.73-3.7,2.74C586.36,790.24,580.84,790.23,575.32,790.23Z"/><path class="cls-2" d="M413.58,720.8a21,21,0,0,1,20.89-20.94,21.3,21.3,0,0,1,21.4,21.52c.05,11.08-9.91,20.85-21.22,20.81C422.26,742.14,413.49,733.24,413.58,720.8Zm35.16.05a14.64,14.64,0,0,0-14.51-14.26c-8,0-14.41,7.19-13.94,15.61.38,6.92,7.53,13.63,14.45,13.57C442.06,735.7,448.91,728.39,448.74,720.85Z"/><path class="cls-2" d="M392.4,690.65c.22-2.82-.59-5,1.7-5.53,2.61-.57,3.43,1.56,3.93,3.6,2.34,9.47,4.78,18.92,6.87,28.45.49,2.24,1.65,5.69-1.78,6.65s-4.34-2.36-4.87-4.74C396.07,709.26,394.17,699.37,392.4,690.65Z"/><path class="cls-2" d="M933.69,741.41c-1.09-13.93,4.25-24.43,16.66-31.15,14.24-4.36,28-.71,35.25,9.37,7.68,10.64,7,22.24-2,35.33a8.26,8.26,0,0,1-1,1.39c-2.8,2.66.9,9.31-3.91,9.41-5.54.11-1.92-6.11-3.61-9.07-1.94-3.42-5.15-1.59-7.85-1.91-3.55-.41-3.53,2-3.52,4.44,0,4.93-.29,9.89.09,14.8.24,3.13-2.23,7.84,2,9.11,4.56,1.37,10.18,3.07,14.31-5.14,1.26,7.08,2.93,10.88-5.31,11.21-3.64.15-9.71-1.62-11.7,4.62-.14.43-1.35.53-2.07.78-2.58-8.65-9.75-2.74-14.54-4.44-1.94-.69-3.95-.6-4.53-3s-.87-5,1-6.55c2.48-2,3,1.61,4.65,2.32,7.87,3.43,12.57.51,12.6-7.82,0-4.64-.27-9.31.1-13.93s-.88-6.75-6-7c-4.73-.23-6.35,1.31-6.09,5.83.16,2.65-.29,6.08-3.27,6.33-4,.33-2.68-3.73-2.93-5.87C941.23,753.16,934,748.83,933.69,741.41ZM969.48,748c4.73.95,6.3-1.21,6.12-5.7-.17-4.33-1.54-9.9.56-12.78,6.87-9.47-1.31-10.2-6.38-13-4-2.21-6.36-1.92-6.17,3.64.25,7.24.2,14.5-.13,21.73C963.27,746.47,965.14,748.3,969.48,748Zm-9.2-32.78c-6.06,2.17-14.38,2.27-13.62,9,.7,6.19,1.23,12.46,1.7,18.7.39,5.31,4.41,4.32,7.72,4.68,3.67.39,4.29-1.68,4.24-4.78C960.2,733.84,960.28,724.91,960.28,715.2Z"/><path class="cls-2" d="M947.74,707.68c-3.25,2.69-5.86,3.13-5.84-2.22,0-11.33.3-22.66.5-34,0-1.4-.19-3.16,1.68-3.5,2.69-.48,3.08,2.11,4.27,3.6Q948.05,689.63,947.74,707.68Z"/><path class="cls-2" d="M981.58,688.27c0,5.5.07,11-.05,16.51,0,1.3.11,3.08-1.86,3.38a3,3,0,0,1-3.7-2.77,226.57,226.57,0,0,1,.21-34.66,2.64,2.64,0,0,1,3.12-2.29c1.91.27,2,2,2,3.32.1,5.5,0,11,0,16.51Z"/><path class="cls-2" d="M354.91,471.55c-.18,4.63-.53,9.25-.82,13.86a.56.56,0,0,0,.17,0c-.37,6.07-.7,12.15-1.13,18.21-.09,1.31.33,3.16-1.52,3.56a3.28,3.28,0,0,1-3.81-2.8,48.09,48.09,0,0,1-.91-10.3c.21-7.8-.54-15.69,1.4-23.35.58-2.29.89-5.78,4.66-5C356.2,466.49,355,469.42,354.91,471.55Z"/><path class="cls-2" d="M574.76,672.69c13.07-13.72,26.93-15.57,38.83-5.2,8.82,7.69,10.68,18.69,5.36,31.74-7.59,9.78-17,14.7-29.57,11-10.77-3.17-15.77-11-17.66-21.51C570.68,683,573.34,678,574.76,672.69Zm40.12,13.48A17.74,17.74,0,0,0,597,667.92a18.37,18.37,0,0,0-18.25,18c0,9.5,8.68,18.52,18.08,18.7S614.77,696,614.88,686.17Z"/><path class="cls-2" d="M504.35,709.16c0,5.22.11,10.43-.06,15.64-.07,1.94-.39,4.36-3.16,4.29-2.11-.06-2.89-2.14-3-3.71-.6-11.26-1.1-22.54.44-33.78.19-1.35.5-3.18,2.18-3.3,2.23-.16,2.87,1.87,3,3.54.45,5.76.66,11.54,1,17.31Z"/><path class="cls-2" d="M1504.89,381.69c10.25,4,19.51,10.69,27.61,19a3.22,3.22,0,0,1,.29,3.09c-1,1.38-2.68.86-3.88.11q-13.52-8.55-26.9-17.25c-1.21-.78-2.25-2.07-1.61-3.65S1502.73,381.76,1504.89,381.69Z"/><path class="cls-2" d="M420.07,382.34c.36,2.85-1.4,4.24-3.52,5.42a171.34,171.34,0,0,0-23.39,15c-1.86,1.46-4.39,3-6.08.57-1.35-2,1-3.6,2.57-4.86,6.75-5.5,13.57-10.9,21.41-14.84C413.93,382.22,416.75,380.61,420.07,382.34Z"/><path class="cls-2" d="M504.36,501.66c0,2.06-.45,4.26-3.3,4-2.5-.24-3.23-2.13-3.25-4.33,0-5.76,0-11.52,0-17.28h.1c0-4.9,0-9.79,0-14.7,0-2.11.07-4.29,2.86-4.33,2.33,0,3.56,1.24,3.56,3.81C504.29,479.75,504.39,490.7,504.36,501.66Z"/><path class="cls-2" d="M1517.17,494.11c0,17.42-13,30-31,30-17.41.09-30.67-13.75-30.6-31.93.07-18.73,13.32-32.11,31.77-31.57C1502.17,461.1,1518.12,470.25,1517.17,494.11Zm-30.8-26.78c-12.95.12-25.07,12.37-24.9,25.18s12.86,25.11,25.51,25c13-.16,24.64-12.21,24.78-25.57C1511.9,478.9,1499.82,467.2,1486.37,467.33Z"/><path class="cls-2" d="M465,492.76c-.15,17.82-13.94,31.81-31.24,31.67s-32.19-15.12-32-32.36,14.79-31.71,31.85-31.48C452.16,460.84,465.14,474.15,465,492.76Zm-31.45-25.41a25,25,0,0,0-24.82,24.91c0,13.23,11.45,24.63,25.09,24.92,13.09.27,24.84-11.57,24.87-25C458.7,479.08,446.8,467.35,433.53,467.35Z"/><path d="M847.23,425.54v111H827.4V465.83l-19.51,14.91-16.18,12.53-16.18-12.53L756,465.83v70.75H736.19v-111L756,440.77l35.69,27.44,35.69-27.44Z"/><path d="M901.15,462.5V538H881.32V460.44A15.8,15.8,0,0,0,867.84,447H863.4V427.29h4.28v.16a35.42,35.42,0,0,1,29.5,19.82,42.36,42.36,0,0,1,2.7,7.46,33.47,33.47,0,0,1,1,8.09Z"/><path d="M986.8,425.54a35.81,35.81,0,0,1,35.84,35.85v39.18a35.81,35.81,0,0,1-35.84,35.85H952.54a35.81,35.81,0,0,1-35.85-35.85V461.39a35.81,35.81,0,0,1,35.85-35.85Zm-34.26,19.83a16.25,16.25,0,0,0-16.18,16.18v39.18a16.25,16.25,0,0,0,16.18,16.18H986.8A16.25,16.25,0,0,0,1003,500.73V461.55a16.25,16.25,0,0,0-16.18-16.18Z"/><path d="M1126.53,445.21a34.51,34.51,0,0,1,3.65,15.55v75.66h-19.83V458.85a15.81,15.81,0,0,0-13.48-13.48h-58.21V425.54H1095a34.47,34.47,0,0,1,15.54,3.65,35.17,35.17,0,0,1,16,16.18Z"/><path d="M1184.1,462.5V538h-19.82V460.44A15.81,15.81,0,0,0,1150.79,447h-4.44V427.29h4.29v.16a35.42,35.42,0,0,1,29.5,19.82,41.54,41.54,0,0,1,2.69,7.46,33,33,0,0,1,1,8.09Z"/></g></g></svg>