<svg xmlns="http://www.w3.org/2000/svg" viewBox="0 0 1920 1080"><defs><style>.cls-1{fill:#020202;}.cls-2{fill:#f2f2f2;}</style></defs><g id="Capa_2" data-name="Capa 2"><g id="Capa_1-2" data-name="Capa 1"><path class="cls-1" d="M1740.31,504.13c-7.85-7.67-17.62-9.18-28-9.14q-45.57.17-91.13,0c-17.89,0-23.21-5.25-23.66-23.41-.38-16,.5-32.17-3-48-14.43-53.36-46.42-90.15-100.38-106.1-19.7-5.81-39.44-11.58-59.26-16.94-46-12.44-92.37-23.68-139.48-31.44q-57.75-9.53-116.07-14.4-54.18-4.56-108.43-7.18c-9-.43-14.84,1.27-18.55,10.41-3.35,8.23-12.1,12-18.63,7.44-7.87-5.52-15.82-3.82-23.87-4.21l-119.48,1.31c-.52,2.43-1.65,4-4.48,3-9.73,2.63-15.92-1.24-19.29-10.45-3.22-8.78-9.41-11.19-18.75-10.81,0,0-60.28,5.92-80.39,7.69-58.24,5.18-116.34,11.08-173.7,22.77C538.24,286,483.57,300.5,429.24,316.29c-49.34,14.36-82.57,45.92-99.13,94.75-.58,1.71-1.24,3.37-1.85,5-4.37,18.1-4.84,36.51-4.88,55,0,18.33-5.7,23.78-24.16,23.85-28,.13-56.07.26-84.11.06-14.53-.11-28.86-.18-39.54,13.26-6.34,6.21-5.36,64-5.36,64q.34,42.84.74,85.67c.91,1.11,2.18,2.08,2.72,3.35,10.52,24.63,30,32.16,55.52,31.53,37-.91,74.05.27,111-.28,15.6-.24,25.26,5.44,32.25,19.77,18,36.89,37.2,73.2,56.22,109.59,5.34,10.19,13.75,11.71,13.75,11.71h89.89c6.74,0,14.09.12,17.73-6.17,7.48-12.89,18.28-16.61,32.14-14.39a7.3,7.3,0,0,0,2.67-.16c5.25-1.2,7.82.32,7.51,6.22-.23,4.77,1,8.92,7.28,8.91,33.74,0,67.47.05,101.19,0,4.36,0,8.23-1.7,7.62-6.65-1.13-9.16,3.83-8.67,10.61-8.76,8.41-.11,12.92,4.41,15.56,10.82,4.16,10.08,11.92,12,21.44,12,28.36-.07,56.73-.59,85.06.34,14.52.46,25.61-3.16,33.14-16,3.15-5.36,7.92-6.92,14.32-6.71l130.11-.05c15.61-2.39,27.76,1.86,35.79,16.27,3.48,6.23,10.22,6,16.39,6.06,26,.09,52-.5,77.9.31,17.93.55,33.74-.52,42.7-19.63,3.24-6.92,11.53-2.31,17.37-3,5-.54,2.47,4.91,3.15,7.71,1,4,2.21,7.33,7.34,7.33,33.73,0,67.45,0,101.19,0,4.37,0,8.19-2,7.69-6.73-.86-8.58,3.56-9.23,10.16-8.26a38.13,38.13,0,0,0,9.84.07c7.87-.93,13.52,1.47,17.71,8.68,4,6.85,9.54,11.81,18.63,11.72,29.84-.29,59.69-.14,89.53-.11,8.63,0,14.85-3.53,18.48-11.47,1.39-3,3-5.81,4.59-8.67,9.45-17.36,9.45-17.36,27.59-7.93,10.59,5.52,10.59,5.52,16-5.25q15-31.18,29.92-62.38c1.75-3.69,4.15-7.17,4.28-11.49-7.47-3.57-14.88-7.37-22.5-10.63-4.14-1.79-4.44-3.66-2.36-7.46,5.05-9.21,11.63-15.32,23-15.27,29.76.09,59.52-.22,89.27-.36q23.64-.11,47.29-.2c26.6-7.11,39.19-22.12,40.15-49.47V520.64S1747,509,1740.31,504.13ZM1062,270.18c.28-3.58,2.15-8.44,7.6-8.42,7.76.05,15.52.25,23.26.55,132.53,5.31,262.33,26.77,389.1,65.95,10.1,3.14,20,6.92,30,10.54,1.57.56,3.47,1.15,4.51,4.77-18.14-4.87-35.22-9.37-52.25-14-65.8-18-132.27-33-200-41.65-42-5.37-84.17-9.05-126.46-11.59-22.93-1.38-45.84-3.19-68.82-3.59C1066.49,272.68,1061.65,274.74,1062,270.18ZM437,328.75c62.71-17.77,125.48-35.3,189.89-46,42-7,84.36-11.88,126.84-15.4,30.33-2.51,60.71-4.23,91.12-5.41,2.09-.07,4.19-.25,6.27-.16,5.45.25,7.15,5.18,7.33,8.64.23,4.36-4.61,2.24-7.1,2.31-60.89,1.78-121.48,7-182,14-86,9.91-169.73,30.58-253,53.54-3.57,1-7.08,2.94-11.76,1.76C414.55,334.34,426,331.87,437,328.75ZM592,795.28c1.35,5.3-4.05,3.58-6.86,3.67-10.11.36-20.24.43-30.35.61-1.72,1.54-4.32,2.76-5,4.68-5.49,15.27-17.43,15.81-31,15.36-22.66-.73-45.35-.2-68.05-.11-4.37,0-8-.41-10.34-5.07-15.9-32-32-63.83-48-95.72-4.16-7.48-8.35-15-12.51-22.43-5.79-10.41-14.9-15.5-26.48-17.06-15.93-2.15-32,.25-47.89-1.36q-44.54,1.56-89.09.19c-15.15-.48-25.26-9.77-30-25.59a3.12,3.12,0,0,1-.61-3.5c-.07-1.77-.15-3.55-.22-5.32-.95-23.88-.7-47.77-.21-71.67-.11-14.3-.47-28.61-.25-42.91.21-13.57,6.39-19.63,19.89-19.7,31-.18,62.12-.9,93.13.07,26.87.82,40.87-13.88,39.77-40-1.09-25.92,1.92-51.2,14.27-74.63a139.74,139.74,0,0,1,25.83-34.07c6.51-6.44,15.36-7.35,23.7-9.47,9-2.31,18-4.86,27.05-7.28,1.61-.44,3.84-1.91,4.61.4s-1.29,3.44-3.57,4c-3.66.95-7.19,2.47-10.88,3.3-3.1.68-3.89,2.53-3.19,5.09s3.15,2.6,5.18,2c10-2.89,19.95-5.83,29.84-9,4.22-1.35,4.81-4,1.65-7.26l-5.28.64c-.79.38-1.6,1.1-2.35,1.06-2.12-.09-5.08,2.6-6.15-.5-1.2-3.44,2.87-2.65,4.55-3.75.88-.55,2.24-.37,3.39-.53l5.86-1.67c45.62-12.05,91.37-23.47,137.76-32.11a125.26,125.26,0,0,1,23.48-3.89c41.21-7.77,82.92-11.07,124.62-14.89,47.54-4.34,95.13-7.24,142.9-7,4.82,0,10.15-1,8.64,6.76-1.15,5.9,4.18,15.42-8.84,14.75-4.91-.25-10.39-2.38-14.82,4.18-1.7,2.53-10.9,5.13-14.54-2.31-1.52-3.12-3.56-2.24-5.88-2.22-9.55.12-19.09.25-28.64.12-6.22-.09-12.41-.57-5,8.44-25.5,2.12-50.06,3.89-74.57,6.26-55.17,5.34-110,13.16-163.94,25.94-35.76,8.49-57.11,32.69-63.87,69.19-.43,2.31-1,4.61-1.49,6.92q-.17,43.86-.3,87.71l.27,64.53c2.2,6.72,2.95,13.84,6.22,20.33,9.91,19.79,26.54,28.9,47.82,31.06,26.48,2.71,31.44,8.82,29.76,36.34q0,30.43,0,60.87c.14,16.67.2,33.35.5,50,.07,3.62-.59,5.73-4.73,5.5-2-.13-4.45-.38-4.72,2.65s1.74,3.07,4,3.39C597.86,782,590.71,790.28,592,795.28Zm366-3.41c1.06,4.43-.47,7.17-6,7.08-15.47-.25-31,0-46.43,0a31.74,31.74,0,0,1-4.47,0c-18.37-2.75-33.86,1.25-43.81,18.44-1.86,4.21-5.75,3.73-9.21,3.73-30.4,0-60.8-.09-91.2.09-5.72,0-8.95-2.71-11.08-7.28-5.7-12.24-14.52-18-28.4-15.11-3.9.81-9.39,2.1-8.82-5.77.44-5.74-.62-10.56,8.39-10.43,45.59.6,91.17.5,136.74.62q50-.27,100-.55C961.32,782.62,957.16,788.64,957.93,791.87ZM1205.25,799c-1.47-.12-3,.05-4.45-.14-9.8-1.31-18.16.48-22.73,10.5-.64,3.07-2.77,5.11-4.94,7.1-1.67,4.75-5.76,4.61-9.63,4.61-30.38,0-60.77-.16-91.15.07-6.06.05-9.75-3.1-12.21-7.49-7.2-12.89-18-15.8-32.07-15-19.89,1.05-39.9-.11-59.85.14-7.21.09-5.52-4.46-5.49-8.37,0-3.48-1.82-7.64,5-7.57,36,.36,72.06.27,108.07.33,37.16-.63,74.3-.95,111.44.19l8.59,0c3,0,6-.07,9-.09,4-.88,8.1-1.68,7.08,4.77C1211.16,792.57,1214.86,799.85,1205.25,799Zm116-82.89c0,2.08-.19,4.16-.3,6.24.09,15.18.09,30.38.37,45.57.09,4.64-1.54,6.47-6.22,6.25-5-.25-10.14,0-15.2.09-1.88.06-3.64.58-3.67,2.94s1.81,2.67,3.66,2.76c.87,0,1.77,0,2.67.06,18.75,1,19,1,18.51,19.48-.18,7,3.45,16.28-1.59,20.29-4.23,3.41-13.12,1.1-20,1.12-23.86.07-47.72-.33-71.58.26-7.8.2-9.59-2.2-9-9.42.68-8,.21-16.08.25-24.13,0-2.65-.47-5.51,2.17-7.33,1.47-1,3.37-1.76,2.65-4-.82-2.56-3.08-2.42-5.2-2.28a62.56,62.56,0,0,1-23-2.7c-7.94-2.53-13.25,3.87-20.15,3.9-3.78,0-8.53,2.85-9.37-4.3-.36-3-3.78-2.19-6-2.42-8.61-.86-17.21-1.72-25.82-2.42-2.79-.23-6.13-2-8.19,1.17s2.64,4.73,2.76,8.13h-56.95c-34.9-.1-69.78-.26-104.67-.19-4.08,0-4.92-1.54-5.19-5.2-.34-4.66,2.25-4.59,5.48-4.57,6,.07,11.94.16,17.89-.16,3.21-.16,8.37,1.84,8.62-3.48.31-6.2-5.14-3.08-8.1-3.37-13.39-1.31-53.81,0-53.81,0-2.44,0-6.22-1.18-6.26,2.85s3.48,4.1,6.6,4.09c6.86,0,13.73.07,20.58,0,2.94,0,5.39-.11,5,4-.36,3.48-.5,6.1-5.41,6.08-40.26-.11-80.52,0-120.78.12H785.24c3-4.14,8.67-1.51,10.73-5.56-.18-5.77-4.26-4.61-7.74-4.28-8.6.8-17.21,1.61-25.76,2.67-3.85.46-7.78-1.13-9.72,5.77-1.25,4.5-9.39,1.31-14.19-.43-1.74-.63-2.78-3.21-5.18-2.85-12.53,1.88-25.33,1.83-37.63,5.23,11.31,12.94,3.41,28.49,5.56,42.66.43,2.91-3,2.17-4.88,2.17-30.67.06-61.34,0-92,.13-4.57,0-5.38-1.83-5.27-5.84.31-9.52.36-19,.2-28.56-.09-4.45,1-6.54,6-6.15s10.11-.18,15.17-.39c1.88-.09,3.58-.59,3.6-3s-1.92-2.72-3.68-2.77c-4.76-.13-9.53-.31-14.28-.11s-7.19-.93-7-6.4c.52-11.58.52-23.18.72-34.78-.82-25-.79-50.05-.05-75.09-.15-3.24-.38-6.5-.42-9.75-.16-21.31-10.09-32-31.58-33.88-7.67-.68-15.47-.77-22.55-4.39-15.7-8-26.48-19.72-28.34-38-2.19-22.69-1.45-45.39-.59-68.1-.94-28.66-1.62-57.3.52-85.93.34-31.1,26.06-62.44,58.49-69.37a1470.71,1470.71,0,0,1,164-25.69c45.13-4.45,90.34-7.8,135.67-9,11.42-.3,21-8.6,32.88-7,1.52.22,2.42-1.79,2.42-3.28,0-2.69-2.38-2.46-3.87-2.13-10.06,2.17-10.76-3.64-9.66-11.06,1-7.25-3.41-17,2-21.17,4.52-3.53,13.73-1.15,20.87-1.24,10.75-.13,21.51.16,32.23-.29,4.84-.19,6.3,1.54,6.18,6-.27,8.64,2.8,19.41-1.27,25.36-4.47,6.53-15.94,1.31-24.27,2.33-1.19.15-2.41-.09-3.59.07-1.88.24-4.75-.77-5,2.26-.14,2.42,1.9,3.89,4.25,3.52l62.58-.08s5.7,1.55,5.75-2.88-3.81-2.8-6.06-2.85c-7.45-.16-14.93-.23-22.37.2-4.87.28-6.34-1.51-5.93-6.12.79-8.87-3.64-20.23,1.56-26,4.84-5.34,16.29-1.26,24.83-1.52,9.84-.31,19.71.1,29.56-.31,4.82-.18,6.23,1.4,6,6.1a190.74,190.74,0,0,0,0,20.57c.27,5.33-1.24,7.78-7,7.08-2.51-.28-7-2-7,2.71,0,4.27,4.48,2.51,7.13,3.14,50.5,12,102.44,8.21,153.53,14.09,57.69,6.65,115.17,14.54,172,26.74,34.42,7.39,60.59,37.48,61.14,69.91,2.44,13.5,1.08,27.14,1.26,40.71.19,15.08-.16,30.19-.27,45.28.27,23.5,1.88,47.06-1.15,70.45-2.53,19.38-19.77,36-39.09,38.79-4.43.64-8.89,1-13.34,1.33-18.86,1.45-29.85,12.88-30,31.94C1321.14,669.69,1321.28,692.92,1321.26,716.15ZM1497.6,780.6c-2.35,4.71-4.29,5.5-8.75,3-5.93-3.35-12.32-6-18.34-9.21-2.15-1.17-6.2-.92-6-4.3.2-3.07,3.27-4.9,6-6.1,10.27-4.52,17.12-12.73,23.43-21.47,1.59-2.23,5-5.27,2-7.68s-5,1.62-7,3.53c-4.3,4.11-8.48,8.32-12.71,12.5-.66.2-1.74.73-1.9.52-.81-1-.43-1.85.7-2.37,7.26-16.58,14.62-33.12,21.72-49.76,1.74-4.1,3.68-4.75,7.41-2.4,3.12,2,6.56,3.14,3.62,7.94a81.66,81.66,0,0,0-5,10.47c-.59,1.38-.7,3,.76,4,2,1.35,3.51,0,4.46-1.48,2-3,4-6,5.23-9.29,2-5.52,4.79-5.2,9.38-2.92,11.29,5.59,11.17,5.25,5.27,16.35C1517.6,741.36,1507.4,760.9,1497.6,780.6Zm-34.51-14.88c-1.72,4.21-3.89,3.44-6.92,1.88q-25.41-13-50.89-25.85c-17.71-8.39-35.35-17-53.22-25-4.57-2.07-4.86-4.58-3.17-8.29,9.89-21.91,19.88-43.78,29.73-65.72,2.66-5.9,6.1-1.7,8.63-.52q45.23,21.06,90.25,42.61c5.79,2.78,15.06,3.66,16.46,8.82,1.34,5-4,11.87-6.64,17.78-3.13,7-6.56,13.86-9.85,20.78C1472.64,743.36,1467.68,754.46,1463.09,765.72Zm86.67-47.65c.77.47,1.61.81,2.4,1.22,6,3.23,14.95,5.11,17.16,10,2.38,5.32-4.74,12.05-7.62,18.18-8.36,17.78-17,35.4-25.58,53.09-.88,1.83-1.08,4.18-4.63,3.91-6.86-3.51-14.37-7.12-21.63-11.17-2.4-1.34-.81-3.82.1-5.59,11.41-22.6,22.9-45.15,34.24-67.79C1545.62,717.16,1547.14,716.48,1549.76,718.07Zm185.47-69.62c-.75,15.58-13.65,27.73-28.78,29.15-4.74.26-9.49.77-14.24.78-37.87.11-75.77.38-113.64.09-18.75-.14-33,6.06-40.93,24.1-3.83,8.78-8.75,1.41-13,.14s-7.94-3.41-3.52-8.62a13.37,13.37,0,0,0,2-4c.87-2.28,1.79-5.26-.25-6.66-2.66-1.82-4.07,1.26-5.49,3s-2.89,3.21-3.58,5.1c-1.8,5-4.47,4.06-8.29,2.24-40.29-19.15-80.72-38-121-57.31-5-2.37-6.67-1.11-8.62,3.31-9.82,22.34-19.88,44.59-29.9,66.83-1.49,3.32-2.81,6.58-1.4,10.25,34.1,16.76,68.21,33.54,103.36,50.8-5,4.27-10.52,3.68-15.34,4.67-5.24,1.07-10.65,1.23-16,1.79-2.36.25-5.28.23-5.1,3.53.17,2.83,3,2.51,4.93,2.49,12.42-.16,25.11.7,35.45-8.26,2.14-1.83,3.82-.65,5.67.27,10.12,5,20.22,10.14,30.42,15,3.65,1.76,5.14,3.84,2.74,7.56a6.66,6.66,0,0,0-.86,1.56c-5.65,19.69-18.3,25.75-38.56,23.68s-41.1-.53-61.7-.32c-5.59.07-10.06-1.34-12.65-6.45-6.26-12.23-16.26-16.48-29.51-14.38a55.05,55.05,0,0,1-8,.22c-10.76.16-14.18-4.75-11-15.1,1.11-3.65,4.16-2.7,6.42-3.64,1.4-.57,2.9-.82,2.94-2.74.07-2.26-1.27-3.39-3.3-3.21-6.58.58-6.16-3.81-6-8.14.18-6.84.29-13.69.41-20.54v-7.78c-.1-30.74-.41-61.46-.25-92.21.07-14,9.4-23.12,23.52-23.94,9.86-.6,19.68-1.3,28.66-5.92,20.76-10.68,31.3-27.78,31.53-51.09.26-25.06.29-50.12.43-75.18V486c0-3.57,0-7.13,0-10.72q0-24.19.07-48.4c-.91-48.18-32.15-77.54-65.46-85.34-19.68-4.61-39.71-7.78-59.62-11.31-59-10.49-118.49-16.51-178.34-20.11,2.67-9.11,2.67-9-6.58-8.89-8.07.1-16.11-.13-24.16.16-3.86.14-8.12-2.21-10.6,4.62-1.16,3.25-11.67,2.69-13.51-.41-4.25-7.15-9.88-3.94-14.72-4-6.35,0-9.07-1.4-8.87-8.45.37-13.08,0-13.05,13.32-13.1,52.5-.23,104.81,3.19,157,8.59,23.85,2.45,47.69,5.18,71.54,7.8,3.83-.81,7.36.17,10.8,1.75q9.93,1.49,19.85,2.94a242.48,242.48,0,0,1,33.91,6.11,1491.12,1491.12,0,0,1,149.75,36.59c-7.27,3.05-12-.54-16.56.59-1.56.4-3.94-.7-4.19,1.92-.22,2.06,1.39,3,3.29,3.53,11.15,3,22.21,6.54,33.51,8.95,3.92.84,4.78,1.81,4.66,5.48-.34,9.23-.31,18.48-.31,27.73,0,2.57-.5,6.13,3.34,6.08s3.28-3.84,3.31-6.24c.18-9.82.54-19.7-.18-29.49-.57-7.79-9.25-7-13.82-10.7-2.38-1.95-6-2.33-9.12-3.42-1.45-.5-2.82-1.06-2.3-3.07.6-2.2,2.08-1.49,3.46-1.11,14.92,4.07,29.81,8.07,44.67,12.24a11.83,11.83,0,0,1,4.49,2.89c20,18.77,33.52,41.16,38.48,68.39,4.64,13.53,3,27.64,3.34,41.51.23,11.26,1.84,21.85,8.73,31.12,8.46,6.81,18.15,9.16,29,9.09,28.51-.16,57,.14,85.51.27,3.87-.09,7.76-.49,11.6-.2,11.16.84,17.51,6.33,17.69,17.32C1736.38,567.28,1737.22,607.88,1735.23,648.45Z"/><path class="cls-2" d="M1404.94,504c.11-15.09.46-30.2.27-45.28-.18-13.57,1.18-27.21-1.26-40.71-.55-32.43-26.72-62.52-61.14-69.91-56.81-12.2-114.29-20.09-172-26.74-51.09-5.88-103-2.05-153.53-14.09-2.65-.63-7.1,1.13-7.13-3.14-.06-4.68,4.44-3,7-2.71,5.77.7,7.28-1.75,7-7.08a190.74,190.74,0,0,1,0-20.57c.26-4.7-1.15-6.28-6-6.1-9.85.41-19.72,0-29.56.31-8.54.26-20-3.82-24.83,1.52-5.2,5.74-.77,17.1-1.56,26-.41,4.61,1.06,6.4,5.93,6.12,7.44-.43,14.92-.36,22.37-.2,2.25.05,6.12-1.6,6.06,2.85s-5.75,2.88-5.75,2.88l-62.58.08c-2.35.37-4.39-1.1-4.25-3.52.2-3,3.07-2,5-2.26,1.18-.16,2.4.08,3.59-.07,8.33-1,19.8,4.2,24.27-2.33,4.07-6,1-16.72,1.27-25.36.12-4.47-1.34-6.2-6.18-6-10.72.45-21.48.16-32.23.29-7.14.09-16.35-2.29-20.87,1.24-5.36,4.19-.9,13.92-2,21.17-1.1,7.42-.4,13.23,9.66,11.06,1.49-.33,3.87-.56,3.87,2.13,0,1.49-.9,3.5-2.42,3.28-11.83-1.56-21.46,6.74-32.88,7-45.33,1.24-90.54,4.59-135.67,9a1470.71,1470.71,0,0,0-164,25.69c-32.43,6.93-58.15,38.27-58.49,69.37-2.14,28.63-1.46,57.27-.52,85.93-.86,22.71-1.6,45.41.59,68.1,1.86,18.32,12.64,30,28.34,38,7.08,3.62,14.88,3.71,22.55,4.39,21.49,1.9,31.42,12.57,31.58,33.88,0,3.25.27,6.51.42,9.75-.74,25-.77,50.07.05,75.09-.2,11.6-.2,23.2-.72,34.78-.23,5.47,2.3,6.59,7,6.4s9.52,0,14.28.11c1.76,0,3.7.25,3.68,2.77s-1.72,2.91-3.6,3c-5.06.21-10.15.77-15.17.39s-6.11,1.7-6,6.15c.16,9.52.11,19-.2,28.56-.11,4,.7,5.87,5.27,5.84,30.67-.16,61.34-.07,92-.13,1.88,0,5.31.74,4.88-2.17-2.15-14.17,5.75-29.72-5.56-42.66,12.3-3.4,25.1-3.35,37.63-5.23,2.4-.36,3.44,2.22,5.18,2.85,4.8,1.74,12.94,4.93,14.19.43,1.94-6.9,5.87-5.31,9.72-5.77,8.55-1.06,17.16-1.87,25.76-2.67,3.48-.33,7.56-1.49,7.74,4.28-2.06,4.05-7.7,1.42-10.73,5.56h46.84c40.26-.07,80.52-.23,120.78-.12,4.91,0,5-2.6,5.41-6.08.41-4.16-2-4.09-5-4-6.85.11-13.72,0-20.58,0-3.12,0-6.65-.11-6.6-4.09s3.82-2.8,6.26-2.85c0,0,40.42-1.31,53.81,0,3,.29,8.41-2.83,8.1,3.37-.25,5.32-5.41,3.32-8.62,3.48-5.95.32-11.92.23-17.89.16-3.23,0-5.82-.09-5.48,4.57.27,3.66,1.11,5.2,5.19,5.2,34.89-.07,69.77.09,104.67.19h56.95c-.12-3.4-4.89-4.87-2.76-8.13s5.4-1.4,8.19-1.17c8.61.7,17.21,1.56,25.82,2.42,2.24.23,5.66-.59,6,2.42.84,7.15,5.59,4.32,9.37,4.3,6.9,0,12.21-6.43,20.15-3.9a62.56,62.56,0,0,0,23,2.7c2.12-.14,4.38-.28,5.2,2.28.72,2.24-1.18,3-2.65,4-2.64,1.82-2.17,4.68-2.17,7.33,0,8.05.43,16.13-.25,24.13-.63,7.22,1.16,9.62,9,9.42,23.86-.59,47.72-.19,71.58-.26,6.83,0,15.72,2.29,20-1.12,5-4,1.41-13.31,1.59-20.29.45-18.48.24-18.48-18.51-19.48-.9,0-1.8,0-2.67-.06-1.85-.09-3.72-.26-3.66-2.76s1.79-2.88,3.67-2.94c5.06-.1,10.15-.34,15.2-.09,4.68.22,6.31-1.61,6.22-6.25-.28-15.19-.28-30.39-.37-45.57.11-2.08.28-4.16.3-6.24,0-23.23-.12-46.46.09-69.69.16-19.06,11.15-30.49,30-31.94,4.45-.36,8.91-.69,13.34-1.33,19.32-2.8,36.56-19.41,39.09-38.79C1406.82,551,1405.21,527.45,1404.94,504ZM676.41,780.11c-10.65-.07-21.3.06-31.94,0-2.23,0-5.33.4-5.42-3-.09-3.81,3.25-2.65,5.29-2.72,9.47-.31,18.91-.43,28.38-.61l8.35.91C681.82,778.43,680.34,780.13,676.41,780.11Zm170.31-11.2c-3.76.14-7.53.41-11.29.61-6.8.28-13.59.64-20.4.82-2.28.06-4-1-4.12-3.62-.08-2.29,1.34-3.28,3.35-3.15,13,.84,25.9-3.48,38.93-.67C853.69,767.78,850.66,768.78,846.72,768.91Zm59-3.44c-7.1,1-14.18,2-21.91,1.56H872.68c-2.24,0-4.23-.47-4.43-3.25s1.47-3.66,3.87-3.73c11.33-.34,22.69.47,34-1.54,2-.36,3.46.65,3.44,2.94C909.5,763.94,908.17,765.11,905.7,765.47Zm140.78,1.47c-3.26.09-6.52,0-10.39,0-6.55.94-13.52-1-20.6-1.45-2.74-.18-4.7-.93-4.2-4.19.43-2.83,2.64-3,4.74-2.62,10,1.76,20.09,1,30.15,1.33,2.61.09,6-.09,6.18,3.46C1052.56,767.35,1049.06,766.86,1046.48,766.94Zm57,3.37c-11-.33-22.07-.72-33.09-1.08-6.19-8.14.89-7,5.37-7.69,9.22.7,18.43,1.36,27.64,2.1,2.57.2,6.12-.27,6.15,3.46C1109.58,771,1106.07,770.38,1103.49,770.31Zm173.8,9.57c-5.63.07-11.26,0-16.88,0V780c-5.63,0-11.26,0-16.89,0-2.22,0-4.39-.66-4.12-3.39.21-2.31,2.43-2.25,4.17-2.25q16.89-.12,33.78-.08c2.22,0,4.37.51,4.08,3.34C1281.18,780.06,1279,779.86,1277.29,779.88Z"/><path class="cls-1" d="M846.72,768.91c-3.76.14-7.53.41-11.29.61-6.8.28-13.59.64-20.4.82-2.28.06-4-1-4.12-3.62-.08-2.29,1.34-3.28,3.35-3.15,13,.84,25.9-3.48,38.93-.67C853.69,767.78,850.66,768.78,846.72,768.91Z"/><path class="cls-1" d="M1109.56,767.1c0,3.94-3.49,3.28-6.07,3.21-11-.33-22.07-.72-33.09-1.08-6.19-8.14.89-7,5.37-7.69,9.22.7,18.43,1.36,27.64,2.1C1106,763.84,1109.53,763.37,1109.56,767.1Z"/><path class="cls-1" d="M1052.36,763.48c.2,3.87-3.3,3.38-5.88,3.46-3.26.09-6.52,0-10.39,0-6.55.94-13.52-1-20.6-1.45-2.74-.18-4.7-.93-4.2-4.19.43-2.83,2.64-3,4.74-2.62,10,1.76,20.09,1,30.15,1.33C1048.79,760.11,1052.18,759.93,1052.36,763.48Z"/><path class="cls-1" d="M676.41,780.11c-10.65-.07-21.3.06-31.94,0-2.23,0-5.33.4-5.42-3-.09-3.81,3.25-2.65,5.29-2.72,9.47-.31,18.91-.43,28.38-.61l8.35.91C681.82,778.43,680.34,780.13,676.41,780.11Z"/><path class="cls-1" d="M1503.94,515.15c-4.07,19.38-18.41,30.21-38.68,28.28-16.55-1.57-28-15.57-28-34.34,0-3.55.62-7.09,1-10.64,5.64-11.13,13.41-19.79,26.57-21.45,22.09-2.8,36.78,9,39.23,31.27A33.73,33.73,0,0,1,1503.94,515.15Zm3.83-9.11c0-9.55-.19-19.1-.12-28.64,0-2.3.24-5.41,3.16-5.63,3.61-.27,2.86,3.37,3,5.34.58,7.72.73,15.48,1,23.22-.27,2.95-.34,5.95-.87,8.86-.46,2.51-2,5-4.82,3.05C1509.16,512.24,1507.77,510.2,1507.77,506Zm-14-7.28c-3.87-11.25-13.2-14.76-23.58-15-11.38-.29-19.31,5.95-23.78,16.44-2.67,1.48-1.56,4.26-2,6.38-1.84,10.14,4.79,22.67,14.12,27.28a26.32,26.32,0,0,0,31-5.1C1498,520.13,1499.47,509.54,1493.78,498.76Z"/><path class="cls-1" d="M1563,541.05c0-5.07,0-10.13,0-15.2,0-2.32-.42-5.21,3.14-5.21,2.78,0,3.15,2.39,3.16,4.52.06,11,.09,22,0,33.06,0,1.87.2,4.58-2.81,4.72-3.41.17-3.63-2.48-3.66-4.92-.07-5.66,0-11.32,0-17Z"/><path class="cls-1" d="M1531.48,668.9c-3.19-.22-3.54-1.79-2.82-3.75a159.89,159.89,0,0,1,15.27-31.84c.93-1.45,2.29-3,4.33-1.77,1.63,1,2.7,2.81,1.84,4.55q-7.86,15.85-16.13,31.51C1533.54,668.42,1532,668.65,1531.48,668.9Z"/><path class="cls-1" d="M1562.54,503.32c.14-11.18.23-22.37.46-33.55.06-2.43-1.08-6.3,2.62-6.43,4.41-.16,3.13,4.05,3.38,6.74.37,4.07.55,8.17.81,12.25,0,1.24,0,2.49,0,3.73-1.07,5.29-.73,10.6-.28,15.91C1567.8,505.49,1565.72,507.27,1562.54,503.32Z"/><path class="cls-1" d="M1569.14,584.31c-.2,11.79-4,21.38-8.77,30.69-1.11,2.17-2.47,4.78-5.26,3.33-2.08-1.08-1.26-3.91-.55-5.7a157.64,157.64,0,0,0,8.14-28.13c.49-2.45-.18-6.37,3.43-6.16C1570.4,578.58,1568.91,582.71,1569.14,584.31Z"/><path class="cls-1" d="M1507.57,605.41c0-5.06,0-10.11,0-15.17,0-2.14-.08-4.56,2.52-5s3.46,1.81,3.66,4a196,196,0,0,1,.13,33.83c-.16,1.94-.41,4.62-3.43,4.1-2.48-.42-2.91-2.61-2.9-4.83,0-5.65,0-11.3,0-17Z"/><path class="cls-1" d="M1507.67,550c0-5.32-.13-10.65.06-16,.08-2.29.33-5.23,3.56-5.13,2.82.09,2.6,3,2.64,4.8.25,10.35.36,20.7.24,31,0,2.09.11,5.37-3.19,5.38-3.94,0-3.37-3.37-3.42-5.93-.09-4.73,0-9.46,0-14.2Z"/><path class="cls-1" d="M1509.82,686.29c-4.13-6.39-1.83-13.1-2.27-19.45a88.05,88.05,0,0,1,.15-14.25c.29-3.07-2.09-8.42,3.12-8.47,3.87,0,3.15,5.13,3.25,8.06.29,8.31.21,16.64-.18,24.94C1513.75,680.16,1514,683.82,1509.82,686.29Z"/><path class="cls-1" d="M495.29,677.71c11.19,1.49,20.55,5.93,26.21,16.3,6.47,22.61-2.77,39.94-22.72,42.62a29.25,29.25,0,0,1-12.18-57C489.43,678.76,492.39,678.33,495.29,677.71Zm21.57,30.19c0-12.23-9.68-21.74-22.26-21.89a21.45,21.45,0,0,0-21.49,21.59,21.88,21.88,0,0,0,43.75.3Z"/><path class="cls-1" d="M413,606.28c0,5.63.05,11.27,0,16.9,0,2,0,4.4-3.12,4.19-2.34-.15-2.93-1.91-2.93-3.72q0-17.76.23-35.53a2.88,2.88,0,0,1,2.73-3c2.34-.21,3.08,1.43,3.11,3.36C413.08,594.43,413,600.36,413,606.28Z"/><path class="cls-1" d="M413,665.18c0,5.33.1,10.66-.06,16,0,1.54.73,4-1.68,4.31s-3.9-1.32-4.11-3.71a209.59,209.59,0,0,1,.12-35.43,2.63,2.63,0,0,1,2.91-2.65c2.33.11,2.77,1.91,2.79,3.75C413,653.35,413,659.27,413,665.18Z"/><path class="cls-1" d="M373.17,631.31c3.15.31,4.24,2.17,5.15,4,4.43,9.1,8.88,18.18,13.08,27.38.87,1.89,2.61,4.71-.78,6.11-2.44,1-3.84-.87-4.84-2.82-4.75-9.23-9.52-18.46-14.17-27.74C370.18,635.4,369.93,632.62,373.17,631.31Z"/><path class="cls-1" d="M406.8,568.1c.07-11.55.07-23.11.27-34.66,0-1.82-.6-4.74,2.41-4.92,3.37-.21,3.43,2.63,3.44,5,0,12.17-.06,24.33-.1,36.49C410.41,570.65,408.14,570.83,406.8,568.1Z"/><path class="cls-1" d="M418.52,715.33c-.39,2.78-.26,4.46-2.14,4.91s-2.81-.7-3.55-2c-5.35-9.62-10.73-19.21-15.9-28.91a4.53,4.53,0,0,1,1.07-5.74,2.76,2.76,0,0,1,4,.62C409.16,694.12,413.93,705.3,418.52,715.33Z"/><path class="cls-1" d="M366.84,614.31c-.46,1.47-.49,3.43-1.39,4-1.77,1.1-3.36-.15-4.3-1.85-5.93-10.75-10.15-22-9.18-34.54.15-1.93.84-3.64,2.75-4,2.21-.47,3.37,1.34,3.52,3.12C359.25,592.55,362.61,603.52,366.84,614.31Z"/><path class="cls-1" d="M455.47,761.76c-1.5,2.75-4,2.28-6.3,1.7-8.79-2.22-23.68-19.82-25-29.38.88,0,2.14-.32,2.59.13C436.09,743.65,447.14,751.29,455.47,761.76Z"/><path class="cls-1" d="M509.34,779.61a68.92,68.92,0,0,1-35-3.58c-2.61-1-8.16-1.59-4.09-7a202.88,202.88,0,0,0,33.15,5.18C506.93,774.44,510,774.84,509.34,779.61Z"/><path class="cls-1" d="M545.36,780.06c-5.66,0-11.32.06-17,0-2,0-4.49,0-4.43-3,0-2.4,2-2.67,3.84-2.67q17-.08,34,0c1.86,0,3.83.41,4,2.64.2,3-2.16,3.06-4.3,3.07-5.36,0-10.72,0-16.08,0Z"/><path class="cls-1" d="M416.33,511.08c.75-15.34,7.3-27.1,22.13-32.45,12.63-4.56,24.61-2.49,34.92,6.78,5.55,5,8.11,11.57,10.38,18.36,1.78,21-9.9,37.48-28.09,39.66C433.87,546,419.45,534.17,416.33,511.08Zm34.29,25.84c14.05-.13,27-13.33,26.54-27.06-.47-14.38-12.82-26.29-27.3-26.33-14.17,0-26.28,12.43-26.32,27.09C423.51,524.8,436.13,537.05,450.62,536.92Z"/><path class="cls-1" d="M374,394.27c-2.6-1-3.83-2.13-3.26-4.83,1.17-5.56,20.7-25.29,26-26.1a4.1,4.1,0,0,1,4.52,1.92,3.29,3.29,0,0,1-.94,4.74c-9.46,5.93-16.68,14.14-23.69,22.62A9.14,9.14,0,0,1,374,394.27Z"/><path class="cls-1" d="M364.93,417.62c-3.18,7.68-4.19,15.89-5.78,24-.75,3.87-1.19,8-7,6.34-1.06-11.13,1.55-21.7,5.12-32.08,1.23-3.59,3.16-9.08,6.78-8.09C369.26,409.16,364.3,414.21,364.93,417.62Z"/><path class="cls-1" d="M353.73,462.43c5.69,0,4.63,4.39,4.75,7.68.36,10.67.5,21.34.72,32-.38,2.18-1.06,4-3.86,3.67-2-.23-3.41-1.25-3.37-3.31C352.19,489.11,349.8,475.63,353.73,462.43Z"/><path class="cls-1" d="M351.93,541.07c0-5.63,0-11.27,0-16.91,0-2,.73-3.57,2.91-3.7a3.16,3.16,0,0,1,3.56,3.19q.15,18.23-.08,36.46c0,2.07-1.68,3.1-3.73,2.78s-2.65-2.19-2.67-4c-.07-5.93,0-11.86,0-17.8Z"/><path class="cls-1" d="M406.06,503.85c.25-8.57.41-17.15.81-25.71.12-2.51-.23-6.25,3.38-6.23,4.06,0,2.71,4,2.74,6.26.15,11,0,21.93-.06,32.9-2.91,3.44-5.14,3.65-6.12-1.36C406.43,507.78,406.3,505.8,406.06,503.85Z"/><path class="cls-1" d="M560.32,317.22c3.1.67,5.86-.5,6.21,2.57.29,2.58-2,3.68-3.93,4.18-10.62,2.75-21.26,5.38-32,7.81-1.66.38-4.42,1.49-5.12-1.62-.57-2.49,1.12-4,3.24-4.6C539.63,322.6,550.53,319.8,560.32,317.22Z"/><path class="cls-1" d="M413.15,378.16c0,4.44.33,8.91-.13,13.3-.25,2.37,2,6.83-3,6.66-4.24-.14-3.45-4.42-3.53-7-.23-7.08.24-14.18.34-21.27,0-3-.32-5.92-.18-8.86.11-2.31,1.47-4,4-3.77s2.22,2.36,2.23,4.05c.06,5.62,0,11.23,0,16.85Z"/><path class="cls-1" d="M413.46,416.09c-.11,11.28-.16,22.56-.41,33.83-.05,2.05.92,5.31-2.88,5.3-3.41,0-3.32-3-3.43-5.24-.46-9.47.84-19-.66-28.42C407.69,412.6,408.11,412.29,413.46,416.09Z"/><path class="cls-1" d="M473.42,344.21c-.57,0-2.26.35-2.82-1.49s.71-2.85,2.1-3.4c11.59-4.61,23.85-6.6,36-9.08,1-.21,2.61.05,2.53,1.68a5.3,5.3,0,0,1-1.08,3.18c-2.32,2.61-5.82,2.94-8.9,3.63C492.3,340.76,483.26,342.31,473.42,344.21Z"/><path class="cls-1" d="M588.44,310.14c8.59-.58,16.87-2.72,25.13-5a15.39,15.39,0,0,1,2.63,0c2.23.39,5.78-2.06,6.19,2.41.37,4-3.47,3.72-5.6,4.24C608,314,599,315.85,590,317.36c-2.4.4-6.46,2.53-7.36-1.89C581.87,311.56,585.77,311.16,588.44,310.14Z"/><path class="cls-1" d="M659.08,301.15c5.64,0,11.29,0,16.93,0,1.8,0,3.67.26,3.8,2.67S678.4,307,676.45,307q-18.27.12-36.54.06c-1.49,0-3-.44-3-2.42,0-2.23,1.44-3.18,3.42-3.2,6.24-.07,12.49,0,18.73,0Z"/><path class="cls-1" d="M773.87,301.09c5.64,0,11.28-.08,16.92,0,1.87,0,4.65-.62,4.43,2.67a3.35,3.35,0,0,1-3.63,3.15q-17.36.26-34.72.54c-2.42,0-4.19-1-4.25-3.5-.07-2.87,2-3,4.33-2.94C762.59,301.19,768.23,301.1,773.87,301.09Z"/><path class="cls-1" d="M715.44,307.65c-5.05,0-10.11-.22-15.14.08-2.91.18-4.84-.56-4.92-3.5s2.19-2.94,4.43-2.93c11,0,22,0,33,0,2.23,0,4.42.3,4.27,3.17s-2.71,2.71-4.69,2.74c-5.64.1-11.29,0-16.93,0Z"/><path class="cls-1" d="M1281.43,777.64c-.25,2.42-2.45,2.22-4.14,2.24-5.63.07-11.26,0-16.88,0V780c-5.63,0-11.26,0-16.89,0-2.22,0-4.39-.66-4.12-3.39.21-2.31,2.43-2.25,4.17-2.25q16.89-.12,33.78-.08C1279.57,774.3,1281.72,774.81,1281.43,777.64Z"/><path class="cls-1" d="M909.51,761.45c0,2.49-1.34,3.66-3.81,4-7.1,1-14.18,2-21.91,1.56H872.68c-2.24,0-4.23-.47-4.43-3.25s1.47-3.66,3.87-3.73c11.33-.34,22.69.47,34-1.54C908.08,758.15,909.53,759.16,909.51,761.45Z"/><path class="cls-1" d="M1522.79,362.86a16.47,16.47,0,0,1,3.11,1.32,91.81,91.81,0,0,1,22.79,22.3c1.57,2.17,3,4.91-.25,6.94-3,1.86-4.18-1-5.61-2.66-6.06-7-12.45-13.58-20-18.89-2.6-1.82-3.09-4.16-2.59-7A2.29,2.29,0,0,1,1522.79,362.86Z"/><path class="cls-1" d="M1568.77,435.81a66.78,66.78,0,0,1-.11,7.08c-.24,2.07,1.07,5.24-2.72,5.43-3.38.18-3.52-3-4-5-2.08-9.2-2.64-18.75-6.71-27.47-.86-2.78-2.87-6.41.94-7.76,4-1.43,5.59,2.8,6.51,5.65C1565,421,1566.79,428.44,1568.77,435.81Z"/><path class="cls-1" d="M1390.07,331.7c-11-2.5-21.34-4.79-31.67-7.25-2.55-.61-4.23-2.49-3.42-5.27s3.46-1.91,5.26-1.52c10.39,2.25,20.73,4.71,31.09,7.08,2.38.55,5,1.06,4,4.42C1394.42,332.18,1391.82,331.82,1390.07,331.7Z"/><path class="cls-1" d="M1514.81,426.87c-.19,7.41-.22,14.83-.67,22.22-.14,2.34.55,6.17-3.37,6.1s-3.21-3.56-3.24-6.14c-.11-10.39-.17-20.77-.24-31.16.32-2.08.6-4.38,3.4-4.3s3.13,2.34,3.36,4.45C1514.38,421,1514.56,423.93,1514.81,426.87Z"/><path class="cls-1" d="M1450.4,341.55c-.19,3.15-2.56,3.08-4.49,2.68-10.4-2.13-20.75-4.52-31.15-6.68-3-.63-5.35-2.19-4.54-5.23.89-3.29,3.78-1.59,6-1.1,9.23,2.08,18.49,4,27.65,6.34C1446.23,338.17,1449.15,338.71,1450.4,341.55Z"/><path class="cls-1" d="M1303.3,304.71l34.11,7.44c1.13,2.53,2.63,5.66-2.07,5.44-11.77-.56-23.06-4-34.49-6.52a3.18,3.18,0,0,1-2.61-4C1298.88,304.23,1301.5,305.27,1303.3,304.71Z"/><path class="cls-1" d="M1272.85,301.17l10.57.76c.49,3,.1,5.26-3.82,5.24-11.31-.05-22.62.09-33.92,0-2.25,0-5.29.24-5.07-3.35s3.3-2.63,5.47-2.64C1255,301.12,1263.92,301.17,1272.85,301.17Z"/><path class="cls-1" d="M1204.65,301.33c5.66,0,11.32-.06,17,0,2.13,0,4.48.33,4.21,3.27-.2,2.31-2.31,2.44-4.08,2.47-11.31.17-22.63.34-33.94.37-2,0-4.47-.13-4.44-3.11,0-3.7,2.92-3.07,5.19-3.09,5.36-.06,10.72,0,16.09,0Z"/><path class="cls-1" d="M1147.28,301.14c5.67,0,11.34-.07,17,.05,1.62,0,3.91-.41,4.31,2,.44,2.76-1.53,3.71-3.82,3.73-11.93.11-23.87.14-35.8.16a3.08,3.08,0,0,1-3.37-3.32c0-2.46,1.9-2.59,3.76-2.59h17.91Z"/><path class="cls-1" d="M1375.62,774.22c5.37,0,10.74,0,16.11,0,2,0,4.51-.24,4.73,2.71.24,3.23-2.37,2.89-4.36,2.92-10.74.18-21.47.32-32.21.35-2.28,0-5.48.14-5.21-3.23s3.48-2.63,5.73-2.69c5.07-.12,10.14,0,15.21,0Z"/><path class="cls-1" d="M1448.27,727.37c-12,10.3-25,12.74-39.27,5.1-14-13.58-16.49-29.69-6.59-42.23a29.87,29.87,0,0,1,39.92-6.71c12.54,8.17,16.49,24.84,9.09,38.52C1450.44,723.86,1449.32,725.6,1448.27,727.37Zm-21.77,2c11.7-.11,21.89-10.4,21.67-21.86-.21-11.14-11.91-22.45-23-22.2-11.28.27-21.25,10.73-21.36,22.44C1403.74,719.7,1413.94,729.44,1426.5,729.32Z"/><rect class="cls-2" width="1" height="1"/><rect class="cls-2" x="1919" y="1079" width="1" height="1"/><rect class="cls-2" y="1079" width="1" height="1"/><rect class="cls-2" x="1919" width="1" height="1"/></g><g id="Capa_3" data-name="Capa 3"><path d="M802.29,479.53v111H782.46V519.82L763,534.73l-16.18,12.53L730.6,534.73l-19.51-14.91v70.74H691.26v-111l19.83,15.23,35.68,27.44,35.69-27.44Z"/><path d="M856.21,516.49V592H836.39V514.43A15.83,15.83,0,0,0,822.9,501h-4.44V481.28h4.29v.16a35.35,35.35,0,0,1,29.5,19.82,41.54,41.54,0,0,1,2.69,7.46,33,33,0,0,1,1,8.09Z"/><path d="M941.86,479.53a35.81,35.81,0,0,1,35.85,35.85v39.18a35.82,35.82,0,0,1-35.85,35.85H907.6a35.82,35.82,0,0,1-35.85-35.85V515.38a35.81,35.81,0,0,1,35.85-35.85ZM907.6,499.36a16.25,16.25,0,0,0-16.18,16.18v39.18A16.25,16.25,0,0,0,907.6,570.9h34.26A16.25,16.25,0,0,0,958,554.72V515.54a16.25,16.25,0,0,0-16.18-16.18Z"/><path d="M1102.22,499.52a34.46,34.46,0,0,1,2.53,12.85v45.52A32.69,32.69,0,0,1,1094.29,582a34.1,34.1,0,0,1-7.3,5.23,31.42,31.42,0,0,1-14.91,3.65h-69V571.05h69a13.06,13.06,0,0,0,13-13V542.5a32.49,32.49,0,0,1-12.38,2.54h-46.79a32.76,32.76,0,0,1,.48-65.51h45.52a32.59,32.59,0,0,1,30.14,20Zm-88.67,12.85a13,13,0,0,0,12.37,13h46.79a13,13,0,0,0-.63-26h-45.52A13.07,13.07,0,0,0,1013.55,512.37Z"/><path d="M1190.72,479.53a35.82,35.82,0,0,1,35.85,35.85v39.18a35.82,35.82,0,0,1-35.85,35.85h-34.26a35.82,35.82,0,0,1-35.85-35.85V515.38a35.81,35.81,0,0,1,35.85-35.85Zm-34.26,19.83a16.25,16.25,0,0,0-16.18,16.18v39.18a16.25,16.25,0,0,0,16.18,16.18h34.26a16.25,16.25,0,0,0,16.18-16.18V515.54a16.25,16.25,0,0,0-16.18-16.18Z"/></g></g></svg>