<svg xmlns="http://www.w3.org/2000/svg" viewBox="0 0 1920 1080"><defs><style>.cls-1{fill:#f2f2f2;}.cls-2{fill:#010101;}</style></defs><g id="Capa_2" data-name="Capa 2"><g id="Capa_1-2" data-name="Capa 1"><rect class="cls-1" width="1" height="1"/><rect class="cls-1" x="1919" y="1079" width="1" height="1"/><rect class="cls-1" y="1079" width="1" height="1"/><rect class="cls-1" x="1919" width="1" height="1"/></g><g id="Capa_3" data-name="Capa 3"><path class="cls-2" d="M1765.83,474.44c0-9.64-9.66-14.65-9.66-14.65-7-5.79-15.31-5.33-23.46-5.35-28-.09-56,.15-84,0-11.52-.07-14-2.52-14.57-13.83-.42-8.49-.33-17-.33-25.54,0-22.8-3.57-28.09-25.32-36.33-41.16-15.6-83.27-28.35-125.17-41.74-13.45-4.32-26.88-9.58-38.64,3.61a1.83,1.83,0,0,1-.8.4c-5.27,1.9-9.67,1.61-8.63-5.46.84-5.66-2.23-6.74-6.41-7.72-30.58-7.29-61.18-14.56-91.7-22.05-5.59-1.37-9.61-1.79-9.79,5.75-.06,2.27-1.28,5.65-4.24,4.7-5-1.59-11.53-1.7-13.34-8.06-2.46-8.7-8.86-11.73-16.75-13.24-25.43-4.85-51-9.05-76.52-13.07-43.66-6.88-87.6-10.76-131.59-13.92-38.78-2.79-77.67-4.6-116.6-3.8L947.16,264c-69.18,0-171.77,8.81-171.77,8.81a1444.9,1444.9,0,0,0-148.7,21.94c-8,1.62-14.38,4.73-16.94,13.11-2,6.45-7.89,7.07-13.11,8.26-3.88.86-4.41-2.76-4.7-5.26-.77-6.56-4.2-6.63-9.61-5.3-30.91,7.67-61.87,15.09-92.84,22.49-3.87.93-5.33,2.57-5.35,6.83,0,7.67-4.15,10.32-9.26,5.41-11.55-11.11-23.24-7.82-36.22-3.77-44.34,13.83-88.66,27.77-132.21,44-16,5.95-20.59,13.28-20.44,30.41.09,9.72.11,19.48-.27,29.18-.42,11.14-3.35,14.12-14.4,14.21-26.47.25-52.94.13-79.41.29-11.14.07-22.6-1.06-33,8.59-3,2.48-4.75,9.92-4.75,9.92V582.7c0,10.08.53,20.06,4.11,29.63,10.08,19.29,26.47,27.24,47.75,27.14,37.07-.14,74.13.06,111.22.13a62.61,62.61,0,0,1,9.09.39c5.32.78,8.37,3,3.27,8-6.92,6.93-4,11.82,2.58,17,24.68,19.14,49.14,38.58,73.69,57.89,8.64,8.13,11.68,8.31,18.4-1.08,3.91-5.44,6.17-5.19,11.12-1.26,20.9,16.55,42.18,32.59,63.34,48.81,9.3,6.74,18.69,13.34,27.84,20.28,9.88,7.49,19.93,14.61,31.8,18.94,19.66,8.55,60.36,5.52,60.36,5.52l98.88-23.62C758.41,778.68,800.23,780,842,780.72c5.15-.13,10.36-.67,15.47-.25,15.15,1.22,29.27.29,38.36-14.47,1-1.72,3.09-3.82,5.21-2.94,2.83,1.18,3.14,4.45,2.69,7.07-1.45,8.07,2.66,9.73,9.6,9.55l95-.13c5.17,0,7.91-1.28,7.4-7.2-.26-3-2-7.58,2.13-8.8,3.84-1.13,6.74,2.34,8.75,5.41,6.16,9.39,14.67,12,25.71,11.67,23.71-.73,47.44-.16,71.15-.26,19.2,0,38.34,1,57,5.21,37.54,8.49,75.08,17,112.38,26.56,36.23,9.25,68.31,2,97.63-20.66,19.45-15,39.38-29.39,59.09-44.06,32.94-25.89,66.48-50.95,100.35-75.57,12.18-9.45,24.33-18.93,36.55-28.32,4.55-3.49,9.87-3.95,15.47-4.11,41.16-1.19,82.36,2.06,123.51-.66,17.85-3.32,30-13.63,37.27-30.1,2.54-9.47,3.12-19.11,3-28.88C1765.81,579.78,1765.83,484.11,1765.83,474.44ZM1430.67,356.89c1-3.84,5.06-1.66,7.78-.75,7.16,2.43,12.26-1.46,17.27-5.53,3.61-2.93,6.68-4.94,12.18-3.2,46.78,14.76,93.59,29.41,139.71,46.23,8.81,3.22,12.46,8.81,12.19,16.92.82,8.92-4.48,5.17-7.38,4.13-33.1-11.89-66.5-22.8-100.33-32.37-24.77-7-49.67-13.59-74.42-20.64C1435,360.93,1429.37,362,1430.67,356.89Zm-101-25.14c1.31-5.28,2.68-10.56,3.84-15.89.76-3.6,3.27-2.83,4-2.76,27.11,6.67,52.67,12.83,78.14,19.37,3.8,1,10.37-.55,10.79,4.49.5,6.08-1.64,12.49-3.23,18.6-.7,2.68-3.58,1.55-5.55,1.09-28-6.48-56-13.13-84-19.49C1330.14,336.37,1328.81,335.19,1329.65,331.75ZM1424.29,367c-34.59-7.14-69-15-103.43-23.29C1356.05,348.16,1390.24,357.27,1424.29,367ZM606.81,328c7.11-1.26,13.13-4.51,15.13-11.51,1.82-6.41,6.35-7.36,11.43-8.42,39-8.11,78.35-13.87,117.87-18.25a1812.82,1812.82,0,0,1,197.53-11.46h20.44c61.19-.31,122.21,3.35,183,9.6,45.29,4.65,90.41,11.07,135.06,20.35,4.86,1,8.62,2,10.23,8.22,2.13,8.33,9.88,10.66,17.68,12.18,2.14.42,6.74-.35,5.55,3.95-.89,3.21-4.25,1.06-6.35.62Q1255.54,321,1195.93,313a1802.56,1802.56,0,0,0-241.06-15.33c-89.24.13-178,6.52-266.18,20.51-28.81,4.57-57.53,9.41-86,15.84a39.37,39.37,0,0,1-5.37.39C599.47,328.63,603.43,328.61,606.81,328Zm-8.75,15.43c-33.27,9.91-67.65,15.09-101.31,23.53C529.77,356.16,563.79,349.2,598.06,343.44Zm-101.19-9.82q41.46-10.1,82.9-20.21c3.77-.91,6.23-.42,6.76,4.46.55,5.08,2.29,10,3.51,15,.6,3.6-2,3.67-4.42,4.24q-42,9.75-84,19.65c-.88.2-2.1.75-2.63.37-6.34-4.42-3.8-12-6.09-17.87C491.52,335.77,493.88,334.35,496.87,333.62Zm-192,63.84a87.58,87.58,0,0,1,11.59-5.26c44.84-16.75,90.62-30.76,136.29-45.05,2.43-.76,4.95-1.75,6.85.17,8.28,8.29,17.72,12.2,29.74,7.07-.91,7.6-6.17,6.88-9.88,7.87-56.87,14.87-113.1,31.75-168.61,51.08-3.31,1.15-7.05,5-10.54,1.22C297.65,411.75,301.12,399.53,304.84,397.46ZM316,624.93c-36.17,0-72.36.13-108.53-.14-10.56-.08-21.48-.26-28.79-10.11-7.83-6.24-10-15-10-24.33-.09-36.17.17-72.34-.07-108.51-.05-9.06,4-12.66,12.53-12.68q42.39,0,84.82-.25c5.44,0,11.11.09,16.28-1.32,11.65-3.12,17.72-13,17.81-27.49.11-18.87-2.58-14.14,14.78-20.44,19.52-7.09,39.4-13.28,59.42-20,.44,4.2-2.48,4.84-4.13,6.06-20.46,15.31-30.27,35.81-30.3,61.2q-.12,70.66-.26,141.32c1.61,5.5,3.2,11,4.84,16.48.62,2,1.68,4.27-.58,5.73-1.59,1-3.6.57-5.12-.63C331.93,624.53,324,624.93,316,624.93Zm112,80.13c-12.16,14.57-12,14.79-27,3.17-20.68-15.94-41.23-32-62-47.86-4.58-3.49-5.68-6-1.09-10.56s7.94-9.88,11.45-14.35c25.72,19.6,51.17,39.27,77,58.42C431.51,697.73,432.28,699.94,428,705.06Zm5.16-15.26q-35.58-27.57-71.38-54.86c-5.46-4.14-7.7-7.45-1.8-13.53,6.06-6.27,11-13.67,16.09-20.83,2.61-3.71,4.49-3.85,7.89-.93,23.69,20.33,48.59,39.17,73.6,57.85,1.45,1.08,3.27,1.65,3.27,4.43-.73,1.11-1.64,2.66-2.74,4.07-5.92,7.69-12.07,15.18-17.75,23C437.87,692.45,436.15,692.14,433.16,689.8Zm-37.29-96.23c10.27-12.75,19.9-26.07,30.56-38.47,15-17.47,36-18.53,55-3.64,18.71,14.61,22.47,34.65,9.81,53.6-3,4.49-6.86,8.46-10.32,12.66-6.66,8.89-13.41,17.74-19.93,26.74-1.82,2.54-3.32,3-5.79,1q-17.87-14.49-35.84-28.86c-7.6-5.48-15.14-11-22.82-16.43C393.64,598.08,393.59,596.38,395.87,593.57ZM523.29,758.38c-24.24-18.32-48.37-36.77-72.8-54.84-6-4.42-8.11-7.31-1.77-13.68,7.22-7.27,12.93-16,19.22-24.23,1.84-2.41,4.49-5.9,1.51-8-7.54-5.45-2.08-9,1.08-13,8.64-10.92,17.36-21.79,26.05-32.68,10.69-17.36,13.41-35.44,1.88-53.09-20.42-31.25-59.7-33.57-81.25-5.11-8.62,11.38-17.48,22.59-26.25,33.87-1.79,2.28-3.4,5.93-7.07,3-5.28-4.22-8.26-.91-11.25,2.85q-8.81,11.07-17.52,22.18C354,617,353.07,619,351,618.52s-1.9-2.83-2.14-4.55c-.62-4.49-1.59-9-1.61-13.52-.11-45-.2-90,0-135,.13-28.77,16.75-52.22,44.07-63-4.61,30.91-1.61,62-2.2,92.93-.38,19.51,10.16,29.37,29.74,29.74,19.13.36,38.38-1.92,57.35,1.4,24,4.19,38.72,22.38,38.81,46.77.06,18.54-.2,37.07-.32,55.61.14,12.75.2,25.5.45,38.25C516,709.7,535.47,739.78,575,756.5a30,30,0,0,1,3.2,1.62c.23.13.33.48.49.73C562.27,770,538.36,769.76,523.29,758.38Zm376.85-9.23c-8.46-.69-13.58,4.52-18,10.33-3.89,5.09-8.44,7-14.76,6.57-8.44-.55-16.91-.36-25.37-.51-26,1.06-52-.44-78,1.81-11.78,1-23.26,3.73-35,4.73-36.39,9.74-73.09,18.07-109.83,26.32-33.21,9.08-61.27-1.84-88-23.49,30.93,2.16,58-14.72,88-12.22,34.09-6,67.79-13.94,102.15-18.29,40-6.15,80.09-11.43,120.55-13.2,18.31-2.6,36.74-2.87,55.15-3.78,4.51-.24,6.89,1.18,6.71,6-.15,3.63-.08,7.27,0,10.89C904,747,903.39,749.41,900.14,749.15Zm57-15.4c-.49,5.12-.09,10.31-.09,15.46.22,22.67.2,22.89-22.27,22.76-7.67,0-17.9,4.06-22.34-1.55-3.76-4.75-1.13-14.52-1.3-22.09,0-2.12,0-4.24,0-6.35,0-15.81,0-15.84,15.46-16.08,7.58-.13,15.22.33,22.74-.33C956,725,957.73,727.6,957.13,733.75Zm49.8,37.14c-4.37,3.6-13.85,1.06-21.06,1.15-6.09.1-12.19-.14-18.25.19-4.81.25-6.49-1.72-6.4-6.34.22-11.86.3-23.71.17-35.57,0-3.76,1.51-4.68,4.91-4.58q19.13.54,38.29.76c3.89.06,4.22,2,4.08,5.26-.28,6.07-.08,12.15-.08,17.6C1007.35,757.17,1011.64,767,1006.93,770.89Zm-39-52.15c-3-.2-6-.26-9.06-.39-21.1-.54-42.09,1.58-63.37-1.53-17.46-2.54-35.66-.13-53.54.11-26.47,2.89-52.94,5.7-79.38,8.71-12.31,1.41-24.57,3.24-36.84,4.86q-55.08,10.31-110.12,20.63c-26.6,9-47.31-2.94-65.73-19.79-18.25-16.68-27.25-38.16-27.35-63.06,0-12.71.21-25.41.33-38.1-.14-18.56-.34-37.11-.4-55.65-.11-33.23-21.5-55.51-54.89-56.5-16.72-.47-33.47-.07-50.2-.31-12.92-.16-20.65-7.29-20.81-20.22-.38-26.77-.26-53.55-.09-80.31.05-9.74,5.44-15.53,14.74-18.25,35.82-10.5,71.79-20.42,108.11-29,98.55-23.39,198.26-39.32,299.41-46.24,38.27-2.63,76.58-3.2,114.85-4.79l54.8,0c42.27,1.13,84.56,2.17,126.71,5.63q72.23,5.91,143.86,17.26a1881.86,1881.86,0,0,1,200,43.22q24.55,6.75,49,14c11.1,3.29,15.1,8.42,15.16,19.63.13,25.85.18,51.72,0,77.57-.11,14.32-7.14,21-21.34,21.59-19.43.75-38.94-1.4-58.33,1.23-27.23,3.69-45.74,24.82-46.19,52.43-.21,11.25-.3,22.48-.44,33.74,0,26.59,2.41,53.3-1.54,79.77a71,71,0,0,1-17.32,37.27c-12.71,18.3-31,27.84-52.21,32-10.35,2-20.31-2.76-30.39-4.69q-45.16-8.65-90.36-17.25c-54-8.29-108.09-15.45-162.76-16C1017.43,716,992.74,720.27,967.89,718.74Zm414.41,60.89c-23.59,17.93-49.49,26.79-79.3,19.82-41.36-9.69-82.41-20.65-124.08-28.85-27.31-5.37-55-4.71-82.7-4.66-14.9,0-29.79-.18-44.7.19-5.7.14-9.7-1.54-13.22-6.07-4.7-6.06-10-11.58-18.86-10.8-2.68.24-3.83-1.35-3.85-3.89a65.67,65.67,0,0,0,0-7.29c-.93-8.09,1.86-12.14,10.59-10.52a10.87,10.87,0,0,0,3.46,0,1730,1730,0,0,1,184,18.89c30.55,4.75,60.41,13.7,91.32,15.84a230.64,230.64,0,0,1,47.19,8.65,103.38,103.38,0,0,0,28.7,4.06c1.41,0,3.85,0,4,.47C1385.53,777.49,1383.61,778.62,1382.3,779.63ZM1555.4,637c-8,6.48-16.49,12.42-24.77,18.59q-62.25,47.68-124.51,95.33c-26.22,20-33.25,20.88-66,9.31.33-3.65,3.71-3.34,5.9-4.34,37.87-17.49,58-46.61,58.37-88.71q.24-27.35.4-54.72c-.09-13.68-.64-27.36-.15-41,1-27.19,20.08-45.25,48.63-46.13,15.8-.48,31.64,0,47.44-.24,19.31-.27,29.83-10.74,29.94-30,.13-25.85-.18-51.72,0-77.57,0-4.84-2.1-9.31-2.41-14.34,22.57,6.29,43.09,31.81,43.86,56.71,1.48,48.63,1.2,97.29.12,145.94C1571.86,618.54,1565.25,629,1555.4,637Zm195.8-52.49c-.09,28.25-12.32,40.34-40.79,40.43-34.37.11-68.73.29-103.09-.14-13.32-.17-25.36,2-35.33,11.43-1.39,1.32-3,3.09-5.44,2.17-1-2.75,1.37-3.78,2.59-5.22,6.72-8,10.43-17.13,10.47-27.47.14-48.36.66-96.7-.11-145-.35-21.69-10.65-39.53-27.64-53.25-2.32-1.88-4.68-3.69-7.84-6.16,4.33-1.46,7.13.49,9.94,1.44,19.24,6.49,38.29,13.56,57.73,19.42,6.72,2,8.89,5,8.11,11.44a57.69,57.69,0,0,0,0,9.11c.53,16.12,10.3,26,26.42,26.07,29.19.18,58.38,0,87.59.07,15.51,0,17.46,2,17.46,17.19C1751.23,518.85,1751.31,551.7,1751.2,584.52Z"/><path class="cls-1" d="M1523.05,496.2c-.11,14.32-7.14,21-21.34,21.59-19.43.75-38.94-1.4-58.33,1.23-27.23,3.69-45.74,24.82-46.19,52.43-.21,11.25-.3,22.48-.44,33.74,0,26.59,2.41,53.3-1.54,79.77a71,71,0,0,1-17.32,37.27c-12.71,18.3-31,27.84-52.21,32-10.35,2-20.31-2.76-30.39-4.69q-45.16-8.65-90.36-17.25c-54-8.29-108.09-15.45-162.76-16-24.74-.28-49.43,4-74.28,2.5-3-.2-6-.26-9.06-.39-21.1-.54-42.09,1.58-63.37-1.53-17.46-2.54-35.66-.13-53.54.11-26.47,2.89-52.94,5.7-79.38,8.71-12.31,1.41-24.57,3.24-36.84,4.86q-55.08,10.31-110.12,20.63c-26.6,9-47.31-2.94-65.73-19.79-18.25-16.68-27.25-38.16-27.35-63.06,0-12.71.21-25.41.33-38.1-.14-18.56-.34-37.11-.4-55.65-.11-33.23-21.5-55.51-54.89-56.5-16.72-.47-33.47-.07-50.2-.31-12.92-.16-20.65-7.29-20.81-20.22-.38-26.77-.26-53.55-.09-80.31.05-9.74,5.44-15.53,14.74-18.25,35.82-10.5,71.79-20.42,108.11-29,98.55-23.39,198.26-39.32,299.41-46.24,38.27-2.63,76.58-3.2,114.85-4.79l54.8,0c42.27,1.13,84.56,2.17,126.71,5.63q72.23,5.91,143.86,17.26a1881.86,1881.86,0,0,1,200,43.22q24.55,6.75,49,14c11.1,3.29,15.1,8.42,15.16,19.63C1523.2,444.48,1523.25,470.35,1523.05,496.2Z"/><path class="cls-2" d="M1490.6,583.21c.12,14.57-11.58,26.18-26.64,26.43s-26.44-11-26.64-26.2a26.59,26.59,0,0,1,26.06-27.09C1478.58,556.13,1490.47,567.85,1490.6,583.21Zm-7.52.53a19.52,19.52,0,0,0-19.19-20.16c-10.15-.07-19,8.77-19.29,19.24s9.29,20,19.73,19.89C1473.61,602.63,1482.88,593.26,1483.08,583.74Z"/><path class="cls-2" d="M469.33,606.64c-9.6,4.84-19.33,2.74-29.06.53-12.81-15.38-14.69-27.82-6-39.81a26.38,26.38,0,0,1,39.12-4.23c11.7,10.29,12.12,27.45,1,38.43C472.64,603.23,471,604.94,469.33,606.64Zm-32.81-24.16c-.41,10.83,7.88,19.38,19.29,19.88,9.08.39,18.76-8.84,19.17-18.29.45-10.2-8.27-20.11-18-20.47A19.62,19.62,0,0,0,436.52,582.48Z"/><path d="M837.64,457v111H817.81V497.31L798.3,512.22l-16.18,12.53-16.18-12.53-19.51-14.91v70.75H726.61V457l19.82,15.22,35.69,27.44,35.69-27.44Z"/><path d="M891.56,494v75.5H871.73V491.92a15.8,15.8,0,0,0-13.48-13.48h-4.44V458.77h4.28v.16a35.42,35.42,0,0,1,29.5,19.82,41.57,41.57,0,0,1,2.7,7.46,33.47,33.47,0,0,1,1,8.09Z"/><path d="M945.17,494v75.5H925.34V491.92a15.8,15.8,0,0,0-13.48-13.48h-4.44V458.77h4.28v.16a35.42,35.42,0,0,1,29.5,19.82,41.57,41.57,0,0,1,2.7,7.46,33.47,33.47,0,0,1,1,8.09Z"/><path d="M1030.82,457a35.8,35.8,0,0,1,35.85,35.84v39.18a35.81,35.81,0,0,1-35.85,35.85H996.56a35.81,35.81,0,0,1-35.85-35.85V492.87A35.8,35.8,0,0,1,996.56,457Zm-34.26,19.82A16.25,16.25,0,0,0,980.38,493v39.18a16.25,16.25,0,0,0,16.18,16.18h34.26A16.25,16.25,0,0,0,1047,532.21V493a16.25,16.25,0,0,0-16.18-16.18Z"/><path d="M1184.19,512.06a32.76,32.76,0,0,1-23.47,55.52H1115.2a32.59,32.59,0,0,1-30.14-20,34.22,34.22,0,0,1-2.54-12.84V489.22a32.11,32.11,0,0,1,8.25-21.41,33.65,33.65,0,0,1,9.52-7.45,31.39,31.39,0,0,1,14.91-3.65h69v19.83h-69a13.06,13.06,0,0,0-13,13v15.55a32.48,32.48,0,0,1,12.37-2.54h46.79a32.77,32.77,0,0,1,23,10Zm-23.63,35.69a13.07,13.07,0,0,0,13-13,12.93,12.93,0,0,0-12.22-13h-46.79a13,13,0,0,0,.64,26h45.36Z"/></g></g></svg>