<svg xmlns="http://www.w3.org/2000/svg" viewBox="0 0 1920 1080"><defs><style>.cls-1{fill:#010101;}.cls-2{fill:#f2f2f2;}</style></defs><g id="Capa_2" data-name="Capa 2"><g id="Capa_1-2" data-name="Capa 1"><path class="cls-1" d="M1566.67,487.57c10.78.33,21.6.12,32.38,0,18.49-.15,25.25-6.84,25.57-25.07.05-2.56.24-5.09.38-7.65V380.13s-1-5.95-5.47-9.17a108.62,108.62,0,0,0-18-11c-29.91-14.65-60.27-28.36-91.26-40.62C1357.62,259,1199,225.82,1035.57,214.5c-9-.61-16.56,1.65-21.63,9.22-3,4.46-6.6,5.56-11.59,5.2-10.25-.76-20.55-1.61-30.77-1.36-4.73.12-18.92-.25-18.92-.25-12,.12-24,.8-35.91,1.64-4.82.35-8.19-1-10.76-5.09-4.34-7-10.9-9.75-18.94-9.39-29.31.48-71.34,5.93-95,9-58.52,7.61-116.82,16.42-174.19,30.59a1780.38,1780.38,0,0,0-177.4,53.57A1196.84,1196.84,0,0,0,314.17,362C293.91,371.89,295,379.57,295,379.57V454.9c.14,4.27.1,8.54.48,12.79,1.13,12.73,8.28,19.57,21.1,19.83,12,.24,24,.41,35.89-.07,6.16-.26,9,1.56,9,7.83-.08,13.36,1,26.73-.6,40.06.14,2.81.34,5.64.41,8.45.11,5.21-2.05,7.44-7.69,7.42-12.5-.08-25.05-1.15-37.49.71-12.84,1.9-20.16,10-20.69,23-.34,8.52-.29,17-.41,25.57.1,20.54.57,41.09.14,61.61C295,670.48,298,673.29,306,672.65c6.48-.49,13-.1,19.56-.08.13.53.54,1.28.34,1.54-8.42,10.2-8.37,10.15.65,21.25,8.06,9.95,16,20,23.93,30,7.68,9,15.63,17.86,22.91,27.2,4.89,6.28,9.55,6.5,14.57,1,3.84-4.2,6.74-4.6,10.87-.16,4.7,5.06,11.62,5.35,18,6.5,21.58-1.13,43.16-.5,64.75-.21,6.69.09,11.26,3.4,13.94,9.4,6.7,15,13.33,30,20,45.06,3.86,8.54,7.77,17.05,11.61,25.61a56.4,56.4,0,0,0,14.29,19.49c8.49,5.55,27.7,5.12,27.7,5.12,4,0,9.53.76,10-4.1.74-7.67,5.4-6.46,10.15-6.44q45,0,89.92,0c11.67,0,11.71-.19,11.81-12.12,0-6.37-1.11-13,3-18.75,2.61-5,7-6.82,12.33-6.84,11.21-5.72,23.58-7.63,35.58-10.66,26.17-6.6,52.33-13.46,79.28-16.46,22.93-4.74,46.24-6.61,69.52-8.45,17.33-1.37,34.71-2.82,52.14-1.83,28.56-.57,57.13-1,85.62,1.95,47.85,2.85,94.89,10.79,141.25,22.78,15.7,4,31.32,8.35,46.93,12.69,7.84,2.17,12.45,6.73,10.3,15.63.11,2.26.24,4.54.26,6.8.07,15.21.1,15.31,15.21,15.31q44.86,0,89.73-.17c4.56,0,8.64-.48,8.15,6.17-.18,2.57,2.28,3.65,4.6,4.3a39.54,39.54,0,0,0,45.54-20.26c2.56-5,5-10.14,7.54-15.22,7.72-20.76,18-40.38,26.88-60.64,2.64-6,8-8.49,14.53-8.49q28.61,0,57.19-.22c9.73-.08,19.47-.48,26.91-8.21,2-2.14,3.58-1.56,5.77.09,10.89,8.17,10.94,8.09,19.61-2.16,1.08-1.27,2.4-2.35,3.6-3.53,13.7-16.77,27.32-33.58,41.09-50.28,9.3-11.28,9.37-11.21-.28-22,7-1.8,13.66-.82,20.16-.6,8.28.28,11.57-2.29,11.4-11.21-.53-28-.16-55.94-.22-83.92-.06-16.19-8.76-25.48-25.08-26.26-10-.46-20-.13-30-.17-11.12,0-11.16,0-11.23-11.53,0-1.43.23-2.83.35-4.25-.11-13.34-.14-26.67-.29-40C1558.29,489.56,1560.84,487.38,1566.67,487.57ZM934.75,245.9l52.53-.08c52.42,2.55,104.73,6,156.75,13.25a1739.64,1739.64,0,0,1,219.54,45.35c4,1.1,7,2,7,7.58-.38,46.23-.38,92.47-.52,138.72a31.87,31.87,0,0,1-.53,4.21v27.19c-3.79-4.3-6.8-7.87-10-11.25-1.09-1.16-2.69-2.62-4.39-1.2a3.66,3.66,0,0,0-.49,4.74c2.05,3.37,4.35,6.63,6.63,9.85,11.64,16.46,10.65,34.47,6.62,52.86-2.06,4.51-4.24,9-6.12,13.58-1.53,3.68-2.11,7.25,4,5.59,3.53-1,5.19-.62,5.16,3.7q-.61,92.65-1,185.31a3.57,3.57,0,0,1-.21.84q.9,33.32,1.82,66.62c.08,2.9-1.92,3.86-3.79,5.11-16,10.76-33.12,13.56-51.23,6.53a1132,1132,0,0,0-215.12-60.2c-20-3.48-40-6-60.18-7.87-3.1-.29-6.31.19-9.2-1.44-16.53-.66-33.05-1.52-49.57-1.92H936.12c-37.69.67-75.11,4.56-112.36,10.27a39.58,39.58,0,0,1-4.25.26c-24.89,5.43-49.83,10.71-74.68,16.3-26.84,6-53,14.48-79.36,22.28q-32,11.49-64,23c-17.76,6.38-34,2.64-49.41-7.27-2-1.25-3.84-2.59-3.47-5.33,3.19-23.19.43-46.55,2-69.78q-1.15-29.13,0-58.24,0-41.08,0-82.21c-.35-13.92-.62-27.82-1.1-41.73-.14-3.71.56-5.35,4.73-4.1,5.86,1.76,4.68-1.78,3.36-5-2.11-5.24-4.32-10.45-6.5-15.66a114,114,0,0,1-.07-34.83c1.61-11.37,12-19.47,14.28-32.47-7.49,3-9.1,10-14.77,13.84V454.93q-.24-64.64-.47-129.27c0-19.28-.06-19.52,18.17-24.44a1711.92,1711.92,0,0,1,192-40C818.06,252.52,876.32,248.2,934.75,245.9ZM385,747.42c-3.5,3-5,1.42-7.37-1.44-15.65-19.16-31.49-38.21-47.31-57.25-1.64-2-4-3.58-2.41-6.51a6.3,6.3,0,0,1,4.8-3.21c2.67.16,3.72,2.37,5.12,4.08,15.51,18.91,31,37.85,46.54,56.7C386.46,742.36,388.67,744.2,385,747.42Zm1204.64-58.36q-23.67,28.59-47.37,57.16c-1.89,2.3-3.35,4.77-6.72,1.72-2.68-2.4-4-4-1-7.55,16.22-19.45,32.16-39.13,48.17-58.74,1.47-1.81,3-3.72,5.63-2.62a6.16,6.16,0,0,1,4.15,4.75C1592.57,686.28,1590.86,687.57,1589.62,689.06ZM1545,500.56c0,12.17-.29,24.34-.44,36.51a3.21,3.21,0,0,1,.27.81c2.93,25.4,4.56,26.81,30.86,26.75,8,0,16-.1,24,.11,7.49.19,11.45,3.9,11.41,11.76q-.09,38.93.09,77.88c0,3.86-1.25,5.14-4.92,4.56-19-3-31.61,5.93-42.46,20.83-13.57,18.66-29.07,35.91-43.17,54.18-6.48,8.38-13.7,12.37-24.62,12-19.09-.69-38.24,0-57.35.21-11.62.13-20.54,5.09-26.26,15.39-11.6,26-23.09,52-34.86,77.82-2.88,6.3-8.3,9.83-15.14,11.48-5.18,1.25-8.93,1.13-9.67-5.36-.63-5.76-5.16-5.13-9.12-5.13-30.83,0-61.65-.17-92.47.14-6.82.07-10.2-.43-9.41-9,1.2-13-6.08-23.16-18.79-27.33-30.88-10.13-62.57-17.29-94.39-23.75-73.41-14.92-147.58-17.8-222.26-14.35-66.75,3.07-131.55,16.47-195.75,33.85-4.11,1.12-8.19,2.42-12.2,3.86-14,5-21.12,14.33-20.45,29,.33,7.13-2.3,7.7-8.11,7.65-31.11-.23-62.22,0-93.33-.12-5.31,0-9.66.22-9.72,7.16,0,3.79-2.36,4.32-5.87,3.93-10.2-1.15-16.34-6.89-20.37-16-10-22.62-20.86-44.91-30.44-67.72-6.63-15.84-17.74-22.66-34.57-22.18-17.67.48-35.4,0-53.07.36-9,.22-15.56-2.61-21.27-9.94-15.56-20-32.35-39.15-47.58-59.45-9.65-12.87-21-19.85-37.11-17.53-5.92.84-7.84-.93-7.63-7.15.57-16.52.39-33.08.51-49.62-.06-8.54-.06-17.09-.25-25.64-.17-8.27,3.89-11.93,12-11.85,9.68.11,19.38,0,29.08-.05,18.58-.07,24-5.06,25.18-23.29.09-1.41.29-2.81.45-4.24-.16-13.33-.24-26.67-.52-40-.32-16.49-7-23.05-23.55-23.24-10.52-.12-21,0-31.54,0s-10.93-.36-10.79-11.05c-.14-15.12-.16-30.25-.5-45.36-.09-3.78,1.47-5.6,4.68-7.07,6.19-2.88,12.25-6.06,18.3-9.23,2.73-1.42,7-3.1,5.52-6.44-1.73-3.93-5.41-.76-8,.34-5.5,2.33-10.89,5-16.28,7.53-2.66,1.25-3.84,1.16-4.32-2.39-2-15.11.46-20.46,14.05-27.25,77.46-38.67,158.64-67.4,241.79-91a1380.17,1380.17,0,0,1,195.5-40.57c39.55-5.26,79.23-9.48,119-12.92,10.15-.9,17,1.68,21.46,10.78-.79,2.59-3.19,1.56-4.94,1.64-90.24,4.24-179.07,18.29-267.06,38.17-80.75,18.24-159,43.82-234.49,78.06-10,4.54-19.33,9.77-26.39,18.36-3.64,4.42-9.19,5.52-13.79,8.28-1.78,1.08-3.41,2.5-2.82,4.76s2.76,1.44,4.3,1.36c2.74-.14,4.64.26,3.6,3.68-6,19.34.72,36.36,9.43,53.12,2.21,4.27,3.68,8.9,5.5,13.37a5.69,5.69,0,0,1,2.07,5.09c.6,1.19,1.2,2.35,1.82,3.53,10.57,21.28,20.77,42.74,29.41,64.88,10.61,21,20.79,42.06,28.87,64.14a11.94,11.94,0,0,0,1.92,2.66c1,2,2.17,3.91,3.13,5.93,1.92,4.11,5.95,8.83,5.09,12.31-1.27,5.19-7.71,1.45-11.77,2.63a23,23,0,0,0-15.7,18.53c-1.15,8.32,3.53,17.93,10.62,21.84,7.89,4.34,18.41,3,25.53-3.12,7.32-6.32,7.25-6.29,11.31,2.57q31.24,68.31,62.56,136.56c15.43,33.39,44.79,45.54,79.5,32.52,56.55-21.24,113.92-39.67,173.1-52.08a881.1,881.1,0,0,1,118.38-16.5,853.08,853.08,0,0,1,118-.35C1079.3,765.35,1139.6,776.59,1199,793A1136.18,1136.18,0,0,1,1308,829c12.72,4.92,25.49,7.59,39.22,5,20.14-3.77,33.85-15.41,42.54-33.49,6.89-14.33,13.61-28.77,20.4-43.15q21.21-47,42.44-94.11c1.71-3.81,3.39-7.65,5.07-11.4,3.6.15,4,3.3,5.64,5.09a22.38,22.38,0,0,0,26.6,4.68,21.76,21.76,0,0,0,10.92-23.91c-2.26-9.86-10.92-17.52-20.84-16.73-8.26.66-7.46-1.8-4.7-7.63,12-25.44,23.73-51,35.54-76.6q17.91-39.31,35.84-78.64,5.52-12.5,11-25c5.29-12.07,7.49-24.43,3.89-37.45-.76-2.71-2.52-6.62,3.43-5.75,1.59.24,3.66.52,4.25-1.69.65-2.42-1.31-3.47-2.87-4.73-28.71-23.09-62.34-36.68-96.15-50-87-34.21-177.27-56.27-269.18-72.43a1514.1,1514.1,0,0,0-178.37-20.23,29.88,29.88,0,0,1-3.29-.53c5.4-11.21,7.43-12.67,18.45-11.81,56.85,4.39,113.43,11,169.71,20.33,109.44,18.24,215.09,49.57,317.7,91.44,22.38,9.14,43.81,20.64,66.26,29.62,15.67,6.26,23.33,15.46,18.65,33.1-5.23-.41-9.6-4.2-14.64-6.24-2.36-1-4.63-2.29-7.08-3-2.26-.62-5.34-2.37-6.8.68s1.28,4.79,3.56,5.93c5.83,2.95,11.59,6.21,17.74,8.28,6.93,2.33,8.68,6.41,8.3,13.37-.67,12.53-.31,25.11-.39,37.68-.11,14.28-.42,14.55-15.31,13.71l-5.19,0h-6.74c-4,.13-7.92.36-11.88.39C1550.3,474.11,1545,479.39,1545,500.56Zm-1002.33,18c-.17,6.19-.29,12.38-.44,18.57a575,575,0,0,1,.32,61.58c1.2,28.59.93,57.2.21,85.81a441.9,441.9,0,0,1-.12,44.43q.23,28.52.44,57a121.64,121.64,0,0,1-1,19.76c-16.42-30.35-30.41-61.81-43.86-93.53-4.75-9-9.57-18-12.77-27.75q-19-41.12-38.09-82.24L418,537.31c-12.58-26-24.77-52.29-35.91-79a189.06,189.06,0,0,1-16.3-35.6c-7.47-21.65,2.73-45.75,24.25-56a971.74,971.74,0,0,1,103.45-42c14.52-5,29.15-9.64,43.74-14.38,2.8-.93,6.21-3.33,6.17,2.72q-.48,71-.8,142C543.55,476.24,543.22,497.39,542.62,518.54ZM455,642.81a14.39,14.39,0,0,1-14.57,14.45,15.39,15.39,0,0,1-14.88-14.5,14.83,14.83,0,0,1,13.9-15.37C448.14,627,454.81,633.61,455,642.81Zm922.38,76.93q0-85.77.16-171.54c0-6.53.46-13.07.72-19.6-1.12-20.55-1.68-41.1-.4-61.67,0-1.73,0-3.44,0-5.17,0-1.14,0-2.27,0-3.4-.21-45-.5-90.05-.6-135.1,0-14.71.22-14.74,14.33-10.25a1278.72,1278.72,0,0,1,133.51,51.32c27.88,12.46,37.93,38.17,25.83,66.14-4,9.38-7.63,19-13.1,27.72-12,27.75-24.19,55.43-37.68,82.53-12.44,27.68-24.78,55.42-37.38,83q-27.9,61.21-56.08,122.3-11.13,24.23-22.27,48.44c-2.09,3.56-4.57,6.89-5.38,13.2-3.58-6.48-1.47-11-1.44-15.39-.82-13.12-1.18-26.21.14-39.33C1377.61,741.9,1377.35,730.83,1377.35,719.74Zm102.5-92.51c7.61.09,14.57,7.17,14.66,14.9.1,8-7.17,15.3-15.15,15.23-7.7-.06-15.38-7.25-15.33-14.34C1464.12,634.52,1471.51,627.15,1479.85,627.23Z"/><path class="cls-2" d="M1550.94,430.47c-4,9.38-7.63,19-13.1,27.72-12,27.75-24.19,55.43-37.68,82.53-12.44,27.68-24.78,55.42-37.38,83q-27.9,61.21-56.08,122.3-11.13,24.23-22.27,48.44c-2.09,3.56-4.57,6.89-5.38,13.2-3.58-6.48-1.47-11-1.44-15.39-.82-13.12-1.18-26.21.14-39.33-.14-11.07-.4-22.14-.4-33.23q0-85.77.16-171.54c0-6.53.46-13.07.72-19.6-1.12-20.55-1.68-41.1-.4-61.67,0-1.73,0-3.44,0-5.17,0-1.14,0-2.27,0-3.4-.21-45-.5-90.05-.6-135.1,0-14.71.22-14.74,14.33-10.25a1278.72,1278.72,0,0,1,133.51,51.32C1553,376.79,1563,402.5,1550.94,430.47Z"/><path class="cls-2" d="M1369.64,746.14a3.57,3.57,0,0,0,.21-.84q.48-92.64,1-185.31c0-4.32-1.63-4.66-5.16-3.7-6.07,1.66-5.49-1.91-4-5.59,1.88-4.6,4.06-9.07,6.12-13.58,4-18.39,5-36.4-6.62-52.86-2.28-3.22-4.58-6.48-6.63-9.85a3.66,3.66,0,0,1,.49-4.74c1.7-1.42,3.3,0,4.39,1.2,3.21,3.38,6.22,6.95,10,11.25V454.93a31.87,31.87,0,0,0,.53-4.21c.14-46.25.14-92.49.52-138.72,0-5.61-3-6.48-7-7.58A1739.64,1739.64,0,0,0,1144,259.07c-52-7.29-104.33-10.7-156.75-13.25l-52.53.08c-58.43,2.3-116.69,6.62-174.58,15.36a1711.92,1711.92,0,0,0-192,40c-18.23,4.92-18.22,5.16-18.17,24.44q.21,64.63.47,129.27v27.33c5.67-3.83,7.28-10.84,14.77-13.84-2.31,13-12.67,21.1-14.28,32.47a114,114,0,0,0,.07,34.83c2.18,5.21,4.39,10.42,6.5,15.66,1.32,3.23,2.5,6.77-3.36,5-4.17-1.25-4.87.39-4.73,4.1.48,13.91.75,27.81,1.1,41.73q0,41.12,0,82.21-1.15,29.13,0,58.24c-1.58,23.23,1.18,46.59-2,69.78-.37,2.74,1.5,4.08,3.47,5.33,15.37,9.91,31.65,13.65,49.41,7.27q32-11.46,64-23c26.35-7.8,52.52-16.25,79.36-22.28,24.85-5.59,49.79-10.87,74.68-16.3a39.58,39.58,0,0,0,4.25-.26c37.25-5.71,74.67-9.6,112.36-10.27h46.25c16.52.4,33,1.26,49.57,1.92,2.89,1.63,6.1,1.15,9.2,1.44,20.16,1.87,40.23,4.39,60.18,7.87a1132,1132,0,0,1,215.12,60.2c18.11,7,35.24,4.23,51.23-6.53,1.87-1.25,3.87-2.21,3.79-5.11Q1370.49,779.46,1369.64,746.14ZM623.44,577.75c3.48-.91,6.77-2.57,10.15-3.91,6-1.46,10.39-5.64,15.39-8.83,1.48-1,3.55-2.79,5.31-.74s-.13,3.67-1.61,4.92c-9.72,8.13-20.22,14.57-33.34,15.29C618.38,580.83,619.58,578.76,623.44,577.75Zm-25.23,7.11c-9.65-1.7-19.37-4.51-27.7-10.82-2.11-1.57-4.23-3.8-2.26-6.39s4,.15,5.72,1.22a61.47,61.47,0,0,0,25.29,9.3c2.4.33,4.71.71,4.52,3.81C603.58,585.32,600.9,584.81,598.21,584.86Zm15.53-128.59c-10.9.24-21.27,3.1-31.64,6.05-1.8.52-4,1.68-5.47-.39-1.32-1.87.53-3,1.56-4.3A71.85,71.85,0,0,1,609,450.05C613,450,617,450.55,613.74,456.27Zm10,185.1c-.38,2.18-.43,5.9-4.05,5.35s-1.63-4.13-2.35-5.71c.34-12.63,8.2-20.84,20.19-21.47,2.3-.14,5.69-1.41,6.12,2.41.31,2.74-2.31,3.77-4.63,4C629.49,626.8,625.29,632.6,623.72,641.37Zm13.69,22.49c-3.29-.38-6.75-1.44-6.63-5.16.17-5.11,3.92-2.21,6.36-2,8.22.77,16.28-6.8,15.9-15.13-.13-3.17-2.65-8,2.2-8.33,5.48-.31,3.85,5.64,4.78,8.41C660.12,654.47,648.84,665.16,637.41,663.86Zm19.23-184.47a95.42,95.42,0,0,0-24.27-18.08c-2.31-1.22-3.87-3.34-3-6.34,6.45-1.1,10.84,4.23,16.6,5.31,4.81,5,11.5,8.2,14.81,14.76.89,1.78,2.14,3.81.34,5.35C659.85,481.52,657.88,480.66,656.64,479.39Zm19.85,40c-.53,10-1.46,19.92-6.36,28.92-1.45,2.67-3.48,6.57-6.84,4.95s-.49-5.07.53-7.45A69.68,69.68,0,0,0,667.53,500c-.6-2.38-2.85-6.09,1.3-7.11,3.67-.91,4.23,2.88,5.09,5.5A58,58,0,0,1,676.49,519.43Zm625,61.49c-.74,3.29-2.74,4.28-5.21,3.67-10.56-2.61-20.38-6.86-28.71-14-1.48-1.27-3.26-2.92-2-5.08s3.72-1.78,5.26-.65c8.79,6.38,18,11.78,28.79,14C1300.46,579,1301,580.33,1301.49,580.92Zm-45.63-27.68c-2.72,1.11-4.47-1.86-5.66-4-2.17-3.94-4-8.07-5.93-12.12-2.17-12.63-3.56-25.26,1-37.73,1.13-3.12,2.16-7.78,6.35-6.49,4.76,1.49,1.83,5.89.82,8.7-4.25,12-4.36,23.74.46,35.5-.17,3.62,2.4,6.28,3.26,9.52C1256.68,548.85,1259.39,551.78,1255.86,553.24ZM1258,480c-2.64-2.47.1-4.83,1.78-6.45,4.49-4.31,9.33-8.31,14-12.42,5.6-1.49,9.77-8.35,16.8-4.44a8.71,8.71,0,0,1-5.21,6.31c-8.25,3.49-15.19,8.84-21.76,14.82C1262.08,479.14,1260.3,482.15,1258,480ZM1284,663.52a10.51,10.51,0,0,1-2.67.29c-14.08.2-24.93-15.84-20.21-28.73.39-1.08.55-2.26,2-2.28a3.1,3.1,0,0,1,3.22,3.24c.29,4.29.91,8.45,2.85,12.31,2.93,5.81,7.14,9.48,14.17,8.4,2.25-.35,5.38-3,6.38.89S1287,662.58,1284,663.52Zm16.87-16.66c-3.09.46-3.91-2.13-4.12-4.32-1-9.86-6.17-15.34-16-16.73-2.21-.31-5.87-.82-4.87-4.37.89-3.26,4.33-1.56,6.13-2,12.86.82,21.6,10.43,20.92,22.62C1302.84,643.79,1303.8,646.43,1300.91,646.86Zm9.7-196.88c11.62.48,22.81,2.67,32.74,9.26-1.41,6.17-5.73,3.27-8.71,2.33a105.56,105.56,0,0,0-31.4-5.2C1302.43,450.48,1306.41,449.81,1310.61,450Zm39.9,123.31c-9,7-19.68,9.7-28.92,11.54-3.84.44-6,0-6.17-2.4-.15-2.15,1.46-3.69,3.71-4A65.78,65.78,0,0,0,1346.72,568c1.6-1,3.57-2.59,5.32-.46C1354,569.9,1352.38,571.82,1350.51,573.29Z"/><path class="cls-2" d="M542.71,684.5a441.9,441.9,0,0,1-.12,44.43q.23,28.52.44,57a121.64,121.64,0,0,1-1,19.76c-16.42-30.35-30.41-61.81-43.86-93.53-4.75-9-9.57-18-12.77-27.75q-19-41.12-38.09-82.24L418,537.31c-12.58-26-24.77-52.29-35.91-79a189.06,189.06,0,0,1-16.3-35.6c-7.47-21.65,2.73-45.75,24.25-56a971.74,971.74,0,0,1,103.45-42c14.52-5,29.15-9.64,43.74-14.38,2.8-.93,6.21-3.33,6.17,2.72q-.48,71-.8,142c.94,21.15.61,42.3,0,63.45-.17,6.19-.29,12.38-.44,18.57a575,575,0,0,1,.32,61.58C543.7,627.28,543.43,655.89,542.71,684.5Z"/><path class="cls-1" d="M1255.86,553.24c-2.72,1.11-4.47-1.86-5.66-4-2.17-3.94-4-8.07-5.93-12.12-2.17-12.63-3.56-25.26,1-37.73,1.13-3.12,2.16-7.78,6.35-6.49,4.76,1.49,1.83,5.89.82,8.7-4.25,12-4.36,23.74.46,35.5-.17,3.62,2.4,6.28,3.26,9.52C1256.68,548.85,1259.39,551.78,1255.86,553.24Z"/><path class="cls-1" d="M1284,663.52a10.51,10.51,0,0,1-2.67.29c-14.08.2-24.93-15.84-20.21-28.73.39-1.08.55-2.26,2-2.28a3.1,3.1,0,0,1,3.22,3.24c.29,4.29.91,8.45,2.85,12.31,2.93,5.81,7.14,9.48,14.17,8.4,2.25-.35,5.38-3,6.38.89S1287,662.58,1284,663.52Z"/><path class="cls-1" d="M1301.49,580.92c-.74,3.29-2.74,4.28-5.21,3.67-10.56-2.61-20.38-6.86-28.71-14-1.48-1.27-3.26-2.92-2-5.08s3.72-1.78,5.26-.65c8.79,6.38,18,11.78,28.79,14C1300.46,579,1301,580.33,1301.49,580.92Z"/><path class="cls-1" d="M1343.35,459.24c-1.41,6.17-5.73,3.27-8.71,2.33a105.56,105.56,0,0,0-31.4-5.2c-.81-5.89,3.17-6.56,7.37-6.39C1322.23,450.46,1333.42,452.65,1343.35,459.24Z"/><path class="cls-1" d="M1300.91,646.86c-3.09.46-3.91-2.13-4.12-4.32-1-9.86-6.17-15.34-16-16.73-2.21-.31-5.87-.82-4.87-4.37.89-3.26,4.33-1.56,6.13-2,12.86.82,21.6,10.43,20.92,22.62C1302.84,643.79,1303.8,646.43,1300.91,646.86Z"/><path class="cls-1" d="M1350.51,573.29c-9,7-19.68,9.7-28.92,11.54-3.84.44-6,0-6.17-2.4-.15-2.15,1.46-3.69,3.71-4A65.78,65.78,0,0,0,1346.72,568c1.6-1,3.57-2.59,5.32-.46C1354,569.9,1352.38,571.82,1350.51,573.29Z"/><path class="cls-1" d="M1290.54,456.65a8.71,8.71,0,0,1-5.21,6.31c-8.25,3.49-15.19,8.84-21.76,14.82-1.49,1.36-3.27,4.37-5.62,2.18-2.64-2.47.1-4.83,1.78-6.45,4.49-4.31,9.33-8.31,14-12.42C1279.34,459.6,1283.51,452.74,1290.54,456.65Z"/><path class="cls-1" d="M661.17,480.39c-1.32,1.13-3.29.27-4.53-1a95.42,95.42,0,0,0-24.27-18.08c-2.31-1.22-3.87-3.34-3-6.34,6.45-1.1,10.84,4.23,16.6,5.31,4.81,5,11.5,8.2,14.81,14.76C661.72,476.82,663,478.85,661.17,480.39Z"/><path class="cls-1" d="M613.74,456.27c-10.9.24-21.27,3.1-31.64,6.05-1.8.52-4,1.68-5.47-.39-1.32-1.87.53-3,1.56-4.3A71.85,71.85,0,0,1,609,450.05C613,450,617,450.55,613.74,456.27Z"/><path class="cls-1" d="M676.49,519.43c-.53,10-1.46,19.92-6.36,28.92-1.45,2.67-3.48,6.57-6.84,4.95s-.49-5.07.53-7.45A69.68,69.68,0,0,0,667.53,500c-.6-2.38-2.85-6.09,1.3-7.11,3.67-.91,4.23,2.88,5.09,5.5A58,58,0,0,1,676.49,519.43Z"/><path class="cls-1" d="M660,641.66c.1,12.81-11.18,23.5-22.61,22.2-3.29-.38-6.75-1.44-6.63-5.16.17-5.11,3.92-2.21,6.36-2,8.22.77,16.28-6.8,15.9-15.13-.13-3.17-2.65-8,2.2-8.33C660.72,632.94,659.09,638.89,660,641.66Z"/><path class="cls-1" d="M643.63,622c.31,2.74-2.31,3.77-4.63,4-9.51.87-13.71,6.67-15.28,15.44-.38,2.18-.43,5.9-4.05,5.35s-1.63-4.13-2.35-5.71c.34-12.63,8.2-20.84,20.19-21.47C639.81,619.4,643.2,618.13,643.63,622Z"/><path class="cls-1" d="M652.68,569.19c-9.72,8.13-20.22,14.57-33.34,15.29-1-3.65.24-5.72,4.1-6.73,3.48-.91,6.77-2.57,10.15-3.91,6-1.46,10.39-5.64,15.39-8.83,1.48-1,3.55-2.79,5.31-.74S654.16,567.94,652.68,569.19Z"/><path class="cls-1" d="M603.78,582c-.2,3.34-2.88,2.83-5.57,2.88-9.65-1.7-19.37-4.51-27.7-10.82-2.11-1.57-4.23-3.8-2.26-6.39s4,.15,5.72,1.22a61.47,61.47,0,0,0,25.29,9.3C601.66,578.5,604,578.88,603.78,582Z"/><rect class="cls-2" width="1" height="1"/><rect class="cls-2" x="1919" y="1079" width="1" height="1"/><rect class="cls-2" y="1079" width="1" height="1"/><rect class="cls-2" x="1919" width="1" height="1"/></g><g id="Capa_3" data-name="Capa 3"><path d="M837.56,459.86v111H817.73V500.15l-19.51,14.91L782,527.59l-16.18-12.53-19.51-14.91v70.74H726.53v-111l19.82,15.23L782,502.53l35.69-27.44Z"/><path d="M891.48,496.82v75.5H871.65V494.75a15.81,15.81,0,0,0-13.48-13.48h-4.44V461.6H858v.16a35.55,35.55,0,0,1,13.48,3.65,35.17,35.17,0,0,1,16,16.18,41.76,41.76,0,0,1,2.7,7.45,33,33,0,0,1,.95,8.09Z"/><path d="M945.09,496.82v75.5H925.26V494.75a15.81,15.81,0,0,0-13.48-13.48h-4.44V461.6h4.28v.16a35.55,35.55,0,0,1,13.48,3.65,35.17,35.17,0,0,1,16,16.18,41.76,41.76,0,0,1,2.7,7.45,33.53,33.53,0,0,1,.95,8.09Z"/><path d="M1030.74,459.86a35.81,35.81,0,0,1,35.85,35.85v39.17a35.81,35.81,0,0,1-35.85,35.85H996.48a35.81,35.81,0,0,1-35.85-35.85V495.71a35.81,35.81,0,0,1,35.85-35.85Zm-34.26,19.83a16.24,16.24,0,0,0-16.18,16.17V535a16.25,16.25,0,0,0,16.18,16.18h34.26A16.25,16.25,0,0,0,1046.92,535V495.86a16.24,16.24,0,0,0-16.18-16.17Z"/><path d="M1193.47,459.86v111h-19.82V525.21h-58.53a31.39,31.39,0,0,1-14.91-3.65,32.4,32.4,0,0,1-17.77-29V459.86h19.83v32.67a13.07,13.07,0,0,0,13,13h58.53V459.86Z"/></g></g></svg>