<svg xmlns="http://www.w3.org/2000/svg" viewBox="0 0 1920 1080"><defs><style>.cls-1{fill:#010101;}.cls-2{fill:#f2f2f2;}</style></defs><g id="Capa_2" data-name="Capa 2"><g id="Capa_1-2" data-name="Capa 1"><path class="cls-1" d="M1712.83,389.92c0-2.64-7-6.39-7-6.39-7.76-3.35-15.92-3.76-24.27-3.67-16.87.18-33.75-.13-50.63-.22-2.93.59-3.73-.75-3.13-3.39-.48-8.69-4.07-16.28-8.49-23.54-2.77-2.53-5.54-5.09-8.3-7.62q-17.91-8.22-35.84-16.42l-3.41-1.23c-38.33-14.64-76.38-30-115.63-42.16-22.74-7-45.46-14-68.43-20.25-42.94-11.62-86.34-21.15-130-29.5-38.3-7.34-76.63-14.44-115.5-18.15-20-1.9-39.91-4.34-59.83-6.84-17.58-2.21-35.12-4.12-51.88,3.71a15.66,15.66,0,0,1-6.6,1.75c-18.73.41-37.46.61-56.17,1.27l-14.76,0c-25.52-2.25-51.76,3.79-76.55-6.87-4.12-1.78-8.7-1.64-13.18-1.64-15.92,0-99.2,10-99.2,10-56.93,6.89-113,18.58-168.91,30.82C500.33,270.27,409.16,302,319.94,339.77c-15.67,6.64-25.18,17.44-27.36,34.23-.68,5.23-3.17,6.11-7.69,6.07-17.24-.18-34.48-.14-51.72-.05-3.82,0-8-.25-11.4,1.19-10.43,0-14.6,15.46-14.6,15.46V477a63,63,0,0,0,.23,8c1.41,12,7.94,17.86,20.15,17.95,12.78.11,25.59.54,38.33-.16,8.09-.43,8.73,3.66,6.52,9-4.09,9.85-5,20.06-5.18,30.48l.06,87.49q0,32.1,0,64.19c.72,14.51,7.78,24.72,21.26,30,5.34,2.07,3.93,4.77,2.3,8.25-7.4,16-7.39,16,8.09,23.54,17.56,8.55,35.3,16.77,52.65,25.75,7.15,3.71,11,2,13.63-4.94.73-1.93,1.86-3.72,2.54-5.66,1.73-4.91,3.82-6,9.08-3.29,27.45,14,55.18,27.49,82.76,41.25,6.64,3.3,13.24,5.1,20.43,1.93,4.21-1.88,8.18-.52,12,1.35,25.75,12.8,51.54,25.54,77.23,38.48,6.53,3.3,12.83,7.12,17.83,14.87,8.63,6.62,37.35,5.32,37.35,5.32,41.83,3.19,82.08-5.43,122.29-15.58,24.27-6.11,49.13-9.71,74-12.94,25.34-4.86,51-6.87,76.65-8.87,17.7-1.38,35.5-1.57,53.2-2.91l18.69,0c24.88,1.06,49.76,1.93,74.51,4.89,31.63,2.47,63,7.12,94.14,12.8s62.11,12.22,92.63,20.74a54,54,0,0,0,14.94,1.76c22.56-.1,45.12-.42,67.66.15,8.73.23,15.49-2.23,21.52-8.19,9.62-9.55,21.26-15.87,34-20.37q30.51-15.46,61-31c3.12-1.6,6.28-2.26,9.35-.59,6.48,3.54,12.69,2.22,18.74-.76q87.75-43.32,175.51-86.7c13.44-6.63,19.72-16.8,19.4-32-.45-20.47.16-41,.32-61.48v-89.2c-.05-9.76-1.34-19.22-5.19-28.38-2.54-6-1.5-9.74,6.78-9.26,11.85.7,23.77.25,35.66.14,16.2-.14,22.68-6.69,22.7-22.91C1712.87,450,1712.8,419.94,1712.83,389.92ZM968,230.9c9.82-.05,19.63,0,29.43,0v-.34c8.92,0,17.85,0,26.75,0,6.38,0,12.35-1.17,17.83-4.65,5.25-3.34,11.19-3.86,17.21-3.22,35.14,3.7,70.41,6.46,105.39,11.39,92.32,13,183.43,31.89,272.45,59.95,54,17,107.23,36.43,159.09,59.34A30.68,30.68,0,0,1,1612,368.26c.91,1.83,2.41,3.94.93,5.67-1.8,2.07-3.84-.16-5.61-.89-25.25-10.26-50.32-21-75.76-30.86-103.26-39.83-209.4-69.28-318.8-86.45-79.67-12.51-160-18-240.57-19.95a34.76,34.76,0,0,1-4.46-.13c-2.09-.34-5.67,1-5.48-2.57C962.46,229.87,965.84,230.9,968,230.9Zm-646.34,124c36.11-16.71,73.37-30.47,110.74-44,78.28-28.25,158.84-47.69,240.48-63.43,59-11.37,118.5-17.92,178.1-24.26,11-1.17,22-1.71,31.78,5.07,3.14,2.18,6.82,1.91,10.35,2,19.31.35,38.64.59,58,1,2,0,5.5-1.75,5.66,1.94s-3.44,2.36-5.44,2.45c-26.13,1.14-52.28,1.89-78.39,3.26-92,4.84-183.13,16.82-272.9,38.13-97.71,23.18-192.38,55.34-284.43,95.34-2.61,1.12-5.09,3.1-9.25,2.32C307.91,364.78,313.3,358.78,321.69,354.91Zm35.07,420.33c-21.43-9.53-42.46-19.86-63.21-30.82l1.17-2q31.57,15.22,63.15,30.48C357.49,773.71,357.12,774.48,356.76,775.24Zm6.68-12.31c-.77,1.55-1.59,3.28-4.3,2.75-1-.52-2.24-1.27-3.56-1.91-17.33-8.32-34.58-16.76-52-24.84-4.93-2.29-6.94-4.22-3.78-9.8a287.11,287.11,0,0,0,13.74-27.81c1.87-4.35,3.44-4.32,7.17-2.43q27.32,13.88,54.85,27.2c3.19,1.56,4.74,2.82,2.78,6.61C373.18,742.69,368.42,752.86,363.44,762.93Zm23-95.41c-3.67-10.87-15.26-16.65-25.68-12.85-12.17,4.44-15.35,15.47-8.12,32.94-8.87-4.14-16.51-7.4-23.84-11.27-2.8-1.49-.81-4.09.23-6.22,7.64-15.74,15.12-31.55,22.88-47.22,4.78-9.62,12.39-11.92,22.2-7q17.13,8.49,34.14,17.21c10.43,5.35,12.67,12.2,7.61,22.45-7.37,14.88-14.87,29.71-21.94,44.72-2.25,4.77-4.1,6.39-9.19,3.2-5.59-3.52-11.85-6-18.77-9.37C382.94,689,390.3,678.92,386.42,667.52Zm-31.55,5.12c.34-7.28,4.82-11.37,11.62-12.28,6.57-.89,13.4,5.95,13.4,12.5a12.61,12.61,0,0,1-13.13,12.52A12.29,12.29,0,0,1,354.87,672.64Zm29.57,38.91c1.45.69,2.63,1.28,2.59,3.41-1.73,2.58-1.61,8.06-7.64,5q-27.84-13.95-55.73-27.79c-2.61-1.3-4.73-2.7-3-6.1,1.36-2.77,3.36-4.27,6.43-2.77C346.2,692.74,365.29,702.2,384.44,711.55ZM856.36,822.22c-55.54,7.41-110.65,17.15-164.93,31.3a89.89,89.89,0,0,1-21.15,2.57c-21.07.36-42.17.22-63.26.25-3.27,0-6.89.41-9.3-2.14-13.85-14.71-32.59-21.33-49.92-30.23-16.58-8.55-33.41-16.64-50.08-25-6.87-3.48-13.69-5.5-21.26-2-3.07,1.41-6.31,1-9.42-.68-5.18-2.85-10.46-5.55-15.69-8.32-23.41-11.31-46.81-22.66-70.28-33.87-3.11-1.48-3.8-3.18-2.25-6.23,9.16-18.22,18.22-36.48,27.34-54.72,4.88-10.33,9.11-21,14.8-30.87,5.48-9.46,7.19-18.3,1.18-27.86a21.39,21.39,0,0,0-7.93-6.8c-12.49-6.12-24.75-12.71-37.21-18.94s-25.57-1.61-31.77,10.8c-1.43,2.87-3.09,5.66-4.64,8.48-12.9,26.87-25.86,53.72-38.62,80.67-1.86,4-3.6,4.39-7.42,2.53-8.2-4-13-9.5-12.84-19.22.4-21.31.27-42.64.36-64-.12-32.23-.32-64.44-.27-96.68A30.48,30.48,0,0,1,284.11,521,42.88,42.88,0,0,0,285.52,494c-3.84-4.53-9-5.26-14.53-5.24-13.37.09-26.76-.25-40.1.17-7,.22-10-1.58-9.89-9.35q.69-38.33.05-76.67c-.11-6.92,2.54-8.73,8.69-8.69,22,.14,44-.11,66,.21,5.17.07,8.87-1.1,10.33-6.15s5.89-6.34,9.89-8.12a1651,1651,0,0,1,244.33-85.94,1553.44,1553.44,0,0,1,187.09-37.21c15.85-2.2,31.79-4.07,47.74-5.1,6.14-.42,12.35.67,18.31-1.74,45.24-4.6,90.67-5.94,136.07-7.74.89,0,1.78,0,2.68,0,2.3,0,5.17-.59,5,3.18-.18,3.12-2.73,2.5-4.72,2.57-6.53.21-13.06.5-19.59.55-40.44.32-80.71,3.91-121.06,6.18q-27.76,3.45-55.54,6.92c-66.82,8.39-132.62,21.88-197.78,38.82C480,321.05,404.11,348.82,329.37,379.82c-24,9.94-36.77,28.15-37,54.49-.16,19.92-.18,39.82-.27,59.72.11,13,.25,26.07.29,39.1.1,29.73,19.7,49.72,49.42,50,24.3.21,48.61-.18,72.92.21,23.63.4,45,18.28,49.67,40.77,3.51,14.58,1.89,29.41,2.05,44.13.09,8.59-.43,17.15-.68,25.74,1.34,12.65.79,25.36.68,38-.21,28.68.71,30.13,27.68,40.62,42.25,11.46,84.62,22.51,126.7,34.55a199.28,199.28,0,0,0,56.83,8.16c59.57-.41,119.16.11,178.74.25H928c0,.57.11,1.12.14,1.68Zm104.71-14.58-15.71.43q-62.34-.14-124.71-.33c-54.88.08-109.78.24-164.66.18-7.76,0-15.06-2.92-22.47-5q-26.06-7.32-52.08-14.67Q533.78,775,486.12,761.68c-7.71-2.16-11.69-7.12-12-15.42a500.55,500.55,0,0,1,.18-50.51q-.46-32.93-.88-65.82c-5-33-28.55-53.59-62.11-53.91-23.09-.2-46.2.25-69.3-.25-22.72-.5-37.3-13.07-41.72-34.77-1.72-38-1.83-76.08,0-114,.87-18.89,12.83-32.24,30.38-39.59,53.82-22.58,108.19-43.69,164-60.89A1577.39,1577.39,0,0,1,947.4,255.23c8.9-.11,8.9-.09,12.31,8.91,1.47-8.68,6.8-9.11,13.39-9,59.13,1.16,118,4.6,176.81,11.76,150.72,18.35,295.3,58.82,435,117.77,25.06,10.59,37.86,27.81,37.32,55.38-.57,29.72,0,59.45-.16,89.19,0,4.37.79,8.92-1.46,13.08-3.84,21.13-18,32.89-41.52,33.39-22.82.48-45.65.13-68.47.29-33,.26-56,19.52-62.26,51.93,0,36.8.18,73.62-.17,110.42-.18,17.81-2.57,20.51-19.8,25.4-35.85,10.17-71.76,20.1-107.65,30.13q-18.8,5.24-37.59,10.53a96.42,96.42,0,0,1-27.18,3.69c-30.86-.32-61.73-.29-92.59-.39l-119.67-.09Zm737.79-403.17c-.63,24.93-.43,49.88-.15,74.81.09,7.11-1.82,10.05-9.47,9.71-13-.59-26.13-.27-39.19-.1-14.41.17-17.73,2-15.6,15.75,5,32.74,3.67,65.52,3.92,98.34,0,2.95-.23,5.91-.37,8.87a31.4,31.4,0,0,1,0,12.48c0,23.77.11,47.54.09,71.32,0,9.12-6.94,12.52-13.63,15.86q-54.24,26.94-108.55,53.69-30.7,15.18-61.43,30.32c-3.23,1.59-6.55,3.46-10.14,1.62-7.8-4-14.95-1.76-22.07,1.79-26,13-52.12,25.84-78,39-5.52,2.8-11.19,6.1-15.37,10.51-6.46,6.82-13.9,8-22.56,7.62-23.73-1-47.72,2.72-71.21-1.69-26.48-5-52.63-11.85-78.92-17.9-27.54-4.16-55-8.94-82.65-12.3-26.77-3.25-53.74-5.05-80.61-7.5a4.29,4.29,0,0,1-3.27-1.75c57.31.9,114.6-.23,171.89.56,29.37-.11,58.77-.56,88.14-.22a147.07,147.07,0,0,0,42.11-5.62c46.09-13,92.28-25.75,138.4-38.67,20.81-5.82,25.24-11.8,25.25-33.57,0-30.29-.1-60.56,0-90.85,0-6.21.59-12.42.89-18.63A51.48,51.48,0,0,1,1506,583.44c22.2-.48,44.42-.59,66.62-.16,18,.34,33.89-4,46.4-17.69,1.41-2,2.82-4.05,4.22-6.08l-.15.14c5.34-10.28,6.54-21.31,6.45-32.73-.23-29-.48-58.09-.07-87.15.25-16.67-3.73-31.57-14.37-44.53a76.24,76.24,0,0,0-25-16.47c-76.44-31.38-153.95-59.5-234.14-79.94-73.32-18.65-147.38-32.91-222.68-40.69-13.81-1.43-27.61-3.14-41.42-4.73-41.5-2.32-83-4.77-124.56-5-2.46,0-5.12.12-5-3.32.07-3,2.61-2.7,4.64-2.64,41.25,1.14,82.47,2.85,123.61,6.19.52,0,1,.61,1.48.93,22-.16,43.75,3.25,65.5,5.78a1380.57,1380.57,0,0,1,143.37,24.34c80.24,18,158.77,41.64,235.26,71.86,23.63,9.31,46.94,19.43,70.59,28.71,6.64,2.63,7.58,8.53,10.33,13.55,23.74.16,47.47.59,71.23.34C1696.06,394,1699.09,395.87,1698.86,404.47Z"/><path class="cls-2" d="M1622.22,440.07c.54-27.57-12.26-44.79-37.32-55.38-139.69-58.95-284.27-99.42-435-117.77-58.77-7.16-117.68-10.6-176.81-11.76-6.59-.13-11.92.3-13.39,9-3.41-9-3.41-9-12.31-8.91a1577.39,1577.39,0,0,0-452.79,71.25c-55.8,17.2-110.17,38.31-164,60.89-17.55,7.35-29.51,20.7-30.38,39.59-1.79,38-1.68,76,0,114,4.42,21.7,19,34.27,41.72,34.77,23.1.5,46.21.05,69.3.25,33.56.32,57.13,20.9,62.11,53.91q.43,32.91.88,65.82a500.55,500.55,0,0,0-.18,50.51c.32,8.3,4.3,13.26,12,15.42q47.65,13.34,95.32,26.58,26.05,7.34,52.08,14.67c7.41,2.07,14.71,5,22.47,5,54.88.06,109.78-.1,164.66-.18q62.37.16,124.71.33l15.71-.43h82.63l119.67.09c30.86.1,61.73.07,92.59.39a96.42,96.42,0,0,0,27.18-3.69q18.79-5.28,37.59-10.53c35.89-10,71.8-20,107.65-30.13,17.23-4.89,19.62-7.59,19.8-25.4.35-36.8.16-73.62.17-110.42,6.3-32.41,29.29-51.67,62.26-51.93,22.82-.16,45.65.19,68.47-.29,23.51-.5,37.68-12.26,41.52-33.39,2.25-4.16,1.44-8.71,1.46-13.08C1622.17,499.52,1621.65,469.79,1622.22,440.07Zm-1239,93.54c-2.25.7-4.59,1.14-6.89,1.7-2.38-.09-4.77-.18-7.14-.29-9.35-3.48-16.49-9.32-19.47-19.13a26.58,26.58,0,0,1,18.13-33.7c13.65-4,28.81,3.79,33,16.9C405.81,514.35,398.4,528.88,383.25,533.61Zm1174.65-1.52c-1.82.9-3.78,1.54-5.68,2.29l-3.44.82c-1.18,0-2.37.07-3.55.12l-3.59-.1c-16.36-5.86-24.24-16.71-22.34-30.79,1.69-12.62,12.06-22.38,24.45-23,14.26-.71,24.88,6.57,28.21,19.37S1569.68,526.33,1557.9,532.09Z"/><path class="cls-1" d="M400.9,499.09c-4.21-13.11-19.37-20.86-33-16.9a26.58,26.58,0,0,0-18.13,33.7c3,9.81,10.12,15.65,19.47,19.13,2.37.11,4.76.2,7.14.29,2.3-.56,4.64-1,6.89-1.7C398.4,528.88,405.81,514.35,400.9,499.09Zm-24.65,28.72c-10.51.13-20.63-9.17-20.86-19.17-.25-10.33,9.31-20.22,19.56-20.2A19.89,19.89,0,0,1,395,508.86C394.81,518.64,385.83,527.69,376.25,527.81Z"/><path class="cls-1" d="M1572,500.81c-3.33-12.8-14-20.08-28.21-19.37-12.39.61-22.76,10.37-24.45,23-1.9,14.08,6,24.93,22.34,30.79l3.59.1c1.18-.05,2.37-.09,3.55-.12l3.44-.82c1.9-.75,3.86-1.39,5.68-2.29C1569.68,526.33,1575.32,513.69,1572,500.81Zm-26,27c-9.92-.11-19.87-9.58-20-19.08-.16-10.4,9.34-20.27,19.53-20.27a19.92,19.92,0,0,1,20.13,20.34C1565.38,518.89,1556,527.92,1546,527.81Z"/><path class="cls-1" d="M1553.88,692.35c-11.1.12-19.1-7.58-19.35-18.64a19.57,19.57,0,1,1,39.12-.74C1573.76,684.15,1565.52,692.23,1553.88,692.35Zm12.77-18.87a13.19,13.19,0,0,0-12.82-13.22c-6.26-.09-12.31,6.25-12.21,12.81A12.43,12.43,0,0,0,1554,685.48,12.27,12.27,0,0,0,1566.65,673.48Z"/><rect class="cls-2" width="1" height="1"/><rect class="cls-2" x="1919" y="1079" width="1" height="1"/><rect class="cls-2" y="1079" width="1" height="1"/><rect class="cls-2" x="1919" width="1" height="1"/></g><g id="Capa_3" data-name="Capa 3"><path d="M871.65,474.33v111H851.82V514.62l-19.51,14.91-16.17,12.53L800,529.53l-19.51-14.91v70.74H760.62v-111l19.83,15.22L816.14,517l35.68-27.45Z"/><path d="M925.57,511.29v75.5H905.75V509.22a15.83,15.83,0,0,0-13.49-13.48h-4.44V476.07h4.29v.16a35.65,35.65,0,0,1,13.48,3.65,35.17,35.17,0,0,1,16,16.18,41.72,41.72,0,0,1,2.69,7.45,33,33,0,0,1,1,8.09Z"/><path d="M979.18,511.29v75.5H959.36V509.22a15.83,15.83,0,0,0-13.49-13.48h-4.44V476.07h4.29v.16a35.65,35.65,0,0,1,13.48,3.65,35.17,35.17,0,0,1,16,16.18,41.72,41.72,0,0,1,2.69,7.45,33,33,0,0,1,1,8.09Z"/><path d="M1032.79,511.29v75.5H1013V509.22a15.83,15.83,0,0,0-13.49-13.48H995V476.07h4.29v.16a35.65,35.65,0,0,1,13.48,3.65,35.17,35.17,0,0,1,16,16.18,41.72,41.72,0,0,1,2.69,7.45,33,33,0,0,1,1,8.09Z"/><path d="M1156.51,540.31a31.7,31.7,0,0,1,2.7,12.85,32.63,32.63,0,0,1-32.68,32.67h-78.2V566h78.2a12.93,12.93,0,0,0,12.85-13A12.78,12.78,0,0,0,1128,540.15h-79.63V474.8H1150v19.83h-81.85v25.7h59.64a32.15,32.15,0,0,1,28.87,19.82Z"/></g></g></svg>