<svg xmlns="http://www.w3.org/2000/svg" viewBox="0 0 1920 1080"><defs><style>.cls-1{fill:#f2f2f2;}.cls-2{fill:#010101;}</style></defs><g id="Capa_2" data-name="Capa 2"><g id="Capa_1-2" data-name="Capa 1"><path class="cls-1" d="M1553.84,530.17c-1.54,6.45,1.72,13.92,1.88,20.94.33,14.61-2.32,28.51-12.77,39.74-9,9.71-20.31,14.31-33.45,14.37-26.53.12-53.07,0-79.6.32-5.32.07-6.71-1.81-6.43-6.7a142.58,142.58,0,0,0-.23-15.19c-.11-2.17-1.06-4.42-3.6-4.3-2.76.11-2.81,2.71-2.87,4.73a96.94,96.94,0,0,0,0,13.42c.68,6.23-1.54,8.11-7.86,8-24.73-.36-49.49.11-74.22-.29-19.33-.3-37.09,4.14-53.41,14.62-16.75,10.74-27.37,26.08-34.5,44.31-6.71,17.14-13.75,34.17-20.63,51.24-5.93,14.92-11,30.25-18,44.69-10.94,22.75-29.66,35-55.14,33.87-27.39-1.22-54.7-3.92-82-6-26.17-1.45-52.32-3.39-78.54-3.28H923c-20.49.86-41,1.36-61.51,2-1.82.21-3.67.44-5.5.68l-4.69.37c-26.4,2.12-52.76,4.5-79.18,6.24-29.56,1.95-51.85-11.84-63.21-39.5-14.08-34.31-27.47-68.92-41.18-103.4-14.65-24.71-35.75-40.78-64.37-44.63-14.95-2-30.34-1-45.53-1.07s-30.43-.45-45.6.25c-7.82.36-10-2.42-9-9.57.46-3.51.1-7.14.09-10.71,0-2.36.35-5.46-2.8-5.68-3.92-.28-3.53,3.37-3.67,5.84-.29,5-.3,10.14-.22,15.21.06,3.44-1.37,4.73-4.8,4.71-28.6-.21-57.22-.2-85.82-.63-4.91-.07-10.09-.84-14.3-4.15-19.27-8.55-27.63-25.06-26.75-44.38.94-20.67-2.58-41.2-.24-61.78-.3-29.21-2-58.44,1-87.64,1-18.09,14.31-35.42,33.08-41.23,35.77-11.07,71.68-21.63,107.65-32.06,19.79-5.73,24.43-13.36,19-33.47-2.86-10.61-5.44-21.32-8.65-31.83-1.29-4.19-.82-5.59,3.74-6.52q50.65-10.47,101.18-21.56c5.11-1.13,6.56.25,7.54,5.24,2.17,11.09,5.12,22,8,33,4.27,16.39,16.7,26.38,33.46,24.7,23.68-2.35,47.23-6.16,70.82-9.42,40.5-5.61,81.28-8,122-10.21,20.85-1.15,41.75-1.36,62.6-2.33l67.83,0c56.37,1.23,112.61,4.46,168.67,10.64,25.75,2.83,51.31,6.93,76.89,10.89,25.13,3.9,39.1-5.95,44.7-30.67,2.06-9,4.82-17.87,6.34-26.93.92-5.52,3.15-5.74,7.7-4.73q50.14,10.88,100.36,21.31c5,1,5.35,2.94,4.15,7.33-3.53,12.89-7.11,25.82-9.69,38.92-2.65,13.48,1.22,19.79,15,24,32.1,9.79,64.37,19,96.58,28.48,8.54,2.52,17.26,4.67,25,9.17,13,7.57,21.33,18.68,24.3,33.58,3.31,30.46,2.15,61,1.92,91.56C1556.16,506.54,1556.67,518.28,1553.84,530.17Z"/><path class="cls-2" d="M1734,532.69c0-14.38-8.2-28-8.2-28-9.44-13.26-22.53-18.9-38.48-18.86-15.51.05-31-.2-46.53.07-6.78.12-9.71-2.21-9.6-9.3.34-23.25.27-46.49.36-69.76-.89-8.58-.93-17.37-2.83-25.72-9.76-42.61-35.71-69.26-78.5-80-43.58-10.91-86.94-22.78-130.36-34.39-2.86-.77-7.14-.43-7.59-4.89-.47-4.74-4-5.57-7.49-6.3-37.27-7.83-74.6-15.48-111.85-23.43-5.64-1.22-9,4.14-15.06,3-67.44-12.89-135.68-19.32-204-24.71-13.31-1.06-23.63,2.38-29.36,15.1-2.29,5.08-5.76,6.71-11.25,6.59-21.47-.49-43-.52-64.46-.9-2.27,0-5.41,1.65-6.84-1.92-1.34-2.11-2.54-.73-3.76.17-.55.55-1.11,1.57-1.7,1.59-24.16.39-48.32.66-72.49,1.06-4.28.07-6.48-2.26-8.07-5.77C870,213.24,859,208.64,845.46,208.51l-53.84,6.25c-43,4.25-85.87,9.08-128.42,16.53-7.63,1.33-15.26,2.62-22.87,3.94-.88.15-1.92.9-2.57.63-20.45-8.35-38.7,3.89-57.9,6.52-21.15,2.9-42,8.31-62.89,12.82-4,.88-9,.58-9.4,7.28-.27,4.62-5.39,3.88-8.56,4.72-42.23,11.29-84.22,23.72-126.84,33.25-54.26,12.12-83.16,55.5-83.06,103a24.38,24.38,0,0,1-.5,3.53q.11,35.22.23,70.44c0,6.11-3.18,8.45-8.95,8.45-13.09,0-26.19.23-39.28,0-18.8-.27-36.29,2.45-48.47,22.14-6.64,12.93-6.12,52.87-6.12,52.87q.06,43.89.11,87.81c.62,14,4.67,26.12,17.19,34.23,6.54,4.25,13.56,5.55,21.15,5.54q62-.09,124,.07c3.85,0,7.7.32,11.55.48a300.56,300.56,0,0,1,38.2-.11c8,.4,13.22,4.48,16,12,2.56,6.93,5.21,13.83,7.83,20.74,1.2,2.72,2.33,5.46,3.6,8.15,2.34,5,4.15,9.33-4.1,10.75-5.5.93-4.52,5-2.71,9,9,20.06,17.82,40.19,26.78,60.27q4.89,11,10,21.91c1.33,2.84,3.08,5.64,6.7,3,5.52-3.9,8-.3,10.49,3.78,7.1,11.64,16.34,21.58,28.79,26.92,39.6,17,115.47-7.13,115.47-7.13,51.28-15.74,104.13-24.86,157.74-29.07,31.48-2.49,62.92-5.53,94.39-8.27,4.26-.38,9-.86,11.51-4.09,5.66-7.21,13.17-6.87,21-7.18,4.58-.18,5.87,1.2,5.12,5.5-1.18,6.75,2,9,8.54,8.92,14.3-.09,28.61.34,42.9.57,1.22,0,2.45.07,3.69.13,14.58-.31,29.14-.7,43.72-.83,4,0,8.15-.73,7.52-5.21-1.43-10.37,4.89-9.13,11.37-9,5,.11,9.43.9,12.6,5.21s7.48,5.45,12.46,5.86c27,2.22,54,4.78,81,6.88a922.06,922.06,0,0,1,150.38,24.37c35.34,8.76,69.89,21.28,107.52,19.08,30.09-1.77,53.48-16.37,65-44.49,4-9.87,8.51-19.58,12.79-29.36,10.42-27.87,22.16-55.2,34.25-82.37a10.46,10.46,0,0,1,.35-2.65c8.92-22.67,10.66-23.86,35.31-23.87q83.49-.06,167-.08c20.74-6,30.4-18.69,30.45-40.46C1733.76,609.5,1732.54,571.06,1734,532.69ZM1406.15,283.9c.5-7.44,5.61-4.86,9.85-3.73q66.76,17.73,133.55,35.39c24.16,6.36,43.7,20.22,54.14,39.87-10.25-2.56-19.15-4.3-25.77-11.73-2.21-2.47-5-7.83-8.89-.86-1.39,2.47-4.33.52-6.55-.2-41.29-13.14-83.34-23.62-125.06-35.35-3.92-1.09-8.23-1-12-2.92a2.74,2.74,0,0,1-1.27-3.8c.57-1.07,1.92-.89,3.17-.54,4.84,1.42,9.64,3.12,14.78,2.89,1.61-.06,3.87.8,4.53-1.49.61-2.09-1-3.55-2.74-3.94-10.71-2.42-21.44-4.67-32.21-6.86a3.56,3.56,0,0,0-4.13,2.67c-.63,2.58,1.48,3.55,3.58,4.24s6.09.24,4.85,3.48c-1.43,3.8-4.55.3-6.77-.27C1396.61,297.42,1405.78,289.65,1406.15,283.9Zm6.92,42.19c-6.94.24-13.92-6.57-14-13.41,0-3.31,0-6.52,5-6.41,9.36.19,12.66,2.84,12.68,11.64C1415.05,320.08,1420.09,325.84,1413.07,326.09Zm-383-79.56c13.11.67,22.71-3.65,28-15.95,2.42-5.65,6.52-6.76,12.23-6.31,68.56,5.52,137,12,204.83,24.07,6.73,1.22,6.72,3.37,5.84,9.1-1.13,7.4-5.14,4.78-8.94,3.87-8.36-2-16.66-4.42-25.09-6.16-2.81-.57-7.43-2.65-8.55,1.47s3.5,4.64,6.6,5.43c8.91,2.25,17.82,4.54,26.75,6.71,2.48.61,6.06.09,5.06,4.25-.94,3.81-4.23,2.38-6.7,2.06-21.26-2.78-42.47-5.84-63.75-8.39-21-2.52-42-4.63-63.08-6.75-9.71-1-19.31-3.71-29.21-1.66-2.6.53-5.79-1.36-5.91-2.87-.77-8.4-6.84-5.87-11.63-6.39-14.24-1.56-28.15,3.51-42.23,2.24-8.85-.81-17.7-2.05-26.54-3.05-11.38-1.29-22.45,2.4-33.71,1-1.94-.25-4.25.47-5.88-2.83C1002.34,246.37,1016.22,245.85,1030.06,246.53Zm-36,9.84c5.05.28,10.14.07,15.23.07,44.93,2.47,89.82,5.39,134.6,10.12,41.15,4.32,82.15,9.81,123.19,15,1.64.22,3.85-.66,4.65,1.51.74,1.95-.75,3.31-2,4.56-6.22,6.11-13.22,9.94-22.41,8.62-27.72-4-55.43-8-83.21-11.54-36.41-4.58-73.06-6.64-109.69-8.47-20.25-1-40.55-1.81-60.82-1.91-10.39-.06-5.84-7.22-6.83-11.82C985.38,256,989.48,256.12,994.06,256.37Zm-33,7.29c.27-12.18,8.87-6.65,13.81-7,9.76-.77,3.74,7.11,4.62,10.87,2,8.58-4.75,5.53-10.53,5.93C962.72,274.74,960.87,271.5,961.07,263.66Zm-11.36-7.1c8.71-2.59,9.21,2.73,9.57,10,.5,9.75-6.23,5.86-10.59,6.72-8.56,1.67-8.22-3.56-8.7-9.76C939.36,255.28,943.89,255.85,949.71,256.56Zm-16.28,5.32c-.21,12,.08,11.9-12.48,12.22-80.87,2-161.45,7.24-241.24,21.33-2.94.52-5.93.63-8.9.91-7.68.7-13.81-2.83-19.63-7.2-1.72-1.3-3.24-2.92-2.83-5.23.52-2.93,3.13-2.06,5-2.34q73-10.62,146.37-17.46c42.44-3.93,85-7.76,127.66-7.9C932.11,256.19,933.51,257,933.43,261.88ZM930.28,247c-6.55,3.49-13.27,2-20,.48C916.92,245.59,923.6,244.9,930.28,247Zm-285.5,1.39c37-5.71,74-12.3,111.37-15.51,30-2.58,60-5.3,89.9-8.4,8-.84,13.72.38,17.44,8.35,4.35,9.37,11.63,15,22.93,14.45-13,1.83-25.11,6.45-38.55,2.65-8.57-2.41-18.35-.77-27.6-.66-3.31.05-6.69-1.49-8.11,4.91-1.16,5.23-9.24,1.49-14.13,3.26-3.28,1.2-2-2.71-1.65-5,.52-3.07-1.92-3.26-4-3.24-10.44.1-20.86.17-31.3.53-2.55.09-5.92.65-5.25,4.48.59,3.42,3.78,2.15,5.91,2.19,9.22.12,18.45,0,29.09,0a13.59,13.59,0,0,1-8.46,3.15c-44.27,3.05-88.19,9.23-132.11,15.4-.59.08-1.16.33-1.74.4-2.5.3-4.92.28-5.51-2.92-.7-3.8,2.15-3.26,4.42-3.78,9.55-2.2,19.08-4.46,28.53-7,2.64-.7,7-1.34,6-5.14s-5.07-2.13-7.63-1.58c-8.7,1.9-17.3,4.26-25.95,6.43-4,1-8.24,3-9.06-4C638.71,252.62,637.85,249.49,644.78,248.43ZM350.92,322.64c21.41-9.3,44.42-13.11,66.7-19.4,28.89-8.17,58.05-15.39,87-23.43,6.18-1.73,8.81-.25,9.67,5.75.25,1.76.43,3.73,1.34,5.12,4.44,6.85-.05,8.64-5.41,10.09l-6.8,1.86c1.63-4.39,4-5.05,6.11-6.07,1.82-.9,4.54-1.47,3.54-4-.79-2-3.53-2.26-5.59-1.87-10.19,2-20.38,4.14-30.55,6.29-2.06.45-4.34,1.18-4.12,3.85.27,3.28,3.1,2,4.89,2.12a33.66,33.66,0,0,0,13.95-2.57c1.61-.6,3.6-1.64,4.39.85.7,2.13-.9,3.18-2.76,3.79-1.42.45-2.79,1.08-4.23,1.4-44,10.16-87.35,22.91-130.62,35.88-3.26,1-6.3,3.34-9.12-1.46-2.32-4-4.72-.3-6,1.44-6.5,8.54-16.53,9.63-26,13.66C321,344.43,337,328.69,350.92,322.64ZM503.61,318c-2.31-11.69,6.34-10.12,12-11.55,4.5-1.14,5.55,1.95,5.55,5.72,0,6.93-7.77,14.68-14.52,13.91C500.1,325.36,504.92,319.83,503.61,318ZM469.28,824.35c-5.86,2.9-8.37,2.06-11.09-4.35-9.56-22.46-19.81-44.63-30.18-66.73-2.47-5.27-2.29-8.1,3.8-9.6a40.8,40.8,0,0,0,8.2-3.48c4.73-2.35,9.21-4.57,11.77,2.79a4.32,4.32,0,0,0,5.28,2.44c3-.79,1.24-3.49,1.72-5.3-3.24-3.64-3.62-6.52,1.65-8.74,10.39-4.37,20.76-8.81,31-13.6,5.07-2.38,5.48,0,5.42,4-.05,3.85.09,7.72.42,11.56.16,1.89,1.3,3.36,3.56,3,1.74-.32,2.33-1.7,2.4-3.28q.14-4,.16-8c.09-12.73,2.35-15.46,14.49-19,4.1-1.18,5.07.9,6.34,3.93q15.27,36,30.75,72c1.29,3,1,5.16-2.25,6.36s-6.65,2.36-10,3.53C529.89,798,517,804,503.38,808.43,491.36,812.33,480.51,818.78,469.28,824.35Zm64.06-124.78c8.51-3.51,16.95-7.13,25.4-10.71,22.59-10,45.19-19.85,67.69-30,4.65-2.12,6.48-1.26,8.54,3.52q15,34.77,30.95,69.16c2.65,5.73,1.74,8.33-4.33,10.1-13.22,3.85-25.4,10.3-38.05,15.62-18.5,8-37,16-55.47,24.23-3.62,1.63-5.14,1.15-6.64-2.44Q546,742.59,530.19,706.25C528.53,702.43,530.17,700.89,533.34,699.57Zm349.59,97.11c-13.33,14.53-31.58,11.64-48.22,12.65-84.16,5.14-167,18.28-248,41.82-21.38,6.19-43,6.19-64.73,4.87-16.78-1-27.88-12.27-37.64-24.75-1.63-2.06-2.21-4.64.3-6.27,2.13-1.38,4,.25,5.28,2A52.09,52.09,0,0,0,506.33,842c2.33,1.34,5.13,3.19,7.08.07,2-3.28,0-5.89-3.14-7-6.8-2.44-7.21-7.74-7.14-13.74.11-6.54,5.75-6.09,9.4-7.7,14.92-6.52,30-12.64,45-18.91,35.28-16.14,70.82-31.71,106.89-46,13.47-7.56,13.56-7.6,6.88-22.34-11-24.3-22.43-48.43-33-72.93-2.43-5.66-4.29-5.39-9-3.33-31.25,13.72-62.65,27.17-94,40.67a24.58,24.58,0,0,1-3.39.92c-7.75,3.7-15.54,7.34-23.26,11.14-5.07,2.47-5.38-.74-5.57-4.36-.11-2-1-3.58-3.12-3.61-2.4,0-3.1,2.36-2.92,3.78,1.38,10.67-6.7,12.14-13.81,15-8.56,3.4-17.12,7-25.36,11-4.51,2.24-6.39,1.06-7.86-3.19a91.51,91.51,0,0,0-4.23-9.83c-1.06-2.18-2.67-4.55-5.43-3.28-2.31,1.08-1.45,3.68-.77,5.57,1.49,4.21,3.25,8.31,4.82,12.49.57,1.54,1.9,3.51-.7,4.39-2.18.75-3.31-1.1-4-2.73-3.76-9.26-7.73-18.48-11.3-27.76-7.14-18.61-15.44-25.84-35.41-26-26-.24-51.9,0-77.87,0a26.77,26.77,0,0,1-3.53-.43c-29.82.11-59.66.49-89.48.2-13.92-.13-21.37-9.6-21.26-25.26v-89.6c-.07-10.12-.52-20.28-.16-30.4.53-16.14,12.37-28,28.55-28.44,15.49-.41,31-.3,46.53-.09,7.7.11,14.74-1.47,21.17-5.66,4.46-5.19,5.91-11.25,5.94-18,.06-12.41.56-24.8.88-37.2-.55-20.81-2.29-41.71,2.67-62.26,2.83-11.76,8.24-15.61,21.55-16.2a6.13,6.13,0,0,1,.19,1.64c-.53,3.66-7,7.72-1.59,10.52,4.64,2.4,5.28-4.48,6.86-7.36C337.71,358,343.92,354,352,351.51c45.72-14,91.79-26.63,138-38.87,6.23-1.64,6.36.36,6.88,5.72.82,8.56-2.4,11.53-10.46,13.7-27,7.29-53.54,16-80.46,23.43-28.51,7.89-46.12,24.86-48.82,55.27v92.6c-5.23-.22-4.12-7.53-9.32-6.25-1.23,3.7,0,7.07,1.7,10.21,9.12,17,8,35.37,7.58,53.67,2.2,22.52,12.45,39.34,33.94,48.29,3,1.27,3.91,4.32,5.16,7q4.95,10.51,10,21c.86,1.79,1.55,4.44,4.31,3.33,2.56-1,1.76-3.71,1.09-5.5a162.69,162.69,0,0,0-6.55-15.6c-2.47-5-2.74-7.13,4.21-7,26.85.33,53.69.11,80.54,0,3.73,0,7.24-.38,7.29,5a3.6,3.6,0,0,0,3.37,3.64c2.13,0,2.78-2.06,2.69-3.87-.24-5,3-4.87,6.48-4.85,28.64.16,57.28,0,85.9.5a66.08,66.08,0,0,1,40.35,14.65c14.94,9.46,24,23.44,30.36,39.49,11.91,30,23.89,60,35.55,90.13,2.28,5.87,5.66,11.07,8.39,16.64a94.17,94.17,0,0,0,21.49,19.52c16,9.24,32.92,11.25,51.08,8.67,33.21-4.71,66.68-6.66,100.19-7.84,5.9.19,11.86-2,19.58.43C895,797.76,888.84,796.13,882.93,796.68Zm123.4,15.76c.25,3.6-1.63,4.61-4.89,4.57-12.21-.14-24.45-.18-36.66-.2-4.53,0-5.47-1.79-4.25-6.16,1-3.72.76-7.81,1-11.73l-2.11-.11c0,4.16-.5,8.4.14,12.47s-1,5.43-4.64,5.44c-12.21.09-24.45.09-36.66.31-4.26.07-4.82-2.17-4.68-5.66.27-6.2.67-12.45-2.54-19.36h57.3c6.57,0,13.14-.38,19.68,0s16-3.3,19.13,1.59C1009.48,797.13,1005.88,805.89,1006.33,812.44ZM992.47,784.7H923c-20.49.86-41,1.36-61.51,2-1.82.21-3.67.44-5.5.68l-4.69.37c-26.4,2.12-52.76,4.5-79.18,6.24-29.56,1.95-51.85-11.84-63.21-39.5-14.08-34.31-27.47-68.92-41.18-103.4-14.65-24.71-35.75-40.78-64.37-44.63-14.95-2-30.34-1-45.53-1.07s-30.43-.45-45.6.25c-7.82.36-10-2.42-9-9.57.46-3.51.1-7.14.09-10.71,0-2.36.35-5.46-2.8-5.68-3.92-.28-3.53,3.37-3.67,5.84-.29,5-.3,10.14-.22,15.21.06,3.44-1.37,4.73-4.8,4.71-28.6-.21-57.22-.2-85.82-.63-4.91-.07-10.09-.84-14.3-4.15-19.27-8.55-27.63-25.06-26.75-44.38.94-20.67-2.58-41.2-.24-61.78-.3-29.21-2-58.44,1-87.64,1-18.09,14.31-35.42,33.08-41.23,35.77-11.07,71.68-21.63,107.65-32.06,19.79-5.73,24.43-13.36,19-33.47-2.86-10.61-5.44-21.32-8.65-31.83-1.29-4.19-.82-5.59,3.74-6.52q50.65-10.47,101.18-21.56c5.11-1.13,6.56.25,7.54,5.24,2.17,11.09,5.12,22,8,33,4.27,16.39,16.7,26.38,33.46,24.7,23.68-2.35,47.23-6.16,70.82-9.42,40.5-5.61,81.28-8,122-10.21,20.85-1.15,41.75-1.36,62.6-2.33l67.83,0c56.37,1.23,112.61,4.46,168.67,10.64,25.75,2.83,51.31,6.93,76.89,10.89,25.13,3.9,39.1-5.95,44.7-30.67,2.06-9,4.82-17.87,6.34-26.93.92-5.52,3.15-5.74,7.7-4.73q50.14,10.88,100.36,21.31c5,1,5.35,2.94,4.15,7.33-3.53,12.89-7.11,25.82-9.69,38.92-2.65,13.48,1.22,19.79,15,24,32.1,9.79,64.37,19,96.58,28.48,8.54,2.52,17.26,4.67,25,9.17,13,7.57,21.33,18.68,24.3,33.58,3.31,30.46,2.15,61,1.92,91.56.2,11.85.71,23.59-2.12,35.48-1.54,6.45,1.72,13.92,1.88,20.94.33,14.61-2.32,28.51-12.77,39.74-9,9.71-20.31,14.31-33.45,14.37-26.53.12-53.07,0-79.6.32-5.32.07-6.71-1.81-6.43-6.7a142.58,142.58,0,0,0-.23-15.19c-.11-2.17-1.06-4.42-3.6-4.3-2.76.11-2.81,2.71-2.87,4.73a96.94,96.94,0,0,0,0,13.42c.68,6.23-1.54,8.11-7.86,8-24.73-.36-49.49.11-74.22-.29-19.33-.3-37.09,4.14-53.41,14.62-16.75,10.74-27.37,26.08-34.5,44.31-6.71,17.14-13.75,34.17-20.63,51.24-5.93,14.92-11,30.25-18,44.69-10.94,22.75-29.66,35-55.14,33.87-27.39-1.22-54.7-3.92-82-6C1044.84,786.53,1018.69,784.59,992.47,784.7Zm726.74-132.9c0,8.11-3.08,15.06-11.08,18.79-3.59,4.39-8.65,3.42-13.29,3.44q-78.75.16-157.49.2c-5.66,0-11.34.21-17,.68-13.79,1.14-22.93,8.74-28.28,21.15-2.8,6.45-4.7,13.31-9.26,18.88.1,9.17-5.2,16.53-8.44,24.52-6,14.7-12.5,29.17-18.79,43.75-5.43,13.51-10.19,27.32-16.44,40.43-10,21.08-26.51,31.75-50.74,33.2-34.64,2.08-66.58-8.84-99-17.21-58.52-15.08-118-23.34-178.09-28-17.55-1.38-35.09-3.28-52.66-3.62-9.63-.2-14.45-7.41-21.63-11.09h-18.56c0-.84.07-1.68.11-2.5,6-3,12.3-.13,18.45-.38,20.24-1,40.17,2.81,60.25,4.17,20.38,1.42,40.66,4.64,61,5.23,10.48.31,20.06-6.18,29.78-10.35,16.54-10.41,27-25.27,33.35-43.65,4-11.69,9.28-23,14-34.46,6.91-20.25,13.73-40.69,23.82-59.52,14.2-26.5,36.68-41.94,67.5-42.59,28-.59,56.06-.21,84.09-.44,3.93,0,6.22.64,6.13,5.15-.06,1.67.7,3.75,2.79,4.07,2.51.38,3-1.83,3-3.51.18-5.32,3.3-5.75,7.72-5.75q41.13-.06,82.28-.68c5.27-.07,4.55,2.18,3.14,5.41-2.38,5.46-4.8,10.89-7.08,16.39-.89,2.16-2.13,5.21.25,6.44,2.65,1.4,4-1.55,5.14-3.67.85-1.56,1.69-3.13,2.39-4.78,5-12.11,11.32-22.19,23.78-29.36,17.5-10.1,23-28.29,22.37-47.8-.52-17.18.22-33.89,8.85-49.38,1.2-2.13,2.51-5.25-.52-7.13-1.84-1.14-3.13.88-4.32,2.15,0,2-.75,3.87-2.88,3.62-1.9-.22-1.65-2-.93-3.46.14-1.84.29-3.67.43-5.5,0-8.95.09-17.91.12-26.84,0-3,0-6,0-9a153.7,153.7,0,0,1,0-26.88c0-2.39,0-4.77,0-7.15-.27-4.07-.52-8.11-.77-12.18-2-7.06-1-14.56-4.3-21.56-7.57-16.32-19.22-27.73-36.62-32.87q-45.3-13.38-90.63-26.7c-6.4-1.89-10.87-12.54-7.49-18.17,1.81-3,4.14-.82,6.23-.26,46,11.87,91.83,24.25,137.18,38.45,8.8,2.74,15.51,6.5,18.83,15.65,1,3,2.18,9.12,7.45,6.45,4.44-2.26.5-6.23-.56-9.38-.34-1.06-.61-2.14-.95-3.32,12,.29,17.64,4.14,20.74,14.26a110.49,110.49,0,0,1,4,42.41c.16,19.29.44,38.6.35,57.89,0,7.13,1.6,13.43,6.13,18.93,5.34,4.34,11.48,5.75,18.27,5.7,15.19-.15,30.36,0,45.55,0,5.08,0,10.08.31,14.5,3.25,11.75,4.3,17.59,13.3,17.7,25.2C1719.52,569.64,1719.39,610.71,1719.21,651.8Z"/><path class="cls-2" d="M1416.34,494.67c.6-13.21-1-26.71,5.45-39.14.63-1.22,1-3.76.41-4.24-11.31-8.73-3.25-20.79-5.39-31.05-.77-3.68,0-7.68,0-11.54,2.25-2.29,4.43-1.14,6.61.14V443c9.42-11.88,19.82-20.15,34.63-22.37,25.51-3.81,48.35,14.34,49.66,40.16.54,10.68.49,21.39.71,32.09-1.45,37.52-40.64,52.48-66.57,37.27-3.29-1.93-6.92-4.23-8.88-7.31C1427.18,513.64,1417.07,506.88,1416.34,494.67Zm84.19-16.92h.66c0-4.46,0-8.92,0-13.39.17-19.56-16.23-35.91-34.86-36.83-19.79-1-36.75,13-38.36,33.06a219.49,219.49,0,0,0,.07,34.78,35.66,35.66,0,0,0,35.35,33.4c19.36.39,34.56-12.24,37-31.41C1501.22,490.92,1500.53,484.29,1500.53,477.75Z"/><path class="cls-2" d="M411.74,492.88c.13-8.94.3-17.87.38-26.81.22-22.55,11.47-38.87,30.58-44.28,20.22-5.72,38.54,1.53,50.79,20.1a5.41,5.41,0,0,0,2.91,2.21c-.25-11.79.32-23.53.48-35.3,1.49-2,3.63-1.5,5.65-1.44,2,12.38.55,24.84.73,37.27,0,.87,0,2.27-.48,2.54-10.13,5.63-3,12.31-1,18.41,3.37,10.19.56,20.64,1.83,30.88-1.93,18.75-27.06,39.28-48.21,39.38-22.92.11-40.63-15.31-43.24-37.65C412,496.42,411.88,494.65,411.74,492.88Zm7.45-17.29c0,7.81,0,13.17,0,18.53-.11,16.68,15.11,33,32.19,34.53,19.9,1.78,36.32-10,39.51-28.13,2.23-12.72,1.93-25.55,1.43-38.31-.63-16.37-13-30.56-28.27-33.78-17.88-3.77-33.31,3.87-41.7,19.86C417.27,458,419.94,468.11,419.19,475.59Z"/><path class="cls-2" d="M1355.57,278.52c9.92,1.8,19.85,3.51,29.74,5.47,2.61.52,5.53,1.71,4.75,5.25-.89,4-3.67,2.43-6.33,1.86-9.84-2.13-19.72-4-29.61-5.92-2.53-.48-5.18-1.33-4.54-4.22C1350.18,278.25,1353.1,278.27,1355.57,278.52Z"/><path class="cls-2" d="M533.82,291.76c-2,.25-3.6-.4-4-2.54a3.36,3.36,0,0,1,2.56-4.07c11.33-3.73,23.24-4.67,34.84-7.07,1.73-.36,2.67.79,2.59,2.64A4.29,4.29,0,0,1,566,285C555.28,287.29,544.54,289.52,533.82,291.76Z"/><path class="cls-2" d="M1423.48,372.83c0,5,.08,10.08,0,15.11,0,2.05-.29,4.39-3,4.6s-3.58-2-3.6-4.08c-.08-11.26,0-22.52.06-33.78,0-1.84.67-3.78,2.78-3.86,2.64-.11,3.51,2.15,3.57,4.25.17,5.92.06,11.84.06,17.76Z"/><path class="cls-2" d="M503.32,372.07c0,5.35.05,10.7,0,16.05,0,2,.43,4.36-2.77,4.49-2.4.09-3.19-1.7-3.35-3.38-1.19-11.84-.78-23.69.12-35.53.12-1.48.9-2.95,2.75-2.89a3.11,3.11,0,0,1,3.23,3.44c0,5.94,0,11.88,0,17.82Z"/><path class="cls-2" d="M588.28,280.2c-1.48-.12-3.28.66-3.87-1.27-.68-2.21,1.14-3.44,2.68-3.95a196.27,196.27,0,0,1,33.46-7.89c1.55-.23,3.74-.81,4.34,1.67s-.65,4.07-3,4.56C610.68,275.68,599.43,277.93,588.28,280.2Z"/><path class="cls-2" d="M1301.23,266.82c9.18,2.32,19.45,4.91,29.73,7.48,2.22.55,4.15,1.53,3.29,4.14-.72,2.18-3,1.56-4.57,1.27q-15.6-3-31.14-6.32c-2.21-.47-5.35-1-5-4C1294.07,265.45,1297.63,267.29,1301.23,266.82Z"/><path class="cls-2" d="M1348.65,711.33c2,16.53-2.29,30-18.06,38.3-20.81,10.88-46.31-3.2-48.13-26.71-.2-2.67-.23-5.35-.34-8,5.13-17.27,16.35-27.43,31.42-28.44C1328.86,685.43,1340.49,693.67,1348.65,711.33Zm-6.89,7.75c0-14.06-11.87-25.53-26.45-25.65-14-.11-25.7,11.88-25.7,26.38s12.27,26.21,27.06,26.13C1330.83,745.87,1341.8,734.13,1341.76,719.08Z"/><path class="cls-2" d="M1501.41,653.69c2.84,2.88,3,5.07,2,8a196.92,196.92,0,0,1-12.12,27.49c-1.21,2.32-2.71,5.42-5.85,4-2.69-1.24-1.3-4.4-.52-6.37C1489.38,675.54,1494.12,664.44,1501.41,653.69Z"/><path class="cls-2" d="M1423.92,729.24c-1.43,2.42.57,7.61-4.35,7-3.58-.44-2.72-4.5-3-7.28-.19-2.3-.3-4.61-.44-6.92.19-7.4.35-14.8.61-22.2.09-2.29-.07-5.35,3.15-5.3,3,0,3.39,3,3.46,5.37C1423.66,709.68,1423.76,719.46,1423.92,729.24Z"/><path class="cls-2" d="M1416.73,656.15c0-5-.08-10.07,0-15.1,0-1.94-.41-4.49,2.56-4.85,2.76-.33,3.81,1.84,3.84,3.88q.28,17.31,0,34.62c0,1.51-.83,3.8-3.09,3.63-2.44-.19-3.38-2.15-3.4-4.41C1416.69,668,1416.72,662.07,1416.73,656.15Z"/><path class="cls-2" d="M1480.79,714.82c-3.8,8.6-7.51,17.25-11.45,25.78-1.22,2.66-3.1,6.11-6.52,4.37-3.1-1.58-.72-4.73.17-7.06,2.93-7.7,6-15.34,9-23,.49-1,.72-2.42,1.53-3.06,1.79-1.39,2.87-4.68,5.44-3.92C1482.54,709,1480.43,712.41,1480.79,714.82Z"/><path class="cls-2" d="M386.9,589.75c-10.25-9.3-12.48-22.37-16.1-34.74-.43-1.49-1.36-4.48,1.76-5.08,2.49-.48,3.67,1.53,4.63,3.41,1.89,3.67,3.68,7.39,5.5,11.09,2.07,5.51,4.1,11,6.23,16.52C390.27,584.4,391.7,587.76,386.9,589.75Z"/><path class="cls-2" d="M496.41,560.93c.23-10.63.38-21.27.76-31.9.08-2.44-.57-6.28,3.1-6.27s3,3.68,3,6.21c.16,10.64.23,21.27.33,31.91C501.27,568.47,498.84,564.32,496.41,560.93Z"/><path class="cls-2" d="M1549.54,555.23c-2.3,11.1-7.64,21.6-13.08,32a3.25,3.25,0,0,1-3.69,1.87,3.46,3.46,0,0,1-2.2-4.33,141.89,141.89,0,0,1,13.77-33.39,3.06,3.06,0,0,1,3.82-1.51C1550.38,550.84,1549.21,553,1549.54,555.23Z"/><path class="cls-2" d="M1418.91,522.21c5.58,4.87,4.49,10.69,4.6,16.16.16,7.42,0,14.85-.2,22.27,0,1.68-.57,3.65-2.81,4a2.69,2.69,0,0,1-3.22-2.37C1416.35,548.8,1416,535.39,1418.91,522.21Z"/><path class="cls-2" d="M436.35,688.55c.41,2.78,0,4.21-1.52,4.9a3.49,3.49,0,0,1-4.67-1.38,154.27,154.27,0,0,1-14-32.55,5.29,5.29,0,0,1,1.77-4.71c2.12-1.25,2.86,1.44,3.56,2.73C427.15,668,432.59,678.5,436.35,688.55Z"/><path class="cls-2" d="M503.7,646.9c-1,10.32.8,20.73-1.09,31-5.51.36-6.14-3.15-6.05-7.44.19-9.14.14-18.28.47-27.42.09-2.54-1.39-6.89,3.25-6.69,4.45.2,2.56,4.42,3,7C503.52,644.55,503.57,645.73,503.7,646.9Z"/><path class="cls-2" d="M1453.14,779.52c-2.81,5.52-5.38,11.18-8.52,16.51-1.88,3.19-4.65,5.73-6.11-.56,3.91-10.79,7.64-21.66,13.14-31.75,1-1.92,2.33-5.72,5.81-3.78,2.45,1.37,1.55,4.17.7,6.43C1456.53,770.77,1454.82,775.14,1453.14,779.52Z"/><path class="cls-2" d="M1217.83,804.87c1.83,1.65,6,1.72,5.06,5.16s-4.48,2-6.93,1.7c-9.65-1.12-19.28-2.41-28.9-3.72-2.83-.39-6.85-.34-6.74-4.06.13-4.2,4.55-2.46,7.11-3.29Z"/><path class="cls-2" d="M1423.91,759.7c-.24,9.64-.3,19.3-.8,28.93-.19,3.74-1.22,7.76-6.17,3.2-.08-10.62-.23-21.23-.18-31.85,0-3.07-1.08-8,2.7-8.35C1424.62,751.1,1422.47,756.87,1423.91,759.7Z"/><path class="cls-2" d="M1425.17,821.66c4.07-2.13,3.77-8,8.71-8.68.66,10.61-13.92,28.8-24.4,30.63-2,.35-3.55.2-4.4-1.83a3.29,3.29,0,0,1,1.76-4.48c10.81-3.58,10.29-12.16,10-21-.1-2.77-1.83-7.71,3-7.76,4.44,0,3.43,4.6,3.68,7.74C1423.63,818,1423,819.85,1425.17,821.66Z"/><path class="cls-2" d="M1382.93,850.84c-10.58-.34-19.94-5.79-30.27-7.27a4.21,4.21,0,0,1-3.53-5.36c.75-2.9,3.45-1.67,5.26-1.32,11.09,2.16,21.79,6.08,33.15,7,2.51.21,4.08,2.07,3.21,4.27C1389.36,851.69,1385.85,850.81,1382.93,850.84Z"/><path class="cls-2" d="M1272.65,822.67c-9.87-2.09-20.27-4.24-30.64-6.54-2-.44-4.2-1.23-4.13-3.91.09-3.16,2.63-2.77,4.58-2.66,12.22.69,23.8,4.6,35.64,7.2,2.38.52,3,2.27,2.18,3.92C1278.81,823.83,1275.63,822,1272.65,822.67Z"/><path class="cls-2" d="M1330.38,836.53c-10.69-2.41-21.38-4.79-32.05-7.24-2.77-.64-4-2.59-3.53-5.32.67-4,3.56-2.18,5.57-1.71q15.6,3.66,31.11,7.64c2.18.57,5.09,1.31,4.19,4.58C1335,837.08,1332.44,836.56,1330.38,836.53Z"/><path class="cls-2" d="M716.88,801.07c5.29,2.83,10.51-.28,15.77-.2,2.81,0,6.19.29,6.59,3.13.47,3.43-3.2,3.63-5.77,4-10,1.36-20,2.71-30.07,3.87-2.36.27-6,1.59-6.35-2.31-.28-3.35,3.28-3.79,5.81-4.39,4.56-1.1,9.19-1.95,13.78-2.93.22-.05.4-.43.52-.69,0-.08-.17-.28-.28-.37C716.86,801.23,716.88,801.07,716.88,801.07Z"/><path class="cls-2" d="M536.71,850.77c-3.53-.08-7,.33-7.36-3-.42-3.54,3-3.51,5.62-4.06,9.53-2,19-4.16,28.52-6.26,3-.65,6.61-1.29,7.24,2.54.57,3.43-3.1,3.41-5.66,4.08C555.38,846.57,545.9,850,536.71,850.77Z"/><path class="cls-2" d="M646.45,822.89c-3-.72-6.13.75-6.82-2.55-.83-4,2.57-4.1,5.07-4.51,10.48-1.71,20.52-5.71,31.26-6,2.28-.06,5.31-.55,5.83,2.52.42,2.52-2.28,3.39-4.19,3.82C667,818.6,656.28,820.8,646.45,822.89Z"/><path class="cls-2" d="M625.29,824c.26,3.72-1.84,4.7-4.29,5.27-10.38,2.44-20.76,4.92-31.17,7.2-1.84.41-4.53,1.24-5.36-1.41s.83-4.69,3.43-5.32q16.44-4,32.94-7.63C622.81,821.66,625.23,821.31,625.29,824Z"/><path class="cls-2" d="M324.29,428.37c-5.28,3.93-6.06,3.42-8.6-5.6.44-9.09.8-18.18,1.36-27.26.19-2.94.8-6.79,4.31-6.74,4.66.06,2.62,4.4,2.69,6.9C324.38,406.56,322.07,417.48,324.29,428.37Z"/><path class="cls-2" d="M1123.45,249.87c11.84,0,23.58-.15,35.31.12,2.3.06,6,.3,5.63,4.14-.38,3.48-3.67,2.31-5.76,2.28-9.47-.13-19-.47-28.42-.83C1126.73,255.45,1123.79,254.42,1123.45,249.87Z"/><path class="cls-2" d="M1200.6,256.84c-5,0-10.07.08-15.1,0-1.94,0-4.64.3-4.48-2.8.11-1.94,1.77-2.93,3.8-2.94,11.25-.05,22.51-.13,33.76-.13,1.4,0,3.19.16,3.2,2.15a3.16,3.16,0,0,1-3.42,3.26c-5.92.1-11.84,0-17.76,0Z"/><path class="cls-2" d="M716.73,256.67c-5.34,0-10.69,0-16,0-1.67,0-3.76.25-4-2.27-.22-2.24,1.18-3.29,3.19-3.3q17.79-.1,35.59,0c1.59,0,3.06.77,2.9,2.59-.19,2.14-1.93,2.84-3.85,2.85-5.93,0-11.87,0-17.8,0Z"/><path class="cls-2" d="M1604.61,412.28c-.55,4.35-1,8.72-1.68,13-.46,2.7-2.17,6-4.49,5.94-4.16-.18-.62-4.39-2.08-6.36,1.1-2.48.75-5,.29-7.55a12.07,12.07,0,0,0-.41-8.59c1.13-5-.31-10-.38-15,0-1.88-.91-4.58,2-5.05s4.34,2,4.67,4.3C1603.47,399.42,1604,405.86,1604.61,412.28Z"/><path class="cls-2" d="M460.81,764.19c.06-2.47.39-4.08,2.05-4.43,1-.21,2.68.15,3.15.85,7.1,10.67,11.55,22.54,15.35,34.68.24.76-.73,2.15-1.48,2.91a2,2,0,0,1-3.08-.46A191.18,191.18,0,0,1,460.81,764.19Z"/><path class="cls-2" d="M496.38,756.08c1.44-1.47.5-5.3,4.22-4.48,3.17.7,2.68,3.4,2.73,5.7.12,6.18.22,12.36.34,18.54-.13,3.83-.13,7.67-.42,11.49-.19,2.39,1,6.21-3.05,6-3.28-.16-3.37-3.74-3.43-6.29-.19-8-.1-15.95-.15-23.92C496.6,760.78,496.47,758.43,496.38,756.08Z"/><path class="cls-2" d="M1579,484.2c-2.55-1.12-3-3.24-2.15-5.7,3.64-10.32,7.49-20.58,12.85-30.15,1.2-2.16,3.1-5.16,6.21-3.25,2.56,1.56,1,4.27.07,6.4-4.4,9.67-8.79,19.35-13.34,29C1581.92,481.94,1581.29,483.87,1579,484.2Z"/><path class="cls-2" d="M343.62,479.49c-.22,2.1.14,3.85-1.74,4.34-1.62.43-2.77-.49-3.59-1.86-6.22-10.44-10.44-21.8-15.22-32.91a3.1,3.1,0,0,1,1.06-3.95,3.21,3.21,0,0,1,4.67,1.07C335.35,456.79,339.8,468.33,343.62,479.49Z"/><path class="cls-2" d="M571.24,711.32c8.86-20.21,24.26-28.6,42.82-23.33,18.77,5.34,28.41,26.83,20.88,44.88A34.72,34.72,0,0,1,622.85,748c-10.13,5.2-20.57,7.52-31.57,2.88C576.23,744.49,570.52,733.12,571.24,711.32Zm32,34.58a26.22,26.22,0,0,0,27.14-25c.59-14.45-10.81-26.63-25.72-27.48-13.29-.75-25.83,10.82-26.56,24.55A26.45,26.45,0,0,0,603.28,745.9Z"/><path class="cls-2" d="M1556.46,329.59c-.13,3.19-2.4,3.31-4.36,2.38-10.24-4.82-21.06-7.91-31.83-11.14-1.82-.55-3.13-1.84-2.78-4s2.13-2,3.5-1.81c11.17,1.66,22.3,3.53,32.16,9.58C1555,325.76,1556.41,327.23,1556.46,329.59Z"/><path class="cls-2" d="M1466.64,302.31c10.8,2.12,21.28,4.12,31.73,6.27,2.36.49,4.8,1.49,4.51,4.56-.36,3.88-3.51,2.69-5.5,2.3-10.43-2.06-20.82-4.37-31.21-6.68-2.35-.52-5-1.33-4.45-4.44C1462.3,301,1465.23,303.62,1466.64,302.31Z"/><path class="cls-2" d="M451,302.5c3.38.29,6.08-.67,6.81,1.75.92,3.06-1.86,4-4.14,4.54-10.34,2.3-20.69,4.53-31.08,6.56-2.11.41-5.35,1.31-5.94-1.88-.51-2.73,2.36-4,4.57-4.55C431.56,306.54,442,304.43,451,302.5Z"/><path class="cls-2" d="M397.74,314.93c2,.25,4.61-.64,5,2.37.27,2.13-1.4,3-3.22,3.58-10.44,3.15-21.08,5.71-30.91,10.7-1.55.78-4.38,1.69-5.26-1.13s1.34-4.48,3.37-5.65C376.34,319.23,387,316.81,397.74,314.93Z"/><path class="cls-2" d="M1465,502.06c-20.25-.09-33.23-13.47-33-34,.19-18.59,14.27-32.27,33.26-32.31a33.17,33.17,0,0,1,33,33.85C1498,488.23,1483.77,502.14,1465,502.06Zm-.4-6.78c14,.53,26.54-11.45,26.82-25.51.26-13.7-12-26.55-25.68-27-14.21-.42-27,11.85-27.37,26.19C1438.11,482.37,1450.45,494.74,1464.64,495.28Z"/><path class="cls-2" d="M453.73,502.12c-18.47-.13-32.05-14.43-31.86-33.54s14.39-33,33.75-32.86c18.83.15,33,15.49,32.56,35.15C487.75,488.86,473,502.26,453.73,502.12Zm1.38-59.32c-13.78-.13-26.2,11.92-26.69,25.92-.47,13.41,12.1,26.52,25.73,26.85,14.49.34,26.72-11.62,26.92-26.33C481.25,455.49,468.93,442.94,455.11,442.8Z"/><rect class="cls-1" width="1" height="1"/><rect class="cls-1" x="1919" y="1079" width="1" height="1"/><rect class="cls-1" y="1079" width="1" height="1"/><rect class="cls-1" x="1919" width="1" height="1"/></g><g id="Capa_3" data-name="Capa 3"><path d="M871.82,444.44v111H852V484.73l-19.51,14.91L816.3,512.17l-16.18-12.53-19.51-14.91v70.74H760.79v-111l19.82,15.23,35.69,27.44L852,459.67Z"/><path d="M925.74,481.4v75.5H905.91V479.34a15.8,15.8,0,0,0-13.48-13.48H888V446.19h4.28v.16a35.35,35.35,0,0,1,29.5,19.82,41.57,41.57,0,0,1,2.7,7.46,33.47,33.47,0,0,1,.95,8.09Z"/><path d="M979.35,481.4v75.5H959.52V479.34A15.8,15.8,0,0,0,946,465.86H941.6V446.19h4.28v.16a35.35,35.35,0,0,1,29.5,19.82,41.57,41.57,0,0,1,2.7,7.46,33.47,33.47,0,0,1,.95,8.09Z"/><path d="M1033,481.4v75.5h-19.83V479.34a15.8,15.8,0,0,0-13.48-13.48h-4.44V446.19h4.28v.16a35.35,35.35,0,0,1,29.5,19.82,42.36,42.36,0,0,1,2.7,7.46,33.47,33.47,0,0,1,1,8.09Z"/><path d="M1150,499.48A32.76,32.76,0,0,1,1126.54,555H1081a32.59,32.59,0,0,1-30.14-20,34.27,34.27,0,0,1-2.54-12.85V476.64a32.09,32.09,0,0,1,8.25-21.41,33.68,33.68,0,0,1,9.52-7.46,31.38,31.38,0,0,1,14.91-3.64h69V464h-69a13.07,13.07,0,0,0-13,13V492.5a32.67,32.67,0,0,1,12.37-2.53h46.79a32.73,32.73,0,0,1,23,10Zm-23.63,35.69a13.07,13.07,0,0,0,13-13,12.93,12.93,0,0,0-12.22-13h-46.79a13,13,0,0,0,.64,26h45.36Z"/></g></g></svg>