<svg xmlns="http://www.w3.org/2000/svg" viewBox="0 0 1920 1080"><defs><style>.cls-1{fill:#f2f2f2;}.cls-2{fill:#010101;}</style></defs><g id="Capa_2" data-name="Capa 2"><g id="Capa_1-2" data-name="Capa 1"><rect class="cls-1" width="1" height="1"/><rect class="cls-1" x="1919" y="1079" width="1" height="1"/><rect class="cls-1" y="1079" width="1" height="1"/><rect class="cls-1" x="1919" width="1" height="1"/><path class="cls-2" d="M1323.45,290.16a1.75,1.75,0,0,0-.11.61l.49,0C1323.7,290.57,1323.57,290.36,1323.45,290.16Zm0,0a1.75,1.75,0,0,0-.11.61l.49,0C1323.7,290.57,1323.57,290.36,1323.45,290.16ZM1712.75,562c-5.07-3.73-11-4.82-17.1-4.82q-17.2,0-34.39,0c-15.46.06-15.56.08-15.62-15.47-.11-33.79.56-67.6-.23-101.37-1.18-49.75-24.72-86.71-69.13-108.24A735.22,735.22,0,0,0,1435,280.17c-107.25-27-215.17-50.58-325-64.15-29.32-3.63-58.87-5.24-88.33-7.63-6.18-.51-12.77-.89-11.72,8.73.54,4.91-2.7,5.11-6.36,5.08l-88,.05c-3,0-5.87-.38-5.36-4.17,1.3-9.76-5.15-9.91-11.8-9.93-36.94,0-106.44,10-106.44,10-59.65,7-118.22,19.91-176.92,31.94C558.72,261.69,502.5,274,447.56,291.19c-36,11.27-71.28,24.66-104.85,41.64C298.87,355,276.34,392.2,274.9,441.21c-1,34.68-.29,69.39-.44,104.09,0,11.32-.62,11.74-11.78,11.76-8.75,0-17.5.07-26.25.07-11.7,0-23.53-.64-34.28,8.66-7,6.63-5.42,24.15-5.42,24.15,1,28.93.75,57.89.06,86.84.23,7.79.31,15.6.71,23.39.9,18.37,10.09,27.14,28.69,27.18,43.31.07,86.63.34,129.91-.26,11-.14,18.48,3.34,23.48,12.8,1.14,1.34,2.38,2.62,3.43,4,3.4,4.56,9,9,9.54,13.84.6,5.73-7.53,7.43-11.57,11.18s-4.41,6.63-1.11,10.76q21.45,26.77,42.67,53.7c4.49,5.71,7.86,1.47,11.31-1.08,11.27-8.41,11.19-8.43,19.65,2.68,8,10.45,15.26,21.49,26.06,29,19.93,12.3,53.36,5.52,53.36,5.52,9.83-6.72,19.4-11.76,32.61-11.65,91.88.84,183.75.56,275.63.65,36-4.76,72-9.82,108.4-10.59l23.84.83c31.71-.42,63.07,3,94.18,9l121.38.82q77.8-.2,155.59-.37,10.41,0,20.82.09a16.61,16.61,0,0,1,10.17,3c24.18,17.7,60.89,12.62,79.93-11.47,20.75-26.24,41-52.85,61.51-79.31,9.23-11.9,18.52-23.77,27.62-35.78,4-5.2,8.68-7.52,15.41-7.46,42.22.23,84.45.16,126.69.07,6,0,12-.75,18-1.14,12.86-4.93,18.19-12,18.3-25.66.29-36.89.31-73.78.43-110.66C1723.42,568.63,1712.75,562,1712.75,562ZM1017.61,235.49c4.08-.05,6.6-2.06,6.14-6-.76-6.47,2.4-6.32,7.43-6.05,84.14,4.44,166.87,18.57,249.15,35.89,64.13,13.5,128.58,26.07,191,46.48,39.42,12.86,78.6,26.88,114.56,48.21,3.75,2.23,7.86,4.24,10.06,10-190.34-73.53-385.49-119.75-589.1-126C1010.38,235.48,1014,235.53,1017.61,235.49Zm-19,1.8c-6.23,3.24-12.44,2.84-21.3.65C986.07,234.08,992.37,235.71,998.62,237.29Zm-55.82-.51c-8.24,4.17-14.09,3.43-21.68,1.09C928.38,234.43,934.16,235.35,942.8,236.78ZM377.68,332.54c73.69-32.73,152-49.67,230.21-66.52,56.76-12.24,113.65-23.88,171.23-31.78q55.53-7.61,111.54-10.78c2.48-.14,5.47-.56,5.49,2.83,0,10.89,7.52,10.55,15,10.47.83,0,1.67.4,4.67,1.14-26.38,2.14-50.84,2-75,4.39-27.1,2.66-54.3,5.29-81.37,8.28-32.07,3.53-63.61,9.37-95.14,15.27A1839.58,1839.58,0,0,0,350.41,354.2c-7.26,2.76-14.31,7.4-23.81,5.24C342.33,346.87,360.27,340.27,377.68,332.54Zm51.17,493.32a2,2,0,0,1-3.14-.31c-1.59-1.8-3.06-3.68-4.56-5.55q-16.33-20.37-32.64-40.8c-1.19-1.5-3.85-3.22-1.59-5.2s3.64.84,4.82,2.32q18.24,22.86,36.36,45.8c.55.69,1,1.45,1.56,2.18A5.6,5.6,0,0,1,428.85,825.86Zm9.27-6c-1.1,0-2.61-.18-3.24-.92-3.15-3.61-6.13-7.38-9.1-11.15q-14.23-18-28.46-36c-1.36-1.7-2.95-3.42-1-5.43s3.78-.67,5.16,1.12q18.1,23.5,36.15,47a26.32,26.32,0,0,1,1.79,3.23C438.94,818.54,438.54,819.84,438.12,819.84Zm16.53-14c-4.24,4.93-5.73.14-7.8-2.54-11.19-14.51-22.33-29.08-33.68-43.48-2.44-3.12-3.57-5.4.76-7.76,2.07-1.14,3.77-3,5.66-4.45,3.77-3,7.43-8.14,11.36-8.36,5.47-.3,3.29,8.1,7,10.78a98.51,98.51,0,0,1,21.44,21.17c3.95,5.29,8.28,10.3,12.12,15.67,1,1.41,3.2,3.64,1,5.45-2.56,2.1-4.35,0-5.78-2.1-4.52-6.74-9-13.52-13.59-20.17-.78-1.12-2.3-1.72-4.89-3.53.65,11.76,6.25,19.41,11.83,26.62C466.55,801.51,457.69,802.27,454.65,805.82ZM442.2,729.27c13.22-10.38,26.2-21.09,39.39-31.55,7.19-5.7,19.08-4.13,24.75,3,5.2,6.59,9.83,13.77,15.7,19.71,11.6,11.72,10.66,25.38-4.34,35-1.27.82-2.52,1.62-3.79,2.41-8.75,7.18-17.86,14-26.13,21.67-5.85,5.46-9.76,5.6-13.49-1.63-.8-1.56-1.82-3-2.74-4.53q-4.86-6.06-9.77-12.08c-6.88-8.34-13.68-16.73-20.7-24.93C438.39,733.27,439.17,731.62,442.2,729.27Zm391,114.65q-129.88.2-259.78.13c-8.13,0-16.29.4-24.42.5a18.75,18.75,0,0,0-11.53,4.39c-15,11.61-42.36,11-55.66-2.28-8.91-8.86-16.27-19.32-24.22-29.12-3.22-4,.83-5.07,2.95-6.78q34.64-27.63,69.32-55.2c3.39-2.68,6.33-5.56,7.25-10,2.16-14-3.62-25.09-12.88-35-3.52-3.71-6.6-7.82-9.8-11.83-11.51-14.38-25.71-15.83-40.21-4.15-11.25,9.08-22.64,18-33.75,27.25-3.88,3.23-5.93,3.07-7.85-1.74-.88-2.24-2.15-5.81-5.5-4.11-3.07,1.58-3.5,5.17-1.42,7.88,4.59,6,.78,9-3.58,12.38-17,13.26-17.6,13.77-29.72-4.15-9.64-14.26-21.69-19.77-38.81-19.41-41.6.86-83.21.35-124.83.33-14.7,0-16.87-2.06-17.2-16.52-.16-6.6.22-13.23.35-19.84-.67-28.27-1.07-56.53.14-84.8-.07-3.29-.4-6.61-.16-9.89.47-6.74,3.91-10.36,11.07-10.33q20.82.09,41.64-.27c17-.27,24.17-7.39,24.22-24.44.15-34.39.05-68.79.13-103.2,0-16.16,3.71-31.45,9.71-46.51,5.87-14.67,16.16-23.39,31.11-27.25.92-.83,2-1.28,2.95-.31.22.24-.47,1.36-.74,2.09-.62,1-1.13,2.1-1.83,3-1.6,2.14-2.48,4.69-.24,6.43,1.9,1.45,4-.29,5.51-1.83,7.08-7.06,15.58-12.23,23.66-18,6.53-4.67,13.57-7.32,21-9.94,48.4-17.2,97.08-33.45,146.74-46.58,24.35-6.45,48.69-13.1,73.54-17.47,24.44-7.07,49.68-10.35,74.6-15.2,39.42-7.68,79.06-13.88,119.12-17.56,51-4.67,102-8.06,153.14-8.77a28.27,28.27,0,0,1,4.51,0c2.06.33,5.42-1.43,5.65,2.37s-3,3-5.24,3.08c-16.86.56-33.73,1.22-50.62,1.62-52.7,1.21-105.19,5.63-157.57,11.12-44.52,4.67-88.42,13.24-131.86,24-3.17.78-6.53.84-9.81,1.22-8.57,4.63-18,7.84-25.13,14.94-13.08,12.92-17.77,28.81-17.77,46.73q0,112.65-.2,225.32c0,4.49-.29,9-.43,13.51,1,29,.78,58,.07,86.9.85,21.74.74,43.46,0,65.21.11,16.27.4,32.54.25,48.79-.13,14,.11,27.79,14.42,39.15h-29.2c-2.61,0-6.2-.92-6.38,2.95-.2,4.15,3.55,3.27,6.07,3.21,12.84-.31,25.92-1.38,38.5-.89,18.66.71,37.29.82,55.93.85q121.29.12,242.56,0a22.25,22.25,0,0,1,7.23.81C869.93,839.88,851.8,843.9,833.19,843.92ZM962.7,828.1q-51.94.36-103.89.66c-.37,0-.73-.71-1.22-1.24,2.34-3.51,11.13-2.21,8.84-7.64-2-4.77-8.35-1-12.77-.31-2.08.33-4.15.62-6.21.92a88.32,88.32,0,0,1-38.32,8.3c-32.76-.27-65.52-.2-98.26-.27-39.08.05-78.14.33-117.22,0C579,828.47,570.86,821,568,807.14c-.06-.6-.11-1.18-.17-1.78-2.12-19.89-1.28-39.8-.29-59.71-1-27.2-1-54.38-.11-81.57q-1.78-37.07,0-74.12c-.2-5.71-.56-11.42-.56-17.12,0-73.58.4-147.18-.18-220.74-.24-29.91,16.76-50.62,46.47-57.47a1307.69,1307.69,0,0,1,213.22-31q60.5-3.72,121.06-5.38l28.34.29q87.72,1.28,175.09,9.48c55.15,5.14,109.58,15.16,163.28,28.77,23.84,6,39.48,25.49,39.55,49.79.26,80.21.08,160.42.06,240.64a23,23,0,0,1-.33,2.69q0,43.46.07,86.94c0,42.17.38,84.33,0,126.47-.15,14.64-10.76,25.13-25.37,25.22-47,.33-94,0-141-.07-28.34,0-56.68.38-85-.08-12.75-.18-24-7.13-36.31-9.91a35.76,35.76,0,0,0-3.58-.18c-2.43.11-6-1.65-6.31,2.65-.23,3.26,2.18,4.6,5.29,4.85,1.38.13,3,.22,3.72,2.32Zm745.87-129.56c-.19,11.22-2.72,14-13.81,14.28-14.79.31-29.57.18-44.35.2-29.57,0-59.14.25-88.71-.06-12.48-.12-21.92,4.3-29.53,14.24-26.53,34.74-53.34,69.27-80.1,103.82-4.06,5.24-8.28,10.38-12.78,15.24a29.9,29.9,0,0,1-22.43,10c-13.17.2-26.3,1.85-37-9.29-4.5-4.68-12-3.12-18.3-3.14-87.8-.07-175.6-.23-263.42,0-18.79,0-37.27-2-55.77-4.68-5.42.8-10.38-1.21-15.49-2.75,5.11-.42,10.18-1.58,15.31,0q29.83,0,59.68-.07c74.5,0,149,.36,223.51-.47,16.92-.18,33.79,2.34,50.67.44,2.47-.28,6.83,2,6.58-3.28-.2-4.41-4-2.68-6.27-2.74-8.73-.18-17.45-.07-26-.07-1.31-1.9-.44-3.12.72-4.15,7.49-6.78,9.84-15.49,9.84-25.22q0-57,.09-114c0-3.31.2-6.61.31-9.93v-87q-.16-71-.34-142.07c-.06-32-.19-63.95.07-95.93.2-26.45-9.32-46.89-34.28-58.45-1.32-.62-3.61-.76-3.46-2.65-10.93-.76-20-3.93-29.32-6-36.69-8.08-73.5-14.91-110.9-19.51-71.58-8.82-143.42-12-215.4-13.91-2.11-.06-5.35,1.26-5.5-2.67-.16-4.13,3.19-2.71,5.26-2.75,25.35-.42,50.59,1.67,75.88,2.83,28.61,1.32,57.11,3.62,85.61,6.12,49.51,4.33,98.25,13.5,147,23q20.32,4,40.66,8.05c2.17.43,4.53.52,6.87,4.22v0c1.16-3.91,3.89-1.36,5.9-.92,48.14,10.67,95.47,24.28,142.52,38.95,25.24,7.88,49.66,18,74.92,25.87,13.35,4.17,25,12.87,35.53,22.4,2.57,2.32,5.14,8.11,9.29,4.09,3.59-3.48-3-5.6-3.75-9.51,12.52,2,23.47,5.49,29.73,17.79,7.16,14.12,12.4,28.68,13.28,44.59,2,35.28.19,70.59.69,105.87.06,3.91,0,7.86.38,11.75,1.2,13.34,8.21,20.13,21.67,20.46,12.67.31,25.35,0,38,.11,15.27.12,17.73,2.9,16.77,18.32v90.57C1708.46,686.47,1708.66,692.51,1708.57,698.54ZM1323.45,290.16a1.75,1.75,0,0,0-.11.61l.49,0C1323.7,290.57,1323.57,290.36,1323.45,290.16Z"/><path class="cls-1" d="M1353.7,346.56c-.07-24.3-15.71-43.76-39.55-49.79-53.7-13.61-108.13-23.63-163.28-28.77q-87.31-8.13-175.09-9.48l-28.34-.29q-60.59,1.63-121.06,5.38a1307.69,1307.69,0,0,0-213.22,31c-29.71,6.85-46.71,27.56-46.47,57.47.58,73.56.14,147.16.18,220.74,0,5.7.36,11.41.56,17.12q-1.8,37.06,0,74.12c-.88,27.19-.92,54.37.11,81.57-1,19.91-1.83,39.82.29,59.71.06.6.11,1.18.17,1.78,2.9,13.9,11,21.33,25.69,21.42,39.08.29,78.14,0,117.22,0,32.74.07,65.5,0,98.26.27a88.32,88.32,0,0,0,38.32-8.3c2.06-.3,4.13-.59,6.21-.92,4.42-.69,10.76-4.46,12.77.31,2.29,5.43-6.5,4.13-8.84,7.64.49.53.85,1.24,1.22,1.24q51.93-.28,103.89-.66h102.24c-.73-2.1-2.34-2.19-3.72-2.32-3.11-.25-5.52-1.59-5.29-4.85.31-4.3,3.88-2.54,6.31-2.65a35.76,35.76,0,0,1,3.58.18c12.27,2.78,23.56,9.73,36.31,9.91,28.32.46,56.66.1,85,.08,47,.07,94,.4,141,.07,14.61-.09,25.22-10.58,25.37-25.22.41-42.14.07-84.3,0-126.47q0-43.47-.07-86.94a23,23,0,0,0,.33-2.69C1353.78,507,1354,426.77,1353.7,346.56Zm-714.47,349c-2,.46-4.15.58-6.21.85-11.8-2.22-20.58-8.13-24.57-19.94-2.48-18.16,5.8-31.71,20.91-34.16,16.09-2.62,29.79,6.44,32.34,21.36S654.76,692.16,639.23,695.53ZM919.5,818c-10.87-.26-21.52,1.57-32.21,3-2.25.43-4.39.27-4.8-2.5-.37-2.34.47-4,3.15-4.48a179.5,179.5,0,0,1,34.91-3.22c2,0,3.61.52,3.55,3C924,816.72,922.38,818,919.5,818Zm57.06-1.2a51.88,51.88,0,0,1-8.9-.27l-22.56.18c-2.61-.07-5.9.16-6-3.7-.16-5,3.88-3.53,6.52-3.62,9.28-.27,18.56-.33,27.83-.47,1.16.18,2.34.27,3.5.54,2.46.55,5.76.22,5.62,4.13C982.39,817.81,978.93,816.63,976.56,816.76Zm62.56.89c-.38,3.51-3.44,3.06-5.58,2.92-9.51-.69-19-1.71-28.52-2.54-2.92-.25-6.54.47-6.23-4.19.29-4.25,3.77-2.79,6.19-3,1.49-.15,3,0,5.57,0,7.26.78,15.6,1.56,23.89,2.61C1036.71,813.7,1039.5,814.31,1039.12,817.65ZM1312.49,675c-9,23.68-33.09,28.05-49.36,9a48.49,48.49,0,0,0-3.71-3.59,20.82,20.82,0,0,0-.06-4.4c-2.52-12,.42-22.11,10.57-29.46,8.91-6.45,18.84-6.69,28.21-2,11.07,5.55,15.45,15.46,14.33,27.76A24,24,0,0,0,1312.49,675Z"/><path class="cls-2" d="M1312.47,672.36c1.12-12.3-3.26-22.21-14.33-27.76-9.37-4.71-19.3-4.47-28.21,2-10.15,7.35-13.09,17.44-10.57,29.46a20.82,20.82,0,0,1,.06,4.4,48.49,48.49,0,0,1,3.71,3.59c16.27,19.06,40.39,14.69,49.36-9A24,24,0,0,1,1312.47,672.36Zm-26.53,16.69c-10.31.07-20.18-9.66-20.54-20.19-.31-9.56,9.82-20.31,19.24-20.43,11.36-.15,20.42,9,20.45,20.6C1305.13,679.5,1296.07,689,1285.94,689.05Z"/><path class="cls-2" d="M982.54,813.55c-.15,4.26-3.61,3.08-6,3.21a51.88,51.88,0,0,1-8.9-.27l-22.56.18c-2.61-.07-5.9.16-6-3.7-.16-5,3.88-3.53,6.52-3.62,9.28-.27,18.56-.33,27.83-.47,1.16.18,2.34.27,3.5.54C979.38,810,982.68,809.64,982.54,813.55Z"/><path class="cls-2" d="M1039.12,817.65c-.38,3.51-3.44,3.06-5.58,2.92-9.51-.69-19-1.71-28.52-2.54-2.92-.25-6.54.47-6.23-4.19.29-4.25,3.77-2.79,6.19-3,1.49-.15,3,0,5.57,0,7.26.78,15.6,1.56,23.89,2.61C1036.71,813.7,1039.5,814.31,1039.12,817.65Z"/><path class="cls-2" d="M1611.2,423.68c-1.58,2.88,3,9.94-3.4,10.22-5.68.25-3.19-6.63-3.66-10.28-.92-7.18-2.05-14.22-4.71-21-1.16-2.94-3.37-7,.66-8.5,3.8-1.41,5.47,2.93,6.66,5.91A58.63,58.63,0,0,1,1611.2,423.68Z"/><path class="cls-2" d="M1552.29,587.06c-.79,1.55-1.59,3.09-2.36,4.65s-1.86,3.31-3.84,3.09c-3-.34-2-3.07-2.45-4.91,3.92-9.38,7.7-18.82,11.85-28.1,1.1-2.45,2-7.17,5.53-5.76,4.38,1.73,1.16,5.87.22,8.56C1558.57,572.19,1555.31,579.58,1552.29,587.06Z"/><path class="cls-2" d="M1607.53,454.81c-2.73,11-8.32,21.6-13.47,32.36a2.72,2.72,0,0,1-3.82,1.27,3.33,3.33,0,0,1-1-3.05q6.24-17.26,12.82-34.42a2.74,2.74,0,0,1,3.7-1.65C1607.86,450.22,1607.2,452.34,1607.53,454.81Z"/><path class="cls-2" d="M1569.12,542.9c-3.6-5.92-1-9.47.3-12.82,3.16-8.11,6.81-16,10.35-24,.71-1.62,1.69-3.52,3.9-2.69a3.29,3.29,0,0,1,1.39,2.88C1581.11,518.59,1576.48,530.62,1569.12,542.9Z"/><path class="cls-2" d="M354.44,537.62c-.56,2.34.64,4.62-2,5.14-1.71.34-2.89-.85-3.53-2.2-5-10.5-9.92-21-14.64-31.6-.8-1.79-.68-4.29,1.8-5.38,2.05-.9,3.51.3,4.43,1.91C346.43,515.89,350.45,527.09,354.44,537.62Z"/><path class="cls-2" d="M321.41,399.12c-2.89,10.23-4.18,21.52-5.57,32.8a3.84,3.84,0,0,1-3.59,3.45c-1.94.14-2.28-1.63-2.34-3.09-.54-12.38.25-24.54,6.17-35.8.8-1.53,1.66-3.34,3.93-2.87C321.25,393.86,321.56,395.14,321.41,399.12Z"/><path class="cls-2" d="M314.9,450.37c2.12.37,2.72,2.12,3.63,3.67,5.52,9.33,8.89,19.58,12.84,29.58.67,1.68,1.56,3.58-.47,4.74-1.83,1-3.35.09-4.42-1.69-5.88-9.76-11-19.84-13.56-31.05C312.48,453.66,312.31,451.37,314.9,450.37Z"/><path class="cls-2" d="M377.43,589.94c-.21,2-.11,4.66-2.65,4.86-3.2.26-3.51-3.46-5.42-5.1-3.78-8.46-7.69-16.87-11.24-25.43-.83-2-4.09-4.92.36-6.63,3.27-1.26,5,1.1,6.14,3.72Q371.06,575.63,377.43,589.94Z"/><path class="cls-2" d="M661.7,663.64c-2.55-14.92-16.25-24-32.34-21.36-15.11,2.45-23.39,16-20.91,34.16,4,11.81,12.77,17.72,24.57,19.94,2.06-.27,4.17-.39,6.21-.85C654.76,692.16,664.25,678.65,661.7,663.64Zm-26.31,25.28c-10.42,0-20.62-10.07-20.51-20.27.13-10.62,9.3-20.13,19.37-20.1,11,0,20.35,9.19,20.37,20C654.65,678.86,645.16,688.9,635.39,688.92Z"/><path class="cls-2" d="M1515.65,672.72c-3.66,8.16-7.28,16.34-11,24.46-.81,1.78-1.55,4.51-4.28,3.36-2.48-1-1.76-3.58-1.07-5.52,2.6-7.3,5.36-14.54,8-21.81,3.43-3.63,3.09-9.78,8.28-12.47C1518.91,664.83,1515.85,668.79,1515.65,672.72Z"/><path class="cls-2" d="M1523.64,649.57c-3-6-1.33-9.52.21-13,3.6-8.19,7.21-16.38,10.93-24.51.69-1.51,1.57-3.6,3.84-2.66a3.27,3.27,0,0,1,1.32,2.92A187.58,187.58,0,0,1,1523.64,649.57Z"/><path class="cls-2" d="M399.36,641.71c.27,4.37.4,6.35-2,6.8-1.62.3-2.82-.64-3.52-2.17-4.72-10.38-9.54-20.71-14.1-31.16-.94-2.17-1.09-5.12,1.78-6.23,3-1.18,4.21,1.38,5.19,3.62C391.28,623,395.79,633.45,399.36,641.71Z"/><path class="cls-2" d="M414.47,677.1c2.38,6.07,4.84,12.12,7.1,18.23.64,1.73,2.51,4.06-.51,5.29-2.43,1-3.86-.91-4.85-2.81-4.24-8.16-8.4-16.35-12.59-24.53.33-3.55-4.75-8.42-.07-10.25,5-2,5.67,4.56,7.75,7.77A61.83,61.83,0,0,1,414.47,677.1Z"/><path class="cls-2" d="M924.1,813.74c-.09,3-1.72,4.29-4.6,4.22-10.87-.26-21.52,1.57-32.21,3-2.25.43-4.39.27-4.8-2.5-.37-2.34.47-4,3.15-4.48a179.5,179.5,0,0,1,34.91-3.22C922.51,810.78,924.16,811.27,924.1,813.74Z"/><path class="cls-2" d="M1460.9,744a19.81,19.81,0,0,1-19.53,19.56c-11.45.13-20.25-9-20.1-20.95.13-10.56,9-18.82,20.23-18.77C1453.23,723.88,1461,732,1460.9,744Zm-19.42-13.14a12.73,12.73,0,0,0-12.9,12.36c0,6.63,6,13,12.49,13.16s12.46-5.72,12.53-12.65C1453.68,736.47,1448.6,731.08,1441.48,730.84Z"/><path class="cls-2" d="M1403.39,832.61c-2.39-.22-4.56.58-5.31-1.7-.83-2.53,1-4.15,2.91-4.86a172.31,172.31,0,0,0,28.92-14.12c2.39-1.41,4.61-1.31,6.19,1.24,1.47,2.36,0,4-1.72,5.31C1424.92,825.64,1413.89,829.3,1403.39,832.61Z"/><path class="cls-2" d="M1472.72,771.87c-5,11-11.54,21.3-20.81,29.57a3.16,3.16,0,0,1-3.12-.15,3.3,3.3,0,0,1-.09-3.15c6.27-9.78,12.66-19.48,19.08-29.17a2.38,2.38,0,0,1,3-1.14C1472.4,768.56,1472.5,770.12,1472.72,771.87Z"/><path class="cls-2" d="M1493.71,715c-1.06,13.21-7.27,24.44-12.47,36a2.74,2.74,0,0,1-3.72,1.55c-.67-.34-1.19-2.21-.88-3.07C1480.94,737.35,1484.73,724.93,1493.71,715Z"/><path class="cls-2" d="M488.63,812.38c1.19.49,2.87,1.08,4.46,1.85,8.33,4,16.53,8.4,25.44,11.11,2.48.75,4.67,2,4.17,4.91-.62,3.63-3.75,2.58-5.77,2.06-10.46-2.7-20.48-6.57-29.47-12.7-1.75-1.19-3.3-2.69-2.8-5.18C485.05,812.5,486.56,812.43,488.63,812.38Z"/><path class="cls-2" d="M479,764c-5.51-.2-10-2.83-14.32-5.94-7.1-11.66-7.4-19.72-1-27.11a20.19,20.19,0,0,1,25.29-4.76c8.83,4.87,11.7,14,8.42,26.67C492.56,758.71,487.05,763.42,479,764Zm.58-33.06A12.71,12.71,0,0,0,466.46,743c-.25,6.48,5.81,13,12.27,13.2s12.72-5.64,13.07-12.3C492.14,737.47,486.11,731.07,479.59,730.91Z"/></g><g id="Capa_3" data-name="Capa 3"><path d="M837.56,483.78v111H817.73V524.07L798.22,539,782,551.51,765.86,539l-19.51-14.91v70.74H726.53v-111L746.35,499,782,526.45,817.73,499Z"/><path d="M891.48,520.74v75.5H871.65V518.68a15.8,15.8,0,0,0-13.48-13.48h-4.44V485.53H858v.16a35.38,35.38,0,0,1,29.51,19.82,41.54,41.54,0,0,1,2.69,7.46,33,33,0,0,1,.95,8.09Z"/><path d="M945.09,520.74v75.5H925.26V518.68a15.8,15.8,0,0,0-13.48-13.48h-4.44V485.53h4.28v.16a35.35,35.35,0,0,1,29.5,19.82,41.57,41.57,0,0,1,2.7,7.46,33,33,0,0,1,.95,8.09Z"/><path d="M1071.19,575.3v19.83H960.47V562.46a31.5,31.5,0,0,1,2.7-12.85,32.59,32.59,0,0,1,28.87-20h48.06a13,13,0,0,0-1.11-25.85h-78.2V483.94H1039a32.63,32.63,0,0,1,32.67,32.68,32.33,32.33,0,0,1-9.36,22.68,32.93,32.93,0,0,1-22.36,10H992a12.91,12.91,0,0,0-11.58,12.85V575Z"/><path d="M1157.63,483.78a35.81,35.81,0,0,1,35.84,35.85v39.18a35.82,35.82,0,0,1-35.84,35.85h-34.27a35.82,35.82,0,0,1-35.84-35.85V519.63a35.81,35.81,0,0,1,35.84-35.85Zm-34.27,19.83a16.24,16.24,0,0,0-16.17,16.18V559a16.24,16.24,0,0,0,16.17,16.18h34.27A16.24,16.24,0,0,0,1173.8,559V519.79a16.24,16.24,0,0,0-16.17-16.18Z"/></g></g></svg>