<svg xmlns="http://www.w3.org/2000/svg" viewBox="0 0 1920 1080"><defs><style>.cls-1{fill:#f2f2f2;}.cls-2{fill:#010101;}</style></defs><g id="Capa_2" data-name="Capa 2"><g id="Capa_1-2" data-name="Capa 1"><rect class="cls-1" width="1" height="1"/><rect class="cls-1" x="1919" y="1079" width="1" height="1"/><rect class="cls-1" y="1079" width="1" height="1"/><rect class="cls-1" x="1919" width="1" height="1"/><path class="cls-2" d="M992.39,254.75c-6.28,1.47-12.4,3.58-19.29,3.45a151.23,151.23,0,0,1-15.69-1c-7.63-1.5-14.8-4.49-22.08-7.15-1.67-.6-4.35-3.13-5.72.29-1,2.46,1.22,4.06,2.95,5.45,2.81,2.27,6.13,3.55,9.46,4.8,7,2.64,14.21,4.73,21.67,4.81l14.55.08c8.38-1,16.6-2.7,24.2-6.54,3.71-1.87,7.25-4.09,9.14-9.08C1003.94,248.15,998.57,253.3,992.39,254.75Zm42.43,23.65c-1.94,0-3.89-.11-5.82-.12q-25.26-.16-50.51-.28l-15.69.07c-17.8.06-35.61,0-53.41-.07h-6.8c-2.24,0-3.66.77-3.68,3.31s.27,4.61,3.45,4.62c2.26,0,4.52-.05,6.79-.05l55.35-.09,18.47,0c14.89-.24,29.79-.25,44.68-.37,2.58,0,5.17-.23,7.75-.39,1.92-.13,2.8-1.21,2.9-3.11C1038.42,279.37,1037.15,278.41,1034.82,278.4Zm0,0c-1.94,0-3.89-.11-5.82-.12q-25.26-.16-50.51-.28l-15.69.07c-17.8.06-35.61,0-53.41-.07h-6.8c-2.24,0-3.66.77-3.68,3.31s.27,4.61,3.45,4.62c2.26,0,4.52-.05,6.79-.05l55.35-.09,18.47,0c14.89-.24,29.79-.25,44.68-.37,2.58,0,5.17-.23,7.75-.39,1.92-.13,2.8-1.21,2.9-3.11C1038.42,279.37,1037.15,278.41,1034.82,278.4ZM932.56,255.83c2.81,2.27,6.13,3.55,9.46,4.8,7,2.64,14.21,4.73,21.67,4.81l14.55.08c8.38-1,16.6-2.7,24.2-6.54,3.71-1.87,7.25-4.09,9.14-9.08-7.64-1.75-13,3.4-19.19,4.85s-12.4,3.58-19.29,3.45a151.23,151.23,0,0,1-15.69-1c-7.63-1.5-14.8-4.49-22.08-7.15-1.67-.6-4.35-3.13-5.72.29C928.63,252.84,930.83,254.44,932.56,255.83ZM864.38,869.77c-.91-5.88-3.37-10.49-9.25-12.49-5.6-1.89-11.09-1.58-15,3.34-2.39,3.06-5.16,3.38-8.47,3.37-22,0-44-.09-66,0a33.12,33.12,0,0,1-19.12-5.82c-8.06-5.4-16.22-10.65-24.54-15.61-11.63-6.93-24.12-4.82-32.9,5.17-3.64,4.13-7.16,8.36-10.94,12.36-6.78,7.15-12,7.18-18.83,0-5.13-5.38-10.07-11-14.94-16.59-1.73-2-3.41-4.13-6.18-4.24-9.32-.33-18.6-1.2-26.69,5.63-7.64,6.45-15.88,12.23-24.07,18C578,869.57,577.38,870,569.4,862c-11.62-11.65-25.46-19.67-39.67-27.44-26.84-14.66-26.78-14.37-57.66-14.5-11.14,0-20.33,1.77-26.74,11.55-.83,1.25-1.9,2.64-3.76,2.63-1.57.69-1.82,0-1.5-1.37-.15-4.2-.41-8.39-.41-12.58,0-15.2-.16-30.42.16-45.62.1-5-1.45-6.94-6.5-6.9-18.45.11-36.9.13-55.35-.18-5.38-.09-6.47,2.12-6.37,6.91.1,5.39.85,10.9-.64,16.15a18.8,18.8,0,0,1-2.27.3q-74.26-.19-148.53-.4c-7.52,0-7.54.08-7.75,7.26-.07,2.26,0,4.53,0,6.79l0,176c0,11.79-1.69,10.93,10.82,10.94q96.61,0,193.21.12c3.21,0,6.43.33,9.65.5l11.62-.08c3.41-2.4.72-7.46,4.18-10.38,3.16,3.43,6.17,6.33,8.76,9.57,3.71,4.64,8.15,6.67,14.23,6.42,10.65-.43,21.32-.2,32-.24,3.93,0,7.76-.53,11.2-2.56,21.32-12.58,44.58-22,62.32-40.31,6.46-6.67,7.94-6.38,15.83-1,9.58,6.57,19.07,13.31,28.29,20.37a18.21,18.21,0,0,0,11.5,4c14.38.2,14.37.32,23.85-10.29,1.72-1.92,3.42-3.87,5.16-5.78,12.38-13.6,16.64-14.19,27.93.63,8.51,11.17,17.62,18.07,32,15.69,12.36-5.69,23.2-13.93,34.83-20.85a25.87,25.87,0,0,1,13.7-4c23,.08,45.95,0,68.94,0,1.87,0,4.22-.78,5.52.89,5.51,7.05,13,5.88,20,4.78,5.61-.71,5.55-11.56,5.55-11.56,0-9.51.19-9.6,9.6-9.61l76.28-.31c20.83,0,25.3-4.67,32.06-9.6,13.88-10.1,17.25-27.25,18.69-42.79,1.57-17.08.95-61.25.94-78.36,0-2.91-.14-5.82,0-8.73.15-4.17-.8-9.06,1.06-12.32s7.14-1.21,10.89-1.52c3.36-.28,4.7-2,4.41-5-.46-4.73,1.79-6.43,6.21-6.16,12.86.77,25.83.35,38.53,3.14,4.25-.07,8.57-.66,12.59,1.42,24.8,1.87,49.09,7,73.55,11.19,26.71,4.53,52.72,12.3,79.35,17.16,9.48,1.74,19.18,2.39,28.78,3.52,29.44,1.5,62.38-8.53,62.38-8.53a192.57,192.57,0,0,0,49.56-21.62c41.47-25.64,69.59-61.78,86.29-107.57,23.54-64.62,48-128.92,72.07-193.36,3.88-10.4,3.88-10.38,15.25-10.44,12.94-.08,25.9-.39,38.84-.19,6.44.09,11.19-2.37,15.11-7.17,3.08-3.75,6.27-7.4,9.46-11,3.48-4,7.43-5.9,12.88-3.79,5.74,2.24,9.09,6,9.27,12.25.1,3.89.06,7.77,0,11.65,0,12.95-.33,25.91,0,38.84.36,12.68,5.8,18,18.16,19.53,8.43,1,16.78.24,25.19-.07,47.72-1.77,93.06-41.75,94.91-96.21v-88.7l-3.9-3.28c-10.4-8.19-21.21-13.49-31.72-19.32-40.09-22.24-80.23-44.43-121.49-64.46-51.15-24.86-104.38-44.7-157.76-64.07-19.09-6.94-38.44-13.17-57.66-19.75-2.12-.73-5.3-1.11-6.07-2.62-3.15-6.18-9.27-6.58-14.61-8.18-21.64-6.43-43.4-12.51-65.07-18.88-3-.87-5.34-2.09-7,1.93-1,2.35-3.36,1-5.16.58-31.8-7.24-63.85-13.22-96.08-18.32-24-3.79-48.08-6.14-72.17-8.79-6.75-.75-13.48-1.63-20.21-2.44l-31.71-2.6c-20.46-1.68-90.74-2.94-90.74-2.94l-18-.32q-16.29,0-32.6,0c-24.26.75-48.45,2.5-72.66,4.18-30.35,2.12-60.63,4.92-90.8,8.65-42.35,5.23-84.2,13.44-125.83,22.75-1.89.41-4,1.53-5.11-.69-1.78-3.68-4-2.75-7.07-1.86-23.88,6.9-47.84,13.53-71.74,20.33-2.05.58-5,.7-5.4,3.39-.68,4.24-4.1,4.62-7,5.65-6.08,2.12-12.25,4-18.36,6.07-63.43,21.09-126.06,44.32-186.74,72.38-43.71,20.21-85.74,43.72-127.78,67.16-9.88,5.5-19.65,11.17-29.53,16.67l-10.28,8.74-1.09,88.1c1,29,12.89,53.71,35.2,72.95,25.93,22.34,56.66,26.6,89.22,23.59,6.85-.64,12.07-6.31,13.36-13.56a60,60,0,0,0,.69-10.64c0-12.94-.18-25.89-.31-38.84,0-3.56-.19-7.12,1-10.57,3.09-9,14.31-11.86,21-5.2a45.49,45.49,0,0,1,6.15,7.49c5.69,8.69,13.59,12.11,23.91,11.77,12.6-.43,25.25.13,37.87,0,5.17-.06,8.43,1.52,9.85,6.91,1.24,4.65,3.3,9.09,5,13.62,24.42,65,48.12,130.23,73.46,194.84,29.79,76,102,123.17,183.45,125.86,24.19.79,47.51-4.59,70.76-10.41,26-6.5,52.22-12.12,78.86-15.41,2-2,4.49-1.44,6.9-1.29a7.64,7.64,0,0,1,4.9-.77c2.07-1.71,4.47-1.31,6.84-1.06l7.44-1.37c3.88-1,7.79-1.8,11.83-1.14a4.11,4.11,0,0,1,3.74-.79c2.61-1.13,5.31-1,8-.63a17.42,17.42,0,0,1,8.53-.76c4.09-2.18,8.49-1.38,12.8-1.25,7.38-1.26,14.83-.75,22.25-1,3.88-.14,6.4.83,6.11,5.22-.31,4.85,2.32,6.1,6.59,5.79,2.24-.16,4.53.23,6.78.07,4.64-.34,6.21,1.72,6.13,6.27-.19,11.33.46,22.66.09,34-.71,21.58,3.18,57.33-20.77,58.1-1,0-4.78,0-5.74,0H868.06s-3.7.51-3.7-2.46S864.38,869.77,864.38,869.77Zm-7.69,17.82h.09c0,5.48-.11,11,0,16.43.15,5.89-4.09,4.37-7.39,4.65-3.8.32-6-.56-5.91-5.12.15-6.8.07-13.6.06-20.4a.24.24,0,0,1,0-.12c0-3.8,0-7.6.08-11.4.12-5.54,1.79-6.71,6.94-7,4.88-.29,6.12,2.42,6.1,6.54ZM219.85,802.18c-.09-3.45,1.3-4.47,4.55-4.44,9.06.09,18.12-.12,27.17-.11q58.74,0,117.44.17c11.22,0,10.26.61,10.21-10.68,0-2.59.16-5.19,0-7.77-.21-3.15.71-4.69,4.24-4.63,14.23.2,28.47.25,42.7.24,3.72,0,5.21,1.7,5.23,5.27q.19,23.29.5,46.58c0,2.82-1.14,4.1-4,4-4.19-.14-8.4-.16-12.61-.17H325v-.23q-48.53,0-97.06,0c-8,0-8.07-.11-8.12-7.85C219.76,815.76,220,809,219.85,802.18Zm212,98.54c0,8-.15,8-7.75,8-5.44,0-10.87,0-16.31,0,5.94,2.57,12,1.77,18,1.77,3.87,0,6,.8,6,5.28q-.34,32-.34,64.07c0,3.93-1.89,4.88-5.42,4.77-6.79-.19-13.59-.1-20.39-.1q-86.9,0-173.78.06a40.48,40.48,0,0,0-5.83,0c-5.4.79-6.32-1.9-6.3-6.64.16-44,.1-88,.2-132,0-7.33-1.54-8,7.93-8q97.57,0,195.14.09c8.78,0,8.85.16,8.88,9.23Q432,874,431.89,900.72Zm22.51,81.14c-8.27-6.33-15.89-10.43-15-22.12,1.11-14.41.46-29,.16-43.46-.09-5,2-6.22,6.33-5.73,3.45.4,8.44-1.85,8.46,4.6C454.43,936.91,454.4,958.66,454.4,981.86Zm-1.84-73.58c-3.61,1.25-7.68.79-11.42-.11-1.66-.39-1.49-2.6-1.49-4.21q0-25.58,0-51.17c0-2.63.53-5,2.57-7,3.6-3.48,7.09-7.11,10.74-10.77,2.68,2.91,1.77,6,1.78,8.66q.15,28.49-.05,57C454.63,903.29,456.08,907.06,452.56,908.28ZM480.14,989c-5.42-.69-12.29,2.22-16-1-3.89-3.41-1.11-10.38-1.16-15.77-.15-18.12-.05-36.24.05-54.37.05-6.92.18-6.92,6.76-7.11,16.33-.49,16.33-.49,16.34,16.11v23.31h.12c0,10.68-.18,21.36.09,32C486.46,986.83,485.69,989.65,480.14,989ZM486.39,868h-.14c0,11.31-.14,22.62.07,33.92.07,4.65-.85,7.46-6.35,6.66s-12.2,2.28-15.82-1.33-1.32-10.43-1.36-15.82c-.16-19.07.12-38.13-.12-57.2-.06-4.61,1.18-6,5.9-6.16,17.81-.54,17.81-.72,17.82,16.65Zm11.47,62.05c.36,6.43,0,12.9,0,19.35,0,6.78.22,13.56,0,20.32-.23,6.18,1.33,12.56-1.81,18.56-2.92-9.32-2.51-69.58.09-78.31C499.61,917.18,497.51,923.79,497.86,930.08ZM497,907.61c-2,0-2.79-1.27-2.79-3.06q-.18-37.23-.27-74.47c0-.84.63-1.69,1.49-3.87C498.65,833.75,499.37,894.69,497,907.61Zm51.67-48.38c-.32,8,.36,16.1-.73,24.1q.16,37.32.38,74.64c0,2.72-.3,5.22-2.93,6.64q-19,10.32-38.1,20.61c-2.51-2.8-1.43-5.49-1.43-7.85,0-31.35.11-62.69.19-94-.73-16.18-.49-32.36.08-48.53,0-1.18-1.77-3.54,1.64-2.46,12.71,5.44,24.43,12.78,36.69,19.11C547.89,853.22,548.84,855.68,548.69,859.23ZM568,942.5c-.5,5.8-6.55,8-11.6,13.19,0-15.11,0-28.2,0-41.3,0-4,2.64-3.78,5.3-3.6s6.44-1,6.52,3.57C568.32,923.74,568.78,933.18,568,942.5Zm.5-61.16c-.75,7.66-.31,15.43-.22,23.15,0,3.45-1.57,4.58-4.72,4.16-2.9-.4-7.17,1.25-7.22-3.9-.14-14-.05-28-.05-43.36C564.07,866.9,569.4,871.82,568.48,881.34ZM580,939c0,1.31-.66,2.48-2.34,2.23a1.91,1.91,0,0,1-1.63-2q-.13-13-.08-26c0-1.39.77-2.51,2.33-2.23s1.69,1.73,1.71,3c.06,4.17,0,8.34,0,12.51h0C580.06,930.67,580.12,934.84,580,939Zm0-33.58a2.35,2.35,0,0,1-2.3,2.54,1.67,1.67,0,0,1-1.74-1.82c0-10.46-.41-20.95.22-31.4l2.18-.41c.62.7,1.78,1.4,1.79,2.11C580.2,886.11,580.12,895.77,580,905.43ZM587.54,877c0-3.27,1.45-5.43,4-7.23,8-5.73,16-11.52,25.26-18.18,0,18.73,0,35.77,0,52.8,0,3.29-1.07,4.54-4.49,4.4-6.76-.28-13.52-.22-20.27-.14-3.32,0-4.51-1.36-4.47-4.64C587.68,895,587.64,886,587.54,877Zm29.25,88.32c-9-6.49-16.11-11.94-23.57-17-3.84-2.59-5.8-5.54-5.62-10.3.28-7.4.17-14.82,0-22.23-.06-3.59,1.16-5.3,5-5.2,6.44.17,12.89.14,19.33-.05,3.16-.08,4.85.81,4.84,4.25C616.76,931.11,616.79,947.42,616.79,965.28Zm13.37,4.3c-4.19-.19-4.52-2.56-4.49-5.77.09-7.77,0-15.53,0-23.31h.13c0-8.09.11-16.18,0-24.27-.07-3.47.65-5.44,4.76-5.31s3.72,2.67,3.73,5.29c0,15.86.09,31.72.05,47.58C634.34,966.57,635,969.8,630.16,969.58Zm4.38-93h-.26q0,13.5,0,27c0,2.89-.55,4.85-4.25,4.8s-4.23-1.92-4.23-4.85q-.15-26.05-.4-52.11c0-3,.92-4.78,4.35-4.89,3-.11,4.89.32,4.82,4C634.44,859.25,634.54,867.94,634.54,876.63Zm18.9,75.13c-3.56,2.9-5.86,7.33-11,10V855.5c8.14,3.11,16.65,14.54,16.66,22.69,0,19.68-.16,39.37.14,59C659.28,943.13,658.19,947.89,653.44,951.76Zm12.8-68.65v0c0-2.45,0-4.9,0-7.35,0-1.43.6-2.39,2.18-2.45a2.14,2.14,0,0,1,2.5,2.18q.06,3.81.11,7.62v0q.13,11.58.15,23.15a2.78,2.78,0,0,1-1.55,2.05,2.07,2.07,0,0,1-2.78-1.79c-.16-5.44-.06-10.9-.06-16.35h-.55Zm3.23,60.26c-1.82.2-2.94-.64-2.93-2.7,0-9,0-18,0-27,0-1.31.25-2.69,1.7-2.94,2.09-.36,2.78,1.16,2.82,2.87.08,4.5,0,9,0,13.49h.2c0,4.5,0,9,0,13.5C671.3,942,671,943.22,669.47,943.37Zm24.69,19.13c-5.55-6.14-9.54-10.59-13.59-15-1.92-2.11-1.9-4.69-1.91-7.28,0-19,0-38-.17-57.05a.17.17,0,0,0,0-.1c0-1.61,0-3.22,0-4.83a15.46,15.46,0,0,1,4.19-11.41c3.41-3.62,6.63-7.42,11.12-12.5v54l-8.25,1.17c8.66,1.75,8.65,1.75,8.64,9.71Zm13.73,7.12c-3.92,0-5.88-.92-5.81-5.39.21-16.15.17-32.29.07-48.44,0-3.73,1.38-5.07,5.13-5.1,4.21-.05,4.68,2.24,4.65,5.52-.06,8.07,0,16.14,0,24.22h0c0,7.75,0,15.5,0,23.25C711.93,966.54,712.58,969.61,707.89,969.62ZM712,852.09c0,8.7,0,17.4,0,26.08h-.08c0,1.64,0,3.27,0,4.9v.24c0,6.66,0,13.32.05,20,0,3.45-.86,5.32-4.86,5.22s-4.94-1.8-4.93-5.33q0-10,0-19.9v-.2q0-15.55-.22-31.1c-.06-4.23,1.52-5.51,5.64-5.52C712,846.46,712,849,712,852.09ZM746,945c0,2.92-.73,5.74-3.59,7.47-7.09,4.3-14.13,8.66-22.72,13.92,0-18.18.07-34.52-.06-50.88,0-3.87,1.63-5,5.24-4.93,5.46.18,10.94.14,16.42,0,3.24-.08,4.76,1.27,4.76,4.47C746.06,925,746.15,935,746,945Zm.06-61.92c0,.11,0,.23,0,.33q-.12,10.68-.25,21.34c0,2.73-1.17,4.12-4.12,4-5.49-.18-11-.3-16.49-.15-4.08.11-5.76-1.35-5.73-5.63.07-6.52.09-13,.09-19.65a1.13,1.13,0,0,0,0-.26c0-10.64,0-21.49,0-32.9,8.7,5.19,16.12,9.63,23.56,14a5.94,5.94,0,0,1,3.13,5.59Q746.15,876.43,746.08,883.06Zm9.74,62.15c-1.16,0-1.55-1.1-1.56-2,0-10.76,0-21.52,0-32.5,3.21.53,3.8,1.41,3.81,2.3q.24,14.44.27,28.9C758.32,943.53,758,945.26,755.82,945.21Zm1.24-37.32a17.73,17.73,0,0,1-3,.33c0-8.35,0-16.6,0-24.82a1.93,1.93,0,0,1,0-.34c0-2.91,0-5.83,0-8.74,0-1.22.16-2.55,2-2.6a1.92,1.92,0,0,1,2.08,1.59c-.07,3.24,0,6.5.15,9.75,0,.12,0,.24,0,.35C758.63,891.59,759,899.79,757.06,907.89ZM835.51,883v.2c0,6.13-.22,12.27-.1,18.41.12,6.62-.74,8-7.56,7.31a18.2,18.2,0,0,0-2.85.14c10.43,2.72,10.64,2.72,10.43,13.84-.15,7.33,1.43,14.77-1,22-7,1.57-14.13.44-21.19.55-13.91.19-27.83,0-41.75.14-4,0-5.87-1-5.68-5.43.31-7.75.39-15.54.08-23.29-.21-5.25,2-7,6.88-6.49a17.52,17.52,0,0,0,8.17-1l-3.32-1a18,18,0,0,1-7.77,0c-1.63.45-3.32,1-3.38-1.7a225.1,225.1,0,0,1-.52-23.23c0-.11,0-.23,0-.35,0-2.48.15-5,.28-7.45-.32-1.57-.83-3.34,1.38-3.79a29.63,29.63,0,0,1,5.74-.39q27.46-.07,54.93-.07a43.74,43.74,0,0,1,5.65.75c3,1.63,1.5,4.46,1.55,6.69C835.51,880.21,835.51,881.61,835.51,883Zm21.17,48.24h-.14c0,4.81,0,9.62,0,14.44,0,2.88.4,6.12-4.16,5.69-3.67-.35-8.38.81-8.48-5.13-.18-10.59-.27-21.17-.15-31.75.06-5.25,4.43-3.35,7.24-3.76,3.13-.46,5.82-.15,5.73,4.16C856.59,920.37,856.68,925.82,856.68,931.27ZM1020,125.9q59.16,2,118,8.81c1.28.16,2.52.54,3.77.82,15.09.29,30,1.64,44.62,5.9a35.66,35.66,0,0,1,15.6,1.86c13.4.31,26.39,3.51,39.26,6.66,4.87,1.19,10.25-.09,14.65,3,3.6-.42,6.88.82,10.16,2a106.43,106.43,0,0,1,27.77,6.62c-9.43.05-18.33-3.94-27.8-3.3-2.6,3.23-1.46,5.4,2.13,6.45,4.34,1.27,8.73,2.36,13.14,3.31,3.15.68,6.39.92,9.29,2.39-3.31,11.91-7.55,15.18-19.22,13.46-16.62-2.44-33.18-5.32-49.72-8.29-27.43-4.89-55.18-6.83-82.9-9.06q-38.7-3.12-77.39-6.39c-2.75-.23-5.72-.17-8.62-2.51,2.7-2.46,5.41-4.68,7.78-7.21,2.2-2.35,4.71-5.12,1.3-8.27-3-2.8-5.43-.4-7.37,1.78-3.21,3.63-6.59,7.21-9.13,11.29-1.87,3-4,3.92-7.14,3.47-.32,0-.65,0-1-.05-5.77-.66-12.4.23-17.08-2.39C1015,153.43,1016,146,1015,140.4c-1.16-6.2-4.28-9.74-10.48-10.88a54.22,54.22,0,0,1-10.92-3.34C1002.37,124.6,1011.2,125.61,1020,125.9Zm26.23,162.94c.65,9.38,5.1,13.82,14.57,15,.32,0,.65,0,1,.07,4.13.39,9.72-.74,12,1.51,3.35,3.26,1.33,9.2,1.34,14q.11,77.19,0,154.4c0,13.55,1.8,12.75-12.36,12.76q-92.28.11-184.53.08h-2c-10.56-.16-10.56-.16-10.56-10.74q0-80.61,0-161.19a45.32,45.32,0,0,0,0-5.83c-.54-4.17,1.64-4.88,5.14-4.71a59.29,59.29,0,0,0,8.73-.33c9.93-1,16.3-6,14.69-15.43-3.69-21.43,11.07-33.07,22.13-46.92,2-2.51,5-2.85,7.93-2.86,13.6,0,27.2,0,40.79-.09h12q20.42.12,40.8,0c2.94,0,4.77,1.29,6.51,3.41,5.94,7.26,12,14.43,18,21.65,2.84,3.4,3.79,7.33,3.6,11.74A120.48,120.48,0,0,0,1046.19,288.84ZM933,202.59c24.24-.21,48.48-.16,72.71-.2,2.59,0,5.18.24,7.75.07,4.25-.29,6.65.62,6.25,5.81-.49,6.1-.08,12.26,0,18.4,0,2.48-.23,4.54-3.54,4.34L937,230.93c-5.09.25-11.44,2.26-15-.91-3.73-3.3-1.24-9.78-1.28-14.84C920.6,199.34,921,202.7,933,202.59ZM923,190.1c3.76-16.65,7.28-33.37,11-50.85,9.79,5.85,19.88,7.43,30.17,7.77l13.06-.07a105.61,105.61,0,0,0,28.61-5.82c3.28,5.67,3.32,11.88,4.67,17.69,2.43,10.36,4.52,20.8,6.69,31.21.57,2.76.56,5.15-3.46,5.09-12.92-.19-25.87-.23-38.8-.31l-9.35.14q-18.92-.06-37.84-.09C924.6,194.85,921.9,194.79,923,190.1Zm52.93-57.87c5.84,1,12.11,0,18.92,4.15a62.44,62.44,0,0,1-19,3.13l-9.61,0c-6.77-.14-13.57,0-21.71-3,7.77-4.13,15.07-3.28,22-4.28ZM673.59,155.06l15.51-3.77c10.08-1.8,20.16-3.54,30.22-5.42,2.23-.42,4.39-1,6.68-.6a112.72,112.72,0,0,1,27.27-4c8.15-2.9,16.64-3.42,25.18-3.7,24-3.57,48.16-5.68,72.3-7.44,27.41-2,54.81-4.32,82.3-4.78a69.85,69.85,0,0,1,15.58,1.08c-5.73,1.61-11.44,3.38-17.23,4.77-3.34.8-4.87,2.64-5.35,5.92-.71,4.78-1.68,9.53-2.51,14.29-.61,3.48-1.87,6.2-6.14,5.87a10.21,10.21,0,0,0-2.89.35c-10.29,2.11-19.83,2.49-24.86-9.49-.82-2-2.94-3.4-4.49-5-2-2.18-4.32-3.11-6.62-.62-2,2.19-1.83,4.66.11,7,2.66,3.14,6.64,5.06,8.58,8.35-.85,2.7-2.62,2.46-4.16,2.58-43.18,3.4-86.4,6.36-129.53,10.35-22.81,2.1-45.41,6.28-68,10.35-6.66,1.2-13.35,2.5-20.08,3.15s-12.57-3.47-15-9.84c-1.14-3-.61-4.9,2.9-5.56,6-1.13,12-2.55,18-3.68,3.69-.7,4.81-2.79,4-6.24-9.71-1.58-18.73,2.72-28.33,2.87C655.54,158.1,664.48,156.26,673.59,155.06ZM899.24,749.33c-5.12-.13-10.29.95-15.43,1.44-6,.57-5,3.54-2.52,7.09,8.93-.26,17.86-.87,22.39,0a140.6,140.6,0,0,1-22.39.18c-6.15,3.06-12.85,2.2-19.35,2.66-6.87,2.88-14.33,2.22-21.46,3.62l-37.35,6.11c-15.21,4-30.7,6.61-46.14,9.5q-8.93,2-17.83,4.08a155,155,0,0,1-32.7,7.58c-48,8-91.77-3.37-132-29.46-34.21-22.19-57.7-53.21-72-91.34Q465.66,572.38,428.75,474c-.79-2.12-1.52-4.27-2.36-6.36-3.77-9.23-10.26-14.79-20.6-14.84-12.94-.06-25.89-.23-38.83.15-6.36.18-11.27-1.21-14.67-7-1.6-2.74-4.06-5-6.24-7.39-8.16-8.91-18.37-10.66-29.31-7.15-11.09,3.57-18.17,11.46-18.82,23.4-.72,13.22-.45,26.51-.62,39.76-.07,4.85-.19,9.7-.22,14.56,0,2.4-1.17,3.32-3.51,3.57-64.35,6.91-102.6-35.8-103.64-83.91-.5-22.64.09-45.3-.31-68-.14-7.72,2.56-12.7,9.3-16.34,24.44-13.22,48.83-26.49,73-40.11,75.67-42.59,155.85-74.69,237.75-102.84a3.38,3.38,0,0,1,1-.05c13.74-6.45,28.62-9.71,42.69-15.25,3.33-1.33,4.94-.08,6.08,3.66,4.28,14.12,1.05,21.24-12.9,26.27C536,220,525.33,223.57,514.9,227.21c-.52-.6-.86-.81-.88-1-.29-4.8-1.9-10.07-.42-14.25,1.56-4.45,7.9-2.68,11.94-4.4,7.4-3.16,15.19-5.39,22.77-8.12,2.39-.86,5-1.53,6.55-3.83a3.78,3.78,0,0,0,.36-2.71,1.8,1.8,0,0,0-2.22-1.27,27,27,0,0,0-2.86.43c-12,3.63-24.38,6.12-35.82,11.5a7,7,0,0,0-.35.9c-1,4.12-7.92,2-7.82,7.41.07,3.55,0,7.11-.06,10.67-.12,8-.1,8.12-7.81,11-43.56,16.51-69.46,48-78.26,93.41a105.9,105.9,0,0,0,3.87,55.52c11.37,32.61,23.08,65.1,34.68,97.62,14.2,39.82,28.84,79.5,42.43,119.52,5.06,14.9,10.3,29.66,16.38,44.15,1.87,4.45,3.11,9.16,4.76,13.71,23.78,65.61,71,103,139.14,114.51,25.29,4.27,50.12-.31,74.88-6a1298.89,1298.89,0,0,1,177.9-28.25,4.56,4.56,0,0,1,1.43.23C915.4,749.25,907.75,749.55,899.24,749.33Zm32.93-4.27c7.52,4,13.33,8.69,20.77,10.26,3.8.79,2,4.83,2.2,7.45s-2,2.83-4,2.89c-.65,0-1.29,0-1.94,0C928,764.38,930.59,770.34,932.17,745.06Zm1.58,30.77c-.94,0-1.8-.57-2.11-2.94h37.85c-.34,1.56-.61,3.25-2.75,3.24C955.75,776.06,944.75,776,933.75,775.83Zm33.37-19.6c1.91-.12,3.82-.06,5.73-.1,3,0,5.63,0,5.61,4.35,0,4.1-1.44,5.95-5.58,5.45-1-.12-1.91-.17-3.08-.27-2.09-.62-5,1.14-6.79-1.53A5.21,5.21,0,0,1,967.12,756.23Zm25.33,127.31c-1.45,14.17-4.62,29.76-18.1,39.17a89.45,89.45,0,0,1-8.43,4.33c-8.52,3-17.14,2.68-25.29,2.69l-66.81.31c-1.61,0-3.23.07-4.85,0-5.45,0-4.56-3.38-4.56-3.38V900.18c0-1.95.21-3.89.2-5.83,0-2.42,1.11-3.49,3.5-3.47,2.58,0,5.18-.13,7.76-.13,102.63.07-61.86.14,40.77.21,3.56,0,7.15.37,10.68-.09,20.62-2.71,22.6-25.39,22.6-54.19,0-13,.71-25.84.85-38.77.16-14.54,0-14.4,14.34-13.67l13.44,0c17.38.51,14.26-2.17,14.42,14.15C993.17,817.79,994.42,864.18,992.45,883.54Zm13.42-107.23c-9.61,0-19.22-.32-28.82-.09-3.34.09-5.27-1.7-7.55-3.33H1009C1009.21,776.67,1007.23,776.31,1005.87,776.31Zm.07-10.51c-5.78.05-11.57-.06-17.35-.14-2,0-4.05-.53-4-3,.08-2.71-1.45-6.81,2-7.65,7.61-1.84,13.71-6.79,22.87-10.1,0,6.75,0,12.13,0,17.5C1009.58,764.91,1008,765.78,1005.94,765.8Zm12.25-1.95c-1-5.74-1.49-11.48.31-17.17A37.59,37.59,0,0,1,1018.19,763.85Zm3.54-34.08c-5.15-.07-8.2,3.08-10.92,7,0,0-20.82,13.93-41.41,13.93-24.77,0-41.75-16.49-41.75-16.49-.56-.78-1.11-1.56-1.66-2.35-6.7-3.61-13.86-2.46-20.85-1.69-43.9,4.83-87.72,10.37-131,19.14-19.25,3.91-38.39,8.35-57.62,12.42-12.34,2.62-24.8,4-37.44,2.8a10.45,10.45,0,0,1-6.16-.37,12.6,12.6,0,0,1-9.6-1l-7.3-.79c-1.64.34-3.16.28-4.32-1.15-21.49-3.26-40.85-11.87-58.72-23.89-29.06-19.54-49.77-45.78-61.89-78.7q-6.51-17.71-12.94-35.48c-3.79-10.43-6.05-21.1-5.41-32.27.18-3.19,0-6.4,0-9.21-3.92-2.79-5.46,1.51-7.81,1.86-.76-.65-1.47-1-1.64-1.44-23.4-65.33-46.94-130.62-70-196-15.14-42.85-6.82-81.48,23-115.4,13.05-14.82,29.53-24.66,48.4-30.72,2.31,3.08,1.2,6.1,1.71,8.81.43,2.29,1.53,3.41,3.88,3.27,2-.13,3.18-1.37,2.76-3.11-3-12.87,6.7-14.61,15.09-17.59,7.91-2.81,15.85-5.5,23.66-8.56,14.29-5.62,19.24-14.85,16.09-29.84-1.47-6.92-3.27-13.77-5.09-21.38,7.36-2.23,14.62-4.49,21.92-6.64,14.24-4.19,28.56-8.14,42.72-12.59,4.46-1.4,6.87-1.93,8.26,3.82,1.12,4.64,3.31,8.5-2.67,11.13a3.26,3.26,0,0,0-1.61,3.55c.57,1.75,2.4,1.79,3.84,1.5,3.78-.77,5.77.44,7.42,4.1,7.58,16.78,17,17,31.72,14.81,15-2.21,30-5,44.91-7.63,27.43-4.88,55.17-6.9,82.89-9.18s55.46-4.32,83.16-6.93c5.13-.47,8-.26,8.13,5.65,0,2.21,1,4.41,1.51,6.61.49,1.9,1.86,2.43,3.66,2.28,2.1-.17,2.5-1.69,2.66-3.37.35-3.93-2.69-7.29-1.86-12l21-1.86c-4,19.5-9.38,37.94-8.28,57.37-3.82-4.5-5.23-9.62-6-15-.27-1.91-.85-3.79-1.07-5.71-.3-2.51-1.09-4.57-4-4.37-3.73.27-3.62,3.19-3.33,5.78a59.52,59.52,0,0,0,6.45,22.19,50.5,50.5,0,0,0,3.94,6.68c2.34,3.11,2,5.51-.58,8.41-5.21,5.76-9.88,12-15.09,17.75-3.91,4.33-5.86,9-5.48,14.93a112.31,112.31,0,0,1-.11,14.56c-.49,7.11-1.86,8.36-8.72,9a7.88,7.88,0,0,1-1.93.11c-13.54-2.25-24.36,3.56-34.91,11.07-8.95,6.36-18.46,11.92-27.74,17.82-5.53,3.5-11.38,6.17-18,6.38-31,1-60.51,9.25-90.15,17.21-4.45,1.21-6.36,3-7.16,7.5-3.06,17.25-4.89,34.58-4.44,52.09.26,9.7,1.1,19.38,1.66,29.07.29,5.1,2.42,7.91,7.9,9.21,17.26,4.12,34.31,9.16,51.57,13.3,12,2.88,24.37,3.05,36.63,3.52a53.74,53.74,0,0,1,23.24,5.93c12,6.24,24.41,11.84,36.37,18.24a57.48,57.48,0,0,0,28,6.56q39.81-.15,79.62,0l21.08.05c28.48-.14,57-.28,85.44-.09a45.51,45.51,0,0,0,22.28-5.34c13.1-6.95,26.55-13.26,39.68-20.18,6.49-3.42,13.28-4.7,20.46-5.1,13.56-.75,27.26-.55,40.51-3.82,16.59-4.09,33-9,49.56-13.24,4.5-1.14,6.4-3.35,6.92-7.87a284.69,284.69,0,0,0-2.33-83.09c-.57-3.23-2-5.45-5.29-6.12-20.54-4.26-40.24-12-61.18-14.56-9.94-1.2-19.91-2.3-29.9-3.08-8-.63-14.91-3.52-21.51-7.93-11-7.36-22.38-14.2-33.4-21.55-6.72-4.47-13.75-7-21.88-6.16a38.5,38.5,0,0,1-6.79,0c-7-.55-8-1.79-8.45-9a6.28,6.28,0,0,1,0-1c1.61-23.85-1.15-22.77-15.47-39.46-.42-.5-.83-1-1.25-1.49-7-8.28-7-8.29-1.8-17.92a63.16,63.16,0,0,0,7.25-24.94c.19-2.14.71-4.73-2.81-5-3.21-.22-4.59,1.07-4.76,4.43a35.88,35.88,0,0,1-7,20.35c1.14-19.53-3.64-38.13-7.59-57.61l18.64,1.69c0,3.87,0,7.59,0,11.31,0,2,.17,4.06,2.76,4.33,2.23.24,3.41-.88,4.14-3.07,1.27-3.74-1.55-9.49,3.5-11.05,3.76-1.17,8.3.08,12.48.42,41.59,3.31,83.22,6.13,124.74,10.18,26.67,2.6,53.1,7.5,79.49,12.3,1.9.35,3.82.67,5.74.94,11.3,1.54,19.74-2.6,24.44-13.07,2-4.56,4.12-7.91,9.88-6.44,1.11.28,2.66.15,3-1.63a3.62,3.62,0,0,0-1.4-3.39c-1.61-1.46-5-1.61-4.82-4.17a38.63,38.63,0,0,1,2.89-10.19c1.23-3.21,3.66-1.47,5.72-.87q20.93,6.06,41.85,12.14c6.51,1.89,12.9,4.29,19.51,5.7,4.14.89,4.33,2.83,3.55,6.1-1.49,6.27-3.06,12.54-4.25,18.88-2.56,13.44,1.81,21.74,14.59,26.85,10.18,4.08,20.56,7.68,31,11.16,6.38,2.14,11.16,5,9.8,12.86a10.42,10.42,0,0,0,.47,3.83,2.86,2.86,0,0,0,2.55,2.49c2.06.17,2.71-1.17,3-2.93.49-2.83,1.08-5.64,1.74-9.09a99.48,99.48,0,0,1,46,27.68c31.83,33.69,41.46,72.94,26.05,117.17-15.18,43.58-31.06,86.9-46.6,130.36q-12.22,34.17-24.27,68.35c-3-.27-4.93-3.25-7.8-2.91-1.85,2.35-1.27,4.7-1.13,6.81.92,14.5-2,28.2-7.47,41.59-4.41,10.73-7.84,21.87-12.1,32.68-26.7,67.65-94.83,109.66-167,102.79a201.49,201.49,0,0,1-39.78-8.18,2.65,2.65,0,0,1-3.16-1c-15.21-3-30.4-6-45.62-8.87-39.74-7.49-79.82-12.54-120.06-16.4C1028.87,729.66,1025.29,729.81,1021.73,729.77ZM809.41,439.49c0-31.07.25-62.15-.17-93.2-.1-7.13,2.18-11.11,8.28-14.57,10.66-6.06,20.78-13.09,31.15-19.66,2.41-1.53,5-2.85,7.52-4.29,2.39,6.82,3.18,152.68,1,174.24-15.35-7.62-29.73-14.86-44.22-21.87-2.85-1.38-3.64-3.26-3.58-6.09C809.45,449.2,809.41,444.34,809.41,439.49Zm-48-90c-.13-4.78.86-7,6.16-7.32,10.95-.65,21.85-2,34.08-3.18V356.7q0,46.11-.12,92.22c0,7.26-.18,7.37-7.55,7q-11.62-.54-23.24-1.49c-9.51-.76-9.5-.84-9.38-10.81.18-15.85.51-31.7.52-47.55C761.93,380.57,761.85,365,761.43,349.51Zm-8-4.51V451.48c-16-2.75-30.78-7.88-45.91-11.71-3.23-.81-4.35-3.16-4.65-6.48-2.22-23.93-2-47.77,1.9-71.55.57-3.42,1.93-5,5.23-5.79C724.1,352.53,738.14,348.88,753.44,345Zm377.3,26.07c0,26.19,0,52.38.35,78.56.1,6.24-1.45,9.73-7.66,12.42-13.26,5.74-26,12.67-40.29,19.79V307.52c7.13,2.94,12.37,7.2,18,10.65,7.73,4.7,15.07,10.06,23,14.32,5.39,2.88,7.1,6.66,6.86,12.4C1130.69,353.6,1130.73,362.34,1130.74,371.07Zm48.16-13.16q0,44.55,0,89.1c0,6.75-.11,6.8-6.66,7.21-10.58.67-21.18,1.27-32.51,1.94v-117c11.92,1.14,23.36,2.31,34.81,3.3,3.16.26,4.61,1.47,4.42,4.77C1178.76,350.81,1178.9,354.36,1178.9,357.91Zm8,93.91V344.64c15.33,3.94,29.64,7.7,44,11.22,3.15.77,3.78,2.56,4.29,5.37a235.31,235.31,0,0,1,1.86,72.34c-.48,3.74-2.06,5.76-5.71,6.7C1216.66,444,1202,447.86,1186.86,451.82Zm562.8-12.51c-4,37.19-37,69.21-74.7,72.94a165.68,165.68,0,0,1-26.17.86c-4.48-.26-6.17-2-6.09-6.54.3-15.53-.38-31.1.56-46.58.79-13.4-9.53-25.25-19.22-28.56-12.37-4.2-24.25-1.23-32.45,10.56-5.92,8.5-12.67,11.49-22.65,10.78-10.3-.72-20.71.25-31-.13-12.87-.48-20.55,5.53-24.8,17.36-7.63,21.27-15.59,42.42-23.51,63.59-17,45.35-33.84,90.73-51.07,136-15.3,40.22-40.56,72.8-77.28,95.55-38.7,24-80.71,33.77-126.14,26.42-11.33-1.26-22.47-3.29-33.15-7.49l-19.38-4.22c-14.89-3-30-4.93-44.62-9.29-14-1.92-28-3.61-41.82-6.7l-14.28-2c6.81-2.08,11.35-1.15,15.91-.19,5.75.65,11.52,1.4,17.29,1.92,2.89.26,6.68,2.37,7.62-2.86,1.1-6.18-4.07-5-7-5.29-9.63-1.12-19.33-1.84-29-2.4-7.39-.42-7.41-.2-7.32,8.58-7-.95-14-.85-20.75-3.07-.6-1.32-.64-2.52.78-3.28a2.68,2.68,0,0,0,1.52-3.46,104.38,104.38,0,0,0-25.68-2.49c-5.25.18-8.55-1-9.16-6.79-.15-1.44-1.49-2.75-2.69-4.81,10.44-.87,20.22,1,29.84,2.26,33.31,4.51,66.69,8.63,99.71,15.06,23.46,4.58,46.84,9.58,70.27,14.31,72.9,14.69,144-17.18,181.36-81.12,6.22-10.67,10.6-22.12,14.84-33.64,3.9-10.58,7.9-21.06,12.56-31.39,4.58-10.14,6.39-21.56,10.22-32.2q30.36-84.3,60.33-168.72c5-14,10-28,14.47-42.13,18-57.11-12.36-123.7-72.53-145.73-1.82-.67-3.58-1.52-5.44-2-3.41-.91-4.67-3.08-4.34-6.46.15-1.61,0-3.25.19-4.85.93-6.71.44-12.67-7.25-15.33-.38-.13-.46-1.14-.68-1.75-12.92-7-27.16-9.3-41.81-12.91.33,6.19,4.14,7.4,7.66,8.59,9.47,3.24,18.87,6.77,28.55,9.19,4.77,1.18,6.7,2.79,6,7.62-.5,3.43.53,7-1,10.37-3.65,1.32-6.27-1.28-9.19-2.27-9.16-3.11-18.34-6.25-27.25-10-10.48-4.4-14.3-17.47-8.39-26.93,1.32-2.11,3.11-1.95,5.06-1.31,14.36,4.77,29,8.67,42.86,14.89,39.37,12.56,77.64,28,115.92,43.47,58.55,23.59,113.53,54.32,168.75,84.57,9.35,5.12,18.59,10.44,28,15.54,5.59,3,8.59,7.3,8.64,13.93C1750.9,385.64,1752.51,412.53,1749.66,439.31ZM1034.82,278.4c-1.94,0-3.89-.11-5.82-.12q-25.26-.16-50.51-.28l-15.69.07c-17.8.06-35.61,0-53.41-.07h-6.8c-2.24,0-3.66.77-3.68,3.31s.27,4.61,3.45,4.62c2.26,0,4.52-.05,6.79-.05l55.35-.09,18.47,0c14.89-.24,29.79-.25,44.68-.37,2.58,0,5.17-.23,7.75-.39,1.92-.13,2.8-1.21,2.9-3.11C1038.42,279.37,1037.15,278.41,1034.82,278.4ZM932.56,255.83c2.81,2.27,6.13,3.55,9.46,4.8,7,2.64,14.21,4.73,21.67,4.81l14.55.08c8.38-1,16.6-2.7,24.2-6.54,3.71-1.87,7.25-4.09,9.14-9.08-7.64-1.75-13,3.4-19.19,4.85s-12.4,3.58-19.29,3.45a151.23,151.23,0,0,1-15.69-1c-7.63-1.5-14.8-4.49-22.08-7.15-1.67-.6-4.35-3.13-5.72.29C928.63,252.84,930.83,254.44,932.56,255.83Zm102.26,22.57c-1.94,0-3.89-.11-5.82-.12q-25.26-.16-50.51-.28l-15.69.07c-17.8.06-35.61,0-53.41-.07h-6.8c-2.24,0-3.66.77-3.68,3.31s.27,4.61,3.45,4.62c2.26,0,4.52-.05,6.79-.05l55.35-.09,18.47,0c14.89-.24,29.79-.25,44.68-.37,2.58,0,5.17-.23,7.75-.39,1.92-.13,2.8-1.21,2.9-3.11C1038.42,279.37,1037.15,278.41,1034.82,278.4Zm-42.43-23.65c-6.28,1.47-12.4,3.58-19.29,3.45a151.23,151.23,0,0,1-15.69-1c-7.63-1.5-14.8-4.49-22.08-7.15-1.67-.6-4.35-3.13-5.72.29-1,2.46,1.22,4.06,2.95,5.45,2.81,2.27,6.13,3.55,9.46,4.8,7,2.64,14.21,4.73,21.67,4.81l14.55.08c8.38-1,16.6-2.7,24.2-6.54,3.71-1.87,7.25-4.09,9.14-9.08C1003.94,248.15,998.57,253.3,992.39,254.75Zm0,0c-6.28,1.47-12.4,3.58-19.29,3.45a151.23,151.23,0,0,1-15.69-1c-7.63-1.5-14.8-4.49-22.08-7.15-1.67-.6-4.35-3.13-5.72.29-1,2.46,1.22,4.06,2.95,5.45,2.81,2.27,6.13,3.55,9.46,4.8,7,2.64,14.21,4.73,21.67,4.81l14.55.08c8.38-1,16.6-2.7,24.2-6.54,3.71-1.87,7.25-4.09,9.14-9.08C1003.94,248.15,998.57,253.3,992.39,254.75Zm42.43,23.65c-1.94,0-3.89-.11-5.82-.12q-25.26-.16-50.51-.28l-15.69.07c-17.8.06-35.61,0-53.41-.07h-6.8c-2.24,0-3.66.77-3.68,3.31s.27,4.61,3.45,4.62c2.26,0,4.52-.05,6.79-.05l55.35-.09,18.47,0c14.89-.24,29.79-.25,44.68-.37,2.58,0,5.17-.23,7.75-.39,1.92-.13,2.8-1.21,2.9-3.11C1038.42,279.37,1037.15,278.41,1034.82,278.4Z"/><path class="cls-1" d="M1507.42,384.8c-15.18,43.58-31.06,86.9-46.6,130.36q-12.22,34.17-24.27,68.35c-3-.27-4.93-3.25-7.8-2.91-1.85,2.35-1.27,4.7-1.13,6.81.92,14.5-2,28.2-7.47,41.59-4.41,10.73-7.84,21.87-12.1,32.68-26.7,67.65-94.83,109.66-167,102.79a201.49,201.49,0,0,1-39.78-8.18,2.65,2.65,0,0,1-3.16-1c-15.21-3-30.4-6-45.62-8.87-39.74-7.49-79.82-12.54-120.06-16.4-3.53-.34-7.11-.19-10.67-.23-5.15-.07-8.2,3.08-10.92,7,0,0-20.82,13.93-41.41,13.93-24.77,0-41.75-16.49-41.75-16.49-.56-.78-1.11-1.56-1.66-2.35-6.7-3.61-13.86-2.46-20.85-1.69-43.9,4.83-87.72,10.37-131,19.14-19.25,3.91-38.39,8.35-57.62,12.42-12.34,2.62-24.8,4-37.44,2.8a10.45,10.45,0,0,1-6.16-.37,12.6,12.6,0,0,1-9.6-1l-7.3-.79c-1.64.34-3.16.28-4.32-1.15-21.49-3.26-40.85-11.87-58.72-23.89-29.06-19.54-49.77-45.78-61.89-78.7q-6.51-17.71-12.94-35.48c-3.79-10.43-6.05-21.1-5.41-32.27.18-3.19,0-6.4,0-9.21-3.92-2.79-5.46,1.51-7.81,1.86-.76-.65-1.47-1-1.64-1.44-23.4-65.33-46.94-130.62-70-196-15.14-42.85-6.82-81.48,23-115.4,13.05-14.82,29.53-24.66,48.4-30.72,2.31,3.08,1.2,6.1,1.71,8.81.43,2.29,1.53,3.41,3.88,3.27,2-.13,3.18-1.37,2.76-3.11-3-12.87,6.7-14.61,15.09-17.59,7.91-2.81,15.85-5.5,23.66-8.56,14.29-5.62,19.24-14.85,16.09-29.84-1.47-6.92-3.27-13.77-5.09-21.38,7.36-2.23,14.62-4.49,21.92-6.64,14.24-4.19,28.56-8.14,42.72-12.59,4.46-1.4,6.87-1.93,8.26,3.82,1.12,4.64,3.31,8.5-2.67,11.13a3.26,3.26,0,0,0-1.61,3.55c.57,1.75,2.4,1.79,3.84,1.5,3.78-.77,5.77.44,7.42,4.1,7.58,16.78,17,17,31.72,14.81,15-2.21,30-5,44.91-7.63,27.43-4.88,55.17-6.9,82.89-9.18s55.46-4.32,83.16-6.93c5.13-.47,8-.26,8.13,5.65,0,2.21,1,4.41,1.51,6.61.49,1.9,1.86,2.43,3.66,2.28,2.1-.17,2.5-1.69,2.66-3.37.35-3.93-2.69-7.29-1.86-12l21-1.86c-4,19.5-9.38,37.94-8.28,57.37-3.82-4.5-5.23-9.62-6-15-.27-1.91-.85-3.79-1.07-5.71-.3-2.51-1.09-4.57-4-4.37-3.73.27-3.62,3.19-3.33,5.78a59.52,59.52,0,0,0,6.45,22.19,50.5,50.5,0,0,0,3.94,6.68c2.34,3.11,2,5.51-.58,8.41-5.21,5.76-9.88,12-15.09,17.75-3.91,4.33-5.86,9-5.48,14.93a112.31,112.31,0,0,1-.11,14.56c-.49,7.11-1.86,8.36-8.72,9a7.88,7.88,0,0,1-1.93.11c-13.54-2.25-24.36,3.56-34.91,11.07-8.95,6.36-18.46,11.92-27.74,17.82-5.53,3.5-11.38,6.17-18,6.38-31,1-60.51,9.25-90.15,17.21-4.45,1.21-6.36,3-7.16,7.5-3.06,17.25-4.89,34.58-4.44,52.09.26,9.7,1.1,19.38,1.66,29.07.29,5.1,2.42,7.91,7.9,9.21,17.26,4.12,34.31,9.16,51.57,13.3,12,2.88,24.37,3.05,36.63,3.52a53.74,53.74,0,0,1,23.24,5.93c12,6.24,24.41,11.84,36.37,18.24a57.48,57.48,0,0,0,28,6.56q39.81-.15,79.62,0l21.08.05c28.48-.14,57-.28,85.44-.09a45.51,45.51,0,0,0,22.28-5.34c13.1-6.95,26.55-13.26,39.68-20.18,6.49-3.42,13.28-4.7,20.46-5.1,13.56-.75,27.26-.55,40.51-3.82,16.59-4.09,33-9,49.56-13.24,4.5-1.14,6.4-3.35,6.92-7.87a284.69,284.69,0,0,0-2.33-83.09c-.57-3.23-2-5.45-5.29-6.12-20.54-4.26-40.24-12-61.18-14.56-9.94-1.2-19.91-2.3-29.9-3.08-8-.63-14.91-3.52-21.51-7.93-11-7.36-22.38-14.2-33.4-21.55-6.72-4.47-13.75-7-21.88-6.16a38.5,38.5,0,0,1-6.79,0c-7-.55-8-1.79-8.45-9a6.28,6.28,0,0,1,0-1c1.61-23.85-1.15-22.77-15.47-39.46-.42-.5-.83-1-1.25-1.49-7-8.28-7-8.29-1.8-17.92a63.16,63.16,0,0,0,7.25-24.94c.19-2.14.71-4.73-2.81-5-3.21-.22-4.59,1.07-4.76,4.43a35.88,35.88,0,0,1-7,20.35c1.14-19.53-3.64-38.13-7.59-57.61l18.64,1.69c0,3.87,0,7.59,0,11.31,0,2,.17,4.06,2.76,4.33,2.23.24,3.41-.88,4.14-3.07,1.27-3.74-1.55-9.49,3.5-11.05,3.76-1.17,8.3.08,12.48.42,41.59,3.31,83.22,6.13,124.74,10.18,26.67,2.6,53.1,7.5,79.49,12.3,1.9.35,3.82.67,5.74.94,11.3,1.54,19.74-2.6,24.44-13.07,2-4.56,4.12-7.91,9.88-6.44,1.11.28,2.66.15,3-1.63a3.62,3.62,0,0,0-1.4-3.39c-1.61-1.46-5-1.61-4.82-4.17a38.63,38.63,0,0,1,2.89-10.19c1.23-3.21,3.66-1.47,5.72-.87q20.93,6.06,41.85,12.14c6.51,1.89,12.9,4.29,19.51,5.7,4.14.89,4.33,2.83,3.55,6.1-1.49,6.27-3.06,12.54-4.25,18.88-2.56,13.44,1.81,21.74,14.59,26.85,10.18,4.08,20.56,7.68,31,11.16,6.38,2.14,11.16,5,9.8,12.86a10.42,10.42,0,0,0,.47,3.83,2.86,2.86,0,0,0,2.55,2.49c2.06.17,2.71-1.17,3-2.93.49-2.83,1.08-5.64,1.74-9.09a99.48,99.48,0,0,1,46,27.68C1513.2,301.32,1522.83,340.57,1507.42,384.8Z"/><path class="cls-2" d="M1443.64,349.12c-6.17-2.78-10.43-5.69-10.05-13,.08-1.73.28-4.24-2.58-4.23-3.06,0-3.42,2.37-3.54,4.74a12.46,12.46,0,0,0,0,1.93c.53,4.72-1,6.61-6.29,6.95A35.5,35.5,0,0,0,1397.31,357c-10.67,11.27-14,24.83-9.94,39.43,4.4,16,15.61,25.7,32,28.83,5.16,1,9.36,1.7,8.32,8.52-.33,2.13.23,4.78,3.49,4.62,2.73-.14,2.86-2.61,2.73-4.29-.54-7.19,4-9.43,9.65-12,15.51-7.17,23.51-19.56,23.21-37C1466.48,368.38,1458.85,356,1443.64,349.12ZM1427,416.59c-.69,3.7-4.08,1.94-6.39,1.43-16.52-3.61-27-16.56-26.85-33.06.13-15.43,12.16-29.77,27-32.1a20.89,20.89,0,0,1,4.8-.26,1.66,1.66,0,0,1,1.72,1.85c-.06,1-.39,1.89-1.39,2.19-2.46.72-5,1.2-7.43,2-13,4.39-20.71,15.44-20,28.58.73,13.31,9.45,23.1,23.13,25.95C1423.8,413.67,1427.7,412.66,1427,416.59Zm6.56-20.76a2.73,2.73,0,0,0-3-1.94c-1.53.08-2.19,1.17-2.52,2.45-.23.94-.22,1.92-.38,2.87-1.15,7.09-2.72,8.07-9.11,5.35-7.49-3.16-11.55-9-12.46-17-.88-7.7,2-13.86,8.21-18.46a23.33,23.33,0,0,1,11.34-4.37c2.53,2.76,1.09,5.89,1.87,8.58.57,2,1.3,3.75,3.63,3.74,2,0,2.53-1.75,3-3.28.52-1.82.81-3.71,1.21-5.63,15.17,6.93,15.57,24.52.1,35.71C1434.69,400.72,1434.22,398.24,1433.52,395.83Zm1.25,21c-.24-4.21,3.39-4.94,5.7-6.54,8.13-5.66,13.35-13,13.79-23.2.47-11-4.24-19.17-12.85-25.66-2.59-2-7-2.38-7.18-7.92,15.92,5.45,24.64,17.87,24.81,32.88C1459.17,398.94,1447.48,415.55,1434.77,416.83Z"/><path class="cls-2" d="M1368.42,187.78c-.44,1.67-1.46,3.57-4.45,2.57-1.82-.61-3.57-1.44-5.37-2.1-9.66-3.53-19.5-6.53-29.72-7.89-3.57-.48-4.32-2.34-3.82-5.21.55-3.22,2.77-2.58,5.18-2.17,12.08,2,23.47,6.39,35.06,10.08C1367.09,183.62,1369.08,184.39,1368.42,187.78Z"/><path class="cls-2" d="M1434.31,311.67c-.08,2.33-1.23,3.61-3.54,3.58s-3.29-1.54-3.28-3.81c0-6.13,0-12.27,0-18.42h.29q0-9.21,0-18.42c0-2,.46-4.15,2.73-4.46,2.44-.34,3.24,1.65,3.37,3.74C1434.7,286.47,1434.7,299.07,1434.31,311.67Z"/><path class="cls-2" d="M1434.25,497.71c0,2.3-.94,3.82-3.18,4-3.27.29-3.49-2.14-3.5-4.51,0-6.14,0-12.29,0-18.43h.24c0-5.81,0-11.63,0-17.45,0-2.33.28-4.88,3.32-4.8,2.48.05,2.73,2.4,2.75,4.34C1434,473.15,1434.1,485.44,1434.25,497.71Z"/><path class="cls-2" d="M1434.5,536.93c0,7.41-.26,14.83-.44,22.23,0,2-.41,4.05-3,4.13-3,.11-3.63-1.95-3.62-4.49,0-6.13,0-12.26,0-18.39s0-12.26,0-18.39c0-1.55,0-3.35,2.16-3.62s3.84.81,4,3.08C1434.1,526.62,1434.48,531.78,1434.5,536.93Z"/><path class="cls-2" d="M520.28,345.59c-5.89-.71-8.11-2.44-7.69-8a10.19,10.19,0,0,0-.33-2.89c-.28-1.25-.64-2.52-2.31-2.62a2.84,2.84,0,0,0-2.94,2,5.24,5.24,0,0,0-.44,2.84c1.44,7-2.78,9.16-8.43,11.53C482.26,355,474,368,473.46,384.69c-.55,16.9,7.61,30,23.17,37.18,6.12,2.83,10.7,5.36,9.91,13a3.07,3.07,0,0,0,3.55,3.56c2.15-.13,2.61-1.87,2.48-3.46-.59-7.18,3.53-8.9,9.75-10,19.78-3.52,32.64-19.7,32.47-39.88C554.61,365.44,539.81,347.94,520.28,345.59ZM481.43,387.2c-.44-16.06,8.63-28.46,24.95-33.17-.92,5.29-5.09,5.82-7.71,7.87-11.91,9.27-15.95,24.73-9.45,37.15a25.21,25.21,0,0,0,10.66,11c2.76,1.46,5.55,2.93,6.27,6.71A31.3,31.3,0,0,1,481.43,387.2Zm29.37,7.35c-4.59-1-4.13,3.62-4.92,6.59-.65,2.44-2.35,2.81-4.39,1.42-9.83-6.64-10.06-25.9-.33-33.25,2.4-1.81,4.8-2.48,5.22,1.87A12.44,12.44,0,0,0,507,375a3,3,0,0,0,3,2,2.77,2.77,0,0,0,2.66-2.36c.7-3.1,1.21-6.22,1.92-10a21,21,0,0,1,12.13,5c6.29,5.44,9.47,12.22,7.32,20.59-2.2,8.63-8.2,13.42-16.64,15.66-3.65,1-4.54-.52-4.7-3.74C512.57,399.41,514.16,395.28,510.8,394.55Zm6.3,24.25c-1.35.29-2.7.18-3.23-1.22a2.74,2.74,0,0,1,1.83-3.83c1.5-.51,3.2-.37,4.78-.71a27.55,27.55,0,0,0,21-22.71c1.83-12.83-3.23-23.93-14-29.4-4.7-2.38-9.9-3.79-14.87-5.64,10.39-3.82,18.23.8,24.73,7.84,8.69,9.38,12.4,20.37,7.68,33C540.22,409.05,530.3,416,517.1,418.8Z"/><path class="cls-2" d="M611.91,180.1c-10.91,1.43-21.11,5.26-31.22,9.36a30.15,30.15,0,0,1-3.59,1.38c-2.89.77-4-1-4.78-3.41s.13-3.87,2.25-4.5c12.56-3.75,24.87-8.38,37.23-10.79,2.63-.68,3.55.36,3.66,2.26C615.61,177.09,615.46,179.64,611.91,180.1Z"/><path class="cls-2" d="M513,311.07c.09,2.93-1.08,4.22-3.89,4.1s-2.83-2.16-2.83-4.13q.06-17.93.18-35.86c0-2.4.38-4.72,3.67-4.35,2.64.3,2.62,2.48,2.64,4.38.07,6.13,0,12.27,0,18.42h.16C512.92,299.44,512.79,305.26,513,311.07Z"/><path class="cls-2" d="M512.86,497.26c0,2.63-.55,4.5-3.64,4.32-2.57-.17-3-2-3-4.07q.09-18.36.19-36.73c0-2.19.8-3.8,3.38-3.55,1.92.2,2.73,1.49,2.74,3.3,0,6.12,0,12.24,0,18.37h.24C512.83,485,512.77,491.14,512.86,497.26Z"/><path class="cls-2" d="M509.47,563c-4.34-.31-3.12-4.15-3.16-6.82-.12-7.75-.07-15.48-.06-23.23,0-3.22-.05-6.45.11-9.66.09-2.07-.69-4.83,2.81-5,3.35-.16,3.44,2.33,3.47,4.6.08,6.45,0,12.9,0,19.35h.11c0,4.83.2,9.68-.09,14.5C512.55,559.16,514.43,563.41,509.47,563Z"/><path class="cls-2" d="M1497.41,482.73c-3,12.4-7.73,24.7-12.6,36.95a2.8,2.8,0,0,1-4,1.54c-1.41-.62-3.13-1.28-3.22-3.19a9.72,9.72,0,0,1,.46-3.8c4-10.85,8.12-21.68,12.21-32.5a18.61,18.61,0,0,1,.94-1.69c.92-1.8,2.09-3.54,4.39-2.77S1497.33,480.36,1497.41,482.73Z"/><path class="cls-2" d="M1483.7,233.2c-.11,2.08-1.28,3.22-3.06,3a13,13,0,0,1-4.47-1.64c-9-4.88-18-10-27.38-14.11a11.8,11.8,0,0,1-3.87-2.79c-1.3-1.43-2.36-3.38-1-5.21,1.06-1.45,2.85-1,4.44-.5a99.16,99.16,0,0,1,32.31,16.71C1482.14,229.84,1483.63,231.18,1483.7,233.2Z"/><path class="cls-2" d="M1496.54,245.15c2.49-.15,4.27,1.1,5.83,2.89a200.58,200.58,0,0,1,19.85,27.47c1.26,2.06,2.87,4.76-.36,6.73-2.78,1.68-5.13.62-6.56-1.94-5.72-10.2-13-19.28-20.06-28.52C1492.5,248.2,1493.33,245.46,1496.54,245.15Z"/><path class="cls-2" d="M1273.1,789.4a46.66,46.66,0,0,1-5.39,0c-2.46-.26-5.71,0-5.54-3.78.13-3.06,2.86-3.12,5.09-3.17a100.48,100.48,0,0,0,17.3-2c5.38-1,10.79-2,16.12-3.23,3-.71,5.31-.25,6.16,2.8s-1.72,3.63-3.85,4.38C1293.45,787.7,1283.56,789,1273.1,789.4Z"/><path class="cls-2" d="M1461,578.83c-2.28-.54-4.67-1.17-3.69-4.32a379.78,379.78,0,0,1,13-36.18c.61-1.44,1.8-2.76,3.73-1.79,1.44.73,3,1.66,2.93,3.47a16.4,16.4,0,0,1-1,4.64c-3.42,10-6.85,20-10.38,30C1464.8,576.71,1464,579,1461,578.83Z"/><path class="cls-2" d="M1416.56,694.94c-3.93.21-5.56-1.74-3.7-5.13a167.55,167.55,0,0,0,13.35-32c.93-3.1,2.89-4.15,5.83-3.33,3.11.87,2.43,3,1.76,5.39-3,10.89-7.63,21.19-12.21,31.48C1420.62,693.48,1419.35,695.26,1416.56,694.94Z"/><path class="cls-2" d="M1498.7,455.1c3.92-10.87,8-22.37,12.23-33.85.75-2.05,2.23-3.19,4.49-2.22,1.87.81,3.28,2.16,3,4.42a19.09,19.09,0,0,1-1,3.69q-4.75,13.68-9.55,27.34a22.33,22.33,0,0,1-1.55,3.54c-1.06,1.93-1.91,4.41-4.9,3.49S1499,458.1,1498.7,455.1Z"/><path class="cls-2" d="M1362.06,756.08c.13,1.51-1.15,3-2.74,4.11a128.32,128.32,0,0,1-31.79,16.25c-2,.74-3.87.42-4.7-1.9a4.24,4.24,0,0,1,1.36-5.2,3.7,3.7,0,0,1,.84-.49A352.8,352.8,0,0,0,1357.12,753C1359.62,751.55,1361.45,752.35,1362.06,756.08Z"/><path class="cls-2" d="M1407.33,712.45a33.86,33.86,0,0,1-1.62,3.06,114.32,114.32,0,0,1-23.06,26c-2,1.64-4.05,3.61-6.65.94s-1-4.84,1-6.66a275.71,275.71,0,0,0,23.1-24.75c1.19-1.43,2.82-2.84,5-1.89A3.72,3.72,0,0,1,1407.33,712.45Z"/><path class="cls-2" d="M1182.52,776.76c-14.52-1.07-28.59-4.33-42.43-8.71-.4-2.93-1.09-6,3.67-5.58,12.71,1.13,25.12,4,37.49,6.88C1186.3,770.53,1184.14,773.92,1182.52,776.76Z"/><path class="cls-2" d="M1538.42,331.58c0,2.57.07,5.13,0,7.7-.07,1.94-.25,4-3,3.86a3.53,3.53,0,0,1-3.75-3.53,313.88,313.88,0,0,0-5.42-38c-.24-1.17-.33-2.66,1.35-3.06,1.47-.35,2.4.6,3.06,1.75C1536.25,310,1538.48,320.49,1538.42,331.58Z"/><path class="cls-2" d="M1519,402.51c4.56-13,8.73-26.16,11.09-39.8.36-2.1,1-3.82,3.55-3.53s3,2.27,2.76,4.27c-1.32,13.3-5.12,26-10.4,38.17C1524.69,404.59,1521.91,404.23,1519,402.51Z"/><path class="cls-2" d="M1454.92,599.67c-2.27,6.86-4.37,13.64-6.75,20.32-1.94,5.48-4.18,10.84-6.34,16.24-.48,1.21-1.25,2.31-2.82,2s-2-1.53-2.09-2.84a10.27,10.27,0,0,1,.18-3.84q5.73-16.94,11.67-33.81c.62-1.77,1.52-4,4-3.12S1454.15,597.92,1454.92,599.67Z"/><path class="cls-2" d="M1242.76,789c-11.82.61-23.19-1.85-34.44-5.07-2.1-.6-3.93-2.12-6.3-1.81-2.25-2.89-4.06-6.32,1.9-5.64,8.17.93,16.2,3,24.3,4.55,4.68.86,9.48,1.2,14.08,2.36S1245.92,786.82,1242.76,789Z"/><path class="cls-2" d="M1434.43,646.64c0,2.3-1.57,3.19-3.67,3.46-1.62.2-3.27.3-3.33-2.1,0-2.14.9-4.28,2.71-4.66S1433.85,644.23,1434.43,646.64Z"/><path class="cls-2" d="M442.78,480.88c-.13-1.8.52-3.33,2.26-3.79a2.9,2.9,0,0,1,3.23,1.54,47.48,47.48,0,0,1,2.84,5.05,265.74,265.74,0,0,1,11.43,31.83c.52,1.82,1.93,3.72-.81,4.75-2.55,1-5.56,1.32-6.7-1.74C450.45,506.14,445.23,494,442.78,480.88Z"/><path class="cls-2" d="M483.25,575.63c-.05,3.23-1.89,3.54-4,3.28-3.1-.38-4-3.06-4.93-5.36A282.91,282.91,0,0,1,464,542.62a12.29,12.29,0,0,1-.58-3.77,2.82,2.82,0,0,1,2.07-2.89c1.59-.34,3.21-.57,4.12,1.27a42.83,42.83,0,0,1,2,4.37q5.32,14.92,10.54,29.87C482.64,573,483,574.55,483.25,575.63Z"/><path class="cls-2" d="M426.17,418.73c2.34-.39,2.68,1.45,3.3,2.81,5.1,11.13,8.41,22.9,12.36,34.44.95,2.79-.46,4.34-2.85,5.14-2.19.73-3.73-.3-4.53-2.39-2.31-6-4.73-12-6.85-18-1.91-5.44-3.58-11-5.17-16.53C421.52,421,423.41,419.43,426.17,418.73Z"/><path class="cls-2" d="M511.41,654.19c1.65.08,2.31,1.35,2.83,3a216.1,216.1,0,0,0,13,32.11c1.1,2.25,1.45,4.29-1.6,5.4-2.63,1-4.79,1.36-6.33-1.88-5-10.46-9.6-21.05-12.6-32.25C505.59,656.49,507.68,653.81,511.41,654.19Z"/><path class="cls-2" d="M666.91,789.37c-9.79-.8-19.77-1.47-29.34-4.87-2.25-.8-4.67-1.65-4.25-4.35.54-3.48,3.47-3.17,6.13-2.67,11.74,2.2,23.5,4.33,35.48,4.85,1.53.07,3.56,0,3.62,2.22.07,2.41-.92,4.54-3.69,4.78C672.29,789.54,669.69,789.37,666.91,789.37Z"/><path class="cls-2" d="M446.42,247.53c.12,1.83-.84,3.13-1.77,4.46q-9.7,13.86-19.42,27.71a10,10,0,0,1-2.56,2.84,3.85,3.85,0,0,1-4.53-.2,3.19,3.19,0,0,1-1.18-3.46,21.4,21.4,0,0,1,2.32-5.24,205.1,205.1,0,0,1,18.5-24.8,15,15,0,0,1,4.31-3.76C444.28,244,445.58,245.72,446.42,247.53Z"/><path class="cls-2" d="M496.77,211.59c1.16,4.71-1.63,6.45-4.42,8-9.61,5.17-19.26,10.24-28.92,15.31a10.33,10.33,0,0,1-3.6,1.23,3.68,3.68,0,0,1-2.51-1,2.44,2.44,0,0,1-.13-3.45,7.93,7.93,0,0,1,1.28-1.43C469.66,220.9,481.91,213.84,496.77,211.59Z"/><path class="cls-2" d="M562.76,743.79c-1.72,0-3-1-4.19-2.09-8.89-7.47-16.94-15.72-23.27-25.51-1.15-1.78-3.17-3.81-.89-5.94,2.47-2.31,4.82-1.07,6.56,1.2,6.67,8.67,14.26,16.5,21.89,24.31,1.34,1.37,2.63,2.87,2.74,4.93S564.68,743.65,562.76,743.79Z"/><path class="cls-2" d="M407.29,359.64a3.13,3.13,0,0,1,3.19,3c2,13.08,5.85,25.64,10.38,38a2.14,2.14,0,0,1-.43,2.64,3.07,3.07,0,0,1-3.57.12c-2.91-1.7-4.28-4.71-5.61-7.59-4.63-10.08-5.45-21.08-7.56-31.76C403.12,361.18,404.53,359.84,407.29,359.64Z"/><path class="cls-2" d="M401.69,332.63A140.49,140.49,0,0,1,405.46,307a45.92,45.92,0,0,1,2.1-6.39c.92-2.16,2.92-2.36,4.88-1.81,2.11.6,1.66,2.35,1.36,3.93-.55,2.83-1.12,5.66-1.64,8.5-1.58,8.52-3.1,17-3.14,25.76,0,2.8.47,6.41-4,6.12-4.25-.28-3.44-3.83-3.52-6.61C401.49,335.2,401.63,333.91,401.69,332.63Z"/><path class="cls-2" d="M861.76,758.5c-8,3.11-16.86,1.29-24.89,4.26a48.43,48.43,0,0,0-14.29,1.3c-3,.69-4.94-.25-5.38-3.61-.39-3,1.18-4.15,3.7-4.47,12.07-1.54,24.17-2.84,36.36-3.19C861.45,752.67,861.82,755.36,861.76,758.5Z"/><path class="cls-2" d="M799.69,768.43c-11.35,3.65-23.16,5.23-34.77,7.67a17.94,17.94,0,0,1-9.56-.15c-.9-3.34.18-5.84,3.57-6.62,12.16-2.82,24.33-5.62,36.76-7C801.05,761.72,800.49,765,799.69,768.43Z"/><path class="cls-2" d="M581.74,753a21.67,21.67,0,0,1,2.83,1c9.52,4.68,19,9.42,28.53,14.09,1.75.86,3.66,1.53,4.15,3.65a7,7,0,0,1,0,3.75c-.52,1.41-2.1,1.31-3.32.91a131.63,131.63,0,0,1-33.56-16.61,4.78,4.78,0,0,1-1.89-6C578.87,752.93,579.92,752.73,581.74,753Z"/><path class="cls-2" d="M486,598.17c-.08-1.77.58-3.46,2.24-3.83,1.94-.45,2.54,1.43,3.13,2.93q6.95,17.51,12.27,35.57c.57,1.92,1.19,4.1-.87,5.15-3,1.52-3.95-1.22-4.73-3.23-4.05-10.49-8.23-21-11.12-31.85C486.48,601.36,486.27,599.75,486,598.17Z"/><path class="cls-2" d="M737.64,782.39c-14,4.18-27.91,8.52-42.81,6.43-.42-2.79-.12-5.56,3.23-5.86,12.52-1.12,24.47-4.93,36.71-7.35,2-.39,4.16-.21,5,1.84S739.22,781.11,737.64,782.39Z"/><path class="cls-2" d="M509.42,643c2.05,1.2,3.27,2.91,3,5.36-.27,2.14-2,2-3.52,1.9-2.62-.26-2.67-2.19-2.4-4.11A3.86,3.86,0,0,1,509.42,643Z"/><path class="cls-2" d="M1021.44,398.28A51.17,51.17,0,0,1,970,450c-27.75-.22-51.76-23.92-51.15-51.46.62-28.51,21.23-50.45,51.22-51.11C998.16,346.86,1021.33,370.22,1021.44,398.28Zm-81.72-29.76c-5.91,2.65-7.06,8.73-9.39,13.7-7.83,16.71-3,31.74,7,45.86a1.9,1.9,0,0,0,2.52.45c5.31,9.44,15.11,10.79,24.2,13.36,3.27.93,5.46.35,5.57-4,.23-9-.62-9.16-4.76-9.05-8.39.21-16.8-.07-25.2-.14q0-30.2-.07-60.38c7.35,0,14.71.06,22.06,0s10-3.71,8-10.9c-.54-2-1.81-2.63-3.49-2.26C956.22,357.34,946.11,359.27,939.72,368.52Zm60.6,60.58c19.06-17,15.93-43.7,2.54-59.63a2.5,2.5,0,0,0-3.39-.61c1-3.86-2.33-4.83-4.52-6.16-6.64-4-13.73-6.92-21.3-7.48-1.61,1.46-1.58,3.11-1.68,4.71-.54,8.06-.43,8.2,7.4,8.37,6.78.14,13.55.24,20.32.35,2.37,19.9,1.44,39.79-.11,59.68-7.36,1.33-14.78.62-22.18.72-1.9,0-4.26-.34-4.75,2.13-.68,3.42-1.43,7,.31,10.32.27.52,1.76.81,2.53.61C984.78,439.73,994.31,437.74,1000.32,429.1Zm-28.09-30.77h0c0,2.9,0,5.79,0,8.68,0,16.07-.06,15.95,16.35,15.09,3.77-.2,5-1.39,4.9-5.13-.22-8.67,0-17.35,0-26,0-16.5,0-16.5-16.35-15a7.69,7.69,0,0,1-1,0c-2.8-.06-4,1.29-4,4.09C972.29,386.12,972.23,392.23,972.23,398.33Zm-24.69.53h-.09v7.72c0,16.16,0,16,16.61,15,4-.24,5.66-1.12,5.6-5.43-.14-10.93.3-21.87.25-32.8,0-7.61-.23-7.64-8.29-7.69-3.22,0-6.43.25-9.65.19s-4.55,1.38-4.48,4.65C947.64,386.64,947.54,392.75,947.54,398.86Z"/><path class="cls-2" d="M1039.14,399.73c.56,8.28-1.43,17.37-4.87,26.13a59.73,59.73,0,0,1-5,9.3c-1.61,2.59-4.16,4.93-7.13,3.09-2.71-1.67-1-4.6.11-6.93.54-1.17,1.16-2.29,1.75-3.44,10.19-20.19,10-40.18-1-60-1.15-2.07-3.88-4-1.25-6.74,2.86-3,6.1-2.47,8.47,1.31C1036,371.7,1039.09,384.2,1039.14,399.73Z"/><path class="cls-2" d="M969.54,476.58c.24-5.11-1-11,1.14-15.09s8.76-1.91,13.33-3.17c7.84-2.18,15.09-5.52,22.37-8.94,1.53-.72,3.08-1.44,4.22.31a4.1,4.1,0,0,1-.24,4.55c-1.4,2.29-3.62,3.62-5.82,5-7.85,4.84-16.44,7.73-25.6,7.73-5.37,0-7.78,1.41-7.1,6.94.1.79-.59,1.68-.92,2.53Z"/><path class="cls-2" d="M969.47,323.57c.28,4.61,3.52,5.83,7.86,6.05,9.51.47,18.25,3.67,26.61,8a29.28,29.28,0,0,1,6.26,4.47,3.65,3.65,0,0,1,.37,5.22c-1.25,1.57-2.87.9-4.38.25-5.61-2.42-11.15-5.05-16.87-7.17a56,56,0,0,0-11.22-2.79c-8.8-1.31-8.81-1.19-8.63-10.14C969.5,326.15,969.47,324.86,969.47,323.57Z"/><path class="cls-2" d="M901.16,400.29c0-7.69,0-13.8,1.27-19.86.68-3.18,2.52-4.18,5.46-4.18,2.38,0,3.75.73,3.11,3.39-2.93,12.1-2.64,24.27-.78,36.48.31,2.08-.23,4.05-2.67,4.33a4.39,4.39,0,0,1-5.11-3.43C900.74,411,901.32,404.85,901.16,400.29Z"/><path class="cls-2" d="M919.64,434.65a9.43,9.43,0,0,1,2.33,1.68c7.22,9.9,17.48,15.91,27.83,21.82,1.38.79,2.85,2,2.23,3.77-.85,2.51-3.14,2-4.87,1.42-11.79-3.86-22.29-9.82-30.65-19.19-2.64-3-2.62-5.73.54-8.25A13,13,0,0,1,919.64,434.65Z"/><path class="cls-2" d="M950.3,333.63c.21.08,1.87.21,2.37,1,.89,1.48.13,3.11-1.26,4.2a13.66,13.66,0,0,1-3.16,2.19c-9.1,3.7-16.43,9.93-23.62,16.36l-1.44,1.28c-2.32,2.08-5.36,3.73-7.67,1.24-2.61-2.81.55-5.22,2.37-7.22,7-7.69,14.94-14.06,24.87-17.67A16.13,16.13,0,0,1,950.3,333.63Z"/><path class="cls-2" d="M837.68,143.68c-4.49.29-9,.75-13.49.82-2.92,0-7.07,1.78-7.8-3-.79-5.19,3.75-4.13,6.59-4.64,11.16-2,22.46-1.46,33.72-1.53,1.75,0,4.2-.59,4.58,2.12a4.4,4.4,0,0,1-3.4,5.11,22.4,22.4,0,0,1-5.72.69c-4.83.1-9.65,0-14.48,0Z"/><path class="cls-2" d="M691.12,155c7-5.74,15.73-4.22,23.69-5.87,3.71-.77,7.68-.23,11.16-2.24,2.55,0,5.11-.07,7.67,0,1.59,0,3.29.08,3.62,2.21.26,1.71-.17,3.2-1.85,4a13,13,0,0,1-3.59,1.33c-11.72,1.7-23.44,3.4-35.19,4.91C693.69,159.72,690.54,159.55,691.12,155Z"/><path class="cls-2" d="M755.1,143c7.61-2.35,15.84-.67,23.36-3.63,3.86,0,7.73-.27,11.57,0,3.07.21,8.15-2.06,8,3.71-.13,5.21-5.11,3.74-8.25,3.93-6.43.4-12.85.56-19.14,2.13-5.07-.5-10,.43-15,1.3l-2.18-4.59,1.35-2.69Z"/><path class="cls-2" d="M1102,143.21c-5.79,0-11.58,0-17.37,0-2.7,0-5.15-.22-5.27-3.93-.13-3.9,2.42-3.85,5.1-3.89,11.91-.2,23.79.07,35.6,1.91,2.56.4,4.31,1.15,4.07,4.11s-2.35,3.44-4.8,3.28L1102,143.52Z"/><path class="cls-2" d="M1145.57,138.84a232,232,0,0,1,40.71,4.54c.59,5.22-1.89,6.88-6.86,6.38-10.56-1.06-21.15-1.82-31.72-2.78C1140.91,146.35,1140.73,145.57,1145.57,138.84Z"/><path class="cls-2" d="M1203.91,147c13.24-.7,25.95,2.86,38.87,4.84a8.8,8.8,0,0,1,5.52,3.42c-.41,3.42-2.68,4.07-5.57,3.7-11.87-1.51-23.74-3-35.58-4.6C1202.43,153.73,1202.87,150.41,1203.91,147Z"/></g><g id="Capa_3" data-name="Capa 3"><path d="M837.56,547.93V659H817.73V588.21l-19.51,14.91L782,615.66l-16.18-12.54-19.51-14.91V659H726.53v-111l19.82,15.22L782,590.59l35.69-27.44Z"/><path d="M891.48,584.88v75.5H871.65V582.82a15.8,15.8,0,0,0-13.48-13.48h-4.44V549.67H858v.16a35.64,35.64,0,0,1,13.49,3.65,35.27,35.27,0,0,1,16,16.18,41.44,41.44,0,0,1,2.69,7.45,33,33,0,0,1,.95,8.09Z"/><path d="M945.09,584.88v75.5H925.26V582.82a15.8,15.8,0,0,0-13.48-13.48h-4.44V549.67h4.28v.16a35.55,35.55,0,0,1,13.48,3.65,35.17,35.17,0,0,1,16,16.18,40.72,40.72,0,0,1,2.7,7.45,33,33,0,0,1,.95,8.09Z"/><path d="M1071.5,581.55a32.65,32.65,0,0,1-9.2,22.84,32.76,32.76,0,0,1-23.47,55.52h-78.2V640.08h78.2a13.07,13.07,0,0,0,13-13,12.93,12.93,0,0,0-12.22-13h-59V594.24h59a13,13,0,0,0-.63-26h-78.2V548.4H1039a32.63,32.63,0,0,1,32.67,32.68Z"/><path d="M1157.63,547.93a35.81,35.81,0,0,1,35.84,35.84V623a35.81,35.81,0,0,1-35.84,35.85h-34.27A35.81,35.81,0,0,1,1087.52,623V583.77a35.81,35.81,0,0,1,35.84-35.84Zm-34.27,19.82a16.24,16.24,0,0,0-16.17,16.18v39.18a16.24,16.24,0,0,0,16.17,16.18h34.27a16.24,16.24,0,0,0,16.17-16.18V583.93a16.24,16.24,0,0,0-16.17-16.18Z"/></g></g></svg>