<svg xmlns="http://www.w3.org/2000/svg" viewBox="0 0 1920 1080"><defs><style>.cls-1{fill:#f2f2f2;}.cls-2{fill:#ccc;}</style></defs><g id="Capa_2" data-name="Capa 2"><g id="Capa_1-2" data-name="Capa 1"><path d="M1776.25,691.66c-.44-44.1-1.2-88.19-1.31-132.29,0-3.84-4.46-4.14-4.46-4.14h-41.72c-12.87,0-25.74.43-38.6,0-12-.41-15.1-7.12-10.52-17.92,3.35-8,6.24-16.75,6.49-25.27.83-26.92.11-53.9.39-80.84.24-22.26-9.31-38.22-29.32-47.77-18-8.57-35.73-17.58-54.12-25.1-42.72-17.49-86-33.75-128.65-51.35-42.43-17.51-88.09-25.23-129.86-45.46-23-11.15-49.69-14.79-74.78-21.56-3-.82-6.45-.38-9.63-.09-3.63.35-7.32,2.1-10.8,1.68-63.47-7.78-126.94-15.58-190.35-23.88-17.66-2.31-33.58-1.26-45.63,13.87-.24.3-1.14,0-2.59,0,.59-9.82-6.55-9.84-13.46-9.91l-74.12,0c-7.93-.28-14.75.24-15.47,11.7-3.8-3.54-6-6.72-9.1-8.21-6.33-3.1-13.08-7.41-19.7-7.52-39.12,0-119.34,10.78-119.34,10.78q-45.83,6.84-91.64,13.77c-1.49.22-3.66,1.25-4.34.63-8.44-7.71-16.83-1.88-24.92.24-21,5.46-42,11.11-62.68,17.6-7.19,2.24-13.17,8.26-20.34,10.72-57.27,19.68-115.22,37.5-171.89,58.74-41.19,15.43-80.84,35-121,53.1-20.19,9.12-29.87,25.12-29.34,47.56.48,20.12.1,40.26.1,61.42H179.21v62.63c-10.39.68-20,1.28-30.25,2-4.25.27-5.23,4.8-5.23,4.8V696c0,18.08,4,21.76,22.42,21.74q56.06-.09,112.13,0c10.39,0,19.9,2.24,27.74,9.9,38.12,37.22,76.51,74.19,114.5,111.56,9.05,8.92,19.26,13.72,31.86,13.92,2.64,0,5.31.86,8,1.32-.09.87-.2,1.71-.3,2.56l1.64,2.11h78.55c7.1,0,8.92-5.26,8.92-5.26v-4.5c8.09,7.23,29.35,13.53,29.35,13.53h97.83a220.22,220.22,0,0,0,48.9-6.05c71.59-16.57,144.13-24.55,217.53-25.5l27.33-.19A990.38,990.38,0,0,1,1166.18,851c18.26,3.73,36.34,10.45,54.69,11.24,40.68,1.76,74.08.73,114.84.57,3.77,0,5.86-.67,11.12-3.15,9.44-5.87,21.47-12,30.7-3,1,1,3.57.61,5.37.5,27.31-1.9,54.68,2.57,82.13-3.29,14.81-3.15,27.15-7.8,37.83-18.3,31.45-30.92,64.25-60.55,94.43-92.66,17.89-19.07,37-27.25,63-25.75,32.68,1.88,65.55.67,98.32.52,11.2-.06,16.17-5,17.29-16A87.25,87.25,0,0,0,1776.25,691.66Zm-426.6-405.91c3.31-1.23,7.13-1.07,10.76-1.46.27.83.53,1.64.81,2.45l-5.72,5c14.49,5.11,27.58,9.75,41.21,14.55-.2-6.86-.2-6.86-17.25-14.47q25.32,7.55,50.69,15.15c-.13.5-.26,1-.37,1.53l-16.68-2.17c-.33,1.39-.67,2.81-1,4.21,12.73,4.25,25.44,8.62,38.29,12.45,1,.27,3.15-3.48,5.91-6.68,3.84,1.25,10.07,3.28,17.58,5.7-6.36,4.56-5.52,8,.81,10.16q20.46,7.05,40.92,14.06c.46-.86.9-1.72,1.34-2.61-1-1.89-2-3.79-3.68-6.8l19.59,7.15c-2.8,6.64,1,9.69,6.55,12,9.82,4,19.55,8.29,30.36,12.91.48-3.76.74-5.91,1.12-9,9,4,17.55,7.71,26.1,11.48-.06.38-.11.75-.18,1.14l-10.56-.59c-.41,1-.81,2.06-1.21,3.07l39,18.78c-.63-5.41-.91-7.8-1.37-11.72,16.47,11.72,38.94,12.91,47.95,35.75-2.92-.62-4.41-.62-5.59-1.23-79.1-40.16-161.66-71.67-246.06-98.59-20.65-6.59-41.34-13.12-61.92-20a19.59,19.59,0,0,1-8.51-5.73C1347.55,291.1,1348.51,286.19,1349.65,285.75Zm163.66,75.95-157.87-54.86C1366.46,305.22,1509.23,354.55,1513.31,361.7ZM1047.48,231.33c34.94,4,70.09,6.42,105,10.54,29.7,3.51,59.24,8.51,88.83,12.91a19,19,0,0,1,10.25,4.32c-3.22,1.07-6.44,2.11-10.12,3.33.76,1.91,1.49,3.8,2.85,7.3L1157.44,254l10.35-5c-3.78-1.53-7.55-4.27-11.36-4.34-26.17-.53-52.34-.57-78.49-.57-3.76,0-7.49,1.1-11.22,1.71.35.68.7,1.38,1,2.06l109.8,16.06c-.09.58-.18,1.17-.28,1.76q-75.88-6.65-151.78-13.33c-.09-.22-.2-.43-.29-.65l26.77-1.54c0-1.64,0-3.27,0-4.91-9.22-.44-18.43-.9-29-1.42C1030,235.23,1036.3,230,1047.48,231.33ZM668,257c7.54-1.43,15-3.37,22.62-4.27,61.89-7.28,123.76-14.69,185.74-21,6.47-.64,13.62,5.47,20.45,8.45-.52,1.61-1,3.25-1.53,4.87H867.93c-.1,1.07-.19,2.13-.26,3.2,7.23,5.85,17,.66,24.38,4L734.53,266.71l-.27-1.16q58.35-8.93,116.67-17.89c.09-.48.17-1,.26-1.44-2.74-.64-5.48-1.94-8.18-1.83-13.43.53-26.82,2-40.23,2-12.72.07-25.43-1.47-38.16-1.69-4.87-.1-9.76,1.54-14.66,2.39l.06,4.08,14.34,1.05c.08.4.15.81.21,1.21l-92.75,16.78L676,262.5l-8-3.27C668,258.49,668,257.76,668,257ZM297.85,383.35c-1.52,3.33-2.48,5.43-3.44,7.5l1.35,2.08q19-8.44,38.14-16.84c-.18-.94-.37-1.88-.55-2.82l-8.7-2.65,23.87-10.74c.52,2.91.9,5,1.69,9.29,11.94-5.5,22.9-10.52,33.84-15.63.79-.35,2-1.27,1.93-1.8-1.56-12.62,10.34-8.87,13.1-11.33,5.37,1.54,8.77,3.78,11.29,3,11.4-3.33,22.57-7.43,33.75-11.48,2-.73,3.69-2.53,4.83-5.9l-13.59,1.38c-.14-.48-.29-1-.44-1.45l30.44-10.69c.31,3.13.55,5.54.92,9.11,13.74-4.53,26.65-8.8,39.56-13-.37-1.53-.74-3.06-1.1-4.58-6.39,1-12.75,1.95-19.13,2.9-.11-.33-.22-.66-.31-1L537,292.26c-6,6.05-15.78,3.2-15.91,15.3,13.81-5.32,26.39-10.15,39-15a2.28,2.28,0,0,0,1.12-1.37c.83-3.09-1-8.9,5-7,2.76.85,4.34,5.46,7.12,9.31-56.06,19-110.95,35.95-164.57,56.29s-105.71,44-158,65.93C250.05,403.84,268.13,395.58,297.85,383.35Zm267-76.84q-78.8,27.35-157.58,54.7c-.44-.3-.88-.57-1.32-.85,2.5-1.67,4.8-4,7.58-4.93q50.17-17.26,100.5-34.21C530.69,315.61,547.48,310.28,564.82,306.51ZM240.93,539.86a8.86,8.86,0,0,1-.09,6.84c-.57,1.1-4.41,1.78-5.65,1-1.56-1-2.55-3.75-2.79-5.85-.66-6.07-.81-12.18-1.33-21C235.12,528.53,238.34,534.05,240.93,539.86ZM224,499.6v49.07C218.33,541.92,218.55,506,224,499.6Zm-37.48.39c7.65,0,14.9-.39,22,.25,1.86.17,4.84,3.52,4.92,5.49q.6,17.84-.15,35.71c-.09,2-3.06,5.35-4.93,5.54-6.9.66-13.9.25-21.89.25ZM433.54,830.5Q410.2,808.38,387.1,786c-22.49-21.67-45.18-43.15-67.33-65.18C307.51,708.6,293.33,703,276.1,703.19c-36.47.41-72.93.2-109.38.35-5.05,0-8.81-.24-8.73-7.12.4-40.73.48-81.47.68-122.21a26,26,0,0,1,.7-3.67c4.28-.21,8.75-.52,13.22-.61,45-.9,90-1.29,135-3.18,7.1-.3,15-6.29,20.65-11.61,31.18-29.07,14.7-58.56-13.75-74-3.74-2-9-1.67-13.52-1.75-12.76-.2-25.55-.07-38.62-.07-.57-9.47-1.09-17.95-1.75-28.82-10.19,9.45-1.41,21.9-8.9,29L247.9,479c0-16-.66-32.17.52-48.13.25-3.53,7-6.6,10.79-9.87l2.15,1.87c-.95,3.09-2.29,6.14-2.7,9.31-.22,1.74,1.14,3.69,1.77,5.55,1.84-1.08,5-1.89,5.27-3.29,4.09-19.5,20-25.44,35.65-32,29.86-12.63,59.58-25.56,89.38-38.33a15.6,15.6,0,0,1,9.38-1.19c-1.55,2.32-2.56,5.52-4.71,6.84-17.82,11-24,27.55-23.93,47.58.09,59.73-.05,119.47-.09,179.2,0,36.45.41,72.91-.11,109.36-.31,22.58,6.46,41.29,24.42,55.74,2.89,2.34,3.41,7.6,5,11.51-.95.52-1.91,1-2.86,1.53-4.53-4.34-8.87-8.94-13.72-12.89-1.73-1.4-4.69-1.25-7.1-1.82.57,2.35.38,5.46,1.84,7q15.61,16.16,31.92,31.69c2.12,2,5.48,2.7,10.71,5.13-4.12-12.67-17.29-18.32-13.78-33.53,18.08,19.29,44.78,28.36,51.17,56.18l-2.21,2.38c-4.08-3.39-7.89-7.18-12.32-10-3.77-2.42-8.26-3.78-12.42-5.61,2.34,4.09,3.85,9.13,7.21,12,5.57,4.84,12.34,8.28,19.75,13C448.35,839.32,440.26,836.86,433.54,830.5Zm-174-319.42c-.94-.06-1.86-.1-2.78-.13q-.85,9.6-1.73,19.24c-.69,0-1.41.09-2.13.14-.66-1.38-1.78-2.72-1.91-4.15-1.05-12-2-24-2.74-36-.08-1.16,1.23-2.43,1.91-3.64,1.38.77,3.35,1.21,4,2.39,1.36,2.44,2,5.28,5.24,8,1.18-3.15,2.36-6.29,3.55-9.51,15.18,0,30.59-1.58,45.52.35,24.22,3.13,36.38,35.2,21.65,54.31-9.77,12.65-20.8,21.79-38.68,19-9.54-1.51-19.53-.13-29.3-.2-3.14,0-6.27-.53-9-.77,3.22-5.12,8-9.27,8.14-13.6C261.75,534.67,263.72,522.52,259.58,511.08Zm1050.05,338c-53.43.16-105.86-3.11-158.26-15.49-58.81-13.88-119.36-16.36-179.75-17.23L947,816.24c-79.56,1-158.16,9.64-235.41,29.3a81.12,81.12,0,0,1-19,2.57c-37.06.3-74.12.3-111.18.24a20,20,0,0,1-8.73-1.71c-7.06-3.49-13.83-7.54-21-11.55,8.79,0,18.46.28,28.1-.18,2.32-.11,4.5-2.65,6.75-4.06-2.28-1-4.53-2.67-6.84-2.78-7.76-.35-15.56-.13-24.46-.13,6.6-6,40.58-8,60.47-4.23l-15.14,6.18c.29,1.19.61,2.37.9,3.57,4.88-.43,9.9-.19,14.57-1.36,30.43-7.67,60.78-15.77,91.22-23.42,6.2-1.56,12.83-1.3,19-2.94,11.36-3,22.54-6.73,33.76-10.3,5.32-1.69,10.26-6,16-.33,1.33,1.33,4.69,1.23,7,.9,10.87-1.58,21.7-3.46,32.41-5.2,1.8-13.65,12.82-7.12,21-12.18l-3.75,8.17c2.72,4.91,39,.09,43.36-6.11H844.44c43.72-9.27,114.28-9.63,114.28-9.63,38.81-.41,74.47,3.1,112,7.74-9.49,3.31-18.63-2.72-27.51,5.79,5.07,1.14,8.12,2.15,11.23,2.47,8.22.82,16.48,1.32,24.72,2,5,.42,10.12,1.18,7.17-8,7.34,1,13.26,1.87,20.16,2.85-4.58,7.52-.9,8.95,5.59,9.38,8.52.55,17,2,25.49,3,2.1.26,5.08,1.11,6.25.08,8.26-7.29,14.24-1.44,21.15,2.51,4.64,2.65,10.23,3.79,15.53,5,21.35,5,42.79,9.67,64.18,14.58,20.71,4.74,41.34,9.73,62.09,14.31,3.72.81,7.74.11,11.62.11.37-1,.72-2.06,1.09-3.11l-15.65-6.14c16.13-3.4,51.7-1.8,59.86,4.45-7.24,0-14.49-.22-21.72.11-2.32.13-4.58,1.73-6.86,2.65,2.25,1.4,4.43,3.86,6.75,4,9.31.46,18.65.18,29.48.18C1350.57,844.49,1331.26,849,1309.63,849.09Zm73,0c-.13-.12-.81-.53-.86-1-3.09-25.34-12-33.21-37.73-33.17-16.86,0-33.8-1.07-50.53.27-30.94,2.5-59.08-8.15-87.77-16.5a885.38,885.38,0,0,0-223.58-35.34c-13-.46-40.75-.32-40.75-.32-22.07,1.66-43.7,3-65.28,4.91-62.45,5.45-123.53,18.21-183.15,37.15-28.66,9.11-57.53,10.65-87,9.83-11.33-.32-22.66-.17-34-.1-20.5.13-30.44,8.46-34,28.42-.33,1.8-.56,3.62-.9,6.05H467.38c0-4-.09-7.87,0-11.72.48-17.67-6.09-32.35-19.42-43.71-15.38-13.12-31-25.88-46.82-38.51-14.22-11.41-22.22-25.64-22.22-44.2q.1-148.41,0-296.85c0-15.65,5.28-28.4,20.73-37.83,0,4.85-.41,8.4.13,11.81.36,2.29,2.07,4.39,3.18,6.58,1.27-2,4-4.36,3.58-6-3.58-15.13,6-20.41,17.57-24.44,42.7-14.89,85.3-30,128.13-44.56,14.31-4.86,27.81-9.21,26.69-28.34,0,0-.92-7.74-1.66-10.32-3.59-12.52-5-12.34,6.79-15.56,18.87-5.17,37.79-10.17,56.55-15.72,15.39-4.56,13.77-6.57,19.86,12.08l5.63,11.86c6.66,7.78,14.2,10.47,24.39,8.76,64-10.69,128.28-19.52,193.33-21.28,9.21-.26,17.36-2.23,25.34-8.59,5.64-4.51,5.88-8.88,5.88-8.88-.44-15-.27-15.23,12.2-15.16l70.84.5c6.81.05,5.52,2.43,5.52,2.43a51.21,51.21,0,0,0,.6,11.6C1005.27,249.5,1016,257,1016,257c4.72,3.91,13.29,4.15,20.17,4.41a1245.72,1245.72,0,0,1,170.6,18c7.82,1.36,15.67,2.77,23.56,3.66,9,1,17.29-1.09,22.51-9.18,3.49-5.9,7.61-16.53,7.61-16.53,1.95-5.28,1.95-12.79,12.53-9.29,20.56,6.8,41.71,11.9,62.62,17.69,11.22,3.11,11.86,4.76,5.9,15.84a77.75,77.75,0,0,0-.77,11.14c.35,14,4.52,20,17.77,24.28,30.23,9.78,60.74,18.81,90.74,29.28,19.88,6.93,39.17,15.63,58.48,24.13,2.72,1.19,5,5.59,5.63,8.86.94,5.11.26,10.52.26,15.82,1.52.14,3,.31,4.58.47,1-5.81,2-11.62,3.2-18.18,10.7,7.24,17.1,16.55,18.26,28.7,1,10,.9,20.18.92,30.28q.17,130,.17,260.07c0,6.42-.34,12.85-.52,19.29-.42,16.11-7.83,28.58-20.1,38.55-12.6,10.24-24.65,21.24-37.83,30.64-22.09,15.74-33.9,35.73-29.45,64.27Zm369.7-145.82c-34.61-.2-69.22.7-103.82-.18-21.74-.56-38.49,6.58-53.85,22.16-34.59,35.07-70.58,68.78-105.86,103.21-7.92,7.71-16.94,10.85-28,8.92,12.15-6.07,23.39-12.86,27.86-26.1-.61-.64-1.2-1.29-1.8-1.93L1462.62,829c-.8-.87-1.6-1.75-2.39-2.63,7.25-27.79,33.66-38,52.18-56.81,4.73,15-9.51,20.78-12.65,31.67,9.27-1.12,41.62-32.92,41.34-43l-20.19,17.14c-2.52-6.11-2.5-11,3.21-15.21,18.18-13.34,24.13-32,24.06-53.78-.24-74.1,0-148.2,0-222.29,0-22.37-.22-44.71.08-67.06.25-19.53-7-35-22.83-46.58-2.42-1.79-4.23-4.44-6.3-6.68.46-.7.9-1.42,1.36-2.12a72,72,0,0,1,8.2,2.47c34.24,14.75,68.3,29.9,102.73,44.19,10.54,4.38,16.9,11.19,20.67,21.61,1.09,3.06,4.57,5.23,6.94,7.8.2-3.35.51-6.69.55-10.06a36.48,36.48,0,0,0-.75-5.33c9.91,1.43,13.62,6.16,13.31,16.18-.75,25.09-.09,50.21-.44,75.31-.07,5.45-2,10.87-3,16.32l-4.15-.32c0-4.23.33-8.47-.13-12.65-.22-1.91-2-3.66-3.07-5.46-1.12,1.54-3.15,3-3.2,4.63-.37,10.71-.72,21.45-.28,32.13.26,6.27,18.87,20.44,27.53,20.86,12.53.59,25.11.27,37.65.31,10.41.06,20.84.31,31.23,0,5.66-.15,7.36,2,7.34,7.52-.17,39.19-.24,78.39.07,117.58C1761.67,702,1758.83,703.36,1752.36,703.32Z"/><path class="cls-1" d="M1540.53,436.32c0-10.1,0-20.25-.92-30.28-1.16-12.15-7.56-21.46-18.26-28.7-1.16,6.56-2.17,12.37-3.2,18.18-1.53-.16-3.06-.33-4.58-.47,0-5.3.68-10.71-.26-15.82-.59-3.27-2.91-7.67-5.63-8.86-19.31-8.5-38.6-17.2-58.48-24.13-30-10.47-60.51-19.5-90.74-29.28-13.25-4.31-17.42-10.28-17.77-24.28a77.75,77.75,0,0,1,.77-11.14c6-11.08,5.32-12.73-5.9-15.84-20.91-5.79-42.06-10.89-62.62-17.69-10.58-3.5-10.58,4-12.53,9.29,0,0-4.12,10.63-7.61,16.53-5.22,8.09-13.48,10.19-22.51,9.18-7.89-.89-15.74-2.3-23.56-3.66a1245.72,1245.72,0,0,0-170.6-18c-6.88-.26-15.45-.5-20.17-4.41,0,0-10.69-7.45-11.76-13.67a51.21,51.21,0,0,1-.6-11.6s1.29-2.38-5.52-2.43l-70.84-.5c-12.47-.07-12.64.11-12.2,15.16,0,0-.24,4.37-5.88,8.88-8,6.36-16.13,8.33-25.34,8.59-65.05,1.76-129.29,10.59-193.33,21.28-10.19,1.71-17.73-1-24.39-8.76L660.47,262C654.38,243.39,656,245.4,640.61,250c-18.76,5.55-37.68,10.55-56.55,15.72-11.75,3.22-10.38,3-6.79,15.56.74,2.58,1.66,10.32,1.66,10.32,1.12,19.13-12.38,23.48-26.69,28.34-42.83,14.51-85.43,29.67-128.13,44.56-11.59,4-21.15,9.31-17.57,24.44.39,1.64-2.31,4-3.58,6-1.11-2.19-2.82-4.29-3.18-6.58-.54-3.41-.13-7-.13-11.81-15.45,9.43-20.73,22.18-20.73,37.83q.09,148.44,0,296.85c0,18.56,8,32.79,22.22,44.2C416.94,768,432.6,780.78,448,793.9c13.33,11.36,19.9,26,19.42,43.71-.11,3.85,0,7.69,0,11.72h69.71c.34-2.43.57-4.25.9-6.05,3.56-20,13.5-28.29,34-28.42,11.35-.07,22.68-.22,34,.1,29.48.82,58.35-.72,87-9.83,59.62-18.94,120.7-31.7,183.15-37.15,21.58-1.87,43.21-3.25,65.28-4.91,0,0,27.71-.14,40.75.32a885.38,885.38,0,0,1,223.58,35.34c28.69,8.35,56.83,19,87.77,16.5,16.73-1.34,33.67-.26,50.53-.27,25.7,0,34.64,7.83,37.73,33.17,0,.48.73.89.86,1h70.14c-4.45-28.54,7.36-48.53,29.45-64.27,13.18-9.4,25.23-20.4,37.83-30.64,12.27-10,19.68-22.44,20.1-38.55.18-6.44.52-12.87.52-19.29Q1540.67,566.34,1540.53,436.32ZM403.91,412.56c4,14.06,2.84,28.3,1.88,43.32C398.71,452.08,397.15,423.06,403.91,412.56ZM402.7,513.39c-1-1.91-2.9-3.82-3-5.77-.24-10.63-.11-21.28.11-31.93,0-1.93,1.16-3.82,1.78-5.74l2.67,0c.74,2.43,2.06,4.84,2.13,7.28.26,10,.34,20.09-.05,30.11C406.31,509.42,404,511.39,402.7,513.39Zm3.59,19.89c-.08,12.39-.5,24.79-.92,37.18,0,.61-1.18,1.16-4.09,3.9-.75-5.68-1.56-9.27-1.61-12.87-.17-9.12-.13-18.25.22-27.35.05-1.51,2-2.94,3.11-4.4C404.14,530.92,406.31,532.1,406.29,533.28Zm-6.51,60.63c.05-1.89,1.1-3.75,1.69-5.63l2.24-.31c1,2.8,2.74,5.55,2.85,8.39.33,9.49.3,19-.09,28.47-.09,2.2-2.15,4.34-3.31,6.51-1.21-2.06-3.44-4.1-3.49-6.2C399.37,614.73,399.56,604.32,399.78,593.91Zm6.1,152.23c0,.62-1.21,1.23-3.12,3.05-1.25-3-3-5.35-3.09-7.74-.26-10.32-.13-20.66.2-31,.05-1.45,2.11-2.83,3.24-4.24,1.14,1.19,3.25,2.39,3.25,3.58C406.42,721.91,406.18,734,405.88,746.14Zm-2.54-56.21c-4.94-4.89-5.53-36.16-.8-43.29C408.16,652.28,408.73,682,403.34,689.93Zm159.92-12c-.33,4.12-3,9.56-6.35,11.68-16.15,10.28-33.29,10.79-50.69,2.67-6.19-2.91-9.06-7.36-9-14.44.22-22.33-.25-44.67.24-67,.09-3.85,2.71-9.16,5.81-11.11,17-10.67,34.65-10.28,52.29-1.14,5.7,3,8.26,7.56,8.06,14.18-.34,11-.1,22-.1,33.05h0C563.55,656.55,564.14,667.31,563.26,677.94Zm858.15,1.82c-.28,3.77-3.07,8.88-6.25,10.72-17.16,9.93-35,10.36-52-.2-3.46-2.15-6.79-7.56-6.9-11.55-.68-22.6-.64-45.24-.07-67.84.09-3.83,3.09-9,6.34-11.08,16.94-10.53,34.85-10.66,52.18-1.17,3.57,2,6.45,8,6.82,12.37,1,11.24.33,22.61.33,33.92h-.13C1421.7,656.53,1422.2,668.19,1421.41,679.76Zm92.25-269c1.09-.16,2.19-.31,3.27-.48.83,1.11,2.34,2.21,2.38,3.33.35,11.85.55,23.67.49,35.52,0,1.39-1.67,2.79-2.57,4.21-1.2-1.07-3.4-2.1-3.42-3.17C1513.57,437.05,1513.66,423.9,1513.66,410.77Zm2.15,60.21c6.16,7.53,5.65,36.88-1.27,44.33C1512.89,498.94,1512.89,484.91,1515.81,471Zm-.62,57.81c6.76,7.59,6.42,37.26,0,44.49C1511.66,557.63,1514.32,543.19,1515.19,528.79Zm.62,58.45c5.7,4.45,6.51,34.59,1.14,42.87C1512.43,625.43,1511.66,596.23,1515.81,587.24Zm-1,160.53v-43.7C1522.64,711.5,1522.08,743.41,1514.78,747.77Zm2.85-58.08c-4.76-3.29-6.31-29.33-2.28-43.29C1521.4,652,1522.45,679,1517.63,689.69Z"/><path d="M563.55,645.85h0c0-11-.24-22.05.1-33.05.2-6.62-2.36-11.22-8.06-14.18-17.64-9.14-35.31-9.53-52.29,1.14-3.1,2-5.72,7.26-5.81,11.11-.49,22.31,0,44.65-.24,67,0,7.08,2.82,11.53,9,14.44,17.4,8.12,34.54,7.61,50.69-2.67,3.35-2.12,6-7.56,6.35-11.68C564.14,667.31,563.55,656.55,563.55,645.85Zm-17.34,41.54a48.6,48.6,0,0,1-34-.64c-5.41-2.06-7.62-5.17-7.43-10.94.33-10.38.09-20.78.09-31.16,0-10.09.29-20.17-.06-30.25-.22-6.2,2.15-10.37,8.08-11.42,8-1.42,16.27-3.29,24.24-2.6,15.44,1.37,18.86,6.09,18.9,21.54,0,17.1-.31,34.23.28,51.33C556.53,681.18,553,685.09,546.21,687.39Z"/><path d="M1421.83,644.93c0-11.31.63-22.68-.33-33.92-.37-4.39-3.25-10.42-6.82-12.37-17.33-9.49-35.24-9.36-52.18,1.17-3.25,2-6.25,7.25-6.34,11.08-.57,22.6-.61,45.24.07,67.84.11,4,3.44,9.4,6.9,11.55,17.06,10.56,34.87,10.13,52,.2,3.18-1.84,6-7,6.25-10.72.79-11.57.29-23.23.29-34.83Zm-7.41,31.21c.18,5.88-2.28,9.86-7.69,10.74-8.62,1.41-17.58,3.25-26.11,2.32-15.19-1.64-17.51-5.65-17.31-21.06.24-17.42.37-34.85.09-52.27-.11-6.88,2.69-10.76,8.94-13.09,12.71-4.77,25.23-4.31,37.3,1.5,2.28,1.11,4.38,5,4.5,7.69.5,11,.21,22,.21,33C1414.35,655.36,1414.11,665.77,1414.42,676.14Z"/><path d="M405.79,455.88c-7.08-3.8-8.64-32.82-1.88-43.32C407.89,426.62,406.75,440.86,405.79,455.88Z"/><path d="M403.34,689.93c-4.94-4.89-5.53-36.16-.8-43.29C408.16,652.28,408.73,682,403.34,689.93Z"/><path d="M406.38,507.38c-.07,2-2.39,4-3.68,6-1-1.91-2.9-3.82-3-5.77-.24-10.63-.11-21.28.11-31.93,0-1.93,1.16-3.82,1.78-5.74l2.67,0c.74,2.43,2.06,4.84,2.13,7.28C406.69,487.3,406.77,497.36,406.38,507.38Z"/><path d="M406.36,709.81c.06,12.1-.18,24.22-.48,36.33,0,.62-1.21,1.23-3.12,3.05-1.25-3-3-5.35-3.09-7.74-.26-10.32-.13-20.66.2-31,.05-1.45,2.11-2.83,3.24-4.24C404.25,707.42,406.36,708.62,406.36,709.81Z"/><path d="M406.47,624.83c-.09,2.2-2.15,4.34-3.31,6.51-1.21-2.06-3.44-4.1-3.49-6.2-.3-10.41-.11-20.82.11-31.23.05-1.89,1.1-3.75,1.69-5.63l2.24-.31c1,2.8,2.74,5.55,2.85,8.39C406.89,605.85,406.86,615.36,406.47,624.83Z"/><path d="M406.29,533.28c-.08,12.39-.5,24.79-.92,37.18,0,.61-1.18,1.16-4.09,3.9-.75-5.68-1.56-9.27-1.61-12.87-.17-9.12-.13-18.25.22-27.35.05-1.51,2-2.94,3.11-4.4C404.14,530.92,406.31,532.1,406.29,533.28Z"/><path d="M1515.22,573.28c-3.56-15.65-.9-30.09,0-44.49C1522,536.38,1521.61,566.05,1515.22,573.28Z"/><path d="M1517.63,689.69c-4.76-3.29-6.31-29.33-2.28-43.29C1521.4,652,1522.45,679,1517.63,689.69Z"/><path d="M1519.8,449.14c0,1.39-1.67,2.79-2.57,4.21-1.2-1.07-3.4-2.1-3.42-3.17-.24-13.13-.15-26.28-.15-39.41,1.09-.16,2.19-.31,3.27-.48.83,1.11,2.34,2.21,2.38,3.33C1519.66,425.47,1519.86,437.29,1519.8,449.14Z"/><path d="M1514.78,747.77v-43.7C1522.64,711.5,1522.08,743.41,1514.78,747.77Z"/><path d="M1517,630.11c-4.52-4.68-5.29-33.88-1.14-42.87C1521.51,591.69,1522.32,621.83,1517,630.11Z"/><path d="M1514.54,515.31c-1.65-16.37-1.65-30.4,1.27-44.33C1522,478.51,1521.46,507.86,1514.54,515.31Z"/><path d="M1622.9,546.62c-13.05-.09-21.79-9-21.6-22a22.08,22.08,0,0,1,22.26-22c12.49.18,21.9,9.84,21.89,22.47C1645.44,537.27,1635.58,546.71,1622.9,546.62Zm-.17-36.7c-7.42-.12-13.74,6.22-14,14.07-.31,8.69,6,15.44,14.54,15.52,7.79.07,15-7,14.88-14.45A15.57,15.57,0,0,0,1622.73,509.92Z"/><path d="M1662.24,570.77c.77,1.7,2.18,3.39,2.21,5.1.17,11.24.17,22.48-.11,33.71,0,1.68-1.82,3.33-2.79,5-1.11-.79-3.16-1.56-3.18-2.36-.19-13.68-.14-27.36-.14-41Z"/><path d="M1594.2,708.1c8.47-14.43,20.31-22,30.78-31.8C1628.48,684.76,1608.05,706.34,1594.2,708.1Z"/><path d="M1659.47,629.41c2.17,11.52-8.63,32.3-21.76,36.86L1656.53,628Z"/><path d="M1553.42,751.46c1-4.86.73-7.42,1.88-8.56q12-11.89,24.51-23.2c.9-.82,3.4-.53,4.75.1.64.3,1,3.21.32,4A135.43,135.43,0,0,1,1553.42,751.46Z"/><path d="M1660.49,495.88c-4.6-14.06-2.1-28.39-2.19-44.14C1665.44,456.92,1666.59,487.63,1660.49,495.88Z"/><path d="M367.28,747.94c-2.56.58-4.25,1.45-4.75,1q-14.2-12.66-28-25.78a46.53,46.53,0,0,1,3.72-4.34C349,727,360.17,734.85,367.28,747.94Z"/><path d="M260.52,628.51c10.44,10.8,14.22,25.13,22.92,38.55C271.59,665.46,257.83,641.61,260.52,628.51Z"/><path d="M291.9,678.73c1.44-.1,3.47-.87,4.23-.2q13.35,11.79,26.25,24.06c.89.85.29,3.23.39,4.9-1.68,0-4,.73-4.93-.1-9.41-8.43-18.59-17.11-27.83-25.71Z"/><path d="M261.75,615.13c-8.4-4.23-9.79-36.56-2.54-45.78C264.19,584.84,261.11,599.46,261.75,615.13Z"/><path d="M890.31,782.93c4-7.09,20.41-9.09,44.5-5.72-2.84,2.59-4.51,5.45-6.26,5.51C916.09,783.11,903.62,782.93,890.31,782.93Z"/><path d="M1029.51,784.34l-45.26-2.49C992.68,773.36,1024.64,775.16,1029.51,784.34Z"/><path d="M274.47,524.7c0-12.7,9.25-22.06,21.83-22.19,12-.13,22,10,22.07,22.25a21.9,21.9,0,0,1-22.22,22C283.22,546.7,274.42,537.74,274.47,524.7Zm36.75.61c.06-7.73-7.47-15.33-15.27-15.42a14.43,14.43,0,0,0-14.31,14.76A14.76,14.76,0,0,0,296,539.53C303.38,539.74,311.16,532.49,311.22,525.31Z"/><path d="M689.75,257.25,735,248.87C729.65,259.34,698.06,265.22,689.75,257.25Z"/><path d="M1186.38,249.59l42.6,7.61c-8.67,7.07-38.46,2.25-43.3-4.48C1185.92,251.68,1186.15,250.63,1186.38,249.59Z"/><rect class="cls-1" x="1919" y="1079" width="1" height="1"/><rect class="cls-1" width="1" height="1"/><rect class="cls-1" y="1079" width="1" height="1"/><rect class="cls-1" x="1919" width="1" height="1"/></g><g id="Capa_3" data-name="Capa 3"><path d="M835,437V548H815.19V477.26l-19.51,14.91L779.5,504.7l-16.18-12.53-19.51-14.91V548H724V437l19.83,15.22,35.69,27.44,35.69-27.44Z"/><path d="M888.94,473.93v75.5H869.11V471.86a15.8,15.8,0,0,0-13.48-13.48h-4.44V438.71h4.28v.16A35.55,35.55,0,0,1,869,442.52a35.17,35.17,0,0,1,16,16.18,42.55,42.55,0,0,1,2.7,7.45,33.53,33.53,0,0,1,1,8.09Z"/><path d="M942.55,473.93v75.5H922.72V471.86a15.8,15.8,0,0,0-13.48-13.48H904.8V438.71h4.28v.16a35.55,35.55,0,0,1,13.48,3.65,35.17,35.17,0,0,1,16,16.18,42.55,42.55,0,0,1,2.7,7.45,33.53,33.53,0,0,1,1,8.09Z"/><path d="M1066.26,503a31.54,31.54,0,0,1,2.7,12.85,32.62,32.62,0,0,1-32.67,32.67h-78.2V528.65h78.2a12.93,12.93,0,0,0,12.84-13,12.77,12.77,0,0,0-11.42-12.85H958.09V437.44h101.67v19.83H977.92V483h59.63a32.15,32.15,0,0,1,28.87,19.82Z"/><path d="M1195.85,470.59a32.63,32.63,0,0,1-9.2,22.84A32.76,32.76,0,0,1,1163.17,549H1085V529.12h78.2a13.07,13.07,0,0,0,13-13,12.93,12.93,0,0,0-12.22-13h-59V483.28h59a13,13,0,0,0-.63-26h-78.2V437.44h78.2A32.63,32.63,0,0,1,1196,470.12Z"/><path class="cls-2" d="M747.54,577l-5.79,20.49-2.81,10-7.31,25.72H721.18l7.32-25.72,2.81-10L737.09,577Z"/><path class="cls-2" d="M810.54,585.87a17.48,17.48,0,0,1,1.28,6.51v23.06a16.56,16.56,0,0,1-5.3,12.21,16.76,16.76,0,0,1-3.7,2.65,15.86,15.86,0,0,1-7.55,1.85H760.32v-10h34.95a6.62,6.62,0,0,0,6.59-6.59v-7.88a16.38,16.38,0,0,1-6.27,1.29h-23.7a16.6,16.6,0,0,1,.24-33.19h23.06a16.51,16.51,0,0,1,15.27,10.13Zm-44.92,6.51a6.62,6.62,0,0,0,6.27,6.59h23.7a6.59,6.59,0,0,0-.32-13.18H772.21A6.62,6.62,0,0,0,765.62,592.38Z"/><path class="cls-2" d="M839.15,594.47v38.24h-10V593.42a8,8,0,0,0-6.83-6.83H820v-10h2.17v.08a18,18,0,0,1,14.95,10,21.32,21.32,0,0,1,1.36,3.78,16.88,16.88,0,0,1,.48,4.1Z"/><path class="cls-2" d="M903.19,575.74V632H893.14V608.85H863.49a15.86,15.86,0,0,1-7.55-1.85,16.42,16.42,0,0,1-9-14.7V575.74h10V592.3a6.62,6.62,0,0,0,6.59,6.58h29.65V575.74Z"/><path class="cls-2" d="M1015.93,577l-5.79,20.49-2.81,10L1000,633.2H989.57l7.31-25.72,2.82-10,5.78-20.49Z"/><path class="cls-2" d="M1043.25,594.47v38.24h-10V593.42a8,8,0,0,0-6.82-6.83h-2.26v-10h2.17v.08a18,18,0,0,1,15,10,22.18,22.18,0,0,1,1.37,3.78,16.88,16.88,0,0,1,.48,4.1Z"/><path class="cls-2" d="M1070.41,594.47v38.24h-10.05V593.42a8,8,0,0,0-6.82-6.83h-2.25v-10h2.16v.08a18,18,0,0,1,15,10,22.18,22.18,0,0,1,1.37,3.78,16.88,16.88,0,0,1,.48,4.1Z"/><path class="cls-2" d="M1134.29,622.11v10H1078.2V615.6a16.08,16.08,0,0,1,1.37-6.51A16.49,16.49,0,0,1,1094.19,599h24.35a6.56,6.56,0,0,0-.56-13.1h-39.62v-10H1118a16.53,16.53,0,0,1,16.55,16.56,16,16,0,0,1-1.36,6.5,16.2,16.2,0,0,1-3.38,5,16.69,16.69,0,0,1-11.33,5.06h-24.27a6.53,6.53,0,0,0-5.86,6.51V622Z"/><path class="cls-2" d="M1198.57,622.11v10h-56.08V615.6a16.08,16.08,0,0,1,1.36-6.51A16.49,16.49,0,0,1,1158.48,599h24.35a6.57,6.57,0,0,0-.57-13.1h-39.61v-10h39.61a16.54,16.54,0,0,1,16.56,16.56,16.45,16.45,0,0,1-4.75,11.49,16.68,16.68,0,0,1-11.32,5.06h-24.27a6.54,6.54,0,0,0-5.87,6.51V622Z"/></g></g></svg>