<svg xmlns="http://www.w3.org/2000/svg" viewBox="0 0 1920 1080"><defs><style>.cls-1{fill:#020202;}.cls-2{fill:#f2f2f2;}</style></defs><g id="Capa_2" data-name="Capa 2"><g id="Capa_1-2" data-name="Capa 1"><path class="cls-1" d="M1605.38,449.4c-3.21-3-6.25-6.22-9.63-9a43.87,43.87,0,0,0-12.08-6.67c-47.32-18.84-95.1-36.39-143.92-51C1392.59,368.64,1345,356,1297,345.23c-3.73-.84-6.26-1.71-4.31-6.36,1.28-3.08.06-5.09-3.47-5.69l-80.88-14.61c-4.75-1-7-.25-6.68,5,.26,4.24-1.72,5.3-5.78,4-9.69-3.15-19.37-6.18-28.25-11.42-36.79-21.69-73.72-43.12-110.48-64.88-8.43-5-17.31-5.9-26.67-5.32-1.42.09-2.72.34-3.17,1.93-1.16,4.05-2.65,2.21-4,.2a49.68,49.68,0,0,0-14.77-14.43c-3.28-2.09-2.89-3.26.56-4.91,21.1-10.15,42.2-20.32,63.13-30.83,22.84-11.45,46.52-21.33,68.16-35.12a19.54,19.54,0,0,0,8.6-10.34c2.44-6.88,5.38-13.58,8.11-20.35,5.52-13.72,11.11-27.41,16.56-41.15,1.49-3.77,2.83-7.79.15-11.58-6.34-9-18.35-8-23.29,1.73-.69,1.38-1.33,2.78-1.9,4.2-5.83,14.64-12.06,29.14-17.33,44-4,11.38-11.69,18.37-22.34,23.4q-63.1,29.81-125.93,60.24c-6,2.9-11.8,4.88-18.68,4.56-4.69-.51-15.87-.21-15.87-.21a18.27,18.27,0,0,1-5.33-2c-43.32-20.72-86.53-41.69-130-62.08-12.45-5.85-21-14.2-25.5-27.29-5.11-14.68-11-29.12-16.88-43.5-4-9.72-9.34-11.6-18.16-7.24-6.8,3.35-8.48,8-5.28,16.46q9.45,25,19.34,49.95c5.53,14,14.9,24.41,28.62,31C833.89,191.18,872.39,210,911,228.54c3.21,1.55,3.42,2.58.66,4.56a62.84,62.84,0,0,0-14.9,14.39c-.85,1.18-2.12,2.37-3.15.73-2.05-3.27-5.06-2.19-7.79-2.19-11.85,0-26,7-26,7-36.53,21.37-73.13,42.61-109.64,64-8.92,5.23-18.82,7.7-28.43,11-3.44,1.19-3.43-1.09-3.51-3.26-.22-5.8-2.32-7.58-8.55-6.05L630,333.09c-3.52.56-3.69,2.62-2.88,4.85,2.18,6-.59,7-6,8.25-39.92,9.06-79.69,18.76-119.06,30.05-55.51,15.91-109.77,35.3-163.48,56.36-10.6,4.15-16,8.7-26.33,21.44-2.75,5.16-3.42,13.76-3.42,13.76V603.9c0,8.49,2.51,15.25,8.49,21.15,5.6,5.53,10.82,11.46,16.2,17.21,5.86,4.79,9.79,11.91,18,13.93a42.52,42.52,0,0,0,10.17,1.6q27.45.06,54.9.21c4.42-.09,8.85-.25,13.27-.23,8.7,0,12.16,2.59,14.32,11.14,3.65,14.34,7,28.73,10.56,43.09,12.34,49.68,23.9,99.57,37.33,149,12.37,45.47,40.37,77.51,86.57,91.73,7.6,2.55,32.43,4.91,32.43,4.91a139,139,0,0,0,30.37-3.19c29.08-6.5,57.67-14.89,86.44-22.57,3.78-1,5.72-1.17,5.7,3.64,0,4.33,1.8,6.25,7,5L819.14,926c3.48-.62,6.74-1.34,4.84-6.19-1.54-3.92.45-5,4-5.19,5.94-.41,11.88-1.08,17.8-1.81,31.18-3.84,62.48-6,93.87-6.78,51.34-1.31,102.37,2.73,153.3,8.6,3.39.39,5.09,1.17,3.81,5-1.35,4,.36,5.83,4.56,6.47l79,14.45c4,.81,6.48.25,6.53-4.42,0-4.47,2.06-5.25,6.26-4.08,25.72,7.13,51.51,14.05,77.27,21.05,25.29,6.86,50.61,7.63,75.6-.93,45.18-15.47,71.62-48,83.47-93.33,5.51-21.12,10.68-42.33,16-63.51,3.88-17,8-33.93,12.78-50.7,3-15.33,7.14-30.34,11.15-45.41,2.53-10.44,4.93-20.93,7.61-31.34,1.9-7.4,5.19-9.88,12.71-10,4.24-.08,8.47.09,12.7.15,18.69-.08,37.38-.28,56.06-.18a26.73,26.73,0,0,0,20.16-8.24q12.16-12.36,24.52-24.5a24.43,24.43,0,0,0,7.48-17.55c0-2.1.22-4.21.33-6.31q.06-27.74.11-55.47v-76C1611.13,459.59,1605.38,449.4,1605.38,449.4Zm-315.87-92.19c.49-3.84,1.82-4.24,5.17-3.43,40.67,9.91,81.28,20.08,121.52,31.65,54.89,15.79,108.6,34.87,161.66,55.91,8.52,3.38,16.43,7.44,20.78,16.32,2.58,5.25,2.16,10.86,2.83,16.16.18,12.16,2,11.77-9.57,6.81-74.22-31.92-150.58-57.65-228.57-78.54-24.48-6.55-49.38-11.55-74.14-17.06-3.65-.81-4.7-1.92-3.8-5.74A212.36,212.36,0,0,0,1289.51,357.21ZM1133.14,137.28q9.42-23.75,18.9-47.49c1-2.49,2.1-4.93,3.28-7.32s2.06-5.44,5.55-4.79,7,2.06,9.23,5.28a7,7,0,0,1,.53,2.32c-1.2,3.18-2.34,6.43-3.63,9.62-7.23,18-14.59,35.87-21.68,53.87-1.39,3.51-2.47,5.19-6.5,3.08-3.52-1.84-9.42-1.84-10.75-4.44C1126.61,144.54,1131.68,141,1133.14,137.28ZM1032.9,194.09c29-14.15,58.46-27.28,87-42.25a5,5,0,0,1,5.37-.06c1,.58,2.18.75,3.19,1.3,3.29,1.75,9.09,1.42,9.58,4.71.38,2.6-5.26,4.24-8.35,6.05-20.93,12.23-43.29,21.67-64.91,32.57-20.26,10.21-40.77,19.94-61.16,29.92-1.72.84-3.24,2.08-5.3.7-5.15-3.43-11-5.35-18.08-7.77C998.63,210.5,1015.82,202.42,1032.9,194.09ZM801.29,170.2c-14.51-6.89-24.84-17.12-30.67-32-6.4-16.25-12.65-32.57-19-48.83-1.71-4.38-1.34-7.84,3.26-10.15,5.23-2.64,8.35-2,10.69,3.45,4.6,10.76,8.69,21.71,12.94,32.61,1.82,4.64,3.71,9.27,5.28,14,4.27,12.76,12.59,21.29,24.89,27,42.76,20,85.27,40.62,127.87,61,.82.39,1.59.91,3.12,1.78-6.72,2.52-12.9,4.43-18.5,7.67-1.78,1-3.25-.09-4.82-.85C878,207.31,839.78,188.47,801.29,170.2Zm159.05,51.48c33.28,1,56.81,17.55,69.5,47.48s6,57.7-16,81c-12.39,13.11-27.91,21.65-46.77,22.18a28,28,0,0,0-3.84.88c-2.35.43-3.6-.34-3.58-3,.12-11.94.2-23.88.11-35.84,0-2.48,1.21-2.73,3.11-3,17.31-2.62,27.7-12.34,30.08-29.92.39-2.89,1.87-3.18,4.27-3.22,5.24-.11,10.54.61,15.72-.48,0-.55,0-1.11,0-1.66-5.33,0-10.68-.14-16,0-2.91.11-3.88-.88-4.35-3.8-2.54-15.3-13.45-25.56-29.19-27.4-3.07-.36-3.93-1.36-3.82-4.2a123.48,123.48,0,0,0-.28-13.18c-1.52,4.28-.67,8.78-.94,13.17-.16,2.63-.8,3.81-3.84,4.38-15.43,2.88-25,12.12-27.76,27.7-.5,2.89-1.66,3.39-4.09,3.34-4.53-.08-9.05,0-13.57,0,0,.72-.08,1.45-.13,2.16,4.54,0,9.06.14,13.58,0,2.85-.12,3.88.58,4.13,3.75a31.07,31.07,0,0,0,25.82,28.6c5,.85,6.27,3,6.19,7.47-.2,10.21-.33,20.42-.22,30.63,0,3.27-1.4,3.58-4.17,3.69-14,.52-26.18-4.88-37-12.69-26.24-18.94-38.11-45-31.9-76.93C892.32,246.81,924.35,220.6,960.34,221.68Zm-2,71.43c.1,2.88-1.17,3.11-3.38,3.05-3.45-.09-6.9,0-10.35,0v-.05h-6.9c-7.5,0-7.84-.22-5.21-7.07,3.85-10.08,10.81-16.92,21.7-19.27,3-.65,4.22-.05,4.14,3.24C958.12,279.69,958.05,286.41,958.31,293.11Zm-23.62,5.12c6.72.33,13.48.25,20.21,0,2.75-.1,3.83.88,4.22,3.9-.62-5.74,4.57-3,8.39-5.56-9.46.7-7.78-4.8-7.85-9.1-.07-4.82.24-9.63.1-14.43-.09-3.09.94-4,4-3.54,14.13,2,25.28,15.46,24.71,30.2-.54,14.41-12.85,26.55-27.77,27.37-13.51.75-27.45-10.81-29.44-24.33C930.86,300,930.73,298.05,934.69,298.23Zm-56.37-42.09a6.93,6.93,0,0,1,8-1.17c2.06,1-.42,3.24-1.24,4.77-15.36,28.78-10.37,74.36,18.42,98.66,2.65,2.24,5.31,4.45,7.93,6.72,1.94,1.69,3.93,3.05,6.74,2.35,1.81-.46,3.27.65,4.89,1.24,11,4,20.68,11.76,33.14,11.8,1.93,0,1.93.36,3.22,4.87,1-2-.85-5.32,2.92-4.86,12.06,1.5,20.65-7.27,31.13-10.38,3.79-1.12,6.78-5.38,11.57-2.66.54.31,2-.8,3-1.43,38.27-26.11,44.29-75.44,27.44-106.41-.78-1.45-3.12-3.66-.61-4.79a5.31,5.31,0,0,1,7.3,2.69A87.94,87.94,0,0,1,1050.3,285c3.56,25.12-3.11,47.58-17.8,67.9-13.26,18.35-31.87,28.8-53.37,33.84-34.18,8-63.69-3-86.75-27.63-22.41-23.9-29-53.55-20.83-85.89,1.38-5.47,3.74-10.46,6-15.55A5.06,5.06,0,0,1,878.32,256.14ZM723.42,337c24.22-5.35,44-19.85,65-31.8,27.41-15.62,54.54-31.72,81.8-47.61a23.47,23.47,0,0,1,2.7-1c-4.62,8.83-6.59,17.5-7.95,26.36-4,25.79,2.17,49.16,16.55,70.62,14.62,21.81,36.21,32.53,60.9,38.32,2.06.48,4.09,1,6.15,1.52l20.84.08c17.47-2.88,33.84-8.76,48.25-19.18,21.61-15.62,32.95-37.49,37.22-63.37,3.06-18.54-.35-36.23-7.4-53.61.6-.05,1.25-.33,1.61-.11,37.81,22.17,75.68,44.24,113.35,66.66,10.4,6.19,21.6,9.95,33.09,13,3.21.86,3.75,1.64,3.18,4.88q-5.71,32.37-10.86,64.82c-.71,4.53-2.49,5.34-6.8,4.71q-61.41-9.06-123.39-12.53c-29.41-1.6-58.85-2.07-88.27-3.51l-18.57,0c-21.95.77-43.9,1.35-65.84,2.36-46.37,2.15-92.64,5.46-138.56,12.53-12.26,1.88-12.18,1.8-14.44-10.64q-5.26-28.92-10.8-57.8C720.72,339.38,720.38,337.68,723.42,337ZM338.83,442.87c16.6-7.08,33.51-13.43,50.42-19.76a1626.56,1626.56,0,0,1,214.18-63.46c7.49-1.68,14.94-3.59,22.37-5.5,3-.78,4.44-.25,4.91,3.3a125.48,125.48,0,0,0,3.88,20.34c1.54,5.06-.28,6.13-4.57,7.1-25.84,5.86-51.83,11.12-77.38,18.1q-70.27,19.17-138.94,43.68c-29.67,10.64-58.56,23.16-87.84,34.72-7.88,3.11-7.85,3.19-7.73-5.5,0-.77,0-1.54,0-4C317.05,458,325.66,448.49,338.83,442.87ZM727.17,922.79c-30.6,7.64-60.73,17.07-91.67,23.37-45.62,9.31-92.28-10.68-117.69-49.65-11.82-18.15-17.3-38.34-22.4-58.87q-20.07-81.14-40.29-162.22c-1-4.11-1.7-8.3-2.93-12.34a21.32,21.32,0,0,0-20-14.65c-5.2,0-10.39-.09-15.6-.15-18.27.07-36.55.2-54.83.15a20.8,20.8,0,0,1-15.83-7.1c-4.53-4.94-9.18-9.78-13.79-14.66-4.1-2.93-7.08-7-10.42-10.64A14.3,14.3,0,0,1,318.15,606q0-56.07-.07-112.14c0-2.81.66-4.54,3.5-5.76a1776.19,1776.19,0,0,1,236-81.66c24.65-6.63,49.72-11.63,74.57-17.5,3.22-.77,4.51,0,5.06,3.26,1.76,10.42,3.63,20.82,5.71,31.18.67,3.35-.38,4.06-3.56,4.73-45.53,9.51-90.64,20.79-135,34.63-31,9.65-55.33,27.84-66.36,59.92a92.56,92.56,0,0,0-2.35,54C448.8,628.23,461.7,680,474.74,731.66c9.45,37.4,18.57,74.91,28.57,112.18,11.24,41.94,38,69.95,79.08,83.94,26.49,9,53,6.32,79.49-1,20.72-5.72,41.69-10.55,62.53-15.84,2.35-.59,5.06-1.52,4.76,2.18C728.9,916.34,734.45,921,727.17,922.79Zm373.9-25.1a18.33,18.33,0,0,0-.89,3.92c-.11,4.09-1.81,4.85-5.88,4.34-55.86-7-111.91-11.15-168.24-8.79-33.47,1.42-66.86,4.07-100,9.06-6.39,1-4.67-3.79-5.85-6.7-2-4.82,0-6.25,4.78-6.65,11.5-1,22.95-2.6,34.45-3.54,33-2.72,66-5.74,94.35-5,47.23-.23,89.41,2.94,131.49,7.94a122.21,122.21,0,0,0,12.65,1.1C1101.36,893.38,1101.7,895,1101.07,897.69ZM1187,909.82c-1,7-2.86,14-3.61,21-.49,4.61-2.3,5.19-6.32,4.42-21.34-4.06-42.73-7.83-64-11.94-3.88-.74-9.44.5-11.19-2.85-1.38-2.68,1-7.31,1.72-11.07,1-5.28,2-10.57,3-15.85.57-2.89-.44-4.16-3.52-4.46-46.16-4.54-92.28-10-138.79-9.24H953.68c-45.55-.56-90.72,4.53-135.91,9.17-3.23.32-4.4,1.15-3.59,4.64,1.77,7.66,3,15.43,4.7,23.12.68,3.19.19,4.69-3.5,5.35q-36.61,6.43-73.13,13.41c-3.14.59-4-.36-4.43-3.28-1.25-7.38-3.25-14.64-4.24-22-.67-5.08-2.57-5.75-7.19-4.56-25.84,6.62-51.69,13.23-77.65,19.35-46.81,11-86-1.86-118-37.8-13.32-14.95-19.68-32.79-24.8-51.38C502.65,824,500.11,812,497.24,800L471.13,697.17Q459.44,651,447.78,604.93c-3.32-13.21-7.25-26.29-9.41-39.78-2.49-15.6-.18-30.7,5.74-45.18,12.08-29.49,35.95-45.06,65.17-53.94,44.29-13.44,89.21-24.49,134.44-34.3,4.3-.94,5.22-2.14,4.41-6.39-5.34-27.73-10.25-55.53-15.68-83.26-.75-3.87.43-4.54,3.53-5.07,10-1.72,20.1-3.39,30.06-5.49,3.13-.66,3.56.5,4,3,1.31,7,2.83,13.93,4.25,20.9.21,1.05-.1,2.43,2.12,2.61-.32-7.68-2.22-15-3.78-22.36-.93-4.48.19-5.58,4.45-6.21,10.43-1.57,20.8-3.64,31.16-5.67,3.63-.72,5.06-.35,5.82,4.09,4.72,28,10,56,14.94,84,.79,4.51,3.21,4.83,6.84,4.37,22.12-2.84,44.27-5.54,66.4-8.37,18.36-2.33,36.85-2.94,55.29-4.05,39.42-2.37,78.88-4.37,118.39-3.58q68.76,1.36,137.31,7.09c22.4,1.9,44.65,5.51,66.94,8.6,9.84,1.36,10.67.91,12.29-9,4.35-26.76,8.81-53.51,13.2-80.26.34-2,.47-3.68,3.44-3.11,11.5,2.18,23.06,4.11,34.58,6.2,3.4.62,2,3.29,1.71,5.11-1.32,8.71-2.83,17.4-4.43,27.05,3.28-2.39,2.79-5.22,3.27-7.57q2-10.17,3.71-20.43c.45-2.77,1.55-3.35,4.3-2.77,10.15,2.13,20.31,4.26,30.56,5.78,4.41.64,5.22,2.24,4.49,6.27-4.56,24.95-9.15,49.9-13.3,74.92-2.56,15.51-4.55,12.44,9.75,15.53,45,9.73,89.73,20.86,133.65,34.8,30.7,9.76,52.18,29.6,61.13,61.36,1.43,5.13,1.74,10.58,2.59,15.88,2.3,14.42-1.52,28.13-4.78,41.9-1.1,4.61-2.58,9.14-3.89,13.7q-4.62,19.41-9.25,38.84c-.45,1.85-1.07,3.65-1.61,5.48q-6.06,27.76-13.67,55.13c-3.37,14.75-6.17,29.66-11.49,43.91.44,6.43-2.25,12.28-3.64,18.35-2.85,12.48-6.24,24.85-9.39,37.27-5.26,21.23-8.28,43.23-18,63-17.46,35.33-45.77,56.92-84.91,64.13-22.72,4.17-44.35-.84-66-6.26-20.31-5.08-40.64-10.1-60.9-15.38C1189.37,904.62,1187.62,905.58,1187,909.82ZM1584,631c-20.57,20.47-14.25,17.3-42.61,17.52-17.34.12-34.71.34-52-.3-8.62-.33-19,7-21.26,16.29q-15.16,61.29-30.4,122.58c-6.63,26.67-11.88,53.78-20.29,79.87-19.82,61.45-76.35,93-139.08,78.42-28.62-6.67-56.82-15.12-85.26-22.59-4.92-1.29-2.24-4.22-2.24-6.75,0-5.55,2.61-5.57,7.2-4.43,26.82,6.66,53.35,14.61,80.57,19.49,41.71,7.49,77.72-3.63,108.34-33.37,19.14-18.58,27.92-41.68,34-66.76,12.78-52.81,26.13-105.49,39.3-158.2,6-23.87,12-47.69,18.06-71.54,1.5-11.07,5.64-21.54,7.26-32.62a148.77,148.77,0,0,0,1.09-19c-1.13-11.51-3-22.79-7.67-33.55-12.28-28.47-34.71-44.87-63.52-53.46-44.19-13.16-88.7-25.1-134-34-3.64-.71-4.47-1.87-3.62-5.71,2.23-10.14,3.88-20.4,5.51-30.65.52-3.26,1.36-3.82,4.81-3.07,52.13,11.4,103.83,24.5,154.6,41,44.15,14.33,88,29.56,130.66,48,8.1,3.51,16.32,6.71,24.51,10,2.09.83,4.11,1.68,4.08,4.39V607.09C1602,615.31,1584,631,1584,631Z"/><path class="cls-2" d="M1481.13,545.62c-.85-5.3-1.16-10.75-2.59-15.88-9-31.76-30.43-51.6-61.13-61.36-43.92-13.94-88.6-25.07-133.65-34.8-14.3-3.09-12.31,0-9.75-15.53,4.15-25,8.74-50,13.3-74.92.73-4-.08-5.63-4.49-6.27-10.25-1.52-20.41-3.65-30.56-5.78-2.75-.58-3.85,0-4.3,2.77q-1.67,10.25-3.71,20.43c-.48,2.35,0,5.18-3.27,7.57,1.6-9.65,3.11-18.34,4.43-27.05.27-1.82,1.69-4.49-1.71-5.11-11.52-2.09-23.08-4-34.58-6.2-3-.57-3.1,1.11-3.44,3.11-4.39,26.75-8.85,53.5-13.2,80.26-1.62,9.92-2.45,10.37-12.29,9-22.29-3.09-44.54-6.7-66.94-8.6q-68.52-5.79-137.31-7.09c-39.51-.79-79,1.21-118.39,3.58-18.44,1.11-36.93,1.72-55.29,4.05-22.13,2.83-44.28,5.53-66.4,8.37-3.63.46-6.05.14-6.84-4.37-4.9-28-10.22-55.93-14.94-84-.76-4.44-2.19-4.81-5.82-4.09-10.36,2-20.73,4.1-31.16,5.67-4.26.63-5.38,1.73-4.45,6.21,1.56,7.33,3.46,14.68,3.78,22.36-2.22-.18-1.91-1.56-2.12-2.61-1.42-7-2.94-13.91-4.25-20.9-.46-2.46-.89-3.62-4-3-10,2.1-20,3.77-30.06,5.49-3.1.53-4.28,1.2-3.53,5.07,5.43,27.73,10.34,55.53,15.68,83.26.81,4.25-.11,5.45-4.41,6.39-45.23,9.81-90.15,20.86-134.44,34.3-29.22,8.88-53.09,24.45-65.17,53.94-5.92,14.48-8.23,29.58-5.74,45.18,2.16,13.49,6.09,26.57,9.41,39.78q11.63,46.13,23.35,92.24L497.24,800c2.87,11.94,5.41,24,8.67,35.78,5.12,18.59,11.48,36.43,24.8,51.38,32.08,35.94,71.22,48.81,118,37.8,26-6.12,51.81-12.73,77.65-19.35,4.62-1.19,6.52-.52,7.19,4.56,1,7.41,3,14.67,4.24,22,.48,2.92,1.29,3.87,4.43,3.28q36.53-6.91,73.13-13.41c3.69-.66,4.18-2.16,3.5-5.35-1.66-7.69-2.93-15.46-4.7-23.12-.81-3.49.36-4.32,3.59-4.64,45.19-4.64,90.36-9.73,135.91-9.17h10.56c46.51-.76,92.63,4.7,138.79,9.24,3.08.3,4.09,1.57,3.52,4.46-1,5.28-2,10.57-3,15.85-.71,3.76-3.1,8.39-1.72,11.07,1.75,3.35,7.31,2.11,11.19,2.85,21.32,4.11,42.71,7.88,64,11.94,4,.77,5.83.19,6.32-4.42.75-7.05,2.56-14,3.61-21,.63-4.24,2.38-5.2,6.53-4.13,20.26,5.28,40.59,10.3,60.9,15.38,21.69,5.42,43.32,10.43,66,6.26,39.14-7.21,67.45-28.8,84.91-64.13,9.76-19.77,12.78-41.77,18-63,3.15-12.42,6.54-24.79,9.39-37.27,1.39-6.07,4.08-11.92,3.64-18.35,5.32-14.25,8.12-29.16,11.49-43.91q7.62-27.36,13.67-55.13c.54-1.83,1.16-3.63,1.61-5.48q4.65-19.42,9.25-38.84c1.31-4.56,2.79-9.09,3.89-13.7C1479.61,573.75,1483.43,560,1481.13,545.62ZM676.55,368.36c-.16-1-.14-2.06,1.1-2.09a1.82,1.82,0,0,1,1.77,1.84q.42,3.88.85,7.77C677.51,373.74,677,371.07,676.55,368.36Zm14.33,71.78c-3.73-18.71-8.45-37.23-11-56.16l2-.37q5.22,28,10.47,56.07C691.86,439.83,691.36,440,690.88,440.14Zm85.82,481.7c-4.2-18.16-6.19-36.75-9.48-55.09.53-.11,1.06-.2,1.6-.3l10,55Zm-7.86-79.11c-2.8.45-3.63,1.28-3.32,3.89.17,1.44.38,3-.87,4.24-.5-.23-1.08-.38-1.08-.52.11-5.58-2.58-7.51-8.12-8.93-13.24-3.43-20.2-13-23.68-26.22-1.46-5.58,1-10.1.56-15.12,4.06-9.94,10.31-17.76,20.62-21.89,14.27-5.7,36.64-.85,44.27,21.91C802.12,822,790.78,839.16,768.84,842.73Zm375.23,78.41-1.62-.28q4.6-27.72,9.18-55.43l2.62.45Q1149.17,893.51,1144.07,921.14Zm46.47-105.62c-3.16,13.87-11.35,22.73-25.1,26.32-7.81,2-7.84,1.92-9.1,8.83-.33,0-.94-.09-.94-.11.25-6.59-3.81-8.13-9.42-9.8-12.89-3.79-19.39-13.62-21.69-26.51-.22-1.26.34-2.75-1.07-3.66,0-.84-.12-1.67-.18-2.5,1.78-2.34,1.22-5.24,1.94-7.85,7.59-23.25,33.4-30.43,51.21-18.62,6.87,4.55,10.78,11.18,13.94,18.45C1190.2,805.21,1191.74,810.22,1190.54,815.52Zm34.9-357.77c-1.22-2.48-1.44-4.4,0-6.23.09-.12.82,0,1,.24C1228,453.78,1227.11,455.52,1225.44,457.75Zm2.35-15.06c-.82-5.1,7.35-51.79,10-55.42A521,521,0,0,1,1227.79,442.69Zm10.87-62.92c-.12-3.59-.67-7.3,1.78-11.65C1242.43,373.27,1239.72,376.39,1238.66,379.77Z"/><path class="cls-1" d="M1190.13,800.07c-3.16-7.27-7.07-13.9-13.94-18.45-17.81-11.81-43.62-4.63-51.21,18.62-.72,2.61-.16,5.51-1.94,7.85.06.83.13,1.66.18,2.5,1.41.91.85,2.4,1.07,3.66,2.3,12.89,8.8,22.72,21.69,26.51,5.61,1.67,9.67,3.21,9.42,9.8,0,0,.61.07.94.11,1.26-6.91,1.29-6.8,9.1-8.83,13.75-3.59,21.94-12.45,25.1-26.32C1191.74,810.22,1190.2,805.21,1190.13,800.07Zm-35.52,24.6h0c0,2.48,0,5,0,7.46.07,7-.28,7.27-6.92,4.44-9.77-4.14-16.22-11.21-18.61-21.73-.74-3.21-.34-5,3.77-4.73,5.92.34,11.89.14,17.81-.1,2.9-.13,4.21.63,4,3.74C1154.45,817.38,1154.61,821,1154.61,824.67Zm7.41,13.44c-3.88.81-5.21-.33-5.09-4.24.19-6.74.22-13.48,0-20.22-.11-3,1.11-3.57,3.69-3.46,3.44.15,6.91,0,11.83,0-4.11-2.61-7.35-1.83-10.2-1.58-4.16.36-5.59-.93-5.12-5a77.33,77.33,0,0,0,.17-8.06c-.31-.71-.43-1.77-.94-2-1.32-.62-1.49.5-1.52,1.47-.09,3.46-.26,6.93-.18,10.39.07,2.44-.75,3.38-3.31,3.35-6.54-.1-13.09-.1-19.61.22-3,.13-3-1.22-2.91-3.43.69-10.66,11.82-22.66,22.53-24.2,2.33-.34,2.33-.34,4.7,5,2-6.61,2.39-7,9.39-4.43,7.93,2.91,14.89,7.17,17.72,15.89C1190.86,815.82,1181.28,834.09,1162,838.11Z"/><path class="cls-1" d="M797.22,800.09c-7.63-22.76-30-27.61-44.27-21.91-10.31,4.13-16.56,12-20.62,21.89.4,5-2,9.54-.56,15.12,3.48,13.24,10.44,22.79,23.68,26.22,5.54,1.42,8.23,3.35,8.12,8.93,0,.14.58.29,1.08.52,1.25-1.2,1-2.8.87-4.24-.31-2.61.52-3.44,3.32-3.89C790.78,839.16,802.12,822,797.22,800.09Zm-34,14c-.25,3.24-.06,6.5-.06,9.76h0c0,3.64-.11,7.28,0,10.91.12,3.33-1.34,3.88-4.26,3.09-12.26-3.3-19.23-11.8-22.92-23.4-.75-2.37-.24-4.42,3.3-4.32,6.7.2,13.41.14,20.11-.06C762.51,810,763.48,811.08,763.25,814.07Zm30.07,1.46c-3.55,12.09-11.14,19.87-23.67,22.62-3.42.75-4.39-.26-4.26-3.67.26-6.72.31-13.47.1-20.2-.09-3.21.72-4.5,4.12-4.13a88.8,88.8,0,0,0,9.13.07c-1-2.24-2.31-1.66-3.33-1.7-10.24-.46-10.24-.44-9.56-10.75-.66-1,.38-2.85-2-3.35-.5,2.9-1.6,5.81-1.32,8.6.47,4.88-1.13,6.34-6,6a141.45,141.45,0,0,0-16.73-.08c-3.41.12-3.93-1.3-3.32-4.19,2.38-11,8.78-18.55,19.36-22.56,4.27-1.62,8-2.46,7.69,4.17a5.29,5.29,0,0,0,1.34-.39c.07-6.11,3.6-5.75,7.84-4.28,8.35,2.9,15,7.68,18.12,16.35.72,1.55,1.51,3.06,2.16,4.65,1.48,3.58,1.36,6.34-4.5,6.44C793.91,809.29,794.38,811.89,793.32,815.53Z"/><path class="cls-1" d="M1237.78,387.27a521,521,0,0,1-10,55.42C1227,437.59,1235.14,390.9,1237.78,387.27Z"/><path class="cls-1" d="M1154.25,865.88q-5.09,27.63-10.18,55.26l-1.62-.28q4.6-27.72,9.18-55.43Z"/><path class="cls-1" d="M692.36,439.68c-.5.15-1,.3-1.48.46-3.73-18.71-8.45-37.23-11-56.16l2-.37Q687.11,411.63,692.36,439.68Z"/><path class="cls-1" d="M778.87,921.44l-2.17.4c-4.2-18.16-6.19-36.75-9.48-55.09.53-.11,1.06-.2,1.6-.3Z"/><path class="cls-1" d="M1238.66,379.77c-.12-3.59-.67-7.3,1.78-11.65C1242.43,373.27,1239.72,376.39,1238.66,379.77Z"/><path class="cls-1" d="M680.27,375.88c-2.76-2.14-3.28-4.81-3.72-7.52-.16-1-.14-2.06,1.1-2.09a1.82,1.82,0,0,1,1.77,1.84Q679.84,372,680.27,375.88Z"/><path class="cls-1" d="M1225.44,457.75c-1.22-2.48-1.44-4.4,0-6.23.09-.12.82,0,1,.24C1228,453.78,1227.11,455.52,1225.44,457.75Z"/><path class="cls-1" d="M973.16,297.41c3.32-1.86,6.62-1.21,10-.48C979.88,298.85,976.51,298.32,973.16,297.41Z"/><rect class="cls-2" width="1" height="1"/><rect class="cls-2" x="1919" y="1079" width="1" height="1"/><rect class="cls-2" y="1079" width="1" height="1"/><rect class="cls-2" x="1919" width="1" height="1"/></g><g id="Capa_3" data-name="Capa 3"><path d="M835.1,577.23v111H815.27V617.52l-19.51,14.91L779.58,645l-16.17-12.53L743.9,617.52v70.74H724.07v-111l19.83,15.23,35.68,27.44,35.69-27.44Z"/><path d="M889,614.19v75.5H869.19V612.13a15.8,15.8,0,0,0-13.48-13.48h-4.44V579h4.28v.16A35.41,35.41,0,0,1,885.06,599a41.54,41.54,0,0,1,2.69,7.46,33,33,0,0,1,1,8.09Z"/><path d="M942.63,614.19v75.5H922.8V612.13a15.8,15.8,0,0,0-13.48-13.48h-4.44V579h4.28v.16A35.41,35.41,0,0,1,938.67,599a41.54,41.54,0,0,1,2.69,7.46,33,33,0,0,1,.95,8.09Z"/><path d="M1066.35,643.22a31.67,31.67,0,0,1,2.7,12.85,32.63,32.63,0,0,1-32.68,32.67h-78.2V668.91h78.2a12.93,12.93,0,0,0,12.85-13,12.77,12.77,0,0,0-11.42-12.85H958.17V577.71h101.68v19.83H978v25.69h59.64a32.17,32.17,0,0,1,28.87,19.83Z"/><path d="M1195.93,577.23v111H1176.1V642.58h-58.52a31.5,31.5,0,0,1-14.91-3.64,32.41,32.41,0,0,1-17.77-29V577.23h19.83v32.68a13.07,13.07,0,0,0,13,13h58.53V577.23Z"/></g></g></svg>