<svg xmlns="http://www.w3.org/2000/svg" viewBox="0 0 1920 1080"><defs><style>.cls-1{fill:#f2f2f2;}.cls-2{fill:#020202;}</style></defs><g id="Capa_2" data-name="Capa 2"><g id="Capa_1-2" data-name="Capa 1"><rect class="cls-1" width="1" height="1"/><rect class="cls-1" x="1919" y="1079" width="1" height="1"/><rect class="cls-1" y="1079" width="1" height="1"/><rect class="cls-1" x="1919" width="1" height="1"/><path class="cls-2" d="M951.87,749.94c-11.53.42-23.08.11-34.62.21-2.13,0-5.68-1-5.6,2.44.25,10.84-7.5,9.37-14,9.39-37.28.17-74.57.13-111.85.24-62.79.17-119.08,21.52-172.24,53-14.57,8.89-30.11,13.58-47.31,10.66-3.37-.57-5.53.3-5.12,3.8.79,6.75-3.6,5.94-7.79,5.93q-22.64-.06-45.26,0c-11.58,0-11.58,0-15.61-8.94-2.18,4.33-2.56,4.34-2.32,11s-2,8.77-8.7,8.63c-16.26-.35-32.52,0-48.79.1-18-.09-36.54,2.72-53.66-1.09-16.88-3.75-26.88,4.91-38.39,12.13-6.93,4.35-11.89,5.35-16.14-2.61-8.22-13.64-16.27-27.38-24.72-40.87-3.48-5.56-3.68-9.31,2.81-12.75,7.29-3.87,15-7.69,20.92-13.24,7.34-6.88-2.32-14.31-1.51-22.33,1.67-16.7.16-33.69.74-50.54.27-7.68-1.84-10.09-9.77-10-30.48.4-61,.1-91.44,0-5.89,0-11.92.39-17.58-1.66-12.06-4.37-17.86-14.45-17.85-30.57V528.87a5.5,5.5,0,0,1,4.68-6.45c22.82-5,45.62-2.17,68.29-2.41,7.77-.09,10.16-2.15,10-10-.45-20.4,0-40.83.1-61.24.17-35.7,16.18-61.64,48.32-77.2a1629.73,1629.73,0,0,1,232.07-91.69c20.59-6.32,41.36-12.08,62.14-17.75,4.63-1.26,5.58-3.09,4.24-7.44-2.11-6.86,1.08-10.54,7.86-11.92,11.56-2.35,23.06-5,34.63-7.34,5.61-1.11,10.84-1.3,10.81,7,0,6.24,4.54,5.91,8.86,5,33.31-6.81,66.93-11.75,100.62-16.14q60.26-7.86,120.89-11.95c7-.47,12.68.06,11.83,9.34-.17,1.77.21,3.94,2.58,3.81,3.68-.19,8.89,1.84,10.66-1.94,2.87-6.18,7.46-4.59,12-4.46h48.54c3.92-.18,6.93-.91,9,4.29,1.57,4,6.82,1.64,10.44,1.76,3.26.11,3.61-2.31,3.41-4.93-.59-7.38,4.15-7.81,9.75-7.81,0,0,68.91,5.48,89.26,7.91,1.46.17,2.9.54,4.37.69,43.51,4.51,86.76,10.76,129.65,19.37,5.78,1.16,9.42,0,9.74-6.28.37-7.13,4.66-7.15,9.84-6,11.23,2.49,22.4,5.31,33.7,7.41,7.91,1.46,11.92,4.73,9.12,13.23-1.1,3.35-.3,5.19,3.72,6.2,59.28,14.94,117.12,34.35,174,56.71,42.83,16.85,85.31,34.59,126.18,55.83,24.76,12.88,39.28,33.61,42.39,61.55,2.71,24.46.89,49,1,73.56,0,7.76,1.77,10.49,10.21,10.49,21.24,0,42.59-2.45,63.72,1.48,0,0,9.17,3.48,9.35,12.09s-.16,25-.16,25c-.9,27.17-1.19,54.33.16,81.49-.18,9.74-.44,19.47-.52,29.21-.22,26.74-9.14,35.7-35.73,35.75-30.76.07-61.52.32-92.28,0-6.45-.07-8.74,1.17-8.45,8.1.58,13.58-.62,27.24.26,40.78,1,15.84-3.36,29.34-12.25,42.32-9.58,14-17.84,28.9-26.74,43.5,0,0-2.84,6.56-15.44,6.56s-55.24-.06-55.24-.06c-15.3-.09-30.59-.22-45.89-.25-12.72,0-12.77-.05-12.53-12.91,0-2.22.87-4.57-1.77-7.84-1.53,15.13-12.2,9.75-20,10.07-12.92.54-25.88.37-38.82.5-4.6-.81-11.55,2-10.6-7.23.3-2.94-2.47-2.94-4.48-2.6-21.39,3.71-39-5.48-56.25-16.19-5.47-3.39-11.5-5.85-17.27-8.74-11-7-23.06-11.48-35-16.18-29.94-11.73-60.61-20.57-93-22-37.87-1.95-75.75-1.82-113.64-.44-7.67-.19-15.35-.27-23-.6-4.19-.19-7.76-1.46-7.05-6.82.73-5.53-2.79-5.31-6.61-5.25-10.65.17-21.33.55-31.95.05Zm-539.2,81.34,27.22.66c2.66.07,5.34.12,7.08-2.46,8.61-12.77,19.4-24.31,22.73-40.07a34.67,34.67,0,0,0,3.22-21.54c-8.5-50.59-59.94-70.32-96.95-44.81-9.73,6.7-18.46,15-28.69,20.77-10.55,5.93-11.69,14.18-10.49,24.46,1.14,9.69,2.4,10.49,10.51,5.51,24.92-15.3,49.79-30.69,74.81-45.84,13.83-8.37,19.59-7,28.62,6.61,4.56,6.88,8.59,14.13,12.71,21.29,9.21,16,8.89,17.79-4.8,29.61-10.36,5.26-19.94,11.81-29.52,18.33-15.44,8-30,17.46-45.78,27.48ZM480.14,768c1.06,24.54-10.39,44.4-26.14,64,6.43,0,10.55-.42,14.56.09,7.42.95,9.39-2.23,8.13-9-1.37-7.37,1.38-11.37,9.46-10.64,5.86.53,8.44-2,8.22-8.19-.43-12.08-.31-24.19-.41-36.28a262.57,262.57,0,0,0-.52-41.5c-.86-8.93-3.2-17.25-9.42-24.07-7.38-10.88-18.41-15.24-30.81-16s-24.71-.3-37.06-.68c-31.83-1-46.39-12.18-54.8-41.84q-.35-42.68-.7-85.34c.25-37.17.37-74.34.78-111.52.3-27,13-47.22,35.45-61.49,6.9-4.37,14.34-7.88,21.53-11.79,2.89.8,5.19-1.05,7.52-2,20.21-8.37,40.39-16.78,61-24.17,49.3-17.66,99.09-33.65,150.08-45.8,59.12-14.08,119-23.79,179.34-30.51,33.44-3.73,67-7.24,100.68-7.95,2.75-.06,6.49,1.06,8.15-3.33a10.82,10.82,0,0,0-2.92-.76c-44.64,3.26-89.31,5.89-133.79,11.37-33.42,4.12-66.65,9.1-99.63,15.67-63.42,12.62-125.41,30.44-186.38,51.87-28.49,10-57,20.09-84.46,32.69-3.59,1.11-7.37,1.8-10.73,3.39-39.13,18.5-78,37.52-116,58.3-6.17,3.37-8.23,7.1-8.14,13.81.31,22.46.14,44.93,0,67.39-.09,13.8-7.11,20.35-20.9,20.26-17.74-.12-35.49.24-53.22-.21-7-.17-9,2.06-9,9,.29,41.68.1,83.35.12,125,0,21.16,2,23.34,23.21,23.47,31.34.19,62.68,0,94,.16,13.65.07,19.2,5.84,19.34,19.56.11,9.92,0,19.85,0,31.48,10.13-7.48,19-14.07,27.93-20.64,28.78-21.24,56.72-22.53,87.28-4C467.48,731.08,477.58,747.43,480.14,768Zm542.17-24.78c-.78,7.16,4.68,4.64,7.82,4.65,31.36.1,62.71-.16,94.06,0,14.48.07,29,0,43.4,1.78,22.86,2.9,44.92,8.9,66.69,16.25,1.81.61,4.77,3,6.09-.18s-2.29-3.74-4.22-4.28c-8.25-2.3-16.09-5.75-24.18-8.4-18.18-6-36.56-11.47-55.08-16.28-33.13-8.62-66.71-15-100.87-18-25.43-4.11-51.15-4.86-76.79-6.6-18.48-1.26-18.24-1.33-18,17.26.06,5.59,1.82,6.89,7.17,6.75,14.78-.4,29.57,0,44.36-.31C1018.33,735.71,1021.8,737.27,1022.31,743.23Zm467.05,88.23c16.26.1,32.51.12,48.77.32,5.93.08,9.92-2.35,13-7.49,8.57-14.48,17.28-28.88,26.32-43.08,4.68-7.36,6.14-15.15,5.77-23.64a10.38,10.38,0,0,0-4.68-8.88c-11.07-7.87-21.9-16.09-32.93-24-17.92-12.87-37.22-16.72-58.25-8.51-27.5,9.56-44.54,39-39.45,67.21,2.55,14.15,11.21,25,17.82,37.07C1471.3,830.67,1478.65,833.83,1489.36,831.46ZM1434.17,704c-4.62,5.27-6.78,11.6-7.46,18.42-2.64,26.84-.44,53.77-1.39,80.64-.24,6.87.74,10.61,8.84,9.39,6-.92,10.13,2,8.94,8.62-1.79,9.87,2.65,12.36,11.35,10.84,2.78-.49,6.59,1.47,8.18-1.34,1.78-3.16-2.09-5.1-3.74-7.27-14.8-19.38-22.84-40.45-17.54-65.24,3.29-15.37,12.17-27.22,23.11-37.87,32.39-21.54,60.91-20.61,92.13,3,6.84,5.17,13.66,10.36,20.54,15.47,1.54,1.14,3,3.7,5.16,2,1-.76.77-3.18.78-4.85,0-9.46-.3-18.93,0-28.37.34-9.93,5.47-15,15.45-15.78,5.3-.4,10.64-.35,16-.36,29.28-.06,58.56.08,87.83-.19,12.69-.11,15.75-3.05,16.76-15.56a172.57,172.57,0,0,0,0-31.82q1.17-43.41-.09-86.81c.22-4.69.31-9.4.7-14.08.57-6.61-1.63-9.38-8.91-9.15-17.41.54-34.85.11-52.28.24-15.69.12-21.94-6-22-21.79,0-22.14-.23-44.29-.07-66.43,0-6.39-2.32-10.27-8.16-13.11-10.85-5.28-21.28-11.42-32-16.94-27.48-14.1-54.74-28.67-83.52-40.06a93.33,93.33,0,0,0-8.54-4.42c-24.83-9.93-50.07-18.84-75-28.42-45.21-17.39-91.66-30.29-138.25-42.88-58.25-15.74-117.8-24.86-177.63-31.64-37.83-4.29-75.94-6.12-113.92-9-1.89-.14-4.86-1.17-5,1.79s2.94,2.15,4.8,2.22c36.89,1.34,73.57,4.69,110.23,9.11,28.63,3.45,57.28,6.71,85.68,11.55a1298.76,1298.76,0,0,1,238.81,64.21c25.12,9.43,50,19.59,74.92,29.42a27.39,27.39,0,0,0,2.91,1.9c31.86,15.07,47.32,40.08,47,75.44-.36,34.57.14,69.14.26,103.71l-.41,85.24c-8.42,33.9-32.19,42.08-59.9,42.11-11.21,0-22.47-.34-33.61.58C1452.33,687.55,1441,692.13,1434.17,704ZM286.08,424.88c4.55.91,6.74-1.46,9.2-2.79,51.21-27.67,103.67-52.49,158-73.49,130.68-50.48,265.43-82.47,405.34-92,20.36-1.38,40.75-2.43,61.12-3.68,2.51-.15,6,.57,6-3.37s-3.27-3.37-5.85-3.35c-4.74,0-9.48,0-14.2.28-5.1.29-8.27-2-8.19-7,.1-5.68-2.75-6.09-7.23-5.66-20.6,2-41.25,3.44-61.82,5.73-51.38,5.73-102.61,12.56-153.35,22.61-8.55,1.69-14.88,3.49-18.28-9.15-1.76-6.54-12.54,1.37-19.4,1.37-2.52,0-7.92-.36-6,5,3.83,10.62-3.08,12.78-10.69,14.74a1503.58,1503.58,0,0,0-203.74,68.38c-34.88,14.52-69.93,28.77-102.95,47.35C300.39,397.59,291.81,409.68,286.08,424.88Zm1346.35.4c.68-3.12-1.27-5.5-2.44-8.1-6.91-15.32-19-25.37-33.7-32.56A1599.15,1599.15,0,0,0,1374.54,296c-25.6-8.06-51.31-15.72-77.35-22.3-4.67-1.18-11.85-2.23-9.89-8.77,3.06-10.25-3.1-10.54-9.68-11.64a46.64,46.64,0,0,1-9.51-2.11c-4.7-1.87-6.19-.47-6.7,4.36-.74,7.12-5.22,9.17-12,7.8-13.3-2.66-26.65-5.18-40-7.48C1149.6,245.53,1089.4,238.87,1029,234c-3.67-.3-7.22-.83-6.8,5,.38,5.31-3.2,7.19-8,7.22-4.44,0-8.89-.2-13.31,0-2.6.16-6.84-1.75-7.1,2.79-.3,5.23,4.48,3.67,7.28,3.82,25.69,1.38,51.34,3.22,77,5.35,68.74,5.73,136.76,15.69,203.72,32.43,120.74,30.18,236.9,72.3,345.72,133.38C1629,424.86,1630.29,426.25,1632.43,425.28ZM928.37,736.11v-.17c3.84,0,7.69,0,11.54,0,18.54.11,18.41.13,17.35-18.56-.25-4.42-1.28-6.15-6.16-5.9-39.86,2.09-79.67,4.79-119.13,11a753.34,753.34,0,0,0-196.81,58.82c-22.48,10.25-43.67,25.82-70.8,20.88-3-.55-4,1.94-3.63,4.72.33,2.57,0,5.59,4,5.6,12.73,0,25.32.35,36.8-7.06,14.4-9.3,29.74-16.92,45.32-24.12,49.82-23,101.72-35.57,157-33.63,28.36,1,56.79.27,85.18.4,4.3,0,8.36.59,8.24-5.92-.09-5,3.84-6,8.07-6ZM376.93,826.2c.7-.36,1.52-.7,2.27-1.16q39.65-24.35,79.27-48.67c4.53-2.78,4.75-6.31,2.26-10.42-5.63-9.34-11.37-18.62-17-27.94-6.17-10.17-6.89-10.59-17-4.44-24.74,15-49.29,30.29-74,45.33-3.7,2.25-5,4-2.17,8.24,7.65,11.57,14.74,23.51,22.06,35.3C373.59,824.11,374.06,826.45,376.93,826.2Zm-37.21-39.14-4.15,2.5c-8.31,5-16.43,10.42-25,15-5.17,2.74-5,5.14-2.15,9.53,7.37,11.37,14.54,22.88,21.26,34.64,2.52,4.41,4.56,4,8.18,1.75,8.69-5.54,17.44-11,26.46-16,4.36-2.42,4.17-4.5,1.79-8.25-7.56-11.92-14.83-24-22.12-36.12C343.05,788.48,342.41,786.85,339.72,787.06Zm1002.52,25.39c4.67,0,7-.12,9.39,0,4,.24,6.78-.33,6.81-5.49,0-5.85-3.64-4.82-7.16-4.7-8,.27-16.34,1.79-23.7-1.2-16.1-6.53-31.68-14.32-47.56-21.4-11.54-5.15-23.2-10-34.84-14.93-1.5-.64-3.51-1.57-4.42.81s.94,3.06,2.58,3.78c1.08.47,2.18.91,3.29,1.32,24.5,9.19,47.7,21,70.21,34.29C1325.39,810,1334.45,813.1,1342.24,812.45Z"/><path class="cls-1" d="M1551.09,558.56c0,26.23.13,52.46,0,78.68,0,3.45-1.34,6.88-2.06,10.32-5.42,18.56-16.94,28.53-36,30-11.77.91-23.62,1-35.42.88-23.8-.16-43.69,6.45-54.65,29.74-.59,1.22-1.92,2.08-2.9,3.11-3.09,37.67-1,75.43-1.69,113.15-.07,3.63-1.31,4.41-4.66,4.38-14.48-.14-29-.18-43.46.08-4.38.07-5.34-1.48-5.35-5.61,0-9.41,1.45-18.88-.64-28.24-22.88,2.94-43.64-3.14-63.42-14.33-7.31-4.15-15.33-7.07-23-10.54a869.63,869.63,0,0,0-125.92-42.89q-44.42-8-88.8-16c-32.29-2.64-64.53-6.18-97-6.51l-20.23-.55c-28.47,2.29-57,4.19-85.37,7-17.83,1.79-35.51,5-53.26,7.63C771,726.71,735,735.4,700,747.58a891.58,891.58,0,0,0-96.14,40.22,72,72,0,0,1-37.54,7.44c-4.23-.3-8.81-1.83-12.82,1.23,1.57,9.37-.18,18.8.5,28.17.28,3.83-1.63,4.29-4.72,4.26-14.41-.11-28.82-.2-43.22-.06-3.86,0-5.17-1.3-5-5.09.4-9.09.52-18.19.75-27.28-.16-17.92-.51-35.84-.42-53.75a144.9,144.9,0,0,0-3-31.45c-10.11-23.73-29.25-32.61-53.77-32.85-12.72-.11-25.46-.1-38.14-.9-18.81-1.18-32.35-13.48-36.23-32-1.63-1.66-1.48-3.83-1.48-5.83q0-40.58.14-81.14c0-38.73-1.09-77.5.24-116.19C370,416.15,386,398.33,409,387c25.14-12.4,51.39-22.22,77.61-32.05a1294.65,1294.65,0,0,1,246.53-65.75,1623.77,1623.77,0,0,1,191.2-19.73c6.83-.29,10-1.83,9-9-.45-3.19-.09-6.5-.12-9.76-.17-17.46-.16-17.24,17.39-18l29.15-.18c5.34-.2,7.48.86,7.11,6.64-.5,7.95.08,16-.26,23.95-.19,4.74,1.75,6.06,6.2,6.21,39,1.45,77.91,4.57,116.65,9.14,98.6,11.62,195.47,31.35,289.33,64.4,37,13,73.84,26.16,109.25,43.09,29,13.86,43.85,36.32,43.44,68.87C1551,489.37,1551.18,524,1551.09,558.56Z"/><path class="cls-2" d="M1493,784c-3-6.24-2.73-12.69-1.24-19.21,5.42-7.68,12.68-11.55,22-8.91,6.9,2,11.48,7,12.94,14.23,1.65,8.18-2.36,15.64-10.17,19.52C1508.2,793.74,1500.89,792,1493,784Zm15.86-22c-6,0-12.08,6-12,11.27s6.38,11.35,11.71,11.37c6,0,11.37-5.34,11.09-11.37C1519.25,766.35,1515.33,762.66,1508.82,762.05Z"/><path class="cls-2" d="M393.51,773.31c-.07-10.75,7.37-18,18.54-18,10.12,0,18,8.33,17.87,19-.08,9.06-9.17,17.43-18.85,17.37S393.57,783.45,393.51,773.31Zm17.28,11.42c7.09-.49,11.48-4.18,11.68-10.91s-3.45-11.25-10.55-11.44c-6.94-.18-11.1,3.68-11.35,10.6S404.27,783.7,410.79,784.73Z"/></g><g id="Capa_3" data-name="Capa 3"><path d="M835,457v111H815.19V497.31l-19.51,14.91L779.5,524.75l-16.18-12.53-19.51-14.91v70.74H724V457l19.83,15.23,35.69,27.44,35.69-27.44Z"/><path d="M888.94,494v75.5H869.11V491.92a15.8,15.8,0,0,0-13.48-13.48h-4.44V458.77h4.28v.16A35.42,35.42,0,0,1,885,478.75a42.36,42.36,0,0,1,2.7,7.46,33.47,33.47,0,0,1,1,8.09Z"/><path d="M942.54,494v75.5H922.72V491.92a15.81,15.81,0,0,0-13.48-13.48h-4.45V458.77h4.29v.16a35.42,35.42,0,0,1,29.5,19.82,42.36,42.36,0,0,1,2.7,7.46,33.47,33.47,0,0,1,1,8.09Z"/><path d="M1066.26,523a31.5,31.5,0,0,1,2.7,12.85,32.63,32.63,0,0,1-32.68,32.67H958.09V548.71h78.19a12.93,12.93,0,0,0,12.85-13,12.77,12.77,0,0,0-11.42-12.85H958.09V457.5h101.67v19.83H977.91V503h59.64a32.17,32.17,0,0,1,28.87,19.83Z"/><path d="M1195.53,548.54v19.83H1084.81V535.7a31.67,31.67,0,0,1,2.7-12.85,32.59,32.59,0,0,1,28.87-20h48.06a13,13,0,0,0-1.11-25.85h-78.2V457.18h78.2A32.63,32.63,0,0,1,1196,489.86a32.33,32.33,0,0,1-9.35,22.68,32.93,32.93,0,0,1-22.37,10h-47.9a12.92,12.92,0,0,0-11.58,12.85v12.85Z"/></g></g></svg>