<svg xmlns="http://www.w3.org/2000/svg" viewBox="0 0 1920 1080"><defs><style>.cls-1{fill:#f2f2f2;}.cls-2{fill:#020202;}</style></defs><g id="Capa_2" data-name="Capa 2"><g id="Capa_1-2" data-name="Capa 1"><path class="cls-1" d="M1484.33,410.82c-8,46.88-17.14,93.58-25.8,140.36l-11.43,62.54c-2.79,18.42-5.94,36.77-10.11,54.93-3.17,22.22-7.47,44.25-11.87,66.25-2.54,20.61-9.06,39.52-23.51,55-20.16,24.19-46.29,34.87-77.41,34.36-1.87,0-3.74-.27-5.61-.39-13.81-.92-13.79-.92-14.74-14.65-.14-2.2.43-5.59-2.85-5.41-3.12.19-2.31,3.52-2.41,5.71-.54,11-.54,11.16-11.5,8.28A547.12,547.12,0,0,0,1214,803.56c-12.41-1.53-22.06,3.07-28.83,13.4-2.11,3.22-3.28,2.52-6.74,1.53-8.49-2.41-17.49-3-26.31-4.32-1.47-.21-3,.1-3.24,1.86-.31,2.44,1.43,3.11,3.46,3.5,8.51,1.64,17,3.7,25.71,3.18,3.9-.24,3.73,1.17,3.32,3.81-1.52,9.72-3.18,19.42-4.43,29.18-.51,4-2.13,5-6,4.49-23.87-3.54-47.78-6.94-71.67-10.4-.47-.06-.93-.18-1.38-.25-5.93-.91-14.54,1-17-3.34-2.37-4.1,1.17-11.6,2-17.62.49-3.47.92-7,1.23-10.44s-1.43-7.54,4.94-7.67c3-.07,1.94-4.41.26-4.39-8.73.17-9.62-7.69-13.66-12.29-1.54-1.75-3.12-3.45-4.68-5.19-8.31-5.32-17.36-7.44-27.29-7.48-22.29-.08-44.57-.82-66.85-1.28l-92.92.87c-12.94.35-25.93.5-36.8,9.19-2.84,4-6.46,7.46-8.26,12.12-1.32,3.42-4.1,3.3-6.94,3.49-1.76.11-3.29.87-3.12,3a2.56,2.56,0,0,0,2.91,2.42c3-.19,4.22.88,4.05,4-.54,9.7,1.72,19.11,3.53,28.52.59,3,.15,4-3.12,4.46-29.3,3.63-58.61,7.27-87.71,12.35-3.7.65-5-.65-5.44-4.21-1.35-10-2.87-19.92-4.65-29.83-.63-3.54.5-3.68,3.56-3.55,8.24.33,16.3-1.4,24.36-2.94,2.3-.44,5.22-.55,4.55-3.91-.63-3.16-3.42-1.79-5.22-1.41-8.89,1.88-18.33.86-26.73,5.09-2.69,1.36-3.16-.81-4.09-2.32-6.66-10.7-16.45-14.91-28.73-13.62-25.92,2.74-51.23,8.65-76.46,15-8.32,2.09-8.14,2.06-8.47-6.48-.11-2.83,2-8-2.63-7.93-3.84.1-2.74,5.37-2.53,8.33.44,6.28-.16,10.2-8.2,11.06-36.42,3.91-67.13-6.21-90.73-35.07-13.3-14.53-18.89-32.31-22.25-51.25-6.9-38.91-14.2-77.74-21.3-116.61a54.25,54.25,0,0,1-.42-5.59c-4.87-22.89-9.12-45.89-12.56-69-4.42-18.44-7.17-37.19-10.53-55.84-5-27.9-10.3-55.75-14.94-83.71-5.41-32.61,16.86-69.64,54.15-79.1q43.25-11,86.41-22.21c15.73-4.06,24.1-14.59,24.68-30.82.07-1.9-1.1-4.63,2.09-5.09,4.36-.63,8.49-3.08,13-2.09,1.41.31.76,2.45.75,3.82-.09,6.58-.2,13.15-.2,19.73,0,2.1,0,4.63,3.12,4.37,2.71-.22,2.21-2.62,2.24-4.38.09-6.82.1-13.64.07-20.45,0-7.1-3.55-10-10.58-8.88-3.84.64-8.79,4.07-11.11,1.55s-1.62-8-2.21-12.12c-.13-.93-.12-1.88-.24-2.81-1.92-14.73-1.94-14.8,12.49-17.54,26.44-5,52.94-9.88,79.36-15.07,3.52-.69,4.53,0,5,3.33,1.14,8.13,2.36,16.26,4,24.29.82,4-.9,4.09-3.93,4.36-6.3.56-12.56,1.59-18.83,2.44-1.5.21-2.84.85-2.82,2.55,0,2.32,2,2.52,3.55,2.39,6.07-.54,12.14-1.26,18.19-1.93,3.6-.43,5.58-.12,6.47,4.65,2.72,14.55,14.89,24.29,29.86,23.37,23.41-1.44,46.75-4.13,70.16-5.77,29.06-2.05,58.13-3.87,87.22-5.26,48.37-2.32,96.79-2.16,145.15,0,39.18,1.79,78.35,3.7,117.37,7.93,12.83,1.38,25.71,2.61,38.6,3.08a29.25,29.25,0,0,0,30-23.49c.83-4,2.15-5.15,5.86-4.61,5.33.75,10.69,1.33,16,2,2.33.27,5.39.93,6-1.9.76-3.49-2.82-3.14-4.87-3.45-5.56-.87-11.16-1.63-16.78-2-3.3-.22-4.44-.9-3.65-4.58,1.66-7.78,2.89-15.68,4-23.57.53-3.61,1.65-4.37,5.49-3.61q44.46,8.81,89,16.92c4,.73,4.25,2.31,3.76,5.59-1.15,7.41-2.19,14.86-2.87,22.32-.31,3.56-1.76,3.32-4.54,2.82-18.15-3.3-18.17-3.23-18.14,15.41,0,4.46,0,8.94,0,13.4,0,1.48.44,2.89,2.19,3.1,2.28.28,2.82-1.45,2.86-3.12.16-7,.36-14.1.13-21.12-.11-3.64,1.14-4.69,4.46-3.88,2.5.6,5,1.35,7.51,1.77,3.13.53,3.92,2.08,4,5.27.45,17.29,8,26.82,24.74,31.2,28.31,7.41,56.69,14.51,85,22C1468,337.34,1491,371.69,1484.33,410.82Z"/><path class="cls-2" d="M1433.82,297.59c.13.14.26.28.4.41a1.33,1.33,0,0,0,.15-.45ZM997.17,800.65c-10.33-.11-20.67-.49-31-.07l-13.4.14c-9.59-.52-19.25-.14-28.87.06-2,0-5.64-1-5.43,2.54.18,3.34,3.69,2.09,5.77,2.1,9.62.13,19.26.26,28.87-.15l13,.08c10.3.4,20.64.09,31,0,1.85,0,4.22.32,4.26-2.34S999,800.67,997.17,800.65Zm0,0c-10.33-.11-20.67-.49-31-.07l-13.4.14c-9.59-.52-19.25-.14-28.87.06-2,0-5.64-1-5.43,2.54.18,3.34,3.69,2.09,5.77,2.1,9.62.13,19.26.26,28.87-.15l13,.08c10.3.4,20.64.09,31,0,1.85,0,4.22.32,4.26-2.34S999,800.67,997.17,800.65Zm-23.33-570c-1.41-.1-2.82-.09-4.22-.1l-18.67.14a25.62,25.62,0,0,0-4.21-.1c-2,0-3.9.25-3.73,2.93.14,2.39,2,2.19,3.64,2.22,2.82,0,5.65,0,8.47,0l10.3,0c2.82,0,5.64,0,8.45,0,1.39,0,2.87,0,3-2.08C977,231.37,975.65,230.75,973.84,230.63ZM747.62,241.52c-8.64.78-17.28,1.67-25.91,2.5-2,.2-3,1.24-2.9,3.23.09,2.24,1.71,2.5,3.46,2.48,3.05,0,6.1,0,9.14-.08q6.4-1.14,12.82-2.26c1.31-.21,2.62-.15,3,1.27-.05-1.38,1.68-1.58,2.75-2.23a2.45,2.45,0,0,0,1-3C750.47,241.69,749,241.39,747.62,241.52Zm226.22-10.89c-1.41-.1-2.82-.09-4.22-.1l-18.67.14a25.62,25.62,0,0,0-4.21-.1c-2,0-3.9.25-3.73,2.93.14,2.39,2,2.19,3.64,2.22,2.82,0,5.65,0,8.47,0l10.3,0c2.82,0,5.64,0,8.45,0,1.39,0,2.87,0,3-2.08C977,231.37,975.65,230.75,973.84,230.63Zm460,67c.13.14.26.28.4.41a1.33,1.33,0,0,0,.15-.45Zm238,88.58c-.34-.61-.73-1.46-1.24-2.23-9-13.72-22-18.71-38-18.42-19.5.37-39,.17-58.54.13-15.8,0-16.92-1-21.7-16.16-11.87-37.72-36.4-63.23-74.51-74.1-47.33-13.51-94.92-26.18-143.32-35.39-4-.77-5.42-2.39-4.32-6.1,1.35-4.57-1.3-5.88-5-6.49-1.85-.31-3.72-.52-5.55-.88q-45.26-8.66-90.5-17.3c-3.75-.72-8-1.61-8,4.31.06,8-3.49,8.14-10.44,7.07-53.49-8.27-107.45-11-161.46-12.94-27-1-54-1.5-81.06-1.91l-17.51-.24c-75.8,0-172,7.48-172,7.48-24.77,2.09-49.56,3.82-74,8.59-5.37,1-4.62-2.39-5.67-5.43-2.33-9.76-8.23-7.18-8.23-7.18l-27,5.3c-22.31,4.32-44.59,8.8-67,12.83-5.42,1-9.37,1.82-6.93,8.61,1,2.89-.89,3.7-3.21,4.12-47.1,8.72-93.12,21.78-139.35,34-39.58,10.44-66.29,34.7-79,73.88-.72,2.22-1.37,4.48-2.09,6.71-2.65,8.17-6.19,11.05-14.94,11.14-18.57.17-37.14.38-55.7,0s-36,1-46.41,18.91c-3.73,5.36-5.68,25.41-5.68,25.41,0,31.26,0,62.5,0,93.76,0,13.72-1.76,27.75,8.69,39.11,3.71.39,5.15,3.75,7.55,5.85a43.22,43.22,0,0,1,5.42,5.49c12.45,16,27.89,25.22,49,21.95q36.63,0,73.25,0c17.88-1,27.75,6.41,31.37,23.85.95,4.56,1.55,9.19,2.32,13.79q4.57,24.93,9.16,49.89c5.15,27.54,10.5,55.05,15.39,82.65q12.13,68.46,70.36,106.21C528,859.55,541.1,864.55,554.17,870a149,149,0,0,0,44.07,4.19,112,112,0,0,0,21-2c35.66-6.91,71.15-14.77,107-20.53,10-1.6,10.57-1.71,11.5,8.25.58,6.21,3.44,6.66,8.18,6,8.12-1.17,16.25-2.33,24.39-3.4q35.56-4.65,71.12-9.26c6.23-2,4.6-6.87,3.48-10.92-1.51-5.37-.54-7.19,5.54-7.58,32.59-2,65.17-3.64,97.81-3.9l18.57-.15c26.87.2,53.71,1.15,80.53,3,8.35.43,16.72.89,25.09,1.25,5.08.21,2.86,3.69,2.76,6.08-.17,4.09-3.43,8.62,1.88,11.84,31.34,4.26,62.7,8.45,94,12.8,9.17,1.27,9.33,1.34,11-7.89a11.19,11.19,0,0,0,.48-2.75c-.35-5.07,2.59-5.1,6.3-4.39q35.22,6.66,70.44,13.28c19.8,3.71,39.24,9.57,59.51,10.34,29.34,1.14,56.64-6.39,82.36-20.16,20.9-13.24,38.67-29.7,51.75-50.86,3.56-5.76,6.56-11.86,9.82-17.8,7.17-16.31,10.28-33.73,13.89-51q6.19-33.66,12.4-67.3c3-19,6.24-38,10.6-56.75.55-3.7,1-7.42,1.68-11.09,3-15.57,11.06-22.81,27-23.38,13.16-.48,26.32-.2,39.49-.22,16.92,0,33.84-.16,50.76.1,7.8.13,14.87-1.27,21-6.29,8.06-8.19,15.69-16.84,24.26-24.44,9.34-8.29,12.94-17.85,12.84-30.39V398.22S1676.87,393.48,1671.78,386.17ZM1327.87,254c-.32-5.19,3-3.61,6.14-3,48,9.69,95.24,22.45,142.4,35.47,20.31,5.61,42.06,21.76,50.62,37L1480.49,311c-6.84-1.85-13.25-3.37-18.94-9.06-6-6-15.28-7.79-23.77-9.73-1.36-.29-4.11-.94-3.59,1.63a8.51,8.51,0,0,1,.18,3.7c3.84-.17,6.51,1.7,9.35,2.8V301c-2.9-1.23-6.56-.19-9.5-3-1,2-4.36-.33-6.28-.65a101.94,101.94,0,0,1-10.82-2.94c-8.5-2.62-17.53-3.53-25.59-7.66-5.91.54-11.43-1.06-16.81-3.27l-28.25-6.86c-3-.47-6-1-9-1.37-3.2-.38-6.48-.1-3.15-5,1.61-2.37-1-3.16-3.34-3.75C1322.65,264.34,1328.14,258.3,1327.87,254ZM708.2,231.68c21.15-2.87,42.35-5.39,63.63-7.16,59.71-5,119.54-7,179.45-7.46l14.9,0h64.08c39.19,1.95,78.33,4.13,117.4,7.35,21.73,1.78,43.38,4.42,65,7.45,3.8.54,5.14,1.89,4.29,6-1,5-3.27,9.75-3.19,15,.06,3.48-2.85,2.59-4.7,2.35-32.82-4.14-65.81-6.52-98.81-8.65q-56.91-3.71-113.92-5.28c-10.33-.28-20.65-.69-31-1L955,240.12c-9.39.41-18.77.93-28.16,1.13-56.12,1.23-112.11,4.69-168.07,8.79-2.1.16-4.18.72-6.28.84-1.72.08-3.92,1.1-5-1.2a4,4,0,0,1-.24-.72.64.64,0,0,1,0,.2c.13,1.84-1.41,2-2.76,2.31a40.44,40.44,0,0,1-13.06,1q-10.79,1.47-21.59,2.89c-2,.26-3.5.31-3.85-2.54a102.26,102.26,0,0,0-2.72-13.73C702,234.48,703.2,232.38,708.2,231.68ZM1208.12,267c-5,5.4-11.09,8.82-18.63,8.23q-26.67-2.06-53.32-4.56c-35.08-3.33-70.27-4.9-105.47-6.56q-30.6-1.44-61.27-1.87l-23.6-.17c-51.18,1.43-102.34,3.76-153.41,7.65-17.55,1.33-35,3.28-52.57,5.11-10.34,1.07-20.25.93-27.9-7.63-1.38-1.57-3.41-3.35-2.73-5.39.76-2.36,3.62-1.57,5.58-1.78,100.33-10.49,200.9-15.54,301.76-12.63,45,1.28,90.08,3.72,135,7.58,18,1.53,36,3.42,53.93,5.22,1.8.18,4.34-.36,5.15,1.41C1211.66,263.78,1209.49,265.5,1208.12,267ZM410.58,303.85c15.85-13.23,35.05-18.31,54.47-23.32,40.16-10.36,80.16-21.41,120.87-29.54,4.83-1,6.31-.21,6.39,4.52.09,4.95,4.22,11.05-5.84,11.82-3.47.27,1.48,4.49.59,7.35l-15,2.11-28.28,6.66c-4.7,2.59-10.07,2.62-16,4.88,2.7-8.54-1.08-7.89-6.42-6.18-5.8,1.85-11.84,2.89-17.72,4.49-2.35.63-5.84.46-6.1,3.65s4.11,1.29,5.55,4.07c-6.09,1.55-12,3.06-17.93,4.55-.79-7.77-.87-8-8.45-5.26-8.28,3-17.4,4.63-23,12.63a4.43,4.43,0,0,1-2.34,1.4C432.2,312.9,413,318.06,392,323.74A103.59,103.59,0,0,1,410.58,303.85Zm323.83,532c-.22,3.71-2.4,3.27-4.62,3.68-22.14,4.11-44.25,8.32-66.4,12.35-17.52,3.19-34.74,8-52.43,10.35-61.05,8.21-125.21-30.56-146.22-88.22-8.1-22.21-10.46-45.61-15.17-68.53-2.4-11.71-4.19-23.53-6.25-35.3-4.08-20.2-8.19-40.38-10.91-60.81-2-3.85-1.92-8.17-2.72-12.28-3.93-20.1-17-31.47-37.5-32.47-1.64-.09-3.26-.26-4.9-.38l-71.92,0c-.46.12-.91.22-1.37.31-18.48,3.76-31-5.29-41.25-19.22-4.39-4.22-8.75-8.46-13.18-12.66-3.64-3.44-5-7.62-5-12.61.1-38,0-76.09.08-114.14,0-17.6,11.43-29,29.19-29.11,21.38-.19,42.76,0,64.12-.06,18.15-.05,24.57-4.95,29.93-22.42,7.09-23.09,7.09-23.08,30.16-29.14,8.07-2.13,16.13-4.31,25.88-6.92-3.84,5-6.7,8.54-9.37,12.24-1.3,1.8-3.75,4.22-1.47,6.11,2.6,2.14,4.48-.6,6.13-2.66,3.53-4.37,7.08-8.75,10.79-12.95s8.61-6.68,14.36-8.17C499.26,301.19,544,289,589.31,279.24c1.55-.34,3.21-1.78,4.53-.32s-.05,3.12-.62,4.6c-3.8,9.64-11.45,14.43-21.07,16.85-26.35,6.62-52.67,13.33-79,19.92-37.73,9.44-59.39,33.28-64.32,70.87-1.34,10.21.79,20.16,2.54,30,6.54,36.89,13.48,73.71,20.38,110.53,1,5.19-.17,10.64,2.07,15.65,4.69,19.06,7.55,38.47,10.79,57.82,4.64,23.21,9.22,46.45,12.72,69.88.67,2.52,1.94,4.92,1.43,7.66q5.81,31.23,11.6,62.45c3.13,16.86,10.25,32,20.05,46,13.59,15.71,29.69,27.67,49.68,34.18,16.44,5.35,33.13,6.11,50,3.26,3.91-.66,6.51-1.09,6.07,4.09-.14,1.68.28,3.53,2.43,3.6,2.71.1,3-2.16,2.68-4-.92-5.74,2.36-6.79,7.08-7.89,25.8-5.94,51.57-12,77.92-15.2A25.16,25.16,0,0,1,734.41,835.86Zm341.2-12.3q-42.19-1.72-84.37-3.42c-8.43-.32-16.89-.41-25.33-.66l-12.4,0c-13.38.16-26.76.89-40.14,1-22.09.11-44.08,2-66.11,3.26-2.55.15-6.39,1.38-5.67-3.43.55-3.7-3.21-9.51,4.41-10.32,4-.41,7.91-1,11.84-1.54,1.53-.21,3.62.06,3.14-2.56a3.42,3.42,0,0,0-3.66-2.71c-2.79,0-5.59.63-8.38.79-1.27.07-3,.77-3.67-1-.52-1.45.62-2.58,1.54-3.64,6.42-7.37,14-12.45,24.21-12.39l81.7-1.47,12.63.24c29.1-.24,58.2.2,87.27,1.57a6.35,6.35,0,0,1,1.89.83c8.56.45,13.86,6.11,18.87,12.05,2.44,2.9.94,4-2.37,3.87-3.94-.14-7.89-1.27-11.83.07-.33,1.71-1.62,3.77,1.51,4.25,2.77.41,5.52.93,8.3,1.2,9.79.93,9.79.9,9.13,11.25C1078.53,822.91,1078.15,824.23,1075.61,823.56Zm102.84-5.07c-8.49-2.41-17.49-3-26.31-4.32-1.47-.21-3,.1-3.24,1.86-.31,2.44,1.43,3.11,3.46,3.5,8.51,1.64,17,3.7,25.71,3.18,3.9-.24,3.73,1.17,3.32,3.81-1.52,9.72-3.18,19.42-4.43,29.18-.51,4-2.13,5-6,4.49-23.87-3.54-47.78-6.94-71.67-10.4-.47-.06-.93-.18-1.38-.25-5.93-.91-14.54,1-17-3.34-2.37-4.1,1.17-11.6,2-17.62.49-3.47.92-7,1.23-10.44s-1.43-7.54,4.94-7.67c3-.07,1.94-4.41.26-4.39-8.73.17-9.62-7.69-13.66-12.29-1.54-1.75-3.12-3.45-4.68-5.19-8.31-5.32-17.36-7.44-27.29-7.48-22.29-.08-44.57-.82-66.85-1.28l-92.92.87c-12.94.35-25.93.5-36.8,9.19-2.84,4-6.46,7.46-8.26,12.12-1.32,3.42-4.1,3.3-6.94,3.49-1.76.11-3.29.87-3.12,3a2.56,2.56,0,0,0,2.91,2.42c3-.19,4.22.88,4.05,4-.54,9.7,1.72,19.11,3.53,28.52.59,3,.15,4-3.12,4.46-29.3,3.63-58.61,7.27-87.71,12.35-3.7.65-5-.65-5.44-4.21-1.35-10-2.87-19.92-4.65-29.83-.63-3.54.5-3.68,3.56-3.55,8.24.33,16.3-1.4,24.36-2.94,2.3-.44,5.22-.55,4.55-3.91-.63-3.16-3.42-1.79-5.22-1.41-8.89,1.88-18.33.86-26.73,5.09-2.69,1.36-3.16-.81-4.09-2.32-6.66-10.7-16.45-14.91-28.73-13.62-25.92,2.74-51.23,8.65-76.46,15-8.32,2.09-8.14,2.06-8.47-6.48-.11-2.83,2-8-2.63-7.93-3.84.1-2.74,5.37-2.53,8.33.44,6.28-.16,10.2-8.2,11.06-36.42,3.91-67.13-6.21-90.73-35.07-13.3-14.53-18.89-32.31-22.25-51.25-6.9-38.91-14.2-77.74-21.3-116.61a54.25,54.25,0,0,1-.42-5.59c-4.87-22.89-9.12-45.89-12.56-69-4.42-18.44-7.17-37.19-10.53-55.84-5-27.9-10.3-55.75-14.94-83.71-5.41-32.61,16.86-69.64,54.15-79.1q43.25-11,86.41-22.21c15.73-4.06,24.1-14.59,24.68-30.82.07-1.9-1.1-4.63,2.09-5.09,4.36-.63,8.49-3.08,13-2.09,1.41.31.76,2.45.75,3.82-.09,6.58-.2,13.15-.2,19.73,0,2.1,0,4.63,3.12,4.37,2.71-.22,2.21-2.62,2.24-4.38.09-6.82.1-13.64.07-20.45,0-7.1-3.55-10-10.58-8.88-3.84.64-8.79,4.07-11.11,1.55s-1.62-8-2.21-12.12c-.13-.93-.12-1.88-.24-2.81-1.92-14.73-1.94-14.8,12.49-17.54,26.44-5,52.94-9.88,79.36-15.07,3.52-.69,4.53,0,5,3.33,1.14,8.13,2.36,16.26,4,24.29.82,4-.9,4.09-3.93,4.36-6.3.56-12.56,1.59-18.83,2.44-1.5.21-2.84.85-2.82,2.55,0,2.32,2,2.52,3.55,2.39,6.07-.54,12.14-1.26,18.19-1.93,3.6-.43,5.58-.12,6.47,4.65,2.72,14.55,14.89,24.29,29.86,23.37,23.41-1.44,46.75-4.13,70.16-5.77,29.06-2.05,58.13-3.87,87.22-5.26,48.37-2.32,96.79-2.16,145.15,0,39.18,1.79,78.35,3.7,117.37,7.93,12.83,1.38,25.71,2.61,38.6,3.08a29.25,29.25,0,0,0,30-23.49c.83-4,2.15-5.15,5.86-4.61,5.33.75,10.69,1.33,16,2,2.33.27,5.39.93,6-1.9.76-3.49-2.82-3.14-4.87-3.45-5.56-.87-11.16-1.63-16.78-2-3.3-.22-4.44-.9-3.65-4.58,1.66-7.78,2.89-15.68,4-23.57.53-3.61,1.65-4.37,5.49-3.61q44.46,8.81,89,16.92c4,.73,4.25,2.31,3.76,5.59-1.15,7.41-2.19,14.86-2.87,22.32-.31,3.56-1.76,3.32-4.54,2.82-18.15-3.3-18.17-3.23-18.14,15.41,0,4.46,0,8.94,0,13.4,0,1.48.44,2.89,2.19,3.1,2.28.28,2.82-1.45,2.86-3.12.16-7,.36-14.1.13-21.12-.11-3.64,1.14-4.69,4.46-3.88,2.5.6,5,1.35,7.51,1.77,3.13.53,3.92,2.08,4,5.27.45,17.29,8,26.82,24.74,31.2,28.31,7.41,56.69,14.51,85,22,38.57,10.19,61.59,44.54,54.91,83.67-8,46.88-17.14,93.58-25.8,140.36l-11.43,62.54c-2.79,18.42-5.94,36.77-10.11,54.93-3.17,22.22-7.47,44.25-11.87,66.25-2.54,20.61-9.06,39.52-23.51,55-20.16,24.19-46.29,34.87-77.41,34.36-1.87,0-3.74-.27-5.61-.39-13.81-.92-13.79-.92-14.74-14.65-.14-2.2.43-5.59-2.85-5.41-3.12.19-2.31,3.52-2.41,5.71-.54,11-.54,11.16-11.5,8.28A547.12,547.12,0,0,0,1214,803.56c-12.41-1.53-22.06,3.07-28.83,13.4C1183.08,820.18,1181.91,819.48,1178.45,818.49ZM1660,533q-9.29,9-18.54,18.05c-6.93,9.94-15.75,14.21-28.5,13.76-27.88-1-55.82-.34-83.73-.16-16.71.1-29.55,6.92-36.16,22.88-2.13,5.12-3,10.78-4.38,16.2-3.77,21.47-6.38,43.14-12.4,64.18a8,8,0,0,0,0,2.08c-1.7,17.74-6.18,35-9.18,52.51-.46,2.68,0,5.7-1.92,8.08-2.59,22.17-7.35,43.65-19.75,62.72-18.19,32.61-46,53.14-81.2,64.11-24.3,7.58-48.89,7.22-73.68,1.66-33.15-7.45-66.47-14.14-100-19.36-4.43-.68-5.31-2.14-4.78-6.25,2.25-17.82,12.44-26.19,30.25-24,26.53,3.33,52.51,9.55,78.52,15.55,4.33,1,4.09,3.65,4.06,6.76,0,1.86-.22,4.13,2.35,4.39,3.09.31,3.23-2.05,3.05-4.28-.23-2.83.35-4.51,3.81-3.88,41.12,7.58,74.56-6.08,101.73-36.94,14.17-19.13,20.46-41.07,23.1-64.34a23.89,23.89,0,0,1,1.5-4.59c1.8-13.81,4.41-27.47,7.45-41.05,4.92-29.21,9.76-58.44,16.14-87.38a451.2,451.2,0,0,1,8.68-47.84c3-23,8-45.68,12-68.54,4-23.57,9.11-47,12.13-70.67,5-39.57-19.23-74.52-58.06-84.87-27.83-7.43-55.79-14.38-83.74-21.33-10.19-2.52-18.18-7.38-22-17.62-1.39-3.73-1.07-4.91,3.6-3.88,46.16,10.18,91.76,22.67,137.57,34.33,8.86,2.26,13.67,9.46,19.16,15.81a60.68,60.68,0,0,1,3.74,5.1c1.41,2,3.12,4.32,5.64,2.76,2.83-1.75.82-4.12-.49-6-2.4-3.43-4.94-6.77-7.42-10.16-.23-.51-.44-1-.65-1.53h1.86c12.41,3.32,24.8,6.7,37.23,9.89a12.29,12.29,0,0,1,8.34,6.79c3.16,6.08,5.16,12.55,7.07,19.05,4.81,16.54,11.53,21.66,28.86,21.68,21.36,0,42.74-.07,64.11,0,18.54.08,30,11.23,30.06,29.69.15,37.79,0,75.59.08,113.36A17.22,17.22,0,0,1,1660,533ZM1434.22,298a1.33,1.33,0,0,0,.15-.45l-.55,0C1434,297.73,1434.08,297.87,1434.22,298ZM997.17,800.65c-10.33-.11-20.67-.49-31-.07l-13.4.14c-9.59-.52-19.25-.14-28.87.06-2,0-5.64-1-5.43,2.54.18,3.34,3.69,2.09,5.77,2.1,9.62.13,19.26.26,28.87-.15l13,.08c10.3.4,20.64.09,31,0,1.85,0,4.22.32,4.26-2.34S999,800.67,997.17,800.65ZM946.65,235.72c2.82,0,5.65,0,8.47,0l10.3,0c2.82,0,5.64,0,8.45,0,1.39,0,2.87,0,3-2.08.14-2.23-1.2-2.85-3-3-1.41-.1-2.82-.09-4.22-.1l-18.67.14a25.62,25.62,0,0,0-4.21-.1c-2,0-3.9.25-3.73,2.93C943.15,235.89,945,235.69,946.65,235.72Zm-224.38,14c3.05,0,6.1,0,9.14-.08q6.4-1.14,12.82-2.26c1.31-.21,2.62-.15,3,1.27-.05-1.38,1.68-1.58,2.75-2.23a2.45,2.45,0,0,0,1-3c-.49-1.71-2-2-3.34-1.88-8.64.78-17.28,1.67-25.91,2.5-2,.2-3,1.24-2.9,3.23C718.9,249.49,720.52,249.75,722.27,249.73Z"/><path class="cls-2" d="M596.67,535.39c-6.33.65-12.29,4.56-19,2.2-21-3.7-37.06-14.41-41.14-35.94-5.63-29.72-1.47-50.81,20.26-64.52,23.06-14.56,45.9-7.58,63,8.34,4.3,4,6.6,10.87,8.26,16.85a75.17,75.17,0,0,1-.81,44.32C622.32,521.62,611.06,530.26,596.67,535.39Zm27-70.15-2-.2c-.13,2.54-.31,5.09-.35,7.64,0,2.12-1.12,2.94-3.1,2.83s-2.26-1.32-2.26-2.88c0-5.4-.17-10.81,0-16.21a11.14,11.14,0,0,0-4-9.28c-13-11.75-28-15.55-44.29-9.11s-26,18.85-26.92,37a133,133,0,0,0,.12,18.3c1.54,17,10.91,28.84,26.3,35.29,15.69,6.57,30.34,3.33,43.42-7.35A13.76,13.76,0,0,0,616,509c-.32-5.85,0-11.74.21-17.6.06-1.5.53-3.53,2.84-3.22,1.74.23,1.89,1.85,2.15,3.23.69,3.58-.71,7.34,1.37,10.87C625.52,490,626.17,477.63,623.64,465.24Z"/><path class="cls-2" d="M1347.87,536.38l-7.09,1.19c-27-.65-44.87-13-49.74-36.7-3.83-18.66-3.46-38,8-54.18,6.11-8.6,16.54-13.67,27.36-16.11,29.09-6.56,56.22,13.77,58.45,43.53.68,9.17,1.32,18.46-1.08,27.32C1378.8,520,1366.4,531.45,1347.87,536.38Zm-52-36.37c3.13-1.74,2.61-4.66,2.75-7.36.09-1.85-.05-4.27,2.4-4.37,3-.13,2.92,2.53,3,4.61.08,5.4.19,10.8,0,16.18a13.58,13.58,0,0,0,4,10.77c17,17.31,47.43,15.22,62.25-4,9.69-12.57,10-26.85,8.91-41.52-1.29-17.34-10.5-29.17-26.29-35.82-15.45-6.51-29.69-3.77-42.74,6.5-4.34,3.41-6.78,7.35-6.17,13.19.48,4.64.09,9.37.1,14.06,0,1.74-.09,3.34-2.49,3.3-2.16,0-2.57-1.43-2.9-3.2-.5-2.66.82-5.85-2.5-8.87C1295,476.32,1294.05,488.11,1295.89,500Z"/><path class="cls-2" d="M655.65,252.32c2.56.74,5.47-1.15,5.89,2.12.37,2.86-2.41,3.13-4.34,3.53q-11.26,2.38-22.6,4.42c-1.66.3-4,1.06-4.55-1.68-.47-2.26.9-3.47,3-3.89C640.82,255.26,648.58,253.73,655.65,252.32Z"/><path class="cls-2" d="M1264.53,252.43l22.32,4.5c2.1.43,3.5,1.62,3,3.88-.55,2.79-2.87,1.91-4.53,1.62-7.56-1.33-15.1-2.79-22.63-4.3-2-.42-4.7-1-4.39-3.62C1258.71,251.4,1261.64,253,1264.53,252.43Z"/><path class="cls-2" d="M1303.69,668.79c0,9.11.13,18.22.07,27.33,0,2,.5,4.81-2.45,5s-2.84-2.67-2.76-4.67c.4-9.53-1.17-19.12,1-28.57Z"/><path class="cls-2" d="M1298.64,640c0-4.44,0-8.89,0-13.34,0-1.45.51-3,2.15-3.15,2.09-.22,2.93,1.4,3,3.15.07,8.89,0,17.78,0,26.68,0,1.93-.92,3.22-3,3-1.6-.18-2.28-1.34-2.26-3,0-4.45,0-8.9,0-13.35Z"/><path class="cls-2" d="M1300.32,612c-3.7-4-1.43-8.9-1.75-13.36-.37-5.1,0-10.26,0-15.39,0-1.82-.32-4.33,2.09-4.51,2.79-.2,3.15,2.42,3.16,4.52,0,9.33-.1,18.66-.17,28Z"/><path class="cls-2" d="M1298.63,413.85c0-4.44,0-8.88,0-13.32,0-1.48.59-2.87,2.28-3a2.51,2.51,0,0,1,2.71,2.63c.13,9.1.16,18.21.15,27.31a2.61,2.61,0,0,1-2.47,2.86c-2.35.2-2.66-1.54-2.7-3.21-.08-4.44,0-8.88,0-13.31Z"/><path class="cls-2" d="M621.31,414c0,4.2,0,8.4,0,12.6,0,1.59.11,3.54-2.12,3.76s-3-1.44-3-3.12q-.12-13.29.09-26.58c0-1.66.76-3.37,3-3.07,1.64.23,2.15,1.57,2.15,3.11q0,6.66,0,13.3Z"/><path class="cls-2" d="M1304.16,788.44c-.8,1.52-.65,4.34-3.25,3.69-3.41-.84-1.89-4.27-2.65-6.52.11-7.43.2-14.86.34-22.29,0-1.82-.24-4.25,2.18-4.44,2.91-.22,3,2.46,3.06,4.49C1304,771.73,1304.07,780.09,1304.16,788.44Z"/><path class="cls-2" d="M1298.59,369.44c0-4.2-.06-8.4,0-12.6,0-1.79-.17-4.08,2.55-4.07,2.15,0,2.54,2,2.56,3.54.07,8.86,0,17.73,0,26.59,0,1.5-.74,2.89-2.32,3-2,.13-2.82-1.29-2.82-3.15,0-4.44,0-8.87,0-13.3Z"/><path class="cls-2" d="M621.31,369.84c0,4.19,0,8.39,0,12.59,0,1.75-.28,3.44-2.47,3.33-1.85-.09-2.86-1.29-2.85-3.27,0-8.62,0-17.24.16-25.87,0-1.79.27-4.05,2.94-3.81,2.16.18,2.21,2.12,2.23,3.74.06,4.43,0,8.86,0,13.29Z"/><path class="cls-2" d="M1298.23,734.89c.12-5.55.21-11.11.39-16.66.05-1.78-.22-4.16,2.41-4.14,2.38,0,2.72,2.28,2.8,4.12.24,5.08.29,10.17.42,15.26-.12,3.28-.24,6.55-.35,9.83-.06,1.73-.31,3.44-2.58,3.3-1.89-.12-2.82-1.3-2.83-3.29C1298.49,740.5,1298.33,737.7,1298.23,734.89Z"/><path class="cls-2" d="M1298.58,324.4c0-4.19,0-8.38,0-12.57,0-1.67.19-3.59,2.11-3.88s2.94,1.52,3,3.17c.13,9.07.13,18.14.08,27.21,0,1.63-1.15,2.47-2.82,2.16a2.59,2.59,0,0,1-2.42-2.83c.06-4.42,0-8.84,0-13.26Z"/><path class="cls-2" d="M621.36,324.75c0,4,0,8,0,12,0,2.09-.3,3.81-2.94,3.69-2.16-.1-2.55-1.5-2.53-3.36.09-8.21.09-16.41.16-24.62,0-1.9.18-4.25,2.53-4.31,3-.08,2.72,2.65,2.76,4.69.09,4,0,8,0,11.95Z"/><path class="cls-2" d="M1304.25,548.74c-.18,4.65-.32,9.3-.57,13.94-.07,1.4-.47,2.93-2.19,3.09-2.12.2-2.85-1.33-2.9-3.11-.17-5.58-.24-11.17-.35-16.75q.15-4.17.31-8.33c.07-1.83-.17-4.33,2.12-4.51,2.82-.23,2.9,2.61,3.09,4.56C1304.12,541.32,1304.11,545,1304.25,548.74Z"/><path class="cls-2" d="M621.67,545.91c-.12,5.37-.23,10.74-.36,16.11,0,1.66-.07,3.53-2.26,3.71-2.56.21-3-1.72-3.08-3.71-.14-5.84-.21-11.67-.31-17.51,1.58-3.71-1.88-11,3.66-10.87,4.23.08,1.18,7.11,2.14,10.9A12.22,12.22,0,0,1,621.67,545.91Z"/><path class="cls-2" d="M621.33,640.43c0,4,0,7.93,0,11.89,0,1.81.33,4.13-2.33,4.19-2.24,0-3.05-1.65-3-3.83.07-8.39,0-16.79.15-25.18,0-1.8.15-4.09,2.83-3.92s2.41,2.46,2.44,4.26c.08,4.19,0,8.39,0,12.59Z"/><path class="cls-2" d="M617.78,611.88c-2.5-1.83-1.88-4.53-1.87-7q0-11.18.23-22.34c0-1.93.54-4,3-3.78,2,.19,2.24,2.14,2.19,3.79-.29,9.73.89,19.5-.72,29.2Z"/><path class="cls-2" d="M621.32,684.52c0,4.22,0,8.43,0,12.64,0,1.85,0,4-2.74,4-2.21,0-2.58-1.72-2.57-3.44,0-8.65.06-17.3.2-26,0-1.63.51-3.45,2.72-3.36s2.43,1.81,2.44,3.54c0,4.21,0,8.42,0,12.63Z"/><path class="cls-2" d="M621.59,788.43c-.44,1.74-.58,3.89-3.2,3.47-2.81-.45-2.13-3.07-2.74-4.88.13-7.66.18-15.33.43-23,.07-2.13-.43-5.34,3-5.07,2.9.23,2.19,3.15,2.23,5.08C621.52,772.17,621.53,780.3,621.59,788.43Z"/><path class="cls-2" d="M616.1,730.29c0-4.22,0-8.43,0-12.65,0-1.72.62-3.46,2.64-3.49s2.55,1.77,2.56,3.49c0,8.67,0,17.34,0,26,0,1.68-.68,2.7-2.35,2.8-1.9.11-3.1-.62-3.07-2.8.06-4.45,0-8.91,0-13.36Z"/><path class="cls-2" d="M408.11,398.51a23.93,23.93,0,0,1-.48-2.82c-.12-1.46.16-3.09,1.72-3.45,1.82-.42,3,.57,3.46,2.57,1.76,8.71,3.65,17.4,5.35,26.13.3,1.54.32,3.47-2.06,3.73-2.05.22-3-1.07-3.44-2.81A133,133,0,0,1,408.11,398.51Z"/><path class="cls-2" d="M426.32,464.27c.32,2.64.08,4.21-1.52,4.55a3,3,0,0,1-3.78-2.21q-2.75-13.32-5.28-26.68a2.22,2.22,0,0,1,2.3-2.81,2.71,2.71,0,0,1,3,2.28C422.9,448.07,424.73,456.73,426.32,464.27Z"/><path class="cls-2" d="M434.22,507.82c-.36,2.65,1.17,5.4-2.26,5.64-2.79.2-3.28-2.17-3.67-4.26-1.43-7.55-2.89-15.09-4.14-22.67-.31-1.89-1.1-4.67,1.8-5.22,2.61-.51,3.4,1.68,3.83,3.95C431.26,493,432.83,500.79,434.22,507.82Z"/><path class="cls-2" d="M407.52,377.11c1.24-9.25,2.21-17.38,5.6-24.93,1-2.13,2.17-4.72,5.09-3.43,2.5,1.1.58,3.32.22,4.93-1.71,7.73-3.64,15.42-5.38,23.14-.47,2.07-1.1,3.67-3.6,3.07A2.33,2.33,0,0,1,407.52,377.11Z"/><path class="cls-2" d="M442.92,547.7c-.34,3.3,3.37,8.6-1.27,9.45-4.35.8-3.86-5.21-4.89-8.55-.4-1.3-.65-2.66-1-4-.72-4.63-1.47-9.25-2.13-13.89-.25-1.73-1.35-4,1.48-4.58s3.59,1.53,4.05,3.69C440.46,535.77,441.68,541.74,442.92,547.7Z"/><path class="cls-2" d="M1512.77,377.66c.13.69-.46,2.07-2.5,2.37a2.53,2.53,0,0,1-3.13-2.07c-2.17-8.86-4.37-17.7-6.51-26.56-.29-1.2-.05-2.43,1.41-2.76a3.42,3.42,0,0,1,4,2,48.94,48.94,0,0,1,4.45,14C1511.23,368.59,1511.88,372.52,1512.77,377.66Z"/><path class="cls-2" d="M1504,442.25c-1.42,7-3,15-4.64,23-.45,2.16-1.37,4.42-4.06,3.55-2.21-.71-1.72-2.89-1.32-4.82,1.67-8,3.19-16,4.91-23.95.39-1.83,1.36-3.8,3.79-3C1504.63,437.72,1504.15,439.67,1504,442.25Z"/><path class="cls-2" d="M1512.22,395.17a145.61,145.61,0,0,1-4.87,26.41c-.58,2.07-1.5,3.57-3.84,3.05-2.18-.49-2-2.49-1.7-4,1.69-8.49,3.52-17,5.32-25.41.36-1.72,1.08-3.33,3.16-3S1512.19,394.49,1512.22,395.17Z"/><path class="cls-2" d="M1483.79,546.14c-.76,2.89-1.46,5.8-2.31,8.67-.47,1.6-1.41,3.34-3.26,3.05-2.48-.39-2.11-2.66-1.93-4.46.25-2.51.67-5,1-7.49,1.1-5.27,2.16-10.55,3.34-15.81.45-2,.95-4.51,3.75-4.23,3.48.36,2,3.2,1.82,5C1485.58,536,1484.62,541.05,1483.79,546.14Z"/><path class="cls-2" d="M1485.73,507.88c1.44-7.29,3-15.32,4.64-23.32.39-1.89,1.36-3.9,3.65-3.47,2.55.48,2,2.94,1.76,4.64q-2,12.11-4.45,24.13c-.34,1.71-.74,3.94-3.38,3.67C1484.42,513.17,1486.1,510.49,1485.73,507.88Z"/><path class="cls-2" d="M808.34,808.46c1.95,0,3.12,0,4.29,0,1.38,0,3-.1,3.31,1.73a2.77,2.77,0,0,1-2.58,3.47q-13.56,1.56-27.13,2.94c-1.74.17-3.46-.3-3.39-2.49.06-1.93,1.65-2.77,3.34-3C793.82,810.16,801.46,809.28,808.34,808.46Z"/><path class="cls-2" d="M1110.45,808.3c7.65.92,15.08,1.84,22.53,2.7,2.11.24,3.77,1,3.7,3.36-.09,2.89-2.46,2.37-4.2,2.2-8.39-.85-16.76-1.84-25.15-2.72-2.17-.22-4.07-1.24-3.41-3.41C1105,806.88,1108.38,809.28,1110.45,808.3Z"/><path class="cls-2" d="M490.08,793.22c.49-5.73,3.22-5.1,6.18-1.9,2.35,2.55,4.17,5.6,6.23,8.43,1.47,4.09,5,6.62,7.46,10,1.09,1.49,2.64,3.41,1.19,5-1.76,1.89-3.92.48-5.49-1C499.25,807.81,495,800.26,490.08,793.22Z"/><path class="cls-2" d="M458.89,670.34c-.31-2.28-.78-4.56-.87-6.85-.07-1.92-.78-4.53,2.47-4.7,2.49-.12,2.79,1.79,3.15,3.72,1.63,8.86,3.35,17.71,5.05,26.56-4,4-5.56,1.08-6.43-2.46C461,681.23,460,675.77,458.89,670.34Z"/><path class="cls-2" d="M524.41,822.47c.59.32,1.62.83,2.61,1.4,6.26,3.57,12.48,7.21,18.78,10.72,2.1,1.17,4.68,2.31,3.34,5.1-1.17,2.44-3.73,1.26-5.57.43-7-3.18-14.05-6.25-20.16-11-1.52-1.2-2.72-2.62-2.09-4.77C521.68,823.06,522.52,822.38,524.41,822.47Z"/><path class="cls-2" d="M470.44,702.63c5.47,9.22,5.83,19.67,7.21,29.87.27,2-.93,2.92-2.88,2.92-5.79-9.36-6.24-20-7.23-30.49C467.37,703.14,469.08,702.91,470.44,702.63Z"/><path class="cls-2" d="M582.6,850.5a63.25,63.25,0,0,1-18.51-3.8c-1.8-.64-3.84-1.79-3.26-3.92.67-2.47,3-1.56,4.75-1.11a98.27,98.27,0,0,0,23.57,3.2c2,0,4.56-.66,4.68,2.61.15,3.85-2.84,2.84-5,3C587.45,850.59,586,850.5,582.6,850.5Z"/><path class="cls-2" d="M476.17,746.08c4-.32,4.41,3.06,5.08,5.55,2.06,7.63,3.75,15.36,5.61,23,.33,1.38.82,2.92-.82,3.62-2.12.91-2.56-1.47-3.79-2.33-3.74-7.78-5-16.24-6.77-24.58A6.58,6.58,0,0,1,476.17,746.08Z"/><path class="cls-2" d="M655.63,839.51c-3.06-.22-5.32,1.08-6-1.72-.6-2.58,1.39-3.21,3.24-3.6,8-1.67,16-3.35,24-4.79,1.87-.34,4.62-1,5.06,2.09.35,2.43-1.79,3-3.66,3.39C670.33,836.53,662.33,838.15,655.63,839.51Z"/><path class="cls-2" d="M698.1,830.87c-1.12-.07-3.14.64-3.27-1.91a3.27,3.27,0,0,1,2.81-3.54q12.39-2.31,24.84-4.34c2.1-.35,3.76.64,4,2.93.32,3.11-2.16,2.26-3.85,2.55C714.58,828,706.53,829.39,698.1,830.87Z"/><path class="cls-2" d="M611.8,847.8c-2-.78-5.4,1.49-5.9-1.81-.54-3.63,3.08-3.4,5.45-3.81,7.11-1.23,14.24-2.31,21.36-3.5,2-.34,4.62-1.57,5.37,1.14.59,2.19-2.18,2.83-3.79,3.33A97.46,97.46,0,0,1,611.8,847.8Z"/><path class="cls-2" d="M1420.29,795.69c1.16-1.65,2.08-3.56,3.53-4.9,2.82-2.61,5.24-2.71,6,1.88a93.87,93.87,0,0,1-14.38,19.62c-1.75,1.77-3.93,4.68-6.33,2.66-2.74-2.31.44-4.44,1.94-6.29C1414.4,804.53,1418.08,800.64,1420.29,795.69Z"/><path class="cls-2" d="M1374.72,840.75c-2.24.14-3.54.21-4.09-1a2.52,2.52,0,0,1,.67-3.19q12-7.11,24.16-14a2.06,2.06,0,0,1,2.94,1c.62,1.36.66,3-.4,4C1390.9,833.78,1382.3,837.36,1374.72,840.75Z"/><path class="cls-2" d="M1335.91,850.53c-2.44,0-2.92.06-3.38,0-2.53-.39-6.68,1.23-6.77-2.74s4.1-2.72,6.58-2.84a119.32,119.32,0,0,0,22.09-3.34c1.81-.44,4.11-1.29,4.71,1.19.48,2-1.39,3.22-3.28,3.91A70.5,70.5,0,0,1,1335.91,850.53Z"/><path class="cls-2" d="M1220.11,830.87c-8-1.53-16.1-3.87-24.5-4.41-1.42-.1-3-.42-2.64-2.34.31-1.69,1.47-3.12,3.34-3a133.71,133.71,0,0,1,26.69,4.8,2.66,2.66,0,0,1,2,3.29C1224.27,832,1221.94,830.43,1220.11,830.87Z"/><path class="cls-2" d="M1263.94,839.56c-7.23-1.51-15.23-3.14-23.2-4.89-1.64-.36-3.16-1.31-2.92-3.35.28-2.33,2.29-2.25,3.8-2,8.71,1.6,17.4,3.37,26.09,5.11,1.83.36,3.11,1.46,2.47,3.43C1269.18,841,1266.59,838.72,1263.94,839.56Z"/><path class="cls-2" d="M1307.69,847.79a85.84,85.84,0,0,1-21.91-4.61c-1.69-.56-4.83-.93-3.89-3.75.73-2.22,3.17-1,4.94-.73,7.11,1.17,14.24,2.27,21.34,3.53,2.32.41,6.1-.23,5.69,3.46C1313.43,849.67,1309.6,846.64,1307.69,847.79Z"/><path class="cls-2" d="M1192.6,249.78c-6.08-.81-13.25-1.77-20.42-2.71-1.68-.22-3.47-.5-3.42-2.65.06-2.47,1.92-3,4-2.78,8.37.78,16.74,1.62,25.11,2.37,1.94.18,3,1,3.16,3,.18,2.29-1.27,2.74-3.09,2.78C1196.52,249.8,1195.12,249.78,1192.6,249.78Z"/><path class="cls-2" d="M1046.35,233.12c4.46.36,10.3.75,16.11,1.38,1.83.2,4.14,1.06,3.83,3.25-.2,1.4-2.37,2.23-4.1,2a182.39,182.39,0,0,0-25.91-1.18c-1.87,0-3.15-.75-3.07-2.91s1.48-2.61,3.32-2.58C1039.34,233.15,1042.15,233.12,1046.35,233.12Z"/><path class="cls-2" d="M1105.2,242.34c-7.8-1.85-15.7,0-23.3-2.12-2.05-.57-3.76-1.16-3.46-3.5.35-2.73,2.7-2.13,4.46-2q11.55,1,23.09,2.3c2,.22,5,.3,4.74,2.93C1110.38,242.91,1107.24,242.22,1105.2,242.34Z"/><path class="cls-2" d="M1007.27,237.17c-4.39-.36-10.23-.87-16.07-1.28-2-.13-4-.37-4.06-2.81,0-2.68,2.29-2.73,4.12-2.44,7.93,1.27,15.92.76,23.88,1.06,2.34.09,5.32.05,5.06,3.33-.24,3-3.19,2-5.13,2.11C1013,237.26,1010.85,237.17,1007.27,237.17Z"/><path class="cls-2" d="M1130.7,238.58c7.76.52,14.3,1,20.84,1.38,1.93.12,4.18.27,4,2.78s-2.55,2.56-4.39,2.41c-7.92-.61-15.93-.26-23.76-1.94-2-.43-5-.54-4.77-3.11.29-3.09,3.31-1.19,5.12-1.47A13.62,13.62,0,0,1,1130.7,238.58Z"/><path class="cls-2" d="M874,233.1c3.51,0,6.32,0,9.14,0,1.74,0,3.34.08,3.48,2.39.12,2.08-.87,3-2.88,3.06-8.92.11-17.85-.07-26.72,1.19-1.75.25-3.42-.39-3.31-2.59.09-2,1.58-2.65,3.41-2.78C863,234,868.81,233.49,874,233.1Z"/><path class="cls-2" d="M822,241.36c-2.79.27-6.26.75-9.74.9-1.6.07-3.39-.39-3.31-2.66.06-1.73,1.27-2.34,2.79-2.48,8.82-.8,17.63-1.63,26.45-2.34,1.38-.12,3,.22,3.26,1.95.33,2-1,2.84-2.78,3.26A58.1,58.1,0,0,1,822,241.36Z"/><path class="cls-2" d="M910.25,237.16c-2.57,0-5.15,0-7.72,0-1.43,0-2.94-.16-3-2.06a2.84,2.84,0,0,1,2.83-3.32c9.35-.35,18.72.11,28-1.37,1.69-.27,2.32,1.43,2.27,2.88-.09,2.14-1.7,2.4-3.47,2.53-6.29.47-12.57,1-18.86,1.56Z"/><path class="cls-2" d="M789.83,238.68c2,.76,6.68-2.15,7.17,1.42.52,3.74-4.64,3.2-7.22,3.56-7.15,1-14.42,1.18-21.64,1.51-1.76.08-4.1,0-4.06-2.68s2.3-2.45,4.13-2.56C775.2,239.51,782.2,239.12,789.83,238.68Z"/><path class="cls-2" d="M1468,597.72c1.39-8.53,2.71-16.58,5-24.43.63-2.12,1.41-4.7,3.75-4.3,2.75.47,1.87,3.2,1.47,5.23q-2.34,12-4.69,24c-.36,1.84-.63,4.17-3.07,3.93C1467.65,601.88,1468.18,599.25,1468,597.72Z"/><path class="cls-2" d="M1470.11,614.38c-.29,9.85-2.78,19.34-4.79,28.9-.38,1.78-1.1,3.09-3.2,2.93-1.7-.14-2.77-1.26-2.4-2.77,2.46-10.06,2-20.9,8-30Z"/><path class="cls-2" d="M572,275c-9.41,2.43-18.18,7.25-28.16,7.53-2.58-3.31-2.87-5.51,2.23-6.57,7.23-1.5,14.42-3.34,21.49-5.48C572.6,269,573.48,270.62,572,275Z"/><path class="cls-2" d="M1419.81,292.57c-9.86.07-18.72-4.54-28.24-6.08-.94-5,.39-6.49,5.72-4.7,7,2.33,14.32,3.58,21.43,5.58C1421.73,288.22,1425.4,289.61,1419.81,292.57Z"/><path class="cls-2" d="M1374.71,281.58c-9.52.23-17.87-4.31-26.79-6.53-1.34-3.63-1.4-6,3.74-4.62,7.68,2.1,15.42,4,23.14,5.92,1.41.35,2.84.64,3,2.38C1378.09,281,1376.45,281.39,1374.71,281.58Z"/><path class="cls-2" d="M888.29,807.14c-3.74,0-7.49,0-11.23,0-1.58,0-3.46.23-3.5-2.25a2.86,2.86,0,0,1,3-3.18c9.12-.36,18.24-.62,27.36-.88,1.2,0,2.28.26,2.45,1.79a2.77,2.77,0,0,1-2.7,3.37c-5.11.55-10.23.93-15.35,1.38Z"/><path class="cls-2" d="M460.32,642.33c0,1.56.21,3.15-1.5,3.68s-3.38,0-3.91-1.92a195.47,195.47,0,0,1-5.22-27.54,2.1,2.1,0,0,1,1.85-2.55,3.51,3.51,0,0,1,3.39,3C456.75,625.52,458.55,634,460.32,642.33Z"/><path class="cls-2" d="M1042.35,801.9c1.76.07,4,.16,4,2.86,0,2.94-2.17,2.49-4,2.45-7.72-.16-15.45-.22-23.15-.66-2.27-.13-5.93.14-5.61-3.61s3.52-1.88,5.58-1.94Z"/><path class="cls-2" d="M452.08,596.66c-.18,3,.26,5.23-2.38,5.52-2,.23-2.87-1.48-3.2-3.08q-2.78-13.29-5.32-26.64c-.27-1.43.21-3.18,1.83-3.28a3.3,3.3,0,0,1,3.52,2.76C448.44,580.56,450.39,589.17,452.08,596.66Z"/><path class="cls-2" d="M1460.57,674.25c-1,4.28-1.93,8.58-3.12,12.81-.46,1.61-.52,4.13-3.19,3.8-3.08-.37-2.53-3-2.33-4.92.46-4.38,1.18-8.73,1.8-13.1.85-3.36,1.82-6.7,2.5-10.09.44-2.21.83-4.53,3.64-4,3,.51,2.11,3.25,2,5.18C1461.6,667.35,1461,670.8,1460.57,674.25Z"/><path class="cls-2" d="M1444.81,749.1c-2,8.95-2.81,18.12-7.16,26.3-.83,1.56-1.65,3.93-4,2.8-1.92-.92-.67-2.74-.27-4.29,2.1-8.1,4-16.26,6.18-24.33.45-1.64,1.55-3.64,3.91-3.23C1444.91,746.61,1444.7,748.08,1444.81,749.1Z"/><path class="cls-2" d="M1442.08,732.07c1.51-7.73,3-15.48,4.56-23.2.51-2.43,1-6.12,3.85-5.78,3.56.42,2,4.19,1.69,6.4-1.08,7.09-2.57,14.12-3.9,21.18-1.06,1.89-1.12,4.86-4.25,4.66C1442.27,735.21,1442.41,733.37,1442.08,732.07Z"/><rect class="cls-1" width="1" height="1"/><rect class="cls-1" x="1919" y="1079" width="1" height="1"/><rect class="cls-1" y="1079" width="1" height="1"/><rect class="cls-1" x="1919" width="1" height="1"/></g><g id="Capa_3" data-name="Capa 3"><path d="M835,474.53v111H815.19V514.82l-19.51,14.91L779.5,542.26l-16.17-12.53-19.51-14.91v70.74H724v-111l19.83,15.23L779.5,517.2l35.69-27.44Z"/><path d="M888.94,511.49V587H869.12V509.43A15.83,15.83,0,0,0,855.63,496h-4.44V476.28h4.29v.16A35.35,35.35,0,0,1,885,496.26a41.54,41.54,0,0,1,2.69,7.46,33,33,0,0,1,1,8.09Z"/><path d="M942.55,511.49V587H922.73V509.43A15.83,15.83,0,0,0,909.24,496H904.8V476.28h4.28v.16a35.35,35.35,0,0,1,29.51,19.82,41.54,41.54,0,0,1,2.69,7.46,33,33,0,0,1,1,8.09Z"/><path d="M1059.61,529.57a32.76,32.76,0,0,1-23.48,55.52H990.61a32.59,32.59,0,0,1-30.14-20,34.46,34.46,0,0,1-2.53-12.85V506.73a32.13,32.13,0,0,1,8.24-21.41,33.68,33.68,0,0,1,9.52-7.46,31.41,31.41,0,0,1,14.91-3.64h69V494h-69a13.07,13.07,0,0,0-13,13v15.54A32.68,32.68,0,0,1,990,520.06h46.79a32.73,32.73,0,0,1,23,10ZM1036,565.26a13.07,13.07,0,0,0,13-13,12.92,12.92,0,0,0-12.21-13H990a13,13,0,0,0,.63,26H1036Z"/><path d="M1193.47,494.52a34.27,34.27,0,0,1,2.54,12.85v45.52A32.66,32.66,0,0,1,1185.54,577a34.29,34.29,0,0,1-7.29,5.23,31.45,31.45,0,0,1-14.91,3.65h-69V566.05h69a13.06,13.06,0,0,0,13-13V537.5A32.44,32.44,0,0,1,1164,540h-46.79a32.76,32.76,0,0,1,.47-65.51h45.53a32.56,32.56,0,0,1,30.13,20Zm-88.66,12.85a13,13,0,0,0,12.37,13H1164a13,13,0,0,0-.63-26h-45.53A13.07,13.07,0,0,0,1104.81,507.37Z"/></g></g></svg>