<svg xmlns="http://www.w3.org/2000/svg" viewBox="0 0 1920 1080"><defs><style>.cls-1{fill:#f2f2f2;}.cls-2{fill:#010101;}</style></defs><g id="Capa_2" data-name="Capa 2"><g id="Capa_1-2" data-name="Capa 1"><path class="cls-1" d="M1709.82,497.73c-2.71,18.24-14.56,30.46-32.63,33.47a103.92,103.92,0,0,1-16.79.94c-49,.07-98,.39-146.93,0-27.71-.2-47.74,11.66-61,35.63-2.56,4.62-5.19,9.23-8.06,13.68-8.72,13.52-21,22.18-36.87,24.77s-32.07.8-48.74-.8l17.31-13.29c.59-2.24,3.48-4.73,1-6.7-3.47-2.7-6.87-.59-9.83,1.84a3.28,3.28,0,0,1-.52.76c-7.46,6.14-14.17,13.84-22.62,17.93-8.25,4-18.38.92-27.68,1.31-32.13,1.32-57.7,14.77-75.2,41.91-11.13,17.28-21.16,35.27-31.73,52.93-3.2,5.34-6.25,10.81-9.87,15.87-17.4,24.31-41.43,36.45-71,36.77-41.51.44-83,.15-124.54.17-11.56,0-23.09.08-34.65,0l-13.66.19c-3.73,0-7.45-.07-11.18-.08-20.82,0-41.63,0-62.44-.12-3,0-6.22.82-9.11-.9a7.3,7.3,0,0,1-6.91,0c-3.49,1.82-7.25.85-10.86.9q-19.39.21-38.79.05c-3,0-6.16.8-9-1-40,3.59-72.09-9.1-92.91-45.22-10.41-18.06-21.29-35.84-32-53.69C663.7,624,636.1,608.31,599.87,607.62c-6.23-.12-12.47-.4-18.68-.22a14.08,14.08,0,0,1-11.62-4.78c-4.76-5.36-12-7.89-16.09-13.94-2.13-1.21-4.2-2.57-6.42-3.58-1.29-.58-2.94-1.59-4.26-.18s-.72,2.88,0,4.32c.51,1,2.07,1.5,1.54,3,2.7,3.88,7.29,5.61,10.42,9,1,1.09,2.74,1.57,2.32,3.54-.53,2.43-2.5,2.45-4.35,2.43-11.51-.1-23,.7-34.55-.43-2.68.34-5.36.64-7.64-1.31-13.74-1.45-23.79-8.79-32.13-19.39-7.09-9-11.21-19.82-18.21-28.91-11.45-14.87-26.29-23.37-44.86-24.92-9.32-.78-18.72-.63-28.08-.64q-64.14,0-128.29.12c-4.66,0-9.34-.34-14-.57-22.3-1.08-33-18.34-35.05-34a88.93,88.93,0,0,1,0-24.28c3.57-24.91,16.79-42.72,40.54-51.56,43.72-16.28,87.61-32.12,131.47-48q50.44-18.26,101.53-34.63c39.47-12.76,79.8-22,120.54-29.63,18.67-3.52,37.33-7.1,56.09-10.16a34.48,34.48,0,0,1,8.35-.73,139.21,139.21,0,0,1,35.3-5.58,43.64,43.64,0,0,1,15.4-1.87,322.4,322.4,0,0,1,57.64-7.5c14.53-2.47,29.2-3.78,43.88-5.07l0,.06c29.47-2.95,58.91-6.15,88.54-7,1.87,0,3.73-.17,5.61-.15a2.23,2.23,0,0,1,2.33,2.3c.16,1.34-.18,2.82-1.31,3.22-2,.71-4.23.79-6.33,1.3a2.67,2.67,0,0,0,.16,5.25c2.3.69,5.68-.66,6.73,2.06,1,2.49.62,5.5.63,8.29.05,15.59-.08,31.19.12,46.78.05,4.46-.79,7.09-5.57,9.13-33.68,14.29-56.44,39.12-68.86,73.4-1.42,3.92-3,5.51-7.28,5.12-5.27-.48-10.61,0-15.89-.34-4.88-.32-7.56,1.55-8.5,6.38C808,450,805.22,466,807.11,482.29a273.58,273.58,0,0,0,5.06,27.53c1,4.68,3.25,6.06,7.72,5.91,7.16-.28,14.36.16,21.51-.19,4.1-.21,6.13,1.39,8,4.86q27.55,52.49,85.64,64.75s16.56,4.34,48.85,1.09a34.93,34.93,0,0,0,4.51-1.2c35.89-8.79,63-29.16,80.41-61.8,3.16-5.94,6.56-8.13,12.94-7.68s13.1,0,19.65.15c3.42.09,4.66-1.35,5.65-4.58,7.81-25.39,8-50.85,1.7-76.57-1.28-5.21-3.8-7.27-9.06-6.93-5,.31-10-.2-15,.13-4.42.3-6.67-1.24-8-5.59C1072,406.34,1062.9,393,1052,380.72a117.57,117.57,0,0,0-42.93-30.84c-4.23-1.77-6.51-3.65-6.42-8.68.34-17.16.36-34.33.18-51.49-.06-4.73,1.21-7.06,6.2-6.31a3.67,3.67,0,0,0,.93-.06c1.9-.17,4.17-.48,3.94-2.85-.19-2-2.24-2.78-4.29-2.8-.94,0-1.87-.12-2.8-.11-2.79.05-4-1.55-3.93-4.08,0-3.52,2.58-2.66,4.67-2.52,17.12,1.15,34.27,2,51.33,3.56,9.61.89,19.35.79,28.81,3.11,18.27.09,36.25,2.94,54.26,5.54l2,.28c14.87,1.18,29.82,1.57,44.33,5.54l33,4.05c-2.51,4-5.41,1.72-7.7,1.89s-4.35.52-4.62,3.38,1.54,3.44,4,4c10.68,2.3,21.56,3.2,32.36,4.59,2.16.28,4.17.1,5.68-2.19,2-3.14-1.34-4.06-2.45-6.86,3.34.21,6.29.08,9.13.6,56.66,10.24,113.38,20.24,168.59,37,41.66,12.68,82.69,27.28,123.68,42,37.48,13.43,74.82,27.21,112.21,40.9a136.34,136.34,0,0,1,12.9,5.43c19.35,9.39,30.83,24.87,34.2,46A91.28,91.28,0,0,1,1709.82,497.73Z"/><path class="cls-2" d="M1760.42,361.25c0-5.26-4.77-8.58-4.77-8.58-5.23-2.83-10.14-3.26-15.06-3.27q-60.37,0-120.8,0a36.67,36.67,0,0,0-18.76,4.75,32.85,32.85,0,0,1-24.44,3.38,112.2,112.2,0,0,1-13.25-4.48c-64.83-24.05-130.49-45.4-197.85-61.2-54.65-12.81-109.94-22-165.55-29.44q-57.06-7.62-114.39-12.49c-38.88-3.31-77.83-5.48-116.88-5.56l-19.79.47c-66.29,0-165.84,10-165.84,10-67,7.23-133.56,16.7-199.5,30.48-63.47,13.28-125.44,31.89-186.64,53.1-15.3,5.29-30.53,10.74-45.62,16.59-12.11,4.69-23.63,4.71-35-1.84-5.26-3-11.07-3.93-17.11-3.92-37.46.05-74.91,0-112.36.06-7.4,0-14.91-.26-22.47,4.24-2.85,1.48-4.53,6.44-4.53,6.44-.69,45.25-.78,85.35-.89,130.6,0,6.77,1.14,12.84,5.32,18.43,5.38,7.19,7.62,15.4,7.39,24.54-.4,14.66.39,29.37-.33,44-.9,18.29,6.18,31.2,22.69,39.29a243.4,243.4,0,0,1,22.7,13c11,6.91,22.52,12,35.58,13.06l18.28-1.3c8.68-3.86,12.49-10.42,12.2-20-.39-12.46-.12-24.94-.08-37.41.06-10.12,2.44-14.1,9.49-16.1,9.15-2.62,16.28-.28,20.5,7.73,2.25,4.28,5.05,5.53,9.53,5.5,24-.11,48,0,72,0,5.92,0,11.81.3,17.73.76,11.64.9,19.79,6.88,25.57,16.51,8.16,13.62,16.16,27.34,24.18,41,26.27,44.87,52.73,89.63,78.66,134.7,13.52,23.48,31.74,41.36,56.66,52.25,12,4.73,31.53,8.57,31.53,8.57,14.35.46,28.65.24,42.76-3.1q20.9-4.93,41.91-9.38c44.54-9.36,89.5-16,134.69-21.28,35.07-4.08,70.24-5.35,105.47-6.13l20.86.56c27.16.35,54.24,1.84,81.31,4.22,28.91,2.54,57.63,6.22,86.3,10.6,37.92,5.78,75.24,14.46,112.73,22.39,33.91,7.19,64.92-.07,92.63-21.1,12.9-9.77,22.83-22,31-35.88,33.68-57.58,67.79-114.91,101-172.72,8.82-15.33,20.8-22.47,38-22,4.07.1,8.13,0,12.19,0,22.79,0,45.58-.12,68.37-.07,4,0,7.32-.42,8.72-5,2.66-8.68,11.87-9.92,20.47-8.37,6.34,1.15,9.23,4.12,9.87,10.61.69,6.82,1,13.7,1.09,20.55.17,9-.25,18.11.17,27.15.4,8.31,5.45,14,13.64,15.49,12.17,2.16,24.64,2.07,35.73-3.59,15.8-8.06,31-17.24,46.23-26.41,8.44-5.1,13.15-12.87,14-23,.75-8.74.63-17.46.57-26.19-.09-10.92-.61-21.82.06-32.76.46-7.45,2.5-14.27,7-20,4.35-5.54,5.42-11.5,5.53-18.27C1761.54,448,1760.65,404.62,1760.42,361.25ZM950.54,270.09c5,0,10.76-1.19,9,8.84,4-3.17,1.4-7.36,4.18-8.28,2.25-.75,4.9-.57,7.37-.49,6.54.19,13.07.5,19.6.83,2.33.13,4.49.92,4.5,3.69,0,3.2-2.57,2.9-4.72,2.91-6.73,0-13.5,0-21.61,0,6.09,6.95,4.44,14.31,4.75,21.31.27,5.91.11,11.84.19,17.76,0,2,.55,3.82,3,3.95,2.76.15,2.6-2.07,2.75-3.85.68-8.41.25-16.82.09-25.24,0-2.55-1.76-6.46,1.71-7.42a22.07,22.07,0,0,1,12.83.49c1.2.4,1.43,1.94,1.43,3.21,0,18.59,0,37.18,0,56.6-4.17-.86-7.17-1.36-10.09-2.13-5.39-1.42-10.73-2.61-16.43-2.44-6.87.2-6.88-.14-7.1-7.41-.11-3.77-.2-7.55-1.37-11.32-2.38,4.56-1.52,9.4-1.79,14.09-.13,2.28-.09,4.83-3.2,4.46-10.49-1.27-20.11,3.12-30.17,4.54-1.72-3.46-.89-6.93-.91-10.28-.1-14.65.14-29.31-.13-43.95-.08-4.56,1.51-6.3,5.88-5.83a5.7,5.7,0,0,0,.92-.07c9.23-.58,9.29-.59,9.62,8.54.28,7.79.34,15.58.59,23.37.06,2-.36,4.63,3,4.71,3.16.08,3.28-2.11,3.34-4.43.19-8.4.48-16.82.59-25.23,0-4.41.31-8.68,5.61-13.37-9.37,0-16.59.06-23.82,0-2.24,0-5.35.92-5.18-3.24.14-3.37,2.36-4,5.09-4.07Zm52.33,19.62c-.06-4.73,1.21-7.06,6.2-6.31a3.67,3.67,0,0,0,.93-.06c1.9-.17,4.17-.48,3.94-2.85-.19-2-2.24-2.78-4.29-2.8-.94,0-1.87-.12-2.8-.11-2.79.05-4-1.55-3.93-4.08,0-3.52,2.58-2.66,4.67-2.52,17.12,1.15,34.27,2,51.33,3.56,9.61.89,19.35.79,28.81,3.11,18.27.09,36.25,2.94,54.26,5.54l2,.28c14.87,1.18,29.82,1.57,44.33,5.54l33,4.05c-2.51,4-5.41,1.72-7.7,1.89s-4.35.52-4.62,3.38,1.54,3.44,4,4c10.68,2.3,21.56,3.2,32.36,4.59,2.16.28,4.17.1,5.68-2.19,2-3.14-1.34-4.06-2.45-6.86,3.34.21,6.29.08,9.13.6,56.66,10.24,113.38,20.24,168.59,37,41.66,12.68,82.69,27.28,123.68,42,37.48,13.43,74.82,27.21,112.21,40.9a136.34,136.34,0,0,1,12.9,5.43c19.35,9.39,30.83,24.87,34.2,46a91.28,91.28,0,0,1,.57,28c-2.71,18.24-14.56,30.46-32.63,33.47a103.92,103.92,0,0,1-16.79.94c-49,.07-98,.39-146.93,0-27.71-.2-47.74,11.66-61,35.63-2.56,4.62-5.19,9.23-8.06,13.68-8.72,13.52-21,22.18-36.87,24.77s-32.07.8-48.74-.8l17.31-13.29c.59-2.24,3.48-4.73,1-6.7-3.47-2.7-6.87-.59-9.83,1.84a3.28,3.28,0,0,1-.52.76c-7.46,6.14-14.17,13.84-22.62,17.93-8.25,4-18.38.92-27.68,1.31-32.13,1.32-57.7,14.77-75.2,41.91-11.13,17.28-21.16,35.27-31.73,52.93-3.2,5.34-6.25,10.81-9.87,15.87-17.4,24.31-41.43,36.45-71,36.77-41.51.44-83,.15-124.54.17-11.56,0-23.09.08-34.65,0l-13.66.19c-3.73,0-7.45-.07-11.18-.08-20.82,0-41.63,0-62.44-.12-3,0-6.22.82-9.11-.9a7.3,7.3,0,0,1-6.91,0c-3.49,1.82-7.25.85-10.86.9q-19.39.21-38.79.05c-3,0-6.16.8-9-1-40,3.59-72.09-9.1-92.91-45.22-10.41-18.06-21.29-35.84-32-53.69C663.7,624,636.1,608.31,599.87,607.62c-6.23-.12-12.47-.4-18.68-.22a14.08,14.08,0,0,1-11.62-4.78c-4.76-5.36-12-7.89-16.09-13.94-2.13-1.21-4.2-2.57-6.42-3.58-1.29-.58-2.94-1.59-4.26-.18s-.72,2.88,0,4.32c.51,1,2.07,1.5,1.54,3,2.7,3.88,7.29,5.61,10.42,9,1,1.09,2.74,1.57,2.32,3.54-.53,2.43-2.5,2.45-4.35,2.43-11.51-.1-23,.7-34.55-.43-2.68.34-5.36.64-7.64-1.31-13.74-1.45-23.79-8.79-32.13-19.39-7.09-9-11.21-19.82-18.21-28.91-11.45-14.87-26.29-23.37-44.86-24.92-9.32-.78-18.72-.63-28.08-.64q-64.14,0-128.29.12c-4.66,0-9.34-.34-14-.57-22.3-1.08-33-18.34-35.05-34a88.93,88.93,0,0,1,0-24.28c3.57-24.91,16.79-42.72,40.54-51.56,43.72-16.28,87.61-32.12,131.47-48q50.44-18.26,101.53-34.63c39.47-12.76,79.8-22,120.54-29.63,18.67-3.52,37.33-7.1,56.09-10.16a34.48,34.48,0,0,1,8.35-.73,139.21,139.21,0,0,1,35.3-5.58,43.64,43.64,0,0,1,15.4-1.87,322.4,322.4,0,0,1,57.64-7.5c14.53-2.47,29.2-3.78,43.88-5.07l0,.06c29.47-2.95,58.91-6.15,88.54-7,1.87,0,3.73-.17,5.61-.15a2.23,2.23,0,0,1,2.33,2.3c.16,1.34-.18,2.82-1.31,3.22-2,.71-4.23.79-6.33,1.3a2.67,2.67,0,0,0,.16,5.25c2.3.69,5.68-.66,6.73,2.06,1,2.49.62,5.5.63,8.29.05,15.59-.08,31.19.12,46.78.05,4.46-.79,7.09-5.57,9.13-33.68,14.29-56.44,39.12-68.86,73.4-1.42,3.92-3,5.51-7.28,5.12-5.27-.48-10.61,0-15.89-.34-4.88-.32-7.56,1.55-8.5,6.38C808,450,805.22,466,807.11,482.29a273.58,273.58,0,0,0,5.06,27.53c1,4.68,3.25,6.06,7.72,5.91,7.16-.28,14.36.16,21.51-.19,4.1-.21,6.13,1.39,8,4.86q27.55,52.49,85.64,64.75s16.56,4.34,48.85,1.09a34.93,34.93,0,0,0,4.51-1.2c35.89-8.79,63-29.16,80.41-61.8,3.16-5.94,6.56-8.13,12.94-7.68s13.1,0,19.65.15c3.42.09,4.66-1.35,5.65-4.58,7.81-25.39,8-50.85,1.7-76.57-1.28-5.21-3.8-7.27-9.06-6.93-5,.31-10-.2-15,.13-4.42.3-6.67-1.24-8-5.59C1072,406.34,1062.9,393,1052,380.72a117.57,117.57,0,0,0-42.93-30.84c-4.23-1.77-6.51-3.65-6.42-8.68C1003,324,1003.05,306.87,1002.87,289.71Zm221.84,5.77c3.16-2.87,6-.46,8.93,0C1230.49,298.23,1227.67,295.75,1224.71,295.48Zm13.89,2.3c1.8-1.81,3.72-1.7,5.69-.77C1242.71,300.16,1240.46,297,1238.6,297.78ZM562.73,606.61a5.51,5.51,0,0,1-2.31.66c-1.3.09-2.27-.47-2.36-1.24.06-1.81.91-2.3,1.74-2.25A2.94,2.94,0,0,1,562.73,606.61ZM855.92,485.08c1,8,4.53,15.47,5.91,23.4-13.56-17.24-14.18-54.66-1.23-72.55-1,7.84-4.41,15.22-5.12,23.12A125.1,125.1,0,0,0,855.92,485.08Zm88.69-27.75c-3.88-.22-3.11,3.13-3.19,5.43-.14,5,0,10-.14,15-.07,2.67.59,6-3.93,5.82-3.91-.13-3.29-3-3.29-5.36q0-21.54.11-43.05c0-1.84-.14-3.86,2.64-4,2.48-.1,4.34.5,4.49,3.41,0,.63.08,1.25.1,1.87.05,2.34.54,4.68,3.33,4.72,3.29,0,2.85-2.83,2.71-4.86-.31-4.23,1.75-5.22,5.58-5.24s5.81.71,5.84,5c0,2.07-1.29,5.13,2.11,6.27,2.12-1.38,1.16-3.38,1.25-5.05.34-6.23.3-6.09,6.24-6.14,3.28,0,5.42.55,5.35,4.46,0,2.44.18,5,3.13,6.27,3.17-1.28,2-4.17,2.23-6.36.25-2.35.38-4.51,3.42-4.4,2.68.09,2.51,2.28,2.53,4.09.17,15,1.08,29.92.27,44.89-.11,2.06-.51,3.75-3.08,3.56-2.36-.17-3.06-1.76-3.08-3.84-.09-6.24-.13-12.47-.27-18.71,0-1.48.15-3.29-2-3.53-2.54-.28-3.14,1.41-3.17,3.46-.1,5.93-.46,11.87-.13,17.78.26,4.55-1.91,5-5.56,4.86-3.26-.16-6.3.25-6.08-4.61.29-6.54.2-13.1.24-19.65,0-1.22.09-2.48-1.3-3.63-2.49,1-2.12,2.66-2.15,4.1-.08,4.35.61,8.86-.26,13.05-.75,3.64,4.11,10.2-4.48,10.55-6.13.24-6.11.21-6.32-10.08-.08-3.43,0-6.87-.31-10.28C947.26,460.9,948.37,457.54,944.61,457.33Zm22.15,96.89c3.61-.13,7-.31,6.84,4.89a2.37,2.37,0,0,0,2.22,2.55,3,3,0,0,0,3.46-2.43c.7-4.81,4-4.82,7.6-4.58,10.4.67,19.48-3,28.26-8.15a154.14,154.14,0,0,0,33.26-25.56c4-4.12,8.23-6.47,14-5.06-6.92,31.24-58.91,64.49-100,63.73-1.4-6,1-12.62-3.45-18.32v17.94C915.17,582,869.94,550.31,857.19,516c6-2.06,10,1.28,13.84,5.12,9.28,9.37,20,16.84,31.19,23.69,10.06,6.15,20.61,10.19,32.64,9.42,3.48-.23,7.11-.4,6.9,4.86a2.31,2.31,0,0,0,2.24,2.5,2.71,2.71,0,0,0,2.82-2c.67-6.61,5.6-5.8,9.75-5.37A75.29,75.29,0,0,0,966.76,554.22ZM1081.06,436c25.15-.78,20.58-2.65,23.38,18.63a131.76,131.76,0,0,1-2.69,47.25c-1.06,4.59-2.39,7.1-7.76,6.54-5.52-.57-11.15-.13-17.71-.13,3.52-12.12,7-23.59,7.72-35.59S1084.26,448.54,1081.06,436ZM1068.42,507a3.68,3.68,0,0,1-1.14,1.46,18.11,18.11,0,0,1-2.9,1.26c3.65-12.64,7.56-24.4,7.29-36.93s-1.55-24.83-7-37.07c4.86-1.16,8-1.26,9,3.48C1078.73,462.31,1077.42,484.93,1068.42,507Zm-10.59,1.51c9.07-24.17,10.55-48.38.27-72.62C1073.82,449.52,1070.49,495,1057.83,508.48Zm-204.47-7.33c.45,1.15.87,2.33,1.39,3.44.71,1.51,1.17,3.34-.39,4.15-1.94,1-2.36-1-3-2.37a76,76,0,0,1-6.3-21.38,136.75,136.75,0,0,1,.46-44.59c.88-5,3-6.28,8.41-4.67-2.32,8.64-4.84,16.68-5.63,25C847,474.57,848.35,488.1,853.36,501.15Zm-4.21-73.95c12.17-33.88,34.43-57,67.59-72,.62,11.47,1.51,20.72-7.43,29-13.25,12.28-25.92,25.22-39.43,37.25C862.19,428.29,862.19,428.3,849.15,427.2Zm-5.89,80.19c-3.56,1.82-5.77,1.15-7.88,1.17-16.23.18-16.08.12-19.11-15.43-3.46-17.69-2.38-35.17,1.18-52.69.76-3.75,2-5.37,6-5.06,4.63.36,9.31.09,15.51.09C832.77,460.43,835.67,484.1,843.26,507.39ZM1003.9,355.75c32.3,14.25,54.46,37.36,66.44,71.18-8.45,2.51-14.53.28-20.24-5.15-12.84-12.23-25.89-24.23-38.48-36.75C1003.17,376.62,1000.86,367.6,1003.9,355.75Zm3.06,35.12a539.86,539.86,0,0,0,40.76,38.56c9,7.81,11.9,18.84,13.58,30,2,13.47.23,26.72-4.47,39.51a31.47,31.47,0,0,1-8.25,12.24,205.31,205.31,0,0,1-41.29,30.45c-6.76,3.79-13.84,5.22-21.49,5.28-3.9,0-5.65-1-5.7-5.1-.07-6.55-.59-13.09-.91-19.63-.1-2.08-.82-3.83-3.2-3.52-1.74.22-2.3,1.77-2.3,3.52,0,6.86-.25,13.74,0,20.59.15,4-1.67,4.87-5.05,4.41-2.78-.37-6.64,1.31-6.61-4,.12-16.23.21-32.45.17-48.68,0-3.68,2.2-4.11,4.88-3.82,2.4.28,5.94-1.78,6.52,2.86a18.49,18.49,0,0,0,1,5.41c.83,1.81,3.42,1.65,3.41.07,0-10.19,8.67-8.2,14.46-10.41,0-19.81-.08-39.45.08-59.08,0-4.23-1.89-5.13-5.6-5.43-6.6-.53-6.58-.75-6.85-7.42q-.25-7-.59-14c-.09-2.18.05-4.84-3.14-4.61-2.9.22-2.89,2.76-2.91,5,0,5.3-.19,10.61,0,15.9.16,3.59-1,5-4.72,4.88-5.61-.24-11.24-.15-16.85,0-3.18.07-4.44-1.21-4.36-4.41.16-5.62.08-11.24,0-16.85,0-1.81.07-4-2.48-4.29-2.78-.29-3.83,1.49-3.85,4,0,4.68-.1,9.36,0,14,.1,6.86.63,7.74-6.85,7.53-.62,0-1.25.07-1.87,0-4.65-.6-5.8,1.67-5.73,6,.21,13.72,0,27.46,0,41.19v17.7c2.74.53,4.88,1.34,7,1.29,5.17-.11,8.46,1.22,7.7,7.34a2.76,2.76,0,0,0,2.91,3c1.89,0,2.42-1.46,2.86-3.06,1.91-7.07,1.95-7.06,10.79-6.44v55.49c-1.83,1.25-3.41.52-4.89.72-4.08.54-5.6-1.28-5.52-5.27.11-5.92-.06-11.85-.17-17.78-.06-2.42.36-5.35-3.52-5.16-3.3.18-2.73,2.81-2.79,4.85-.17,5.93-.35,11.86-.24,17.78.06,3.83-1.07,5.64-5.34,5.59-8.2-.13-15.89-1.36-23.36-5.34-16.17-8.58-30-20.09-43.12-32.6-5.37-5.15-7.2-12.23-8.79-19.29-2.4-10.72-3.51-21.47-1.34-32.42,2.63-13.18,7.52-24.66,18.77-33.3,12.36-9.49,23.3-20.76,33.9-32.22,2.83-3.07,5.46-3.95,9.62-3.77,10.59.46,21.21.27,31.82.05,4-.1,5.6,1.19,5.45,5.3-.24,6.67-.06,13.36-.06,20l2.76-.06c1.47-6.32,1-12.81.92-19.22-.05-4.28,1-6.17,5.7-6.11,11.22.14,22.45-.16,33.66-.44C1004.21,387.66,1005.5,389.3,1007,390.87Zm-65.69-13.79c0,3.16-1.26,4.59-4.37,4.56-3.73,0-7.46,0-12.4,0V355c0-2.35,1.63-3.22,3.51-3.59,3.93-.79,7.87-1.43,13.21-2.37C941.22,359.11,941.15,368.1,941.27,377.08Zm17.25-12.64h.06c0,4.64,0,9.29,0,13.93,0,2.9-1.65,3.82-4.2,3.38s-6.51,1.16-6.68-2.92c-.37-9.57-.32-19.18.08-28.75.17-4.13,4.22-2.54,6.68-3s4.11.52,4.07,3.44C958.46,355.16,958.52,359.8,958.52,364.44Zm3.74-11.93c0-3-.11-5.74,4.22-5.3,3.27.34,7.1-.7,7,4.83-.18,9.58,0,19.17,0,29.7-2.54,0-4.07-.08-5.59,0-4.27.26-6.13-1.34-5.88-6C962.36,368.05,962.25,360.27,962.26,352.51ZM995.62,366c0,2.5,0,5,0,7.5-.13,8.87-.14,8.87-8.79,8.52-6.84-.27-6.91-.28-7-6.81-.08-8.41,0-16.82,0-25.52,1.17-.4,1.49-.63,1.75-.58C998.52,352.75,995.29,350.41,995.62,366ZM958.49,769.62v.94c0,12.44.38,10.08-9.8,10.13-48.13.2-96,4.19-143.66,10.53a1209.83,1209.83,0,0,0-138.52,26.4c-43.15,11-89-9.21-111.15-47.82-19.69-34.33-39.92-68.35-59.91-102.51q-18.63-31.87-37.23-63.79c-1.88-3.24-3.88-6.4-5.64-9.7-10.35-19.3-26.71-27.83-48.31-27.63-22.47.2-44.95-.13-67.42.13-6.85.07-12.36-.85-17.29-6.61-10-11.67-34.31-8.69-43-.39-6.63,6.32-9,13.93-8.95,22.71,0,12.48,0,25-.1,37.44-.08,6.81-.58,7.26-7.43,7.87-8.53.75-16.8-.2-24.42-4.56q-19.47-11.12-39-22.2c-7.17-4.08-10.45-10.09-10.28-18.48.32-15.61.16-31.22.18-46.82,0-12.75-2.75-24.73-10.21-35.31a14.33,14.33,0,0,1-2.54-8.76c.08-39.95.06-79.9.18-119.84,0-7,.22-7.23,7.51-7.24,39.64-.09,79.29,0,118.93-.07a18,18,0,0,1,8.9,2.33c16.17,8.8,32.51,8.61,49.53,2,36.86-14.33,74.37-26.8,112.19-38.42a1398.28,1398.28,0,0,1,185.5-43.05q76.2-12.48,153-20c38.18-3.79,76.48-6.49,114.87-7.4,1.82,0,3.7-.54,5.47.43-1.3,3.53-4.53,2.86-7.16,3.07-13.68,1.09-27.37,2.2-41.09,3-49.52,2.73-98.77,8.14-147.94,14.62C693,286,652.38,292.44,611.9,299.67c-63.58,11.35-125.51,28.62-186.44,50-57.27,20-114.24,40.92-171.2,61.79-9.7,3.55-19,7.83-27,14.55-16.57,13.85-24.64,31.72-25.29,53.1-.16,5.3-.21,10.62,0,15.92.76,15.25,8.11,27.39,19.38,37,3.75,3.18,9.47,4.14,14.38,5.85,2.92,1,6,1.52,9.06,2.25q82.74,0,165.49,0a31.42,31.42,0,0,1,4.58.67c17.36,1.39,31.18,8.9,40.65,23.74,3.36,5.25,6.58,10.6,9.55,16.08,11.88,21.88,30.32,33.1,55.06,34.61,22.15,1.35,44.3.56,66.46.27,1.73,0,3.59-.94,5.21.5-5.2,11.11-5.21,11.13,5.08,19.34q7,5.54,14,11a42.86,42.86,0,0,0,5.43,3.64c1.94,1.07,4.25,2,5.87-.31,1.39-1.92-.23-3.54-1.46-4.89a50.53,50.53,0,0,0-4.75-4.5c-4.26-3.65-8.54-7.31-12.89-10.85s-7.29-7.56-7.37-14c21.25-.84,40.53,4.27,57.49,17.41,9.78,7.58,17.2,17.12,23.5,27.64,11.2,18.73,22.59,37.34,33.45,56.25,10.32,17.91,25.68,30.48,43.57,39.34,8.72,4.31,19.32,5.82,29.49,6.14,9.24.28,18.5.06,28.39.06-2,3.25-5.07,2.33-7,3.84a4.63,4.63,0,0,0-1.78,4.91c.44,2.34,2.42,2.64,4.38,2.34q16.65-2.5,33.28-5.13c1.17-.19,2.81-.63,3.3-1.48,4.77-8.29,12.13-4.86,17.86-2.89a27.15,27.15,0,0,0,11.54,1.82c26.1-2.2,52.19-4.2,78.41-3.47C959.12,762.38,958.6,762.51,958.49,769.62Zm784-268.42c-6.27,9.31-9,19.7-8.92,30.94.14,15.92-.25,31.85.14,47.75.26,9.81-3.54,16.86-11.89,21.62-12.71,7.25-25.44,14.51-38.23,21.64-7.92,4.43-16.62,4.75-25.46,4.38-4-.17-5.5-2.15-5.52-5.85q-.15-12.63-.33-25.27c-.1-6.54.14-13.13-.4-19.64-.79-9.35-5.71-16.38-13.87-20.93-12.79-7.14-31.36-4.16-40.9,7-3,3.53-6.19,3.49-9.89,3.49-22.48,0-45,0-67.43-.19a118,118,0,0,0-20.49,1.87c-13.25,2.25-22.51,10.26-29.26,21.35-8.11,13.32-16,26.78-23.82,40.25-26.69,45.77-53.49,91.49-79.94,137.41-15.1,26.22-36.67,43.56-66.15,51-16.81,4.24-33.37,3-50-1.07-57.26-14.15-115.39-23.35-173.87-30.57a15.18,15.18,0,0,1-9.1-1.22l-5.72-.29c-3.4.32-6.79.55-10-1.08-5.47-.35-10.92-.7-16.38-1-3.45.32-6.91.58-10.17-1l-21.64-.74c-12.21,0-24.44.8-36.58-1.14a1.87,1.87,0,0,1-2.77,0c-1.73.1-1.84-.9-1.5-2.21-.8-15.56-.8-15.58,14.76-15.41,4.36,0,8.7.31,13.06.47a136.26,136.26,0,0,1,27,.69c12.07,1.39,24.26,1.69,36.39,2.51,2,.13,3.35-1,5-1.79,5.43-2.72,11.18-4.11,16,1.3,2.77,3.14,7.16,1.82,10.09,4.23a6.83,6.83,0,0,1,4.8.56c3.47,0,7.06-.83,10.21,1.48,4.63.45,9.27.86,13.9,1.37,2,.21,4.16.31,4.65-1.89.41-1.89-1.23-3.34-2.83-4.43-2.83-2-6.32-2-9.54-3.36,5.28-2,10.65-1.38,15.94-1.13,21.53,1,41.36-3.9,59.46-15.87,12-7.93,21.13-18.36,28.45-30.55q14.93-24.84,29.71-49.78c5.74-9.69,11.94-19,20.17-26.84,9.65-9.1,20.35-16.4,33.64-19.12,1-1.45,2.5-1.61,4.11-1.36l3.12-.59c2.39-2.1,5.25-1.7,8.07-1.5l.3,0c4-1.67,8.39-1.31,12.57-1.32,3.8,0,2,2.57,1.15,4.41-.68,6.11-5,9.66-9.3,13.26-5,4.17-9.92,8.37-14.76,12.68-1.34,1.2-2.73,2.91-1.12,4.79s3.46.73,4.91-.32c5.44-4,10.72-8.12,16.2-12,2.07-1.5,3.55-4.29,6.82-3.62v0c-.07-.3-.3-.74-.18-.89,6.72-8.33,6.72-8.32,2-16.78,1.16-2.23,3.14-1.06,4.79-1.06,20.6,0,41.21.26,61.8.09,15.84-.13,30.43-4.31,43.29-14.09,6.89-5.25,11.74-12,16.18-19.14,3.6-5.83,6.87-11.88,10.65-17.59,10.75-16.31,26-24.79,45.55-25,22.48-.21,45-.07,67.42-.09q41.7,0,83.36-.08a115.7,115.7,0,0,0,18.66-1.3c19.73-3.27,32.29-15.13,37-33.81,5-19.81,3.37-39.64-6.61-58.13a67.19,67.19,0,0,0-36.55-31.91c-81.55-30.63-163.09-61.36-246.34-87.16-41.38-12.81-83.73-21.8-126.39-29.22q-49.71-8.66-99.62-16c-23.74-3.45-47.63-5.88-71.48-8.52-19.22-2.13-38.46-4-57.71-5.8-22.06-2.09-44.15-3.58-66.31-4.06-5.56-.12-11.06-.47-15.63-4.87,6.11.31,12.21.76,18.32.92,43.39,1.16,86.54,5.26,129.69,9.82,50.55,5.36,100.83,12.68,150.92,21.36,63.62,11,126,27.09,187.37,47.08q42.6,13.89,84.56,29.67c12.54,4.75,25.11,7.5,38.34,3.29a11.65,11.65,0,0,0,2.68-.85c11.82-7.45,25-6.44,38.11-6.39,31.85.13,63.69.07,95.54.09,2.19,0,4.38.09,6.54,0,3.67-.15,5,1.74,5,5.15,0,2.19.17,4.37.17,6.55,0,36.84,0,73.67.16,110.5C1746.71,491.78,1745.65,496.58,1742.53,501.2Z"/><path class="cls-2" d="M519.39,457.08c-18.58-.52-32.06-12.72-32.48-32.71-.38-17.81,14.44-32.33,31.94-32.4a33.14,33.14,0,0,1,33.28,33.29C552,442.43,536.92,457.11,519.39,457.08Zm25.05-32.51c-.08-13.52-11.52-25-24.93-25.1S493.94,412,494.18,425.41c.24,13,11.73,24.43,24.57,24.52C532.67,450,544.52,438.32,544.44,424.57Z"/><path class="cls-2" d="M589.27,325.74c-7.84.39-15,3.56-22.51,5.21-4.56,1-9,2.35-13.79,1.3a3.23,3.23,0,0,1-2.84-3.19,2.67,2.67,0,0,1,2.22-2.6c12.86-3.63,25.6-7.76,38.93-9.5,4.21-.54,5.57,1.34,5.55,5.22-.07,11.54,0,23.08,0,34.61,0,2.16-.35,3.64-3,3.54-2.32-.09-3.29-1.24-3.34-3.49q-.24-9.34-.57-18.7C589.84,334.12,590.52,330.06,589.27,325.74Z"/><path class="cls-2" d="M820.68,278.31c-.13,4.49,3.1,2.19,4.92,2.26s3.91-.07,4.3,2.33-1,4-3.47,4.59a141.37,141.37,0,0,1-36,3.65c-2.11-.06-3.59-.91-3.84-3.16-.36-3.1,2.08-3.65,4.15-3.89,8.61-1,17.26-1.76,25.89-2.67,1.91-.2,4.64.4,4-3.17Z"/><path class="cls-2" d="M614.83,319.5c-2.54.1-4.2-.31-4.64-2.7a3.6,3.6,0,0,1,2.43-4.4c4-1.67,8.29-2.42,12.55-3.28,7.58-1.53,15.12-3.3,22.69-4.91,1.47-.32,3.21-.75,4,1.17a4.32,4.32,0,0,1-1,4.33,5,5,0,0,1-2.19,1.59A237.64,237.64,0,0,1,614.83,319.5Z"/><path class="cls-2" d="M501.16,544.22c6.52,7.54,15.14,12.65,22.36,19.38a82.48,82.48,0,0,1,6.5,6.59c1.1,1.27.84,2.9-.31,4.23a3,3,0,0,1-4.18.56c-11.18-8.55-24.3-15.2-29.75-29.52A5.34,5.34,0,0,1,501.16,544.22Z"/><path class="cls-2" d="M671.82,299.63c10.62-1.8,21.45-2.22,31.87-5.21,1.23,0,2.47.07,3.7.15,1.74.1,4.16-.67,4.61,1.77.52,2.77-1.1,4.87-3.84,5.46-5.74,1.24-11.52,2.36-17.32,3.25-5.5.84-11.05,1.48-16.6,1.93-2.24.18-5.29,1.82-6.59-1.35C666.15,302,669.44,301,671.82,299.63Z"/><path class="cls-2" d="M534.23,334.22c2.37,3.66,1.64,6.35-1.49,8.19-9.12,5.34-17.2,12-25.13,18.93-2,1.74-4,2.79-6.43.47-2.77-2.66-.72-4.42,1-6.14C511.56,346.58,522,339.14,534.23,334.22Z"/><path class="cls-2" d="M859.94,287.12c-2.79.14-5.58.41-8.37.39-2.59,0-3.88-1.47-3.86-4.13,0-2.45,1.71-3.21,3.61-3.39,8.95-.87,17.91-1.65,26.88-2.39,2.78-.23,5.58-.22,8.37-.34,2.23-.09,3.57.91,3.75,3.14.16,1.89-1.1,2.84-2.72,3.17-3,.62-6.08,1.18-9.15,1.57-6.16.79-12.33,1.45-18.49,2.17Z"/><path class="cls-2" d="M470.13,496.64c-.16-2.22-.11-4.69,2.67-5s3.49,2.08,4,4.24c2.42,10.57,5.48,20.88,11,30.35,1,1.64,2.67,4.22-.41,5.46-2.26.91-4.95,1-6.54-1.71a35.43,35.43,0,0,1-1.73-3.28C474.78,517.07,471,507.28,470.13,496.64Z"/><path class="cls-2" d="M1321.88,564.18c2-2.22-.89-8.15,4.5-7.32,4,.61,2.13,5.07,2.36,7.83.47,5.74.52,11.52.75,17.29-.15,4.6-.35,9.19-.43,13.79,0,2.49-.7,4.15-3.61,4.09s-3.35-2.11-3.37-4.38Q1322,579.83,1321.88,564.18Z"/><path class="cls-2" d="M475.56,414.87c-3.15-.6-4.35-2.53-3.57-5.42.89-3.28,2-6.52,3.19-9.71a120.72,120.72,0,0,1,10.66-21.67c1.2-1.93,3-3.54,5.37-1.93,1.89,1.3,1.07,3.28.19,5a226.94,226.94,0,0,0-12.26,30.13C478.51,413.14,477.67,414.66,475.56,414.87Z"/><path class="cls-2" d="M470,454.3V436.63c0-2,.47-3.87,2.74-4.1s3.16,1.7,3.29,3.62c.31,4.64.58,9.28.59,13.93,0,7.12-.18,14.25-.37,21.37-.05,1.93-.7,4-2.95,4-2.82.1-3.38-2.13-3.39-4.45,0-5.58,0-11.16,0-16.74Z"/><path class="cls-2" d="M597,578.17c0,5.92,0,11.85,0,17.78,0,1.84.17,3.86-2.66,3.85a3.43,3.43,0,0,1-3.77-3.24,6.26,6.26,0,0,1-.21-.91c.1-12.16.19-24.31.34-36.47,0-1.91,1.27-2.66,3.11-2.56s2.9,1,2.91,2.84c0,6.23,0,12.47,0,18.71Z"/><path class="cls-2" d="M728,292.27c13-3.65,26.44-4.57,39.73-6.45,1-.14,2.2.89,3.3,1.38-.19,2.47-.1,5-3.46,5.65-11.83,2.24-23.7,4.19-35.68,5.49C726.55,298.92,727.91,295.18,728,292.27Z"/><path class="cls-2" d="M596.69,398.33c0,5.9,0,11.81,0,17.72,0,2-.34,3.79-2.92,3.82s-2.77-2-2.78-3.82c-.05-12.12,0-24.25-.06-36.37,0-1.83.69-3,2.67-2.87a2.69,2.69,0,0,1,2.9,2.87c0,6.21,0,12.43,0,18.65Z"/><path class="cls-2" d="M596.56,460c0,5.88,0,11.76,0,17.64,0,1.95-.33,3.81-2.95,3.62-2-.14-2.41-1.69-2.47-3.28-.12-2.78-.13-5.57-.13-8.35,0-8.66,0-17.33.14-26,.05-2.21-1-5.81,2.48-6s2.83,3.33,2.88,5.65c.09,5.56,0,11.13,0,16.7Z"/><path class="cls-2" d="M596.64,519.69c0,5.91,0,11.82,0,17.73a2.51,2.51,0,0,1-2.79,2.86,2.57,2.57,0,0,1-2.8-2.9q.09-18.66.2-37.32c0-1.59.34-3.22,2.43-3.12,1.88.08,2.63,1.46,2.64,3.17,0,6.53,0,13,0,19.58Z"/><path class="cls-2" d="M1431.34,389.24c-1.18-2.53-2.3-5.1-3.57-7.6-1-2.05-2.07-3.9.8-5.44,2.6-1.39,4.48-1.35,6.22,1.48,4.77,7.77,7.85,16.23,10.67,24.81,1.66,5.05,2.38,9.83,1,15.44-1.32,5.24-2.73,11.71,3.45,16.13,1.12.8,1.22,3.47,1.23,5.28,0,10.6-.09,21.2-.16,31.8,0,2.29-.19,4.54-3.2,4.69-3.22.16-3.37-2.46-3.4-4.51-.14-9.94-.06-19.87-.06-29.87-3.44-.1-3.55,2.67-4.55,4.22-6.16,9.53-14.91,15.14-26,16.41-12.82,1.47-25.6,1.51-36.68-6.92-13.23-10.08-18.49-26.25-13.78-42.54,4.45-15.34,16.82-25.13,33.55-26.7,11.4-1.06,22.37.13,32.61,5.65,1,.76,1.77,3.08,3.28,1.36C1433.72,391.8,1432.22,390.35,1431.34,389.24Zm-55.83,36.14a24.73,24.73,0,0,0,24.57,24.4c13.57,0,25.81-12.2,25.83-25.72,0-12.14-13.55-24.91-26.14-24.59C1386.31,399.81,1375.47,411.4,1375.51,425.38ZM1412.44,394c12.4,7.37,19.32,15.93,20.16,28.64s-5.42,22.14-15.44,30.75c14.2-4.67,21.63-15.95,21.54-30.1C1438.63,411.66,1430.13,396.28,1412.44,394Z"/><path class="cls-2" d="M1329.09,324.23c0,9.63,0,18.33,0,27q0,2.81-.12,5.61-.13,3.36-3.54,3.32c-2.41,0-3.14-1.45-3.15-3.6,0-5.61-.11-11.22-.13-16.82s-.11-11.23,0-16.83c.16-5.89.67-6.51,6.65-5.74,12.69,1.62,25,5.09,37.1,9.05,1.6.52,2.92,1.19,2.83,3.08-.11,2.4-2,3.3-3.84,3.18a57.57,57.57,0,0,1-10.1-1.52C1346.73,329,1338.67,326.77,1329.09,324.23Z"/><path class="cls-2" d="M1415.44,363.41c-1.58,0-3-1.24-4.35-2.55A124.42,124.42,0,0,0,1388,343.43a13.43,13.43,0,0,1-3-2.25c-1.6-1.73-2.35-3.82-.7-5.86s3.48-.72,5.06.11a101.3,101.3,0,0,1,28.24,21.25c1.27,1.39,2.55,2.88,1.36,4.94C1418.34,362.75,1417.26,363.35,1415.44,363.41Z"/><path class="cls-2" d="M1305.36,319.7q-17.67-4.23-35.33-8.46c-2.3-.55-2.73-2.36-2.55-4.33.22-2.36,1.91-3.18,4-2.76,11.86,2.41,23.8,4.54,35.29,8.5,2.13.73,4.33,1.66,3.3,4.56C1309.31,319.28,1307.48,319.72,1305.36,319.7Z"/><path class="cls-2" d="M1029.41,277.74c13.32-.9,25.59,1.06,37.9,2.6a23.54,23.54,0,0,1,4.48,1.2c1.43.48,1.67,1.85,1.57,3A2.36,2.36,0,0,1,1071,287c-3.73,0-7.47.1-11.18-.15-7.13-.48-14.26-1.06-21.36-1.82C1033,284.42,1032.3,283.75,1029.41,277.74Z"/><path class="cls-2" d="M1436.12,532.38l-5.26-.69c0-.93-.32-2.07.09-2.76,6.09-10.22,8.73-21.61,11.34-33a9.93,9.93,0,0,1,1.57-3.36,3.61,3.61,0,0,1,4.17-1.2c1.52.42,1.6,1.85,1.43,3-.81,5.54-1.25,11.21-2.78,16.56C1444.46,518.62,1442.53,526.65,1436.12,532.38Z"/><path class="cls-2" d="M1151.37,286.51c11.52-1,22.56,2.22,33.79,3.81,2.7,1.22,8.1-.71,7.21,4.72-.77,4.69-5.33,3.25-8.43,2.85-10.06-1.32-20.07-3-30.11-4.5C1148.57,292.62,1148.77,290,1151.37,286.51Z"/><path class="cls-2" d="M1323.36,398.19c0-5.9,0-11.8,0-17.71,0-1.92.05-3.88,2.78-3.75,1.91.09,2.66,1.31,2.66,3.08,0,12.11,0,24.23,0,36.34,0,1.93-.49,3.83-3,3.77-2.74-.06-2.49-2.26-2.5-4-.06-5.9,0-11.8,0-17.7Z"/><path class="cls-2" d="M1323.38,459.26c0-5.92,0-11.84,0-17.75,0-1.81-.12-4.09,2.54-4.09,2,0,2.24,1.91,2.28,3.42q.39,18.68.65,37.36c0,1.61-.23,3.15-2.35,3.28-2.55.15-3.11-1.44-3.1-3.54V459.26Z"/><path class="cls-2" d="M1089.57,281.23c14.47-.11,28.71,2,43,4.17.21,3.68-1.14,5.93-5.21,5.83a234.64,234.64,0,0,1-34-3.17C1089,287.31,1088.94,284.54,1089.57,281.23Z"/><path class="cls-2" d="M1329.49,532.32a13.53,13.53,0,0,0-.43,1.75c-.28,2.25.66,5.28-3,5.48s-2.34-3.54-3.64-5.25q.49-14.88,1-29.76c.06-1.86.08-3.73.19-5.59.09-1.5,1.06-2.1,2.47-2.1s2.57.52,2.65,1.94c.22,3.72.21,7.45.29,11.18C1329.17,517.42,1329.32,524.87,1329.49,532.32Z"/><path class="cls-2" d="M1308.52,665.36c14.35,0,26.43,12.14,26.07,26.15s-11.93,25.64-25.72,25.62A25.84,25.84,0,0,1,1283,690.91C1283.37,676.51,1294.52,665.34,1308.52,665.36Zm-.29,44.51c9.42.28,19-8.79,19-18.06,0-9.88-8.37-18.65-18.09-18.86s-18.34,7.91-18.87,18C1289.77,700.43,1298.47,709.58,1308.23,709.87Z"/><path class="cls-2" d="M1134,770.87c2.69-1.45,5.45-.75,8.14,0,10.23,2.78,20.51,5.18,31.17,5.56,2.14.08,4.62-.25,4.53,3.13-.08,3.21-2,4.37-4.88,4.2-12.19-.71-23.91-3.94-35.64-7C1134.57,776.05,1133.43,773.8,1134,770.87Z"/><path class="cls-2" d="M1257.22,717.29c-.65,10-2.56,18.68-6.32,26.94a29.1,29.1,0,0,1-2.16,4.1c-1.53,2.31-3.82,1.88-5.8,1-2.14-1-1.82-2.93-1-4.76.37-.85.76-1.69,1.18-2.52,4.42-8.68,6.37-18,7.28-27.61.21-2.26-.65-5.64,3.12-5.53,3.31.08,3.18,3.24,3.56,5.62A17.58,17.58,0,0,1,1257.22,717.29Z"/><path class="cls-2" d="M1286.13,660.37c-.94,4.38-3.5,6.28-5.7,8.33-6.79,6.33-13.67,12.57-19.08,20.19-1.51,2.13-3.37,4.18-6.06,2.46-2.16-1.38-1.64-4.05-.59-5.92,6.37-11.39,15.83-19.6,27.35-25.49C1282.93,659.49,1284.39,660.16,1286.13,660.37Z"/><path class="cls-2" d="M1231.88,762.86c.81,4.37-2.38,6.76-5.28,8.73A59.86,59.86,0,0,1,1198,781.73a11.6,11.6,0,0,1-3.66-.31c-1.43-.35-1.62-1.66-1.72-2.93a2.23,2.23,0,0,1,1.87-2.69c1.21-.25,2.45-.37,3.67-.61,10.13-2,19.79-5.21,28.41-11.08C1228,763.1,1229.45,761.75,1231.88,762.86Z"/><path class="cls-2" d="M610.58,665.32a25.49,25.49,0,0,1,26.09,24.89c.34,15.25-11,27.17-25.86,27.1a26,26,0,0,1-.23-52Zm18.52,25.9c-.1-10.2-7.47-17.83-17.46-18.07s-18.52,8.22-18.58,18.21c-.07,9.82,8.77,18.34,18.65,18A17.84,17.84,0,0,0,629.1,691.22Z"/><path class="cls-2" d="M749.51,784.8c-6.86-2.56-6.86-2.56-5.51-8.34l.12,0,12.09-1.17a2.25,2.25,0,0,0,2.83-.67c5.38.3,10.2-2.15,15.32-3.12,2.72-.51,5.45-1.06,8.19-1.38a2.59,2.59,0,0,1,3,1.63,4,4,0,0,1-1,4.26c-1.84,2-4.49,1.93-6.8,2.67-6.47,2.06-13.41,2.22-19.76,4.77C755.07,783.26,752.13,783.08,749.51,784.8Z"/><path class="cls-2" d="M662.39,693.24c-7.37-10.82-17.09-18.47-25.93-27-1.32-1.27-2.84-2.77-1.33-4.77,1.37-1.81,3.11-1.63,4.87-.37,8,5.77,16.35,11.28,22.24,19.5C664.78,684.13,666.79,687.87,662.39,693.24Z"/><path class="cls-2" d="M724.47,774.85c2.94,1.14,2.31,3.67,2.33,5.95a.58.58,0,0,0-.64.74l-9.32.05c-7.61-2.68-15.43-4.82-22.32-9.21a54.44,54.44,0,0,1-4.65-3.1c-2-1.58-4.22-3.62-2.35-6.2,1.64-2.28,4-.51,5.8.6,8.79,5.44,18,9.9,28.38,11.16A21.32,21.32,0,0,0,724.47,774.85Z"/><path class="cls-2" d="M664.28,720c0-2.49-.12-5,0-7.47.11-1.72-.18-4.09,2.63-4,2.31.1,3,2,3.24,3.88.52,3.7,1.06,7.4,1.42,11.11a79.45,79.45,0,0,0,5.52,21.6c.54,1.37,1.39,3.19-.28,4.19a3.8,3.8,0,0,1-5-1,23.23,23.23,0,0,1-2.36-4A48.35,48.35,0,0,1,664.28,720Z"/><path class="cls-2" d="M1392.82,575.25c-3.14-.4-4.51-.32-5-1.74a3.27,3.27,0,0,1,1.31-4.07,173.17,173.17,0,0,0,28.28-23.83,2.94,2.94,0,0,1,4.16-.43,3.38,3.38,0,0,1,1.06,4.14,13.57,13.57,0,0,1-4.3,6Q1408,564,1397.67,572.61C1395.73,574.22,1393.52,575.3,1392.82,575.25Z"/><path class="cls-2" d="M960.71,308.67c-2.24-5.78-1.71-11.47.17-17.15C962,297.25,962.57,303,960.71,308.67Z"/><rect class="cls-1" width="1" height="1"/><rect class="cls-1" x="1919" y="1079" width="1" height="1"/><rect class="cls-1" y="1079" width="1" height="1"/><rect class="cls-1" x="1919" width="1" height="1"/></g><g id="Capa_3" data-name="Capa 3"><path d="M851.87,619.26v96H834.71v-61.2L817.84,667l-14,10.84-14-10.84L773,654.11v61.2H755.81v-96L773,632.43l30.88,23.74,30.87-23.74Z"/><path d="M898.52,651.23v65.32H881.37v-67.1a13.7,13.7,0,0,0-11.67-11.67h-3.84v-17h3.7v.13a30.91,30.91,0,0,1,11.67,3.16,30.42,30.42,0,0,1,13.86,14,36.27,36.27,0,0,1,2.33,6.45,28.67,28.67,0,0,1,.82,7Z"/><path d="M944.9,651.23v65.32H927.74v-67.1a13.68,13.68,0,0,0-11.66-11.67h-3.84v-17h3.7v.13a30.91,30.91,0,0,1,11.67,3.16,30.51,30.51,0,0,1,13.86,14,36.27,36.27,0,0,1,2.33,6.45,28.67,28.67,0,0,1,.82,7Z"/><path d="M1046.17,666.87a28.35,28.35,0,0,1-20.31,48H986.47a28.18,28.18,0,0,1-26.07-17.29,29.73,29.73,0,0,1-2.19-11.11V647.11a27.79,27.79,0,0,1,7.13-18.52,29,29,0,0,1,8.24-6.45A27.14,27.14,0,0,1,986.47,619h59.7v17.16h-59.7a11.3,11.3,0,0,0-11.25,11.25v13.45a28,28,0,0,1,10.7-2.2h40.49a28.32,28.32,0,0,1,19.89,8.65Zm-20.45,30.88A11.31,11.31,0,0,0,1037,686.5a11.18,11.18,0,0,0-10.56-11.26H985.92a11.26,11.26,0,0,0,.55,22.51h39.25Z"/><path d="M1155.94,666.87a28.34,28.34,0,0,1-20.31,48h-39.38a28.2,28.2,0,0,1-26.08-17.29A29.73,29.73,0,0,1,1068,686.5V647.11a27.79,27.79,0,0,1,7.13-18.52,29.17,29.17,0,0,1,8.24-6.45,27.15,27.15,0,0,1,12.9-3.16h59.69v17.16h-59.69A11.3,11.3,0,0,0,1085,647.39v13.45a28,28,0,0,1,10.71-2.2h40.48a28.36,28.36,0,0,1,19.9,8.65Zm-20.45,30.88a11.3,11.3,0,0,0,11.25-11.25,11.18,11.18,0,0,0-10.56-11.26H1095.7a11.26,11.26,0,0,0,.55,22.51h39.24Z"/></g></g></svg>