<svg xmlns="http://www.w3.org/2000/svg" viewBox="0 0 1920 1080"><defs><style>.cls-1{fill:#f2f2f2;}</style></defs><g id="Capa_2" data-name="Capa 2"><g id="Capa_1-2" data-name="Capa 1"><polygon class="cls-1" points="1025.91 410.62 1037.56 385.99 1061.81 370.14 1088.35 371.1 1144.29 377.57 1224.1 389.24 1281.57 400.88 1318.68 409.74 1375.89 425.5 1424.03 441.94 1459.52 458.74 1480.33 485.66 1489.86 506.85 1492.17 540.46 1484.81 570.43 1471.74 617.02 1454.37 671.82 1437.75 728.72 1423.63 778.93 1406.63 832.58 1398.99 860.65 1388.3 882.61 1370.35 906.28 1352.79 920.99 1325.87 939 1300.86 948.29 1271.26 953.44 1248.16 953.44 1216.65 948.1 1194.51 942.18 1163 934.82 1141.43 930.64 1108.97 924.95 1085.29 921.73 1053.79 916.59 1031.26 914.92 971.69 911.5 936.55 911.5 913.83 913.59 879.08 914.92 857.13 916.4 801.95 924.95 748.1 934.82 716.6 943.05 695.02 947.52 671.35 953.44 661.23 953.44 640.61 953.44 605.67 946.57 585.43 940.27 557.93 920.6 541.51 906.28 521.85 878.98 512.68 858.36 501.4 827.62 487.67 772.44 464.19 693.97 432.3 584.75 423.9 559.93 421.78 536.83 423.9 506.28 432.11 484.89 454.7 458.93 473.92 446.71 539.73 425.48 579.7 413.3 645.95 397.77 703.81 386.55 742.95 380.82 797.36 372.88 827.91 370.14 852.16 370.14 866.29 379.14 876.22 390.74 888.82 417.29 901.42 436.14 882.9 472.68 851.97 506.66 832.88 524.04 818.75 551.91 701.9 554.2 701.9 634.2 816.84 634.2 844.05 673.35 850.83 674.49 1064.1 674.49 1073.84 669.14 1095.6 635.92 1211.12 635.92 1211.12 553.25 1094.84 553.25 1082.24 526.37 1057.41 503.42 1032.7 475.16 1009.87 435.24 1025.91 410.62"/><path d="M990.78,204.28c-17.47,23.43-22.73,39.79-22.73,54.55,0,36.87-.13-8.42-.08,28.45,0,2-1.21,4.7,1.87,5.84,0,0,16.86,1.63,22.13,2.78,16.64,3.62,33.24,7.49,49.2,13.46a374.54,374.54,0,0,1,62.46,30.54c4.63,2.79,9.2,5.67,14.92,5.38a3.16,3.16,0,0,0,3.51,1c8.1,1.94,16.17,4.06,24.59,4.1,1.48.87,3,1.53,4.8,1a10.35,10.35,0,0,0,5.47.77,5.87,5.87,0,0,0,5,1.07,10.41,10.41,0,0,0,5.35.69,5.88,5.88,0,0,0,5.07,1.06,10.26,10.26,0,0,0,5.34.67,9.78,9.78,0,0,0,6.85,1.24l5.21.53a5.8,5.8,0,0,0,5.12,1,10.72,10.72,0,0,0,5.43.66,5.76,5.76,0,0,0,4.94,1,10.51,10.51,0,0,0,5.46.72,6,6,0,0,0,5,1.12c21.45,4.29,43,8.25,64.33,13,19.39,4.28,38.67,9.1,57.87,14.18,28.67,7.59,57,16.5,85.11,25.87,34.84,11.6,69.6,23.5,104,36.43,12.7,4.78,25.52,9.24,38.17,14.15,2.57,1,5,.95,7.54,1.14a3.19,3.19,0,0,0,3.57,1,19.82,19.82,0,0,0,8.13.89c2.94,1.68,6.2,1.14,9.32,1.18q19.05.25,38.12.21c22.52-.05,45-.19,67.56-.3,5.66.57,11.33.85,16.58,3.68,0,0,9.71,7.63,9.71,20.23v22.25q-.06,34.54,0,69.1c0,5.26,0,10.93-4.71,14.18-6.2,4.29-6.77,10-6.3,16.59.27,3.72,0,7.48.11,11.22a30.58,30.58,0,0,1-9.69,24,55.76,55.76,0,0,0-3.85,4.53c-2.15,1.89-4.38,3.69-6.41,5.69-9.89,9.71-19.78,19.4-29.54,29.24-6,6-13,9.46-21.53,9.57-13.28.15-26.56.43-39.83,0s-16.76-4.57-16.81-17.59c0-11.83,0-23.66,0-35.5,0-2-.1-4-.09-6.05,0-3.72-2.29-5.76-5.32-7.16-3.37-1.57-6.31-.51-8.44,2.27-8.23,10.76-19.43,13.28-32.28,12.72-12.68-.55-25.4-.19-38.1-.12-11.18.07-13.58,1.76-16.53,12.4-3.38,12.2-6.43,24.48-9.61,36.74q-13,50.13-26,100.28c-.72,2.16-1.6,4.27-2.16,6.48-6.87,27.47-12.88,55.2-25,81.06-8.67,13.31-17,26.84-27.46,38.92a1.37,1.37,0,0,0-1.39,1.52l-.31.36a1.23,1.23,0,0,0-1.28,1.29c-13.67,14.35-30.24,25-46.6,35.82-5.79,3.82-13,5.45-19.69,7.94-8.06,3-15.85,6.85-24.42,8.4a9.72,9.72,0,0,0-6.9,1.51l-1.77.26a10.59,10.59,0,0,0-7.26,1.32l-3.14.34c-19.63,1-39.26,1.69-58.89-.09,0,0-146.71-43.61-271.53-43.61,0,0-85.52-4.49-243.22,38.18q-11.36,2.77-22.7,5.6c-11.53.26-23,.78-34.58.73,0,0-38.29-2.28-67.21-11.9-15.94-4.23-29.11-13.74-42.72-22.42l-10.91-8.51c-7.57-8.16-15.92-15.57-22.84-24.34a187,187,0,0,1-32.67-62.35c-2.9-9.59-5.77-19.23-7.5-29.13a12.15,12.15,0,0,0-.11-2.57q-20.46-78.19-41-156.38c-1-3.62-2.1-7.19-3.38-10.71-1.87-5.14-5.3-7.53-11.17-7.38-14.72.38-29.47-.08-44.19.25-11,.25-20.6-2.18-27.84-11a14.52,14.52,0,0,0-2.5-2.39c-5.23-3.95-10.81-2-12.7,4.38-1,3.4-.66,6.88-.59,10.33.25,12.42.66,24.84-.18,37.24-.54,8-3.74,11.51-11.52,12.66a77.88,77.88,0,0,1-10.37.5c-11.25.14-22.51.2-33.76.29-11.44-.63-19.7-6.73-27.36-14.76-12.73-13.36-26-26.17-39.14-39.17A13.25,13.25,0,0,1,198.4,636c.23-8.35-.35-16.73-.29-25.1,0-3.35-.48-5.82-3.69-7.69-7.61-4.44-7.66-12.33-7.82-19.7-.31-13.27,0-26.56,0-39.84V484.89s.49-4,5.08-7.85c6.41-7.05,14.18-7.17,22-7.17,31.78,0,63.56-.27,95.34,0a139.27,139.27,0,0,0,51.59-9.44c30.13-11.58,60.53-22.41,91-33,66-22.84,132.66-43.14,201.17-57.23,41.58-8.55,83.68-13.9,125.4-21.53,13.43-2.46,26-5.89,38-13.27a281.78,281.78,0,0,1,80.14-33.92c4.07-1,8.06-2.35,12.09-3.53,0,0,19.64-5,27.49-5,1.2,0,2.16-.24,2.48-1.57,1-2.52.46-5.14.46-7.71,0-34-.06,14.06,0-20a219,219,0,0,1,3.26-37.3c1.09-6.27,4.05-11.94,6.51-17.72l7.15-12.41c18-25.5,41.64-39.93,71-45,0,0,11.46-1.35,17-1.35s17.18-.32,17.18-.32l5.24.11c1.27.3,1.92-.09,1.68-1.49.18-6,.29-11.94.57-17.9.13-2.77-.8-5.74,1.22-8.24l1.71-.21c2.68.21,4.09,1.42,4,4.35-.28,9.73,1,19.5-.35,29.18l.32,46.7-5.64.18c-2.9-5.71-1.1-11.83-1.5-17.75v-8.15C1043.05,176.41,1009.25,179.51,990.78,204.28Zm-47.25,440.9c-23.29-6-39.21-26-39.61-49.55s15.54-44.79,38.67-51.35a62.75,62.75,0,0,1,18.92-1.44c31.64,2.89,53.07,34.23,45.07,64.87-3.61,13.85-11.92,23.83-23.24,31.84A56.94,56.94,0,0,1,943.53,645.18Zm17.08,26.74c30.91.11,61.82.46,92.73.1,14.08-.16,14.61,2.49,14.69-14.87.21-44.19,0-88.39.17-132.58,0-5.39-1.37-9.35-5.69-12.66a140.88,140.88,0,0,1-38-43.32c-1.75-3.14-4-4.29-7.65-4.25l-121.2.14c-3.95,0-6.42,1.11-8.32,4.6-7.11,13-16.6,24.24-27.19,34.56h0c-2.44,2-4.66,4.38-7.35,5.94-7.52,4.34-8.76,10.9-8.71,19,.3,43.28,0,86.56.22,129.85.05,11.79-3.26,13,13.31,13.34.87,0,1.73,0,2.6,0,25.69,0,51.37,0,77.06-.14Zm.34-354c.12-2,.19-4,.13-6,0,0,.77-4.53-3-4.53s-8.61.08-8.61.08c-1.54-.57-3.15,0-3.27,1.57a97.31,97.31,0,0,0-.18,11.83c.07,1.67,1.74,2.16,3.22,2h9.41S961,324.37,961,317.93ZM774.65,558.44c-.18,4.24-.32,8.49-.54,12.72-.39,7.63.93,15.31-.82,22.88-3.16-.33-6.23-.1-5.64-5.22.63-5.39.19-10.93,0-16.4-.19-4.86,1.75-11.07-1.28-14.24-3.43-3.58-9.83-1.28-14.91-1.34-7-.1-7.1.12-7.19,7.12-.11,8.65-.09,17.3-.15,25.95,0,1.53-.45,2.86-2.33,2.92s-3.54-.16-3.79-2.45c-.15-1.43-.12-2.88-.13-4.32,0-7.78,0-15.56-.12-23.35-.07-5.86-.12-5.94-6.26-6-6.92-.05-13.84.17-20.76,0-4.17-.07-6.18,1.08-6.13,5.86q.28,32-.08,64c0,4.54,2,5.2,5.73,5.11,7.49-.2,15-.42,22.48.06,4.68.31,5.25-1.71,5.09-5.48-.21-4.89-.06-9.8,0-14.7,0-2,.85-3.24,3-3.27s3.24.86,3.27,3c0,1.15,0,2.31.08,3.46.46,5.36-2.45,12.53,1.14,15.67,3.86,3.36,11,.78,16.7,1.19.57,0,1.15,0,1.72,0,2.92.23,4.21-1,4.13-4-.1-4.32.42-8.69-.06-13-.52-4.66,2-5.37,5.52-5.42,1.69,5.37.84,10.89.7,16.31-.12,4.41,1.06,6.11,5.72,6.05,10.08-.14,20.18.06,30.26.53,4.51.22,5.25-1.74,5.21-5.6-.2-22.19-.22-44.37-.31-66.56.55-1.92.29-3.43-2.11-3.43q-18.3,0-36.59.11C775.14,556.76,774.84,557.6,774.65,558.44Zm369.87,31.08-.07,2.9a15.45,15.45,0,0,1-6.64.85c-.37-.72-.75-1.43-1.12-2.14,1.41-10.27.1-20.56.32-30.84.06-2.51-1-3.58-3.55-3.56q-16.35.1-32.69,0c-2.62,0-3.52,1.07-3.46,3.6.24,10.31.37,20.62.55,30.92-.23,12.11-.4,24.21-.72,36.31-.08,3.23.91,4.61,4.4,4.53,10.67-.24,21.35-.24,32-.21,3,0,4-1.35,4-4.2-.09-5.19-.06-10.38.06-15.57,0-2,1.27-3.09,3.38-2.92,1.91.16,2.26,1.65,2.29,3.07.12,4.9.23,9.81.08,14.7-.09,3.2.84,4.83,4.36,4.74,6.27-.16,12.56-.05,19.6-.05,0-6.58,0-12.87,0-19.15,0-2-.11-4.19,2.84-4.29,2.77-.1,3.36,1.7,3.39,3.93.06,4.9.33,9.82.07,14.7-.19,3.66.78,5.14,4.71,5,8.07-.19,16.16-.1,24.22.25,4.29.19,5.58-1.62,5.5-5.53-.17-9.51.1-19-.34-28.54-.61-13.23.63-26.5-1-39.69-10.55-2.91-21.14-2-31.74-.37-2.2,6.39-.91,12.91-.76,19.38a51.54,51.54,0,0,0-.13,13.87c-6.66,1.91-6.79,1.92-6.91-3.49-.2-9.23-.23-18.46-.33-27.7.22-1.09.47-2.84-.69-2.86-7.13-.1-14.4-2.16-21.35,1.14-1.84,9.23-1.15,18.49-.32,27.75A3.07,3.07,0,0,0,1144.52,589.52ZM945,914.85c-2.58-.2-5.2.09-7.8,0-5.37-.24-5.63-1.11-2.19-6.68a14.56,14.56,0,0,0,6.85-.06l3.56,0,15.51,0,16.44.54c1.65.05,2.73.62,2.68,2.49,0,1.54-.48,3-2.06,3.39a22.16,22.16,0,0,1-5.16.4c-4.62,0-9.24,0-13.86-.18ZM858.68,679.7c-13.51-.28-22.87-6.77-29.45-18.49a125.72,125.72,0,0,0-14.84-21.73c-3.06-2.4-6.65-1.3-10-1.3-32.85-.06-65.7.05-98.55,0-10.47,0-8.56.46-8.62-8.92-.14-22.18-.06-44.37,0-66.56,0-4-1.57-8.75.89-11.73,2.6-3.14,7.65-.44,11.46-1.67h8.66a101.24,101.24,0,0,0,19,0c24.83.16,49.67.22,74.5.57,4.45.06,6-2,7.08-5.74,4.17-14.3,12.47-25.87,23.91-35.28,4-3.3,8.07-6.56,12-10,18.3-16.21,29.95-37.13,41.2-58.34,1.69-3.19,1.37-5.66-1.37-8.44-4.49-4.53-7.55-10.16-10.12-16-1.14-2.6-3.26-6.32-.52-7.8,3.42-1.84,4.14,2.88,5.76,4.93,3.66,4.6,6,10.35,11.22,13.91a20.27,20.27,0,0,0,3.11-8.42,473.09,473.09,0,0,0,8.58-82.5c.16-13.18,0-13.18,13.39-13.26s13.42-.08,12.77-13.16c0-.48-.62-.94-1-1.49-8.37,0-16.6,1.47-24.78,3.25-35.61,7.71-68.44,22.18-99.38,41.18-4.46,2.74-8.93,5.27-14.17,6.16-27.29,4.64-54.52,9.66-81.88,13.86a1243.32,1243.32,0,0,0-123.62,25.46c-76.52,19.85-151,46.11-224.86,73.92-19.16,7.22-38.55,11.61-59.05,11.43-26.58-.23-53.15-.08-79.73,0-7.8,0-15.59.32-23.39.33-3.45,0-5.46,1.05-5.56,4.86s-.79,7.48-.8,11.22c-.07,27.43,0,54.87-.09,82.31,0,4.33.89,7.71,4.43,10.6,5.76,4.72,7.87,11,7.16,18.52-.48,5.16,0,10.41-.3,15.58A17.3,17.3,0,0,0,217.11,641q20.25,20.17,40.55,40.3A15.39,15.39,0,0,0,268.49,686c13.28.15,26.57,0,39.85.06,2.34,0,3-1.2,3-3.16s0-4,0-6.06c.21-12.7.27-25.41.68-38.1.28-8.77,5.37-14.47,13.11-17.73,8.18-3.44,15.83-2.17,22.52,3.84a24,24,0,0,1,3.68,3.66c3.78,5.26,8.9,6.41,15.12,6.26,14.43-.34,28.88-.15,43.32-.06,17.52.11,25.12,5.92,29.69,22.94,5.77,21.42,11.38,42.88,17,64.33,11,41.92,21.76,83.88,32.91,125.75a157.16,157.16,0,0,0,35.76,65.46c34,37.66,76.7,56,127.19,57.26,16.82.41,33.42-.42,49.75-5C728.2,958.08,754.63,952,781,945.78c47-11.13,94.41-19.44,142.85-20.73,6.92-.18,13.84-.63,20.76-.88l14.31,0c4-.21,8.09-.11,12.13,0,34.08,1.23,68,3.77,101.67,9.62,41.27,7.16,82,16.82,122.32,27.83,27.12,7.4,54.23,11.23,82.15,7.63,70.74-9.14,119.34-47,142.9-114.26,13.32-38,21.22-77.8,31.58-116.78,7.11-26.73,13.81-53.57,21-80.27,4.88-18,11.85-23.07,30.34-23.21,12.13-.1,24.29-.51,36.39.08,9.72.48,18.34-.52,24.34-9.23a5.75,5.75,0,0,1,1.3-1.14c9.93-7.77,22.8-6.5,30.93,3.07,3.75,4.41,5,9.65,4.94,15.29,0,12.71.09,25.42-.12,38.13-.07,4.1,1.32,5.64,5.46,5.55,10.68-.21,21.38-.4,32.06-.07,8.1.26,14.44-2.51,20-8.3,12.23-12.68,24.68-25.15,37.15-37.6a15.61,15.61,0,0,0,4.61-9.89,164.67,164.67,0,0,0,.58-21.64c-.12-6.78,1.72-12.65,7.2-16.79,3.13-2.36,4-5.11,4-8.86-.13-29.46,0-58.93-.18-88.39,0-10.37-.94-11-11.62-11.27-2-.05-4-.07-6.07-.08q-47.23,0-94.47-.06a142.17,142.17,0,0,1-50.73-9.5q-25.49-9.62-51.12-18.77c-57.26-20.53-114.8-40.15-173.67-55.66-40.19-10.59-80.83-19-121.85-25.72-26.48-4.32-52.91-8.88-79.39-13.13a78.39,78.39,0,0,1-29-10.67,309.75,309.75,0,0,0-81.37-35.44,226.05,226.05,0,0,0-44.57-7.29c0,4.07.16,7.52,0,10.95s1.13,4.58,4.47,4.54c6.93-.09,13.88-.07,20.8.28,6.49.33,6.7.54,6.57,7.16-.41,22.6,2.48,44.95,5,67.32,1.13,9.95,2.7,19.9,6.73,29.82,4.92-4.5,7.33-10.1,10.66-15,1.55-2.3,2.82-6.06,6.32-4.37s1.4,4.9.46,7.55c-2.46,7-7.16,12.48-12,17.84-2,2.27-2.32,4-.79,6.81,13.35,24.35,26.73,48.63,49.71,65.73,13.8,10.27,23.94,23.25,28.79,40,.21.74,1,1.32,1.47,2,1.16,2.69,3.29,1.57,5.2,1.33l3.56,0a340.92,340.92,0,0,0,36.31,0,83.07,83.07,0,0,0,15.69,0c12.69.57,25.37.67,38.06,0,3.15.11,6.32.09,9.46.37,3.62.34,7.52-1.23,10.8,1.51a7.78,7.78,0,0,0,.47,5.39c-.13,3.16-.35,6.32-.38,9.48-.15,21.36-.23,42.72-.43,64.08,0,2.53.71,5.21-1.14,8.05h-98.4c-4,0-8.09.11-12.12,0-3.79-.11-6.16,1.17-8.27,4.72-5.09,8.59-10.82,16.81-16.43,25.09-4.29,6.31-10.06,9.84-18,10.31-8.37.5-16.72.74-25.09.84Zm87.1-390.24c0,2-.43,4.38,2.81,4.08h9.35s3,.85,3-3.71c0-2.6,0-5.2,0-7.8.06-35.52-.12,11.11.31-24.41A82.18,82.18,0,0,1,975,212.68c18.27-27.68,44.22-41.54,77.27-41.68l12.56-.05s3.81.37,3.81-6.24-2.06-8.22-4.25-8.22c-2,0-4-.15-6.06-.15l-10-.06a101,101,0,0,0-23.17,2.62c-30,7-52.89,23.5-67.73,50.78A57.4,57.4,0,0,0,950.3,228c-.73,1.9-1.33,3.12-1.68,4.41a96.53,96.53,0,0,0-2.81,24.87Zm15.45,274c5.77.1,11.54.19,17.31.16,3.18,0,4.77,1.27,4.75,4.59q-.18,22.5-.2,45c0,3.28-1.48,4.71-4.71,4.69l-40.57,0c-9.12-.07-9.2-.07-9.27-8.9-.1-10.67-.08-21.34-.06-32,0-13.42,0-13.42,13.57-13.55Zm-10.69-13.07c-1.81.37-4.09.67-6.27,1.3-22.12,6.43-36.38,28.62-32.07,50.49,5,25.68,23.91,38.65,48.78,37.34,19.15-1,36.34-17.6,39.66-36.63A44.87,44.87,0,0,0,959.9,550Zm52.15-124c-5.23-22.21-6.83-43.76-8.75-65.23-.42-4.75-2.14-5.84-6.31-5.56-3.44.24-6.92,0-10.38-.05-2,0-4.24.07-4.11-3,.1-2.4,1.89-2.6,3.63-2.7q6-.36,12.1-.56c1.87-.06,3.55-.32,3.56-2.66,0-5.16,1.83-11.12-.79-15.26-2.19-3.47-8-1.13-12.25-1.47a41.49,41.49,0,0,0-4.32,0c-7.08.17-7.2.18-7.23,7.19-.06,19,0,38.07,0,57.1,0,8.94.16,17.89-.07,26.82-.11,4.2,1.47,5.53,5.54,5.44C982.78,426.23,992.28,426.37,1002.69,426.37ZM837.27,525.44C828.7,537,822,549.17,822.13,564c.21,21.61,0,43.22.06,64.82,0,9.38,6.73,22.62,15.08,29.54Zm238.38.93V660c4.11-6.39,6.89-11.35,10.29-15.84a22.75,22.75,0,0,0,4.72-14.47c-.27-23.65-.31-47.31-1-70.94C1089.33,546.35,1082.74,536.13,1075.65,526.37ZM919.36,356.3c-3,23.07-4.35,46.49-9.5,70.13,8.55,0,16-.34,23.49.12,4.83.31,5.71-1.47,5.63-5.83-.26-15.86,0-31.72-.25-47.57-.09-5.63,2.9-13.18-1.39-16.41S925.8,355.26,919.36,356.3Zm21.3,214.22c-3.21.16-4.62,1-4.59,4.41.09,10.37,0,20.75-.24,31.12-.11,4,1.51,4.78,5.1,4.71,9.79-.19,19.6-.19,29.4.07,3.71.1,5.13-.92,5.09-4.77q-.15-15.12.29-30.26c.14-4.38-1.87-5.45-5.74-5.18-3.16.21-6.34-.07-9.51,0Zm16.64-144c1.81-.08,3.57-.06,3.69-2.48.09-1.73.08-3.46.08-5.19q-.08-32.06-.16-64.1c0-7.21.06-14.43.11-21.64,0-2.52-1.12-3.55-3.68-3.56l-8.06.65c-2.79-.25-3.45,1.45-3.46,3.75,0,3.75,0,7.51-.07,11.26-.11,3.41,1.68,4.34,4.78,4.6,2.93.25,6.54-.92,8.43,2.71-1.33,3.12-4.16,2.69-6.65,3-6.24.76-6.34.75-6.38,7.21-.12,18.77-.22,37.54-.12,56.3,0,2.69-1.86,7.26,3.29,7.23ZM968.18,433c12.78,3,12.78,3,14.48,15.76,3,1.14,6.26-3.74,9.15.33-.44,4.42-6.06,3.55-8.12,8,11.47.83,22,.45,32.56.32-1.55-10.12-10.29-15-12.28-23.68-.09-.39-1.53-.66-2.34-.67C990.48,433,979.33,433,968.18,433Zm-28.71,1.22c-.53-.4-.93-.93-1.39-1-6-.82-12.13.49-18.05-.28-7.45-1-12.67.94-16,7.85-2.53,5.22-6.43,9.82-8,15.75,12.51,1.66,23.72,1.27,29.12-.88-.51-2-2.41-2.25-3.85-3.08-1.88-1.08-2.55-3.22-.62-3.9,4.28-1.5,4.44-4.61,4.58-8.15.15-3.71,1.74-5.7,6-5.34C933.91,435.43,936.93,436.51,939.47,434.24ZM939,340.08c.11-10.3.11-10.3-9.85-10.45-1.72,0-3.45.08-5.16-.05-3.34-.25-4.68,1.3-4.52,4.54.09,1.71-.09,3.43-.07,5.15.16,11-2.09,10.05,9.91,10.22C940.8,349.66,938.56,350.88,939,340.08ZM964.42,442.2v-.05c-2,0-4,.15-6,0-4.13-.38-4.52,2.09-4.66,5.31-.14,3.48.65,5.5,4.65,5.21,3.7-.27,7.43-.32,11.14-.32,4,0,5.43-1.79,5.53-5.78.12-4.44-2.49-4.4-5.51-4.35C967.85,442.22,966.13,442.2,964.42,442.2Zm-21.75,0v0c-2.29,0-4.58,0-6.86,0-2.67,0-4.37,1-4.55,3.9-.18,2.69.92,4.32,3.61,4.92a70.86,70.86,0,0,0,11.89,1.53c3.86.19,5.71-.84,5.77-5.18s-1.64-5.62-5.57-5.16A36.09,36.09,0,0,1,942.67,442.18Zm6.2-9c-1,.24-2.54.24-2.43,1.5.09,1,1.45,1.69,2.63,1.4.72-.18,1.8-.77,1.89-1.31C951.2,433.33,950,433.23,948.87,433.17Zm12.88,1.32c-3.27-2.38-5.17-1.64-7.64.12C957.75,435.47,957.75,435.47,961.75,434.49Z"/><path d="M1747.33,228c0,8-.09,8-8.25,8.05-29,.14-58.09.2-87.14.48a5.46,5.46,0,0,1-4.36-2c-2.58-2.66-5-5.49-7.46-8.24-1.14-3.13-3.83-1.83-5.85-1.83q-63.82-.06-127.67.06c-2.75-4.53-1.4-9.56-1.47-14.33-.06-4.28-1.67-5.53-5.67-5.29-4.6.27-9.23.12-13.85.12q-67.5,0-135,0c-1.73,0-3.47-.11-5.2,0-2.65.13-3.37-1.29-3.58-3.68-.3-3.28,1.06-6.84-1.43-9.81a40.19,40.19,0,0,0-21.16.07c-3.42,1.2-4.91,4.64-7.66,6.65-1.11.8-1.78,1.57-3.45,1.71-10.14.85-10.75.42-10.85-9.71-.12-12.86-.12-12.88-12.72-12.89q-87,0-174.06,0c-11.48,0-11.49.05-11.51,11.36,0,4.33,0,8.66,0,13l-6.72.42q-.19-37.47-.36-74.94c0-2.17-.55-4.73,3.16-4.73,3.95,0,3.76,2.6,3.81,5.25q.19,10.32.42,20.64c-.23,1.32.35,1.72,1.58,1.39q39.88.84,79.78,0a211.14,211.14,0,0,0,27.67,0c28.9.68,57.81.44,86.72.09,1.24.3,1.89-.08,1.69-1.46v-8.36s-.26-4.32,10.5-4.32l3.38.18c.52.23,1.28.31,1.54.71,7,10.67,17.78,5.72,27.1,6.69,1.69.18,2.46-1.11,2.46-2.77a12.35,12.35,0,0,1,0-1.72c.44-3.87-1.63-8.79,1.63-11.36,3-2.4,7.76-.89,11.74-.9,23.83-.11,47.67-.09,71.5-.14,2.86,0,5.72-.24,8.58-.37a23.07,23.07,0,0,0,3.37.51q30.61.22,61.24.37c1.64,0,3.48.56,4.79-1.07,3.27-4.91.56-10.57,1.94-15.71,3.16-.1,6.32-.28,9.49-.29,34.85,0,69.71,0,104.56-.12,3,0,6.31,1.26,9-1.18,2.37-2.42,1.16-5.44,1.24-8.17.29-8.94.33-17.88.47-26.82l5.4-1.25c2.87,0,5.74.17,8.61.12s6,.65,8,2.55c6.58,6.19,14.41,11.56,16.2,21.41.82,2.31,2.83,1.51,4.37,1.51q35.87,0,71.74-.12c2.46,2.32,1.4,5.35,1.44,8.05Zm-319.06-64.83c-1.75,2.13-3.45,1.95-5.09,2-9.82.09-19.64.25-29.47.29-13,.07-26,.23-39,0-4.62-.1-6,1.48-5.8,5.93.29,6.92,0,13.87,0,20.8,0,6.12.1,6.21,6,6.24,11.56,0,23.11,0,34.67,0q53.73,0,107.47.14c8.87,0,7.74,0,7.8-8.09.05-6.06.1-12.13.07-18.2,0-6.65-.08-6.77-6.46-6.87-9.53-.14-19.07-.09-28.6-.16-1.63,0-3.67.4-3.55-2.62a27.7,27.7,0,0,1,3.31-.38c10.11,0,20.23-.12,30.33.11,3.67.08,5.28-1,5.09-4.81-.2-4.32,0-8.66,0-13,.11-11,.11-11-11-11q-61.53,0-123.07.08c-5.78,0-11.56.36-17.33.2-3.9-.11-4.94,1.59-4.81,5.16.21,5.48,0,11,.07,16.46.06,6.59.09,6.7,6.53,6.73,21.38.08,42.76,0,64.14.13C1422.22,162.16,1425,161.6,1428.27,163.12Zm312.17-12.45c-.13-6-.13-6.2-6.2-6.21-19.93-.05-39.85,0-59.78.08-3.56,0-7.21-.28-6.73,5.15.11,1.22-1.14,1.86-2.4,1.94s-2.57-.47-2.5-1.72c.35-6.41-4.09-5.63-8.1-5.62q-34.23,0-68.45.05c-12.75,0-14.25,1.75-12.09,14.16.25,1.42.32,2.86,2,3.45,4.84,1.71,9.68,4.52,14.84,1.43,2.47-1.48,5-1.27,7.52-1.28q36.81-.07,73.64,0c1.46,0,3.33-.63,4.29,1.43-2.1,4-6,0-8.1,1.78,0,5.37-.13,10.52,0,15.65.21,6.67.3,6.77,6.78,6.8,16.75.09,33.5.19,50.25,0,4.78-.05,10.94,2.35,14-1.2a63.62,63.62,0,0,0,1.22-11C1740.69,170.35,1740.44,150.67,1740.44,150.67Zm-169.1,44.63c2,6.29,2,6.42,6.88,6.59,6.06.21,12.12.12,18.18.25,2.21.05,5-.43,5.21,3,.19,3.55-2.65,3.15-4.88,3.17-6.35.08-12.7,0-19,.07-11.92,0-12.1-.18-9-12.1.2-.78.09-1.15-.7-1.41-16.71-.17-33.43-.08-50.14-.24-4.29,0-6.4,1-5.93,5.82a95.13,95.13,0,0,1,.1,13c-.14,3.48,1.4,4.64,4.64,4.38,1.72-.13,3.46,0,5.19,0l210.32-.08,5.19,0c2.08,0,3.13-.94,3.09-3.14-.07-4.61,0-9.23,0-13.85-.12-6-.16-6.07-6.37-6.1q-28.12-.12-56.26-.09c-8.36,0-8.36,0-9.27,8.61a24.67,24.67,0,0,1-.16,2.59c-.38,1.71-1.81,2.13-3.27,2.24-1.86.15-2.44-1.09-2.52-2.68,0-.87,0-1.73-.07-2.6-.21-8.06,1.16-8-9-8-22.79,0-45.58,0-68.37,0C1580.53,194.7,1575.9,194.28,1571.34,195.3Zm-19.12-31.64c-1.39,2.6-3.29,1.69-4.86,1.7-10.1.07-20.2.18-30.3,0-3.63-.07-5.24,1-5,4.82.25,4.6.1,9.23,0,13.85,0,2.45.91,3.78,3.52,3.69,1.73-.06,3.46,0,5.19,0q66.23.14,132.44.25c9.64,0,9.07,1.79,9.19-9.32a14.25,14.25,0,0,1,0-1.73c.49-3.87-1.43-5-5-4.92-8.37.11-16.74,0-25.11-.12-1.93,0-5.2.48-5.31-1.55-.36-6.49-4.85-5.25-8.55-5.09s-9.46-2.54-9.35,5.3c0,1.5-2.89,1.42-4.59,1.42-6.93,0-13.85,0-20.78-.07-2.58,0-5.47-.84-7.69,0-3.33,1.33-1.29,5.09-2.06,7.68a7.94,7.94,0,0,0-.15.85c-.45,2.23-2.19,2.4-4,2.38s-2.44-1.24-2.47-2.84a47,47,0,0,1,0-7.78c.66-4.35-.78-7.45-5.67-9.42,3.73-.8,6.2-1.49,5.76-5.06a39,39,0,0,1-.06-4.33c-.13-10.34.34-8.94-8.72-9-11.54-.06-23.08.09-34.63.15-12.67.06-12.52.06-12.08,12.54.13,3.66,1.14,5.1,5,5,9.51-.21,19-.15,28.56,0C1547.65,162.15,1550.14,161.1,1552.22,163.66Zm34.64-26.09v.37h66.65c2,0,4,0,6.06,0,2.77,0,3.17-1.65,3.16-4,0-3.88-2.51-3.78-5.26-3.78-8.94,0-17.89-.12-26.83-.23-2.13,0-4.05-.33-4.07-3.21,0-3.12,2.23-2.9,4.16-2.91,7.5,0,15,0,22.51,0,2,0,4,.09,6,0,2.76-.07,3.1-2,3.14-4.17,0-2.42-1.59-2.79-3.4-2.87-2.31-.12-4.62-.16-6.92-.16-42.13,0-84.25-.22-126.37,0-16.12.08-13.31-2.5-13.56,13.72-.1,7.08.1,7.16,7.17,7.18Q1553.1,137.61,1586.86,137.57ZM1297,158.83a2.16,2.16,0,0,0-2-2.35,41.6,41.6,0,0,0-4.33-.1l-184.6,0c-1.44,0-2.89.06-4.33.12a2.37,2.37,0,0,0-2.58,2.66v9.59a2,2,0,0,0,2.15,2.2h3.46q93.6,0,187.2,0c2.08,0,5,1.21,5.09-2.63Zm407.43-21.29v0c7.19,0,14.39.19,21.58-.07,4.5-.16,10.16,2.2,13.23-1s.91-8.77,1-13.29c.12-6.36-.08-6.49-6.74-6.5-17,0-34,.1-50.93.12-14.77,0-14.6,0-14.29,14.94.09,4.48,1.34,6,5.94,5.89C1684.31,137.32,1694.39,137.54,1704.46,137.54ZM1320.85,166.4c0,4.71.08,9.31,0,13.9-.06,2.78.7,4.24,3.9,4,4.32-.27,8.66-.22,13-.09,3,.08,4.19-1.15,4.14-4.07-.09-5.48,0-11-.06-16.46,0-13.94,0-13.94-14.37-13.74-6.84.09-6.58.1-6.74,6.54-.1,4.21,1.38,5.75,5.49,5.35,1.51-.14,3.42-.38,4.5,2.14C1328.17,166.53,1324.6,164.52,1320.85,166.4Zm374.59-56.49v-.13q18.57,0,37.14,0c1.73,0,3.46,0,5.18,0,2.21,0,3-1.39,2.9-3.37-.1-1.71-1.17-2.48-2.83-2.51-1.44,0-2.88-.08-4.31-.08q-31.11,0-62.2,0c-4.89,0-9.79.13-14.68.21-2.52,0-4.83.69-4.7,3.72s2.85,2.17,4.62,2.18C1669.52,109.94,1682.48,109.91,1695.44,109.91ZM1304.1,193.15c8-2.72,10.44-7.07,10.12-13.8-.43-8.92-.17-17.89-.12-26.83,0-3.65-.76-6.93-3.88-9.14-3.39-2.4-6-1.08-6.14,3.16-.14,6.35,0,12.7,0,19.05C1304.11,174.45,1304.1,183.31,1304.1,193.15Zm392.28,36.71v0c13.27,0,26.53,0,39.8,0,1.83,0,4.32.77,4.49-2.4.15-2.92-1.92-3.09-4.05-3.1q-40.66-.13-81.32-.25c-1.6,0-3.76-.23-3.71,2.3a3.21,3.21,0,0,0,3.27,3.29c2,.12,4,.15,6.05.15Q1678.66,229.88,1696.38,229.86ZM1662.7,96.07c-2.43-7.35-8.11-12.1-14.1-16.38-2.33-1.66-5.62-.7-8.49-.68a2.56,2.56,0,0,0-2.68,2.74c-.14,8.08-.26,16.16-.15,24.23,0,3,2,3.23,4.17,1.86a12.23,12.23,0,0,0,3.11-3c4.08-5.51,9.43-8.17,16.33-7.61C1661.31,97.29,1661.78,96.69,1662.7,96.07Z"/><path d="M1348,622.84c-16.34.08-28.56-12-28.5-28.23s12-28.16,28.44-28.31a28,28,0,0,1,28.2,27.86C1376.07,611.42,1363.32,623.17,1348,622.84Zm21-27.76a21.44,21.44,0,0,0-20.6-21.41c-11.37-.27-21.92,9.83-22.06,21.13s9.5,21.14,20.73,21.24C1359.14,616.15,1369,606.77,1369.06,595.08Z"/><path d="M1326.44,943a3.75,3.75,0,0,1-4.13-2.19c-.87-1.52-.25-2.81.82-3.85a13,13,0,0,1,2.83-2c7.58-4.15,14.7-9,21.85-13.84,1.88-1.27,3.75-2.85,6.16-2.87,2.59,0,3.82,1.37,2.64,3.9a10.12,10.12,0,0,1-2.6,3.38c-7.7,6.51-15.81,12.44-25.13,16.51C1327.85,942.51,1326.77,942.86,1326.44,943Z"/><path d="M1381.64,884.49c.8-1.11,1.67-2.17,2.39-3.33,3.29-5.26,3.28-5.27,9.76-3.06-4.4,12.16-13.06,21.41-21.25,31-1.07,1.25-2.66,2.47-4.44,1a4,4,0,0,1-1-5.41,33.38,33.38,0,0,1,3.76-4.68C1375,895.19,1378.93,890.26,1381.64,884.49Z"/><path d="M1482.55,561.83a17.28,17.28,0,0,0,1.61-1.83c.93-1.45,2.11-2.81,3.89-2.25,2,.63,1.31,2.68,1.51,4.22.07.53.2,1.06.3,1.6-2.47,8.37-4.92,16.74-7.41,25.1-.49,1.64-1.17,3.23-1.67,4.87-.64,2.11-1.68,3.73-4.2,3.29s-2.79-2.31-2.69-4.53a53.8,53.8,0,0,1,2.44-12.23C1478.09,573.89,1479.16,567.46,1482.55,561.83Z"/><path d="M1249.89,390.91l30.24,6.32c2.06.43,3.86,1.32,4.64,3.36.65,1.69.82,3.49-1.83,3.55a19.07,19.07,0,0,1-4.27-.3q-15.14-3.06-30.25-6.27c-1.74-.38-4.56.13-4.15-3S1246.72,390.24,1249.89,390.91Z"/><path d="M1491.72,505.33c1.44,9.94,4,19.75,3.26,29.93-.12,1.72-.09,3.46-.27,5.18a3.76,3.76,0,0,1-4.12,3.54c-2.33-.08-2.09-2.27-2.28-4-.17-1.42-.41-2.83-.61-4.24.42-9.15-1.33-18.1-2.42-27.11-.21-1.66-1.14-3.6.42-4.76C1488,502.23,1490,503.74,1491.72,505.33Z"/><path d="M1483.15,485.36c.13,2.35-.59,3.89-2.18,4.85-2,1.19-3.15-.11-4.18-1.63-5.81-8.62-11.6-17.23-18.85-24.77a6.31,6.31,0,0,1-1.33-3.09,3,3,0,0,1,.87-3.18,2.61,2.61,0,0,1,3.17.39c2.9,2.37,5.81,4.75,8.54,7.31,4.9,4.57,8.53,10.14,11.93,15.85A43.87,43.87,0,0,1,1483.15,485.36Z"/><path d="M1273.48,956.55c-1.84.09-3.87.55-4-2-.1-1.69,0-3.6,2-4.37a25.54,25.54,0,0,1,4.16-1.13q13.14-2.6,26.28-5.13c2.18-.43,4.69-1.72,5.74,1.59s-.85,4.53-3.76,5.39C1293.88,953.84,1283.59,955.1,1273.48,956.55Z"/><path d="M1418.34,809.22c-6.22.86-6.22.86-6.57-4.73,2.79-8.7,5.62-17.39,8.36-26.11.94-3,1.85-6,4-8.33,4.89,2.21,4.22,5.89,3.13,9.58C1424.3,789.51,1421.3,799.36,1418.34,809.22Z"/><path d="M1110.72,377.56c-7.54-.88-16.38-1.92-25.22-2.9-2.46-.28-4.74-.76-4.51-3.9.25-3.39,2.83-3,5.15-2.8q14.58,1.38,29.15,2.83c2.37.24,5.71-.55,5.29,3.64-.39,3.84-3.49,3-6,3.12C1113.76,377.59,1112.9,377.56,1110.72,377.56Z"/><path d="M1401.21,863.36c-3.38.22-6-.92-5.39-4.72,1.94-11.32,5.89-22.09,9.57-32.92.95-2.8,3.62-2.25,5.92-2,.11,1.13.55,2.35.29,3.4C1408.57,839.31,1406.56,851.81,1401.21,863.36Z"/><path d="M1145.39,374.24c8.11.85,15.85,1.6,23.56,2.51a17.59,17.59,0,0,1,4.94,1.43,3.12,3.12,0,0,1,1.76,3.59c-.31,1.83-1.88,1.94-3.32,1.94s-2.87-.16-4.31-.28q-13.32-1.14-26.66-2.3a21.78,21.78,0,0,1-3.42-.45c-2.19-.56-2.2-2.34-2-4.11s1.38-2.32,3-2.33Z"/><path d="M1409.81,434.42c11,2.25,21.09,6.52,31,11.28a3.57,3.57,0,0,1,1.92,5c-1.09,2.63-2.92.63-4.28.2-8.22-2.63-16.4-5.38-24.59-8.09-1.91-.63-3.79-1.39-5.73-1.9-2.35-.62-3.59-2-2.95-4.38C1405.83,434,1407.87,433.93,1409.81,434.42Z"/><path d="M1035.23,394.37c-2.41-.55-3-1.95-2.13-4.37,1.78-4.65,4.88-8.36,8.22-11.93,5.33-5.68,12.27-8.22,19.55-10.08,1.84-.46,3.44.07,4,2.17.48,1.91,0,3.59-2.11,3.94-11.12,1.84-18.12,9.08-24,17.95A4.53,4.53,0,0,1,1035.23,394.37Z"/><path d="M1443,722.22a267.35,267.35,0,0,1-9.39,31.86c-.58,1.53-1.42,3.39-3.77,2.4a3.73,3.73,0,0,1-2.59-4,22.31,22.31,0,0,1,.77-4.24q3.6-12,7.35-24a21.59,21.59,0,0,1,2.07-4.69,3.61,3.61,0,0,1,4.52-1.57C1443.56,718.61,1443,720.36,1443,722.22Z"/><path d="M1214.55,944.92c12.07,2.28,23.87,5.05,36,5.21,1.93,0,3.37.54,3.31,2.88,0,2.1-1.16,3.3-3.15,3.31-3.73,0-7.49-.05-11.2-.41a168.79,168.79,0,0,1-21.27-3.53C1213.36,951.26,1213,949,1214.55,944.92Z"/><path d="M1333.61,417c-10.06-2.54-20.12-5-30.16-7.67a8.73,8.73,0,0,1-3.71-2,3.44,3.44,0,0,1-.54-4c.56-1,2-1,3.13-.77,1.4.32,2.78.77,4.18,1.12l25.18,6.16c1.12.27,2.21.69,3.34.89,2.27.42,4,1.52,3.46,4C1338,417.36,1335.77,417.19,1333.61,417Z"/><path d="M1391,430.37c-.1,2.48-1.34,3.85-3.84,3.19-3.31-.86-6.55-2-9.81-3.08q-11.4-3.72-22.79-7.45c-1.51-.5-2.5-1.34-2.16-3.09a2.84,2.84,0,0,1,2.29-2.22,14.68,14.68,0,0,1,8.49.46c8.18,2.56,16.25,5.47,24.42,8.11C1389.76,427,1391.28,427.84,1391,430.37Z"/><path d="M1081.71,924.07c-7.9-1.16-17.27-2.56-26.64-3.92-2.42-.35-4.68-.77-4.19-4.08.56-3.75,3.48-2.39,5.4-2.18,9.71,1.1,19.39,2.39,29.06,3.75,2.16.3,4.94.43,4.71,3.77s-2.83,3-5.13,2.86C1084.35,924.25,1083.78,924.2,1081.71,924.07Z"/><path d="M1114.38,922.34a150.16,150.16,0,0,1,26.19,4.91,5.7,5.7,0,0,0,.84.19c2.88.41,3.92,2.18,3.33,4.86-.64,3-3,2.15-4.84,1.81-7-1.29-14.06-2.74-21.1-4-3.09-.57-6.24-.88-9.35-1.4-2-.32-4.11-.6-3.64-3.56.41-2.54,2-3.22,4.3-3C1111,922.18,1111.83,922.2,1114.38,922.34Z"/><path d="M1194.55,945.6l-30.2-6.45c-2.59-.55-4.23-1.89-3.48-4.8.67-2.6,2.54-2.6,4.73-2.05,10.28,2.55,20.57,5,30.85,7.54,1.94.48,3,1.66,2.62,3.67C1198.57,946.11,1196.7,946.4,1194.55,945.6Z"/><path d="M1474.36,616a256.34,256.34,0,0,1-9.39,31.79c-.67,1.83-2,2.82-4,2.39a2.93,2.93,0,0,1-2.29-3.95c3.1-10.7,6.33-21.37,9.57-32a3.27,3.27,0,0,1,3.93-2.49C1474.59,612.07,1474.25,614,1474.36,616Z"/><path d="M1224.21,392.09c-9.54-1.33-19.17-2.66-28.79-4a9.94,9.94,0,0,1-3.23-1,3.18,3.18,0,0,1-1.6-3.64c.34-1.68,1.64-2.24,3.22-2.06,6.24.74,12.51,1.35,18.72,2.35,4.22.67,8.35,1.94,12.53,2.87,2.25.5,5.18.73,4.82,3.72C1229.44,393.81,1226.27,391.63,1224.21,392.09Z"/><path d="M1458.24,667.27a10.9,10.9,0,0,1-.17,1.72c-2.92,10.78-5.53,21.67-9.59,32.11-.54,1.4-1.27,2.92-2.9,2.63-2-.37-2.58-2.22-2.15-4,2.51-10.6,4.61-21.31,8.23-31.63a8.12,8.12,0,0,1,1.85-2.83,3.05,3.05,0,0,1,3.18-.72C1458.08,665,1458,666.18,1458.24,667.27Z"/><path d="M1015.21,916.67c-5.47,0-11-.08-16.42,0-2.6.06-3.64-1.09-3.7-3.53-.06-2.25,1.11-3,3.2-2.92,11.23.26,22.49-.58,33.67,1.09,1.71.25,3.52.22,3.51,2.72s-1.51,3.5-3.84,3.5h-16.42Z"/><path d="M565,622.84c-16.35.18-28.55-11.74-28.63-28-.08-16.42,11.82-28.53,28.06-28.55,15.22,0,28.59,12.82,28.73,27.57A28.56,28.56,0,0,1,565,622.84Zm-.88-6.79c11.7,0,21.72-9.61,21.85-21,.11-10.55-10.17-21.15-20.84-21.47-11.37-.35-22.46,10.53-22.25,21.81C543.11,606.4,553,616,564.15,616.05Z"/><path d="M460.46,668c2.89,9.76,5.69,19.55,8.73,29.27,1,3.11,1.11,5.54-2.34,7l-3.33-.43c-3.79-9-5.81-18.54-8.75-27.8-.52-1.63-.92-3.3-1.41-5-.59-2-3.77-4-1.28-5.92,2.72-2.11,5.91-1.55,8,1.67A1,1,0,0,1,460.46,668Z"/><path d="M484.53,775.6c-.25-2.09-.1-3.29,1-3.9a4.36,4.36,0,0,1,4.16.09c1.94,1,2.55,3.05,3.15,4.94Q497,789.9,501,803.12c.95,3.14.38,5.82-3.17,6.86-3.78,1.12-5.65-2.1-5.84-4.4-.85-10.17-5.47-19.31-7.34-29.16C484.54,775.85,484.48,775.28,484.53,775.6Z"/><path d="M504.76,822.82h.05c5.2,10.95,7.83,22.71,10.82,34.35a9.63,9.63,0,0,1,0,3.43c-.18,1.53-.88,2.77-2.68,2.74-1.17,0-2.27-.24-2.75-1.57-.4-1.09-.91-2.13-1.33-3.2-2.91-7.43-4.78-15.19-8.55-22.4C496.76,829.28,497.83,827.76,504.76,822.82Z"/><path d="M854.39,913.61c2.51,0,3.66-.05,4.8,0s2.28.34,2.48,1.78.29,3-1.24,3.75a10.28,10.28,0,0,1-3.22,1.12c-10.49,1.55-21,3-31.51,4.55-1.84.27-3.72.32-3.91-2-.16-1.93-.11-4.32,2.41-4.93s5.1-.78,7.65-1.14Z"/><path d="M747,383.4c-2.56.29-5.12.64-7.69.84-1.41.11-3,.12-3.43-1.69a3.53,3.53,0,0,1,1.36-3.82,11.69,11.69,0,0,1,4.79-1.68c10-1.05,20-2,29.94-2.82,2-.15,5-1.13,5.13,2.59.1,2.88-1.91,3.95-4.43,4.2-8.56.83-17.11,1.62-25.67,2.42Z"/><path d="M803.58,921.74a10.94,10.94,0,0,1,2.79.18c2.4.68,2.14,2.31,1,4-1.22,1.87-3.38,2.24-5.28,2.64-9.87,2.06-19.76,4-29.68,5.82-2,.35-4.88,1.53-5.56-2-.55-2.87,1.27-4,3.75-4.81C781.17,924.21,792,922.65,803.58,921.74Z"/><path d="M799.81,377.51c-2,0-4,0-6,0-1.18,0-2.33-.24-2.64-1.58s-.19-3.07,1-3.9a8.83,8.83,0,0,1,4-1.21c10-1,19.94-1.91,29.91-2.82,1.13-.1,2.28-.06,3.42-.05a2.74,2.74,0,0,1,2.43,2.11c.62,1.56-.31,2.82-1.57,3.56a8.46,8.46,0,0,1-3.27.93c-9.07,1.14-18.16,2.21-27.24,3.3Z"/><path d="M589.65,940.35c-.6,2.29-2.06,3.18-3.94,2.44-11.58-4.55-22.15-10.65-30.07-20.55-.65-.81-1.49-1.93-.73-3.12,1-1.59,2.51-1,3.77-.42a50.16,50.16,0,0,1,5.2,2.93q10.89,6.86,21.72,13.79C587.53,936.66,589.47,937.93,589.65,940.35Z"/><path d="M748.16,931.75c2.58-.18,3.75,1.39,4.36,3.44.72,2.44-1.33,2.92-2.9,3.32q-16.22,4.05-32.47,7.91c-1.79.42-3.5,0-3.78-2.29-.23-2-.53-4.07,2.25-4.72Q731.9,935.6,748.16,931.75Z"/><path d="M667,956.56c-1.35-.07-3.65-.11-5.93-.35a2.87,2.87,0,0,1-2.75-2.79,2.63,2.63,0,0,1,2.55-2.88c11.81-.64,23.23-3.65,34.84-5.49,1.08-.17,2.44-.1,2.93,1.11a3.56,3.56,0,0,1-.71,4c-1.47,1.55-3.53,1.88-5.42,2.47A91.23,91.23,0,0,1,667,956.56Z"/><path d="M663,391.21c2.55-.18,4.51.19,4.82,2.83.26,2.17-1.31,2.95-3.13,3.33-10.7,2.27-21.4,4.57-32.11,6.78-2,.41-4.16.58-4.19-2.58,0-2.09-.13-4,2.65-4.57C641.73,394.85,652.43,392.51,663,391.21Z"/><path d="M471.74,452.1c-1.7.11-2.91-.41-3.34-2.1-.38-1.52-.2-3.09,1.24-3.77,11-5.19,22.07-10,34.12-12a2.58,2.58,0,0,1,2.15,4.22c-1.06,2-3.11,2.62-4.93,3.3-9.18,3.43-18.43,6.68-27.66,10A14.88,14.88,0,0,1,471.74,452.1Z"/><path d="M432.23,490.26a2.38,2.38,0,0,1-2.49-2.18,9.42,9.42,0,0,1,.76-4.14c4.69-10.13,12.1-18.16,20.23-25.58,1.21-1.11,3-2.09,4.67-.68,1.93,1.64,1.63,3.67.11,5.32a219.84,219.84,0,0,0-21.34,26C433.74,489.65,432.77,489.93,432.23,490.26Z"/><path d="M559,420.8c-.05,2.05-1.47,2.27-2.85,2.74-9.2,3.09-18.37,6.27-27.57,9.38a13.2,13.2,0,0,1-3.33.71c-2,.14-4.16.1-4.64-2.57-.38-2.16,1.26-3.16,2.82-3.75,9.86-3.76,19.61-7.87,30.06-9.84C556.35,416.93,558.58,417.51,559,420.8Z"/><path d="M602.07,948.33c1.92-3.57,3.87-5.8,7.65-4.65,9.13,2.77,18.6,3.82,27.89,5.77a16.42,16.42,0,0,1,4.83,1.64,3.17,3.17,0,0,1,1.38,3.75c-.4,1.36-1.63,1.59-2.77,1.46C628,954.81,614.9,953.5,602.07,948.33Z"/><path d="M421.78,565.28c.07-1.14.13-2.29.21-3.43.14-1.93,1-3.27,3.08-3.47,1.82-.18,2.57,1.22,3,2.53q2.75,7.73,5.22,15.53c1.56,4.93,2.95,9.91,4.41,14.87-.34,2,1,4.87-2.48,5.44-2.89.46-4.09-1.26-4.84-3.7C427.56,583.78,424.66,574.54,421.78,565.28Z"/><path d="M612.39,405.71c.25,3.15-2.36,3.72-4.43,4.26-10,2.62-20,5-30.06,7.49-1.85.45-3.46.16-3.89-2.09-.36-1.89.17-3.39,2.14-4.09.53-.19,1.12-.25,1.67-.39,10-2.53,20-5,30-7.63C610.3,402.62,611.72,403.25,612.39,405.71Z"/><path d="M521.69,876.91a4.59,4.59,0,0,1,5,2.22q8.29,12.14,16.6,24.25a12.18,12.18,0,0,1,1.18,2.3c.55,1.41.65,2.85-.57,4s-2.66.73-4,.05a5.34,5.34,0,0,1-1.31-1.12c-7.4-7.78-13.78-16.28-17.78-26.32C520.1,880.39,518.91,877.73,521.69,876.91Z"/><path d="M895.62,917c-5.17.4-10.33.82-15.49,1.16-1.42.09-3.09.07-3.48-1.72-.45-2.11.14-4.09,2.23-5.07a8.91,8.91,0,0,1,3.4-.49q15.54-.33,31.09-.58c1.68,0,3.65-.1,3.84,2.32s-1,3.95-3.44,4c-6,.11-12.09,0-18.13,0C895.63,916.72,895.62,916.83,895.62,917Z"/><path d="M438.8,615.64c0-2.26-.47-4.37,1.82-4.79,1.95-.35,3.06,1.21,3.78,2.87,4.35,10.09,6.36,20.92,10,31.22.9,2.53-.68,3.86-2.57,4.7-2,.9-3.27-.42-3.9-2.22C444.25,636.82,440.35,626.28,438.8,615.64Z"/><path d="M852.37,367.89c7.55,0,24.15,12.82,26.43,20.73.53,1.83.45,3.48-1.14,4.6s-3.25.53-4.54-.87a20.91,20.91,0,0,1-1.63-2c-5.26-7.42-11.65-13.37-20.65-16-1.78-.52-3.15-1.58-2.74-3.68C848.47,368.76,849.82,367.83,852.37,367.89Z"/><path d="M689.07,392.26c-2.5,0-3.36,0-4.22,0-1.17-.06-2.45-.26-2.73-1.56-.37-1.69.85-2.58,2.21-3.22A9.8,9.8,0,0,1,686,387a206.73,206.73,0,0,1,32.17-6c1.74-.19,3.73-.45,4,2a3.53,3.53,0,0,1-2.39,4.1,17.34,17.34,0,0,1-2.44.87C707.36,389.44,697.42,391,689.07,392.26Z"/><path d="M470.14,722.54a19.24,19.24,0,0,1,0-3,1.75,1.75,0,0,1,1.65-1.64,2,2,0,0,1,2.2.9,23.52,23.52,0,0,1,1.82,3.83Q480,736.18,484,749.77a16.79,16.79,0,0,1,.48,3.4,2.83,2.83,0,0,1-2.2,3.2c-1.95.64-3.59.06-4.21-1.79-1.56-4.6-3-9.26-4.21-14C472.41,734.79,470.62,729,470.14,722.54Z"/><path d="M427.57,504.57c-1.19,10.83-2.9,21.62-2.67,32.56a30.59,30.59,0,0,1-.24,3.44,2.93,2.93,0,0,1-5.8.3,63.94,63.94,0,0,1-.63-7.71A104.76,104.76,0,0,1,420.8,505C423,503.54,425.2,502.7,427.57,504.57Z"/><path d="M1638.39,202.13h16.44c1.6,0,2.83.44,2.82,2.35s-.26,3.56-2.53,3.74c-2,.16-4,.09-6,.08-7.21,0-14.45.26-21.62-.32-3.09-.25-8.94,2.6-8.86-3.12.06-5,5.54-2.24,8.56-2.64,3.69-.48,7.49-.11,11.24-.11Z"/><path d="M1591.42,123.86h16.45c1.57,0,2.82.47,2.86,2.34s-.39,3.56-2.61,3.71c-2.88.19-5.77.23-8.65.22q-10.38,0-20.78-.15a28.82,28.82,0,0,1-5.17-.37c-1.6-.32-2.18-1.63-2.17-3.24,0-1.88,1.22-2.55,2.76-2.57,5.77-.07,11.54,0,17.31,0Z"/><rect class="cls-1" width="1" height="1"/><rect class="cls-1" x="1919" y="1079" width="1" height="1"/><rect class="cls-1" y="1079" width="1" height="1"/><rect class="cls-1" x="1919" width="1" height="1"/></g><g id="Capa_3" data-name="Capa 3"><path d="M835.1,742.57v111H815.27V782.86l-19.51,14.91L779.58,810.3l-16.17-12.53L743.9,782.86V853.6H724.07v-111L743.9,757.8l35.68,27.44,35.69-27.44Z"/><path d="M889,779.53V855H869.19V777.46A15.81,15.81,0,0,0,855.71,764h-4.44V744.31h4.28v.16A35.64,35.64,0,0,1,869,748.12a35.17,35.17,0,0,1,16,16.18,41.72,41.72,0,0,1,2.69,7.45,33,33,0,0,1,1,8.09Z"/><path d="M942.63,779.53V855H922.8V777.46A15.81,15.81,0,0,0,909.32,764h-4.44V744.31h4.28v.16a35.64,35.64,0,0,1,13.49,3.65,35.27,35.27,0,0,1,16,16.18,41.72,41.72,0,0,1,2.69,7.45,33,33,0,0,1,.95,8.09Z"/><path d="M1059.69,797.61a32.75,32.75,0,0,1-23.48,55.51H990.69a32.58,32.58,0,0,1-30.14-20A34.5,34.5,0,0,1,958,820.29V774.77a32.19,32.19,0,0,1,8.25-21.42,33.65,33.65,0,0,1,9.52-7.45,31.42,31.42,0,0,1,14.91-3.65h69v19.83h-69a13.07,13.07,0,0,0-13,13v15.54a32.49,32.49,0,0,1,12.38-2.54h46.79a32.81,32.81,0,0,1,23,10Zm-23.64,35.69a13.07,13.07,0,0,0,13-13,12.92,12.92,0,0,0-12.21-13H990.06a13,13,0,0,0,.63,26h45.36Z"/><path d="M1195.93,742.57v111H1176.1V807.92h-58.52a31.39,31.39,0,0,1-14.91-3.65,32.4,32.4,0,0,1-17.77-29V742.57h19.83v32.67a13.07,13.07,0,0,0,13,13h58.53V742.57Z"/></g></g></svg>