<svg xmlns="http://www.w3.org/2000/svg" viewBox="0 0 1920 1080"><defs><style>.cls-1{fill:#f2f2f2;}</style></defs><g id="Capa_2" data-name="Capa 2"><g id="Capa_1-2" data-name="Capa 1"><path d="M1797.8,402.42c0-4-4.53-9-4.53-9-6.53-5-13.08-4.55-19.55-4.55-15.77,0-31.53,0-47.3,0q-77-.21-154-.49a76.07,76.07,0,0,1-31.52-6.37c-11.23-5-22.77-9.46-34.21-14.07-36.32-14.65-72.65-29.25-109.93-41.33-2.29-.75-5.16-.74-4.91-4.29.27-3.85-2.82-4.48-5.34-5.26-20.62-6.38-41.26-12.75-62-18.85-6.67-2-6.78-1.63-10.23,4.71-52-13.93-104.84-23.26-158-31.11-36.09-5.31-72.35-9.15-108.68-12.14-19.09-1.58-38.23-2.87-57.42-2.81-8,0-8.41.32-8.67,8.33-.28,8.65-.21,17.31-.15,26,0,3.42.09,7.47,3.38,9.15,4.81,2.47,3.45,5.66,2.29,9.2-1.24,3.82-2.31,7.69-3.61,11.47-2,5.83-3.76,11.78-6.31,17.37-3.37,7.35-6.77,8.74-15.28,7.12-1.38-.26-2.21-.29-3.07.86-1.68,2.24-3.67,1.32-5.8.61-4.65-1.57-8.36-4.25-10-8.91-3.42-9.58-6.57-19.24-9.77-28.89-1.05-3.15-.71-6.05,2-8.39a10.71,10.71,0,0,0,3.89-9c-.22-9,.08-17.93-.17-26.89-.21-7.24-.72-7.51-8.28-7.78-1.54-.07-3.09-.05-4.64-.05-16.7,0-59,3-59,3-9.78.55-22,.67-34.08,2.27-23.55,3.25-47.11,6.38-70.63,9.76-52.58,7.56-104.78,17.08-156.23,30.68-4-6.7-4.08-6.89-11.74-4.56q-30.54,9.28-61,18.93c-2.91.92-7.16,1.27-5.27,6.61.73,2.06-1.58,2-3,2.45-48.22,15.4-95,34.64-141.65,54.09a102.27,102.27,0,0,1-40.39,8.34c-65.82-.17-131.65.14-197.46.26-5.9,0-11.77-.06-17.11,3-3.86,1.67-5.89,14.18-5.89,14.18-2,26-1.28,51.9-1.25,77.84,0,8.51,1.9,16.38,7.07,23.5,5,6.92,7.07,14.92,6.87,23.56-.23,10.51.11,21-.15,31.54-.3,12,4.63,20.68,15,26.72,12.52,7.32,24.87,14.94,37.22,22.53a61.61,61.61,0,0,0,16.85,7.44c2.91-.18,5.84-.7,8.5,1l17.43-.55a26.77,26.77,0,0,0,11-4.57c4.66-5.26,4.92-11.81,5.05-18.27.14-7.71-.41-15.44-.25-23.14.09-3.9.05-8.29,4.88-10.07A10,10,0,0,1,261.92,566c7,6.57,15.46,8.37,24.76,8.27,17.91-.21,35.82.11,53.73-.22,5.49-.11,8.11,1.7,10,6.94,11.09,31,22.49,62,33.93,92.87q15.41,41.6,31.12,83.08c7.32,19.21,19,35.23,36.12,46.94,4.05,2.78,8.23,5.37,12.35,8,2.59.06,4.5,1.84,6.77,2.74a8.26,8.26,0,0,1,1.89,1.57s26.33,6.9,73,6.9c12.63,0,25.26-.33,37.88-.34q62.41-.06,124.84,0c3-1.87,6.4-1.61,9.75-1.4l3.25-.47c1.7-1.77,3.84-1.72,6-1.47a1.12,1.12,0,0,1,1.5-.35c1.64-1.79,3.76-1.77,5.93-1.55a1.12,1.12,0,0,1,1.51-.37,32.73,32.73,0,0,1,13.34-3.41c1.72-.61,3.41-1.36,5.18-1.8a772.75,772.75,0,0,1,157.28-21.76c5.6-.18,5.6-.26,6.51,6.61l81.46.42c3.38-7.83,3.38-7.87,12.36-7.31,3.4.2,6.78.69,10.17.86,52.65,2.52,104.28,11.62,155.35,24.28,13.47,3.34,26.86,7.37,40.92,7.38q96,.06,192-.07a87.49,87.49,0,0,0,20.23-2.16c36.53-8.86,62-30.63,75.25-66.07q18.79-50.25,37.35-100.59c8.76-23.72,17.36-47.51,26.09-71.23,2.85-7.74,2.93-7.8,11.12-7.92,10.51-.16,21-.13,31.53-.2,7.11,0,14.23-.19,21.34-.15,9.49,0,18.37-1.42,25.67-8.39,2.61-2.5,5.82-4.59,10-2.23a10.22,10.22,0,0,1,5.64,9.82c0,2.48,0,4.94,0,7.42,0,7.73-.21,15.46.12,23.18.4,9.66,5.32,14.54,15.06,15.29a161.24,161.24,0,0,0,23.16.18,32.81,32.81,0,0,0,14.88-4.6q21.42-12.87,42.81-25.83a28.89,28.89,0,0,0,14.33-21.57c1.82-12.64.94-25.32.74-37.95-.14-8.39,1.27-16,6.26-22.65,4.66-6.25,6-13.2,6.15-20.86C1799,458,1798.64,430.24,1797.8,402.42Zm-361.43-16.23c-.07-7,0-14.06,0-22.64,10.71,4.15,19.56,7.58,28.42,11,2,.76,4.93,2.36,5.75-.12,2.47-7.44,6.27-2.42,9.18-1.13s8.8.73,7,7.22c-.51,1.8,1.15,2.64,2.71,3.1,10.71,3.15,20.47,8.52,30.66,12.9,1.89.82,4.67,2.52,5.68-.14,2-5.4,5-2.93,7.91-1.6,9.9,4.47,20.15,7.74,31,8.57,3.53.26,4.87,1.61,4.77,5.12-.18,5.83-.05,11.66-.05,18-3.89-.42-4.15-3.78-5.57-5.78-5.24-7.41-11.19-13.95-19.71-17.68-1.11-.48-2.33-1.17-3.39-.16-1.45,1.36-.64,2.86.28,4.1a34.49,34.49,0,0,0,3.65,4.17,93,93,0,0,1,15.7,19.36c.78,1.31,1.56,3.18,2.77,3.61,9.72,3.46,5.6,11.07,6.13,17.54-4,.23-6.38-2.07-9-3.39-38.09-18.91-76.81-36.4-116.58-51.52C1434.66,393.26,1436.46,393.47,1436.37,386.19ZM1385.44,347c4.11-2.78,9.32,3,14.4,4,3.6.72,7.1,2,10.62,3,2.5.75,4.74,1.48,5.58-2.26.53-2.37,2.55-2.27,4.42-1.55,3.4,1.33,6.77,2.74,10.71,4.35-3.67,12.16-1,24-2.69,36.35-13.91-4.37-27.69-8.34-41.19-13.07-8.82-3.09-10.07-6.51-7.47-15.69C1381.31,356.86,1381.34,349.79,1385.44,347ZM999,271c2.56.16,4.88.52,4.83,4-.1,6.92,0,13.84,0,21.51-4.64-1.67-7.21-3.86-7.35-8.09-.17-4.59-.19-9.19-.21-13.8C996.18,272.81,996.25,270.84,999,271Zm-33.36,90.42c14.22-.55,22.3-9.16,27-21.38,3.64-9.38,6.35-19.12,9.47-28.7,4.31,30-14.36,54.49-39.08,52.77C962.62,362,963.91,361.49,965.59,361.43Zm.23,10.57c1.82-.27,3.66-.51,5.46-.91,24.33-5.56,38.81-23,39.54-48,.41-14.51.21-29.05.31-43.58.06-7.53-1-7.77,7.7-7.08,20.32,1.63,40.7,2.56,60.95,5.13,3.47.45,6,.77,5.47,5.16-.21,1.9,1.5,2.28,3.14,2.55,11,1.75,21.92,3.86,33.1,3.7,1.74,0,3.76.69,5.06-1.25,1.07-1.6.25-4.84,3.55-4.49,3.67.4,7.32,1.08,11,1.68a1.9,1.9,0,0,1,1.63,1.93c-.34,5.43,3.42,5.53,7.27,6.06,9.79,1.37,19.53,3,29.3,4.5,3.07.45,6.29,1,6.86-3.71.19-1.58,1.43-2.52,3.39-2.05,3,.72,6,1.16,9.06,1.84,1.17.27,2.85.76,2.8,2-.35,7.48,5.4,5.95,9.6,6.64q11.43,1.86,22.89,3.58c4.21.64,8.7,3.72,11.78-2.74,1.1-2.3,14.21,1.61,15,4.77s2.59,3.92,5,4.54c10.16,2.62,20.33,5.17,30.49,7.78,3.12.81,5.29.24,6.62-3.09.82-2.06,2.89-2,4.78-1.21,2.32,1,1.82,2.73,1.43,4.65a134.33,134.33,0,0,1-6.51,22.18c-3,7.79-6,9.45-14.35,7.45q-18.45-4.38-36.69-9.64C1198,325,1143.2,318.11,1087.9,314.6c-9.25-.6-18.5-1.36-27.75-2-19.71-1.28-19.72-1.25-32.83,11.25-4.88-6.52-6.15-6.53-9.19.61-4.1,9.64-7.93,19.4-11.8,29.15-.76,1.94-1.94,4.28.89,5.6s4.69-.22,5.85-2.76q3.82-8.43,7.6-16.86a47.1,47.1,0,0,1,5.13-9.38c-.54,18.32.75,36.44-.08,54.52-.41,9.16-6.16,14.45-15.67,14.85-9,.37-17.93.15-26.9.1-2.64,0-5.7.78-6.62-3.21-1.15-4.94-.1-9.61,3.1-11.38,2.69-1.51,5.62-2.58,8.29-4.1a80.84,80.84,0,0,0,7.71-5.09,2.49,2.49,0,0,0,1-3.22,3,3,0,0,0-3.79-1.83,31.45,31.45,0,0,0-5.75,2.86c-6.17,3.76-13,5.73-20,7-1.94.35-4,.45-4-2.19C963.12,376.14,961.33,372.66,965.82,372Zm-3,21.61c.24-2.06-.69-4.66,1.49-5.87a3.81,3.81,0,0,1,5,.73c1.17,1.48,1,9.37-.18,10.6a4,4,0,0,1-5.07.54C962.13,398.25,963,395.69,962.86,393.61Zm-12.89.07c.53-2.65-1-6.51,4.08-6.47,4.41,0,5.14,1.27,5.14,7.45,0,3.84-1.24,5.45-5.28,5.45C948.66,400.1,950.26,396.47,950,393.68Zm-22-52.8c4.71,12.15,13.2,19.77,26.79,20.43a4.08,4.08,0,0,1,3.29,1.25,9.62,9.62,0,0,1,.56,1.58C933.54,366.08,913.63,342,917,310c3.2,3.67,3.62,7.87,4.91,11.58C924.14,327.94,925.55,334.61,928,340.88Zm-6.53-69.13c2.78-.16,3.83,1.05,3.81,3.8-.06,7.8,1,16-8.56,21.7,0-7.93.14-14.86-.06-21.78C916.54,271.67,918.93,271.89,921.45,271.75ZM611.79,316.39c1.45-1,3.46-.87,4.28.22,4.15,5.58,9.11,3.3,14.15,2,7.77-2,15.59-3.77,23.39-5.66,1.77-.43,4.7-.5,4.81-2.15.6-8.94,8.5-5.74,13-8.16,1.4-.76,3.55-1,4.24.45,2.74,5.6,7.06,3.33,11.16,2.7,8.85-1.36,17.7-2.73,26.57-3.93,3-.42,5.65-.71,4.73-4.86-.4-1.81.6-2.86,2.39-3.16,3.36-.59,6.7-1.21,10-1.77,1.73-.28,3.21.37,3.49,2.12.59,3.41,2.88,3.63,5.51,3.28,10.71-1.45,21.4-3,32.11-4.41,2.66-.36,4.93-.95,4.34-4.44-.46-2.76.84-3.86,3.54-4.07,3.07-.24,6.1-.88,9.17-1.28,1.2-.16,3.11-.37,3.29.82,1.1,7.52,6.89,4.78,10.78,4.62,8.63-.36,17.23-1.5,25.82-2.46,3.45-.39,6.82-1.07,6.73-5.85-.07-2.95,2.23-3.19,4.51-3.36,20.64-1.52,41.28-3.16,61.93-4.54,7.31-.49,7.41-.2,7.46,7.46.09,13.91-.09,27.83.12,41.74.42,26.67,17.48,46.3,43.76,50.58,1.78.29,4-.54,5.19,1.16a6.25,6.25,0,0,1,.16,6.18c-.75,1.7-2.53,1.35-4.07,1.18a56,56,0,0,1-24.19-8.72c-1.71-1.09-3.89-3.3-5.55-1.06-1.86,2.51.62,4.58,2.46,6.14,3.31,2.83,7.28,4.59,11.21,6.41,4.1,1.89,6.67,11.45,4.15,15-1,1.47-2.65,1.31-4.18,1.3-9-.08-17.94.08-26.89-.33-12-.55-16.59-5.32-16.77-17.43-.24-17-.05-34-.05-51l1-.26c2.71,6.09,5.34,12.24,8.14,18.29,1.69,3.65,3.72,7.15,6.95,9.69a2.84,2.84,0,0,0,2.53.26,3.05,3.05,0,0,0,1.08-2.24,6.67,6.67,0,0,0-.68-2.66c-4.21-10.59-8.41-21.2-12.76-31.74-.79-1.91-1.84-4.31-4.65-3.59s-1.8,3.53-2.44,5.49c-2.28-.52-3.1-2.65-4.31-4.23a19.49,19.49,0,0,0-15.14-7.78,75.28,75.28,0,0,0-9.26-.11c-41,2.79-82.06,5.4-122.73,11.67-33.61,5.19-66.35,14.37-99.16,23.16-4.16,1.11-8.33,2.29-12.56,3.13-6.39,1.29-8.61.39-11.35-5-4.09-8-5.72-16.92-8.22-25.48A2.82,2.82,0,0,1,611.79,316.39ZM499.25,350.51c1.34-.74,3.28-1.09,4,.7,2.19,5.19,6.22,3.17,9.46,2.24,7.36-2.08,14.56-4.73,22.71-7.44,1.85,5.79,3.67,10.7,5,15.74,2.47,9.56.8,13.22-8.31,16.31-12.8,4.37-25.78,8.17-39.12,12.35-2.7-11.93,2-24.22-3.85-35.91C491.57,352.36,495.85,352.41,499.25,350.51ZM379.62,403.59a2.53,2.53,0,0,0-3.24-.86,28.93,28.93,0,0,0-9.35,5.86c-5.93,5.49-10.2,12.27-15.69,20.48-1.17-8.79-.66-16-.47-23.13.05-1.9,1.29-2.61,3-2.66,12.61-.33,24.2-4.36,35.44-9.68,1.48-.71,3.11-1.21,3.89.71,1.77,4.35,4.86,3.06,7.65,1.75,9.77-4.58,19.5-9.24,29.8-12.55,1.18-.38,3-.78,2.76-2-1.86-10.06,8.49-6.4,11.84-10.59.8-1,2.58-.32,3.06.9,2.28,5.83,6.28,3.6,9.94,2.11,8.54-3.48,17-7.14,26.69-11.22,1.22,10,.48,18.6.55,27.19,0,3.68-2.67,4.37-5.29,5.39-11.21,4.34-22.46,8.62-33.59,13.18-31.4,12.86-62,27.56-92.41,42.54-.8.39-1.64.66-3.14,1.24-1.12-4.12-.47-8-.42-11.8,0-1.59.18-3.33,1.88-3.86,5.32-1.66,7.15-6.53,9.94-10.49a82.48,82.48,0,0,1,13-14.39,34.78,34.78,0,0,0,4.42-4.66A2.89,2.89,0,0,0,379.62,403.59ZM917.93,774.35c-14.76,1-29.55,1.78-44.29,3-39.48,3.24-78.26,10.78-117,18.78-15.42,3.19-30.3,8.57-46,10.7a130.78,130.78,0,0,1-17.57,1.12q-85.3,0-170.65,0c-12.06,0-24.16-.39-35.88-3.49-10.48-2.77-20.38-7-28.32-14.73a53,53,0,0,1-16.81-16.49,32.68,32.68,0,0,1-9-15.15c-2.87-3.74-4.12-8.23-5.71-12.55q-29.82-81.15-59.62-162.33c-.43-1.16-1-2.26-1.42-3.41-7.63-19.77-13.89-20.73-29.47-20.38-16.37.37-32.76-.06-49.14.17-6.47.08-12.09-1.21-16.94-5.81a21.88,21.88,0,0,0-11.42-5.8c-13.13-2.28-24.9,6.13-26.8,19.37a60.91,60.91,0,0,0-.34,8.34c0,9.25,0,18.5,0,28-15.71,2.13-29.86,1.64-42.9-8-9.64-7.14-20.28-12.94-30.66-19-6-3.49-8.67-8-8.21-15.09.6-9.24.17-18.54.33-27.81.24-13.34-2.8-25.72-10.72-36.64a18,18,0,0,1-3.52-11.21c.16-23.8-.18-47.6.42-71.39.32-12.82-.72-11,11.22-11,61.81-.25,123.64-.26,185.45-.36,1.86,0,3.72.22,5.56.11,3.35-.21,5.13.73,4.93,4.62-.85,17.22,1.38,34.48-1.61,51.74-1.57,9.07-.86,18.49-.25,27.75a13.74,13.74,0,0,0,.63,3.62c.78,2.28,2.35,3.71,4.91,3.18,2.4-.51,2.29-2.55,2.21-4.42-.23-5.25-.06-10.55-.81-15.72-1.32-9,2.54-13.53,10.7-17.44,38.95-18.62,78.18-36.56,118.45-52.12a1.44,1.44,0,0,1,.38,2.3c-8.34,11.9-10.68,25.38-10.65,39.56q.09,53.78.05,107.54,0,55.63-.2,111.27c0,10.33,2.77,19.45,10.32,26.83a30,30,0,0,0,19.73,9c21,1.41,42,.72,63,.78,9,0,17.92.18,26.89.18,10,0,16.12,5.29,19.23,14.39,2.48,7.29,5,14.6,6.93,22.06,3,11.72,10.09,19.5,21.24,23.82,9.83,1.25,19.69,1.34,29.58,1.33l203.1-.15h6.38c.9,3.2-3.57,1.9-3.21,4.82.31,2.52-.37,5.07,3.5,4.76,2.16-.18,4.32-.18,6.48-.35,6.78-.54,13.56-1,20.33-1.71,5.73-.58,11.68-.54,16.24-5.47C918.72,768.82,918.47,771.46,917.93,774.35Zm79.59-13A14.87,14.87,0,0,0,994.8,769c-.2,5.56-.39,11.12-.45,16.67,0,2.37-.12,4.29-3.27,4.25l-57.86-.62c-2.32,0-5.07,1.85-6.6-1.54-1-6.12-.63-12.28-.52-18.44-.21-.87-.47-1.73-.62-2.61l-.8-3.42c-1.46-2-2.9-3.9-4.35-5.85l-1.68-1.15-2.13-.37q-93.1.06-186.2.12c-25,0-50-.1-75.05-.15-2.16,0-4.32,0-6.49-.07-18.09-.51-24.08-5.06-29.27-22.27-1.68-5.61-3.22-11.26-5-16.82-5.42-16.42-14.16-23-31.3-23.29-17-.25-34-.13-50.95-.16-10.5,0-21,0-31.5,0-8.45,0-8.48-.1-8.59-8.87-.08-7.11,0-14.21-.07-21.31,0-1.85-.09-3.7-.11-5.55,0-2.44-.64-4.36-3.64-4.05-2.43.25-2.72,2-2.71,4,.06,7.42.07,14.82,0,22.24,0,2.42-.23,4.83-.41,8.65-8.77-6.92-9.89-15.27-9.36-24.28-.15-5.55-.44-11.1-.45-16.65q-.17-100.15-.24-200.32c0-5.85,0-11.67,1.22-17.51,3.46-16.47,13.08-27.69,28.48-33.86A237.34,237.34,0,0,1,532.8,386c13.65-3.56,20.13-14.29,14.24-29.33-1.13-2.87-2.08-5.81-3-8.74-.57-1.74-1.54-3.69-.19-5.31,2.38-2.88,1.7-4.67-1.22-6.69-3.76-2.6-5-6.83-6.13-11.51,14.55-4.55,29-9.06,43.37-13.55,2.06-.64,4.15-1.21,6.21-1.83,3.55-1.08,7.06-2.21,10.63-3.2.46-.13,1.47.23,1.58.58,1.23,3.78,2.32,7.6,3.5,11.55-9.71,2.69-19.18,5.28-28.63,8-3,.84-5.84,2-8.76,3-2.41.83-5.07,1.73-3.91,5,1,3,3.84,2.79,6.29,2.15,12.46-3.31,25-6.5,37-12.32,2.21,6.66,4.17,13.06,6.46,19.34,5,13.94,11.18,17.49,25.51,14,19.77-4.86,39.43-10.21,59.14-15.31,31.47-8.13,63.49-12.94,95.82-16,24.61-2.29,49.25-4.23,73.89-6.16,18.35-1.44,22.74,6.58,22.43,21.07-.27,12.66-.13,25.34-.17,38,0,4.65.25,9.31,1.95,13.67,2.88,7.41,8,12.2,16.16,13.49,10.46,1.66,21,1,31.46,1.15l49,0c8-.1,16.08.07,24.11-.18,5.26-.17,10.43-.89,14.79-4.48,5.83-4.82,9-10.79,9-18.44,0-13,.37-26,0-38.95-.55-20,3.32-26.44,25.92-25.12,68.6,4,136.65,11.25,202.82,31,8.56,2.55,17.26,4.76,26,6.63,10.14,2.16,15.6-.76,20.3-10,3.68-7.2,5.32-15.1,7.9-23.36,10.82,5.23,22.7,6.7,33.85,10.66a24,24,0,0,0,6.25,1.52c1.64.11,2.68-1.28,3.17-2.89a2.63,2.63,0,0,0-1.4-3.12,50.28,50.28,0,0,0-6.8-2.89,229.75,229.75,0,0,0-32.54-8.87c1.26-4.49,2.39-8.49,3.7-13.14,20.68,6,40.93,12.06,61.12,19-1.39,5.26-1.41,10.55-7.41,12.33a1.44,1.44,0,0,0-.89,2.17c4.18,5.23,0,10-.79,14.92-.46,3-1.89,5.87-2.59,8.86-2.42,10.25,1.95,18.4,11.95,21.95s20,6.44,29.75,10.17c20.73,7.91,31.52,23.22,31.57,45.41q.27,112.67.14,225.35c0,7.18-1.88,13.65-8.26,18.83-.15-6.86-.18-13.73-.5-20.59-.17-3.62.82-7.49-1.79-10.73-3.86.55-5.79,2.21-5.61,6.66.37,8.62.14,17.28,0,25.91-.13,7.49-.24,7.62-8,7.63q-41.19.1-82.37,0a45,45,0,0,0-15.47,2.25c-6.72,2.4-11,7.62-15,13.08-2.72,9.15-5.25,18.36-8.2,27.43-4.6,14.13-11.54,19.32-26.56,19.8-10.19.34-20.39.32-30.59.32q-115.36,0-230.75-.15C1006.68,755.94,1001.17,755.48,997.52,761.33ZM1781,497a46.07,46.07,0,0,0-9.52,30.25c.33,10.5-.08,21,0,31.52.12,8.84-3.3,15-11.35,19.44C1748,584.9,1736,592,1724.48,599.73c-10.27,6.91-21.33,4.6-32.27,4.6-3.15,0-2.88-2.71-2.87-4.81.09-6.49.48-13,.41-19.45,0-4.31-.62-8.6-1-12.91-1.3-14.61-21.55-26.7-36.23-14.89-7.67,6.18-15.57,7.59-24.81,7.35-15.74-.39-31.51-.2-47.27-.09-14.33.09-19,3.22-24.17,16.89q-14,36.72-27.6,73.6c-11.65,31.53-23.13,63.11-34.7,94.65-.75,2-1.68,4-2.54,6-2.67,8.36-6.08,16.32-12.61,22.52-4.28,6.83-10.2,12-16.68,16.62-9.93,9.56-22.23,13.92-35.51,16.12-5.38,1.64-10.94,1.86-16.5,1.87-61.79.07-123.57,0-185.35.22-17.62.08-34-5.43-50.78-9.48-54.76-13.26-110.2-21.52-166.56-23.37-1.91-.06-4.76,1.25-5.27-1.91-.44-2.69-.51-5.6,1.47-7.94,1.31-1.55,3-1.38,3.73.2,2.15,4.45,6.24,4.58,10.17,4.92,10.41.94,20.83,1.69,31.08,2.5,1.29-3.94-.64-6.21-3.74-9.66h24.68q97.79-.09,195.55-.2c4.62,0,9.26-.07,13.88-.37,14-.9,22.6-8.94,27.16-21.61,2.72-7.52,5-15.23,7.13-22.95,3.11-11.05,10.33-16.23,21.72-16.25,20.34,0,40.68-1.2,61,.28,10.17-2,20.47-1.2,30.72-1.38,6.09-1.15,11.12-4.46,16-7.94a1.6,1.6,0,0,1,1.64-1.67,48,48,0,0,0,8.44-18.33,8.69,8.69,0,0,1,.23-5.63,39.26,39.26,0,0,1,.1-11q-1.11-20.43-.19-40.89c-.12-3.69-.35-7.39-.36-11.09,0-53.76-.13-107.52,0-161.29,0-13.06-2.57-25.09-10.54-35.66-.54-.71-1-1.48,0-3.1,10.65,4.22,21.5,8.29,32.17,12.79,29,12.21,57.42,25.6,85.72,39.3,1.94.94,3.77,2.14,5.74,3,5.51,2.35,7.79,6.27,7.46,12.38a117.32,117.32,0,0,1-2.47,17.38c-.46,2.3-1.11,4.46,1.85,5.16,2.6.61,3.82-1.22,4.68-3.43,3.2-8.24,5-17,2.77-25.42-5-18.95-2-38.08-2.92-57.11-.18-3.56,1.08-5.18,4.71-4.87,1.54.12,3.09,0,4.64,0,61.8.06,123.61,0,185.42.25,13.94.06,11.42-1.87,11.62,11.89.37,24.1.29,48.2.58,72.29A14.32,14.32,0,0,1,1781,497Z"/><path class="cls-1" d="M1445.15,440.15c-.05-22.19-10.84-37.5-31.57-45.41-9.79-3.73-19.88-6.65-29.75-10.17s-14.37-11.7-11.95-21.95c.7-3,2.13-5.85,2.59-8.86.76-4.91,5-9.69.79-14.92a1.44,1.44,0,0,1,.89-2.17c6-1.78,6-7.07,7.41-12.33-20.19-7-40.44-13-61.12-19-1.31,4.65-2.44,8.65-3.7,13.14a229.75,229.75,0,0,1,32.54,8.87,50.28,50.28,0,0,1,6.8,2.89,2.63,2.63,0,0,1,1.4,3.12c-.49,1.61-1.53,3-3.17,2.89a24,24,0,0,1-6.25-1.52c-11.15-4-23-5.43-33.85-10.66-2.58,8.26-4.22,16.16-7.9,23.36-4.7,9.22-10.16,12.14-20.3,10-8.73-1.87-17.43-4.08-26-6.63-66.17-19.74-134.22-27-202.82-31-22.6-1.32-26.47,5.11-25.92,25.12.37,13,0,26,0,38.95,0,7.65-3.2,13.62-9,18.44-4.36,3.59-9.53,4.31-14.79,4.48-8,.25-16.07.08-24.11.18l-49,0c-10.5-.15-21,.51-31.46-1.15-8.19-1.29-13.28-6.08-16.16-13.49-1.7-4.36-2-9-1.95-13.67,0-12.68-.1-25.36.17-38,.31-14.49-4.08-22.51-22.43-21.07-24.64,1.93-49.28,3.87-73.89,6.16-32.33,3-64.35,7.83-95.82,16-19.71,5.1-39.37,10.45-59.14,15.31-14.33,3.52-20.46,0-25.51-14-2.29-6.28-4.25-12.68-6.46-19.34-12,5.82-24.54,9-37,12.32-2.45.64-5.25.84-6.29-2.15-1.16-3.27,1.5-4.17,3.91-5,2.92-1,5.8-2.13,8.76-3,9.45-2.69,18.92-5.28,28.63-8-1.18-3.95-2.27-7.77-3.5-11.55-.11-.35-1.12-.71-1.58-.58-3.57,1-7.08,2.12-10.63,3.2-2.06.62-4.15,1.19-6.21,1.83-14.41,4.49-28.82,9-43.37,13.55,1.16,4.68,2.37,8.91,6.13,11.51,2.92,2,3.6,3.81,1.22,6.69-1.35,1.62-.38,3.57.19,5.31,1,2.93,1.91,5.87,3,8.74,5.89,15-.59,25.77-14.24,29.33a237.34,237.34,0,0,0-27.93,9.72c-15.4,6.17-25,17.39-28.48,33.86-1.22,5.84-1.23,11.66-1.22,17.51q.06,100.17.24,200.32c0,5.55.3,11.1.45,16.65-.53,9,.59,17.36,9.36,24.28.18-3.82.39-6.23.41-8.65,0-7.42,0-14.82,0-22.24,0-2,.28-3.73,2.71-4,3-.31,3.61,1.61,3.64,4.05,0,1.85.1,3.7.11,5.55,0,7.1,0,14.2.07,21.31.11,8.77.14,8.83,8.59,8.87,10.49.06,21,0,31.5,0,17,0,34-.09,50.95.16,17.14.25,25.88,6.87,31.3,23.29,1.83,5.56,3.37,11.21,5,16.82,5.19,17.21,11.18,21.76,29.27,22.27,2.17.06,4.33.06,6.49.07,25,0,50,.15,75.05.15q93.1,0,186.2-.12l2.13.37,1.68,1.15c1.45,2,2.89,3.9,4.35,5.85l.8,3.42c.15.88.41,1.74.62,2.61-.11,6.16-.47,12.32.52,18.44,1.53,3.39,4.28,1.53,6.6,1.54l57.86.62c3.15,0,3.26-1.88,3.27-4.25.06-5.55.25-11.11.45-16.67a14.87,14.87,0,0,1,2.72-7.62c3.65-5.85,9.16-5.39,14.68-5.39q115.36.07,230.75.15c10.2,0,20.4,0,30.59-.32,15-.48,22-5.67,26.56-19.8,3-9.07,5.48-18.28,8.2-27.43,4-5.46,8.32-10.68,15-13.08a45,45,0,0,1,15.47-2.25q41.19.09,82.37,0c7.71,0,7.82-.14,8-7.63.14-8.63.37-17.29,0-25.91-.18-4.45,1.75-6.11,5.61-6.66,2.61,3.24,1.62,7.11,1.79,10.73.32,6.86.35,13.73.5,20.59,6.38-5.18,8.26-11.65,8.26-18.83Q1445.25,552.82,1445.15,440.15ZM485.82,438h.1c0-6.18,0-12.36,0-18.53,0-2.32.66-4.48,3.64-4.15,2.57.29,2.31,2.58,2.33,4.29q.18,17.15.16,34.29a8.79,8.79,0,0,1-.63,3.61,3.48,3.48,0,0,1-3.92,1.78c-1.55-.22-1.68-1.55-1.69-2.76C485.8,450.33,485.82,444.15,485.82,438Zm2.4,37.46c2.6-.08,3.89.94,3.87,3.79-.11,11.4,0,22.8-.08,34.2a6.26,6.26,0,0,1-.42,2.71,3.56,3.56,0,0,1-3.83,1.9c-1.55-.19-1.86-1.51-1.87-2.68-.08-6.47,0-12.94,0-19.41h-.26c0-5.55,0-11.09,0-16.64C485.56,477.35,485.57,475.53,488.22,475.43Zm.71,59.53c3.09.17,3.09,2.33,3.09,4.57,0,5.55,0,11.09,0,16.64h.1c0,4.93,0,9.86,0,14.79a44.19,44.19,0,0,1-.21,4.61c-.26,2.38-2,2.81-4,2.76-2.21-.05-2.14-1.68-2.14-3.23,0-6.78,0-13.55,0-20.34,0-4.93-.16-9.85-.16-14.78C485.62,537.63,484.89,534.73,488.93,535ZM492,632.47c.1,4.37-2.46,4.93-5.75,5-1.28-10.58-.13-21.19-.53-31.78q-.21-5.46-.4-10.9c.43-.5.85-1,1.27-1.52,2.78.27,5.54.22,5.46,4.4-.1,5.86.25,11.71.4,17.56C492.3,621,491.89,626.73,492,632.47Zm291.24-80c-1.13,3.88-3,6.25-7,5.48-12.42-2.34-18.79,3.89-25.42,13.9-13,19.64-31.87,32.4-55,38.25-3,.75-5.89,1.71-8.83,2.58a11.56,11.56,0,0,0-6.08.94l-9,.29a11.1,11.1,0,0,0-6,0l-7.12-.34c-2.06-.71-4.09-1.79-6.28-.4-1.17-2-3.08-1.52-4.87-1.51l-1.84-.35c-13.26-4.21-26.08-9.22-37.23-17.94a101.83,101.83,0,0,1-26.09-29.78c-2.73-4.76-6.05-6-11.18-5.76-11.54.58-12.08,0-14.54-11.38a91.08,91.08,0,0,1,1.39-45.78c1.2-4.09,2.62-6.88,7.44-6.07,4,.69,5.08-1.41,6-5,8.94-33.51,29.09-57.4,61.57-70.22,4-1.6,5-3.64,5-7.47-.14-9.89.12-19.78,0-29.67-.06-4.63,1.91-7.37,6-9.29,17.64-8.21,35.17-7.89,52.83,0,4.56,2,6.53,5,6.4,10-.23,9.58.08,19.17-.19,28.74-.12,4.44.78,6.94,5.46,9,29.6,13.19,49.58,35.08,57.91,66.78,1.33,5,3,8.48,9.05,7.22,3.92-.8,6.09.79,7.39,4.87C788.57,517.27,788.43,534.81,783.26,552.51Zm578.91-.45c-1.36,5-4.36,7-8.72,6-9.59-2.15-13.85,2.93-18.63,10.34-13.52,21-32.33,35.36-57,41.45a40.82,40.82,0,0,0-5.14,2,11.63,11.63,0,0,0-7.29,1.56l-2,.2h-24.06l-1.93-.22a12.07,12.07,0,0,0-7.32-1.53c-29-6.88-51.43-22.78-66.31-48.62-2.45-4.26-4.8-5.76-9.21-5.31-1.83.18-3.71,0-5.56,0-10.41.06-10.82-.11-13.17-9.81a87.56,87.56,0,0,1,.64-45.78c2.19-7.57,2.3-8,10.1-7.6,4.64.23,5.52-1.69,6.54-5.47,8.59-32.13,28-55.25,58.55-68.57,4.11-1.79,5.37-4,5.25-8.26-.29-9.89.07-19.79-.12-29.68-.1-5,2-7.9,6.54-9.94,17.38-7.85,34.65-7.6,52.06-.18,4.89,2.08,7,5.28,6.8,10.69-.34,9.26,0,18.55-.24,27.82-.11,4.11.58,6.54,5.06,8.32,32.37,12.9,52.82,36.55,61.61,70.2,1,3.66,2.24,5.57,6.1,5,4.17-.59,5.91,1.48,7.13,5.33C1367.44,517.41,1366.93,534.65,1362.17,552.06Zm74,22.19c0,2-.54,3.62-3.16,3.36-2-.2-3.76-.76-3.84-3-.15-4,0-8,0-12q.09-11,.24-22.09c0-2.53,0-5,3.7-4.92,3.39.09,2.86,2.59,2.9,4.58.09,5.52,0,11,0,16.57h.13C1436.23,562.59,1436.27,568.42,1436.22,574.25Zm-6.53-153.86c0-1.79.06-4,2.49-4.2,2.82-.22,3.64,2,3.67,4.27.1,6.13,0,12.28,0,18.42h.22c0,5.53,0,11.06,0,16.59,0,1.76-.79,3-2.64,3.09a3.35,3.35,0,0,1-3.58-2.26,7.63,7.63,0,0,1-.46-2.72C1429.48,442.52,1429.55,431.45,1429.69,420.39Zm-.56,76.21h.13c0-5.55,0-11.1,0-16.65,0-2.51.71-4.14,3.57-4.21,3.06-.08,3.41,1.77,3.41,4.19q-.11,16.63-.07,33.28c0,2.44-.3,4.18-3.4,4.1-2.85-.08-3.68-1.49-3.64-4.08C1429.19,507.7,1429.13,502.15,1429.13,496.6Zm6.09,140.49c-4.14-.54-6.67-2.07-6.25-7.07s-.18-9.82-.33-14.73c.35-6.1.68-12.2,1-18.28.1-1.65.78-3.07,2.61-3.16,2.06-.11,3.67.83,3.65,3.11C1435.81,610.33,1438,623.76,1435.22,637.09Z"/><path d="M783,499.63c-1.3-4.08-3.47-5.67-7.39-4.87-6.07,1.26-7.72-2.19-9.05-7.22-8.33-31.7-28.31-53.59-57.91-66.78-4.68-2.08-5.58-4.58-5.46-9,.27-9.57,0-19.16.19-28.74.13-5-1.84-8-6.4-10-17.66-7.86-35.19-8.18-52.83,0-4.13,1.92-6.1,4.66-6,9.29.15,9.89-.11,19.78,0,29.67.06,3.83-.92,5.87-5,7.47-32.48,12.82-52.63,36.71-61.57,70.22-1,3.58-2.06,5.68-6,5-4.82-.81-6.24,2-7.44,6.07a91.08,91.08,0,0,0-1.39,45.78c2.46,11.34,3,12,14.54,11.38,5.13-.25,8.45,1,11.18,5.76a101.83,101.83,0,0,0,26.09,29.78c11.15,8.72,24,13.73,37.23,17.94l1.84.35c1.79,0,3.7-.47,4.87,1.51,2.19-1.39,4.22-.31,6.28.4l7.12.34a11.1,11.1,0,0,1,6,0l9-.29a11.56,11.56,0,0,1,6.08-.94c2.94-.87,5.86-1.83,8.83-2.58,23.14-5.85,42-18.61,55-38.25,6.63-10,13-16.24,25.42-13.9,4.09.77,5.91-1.6,7-5.48C788.43,534.81,788.57,517.27,783,499.63Zm-79.65-71.47c25.4,4.87,53.51,38.14,56.66,65.92-8.54,1.05-16.09.17-23-6.23-9.23-8.61-19.19-16.48-29.07-24.39a11.37,11.37,0,0,1-4.72-10.25C703.55,444.89,703.33,436.55,703.33,428.16Zm-52.91-49.52c12.36-4,24.79-4.93,37.34-1.28,8.18,2.38,8.2,2.53,8.24,10.74.07,10.5,0,21,0,31.5h0c0,11.13-.1,22.25,0,33.37.05,3.48-.9,4.84-4.68,4.78-13.58-.23-27.18-.19-40.77-.06-3.48,0-4.9-.93-4.88-4.67.1-22.54,0-45.09-.09-67.64C645.59,381.81,646.91,379.78,650.42,378.64ZM637.55,426.2c1.14,10.47.58,20.76.23,31-.11,3.34-3,5.16-5.42,7.14-8.58,7.09-17.74,13.62-25.48,21.53-8.13,8.32-17.38,9.51-27.88,8.33C581.15,466.9,606.71,437,637.55,426.2ZM569.43,551.31c-3,.15-4.35-1.5-5-4.27a83.33,83.33,0,0,1,0-41.09c.71-2.79,2-4.17,5-4.1,7.05.15,14.11,0,21.73,0-.43,4.54-.86,7.6-2.48,10.27-5.52,9.08-5,17.94.24,27a19.64,19.64,0,0,1,2.56,11Zm175,17.29c-13.6,17.72-31.11,29.73-52.85,35.13-39.13,9.72-80.75-7.44-101.6-41.7a17.94,17.94,0,0,1-1.28-3.46c5-2.38,8,1,10.61,3.73,9.18,9.47,20.53,15.6,31.89,21.83a38.24,38.24,0,0,0,19.41,5c14.49-.17,29-.13,43.5,0A26.38,26.38,0,0,0,706.42,586c13.82-7,27.22-14.49,38-25.93,1-1.09,2-2.45,4.52-2.44C749.69,562.26,746.8,565.45,744.39,568.6Zm2.89-35.89a16.22,16.22,0,0,0-3.43,12.12c.47,3.82-1.28,6.29-3.68,8.94-10.83,11.91-24.69,19.29-38.69,26.53-2.89,1.49-5.88,1.64-9,1.62-7.1-.07-14.2,0-21.3,0v-.12a65.39,65.39,0,0,0-7.41,0c-26,3-44.35-11.39-62-27.35-2.51-2.27-3.28-5.1-3.47-8.25A26.71,26.71,0,0,0,594,532.28c-3.08-4.5-3.15-9.13,0-13.8,1.35-2,3.18-4.44,3.11-6.62-.31-8.72,5.48-13.05,11.31-17.75q13.68-11.06,26.89-22.69a25.54,25.54,0,0,1,18.54-6.71c12.64.38,25.32.19,38,.08a14.2,14.2,0,0,1,10.11,3.39C714.61,479,727.57,489.42,740.45,500c1.41,1.15,3.72,2,3.4,4-1.07,6.7,2.56,11.81,5.14,17.34C750.9,525.42,749.78,529.39,747.28,532.71Zm29.92,12.94c-1.14,4.27-3.26,6.22-7.8,5.74s-9.22-.43-13.81-.8c-6-.47-6.28-.8-4.4-6.84a110.38,110.38,0,0,1,4.3-11.17c2.51-5.76,2-11.21-.75-16.8-6.79-13.64-6.69-13.68,8.16-13.69h1.85c12.1-.11,12.23-.13,14,11.57A78.67,78.67,0,0,1,777.2,545.65Z"/><path d="M1361.93,500c-1.22-3.85-3-5.92-7.13-5.33-3.86.54-5.14-1.37-6.1-5-8.79-33.65-29.24-57.3-61.61-70.2-4.48-1.78-5.17-4.21-5.06-8.32.26-9.27-.1-18.56.24-27.82.2-5.41-1.91-8.61-6.8-10.69-17.41-7.42-34.68-7.67-52.06.18-4.52,2-6.64,4.93-6.54,9.94.19,9.89-.17,19.79.12,29.68.12,4.27-1.14,6.47-5.25,8.26-30.59,13.32-50,36.44-58.55,68.57-1,3.78-1.9,5.7-6.54,5.47-7.8-.41-7.91,0-10.1,7.6a87.56,87.56,0,0,0-.64,45.78c2.35,9.7,2.76,9.87,13.17,9.81,1.85,0,3.73.16,5.56,0,4.41-.45,6.76,1.05,9.21,5.31,14.88,25.84,37.36,41.74,66.31,48.62a12.07,12.07,0,0,1,7.32,1.53l1.93.22h24.06l2-.2a11.63,11.63,0,0,1,7.29-1.56,40.82,40.82,0,0,1,5.14-2c24.62-6.09,43.43-20.48,57-41.45,4.78-7.41,9-12.49,18.63-10.34,4.36,1,7.36-1,8.72-6C1366.93,534.65,1367.44,517.41,1361.93,500Zm-79.76-73.79c24.09,5.39,56.43,36.92,59.08,67.87-10.59,1.62-19.67-.35-27.81-8.31-8.35-8.18-17.83-15.2-27-22.54a10.7,10.7,0,0,1-4.38-9.5C1282.37,444.84,1282.17,435.88,1282.17,426.25ZM1224.47,388c0-8.24.27-8.21,8.29-10.54a58.41,58.41,0,0,1,33.67-.17c8.15,2.43,8.24,2.45,8.33,10.59.1,10.48,0,21,0,31.43h0c0,11.09-.14,22.18.08,33.26.07,4-1.07,5.28-5.22,5.18-12.94-.29-25.88-.26-38.82-.06-4.42.07-6.59-.64-6.52-5.92C1224.63,430.54,1224.36,409.27,1224.47,388Zm6.52,76.81c13.27.27,26.56.23,39.83,0a15.39,15.39,0,0,1,10.84,3.93c12.76,10.71,25.72,21.19,38.67,31.66,1.85,1.5,3.06,3,2.5,5.44-1,4.28.68,7.81,3,11.26,3.83,5.77,4,11.47-.49,17.08-1.77,2.22-3.12,5-2.54,7.74,1.54,7.28-3.09,10.83-7.48,15.35-10.17,10.42-23,16.34-35.44,23.17-2.86,1.59-5.94,1.4-9,1.39h-21.31v-.2a44.48,44.48,0,0,0-5.54,0c-26.76,3.48-45.69-10.94-63.63-27.68a7.94,7.94,0,0,1-2.88-5.58,35.41,35.41,0,0,0-5.58-18.32,8.68,8.68,0,0,1-.16-9.61c2.7-4.84,5.69-9.55,5.06-15.53-.27-2.49,1.82-3.72,3.47-5.09,11.85-9.88,23.76-19.68,35.53-29.66A21.66,21.66,0,0,1,1231,464.83Zm-14.06-37.18c0,9.7-.09,18.63.06,27.54,0,3.11-1.2,5.14-3.5,7.07-11.17,9.28-22.33,18.57-33.3,28.09-5.85,5-12.57,4-19.32,4C1161.32,469.48,1189.36,435.62,1216.93,427.65Zm-68.41,123.51c-2.89.1-4.51-1.5-5.25-4.2a80.94,80.94,0,0,1,0-42c.65-2.52,2.34-3.28,4.79-3.26,7.07.07,14.14,0,21.9,0,0,5.85-2.11,9.64-3.9,13.49-3.32,7.14-3.9,14,.41,21.08,2.38,3.91,3.58,8.43,3.92,13.94C1163,550.58,1155.76,550.9,1148.52,551.16ZM1260,606c-37.86,3.26-75.39-16.75-89.88-48.42,4.84.93,7.05,3.58,9.26,6,9.94,10.64,23,16.37,35.55,23,4.4,2.32,9.46,2.67,14.43,2.67,14.52,0,29-.13,43.54,0a27.18,27.18,0,0,0,14.06-3.83c12-6.86,24.72-12.68,34.29-23.23,2.39-2.62,5.4-5.11,9.7-3.91C1323.1,581.52,1290.52,603.33,1260,606Zm96.24-60.51c-1.08,4.3-3.22,6.35-7.72,6-4.92-.38-9.86-.4-14.77-.82-5.14-.44-5.73-1.33-4.17-6.49a42.7,42.7,0,0,1,3.6-8.47c4-7.09,3.63-13.94,0-21.1-6.19-12.33-6.05-12.41,8-12.55H1343c15.39.1,11.56-2.43,14.56,12.28C1359.68,524.62,1358.79,535.12,1356.2,545.44Z"/><path d="M1435.22,637.09c-4.14-.54-6.67-2.07-6.25-7.07s-.18-9.82-.33-14.73c.35-6.1.68-12.2,1-18.28.1-1.65.78-3.07,2.61-3.16,2.06-.11,3.67.83,3.65,3.11C1435.81,610.33,1438,623.76,1435.22,637.09Z"/><path d="M1436.1,438.88c0,5.53,0,11.06,0,16.59,0,1.76-.79,3-2.64,3.09a3.35,3.35,0,0,1-3.58-2.26,7.63,7.63,0,0,1-.46-2.72c.06-11.06.13-22.13.27-33.19,0-1.79.06-4,2.49-4.2,2.82-.22,3.64,2,3.67,4.27.1,6.13,0,12.28,0,18.42Z"/><path d="M1436.16,513.22c0,2.44-.3,4.18-3.4,4.1-2.85-.08-3.68-1.49-3.64-4.08.07-5.54,0-11.09,0-16.64h.13c0-5.55,0-11.1,0-16.65,0-2.51.71-4.14,3.57-4.21,3.06-.08,3.41,1.77,3.41,4.19Q1436.13,496.57,1436.16,513.22Z"/><path d="M1436.22,574.25c0,2-.54,3.62-3.16,3.36-2-.2-3.76-.76-3.84-3-.15-4,0-8,0-12q.09-11,.24-22.09c0-2.53,0-5,3.7-4.92,3.39.09,2.86,2.59,2.9,4.58.09,5.52,0,11,0,16.57h.13C1436.23,562.59,1436.27,568.42,1436.22,574.25Z"/><path d="M492,513.42a6.26,6.26,0,0,1-.42,2.71,3.56,3.56,0,0,1-3.83,1.9c-1.55-.19-1.86-1.51-1.87-2.68-.08-6.47,0-12.94,0-19.41h-.26c0-5.55,0-11.09,0-16.64,0-1.95,0-3.77,2.64-3.87s3.89.94,3.87,3.79C492,490.62,492.05,502,492,513.42Z"/><path d="M492.08,453.87a8.79,8.79,0,0,1-.63,3.61,3.48,3.48,0,0,1-3.92,1.78c-1.55-.22-1.68-1.55-1.69-2.76,0-6.17,0-12.35,0-18.53h.1c0-6.18,0-12.36,0-18.53,0-2.32.66-4.48,3.64-4.15,2.57.29,2.31,2.58,2.33,4.29Q492.1,436.73,492.08,453.87Z"/><path d="M492,632.47c.1,4.37-2.46,4.93-5.75,5-1.28-10.58-.13-21.19-.53-31.78q-.21-5.46-.4-10.9c.43-.5.85-1,1.27-1.52,2.78.27,5.54.22,5.46,4.4-.1,5.86.25,11.71.4,17.56C492.3,621,491.89,626.73,492,632.47Z"/><path d="M492.11,556.17c0,4.93,0,9.86,0,14.79a44.19,44.19,0,0,1-.21,4.61c-.26,2.38-2,2.81-4,2.76-2.21-.05-2.14-1.68-2.14-3.23,0-6.78,0-13.55,0-20.34,0-4.93-.16-9.85-.16-14.78,0-2.35-.74-5.25,3.3-5,3.09.17,3.09,2.33,3.09,4.57,0,5.55,0,11.09,0,16.64Z"/><path d="M1460.09,787.67c-11.15,9.71-24,14.93-38.89,15.07-2.24-1.48-3-4.59-.67-5,10.82-2,8.14-10.52,9-17.33a8.37,8.37,0,0,0-.39-2.68c0-.21-.38-.36-.58-.54-15.7,14.05-30.92,15.35-41.69,3.56-9.31-10.19-8.54-26.36,1.71-35.91,11.59-10.79,25.61-9,39.95,5.63.39-9.78.76-18.89,1.13-28,.09-2.16.09-4.33.28-6.48.17-1.9,1.48-2.46,3.23-2.37a2.45,2.45,0,0,1,2.62,2,22.76,22.76,0,0,1,.28,3.69c.05,10.2.11,20.4.08,30.6,0,2.93.87,6.5-4.07,6.57-1.61,0-1.45,1.54-1.45,2.76,0,3.08-.06,6.16,0,9.24,0,.88,0,2.4.34,2.55,8.84,3.28,4.31,10.82,5.36,16.55.2,1.12-.42,2.43,1.25,3.72,4.74-1.35,8.82-4.66,13.29-7.16C1456.59,781,1456.64,781,1460.09,787.67Zm-35.68-24.76c-.23-9.2-9.81-18.06-19.19-17.73a18.53,18.53,0,0,0-17.63,18.93c.29,9.72,9.46,18.56,18.69,18S1424.62,771.8,1424.41,762.91Z"/><path d="M1510.24,444.87c14.15-.15,25.86,10.88,26.13,24.61.28,14.54-11.07,26.58-25.28,26.37-15.69-.23-25.84-12.65-25.43-25.05C1486.15,456,1496,445,1510.24,444.87ZM1529,470.59c-.14-10-8.45-18.51-18-18.44-9.78.07-19.46,9-18.6,18,1,10.33,7.93,18.41,18.21,18.59C1520.35,488.89,1529.09,480.07,1529,470.59Z"/><path d="M1503.6,678.6a1.64,1.64,0,0,0,1.65-1.67c6.9,2.14,7.08,2.2,5,8.28-3.06,9-6.36,17.9-9.66,26.81a41,41,0,0,1-2.95,5.7,2.52,2.52,0,0,1-3.15,1.23,5.14,5.14,0,0,1-2.25-2.71c-.8-2.13.09-4.18.79-6.24C1496.6,699.55,1500.09,689.07,1503.6,678.6Z"/><path d="M1513.58,662.7c-2.74-4.08-.6-8,.61-11.74,2.72-8.5,3.66-17.6,8.56-25.42,1.23-2,2.12-3.66,4.72-3.44,2,.17,4.07.61,3.34,3.1-3.64,12.29-7,24.68-13.23,36C1516.78,662.68,1515.2,663,1513.58,662.7Z"/><path d="M1077.73,768.52c9.19,1.17,18.32,2.25,27.33,4.29,2.59.59,4.9,1.09,4.48,4.5-.46,3.7-3.22,3.16-5.59,2.81-10.33-1.48-20.64-3.07-31-4.68a18.35,18.35,0,0,1-4.41-1.25,3.19,3.19,0,0,1-2-3.74,2.73,2.73,0,0,1,2.84-1.9C1072.21,768.46,1075,768.52,1077.73,768.52Z"/><path d="M1129.4,776.6c12,1,23.07,3.94,34.19,6.27,2.69.56,4.52,2,3.56,5.18-.8,2.7-2.61,2.83-5.05,2.33-10.82-2.24-21.68-4.34-32.53-6.48l-.9-.18c-2.67-.52-4.83-1.84-4.49-4.83C1124.65,774.77,1128.15,777.6,1129.4,776.6Z"/><path d="M1489.72,746.77c-4.23,8.13-7.37,16.85-13.07,24.19-1.93.31-3.58,3-5.8.78-1.71-1.68-.72-3.4.13-5,5-9.5,10-19,12.74-29.48.8-3.11,3-3.68,5.67-2.89,2.91.84,2.39,3.19,2,5.3C1490.93,742,1490.28,744.39,1489.72,746.77Z"/><path d="M1225.05,802.6c-13.27.47-25.91-2.65-38.27-7.39-1.92-.73-3.34-2-3-4.06.43-2.68,2.69-1.87,4.42-1.7,6.13.6,12.06,2.24,18,3.73,4.46,1.11,9,1.76,13.51,2.85C1222.71,796.76,1225.91,797.61,1225.05,802.6Z"/><path d="M1549.84,569.71a220.51,220.51,0,0,1-12.37,34.77,2.77,2.77,0,0,1-2.94,1.76c-2.2-.27-2.14-2.08-1.77-3.51.92-3.57,2-7.1,3.22-10.58q4-11.82,8.23-23.56c.61-1.7,1.46-3.81,3.78-3.36S1550.22,567.77,1549.84,569.71Z"/><path d="M1569.33,515.29c-3.51,10-7.35,21.05-11.31,32.06-.65,1.82-2.17,3.38-4.27,2.49-2.35-1-1.28-3.26-.75-4.83,3.53-10.52,7.21-21,10.84-31.48a5.33,5.33,0,0,1,.32-.87c.87-1.65,1.8-3.6,4.08-2.64C1569.93,510.74,1569.36,512.63,1569.33,515.29Z"/><path d="M1382.51,802.37c-6.14,0-12.29,0-18.44,0-2,0-3.72-.61-3.51-3.11.17-2,1.87-2.31,3.36-2.31,12,0,24,0,36,.05,2,0,3.83.63,4,2.89.17,2.64-2,2.7-3.82,2.72-5.84.06-11.69,0-17.53,0Z"/><path d="M1323.49,802.24H1305.1c-1.73,0-3.18-.68-3.39-2.39-.32-2.63,1.78-2.81,3.64-2.81q17.93,0,35.86.12c1.73,0,4.08,0,3.93,2.6-.14,2.48-2.41,2.39-4.19,2.42-5.82.07-11.64,0-17.46,0Z"/><path d="M1262.61,796.81c4.31,0,8.69-.47,12.9.16,3.15.47,8.91-2.38,9,2.84,0,4.11-5.48,2.27-8.55,2.49-5.21.36-10.45.23-15.68.25-4.62,0-9.23,0-13.84-.07-2.07,0-4.66.36-4.89-2.75-.26-3.48,2.57-2.77,4.5-2.81,5.54-.11,11.07,0,16.61,0Z"/><path d="M538,774.78c-.93,1.19-1.87,2.38-2.79,3.59-10,13.21-27.83,14.18-39.16,2.11a19.09,19.09,0,0,1-1.77-3c-2.94,5-1.81,9.35-2,13.47-.18,3.86,2.82,5.12,5.81,6.17,1.59.56,2.8,1.46,2.44,3.28s-2,2.15-3.56,2.29a28.5,28.5,0,0,1-10.05-1.09c-9.9-2.74-19-7-26.53-14.17-.69-3.91.51-6.34,4.82-4.89,3.17,1.06,6,3,9.08,4.47,3.24,1.56,6.1,4.11,10,4.28,2.05-2.91,1.13-6.05,1.31-9,.26-4.17-2.24-8.38,3.12-12.15,2.49-1.75,2.36-9-.19-11.84-3.09-3.41-2.59-6.63-2.65-10.1-.18-10.48-.14-21-.17-31.44,0-1.86-.11-3.89,2.52-4s3.8,1.36,3.79,4c0,6.16.07,12.32.1,18.49,0,4.22,0,8.44,0,12.66,3.43.47,4.06-2.15,5.54-3.4,9.1-7.64,20.35-8.8,30-2.92,9.92,6,14.22,17,11.34,28.72C538.62,771.78,538.33,773.28,538,774.78Zm-5.23-11.13c.08-9.67-8.33-18.3-18.07-18.55-9.29-.24-18.34,8.87-18.25,18.37.08,9.2,8.41,17.82,17.59,18.22S532.69,772.85,532.77,763.65Z"/><path d="M434.93,470.26c0,14.06-11.26,25.61-24.88,25.62-14.47,0-26.34-11.57-26.09-25.44.27-14.57,11.68-25.89,25.88-25.68A25.55,25.55,0,0,1,434.93,470.26Zm-25.72,18.49c9.77.07,18.35-8.55,18.26-18.32a18.15,18.15,0,0,0-18.23-18.19c-9.2.15-17.8,8.65-18,17.78C391.08,479.69,399.69,488.68,409.21,488.75Z"/><path d="M428.17,715c.12,1.86.05,3.34-1.88,3.88-1.63.45-3.19.17-4-1.29a65.58,65.58,0,0,1-3.19-6.59,189.5,189.5,0,0,1-9.49-25.81c-.48-1.77-1.3-3.47-.64-5.34a4.1,4.1,0,0,1,3.25-2.88,3,3,0,0,1,3.67,1.89A215.81,215.81,0,0,1,428.17,715Z"/><path d="M389.39,603.31a3.61,3.61,0,0,1-5.54,3.15c-1.78-1-2.37-2.85-3-4.52-3.62-9.84-7.12-19.72-10.62-29.6a11.8,11.8,0,0,1-.75-3.59c0-1.78,1.23-2.71,2.78-3.25s3.39-.68,4.08.93A381.74,381.74,0,0,1,389.39,603.31Z"/><path d="M388.65,622.78c4.6-1.27,7.19-1,8.9,3.25,4,9.94,7.23,20.12,10.53,30.29.72,2.22,1.66,5-1.59,6.28-3.56,1.41-5-1.13-6.11-3.78A115.38,115.38,0,0,1,396,647.73C393.54,639.6,390.11,631.73,388.65,622.78Z"/><path d="M350.48,513.47c0-1.51,0-3.11,2-3.53s3.63-.27,4.54,1.92c4.59,11.08,8.41,22.43,11.93,33.88a2.72,2.72,0,0,1-1.71,3.71c-1.88.75-3.63.76-4.87-1.09a10.62,10.62,0,0,1-1.11-2.53Q356.12,531,351,516.23A19.54,19.54,0,0,1,350.48,513.47Z"/><path d="M443.58,771l-9.42-16.43q-2.52-7.85-5.05-15.68c-.89-2.75-.26-5,2.67-5.79s3.59,1.53,4.13,3.62a79.08,79.08,0,0,0,13.78,28.77c1.74,2.27,2.43,4.15.25,6.39C447.4,774.53,445.57,772.23,443.58,771Z"/><path d="M463.44,615.84l.1.31Z"/><path d="M850.77,284.22c4.48-3.06,7.93-1.76,10.87-.69a61.48,61.48,0,0,1,23,15,9.23,9.23,0,0,1,3,5.57,3.42,3.42,0,0,1-.75,2.48,2.17,2.17,0,0,1-3.24,0c-4.68-4.46-9.45-8.82-15-12.15S857.42,288,850.77,284.22Z"/><path d="M1070.84,283.86c-13.64,6.4-24.48,13.16-33.79,22.15a2.72,2.72,0,0,1-4.08,0,3.41,3.41,0,0,1-.78-4.16C1036,292.71,1058.27,281.3,1070.84,283.86Z"/><path d="M701.92,802.82c-2.47-.8-6.89,2.1-7.67-2-.88-4.64,3.94-4.59,7.08-5.33,7.73-1.81,15.48-3.58,23.27-5.16a68.47,68.47,0,0,1,9.19-1c1.13-.08,2.52-.24,3.09,1.24.74,1.91-.73,2.81-1.93,3.67a13.12,13.12,0,0,1-3.29,1.63C722.09,799.37,712.46,802.59,701.92,802.82Z"/><path d="M842,768.79c4.41,0,6.89,0,9.35,0,1.25,0,2.51.34,2.65,1.94s-.07,3.16-1.84,3.75a27.44,27.44,0,0,1-4.5,1q-15.12,2.21-30.25,4.33c-2.37.33-5.11,1.2-5.77-2.51s1.57-4.87,4.72-5.27C825.51,770.93,834.69,769.73,842,768.79Z"/><path d="M789.2,776.71c3.06.16,5.44-.7,5.84,1.87s-.39,4.95-3.59,5.35c-11.62,1.46-23.06,3.83-34.48,6.33-1.6.34-3.14.76-3.61-1.33s-.93-4.61,1.84-5.4c3.23-.92,6.63-1.27,9.94-1.94C773.58,779.9,782,778.17,789.2,776.71Z"/><path d="M559.71,796.77c.67,4-.72,5.58-3.79,5.6q-17.92.12-35.86.17c-1.83,0-3.72-.19-4-2.69-.28-2.66,1.55-3.05,3.45-3.06C533,796.74,546.44,796.77,559.71,796.77Z"/><path d="M599.76,797.05c5.87,0,11.74-.06,17.6,0,1.37,0,3.37-.35,3.4,1.93s-1.41,3.23-3.57,3.27-4.32.15-6.48.16c-9.88,0-19.77,0-29.65,0-1.91,0-3.78-.28-3.75-2.91,0-2.81,2.25-2.5,3.93-2.53,6.17-.11,12.35,0,18.52,0Z"/><path d="M657.11,802.46c-5.86,0-11.72.06-17.58,0-1.94,0-3.72-.65-3.52-3.15.16-2.12,2-2.11,3.39-2.12q18-.13,36.07-.12c1.89,0,3.81.33,3.47,3-.25,2-1.77,2.36-3.33,2.37C669.44,802.49,663.27,802.46,657.11,802.46Z"/><path d="M693.85,515.68c0,4.92.28,9.87-.07,14.77-.44,6-2.31,8.17-8.37,9.15-10.69,1.73-21.47,1.17-32.22.39-5.28-.38-7.65-4-8.24-8.52-1.43-10.69-1.78-21.48.16-32.13,1.18-6.49,3.43-8.22,10.16-8.46,8.92-.32,17.86-.38,26.77,0s11.66,3.58,12,12.79c.14,4,0,8,0,12ZM668.94,533.3c4,0,8-.06,12,0,3.84.08,5.63-1.62,5.56-5.53q-.21-12-.17-24.07c0-3.76-1.29-5.76-5.38-5.57-3.7.17-7.41-.14-11.11,0-5.52.15-12.39-2.19-16.21,1.09-4.44,3.8-2,11.08-1.94,16.83C651.88,534.85,648.87,533.32,668.94,533.3Z"/><path d="M1226.41,515.07c0-4.62-.22-9.26.06-13.87.38-6.36,3.22-9.62,9.63-10.24a150.4,150.4,0,0,1,29.55-.09c6.63.68,10.23,4.21,10.48,10.74.35,8.92.34,17.89-.15,26.8-.47,8.54-3.53,11.47-12.14,11.9-8.3.41-16.65.42-24.95.06-9.52-.42-11.89-3-12.41-12.36-.24-4.3,0-8.63,0-12.94Zm7.54.42h-.21c0,4,.16,8,0,12s1.59,5.7,5.36,5.69c8,0,16-.08,24-.06,3.37,0,5.18-1.47,5.32-4.89.34-8.62.61-17.23-.23-25.83-.28-2.93-1.51-4.31-4.66-4.24-8.31.18-16.63.19-24.94.12-3.71,0-4.74,1.89-4.63,5.2C1234.05,507.49,1234,511.49,1234,515.49Z"/><rect class="cls-1" width="1" height="1"/><rect class="cls-1" x="1919" y="1079" width="1" height="1"/><rect class="cls-1" y="1079" width="1" height="1"/><rect class="cls-1" x="1919" width="1" height="1"/></g><g id="Capa_3" data-name="Capa 3"><path d="M846.78,612.81v111H827V653.09L807.44,668l-16.18,12.54L775.08,668l-19.51-14.91v70.75H735.74v-111L755.57,628l35.69,27.44L827,628Z"/><path d="M900.7,649.76v75.5H880.87V647.7a15.8,15.8,0,0,0-13.48-13.48H863V614.55h4.28v.16a35.55,35.55,0,0,1,13.48,3.65,35.17,35.17,0,0,1,16,16.18,42.26,42.26,0,0,1,2.7,7.45,33.53,33.53,0,0,1,1,8.09Z"/><path d="M954.31,649.76v75.5H934.48V647.7A15.8,15.8,0,0,0,921,634.22h-4.44V614.55h4.28v.16a35.55,35.55,0,0,1,13.48,3.65,35.17,35.17,0,0,1,16,16.18A42.26,42.26,0,0,1,953,642a33.53,33.53,0,0,1,1,8.09Z"/><path d="M1071.36,667.85a32.75,32.75,0,0,1-23.47,55.51h-45.53a32.58,32.58,0,0,1-30.13-20,34.31,34.31,0,0,1-2.54-12.85V645a32.11,32.11,0,0,1,8.25-21.41,33.6,33.6,0,0,1,9.51-7.45,31.45,31.45,0,0,1,14.91-3.65h69v19.83h-69a13.06,13.06,0,0,0-13,13v15.55a32.48,32.48,0,0,1,12.37-2.54h46.79a32.77,32.77,0,0,1,23,10Zm-23.63,35.68a13.06,13.06,0,0,0,13-13,12.93,12.93,0,0,0-12.22-13h-46.79a13,13,0,0,0,.63,26h45.37Z"/><path d="M1184.61,632.47a34.51,34.51,0,0,1,3.65,15.55v75.66h-19.83V646.12A15.83,15.83,0,0,0,1155,632.63h-58.22V612.81H1153a34.64,34.64,0,0,1,15.55,3.64,35.17,35.17,0,0,1,16,16.18Z"/></g></g></svg>