<svg xmlns="http://www.w3.org/2000/svg" viewBox="0 0 1920 1080"><defs><style>.cls-1{fill:#f2f2f2;}.cls-2{fill:#010101;}</style></defs><g id="Capa_2" data-name="Capa 2"><g id="Capa_1-2" data-name="Capa 1"><path class="cls-1" d="M1526.91,611.11c-.84,14.52-10,23.9-22.4,30.58-3.47,1.88-10.5,3.34-8.23,7.59s7.12-1.13,10.77-2.59c1.53-.62,3-1.37,4.65-2.09-2.27,17.08-39.42,34.58-63.87,29.57v-.06c4.23-3.93,9.47-4.16,13.68-6.31,5.24-2.67,10.82-4.68,16.25-7,2.7-1.15,5.89-2.76,4.41-6-1.16-2.5-4.51-1.45-6.84-.4-8.44,3.81-16.88,7.66-25.24,11.68-1.56.76-4.76,1.44-3.59,3.8a10,10,0,0,1,1.33,4.19l-.06,0h.06c-.12,3-4.95.92-7.15,1.19-3.61.46-7.34-.12-11,.12-8.17.54-16.35,1.42-13.93-11.23.38-2-.55-4-3.25-3.85s-3.28,2.4-2.91,4.27c2.18,11.36-4.77,10.89-12.7,10.76-20.31-.32-40.63-.36-60.92.12-23.33.57-37.58,15.26-38.1,38.53-.22,10.15-.12,20.3-.31,30.45-.15,8.32-3.1,15.34-10.09,20.32a17.81,17.81,0,0,1-12.61,5.73c-11.37.25-22.25-2-32-8.3l-75.94-23.2a789.82,789.82,0,0,0-110.4-19.56c-22.74-.89-45.5-1.9-68.25-2.61L915.4,717c-22.74,1.31-45.47,2.8-68.2,4.22-48.41,6-95.54,17.54-141.9,32.45-15.68,5-31.12,10.84-46.86,15.72-18.52,5.74-34.19-5.43-35.12-24.75-.7-14.32.77-28.73-1.48-43-8.47-19.94-23.94-27.53-45.05-26.69-18.84.75-37.74.06-56.61.59-6.92.2-11-.81-9.35-8.87a10.84,10.84,0,0,0-.12-2.53c-.08-2.18-.74-3.94-3.37-3.8-2.45.12-2.42,2.19-2.18,3.72,1.63,10.58-3.89,12.51-12.84,11.28-4.14-.58-8.49.39-12.64-.17-2.2-.31-11.24,4.64-5.09-5,1-1.53-1.39-2.86-2.88-3.58-8.61-4.11-17.22-8.25-25.92-12.16-2.46-1.1-5.91-2.65-7.47.6-1.65,3.45,1.91,4.9,4.36,6,9.74,4.28,19.57,8.36,29.42,12.53-16.38,7.82-52.47-7.45-62.64-26.68,3.5-1.72,5.65,1.32,8.22,2.28,2.25.83,4.92,3.15,6.38.1,1.31-2.76-1.6-4.49-3.94-5.54-7.31-3.26-13.88-7.49-18.69-14-1.81-2.48-3.29-5.19-4.91-7.8a19.89,19.89,0,0,1-2.93-10q.17-29.77.28-59.57c-.41-27.11-.8-54.22.25-81.31,1-33.12,16.93-57.2,45.64-72.63,18.32-9.84,38-16.78,57.66-23.58A1594.22,1594.22,0,0,1,682.53,323c49.52-10.71,99.41-18.91,150-23.11,32-2.66,64.08-4.56,96.21-4.7l61.84-.13c62.6.8,124.78,5.8,186.56,16.36a1527.35,1527.35,0,0,1,221.25,55.14c23.2,7.64,46.34,15.63,68.91,25.16,28.55,12.06,49.36,30.87,57.33,61.87a50.75,50.75,0,0,1,1.66,17.5c1.93,26.94,1,53.92.61,80.89A540.16,540.16,0,0,1,1526.91,611.11Z"/><path class="cls-2" d="M1706,486.6c-8.72-7.29-17.32-9.19-26.82-8.87-8,.27-14.84,2.15-18.21,9.63-7.48,16.58-20.14,20.73-37.39,19.18-17.59-1.57-14.37.69-14.64-15.34-.11-7.3.17-14.6.28-21.9-.13-8.45-.28-16.91-.37-25.35a88.92,88.92,0,0,0-16.17-51c-12.29-17.75-30.74-26.82-49.39-35.32-59-26.9-120.43-47.24-182.57-65.48-15.89-4.66-31.75-9.48-47.76-13.67-40-10.49-80.33-19.84-121.35-25.86-15.62-2.29-31.63-3.31-46.18-10.51a321.73,321.73,0,0,0-50-19.22c-17.19-5.19-34.79-9.29-52.36-11.2-23.74-2.57-47.89-1.35-71.85-1.89h-9.63c-79.16,0-110.24,6.85-110.24,6.85-29.84,5.55-57.8,16.51-85.35,28.85-10.93,4.89-23.11,4.81-34.75,6.55-56.36,8.36-111.43,22.21-165.95,38.38-61.23,18.16-122.08,37.48-180.5,63.65-11.05,4.95-22,10.15-32.27,16.59-25.76,16.15-39.47,39.38-40.57,69.87-.36,10.12-.58,20.25-.86,30.37,1.44,9.78.25,19.6.4,29.4.05,4.31-2.11,5.95-6.27,5.91-9-.08-18-.06-27,.12a9,9,0,0,1-8.37-4.55c-2-3.06-4.26-5.92-6.34-8.93-12.17-17.6-26.36-20.44-45.12-9-7.59,3.94-7.36,15.55-7.36,15.55v52.82c1,21.47.79,42.93,0,64.39,2,6.4-.05,13.53,4.06,19.61,5.75,8.55,14,10.3,23.55,10.26,35.53-.17,71.08.36,106.6-.36,13-.27,20.61,4,26,16.08,10.54,23.6,22.54,46.55,33.94,69.77,5.52,11.24,5.53,11.24-7,15.29-17.29,8-17.38,8.07-9.12,25C400.68,796,412.59,819.6,424,843.45c3.14,6.6,6.94,8.49,13,4.62,15.3-9.73,29.59-13.39,44.07,2.42,5,5.47,13.35,8.1,20.46,11.43,13.5,6.31,38.45,8,38.45,8,13.94,0,27.49-2,40.54-7q35.43-13.62,70.86-27.18c19-8,38.42-15.06,58.5-20.08,26.25-7.94,53-14.12,79.78-19.79,19.14-4.05,37.93-9.82,57.55-11.42q31.45,2.54,62.9,5.08c20.7,1.72,41.44,2.69,62.22,2.69,4.15-.38,8.29-1,12.45-1.1,10.6-.22,21.51,1.34,31.73-.67,13-2.54,26-2.62,38.9-4.39,18.3-5.14,35.64,1,53.06,4.87,51,11.21,102.12,21.62,151,40.63,9.92,3.86,19.73,8,29.6,12a287,287,0,0,1,33.84,13.26,6.52,6.52,0,0,1,5.08,2c2.36.8,4.71,1.66,7.09,2.4,10.06,3.09,20,8.3,30.24,8.84,33.45,1.76,63.81-6.84,87.89-31.81,17.13-21.28,27.2-46.65,40.44-70.17,2.16-3.87,4.43-7.68,6.65-11.51,15.6-29.89,32.07-59.36,46.43-89.82,7.27-15.43,16.53-21.78,33.67-20.72,24.12,1.47,48.39.63,72.6.77,10.38-.17,20.77-.14,31.13-.57,17.71-.72,24.74-8.09,24.76-25.82q.09-56.13.09-112.25C1708.92,489.6,1706,486.6,1706,486.6Zm-525.91-223c20.56,3.74,41.65,6.86,62.41,11.47A1756,1756,0,0,1,1502,354.11a492.23,492.23,0,0,1,55.87,25.83c15,8.17,25.78,20.05,31.82,36.33-8.92-4.74-20.1-4.35-25.6-16.1-4-8.59-13.39-13.44-22.53-16.88-1.75-.66-4.59-2.41-5.74.58-.86,2.24,1.7,3.19,3.32,4.18,5.9,3.63,12.14,6.81,16.83,12.22-2.32,2.54-3.91.84-5.55.15-42.73-17.9-85.35-36.08-128.92-51.9-5.39-2-8.29-4.15-2.42-9,2.64-2.19,1.2-4.38-1.12-5.12-11.05-3.52-21.85-8.33-33.92-8.86,0,5.18,4,5.06,6.52,6.16,4.6,2,9.47,3.42,14.22,5.08,2.38.83,5.74,1.54,4.56,4.78-1.34,3.61-4.34.92-6.35.23A1405.1,1405.1,0,0,0,1255.82,300c-16.64-3.75-33.19-8-49.65-11.92-.59-3.95,6.81-2.19,4.41-6.66-1.65-3.07-5.28-2.73-8.29-3.17-8.25-1.25-17.24-.79-22-9.88C1179.66,267.12,1178.75,266,1180.12,263.59Zm-425.37-1.08c15.52-2.68,29-10.51,43.32-16.24,42.44-17,86.54-24.18,132.15-22.73,7.89.25,15.79.37,23.68.1l23.3-.11c7-.05,14.1,0,19.28,0,52.61-1.07,100.7,10,146.46,31.7a70.49,70.49,0,0,0,19.16,6.27c10,1.63,12.58,5.87,10.69,16.44-.51,2.88,1.09,3.33,3.25,3.6s4.92,0,6.52,1.11c22.6,16.42,50.09,17.48,75.76,23.93,49,12.32,97.59,25.94,145.44,42.2,7.12,2.42,6,6.94,5.37,11.06-.76,5.05-4.67,1.24-6.54.62-32.85-10.84-66.13-20.21-99.58-28.95-102.31-26.75-206.11-42.94-312.09-42.93-6.18,0-7.93-1.89-7.17-7.58a33.12,33.12,0,0,0,0-8.44c-.78-5.89.61-9.24,7.49-8.06,2,.34,4.92.67,4.77-2.92-.12-3-2.56-3.47-4.83-3.58-7.88-.41-15.78-1.06-23.65-.86l-12.92-.22c-8.17.29-16.34.69-24.5,1-2.57.11-5.58,0-5.47,3.62.12,3.82,3.46,3.36,5.74,2.95,7.84-1.39,8.49,2.66,8.29,9.06-.47,14.76-.18,14.75-15.08,14.79-5.92,0-11.84.14-17.76.26-2.53.06-5.06.21-7.6.33a1130.54,1130.54,0,0,0-177.8,19.47A1634.55,1634.55,0,0,0,515.8,361.26c-1.8.59-4.63,3.37-5-.8s-2-9.18,4.37-11.19c13.9-4.36,27.65-9.21,41.56-13.53a1524.12,1524.12,0,0,1,151.55-39.2c8.13-1.64,15.4-5.33,22.21-9.93,3-2.06,6.16-4.07,9.81-4.71,4.69-.81,10.15.4,5.48-8.07C744.28,271.05,748.72,263.54,754.75,262.51ZM1526.86,552a540.16,540.16,0,0,1,.05,59.14c-.84,14.52-10,23.9-22.4,30.58-3.47,1.88-10.5,3.34-8.23,7.59s7.12-1.13,10.77-2.59c1.53-.62,3-1.37,4.65-2.09-2.27,17.08-39.42,34.58-63.87,29.57-.12,3-4.95.92-7.15,1.19-3.61.46-7.34-.12-11,.12-8.17.54-16.35,1.42-13.93-11.23.38-2-.55-4-3.25-3.85s-3.28,2.4-2.91,4.27c2.18,11.36-4.77,10.89-12.7,10.76-20.31-.32-40.63-.36-60.92.12-23.33.57-37.58,15.26-38.1,38.53-.22,10.15-.12,20.3-.31,30.45-.15,8.32-3.1,15.34-10.09,20.32a17.81,17.81,0,0,1-12.61,5.73c-11.37.25-22.25-2-32-8.3l-75.94-23.2a789.82,789.82,0,0,0-110.4-19.56c-22.74-.89-45.5-1.9-68.25-2.61L915.4,717c-22.74,1.31-45.47,2.8-68.2,4.22-48.41,6-95.54,17.54-141.9,32.45-15.68,5-31.12,10.84-46.86,15.72-18.52,5.74-34.19-5.43-35.12-24.75-.7-14.32.77-28.73-1.48-43-8.47-19.94-23.94-27.53-45.05-26.69-18.84.75-37.74.06-56.61.59-6.92.2-11-.81-9.35-8.87a10.84,10.84,0,0,0-.12-2.53c-.08-2.18-.74-3.94-3.37-3.8-2.45.12-2.42,2.19-2.18,3.72,1.63,10.58-3.89,12.51-12.84,11.28-4.14-.58-8.49.39-12.64-.17-2.2-.31-11.24,4.64-5.09-5,1-1.53-1.39-2.86-2.88-3.58-8.61-4.11-17.22-8.25-25.92-12.16-2.46-1.1-5.91-2.65-7.47.6-1.65,3.45,1.91,4.9,4.36,6,9.74,4.28,19.57,8.36,29.42,12.53-16.38,7.82-52.47-7.45-62.64-26.68,3.5-1.72,5.65,1.32,8.22,2.28,2.25.83,4.92,3.15,6.38.1,1.31-2.76-1.6-4.49-3.94-5.54-7.31-3.26-13.88-7.49-18.69-14-1.81-2.48-3.29-5.19-4.91-7.8a19.89,19.89,0,0,1-2.93-10q.17-29.77.28-59.57c-.41-27.11-.8-54.22.25-81.31,1-33.12,16.93-57.2,45.64-72.63,18.32-9.84,38-16.78,57.66-23.58A1594.22,1594.22,0,0,1,682.53,323c49.52-10.71,99.41-18.91,150-23.11,32-2.66,64.08-4.56,96.21-4.7l61.84-.13c62.6.8,124.78,5.8,186.56,16.36a1527.35,1527.35,0,0,1,221.25,55.14c23.2,7.64,46.34,15.63,68.91,25.16,28.55,12.06,49.36,30.87,57.33,61.87a50.75,50.75,0,0,1,1.66,17.5C1528.18,498,1527.26,525,1526.86,552ZM952.48,263.79c2.49.23,5-.07,7.52,0,17.85.23,17.65.24,17.58,17.61,0,5.28-1.15,7.88-7,7.06-3-.43-6.15-.07-9.23-.07-16.29.06-16,.06-16.41-16.22C944.83,266.19,946.07,263.2,952.48,263.79ZM332.22,411.31c7.61-13.92,18-24.89,32.25-32.41,44.74-23.62,92.36-40,140.2-55.73,61.72-20.28,124-38.6,187.86-51.07,15.94-3.1,32-5.55,49.48-8.56-3.45,7.32-6.74,12.33-14.14,13.15a114.37,114.37,0,0,0-11.68,1.82c-2.27.5-5.51-.06-6.21,3.19s3.14,3.41,5.44,6c-15.1,3.6-29.32,7.11-43.6,10.36a1475.51,1475.51,0,0,0-150.47,42.39c-3.32,1.13-8.64,5.28-10.21.84s5.23-4.24,8.45-5.89c5.82-3,13-3,17.6-9.3-12.51-.22-23.79,4.68-35.24,8.69-2.91,1-2.28,3.41.05,5.17,6.22,4.7,2.31,6.28-2.31,8.13-34.72,13.82-69.37,27.79-104.08,41.63-9,3.58-17.55,8.4-27.17,10.33-1,.19-2-.18-4.91-.51,6.68-4.37,12-7.76,17.22-11.35,1.85-1.27,5.83-2,4-5.05-1.45-2.49-4.83-.73-7,.31-7.9,3.84-16.39,7.94-20.62,15.6-5.85,10.54-15.75,13.54-25.33,17.79C329.88,414.62,331.3,413,332.22,411.31ZM473.93,824.48c-12.61,5.5-25.21,11-37.76,16.62-3.62,1.62-5.33.6-7.05-3q-18-37.17-36.45-74.1c-1.79-3.6-1.39-5.6,2.53-7,3.42-1.22,6.69-2.89,10-4.36q14.7-7.32,29.38-14.65c2.45-1.23,4.62-2.17,6.11,1.36,5.12,12.1,10.35,24.15,15.54,36.22C463,789.78,469.66,804,476.53,818,478.21,821.49,477,823.15,473.93,824.48Zm-23.32-94.2c13.29-7.11,27.72-6.37,43.59-7.16,2.9,0,7.41-.08,11.91,0,14.07.29,24.9,6.07,31.54,18.83,6.78,13,6.39,26-3.34,37-12.84,14.41-25.43,29.36-43.47,38-4.84,2.33-7.07,1.76-9.37-3.48q-16.47-37.41-33.85-74.4C445.33,734.22,446.14,732.67,450.61,730.28ZM1695.38,593c0,9.56-.3,19.12-.46,28.67-.31,10.36-.89,10.79-13.27,10.24a125.39,125.39,0,0,1-25.33.07l-69.12.74c-5.63.06-11.25.31-16.87.16-14.92-.41-24.54,6.62-31.32,19.77-18.64,36.16-37.9,72-57,107.95-1.18,2.23-2.59,4.33-3.89,6.49a415.22,415.22,0,0,1-27.37,51.19c-19.1,30-59.52,45.19-94,35.55-29.51-8.24-57.25-21.37-85.69-32.52-52-20.42-106.54-31.63-160.73-44.06-9.28-2.13-18.84-3-27.8-6.43-24.87-1.1-49.23,4.35-73.92,5.65-17.13.89-34.26,1.84-51.41,1.09-20,1-40-.59-59.85-2.55-11.47-1.12-23.07-1-34.36-3.7-19.76-3.36-38.35,3.17-57.17,7.13-44.14,9.28-87.91,20.11-131.14,33.06l-87,33.78c-38.37,19.29-79.06,12.24-110.92-14.51,11.68-6.21,24.4-10,34.71-18.2,6.36-6.36,12.34-13.16,19.14-19,18.44-15.8,22.85-34.58,13.3-56.78C532.35,719,515,714.54,495.2,716.09c-24.35-1.24-46.63,5.42-67.35,17.85-4.09,2.46-6.21,1.45-8.32-2.93-11.87-24.84-24.81-49.2-35.91-74.38-7.81-17.74-20.19-24.6-39-24.21-33.77.67-67.55.29-101.33.29-18.75,0-19.4-.74-18.18-19.6-.54-19.81-.73-39.63.28-59.44-.12-17.12-.38-34.25-.3-51.37,0-4.4.15-9.83,6.21-10.37s13.09-3.07,17.88,3.57c3.45,4.79,7,9.54,10,14.6,4.21,7.16,10.47,9.68,18.35,9.61s15.75-.14,23.63,0c9.15.19,17.24-1.81,22.76-9.88,2.48-18.83.41-37.75.94-56.62.13-4.79,0-9.6.34-14.37.93-12.89,4-16,19.06-18.54-5.54,10.82-5.37,21.94-5,33.06.09,2.22-1,5.75,3,5.68,3.45-.05,2.68-3.38,2.54-5.24-.9-11.68,5.74-22.74,2.63-34.63-.63-2.4,2.37-2.83,4-3.53,49.15-20.85,98.36-41.49,148.25-60.48,1.7-.65,4.85-2.93,5.2,1,.32,3.56,1.81,8.25-3.46,10.14-6.62,2.37-13.34,4.47-19.9,7-10.22,3.93-20.3,8.28-30.55,12.18-39.45,15-61.54,43-64.5,85.53q0,42.35,0,84.67,0,16.91,0,33.79a31.13,31.13,0,0,1-.24,12.23c-3.33-2.16-4.39-5-5-8.22-1.88-3.71-3.47-7.61-5.73-11.06-1.57-2.4-1.49-8.3-6-5.91-3.8,2-.38,6.1.87,8.89,3.62,8.12,7.64,16.06,11.5,24.07,4.88,2.58,5.24,7.62,6.62,12.11,9,29.34,26.18,50.7,57.21,58.38,8,2,16.22,1.88,24.36,1.54a63.25,63.25,0,0,1,35.38,8.81l13.24,4.49c2.33.77,4.41.91,5.25-2.06-3-5.32-10.84-4.22-14.41-10.81,5.13,0,9.39,0,13.64,0,21.09.13,42.17.24,63.27.44a24.4,24.4,0,0,1,17.44,7c13.61,10,12.54,24.74,12.55,39,0,3.93-2.92,2.43-4.87,1.63-6.25-2.52-12.43-5.2-18.66-7.76-2.09-.87-5-1.91-6.14.2-1.56,2.93,1.46,4.47,3.71,5.55,6.58,3.16,13.11,6.46,19.9,9.09,4.34,1.68,6.13,4.25,6.1,8.75,0,9.68,4,17.62,10.85,24.27a54.16,54.16,0,0,0,16.77,7.58c11.69,1.24,22-3.66,32.47-7.55,4.54-1.68,7.33-1.3,11.3,1.68,7.88,5.9,16.8,10.31,27,10.6,2.42.06,6.34,1.8,6.93-2.29s-3.55-3.66-6-4.06c-8.67-1.43-16.4-5-24.76-9.37,5.78-4.15,12-4.91,17.65-6.8,44.33-14.71,89.55-25.57,135.93-31.36a25.3,25.3,0,0,1,3.37,0c27.71-3.48,55.58-4.55,83.46-5.28l61.4.18c21.52,1.06,43.11.81,64.54,3.58,50.75,3.78,99.83,15.63,148.22,30.76,7.22,2.25,14.4,4.64,21.58,7,.49.16.84.72,1.85,1.61-7.28,4.93-15.08,7.47-23.22,9.29-2.86.64-7.51.07-7.2,4.06.43,5.29,5.42,2.57,8.22,2.55,9.69-.07,18.15-4.32,25.37-10.19,4.23-3.46,7.57-3.86,12.12-1.76,3.31,1.51,6.95,2.29,10.28,3.73,18.08,7.83,32.85,3.18,45-11.68,1.24-3.13,3.67-6.33,3.51-9.39-.7-12.83,7.69-17.36,17.63-21a55.64,55.64,0,0,0,7.63-3.56c2.53-1.38,7.36-2.13,5.51-5.87-1.53-3.11-5.57-.66-8.34.43-5.48,2.16-10.84,4.66-16.35,6.74-1.77.67-4.08,2.29-5-1.66-3.58-14.53,3.16-33.63,15-41.34,3.58-2.32,7.35-4.27,11.73-4.36q38.05-.71,76.11-1.32a3.2,3.2,0,0,1,3.39,2.11c-1.54,3.45-5.36,3.58-8.16,5.25-2,1.21-6,1.58-4.82,4.68,1.3,3.39,5,1.46,7.35.65a106.53,106.53,0,0,0,14.76-6.14c9.85-5.1,20.27-6,31.12-6,42.09.23,67.56-18.26,80.67-58.19,4.32-13.17,13.62-23.9,18.14-36.94,1.2-3.42,5.63-8.33,1.61-10.32s-5.18,4.44-7,7.51c-3.51,5.8-5,12.77-9.66,18.62V528.56a253.07,253.07,0,0,1,0-33.84c-1-16.51.68-33.22-4.79-49.37-8.5-25.09-24.45-43.49-48.41-54.65-19.36-9-39.12-17.19-59.59-23.32-8.07-2.42-4.94-7.85-6.11-14.14,13.34,5.19,25.37,9.68,37.24,14.52q58.11,23.73,116.12,47.7c2.57,1.05,6.68,1.87,3,6.28-1.17,1.38-.9,3.19-.29,4.85,3.05,8.34,3.33,17.05,3.76,25.78.13,2.44-.53,6.67,3.33,6.65,4,0,2.89-4.06,3-6.63.63-10.69-.42-21.2-4.7-31.49,15,1.77,18.29,5,18.41,18.83.13,14.94-.18,29.87-.3,44.81.24,6.19.16,12.39.79,18.54,1,9.63,5.86,15,15.42,16,12.61,1.36,25.3.84,38-.08,4.59-.34,7.86-2.92,10.42-6.44,3.13-4.33,6.14-8.76,9.12-13.2,5.28-7.93,11.72-10.12,20.79-7.46,5.78,1.71,5.76,6.07,5.76,10.7C1695.36,532.77,1695.43,562.91,1695.38,593Zm-220.05,61.4c-8.44,3.81-16.88,7.66-25.24,11.68-1.56.76-4.76,1.44-3.59,3.8a10,10,0,0,1,1.33,4.19c4.23-3.93,9.47-4.16,13.68-6.31,5.24-2.67,10.82-4.68,16.25-7,2.7-1.15,5.89-2.76,4.41-6C1481,652.34,1477.66,653.39,1475.33,654.44Zm6.84.4c-1.16-2.5-4.51-1.45-6.84-.4-8.44,3.81-16.88,7.66-25.24,11.68-1.56.76-4.76,1.44-3.59,3.8a10,10,0,0,1,1.33,4.19c4.23-3.93,9.47-4.16,13.68-6.31,5.24-2.67,10.82-4.68,16.25-7C1480.46,659.67,1483.65,658.06,1482.17,654.84Z"/><path class="cls-2" d="M1458.41,579.58c17.45-.05,31.28,13.83,31.62,31.73.31,16.3-15.49,32-32,31.87-17.23-.15-31.1-14.37-31.4-32.2C1426.29,593.76,1440.63,579.62,1458.41,579.58Zm-.75,6.56c-12.84.13-24.47,12.17-24.47,25.33,0,13,12.7,25,26,24.62,12.87-.42,24.21-12.1,24-24.73C1483,597.86,1471,586,1457.66,586.14Z"/><path class="cls-2" d="M1468.08,476.25c6.35,5.62,12.18,11.53,14,20.33,3.32,16.05-3.85,30.44-18.4,36.59-13.6,5.76-30,1-38.12-11-8.79-13-7.3-29.29,3.72-40.88,1-1,1.87-2.06,2.8-3.1C1443.66,470,1455.77,471.33,1468.08,476.25Zm-16.62,3c-13.26-.35-24.81,11.46-24.92,25.48-.09,12.11,11.46,23.67,23.91,23.92,13.48.28,25.51-10.78,25.83-23.74A25.27,25.27,0,0,0,1451.46,479.23Z"/><path class="cls-2" d="M486.17,476.39c20.35,15.78,16.72,40.38,3.76,51.16s-32.68,10.56-43.64-1.34c-11.45-12.44-11.38-32.61.2-44.53,1.56-1.6,3.29-3,4.95-4.54C462.88,470.65,474.48,471.24,486.17,476.39Zm7.6,28.49A25,25,0,0,0,470,479.22c-13.42-.57-25,10.18-25.62,23.81-.62,13.34,10.47,25.23,23.87,25.58C482.28,529,493.26,518.76,493.77,504.88Z"/><path class="cls-2" d="M640.37,744.83a193.25,193.25,0,0,1,28.61,12c1.93,1,3.1,2.69,2,4.84-.95,1.92-2.78,1.29-4.44.85-10.39-2.79-19.53-8.43-29.18-12.9-1.37-.63-3.09-2-2.36-3.91C635.84,743.7,637.88,744.57,640.37,744.83Z"/><path class="cls-2" d="M1278.85,752.09c-6.33,2.85-12.71,5.61-19,8.58-3.65,1.73-7.24,3-11.24,1.36-.05-2,.33-4.07,2.35-4.94q14.91-6.39,29.91-12.58c1.61-.66,3.47-.86,4.3,1.07s-.79,3.1-2.08,4.07A37.91,37.91,0,0,1,1278.85,752.09Z"/><path class="cls-2" d="M505.06,407.84c0-5,0-10.11,0-15.16,0-1.67-.08-3.7,2.11-4,2.48-.29,3.58,1.58,3.6,3.69q.14,16,0,32c0,2-.71,4.2-3.29,4s-2.48-2.75-2.53-4.58c-.14-5.32-.05-10.66-.05-16Z"/><path class="cls-2" d="M1410.22,552c4.76-3.32,4.86.94,5.93,3.63-.09,9.54-.11,19.07-.33,28.6,0,2.55.84,6.58-3.17,6.43-3.66-.14-3.24-4.07-3.21-6.73C1409.59,573.31,1410,562.67,1410.22,552Z"/><path class="cls-2" d="M1415.86,627.41c0,4.76,0,9.52,0,14.28,0,2-.21,4.17-2.78,4.28a3.21,3.21,0,0,1-3.34-3.18c-.07-11.19,0-22.38.16-33.56a2.48,2.48,0,0,1,2.62-2.65c2.54.08,3.25,2,3.29,4,.09,5.6,0,11.2,0,16.8Z"/><path class="cls-2" d="M1416.28,474.38c-.13,1.38-.3,2.76-.37,4.15-.1,2.22.2,4.86-3.06,4.79-2.95-.07-3.32-2.41-3.4-4.81-.07-1.94-.29-3.87-.45-5.81.18-7.87.29-15.75.57-23.62.08-2.1-.23-5,3.08-5,3.11,0,3.21,2.66,3.25,4.93C1416.07,457.49,1416.16,465.94,1416.28,474.38Z"/><path class="cls-2" d="M1415.84,409c0,5.06,0,10.11,0,15.17,0,2-.11,4.19-2.84,4.27a3.06,3.06,0,0,1-3.19-3.24q-.18-16.83,0-33.66a2.9,2.9,0,0,1,3.25-3.07c1.86.26,2.77,1.87,2.79,3.68C1415.88,397.81,1415.83,403.42,1415.84,409Z"/><path class="cls-2" d="M511.7,472.78c-.19.51-.4,1-.58,1.52-1,3,1.67,8.55-3.27,8.7-5.18.15-1.33-6-3.62-8.49.32-8.62.58-17.23,1-25.84.09-1.65-1-4.34,2-4.55s3.52,2.24,3.61,4.53C511.21,456.69,511.43,464.74,511.7,472.78Z"/><path class="cls-2" d="M430.64,614.85c-.12-12.85,3.75-23.78,15.29-30.76a31.43,31.43,0,0,1,47.72,25.73c.12,2.8.09,5.6.13,8.41-6.17,16.1-17.81,24.95-32.3,24.52C445.54,642.29,436.38,634,430.64,614.85Zm56.4-3.63c0-13.31-11.33-25-24.52-25.13s-24.82,11.52-24.92,24.78c-.1,13.67,11.48,25,25.5,25C476,635.86,487,624.49,487,611.22Z"/><path class="cls-2" d="M504.13,621.72c.35-3.53.63-7.08,1.09-10.6.22-1.69-.81-4.26,2.1-4.54s3.42,2.1,3.65,4.38q.3,2.85.58,5.69c-.31,8.37-.59,16.74-1,25.11-.08,1.81.42,4.45-2.55,4.3-2.35-.11-3-2.16-3.07-4.28Q504.55,631.76,504.13,621.72Z"/><path class="cls-2" d="M510.71,552.28c.06,11,.21,22,.11,33,0,2.31.19,5.86-3.48,5.54-3-.25-2.34-3.48-2.37-5.53-.14-10.42-.08-20.84-.09-31.26C506,550.52,507.94,550,510.71,552.28Z"/><path class="cls-2" d="M505.35,517.3c0-5.33,0-10.67,0-16,0-1.76.35-3.72,2.44-3.72,1.9,0,2.78,1.75,2.79,3.58q.06,16.41,0,32.83c0,1.27,0,2.94-2,3-2.6.13-3.42-1.57-3.45-3.73-.07-5.33,0-10.66,0-16Z"/><path class="cls-2" d="M1415.8,518.24c0,4.77,0,9.54,0,14.3,0,2,0,4.2-2.66,4.45s-3.37-1.81-3.38-3.84c0-10.65,0-21.3.16-31.95,0-1.5.5-3.62,2.8-3.44,2.07.16,2.73,2.11,2.78,3.67.2,5.6.08,11.21.08,16.81Z"/><path class="cls-2" d="M1440.26,761.84c-2.82,5.44-5.87,10.78-8.41,16.35-3.2,7-7.95,7.55-14.35,4.6-7.58-3.49-10.66-10.27-13.53-17.32,1.29-19.81,15.73-30.71,31.73-24,9.84,4.15,10.58,6.29,5.79,16.34A28.1,28.1,0,0,0,1440.26,761.84Zm-29.17-1.37a19.38,19.38,0,0,0,8.86,15.86c2.48,1.71,4.09,1.22,5.37-1.3,3.7-7.24,7.43-14.47,11.07-21.74,1.2-2.39.61-3.89-2-5.29C1425.2,743.17,1412.13,749.77,1411.09,760.47Z"/><path class="cls-2" d="M1558.6,551.43c4.08-7.68,8.08-15.4,12.29-23,.7-1.28,1.78-3.36,3.81-2.32,1.78.92,1.49,2.9.89,4.53-2.5,6.85-5.09,13.67-7.65,20.5-1.6,2.94-3.09,5.93-4.82,8.79-1.43,2.37-2.85,5.28-6.5,3s-1.51-4.46.18-6.81C1557.74,554.78,1558,553,1558.6,551.43Z"/><path class="cls-2" d="M1382.63,698.08c1.49,3.24.09,4.8-1.19,5.44-9.8,4.86-19.7,9.51-29.61,14.15-1.24.58-3,.93-3.65-.68a3.91,3.91,0,0,1,1.79-5.12A195.46,195.46,0,0,1,1382.63,698.08Z"/><path class="cls-2" d="M1178.2,781.45c-9.39-2.49-18.84-5-28.25-7.53-2.29-.63-4.51-2.42-4.08-4.7.68-3.64,4.17-2.3,6.25-1.84,9.27,2.06,18.46,4.47,27.64,6.91,2.3.61,5.8.94,5.43,4.16C1184.7,782.75,1180.67,780,1178.2,781.45Z"/><path class="cls-2" d="M1068.94,758.79l-23.25-3.36c-2.33-.33-5.68.7-5.66-3.17,0-4.43,3.67-3.43,6.27-3.31,7,.34,14,.9,21,1.37.74.33,1.46.7,2.21,1,3.17,1.22,9.23-.88,8.46,5C1077.27,761.4,1071.82,757.18,1068.94,758.79Z"/><path class="cls-2" d="M1100.11,755.93c8,1.63,17.53,3.56,27.08,5.55,2.24.47,4.65,1.25,4.26,4.18-.49,3.76-3.58,3-5.89,2.54-9.56-1.89-19.06-4-28.6-6-2.32-.47-4.84-.75-3.92-3.91C1093.77,755.8,1096.09,755.31,1100.11,755.93Z"/><path class="cls-2" d="M825.74,271.31h-5.07c-2,0-4.08,0-4.07-2.86,0-2.31,1-3.6,3.49-3.83,10.91-1,21.82-2.14,32.74-3.13,1.89-.17,4.3-.39,4.29,2.56,0,2.3-1.68,3.49-3.82,3.8-9.15,1.37-18.32,2.66-27.49,4Z"/><path class="cls-2" d="M791.74,268a21.35,21.35,0,0,1,2.53,0c3.1.36,8-1.54,8.24,3.22.21,5.11-4.86,3.07-7.82,3.43-8.65,1.06-17.32,1.94-26,2.89-2.5.27-5.35,1.06-6-2.58-.74-3.9,2.29-3.74,4.78-4.08l24.22-3.32Z"/><path class="cls-2" d="M891.49,259.63c3-.25,8.26-.63,13.55-1.19,2-.22,4.16-.76,4.76,1.87s-1,3.87-3.61,4.48c-10.83,2.53-21.8,1.12-32.7,1.5-2.31.08-2.68-1.43-2.6-3.33.1-2.58,1.79-3.28,3.93-3.31C879.59,259.6,884.36,259.63,891.49,259.63Z"/><path class="cls-2" d="M1070,262.22c10,.79,20.11,1.6,30.17,2.36,2.12.16,4,.55,4.12,3.13.09,3.15-2.29,3.47-4.62,3.55-10.43.35-20.68-1.16-30.9-3.07-2.22-.42-5-.57-4.26-3.74C1065.11,261.88,1067.67,261.64,1070,262.22Z"/><path class="cls-2" d="M1128.05,267.76c8.35,1.09,16.7,2.15,25,3.3,2.41.33,5.86.25,5.08,3.9-.63,2.93-3.71,3-6.33,2.63-9.19-1.12-18.29-3-27.63-2.92-2.37,0-5.78.68-5.84-3-.07-4.13,3.53-3.48,6.26-3.59,1.13-.05,2.25,0,3.38,0Z"/><path class="cls-2" d="M1029.15,259.92c5.61,0,11.22-.1,16.82,0,2.1.06,3.84,1.09,3.89,3.55.05,2.89-2.07,2.87-4.09,2.83-10.35-.22-20.75.61-31-1.57-2.23-.47-5-.5-4.52-3.59s3.35-2.47,5.49-2.39c4.48.18,9,.58,13.42.88Z"/><path class="cls-2" d="M1575.06,476.11c.92-1.78,1.9-3.76,4.32-3.11,4,1.05,1.81,4.71,2.75,7.08-.15,9-.29,17.91-.47,26.86-.05,2.49.14,5.72-3.16,5.86-3.53.15-3.28-3.23-3.31-5.63C1575.06,496.82,1575.09,486.46,1575.06,476.11Z"/><path class="cls-2" d="M354.05,553.45c-2.69-7-5.52-13.92-8-21-.66-1.91-1.2-4.88,1.6-5.64,2.25-.61,3,1.94,3.84,3.63,4.14,8.46,8.22,17,12.32,25.44.33,2.8,2.63,6.49-1.59,7.72-3.28,1-4.27-2.78-5.67-5A47.43,47.43,0,0,1,354.05,553.45Z"/><path class="cls-2" d="M338.92,509.68c.09-10.63.15-21.27.28-31.9,0-1.85-.56-4.13,2.19-4.75s3.26,1.55,4.25,3.17a27.8,27.8,0,0,0,.28,11.7q0,7.68-.11,15.35a5.12,5.12,0,0,0-.25,4.82l-.39,2.18C342.66,514.74,340.64,513.81,338.92,509.68Z"/><path class="cls-2" d="M880.57,749.23c1.1,3.85.83,6.08-4.34,6.38-7.47.44-15.08.54-22.36,2.82-.55,0-1.1,0-1.64-.14-3.36-.59-9,3.11-9.53-2.46-.45-5,5.18-5,9.27-5.28s8.2-.89,12.29-1.36l16.13-.13Z"/><path class="cls-2" d="M742.53,781.12c-3.83,0-6.09.64-6.87-1.9-1-3.15,1.53-3.81,3.7-4.37,10-2.59,20.08-5.21,30.18-7.55,1.9-.45,4.9-1.58,5.82,1.28.86,2.66-1.71,4.18-3.78,4.76C761.34,776.24,751,778.87,742.53,781.12Z"/><path class="cls-2" d="M823.33,755.69c1.53-.18,3.68.11,3.94,3.18.22,2.65-1.68,3-3.75,3.43-9.84,2-19.66,4.09-29.5,6.12-2,.42-4.11.48-4.42-2.29-.26-2.36.16-4.5,3.11-5C802.61,759.37,812.51,757.61,823.33,755.69Z"/><path class="cls-2" d="M1490,359.5c9.73,4.31,20.65,7,30.4,12.62,1.88,1.08,2.94,2.91,2,4.95-.86,1.84-3,1.57-4.47,1-9.82-3.93-19.62-7.91-29.32-12.14-1.56-.68-3.33-2.39-2.65-4.68C1486.44,359.67,1488,359.57,1490,359.5Z"/><path class="cls-2" d="M1361.7,324.18a213.37,213.37,0,0,0-29-9c-1.69-.37-1.78-2.06-1.66-3.41a2.7,2.7,0,0,1,3.56-2.54,180.86,180.86,0,0,1,31.33,9.18c1.72.71,3.15,1.88,2.6,3.72C1367.57,325.21,1364.7,323.06,1361.7,324.18Z"/><path class="cls-2" d="M1472.78,354.59c-1.24,2.89-3.37,3.48-5.61,2.68-9.72-3.48-19.38-7.1-29-10.77-1.54-.58-3.28-1.61-3.2-3.5s1.8-2.11,3.18-1.76c11.12,2.79,22.22,5.64,32.33,11.29A14.3,14.3,0,0,1,1472.78,354.59Z"/><path class="cls-2" d="M1282.92,295.78l29.92,7.6c2,.51,4.08,1.39,3.33,3.81-.6,1.93-2.57,2.71-4.73,2.15-10.22-2.66-20.77-4.1-30.58-8.16-1.27-.52-3.78-.52-3.51-2.82C1277.67,295.62,1280.18,296.34,1282.92,295.78Z"/><path class="cls-2" d="M1231,284.71c10.14,1.87,20.67,3.3,30.78,6.7,1.53.51,3.53,1,2.94,3.24-.52,1.89-2.37,2.35-4.12,2-10.11-2.06-20.13-4.52-30.45-5.48a4.07,4.07,0,0,1-3.6-4.88C1227,283.85,1229.25,285.19,1231,284.71Z"/><path class="cls-2" d="M589.68,312.18c-1.93,1.41-3.86,3.69-6.27,4.45-8.77,2.78-17.72,5-26.55,7.55-2.11.62-4.05.88-5.14-1.17-1.3-2.43.81-3.58,2.55-4.4,10-4.63,20.62-7,31.19-9.67C587.27,308.49,589.52,308.78,589.68,312.18Z"/><path class="cls-2" d="M402.31,378.53c-1.32-.8-2.7-1.14-3-1.91-.92-2.26.75-4,2.38-4.82,5.51-2.72,11.17-5.13,16.84-7.51,3.87-1.63,7.82-3.06,11.77-4.47,1.29-.47,3.1-.94,3.76.54s.54,3.74-1.14,4.52C422.76,369.55,412.52,374,402.31,378.53Z"/><path class="cls-2" d="M487,344.08c-11.28,6.47-23.39,9.4-35.19,13a3.41,3.41,0,0,1-2.86-1c-1-1.14.29-2.26,1.07-2.68,10.8-5.89,21.9-11,34.45-11.65C485,341.78,485.62,342.83,487,344.08Z"/><path class="cls-2" d="M607.59,309.68c-1.85-.06-3.53,1-3.87-1.24a4.06,4.06,0,0,1,3.32-5c8.41-2.16,16.75-4.69,25.28-6.2,3.06-.54,8-4.75,9.57.07,2,6-5,5-7.95,5.89C625.14,305.94,616,307.68,607.59,309.68Z"/><path class="cls-2" d="M687.81,284.66c3.8.13,6.16-.61,5.93,1.82-.2,2.21,0,5.57-3.8,5.43-10-.37-19.33,2.75-28.86,4.91-2.41.55-4.91.28-5.39-2.44-.43-2.42,2.14-3.17,3.95-3.58C669.73,288.49,679.86,286.38,687.81,284.66Z"/><path class="cls-2" d="M912.58,753.61c-5.5,0-8.58,0-11.66,0-2.16,0-4.09-.61-4.27-3s1.73-3.36,3.85-3.48c10.34-.58,20.69-1.09,31-1.61,2.16-.11,3.89.35,4,3,.18,3.35-2.17,3.32-4.47,3.5C924.13,752.61,917.16,753.22,912.58,753.61Z"/><path class="cls-2" d="M960.64,745c.54.09,1.08.17,1.62.29,2.81.64,7.48-2.05,7.73,3.29.28,5.74-5,2.22-7.42,3.7a8.29,8.29,0,0,1-1.67-.21c-3.39-1.19-9.58,2.28-10-2.55C950.37,743.35,957.33,746.72,960.64,745Z"/><path class="cls-2" d="M492.8,739.81c11.94.08,21.15,7.43,22.82,17.4,1.92,11.48-4.48,22.92-14.87,26.36-4.32,1.43-8.19,1.48-10.64-3.51-4.21-8.55-8.78-16.93-13-25.48-2.19-4.43-1-8.2,3.19-10.91S488.84,739.38,492.8,739.81Zm1.11,7c-9.93-.14-11.48,2.28-7.33,10.84,2.69,5.57,5.81,10.93,8.31,16.58,1.92,4.34,4.2,3.67,7.13,1.37,5.91-4.62,8.53-10.69,6.44-17.87S501.15,746.57,493.91,746.79Z"/><path class="cls-2" d="M1010.9,753.59c-6.36-.46-13.64-1.07-20.94-1.48-2.46-.14-4.66-.32-4.48-3.48.14-2.52,2-3.19,4.16-3.09,10.39.48,20.78,1,31.17,1.49,2,.09,3.21,1.1,3.18,3,0,1.76-.86,3.4-2.88,3.5C1018,753.71,1014.93,753.59,1010.9,753.59Z"/><path class="cls-2" d="M538.31,698.12l10.2,3.29c6.82,3.12,13.68,6.16,20.45,9.41,2.27,1.09,5,3,3.55,5.75-1.61,3.13-4.36,1-6.55-.05-7.87-3.62-15.78-7.16-23.53-11C539.66,704.11,535.6,702.84,538.31,698.12Z"/><rect class="cls-1" width="1" height="1"/><rect class="cls-1" x="1919" y="1079" width="1" height="1"/><rect class="cls-1" y="1079" width="1" height="1"/><rect class="cls-1" x="1919" width="1" height="1"/></g><g id="Capa_3" data-name="Capa 3"><path d="M835,468.45v111H815.19V508.74l-19.51,14.91L779.5,536.18l-16.18-12.53-19.51-14.91v70.74H724v-111l19.83,15.23,35.69,27.44,35.69-27.44Z"/><path d="M888.94,505.41v75.5H869.11V503.34a15.81,15.81,0,0,0-13.48-13.48h-4.44V470.19h4.28v.16A35.55,35.55,0,0,1,869,474a35.17,35.17,0,0,1,16,16.18,42.55,42.55,0,0,1,2.7,7.45,33.53,33.53,0,0,1,1,8.09Z"/><path d="M942.54,505.41v75.5H922.72V503.34a15.83,15.83,0,0,0-13.48-13.48h-4.45V470.19h4.29v.16A35.55,35.55,0,0,1,922.56,474a35.17,35.17,0,0,1,16,16.18,42.55,42.55,0,0,1,2.7,7.45,33.53,33.53,0,0,1,1,8.09Z"/><path d="M1059.6,523.49A32.75,32.75,0,0,1,1036.13,579H990.6a32.55,32.55,0,0,1-30.13-20,34.31,34.31,0,0,1-2.54-12.85V500.65a32.09,32.09,0,0,1,8.25-21.41,33.32,33.32,0,0,1,9.51-7.46,31.42,31.42,0,0,1,14.91-3.65h69V488h-69a13.07,13.07,0,0,0-13,13v15.54A32.44,32.44,0,0,1,990,514h46.79a32.81,32.81,0,0,1,23,10ZM1036,559.18a13.07,13.07,0,0,0,13-13,12.9,12.9,0,0,0-12.21-13H990a13,13,0,0,0,.63,26H1036Z"/><path d="M1187,524.12a32.76,32.76,0,0,1-23.47,55.52H1118a32.57,32.57,0,0,1-30.13-20,34.22,34.22,0,0,1-2.54-12.84,32.67,32.67,0,0,1,9.2-22.85,30.81,30.81,0,0,1-6.82-10,34.26,34.26,0,0,1-2.54-12.84,32.67,32.67,0,0,1,9.2-22.85,30.85,30.85,0,0,1,22.84-10h46.48a32.88,32.88,0,0,1,23,55.67Zm-24.27-9.67a12.94,12.94,0,0,0,.48-25.86h-46.79a12.94,12.94,0,0,0,.32,25.86h46Zm.16,45.52a13.07,13.07,0,0,0,13-13,12.92,12.92,0,0,0-12.21-13h-46.48A12.88,12.88,0,0,0,1105,546.81a13.06,13.06,0,0,0,13,13h45.53Z"/></g></g></svg>