<svg xmlns="http://www.w3.org/2000/svg" viewBox="0 0 1920 1080"><defs><style>.cls-1{fill:#020202;}.cls-2{fill:#f2f2f2;}</style></defs><g id="Capa_2" data-name="Capa 2"><g id="Capa_1-2" data-name="Capa 1"><path class="cls-1" d="M1684.25,486.34a43.11,43.11,0,0,0-10.33-1.28c-11-.23-22.08-.65-33.08-.15-8.54.39-11.15-3.3-11.09-11.23.2-19.44-.37-38.88-.09-58.31.53-36.55-16.86-61.12-49.94-75C1500,307,1418,280.69,1334.16,260c-6.44-1.59-12.59-2.21-17.81,3.14-2.83,2.88-6.32,2.22-9.82,1.55-31.27-6.08-62.52-12.28-93.85-18-5.53-1-9.81-2.27-12.17-7.95-1.66-4-5.45-5.88-9.74-6.41-30.49-3.81-60.89-8.25-91.54-10.73-44-3.55-88-6.44-132.12-5.62l-18.78.58c-50.42,0-127.16,4.74-127.16,4.74Q803,223,784.77,224.82c-17.79,2.42-35.56,5-53.37,7.17-5.88.72-10.81,2.34-13.23,8.15-1.81,4.34-5.19,5.4-9.51,6.2-32.17,6-64.27,12.24-96.39,18.41-2.82.54-6,1.9-8.2-.69-5.46-6.38-12.06-5.69-19.1-3.91-78.68,19.79-156,43.64-231.11,74.65-11.76,4.85-23.66,9.22-34.24,16.67-21.42,15.1-29.18,36.66-29.72,61.58-.43,19.7,0,39.43-.26,59.14-.15,11.61-1.14,12.39-12.46,12.58-11,.19-22,.15-33.05.39-6.42.14-12.54,1.63-17.52,5.12-4.86,4.78-6.25,15.58-6.25,15.58V564.5c1,10.32-.63,20.74,1.46,31,2.82,14,8.69,18.88,23.29,18.76,13.86-.13,27.71-.08,41.56-.54,6.69-.23,9.81,1.36,5.88,8.14-5.78,10-2,21-3.85,31.36,1.12,17.93-.36,35.91,1.36,53.84a48.67,48.67,0,0,0,2.43,10.69c9.66,17.66,25.17,24.44,44.63,24.24,16.8-.19,33.62,0,50.44-.07,4.13,0,8.18.31,11.61,2.78s6,6.16,6,10.14-4.91,3.21-7.6,4.17c-16.94,6.06-17.2,6-11.27,22.82,8.37,23.67,17,47.24,25.77,70.77,2.52,6.76,7.21,3.69,7.21,3.69,6.64-2.49,13.13-5.76,20-7.22,5.86-1.25,8,5.15,13.27,9,4.38,3.15,14.76,5.6,14.76,5.6a51.16,51.16,0,0,0,6.07,0l123.38.37c9.84-.65,20.46,1.45,27.12-9.18,1.63-2.6,5.42-1.33,8.23-1.34,22-.06,44,0,66-.06,5.87,0,11.34-.4,14.74,6.22,1.72,3.35,6,4,10,4.16,7.88.27,15.52-1.08,23.12-2.87,32.35-7.57,64.93-13.76,98.11-16.38,24.19-4.31,48.69-5.21,73.13-6.63,11.23-.65,22.52-.3,33.77-.84l19.22-.23c11.82.77,23.72.3,35.52,1.07,18.14,1.2,36.36,1.5,54.27,4.95,35.84,2.49,71.1,8.63,106.13,16.39,9.84,2.18,19.63,4.91,29.91,4.46,4.68-.21,9.11-1.43,11.26-5.35,2.63-4.77,6.24-5.09,10.79-5.07q35.19.19,70.39,0c4.24,0,7.73.34,10.33,4.57,3,4.91,8.49,5.74,13.8,5.74,43.74,0,87.48.1,131.22-.14,5.4,0,10.79-1.73,16.19-2.67,13.18-5.88,21.62-15.85,26.35-29.45q12.82-36.8,26.25-73.39c5.76-15.71,6.61-16.12,23.2-16.2s33,.26,49.54-.11c28.51-.64,45-17.63,45.16-46.11q.15-22.12.35-44.25c-.17-5.76-.43-11.51-.45-17.27a21.84,21.84,0,0,0-3.47-12.28c-3.45-5.27-3-8.37,4.55-8.15,13,.37,26,0,39,.29,19.6.39,27.16-6.4,28.45-26.26.44-6.62.5-13.27.73-19.9V508.88C1699.64,487.51,1684.25,486.34,1684.25,486.34ZM961.34,238.81c.45-6.06.32-10.1,8.65-9.91,47.28,1.13,94.5,2.91,141.55,7.85,22.17,2.31,44.3,5.1,66.46,7.6,5.92.67,11.25,1.7,14,8.14,1.51,3.5,4.87,5.28,9,6,36.1,6.76,72.15,13.77,108.24,20.54,5.46,1,11,1.22,15.15-3.87,2.45-3,5.75-2,8.86-1.2,81.54,20.28,161.35,45.83,238.85,78.4,14.3,6,27.64,13.55,35.86,27.58a33.25,33.25,0,0,1,2,3.84c.17.41-.16,1-.42,2.4-14.91-6.41-29.59-12.81-44.34-19.05a1531,1531,0,0,0-324.69-96.33c-89.48-16.19-179.69-25.11-270.7-25C964.64,245.88,960.82,246.08,961.34,238.81Zm340.15,527.74c0,6.09.06,12.18-.27,18.26-1.16,20.88-9,28.65-29.79,28.73-32.18.13-64.37-.13-96.57-.22l-114.95-.06c-31,.16-61.89.16-92.85.57l-15.25,0c-35.95-.27-71.89-.4-107.82-.58-31.27.15-62.54.38-93.81.42q-52.12.09-104.26-.1c-7.32,0-14.47-.78-19.73-6.83-5.55-4.13-7.48-10.22-7.68-16.55-.74-25.3-1.37-50.62.32-75.91-.27-5.17-1-10.39-.74-15.53,1.28-22.26-8.8-37.5-37.13-37.94-3.46-.05-6.91-.26-10.37-.4-10.39,1.33-20.78.59-31.15-.16a21.89,21.89,0,0,1-12.56-5.48q-49.72-42-99.31-84.08c-15.49-15.79-35.07-17.11-55.51-16.19-10.41.47-20.89,0-31.31-.41-10.59-.44-20.35-8.4-20.48-18.87-.41-33.88-3.17-67.9,1.32-101.6,2.86-21.49,15.71-37.18,36-45.57,99.9-41.29,202.35-74.58,308.69-94.58,101.89-19.16,204.83-29.06,308.59-27.71,60.29.79,120.35,5.31,180.32,12.52C1294,295,1426.69,333.92,1556.07,385.55c28.55,11.4,43,32.28,43.73,62.53.6,26.09.38,52.2,0,78.29-.26,21-7.48,27.75-28.69,28.11-12.77.2-25.53.41-38.3.1-13.66-.33-25.69,3.28-36,12.49-3.21,2.88-6.85,5.29-10.29,7.9-31,27.8-63.38,54-95.45,80.53a20.25,20.25,0,0,1-11.85,4.8,343.26,343.26,0,0,1-44.21.17c-2.57.4-5.16.74-7.72,1.22-15.77,2.92-25.39,13.26-25.68,29.24C1301.22,716.13,1301.54,741.34,1301.49,766.55Zm-971.88-405c17.54-11,37.26-17.21,56.33-24.69,65-25.49,131.72-45.67,199.44-62.6,3.78-1,7.46-1.47,10.52,1.76,3.83,4.06,8.5,4.25,13.62,3.25q54-10.5,108.13-20.8c4-.74,8-1.95,9.36-5.46,2.93-7.44,9.13-7.65,15.36-8.56,69-10,138.35-14,207.94-15.45,4.88-.1,8.18.31,7.08,6.28-.8,4.34,3,10.78-6.51,10.67-53.71-.63-107.21,3.08-160.57,8.76-48.94,5.21-97.49,13-145.72,22.82a1538.08,1538.08,0,0,0-292,90.29c-14.1,6-28.08,12.21-44.15,19.21A50.7,50.7,0,0,1,329.61,361.52Zm91.05,486.6c-3.21,1.29-3.7-2-4.42-4q-12.53-34.67-24.78-69.43c-.69-2-3.27-4.88,1-6.31,2.51.55,3,2.67,3.68,4.52q12.5,34.65,24.89,69.32C421.69,844.2,424,846.79,420.66,848.12ZM433.17,844c-3.54,1.18-4.43-1-5.41-3.72q-12.37-34.63-25-69.18c-1.44-3.93-1.9-6.76,3.29-7.51,2.66.13,3.8,1.74,4.66,4.22q12.24,35.15,24.77,70.17C436.56,841,436.46,842.84,433.17,844Zm10.14-26.64c-6.5-18.19-13-36.37-19.71-54.48-1.41-3.8-1.06-5.36,3.06-7,21.43-8.45,21.23-8.54,28.74,13,6.08,17.42,12.54,34.69,18.85,52,.6,1.62,1.32,3.2,1.93,4.67a2.73,2.73,0,0,1-2.08,3.38c-1.09.34-2.19.7-3.27,1.1C450.5,837.56,450.54,837.54,443.31,817.31ZM532,781.83a24.14,24.14,0,0,0-11-32.56c-14.56-7.22-27.22-.75-36.95,19.92-3.43-9.69-6.54-18.43-9.6-27.19-1.22-3.48,1.79-3.77,3.77-4.5,20.3-7.6,40.59-15.23,61-22.59,7.81-2.83,18.15,2.5,21.12,10.47q8.63,23.13,17.13,46.32A18,18,0,0,1,567,795c-20,7.49-40.19,14.67-60.28,22-2.57.93-4.89,2.06-6.14-1.76-2.84-8.67-5.82-17.28-9-26.79C510.85,798.46,524.92,795.86,532,781.83Zm-39.56-11.06c.23-8.74,9-17.64,17.31-17.51a18,18,0,0,1,17.58,18.79c-.19,8.12-9,16.74-17,16.62C501,788.52,492.19,779.65,492.42,770.77Zm1.7,46.57c.09.26.11.55.24,1.17-.11,4-3.85,4.2-6.6,5.38-3.12,1.32-4.78-.19-5.87-3.14q-13-35.37-26.2-70.7c-1.6-4.27,1.5-5.11,4.19-5.86s6.16-4.38,8,.64C476.75,769,485.4,793.15,494.12,817.34Zm456.08,6.14a953,953,0,0,0-214.43,25.7c-6.81,1.62-12.83,2.59-16.54-5.57-1.5-3.29-5.4-3.85-9.12-3.83-27.85.17-55.7.15-83.55.4-6.31.05-13.06-.13-16.08,7.48-1.27,3.2-4.31,2.43-6.8,2.42q-35.67-.15-71.33-.42c-21.38.27-42.77,1.63-64.09-1-3.92-.48-9.74-.67-10.14-4.85-.38-3.8,5.58-3.9,8.89-5.09,14.62-5.33,29.35-10.35,44-15.48q29.22-10.8,58.44-21.63c3.23-1.21,6.36-2.66,9.53-4,9.16-13.23,7.47-26.31,1.08-40.35-6-13.27-10.1-27.41-15-41.18-11.18-8.89-22.67-11.48-36.52-5-12.12,5.66-25.29,9.11-38,13.54-22.44,8.47-44.89,16.88-67.28,25.46-3.89,1.48-5-.44-6.27-3.54-5.57-13.43-15.92-19-30.28-18.6-16.23.41-32.49.25-48.74.1-7.19-.06-14.51-.16-20.75-4.69-11-4-13.76-13.42-14.09-23.4-.55-16.15-.05-32.34,0-48.52-.58-8.08-.87-15.83,3.26-23.6,3.29-6.17,2.31-13.76.76-20.48-1.4-6.06-6.93-7.06-12.52-7-16.24,0-32.5-.36-48.74.14-8.39.25-11.31-3.39-11.28-11.09q.15-40.46.14-80.91c0-7.13,2.75-10.51,10.42-10.18,11.29.49,22.63.19,33.95.17,16.23,0,23.94-7.92,23.88-24-.07-23.2-.36-46.39.79-69.58.32-6.59,3.15-9.85,8.69-12.38a1565.81,1565.81,0,0,1,306-102.68,1538.84,1538.84,0,0,1,203.1-31.41c43.34-3.79,86.8-5.93,130.33-5.8,2.32,0,5.78-1.5,5.48,3-.25,3.85-3.32,3.21-5.88,3.24-10.44.15-20.88.22-31.31.51-179.07,4.8-352.3,38.84-519.34,103.77-15.35,6-30.7,12-45.88,18.44-26.46,11.16-40.45,32-41.69,59.94-1.35,30.68-.58,61.48-.34,92.21.12,15.07,11.38,26.56,26.49,27.07,15.35.54,30.74.52,46.11.21,12.2-.25,22.35,3.28,31.72,11.43,29.53,25.64,60.53,49.55,89.43,75.94C524,666.8,545.91,669.92,569.56,668c6.3-.52,12.72.13,19.06.62,12.53,1,20.44,8.11,21.89,20.52,1,8.87,1.59,17.86.29,26.81q0,39.12.09,78.22c6.78,20.09,16,26.48,38.19,26.49l299.34.1a13.81,13.81,0,0,1,8,2.05A62.52,62.52,0,0,1,950.2,823.48Zm709.35-223.25c-13.54,0-27.08.23-40.62.34-7.27,4.89-10.88,18.12-5.89,27.35,4.16,7.67,3.53,15.3,3.37,23.21.07,16.21.82,32.45,0,48.61-.89,18-10.86,27.12-30,27.94-17.37.76-34.8,1-52.17.35-17.18-.65-28.13,6.57-33.83,22.52q-12.09,33.9-24.36,67.72c-1.57,4.35-3.15,8.7-4.89,13-4.76,11.58-13.41,18.29-26,18.4-43.48.36-87,.35-130.45.48-2.36,0-4.94,0-5.93-2.61-2.72-7.28-8.89-7.45-15.06-7.47-27.26-.07-54.5,0-81.75-.08-6.1,0-11.57,1-14.5,7.31-1.55,3.32-4.66,3.36-7.5,2.84-5.67-1-11.26-2.49-16.89-3.77-31.2-6.42-62.51-12-94.15-15.86-36.64-4.55-73.46-5.22-110.25-6.77-2-.09-4,.71-6.23-1,2.74-3.76,6.79-2.27,10-2.27q66.6,0,133.18.28c22.89.08,45.8.29,68.7.45q47.83-.24,95.66-.46c27-.08,38.65-11.77,38.6-38.66-.06-29.27-.29-58.55.07-87.81.2-17.4,7.57-24.91,24.72-25.83,11.28-.6,22.62-.64,33.91-.29,14,.42,26.2-3.58,36.49-13.26a89.74,89.74,0,0,1,7.55-5.79c31.53-27.78,64-54.48,96.45-81.13,6.43-5.28,14-6.48,22-6.71,18.55-.53,37.13.8,55.66-.92,15.48-5.38,21.79-16.66,21.64-32.59-.28-27.84.8-55.74-.52-83.52-1.34-28.31-13.91-51.17-41.26-62.25-80.45-32.58-162.29-61.23-246.9-81.21a1516.13,1516.13,0,0,0-226.29-36.05c-41.07-3.32-82.15-5.78-123.37-5.91-2.48,0-6.6,1.72-6.68-3-.09-5.08,4.17-2.82,6.52-2.82,61-.06,121.62,4.22,182.15,11.53,110.88,13.38,218.86,38.86,324.27,75.56,45.3,15.78,89.52,34.29,133.47,53.49,5.85,2.56,6.68,6.84,6.78,11.74.51,23.19.78,46.39,1.09,69.58.08,5.87.47,11.58,4.61,16.33a20.49,20.49,0,0,0,16.78,7.52c12.48-.24,25,.07,37.43-.1,6.06-.08,8.78,2.27,9.06,8.56.86,20.28,1,40.57.74,60.86,0,1.74,0,3.48,0,5.23C1686.15,600.08,1686,600.19,1659.55,600.23Z"/><path class="cls-2" d="M1599.8,448.08c-.7-30.25-15.18-51.13-43.73-62.53C1426.69,333.92,1294,295,1155.23,278.3c-60-7.21-120-11.73-180.32-12.52-103.76-1.35-206.7,8.55-308.59,27.71-106.34,20-208.79,53.29-308.69,94.58-20.33,8.39-33.18,24.08-36,45.57-4.49,33.7-1.73,67.72-1.32,101.6.13,10.47,9.89,18.43,20.48,18.87,10.42.45,20.9.88,31.31.41,20.44-.92,40,.4,55.51,16.19q49.62,42.07,99.31,84.08a21.89,21.89,0,0,0,12.56,5.48c10.37.75,20.76,1.49,31.15.16,3.46.14,6.91.35,10.37.4,28.33.44,38.41,15.68,37.13,37.94-.29,5.14.47,10.36.74,15.53-1.69,25.29-1.06,50.61-.32,75.91.2,6.33,2.13,12.42,7.68,16.55,5.26,6,12.41,6.81,19.73,6.83q52.13.12,104.26.1c31.27,0,62.54-.27,93.81-.42,35.93.18,71.87.31,107.82.58l15.25,0c31-.41,61.9-.41,92.85-.57l114.95.06c32.2.09,64.39.35,96.57.22,20.76-.08,28.63-7.85,29.79-28.73.33-6.08.25-12.17.27-18.26,0-25.21-.27-50.42.2-75.62.29-16,9.91-26.32,25.68-29.24,2.56-.48,5.15-.82,7.72-1.22a343.26,343.26,0,0,0,44.21-.17,20.25,20.25,0,0,0,11.85-4.8c32.07-26.54,64.44-52.73,95.45-80.53,3.44-2.61,7.08-5,10.29-7.9,10.28-9.21,22.31-12.82,36-12.49,12.77.31,25.53.1,38.3-.1,21.21-.36,28.43-7.16,28.69-28.11C1600.18,500.28,1600.4,474.17,1599.8,448.08Zm-1222,78.16c-17,.07-30-12.93-30.12-30.29s13.44-30.75,30.88-30.62a29.93,29.93,0,0,1,30.17,30.37C408.69,513.27,395.62,526.16,377.8,526.24Zm1162.49,0c-17.44-.13-29.68-13.23-29.53-31.59.13-16.3,13.56-29.34,30.22-29.33,17.37,0,30.7,13.4,30.69,30.83C1571.66,513.26,1558,526.39,1540.29,526.25Z"/><path class="cls-1" d="M378.56,465.33c-17.44-.13-31,13.36-30.88,30.62s13.08,30.36,30.12,30.29c17.82-.08,30.89-13,30.93-30.54A29.93,29.93,0,0,0,378.56,465.33Zm-.49,53.95c-12.17,0-23.34-10.93-23.43-22.94-.1-13.45,9.92-23.77,23.27-24,12.35-.19,23.71,10.53,23.94,22.6A23.5,23.5,0,0,1,378.07,519.28Z"/><path class="cls-1" d="M1541,465.33c-16.66,0-30.09,13-30.22,29.33-.15,18.36,12.09,31.46,29.53,31.59,17.68.14,31.37-13,31.38-30.09C1571.68,478.73,1558.35,465.34,1541,465.33Zm-.35,53.95a23.63,23.63,0,0,1-22.87-23.49,23.31,23.31,0,0,1,23.67-23.44c13,.22,23.71,11.11,23.39,23.9C1564.49,509.57,1554.06,519.51,1540.63,519.28Z"/><path class="cls-1" d="M1385,770.25c0-13.36,10.83-23.58,24.76-23.41,13.32.16,24.37,11.4,24.08,24.48-.31,13.44-10.89,23.63-24.76,23.83C1395,795.35,1385,785.07,1385,770.25Zm6.6.57c-.17,8.78,9,18,17.89,17.91,8.32-.09,17.11-9.07,17.28-17.67.16-8.16-8.74-17.55-17.06-18C1401.19,752.62,1391.8,761.82,1391.63,770.82Z"/><rect class="cls-2" width="1" height="1"/><rect class="cls-2" x="1919" y="1079" width="1" height="1"/><rect class="cls-2" y="1079" width="1" height="1"/><rect class="cls-2" x="1919" width="1" height="1"/></g><g id="Capa_3" data-name="Capa 3"><path d="M835,474.36v111H815.19V514.65l-19.51,14.91L779.5,542.09l-16.18-12.53-19.51-14.91v70.74H724v-111l19.83,15.23L779.5,517l35.69-27.44Z"/><path d="M888.94,511.32v75.5H869.11V509.26a15.8,15.8,0,0,0-13.48-13.48h-4.44V476.11h4.28v.16A35.35,35.35,0,0,1,885,496.09a42.36,42.36,0,0,1,2.7,7.46,33.47,33.47,0,0,1,1,8.09Z"/><path d="M942.54,511.32v75.5H922.72V509.26a15.81,15.81,0,0,0-13.48-13.48h-4.45V476.11h4.29v.16a35.35,35.35,0,0,1,29.5,19.82,42.36,42.36,0,0,1,2.7,7.46,33.47,33.47,0,0,1,1,8.09Z"/><path d="M1059.6,529.4a32.76,32.76,0,0,1-23.47,55.52H990.6a32.56,32.56,0,0,1-30.13-20,34.27,34.27,0,0,1-2.54-12.85V506.56a32.09,32.09,0,0,1,8.25-21.41,33.67,33.67,0,0,1,9.51-7.46,31.41,31.41,0,0,1,14.91-3.64h69v19.82h-69a13.07,13.07,0,0,0-13,13v15.54A32.63,32.63,0,0,1,990,519.89h46.79a32.73,32.73,0,0,1,23,10ZM1036,565.09a13.07,13.07,0,0,0,13-13,12.92,12.92,0,0,0-12.21-13H990a13,13,0,0,0,.63,26H1036Z"/><path d="M1195.53,565.88v19.83H1084.81V553a31.67,31.67,0,0,1,2.7-12.85,32.59,32.59,0,0,1,28.87-20h48.06a13,13,0,0,0-1.11-25.85h-78.2V474.52h78.2A32.63,32.63,0,0,1,1196,507.2a31.61,31.61,0,0,1-2.69,12.84,31.94,31.94,0,0,1-6.66,9.84,33,33,0,0,1-22.37,10h-47.9a12.92,12.92,0,0,0-11.58,12.85v12.85Z"/></g></g></svg>