<svg xmlns="http://www.w3.org/2000/svg" viewBox="0 0 1920 1080"><defs><style>.cls-1{fill:#010101;}.cls-2{fill:#f2f2f2;}</style></defs><g id="Capa_2" data-name="Capa 2"><g id="Capa_1-2" data-name="Capa 1"><path class="cls-1" d="M1000.13,732.73c-1.32-15.46-.76-31.13-.14-46.69.4-9.84-3.58-16.26-11.44-21.41-6.36-4.17-12.93-8.15-20.39-9-11.71-2.6-27.39,2-27.39,2-7.06,1.32-12.91,6.24-18.52,10.87a16.67,16.67,0,0,0-6.42,13.77q.25,28.38,0,56.74c-.05,5.74,2.1,10.06,6.2,13.91a50.1,50.1,0,0,0,27.24,13.38c7,1.57,17.11.23,17.11.23,6.06-.28,11.8-2.82,17.18-5.94C994.37,754.41,1001.35,746.85,1000.13,732.73Zm-62.22,21.86c-.78,1-1.94.44-2.26-1-8.6-3.74-13.53-9.51-13.18-19.7A449.26,449.26,0,0,0,922.3,689c-.62-9.81,3.32-15.74,11.13-20.23,1.2-.68,2.36-1.47,3.55-2.17,15.42-8.87,18.48-7.25,18.53,9.88,0,8.89,0,17.77.12,26.65,0,3.25-.39,5.51-4.23,6.88-19.28,6.89-25.1,22.18-15.68,40a13.87,13.87,0,0,1,.74,2.34C937.44,752.82,938.73,753.56,937.91,754.59Zm15.76.59c-8.15-1.82-15.41-10.12-16-18.28s5.85-18,13.29-20.43c7.6-2.44,2.56,5.65,6.48,7.28,3.19-9.25,6.91-9.84,14.5-2.51,6.23,6,7.86,15.66,3.93,23C971.22,752.87,962.54,757.15,953.67,755.18Zm24.44.74-1.77.45c.28-.45.57-.91.83-1.37,3.65-6.44,7.75-12.48,7.25-20.66-.7-11.33-7.3-21.53-18.27-24-6.07-1.36-7.31-4.05-7.13-9.57.39-11.11.36-22.25,0-33.36-.14-4.8,1.25-6.62,6.12-5.72,10.2,1.91,18.44,7.26,25.8,14.29,2.35,2.25,1.89,5.15,1.9,7.81.14,18.07,0,36.13.19,54.2C993.13,748.3,985.22,751.73,978.11,755.92Zm22-23.19c-1.32-15.46-.76-31.13-.14-46.69.4-9.84-3.58-16.26-11.44-21.41-6.36-4.17-12.93-8.15-20.39-9-11.71-2.6-27.39,2-27.39,2-7.06,1.32-12.91,6.24-18.52,10.87a16.67,16.67,0,0,0-6.42,13.77q.25,28.38,0,56.74c-.05,5.74,2.1,10.06,6.2,13.91a50.1,50.1,0,0,0,27.24,13.38c7,1.57,17.11.23,17.11.23,6.06-.28,11.8-2.82,17.18-5.94C994.37,754.41,1001.35,746.85,1000.13,732.73Zm-62.22,21.86c-.78,1-1.94.44-2.26-1-8.6-3.74-13.53-9.51-13.18-19.7A449.26,449.26,0,0,0,922.3,689c-.62-9.81,3.32-15.74,11.13-20.23,1.2-.68,2.36-1.47,3.55-2.17,15.42-8.87,18.48-7.25,18.53,9.88,0,8.89,0,17.77.12,26.65,0,3.25-.39,5.51-4.23,6.88-19.28,6.89-25.1,22.18-15.68,40a13.87,13.87,0,0,1,.74,2.34C937.44,752.82,938.73,753.56,937.91,754.59Zm15.76.59c-8.15-1.82-15.41-10.12-16-18.28s5.85-18,13.29-20.43c7.6-2.44,2.56,5.65,6.48,7.28,3.19-9.25,6.91-9.84,14.5-2.51,6.23,6,7.86,15.66,3.93,23C971.22,752.87,962.54,757.15,953.67,755.18Zm24.44.74-1.77.45c.28-.45.57-.91.83-1.37,3.65-6.44,7.75-12.48,7.25-20.66-.7-11.33-7.3-21.53-18.27-24-6.07-1.36-7.31-4.05-7.13-9.57.39-11.11.36-22.25,0-33.36-.14-4.8,1.25-6.62,6.12-5.72,10.2,1.91,18.44,7.26,25.8,14.29,2.35,2.25,1.89,5.15,1.9,7.81.14,18.07,0,36.13.19,54.2C993.13,748.3,985.22,751.73,978.11,755.92Zm22-23.19c-1.32-15.46-.76-31.13-.14-46.69.4-9.84-3.58-16.26-11.44-21.41-6.36-4.17-12.93-8.15-20.39-9-11.71-2.6-27.39,2-27.39,2-7.06,1.32-12.91,6.24-18.52,10.87a16.67,16.67,0,0,0-6.42,13.77q.25,28.38,0,56.74c-.05,5.74,2.1,10.06,6.2,13.91a50.1,50.1,0,0,0,27.24,13.38c7,1.57,17.11.23,17.11.23,6.06-.28,11.8-2.82,17.18-5.94C994.37,754.41,1001.35,746.85,1000.13,732.73Zm-62.22,21.86c-.78,1-1.94.44-2.26-1-8.6-3.74-13.53-9.51-13.18-19.7A449.26,449.26,0,0,0,922.3,689c-.62-9.81,3.32-15.74,11.13-20.23,1.2-.68,2.36-1.47,3.55-2.17,15.42-8.87,18.48-7.25,18.53,9.88,0,8.89,0,17.77.12,26.65,0,3.25-.39,5.51-4.23,6.88-19.28,6.89-25.1,22.18-15.68,40a13.87,13.87,0,0,1,.74,2.34C937.44,752.82,938.73,753.56,937.91,754.59Zm15.76.59c-8.15-1.82-15.41-10.12-16-18.28s5.85-18,13.29-20.43c7.6-2.44,2.56,5.65,6.48,7.28,3.19-9.25,6.91-9.84,14.5-2.51,6.23,6,7.86,15.66,3.93,23C971.22,752.87,962.54,757.15,953.67,755.18Zm24.44.74-1.77.45c.28-.45.57-.91.83-1.37,3.65-6.44,7.75-12.48,7.25-20.66-.7-11.33-7.3-21.53-18.27-24-6.07-1.36-7.31-4.05-7.13-9.57.39-11.11.36-22.25,0-33.36-.14-4.8,1.25-6.62,6.12-5.72,10.2,1.91,18.44,7.26,25.8,14.29,2.35,2.25,1.89,5.15,1.9,7.81.14,18.07,0,36.13.19,54.2C993.13,748.3,985.22,751.73,978.11,755.92Zm22-23.19c-1.32-15.46-.76-31.13-.14-46.69.4-9.84-3.58-16.26-11.44-21.41-6.36-4.17-12.93-8.15-20.39-9-11.71-2.6-27.39,2-27.39,2-7.06,1.32-12.91,6.24-18.52,10.87a16.67,16.67,0,0,0-6.42,13.77q.25,28.38,0,56.74c-.05,5.74,2.1,10.06,6.2,13.91a50.1,50.1,0,0,0,27.24,13.38c7,1.57,17.11.23,17.11.23,6.06-.28,11.8-2.82,17.18-5.94C994.37,754.41,1001.35,746.85,1000.13,732.73Zm-62.22,21.86c-.78,1-1.94.44-2.26-1-8.6-3.74-13.53-9.51-13.18-19.7A449.26,449.26,0,0,0,922.3,689c-.62-9.81,3.32-15.74,11.13-20.23,1.2-.68,2.36-1.47,3.55-2.17,15.42-8.87,18.48-7.25,18.53,9.88,0,8.89,0,17.77.12,26.65,0,3.25-.39,5.51-4.23,6.88-19.28,6.89-25.1,22.18-15.68,40a13.87,13.87,0,0,1,.74,2.34C937.44,752.82,938.73,753.56,937.91,754.59Zm15.76.59c-8.15-1.82-15.41-10.12-16-18.28s5.85-18,13.29-20.43c7.6-2.44,2.56,5.65,6.48,7.28,3.19-9.25,6.91-9.84,14.5-2.51,6.23,6,7.86,15.66,3.93,23C971.22,752.87,962.54,757.15,953.67,755.18Zm24.44.74-1.77.45c.28-.45.57-.91.83-1.37,3.65-6.44,7.75-12.48,7.25-20.66-.7-11.33-7.3-21.53-18.27-24-6.07-1.36-7.31-4.05-7.13-9.57.39-11.11.36-22.25,0-33.36-.14-4.8,1.25-6.62,6.12-5.72,10.2,1.91,18.44,7.26,25.8,14.29,2.35,2.25,1.89,5.15,1.9,7.81.14,18.07,0,36.13.19,54.2C993.13,748.3,985.22,751.73,978.11,755.92Zm711.31-244.56a24.17,24.17,0,0,0-9.85-19.54l-.15-.12c-5.87-4.2-12.45-5.75-19.66-5.7q-36.78.19-73.57,0c-22-.14-29.94-8.45-29.94-30.65,0-37.32.11-74.66-.17-112-.25-33.39-16.5-56.41-47.93-68-18.74-6.93-37.69-13.32-56.66-19.62-4-1.36-5.94-2.63-3.61-6.9,2.79-5.1.56-7.34-4.55-8.91-30.25-9.25-60.56-18.41-90.56-28.41-8.41-2.81-12.29-1.05-13.6,7.13-.77,4.82-3,5.62-7.51,4.71-15.79-3.24-31.6-6.37-47.48-9.08a1521.21,1521.21,0,0,0-170-19c-49.51-2.84-99-5.35-148.65-4.88l-18-.37c-49.78,0-137.88,4.75-137.88,4.75l-41.12,3.11c-28.53,2.18-57,5-85.36,9.09-31.94,4.55-63.82,9.43-95.36,16.27-6.4,1.39-7.29-2.09-8-6.24-1-6.37-3.84-8.29-10.25-6.24q-46,14.76-92.13,29c-5.33,1.65-8.86,3.21-5.33,9.68,1.87,3.45,0,5.07-3.82,6.33-19.25,6.35-38.48,12.88-57.5,19.87-30,11-46.84,35.08-47,66.95-.22,38.14-.18,76.3-.34,114.46-.06,20.16-8.78,28.82-29.12,29-16.16.1-32.34-.38-48.46.15-17.44.59-35.95-4.61-51.86,10.44-3.75,3.15-4.29,9.14-4.29,9.14v70.64q0,41.83,0,83.66c.1,3.62.72,7.28.25,10.81-2.09,15.66,6.84,25.66,17.72,34.41a15,15,0,0,0,9.53,2.86c53.45-.17,106.88,0,160.32.17,9.13,0,17.73,1.49,23.63,9.57,7,6.29,8.25,15.46,11.61,23.54,1.53,3.68-1.89,4.63-4.31,5.87-14.14,7.21-28,14.87-42.46,21.43-8,3.63-8.31,7.66-4.65,14.7,13,24.84,25.54,49.9,38.24,74.9,1.11,2.14,2.08,4.33,3.36,7.06l9.46,18.43c2.05,3.2,2.35,8.12,7.74,8.2,12.78-6.68,25.58-13.32,38.34-20l15.18-7.1c21.09-10,17.19-12.66,42.47-4,11.34,3.89,31.08,7.39,42.54,8.28,3.83.3,17.2,1,21,1.44,31.33,1.33,61.11-7.06,91.11-14.27a614.27,614.27,0,0,1,119.53-17.1L896,835.45c3.35-.21,6.69-.87,6.46,4.6-.22,5.11,4.28,4.3,7.36,4.36,15.81.32,31.64.42,47.46.6q26.18-.19,52.33-.38c4.15,0,8.06-.15,7.66-5.94-.3-4.11,2.59-3.4,5-3.28,5.25.24,10.51.52,15.74.79,35.63,1.7,71.27,3.19,106.65,8.15a579.63,579.63,0,0,1,75.18,14.75c12.14,2.73,24.19,6.31,36.47,8,39.14,5.52,78.1,6.49,116-7.59,32.87-15,58.89-37.43,75.78-69.68,9.57-18.25,15-38.18,22.22-57.35,7.13-18.75,14.24-24.19,34-24.2q62.58,0,125.13.28c8.35-.1,16.7-.15,25-.27,21-.33,35-14.17,35.29-35.08.31-28.39.38-56.79.56-85.18C1690.09,561.91,1689.54,537.19,1689.42,511.36ZM1447.21,267.88c20.34,7.21,40.71,14.34,61,21.7a51.69,51.69,0,0,1,20.92,14.67c1,1.17,2.87,2.43,1.52,4.13-.61.77-2.46.67-3.75.71-8.65.28-17-.27-25.06-4.37-6.37-3.24-13.33-5.37-20.09-7.86-1.69-.62-5-1.72-4.94.58.32,10.44-5.73,3.57-8.78,3.25s-6.56-.9-9.18-3.16c-8.2-2.08-17-2.6-23.67-8.79,8.59.22,15.9,4.69,23.9,6.8,4.23-2.45,5.47-4.82-.22-6.91-4.16-1.52-8.36-2.95-12.53-4.44-8.81-3.12-10-7.17-4.8-15.17C1443.31,266.29,1445.1,267.13,1447.21,267.88Zm-406.43-60.64c.4-3.41,3.44-2,5.37-1.92,65.09,2.22,130,6.32,194.57,15.42,28.32,4,56.6,8.48,84.58,14.51,2.73.58,7.28-.57,7.21,3.59-.06,3.95-.87,9.79-4.46,11.06-7.28,2.56-6.34,5.72-.72,11.68l-32.11-6.78-23.52-4.58-30.07-5.07c-5.22.37-10.18-1.15-15.19-2.08l-31.61-4.51-60.25-7c-1.69,0-4.45,1.3-4.1-1.81.22-1.87,2.59-1.09,4.11-.6,20.11,2,40.49,1.79,60.28,6.74,2.19-1,6.24,2,6.69-2.49.43-4.17-3.55-3.58-6-4.07-20.14-4-40.75-4-61-7.07-7.64-1.16-8.3,2.81-4.73,9.2l-22-1.44a206.74,206.74,0,0,1-31.8-2.94h-26.7c1.51-2.38,1.62-2.85,1.92-3,2.63-1.27,7.87,1.45,7.7-3.88s-5.09-2.65-7.93-3.3c-3.16-.74-7.31,1.22-9.45-1.62C1040.23,213.41,1040.48,209.92,1040.78,207.24Zm-60.23-3.68c15.56.08,31.12.45,46.68.47,4.21,0,6.69.64,6.91,5.75.23,5.41-2.48,5.86-6.63,5.76-2.52-.08-6.37-1.16-6.54,3-.2,4.85,4.08,3.55,6.83,3.63,4.83.12,9,.62,12.48,5a13.92,13.92,0,0,0,10.7,5.37c30.57,1.12,61,3.7,91.46,6.52q51.42,4.8,102.36,13.24c22.45,3.69,44.77,8.13,67.14,12.27a71.8,71.8,0,0,1,6.87,2.11c-3.06,3.78-6.54,2.19-9.28,1.64-49.34-10-98.9-18.55-149-24-29.57-3.21-59.3-5-89-7.51-6.91-.57-13.82-1.27-20.71-1.92-18.3-.76-36.59-1.63-54.89-2.23q-15.4-.49-30.83-.18c-4.15.08-5.72-.95-6-5.44C957.43,203.49,957.3,203.44,980.55,203.56ZM880.13,224.31c1.92-2.65,5.64-1.73,8.62-2.23,3.49-.59,9.6,2.12,9.72-3.13.15-5.67-6-3.24-9.34-3.09-4.48.2-5.74-1.46-5.94-5.57-.17-3.67.39-5.93,4.65-6q31.73-.33,63.44-.82c2.81,0,4.11,1.12,4,3.9,0,.84,0,1.67.05,2.51,1.24,22.21,1.24,21.9-20.71,22.38-22.5.5-45,1.69-67.48,2.59-27.44,2.23-54.89,4.25-82.31,6.75-30.13,2.72-60.06,7.07-90,11.57-29,4.37-57.72,10.19-86.57,15.33-2,.35-4.25,1-7.82-1.11,9.42-4.23,18.46-4.93,27.09-6.72,41.27-8.53,83-13.95,124.76-19.39,20.93-2.73,42.09-3.7,63.15-5.41,17.2-1.38,34.38-2.67,51.58-4C871.57,229.68,876.78,228.89,880.13,224.31Zm-278.59,9.38c56.33-10.52,113-18.75,170.12-22.89,32.47-2.34,65-3.68,97.53-5.45,3.8-.22,7.61-1.35,7.64,5.22s-3.34,6.14-7.86,6.51c-3.26.27-10.39-3.41-8,5.55l6.24,1.86c-1.69,3.33-4.37,2.16-6.84,1.74l-16.68.63c-11.06,2-22.17,3.58-33.44,3.13l-21.72,1.51c-8.33,1.19-16.61,2.88-25.09,2-9.25,2.89-18.89,2.66-28.39,3.59-11,2.68-22.22,3.67-33.44,4.57l-15,2.19a168.81,168.81,0,0,1-30.11,4.9l-25,4.62c-10.42,2.33-20.84,4.7-31.28,7-6.76,1.45-8.73-2.33-8.62-8.2C585.37,236.48,585.42,236.7,601.54,233.69ZM408,291.39c21.09-9.3,43-16.38,64.89-23.59.78-.27,1.87-.87,2.37-.57,7.26,4.38,5.79,12.87,8.62,19.32,2.14,4.87-2.33,5.81-6.32,5.74-7.47,4.42-16.16,4.95-26.37,8.63,9.62-5.65,18.22-7.41,26.17-10.75.51-2.71.75-5.11-3.3-4.62-11.16,1.3-21.41,5.52-31.42,10.22-4.9,2.31,1.56,4.94.52,7.8-3.6,1.05-7.28,2.22-11,3.21-1.27.33-3.73.6-3.87.22-3.58-9.54-9.33-2.68-13-1-8.85,4-17.74,2.65-28.38,3.25C393.27,300.62,399.88,295,408,291.39ZM518,854.75,463.76,882c-1.68,1-3.88,1.27-4.91-1.16l-18.67-36c-9.52-21.33-20.8-41.87-31.69-62.57-2.29-4.35-1.65-6.15,2.55-8.24q26.08-13,51.94-26.54c4-2.05,5.7-.88,7.63,2.82q25,48,50.35,95.89C523.4,850.79,522.58,852.26,518,854.75Zm15.74-7.86c-3.33,1.72-4.67.25-6.25-2.78q-25.9-49.41-52.17-98.58c-1.07-2-1.79-3.52.64-4.72,12.53-6.26,25.09-12.46,38.48-19.09,0,5.12-.09,8.72,0,12.3.09,2.49.1,5.77,3.43,5.54,3.15-.24,3-3.53,3-6a90.3,90.3,0,0,0-.22-10c-.47-4.75,1.84-6.84,6.11-8.36,31-11,66.13,5.65,77.27,37,10.71,30.06-5.8,65.49-35.28,77-5.09,2-7.58-3.26-11.58-1.94-4.83,1.6,2,7.33-3.36,9.53C546.89,839.63,540.38,843.44,533.74,846.89Zm362.5-24.84c-25.29.9-50.52,2.94-75.78,4.5-46.51,2.87-91.93,11.56-137,22.83-42,10.51-84,11.91-126,0-2-.57-5.27,0-5.65-2.61-.47-3.18,3.28-3.06,5.12-4.5,5.54-4.32,10.94-3.87,16.86-.4,3.28,1.89,7.26,2.76,11,3.51,1.89.37,4.91,1.47,5.88-1.16s-1.79-3.79-3.73-4.68c-3.73-1.71-7.58-3.11-13.17-5.35,17.73-9.12,29.73-22,37.16-39,7.06-24.15,2.72-46.3-11.85-66.61-12-11.75-25.58-20.21-42.66-22.54a65.74,65.74,0,0,0-29.62,2.63c-4.34,1.42-7.16,2.28-6.31-3.86.27-2-.4-3.38-2.43-3.55s-3,1.64-3,3.26c-.41,18.35-18.86,14.74-27.81,22.67-2.14,1.91-2.86-1.62-3.56-3.18-3.2-7.09-6.11-14.3-9.47-21.31-1.14-2.38-1.62-7.09-5.91-5.09-3.78,1.78-1.58,5.61-.6,8.22a157.15,157.15,0,0,0,8.57,19.85c4.51,8.28-3,8.7-6.86,10.93-5.42,3.13-4.87-2.51-5.79-5C453.68,703.74,441.58,695,412.12,695c-47.91,0-95.82.08-143.73.08-18,0-25.11-7.17-25.11-25.22q0-75.18,0-150.4c0-16.83,3.27-20.07,19.91-20.09,24.23,0,48.47.1,72.71,0,16.19-.08,29.29-5.95,36.95-21.09,3.65-7.18,3.93-15,3.95-22.8.08-35.65.05-71.3.15-107,0-6.38-.27-12.77,1.29-19.09,3.41-14.07,3.31-14.1,18.16-13.6a4.29,4.29,0,0,1,.59,1.4c.08,2.81-5.4,5.17-1.56,7.87,3.68,2.59,6-1.58,8-3.9,8-9.34,19.37-3.48,28.5-7.78.35,2.36-.52,2.94-1.5,3.55-13.3,8.16-17.53,20.57-17.5,35.53.15,63.5,0,127,0,190.49,0,3.56,1.83,7.91-5.3,7.13-3.51-.39-1.82,3.58-1.09,5.72,2.53,7.26,7.23,13.95,5.77,22.25.22,13.28,1,26.58.5,39.83-.65,16.68,5.71,28.86,20.43,36.67,3.55.67,7.08,1.81,10.64,1.89,4,.1,5.76,1.54,7.08,5.34,2.19,6.25,5.23,12.19,7.93,18.28,1,2.39,2.62,4.92,5.48,3.6s.72-3.93,0-5.77c-2.69-6.91-5.58-13.76-8.7-21.3,18.71,0,36.46.1,54.19-.07,3.7,0,4.85,1.16,4.72,4.77-.24,6.39-.1,12.8-.12,19.19,0,2.49-.38,5.5,3.36,5.3,2.91-.15,3.08-2.67,3.06-5,0-6.39.15-12.8-.06-19.19-.14-3.75.65-5.23,5-5.25,12.31-.07,23.41,2.73,33.88,9.57,19.74,12.93,39.91,25.21,59.89,37.79,4,2.51,7.83,5.23,10.39,9.37,7.26,7.26,8.68,17,11,26.31,4.49,18,8.57,36,12.82,54,10.39,25.76,31.53,38,59.39,34.43l3.54-.35,8.3-1.58c6.59-1.77,13.22-3.39,20.11-3.46l21.7-3.3c10.38-3,21.14-3.73,31.86-4.65,7.23-.56,14.27-3,21.63-2.14a174.79,174.79,0,0,1,30.25-3.13c4.43-.38,8.87-.73,13.28-1.17,3.73-.36,8.72-2.56,5.57,5-1.42,3.41,2,2.51,3.52,2.49,7.51-.07,15-.37,22.53-.58,2.71-.09,6.34-2.58,6.93,2.74C902.88,822.92,899.1,822,896.24,822.05Zm114.69-3c.4,18.7.61,18.7-18.38,18.72l-79.78.1c-3.77,0-3.85-2.23-3.82-4.9,0-5.84.1-11.68,0-17.52-.1-12.8-3.83-16.86-16.34-16.21-16.38.87-32.7,2.44-49.07,3.68-3.31.25-6.62.35-10,.5-41.39,4.54-82.54,10.64-123.54,18-15,2.69-28.54-1.94-38.75-14.11-11.94-10.23-12.84-25.21-16.46-38.92-3.16-12.07-5.77-24.26-8.53-36.41a76,76,0,0,0-10-23.55c-17-15.73-38-25.48-56.83-38.38-5-3.39-10-6.7-15.09-10.07-14-10.17-31-12-46.82-11.34-18.3.79-36.6.13-54.86,1.21-6.59.4-13-1-19.74-.56-9.18.61-20.62-9.82-22.41-19.44-2.56-13.76-.5-27.75-1.14-41.63-.18-4.32,5.24-3.95,5.8-7.48-5.3-6.46-5.92-14.25-5.92-22.07q0-103.2.17-206.42c0-19.1,7.29-28.69,25.44-34.34,10.34-3.23,20.83-6,31.22-9.08,16-4.82,18.12-8.45,14.42-25.5,7,1.66,12.63-2.14,18.82-3.71,4.32-1.11,5.39-.2,5.19,4.11-.35,7.23-.24,14.47-.2,21.72,0,2.51-.07,5.55,3.53,5.4,3.07-.13,2.81-3,2.84-5.15.08-7.51.13-15,0-22.55-.07-4.08-.5-7.9,5.4-8.17,2.6-.13,3.7-2.39,3.08-5-.58-2.41-2.71-1.64-4.11-1.29-11.2,2.81-23.17,3.68-32.49,11.38-3.36,2.78-3.82.38-4.43-1.52-3.12-9.49-6-19.06-9-28.58-1-3.07,0-4.21,3.13-5.16q43-13.11,85.82-26.72c4-1.29,5.2-.65,6.36,3.31,3.76,13,8,25.93,12.08,38.88,3.63,11.56,11.44,16.11,23.57,13.83,47.79-8.93,95.64-17.8,144-23.22C789,247.11,824,245,859,242.27q44.16-3.44,88.47-3c13.81.15,27.59-1.05,41.41-.27,14.45.82,29,.82,43.41,1.54,14.17.72,28.34,1.86,42.49,2.88,14.44,1,28.86,2.29,43.3,3.25,65,4.28,128.94,15.89,192.85,27.92,9.26,1.74,16.21-1.16,19.77-9.56,2.07-4.9,4.67-5.13,9-3.86,5.3,1.55,10.75,2.63,16.14,3.9,1.71.4,3.41.5,4.28-1.39,1.09-2.33-.27-4-2.21-4.59a101.12,101.12,0,0,0-15.27-3.88c-6.76-.95-7.83-3.46-5.15-9.7a161.11,161.11,0,0,0,7.68-23.74c1.13-4.5,2.62-5,6.87-3.64,28,9.08,55.94,18.05,84.07,26.56,5.1,1.54,5.72,3.77,3.84,7.61-4.51,9.29-3.88,21-13.36,28-1.31,1-.35,2.18.06,3.55,2.6,8.55-2.09,20.24,11.78,23.65,12.9,3.18,25.63,7.2,38.26,11.36,15.89,5.27,23.6,14.93,23.65,31.35.24,75.2,0,150.41,0,225.63a16.74,16.74,0,0,1-1,3.94c-7.89,10.71-15.65,28.69-16.61,40.45,9.86-8.84,9.67-21.09,16.85-29.39.07,15.31,4.15,30.83-3.11,45.64-2.38,4.87-6.64,8.16-11.5,10.54-2.42,1.2-5.37,3.68-7.57,1.89-2.75-2.23.75-4.85,1.38-7.33.36-1.34,1.06-2.61,1.28-4,.33-2.08,1.5-4.79-1.11-5.93-3-1.32-4.36,1.39-5.75,3.47a2.41,2.41,0,0,0-.44.7c-2.14,14.59-12.26,15.09-23.85,14-15.68-1.43-31.45-.57-47.2-1.39-17-.87-34.83,2.32-49.38,13.7-17.08,10.87-33.94,22.13-51.31,32.52-15.27,9.12-24.59,21.61-27.92,39.26-2.86,15.24-7,30.26-10.77,45.32-8.52,33.89-26.37,46.07-60.56,40.94-17-2.56-33.86-5.89-50.77-8.85-37.68-5.32-75.53-8.82-113.46-11.65-4.43-.21-8.86-.58-13.3-.57a16.76,16.76,0,0,0-6.32,1.36C1011.74,803.59,1010.93,819.07,1010.93,819.07Zm665.45-142.82c-.07,9-7.48,16.88-16.48,18-9.35,1.19-18.81.92-28.21.3q-63.48.23-127,.45c-12.26,0-23.75,1.94-33.31,10.63-7.07,6.44-10.9,14.57-14.07,23.28-5.85,16.18-10.79,32.82-18.15,48.32-21.53,45.31-57.58,72.21-107.46,78.59-39.68,5-78.76.33-116.85-12.06-20.2-3.82-40.3-8.17-60.61-11.31-42.71-6.63-85.84-8.53-129-10.07-4.62-.17-8.74.67-8.37-6.46.35-6.54,1.73-11.14,9.35-10.49,13.24,1.14,26.47,2.49,39.7,3.71,17.58,1.63,35.18,3,52.73,4.86,30.65,3.17,60.93,8.81,91.26,14.13,3.26.57,6.64.54,10,.79,27.87-4.3,43.61-20.8,49.32-48.06,3.63-17.39,8.23-34.53,12.34-51.8a39.74,39.74,0,0,1,18-25c21.6-13.67,43.37-27,64.93-40.75,9.4-6,19.69-6.86,30.38-6.83,3.58,0,4.06,1.54,4,4.5-.15,6.39,0,12.8-.07,19.19,0,2.51-.45,5.44,3.12,5.67,3.86.27,3.34-2.86,3.37-5.25.07-6.12.22-12.25,0-18.37-.15-3.91.32-5.87,5.27-5.75,15.85.4,31.71.26,47.56.06,4.79,0,7,.77,4.3,5.91-.85,1.69-1.4,4.3.54,5.33,2.32,1.23,4.78-.56,5.28-2.71,2.28-9.78,10.61-8.69,17.52-10.23,15.58-8.17,22.38-21,21.7-38.56-.47-12.15.13-24.34.27-36.51-2-10.35,4-18.75,7-27.85,1.47-4.48,3.28-8.83,5-13.22.75-1.9,1.5-4-.61-5.16-2.66-1.44-4,1-5.16,2.82-2.16,3.31-2.48,7.75-6.78,11.56V532.15q0-90.61.08-181.19c0-15.59-6.62-27.62-19.77-36.64,15.42,3,30.61,1.11,45.74,1.36,3.44.05,5,1.72,5.92,4.65,1.79,5.84,3.61,11.61,3.61,17.87q.08,56.76.37,113.53c0,7-.18,14,1.59,20.77,4.23,16.09,19,26.74,36.92,26.81,25.9.1,51.79,0,77.67.1,12.6,0,17.25,4.42,17.33,16.95.12,20.57-.15,41.15-.26,61.74C1676.41,610.83,1676.58,643.55,1676.38,676.25ZM1000,686c.4-9.84-3.58-16.26-11.44-21.41-6.36-4.17-12.93-8.15-20.39-9-11.71-2.6-27.39,2-27.39,2-7.06,1.32-12.91,6.24-18.52,10.87a16.67,16.67,0,0,0-6.42,13.77q.25,28.38,0,56.74c-.05,5.74,2.1,10.06,6.2,13.91a50.1,50.1,0,0,0,27.24,13.38c7,1.57,17.11.23,17.11.23,6.06-.28,11.8-2.82,17.18-5.94,10.79-6.22,17.77-13.78,16.55-27.9C998.81,717.27,999.37,701.6,1000,686Zm-62.08,68.55c-.78,1-1.94.44-2.26-1-8.6-3.74-13.53-9.51-13.18-19.7A449.26,449.26,0,0,0,922.3,689c-.62-9.81,3.32-15.74,11.13-20.23,1.2-.68,2.36-1.47,3.55-2.17,15.42-8.87,18.48-7.25,18.53,9.88,0,8.89,0,17.77.12,26.65,0,3.25-.39,5.51-4.23,6.88-19.28,6.89-25.1,22.18-15.68,40a13.87,13.87,0,0,1,.74,2.34C937.44,752.82,938.73,753.56,937.91,754.59Zm15.76.59c-8.15-1.82-15.41-10.12-16-18.28s5.85-18,13.29-20.43c7.6-2.44,2.56,5.65,6.48,7.28,3.19-9.25,6.91-9.84,14.5-2.51,6.23,6,7.86,15.66,3.93,23C971.22,752.87,962.54,757.15,953.67,755.18Zm24.44.74-1.77.45c.28-.45.57-.91.83-1.37,3.65-6.44,7.75-12.48,7.25-20.66-.7-11.33-7.3-21.53-18.27-24-6.07-1.36-7.31-4.05-7.13-9.57.39-11.11.36-22.25,0-33.36-.14-4.8,1.25-6.62,6.12-5.72,10.2,1.91,18.44,7.26,25.8,14.29,2.35,2.25,1.89,5.15,1.9,7.81.14,18.07,0,36.13.19,54.2C993.13,748.3,985.22,751.73,978.11,755.92Z"/><path class="cls-2" d="M1499.52,590.85c-7.18,8.3-7,20.55-16.85,29.39,1-11.76,8.72-29.74,16.61-40.45a16.74,16.74,0,0,0,1-3.94c.08-75.22.27-150.43,0-225.63,0-16.42-7.76-26.08-23.65-31.35-12.63-4.16-25.36-8.18-38.26-11.36-13.87-3.41-9.18-15.1-11.78-23.65-.41-1.37-1.37-2.59-.06-3.55,9.48-6.94,8.85-18.68,13.36-28,1.88-3.84,1.26-6.07-3.84-7.61-28.13-8.51-56.11-17.48-84.07-26.56-4.25-1.39-5.74-.86-6.87,3.64a161.11,161.11,0,0,1-7.68,23.74c-2.68,6.24-1.61,8.75,5.15,9.7a101.12,101.12,0,0,1,15.27,3.88c1.94.59,3.3,2.26,2.21,4.59-.87,1.89-2.57,1.79-4.28,1.39-5.39-1.27-10.84-2.35-16.14-3.9-4.3-1.27-6.9-1-9,3.86-3.56,8.4-10.51,11.3-19.77,9.56-63.91-12-127.85-23.64-192.85-27.92-14.44-1-28.86-2.21-43.3-3.25-14.15-1-28.32-2.16-42.49-2.88-14.45-.72-29-.72-43.41-1.54-13.82-.78-27.6.42-41.41.27q-44.26-.48-88.47,3c-35,2.7-70,4.84-104.84,8.73-48.33,5.42-96.18,14.29-144,23.22-12.13,2.28-19.94-2.27-23.57-13.83-4.07-12.95-8.32-25.85-12.08-38.88-1.16-4-2.35-4.6-6.36-3.31q-42.81,13.68-85.82,26.72c-3.13,1-4.11,2.09-3.13,5.16,3,9.52,5.92,19.09,9,28.58.61,1.9,1.07,4.3,4.43,1.52,9.32-7.7,21.29-8.57,32.49-11.38,1.4-.35,3.53-1.12,4.11,1.29.62,2.56-.48,4.82-3.08,5-5.9.27-5.47,4.09-5.4,8.17.13,7.51.08,15,0,22.55,0,2.14.23,5-2.84,5.15-3.6.15-3.53-2.89-3.53-5.4,0-7.25-.15-14.49.2-21.72.2-4.31-.87-5.22-5.19-4.11-6.19,1.57-11.86,5.37-18.82,3.71,3.7,17.05,1.61,20.68-14.42,25.5C465.82,312,455.33,314.74,445,318c-18.15,5.65-25.41,15.24-25.44,34.34q-.27,103.21-.17,206.42c0,7.82.62,15.61,5.92,22.07-.56,3.53-6,3.16-5.8,7.48.64,13.88-1.42,27.87,1.14,41.63,1.79,9.62,13.23,20.05,22.41,19.44,6.7-.43,13.15,1,19.74.56,18.26-1.08,36.56-.42,54.86-1.21,15.82-.69,32.8,1.17,46.82,11.34,5,3.37,10.09,6.68,15.09,10.07,18.87,12.9,39.87,22.65,56.83,38.38a76,76,0,0,1,10,23.55c2.76,12.15,5.37,24.34,8.53,36.41,3.62,13.71,4.52,28.69,16.46,38.92,10.21,12.17,23.76,16.8,38.75,14.11,41-7.4,82.15-13.5,123.54-18,3.33-.15,6.64-.25,10-.5,16.37-1.24,32.69-2.81,49.07-3.68,12.51-.65,16.24,3.41,16.34,16.21,0,5.84,0,11.68,0,17.52,0,2.67,0,4.93,3.82,4.9l79.78-.1c19,0,18.78,0,18.38-18.72,0,0,.81-15.48,6.93-18.52a16.76,16.76,0,0,1,6.32-1.36c4.44,0,8.87.36,13.3.57,37.93,2.83,75.78,6.33,113.46,11.65,16.91,3,33.77,6.29,50.77,8.85,34.19,5.13,52-7,60.56-40.94,3.8-15.06,7.91-30.08,10.77-45.32,3.33-17.65,12.65-30.14,27.92-39.26,17.37-10.39,34.23-21.65,51.31-32.52,14.55-11.38,32.39-14.57,49.38-13.7,15.75.82,31.52,0,47.2,1.39,11.59,1.05,21.71.55,23.85-14a2.41,2.41,0,0,1,.44-.7c1.39-2.08,2.76-4.79,5.75-3.47,2.61,1.14,1.44,3.85,1.11,5.93-.22,1.35-.92,2.62-1.28,4-.63,2.48-4.13,5.1-1.38,7.33,2.2,1.79,5.15-.69,7.57-1.89,4.86-2.38,9.12-5.67,11.5-10.54C1503.67,621.68,1499.59,606.16,1499.52,590.85ZM441.93,634a3.37,3.37,0,0,1-2.66-1.46c-5.3-9.73-9.88-19.75-12.54-30.56-.4-1.66-.47-3.71,1.4-4.3s3.77.44,4.55,2.53c3.77,10.08,7.5,20.17,10.42,28C443.52,632.06,443.69,633.69,441.93,634ZM514.4,345.09h.14c0-5.26,0-10.51,0-15.76,0-1.84.79-3.31,2.75-3.53,2.54-.29,3.43,1.45,3.44,3.61q.07,15.76,0,31.52c0,2.14-.77,3.86-3.3,3.81s-3.12-1.62-3.09-3.89C514.47,355.59,514.4,350.34,514.4,345.09Zm6.13,70.34c0,1.56-.82,3.45-2.88,3.43a3.09,3.09,0,0,1-3-3.33c0-10.8.16-21.63.45-32.43,0-1.53.65-3.65,2.71-3.62,2.63,0,2.69,2.5,2.74,4.32.15,5.27.05,10.55.05,15.82S520.73,410.16,520.53,415.43Zm-5.66,20.75c0-1.63.79-3.5,2.81-3.55,2.76-.07,2.85,2.31,2.9,4.17.15,5,0,10,0,15h.13c0,5.28,0,10.57,0,15.86,0,2.14-.76,4-3.35,3.74-2-.16-2.83-1.79-2.83-3.54C514.59,457.31,514.67,446.73,514.87,436.18Zm-.32,53.66c0-2.22,1.07-3.81,3.52-3.58,2,.19,2.67,1.78,2.69,3.57,0,5.25,0,10.5,0,15.77s0,10.51,0,15.76c0,2.14-.72,3.88-3.25,3.86s-3.16-1.55-3.12-3.84C514.49,510.87,514.47,500.37,514.55,489.84ZM520.63,578c-2,2-3.92,1.71-5.88,0,0-10.81-.2-21.61,0-32.4,0-2.24.13-5.82,3.51-5.52,2.58.21,2.41,3.38,2.43,5.5C520.71,556.36,520.64,567.16,520.63,578Zm.15,49.6c0,2-.15,4.18-2.73,4.39s-3.41-1.81-3.43-3.85q0-15.84.2-31.67c0-1.69,1-3.33,3-3.25s2.64,1.88,2.67,3.53c.1,5.29,0,10.56,0,15.85h.23C520.81,617.57,520.84,622.57,520.78,627.57ZM577.4,262.06q-14.48,3.72-29,7.25c-1.9.46-4.36.65-5-1.56-.82-2.69,1.6-3.86,3.69-4.65,9.39-3.46,19.18-5.29,28.38-7.26,2.51-.12,4.93-.35,5.33,2.06C581.1,259.89,579.46,261.53,577.4,262.06ZM916,310.66a15.73,15.73,0,0,1,6.24-13c24.71-19.93,47.66-19.64,72.12.58a14.12,14.12,0,0,1,5.4,11.65c-.1,10,0,20,0,30.08h.28c0,9.73-.07,19.48,0,29.24,0,3.78-.72,7.06-3.31,10-18.57,21.07-54,22.45-74.34,3-4.29-4.08-6.59-8.6-6.53-14.65C916,348.55,916,329.6,916,310.66Zm67.63,450c-5.38,3.12-11.12,5.66-17.18,5.94,0,0-10.14,1.34-17.11-.23A50.1,50.1,0,0,1,922.05,753c-4.1-3.85-6.25-8.17-6.2-13.91q.23-28.35,0-56.74a16.67,16.67,0,0,1,6.42-13.77c5.61-4.63,11.46-9.55,18.52-10.87,0,0,15.68-4.64,27.39-2,7.46.85,14,4.83,20.39,9,7.86,5.15,11.84,11.57,11.44,21.41-.62,15.56-1.18,31.23.14,46.69C1001.35,746.85,994.37,754.41,983.58,760.63ZM1405.12,628c0,2.09-.64,3.93-3.28,3.8s-3-2-3-4.08c0-5.26,0-10.53,0-15.78h.16c0-4.72-.08-9.42,0-14.12,0-2.12-.07-4.83,3.08-4.8,2.51,0,2.94,2.33,3,4.27Q1405.22,612.67,1405.12,628Zm.06-49.92c-2.09,2.41-4.16,1.77-6.25,0,0-10.8,0-21.59.06-32.4,0-2.39-.26-5.7,3.1-5.72s3.13,3.36,3.14,5.74C1405.3,556.52,1405.22,567.33,1405.18,578.12Zm-2.71-52.64c-2.62,0-3.74-1.63-3.71-4.35.13-10.24.12-20.48.18-30.72,0-2,.24-4.25,2.7-4.41,3-.21,3.46,2.3,3.49,4.58.12,5.25,0,10.52,0,15.77h.08c0,5,0,10,0,14.94C1405.28,523.38,1405,525.44,1402.47,525.48Zm-3.68-180.38h.14c0-5-.07-10,0-14.93,0-2.18,0-4.84,3.26-4.59,2.5.19,2.88,2.39,2.9,4.33.1,10.51.08,21,.1,31.54,0,2.19-.81,3.86-3.36,3.51-2.25-.32-3.15-1.75-3.1-4.08C1398.88,355.63,1398.79,350.36,1398.79,345.1Zm.24,92.2c0-2.16.06-4.84,3.14-4.79,2.53,0,2.9,2.38,2.91,4.3.1,10.52.07,21.05.09,31.59,0,1.85-.77,3.39-2.73,3.34a3.33,3.33,0,0,1-3.56-3.68c0-5.27,0-10.52,0-15.79h.11C1399,447.28,1398.93,442.28,1399,437.3Zm6.12-37.12c0,5,0,10,0,15,0,1.76-.45,3.61-2.46,3.76a3.31,3.31,0,0,1-3.74-3.54c0-10.86,0-21.7.21-32.54,0-1.66.79-3.46,2.81-3.48,2.61,0,3.12,2.16,3.17,4.1C1405.25,389.05,1405.15,394.62,1405.15,400.18Zm4.15-122c-4.33,2.74-4,6.1-4,9.92,0,6.12-.06,12.23-.16,18.35,0,2.18.16,4.89-3.08,4.72-2.88-.14-3.23-2.53-3.23-4.9q0-6.67,0-13.35c0-15.63,0-15.48-14.79-20.56-3.71-1.29-11.29-.84-9.53-6.26,1.64-5.14,7.79-.55,11.76.28,7,1.48,13.88,3.74,20.76,5.86C1410.1,273.2,1413.75,275.36,1409.3,278.19Z"/><path class="cls-1" d="M1000,339.94h-.28c0-10-.07-20.06,0-30.08a14.12,14.12,0,0,0-5.4-11.65c-24.46-20.22-47.41-20.51-72.12-.58a15.73,15.73,0,0,0-6.24,13c.08,18.94.08,37.89-.14,56.83-.06,6.05,2.24,10.57,6.53,14.65,20.37,19.47,55.77,18.09,74.34-3,2.59-2.92,3.36-6.2,3.31-10C999.89,359.42,1000,349.67,1000,339.94Zm-40.84-10.28c.2-5,0-10,0-15h.09c0-4.44,0-8.85,0-13.28.12-8,1.24-8.62,8.43-4.34s11.16,10.68,10,19.32q-1.62,12-13.08,16.68C960.7,334.7,959,334.26,959.12,329.66Zm-9-34c4-1.86,5.64-.79,5.54,3.58-.1,5,0,10,0,15s-.16,10,0,15c.2,5.38-2.22,5.52-6.09,3.42-7.41-4-12-10.3-11.78-18.68S942.24,299.27,950.12,295.62Zm43.2,21.71c-.7,15.56-.89,31.17-.27,46.73.33,8.46-3.21,13.72-9.82,17.65a66.78,66.78,0,0,1-11.14,5.53c-11.79,4.32-12.33,3.87-12.87-8.61-.08-1.77.94-4.57-2-4.52s-1.69,2.76-1.72,4.49c0,2.22-.07,4.45.08,6.67.22,3.55-1.65,4.4-4.66,3.7-9.94-2.33-18.84-6.56-25.82-14.29-2.19-2.44-2.49-5.37-2.47-8.55.07-16.68,0-33.37,0-50.07,0-11.09,2.06-13.93,13.32-19.27,1.5,2.88-1.09,4.5-2.08,6.51-6.57,13.27.13,31.48,14.2,35.72,6.56,2,8.07,5.05,7.65,11.09-.29,4-1.09,8.23,1.19,13.4,3.79-5.66,1.8-11.16,2.27-16.23.27-2.84-.75-5.47,3.73-6.93,20.08-6.55,25.86-19.8,18.29-40.33-1.07-.67-2.55-1.54-1.26-2.78,1-1,2.23.19,3,1.19C990.59,302.45,993.74,308.43,993.32,317.33Z"/><path class="cls-1" d="M1409.3,278.19c-4.33,2.74-4,6.1-4,9.92,0,6.12-.06,12.23-.16,18.35,0,2.18.16,4.89-3.08,4.72-2.88-.14-3.23-2.53-3.23-4.9q0-6.67,0-13.35c0-15.63,0-15.48-14.79-20.56-3.71-1.29-11.29-.84-9.53-6.26,1.64-5.14,7.79-.55,11.76.28,7,1.48,13.88,3.74,20.76,5.86C1410.1,273.2,1413.75,275.36,1409.3,278.19Z"/><path class="cls-1" d="M577.4,262.06q-14.48,3.72-29,7.25c-1.9.46-4.36.65-5-1.56-.82-2.69,1.6-3.86,3.69-4.65,9.39-3.46,19.18-5.29,28.38-7.26,2.51-.12,4.93-.35,5.33,2.06C581.1,259.89,579.46,261.53,577.4,262.06Z"/><path class="cls-1" d="M1405.18,578.12c-2.09,2.41-4.16,1.77-6.25,0,0-10.8,0-21.59.06-32.4,0-2.39-.26-5.7,3.1-5.72s3.13,3.36,3.14,5.74C1405.3,556.52,1405.22,567.33,1405.18,578.12Z"/><path class="cls-1" d="M1405.27,521.29c0,2.09-.3,4.15-2.8,4.19s-3.74-1.63-3.71-4.35c.13-10.24.12-20.48.18-30.72,0-2,.24-4.25,2.7-4.41,3-.21,3.46,2.3,3.49,4.58.12,5.25,0,10.52,0,15.77h.08C1405.25,511.34,1405.22,516.31,1405.27,521.29Z"/><path class="cls-1" d="M1405.17,468.4c0,1.85-.77,3.39-2.73,3.34a3.33,3.33,0,0,1-3.56-3.68c0-5.27,0-10.52,0-15.79h.11c0-5-.06-10,0-15,0-2.16.06-4.84,3.14-4.79,2.53,0,2.9,2.38,2.91,4.3C1405.18,447.33,1405.15,457.86,1405.17,468.4Z"/><path class="cls-1" d="M1405.15,400.18c0,5,0,10,0,15,0,1.76-.45,3.61-2.46,3.76a3.31,3.31,0,0,1-3.74-3.54c0-10.86,0-21.7.21-32.54,0-1.66.79-3.46,2.81-3.48,2.61,0,3.12,2.16,3.17,4.1C1405.25,389.05,1405.15,394.62,1405.15,400.18Z"/><path class="cls-1" d="M1405.22,361.45c0,2.19-.81,3.86-3.36,3.51-2.25-.32-3.15-1.75-3.1-4.08.12-5.25,0-10.52,0-15.78h.14c0-5-.07-10,0-14.93,0-2.18,0-4.84,3.26-4.59,2.5.19,2.88,2.39,2.9,4.33C1405.22,340.42,1405.2,350.93,1405.22,361.45Z"/><path class="cls-1" d="M520.76,360.93c0,2.14-.77,3.86-3.3,3.81s-3.12-1.62-3.09-3.89c.1-5.26,0-10.51,0-15.76h.14c0-5.26,0-10.51,0-15.76,0-1.84.79-3.31,2.75-3.53,2.54-.29,3.43,1.45,3.44,3.61Q520.81,345.18,520.76,360.93Z"/><path class="cls-1" d="M520.78,505.6c0,5.25,0,10.51,0,15.76,0,2.14-.72,3.88-3.25,3.86s-3.16-1.55-3.12-3.84c.1-10.51.08-21,.16-31.54,0-2.22,1.07-3.81,3.52-3.58,2,.19,2.67,1.78,2.69,3.57C520.79,495.08,520.76,500.33,520.78,505.6Z"/><path class="cls-1" d="M520.73,467.68c0,2.14-.76,4-3.35,3.74-2-.16-2.83-1.79-2.83-3.54,0-10.57.12-21.15.32-31.7,0-1.63.79-3.5,2.81-3.55,2.76-.07,2.85,2.31,2.9,4.17.15,5,0,10,0,15h.13C520.76,457.1,520.79,462.39,520.73,467.68Z"/><path class="cls-1" d="M520.63,578c-2,2-3.92,1.71-5.88,0,0-10.81-.2-21.61,0-32.4,0-2.24.13-5.82,3.51-5.52,2.58.21,2.41,3.38,2.43,5.5C520.71,556.36,520.64,567.16,520.63,578Z"/><path class="cls-1" d="M520.53,415.43c0,1.56-.82,3.45-2.88,3.43a3.09,3.09,0,0,1-3-3.33c0-10.8.16-21.63.45-32.43,0-1.53.65-3.65,2.71-3.62,2.63,0,2.69,2.5,2.74,4.32.15,5.27.05,10.55.05,15.82S520.73,410.16,520.53,415.43Z"/><path class="cls-1" d="M441.93,634a3.37,3.37,0,0,1-2.66-1.46c-5.3-9.73-9.88-19.75-12.54-30.56-.4-1.66-.47-3.71,1.4-4.3s3.77.44,4.55,2.53c3.77,10.08,7.5,20.17,10.42,28C443.52,632.06,443.69,633.69,441.93,634Z"/><path class="cls-1" d="M520.78,627.57c0,2-.15,4.18-2.73,4.39s-3.41-1.81-3.43-3.85q0-15.84.2-31.67c0-1.69,1-3.33,3-3.25s2.64,1.88,2.67,3.53c.1,5.29,0,10.56,0,15.85h.23C520.81,617.57,520.84,622.57,520.78,627.57Z"/><path class="cls-1" d="M1405.12,628c0,2.09-.64,3.93-3.28,3.8s-3-2-3-4.08c0-5.26,0-10.53,0-15.78h.16c0-4.72-.08-9.42,0-14.12,0-2.12-.07-4.83,3.08-4.8,2.51,0,2.94,2.33,3,4.27Q1405.22,612.67,1405.12,628Z"/><path class="cls-1" d="M401,536.32a3.92,3.92,0,0,1-4.17-3c-3.35-9.62-6.68-19.25-9.86-28.93-.67-2-1.25-4.71,1.93-5.32,2.42-.47,3.18,1.43,3.69,3.5,2.28,9.14,6.45,17.58,9.78,26.34C403.36,531.55,404.22,534.75,401,536.32Z"/><path class="cls-1" d="M384.19,358.72c.5-5.09,1-10.9,1.68-16.69.25-2.07,1.66-3.81,3.85-3.75,2.81.08,2.7,2.58,2.33,4.38-2.09,10.2-1.1,20.52-1.46,30.78-.06,1.83.42,4.21-2.51,4.31s-2.84-2.34-3-4.12C384.64,368.93,384.49,364.21,384.19,358.72Z"/><path class="cls-1" d="M390.73,465.26c0,5.27,0,10.54,0,15.8,0,1.74-.07,3.46-2.24,3.8-2.6.4-3.56-1.45-3.67-3.46a242.46,242.46,0,0,1,.53-33.23c.14-1.7.72-3.46,2.92-3.24s2.42,1.94,2.42,3.69c0,5.55,0,11.09,0,16.64Z"/><path class="cls-1" d="M390.66,411.82c0,5,0,10,0,14.95,0,1.88.3,4.07-2.6,4.24-3.17.18-3.58-1.92-3.53-4.33q.33-15.36.72-30.72c0-2,.41-4,3.21-3.67,2.22.28,2.27,2,2.27,3.74,0,5.26,0,10.52,0,15.79Z"/><path class="cls-1" d="M1375.11,748.07a50.78,50.78,0,0,1,6.28.79c14.25,3.3,16,7.19,9.53,20.11-4.85,9.63-10.1,19.1-14.31,29-3.38,7.93-7.33,8.5-14.42,4.4-11.81-6.83-18.35-19.31-15.6-32a28,28,0,0,1,25.68-22.31C1372.83,748,1373.38,748.07,1375.11,748.07Zm.59,7c-11.32-.25-18.39,4.69-21.83,14.45-3.28,9.3.16,18,9.37,25.25,3.8,3,5.81,3.08,8-1.64,4.35-9.26,8.81-18.52,14-27.33,3.91-6.63,1-8.93-4.86-10.25A31.1,31.1,0,0,0,1375.7,755Z"/><path class="cls-1" d="M1414.37,778.75a4.16,4.16,0,0,1,1.18,5.45c-5.26,9.65-13.16,17.07-21.35,24.17a3.11,3.11,0,0,1-3,.1c-.61-.48-.47-1.94-.6-3a1,1,0,0,1,.26-.76c15.05-10.6,5.37-26.4,8.33-39.53.06-.27,0-.57,0-.83.94-3.6-2.14-10.32,3.23-10.13,4.87.18,2.51,6.86,2.7,10.67.36,7,.11,14.07.11,21.8C1410.17,785,1410.51,779.79,1414.37,778.75Z"/><path class="cls-1" d="M1459.18,686.26A147.44,147.44,0,0,1,1446.36,716a3.06,3.06,0,0,1-3.47,1.71,3.11,3.11,0,0,1-2.09-4,154.53,154.53,0,0,1,12.67-30.59,3.45,3.45,0,0,1,4.18-1.93C1459.73,681.92,1459,683.92,1459.18,686.26Z"/><path class="cls-1" d="M1423,767.14c-3.11-.21-3.69-2.07-2.89-4.1,4-10,8-20,12.31-29.93.69-1.59,2.63-3.21,4.81-2.15,1.8.87,1.55,2.64,1,4.35a230.52,230.52,0,0,1-11.7,29.3C1425.73,766.15,1424.59,767.38,1423,767.14Z"/><path class="cls-1" d="M1272.25,852.29a152.44,152.44,0,0,1-28.19-6.44c-1.9-.62-4-1.08-3.85-3.53.22-2.89,2.73-2.42,4.48-2.13,10.34,1.73,20.64,3.67,31,5.46a3.44,3.44,0,0,1,3.09,4.14C1278.17,854.55,1274.33,851.17,1272.25,852.29Z"/><path class="cls-1" d="M1345.37,836.75q14.61-9.36,29.24-18.71c1.71-1.08,3.21-.49,4.26,1.13s1,3.62-.34,4.62c-9.63,7.29-20,13-31.63,16Z"/><path class="cls-1" d="M1399,719.69c0-4.69-.06-9.38,0-14.07,0-2.19.06-4.93,2.83-5.21,3-.3,3.31,2.51,3.33,4.68.08,10.21,0,20.42,0,30.63,0,2.14-.82,4-3.21,3.83s-3.09-1.93-3.08-4.13c0-5.24,0-10.48,0-15.73Z"/><path class="cls-1" d="M1332,843.34c-11.06,6.8-23.21,9-35.93,8.8a2.42,2.42,0,0,1-2.54-2.64,3,3,0,0,1,3-3.34C1308.33,846,1319.73,841.38,1332,843.34Z"/><path class="cls-1" d="M1213.45,839.53c-6.75-1.37-13.52-2.63-20.23-4.16-2.26-.51-5.78-.84-5-4.17s4-1.93,6.35-1.58c8.47,1.26,16.91,2.67,25.37,4,1.54.5,3.11,1,4.62,1.53a3.27,3.27,0,0,1,2.18,3.9c-.5,2.55-2.53,2.5-4.48,2.17C1219.3,840.75,1216.38,840.11,1213.45,839.53Z"/><path class="cls-1" d="M1535.53,351.52a32,32,0,0,1-.43,4.67c-.44,2-.14,4.88-3.48,4.49-2.63-.3-2.44-2.63-2.46-4.51a54.11,54.11,0,0,0-6.78-26.11c-1.15-2.07-3.27-4.56.15-6.25,2.91-1.44,5.21-.08,6.76,2.8C1533.47,334.31,1535,342.63,1535.53,351.52Z"/><path class="cls-1" d="M1535.46,491.84c-.44,8.51-2,16.31-6,23.49-1.25,2.27-1.9,6.19-5.38,4.73-3-1.25-.95-4.33-.15-6.57a85.89,85.89,0,0,0,5.24-25.89c.08-2.17-.13-5.13,2.65-5.28s3.14,2.7,3.4,4.94C1535.42,488.91,1535.4,490.58,1535.46,491.84Z"/><path class="cls-1" d="M1529.2,394.6c0-5.29,0-10.58,0-15.87,0-1.69.14-3.71,2.15-4a3.07,3.07,0,0,1,3.37,3,169.36,169.36,0,0,1-.21,34.14,2.31,2.31,0,0,1-2.82,2.25c-2.18-.25-2.48-2-2.5-3.69C1529.14,405.18,1529.18,399.89,1529.2,394.6Z"/><path class="cls-1" d="M1535,447.18c0,5.23.15,10.47-.08,15.7-.07,1.75-.26,4.3-2.92,4.23-2.48-.07-2.83-2.2-2.82-4.23,0-10.48,0-21,.11-31.45,0-1.56-.11-3.59,2.2-3.77,2.6-.2,3.26,1.85,3.32,3.81.14,5.24,0,10.47,0,15.71Z"/><path class="cls-1" d="M573.71,773.69c-.34,15.43-9,26.9-21.65,31.17-3.17,1.07-5.19.59-6.73-2.6q-9.76-20.22-19.8-40.32c-1.77-3.55-1.54-6.35,2-8.58,9.91-6.26,20.3-7.43,30.93-2.27C568.69,756.07,573.28,764.82,573.71,773.69Zm-29-18.7c-12.7.12-14.18,2.48-8.54,13.72,4.1,8.16,8.47,16.21,12.33,24.49,1.92,4.13,3.86,4.56,7.56,2.12,8.54-5.63,12.86-16.11,10-25.22C563.07,760.63,555,754.89,544.68,755Z"/><path class="cls-1" d="M521.14,778.38c-5.32,14,4.18,22.75,14,31.36,2.08,1.83,4,3.8,6,5.76,1.21,1.21,2.29,2.86,1.2,4.37s-3.44,1-4.53.07c-10-8.42-22.32-14-23.89-30.52-1-10.58,1.2-20.55.72-30.81-.1-2.14.29-5,3.11-5,2.57,0,2,2.88,2.17,4.58C520.42,764.57,520.7,770.93,521.14,778.38Z"/><path class="cls-1" d="M507.7,777.91c0,2,.29,3.58-1.51,4a4.3,4.3,0,0,1-5-2.24c-3.26-5.79-6.38-11.66-9.5-17.53-1.52-2.86-1.64-6.34-4.24-8.77-2.16-2-.91-4,.9-5.51,1.35-1.09,3.55-1.59,4.44.13C498,758.08,502.94,768.28,507.7,777.91Z"/><path class="cls-1" d="M623.36,845.78c5.52,0,11,.1,16.57,0,2.39-.06,3.59.83,3.94,3.13.41,2.73-1.2,3.33-3.41,3.31-10,0-19.92.11-29.86-.33-2.59-.11-7.05-.26-6.45-4.62s4.35-1.81,6.77-1.87c4.14-.1,8.29,0,12.44,0Z"/><path class="cls-1" d="M663,849c-2.07-.55-4.61,1-5.09-2-.38-2.37,1.33-3.71,3.27-4.18,9.7-2.36,19.27-5.48,29.35-5.85,2-.07,5-1.09,5.33,2.17.23,2.23-2.06,3.19-4,3.62C682.18,844.94,672.42,847,663,849Z"/><path class="cls-1" d="M820.27,815.11c11.25.26,22.26-3.75,33.6-1.89,1.87,3.5.44,5.18-3.14,5.58-9.9,1.1-19.79,2.27-29.71,3.19-2.25.2-5.68,1.32-6.29-2.09C814.06,816.13,817.76,816,820.27,815.11Z"/><path class="cls-1" d="M766.77,821.64l31.84-3.56c3.95,2.84,1.94,4.92-1.27,5.51-10.09,1.86-20.26,3.33-30.42,4.71-1.83.25-4.3-.4-4.6-2.67C761.91,822.65,764.81,822.48,766.77,821.64Z"/><path class="cls-1" d="M713.27,831.76c1.28.14,2.62.45,3.43-1,2.91-.08,5.77-.36,8.29-2,6.36,0,12.44-1.56,18.43-3.51,2.25.62,5.44.29,4.93,4-.33,2.42-2.69,2.4-4.52,2.75-9.4,1.79-18.81,3.6-28.24,5.24-1.74.3-4.11,1-5.11-1.23C709.4,833.56,711.62,832.72,713.27,831.76Z"/><path class="cls-1" d="M1107.91,227.38a192,192,0,0,0-31.77-2.2c-.8-1.39-3.58-1-3.26-3.21s2.07-3.23,4.2-3.14c11.1.48,22.21,1,33.31,1.58a2.37,2.37,0,0,1,2.54,2.6C1112.84,226.23,1110.45,226.93,1107.91,227.38Z"/><path class="cls-1" d="M1240.22,240.91,1224.88,239c-3.43-1.69-10.09-.85-9.37-5.65.5-3.37,6.75-1.53,10.33-1.13,7.92.88,15.8,2.19,23.65,3.62,2.48.46,6.3.85,5.25,4.74-.87,3.27-4.2,1.44-6.4,1.41A61.17,61.17,0,0,1,1240.22,240.91Z"/><path class="cls-1" d="M1298.81,252l-27.11-6.21c-1.92-.53-3.84-1.1-3.2-3.75.57-2.41,2.63-1.61,4-1.52,11.4.72,22.24,4.21,33.17,7.16,1.26.34,2.72,1.11,2.27,2.89s-2,1.61-3.38,1.62C1302.68,252.17,1300.74,252,1298.81,252Z"/><path class="cls-1" d="M843.47,224.8l-33.23,2.63c-2.69-.31-3.87-1.65-3.28-4.46.44-2.08,1.92-2.55,3.64-2.64,10.2-.53,20.41-1.17,30.62-1.46C846.83,218.7,846.74,221.29,843.47,224.8Z"/><path class="cls-1" d="M736.72,233.87c-11.94-1.13-23.23,4.36-35.15,3.48-3.16-3.55-1.78-6,2.27-6.63q14.65-2.22,29.42-3.6C739.18,226.56,740.22,229.23,736.72,233.87Z"/><path class="cls-1" d="M686.29,239.91l-31.54,6c-2.42-1.08-7.09,1.73-7.11-3.28,0-4.38,4.14-3.55,7-4,8.52-1.23,17-2.5,25.56-3.6C683.71,234.58,687.22,234.6,686.29,239.91Z"/><path class="cls-1" d="M630.92,249.47c-9.65,2.14-19.39,4-28.93,6.55-4.26,1.15-6.31.59-6.62-3.94,10.06-4.53,20.87-6.37,31.58-8.44C631.76,242.71,635.18,243.74,630.92,249.47Z"/><path class="cls-1" d="M786.9,229.12l-23.47,2.16c-.82-.11-1.66-.16-2.47-.33-2.77-.54-7.39,1-7.47-3.13-.08-4.77,4.67-2.29,7.22-2.69,7.95-1.23,16-2.09,24-2.92,2.39-.25,5.56-.91,6.61,2C792.58,227.79,788,227.06,786.9,229.12Z"/><path class="cls-1" d="M1048.54,810.63c4.69,0,9.47.55,14-.17,3.76-.59,4.38,1.61,4.94,3.87,1,3.95-2.3,3-4.16,2.89-10.23-.45-20.45-1.14-30.67-1.64-2.44-.12-4.77-.56-4.7-3.4.09-4,3.39-2.75,5.62-2.68,5,.15,10,.55,14.92.85Z"/><path class="cls-1" d="M1120.64,821c-12.09,2.42-23.71-.13-35.4-1.79-1.55-.22-2.64-.75-2.5-2.54.19-2.38,2.44-4,3.84-3.72C1098,815,1110.33,813.59,1120.64,821Z"/><path class="cls-1" d="M1141,819.05c9.56,1.75,19.18,2.74,28.33,5.93,1.74.6,4.3,1.14,3.42,3.56s-3.15,1.14-5,.85c-9-1.36-18-2.61-26.94-3.81-2.26-.3-5.19-.49-5.24-3C1135.49,819.52,1138.72,819.47,1141,819.05Z"/><path class="cls-1" d="M978.73,214.1c7.44.42,14.89.82,22.33,1.29,2.19.14,4.92.25,5.09,3s-2.37,3.54-4.68,3.44c-10.2-.43-20.39-1-30.59-1.54-2.42-.14-3.34-1.72-3.18-3.94s1.81-2.52,3.57-2.54c2.49,0,5,0,7.46,0Z"/><path class="cls-1" d="M920.58,221.55c-4.41.45-7.18.65-7.49-2.16-.34-3.06,2.24-3.93,5-4.31,9.4-1.3,18.85-1.37,28.31-1.31,2.23,0,4.48-.31,4.56,3.14.09,3.26-1.72,3.51-4.22,3.49C937.28,220.31,927.82,220.29,920.58,221.55Z"/><rect class="cls-2" width="1" height="1"/><rect class="cls-2" x="1919" y="1079" width="1" height="1"/><rect class="cls-2" y="1079" width="1" height="1"/><rect class="cls-2" x="1919" width="1" height="1"/></g><g id="Capa_3" data-name="Capa 3"><path d="M844.85,468.35v111H825V508.64l-19.51,14.91-16.18,12.53-16.18-12.53-19.51-14.91v70.74H733.82v-111l19.83,15.22L789.34,511,825,483.57Z"/><path d="M898.78,505.31v75.5H879V503.24a15.8,15.8,0,0,0-13.48-13.48H861V470.09h4.28v.16a35.55,35.55,0,0,1,13.48,3.65,35.17,35.17,0,0,1,16,16.18,42.55,42.55,0,0,1,2.7,7.45,33.53,33.53,0,0,1,1,8.09Z"/><path d="M952.39,505.31v75.5H932.56V503.24a15.8,15.8,0,0,0-13.48-13.48h-4.44V470.09h4.28v.16a35.55,35.55,0,0,1,13.48,3.65,35.17,35.17,0,0,1,16,16.18,42.55,42.55,0,0,1,2.7,7.45,33.53,33.53,0,0,1,1,8.09Z"/><path d="M1055.8,488a34.44,34.44,0,0,1,3.65,15.54v75.66h-19.83V501.66a15.83,15.83,0,0,0-13.48-13.49H967.93V468.35h56.31a34.47,34.47,0,0,1,15.54,3.65,35.2,35.2,0,0,1,16,16.17Z"/><path d="M1186.18,468.35v111h-19.83V533.7h-58.53a31.42,31.42,0,0,1-14.91-3.65,32.39,32.39,0,0,1-17.76-29V468.35H1095V501a13.07,13.07,0,0,0,13,13h58.53V468.35Z"/></g></g></svg>