<svg xmlns="http://www.w3.org/2000/svg" viewBox="0 0 1920 1080"><defs><style>.cls-1{fill:#f2f2f2;}.cls-2{fill:#020202;}</style></defs><g id="Capa_2" data-name="Capa 2"><g id="Capa_1-2" data-name="Capa 1"><rect class="cls-1" width="1" height="1"/><rect class="cls-1" x="1919" y="1079" width="1" height="1"/><rect class="cls-1" y="1079" width="1" height="1"/><rect class="cls-1" x="1919" width="1" height="1"/><path class="cls-2" d="M1539.05,763.87c2-1.1,4.63-3,2.47-4.75s-3.41,1.42-4.09,3.53c-2.16.83-3.79,2.11-3.46,4.7.06.46.93,1.24,1.23,1.16C1537.52,767.88,1538.51,766,1539.05,763.87ZM952.3,772.66c-8.07,0-16.13.12-24.19.19-4.86-2.47-5.26-5.28.46-6.23a60.65,60.65,0,0,1,16.43-.13l21.49.31c1.89.24,4.27.7,4.08,3.12-.26,3.2-3.62,1.8-5.39,2.86Zm12.81,3.8,25.22.53,34.89,1.85c7.76,2.75,15.72.92,23.6,1.08l43,4.61c6.43,1.11,12.53,4.18,19.31,3.18l34.61,7.3,25.74,6.31c12.14,4.59,24.35,9,37,12,7.11,2.65,13.84,6.37,21.46,7.56l40.73,16,21,9.3c7,3.81,13.76,8.4,21.91,9.77,52.63,21.16,103.29,16.18,151.88-12.11,27.92-16.25,46.63-41.67,64.87-67.41,1-1.46,3.27-3.12,1.25-4.89-2.73-2.39-3.79,1-5.18,2.34-2.54,2.49-4.77,5.29-7.25,7.85-1.78,1.85-4,4.34-6.56,2.66-2.88-1.85-1.27-5.06.25-6.89,7.46-9,15.16-17.72,22.94-26.41a5.38,5.38,0,0,1,4.26-1.55c2.36.46,2.27,2.64,2,4.7-.18,1.62-1.85,3.8,1.49,4.63,14.69-17.12,33.84-23.76,56-23.57,27.25.23,54.51-.09,81.75.19,6.79.07,9.9-1.37,9.82-9.1q-.56-50.1,0-100.21c.08-6.76-2.3-8-8.38-7.85q-27.24.57-54.5.1c-16.55-.27-24.65-7.89-25-24.37-.59-28.52-.33-57.06-.59-85.6-.13-15.22-2.44-17.88-18.14-22.21-.23.92-.52,1.83-.68,2.76-.5,2.89,1.39,7.39-3.71,7.4-4.76,0-3.79-4.4-4.15-7.4-.84-7-4.23-11.28-10.77-14.73-92.54-48.77-188.33-89.9-287.81-122.23-88.24-28.68-179.59-37.79-271.7-40.37-59.65-1.68-119.3-.89-178.83,4.88-50.34,4.89-100.49,11.1-149.1,25.06C554,377.24,436.58,428.6,323.8,490.79c-5.75,3.17-7.35,7-7.3,13.15.27,28.54.22,57.08.19,85.62,0,20.11-8,28.53-28,28.93-17.19.33-34.4.37-51.58-.13-6.67-.19-8.11,2.07-8.06,8.29q.38,50.58-.08,101.18c-.08,6.81,2.38,7.84,8.44,7.74,23.67-.37,47.38.37,71-.39,20.49-.65,39.88,1.63,57.07,13.83l17.33,17.92,23,31.22c30.67,42.28,72.05,65.75,124.12,69.91,32.26,2.58,62.21-4.85,91.47-19,33-16,67.74-28.08,102.44-40,6.79-3.33,14.78-3.25,21.26-7.45,10.2-.66,19.74-4.06,29.37-7.05l29.08-6.39c13.81-.7,27.34-3.27,40.86-5.92,7.22.14,14.42.12,21.38-2.2a217.23,217.23,0,0,0,39-2.1L928,777.1q12.08.14,24.13.25Zm8.09-505.8s75.15,1.92,101.76,5c12.85,1.49,24,2.87,35.17,4.08,61.24,6.63,121.89,16.41,181.38,32.8,96.89,26.68,187.89,67.88,277.44,112.58,31.66,15.81,48.85,41.58,49,77.62.11,28.21,0,56.43.09,84.64,0,15.43.4,15.67,15.84,15.73,18.82.08,37.79-1.29,56.38.79,0,0,15,1.43,15,3.86.41,39.56,1,79.11,1,118.68,0,19.54-4.77,24.39-24,24.45-28.55.1-57.1,0-85.65,0-19.58,0-34.84,8.12-46.35,24-16.54,22.78-31.63,46.71-53.5,65.22a188.79,188.79,0,0,1-60.4,34.44s-28.55,9.51-55.78,9.51a190.23,190.23,0,0,1-85.17-18.93c-16.26-7.77-32.49-15.71-49.76-21.16-35.53-14.46-71.73-27-109.15-35.48-51.23-11.66-103.31-16-155.76-16.3,0,0-45.12-1.78-88.33,1.72-45,2.41-89.51,8.29-133,20.69-49.21,14-96.47,33.11-143.28,53.78-61.91,27.35-121.71,20.15-178.18-16.57-22.4-14.56-38.4-35.34-54.17-56.3-6.29-9.8-12.75-19.54-20.77-28C352.73,756.76,340,751,324.91,751c-30.17-.07-60.34,0-90.51,0-14.7,0-20.65-6-20.65-20.65V616.79s.79-10.85,9.51-12c21-3.49,42.06-1,63.09-1.56,14.32-.39,14.85-.67,14.88-14.74.06-28.22-.3-56.44.21-84.65.62-35,15.66-62,47.38-77.82,89.31-44.56,180-85.8,276.52-112.72,59.43-16.59,120.1-26.48,181.32-33.44,47.73-5.43,95.57-8.79,143.59-9.5ZM970,303.37c38.89.83,77.74,2.39,116.54,5.49,81.66,6.5,161.2,22.55,238.08,51.13,65.1,24.2,129.65,49.71,191.79,80.94,15.53,7.8,31.15,15.4,46.62,23,2.65-2.46-1.33-6.71,2.51-7.75s5.84,2.72,7.31,5.26c6.05,10.51,14.15,18.28,28.09,22.12-7.06-18.89-16.71-33.42-33.54-41.72q-45.27-22.32-91-43.78c-103.2-48.36-210.57-83-323.86-98.18-33.76-4.51-67.67-7.37-101.58-10.33-26.8-2.34-53.62-4.58-80.57-3.77l-21.68.05c-68,.58-135.61,7.1-202.84,17.43a990.93,990.93,0,0,0-110.11,23C550.23,349.63,469,384.05,389.71,423.22c-14.77,7.3-30.52,12.74-44,22.58-12.74,9.31-21.42,21.42-26.63,38.1,11.15-4.61,19.54-9.52,25.16-18.44,6-9.51,13.87-17.1,24.34-21.61,2-.85,4.78-2.1,6.24.27,1.77,2.86-.71,4.51-2.92,6.1-4.63,3.34-10.1,5.57-13.93,10.15,4,2,7.12-.17,10.17-1.81C426.91,426.81,488,400,550.29,376.28c62.67-23.84,126-46.26,193-56.35,47.09-7.1,94.19-12.63,141.75-14.67,22.67-1,45.33-2.33,68-1.91Zm-.32-11.48c2.19.56,5,.85,4.48,3.87-.4,2.56-3.08,1.52-4.82,1.83l-16.22.31c-6.16,0-12.33.13-18.48-.11-2.29-.09-6.07,1-6.11-2.8,0-3.61,3.6-3,6-3.13,4.53-.17,9.14.4,13.6-.17Z"/><path class="cls-2" d="M290.78,724.2c-2.46-2.93-1.35-5.93-1.37-8.67-.05-5.36-1-8.48-7.63-9.82-11.69-2.36-16.79-13.87-18.13-22.87-1.07-7.23,4.45-18.41,13.39-21.64,10.43-3.76,15-9.34,13.87-21.42-2.62,16.24,10.58,18.72,18.73,25.32,1.67,1.35,3.57,3.67,3.59,5.57.14,10.67,8.24,10.94,15.48,12.52,2.06.46,3.88.34,4.93-1.7,1.15-2.24,1.81-5.49,5.24-4.12,2.45,1,1.63,4,1.9,6.12,1.29,10.35,3.59,20.33,9.65,29.09,1.55,2.23,3,5.25.34,6.85-3.11,1.89-5.26-1-6.86-3.56-5.39-8.55-10-17.37-9.79-27.89.09-5-.22-7.19-7.16-5.33-7.3,2-12.14,3.84-14.39,11.62a14.61,14.61,0,0,1-10.12,9.86c-8.7,2-10.27,7.17-9.2,14.74C293.5,720.64,293.83,722.85,290.78,724.2Zm-1.17-33.11c-1.77-2.26,1.89-9.48-5.52-7.57-3.09.8-10.19-2.53-9.5,4.28.55,5.46,5,9.92,11,10.79C291.16,699.42,288.91,694.64,289.61,691.09Zm-1.89-26c-7.88,2-11.81,6.22-13.78,12.38-.56,1.77-.93,4.16.95,5.32,3.71,2.29,12.78-3.7,12.82-8.3C287.75,671.65,287.72,668.79,287.72,665.11Zm12.19,16.59c2-1.15,8.22,2.64,7.3-4.28-.81-6.1-5.15-11.11-10.94-11.86-5.3-.68-2.71,5-2.93,7.86C293,677.41,291.1,683.29,299.91,681.7Zm.37,3.06c-6-1.9-8.12.57-6.95,6.07.56,2.64-2.36,7.94,2.8,7.42a12.81,12.81,0,0,0,11-10.74C308,681.93,302.55,685.58,300.28,684.76Z"/><path class="cls-2" d="M1628.41,641c5.82,4.63-.77,12.77,5,15.86,4.79,2.57,10.28,3.81,13.89,8.34,1,1.27,2.52,2.44,2.86,3.88,2.37,10.07,7.8,15.57,19.13,12-.44,1.86-.64,2.83-.68,2.83-9.7-1.53-16.31,1.05-18.86,11.77-1,4.23-5.41,7.93-9.82,8.79-8.52,1.65-9.71,6.78-8.79,14,.25,1.89,1.25,5.15-2.29,5.25-2.95.08-2.33-2.81-2-4.44,1.51-8.39-1.36-12.76-10-15.17-7.18-2-10.68-9-12.64-16.17-1-3.49-2-6.23-6.55-4.28-5.27,2.28-10.45-2.18-16-.15-3.18,1.16-3.1-2.35-3.1-4.54q0-17.51.14-35c0-2.59,0-5.75,3.64-5.54,3.33.2,3.61,3.32,3.63,5.93.1,10.37,0,20.75.17,31.12,0,2.4-1.62,7.45,3,6.14s11.75,5.33,14.24-2.77c3.29-10.69,8.7-18.69,20.12-21.36,3.37-.79,3.45-3.26,3.51-6C1627,648.17,1625.74,644.57,1628.41,641Zm4.47,57.3c7.14-1.71,12.75-4.69,11.21-13.58,5-8.32-1.38-12.76-6.09-17.75-1.36-1.44-3.15-2.56-5.07-2-3,.85-1.82,3.69-1.83,5.64,0,4.76.34,9.52.55,14.28l-.27,11.62C1631.06,697.79,1631.31,698.6,1632.88,698.32Zm-6-20.44c0-2.41-.15-5,0-7.54.38-5.2-1.92-6.75-6.13-4-5.19,3.4-9.2,7.72-9.2,14.73,0,7.47,3.15,13,9.36,16.68,3.35,2,6,1.65,6.12-3.47C1627.16,688.85,1625.12,683.48,1626.89,677.88Z"/><path class="cls-2" d="M1303.37,777.44c-.09-14.25,10-24.76,24.08-25,14.46-.23,26.12,10.37,26.51,24.09.39,13.94-11.41,26.12-25.65,26.47C1314.47,803.36,1303.45,792.06,1303.37,777.44Zm24.84-17.26a17.47,17.47,0,0,0-17.47,17.07c-.13,8.77,8.4,17.57,17.24,17.8,9.08.23,18.34-9,18.07-18S1337.53,760.16,1328.21,760.18Z"/><path class="cls-2" d="M696.74,436.29c.12,14.09-10.56,24.68-25.1,24.9-14.31.23-25.32-10.42-25.49-24.63C646,422.79,657.32,411,671,410.81,685.74,410.57,696.61,421.33,696.74,436.29Zm-7.85.52c.16-9.44-8.35-18.4-17.5-18.44-8.55,0-17.6,9-17.5,17.54.11,9,8.47,17.47,17.33,17.59A17.14,17.14,0,0,0,688.89,436.81Z"/><path class="cls-2" d="M612.68,791.65c-15.3,14.84-27.52,15.25-42.35,1.39-3.64-7.77-6.05-15.73-3.07-24.3,4.4-12.6,18.37-19.33,31.77-15.4,12,3.53,20.06,17.84,16.8,30.21A77,77,0,0,1,612.68,791.65Zm-3.9-14.88c-.2-9.17-8.23-16.6-17.91-16.56a16.72,16.72,0,0,0-17,17.25c.13,9.32,9.36,18.32,18.29,17.82C600.86,794.79,609,785.76,608.78,776.77Z"/><path class="cls-2" d="M1247.33,461.2a24.92,24.92,0,0,1-24.95-25.52c.16-13,12-24.88,25-25a25.64,25.64,0,0,1,25.84,25.94C1273.19,450.23,1261.61,461.24,1247.33,461.2Zm0-42.85c-8.31,0-17.37,9.54-17.15,18,.24,9.19,8.41,17.13,17.67,17.15,9.8,0,17.1-7.25,17.17-17.12A17.86,17.86,0,0,0,1247.34,418.35Z"/><path class="cls-2" d="M340.86,512.79c0,6.11.1,12.22-.05,18.33-.06,2.08.18,5-3.35,4.55-2.26-.27-3.18-1.9-3.18-4.1,0-12.55-.08-25.1,0-37.64a3.89,3.89,0,0,1,4.41-4.11c2.51.29,2.16,2.84,2.19,4.63.11,6.11,0,12.23,0,18.34Z"/><path class="cls-2" d="M334.26,637.38c0-5.8,0-11.61,0-17.41,0-2.41.61-4.75,3.61-4.57,2.46.14,2.73,2.4,2.82,4.35.55,12.24,1.3,24.48.18,36.72-.16,1.72.17,4.39-2.39,4.49a4,4,0,0,1-4.32-4.25c-.1-6.45,0-12.89,0-19.33Z"/><path class="cls-2" d="M334.35,576.6c0-6.15-.06-12.3,0-18.45,0-2.3.41-4.89,3.44-4.8,2.43.07,2.83,2.34,2.9,4.34.43,12.29,1.56,24.59.15,36.89-.24,2.11,0,5-3.44,4.61-3-.31-3.25-2.74-3.26-5.09,0-5.83,0-11.66,0-17.49Z"/><path class="cls-2" d="M1581.73,705.34c-.79,1.83-1.38,4.49-2.88,6.46q-9,11.91-18.58,23.42c-1.86,2.25-4.87,4.27-7.57,1.91s.24-4.71,1.56-6.61c6.42-9.25,14.7-17.1,20.42-26.9,1-1.66,2.68-3,4.8-2.55C1581.19,701.45,1582,702.91,1581.73,705.34Z"/><path class="cls-2" d="M1501.52,799.49c-1.1,2-1.69,4-3,5.37a145.37,145.37,0,0,1-24.16,20.89c-2.09,1.4-4.93,3.48-6.94,1.23-2.35-2.64.89-4.53,2.6-6.17q11.93-11.38,24.07-22.55c1.57-1.45,3.45-3.45,5.93-2C1500.9,796.82,1501.06,798.43,1501.52,799.49Z"/><path class="cls-2" d="M1362.86,852.29c9.81,1.83,16.84-.15,23.93-.13,3.14,0,6.28.58,6.38,4.24.09,3.45-3.22,3.27-5.75,3.64-10.9,1.62-21.78,2.42-32.71.06-3-.65-6.11-.85-5.81-4.85s3.65-2.81,6-2.92C1358.44,852.16,1362,852.29,1362.86,852.29Z"/><path class="cls-2" d="M425,796.18c2.7,3.53,5.55,7,8,10.65,1.18,1.77,2.37,4.33,0,6-1.71,1.19-3.65,0-5.09-1.43q-9.24-9-18.46-18a21.17,21.17,0,0,1-3.06-3.54c-1.74-3.18-5.63-7.19-2.69-10,3.79-3.65,6.63,1.46,9.2,3.88C417.14,787.68,421,792,425,796.18Z"/><path class="cls-2" d="M1417.17,854.79c-3.73.8-5.63.52-6.19-1.86-.47-2,.07-3.83,2.31-4.67q17.61-6.54,35.22-13.07c1.59-.59,3.51-.61,4.44.82,1.32,2-.08,3.82-1.8,4.83A144.07,144.07,0,0,1,1417.17,854.79Z"/><path class="cls-2" d="M1578.59,598.61c0-6.15,0-12.31,0-18.46,0-2,.1-4.36,2.31-4.82a3.59,3.59,0,0,1,4.14,3.26,196.86,196.86,0,0,1,.13,40.61,3.41,3.41,0,0,1-4,3.29c-2.56-.37-2.63-2.51-2.65-4.45,0-6.48,0-12.95,0-19.43Z"/><path class="cls-2" d="M774.26,791.29A140.33,140.33,0,0,0,745.14,798c-6.58-2.94-4.78-6.15.4-7.76,10.16-3.15,20.53-5.65,30.9-8.06,2.86-.66,7.19-2.52,8.48,1.75,1.43,4.72-4,3.86-6.26,5.52A21,21,0,0,1,774.26,791.29Z"/><path class="cls-2" d="M1313.25,850.88c-7.35-2-13.06-8-21.06-8.42-2.31-1.41-4.44-3.16-2.74-6.08,1.24-2.14,3.35-.79,5.17-.35,11.54,2.79,22.36,7.64,33.4,11.82,2.18.83,4.25,2.41,3.2,5.08-.84,2.16-3.29,1.76-5.06,1.37C1321.82,853.34,1317.55,852,1313.25,850.88Z"/><path class="cls-2" d="M1578.53,536.93c0-6.12,0-12.24,0-18.36,0-2.17-.25-4.86,3-4.91,2.35,0,3.52,1.92,3.69,3.81a253,253,0,0,1,.14,39.51,3.51,3.51,0,0,1-4,3.31c-2.65-.11-3-2-3-4,0-6.44,0-12.88,0-19.33Z"/><path class="cls-2" d="M723.67,803.38c-10.9,7.71-24.25,9.5-36.11,14.88-2.4,1.09-4.3.44-5.45-2.13-1.29-2.85.47-4.28,2.58-5.25,4.63-2.12,9.37-4,14.06-6,6.08-1.85,12.27-3.42,18.21-5.64C721.48,797.55,723.54,798.58,723.67,803.38Z"/><path class="cls-2" d="M1208.51,809.78l-36.82-14.41c.19-6.08,4.72-4.29,7.71-3.72,11,2.09,21.5,6,31.72,10.48,2.27,1,5.22,2.49,4.58,5.47C1214.78,811.85,1211,809.13,1208.51,809.78Z"/><path class="cls-2" d="M904.49,773.68l-38.68,3.17c-4.61-3.49-2.74-6.5,1.54-7,12.35-1.55,24.8-2.32,37.22-3.27,1.87-.14,3.78.24,4.14,2.86C909.17,772.81,905.48,771.86,904.49,773.68Z"/><path class="cls-2" d="M1091.71,780.56c-14.26-2.15-28.87-1.93-42.79-6.36,0-3.54,2.34-4.15,5.15-4.2a177.65,177.65,0,0,1,36.48,3.13C1095.61,774.09,1098.46,777,1091.71,780.56Z"/><path class="cls-2" d="M385.22,764.55c-5.23-7.84-10.48-15.67-19.55-19.69-.69-4-7.19-8.17-2.25-11.56,4.63-3.18,7.63,3,10.28,6.14,7.12,8.5,15.89,15.76,21.22,26C390.87,767.21,388,766.59,385.22,764.55Z"/><path class="cls-2" d="M844.06,779.36c-14.15.13-27.73,6.17-42.1,4.06-1-4,1-6.16,4.75-6.68,11.35-1.59,22.71-3.15,34.1-4.43C848.24,771.48,847.33,775,844.06,779.36Z"/><path class="cls-2" d="M1146,790.78c-11.23-4.14-23.89-2.87-34.57-9.11-1-5.88,3.07-4.45,6-3.91q15.27,2.75,30.48,5.87c3.3.67,8.71.53,7.76,5.21C1154.54,794.49,1149.44,790.9,1146,790.78Z"/><path class="cls-2" d="M1270.82,831.6c-13.92-2.34-26-9.64-38.88-14.65-.78-3.49-1.07-7.21,4.15-5.42,11.84,4,23.76,8,34.74,14.14C1273.64,827.24,1275.44,829.63,1270.82,831.6Z"/><path class="cls-2" d="M1025.53,774.92a178.07,178.07,0,0,0-35.13-2c-3.39-4-2.7-6.52,2.81-6.45,11,.14,22,.38,32.93.93,2.22.11,6,0,5.94,3.52C1032.06,775,1028.27,774.43,1025.53,774.92Z"/><path class="cls-2" d="M541.34,861.24c-11.29-1.46-22.4-1.26-33-4.54-3-.92-6.23-2.23-5.6-5.53.74-3.85,4.54-3,7.3-2.24,10.41,2.71,21.13,2.87,31.7,4.23,3.13.41,7.24.81,6.47,5.38C547.48,862.63,543.6,860.94,541.34,861.24Z"/><path class="cls-2" d="M450.86,822.46c2.05.91,3.87,1.57,5.53,2.49q13.49,7.5,26.91,15.12c2.4,1.37,4.41,3.43,3.39,6.22-1.3,3.52-4.24,1.87-6.46,1-10.7-4.46-21.21-9.32-30-17.08-1.68-1.47-3.53-3.24-2.36-5.77C448.26,823.49,449.79,823.11,450.86,822.46Z"/><path class="cls-2" d="M570.53,859.39c-2.79,0-5.56.34-6.21-2.4-.75-3.21,1.65-4.42,4.47-5,11.63-2.31,23.3-4.51,34.59-8.28,1.83-.62,4.09-1.14,5,1.12,1.13,2.82-1.37,4.1-3.29,5C594,855.31,581.91,857,570.53,859.39Z"/><path class="cls-2" d="M667.38,820.42c-5.24,8.65-13,9.85-19.33,13.27-5.87,3.16-13,3.39-18.2,8a3.4,3.4,0,0,1-5.1-.36c-1.61-2.15-1.21-4.76,1-5.83C638.68,829.39,651.07,821.68,667.38,820.42Z"/><path class="cls-2" d="M1314.63,352.12c-1.76-.57-3.64-1.07-5.44-1.78-21.63-8.5-44.33-13.61-66.29-21.06-2.09-.71-5.84.3-5.22-3.9.7-4.71,4.48-3.06,6.85-2.49,24.49,5.82,48.24,14.11,72,22.32,2,.7,4.62,2,4,4.72C1319.77,352.9,1316.86,351.86,1314.63,352.12Z"/><path class="cls-2" d="M1449.41,402.33c7.81-3.19,12-.42,16.36,1.45,8,3.43,15.91,7,23.9,10.39,2.58,1.1,5,2.63,4,5.57-1.14,3.5-4.11,2.24-6.49,1.21C1475,415.7,1462.62,410.61,1449.41,402.33Z"/><path class="cls-2" d="M1398.11,375.88c12,4.09,24.13,8.22,35.31,14.77,1.42.83,3,1.84,2.46,3.65a3.46,3.46,0,0,1-4.7,2.27c-11.88-4.81-23.69-9.8-35.46-14.88a3.06,3.06,0,0,1-1.9-3.95C1394.53,375.89,1396.24,375.91,1398.11,375.88Z"/><path class="cls-2" d="M1009.14,291.8c5.68.49,13.38,1.13,21.08,1.84,2.17.2,4.82-.07,5,3.22s-2.33,3.6-4.61,3.51c-11.59-.5-23.18-1-34.74-1.85-2.21-.16-5.93-.11-5.57-3.82s3.8-2.73,6.19-2.85C1000,291.67,1003.54,291.8,1009.14,291.8Z"/><path class="cls-2" d="M1370.55,372.72c-9.57-3.83-21-8.33-32.36-13.06-1.72-.72-3.14-2.88-1.8-4.75.67-1,3.1-1.55,4.31-1.11,11.73,4.27,23.37,8.78,35,13.26,1.61.62,3.14,2.15,2.64,3.6C1377.5,373.18,1374.92,373.1,1370.55,372.72Z"/><path class="cls-2" d="M1543.65,448.55c-10.56-5.36-21.15-10.68-31.66-16.14-1.72-.89-3.3-2.71-2.44-4.73,1-2.3,3.33-1.4,5.08-.86,11.44,3.61,21.52,10.14,32.29,15.18,1.81.85,3.41,2.34,2.33,4.58S1546,448,1543.65,448.55Z"/><path class="cls-2" d="M1088.78,303.52c-12.15-.84-21.44-1.38-30.71-2.18-3-.26-7.38-.34-6.93-4.67.42-4,4.59-2.61,7.14-2.41,10.24.79,20.46,1.94,30.68,2.93,3.18.3,7.84.13,7.65,3.92-.25,4.66-5,1.8-7.82,2.38C1087.87,303.69,1086.87,303.52,1088.78,303.52Z"/><path class="cls-2" d="M1183.68,309.22c10.4,2.21,22,4.59,33.57,7.21,2.08.47,4.56,1.71,3.67,4.6-.73,2.39-3.2,1.93-5,1.63-11.38-2-22.76-4-34.1-6.25-2.09-.41-4.56-1.13-4.43-4.18C1177.57,308.68,1180.31,309.58,1183.68,309.22Z"/><path class="cls-2" d="M1151,311.26c-10.08-1.47-20.3-2.85-30.48-4.54-2-.33-5.28-.7-5-3.48.32-3.1,3.44-3.55,6.09-3.21,10.25,1.32,20.5,2.7,30.71,4.3,2.24.36,5.75,0,5.45,3.95C1157.36,313.18,1153.46,310.49,1151,311.26Z"/><path class="cls-2" d="M394.69,439.36c-2.31-.66-3.74-1.35-4.15-3.17a3.67,3.67,0,0,1,1.71-4.21q17.92-8.52,36-16.77a2.71,2.71,0,0,1,4,1.58c.3,1,0,3-.72,3.41C419.28,426.7,407,433,394.69,439.36Z"/><path class="cls-2" d="M881.18,301.25c-4.21,0-8.42,0-12.63,0-2,0-4.11-.5-4.11-3a3.87,3.87,0,0,1,3.5-4c13.24-.52,26.48-.83,39.73-1.12,1.23,0,2.68.44,2.65,2.11,0,2-1.82,2.63-3.25,3.13C898.68,301.27,889.92,301.19,881.18,301.25Z"/><path class="cls-2" d="M604.65,345.68c-.36,5.39-2.84,7.34-6,8.55-9.64,3.7-19.28,7.38-29,10.87-2.33.83-5.5,1.81-7-1.06-1.71-3.34,1.59-4.62,3.79-5.55C578.57,353.4,590.7,348.31,604.65,345.68Z"/><path class="cls-2" d="M626.92,344.45c-2.11-.34-4.89.63-5.92-2-1.16-3,1.5-3.83,3.51-4.72,11.26-5,23.26-7.45,35.14-10.32,1.57-.38,3.37-.6,4,1.4a4.14,4.14,0,0,1-2.62,5.52C649.72,337.83,638.31,341.09,626.92,344.45Z"/><path class="cls-2" d="M726.09,314.3c-7.88,8.25-18.75,7.49-28.36,10.33-4.28,1.26-8.88,1.51-13.36,2-1.48.17-3.48.37-3.86-1.8a3.25,3.25,0,0,1,2.45-3.66C696.9,316.51,711.08,313.17,726.09,314.3Z"/><path class="cls-2" d="M817.43,305.52c-1.93,0-3.94.33-5.77-.08-2.71-.61-7.39,2.42-7.74-2.55-.26-3.64,4-3.5,6.75-3.78,10.85-1.11,21.73-2.07,32.6-3,1.9-.16,4.26-.1,4.93,2.08,1.06,3.48-2.4,3.33-4.12,3.88C835.43,304.84,826.42,305.17,817.43,305.52Z"/><path class="cls-2" d="M488.49,392.76c-.37,3.33-2,4.53-3.74,5.3-10.61,4.63-21.22,9.26-31.92,13.67-2.24.93-5.44,1.9-6.58-1.4-.87-2.53,1.63-4.14,3.64-5q16.89-7.14,33.93-13.9C485.69,390.71,488.42,390.18,488.49,392.76Z"/><path class="cls-2" d="M546.34,369.61a7.16,7.16,0,0,1-4.68,5.19c-9.81,4.15-19.6,8.36-29.56,12.14-2.35.9-6.17,2.47-7.57-1.22-1.16-3,2-4.44,4.38-5.41,10.15-4.18,20.32-8.35,30.59-12.2C541.75,367.26,545.13,365.63,546.34,369.61Z"/><path class="cls-2" d="M780.6,302.84c2.59.32,6.2-1.65,6.76,1.87s-2.81,4.29-5.89,4.75c-11.15,1.68-22.27,3.55-33.42,5.28-2.48.39-5.75,1.35-6.27-2.27-.42-2.91,2.71-2.91,4.8-3.6C757.72,305.2,769.4,304.69,780.6,302.84Z"/><path class="cls-2" d="M1678.31,115.16c.15-6.07-1.46-8.65-8-8.63Q1545.66,107,1421,107c-5.25,0-7.48,1.51-6.68,6.73.7,4.5-1.16,5.85-5.64,5.81q-31.07-.28-62.13,0s-9.62-1.39-9.62,6.58-.28,22.09-.28,22.09c.09,3-.78,4.76-4.23,4.73-22.05-.2-44.1-.31-66.15-.45-27.18,1.06-54.36,1.1-81.53-.1-10.19.2-20.38.31-30.55.67-4.07.14-5.5-1.35-5.35-5.44.26-7.08.07-14.17.06-21.26,0-2.7-.16-5.39-3.91-5.08-3.36.29-2.82,3-2.82,5.19,0,13.33-.52,26.69.22,40,.47,8.34-5.35,6.6-9.41,7-6,.58-3.53-4.36-3.56-7.17-.18-12.75-.06-25.51-.18-38.26,0-3,.5-6.59-4.16-6.92-3.15,2.13-2.49,5.53-2.58,8.51-.18,5.66-.2,11.35.16,17,.27,4.13-.59,6.38-5.32,6.36-26.32-.13-52.65.87-79-.45-12.46.16-24.93.14-37.38.58l-27.5-.69-40.33,0c-9.79,2.41-15.94,8-19.34,17.55-1.81,24.37,18.78,26.78,18.78,26.78l43.24.67,65.82.69h13.58c20.82-.22,41.63-.38,62.44-.73,4-.07,5.29,1.23,5.2,5.35-.23,10.09-1.42,20.24.66,30.3,5.91,1,5.53-3.13,5.57-6.88.18-14.43.26-28.87.6-43.29.07-2.75-2.18-7.38,4.2-6.73,4.61.47,8.74-.16,8.43,7.09-.62,14.4-.2,28.86-.14,43.29,0,2.72-.6,6.37,3.41,6.56,4.54.22,3.27-3.71,3.32-6.25q.21-11.9.07-23.78c0-3.63.55-5.78,5.1-5.56,10.16.49,20.34.44,30.52.6l81.73,0c12.48-.24,25-.36,37.42-.79,4.27-.15,5.61,1.64,5.09,5.53-.78,5.9,2.31,7.57,7.55,7a29.64,29.64,0,0,1,3.4-.06c5.11,0,11.26-1.78,15,.46,4.4,2.6,1.41,9.28,1.62,14.14.25,5.77,3.56,6,8,6,20.71-.16,41.42,0,62.13-.28,5.16-.07,8.79,0,8,6.86-.79,6.37,4.33,5.38,8.14,5.39q52.33.08,104.68,0c4.26,0,8.52.16,12.77-.07,3.68-.19,5,1.05,4.68,4.88-.42,4.79.15,9.68-.36,14.45-.7,6.56,1.44,8.87,8.34,8.8,33.19-.35,66.39-.2,99.58-.23,6,0,11.94-.36,17.86,0,6.32.41,8.24-2,8.14-8.29ZM922.25,167c6.56-9.6,19.7-8.05,24.65-1.66,1.38,1.77,3.61,3.47,2.8,5.79-1.12,3.21-4.34,1.62-6.63,1.76l-17.65-.05c-1.58,0-3.54.56-4.48-1.29S921.28,168.38,922.25,167Zm25.27,17.24c-6.29,8.13-19.41,7.55-25.33-1-1-1.5-1.85-2.93-1.35-4.66.79-2.75,3.22-1.77,5-1.78h17.8c2.05.06,4.79-1.42,6,1.45C950.69,180.62,948.91,182.4,947.52,184.21Zm169.67,6.6c-23-.31-45.89-.4-68.84-.58-12.13.14-24.26.34-36.39.39l-34.54-.14q-10.21,0-20.42.27c-3.78.07-3.86-1.15-2.76-4.62,0,0,4.75-12-.4-22.4-1.25-2.51-1.28-4.83,2.36-4.27l111,1a166.4,166.4,0,0,1,27.25,0c7.64-.2,15.29-.2,22.9-.67,6.68-.42,5,4.24,5.52,7.94l-.38,14.08C1121.81,185.49,1124.69,190.91,1117.19,190.81Zm147.58-14.21c14.18-.09,28.37.12,42.53-.43,6.23-.24,6.73,2.58,6.78,7.57s-.82,7-6.44,7q-76.14-.21-152.27.18c-5.35,0-6.75-1.86-6.63-6.94l0-17.92c.19-4.47.91-6.39,6.13-6.38q76.56.11,153.12-.41c5.9,0,6.09,2.82,6.24,7.35.17,4.86-1.41,6.3-6.2,6.21-13.89-.25-27.79-.14-41.68,0-4.37.06-9-.91-13.3,1.81C1256.84,177.29,1260.86,176.63,1264.77,176.6Zm61.16,26.94c-3.28-2-10,2.82-10.11-3.38-.11-4.92,6.36-2.79,9.72-2.78,3.88,0,11-3.41,11.06,3C1336.69,205.7,1329.62,201.81,1325.93,203.54Zm3.39-12.61c-4.76-.46-9.52.75-9-7.17.41-5.84,1.13-9.36,8.28-7.52,6-1.94,8.15.43,8.11,7C1336.73,188.86,1335.47,191.52,1329.32,190.93Zm7.56-27c-.3,5.43-5.26,2.42-8.51,3.59-2.2-1.82-8,2.41-7.6-4.42.38-5.7,5.21-3.09,8-3.2C1331.85,159.75,1337.23,157.74,1336.88,163.9ZM1414.31,219c0,3.26-1.49,4.4-4.69,4.39q-31-.09-62.07.08c-3.25,0-4.48-.94-4.46-4.32q.27-43.8.25-87.6c0-3.94,1.29-5.39,5.46-5.35q30.18.27,60.37-.07c4.08,0,5.42,1.24,5.33,5.31Zm257.22-98.56-.07,136.21c.09,6.17-2.18,6.63-7.38,6.6-34.3-.24-68.61-.47-102.9.19-8.69.17-10.15-2.31-9.7-10.21.67-11.57-.08-23.23-.3-34.85,0-2.33-.46-4.83-3.66-4.51-2.5.25-2.93,2.44-3,4.46a69.46,69.46,0,0,0,0,10.2c.62,5.51-1.28,7.12-7,7.08q-55.27-.41-110.56,0c-5.68.05-6.28-1.76-6.14-6.68l.26-102.47c-.06-12.69-.1-12.81,12.7-12.83q115.24-.16,230.47-.33C1669.67,113.31,1671.69,114.6,1671.53,120.42Z"/><path class="cls-1" d="M1671.53,120.42l-.07,136.21c.09,6.17-2.18,6.63-7.38,6.6-34.3-.24-68.61-.47-102.9.19-8.69.17-10.15-2.31-9.7-10.21.67-11.57-.08-23.23-.3-34.85,0-2.33-.46-4.83-3.66-4.51-2.5.25-2.93,2.44-3,4.46a69.46,69.46,0,0,0,0,10.2c.62,5.51-1.28,7.12-7,7.08q-55.27-.41-110.56,0c-5.68.05-6.28-1.76-6.14-6.68l.26-102.47c-.06-12.69-.1-12.81,12.7-12.83q115.24-.16,230.47-.33C1669.67,113.31,1671.69,114.6,1671.53,120.42Z"/></g><g id="Capa_3" data-name="Capa 3"><path d="M844.77,528.75v111H824.94V569L805.43,584l-16.18,12.53L773.07,584,753.56,569v70.74H733.74v-111L753.56,544l35.69,27.44L824.94,544Z"/><path d="M898.69,565.71v75.5H878.86V563.65a15.8,15.8,0,0,0-13.48-13.48h-4.44V530.5h4.28v.16a35.35,35.35,0,0,1,29.5,19.82,41.57,41.57,0,0,1,2.7,7.46,33,33,0,0,1,1,8.09Z"/><path d="M952.3,565.71v75.5H932.47V563.65A15.8,15.8,0,0,0,919,550.17h-4.44V530.5h4.28v.16a35.35,35.35,0,0,1,29.5,19.82,41.57,41.57,0,0,1,2.7,7.46,33.47,33.47,0,0,1,1,8.09Z"/><path d="M1055.71,548.42a34.51,34.51,0,0,1,3.65,15.55v75.66h-19.82V562.06a15.83,15.83,0,0,0-13.49-13.48H967.84V528.75h56.31a34.44,34.44,0,0,1,15.54,3.65,35.17,35.17,0,0,1,16,16.18Z"/><path d="M1177.21,584.43a32.75,32.75,0,0,1-23.48,55.51h-45.52a32.59,32.59,0,0,1-30.14-20,34.5,34.5,0,0,1-2.53-12.85,32.66,32.66,0,0,1,9.19-22.84,31.35,31.35,0,0,1-6.82-10,34.5,34.5,0,0,1-2.53-12.85,32.2,32.2,0,0,1,32-32.84h46.47a32.88,32.88,0,0,1,23,55.68Zm-24.27-9.68a12.94,12.94,0,0,0,.48-25.85h-46.8a12.93,12.93,0,0,0,.32,25.85h46Zm.16,45.52a13.05,13.05,0,0,0,13-13,12.92,12.92,0,0,0-12.21-13h-46.47a12.89,12.89,0,0,0-12.22,12.85,13.07,13.07,0,0,0,13,13h45.52Z"/></g></g></svg>