<svg xmlns="http://www.w3.org/2000/svg" viewBox="0 0 1920 1080"><defs><style>.cls-1{fill:#010101;}.cls-2{fill:#f2f2f2;}</style></defs><g id="Capa_2" data-name="Capa 2"><g id="Capa_1-2" data-name="Capa 1"><path class="cls-1" d="M1718.14,552.54c0-7.14-4.53-17.82-4.53-17.82-9.94-12.86-22-15.09-35.43-14.08-6,.45-12.08,0-18.13.05-17.42,0-19.63-2.47-19.94-19.69-.67-36.5,2.3-73.08-1.57-109.5-3.55-33.19-19.81-59.41-46.41-79.29-9.86-7.36-21.17-11.9-32.57-16.47-14.23-5.68-29.38-8.52-42.57-17.85-8.57-6.05-20.67-7.15-31.23-10.33-20.06-6.05-40.23-11.84-60.26-18.06-7-2.16-13.27,2-20.86-.19-26.89-7.92-54.45-13.34-82-18.87q-45.14-9.06-90.5-16.56-34.61-5.7-69.55-9.25c-19.61-2-39.23-3.83-58.89-5.42-23.71-1.92-47.43-3.63-71.17-4.79-4.84-.24-9.42,0-12.12,5.34-.55,1.12-3.06,6.45-5.34,2-2.93-5.67-7.43-4.42-11.75-4.54l-91.2.13c-6.84,0-9.6,4.1-9.6,4.1-.7.43-2.77.07-3.15-.55-5.08-8.42-13.34-6.48-20.88-6.48-20.63,0-72.6,4.7-72.6,4.7-7,.59-14,1.17-21,1.78Q680.63,212.29,578,234c-23.34,4.94-46.71,9.87-69.63,16.66-1.34.4-3.26,1.23-4.13.64-9.07-6-17.05.17-25.05,2.45-23.77,6.81-48.65,11.62-70.55,22.38-22.69,11.15-47.7,16.11-69.4,28.85-37.06,21.76-57.36,54.33-58.68,97.38-1,33.37-.2,66.8-.26,100.2,0,14.19-3.85,18-17.81,18.08-5.78,0-11.53.12-17.29,0-13.53-.28-27.32-1.59-36.88,12.13-5.37,8.09-6.41,18.87-6.41,18.87v47c.14,20.56.37,41.11.38,61.66,0,7.74.43,15.4,2.54,22.88,8.13,13,20.08,17.44,35.09,17.28,42.82-.41,85.65.09,128.47-.36,10.77-.1,17.52,3.59,22.93,13,12.26,21.22,12.64,21-9.38,32.23-1.49.76-3,1.45-4.48,2.18-10.26,6.22-20.46,12.58-30.86,18.58-5.57,3.21-6.73,6.05-2.87,12.13q26.31,41.4,51.5,83.52c3.63,6,6.81,6.36,12.29,2.87,16-10.16,32.23-19.87,48.2-30.05,4.94-3.15,7.25-2.89,10.38,2.7,9.56,17,18.53,34.73,37.73,44.45,11.44,5.09,25.18,4,25.18,4,10.78-.29,14.65-3.89,16.85-16.56.71,8.11,3.65,12.4,10.49,12.81,2-3.91,5.63-2,8.45-2,25.3-.16,50.62-.09,75.92,0,6.79,0,11.25-.89,9.78-10-2-12.38-.48-13.29,12.17-13.61,2.3,0,4.73.3,6.86-.34a752.66,752.66,0,0,1,80.79-19.6c25.79-4.89,51.69-8.33,77.79-10.68,40.41-4.94,81-7.12,121.68-8.95l22.19,0c14.4,1.48,28.85,2.76,43.31,3,10.28.21,20.52.13,30.66,2,31.19,1,62,5.41,92.89,9.41,7,.91,14,2.38,21,3.59,28.57,3.77,56.29,11.41,84.06,18.75,6.43,1.69,12.81,3.65,19.5,2.84,4.82-.61,5.65,1.53,5.87,5.78.9,17.49,1,17.51,18.69,17.6,25.62.12,51.24.07,76.87.4,4.37.06,7.45-1.08,9.66-6.12,4.08,10.47,11.35,11.59,20.13,10.92,23.25-1.76,39.47-13.45,51.19-33.22,28-47.23,56.44-94.18,84.77-141.21,3.18-5.27,7-10.11,14-10.09q54.82.15,109.66.4c9.71-.16,19.44-.3,29.15-.49,23.11-.43,34.24-11.63,34.39-34.51q.18-29.19.42-58.38c-.16-5.18-.43-10.35-.43-15.52C1717.71,591.87,1718.14,559.68,1718.14,552.54ZM1422.7,261.72c1.19-3.89,2.39-5.59,7.17-4.07,26,8.21,52,16.08,78.15,23.8,4.72,1.4,5.6,3.56,4.24,8-2.13,6.83-4.06,13.76-5.5,20.76-.83,4-2.42,4.44-5.84,3.23-5.67-2-11.44-3.73-17.18-5.55-2.26-.7-4.72-1.36-5.77,1.63-1.21,3.45,1.45,4.53,4,5.39,3.78,1.33,7.57,2.71,11.45,3.7,9.37,2.38,17.18,6.39,18.89,18.28-14.48-5.29-28.6-10.61-42.84-15.59-17.59-6.15-35.2-12.25-53-17.9-5.34-1.71-6.46-3.66-4.46-9C1416,283.66,1419.31,272.67,1422.7,261.72Zm-407.34-42.6c.64-3.24,5-1.51,7.57-2.49,1.33-.52,3.2-.78,3.84-1.77,5.91-9.24,14.79-6.6,23.17-6.1,48.24,2.91,96.44,6.54,144.33,13.28,71.75,10.11,142.92,23.36,213.17,41.34,5.63,1.43,6.48,3.56,4.63,8.88-4.85,14-4.61,14.08-18.75,10.76-5.3-1.24-10.57-2.71-16-3.62-2.87-.49-7.14-1.92-7.95,2.38-.71,3.68,3.23,4,6,4.61,7.28,1.7,14.61,3.2,21.74,5.34,2.49.75,7.85.09,6.38,4.81-1.26,4.11-4.89.76-7.26.09-16.55-4.76-33.06-9.7-49.56-14.57l-29.57-8.61c-5.46,1.35-9.56-3.39-14.74-3.28a.87.87,0,0,1-.71-.44c-4.32-16-19.17-9.12-29-13-3.55-1.42-8.65-4-12,2.9-1.25,2.52-8.85.71-10.77-2-6.17-8.55-15.45-8-23.87-9.64-7.08-1.38-14.34-4.91-21.56,1.57-2.23,2-7.8-.15-11.31-2.43-12.7-8.25-26.63-8.18-40.77-5.88-3,.5-6.06.59-8.39-.36-17.56-7.24-36.31-3.86-54.39-6.43-15.94-2.27-32-3.32-48.05-4.89-2.85-.28-6-1.26-8.34.83-5.17,4.63-9,1.31-12.7-1.9C1017.71,226,1014.64,222.81,1015.36,219.12Zm230.77,45.34c22,5.14,44.21,9.73,66,15.54,27.46,7.31,54.63,15.66,82,23.4,5.06,1.43,7.5,3.37,4.63,8.92-1.69,3.28-2.38,7.07-3.66,10.56-4.32,11.77-12.34,17.78-24.68,17.83q-44.89.14-89.76-.15c-15.16-.11-22.76-7.62-23.4-22.71-.31-7.47-.33-15,0-22.43C1257.74,283.75,1256.34,273,1246.13,264.46ZM966,204q18.57.15,37.13,0c4.07-.05,4.71,2.16,4.63,5.5-.18,6.32-.37,12.67,3.73,19.68H991.58c-2.59,0-4.7.71-4.44,3.84.23,2.69,2.39,2.9,4.46,2.94,6.62.13,13.24.08,19.84.39,3.53.16,7.14.64,10.08,2.68-.09.78-.18,1.58-.26,2.37-8.68,0-17.37,0-26,0-9.5,0-19,0-28.48-.21-2,0-5.13,1.16-5.43-2.36s2.67-2.89,4.86-3.08c2.49-.23,6,0,5.64-3.51-.28-3.09-3.62-3.42-6.23-3.11-4.44.54-4.44-2.13-4.37-5.25.1-4.89.24-9.8,0-14.68C961,205.46,962.22,203.94,966,204Zm-54.4,18.28c.54-2.81,1.49-5.77,1.09-8.48-1.28-8.83,2.68-10.56,10.63-9.85a140.39,140.39,0,0,0,25.85-.07c7.59-.71,9.66,2.12,8.73,9a41.08,41.08,0,0,0,0,9.47c.5,5-.79,7.57-6.51,6.83a78.38,78.38,0,0,0-12.07-.09c-2.71.07-6.67-.79-6.89,3.15-.23,4.3,3.87,3.32,6.5,3.4,4.87.14,9.76-.06,14.65-.1,2,0,4.25-.12,4.22,2.89s-2.44,2.74-4.34,2.74c-18.06.06-36.12,0-54.18,0,3.39-5.1,8.19-4,12.39-5,1.76-.41,3.44-.78,4.15-2.57.62-1.58-.43-3.39-1.59-3.53C907.44,229.26,911,225.39,911.55,222.24ZM513,263.48c37.57-9.82,75.55-17.75,113.64-25.16,82.87-16.15,166.53-25.51,250.8-30,5.55-.29,10.8-.93,14.24,5.1,1,1.7,3.94,2.15,5.81,3.41,2.21,1.47,7.55-2.4,6.88,3.07s-3.38,11.29-10.34,10.42c-16.52-2-32.71,1.21-49,2.27-24.58,1.59-49.1,4-73.62,6.39-5.27.52-10,6.52-15.18,4.53-11.83-4.53-23,.4-34.44.8a15.66,15.66,0,0,0-11.23,4.94c-3.39,3.32-9.11,6-14.28.93-2.09-2.07-4.87-1.26-7.41-.9-7.68,1.13-15.37,2.22-23,3.46-4,.66-8.19.22-9.23,6.53-.64,4-11.73,5-14.74,1.57-1.92-2.14-4-2.14-6.2-1.76-9.35,1.64-18.72,3.23-28,5.32-3.26.75-8.45,1.66-3.73,7.21,1.61,1.89-.21,2.25-1.57,2.61-3.89,1-7.78,2.07-11.68,3-1.21.28-3.5,1-3.37-.92.51-8.74-5.41-5.44-9.25-4.85-7.93,1.23-15.81,2.95-23.68,4.66-2.74.59-6.49,1.18-5.79,5,.64,3.51,4.17,2.13,6.54,1.85,5.61-.7,11.2-1.66,17.83-2.66-4.18,5.9-10,3.94-14.53,5.69-11.75,4.58-24,7.78-36.12,11.47-2.08.64-4.62,2.37-5.88-.81-1.71-4.28,2.44-3.66,4.43-4.46,3.19-1.26,6.6-2,9.85-3.11,1.71-.59,3.14-1.86,2.85-3.83-.36-2.49-2.37-3.06-4.55-2.79-1.69.23-3.33.88-5,1.06-3.81.41-8.76,4.87-11.07,1.33-3.32-5.08-4.76-11.67-5.86-17.82C506.55,263.82,510.71,264.08,513,263.48ZM662.9,296.94c.05,6.32.1,12.66,0,19-.35,17.3-7.5,24.56-25,24.7-27.64.19-55.27,0-82.9.1-21.09.09-25-2.7-31.77-23.07-4-12-4-12,8-15.68,45.09-13.91,90.47-26.63,136.75-35.93,1.9-.38,3.77-1.24,6.81.23C662.74,273.61,662.77,285.25,662.9,296.94ZM417,280c24.07-6.57,47.87-14.17,71.6-21.91,6-1.94,8.07-.45,9.41,5.13,1.3,5.29,3.36,10.37,5.12,15.54s4.93,10.69-4.73,11.19c-2,.11-3.46,2.32-3.13,4.53.41,2.73,2.8,2.35,4.78,2.27,1.14-.06,2.29-.26,3.43-.38,2.52-.23,5.6-1.21,6.27,2.45.6,3.28-2.54,3.37-4.56,4-33,10.58-65.61,22.43-100.24,35.22,6.24-8,7.73-17.78,18.44-18.77a3.37,3.37,0,0,0,2.8-4.54c-.9-2.92-3.28-3.06-5.58-1.9-5.69,2.81-6.71-.23-7.4-5.07a46.65,46.65,0,0,0-3.61-13.25C405.62,286.05,407.73,282.54,417,280Zm-33.2,407.42c-7.47-.29-14.92-.79-22.36-.81-41.67-.08-83.34,0-125-.1-14,0-20.25-6-20.32-19.72-.09-22.67.2-45.37.34-68-.08-16.11-.53-32.21-.12-48.3.28-10.22,6.4-15.71,16.59-16,10.63-.26,21.29,0,31.94-.09,18.46-.17,29-10.56,29.07-28.86q.15-49.63,0-99.28a118.23,118.23,0,0,1,3.29-26.45c2.55-11.28,6.58-20.68,19.51-23.21,2.52-.5,6.6-1.81,5.56-5.32-1.19-4-5.27-2-8.26-1.95-.86.48-1.85,1.09-2.5-.09-.16-.29.64-1.1,1-1.69,12.84-19.12,30.81-31.37,52.23-38.94,10.54-3.73,21.34-6.82,31.74-10.9,4.91-1.92,6.78-.62,7.78,3.9a44.3,44.3,0,0,0,1.33,5c2.63,7.5,1.33,12.44-7.52,14.39-3.61.8-10.93,1.47-9.52,6,2,6.43,7.62.86,11.72.2.54-.06,1.09-.1,2.32-.2-1.58,6.06-6.26,8.57-11,10.68-13.37,5.91-27.06,11.16-40.26,17.44-24.63,11.68-37.59,31.69-38.11,58.75-.24,12.78-3.91,25-4.22,37.64-.22,9.8,0,19.5,2.09,29.14,3.74,17.65,1.56,35.57,1.78,53.35.33,26.25,14.28,42.48,40.51,45.71a7,7,0,0,1,6,4c2.16,4,4.2,8.16,6.29,12.23,15.93,28.85,31.61,57.83,46.18,87.4,6.19,8.95,10.35,19,15.79,28.38,2.7,4.61,1,6.2-2.85,8.4-9.93,5.66-9.69,5.77-15.59-3.74C402.42,705.31,397.48,692.51,383.81,687.42ZM352.42,364.8c-11.16,9.7-20,21.35-28.7,33.2,0,.14,0,.3,0,.43l-.19-.08c-.17.71-.38,1.42-.55,2.11-.3-.19-.81-.4-.81-.57.05-.89-.21-2.25,1.36-1.54,0,0,0-.07,0-.11s.12-.15.17-.24c.55-11.46,8.33-18.78,15.5-26.35A33.14,33.14,0,0,1,351,363.47c.65-1.29,2.05-2.33,3-1.31C355.4,363.65,353,363.9,352.42,364.8ZM320.5,510.13c11.5,21.62,22,41.48,33.15,62.4C327.76,568.2,316.81,554.39,320.5,510.13ZM454.11,826.84c-15.54,9.82-31.16,19.48-46.66,29.33-3.89,2.47-6,2.4-8.68-2q-22.8-38-46.35-75.59c-2.73-4.37-2.52-6.22,2.34-8.93,16-8.94,31.78-18.41,47.38-28.07,3.56-2.19,5-2.23,7.16,1.45,15.4,25.91,31,51.69,46.54,77.51.59,1,1.16,2,1.71,2.92C457.38,825.68,455.39,826,454.11,826.84Zm14-12.65q-17.83-30.44-35.84-60.75c-3.84-6-7.64-12-11.58-17.9-2-3-.57-4.5,2.06-5.9,3.52-1.88,6.94-4,11.13-6.41,4.46,8.77,8.83,17.41,13.22,26,7.24,13.34,14.43,26.72,21.76,40a122.9,122.9,0,0,0,7.62,12.47c5.46,7.66,4.39,11.08-4.55,14.14C469.65,816.68,469.09,815.9,468.09,814.19Zm15.52-42.13c3.1-4.36,10,1.27,15.43.91,15.66-1.09,25.43-9.42,30.44-23.92,1.52-28.56-13.76-42-42-36.48-5.19,1-4.07-2-4.45-4.65-.29-2.12.25-5.29-2.92-5.36s-3.38,2.92-3.14,5.14c.74,7.22-1.68,13.08-5.71,19.13-5,7.53-3.87,16.5-2.69,25.13,8.42,9.69,10.07,21,7.45,35.8l-16.32-32.23C453.89,745,448.24,734.4,442.2,724c-2.19-3.8-1-5.51,2.32-7.4,8.26-4.61,16.42-9.45,24.56-14.29,17.18-10.21,34.84-10.73,51.17.45s25.16,27.25,22.6,48c-1,14.57-8.31,25.51-20.06,33.46-9.26,6.29-19,11.94-28.57,17.76-5.77,3.5-11,.66-11.39-6.2-.13-2.28.38-4.6.38-6.89C483.23,783.15,480.92,775.84,483.61,772.06Zm-.5-41.26c-1.17-8.95,4.34-11.68,11.37-12.82,17.77-2.9,30.78,11.72,26.5,29.28-.47,1.88,0,4-1.58,5.53C512.82,764,500.74,768.56,489.68,764c-10.61-4.39-16.65-15.85-13.85-28,2,2.78,2,7.69,6.64,5.91C482.73,738.22,483.58,734.41,483.11,730.8Zm63.67,107.88c-.28,3.7-.07,7.45,0,11.16.05,2.65-.81,4.41-3.72,4.72-9.21,1-12.34,7-12.46,15.35-13,3.19-29.6-4.72-39.49-18.82-4.23-5.33-8.07-10.89-10.61-17.25-7.31-10-6.15-13.55,5.51-18.17a3.75,3.75,0,0,1,4.51.89c7,6.17,15.77,9,23.7,13.46a117.73,117.73,0,0,0,27.18,3.37C545.45,833.34,547.11,834.5,546.78,838.68Zm-.11-17.18c.35,2.26.18,4.29-3.12,5-11.67,2.49-38.25-6.39-47.93-16.71,24.13-15.09,52.4-26.51,55.53-60.57-.21-14.05-3.87-27-12.1-38.56-9.69-13.6-23.22-20.67-39.47-23.1-20-1.56-35.53,9.21-51.47,18.85-11.19,6.76-11.42,6.79-17.5-4.72-16.85-31.9-34.55-63.37-50.28-95.86-4.66-8.11-9.35-16.21-14.72-25.49,25.59-1.35,49.13-1.54,66.22,20Q453,625.2,474.12,650.1a12.12,12.12,0,0,1,2.79,8.72c-.18,7.75-.13,15.51,0,23.25,0,1.88-.4,4.34,2.26,5s3.41-1.47,4.27-3.29l.36-2.26c0-4.42-.1-8.87-.15-13.29-1.26-1.43-1.75-3.13.45-3.7,2.35-.6,2.3,1.64,2.57,3.2,7,3.27,9.65,11,15.64,15.33,2,3.28,5.1,1.64,7.76,1.61,37.51-.64,67.73,27.34,67.77,62.76,2,14.81-3.11,27.71-11.24,39.6a84,84,0,0,1-10.37,12.65C550,805.74,545.26,812.15,546.67,821.5ZM644,868.07c.47,4.32-2,4.76-5.18,4.76q-40.05,0-80.11.1c-3.12,0-4.87-.83-4.85-4.3.08-10.34.21-20.67,0-31-.12-5.29,3.35-4.2,6.37-4.2,20.1,0,40.2-.13,60.3.07,12.7.12,25.25-.6,37.57-3.78.64-.33,1.25-.69,1.9-1,.09,0,.35.33.54.52l-1.71,1.05C648.93,841,642.38,853,644,868.07Zm609.78-26.14c-67.33-19.91-136.39-29.43-206.23-34.43a22.11,22.11,0,0,1-3.28-.81c-26.25-1.25-52.5-2.56-78.75-3.61l-12,0c-39,0-77.69,4.68-116.54,6.77-26.15,3.55-52.36,6.74-78.44,10.75-30.38,4.67-60.12,12.39-89.76,20.45-3,.81-5.85,1.92-9.47,1.14,3.43-6.48,9.07-9.61,15.08-11.2,49.91-13.29,99.94-26.11,151.15-33.6a54.51,54.51,0,0,1,6-.2c13.13-3.27,26.6-3.91,40-4.81,10.37-.71,19.13-3.58,25-12.55a6.49,6.49,0,0,1,5.51-3.35c19.15-1.29,38.28-3.06,57.53-2.59,19.57-.69,39,1.57,58.52,2.52,2.21.12,3.94.73,5,2.65,4.29,7.58,11.3,11.11,19.32,13.18,34.84,1.51,69.18,6.93,103.18,14.36,31.12,6.81,62.07,14.5,93.08,21.93,8.57,2.06,16.79,5,22.15,13C1258.14,843.62,1255.89,842.55,1253.82,841.93ZM697.23,816.12c60.47-24.45,124.37-34.37,190.32-37.86-4.46,7.12-11.46,6.46-17.62,6.91-21.55,1.56-42.87,4.74-64.16,8.28-33.79,5.6-66.92,14.12-100.22,21.93C702.52,816.09,699.65,817,697.23,816.12Zm203.64-66.43c.71-9.85,8-17.18,17.9-17.52,11.46-.38,22.94-.26,34.41-.14,8.44.07,3.22,6.67,4.62,10.11,2.87.67,3.8-1.11,3.4-3.32-1.26-7,2.73-7.07,7.92-6.89,9.45.31,18.94-.07,28.41.13,15,.32,21.83,7.35,22.14,22.45.29,14.66.29,14.66-14.61,13.9-.84,0-1.71,0-2.57-.12-6.79-.76-15.24,2.16-20-2.15-4.63-4.14-1-12.46-1.57-18.9-.21-2.44.7-5.77-3.37-5.46-3.82.29-2.93,3.51-2.94,6,0,3.44.33,6.93-.14,10.31s2.75,8.77-4.6,8.63c-5.06-.09-10.07.27-8.73-7.4.39-2.18-.44-4-3.35-3.42-1.35,3.73,3.87,10.07-5,10.89-6.39.58-9.07-.83-8.34-7.59.48-4.55.06-9.18,0-13.77,0-2.25-.62-4-3.44-3.67-2.4.31-3.35,1.63-3.23,4.12.26,5.15-.05,10.35.49,15.46.46,4.51-1.09,6.16-5.52,6.33q-13.76.54-27.48,1.71c-3.43.29-4.71-.83-4.61-4.18C900.78,760,900.49,754.84,900.87,749.69Zm130.57,28c66,4.65,129.9,13.57,190.55,38.91-60.37-15.28-121.2-27.93-183.38-33.1C1036.21,783.34,1033.87,781.75,1031.44,777.72Zm192.45,39.44c.43-.26.91-.78,1.19-.67a4.48,4.48,0,0,1,1.35,1.1c-.45.16-.93.49-1.37.42S1224.3,817.47,1223.89,817.16Zm142.3,50.17c0,4.49-1.59,5.72-6.07,5.69-25.56-.19-51.12-.23-76.68.08-5.79.07-7.07-1.86-7.2-7.38-.38-17.07-3.69-23.86-16.85-36,35.08,6.17,68.69,2.57,102.2,3.42,3.77.11,5,1.14,4.86,4.88C1366.17,847.8,1366.05,857.57,1366.19,867.33Zm-.24-43.52c-1.66,4.45-6,2.15-9.11,2.37-50.78,3.65-100-1.79-147.28-22.45-15.92-6.94-33.27-10.64-50-15.83-37.45-8.62-75.63-12.47-113.73-16.78-18.58.28-18.58.28-19.07-17.68-.5-18.7-10.33-28.25-29.25-28.44l-74.63-.09c-19.15.16-29.24,10.25-29.31,29.34-.07,16.11-.07,16-16.4,17.2-15.17,1.14-30.33,2.58-45.5,3.89-19.19,3.28-38.47,6.13-57.55,10-12.89,2.59-25.49,6.58-38.21,9.95-27.41,9.2-54.79,18.49-82.25,27.57-8.22,2.71-16.81,3.51-25.47,3.47-21.54-.05-43.07,0-64.6-.15-3.27,0-8,1.93-9.42-1.84a13.76,13.76,0,0,1,1.67-13.18c2.77-3.65,6-7,9.08-10.37,13.84-15,21.22-32.49,20.56-53.11-1.38-20.77-9-38.64-24.92-52.47-3.85-3.33-8.05-6.31-12.09-9.45-12.17-5.32-24.79-8.68-38.15-8.73-3.45,0-5.87-1.68-8-4.25q-29.73-36.19-59.53-72.29c-17-21.45-39.36-30.37-66.18-27.17-11.3,1.35-16.85-2.94-21.5-12.77-8.57-18.16-18.49-35.69-27.85-53.49A60.25,60.25,0,0,1,320,474.72a209.19,209.19,0,0,0,0-25c-2.45-39.2,17.81-65.87,47.93-86.92,13.79-9.64,30.07-14.18,45.61-20.09,18.52-7,37.34-13.31,55.82-20.45,6.65-2.57,7.81-.55,7.57,5.62-.31,7.76,0,15.53.17,23.31,0,2,0,4.65,2.57,4.74,2.94.1,3.39-2.51,3.39-5,0-9.22.31-18.43,0-27.64-.15-4.23,1.35-6.34,5.22-7.5,6.35-1.88,12.69-3.78,18.88-6.08,3.68-1.37,6.08-1.33,6.84,3.09.1.55.48,1.06.62,1.61,6.14,26.16,18.16,34.37,48.1,33.47,24.73-.76,49.51-.08,74.28-.24,22.7-.14,32.52-9.85,33.09-32.57.21-8.06,0-16.13.1-24.18.18-13.41,4-17.89,16.82-21,52.47-12.72,105.89-19,159.53-23.7,12.62-1.1,25.21-2.35,37.83-3.54,3.49-.33,6.79-.57,9.14,3,2.06,3.18,5.62,2.39,8.71,2.41l110.49-.14c5.67-.21,12.16,2.33,16.31-4.57.69-1.12,4.34-.79,6.59-.6,67.34,5.88,134.74,11.49,200.68,27.72,9.07,2.23,13.58,7.64,13.86,17.21.25,9.78-.09,19.58.12,29.38.41,19.7,10.9,30.38,30.72,30.54,30,.24,59.89.16,89.84-.05,16.86-.12,26.7-8.4,32.69-26.62,4.29-13.08,4.29-13.08,16.92-8.88,15.44,5.13,15.42,5.13,15.47,21.59q0,9.06.29,18.12c.07,2.48.89,4.93,3.82,4.69s2.09-2.91,2.09-4.81c.06-8.64.21-17.28,0-25.9-.1-4.58,1-6.36,5.91-4.56,31,11.35,62.56,21.34,92.6,35.11,28.65,13.15,47.09,36.09,57.74,65.47,2.29,6.32,1.53,13.08,2.1,19.65,3,33.64-2.38,65-22,93.51-7.14,10.33-12.18,22.14-17.85,33.42-1.78,3.58-3.82,5.12-7.88,4.77-4.57-.39-9.23.21-13.81-.12-26-1.95-46.46,8.14-62.17,28.57a44.44,44.44,0,0,1-3.57,3.7c-8.52,12.6-19.15,23.48-28.67,35.27-8.44,10.47-17.18,20.7-25.86,31-1.81,2.13-3.25,5.18-6.51,5.15-15.75-.16-30.25,4.89-44.64,10.44-.54,3.3-3.63,4.28-5.74,6.05-32.28,27.25-36.21,72.08-9,104.52,3.87,4.61,8,9,11.7,13.79C1367.3,815.17,1367.47,819.7,1366,823.81Zm200.9-459.7c.59-1.14,3.44-1,4.77.95,12.46,6.47,19.72,17,23.56,30.23-7.16-10.77-16.46-19.6-25.36-28.78C1569.06,365.29,1565.85,366.13,1566.85,364.11Zm31.66,36.74c.07.35-.26.78-.41,1.18-.3-.67-.57-1.35-.87-2a.43.43,0,0,1,0,0c-1.65-.4-2-1.6-1.77-3,0-.24,1.09-.59,1.16-.5.8,1.09,2.33,2.14.69,3.54C1598.1,399.47,1598.41,400.11,1598.51,400.85Zm-31.73,171.42c10.85-20.58,21.43-40.61,32.44-61.47C1605.27,547,1593.14,570.22,1566.78,572.27ZM1365.57,801.38c-11.58-11.89-20.71-25.14-23.14-42.36-5.34-37.41,23.08-72.42,60.73-74.14,4.75-.2,9.57.16,14.15-1.53,5.7-6.23,11.41-12.43,18.32-20v21.88c4.11,5.7,6,3,7.34-1.92-1.59-8.52-.5-17.11-.6-25.66a8.7,8.7,0,0,1,1.9-5.52c16.19-18.13,30.4-37.93,47.3-55.44,8.83-10,20.44-14.79,33.27-16.09,9.28-.93,18.73-.17,28.76-.17-3.22,8.48-8.28,15.57-12.53,23-11,24.11-24.51,46.89-36.66,70.39-2.73,5.29-5.81,10.41-8.73,15.59q-25.64,49-51.26,98l-2.1-.52c.84-9.33-2.6-18.73,4.56-27.84a28.93,28.93,0,0,0,.47-34.67c-3.94-5.18-5.86-10.26-5.21-16.66.21-2,.92-5.34-2.16-5.66-3.38-.37-4.2,2.87-4,5.42.4,6.43-2.73,4.77-6.76,3.82-13.69-3.18-26.13,1.63-33.42,12.38-7.17,10.52-7.42,25.21.24,35.68,8,10.94,19,15.73,32.49,12.24,5.93-1.52,8.35-.55,7.33,6a23.71,23.71,0,0,0,.12,9.46c3.06,11.54-3.49,18-11.58,24.21-13.34,10.2-28.46,14.57-45,15.05-4.56.14-6.31-1.36-5.89-5.91C1374.14,812.84,1371,806.91,1365.57,801.38Zm70.35-65c.38,2.65-.5,6.66,3.67,6.45,3.83-.19,2.07-3.94,2.45-6.24.19-1.09.16-2.23.33-5.27,5.74,12.46,3.8,19.29-7,29.12-6.62,6.05-17.61,7-25.63,2.18A24.65,24.65,0,0,1,1398.18,736c1.93-9.35,10.82-17.27,20.46-18.24,12.91-1.29,17.18,2.48,17.21,15.14A26.27,26.27,0,0,0,1435.92,736.33Zm268.15-67.71c0,11.81-7.12,17.85-20.43,17.89q-66.3.13-132.62,0c-6,0-12,.17-17.8,2.08-7.62,4.56-12.56,11.35-17.06,18.9-27.51,46.18-55.4,92.12-82.92,138.29-8.71,14.62-20.79,23.37-37.84,25.32-4.2.49-6.93.19-6.61-4.75.44-6.91-3.69-9.56-9.55-11.15-11.13-3-4.62-12-5.38-18.13-.85-6.82,5.32-3.4,8.16-3.57,30.88-1.89,54-15.58,68.75-43.28,19.54-36.74,39.49-73.29,59.26-109.93,13.49-27.7,28.2-54.78,43.2-81.71,1.33-2.85,2.85-5.63,4-8.59,2.49-6.6,6.13-9.88,14.15-10.83,20.55-2.48,34.91-19.84,35.93-41.15.28-5.46.09-10.94.12-16.4.11-16.66-.27-33.25,3-49.85a75.39,75.39,0,0,0-.78-32.59c-2.83-11.56-1.4-23.5-3.42-35.12-3.87-22.27-16.07-38.5-36.21-48.33a363.38,363.38,0,0,0-38-16.2c-17.41-6.17-22.14-24.57-15.54-39.5.92-2.08,1.4-4.45,4.75-3.08,18.88,7.59,39.22,11.39,56.79,22.28a96.19,96.19,0,0,1,30.63,29.86c.08.67.17,1.36.25,2.06-.58-.28-1.19-.54-1.77-.8-6.24-2.06-12.5-4.09-18.74-6.17-2.78-.93-5.48-.62-6.38,2.33s2,4,4,4.76c8,3,16.09,6.1,24.33,8.48,5.06,1.47,7.6,4.53,9.25,9.16a112.92,112.92,0,0,1,6.86,37.92q0,49.56,0,99.15c0,17.45,10,28,27.41,28.46,10.91.31,21.85-.1,32.77,0,10.54.12,17.3,6.53,17.4,17.09.16,16.36-.2,32.75-.36,49.11C1703.85,623.29,1704.21,646,1704.07,668.62Z"/><path class="cls-2" d="M1600.46,441.47c-.57-6.57.19-13.33-2.1-19.65-10.65-29.38-29.09-52.32-57.74-65.47-30-13.77-61.6-23.76-92.6-35.11-4.94-1.8-6,0-5.91,4.56.17,8.62,0,17.26,0,25.9,0,1.9.78,4.57-2.09,4.81s-3.75-2.21-3.82-4.69q-.26-9.06-.29-18.12c0-16.46,0-16.46-15.47-21.59-12.63-4.2-12.63-4.2-16.92,8.88-6,18.22-15.83,26.5-32.69,26.62-30,.21-59.89.29-89.84.05-19.82-.16-30.31-10.84-30.72-30.54-.21-9.8.13-19.6-.12-29.38-.28-9.57-4.79-15-13.86-17.21-65.94-16.23-133.34-21.84-200.68-27.72-2.25-.19-5.9-.52-6.59.6-4.15,6.9-10.64,4.36-16.31,4.57l-110.49.14c-3.09,0-6.65.77-8.71-2.41-2.35-3.61-5.65-3.37-9.14-3-12.62,1.19-25.21,2.44-37.83,3.54-53.64,4.72-107.06,11-159.53,23.7-12.84,3.09-16.64,7.57-16.82,21-.12,8.05.11,16.12-.1,24.18-.57,22.72-10.39,32.43-33.09,32.57-24.77.16-49.55-.52-74.28.24-29.94.9-42-7.31-48.1-33.47-.14-.55-.52-1.06-.62-1.61-.76-4.42-3.16-4.46-6.84-3.09-6.19,2.3-12.53,4.2-18.88,6.08-3.87,1.16-5.37,3.27-5.22,7.5.33,9.21.06,18.42,0,27.64,0,2.45-.45,5.06-3.39,5-2.55-.09-2.54-2.73-2.57-4.74-.12-7.78-.48-15.55-.17-23.31.24-6.17-.92-8.19-7.57-5.62-18.48,7.14-37.3,13.41-55.82,20.45-15.54,5.91-31.82,10.45-45.61,20.09-30.12,21.05-50.38,47.72-47.93,86.92a209.19,209.19,0,0,1,0,25,60.25,60.25,0,0,0,7.35,32.33c9.36,17.8,19.28,35.33,27.85,53.49,4.65,9.83,10.2,14.12,21.5,12.77,26.82-3.2,49.2,5.72,66.18,27.17q29.76,36.13,59.53,72.29c2.13,2.57,4.55,4.23,8,4.25,13.36.05,26,3.41,38.15,8.73,4,3.14,8.24,6.12,12.09,9.45,15.95,13.83,23.54,31.7,24.92,52.47.66,20.62-6.72,38.11-20.56,53.11-3.13,3.39-6.31,6.72-9.08,10.37a13.76,13.76,0,0,0-1.67,13.18c1.43,3.77,6.15,1.8,9.42,1.84,21.53.15,43.06.1,64.6.15,8.66,0,17.25-.76,25.47-3.47,27.46-9.08,54.84-18.37,82.25-27.57,12.72-3.37,25.32-7.36,38.21-9.95,19.08-3.86,38.36-6.71,57.55-10,15.17-1.31,30.33-2.75,45.5-3.89,16.33-1.21,16.33-1.09,16.4-17.2.07-19.09,10.16-29.18,29.31-29.34l74.63.09c18.92.19,28.75,9.74,29.25,28.44.49,18,.49,18,19.07,17.68,38.1,4.31,76.28,8.16,113.73,16.78,16.69,5.19,34,8.89,50,15.83,47.25,20.66,96.5,26.1,147.28,22.45,3.13-.22,7.45,2.08,9.11-2.37,1.52-4.11,1.35-8.64-1.56-12.3-3.73-4.74-7.83-9.18-11.7-13.79-27.17-32.44-23.24-77.27,9-104.52,2.11-1.77,5.2-2.75,5.74-6.05,14.39-5.55,28.89-10.6,44.64-10.44,3.26,0,4.7-3,6.51-5.15,8.68-10.27,17.42-20.5,25.86-31,9.52-11.79,20.15-22.67,28.67-35.27a44.44,44.44,0,0,0,3.57-3.7c15.71-20.43,36.14-30.52,62.17-28.57,4.58.33,9.24-.27,13.81.12,4.06.35,6.1-1.19,7.88-4.77,5.67-11.28,10.71-23.09,17.85-33.42C1598.08,506.52,1603.44,475.11,1600.46,441.47ZM483.09,446.32c0,4.86.07,9.72,0,14.57,0,1.92.19,4.32-2.61,4.62s-3.34-1.87-3.36-3.93c-.08-10.85-.07-21.7,0-32.56,0-1.88,1-3.66,2.89-3.59s2.78,1.93,2.79,3.77c.09,5.7,0,11.42,0,17.12ZM483,503.11c0,4.89.06,9.77,0,14.64,0,2.16-1,4.16-3.34,4-2-.08-2.52-2.07-2.54-3.9-.07-10.6-.17-21.21-.15-31.82,0-2.18,1-4.08,3.47-4,2.27.05,2.44,2.2,2.47,3.86.11,5.73,0,11.47,0,17.19Zm-3-132.38c2.49.07,2.87,2.52,2.9,4.53.11,5.13,0,10.28,0,15.41h-.1c0,5.41.05,10.84,0,16.25,0,1.75-.41,3.58-2.59,3.8-3,.31-3.08-2-3.11-4-.16-10.56-.21-21.12-.21-31.66C476.94,373,477.61,370.68,480.05,370.73Zm-3.14,170.51c0-2,.39-4.39,2.88-4.58,2.66-.19,3.1,2.29,3.11,4.23.11,10.58.07,21.14,0,31.71,0,2.13-.76,4.34-3.19,4.17s-2.58-2.68-2.61-4.69c-.06-5.13,0-10.28,0-15.41h-.19C476.89,551.52,476.84,546.39,476.91,541.24Zm6,85.11c-.1,2.16.23,5.27-2.94,5.31s-2.78-3.18-2.88-5.28c-.38-8.58-.56-17.17-.8-25.76.17-.54.38-1,.52-1.58.69-2.73-1.11-7.38,3-7.53,3.82-.16,2.47,4.91,4,7.34C483.53,608,483.28,617.19,482.92,626.35Zm150.22,87.12c-1.54.69-3,1.49-4.55,2.23-11.6,2-22.67,1.36-33.37-4.56-9.87-5.47-13.12-13.71-12.46-24.25.15-11.48.57-23,.33-34.43-.14-5.77,2-9.88,6.2-13.42,10.85-9.06,23.11-12.48,37-9.11,15.87,3.85,22.93,12.89,23,29,0,9.77-.78,19.6.17,29.28C650.64,701.35,644,708.49,633.14,713.47ZM1323,712.26c-12.69,5.79-25.3,6.29-38,.17-10.75-5.15-15.66-13.63-14.52-25.54.11-11.22.42-22.43.25-33.65-.11-6.31,2.21-10.92,7.13-14.81,12.27-9.68,25.56-12.46,40.43-7,13.7,5.05,18.52,11.72,18.71,26.12.12,9.17.38,18.35.59,27.54C1338.12,697,1334.82,706.85,1323,712.26ZM1442.2,572.43c0,2,.53,4.34-2.3,4.63a3.39,3.39,0,0,1-3.93-3.58q0-17.1.23-34.21a3,3,0,0,1,3.39-3.06c2.35.08,2.55,2,2.59,3.7.08,5.7,0,11.4,0,17.1h0C1442.16,562.16,1442.13,567.3,1442.2,572.43ZM1442.13,462c0,1.63.17,3.68-2.16,4-2.54.31-3.72-1.38-3.74-3.6q-.12-16.69,0-33.4c0-2.06.7-4.24,3.3-4.1,2.76.16,2.61,2.66,2.66,4.56.12,5.15,0,10.29,0,15.44h0C1442.16,450.54,1442.2,456.26,1442.13,462Zm-5.93-88.45a3,3,0,0,1,3.32-3.19c2.33.07,2.62,1.93,2.64,3.68.07,5.75,0,11.51,0,17.28,0,5.17,0,10.35,0,15.54,0,2,.39,4.33-2.65,4.32-1.9,0-3.46-1.13-3.47-3.11Q1436,390.77,1436.2,373.51Zm.22,110.57c.16-2,1.7-3,3.67-2.71,1.74.26,2.11,1.82,2.11,3.27.06,6.05,0,12.08,0,18.13h-.1c0,5.18,0,10.37,0,15.53,0,1.63.34,3.72-2.06,4a3.08,3.08,0,0,1-3.59-2.9A213.74,213.74,0,0,1,1436.42,484.08Zm3.56,147.7c-2.78.08-3.89-2.09-4-4.65-.3-9.42-.52-18.84-.78-28.28.22-.79.52-1.57.67-2.36.45-2.39.19-5.83,3.39-5.83,3.52,0,2.56,3.56,2.94,5.84.2,1.37.38,2.73.55,4.1-.26,8.85-.45,17.71-.83,26.55C1441.88,628.82,1443.21,631.67,1440,631.78Z"/><path class="cls-1" d="M1337.57,685.07c-.21-9.19-.47-18.37-.59-27.54-.19-14.4-5-21.07-18.71-26.12-14.87-5.44-28.16-2.66-40.43,7-4.92,3.89-7.24,8.5-7.13,14.81.17,11.22-.14,22.43-.25,33.65-1.14,11.91,3.77,20.39,14.52,25.54,12.69,6.12,25.3,5.62,38-.17C1334.82,706.85,1338.12,697,1337.57,685.07Zm-12.62,18a2.11,2.11,0,0,0-.33-.18c-1.46.68-2.95,2.27-4.64.38,1.43,2.47-1.06,2.72-2.3,3.3-12.34,5.6-24,4.43-34.63-4.11-5.59-4.46-6-5.81-4.69-15.64,10.21,16.57,22.35,26.61,41.6,16.45a.06.06,0,0,0,0,0l0,0c1.55-.26,3.06-1.17,4.64-.38l.06,0a4.28,4.28,0,0,0,.17-.46c0-.36-.1-.73-.16-1.07.18,0,.35.08.52.12-.12.33-.22.64-.36.95C1324.88,702.63,1324.92,702.84,1325,703.07Zm.94-17.93c-3.43,9.87-10.56,15.23-20.05,15-8.59-.17-16.11-6.67-19.1-16.56-1.33-10.87,1.73-18,10-22.26,7.42-3.83,14.85-3.73,21.71,1.39C1326.16,668.45,1328.46,675.71,1325.89,685.14Zm-46.11-10.8c-3.18-7.33-2.63-15.36-1.75-22.86,1.09-9.28,10.11-12.08,17.49-14.42,11.89-3.75,22.71,0,31.7,8.4,4.66,4.38,1.69,10.25,3,17C1307.48,644.62,1286.41,650.3,1279.78,674.34Z"/><path class="cls-1" d="M1439.55,411.14c-1.9,0-3.46-1.13-3.47-3.11q-.07-17.26.12-34.52a3,3,0,0,1,3.32-3.19c2.33.07,2.62,1.93,2.64,3.68.07,5.75,0,11.51,0,17.28,0,5.17,0,10.35,0,15.54C1442.2,408.86,1442.59,411.15,1439.55,411.14Z"/><path class="cls-1" d="M1439.9,577.06a3.39,3.39,0,0,1-3.93-3.58q0-17.1.23-34.21a3,3,0,0,1,3.39-3.06c2.35.08,2.55,2,2.59,3.7.08,5.7,0,11.4,0,17.1h0c0,5.15,0,10.29,0,15.42C1442.21,574.43,1442.73,576.77,1439.9,577.06Z"/><path class="cls-1" d="M1440,631.78c-2.78.08-3.89-2.09-4-4.65-.3-9.42-.52-18.84-.78-28.28.22-.79.52-1.57.67-2.36.45-2.39.19-5.83,3.39-5.83,3.52,0,2.56,3.56,2.94,5.84.2,1.37.38,2.73.55,4.1-.26,8.85-.45,17.71-.83,26.55C1441.88,628.82,1443.21,631.67,1440,631.78Z"/><path class="cls-1" d="M483.08,460.89c0,1.92.19,4.32-2.61,4.62s-3.34-1.87-3.36-3.93c-.08-10.85-.07-21.7,0-32.56,0-1.88,1-3.66,2.89-3.59s2.78,1.93,2.79,3.77c.09,5.7,0,11.42,0,17.12h.29C483.09,451.18,483.16,456,483.08,460.89Z"/><path class="cls-1" d="M482.9,572.6c0,2.13-.76,4.34-3.19,4.17s-2.58-2.68-2.61-4.69c-.06-5.13,0-10.28,0-15.41h-.19c0-5.15-.05-10.28,0-15.43,0-2,.39-4.39,2.88-4.58,2.66-.19,3.1,2.29,3.11,4.23C483,551.47,483,562,482.9,572.6Z"/><path class="cls-1" d="M483.8,598.85c-.27,9.16-.52,18.34-.88,27.5-.1,2.16.23,5.27-2.94,5.31s-2.78-3.18-2.88-5.28c-.38-8.58-.56-17.17-.8-25.76.17-.54.38-1,.52-1.58.69-2.73-1.11-7.38,3-7.53C483.61,591.35,482.26,596.42,483.8,598.85Z"/><path class="cls-1" d="M483,390.67h-.1c0,5.41.05,10.84,0,16.25,0,1.75-.41,3.58-2.59,3.8-3,.31-3.08-2-3.11-4-.16-10.56-.21-21.12-.21-31.66,0-2.09.67-4.41,3.11-4.36s2.87,2.52,2.9,4.53C483.06,380.39,483,385.54,483,390.67Z"/><path class="cls-1" d="M1442.23,502.77h-.1c0,5.18,0,10.37,0,15.53,0,1.63.34,3.72-2.06,4a3.08,3.08,0,0,1-3.59-2.9,213.74,213.74,0,0,1,0-35.33c.16-2,1.7-3,3.67-2.71,1.74.26,2.11,1.82,2.11,3.27C1442.26,490.69,1442.23,496.72,1442.23,502.77Z"/><path class="cls-1" d="M1442.21,444.84h0c0,5.7,0,11.42,0,17.12,0,1.63.17,3.68-2.16,4-2.54.31-3.72-1.38-3.74-3.6q-.12-16.69,0-33.4c0-2.06.7-4.24,3.3-4.1,2.76.16,2.61,2.66,2.66,4.56C1442.3,434.55,1442.21,439.69,1442.21,444.84Z"/><path class="cls-1" d="M483,517.75c0,2.16-1,4.16-3.34,4-2-.08-2.52-2.07-2.54-3.9-.07-10.6-.17-21.21-.15-31.82,0-2.18,1-4.08,3.47-4,2.27.05,2.44,2.2,2.47,3.86.11,5.73,0,11.47,0,17.19H483C483,508,483.08,512.88,483,517.75Z"/><path class="cls-1" d="M649.36,688.17c-1-9.68-.17-19.51-.17-29.28,0-16.07-7.08-25.11-23-29-13.84-3.37-26.1.05-37,9.11-4.23,3.54-6.34,7.65-6.2,13.42.24,11.46-.18,22.95-.33,34.43-.66,10.54,2.59,18.78,12.46,24.25,10.7,5.92,21.77,6.58,33.37,4.56,1.52-.74,3-1.54,4.55-2.23C644,708.49,650.64,701.35,649.36,688.17Zm-42.11,20.37c-6.81-2.38-9.25-4-11.34-7.76-.21-.15-.41-.31-.62-.48l-.12-.1-1.07.41c-.11-.52-.19-1.05-.3-1.59-.12-.12-.24-.21-.36-.31l-.14-.1c-1.21.48-1.52-.57-1.92-1.51h-.24l.17-.15c.64.52,1.32,1.09,2,1.66a2.37,2.37,0,0,0,.4-.19c0,.2.07.39.1.6.47.36.92.78,1.37,1.18.12-.06.22-.09.34-.14.14.26.26.5.4.72,15,11.55,37.55,7.78,46-16.34C643.14,702.86,625.67,715,607.25,708.54Zm-.62-48.61c8.88-3.27,19.64.6,24.6,8.83,5.31,8.8,4,17.39-4,25.35-10.44,11.81-31.16,4.81-33.5-10.87C592.52,672.13,597.36,663.33,606.63,659.93Zm35.67,14.71c-12.93-25.39-34-30.52-50.28-12.79-3.83-9.49-2.64-14.14,5.05-19.72,12.91-9.39,30.09-8.07,41.86,2.94a10.24,10.24,0,0,1,3.4,8.34C642.23,660.29,642.3,667.19,642.3,674.64Z"/><path class="cls-1" d="M1535.12,325.48c9.82,3,20.71,5.6,30.72,10.75a3.08,3.08,0,0,1,1.69,3.6c-.58,2.41-2.71,1.94-4.19,1.52-9.9-2.83-19.76-5.83-29.63-8.79a4,4,0,0,1-3.1-4.53C1530.79,326,1532.17,325.09,1535.12,325.48Z"/><path class="cls-1" d="M374.63,333c-.17,2.82-2.18,3.9-4.36,4.74-8.77,3.37-17.52,6.79-26.37,10-2.59.93-6.07,2-7.48-1.5s1.72-5,4.46-5.94c8.85-3.14,17.71-6.27,26.62-9.22C370.12,330.14,373.19,329.06,374.63,333Z"/><path class="cls-1" d="M1349.27,280.2l-32-8.22c-.67-3.35-1.16-6.88,4-5.75,10.27,2.24,20.45,4.9,30.7,7.23,3.52.81,3.35,3.29,3.3,5.9l-1.91,1.4Z"/><path class="cls-1" d="M446,311.92c-1.6-.38-3.84.54-4.37-1.76-.49-2.09,1.33-3,2.92-3.61,9.65-3.56,19-8,29.35-9.46,2.46-.33,4.71-.34,5.67,2.42a2.87,2.87,0,0,1-2.17,4C466.9,306.34,456.4,309.12,446,311.92Z"/><path class="cls-1" d="M1457,306.86c-9.2-2.28-19.17-4.7-29.11-7.25-2.39-.61-4.12-2.16-3.64-4.94.37-2.15,2.19-2.7,3.91-2.22,10.41,2.9,21.36,3.86,31.24,8.59,1.66.79,4,2,3,4.45C1461.56,307.45,1459.39,306.52,1457,306.86Z"/><path d="M881.26,445.68v111H861.43V486l-19.51,14.91-16.18,12.53-16.18-12.53L790.05,486v70.74H770.23v-111l19.82,15.23,35.69,27.44,35.69-27.44Z"/><path d="M935.18,482.64v75.5H915.35V480.58a15.83,15.83,0,0,0-13.48-13.49h-4.44V447.43h4.28v.15a35.55,35.55,0,0,1,13.48,3.65,35.17,35.17,0,0,1,16,16.18,41.57,41.57,0,0,1,2.7,7.46,33.41,33.41,0,0,1,1,8.09Z"/><path d="M988.79,482.64v75.5H969V480.58a15.83,15.83,0,0,0-13.48-13.49H951V447.43h4.28v.15a35.55,35.55,0,0,1,13.48,3.65,35.17,35.17,0,0,1,16,16.18,41.57,41.57,0,0,1,2.7,7.46,33.41,33.41,0,0,1,1,8.09Z"/><path d="M1092.2,465.35a34.47,34.47,0,0,1,3.65,15.54v75.66H1076V479a15.8,15.8,0,0,0-13.48-13.48h-58.21V445.68h56.31a34.44,34.44,0,0,1,15.54,3.65,35.17,35.17,0,0,1,16,16.18Z"/><path d="M1149.77,482.64v75.5H1130V480.58a15.84,15.84,0,0,0-13.48-13.49H1112V447.43h4.29v.15a35.65,35.65,0,0,1,13.48,3.65,35.17,35.17,0,0,1,16,16.18,42.36,42.36,0,0,1,2.7,7.46,33.41,33.41,0,0,1,1,8.09Z"/><rect class="cls-2" width="1" height="1"/><rect class="cls-2" x="1919" y="1079" width="1" height="1"/><rect class="cls-2" y="1079" width="1" height="1"/><rect class="cls-2" x="1919" width="1" height="1"/></g></g></svg>