<svg xmlns="http://www.w3.org/2000/svg" viewBox="0 0 1920 1080"><defs><style>.cls-1{fill:#f2f2f2;}.cls-2{fill:#020202;}</style></defs><g id="Capa_2" data-name="Capa 2"><g id="Capa_1-2" data-name="Capa 1"><rect class="cls-1" width="1" height="1"/><rect class="cls-1" x="1919" y="1079" width="1" height="1"/><rect class="cls-1" y="1079" width="1" height="1"/><rect class="cls-1" x="1919" width="1" height="1"/><path class="cls-2" d="M1538.15,529.46c-.93-33.47-.19-67-.38-100.47-.14-22.48-13.46-38.9-35.51-44.48a57.57,57.57,0,0,1-6.13-2.33l-20.6-7c-7.2-2-14.42-3.9-21.54-6.13-1.09-.35-3.62-.93-2.8-3.12,1-2.55,2.45-.72,3.72-.06.21.1.36.4.54.4,3,.13,7.5,2,8.52-1.1,1.38-4.29-3.72-4.28-6.45-5.16q-10.08-3.22-20.39-5.68c-3.16-.73-5.94-.15-2.91,4.05,4.31,1.42,8.64,2.76,12.88,4.31,1.52.55,4.2.7,3.3,3.27-.73,2.12-2.78.84-4.11.41-4.11-1.28-8.15-2.8-12.21-4.23l-17.75-5.38a191.52,191.52,0,0,1-24.87-7.88,64.1,64.1,0,0,1-15.2-4.14,247.73,247.73,0,0,1-27.46-8.67c-4.14,1-7.24-2.47-11.12-2.61-1,0-2.11-.91-1.69-1.67,3.75-7.13-2.87-6.11-5.92-7.19a152.24,152.24,0,0,0-15.27-4c-3.5-.83-6.76-2-10,1.71-2.23,2.55-10,0-11.43-3.66-1.12-2.81-3-3.79-5.56-4.37-7.16-1.6-14.32-3.21-21.45-4.89-1.35-.32-2.52-.86-3.71.46-3.83,4.31-8.45,4.5-11.42-.08a8.57,8.57,0,0,0-6.65-4.07c-6.81-1-14.37-4.45-20.22-2.58-8.87,2.86-14.5,1.3-22.21-3.39-6.33-3.85-15.54-3-23.47-4.19a3.51,3.51,0,0,0-3.52,1.32c-4,4.24-9.48,3.74-12.21-1.25a4.6,4.6,0,0,0-4.16-2.82c-6.86-.58-13.7-1.32-20.55-1.89-2.78-.23-5.59-1.39-7.3,2.8-1.06,2.62-9.45,1.42-11.19-1.5-1-1.71-1.93-3.24-3.89-3.45q-12.66-1.25-25.36-2.23a4.41,4.41,0,0,0-2.43.71c.59,8-5.34,3.62-7.71,3.47-37.82-2.46-75.67-4.29-113.57-4.64L944,285.89c-35.13.7-70.22,2.16-105.27,4.73-2.66.19-6.21,2-6.91-2.91-.17-1.15-1.3-1.19-2.18-1.2-9-.16-17.82,1.14-26.65,2.69-1.45.24-2.06,1.46-2.94,2.55-3.39,4.18-7.79,4.67-11.36.8-2.07-2.25-3.89-1.91-6.06-1.7-7.09.69-14.17,1.48-21.24,2.19-2.1.21-3.53.68-4.87,2.87-2.72,4.5-7.77,4.56-11.79.44-1.52-1.55-2.87-.86-4.38-.63-7.25,1.1-14.49,2.29-21.75,3.34a8.54,8.54,0,0,0-6.29,3.68c-2.52,3.66-6.44,3.23-9.89,2.28-12.54-3.47-24-2.35-34.87,5.62-2.55,1.88-7.31,7.41-10.34-.46-.69-1.78-2-1.15-3.41-.82-6.69,1.59-13.39,3.08-20.1,4.58-3.38.76-6.44,1.27-7.57,5.68-.78,3.05-9.81,4.61-11.81,2.11-1.71-2.11-3.42-2.15-5.36-1.83a169.15,169.15,0,0,0-23.3,5.9c-4.41,1.38-3.56,3.87-1.1,7.07l-13.39,3.33a235.11,235.11,0,0,1-27.58,8.13l-15.09,4.54A166,166,0,0,1,502.26,357q-9.57,3-19.17,6a106,106,0,0,1-20.8,6.39c-15.39,5.1-30.69,10.48-46.16,15.24-21.47,6.59-34,22.86-34,45.26-.06,34.63.2,69.28-.11,103.92-.2,21.94,8.42,39.47,27.46,49.62,29.24,15.58,49.09,40.9,71,64.17,27.34,29.05,54.41,58.36,81.58,87.56.93,1,1.67,2.15,2.5,3.23q31.31,32.48,61.37,66.11c7.6,8,15.54,15.61,22.7,24,20,23.25,44.77,30.32,73.74,21.74,52.4-15.52,106.19-22.39,160.39-27,1.14-.1,2.29,0,3.43,0,22.57-2.15,45.2-2.29,67.84-2.48l11.85.5a603.23,603.23,0,0,1,69.47,1.86c30.64,2.41,61.22,5.5,91.48,10.91,26.3,4.69,52.43,10.07,77.84,18.73,5.4,1.83,11.82.72,17.76,1,5.24-.86,10.5-1.71,15.74-2.58,16.25-5,27.75-16.25,38.5-28.62,4.47-5.18,8.84-10.47,14.25-14.75l55.94-60.64c2.64-2.85,5.34-5.65,8-8.48q24-26,48.09-52c19.65-21.19,39.73-42,58.85-63.63a177.76,177.76,0,0,1,45.37-37.34C1528.89,573.21,1538.86,554.81,1538.15,529.46Zm-6,6.53c-.06,17.62-7.89,31.22-22.29,41.18a62,62,0,0,1-7,4.44c-28.7,14.63-47.24,40.39-68.63,62.92-29.74,31.29-58.87,63.18-88.28,94.78-1.24,1.33-2.69,2.46-4,3.67-15.89,17.27-31.72,34.6-47.72,51.77-5.07,5.45-9.14,11.94-15.89,15.7-19.51,26.23-40.57,45.28-77.59,34.63-56.69-16.3-114.71-24.25-173.42-27.89-16.94-1.05-33.91-1.71-50.86-2.55-32.19-.36-64.35,1.31-96.48,2.78-15.47,1.74-30.93,3.56-46.41,5.18a613.85,613.85,0,0,0-111,21.75c-27.25,8.1-50.08,2.4-68.76-19.22-4.34-5-8.88-9.84-13.34-14.77q-26.73-28.5-53.47-57c-2.32-2.49-4.44-5.16-6.65-7.74q-33.69-35.93-67.34-71.85-32.94-35.24-65.82-70.51c-10.06-10.75-23.46-16.79-35.4-24.87-15.78-10.7-24.4-24.88-24.29-44.29.22-35.15,0-70.29.17-105.44.08-17.82,10-31.92,27-37.54,70.82-23.48,141.88-46.22,214.13-65C670,315.49,712,309.47,754.18,304.38A1744.3,1744.3,0,0,1,953.4,291.47c45.26-.27,90.44,2,135.58,5.62q62.79,5,125.1,14c50.72,7.32,100,20.59,148.93,35.19,45.58,13.57,90.83,28.19,136.15,42.62,15,4.78,26.7,12.87,31.57,28.72a36.71,36.71,0,0,1,1.48,10.85C1532.22,464.32,1532.29,500.15,1532.2,536Zm6-6.53c-.93-33.47-.19-67-.38-100.47-.14-22.48-13.46-38.9-35.51-44.48a57.57,57.57,0,0,1-6.13-2.33l-20.6-7c-7.2-2-14.42-3.9-21.54-6.13-1.09-.35-3.62-.93-2.8-3.12,1-2.55,2.45-.72,3.72-.06.21.1.36.4.54.4,3,.13,7.5,2,8.52-1.1,1.38-4.29-3.72-4.28-6.45-5.16q-10.08-3.22-20.39-5.68c-3.16-.73-5.94-.15-2.91,4.05,4.31,1.42,8.64,2.76,12.88,4.31,1.52.55,4.2.7,3.3,3.27-.73,2.12-2.78.84-4.11.41-4.11-1.28-8.15-2.8-12.21-4.23l-17.75-5.38a191.52,191.52,0,0,1-24.87-7.88,64.1,64.1,0,0,1-15.2-4.14,247.73,247.73,0,0,1-27.46-8.67c-4.14,1-7.24-2.47-11.12-2.61-1,0-2.11-.91-1.69-1.67,3.75-7.13-2.87-6.11-5.92-7.19a152.24,152.24,0,0,0-15.27-4c-3.5-.83-6.76-2-10,1.71-2.23,2.55-10,0-11.43-3.66-1.12-2.81-3-3.79-5.56-4.37-7.16-1.6-14.32-3.21-21.45-4.89-1.35-.32-2.52-.86-3.71.46-3.83,4.31-8.45,4.5-11.42-.08a8.57,8.57,0,0,0-6.65-4.07c-6.81-1-14.37-4.45-20.22-2.58-8.87,2.86-14.5,1.3-22.21-3.39-6.33-3.85-15.54-3-23.47-4.19a3.51,3.51,0,0,0-3.52,1.32c-4,4.24-9.48,3.74-12.21-1.25a4.6,4.6,0,0,0-4.16-2.82c-6.86-.58-13.7-1.32-20.55-1.89-2.78-.23-5.59-1.39-7.3,2.8-1.06,2.62-9.45,1.42-11.19-1.5-1-1.71-1.93-3.24-3.89-3.45q-12.66-1.25-25.36-2.23a4.41,4.41,0,0,0-2.43.71c.59,8-5.34,3.62-7.71,3.47-37.82-2.46-75.67-4.29-113.57-4.64L944,285.89c-35.13.7-70.22,2.16-105.27,4.73-2.66.19-6.21,2-6.91-2.91-.17-1.15-1.3-1.19-2.18-1.2-9-.16-17.82,1.14-26.65,2.69-1.45.24-2.06,1.46-2.94,2.55-3.39,4.18-7.79,4.67-11.36.8-2.07-2.25-3.89-1.91-6.06-1.7-7.09.69-14.17,1.48-21.24,2.19-2.1.21-3.53.68-4.87,2.87-2.72,4.5-7.77,4.56-11.79.44-1.52-1.55-2.87-.86-4.38-.63-7.25,1.1-14.49,2.29-21.75,3.34a8.54,8.54,0,0,0-6.29,3.68c-2.52,3.66-6.44,3.23-9.89,2.28-12.54-3.47-24-2.35-34.87,5.62-2.55,1.88-7.31,7.41-10.34-.46-.69-1.78-2-1.15-3.41-.82-6.69,1.59-13.39,3.08-20.1,4.58-3.38.76-6.44,1.27-7.57,5.68-.78,3.05-9.81,4.61-11.81,2.11-1.71-2.11-3.42-2.15-5.36-1.83a169.15,169.15,0,0,0-23.3,5.9c-4.41,1.38-3.56,3.87-1.1,7.07l-13.39,3.33a235.11,235.11,0,0,1-27.58,8.13l-15.09,4.54A166,166,0,0,1,502.26,357q-9.57,3-19.17,6a106,106,0,0,1-20.8,6.39c-15.39,5.1-30.69,10.48-46.16,15.24-21.47,6.59-34,22.86-34,45.26-.06,34.63.2,69.28-.11,103.92-.2,21.94,8.42,39.47,27.46,49.62,29.24,15.58,49.09,40.9,71,64.17,27.34,29.05,54.41,58.36,81.58,87.56.93,1,1.67,2.15,2.5,3.23q31.31,32.48,61.37,66.11c7.6,8,15.54,15.61,22.7,24,20,23.25,44.77,30.32,73.74,21.74,52.4-15.52,106.19-22.39,160.39-27,1.14-.1,2.29,0,3.43,0,22.57-2.15,45.2-2.29,67.84-2.48l11.85.5a603.23,603.23,0,0,1,69.47,1.86c30.64,2.41,61.22,5.5,91.48,10.91,26.3,4.69,52.43,10.07,77.84,18.73,5.4,1.83,11.82.72,17.76,1,5.24-.86,10.5-1.71,15.74-2.58,16.25-5,27.75-16.25,38.5-28.62,4.47-5.18,8.84-10.47,14.25-14.75l55.94-60.64c2.64-2.85,5.34-5.65,8-8.48q24-26,48.09-52c19.65-21.19,39.73-42,58.85-63.63a177.76,177.76,0,0,1,45.37-37.34C1528.89,573.21,1538.86,554.81,1538.15,529.46Zm-6,6.53c-.06,17.62-7.89,31.22-22.29,41.18a62,62,0,0,1-7,4.44c-28.7,14.63-47.24,40.39-68.63,62.92-29.74,31.29-58.87,63.18-88.28,94.78-1.24,1.33-2.69,2.46-4,3.67-15.89,17.27-31.72,34.6-47.72,51.77-5.07,5.45-9.14,11.94-15.89,15.7-19.51,26.23-40.57,45.28-77.59,34.63-56.69-16.3-114.71-24.25-173.42-27.89-16.94-1.05-33.91-1.71-50.86-2.55-32.19-.36-64.35,1.31-96.48,2.78-15.47,1.74-30.93,3.56-46.41,5.18a613.85,613.85,0,0,0-111,21.75c-27.25,8.1-50.08,2.4-68.76-19.22-4.34-5-8.88-9.84-13.34-14.77q-26.73-28.5-53.47-57c-2.32-2.49-4.44-5.16-6.65-7.74q-33.69-35.93-67.34-71.85-32.94-35.24-65.82-70.51c-10.06-10.75-23.46-16.79-35.4-24.87-15.78-10.7-24.4-24.88-24.29-44.29.22-35.15,0-70.29.17-105.44.08-17.82,10-31.92,27-37.54,70.82-23.48,141.88-46.22,214.13-65C670,315.49,712,309.47,754.18,304.38A1744.3,1744.3,0,0,1,953.4,291.47c45.26-.27,90.44,2,135.58,5.62q62.79,5,125.1,14c50.72,7.32,100,20.59,148.93,35.19,45.58,13.57,90.83,28.19,136.15,42.62,15,4.78,26.7,12.87,31.57,28.72a36.71,36.71,0,0,1,1.48,10.85C1532.22,464.32,1532.29,500.15,1532.2,536Zm140.21-93.54c-9.59-17.29-25.88-17.14-42.56-16.8-19.06.38-38.14.2-57.21-.07-10.42-.13-15-5-15.53-15.28-.11-2.29-.06-4.59-.06-6.88,0-26.35-9-39.78-33.6-49.17-57.46-22-116.64-38.31-176.46-52.42-60.07-14.16-120.65-25.6-181.82-33.89-34.36-4.66-68.86-7.88-103.45-10.32-31.63-2.24-63.45-4.56-95.16-4.92H952c-36.85,0-121.62,6.92-121.62,6.92A1669.64,1669.64,0,0,0,652.05,285c-86.72,16.93-172.3,38-255.17,69.1-24.3,9.11-33.74,22.62-34.08,48.19-.29,20.87-2.75,23.34-23.52,23.41-17.68,0-35.38.42-53.06-.1-15.89-.48-30.25,1.61-40.24,16.65-2,6-2.69,14.76-2.69,14.76.05,42.26-.16,84.52.07,126.78.11,17.74,8.46,29,23.71,34,4.29,1.42,8.61,1.23,13,1.23q69.6.1,139.23.12c10.56,0,14.92,3.44,15,12.73.13,36.51-.07,73-.15,109.53.28,16.09,1.79,31.88,8.58,46.85,3.23,7.14,7.74,13.4,11.65,20.05,16,19,35.7,31.86,60.53,36,12.17,2.05,24.33,4.14,36.52,6,33.8,5.1,66.14,15.53,98.43,26.22,13.48,4.43,32.68,6.8,32.68,6.8,16.14-.19,31.45-5.58,47.06-8.95A1323.53,1323.53,0,0,1,878,850.71c3.41-.33,6.87-.22,10.31-.33,22.08-3.07,44.33-3.3,66.55-4l21.72.43c27.29.34,54.43,2.63,81.54,5.6a1210.16,1210.16,0,0,1,151.45,26.67c22.73,5.48,44.45,2.17,66.3-4.52,27.12-8.31,53.91-18,82.11-22.29,9.22-1.59,18.38-3.71,27.65-4.66,32.11-3.33,60.3-14.14,80.89-40.38,14.1-19.68,19.93-41.79,19.33-65.81-.1-33.73-.25-67.49-.28-101.24,0-19.61,1.41-21,21.28-21.05q66.17-.07,132.35,0c6.72,0,13.24-.47,19.35-3.75,12.65-6.79,18.2-17.56,18.21-31.59V453.75A26.06,26.06,0,0,0,1672.41,442.45Zm-6.49,138.75c0,1.85,0,3.68-.22,5.52-1.32,13.38-9.6,21.27-23.09,21.32-45.49.15-91,.13-136.48.2a86.71,86.71,0,0,0-10.32.42c-14,1.67-20.69,9.22-20.73,23.38-.1,32.61-.08,65.23-.18,97.85,0,3.89-.35,7.77-.54,11.66,1.52,25.54-5.75,47.92-24,66.34-12.27,14.46-28.36,22.87-46.61,25.53-44.51,6.5-88.2,16.07-130.85,30.39a27.56,27.56,0,0,1-4.06.7c-19.25,7.4-38.77,9.29-58.69,2.79-22.23-4.44-44.43-9.17-66.73-13.3-58.53-10.81-117.52-17.47-177.09-18.48l-12.24.08c-21.5-.13-42.94,1.56-64.38,2.79-21.38,2.51-42.83,4.61-64.13,7.64q-60.93,8.67-120.79,23.06c-20.38,4.91-40.09,1-59.42-5.62-41.74-14.35-84.65-23.44-128.25-29.92-20-3-37.31-12.26-50.25-28.46-16.52-18-22.84-39.47-21.28-63.54q-.19-31.68-.4-63.34c-.07-14.25,0-28.48-.11-42.72C445,616,437,608.15,417.27,608.12c-28.25,0-56.5,0-84.75,0-18.37,0-36.76.13-55.13-.11-14.41-.21-23.18-8.89-23.24-23.3q-.28-62.67,0-125.37c0-13.65,8.8-22.38,22.44-22.51,22.06-.19,44.1-.08,66.16-.07,21.57,0,31.32-9,30.66-30.33-.26-8.52,1.61-12.8,10.26-14.48,5.75-1.12,11.15-4.06,16.65-6.32,1.75-.72,3.43-2.12,2.32-4.23-.86-1.65-2.87-1.18-4.36-.71-3.92,1.24-7.82,2.6-11.68,4-3.56,1.32-7.07,2.78-12.09,4.77,4.28-11.73,10.79-19,20.87-23.06,24.49-9.78,49.44-18.22,74.65-25.84,80-24.11,161.34-42.05,243.74-55.56,44.86-7.35,90-11.9,135.23-16.11,1.57-.15,3.17,0,5.13,0-.62,5.52-4.7,8.4-7.76,11.89-1.33,1.51-3.71,3.07-1.73,5.07,1.73,1.73,3.82,0,5.42-1.27,4.16-3.38,7.77-7.23,9.55-12.39,1.14-3.34,3.28-4.47,6.72-4.57,28.69-.8,57.32-3.08,86-3.08l24.47.24c25,.72,50,1.95,75,2.82,4.6.16,7.42,1.51,9.21,6.29a22.44,22.44,0,0,0,10.14,11.75c1.39.76,3.21,1.75,4.41.33s0-3-1.09-4.22c-2.24-2.59-4.6-5.12-6.74-7.81-.94-1.18-2.52-2.54-1.63-4.22s2.88-.85,4.35-.73c16,1.34,32,2.43,48,4.22,33.28,3.73,66.49,7.95,99.5,13.64,55.33,9.55,110.28,20.9,164.65,34.94,47.27,12.22,94,26.19,139.65,43.59,11,4.18,18.51,11.47,23,23.67-7.79-2.71-14.76-5.09-21.71-7.52-2.23-.77-5.18-2.69-6.26.52-1,2.93,2.28,4.13,4.61,5,6.64,2.45,13.25,5.14,20.09,6.92,3.45.91,4.54,2.08,4.28,5.48a93.9,93.9,0,0,0,0,11c.66,16.46,10.77,26.27,27.28,26.31,22.06.07,44.11-.06,66.17,0,18.08,0,26.06,7.79,26.11,25.92C1666,502.19,1665.94,541.7,1665.92,581.2ZM1537.77,429c-.14-22.48-13.46-38.9-35.51-44.48a57.57,57.57,0,0,1-6.13-2.33l-20.6-7c-7.2-2-14.42-3.9-21.54-6.13-1.09-.35-3.62-.93-2.8-3.12,1-2.55,2.45-.72,3.72-.06.21.1.36.4.54.4,3,.13,7.5,2,8.52-1.1,1.38-4.29-3.72-4.28-6.45-5.16q-10.08-3.22-20.39-5.68c-3.16-.73-5.94-.15-2.91,4.05,4.31,1.42,8.64,2.76,12.88,4.31,1.52.55,4.2.7,3.3,3.27-.73,2.12-2.78.84-4.11.41-4.11-1.28-8.15-2.8-12.21-4.23l-17.75-5.38a191.52,191.52,0,0,1-24.87-7.88,64.1,64.1,0,0,1-15.2-4.14,247.73,247.73,0,0,1-27.46-8.67c-4.14,1-7.24-2.47-11.12-2.61-1,0-2.11-.91-1.69-1.67,3.75-7.13-2.87-6.11-5.92-7.19a152.24,152.24,0,0,0-15.27-4c-3.5-.83-6.76-2-10,1.71-2.23,2.55-10,0-11.43-3.66-1.12-2.81-3-3.79-5.56-4.37-7.16-1.6-14.32-3.21-21.45-4.89-1.35-.32-2.52-.86-3.71.46-3.83,4.31-8.45,4.5-11.42-.08a8.57,8.57,0,0,0-6.65-4.07c-6.81-1-14.37-4.45-20.22-2.58-8.87,2.86-14.5,1.3-22.21-3.39-6.33-3.85-15.54-3-23.47-4.19a3.51,3.51,0,0,0-3.52,1.32c-4,4.24-9.48,3.74-12.21-1.25a4.6,4.6,0,0,0-4.16-2.82c-6.86-.58-13.7-1.32-20.55-1.89-2.78-.23-5.59-1.39-7.3,2.8-1.06,2.62-9.45,1.42-11.19-1.5-1-1.71-1.93-3.24-3.89-3.45q-12.66-1.25-25.36-2.23a4.41,4.41,0,0,0-2.43.71c.59,8-5.34,3.62-7.71,3.47-37.82-2.46-75.67-4.29-113.57-4.64L944,285.89c-35.13.7-70.22,2.16-105.27,4.73-2.66.19-6.21,2-6.91-2.91-.17-1.15-1.3-1.19-2.18-1.2-9-.16-17.82,1.14-26.65,2.69-1.45.24-2.06,1.46-2.94,2.55-3.39,4.18-7.79,4.67-11.36.8-2.07-2.25-3.89-1.91-6.06-1.7-7.09.69-14.17,1.48-21.24,2.19-2.1.21-3.53.68-4.87,2.87-2.72,4.5-7.77,4.56-11.79.44-1.52-1.55-2.87-.86-4.38-.63-7.25,1.1-14.49,2.29-21.75,3.34a8.54,8.54,0,0,0-6.29,3.68c-2.52,3.66-6.44,3.23-9.89,2.28-12.54-3.47-24-2.35-34.87,5.62-2.55,1.88-7.31,7.41-10.34-.46-.69-1.78-2-1.15-3.41-.82-6.69,1.59-13.39,3.08-20.1,4.58-3.38.76-6.44,1.27-7.57,5.68-.78,3.05-9.81,4.61-11.81,2.11-1.71-2.11-3.42-2.15-5.36-1.83a169.15,169.15,0,0,0-23.3,5.9c-4.41,1.38-3.56,3.87-1.1,7.07l-13.39,3.33a235.11,235.11,0,0,1-27.58,8.13l-15.09,4.54A166,166,0,0,1,502.26,357q-9.57,3-19.17,6a106,106,0,0,1-20.8,6.39c-15.39,5.1-30.69,10.48-46.16,15.24-21.47,6.59-34,22.86-34,45.26-.06,34.63.2,69.28-.11,103.92-.2,21.94,8.42,39.47,27.46,49.62,29.24,15.58,49.09,40.9,71,64.17,27.34,29.05,54.41,58.36,81.58,87.56.93,1,1.67,2.15,2.5,3.23q31.31,32.48,61.37,66.11c7.6,8,15.54,15.61,22.7,24,20,23.25,44.77,30.32,73.74,21.74,52.4-15.52,106.19-22.39,160.39-27,1.14-.1,2.29,0,3.43,0,22.57-2.15,45.2-2.29,67.84-2.48l11.85.5a603.23,603.23,0,0,1,69.47,1.86c30.64,2.41,61.22,5.5,91.48,10.91,26.3,4.69,52.43,10.07,77.84,18.73,5.4,1.83,11.82.72,17.76,1,5.24-.86,10.5-1.71,15.74-2.58,16.25-5,27.75-16.25,38.5-28.62,4.47-5.18,8.84-10.47,14.25-14.75l55.94-60.64c2.64-2.85,5.34-5.65,8-8.48q24-26,48.09-52c19.65-21.19,39.73-42,58.85-63.63a177.76,177.76,0,0,1,45.37-37.34c21.74-12.42,31.71-30.82,31-56.17C1537.22,496,1538,462.48,1537.77,429Zm-5.57,107c-.06,17.62-7.89,31.22-22.29,41.18a62,62,0,0,1-7,4.44c-28.7,14.63-47.24,40.39-68.63,62.92-29.74,31.29-58.87,63.18-88.28,94.78-1.24,1.33-2.69,2.46-4,3.67-15.89,17.27-31.72,34.6-47.72,51.77-5.07,5.45-9.14,11.94-15.89,15.7-19.51,26.23-40.57,45.28-77.59,34.63-56.69-16.3-114.71-24.25-173.42-27.89-16.94-1.05-33.91-1.71-50.86-2.55-32.19-.36-64.35,1.31-96.48,2.78-15.47,1.74-30.93,3.56-46.41,5.18a613.85,613.85,0,0,0-111,21.75c-27.25,8.1-50.08,2.4-68.76-19.22-4.34-5-8.88-9.84-13.34-14.77q-26.73-28.5-53.47-57c-2.32-2.49-4.44-5.16-6.65-7.74q-33.69-35.93-67.34-71.85-32.94-35.24-65.82-70.51c-10.06-10.75-23.46-16.79-35.4-24.87-15.78-10.7-24.4-24.88-24.29-44.29.22-35.15,0-70.29.17-105.44.08-17.82,10-31.92,27-37.54,70.82-23.48,141.88-46.22,214.13-65C670,315.49,712,309.47,754.18,304.38A1744.3,1744.3,0,0,1,953.4,291.47c45.26-.27,90.44,2,135.58,5.62q62.79,5,125.1,14c50.72,7.32,100,20.59,148.93,35.19,45.58,13.57,90.83,28.19,136.15,42.62,15,4.78,26.7,12.87,31.57,28.72a36.71,36.71,0,0,1,1.48,10.85C1532.22,464.32,1532.29,500.15,1532.2,536Z"/><path class="cls-1" d="M1532.2,536c-.06,17.62-7.89,31.22-22.29,41.18a62,62,0,0,1-7,4.44c-28.7,14.63-47.24,40.39-68.63,62.92-29.74,31.29-58.87,63.18-88.28,94.78-1.24,1.33-2.69,2.46-4,3.67-15.89,17.27-31.72,34.6-47.72,51.77-5.07,5.45-9.14,11.94-15.89,15.7-19.51,26.23-40.57,45.28-77.59,34.63-56.69-16.3-114.71-24.25-173.42-27.89-16.94-1.05-33.91-1.71-50.86-2.55-32.19-.36-64.35,1.31-96.48,2.78-15.47,1.74-30.93,3.56-46.41,5.18a613.85,613.85,0,0,0-111,21.75c-27.25,8.1-50.08,2.4-68.76-19.22-4.34-5-8.88-9.84-13.34-14.77q-26.73-28.5-53.47-57c-2.32-2.49-4.44-5.16-6.65-7.74q-33.69-35.93-67.34-71.85-32.94-35.24-65.82-70.51c-10.06-10.75-23.46-16.79-35.4-24.87-15.78-10.7-24.4-24.88-24.29-44.29.22-35.15,0-70.29.17-105.44.08-17.82,10-31.92,27-37.54,70.82-23.48,141.88-46.22,214.13-65C670,315.49,712,309.47,754.18,304.38A1744.3,1744.3,0,0,1,953.4,291.47c45.26-.27,90.44,2,135.58,5.62q62.79,5,125.1,14c50.72,7.32,100,20.59,148.93,35.19,45.58,13.57,90.83,28.19,136.15,42.62,15,4.78,26.7,12.87,31.57,28.72a36.71,36.71,0,0,1,1.48,10.85C1532.22,464.32,1532.29,500.15,1532.2,536Z"/><path class="cls-2" d="M1220.53,646.42c-9.28-.13-9.28-.13-9.44,9.38a16.3,16.3,0,0,1-.08,3.43c-.61,2.64,1.8,7.3-2,7.55-4.24.29-3.12-4.59-3.26-7.41-.64-12.87-.55-12.88-13.32-13.08l-4.12-.07c-1.78,0-3.27-.67-3.41-2.6-.2-2.7,1.93-2.69,3.77-2.72,4.35,0,8.7-.14,13,0,3,.11,4.11-1,4-4-.13-4.34,0-8.69.08-13,0-1.91.14-3.82,2.72-3.87,2.82,0,2.5,2.08,2.52,3.87,0,3,.35,6-.1,8.91-1.08,6.91,1.92,9,8.37,8.13a66.26,66.26,0,0,1,8.92-.12c1.92,0,3.84.15,3.67,2.81-.15,2.39-1.8,2.85-3.86,2.79C1225.57,646.36,1223.05,646.42,1220.53,646.42Z"/><path class="cls-2" d="M698.19,640.86c2.07,0,4.14-.09,6.2,0,3.22.19,4.59-1.24,4.53-4.45-.09-4.36,0-8.72.06-13.08,0-1.55-.36-3.38,2.23-3.27,2.1.08,2.81,1.45,2.85,3.16a129.5,129.5,0,0,1,0,13.07c-.28,3.75,1.16,4.82,4.68,4.64,4.12-.22,8.26,0,12.39,0,2,0,3.9.31,3.77,2.82-.1,1.87-1.49,2.56-3.38,2.58-5.47.07-12.44-1.72-16,1-3.82,2.89-.46,10.31-1.58,15.64-.34,1.63,0,4.11-2.62,4.11-3.43,0-2.21-2.86-2.33-4.62-.32-5,1.38-11.29-1-14.72-2.68-3.77-9.36-.72-14.24-1.43-2.26-.33-5.83,1-5.62-3s3.8-2,6-2.45a23.58,23.58,0,0,1,4.12,0Z"/><path class="cls-2" d="M1282.76,644.32a74.58,74.58,0,0,1-4.12,23.75c-.74,2.1-1.1,5-4.15,4.41-3.45-.71-1.89-3.8-1.41-5.62,2.45-9.49,5.28-18.87,4-28.87-.18-1.32-.14-3,1.79-3a3,3,0,0,1,3.12,2.23C1282.48,640.1,1282.63,643.05,1282.76,644.32Z"/><path class="cls-2" d="M642.75,642a55.82,55.82,0,0,0,2.78,19.17,48.68,48.68,0,0,1,1.69,8c.19,1.27.34,2.85-1.44,3.35a2.85,2.85,0,0,1-3.82-1.93c-3.49-10.22-5.48-20.67-4.47-31.52.2-2.11,1.27-4.23,3.85-3.86,2.81.4,1.36,2.86,1.51,4.45A8.27,8.27,0,0,1,642.75,642Z"/><path class="cls-2" d="M659.67,597a33.51,33.51,0,0,1-2.09,4.41c-4.14,6.25-8.44,12.39-11.17,19.46-.62,1.62-1.46,3.75-3.87,2.67s-1.48-3.25-.93-4.81a71.08,71.08,0,0,1,12.64-22.43c1-1.17,2.22-2.6,4-1.54C658.92,595.17,659.18,596.21,659.67,597Z"/><path class="cls-2" d="M1276.64,623.69c-2.05.16-2.78-1.46-3.3-2.88-2.62-7.17-7-13.29-11.17-19.56-1.28-1.92-3.45-4.71-.42-6.57,2.66-1.64,4,1.44,5.25,3.12a89.88,89.88,0,0,1,11.22,20.34C1279,620,1280.27,622.71,1276.64,623.69Z"/><path class="cls-2" d="M1134.67,639.07a60.48,60.48,0,0,1,3.25-18.14c.67-1.93,1.6-4.25,4.25-3.42,2.38.75,1.6,3.11,1.21,4.74a153.28,153.28,0,0,0-3.4,21.63c-.2,2,0,5.26-3.32,5-3.1-.26-1.56-3.24-1.93-5A24.66,24.66,0,0,1,1134.67,639.07Z"/><path class="cls-2" d="M1139.77,660.67c2.11.59,2.89,2.2,3.58,4a105.74,105.74,0,0,0,10.19,20.1c1,1.51,2.21,3.33.17,4.79-1.75,1.26-2.94-.32-4-1.54a63.23,63.23,0,0,1-12-22.84C1137.09,663,1136.7,661,1139.77,660.67Z"/><path class="cls-2" d="M767.37,690c-2.64-.48-2.3-2.64-1.62-3.71a150.35,150.35,0,0,0,11.56-23.3,3.2,3.2,0,0,1,3.93-2c2.11.77,1.37,2.68,1,4.15a58.85,58.85,0,0,1-12.72,23.29A12.35,12.35,0,0,1,767.37,690Z"/><path class="cls-2" d="M1212.9,717.82a32.43,32.43,0,0,1-4.53,0c-2.3-.47-6,.41-6-3,0-4.06,3.79-2.16,5.85-2.25a108.68,108.68,0,0,0,21-3.3c1.87-.45,3.69-1.43,4.37,1.25.58,2.3-1.09,3.18-2.95,3.87C1224.34,716.7,1217.68,717,1212.9,717.82Z"/><path class="cls-2" d="M785.26,639.56a13.35,13.35,0,0,1,.11,2.74c-.36,2.31,1.23,6.09-1.7,6.57-3.75.62-3.72-3.54-3.86-6a120.41,120.41,0,0,0-3-19.64c-.44-2-1.83-5,1.48-5.73,3-.63,3.31,2.51,4.09,4.53C784.53,627.67,785,633.6,785.26,639.56Z"/><path class="cls-2" d="M675.08,703.51c-.57,3-2.84,2.88-4.24,2-8.08-5-14.92-11.34-19.11-20.08-.45-.95-.84-2.34.38-3.11s2.18-.1,3,.76q9.27,9.18,18.51,18.4A13,13,0,0,1,675.08,703.51Z"/><path class="cls-2" d="M1204.6,569.55c2.06.61,5.7-1.41,6.08,2.3.41,4-3.31,2.8-5.56,3a81,81,0,0,0-18.71,3.9c-1.94.67-5.08,3.38-6.13-.85-.83-3.35,2.38-3.84,4.74-4.63A72.55,72.55,0,0,1,1204.6,569.55Z"/><path class="cls-2" d="M1246.92,705.81c-3.27-.3-2.23-2.52-1.08-3.71,6.22-6.41,12.63-12.62,19-18.89.88-.87,2.07-1.4,3.1-.78a2.23,2.23,0,0,1,.47,3.08,50.7,50.7,0,0,1-20,20.1A4.35,4.35,0,0,1,1246.92,705.81Z"/><path class="cls-2" d="M715.34,569.49a80.64,80.64,0,0,1,20.76,4.23c2.15.77,4.56,1.84,3.5,4.81s-3.33,1.34-5.1.71a88.34,88.34,0,0,0-19.2-4.37c-2.41-.3-6.5,1.09-6.08-3.23C709.56,568.08,713.25,570,715.34,569.49Z"/><path class="cls-2" d="M696.66,574.51c-.28,2.11-1.5,2.85-3.22,3.27a66.8,66.8,0,0,0-20.58,9c-1.47.95-3.54,2.08-4.92.14s.28-3.26,1.84-4.41c6.72-4.95,14.31-8,22.29-10.17C694.09,571.83,696.28,571.73,696.66,574.51Z"/><path class="cls-2" d="M1250.06,588.36a26.56,26.56,0,0,1-2.48-1.14c-6.7-3.92-13.5-7.62-21.16-9.39-2-.48-3.51-1.7-3-3.81.58-2.36,2.78-2.16,4.55-1.68a66.7,66.7,0,0,1,22.26,10.23c1.62,1.19,2.63,2.57,2,4.63A1.61,1.61,0,0,1,1250.06,588.36Z"/><path class="cls-2" d="M1165.35,697a8.61,8.61,0,0,1,2.28.94,78.74,78.74,0,0,0,20.83,11.61c1.32.51,2.57,1.28,2,3s-2.31,1.61-3.51,1.23c-8.06-2.5-16-5.44-22.64-10.81-1.25-1-2.37-2.21-1.77-4.1C1162.9,697.58,1163.89,697.19,1165.35,697Z"/><path class="cls-2" d="M708.42,717.94c-6.1-.66-12.47-1.25-18.58-3.24-2-.67-4.39-1.88-3.82-4.1.64-2.51,3.13-1.76,5.23-1.24,7.1,1.76,14.24,3.17,21.63,3.19,1.62,0,4.6-1.49,4.5,2.19-.09,3-2.74,2.57-4.61,3A27.94,27.94,0,0,1,708.42,717.94Z"/><path class="cls-2" d="M731.42,714.18c-.75-.36-2-.58-2.13-1.12a2.59,2.59,0,0,1,.76-2.39c8.2-4,16.43-7.93,23.9-13.28a2.59,2.59,0,0,1,3.6,1c.89,1.45.17,2.78-.89,3.65C749.29,708.09,740.64,711.49,731.42,714.18Z"/><path class="cls-2" d="M1148.75,606.58c-2.72-.25-2.51-1.77-1.57-3.34a61.05,61.05,0,0,1,18.53-19.81,3.88,3.88,0,0,1,3.18-.22,1.91,1.91,0,0,1,.43,3c-6.84,6.06-12.58,13.15-18.85,19.74C1150.05,606.35,1149.23,606.4,1148.75,606.58Z"/><path class="cls-2" d="M773.08,604.67c-.49,2.78-2.61,2.47-3.89,1.18-6.24-6.28-12.28-12.76-18.26-19.29a3.47,3.47,0,0,1-.29-3.14c.58-1.15,2.1-.88,3-.27a55.5,55.5,0,0,1,19,20.09A7.43,7.43,0,0,1,773.08,604.67Z"/><path class="cls-2" d="M1429.77,741.67c4.26,7.75,7.13,15.81,5.24,24.84-3.83,18.35-21.83,30.08-39.6,25.83-18.27-4.37-28.37-22-23.39-40.76q.8-3,1.57-5.92C1388.94,724,1411.91,722.37,1429.77,741.67Zm-26.69,45.87c14.53-.15,26.83-12.47,26.84-26.91,0-13.89-13.09-27.17-26.82-27.19-14.67,0-26.85,12.44-26.84,27.46A26.93,26.93,0,0,0,1403.08,787.54Z"/><path class="cls-2" d="M1495.11,378.13l-19.3-6.45c-1.88-3.42-.52-4.85,3-4.27,8.62,1.42,16.77,4.52,25,7.26a3.27,3.27,0,0,1,2.41,3.67c-.16,2.45-2.18,1.62-3.63,2C1499.59,381.07,1497.48,379.26,1495.11,378.13Z"/><path class="cls-2" d="M1416.34,353.18l-24.79-7.34c-.48-1.51-3.64-4.08,1-3.83,9.37.52,18.25,3.39,27,6.62,1.28.47,2.71,1.53,2.15,3C1420.7,354.25,1418.15,352.7,1416.34,353.18Z"/><path class="cls-2" d="M1376.34,342c-8.94-3.66-18.85-4.07-27.66-8.17-.7-2.24-.24-3.64,2.45-3.25a130.16,130.16,0,0,1,25.31,5.89C1379.86,337.7,1381.38,340.22,1376.34,342Z"/><path class="cls-2" d="M547.32,748.15c4.14,15.19,2.31,28.67-11.36,38.57a32.55,32.55,0,0,1-39.06-.21c-10.81-8.15-15.21-23.81-10.42-37.12q.93-2.57,1.85-5.13C503.3,721.53,536,723.59,547.32,748.15Zm-3.64,12.48c0-14.66-12.71-27.33-27.26-27.17-13.87.14-26.51,13.29-26.42,27.46s12.74,26.59,27.17,26.57A26.59,26.59,0,0,0,543.68,760.63Z"/><path class="cls-2" d="M444.69,369.14c-.1,2.49-1.65,2.78-3.23,3.29-7.55,2.43-15.06,5-22.61,7.43-1.62.52-3.76,1.56-4.73-.79s.19-3.81,2.57-4.62c7.95-2.71,15.87-5.48,24.16-7C442.83,367.08,444.54,366.81,444.69,369.14Z"/><path class="cls-2" d="M483,359.85c-7,1.87-14.15,3.39-20.72,6.65-1.15,0-2.29.12-3.43.1s-2.9.43-3.31-1.47a2.69,2.69,0,0,1,1.83-3.28,170.27,170.27,0,0,1,26.26-7.7c1.25-.24,3.1-.39,3.3,1.45C487.2,358.26,484.27,358.39,483,359.85Z"/><path class="cls-2" d="M528.54,344.83l-26.29,8.68c-1.41-.39-3.48.46-4-1.6-.48-1.86.94-2.91,2.5-3.51a113.38,113.38,0,0,1,24.77-6.47C527.67,341.63,529.08,342.25,528.54,344.83Z"/><path class="cls-2" d="M571.28,333.82c-3.08,3.43-7.59,2.5-11.42,3.61-5.42,1.58-11.05,2.44-16.26,4.76-4-1.26-4.44-4.12-.89-5.46a112,112,0,0,1,26.56-6.1C571.71,330.35,571.6,332.12,571.28,333.82Z"/><path class="cls-2" d="M1671.3,75.39q-128.91.18-257.81.06c-10.19,0-20.4.06-30.6,0-2.18,0-4.45-.09-3.91,3.11.71,4.27-1.53,4.64-5,4.62-24.21-.15-48.42,0-72.62-.21-4.42,0-5.58,1.36-5.48,5.57.26,10.2-.06,20.4.14,30.6.06,3.3-.68,4.66-4.25,4.44a125.43,125.43,0,0,0-14.51,0c-3.2.17-4.56-.88-4.09-4.07.64-4.41-1.44-5.93-5.6-5.34a21.37,21.37,0,0,1-3.1,0l-178.44.08c-2.08,0-4.61,1-4-3.07.42-2.87-1.52-2.75-3.15-1.17-9.83,9.53-15.65,20.59-3.76,33.77.69.78,1.38,1.57,2.12,2.29,4.25,4.09,5,8.85,2.78,14.19-1.85,4.44-3.74,8.89-5.65,13.31-.68,1.59-1.81,3.56.23,4.47,1.51.68,2.83-1.16,3.3-2.61,1.33-4.09,4.16-4.44,8-4.44q90.5.17,181-.1s0,.11,3.2.11,3-4.56,3-4.56c-.12-2.58,1-3.27,3.41-3.19a152.22,152.22,0,0,0,15.55.1c3.43-.24,4,.91,4,4-.17,9.85.17,19.71-.2,29.55-.17,4.58,1.25,5.88,5.75,5.85,24.21-.2,48.42,0,72.62-.21,3.48,0,5.15.47,4.71,4.28-.37,3.36,1.61,4.57,4.71,4.52,2.59,0,5.19,0,7.77,0,45.13,0,90.26.11,135.39,0,3.83,0,4.6,1.15,4.51,4.64-.23,9.15,0,18.32-.14,27.48-.07,2.91.9,4,3.77,3.92,4-.12,7.95,0,11.92,0l120.86,0c9,0,9,.05,9-8.7l.06-158C1676.81,76.37,1675.55,75.39,1671.3,75.39Zm-402.09,46.48a119,119,0,0,0-.19,16.57c.15,3.28-.87,4.08-4,4-11.06-.19-22.13-.09-33.19-.06-1.8,0-3.71-.36-5.4.67.51,2.34,2.13,1.75,3.35,1.75,11.74,0,23.51.14,35.25-.12,3.17-.06,4.25.5,4.06,3.85-.3,5.17-.16,10.37,0,15.55.06,2.22-.63,3.13-2.91,3-3.1-.14-6.22,0-9.33,0q-84.52,0-169.06.11c-4.76,0-6.23-.57-3.79-5.49,2.08-4.23,2.52-9.09.07-13.49-2.11-3.75.07-3.42,2.64-3.41q18.4.06,36.81-.07c1.63,0,3.42.33,5.16-1.13-1.75-1.83-3.4-1.12-4.83-1.13-12.79-.08-25.58-.09-38.37-.1a13,13,0,0,1-12.46-16c1.72-7.2,2.71-8,10.1-8q91.28,0,182.54-.11C1268.37,118.31,1269.52,118.51,1269.21,121.87ZM1273,130c.22-3.64,2.84-2.13,4.59-2.25,2.4-.16,4.82,0,7.23,0v-.07c2.58,0,5.17.09,7.74,0,2.25-.1,3.42.39,3.41,3.07,0,2.88-1.55,2.86-3.63,2.82-5-.11-10-.09-15-.09C1275,133.36,1272.82,133.4,1273,130Zm20.38,29.47c-2.92-.17-5.85-.05-8.78-.05v-.07c-2.94,0-5.87,0-8.79,0-1.9,0-2.86-.77-2.83-2.76,0-1.81.51-2.92,2.64-2.9,6,.05,12.06.06,18.09-.08,2.48-.06,2.2,1.51,2.26,3C1296,158.42,1295.59,159.55,1293.39,159.43Zm-1.72-9.76c-5.13-.31-10.3-.11-15.46-.07-1.78,0-3-.42-3.21-2.44s1.16-2.1,2.62-2.13c.8,0,1.91.3,2-.93a1.56,1.56,0,0,0-1.57-1.68c-2.25,0-3.07-1.3-2.82-3.34.32-2.67,2.43-1.83,4-1.87,2.41-.05,4.81,0,7.21,0v0h3.1c8.07,0,7.88.06,8.43,7.82C1296.22,148.52,1295.46,149.9,1291.67,149.67Zm87.22,45.9c0,3.26-1.64,3-3.86,3-11.92-.06-23.83,0-35.74,0v.1c-11.74,0-23.48-.1-35.23.06-3,0-4.17-.62-4.12-4,.23-15.36.25-30.72.14-46.08,0-2.88.63-3.93,3.64-3.91q36,.11,72-.07c2.55,0,3.23.85,3.21,3.27C1378.83,163.81,1378.76,179.69,1378.89,195.57Zm.06-58.72c0,2.6-.28,3.89-3.59,3.86-23.67-.18-47.33-.13-71,0-2.79,0-4.45-.1-4.4-3.73.24-15,.32-30.06.1-45.08-.07-4.09,1.37-4.76,5-4.69,11.74.23,23.49.08,35.24.08h0c11.4,0,22.8.11,34.2-.06,3.12,0,4.52.38,4.47,4.06C1378.77,106.45,1378.87,121.65,1379,136.85Zm152.34,47c-.29,6.56-.23,13.13-.08,19.69.06,3-1,3.7-4,3.69-23.5-.13-47-.08-70.52-.08v.24c-23.33,0-46.67-.06-70,.07-2.61,0-3.81-.36-3.74-3.26.17-7.25.3-14.51.06-21.76-.14-3.65,2.1-2.75,4-2.75q42.53,0,85.06,0c18.32,0,36.64.09,55-.1C1530.5,179.51,1531.44,180.43,1531.29,183.81ZM1672.59,240c0,3.18-1,3.63-3.85,3.63q-64.32-.1-128.64,0c-3.89,0-4.93-.92-4.88-4.87.25-18.66.23-37.33.13-56,0-8,1-7.32-7.13-7.32q-69.78,0-139.54.1c-4.32,0-6.15-.72-5.79-5.57l.17-87c0-2.85.56-3.76,3.7-3.76q141.1.11,282.19-.1c3.08,0,3.67.79,3.67,3.69Q1672.46,161.43,1672.59,240Z"/><path class="cls-1" d="M1378.89,195.57c0,3.26-1.64,3-3.86,3-11.92-.06-23.83,0-35.74,0v.1c-11.74,0-23.48-.1-35.23.06-3,0-4.17-.62-4.12-4,.23-15.36.25-30.72.14-46.08,0-2.88.63-3.93,3.64-3.91q36,.11,72-.07c2.55,0,3.23.85,3.21,3.27C1378.83,163.81,1378.76,179.69,1378.89,195.57Z"/><path class="cls-1" d="M1672.59,240c0,3.18-1,3.63-3.85,3.63q-64.32-.1-128.64,0c-3.89,0-4.93-.92-4.88-4.87.25-18.66.23-37.33.13-56,0-8,1-7.32-7.13-7.32q-69.78,0-139.54.1c-4.32,0-6.15-.72-5.79-5.57l.17-87c0-2.85.56-3.76,3.7-3.76q141.1.11,282.19-.1c3.08,0,3.67.79,3.67,3.69Q1672.46,161.43,1672.59,240Z"/><path class="cls-2" d="M676.8,132c.22-10.49.22-10.48,10.62-10.48,20.23,0,40.47-.14,60.7.09,4.76.05,8.11-2.55,11.91-4.43,1.68-.83,1.33-2.66,1.34-4.19,0-5.36.15-10.72,0-16.07-.08-3.17,1.25-4.43,4.33-4.18,1.38.11,2.77,0,4.15,0,9.69,0,9.72,0,9.71,9.55,0,4.32.08,8.67-.3,13-.4,4.49.61,6.41,5.79,6.24,12.78-.43,25.59-.17,38.38-.14,2.2,0,4.22.11,6.32,1.56,4.31,3,6.79,1.73,7.13-3.47.23-3.56,2.44-3.12,4.66-3.13q21.78,0,43.58-.07,73.4,0,146.81.12c3.58,0,6.4-.11,7.56-4.27.42-1.49,1.84-3.59,3.79-2.49s.36,3.14-.23,4.57c-1.76,4.3-3.8,8.49-5.62,12.77-2.32,5.49-1.48,10.24,2.83,14.65,4.85,5,9.4,10.23,8.57,18-.8,7.6-5.4,12.89-10.55,17.83-1.16,1.12-3.26,1.87-3-.94.38-3.88-2-3.1-4.17-3.1l-168.6,0c-6.74,0-13.49.09-20.23-.08,0,0-5.21.67-5.21-2.25s-.09-2.46-.09-2.46c0-4.79-2.58-6.68-6.6-4.08-3.12,2-6.18,1.85-9.37,1.88-12.45.13-24.9.24-37.35.06-3.21-.05-4.17.78-4.11,4,.15,6.91-.18,13.83-.1,20.74,0,3.09-1,4-4.2,4.08-14,.21-14,.33-13.93-13.47,0-1.21,0-2.42,0-3.63,0-10.58-2.15-12.89-13-13-20.41-.11-40.81-.06-61.22-.06-10.23,0-10.23,0-10.35-10.26Zm174.49,11.45c-1.71,1.93-3.81,1.51-5.54,1.31-4.1-.47-5,1.27-4.71,5a70.27,70.27,0,0,1-.07,13.45c-.6,5.09,1.12,6.21,6.1,6.19q93.57-.27,187.15.06c6,0,8.36-2.45,9.92-7.31,2.75-8.55-4.22-17.87-13-17.48-2.28.1-4.71,1-7.33-.57,2.5-2.73,5.39-1.48,7.9-1.6s3.16-.76,1.86-3.05c-2.75-4.84-1.74-9.88.3-14.44s.4-4.61-3.44-4.6q-88.91.15-177.81.1c-3.76,0-8.86-1.68-10.89.73-1.88,2.24-.6,7.18-.63,10.93,0,3.11-1,6.85.38,9.15,1.59,2.63,5.72.56,8.66,1.27C850.4,142.63,850.64,142.92,851.29,143.41Zm-126.2-.15c1.69-1.28,3.61-.84,5.36-.85,9,0,18,0,27,0,1.86,0,4,.43,4-2.6-.05-6,0-11.92,0-19.1-6.93,6.15-14.51,5-21.84,4.93-15.55,0-31.1-.27-46.64-.24-12.5,0-12.5.16-12.15,12.72a9,9,0,0,1,0,1c-.21,2.41.8,3.35,3.29,3.34s3.91-.63,3.65-3.49c-.2-2.23.13-4.51-.11-6.73-.32-2.95.92-4,3.73-4,5.69.07,11.4.19,17.09-.05,4.24-.17,5.73,1.36,5.41,5.67-.29,3.9-1.86,8.86,5,10-4.67.53-5.85,3-5.14,6.85.19,1-.1,2.08,0,3.1.4,3.14-.79,4.32-4,4.12-4.31-.27-8.64-.07-13-.06-8.9,0-8.89,0-9-8.7,0-2.09.8-4.53-3.08-4.33-3.24.16-4.2,1.21-3.78,4.35a27.43,27.43,0,0,1-.06,7.24c-.5,3.71.94,4.65,4.54,4.61,19.35-.16,38.7-.11,58.06-.08,5.14,0,10.36-.55,15.25,1.92,2.31,1.17,3-.12,2.87-2.38a105.33,105.33,0,0,1,0-11.92c.26-3.48-1.22-3.9-4.23-3.81-9,.24-18,.19-27,.15C728.54,145,726.44,145.72,725.09,143.26ZM803,153.46v.1c-6.56,0-13.14.18-19.7-.08-3.35-.13-4.16,1.19-4,4.2.13,2.57-.11,4.72,3.64,4.69q19.7-.15,39.4.17c4.22.06,3-2.81,3.17-5,.25-2.45.22-4.33-3.32-4.18C815.75,153.66,809.35,153.46,803,153.46Zm-.06-28.08v.08c-6.91,0-13.83.11-20.74,0-3.57-.08-2.65,2.38-2.73,4.23s-.58,3.87,2.57,3.85c13.31-.1,26.62-.14,39.93,0,3.75,0,3.47-2.11,3.63-4.66.16-2.75-.79-3.58-3.47-3.51C815.69,125.49,809.29,125.38,802.89,125.38Zm-37.4,42.32h0c0,6.36-.07,12.73,0,19.1,0,1.9-1.26,4.66,2.77,4.57,3.73-.08,3-2.56,3-4.64.13-12.56.12-25.12.39-37.68.06-2.44.05-3.91-2.87-4.13-3.44-.26-3.37,1.74-3.33,4.19C765.56,155.3,765.49,161.5,765.49,167.7Zm5.84-47.29h0c0-6.74,0-13.48,0-20.22,0-2.17-.45-3.63-3.15-3.6-2.42,0-2.81,1.19-2.8,3.25.06,13.13.09,26.27,0,39.41,0,2.57,1,3.21,3.41,3.22,2.69,0,2.52-1.55,2.5-3.4C771.29,132.85,771.33,126.63,771.33,120.41ZM802.16,139v.1c-6.55,0-13.13.25-19.66-.1-3.87-.2-3.65,1.89-3.53,4.42.1,2.28-.78,4.75,3.3,4.68,13.29-.22,26.58-.09,39.86-.1,1.15,0,2.73.37,2.86-1.3.16-2.18-1.69-1.69-3-1.68-5.35,0-10.7.29-16,.11-2-.07-5.46,1.6-5.56-1.38-.08-2.24,3.45-1.14,5.37-1.19,5.51-.15,11-.09,16.56-.1,1.45,0,2.91-.05,2.73-2.08-.16-1.8-1.58-1.38-2.74-1.38Zm-96.66,6c-.29-13.59-.29-13.59-11-13a8.85,8.85,0,0,1-1,0c-1.32-.08-1.65.65-1.89,1.84-1.32,6.5.07,8.31,6.62,8.6,1.22,0,3.32-.73,3.37,1.16s-2,1.26-3.3,1.38a7.51,7.51,0,0,1-2.06.07c-4.69-.84-4.42,2.05-4.71,5.41-.37,4.4,2.21,3.68,4.78,3.65,9.33-.11,9.33-.09,9.17-9.59C705.49,144.1,705.5,143.76,705.5,144.94Zm70.15,34.44h.06c0-3.45,0-6.9,0-10.34,0-.87-.08-1.81-1.23-1.84a1.2,1.2,0,0,0-1.28,1.29q-.09,10.35-.11,20.69c0,1,.46,1.63,1.55,1.49,1.26-.17,1-1.22,1-2C775.68,185.59,775.65,182.48,775.65,179.38Zm-.08-82.13-1.92-.15c-1.11,7.37-.37,14.87-.63,22.3,0,.79.53,1.37,1.28,1.08.52-.2,1.21-.9,1.21-1.38C775.59,111.82,775.57,104.53,775.57,97.25Zm-67.9,49.36h-.08c.1,2.06.13,4.12.34,6.17a1.07,1.07,0,0,0,1.46,1c.37-.15.86-.72.83-1.06-.18-2.52.79-5.16-.71-7.53-.44-.71-2-1-.65-2.27,2.57-2.39,1.07-5.52,1.41-8.32.11-.95.22-2.33-1.2-2.38s-1.38,1.27-1.38,2.27C707.66,138.51,707.67,142.56,707.67,146.61ZM832.91,128c-1.49.16-3.83-.72-3.6,2.47.18,2.39,1,3.76,3.78,3.48,2.1-.21,4,0,4.08-3.11C837.26,127.5,835.11,128,832.91,128Zm0,31.9c2.15,0,4.44.51,4.25-2.89-.14-2.56-1.51-3.15-3.7-3.17s-3.93.3-4,3.28S830.91,160.16,832.86,159.93Zm.57-10c1.58-.19,3.56.47,3.71-2.3.17-3.15-2-2.7-3.79-2.63s-4.16-.52-4.12,2.47S831.68,149.71,833.43,150Zm-.37-12c-1.19.25-3.31-.77-3.34,2.13,0,2.51,1.5,2.72,3.35,2.55s4,.63,4-2.46C837,137.5,835,138,833.06,137.94Zm-59.94,19.89c.32,1.33-1.17,3.54.91,3.85,2.43.36,1.63-2.07,1.62-3.36,0-1.5,1-4.1-1.28-4.2S773.71,156.58,773.12,157.83ZM773.05,129c.44,1.28-1.2,3.46,1,3.76,1.86.25,1.64-1.82,1.51-3.06s.91-3.56-1.25-3.75S773.52,128,773.05,129Z"/><path class="cls-2" d="M1152,142.76h51.56C1199.69,145.42,1156.6,145.87,1152,142.76Z"/><path class="cls-2" d="M1136.08,144.13c2.91-2.51,6.07-1.8,10.56-1.17C1142.45,145.46,1139.27,144.64,1136.08,144.13Z"/><path class="cls-2" d="M1220,143.11c-2.89,2.18-6,1.71-9.22.89C1213.67,141.85,1216.83,142.45,1220,143.11Z"/><path class="cls-2" d="M1289.8,142.45c1.43.42,4-1.07,3.88,1.09-.15,3.14-3.21,1.25-4.94,1.64-1.09.24-3.25.83-3-1.39C1286.14,141.05,1288.47,142.78,1289.8,142.45Z"/><path class="cls-2" d="M874.87,142.74h51.29C921.85,145.49,879,145.79,874.87,142.74Z"/><path class="cls-2" d="M1000.26,144.59c-16.93.63-33.87.5-50.81.14,0-.57,0-1.13,0-1.7h50.69C1000.17,143.55,1000.22,144.07,1000.26,144.59Z"/><path class="cls-2" d="M857,143.91c4-2.2,7.2-1.69,10.41-.59C864.37,145,861.24,145.38,857,143.91Z"/><path class="cls-2" d="M932.74,143.87c3.09-1.9,4.12-2,9.29-.84C939.27,145,936.8,145.27,932.74,143.87Z"/><path class="cls-2" d="M1016.75,143.68a17,17,0,0,1-10.8.42C1010.53,141.83,1013.68,142,1016.75,143.68Z"/><path class="cls-2" d="M788,142.31c1.6.55,4.44-.93,4.38,1.35-.06,2.61-3,1.35-4.65,1.43s-4.29.91-4.16-1.39C783.67,141.06,786.56,143.08,788,142.31Z"/></g><g id="Capa_3" data-name="Capa 3"><path d="M854.52,385.81v111H834.7V426.1L815.19,441,799,453.54,782.83,441,763.32,426.1v70.74H743.49v-111L763.32,401,799,428.48,834.7,401Z"/><path d="M908.44,422.77v75.5H888.62V420.71a15.81,15.81,0,0,0-13.48-13.48h-4.45V387.56H875v.16a35.42,35.42,0,0,1,29.5,19.82,42.36,42.36,0,0,1,2.7,7.46,33.47,33.47,0,0,1,1,8.09Z"/><path d="M962.05,422.77v75.5H942.23V420.71a15.81,15.81,0,0,0-13.49-13.48H924.3V387.56h4.29v.16a35.42,35.42,0,0,1,29.5,19.82,42.36,42.36,0,0,1,2.7,7.46,33.47,33.47,0,0,1,1,8.09Z"/><path d="M1065.47,405.48a34.51,34.51,0,0,1,3.65,15.55v75.66h-19.83V419.12a15.8,15.8,0,0,0-13.48-13.48H977.6V385.81h56.31a34.47,34.47,0,0,1,15.54,3.65,35.17,35.17,0,0,1,16,16.18Z"/><path d="M1172.85,405.48a34.64,34.64,0,0,1,3.64,15.55v75.66h-19.82V419.12a15.83,15.83,0,0,0-13.49-13.48H1085V385.81h56.31a34.51,34.51,0,0,1,15.55,3.65,35.27,35.27,0,0,1,16,16.18Z"/></g></g></svg>