<svg xmlns="http://www.w3.org/2000/svg" viewBox="0 0 1920 1080"><defs><style>.cls-1{fill:#010101;}.cls-2{fill:#f2f2f2;}</style></defs><g id="Capa_2" data-name="Capa 2"><g id="Capa_1-2" data-name="Capa 1"><path class="cls-1" d="M953.32,905.69a1172.19,1172.19,0,0,0-132.27,8.62c-64.25,8-127.52,20.65-189.59,39.2-10.57,3.16-21.47,4.11-32.59,4.07,0,0-22.11-.78-34.44-6.43Q506.5,927.95,495,866.63c-1.37-7.25-2.68-14.52-4-21.78q-8.44-49-16.91-97.92c-4.22-24.09-8.59-48.15-12.9-72.22-2.45-14.78-4.94-29.55-7.32-44.34-.53-3.26-2-4.79-5.47-4.37a56,56,0,0,1-7,.06c-12.36-.06-15.06-2.8-15.08-15.42q0-21.92,0-43.82c0-23.08-.2-46.16.15-69.22.1-6.19-2.22-8.29-7.94-8.24-13.77.11-27.53.05-41.29.08-11.81,0-13.66-1.64-13.64-13.59V410.17l4.63-6.06A28.06,28.06,0,0,1,381,396.19c48.58-15.91,97.43-30.87,146.69-44.56a1410.11,1410.11,0,0,1,174.13-36.74c9.89-1.44,20.14-1.38,29.41-6.74,35.31-20.43,70.84-40.48,106.27-60.7a73.83,73.83,0,0,1,51.3-13.26c2.2.12,3.42-1.19,4.78-2.6,3.52-3.65,7-7.39,10.83-10.69,3.37-2.89,2.74-3.71-1.18-5.08-52.48-18.47-104.83-37.3-157.4-55.51C733.47,156,724.36,149.55,719.42,137c-3.47-8.79-8.64-16.89-12.51-25.54-2.58-5.77-2.15-11.59,2.79-16.34,4.72-4.54,10.14-5.9,16.32-3.46,3.72,1.47,6.17,4.26,8,7.77,4,7.7,8.14,15.29,12,23,2.92,5.79,7.28,9.33,13.5,11.5q87.21,30.53,174.3,61.35c5.93,2.09,11.6,5,18.09,5.46l14.94,0a37.15,37.15,0,0,0,10-1.6q91.56-32.53,183.17-65a23.8,23.8,0,0,0,14.6-13c3.42-7.25,7.22-14.34,11.07-21.38,4.81-8.81,12.72-11.63,20.66-7.61,7.72,3.9,10.43,12.4,6.17,21.23-5,10.46-10.52,20.71-15.94,31-3.64,6.92-9.66,10.9-16.92,13.47q-76.31,27-152.56,54.24c-4.49,1.6-9,3.22-14.63,5.26a86.59,86.59,0,0,1,16.24,15.36c1.45,1.72,3.41,1.57,5.29,1.31,17.26-2.4,32,3.4,46.71,12.13,34.89,20.7,70.54,40.12,105.59,60.56,9.81,5.72,20.46,6.49,31,8a1406.64,1406.64,0,0,1,186.39,39.91c44.48,12.63,88.65,26.25,132.64,40.5,4.84,1.57,9.61,3.3,13.36,7a52.4,52.4,0,0,1,6.71,10.26v63.06c0,12.21-1.61,13.88-14,13.91-13.75,0-27.51.17-41.26,0-5.7-.08-7.68,1.95-7.57,7.84.42,22.83.34,45.68.45,68.52-.13,15.82-.4,31.65-.32,47.48,0,5.88-1.78,10.26-7.31,12.72-2.1.09-4.2.22-6.31.24-13.39.13-13.43.12-15.56,13.07-1.87,11.37-3.62,22.76-5.43,34.15-4.45,20.43-7.54,41.1-10.9,61.72q-5,24.3-8.49,48.85-5,28.44-10.06,56.89c-2,10.51-3.68,21.07-5.9,31.52a108.2,108.2,0,0,1-110.87,85.37c-17.07-.82-33-6.84-49.28-11.27A1176.45,1176.45,0,0,0,968,905.7Zm99.45-614.35c-3.41,40.61-37.8,76.56-78.37,82.42,0,0-11,2.09-19.61,1.09a116.81,116.81,0,0,1-18.64-3.33c-38.06-10.78-67.35-45.38-69.15-81.91l-.38-13.41c.14-7.16,1.41-14.28,2.15-21.43.37-3.61,4.14-8.63,1.26-10.31-3.49-2-8.42,1-12.33,3.21l-5,2.83q-59.54,33.79-119.06,67.62a38.44,38.44,0,0,1-14.39,4.58c-30.61,3.94-61,9.12-91.25,15.15-82.57,16.48-162.7,41.7-242.67,67.48-10,3.23-11.59,5.7-11.69,16.14-.16,17.57,0,35.14-.32,52.7-.09,4.56,1.27,5.7,5.7,5.59,13.33-.33,26.67-.47,40-.16,12.83.3,17,4.76,17,17.52q.17,55.88.18,111.75c0,7.73,0,7.73,8.06,6.53,7.57.84,16.55-1.09,19.06,9.7,2.64,17.52,5.54,35,9.18,52.34,5.16,30.09,10.25,60.18,15.49,90.25,4.41,25.31,9,50.59,13.51,75.88,1.24,7.92,2.3,15.87,3.76,23.74a98.08,98.08,0,0,0,124.06,76.35,1204.85,1204.85,0,0,1,192.16-39.5,1170.1,1170.1,0,0,1,127.83-8.34l16.84.16c53-.29,105.67,3.89,158.07,11.42,54.19,7.79,107.79,18.72,160.24,34.58,40.41,12.22,75.53,4.61,105.31-25.6,20.22-20.51,25.74-46.83,28.69-74.09q5.58-26.44,9.31-53.23,4.76-26.71,9.5-53.44c3.4-18.16,6.93-36.3,9.22-54.65,4.25-18.9,7.33-38,10.23-57.16,2.42-5.7,6.82-8.21,12.9-8.08,3.36.07,6.75-.17,10.09.16,3.09.3,4-.71,4-3.78-.21-15.57-.25-31.15-.35-46.72q.24-34.59.46-69.16c.06-11.48,3.75-15.91,15.32-16.34,14.17-.53,28.36-.42,42.53-.35,3.84,0,5-1,5-5.05-.29-17.56-.13-35.13-.29-52.69-.1-10.42-2.41-13.39-12.15-16.58-50.91-16.68-102.12-32.42-153.83-46.46a1329.94,1329.94,0,0,0-172.33-35.09c-7.68-1-15.39-1.63-22.52-5.72-40.51-23.23-81.18-46.17-121.78-69.25-3.14-1.78-6.24-3.58-9.79-4.37-3.38-.75-5.74-1.09-4.26,4.08a90.38,90.38,0,0,1,3.42,27ZM965.88,394.13q49.22-.17,98.42-.12c6.77,0,11.18-3,13.7-9.2,2.63-6.44,5.14-12.95,8.11-19.25a49.22,49.22,0,0,1,51.44-28l67.19,9.22c63.25,8.66,125.82,20.49,187.21,38.31,21.14,6.15,39.4,16.25,52.73,34.12,18.18,24.38,21.36,51.5,15.44,80.72-4.4,21.71-8.49,43.51-11.29,65.52-4.22,19.26-7.39,38.71-10.5,58.17-3.56,18.64-7.41,37.24-9.63,56.11-1.22,1.52-1.25,3.28-1,5.09l-.3,2.54c-3.73,15.94-6.21,32.1-8.64,48.26q-4.23,23.43-8.45,46.87-5.23,29.91-10.48,59.84c-1.79,9.33-3.44,18.69-5.41,28-7.88,37.26-44.08,62.86-81.64,57.26-19.83-2.95-39-9-58.5-13.64-61.68-14.55-123.73-27.18-186.88-33.23A1139.25,1139.25,0,0,0,940.56,876,1112.81,1112.81,0,0,0,746,896.54c-44.56,8.65-88.54,19.71-132.71,30-38.11,8.89-76.75-14.58-86.58-52.67-2.58-10-4.28-20.2-6.38-30.31-.44-3.55-.71-7.12-1.34-10.64q-14-78.55-28-157.09l-9.09-51C478.63,605,475.6,585,471.05,565.41c-.31-2.93-.48-5.88-1-8.78-4-23.5-8.65-46.91-12-70.51-6.37-44.73,20.08-85.57,63.39-98.83q37.83-11.58,76.48-20.09c60.32-13.2,121.4-21.71,182.6-29.41,26-3.27,44.7,7.82,55.08,31.84,2.52,5.81,5,11.61,7.63,17.39a10.9,10.9,0,0,0,10.51,6.85q50.49.17,101,.17ZM1025.15,275c-2.91-10.7-4.54-21.57,2.07-31.79,1.44-2.24-.1-3.85-1.47-5.58-13.76-17.27-31.38-27.92-53.26-31.38,0,0-4.29-1.16-18.15-.65-25.26,2.36-45.15,14.08-60.45,34.06-1.15,1.51-1.64,2.81-.58,4.57,5.2,8.6,4.42,17.71,2.28,27a47.19,47.19,0,0,0-1.5,13.82,67.86,67.86,0,0,0,56.45,62.87s10.62,1.51,19-.06c30.71-5.69,52.52-28.91,56.24-59.68A39.44,39.44,0,0,0,1025.15,275Zm-86.75-72a39.6,39.6,0,0,0-4.12-2.12c-58.84-20.73-117.66-41.55-176.59-62a28.47,28.47,0,0,1-17.35-15.45c-3.48-7.22-7-14.4-10.89-21.43-3.35-6.09-8.21-8-13-5.75-5.7,2.68-7.44,7.85-4.22,14.49,4.79,9.88,10,19.56,15,29.33,3.57,6.95,9.22,11.15,16.59,13.75Q826.44,183,909,212.55c2.07.74,4.08,1.57,6.09.45A131.8,131.8,0,0,1,938.4,203.07ZM1199.34,95.49c-4.38.06-6.91,2.86-8.75,6.31-3.77,7.07-7.49,14.18-10.94,21.41-3.64,7.64-9.05,12.76-17.26,15.58-25.7,8.82-51.24,18.12-76.87,27.16-14.5,5.11-14.44,5-9.63,19.35,1,2.89,2.15,3.55,5,2.54q49.4-17.73,98.83-35.35c4-1.45,7.75-3.62,10.07-7.33,7.29-11.65,13.08-24.12,18.84-36.54C1211.54,102.29,1206.25,95.46,1199.34,95.49Zm-228.82,274c39.61-5,70-37.77,72.23-78.06-.71-2.22,2.4-5.72-1.67-7.44-5.7-2.41-9.79,0-10.67,6.19-5.05,35.35-29.4,59.11-64.74,63.2,0,0-9.61,1-14.85-.19a6.06,6.06,0,0,1-1.85-.41c-34.53-7.37-54.19-28.2-59.27-63.62-.8-5.64-3.58-5.46-7.62-5.46-5.29,0-3.57,3.73-3.51,6.28,1,40.12,30,72.42,71.25,79.34C949.82,369.27,962.89,370.77,970.52,369.44Zm12.81-167.25c0,.56,0,1.11,0,1.67,7.38,1.28,14.09,4.23,20.54,7.71a9.27,9.27,0,0,0,8.34.48c15.27-5.53,30.62-10.85,45.93-16.27,4.36-1.54,10.28-1.94,12.64-5,2.9-3.81-2.27-8.8-2.6-13.47-.38-5.36-2.93-4.27-6.3-3.05-13.48,4.88-27,9.6-40.52,14.4Q1002.33,195.4,983.33,202.19ZM1036.1,281c6.14,1.42,7-1.1,5.81-6.7a98.46,98.46,0,0,0-7.53-23.21c-.74-1.51-.77-4.33-3.28-3.86-2.1.39-2.1,2.87-2.47,4.67-1.73,8.28.55,16.22,1.77,24.31C1031,280.05,1031.88,282.12,1036.1,281ZM892.44,261c-.39-3.4-.75-6.32-1-9.26-.15-1.46,0-3.22-1.87-3.54s-2.25,1.66-2.82,2.88A105.45,105.45,0,0,0,878.88,277c-.3,1.65-1.19,4.35,2,4,2.78-.3,7,2.43,8.17-1.8C890.77,273.12,891.42,266.78,892.44,261Zm-21.23,20.3c3.26-1.34,2.86-3.35,3-4.83a85.27,85.27,0,0,1,8.18-27.73c.67-1.34,2.83-3.67-.57-4.41-2.15-.48-5-.7-5.78,2.29C873.09,257.75,870.92,269,871.21,281.3Zm177-10.26c0-8.86-2.15-17.08-4.74-25.17-.72-2.26-3-2.17-4.83-1.36-2,.94-.81,2.34-.12,3.64a89.73,89.73,0,0,1,6.53,17.63C1045.62,267.64,1045.14,270.08,1048.25,271ZM872.75,296V285A13.79,13.79,0,0,0,872.75,296Z"/><path class="cls-2" d="M1456.63,488.11q-6.51,37.14-13,74.26a20.7,20.7,0,0,1-1,3c-2.81,20.5-6.78,40.79-10.64,61.1q-4.26,24.06-8.51,48.13c-3.24,20.37-6.58,40.72-10.81,60.91q-3.54,24.47-8.58,48.65c-3.13,20.31-6.47,40.58-10.85,60.67-1.22,7.59-2.11,15.25-3.72,22.75-8.49,39.49-44.73,62.78-84,53.48-45.58-10.79-91-22.11-137.11-30.78-63.74-12-127.93-19.13-192.84-19.23-.63,0-1.27,0-1.9,0l-25.12-.09c-30.47.4-60.91,1.33-91.28,4.21-53.69,5.1-106.71,14.24-159.25,26.24-28,6.39-55.8,13.42-83.78,19.74-40.86,9.24-78.42-16.67-84.81-58.13-.93-6.05-1.74-12.1-2.6-18.15-4.61-19.49-7.32-39.33-10.88-59-6.45-35.68-12.56-71.43-18.81-107.15-2.95-17-6.67-33.9-8.71-51.07-4.29-20.63-8-41.36-11-62.22-3.9-21.38-7.87-42.75-11.69-64.15-2.36-13.09-5-26.14-2.59-39.62,6.14-33.87,24.88-58,57.56-68.55,45-14.57,91.14-24.69,137.85-32.36C700.2,353.84,742,348,783.84,342.23c18.09-2.47,36.9,8.14,45.3,25.92,2.87,6.09,5.29,12.4,7.92,18.62,3.5,8.25,9.57,12.46,18.7,12.45q103.51,0,207,.07c10.09,0,16.88-4.36,20.48-13.8,1.34-3.55,3-7,4.48-10.49,11.6-27,27.51-35.78,56.56-31.69,39.29,5.53,78.58,11.05,117.74,17.48,45.46,7.46,90.14,18.15,134.3,31C1436.33,403.51,1464.24,444.76,1456.63,488.11Z"/><path class="cls-1" d="M932.89,270.47c2.37-8.78,9.28-15,18.18-16.91,0,0,12.21-3.48,19.86.14,10.64,3.34,17.05,11.07,18.89,21.77,0,0,2,7.5-1.77,17.5-4.34,13-16.17,19.09-31.34,18.39-10.31-.47-21.43-9.05-24.41-20.06A45.83,45.83,0,0,1,932.89,270.47Zm47.82,11.64c-.68,1.77-1.86,1.45-2.77,1.63-5.4,1.06-12.85-3.19-15.85,1.6-2.58,4.13-.39,11.09-.86,16.75-.38,4.53,1.58,4.89,5.12,4a25.16,25.16,0,0,0-.73-49.05c-3.11-.68-4.26.13-4.21,3.31.09,5.28.18,10.57-.17,15.83-.26,3.85.86,5.1,4.87,5C970.88,281.14,975.88,280.09,980.71,282.11ZM958.5,269.05c0-2.53-.19-5.07,0-7.57.39-4.13-.9-5.25-5-3.81a25.91,25.91,0,0,0-14.68,12.19c-5.27,9.5-4.3,11.18,6.18,11.22h1.26C958.41,281.13,958.41,281.13,958.5,269.05Zm.17,26.31c-.16-11.85-.16-11.85-11.95-11.78-2.52,0-5.05.13-7.57,0-3.13-.19-3.66,1.41-2.88,3.89,1.94,6.19,5.24,11.51,10.78,15.06,3.14,2,7,5,10.31,3.38,3-1.49.86-6.08,1.3-9.26A10.59,10.59,0,0,0,958.67,295.36Z"/><rect class="cls-2" width="1" height="1"/><rect class="cls-2" x="1919" y="1079" width="1" height="1"/><rect class="cls-2" y="1079" width="1" height="1"/><rect class="cls-2" x="1919" width="1" height="1"/></g><g id="Capa_3" data-name="Capa 3"><path d="M844.77,576.42v111H824.94V616.71l-19.51,14.9-16.18,12.54-16.18-12.54-19.51-14.9v70.74H733.74v-111l19.82,15.22,35.69,27.44,35.69-27.44Z"/><path d="M898.69,613.37v75.51H878.86V611.31a15.8,15.8,0,0,0-13.48-13.48h-4.44V578.16h4.28v.16A35.55,35.55,0,0,1,878.7,582a35.17,35.17,0,0,1,16,16.18,41.76,41.76,0,0,1,2.7,7.45,33,33,0,0,1,1,8.09Z"/><path d="M952.3,613.37v75.51H932.47V611.31A15.8,15.8,0,0,0,919,597.83h-4.44V578.16h4.28v.16A35.55,35.55,0,0,1,932.31,582a35.17,35.17,0,0,1,16,16.18,41.76,41.76,0,0,1,2.7,7.45,33.53,33.53,0,0,1,1,8.09Z"/><path d="M1055.71,596.09a34.44,34.44,0,0,1,3.65,15.54v75.66h-19.82V609.73a15.85,15.85,0,0,0-13.49-13.49H967.84V576.42h56.31a34.44,34.44,0,0,1,15.54,3.65,35.2,35.2,0,0,1,16,16.17Z"/><path d="M1176.73,631.46A32.75,32.75,0,0,1,1153.26,687h-45.53a32.57,32.57,0,0,1-30.13-20,34.31,34.31,0,0,1-2.54-12.85V608.62a32.12,32.12,0,0,1,8.25-21.42,33.6,33.6,0,0,1,9.51-7.45,31.45,31.45,0,0,1,14.91-3.65h69v19.83h-69a13.06,13.06,0,0,0-13,13v15.55a32.44,32.44,0,0,1,12.37-2.54h46.79a32.77,32.77,0,0,1,23,10Zm-23.63,35.69a13.06,13.06,0,0,0,13-13,12.92,12.92,0,0,0-12.21-13H1107.1a13,13,0,0,0,.63,26h45.37Z"/></g></g></svg>