<svg xmlns="http://www.w3.org/2000/svg" viewBox="0 0 1920 1080"><defs><style>.cls-1{fill:#f2f2f2;}.cls-2{fill:#020202;}</style></defs><g id="Capa_2" data-name="Capa 2"><g id="Capa_1-2" data-name="Capa 1"><rect class="cls-1" width="1" height="1"/><rect class="cls-1" x="1919" y="1079" width="1" height="1"/><rect class="cls-1" y="1079" width="1" height="1"/><rect class="cls-1" x="1919" width="1" height="1"/></g><g id="Capa_3" data-name="Capa 3"><path class="cls-1" d="M1410.82,435.09q-14.92,55.23-29.76,110.48c-.28,1-.74,2-1.12,3l-16.74,62.18q-6.75,24.62-13.47,49.28c-5,20.92-10.59,41.68-17,62.24-4,16.65-7.4,33.51-14.58,49.23-9.77,24.85-27.3,42.89-49.73,56.62-3,1.85-3.6.28-3.58-2.54.19-17.65.28-35.3.39-53q0-25.21,0-50.44,0-31.16,0-62.33,0-24.63,0-49.27V548.25c-.08-18.79-.21-37.59-.22-56.38,0-54.91.09-109.8-.21-164.69,0-6.54,2-7.47,7.47-5.88a53.87,53.87,0,0,0,8.92,1.3c1.63.18,3.81.83,3.85-1.92,0-2.11-1.65-2.91-3.47-3.19-4.26-.66-8.54-1.23-12.81-1.8-2.38-.33-3.93-1.11-3.91-4,.09-16.15,0-32.31,0-49.06,30.51,7.59,61.67,10.29,88.34,27.59a138.63,138.63,0,0,1,48.49,53.5c-6,.25-10.68-2.14-15.63-3-1.69-.3-3.32-1-5-1.17s-4.27-1.22-4.71,1.68c-.33,2.19,1.8,2.76,3.44,3.19,5.4,1.41,10.79,3,16.3,3.95,6.25,1.06,9.89,3.66,12,10.32C1416.21,384,1417.78,409.31,1410.82,435.09Z"/><path class="cls-1" d="M1259.69,335.46c.22,5.61,0,11.23.06,16.86v50.61q0,68.44,0,136.91c0,2.79-.17,5.6-.26,8.4q0,31.2,0,62.37,0,24.28,0,48.58c.1,15.85,1,31.77-.22,47.53-.37,5.14-2.15,10.18-.75,15.47,2.42,10.49.9,20.51-3.4,30.28-1,2.26-4.56,6.76,2.72,5.06,2.62-.61,2,1.64,2,3,0,3.66-.19,7.34-.31,11,.09,19.16.1,38.32.31,57.46,0,3.8-2,4.85-5.09,5.14a90.55,90.55,0,0,1-37.34,8.62c-66.82.29-133.65.23-200.46.29-.78,0-1.56-.13-2.79-.25.67-3,3.19-3.18,4.72-4.37,3.6-2.75,7.29-5.39,10.77-8.28,1.76-1.44,4.46-3.47,2.33-5.81-2-2.17-3.94.65-5.24,2-6,6.22-15.16,8.37-20.08,16-1,1.5-3.25.72-4.92.72L923,843c-2.32,0-4.91.5-6.11-2.41q-9-5.91-18-11.82c-2.3-1.5-4.49-3.26-7.53-2.69-.57,4.36,3.14,5.83,5.66,7.9,3.39,2.8,7.13,5.19,10.56,7.62-.53,1.79-1.56,1.46-2.31,1.46q-98.47,0-196.91-.17c-13.76,0-27.34-1.52-40-7.65-6.73-.33-9.12-3.77-8.45-10.46.65-6.36.37-12.83.5-19.26v-3.17q0-10.22,0-20.43c0-.9,0-1.78,0-2.67V777c-.07-9.51-1.91-19.46.28-28.42,2.54-10.33-.19-21.08,4-31,.51-1.16,1.11-3.14-.71-3-5.39.61-3.92-3-3.91-5.73q.13-51.24.31-102.5V548.24c-.09-26.59-.23-53.19-.26-79.78,0-46.93.07-93.87,0-140.8,0-5-.63-10,7.18-12.3-7.4-1.66-7.37-5.83-7.27-10.61.3-12.74.26-25.51.06-38.26-.07-3.33.35-4.85,4.13-5.52q43.69-7.76,87.83-12.45c44.5-4.77,89.11-8.16,133.84-9.9C920.09,237,970,236.79,970,236.79c53.62,1.33,107.2,3.35,160.65,8,41.94,3.68,83.74,8.68,125.2,16.23,3.33.61,4,1.52,4,4.74-.21,13.84-.09,27.68-.08,41.52,5.66,4.33-11,5.78-1.26,12C1262.33,321.77,1259.46,329.91,1259.69,335.46Z"/><path class="cls-1" d="M655,326.39c-.35,8.21-.12,16.43-.12,24.65q0,95.37,0,190.75c0,2.15-.16,4.31-.24,6.46q0,31.18,0,62.35.07,59.79.14,119.6c0,13.37-.09,26.72-.16,40.07.09,18.15.07,36.31.32,54.45.07,5.12-2,4.07-4.89,2.35a119.14,119.14,0,0,1-44.38-46.15c-1.64-3-2.78-6.26-4.16-9.39-6.32-12.63-8.71-26.52-12.42-40-11-39.87-21.5-79.87-32.21-119.83q-8.37-31-16.75-61.94c-11.59-42.12-24.25-84-33.58-126.68-5-22.81-1.53-45.54,6.25-67.57,1.27-3.64,3.13-5.61,7.14-6.33,6.55-1.18,13-3.07,19.46-4.72,1.84-.47,4.43-.91,4-3.33-.58-3.13-3.45-2-5.35-1.53-6.25,1.44-12.44,3.14-19.73,5,2-6.41,5.26-11.06,8.39-15.7,22-32.58,53.18-50.94,91.33-58.36,11-2.14,22-4.39,32.89-7,3.49-.83,4.07.17,4.05,3.27-.11,14.7-.17,29.41,0,44.11,0,3.13-1.34,4.22-4,4.6-3.85.53-7.68,1.16-11.52,1.69-2.46.35-5.32.79-4.76,3.92.44,2.53,3.2,1.46,4.95,1.3a48.79,48.79,0,0,0,9.6-1.43C654.43,319.51,655.15,321.75,655,326.39Z"/><path class="cls-2" d="M1313.15,268.06c-48.73-11.9-98.14-19.84-148.05-25-66.1-6.87-132.35-10.44-198.78-11.11l-13-.32c-28.56,0-57.1,1-85.62,2.61-69.3,3.77-138.43,9.33-206.75,22.2-22.66,4.27-45.66,7.78-67.42,15.55-54.51,19.42-85.63,58.24-93.43,115.64-2.95,21.69,1.54,42.46,7.27,63.2,9,32.38,17.48,64.89,26.19,97.34l16.71,62.15Q565,663.82,579.58,717.37c4.71,17.2,9.52,34.37,14.28,51.55,10.07,24.81,26,44.94,48.17,60,11.06,7,23.16,11.74,35.74,15.19,11.11,3.06,22.47,4.07,34,4.06q104.49,0,209,0c3,0,5.44,1.14,8.24,2.27,8.59,3.44,17.67,6.35,27.3,4.12-1-5.17-6.12-2.32-8.76-4.84l-1.76-1.52H977.4c-2.52,3-5.14,2.52-7.16,3.37-1.23.51-2.63.84-2.4,2.49s1.73,1.7,3,1.7a42.86,42.86,0,0,0,15.83-3c10.95-4.38,22.22-4.74,33.73-4.72,61.65.13,123.29-.17,184.94.2,26.44.15,50.77-6.26,73.23-20.08,21.28-15.08,37.2-34.46,47.07-58.7l13.62-47.68c5.39-21.68,11-43.31,17.58-64.67,3.57-15.8,7.76-31.44,12.78-46.84,4.67-21,10.81-41.55,16.59-62.23,9.74-36.23,19.74-72.4,29.17-108.72C1435.82,361,1391.85,287.27,1313.15,268.06ZM655,326.39c-.35,8.21-.12,16.43-.12,24.65q0,95.37,0,190.75c0,2.15-.16,4.31-.24,6.46q0,31.18,0,62.35.07,59.79.14,119.6c0,13.37-.09,26.72-.16,40.07.09,18.15.07,36.31.32,54.45.07,5.12-2,4.07-4.89,2.35a119.14,119.14,0,0,1-44.38-46.15c-1.64-3-2.78-6.26-4.16-9.39-6.32-12.63-8.71-26.52-12.42-40-11-39.87-21.5-79.87-32.21-119.83q-8.37-31-16.75-61.94c-11.59-42.12-24.25-84-33.58-126.68-5-22.81-1.53-45.54,6.25-67.57,1.27-3.64,3.13-5.61,7.14-6.33,6.55-1.18,13-3.07,19.46-4.72,1.84-.47,4.43-.91,4-3.33-.58-3.13-3.45-2-5.35-1.53-6.25,1.44-12.44,3.14-19.73,5,2-6.41,5.26-11.06,8.39-15.7,22-32.58,53.18-50.94,91.33-58.36,11-2.14,22-4.39,32.89-7,3.49-.83,4.07.17,4.05,3.27-.11,14.7-.17,29.41,0,44.11,0,3.13-1.34,4.22-4,4.6-3.85.53-7.68,1.16-11.52,1.69-2.46.35-5.32.79-4.76,3.92.44,2.53,3.2,1.46,4.95,1.3a48.79,48.79,0,0,0,9.6-1.43C654.43,319.51,655.15,321.75,655,326.39Zm603.53-7.07c3.85,2.45,1,10.59,1.21,16.14s0,11.23.06,16.86v50.61q0,68.44,0,136.91c0,2.79-.17,5.6-.26,8.4q0,31.2,0,62.37,0,24.28,0,48.58c.1,15.85,1,31.77-.22,47.53-.37,5.14-2.15,10.18-.75,15.47,2.42,10.49.9,20.51-3.4,30.28-1,2.26-4.56,6.76,2.72,5.06,2.62-.61,2,1.64,2,3,0,3.66-.19,7.34-.31,11,.09,19.16.1,38.32.31,57.46,0,3.8-2,4.85-5.09,5.14a90.55,90.55,0,0,1-37.34,8.62c-66.82.29-133.65.23-200.46.29-.78,0-1.56-.13-2.79-.25.67-3,3.19-3.18,4.72-4.37,3.6-2.75,7.29-5.39,10.77-8.28,1.76-1.44,4.46-3.47,2.33-5.81-2-2.17-3.94.65-5.24,2-6,6.22-15.16,8.37-20.08,16-1,1.5-3.25.72-4.92.72L923,843c-2.32,0-4.91.5-6.11-2.41q-9-5.91-18-11.82c-2.3-1.5-4.49-3.26-7.53-2.69-.57,4.36,3.14,5.83,5.66,7.9,3.39,2.8,7.13,5.19,10.56,7.62-.53,1.79-1.56,1.46-2.31,1.46q-98.47,0-196.91-.17c-13.76,0-27.34-1.52-40-7.65-6.73-.33-9.12-3.77-8.45-10.46.65-6.36.37-12.83.5-19.26v-3.17q0-10.22,0-20.43c0-.9,0-1.78,0-2.67V777c-.07-9.51-1.91-19.46.28-28.42,2.54-10.33-.19-21.08,4-31,.51-1.16,1.11-3.14-.71-3-5.39.61-3.92-3-3.91-5.73q.13-51.24.31-102.5V548.24c-.09-26.59-.23-53.19-.26-79.78,0-46.93.07-93.87,0-140.8,0-5-.63-10,7.18-12.3-7.4-1.66-7.37-5.83-7.27-10.61.3-12.74.26-25.51.06-38.26-.07-3.33.35-4.85,4.13-5.52q43.69-7.76,87.83-12.45c44.5-4.77,89.11-8.16,133.84-9.9C920.09,237,970,236.79,970,236.79c53.62,1.33,107.2,3.35,160.65,8,41.94,3.68,83.74,8.68,125.2,16.23,3.33.61,4,1.52,4,4.74-.21,13.84-.09,27.68-.08,41.52C1265.4,311.65,1248.69,313.1,1258.48,319.32Zm152.34,115.77q-14.92,55.23-29.76,110.48c-.28,1-.74,2-1.12,3l-16.74,62.18q-6.75,24.62-13.47,49.28c-5,20.92-10.59,41.68-17,62.24-4,16.65-7.4,33.51-14.58,49.23-9.77,24.85-27.3,42.89-49.73,56.62-3,1.85-3.6.28-3.58-2.54.19-17.65.28-35.3.39-53q0-25.21,0-50.44,0-31.16,0-62.33,0-24.63,0-49.27V548.25c-.08-18.79-.21-37.59-.22-56.38,0-54.91.09-109.8-.21-164.69,0-6.54,2-7.47,7.47-5.88a53.87,53.87,0,0,0,8.92,1.3c1.63.18,3.81.83,3.85-1.92,0-2.11-1.65-2.91-3.47-3.19-4.26-.66-8.54-1.23-12.81-1.8-2.38-.33-3.93-1.11-3.91-4,.09-16.15,0-32.31,0-49.06,30.51,7.59,61.67,10.29,88.34,27.59a138.63,138.63,0,0,1,48.49,53.5c-6,.25-10.68-2.14-15.63-3-1.69-.3-3.32-1-5-1.17s-4.27-1.22-4.71,1.68c-.33,2.19,1.8,2.76,3.44,3.19,5.4,1.41,10.79,3,16.3,3.95,6.25,1.06,9.89,3.66,12,10.32C1416.21,384,1417.78,409.31,1410.82,435.09Zm-97.67-167c-48.73-11.9-98.14-19.84-148.05-25-66.1-6.87-132.35-10.44-198.78-11.11l-13-.32c-28.56,0-57.1,1-85.62,2.61-69.3,3.77-138.43,9.33-206.75,22.2-22.66,4.27-45.66,7.78-67.42,15.55-54.51,19.42-85.63,58.24-93.43,115.64-2.95,21.69,1.54,42.46,7.27,63.2,9,32.38,17.48,64.89,26.19,97.34l16.71,62.15Q565,663.82,579.58,717.37c4.71,17.2,9.52,34.37,14.28,51.55,10.07,24.81,26,44.94,48.17,60,11.06,7,23.16,11.74,35.74,15.19,11.11,3.06,22.47,4.07,34,4.06q104.49,0,209,0c3,0,5.44,1.14,8.24,2.27,8.59,3.44,17.67,6.35,27.3,4.12-1-5.17-6.12-2.32-8.76-4.84l-1.76-1.52H977.4c-2.52,3-5.14,2.52-7.16,3.37-1.23.51-2.63.84-2.4,2.49s1.73,1.7,3,1.7a42.86,42.86,0,0,0,15.83-3c10.95-4.38,22.22-4.74,33.73-4.72,61.65.13,123.29-.17,184.94.2,26.44.15,50.77-6.26,73.23-20.08,21.28-15.08,37.2-34.46,47.07-58.7l13.62-47.68c5.39-21.68,11-43.31,17.58-64.67,3.57-15.8,7.76-31.44,12.78-46.84,4.67-21,10.81-41.55,16.59-62.23,9.74-36.23,19.74-72.4,29.17-108.72C1435.82,361,1391.85,287.27,1313.15,268.06ZM655,326.39c-.35,8.21-.12,16.43-.12,24.65q0,95.37,0,190.75c0,2.15-.16,4.31-.24,6.46q0,31.18,0,62.35.07,59.79.14,119.6c0,13.37-.09,26.72-.16,40.07.09,18.15.07,36.31.32,54.45.07,5.12-2,4.07-4.89,2.35a119.14,119.14,0,0,1-44.38-46.15c-1.64-3-2.78-6.26-4.16-9.39-6.32-12.63-8.71-26.52-12.42-40-11-39.87-21.5-79.87-32.21-119.83q-8.37-31-16.75-61.94c-11.59-42.12-24.25-84-33.58-126.68-5-22.81-1.53-45.54,6.25-67.57,1.27-3.64,3.13-5.61,7.14-6.33,6.55-1.18,13-3.07,19.46-4.72,1.84-.47,4.43-.91,4-3.33-.58-3.13-3.45-2-5.35-1.53-6.25,1.44-12.44,3.14-19.73,5,2-6.41,5.26-11.06,8.39-15.7,22-32.58,53.18-50.94,91.33-58.36,11-2.14,22-4.39,32.89-7,3.49-.83,4.07.17,4.05,3.27-.11,14.7-.17,29.41,0,44.11,0,3.13-1.34,4.22-4,4.6-3.85.53-7.68,1.16-11.52,1.69-2.46.35-5.32.79-4.76,3.92.44,2.53,3.2,1.46,4.95,1.3a48.79,48.79,0,0,0,9.6-1.43C654.43,319.51,655.15,321.75,655,326.39Zm603.53-7.07c3.85,2.45,1,10.59,1.21,16.14s0,11.23.06,16.86v50.61q0,68.44,0,136.91c0,2.79-.17,5.6-.26,8.4q0,31.2,0,62.37,0,24.28,0,48.58c.1,15.85,1,31.77-.22,47.53-.37,5.14-2.15,10.18-.75,15.47,2.42,10.49.9,20.51-3.4,30.28-1,2.26-4.56,6.76,2.72,5.06,2.62-.61,2,1.64,2,3,0,3.66-.19,7.34-.31,11,.09,19.16.1,38.32.31,57.46,0,3.8-2,4.85-5.09,5.14a90.55,90.55,0,0,1-37.34,8.62c-66.82.29-133.65.23-200.46.29-.78,0-1.56-.13-2.79-.25.67-3,3.19-3.18,4.72-4.37,3.6-2.75,7.29-5.39,10.77-8.28,1.76-1.44,4.46-3.47,2.33-5.81-2-2.17-3.94.65-5.24,2-6,6.22-15.16,8.37-20.08,16-1,1.5-3.25.72-4.92.72L923,843c-2.32,0-4.91.5-6.11-2.41q-9-5.91-18-11.82c-2.3-1.5-4.49-3.26-7.53-2.69-.57,4.36,3.14,5.83,5.66,7.9,3.39,2.8,7.13,5.19,10.56,7.62-.53,1.79-1.56,1.46-2.31,1.46q-98.47,0-196.91-.17c-13.76,0-27.34-1.52-40-7.65-6.73-.33-9.12-3.77-8.45-10.46.65-6.36.37-12.83.5-19.26v-3.17q0-10.22,0-20.43c0-.9,0-1.78,0-2.67V777c-.07-9.51-1.91-19.46.28-28.42,2.54-10.33-.19-21.08,4-31,.51-1.16,1.11-3.14-.71-3-5.39.61-3.92-3-3.91-5.73q.13-51.24.31-102.5V548.24c-.09-26.59-.23-53.19-.26-79.78,0-46.93.07-93.87,0-140.8,0-5-.63-10,7.18-12.3-7.4-1.66-7.37-5.83-7.27-10.61.3-12.74.26-25.51.06-38.26-.07-3.33.35-4.85,4.13-5.52q43.69-7.76,87.83-12.45c44.5-4.77,89.11-8.16,133.84-9.9C920.09,237,970,236.79,970,236.79c53.62,1.33,107.2,3.35,160.65,8,41.94,3.68,83.74,8.68,125.2,16.23,3.33.61,4,1.52,4,4.74-.21,13.84-.09,27.68-.08,41.52C1265.4,311.65,1248.69,313.1,1258.48,319.32Zm152.34,115.77q-14.92,55.23-29.76,110.48c-.28,1-.74,2-1.12,3l-16.74,62.18q-6.75,24.62-13.47,49.28c-5,20.92-10.59,41.68-17,62.24-4,16.65-7.4,33.51-14.58,49.23-9.77,24.85-27.3,42.89-49.73,56.62-3,1.85-3.6.28-3.58-2.54.19-17.65.28-35.3.39-53q0-25.21,0-50.44,0-31.16,0-62.33,0-24.63,0-49.27V548.25c-.08-18.79-.21-37.59-.22-56.38,0-54.91.09-109.8-.21-164.69,0-6.54,2-7.47,7.47-5.88a53.87,53.87,0,0,0,8.92,1.3c1.63.18,3.81.83,3.85-1.92,0-2.11-1.65-2.91-3.47-3.19-4.26-.66-8.54-1.23-12.81-1.8-2.38-.33-3.93-1.11-3.91-4,.09-16.15,0-32.31,0-49.06,30.51,7.59,61.67,10.29,88.34,27.59a138.63,138.63,0,0,1,48.49,53.5c-6,.25-10.68-2.14-15.63-3-1.69-.3-3.32-1-5-1.17s-4.27-1.22-4.71,1.68c-.33,2.19,1.8,2.76,3.44,3.19,5.4,1.41,10.79,3,16.3,3.95,6.25,1.06,9.89,3.66,12,10.32C1416.21,384,1417.78,409.31,1410.82,435.09Zm265.93,153.44c-.18-13.39-.38-23.4-.56-36.81,0-3.65-5.83-13.83-5.83-13.83-9-13.15-21.65-18.24-37.29-18.07-27,.3-54.09.07-81.13.09-6.09,0-12.17-.45-17.74-3-15.73-7.21-24.62-19.27-25.11-36.87-.59-20.29,1-40.65-2.46-60.84q-17.42-102.07-108.91-150.49c-23.78-12.59-49.89-17.6-75.75-23.58C1252.1,229,1181.24,220,1109.81,215c-47.7-3.3-95.46-5.33-143.28-5.18l-15.15,0c-61.81,0-174.53,7.47-174.53,7.47-15,1.69-30,3.42-45.06,5.07-31.78,3.49-63.4,8.26-94.74,14.64-28.12,5.73-56.64,10.19-83.85,19.36-78.74,26.54-125.19,81.41-140,163-3.47,19.07-2.17,38.38-2.41,57.61-.32,26-16.4,42.52-42.51,42.8s-51.93.41-77.89,0c-17.57-.29-32.57,3.87-42,19.76L244,552c-1.31,36.33-.44,72.65-.53,109,0,12.58,5.57,22.38,16.46,29,4,2.48,7.95,5.15,11.91,7.74,10,5.91,20,11.61,29.81,17.78A42.75,42.75,0,0,0,326,722.24c13.53-.25,27.08.07,40.62.14,14.87-.09,29.73-.22,44.6-.24,6.43,0,12.9,0,19.07,2.3,9.66,1.2,18.21,5.3,26,10.84Q502.13,768,547.74,801c14.16,10.21,28.25,20.54,42.37,30.8,1.27.82,2.6,1.54,3.79,2.45,17.33,13.23,36,23.82,57.22,29.55,15.82,5.33,55.29,6.24,55.29,6.24q81.12,0,162.22,0c27.69,0,55.37.29,83-.1h16.76c85,.23,170,0,255,.16,20.35,0,39.83-3.91,58.89-10.85,17.27-6.29,31.91-17,46.93-27.12,29.07-21.55,58.29-42.89,88-63.6,13.26-9.66,26.66-19.13,39.71-29.06,15.75-12,33.28-17.59,53.06-17.37,27.68.3,55.36-.16,83,.12a46.05,46.05,0,0,0,25.71-7.29c12.44-7.78,24.92-15.52,37.7-22.76,14-7.93,20.42-19.48,20.16-35.6C1676.27,633.93,1676.67,611.24,1676.75,588.53Zm-10.68,73.09a21.17,21.17,0,0,1-10.61,18.87C1640,690,1624.6,699.42,1609,708.68c-8.12,4.83-17.16,3-25.94,2.84-22.82.1-45.64.54-68.46.2-21.19-.33-41,3.68-58.79,15.68-21,15-41,31.31-63.22,44.61-1.67,1-1.93,3.49-4.19,3.74-27.85,20.67-55.69,41.35-84.48,60.66-24.66,16.56-52.1,23.42-81.51,23.42l-209.58,0c-15.35,0-30.71,0-46.07.15l-11.73-.08c-2.82-.09-5.62,0-8.44,0-81.34,0-162.67-.27-244,.16-28.29.14-54.82-5.57-79.79-18.71-3-1.57-5.58-3.83-8.36-5.78-19.38-12.15-37.16-26.55-55.87-39.65-10.57-7.4-20.79-15.29-31.18-23a81.56,81.56,0,0,1-14.1-10.12c-13.53-9.56-27.3-18.84-40.55-28.8-12.18-9.15-25.12-16.52-39.89-20.48-22.44-3-45-.86-67.55-1.91-14.62,0-29.24.14-43.87.12a19.09,19.09,0,0,1-9.87-2.58c-13.93-8.45-27.81-17-41.71-25.53-11.44-4.87-16.5-13.38-16.37-26,.33-31.79.06-63.58.1-95.38,0-20.73,11.31-32,32.12-32.08,26.82-.08,53.65,0,80.48,0,34.27,0,55-20.6,54.88-54.87-.09-26.84-.18-53.57,7.66-79.65,5.8-19.28,5.55-19.34,24.46-26.27,2.62-1,5.27-1.87,7.86-2.94,1.38-.6,2.87-1.55,2-3.4s-2.33-1.62-3.9-1.06c-6.29,2.25-12.59,4.47-18.85,6.7-1.74-2,.06-3.35.76-4.7,29.22-56.33,75.33-90.12,137.06-104,48.68-10.93,97.53-20.79,147.08-26.69,43.36-5.17,86.85-8.91,130.49-10.88q48-2.16,96-2.44l14.8-.08c50.18.46,100.31,2.37,150.37,6.06,40.74,3,81.39,7,121.69,13.58,45.32,7.44,90.87,14.7,134.33,29.92,49.19,17.24,84.24,51.17,107.32,97.56-1.54,2-3,.86-4.24.43-4.28-1.48-8.45-3.3-12.79-4.57-2-.57-4.86-3-6.18.31s2.27,3.65,4.22,4.44c5.79,2.34,11.58,4.82,17.6,6.38,4.18,1.09,5.92,3.38,7.31,7.13a196.37,196.37,0,0,1,12.48,66.44c.2,13.6-1.43,27.3,1,40.79,4.54,25.21,23.81,41.42,49.5,41.66,29.2.28,58.41,0,87.63.19,11.45.06,20.39,4.8,25.68,15.37,5.49,9,3.42,19,3.49,28.66C1666,603.38,1666.16,632.5,1666.07,661.62ZM1313.15,268.06c-48.73-11.9-98.14-19.84-148.05-25-66.1-6.87-132.35-10.44-198.78-11.11l-13-.32c-28.56,0-57.1,1-85.62,2.61-69.3,3.77-138.43,9.33-206.75,22.2-22.66,4.27-45.66,7.78-67.42,15.55-54.51,19.42-85.63,58.24-93.43,115.64-2.95,21.69,1.54,42.46,7.27,63.2,9,32.38,17.48,64.89,26.19,97.34l16.71,62.15Q565,663.82,579.58,717.37c4.71,17.2,9.52,34.37,14.28,51.55,10.07,24.81,26,44.94,48.17,60,11.06,7,23.16,11.74,35.74,15.19,11.11,3.06,22.47,4.07,34,4.06q104.49,0,209,0c3,0,5.44,1.14,8.24,2.27,8.59,3.44,17.67,6.35,27.3,4.12-1-5.17-6.12-2.32-8.76-4.84l-1.76-1.52H977.4c-2.52,3-5.14,2.52-7.16,3.37-1.23.51-2.63.84-2.4,2.49s1.73,1.7,3,1.7a42.86,42.86,0,0,0,15.83-3c10.95-4.38,22.22-4.74,33.73-4.72,61.65.13,123.29-.17,184.94.2,26.44.15,50.77-6.26,73.23-20.08,21.28-15.08,37.2-34.46,47.07-58.7l13.62-47.68c5.39-21.68,11-43.31,17.58-64.67,3.57-15.8,7.76-31.44,12.78-46.84,4.67-21,10.81-41.55,16.59-62.23,9.74-36.23,19.74-72.4,29.17-108.72C1435.82,361,1391.85,287.27,1313.15,268.06ZM655,326.39c-.35,8.21-.12,16.43-.12,24.65q0,95.37,0,190.75c0,2.15-.16,4.31-.24,6.46q0,31.18,0,62.35.07,59.79.14,119.6c0,13.37-.09,26.72-.16,40.07.09,18.15.07,36.31.32,54.45.07,5.12-2,4.07-4.89,2.35a119.14,119.14,0,0,1-44.38-46.15c-1.64-3-2.78-6.26-4.16-9.39-6.32-12.63-8.71-26.52-12.42-40-11-39.87-21.5-79.87-32.21-119.83q-8.37-31-16.75-61.94c-11.59-42.12-24.25-84-33.58-126.68-5-22.81-1.53-45.54,6.25-67.57,1.27-3.64,3.13-5.61,7.14-6.33,6.55-1.18,13-3.07,19.46-4.72,1.84-.47,4.43-.91,4-3.33-.58-3.13-3.45-2-5.35-1.53-6.25,1.44-12.44,3.14-19.73,5,2-6.41,5.26-11.06,8.39-15.7,22-32.58,53.18-50.94,91.33-58.36,11-2.14,22-4.39,32.89-7,3.49-.83,4.07.17,4.05,3.27-.11,14.7-.17,29.41,0,44.11,0,3.13-1.34,4.22-4,4.6-3.85.53-7.68,1.16-11.52,1.69-2.46.35-5.32.79-4.76,3.92.44,2.53,3.2,1.46,4.95,1.3a48.79,48.79,0,0,0,9.6-1.43C654.43,319.51,655.15,321.75,655,326.39Zm603.53-7.07c3.85,2.45,1,10.59,1.21,16.14s0,11.23.06,16.86v50.61q0,68.44,0,136.91c0,2.79-.17,5.6-.26,8.4q0,31.2,0,62.37,0,24.28,0,48.58c.1,15.85,1,31.77-.22,47.53-.37,5.14-2.15,10.18-.75,15.47,2.42,10.49.9,20.51-3.4,30.28-1,2.26-4.56,6.76,2.72,5.06,2.62-.61,2,1.64,2,3,0,3.66-.19,7.34-.31,11,.09,19.16.1,38.32.31,57.46,0,3.8-2,4.85-5.09,5.14a90.55,90.55,0,0,1-37.34,8.62c-66.82.29-133.65.23-200.46.29-.78,0-1.56-.13-2.79-.25.67-3,3.19-3.18,4.72-4.37,3.6-2.75,7.29-5.39,10.77-8.28,1.76-1.44,4.46-3.47,2.33-5.81-2-2.17-3.94.65-5.24,2-6,6.22-15.16,8.37-20.08,16-1,1.5-3.25.72-4.92.72L923,843c-2.32,0-4.91.5-6.11-2.41q-9-5.91-18-11.82c-2.3-1.5-4.49-3.26-7.53-2.69-.57,4.36,3.14,5.83,5.66,7.9,3.39,2.8,7.13,5.19,10.56,7.62-.53,1.79-1.56,1.46-2.31,1.46q-98.47,0-196.91-.17c-13.76,0-27.34-1.52-40-7.65-6.73-.33-9.12-3.77-8.45-10.46.65-6.36.37-12.83.5-19.26v-3.17q0-10.22,0-20.43c0-.9,0-1.78,0-2.67V777c-.07-9.51-1.91-19.46.28-28.42,2.54-10.33-.19-21.08,4-31,.51-1.16,1.11-3.14-.71-3-5.39.61-3.92-3-3.91-5.73q.13-51.24.31-102.5V548.24c-.09-26.59-.23-53.19-.26-79.78,0-46.93.07-93.87,0-140.8,0-5-.63-10,7.18-12.3-7.4-1.66-7.37-5.83-7.27-10.61.3-12.74.26-25.51.06-38.26-.07-3.33.35-4.85,4.13-5.52q43.69-7.76,87.83-12.45c44.5-4.77,89.11-8.16,133.84-9.9C920.09,237,970,236.79,970,236.79c53.62,1.33,107.2,3.35,160.65,8,41.94,3.68,83.74,8.68,125.2,16.23,3.33.61,4,1.52,4,4.74-.21,13.84-.09,27.68-.08,41.52C1265.4,311.65,1248.69,313.1,1258.48,319.32Zm121.33,25.05c5.4,1.41,10.79,3,16.3,3.95,6.25,1.06,9.89,3.66,12,10.32,8.08,25.33,9.65,50.67,2.69,76.45q-14.92,55.23-29.76,110.48c-.28,1-.74,2-1.12,3l-16.74,62.18q-6.75,24.62-13.47,49.28c-5,20.92-10.59,41.68-17,62.24-4,16.65-7.4,33.51-14.58,49.23-9.77,24.85-27.3,42.89-49.73,56.62-3,1.85-3.6.28-3.58-2.54.19-17.65.28-35.3.39-53q0-25.21,0-50.44,0-31.16,0-62.33,0-24.63,0-49.27V548.25c-.08-18.79-.21-37.59-.22-56.38,0-54.91.09-109.8-.21-164.69,0-6.54,2-7.47,7.47-5.88a53.87,53.87,0,0,0,8.92,1.3c1.63.18,3.81.83,3.85-1.92,0-2.11-1.65-2.91-3.47-3.19-4.26-.66-8.54-1.23-12.81-1.8-2.38-.33-3.93-1.11-3.91-4,.09-16.15,0-32.31,0-49.06,30.51,7.59,61.67,10.29,88.34,27.59a138.63,138.63,0,0,1,48.49,53.5c-6,.25-10.68-2.14-15.63-3-1.69-.3-3.32-1-5-1.17s-4.27-1.22-4.71,1.68C1376,343.37,1378.17,343.94,1379.81,344.37Zm-66.66-76.31c-48.73-11.9-98.14-19.84-148.05-25-66.1-6.87-132.35-10.44-198.78-11.11l-13-.32c-28.56,0-57.1,1-85.62,2.61-69.3,3.77-138.43,9.33-206.75,22.2-22.66,4.27-45.66,7.78-67.42,15.55-54.51,19.42-85.63,58.24-93.43,115.64-2.95,21.69,1.54,42.46,7.27,63.2,9,32.38,17.48,64.89,26.19,97.34l16.71,62.15Q565,663.82,579.58,717.37c4.71,17.2,9.52,34.37,14.28,51.55,10.07,24.81,26,44.94,48.17,60,11.06,7,23.16,11.74,35.74,15.19,11.11,3.06,22.47,4.07,34,4.06q104.49,0,209,0c3,0,5.44,1.14,8.24,2.27,8.59,3.44,17.67,6.35,27.3,4.12-1-5.17-6.12-2.32-8.76-4.84l-1.76-1.52H977.4c-2.52,3-5.14,2.52-7.16,3.37-1.23.51-2.63.84-2.4,2.49s1.73,1.7,3,1.7a42.86,42.86,0,0,0,15.83-3c10.95-4.38,22.22-4.74,33.73-4.72,61.65.13,123.29-.17,184.94.2,26.44.15,50.77-6.26,73.23-20.08,21.28-15.08,37.2-34.46,47.07-58.7l13.62-47.68c5.39-21.68,11-43.31,17.58-64.67,3.57-15.8,7.76-31.44,12.78-46.84,4.67-21,10.81-41.55,16.59-62.23,9.74-36.23,19.74-72.4,29.17-108.72C1435.82,361,1391.85,287.27,1313.15,268.06ZM655,326.39c-.35,8.21-.12,16.43-.12,24.65q0,95.37,0,190.75c0,2.15-.16,4.31-.24,6.46q0,31.18,0,62.35.07,59.79.14,119.6c0,13.37-.09,26.72-.16,40.07.09,18.15.07,36.31.32,54.45.07,5.12-2,4.07-4.89,2.35a119.14,119.14,0,0,1-44.38-46.15c-1.64-3-2.78-6.26-4.16-9.39-6.32-12.63-8.71-26.52-12.42-40-11-39.87-21.5-79.87-32.21-119.83q-8.37-31-16.75-61.94c-11.59-42.12-24.25-84-33.58-126.68-5-22.81-1.53-45.54,6.25-67.57,1.27-3.64,3.13-5.61,7.14-6.33,6.55-1.18,13-3.07,19.46-4.72,1.84-.47,4.43-.91,4-3.33-.58-3.13-3.45-2-5.35-1.53-6.25,1.44-12.44,3.14-19.73,5,2-6.41,5.26-11.06,8.39-15.7,22-32.58,53.18-50.94,91.33-58.36,11-2.14,22-4.39,32.89-7,3.49-.83,4.07.17,4.05,3.27-.11,14.7-.17,29.41,0,44.11,0,3.13-1.34,4.22-4,4.6-3.85.53-7.68,1.16-11.52,1.69-2.46.35-5.32.79-4.76,3.92.44,2.53,3.2,1.46,4.95,1.3a48.79,48.79,0,0,0,9.6-1.43C654.43,319.51,655.15,321.75,655,326.39Zm603.53-7.07c3.85,2.45,1,10.59,1.21,16.14s0,11.23.06,16.86v50.61q0,68.44,0,136.91c0,2.79-.17,5.6-.26,8.4q0,31.2,0,62.37,0,24.28,0,48.58c.1,15.85,1,31.77-.22,47.53-.37,5.14-2.15,10.18-.75,15.47,2.42,10.49.9,20.51-3.4,30.28-1,2.26-4.56,6.76,2.72,5.06,2.62-.61,2,1.64,2,3,0,3.66-.19,7.34-.31,11,.09,19.16.1,38.32.31,57.46,0,3.8-2,4.85-5.09,5.14a90.55,90.55,0,0,1-37.34,8.62c-66.82.29-133.65.23-200.46.29-.78,0-1.56-.13-2.79-.25.67-3,3.19-3.18,4.72-4.37,3.6-2.75,7.29-5.39,10.77-8.28,1.76-1.44,4.46-3.47,2.33-5.81-2-2.17-3.94.65-5.24,2-6,6.22-15.16,8.37-20.08,16-1,1.5-3.25.72-4.92.72L923,843c-2.32,0-4.91.5-6.11-2.41q-9-5.91-18-11.82c-2.3-1.5-4.49-3.26-7.53-2.69-.57,4.36,3.14,5.83,5.66,7.9,3.39,2.8,7.13,5.19,10.56,7.62-.53,1.79-1.56,1.46-2.31,1.46q-98.47,0-196.91-.17c-13.76,0-27.34-1.52-40-7.65-6.73-.33-9.12-3.77-8.45-10.46.65-6.36.37-12.83.5-19.26v-3.17q0-10.22,0-20.43c0-.9,0-1.78,0-2.67V777c-.07-9.51-1.91-19.46.28-28.42,2.54-10.33-.19-21.08,4-31,.51-1.16,1.11-3.14-.71-3-5.39.61-3.92-3-3.91-5.73q.13-51.24.31-102.5V548.24c-.09-26.59-.23-53.19-.26-79.78,0-46.93.07-93.87,0-140.8,0-5-.63-10,7.18-12.3-7.4-1.66-7.37-5.83-7.27-10.61.3-12.74.26-25.51.06-38.26-.07-3.33.35-4.85,4.13-5.52q43.69-7.76,87.83-12.45c44.5-4.77,89.11-8.16,133.84-9.9C920.09,237,970,236.79,970,236.79c53.62,1.33,107.2,3.35,160.65,8,41.94,3.68,83.74,8.68,125.2,16.23,3.33.61,4,1.52,4,4.74-.21,13.84-.09,27.68-.08,41.52C1265.4,311.65,1248.69,313.1,1258.48,319.32Zm152.34,115.77q-14.92,55.23-29.76,110.48c-.28,1-.74,2-1.12,3l-16.74,62.18q-6.75,24.62-13.47,49.28c-5,20.92-10.59,41.68-17,62.24-4,16.65-7.4,33.51-14.58,49.23-9.77,24.85-27.3,42.89-49.73,56.62-3,1.85-3.6.28-3.58-2.54.19-17.65.28-35.3.39-53q0-25.21,0-50.44,0-31.16,0-62.33,0-24.63,0-49.27V548.25c-.08-18.79-.21-37.59-.22-56.38,0-54.91.09-109.8-.21-164.69,0-6.54,2-7.47,7.47-5.88a53.87,53.87,0,0,0,8.92,1.3c1.63.18,3.81.83,3.85-1.92,0-2.11-1.65-2.91-3.47-3.19-4.26-.66-8.54-1.23-12.81-1.8-2.38-.33-3.93-1.11-3.91-4,.09-16.15,0-32.31,0-49.06,30.51,7.59,61.67,10.29,88.34,27.59a138.63,138.63,0,0,1,48.49,53.5c-6,.25-10.68-2.14-15.63-3-1.69-.3-3.32-1-5-1.17s-4.27-1.22-4.71,1.68c-.33,2.19,1.8,2.76,3.44,3.19,5.4,1.41,10.79,3,16.3,3.95,6.25,1.06,9.89,3.66,12,10.32C1416.21,384,1417.78,409.31,1410.82,435.09Zm-97.67-167c-48.73-11.9-98.14-19.84-148.05-25-66.1-6.87-132.35-10.44-198.78-11.11l-13-.32c-28.56,0-57.1,1-85.62,2.61-69.3,3.77-138.43,9.33-206.75,22.2-22.66,4.27-45.66,7.78-67.42,15.55-54.51,19.42-85.63,58.24-93.43,115.64-2.95,21.69,1.54,42.46,7.27,63.2,9,32.38,17.48,64.89,26.19,97.34l16.71,62.15Q565,663.82,579.58,717.37c4.71,17.2,9.52,34.37,14.28,51.55,10.07,24.81,26,44.94,48.17,60,11.06,7,23.16,11.74,35.74,15.19,11.11,3.06,22.47,4.07,34,4.06q104.49,0,209,0c3,0,5.44,1.14,8.24,2.27,8.59,3.44,17.67,6.35,27.3,4.12-1-5.17-6.12-2.32-8.76-4.84l-1.76-1.52H977.4c-2.52,3-5.14,2.52-7.16,3.37-1.23.51-2.63.84-2.4,2.49s1.73,1.7,3,1.7a42.86,42.86,0,0,0,15.83-3c10.95-4.38,22.22-4.74,33.73-4.72,61.65.13,123.29-.17,184.94.2,26.44.15,50.77-6.26,73.23-20.08,21.28-15.08,37.2-34.46,47.07-58.7l13.62-47.68c5.39-21.68,11-43.31,17.58-64.67,3.57-15.8,7.76-31.44,12.78-46.84,4.67-21,10.81-41.55,16.59-62.23,9.74-36.23,19.74-72.4,29.17-108.72C1435.82,361,1391.85,287.27,1313.15,268.06ZM655,326.39c-.35,8.21-.12,16.43-.12,24.65q0,95.37,0,190.75c0,2.15-.16,4.31-.24,6.46q0,31.18,0,62.35.07,59.79.14,119.6c0,13.37-.09,26.72-.16,40.07.09,18.15.07,36.31.32,54.45.07,5.12-2,4.07-4.89,2.35a119.14,119.14,0,0,1-44.38-46.15c-1.64-3-2.78-6.26-4.16-9.39-6.32-12.63-8.71-26.52-12.42-40-11-39.87-21.5-79.87-32.21-119.83q-8.37-31-16.75-61.94c-11.59-42.12-24.25-84-33.58-126.68-5-22.81-1.53-45.54,6.25-67.57,1.27-3.64,3.13-5.61,7.14-6.33,6.55-1.18,13-3.07,19.46-4.72,1.84-.47,4.43-.91,4-3.33-.58-3.13-3.45-2-5.35-1.53-6.25,1.44-12.44,3.14-19.73,5,2-6.41,5.26-11.06,8.39-15.7,22-32.58,53.18-50.94,91.33-58.36,11-2.14,22-4.39,32.89-7,3.49-.83,4.07.17,4.05,3.27-.11,14.7-.17,29.41,0,44.11,0,3.13-1.34,4.22-4,4.6-3.85.53-7.68,1.16-11.52,1.69-2.46.35-5.32.79-4.76,3.92.44,2.53,3.2,1.46,4.95,1.3a48.79,48.79,0,0,0,9.6-1.43C654.43,319.51,655.15,321.75,655,326.39Zm603.53-7.07c3.85,2.45,1,10.59,1.21,16.14s0,11.23.06,16.86v50.61q0,68.44,0,136.91c0,2.79-.17,5.6-.26,8.4q0,31.2,0,62.37,0,24.28,0,48.58c.1,15.85,1,31.77-.22,47.53-.37,5.14-2.15,10.18-.75,15.47,2.42,10.49.9,20.51-3.4,30.28-1,2.26-4.56,6.76,2.72,5.06,2.62-.61,2,1.64,2,3,0,3.66-.19,7.34-.31,11,.09,19.16.1,38.32.31,57.46,0,3.8-2,4.85-5.09,5.14a90.55,90.55,0,0,1-37.34,8.62c-66.82.29-133.65.23-200.46.29-.78,0-1.56-.13-2.79-.25.67-3,3.19-3.18,4.72-4.37,3.6-2.75,7.29-5.39,10.77-8.28,1.76-1.44,4.46-3.47,2.33-5.81-2-2.17-3.94.65-5.24,2-6,6.22-15.16,8.37-20.08,16-1,1.5-3.25.72-4.92.72L923,843c-2.32,0-4.91.5-6.11-2.41q-9-5.91-18-11.82c-2.3-1.5-4.49-3.26-7.53-2.69-.57,4.36,3.14,5.83,5.66,7.9,3.39,2.8,7.13,5.19,10.56,7.62-.53,1.79-1.56,1.46-2.31,1.46q-98.47,0-196.91-.17c-13.76,0-27.34-1.52-40-7.65-6.73-.33-9.12-3.77-8.45-10.46.65-6.36.37-12.83.5-19.26v-3.17q0-10.22,0-20.43c0-.9,0-1.78,0-2.67V777c-.07-9.51-1.91-19.46.28-28.42,2.54-10.33-.19-21.08,4-31,.51-1.16,1.11-3.14-.71-3-5.39.61-3.92-3-3.91-5.73q.13-51.24.31-102.5V548.24c-.09-26.59-.23-53.19-.26-79.78,0-46.93.07-93.87,0-140.8,0-5-.63-10,7.18-12.3-7.4-1.66-7.37-5.83-7.27-10.61.3-12.74.26-25.51.06-38.26-.07-3.33.35-4.85,4.13-5.52q43.69-7.76,87.83-12.45c44.5-4.77,89.11-8.16,133.84-9.9C920.09,237,970,236.79,970,236.79c53.62,1.33,107.2,3.35,160.65,8,41.94,3.68,83.74,8.68,125.2,16.23,3.33.61,4,1.52,4,4.74-.21,13.84-.09,27.68-.08,41.52C1265.4,311.65,1248.69,313.1,1258.48,319.32Zm152.34,115.77q-14.92,55.23-29.76,110.48c-.28,1-.74,2-1.12,3l-16.74,62.18q-6.75,24.62-13.47,49.28c-5,20.92-10.59,41.68-17,62.24-4,16.65-7.4,33.51-14.58,49.23-9.77,24.85-27.3,42.89-49.73,56.62-3,1.85-3.6.28-3.58-2.54.19-17.65.28-35.3.39-53q0-25.21,0-50.44,0-31.16,0-62.33,0-24.63,0-49.27V548.25c-.08-18.79-.21-37.59-.22-56.38,0-54.91.09-109.8-.21-164.69,0-6.54,2-7.47,7.47-5.88a53.87,53.87,0,0,0,8.92,1.3c1.63.18,3.81.83,3.85-1.92,0-2.11-1.65-2.91-3.47-3.19-4.26-.66-8.54-1.23-12.81-1.8-2.38-.33-3.93-1.11-3.91-4,.09-16.15,0-32.31,0-49.06,30.51,7.59,61.67,10.29,88.34,27.59a138.63,138.63,0,0,1,48.49,53.5c-6,.25-10.68-2.14-15.63-3-1.69-.3-3.32-1-5-1.17s-4.27-1.22-4.71,1.68c-.33,2.19,1.8,2.76,3.44,3.19,5.4,1.41,10.79,3,16.3,3.95,6.25,1.06,9.89,3.66,12,10.32C1416.21,384,1417.78,409.31,1410.82,435.09Zm-97.67-167c-48.73-11.9-98.14-19.84-148.05-25-66.1-6.87-132.35-10.44-198.78-11.11l-13-.32c-28.56,0-57.1,1-85.62,2.61-69.3,3.77-138.43,9.33-206.75,22.2-22.66,4.27-45.66,7.78-67.42,15.55-54.51,19.42-85.63,58.24-93.43,115.64-2.95,21.69,1.54,42.46,7.27,63.2,9,32.38,17.48,64.89,26.19,97.34l16.71,62.15Q565,663.82,579.58,717.37c4.71,17.2,9.52,34.37,14.28,51.55,10.07,24.81,26,44.94,48.17,60,11.06,7,23.16,11.74,35.74,15.19,11.11,3.06,22.47,4.07,34,4.06q104.49,0,209,0c3,0,5.44,1.14,8.24,2.27,8.59,3.44,17.67,6.35,27.3,4.12-1-5.17-6.12-2.32-8.76-4.84l-1.76-1.52H977.4c-2.52,3-5.14,2.52-7.16,3.37-1.23.51-2.63.84-2.4,2.49s1.73,1.7,3,1.7a42.86,42.86,0,0,0,15.83-3c10.95-4.38,22.22-4.74,33.73-4.72,61.65.13,123.29-.17,184.94.2,26.44.15,50.77-6.26,73.23-20.08,21.28-15.08,37.2-34.46,47.07-58.7l13.62-47.68c5.39-21.68,11-43.31,17.58-64.67,3.57-15.8,7.76-31.44,12.78-46.84,4.67-21,10.81-41.55,16.59-62.23,9.74-36.23,19.74-72.4,29.17-108.72C1435.82,361,1391.85,287.27,1313.15,268.06ZM655,326.39c-.35,8.21-.12,16.43-.12,24.65q0,95.37,0,190.75c0,2.15-.16,4.31-.24,6.46q0,31.18,0,62.35.07,59.79.14,119.6c0,13.37-.09,26.72-.16,40.07.09,18.15.07,36.31.32,54.45.07,5.12-2,4.07-4.89,2.35a119.14,119.14,0,0,1-44.38-46.15c-1.64-3-2.78-6.26-4.16-9.39-6.32-12.63-8.71-26.52-12.42-40-11-39.87-21.5-79.87-32.21-119.83q-8.37-31-16.75-61.94c-11.59-42.12-24.25-84-33.58-126.68-5-22.81-1.53-45.54,6.25-67.57,1.27-3.64,3.13-5.61,7.14-6.33,6.55-1.18,13-3.07,19.46-4.72,1.84-.47,4.43-.91,4-3.33-.58-3.13-3.45-2-5.35-1.53-6.25,1.44-12.44,3.14-19.73,5,2-6.41,5.26-11.06,8.39-15.7,22-32.58,53.18-50.94,91.33-58.36,11-2.14,22-4.39,32.89-7,3.49-.83,4.07.17,4.05,3.27-.11,14.7-.17,29.41,0,44.11,0,3.13-1.34,4.22-4,4.6-3.85.53-7.68,1.16-11.52,1.69-2.46.35-5.32.79-4.76,3.92.44,2.53,3.2,1.46,4.95,1.3a48.79,48.79,0,0,0,9.6-1.43C654.43,319.51,655.15,321.75,655,326.39Zm603.53-7.07c3.85,2.45,1,10.59,1.21,16.14s0,11.23.06,16.86v50.61q0,68.44,0,136.91c0,2.79-.17,5.6-.26,8.4q0,31.2,0,62.37,0,24.28,0,48.58c.1,15.85,1,31.77-.22,47.53-.37,5.14-2.15,10.18-.75,15.47,2.42,10.49.9,20.51-3.4,30.28-1,2.26-4.56,6.76,2.72,5.06,2.62-.61,2,1.64,2,3,0,3.66-.19,7.34-.31,11,.09,19.16.1,38.32.31,57.46,0,3.8-2,4.85-5.09,5.14a90.55,90.55,0,0,1-37.34,8.62c-66.82.29-133.65.23-200.46.29-.78,0-1.56-.13-2.79-.25.67-3,3.19-3.18,4.72-4.37,3.6-2.75,7.29-5.39,10.77-8.28,1.76-1.44,4.46-3.47,2.33-5.81-2-2.17-3.94.65-5.24,2-6,6.22-15.16,8.37-20.08,16-1,1.5-3.25.72-4.92.72L923,843c-2.32,0-4.91.5-6.11-2.41q-9-5.91-18-11.82c-2.3-1.5-4.49-3.26-7.53-2.69-.57,4.36,3.14,5.83,5.66,7.9,3.39,2.8,7.13,5.19,10.56,7.62-.53,1.79-1.56,1.46-2.31,1.46q-98.47,0-196.91-.17c-13.76,0-27.34-1.52-40-7.65-6.73-.33-9.12-3.77-8.45-10.46.65-6.36.37-12.83.5-19.26v-3.17q0-10.22,0-20.43c0-.9,0-1.78,0-2.67V777c-.07-9.51-1.91-19.46.28-28.42,2.54-10.33-.19-21.08,4-31,.51-1.16,1.11-3.14-.71-3-5.39.61-3.92-3-3.91-5.73q.13-51.24.31-102.5V548.24c-.09-26.59-.23-53.19-.26-79.78,0-46.93.07-93.87,0-140.8,0-5-.63-10,7.18-12.3-7.4-1.66-7.37-5.83-7.27-10.61.3-12.74.26-25.51.06-38.26-.07-3.33.35-4.85,4.13-5.52q43.69-7.76,87.83-12.45c44.5-4.77,89.11-8.16,133.84-9.9C920.09,237,970,236.79,970,236.79c53.62,1.33,107.2,3.35,160.65,8,41.94,3.68,83.74,8.68,125.2,16.23,3.33.61,4,1.52,4,4.74-.21,13.84-.09,27.68-.08,41.52C1265.4,311.65,1248.69,313.1,1258.48,319.32Zm152.34,115.77q-14.92,55.23-29.76,110.48c-.28,1-.74,2-1.12,3l-16.74,62.18q-6.75,24.62-13.47,49.28c-5,20.92-10.59,41.68-17,62.24-4,16.65-7.4,33.51-14.58,49.23-9.77,24.85-27.3,42.89-49.73,56.62-3,1.85-3.6.28-3.58-2.54.19-17.65.28-35.3.39-53q0-25.21,0-50.44,0-31.16,0-62.33,0-24.63,0-49.27V548.25c-.08-18.79-.21-37.59-.22-56.38,0-54.91.09-109.8-.21-164.69,0-6.54,2-7.47,7.47-5.88a53.87,53.87,0,0,0,8.92,1.3c1.63.18,3.81.83,3.85-1.92,0-2.11-1.65-2.91-3.47-3.19-4.26-.66-8.54-1.23-12.81-1.8-2.38-.33-3.93-1.11-3.91-4,.09-16.15,0-32.31,0-49.06,30.51,7.59,61.67,10.29,88.34,27.59a138.63,138.63,0,0,1,48.49,53.5c-6,.25-10.68-2.14-15.63-3-1.69-.3-3.32-1-5-1.17s-4.27-1.22-4.71,1.68c-.33,2.19,1.8,2.76,3.44,3.19,5.4,1.41,10.79,3,16.3,3.95,6.25,1.06,9.89,3.66,12,10.32C1416.21,384,1417.78,409.31,1410.82,435.09Zm-97.67-167c-48.73-11.9-98.14-19.84-148.05-25-66.1-6.87-132.35-10.44-198.78-11.11l-13-.32c-28.56,0-57.1,1-85.62,2.61-69.3,3.77-138.43,9.33-206.75,22.2-22.66,4.27-45.66,7.78-67.42,15.55-54.51,19.42-85.63,58.24-93.43,115.64-2.95,21.69,1.54,42.46,7.27,63.2,9,32.38,17.48,64.89,26.19,97.34l16.71,62.15Q565,663.82,579.58,717.37c4.71,17.2,9.52,34.37,14.28,51.55,10.07,24.81,26,44.94,48.17,60,11.06,7,23.16,11.74,35.74,15.19,11.11,3.06,22.47,4.07,34,4.06q104.49,0,209,0c3,0,5.44,1.14,8.24,2.27,8.59,3.44,17.67,6.35,27.3,4.12-1-5.17-6.12-2.32-8.76-4.84l-1.76-1.52H977.4c-2.52,3-5.14,2.52-7.16,3.37-1.23.51-2.63.84-2.4,2.49s1.73,1.7,3,1.7a42.86,42.86,0,0,0,15.83-3c10.95-4.38,22.22-4.74,33.73-4.72,61.65.13,123.29-.17,184.94.2,26.44.15,50.77-6.26,73.23-20.08,21.28-15.08,37.2-34.46,47.07-58.7l13.62-47.68c5.39-21.68,11-43.31,17.58-64.67,3.57-15.8,7.76-31.44,12.78-46.84,4.67-21,10.81-41.55,16.59-62.23,9.74-36.23,19.74-72.4,29.17-108.72C1435.82,361,1391.85,287.27,1313.15,268.06ZM655,326.39c-.35,8.21-.12,16.43-.12,24.65q0,95.37,0,190.75c0,2.15-.16,4.31-.24,6.46q0,31.18,0,62.35.07,59.79.14,119.6c0,13.37-.09,26.72-.16,40.07.09,18.15.07,36.31.32,54.45.07,5.12-2,4.07-4.89,2.35a119.14,119.14,0,0,1-44.38-46.15c-1.64-3-2.78-6.26-4.16-9.39-6.32-12.63-8.71-26.52-12.42-40-11-39.87-21.5-79.87-32.21-119.83q-8.37-31-16.75-61.94c-11.59-42.12-24.25-84-33.58-126.68-5-22.81-1.53-45.54,6.25-67.57,1.27-3.64,3.13-5.61,7.14-6.33,6.55-1.18,13-3.07,19.46-4.72,1.84-.47,4.43-.91,4-3.33-.58-3.13-3.45-2-5.35-1.53-6.25,1.44-12.44,3.14-19.73,5,2-6.41,5.26-11.06,8.39-15.7,22-32.58,53.18-50.94,91.33-58.36,11-2.14,22-4.39,32.89-7,3.49-.83,4.07.17,4.05,3.27-.11,14.7-.17,29.41,0,44.11,0,3.13-1.34,4.22-4,4.6-3.85.53-7.68,1.16-11.52,1.69-2.46.35-5.32.79-4.76,3.92.44,2.53,3.2,1.46,4.95,1.3a48.79,48.79,0,0,0,9.6-1.43C654.43,319.51,655.15,321.75,655,326.39Zm603.53-7.07c3.85,2.45,1,10.59,1.21,16.14s0,11.23.06,16.86v50.61q0,68.44,0,136.91c0,2.79-.17,5.6-.26,8.4q0,31.2,0,62.37,0,24.28,0,48.58c.1,15.85,1,31.77-.22,47.53-.37,5.14-2.15,10.18-.75,15.47,2.42,10.49.9,20.51-3.4,30.28-1,2.26-4.56,6.76,2.72,5.06,2.62-.61,2,1.64,2,3,0,3.66-.19,7.34-.31,11,.09,19.16.1,38.32.31,57.46,0,3.8-2,4.85-5.09,5.14a90.55,90.55,0,0,1-37.34,8.62c-66.82.29-133.65.23-200.46.29-.78,0-1.56-.13-2.79-.25.67-3,3.19-3.18,4.72-4.37,3.6-2.75,7.29-5.39,10.77-8.28,1.76-1.44,4.46-3.47,2.33-5.81-2-2.17-3.94.65-5.24,2-6,6.22-15.16,8.37-20.08,16-1,1.5-3.25.72-4.92.72L923,843c-2.32,0-4.91.5-6.11-2.41q-9-5.91-18-11.82c-2.3-1.5-4.49-3.26-7.53-2.69-.57,4.36,3.14,5.83,5.66,7.9,3.39,2.8,7.13,5.19,10.56,7.62-.53,1.79-1.56,1.46-2.31,1.46q-98.47,0-196.91-.17c-13.76,0-27.34-1.52-40-7.65-6.73-.33-9.12-3.77-8.45-10.46.65-6.36.37-12.83.5-19.26v-3.17q0-10.22,0-20.43c0-.9,0-1.78,0-2.67V777c-.07-9.51-1.91-19.46.28-28.42,2.54-10.33-.19-21.08,4-31,.51-1.16,1.11-3.14-.71-3-5.39.61-3.92-3-3.91-5.73q.13-51.24.31-102.5V548.24c-.09-26.59-.23-53.19-.26-79.78,0-46.93.07-93.87,0-140.8,0-5-.63-10,7.18-12.3-7.4-1.66-7.37-5.83-7.27-10.61.3-12.74.26-25.51.06-38.26-.07-3.33.35-4.85,4.13-5.52q43.69-7.76,87.83-12.45c44.5-4.77,89.11-8.16,133.84-9.9C920.09,237,970,236.79,970,236.79c53.62,1.33,107.2,3.35,160.65,8,41.94,3.68,83.74,8.68,125.2,16.23,3.33.61,4,1.52,4,4.74-.21,13.84-.09,27.68-.08,41.52C1265.4,311.65,1248.69,313.1,1258.48,319.32Zm152.34,115.77q-14.92,55.23-29.76,110.48c-.28,1-.74,2-1.12,3l-16.74,62.18q-6.75,24.62-13.47,49.28c-5,20.92-10.59,41.68-17,62.24-4,16.65-7.4,33.51-14.58,49.23-9.77,24.85-27.3,42.89-49.73,56.62-3,1.85-3.6.28-3.58-2.54.19-17.65.28-35.3.39-53q0-25.21,0-50.44,0-31.16,0-62.33,0-24.63,0-49.27V548.25c-.08-18.79-.21-37.59-.22-56.38,0-54.91.09-109.8-.21-164.69,0-6.54,2-7.47,7.47-5.88a53.87,53.87,0,0,0,8.92,1.3c1.63.18,3.81.83,3.85-1.92,0-2.11-1.65-2.91-3.47-3.19-4.26-.66-8.54-1.23-12.81-1.8-2.38-.33-3.93-1.11-3.91-4,.09-16.15,0-32.31,0-49.06,30.51,7.59,61.67,10.29,88.34,27.59a138.63,138.63,0,0,1,48.49,53.5c-6,.25-10.68-2.14-15.63-3-1.69-.3-3.32-1-5-1.17s-4.27-1.22-4.71,1.68c-.33,2.19,1.8,2.76,3.44,3.19,5.4,1.41,10.79,3,16.3,3.95,6.25,1.06,9.89,3.66,12,10.32C1416.21,384,1417.78,409.31,1410.82,435.09Z"/><path class="cls-2" d="M954.21,711c-3.12.4-6.49.79-9,3.28a3.22,3.22,0,0,0-1.07,3.49c.66,1.69,2.23,1.3,3.31.74,8.22-4.23,16.8-2.76,25.36-1.74l.48-3.45a9.48,9.48,0,0,0-6.59-2.3Z"/><path class="cls-2" d="M964.76,652.3c1.08-.13,2.27-.48,2.23-1.84,0-1.6-1.41-2.1-2.7-2.17-8.21-.51-16.41-.51-24.44,1.64-1.61.44-3.6,1.38-3,3.52s2.88,1.57,4.38,1.33A122.61,122.61,0,0,1,954,653.22Z"/><path class="cls-2" d="M1237.77,719.6c-1.59-3.26-4.78-4.73-7.47-6.76-1.78-1.35-4.93-2.52-3.1-5.29,1.7-2.57,4.26-.47,6.28.46,6.69,3.08,10.14,8.89,12.73,15.38,2.89,11.7.52,21.8-9.11,29.61-1.54,1.25-3.54,3.78-5.47,1.72-2.19-2.35,1-3.67,2.31-5.06a32.93,32.93,0,0,0,6.75-9.41C1244.07,732.72,1244.2,725.71,1237.77,719.6Z"/><path class="cls-2" d="M954.34,792.1a2,2,0,1,1,0-4.07A79.84,79.84,0,0,0,967.59,787a63.07,63.07,0,0,0,9.9-2.47c3.32-1.36,3.39,1,3.39,1,.77,3-2,3.85-4.29,4.61C976.59,790.09,962.82,792.35,954.34,792.1Z"/><path class="cls-2" d="M1064.48,771.36c-.26.58-.5,1.16-.76,1.73-1.19,2.58-1.18,7.35-4.83,6.45-4.12-1-.4-5.07-.92-7.72,3-9.64,3-19.47,2-29.38-.18-1.92-.18-3.87-.18-5.81,0-1.45-.38-3.34,1.72-3.58s2.43,1.51,2.71,3a85.76,85.76,0,0,1,1.56,23.76C1065.43,763.67,1064.92,767.51,1064.48,771.36Z"/><path class="cls-2" d="M1001.33,742.62c-.06,1.25.12,2.46-1.32,2.74s-3.19.43-3.77-1.47c-2.34-7.6-6.72-13.91-12-19.71a2.75,2.75,0,0,1,0-4.08c1.14-1,2.52-.14,3.54.61C995.21,726.25,999.2,734,1001.33,742.62Z"/><path class="cls-2" d="M1038.27,681.06c.82,1.8,2.73,3.46.69,5.61-2.5,1-4-.64-5.56-2.13-4.68-4.4-9.47-8.7-14.12-13.13-1.47-1.4-4-3.15-2.43-5.21,2.1-2.67,4.17.25,5.95,1.39C1028.6,671.31,1033.15,676.52,1038.27,681.06Z"/><path class="cls-2" d="M1216.32,758.79c-8.85-1.69-15.54-6-19.84-13.56-1-1.86-1.8-4.5.37-5.89,2.38-1.53,3.35,1.15,4.25,2.66,3.65,6.08,9.1,9.6,15.65,11.81,1.5.51,3.55,1.1,3.07,3.46S1217.16,757.78,1216.32,758.79Z"/><path class="cls-2" d="M1045.23,802.89c1.87-3.11,3.63-6.29,5.65-9.3,1.12-1.67,2.26-4.75,4.56-3.59,2.77,1.4.8,4.3-.06,6.25a81.93,81.93,0,0,1-12.55,20.09c-4.93.1-3.19-2.84-2.15-5.09C1042,808.38,1043.7,805.67,1045.23,802.89Z"/><path class="cls-2" d="M1207.94,772.81c-6.56,3.47-10.47-2.43-15.5-4.38-3.53-3.28-7.6-6.15-9.08-11a4.7,4.7,0,0,1,.47-3.63c.57-.79,2.13-.34,2.79.59C1192.23,762.23,1201,766.47,1207.94,772.81Z"/><path class="cls-2" d="M1055.11,722c-1.07-8.83-6.19-15.81-10.57-23.12.08-.83.15-1.66.22-2.49,2.24-2,4.27-2,5.64.85,3.89,8.09,8.81,15.75,10.39,24.8A10.34,10.34,0,0,1,1055.11,722Z"/><path class="cls-2" d="M806.94,299.42c-2.7-1.4-7.55,1.74-7.71-2.5-.19-4.85,4.9-2.56,7.68-3,6-.87,12-1.28,18-1.88,1.85-.19,4.31-1.22,4.88,1.43s-1.84,2.92-3.81,3.2Z"/><path class="cls-2" d="M1022.11,287.65h11.61c1.66,0,3,.31,3,2.39,0,1.84-.89,2.69-2.77,2.7-7.73.07-15.48.65-23.14-.8-1.56-.3-3.86-.24-3.68-2.69s2.36-2.06,4-2.09c3.65-.06,7.3,0,11,0Z"/><path class="cls-2" d="M851.52,295.27h-8.13c-1.64,0-3-.29-3-2.39s1-2.64,2.8-2.72c8-.33,16-.71,23.94-1,1.66-.05,3.83-.1,3.87,2.27,0,2.19-1.82,2.52-3.69,2.64C861.48,294.47,855.68,295,851.52,295.27Z"/><path class="cls-2" d="M682.6,314.8c-2.78-.1-5.81,1.63-6.45-1.1-.72-3.09,2.69-3.48,4.86-3.85,6.78-1.15,13.6-2.1,20.43-2.89,1.63-.19,4.36-1.28,4.72,1.63.3,2.38-1.81,3.07-3.9,3.37C695.46,312.91,688.66,313.92,682.6,314.8Z"/><path class="cls-2" d="M1137.4,296.33c6.87.9,13.72,1.81,20.57,2.65,1.9.24,3.57.69,3.26,3s-2.31,2.19-4,2c-7.51-.75-15-1.58-22.52-2.32-2.26-.23-4.3-1.57-3.79-3.51C1131.85,294.48,1135.27,297.53,1137.4,296.33Z"/><path class="cls-2" d="M1097.69,292.61c6.22.43,12.44.87,18.66,1.28,1.92.13,4.26-.14,4.38,2.58.16,3.59-2.8,2.5-4.69,2.57a92.54,92.54,0,0,1-21.76-2.22c-1.76-.36-4.57.08-4.27-2.7.34-3.19,3.06-2.14,5.12-1.92l2.56.3Z"/><path class="cls-2" d="M1176.16,723.33c.34-1.65.58-3.33,1-5,.59-2,1-4.7,3.79-4.27,3.41.52,1.29,3.34,1.51,5.18-2.24,6.46-1.81,13.14-1.67,19.81,0,1.72,1.06,4.42-1.93,4.56-2.47.12-2.84-2.46-3.09-4.24C1175.08,734.06,1175.6,728.69,1176.16,723.33Z"/><path class="cls-2" d="M1237.17,314.85c-6.5-.94-12.9-1.88-19.29-2.79-2-.29-4.46-.75-4.29-3,.23-3.21,3.23-2.22,5.14-2,6.21.71,12.42,1.57,18.57,2.67,2.3.41,6.21-.05,5.94,3.45C1242.86,317.88,1239.05,313.59,1237.17,314.85Z"/><path class="cls-2" d="M761.93,303.76c-1.51.36-3.17.44-3.34-1.66-.15-1.79.94-2.75,2.64-3.06a176.16,176.16,0,0,1,25-2.62c1.3-.05,2.67-.2,2.59,1.79a3.19,3.19,0,0,1-3.14,3.41C777.77,302.36,769.85,303.05,761.93,303.76Z"/><path class="cls-2" d="M1064.15,290.3c4.08,0,8.17-.05,12.25,0,1.61,0,3,.5,3,2.55s-1.33,2.5-3,2.42q-12.56-.65-25.1-1.37a2.51,2.51,0,0,1-2.65-2.28c-.07-2,1.75-2.28,3.22-2.32,4.07-.1,8.16,0,12.24,0Z"/><path class="cls-2" d="M1001.86,754.8c0,7.59-2.8,13.64-6.07,19.48-1,1.74-2,4.61-4.64,3.35-2.94-1.42-.73-3.79.13-5.5a56,56,0,0,0,5.82-17c.33-2.21-.31-5.72,2.91-5.49C1003.51,749.91,1000.88,753.61,1001.86,754.8Z"/><path class="cls-2" d="M978.37,654.57c0-1.64,0-3.29,0-4.93,9.4-.36,17.61,3.42,25.77,7.37,1.54.75,3.56,1.53,2.36,3.73s-3.17.74-4.61.22C994.21,658.18,986.75,654.71,978.37,654.57Z"/><path class="cls-2" d="M1194.76,722.21c3.45-6.85,7.94-12.71,15.31-15.74,1.74-.71,3.85-2,5,.53.87,2-.9,2.92-2.45,3.82-3.88,2.27-7.83,4.5-10,8.75-2.24,1.57-2.1,4.48-3.64,6.47-1.06,1.36-2,3.27-3.94,2.5-2.36-.95-.6-2.89-.4-4.42C1194.71,723.49,1194.72,722.85,1194.76,722.21Z"/><path class="cls-2" d="M898.56,287.06c3.65,0,7.3,0,11,0,1.33,0,2.68.26,3,1.81s-.76,2.35-2.08,2.67c-8.48,2.08-17.09,1.29-25.67,1-1.71-.06-1.91-1.51-1.8-2.84.13-1.55,1.14-2.13,2.65-2.12,4.3,0,8.6,0,12.9,0Z"/><path class="cls-2" d="M1180.44,301.36c6.16.87,12.31,1.73,18.46,2.62,2,.29,4.17.87,3.65,3.44-.44,2.19-2.51,1.87-4.25,1.61-7-1.08-14-2.14-21-3.24-2-.32-5.14.07-4.58-3,.4-2.19,3.3-.79,5.07-1.1a14.67,14.67,0,0,1,2.57,0C1180.41,301.59,1180.43,301.48,1180.44,301.36Z"/><path class="cls-2" d="M720.11,309.14c-1,.06-2.42.15-2.87-1.47a2.36,2.36,0,0,1,1.57-3.11,91.77,91.77,0,0,1,26.87-2.87c1,0,1.63.57,1.54,1.55-.12,1.49-1.05,2.18-2.54,2.39C736.59,306.75,728.5,307.93,720.11,309.14Z"/><path class="cls-2" d="M1245.49,770.13c-7.1,3.44-14.13,7.18-22.35,7-2.19,0-5,.69-5.12-3,8.18-3.11,17.09-3.71,25-8.09C1246.52,764.06,1247.36,767.06,1245.49,770.13Z"/><path class="cls-2" d="M980.41,286.56c4.09,0,8.19-.07,12.28,0a2.42,2.42,0,0,1,2.62,2.92c-.19,1.7-1.51,1.82-2.88,1.82q-12,0-23.92.06c-1.78,0-3-.55-3-2.5s1.68-2.22,3.22-2.23c3.88,0,7.76,0,11.64,0Z"/><path class="cls-2" d="M939.46,291.34c-4.08,0-8.16,0-12.24,0-1.68,0-3.08-.41-3-2.41,0-1.64,1.43-2.13,2.7-2.14q12.55-.14,25.11,0a2.22,2.22,0,0,1,2.36,2.48c-.1,1.66-1.23,2.07-2.66,2.07H939.46Z"/><path class="cls-2" d="M386,620.45c0,24.64,0,49.28-.07,73.92,0,2,1.54,5.56-2.08,5.74-4.13.21-2.86-3.6-2.86-5.87-.06-31.54,0-63.08,0-94.62,0-17.91-.05-35.82,0-53.72,0-2.09-1-5.54,2.75-5.28,3,.2,2.16,3.28,2.16,5.26Q386.08,583.16,386,620.45Z"/><path class="cls-2" d="M357.69,543.07c0,49.67,0,99.35-.26,149,0,2.67,2.38,7.77-2.37,7.82s-2.63-5.09-2.64-7.82c-.13-45.79-.07-91.58-.06-137.37,0-2.16-.15-4.31-.23-6.46.09-1.28.11-2.57.28-3.84s-.47-3.27,1.46-3.81S357.12,541.16,357.69,543.07Z"/><path class="cls-2" d="M502.87,351.37c-7.72,6.66-17.25,8.11-26.62,10-.77.15-1.9,0-1.88-1.15,0-.79.24-2.11.71-2.29C484.05,354.49,493.14,351.55,502.87,351.37Z"/><path class="cls-2" d="M868.67,792.31c1,.76,2.4,1.28,3,2.27,4,6.63,7.83,13.38,12.53,19.59,1,1.28,1.56,3.32-.52,4.5-1.72,1-2.89-.29-3.84-1.46-4.9-6-9.52-12.24-12.58-19.45C866.41,795.77,865.57,793.71,868.67,792.31Z"/><path class="cls-2" d="M942.17,784.1c-.1,2.52-2,1.9-3.31,1.75-5.47-.62-17.26-16.46-16.43-21.9a2.83,2.83,0,0,1,1.83-2.45,2.27,2.27,0,0,1,2.78,1.14c3.76,7.36,8.3,14.11,14.51,19.66C942,782.67,942,783.5,942.17,784.1Z"/><path class="cls-2" d="M858,768c-.4-3.61-.81-7.22-1.18-10.84-.2-2.06.08-4.19,2.51-4.48s2.26,2.19,2.59,3.67c1.32,6.06,2.46,12.15,3.66,18.23a16.79,16.79,0,0,0,.12,1.88c.37,2.15,2.06,5-1.4,5.75-3.75.83-3.55-2.74-4.17-5C859.22,774.15,858.64,771,858,768Z"/><path class="cls-2" d="M675.63,769.75c-3.16-3.1-7-5.53-9.42-9.38-1.42-2.22-2.16-4.65,0-6.31,2.46-1.91,3.78.85,5,2.4a48.23,48.23,0,0,0,14.6,12.33c2.08,1.15,4.38,2.18,2.52,5.23C683.47,774.42,679.83,771.27,675.63,769.75Z"/><path class="cls-2" d="M920.32,746.39a43.83,43.83,0,0,1,9.75-22.17c.92-1.13,2-2.7,3.72-1.7,1.93,1.16,1.15,3.11.32,4.58-3.73,6.57-7.08,13.28-9.13,20.59-.36,1.29-1.14,2.54-2.67,2.22C920,749.43,920.47,747.38,920.32,746.39Z"/><path class="cls-2" d="M926.07,656.33c0,2.64-1.67,3.35-3.16,4.17-6.21,3.41-12.46,6.78-18.68,10.19-1.59.87-3.58,1.7-4.78.32-1.6-1.85.63-3,1.8-4.06,6-5.41,13.16-8.9,20.58-11.85C923.46,654.45,925.77,653.57,926.07,656.33Z"/><path class="cls-2" d="M699.34,775.46c.54-2.84,2.81-2.68,4.94-3,7-1.05,13.88-2.5,20.1-6.18,1.15-.68,2.66-2,4-.42s-.29,2.69-1.09,3.87c-6.85,4.07-13.95,7.34-22.14,7.49C703,777.26,700.84,777.51,699.34,775.46Z"/><path class="cls-2" d="M888.24,685.74c-4.46,4.08-7.79,9.11-11.48,13.84-1.16,1.5-2.88,2.69-4.41,1.78-2-1.21-.52-3.15.38-4.44,5.07-7.37,9.11-15.7,17.81-19.81C893.54,681,889.33,682.94,888.24,685.74Z"/><path class="cls-2" d="M1567.69,548.26v61q0,25.29,0,50.58c-.08,11.83-.1,23.67-.29,35.51,0,1.82,1.18,4.85-2.42,4.8-3.24,0-2.71-2.78-2.73-4.82-.13-12.26-.2-24.53-.28-36.8q0-24,.07-48l-.07-58.45c.1-2.35.17-4.7.32-7,.13-2-.39-4.79,2.91-4.56,2.8.19,2.07,2.72,2.26,4.52C1567.59,546.13,1567.62,547.2,1567.69,548.26Z"/><path class="cls-2" d="M1539.1,550.86v109c-.09,11.66-.13,23.31-.32,35,0,1.92,1.1,5-2,5.25-3.66.26-2.9-3.08-2.93-5.26-.14-12.52-.16-25-.22-37.56l0-46.69q0-31.15,0-62.33c1.21-2.46-1.62-7.34,2.39-7.45,4.82-.14,2.17,4.83,2.9,7.53A14,14,0,0,1,1539.1,550.86Z"/><path class="cls-2" d="M1417,351.49c9.48-.1,18.11,3,26.78,5.9a2.25,2.25,0,0,1,1.68,2.39c0,1.48-1.19,1.74-2.23,1.55C1433.94,359.68,1424.61,358,1417,351.49Z"/><path class="cls-2" d="M599.84,331.2c-2.84.12-4.42.06-4.77-1.89-.31-1.73.46-2.81,2.3-3.19,7.56-1.54,15.1-3.19,22.66-4.68,1.45-.28,3.49-.23,3.9,1.43.47,1.92-1.62,2.3-3,2.67C613.55,327.6,606.09,329.54,599.84,331.2Z"/><path class="cls-2" d="M556.72,340.22c-1.74.27-3-.13-3.41-1.58a2.31,2.31,0,0,1,1.86-2.93c8.32-2.17,16.67-4.21,25-6.2,1.26-.3,2.86-.11,3.07,1.51a3,3,0,0,1-2.48,3.32C572.68,336.35,564.55,338.31,556.72,340.22Z"/><path class="cls-2" d="M1340,329.68l23.91,5.76c1.64.39,3,1.24,2.54,3.05s-2.07,2.16-3.68,1.77q-11.6-2.75-23.15-5.63c-1.79-.44-3.41-1.38-3.12-3.48S1338.58,329.45,1340,329.68Z"/><path class="cls-2" d="M1294.52,323.57c3.79-3.25,6.79-1.79,9.61-1.25,6.13,1.18,12.2,2.64,18.3,3.93,1.82.39,2.65,1.48,2.25,3.22a2.4,2.4,0,0,1-3,1.9C1312.84,329.34,1303.68,328.2,1294.52,323.57Z"/><path class="cls-2" d="M728.86,731.67c.91,8.84-3.07,15.9-10,21.57-1.86,1.52-4.47,3.18-6.23.86-1.63-2.15,1.52-3.05,2.81-4.21,11.79-10.58,13.83-27.66-3.29-36.77-2.09-1.11-4.94-2.5-3.54-5.22s4.3-1.26,6.29-.17C724.1,712.82,729.64,720.19,728.86,731.67Z"/><path class="cls-2" d="M748.21,732.49a45.66,45.66,0,0,1-7.47,23.14c-1,1.62-2.09,3.89-4.37,2.6-2.07-1.18-.48-3.1.27-4.52,6.68-12.61,8.94-25.45,2.27-38.84-.9-1.8-.62-3.57,1.22-4.36s2.68.88,3.34,2.24A43.88,43.88,0,0,1,748.21,732.49Z"/><path class="cls-2" d="M697.58,758.59c-7.36-.28-17.7-7.91-20-14.6-.58-1.7-1.14-3.49.72-4.58s3.24.49,4.21,1.85c4.2,5.9,9.25,10.64,16.42,12.74,1.39.42,3,1.22,2.37,3.18S698.86,758.43,697.58,758.59Z"/><path class="cls-2" d="M858.2,736.84c.76-7.6,2.86-14.41,4.84-21.23.56-1.93,1.43-4.74,4.19-3.86,2.32.75,1.52,3.2,1,5.09q-2.7,10.32-5.41,20.63c-.44,1.65-.79,4-2.86,3.66C857.33,740.74,858.23,738.2,858.2,736.84Z"/><path class="cls-2" d="M695.2,689.58c0,1.85-1.34,2.55-2.83,3.07a54.49,54.49,0,0,0-18.71,11.22c-1.19,1.07-2.84,2.71-4.4.83a3.65,3.65,0,0,1,.34-4.82A43.17,43.17,0,0,1,692.87,688C694.05,687.83,695,688.19,695.2,689.58Z"/><path class="cls-2" d="M697.63,707.34a4.75,4.75,0,0,1-3.11,3.48c-6.81,2.8-11,8-13.8,14.62-.65,1.54-1.13,4.35-3.85,3-2-1-1.13-3-.59-4.62,2.73-8.28,8.36-13.91,16.14-17.52C694.45,705.38,696.46,704.89,697.63,707.34Z"/><path class="cls-2" d="M709.72,686.77a45.64,45.64,0,0,1,22.51,10.49c1,.84,1.72,2.21.86,3.47a2.62,2.62,0,0,1-3.53.67A95.63,95.63,0,0,0,708,691.16a2.29,2.29,0,0,1-1.7-3C706.84,686.52,708.44,687.11,709.72,686.77Z"/><path class="cls-2" d="M1188.77,705.49c-1.08,0-1.8-.4-2-1.39a4.84,4.84,0,0,1,1.27-4.17,34,34,0,0,1,12-8.59,78,78,0,0,1,9.78-3.17c1.21-.35,2.71-.55,3.15,1.18a2.23,2.23,0,0,1-1.22,2.73,61.41,61.41,0,0,0-21.89,13.19C1189.63,705.51,1189.07,705.43,1188.77,705.49Z"/><path class="cls-2" d="M1228.86,687c7.46,1.48,14.74,5,21.43,9.8,1.07.75,2.08,2.46.85,4a2.73,2.73,0,0,1-3.58.29c-6.66-4-13.5-7.47-21-9.48a2.35,2.35,0,0,1-2-2.84C1225,686.74,1226.66,687.05,1228.86,687Z"/><path d="M835,434.74v111H815.19V475l-19.51,14.91L779.5,502.47l-16.18-12.53L743.81,475v70.74H724v-111L743.81,450l35.69,27.44L815.19,450Z"/><path d="M888.94,471.7v75.5H869.11V469.64a15.8,15.8,0,0,0-13.48-13.48h-4.44V436.49h4.28v.16A35.35,35.35,0,0,1,885,456.47a42.36,42.36,0,0,1,2.7,7.46,33.41,33.41,0,0,1,1,8.09Z"/><path d="M942.54,471.7v75.5H922.72V469.64a15.81,15.81,0,0,0-13.48-13.48h-4.45V436.49h4.29v.16a35.35,35.35,0,0,1,29.5,19.82,42.36,42.36,0,0,1,2.7,7.46,33.41,33.41,0,0,1,1,8.09Z"/><path d="M1060.08,490.42a32.75,32.75,0,0,1-23.48,55.51H991.08a32.59,32.59,0,0,1-30.14-20,34.5,34.5,0,0,1-2.54-12.85,32.65,32.65,0,0,1,9.2-22.84,31.28,31.28,0,0,1-6.82-10,34.41,34.41,0,0,1-2.53-12.84,32.2,32.2,0,0,1,32-32.84h46.47a32.88,32.88,0,0,1,23,55.68Zm-24.27-9.68a12.94,12.94,0,0,0,.47-25.85H989.49a12.93,12.93,0,0,0,.32,25.85h46Zm.16,45.52a13.06,13.06,0,0,0,13-13,12.92,12.92,0,0,0-12.21-13H990.29a12.89,12.89,0,0,0-12.22,12.85,13.06,13.06,0,0,0,13,13h45.52Z"/><path d="M1193.47,454.73a34.46,34.46,0,0,1,2.53,12.85V513.1a32.7,32.7,0,0,1-10.46,24.11,34.61,34.61,0,0,1-7.3,5.23,31.42,31.42,0,0,1-14.91,3.65h-69V526.26h69a13.06,13.06,0,0,0,13-13V497.71a32.41,32.41,0,0,1-12.37,2.54h-46.79a32.76,32.76,0,0,1,.48-65.51h45.52a32.59,32.59,0,0,1,30.14,20Zm-88.67,12.85a13.06,13.06,0,0,0,12.37,13H1164a13,13,0,0,0-.63-26h-45.52A13.07,13.07,0,0,0,1104.8,467.58Z"/></g></g></svg>