<svg xmlns="http://www.w3.org/2000/svg" viewBox="0 0 1920 1080"><defs><style>.cls-1{fill:#020202;}.cls-2{fill:#f2f2f2;}</style></defs><g id="Capa_2" data-name="Capa 2"><g id="Capa_1-2" data-name="Capa 1"><path class="cls-1" d="M998.36,297.05c-10.11-.33-20.24-.59-30.35-.41l-17.37.12q-13.23-.45-26.47-.2c-3.27.06-8.28-1.16-8.16,4.3s4.92,2.84,7.63,2.94c9.15.28,18.32.2,27.47,0l17.73.32c9.77-.45,19.59-.12,29.38-.26,2.26,0,5.76,1.36,5.82-3C1004.07,297.07,1000.78,297.13,998.36,297.05Zm0,0c-10.11-.33-20.24-.59-30.35-.41l-17.37.12q-13.23-.45-26.47-.2c-3.27.06-8.28-1.16-8.16,4.3s4.92,2.84,7.63,2.94c9.15.28,18.32.2,27.47,0l17.73.32c9.77-.45,19.59-.12,29.38-.26,2.26,0,5.76,1.36,5.82-3C1004.07,297.07,1000.78,297.13,998.36,297.05Zm718.2,150.79c0-4.1-6.52-10.7-6.52-10.7-7.84-6.85-17.81-5.79-27.55-5.81-22.57,0-45.13-.21-67.69.12a77.35,77.35,0,0,1-34.06-7.46c-49.24-22.46-99.18-43.33-149.14-64.14-84-35-170.37-61.58-261-72.52-12-1.45-18.71-5.89-24.46-16.84-18.2-34.71-47.84-53.46-87.09-54.93-28.4-1.06-56.89-.63-85.32,0l-24.34-.08c-38.87-.45-68.18,1.28-107,1.47-7.25,0-25.68,9.13-25.68,9.13-20.63,10.86-36.12,26.7-46.1,47.78-3.28,6.91-7.61,11.59-15.94,12.51-100.26,11-194.83,42.17-287,81.71q-66.56,28.53-133,57.44a71,71,0,0,1-28.57,5.69q-33.84.12-67.69.1c-10.11,0-20.24-.31-28.86,4.3-7.08,4.61-6.42,9-6.42,9V589.82c2.63,16.57,10.31,30.47,20.3,43.46,25.15,26.47,57.29,30,91.15,27.43,11.86-.92,16.59-6.48,19.85-21.48-.06-10.11-.49-20.24-.06-30.33.51-11.88,9.45-16.35,18.67-8.85,8.27,6.73,17.2,8.58,27.27,8.44,13.08-.18,26.17.37,39.22-.12,8.74-.33,14.3,2.42,16.42,11.33,1.25,5.32,3.3,10.48,5,15.7,10.84,24.27,19.5,49.38,28.82,74.25,5.54,14.14,11,28.31,16.67,42.41,7.7,19.1,19.54,35.65,32.35,51.59,21.29,22.38,45.92,40,75.43,50.55l20.28,7.5c26.25,2.57,52.55,6.15,78.7-.06,33.87-8,67.46-17.25,101.44-24.77,15.69-3.48,31.94-4.5,48-6,37.38-3.48,74.41-7.48,112-6.34l10.37-.22c41.6,1.12,84.26,2.89,125.56,8.33,43.39,2.47,83.89,18,125.65,27.83,30.74,5.91,61.37,6.4,91.93-1.39,16.18-4.12,31.18-11.09,46.18-18.14,1.55-1.16,3.06-2.39,4.67-3.46,35.71-23,61.66-53.85,76.74-93.74q20.55-54.33,41.44-108.56c10.37-27.07,10.41-27,40-26.94,18.71,0,38.13,3.16,53.73-11.42,2.44-1.14,4.72-1.45,6.56,1.06,6.89,2,7.17,7.81,7.33,13.35.29,10.44-.14,20.93.43,31.37.45,8.58,3.88,16.53,13.39,17.47,17.88,1.79,35.94,2.3,53.65-1.78,35.34-8.15,63.45-41,64.14-77.32C1717.3,534.6,1716.52,494.27,1716.56,447.84Zm-1461-.88c13.72-.2,27.49-.77,41.17.1,20.22,1.27,38.34-4.28,56.52-12.61,79-36.24,158.88-70.46,241.49-97.82C646.52,319.47,699.88,308.89,754,302c14.38-1.85,24.19-8.17,30.94-21.81,15.44-31.22,41-48.48,76.33-49.08l201,.37c29.49,1.55,54.29,15.14,67.42,42,10,20.38,24.48,27.86,45.62,30.31,77.92,9,152.39,31.34,225,60.33,59.41,23.74,118.38,48.49,176.51,75.21a80.32,80.32,0,0,0,35,7.56c18-.22,36,0,53.95.1,2,0,5.16-1,5.2,2.53,0,3.08-2.75,3.32-5,3.24-25.77-.92-51.67,1.71-77.37-1.69-11.21-1.49-20.73-7.77-30.47-12.88-95.33-50-197-82.59-300.42-110.78-37.18-10.13-75.09-16.43-112.9-23.32-9.15-1.67-14.47-5.89-17.67-14.43-12.63-33.55-34-48.38-70-48.89l-200.87.1c-28.94.63-53,17.46-62.85,44.7-4.1,11.27-10.5,17-23,19-31.21,5-62.58,10-93.15,17.92-42.21,10.94-83.79,24.36-125.55,37a1070.38,1070.38,0,0,0-129.07,48.67c-24.88,11.19-49.2,23.59-73.64,35.71-12.59,6.24-25.76,8.85-39.72,8.75-18-.14-35.94.12-53.93.1-2.73,0-6.93,1-6.85-3.24C248.72,445,253.08,447,255.51,447Zm1209.7,94.29c-7.84,27.49-17.24,54.46-27,81.32C1431.5,643.4,1424.9,664.26,1418,685c-6.28,18.83-12.52,37.7-19.51,56.25-5.46,14.51-14.41,26.68-29.23,37,0-12.43,0-22.93,0-33.44,0-2.8.65-6.65-3.71-6.5-3.56.14-3.06,3.7-3.12,6.15-.2,10.11-.91,20.26-.08,30.29.59,7.3-2.36,10.88-8.39,13.43-10,4.2-20.22,7.62-31,7.89-16,.41-32,0-47.94-.1-58.84.08-117.68.61-176.51-.09-13.16-.16-26.23-5-39.46-6.88-3.71-.53-11.47-5-10.13,5.62.29,2.51-2.71,2.2-4.58,2.18l-169.5-.08c-1.75,0-4.71.43-4.16-2.43,1.69-8.66-4.34-6.44-8.17-5.54-59.58,14-120,5.79-180.08,7.3-32.28-.08-64.61,2.24-96.83-1.51a39.15,39.15,0,0,1-4.85-.75C558,788,557.53,787.26,558,764.07c.12-6.52-.08-13.05-.24-19.59-.07-2.59-.11-5.56-3.88-5.52-4.09,0-3.32,3.24-3.36,5.68-.08,5.55,0,11.09,0,16.64,0,5.13,0,10.25,0,15.63-16.57-5.87-31.72-31.19-40.72-67-9.34-23.46-16.29-47.71-24.18-71.66Q469.52,590,453.46,541.82c-8.52-33.9-9-66.49,15.43-95.08,10.39-12.15,24.07-18.65,39-23,81.86-23.91,163.36-49.21,247.18-65.61a778.4,778.4,0,0,1,130.24-14.23c13.84-.33,18.57,4.58,18.91,18.77.61,27.35,8.85,35.42,36.18,35.43l42.5,0c21.69-.4,31.24-10.11,31.57-32.12.29-19.59,3.83-22.42,23.26-21.93,89.43,2.2,175.45,23.09,260.87,47.23,39.13,11.08,78.06,22.89,117.13,34.16,30.44,8.78,55.87,40.72,53.67,73.45C1468.45,513,1472,527.63,1465.21,541.25ZM1362,397.66c-.51,5-5.1,1.75-7.89,1-30.15-8.34-60.27-16.78-90.42-25.1-70.36-19.42-141.61-33.67-214.72-37.07-7.83-.37-15.64-1.3-23.5-.12-10.38,1.53-16.45,7.56-18,17.79-.84,5.79-.94,11.72-1.25,17.59-.5,9.4-5.7,15.94-14.32,17.59-8.87,1.69-18.22.8-27.36,1l-14,.14c-5.85-.51-11.76-.1-17.63-.39-13.17-.67-20-7.72-20.73-21.13-1.69-30.23-7.64-34.1-38-32.92-105.78,4.06-206.39,33.08-307,62.33-7.8,2.26-11.09,2-9.58-7,1.41-8.34-3.44-19,2.08-24.62,5.18-5.34,15.33-6,23.4-8.38,28.45-8.3,57-16.27,85.38-24.7,23.38-6.93,47.35-4.75,71.09-4.81q166.76-.37,333.52-.15c47.41,0,94.82-.1,142.25,0,26.88,0,51.64,10.15,77,16.92,21.38,5.69,42.44,12.62,63.67,18.88,2.53.75,6,.87,6.16,3.83C1362.57,378.11,1363,388,1362,397.66ZM835.55,304.23c-.45-3.55-3.45-2-5.43-2.1-11.65-.33-23.23,2.63-35.3,1.26,8.28-26.76,21.93-47.8,51.26-53.52,6.34-1.23,13-1.1,19.51-1.13,28.11-.14,56.23.15,84.34-.36l17.45,0c31,.35,62.06-.08,93.1.43,28.09.47,47.15,14.63,57.81,40.44,1.83,4.46,3.81,8.86,6.4,14.89-13.5-.81-25.54-1.57-37.57-2.18-2-.1-5.13-1.4-5.21,2.31,0,2.77,1.58,5.64,4.64,5.25,14-1.83,28.33,6.57,42-1.63,2-1.16,3.63.45,5.44,1,11.07,3.47,21.1,10.17,33.37,11.78-2.82.19-5.65.56-8.46.56-63.37,0-126.74-.33-190.11.08l-18-.27q-7.33-.24-14.7-.2-85.78.18-171.58.41H750.23c-.09-.94-.17-1.88-.27-2.82,11.48.13,21.71-4,31.65-8.7,5.36-2.51,9.22,1.39,13.58,1.51,12.06.3,24.13-1,36.2-1.67C834.75,309.44,835.93,307.14,835.55,304.23ZM948.4,809.7c-52.93,1-105.82,3.43-158.12,12.21-29.92,5-58.73,14.94-88.2,22q-79.86,19.29-146.91-28.13c-2.59-1.82-7.16-2.75-6.44-7.56-6,.61-8-5-11.27-8.08-22.59-21.48-34.94-49-45.56-77.63-14.12-38-29.1-75.78-43.53-113.73-3.94-10.38-10.89-15.74-22.14-15.68-15.67.08-31.35-.12-47-.14-6.71,0-12.5-1.49-17.82-6.34-8.07-7.32-17.91-7.85-27.43-3.14-9,4.45-14.62,12-15,22.44-.33,10.11-.29,20.24-.12,30.35.1,6.42-2.06,9.64-9.09,9.22-8.46-.49-17,0-25.46-.31-36.1-1.39-66-31.67-66.88-67.81-.3-12,.13-24.13.23-36.2-.1-28.76-.14-57.5-.27-86.26-.06-12.09,9.32-6.87,15-8.15,5.36-1.2,9.07.28,8,7-.74,4.65,1.87,6.75,6.19,6.64,26.76-.67,53.55,1.53,80.29-1.14,12.67-1.26,23.64-7.19,34.79-12.51,27.07-12.9,54-26.05,81.14-38.85,2.91-1.37,8.52-7.42,8.4,3,0,3.93,3.83,3.16,5.71,1.08,22.93-25.14,55.62-30,85.21-41.36,7.73-2.95,8.62-.37,8.52,6.6-.34,25.56-.14,25.52-25.23,33.06-9.36,2.8-18.73,5.57-28,8.71-34.63,11.78-56.4,42.33-56.44,78.9v22.56c-6.18-10.35-6.18-20-9.38-28.47-.75-1.94.29-5.36-3-5.22-3.1.12-4.39,3.22-4.14,5.79,1.26,12.35,5.17,24.11,9.19,35.77a3,3,0,0,0,3.81,2.12c7.62-2.26,4.69,3.65,5.28,6.83,2,4.09,4.75,8.09-1.88,11-2.58,1.12-1.4,3.87-.63,6.08,3.49,10.17,6.85,20.36,10.44,30.49,1,3,2.36,5.24,6.42,6.25,7.34,1.8,9.31,11.32,4.44,17.68-3.3,4.3-1,9.19.76,12.49,3.34,6.38,5.11,13.27,8,19.73,1.79,4,2.79,7.28,8.15,9.46,5.93,2.42,7.58,9.8,4.79,16.61-.47,1.12-2.55,2.32-2.34,2.85,5.23,12.86,6.17,27.91,15.87,38.32,4.77,5.08,7.4,9.7,7,16-.84,14.86,6.11,27.29,11.78,40.15,1.24,2.8,2.77,6.22,7.31,3.26,3.22-2.12,4.45,1.41,6.06,3.2,20.73,22.73,46.18,33.94,77.25,33.59,51-.59,102-.3,153-.36,4.35,0,8.91-.78,12.78,3.24-1.48.77-2.83,1.51-4.2,2.2-1.95,1-3.26,2.4-2.56,4.61.81,2.58,3.26,1.77,5,1.63,12.45-1,24.36-4.43,36-8.62a44.47,44.47,0,0,1,15.18-3c42.5.08,85,0,127.47.16,2.63,0,7.79-2.59,7.64,2.59C956.39,811.17,951.38,809.64,948.4,809.7Zm752.41-227.3c-2.41,33.2-30.21,60.13-63.57,62.53-9.75.7-19.59.15-29.39.45-5.3.15-7.65-1.59-7.42-7.32.37-9.47.18-18.95,0-28.41-.21-11.68-4.77-21.32-15.6-26.27-10.31-4.71-20.52-3.08-29.24,4.55-4.47,3.93-9.6,5.09-15.33,5.13-18,.08-35.94.29-53.93.45-7.89,2.73-13,7.32-16.15,15.84-17.65,47.32-34.05,95.26-54.78,141.22-28.39,62.88-80.08,94.15-148.53,98.59-31.73,2-61.39-7.88-91-16.45-44.6-12.92-90.24-17.52-136.22-20.52-23.48-1.53-47-2.81-70.54-2.47-2.83,0-7.71,1.76-7.62-3.22.1-4.26,4.64-2.22,7.05-2.24,42.17-.1,84.34.06,126.51,0,15.08,0,28.15,8,42.68,10.11,5.48.8,14.12,5,15.41-.77,1.55-6.91-8.09-4.65-12.78-6.53-.47-.2-.69-1-1.92-2.79h30.54c48.06,0,96.12-.47,144.18,0,31.51.29,56.87-11.94,77.64-34.89,2.24-2.45,3.22-5.26,7.33-1.43,2.92,2.73,4.38-2.08,5.06-3.89,5.13-13.68,14.73-26.11,11.39-42.22a11.58,11.58,0,0,1,4-10.63c12.31-10.11,12.71-25.73,18.46-38.87.86-2-.49-3.59-1.55-5.34a11.21,11.21,0,0,1,3-14.88c14.12-9.28,13.12-25.3,19-38.18.78-1.75.37-3.55-.93-5.42-4.26-6.13-1.08-15.92,6.15-17.94,3.79-1.06,4.14-3.73,5.1-6.33,2.91-8,6-15.88,8.33-24,1.31-4.64,5.55-9.21-1.28-14.55-3.18-2.5.92-9.72,2.41-14.53.93-2.94,3.89-.47,5.91,0,9.17-11.64,9.84-25.74,11.27-39.58.22-2-.47-4.26-2.73-4.43s-3.22,2-3.69,3.94c-1.76,7.28-3.41,14.59-5.08,21.89-.83,3.67-1,7.62-4.73,11.58-2.16-10.74-.55-20.61-.81-30.35-.9-33.31-21.46-63-52.87-74.21a445.45,445.45,0,0,0-45.86-13.7c-7.65-1.84-10.26-4.91-9.4-12.47a125.6,125.6,0,0,0,.24-18.61c-.26-5.94,2.21-6.46,7.1-4.73,17.47,6.25,35.12,12,52.54,18.46,11.21,4.12,20.34,11.56,28.76,19.92,2.16,2.16,4.06,6.05,7.91,4.38,3.41-1.49.39-5.42,2.34-8.91,9.69,4.51,19.55,9,29.31,13.66,23.52,11.29,47.07,22.48,70.44,34.08a80,80,0,0,0,36.78,8.39c21.58-.14,43.16-.38,64.71-.12,6.32.08,10.49-.91,9.56-8.31-.57-4.61,1.75-5.14,5.68-5.3,15.9-.66,17.57.28,17.43,16.12C1701.54,502.71,1703.7,542.61,1700.81,582.4ZM923.64,303.8c9.15.28,18.32.2,27.47,0l17.73.32c9.77-.45,19.59-.12,29.38-.26,2.26,0,5.76,1.36,5.82-3,0-3.83-3.26-3.77-5.68-3.85-10.11-.33-20.24-.59-30.35-.41l-17.37.12q-13.23-.45-26.47-.2c-3.27.06-8.28-1.16-8.16,4.3S920.93,303.7,923.64,303.8Z"/><path class="cls-2" d="M1469.41,498.85c2.2-32.73-23.23-64.67-53.67-73.45-39.07-11.27-78-23.08-117.13-34.16-85.42-24.14-171.44-45-260.87-47.23-19.43-.49-23,2.34-23.26,21.93-.33,22-9.88,31.72-31.57,32.12l-42.5,0c-27.33,0-35.57-8.08-36.18-35.43-.34-14.19-5.07-19.1-18.91-18.77a778.4,778.4,0,0,0-130.24,14.23c-83.82,16.4-165.32,41.7-247.18,65.61-14.94,4.36-28.62,10.86-39,23-24.46,28.59-23.95,61.18-15.43,95.08q16.08,48.24,32.14,96.45c7.89,24,14.84,48.2,24.18,71.66,9,35.79,24.15,61.11,40.72,67,0-5.38,0-10.5,0-15.63,0-5.55-.08-11.09,0-16.64,0-2.44-.73-5.64,3.36-5.68,3.77,0,3.81,2.93,3.88,5.52.16,6.54.36,13.07.24,19.59-.43,23.19.06,23.89,22.69,29.74a39.15,39.15,0,0,0,4.85.75c32.22,3.75,64.55,1.43,96.83,1.51,60-1.51,120.5,6.68,180.08-7.3,3.83-.9,9.86-3.12,8.17,5.54-.55,2.86,2.41,2.43,4.16,2.43l169.5.08c1.87,0,4.87.33,4.58-2.18-1.34-10.6,6.42-6.15,10.13-5.62,13.23,1.91,26.3,6.72,39.46,6.88,58.83.7,117.67.17,176.51.09,16,.08,32,.51,47.94.1,10.81-.27,21.08-3.69,31-7.89,6-2.55,9-6.13,8.39-13.43-.83-10-.12-20.18.08-30.29.06-2.45-.44-6,3.12-6.15,4.36-.15,3.69,3.7,3.71,6.5.08,10.51,0,21,0,33.44,14.82-10.31,23.77-22.48,29.23-37,7-18.55,13.23-37.42,19.51-56.25,6.93-20.77,13.53-41.63,20.26-62.46,9.74-26.86,19.14-53.83,27-81.32C1472,527.63,1468.45,513,1469.41,498.85ZM556.57,533a4.71,4.71,0,0,0-1.83.57c-4.48.1-4.1-3.27-4.12-6.06-.08-11.45,0-22.87,0-34.3,0-2.67.1-6,3.35-6.12,3.68-.18,3.3,3.45,3.44,5.9C558.06,506.38,558.35,519.75,556.57,533Zm1.15,21.4c0,12.08-.19,24.15-.45,36.24,0,1.81.1,4.34-2.59,4.44s-4-1.73-4-4.42c0-6.2,0-12.4,0-18.61V554.46c0-2.16.7-4,3-4.34C556.94,549.63,557.71,552.26,557.72,554.44Zm-7.18-107.13h.12c0-5.51,0-11.05,0-16.59,0-2.69.21-5.59,3.84-5.55,3.42,0,2.91,3.16,3,5.16q.27,17.55.06,35.12c0,2.28.69,5.83-3.61,5.42-3.79-.35-3.26-3.53-3.32-6C550.44,459,550.54,453.18,550.54,447.31Zm3.83,273.87c-6.78-.22-2.44-7.95-4.13-12-.11-.29-.19-.61-.29-.92.24-9.07.45-18.12.71-27.19.08-2.63.27-5.71,3.79-5.52,3,.16,2.78,3.18,2.88,5.34.47,9.7.81,19.42,1.18,29.12C556,713.48,560.18,721.37,554.37,721.18Zm3.06-66.58c-.16,2.09.24,4.87-3.34,4.6-3-.24-3.41-2.49-3.49-4.83-.24-6.42-.39-12.82-.57-19.24.18-3.55.06-7.15.59-10.64.59-3.79-2.24-10.54,3.22-10.6,6.28-.1,3,7,3.94,10.89.83,3.4.59,7.07.81,10.61C558.22,641.8,557.9,648.2,557.43,654.6Zm368.22,138-35.4.33c-3.22-3.06-3.3-5.69,1.49-6.67,12.41-2.6,25-1.93,37.6-1.85,2.06,0,3.9.59,4,3.14C933.4,793.23,928.75,791.79,925.65,792.64Zm103.89-2.44c-.77,4.3-4.75,2.52-7.21,2.32-12.58-1-25.4,2.06-37.77-2.3-1-5,1.49-6.08,5.93-5.91,11,.43,22,.57,33.08.83C1025.43,787,1030.3,785.92,1029.54,790.2ZM1362,491c0-1.82-.07-4.28,2.6-4.47s4.47,1.23,4.49,4c.08,13,.06,26,0,39,0,2.22-1,3.63-3.44,3.81-3.22.21-3.76-1.81-3.78-4.32,0-6.5,0-13,0-19.52h0C1361.9,503.4,1361.85,497.22,1362,491Zm.08,98.46c-.08-12.69.06-25.35.12-38l3-2.32c3.52.89,4.26,3.38,4.22,6.64-.11,11.36-.07,22.73-.17,34.1,0,2.51.39,5.87-3.26,6C1361.57,596,1362.06,592.18,1362,589.49Zm-.27-160.22c0-2.24.17-4.95,3.26-4.77,2.43.14,4.08,1.85,4.08,4.59,0,12.69,0,25.37.06,38.05,0,3-1.63,4.22-4.18,4.18-3.28-.06-3.07-2.77-3.09-5-.07-6.19,0-12.37,0-18.54h-.16C1361.73,441.62,1361.69,435.43,1361.77,429.27Zm7.34,286.45c0,2.92.29,6.42-4.12,6.08-3.83-.29-3-3.73-3.07-6.06-.21-13.59-.23-27.17-.31-40.76l-.14,0,.14-.14V675c5.07-.74,7.89.83,7.74,6.66C1369.07,693,1369.19,704.37,1369.11,715.72ZM1365.16,661c-4-2.65-3.06-6.79-3.1-10.56q-.12-15.11,0-30.19c0-2.91-1.69-7.42,3.44-7.3,4.61.11,3.77,4.47,3.83,7.57.19,11.35.27,22.7.39,34.07C1369.33,657.53,1368.34,660,1365.16,661Z"/><path class="cls-1" d="M557.53,465.45c0,2.28.69,5.83-3.61,5.42-3.79-.35-3.26-3.53-3.32-6-.16-5.87-.06-11.72-.06-17.59h.12c0-5.51,0-11.05,0-16.59,0-2.69.21-5.59,3.84-5.55,3.42,0,2.91,3.16,3,5.16Q557.74,447.88,557.53,465.45Z"/><path class="cls-1" d="M1369.17,467.14c0,3-1.63,4.22-4.18,4.18-3.28-.06-3.07-2.77-3.09-5-.07-6.19,0-12.37,0-18.54h-.16c0-6.18,0-12.37,0-18.53,0-2.24.17-4.95,3.26-4.77,2.43.14,4.08,1.85,4.08,4.59C1369.13,441.78,1369.09,454.46,1369.17,467.14Z"/><path class="cls-1" d="M558.59,635.39c-.37,6.41-.69,12.81-1.16,19.21-.16,2.09.24,4.87-3.34,4.6-3-.24-3.41-2.49-3.49-4.83-.24-6.42-.39-12.82-.57-19.24.18-3.55.06-7.15.59-10.64.59-3.79-2.24-10.54,3.22-10.6,6.28-.1,3,7,3.94,10.89C558.61,628.18,558.37,631.85,558.59,635.39Z"/><path class="cls-1" d="M1369.38,555.8c-.11,11.36-.07,22.73-.17,34.1,0,2.51.39,5.87-3.26,6-4.38.13-3.89-3.73-3.91-6.42-.08-12.69.06-25.35.12-38l3-2.32C1368.68,550.05,1369.42,552.54,1369.38,555.8Z"/><path class="cls-1" d="M554.37,721.18c-6.78-.22-2.44-7.95-4.13-12-.11-.29-.19-.61-.29-.92.24-9.07.45-18.12.71-27.19.08-2.63.27-5.71,3.79-5.52,3,.16,2.78,3.18,2.88,5.34.47,9.7.81,19.42,1.18,29.12C556,713.48,560.18,721.37,554.37,721.18Z"/><path class="cls-1" d="M556.57,533a4.71,4.71,0,0,0-1.83.57c-4.48.1-4.1-3.27-4.12-6.06-.08-11.45,0-22.87,0-34.3,0-2.67.1-6,3.35-6.12,3.68-.18,3.3,3.45,3.44,5.9C558.06,506.38,558.35,519.75,556.57,533Z"/><path class="cls-1" d="M1369.09,529.59c0,2.22-1,3.63-3.44,3.81-3.22.21-3.76-1.81-3.78-4.32,0-6.5,0-13,0-19.52h0c0-6.16-.05-12.34.06-18.53,0-1.82-.07-4.28,2.6-4.47s4.47,1.23,4.49,4C1369.13,503.56,1369.11,516.57,1369.09,529.59Z"/><path class="cls-1" d="M933.3,787.59c.1,5.64-4.55,4.2-7.65,5l-35.4.33c-3.22-3.06-3.3-5.69,1.49-6.67,12.41-2.6,25-1.93,37.6-1.85C931.4,784.45,933.24,785,933.3,787.59Z"/><path class="cls-1" d="M1029.54,790.2c-.77,4.3-4.75,2.52-7.21,2.32-12.58-1-25.4,2.06-37.77-2.3-1-5,1.49-6.08,5.93-5.91,11,.43,22,.57,33.08.83C1025.43,787,1030.3,785.92,1029.54,790.2Z"/><path class="cls-1" d="M1369.7,654.59c-.37,2.94-1.36,5.45-4.54,6.41-4-2.65-3.06-6.79-3.1-10.56q-.12-15.11,0-30.19c0-2.91-1.69-7.42,3.44-7.3,4.61.11,3.77,4.47,3.83,7.57C1369.5,631.87,1369.58,643.22,1369.7,654.59Z"/><path class="cls-1" d="M1494,465.1c-.27,1.92-.09,4.65-3,5-2.22.24-3.55-1.71-3.89-3.66-2.08-12.2-6.27-23.72-11.16-35-.88-2-.8-4,1.45-4.86,3-1.11,5.12.78,6.32,3.1C1489.36,440.67,1492.22,452.59,1494,465.1Z"/><path class="cls-1" d="M664.33,839a64.09,64.09,0,0,1-17.41-1.43c-2.55-.62-4.18-2-3.86-4.73.39-3.16,3.1-3.17,5.26-2.79,11,1.93,22,1.08,33-.07,2.74-.29,5.34-.37,5.51,3.46.16,3.62-2.34,3.8-5.06,4.36A72.91,72.91,0,0,1,664.33,839Z"/><path class="cls-1" d="M618.65,832c-11.1-2.52-22.58-7-33.82-12.22-1.55-.72-2.74-2-2.08-3.89.75-2.08,2.6-3.27,4.65-2.56,12,4.15,23.94,8.45,35.86,12.81a2.82,2.82,0,0,1,1.63,4C623.86,832.31,621.65,831.82,618.65,832Z"/><path class="cls-1" d="M549.06,808.21c-1.67-6.34-8.16-8-12-12.18-3.49-3.79-7.91-6.86-7.3-13,3-1.53,5,.29,6.92,2a166.75,166.75,0,0,0,25.77,19.39c2.25,1.34,4.9,3.43,3.44,6.17s-4.72,1.71-7.07.81c-3.3-1.27-6.16-3.74-10-3.41Z"/><path class="cls-1" d="M709.5,831.38c-1.91-.09-3.87.55-4.17-1.8a3.56,3.56,0,0,1,2.25-3.9,156.58,156.58,0,0,1,37.21-10.24c1.31-.18,3.54-.37,3.86,1.86.43,2.92-2,3.86-4,4.71C733.23,826.74,720.87,827.88,709.5,831.38Z"/><path class="cls-1" d="M424.72,461.61c1.79-10.22,4.64-20.83,10-30.67,1.39-2.56,2.88-6,6.31-4.4,3.2,1.46,1.09,4.56.26,6.87-3.52,9.77-6.9,19.57-9,29.77-.53,2.57-1,6.55-5.2,5.66C423.42,468.08,424.74,464.81,424.72,461.61Z"/><path class="cls-1" d="M557.72,554.44c0,12.08-.19,24.15-.45,36.24,0,1.81.1,4.34-2.59,4.44s-4-1.73-4-4.42c0-6.2,0-12.4,0-18.61V554.46c0-2.16.7-4,3-4.34C556.94,549.63,557.71,552.26,557.72,554.44Z"/><path class="cls-1" d="M1361.61,674.86V675l-.14,0Z"/><path class="cls-1" d="M1369.35,681.64c-.28,11.36-.16,22.73-.24,34.08,0,2.92.29,6.42-4.12,6.08-3.83-.29-3-3.73-3.07-6.06-.21-13.59-.23-27.17-.31-40.76C1366.68,674.24,1369.5,675.81,1369.35,681.64Z"/><path class="cls-1" d="M1329.7,813.42c3.66.56,6.45-.25,7.38,2.49,1,3-1.77,4-3.74,4.69-10.9,4-21.84,8-32.84,11.71-2.94,1-6.39.37-7.48-2.66-1.53-4.22,2.84-4.47,5.24-5.34C1309.11,820.37,1320.06,816.73,1329.7,813.42Z"/><path class="cls-1" d="M1256.32,839.17c-9.06.17-15.23.28-21.19-1.82-2.36-.83-4.25-2.27-4-4.85.34-3.1,3.09-3,5.31-2.71,11.67,1.75,23.32,1.43,35,.08,2.29-.27,4.9-.23,5.27,2.82.32,2.68-1.73,3.91-4,4.79C1266.47,839.9,1259.9,839,1256.32,839.17Z"/><path class="cls-1" d="M1208.54,831.63a247.09,247.09,0,0,1-34.59-9c-2.32-.77-4.11-2.3-3.28-5.08.91-3.05,3.61-2.4,5.7-2a212.22,212.22,0,0,1,33.63,9.69c2.14.78,4.57,1.9,3.8,4.76C1213.1,832.66,1210.53,831.11,1208.54,831.63Z"/><path class="cls-1" d="M1388.65,786.06c-1.25,1.79-2.4,3.72-3.81,5.43-7.11,8.57-16.16,14.64-25.92,19.75-1.71.9-3.84,2-5.26.11-1.61-2.14-.54-4.48,1.44-5.86,9.84-6.84,19.59-13.75,28.32-22a3.21,3.21,0,0,1,4.39-.31C1388.37,783.68,1388.33,784.86,1388.65,786.06Z"/><path class="cls-1" d="M1037.22,298c7.47.65,15,1.24,22.42,2,2.64.26,5.56.84,5.41,4.32-.16,3.68-3.2,3.72-5.82,3.39a255.23,255.23,0,0,0-34.18-1.87c-2.45,0-4.8-.51-4.95-3.47-.18-3.65,2.57-4,5.34-4.07,3.92,0,7.84,0,11.75,0Z"/><path class="cls-1" d="M881.62,298.2c3.91,0,7.82,0,11.72,0,2.48,0,4.56.56,4.71,3.61s-1.83,3.86-4.35,4c-11.7.6-23.39,1.21-35.09,1.73-2.65.12-5.57,0-5.75-3.62s2.74-3.81,5.4-4L881.59,298Z"/><rect class="cls-2" width="1" height="1"/><rect class="cls-2" x="1919" y="1079" width="1" height="1"/><rect class="cls-2" y="1079" width="1" height="1"/><rect class="cls-2" x="1919" width="1" height="1"/></g><g id="Capa_3" data-name="Capa 3"><path d="M837.56,520.41v111H817.73V560.7l-19.51,14.9L782,588.14,765.86,575.6l-19.51-14.9v70.74H726.53v-111l19.82,15.22L782,563.07l35.69-27.44Z"/><path d="M891.48,557.36v75.51H871.65V555.3a15.8,15.8,0,0,0-13.48-13.48h-4.44V522.15H858v.16a35.43,35.43,0,0,1,29.51,19.83,41.44,41.44,0,0,1,2.69,7.45,33,33,0,0,1,.95,8.09Z"/><path d="M945.09,557.36v75.51H925.26V555.3a15.8,15.8,0,0,0-13.48-13.48h-4.44V522.15h4.28v.16A35.55,35.55,0,0,1,925.1,526a35.17,35.17,0,0,1,16,16.18,41.48,41.48,0,0,1,2.7,7.45,33,33,0,0,1,.95,8.09Z"/><path d="M1062.62,576.08a32.76,32.76,0,0,1-23.47,55.52H993.62a32.56,32.56,0,0,1-30.13-20A34.27,34.27,0,0,1,961,598.76a32.67,32.67,0,0,1,9.2-22.84,30.81,30.81,0,0,1-6.82-10,34.31,34.31,0,0,1-2.54-12.85,32.67,32.67,0,0,1,9.2-22.84,30.85,30.85,0,0,1,22.84-10h46.47a32.87,32.87,0,0,1,23,55.67Zm-24.27-9.67a12.94,12.94,0,0,0,.48-25.86H992a12.94,12.94,0,0,0,.31,25.86h46Zm.16,45.52a13.07,13.07,0,0,0,13-13,12.91,12.91,0,0,0-12.22-13H992.83a12.87,12.87,0,0,0-12.21,12.84,13.07,13.07,0,0,0,13,13h45.53Z"/><path d="M1157.63,520.41a35.81,35.81,0,0,1,35.84,35.84v39.18a35.81,35.81,0,0,1-35.84,35.85h-34.27a35.81,35.81,0,0,1-35.84-35.85V556.25a35.81,35.81,0,0,1,35.84-35.84Zm-34.27,19.82a16.24,16.24,0,0,0-16.17,16.18v39.18a16.24,16.24,0,0,0,16.17,16.18h34.27a16.24,16.24,0,0,0,16.17-16.18V556.41a16.24,16.24,0,0,0-16.17-16.18Z"/></g></g></svg>