<svg xmlns="http://www.w3.org/2000/svg" viewBox="0 0 1920 1080"><defs><style>.cls-1{fill:#010202;}.cls-2{fill:#f2f2f2;}</style></defs><g id="Capa_2" data-name="Capa 2"><g id="Capa_1-2" data-name="Capa 1"><path class="cls-1" d="M1733.44,451.3c0-22.84-.2-45.69-.44-68.53,0-3.46-4.47-7.64-4.47-7.64-6.63-4.48-14-4.25-21.42-4.28-13.67-.05-27.33-.15-41-.15-4.49,0-9.16,0-13.15-1.87-10.61-5-21.8-5.1-33.11-5.08-35.65.07-71.3,0-106.94.18a93.81,93.81,0,0,1-33.86-6.26,1599.78,1599.78,0,0,0-266.13-73.93,55.89,55.89,0,0,1-28.83-14.45,340.23,340.23,0,0,0-90.5-60.75c-20-9.11-40.47-16.94-62.21-20.86-12.8-2.3-18.46,1.37-20.81,14.06-.9,4.82-2.89,4.64-6.61,4a281.88,281.88,0,0,0-34.58-3.24l-14.79-.12a318.68,318.68,0,0,0-43.87,3.92c-3.85-20.44-9.17-18.65-22.66-18.64-8.52,0-30.23,8.18-30.23,8.18-46.39,16-87.3,41.16-123.21,74.46-6.74,6.24-14,10.47-23.13,12.26-56.18,11-111.93,23.93-166.82,40.35-35.2,10.53-70.19,21.76-104.49,35a89,89,0,0,1-33,6c-38-.22-76,0-114-.11-8.69,0-17.13.6-25.12,4.57-4.6,2.29-9.79,2.25-14.84,2.28-14.26.09-28.52,0-42.78.19-6.45.05-13.07-.28-18.72,5.11-3.89,2.8-5.11,11.26-5.11,11.26v67.63a77,77,0,0,0,4.65,27.89,90.57,90.57,0,0,1,6,36.6c-.2,4.75-.2,9.51,0,14.25.69,16.18,6.93,29.23,21.35,37.67,10.24,6,20.94,11.36,30.47,18.33,14.79,10.81,31,13.62,48.75,12.57s20.59-3.62,20.64-21.24c0-12.46-.24-24.93,0-37.4.13-7.71,4.23-12.25,11.33-13.7,2.77-.56,4.67-.19,4.55,3.32-.1,3,.06,5.93.1,8.9.09,8.94.09,9,8.63,9.12,12.18.11,24.35.08,36.53,0,7.12-.05,7.26-.12,8.71-7.47.44-2.17,1.17-3,3.31-3.16,7.35-.74,11.06,1.62,12.92,9,1.1,4.3,1.7,8.73,2.54,13.08q13.94,72.46,27.87,144.92c11,57.08,38.75,104,85.1,139.54,20.9,16,44.17,27.58,69.26,35.56,27.22,7.75,67.17,10.23,67.17,10.23a240.29,240.29,0,0,0,65.9-9,1032.34,1032.34,0,0,1,121.56-26.68c28.19-4.39,56.59-6.54,85-8.1,8.29-.45,16.62,0,24.94-.26l16.7,0c23.47.55,46.91,1.81,70.24,4.09A839.72,839.72,0,0,1,1191.7,882c35.56,10.25,71.34,14.16,108.19,8,92.22-15.34,166-85.81,184.41-177.43,8.8-43.85,16.76-87.87,25.1-131.81,1.82-9.6,3.57-19.23,5.49-28.81,1.76-8.83,3.23-10.11,12.19-11.3a5.72,5.72,0,0,1,4.29.61c1.56,9.78,1.56,9.79,12.16,9.86,5.64,0,11.29.07,16.93.05,6.54,0,13.08-.22,19.61-.12,4.54.07,6.5-1.8,6.19-6.41a91.39,91.39,0,0,1,.11-9.79c.18-5.14,1.68-6.26,6.41-4.59,5.19,1.83,8.46,5.45,9,11,.35,3.55.43,7.12.44,10.68.06,11.88-.11,23.75.1,35.63.16,9.08,3.83,12.91,12.9,13.64,5,.39,10.12,0,15.14.41a53.58,53.58,0,0,0,36-9.58c11.24-7.65,23.4-14,35.17-20.88,14-8.22,20.75-20.69,21.12-36.76.15-6.52.28-13.06.12-19.59-.23-9.32,1-18.53,4.49-27C1732.22,476,1733.44,463.8,1733.44,451.3ZM319.53,518.43c-10.93,5.17-15.36,14.21-15.46,25.86-.11,12.17-.25,24.34-.35,36.51-.05,6.48,0,6.6-5.91,6.47-29.1-.62-18.79,2.92-44.91-12.46-7.16-4.2-14.1-8.87-21.53-12.49-14.49-7.07-21.14-18.2-20.2-34.29A194,194,0,0,0,211,504.9c-.61-10.14-3.78-19.75-7.24-29.25-1.52-4.19-2.92-8.38-2.93-12.93,0-23.45-.13-46.9-.09-70.36,0-6.72.22-7,6.7-7.11,14.25-.27,28.51-.25,42.76-.33,9.24-.05,18.36-.49,26.89-4.74,3.79-1.89,8.06-1.86,12.23-1.86q49,0,98,0c8.61,0,17.22-.14,25.83-.13a80.17,80.17,0,0,0,28.63-5.66c81.1-30.72,164.34-53.88,249.29-71C698.33,300,705.5,298,712.83,297c12.64-1.72,22.63-7.78,31.79-16.39a326,326,0,0,1,81.73-56.38c19-9.19,38.53-16.88,59.23-21.36,1.73-.38,3.47-.81,5.23-1.08s3.92-.95,4.17,1.58,1.18,5.54-2.14,7a21.57,21.57,0,0,1-3.47.74c-52.6,13-98.59,38.44-139.52,73.5-1.58,1.35-3.18,2.68-4.66,4.13-7.46,7.3-16.44,11.19-26.64,13.27-50.27,10.24-100.13,22.29-149.19,37.36A1735.63,1735.63,0,0,0,387.8,406.54a57,57,0,0,1-23.28,4.8q-34.75,0-69.49.07c-4.15,0-8.32.06-12.46.48-9,.9-14.46,6.23-15.77,15.29a77.31,77.31,0,0,0-.8,10.65c-.11,17.81-.1,35.62-.12,53.43q0,1.33.06,2.67c1.06,16.23,6.6,21.54,22.8,21.72,11,.11,22,.09,33,.17.12,0,.24.42.57,1C321.37,517.36,320.49,518,319.53,518.43Zm57.16,25.31q-14.24.25-28.47.29c-8,0-8-.07-6.66-10.88,5.66,8.62,13,7.14,19.94,7.37,6.36.22,12.8-.64,19.15.56C380.46,544.37,378.23,543.71,376.69,543.74ZM356.17,527a47.09,47.09,0,0,1,23.23,0ZM413.49,520c-.21,1.8-2.05,1.72-3.41,2-3.63.68-7.54-.15-10.84,2,11,1,11,1,12.27,6.51-7.34-1.72-14.23-4-21.49-4-1.83,0-2.4-1.28-2.19-3,.47-3.89,2.14-7.09,6.24-7.6A38.14,38.14,0,0,1,410.81,517C412.32,517.47,413.7,518.29,413.49,520ZM1503.75,539c-6.61,28.86-11.64,58-17.46,87.07-6.61,33-12,66.29-19.9,99.07a28.19,28.19,0,0,1-1.7,4c-1.84,10.29-5.69,19.92-10.37,29.16q-50.67,99.81-161.18,118.3c-30.93,5.15-61.52,1.81-91.59-6.78-50.86-14.52-102.5-25.26-155.08-31.12a676.39,676.39,0,0,0-78.21-4.39h-14.6c-12.17.1-24.33.74-36.49,1.28-57.45,2.57-113.77,12.19-169.47,26.1-18.4,4.6-36.29,11.39-55.13,14-88.1,12.15-158.21-18.23-210.63-89.8-3.12-4.26-6.4-8.53-8.29-13.59a89.28,89.28,0,0,1-13.87-28.78,37.13,37.13,0,0,1-3.92-12.22c-5.65-14.09-7.71-29.05-10.51-43.8-8-41.6-15.64-83.25-23.55-124.85-1.44-7.56-3.29-15-5.28-22.48a53,53,0,0,1-1.66-18.93c3.54,1.41,3.51,4.5,4,7.12,3.53,17.73,6.77,35.5,10.5,53.17,6.51,30.73,10.43,61.95,17.76,92.5,1.46,6.1,1.56,12.33,2.16,18.51,1.11,11.42,2.12,23,8.77,33a4.46,4.46,0,0,0,3.77-1.61,24.74,24.74,0,0,1-.06-3.33c.09-.9-.82-2.53.95-2.49a2.4,2.4,0,0,1,1.94,2.37c11.47,14.68,26.73,23.79,44,30,8.6,3.1,17.18,6.27,25.76,9.42a3.28,3.28,0,0,1,3.51,1.42A70.9,70.9,0,0,1,554,767a3.35,3.35,0,0,1,3.61,1.46c5.64,1,10.82,3.35,16,5.67a3.36,3.36,0,0,1,3.63,1.44L579,776a3.26,3.26,0,0,1,3.47,1.42,7.09,7.09,0,0,1,5.39,1.87c3.47,0,6.41,1.53,9.24,3.33,2.54-.06,4.7,1.06,6.84,2.24a3.32,3.32,0,0,1,3.62,1.41c16.85,4.68,33,11.29,49.46,17.14,30.13,10.7,60.12,21.81,90.15,32.78,6.76,2.46,6.74,2.51,6.25,9.94,1.48,1.53,3.39,1.1,5,.77,12.28-2.51,24.81-2.08,37.2-3.24,14.23-1.32,27.85-5.78,41.84-8.37,38.34-7.1,77-10.18,116-10.39l14,.3c12.17.12,24.37,0,36.51.81,37.92,2.53,75.6,6.94,112.56,16.28a60.47,60.47,0,0,0,19.37,1.88c7.18-.55,14.22.58,21.27,1.65,3.17.49,6.31,1,9.58.45-1.81-7.61-1.78-7.54,5.87-10.29q120-43.12,240-86.2c17.79-6.35,32.88-16.09,44.3-31.38,2.22,2.11,1.32,4.81,2.58,6.7,3.09.4,4.79-.59,5.67-4a137.09,137.09,0,0,0,3.78-18.2c1.9-16.16,5.41-32,8.08-48.05,6.88-41.15,14.64-82.14,23-123,.62-3.07.72-6.36,4.16-9.18A46.72,46.72,0,0,1,1503.75,539Zm28.4-14.1c-.85,2.07-2.82,1.77-4.54,1.83-6.83.22-13.4,1.31-19.17,5.83-.1-7.64-.1-7.64,12.88-8-5.48-4.33-11.63-.63-16.67-5,7.66-4.75,15.51-4.5,23.33-3.56C1530.64,516.39,1533.16,522.48,1532.15,524.94ZM1572,543.75q-12.9.27-25.8.39c-2.23,0-4.63.57-7.23-1.51,2.4-3,4.92-2,7.08-2.06,4.44-.18,8.9-.22,13.34-.07,6.85.25,13.53.09,18.82-5.92C1579.24,543.54,1579.24,543.59,1572,543.75Zm8.79-29.16a23.41,23.41,0,0,1-18.33,7.44c-7.09-.29-14.23.36-21.34.61.26,3.45,2.9,3.09,5.18,3.11,6.07.07,12.15,0,18.25.53-7.42,2-15,1.31-22.59,1.17-3.24-.06-1.66-3-1.91-4.81l-.76-.36.06-.83a8.89,8.89,0,0,1-.56-1.4c0-.2.21-.47.34-.71-2.39-8.15-8.41-11-16.27-11-8.12,0-16.1.36-22.12,7-1,1.07-2.29,2.32-3.82,1.43-5.85-3.37-5.73,1.67-6.35,4.71-1.54,7.54-4.32,15.33-3.61,22.73,1.79,18.51-6,35.18-8.25,52.88-3.68,29.09-9.78,57.8-15.66,86.52-5.73,28-21.69,47.55-48.59,57.83-1.34.51-2.68,1.36-5.19.45-.18-7.18-.35-14.73-.59-22.29-.11-3.56-.3-7.12-.62-10.66a2.41,2.41,0,0,0-2.29-2.28,2.61,2.61,0,0,0-3,2.53,43.08,43.08,0,0,0-.31,5.33c-.12,8-.19,16-.27,24-.09,7.41-.1,7.39-7.2,9.93q-70.73,25.21-141.44,50.47c-32.07,11.48-64.14,23-96.11,34.74-6.11,2.26-11.8,3.42-18.06,1a46.73,46.73,0,0,0-8.68-1.87c-1.74-.31-4.23-1-5.07.47-3.44,6.2-8.22,2.81-11.17.79-9.64-6.61-20.75-6.73-31.47-8.25-12.32-1.74-24.7-2.75-37-5.19-11.51-2.29-23.34-3.92-35.27-1.87a27.56,27.56,0,0,1-8.85-.45,224,224,0,0,0-33.71-2.7l-18,.19c-24.56,1.32-49.33,1.2-73.62,4.54-19.67,2.71-39.35,5.11-59,7.52-3.06.37-6.18.35-7.89,4.32-1.39,3.25-5.8,2.29-8.77,3.48-2.57,1-5.68,2.38-7-2.1-.32-1.07-2-.92-3.23-.78-1.77.22-3.65.14-5.28.73-10.46,3.82-20.06,1-30.07-2.53-77.38-27.19-154.29-55.65-231.48-83.35-4.68-1.68-6.86-3.59-6.56-8.73.51-8.56.42-17.16.58-25.75-2-1.84,1.4-6.91-3.47-6.71-5.21.21-2.69,4.82-3.42,7.57-.22.83-.35,1.7-.53,2.55v25.27c-7.71-.78-14-4-19.85-7.72-18.86-12-29.66-29.46-33.79-51.18-4.22-22.12-9-44.16-12.14-66.44A381.4,381.4,0,0,0,434,564.38c-.57-2-1.36-4.11-1.14-6.07,1.37-12.34-2.47-24.09-3.84-36.1-.44-3.85-.44-8.31-6.7-5.69-1.94.8-3-1.45-4.3-2.52-8.15-6.63-17.61-6.3-27.13-4.84a9.87,9.87,0,0,0-8.62,8c-.88,4.68-3.49,5.24-7.55,4.92a130.94,130.94,0,0,0-16.92-.34c-7,.36-13-1.56-17.79-6.49-5.2-5.36-11.43-6.91-18.58-6.8-11,.15-22,.06-33,0-12.2-.12-15.26-2.95-15.44-15.3-.24-15.72-.05-31.47.05-47.2,0-5.63-.47-11.28.55-16.88,1.22-6.79,2.8-8.69,9.56-9.55a116.51,116.51,0,0,1,14.23-.69c21.38-.1,42.76-.2,64.15-.06a76.28,76.28,0,0,0,33.5-7.39c13.41-6.26,27.33-11.43,41-17.07,1.86-.76,3.77-2.27,5.32.47,1.68,3,3.95,2,6,.67,7.86-5,16.74-7.43,25.48-10.24,3.07-1,5.69-1.77,7-5.68,1.46-4.26,10.4-6.5,14.64-4.07,3.58,2.05,6.25-.64,9.34-.87a23.86,23.86,0,0,0,5.12-1.48c2.49,2.63,1.53,5.75,1.65,8.54.27,6.52.13,13.06.28,19.59.06,2.55-.57,5.76,3.72,5.51,3.91-.22,2.58-3.1,2.62-5.27.14-8.31.54-16.63.32-24.92-.13-4.91,1-7.83,6.41-8.43,4.42-.5,8.3-1.15,8.76-7.63.28-3.93,6.45-3,9.61-5,2-1.29,3.82-.86,5.22,1.37,2.08,3.31,5.3,2.2,8.05,1.4,9.39-2.74,18.71-5.7,28-8.63,1.69-.52,4-1.35,3.49-3.34-1.52-6.4,3.81-5.48,6.86-6.49s6.7-3.56,9,1.6c.93,2.09,3,1,4.72.55,8-2.24,16-4.27,23.95-6.79a27,27,0,0,0,11.1-6.56c3.73-3.62,9.54-6.93,15.6-2.72,1.93,1.33,4,.81,6,.41q14-2.78,27.87-5.72c1.68-.36,4.07-.46,4.54-2.33,1.48-5.82,6.45-5.24,10.6-6.36,3.07-.82,5.75-1.75,6,3.12.09,1.82,2.12,1.56,3.61,1.36,10.87-1.51,21.76-2.88,32.6-4.57,2.4-.38,6-.69,5.4-4.5-.58-3.63-3.71-3.13-6.4-2.73-3.69.55-7.32,1.71-11.87,1.29,45.36-43.18,96.55-74.17,158.34-88.64.27,4.63.59,8.35.66,12.06.09,4.24,2.89,4.7,6.08,4.56s6.89.25,6.92-4.68c0-3.57.2-7.14.09-10.69-.09-2.85.88-4.12,3.88-4.68a259.54,259.54,0,0,1,40.66-4.47h13.53a287.61,287.61,0,0,1,38.06,3.81c4,.66,5.49,2.62,5.07,6.64a52.4,52.4,0,0,0,.29,8c.23,4.34,2.56,6.18,6.88,6.4s5.67-2,6-5.84c.31-3.49,1-7,1.6-11.17,61.63,14,112.62,46.09,158.22,88.23-1.72,2.12-3.65.18-5.42.08-3-.18-5.89-.8-8.84-.85a3.29,3.29,0,0,0-3.63,3.11c-.25,2.24.84,3.27,2.85,3.69.58.12,1.15.31,1.74.39,10.29,1.4,20.58,2.83,30.87,4.17,2,.26,4.58.86,5.14-1.87.81-3.95,2.77-3.66,5.72-2.53a48.39,48.39,0,0,0,6.91,1.56c1.46.33,3.64.66,3.73,2,.44,6.83,5.87,5.44,9.87,6.31,8.12,1.75,16.24,3.51,24.4,5,2.54.47,5.59,2.43,7.47-2,.72-1.73,11.65.93,13.34,3.92,2.58,4.59,6.85,5.38,11,6.56,8.27,2.32,16.76,3.84,24.82,7,1.3.5,3.26,1.54,3.65-.5,1.08-5.68,4.22-3.3,7.18-2.2,3.94,1.48,9.74.74,8.64,8-.21,1.37,2.25,1.74,3.57,2.17q14.8,4.81,29.66,9.37c1.62.5,3.27,1.05,5.11,0,7.81-4.57,13.06-3.21,16.14,4.66,1.54,4,4.74,3.95,7.76,4.85,7.13,2.14,7.16,2.14,7.25,9.54s0,14.85.24,22.26c.07,2.36-1.25,6,2.92,6.12,3.94.13,3.5-3.14,3.5-5.8V373.85c4.32-1.87,7.06.71,10,1.49s5.29,1.67,8.13-.8c2.11-1.85,12.22,1.45,13.76,4.88,2,4.55,5.81,5.57,9.65,7,8,2.92,16.77,4.07,23.75,9.63.83.66,2.47,1.45,3.2.24,3.06-5,6.31-2,9.69-.58,15.6,6.48,31.25,12.8,46.82,19.3a50.6,50.6,0,0,0,20,3.75q35.2,0,70.4.06c3.86,0,7.73,0,11.56.31,7.34.61,10.87,3.77,11,11.26q.4,33.86,0,67.69c-.11,7.37-3.06,10-10.7,10.18-13,.36-26.13.36-39.2.25C1590.53,508.41,1585.34,509.94,1580.78,514.59Zm138.43-56.35a55,55,0,0,1-3.34,19.19,108.85,108.85,0,0,0-7.27,45.35c.19,3.84.08,7.71,0,11.58-.12,9.56-3.86,17.67-11.86,22.7-16,10.12-32.53,19.54-48.87,29.19-2.35,1.39-5,1.58-7.75,1.51-5.94-.17-11.89-.42-17.81-.17-4.46.19-6.32-1-6.15-5.89.36-10.38.15-20.78.09-31.18-.11-19.34-2.11-23.22-18.67-34.88,13,0,24.22.13,35.47,0,14.58-.22,20.67-6.06,20.85-20.57.27-21.07.25-42.16.07-63.24-.12-13-5.91-19.1-18.93-19.88a545.54,545.54,0,0,0-57.9-.29c-21.79,1-41.83-3.13-62-12-54.57-23.95-110.7-44-167.75-61.26a1458.36,1458.36,0,0,0-148.5-36.6c-9.2-1.76-16.53-6.07-23.23-12.18a350,350,0,0,0-91.09-59.89c-17-7.79-34.76-13.56-52.81-18.42-1.72-.46-3.48-.78-5.16-1.33-3.13-1-2.48-3.6-2.25-5.93.31-3.18,2.53-2.67,4.62-2.29a201.3,201.3,0,0,1,35,9.91c41,15.48,78,37.51,109.86,67.65,10.62,10.06,22.46,15.73,36.6,18.44a1651.32,1651.32,0,0,1,229.32,60.89c12,4.17,24.09,8.34,36,13a99.79,99.79,0,0,0,37.41,6.64c37.13-.16,74.26,0,111.38,0,8.38,0,16.53.57,24.32,4.15,5.22,2.38,11,2.46,16.6,2.49,15.16.08,30.3,0,45.45.18,8.63.08,8.83.22,8.81,9.07Q1719.64,426.18,1719.21,458.24Z"/><path class="cls-2" d="M1646.72,430.35c-.1-7.49-3.63-10.65-11-11.26-3.83-.31-7.7-.3-11.56-.31q-35.2-.07-70.4-.06a50.6,50.6,0,0,1-20-3.75c-15.57-6.5-31.22-12.82-46.82-19.3-3.38-1.4-6.63-4.41-9.69.58-.73,1.21-2.37.42-3.2-.24-7-5.56-15.72-6.71-23.75-9.63-3.84-1.39-7.61-2.41-9.65-7-1.54-3.43-11.65-6.73-13.76-4.88-2.84,2.47-5.15,1.56-8.13.8s-5.72-3.36-10-1.49v26.36c0,2.66.44,5.93-3.5,5.8-4.17-.12-2.85-3.76-2.92-6.12-.21-7.41-.15-14.84-.24-22.26s-.12-7.4-7.25-9.54c-3-.9-6.22-.88-7.76-4.85-3.08-7.87-8.33-9.23-16.14-4.66-1.84,1.09-3.49.54-5.11,0q-14.87-4.56-29.66-9.37c-1.32-.43-3.78-.8-3.57-2.17,1.1-7.23-4.7-6.49-8.64-8-3-1.1-6.1-3.48-7.18,2.2-.39,2-2.35,1-3.65.5-8.06-3.12-16.55-4.64-24.82-7-4.19-1.18-8.46-2-11-6.56-1.69-3-12.62-5.65-13.34-3.92-1.88,4.44-4.93,2.48-7.47,2-8.16-1.47-16.28-3.23-24.4-5-4-.87-9.43.52-9.87-6.31-.09-1.35-2.27-1.68-3.73-2a48.39,48.39,0,0,1-6.91-1.56c-2.95-1.13-4.91-1.42-5.72,2.53-.56,2.73-3.18,2.13-5.14,1.87-10.29-1.34-20.58-2.77-30.87-4.17-.59-.08-1.16-.27-1.74-.39-2-.42-3.1-1.45-2.85-3.69a3.29,3.29,0,0,1,3.63-3.11c2.95.05,5.88.67,8.84.85,1.77.1,3.7,2,5.42-.08-45.6-42.14-96.59-74.21-158.22-88.23-.62,4.22-1.29,7.68-1.6,11.17-.33,3.81-1.6,6-6,5.84s-6.65-2.06-6.88-6.4a52.4,52.4,0,0,1-.29-8c.42-4-1-6-5.07-6.64a287.61,287.61,0,0,0-38.06-3.81H953.52a259.54,259.54,0,0,0-40.66,4.47c-3,.56-4,1.83-3.88,4.68.11,3.55-.07,7.12-.09,10.69,0,4.93-3.7,4.56-6.92,4.68s-6-.32-6.08-4.56c-.07-3.71-.39-7.43-.66-12.06-61.79,14.47-113,45.46-158.34,88.64,4.55.42,8.18-.74,11.87-1.29,2.69-.4,5.82-.9,6.4,2.73.61,3.81-3,4.12-5.4,4.5-10.84,1.69-21.73,3.06-32.6,4.57-1.49.2-3.52.46-3.61-1.36-.25-4.87-2.93-3.94-6-3.12-4.15,1.12-9.12.54-10.6,6.36-.47,1.87-2.86,2-4.54,2.33q-13.92,3-27.87,5.72c-2,.4-4.11.92-6-.41-6.06-4.21-11.87-.9-15.6,2.72a27,27,0,0,1-11.1,6.56c-7.9,2.52-16,4.55-23.95,6.79-1.67.47-3.79,1.54-4.72-.55-2.32-5.16-6-2.6-9-1.6s-8.38.09-6.86,6.49c.48,2-1.8,2.82-3.49,3.34-9.33,2.93-18.65,5.89-28,8.63-2.75.8-6,1.91-8.05-1.4-1.4-2.23-3.22-2.66-5.22-1.37-3.16,2-9.33,1.09-9.61,5-.46,6.48-4.34,7.13-8.76,7.63-5.37.6-6.54,3.52-6.41,8.43.22,8.29-.18,16.61-.32,24.92,0,2.17,1.29,5.05-2.62,5.27-4.29.25-3.66-3-3.72-5.51-.15-6.53,0-13.07-.28-19.59-.12-2.79.84-5.91-1.65-8.54a23.86,23.86,0,0,1-5.12,1.48c-3.09.23-5.76,2.92-9.34.87-4.24-2.43-13.18-.19-14.64,4.07-1.35,3.91-4,4.7-7,5.68-8.74,2.81-17.62,5.23-25.48,10.24-2.08,1.33-4.35,2.34-6-.67-1.55-2.74-3.46-1.23-5.32-.47-13.69,5.64-27.61,10.81-41,17.07a76.28,76.28,0,0,1-33.5,7.39c-21.39-.14-42.77,0-64.15.06a116.51,116.51,0,0,0-14.23.69c-6.76.86-8.34,2.76-9.56,9.55-1,5.6-.52,11.25-.55,16.88-.1,15.73-.29,31.48-.05,47.2.18,12.35,3.24,15.18,15.44,15.3,11,.1,22,.19,33,0,7.15-.11,13.38,1.44,18.58,6.8,4.77,4.93,10.83,6.85,17.79,6.49a130.94,130.94,0,0,1,16.92.34c4.06.32,6.67-.24,7.55-4.92a9.87,9.87,0,0,1,8.62-8c9.52-1.46,19-1.79,27.13,4.84,1.32,1.07,2.36,3.32,4.3,2.52,6.26-2.62,6.26,1.84,6.7,5.69,1.37,12,5.21,23.76,3.84,36.1-.22,2,.57,4.09,1.14,6.07a381.4,381.4,0,0,1,10.55,52.17c3.1,22.28,7.92,44.32,12.14,66.44,4.13,21.72,14.93,39.19,33.79,51.18,5.88,3.75,12.14,6.94,19.85,7.72V716.62c.18-.85.31-1.72.53-2.55.73-2.75-1.79-7.36,3.42-7.57,4.87-.2,1.45,4.87,3.47,6.71-.16,8.59-.07,17.19-.58,25.75-.3,5.14,1.88,7,6.56,8.73,77.19,27.7,154.1,56.16,231.48,83.35,10,3.52,19.61,6.35,30.07,2.53,1.63-.59,3.51-.51,5.28-.73,1.19-.14,2.91-.29,3.23.78,1.34,4.48,4.45,3.12,7,2.1,3-1.19,7.38-.23,8.77-3.48,1.71-4,4.83-4,7.89-4.32,19.7-2.41,39.38-4.81,59-7.52,24.29-3.34,49.06-3.22,73.62-4.54l18-.19a224,224,0,0,1,33.71,2.7,27.56,27.56,0,0,0,8.85.45c11.93-2.05,23.76-.42,35.27,1.87,12.28,2.44,24.66,3.45,37,5.19,10.72,1.52,21.83,1.64,31.47,8.25,3,2,7.73,5.41,11.17-.79.84-1.5,3.33-.78,5.07-.47a46.73,46.73,0,0,1,8.68,1.87c6.26,2.38,12,1.22,18.06-1,32-11.77,64-23.26,96.11-34.74q70.7-25.31,141.44-50.47c7.1-2.54,7.11-2.52,7.2-9.93.08-8,.15-16,.27-24a43.08,43.08,0,0,1,.31-5.33,2.61,2.61,0,0,1,3-2.53,2.41,2.41,0,0,1,2.29,2.28c.32,3.54.51,7.1.62,10.66.24,7.56.41,15.11.59,22.29,2.51.91,3.85.06,5.19-.45,26.9-10.28,42.86-29.86,48.59-57.83,5.88-28.72,12-57.43,15.66-86.52,2.24-17.7,10-34.37,8.25-52.88-.71-7.4,2.07-15.19,3.61-22.73.62-3,.5-8.08,6.35-4.71,1.53.89,2.85-.36,3.82-1.43,6-6.65,14-7.05,22.12-7,7.86,0,13.88,2.86,16.27,11-.13.24-.38.51-.34.71a8.89,8.89,0,0,0,.56,1.4l-.06.83.76.36c.25,1.79-1.33,4.75,1.91,4.81,7.54.14,15.17.81,22.59-1.17-6.1-.51-12.18-.46-18.25-.53-2.28,0-4.92.34-5.18-3.11,7.11-.25,14.25-.9,21.34-.61a23.41,23.41,0,0,0,18.33-7.44c4.56-4.65,9.75-6.18,16-6.12,13.07.11,26.15.11,39.2-.25,7.64-.2,10.59-2.81,10.7-10.18Q1647.13,464.2,1646.72,430.35ZM422.33,500.23c-3.06.51-4.05-1.76-4.44-4.27-1.59-10.15-3.14-20.32-4.71-30.47l.21,0c0-.59-.05-1.18-.12-1.76-.28-2.44.72-4.07,3.17-4.41s2.91,1.6,3.37,3.25a47.23,47.23,0,0,1,.9,5.21c1.45,9,2.94,18,4.37,27C425.47,497.17,425.45,499.71,422.33,500.23Zm6.42-88.37c-5.4,9-8.57,18.8-11,28.91-.49,2-1.41,4.13-4.24,3.27-2.24-.69-1.94-2.67-2-5,1.61-10,4.17-20.31,9.77-29.62a6.23,6.23,0,0,1,1.11-1.39c2-1.75,4.15-4.31,6.82-2.56S429.79,410.11,428.75,411.86ZM511.14,424c0-2.26,1.25-3.07,3.37-3,2.51.11,2.58,1.89,2.59,3.7,0,5.92,0,11.83,0,17.74h.4c0,5.63-.07,11.24,0,16.85,0,2-.26,3.65-2.54,3.8s-4-1-4-3.61Q511.08,441.77,511.14,424Zm3.62,266.26c-2.57.14-3.69-1-3.69-3.61,0-11.21-.08-22.41-.08-33.61,0-1.91.66-3.42,3-3.44s2.94,1.6,3,3.45c.07,5.9,0,11.79,0,17.69h.19c0,5.3-.09,10.6,0,15.91C517.3,688.68,517.18,690.14,514.76,690.28Zm2.16-94.34c.07,5.88,0,11.77,0,17.65h.27c0,5.59,0,11.18,0,16.76,0,1.95-.22,3.61-2.56,3.76-2.61.18-3.67-1.19-3.64-3.75.1-11.47.13-22.94.2-34.41,0-2.29.62-4.17,3.42-4C517.18,592.19,516.9,594.28,516.92,595.94Zm27.9-71.74c-1.06,12.63-9.12,22.16-21.54,25.1-4.37,1-5.93,2.55-5.77,7,.27,7.09,0,14.2-.1,21.29-3.74.64-6.23-.56-6.76-4.61.09-5.62.08-11.24.3-16.85.15-3.49-1.27-5.32-4.64-6.41-15.76-5.1-22-16.78-22-32.6,0-5.91-.12-11.79,1.7-17.57,4.35-13.84,17-22.6,31.07-21.24,15.28,1.48,26.33,11.72,27.74,26.42A109.48,109.48,0,0,1,544.82,524.2ZM1110,298.93c.34-3.87,3.29-2.27,5.7-2.55l31.09,4.65c2.16.33,4.33.83,3.74,3.68-.55,2.65-2.86,2.67-5,2.42-10.8-1.28-21.58-2.68-32.38-3.95C1110.44,302.86,1109.76,301.25,1110,298.93Zm-53.35-2.67c4.83-3.53,10.41-3.7,16.07-3.69,5.56.59,11.11,1.22,16.68,1.75,2.3.23,4.14.89,3.85,3.63-.23,2.19-2,2.76-3.85,2.78a50.8,50.8,0,0,1-6.17-.32c-8.22-.92-16.39-1.5-24.33,1.68-1.89.74-4.35,1.58-5.28-1C1052.76,298.74,1055,297.47,1056.61,296.26Zm-20.31,20.28c.82-2.72,1.71-5.11,5.32-4.81,2.24.38,2.79,2,2.08,3.91-3.39,9.1-2.84,18.59-3,28a25,25,0,0,1-.6,5.26,3.31,3.31,0,0,1-3.95,2.7c-1.74-.27-2.16-1.88-2.14-3.39C1034.14,337.63,1033.12,326.94,1036.3,316.54Zm-156.94-5.39a12.48,12.48,0,0,1,5.72,8.6c1.74,9,2.86,18.09,1.08,27.25-.43,2.22-.25,5.36-3.6,5-2.77-.29-2.14-3.1-2.19-5.05-.23-10.61.34-21.28-3.26-31.55C876.62,314,877.15,312.47,879.36,311.15ZM831.23,294c7.08-.17,14.06-1.81,21.2-1.33a26.31,26.31,0,0,1,13.23,4.46,3.49,3.49,0,0,1,1.69,3.79c-.55,1.92-2.1,1.66-5.4.94-8.79-4.41-19.68-1.55-30.5-.93-2,.12-5.33,1.27-5.49-2.33C825.81,295.51,828.12,294.1,831.23,294Zm-59.14,7.2c3.78-.71,7.58-1.29,11.39-1.85,7.31-1.09,14.63-2.17,22-3.13,2-.26,4.34-.64,5,2.2.82,3.43-1.86,4-4.13,4.45a278,278,0,0,1-30.72,4.45c-.34,0-1.52,0-2.7,0-1.52,0-3-.14-3.28-2.1S769.94,301.62,772.09,301.22Zm442.26,235.19c-.59,5.87-.92,11.81-2.36,17.61-.72,2.85-2,4.07-4.77,4.05s-5.93.09-8.91.09c-23.16.06-46.32.24-69.47.05-4.63,0-6.88,1.29-8,5.82-1.63,6.6-3.88,13.06-5.88,19.57-4.53,14.76-13.52,24.14-29.83,24.68l-249.44-.46c-15.28-.14-23.58-6.22-28.74-20.51-2.71-7.52-5.77-15-7.54-22.74-1.32-5.78-4.32-6.52-9.32-6.49-26.42.2-52.83.14-79.24.16-5.13-4.87-4.31-11.67-4.77-17.58-1.53-19.83-1.71-39.73,1.14-59.52,1.21-8.43,1.17-8.57,10-8.6,25.24-.1,50.48-.21,75.71,0,4.93,0,7.43-1.08,8.94-6.09,5.08-16.88,16.38-27,34-29.72a87,87,0,0,0,9.54-2.13c13.51-3.63,23-11.93,28.23-24.9,4-9.87,7.5-20,12-29.61,1.8-3.86-1.4-7.4.19-10,1.44-2.36,5.42-2.85,6.33-6.59a59.39,59.39,0,0,1,3.72-10c2-4.5,3.28-8.36-.54-13.1-2.43-3-2.4-7.81-2.4-12,0-22,0-43.92.12-65.89a32.45,32.45,0,0,1,1.35-8.75c2.12-7.29,6.57-10.71,14.24-10.81,14.54-.21,29.09-.15,43.64-.3h16.27c11.58.06,23.16,0,34.74,0,3,0,5.95,0,8.9.25,8.76.73,14.31,6.19,14.37,15,.16,24.93,0,49.88,0,74.81,0,3,.15,6.52-1.91,8.52-3.85,3.73-2.6,7.05-.79,11,1.73,3.75,2.9,7.76,4.33,11.65.41,1.1.76,3.06,1.34,3.14,7.52,1.05,5.33,5.69,4.46,10.41-.38,2,1,4.62,2.08,6.67,4.06,7.62,6.9,15.7,9.77,23.8,5.52,15.54,16.08,25.24,32.7,27.81,2.34.36,4.64,1,7,1.39,16,2.91,26.82,11.76,32,27.34,2.59,7.79,2.65,7.78,11.15,7.81,24.65.07,49.29.11,73.94.26,8,.05,8.16.14,9.72,8.09C1216,499.08,1216.23,517.73,1214.35,536.41ZM1402.4,442h.19c0-5.91,0-11.81,0-17.72,0-1.55.38-2.88,2.34-3,2.19-.16,3.24.81,3.28,3q.24,17.68.53,35.4a2.52,2.52,0,0,1-2.7,2.77c-1.9.1-3.61-.37-3.64-2.74C1402.36,453.84,1402.4,447.93,1402.4,442Zm1.78,248.14a6.92,6.92,0,0,1-2.43-3.92c.16-10.36.23-20.7.51-31,.07-2.26-1.42-5.86,3.17-5.75,3.66.09,3.1,3,3.12,5.2.08,10.66-.11,21.32.17,32C1408.83,690.54,1406.42,689.94,1404.18,690.17Zm.54-56.91c-2.65-.11-2.38-2.11-2.4-3.83,0-5.33,0-10.67,0-16h.28c0-5.94,0-11.87,0-17.8,0-2,.8-3.39,3.13-3.28,1.89.1,2.5,1.32,2.53,2.92.19,11.56.35,23.14.55,34.71C1408.85,632.83,1407.05,633.36,1404.72,633.26ZM1434.19,530c-2.49,10.09-9.54,16.42-19.31,18.92-4.81,1.24-6.13,3.31-6,7.79.11,5.3-.62,10.62.37,15.92-.74,2.12-.94,4.71-4.35,4.18-3-.47-2.5-2.66-2.57-4.66a24.71,24.71,0,0,0-.32-2.57c.12-1.77.11-3.55.35-5.3,1.15-8.28-.07-14-10.06-16.64-9.56-2.49-14.44-11.08-16.22-20.57a68.5,68.5,0,0,1-.28-24.77c2.54-13.95,14.54-23.82,29-24.14,14.81-.32,27.19,9.37,30.18,23.67A62.74,62.74,0,0,1,1434.19,530Zm72-68.57c-1.51,11.69-3,23.37-4.68,35-.25,1.8-.63,4.47-3.71,3.79-2.43-.54-3.15-2.41-3.12-4.69,0-1.18,0-2.35,0-3,1.51-9.89,2.9-19.2,4.38-28.5.28-1.74.71-3.61,2.27-4.62a5.74,5.74,0,0,1,3.31-.66C1506.15,458.91,1506.33,460.25,1506.19,461.43Zm1.48-21.07c-.26,1.92-1.15,3.38-3.29,3.42-1.83,0-2.39-1.37-2.73-2.87a21,21,0,0,1-.69-3.46c-.41-7.3-3.69-13.55-7.09-19.77a72.47,72.47,0,0,1-3.79-7c-.76-1.88-1.22-4.2,1.34-5.3,2-.85,4-1.07,5.52,1.06a69,69,0,0,1,3.87,5.91c4.29,7.89,6.15,16.47,7.06,24.54C1507.78,438.6,1507.79,439.49,1507.67,440.36Z"/><path class="cls-1" d="M1212.33,480.59c-1.56-7.95-1.73-8-9.72-8.09-24.65-.15-49.29-.19-73.94-.26-8.5,0-8.56,0-11.15-7.81-5.17-15.58-16-24.43-32-27.34-2.34-.42-4.64-1-7-1.39-16.62-2.57-27.18-12.27-32.7-27.81-2.87-8.1-5.71-16.18-9.77-23.8-1.09-2-2.46-4.63-2.08-6.67.87-4.72,3.06-9.36-4.46-10.41-.58-.08-.93-2-1.34-3.14-1.43-3.89-2.6-7.9-4.33-11.65-1.81-3.92-3.06-7.24.79-11,2.06-2,1.9-5.54,1.91-8.52,0-24.93.18-49.88,0-74.81-.06-8.76-5.61-14.22-14.37-15-3-.25-5.93-.25-8.9-.25-11.58,0-23.16,0-34.74,0H952.31c-14.55.15-29.1.09-43.64.3-7.67.1-12.12,3.52-14.24,10.81a32.45,32.45,0,0,0-1.35,8.75c-.13,22-.09,43.93-.12,65.89,0,4.2,0,9,2.4,12,3.82,4.74,2.55,8.6.54,13.1a59.39,59.39,0,0,0-3.72,10c-.91,3.74-4.89,4.23-6.33,6.59-1.59,2.61,1.61,6.15-.19,10-4.49,9.63-8,19.74-12,29.61-5.26,13-14.72,21.27-28.23,24.9a87,87,0,0,1-9.54,2.13c-17.67,2.71-29,12.84-34,29.72-1.51,5-4,6.13-8.94,6.09-25.23-.25-50.47-.14-75.71,0-8.82,0-8.78.17-10,8.6-2.85,19.79-2.67,39.69-1.14,59.52.46,5.91-.36,12.71,4.77,17.58,26.41,0,52.82,0,79.24-.16,5,0,8,.71,9.32,6.49,1.77,7.75,4.83,15.22,7.54,22.74,5.16,14.29,13.46,20.37,28.74,20.51l249.44.46c16.31-.54,25.3-9.92,29.83-24.68,2-6.51,4.25-13,5.88-19.57,1.13-4.53,3.38-5.86,8-5.82,23.15.19,46.31,0,69.47-.05,3,0,6-.12,8.91-.09s4-1.2,4.77-4.05c1.44-5.8,1.77-11.74,2.36-17.61C1216.23,517.73,1216,499.08,1212.33,480.59Zm-100.25-1.79c-5.44-9.72-6.55-19-12.23-27.08C1107.83,456.39,1112.57,466.4,1112.08,478.8Zm-83-92.7c1,2.76,3.35,5.06,1.56,6.92s-4.69,1.43-7.49-.35C1024.1,389.81,1026.06,388,1029.08,386.1Zm-16.63-93.21c.11-5.63.63-6,6.75-8.73v53.28c-5.45-5.85-6.15-12.07-6.55-18C1012.06,310.64,1012.27,301.75,1012.45,292.89Zm-11.61,29a12.31,12.31,0,0,1-2.55-10.9c.92.86,1.82,1.33,2.13,2,3.29,7.77,6.47,15.58,10.17,24.53-4.31-1.33-6.58-4.65-10.77-4.18C1004.81,329.5,1003.89,325.88,1000.84,321.89Zm.31-32.67c1.74-.3,3.8-.36,3.91,2,.14,3.27,1.22,6.64-.45,11.41-2.06-4.39-3.47-7.22-4.71-10.14C999.34,291.2,999.05,289.59,1001.15,289.22ZM910.9,251.76c3-4.95,10.85-1.85,16.52-1.91,25.21-.27,50.43-.18,75.64,0,7.38,0,7.16-1,7.08,7.29,0,3.26,0,6.53-.15,9.78-.35,6.49-1.38,7.48-8,8-3.2.25-6.63-.75-9.57,1.1-3.35,2.1-6.14,5-6.78,9s-2.85,4.35-6.2,4.4c-17.17.24-17.08.32-17.21-16.89,0-6.25.74-12.62-1.81-18.75-2.26,8.2-1.49,16.43-1.69,24.6-.28,11.89,1.23,10.42-10.36,10.74-4.13.11-8.27,0-12.31,0-1-2.42-1.77-4.66-2.79-6.78-2.22-4.62-5.57-7.57-11.11-7.27a54.32,54.32,0,0,1-6.22-.31c-3.48-.18-5.42-1.7-5.38-5.51C910.64,263.27,908.3,256.05,910.9,251.76ZM962.34,300c0-3,1.11-4.4,4.12-4.19a5.29,5.29,0,0,0,.89,0c17.12-.83,17.12-.83,16.86,15.71,0,1.48-.06,3-.07,4.44-.1,13.4-.1,13.4,12,18.38-1.15,6.77-5.26,8-11,7.45-6.17-.54-12.42-.31-18.63-.3-3,0-4.21-1.21-4.18-4.22Q962.44,318.65,962.34,300Zm-27.22.57c-.07-2.86.71-4,3.84-4.38,19.74-2.38,19.74-2.48,19.77,17.41,0,7.68-.22,15.36,0,23,.11,4-1.54,5.09-5.21,5-5.91-.18-11.82,0-17.73,0-5.43,0-11.06.45-11.63-7.53,10.52-4,10.79-4.38,10.93-15.84C935.19,312.4,935.26,306.5,935.12,300.6Zm-14.9-7.86c-1.36,2.81-2.74,5.64-4.11,8.46l-1.38-.07c0-3.35-.24-6.73.08-10.05.2-2.05,2-2.58,4-2.18C921.24,289.42,921.1,290.94,920.22,292.74Zm-3.15,40.16c-.1,2.25-2.83,4.15-7.24,4.08,3.62-8.61,6.84-16.29,10.06-24C921.41,320.2,917.38,326.16,917.07,332.9Zm-15.7-49.13c2-.63,3.17.92,4.38,2.23,1.54,1.67,1.78,3.68,1.76,5.79-.17,10.66-.2,21.34-.57,32-.16,4.46-1.88,8.59-4.6,12.73-2.22-1.75-2.08-3.66-2.09-5.38q-.19-21.79-.19-43.59C900.06,286.21,899.49,284.36,901.37,283.77Zm-3.51,83.65c3.08-5.9,5-12.39,7.5-18.61l1.33.4c.69,5.28,1.25,10.57,2.1,15.82a58.92,58.92,0,0,0,2.35,9.46c.77,2.21,2.09,4.69,5.1,3.78,2.54-.77,2-3.26,1.92-5.27-.07-1.4-.37-2.77-.78-5.7,3.43,4.3,5.87,7.48,8.44,10.53s4.92,5.11,8.84,1.71,4.65-5.2,1.69-9.61a45.62,45.62,0,0,1-6.64-14.43c-1.63-6.47-1.67-6.7,4.72-6.75,19-.13,38,0,57.41,0-1.86,6.93-3.18,13.84-7.08,19.93a19.56,19.56,0,0,0-2.17,4.85c-.92,3.1,1.2,4.94,3.21,6.73,2.23,2,4.39,1.13,6.47-.3,5.13-3.56,6.51-9.69,10.23-15.15,1.27,3.3-.26,5.83-.55,8.4-.24,2.17.14,4.6,2.34,5.21s2.61-2,3.31-3.47a43.62,43.62,0,0,0,4.15-18c0-2.81-.68-5.78.82-8.38,2.94-.35,2.8,1.89,3.39,3.41,2.68,6.89,5.27,13.83,8,20.68,1.24,3,1.26,5.68-.9,8.28a23.29,23.29,0,0,0-2.47,3.69c-5.87,10.89-13.07,12.4-28.19,7-3.15-1.11-5.32-2.13-7.67.9-.93,1.2-2.49,1.49-4,1.66-3,.34-4.77-.43-3.8-3.88a24.92,24.92,0,0,0,1.11-3.36c.73-5.8-1.86-8.55-7.55-7.29-6.81,1.5-13.47,1.81-20.19-.07-2.56-.72-5.11-1.89-7.14,1.12s-3.58,6.21-.69,9.69a32,32,0,0,1,2.14,3.5c-4.34,1.35-7.5-1-10.81-2.34-2.76-1.11-4.85-1.94-8,.47-6.06,4.66-18.2,2.44-23.11-3.4-1-1.13-1.7-2.44-2.7-3.53C895.15,379.68,894.36,374.14,897.86,367.42Zm75.2,90.33c-2.17-.31-3.59-.5-5-.73-5.2-.84-7.24-4.17-5.69-9.09.89-2.84,3.18-2,5.09-2,2.24.06,5-.56,5.53,2.86a11.6,11.6,0,0,1,.06,1.77C973.06,452.62,973.06,454.67,973.06,457.75Zm-10.8,103.44c-.14-3.55-.08-7.1,0-10.64.14-6.53.16-6.54,6.94-6.74.87,0,1.75.11,3.71.24,0,6.28.12,11.85,0,17.42-.11,3.52-2.82,5-7.68,4.82C961.32,566.15,962.34,563.3,962.26,561.19Zm6.57,11.56c29.13-4.49,50.09-28.34,49.9-57.82-.17-24-11.29-41.85-32.88-52.76-7.79-3.95-7.89-3.77-6.65-13.66,34.78,10.87,49.18,37.65,50.22,65.53,1.26,33.72-25.77,64.64-59.46,69.1-2.59.35-6.79,3.07-7.67-2.48S962.62,573.71,968.83,572.75Zm42.85-63.39c3.49,21.58-11.21,45.58-33.12,53.17,0-4.3.07-7.81,0-11.31-.11-4.41-.11-8.38,6.28-7.82,2.93.26,3.83-2.18,3.83-4.86q0-24,0-48c0-2.58-1.15-4-3.68-3.75-6,.59-7.12-2.66-6.45-7.62a6.77,6.77,0,0,0-.43-2.62,2.46,2.46,0,0,0-2.6-1.91,2.36,2.36,0,0,0-2.38,2.15c-.14.88-.1,1.77-.17,2.66-.61,7.62-3.53,9.5-10.4,5.7-2.59-1.43-3.14-1.06-5.45.4-5.25,3.29-8.67,1.1-9.23-5-.12-1.17-.06-2.37-.2-3.54a2.09,2.09,0,0,0-2.39-2,2.65,2.65,0,0,0-2.65,1.91,4.35,4.35,0,0,0-.29,1.73c.74,5.77-1,9.07-7.58,8-2.15-.34-3.17,1.05-3.16,3.18,0,.59,0,1.19,0,1.78-.07,15.13-.07,30.25-.23,45.38,0,4.09.59,7.27,5.72,6.66,4.67-.55,5.4,2,5.19,5.9-.22,4.33,0,8.69,0,14.28-18.92-8.13-29.79-21.24-33.23-39.92-5.26-28.45,15-56.28,43.09-60.54,4.89-.74,7.23.12,7.37,5.22,0,.38.82.75,1.53,1.37,2.23-1.55.25-5.29,3-6.39s5.31-.07,7.82.65C994.66,470.82,1007.92,486,1011.68,509.36Zm-53,45.48c0,2.06.08,4.11,0,6.16-.1,2.51.74,5.53-3.66,5.37-5.13-.2-6.51-1.07-6.74-5.77-.18-4.11.1-8.22-.06-12.32-.14-3.48,1.36-4.5,4.71-4.59,3.78-.11,6.42.2,5.8,5A48.66,48.66,0,0,0,958.67,554.84ZM951.94,573c2.63.32,6.19-1.11,6.74,3.63.7,6.1-.29,7.33-6.47,6.84-28.45-2.27-52.77-24.45-59.71-53.07-9.34-38.49,17.3-74.31,49.61-82.47.26,2.61.3,4.7.7,6.71.6,2.91-.68,4.4-3.24,5.38a75.3,75.3,0,0,0-7.3,3.23,58.6,58.6,0,0,0-30.34,61.18C906.41,550.33,926.47,569.77,951.94,573Zm6.75-141.67c-.68,2.87,2.13,7.73-4.6,7.84-5.62.09-5.8.29-5.86-5.54,0-2,.11-4.1.19-6.14.13-3.36.22-6.12,5.2-6,4.76.11,5.29,2.39,5.08,6C958.63,428.7,958.69,429.88,958.69,431.35ZM958,446.21c1.31,10.45,1.31,10.45-9.49,10.79C946.47,445.19,949.87,445,958,446.21Zm14.44-6.51c-10.84-.87-10.84-.87-10.21-11.87.33-5.73.33-5.73,10.1-5.43A64.64,64.64,0,0,1,972.47,439.7Zm-80.89-53.63c3.26,1,3.3,4.15,4.94,7.06-2.94,1.29-5.79,2.17-7.06.16C888,391,890.12,388.45,891.58,386.07ZM819,451.84c-3.14,8.09-6.12,16.31-10.85,23.71C808.21,466,811.93,458.19,819,451.84Zm-12.3,102.28c4.4,13,8.8,25.93,13.61,40C814,587.66,805,562.79,806.72,554.12Zm135,44.76c-1.6,2.49-4.22,1.69-6.5,1.7q-24,.06-48.08,0v-.36c-15.44,0-30.88-.36-46.3.13-10.56.33-16.6-4.17-19.61-14.07-2.93-9.63-6.44-19.07-9.73-28.59-2.33-6.7-2.35-6.68-9.2-6.65l-77.46.32c-1.78,0-3.57-.11-5.34,0-3.56.25-5.07-1-5.65-4.85a196.94,196.94,0,0,1-1.7-31.06c.12-10.36,0-20.74,1.64-31.06.56-3.61,1.62-5.1,5.43-5,7.41.22,14.83,0,22.25,0q31.17,0,62.33.08c8.11,0,8.12,0,11.11-8,2.5-6.68,5.26-13.19,9.67-18.9,3.58-4.63,7.75-7.88,13.77-8.93,5.8-1,11.65-2.14,17.09-4.71,12.45-5.88,20.65-15.5,25.7-28.17,3.94-9.88,4.12-9.78,14.43-9.67,7.71.09,15.48.68,23.13,0,12.81-1.1,24.47,3.93,36.73,5.7,3.64.54,2.86,3.06,3,5.3.14,2.81-1.42,3.45-3.94,3.26a100.65,100.65,0,0,1-24.34-4.9c-2.06-.69-5.13-3.73-6.6.62-1.3,3.86,1.76,5.2,4.7,6.17a96.63,96.63,0,0,0,10.23,3c2.93.61,4,2.14,3.65,4.93a13.22,13.22,0,0,0,0,1.78c.34,12.6.34,12.6-11.49,17.5a76.78,76.78,0,0,0-47,72.25c.53,27.5,17.82,58,48.82,69.08,2,.7,3.86,1.5,5.77,2.29C941.68,589.62,943.75,595.73,941.74,598.88Zm12.6,1.59c-5.51,0-6.28-.81-6.27-5.27,0-3.47,1.42-4.51,4.89-4.45,4,.07,5.92,1,6,5.5C959,600.24,957.09,600.7,954.34,600.47Zm4.44-86.37c0,5.63.07,11.27,0,16.91,0,2.57.58,5.82-3.56,5.69-3.2-.11-7.54,1.76-8.23-3.93-.09-.77-.85-1.47-1.29-2.19-2.43.22-2.53,2.15-3.11,3.7s-1.31,2.73-3.16,2.24c-1.45-.38-1.47-1.74-1.47-2.86q.13-18.69.38-37.37c0-1.33-.11-3.24,2-3.22s2,1.88,2,3.27c.13,5.33.13,10.67.19,16,0,1.89.45,3.85,2.71,3.72s2.64-2,2.67-4c.06-4.45.23-8.9.19-13.35,0-3.26.26-5.76,4.59-5.91,3.64-.12,6.61-.23,6.29,4.68,0,.41.52.87.82,1.32,2.55-.28,1.6-2.75,2.55-4,2.19-2.86,5.48-2.27,8.22-1.93,3.42.41,2,3.77,2.17,5.84.37,4.42.27,8.89.44,13.33.07,2,.86,3.47,3.19,3.23,2.06-.22,1.95-1.92,2-3.33.1-5.05.11-10.09.14-15.14,0-1.43.22-2.76,2.49-5.35v44.41c-2,.49-2.3-1-2.79-2.42-1.07-3.09-3-2.76-4.35-.49s-2.54,3.68-5.32,3.93c-5.18.46-6.13-.18-6.35-5.51-.3-7,.52-14.08-.73-21C958.3,510.3,958.79,512.46,958.78,514.1Zm8.35,86.29c-2.47-.15-5.53.87-5.39-3.54s1.66-5.83,7.53-5.89c3.15,0,3.55.45,3.69,4.73C973.79,600.17,970.74,600.59,967.13,600.39Zm132.75-6q6.76-20.24,13.52-40.45l2.54,1.07C1111,568.24,1108.79,582.51,1099.88,594.36Zm106.41-49.73c-1,6.71-1,6.79-7.52,6.76q-40.08-.14-80.14-.37c-7.66,0-7.74-.1-10.43,7.43-3.08,8.63-5.93,17.35-9,26a64.46,64.46,0,0,1-4,8.88c-2.49,4.59-6.4,6.44-11.73,6.4-15.43-.1-30.87.18-46.3.27-17.22.1-34.44.19-51.65.17-2.37,0-5.55,1.29-6.36-2.81-.9-4.63.33-7.73,4.1-9.31,5.16-2.18,10.36-4.3,15.55-6.45h0a5.5,5.5,0,0,1,3.78-2.3l14.75-12.86c7.19-9.82,13-20.2,16.57-32.07,10.9-36.51-11.26-77.82-45.91-90.41l-4.17-1.53c-.83-.31-2-.36-2.45-.95-4-5.27-1.11-11.35-1.85-17-.43-3.24,2.25-3.65,4.49-4.4,3.65-1.23,7.29-2.47,10.89-3.84,2.17-.82,3.5-2.35,2.57-4.83-1.09-2.83-3.12-3.23-5.73-2-7.61,3.63-15.82,4.81-24.08,5.82-3,.36-5.26.21-5.47-3.71-.19-3.62,1.5-4.56,4.76-4.66a19.3,19.3,0,0,0,6.92-1.45c11.58-4.95,23.75-4.21,35.9-4.06,6.52.06,13.06,0,19.58-.34,4.12-.22,6.76.86,7.88,5.17.66,2.55,2.08,4.89,3.09,7.36,6.49,15.82,18.43,26.18,34.92,28.51s23.63,12.77,28.87,26.3c1.37,3.54,1.51,8.33,4,10.48,3,2.55,8,.91,12.08.91,25.82,0,51.64-.15,77.47-.21,7.89,0,7.85,0,8.84,7.5C1209,506.22,1209.27,525.42,1206.29,544.63Z"/><path class="cls-1" d="M1434.92,501.83c-3-14.3-15.37-24-30.18-23.67-14.43.32-26.43,10.19-29,24.14a68.5,68.5,0,0,0,.28,24.77c1.78,9.49,6.66,18.08,16.22,20.57,10,2.59,11.21,8.36,10.06,16.64-.24,1.75-.23,3.53-.35,5.3a24.71,24.71,0,0,1,.32,2.57c.07,2-.45,4.19,2.57,4.66,3.41.53,3.61-2.06,4.35-4.18-1-5.3-.26-10.62-.37-15.92-.1-4.48,1.22-6.55,6-7.79,9.77-2.5,16.82-8.83,19.31-18.92A62.74,62.74,0,0,0,1434.92,501.83ZM1398,486.53c1.71-.34,3.67-1,4.42,1.43.61,1.94,0,3.72-2,4.25-8.42,2.25-13.28,8.29-17.19,15.7C1383.18,497,1389.48,488.23,1398,486.53Zm4.26,55.43c-1,2.06-3.09,1.28-4.69.66-9-3.49-14.1-9.93-14.52-20,4.73,6.2,9.56,12,17.34,14.31C1403,537.74,1403.27,539.93,1402.27,542Zm4.59-12A16.1,16.1,0,0,1,1390,518.4c-2-7.71,2-14.68,12.51-19.28,0,6-.07,11,0,16,0,1.76.29,3.73,2.7,3.84s2.67-1.87,3.15-3.56c1.37-4.92.24-10,.5-15,8.27,2.13,12.61,7.49,12.16,14.73S1414.12,529.21,1406.86,530Zm5.73,12.69c-2.49.79-4,.47-4.54-2.24-.37-1.9-.32-3.49,2.26-3.8a17,17,0,0,0,11.81-7.27c3.61-5,5.73-9.45,6.15-13.74a6.55,6.55,0,0,1-.06-3.63c-.66-5.14-3.94-10.17-10.16-15.77-2.14-1.93-5.09-2.94-7.64-4.43-1.52-.89-3.41-1.82-2.35-4,1-2,3-1.46,4.7-1.07,7.89,1.73,16.25,13.44,16,22.46a13.59,13.59,0,0,1-.33,2.18q-.14.33-.24.66a15.2,15.2,0,0,1,.06,3.63,16.9,16.9,0,0,1,.62,3C1429.44,529,1422.26,539.59,1412.59,542.69Z"/><path class="cls-1" d="M544.79,504.7c-1.41-14.7-12.46-24.94-27.74-26.42-14-1.36-26.72,7.4-31.07,21.24-1.82,5.78-1.7,11.66-1.7,17.57,0,15.82,6.27,27.5,22,32.6,3.37,1.09,4.79,2.92,4.64,6.41-.22,5.61-.21,11.23-.3,16.85.53,4,3,5.25,6.76,4.61.06-7.09.37-14.2.1-21.29-.16-4.42,1.4-5.94,5.77-7,12.42-2.94,20.48-12.47,21.54-25.1A109.48,109.48,0,0,0,544.79,504.7Zm-28.17-16.54c1-2.54,3.25-1.93,5.31-1.52,8.44,1.64,15.19,11.05,15.34,22.06-3.61-8.06-8.87-14-17.62-16.21C517.33,491.91,515.67,490.7,516.62,488.16Zm-11.48-.8c2-.69,4.82-2.2,5.9,1.17.74,2.37-1.07,3.36-3.21,4.38-7.14,3.37-7.07,3.52-16,15.25C492,498.1,497,490.25,505.14,487.36Zm6,53.42c-1.18,3.09-3.93,1.82-6,1.12-7.89-2.74-13.05-11-13.21-21.94,4.46,8,8.77,13.78,16.3,16.17C510.46,536.83,512,538.52,511.11,540.78Zm-11.63-22.45c-2-7.13,2-14.19,11.17-18.54.14,4.39.22,8.38.4,12.37a41,41,0,0,0,.51,5.3,2.79,2.79,0,0,0,2.4,2.27c1.74.21,2.66-1,3-2.54a39.27,39.27,0,0,0,.44-12.38c-.15-1.69-1-3.47.52-5,8.63,2.54,13.25,8.16,12.67,15.41s-7.16,14-14.4,14.75A15.84,15.84,0,0,1,499.48,518.33Zm21,25c-2.29.41-3.34-.63-3.68-2.66-.31-1.85-.25-3.52,2.21-4,6.87-1.27,11.79-5.24,15.25-11.16,1-1.73,1.94-3.49,3.24-5.84C537.93,530.66,529.62,541.69,520.47,543.33Z"/><path class="cls-1" d="M1408.72,686.63c.11,3.91-2.3,3.31-4.54,3.54a6.92,6.92,0,0,1-2.43-3.92c.16-10.36.23-20.7.51-31,.07-2.26-1.42-5.86,3.17-5.75,3.66.09,3.1,3,3.12,5.2C1408.63,665.31,1408.44,676,1408.72,686.63Z"/><path class="cls-1" d="M1507.87,436.92c-.09,1.68-.08,2.57-.2,3.44-.26,1.92-1.15,3.38-3.29,3.42-1.83,0-2.39-1.37-2.73-2.87a21,21,0,0,1-.69-3.46c-.41-7.3-3.69-13.55-7.09-19.77a72.47,72.47,0,0,1-3.79-7c-.76-1.88-1.22-4.2,1.34-5.3,2-.85,4-1.07,5.52,1.06a69,69,0,0,1,3.87,5.91C1505.1,420.27,1507,428.85,1507.87,436.92Z"/><path class="cls-1" d="M428.75,411.86c-5.4,9-8.57,18.8-11,28.91-.49,2-1.41,4.13-4.24,3.27-2.24-.69-1.94-2.67-2-5,1.61-10,4.17-20.31,9.77-29.62a6.23,6.23,0,0,1,1.11-1.39c2-1.75,4.15-4.31,6.82-2.56S429.79,410.11,428.75,411.86Z"/><path class="cls-1" d="M422.33,500.23c-3.06.51-4.05-1.76-4.44-4.27-1.59-10.15-3.14-20.32-4.71-30.47l.21,0c0-.59-.05-1.18-.12-1.76-.28-2.44.72-4.07,3.17-4.41s2.91,1.6,3.37,3.25a47.23,47.23,0,0,1,.9,5.21c1.45,9,2.94,18,4.37,27C425.47,497.17,425.45,499.71,422.33,500.23Z"/><path class="cls-1" d="M1506.19,461.43c-1.51,11.69-3,23.37-4.68,35-.25,1.8-.63,4.47-3.71,3.79-2.43-.54-3.15-2.41-3.12-4.69,0-1.18,0-2.35,0-3,1.51-9.89,2.9-19.2,4.38-28.5.28-1.74.71-3.61,2.27-4.62a5.74,5.74,0,0,1,3.31-.66C1506.15,458.91,1506.33,460.25,1506.19,461.43Z"/><path class="cls-1" d="M867.35,300.94c-.55,1.92-2.1,1.66-5.4.94-8.79-4.41-19.68-1.55-30.5-.93-2,.12-5.33,1.27-5.49-2.33-.15-3.11,2.16-4.52,5.27-4.6,7.08-.17,14.06-1.81,21.2-1.33a26.31,26.31,0,0,1,13.23,4.46A3.49,3.49,0,0,1,867.35,300.94Z"/><path class="cls-1" d="M1093.21,298c-.23,2.19-2,2.76-3.85,2.78a50.8,50.8,0,0,1-6.17-.32c-8.22-.92-16.39-1.5-24.33,1.68-1.89.74-4.35,1.58-5.28-1-.82-2.31,1.4-3.58,3-4.79,4.83-3.53,10.41-3.7,16.07-3.69,5.56.59,11.11,1.22,16.68,1.75C1091.66,294.55,1093.5,295.21,1093.21,298Z"/><path class="cls-1" d="M806.35,302.89a278,278,0,0,1-30.72,4.45c-.34,0-1.52,0-2.7,0-1.52,0-3-.14-3.28-2.1s.29-3.62,2.44-4c3.78-.71,7.58-1.29,11.39-1.85,7.31-1.09,14.63-2.17,22-3.13,2-.26,4.34-.64,5,2.2C811.3,301.87,808.62,302.43,806.35,302.89Z"/><path class="cls-1" d="M1043.7,315.64c-3.39,9.1-2.84,18.59-3,28a25,25,0,0,1-.6,5.26,3.31,3.31,0,0,1-3.95,2.7c-1.74-.27-2.16-1.88-2.14-3.39.14-10.61-.88-21.3,2.3-31.7.82-2.72,1.71-5.11,5.32-4.81C1043.86,312.11,1044.41,313.73,1043.7,315.64Z"/><path class="cls-1" d="M517.54,459.32c0,2-.26,3.65-2.54,3.8s-4-1-4-3.61q0-17.75.11-35.49c0-2.26,1.25-3.07,3.37-3,2.51.11,2.58,1.89,2.59,3.7,0,5.92,0,11.83,0,17.74h.4C517.5,448.1,517.43,453.71,517.54,459.32Z"/><path class="cls-1" d="M1150.49,304.71c-.55,2.65-2.86,2.67-5,2.42-10.8-1.28-21.58-2.68-32.38-3.95-2.72-.32-3.4-1.93-3.2-4.25.34-3.87,3.29-2.27,5.7-2.55l31.09,4.65C1148.91,301.36,1151.08,301.86,1150.49,304.71Z"/><path class="cls-1" d="M886.16,347c-.43,2.22-.25,5.36-3.6,5-2.77-.29-2.14-3.1-2.19-5.05-.23-10.61.34-21.28-3.26-31.55-.49-1.42,0-2.94,2.25-4.26a12.48,12.48,0,0,1,5.72,8.6C886.82,328.72,887.94,337.84,886.16,347Z"/><path class="cls-1" d="M1408.75,459.7a2.52,2.52,0,0,1-2.7,2.77c-1.9.1-3.61-.37-3.64-2.74-.05-5.89,0-11.8,0-17.7h.19c0-5.91,0-11.81,0-17.72,0-1.55.38-2.88,2.34-3,2.19-.16,3.24.81,3.28,3Q1408.46,442,1408.75,459.7Z"/><path class="cls-1" d="M517.24,630.35c0,1.95-.22,3.61-2.56,3.76-2.61.18-3.67-1.19-3.64-3.75.1-11.47.13-22.94.2-34.41,0-2.29.62-4.17,3.42-4,2.52.19,2.24,2.28,2.26,3.94.07,5.88,0,11.77,0,17.65h.27C517.22,619.18,517.18,624.77,517.24,630.35Z"/><path class="cls-1" d="M514.76,690.28c-2.57.14-3.69-1-3.69-3.61,0-11.21-.08-22.41-.08-33.61,0-1.91.66-3.42,3-3.44s2.94,1.6,3,3.45c.07,5.9,0,11.79,0,17.69h.19c0,5.3-.09,10.6,0,15.91C517.3,688.68,517.18,690.14,514.76,690.28Z"/><path class="cls-1" d="M1409.78,800.57c4-3.76,7.48-7.16,11.08-10.49,1.58-1.47,3.34-2.69,5.41-.72s1.13,3.82-.16,5.55c-6.61,8.84-15,15.93-23.16,23.25-1.45,1.3-3.1,1.59-4.74,0-1.81-1.71-2.13-3.54-.44-5.41,1.19-1.31,2.71-2.32,3.9-3.62a5.34,5.34,0,0,0,1.62-5.39c-2.33-11.69-.69-23.58-1-35.39-.06-2.35-.12-5,3.48-4.88,3,.14,2.88,2.58,2.93,4.54.2,7.7.22,15.41.35,23.11C1409.12,794,1408.47,796.89,1409.78,800.57Z"/><path class="cls-1" d="M1302.38,865c-3.23,0-4.42.08-5.59,0-1.54-.14-2.81-.76-3.13-2.51-.42-2.26.89-3.14,2.81-3.62,10.84-2.73,21.67-5.54,32.53-8.19,2-.5,4.42-.41,5.23,2s-1.39,3.81-3.19,4.55A143,143,0,0,1,1302.38,865Z"/><path class="cls-1" d="M1216.42,859.5c-10.71-2.5-21.4-5-32.07-7.48-2.48-.58-3.3-2.26-2.76-4.69.51-2.25,2.27-2.75,4.07-2.4,7,1.37,13.94,2.83,20.86,4.46,3.74.88,7.42,2.07,11.07,3.3,2,.69,5.32.57,4.52,4.11C1221.45,859.73,1218.91,859.9,1216.42,859.5Z"/><path class="cls-1" d="M1352.34,849.66a2.86,2.86,0,0,1-3-1.36,2.81,2.81,0,0,1,.22-3.32,15.08,15.08,0,0,1,4-3.38c8.48-4.67,17.14-9,25.22-14.42,1.51-1,3-1.83,4.56.08s1.65,3.84-.38,5.3c-9.07,6.53-18.3,12.79-28.93,16.62C1353.48,849.38,1352.91,849.5,1352.34,849.66Z"/><path class="cls-1" d="M1456.33,743.31a37.58,37.58,0,0,1-1.25,4.2,135.62,135.62,0,0,1-12.41,23.27,31.23,31.23,0,0,1-4.12,4.57,2.34,2.34,0,0,1-3.18.29c-1.14-.83-1-2.14-.72-3.22a10.23,10.23,0,0,1,1.53-3.13,103.54,103.54,0,0,0,12.71-26,9.77,9.77,0,0,1,1.07-2.4,3.31,3.31,0,0,1,3.76-1.59C1455.76,739.79,1456.53,741.21,1456.33,743.31Z"/><path class="cls-1" d="M1266.06,866.52c-8.89.51-15.83-1.31-22.88-2a17.75,17.75,0,0,1-4.27-1.09c-2-.74-2.41-2.45-2-4.33s2-1.91,3.49-1.76c9.41,1,18.81,2,28.22,3,2.35.26,4.71.49,7.06.74a2.29,2.29,0,0,1,2.33,2.12c.19,1.71-.56,3.16-2.18,3.26C1272,866.68,1268.16,866.52,1266.06,866.52Z"/><path class="cls-1" d="M516.54,763.12c1.33,1.79,1.22,3.87,1.18,5.94-.21,9.75-.29,19.5-.64,29.24-.19,5.33-.94,10.6,4.14,14.48,1,.74,1.5,2.65,1.47,4-.05,1.93-1.14,3.43-3.48,2.36a15.72,15.72,0,0,1-2.93-1.95A126.4,126.4,0,0,1,496.68,798a21.41,21.41,0,0,1-2-2.9c-1.22-2.08-2.58-4.5-.3-6.4s4.32-.12,6,1.68c2.22,2.34,4.5,4.61,6.75,6.92.51,1.43,1.48,2.28,3,1.84.25-.08.13-1.42.18-2.18.13-8.75.18-17.51.46-26.26.08-2.74-1-6,2.21-7.9Z"/><path class="cls-1" d="M703.23,860.28c-2.14-.28-3.65-.94-4.28-3s.5-3.5,2.32-4.1c10.94-3.6,21.75-7.82,33.47-8.14,1.94-.05,4.45-.41,4.86,2.55.38,2.77-1.83,3.54-3.79,4.07C725,854.63,714.09,857.43,703.23,860.28Z"/><path class="cls-1" d="M475.46,770.36c-3.3-6.47-6.72-12.88-9.86-19.43-1.63-3.38-3.45-6.83-2.65-10.86,2.86-1.14,5.55-2.15,7.35,1.74a240.39,240.39,0,0,0,15.94,29.56c.89,1.39.51,2.82,0,4.23a9.71,9.71,0,0,1-6.9-.26Z"/><path class="cls-1" d="M534.91,826.45c3.52-1.27,6.06,1,8.78,2.5,9.1,4.91,18.15,9.9,27.22,14.86.51,5.86-.86,7.44-5.55,5.51a103.41,103.41,0,0,1-13.16-7c-4.27-2.53-8.25-5.55-12.52-8.09A9.1,9.1,0,0,1,534.91,826.45Z"/><path class="cls-1" d="M621.1,865c-10.6-1.38-21.42-4.38-32.18-7.61a3.68,3.68,0,0,1-2.72-4.83c.59-2.42,2.65-2.17,4.28-1.79,10.64,2.52,21.25,5.16,31.86,7.78,2.29.57,3.64,2,3.42,4.44C625.51,865.72,623.34,864.88,621.1,865Z"/><path class="cls-1" d="M653.08,866.61c-2,0-5.56,0-9.09,0a2.48,2.48,0,0,1-2.74-2.69,2.66,2.66,0,0,1,2.49-3q5.26-.64,10.55-1.16c7.63-.74,15.26-1.48,22.9-2.1,2.21-.18,5-.95,5.42,2.61.43,3.81-2.35,4.24-5.11,4.45C669.86,865.29,662.32,867,653.08,866.61Z"/><path class="cls-1" d="M1408.8,630c0,2.86-1.75,3.39-4.08,3.29-2.65-.11-2.38-2.11-2.4-3.83,0-5.33,0-10.67,0-16h.28c0-5.94,0-11.87,0-17.8,0-2,.8-3.39,3.13-3.28,1.89.1,2.5,1.32,2.53,2.92C1408.44,606.82,1408.6,618.4,1408.8,630Z"/><path class="cls-1" d="M960.31,369.85c-2.17-4.21-1.19-8.56-1.54-12.81a1.66,1.66,0,0,1,1.52-1.71,1.48,1.48,0,0,1,1.84,1.31C961.6,361,962.81,365.62,960.31,369.85Z"/><rect class="cls-2" width="1" height="1"/><rect class="cls-2" x="1919" y="1079" width="1" height="1"/><rect class="cls-2" y="1079" width="1" height="1"/><rect class="cls-2" x="1919" width="1" height="1"/></g><g id="Capa_3" data-name="Capa 3"><path d="M871.65,656.73v111H851.82V697l-19.51,14.91-16.17,12.53L800,711.93,780.45,697v70.74H760.62v-111L780.45,672l35.69,27.44L851.82,672Z"/><path d="M925.57,693.69v75.5H905.75V691.63a15.83,15.83,0,0,0-13.49-13.48h-4.44V658.48h4.29v.16a35.42,35.42,0,0,1,29.5,19.82,41.54,41.54,0,0,1,2.69,7.46,33,33,0,0,1,1,8.09Z"/><path d="M979.18,693.69v75.5H959.36V691.63a15.83,15.83,0,0,0-13.49-13.48h-4.44V658.48h4.29v.16a35.42,35.42,0,0,1,29.5,19.82,41.54,41.54,0,0,1,2.69,7.46,33,33,0,0,1,1,8.09Z"/><path d="M1096.71,712.41a32.74,32.74,0,0,1-23.47,55.51h-45.52a32.58,32.58,0,0,1-30.14-20A34.31,34.31,0,0,1,995,735.09a32.67,32.67,0,0,1,9.2-22.84,31.35,31.35,0,0,1-6.82-10,34.5,34.5,0,0,1-2.54-12.85,32.19,32.19,0,0,1,32-32.83h46.48a32.87,32.87,0,0,1,23,55.67Zm-24.26-9.68a12.94,12.94,0,0,0,.47-25.85h-46.79a12.93,12.93,0,0,0,.32,25.85h46Zm.16,45.53a13.07,13.07,0,0,0,13-13,12.92,12.92,0,0,0-12.21-13h-46.48a12.88,12.88,0,0,0-12.21,12.85,13.07,13.07,0,0,0,13,13h45.52Z"/><path d="M1159.68,693.69v75.5h-19.83V691.63a15.8,15.8,0,0,0-13.48-13.48h-4.44V658.48h4.28v.16a35.42,35.42,0,0,1,29.5,19.82,42.36,42.36,0,0,1,2.7,7.46,33.47,33.47,0,0,1,.95,8.09Z"/></g></g></svg>