<svg xmlns="http://www.w3.org/2000/svg" viewBox="0 0 1920 1080"><defs><style>.cls-1{fill:#010101;}.cls-2{fill:#f2f2f2;}</style></defs><g id="Capa_2" data-name="Capa 2"><g id="Capa_1-2" data-name="Capa 1"><path class="cls-1" d="M977,257.05l-14.33.05c-3.17.9-9.34-2.74-9.07,3.14.32,6.86,6.56,2.52,10.19,3,4.22.51,8.52.38,12.76.79,3.08.28,4.47-.77,4.68-3.93C981.47,256.49,979,257.25,977,257.05Zm0,0-14.33.05c-3.17.9-9.34-2.74-9.07,3.14.32,6.86,6.56,2.52,10.19,3,4.22.51,8.52.38,12.76.79,3.08.28,4.47-.77,4.68-3.93C981.47,256.49,979,257.25,977,257.05Zm797.5,243.54c0-1.89-6.1-5.7-6.1-5.7-7.83-5.14-17.19-5.29-26.66-5.17-15.27.17-30.53-.29-45.78.24-6.68.23-9-1.31-8.73-8.41.62-14.62-.12-29.29.39-43.92.36-10.14-2.92-17.08-12-22.46-15.48-9.17-31.1-18-47.14-26.14a1588.92,1588.92,0,0,0-187.84-80.52c-3-1.06-7.7-1.65-5.88-6.24,2.9-7.42-2.13-8.19-6.85-9.66-3.76-1.18-7.54-2.31-11.3-3.52-21.71-7-43.39-14-65.12-20.92-3.27-1-8.15-3.32-9,2.13-1.42,9-6.56,5.79-11.32,4.42-78.51-22.63-159-34-240.09-41.23-38.58-3.46-77.26-6-116-5.5l-18.24-.36c-9.08-.38-18.19,1.61-27.3,1.51-28.72,0-129,8.87-129,8.87-16.29,2.26-32.66,4-49,6.12a1036.05,1036.05,0,0,0-150.07,31.05c-4.73,1.35-9,3.21-10-4-.81-6-4.83-4.29-8.25-3.21q-40.44,12.82-80.8,25.84c-2.77.89-5.75,2.45-4.08,5.76,3.31,6.6-1,7.45-5.63,9.14C418,335.8,344.88,366.75,275.18,405.32,247,420.93,247,420.9,247,453c0,10.07-.32,20.13,0,30.2.15,5.2-1.6,6.83-6.79,6.72-14.32-.31-28.66-.09-43-.13-10.93-.05-21.93-.65-33,6-3.19,3.64-3.73,9.85-3.73,9.85,0,2.48.83,6.17-3.6,5.82-9.64-.78-10.89,6.37-11.81,13s-.61,13.39-.84,20.09c.11,7.3.32,14.6.26,21.9,0,4.5.8,9.62,4.32,11.47,7.68,4,11.82,10.76,17.05,16.89,4.62,5.44,11.61,6.14,18.47,6.14,14.63,0,29.26-.08,43.87.07,12.59.13,14.1,1.39,14.4,14.16.41,17.35.24,34.7.33,52.07,2.72,11.24,10.31,16.91,21.1,20.28,46.64,14.57,92.93,30.33,139.79,44.11,19.32,5.68,30.95,18,40.31,34.19l37.11,50.82c4.64,6.33,9.18,12.78,15.48,17.52,3.57,3,15.07,7.66,15.07,7.66h60.61c30.44-.23,60.88-.41,91.31-.7,2.92,0,4.91.59,4.41,4-1,6.93,3.37,7.1,8.38,7.11,19.16,0,38.34.22,57.51.35,7.58-.12,15.15-.47,22.72-.27,4.52.14,7-1.1,6.71-6-.27-3.85,1-6.23,5.26-6.89,27.23-4.2,54.42-8.58,81.64-12.86a29.49,29.49,0,0,1,4.51,0c36.35-6.09,73-8.61,109.81-8.88,44.31-.49,88.17,4.3,131.89,10.92q34.63,5.49,69.3,10.94c3.59.56,4.3,2.94,4.24,5.91-.12,5.67,2.88,6.94,8.11,6.9,26.51-.23,53-.08,79.54-.22,2.93,0,7.78,1.58,7.46-3.82-.46-7.77,4.3-7.07,9.39-7.06,44.79.09,89.6-.31,134.41.3,17.91.25,31-6.74,41.07-20.9,16.3-22.79,32.75-45.44,49.12-68.17,5.61-7.78,11.74-14.85,21.81-16.86,25.86-8.44,51.64-17.11,77.59-25.23,13.79-4.3,27.09-10.38,41.62-12.25,9.15-5.47,19.67-7.21,29.57-10.6,16.78-5.72,21.91-12.48,21.93-30,0-15.19.07-30.38.1-45.56,0-7.3,2.88-11.25,10.93-11,12.74.46,25.5.31,38.25.41,31.9-2.16,34.4-4.89,34.52-37.66,0-5.77.24-11.54.38-17.32C1775.37,531,1774.53,515.82,1774.51,500.59ZM1428.36,321.08c1.56-3.41,4.29-.45,6.22.26,78.41,28.46,154.83,61.32,227.54,102.45,7.93,4.48,11,7,11,10.24,0,1-1.7,1.06-3.1.55a37.54,37.54,0,0,1-5.67-2.84,1541.3,1541.3,0,0,0-228.41-104.66,27,27,0,0,1-3.48-1.07C1430.41,324.92,1427,324.07,1428.36,321.08Zm-93.11-29.69c-3.14,3.58-6.35,2-9.64,1.05a1179.86,1179.86,0,0,0-128.17-28C1124.11,252.68,1050.38,245.08,976,246c-2,0-4.16.58-5.58-2.75C1094,244,1216,257.16,1335.25,291.39Zm-7.4,21.94c-3.9,6.12-9.43,4.49-14.78,3.08-30.91-8.1-62-15.52-93.35-21.47q-70.93-13.43-142.86-19.77c-25.24-2.22-50.51-3.14-75.78-4.4-5.68-.29-8.46-1.54-7.75-7.69.3-2.58.5-5.95-3.78-5.76-3.93.18-3,3.49-2.76,5.55.66,6.25-2,7.8-7.92,7.37a188.91,188.91,0,0,0-22.7-.06c-5.64.27-9.6-.33-9.1-7.43.14-2,.79-5.49-3.07-5.4-3.67.09-3.22,3.25-3,5.5.6,6.49-2,7.63-8.42,7.88-62.46,2.34-124.6,7.86-186.29,18.46q-63.45,10.9-125.6,27.34a19.25,19.25,0,0,1-4.46.83c-3.31.09-8.12,1-8.86-2.64-.86-4.22,4.43-3,6.89-3.92,10.43-3.79,21.75-5.13,31.2-12-11-2.45-20.84,1.53-30.92,4.23-2.35.64-4.58,1.63-6.91,2.36-1.86.57-4.32,2.57-5.47-.3-1.29-3.18,1.59-4.13,4-4.76q17.6-4.68,35.24-9.24c45.07-11.63,90.81-19.9,136.84-26.32,59.5-8.33,119.42-11.68,179.47-12.95,1.52,0,3,0,4.57,0l17.29.25c48.77.94,97.48,3,145.93,8.81,66.39,7.92,132,20,196.63,37.54,1.46.4,3.13.49,4.34,1.27,2,1.32,6.61,1.09,5.3,4.75s-4.73.92-7.09.28c-11.66-3.17-23.1-7.49-35.77-6.15C1300.14,307.42,1314.52,308.13,1327.85,313.33ZM964.16,243.81c-123.78,1.47-245.44,18.67-365.28,48.8C718.1,256.93,840.27,243.89,964.16,243.81ZM270.89,424.47c45-26.39,92.2-48.33,140.25-68.45,28.89-12.09,58.25-23.09,87.39-34.58,2.18-.86,5.05-3.38,6.47-.72,1.95,3.63-2.27,4.43-4.52,5.26-27.08,10-54,20.6-80.55,31.84-50.79,21.46-99.95,46.23-148.31,72.66-3.24,1.77-6.17,5.15-10.94,3.61C261.81,428.26,267,426.78,270.89,424.47ZM169.31,564.91c-5,0-10.22-.58-10.4,6.77a2.38,2.38,0,0,1-2.24,2.43,3,3,0,0,1-3.43-2.3,23.29,23.29,0,0,1-1.19-6.21c-.17-12.78-.27-25.58-.2-38.38,0-3.46-.68-8.6,4.26-8.62,5.4,0,2.63,5.19,2.77,7.95.39,7.6.3,15.23,0,22.84-.16,5.1.94,8,7,7.88s7.17-3.21,7.05-8.1c-.19-8.53-.27-17.06-.57-25.58-.15-4.49,1.21-6.54,6.23-6.45q22.84.38,45.71-.11c5-.11,6.32,1.77,6.09,6.39-.36,7.59-.3,15.21-.41,22.81.11,7.6,0,15.22.4,22.8.22,4.85-1.79,6.35-6.44,6.29-14.93-.15-29.89-.56-44.77.26C170.39,576.06,173.24,567.79,169.31,564.91ZM668.23,810.39c-.77,3.69-3.17,3-5.46,3.06-7.31.06-14.61-.06-21.92.07-2.15.05-5.43-1-5.28,3,.14,3.1,2.65,3.9,5.2,3.94,7.3.14,14.61,0,21.93.2,2.11,0,5.26-1.31,5.45,2.69.23,4.75-3.37,3.29-5.77,3.29q-41.1-.15-82.2-.43c-3.68,0-7.36,0-11,.06l-40.24,0c-14.13,2.13-25.42-1.89-33-14.66-2.89-4.86-6.43-9.34-9.68-14-12.24-16.66-24.95-33-36.61-50.07-9.72-14.2-22.07-23.59-38.63-28.71-48.51-15-96.77-30.91-145.25-46-9.61-3-8.31-9.76-8.08-16.71a5.86,5.86,0,0,1,0-5.42,26.31,26.31,0,0,1,0-11.07c-.39-10.32-.57-20.65-1.24-31-.86-13.48-9.37-21.78-23-22.07-16.14-.33-32.29-.07-48.43-.19-2.92,0-6.06,1.11-9.21-1.47,2.36-3.51,5.91-2,8.74-2,41.74-.12,83.47-.33,125.21,0,8,.08,11-2,10.33-10.17-.53-6.32.15-12.76.29-19.13-.11-11.28-.74-22.57-.17-33.79.4-7.85-2.52-9.89-9.89-9.86-42.06.2-84.12,0-126.19-.1-3.24,0-6.65.86-10.27-1.32,2.42-4.85,7-4,10.79-4.08,19.2-.16,38.41,0,57.61-.13,13.73-.11,19.15-5.7,19.27-19.61.09-11.27,0-22.54-.12-33.82,0-3.46.08-6.13,3.85-8.25Q321.71,411,380.26,383.36a5.67,5.67,0,0,1,1.82-.17c9.74-6.4,20.93-9.73,31.38-14.64l29.32-12.06c22.31-12.15,56.14-23.26,61.77-20.24-.25.43-.41,1.11-.76,1.24-4.38,1.61-12,2.83-10.43,7.5,1.76,5.09,7.64-.44,11.72-1.24,2.25-.44,4.86-2.83,6.6-.18,1.5,2.27-.51,4.87-2.22,6.38-6.56,5.88-15.33,7.07-23.29,9.56-4.08,1.27-2.93-3.72-2.74-5.95.56-6.11-1.4-6.77-7.25-5.62-11.76,2.31-21.87,8.87-33.35,11.63-1.33,2.21-4.82,3-4.31,7.29,11-1,20.7-6,30.86-9.31,2.71-.88,5.76-3.87,7.71.27,1.61,3.42-1.11,5.36-4,7-36.52,20-47.92,48.22-36.33,88.62,8.89,30.9,17.41,61.9,26.1,92.86,7.41,22.67,15.49,45.17,14.71,69.61-.09,2.87-1.88,8.27,5,5.49,1.62-.64,2.49,1.31,2.88,2.81,3.39,13.1,8.65,25.72,10.34,39.26,8,24.78,15.67,49.67,21.82,75q2.5,7.74,5,15.49c8.33,25.66,27.94,40.34,55,41,10.61.24,21.23.3,31.86.44,15.84-.09,31.66-.38,47.48-.2C664.81,795.25,669.82,802.78,668.23,810.39ZM312.71,569.65c0,4.32-1.36,5.82-5.76,5.77q-32-.31-64-.07c-4,0-5.4-1.32-5.37-5.23.11-15.84.14-31.68-.06-47.51-.06-4.49,1.74-5.69,6-5.59,10.65.22,21.32.07,32,.07v0c10.35,0,20.72.18,31.07-.1,4.6-.12,6.5,1.09,6.38,6.11C312.6,538.58,312.59,554.12,312.71,569.65Zm830,243.93c7.37,1.76,14.75,3.49,22,5.59,2.27.65,6.3.9,5.08,4.81-1.07,3.42-4.2,1.27-6.32.86-45.74-8.64-91.67-15.9-138.14-19.45C1009.27,804,960,803.12,960,803.12c-25,.26-49.86,2.17-74.73,4.61-37,3.63-73.65,9.21-110.16,16-3.7.69-9.73,4.2-11-.68-1-4,5.79-3.58,9.26-4.64,6.09-1.86,12.32-3.28,18.46-5,2.38-.66,5-1.62,4-4.88-.77-2.67-3.35-2.52-5.36-2.16-6.86,1.27-13.81,2.33-20.27,5.18s-7.69-.38-6.43-5.69c1.49-6.41,4.73-11,12.43-10.83,14.63.26,29.26.08,43.88.08v-.27c11.87,0,23.78-.38,35.63.18,5.08.24,12.38-4,14.78,5.18.15.59,3.36.71,5.08.5,0,0,58-4,96.4-4,35.44,0,88.15,4.25,88.15,4.25,1.41.09,4-.08,4.11-.52,1.82-9,9.07-5.38,13.88-5.44,25.88-.36,51.79-.15,77.67-.09,3.9,0,8-.37,11,3.21,3.15,3.78,5.13,8.66,3.12,12.65s-6.43.36-9.71-.31c-5.35-1.07-10.61-2.61-16-3.73-2.09-.42-4.69-.42-5.41,2.1C1137.84,811.88,1140.1,813,1142.75,813.58Zm114.84,6.17a117.91,117.91,0,0,0,.87,19.16c.7,5.35-1.55,6-6,6-22.88-.14-45.77-.2-68.65.15-5.49.07-6.46-1.92-6.65-6.85-.44-10.82,2.9-21.41.47-32.49-2.48-11.24-7.66-17.67-19.26-17.95l-377.91-.23c-16.75.13-21.31,4.62-24.5,20.66-1.89,9.41.06,18.51.38,27.67.28,8.1-2.3,10.21-9.63,9a76.39,76.39,0,0,0-9.1-.47c-18.54.13-37.07.12-55.61.51-5,.11-6.64-1.27-6.7-6.53-.15-10.83,2.32-21.53.37-32.5-2-11.29-7.59-17.64-19-18.15-12.12-.55-24.27-.62-36.41-.91a349.66,349.66,0,0,1-45.55.13c-22-1.4-37.19-12.78-43.9-33.74C522.94,728.67,516.09,703.79,509,679c-10.24-35.85-20.31-71.75-30.54-107.6-1.06-3.73-1.81-5.64,3.28-7.87,4.4-1.94.58-9,2.63-13.47-.3-7-.54-14-.91-21-.15-2.93.25-7.27-3.59-7.15-3.3.09-2.45,4.31-2.48,6.92-.09,8.41,0,16.82,0,24.73-3.08,1.37-4.19.09-4.56-1.3-11-39.22-22.64-78.27-32.48-117.76-6-24,12.44-54.15,37-62.91,0,4.8-.06,9.16,0,13.51.05,1.77.05,3.81,2.72,3.84,2.42,0,3-1.62,3.16-3.58a6.37,6.37,0,0,0,.15-1.82c-3.33-14.73,6.21-18.56,17.62-21.32,10.23-2.48,18-7.8,18.12-19.72.05-5.49,4.75-4.76,7.8-6,2.85-1.18,6.6-1.69,5.47-5.76-1.28-4.53-5.14-2.52-7.44-1.22-6.9,3.9-10,1.47-11-5.65a31.28,31.28,0,0,0-1.36-4.36c-5.57-19.23-5.57-19.26,13.16-25.38,17.64-5.76,35.41-11.1,52.87-17.35,5.82-2.09,7.43-.47,8.91,4.62,2.69,9.34,5.81,18.56,8.91,27.78,4.76,14,11.44,17.86,25.66,14.19,52.14-13.41,104.68-24.76,158-32.3A1403.87,1403.87,0,0,1,934.85,277.9l65.11.23c36.29.73,72.45,3.34,108.51,7.27a1373.45,1373.45,0,0,1,205,38.6c10.76,2.87,18.68-1.18,22.65-11.53s7.71-21.13,10.85-31.91c1.35-4.62,2.44-5.77,7.36-4.11q33.21,11.22,66.74,21.54c5,1.56,6.24,4.06,4.65,8.67-1.48,4.31-3.09,8.59-4.29,13-2.08,7.72-3.88,15.31-14.69,9.13-1.61-.91-4.53-1-5.45,1.69-1.08,3.05,1.21,4.72,3.61,5.22,6.86,1.46,10.74,4.18,10.87,12.43.07,5.68,4.92,10.25,10.89,12.33,2.87,1,5.67,2.44,8.63,2.92,11.44,1.86,17.86,7.35,15.93,19.93-.3,1.94-1.06,5.58,2.75,5.57,3.48,0,2.9-3.27,3.17-5.55,1.55-13.1,1.53-13.1,12.64-4.87,20,14.8,29.07,40.05,22.47,64-10.75,38.93-21.85,77.75-35,116.62,0-8.07.4-16.18-.16-24.22-.29-4.31,3-11.87-3.42-12.08-4.24-.15-2.08,7.65-2.57,11.88-.6,5.11-.53,10.31-.74,15.46,2.75,4.81-3.5,13.28,6.27,15.36.28.06.34,2.81,0,4.14q-14,48.44-28.17,96.85c-.08.26-.39.46-.59.68-7.56,30.08-15.54,60.07-25.8,89.32-7.39,21-24.25,30.51-46.18,30.81-22.88.33-45.79.86-68.64.15C1260.11,786.52,1258.37,796.4,1257.59,819.75ZM1747.5,586c-2.1.06-4.2-.23-6.3-.35-12.45.24-24.9.36-37.36.79-18.12.6-26.43,9-26.71,27.37-.23,14.9-.28,29.8.1,44.68.21,7.92-2.75,12.5-10.47,14.63-12,3.3-23.82,7.07-35.71,10.66-23.49,8.7-47.36,16.21-71.42,23.16-13.54,4.45-27,9.3-40.66,13.21A53.84,53.84,0,0,0,1489.35,741c-16.8,23.18-33.79,46.23-50.14,69.71-7.84,11.29-17.42,16.37-31.45,16.19-44.51-.59-89-.2-133.53-.18-1.83,0-3.66.06-5.49-.08-2-.15-3.49-.91-3.37-3.34.14-2.64,2.07-2.58,3.87-2.6,7.31-.08,14.63,0,21.94-.18,2.87-.08,6.73.66,6.59-4.08-.13-4.57-3.9-2.83-6.22-2.93-5.49-.23-11,.19-16.46-.12-3.73-.23-9.83,2.34-9.55-4.7.21-5.73,1.92-11.69,8.81-13.38,2.31-.57,4.86-.29,7.3-.3,23.78-.05,47.56,0,71.34-.12,31.6-.2,51.43-15.36,60-45.78,7.63-27.18,15.11-54.43,22.71-81.62.23-.82,1.06-1.45,1.62-2.18,3.55-13.14,7.13-26.29,10.64-39.45.48-1.8.89-4.42,3-3.84,8.79,2.41,6.49-4.45,6.27-8-1.26-19.92,4.61-38.34,10.95-56.73,9.8-34.8,18.83-69.84,29.6-104.34,11.24-36-1.68-71.87-35.62-87.76-3.44-1.61-6.31-4-4.84-7.55,1.83-4.47,5.14-.67,7.56.12,8.35,2.73,16.57,5.91,24.93,8.66,1.77.59,4.4,1.65,5.53-.92.38-.86-1-2.53-1.6-3.83-11.47-5.65-23.17-10.53-35.68-13.6-6.56-1.61-8.86-.47-7.13,6.2,1.54,5.95-1.24,6.29-5.75,4.67-5.13-1.85-10.3-3.66-15.43-5.55s-7.37-5.7-6.6-11.92c4.13,1.69,7.62,3.32,11.24,4.55,2.07.69,5,2.52,6.2-.86s-1.41-4.78-4.23-5.76c-3.15-1.08-6.27-2.24-9.3-3.63a3.09,3.09,0,0,1-1.81-3.78c.74-1.9,2.27-1.16,3.76-.53,21.42,9.22,44.15,15.19,64.88,26.1l25.65,11a165.44,165.44,0,0,1,31.25,14.07c9.93,2.77,17.91,9.43,27.16,13.51,30.12,13.31,58.8,29.42,88,44.58,5.17,2.69,7.66,5.7,7.35,11.94-.59,11.53-.37,23.14-.12,34.7.24,11.23,5.8,16.79,17,16.89,19.8.22,39.61.37,59.41,0,8.24-.18,11.67,2.61,11.29,11-.47,10.32-.21,20.68-.26,31,.11,8.78.32,17.56.29,26.34C1760.79,585.23,1760.32,585.66,1747.5,586ZM977,257.05l-14.33.05c-3.17.9-9.34-2.74-9.07,3.14.32,6.86,6.56,2.52,10.19,3,4.22.51,8.52.38,12.76.79,3.08.28,4.47-.77,4.68-3.93C981.47,256.49,979,257.25,977,257.05Z"/><path class="cls-2" d="M1492.3,442.39c-10.75,38.93-21.85,77.75-35,116.62,0-8.07.4-16.18-.16-24.22-.29-4.31,3-11.87-3.42-12.08-4.24-.15-2.08,7.65-2.57,11.88-.6,5.11-.53,10.31-.74,15.46,2.75,4.81-3.5,13.28,6.27,15.36.28.06.34,2.81,0,4.14q-14,48.44-28.17,96.85c-.08.26-.39.46-.59.68-7.56,30.08-15.54,60.07-25.8,89.32-7.39,21-24.25,30.51-46.18,30.81-22.88.33-45.79.86-68.64.15-27.13-.84-28.87,9-29.65,32.39a117.91,117.91,0,0,0,.87,19.16c.7,5.35-1.55,6-6,6-22.88-.14-45.77-.2-68.65.15-5.49.07-6.46-1.92-6.65-6.85-.44-10.82,2.9-21.41.47-32.49-2.48-11.24-7.66-17.67-19.26-17.95l-377.91-.23c-16.75.13-21.31,4.62-24.5,20.66-1.89,9.41.06,18.51.38,27.67.28,8.1-2.3,10.21-9.63,9a76.39,76.39,0,0,0-9.1-.47c-18.54.13-37.07.12-55.61.51-5,.11-6.64-1.27-6.7-6.53-.15-10.83,2.32-21.53.37-32.5-2-11.29-7.59-17.64-19-18.15-12.12-.55-24.27-.62-36.41-.91a349.66,349.66,0,0,1-45.55.13c-22-1.4-37.19-12.78-43.9-33.74C522.94,728.67,516.09,703.79,509,679c-10.24-35.85-20.31-71.75-30.54-107.6-1.06-3.73-1.81-5.64,3.28-7.87,4.4-1.94.58-9,2.63-13.47-.3-7-.54-14-.91-21-.15-2.93.25-7.27-3.59-7.15-3.3.09-2.45,4.31-2.48,6.92-.09,8.41,0,16.82,0,24.73-3.08,1.37-4.19.09-4.56-1.3-11-39.22-22.64-78.27-32.48-117.76-6-24,12.44-54.15,37-62.91,0,4.8-.06,9.16,0,13.51.05,1.77.05,3.81,2.72,3.84,2.42,0,3-1.62,3.16-3.58a6.37,6.37,0,0,0,.15-1.82c-3.33-14.73,6.21-18.56,17.62-21.32,10.23-2.48,18-7.8,18.12-19.72.05-5.49,4.75-4.76,7.8-6,2.85-1.18,6.6-1.69,5.47-5.76-1.28-4.53-5.14-2.52-7.44-1.22-6.9,3.9-10,1.47-11-5.65a31.28,31.28,0,0,0-1.36-4.36c-5.57-19.23-5.57-19.26,13.16-25.38,17.64-5.76,35.41-11.1,52.87-17.35,5.82-2.09,7.43-.47,8.91,4.62,2.69,9.34,5.81,18.56,8.91,27.78,4.76,14,11.44,17.86,25.66,14.19,52.14-13.41,104.68-24.76,158-32.3A1403.87,1403.87,0,0,1,934.85,277.9l65.11.23c36.29.73,72.45,3.34,108.51,7.27a1373.45,1373.45,0,0,1,205,38.6c10.76,2.87,18.68-1.18,22.65-11.53s7.71-21.13,10.85-31.91c1.35-4.62,2.44-5.77,7.36-4.11q33.21,11.22,66.74,21.54c5,1.56,6.24,4.06,4.65,8.67-1.48,4.31-3.09,8.59-4.29,13-2.08,7.72-3.88,15.31-14.69,9.13-1.61-.91-4.53-1-5.45,1.69-1.08,3.05,1.21,4.72,3.61,5.22,6.86,1.46,10.74,4.18,10.87,12.43.07,5.68,4.92,10.25,10.89,12.33,2.87,1,5.67,2.44,8.63,2.92,11.44,1.86,17.86,7.35,15.93,19.93-.3,1.94-1.06,5.58,2.75,5.57,3.48,0,2.9-3.27,3.17-5.55,1.55-13.1,1.53-13.1,12.64-4.87C1489.78,393.23,1498.9,418.48,1492.3,442.39Z"/><path class="cls-1" d="M1348.61,311.21a231.09,231.09,0,0,1,34.12,9.86c2.57.95,4.28,2.48,3.26,5.41s-3.47,2.08-5.38,1.53c-10.68-3.09-21.32-6.31-32-9.54-2.76-.83-3.8-2.84-3.16-5.59S1348.06,311.06,1348.61,311.21Z"/><path class="cls-1" d="M589.23,314c-.06,3.11-2.43,4.07-4.75,4.78-10.14,3.11-20.3,6.12-30.47,9.1-2,.59-4.47,1.45-5.64-1-1.32-2.78.56-4.7,3-5.68,11-4.48,22.47-7.38,34-9.86C587.24,310.86,589,311.51,589.23,314Z"/><path class="cls-1" d="M1457.23,426.11c0,5.76,0,11.51,0,17.27,0,1.87-.41,3.79-2.78,3.9a2.9,2.9,0,0,1-3-2.79c-1.63-12.69-1-25.37.33-38,.12-1.18.77-2.5,2.27-2.32,2.12.25,3.06,1.94,3.09,3.8.13,6.06.05,12.12.05,18.17Z"/><path class="cls-1" d="M483.49,426.05c0,5.45.09,10.91-.05,16.36-.05,2,.08,4.78-2.82,4.91-3.63.16-3.33-3-3.34-5.27-.06-11.22,0-22.45.18-33.67,0-1.7-.08-4.12,2.37-4.15a3.61,3.61,0,0,1,3.44,3.65c.18,6.05.07,12.11.07,18.17Z"/><path class="cls-1" d="M1457.22,484.49c0,5.47,0,10.94,0,16.41,0,2.45.1,5.19-3.52,5.1-3.12-.08-3-2.74-3-4.69q.13-17.32.63-34.64c0-1.63,0-4.15,2.47-4.09,2.65.05,3.29,2.42,3.34,4.59.11,5.77,0,11.55,0,17.32Z"/><path class="cls-1" d="M1218.05,813.44c5.49,0,11,0,16.46,0,2.11,0,4.48-.05,4.48,3.11a3.37,3.37,0,0,1-3.5,3.49c-11.88.21-23.76.3-35.64.15a3.62,3.62,0,0,1-3.54-4.43c.41-2.29,2.51-2.33,4.36-2.34C1206.46,813.43,1212.26,813.44,1218.05,813.44Z"/><path class="cls-1" d="M733.91,813.12c1.46.56,3.43.08,3.85,2.53.56,3.19-1.88,3.73-3.77,4.84-10.64,0-21.29,0-31.93-.22-2.81-.06-7.09.47-6.79-3.95.25-3.71,4.12-2.77,6.69-2.82C712.61,813.3,723.26,813.23,733.91,813.12Z"/><path class="cls-1" d="M483.66,484.49c0,5.46.1,10.92-.05,16.38-.06,2.28.26,5.25-3.46,5.09-3.17-.14-2.85-2.81-2.86-4.75q-.09-17.28.16-34.58c0-1.66-.08-4.08,2.47-4a3.57,3.57,0,0,1,3.36,3.7c.15,6.05.05,12.12.05,18.18Z"/><path class="cls-1" d="M1677.23,546.64c0,12.79-9.43,22.24-22.44,22.46s-23.27-9.48-23.54-22.57c-.26-12.47,10.53-23.33,23.15-23.31S1677.21,533.62,1677.23,546.64Zm-22.91,15.76c7.8.25,15.34-7.5,15.49-15.93a15.65,15.65,0,0,0-15.36-15.76,16.07,16.07,0,0,0-15.77,15.49C1638.51,553.61,1646.75,562.15,1654.32,562.4Z"/><path class="cls-1" d="M1594.42,519.2c0,5.45,0,10.89,0,16.34,0,2.26-.3,4.5-3.11,4.51-2.41,0-3.84-1.57-3.81-4.1.11-11.48.17-23,.44-34.45,0-2,.51-4.59,3.46-4.33,2.78.25,2.95,2.65,3,4.8,0,5.74,0,11.49,0,17.23Z"/><path class="cls-1" d="M1594.38,458.68c0,5.75,0,11.51,0,17.27,0,2.19-.41,4.38-3.28,4.49s-3.42-2.41-3.44-4.39q-.18-16.8.09-33.61c0-2,.63-4.54,3.43-4.51,3.52,0,3.26,2.89,3.28,5.3,0,5.15,0,10.3,0,15.45Z"/><path class="cls-1" d="M1594.41,577.35q0,8.21,0,16.42c0,1.92-.19,3.85-2.53,4.14-2.55.32-4.2-1.11-4.2-3.63q0-17.76.32-35.53c0-1.78.88-3.64,3.34-3.44s3,1.84,3,3.8c0,6.08,0,12.16,0,18.24Z"/><path class="cls-1" d="M1594.79,648.75c-1.16,2.46,1.06,7.18-3.35,7.24-4.79.07-3.81-4.61-3.93-7.61-.33-9-.3-18-.42-27.06,1.23-2.69-.69-7.86,4.22-7.58,5.06.28,3,5.09,3.06,8C1594.73,630.71,1594.68,639.73,1594.79,648.75Z"/><path class="cls-1" d="M1516.9,370.94c10.69,6.41,23.48,8.53,33.51,16.32-.31,5.79-4.33,4.22-7.12,3-9.63-4.1-19.12-8.55-28.57-13.06-2-1-5.21-2-4.19-5S1514.86,372,1516.9,370.94Z"/><path class="cls-1" d="M1563,397.49c8.59-1.59,28.44,7.73,30.81,14.55.86,2.45.46,5.4.35,8.11-.06,1.33-1.31,2-2.63,2-1.68.06-3.35-.62-3.4-2.31-.32-9.91-9.44-10.69-15.22-14.91C1569.7,402.55,1565,402,1563,397.49Z"/><path class="cls-1" d="M371,396.41c-4.37,7.43-12.21,9-18.47,13.11-3.46,2.25-6.71,4.08-6.45,8.91.09,1.68.18,3.9-2.54,3.91s-3.36-2-3.51-4.3c-.16-2.72-1.25-6.18.79-7.93C349.47,402.68,359.22,397.21,371,396.41Z"/><path class="cls-1" d="M384.3,385.34l29.23-13c2.37.91,3.71-1.81,5.84-1.68,1.39.09,3.23-.5,3.63,1.62.31,1.57,0,3.2-1.58,3.9-11,5-22,10.2-33.27,14.56C384.65,392.1,380.22,391,384.3,385.34Z"/><path class="cls-1" d="M346.12,518.51c0,5.48,0,11,0,16.44,0,2.35-.6,4.38-3.05,4.84-3.44.64-3.15-2.42-3.16-4.23-.05-11.55.1-23.11.27-34.66,0-2,.93-3.72,3.17-3.69,2.46,0,2.68,2.2,2.71,4C346.2,507,346.13,512.73,346.12,518.51Z"/><path class="cls-1" d="M346.05,459.43c0,5.74.06,11.48,0,17.21,0,1.7.07,3.8-2.62,3.77-2.31,0-3.2-1.59-3.34-3.51a276.91,276.91,0,0,1,.17-36.21,2.93,2.93,0,0,1,2.82-3c2.44-.17,3,1.72,3,3.6.09,6,0,12.08,0,18.12Z"/><path class="cls-1" d="M428.23,652.59A27.66,27.66,0,0,1,400.34,625c-.09-16.61,12.07-29.11,28.39-29.17a28.34,28.34,0,0,1,28.67,28.09A28.91,28.91,0,0,1,428.23,652.59Zm1-49.57c-12.27-.1-21.24,8.72-21.4,21-.15,11.41,9.15,21.07,20.4,21.19,11.71.12,21.76-9.59,21.81-21C450.1,613.29,440.1,603.1,429.24,603Z"/><path class="cls-1" d="M483.86,657.46c-.14,6.34-.21,12.67-.47,19-.09,2.23.57,5.41-3.2,5.23-3.56-.18-2.9-3.32-3-5.53-.3-4.82-.34-9.66-.48-14.5l-.18-12.93.31-7.22c3-5.51,5.45-4,6.32.92S483.66,652.44,483.86,657.46Z"/><path class="cls-1" d="M340,633.94c0-5.17,0-10.34,0-15.51,0-2.13.07-4.5,3-4.76,3.25-.28,3.15,2.31,3.17,4.34.06,11.25.06,22.49-.06,33.74,0,1.94.33,4.66-3.08,4.33-3-.3-2.89-2.77-2.93-4.8-.12-5.78-.05-11.56-.05-17.34Z"/><path class="cls-1" d="M346,577c0,5.74,0,11.48,0,17.23,0,1.82-.18,3.74-2.85,3.59-2.31-.13-3.09-1.62-3.09-3.64,0-11.79-.05-23.58,0-35.38,0-1.95.89-3.56,3.19-3.64,2.58-.09,2.81,1.91,2.83,3.7.09,6,0,12.09,0,18.14Z"/><path class="cls-1" d="M1534.05,623.94c.09,16-12.79,28.61-29.17,28.64a27.31,27.31,0,0,1-27.78-27.66c0-16.76,12-29,28.44-29.11A28,28,0,0,1,1534.05,623.94Zm-28.82,21.26a21.15,21.15,0,0,0,21.43-21.5c-.24-10.87-10.55-20.75-21.59-20.69-11.49.06-20.46,9.26-20.66,21.19C1484.23,635.43,1494,645.24,1505.23,645.2Z"/><path class="cls-1" d="M1541.65,700.05c-.2,1.47-.05,3.24-1.75,3.89-11.16,4.22-22.42,8.17-34.13,10.63-1.93.4-4.61.76-5.65-1.65-1.47-3.41,2.66-3.31,3.75-5.19,8.94-2.81,17.89-5.61,26.83-8.46C1534.48,698.07,1538.24,696.41,1541.65,700.05Z"/><path class="cls-1" d="M1457.65,645.16c-.11,10.25-.13,20.5-.38,30.75,0,2.08,1.31,5.38-2.49,5.68s-4.25-2.77-4.55-5.49c-.33-3-.31-6-.44-9,.38-7.26.66-14.51,1.17-21.76.18-2.57-.46-6.56,2.74-6.91C1458.25,637.94,1456.56,642.7,1457.65,645.16Z"/><path class="cls-1" d="M1557.82,698.41l-2-2c.75-1.25,1.2-3.12,2.3-3.64,11.27-5.37,23.88-8.57,30.82-23.12C1591.51,684.8,1577.71,695.93,1557.82,698.41Z"/><path class="cls-1" d="M1452.81,753.68c6.79,6.88-.37,10.8,0,13.39,1.57,10.42-6.56,15.12-10.49,22.14-2.35,4.2-5.75,7.84-8.78,11.65-1.76,2.21-4.41,2.76-6.48,1.13-2.26-1.78-.11-3.92.94-5.5,3.37-5.07,7.2-9.85,10.44-15C1443.84,773,1452.37,766.28,1452.81,753.68Z"/><path class="cls-1" d="M1487.77,722.54a19.88,19.88,0,0,1-1.45,3.67q-8.7,12.85-17.53,25.62c-1.6,2.3-3.6,4.8-6.65,2.38-2.52-2-.91-4.44.43-6.51,5.63-8.69,10.73-17.74,17.64-25.54,1.38-1.57,2.93-3.47,5.39-2.25C1486.53,720.37,1487.06,721.64,1487.77,722.54Z"/><path class="cls-1" d="M1386.3,820.57c-4.12-2-13.34,3.9-13.45-4.49-.07-5.42,8.71-2,13.42-2.52,7.53-.79,15.09-1.1,22.48-3,2.25-.59,5.07-1.57,6,1.83,1,3.72-1.65,4.3-4.48,5.25C1402.69,820.18,1394.86,820.49,1386.3,820.57Z"/><path class="cls-1" d="M1336.06,813.4c5.19,0,10.38-.08,15.56,0,2,0,4.56-.57,4.82,2.71.22,2.82-1.79,4.06-3.91,4.08-11.58.11-23.17,0-34.75-.19-1.84,0-3.57-.82-3.52-3.28.07-3,2.19-3.25,4.41-3.26,5.8,0,11.6,0,17.39,0Z"/><path class="cls-1" d="M1457.2,719.61c0,5.44.07,10.88,0,16.32-.05,2.17-.52,4.41-3.45,4.29-2.61-.1-2.35-2.36-2.52-4-1.16-11.48-.12-23,.13-34.44.05-1.82.23-3.95,2.68-3.9,2.75,0,3.21,2.28,3.23,4.5,0,5.75,0,11.49,0,17.24Z"/><path class="cls-1" d="M482.76,763.32c6.73,9.64,13.64,19.17,20.05,29,1.84,2.82,7,6.66,2.31,9.79-3.95,2.65-5.69-2.92-7.83-5.62-1.89-2.36-3.77-4.74-5.65-7.11-5.61-7.92-11.69-15.61-13.93-25.35-.54-2.31-.94-4.81.76-7a2,2,0,0,1,3.09-.46C483.9,758.49,483.11,761,482.76,763.32Z"/><path class="cls-1" d="M473.29,751.38a2.58,2.58,0,0,1-1.16,3.2,3.7,3.7,0,0,1-5-.66c-7.2-9-14.58-17.88-19.85-28.23a4.83,4.83,0,0,1,1.55-6.52c2.5-1.62,3.82,1.21,5,2.61A158.47,158.47,0,0,1,473.29,751.38Z"/><path class="cls-1" d="M372.85,698.57c-11.64-3.24-22.85-7.63-28.61-19.88-.71-1.52-2.29-3.36-.33-4.91,1.8-1.43,4-.11,4.76,1.15,6,10.05,16.36,13,26.25,16.84,2,.77,4.08,2,3.48,4.66C377.73,699.37,375.24,698.57,372.85,698.57Z"/><path class="cls-1" d="M427.94,714.77c-10.11-3.13-20.78-6.37-31.39-9.78-2-.64-4-1.89-3.31-4.61s3.17-3.1,5.09-2.49c11.19,3.58,22.28,7.45,33.41,11.21a2.82,2.82,0,0,1,2.06,3.5C433.11,715.71,430.46,714.24,427.94,714.77Z"/><path class="cls-1" d="M477.38,717.51c0-5.17-.06-10.35,0-15.52,0-1.72-.16-4.14,2.16-4.36,2.6-.24,3.66,2.06,3.68,4.21.12,11.55.08,23.11,0,34.67,0,1.82-.28,3.85-2.76,3.89s-3-1.83-3-3.73c-.08-6.38,0-12.77,0-19.16Z"/><path class="cls-1" d="M729,285.36c-3.85-1.42-9.78,4.4-10.79-2.22-.8-5.27,5.74-3.93,9.23-4.61,9.18-1.77,18.44-3.15,27.69-4.59,2-.32,4.69-.88,5.38,1.83.77,3-1.6,4.41-4.08,4.87C747.26,282.33,738,283.83,729,285.36Z"/><path class="cls-1" d="M1019.48,264.23c-5.46,0-10.91-.14-16.36,0-3.24.11-4.28-1.61-4.5-4.33-.29-3.55,2.49-2.83,4.37-2.79,10.9.24,21.8.59,32.7,1,2.41.09,5.33.16,5.47,3.41.18,4-3.27,2.72-5.32,2.8-5.45.21-10.91.07-16.36.07Z"/><path class="cls-1" d="M812.78,265.38c2,.13,4.89-.72,5.43,2.73.58,3.68-2.45,3.51-4.74,3.89-10.39,1.73-20.77,3.54-31.2,5-2,.3-5.33,1.58-6.09-1.8-.8-3.55,2.32-4.74,5-5.17C791.56,268.36,802,266.94,812.78,265.38Z"/><path class="cls-1" d="M913,264.53c-5.14,0-10.28.06-15.42,0-1.63,0-3.85.67-4.21-2-.33-2.5.91-4.43,3.33-4.51,12.08-.37,24.16-.52,36.25-.67,1.9,0,2.27,1.44,2.3,3.11,0,2.87-1.81,3.63-4.1,3.66-6,.08-12.1,0-18.15,0Z"/><path class="cls-1" d="M669.14,297.25c-4.61.27-7,.42-7.61-2.26s1.84-3.72,3.75-4.18c10.84-2.61,21.72-5,32.61-7.44,2.22-.5,4.52-.14,5.15,2.36.5,2-1.06,3.45-2.95,3.92C689,292.43,677.9,295.11,669.14,297.25Z"/><path class="cls-1" d="M1124.16,265.92c9.39,1.4,19.35,2.75,29.25,4.45,2.2.38,5.34,1.19,5,4.35-.42,3.58-3.71,2.64-5.86,2.35-9.94-1.34-19.89-2.72-29.73-4.59-2.71-.52-8.21.7-7.15-4.55C1116.42,264.13,1120.81,266.56,1124.16,265.92Z"/><path class="cls-1" d="M1209.42,286.1c-9.76-1.64-20.54-3.45-31.31-5.29-2.57-.44-5-1.59-4.74-4.55.41-3.89,3.61-2.36,5.74-2.05,10.84,1.56,21.66,3.25,32.47,5,2.6.42,4.89,1.81,4.22,4.8C1215.2,286.66,1212.59,286.25,1209.42,286.1Z"/><path class="cls-1" d="M865,260.67c3.72,1.16,11-2.48,11.17,2.46.2,5.22-7.45,4.2-11.94,4.75-7.82.94-15.69,1.51-23.56,1.88-2.39.11-6.36,1.77-6.91-2-.59-4.12,3.88-4.32,6.51-4.69C848.33,262,856.51,261.45,865,260.67Z"/><path class="cls-1" d="M1267.29,297.86c-11.09-2.65-22-5.29-32.93-7.84-2.1-.49-3.4-1.65-3.1-3.7.4-2.74,2.42-3.09,4.83-2.56,10.69,2.36,21.4,4.6,32.05,7.07,2,.47,4.19,1.59,4,4.27C1272,298.81,1268.81,296.4,1267.29,297.86Z"/><path class="cls-1" d="M1091.73,270.06c-9-1.69-18.06-1.92-27.13-2.49-2.66-.17-7-.35-6.63-4.47.4-3.85,4.4-2.39,6.78-2.28q13.62.63,27.2,2c3.06.3,8-.1,7.77,4.25C1099.52,272.29,1094.49,268.87,1091.73,270.06Z"/><path class="cls-1" d="M562.39,817.22c-8.92,7.07-19.16,2.07-28.74,3-1.44.14-3-.51-4.45-.79a39.64,39.64,0,0,0-5.09-1.73c-3-.6-5.57-2.11-4.74-5.29,1-3.71,4.14-2.22,6.75-1.62,9.44,2.2,19.06,2.46,28.7,2.53C557.86,813.4,561.79,812.17,562.39,817.22Z"/><path class="cls-1" d="M605.82,813c2.72.12,5.45.17,8.16.39,2.5.2,6.2-1,6,3.32-.14,3.73-3.6,3.63-6.22,3.68-11.22.21-22.44.24-33.66.34-4.54-4.88-3.38-7.22,3.19-7.3C590.83,813.32,598.32,813.13,605.82,813Z"/><path class="cls-1" d="M302.16,547c0,12.65-9.85,22.17-22.77,22.1a22.67,22.67,0,0,1-22.92-22.32C256.3,534,266.55,523.88,279.64,524,293.53,524.19,302.2,533.05,302.16,547Zm-6.9-.71c.34-8.34-6.75-15.63-15.33-15.76a15.77,15.77,0,0,0-16,15.15c-.15,8.15,6.89,16,14.91,16.56S294.9,555.13,295.26,546.32Z"/><path class="cls-1" d="M1087.38,798c10.57,1.5,20.47,3,30.39,4.29,2.68.36,4.73,1,4.37,4.36-.4,3.81-3.17,3.15-5.45,2.85-9.91-1.3-19.84-2.59-29.69-4.3-2.65-.46-7.44.11-7.16-3.93C1080.19,796.12,1085.55,800.2,1087.38,798Z"/><path class="cls-1" d="M843.42,798.54c1.82-.09,3.64-.24,5.47-.25,2.5,0,5.28.12,5.42,3.39.14,3.09-2.79,2.69-4.72,3q-16.65,2.55-33.35,4.88c-2.5.35-5,.26-5.39-3.2s2-3.76,4.58-4.12c9.31-1.31,18.62-2.7,27.93-4.06Z"/><rect class="cls-2" width="1" height="1"/><rect class="cls-2" x="1919" y="1079" width="1" height="1"/><rect class="cls-2" y="1079" width="1" height="1"/><rect class="cls-2" x="1919" width="1" height="1"/></g><g id="Capa_3" data-name="Capa 3"><path d="M835,481.41v111H815.19V521.7l-19.51,14.91L779.5,549.14l-16.18-12.53L743.81,521.7v70.74H724v-111l19.83,15.23,35.69,27.44,35.69-27.44Z"/><path d="M888.94,518.37v75.5H869.11V516.3a15.81,15.81,0,0,0-13.48-13.48h-4.44V483.15h4.28v.16A35.55,35.55,0,0,1,869,487a35.17,35.17,0,0,1,16,16.18,42.55,42.55,0,0,1,2.7,7.45,33.53,33.53,0,0,1,1,8.09Z"/><path d="M942.54,518.37v75.5H922.72V516.3a15.83,15.83,0,0,0-13.48-13.48h-4.45V483.15h4.29v.16A35.55,35.55,0,0,1,922.56,487a35.17,35.17,0,0,1,16,16.18,42.55,42.55,0,0,1,2.7,7.45,33.53,33.53,0,0,1,1,8.09Z"/><path d="M1060.08,537.08a32.76,32.76,0,0,1-23.48,55.52H991.08a32.59,32.59,0,0,1-30.14-20,34.41,34.41,0,0,1-2.54-12.84,32.67,32.67,0,0,1,9.2-22.85,31.13,31.13,0,0,1-6.82-10,34.46,34.46,0,0,1-2.53-12.85,32.2,32.2,0,0,1,32-32.83h46.47a32.87,32.87,0,0,1,23,55.67Zm-24.27-9.67a12.94,12.94,0,0,0,.47-25.86H989.49a12.94,12.94,0,0,0,.32,25.86h46Zm.16,45.52a13.07,13.07,0,0,0,13-13,12.92,12.92,0,0,0-12.21-13H990.29a12.89,12.89,0,0,0-12.22,12.85,13.07,13.07,0,0,0,13,13h45.52Z"/><path d="M1195.53,572.93v19.83H1084.81V560.08a31.62,31.62,0,0,1,2.7-12.84,32.57,32.57,0,0,1,28.87-20h48.06a13,13,0,0,0-1.11-25.85h-78.2V481.57h78.2A32.62,32.62,0,0,1,1196,514.24a32.33,32.33,0,0,1-9.35,22.68,33,33,0,0,1-22.37,10h-47.9a12.91,12.91,0,0,0-11.58,12.85v12.84Z"/></g></g></svg>