<svg xmlns="http://www.w3.org/2000/svg" viewBox="0 0 1920 1080"><defs><style>.cls-1{fill:#020202;}.cls-2{fill:#f2f2f2;}</style></defs><g id="Capa_2" data-name="Capa 2"><g id="Capa_1-2" data-name="Capa 1"><path class="cls-1" d="M992.26,421.75c-5-2.79-10.56-4.14-16.11-5.33-7.69-1.62-17.43-.49-16.2-14-5,11.31-5,11.31-17.93,14.81-27.68,7.46-47.22,31.67-49,60.71-1.84,29.57,14.68,56.83,41,67.29,27.7,11,56.6-1.52,56.6-1.52,25.34-11.66,38.51-33.23,38.74-60.78C1029.53,455.76,1016.34,435.07,992.26,421.75Zm-52.37,64.1c-2.57-.09-.25-7.58-.89-11.64-.34-2.15.13-4.44,3.21-4.08,4.18.51,5.18-1.58,4.91-5.28s2.07-4.44,5.2-4.39c3.3.06,5,1.4,4.91,4.84-.1,5.7,0,11.39,0,17.09h.39c0,5.69-.14,11.38,0,17.06.13,4-1.84,5-5.48,5.12-4.14.17-4.74-1.7-5.12-5.32C946.51,494.16,951.32,486.27,939.89,485.85Zm-7.36-18.58c-.06,11.38,0,22.75,0,34.12,0,4.5-.44,9,5.65,10.57a4.79,4.79,0,0,1,3,7.21c-2.63,3.84-5.13-.07-7.21-1.69-11.55-9-17.4-20.93-17.52-36.59.51-13.72,7-25.29,18.26-34.41,1.59-1.29,3.65-3.31,5.26-1.17s1.69,6-1.09,7C931.19,455.22,932.56,461.46,932.53,467.27Zm24.53-21.47c0,4,1.75,8.36-4.81,8.42-4.9,0-5.16-2.68-5-6.21.14-4.39-.62-9.63,5.95-9.73C959.37,438.18,956,443.44,957.06,445.8Zm-9.8,70.57c.31-2.92.67-5.3,4.32-5.5S957.24,512,957,516c-.12,1.68-.57,4,1.84,4.34s2.75-2,2.56-3.73c-.59-5.43,2.57-5.45,6.62-5.34s6.28,1.1,6,5.56c-.25,3.69,1.35,8.21-4.36,9.2-3.22.56-6.51.81-8.19,1C948.55,527.1,946.33,525.14,947.26,516.37ZM966,437.89c7.16,0,8,4.2,8.23,9.78.26,5.41-2.68,6.13-7.11,6.52-7.1.61-5.52-4.23-5.86-8.21C962.47,443.17,958.85,437.91,966,437.89Zm23.26,63.88c-.06-6.58,0-13.15,0-19.75h.09c0-6.57.08-13.15,0-19.72-.09-4.23,0-8-6.36-8.6-4.9-.49-3.86-6-2.57-8.75,1.47-3.15,4-.13,5.76,1,25.16,17,25.58,55.23.79,72.69-2,1.37-4.62,4.69-6.49,1.42-1.4-2.46-2.9-7.75,2.52-8.59C989.28,510.52,989.25,506.44,989.21,501.77Zm-8.93-38.16c.2-.48.83-.75,2.36-2.06v43c-5.66-6.2.64-15.07-7.36-19.43-1.85,4.29-1.33,8.44-1.07,12.41.33,4.88-1.17,6.89-6.42,7.11-5.59.23-6.49-2.32-6.43-6.91.14-10.48.09-21,0-31.43,0-3.33.29-6.15,4.68-5.62,3,.36,6.78-1.39,8,3.48.55,2.11-1.71,6.27,2.81,6C980.5,469.87,979.25,465.88,980.28,463.61Zm-12.89,79.84c-3.23.39-6.18.68-6.55-3.68-.34-4,1.47-6,5.6-6.37,14.51-1.31,26.16-8,35.08-19.37a51.19,51.19,0,0,0-8.23-71.56c-4.62-3.77-10.31-6.06-14.15-10.91-2.83-3.55-6.1.94-9.13.07-8.17-2.33-16.61,1.92-24.73-1.11-.51-.19-1.38-.31-1.68,0-13.48,12.3-30.24,21.8-33.18,42.61-2.78,19.7,3,35.87,17.6,49.11,7.13,6.44,15.72,9.62,25.07,10.85,5.08.67,4.24,4.25,4,7.36-.3,4.13-3.17,3.24-6,2.77-31.41-5.34-53.59-34.49-50.87-67,2.55-30.36,29.75-55,60.62-54.95,32.56.06,59.5,26.06,61.52,59.33C1024.24,510.9,999,539.73,967.39,543.45Zm24.87-121.7c-5-2.79-10.56-4.14-16.11-5.33-7.69-1.62-17.43-.49-16.2-14-5,11.31-5,11.31-17.93,14.81-27.68,7.46-47.22,31.67-49,60.71-1.84,29.57,14.68,56.83,41,67.29,27.7,11,56.6-1.52,56.6-1.52,25.34-11.66,38.51-33.23,38.74-60.78C1029.53,455.76,1016.34,435.07,992.26,421.75Zm-52.37,64.1c-2.57-.09-.25-7.58-.89-11.64-.34-2.15.13-4.44,3.21-4.08,4.18.51,5.18-1.58,4.91-5.28s2.07-4.44,5.2-4.39c3.3.06,5,1.4,4.91,4.84-.1,5.7,0,11.39,0,17.09h.39c0,5.69-.14,11.38,0,17.06.13,4-1.84,5-5.48,5.12-4.14.17-4.74-1.7-5.12-5.32C946.51,494.16,951.32,486.27,939.89,485.85Zm-7.36-18.58c-.06,11.38,0,22.75,0,34.12,0,4.5-.44,9,5.65,10.57a4.79,4.79,0,0,1,3,7.21c-2.63,3.84-5.13-.07-7.21-1.69-11.55-9-17.4-20.93-17.52-36.59.51-13.72,7-25.29,18.26-34.41,1.59-1.29,3.65-3.31,5.26-1.17s1.69,6-1.09,7C931.19,455.22,932.56,461.46,932.53,467.27Zm24.53-21.47c0,4,1.75,8.36-4.81,8.42-4.9,0-5.16-2.68-5-6.21.14-4.39-.62-9.63,5.95-9.73C959.37,438.18,956,443.44,957.06,445.8Zm-9.8,70.57c.31-2.92.67-5.3,4.32-5.5S957.24,512,957,516c-.12,1.68-.57,4,1.84,4.34s2.75-2,2.56-3.73c-.59-5.43,2.57-5.45,6.62-5.34s6.28,1.1,6,5.56c-.25,3.69,1.35,8.21-4.36,9.2-3.22.56-6.51.81-8.19,1C948.55,527.1,946.33,525.14,947.26,516.37ZM966,437.89c7.16,0,8,4.2,8.23,9.78.26,5.41-2.68,6.13-7.11,6.52-7.1.61-5.52-4.23-5.86-8.21C962.47,443.17,958.85,437.91,966,437.89Zm23.26,63.88c-.06-6.58,0-13.15,0-19.75h.09c0-6.57.08-13.15,0-19.72-.09-4.23,0-8-6.36-8.6-4.9-.49-3.86-6-2.57-8.75,1.47-3.15,4-.13,5.76,1,25.16,17,25.58,55.23.79,72.69-2,1.37-4.62,4.69-6.49,1.42-1.4-2.46-2.9-7.75,2.52-8.59C989.28,510.52,989.25,506.44,989.21,501.77Zm-8.93-38.16c.2-.48.83-.75,2.36-2.06v43c-5.66-6.2.64-15.07-7.36-19.43-1.85,4.29-1.33,8.44-1.07,12.41.33,4.88-1.17,6.89-6.42,7.11-5.59.23-6.49-2.32-6.43-6.91.14-10.48.09-21,0-31.43,0-3.33.29-6.15,4.68-5.62,3,.36,6.78-1.39,8,3.48.55,2.11-1.71,6.27,2.81,6C980.5,469.87,979.25,465.88,980.28,463.61Zm-12.89,79.84c-3.23.39-6.18.68-6.55-3.68-.34-4,1.47-6,5.6-6.37,14.51-1.31,26.16-8,35.08-19.37a51.19,51.19,0,0,0-8.23-71.56c-4.62-3.77-10.31-6.06-14.15-10.91-2.83-3.55-6.1.94-9.13.07-8.17-2.33-16.61,1.92-24.73-1.11-.51-.19-1.38-.31-1.68,0-13.48,12.3-30.24,21.8-33.18,42.61-2.78,19.7,3,35.87,17.6,49.11,7.13,6.44,15.72,9.62,25.07,10.85,5.08.67,4.24,4.25,4,7.36-.3,4.13-3.17,3.24-6,2.77-31.41-5.34-53.59-34.49-50.87-67,2.55-30.36,29.75-55,60.62-54.95,32.56.06,59.5,26.06,61.52,59.33C1024.24,510.9,999,539.73,967.39,543.45Zm777.17-88.88c0-29.44-9.35-35.44-9.35-35.44-5.25-4.29-11.35-4.77-17.77-4.71-14.68.13-29.37,0-44.06,0A52.58,52.58,0,0,1,1650,409c-67.92-33.29-136.87-64.25-207.61-91.13-4.54-1.74-7.73-3-4.79-8.75,1.88-3.62.19-6.31-3.67-7.55q-35-11.16-69.93-22.37c-4-1.28-7.16-.89-8.77,3.38s-4.07,4.42-8.36,3.13c-105-31.63-212.12-51.39-321.92-55.46-18.21-.68-18.5-1-21.68-18.5-1.14-6.33-4.2-8.74-10.14-8.8L939,202.66c-20.29.21-20.56.15-24.23,19.66-1.27,6.81-3.89,8.94-11,8.88-39.82,0-119.2,8.32-119.2,8.32-71.64,9.23-141.75,25.54-211,45.86-4.19,1.23-7.74,3.46-9.39-3.25-1-4-5-3.75-8.25-2.75q-35.46,11-70.86,22.29c-4.05,1.29-4.76,4.51-3.08,7.93,2.1,4.22,1.27,6.08-3.33,7.84-71.37,27-141,58.05-209.33,91.82a48,48,0,0,1-21.64,5.16c-14.07,0-28.16.16-42.24,0-8.81-.08-17.38.27-25.9,8.63-2.81,2.49-4.05,8.61-4.05,8.61v63.8c-.05,28.69-2,57.58,11.94,84.25,8.58,9.43,15.69,20.08,26.07,28,25.57,19.53,54.69,22.82,85.25,19.54,10.27-1.09,13.66-6,15.85-18.62-.12-12.53-.12-25.07-.37-37.62-.11-5.65,1.9-10,7-12.45s9.77-.27,13.06,3.16c8,8.35,17.66,10.1,28.61,9.52,10.43-.56,20.92-.17,31.38-.17,15.34,0,16.91,1.08,21.88,15.59,1,3.07,1.66,6.3,2.49,9.44,9.4,22.78,16.42,46.38,24.44,69.63q11.63,33.54,23.26,67.08c11.27,32.8,29.71,61.1,53.89,85.8,23.65,20.86,49.9,37.35,79.93,47.46l20.07,6.1C684.62,887.42,745.2,864,745.2,864c23.13-6.72,46.81-12.05,70.9-14.76,26.85-6,54.23-7.68,81.51-10.27,4.45-.44,8.91-.77,13.37-1,1.41-.07,3.93,0,4.09.5,3.07,10.41,11.55,5.29,17.73,6.11l49-.27c7.94-.32,18,5.07,23.51-6,.25-.48,1.72-.66,2.52-.48,9.1,1.91,18.57,0,27.6,2.71a612.21,612.21,0,0,1,122.28,20c20.73,4.27,41.36,9.17,62.23,12.7a208.19,208.19,0,0,0,230.14-132.3c9.23-24.56,17.68-49.42,26.47-74.15,9.72-28.51,19.59-57,29-85.57,2.38-7.14,6.91-10,13.94-10,12.88,0,25.77-.43,38.62.06,10.1.39,18.85-1.68,26.36-8.81,3.92-3.73,8.65-7,14.46-3.63,5.21,3,6.59,8.1,6.56,13.82-.06,12.27-.2,24.56.13,36.83.29,10.83,6.26,17.86,16.84,18.47,21.58,1.26,43,.84,63.47-8.13,18.12-8,31.67-21.09,43.43-36.48,12-20.54,15.38-42.77,15.11-66.34C1744.54,516.94,1744.56,484,1744.56,454.57ZM1010.49,247c.35-5.6,4.91-3,7.47-2.9,83.86,3.3,166.7,14.1,248.16,34.58,24.29,6.12,48.49,12.66,72.7,19.14,2.74.73,6.76.73,7.37,4.07.76,4-2.94,5.36-6.17,6.32-1.55.45-2.93,1-2.65,2.87,1.81,12-6.88,9.31-12.62,8.11-15.76-3.3-31.45-7.08-46.91-11.56-25.21-7.29-50.68-11-77-10.14-23.92.75-47.9.16-71.85.16v.08c-33.54,0-67.06-.17-100.59.15-6.08.06-8.37-1.93-9.21-7.71a219.54,219.54,0,0,0-4.76-22.76c-1.29-5,.26-6.4,5.15-5.93a121,121,0,0,0,13.47.28c2.2,0,5.45.83,5.71-2.59.29-3.81-3.23-3.83-5.75-4.06a97.11,97.11,0,0,0-15.23-.59C1011.92,254.91,1010.2,251.78,1010.49,247Zm-98.27,21.83c.88-4.52,1.65-7.88,7.22-7.91,1.79,0,4.31-.42,4.57-3.33.32-3.39-2.16-3-4.13-3-4.42,0-3.8-2.9-3.26-5.56,2.33-11.73,4.85-23.4,7.07-35.15.48-2.57,1.67-3.62,4-3.86l65.58.18c6.91,4,4.62,16.64,7.2,24.79a87.5,87.5,0,0,1,2.59,13.14c.3,1.94,1.7,4.76-.59,5.79-9.33,4.23-7,6.28,1.17,7.49,3.48.52,2.81,3.25,3.26,5.47,5.32,25.73,10.79,51.41,15.88,77.17,2.1,10.68,7.13,18.65,16.91,23.91,18.16,9.75,36.1,19.93,54.18,29.84,4.15,2.28,6.9,4.67,6.87,10.25-.29,50.6-.55,101.23,0,151.83.11,9.91-3.92,12.55-12.32,12.56-15.88.05-31.76.15-47.64.18-18,0-35.94-.13-53.91.14H932.31c-31.45-.29-62.91-.14-94.36-.14l-2.7,0c-15.67-.42-15.89-.57-15.92-16-.07-49.41,0-98.83-.26-148.23,0-5.35,2-8.1,6.42-10.49,18.12-9.85,36-20.2,54.2-29.86,9.79-5.2,15.15-12.85,17.25-23.57C901.88,319.15,907.3,294,912.22,268.83Zm-333,29.64c29.16-8.73,58.67-16.17,88.29-23.25,76.74-18.34,154.69-27.59,233.37-31.06,2.75-.13,8.36-3.8,8.61,3.43.22,6.27-3.8,7-8.91,7a142.83,142.83,0,0,0-14.27,1.13c-2.25.22-4.19.9-3.78,3.8.36,2.48,2.37,2.22,4.1,2.35.88.07,1.79-.09,2.68,0,5.5.7,13.28-3.19,15.89,1.12,2.17,3.56-1.43,10.67-2.55,16.19-3.78,18.5-3.8,18.46-22.41,18.46-58.41,0-116.81.45-175.19-.13-24.08-.25-46.63,6-69.46,12-14.14,3.68-28.37,7-42.63,10.21-3.43.77-7.33.89-10.06-2s.65-5.35,2-9c-2.37-.22-3.8-.31-5.23-.48-3.31-.39-6-2.09-6.23-5.43C573.05,299,576.92,299.14,579.18,298.47ZM906.43,824c-7.95.58-15.95.69-23.93,1-2.85,1.45-5.88,1.35-8.94,1l-24.95,2.69c-3.48,1.54-7.18,1.63-10.89,1.6-47.09,7.3-93,20.59-139.8,28.82-51.66,9.08-99.66-2.21-143.23-31.62a57.36,57.36,0,0,1-5.34-4.65,167,167,0,0,1-60.42-74c-21.52-50.81-37-103.88-54.84-156.07-1.72-1.32-.74-3.36-1.29-5-9.49-27-15.46-31.11-44.71-30.7-7.18.1-14.39-.12-21.57.19-9.33.4-17.59-1.67-24.95-7.87-8.37-7.07-17.83-7.78-27.69-2.88-10.08,5-13.56,13.76-13.86,24.34-.1,3.57-.26,7.17-.39,10.75.1,8.63.19,17.27.32,25.89,0,3.33-.66,5.85-4.73,6.07-30.68,1.68-59.69-1.83-82.13-26.07a23.19,23.19,0,0,1-1.54-2.14c-13.59-13.79-21-30.5-21.35-49.7-.58-31.74-.12-63.48-.45-95.23-.07-8.4,3.07-12,11.59-11.8,13.47.31,27-.13,40.44.08a82.74,82.74,0,0,0,38.88-9.08Q377.1,371.91,477.5,333c1.66-.65,3.42-1.12,5-1.89,5.21-2.49,7.57-1.17,8.05,4.86,1.07,13.41-4,20.08-18.41,23.09-.9-4,7-6.55,2.95-9.69-3.63-2.86-7.65,1.88-10.7,4.26-12.94,10-25,21-39.46,29.32-9.93,5.7-14.88,16.69-15.06,28.27-.28,16.79-2.12,33.45-2.76,50.19-.33,9.21-.79,18.54,3.92,27.16a10.66,10.66,0,0,1,1.23,6.91c-3.81,15.11,4.08,27.46,10.14,39.73,3.68,7.46,7.08,13.89,8.07,22.73,1.32,11.88,6.07,23.63,12.57,34.21,5.32,2.91,7.12,8.12,7.65,13.46,1.67,16.24,5.52,31.45,16.52,44.23a14.94,14.94,0,0,1,3.48,9c-.15,16.88,7.26,30.7,16.51,44,2.86,4.09,5.19,8.48,3.58,14.15-1.87,6.58,1.86,12.39,4.71,17.78A342.37,342.37,0,0,0,534.09,793c4.33,5.22,13.27,3.94,14.92,12,1.09-.25,3-.26,3.15-.79,2.36-8,7.21-3.27,10.86-1.91,13.19,4.91,27,5.09,40.68,5.36,17.61.36,35.22.49,52.84.73,37.63-.24,75.28-.54,112.92-.63,17.93,0,35.86.35,53.78.55,12.16-1.56,24.33-.84,38-.45-7.41,4.89-14.45,3.48-21,4.37-2.95.39-6.5.21-6.08,4.65s3.95,2.4,6.28,2.44c3.28.06,6.57-.18,9.84-.3l3.38-.87c4.62-.88,9.24-1.85,13.89-2.59,2.64-.44,5.67-.25,6.1-3.78.81-6.54,5.72-3.47,9-3.87,4.33-.55,8.53-.29,9.16,5.55,4.72,0,9.46-.16,14.19,0a8.19,8.19,0,0,1,8.19,7.87C914.23,825.94,909.19,823.81,906.43,824Zm89.89,5.4c-.16,8.1-2.88,9.69-9.82,8.43-2.61-.46-5.36-.16-8-.22l-52.67-.46c-1.52.2-1.89-.62-1.7-1.93-.55-4.44-.71-9-1.77-13.3,0,0-.24-10.64-8.24-18.47s-101.42-3.74-101.42-3.74q-52.2,1.5-104.38,0c-42.72.54-85.44,1.7-128.12-.64-7.1-.37-14-3-20.59-5.79-3-1.29-5.71-2.7-6.3-6.77-.51-3.43-.74-11.18-6.23-2-1.19,2-3.71.06-5.36-1.32-13.75-11.38-25.26-24.39-30.75-41.84-10.14-24.06-19.12-48.56-27.51-73.29q-15.89-42-31.79-83.89c-10.88-30.56-25.08-59.94-31.92-91.91-4.31-20.1-4.52-40.63-2.27-60.65,1.17-10.46,9.66-20,14.43-30.19,1.71-3.65,6.58-6.86,2.94-11.93-9.13,5.07-11,15.62-17.47,22.73.61-11.38,5.45-20.28,15.53-26.13,15.18-8.38,31.4-14.48,47.19-21.49,8.88-3.94,16.38-8.75,18.14-19.21.53-3.19,2.82-3.93,5.62-4.82,7.39-2.35,14.62-5.18,21.9-7.87,2.32-.86,5-2.19,4.21-4.94-.93-3.22-4-3.12-6.74-2.12C516.44,328,509.65,330.35,503,333c-3.58,1.44-5.71.89-6.55-3a8.52,8.52,0,0,0-.22-.87c-7.23-20.92-7.23-20.91,14.1-27.76,13.34-4.29,26.76-8.36,39.94-13.1,5.91-2.11,9.68-2.27,11.11,4.94,1.21,6.06,8.39,12,5.29,17.07-2.34,3.8-10.63,3.94-16.28,5.71-5.2,1.64-8.91,3.55-4.54,10,1.45,2.15.76,5.83.79,8.81.1,6.88-.15,13.78.15,20.66.12,2.68-.33,7,3.82,6.8,3.6-.16,2.73-4.06,2.79-6.57.18-7.18-.19-14.38.29-21.54.28-4-2.9-10,3.06-11.74,6.55-2,13-7.6,20.54-.23,6.58,6.46,15.4,5.14,23.82,3.3,26.79-5.86,52.83-14.92,80-19.32a107.09,107.09,0,0,1,17-1.21c63.81-.08,127.63,0,191.45-.18,6.17,0,8.62.72,6.62,7.81-2.83,10-4.61,20.37-6.52,30.65-1.58,8.56-5.94,14.65-13.78,18.65-10.11,5.17-19.7,11.43-30,16.12-22,10-40.79,24.11-55.38,43.21-11,14.41-24.27,20.25-42.54,18.77-18.74-1.5-37.72-.14-56.59-.49-6.17-.11-7.95,1.9-8.53,8.06-2.27,23.89-3.32,47.66-.25,71.63,1,8,4.16,9.8,11.36,9.66,20.07-.39,40.16.14,60.22-.43,14.76-.44,25.76,4.89,34.35,17,7.21,10.18,14.49,20.53,24.18,28.71,9.65,4.6,19.85,5.73,30.42,5.65l232.73.08a111.28,111.28,0,0,0,24-2.34c9-4.15,15.34-11.22,21.33-18.74,3.9-4.93,8-9.74,11.44-15,7.31-11,17.55-15.46,30.55-15.33,20.35.23,40.74-.37,61.09,0,8.69.18,12.45-1.93,13.55-11.52,2.78-24,1.33-47.8-1.06-71.66-.56-5.61-4.14-5.68-8.24-5.68-23.07,0-46.13-.23-69.2.07-8.45.12-15.23-2.33-20.43-9-.19-.23-.45-.4-.63-.63-21.43-27.11-48.48-47.1-80.08-60.43-19.82-8.36-30.19-22-31.56-43.24a63.29,63.29,0,0,0-2.95-14.89c-2-6.19.54-6.84,5.9-6.82,65.61.17,131.22,0,196.82.24,21.79.09,42,8.64,63,13.14,9.33,2,18.55,4.55,27.76,7.06,10.4,2.81,20.07,2.51,28.46-5.39,6-5.62,11.17.78,16.59,1.71,4.33.75,3.47,5.5,3.42,9.11-.11,8.09-.27,16.19,0,24.26.11,2.63-.88,7.12,3.24,7.24,4.65.13,2.83-4.42,3-7,.34-6.86.18-13.76.22-20.66,0-4.05-.9-8,3.36-11.28,3.94-3.07.34-5.2-2.53-6.2q-8-2.83-16.26-4.94c-4.1-1.06-5.91-2.77-3.36-6.86.32-.5.55-1.08.9-1.56,3.85-5.16,2.36-14.81,8.91-16.3,5.27-1.2,11.81,3,17.76,4.91,14.49,4.58,28.86,9.54,43.48,13.65,5.3,1.49,6,3.46,4.19,8.13-2.52,6.34-2.78,15.15-7.3,18.73-4.7,3.7-11.49-3.87-18-4.75-3.69-.51-7.23-2.15-12.14-.26,6.69,7.52,15.49,8.81,23.19,11.94,4.06,1.65,7.16,2.82,8,8,1.39,8.57,8.3,12.78,15.56,16,13.9,6.24,27.91,12.21,41.82,18.44,3.17,1.42,6.76,2.26,9.06,5.26,9.12,5.81,13.73,14.14,13.36,25.34l-13.46-21.43c-7.89.1-3,4.85-2,6.93,4.23,9.17,8.9,18.15,13.65,27.07a27.91,27.91,0,0,1,3,12c2,34.81-3.38,68.25-17.26,100.37-6.23,14.44-11.47,29.32-17.17,44-10.07,29-20.77,57.83-32.38,86.29-10,28.65-19.82,57.43-32.47,85.07-5,11-13.25,19.78-22.57,27.49-7.6,6.28-7.56,6.36-14-.69-1.64,18.55-17.2,15.88-28.66,19-5.36,1.45-11.29,1.17-17,1.19q-79.4.12-158.78.07a45.4,45.4,0,0,1-5.3-.57c-39.52,1.13-79.06.73-118.6-.13-5,.35-10.11.57-15.14,1.08C1006,802.31,996.7,811.34,996.32,829.42ZM811.55,408.48V562.43c-7.58-9.52-13.85-17-19.76-24.86-7.72-10.21-17.59-15.83-30.58-15.79-20.06,0-40.15-.62-60.17.16-8.62.33-11.29-2.42-12-10.55-1.9-20.37-.93-40.62,1-60.91.47-4.85,3.75-3.66,6.53-3.68,21,0,41.93-.35,62.89.09,12.68.26,22.47-4.22,30.41-14C796.21,425,803.26,417.72,811.55,408.48Zm296.63,154.63V408.87c8.52,9.36,16.07,16.88,22.68,25.15,7.14,8.93,16,12.88,27.2,12.81,21.56-.13,43.12.16,64.67-.16,5.37-.07,6.78,1.29,7.31,6.81,2,20.3,2.83,40.5.32,60.85-.8,6.52-3.38,7.52-9,7.43-20.36-.3-40.72,0-61.07-.18-13.62-.13-24.23,5.14-32.31,16.06C1121.92,545.77,1115.54,553.65,1108.18,563.11Zm621.49-25.89c-.9,19.49-9.22,36-23,49.8-13.36,14.62-29.66,23.76-49.52,25.57-10.38.94-20.85.77-31.27,1.32-4.72.25-6.34-1.7-6.17-6.27.33-8.64.3-17.27.43-25.92-.16-4.47-.21-8.94-.49-13.41-1.26-20.19-22.69-32.3-38.75-20.25-11.49,8.62-23,9.52-35.93,9.21-9.54-.23-19.1.37-28.65.5-12,.16-19.32,6.69-23.69,17.22-2.44,5.91-4.17,12.14-7.81,17.52.41,8.36-4,15.43-6.46,23-5.37,16.46-11.43,32.69-17.21,49-13.18,37.36-21.41,76.87-44.46,110.06-43.32,62.37-103.25,91.73-179.24,86.38-35.06-2.48-68.44-14.11-102.69-21-3.78-.77-7.49-1.85-11.24-2.78-23.63-3.23-47-8-70.88-9.8-13.4-1-26.81-1.84-40.2-3-2.74-.23-7.74,1.91-7.3-3.58.3-3.92,3.13-7.43,7.72-7.3,8.36.26,16.67,1.15,25,1.57,3.85.2,8.59,2,8.82-5.1.08-2.35,16.68-3.63,18.2-1.57a3.06,3.06,0,0,1,.42.8c2.78,8.27,3.43,8.4,14.69,9.91,15.29,2,30.76,3.24,45.32,9l10.77,2.11c1.82-1,5.47,1.37,5.62-2.5.11-3.21-2.76-4.17-5.44-5a269.26,269.26,0,0,0-57-10.94c-3.38-.26-7,.16-11.47-3.53h86.23q77.25-.24,154.53-.5c17-.07,34.13.15,50.36-6.46,1.35-.55,3.87-1.24,4.26-.71,7.09,9.82,11.53,0,14.94-3,22.25-19.42,38.9-43.54,48.13-71.21,3.81-11.43,7.17-22.65,12.8-33.43,5.86-11.2,10.77-23.06,10.67-36.2,5-8.65,10-17.26,13.25-26.81,2.06-6.14,4.87-12.14,5-18.76.23-9.2,4.52-16.28,11-22.34,4-12.43,9.51-24.27,10.33-37.8.58-9.26,9.46-15.59,12.07-24.73,2.67-9.36,8.09-18,5.51-28.4-.45-1.82.33-4.26,1.24-6.07,6.81-13.56,5.89-27.74,3.78-42.08-1.65-11.29-1.59-22.69-1.73-34.07-.21-17.06-7.68-30.1-22.92-37.72-11.84-5.91-20.19-15.84-30.28-23.72-3-2.32-5.86-6.48-9.87-5.19-4.41,1.41.35,6.7-2.48,9.43-13.76-5.17-17.64-11.6-15.09-25.29,1-5.51,4.56-3.39,7.53-2.17,25.73,10.44,51.58,20.64,77.15,31.51,43.48,18.45,86.46,38,128.65,59.28a65,65,0,0,0,29.41,6.94c15.58.07,31.17.21,46.74,0,7.43-.07,11,2.91,11.06,10.59C1730.39,472,1731.17,504.61,1729.67,537.22Zm-795.72,8c27.7,11,56.6-1.52,56.6-1.52,25.34-11.66,38.51-33.23,38.74-60.78.24-27.2-12.95-47.89-37-61.21-5-2.79-10.56-4.14-16.11-5.33-7.69-1.62-17.43-.49-16.2-14-5,11.31-5,11.31-17.93,14.81-27.68,7.46-47.22,31.67-49,60.71C891.15,507.54,907.67,534.8,934,545.26Zm5.94-59.41c-2.57-.09-.25-7.58-.89-11.64-.34-2.15.13-4.44,3.21-4.08,4.18.51,5.18-1.58,4.91-5.28s2.07-4.44,5.2-4.39c3.3.06,5,1.4,4.91,4.84-.1,5.7,0,11.39,0,17.09h.39c0,5.69-.14,11.38,0,17.06.13,4-1.84,5-5.48,5.12-4.14.17-4.74-1.7-5.12-5.32C946.51,494.16,951.32,486.27,939.89,485.85Zm-7.36-18.58c-.06,11.38,0,22.75,0,34.12,0,4.5-.44,9,5.65,10.57a4.79,4.79,0,0,1,3,7.21c-2.63,3.84-5.13-.07-7.21-1.69-11.55-9-17.4-20.93-17.52-36.59.51-13.72,7-25.29,18.26-34.41,1.59-1.29,3.65-3.31,5.26-1.17s1.69,6-1.09,7C931.19,455.22,932.56,461.46,932.53,467.27Zm24.53-21.47c0,4,1.75,8.36-4.81,8.42-4.9,0-5.16-2.68-5-6.21.14-4.39-.62-9.63,5.95-9.73C959.37,438.18,956,443.44,957.06,445.8Zm-9.8,70.57c.31-2.92.67-5.3,4.32-5.5S957.24,512,957,516c-.12,1.68-.57,4,1.84,4.34s2.75-2,2.56-3.73c-.59-5.43,2.57-5.45,6.62-5.34s6.28,1.1,6,5.56c-.25,3.69,1.35,8.21-4.36,9.2-3.22.56-6.51.81-8.19,1C948.55,527.1,946.33,525.14,947.26,516.37ZM966,437.89c7.16,0,8,4.2,8.23,9.78.26,5.41-2.68,6.13-7.11,6.52-7.1.61-5.52-4.23-5.86-8.21C962.47,443.17,958.85,437.91,966,437.89Zm23.26,63.88c-.06-6.58,0-13.15,0-19.75h.09c0-6.57.08-13.15,0-19.72-.09-4.23,0-8-6.36-8.6-4.9-.49-3.86-6-2.57-8.75,1.47-3.15,4-.13,5.76,1,25.16,17,25.58,55.23.79,72.69-2,1.37-4.62,4.69-6.49,1.42-1.4-2.46-2.9-7.75,2.52-8.59C989.28,510.52,989.25,506.44,989.21,501.77Zm-8.93-38.16c.2-.48.83-.75,2.36-2.06v43c-5.66-6.2.64-15.07-7.36-19.43-1.85,4.29-1.33,8.44-1.07,12.41.33,4.88-1.17,6.89-6.42,7.11-5.59.23-6.49-2.32-6.43-6.91.14-10.48.09-21,0-31.43,0-3.33.29-6.15,4.68-5.62,3,.36,6.78-1.39,8,3.48.55,2.11-1.71,6.27,2.81,6C980.5,469.87,979.25,465.88,980.28,463.61Zm-80,12.63c2.55-30.36,29.75-55,60.62-54.95,32.56.06,59.5,26.06,61.52,59.33,1.84,30.28-23.44,59.11-55,62.83-3.23.39-6.18.68-6.55-3.68-.34-4,1.47-6,5.6-6.37,14.51-1.31,26.16-8,35.08-19.37a51.19,51.19,0,0,0-8.23-71.56c-4.62-3.77-10.31-6.06-14.15-10.91-2.83-3.55-6.1.94-9.13.07-8.17-2.33-16.61,1.92-24.73-1.11-.51-.19-1.38-.31-1.68,0-13.48,12.3-30.24,21.8-33.18,42.61-2.78,19.7,3,35.87,17.6,49.11,7.13,6.44,15.72,9.62,25.07,10.85,5.08.67,4.24,4.25,4,7.36-.3,4.13-3.17,3.24-6,2.77C919.72,537.85,897.54,508.7,900.26,476.24Z"/><path class="cls-2" d="M1503.19,437.36a27.91,27.91,0,0,0-3-12c-4.75-8.92-9.42-17.9-13.65-27.07-1-2.08-5.85-6.83,2-6.93L1502,412.83c.37-11.2-4.24-19.53-13.36-25.34-2.3-3-5.89-3.84-9.06-5.26-13.91-6.23-27.92-12.2-41.82-18.44-7.26-3.26-14.17-7.47-15.56-16-.84-5.22-3.94-6.39-8-8-7.7-3.13-16.5-4.42-23.19-11.94,4.91-1.89,8.45-.25,12.14.26,6.48.88,13.27,8.45,18,4.75,4.52-3.58,4.78-12.39,7.3-18.73,1.84-4.67,1.11-6.64-4.19-8.13-14.62-4.11-29-9.07-43.48-13.65-6-1.88-12.49-6.11-17.76-4.91-6.55,1.49-5.06,11.14-8.91,16.3-.35.48-.58,1.06-.9,1.56-2.55,4.09-.74,5.8,3.36,6.86q8.22,2.1,16.26,4.94c2.87,1,6.47,3.13,2.53,6.2-4.26,3.32-3.33,7.23-3.36,11.28,0,6.9.12,13.8-.22,20.66-.13,2.54,1.69,7.09-3,7-4.12-.12-3.13-4.61-3.24-7.24-.29-8.07-.13-16.17,0-24.26,0-3.61.91-8.36-3.42-9.11-5.42-.93-10.62-7.33-16.59-1.71-8.39,7.9-18.06,8.2-28.46,5.39-9.21-2.51-18.43-5.07-27.76-7.06-21-4.5-41.17-13.05-63-13.14-65.6-.24-131.21-.07-196.82-.24-5.36,0-7.9.63-5.9,6.82a63.29,63.29,0,0,1,2.95,14.89c1.37,21.2,11.74,34.88,31.56,43.24,31.6,13.33,58.65,33.32,80.08,60.43.18.23.44.4.63.63,5.2,6.64,12,9.09,20.43,9,23.07-.3,46.13-.06,69.2-.07,4.1,0,7.68.07,8.24,5.68,2.39,23.86,3.84,47.64,1.06,71.66-1.1,9.59-4.86,11.7-13.55,11.52-20.35-.42-40.74.18-61.09,0-13-.13-23.24,4.28-30.55,15.33-3.46,5.23-7.54,10-11.44,15-6,7.52-12.37,14.59-21.33,18.74a111.28,111.28,0,0,1-24,2.34l-232.73-.08c-10.57.08-20.77-1-30.42-5.65-9.69-8.18-17-18.53-24.18-28.71-8.59-12.13-19.59-17.46-34.35-17-20.06.57-40.15,0-60.22.43-7.2.14-10.33-1.68-11.36-9.66-3.07-24-2-47.74.25-71.63.58-6.16,2.36-8.17,8.53-8.06,18.87.35,37.85-1,56.59.49,18.27,1.48,31.55-4.36,42.54-18.77C805,402.09,823.84,388,845.82,378c10.3-4.69,19.89-11,30-16.12,7.84-4,12.2-10.09,13.78-18.65,1.91-10.28,3.69-20.63,6.52-30.65,2-7.09-.45-7.84-6.62-7.81-63.82.18-127.64.1-191.45.18a107.09,107.09,0,0,0-17,1.21c-27.13,4.4-53.17,13.46-80,19.32-8.42,1.84-17.24,3.16-23.82-3.3-7.49-7.37-14-1.74-20.54.23-6,1.78-2.78,7.7-3.06,11.74-.48,7.16-.11,14.36-.29,21.54-.06,2.51.81,6.41-2.79,6.57-4.15.17-3.7-4.12-3.82-6.8-.3-6.88,0-13.78-.15-20.66,0-3,.66-6.66-.79-8.81-4.37-6.46-.66-8.37,4.54-10,5.65-1.77,13.94-1.91,16.28-5.71,3.1-5-4.08-11-5.29-17.07-1.43-7.21-5.2-7.05-11.11-4.94-13.18,4.74-26.6,8.81-39.94,13.1-21.33,6.85-21.33,6.84-14.1,27.76a8.52,8.52,0,0,1,.22.87c.84,3.93,3,4.48,6.55,3,6.65-2.66,13.44-5,20.18-7.39,2.77-1,5.81-1.1,6.74,2.12.79,2.75-1.89,4.08-4.21,4.94-7.28,2.69-14.51,5.52-21.9,7.87-2.8.89-5.09,1.63-5.62,4.82-1.76,10.46-9.26,15.27-18.14,19.21-15.79,7-32,13.11-47.19,21.49-10.08,5.85-14.92,14.75-15.53,26.13,6.5-7.11,8.34-17.66,17.47-22.73,3.64,5.07-1.23,8.28-2.94,11.93-4.77,10.17-13.26,19.73-14.43,30.19-2.25,20-2,40.55,2.27,60.65,6.84,32,21,61.35,31.92,91.91q15.88,41.94,31.79,83.89c8.39,24.73,17.37,49.23,27.51,73.29,5.49,17.45,17,30.46,30.75,41.84,1.65,1.38,4.17,3.31,5.36,1.32,5.49-9.18,5.72-1.43,6.23,2,.59,4.07,3.3,5.48,6.3,6.77,6.61,2.82,13.49,5.42,20.59,5.79,42.68,2.34,85.4,1.18,128.12.64q52.2,1.59,104.38,0s93.44-4.07,101.42,3.74,8.24,18.47,8.24,18.47c1.06,4.32,1.22,8.86,1.77,13.3-.19,1.31.18,2.13,1.7,1.93l52.67.46c2.69.06,5.44-.24,8,.22,6.94,1.26,9.66-.33,9.82-8.43.38-18.08,9.69-27.11,27.6-28.87,5-.51,10.1-.73,15.14-1.08,39.54.86,79.08,1.26,118.6.13a45.4,45.4,0,0,0,5.3.57q79.39,0,158.78-.07c5.66,0,11.59.26,17-1.19,11.46-3.12,27-.45,28.66-19,6.43,7.05,6.39,7,14,.69,9.32-7.71,17.53-16.49,22.57-27.49,12.65-27.64,22.43-56.42,32.47-85.07,11.61-28.46,22.31-57.26,32.38-86.29,5.7-14.7,10.94-29.58,17.17-44C1499.81,505.61,1505.22,472.17,1503.19,437.36ZM547.65,379.07c.19-1.83,1.7-2.43,3.27-2.09,2.16.47,2.51,2.35,2.52,4.19.06,5.67,0,11.35,0,17s0,11.36,0,17c0,1.87-.43,3.76-2.69,3.87a3.14,3.14,0,0,1-3.29-2.56A169.81,169.81,0,0,1,547.65,379.07Zm2.61,170.6c4,0,3.17,3.62,3.23,6.11.2,8.65.24,17.29.33,25.94-1.45,3.28,1.71,9.56-2.91,9.83-5.58.32-3.32-6.3-4.67-9.8.24-8.64.34-17.29.79-25.91C547.14,553.49,546.24,549.67,550.26,549.67Zm0,157.69c-3.47-.09-3.4-3.8-3.45-6.28-.18-9.83-.08-19.67-.08-29.51,1.74-2-.22-6.92,4.21-6.47,3.47.34,2.09,4.26,2.93,6.56-.13,9.85-.19,19.7-.43,29.54C553.34,703.68,554.15,707.44,550.24,707.36Zm3.13-60.9c0,1.84-.45,3.55-2.84,3.7s-3.13-1.7-3.27-3.41a204.37,204.37,0,0,1,.32-35.59c.14-1.51.87-2.9,2.75-2.9,2.22,0,3.16,1.3,3.16,3.39,0,6,0,11.91,0,17.85h-.1C553.39,635.16,553.43,640.81,553.37,646.46Zm0,112.75c0,2,.26,4.59-2.79,4.56-2.55,0-3.5-2-3.58-4.3-.31-8.3-.51-16.62-.74-24.92a7.54,7.54,0,0,1,.21-.85c1.44-3.81-1.92-11,3.68-11.09,6.12-.11,2,7.18,3.76,10.77C553.76,742,553.63,750.6,553.4,759.21Zm-.07-249.44c1,7,.16,14.33,0,21.51,0,1.81-.6,3.76-3,3.61-2.76-.19-3.28-2.75-3.34-4.62-.2-7.16.08-14.34,0-21.53,0-2.8,1.42-5.78-1.56-9.62-4.41,8.53-8.51,16-16.49,20.53-22.62,12.89-49.74-1.64-51-27.57-.26-5.38-.27-10.78,0-16.16a33.47,33.47,0,0,1,27.9-30.74c16.17-2.58,31.26,5.72,36.91,20.36.58,1.5,0,4.08,2.73,3.47,2.53-.55,1.41-2.88,1.44-4.46.14-8.07,0-16.15.27-24.22,0-1.89,0-4.6,3.1-4.51,2.84.09,3.13,2.33,3.13,4.51q0,16.62,0,33.22c0,1.53-.21,3.46-1.88,3.62-12.72,1.19-2,10.65-5.39,15.1-.1.11.17.75.3.76C559.1,494.28,552.49,503.93,553.33,509.77Zm815.55-32.44c-4,.32-2.81-3.16-2.91-5.13-.26-5.06-.09-10.11-.09-15.17h.12c0-5.66-.07-11.31,0-17,0-1.67-.36-4.1,1.8-4.47,2.64-.43,3.55,2.09,3.66,4,.32,5.63.31,11.3.32,17,0,5-.07,10.11-.21,15.17C1371.53,474,1372.42,477,1368.88,477.33Zm-2.69-97.77c.14-1.72,1-2.78,2.84-2.59,2.3.25,2.72,2.1,2.75,3.91.07,5.67,0,11.32,0,17h-.07c0,5.95,0,11.91,0,17.85,0,1.52-.4,3.13-2.2,3.42-2.19.33-3.28-1.15-3.55-3.06C1364.26,403.89,1365.2,391.72,1366.19,379.56Zm5.59,250.05c0,5.36.06,10.73,0,16.09,0,1.95.49,4.46-2.8,4.46-2.94,0-3.36-2.38-3.5-4.3a207.53,207.53,0,0,1,.65-34.81c.14-1.47.59-3.18,2.52-3s3,1.82,3,3.71c.09,6,0,11.92,0,17.87Zm0,129.21c0,2.3.28,5.23-3.14,5.29-2.9,0-2.81-2.68-3-4.62-1.12-11.26-.56-22.52.36-33.76.15-1.77.32-3.73,2.86-3.59,2.33.13,2.84,1.94,2.86,3.75.11,5.63,0,11.27,0,16.91h0C1371.85,748.14,1371.91,753.49,1371.82,758.82Zm-3-51.55c-4.1-.07-3.33-4.55-3.39-7.17-.21-10.75,0-21.5.06-32.27,2.36-5,4.51-3.49,6.56.24,0,10.75,0,21.51-.29,32.26C1371.69,702.82,1373.49,707.36,1368.82,707.27Zm3.1-123.45c-.85,2.78,1.71,7.73-3.26,7.79-3.79,0-2.84-4.5-3.49-7.24-.2-.86-.36-1.74-.53-2.61.43-9.26.82-18.52,1.36-27.77.1-1.89-.33-4.64,2.94-4.44,3,.21,2.81,2.71,2.85,4.73.25,9.27.37,18.54.54,27.81C1372.19,582.67,1372.08,583.25,1371.92,583.82Zm69.27-85.43c-2.63,13.61-16,24.72-29.81,25.84-15.75,1.26-28.44-6.23-34.41-20.29-.9-2.11-1.13-4.63-5.13-6.68,0,11.33.11,21.37-.08,31.42,0,2.34,1,6.15-3.17,6.05-3.32-.07-2.9-3.51-2.92-5.62-.18-12.16-.09-24.31-.09-38.12,3.53,2.61,5.26,3.88,7.34,5.43.55-1.26,1.19-2,1.13-2.69a71.27,71.27,0,0,1,1.29-23.18c3.87-16.26,17.16-26.12,34.15-25.59,15.87.5,29.46,11.77,32,27.52A75.41,75.41,0,0,1,1441.19,498.39Z"/><path class="cls-1" d="M546.5,493c-.13,0-.4-.65-.3-.76,3.38-4.45-7.33-13.91,5.39-15.1,1.67-.16,1.88-2.09,1.88-3.62q0-16.6,0-33.22c0-2.18-.29-4.42-3.13-4.51-3.08-.09-3.05,2.62-3.1,4.51-.23,8.07-.13,16.15-.27,24.22,0,1.58,1.09,3.91-1.44,4.46-2.76.61-2.15-2-2.73-3.47-5.65-14.64-20.74-22.94-36.91-20.36A33.47,33.47,0,0,0,478,475.92c-.27,5.38-.26,10.78,0,16.16,1.23,25.93,28.35,40.46,51,27.57,8-4.55,12.08-12,16.49-20.53,3,3.84,1.55,6.82,1.56,9.62,0,7.19-.23,14.37,0,21.53.06,1.87.58,4.43,3.34,4.62,2.39.15,2.95-1.8,3-3.61.18-7.18,1.05-14.49,0-21.51C552.49,503.93,559.1,494.28,546.5,493Zm-59.67-24.68-.54-.08c.06-.07.1-.16.16-.23l-.06,0h.08c10.8-16.54,26.12-21,40.55-11.65,3.78,2.44,7,5.35,8.66,11.88-5.79-4.07-9.68-8.75-15.28-10.05-9.35-2.16-18.3-2-26.08,5-2.23,2-3.72,5.74-7.85,4.82,0,0,0,0,0,0Zm45.35,15.72a20.8,20.8,0,0,1-20.3,20.74c-10.51.1-20.75-9.92-21-20.54-.21-10,10.44-20.81,20.72-21C522.14,463.13,532,473.13,532.18,484.07Zm-44.87,16.18.26-.52c.17,0,.4-.06.49,0s.17.33.26.52C488,500.26,487.64,500.26,487.31,500.25Zm21.58,16.89c-9.5-.84-16.35-5.71-19.95-15,7,4.88,13.84,9.4,22.85,9.55,9.48.16,15.58-6.22,24.83-11.55C529.9,513,521.06,518.21,508.89,517.14Z"/><path class="cls-1" d="M550.91,591.55c-5.58.32-3.32-6.3-4.67-9.8.24-8.64.34-17.29.79-25.91.11-2.35-.79-6.17,3.23-6.17s3.17,3.62,3.23,6.11c.2,8.65.24,17.29.33,25.94C552.37,585,555.53,591.28,550.91,591.55Z"/><path class="cls-1" d="M553.46,398.18c0,5.68,0,11.36,0,17,0,1.87-.43,3.76-2.69,3.87a3.14,3.14,0,0,1-3.29-2.56,169.81,169.81,0,0,1,.2-37.44c.19-1.83,1.7-2.43,3.27-2.09,2.16.47,2.51,2.35,2.52,4.19C553.5,386.84,553.47,392.52,553.46,398.18Z"/><path class="cls-1" d="M1441.44,472.48c-2.49-15.75-16.08-27-32-27.52-17-.53-30.28,9.33-34.15,25.59a71.27,71.27,0,0,0-1.29,23.18c.06.68-.58,1.43-1.13,2.69-2.08-1.55-3.81-2.82-7.34-5.43,0,13.81-.09,26,.09,38.12,0,2.11-.4,5.55,2.92,5.62,4.17.1,3.13-3.71,3.17-6.05.19-10,.08-20.09.08-31.42,4,2.05,4.23,4.57,5.13,6.68,6,14.06,18.66,21.55,34.41,20.29,13.83-1.12,27.18-12.23,29.81-25.84A75.41,75.41,0,0,0,1441.44,472.48Zm-28.18-20.14c8.89,1.23,15.23,6.76,15.54,13.59-16.27-12.48-22.31-12.3-43.94,1.27C1388.35,456,1399.12,450.38,1413.26,452.34ZM1428.78,484c-.11,11.27-10.19,20.94-21.68,20.76-10.72-.17-19.53-9.43-19.53-20.48,0-11.41,9.22-20.93,20.26-20.93C1418.39,463.3,1428.86,473.63,1428.78,484Zm4.3,17a2.36,2.36,0,0,0-.13-.23l-.09.1c-9.39,18.9-33.93,22.45-46.24,6.66-.74-.94-2.84-1.59-1.11-3.45,1.06-1.11,1.76-.78,2.87.09,15,11.72,28.92,9.62,41.95-3.4.82-.83,1.84-1.25,2.62,0l0,0c-.1-.31-.21-.6-.32-.89l1.06.05-.74.84A2,2,0,0,1,1433.08,501Z"/><path class="cls-1" d="M1371.81,397.85h-.07c0,5.95,0,11.91,0,17.85,0,1.52-.4,3.13-2.2,3.42-2.19.33-3.28-1.15-3.55-3.06-1.71-12.17-.77-24.34.22-36.5.14-1.72,1-2.78,2.84-2.59,2.3.25,2.72,2.1,2.75,3.91C1371.85,386.55,1371.81,392.2,1371.81,397.85Z"/><path class="cls-1" d="M1371.92,583.82c-.85,2.78,1.71,7.73-3.26,7.79-3.79,0-2.84-4.5-3.49-7.24-.2-.86-.36-1.74-.53-2.61.43-9.26.82-18.52,1.36-27.77.1-1.89-.33-4.64,2.94-4.44,3,.21,2.81,2.71,2.85,4.73.25,9.27.37,18.54.54,27.81C1372.19,582.67,1372.08,583.25,1371.92,583.82Z"/><path class="cls-1" d="M1368.88,477.33c-4,.32-2.81-3.16-2.91-5.13-.26-5.06-.09-10.11-.09-15.17h.12c0-5.66-.07-11.31,0-17,0-1.67-.36-4.1,1.8-4.47,2.64-.43,3.55,2.09,3.66,4,.32,5.63.31,11.3.32,17,0,5-.07,10.11-.21,15.17C1371.53,474,1372.42,477,1368.88,477.33Z"/><path class="cls-1" d="M1371.76,700.33c-.07,2.49,1.73,7-2.94,6.94-4.1-.07-3.33-4.55-3.39-7.17-.21-10.75,0-21.5.06-32.27,2.36-5,4.51-3.49,6.56.24C1372,678.82,1372.08,689.58,1371.76,700.33Z"/><path class="cls-1" d="M1371.82,758.82c0,2.3.28,5.23-3.14,5.29-2.9,0-2.81-2.68-3-4.62-1.12-11.26-.56-22.52.36-33.76.15-1.77.32-3.73,2.86-3.59,2.33.13,2.84,1.94,2.86,3.75.11,5.63,0,11.27,0,16.91h0C1371.85,748.14,1371.91,753.49,1371.82,758.82Z"/><path class="cls-1" d="M1012.27,351c2.09,0,5.21-.74,5.28,3.06.09,4.12-3,3.82-5.67,3.84l-104.19-.45c-2.5-.08-7,1.81-7.13-2.72-.13-4.87,4.68-3.81,7.59-3.9Z"/><path class="cls-1" d="M553.94,733.38c-.18,8.6-.31,17.22-.54,25.83,0,2,.26,4.59-2.79,4.56-2.55,0-3.5-2-3.58-4.3-.31-8.3-.51-16.62-.74-24.92a7.54,7.54,0,0,1,.21-.85c1.44-3.81-1.92-11,3.68-11.09C556.3,722.5,552.2,729.79,553.94,733.38Z"/><path class="cls-1" d="M550.24,707.36c-3.47-.09-3.4-3.8-3.45-6.28-.18-9.83-.08-19.67-.08-29.51,1.74-2-.22-6.92,4.21-6.47,3.47.34,2.09,4.26,2.93,6.56-.13,9.85-.19,19.7-.43,29.54C553.34,703.68,554.15,707.44,550.24,707.36Z"/><path class="cls-1" d="M553.49,629.5h-.1c0,5.66,0,11.31,0,17,0,1.84-.45,3.55-2.84,3.7s-3.13-1.7-3.27-3.41a204.37,204.37,0,0,1,.32-35.59c.14-1.51.87-2.9,2.75-2.9,2.22,0,3.16,1.3,3.16,3.39C553.5,617.6,553.49,623.56,553.49,629.5Z"/><path class="cls-1" d="M1369,650.16c-2.94,0-3.36-2.38-3.5-4.3a207.53,207.53,0,0,1,.65-34.81c.14-1.47.59-3.18,2.52-3s3,1.82,3,3.71c.09,6,0,11.92,0,17.87h.09c0,5.36.06,10.73,0,16.09C1371.72,647.65,1372.24,650.16,1369,650.16Z"/><path class="cls-1" d="M1276.55,849c-2.24,0-5,0-5.79-2.67-.93-3.17,1.67-3.75,4.17-4.35q15.16-3.64,30.26-7.57c2.55-.67,5-1,6.16,1.67,1.28,3-1.31,4-3.6,4.94C1297.74,844.9,1287.25,846.9,1276.55,849Z"/><path class="cls-1" d="M1222.92,842.43c9.81.66,17.87,1.22,25.94,1.73,2.45.15,5.2.14,5.28,3.38.06,2.54-2.29,3.39-4.42,3.52-11.76.77-23.23-1.52-34.72-3.47a3.05,3.05,0,0,1-2.69-3.12c.11-2,1.9-2,3.37-2C1218.67,842.39,1221.67,842.43,1222.92,842.43Z"/><path class="cls-1" d="M1361.44,810.9a44.72,44.72,0,0,1-4.22,4.39A157.79,157.79,0,0,1,1333,830.56c-2.32,1.22-5.31,2.88-7-.47-1.16-2.37.66-4.7,2.85-6,9.33-5.31,18.71-10.57,28.16-15.67C1358.88,807.47,1361.08,807.38,1361.44,810.9Z"/><path class="cls-1" d="M1155.93,831.62l.15-3.53c12.87.69,24.93,5,37.18,8.43,2.5.7,4.72,1.9,3.9,4.88s-3.69,2.83-5.93,2.09C1179.44,839.61,1167,837.76,1155.93,831.62Z"/><path class="cls-1" d="M797.17,262.48c1.12,0,4.67,0,8.22,0,2,0,3.41.65,3.57,3,.17,2.55-.84,3.72-3.47,4-10.63,1-21.24,2.1-31.85,3.19-2.53.25-5.14.12-5.47-2.94-.39-3.71,2.62-4,5.37-4.32C780.6,264.51,787.65,263.63,797.17,262.48Z"/><path class="cls-1" d="M837.37,265.93c-4.13-2.32-12.18,3.34-12.54-3.81-.25-5,7.78-3,12.16-3.59,7.4-1,14.85-1.76,22.31-2.31,2.38-.18,6.16-1.58,6.69,2.16.58,4-3.52,4.48-6.24,4.9C852.38,264.43,844.92,265.07,837.37,265.93Z"/><path class="cls-1" d="M746.79,269.61c2.15-.17,4.44-.48,4.8,2.51.28,2.34-.66,3.95-3.33,4.35-10.91,1.62-21.81,3.37-32.72,5-2.3.34-4.32-.16-4.34-3s1.74-4.05,4.53-4.42C726.09,272.64,736.44,271.1,746.79,269.61Z"/><path class="cls-1" d="M659.54,293.05c-2.6-.42-5.2.15-5.56-2.72-.33-2.71,1.9-3.2,4-3.83A202.88,202.88,0,0,1,690.22,280c1.76-.23,4.64-1.16,5,2,.19,1.84-1.43,3.25-3.32,3.69C680.91,288.19,669.93,290.67,659.54,293.05Z"/><path class="cls-1" d="M634.15,292.15c2.25.47,5-.82,5.4,2.27.37,2.67-1.94,3.53-3.91,4.06q-16.25,4.35-32.57,8.45c-1.64.41-3.86.74-4.32-1.64-.56-2.92,1.81-4.58,4-5.16C613.26,297.25,623.91,294.71,634.15,292.15Z"/><path class="cls-1" d="M1128.26,263c5.55.67,13.22,1.48,20.86,2.58,2.55.37,5.69,1,5.14,4.72s-3.77,2.31-5.72,2.14c-10.94-.93-21.85-2.18-32.77-3.3-2.19-.22-4.39-.64-4.45-3.32-.08-3.37,2.57-3.56,5-3.5C1119.6,262.42,1122.86,262.7,1128.26,263Z"/><path class="cls-1" d="M1074.44,258c6,.34,11.94.57,17.89,1.08,2.24.2,5.25.17,5.28,3.54,0,3.79-3.13,2.93-5.28,2.9-10.74-.16-21.52.44-32.18-1.42-2.4-.42-6.25.26-5.73-3.82.49-3.9,4.17-2.45,6.59-2.56,4.47-.21,9-.06,13.43-.06Z"/><path class="cls-1" d="M1317.85,307.66a193.59,193.59,0,0,1-32.14-8.39c-2.37-.85-4.4-2.6-3.5-5.4s3.42-1.95,5.34-1.4c10.6,3,21.19,6.11,31.71,9.38,1.46.45,3.93,1,3.51,3.36C1322.27,307.92,1319.65,307.36,1317.85,307.66Z"/><path class="cls-1" d="M1203.44,281.56l-30.59-5.25c-2.27-.39-4.15-1.43-3.77-4s2.7-3,4.84-2.72c10.55,1.53,21.1,3.11,31.62,4.86,2.66.44,5.69,1.62,4.94,5C1209.79,282.57,1206.67,281.37,1203.44,281.56Z"/><path class="cls-1" d="M1263.1,293.49c-12-2.4-22.8-4.51-33.57-6.73-2.28-.47-3.82-2.09-3.54-4.46.44-3.78,3.57-2.61,5.59-2.22,10.5,2.05,21,4.38,31.43,6.58,2.27.48,5.28.31,4.58,3.89C1267,293.64,1264.22,293.38,1263.1,293.49Z"/><path class="cls-1" d="M763.79,484.68c0-8.95,0-17.9,0-26.86,0-2.44.52-5.23,3.57-5.24s3.47,3.07,3.48,5.29c.13,17.9.08,35.81.06,53.72,0,2.36-.77,4-3.58,4s-3.51-1.74-3.51-4.06q0-13.43,0-26.86Z"/><path class="cls-1" d="M1149,484.06c0-8.38-.06-16.76,0-25.13,0-2.53-.72-6.21,3-6.4,4.42-.22,3.88,3.83,3.91,6.62q.24,25.59.17,51.17c0,2.25.45,5.05-3.22,5.2-4,.15-4-2.6-4-5.43q0-13,0-26Z"/><path class="cls-1" d="M566.31,820c-2.51-2-5.06-4-7.52-6.11-2.2-1.87-2.3-4-.42-6.18s3.67-1,5.48.18L593,826.34c.22,6.87-3.65,6.65-8.08,4.31C578.61,827.32,572.5,823.59,566.31,820Z"/><path class="cls-1" d="M642.28,849.29c-9.81-2.39-19.64-4.69-29.41-7.23-3.33-.87-6.74-2.91-5.28-6.85,1.51-4.11,4.9-1.28,7.49-.59,9.49,2.53,18.94,5.18,28.45,7.62,2.67.69,4.55,1.75,3.85,4.78C646.73,849.84,644.46,849.45,642.28,849.29Z"/><path class="cls-1" d="M762,831c-.28,2.84-2.26,4-4.71,4.62q-15.94,4.11-31.89,8.19c-1.79.45-3.66.42-4.55-1.63-1-2.43.16-4.22,2.35-4.94a205.68,205.68,0,0,1,35.5-8.4C760.25,828.59,761.67,829.08,762,831Z"/><path class="cls-1" d="M675.26,851.33c-3.84-1.27-11.57,2.52-11.7-3.6-.15-6.82,7.55-2.93,11.65-3.46,8.28-1.07,16.69-1.14,25-1.64,2.48-.15,5.25-.21,5.4,3,.14,3-2.43,3.71-5,3.89Z"/><path class="cls-1" d="M781.23,829.86c-1.81-.19-4,.4-4.42-2.09-.44-2.32.41-4.41,2.8-4.88,11.71-2.34,23.45-4.5,35.18-6.66a2.74,2.74,0,0,1,3.44,2.11,2.94,2.94,0,0,1-2.3,3.4C804.34,824.51,792.73,827.18,781.23,829.86Z"/><rect class="cls-2" width="1" height="1"/><rect class="cls-2" x="1919" y="1079" width="1" height="1"/><rect class="cls-2" y="1079" width="1" height="1"/><rect class="cls-2" x="1919" width="1" height="1"/></g><g id="Capa_3" data-name="Capa 3"><path d="M837.56,626.09v111H817.73V666.38l-19.51,14.91L782,693.82l-16.18-12.53-19.51-14.91v70.75H726.53v-111l19.82,15.23L782,668.76l35.69-27.44Z"/><path d="M891.48,663.05v75.5H871.65V661a15.8,15.8,0,0,0-13.48-13.48h-4.44V627.84H858V628a35.44,35.44,0,0,1,29.51,19.82,41.54,41.54,0,0,1,2.69,7.46,33,33,0,0,1,.95,8.09Z"/><path d="M945.09,663.05v75.5H925.26V661a15.8,15.8,0,0,0-13.48-13.48h-4.44V627.84h4.28V628a35.42,35.42,0,0,1,29.5,19.82,41.57,41.57,0,0,1,2.7,7.46,33,33,0,0,1,.95,8.09Z"/><path d="M1069.12,646.08a34.27,34.27,0,0,1,2.54,12.85v45.52a32.66,32.66,0,0,1-10.47,24.11,33.94,33.94,0,0,1-7.29,5.23,31.42,31.42,0,0,1-14.91,3.65H970V717.62h69a13.07,13.07,0,0,0,13-13V689.06a32.41,32.41,0,0,1-12.37,2.54H992.83a32.76,32.76,0,0,1,.48-65.51h45.52a32.59,32.59,0,0,1,30.14,20Zm-88.66,12.85a13,13,0,0,0,12.37,13h46.79a13,13,0,0,0-.63-26H993.46A13.07,13.07,0,0,0,980.46,658.93Z"/><path d="M1157.63,626.09a35.81,35.81,0,0,1,35.84,35.85v39.18A35.81,35.81,0,0,1,1157.63,737h-34.27a35.81,35.81,0,0,1-35.84-35.85V661.94a35.81,35.81,0,0,1,35.84-35.85Zm-34.27,19.83a16.24,16.24,0,0,0-16.17,16.18v39.18a16.24,16.24,0,0,0,16.17,16.18h34.27a16.24,16.24,0,0,0,16.17-16.18V662.1a16.24,16.24,0,0,0-16.17-16.18Z"/></g></g></svg>