<svg xmlns="http://www.w3.org/2000/svg" viewBox="0 0 1920 1080"><defs><style>.cls-1{fill:#010101;}.cls-2{fill:#f2f2f2;}</style></defs><g id="Capa_2" data-name="Capa 2"><g id="Capa_1-2" data-name="Capa 1"><path class="cls-1" d="M986.49,660.06c-4.06-9.37-10.65-14.88-20.66-17.74-5.34-1.51-12.16.16-12.16.16-11.62,1.85-19.9,10.88-21.61,22.65-.65,3.26-.06,9.94-.06,9.94,2.16,11.88,10,20.26,22.06,22.35a53,53,0,0,0,11.58-.08c11.67-2.44,19-9.77,21.76-21.51A29.33,29.33,0,0,0,986.49,660.06Zm-3.46,15c-2.49,9.4-8.58,15-17.56,18a41.07,41.07,0,0,1-10.93.17c-7.3-2-13-6.13-16.18-12.86a28.05,28.05,0,0,1-2.31-12.62c-.37-2.79.88-5.5,2.13-8,4.38-8.82,11.67-13.2,22.11-14a14.77,14.77,0,0,1,5.19.94c9.45,2.8,15.16,8.95,17.69,18.43C984.31,668.65,983,675.06,983,675.06Zm3.46-15c-4.06-9.37-10.65-14.88-20.66-17.74-5.34-1.51-12.16.16-12.16.16-11.62,1.85-19.9,10.88-21.61,22.65-.65,3.26-.06,9.94-.06,9.94,2.16,11.88,10,20.26,22.06,22.35a53,53,0,0,0,11.58-.08c11.67-2.44,19-9.77,21.76-21.51A29.33,29.33,0,0,0,986.49,660.06Zm-3.46,15c-2.49,9.4-8.58,15-17.56,18a41.07,41.07,0,0,1-10.93.17c-7.3-2-13-6.13-16.18-12.86a28.05,28.05,0,0,1-2.31-12.62c-.37-2.79.88-5.5,2.13-8,4.38-8.82,11.67-13.2,22.11-14a14.77,14.77,0,0,1,5.19.94c9.45,2.8,15.16,8.95,17.69,18.43C984.31,668.65,983,675.06,983,675.06Zm659.58-170.18s.22-54,.22-63.93-3.92-20.24-3.92-20.24c-9.11-15.69-24.07-17.29-40.35-16.9-21.9.55-43.83.18-65.75.16-8.38,0-16-1.91-21-9.45a15.38,15.38,0,0,1-4.47-11q-.22-12.82-.42-25.63a64,64,0,0,0-3.73-21.19c-7.26-17.51-20-29.11-38.07-34.67a1714.89,1714.89,0,0,0-273.79-61.14q-85.72-11.76-172.1-16.33c-2.58-.13-4.52-.34-4-3.61.78-4.46-1.88-4.65-5.28-4.64l-101.22.08c-2.22,0-5.09-.34-4.26,3.26,1.08,4.71-1.44,4.63-4.91,4.59-12.61,0-72.11,5.55-72.11,5.55-42.89,3.58-85.56,8.87-128.09,15.49q-83.17,12.91-164.64,34Q494.1,289.89,454,302.45c-25.17,7.86-40,28.45-40.89,55.67-.07,2.24-.18,4.48-.27,6.71,0,6.53.29,13.07-.13,19.57-.6,9.44-9.49,18.19-19.16,18.86-17.53,1.23-35.1.71-52.66.41-7.63.11-15.29.67-22.9.23-15.33-.86-28.42,2.69-37.51,18.36-1.88,3-2.82,8.85-2.82,8.85q-.18,28.06-.32,56.15a161,161,0,0,1-.12,22.61c.51,21.29.65,42.59,0,63.89.11,3.91.31,7.83.3,11.75-.05,20.78,13.12,34.16,33.93,34.19q84,.09,168,.11c14.43,0,21.66,6.12,24.36,20.3,2.54,13.39,4.86,26.82,7.25,40.24q9.9,55.7,19.8,111.4c5.79,32.71,23.35,55.63,55.27,66.66,9.81,4,22,5.26,22,5.26a150.4,150.4,0,0,0,41-5.71c20.66-5.87,41.5-11,62.26-16.54,2.75-.72,5.36-1.45,4.89,3s2.33,4.23,5.37,3.59c33.43-7.11,67-13.27,100.89-18,3-.41,4.69-1.59,3.43-4.71-1.54-3.78.17-4.23,3.48-4.57,39.87-4,79.8-6.93,119.88-7.86l23.25,0c25.08.65,50.13,2.06,75.14,4,14.74,1.15,29.44,2.72,44.16,4,2.18.19,3.85.5,2.75,3.21-1.95,4.81.61,5.52,4.69,6.15,17.15,2.64,34.29,5.45,51.37,8.53,15.81,2.85,31.53,6.12,47.3,9.19,3.21.63,6.21.82,5.9-3.88-.28-4.08,2.05-3.45,4.64-2.76,20.56,5.46,41.24,10.49,61.66,16.46,16.08,4.7,32.3,7,48.78,4.34,38.84-6.22,63.79-32.14,70.61-71.69,8.49-49.35,17.31-98.63,26.1-147.93,2.65-14.83,9.08-23.7,27-22.77,3.37.17,6.75,0,10.11,0q77.57,0,155.11.13c10.06,0,18.68-2.9,25.81-10.19,6.74-6.87,9.13-15.21,9.13-24.52,0-1.89,0-3.79,0-5.69C1642.74,554.59,1642.55,529.74,1642.61,504.88ZM1102,239.48q48.61,4.56,96.93,11.53,75.51,10.78,149.72,28.33c38,8.91,75.5,19.78,112.9,30.93,13,3.85,23,11.21,29.8,22.92,5.54,8.29,6.49,17.71,6.81,27.29.17,5-3,2.52-4.88,1.92-16.5-5.29-33-10.74-49.42-16.15-3.52-1.15-7-2.35-10.54-3.53-23.86-6.17-47.68-12.56-71.61-18.49-61-15.1-122.61-27-184.78-36.11-14.24-2.08-28.72-2.84-42.66-6.56-20-5.31-31.43-19.12-36.69-38.62C1096.24,238.18,1099.37,239.25,1102,239.48ZM421.83,359c.85-24.46,13.67-41.53,36.72-48.66A1684.15,1684.15,0,0,1,670.83,259c49.06-8.43,98.39-14.6,147.87-19.78,3.89-.41,5,.22,3.81,4.35-6.69,23.9-21.84,36.9-47.61,40.22A1990.79,1990.79,0,0,0,546,327.25c-40.08,10-79.7,21.46-118.71,35C423.27,363.69,420.65,364.07,421.83,359Zm288.9,473.58c-26.75,6.88-53.25,15.26-80.35,20.25-30.8,5.66-57.92-3-77.52-29.09-8.53-11.37-11.74-24.82-14.16-38.54q-10.87-61.8-21.9-123.56c-1.4-7.91-2.74-15.83-4.19-23.72-3.12-17-14.7-27-32-27-52.06-.11-104.12,0-156.19,0-4.31,0-8.61.06-12.91,0-15.54-.35-24.31-8.73-25.16-24.15-.18-3.16.19-6.34.32-9.51a12,12,0,0,1,0-6.68,37.17,37.17,0,0,1,0-10.16c-.65-12.73-.6-25.45,0-38.18-.69-13.13-.6-26.25,0-39.37-.53-15-.8-29.95.1-44.92-.61-14.81,8.34-24.53,23.17-24.77,11-.16,22.05.05,33.09.08,13.45-.05,26.91-.55,40.32,0,12.29.46,22.82-2.69,31.49-11.52,6.59-8.31,7.73-18,7-28.11-.29-3.63.94-5.2,4.46-6.29,14.62-4.5,29.13-9.35,43.68-14.07,23.36-7.56,47.07-13.91,70.92-19.74,19.93-5.6,40.13-10.07,60.31-14.62,33.51-7.55,67.22-14,101.1-19.73,24.12-4.05,48.28-8.06,72.61-10.64,30.88-3.28,48.46-23.11,52.55-47.08.47-2.74,1.81-3.21,4.11-3.36,22-1.49,44-3.11,66.09-4.56,7.18-.47,7.21-.3,7.17,6.65-.05,13.29-.23,26.58-.14,39.88,0,5.34-1.89,7.3-7.54,7.61Q822,291.8,747.43,301.48A1715.79,1715.79,0,0,0,539.2,342.23a2.11,2.11,0,0,1-.56,0q-28.86,8.46-57.75,16.91c-2.48.73-5,1.39-7.48,2.07-6.23,2-12.46,3.89-18.68,5.87-14.28,4.55-22.07,15.58-21,30.58,1.53,21.46,3.39,42.89,5.19,64.32q3.72,44.17,7.55,88.33c1.1,12.86,2.17,25.72,3.35,38.57a16.88,16.88,0,0,0,16.49,15.28c8.39.34,16.85-1,25.13,1.21,14.4,3.92,24.18,12.75,26.94,27.64,6.24,33.77,11.84,67.66,18,101.45,4,21.83,5.94,44.12,12.21,65.45,10.13,34.4,42.78,53.93,78.08,47.31,25.67-4.83,50.4-13.42,75.75-19.57,2.18-.53,4.4-.91,6.52-1.56,3.22-1,3.88,1.32,4.6,3.45C714.41,832.11,712.33,832.17,710.73,832.59Zm385.93-22.23c-.55,3.7-3.72,1.72-5.48,1.52q-47.46-5.1-95.2-7c-10.1-.42-20.21-.9-30.32-1l-11.15-.07q-62.37,1.33-124.42,7.89c-2.15.23-6.18,2.75-6.85-1.6s3-4.66,6.41-5c23.48-2.08,46.94-4.4,70.41-6.41,18-1.55,29.23-13.82,29.12-31.87q-.3-45.79-.27-91.57l-.17-10.46c.12-10.68,0-21.4,7.57-30.29a34.43,34.43,0,0,1,17.18-11c13.07-2.71,17.46,1.88,17.46,1.88,14.21,6.29,20.6,17.6,19.88,34l.18,17.06c0,30.71-.13,61.42-.19,92.14,0,15.69,10.5,28.08,26.34,29.83,20.82,2.32,41.72,3.88,62.58,5.78,3.92.35,7.81.86,11.73,1.12C1094.75,805.54,1097.19,806.77,1096.66,810.36Zm104.48,22.14c-2.22,10.87-2.23,10.92-13.05,8.71-27.65-5.66-55.41-10.74-83.38-14.58-4.9-.68-6.6-2.42-4.83-7.17a25.4,25.4,0,0,0,.91-4.38c1.84-10.4-.67-13.52-11.17-14.45-23.67-2.13-47.34-4.41-71-6.54-11.46-1-23.11-12.28-23-24.22.26-31.65,0-63.31-.2-95l-.09-12.18c.54-7.86.41-15.67-3-23.1C987,628.2,978,621.42,965.9,619.24A31.38,31.38,0,0,0,955,619c-19.14,3.73-29.62,16.67-30.2,36.19l-.14,29.37q0,40.72-.18,81.47c-.1,17.5-8.46,26.62-25.82,28.28-23.29,2.24-46.58,4.35-69.88,6.46-8.07.73-11.34,4.85-9.95,12.74.68,3.84,3.48,8.4,1.5,11.29s-7.28,1.85-11.1,2.47c-28.42,4.57-56.75,9.62-84.89,15.62-3.33.71-3.9-.61-4.29-3.11-.52-3.33-.89-6.68-1.63-10-1.69-7.4-5.3-9.67-12.63-7.73-24.53,6.51-48.94,13.53-73.57,19.64-34.39,8.53-66.61-7.92-78.27-39.7-4.79-13-5.92-27-8.31-40.58-7.4-42.11-14.52-84.29-21.85-126.43-3.65-21-19-34.36-40.34-35.28-5.05-.22-10.11,0-15.17-.16-8.91-.22-13.12-3.94-13.92-12.7-1.93-21.25-3.72-42.5-5.55-63.75q-5-57.87-9.91-115.76a91.11,91.11,0,0,1-.34-15.13c.76-9.08,5.38-15.89,13.89-19.46a96.12,96.12,0,0,1,18.72-5.6c27.86-8.72,55.76-17.39,84.29-23.8,19.26-5.93,39-10.05,58.66-14.31,49.48-10.72,99.39-18.92,149.66-25.07q67.73-8.28,135.79-12.06c6.52-.37,9.75-3.72,9.75-10.44,0-18.72.06-37.44-.21-56.16-.07-3.82.9-4.56,4.61-4.55l92.94,0c3.61,0,4.27,1,4.24,4.36-.18,17.78-.06,35.56-.06,53.35,0,11,2,12.75,12.82,13.52,26.31,1.85,52.61,3.71,78.87,6.2,27.93,2.64,55.78,5.77,83.55,9.61q50.19,6.95,99.87,17.13l20.83,4.31c53.49,11.34,106,26.49,158.19,42.56,9.48,2.92,15.7,10.86,15.43,18.91,2.42,5.35.94,10.89.85,16.36-.16,9.62-3.52,18.9-2.88,28.58-.84,17.27-2.42,34.49-4.4,51.66-.56,14.3-1.73,28.54-3.66,42.72-.9,18-2.49,36-4.52,54-.14,11.38-4.23,15.42-15.56,15.61-6.72.1-13.46-.47-20.16.82-18.52,3.56-30.68,16.39-33.85,35-8.91,52.12-17.7,104.27-27.21,156.3-6.8,37.3-42.89,59.57-80.5,50.14-23.9-6-47.63-12.69-71.42-19.13C1206.4,819.81,1203.34,821.65,1201.14,832.5Zm432.35-244.26c0,11.93-8.46,20.91-20.33,22.17a136.82,136.82,0,0,1-14,.42c-52.07,0-104.15.48-156.22-.12-22.17-.25-33,12.61-36,30-8.58,49.92-17.61,99.75-26.43,149.62-5.61,31.8-23.44,52.76-54.86,61.34-16.49,4.5-33,3.33-49.28-1.47-21.52-6.33-43.21-12-65-17.18-1.75-.42-5.82.48-4.72-3.73,1-3.71,3.48-3.8,7-2.82q34.77,9.71,69.66,18.93c31.65,8.41,61.93-1.46,79-25.61,8.59-12.12,11.35-26.19,13.79-40.45q12.3-71.82,24.92-143.58c3.46-19.7,17.51-31.32,37.58-31.58,4.31-.06,8.62,0,12.93,0,11.51,0,18.16-6.17,19.14-17.53a38.6,38.6,0,0,1,.7-3.81c.66-16.16,2.15-32.25,4-48.31,1.07-18.83,2.85-37.63,4.85-56.38.82-15,1.84-29.9,3.92-44.73-.22-9.67,1.65-19.2,2.06-28.81.23-5.37.1-10.76.13-16.13-4-12.5-12.46-19.44-25.16-22.85-25.75-6.93-51.27-14.71-76.88-22.17a23.33,23.33,0,0,1-2.53-1.1c-24.51-5.81-49-11.91-73.57-17.34-44.55-9.82-89.53-17.21-134.75-23.31-50.11-6.74-100.41-11.09-150.84-14.12-5.68-.34-7.37-2.33-7.25-7.77q.43-21.06,0-42.13c-.08-4,1.32-4.6,4.8-4.34,22.57,1.67,45.16,3.2,67.75,4.74,2.64.18,4.29.79,5,4,5.87,27.59,23.65,43,52.46,46.34,34.68,4.1,69.12,9.8,103.45,16.15,39.26,7.27,78.3,15.49,117,25.36,4.58,1.17,9.15,2.39,13.71,3.59,27.18,6.61,54.12,14.09,80.72,22.77,11.15,3.65,22.28,7.41,33.49,10.89,3.39,1.06,4.81,2.75,4.71,6.35-.16,5.73.11,11.46.2,17.19,3.78,6.41,7.47,12.9,14,17A35.8,35.8,0,0,0,1532.3,413c25.85-.05,51.71.06,77.55,0a23.31,23.31,0,0,1,18.71,8.58,19,19,0,0,1,5,12.73C1633.51,485.61,1633.6,536.92,1633.49,588.24ZM965.83,642.32c-5.34-1.51-12.16.16-12.16.16-11.62,1.85-19.9,10.88-21.61,22.65-.65,3.26-.06,9.94-.06,9.94,2.16,11.88,10,20.26,22.06,22.35a53,53,0,0,0,11.58-.08c11.67-2.44,19-9.77,21.76-21.51a29.33,29.33,0,0,0-.91-15.77C982.43,650.69,975.84,645.18,965.83,642.32ZM983,675.06c-2.49,9.4-8.58,15-17.56,18a41.07,41.07,0,0,1-10.93.17c-7.3-2-13-6.13-16.18-12.86a28.05,28.05,0,0,1-2.31-12.62c-.37-2.79.88-5.5,2.13-8,4.38-8.82,11.67-13.2,22.11-14a14.77,14.77,0,0,1,5.19.94c9.45,2.8,15.16,8.95,17.69,18.43C984.31,668.65,983,675.06,983,675.06Z"/><path class="cls-2" d="M1481.27,407.05c-.16,9.62-3.52,18.9-2.88,28.58-.84,17.27-2.42,34.49-4.4,51.66-.56,14.3-1.73,28.54-3.66,42.72-.9,18-2.49,36-4.52,54-.14,11.38-4.23,15.42-15.56,15.61-6.72.1-13.46-.47-20.16.82-18.52,3.56-30.68,16.39-33.85,35-8.91,52.12-17.7,104.27-27.21,156.3-6.8,37.3-42.89,59.57-80.5,50.14-23.9-6-47.63-12.69-71.42-19.13-10.71-2.89-13.77-1.05-16,9.8s-2.23,10.92-13.05,8.71c-27.65-5.66-55.41-10.74-83.38-14.58-4.9-.68-6.6-2.42-4.83-7.17a25.4,25.4,0,0,0,.91-4.38c1.84-10.4-.67-13.52-11.17-14.45-23.67-2.13-47.34-4.41-71-6.54-11.46-1-23.11-12.28-23-24.22.26-31.65,0-63.31-.2-95l-.09-12.18c.54-7.86.41-15.67-3-23.1C987,628.2,978,621.42,965.9,619.24A31.38,31.38,0,0,0,955,619c-19.14,3.73-29.62,16.67-30.2,36.19l-.14,29.37q0,40.72-.18,81.47c-.1,17.5-8.46,26.62-25.82,28.28-23.29,2.24-46.58,4.35-69.88,6.46-8.07.73-11.34,4.85-9.95,12.74.68,3.84,3.48,8.4,1.5,11.29s-7.28,1.85-11.1,2.47c-28.42,4.57-56.75,9.62-84.89,15.62-3.33.71-3.9-.61-4.29-3.11-.52-3.33-.89-6.68-1.63-10-1.69-7.4-5.3-9.67-12.63-7.73-24.53,6.51-48.94,13.53-73.57,19.64-34.39,8.53-66.61-7.92-78.27-39.7-4.79-13-5.92-27-8.31-40.58-7.4-42.11-14.52-84.29-21.85-126.43-3.65-21-19-34.36-40.34-35.28-5.05-.22-10.11,0-15.17-.16-8.91-.22-13.12-3.94-13.92-12.7-1.93-21.25-3.72-42.5-5.55-63.75q-5-57.87-9.91-115.76a91.11,91.11,0,0,1-.34-15.13c.76-9.08,5.38-15.89,13.89-19.46a96.12,96.12,0,0,1,18.72-5.6c27.86-8.72,55.76-17.39,84.29-23.8,19.26-5.93,39-10.05,58.66-14.31,49.48-10.72,99.39-18.92,149.66-25.07q67.73-8.28,135.79-12.06c6.52-.37,9.75-3.72,9.75-10.44,0-18.72.06-37.44-.21-56.16-.07-3.82.9-4.56,4.61-4.55l92.94,0c3.61,0,4.27,1,4.24,4.36-.18,17.78-.06,35.56-.06,53.35,0,11,2,12.75,12.82,13.52,26.31,1.85,52.61,3.71,78.87,6.2,27.93,2.64,55.78,5.77,83.55,9.61q50.19,6.95,99.87,17.13l20.83,4.31c53.49,11.34,106,26.49,158.19,42.56,9.48,2.92,15.7,10.86,15.43,18.91C1482.84,396,1481.36,401.58,1481.27,407.05Z"/><rect class="cls-2" width="1" height="1"/><rect class="cls-2" x="1919" y="1079" width="1" height="1"/><rect class="cls-2" y="1079" width="1" height="1"/><rect class="cls-2" x="1919" width="1" height="1"/></g><g id="Capa_3" data-name="Capa 3"><path d="M810.59,421.68v111H790.77V462l-19.51,14.91-16.18,12.53L738.9,476.88,719.39,462v70.74H699.56v-111l19.83,15.23,35.69,27.44,35.69-27.44Z"/><path d="M864.52,458.64v75.5H844.69V456.57a15.81,15.81,0,0,0-13.48-13.48h-4.44V423.42h4.28v.16a35.55,35.55,0,0,1,13.48,3.65,35.17,35.17,0,0,1,16,16.18,42.55,42.55,0,0,1,2.7,7.45,33.53,33.53,0,0,1,1,8.09Z"/><path d="M990.61,513.2V533H879.9V500.35a31.45,31.45,0,0,1,2.7-12.84,32.55,32.55,0,0,1,28.86-20h48.06a13,13,0,0,0-1.11-25.85H880.22V421.84h78.19a32.63,32.63,0,0,1,32.68,32.67,32.4,32.4,0,0,1-9.36,22.68,32.94,32.94,0,0,1-22.36,10H911.46A12.9,12.9,0,0,0,899.89,500v12.84Z"/><path d="M1077.05,421.68a35.81,35.81,0,0,1,35.85,35.85V496.7a35.81,35.81,0,0,1-35.85,35.85h-34.26a35.82,35.82,0,0,1-35.85-35.85V457.53a35.82,35.82,0,0,1,35.85-35.85Zm-34.26,19.83a16.25,16.25,0,0,0-16.18,16.18v39.17A16.25,16.25,0,0,0,1042.79,513h34.26a16.24,16.24,0,0,0,16.18-16.18V457.69a16.24,16.24,0,0,0-16.18-16.18Z"/><path d="M1216.79,441.35a34.47,34.47,0,0,1,3.65,15.54v75.66h-19.83V455a15.81,15.81,0,0,0-13.48-13.48h-58.22V421.68h56.31a34.51,34.51,0,0,1,15.55,3.65,35.17,35.17,0,0,1,16,16.18Z"/></g></g></svg>