<svg xmlns="http://www.w3.org/2000/svg" viewBox="0 0 1920 1080"><defs><style>.cls-1{fill:#020202;}.cls-2{fill:#f2f2f2;}</style></defs><g id="Capa_2" data-name="Capa 2"><g id="Capa_1-2" data-name="Capa 1"><path class="cls-1" d="M1761.63,492.28c-17.82.31-35.64-.18-53.46.09-5.34.08-7-.93-7-6.82,0-1.24-10.08-5.46-10.08-5.46-4.58-2.84-10-3.4-15.43-3.37-11.89.06-23.76-.06-35.66-.26-3.46,0-7-.8-8.44-4.49-1.54-3.92,1-6.77,3.85-8.55,4.5-2.77,5.37-6.7,5.31-11.45-.17-13.3-.75-26.61-.11-39.88.82-17.6-7.25-28.35-22.77-35.78-57.09-27.31-115.16-52.24-175.15-72.43-36.25-12.2-72.56-24.28-109.9-33-4.67-1.07-12.08-1.3-10.84-10,.22-1.5-1.77-2.1-3.1-2.4-8.64-2-17.19-5.57-25.57-6.8-13-1.9-25.67-5.31-38.61-7.32-4.64-.72-10.56-4.7-12.83,3.91-.5,1.93-3.52,1-5.41.72-34.3-5.63-68.55-11.3-103.1-15.32-29.33-3.44-58.73-5.65-88.14-7.95-25.63-2-51.36-2.37-77.06-2.11-62.41,0-135.54,4.94-135.54,4.94-50.24,3.59-99.92,11.3-149.45,20-3.89.68-7.9,2.53-8.3-4.17-.19-2.77-3-1.86-4.83-1.46q-35.56,7.68-71.1,15.47c-1.83.4-4.63.66-3.94,3.34,1.91,7.37-3.32,7.38-8,8.58C487.15,296,391.16,332.11,298.48,377.19c-13.78,6.7-21.4,16.61-20.48,32.74.77,13.23.23,26.56.23,39.86,0,5.78.72,10.78,5.76,15.1s2.72,10.42-4.4,11.12c-9.26.9-18.64.71-28,.71-9.88,0-19.81-.58-29.61,5.73-4.73,2.53-7.2,11.47-7.2,11.47V565c.94,5.89-.21,11.86.32,17.62.8,8.84,12.6,18.54,24.43,18.34,17.75-.3,35.49.11,53.24.21h10.4c8.16,1.28,10,4.44,6.62,11.42-1.2,2.45-2.77,4.72-4.16,7.08-3.24,8.71-2.59,17.79-2.55,26.81l.37,67.85c3,9.26,9.2,15.59,17.47,20.71q84.3,52.13,168.3,104.68c9.9,6.18,15.37,7,15.37,7h33.59c4.28-.09,7.23.39,6.94,5.61-.16,2.95,1.71,3.81,4.37,3.8q36.09-.21,72.15-.38c1.92,0,5.08.18,5.1-1.92.06-10.53,7.49-6.11,12.52-6.57,27.21,2.44,51.83-8.56,77.37-14.76,2.44-.59,4.93-.95,7.41-1.42,44.62-11.88,89.83-20.23,135.9-23.82,26.22-3.69,52.65-4.37,79.06-5.12l39.86.21a588.94,588.94,0,0,1,93.72,6.47c51.7,4.93,102.38,15.36,152,30.21,19.47,5.83,38.79,9,59,8,2.3-.12,6.57-2.78,6.92,2.82,0,3.93,1.31,6.08,5.84,6.09,23.94,0,47.89.26,71.84.52,3.66,0,5-1.86,5.23-5.12-.34-1.75-.4-3.58,1.65-4.14a12.94,12.94,0,0,1,5-.26c27.13,3.92,49.7-5.81,71.78-20.89,28.37-19.4,58.29-36.52,87.55-54.61,18.53-11.82,36.72-24.24,55.72-35.22,14.69-8.51,20.8-20.2,20.26-36.83-.62-18.89-.19-37.83-.11-56.74.06-10.53-.74-20.62-6.55-30.09-4.46-7.26-2-11.3,6.52-11.42,16.64-.26,33.3.06,50,.13,5.07-.18,10.17-.18,15.22-.57,7.66-.59,14.6-3.1,18.19-10.41,2.19-4.46,5.32-4.9,9.59-4.87,20.07.12,40.13,0,60.21-.06l.92-85.25C1769.63,494.25,1767.67,492.18,1761.63,492.28Zm-72.36,11.8c-.13,9.32-.18,18.66.06,28,.12,4.4-2,5.26-5.69,5a60.34,60.34,0,0,0-9.31-.12c-9.81.85-18.73,1.2-21.53-11.74-1-4.81-6-8.44-11.2-9.51-5.88-1.23-8.76-3.78-8.17-10.08.14-1.53-.5-3.86-4.17-5.84,1.3,10.15-3.31,15-11.77,17.91-6.22,2.15-8.94,8.16-11,14.27-3.33,10-11.5,3.89-17.4,4.58-6.39.75-3.65-5-3.8-8-.39-7.61.12-15.27-.23-22.88-.19-4.75,1.21-6.4,6.18-6.35q46.52.36,93,.13C1688,499.41,1689.33,500.38,1689.27,504.08Zm-53,17.23c4-.72,13.81,8.72,13.25,12.76-.68,4.93-4.81,2.1-7.37,2.6-6.19,1.24-10-.41-7.83-9.35C1634.8,526.4,1631.45,522.19,1636.28,521.31ZM1634,549.36c-.62-7.52-.24-7.55,8-7.56,2.31.94,6.73-2.65,7.73,2.68.6,3.32-9.07,13.78-12.7,13.43C1631,557.35,1634.17,552.22,1634,549.36Zm-47.26,28.26c-4.71-4.08-1-13.72-1.52-20.94,0-.55,0-1.11,0-1.67.09-13.71,3.07-16,16.93-13.3,2.9.54,3.27,2.19,4,4.46,2.92,8.7,8,15.42,17.48,17.82,7,1.77,5.52,8.28,5.5,12.6s-4.94,1.76-7.61,2c-4.76.44-9.59.12-14.38.12v-.36C1600.11,578.35,1590.7,581.1,1586.69,577.62Zm41.69-49c.59,4.91.79,9.41-5.78,8.32-3.33-.56-8.29,2.1-9.54-3.26-.78-3.28,8.71-12.66,12.42-12.42C1631.35,521.62,1626.6,526.73,1628.38,528.58Zm-2.21,29.15c-3.84.83-13-8.72-12.89-13s3.36-2.82,5.6-3c9-.57,9-.54,9.53,8.82C1627.73,552.69,1631,556.67,1626.17,557.73ZM1317.84,285.06c.93-3.21,2-4.42,5.25-3.68,23.54,6.85,47.16,13.48,70.62,20.61,76,23.07,149.36,52.7,220.54,87.86,4.84,2.41,9.89,4.66,11.44,10.48.53,2,2.68,4.41.74,6.28s-4.18-.22-6.11-1.16c-12.66-6.16-25.25-12.54-38-18.56-83.3-39.35-169.78-69.85-259-92.59C1317.13,292.73,1316.25,290.53,1317.84,285.06Zm-2.33,15.53c1.35-2.36,3.68-.68,5.34-.22,42.68,11.48,85,24,126.7,38.68a1486.68,1486.68,0,0,1,173.08,74.22c5.06,2.54,7.39,5.14,6.81,10.88a111.33,111.33,0,0,0-.21,16.94,24.4,24.4,0,0,1-5.29,17.06c-9.2,12.21-3.15,25.24,14.1,32.27h46.36c0,.85,0,1.71,0,2.56-15.49.09-31,1.19-46.51-.76-15.79,0-31.58.34-47.35-.13-7.39-.21-10.74,1.09-9.72,9.63,1.07,9.2.4,18.63.33,27.95,0,2.19,1.69,6.17-2.24,5.91-3.4-.21-1.77-4.16-1.79-6.37-.1-27.14-.57-54.29.13-81.42.77-30.86-12.65-51-41.27-63-65.9-27.49-133.06-51.07-202-69.6-5.83-1.56-12.48-2.24-15.45-9C1315.74,304.36,1314.5,302.39,1315.51,300.59ZM684.56,261.52c41.84-6.46,83.57-13.54,125.76-17.63,46.76-4.52,93.63-6.43,140.56-7.44l17.91.36c14.13.21,28.26.09,42.39.09,68.09,3,135.74,9.76,202.85,21.71,6.1,1.09,12.27,1.85,18.4,2.83,3.28.53,7.12.44,6,5.78-.94,4.63-2.19,7.59-8.28,6.49-22.19-4-44.43-7.93-66.76-11.16-64.68-9.37-129.75-13.79-195.09-14.3l-16.94-.15c-16.13-.08-32.24,0-48.37,0a1574.54,1574.54,0,0,0-216.2,25.64c-5.85,1.12-5.78-1.8-6.87-5.49C678.64,263.7,680.49,262.15,684.56,261.52Zm548.7,22c-.79,5.28-6.44,7.38-12.21,6.9-15.88-2.62-31.72-5.46-47.64-7.81C1065,266.57,956.25,262,846.94,270.93c-48.47,3.93-96.62,9.94-144.47,18.62-5.52,1-11.3,1.83-16-2.72-1.48-1.43-2.83-2.94-2.12-5.1s2.65-1.67,4.27-2c113.57-21.34,228.13-28.7,343.44-23.19,64.6,3.09,128.88,10.09,192.37,22.93C1227.54,280.14,1234.18,277.27,1233.26,283.47ZM291.37,402.66c1.15-6.27,6-9.33,11.12-11.93,28.66-14.68,58.05-27.73,87.67-40.27,65.86-27.87,133.69-49.78,202.71-68.23,3.55-.94,6.61-2,7.41,3.31.6,4,1.93,6.76-4.25,8.34a1445.33,1445.33,0,0,0-297.23,111c-1.5.77-3,1.48-4.29,2.09C290.22,407.55,291,404.71,291.37,402.66ZM539.46,833.52c-9.32-.35-18.65-.11-28-.06-5.59,0-10.44-2.12-15-5q-86.16-53.87-172.33-107.69C320,718.19,317,715,317,710c-.27-26.81-1.39-53.61.5-80.41-.09-3.36,2.06-5.73,3.6-8.39,9.94-17.16.44-33.81-19.35-33.86-19.47-.05-38.94.09-58.42-.08-13.09-.1-14.38-1.54-14.57-14.75,0-3.1.19-6.18.32-9.28-.06-20-.41-40.09,0-60.14.21-11,2.34-12.62,13.2-12.75,11.3-.15,22.62-.08,33.92-.17,7.23,0,14-1.41,19.35-6.85,5.91-9.64,6.53-19.05-1.39-28-2.92-3.3-2-7.42-2.76-11.21-4.11-20.43,4.44-31.06,23.32-40.06,79.51-37.87,161-70.11,245.92-93.65,11.67-3.24,23.25-6.7,34.95-9.79,2.19-.57,5.38-2.58,6.91.34,1.36,2.55-.15,5.55-2,7.77-2.66,3.19-6.56,4.18-10.37,5.25-46.43,12.95-92.54,26.92-137.64,43.93-23.46,8.85-46.61,18.55-69.94,27.78-27.15,10.73-39.89,30.76-39.44,59.79.21,12.69-.44,25.38-.71,38.09,1.33,27.12,1,54.26.14,81.41a562.07,562.07,0,0,1-.17,61.16,538.22,538.22,0,0,1,.42,54.19c-1,26,9.1,45.82,31.4,59.57q62.33,38.43,124.4,77.26c12.69,7.92,26.71,5.4,40.4,5.83,2.91.09,6.49-1.2,6.64,4C545.71,831.38,544.59,833.7,539.46,833.52Zm744.69,0c-26.44,2.88-50.63-6.7-75.41-13.22A963.05,963.05,0,0,0,998.67,789.1c-10.74-.39-21.55-1.24-32.21-.51l-14.8-.47c-84.44.36-167.32,12.58-248.81,34-23.3,6.12-46.13,13.38-70.65,11.48-3.3-.24-5.49-.53-5-4.6.34-3-.55-6.72,4.47-6.1,28.25,3.51,53.85-7.61,80.21-14.41a983.21,983.21,0,0,1,255.81-30.81c93.73.88,185.71,14,275.41,41.7,13.63,4.2,27.35,3.4,41.15,3.52,3.67,0,7.23-.81,7.17,5.19S1287.83,833.09,1284.15,833.5Zm81.91,1.62c0,13.9,0,13.86-14,13.86-16.12,0-32.25-.08-48.36.24-4.74.09-6.48-1.06-6.07-6.07.55-7,.3-14.13.41-21.19,0-2.88.36-6.26-4-5.8-39,4.26-74.16-12.63-110.92-20.51-38.41-8.24-77.11-14.43-116.08-19.15-29.29-3.25-58.74-4.25-88.14-6l-15.26-.17-21,.38c-28.73.24-57.34,2.9-86,4.78-18.94,2.69-37.9,5.3-56.84,8.08-42.42,6.22-83.93,16.47-125.13,28.12-2.14.61-4.37,1-6.55,1.42C655,818,641.37,815.89,627.92,816c-6,0-7.87,1.86-7.46,7.71.45,6.77-.08,13.57.12,20.35.11,3.62-1.07,4.93-4.81,5q-30.12.15-60.21.72c-4.4.08-4.21-2.63-4.15-5.59.16-7.63.2-15.25.4-22.88.1-3.92-1.47-5.85-5.51-5.17-27.46,4.6-49.45-7.22-71.4-21.86-31.94-21.3-65-40.92-97.57-61.27-17.56-11-27.68-26.08-27.23-47.5.32-15.24-.78-30.5.47-45.74l.05-5.12v-5.07q0-36.51-.08-73v-6.77a448.42,448.42,0,0,1,0-49.19c0-1.71,0-3.43,0-5.14a15.71,15.71,0,0,1,.06-8.44c-1-17.81-1.46-35.7.24-53.39,1.86-19.3,13.31-32.28,31.09-40,34.4-14.89,69.25-28.63,104.76-40.68,33.62-11.42,67.41-22.21,101.83-31.06,19.51-5,24.19-13.5,19.42-33-1.4-5.74-2.33-11.68-4.31-17.21s-.18-7.34,5-8.41c17.94-3.68,35.88-7.42,53.67-11.74,6.07-1.49,8,.3,8.79,5.91,1,7,2.53,13.86,4,20.74,3.16,14.65,12.23,20.79,27.11,18.35,13.91-2.28,27.76-4.9,41.7-7a1381.35,1381.35,0,0,1,147.5-14.64c17.8-.79,35.61-1.29,53.42-1.69l27.29-.2c50.34.95,100.51,3.95,150.55,9.8,30.85,3.62,61.52,8.1,92,13.71,14.93,2.75,24.76-3.6,28.42-18.34a190.94,190.94,0,0,0,4.19-22.43c.59-4.6,2.3-5.58,6.6-4.62q28.45,6.33,57,12.3c4.16.88,4.51,2.94,3.54,6.66-2,7.62-3.48,15.4-5.2,23.1-3.26,14.57,1.78,23.74,16.09,27.53a1499.06,1499.06,0,0,1,170,56c13.87,5.52,27.74,11.09,41.3,17.35,19.91,9.23,31.12,24.73,31.33,47.17.12,14.13-.08,28.27-.14,42.4L1568,565c0,41.55.46,83.11-.15,124.67-.24,16.62-7.7,30.75-22,39.91C1520.08,746,1494,761.9,1468.14,778c-18.08,11.51-36.05,23.21-54.29,34.48-9,5.54-19.28,3.49-29.06,3.61C1366.06,816.33,1366.06,816.2,1366.06,835.12Zm301.28-247c-17.25,0-34.5-.09-51.76-.09-18.56,0-27.77,14.56-19,31.07a46.33,46.33,0,0,1,5.36,22.71c-.13,20.07-.29,40.15-.13,60.22.1,9.62-3.25,16.54-11.9,21.54-30,17.37-58.93,36.54-88.59,54.48-24.06,14.57-48,29.53-71.33,45.33-10.8,7.3-22,11.1-35,10.09a131.9,131.9,0,0,0-15.27.1c-4,.14-7,0-6.9-5.61.08-5.26,2.89-5.48,6.46-5,22.73,3.33,41.42-5.31,60-17.61,33.6-22.32,67.94-43.53,102.45-64.43,23.28-14.12,34-33.72,33.54-61-.78-43.52-.25-87.06-.28-130.6,0-1.13-.07-2.27,0-3.39.09-1.6-.23-3.76,2.24-3.57,2.1.15,2.34,2,2.33,3.82-.17,10.46.12,20.95-.58,31.37-.42,6.36,1.29,8.07,7.79,8,28.85-.27,57.69.11,86.54.25,2.33,0,4.67,0,7,0,0,.56,0,1.13.08,1.69C1676,587.71,1671.68,588.09,1667.34,588.11Zm21.58-12.53c0,3.36-2.63,3-4.9,3h-23.66v.12c-7,0-14.1.12-21.13-.08-2.17-.06-6.72,1.24-6-1.75,1-3.95-2.83-10,3.12-11.85,10.6-3.22,17.76-9.24,20.38-20.24.6-2.56,2.42-3.62,5-3.33,1.12.12,2.25.06,3.37.15,7.79.7,20-3.46,22.47,1.59C1692.3,552.54,1689,564.64,1688.92,575.58Zm72.32,2.47H1731.8v.56c-7.9,0-15.8-.2-23.68.07-4.36.15-6-1.18-5.81-5.73.37-8.44.37-16.92.14-25.36-.11-4.2.85-6.05,5.57-6,16.33.27,32.69.21,49,.09,3.51,0,5.44.8,5,4.64-.06.55,0,1.12,0,1.68C1761.75,558.05,1763.25,568.09,1761.24,578.05Zm1-46.39c.07,4.18-1.53,5.4-5.42,5.33-8.2-.15-16.4,0-24.58,0v-.06c-7.93,0-15.84-.19-23.75.08-4.13.13-6.31-.65-6.15-5.46.32-8.75.4-17.52,0-26.27-.19-4.58,1.46-5.85,5.75-5.85q24.6,0,49.18-.39c4.24-.1,5.39,1.74,5.28,5.56C1762.36,513.58,1762.1,522.63,1762.27,531.66Z"/><path class="cls-2" d="M1567.82,689.71c-.24,16.62-7.7,30.75-22,39.91C1520.08,746,1494,761.9,1468.14,778c-18.08,11.51-36.05,23.21-54.29,34.48-9,5.54-19.28,3.49-29.06,3.61-18.73.23-18.73.1-18.73,19,0,13.9,0,13.86-14,13.86-16.12,0-32.25-.08-48.36.24-4.74.09-6.48-1.06-6.07-6.07.55-7,.3-14.13.41-21.19,0-2.88.36-6.26-4-5.8-39,4.26-74.16-12.63-110.92-20.51-38.41-8.24-77.11-14.43-116.08-19.15-29.29-3.25-58.74-4.25-88.14-6l-15.26-.17-21,.38c-28.73.24-57.34,2.9-86,4.78-18.94,2.69-37.9,5.3-56.84,8.08-42.42,6.22-83.93,16.47-125.13,28.12-2.14.61-4.37,1-6.55,1.42C655,818,641.37,815.89,627.92,816c-6,0-7.87,1.86-7.46,7.71.45,6.77-.08,13.57.12,20.35.11,3.62-1.07,4.93-4.81,5q-30.12.15-60.21.72c-4.4.08-4.21-2.63-4.15-5.59.16-7.63.2-15.25.4-22.88.1-3.92-1.47-5.85-5.51-5.17-27.46,4.6-49.45-7.22-71.4-21.86-31.94-21.3-65-40.92-97.57-61.27-17.56-11-27.68-26.08-27.23-47.5.32-15.24-.78-30.5.47-45.74l.05-5.12v-5.07q0-36.51-.08-73v-6.77a448.42,448.42,0,0,1,0-49.19c0-1.71,0-3.43,0-5.14a15.71,15.71,0,0,1,.06-8.44c-1-17.81-1.46-35.7.24-53.39,1.86-19.3,13.31-32.28,31.09-40,34.4-14.89,69.25-28.63,104.76-40.68,33.62-11.42,67.41-22.21,101.83-31.06,19.51-5,24.19-13.5,19.42-33-1.4-5.74-2.33-11.68-4.31-17.21s-.18-7.34,5-8.41c17.94-3.68,35.88-7.42,53.67-11.74,6.07-1.49,8,.3,8.79,5.91,1,7,2.53,13.86,4,20.74,3.16,14.65,12.23,20.79,27.11,18.35,13.91-2.28,27.76-4.9,41.7-7a1381.35,1381.35,0,0,1,147.5-14.64c17.8-.79,35.61-1.29,53.42-1.69l27.29-.2c50.34.95,100.51,3.95,150.55,9.8,30.85,3.62,61.52,8.1,92,13.71,14.93,2.75,24.76-3.6,28.42-18.34a190.94,190.94,0,0,0,4.19-22.43c.59-4.6,2.3-5.58,6.6-4.62q28.45,6.33,57,12.3c4.16.88,4.51,2.94,3.54,6.66-2,7.62-3.48,15.4-5.2,23.1-3.26,14.57,1.78,23.74,16.09,27.53a1499.06,1499.06,0,0,1,170,56c13.87,5.52,27.74,11.09,41.3,17.35,19.91,9.23,31.12,24.73,31.33,47.17.12,14.13-.08,28.27-.14,42.4L1568,565C1568,606.59,1568.43,648.15,1567.82,689.71Z"/><path class="cls-1" d="M298.85,561.24c-7.74,1.08-11.11,5.25-9.54,13.16.38,1.93.24,4.24-2.36,4.66-2.34.38-2.91-1.47-2.56-3.25,1.73-8.76-2.22-13.42-10.44-15.7-2.28-.63-4.12-2.86-6.16-4.35-1.19-2.22-3.09-4.32-3.44-6.66-1-6.47-4.51-8.38-10.59-7.68-1.79.21-5.31,1.24-5.09-2.39.19-3.22,3.37-2.76,5.36-2.16,6.16,1.86,8.54-1,10.15-6.51a19.29,19.29,0,0,1,13.32-13.25c5.82-1.7,7.45-4.42,7-10.08-.21-2.48-2.14-7.4,2.45-7.4,3.39,0,2.54,4.58,2.27,7.14-.63,5.94,1.22,9.18,7.45,10.68a15.81,15.81,0,0,1,11.59,11.43c1.75,6.76,5.41,9.2,12,8.62,1.21-.1,3-.13,3.07,2.17-.13.27-.44,1.14-.56,1.12-14.64-3.16-13.3,11.87-20.09,17.61l-1.19,1Zm-15-32.69c-1.06-1,2.84-6.42-2.44-5.64-5.75.85-10.12,5.78-11.25,11.12-.93,4.35,4.28,2.35,6.79,2.84C282.71,538,285.56,535.81,283.86,528.55Zm.49,21.14c0-8.13-.2-8.57-6.94-8-2.34.19-6.73-2.37-6.88,3-.1,3.83,7.76,11.75,11.14,11.39C286.39,555.5,283.49,551.64,284.35,549.69Zm5.08-21.29c-.25,5-.8,10,6.36,8.61,2.58-.48,7.59,1.78,7.13-2.68-.58-5.8-5.39-10.18-10.9-11.46C287.75,521.87,290.12,526.65,289.43,528.4Zm-.05,21c1.32,2-2.06,7.41,2.24,6.79,5.5-.79,10.54-5.71,11.24-11.21.77-6.06-5.32-2.48-8.21-3.18C287.82,540.11,289.6,545.42,289.38,549.38Z"/><rect class="cls-2" width="1" height="1"/><rect class="cls-2" x="1919" y="1079" width="1" height="1"/><rect class="cls-2" y="1079" width="1" height="1"/><rect class="cls-2" x="1919" width="1" height="1"/></g><g id="Capa_3" data-name="Capa 3"><path d="M800.76,483.85v111H780.93V524.14l-19.51,14.91-16.17,12.53-16.18-12.53-19.51-14.91v70.74H689.73v-111l19.83,15.23,35.69,27.44,35.68-27.44Z"/><path d="M854.68,520.81v75.5H834.86V518.75a15.85,15.85,0,0,0-13.49-13.49h-4.44V485.59h4.29v.16a35.65,35.65,0,0,1,13.48,3.65,35.17,35.17,0,0,1,16,16.18,41.54,41.54,0,0,1,2.69,7.46,32.91,32.91,0,0,1,1,8.09Z"/><path d="M980.78,575.37V595.2H870.07V562.52a31.61,31.61,0,0,1,2.69-12.84,32.59,32.59,0,0,1,28.87-20h48.06a13,13,0,0,0-1.11-25.85h-78.2V484h78.2a32.63,32.63,0,0,1,32.68,32.67,32.45,32.45,0,0,1-9.36,22.69,33,33,0,0,1-22.37,10h-47.9a12.91,12.91,0,0,0-11.58,12.85v12.84Z"/><path d="M1067.22,483.85a35.81,35.81,0,0,1,35.85,35.85v39.17a35.81,35.81,0,0,1-35.85,35.85H1033a35.81,35.81,0,0,1-35.85-35.85V519.7A35.81,35.81,0,0,1,1033,483.85ZM1033,503.68a16.25,16.25,0,0,0-16.18,16.18V559A16.25,16.25,0,0,0,1033,575.21h34.26A16.25,16.25,0,0,0,1083.4,559V519.86a16.25,16.25,0,0,0-16.18-16.18Z"/><path d="M1221.07,539.52A32.76,32.76,0,0,1,1197.59,595h-45.52a32.56,32.56,0,0,1-30.13-20,34.22,34.22,0,0,1-2.54-12.84,32.63,32.63,0,0,1,9.2-22.84,31,31,0,0,1-6.82-10,34.22,34.22,0,0,1-2.54-12.84,32.67,32.67,0,0,1,9.2-22.85,30.85,30.85,0,0,1,22.84-10h46.47a32.88,32.88,0,0,1,23,55.68Zm-24.27-9.67a12.94,12.94,0,0,0,.48-25.86h-46.79a12.94,12.94,0,0,0,.31,25.86h46Zm.16,45.52a13.07,13.07,0,0,0,13-13,12.93,12.93,0,0,0-12.22-13h-46.47a12.88,12.88,0,0,0-12.21,12.85,13.06,13.06,0,0,0,13,13h45.52Z"/></g></g></svg>