<svg xmlns="http://www.w3.org/2000/svg" viewBox="0 0 1920 1080"><defs><style>.cls-1{fill:#010101;}.cls-2{fill:#f2f2f2;}</style></defs><g id="Capa_2" data-name="Capa 2"><g id="Capa_1-2" data-name="Capa 1"><path class="cls-1" d="M978.91,809.94H941a2.86,2.86,0,0,0-3.09,3c-.53,3.37,1,4.57,4.16,4.5,5-.1,10.08,0,14.53,0l9.26-.09c5.33.16,10.73.82,15.95-.61,0,0,.8.29,1.16-3.27S978.91,809.94,978.91,809.94Zm0,0H941a2.86,2.86,0,0,0-3.09,3c-.53,3.37,1,4.57,4.16,4.5,5-.1,10.08,0,14.53,0l9.26-.09c5.33.16,10.73.82,15.95-.61,0,0,.8.29,1.16-3.27S978.91,809.94,978.91,809.94Zm761.25-336.49c-.17-24.43-1-48.86-1.12-73.27a28.4,28.4,0,0,0-4.93-16.51c-7.23-7.84-15.35-10-24.7-9.94-69.53.16-139.06-.29-208.58.31-23.49.2-46.19-1.26-67.4-12.35a25.88,25.88,0,0,0-4.45-1.6c-3.2-1-6.23-2-4.38-6.45,1.23-3-.94-3.88-3.18-4.6l-74.93-24.32c-2.19-.71-4.79-1.44-5.52,1.48-.91,3.61-2.5,3.2-5.43,2.44-54.84-14.27-109.75-28.33-165.66-37.92a13.81,13.81,0,0,1-9.87-6.3,138.77,138.77,0,0,0-28.3-30.7c-16.68-13.21-35-23.57-56.67-24.56-25-1.16-50.15-.73-75.23-.55-12.25.09-16.71,4.91-17.94,17.43-1.44,14.58-.6,29.18-.37,43.77.12,6.67.4,13.33-.71,20-1.69,10-8.08,15.37-20,15.84l-9.15.12c-9.63-1.73-15.35-7.94-15.58-18.6-.4-16.82,0-33.65-.12-50.47a91.94,91.94,0,0,0-.78-13.28c-1.42-9.29-6.58-14-15.83-14.64-6-.4-12-.38-18.09-.38H838.17c-5.66,0-24.7,8.07-24.7,8.07-23.3,10.29-41.38,26.8-56,47.33A16,16,0,0,1,746.08,291c-46,7.27-91.06,19.12-136.28,30.1-8.62,2.09-17.15,4.48-25.73,6.7-1.48.38-3.79,1.59-4.4.23-3.23-7.2-8.12-2.65-11.81-1.49-22.94,7.19-45.74,14.85-68.62,22.23-2.25.73-5,1.22-3.66,4,2.4,5.2-1.29,5.82-4.5,7.06a13.61,13.61,0,0,0-1.81.57c-22.89,12-47.38,13.94-72.84,13.66-67.59-.75-135.21-.26-202.81-.33-9.63,0-18.94.72-26.43,8.14-6,6.55-7.35,15.69-7.35,15.69v75.13c-.09,8.82,1.33,16.89,5.79,24.59,4,6.92,5.83,14.58,6.49,22.63a218.89,218.89,0,0,1,.55,27.58c-.26,5.7-.36,11.42-.27,17.13a22,22,0,0,0,6.82,16.16c11.79,11.55,23.41,23.27,35,35,3.74,3.78,8.06,6.11,13.41,6.23,18.08.43,36.16.84,54.24-.31,5.07-.32,8.11-3,10.95-6.56s3.16-7.51,3.19-11.69c.06-11.1.08-22.21.24-33.32.08-5.17,2.32-9,7.3-11.17s9.28-1.19,12.93,2.72c5.65,6,12.86,7.53,20.76,7.47,15.87-.1,31.75-.07,47.62,0,11.19.06,9.15.13,11.49,8.69,9.06,33,17.79,66,26.67,99,8.79,32.7,17.42,65.46,26.52,98.08,5.23,18.71,15.85,34.26,30.55,46.88,6.81,5.85,14.81,10,25.12,14.37,9.54,4.38,10,4.09,10,4.09H648.54c4.88,0,9-.1,8.15,6.64-.38,3.13,1.45,4.58,4.62,4.5,2.86-.07,5.71,0,8.56,0l43.74.11c8.15-.53,16.32-1,24.48-1.59,2.1-.16,5.33.79,6-1.5,2.36-8.08,8.45-4.17,13.19-4.64,15.48-1.67,31-1.54,46.53-1.54,14,0,27.93.11,41.9.14q20.46,0,40.94,0c14,0,27.93.19,41.89-.12,13.65-.31,27.3.13,41,.09,65.69-.23,131.38.07,197.08.21,4.3,0,9-1,9.37,6,.15,3.49,3.75,2.7,6.14,2.71q24.29.2,48.55.22c7.94,0,15.88,0,23.8-.19,8.61-.21,8.6-.3,9.59-8.8a7.5,7.5,0,0,1,.7-1.72c3-1.06,6.23-.46,9.37-.47q44.75-.13,89.5-.14c15.9,0,30.66-4.26,44.49-11.91,8.1-4.48,15-10.56,21.81-16.75a101.51,101.51,0,0,0,22.44-42.25q15.44-57.82,30.81-115.68c6.58-24.79,13.07-49.61,19.7-74.39,2.69-10.11,2.81-10.11,13.53-10.15,14.91,0,29.84-.18,44.76,0,8.88.11,16.83-1.3,23.36-8.21,3.89-4.12,9.11-3.88,13.86-.88,3.86,2.44,5.4,5.84,5.33,10.4-.17,10.79-.25,21.59,0,32.38.32,12,5.6,18.59,16.62,19.15,17.42.9,34.89.71,52.33,0a18.22,18.22,0,0,0,12.64-5.68q17.84-17.85,35.74-35.64a21.56,21.56,0,0,0,6.49-17.16c-.49-11.09-.07-22.22-.33-33.32-.28-12,1.84-23.32,7.7-33.88C1738.87,489.21,1740.22,481.59,1740.16,473.45Zm-322.35-97.3c1.07-3.37,3-3.38,5.79-2.26,9.85,4,19.75,7.89,31.6,12.6-14.2,6.7-25.35,5.08-36.28-1.4C1414.41,382.41,1416.78,379.38,1417.81,376.15ZM1002.35,243.22c22.84.2,45.68-.81,68.51.61a76.52,76.52,0,0,1,31.7,9.18c17.88,9.58,33.6,21.89,44.36,39.28,5.11,8.26,11.19,12,20.94,13.56,36.31,5.69,72.1,14.11,107.73,23.09,17.81,4.49,35.63,8.93,53.41,13.56,6.2,1.62,6.19,1.89,4.1,8.19a115.33,115.33,0,0,1-4.19,11.6c-4.19,9.32-7.35,11-17.12,8.65-12-2.84-24-5.79-35.87-9.08-16.63-4.62-33.48-6.2-50.74-6.05-46.32.36-92.66,0-139,.08-16.38,0-33-1.3-48.54,7.87-.19-2.4-.37-3.63-.36-4.85,0-1.87.18-3.72.34-6.53,92.66-.62,185.07-2.16,277.53,1.23.41-3.88-2.81-4.69-5.14-6a69,69,0,0,0-21.36-7.67c-16.53-3.06-32.43-8.5-48.81-11.92-27.87-5.84-55.59-12.31-83.37-18.51a20,20,0,0,1-13.94-10c-9.66-16-22-29.35-38.41-38.79A93,93,0,0,0,1062.76,248c-18.7-1.14-37.43-.91-56.14-.74-2.91,0-6.13,1-8.73-1.1C998.51,242.94,1000.64,243.2,1002.35,243.22Zm-81.49,17.61c-.18,14.6.5,29.22,0,43.8-.79,22.49,16.51,38.83,40.87,36.41a70.6,70.6,0,0,0,8.45-1.28c15.59-3.47,25.31-15,25.75-31,.43-15.55.37-31.1.67-46.65.13-7.14.3-7.25,7.4-7.24,17.46,0,34.94-.18,52.38.38,34.9,1.12,60.46,18.36,79.18,47,3.65,5.58,5.42,13.42,14.61,12.78a1.84,1.84,0,0,1,1.41,1.1c1.26,8.32,8.46,6.84,13.44,7.3,32.62,3.05,64.24,11.11,96,18.33a19.48,19.48,0,0,1,3.33,1.44c0,.5,0,1,0,1.5H650.9c4.78-3.79,9.72-3.67,14.14-4.76,14.75-3.67,29.67-6.69,44.4-10.4,13.33-3.34,27.16-2.42,40.52-5.28,3.4-.73,6.88-1.15,10.33-1.64s7.31-.12,6.86-5.49c0-.64,1-2,1.58-2,7.63-.25,9.38-6.81,12.42-11.7,15.69-25.26,37.23-42,67.1-46.93a63.86,63.86,0,0,1,9.44-1c19-.29,38.1-.37,57.14-.74C919.35,254.71,920.91,256.25,920.86,260.83Zm107.25,105.62c-5.88,15.51-12.8,30.32-26.63,40.67-10.27,7.69-21.85,11-34.57,11.37l-16,0c-21.71-1-37.87-10.85-48.64-29.75-6.29-11-12-22.22-12.93-36.19h38.28c7.92,0,15.85-.05,23.77,0l14,.08c21.5.07,43,0,64.46,0A29.24,29.24,0,0,1,1028.11,366.45Zm-437.28-25c15.65-3.94,31.35-7.76,47-11.65,38.75-9.61,77.62-18.61,117-25.07a17,17,0,0,0,12.71-8.65,115.48,115.48,0,0,1,31.6-33.87C815,250.74,832.36,243.65,852,243.35c20.31-.29,40.63-.14,60.94-.17a39.28,39.28,0,0,1,4.73.32,1.71,1.71,0,0,1,1.62,1.84,1.89,1.89,0,0,1-1.76,1.86,21.87,21.87,0,0,1-3.79-.09c-17.46-.55-34.91,0-52.36.49-36.42,1-64.58,17.09-84,47.51-5.88,9.23-13,13.47-23.1,15.77-43.5,9.92-86.88,20.35-130.28,30.66-4,.94-7.89,2.32-11.81,3.53a12.47,12.47,0,0,0-6.29,4.07,4.12,4.12,0,0,0-.7,4.46c.62,1.19,2.15,1.09,3.39,1,6-.64,11.87-1.87,18-2,33.64-.62,67.28-1.11,100.92-.79,48.24.48,96.49-.63,144.73.59h1.9c9.19.18,9.63.82,7,11.87-12.78-9.73-27.53-8.11-42-8.14-43.17-.1-86.35.38-129.5-.51-26.87-.57-53.09,1.78-78.83,9.63-7.56,2.31-15.34,3.87-23,5.67-9.15,2.14-12.67.46-16.48-8.19a129.5,129.5,0,0,1-4.86-13.38C584.64,343.52,585,342.93,590.83,341.45ZM501.2,372.64a29.12,29.12,0,0,0,1.36,4.21c2.51,4.73.95,7-3.9,9.2a54.58,54.58,0,0,1-28.49,4.9c-2.74-.27-5.54-.31-8-3.45C475.13,382,487.77,376.87,501.2,372.64ZM330.91,543.08c-19.69.37-28.53,8.45-29.71,27.86-.59,9.79-.43,19.65-.31,29.46.05,4.12-.52,6.42-5.56,6.37-14.26-.16-28.52.25-42.79.3a13.26,13.26,0,0,1-10.2-4.12c-9.22-9.6-18.57-19.07-28.16-28.3-3.86-3.72-4-7-1.88-11.75,12.2-27.12,33.28-41.4,62.58-44.1,6.72-.62,13.27.9,19.7,2.58,14.25,3.77,25.86,12.43,37.56,20C332.17,543,331.75,543.06,330.91,543.08Zm62.29,11.19c-17.26,2.34-32.15-2.85-46-13.11-9.14-6.76-19.33-12.11-29.09-18-41.3-24.9-88.57-7.95-107.59,26.24-.28.52-.89.85-1.41,1.32-3.05-1.09-1.61-3.72-1.64-5.58-.12-6.34.14-12.68.19-19,.09-12.93-2.66-25.29-9-36.51-4.23-7.41-2.89-13,1.65-19.94,36.83-55.92,122.66-59.8,163.35-1.39a72.68,72.68,0,0,1,7.33,13.3c9.89,23.35,16.42,47.8,24.5,72.35ZM650.13,824.88c-31.12.06-62.22.1-93.34-.14A75.92,75.92,0,0,1,517,813.5c-13.94-8.57-24.38-20.12-30.31-35.53-7.31-19-11.29-38.9-16.61-58.44-13.13-48.25-25.77-96.65-38.66-145a53.84,53.84,0,0,0-3.63-9.77c-3.19-6.43-8.37-10-15.74-10.5-8.46-.52-8.33-.7-11.06-9.1-6.15-19-11.95-38.09-18.75-56.83-27.87-76.7-128-94.62-181.16-32.59-1.55,1.8-2.53,4.26-6,5.42,0-7.26,0-14.07,0-20.88,0-11.75-.14-23.5.09-35.25.26-13.17,2.3-15.13,15.67-15.81,4.43-.22,8.88-.2,13.33-.2q108.57,0,217.14-.05a28,28,0,0,1,15.1,4.11c12.17,7.18,25.38,7,38.56,2.52,3.54-1.2,7-2.72,10.86-4.25,1.59,6-1.26,9.87-5.71,11.94-11.08,5.16-22.45,9.69-35.2,15.11,2.38-5.46,6.28-7.26,8.63-10.34,1.6-2.1,3.31-4,.67-6.55-2.32-2.21-4.22-.72-5.8.76-10.06,9.46-21.53,17.55-26.07,31.85-1.85,5.85-6.55,10.78-9.83,16.19-6.4,10.51-8.88,22.27-10.56,34.24-.29,2-1.4,4.91,1.09,6,3.07,1.35,4.28-1.63,5.72-3.66.54-.75,1.08-1.62,1.85-1.49q19.91,72.41,39.77,144.67c12.1,44,24.76,87.79,36.13,131.94,8.56,33.18,27.31,41.06,53.21,40.43,26.33-.63,52.7-.05,79,0A58.24,58.24,0,0,1,652,803.76c2.23.52,3.07,2.09,2.92,4.18-.16,2.28-2.07,2-3.54,2-4.12.1-8.28-.21-12.36.21-2.64.27-7.16-2.12-7.29,3.19s4.45,4.17,7.7,4.43c3.47.28,7,.29,10.45.53,2.62.17,6.27-1.16,6.4,3.39C656.47,826.64,652.46,824.87,650.13,824.88Zm521.36,2.26c-1.58,0-3.17,0-4.76,0l-416.84.07c-1.24,0-2.48-.11-4.35-.21a13.86,13.86,0,0,1-.46-1.55c-1.55-21.73-.47-23,20.7-23l392.5.17c16.14,0,16.52.63,16.57,16.49,0,1.58-.07,3.18,0,4.76C1175,826.32,1173.8,827.22,1171.49,827.14Zm85.6-20.4c-1.59,4.46-4.54,3.52-7.56,3.52-3.69,0-7.24,0-7.06,5.23,2.47,2.59,5.76,1.66,8.75,2.06,1.66.22,3.86-.75,4.51,1.89,1.21,6.29.13,12.63.45,18.94.19,3.81-1.83,4.87-5.23,4.89-22.46.17-44.91,0-68.13-1.18.29-4.68.54-9,.81-13.3-1.66-3.29-.49-6.74-.67-11.27,10,0,19.83.1,29.7,0,4.62-.07,9.44.81,13.71-1.94.41-3.7-1.31-5-4.94-5-10.47-.06-20.94-.52-31.42-.48-4.48,0-7.63-.72-9.53-5.54-2.6-6.56-8.44-9.17-15.19-9.62l-404.75-.24c-10.43,0-19,1.79-22.42,13.06-.91,3-3.45,2.26-5.53,2.31-10.16.21-20.32.32-30.48.49-1.9,0-3.81.06-5.71.15-1.39.07-2.69.93-2.67,2.11a4.82,4.82,0,0,0,1.85,3.13c2.13,1.73,4.86,1.25,7.33,1.29,9.53.14,19.05.25,28.57.08,3.84-.07,5.86.58,5.61,5.13-.38,6.6-.1,13.25-.1,18.8-1.78,2.76-3.51,2.29-5,2.29q-30.48,0-61-.11c-6.18,0-7.34,1.32-7.1-7.37.15-5.69,0-11.39,0-17.57,3.81-.89,7.38-1.71,10.95-2.56,1.28-.3,2.4-.79,2.42-2.4s-1.08-2.79-2.15-2.67c-8.87,1-13.47-3.83-16.75-11.23-1.23-2.79-4.56-3.14-7.32-3.9-4-1.12-8.18-1-12.3-1-27.62,0-55.26-.53-82.86.14-20.41.5-34.71-8.37-40.67-30.74-9.19-34.57-18.85-69-28.38-103.49q-22.65-81.95-45.39-163.86c-3.22-11.64-6.36-23.43-3.48-35.58,4.05-17.15,14.16-29.47,30.65-36.22q15.81-6.48,31.66-12.87c8.76-3.52,14.36-9.32,13.67-19.37-.27-4.12,2-5.45,5.3-6.55s6.84-1.64,9.58-4c1.53-1.29,2.5-3,1.41-5-.89-1.63-2.67-1.82-4.17-1.43a65.79,65.79,0,0,0-9,3c-4,1.72-6.32,1.25-7.38-3.62-1.43-6.47-3.61-12.77-5.63-19.72l67.35-21.82c2.8,6.86,5.64,13.72,8.4,20.62,1,2.51.33,4-2.62,4.7-6.12,1.54-12.19,3.39-18.23,5.28-3.31,1-6.53,2.4-9.76,3.69-1.85.74-3.42,2-3.15,4.21.3,2.46,2.48,2.68,4.34,2.63,3.94-.07,4.63,2.12,4.59,5.46-.1,9.21,0,18.42,0,27.62,0,2.48.33,4.33,3.56,4.16,3.05-.18,3.55-1.85,3.49-4.41-.23-9.52-.14-19.05-.6-28.56-.24-4.8,1-7.66,6-9,5.12-1.43,10-3.64,15.22-5.58.77,1.25,1.42,2.29,2.05,3.35,6,10,12.58,13.35,23.8,10.86,13.28-2.95,26.48-6.3,39.62-9.83a159.62,159.62,0,0,1,42.29-5.46c51.44.21,102.87,0,154.3,0,3.81,0,7.62,0,11.43.22,13.92.77,24.83,6.95,32.6,18.55,2.47,3.69,4.88,7.42,7.12,11.25,8.36,14.29,20.24,24.48,36.06,29.28,19.16,5.35,53.6,1,53.6,1,17.35-5,30.58-15.65,38.72-31.56,11.06-21.64,28.6-29.21,52.14-28.91,51.42.68,102.86.45,154.29,0,19.7-.19,38.25,4.84,57,9.43,7.38,1.8,14.73,3.71,22.17,5.21,13.89,2.82,17.66,1.14,25.51-10.55.68-1,1.43-2,2.17-3,5.26,2,10.15,4.27,15.27,5.71,3.84,1.09,4.95,3.1,4.89,6.81-.15,8.88,0,17.77,0,26.66,0,1.91,0,3.81.14,5.71.12,2.4,1.67,3.24,3.82,3.16,2.33-.08,3.2-1.43,3.17-3.73-.07-6.35,0-12.7,0-19.05,0-3.18.26-6.37,0-9.51-.34-4.16.36-6.83,5.47-5.95,1.52.26,3.33-.3,3.69-2.2.45-2.32-1.27-3.34-3-4.17-6.93-3.26-14.48-4.6-21.7-6.93-3.31-1.07-6.7-1.85-10.22-2.8,1.29-7.45,4.91-13.92,6.7-20.94,1.15-4.52,3.71-3.17,6.49-2.26q18.51,6.06,37,12l26.63,8.6c-2.34,7.46-4.67,14.35-6.62,21.34-.95,3.4-2.74,3.85-5.59,2.67-2.63-1.1-5.22-2.34-7.93-3.19-2-.61-4.72-2-5.9.66-1.31,3-.14,5.57,3.21,6.77,2.38.86,4.67,2.05,7.1,2.68,3.4.87,5.35,2.27,5.44,6.31.28,11.31,6.7,17.74,17.14,21.29,9.57,3.26,19.05,6.94,28.27,11.11,21.19,9.62,32.81,28,31.9,49.54-.28,6.7-2.12,13.13-3.88,19.53q-36.84,133.64-73.86,267.25c-.67,2.44-1.35,4.89-2.16,7.28-6,17.76-16.64,25.83-35.34,26-30.16.24-60.32.37-90.48,0C1267.54,794.42,1260.4,797.5,1257.09,806.74ZM1701,579.07c-7.21,7.6-14.91,14.73-22.15,22.29-3.76,3.92-8,5.93-13.44,5.86-13-.16-26,.07-39-.14-7.3-.11-7.45-.44-7.49-7.56-.06-8.25.07-16.51.07-24.76,0-22.1-9.87-32-32-32.58,13.2-8.81,26-18.25,41.73-21.66A68.68,68.68,0,0,1,1704,555.89C1712.36,571.81,1711.26,568.2,1701,579.07Zm21.83-92.81c-9.73,17.19-11.44,35.94-10.61,55.18a19,19,0,0,1-1.6,9.44c-2.35-3.5-4.45-7.23-7.12-10.47-21-25.59-62.45-40-97.73-19.28-13.92,8.16-27.94,16.23-41.33,25.19-8.85,5.93-17.81,9.22-28.44,8.07-3.42-.38-6.93-.06-11.24-.06.89-7,3.34-12.14,5.07-17.51,4.83-15.06,9.57-30.14,14.81-45.05,22.42-63.92,97.16-81.54,144.53-51.56,12.8,8.11,23.12,18.68,31.67,31.06C1724,475.86,1725.94,480.71,1722.8,486.26Zm2.18-26.05c-3.44,1-4.06-1.81-5.29-3.27-53.39-63-151.51-46.79-181.38,30.15-7.58,19.48-13.29,39.6-19.45,59.56-1.74,5.59-4,8.08-10.36,8-10.07-.12-15.89,5.26-19.06,16.61-5.4,19.2-10.4,38.5-15.55,57.76-12.17,45.54-24.22,91.13-36.54,136.63-7.81,28.85-25.6,48.31-54.82,56.45A79.7,79.7,0,0,1,1360.9,825q-44.76,0-89.52-.08c-1.28,0-2.55-.06-3.81,0-2.23,0-3.58-.75-3.62-3.21,0-2.28.89-3.65,3.24-3.71,3.8-.12,7.61-.1,11.42-.18,2.21-.06,4.45-.06,6.64-.33,2.38-.28,3-2.3,3-4.19a3,3,0,0,0-3.21-2.8c-6.59-.06-13.17,0-19.65,0-.42-5.08,1.47-7.23,5.21-7.63a78.66,78.66,0,0,1,8.55-.36q41.43,0,82.86,0a84.8,84.8,0,0,0,17-1.56c14.59-3,24.77-11.4,29.68-25.21,4.23-11.91,7.25-24.26,10.63-36.47q22.92-82.86,45.74-165.73,11.34-41.2,22.55-82.44c.5-1.83,1.27-3.59,2.22-6.23,1,2.14,1.5,3.29,2.09,4.39.78,1.46,1.87,2.71,3.7,2.26a3.44,3.44,0,0,0,2.61-3.52,26.22,26.22,0,0,0-.34-5.68c-2.73-13.75-7-26.82-14.43-39-8.07-13.25-15.22-27.07-27.53-37.15-2-1.59-3.81-3.32-5.9-4.73-2.38-1.61-4.43.19-5.86,1.59-1.86,1.83.1,3.4,1.37,4.71,3,3,6,6,8,10.33-11.25-4.8-22.57-9.42-33.68-14.47-4.14-1.89-6.77-5.44-7.12-11.56,7.2,4.23,14,6.79,21.66,6.75,10.11-.07,19.5-2.31,27.73-8,3.37-2.35,6.67-1.61,10-1.61q93.81-.09,187.62,0c16.83,0,33.66-.1,50.48,0,10.84.09,14.54,3.51,14.68,14.16C1725.16,422.24,1725,441.22,1725,460.21ZM978.91,809.94H941a2.86,2.86,0,0,0-3.09,3c-.53,3.37,1,4.57,4.16,4.5,5-.1,10.08,0,14.53,0l9.26-.09c5.33.16,10.73.82,15.95-.61,0,0,.8.29,1.16-3.27S978.91,809.94,978.91,809.94Z"/><path class="cls-2" d="M1451.11,424.91c-9.22-4.17-18.7-7.85-28.27-11.11-10.44-3.55-16.86-10-17.14-21.29-.09-4-2-5.44-5.44-6.31-2.43-.63-4.72-1.82-7.1-2.68-3.35-1.2-4.52-3.81-3.21-6.77,1.18-2.66,3.92-1.27,5.9-.66,2.71.85,5.3,2.09,7.93,3.19,2.85,1.18,4.64.73,5.59-2.67,2-7,4.28-13.88,6.62-21.34l-26.63-8.6q-18.52-6-37-12c-2.78-.91-5.34-2.26-6.49,2.26-1.79,7-5.41,13.49-6.7,20.94,3.52.95,6.91,1.73,10.22,2.8,7.22,2.33,14.77,3.67,21.7,6.93,1.78.83,3.5,1.85,3,4.17-.36,1.9-2.17,2.46-3.69,2.2-5.11-.88-5.81,1.79-5.47,5.95.26,3.14,0,6.33,0,9.51,0,6.35-.06,12.7,0,19.05,0,2.3-.84,3.65-3.17,3.73-2.15.08-3.7-.76-3.82-3.16-.1-1.9-.13-3.8-.14-5.71,0-8.89-.16-17.78,0-26.66.06-3.71-1-5.72-4.89-6.81-5.12-1.44-10-3.69-15.27-5.71-.74,1-1.49,2-2.17,3-7.85,11.69-11.62,13.37-25.51,10.55-7.44-1.5-14.79-3.41-22.17-5.21-18.76-4.59-37.31-9.62-57-9.43-51.43.49-102.87.72-154.29,0-23.54-.3-41.08,7.27-52.14,28.91-8.14,15.91-21.37,26.54-38.72,31.56,0,0-34.44,4.36-53.6-1-15.82-4.8-27.7-15-36.06-29.28-2.24-3.83-4.65-7.56-7.12-11.25-7.77-11.6-18.68-17.78-32.6-18.55-3.81-.21-7.62-.22-11.43-.22-51.43,0-102.86.18-154.3,0a159.62,159.62,0,0,0-42.29,5.46c-13.14,3.53-26.34,6.88-39.62,9.83-11.22,2.49-17.83-.82-23.8-10.86-.63-1.06-1.28-2.1-2.05-3.35-5.2,1.94-10.1,4.15-15.22,5.58-4.95,1.37-6.22,4.23-6,9,.46,9.51.37,19,.6,28.56.06,2.56-.44,4.23-3.49,4.41-3.23.17-3.56-1.68-3.56-4.16,0-9.2-.15-18.41,0-27.62,0-3.34-.65-5.53-4.59-5.46-1.86.05-4-.17-4.34-2.63-.27-2.2,1.3-3.47,3.15-4.21,3.23-1.29,6.45-2.65,9.76-3.69,6-1.89,12.11-3.74,18.23-5.28,3-.73,3.62-2.19,2.62-4.7-2.76-6.9-5.6-13.76-8.4-20.62l-67.35,21.82c2,6.95,4.2,13.25,5.63,19.72,1.06,4.87,3.35,5.34,7.38,3.62a65.79,65.79,0,0,1,9-3c1.5-.39,3.28-.2,4.17,1.43,1.09,2,.12,3.72-1.41,5-2.74,2.32-6.31,2.88-9.58,4s-5.57,2.43-5.3,6.55c.69,10.05-4.91,15.85-13.67,19.37q-15.86,6.39-31.66,12.87c-16.49,6.75-26.6,19.07-30.65,36.22-2.88,12.15.26,23.94,3.48,35.58q22.67,81.95,45.39,163.86c9.53,34.47,19.19,68.92,28.38,103.49,6,22.37,20.26,31.24,40.67,30.74,27.6-.67,55.24-.17,82.86-.14,4.12,0,8.25-.12,12.3,1,2.76.76,6.09,1.11,7.32,3.9,3.28,7.4,7.88,12.26,16.75,11.23,1.07-.12,2.16,1.16,2.15,2.67s-1.14,2.1-2.42,2.4c-3.57.85-7.14,1.67-10.95,2.56,0,6.18.13,11.88,0,17.57-.24,8.69.92,7.35,7.1,7.37q30.47.06,61,.11c1.47,0,3.2.47,5-2.29,0-5.55-.28-12.2.1-18.8.25-4.55-1.77-5.2-5.61-5.13-9.52.17-19,.06-28.57-.08-2.47,0-5.2.44-7.33-1.29a4.82,4.82,0,0,1-1.85-3.13c0-1.18,1.28-2,2.67-2.11,1.9-.09,3.81-.13,5.71-.15,10.16-.17,20.32-.28,30.48-.49,2.08,0,4.62.65,5.53-2.31,3.46-11.27,12-13.09,22.42-13.06l404.75.24c6.75.45,12.59,3.06,15.19,9.62,1.9,4.82,5,5.55,9.53,5.54,10.48,0,21,.42,31.42.48,3.63,0,5.35,1.32,4.94,5-4.27,2.75-9.09,1.87-13.71,1.94-9.87.15-19.74,0-29.7,0,.18,4.53-1,8,.67,11.27-.27,4.31-.52,8.62-.81,13.3,23.22,1.2,45.67,1.35,68.13,1.18,3.4,0,5.42-1.08,5.23-4.89-.32-6.31.76-12.65-.45-18.94-.65-2.64-2.85-1.67-4.51-1.89-3-.4-6.28.53-8.75-2.06-.18-5.18,3.37-5.24,7.06-5.23,3,0,6,.94,7.56-3.52,3.31-9.24,10.45-12.32,20.2-12.21,30.16.35,60.32.22,90.48,0,18.7-.17,29.33-8.24,35.34-26,.81-2.39,1.49-4.84,2.16-7.28q37-133.63,73.86-267.25c1.76-6.4,3.6-12.83,3.88-19.53C1483.92,452.88,1472.3,434.53,1451.11,424.91ZM555.18,677.82c0-2.11.53-3.64,3.17-3.5,2.42.13,3.27,1.41,3.27,3.6,0,6,0,12,0,17.92h.24c0,6,0,12,0,17.94,0,2.07-.44,3.72-2.92,3.94-3,.29-3.73-1.52-3.73-4.05Q555.21,695.75,555.18,677.82Zm6.58-42c0,5.66,0,11.32,0,17,0,2.18.33,4.5-3,4.7-3.14.19-3.59-1.64-3.58-4.12.07-12,.09-23.91.16-35.86,0-1.9.09-3.8,2.77-3.93,3.23-.18,3.44,2,3.45,4.29,0,6,0,12,0,17.94Zm-2.58,141.75c-2.88.2-4-1.38-3.95-4,0-12,0-24,.1-36.09,0-2.11,1.06-3.56,3.54-3.31,2,.22,2.6,1.68,2.62,3.3.09,6.33,0,12.67,0,19h.35c0,5.7,0,11.4,0,17.1C561.89,775.49,561.82,777.36,559.18,777.54Zm-.35-182.78c-2.17,0-3.6-.52-3.59-3.09.06-12.32,0-24.64.1-37,0-2.08.87-3.69,3.37-3.56s2.81,2.13,2.84,4c.08,6,0,12,0,18H562c0,6-.06,12,0,18C562.05,593.49,561.25,594.71,558.83,594.76Zm.09-60.06c-4.51.34-3.75-3.29-4-6-.38-4.36-.63-8.75-.94-13.15-3.34-.12-3.61,2.67-4.91,4.14-8.85,10-20,12.77-32.67,10.22s-20.85-10.25-24.68-22.4a54.48,54.48,0,0,1,.23-33.67c7.8-24.07,37-31.33,55.28-13.87,1.82,1.75,3.33,3.81,5,5.71l1.87-.27q.52-12.14,1-24.24c.1-2.53.17-5.07.28-7.59a2.64,2.64,0,0,1,3-2.83c1.78,0,3.06.68,3.08,2.68q.12,19,.17,38c0,.61-.06,1.62-.42,1.79-8.27,4-3.54,10.59-2,15.17,2,5.92,2.39,11.65,2.48,17.62.14,7.6.26,15.21.32,22.81C562.05,531.34,562.61,534.42,558.92,534.7ZM1362,777.79c-2.64.18-4.21-.89-4.17-3.78.15-12,.24-24.07.44-36.09,0-2,.9-3.8,3.26-3.89,2.57-.09,3,1.83,3,3.83,0,6.33,0,12.67,0,19h.4c0,5.7-.08,11.4,0,17.1C1365.08,776.22,1364.35,777.63,1362,777.79Zm2.86-203.65c0,5.67,0,11.35,0,17,0,2.45-.36,4.59-3.4,4.43-2.17-.11-3.28-1.56-3.26-3.8.12-12.29.18-24.6.36-36.89,0-1.9.52-4,3.1-3.81s2.81,2.18,2.82,4.11c.06,6.31,0,12.62,0,18.93Zm-3.41,100c3.25-.17,3.22,2.22,3.21,4.56,0,5.69,0,11.39,0,17.09h.11c0,6,0,12,0,18.05,0,2-.23,4-2.72,4.22-3.35.28-3.25-2.28-3.24-4.51q.08-17.56.26-35.14C1359.08,676.58,1358.69,674.27,1361.46,674.13Zm0-16.3c-2.15,0-2.47-1.6-2.47-3.24q0-18.93.13-37.84c0-1.7.38-3.09,2.52-3.09a2.57,2.57,0,0,1,2.9,2.84c0,6.3,0,12.61,0,18.92h.18c0,6.3,0,12.61,0,18.91C1364.84,656.71,1363.83,657.86,1361.51,657.83ZM1429,504.65c-3.46,13.68-12,22.87-26.4,25.48-14,2.56-25.68-1.26-33.84-13.58a18.59,18.59,0,0,0-1.81-2.08l-2.19.49v14.93c0,2.86-.94,5.32-4.21,5-2.93-.3-2.77-3-2.73-5.24.21-13.59-.6-27.18,3-40.63,1.33-4.94,4-11-1.38-15.91-.74-.69-.62-2.41-.76-3.67-1.3-11.72-.46-23.45,0-35.19.06-1.67.45-3.19,2.46-3.36,2.46-.22,3.38,1.25,3.42,3.46.12,7.61.18,15.23.33,22.85.07,3.32.32,6.63.49,10.16,3.19-1,3.79-3.34,5.2-4.9,9.07-9.94,19.87-14.3,33.28-10.81s22.2,12.17,25.33,25.59A58.17,58.17,0,0,1,1429,504.65Z"/><path class="cls-1" d="M562,528.88c-.06-7.6-.18-15.21-.32-22.81-.09-6-.5-11.7-2.48-17.62-1.53-4.58-6.26-11.21,2-15.17.36-.17.42-1.18.42-1.79q0-19-.17-38c0-2-1.3-2.66-3.08-2.68a2.64,2.64,0,0,0-3,2.83c-.11,2.52-.18,5.06-.28,7.59q-.52,12.12-1,24.24l-1.87.27c-1.66-1.9-3.17-4-5-5.71C529,442.53,499.77,449.79,492,473.86a54.48,54.48,0,0,0-.23,33.67c3.83,12.15,12.05,19.88,24.68,22.4s23.82-.17,32.67-10.22c1.3-1.47,1.57-4.26,4.91-4.14.31,4.4.56,8.79.94,13.15.23,2.69-.53,6.32,4,6C562.61,534.42,562.05,531.34,562,528.88ZM549.77,500.4c-1.42,12.49-12.65,22.82-24.92,23.2a26.33,26.33,0,0,1-26.64-22.24c-.57-3.73-.48-7.56-.69-11.35-.82-12.37,2.89-22.18,14.25-28.74,17.66-10.21,36.75,4.61,38.07,19.23A98.76,98.76,0,0,1,549.77,500.4Z"/><path class="cls-1" d="M1429.21,477.23c-3.13-13.42-11.81-22.08-25.33-25.59s-24.21.87-33.28,10.81c-1.41,1.56-2,3.91-5.2,4.9-.17-3.53-.42-6.84-.49-10.16-.15-7.62-.21-15.24-.33-22.85,0-2.21-1-3.68-3.42-3.46-2,.17-2.4,1.69-2.46,3.36-.41,11.74-1.25,23.47,0,35.19.14,1.26,0,3,.76,3.67,5.36,4.91,2.71,11,1.38,15.91-3.63,13.45-2.82,27-3,40.63,0,2.22-.2,4.94,2.73,5.24,3.27.33,4.2-2.13,4.21-5V515l2.19-.49a18.59,18.59,0,0,1,1.81,2.08c8.16,12.32,19.82,16.14,33.84,13.58,14.35-2.61,22.94-11.8,26.4-25.48A58.17,58.17,0,0,0,1429.21,477.23Zm-26.41,45.41c-11.48,4.16-29.55-5.18-32-19.21-1.34-7.82-1.84-15.66-.28-23.55,2.47-12.42,12.88-21.8,24.87-22.18,11.35-.37,22.28,8.19,25.77,20,1.36,4.63,1.23,9.35,1.41,13.3C1422.53,508.39,1415.69,518,1402.8,522.64Z"/><path class="cls-1" d="M1364.88,591.17c0,2.45-.36,4.59-3.4,4.43-2.17-.11-3.28-1.56-3.26-3.8.12-12.29.18-24.6.36-36.89,0-1.9.52-4,3.1-3.81s2.81,2.18,2.82,4.11c.06,6.31,0,12.62,0,18.93h.34C1364.87,579.81,1364.82,585.49,1364.88,591.17Z"/><path class="cls-1" d="M1364.76,713.83c0,2-.23,4-2.72,4.22-3.35.28-3.25-2.28-3.24-4.51q.08-17.56.26-35.14c0-1.82-.37-4.13,2.4-4.27,3.25-.17,3.22,2.22,3.21,4.56,0,5.69,0,11.39,0,17.09h.11C1364.77,701.79,1364.79,707.81,1364.76,713.83Z"/><path class="cls-1" d="M1365,774c0,2.27-.68,3.68-3,3.84-2.64.18-4.21-.89-4.17-3.78.15-12,.24-24.07.44-36.09,0-2,.9-3.8,3.26-3.89,2.57-.09,3,1.83,3,3.83,0,6.33,0,12.67,0,19h.4C1365,762.55,1364.91,768.25,1365,774Z"/><path class="cls-1" d="M1364.81,654.33c0,2.38-1,3.53-3.3,3.5-2.15,0-2.47-1.6-2.47-3.24q0-18.93.13-37.84c0-1.7.38-3.09,2.52-3.09a2.57,2.57,0,0,1,2.9,2.84c0,6.3,0,12.61,0,18.92h.18C1364.78,641.72,1364.73,648,1364.81,654.33Z"/><path class="cls-1" d="M561.86,713.78c0,2.07-.44,3.72-2.92,3.94-3,.29-3.73-1.52-3.73-4.05q0-17.92,0-35.85c0-2.11.53-3.64,3.17-3.5,2.42.13,3.27,1.41,3.27,3.6,0,6,0,12,0,17.92h.24C561.86,701.83,561.85,707.8,561.86,713.78Z"/><path class="cls-1" d="M562,591.17c0,2.32-.76,3.54-3.18,3.59-2.17,0-3.6-.52-3.59-3.09.06-12.32,0-24.64.1-37,0-2.08.87-3.69,3.37-3.56s2.81,2.13,2.84,4c.08,6,0,12,0,18H562C562,579.16,561.91,585.17,562,591.17Z"/><path class="cls-1" d="M559.18,777.54c-2.88.2-4-1.38-3.95-4,0-12,0-24,.1-36.09,0-2.11,1.06-3.56,3.54-3.31,2,.22,2.6,1.68,2.62,3.3.09,6.33,0,12.67,0,19h.35c0,5.7,0,11.4,0,17.1C561.89,775.49,561.82,777.36,559.18,777.54Z"/><path class="cls-1" d="M558.77,657.47c-3.14.19-3.59-1.64-3.58-4.12.07-12,.09-23.91.16-35.86,0-1.9.09-3.8,2.77-3.93,3.23-.18,3.44,2,3.45,4.29,0,6,0,12,0,17.94h.19c0,5.66,0,11.32,0,17C561.75,655,562.09,657.27,558.77,657.47Z"/><path class="cls-1" d="M809.85,307.53c4.41,0,8.81.07,13.22,0,2.26-.05,3.71.89,3.95,3.05.29,2.67-1.13,3.92-3.85,4.17-11.61,1-23.21,2.19-34.81,3.3-2.49.24-4.29-.36-4.62-3.29s.88-3.8,3.54-4.38C794.74,308.72,802.35,309,809.85,307.53Z"/><path class="cls-1" d="M1132.08,317.6c-12.52-1.08-23.56-2.09-34.62-2.93-3.06-.23-5-1.4-4.66-4.56s3.08-2.63,5.19-2.58a264.66,264.66,0,0,1,33.15,2.9c2.76.4,6.3.18,5.6,4.51C1136.16,318.5,1133,317.52,1132.08,317.6Z"/><path class="cls-1" d="M1075.82,312.12c-12,2.16-21.48,8.45-29.52,17.23a13.42,13.42,0,0,1-2.87,2.39c-1,.63-2.3,1.26-3.41.22a3.08,3.08,0,0,1-.57-3.52,31.17,31.17,0,0,1,3.21-5.72c6-8.17,14.11-13.29,23.73-16.17C1072.43,304.74,1072.43,304.75,1075.82,312.12Z"/><path class="cls-1" d="M848.4,305.38c10.57.17,28.6,13.35,31.69,23.18.37,1.16,1,2.42-.46,3.34a3.07,3.07,0,0,1-3.52-.3,10.86,10.86,0,0,1-2.05-2c-6.91-8.25-15.34-14.17-26-16.42-2.82-.6-3.67-1.84-3.26-4.51C845.15,306.57,845.87,305.07,848.4,305.38Z"/><path class="cls-1" d="M1371.17,815.74a21.4,21.4,0,0,1-4.75-.62,3.58,3.58,0,0,1-2.47-3.62,3,3,0,0,1,2.44-2.53c1.82-.51,3.68-.82,5.52-1.25,9.57-2.23,18.68-5.55,26.88-11.14,1.65-1.12,3.83-3.19,5.72-.61,1.45,2,.63,4.23-.9,6.06a11.47,11.47,0,0,1-2,2A62.91,62.91,0,0,1,1371.17,815.74Z"/><path class="cls-1" d="M1450.71,689.31c-3,11.84-5.06,23.7-9.08,35-.65,1.82-1.26,3.82-3.68,3.53-2.79-.32-3.64-2.48-3.25-4.85,2-12.15,5.26-24,8.64-35.86.67-2.33,2.5-3.76,5.08-3.12C1451.51,684.81,1450.48,687.45,1450.71,689.31Z"/><path class="cls-1" d="M1498.31,512.15c-1.89,12.85-3.71,25.69-9.68,37.46-.69,1.37-1.32,3.11-3.28,2.71-1.81-.37-2.3-2.06-2.39-3.67a16.86,16.86,0,0,1,.23-4.71c2.47-10.43,5-20.84,7.59-31.26a11.21,11.21,0,0,1,.49-1.83c.92-2.1,2.15-4.2,4.74-3.91C1499.4,507.32,1498,510.22,1498.31,512.15Z"/><path class="cls-1" d="M1451.2,661.63c2.45-9.71,5.32-21.29,8.34-32.82.61-2.32,2.07-3.93,4.9-2.79,2.47,1,3,2.49,2.4,5.19-2.74,11.3-5.14,22.69-8.84,33.74-.67,2-1.4,4.62-4.33,4C1450.92,668.33,1451,665.83,1451.2,661.63Z"/><path class="cls-1" d="M1466.3,602.29c2.91-9.64,6.28-21.08,9.86-32.46.68-2.18,2.49-3.93,5-3.25,2.86.77,2.57,3.27,2,5.41-3.29,11.47-6.61,22.93-10.08,34.35-.6,2-1.51,4.55-4.55,3.42C1466,608.8,1466,606.47,1466.3,602.29Z"/><path class="cls-1" d="M1433.77,749.58c-2,10.5-4.87,22.34-11.18,33.09-1.41,2.41-3,2.72-5.44,1.43s-3.52-2.87-2-5.23c6.5-9.92,8.94-21.33,12.17-32.47.58-2,1.12-4.79,4.08-3.94C1433.87,743.17,1434.13,745.65,1433.77,749.58Z"/><path class="cls-1" d="M1326.08,810.14c6,0,12,0,17.94,0,2.3,0,4.52.14,4.44,3.34-.07,2.62-1.27,4.1-4,4.12q-18.4.09-36.82.22c-3.09,0-4.77-1.51-4.87-4.48-.13-4,3.06-3.21,5.38-3.25,6-.11,12,0,17.94,0Z"/><path class="cls-1" d="M472.42,684.17c3.45-.26,3.82,2.29,4.45,4.27,3.64,11.4,6.08,23.11,8.7,34.77.42,1.86,1.38,3.79-1.26,4.57-2.18.65-4.52.67-5.9-1.59a15.84,15.84,0,0,1-1.62-4.39c-2.69-10.68-5.19-21.4-8-32C467.68,685.79,469.47,684.6,472.42,684.17Z"/><path class="cls-1" d="M488.8,742.51c2.16-.15,3.09,1.27,3.68,3.26,1.72,5.75,3.31,11.55,5.33,17.19,1.82,5,4.21,9.88,6.22,14.85.92,2.27,2.4,4.79-1.14,6.36-3,1.33-4.91-.2-6.35-2.48a67.8,67.8,0,0,1-4.07-7.5c-3.81-8.12-5.24-16.88-6.73-25.62C485.29,745.92,485.27,743.41,488.8,742.51Z"/><path class="cls-1" d="M454.09,604.81a4.23,4.23,0,0,1-3.3,4.88c-3,.85-3.8-1.26-4.57-3.44-4-11.31-6.86-22.93-9.87-34.52-.6-2.32.16-3.6,2.45-4.08,1.94-.4,3.89-.67,4.71,1.73C447.45,581,451.29,592.69,454.09,604.81Z"/><path class="cls-1" d="M548.19,815.72c-10-1.57-20.14-4.77-29.1-11.07a21.8,21.8,0,0,1-4-4c-1-1.19-2-2.66-.88-4.23,1.37-1.84,3.13-1.66,5-.54,8.1,4.86,16.19,9.75,25.78,11.2,2.49.37,5,.7,7.44,1.29,2.06.49,4.7.8,4.14,3.94-.45,2.53-2.27,3.59-4.83,3.42C550.82,815.67,549.87,815.72,548.19,815.72Z"/><path class="cls-1" d="M421.82,512.12a12.44,12.44,0,0,1,0-2.12c.16-1.21.21-2.59,1.84-2.87s3.35-.14,3.95,1.58c.93,2.66,1.49,5.45,2.18,8.19,2.06,8.24,4.05,16.49,6.23,24.7.65,2.45,1.6,4.82,1.21,7.38-.35,2.34-3.59,3.54-5,1.7a26.86,26.86,0,0,1-4.09-7.41A119,119,0,0,1,421.82,512.12Z"/><path class="cls-1" d="M594.11,810.08c5.38,0,10.77-.19,16.13.08,2.68.13,7-1.73,6.69,3.82-.3,5-4.3,3.74-7.14,3.78-9.17.14-18.35,0-27.53-.06-2.53,0-5.06-.12-7.59-.19-3-.08-3.62-2.12-3.56-4.51.07-2.56,2-2.89,4-2.9C581.45,810.06,587.78,810.08,594.11,810.08Z"/><path class="cls-1" d="M468.49,664.28c.07,1.64.34,3.5-1.46,4.12-2.43.85-3.52-1.27-4-2.93-3.58-11.71-7-23.47-10.41-35.23-.79-2.69.59-4.24,3.05-4.88,2.05-.54,3.7,0,4.27,2.34C462.83,639.9,467.11,651.79,468.49,664.28Z"/><path class="cls-1" d="M1143.8,810.05c6,0,12,0,18.08,0,2.55,0,4.35.67,4.44,3.6s-1.39,4-4.07,4c-12.69,0-25.38-.06-38.07,0-3.3,0-4.64-1.9-4.48-4.78.17-3.27,3-2.7,5.06-2.73,6.35-.09,12.69,0,19,0Z"/><path class="cls-1" d="M1083.15,817.85c-6.34,0-12.69,0-19,0-2.47,0-4.17-.45-4.25-3.57-.09-3.4,1.39-4.37,4.52-4.35,12,.09,24.1,0,36.15.06,2.72,0,5.16.28,5,4s-2.71,3.71-5.32,3.72c-5.71,0-11.42,0-17.12,0Z"/><path class="cls-1" d="M1021.67,810.05c6,0,12,0,18,0,1.6,0,3.18.28,3.35,2.37s-.35,3.76-2.5,4.51a5.55,5.55,0,0,1-1.85.33c-12,0-24,0-36,0-2.92,0-3.85-1.63-3.75-4.19s1.66-3.12,3.79-3.11h18.95Z"/><path class="cls-1" d="M899.27,817.65c-5.68,0-11.37.05-17.06,0-2.35,0-5.22.75-5.27-3.34-.06-4.27,2.64-4.33,5.66-4.27,1.9,0,3.79,0,5.69,0,9.16,0,18.32-.07,27.48.06,2.89,0,7.1-1.13,6.9,3.93s-4.51,3.39-7.29,3.53c-5.36.28-10.74.08-16.11.08Z"/><path class="cls-1" d="M815.18,810.05h41.7c2.26,0,3.47,1,3.37,3.41-.08,2.06-.57,3.83-3,4.06-2.19.21-4.41.26-6.62.26-9.8,0-19.61.07-29.41-.17C816.19,817.48,816.2,817.21,815.18,810.05Z"/><path class="cls-1" d="M777.09,810c5.67,0,11.34-.06,17,0,2.35,0,5.41-.74,5.53,3.19.13,4.23-3,4.09-5.88,4.22-1.88.09-3.78.07-5.67.07q-12.29,0-24.57,0c-1.89,0-3.78,0-5.67-.13-2.84-.13-3.76-2.13-3.74-4.49,0-2.58,2.18-2.74,4.09-2.75,6.3,0,12.6,0,18.9,0Z"/><rect class="cls-2" width="1" height="1"/><rect class="cls-2" x="1919" y="1079" width="1" height="1"/><rect class="cls-2" y="1079" width="1" height="1"/><rect class="cls-2" x="1919" width="1" height="1"/></g><g id="Capa_3" data-name="Capa 3"><path d="M835,540.5v111H815.19V580.79L795.68,595.7,779.5,608.23,763.32,595.7l-19.51-14.91v70.74H724v-111l19.83,15.23,35.69,27.44,35.69-27.44Z"/><path d="M888.94,577.46V653H869.11V575.39a15.81,15.81,0,0,0-13.48-13.48h-4.44V542.24h4.28v.16A35.55,35.55,0,0,1,869,546.05a35.17,35.17,0,0,1,16,16.18,42.55,42.55,0,0,1,2.7,7.45,33.53,33.53,0,0,1,1,8.09Z"/><path d="M1015,632v19.83H904.32V619.17a31.45,31.45,0,0,1,2.7-12.84,32.55,32.55,0,0,1,28.86-20h48.06a13,13,0,0,0-1.11-25.85H904.64V540.66h78.19a32.63,32.63,0,0,1,32.68,32.67,32.4,32.4,0,0,1-9.36,22.68,32.94,32.94,0,0,1-22.36,10H935.88a12.91,12.91,0,0,0-11.58,12.85V631.7Z"/><path d="M1069.43,577.46V653H1049.6V575.39a15.81,15.81,0,0,0-13.48-13.48h-4.44V542.24H1036v.16a35.64,35.64,0,0,1,13.49,3.65,35.27,35.27,0,0,1,16,16.18,41.72,41.72,0,0,1,2.69,7.45,33,33,0,0,1,.95,8.09Z"/><path d="M1193.15,606.48a31.69,31.69,0,0,1,2.69,12.85A32.63,32.63,0,0,1,1163.17,652H1085V632.18h78.2a12.93,12.93,0,0,0,12.85-13,12.77,12.77,0,0,0-11.42-12.84H1085V541h101.68V560.8H1104.8v25.7h59.64a32.16,32.16,0,0,1,28.87,19.83Z"/></g></g></svg>