<svg xmlns="http://www.w3.org/2000/svg" viewBox="0 0 1920 1080"><defs><style>.cls-1{fill:#010101;}.cls-2{fill:#f2f2f2;}</style></defs><g id="Capa_2" data-name="Capa 2"><g id="Capa_1-2" data-name="Capa 1"><path class="cls-1" d="M1718.4,444.29c-7.1-5.53-15.23-5.61-23.57-5.58-24.32.08-48.64-.14-73,.12-6.57.06-9-2.37-8.64-8.82s0-13,0-19.55c0-25.09-11.58-42.18-34.82-51.75Q1497.59,325.44,1414,300a1670.16,1670.16,0,0,0-209.53-49.17c-24-4-47.18-9.44-69.26-20.71-30.8-15.74-64.2-23.49-98.79-26.07-22.81-1.71-45.61-.66-68.42-.56l-15.66-.11c-86.92,0-124.39,10.51-124.39,10.51-17.16,4.88-34.12,10.52-49.55,19.3-19.31,11-40.5,13.93-61.68,17.45-52.86,8.8-105.12,20.39-156.87,34.19a1758.42,1758.42,0,0,0-218,73.91c-22.85,9.42-34.71,26.59-34.69,51,0,6.52-.37,13.06.06,19.55.44,6.9-2.52,9.34-9.15,9.31-21.57-.1-43.13,0-64.71.17-11.85.06-24.13-2-34.81,8.14-4.69,5-4.09,20.62-4.09,20.62,0,32.58-.28,65.17-.43,97.76.08,10.77.15,21.54.27,32.3q.27,25,24.95,25.09,27.45.12,54.88.16l72.16,0c4.19-.09,8.37-.27,12.54-.24,12.41.1,14.88,2.14,18.15,14.66,9.76,14.2,16.53,30,24.89,45,1.51,2.72,4.17,5.17,3.47,8.82,5.32,4.53,7.13,11.22,10.19,17.05,10.65,20.34,21.58,40.47,34.88,59.25,13.42,17.52,29.28,32.77,45.25,47.9,1.38,1.32,3.83,1,4.57,3.23,21.37,15.35,43.58,29.21,68.31,38.67a274.13,274.13,0,0,0,39.36,12.14,209.24,209.24,0,0,0,44.1,7.47c39.52.32,77.66-6.63,115.7-15.61a116.65,116.65,0,0,1,26.76-3.39c52.13,0,104.26.14,156.4,0l15.59.05c29.07-.36,58.13-.77,87.2.21,43.52-1.21,86.68-1.32,129.63,9.44,84.35,21.11,162.12,4.92,232.54-46.19a17.24,17.24,0,0,1,1.94-1,333.14,333.14,0,0,0,53.66-54.6c16.2-22.91,28-48.32,41.69-72.68q15-28,29.92-56c3.1-10.66,9.25-15,21.23-14.74,40.9.92,81.83.49,122.75.58,3.52-.08,7-.24,10.51-.21,20.83.2,28.67-7.53,28.63-28.33V463.88A30.37,30.37,0,0,0,1718.4,444.29ZM1184.17,259.15a1766,1766,0,0,1,298.21,75.72c29.7,10.41,59.06,21.74,88.27,33.49,15,6.05,26.54,14.91,30,31.63.3,1.47.47,3,.75,4.82-.71,5.29-4,2.2-6.15,1.29-18.86-7.94-37.63-16.11-56.49-24.07-97.29-41.11-198.33-69.51-302-89-10.32-1.94-20.63-3.86-30.91-6-13.09-2.74-22-10.35-25.83-23.34C1179,260.11,1179.07,258.31,1184.17,259.15ZM318.94,403.55c2.34-14.48,9.5-25.52,23.23-31.75,22.1-10,44.85-18.44,67.58-26.83C504,310.19,600.46,283.49,699.4,265.84c12.06-2.15,24.18-4,36.14-6.62,6.14-1.35,5.81,1.25,4.45,5.32-4.16,12.52-12.81,20-25.73,22.46-43.68,8.35-87.22,17.32-130.45,27.83C495.39,336.33,410.7,368.35,327.6,405c-1.37.61-2.68,1.34-4.06,1.93C320.3,408.26,318,408.19,318.94,403.55ZM1714,597.33c0,9.89-3.15,13.18-12.86,13.37-6.25.13-12.51-.17-18.76-.28-39.82.14-79.65.63-119.47.22-14.4-.15-23.34,4.61-30.07,18.13q-28,56.36-59.36,111.06c-6.34,11.07-13.44,21.66-22.5,30.78a220.6,220.6,0,0,1-63.61,55c-25.23,16.46-52.9,26.82-82.2,33.23-42,9.18-83.71,6.83-125-3.73-27.14-7-54.44-10.69-82.44-9.06-4.21.24-8.46-.38-12.68-.59-1,0-2.06,0-3.09,0a51.77,51.77,0,0,1-16.48,0c-33,1.1-66.12.3-99.18.26l-13.6.08c-21.55-.12-43.1.12-64.65.16-32.07,0-64.16-.18-96.22.11-22,.21-42.85,7.36-64.08,11.9-67.32,14.36-130.77,4.81-190.54-29.29a29.91,29.91,0,0,1-3.52-2.67C509,812.27,488.25,793.76,470,772.36c-10.83-12.72-20.85-26.05-27.85-41.4-13.66-22.06-24.8-45.5-37.25-68.22-6.85-12.47-13.71-25-19.75-37.84-5-10.54-12.87-14.63-24-14.19-3.48.15-7-.17-10.45-.28-26.58.68-53.17.77-79.74,0q-27.58.09-55.18.15c-6.22,0-9.1-3.65-9.36-9.32-.28-6.44,0-12.9,0-19.36,0-3,0-6,0-9v-3c-.09-35.59-.25-71.17-.2-106.76,0-9,3.25-12.05,12.46-12.12,25.83-.17,51.65-.13,77.47-.1,17.28,0,22.69-5.2,22.64-22.19-.05-13.38,0-13.24,12.22-18.63,67.7-29.87,136.5-56.71,207.74-77,57.94-16.52,116.81-29,176-39.88,17.14-3.16,28.24-13.76,31.59-30.69.46-2.39,1-4.55,3.55-5.14,21.2-4.92,39.15-17.5,59.37-24.86a280,280,0,0,1,95.53-17.25c15.79-.07,31.59.14,47.38-.25l25.05.23c27.53.22,55.1-1.13,82.49,3.54,29.1,5,56.53,14.65,82.75,27.92,8.29,4.2,16.66,8.13,25.73,10.15,3.59.8,4.87,2.53,5.49,5.94,3.22,17.77,14.7,27.19,31.8,30.4,63.86,11.93,127.37,25.38,189.68,43.92,67.35,20.05,132.44,46.07,196.81,74.09,7.44,3.25,10.77,6.83,9.38,14.77a29.46,29.46,0,0,0,.09,7.5c1,12,6.9,17.48,19,17.49,26.07,0,52.14-.15,78.21,0,12.91.07,15.26,2.59,15.28,15.58Q1714.07,531.92,1714,597.33ZM1596.58,472.21c.35-23.48-9.91-40.86-29.59-53-21.42-13.23-45.31-20.93-68.6-29.87-95.06-36.49-193.21-61.73-293.34-79.63a72.34,72.34,0,0,1-31.22-13.78c-37.07-27.75-78.16-46.2-124.14-53.33-26.17-4.06-52.48-3.4-78.77-2.88l-30.25-.36c-34.13-.4-68.07.31-101.26,10-31.32,9.1-60.88,22.29-86.36,42.38-18.23,14.37-39,18.22-60.36,22.24C584,334.4,478.3,364.77,376.23,407.53c-14.82,6.2-29.08,13.46-39.83,26.07-8.53,10-12.38,21.68-12.51,34.56-.25,24.07-.49,48.13-.09,72.19.35,21.42,10.83,37.46,28.45,49.14,7.78,3.3,15.64,6.42,23.94,8.26,8,1.77,12.88,7.09,16.54,14q25.47,47.87,51,95.69c2.22,4.15,4.51,8.28,6.76,12.42,18.9,31.16,48.87,44.44,82.64,53,60.24,15.4,120.82,28.92,182.2,38.81,6.38,1,12.88,1.35,19.12,3.24,18.37,2.17,36.74,4.27,55.08,6.53,45.76,5.64,91.72,8.64,137.77,10.2,8.51.29,17,1,25.53.78l13.77.31c20.29-.67,40.55-2,60.83-2.49,10.18-.24,20.25-2.59,30.49-1.45,37.28-3.7,74.62-6.71,111.71-12.21,7.88-1.16,15.82-1.93,23.74-2.9,22.11-4,44.22-7.87,66.31-11.91,44.94-8.24,89.31-18.91,133.39-30.87,8.51-2.31,17-4.87,25.43-7.32,28.76-12.5,47.42-34.67,61.3-62.14,15-29.63,31.21-58.61,46.73-88,4.71-8.89,11-14.81,21.38-16.9,18.9-3.8,33-14.87,43-31.26,4.45-11.08,5.92-22.57,5.68-34.5C1596.21,511.32,1596.29,491.75,1596.58,472.21Zm-6,2.74c-.67,20.78,0,41.6-.31,62.41-.13,10.32-1.56,20.48-8.28,29-7.32,12.2-18.17,20.08-31.79,22.94-16.2,3.39-26.52,12.48-32.84,27.41-3.1,7.3-7.5,14-11.3,21-6.73,12.93-13.38,25.9-20.23,38.78-3.86,7.27-8,14.37-12.08,21.55-13.87,31.19-35.24,54.15-69.3,63.23q-21.27,5.67-42.54,11.41c-47.8,12.57-96.16,22.48-144.91,30.62a1688.56,1688.56,0,0,1-232.77,22.44l-36.65.49c-24.91-.87-49.86-1.11-74.68-3.81-26.31-.47-52.43-3.44-78.52-6.33q-83.18-9.18-165-26.61-57.52-12.24-114.07-28.38c-23.85-6.83-43.09-20.08-56.34-41-15.8-24.9-28.89-51.36-42.15-77.7-5.82-10.72-11.92-21.31-17.42-32.21-5.33-10.55-13.25-16.87-24.92-19.58-11-2.54-21.57-6.54-29-15.91-10.16-8.66-14.76-20.06-15.15-33-.76-25.56-1-51.13.16-76.67,1-21.82,14.67-34.94,32.56-44.32,26.84-14.06,55.56-23.72,83.9-34.14,78.72-28.89,159.64-49.77,241.82-66,7.11-1.4,14.25-2.75,21.42-3.64,16.08-2,30.08-8.44,43-18.08,45-33.52,95.47-52.14,151.77-53.14,37.33-.65,74.7-.49,112,.16,51.19.91,98.29,16.3,139.54,46.17,21.47,15.56,44.34,23.44,69.87,28.08,99,18,195.52,45,289,82.46,15.07,6,30.31,11.61,44.51,19.68C1580.37,434,1591.3,450.73,1590.53,475Zm6.06,55.91c-.38-19.54-.3-39.11,0-58.65.35-23.48-9.91-40.86-29.59-53-21.42-13.23-45.31-20.93-68.6-29.87-95.06-36.49-193.21-61.73-293.34-79.63a72.34,72.34,0,0,1-31.22-13.78c-37.07-27.75-78.16-46.2-124.14-53.33-26.17-4.06-52.48-3.4-78.77-2.88l-30.25-.36c-34.13-.4-68.07.31-101.26,10-31.32,9.1-60.88,22.29-86.36,42.38-18.23,14.37-39,18.22-60.36,22.24C584,334.4,478.3,364.77,376.23,407.53c-14.82,6.2-29.08,13.46-39.83,26.07-8.53,10-12.38,21.68-12.51,34.56-.25,24.07-.49,48.13-.09,72.19.35,21.42,10.83,37.46,28.45,49.14,7.78,3.3,15.64,6.42,23.94,8.26,8,1.77,12.88,7.09,16.54,14q25.47,47.87,51,95.69c2.22,4.15,4.51,8.28,6.76,12.42,18.9,31.16,48.87,44.44,82.64,53,60.24,15.4,120.82,28.92,182.2,38.81,6.38,1,12.88,1.35,19.12,3.24,18.37,2.17,36.74,4.27,55.08,6.53,45.76,5.64,91.72,8.64,137.77,10.2,8.51.29,17,1,25.53.78l13.77.31c20.29-.67,40.55-2,60.83-2.49,10.18-.24,20.25-2.59,30.49-1.45,37.28-3.7,74.62-6.71,111.71-12.21,7.88-1.16,15.82-1.93,23.74-2.9,22.11-4,44.22-7.87,66.31-11.91,44.94-8.24,89.31-18.91,133.39-30.87,8.51-2.31,17-4.87,25.43-7.32,28.76-12.5,47.42-34.67,61.3-62.14,15-29.63,31.21-58.61,46.73-88,4.71-8.89,11-14.81,21.38-16.9,18.9-3.8,33-14.87,43-31.26C1595.36,554.28,1596.83,542.79,1596.59,530.86ZM1590.53,475c-.67,20.78,0,41.6-.31,62.41-.13,10.32-1.56,20.48-8.28,29-7.32,12.2-18.17,20.08-31.79,22.94-16.2,3.39-26.52,12.48-32.84,27.41-3.1,7.3-7.5,14-11.3,21-6.73,12.93-13.38,25.9-20.23,38.78-3.86,7.27-8,14.37-12.08,21.55-13.87,31.19-35.24,54.15-69.3,63.23q-21.27,5.67-42.54,11.41c-47.8,12.57-96.16,22.48-144.91,30.62a1688.56,1688.56,0,0,1-232.77,22.44l-36.65.49c-24.91-.87-49.86-1.11-74.68-3.81-26.31-.47-52.43-3.44-78.52-6.33q-83.18-9.18-165-26.61-57.52-12.24-114.07-28.38c-23.85-6.83-43.09-20.08-56.34-41-15.8-24.9-28.89-51.36-42.15-77.7-5.82-10.72-11.92-21.31-17.42-32.21-5.33-10.55-13.25-16.87-24.92-19.58-11-2.54-21.57-6.54-29-15.91-10.16-8.66-14.76-20.06-15.15-33-.76-25.56-1-51.13.16-76.67,1-21.82,14.67-34.94,32.56-44.32,26.84-14.06,55.56-23.72,83.9-34.14,78.72-28.89,159.64-49.77,241.82-66,7.11-1.4,14.25-2.75,21.42-3.64,16.08-2,30.08-8.44,43-18.08,45-33.52,95.47-52.14,151.77-53.14,37.33-.65,74.7-.49,112,.16,51.19.91,98.29,16.3,139.54,46.17,21.47,15.56,44.34,23.44,69.87,28.08,99,18,195.52,45,289,82.46,15.07,6,30.31,11.61,44.51,19.68C1580.37,434,1591.3,450.73,1590.53,475Zm6.06,55.91c-.38-19.54-.3-39.11,0-58.65.35-23.48-9.91-40.86-29.59-53-21.42-13.23-45.31-20.93-68.6-29.87-95.06-36.49-193.21-61.73-293.34-79.63a72.34,72.34,0,0,1-31.22-13.78c-37.07-27.75-78.16-46.2-124.14-53.33-26.17-4.06-52.48-3.4-78.77-2.88l-30.25-.36c-34.13-.4-68.07.31-101.26,10-31.32,9.1-60.88,22.29-86.36,42.38-18.23,14.37-39,18.22-60.36,22.24C584,334.4,478.3,364.77,376.23,407.53c-14.82,6.2-29.08,13.46-39.83,26.07-8.53,10-12.38,21.68-12.51,34.56-.25,24.07-.49,48.13-.09,72.19.35,21.42,10.83,37.46,28.45,49.14,7.78,3.3,15.64,6.42,23.94,8.26,8,1.77,12.88,7.09,16.54,14q25.47,47.87,51,95.69c2.22,4.15,4.51,8.28,6.76,12.42,18.9,31.16,48.87,44.44,82.64,53,60.24,15.4,120.82,28.92,182.2,38.81,6.38,1,12.88,1.35,19.12,3.24,18.37,2.17,36.74,4.27,55.08,6.53,45.76,5.64,91.72,8.64,137.77,10.2,8.51.29,17,1,25.53.78l13.77.31c20.29-.67,40.55-2,60.83-2.49,10.18-.24,20.25-2.59,30.49-1.45,37.28-3.7,74.62-6.71,111.71-12.21,7.88-1.16,15.82-1.93,23.74-2.9,22.11-4,44.22-7.87,66.31-11.91,44.94-8.24,89.31-18.91,133.39-30.87,8.51-2.31,17-4.87,25.43-7.32,28.76-12.5,47.42-34.67,61.3-62.14,15-29.63,31.21-58.61,46.73-88,4.71-8.89,11-14.81,21.38-16.9,18.9-3.8,33-14.87,43-31.26C1595.36,554.28,1596.83,542.79,1596.59,530.86ZM1590.53,475c-.67,20.78,0,41.6-.31,62.41-.13,10.32-1.56,20.48-8.28,29-7.32,12.2-18.17,20.08-31.79,22.94-16.2,3.39-26.52,12.48-32.84,27.41-3.1,7.3-7.5,14-11.3,21-6.73,12.93-13.38,25.9-20.23,38.78-3.86,7.27-8,14.37-12.08,21.55-13.87,31.19-35.24,54.15-69.3,63.23q-21.27,5.67-42.54,11.41c-47.8,12.57-96.16,22.48-144.91,30.62a1688.56,1688.56,0,0,1-232.77,22.44l-36.65.49c-24.91-.87-49.86-1.11-74.68-3.81-26.31-.47-52.43-3.44-78.52-6.33q-83.18-9.18-165-26.61-57.52-12.24-114.07-28.38c-23.85-6.83-43.09-20.08-56.34-41-15.8-24.9-28.89-51.36-42.15-77.7-5.82-10.72-11.92-21.31-17.42-32.21-5.33-10.55-13.25-16.87-24.92-19.58-11-2.54-21.57-6.54-29-15.91-10.16-8.66-14.76-20.06-15.15-33-.76-25.56-1-51.13.16-76.67,1-21.82,14.67-34.94,32.56-44.32,26.84-14.06,55.56-23.72,83.9-34.14,78.72-28.89,159.64-49.77,241.82-66,7.11-1.4,14.25-2.75,21.42-3.64,16.08-2,30.08-8.44,43-18.08,45-33.52,95.47-52.14,151.77-53.14,37.33-.65,74.7-.49,112,.16,51.19.91,98.29,16.3,139.54,46.17,21.47,15.56,44.34,23.44,69.87,28.08,99,18,195.52,45,289,82.46,15.07,6,30.31,11.61,44.51,19.68C1580.37,434,1591.3,450.73,1590.53,475Z"/><path class="cls-2" d="M1559.89,422.33c-14.2-8.07-29.44-13.65-44.51-19.68-93.51-37.42-190-64.45-289-82.46-25.53-4.64-48.4-12.52-69.87-28.08-41.25-29.87-88.35-45.26-139.54-46.17-37.34-.65-74.71-.81-112-.16-56.3,1-106.76,19.62-151.77,53.14-12.93,9.64-26.93,16.09-43,18.08-7.17.89-14.31,2.24-21.42,3.64-82.18,16.2-163.1,37.08-241.82,66C418.54,397,389.82,406.69,363,420.75c-17.89,9.38-31.6,22.5-32.56,44.32-1.12,25.54-.92,51.11-.16,76.67.39,13,5,24.37,15.15,33,7.42,9.37,18,13.37,29,15.91,11.67,2.71,19.59,9,24.92,19.58,5.5,10.9,11.6,21.49,17.42,32.21,13.26,26.34,26.35,52.8,42.15,77.7,13.25,20.89,32.49,34.14,56.34,41q56.53,16.2,114.07,28.38,81.84,17.43,165,26.61c26.09,2.89,52.21,5.86,78.52,6.33,24.82,2.7,49.77,2.94,74.68,3.81l36.65-.49A1688.56,1688.56,0,0,0,1217,803.34c48.75-8.14,97.11-18.05,144.91-30.62q21.26-5.72,42.54-11.41c34.06-9.08,55.43-32,69.3-63.23,4-7.18,8.22-14.28,12.08-21.55,6.85-12.88,13.5-25.85,20.23-38.78,3.8-7,8.2-13.73,11.3-21,6.32-14.93,16.64-24,32.84-27.41,13.62-2.86,24.47-10.74,31.79-22.94,6.72-8.53,8.15-18.69,8.28-29,.26-20.81-.36-41.63.31-62.41C1591.3,450.73,1580.37,434,1559.89,422.33ZM992.65,403.69c-1,14.28-9.84,25.15-24.49,28.47a33.11,33.11,0,0,1-15.07-.31c-13.11-3.35-21.86-13.44-23.2-26.15C928.38,391.39,934.4,380,947,373.51c0,0,14.39-6.46,27.3-.65A31.47,31.47,0,0,1,992.65,403.69Z"/><path class="cls-1" d="M974.25,372.86c-12.91-5.81-27.3.65-27.3.65-12.55,6.51-18.57,17.88-17.06,32.19,1.34,12.71,10.09,22.8,23.2,26.15a33.11,33.11,0,0,0,15.07.31c14.65-3.32,23.51-14.19,24.49-28.47A31.47,31.47,0,0,0,974.25,372.86Zm-5.83,53.42c-7.46,3.1-16.56-.85-16.56-.85-11.68-5.36-18.29-17.35-15.61-29.3s14.13-20.84,26.3-20.22c11.52.6,21.9,10.38,23.73,22.38S980.39,422.14,968.42,426.28Z"/><rect class="cls-2" width="1" height="1"/><rect class="cls-2" x="1919" y="1079" width="1" height="1"/><rect class="cls-2" y="1079" width="1" height="1"/><rect class="cls-2" x="1919" width="1" height="1"/></g><g id="Capa_3" data-name="Capa 3"><path d="M834.94,547.61v111H815.11V587.89L795.6,602.8l-16.17,12.53L763.25,602.8l-19.51-14.91v70.75H723.91v-111l19.83,15.22,35.69,27.44,35.68-27.44Z"/><path d="M888.86,584.56v75.5H869V582.5A15.83,15.83,0,0,0,855.55,569h-4.44V549.35h4.29v.16a35.65,35.65,0,0,1,13.48,3.65,35.17,35.17,0,0,1,16,16.18,41.44,41.44,0,0,1,2.69,7.45,33,33,0,0,1,1,8.09Z"/><path d="M1015,639.13V659H904.25V626.28a31.69,31.69,0,0,1,2.69-12.85,32.56,32.56,0,0,1,28.87-20h48.06a13,13,0,0,0-1.11-25.86h-78.2V547.76h78.2a32.64,32.64,0,0,1,32.68,32.68,32.4,32.4,0,0,1-9.36,22.68,32.89,32.89,0,0,1-22.37,10h-47.9A12.92,12.92,0,0,0,924.23,626v12.85Z"/><path d="M1069.36,584.56v75.5h-19.83V582.5A15.8,15.8,0,0,0,1036.05,569h-4.44V549.35h4.28v.16a35.55,35.55,0,0,1,13.48,3.65,35.17,35.17,0,0,1,16,16.18,41.48,41.48,0,0,1,2.7,7.45,33.53,33.53,0,0,1,1,8.09Z"/><path d="M1186.89,603.28a32.75,32.75,0,0,1-23.47,55.51h-45.53a32.55,32.55,0,0,1-30.13-20,34.31,34.31,0,0,1-2.54-12.85,32.67,32.67,0,0,1,9.2-22.84,30.81,30.81,0,0,1-6.82-10,34.31,34.31,0,0,1-2.54-12.85,32.67,32.67,0,0,1,9.2-22.84,30.85,30.85,0,0,1,22.84-10h46.47a32.87,32.87,0,0,1,23,55.67Zm-24.27-9.68a12.94,12.94,0,0,0,.48-25.85h-46.79a12.93,12.93,0,0,0,.31,25.85h46Zm.16,45.53a13.07,13.07,0,0,0,13-13,12.93,12.93,0,0,0-12.22-13H1117.1A12.88,12.88,0,0,0,1104.89,626a13.06,13.06,0,0,0,13,13h45.53Z"/></g></g></svg>