<svg xmlns="http://www.w3.org/2000/svg" viewBox="0 0 1920 1080"><defs><style>.cls-1{fill:#010101;}.cls-2{fill:#f2f2f2;}.cls-3{fill:none;}</style></defs><g id="Capa_2" data-name="Capa 2"><g id="Capa_1-2" data-name="Capa 1"><path class="cls-1" d="M968.24,708.85l-14.61.21c-1.25-.23-2.55-.26-3.83-.37-2-.19-3.39.65-3.44,2.75s1.57,2.06,3.14,2.23l18.82-.12c1.63.2,4.85,1.75,5.06-1.77S970.45,708.91,968.24,708.85Zm0,0-14.61.21c-1.25-.23-2.55-.26-3.83-.37-2-.19-3.39.65-3.44,2.75s1.57,2.06,3.14,2.23l18.82-.12c1.63.2,4.85,1.75,5.06-1.77S970.45,708.91,968.24,708.85ZM988,312c-.26-1.83-1.92-2.15-3.43-2.24-5.56-.3-11.12-.7-16.69-.71l-18.71.06c-4.48.36-9,.38-13.49.57-1.51.07-3.27.11-3.71,1.86s1,2.91,2.54,3l51-.09C986.77,314.32,988.24,313.57,988,312Zm0,0c-.26-1.83-1.92-2.15-3.43-2.24-5.56-.3-11.12-.7-16.69-.71l-18.71.06c-4.48.36-9,.38-13.49.57-1.51.07-3.27.11-3.71,1.86s1,2.91,2.54,3l51-.09C986.77,314.32,988.24,313.57,988,312Zm774.86,132.62c-14.12-14-32.32-13.57-49.23-16.89-10.29-2-20.65-3.71-31-5.6-4-.72-7.79-.4-11,2.22s-6.07,1.86-9.51.55c-54.31-20.73-108.48-41.87-163.72-60.08-4.5-1.49-5.21-3.55-3.3-7.47,2-4.13,1.11-6.5-3.82-7.84q-51.66-14-103.17-28.57c-5.75-1.63-9.33-1.7-10.1,5.35-.65,6-3.57,7-9.59,5.35-46.14-12.37-93-21.23-140.21-28.38-39.41-6-79-10.65-118.73-13.42s-138.79-5.54-138.79-5.54l-18.54-.42a1825.63,1825.63,0,0,0-194.47,10.7c-29.82,3.19-59.5,7.42-89.09,12.37-39.49,6.62-78.73,14.4-117.4,24.8-6.47,1.75-8.74,0-9.48-5.6-.84-6.42-4-6.92-9.62-5.33Q480,335.48,427.75,349.63c-5.07,1.39-4.52,4.36-2.95,7.77,1.82,4,1.08,5.89-3.39,7.38C366.18,383.19,311.9,404.17,257.56,425c-3.69,1.42-6.73,1.92-10-1.12-2.45-2.31-5.75-2.45-9.1-1.85-12.85,2.3-25.8,4.14-38.57,6.83-14.55,3.07-30.77,1.78-41.88,15.48a13.2,13.2,0,0,0-3.86,8.43v98.05c0,17.64,9.11,26.35,26.61,26.44l48.25.23c5.11-.06,10.25-.37,15.35-.14,6,.29,11.12,2.47,14.4,8q29.51,50.15,59.11,100.25a4.81,4.81,0,0,1,.29,1.23c12.74,21.47,25.58,42.87,38.21,64.4,11.34,19.34,21.3,39.77,42.66,50.64,12.51,5.68,25.63,7.42,39.31,7.06,14.3-.37,28.62.09,42.94.18,16.92-.09,33.86-.59,50.79-.14,10.81.29,20.65-2.93,30.66-6,17-5.17,34-10.19,50.91-15.54,4-1.26,5.35-1,6.09,3.61,1.76,10.75,2.08,10.66,12.48,8.34,34.39-7.65,68.77-15.39,103.22-22.77,5.68-1.21,7.06-3.62,5.42-8.72-.52-1.62-.56-3.39-1.12-5-1.1-3.23,0-4.75,3.33-5.16,19.1-2.3,38.11-5.47,57.34-6.83,29.08-3.64,58.19-6.79,87.49-8a374,374,0,0,1,49-2.49c24.16-1.88,48.33-.48,72.46.7,24.77,1.2,49.51,3.23,74.21,5.68,31.06,3.08,62,7,93,10.76,3.5.43,4.08,1.89,3.76,5-.42,4.23-2.36,8.29-1.46,12.67q55.65,12.27,111.28,24.51c8.12,1.77,8.17,1.57,9.67-6.59a15.51,15.51,0,0,0,.31-1.91c.25-4,1.59-5.38,6-3.94q25.89,8.36,52,16c7.95,2.34,15.64,5.65,24.25,5.59q60.07-.4,120.16-.41c4.09,0,13.28-5,13.28-5,16.36-6.27,27.73-18,36.39-32.83q24.26-41.54,48.68-82.93c1.06-1.81,2.36-3.5,3.55-5.24,14.67-26.57,30.41-52.49,46-78.54a10.32,10.32,0,0,1,.5-1.19c16.34-27.71,11.47-25.45,43.1-25.55,15.23-.06,30.46.07,45.68,0,16.65-.11,26.06-9,26.09-25.73V457.81S1765.77,450,1762.88,444.58Zm-267.35-70.4c50.88,17.58,101.3,36.43,151.53,55.8a100.06,100.06,0,0,0,10.81,3.95c4.62,1.17,7.38,3.23,6.08,7.8,0,7.89.07,7.83-6.15,5.18-53.68-22.9-108.88-41.65-164.22-60-2.12-.72-5.6-.43-5.5-3.29a24.77,24.77,0,0,1,2.9-9.66C1492,371.87,1494.07,373.68,1495.53,374.18Zm-2.11,34.08c-4.22-3.12-4.43-7.38-5.82-11-.51-1.35.08-2.66,1.79-2.57,2,.1,4,.72,4.23,3.11C1493.94,400.94,1494.54,404.13,1493.42,408.26ZM551.47,341.7a1535,1535,0,0,1,170.14-32.37c89.86-11.9,180.09-16.58,270.68-15.07q74.91,1.26,149.52,8.53c76.38,7.54,151.85,20,226.25,38.89,3.71.94,4.49,2.09,3.07,5.66-2.28,5.74-3.83,11.78-6.05,17.54-4.87,12.64-20.66,21.58-34,18.79-41.68-8.73-83.46-16.89-125.57-23.23-50.24-7.57-100.59-14.12-151.56-13.77-29,.2-57.9.05-86.85.31l-15,0c-36-.29-72.06-.7-108.08,0-43.35.8-86.25,6.82-129,13.29-41.88,6.34-83.43,14.52-124.92,23.05a31.66,31.66,0,0,1-35.13-18.66c-2.45-5.9-4.22-12.08-6.36-18.11C547.54,343.69,548.36,342.48,551.47,341.7ZM262,434c53.15-20.09,106.2-40.47,160-58.84,2.28-.79,5.24-3.34,7-.89s2.48,6.28,2.94,9.6c.3,2.16-2.32,2.13-3.84,2.6-39.75,12.52-78.88,26.84-118,41.12-16,5.85-31.72,12.71-47.51,19.26-6.66,2.76-6.58,2.94-6.54-5C254.73,437.27,257.57,435.65,262,434Zm169.8-34.91c-1.6,3-1.21,7.11-6,9.72.2-4.28.22-7.63.57-10.94.29-2.81,2.82-3.25,4.76-2.84C433.52,395.5,432.61,397.62,431.83,399.05ZM612.37,777.37q-33.74,10.3-67.52,20.46a15.78,15.78,0,0,1-4.43.6q-29.58,0-59.12-.07c-18.85,0-37.72.53-56.55-.15a49,49,0,0,1-29.89-11.83c-7.62-4.54-12.44-11.63-16.81-19Q345.92,713.08,314,658.69c-1.61-2.72-3-5.54-4.52-8.32l-33.72-56.74c-2.41-4-4.86-8-7.22-12.11-5.81-10-14.56-14.65-26-14.57-4.06,0-8.12-.14-12.18-.22-17.58,0-35.16.24-52.73.11-7.9-.05-12.69-4.68-13.06-12.8-.47-10.28-.43-20.57-.43-30.86,0-20.37,0-40.73.26-61.1.13-11.45,4.5-17.09,15.73-19.3,19.3-3.81,38.72-7.13,58.12-10.43,6.23-1.05,12.69,4.9,12.7,11.08,0,14-.07,13.83,13,8.41,9.6-4,18.86-8.74,29.42-10.56,5.65-.95,10.63-5.34,16.13-7.65,17.15-7.16,35.25-11.78,52.4-19,5.61-2.36,12.11-2.49,18.11-4,6.39-1.64,12.87-3.2,17.81-8.22,1.48-1.52,3.86-2.65,5.87-2.1,4.9,1.31,9.29.14,13.75-1.55,3.78-1.43,5,.13,4.55,3.9a49,49,0,0,0-.39,9c.2,3.11-1.25,4.69-3.74,6-5.47,2.93-10.95,5.87-16.24,9.1-15.69,9.55-24.06,23.67-24.25,42-.34,33-.14,66-.11,99,0,8.56,2.94,16.29,7.17,23.64,10.74,18.73,21.33,37.53,32.09,56.25,2.92,5.08,5.33,10.25,5.46,16.21.05,2.37.25,4.28,3.61,3.14,1.72-.58,2.42,1.25,3.18,2.56,4.37,7.57,9.17,14.89,12.66,23,9.91,15.33,21.24,29.34,36.51,39.76,2.08,1.42,4.11,2.95,6.18,4.43,19.69,11.21,40.74,17.72,63.51,18.05,12.63.19,25.28,0,37.92.11,2.75,0,5.63-.43,8.3,1.82-2.86,2.93-7,2.25-10.24,3.92-1.48.78-3.62,1.19-3.15,3.39.53,2.49,2.75,1.52,4.24,1.21,4.39-.88,8.76-1.89,13.08-3.07,6.48-1.76,17,5.84,17.49,12.6C615.35,777.05,613.58,777,612.37,777.37Zm559.71-30.46c-46.28-6.49-92.74-11.31-139.34-14.73-21.59-1.57-43.23-2.77-64.9-2.58l-14.23-.23c-35.55.63-71,2.9-106.4,6.07q-15.65,1.39-31.28,2.82-29.56,3.71-59.13,7.45c-5.3.67-10.6,1.41-15.86,2.38-3.61.67-4.73-.69-4.22-4.07.29-1.9.49-3.82.71-5.73.6-5.22,1.6-8.69,8.82-8.08,7,.6,14.34-1.63,21.55-2.53,2-.26,3.28-1.14,3.08-3.24-.27-2.71-2.51-1.93-4-1.75-7.59.94-15.14,2.06-24.5,3.37,5.61-7.74,11.86-12,19.33-13.45A323.09,323.09,0,0,1,803,706.93c13-2.7,26.22-3.37,39.34-4.65,29.4-2.84,58.91-4.23,88.42-5.51,19.54-.07,64,.36,64,.36,54,2.11,107.78,6.17,161.12,15,8.36,1.4,14.91,5.79,20,13.47-6.95-.94-13.89-2-20.86-2.75-2.15-.24-5.4-1.26-5.73,2.13-.3,3.07,2.79,2.51,4.81,2.73,8,.91,15.86,3.65,24.17,2.53,3.68-.49,3,3,3.55,5C1185.16,747.7,1184.49,748.66,1172.08,746.91Zm128.08,23.89a87.12,87.12,0,0,0-5.12,20.44c-.54,3.57-2.11,4.11-5.16,3.41q-33-7.59-66.09-15.09c-12.13-2.5-24.24-5-36.38-7.48-3.07-.61-3.78-2.14-2.93-5A88.46,88.46,0,0,0,1188,748.2c1.57-21.23-10.37-37.31-31.24-41-14.72-2.63-29.62-4.32-44.43-6.44-1.88-.27-3.89.14-5.56-1.12-24-2-48-4.13-72.11-5.76-15.38-1-30.81-1.47-46.23-1.73l-58.65,0c-16,.21-32.1,1.08-48.14,1.68l-85.07,7.95c-11,1.72-22,3.16-33,5.22-23,4.36-35.71,23.57-31,46.53.8,4,1.13,8.1,2.41,11.91,1.59,4.74-.1,6.14-4.6,7.1-32.58,7-65.15,14.11-97.63,21.59-5.52,1.27-7.54.25-8.23-5.31a54.43,54.43,0,0,0-5.93-19.52c-7.15-13.11-18.45-19.2-33-19.6-13.06-.35-26.15.1-39.22-.21a116.42,116.42,0,0,1-63.25-20.36,56.27,56.27,0,0,1-4.42-3.65c-11.35-7.49-20.14-17.41-27.42-28.78-9-12.48-15.82-26.25-23.31-39.62-2.26-4-1.84-8.65-1.9-13.15,0-2.2.83-5.56-1.92-6.17-3.53-.77-.9,4-4.4,5.44L407,619.61,393.57,596c-6.91-9.77-11.42-20.25-11.33-32.58.22-30.44.11-60.87.1-91.32,0-19.86,8.85-34.25,26.34-43.66,7.82-4.21,16.22-7.51,21.84-15.27,7.18-9.92,9.07-20.63,6.34-32.23-1.76-7.48-4-14.86-6.41-22.17-1.09-3.31-.14-4.46,3-5.33q48.5-13.37,96.91-27c4.47-1.26,6.37-.32,7.61,4.32a223.3,223.3,0,0,0,7.46,22.48c1.61,4.2.32,5.73-3.71,6.45-4.63.84-9.2,1.95-13.74,3.13-1.64.43-3.49,1.32-2.8,3.55.63,2,2.61,1.28,3.86,1,5.23-1,10.41-2.3,15.61-3.51,2.17-.51,3.62-.77,5,2,10.12,20,24.41,26.43,47.13,21.48,48.7-10.62,97.78-19.08,147.1-26.16a910.08,910.08,0,0,1,153.15-9.34c11.78.31,23.58.26,35.37,0l53.41,0c50.77.53,101.53-1.3,152.2,4.77q93.72,11.22,185.88,31.06c21.82,4.68,36.17-2.15,46.41-22.07,1.51-2.92,3-2.26,5.09-1.77,5.17,1.22,10.35,2.5,15.56,3.56,1.32.26,3.23.66,3.81-1.24.71-2.33-1.33-3-2.9-3.42-4.76-1.18-9.57-2.22-14.4-3.11-3.43-.64-4.74-1.83-3.31-5.62,3.08-8.18,5.82-16.5,8.45-24.86,1-3.08,2.1-4,5.47-3q49.31,13.88,98.73,27.38c3.29.91,3.75,2.46,2.72,5.62-2.37,7.31-4.58,14.69-6.37,22.17-4.24,17.71,2.89,33,18.76,42.08,10.88,6.22,22.75,11.23,29.24,23.17,3.53,6.5,6.29,13.25,6.34,20.61.17,23.35,0,46.7-.09,70.06,0,10.46.44,20.93,0,31.36-.48,12.25-7.23,22-13.72,31.81l-23.88,43.35c-3.38-1.62-.25-6.62-3.84-6.11-2.88.42-2.42,4.37-2.16,6.69.85,7.74-2.25,14.08-6,20.42-10.71,17.93-19.37,37.21-35.13,51.7-10.61,9.75-21.93,18.36-35.73,23.15-13.24,6.67-27.54,9.06-42.1,9.76-11.34.56-22.74.61-34.08.16C1323,748.83,1309.1,754.91,1300.16,770.8Zm455.41-218c-.27,9.44-5,14-14.58,14.1-20.79.15-41.58.23-62.37.07-12.51-.09-21.83,4.75-27.93,15.86-2.92,5.34-6.42,10.36-9.67,15.52Q1623.71,628.2,1606.4,658c-2.47,4.22-5.11,8.34-7.67,12.5q-26,44.58-52.09,89.16c-5.84,10-11.54,20-21.3,27-10.21,7.3-21.33,11.82-33.95,11.85-36,.08-72,0-108,.09-7.93,0-15-2.9-22.36-5.2l-40.76-12.77c-2.67-.64-5.39-1.17-8-2-9.38-2.8-9.42-3.32-3.36-11.25,4.06-5.29,8.5-7.84,15.31-5,3.87,1.64,8.19,2.26,12.33,3.22,1.56.35,3.14,0,3.5-1.85.3-1.51-.89-2.33-2.13-2.76-4-1.32-7.93-2.55-12.6-4.06,3.5-2.71,6.9-2.21,10.12-2.29,17.28-.4,34.59,1,51.86-1.19,8.71-1.11,17.08-3.58,25.53-5.73,20.77-8.76,39.26-20.69,53.67-38.35,9.68-11.85,16.18-25.64,24.06-38.59,1.2-1.95,1.57-5.23,5.49-3.64,1.56.61,2-1.19,2-2.49-.12-8.85,4.65-15.83,8.82-23q11.37-19.65,22.84-39.27c5.36-11.3,13.41-21.52,13.25-35-.13-10.07.14-20.14.24-30.21-.1-21.63-.4-43.26-.24-64.89s-9.18-37.31-27.78-47.84c-2-1.15-4-2.58-6.23-3.26-10-3.1-11.81-10.19-10.58-19.47.43-3.33,1.39-4.28,4.28-3.14,4.23,1.68,8.38,2.6,13.06,1.66a8.12,8.12,0,0,1,6.53,2c5.63,6.24,13.39,7.67,20.76,8.82,13.93,2.18,26.39,8.44,39.56,12.66,14.25,4.57,27.78,11,41.65,16.3,13.47,5.14,27.17,9.78,40.38,15.66,2.93,1.31,4.52.38,4.49-3,0-2.14,0-4.28,0-6.42.07-11.18,5.35-15.36,16.68-13.34,17.46,3.1,35,6.1,52.41,9.19,11.88,2.1,17.25,7.89,17.5,20C1756.35,492.41,1756.42,522.62,1755.57,552.82Zm-821-238.33,51-.09c1.2-.08,2.67-.83,2.45-2.44-.26-1.83-1.92-2.15-3.43-2.24-5.56-.3-11.12-.7-16.69-.71l-18.71.06c-4.48.36-9,.38-13.49.57-1.51.07-3.27.11-3.71,1.86S933,314.41,934.53,314.49Zm33.71,394.36-14.61.21c-1.25-.23-2.55-.26-3.83-.37-2-.19-3.39.65-3.44,2.75s1.57,2.06,3.14,2.23l18.82-.12c1.63.2,4.85,1.75,5.06-1.77S970.45,708.91,968.24,708.85Z"/><path class="cls-2" d="M1537.44,537.25c0-23.36.26-46.71.09-70.06,0-7.36-2.81-14.11-6.34-20.61-6.49-11.94-18.36-16.95-29.24-23.17-15.87-9-23-24.37-18.76-42.08,1.79-7.48,4-14.86,6.37-22.17,1-3.16.57-4.71-2.72-5.62q-49.39-13.59-98.73-27.38c-3.37-1-4.51-.06-5.47,3-2.63,8.36-5.37,16.68-8.45,24.86-1.43,3.79-.12,5,3.31,5.62,4.83.89,9.64,1.93,14.4,3.11,1.57.39,3.61,1.09,2.9,3.42-.58,1.9-2.49,1.5-3.81,1.24-5.21-1.06-10.39-2.34-15.56-3.56-2.08-.49-3.58-1.15-5.09,1.77-10.24,19.92-24.59,26.75-46.41,22.07q-92.22-19.84-185.88-31.06c-50.67-6.07-101.43-4.24-152.2-4.77l-53.41,0c-11.79.29-23.59.34-35.37,0a910.08,910.08,0,0,0-153.15,9.34c-49.32,7.08-98.4,15.54-147.1,26.16-22.72,4.95-37-1.43-47.13-21.48-1.41-2.79-2.86-2.53-5-2-5.2,1.21-10.38,2.48-15.61,3.51-1.25.24-3.23,1-3.86-1-.69-2.23,1.16-3.12,2.8-3.55,4.54-1.18,9.11-2.29,13.74-3.13,4-.72,5.32-2.25,3.71-6.45A223.3,223.3,0,0,1,538,330.75c-1.24-4.64-3.14-5.58-7.61-4.32q-48.4,13.71-96.91,27c-3.15.87-4.1,2-3,5.33,2.39,7.31,4.65,14.69,6.41,22.17,2.73,11.6.84,22.31-6.34,32.23-5.62,7.76-14,11.06-21.84,15.27-17.49,9.41-26.34,23.8-26.34,43.66,0,30.45.12,60.88-.1,91.32-.09,12.33,4.42,22.81,11.33,32.58L407,619.61l12.82,23.61c3.5-1.45.87-6.21,4.4-5.44,2.75.61,1.89,4,1.92,6.17.06,4.5-.36,9.13,1.9,13.15,7.49,13.37,14.32,27.14,23.31,39.62,7.28,11.37,16.07,21.29,27.42,28.78a56.27,56.27,0,0,0,4.42,3.65,116.42,116.42,0,0,0,63.25,20.36c13.07.31,26.16-.14,39.22.21,14.51.4,25.81,6.49,33,19.6a54.43,54.43,0,0,1,5.93,19.52c.69,5.56,2.71,6.58,8.23,5.31,32.48-7.48,65-14.58,97.63-21.59,4.5-1,6.19-2.36,4.6-7.1-1.28-3.81-1.61-7.94-2.41-11.91-4.67-23,8-42.17,31-46.53,10.92-2.06,22-3.5,33-5.22l85.07-7.95c16-.6,32.09-1.47,48.14-1.68l58.65,0c15.42.26,30.85.7,46.23,1.73,24.06,1.63,48.08,3.81,72.11,5.76,1.67,1.26,3.68.85,5.56,1.12,14.81,2.12,29.71,3.81,44.43,6.44,20.87,3.71,32.81,19.79,31.24,41a88.46,88.46,0,0,1-3.52,18.87c-.85,2.87-.14,4.4,2.93,5,12.14,2.43,24.25,5,36.38,7.48q33,7.53,66.09,15.09c3,.7,4.62.16,5.16-3.41a87.12,87.12,0,0,1,5.12-20.44c8.94-15.89,22.85-22,40.64-21.26,11.34.45,22.74.4,34.08-.16,14.56-.7,28.86-3.09,42.1-9.76,13.8-4.79,25.12-13.4,35.73-23.15,15.76-14.49,24.42-33.77,35.13-51.7,3.79-6.34,6.89-12.68,6-20.42-.26-2.32-.72-6.27,2.16-6.69,3.59-.51.46,4.49,3.84,6.11l23.88-43.35c6.49-9.78,13.24-19.56,13.72-31.81C1537.88,558.18,1537.48,547.71,1537.44,537.25ZM421.75,434c0-1.4.54-2.69,2.05-2.75s2.14,1.21,2.15,2.59c0,4.48,0,8.94,0,13.42h.17c0,3.62.06,7.25,0,10.87,0,1.47-.08,3.22-2.14,3.29s-2.28-1.65-2.28-3.13C421.67,450.15,421.72,442.06,421.75,434Zm.14,41.57c0-1,0-2.32,1.52-2.35a2.43,2.43,0,0,1,2.45,2.47c.17,4.25.06,8.51.06,12.77h.13c0,4.05,0,8.09,0,12.14,0,1.36-.44,2.75-1.94,2.9-2,.2-2.45-1.49-2.45-3Q421.67,488,421.89,475.53Zm-.07,42.07c.06-1.28-.71-3.35,1.61-3.48s2.61,1.82,2.66,3.55c.21,6.58.33,13.18.48,19.76-1.48,2,1.29,6.46-2.68,6.45-3.8,0-1.38-4.52-2.85-6.55C421.28,530.75,421.48,524.17,421.82,517.6Zm4.23,52.72c0,3.81.06,7.64,0,11.45,0,1.4.14,3.22-2.15,3.13-1.66-.07-1.95-1.31-2.12-2.64-1.12-8.49-.17-17,.13-25.44,0-1.24.75-2.07,2-2,1.5.15,2.08,1.32,2.09,2.71,0,4.25,0,8.49,0,12.74Zm.07,52.92c-.15,1.4.11,3.37-1.79,3.58-2.39.25-2.31-1.88-2.59-3.51s-.61-3.31-.9-5c.31-6.11.57-12.23,1-18.33.08-1.31-.34-3.38,1.87-3.36,1.89,0,2.13,1.82,2.3,3.27.59,5.23-.47,10.56.78,15.77C426.56,618.21,426.38,620.72,426.12,623.24Zm47-240.55c-7.93,2.46-15.88,4.86-22.84,7-2.53-.12-4.34.32-4.85-1.58s1.14-2.48,2.6-2.93q11.63-3.57,23.24-7.09c1.54-.45,3.15-.34,3.59,1.58A2.45,2.45,0,0,1,473.16,382.69Zm38.18-10.61c-7.09,2.2-14.21,4.26-21.31,6.36-1.45.42-3,1-3.78-1s0-3.25,2.05-3.84c7.32-2.11,14.61-4.34,22-6.29,1.58-.41,4-1,4.29,1.86C514.33,371.33,512.66,371.68,511.34,372.08ZM647,749.59q-12,3.07-24.06,6.09a2.62,2.62,0,0,1-3.07-1.84,2.25,2.25,0,0,1,1.7-2.92,188.38,188.38,0,0,1,24.71-6.08,2.63,2.63,0,0,1,3.17,1.58C649.87,748.05,648.63,749.17,647,749.59Zm39.21-8.12c-7.47,1.69-15,3.13-21.69,4.48-2.23-.46-4.1.51-4.6-1.65s1.09-3.14,2.82-3.48c7.52-1.51,15.07-3,22.62-4.21,1.45-.24,3.77-1,4.15,1.58C689.87,740.42,687.72,741.13,686.24,741.47ZM727,733.69c-7.23,1.58-14.51,3-21,4.37-2.69,0-5.07.36-5.35-2.22-.23-2.22,2.05-2.44,3.63-2.75q10.59-2.1,21.24-3.93c1.49-.26,3.64-1.22,4.07,1.41C729.89,732.38,728.44,733.37,727,733.69Zm492.27,2.48c-.36,2.75-2.91,1.7-5.4,1.93-6.38-1.3-13.45-2.71-20.5-4.19-1.78-.38-3.42-1.31-2.92-3.43.57-2.48,2.8-1.48,4.23-1.25,6.92,1.11,13.81,2.46,20.71,3.71C1217.32,733.29,1219.58,733.7,1219.25,736.17Zm35.13,9.79c-6.09-1.26-12.75-2.64-19.41-4-2.25-.47-4.56-1.45-4-4s3.21-1.48,4.87-1.2c6.71,1.13,13.38,2.51,20.08,3.78,1.88.36,4.23.45,4.09,3C1259.78,747.22,1256.76,745.12,1254.38,746Zm46.13,8.1c-.41,1.3-2,1.52-3.3,1.29a177.58,177.58,0,0,1-23.57-5.51c-1.73-.56-3.39-1.54-2.78-3.54.48-1.61,2.27-1.7,3.85-1.35,7.86,1.81,15.85,3.13,23.46,5.95C1299.67,751.45,1301.06,752.35,1300.51,754.06Zm133.38-376.77c-.53,2-2.16,1.8-3.61,1.37q-11-3.2-21.92-6.55c-1.56-.49-3.51-1.21-2.7-3.51.64-1.83,2.41-1.3,4.9-1.32,6.53,2,14,4.29,21.51,6.55C1433.94,374.4,1434.28,375.7,1433.89,377.29Zm40.39,10.45a2.6,2.6,0,0,1-3.4,2.14c-8-2.27-16-4.66-23.93-7.07-1.34-.4-2.32-1.56-1.81-2.94.72-1.95,2.48-2.07,4.39-1.87q11.28,3.56,22.57,7.15C1473.31,385.53,1474.65,386.06,1474.28,387.74ZM1494,434.4c0-1.46.07-3.27,2.16-3.19,1.48.06,2,1.42,2.08,2.79a139.81,139.81,0,0,1,0,24.89c-.14,1.27-.25,2.72-2.09,2.49a2.44,2.44,0,0,1-2.2-2.67c0-4.27,0-8.53,0-12.79C1494,442.07,1494,438.24,1494,434.4Zm-.14,54.09h0c0-3.62-.07-7.26,0-10.87,0-1.87,0-4.37,2.55-4.37,2.39,0,2,2.5,2,4q.15,11.19-.06,22.38c0,1.46.49,4-2.15,3.72-1.9-.22-2.39-2.15-2.38-4C1493.92,495.74,1493.9,492.11,1493.9,488.49Zm2.73,138.26c-1.78.1-2.62-1.21-2.63-2.93,0-4.06,0-8.13,0-12.2h.11c0-4.06-.06-8.13,0-12.19,0-1.3.62-2.68,2.16-2.77,1.81-.11,1.9,1.51,1.92,2.72q.09,12.2,0,24.39C1498.24,625,1498.36,626.67,1496.63,626.75Zm-.75-41.92c-2.26-.42-1.93-2.54-2-4.15-.17-5.95-.22-11.89-.32-17.83,1.48-2.49-1.5-7.84,2.72-7.68,3.7.14,2,5.24,2.21,8.1.43,5.88.27,11.8.34,17.7C1497.67,582.14,1499.1,585.45,1495.88,584.83Zm2.59-45.13c-.53,1.57.61,4.29-2.29,4.28-2.74,0-1.7-2.85-2.57-4.3.07-6.2,0-12.41.3-18.59.13-2.44-1.44-6.74,2.53-6.74,3.2,0,1.94,4,2.08,6.31.37,5.54.39,11.1.55,16.66A23,23,0,0,1,1498.47,539.7Z"/><path class="cls-3" d="M960.6,270.85l-1.5,0"/><path class="cls-1" d="M426.12,458.09c0,1.47-.08,3.22-2.14,3.29s-2.28-1.65-2.28-3.13c0-8.1,0-16.19.05-24.29,0-1.4.54-2.69,2.05-2.75s2.14,1.21,2.15,2.59c0,4.48,0,8.94,0,13.42h.17C426.14,450.84,426.2,454.47,426.12,458.09Z"/><path class="cls-1" d="M1498.31,458.89c-.14,1.27-.25,2.72-2.09,2.49a2.44,2.44,0,0,1-2.2-2.67c0-4.27,0-8.53,0-12.79,0-3.85,0-7.68,0-11.52,0-1.46.07-3.27,2.16-3.19,1.48.06,2,1.42,2.08,2.79A139.81,139.81,0,0,1,1498.31,458.89Z"/><path class="cls-1" d="M1496.27,503.36c-1.9-.22-2.39-2.15-2.38-4,0-3.62,0-7.25,0-10.87h0c0-3.62-.07-7.26,0-10.87,0-1.87,0-4.37,2.55-4.37,2.39,0,2,2.5,2,4q.15,11.19-.06,22.38C1498.39,501.1,1498.91,503.64,1496.27,503.36Z"/><path class="cls-1" d="M1499.07,537.32a23,23,0,0,1-.6,2.38c-.53,1.57.61,4.29-2.29,4.28-2.74,0-1.7-2.85-2.57-4.3.07-6.2,0-12.41.3-18.59.13-2.44-1.44-6.74,2.53-6.74,3.2,0,1.94,4,2.08,6.31C1498.89,526.2,1498.91,531.76,1499.07,537.32Z"/><path class="cls-1" d="M426,500.56c0,1.36-.44,2.75-1.94,2.9-2,.2-2.45-1.49-2.45-3q0-12.45.24-24.93c0-1,0-2.32,1.52-2.35a2.43,2.43,0,0,1,2.45,2.47c.17,4.25.06,8.51.06,12.77h.13C426.05,492.47,426.07,496.51,426,500.56Z"/><path class="cls-1" d="M1498.85,581c-1.18,1.17.25,4.48-3,3.86-2.26-.42-1.93-2.54-2-4.15-.17-5.95-.22-11.89-.32-17.83,1.48-2.49-1.5-7.84,2.72-7.68,3.7.14,2,5.24,2.21,8.1C1498.94,569.15,1498.78,575.07,1498.85,581Z"/><path class="cls-1" d="M1474.28,387.74a2.6,2.6,0,0,1-3.4,2.14c-8-2.27-16-4.66-23.93-7.07-1.34-.4-2.32-1.56-1.81-2.94.72-1.95,2.48-2.07,4.39-1.87q11.28,3.56,22.57,7.15C1473.31,385.53,1474.65,386.06,1474.28,387.74Z"/><path class="cls-1" d="M423.89,543.88c-3.8,0-1.38-4.52-2.85-6.55.24-6.58.44-13.16.78-19.73.06-1.28-.71-3.35,1.61-3.48s2.61,1.82,2.66,3.55c.21,6.58.33,13.18.48,19.76C425.09,539.42,427.86,543.89,423.89,543.88Z"/><path class="cls-1" d="M1498.24,623.77c0,1.18.12,2.9-1.61,3s-2.62-1.21-2.63-2.93c0-4.06,0-8.13,0-12.2h.11c0-4.06-.06-8.13,0-12.19,0-1.3.62-2.68,2.16-2.77,1.81-.11,1.9,1.51,1.92,2.72Q1498.31,611.58,1498.24,623.77Z"/><path class="cls-1" d="M1433.89,377.29c-.53,2-2.16,1.8-3.61,1.37q-11-3.2-21.92-6.55c-1.56-.49-3.51-1.21-2.7-3.51.64-1.83,2.41-1.3,4.9-1.32,6.53,2,14,4.29,21.51,6.55C1433.94,374.4,1434.28,375.7,1433.89,377.29Z"/><path class="cls-1" d="M473.16,382.69c-7.93,2.46-15.88,4.86-22.84,7-2.53-.12-4.34.32-4.85-1.58s1.14-2.48,2.6-2.93q11.63-3.57,23.24-7.09c1.54-.45,3.15-.34,3.59,1.58A2.45,2.45,0,0,1,473.16,382.69Z"/><path class="cls-1" d="M514.56,369.21c-.23,2.12-1.9,2.47-3.22,2.87-7.09,2.2-14.21,4.26-21.31,6.36-1.45.42-3,1-3.78-1s0-3.25,2.05-3.84c7.32-2.11,14.61-4.34,22-6.29C511.85,366.94,514.29,366.35,514.56,369.21Z"/><path class="cls-1" d="M426,581.77c0,1.4.14,3.22-2.15,3.13-1.66-.07-1.95-1.31-2.12-2.64-1.12-8.49-.17-17,.13-25.44,0-1.24.75-2.07,2-2,1.5.15,2.08,1.32,2.09,2.71,0,4.25,0,8.49,0,12.74h.09C426.05,574.13,426.11,578,426,581.77Z"/><path class="cls-1" d="M426.77,615.7c-.21,2.51-.39,5-.65,7.54-.15,1.4.11,3.37-1.79,3.58-2.39.25-2.31-1.88-2.59-3.51s-.61-3.31-.9-5c.31-6.11.57-12.23,1-18.33.08-1.31-.34-3.38,1.87-3.36,1.89,0,2.13,1.82,2.3,3.27C426.58,605.16,425.52,610.49,426.77,615.7Z"/><path class="cls-1" d="M647,749.59q-12,3.07-24.06,6.09a2.62,2.62,0,0,1-3.07-1.84,2.25,2.25,0,0,1,1.7-2.92,188.38,188.38,0,0,1,24.71-6.08,2.63,2.63,0,0,1,3.17,1.58C649.87,748.05,648.63,749.17,647,749.59Z"/><path class="cls-1" d="M686.24,741.47c-7.47,1.69-15,3.13-21.69,4.48-2.23-.46-4.1.51-4.6-1.65s1.09-3.14,2.82-3.48c7.52-1.51,15.07-3,22.62-4.21,1.45-.24,3.77-1,4.15,1.58C689.87,740.42,687.72,741.13,686.24,741.47Z"/><path class="cls-1" d="M727,733.69c-7.23,1.58-14.51,3-21,4.37-2.69,0-5.07.36-5.35-2.22-.23-2.22,2.05-2.44,3.63-2.75q10.59-2.1,21.24-3.93c1.49-.26,3.64-1.22,4.07,1.41C729.89,732.38,728.44,733.37,727,733.69Z"/><path class="cls-1" d="M317.69,644.1c-.38-2.15-.76-4.29-1.13-6.44a3.27,3.27,0,0,1,3.87,1.48q6.42,10.26,12.74,20.58c.8,1.32,1.08,2.84-.58,3.92-2.35,1.54-3.53-.23-4.6-1.8C324.14,656.18,320.36,650.46,317.69,644.1Z"/><path class="cls-1" d="M266.85,500.68c0,4.25.07,8.51,0,12.75,0,1.42-.16,3.26-2.23,3.22s-2.28-1.7-2.28-3.23c0-7.65.11-15.3.26-22.95,0-1.78.59-3.58,2.79-3.58,3.17,0,2.12,2.53,2.17,4.24.09,3.18,0,6.37,0,9.55Z"/><path class="cls-1" d="M360.26,708.54c1.79.24,2.59,1.53,3.36,2.81,3.63,6,7.27,12.07,10.83,18.14.82,1.39,2.25,3.1.25,4.47s-3.79.41-4.95-1.36a154.69,154.69,0,0,1-11.07-20.86C357.94,710.1,358.3,708.83,360.26,708.54Z"/><path class="cls-1" d="M354.1,695c.25,2.46-.08,3.44-1.17,3.94-1.54.71-3.07.48-3.9-1q-5.86-10.56-11.5-21.24c-.46-.85-.82-2.15.22-2.92a2.07,2.07,0,0,1,2.88.36C345.4,681.36,350.05,688.69,354.1,695Z"/><path class="cls-1" d="M396.42,752.63c2.17,1.31,4.38,2.57,6.5,4,1.23.81,2.65,1.7,2.18,3.54s-2.1,1.81-3.61,1.81a68.43,68.43,0,0,1-17.76-11.62c-1.86-1.69-4.69-4-2.58-6.29s4.21.57,6.09,2.13C390.13,748.54,392.7,751.42,396.42,752.63Z"/><path class="cls-1" d="M426.41,695.75c-.1,2.75-.06,5.53-.37,8.26-.19,1.63.91,4.43-2.22,4.29-2.83-.12-2.05-2.82-2.25-4.51-.39-3.15-.44-6.34-.64-9.51.26-4,.46-8,.82-12,.14-1.48-.68-4,2-3.79,2,.14,2.29,2.22,2.35,4C426.21,686.87,426.3,691.31,426.41,695.75Z"/><path class="cls-1" d="M312.33,628c-2,.94-3.28-.2-4.22-1.74-3.69-6-7.39-12-10.93-18.11-1.14-1.94-3-4.77-.57-6.26s4,1.5,5.18,3.46c3.54,5.83,7,11.71,10.49,17.57C312.57,624.6,313,626.29,312.33,628Z"/><path class="cls-1" d="M267.4,471.51c2.11-7.75,6.32-14.57,11.33-20.95a2.79,2.79,0,0,1,3.42-1c1.37.72,1.19,2.37.61,3.4-3.91,7-7.95,14-12,21-.5.87-1.32,1.95-2.53,1.25S267.44,472.93,267.4,471.51Z"/><path class="cls-1" d="M267.88,537.27c-.18,5.42,1.68,10.39,3.24,15.45.4,1.32,1.21,3.13-.61,3.87s-3.2-.46-4-2.17c-2.83-5.82-3.15-12.25-4.47-18.44,1.12-2.79-1.23-8.12,2.06-8.22,3.91-.13,2.77,5.2,3.52,8.29C267.69,536.46,267.79,536.87,267.88,537.27Z"/><path class="cls-1" d="M774.78,322.55c-2.69-1.06-7.08,1.43-7.42-2.08-.42-4.28,4.13-3,6.87-3.3,6.34-.77,12.68-1.56,19-2.16,1.76-.17,4.26-.61,4.48,2.15.17,2.18-1.79,2.57-3.56,2.8C787.64,320.82,781.1,321.71,774.78,322.55Z"/><path class="cls-1" d="M1144.06,322.37c-5-.66-11.72-1.55-18.47-2.42-1.82-.24-3.6-.77-3.28-3s2.43-2.15,4.08-2c7.61.71,15.22,1.52,22.83,2.33,1.8.2,3.53.88,3.58,2.94.06,2.64-2.18,2-3.75,2.12C1148,322.43,1146.92,322.37,1144.06,322.37Z"/><path class="cls-1" d="M609,349c-1.6.24-3.28,0-3.58-1.73s1-2.71,2.65-3.08c7.66-1.76,15.31-3.55,23-5.21,1.3-.28,3.32-1,3.57,1.26.19,1.61-1.26,2.62-2.74,3.14C624.41,346,616.66,347.4,609,349Z"/><path class="cls-1" d="M690,333.14c-1.53,0-3.26.15-3.62-1.79-.4-2.22,1.44-3,3.11-3.29,7.55-1.15,15.11-2.18,22.69-3.14,1.58-.2,3.72-.65,4,1.86.22,2.3-2,2.79-3.46,3C705.14,331.07,697.56,332.06,690,333.14Z"/><path class="cls-1" d="M821.52,318.55c-4.45,0-7.44,0-10.44,0-1.22,0-2.77.19-3-1.59s.58-3.17,2.33-3.27c8.54-.49,17.08-.86,25.63-1.16,1.22,0,2.65.47,2.36,2.23a3.16,3.16,0,0,1-3,2.75A77.47,77.47,0,0,1,821.52,318.55Z"/><path class="cls-1" d="M1248.63,331.27l22.21,4c2.36.42,4.34,1.66,3.65,4.19-.77,2.8-3.23,1.13-4.88.85-7.1-1.18-14.18-2.47-21.22-3.92-1.67-.35-4.27-.4-4-3.1C1244.65,330.12,1247.4,332,1248.63,331.27Z"/><path class="cls-1" d="M1096.34,313.41c3.86,0,7.7,0,11.55,0,2,0,4,.31,3.95,3s-2.27,2.1-3.81,2.09c-7.68,0-15.38.45-23-1-1.79-.34-3.64-.58-3.44-2.83s2.17-2.3,3.91-2.17C1089.11,312.75,1092.72,313.09,1096.34,313.41Z"/><path class="cls-1" d="M1330.17,347.42c7.21,1.93,14.43,3.84,21.62,5.82,2,.54,4,1.65,3,4s-2.88.63-4.42.25c-7-1.73-14.07-3.43-21.1-5.17-1.65-.41-3.73-.83-3.26-3.09C1326.43,347.16,1328.35,347.07,1330.17,347.42Z"/><path class="cls-1" d="M1309.48,349c-6.1-1.55-13.34-3.27-20.49-5.27-1.7-.47-4.16-1.5-3.23-3.9.76-2,3.07-.9,4.55-.6,7.08,1.46,14.12,3.14,21.17,4.75,1.73.39,3.63,1.06,3.27,3.17S1312.39,349.24,1309.48,349Z"/><path class="cls-1" d="M1209,324.94c7,1,14,1.93,20.89,3,1.93.29,4.1.86,3.62,3.47-.44,2.35-2.54,1.81-4.18,1.59-7-.91-13.91-1.85-20.86-2.87-2.08-.31-5-.68-4.72-3.25C1204,323.86,1207.12,325.32,1209,324.94Z"/><path class="cls-1" d="M569.17,357.84c-2.37,0-3.91.17-4.17-1.47-.24-1.48,1-2.45,2.24-2.78q12-3.36,24.09-6.44a2.3,2.3,0,0,1,2.93,1.84,2.46,2.46,0,0,1-2,2.89C584.25,354,576.2,356,569.17,357.84Z"/><path class="cls-1" d="M646.46,340.7c.59,0-.9.28-1.19-1.48a3,3,0,0,1,2.29-3.43c3.5-.89,7.09-1.42,10.65-2.06,4.61-.83,9.22-1.73,13.86-2.38,1.25-.17,3.19-.84,3.64,1.36s-1.17,3-2.94,3.33C664.61,337.52,656.44,338.94,646.46,340.7Z"/><path class="cls-1" d="M864.87,311h12.2c1.58,0,3,.2,3.1,2.28s-1.23,2.63-2.87,2.63q-12.51.07-25,0a2.55,2.55,0,0,1-2.82-2.79c.06-2.13,1.71-2.11,3.23-2.12C856.74,311,860.81,311,864.87,311Z"/><path class="cls-1" d="M1054.81,316c-4,0-8.1,0-12.15,0-1.31,0-2.65-.21-2.82-1.89a2.41,2.41,0,0,1,2.61-2.88c8.52-.13,17-.19,25.56-.24,1.38,0,2.58.47,2.47,2.16a2.72,2.72,0,0,1-2.89,2.78c-4.26.07-8.52,0-12.78,0Z"/><path class="cls-1" d="M905.79,314.67H894.24c-1.63,0-3.16-.41-3.18-2.3s1.51-2.45,3.12-2.44c7.92,0,15.83.1,23.75.25,1.41,0,3.24,0,3.19,2.2,0,2-1.49,2.34-3.13,2.34-4.07,0-8.13,0-12.2,0Z"/><path class="cls-1" d="M1013.53,314.7c-3.85,0-7.7,0-11.54,0-1.55,0-3.13-.2-3.28-2.2s1.45-2.53,3-2.53q12.18,0,24.36.13c1.29,0,2.65.43,2.61,2.12s-1.13,2.56-2.94,2.53c-4.06-.05-8.12,0-12.18,0Z"/><path class="cls-1" d="M1171,319.88a96.2,96.2,0,0,1,19,2.41c1.54.37,3.15.69,3,2.57-.17,2.14-2.17,1.84-3.49,1.69-7.81-.86-15.61-1.88-23.41-2.86-1.66-.21-3.07-1.21-3-2.8.14-2.21,2-1.52,3.45-1.34S1169.48,319.77,1171,319.88Z"/><path class="cls-1" d="M733.26,326.41a4.58,4.58,0,0,1-.64,0c-1.93-.2-5,1.36-5.43-1.45-.55-3.43,3.22-3,5.12-3.33a101,101,0,0,1,16.52-1.74c2.59,0,7.1-2.69,7.61.6.72,4.56-4.65,3.2-7.35,3.82-5.17,1.17-10.53,1.5-15.82,2.18Z"/><path class="cls-1" d="M1653.07,501.16q-.35-5.73-.68-11.46c-.08-1.41.35-2.65,1.9-2.81s3,.51,3.15,2.38a174.89,174.89,0,0,1,.07,25.49,1.71,1.71,0,0,1-2,1.84c-1.61-.15-2.14-1.42-2.17-2.69-.11-4.25,0-8.5,0-12.75Z"/><path class="cls-1" d="M1634.07,589.37c-1.82.56-2.32,4.55-4.77,2.58-1.77-1.42-.24-3.86.69-5.75.54-1.12.94-2.31,1.4-3.47,2.6-4.39,5.09-8.85,7.84-13.14,1-1.62,2-4.49,4.71-3,2.49,1.45,1.08,3.76,0,5.61C1640.7,578,1637.37,583.67,1634.07,589.37Z"/><path class="cls-1" d="M1652.86,472.13c-.11,1.45.21,2.69-1,3.17s-2-.53-2.49-1.44q-5.86-10.22-11.68-20.48c-.63-1.11-1.32-2.54-.16-3.47a2.81,2.81,0,0,1,4,.74C1646.36,457.36,1650.9,464.28,1652.86,472.13Z"/><path class="cls-1" d="M1657.75,533.94c-.28,7.71-1.47,13.95-4.06,19.89-.82,1.88-2.1,3.76-4.26,2.72s-.65-3-.13-4.5c2.12-6.3,3-12.83,3.85-19.39.24-1.92-.32-5.28,2.52-5.09,3.36.22,1.54,3.69,2,5.71C1657.88,533.88,1657.75,534.55,1657.75,533.94Z"/><path class="cls-1" d="M1498.41,692.62c0,4.25.07,8.5,0,12.75,0,1.37,0,3.27-2.23,3-1.5-.16-2.11-1.33-2.11-2.74,0-8.08,0-16.16,0-24.24,0-1.61.88-3.16,2.58-3.1,2.19.07,1.51,2.15,1.6,3.46.27,3.6.37,7.22.54,10.83Z"/><path class="cls-1" d="M1498.41,735.06c0,4.05.08,8.11-.05,12.15,0,1.33.21,3.39-2,3.26a2.55,2.55,0,0,1-2.31-2.65c0-8.32,0-16.63.09-24.94a2.43,2.43,0,0,1,2.25-2.66c1.78-.09,1.95,1.5,2,2.69C1498.48,727,1498.41,731,1498.41,735.06Z"/><path class="cls-1" d="M1587.42,658.11c3.74-5.94,7.43-11.93,11.27-17.81.87-1.33,2-3.64,3.81-2.68,2,1.09,1,3.35.21,5.08-3.36,7.62-7.84,14.62-12.15,21.71C1584.89,664.61,1586.32,661.28,1587.42,658.11Z"/><path class="cls-1" d="M1546.84,734.6c-2.41-.51-2.84-2.09-1.64-4.16,3.82-6.64,7.68-13.27,11.67-19.81.85-1.39,2.31-3,4.2-1.61,1.59,1.17.4,2.84-.21,4.06-3.06,6.08-6.2,12.13-9.46,18.1A5.74,5.74,0,0,1,1546.84,734.6Z"/><path class="cls-1" d="M1400,769.46c-2.63-1.58-8.16,1.66-8.15-2.35,0-4.65,5.43-2.07,8.4-2.57,3.74-.63,7.62-.41,11.44-.55a15.33,15.33,0,0,1,2.47.39c2.47.8,7.22-2,7,2.54-.16,3.79-4.75,1.81-7.32,2.08C1409.3,769.48,1404.65,769.34,1400,769.46Z"/><path class="cls-1" d="M1582.9,675.67c-.78,1.8-1.56,4-2.67,6-2.84,5.21-5.8,10.37-8.78,15.5-.91,1.57-2.35,2.74-4.21,1.77s-1.65-3-.77-4.45c3.93-6.55,8-13,12.08-19.45a3.32,3.32,0,0,1,3.15-1.8C1582.9,673.4,1582.64,674.44,1582.9,675.67Z"/><path class="cls-1" d="M1539.64,745.76a17.48,17.48,0,0,1-2.07,3.22,56.78,56.78,0,0,1-18.68,12c-1.31.55-3.14,1.21-4-.52s.66-2.87,2-3.55a92.88,92.88,0,0,0,18.25-12.83c1-.86,2.25-1.49,3.46-.72C1539.2,743.77,1539.29,744.87,1539.64,745.76Z"/><path class="cls-1" d="M1483.75,769c-.91,0-3.68,0-6.46,0-1.29,0-2.67-.08-2.72-1.89,0-1.55.83-2.3,2.34-2.36a181.45,181.45,0,0,0,24.17-2.47,2.36,2.36,0,0,1,3,1.72c.39,1.59-.85,2.16-2.11,2.65C1496.69,768.66,1491.2,769.16,1483.75,769Z"/><path class="cls-1" d="M1448.43,769c-4.06,0-8.11,0-12.16,0-1.32,0-2.6-.25-2.67-2s1.15-2.2,2.49-2.22q12.17-.21,24.31-.27c1.61,0,3.06.52,2.91,2.52-.16,2.17-1.93,1.9-3.36,1.92-3.84,0-7.68,0-11.52,0Z"/><path class="cls-1" d="M1300.51,754.06c-.41,1.3-2,1.52-3.3,1.29a177.58,177.58,0,0,1-23.57-5.51c-1.73-.56-3.39-1.54-2.78-3.54.48-1.61,2.27-1.7,3.85-1.35,7.86,1.81,15.85,3.13,23.46,5.95C1299.67,751.45,1301.06,752.35,1300.51,754.06Z"/><path class="cls-1" d="M1260,743.6c-.19,3.62-3.21,1.52-5.59,2.36-6.09-1.26-12.75-2.64-19.41-4-2.25-.47-4.56-1.45-4-4s3.21-1.48,4.87-1.2c6.71,1.13,13.38,2.51,20.08,3.78C1257.76,740.92,1260.11,741,1260,743.6Z"/><path class="cls-1" d="M1219.25,736.17c-.36,2.75-2.91,1.7-5.4,1.93-6.38-1.3-13.45-2.71-20.5-4.19-1.78-.38-3.42-1.31-2.92-3.43.57-2.48,2.8-1.48,4.23-1.25,6.92,1.11,13.81,2.46,20.71,3.71C1217.32,733.29,1219.58,733.7,1219.25,736.17Z"/><path class="cls-1" d="M1609.52,628.28c-2.38-.32-2.5-2.15-1.77-3.71A141.27,141.27,0,0,1,1619.92,603a3,3,0,0,1,3.25-1.51c1.77.49,1.41,2.11,1,3.17-3.23,8.37-8.46,15.58-13.49,22.91C1610.47,627.88,1610,628,1609.52,628.28Z"/><path class="cls-1" d="M426,735.48c0,4.06,0,8.13,0,12.2,0,1.39-.52,2.63-2.09,2.69a2.05,2.05,0,0,1-2.06-2.06A130.4,130.4,0,0,1,422,722c.08-.82.35-1.75,1.43-1.81a2.26,2.26,0,0,1,2.42,2.42c.15,4.28.06,8.56.06,12.84Z"/><path class="cls-1" d="M434.06,769a40.09,40.09,0,0,1-15.19-1.92c-1.54-.54-3.65-1-3-3.37.56-2,2.48-1.33,3.85-1.21,7.67.68,15.33,1.47,23,2.22,1.29.12,2.57.12,2.65,2,.08,2.24-1.45,2.27-3,2.29C439.62,769,436.84,769,434.06,769Z"/><path class="cls-1" d="M459.42,764.34c7.26,0,14.52,0,21.79.16,1.87,0,4.88-1.09,5,2.16s-3.2,1.83-4.91,2.63c-7.07-.11-14.13-.18-21.2-.34-1.38,0-3.21.46-3.51-1.77S458.14,765,459.42,764.34Z"/><path class="cls-1" d="M1038.77,711.32c5,.35,9.1.7,13.16.86,2.17.09,4.06.62,4,3.07s-2.29,2.06-3.91,2c-7.49-.32-15-.72-22.45-1.06-2-.1-4.18-.4-4.08-3s2.42-1.83,4-1.86C1032.89,711.27,1036.32,711.32,1038.77,711.32Z"/><path class="cls-1" d="M1129.77,725.51c-6.13-1-12.25-1.94-18.38-2.89-1.52-.23-3.33-.37-3.23-2.32.13-2.66,2.42-2.8,4.32-2.56,7,.87,14,1.84,21,3,1.61.26,4.46-.3,4.12,2.75-.32,2.79-2.8,2-4.58,2.11a18.23,18.23,0,0,1-3.19-.36Z"/><path class="cls-1" d="M1075.63,713.7c5.69.72,11.81,1.56,17.95,2.25,2,.22,3.43.68,3.08,3-.29,2-1.84,2.1-3.41,2-7.64-.7-15.27-1.46-22.91-2.12-1.48-.13-2.44-.52-2.47-2.17a2.27,2.27,0,0,1,2.2-2.58C1071.76,713.84,1073.47,713.82,1075.63,713.7Z"/><path class="cls-1" d="M1002,714.82a58.06,58.06,0,0,1-14-1c-1.41-.33-2.41-.75-2.39-2.35,0-1.76,1.28-2,2.64-2,7.91.09,15.82.25,23.74.32,1.76,0,2.9.58,3,2.44.2,2.55-1.58,2.62-3.37,2.62Z"/><path class="cls-1" d="M512.87,769.11c-3.62,0-7.24,0-10.86,0-1.65,0-3.68.26-3.73-2.27,0-2.09,1.74-2.27,3.18-2.28,8.09-.08,16.17,0,24.26-.07a2.13,2.13,0,0,1,2.4,2.31c0,1.65-1,2.13-2.48,2.12-4.26,0-8.51,0-12.77,0Z"/><path class="cls-1" d="M553.85,769c-3.86,0-7.72,0-11.58,0-1.52,0-3.16,0-3.13-2.19s1.81-2.16,3.22-2.17c7.93-.09,15.86-.07,23.79-.07,1.31,0,2.57.11,2.7,1.9.15,2.08-1.09,2.51-2.78,2.51-4.08,0-8.15,0-12.22,0Z"/><path class="cls-1" d="M276.77,566.79a3.78,3.78,0,0,1,3.91,2.31c3.32,5.95,6.76,11.83,9.94,17.85.82,1.57,1.93,3.94-.13,5.2s-3-1.15-3.78-2.43c-3.93-6.32-7.68-12.74-11.49-19.13C273.83,568.25,274.58,567,276.77,566.79Z"/><path class="cls-1" d="M878.54,716.47c-3.6.29-7.2.63-10.81.83-1.63.1-3.72.4-3.76-2.13,0-1.67,1.21-2.64,2.89-2.82a134.57,134.57,0,0,1,24.82-.8c1.22.09,2.76.19,2.69,1.94s-1.49,2.51-3.08,2.53c-4.25.08-8.5,0-12.75,0Z"/><path class="cls-1" d="M805.45,723.29c-6.1.81-12.21,1.64-18.32,2.44-1.87.24-4.08.86-4.59-1.88s1.74-2.93,3.63-3.24l19.43-3.15,3.76.06a2.18,2.18,0,0,1,2.42,2.27,2.35,2.35,0,0,1-2.08,2.66C808.29,722.76,806.87,723,805.45,723.29Z"/><path class="cls-1" d="M829,720.61c-3.73.57-5.38.49-5.63-1.88s1.3-2.64,3.16-2.91c7.15-1,14.29-2.13,21.54-2.05,1.91,0,4.09,0,4.12,2.75,0,3.22-2.52,2.07-4.18,2.24C841,719.48,834,720.12,829,720.61Z"/><path class="cls-1" d="M917.56,714.78h-9.51c-1.63,0-3-.45-3.12-2.36-.09-1.62,1.21-2.28,2.48-2.32,8.29-.29,16.58-.48,24.87-.67,1.14,0,2.12.33,2.15,1.69s-.63,2.24-2.22,2.49C927.16,714.4,922.12,715.1,917.56,714.78Z"/><path class="cls-1" d="M1365.35,769h-11.5c-1.54,0-3.17,0-3.12-2.17,0-1.61,1.29-2.12,2.65-2.14q12.45-.12,24.91-.14a2.26,2.26,0,0,1,2.43,2.39c.06,1.84-1.31,2-2.59,2-4.26,0-8.52,0-12.78,0Z"/><rect class="cls-2" width="1" height="1"/><rect class="cls-2" x="1919" y="1079" width="1" height="1"/><rect class="cls-2" y="1079" width="1" height="1"/><rect class="cls-2" x="1919" width="1" height="1"/></g><g id="Capa_3" data-name="Capa 3"><path d="M843.77,473.88v111H823.94V514.17l-19.51,14.9-16.18,12.54-16.18-12.54-19.51-14.9v70.74H732.74v-111l19.82,15.22,35.69,27.44,35.69-27.44Z"/><path d="M897.69,510.83v75.51H877.86V508.77a15.8,15.8,0,0,0-13.48-13.48h-4.44V475.62h4.28v.16a35.55,35.55,0,0,1,13.48,3.65,35.17,35.17,0,0,1,16,16.18,41.48,41.48,0,0,1,2.7,7.45,33,33,0,0,1,1,8.09Z"/><path d="M1023.79,565.4v19.83H913.07V552.55a31.54,31.54,0,0,1,2.7-12.85,32.56,32.56,0,0,1,28.87-20H992.7a13,13,0,0,0-1.11-25.86h-78.2V474h78.2a32.62,32.62,0,0,1,32.67,32.67,32.28,32.28,0,0,1-9.36,22.68,32.94,32.94,0,0,1-22.36,10h-47.9a12.89,12.89,0,0,0-11.58,12.84v12.85Z"/><path d="M1078.18,510.83v75.51h-19.82V508.77a15.81,15.81,0,0,0-13.48-13.48h-4.45V475.62h4.29v.16a35.55,35.55,0,0,1,13.48,3.65,35.17,35.17,0,0,1,16,16.18,42.26,42.26,0,0,1,2.7,7.45,33.53,33.53,0,0,1,.95,8.09Z"/><path d="M1181.6,493.55a34.44,34.44,0,0,1,3.65,15.54v75.66h-19.83V507.19a15.83,15.83,0,0,0-13.48-13.49h-58.21V473.88H1150a34.6,34.6,0,0,1,15.54,3.64,35.26,35.26,0,0,1,16,16.18Z"/></g></g></svg>