<svg xmlns="http://www.w3.org/2000/svg" viewBox="0 0 1920 1080"><defs><style>.cls-1{fill:#010101;}.cls-2{fill:#f2f2f2;}</style></defs><g id="Capa_2" data-name="Capa 2"><g id="Capa_1-2" data-name="Capa 1"><path class="cls-1" d="M1473.38,752.68c-.09-8.56-.23-17.12-.23-25.69q-.08-81.32-.06-162.66c0-1.48.16-3,.24-4.45q-.39-38.91-.77-77.81c0-3.7-3.8-11.27-3.8-11.27-5.27-7.62-13.39-11.4-21.75-14.53-10.23-3.82-14.11-11-13.88-21.63.36-15.69.18-31.39,0-47.07a50.73,50.73,0,0,0-3.23-17.86c-5.28-13.91-13-25.7-25-34.67a194.42,194.42,0,0,1-29.38-27.54c-1.67-1.9-2.76-2.86-.4-5.34,31.62-33.37,40.93-72.56,27.47-116.18-20.1-65.15-85-98.76-149.73-77.8-11.73,3.79-23,8.21-32.87,16.43-15.13,12.66-28.45,26.34-36.17,44.9-5,12.15-9.48,24.68-10.53,37.59-.92,11.24-1.63,22.94.86,34.18s5.34,22.07,10.47,32.46c4.7,9.5,11,17.66,17.5,25.84q5.83,5.61,11.67,11.21l17.61,12,6.65,3.27c2.23.94,4.51,1.8,6.69,2.85,2.57,1.25,5,2.68,5.63,5.89,2.32,12.21-6.52,23.31-18.93,23.36-17.18,0-34.37-.21-51.55-.25a53.34,53.34,0,0,0-10.52.75c-11.27,2.22-19.66,8.52-26.11,17.78-4.8,6.89-10.91,11.73-19.77,12-9.52.3-17-3.35-22.43-11.23-6.59-9.62-15.19-16.36-26.83-18.72-5.17-1-10.42-.83-15.63-.48-2.84.19-4.32-.54-3.92-3.6.55-4.16-2-4.34-5.17-4.33-18.68.07-37.36.11-56,0-3.59,0-5.26,1-4.77,4.64.78,4-1.82,3.43-4.23,3.07l-49.23.08c-6.77,1.46-4-3.62-4.46-6.5-.63-.35-1.25-1-1.88-1q-30.82-.15-61.65-.18c-1.83,0-3,.63-2.58,2.61,1.19,5.67-2.27,5.42-6.16,5.15-16.59-1.16-29.71,4.9-39.48,18.59-11.7,16.38-30.34,16.46-42.41.14-9.64-13-22.18-19.3-38.41-18.9-17,.43-34,.43-51,.45-7.07,0-14.82-5.66-17.14-12.33a23.43,23.43,0,0,1-.5-13.8c.84-3,5.23-3,8-4.28,15.29-7,29.13-16.14,40-29.07,25.7-30.5,34.12-65.53,25.75-104.36-9-41.86-33.46-70.6-74.14-85.19-19.78-7.1-40-8.67-60.65-5.62-21.15,3.12-39.66,12.56-55.53,26.1a112.24,112.24,0,0,0-29.83,40c-1.21,2.65-4.69,11.06-4.69,11.06a122.45,122.45,0,0,0-7.21,40c-.28,30.94,10.54,57.6,31.63,80,3.25,3.45,2.6,5.09,0,8.06a209.79,209.79,0,0,1-28.71,26.63q-28.11,21.93-27.75,57.68c.13,14-.27,28,0,42,.21,10.7-4.18,17.72-14.35,21.36-8.32,3-16,7-21.44,14.58-4.1,6.78-3.92,21.63-3.92,21.63q0,195,0,390.07c0,3-.45,6,.2,9.24,2.38,11.9,9.69,20.09,18.54,27.41,6.08,4.65,15.42,7.19,15.42,7.19h47.22c3.74,0,4.28,1.33,4.24,4.55-.15,13.81,0,27.63-.16,41.44-.07,4.19,1.33,5.69,5.48,5.41l56,0c3.74.09,4.89-1.44,4.85-5-.13-13.45.54-27-.4-40.33-.42-5.78,1.38-6,5.75-6,30.46.14,60.92.12,91.37.15,3.92,0,7.84.11,11.66-1.07,10.67-3.27,21.27-6.75,31.89-10.12a673.56,673.56,0,0,1,78.54-19.45,626.69,626.69,0,0,1,70.27-9.49c11.35-.84,22.82-2,34.22-3.11,3.18-.31,5.08,0,4.62,3.87-.37,3.19,1.48,4.22,4.46,4.14l55.92,0c4,.16,6.57-.79,6.28-5.35-.16-2.62,1.15-3,3.47-2.8,9.12.71,18.31.76,27.39,1.88,17.46,2.16,35.17,2.39,52.34,7.18,6.84,1.92,14.24,1.74,21.36,2.72,15.77,2.16,31,6.8,46.52,10.24A432.28,432.28,0,0,1,1200,921.75c10.35,3.82,20.73,5.18,31.72,5.14,61.09-.24,122.2-.1,183.3-.11,6,0,12,0,17.93-.27a39.75,39.75,0,0,0,22.67-8.55c12-9.15,17.44-21.49,17.53-36.39q.18-29.13.28-58.26Q1472.58,788,1473.38,752.68ZM1250.51,320.86c.06,4-.45,5.37-4.85,3.5a111.16,111.16,0,0,1-67.57-110.43c2.71-38.61,18.73-69.83,52.1-90.18,58.23-35.53,133.18-16.53,163.24,51.12,19.75,44.44,12.52,85.85-19.91,122.57-2.82,3.17-3.78,2.57-5.88-.56-14-20.77-22-43.22-22.33-68.59-.39-28.84-21.49-51.55-50-54.83-3.27-.47-10.51,0-10.51,0-26.15,3.19-44.28,21.11-48.12,47.05-.33,2.15-1,4.24-1.56,6.36l.3,2.32c2.06,7.08,1.85,14.74,5.56,21.4.91,1.61,1.29,3.66,2.52,5,6.75,7.14,7.2,15.77,6.94,24.94C1250.1,294,1250.32,307.41,1250.51,320.86Zm72.9-93.66c-5.17.8-7.56-.6-8.85-6.5-2-9.36-8.74-15.45-18.4-17.28-3.65-.7-5-2-4.67-5.75a65.1,65.1,0,0,0,.06-11.17c-.29-3.72.82-4.91,4.6-4.15,19.33,3.93,32.44,14.74,38.48,33.81.87,2.76.25,5.64,1.12,8.2.92,2.75-.41,2.83-2.29,2.83-2.42,0-4.85,0-7.27,0v0A18.41,18.41,0,0,0,1323.41,227.2Zm-33.87,16.94c0,4.75-1.83,4.78-5.36,3.65-7.92-2.53-14.74-11.57-14.8-19.86-.07-10,8.7-19.74,18.93-21,9.07-1.12,19.74,6.22,22.2,15.28.86,3.2.77,5.22-3.73,5-5.35-.23-11.92-1.8-15.78,1.56C1287,232.27,1289.57,238.93,1289.54,244.14Zm1.92-.42a41.83,41.83,0,0,0,0-5c.25-10,.25-10,10.24-10.36.75,0,1.49,0,2.23,0,7.76-.22,8.66,1.11,5.34,8.18-2.49,5.3-6.68,8.76-12,11C1293.37,249.16,1290.81,249.08,1291.46,243.72Zm-360.63,125c.66-2.42,2.45-1.92,4-1.93,6.52-.08,13.12-.66,19.55.11,9.9,1.18,19.66-.7,29.51-.35,4.29.17,5.52,1.25,5,5.4-1,7.88-4,10.92-11.73,11.17L941,383A11.35,11.35,0,0,1,930.83,368.72ZM544.25,295.06c-29.78-34.4-35.42-73.08-20.46-115.42L528,170c16.15-30.25,39.61-52.15,73.37-60.22,61.68-14.74,129,20.9,139.56,94.78,6.9,48-17.31,95.24-58.87,116-3.18,1.58-6.46,2.92-9.63,4.47-2.54,1.22-3.31.35-3.3-2.24.09-18.12.1-36.24.2-54.35a6.32,6.32,0,0,1,.92-3.72c8.26-10.39,12.22-22.41,13.81-35.38.07-.81.14-1.61.22-2.41-2.3-5.14-1.57-10.87-3.48-16.18-7.93-22.05-23.55-34.34-46.58-37.26l-10.4.13c-15.37,0-33.68,16.42-33.68,16.42a54.25,54.25,0,0,0-15.78,38.41c-.19,24.16-7.66,45.74-20.55,65.77C549.44,301,549.35,300.94,544.25,295.06Zm74.52-67.85c-1.48,0-3-.06-4.46-.05-6.16,0-6.73-.81-4.54-6.58C613,212,622.3,206,630.68,207c10.44,1.24,18,8.66,19.49,19.21,1.18,8-5,17.6-13.55,21.1-5.7,2.33-6.28,1.94-6.32-4.13,0-1.48,0-3,0-4.46C630.28,227.31,630.28,227.31,618.77,227.21Zm9.32-36.94c.53,7.14,1.13,13.21-9.21,14.77-7.34,1.11-12.52,8.07-13.79,15.49-1.08,6.34-3.84,7.55-9.18,6.68a18.54,18.54,0,0,0-2.79,0c-11.25,0-11.33,0-8-10.88,5.81-19.14,18.9-30.12,38.34-34,3.57-.71,5.28.09,4.7,4A17.62,17.62,0,0,0,628.09,190.27Zm-1.2,57.78c-3,1.47-6.34-1.25-9.11-3.08a21.13,21.13,0,0,1-8.63-11.33c-1.07-3.24-1.31-6.06,3.72-5.18a33.48,33.48,0,0,0,5.58.06c9.56.31,9.56.31,9.64,9.73a11.63,11.63,0,0,1,0,1.67C627.68,242.72,629.57,246.76,626.89,248.05ZM593.83,938.81c.11,10.44.16,20.88.35,31.32.05,2.36-.68,3.39-3.15,3.36l-51,0c-2.66.06-3.49-.78-3.41-3.54.28-9.51.35-19,.3-28.56,0-3.08.77-4.24,4.13-4a58.79,58.79,0,0,0,14.47-.72c-5.16,0-10.34-.33-15.47.1-4,.35-3-2.16-3.09-4.17-.13-2.37.33-3.54,3.43-3.22a68.87,68.87,0,0,0,15.23-.48c-5.12,0-10.27-.24-15.38.11-2.55.16-3.28-.52-3.27-2.87,0-11,.06-22-.06-33,0-2.56,1-3.12,3.32-3.08,4.85.1,9.73-.37,14.55,0,3.63.27,5.09-1.28,5.87-5.09H540.12c-1.82,0-3.93.44-3.73-2.6.19-2.66,2.14-2.08,3.69-2.11,6.72-.16,13.44-.17,20.16-.43,4.44-.17,5.9,1.45,4,5.63.65.33,1,1.67,2,.65-.84-4.2-.2-6.58,5.17-6,5.53.52,11.17-.24,16.75,0,2.07.09,5.94-2.07,5.91,2.49,0,4-3.6,2.21-5.62,2.35-4.26.29-8.56.07-12.85.13-3,.06-5.86.65-8.63,5.15,8.06,0,15,.32,21.88-.11,4.23-.26,5.61.89,5.32,5.15-.71,10.74,1,21.54-.91,32.25,0,.81-.05,1.62-.08,2.44,1.23,2.22,1.76,4.41-.28,6.49C593.25,937.21,593.55,938,593.83,938.81ZM536.77,826.9c0-2.24.25-3.49,2.93-3.44,7.09.11,14.19,0,21.28,0,1.24,0,3-.4,3.3,1.26.54,2.65,1.29,5.52.73,8-.34,1.52-2.55,0-3.77-.67-6.14-3.54-7.68-3.24-13.83,2.91-5.73,5.71-5.75,6.57-2,13.27,3,5.43-3.49,1.55-3.74,4.79,4.63-.42,5.54,3,6.89,6.74,2.5,7,10.41,11.24,18.55,10.72A16.92,16.92,0,0,0,582.88,857c1.16-6.3,5.54-2.59,8.33-3.25,3.59-.84,2.95,2.38,3,4.46.06,5.23-.09,10.45,0,15.68.07,2.69-1,3.57-3.63,3.56-16.81-.1-33.62-.18-50.43,0-3.24,0-3.56-1.33-3.53-4Q536.85,850.14,536.77,826.9Zm29.34-.4c-.51-3.69,2.58-2.86,4.63-2.9,6.53-.11,13.06,0,19.57-.23,2.92-.11,4,.7,3.85,3.7-.21,3.53,0,7.08,0,10.62h.09c0,2.24,0,4.48,0,6.71,0,7.64-.23,7.74-7.78,7.08-2.26-.2-3-1-3.5-3.24-1.55-7.39-6.07-12.35-13.59-13.79C563.73,833.37,566.5,829.29,566.11,826.5Zm12.26,23.9c-1,2.29-4,.58-6.07,1.16-2-.67-5.26,1.22-5.88-1.37-.81-3.33-.34-7,0-10.54.13-1.5,1.86-1,2.78-.59,2.57,1.11,5.08,2.38,6.7,4.85C577.2,845.93,579.31,848.19,578.37,850.4Zm-2.65,3.12c3.16-.09,3.51,1.17,2.34,3.67A16.09,16.09,0,0,1,572.5,864c-4.5,3-5.67,2.56-7-4.59.29,7.22-2.59,7.38-6.22,5.07-4.82-3-8-7.36-7.57-13.32.39-5.8,4.19-9.31,9-11.84,2.82-1.48,4.19-.58,3.81,2.71-.17,1.46-.08,3-.16,4.45-.26,4.44-.26,4.44-4.4,7.08C565.17,853.57,570.46,853.69,575.72,853.52Zm-26.19-7.9c-2.07-.54-3-1.85-2-3.67a23.61,23.61,0,0,1,6.71-7.22,2.69,2.69,0,0,1,3.91.74c1,1.48-.19,2.23-1.17,3.12C554.46,840.89,552,843.28,549.53,845.62Zm377,.88c-.41,8-.28,16-.09,24.07.08,3.1-.69,4.2-4,4.33-65.19,2.8-128.84,14.49-191.16,33.62a66.58,66.58,0,0,0-7.45,2.37c-15.42,7-31.69,7.33-48.23,7.06-23.9-.41-47.81-.13-71.71.08-4.18,0-6-.71-5.53-5.46.55-5,.12-10.06.18-15.09,0-3.4-1.07-7.16,3.74-8.78,1.67-.55,1.23-3,1.25-4.6.1-8,.36-16.06.08-24.07-.17-4.94,1.16-7.39,6.53-6.53,1.33.21,2.93.54,4.51-.84-2.23-2.11-4.9-1.17-7.22-1.15-2.72,0-4.11-.53-4-3.68.35-7.06.42-14.15.6-21.23a2.57,2.57,0,0,1-.21-.52c-1.15-12.06-1.15-12.1-13.67-12.26-6.72-.08-13.44-.16-20.14.17-3.37.17-4.25-1.12-4.13-4.14a42.14,42.14,0,0,0-.78-11c-.16,3.41-.57,6.83-.41,10.22.18,3.56-.81,4.91-4.67,4.8-8.2-.26-16.42-.08-24.62.13s-8.45.7-8.53,8.79c0,1.3-.14,2.6-.2,3.89.07,6.54-.11,13.08.32,19.59.27,4.23-1,5.84-5.25,5.25a8.47,8.47,0,0,0-5.47.57c.65,1.94,2.15,1.37,3.26,1.42,7.4.35,7.42.33,7.42,7.51,0,7.47,0,14.94-.09,22.41,0,2.81.4,5.25,3.31,6.45,1.89.79,2.21,2.31,2.19,4.1,0,6.91-.1,13.82,0,20.73,0,2.43-1,3.21-3.37,3.17-14.38-.2-28.79.25-43.14-.57-16.44-.94-30.13-16.57-30.35-33.94-.24-19.61-.06-39.23-.06-58.84,0-110.59.18-221.18-.21-331.76,0-14,5.11-22.71,18.12-27.21a42.53,42.53,0,0,0,12.71-7,21.58,21.58,0,0,0,8.66-16.24c1-15.88.41-31.75.38-47.62,0-22.74,9-40.37,27.05-54.28,28.54-22,49.7-49.32,58.09-85.18a100.62,100.62,0,0,0,2.87-22.71c0-3.31,1-4.69,4.57-4.39a90.15,90.15,0,0,0,12.3,0c2.93-.16,3.83,1.18,4.37,3.77,2.39,11.57,9,19,21.1,20.66,2.93.39,2.59,2,2.61,3.83.06,7.47,0,14.94.1,22.42,0,1.75-.45,3.64,2.27,5.22,0-3.86,0-7.71,0-11.56,0-2.44,0-4.86,0-7.29,0-6.56-1.8-12.95,8.78-14.63,8.05-1.29,13.23-8.83,14.78-17.36.74-4.11,2.05-5.89,6.44-4.82,2.3.56,4.8.3,7.21.41.27-.65,1.73-.78.83-1.94-.55.07-1.11.19-1.66.21-3.53,0-7.42.9-10.52-.28s-2.13-5.82-3.45-8.77c-3.55-7.86-9.26-13.11-17.72-14.66-4.06-.74-5.14-2.47-4.78-6.27a64.69,64.69,0,0,0,.06-10.6c-.25-3.74,1-4.82,4.78-4.3a45.83,45.83,0,0,1,39.33,42.3c.07.93.21,1.86-.94,2.27.12.8.24,1.6.38,2.39,1.11,10.32-3.15,18.95-8.91,26.93a23.3,23.3,0,0,0-4.64,14.53c.17,22.79,0,45.56.08,68.35.07,16.69,11.43,28,28.19,28.05,17.17.06,34.36-.18,51.53-.28,12.74-.08,22.47,5,29.62,15.8A33.46,33.46,0,0,0,822.11,387a42.66,42.66,0,0,0,4.6-5.63c6.85-10.1,16.21-14.87,28.49-14.56,9.54.22,9.57-.09,9.56,9.44q0,26.9-.07,53.78c0,12.53-1.6,14.15-14.31,15.39-30.62,3-61,7.49-91.28,13.19a1139.73,1139.73,0,0,0-113.9,27.85c-.71.21-1.45.31-2.18.47-27.91,9.14-55.78,18.47-83,29.44-13,5.2-25.89,10.43-38.63,16.08-9.9,4.4-16.89,11.51-18,23q0,30.24-.08,60.49.09,48.38.16,96.75c0,5.1.48,10.05,2.79,14.66,4.75,9.49,12.83,13.62,23.09,13.94,5.22.17,10.46.31,15.66,0,20.62-1.06,34.91,8.16,43.76,26.48,7.58,15.67,16.82,30.24,28.74,43,3.81,4.07,7.84,7.93,11.75,11.89A157.6,157.6,0,0,0,674.8,849c26.51,9.66,53.41,10.21,80.88,4.43a934.14,934.14,0,0,1,118.94-16.74c12.83-1,25.69-1.75,38.53-2.66C922.11,833.36,927,836.82,926.48,846.5Zm62.31-2c.17,12.87-.13,25.77,0,38.65,0,3.17-.64,4.19-3.91,4.05H936.05c-4,.26-5.43-.59-5.3-5.06.39-12.5.2-25,.14-37.54-.06-10.37-5.24-15.61-15.62-15.2-33.23,1.32-66.27,4.69-99.22,9.06-25.53,3.39-50.68,8.91-76.09,12.83-29.22,4.53-56.76-1.32-82.61-15.45-3.17-1.74-6.67-3-9.28-5.71-21.06-13.62-37.23-31.73-49.34-53.57q-5.67-10.22-11.3-20.47c-8.75-12.88-21.41-18.27-36.49-19.1-2.77-.15-5.53-.48-8.3-.73a74.61,74.61,0,0,1-17.86-.31c-9-1.13-16.56-9.89-16.62-20.33-.18-32.66,0-65.34.07-98q-.06-30.67-.1-61.35a14.61,14.61,0,0,1,.73-3.18c.54-7.2,5.54-11.11,11-14.5,10.52-6.51,22.43-9.9,33.74-14.61,49.19-20.49,99.89-36.4,151.57-49.3,1.07-.27,2.19-.34,3.31-.51a955,955,0,0,1,103.64-19.68c14.61-2,29.27-3.46,43.87-5.39,9.42-1.24,13.32-5.74,13.35-15.36.07-24.1.12-48.2-.19-72.3-.06-5.29.63-7.32,6.79-7.08,15.3.6,30.65.28,46,0,3.72-.06,4.7.93,4.6,4.62-.16,5.75-.8,11.54.57,17.3,1.75,7.32,5.88,10.89,13.28,11,4.49.08,9,.27,13.45-.05l11.58,0c4.65.32,9.34.16,14,.05,7.17-.16,11.76-4.07,13.31-11.16,1.24-5.75.7-11.56.49-17.31-.13-3.35.38-4.48,4.11-4.41,15.69.26,31.4.41,47.09,0,5.32-.16,6,1.61,6,6.24-.18,23.35.36,46.72-.11,70.05-.32,15.21,6.35,18.2,18.6,19.34a995.09,995.09,0,0,1,145.32,24.86c33,7.63,65.33,17.54,97.36,28.47,15.28,5.22,30.58,10.41,45.24,17.27,14.18,5.07,28.27,10.38,41.69,17.24,9,4.63,13.38,12,13.32,22.65-.24,50.59,0,101.2-.13,151.8,0,16.36-7.54,23.83-23.93,24.27q-8.13.21-16.25.32c-16.72.19-30.53,6.1-40.17,20.28-9.88,18.52-19.31,37.33-34.59,52.29-6.51,6.37-12.89,12.87-20.82,17.52-17.55,13.52-37.62,20.79-59.27,24.38-22,3.67-43.36-.93-64.83-5a950.83,950.83,0,0,0-108-14.28c-5.94-.44-11.85-1.24-17.76-1.87-6.46-.15-12.92-.27-19.38-.5-4.09-.15-8.12,0-12,1.61C990.39,834.72,988.73,839.08,988.79,844.53Zm475.29,39.85c-.6,19-15.41,33.07-34.62,33.2-48,.3-96,.2-144,.26-17.19,0-34.41-.68-51.55.27-14.52.8-27.5-3.89-40.8-8.1a761.63,761.63,0,0,0-151.87-31.83c-14.49-1.49-29-3.07-43.54-3.2-3.86,0-4.6-1.38-4.49-4.89.27-8.58.08-17.17.16-25.77.07-7.16,3.58-10.78,10.72-10.43q35.23,1.77,70.31,5.51c36.35,3.9,72.06,11.7,108.17,16.81,33.37,4.73,64.35-4.15,92.5-22.64,4-2.65,8-5.42,12-8.13a180.1,180.1,0,0,0,44.48-58.69c2.8-5.82,6.35-11.35,11.69-15.38,6.65-7.3,15.56-9.14,24.75-9.75,7.25-.48,14.56-.14,21.84-.31,15.74-.38,26.26-10.85,26.38-26.59.17-21.09.07-42.19.06-63.29,0-30.63-.24-61.25.07-91.88.12-12.08-5.21-20.33-15.44-25.74-13.18-7-27.52-11.36-41.06-17.53-1-.46-2-.95-3-1.43-27.44-10.31-55.12-19.89-83-29-25-6.75-49.83-13.75-75.06-19.43a1076.92,1076.92,0,0,0-129.58-21.08c-2-.2-4.07-.49-6.1-.8-5.21-.79-8-4-8-9.11-.14-21.84-.08-43.69-.19-65.52,0-2.46.84-3.1,3.19-3.26,14.49-1,26.51,2.43,35.48,15.27,14.8,21.19,41.91,21,56.86-.08,7.3-10.28,16.88-15.28,29.45-15.1q24.92.38,49.84.36c18.54,0,29.62-11.13,29.62-29.56,0-21.65-.15-43.32.09-65,.06-6.63-1.37-12.27-5.46-17.66-5.7-7.51-9.17-16-8.43-25.8.2-.76.41-1.52.61-2.29-1.35-.21-1.11-1.25-1-2.13a45.65,45.65,0,0,1,39.76-42.46c3.11-.42,5.17-.21,4.63,3.74a40.15,40.15,0,0,0,0,5c0,3.35.73,7-.27,10-1.24,3.77-5.85,2-8.75,3.43-7.57,3.83-13.15,9.19-14.55,17.79-.64,3.9-2.12,5.41-6.15,5-3.86-.42-7.8-.19-11.7-.24-.5.95.57,1.21.8,1.84,4.45-.19,8.9-.35,13.36-.61,2.71-.17,2.88,1.78,3.24,3.64,2.31,11.66,9.11,19,21,20.82,3.17.48,2.87,2.37,2.89,4.35,0,8.94,0,17.88,0,27.07,2.87-.67,2.15-2.68,2.17-4.06.11-7.66.16-15.33,0-23,0-2.88.66-3.89,3.84-4.54,10.91-2.24,17.75-9.19,19.93-20.13.71-3.57,2-4.51,5.5-4.1a69.8,69.8,0,0,0,11.74-.12c2.48-.15,3.9.42,4,3.2,1.74,47.13,26,81.83,61.66,109.74,17.62,13.78,26.5,31.19,26.4,53.44-.07,15.12.22,30.25.22,45.38,0,10.5,5.21,17.62,14.15,22.32,4.77,2.52,9.86,4.45,14.57,7.06s8.9,5.62,9.52,11.57c1.56,5.06,1.18,10.29,1.18,15.47,0,16-.12,31.93-.19,47.9.08,5.4.23,10.82.23,16.23q0,94.71,0,189.41c0,4.29-.19,8.58-.3,12.86q.06,32,.11,64C1464.15,845.93,1464.71,865.18,1464.08,884.38Z"/><path class="cls-2" d="M1411.77,560.53c.06-10.62-4.27-18-13.32-22.65-13.42-6.86-27.51-12.17-41.69-17.24-14.66-6.86-30-12.05-45.24-17.27-32-10.93-64.37-20.84-97.36-28.47A995.09,995.09,0,0,0,1068.84,450c-12.25-1.14-18.92-4.13-18.6-19.34.47-23.33-.07-46.7.11-70.05,0-4.63-.65-6.4-6-6.24-15.69.44-31.4.29-47.09,0-3.73-.07-4.24,1.06-4.11,4.41.21,5.75.75,11.56-.49,17.31-1.55,7.09-6.14,11-13.31,11.16-4.66.11-9.35.27-14-.05l-11.58,0c-4.46.32-9,.13-13.45.05-7.4-.12-11.53-3.69-13.28-11-1.37-5.76-.73-11.55-.57-17.3.1-3.69-.88-4.68-4.6-4.62-15.31.24-30.66.56-46,0-6.16-.24-6.85,1.79-6.79,7.08.31,24.1.26,48.2.19,72.3,0,9.62-3.93,14.12-13.35,15.36-14.6,1.93-29.26,3.42-43.87,5.39A955,955,0,0,0,708.48,474.2c-1.12.17-2.24.24-3.31.51-51.68,12.9-102.38,28.81-151.57,49.3-11.31,4.71-23.22,8.1-33.74,14.61-5.46,3.39-10.46,7.3-11,14.5a14.61,14.61,0,0,0-.73,3.18q0,30.68.1,61.35c-.05,32.67-.25,65.35-.07,98,.06,10.44,7.6,19.2,16.62,20.33a74.61,74.61,0,0,0,17.86.31c2.77.25,5.53.58,8.3.73,15.08.83,27.74,6.22,36.49,19.1q5.64,10.25,11.3,20.47c12.11,21.84,28.28,39.95,49.34,53.57,2.61,2.69,6.11,4,9.28,5.71,25.85,14.13,53.39,20,82.61,15.45,25.41-3.92,50.56-9.44,76.09-12.83,33-4.37,66-7.74,99.22-9.06,10.38-.41,15.56,4.83,15.62,15.2.06,12.52.25,25-.14,37.54-.13,4.47,1.27,5.32,5.3,5.06h48.87c3.27.14,4-.88,3.91-4.05-.17-12.88.13-25.78,0-38.65-.06-5.45,1.6-9.81,5.85-13.19,3.83-1.63,7.86-1.76,12-1.61,6.46.23,12.92.35,19.38.5,5.91.63,11.82,1.43,17.76,1.87a950.83,950.83,0,0,1,108,14.28c21.47,4.08,42.78,8.68,64.83,5,21.65-3.59,41.72-10.86,59.27-24.38,7.93-4.65,14.31-11.15,20.82-17.52,15.28-15,24.71-33.77,34.59-52.29,9.64-14.18,23.45-20.09,40.17-20.28q8.11-.1,16.25-.32c16.39-.44,23.91-7.91,23.93-24.27C1411.72,661.73,1411.53,611.12,1411.77,560.53Zm-452-22.8a18.55,18.55,0,1,1,18.54-18.54A18.55,18.55,0,0,1,959.73,537.73Z"/><path class="cls-1" d="M1353.61,362.7c5.78,0,11.57.2,17.34-.06,4.7-.22,8,1.42,11,5.11a37.93,37.93,0,0,1-1.64,49.61,9.48,9.48,0,0,1-7.36,3.3c-12.68,0-25.36,0-38,0a11.14,11.14,0,0,1-8.92-3.75c-12.5-14.17-12.41-36.74.23-50.63a9.7,9.7,0,0,1,7.77-3.59c6.53.1,13,0,19.58,0Zm-.09,53.41V416c6,0,12-.05,17.94,0,2.55,0,4.6-.51,6.39-2.62a33.53,33.53,0,0,0,.87-42.37c-2.13-2.74-4.4-4.06-8-4q-17.37.29-34.75,0a8.05,8.05,0,0,0-7.09,3.45c-10.13,12.6-10.33,27.82-.6,41.33,2.16,3,4.6,4.52,8.4,4.36C1342.3,415.93,1347.91,416.11,1353.52,416.11Z"/><path class="cls-1" d="M566.4,362.7c6.15,0,12.31.18,18.45-.06,4.19-.16,7,1.58,9.46,4.76,11.88,15.12,11.59,35.14-.74,49.25a10.65,10.65,0,0,1-8.7,4.07c-12.12-.13-24.24-.18-36.36,0-5.17.07-8.67-2-11.68-6.13-10.83-15.08-10-35.22,2.18-48.32a9.88,9.88,0,0,1,7.81-3.49c6.53,0,13,0,19.58,0Zm-.31,4.42c-6,0-12,.15-17.94-.06-3.17-.11-5.11,1.13-7,3.61-9.57,12.74-9.87,27.53-.94,40.54a10.07,10.07,0,0,0,9.27,4.87c11.58-.13,23.17-.07,34.75,0a7.34,7.34,0,0,0,6.21-3,33.09,33.09,0,0,0,.89-41.8c-2.23-2.91-4.65-4.45-8.46-4.27C577.31,367.31,571.69,367.1,566.09,367.12Z"/><path class="cls-1" d="M589.86,928.55c0,.44.1.88.16,1.31H571.24l0-1.31Z"/><path class="cls-1" d="M630,210.45v10.83C627.58,217.86,627.85,214.23,630,210.45Z"/><path class="cls-1" d="M1290,210.5c2.43,3.57,1.45,7.13,0,10.73Z"/><path class="cls-1" d="M959.73,500.64a18.55,18.55,0,1,0,18.54,18.55A18.56,18.56,0,0,0,959.73,500.64Zm0,31.48a12.94,12.94,0,1,1,12.93-12.93A12.94,12.94,0,0,1,959.73,532.12Z"/><rect class="cls-2" width="1" height="1"/><rect class="cls-2" x="1919" y="1079" width="1" height="1"/><rect class="cls-2" y="1079" width="1" height="1"/><rect class="cls-2" x="1919" width="1" height="1"/></g><g id="Capa_3" data-name="Capa 3"><path d="M798.38,626.09v111H778.56V666.38l-19.51,14.91-16.18,12.53-16.18-12.53-19.51-14.91v70.75H687.35v-111l19.83,15.23,35.69,27.44,35.69-27.44Z"/><path d="M852.31,663.05v75.5H832.48V661A15.8,15.8,0,0,0,819,647.51h-4.45V627.84h4.29V628a35.42,35.42,0,0,1,29.5,19.82,42.36,42.36,0,0,1,2.7,7.46,33.47,33.47,0,0,1,1,8.09Z"/><path d="M978.4,717.62v19.82H867.69V704.77a31.66,31.66,0,0,1,2.69-12.85,32.6,32.6,0,0,1,28.87-20h48.06a13,13,0,0,0-1.11-25.85H868V626.25H946.2a32.63,32.63,0,0,1,32.68,32.68,32.4,32.4,0,0,1-9.36,22.68,32.89,32.89,0,0,1-22.37,10h-47.9a12.92,12.92,0,0,0-11.58,12.85V717.3Z"/><path d="M1105.29,717.62v19.82H994.57V704.77a31.67,31.67,0,0,1,2.7-12.85,32.59,32.59,0,0,1,28.87-20h48.06a13,13,0,0,0-1.11-25.85h-78.2V626.25h78.2a32.63,32.63,0,0,1,32.67,32.68,31.69,31.69,0,0,1-2.69,12.85,32,32,0,0,1-6.66,9.83,32.93,32.93,0,0,1-22.37,10h-47.9a12.92,12.92,0,0,0-11.58,12.85V717.3Z"/><path d="M1230.11,646.08a34.27,34.27,0,0,1,2.54,12.85v45.52a32.69,32.69,0,0,1-10.47,24.11,33.76,33.76,0,0,1-7.3,5.23,31.39,31.39,0,0,1-14.91,3.65h-69V717.62h69a13.07,13.07,0,0,0,13-13V689.06a32.48,32.48,0,0,1-12.37,2.54h-46.79a32.76,32.76,0,0,1,.47-65.51h45.52a32.58,32.58,0,0,1,30.14,20Zm-88.67,12.85a13.05,13.05,0,0,0,12.38,13h46.79a13,13,0,0,0-.64-26h-45.52A13.07,13.07,0,0,0,1141.44,658.93Z"/></g></g></svg>