<svg xmlns="http://www.w3.org/2000/svg" viewBox="0 0 1920 1080"><defs><style>.cls-1{fill:#f2f2f2;}.cls-2{fill:#020202;}</style></defs><g id="Capa_2" data-name="Capa 2"><g id="Capa_1-2" data-name="Capa 1"><rect class="cls-1" width="1" height="1"/><rect class="cls-1" x="1919" y="1079" width="1" height="1"/><rect class="cls-1" y="1079" width="1" height="1"/><rect class="cls-1" x="1919" width="1" height="1"/></g><g id="Capa_3" data-name="Capa 3"><path class="cls-2" d="M1680.55,490.6c-7.62-6.51-16.53-8.78-26.41-8.63-15.11.21-30.22.13-45.34,0-20-.14-26.08-6.21-26.16-26.34-.1-25.58.15-51.15-.1-76.74-.25-26.5-17.3-51.1-42.23-60.14-53-19.24-106-38.2-160.47-53-28.39-7.74-57.1-14.11-85.78-20.65-2.39-.54-5.93,0-4.4-4.55,2.27-6.77-2-8.67-7.38-9.57-2.65-.44-5.33-.63-8-1.1q-42.39-7.47-84.77-15c-3.24-.57-7.35-.89-7.74,3.15-.62,6.55-4.45,5.62-8.67,5.06s-8.71-1-13-1.55c-61.45-7.73-123.06-13-185-12.72l-23.27-.53c-65.43,0-140.07,7.34-140.07,7.34q-33.72,4-67.44,7.94c-3.22.39-5.6.56-5.83-3.93-.28-5-3.91-5.34-8-4.61q-42.4,7.49-84.81,14.84c-2.64.47-5.3.72-8,1.08-5.71.78-10,2.45-7.59,9.77,1.3,3.91-1.77,4-4.54,4.65-28.14,6.72-56.4,12.94-84.31,20.51-54.24,14.7-107,33.87-159.93,52.67C351.81,329,334.55,361.31,336.21,386c1.62,24,.37,48.21.26,72.33a41.81,41.81,0,0,1-1.27,10.08c-2.43,9.43-7.43,13.45-17.22,13.6-13.88.19-27.78.13-41.67,0-14.57-.11-29.45-1.61-41.57,13.29-4.42,6-5.07,27.39-5.07,27.39.13,28.9.15,57.8-.09,86.71a16.12,16.12,0,0,0,5.36,12.78c9.45,9.1,18.95,18.18,27.76,27.88,5.17,5.67,10.54,8.76,18.28,7.65,2.84-.42,5.81.07,8.71.14h74.52c5.09-.09,10.24.26,15.27-.39,9-1.15,14,3.46,17.45,10.94q29.7,64.29,59.45,128.56a12,12,0,0,1,.53,2.1c3,6.08,6.15,12.09,9,18.25,8,17.57,16,35.36,34.06,45.09,15.71,8.46,38,8.87,38,8.87,38.24.83,76.52.22,114.77.13,10.45,0,20.87-.33,31.1-3.33,15.86-4.63,31.83-8.83,47.83-13,2.22-.57,6.44-3.45,6.73,1.81.49,9.14,5.85,9.29,12.57,7.82,29.7-6.51,59.58-12,89.62-16.6,6.41-1,9.52-3.8,7-10.3-1.59-4.1.42-4.45,3.61-4.68,33.51-2.53,67-4.85,100.61-6.06l16.43,0c33.35,1.22,66.63,3.16,99.87,6,3.58.3,4.9,1.29,4,4.82-1.85,7.45,2.1,9.88,8.77,10.7,8.92,1.09,17.81,2.54,26.65,4.2,21,3.91,42,8.08,63,12.08,3.51.66,8.57,2.16,9.17-2.74,1.18-9.67,6.33-8,12.54-5.94a132.47,132.47,0,0,0,14.79,3.91c17.08,3.46,33.26,10.95,51.16,10.94,40.93,0,81.87-.1,122.8.52,31.61.48,53.22-14.06,66.87-41.75,4.83-9.81,9.46-19.71,14.17-29.57,10.51-23.39,20.85-46.87,32.52-69.73,7.88-19,16.82-37.56,26-56,5.93-15.48,8.08-17,24.53-17,29.17,0,58.33-.33,87.48.23,10.7.2,20.19-.71,27.08-9.9,8.46-8.71,16.74-17.63,25.5-26a15.77,15.77,0,0,0,5.31-12.79V511C1690.42,499.67,1680.55,490.6,1680.55,490.6ZM298.44,634.88c0,11.52,0,11.52-11.69,10.79-7.64,1.74-13.34-.92-18.59-6.72-7.17-7.91-15-15.22-22.83-22.51a11.12,11.12,0,0,1-4-8.83c.1-30.62-.08-61.24.19-91.85.15-15.25,6.84-21.65,22-21.9,8.25-.13,16.52.09,24.77.17,10.27-.7,10.24-.7,10.24,9.09Q298.43,569,298.44,634.88Zm31.34-66.28h-.11c0,23.83-.17,47.67.13,71.51.08,5.09-1.63,5.95-6.17,5.92-13.59-.11-13.54.08-13.54-13.69,0-43.79.07-87.59-.09-131.37,0-5.15.44-8.69,6.86-7.22,4.22.95,9.62-3.69,12.24,0,2.07,3,.66,8.42.66,12.77Q329.81,537.58,329.78,568.6Zm962.15-312.38c37.49,9.26,75.18,17.62,112.25,28.63,45,13.37,89,29.46,133.06,45.56,16.91,6.17,33.71,28.09,33.77,43.43.58,3.14-.94,4.05-3.67,2.92-13.93-5.74-27.85-11.51-41.67-17.47a13,13,0,0,1-4.86-4.26c-10.38-14.13-24.8-22.23-40.87-28.07-59.49-21.59-120.68-37.29-182-52.55-11-2.75-12.28-4.23-12.2-13.63C1285.8,255.93,1287.37,255.09,1291.93,256.22ZM746.26,234.9c19.33-2.23,38.63-4.84,58-6.62,36.59-3.39,73.17-7.05,113.65-7.9,9.2,0,22.12.18,35-.11l12.85,0c13.86.22,27.73.09,40.1.09,43.84,1.44,86,4.77,128,9.86,12.78,1.56,25.57,3.18,38.41,4,6,.39,6,3,4.81,7.39-2.33,8.41-5.32,10.75-14.16,9.63-45.86-5.86-91.79-10.76-138-12.35-19-.65-38-.85-56.93-.79L946.14,238a1284.74,1284.74,0,0,0-181.2,12.75c-2.65.38-5.35.4-8,.64-10,.86-14-2.68-15.13-12.74C741.35,234.56,743.92,235.17,746.26,234.9ZM376.82,333.47c11.91-5.44,24.5-9.37,36.75-14a1477.77,1477.77,0,0,1,147.85-47c21.13-5.6,42.49-10.34,63.81-15.21,2.51-.56,6.8-4.11,7.88.76s3.07,11.23-3.72,14a118.39,118.39,0,0,1-16.7,5.09c-59.25,14.66-118.16,30.44-175.62,51.23-15.42,5.58-29.12,13.45-38.42,27.54a10.51,10.51,0,0,1-4.14,4c-15.16,6.35-30.42,12.47-45.81,18.72C347.24,363.52,361.08,340.67,376.82,333.47ZM729.1,844c-14.29,3.93-28.63,7.66-42.92,11.58a102.46,102.46,0,0,1-27.32,4.13q-61.75,0-123.52.29c-22.37.13-38.64-9.84-49.55-29a269.18,269.18,0,0,1-14.86-31.6c-6-12.69-12.08-25.35-18-38.08-14.48-31-29.3-61.88-43.16-93.17-6.9-15.59-16.64-24.7-34.62-22.27-3.57.48-7.27-.1-10.91-.19-5.84.1-11.7-.14-17.5.41-5.34.5-5.77-2.09-5.73-6.38.22-19.22.18-38.45.19-57.66q0-44.16-.05-88.32a35.42,35.42,0,0,1,3.37-16.21,39,39,0,0,0,3.77-17.64c-.09-20.44.22-40.88-.18-61.3-.12-5.93,1.82-8.48,7.32-10.42C367,384,378.32,379.05,390,374.36c-5.09,35.8-.86,71.33-2.81,106.69q0,34.9.07,69.79c-.33,17.8.84,35.4,6,52.57q29.32,63.84,58.63,127.7c10.39,22.7,20.62,45.47,30.92,68.21,5.57,9.91,10,20.42,17.5,29.27C511.59,842,526,849.74,543.2,850.5c37.47,1.66,75,1.89,112.48,0,20.09-1.05,38.78-8.74,58-13.78,4.22-1.1,8.43-2.29,12.66-3.39,4.48-1.16,6.58.87,7.89,5.14C735.91,843.81,731.75,843.22,729.1,844Zm340.72-21.84c-31.22-3.27-62.53-5.15-93.91-6.05-2.91-.08-5.84-.12-8.75-.31l-14.49.18c-34.56.83-69.07,2.55-103.44,6.37-2,.21-4.24.75-4.44-2.1-.23-3.14-.16-6.31,3.58-8,4.62-2,9.58-1.69,14.35-2.19,29.79-3,59.68-4.43,89.62-4.88l15.44,0c9,.25,18,.08,27,.08,23.4.74,46.61,3.09,69.82,5.68,3.86.43,8.66-.06,10,5.38C1075.51,820.3,1075.4,822.71,1069.82,822.11Zm104.5,12.82c-1.14,3.7-2.49,7.54-2.52,11.32-.07,6.9-3.81,6.65-8.65,5.56-24.19-5.45-48.53-10.07-73.1-13.39-4.67-.64-6.81-1.53-5.12-7.16,2.9-9.61,3-19.24-4.32-27.46-8.87-5.86-19.27-4.54-29-6.21-22.59-1.48-45.16-3.42-67.83-3.41H946.55a803.51,803.51,0,0,0-93.17,5.23,36.14,36.14,0,0,0-14.44,4.52c-6.5,7.63-6.83,16.3-4.18,25.42,1.56,5.41.4,8.34-5.94,9.18-24.35,3.24-48.44,8-72.42,13.37-5.83,1.3-8.11,0-8.76-6.11-2.22-20.41-8.67-28.83-32.81-21.49-17.18,5.22-34.3,10.88-52.13,13.67a61.16,61.16,0,0,1-7.25.82c-35.54,1.14-71.09,1-106.65.39-21.22-.34-36.53-10.39-46.82-28.44-3.1-5.44-5.19-11.46-7.75-17.22-10.25-19.5-18.86-39.77-28-59.77l-8.52-18.89C441,680,424.46,645.06,409.11,609.57c-9.95-18.48-10.84-38.45-9.75-58.77q-.87-35.09,0-70.18c0-29.46-.69-58.94.16-88.38.74-25.77,14.26-43.12,38.64-52.06,60.34-22.12,122.38-38.35,184.63-53.84,21.27-5.31,25.87-12,21.38-33.2-2.25-10.67-2.27-10.75,8.8-12.71,23.46-4.16,46.94-8.17,70.4-12.36,3.53-.63,5.12,0,5.81,4,1.2,6.89,1.78,14,5,20.43,4.14,8.22,11.11,12.37,20.24,11,85.8-12.44,172.08-16,258.66-13.54a1250.53,1250.53,0,0,1,128.79,10.52q10.85,1.46,21.73,2.64c12.3,1.33,20.06-3.6,23.74-15.49a94.07,94.07,0,0,0,3.24-15.68c.52-4,2.3-4.64,5.87-4,25.13,4.41,50.26,8.78,75.44,12.91,5,.81,5.61,3,4.64,7.41-1.44,6.56-3.12,13-1.74,20.08,1.86,9.43,7.27,14.22,16.2,16.39,42.26,10.23,84.38,21.05,126,33.55,21.14,6.36,42,13.86,62.82,21.12,26.11,9.1,40.11,27.58,40.53,55.29.44,28.73,0,57.47,0,86.19q1,34.83,0,69.63c1.24,20-.29,39.58-9.08,58q-16.9,36.5-33.82,73c-7,16.8-14.58,33.29-22.75,49.53q-17,36.87-34,73.74c-7.58,16.49-19.16,28.43-37.39,32.72a36.53,36.53,0,0,1-7.16,1.18c-35,1.33-70.09.88-105.15.62-20.33-.15-38.83-8.32-58.11-13-5.43-1.34-10.74-3.12-16.19-4.37C1185.69,819.39,1177.64,824.08,1174.32,834.93Zm403.75-228.57c.12,11.91.08,23.82.43,35.73.12,4.28-2.32,3.9-5.1,3.88-10.71-.06-21.45.33-32.14-.14-14.94-.67-24.17,6.68-30.14,19.62q-30,65.16-60.23,130.26c-1.32,2.83-2.82,5.57-4.24,8.34-5.28,12.52-10.45,25.08-18.94,35.94-9.76,12.47-22.54,19.44-38.24,19.52-45,.25-90.08.54-135.1-.43-18.47-.4-35.84-8.35-53.76-12.65-3.54-.86-7-1.85-10.58-2.68-2.57-.61-5.8-.49-4.84-4.62.76-3.25,2.21-6.32,6.14-6a70.18,70.18,0,0,1,10.65,2.2c22.13,5.34,43.3,15.16,66.47,15.6,36.26.69,72.57,2,108.76-.68,25.23-1.89,42.35-16.64,53.54-38.73,3.82-7.56,7.45-15.21,11.19-22.82,11-24.26,22-48.57,33.09-72.78q24-52.32,48.32-104.5c1.21-2.62,2.26-5.31,3.39-8,4.42-17.27,6-34.87,6-52.65l0-70.17q-.23-33.56-.43-67.12c-.06-12.84.44-25.71-3.52-39.89,8.14,3.29,15.06,5.74,21.67,8.85s16.63,3,19.73,9.31c3,6.1.85,14.76.88,22.29.05,12.41.11,24.82,0,37.22a92.9,92.9,0,0,0,2.82,24.52c2.4,3.1,4.14,6.55,4.2,10.49.34,21.51.84,43,0,64.5C1578.75,569.32,1578.69,587.84,1578.07,606.36ZM1610,642c0,2.11-.13,4-2.93,3.94-4.87,0-9.74,0-14.61,0-3.06,0-2.58-2.26-2.56-4.15q.2-17.51.42-35,0-28.75,0-57.52c-.12-17.95-.17-35.88-.42-53.83,0-3,1-3.92,3.76-3.15a27,27,0,0,1,3.51.91c4.12,1.77,10.29-2.13,12.47,2.46,1.79,3.75.38,9,.36,13.65q-.08,20.71-.17,41.43l-.15,54.07Q1609.79,623.44,1610,642Zm68.46-34a10.07,10.07,0,0,1-3.52,7.72c-3.91,3.62-7.78,7.32-11.66,11-5.2,5.32-10.54,10.51-15.54,16-3.46,3.81-7.82,3.16-12.07,3.21-4.09.05-8.17-.14-12.27-.23-1.07.17-1.75-.13-1.6-1.38a217.74,217.74,0,0,1,.1-30.65c-.66-22.41-.82-44.84,0-67.27a259.65,259.65,0,0,1,0-33.59c0-2,0-3.92,0-5.88-1.26-13.19-1.26-13.26,12-13.19,8.74.05,17.49.32,26.22.48,12.24,1.86,17,6.14,17.76,18.13C1679.78,544.21,1678.35,576.12,1678.43,608Z"/><path class="cls-1" d="M1520.37,480.91c.05-28.72.48-57.46,0-86.19-.42-27.71-14.42-46.19-40.53-55.29-20.87-7.26-41.68-14.76-62.82-21.12-41.64-12.5-83.76-23.32-126-33.55-8.93-2.17-14.34-7-16.2-16.39-1.38-7.07.3-13.52,1.74-20.08,1-4.4.34-6.6-4.64-7.41-25.18-4.13-50.31-8.5-75.44-12.91-3.57-.63-5.35,0-5.87,4a94.07,94.07,0,0,1-3.24,15.68c-3.68,11.89-11.44,16.82-23.74,15.49q-10.87-1.17-21.73-2.64A1250.53,1250.53,0,0,0,1013.13,250c-86.58-2.5-172.86,1.1-258.66,13.54-9.13,1.32-16.1-2.83-20.24-11-3.24-6.45-3.82-13.54-5-20.43-.69-4-2.28-4.61-5.81-4-23.46,4.19-46.94,8.2-70.4,12.36-11.07,2-11,2-8.8,12.71,4.49,21.16-.11,27.89-21.38,33.2-62.25,15.49-124.29,31.72-184.63,53.84-24.38,8.94-37.9,26.29-38.64,52.06-.85,29.44-.17,58.92-.16,88.38q-.87,35.1,0,70.18c-1.09,20.32-.2,40.29,9.75,58.77C424.46,645.06,441,680,457.67,714.87l8.52,18.89c9.18,20,17.79,40.27,28,59.77,2.56,5.76,4.65,11.78,7.75,17.22,10.29,18,25.6,28.1,46.82,28.44,35.56.56,71.11.75,106.65-.39a61.16,61.16,0,0,0,7.25-.82c17.83-2.79,34.95-8.45,52.13-13.67,24.14-7.34,30.59,1.08,32.81,21.49.65,6.06,2.93,7.41,8.76,6.11,24-5.34,48.07-10.13,72.42-13.37,6.34-.84,7.5-3.77,5.94-9.18-2.65-9.12-2.32-17.79,4.18-25.42a36.14,36.14,0,0,1,14.44-4.52,803.51,803.51,0,0,1,93.17-5.23h37.18c22.67,0,45.24,1.93,67.83,3.41,9.78,1.67,20.18.35,29,6.21,7.31,8.22,7.22,17.85,4.32,27.46-1.69,5.63.45,6.52,5.12,7.16,24.57,3.32,48.91,7.94,73.1,13.39,4.84,1.09,8.58,1.34,8.65-5.56,0-3.78,1.38-7.62,2.52-11.32,3.32-10.85,11.37-15.54,22.4-13,5.45,1.25,10.76,3,16.19,4.37,19.28,4.72,37.78,12.89,58.11,13,35.06.26,70.12.71,105.15-.62a36.53,36.53,0,0,0,7.16-1.18c18.23-4.29,29.81-16.23,37.39-32.72q17-36.87,34-73.74c8.17-16.24,15.8-32.73,22.75-49.53q16.9-36.49,33.82-73c8.79-18.44,10.32-38,9.08-58Q1521.36,515.73,1520.37,480.91ZM968.23,444.64a40.89,40.89,0,0,1-20-.84,38.39,38.39,0,0,1-27.15-37.18c.07-17.64,10.72-31.89,27.56-36.89,0,0,12.55-1.82,21.35-.26,17.92,4.83,29.09,20,28.79,38.21C998.52,425.29,986.46,440.22,968.23,444.64Z"/><path class="cls-2" d="M970,369.47c-8.8-1.56-21.35.26-21.35.26-16.84,5-27.49,19.25-27.56,36.89a38.39,38.39,0,0,0,27.15,37.18,40.89,40.89,0,0,0,20,.84c18.23-4.42,30.29-19.35,30.58-37C999.11,389.45,987.94,374.3,970,369.47Zm-4.21,64.22c-8.61,2.27-16.94-1.88-16.94-1.88-12-5.39-18.93-19.07-15.76-31.17,3.63-13.82,15.95-22.43,30-21,12.59,1.28,23,12.24,24,25.38C988.22,417.6,978.42,430.6,965.81,433.69Z"/><path d="M798.38,557.52v111H778.56V597.81l-19.51,14.91-16.18,12.53-16.18-12.53-19.51-14.91v70.74H687.35v-111l19.83,15.23,35.69,27.44,35.69-27.44Z"/><path d="M852.31,594.48V670H832.48V592.42A15.8,15.8,0,0,0,819,578.94h-4.45V559.27h4.29v.16a35.35,35.35,0,0,1,29.5,19.82,42.36,42.36,0,0,1,2.7,7.46,33.47,33.47,0,0,1,1,8.09Z"/><path d="M978.4,649v19.83H867.69V636.2a31.66,31.66,0,0,1,2.69-12.85,32.6,32.6,0,0,1,28.87-20h48.06a13,13,0,0,0-1.11-25.85H868V557.68H946.2a32.63,32.63,0,0,1,32.68,32.68A32.45,32.45,0,0,1,969.52,613a32.94,32.94,0,0,1-22.37,10h-47.9a12.92,12.92,0,0,0-11.58,12.85v12.85Z"/><path d="M1105.29,649v19.83H994.57V636.2a31.67,31.67,0,0,1,2.7-12.85,32.59,32.59,0,0,1,28.87-20h48.06a13,13,0,0,0-1.11-25.85h-78.2V557.68h78.2a32.63,32.63,0,0,1,32.67,32.68,31.61,31.61,0,0,1-2.69,12.84,31.94,31.94,0,0,1-6.66,9.84A33,33,0,0,1,1074,623h-47.9a12.92,12.92,0,0,0-11.58,12.85v12.85Z"/><path d="M1232.49,591.15a32.67,32.67,0,0,1-9.2,22.84,32.76,32.76,0,0,1-23.48,55.52h-78.19V649.68h78.19a13.07,13.07,0,0,0,13-13,12.9,12.9,0,0,0-12.21-13h-59V603.84h59a13,13,0,0,0-.64-26h-78.19V558H1200a32.63,32.63,0,0,1,32.68,32.67Z"/></g></g></svg>