<svg xmlns="http://www.w3.org/2000/svg" viewBox="0 0 1920 1080"><defs><style>.cls-1{fill:#010101;}.cls-2{fill:#f2f2f2;}</style></defs><g id="Capa_2" data-name="Capa 2"><g id="Capa_1-2" data-name="Capa 1"><path class="cls-1" d="M997.07,255.49a86.38,86.38,0,0,0-8.77-.94c-19.27-.44-38.54-1-57.82-.2l-2.93.13c-3.38.16-7.24.38-7.12,4.79.14,5.51,4.82,2.58,7.53,3.15,1.56.32,3.28-.26,4.89-.09l49.2-.22q4.89.36,9.8.41a25.64,25.64,0,0,0,5.81-.49c1.74-.4,2.53-1.89,2.56-3.69C1000.28,256.16,998.73,255.71,997.07,255.49Zm0,0a86.38,86.38,0,0,0-8.77-.94c-19.27-.44-38.54-1-57.82-.2l-2.93.13c-3.38.16-7.24.38-7.12,4.79.14,5.51,4.82,2.58,7.53,3.15,1.56.32,3.28-.26,4.89-.09l49.2-.22q4.89.36,9.8.41a25.64,25.64,0,0,0,5.81-.49c1.74-.4,2.53-1.89,2.56-3.69C1000.28,256.16,998.73,255.71,997.07,255.49Zm-58.85,456c-8.47.13-16.94.08-25.4.26-3.46.07-7.24-.61-9.76,2.83,0,2.36,1.28,3.77,3.53,3.78,13,.06,26.08,0,39.12,0,3.57,0,4.35-2.26,4.3-5.15C950,711,938.22,711.49,938.22,711.49Zm78.12,1.39c-10.56-2.66-21.29-.47-31.92-1.12H970.28c-.63,6.82,3.42,7,8.55,6.84,10.75-.35,21.54-.75,32.25.48C1016.6,719.72,1017.1,717.07,1016.34,712.88Zm-78.12-1.39c-8.47.13-16.94.08-25.4.26-3.46.07-7.24-.61-9.76,2.83,0,2.36,1.28,3.77,3.53,3.78,13,.06,26.08,0,39.12,0,3.57,0,4.35-2.26,4.3-5.15C950,711,938.22,711.49,938.22,711.49Zm78.12,1.39c-10.56-2.66-21.29-.47-31.92-1.12H970.28c-.63,6.82,3.42,7,8.55,6.84,10.75-.35,21.54-.75,32.25.48C1016.6,719.72,1017.1,717.07,1016.34,712.88Zm789.9-97.53c-.26-9.78-.38-19.57-.56-29.35,0-5.29-5-9-5-9-6.37-3.79-13.55-2.67-20.21-4.42a7.14,7.14,0,0,1-6-.09c-1.4,1.25-3,1.12-4.68.71l-4.19.83a15.72,15.72,0,0,1-7.22,3.75c2.13-2.28,3.73-4,5.34-5.71.07-8.49.22-17,.23-25.47,0-32.7-.09-65.39.17-98.08.07-8.47-3.44-14.6-10.27-18.71-4.24-2.54-9.48-2.32-14.37-2.35-17.65-.12-35.31,0-53-.1-47.49-.24-32.58,3.77-76-19-65.56-34.4-131.19-68.51-200.84-94.28-64.7-23.94-130.71-42.73-198.78-54.22-32.85-5.55-65.82-10.15-98.9-14.12q-48.18-5.77-96.58-9.15c-25.22-1.93-69.87-1.78-69.87-1.78-46.22,0-141.48,11.4-141.48,11.4C676.4,259.5,553.73,290.73,437,344.28c-49.85,22.87-98.21,48.62-146.64,74.27-11,5.81-22,9.22-34.49,9-22.55-.45-45.12-.18-67.69-.1a148.87,148.87,0,0,0-15.66.77c-8.42.92-14.32,6.42-15.94,14.82a68.05,68.05,0,0,0-1.33,12.64q-.15,57.87-.08,115.73l6.7,6c-4.1.32-5.66-1.34-7.09-3.31-11.61-1-23.23-2.29-34.94,2.55-3.64,1.33-6,9.21-6,9.21V613c-.25,10.92,2.92,19.79,11.27,26.81a15,15,0,0,1,2.07,2.07c9.38,11.34,20.94,16.8,36,14.89,7.71-1,15.65-.43,23.46-.19,8,.23,14-2.51,17.42-9.94,3.48-5.79,6.7-11.76,10.51-17.33,4.38-6.39,7.42-6.41,11.83-.4a55.51,55.51,0,0,0,12.94,13.19c1.4,1,2.62,1.9,2.09,3.86a31.58,31.58,0,0,1,11.19,2.88c43.86,18.54,86.56,39.56,129.65,59.74a36,36,0,0,1,14.13,11.76c4.77,6.6,9.69,13.07,14.55,19.57-2.19,4.73-6.11,7.81-9.42,11.37-2.94,3.18-5.52,6.44-5.16,11.1,8.35,14.07,18.64,26.83,27.82,40.34a43.24,43.24,0,0,1,3.71,6.49,2,2,0,0,1,1.61.61,12.86,12.86,0,0,0,7.51-1.35,59.31,59.31,0,0,1,8.84-3.7c10.13-3.73,10-3.63,15.83,4.87,4.16,6.09,8.67,12,13,18,3.69,5.15,9.28,8,14.06,12.28,7.15,4.19,25.16,4.94,25.16,4.94L553,845a57.27,57.27,0,0,0,21.22-7c7-4.08,14.42-7.6,21.65-11.37,94.59-49.55,194.88-79.08,301.62-86.24,18.27-1.23,36.53-2.1,54.84-2.4l12.91.07c2.28.11,4.58,0,6.87.06a849.81,849.81,0,0,1,90.87,6.42c48.07,5.84,95.32,15.3,141.23,30.89a875.76,875.76,0,0,1,135.06,59.33c7.47,4,14.86,8.78,23.47,9.38,17,1.21,34,1.76,50.89-.51,15.81-2.12,27.21-11.55,36.45-24.21,22.92-31.39,46.2-62.53,69.12-93.92A56.81,56.81,0,0,1,1541.38,707c39.74-18.94,79.54-37.72,119.77-55.55,12.72-5.64,24.69-11.56,33.13-23.29,4-5.54,6.74-5.19,10.55.42,4.21,6.19,7.88,12.77,11.61,19.27,3.41,6,8.39,8.84,15.27,8.75,7.52-.11,15,.1,22.55,0,23.33-.26,20.51,2.95,41.1-17.15.46-.46.87-1,1.36-1.4C1803.52,632,1806.49,624.38,1806.24,615.35Zm-1585-11.19c0,3.44-.63,5.5-4.77,5.46-6.58,0-10.79,4.19-14.09,9.22q-5.34,8.17-10,16.79c-2.07,3.81-4.57,5.78-9.19,5.58-9.45-.39-18.92-.36-28.38-.25-4.21,0-7.35-1.45-10.44-4.27-15.44-14.12-16.86-17.8-14.59-40.34.66-6.64.79-6.58,7.67-7.25,6.05-.58,11.44,1,17,3.18,12.36,4.88,24.79-4.64,23.2-17.38-.16-1.28-.21-2.9-1-3.74-8.42-9-5.3-20.16-5.66-30.61-.2-5.84.16-11.71.27-17.56-1.13-24.31-.26-48.63-.3-72.95,0-2.14-.44-4.69,2.34-5.81,3.24-2.16,6.92-1.41,10.43-1.45,10.71-.12,21.44-.09,32.17,0,1.74,0,4-.85,4.72,1.92.9,26.11.8,52.23.28,78.33C221,550.05,221,577.11,221.19,604.16Zm76.07-171.83c46.32-24.74,92.76-49.28,140.47-71.27,33.17-15.28,67-28.81,101.51-40.93,56.44-19.86,114-35.32,173-45.17,48-8,96.26-14.26,144.71-19,30.58-3,61.22-5.2,91.91-6.42,27.13-1.08,54.21,1,81.21,3.42,30.58,2.71,61.15,5.69,91.63,9.41,28.83,3.52,57.53,8.09,86.21,12.79a970.57,970.57,0,0,1,131.3,31.17,1161.85,1161.85,0,0,1,151,58.5c44.56,21,88,44.11,131.58,67.12,5.72,3,11.62,5.7,17.23,8.44.32,2.59-1.78,2.77-2.78,3.83-3.54,3.81-6.84,4.25-10.3-.38-1.73-2.3-4.23-4.05-6.49-5.91-1.23-1-2.83-2.08-4.36-.84s-.65,3,0,4.44c1.74,3.45,5.32,5.68,6.79,10.07-9.2,2.58-17.14.23-24.76-4.54-18.53-11.61-37.42-22.62-56.84-32.67-9.27-4.79-18.7-9.25-28-13.87-8.46-4.17-8.45-4.18-5.65-14.88,12.37,5.59,24,13.27,37.83,14.86.71-3.21-.45-4-1.42-4.66a138.16,138.16,0,0,0-38.74-18.29c-3.81-1.15-5.51-.54-5.9,3.49-.38,3.84-1,7.66-1.61,11.8-18-7.93-35.49-15.88-53.17-23.34-73.78-31.2-149.89-55-228.7-69.45-38.86-7.14-78.15-11.56-117.58-14.61-37.17-2.87-74.4-4.11-111.65-5.31H936.84c-14,.42-28.1.69-42.15,1.16-40.84,1.38-81.59,4.05-122.19,8.69a1015.68,1015.68,0,0,0-180.75,37.72,1208.3,1208.3,0,0,0-165.82,64c-.86.4-1.8.62-3.84,1.33-.17-2-.34-3.27-.36-4.55-.23-13-.21-12.95-12.3-8.83a156,156,0,0,0-26.71,12.05,33.05,33.05,0,0,0-5.46,4.06,3,3,0,0,0-.56,3.62c.76,1.48,2.12,1,3.35.55,4.25-1.64,8.57-3.12,12.74-5,7.09-3.11,14.08-6.44,21.28-9.74,1.79,10.29,1.89,10.48-5.87,14.54-17,8.92-34.51,17.06-51.12,26.83-11.25,6.61-22.76,12.83-33.69,19.93-7.86,5.09-15.89,7.26-25.4,5.54.34-6.34,8.79-8.65,8.19-16.16-5,.09-7.88,3.12-10.78,6-7.1,7.05-7.1,7.05-15.11-.62C285.52,437.37,291.67,435.32,297.26,432.33Zm1349,131.14c.51,42.61-28.6,70.08-63.62,76.37a70.34,70.34,0,0,1-11.69.92c-19,.16-37.92.2-56.89.23-8.69,0-8.69,0-9.11-9-.05-1-.08-2-.11-2.93a7.47,7.47,0,0,0-6.41-1.4c-1.29,4.28,1.19,10.26-2.63,12.74-3,2-8.19.75-12.4.75-17.65,0-35.32.35-53-.21-22.48-.72-39.61,8-52.56,26.36-12.41,17.62-26,34.39-38.48,52-8.71,12.35-19.88,17.82-34.93,17.58-27.78-.44-55.58-.13-83.36,0a114.62,114.62,0,0,1-33.71-5.29c-44.5-13.39-90-21.41-136.24-26.27-21.81-2.3-43.63-3.58-65.51-4.55H932.11c-14.35.78-28.72,1.07-43.05,2.34-17.9,1.58-35.72,3.57-53.5,6.1-2.57.36-5.21.27-7.82.4a3.24,3.24,0,0,1-3.46.84c-34.62,6-68.89,13.5-102.56,23.64-6.46,1.94-13.28,3.24-20.18,1.67-2,1.49-4.34,1.1-6.57,1.1q-39.87.06-79.74,0c-2.23,0-4.57.45-6.58-1-8.44,1.1-15.21-2.2-20.89-8.08a70,70,0,0,1-10.45-14.06c-10.71-12.3-19.63-26-29.72-38.75-1.41-1.79-2.78-3.63-4.06-5.51-13.59-20-32.25-29.42-56.58-28.5-18.57.69-37.2.31-55.8.34-8.54,0-8.7,0-9.52-8.56-.47-4.88-2.19-6.71-6.84-4-.21,3.88-.4,7.78-.62,11.85a31.54,31.54,0,0,1-4.2.59c-21.25-.07-42.5.25-63.73-.36-39.43-1.11-70.47-31.67-71.93-71.17-1-28.4-1.06-56.84-1.3-85.25-.06-6.29,0-12.83,4.43-18,1,.34,1.58.4,1.6.54.43,3.1-.46,7.56,3.72,8,4,.36,4.58-4.25,5.45-7.09,1.86-6.07,5.5-8.1,11.61-7.37,4.19.49,8.52-.23,12.73.18,13.95,1.31,26.11-3,38.06-9.95,18.31-10.65,37.15-20.37,55.82-30.39,3.65-2,7.64-6,10.23,1.73.82,2.42,4.68.84,4.67-3,0-5.55,2.76-7.74,7.35-9.89,79.87-37.48,162.47-67.39,248.08-88.73,40.26-10,81.35-15.79,122.53-20.51,43.48-5,87.07-9,130.85-10.36l52.92-.3c8.49.44,17,.25,25.48.76q78.76,4.78,156.91,15.76c60.32,8.39,118.85,24.07,176.44,43.54a1488.28,1488.28,0,0,1,144.42,57.4c6.25,2.88,13.1,5,12.68,14a2.41,2.41,0,0,0,2.58,2.41c1.37,0,2.2-1.12,2.6-2.5.34-1.19.84-2.32,1.54-4.22,11.61,6.11,22.88,11.91,34,17.92,12.06,6.51,24.08,13.09,36,19.89,7.85,4.48,15.93,7.14,25.15,6.49,7.16-.51,14.38,0,21.57-.21,4.06-.16,7.12.49,8,5.06a5.86,5.86,0,0,0,.78,1.8c1.78,2.94,1.88,8.28,6.1,8,4.91-.37,1.53-6.25,4.08-9.06,4.61,3.21,4.71,8.23,4.77,13,.16,13.41.09,26.81.1,40.2C1646.22,534.05,1646.06,548.76,1646.23,563.47ZM1058.58,714.06c-4.7,1.19-4.7,1.19-11.8,0A23.25,23.25,0,0,1,1058.58,714.06ZM337,448.27c21.39-15.12,44.41-27.25,68.49-37.48Zm1170.57-41a804.19,804.19,0,0,1,77,41.23C1558.64,435.22,1532.6,422.13,1507.55,407.22ZM450.06,756.14c1.77,3.48,3.31,7.1,5.27,10.47,3.6,6.17,7.45,12.21,11.57,18.91-10,4.8-19.64,9.39-29.24,14.14-3.14,1.54-4.73,0-6.38-2.35q-12-17.29-24.15-34.48c-2.17-3.05-1.32-5.24,1-7.68,7-7.26,13.85-14.65,20.76-22,3.4.26,3.35,3.76,5.27,5.29,2.39,1.9,4.9,1.69,7.21,0,2-1.46,1.42-3.4.45-5.24-1.21-2.3-2.4-4.61-3.69-6.87-1.88-3.29.54-4.74,2.62-6.32s3.54-.29,4.73,1.42l38.36,55.51c-8.13,5.3-8.09,5.27-13-1.61q-6.53-9.18-13.24-18.21a20.07,20.07,0,0,0-4.2-4,3.13,3.13,0,0,0-2.76-.25C449.33,753.5,449.39,754.82,450.06,756.14Zm41.52,8.51c1.47,2.12,2.75,4.38,4,6.48a6.11,6.11,0,0,1-.86,1.91c-.7.66-1.61,1.18-2.5.18a44.41,44.41,0,0,1-3.15-3.71q-18.06-25.62-36.05-51.28a15.52,15.52,0,0,1-1.57-2.49c-1-2.25-3.89-5.12-.94-6.84s4,2.29,5.32,4.22Q473.81,738.83,491.58,764.65Zm-30.61-67c4.8-4.88,9.16-10.21,14.16-14.89,8.81-8.24,19.12-10.61,30.79-6.88,6,2,11.79,5.82,18.74,2.86,2-.86,3.46,1.34,4.59,2.94,6.94,9.86,13.82,19.77,20.84,29.58,2.19,3.05,2.83,5.77-.27,8.51-2.67,2.38-3.12,5.4-3.18,8.85-.19,12.83-5.84,22.43-17.56,28.15-7.88,3.83-15.79,7.62-24.29,11.72-15-21.25-29.38-41.8-43.9-62.25C458.7,703.17,458.05,700.64,461,697.66Zm1223.72-83.9c-1.23.29-2.29,2.27-3,3.69-4.11,8.52-11.4,13-19.78,16.55-41.51,17.41-81.84,37.42-122.9,55.85-13.9,6.23-25.12,14.84-33.24,27.72-2.23,3.54-4.45,7.25-7.87,9.92a8.19,8.19,0,0,1-3.42,4.62,20,20,0,0,1-5.88,7.87c-5.5,8.34-11,16.66-17.5,24.32-6.88,11.13-15.06,21.3-23.37,31.37-4.13,5.82-8.16,11.7-12.38,17.44-6.5,8.86-15.39,14.62-26.19,15.21-18.1,1-36.27,2.86-54.23-2.75-9-2.81-15.77-8.35-22.82-13.86l-.1-.08a1.74,1.74,0,0,0,.1.16c-3.33,1.05-5.45-1.61-8-2.76-16.21-7.4-32.7-14.33-48.78-21.85-19.41-9.08-39.18-17-59.23-24.15-36.27-12.95-73.69-21.62-111.64-28.33A790.6,790.6,0,0,0,1012.19,724a920.86,920.86,0,0,0-109.7.11c-25.73,1.58-51.34,4.66-76.83,8.58a51.51,51.51,0,0,1-5.85.28c-5.56,2.77-11.8,2.23-17.66,3.58a694.07,694.07,0,0,0-77.56,19.3c-32.25,10.19-63.56,22.91-94.33,37-19.83,9.08-39.69,18-58.51,29.15a49.44,49.44,0,0,1-28.9,7.16c-9.76-.6-19.59.14-29.34-.57-30.38-2-42.51-34.13-42.51-34.13,9.21-5.9,19.07-10.06,28.7-14.58s19.47-9,29.25-13.31c15.6-6.91,25.1-18.17,25.7-35.77.1-3.15.85-6,3.62-7.51,5.49-3,4.39-7.15,2.46-11.58-9.52-12.86-19.36-25.49-27.18-39.52l-.27.09a2.09,2.09,0,0,0,.05-.21c-3.27-.6-5.71-4.21-9.58-2.62-4.08,3.56-7.89,1-11.8-.49-13.35-5-26.21-4.6-38.17,3.88-4.55,3.23-8.16,7.5-11.81,11.68-9.65,11-19.27,22.09-29.79,32.53-8.39-7-10.95-16.59-12.4-27.4-6.72,7.92-7.67,17.56-3.42,24.32,2.68,4.25,7,7.7,7.28,13.69-2.66.38-3.52-1.31-4.53-2.76-2.07-2.94-4.3-5.76-6.21-8.8-7.38-11.76-17.95-19.22-30.54-24.92-42.71-19.37-84.67-40.38-127.82-58.81a31.45,31.45,0,0,1-14.84-12.26c-.88-1.38-1.61-3.23-2.9-3.88-8.89-4.46-7.81-12.49-7.68-20.28.18-10.45.25-20.89.37-31.33a338.67,338.67,0,0,1-.14-41.54c-.08-24.84-.06-49.67-.37-74.5-.07-5.06,2-5.95,6.4-5.78a199.55,199.55,0,0,0,22.55-.09c7.68-.58,14.14,1.1,19.48,6.78,1.3,1.4,3.06,2.37,5.33,4.09-15.14,7-18.11,19.45-17.87,34.17.42,25.16-.05,50.35,0,75.52,0,10.67.5,21.68,4.58,31.36,8.3,19.75,21.56,35.67,41.1,45.79,14.1,7.29,29.14,9.08,44.67,8.91,7.17-.08,14.36-.65,22.45.53-.37,2.79-.77,5.71,1.22,8.41,6,8.12,11.68,16.54,17.51,24.81a27.74,27.74,0,0,0,2.55,3c1.62,1.7,3.53,3.58,5.91,2.13,2.93-1.77,2-4.66.57-6.91-6.15-9.63-12.33-19.24-19.62-28.09-.53-.64-1.88-1-.6-3.12h28.4c1.45,5.84.88,12.07,1.3,18.22.13,1.89.31,4.1,2.93,4.31,3,.22,3.87-1.73,4-4.33.34-5.85-.54-11.76.68-17.57.77-2,2.53-1.63,4.07-1.62,22.08.05,44.17.09,66.25.24a30.66,30.66,0,0,1,5.68,1.06c13,.06,23.32,5.49,31,15.92,1.81,1.59,4.49,2.64,3.79,5.78l.18,0a.2.2,0,0,0,0,.08,1.91,1.91,0,0,1,2.19.84c8.81,12.26,18.86,23.62,26.86,36.48,4.6,5.9,9.46,11.62,13.76,17.72,8.89,12.66,21.39,17.49,36.27,17.53q34.27.09,68.52.11c11.43,0,22.84-.07,34.27-.05,2,0,4.82-1.19,3.63,3.2-1.14,4.17,1.86,5.28,5.21,4.36,11.61-3.18,23.21-6.45,34.7-10,4.58-1.42,4.48-2.42.36-9,6.69-2.7,13.79-3.62,20.62-5.35.24.33.57.59.59.85.51,7.63.49,7.58,8.09,6.54,2.57-.35,5.19-.37,7.79-.54a98.49,98.49,0,0,1,21.57-3.7c1.51-.58,3-1.08,4.53-1.75,2-.88,3.11-2.42,2.37-4.62-.63-1.88-2.45-1.81-4.06-1.85-2.25-.05-4.51-.07-6.78-.1-7.73,2.51-15.89,1.62-21,2.4-.58.15-1.13.26-1.64.34a16.27,16.27,0,0,1,1.64-.34c5.08-1.22,12.72-4.23,21-3.74a166.58,166.58,0,0,1,27.54-4.28c4.13-2.22,8.78-2.52,13.22-2.84,10.63-.78,21.08-3.6,31.84-2.71a11.93,11.93,0,0,1,6.19-.24c16.31-2.67,32.72-3.46,49.09-3.8l42.17.15c15.2.82,30.46.9,45.51,3.61h10.77c-3.91,2.28-7.62,2.63-6.82,6.52.72,3.51,3.62,3.12,6.14,3.43,11.29,1.42,22.56,2.91,33.87,4.23,2,.24,5,1.23,5.32-2.28.21-2.81-2.14-3.63-4.49-4.2a43.38,43.38,0,0,1-10.83-3.75,292.69,292.69,0,0,1,44.66,6.13c9.45-.86,18,3.48,27.11,4.91,3.15.5,7.15,0,9.89,2.71,5.53.77,11,1.76,16,4.31,14.79,1.84,28.79,6.66,42.8,11.42l89.24-.1c3.6,0,7.2-.28,10.78-.08,17.94,1,31.25-6.5,41.61-21,12.72-17.8,26.24-35,39.29-52.59,8.79-11.83,19.7-19.9,34.89-20.94a12.86,12.86,0,0,1,2,.18c2.7-1.47,5.7-1.27,8.58-1.29q31.21-.22,62.42-.25c1.51,0,3.34-.47,3.77,1.82,1.67,7.15-.74,14.71,2.23,21.73l5.86.14c1.07-7.21-.55-14.59,1.3-21.76.66-2.1,2.46-1.67,4-1.68q12.64-.07,25.29,0a1.57,1.57,0,0,1,.8.44c.53.44.31.8-.63,1.05-6.61,9.21-13.25,18.4-19.82,27.63a19.93,19.93,0,0,0-2.89,5.08c-.67,2,.64,3.88,2,5.24,2,2,3.86.12,4.94-1.17,3.55-4.26,6.82-8.76,10.11-13.22s6.37-9.11,9.79-13.48c2.42-3.07,3.5-6.16,1.62-10,4.19-2,8.47-1.2,12.59-1.31,7.52-.19,15-.17,22.56-.21,36.91-.2,74.8-32.56,77.23-77,1.22-22.5.49-45.1.62-67.65,0-7.86-.39-15.72,0-23.54.64-11.32-4.28-19.44-13.27-25.61-1-.66-2.56-.69-2.6-2.43,7.46-7.45,16-11.44,27-10.12,6.78.82,13.71.31,20.58.16,3.65-.08,5.58,1.09,5.29,5-.1,1.62,0,3.26,0,4.89q0,74.06,0,148.09C1691.3,606.34,1692.21,612,1684.69,613.76Zm105.87,2.44a11.86,11.86,0,0,1-3.17,8c-.44.49-.93.93-1.36,1.42-13.6,15.47-13.6,15.6-34.23,15.29-7.12-.1-15.42,2.71-21-1.27-5.15-3.65-7.6-11.12-11.13-17-4.53-7.49-9.29-14.54-20.75-12.7,0-17.09,0-33.09,0-49.09q0-54.92.15-109.84c0-8.08.14-8.17,7.83-8.21,11.12-.06,22.23-.05,33.35.09,7.74.09,7.9.19,7.93,8.38.1,27.46.06,54.92.08,82.38,0,6.86,0,13.73.08,20.59.09,5.24.1,10-3.8,14.59-4.35,5.15-2.58,14.18,2.42,19.78,4.5,5,11.71,7.19,17.79,3.66,6.51-3.77,13.14-3.17,20-3.18,3.21,0,4.57,1.34,5,4.55C1790.61,601.18,1790.56,608.69,1790.56,616.2ZM984.42,711.76H970.28c-.63,6.82,3.42,7,8.55,6.84,10.75-.35,21.54-.75,32.25.48,5.52.63,6-2,5.26-6.21C1005.78,710.22,995.05,712.41,984.42,711.76ZM928,262.42c1.56.32,3.28-.26,4.89-.09l49.2-.22q4.89.36,9.8.41a25.64,25.64,0,0,0,5.81-.49c1.74-.4,2.53-1.89,2.56-3.69.06-2.18-1.49-2.63-3.15-2.85a86.38,86.38,0,0,0-8.77-.94c-19.27-.44-38.54-1-57.82-.2l-2.93.13c-3.38.16-7.24.38-7.12,4.79C920.57,264.78,925.25,261.85,928,262.42Zm10.26,449.07c-8.47.13-16.94.08-25.4.26-3.46.07-7.24-.61-9.76,2.83,0,2.36,1.28,3.77,3.53,3.78,13,.06,26.08,0,39.12,0,3.57,0,4.35-2.26,4.3-5.15C950,711,938.22,711.49,938.22,711.49Z"/><path class="cls-2" d="M1646.22,519.33c0-13.39.06-26.79-.1-40.2-.06-4.81-.16-9.83-4.77-13-2.55,2.81.83,8.69-4.08,9.06-4.22.32-4.32-5-6.1-8a5.86,5.86,0,0,1-.78-1.8c-.83-4.57-3.89-5.22-8-5.06-7.19.26-14.41-.3-21.57.21-9.22.65-17.3-2-25.15-6.49-11.9-6.8-23.92-13.38-36-19.89-11.15-6-22.42-11.81-34-17.92-.7,1.9-1.2,3-1.54,4.22-.4,1.38-1.23,2.48-2.6,2.5a2.41,2.41,0,0,1-2.58-2.41c.42-8.94-6.43-11.1-12.68-14a1488.28,1488.28,0,0,0-144.42-57.4c-57.59-19.47-116.12-35.15-176.44-43.54q-78.15-10.87-156.91-15.76c-8.47-.51-17-.32-25.48-.76l-52.92.3c-43.78,1.36-87.37,5.38-130.85,10.36-41.18,4.72-82.27,10.47-122.53,20.51C591.15,341.62,508.55,371.53,428.68,409c-4.59,2.15-7.38,4.34-7.35,9.89,0,3.82-3.85,5.4-4.67,3-2.59-7.73-6.58-3.7-10.23-1.73-18.67,10-37.51,19.74-55.82,30.39-11.95,7-24.11,11.26-38.06,9.95-4.21-.41-8.54.31-12.73-.18-6.11-.73-9.75,1.3-11.61,7.37-.87,2.84-1.48,7.45-5.45,7.09-4.18-.4-3.29-4.86-3.72-8,0-.14-.56-.2-1.6-.54-4.4,5.15-4.49,11.69-4.43,18,.24,28.41.26,56.85,1.3,85.25,1.46,39.5,32.5,70.06,71.93,71.17,21.23.61,42.48.29,63.73.36a31.54,31.54,0,0,0,4.2-.59c.22-4.07.41-8,.62-11.85,4.65-2.7,6.37-.87,6.84,4,.82,8.52,1,8.58,9.52,8.56,18.6,0,37.23.35,55.8-.34,24.33-.92,43,8.53,56.58,28.5,1.28,1.88,2.65,3.72,4.06,5.51,10.09,12.78,19,26.45,29.72,38.75a70,70,0,0,0,10.45,14.06c5.68,5.88,12.45,9.18,20.89,8.08,2,1.48,4.35,1,6.58,1q39.87.06,79.74,0c2.23,0,4.57.39,6.57-1.1,6.9,1.57,13.72.27,20.18-1.67,33.67-10.14,67.94-17.6,102.56-23.64a3.24,3.24,0,0,0,3.46-.84c2.61-.13,5.25,0,7.82-.4,17.78-2.53,35.6-4.52,53.5-6.1,14.33-1.27,28.7-1.56,43.05-2.34h53.51c21.88,1,43.7,2.25,65.51,4.55,46.19,4.86,91.74,12.88,136.24,26.27a114.62,114.62,0,0,0,33.71,5.29c27.78-.09,55.58-.4,83.36,0,15,.24,26.22-5.23,34.93-17.58,12.44-17.59,26.07-34.36,38.48-52,13-18.41,30.08-27.08,52.56-26.36,17.64.56,35.31.21,53,.21,4.21,0,9.38,1.21,12.4-.75,3.82-2.48,1.34-8.46,2.63-12.74a7.47,7.47,0,0,1,6.41,1.4c0,1,.06,2,.11,2.93.42,9,.42,9.06,9.11,9,19,0,37.93-.07,56.89-.23a70.34,70.34,0,0,0,11.69-.92c35-6.29,64.13-33.76,63.62-76.37C1646.06,548.76,1646.22,534.05,1646.22,519.33ZM292.1,532.84c-6.93-9.44-12.08-19.66-13.72-31.4a30.34,30.34,0,0,1-.33-4.85c0-1.81-.65-4.2,2-4.75s4,.94,4.61,3.64a102.56,102.56,0,0,0,7.73,22.91,38.09,38.09,0,0,0,3.2,4.76c-.05,2,1.19,3.5,1.82,5.23C298.92,532.63,297.52,533.68,292.1,532.84Zm39.4,52.48c-2.58,1.39-4.33-.3-5.72-2.25-5.86-8.25-11.78-16.45-17.5-24.79-2.27-3.3-3.62-7-2-11.07l-.44-.36.46.35c4.12-.1,7.59.94,10,4.75,4.83,7.75,9.87,15.37,14.8,23.06a19.68,19.68,0,0,1,1.78,3.48C333.87,581,334.52,583.69,331.5,585.32Zm36.86,51.88a7.08,7.08,0,0,1-6.69-3.25c-6.52-9.31-13-18.63-19.44-28-1.26-1.85-2.49-4.25-.15-6.09s5.21-1.84,7,.6c7.39,10.29,14.56,20.73,21.74,31.15a10,10,0,0,1,.93,2.64A3.29,3.29,0,0,1,368.36,637.2Zm47-194.39c0-2.15.8-3.87,3.34-3.78s3,2,3,4.06c0,6.5,0,13,0,19.5h.1c0,5.52,0,11.05,0,16.56,0,2.25.4,4.61-3.12,4.78-3.13.17-4-1.46-3.94-4.09Q415.05,461.32,415.36,442.81Zm-.47,167.24c0-13.33,0-26.59,0-39.85,0-2.47.47-4.55,3.68-4.45s3.3,2.45,3.3,4.78c0,11.67,0,23.32.1,35C422,611.06,418.87,611,414.89,610.05Zm3.36-61.69c-5.14-.24-3-4.85-3.31-7.69-.62-5.81.58-11.73-.74-17.53.35-5.45.76-10.88,1-16.34.11-2.25.77-3.66,3.34-3.55s2.95,1.74,3,3.89c.15,6.11.45,12.21.69,18.31-.15,5.21-.08,10.44-.52,15.63C421.52,543.83,423.83,548.64,418.25,548.36Zm1079.94-87.51h.14c0-6.16,0-12.32,0-18.47,0-1.55.2-3.31,2.43-3.44s3.74,1.05,3.75,3.34c.1,13,.12,25.92.13,38.88,0,2-1.33,2.69-3.17,2.8-2.67.15-3.29-1.54-3.3-3.67C1498.17,473.81,1498.19,467.33,1498.19,460.85Zm.36,47c.09-2.27-.15-4.81,3.38-4.45,2.72.28,2.65,2.38,2.64,4.28q-.06,20.38-.18,40.74c-8.06,1-5.83-5.56-7.06-9.6C1498.82,528.57,1498.13,518.19,1498.55,507.87Zm3.14,102.53c-3.62.25-4.22-2.25-4.17-5.08q.26-17.48.58-35c0-2.27,0-4.8,3.36-4.68,3.22.11,3.29,2.51,3.3,4.83,0,5.83,0,11.66,0,17.48h.19c0,5.83,0,11.66,0,17.48C1505,607.93,1504.73,610.19,1501.69,610.4Zm59.37,19.44a34,34,0,0,1-5,6c-1.36,1.24-3.31,2.52-5.2.83-1.47-1.32-.61-3-.05-4.5,2.74-7.41,7.63-13.57,11.79-20.16,2.62-4.12,5.49-8.07,8.24-12.09,3.76-1.45,7.09-1.91,7.92,3.41C1572.88,612.16,1567,621,1561.06,629.84ZM1613.49,554c-6.33,10.24-13.37,20-20.65,29.53a4.25,4.25,0,0,1-3.44,1.74c-2.05-.39-3.48-1.65-3.38-3.91a7.11,7.11,0,0,1,1.29-3.61c6.55-9.28,13.13-18.55,19.82-27.74,1.4-1.91,3.34-3.3,5.75-1.2C1614.61,550.28,1614.69,552,1613.49,554Zm28.44-58.66a95.73,95.73,0,0,1-2,12.44c-2.75,10.44-7.6,19.67-16.54,27.6-2.37-5.36-.63-8.61,1.33-11.58a66.16,66.16,0,0,0,9.69-25.19c.28-1.59.88-3.12,1.31-4.68.56-2,2.07-2.2,3.78-2C1641.56,492.07,1642.13,493.65,1641.93,495.29Z"/><path class="cls-1" d="M418.72,483.93c-3.13.17-4-1.46-3.94-4.09q.27-18.52.58-37c0-2.15.8-3.87,3.34-3.78s3,2,3,4.06c0,6.5,0,13,0,19.5h.1c0,5.52,0,11.05,0,16.56C421.84,481.4,422.24,483.76,418.72,483.93Z"/><path class="cls-1" d="M331.5,585.32c-2.58,1.39-4.33-.3-5.72-2.25-5.86-8.25-11.78-16.45-17.5-24.79-2.27-3.3-3.62-7-2-11.07l-.44-.36.46.35c4.12-.1,7.59.94,10,4.75,4.83,7.75,9.87,15.37,14.8,23.06a19.68,19.68,0,0,1,1.78,3.48C333.87,581,334.52,583.69,331.5,585.32Z"/><path class="cls-1" d="M371.72,634.23a3.29,3.29,0,0,1-3.36,3,7.08,7.08,0,0,1-6.69-3.25c-6.52-9.31-13-18.63-19.44-28-1.26-1.85-2.49-4.25-.15-6.09s5.21-1.84,7,.6c7.39,10.29,14.56,20.73,21.74,31.15A10,10,0,0,1,371.72,634.23Z"/><path class="cls-1" d="M418.25,548.36c-5.14-.24-3-4.85-3.31-7.69-.62-5.81.58-11.73-.74-17.53.35-5.45.76-10.88,1-16.34.11-2.25.77-3.66,3.34-3.55s2.95,1.74,3,3.89c.15,6.11.45,12.21.69,18.31-.15,5.21-.08,10.44-.52,15.63C421.52,543.83,423.83,548.64,418.25,548.36Z"/><path class="cls-1" d="M292.1,532.84c-6.93-9.44-12.08-19.66-13.72-31.4a30.34,30.34,0,0,1-.33-4.85c0-1.81-.65-4.2,2-4.75s4,.94,4.61,3.64a102.56,102.56,0,0,0,7.73,22.91,38.09,38.09,0,0,0,3.2,4.76c-.05,2,1.19,3.5,1.82,5.23C298.92,532.63,297.52,533.68,292.1,532.84Z"/><path class="cls-1" d="M1578.78,603.3c-5.9,8.86-11.75,17.74-17.72,26.54a34,34,0,0,1-5,6c-1.36,1.24-3.31,2.52-5.2.83-1.47-1.32-.61-3-.05-4.5,2.74-7.41,7.63-13.57,11.79-20.16,2.62-4.12,5.49-8.07,8.24-12.09C1574.62,598.44,1578,598,1578.78,603.3Z"/><path class="cls-1" d="M1613.49,554c-6.33,10.24-13.37,20-20.65,29.53a4.25,4.25,0,0,1-3.44,1.74c-2.05-.39-3.48-1.65-3.38-3.91a7.11,7.11,0,0,1,1.29-3.61c6.55-9.28,13.13-18.55,19.82-27.74,1.4-1.91,3.34-3.3,5.75-1.2C1614.61,550.28,1614.69,552,1613.49,554Z"/><path class="cls-1" d="M1641.93,495.29a95.73,95.73,0,0,1-2,12.44c-2.75,10.44-7.6,19.67-16.54,27.6-2.37-5.36-.63-8.61,1.33-11.58a66.16,66.16,0,0,0,9.69-25.19c.28-1.59.88-3.12,1.31-4.68.56-2,2.07-2.2,3.78-2C1641.56,492.07,1642.13,493.65,1641.93,495.29Z"/><path class="cls-1" d="M1504.57,507.7q-.06,20.38-.18,40.74c-8.06,1-5.83-5.56-7.06-9.6,1.49-10.27.8-20.65,1.22-31,.09-2.27-.15-4.81,3.38-4.45C1504.65,503.7,1504.58,505.8,1504.57,507.7Z"/><path class="cls-1" d="M1504.68,481.16c0,2-1.33,2.69-3.17,2.8-2.67.15-3.29-1.54-3.3-3.67,0-6.48,0-13,0-19.44h.14c0-6.16,0-12.32,0-18.47,0-1.55.2-3.31,2.43-3.44s3.74,1.05,3.75,3.34C1504.65,455.24,1504.67,468.2,1504.68,481.16Z"/><path class="cls-1" d="M1505,605.48c0,2.45-.25,4.71-3.29,4.92-3.62.25-4.22-2.25-4.17-5.08q.26-17.48.58-35c0-2.27,0-4.8,3.36-4.68,3.22.11,3.29,2.51,3.3,4.83,0,5.83,0,11.66,0,17.48h.19C1505,593.83,1504.94,599.66,1505,605.48Z"/><path class="cls-1" d="M1408.83,749.56c-14.38,0-24.84-15.2-19.13-28.91a74.3,74.3,0,0,1,15.24-22.57c7.36-7.68,17.84-8.23,26.81-2.3a20,20,0,0,1,7.53,24.88c-3.81,9.08-9.82,16.87-16.7,23.86C1419,748.14,1414.11,749.18,1408.83,749.56Zm.24-7.79c3.64-.41,6.77-1.41,9.06-3.89a73.32,73.32,0,0,0,14-20.9c2.38-5.59.15-11.23-5.33-15.09-4.58-3.22-9.92-3.42-14.35.53a58.52,58.52,0,0,0-15.83,21.88C1393.41,732.39,1400.84,742.08,1409.07,741.77Z"/><path class="cls-1" d="M1496.18,724.55a10.5,10.5,0,0,0-4.08,5.78,20,20,0,0,0-5.77,7.88c-2.94,1.59-5.91,3.14-8.57-.41-2-2.72-.25-4.93,1.19-7.07,3.09-4.61,6.18-9.21,9.41-13.71,4.94-6.88,10.46-13.46,10.49-22.62,0-1.84,1.28-3.46,2.83-3.45s2.58,1.69,2.87,3.44c1.38,8.37,2.66,16.64-4.22,23.64C1498.57,719.82,1496.75,721.87,1496.18,724.55Z"/><path class="cls-1" d="M1332.13,811.79c.71-12.27,1.36-12.58,12.79-6,8.37,4.84,16.24,10.79,26.38,11.68a3,3,0,0,1,3,3.18c-.15,2.39-2,3.11-4.11,3.19-6.59.26-12.85-.7-18.62-4.28-5.22-3.25-10.66-6.15-16-9.17-1.54-.87-3-1.25-3.52,1.17Z"/><path class="cls-1" d="M1469.27,762.3c-5.83,7.92-11.6,15.89-17.51,23.75-2,2.72-3.63,6.22-7.94,6.06-2.48-1.79-4.73-3.44-2.12-7,6.7-9.17,13.11-18.56,19.87-27.68,1.75-2.36,3.5-6.5,7.57-3.89C1473,756,1469.9,759.35,1469.27,762.3Z"/><path class="cls-1" d="M1312,797.54c-11.44-3.92-23.21-8.41-34.23-14.65-2.14-1.21-3.55-3.11-2.22-5.64,1.1-2.1,3.24-1.63,5.17-1.38,3.93.52,7.37,2.39,10.86,4,7.6,3.61,15.09,7.44,22.64,11.15,2,1,4.51,1.91,3.4,4.88C1316.7,798.3,1314.41,797.57,1312,797.54Z"/><path class="cls-1" d="M1219.8,753.18a190.68,190.68,0,0,1,36.09,11.74,7.46,7.46,0,0,1,2.38,1.7,4.62,4.62,0,0,1,1,5.39c-1.25,2.62-3.29,1.3-5,.68-7.35-2.63-14.7-5.29-22-8.05-4.56-1.71-9.35-2.82-13.58-5.41-1.46-.9-3.11-2-2.72-3.65C1216.46,753.37,1218.61,753.09,1219.8,753.18Z"/><path class="cls-1" d="M1399.76,823.79c-1.47-.07-2.78-.08-4.07-.2-2.29-.2-4.85-.25-4.86-3.46,0-2.72,2.35-2.58,4.21-2.94,4.46-.87,9-1.55,13.37-2.71a40,40,0,0,0,14.7-7.4c1.75-1.37,3.25-3.23,5.77-3.37,2.13-.12,4,.51,5,2.37s-.59,2.95-1.74,4C1423,818.83,1412,822.86,1399.76,823.79Z"/><path class="cls-1" d="M845.37,718.78c10.1-2,20.38-2.74,30.41-5.17a20.49,20.49,0,0,1,10.56.24c0,3.32.18,6.68-4.39,7.21-13.17,1.52-26.11,4.91-39.49,4.54-.89,0-2.05.18-2.59-1.68C839.76,720.73,842.88,720,845.37,718.78Z"/><path class="cls-1" d="M1161.25,734.42c13.55,3.13,26.55,8.45,40.44,10.24-2.13,8.16-2.18,8.33-9.86,6.29-9.34-2.47-18.59-5.25-27.86-8a40.63,40.63,0,0,1-4.49-1.71,3.63,3.63,0,0,1-2.41-3.76C1157.2,734.82,1159.59,735.09,1161.25,734.42Z"/><path class="cls-1" d="M1103.12,723.06c12.24,2.66,24.91,2.57,37,5.92l-.48,6.74-9.7-.45c-8.28-1.4-16.57-2.78-24.85-4.21-2.22-.39-4.44-.85-6.62-1.43-2-.55-3.58-1.83-3.52-4.06.07-2.92,2.48-2.23,4.27-2.36C1100.54,723.11,1101.83,723.11,1103.12,723.06Z"/><path class="cls-1" d="M422,605.52c.07,5.54-3.1,5.44-7.08,4.53,0-13.33,0-26.59,0-39.85,0-2.47.47-4.55,3.68-4.45s3.3,2.45,3.3,4.78C421.9,582.2,421.85,593.85,422,605.52Z"/><path class="cls-1" d="M1331.36,308.6c12.88,2.7,25.34,6,37.28,11.15a3.5,3.5,0,0,1,2.13,4.75,3.73,3.73,0,0,1-4.8,2.25q-18.23-5-36.34-10.38c-2.24-.67-3.93-2.46-3-5.25C1327.44,308.73,1329.75,309.33,1331.36,308.6Z"/><path class="cls-1" d="M553.13,327.61c-1.51-.44-2.94-.64-3.5-1.9a3.56,3.56,0,0,1,.87-4.43,21,21,0,0,1,5-2.84,214.25,214.25,0,0,1,31.59-9.3c2.14-.48,4.68-1.55,5.88,1.41,1.46,3.6-1.53,4.62-3.87,5.4C577.17,319.94,565.14,323.74,553.13,327.61Z"/><path class="cls-1" d="M740.22,283.68c-2.23,0-3.22.1-4.18,0-2.79-.35-3.82-2.52-3.94-4.81-.09-1.86,1.69-2.51,3.42-2.78,8.05-1.26,16.09-2.6,24.15-3.79,4.2-.61,8.44-.93,12.64-1.48,2-.25,4.07-1,4.49,1.92.28,2,0,4-2.15,4.95a11,11,0,0,1-2.8.85C760.9,280.33,750,282.1,740.22,283.68Z"/><path class="cls-1" d="M823.55,263.78c3.89-.31,7.79-.59,11.68-.93,2.23-.19,3.82.37,4,2.95.16,2.2-.54,3.9-2.89,4.31-2.56.44-5.15.73-7.74,1-9.71,1-19.43,2-29.15,2.91-2.08.19-4.8,1.38-5.43-2.08-.59-3.29,1.61-4.91,4.33-5.41,5.1-.95,10.27-1.6,15.43-2.2,3.23-.37,6.5-.42,9.75-.62Z"/><path class="cls-1" d="M710,280.12c2-.18,4.22-.27,4.66,2.26s-.94,4.42-3.54,5q-18.15,3.79-36.32,7.48a3.43,3.43,0,0,1-4.4-2.73c-.8-2.89.9-4.4,3.28-5,7.24-1.8,14.5-3.55,21.82-5C700.26,281.16,705.15,280.76,710,280.12Z"/><path class="cls-1" d="M1243.92,294.26c-11.83-2.3-23.67-4.58-35.5-6.92-2.56-.51-4.15-2.21-3.8-4.85.46-3.48,3.41-2.49,5.4-2.2,10,1.47,20.11,2.16,29.83,5.14a57.86,57.86,0,0,1,5.55,1.78c2,.83,4.85,1.26,3.95,4.47C1248.61,294.36,1246.4,294.87,1243.92,294.26Z"/><path class="cls-1" d="M1088.27,262.46c10.27,1.22,20.94,2.47,31.6,3.77a9.23,9.23,0,0,1,3.72.91,4.2,4.2,0,0,1,1.79,4.26c-.29,2-1.81,2.69-3.51,2.52-12.63-1.22-25.25-2.55-37.88-3.79-2.42-.24-3.35-1.51-3.39-3.82,0-3,1.62-4,4.33-3.86C1085.9,262.49,1086.88,262.46,1088.27,262.46Z"/><path class="cls-1" d="M1271.47,292.35a221.4,221.4,0,0,1,35.81,9.46c2.11.74,4.51,2,3.6,4.87-1,3.13-3.52,2-5.71,1.51-10.47-2.43-20.93-4.83-31.39-7.31a37,37,0,0,1-4.59-1.65,3.87,3.87,0,0,1-2.42-4.73C1267.26,292.09,1269.38,292,1271.47,292.35Z"/><path class="cls-1" d="M613.62,308.2c-2.52.17-4.52-.17-5.09-2.47-.53-2.1,1.49-2.75,2.85-3.29,11.77-4.74,24.13-7.51,36.44-10.4,2.37-.55,4.68-.07,5.22,2.88.42,2.29-.87,3.71-3,4.31C637.88,302.68,625.66,306,613.62,308.2Z"/><path class="cls-1" d="M1181.9,283.74C1171.24,282,1159.1,280,1147,278a7.41,7.41,0,0,1-1.87-.52c-1.91-.89-3.28-2.46-2.89-4.51.48-2.48,2.65-2.32,4.67-2,10.25,1.43,20.5,2.82,30.75,4.24q3.38.46,6.71,1.08c2.39.44,4.43,1.27,4.13,4.31C1188.14,283.83,1185.72,283.66,1181.9,283.74Z"/><path class="cls-1" d="M1487.59,370.78c-.58,1.58-1.3,3.14-3.31,2.91a17.64,17.64,0,0,1-4.62-1.18q-14.84-6.06-29.61-12.25a13.51,13.51,0,0,1-3.36-1.84,3.69,3.69,0,0,1-1.37-4.29c.69-1.93,2.3-2.22,3.93-1.69,12.29,4.06,24.44,8.49,35.94,14.52C1486.58,367.69,1487.89,368.82,1487.59,370.78Z"/><path class="cls-1" d="M1390.27,329.29c2.09.56,5,1.16,7.7,2.12,8.87,3.1,17.75,6.18,26.49,9.61,2.45,1,5.89,2.38,4.23,6.26-1.49,3.49-4.38,2-6.71,1.06-10-3.84-19.93-7.81-29.89-11.73a8.44,8.44,0,0,1-4.59-3.42,3.93,3.93,0,0,1-.28-2.74C1387.49,329.55,1388.44,329,1390.27,329.29Z"/><path class="cls-1" d="M493.76,349.17c-1.28-.2-2.59-.4-3.14-1.82-.65-1.65-.54-3.24.92-4.39a15.51,15.51,0,0,1,3.35-2A319.28,319.28,0,0,1,528,329.39c1.56-.47,3.49-.62,4.41.91s-.27,3.3-1.67,4a237.36,237.36,0,0,1-36,14.73A4.53,4.53,0,0,1,493.76,349.17Z"/><path class="cls-1" d="M1036.21,257.89a220.12,220.12,0,0,1,25.27,2.18c1.54.2,3.41.15,3.3,2.49-.11,2.14-1,3.77-3.35,4.1a17.39,17.39,0,0,1-3.88.13c-11-1-22.13-.3-33.06-2.32-2.69-.5-6.63.24-6.16-4.23.42-4,3.92-2.19,6.18-2.3C1028.4,257.77,1032.31,257.89,1036.21,257.89Z"/><path class="cls-1" d="M873.94,266.65c-3.51,0-9.07.07-14.62,0-2,0-4-.46-4.13-3.12s1.43-3.19,3.59-3.55c13.31-2.15,26.73-1.79,40.12-2,1.75,0,3.2.57,3.16,2.73,0,2.36-1.36,3.55-3.6,3.76C891,265.12,883.49,265.79,873.94,266.65Z"/><path class="cls-1" d="M1599.83,429.12c-10.34-2.24-18.16-7-26.43-10.47a126.5,126.5,0,0,1-13-6.66c-2.16-1.22-3.33-3.34-1.72-5.77,1.15-1.74,2.86-2.61,5-1.37,11.49,6.68,24,11.67,34.42,20.09C1598.75,425.46,1598.85,426.66,1599.83,429.12Z"/><path class="cls-1" d="M433.78,370.55a4.46,4.46,0,0,1,2.46-4,275.26,275.26,0,0,1,33.33-13.94c1.57-.55,3.61-.58,4.44,1,1,1.85.38,3.81-1.63,5a20.82,20.82,0,0,1-2.52,1.49c-10.52,4.38-21.06,8.71-31.59,13.09C435.5,374.32,433.84,373.83,433.78,370.55Z"/><path class="cls-1" d="M322.19,429.79c-2.83-3-1.23-5.61,1.42-7.09,10.44-5.86,21-11.44,31.63-17,1.69-.88,3.92-1.49,5.23.65,1.45,2.36.47,4.48-1.79,5.71-5.39,2.94-10.82,5.83-16.34,8.5-6.67,3.21-13.46,6.18-20.2,9.25Z"/><path class="cls-1" d="M322.14,429.81l-1.13-.54,1.18.52Z"/><path class="cls-1" d="M491.36,814.15c9.59,6.76,20.3,9.92,31.91,10.31,2.29.08,5-.24,5.45-3,.55-3.29-2-4.41-4.78-4.82-1.28-.19-2.56-.44-3.85-.56a48.36,48.36,0,0,1-25-9.92,15.52,15.52,0,0,0-5.1-2.68c-2.74-.74-4.09.42-4.1,3.54Z"/><path class="cls-1" d="M554,824.6c-3.16-1.28-7.79.84-8.47-3.62-.76-4.94,4.16-4.23,6.93-4.85,7.49-1.68,13.78-5.73,20.31-9.37,3.13-1.73,6.31-3.38,9.59-4.81a3.28,3.28,0,0,1,4.21,1.42c1.08,1.62.95,3.51-.33,4.43C576.25,815,566.35,822.42,554,824.6Z"/><path class="cls-1" d="M702.64,756c-.13,3.06-1.89,4.15-4.22,5-10.66,3.77-21.28,7.63-31.92,11.48-2.65,1-4.92,1.36-6.3-2s.54-4.8,3.17-5.74c11.55-4.11,22.79-9.16,34.91-11.57C701.18,752.48,702.64,753.27,702.64,756Z"/><path class="cls-1" d="M607.43,797.64c-2.74.12-4.08-.64-4.69-2.37a3.08,3.08,0,0,1,1.69-4.06c5.26-2.56,10.53-5.1,15.88-7.46,5.94-2.62,11.92-5.16,18-7.46,1.62-.62,4-1.48,5.15.92s.19,4.45-2,5.87a27.86,27.86,0,0,1-4.21,2.46q-13,5.58-26,11A27,27,0,0,1,607.43,797.64Z"/><path class="cls-1" d="M531.83,726.58c0,10.28-5,18.36-12.79,21.41-8.7,3.4-16.91,2.14-23.52-4.46a77.05,77.05,0,0,1-14.77-20.61c-4.58-9.36-1.38-21.14,6.85-27.18s19.94-5.08,27.66,2.8c6,6.08,10.39,13.37,14.72,20.68A15.46,15.46,0,0,1,531.83,726.58Zm-22.19,14.48c9,.24,16.26-7.48,13.42-15a55.58,55.58,0,0,0-16.51-23.73c-4.72-3.89-10.28-3.18-15.09,1-4.57,4-6,9.62-3.39,14.79a93.15,93.15,0,0,0,12.59,18.47C503.07,739.38,506,741.39,509.64,741.06Z"/><rect class="cls-2" width="1" height="1"/><rect class="cls-2" x="1919" y="1079" width="1" height="1"/><rect class="cls-2" y="1079" width="1" height="1"/><rect class="cls-2" x="1919" width="1" height="1"/></g><g id="Capa_3" data-name="Capa 3"><path d="M798.38,454.65v111H778.55V494.94L759,509.85l-16.18,12.53-16.18-12.53-19.51-14.91v70.74H687.34v-111l19.83,15.23,35.69,27.44,35.69-27.44Z"/><path d="M852.3,491.61v75.5H832.47V489.55A15.8,15.8,0,0,0,819,476.07h-4.44V456.4h4.28v.16a35.35,35.35,0,0,1,29.5,19.82,42.36,42.36,0,0,1,2.7,7.46,33.47,33.47,0,0,1,1,8.09Z"/><path d="M978.39,546.17V566H867.68V533.33a31.5,31.5,0,0,1,2.7-12.85,32.59,32.59,0,0,1,28.87-20h48.06a13,13,0,0,0-1.11-25.85H868V454.81h78.2a32.63,32.63,0,0,1,32.67,32.68,32.45,32.45,0,0,1-9.36,22.68,32.93,32.93,0,0,1-22.36,10h-47.9A12.91,12.91,0,0,0,887.67,533v12.85Z"/><path d="M1105.28,546.17V566H994.57V533.33a31.66,31.66,0,0,1,2.69-12.85,32.59,32.59,0,0,1,28.87-20h48.06a13,13,0,0,0-1.11-25.85h-78.2V454.81h78.2a32.63,32.63,0,0,1,32.68,32.68,31.62,31.62,0,0,1-2.7,12.84,31.94,31.94,0,0,1-6.66,9.84,32.94,32.94,0,0,1-22.37,10h-47.9A12.92,12.92,0,0,0,1014.55,533v12.85Z"/><path d="M1223.6,510.33a32.75,32.75,0,0,1-23.48,55.51H1154.6a32.57,32.57,0,0,1-30.13-20,34.31,34.31,0,0,1-2.54-12.85,32.67,32.67,0,0,1,9.2-22.84,31,31,0,0,1-6.82-10,34.31,34.31,0,0,1-2.54-12.85,32.22,32.22,0,0,1,32-32.84h46.47a32.88,32.88,0,0,1,23,55.68Zm-24.27-9.68a12.94,12.94,0,0,0,.48-25.85H1153a12.93,12.93,0,0,0,.31,25.85h46Zm.16,45.52a13.06,13.06,0,0,0,13-13,12.93,12.93,0,0,0-12.22-13h-46.47A12.88,12.88,0,0,0,1141.6,533a13.05,13.05,0,0,0,13,13h45.52Z"/></g></g></svg>