<svg xmlns="http://www.w3.org/2000/svg" viewBox="0 0 1920 1080"><defs><style>.cls-1{fill:#010101;}.cls-2{fill:#f2f2f2;}</style></defs><g id="Capa_2" data-name="Capa 2"><g id="Capa_1-2" data-name="Capa 1"><path class="cls-1" d="M1717.21,311a254.53,254.53,0,0,0-22.4-25.18,12.68,12.68,0,0,0-14.3-3.11c-5.47,2.06-9.1,5.94-9.15,12.28-.07,7.77-.76,15.59-.07,23.3.71,8.13-1.53,10.87-10.18,10.74q-48.31-.75-96.64,0c-22.72.3-44.36-3.18-65.44-12.21a1055.3,1055.3,0,0,0-101.74-37.19c-3.39-1.06-8.21-1.3-6.69-6.86,1.42-5.23-1.57-6.39-5.52-7.53-17.91-5.12-35.78-10.37-53.64-15.62-5-1.49-10.13-5.2-13.64,2.59-1,2.31-4.19,1.08-6.39.62-14.17-3-28.32-6.13-42.51-9.05-35.36-7.27-70.87-13.81-106.72-18.36-21.18-2.67-42.34-5.54-63.52-8.22-14.39-1.79-29-3.69-43.21-4.54-14.83-.88-29.89-1.76-44.88-2-16.11-.3-26.66,7.92-27.83,24.08-1.16,15.74-.61,31.6-1.13,47.4-.34,10.14-6.59,17.2-16.07,19.79a21.85,21.85,0,0,1-27.49-19.11c-.45-14.08-.33-28.18-.5-42.27-.23-20.81-9.33-30.38-30.2-29.79-22.42,0-81.7,5.7-81.7,5.7-25.09,3.16-48.12,5.77-71.06,9q-74.18,10.56-147.15,27.52c-2.09.49-5.13,2.4-6.06-.58-2.59-8.26-7.65-4.44-12.32-3.08-18.14,5.3-36.31,10.55-54.42,16-4,1.19-9,2-5.74,8.53,1.63,3.29-.89,4.24-3.74,5.11C485.35,291,446.48,305.77,408,321.69c-13.25,5.49-27.29,6.8-41.39,6.92-37.08.3-74.17.12-111.26.44-5.32.05-7.24-1.65-7.18-6.76.07-8.61-.23-17.25-.19-25.86,0-6-2-10.62-7.79-13.13-6-2.55-11.54-1.48-15.89,3-6.8,7-13.1,14.47-19.67,21.73a38,38,0,0,0-8.73,17.4V474.91c0,7.89-.4,15.85,6.33,21.91,2.54,2.26,2.35,5.68,2.35,8.89,0,11.8,0,23.59.11,35.38.06,7,1.38,14.08,6.23,19.14,8.31,8.65,17.41,16.56,26.23,24.73a19.62,19.62,0,0,0,12.28,5.66c14.62.83,29.3,1.4,43.89-.38,10.83-1.33,16.18-7.55,16.61-18.43.33-8.34-.17-16.69.35-25,.6-9.49,7.92-13.34,15.35-7.68,8,6.09,16.58,7.8,26.25,7.13,6.58-.47,13.21-.19,19.82-.17,16.21,0,27.39,7.73,33.09,22.72,6.39,16.77,12.07,33.81,18.18,50.7,8.93,24.68,18.1,49.25,26.94,74,10.51,29.35,25,56.48,44.7,80.73,17.37,18.82,35.68,36.54,57.68,50a231.2,231.2,0,0,0,59.62,26.29c43,15.28,161.34,10.13,161.34,10.13,3.14,0,6.3.21,9.46.33l129.1-.47c2,0,4.8-.2,4.71,2.37-.26,8,5.3,6.51,10,6.56l69.27,0c3.77.09,7.12.06,6.5-5.21-.49-4.11,2.45-3.75,5-3.73q36.14.18,72.28.41,79.42,0,158.83.07c12.9-.69,25.8-1.38,38.58-3.52q104.1-17.46,163.34-104.82c16.35-24,25.79-51.13,35.69-78.06q19.24-52.49,38.45-105c5.55-15.25,16.17-23.19,32.5-23.24,8.34,0,16.68-.19,25,0,7.77.12,14.78-1.71,20.86-6.7,3.25-2.69,6.74-4.57,11-2.4s4.91,6.13,5,10.28c.19,7.75,0,15.54.41,23.27.66,12.68,8.15,20,20.88,20.42,7.75.27,15.59-.61,23.28.2,30,3.21,43-20,59.19-38,2.35-2.59,2-7,2-10.84,0-12.09.09-24.18.2-36.25,0-3.45-.18-7,2.48-9.75,6.08-6.34,6.74-14.15,6.7-22.43V336C1724.08,322.26,1717.21,311,1717.21,311Zm-332.15-16.48c1.19-5.07,4.25-3.17,7.29-2.22,29.3,9.17,58,20,86.68,30.91,20.85,7.94,40.89,18.68,64,18.87,23.86.17,47.74.42,71.61.05,6.23-.1,8.08,1.57,7.32,7.58-.62,5,2,10.8-7.53,10.28-28.44-1.5-56.93.79-85.39-1.07-9.62-.64-17.89-3.51-24.43-10.92-2.08-2.33-4.77-4.12-7.27-6-2.26-1.74-4.84-4.28-7.62-2.35s2.18,4.2.52,7.39c-5.61-1.24-9.93-4-14.25-6.92-1.69-1.12-4.17-2.52-2.66-4.56,5.08-6.8-1.5-7-4.73-8.27-8.23-3.34-16.69-6.08-25-9.15-1.63-.61-2.94-1.39-4.77-.32-7.89,4.62-12.68,3.39-16.44-4.57-1.31-2.8-3.57-3.63-5.92-4.46-8.67-3-17.34-6-26.13-8.6C1387.06,299.15,1383.94,299.21,1385.06,294.47Zm-65.89-19.7c2.07-6.51,2.41-15.44,6.89-18.7,3.28-2.4,12,2.52,18.27,4.34,11.26,3.26,22.44,6.8,33.76,9.89,4.43,1.21,6.07,2.64,4.55,7.72-2.79,9.43-6.7,18.91-2.33,30.17-23.88-7.26-46.48-14.11-69.09-20.95-.32-.74-.65-1.49-1-2.23C1318.68,285.43,1317.72,279.28,1319.17,274.77Zm-324-35.16c.73-6.09,1.33-12.53,8.5-14.47,3.78-1,8-.86,12-.63,96.5,5.35,191.92,18.28,286.1,40,2,.45,4,.62,6,.88,3.51.45,6.1,1.43,5.2,5.94s-4.07,4.3-7.25,3.61c-7-1.52-13.94-3.35-20.93-5-1.9-.43-5-1.71-5.63.11-4.58,12.81-12.78-.09-19.43,5.06,1-5.51,5.72-5.67,4.13-8.95-1.07-2.19-3.71-2.42-6-2.74-9.1-1.25-18.2-2.59-27.3-3.75-1.84-.23-5.56-.71-5.3.95,2,12.47-6.16,5.13-9.49,4.57-3.11-.5-12.85,3.2-7-7.16.86-1.5-2-2.63-3.49-3a165,165,0,0,0-31.34-5.4c-1.7-.1-4.25-1-4.49,2.3-.23,3,2.26,3.14,4,3.48,9.69,2,19.43,3.68,29.15,5.48-.11.72-.23,1.45-.33,2.16l-51.34-6.89c-1.69-4,5.84-4.08,3.37-7.39-2.11-2.82-6.29-2.3-9.69-2.75-9.62-1.26-19.23-2.49-28.46-3.68-2.81,3.51,1.56,5.1.28,8.69-24.31-1.56-48.94-6.77-72.58-.74-2.57-2.8-1.1-3.68-.24-4.68,1.4-1.66,2.26-3.77.92-5.5-1.76-2.22-4.06-.15-5.18.87-12.25,10.93-26.25,4.56-39.62,4.3C995.86,245.26,994.82,243,995.22,239.61Zm-42,75.41c8.87,1.61,19.56-1.69,19.56-1.69,14.77-4.57,22.38-16.64,22.49-32.12,0-7.77.24-15.54,0-23.31-.13-4.16,1.21-5.82,5.44-5.27a82.4,82.4,0,0,0,8.61.33c11.17.28,11.3.33,7.77,10.14-.89,2.5-1.15,4.94,1,6.13,3.42,1.86,4.32-1.68,5.32-3.73,3.18-6.39,6.25-12.42,15.2-10.83,3.21.57,4.47,1.71,2.26,4.28-9.38,10.85-11.49,24.82-16.37,37.6-1.71,4.49-3.35,9-7.81,14.12.95-8.48,1.83-15,2.32-21.53.17-2.09.39-5.11-2.87-5.28-3.09-.18-3.78,2.41-3.61,4.8,1,12.13-7,22.25-7.58,34.15-.21,4.15-5.47,5.63-9.1,7.12-25.3,10.39-50.46,9.27-75.18-1.89-5.32-2.4-8.38-5.42-9-13.29-.76-10.17-4.88-20.45-6.14-31-.19-1.52-1.35-3-2.89-2.49s-2.33,2.28-2.57,4.13c-.72,5.79,1.52,11.78-1.29,18.74-3.92-6.22-5.43-12.14-7.36-17.87-3.09-9.23-5.18-18.86-12.19-26.27-3.52-3.73-1.14-4.71,2.47-5.13,5.63-.64,10.17.62,12.78,6.32.89,2,2.34,4.7,5.05,3.66,3.44-1.31,1-3.95.18-5.64-3-5.77.22-6.22,4.71-6.13,6.29.12,12.57,0,19.76,0,0,8.66-.14,18.38,0,28.1C924.6,299.71,935.13,311.76,953.21,315Zm-342-49.64c64-13.66,128.22-25.85,193.32-32.79,34-3.63,68-7.08,102.2-7.93,3.13-.07,6.5-.29,9.38.66,7.39,2.41,8.24,8.86,8.12,15.42-.12,7.16-5.89,4.61-9.64,5.19-3.11.49-6.41-.06-9.44.63-8.62,2-16.43,1.34-23.16-5.1a15.15,15.15,0,0,0-4.51-2.47c-2.26-1-5.21-3-6.8,0-1.92,3.59,1.19,4.8,4.14,5.78,1.54.52,2.83,1.78,5.36,3.47A23,23,0,0,1,867,249.28c-23.1-4.47-45.77.47-68.53,2.82-16.27,1.69-32.45,4.16-48.66,6.23-1.94.24-5.27,1.83-4-2.6,1.52-5.51-2-4.94-5.19-4.51-9.67,1.29-19.34,2.66-29,4.18-2.07.33-4.45.38-4.83,3.76-.25,2,4.94,4.66-.28,5.94a139.42,139.42,0,0,1-16.06,2.7c-.9.1-1.42-1.83-.81-2.9,3.94-7-1.55-5.43-4.77-5-8.79,1.31-17.52,2.95-26.24,4.63-5.34,1-9.19,2.95-2.63,8.91-5.78,1.09-10.55,1.95-15.28,2.86-1.36.28-3.59.88-3.59-.72,0-10.54-6.49-4.66-10.43-4-4.51.72-8.88,2.31-13.26,3.62-3.63,1.09-5.88.59-6.89-3.75C605.49,267,607.61,266.14,611.2,265.38ZM541,270.44c16.22-4.65,32.41-9.33,48.46-14.52,5.19-1.7,6.7-.44,6.94,4.57.36,7.22,6.18,13.75,2.4,21.59-.81,1.69,1.64,1.69,2.95,1.95,2.31.46,5.2-1,7.68,3l-36.86,10.54c-4.29,2.12-8.53,4.45-13.59,3.28-.28-.07-.62-1.89-.33-2.11a23.52,23.52,0,0,1,13.49-4.52,4.84,4.84,0,0,1,.57-.63c3.67-2.86,12.9-1.26,10.68-7.9-1.57-4.74-8.44.24-12.79,1.29-6.91,1.66-13.69,3.95-20.46,6.18-2.44.81-5.24,2.23-4.3,5.41,1.15,3.95,4.28.88,6.47,1.26s5.2-4.18,6.1.6c.65,3.52-3.47,3-5.56,3.84a99.72,99.72,0,0,1-9.84,2.81c-1.06,1.05-2.34,1.59-3.27.19-.33-.48.52-1.76.81-2.68,1.61-9.06-.67-17.75-3.43-26.12C535.59,273.67,536.33,271.8,541,270.44Zm-243.27,82c.71-4.42-2.5-10.72,6.74-10.22,11.74.64,23.55.15,35.33.15,20.08-.21,40.52,2,60-4,18.84-5.84,36.94-14,55.46-20.88,23.64-8.74,47.18-17.82,71.36-25,2.34-.7,5.16-3,6.89-.13,1.19,1.95,1.2,5.06.77,7.49-.77,4.39-4.14.95-6.25,1.57-12.91,3.82-26.66,5.27-36.54,16.54-2.79,3.22-8.27,9.36-14,1.49-1.47-2-4.3-.09-6.39.71-7.51,2.81-15.16,5.37-22.43,8.72-2.83,1.31-12.3.62-4.28,8.34,1.43,1.38-.45,3.18-2.06,3.95-3.61,1.75-7.23,3.46-10.95,4.94-1.12.45-3.33,1.31-3.64-.59-1.69-10-6.44-3.31-8.44-1-11.87,13.54-27.44,15.23-43.93,15.12-23.57-.13-47.14-.08-70.71.32C298.7,360,296.91,357.88,297.77,352.41Zm32.4,173c-21.81-8.16-34.47,7.24-33.64,25.15.24,5.16,0,10.34-.12,15.52-.16,11.22-.17,11.22-11.81,11.38-1.14,0-2.3,0-3.46,0-33.82.2-33.81.2-57.4-24.09-2.5-2.58-4.36-4.68-2-8.84,21.8-37.46,70.7-48.65,106.17-24.07.91.63,1.72,1.41,2.59,2.14,6.71.88,11.36,5.73,16.88,9.11C340.15,533.84,335.33,529.11,330.17,525.36Zm1.72-11c-24.31-14.73-50.12-19.27-77.25-7.58a80.81,80.81,0,0,0-30.83,22.9c-1.38,1.66-2.19,4-5.37,4.44,0-9.43-.15-18.34,0-27.23.15-7.43-1.18-14.27-6.11-20.1-2.82-3.32-3.87-7-1.77-11.12,28.63-56.52,85.48-65.79,127-43.67,23.87,12.74,38.31,32.93,45.49,58.76,4.28,15.32,9,30.53,13.42,45.64C372.61,534.29,351.7,526.33,331.89,514.36ZM906,846.68c-72.37.14-144.76.06-217.13.25-28.63.07-56.64-3.39-83.85-12.51-24.8-9-47.73-21.34-68.09-38.26-2.37-2-4.44-4.34-6.65-6.51A56.89,56.89,0,0,1,517,777.09c-.89-.93-1.81-1.84-2.71-2.78l-2.71-2.84a47.85,47.85,0,0,1-11.14-12.82c-19.44-24.71-31.27-53.23-41.65-82.55-12.72-36-23.2-73-39.66-107.19-14.85-30.8-22.16-63.73-34.74-94.95-15.36-38-45.32-57.45-85.29-59.47-36.71-1.85-66.45,12.9-86.29,45a10.05,10.05,0,0,1-1.71,1.92c-.12.12-.51,0-1.69-.17V449.89c0-38.84.22-77.68-.12-116.51-.07-7.53,2-13.19,7.24-18.39,5.78-5.79,11-12.07,18-19.79,0,10.55-.14,18.7,0,26.85.33,15.34,5.7,20.52,21.07,20.52,9.79,0,19.56.08,29.34-.25,4.11-.13,6.06.35,6.2,5.34.53,19.1.76,19.36,20.41,18.94,27.87-.55,55.77,1.54,83.59-1.12.87-.09,2.26-.36,2.5,0,6.88,10.95,8.71,0,12.54-2.76,6.63-4.73,14.47-6.59,21.55-9.37-2.45,45.31-.48,90.36-1.4,135.36a160,160,0,0,0,10.16,59.73c16.12,43.5,31.39,87.32,47,131,4.14,11.66,10.07,22.43,15.61,33.43,12.79,25.34,33.72,43.54,53.58,62.72a355.18,355.18,0,0,0,45.17,27.15C640,820,680.33,824,721.6,822.63c6.56-.21,13.14.16,19.71.26l25.94,0h16.94a231,231,0,0,1,31.24,0l20.81-.05h36.29c10-.1,20.09-.46,30.12-.2,8.91.22,12.41,4.52,11.88,13.41,0,.57-.38,1.28-.14,1.68C921.52,850.14,911.39,846.67,906,846.68Zm90.76-15.95c-1.26,3.52-3.82,3.83-6.81,3.81-5.45,0-10.91-.1-16.38-.08-2.27,0-4.93-.23-4.67,3.3.21,3,2.66,2.45,4.54,2.47,5.75,0,11.5.2,17.26-.07,3.69-.18,5.43,1.05,5,4.83a5,5,0,0,0,0,.87c.43,16.61.43,16.61-16.28,16.64l-47,0c-6.34.52-9-.81-8.57-8.15.74-13.65.17-13.69,14-14,3.75-.06,7.48-.06,11.21-.24,1.85-.08,4.46.5,4.21-2.71-.19-2.69-2.34-2.92-4.43-2.92-6,0-12.07-.17-18.12,0-4.33.14-7.09-.41-9-5.47-3.14-8.38-9.88-13.14-19.27-13.4q-20.21-.55-40.44-1.18c-4,.24-8,.71-11.92.71q-73.92.21-147.81.28c-2,0-4-.28-6-.42-48.71,1.31-92-14.24-130.9-42.75-14.94-10.93-27.77-24.07-39.67-38.23-6.41-7.65-10.25-15.75-8.91-25.92a59.29,59.29,0,0,0,.05-8.64c-.05-3.12.37-7.47-3.71-7.51-5,0-2.3,4.63-2.76,7.29s.86,5.59-1.69,8.94C501.14,695.87,496.13,683,491.43,670q-24.21-67.17-48.06-134.48a97.93,97.93,0,0,1-6-32.88c.05-43.74-.07-87.48.11-131.22.07-16.54,3.69-21.43,19.51-27.27s31.89-11.22,47.73-17.16c4.75-1.76,6.23-.93,5.82,4.09-.33,4-.14,8.05-.21,12.07,0,2.06,1,3.35,2.9,3.56,2.56.29,3.57-1.26,3.61-3.65,0-.86,0-1.72.07-2.59.9-17.78.91-17.73,17.58-23.2,53.15-17.44,106.64-33.55,162-42.69,41.11-6.77,82.47-11.45,124-14.75,10-.79,20.1-1.24,30.1-2.22,16.66-1.66,25.4,4,30.7,20.29,1.67,5.18,3.28,10.37,5.06,15.52,10.79,31.08,32.31,49.51,65,54.12,7.94,1.43,17.47,0,17.47,0,32.61-5.4,54.73-23.57,64.74-55.6,1.54-4.9,3.13-9.82,4.94-14.64,6.61-17.49,14.06-21.4,32.74-19.7,31.19,2.81,62.41,5.25,93.52,8.82,52.26,6,103.82,15.45,154.27,30.39,25.53,7.56,50.81,16.06,76.29,23.74,6.34,1.92,9.5,4.37,8.88,11.78-.38,4.47-2.75,13.35,2.61,13.25,6-.12,3.43-8.78,3.21-13.59-.31-6.24,2.3-6,6.54-4.44,17.53,6.32,35.11,12.53,52.58,19,9.59,3.52,12.16,12,12.54,20.77.67,15.8.35,31.64.38,47.47,0,26.75-.16,53.51.16,80.28.17,15.13-1.9,29.68-7.22,43.91-18.74,50.25-35,101.42-54.93,151.25-2.3,5.77-5.27,11.26-8.31,17.65-3.74-4.3-.81-8.58-2.09-12.19-.58-1.68-1-3.53-3.1-3.61-2.56-.09-2.13,2.19-2.35,3.75a15.9,15.9,0,0,0-.11,4.3c2.46,16.33-5,28.47-15.56,40-12.65,13.9-26,26.8-41.56,37.42-2.57,1.76-5,3.94-8.37,4-13.87,12.24-31,17.92-48.06,23.73a180,180,0,0,1-55.78,9.65c-23.55.31-47.1,1-70.66-.24-16.92.24-33.86.62-50.8.69-30.46.15-60.92.26-91.4.07C1010.12,815.38,1001,819,996.78,830.73ZM1693.72,555.6c-14.52,17.87-32.08,24.85-54.94,22.19-15.73-1.81-15.42,2.66-16-16.18-.14-3.73-.06-7.46-.09-11.21-.12-21.7-10.64-30.18-32-25.8-5.91,3.18-10.66,9.29-20,7.71a67.3,67.3,0,0,1,19.4-11c39.23-23.83,79.22-16.44,104.69,19.08C1698.85,546.17,1698.65,549.56,1693.72,555.6Zm13.06-68.09c-4.23,5.13-5.46,11.23-5.41,17.74.09,9.63,0,19.27,0,28.9-16-19.11-35.25-30.22-59.3-33.25a71.3,71.3,0,0,0-40.2,6.49c-11.38,5.39-22.62,11.19-33.57,17.42-8.17,4.65-16.51,7.65-26,8-6.27.24-12.47,1.6-17.61,5.11-2.07-1.95-1.56-3.56-1.06-5.23,4.44-14.53,9-29,13.27-43.55,10.77-36.8,34.84-60,72.42-66.5,38.76-6.67,69.62,8.1,91.78,40.7,1.93,2.85,3.45,6,5.59,8.65C1711,477.27,1711.13,482.26,1706.78,487.51Zm4.25-30.6a37.19,37.19,0,0,1-.33,3.92c-3.18.25-3.83-1.83-4.91-3.38-23.81-34.52-57.15-48.58-97.78-41.65-40.88,7-66.59,32.48-78,72.39-5,17.37-9.06,35.1-15.74,51.82-5.81,14.5-14.16,27.88-19.43,42.87q-21.24,60.43-44.26,120.22c-15.38,40.15-41,72.82-75.11,98.84a25.46,25.46,0,0,1-3.7,2c-3.61,3.61-7.22,7.22-12.55,8.19-7.76,4.85-15.13,10.39-23.92,13.38a177.35,177.35,0,0,1-70.78,19.53c-63.74,3.83-127.58.9-191.36,1.87-21.57.32-43.12.1-64.69,0-2.23,0-5.56,1.66-6.22-2.4-.44-2.83,1.2-4.24,3.91-4.56,2.54-.27,2.52-1.43,1.45-3.41-4-7.31-.69-13.18,7.91-13.89,5.14-.43,10.34-.33,15.52-.33,60.65.06,121.31-.39,182,.38,43.1.56,83.68-8.22,121.88-28.13,25.06-15.61,46.47-35.12,66-57.43,14.66-16.77,22.9-36.55,30.51-56.36,18.43-47.87,34.76-96.53,52.19-144.77,5.09-14.11,5.61-28.6,5.58-43.31-.09-38.82.08-77.66.12-116.49a81.11,81.11,0,0,0-3-23.64c6.36,2.5,12.13,3.56,16.41,6.66,11.76,8.5,25.18,6.93,38.11,7.2,26.16.54,52.32,0,78.48.32,7,.08,9.58-1.87,9.52-9.17-.19-15.39.19-15.37,15.9-15.23,7.75.07,15.56.43,23.28-.07,12-.8,16.83-6.25,17-18.31.06-4.61-.21-9.2-.26-13.81s0-9,0-15.78c11.21,14.67,27,23.24,26.38,44.32C1709.94,378.09,1710.92,417.51,1711,456.91Z"/><path class="cls-2" d="M1378.09,270.3c-11.32-3.09-22.5-6.63-33.76-9.89-6.25-1.82-15-6.74-18.27-4.34-4.48,3.26-4.82,12.19-6.89,18.7-1.45,4.51-.49,10.66-8.93,10.24.33.74.66,1.49,1,2.23,22.61,6.84,45.21,13.69,69.09,20.95-4.37-11.26-.46-20.74,2.33-30.17C1384.16,272.94,1382.52,271.51,1378.09,270.3Zm-42.5,19c-1.9-.5-3-1.81-2.54-3.78s2.26-1.5,3.52-1.33c12.38,1.68,24.25,4.87,34.5,12.73C1358.31,298.33,1347.28,292.4,1335.59,289.31Z"/><path class="cls-2" d="M609.47,287l-36.86,10.54c-4.29,2.12-8.53,4.45-13.59,3.28-.28-.07-.62-1.89-.33-2.11a23.52,23.52,0,0,1,13.49-4.52,4.84,4.84,0,0,1,.57-.63c3.67-2.86,12.9-1.26,10.68-7.9-1.57-4.74-8.44.24-12.79,1.29-6.91,1.66-13.69,3.95-20.46,6.18-2.44.81-5.24,2.23-4.3,5.41,1.15,3.95,4.28.88,6.47,1.26s5.2-4.18,6.1.6c.65,3.52-3.47,3-5.56,3.84a99.72,99.72,0,0,1-9.84,2.81c-1.06,1.05-2.34,1.59-3.27.19-.33-.48.52-1.76.81-2.68,1.61-9.06-.67-17.75-3.43-26.12-1.57-4.8-.83-6.67,3.88-8,16.22-4.65,32.41-9.33,48.46-14.52,5.19-1.7,6.7-.44,6.94,4.57.36,7.22,6.18,13.75,2.4,21.59-.81,1.69,1.64,1.69,2.95,1.95C604.1,284.49,607,283,609.47,287Z"/><path class="cls-2" d="M1482,414.71c0-15.83.29-31.67-.38-47.47-.38-8.74-3-17.25-12.54-20.77-17.47-6.43-35-12.64-52.58-19-4.24-1.54-6.85-1.8-6.54,4.44.22,4.81,2.8,13.47-3.21,13.59-5.36.1-3-8.78-2.61-13.25.62-7.41-2.54-9.86-8.88-11.78-25.48-7.68-50.76-16.18-76.29-23.74-50.45-14.94-102-24.38-154.27-30.39-31.11-3.57-62.33-6-93.52-8.82-18.68-1.7-26.13,2.21-32.74,19.7-1.81,4.82-3.4,9.74-4.94,14.64-10,32-32.13,50.2-64.74,55.6,0,0-9.53,1.42-17.47,0-32.65-4.61-54.17-23-65-54.12-1.78-5.15-3.39-10.34-5.06-15.52-5.3-16.3-14-22-30.7-20.29-10,1-20.07,1.43-30.1,2.22-41.53,3.3-82.89,8-124,14.75-55.35,9.14-108.84,25.25-162,42.69-16.67,5.47-16.68,5.42-17.58,23.2,0,.87-.07,1.73-.07,2.59,0,2.39-1.05,3.94-3.61,3.65-1.95-.21-2.93-1.5-2.9-3.56.07-4-.12-8.06.21-12.07.41-5-1.07-5.85-5.82-4.09-15.84,5.94-31.88,11.31-47.73,17.16s-19.44,10.73-19.51,27.27c-.18,43.74-.06,87.48-.11,131.22a97.93,97.93,0,0,0,6,32.88Q467.28,602.76,491.43,670c4.7,13,9.71,25.92,17.36,38.26,2.55-3.35,1.2-6.3,1.69-8.94s-2.25-7.32,2.76-7.29c4.08,0,3.66,4.39,3.71,7.51a59.29,59.29,0,0,1-.05,8.64c-1.34,10.17,2.5,18.27,8.91,25.92,11.9,14.16,24.73,27.3,39.67,38.23,38.95,28.51,82.19,44.06,130.9,42.75,2,.14,4,.42,6,.42q73.89-.11,147.81-.28c4,0,8-.47,11.92-.71q20.22.6,40.44,1.18c9.39.26,16.13,5,19.27,13.4,1.92,5.06,4.68,5.61,9,5.47,6.05-.19,12.07,0,18.12,0,2.09,0,4.24.23,4.43,2.92.25,3.21-2.36,2.63-4.21,2.71-3.73.18-7.46.18-11.21.24-13.83.28-13.26.32-14,14-.4,7.34,2.23,8.67,8.57,8.15l47,0c16.71,0,16.71,0,16.28-16.64a5,5,0,0,1,0-.87c.38-3.78-1.36-5-5-4.83-5.76.27-11.51.12-17.26.07-1.88,0-4.33.57-4.54-2.47-.26-3.53,2.4-3.3,4.67-3.3,5.47,0,10.93,0,16.38.08,3,0,5.55-.29,6.81-3.81,4.23-11.78,13.34-15.35,25.1-15.28,30.48.19,60.94.08,91.4-.07,16.94-.07,33.88-.45,50.8-.69,23.56,1.19,47.11.55,70.66.24a180,180,0,0,0,55.78-9.65c17-5.81,34.19-11.49,48.06-23.73,3.38-.1,5.8-2.28,8.37-4,15.53-10.62,28.91-23.52,41.56-37.42,10.54-11.57,18-23.71,15.56-40a15.9,15.9,0,0,1,.11-4.3c.22-1.56-.21-3.84,2.35-3.75,2.07.08,2.52,1.93,3.1,3.61,1.28,3.61-1.65,7.89,2.09,12.19,3-6.39,6-11.88,8.31-17.65,19.94-49.83,36.19-101,54.93-151.25,5.32-14.23,7.39-28.78,7.22-43.91C1481.86,468.22,1482.07,441.46,1482,414.71Zm-971.7-34.34h.12c0-5.44,0-10.9,0-16.36,0-1.67.08-3.73,2.4-3.87a3.43,3.43,0,0,1,3.9,3.65c.09,11.46.05,22.93,0,34.41,0,1.87-.91,3.34-3,3.4-2.74.09-3.33-1.91-3.36-4C510.25,391.85,510.32,386.12,510.32,380.37Zm0,56.48q0-7.73,0-15.46c0-2.05.05-4.33,2.66-4.62,2.37-.26,3.8,1.34,3.8,3.66,0,11.45,0,22.89-.15,34.34a3.26,3.26,0,0,1-3.2,3.4c-2.8.11-3.07-2.07-3.11-4.14C510.27,448.31,510.31,442.58,510.31,436.85Zm0,55h.07c0-5.44-.05-10.88,0-16.34,0-1.9-.14-4.47,2.73-4.3a3.84,3.84,0,0,1,3.66,4.06q0,16.75,0,33.52c0,2.3-.93,4-3.5,3.75s-3-2.16-3-4.36C510.31,502.73,510.29,497.27,510.29,491.83Zm0,54.08h.12c0-5.16-.06-10.32,0-15.49,0-1.91-.26-4.42,2.64-4.5s3.78,2.14,3.78,4.66q0,16.33-.07,32.72c0,2.13-.56,4.13-3.29,4.06s-3.16-2.14-3.2-4.21C510.24,557.4,510.31,551.66,510.31,545.91Zm0,41.26c0-2.06.05-4.41,2.64-4.63,2.93-.28,3.9,1.9,3.92,4.47,0,5.44,0,10.9,0,16.34h0c0,5.16.07,10.3,0,15.47,0,2.33-.37,5-3.35,5.09-3.36.16-3.14-2.74-3.15-4.95C510.25,608.37,510.31,597.77,510.31,587.17Zm6.57,86.2c0,2.26.07,5-3.22,4.87-2.54-.06-3.16-2.32-3.18-4.34-.11-11.14-.09-22.27,0-33.39,0-1.7.36-3.8,2.56-3.65a3.81,3.81,0,0,1,3.74,3.94c.07,6,0,12,0,18h.1C516.9,663.64,516.94,668.5,516.88,673.37Zm64.88-162.93c-19.2.18-33.81-14.22-33.91-33.43-.13-19.49,14.07-34.24,33-34.32,19.67-.09,34.59,14.47,34.7,33.81A33.82,33.82,0,0,1,581.76,510.44Zm756-.08c-19.17-.05-33.72-14.71-33.76-34a33.47,33.47,0,0,1,33.19-33.62c20.31,0,34.9,14.64,34.62,34.78C1371.59,495.75,1356.38,510.43,1337.78,510.36Zm66.28-129.91h0c0-5.44,0-10.86,0-16.3,0-1.73.49-3.61,2.71-3.59a3.26,3.26,0,0,1,3.25,3.35c.36,11.43.9,22.86-.29,34.28-.18,1.74-.69,3.6-3,3.24-2-.31-2.73-2-2.75-3.83C1404,391.88,1404.06,386.17,1404.06,380.45ZM1409.48,675c-.21,1.64-.88,2.7-2.59,2.84-2.4.19-2.85-1.45-2.87-3.3,0-5.46,0-10.92,0-16.39h.12c0-5.73,0-11.48,0-17.23,0-1.8.57-3.53,2.9-3.34,1.71.14,2.37,1.47,2.49,3C1410.43,652.08,1410.89,663.56,1409.48,675Zm.58-55.6c-.08,1.78-.6,3.46-2.86,3.54-2.69.11-3.3-1.62-3.3-3.88q0-8.15,0-16.27h.15c0-5.42,0-10.84,0-16.27,0-1.65,0-3.69,2.38-3.74,2.06,0,3,1.38,3.2,3.28A208.5,208.5,0,0,1,1410.06,619.42Zm-6-88.95c0-2,.17-4.31,3.05-4.1a3.27,3.27,0,0,1,3,3.55c0,11.16-.09,22.3-.29,33.45,0,1.54-.11,3.73-2.51,3.78-2.64.07-3.28-2-3.31-4.07-.09-5.72,0-11.43,0-17.17h0C1404.07,540.77,1404,535.62,1404.11,530.47Zm6-21.89c0,1.66-.35,3.52-2.76,3.57-2.68.07-3.4-1.53-3.39-3.83v-17.2h.09c0-4.87,0-9.74,0-14.61,0-2-.21-4.35,2.59-4.57s3.37,1.84,3.38,4C1410.1,486.82,1410.15,497.7,1410.1,508.58Zm0-54.62c-.1,1.85-1,3.33-3.14,3.3-2.74,0-3.11-2-3.11-4.13V436h.19c0-4.86-.07-9.73,0-14.58,0-1.85-.45-4.37,2.62-4.35,2.14,0,2.83,1.67,3,3.49A224.47,224.47,0,0,1,1410.13,454Z"/><path class="cls-1" d="M1337.21,442.77A33.47,33.47,0,0,0,1304,476.39c0,19.26,14.59,33.92,33.76,34,18.6.07,33.81-14.61,34-32.81C1372.11,457.41,1357.52,442.77,1337.21,442.77Zm-.1,60.65c-14.4-.45-26.51-13.32-26.06-27.7a26.92,26.92,0,0,1,53.82,1A27.06,27.06,0,0,1,1337.11,503.42Z"/><path class="cls-1" d="M580.84,442.69c-18.92.08-33.12,14.83-33,34.32.1,19.21,14.71,33.61,33.91,33.43a33.82,33.82,0,0,0,33.78-33.94C615.43,457.16,600.51,442.6,580.84,442.69Zm.61,60.69a27,27,0,0,1-26.8-26.8c-.1-14.64,12-27,26.51-27a27.09,27.09,0,0,1,27.23,27.21C608.4,491.29,596,503.55,581.45,503.38Z"/><path class="cls-1" d="M1410.17,529.92c0,11.16-.09,22.3-.29,33.45,0,1.54-.11,3.73-2.51,3.78-2.64.07-3.28-2-3.31-4.07-.09-5.72,0-11.43,0-17.17h0c0-5.14-.07-10.29,0-15.44,0-2,.17-4.31,3.05-4.1A3.27,3.27,0,0,1,1410.17,529.92Z"/><path class="cls-1" d="M1410.13,454c-.1,1.85-1,3.33-3.14,3.3-2.74,0-3.11-2-3.11-4.13V436h.19c0-4.86-.07-9.73,0-14.58,0-1.85-.45-4.37,2.62-4.35,2.14,0,2.83,1.67,3,3.49A224.47,224.47,0,0,1,1410.13,454Z"/><path class="cls-1" d="M1409.48,675c-.21,1.64-.88,2.7-2.59,2.84-2.4.19-2.85-1.45-2.87-3.3,0-5.46,0-10.92,0-16.39h.12c0-5.73,0-11.48,0-17.23,0-1.8.57-3.53,2.9-3.34,1.71.14,2.37,1.47,2.49,3C1410.43,652.08,1410.89,663.56,1409.48,675Z"/><path class="cls-1" d="M1409.81,398.19c-.18,1.74-.69,3.6-3,3.24-2-.31-2.73-2-2.75-3.83-.07-5.72,0-11.43,0-17.15h0c0-5.44,0-10.86,0-16.3,0-1.73.49-3.61,2.71-3.59a3.26,3.26,0,0,1,3.25,3.35C1410.46,375.34,1411,386.77,1409.81,398.19Z"/><path class="cls-1" d="M1410.1,508.58c0,1.66-.35,3.52-2.76,3.57-2.68.07-3.4-1.53-3.39-3.83v-17.2h.09c0-4.87,0-9.74,0-14.61,0-2-.21-4.35,2.59-4.57s3.37,1.84,3.38,4C1410.1,486.82,1410.15,497.7,1410.1,508.58Z"/><path class="cls-1" d="M1410.06,619.42c-.08,1.78-.6,3.46-2.86,3.54-2.69.11-3.3-1.62-3.3-3.88q0-8.15,0-16.27h.15c0-5.42,0-10.84,0-16.27,0-1.65,0-3.69,2.38-3.74,2.06,0,3,1.38,3.2,3.28A208.5,208.5,0,0,1,1410.06,619.42Z"/><path class="cls-1" d="M516.81,508.77c0,2.3-.93,4-3.5,3.75s-3-2.16-3-4.36c0-5.43,0-10.89,0-16.33h.07c0-5.44-.05-10.88,0-16.34,0-1.9-.14-4.47,2.73-4.3a3.84,3.84,0,0,1,3.66,4.06Q516.82,492,516.81,508.77Z"/><path class="cls-1" d="M516.88,673.37c0,2.26.07,5-3.22,4.87-2.54-.06-3.16-2.32-3.18-4.34-.11-11.14-.09-22.27,0-33.39,0-1.7.36-3.8,2.56-3.65a3.81,3.81,0,0,1,3.74,3.94c.07,6,0,12,0,18h.1C516.9,663.64,516.94,668.5,516.88,673.37Z"/><path class="cls-1" d="M516.76,398.2c0,1.87-.91,3.34-3,3.4-2.74.09-3.33-1.91-3.36-4-.11-5.73,0-11.46,0-17.21h.12c0-5.44,0-10.9,0-16.36,0-1.67.08-3.73,2.4-3.87a3.43,3.43,0,0,1,3.9,3.65C516.87,375.25,516.83,386.72,516.76,398.2Z"/><path class="cls-1" d="M516.88,603.35h0c0,5.16.07,10.3,0,15.47,0,2.33-.37,5-3.35,5.09-3.36.16-3.14-2.74-3.15-4.95-.06-10.59,0-21.19,0-31.79,0-2.06.05-4.41,2.64-4.63,2.93-.28,3.9,1.9,3.92,4.47C516.92,592.45,516.88,597.91,516.88,603.35Z"/><path class="cls-1" d="M516.78,420.43c0,11.45,0,22.89-.15,34.34a3.26,3.26,0,0,1-3.2,3.4c-2.8.11-3.07-2.07-3.11-4.14-.05-5.72,0-11.45,0-17.18q0-7.73,0-15.46c0-2.05.05-4.33,2.66-4.62C515.35,416.51,516.78,418.11,516.78,420.43Z"/><path class="cls-1" d="M516.88,530.58q0,16.33-.07,32.72c0,2.13-.56,4.13-3.29,4.06s-3.16-2.14-3.2-4.21c-.08-5.75,0-11.49,0-17.24h.12c0-5.16-.06-10.32,0-15.49,0-1.91-.26-4.42,2.64-4.5S516.88,528.06,516.88,530.58Z"/><path class="cls-1" d="M1536.74,437.7c-1.78,11.73-5.65,22.15-10.44,32.24-.77,1.61-2.16,3.74-4.67,2.61-2.33-1.05-2.2-3.22-1.56-5.19q5-15.5,10.21-30.92c.67-2,2.23-3.72,4.45-3.19C1537.28,433.86,1536.6,436.39,1536.74,437.7Z"/><path class="cls-1" d="M1501.08,544.15c-3.57,9.54-7.38,20-11.43,30.33-.69,1.78-2.31,3.68-4.72,2.4-2.21-1.18-1.87-3.66-1.27-5.4,3.66-10.53,7.56-21,11.39-31.47.65-1.77,1.75-3.12,3.8-2.26C1501.25,538.76,1500.44,541.13,1501.08,544.15Z"/><path class="cls-1" d="M1419.5,749c-5.84,9.15-12.09,19.08-21.3,26.66-1,.8-2.9,1.3-3.91,0-1.45-1.82-.66-3.73.65-5.45,4.28-5.61,9-10.53,9.59-18.64.2-2.58,8.75-4.8,13.69-6.6C1420,744.36,1420,746.59,1419.5,749Z"/><path class="cls-1" d="M1444.73,700.2a89.85,89.85,0,0,1-12.2,28.07c-1.18,1.88-3.07,3.89-5.66,2.78-3.25-1.4-1.34-3.95-.51-5.81q5.91-13.26,12.18-26.35c.91-1.89,2.13-4.55,5-3.26C1445.31,696.41,1445.12,698.47,1444.73,700.2Z"/><path class="cls-1" d="M1501.7,518.49c3.6-9.48,7.28-19.38,11.12-29.21.72-1.84,2.06-3.94,4.44-3,2.2.87,2.16,3,1.45,5.15-3.28,9.75-6.43,19.53-9.86,29.22-.74,2.13-2.38,4.23-5.19,3.45S1502,520.94,1501.7,518.49Z"/><path class="cls-1" d="M1335.1,821.18a221,221,0,0,1-30.29,10.92c-2.16.59-4.73,1.86-5.65-1.29-.76-2.57,1.18-4.2,3.45-5.12,3.88-1.58,7.81-3.06,11.71-4.59,5.84-1.88,11.67-3.8,17.52-5.63,1.86-.59,4.11-1.41,5.34.74S1335.79,819.49,1335.1,821.18Z"/><path class="cls-1" d="M1369.38,801.6a37.91,37.91,0,0,0-10.75,7.55c-2.82.82-6.12,3.57-8-.95-1.5-3.61,1.73-4.79,4.17-6.32,7.52-4.71,15.08-9.36,21.71-15.33,1.7-1.53,4-3.23,6-1s.12,4.38-1.55,5.93C1377.21,795,1373.26,798.24,1369.38,801.6Z"/><path class="cls-1" d="M1481.91,597a194.72,194.72,0,0,1-10.41,28.84c-.74,1.61-1.79,3.32-3.78,2.84-2.75-.66-2.08-3.2-1.72-5,2.08-10.46,6.45-20.17,10.09-30.13.68-1.84,2.08-2.87,4-2.51C1482.9,591.63,1482.28,593.9,1481.91,597Z"/><path class="cls-1" d="M1537.49,411.78c-.35,1.88,2.09,6.69-3.21,6.87-4.25.14-3.72-4.45-3.88-7.28-.47-8.64-2.91-16.8-5.17-25.05-.48-1.75-1.65-4.43.51-5.43,2.61-1.19,4.23,1.25,5.14,3.35C1534.5,392.67,1537.22,401.36,1537.49,411.78Z"/><path class="cls-1" d="M1448.32,680.73c.59-14.13,5.46-26.87,13.14-38.63C1461.65,656.46,1455.3,668.66,1448.32,680.73Z"/><path class="cls-1" d="M519.88,774.94c-1.15-1.18-2.29-2.36-3.44-3.53l-2.32-2.48-10.91-13c-.88-2.56-3.89-5-1.61-7.82,2.48-3.08,4.77,1.47,6.49,1,9.23-2.38,8.59,3.57,9.23,9.5.47,4.41,4.56,7.09,7.16,10.47,1.89,2.46,6.86,4.57,3.59,8.24C525.37,780.34,522.58,776.1,519.88,774.94Z"/><path class="cls-1" d="M475.77,701.68c-.14-1.45-.18-2.94,1.26-3.78a3,3,0,0,1,4.27,1.5c4.85,10.26,9.52,20.62,14.13,31a3,3,0,0,1-1.32,3.72c-1.47,1-2.73.25-3.64-1A89.49,89.49,0,0,1,475.77,701.68Z"/><path class="cls-1" d="M422.65,541.27c3,.09,3.56,1.92,4.11,3.46q5.17,14.57,10.13,29.21c.69,2.06,1.82,4.9-1.25,5.83-2.52.77-4.25-1.34-5.1-3.59-3.51-9.37-7-18.75-10.28-28.2C419.24,545.05,420,542.39,422.65,541.27Z"/><path class="cls-1" d="M381.24,415.08c1.12-10.31,2.35-20,6.62-28.92.93-1.93,2.06-4.67,5-3.46,2.36,1,1.67,3.49,1.17,5.32-2.81,10.24-5.3,20.53-6.43,31.11-.21,2-1.13,3.69-3.12,3.13C380.47,421.12,381.48,417.45,381.24,415.08Z"/><path class="cls-1" d="M455.33,626.81c-.21,2.29.28,4.3-2.09,4.78a3.59,3.59,0,0,1-4.21-2.17c-4.67-9.86-7.74-20.29-10.76-30.73-.53-1.86.44-3.33,2.29-4,1.55-.6,3.08-.2,3.63,1.25C448.15,606.32,453,616.42,455.33,626.81Z"/><path class="cls-1" d="M385.74,437c2.36.39,3.13,1.77,3.76,3.5,3.56,9.67,7.19,19.32,10.81,29,.87,2.3,1.4,4.69-1.27,6s-4.18-.51-5-3c-3.42-10.31-6.91-20.6-10.24-30.94C383.15,439.51,383.32,437.47,385.74,437Z"/><path class="cls-1" d="M418.71,521.34c0,3.33.36,5.63-2.39,6.14-2,.37-3.4-1-4-2.66q-5.56-15.33-10.82-30.77c-.55-1.6-.3-3.57,1.87-4.18a3.5,3.5,0,0,1,4.27,2.12C411.6,502.12,415.34,512.33,418.71,521.34Z"/><path class="cls-1" d="M473.87,678.64c-.26,2.14.42,3.87-1.39,4.44-1.6.5-2.82-.56-3.42-1.89-4.61-10.06-8.66-20.33-11-31.18-.28-1.28-.35-3,1.33-3.62a2.61,2.61,0,0,1,3.4,1.8C466.59,658.55,470.34,669,473.87,678.64Z"/><path class="cls-1" d="M1259.09,840.42c-3.42,0-6.84.06-10.25,0-1.72,0-3.47-.31-3.56-2.66-.08-2,.69-3.24,2.82-3.43,11.34-1,22.67-2.12,34-3.07,1.63-.14,3.79,0,3.88,2.28.08,1.94-1.73,2.75-3.39,3.35C1275,839.59,1267.09,840.17,1259.09,840.42Z"/><path class="cls-1" d="M1043.58,840.2c-5.16,0-10.33,0-15.49,0-1.72,0-3.55-.27-3.51-2.7,0-2.26,1.62-2.88,3.46-2.9q16.35-.12,32.71-.11c2.06,0,4.28.57,4,3.22-.2,2.12-2.24,2.3-4,2.31-5.74,0-11.48,0-17.22,0Z"/><path class="cls-1" d="M1099,840.17c-5.14,0-10.29,0-15.43,0-2,0-4.26.12-4.08-2.92.13-2.24,1.77-2.7,3.59-2.71,10.86-.09,21.73-.18,32.59-.18,2.31,0,3.84,1.17,3.56,3.71s-2.33,2.08-3.93,2.1C1109.89,840.22,1104.45,840.18,1099,840.17Z"/><path class="cls-1" d="M1153.81,834.43h15.51c2.36,0,5,0,5,3.24,0,2.91-2.65,2.59-4.51,2.61-10.34.13-20.67.16-31,.16-2.29,0-5.07-.05-4.88-3.29s3-2.81,5.29-2.82c4.88,0,9.76,0,14.64,0Z"/><path class="cls-1" d="M1209.46,840.3c-5.15,0-10.3.06-15.45,0-1.66,0-3.56-.1-3.77-2.45-.26-2.82,1.69-3.32,3.82-3.34q16.32-.12,32.64-.13c1.76,0,3.63.55,3.87,2.59.32,2.81-1.9,3.13-4,3.16-5.72.07-11.44,0-17.16,0Z"/><path class="cls-1" d="M607.07,831.19c-4.68-1.92-9.46-3.61-14-5.81-3.33-1.62-9.06-2.68-7.45-7.5,1.54-4.58,5.87,1,9-.18,6.9,4.1,14.79,5.55,22.18,8.34,2.67,1,6.66,1.56,5.84,4.87-1,4.07-5.21,2-8.07,1.79A51.37,51.37,0,0,1,607.07,831.19Z"/><path class="cls-1" d="M660,840.21c-4,.38-10.2-1.07-16.44-1.93-2.87-.39-5.46-1.53-5.17-4.58.31-3.24,3.51-2.38,5.6-2.2,9.72.83,19.41,1.91,29.13,2.78,2.32.21,4,1.06,4.08,3.46,0,3.21-2.76,2.31-4.51,2.41C669.21,840.36,665.75,840.21,660,840.21Z"/><path class="cls-1" d="M802.28,835.75l4.55-2c9.7.19,19.41.32,29.11.61,2.63.08,6.61-1.24,6.95,2.84.39,4.6-3.94,3.2-6.35,3.26-9.43.23-18.86.09-28.3.09C805,840.53,801.59,840.69,802.28,835.75Z"/><path class="cls-1" d="M878.92,834.32c5.46,0,10.92-.08,16.37,0,2,0,4.41.38,4.38,3s-2.49,2.82-4.5,2.84q-16.35.18-32.71.18c-1.7,0-3.52-.25-3.7-2.59-.22-2.76,1.59-3.42,3.79-3.44C868,834.29,873.46,834.33,878.92,834.32Z"/><path class="cls-1" d="M748.24,834.82,750,834q16.26.06,32.51.12c2.57,0,5.62-.38,5.48,3.46-.13,3.5-3.21,2.58-5.24,2.61-10,.16-20,.06-29.93.26C748.54,840.57,747.07,838.88,748.24,834.82Z"/><path class="cls-1" d="M713.72,834.45c5.15,0,10.29,0,15.44,0,2.18,0,4.1.73,3.9,3.36-.17,2.34-2.18,2.25-3.86,2.26-10.87.09-21.73.17-32.6.18-1.76,0-3.44-.48-3.41-2.83s1.53-2.94,3.37-3C702.28,834.4,708,834.45,713.72,834.45Z"/><path class="cls-1" d="M803.25,242.6c-2.1,3-2.67,4.79-3.69,5.09a210.85,210.85,0,0,1-35,6.85c-2.44.3-2.85-1.64-3.15-3.2-.53-2.67,1.54-3.25,3.55-3.67A251.85,251.85,0,0,1,803.25,242.6Z"/><path class="cls-1" d="M824.49,246.85a21.24,21.24,0,0,1-4.63.21c-1.61-.23-3.58-.7-3.8-2.78s1.32-3.07,3.14-3.34q16.49-2.46,33-4.8c2-.28,3.48.42,3.44,2.61s-1.34,3.51-3.72,3.86C842.91,243.93,833.92,245.38,824.49,246.85Z"/><path class="cls-1" d="M1066.4,236.3c10.21.89,19.6,1.65,29,2.57,2.08.21,5.08-.13,4.81,3.37-.23,3.06-2.79,3.38-5.08,3.19-10.52-.87-21-2-31.54-2.84-2.12-.18-3.11-.88-2.89-3.05C1061.13,234.9,1064.71,236.74,1066.4,236.3Z"/><path class="cls-1" d="M1371.07,296.93c-12.76,1.4-23.79-4.53-35.48-7.62-1.9-.5-3-1.81-2.54-3.78s2.26-1.5,3.52-1.33C1349,285.88,1360.82,289.07,1371.07,296.93Z"/><path class="cls-1" d="M568.72,812.2a5.89,5.89,0,0,1-1.89-.49c-9.21-5.19-18.1-10.84-26-18-1.35-1.22-2.63-3-1.85-4.44,1.13-2,3.73-1.42,5.29-.46,8.74,5.35,17.37,10.91,26,16.48,1.89,1.22,2.18,3.28,1.69,5.36C571.65,812,570.52,812.29,568.72,812.2Z"/><rect class="cls-2" width="1" height="1"/><rect class="cls-2" x="1919" y="1079" width="1" height="1"/><rect class="cls-2" y="1079" width="1" height="1"/><rect class="cls-2" x="1919" width="1" height="1"/></g><g id="Capa_3" data-name="Capa 3"><path d="M798.38,569.48v111H778.55V609.76L759,624.67l-16.18,12.54-16.18-12.54-19.51-14.91v70.75H687.34v-111l19.83,15.22,35.69,27.44,35.69-27.44Z"/><path d="M852.3,606.43v75.5H832.47V604.37A15.8,15.8,0,0,0,819,590.89h-4.44V571.22h4.28v.16a35.4,35.4,0,0,1,29.5,19.83,42.26,42.26,0,0,1,2.7,7.45,33.47,33.47,0,0,1,1,8.09Z"/><path d="M978.39,661v19.82H867.68V648.15a31.54,31.54,0,0,1,2.7-12.85,32.56,32.56,0,0,1,28.87-20h48.06a13,13,0,0,0-1.11-25.86H868V569.63h78.2a32.63,32.63,0,0,1,32.67,32.68A32.4,32.4,0,0,1,969.51,625a32.89,32.89,0,0,1-22.36,10h-47.9a12.91,12.91,0,0,0-11.58,12.85v12.85Z"/><path d="M1105.6,603.1a32.67,32.67,0,0,1-9.2,22.84,32.76,32.76,0,0,1-23.48,55.52H994.73V661.63h78.19a13.07,13.07,0,0,0,13-13,12.92,12.92,0,0,0-12.21-13h-59V615.79h59a13,13,0,0,0-.64-26h-78.2V570h78.2a32.63,32.63,0,0,1,32.68,32.68Z"/><path d="M1232.48,569.48v111h-19.82V634.83h-58.53a31.39,31.39,0,0,1-14.91-3.65,32.41,32.41,0,0,1-17.77-29V569.48h19.83v32.67a13.07,13.07,0,0,0,13,13h58.52V569.48Z"/></g></g></svg>