<svg xmlns="http://www.w3.org/2000/svg" viewBox="0 0 1920 1080"><defs><style>.cls-1{fill:#f2f2f2;}.cls-2{isolation:isolate;}</style></defs><g id="Capa_2" data-name="Capa 2"><g id="Capa_1-2" data-name="Capa 1"><g id="Capa_2-2" data-name="Capa 2"><g id="Capa_1-2-2" data-name="Capa 1-2"><rect class="cls-1" width="1" height="1"/><rect class="cls-1" x="1919" y="1079" width="1" height="1"/><rect class="cls-1" y="1079" width="1" height="1"/><rect class="cls-1" x="1919" width="1" height="1"/><path d="M1741.59,548.05l-3.73-14c-23.69,0-46.61-.6-69.47.24-12.07.44-15.49-4-15.28-15.52.58-32,.38-64.06.19-96.11-.22-39.13-18.93-67-54.77-81.58q-26.4-10.72-53.18-20.46c-29.15-10.52-58.28-21.15-87.77-30.64-30-9.64-60.23-18.46-90.63-26.68-29.91-8.08-60-15.61-90.28-22.2-30.76-6.7-61.72-12.73-92.81-17.64-30.62-4.83-61.43-9.29-92.33-11.35-30.2-2-60.6-.86-90.93-1-12.26-.07-24.53,0-37.08,0-.64-9.06-1.1-15.74-1.57-22.44l-2.21-.07c-.62,7-1.25,14-1.78,20.12-18.63,2.31-36.11,4.56-53.61,6.55-1.73.2-3.61-1.41-5.48-2-7.36-2.14-14.76-6-22.13-6L819.67,212c-11.8,1.63-23.57,3.43-35.4,4.88-160.39,19.84-313.88,65.39-463.41,125.24-34.63,13.85-52,41.12-52.57,78.37-.47,29.52,0,59.06,0,88.58v25.5H184c-9.68,7.66-4.7,157.9-4.7,157.9,0,25.39,10.12,35.75,35.16,35.8q51.81,0,103.62-.19h20.37c0,16.23,1,30.23-.25,44-1.57,17.9,5.68,30.21,19.1,41.29,25.07,20.71,49.25,42.5,73.73,63.93,2.71,2.38,4.93,5.31,8.58,9.3l6.38,3.49c42.31,0,33.92,2.5,39.22-26.37h22.42c1.08,5.18,2.17,10.37,3.39,16.27H599.8c1.34-5.86,2.53-11.06,3.9-17.07,23,0,45.45.11,67.93-.06,6,0,12.28.15,17.78-1.69,61.21-20.48,124.2-25.24,188.16-22.49,11.79.51,24.31,2.34,32-10.83,1.16-2,6.38-2.11,9.73-2.14,27.51-.28,55-.44,82.56-.31,3.7,0,9.33.71,10.78,3.09,6.84,11.28,17.43,10.27,27.91,10,60.7-1.28,121.06-.15,179.67,19.12,11.59,3.8,24.46,4.57,36.8,5,20.33.79,40.72.21,61.1.21,1.31,6.5,2.27,11.32,3.35,16.64h89.34c1.12-6,2-10.82,2.85-15.38H1435c3.43,9.54,4.55,22.3,9.21,23.77,12.19,3.8,26.34,6.73,38.2-3.63,29-25.35,58-50.76,87.26-75.83,9.45-8.09,14-17.5,13.56-30.08-.6-16.3-.15-32.65-.15-50.34,43.14,0,83.61.08,124.09,0,24.71,0,34.87-10,34.85-34.37C1742,645.15,1741.62,596.59,1741.59,548.05Zm-693-327.76c158.92,9.89,311.86,47.7,461.55,100.17,28.27,9.92,56.23,20.78,84,32.13,10.14,4.16,19.2,11,28.75,16.57l-2.71,3.36C1430.47,288.9,1234,233.6,1024.94,230c-.14-1.81-.27-3.6-.4-5.39,8-1.54,16.12-4.8,24-4.32ZM1027.08,236c22.94,1.9,45.81,4.57,68.75,6.39,23.83,1.89,47.81,2.12,71.52,4.86,21,2.45,41.67,7.42,62.51,11.15,26.19,4.69,52.59,8.45,78.57,14.13,19.67,4.31,38.79,11,58.18,16.64,26,7.51,52.23,14.55,78.09,22.67,10.1,3.17,23.23,4.38,24.69,18.4-75.9-19-150.19-41.08-225.9-55.75-74.87-14.51-151.19-21.59-226.88-31.93q0-2.06-.06-4.14C1020.07,237.6,1023.67,235.75,1027.08,236ZM1005,227.87c-30.81,5-40.15,3-41.4-9.54C1000.86,214.31,1005.19,215.36,1005,227.87Zm-47.09-9.58c-1.06,12.31-1.06,12.31-40.06,10.53-3.11-13.32,1.41-14.56,40-10.53ZM904,239.82c.2.92.41,1.84.62,2.77-4.78,1.58-9.5,4.31-14.36,4.58-147.7,8.38-291.27,37.73-431.41,84.6a47.89,47.89,0,0,1-5,1.08c-4.41-9.68-1.07-14.19,8.93-16.76,12.78-3.27,25.1-8.3,37.82-11.87,10-2.82,20.4-4.11,30.41-6.91,36.87-10.29,73.36-22.08,110.55-31,24.83-6,50.61-7.91,75.93-11.88,23.14-3.63,46.17-8.14,69.39-11.1,10.22-1.31,20.89,1.22,31.2.32,21.11-1.87,42.08-5.4,63.19-7.12C888.7,235.92,896.4,238.62,904,239.82ZM325.55,353.3C481.72,290.9,642,243.81,809.86,226c18.9-2,37.8-4.5,56.76-5.31,10.62-.45,21.37,2.09,32.24,6.21-210,6.46-407.63,61.68-598.25,146-.61-1.11-1.23-2.21-1.84-3.33C307.67,364.1,316,357.13,325.55,353.3ZM370,807.5c8.9-9.93,12.68-19.16.52-28.38-1.31-1-.7-6.93,1-9,10.5-13.15,21.54-25.86,34-40.53,15,19.39,44.3,23.91,44.32,54.6,1.2-3.4,2.38-6.8,4.34-12.34l25.13,21.65c-12.65,14.26-24.33,27.66-36.4,40.69-1.57,1.71-5.46,2.7-7.76,2.08-15.83-4.3-15.79-4.46-26.37,5.05Zm139.37,42.11c-11.3.7-22.81-1.61-30.33,2.83-6.11,3.62-7.46,15.32-11.88,25.71-24.64,6-33.54-20.29-52.49-30.5l8.77-11.17c13.55,14.64,22.46,6.35,31.4-5.14a323.18,323.18,0,0,1,22.88-25.77c8.76-9,7.08-16.14-1.94-23.9-9.78-8.37-18.7-17.73-28-26.67.51-.85,1-1.69,1.55-2.53-3.59-.82-7.67-.82-10.64-2.64-4.63-2.86-8.49-7-12.69-10.52-20.37-17.22-20.37-17.2-40,.65-3.94-3.44-7.93-7-12.06-10.45-3.44-2.87-7-5.55-10.54-8.31l-3.51,3.8,24.86,18.54c-7,8.28-10.85,13.34-15.21,18-8.13,8.64-12.64,16.72-.9,26.53,2,1.68-.31,8.56-.72,14.2C354,796.8,350,789,350.43,777.71c.47-12,.13-24,.07-36-.12-22.17-3.41-25.52-24.91-25.55q-54-.06-108.11-.16c-21.49,0-25.87-4.23-25.91-25-.06-43,.34-86.11-.24-129.15-.17-11.74,3.43-16.33,15.33-15.7,14,.74,28,.21,42.05.2,29.12,0,31.3-2.18,31.37-32,.08-31.54-.27-63.08.14-94.61.36-27.46,5.2-34.15,29.5-42.57-4.57,7.55-8.69,14.34-12.79,21.13l3.26,2.35c6.35-8.09,12.75-16.16,19-24.32,1.4-1.82,1.86-5.08,3.55-5.81,16.84-7.26,33.81-14.23,50.83-21.07,11.42-4.59,22.87-9.13,34.51-13.11,12-4.1,24.24-7.49,36.39-11.19l3.22,4.62c-4.2,3.54-7.87,8.42-12.71,10.41-30.52,12.5-61.36,24.28-92,36.47-23.6,9.39-34.73,26.78-34.57,52.39.37,63.07,0,126.15.15,189.22.08,29.64,20.12,49.76,50,50.15,28.41.37,56.85.08,86,.08,1,7,1.83,12.75,2.65,18.51l2.65.56c1.23-5.07,2.44-10.15,4.44-18.5,17.76,18.15,34.44,34.42,50,51.67,3.57,4,4.73,11.24,4.79,17,.44,37,.24,73.94.24,111.93Zm694.74-8.49c-52.07-17.8-106.52-15.48-160.59-14.44-8.87.18-17.76,1.44-23.36-8.63-1.47-2.66-7-4.28-10.64-4.33-32.17-.45-64.37-.54-96.56-.45-3.31,0-8.24.89-9.64,3.12-8.43,13.39-21.5,10.49-33.5,10-62-2.86-122.28,5.32-182.45,21.54C661.4,854.86,632,849,604.2,849c-.9-1-1.81-2.06-2.71-3.1,5.53-4,11.2-11.77,16.57-11.56,56.57,2.16,108.53-22.47,163.81-27.12,46.85-3.94,93.67-8.3,140.55-11.76,4.89-.35,9.94,5.24,15.26,6.13,10.51,1.77,21.26,2.19,31.92,3.16.18-1.68.38-3.34.56-5l-24.34-2.93V795c21.26,0,42.56-.91,63.76.16,83.12,4.24,165.42,14,246,36,12.21,3.32,25.79,1.5,38.71,2.46,6.5.48,12.92,1.84,19.38,2.8,0,1.37,0,2.74-.07,4.13q-8.14,1.07-16.26,2.16c-.16,1-.31,2.06-.47,3.09l16.88,3.71c-36.81.43-73.48,4-109.68-8.38Zm202.32-98.46c-.9,32-.35,64-.35,96.87l-17.18,4.73,16.2,5.42V873.9H1326c.52-10.5,1-20.47,1.52-31-9.69-16.61-27.28-14.51-44.86-16.34-26.15-2.72-52-9-77.8-14.38-67.3-14.12-135.42-20.74-204-23.35-4.49-.17-9-.43-14.63-.7-.72-7.86-1.41-15.52-2.11-23.16l-3.28-.41c-.89,7.21-1.78,14.44-2.79,22.64l-14.61,1.2V725.6l-4-.09v61.75l-15.83.82c-.84-8.2-1.62-15.74-2.39-23.27l-3.55-.29-2.51,23.19-50.11,2.86c-73.61,4.13-146.19,14.58-217.61,33.4-12.76,3.36-26.71,2.68-40.12,3-24.93.59-31.84,7.3-32,32.47v14.31h-79V848.58l25.52-1.9-.15-4.28L515.48,841V787c0-15,1.77-30.31-.54-45-1.93-12.19-6.08-25.81-13.8-34.92-13.08-15.43-29.89-27.67-44.82-41.61-3-2.78-4.49-7.11-5.91-9.45-5.23,1.9-10.77,5.55-16.42,5.7-25,.65-50,.54-75.06.24-27.12-.33-44.18-17.18-44.28-44.2-.24-64.06,0-128.12-.08-192.19,0-19.7,9.22-34,26.77-41.42,31.29-13.25,63.06-25.36,94.85-37.4,3.41-1.29,8.21,1.06,11.36,1.55,6.61-4.32,12.7-10.32,20-12.74,135.39-45.09,274.13-73.28,416.72-82.23,9.43-.59,18.42-7.48,27.68-11.25,7.29-3,14.7-5.62,24.78-9.46v34.44l4.07.28c.81-9.37,1.62-18.76,2.51-29,8.59-.35,18.61-5,16.17,8.29L978,231.35c1.08,15.09,1.83,25.52,2.58,35.93l3.84-.16V239.06c11.75-1.13,20.79-3.35,29.4,7,4.21,5.08,14.16,7,21.68,7.46C1178.08,262,1316.87,290,1452.29,335.1c7.74,2.57,14.38,8.44,21.71,12.87,2.8-.25,8.14-2.34,12.12-.84,31.3,11.84,62.55,23.91,93.42,36.85,18.26,7.68,27.49,22.19,27.44,42.5-.15,63.57.06,127.12-.09,190.68-.06,27.78-17.07,44.66-45.12,44.93-24.52.23-49,.35-73.57-.2-5.63-.13-11.19-3.22-16.56-4.88-2.79,2.74-7,6.83-11.18,11C1444.8,683.34,1428,697.8,1414,714.55c-5.72,6.81-7.35,18.53-7.61,28.11Zm105.9,99.08c-8.32-10.2-17.13-17.42-28.42-2.07-14-15.73-26.7-30-41-46.11,7.86-7.09,15.43-13.92,24.32-21.92,1.67,5.06,2.91,8.84,4.19,12.75,1.29-.67,2.81-1.15,2.77-1.49-1.63-15.49,7.4-24.7,18.69-33,7.61-5.58,14.64-12,24.93-20.52,3.24,5.5,6.24,10.63,9.25,15.75l3.74,3.37q-11.9,8.78-23.8,17.5c1.07,1.25,2.15,2.5,3.22,3.76l24.19-18.83c5.58,6.65,11.14,12.38,15.5,18.9,1.72,2.59,2.31,9.07.81,10.16-12.44,9-7,17.79.91,27.5ZM1730.1,695.86c-.08,14.81-6,20.19-21.63,20.24-38,.11-76.07-.16-114.1-.1-19.53,0-23.47,4.36-23.26,24.1.12,12,1.19,24.16-.26,36-1.09,8.9-5.54,17.37-9.72,29.7-6.59-7.34-9.33-10.41-12.86-14.35,16.33-10.6,12.77-20.86,1.64-32.12-8.4-8.5-15.45-18.33-23.08-27.6-6.31-7.67-13-8.35-20.54-1.58s-14.92,13.37-22.88,19.41c-2.88,2.17-7.16,2.48-9.68,3.3-6.12,6.91-11.7,14.68-18.68,20.88-20.93,18.56-21.14,18.32-4.58,40.39l-14.74,16.14c.65.93,1.32,1.87,2,2.79l17.6-12.08c14.68,4.28,17.64,37.8,42.56,15.94l7.85,8.68c-5,13.64-38.86,33.31-53.57,31.71-5.46-25-5.46-25-37.07-27.66l14-9.1-16.24-2c0-34.76-.12-69.2.16-103.63,0-4.34,1-9.78,3.67-12.79,15.83-17.62,32.29-34.68,50.59-54.12,1.84,9.57,2.8,14.51,3.76,19.46l2.77.11c1-5.9,2.08-11.81,3.36-19.11h81c35.86-.07,54.71-18.54,54.85-54.39.21-62.06,0-124.13.13-186.19.07-24.89-11.29-41.95-34.26-51.1-31.12-12.39-62.42-24.3-93.42-37-4.52-1.84-7.79-6.72-11.63-10.21,1.47-2.22,3-4.44,4.42-6.67,44.74,23.2,98.29,27.12,138.65,69.86-2-7.39-3-11-5.07-18.88,9.7,7.11,19.61,10.84,23.14,17.79,4.73,9.33,5.93,21.13,6.18,31.92.75,33,.2,66.07.41,99.1.12,18.38,5,23.29,23.06,23.48,17.52.2,35,.13,52.55-.33,9.69-.26,13.22,3.68,13.16,13.35C1730,604.76,1730.35,650.32,1730.1,695.86Z"/><path class="cls-1" d="M1606.89,617.16c-.06,27.78-17.07,44.66-45.12,44.93-24.52.23-49,.35-73.57-.2-5.63-.13-11.19-3.22-16.56-4.88-2.79,2.74-7,6.83-11.18,11C1444.8,683.34,1428,697.8,1414,714.55c-5.71,6.81-7.34,18.53-7.6,28.11-.9,32-.35,64-.35,96.87l-17.18,4.73,16.2,5.42V873.9H1326c.52-10.5,1-20.47,1.52-31-9.69-16.61-27.28-14.51-44.86-16.34-26.15-2.72-52-9-77.8-14.38-67.3-14.12-135.42-20.74-204-23.35-4.49-.17-9-.43-14.63-.7-.72-7.86-1.41-15.52-2.11-23.16l-3.28-.41c-.89,7.21-1.78,14.44-2.79,22.64l-14.61,1.2V725.6l-4-.09v61.75l-15.83.82c-.84-8.2-1.62-15.74-2.39-23.27l-3.55-.29-2.51,23.19-50.11,2.86c-73.61,4.13-146.19,14.58-217.61,33.4-12.76,3.36-26.71,2.68-40.12,3-24.93.59-31.84,7.3-32,32.47v14.31h-79V848.58l25.52-1.9-.15-4.28L515.48,841V787c0-15,1.77-30.31-.54-45-1.93-12.19-6.08-25.81-13.8-34.92-13.08-15.43-29.89-27.67-44.82-41.61-3-2.78-4.49-7.11-5.91-9.45-5.23,1.9-10.77,5.55-16.42,5.7-25,.65-50,.54-75.06.24-27.12-.33-44.18-17.18-44.28-44.2-.24-64.06,0-128.12-.08-192.19,0-19.7,9.22-34,26.77-41.42,31.29-13.25,63.06-25.36,94.85-37.4,3.41-1.29,8.21,1.06,11.36,1.55,6.61-4.32,12.7-10.32,20-12.74,135.39-45.09,274.13-73.28,416.72-82.23,9.43-.59,18.42-7.48,27.68-11.25,7.29-3,14.7-5.62,24.78-9.46v34.44l4.07.28c.81-9.37,1.62-18.76,2.51-29,8.59-.35,18.61-5,16.17,8.29L978,231.35c1.08,15.09,1.83,25.52,2.58,35.93l3.84-.16V239.06c11.75-1.13,20.79-3.35,29.4,7,4.21,5.08,14.16,7,21.68,7.46C1178.08,262,1316.87,290,1452.29,335.1c7.74,2.57,14.38,8.44,21.71,12.87,2.8-.25,8.14-2.34,12.12-.84,31.3,11.84,62.55,23.91,93.42,36.85,18.26,7.68,27.49,22.19,27.44,42.5C1606.83,490.05,1607,553.6,1606.89,617.16Z"/><path d="M1632.48,643.13l-12.83,30.19-5.44-2.26q6.4-14.71,12.82-29.43Z"/><path d="M1222.8,833.56,1279.87,844C1266.09,852,1237.79,847.63,1222.8,833.56Z"/><path d="M875.36,808.79l-32,3.16c-.16-2-.31-4-.47-5.93l32-2.71Z"/><path d="M746.9,821.75l32.36-6.19,1.14,5.65-32.66,7Z"/><path d="M827.75,814.29l-32.84,4.57-.9-6,32.83-4.71C827.14,810.21,827.45,812.25,827.75,814.29Z"/><path d="M1082.54,806.88l32.21,4.41c-.23,2.07-.45,4.13-.68,6.2l-32.24-4.87Z"/><path d="M684.73,836.36c-11.14,12.29-20.33,13.79-31.37,6.9Z"/><path d="M1498.7,781.13l-25.89,22.72-3.65-4.18,26-23.77Z"/></g><g id="Capa_3" data-name="Capa 3"><g class="cls-2"><path d="M798.37,481.87v111H778.54V522.16L759,537.07,742.86,549.6l-16.18-12.53-19.51-14.91V592.9H687.34v-111l19.83,15.23,35.69,27.44,35.68-27.44Z"/><path d="M852.29,518.83v75.5H832.47V516.77A15.83,15.83,0,0,0,819,503.28h-4.45V483.61h4.29v.16a35.55,35.55,0,0,1,13.48,3.65,35.17,35.17,0,0,1,16,16.18,42.55,42.55,0,0,1,2.7,7.45,33.53,33.53,0,0,1,1,8.09Z"/><path d="M978.39,573.39v19.83H867.68V560.54a31.61,31.61,0,0,1,2.69-12.84,32.58,32.58,0,0,1,28.87-20H947.3a13,13,0,0,0-1.11-25.86H868V482h78.19a32.63,32.63,0,0,1,32.68,32.67,32.4,32.4,0,0,1-9.36,22.68,33,33,0,0,1-22.37,10h-47.9a12.91,12.91,0,0,0-11.58,12.85v12.84Z"/><path d="M1105.59,481.87v111h-19.82V547.22h-58.53a31.42,31.42,0,0,1-14.91-3.65,32.4,32.4,0,0,1-17.77-29V481.87h19.83v32.67a13.07,13.07,0,0,0,13,13h58.53V481.87Z"/><path d="M1230.1,501.85a34.31,34.31,0,0,1,2.54,12.85v45.53a32.67,32.67,0,0,1-10.47,24.1,33.8,33.8,0,0,1-7.3,5.24,31.39,31.39,0,0,1-14.91,3.65h-69V573.39h69a13.07,13.07,0,0,0,13-13V544.84a32.48,32.48,0,0,1-12.37,2.54h-46.79a32.76,32.76,0,0,1,.47-65.51h45.53a32.57,32.57,0,0,1,30.13,20Zm-88.66,12.85a13.06,13.06,0,0,0,12.37,13h46.79a13,13,0,0,0-.64-26h-45.52A13.05,13.05,0,0,0,1141.44,514.7Z"/></g></g></g></g></g></svg>