<svg xmlns="http://www.w3.org/2000/svg" viewBox="0 0 1920 1080"><defs><style>.cls-1{fill:#010101;}.cls-2{fill:#f2f2f2;}</style></defs><g id="Capa_2" data-name="Capa 2"><g id="Capa_1-2" data-name="Capa 1"><path class="cls-1" d="M1194.47,247.66a1,1,0,0,0,.1.24,1,1,0,0,0,.15-.19Zm20.1.28q-7.74-1.45-15.44-3.15c-1.59-.34-3.34-1-3.79,1.23a4.43,4.43,0,0,1-.62,1.69c6.64,1.48,12.82,2.91,19,4.21,1.78.37,4.53,1.49,5.09-.76C1219.54,248.37,1216.64,248.33,1214.57,247.94Zm319.88,116.24c-1.57-2.06-3.25-4-4.9-6,1.69-.7,3-.07,4.47.61,1.09.51,2.68,1.74,3.39-.31a2.8,2.8,0,0,0-1.66-3.87c-2.92-1.18-5.74-2.69-8.74-3.62-8.76-2.75-15.3-9.27-23.2-13.46-15-8-30.89-14-46.44-20.75-11.71-5.07-23.38-10.35-35.58-14.27-2.27-.73-4.59-1.46-6.59-.72-6.6,2.41-12.5-.27-18.34-2.29-2.54-.87-4.47-.48-7.56-.45,3.61,4.22,8.85,3.77,12.17,7.21-7.41,3.36-14.38,1.13-21.07-1.28-24.32-8.72-49.15-15.75-73.92-23-27-8-54.08-15.78-81.5-22.4-8-1.92-16-3.84-23.82-6.46-2.44-.82-5.27-1.51-6.59-5.15-.77.78-1.78-.35-2.48-1.4-5.19-7.76-13.33-9.76-21.67-11.21-10.52-1.84-21-3.82-31.66-4.92-7.66-.78-15.36-1.66-23-2.48-8-.86-16-1.5-24-2.69-6.83-1-13.81-1.12-20.73-1.54-11.57-.71-23.14-1.34-34.72-2-48.51-2.81-97-2.45-145.57-.77-21.54.75-43.08,2.43-64.57,4.19-16.2,1.32-32.39,3.12-48.51,5.27-12.43,1.66-24.8,3.88-37.08,6.42-6.54,1.36-10.63,6.88-15.26,11.29h0l0,0,.08,0c-3.2,4.55-8.37,5.12-13.15,6.41-26.19,7-52.46,13.8-78.56,21.15-23.73,6.68-47.38,13.67-70.86,21.17-9.1,2.9-18.48,5.1-27.24,9.15-4.86,2.24-10.26,1-15.43,1.12-.74,0-1.94.42-2.21-.71s.68-1.83,1.75-2.12a34.85,34.85,0,0,0,10.77-4.91c-6.3-2.1-10.9,1.22-15.85,2.51-1.68.45-3.29,1.45-5.06.84-9.06-3.11-16.81,1.13-24.66,4.41q-31.31,13.14-62.51,26.54a48.25,48.25,0,0,0-8.79,5A138.74,138.74,0,0,1,386,353.52c-1.91.78-5.28,1.39-4.13,4.22s3.78.21,5.73-.06c.76-.09,1.43-1.06,2.39.17-6.66,8.64-13.07,17.46-17,28a102.55,102.55,0,0,0-6.67,36.06q0,101.31,0,202.64c0,6.24-.45,12.53,1.46,18.63,4.76,21.85,15.93,39.76,33.13,54Q431.14,721,461.35,744.9c20.29,16.14,40.44,32.46,60.71,48.62,18.17,14.49,36.44,28.87,54.65,43.32,5.73,4.53,11.34,9.22,17.11,13.69,10.9,8.45,23.71,12.06,37.1,12.55,8.44.29,16.7-2.87,24.68-6,33-12.91,67.23-22.05,101.66-30.2,23.5-5.56,47.36-9.61,71.3-13.21,19.62-2.95,39.32-5.18,59.05-6.87,22.5-1.93,45.07-3,67.67-3l15.2.18c16.77.2,33.5,1.1,50.25,2.24s33.3,2.72,49.87,4.64c16.1,1.85,32.12,4.54,48.08,7.37,24.86,4.43,49.53,9.83,73.91,16.44,25.77,7,51.3,14.77,76.28,24.35,20.56,7.88,39.76,3.61,57.09-9.19,11.9-8.79,23.23-18.35,34.91-27.42,15.51-12,30.58-24.63,46.16-36.6,16.91-13,33.13-26.85,49.76-40.2,16.83-13.5,33.7-27,50.73-40.21,8.32-6.46,16.79-12.73,23.69-20.74,11.44-13.27,19.29-28.34,21-46.07,0,0,1.27-12.57,1.27-18.37s.22-196.6.22-196.6C1553.5,401.81,1547.86,381.72,1534.45,364.18Zm-1032,407.1c-1.36,1-1.65-.52-2.39-1.09-10-7.87-20.14-15.68-30.18-23.56Q455.63,735.37,441.45,724c-6.58-5.23-13.14-10.51-19.7-15.77-12.87-10.79-27.24-20-36.56-34.57-8.16-12.81-13.95-26.44-14-41.78q-.45-68.65-.32-137.33c.06-28.58-1.08-57.19.77-85.74A66.14,66.14,0,0,1,383,375.69c5.79-12.15,14.93-21.61,25.74-29.09,5.21-3.6,12.6-3.41,18.42-6.59,2.88-1.57,6.74-1.39,7.73-6.14.7-3.36,6-4.12,9.08-2,1.19.83,2.11.39,3.3-.13,5.06-2.2,10.42-3.71,15.16-6.65,1.37-.85,4.9-.2,2-3.82-1.1-1.38,1.66-2,2.87-2.46,2.22-.92,4.48-4.09,6.95-.95,1.31,1.66,2.2,2.22,4.25,1.52,6-2.1,12.2-3.87,17.89-6.89,2-1.06,2.1-1.16.92-2.26-.85-.82-2.55-1.49-1.65-2.7,1.22-1.62,3.41-1.43,5.36-1.48a2.15,2.15,0,0,1,2.45,2.13,39.39,39.39,0,0,1,.07,4.21q-.1,192.21-.18,384.42,0,27.12.16,54.25c0,5.8-1.3,11.62,0,17.43A2.55,2.55,0,0,1,502.48,771.28Zm898.38,14.36c-19,14.29-37.3,29.52-56,44.17-8.86,6.94-17,14.89-26.82,20.49-16.27,9.28-33.06,10.44-50.82,3.62-18.36-7-37.1-13-56.08-18.32-15.12-4.2-30.23-8.38-45.54-11.76-14.88-3.26-29.71-6.6-44.73-9.21-11.87-2.07-23.78-3.92-35.65-6-9.76-1.68-19.79-1.81-29.57-3.43-9.18-1.52-18.47-1.54-27.66-2.86-7.89-1.14-16-1.11-23.94-1.48q-13.28-.61-26.6-1L940.7,800c-20.22-.29-40.34,1.39-60.48,3.11-20.48,1.74-40.83,4.41-61.12,7.62-17.09,2.71-34.18,5.72-51.07,9.5q-29.5,6.63-58.65,14.83c-23.12,6.55-45.27,16.09-68.46,22-16.74,4.24-32.93-.32-46.72-11.44-9.29-7.49-18.49-15.1-27.87-22.49-15.4-12.14-31-24-46-36.72-3.49-3-7.64-5.11-10.78-8.6a6.21,6.21,0,0,1-2-4.58q.31-35,.54-70c-.07-4.56-.21-9.1-.21-13.64q0-88.26,0-176.54c0-1.92.15-3.84.23-5.75-.5-19.67-.44-39.33-.05-59q0-34.76,0-69.52c-.1-22.65-.13-45.28-.4-67.92,0-3.8,1.74-3.52,4.09-2.63,5.7,2.15,11.46,4.48,17.61,3.13s12.5-3.29,18.65-5.28c36.31-11.81,72.84-22.91,109.77-32.68,20.57-5.42,41-11.24,61.62-16.6,2.51-.65,4.79-1.76,6-3.41,5.27-7.34,13.25-7.95,21-9.51,3.65-.74,8.3.11,10.6-3.2,1.79-2.59,3.89-3,6.32-3.49.67-.14,1.77-.5,2-.23,4.54,5.85,10.23,2,15.27,1.53,4-.4,8.29-.26,11.58-4.3a6.08,6.08,0,0,1,8.85-.26c2.76,2.48,6.66.81,9.72.25,4.94-.91,10.14-1.37,14.74-3.85,5.59-3,11.16,1.06,16.9.1,5.28-.89,10.74-1.09,15.91-2.51,2.81-.78,5.69-1.35,8.23-.72,5.61,1.39,11.21.41,16.49-.37,12.36-1.82,24.74-1.56,37.13-2,7-.25,13.95-.58,20.93-1l38.7.05c14.15.54,28.34.51,42.49,1.21,8.12.4,16.2,1.65,24.26,2.84,2.44.36,4.38-.82,6.63-1,6.18-.43,11.77,2.57,17.91,2.65,5.11.06,10.12,1.9,15.33-.24a8,8,0,0,1,6.63.64c6.41,3.5,13.56,3.74,20.59,4.48,2.07.21,3.78.3,5.68-1.41,2.34-2.1,6.94-.93,7.56.69,2,5.17,6.52,3.52,9.79,4.57,3.57,1.13,7.54,1,11.34,1.39a4.53,4.53,0,0,0,4.75-1.81c2.31-2.68,7.59-.74,8,.63,2,6.07,7.22,3.93,10.87,5.17,4.19,1.42,8.8,1.51,13.22,2.31a4.31,4.31,0,0,1,2.62,1.46c6.27,9.22,16.31,10.82,26,13.19,36.5,8.9,72.62,19.16,108.57,30q30.75,9.32,61.32,19.21c7.65,2.47,14.85,1.67,22.17-1.05,6.79-2.53,6.84-2.4,6.79,4.6l-.34,65.24c.45,12.63.39,25.28,0,37.92.11,7.18.31,14.36.31,21.53q0,110.92-.07,221.82c0,1.74-.15,3.49-.23,5.23l0,37.93q.14,28.42.28,56.85a7.59,7.59,0,0,0,0,1.58C1415.12,772.82,1409.27,779.31,1400.86,785.64ZM1549.59,622c0,20.22-5.44,38.58-17.44,54.92-6.35,8.65-14.55,15.39-22.91,22-15,11.82-29.87,23.8-44.8,35.69-15.59,12.43-31.21,24.83-47.89,38.11V754.15q0-56.29,0-112.6,0-56.77,0-113.56,0-90.8,0-181.58,0-18.63,0-37.29c0-1.69-.11-3.13,2.31-3.11s5.5.52,6.36,2.71-2.86.74-3.85,3c6.57,3.68,13.69,5.88,20.83,8,.61.18,1.82.11,2-.22,3-6.28,6.11-.49,9.13,0,.48.07,1.34.44,1.34.64-.32,8.75,7.92,6.94,12.31,9.59,2.56,1.54,5.73,3.62,9.84.93,2.28-1.48,6.58.27,7.93,3.83a7.23,7.23,0,0,0,4.53,4.45,127,127,0,0,0,18.39,6.42c6.12,1.49,10.54,6.73,14.86,11.12a94.24,94.24,0,0,1,23.73,41.23c2.61,9.29,3.36,18.84,3.36,28.45Q1549.65,524.05,1549.59,622Zm-15.14-257.82c-1.57-2.06-3.25-4-4.9-6,1.69-.7,3-.07,4.47.61,1.09.51,2.68,1.74,3.39-.31a2.8,2.8,0,0,0-1.66-3.87c-2.92-1.18-5.74-2.69-8.74-3.62-8.76-2.75-15.3-9.27-23.2-13.46-15-8-30.89-14-46.44-20.75-11.71-5.07-23.38-10.35-35.58-14.27-2.27-.73-4.59-1.46-6.59-.72-6.6,2.41-12.5-.27-18.34-2.29-2.54-.87-4.47-.48-7.56-.45,3.61,4.22,8.85,3.77,12.17,7.21-7.41,3.36-14.38,1.13-21.07-1.28-24.32-8.72-49.15-15.75-73.92-23-27-8-54.08-15.78-81.5-22.4-8-1.92-16-3.84-23.82-6.46-2.44-.82-5.27-1.51-6.59-5.15-.77.78-1.78-.35-2.48-1.4-5.19-7.76-13.33-9.76-21.67-11.21-10.52-1.84-21-3.82-31.66-4.92-7.66-.78-15.36-1.66-23-2.48-8-.86-16-1.5-24-2.69-6.83-1-13.81-1.12-20.73-1.54-11.57-.71-23.14-1.34-34.72-2-48.51-2.81-97-2.45-145.57-.77-21.54.75-43.08,2.43-64.57,4.19-16.2,1.32-32.39,3.12-48.51,5.27-12.43,1.66-24.8,3.88-37.08,6.42-6.54,1.36-10.63,6.88-15.26,11.29h0l0,0,.08,0c-3.2,4.55-8.37,5.12-13.15,6.41-26.19,7-52.46,13.8-78.56,21.15-23.73,6.68-47.38,13.67-70.86,21.17-9.1,2.9-18.48,5.1-27.24,9.15-4.86,2.24-10.26,1-15.43,1.12-.74,0-1.94.42-2.21-.71s.68-1.83,1.75-2.12a34.85,34.85,0,0,0,10.77-4.91c-6.3-2.1-10.9,1.22-15.85,2.51-1.68.45-3.29,1.45-5.06.84-9.06-3.11-16.81,1.13-24.66,4.41q-31.31,13.14-62.51,26.54a48.25,48.25,0,0,0-8.79,5A138.74,138.74,0,0,1,386,353.52c-1.91.78-5.28,1.39-4.13,4.22s3.78.21,5.73-.06c.76-.09,1.43-1.06,2.39.17-6.66,8.64-13.07,17.46-17,28a102.55,102.55,0,0,0-6.67,36.06q0,101.31,0,202.64c0,6.24-.45,12.53,1.46,18.63,4.76,21.85,15.93,39.76,33.13,54Q431.14,721,461.35,744.9c20.29,16.14,40.44,32.46,60.71,48.62,18.17,14.49,36.44,28.87,54.65,43.32,5.73,4.53,11.34,9.22,17.11,13.69,10.9,8.45,23.71,12.06,37.1,12.55,8.44.29,16.7-2.87,24.68-6,33-12.91,67.23-22.05,101.66-30.2,23.5-5.56,47.36-9.61,71.3-13.21,19.62-2.95,39.32-5.18,59.05-6.87,22.5-1.93,45.07-3,67.67-3l15.2.18c16.77.2,33.5,1.1,50.25,2.24s33.3,2.72,49.87,4.64c16.1,1.85,32.12,4.54,48.08,7.37,24.86,4.43,49.53,9.83,73.91,16.44,25.77,7,51.3,14.77,76.28,24.35,20.56,7.88,39.76,3.61,57.09-9.19,11.9-8.79,23.23-18.35,34.91-27.42,15.51-12,30.58-24.63,46.16-36.6,16.91-13,33.13-26.85,49.76-40.2,16.83-13.5,33.7-27,50.73-40.21,8.32-6.46,16.79-12.73,23.69-20.74,11.44-13.27,19.29-28.34,21-46.07,0,0,1.27-12.57,1.27-18.37s.22-196.6.22-196.6C1553.5,401.81,1547.86,381.72,1534.45,364.18Zm-1032,407.1c-1.36,1-1.65-.52-2.39-1.09-10-7.87-20.14-15.68-30.18-23.56Q455.63,735.37,441.45,724c-6.58-5.23-13.14-10.51-19.7-15.77-12.87-10.79-27.24-20-36.56-34.57-8.16-12.81-13.95-26.44-14-41.78q-.45-68.65-.32-137.33c.06-28.58-1.08-57.19.77-85.74A66.14,66.14,0,0,1,383,375.69c5.79-12.15,14.93-21.61,25.74-29.09,5.21-3.6,12.6-3.41,18.42-6.59,2.88-1.57,6.74-1.39,7.73-6.14.7-3.36,6-4.12,9.08-2,1.19.83,2.11.39,3.3-.13,5.06-2.2,10.42-3.71,15.16-6.65,1.37-.85,4.9-.2,2-3.82-1.1-1.38,1.66-2,2.87-2.46,2.22-.92,4.48-4.09,6.95-.95,1.31,1.66,2.2,2.22,4.25,1.52,6-2.1,12.2-3.87,17.89-6.89,2-1.06,2.1-1.16.92-2.26-.85-.82-2.55-1.49-1.65-2.7,1.22-1.62,3.41-1.43,5.36-1.48a2.15,2.15,0,0,1,2.45,2.13,39.39,39.39,0,0,1,.07,4.21q-.1,192.21-.18,384.42,0,27.12.16,54.25c0,5.8-1.3,11.62,0,17.43A2.55,2.55,0,0,1,502.48,771.28Zm898.38,14.36c-19,14.29-37.3,29.52-56,44.17-8.86,6.94-17,14.89-26.82,20.49-16.27,9.28-33.06,10.44-50.82,3.62-18.36-7-37.1-13-56.08-18.32-15.12-4.2-30.23-8.38-45.54-11.76-14.88-3.26-29.71-6.6-44.73-9.21-11.87-2.07-23.78-3.92-35.65-6-9.76-1.68-19.79-1.81-29.57-3.43-9.18-1.52-18.47-1.54-27.66-2.86-7.89-1.14-16-1.11-23.94-1.48q-13.28-.61-26.6-1L940.7,800c-20.22-.29-40.34,1.39-60.48,3.11-20.48,1.74-40.83,4.41-61.12,7.62-17.09,2.71-34.18,5.72-51.07,9.5q-29.5,6.63-58.65,14.83c-23.12,6.55-45.27,16.09-68.46,22-16.74,4.24-32.93-.32-46.72-11.44-9.29-7.49-18.49-15.1-27.87-22.49-15.4-12.14-31-24-46-36.72-3.49-3-7.64-5.11-10.78-8.6a6.21,6.21,0,0,1-2-4.58q.31-35,.54-70c-.07-4.56-.21-9.1-.21-13.64q0-88.26,0-176.54c0-1.92.15-3.84.23-5.75-.5-19.67-.44-39.33-.05-59q0-34.76,0-69.52c-.1-22.65-.13-45.28-.4-67.92,0-3.8,1.74-3.52,4.09-2.63,5.7,2.15,11.46,4.48,17.61,3.13s12.5-3.29,18.65-5.28c36.31-11.81,72.84-22.91,109.77-32.68,20.57-5.42,41-11.24,61.62-16.6,2.51-.65,4.79-1.76,6-3.41,5.27-7.34,13.25-7.95,21-9.51,3.65-.74,8.3.11,10.6-3.2,1.79-2.59,3.89-3,6.32-3.49.67-.14,1.77-.5,2-.23,4.54,5.85,10.23,2,15.27,1.53,4-.4,8.29-.26,11.58-4.3a6.08,6.08,0,0,1,8.85-.26c2.76,2.48,6.66.81,9.72.25,4.94-.91,10.14-1.37,14.74-3.85,5.59-3,11.16,1.06,16.9.1,5.28-.89,10.74-1.09,15.91-2.51,2.81-.78,5.69-1.35,8.23-.72,5.61,1.39,11.21.41,16.49-.37,12.36-1.82,24.74-1.56,37.13-2,7-.25,13.95-.58,20.93-1l38.7.05c14.15.54,28.34.51,42.49,1.21,8.12.4,16.2,1.65,24.26,2.84,2.44.36,4.38-.82,6.63-1,6.18-.43,11.77,2.57,17.91,2.65,5.11.06,10.12,1.9,15.33-.24a8,8,0,0,1,6.63.64c6.41,3.5,13.56,3.74,20.59,4.48,2.07.21,3.78.3,5.68-1.41,2.34-2.1,6.94-.93,7.56.69,2,5.17,6.52,3.52,9.79,4.57,3.57,1.13,7.54,1,11.34,1.39a4.53,4.53,0,0,0,4.75-1.81c2.31-2.68,7.59-.74,8,.63,2,6.07,7.22,3.93,10.87,5.17,4.19,1.42,8.8,1.51,13.22,2.31a4.31,4.31,0,0,1,2.62,1.46c6.27,9.22,16.31,10.82,26,13.19,36.5,8.9,72.62,19.16,108.57,30q30.75,9.32,61.32,19.21c7.65,2.47,14.85,1.67,22.17-1.05,6.79-2.53,6.84-2.4,6.79,4.6l-.34,65.24c.45,12.63.39,25.28,0,37.92.11,7.18.31,14.36.31,21.53q0,110.92-.07,221.82c0,1.74-.15,3.49-.23,5.23l0,37.93q.14,28.42.28,56.85a7.59,7.59,0,0,0,0,1.58C1415.12,772.82,1409.27,779.31,1400.86,785.64ZM1549.59,622c0,20.22-5.44,38.58-17.44,54.92-6.35,8.65-14.55,15.39-22.91,22-15,11.82-29.87,23.8-44.8,35.69-15.59,12.43-31.21,24.83-47.89,38.11V754.15q0-56.29,0-112.6,0-56.77,0-113.56,0-90.8,0-181.58,0-18.63,0-37.29c0-1.69-.11-3.13,2.31-3.11s5.5.52,6.36,2.71-2.86.74-3.85,3c6.57,3.68,13.69,5.88,20.83,8,.61.18,1.82.11,2-.22,3-6.28,6.11-.49,9.13,0,.48.07,1.34.44,1.34.64-.32,8.75,7.92,6.94,12.31,9.59,2.56,1.54,5.73,3.62,9.84.93,2.28-1.48,6.58.27,7.93,3.83a7.23,7.23,0,0,0,4.53,4.45,127,127,0,0,0,18.39,6.42c6.12,1.49,10.54,6.73,14.86,11.12a94.24,94.24,0,0,1,23.73,41.23c2.61,9.29,3.36,18.84,3.36,28.45Q1549.65,524.05,1549.59,622ZM1218.83,251.16c.71-2.79-2.19-2.83-4.26-3.22q-7.74-1.45-15.44-3.15c-1.59-.34-3.34-1-3.79,1.23a4.43,4.43,0,0,1-.62,1.69c6.64,1.48,12.82,2.91,19,4.21C1215.52,252.29,1218.27,253.41,1218.83,251.16Zm-24.36-3.5a1,1,0,0,0,.1.24,1,1,0,0,0,.15-.19Zm478.72,316.41c-2.8-.11-5.59-.16-8.39-.12-1.91,0-3-.61-2.92-2.68q.45-27,.84-54c-.08-10-.13-20-.28-29.93,0-2.9,1-4,4-3.84,3.3.2,6.77.46,9.91-.32,6-1.51,8.62-6.15,8.61-14.44,0,0,.15-5.64.15-13.53a9.86,9.86,0,0,0-6.82-9.76c-3.65-1.67-7.55-.54-11.17-1.6-1.23.12-2.44.32-3.65.33l-79,.11c-2.24,0-4.67.58-6.71-.06-5.25-1.63-6.55-6.05-6.56-11,0-16.68.22-33.34-.16-50a65.89,65.89,0,0,0-4.75-24.29c-6.94-16.49-19.89-26.64-35.69-33.29-14-5.88-27.71-12.22-41.81-17.78-19.71-7.75-39.24-15.9-59.35-22.64-9.44-3.18-17.34-2.61-24.5,4.61-4.3,4.33-9.12,5.41-15.22,3.2-9-3.27-18.25-5.73-27.44-8.36-17.82-5.12-35.61-10.42-53.55-15.12-20.74-5.45-41.61-10.45-62.47-15.43-10.35-2.47-20.81-4.45-31.21-6.65-.76.22-1-.21-1.17-.86-1-.5-2.37,0-3-1.28a1.72,1.72,0,0,1-2-2c-1.17-.24-.82-1.37-1.23-2.06-.66,0-1.12-.24-.82-1l-2.34-7.39c-.68,0-1.12-.23-.83-1-1.6-4.17-4.84-6.67-8.65-8.6-.78.21-1-.21-1.07-.88-12.23-2.1-24.43-4.48-36.7-6.25-16.44-2.37-32.94-4.34-49.43-6.34-15.22-1.85-36.29-1.75-41.62-5.82s-14.51-6.34-14.51-6.34h-16.61c-5.15.19-8.5,2.36-9.77,7.44-.78,3.1-2.47,4.29-5.93,4.26l-119.74.4c-2.79.16-3.83-.75-4.69-3.33-2.41-7.29-4-8.25-11.56-8.26-6.65,0-10.93,0-17.59-.05a7.2,7.2,0,0,0-5,2.32,21.86,21.86,0,0,1-15.23,6.35c-8.92.35-17.78,2.35-26.69,2.79a198.24,198.24,0,0,0-23.62,2.35c-7.05,1.21-14.23,1.47-21.31,2.46-10.48,1.47-20.8,4.28-31.41,4.72-6.21.25-12,2.64-18,3.67-4.38.75-6.76,5.16-8.93,9a7.26,7.26,0,0,0-.8,2.26c-2,10.68-9.61,13.11-19.18,15.06-11.46,2.33-23,4.76-34.35,7.6-24,5.94-47.87,12-71.65,18.55q-31.82,8.79-63.48,18.17c-5.14,1.54-8.84-.2-12-3.47-7.3-7.52-16-8.21-25-4.86-26,9.62-52.11,19.1-77.36,30.71-12.74,5.86-26.45,9.75-38,18-15.75,11.27-24.39,26.71-24.74,46.23C348.8,387,349,404,349,421c0,9.4-3.88,13.29-13.35,13.26-15.26,0-30.51-.23-45.77-.35l-1.89,0-3.9.11c-10.58.74-21.16,0-31.74.33-4.32.15-8.68-.26-12.91,1-5.88.87-4.35,21.22-4.35,21.22-.28,14.24,2.76,17.88,17.08,16.94,4.56-.31,5.35,1.33,5.34,5.52,0,20.05.41,40.11.52,60.17,0,7-.58,14-.55,20.93,0,3-1.78,3.51-3.85,3.74-2.6.28-5.25.13-7.87.27-5.55.31-9.48,2.7-10.68,8.5.05,5.79.47,11.6.07,17.35-.63,8.76,5.05,12.22,12.45,12.13,22.29-.25,44.58-.1,66.87-.1,8.82,0,8.71.26,8.74,9.41a28.66,28.66,0,0,1-4.3,14.81c-1.82,3-1.81,6.38-1.82,9.79q0,27.36-.09,54.74c0,1.39-.22,2.77-.32,4.16a21.4,21.4,0,0,1-.07,8.21c.2,7.18.2,14.37.65,21.53.63,9.8,8,16.46,17.74,16.46,8.78,0,17.56-.12,26.33.11s16.17,3.55,20.81,11.51q7.31,12.53,14.57,25.07,26.06,44.72,52.09,89.43c4.11,7,8,14.17,12.25,21.64a6.55,6.55,0,0,0,5.08,2.64l13.11.31c7.94,0,10.15-2.14,12.33-9.95.67-2.41,1-5.44,5.49-5.36,23.17.37,46.35.26,69.52.22,3.18,0,4.38.78,5,4.29,1.06,6.61,2.21,11.13,12.45,10.91,14.9-.32,29.82-.13,44.73-.07A34.66,34.66,0,0,0,639,890.32q24.56-7.55,49.13-15.06c26.47-8.07,53-15.94,79.39-24.26,18.22-5.75,36.4-10,55.86-9.18,25.6,1,51.26.29,76.89.3,8.87,0,10.69-1.25,12.49-9.86,1-5,3.22-6.52,8.48-6.21l81.18.06c2.21,0,2.36,1.06,3.22,2.84,1.37,2.8,0,5.77,1.72,8.46,2.93,4.6,7.25,4.78,11.87,4.76q46.88-.07,93.76-.08c3.46,0,6.94-.25,10.41.8,41.71,12.67,83.57,24.86,125.12,38.06,22.25,7.06,44.35,13.28,68,11,5.75-.57,11.59-.09,17.37-.09,2.93,0,5.9.24,8.65-1.11,0-.66.22-1.15,1-.77a10.54,10.54,0,0,0,4-8.37c.17-4.52,2.51-5,6.11-4.88,5.08.18,10.17,0,15.25,0,17.54,0,35.09.11,52.63-.14,4.16-.06,5.69,1.27,6.44,5.28,1.53,8.27,3.9,9.9,12.45,10,2.81,0,5.62-.14,8.42,0,5.2.27,8.85-1.84,11.48-6.38,9.92-17.22,20-34.32,30-51.51q23.29-40.17,46.51-80.44c3.62-6.3,8.55-10.24,15.94-11.5,10.29-1.74,20.61-.48,30.91-.83a19.56,19.56,0,0,0,7.09-1.31c8.76-3.7,12.4-10.68,12.42-19.83q.12-41.29.11-82.61c0-3.44,0-7.05-2.09-10-5-7.12-5.44-15-4.57-23.24.69-3.06,3.2-2.12,5.08-2.13,22.75-.05,45.49-.22,68.24.08,6.09.07,10.86-1.33,14.32-6.42,1.22-6.68.73-13.43.61-20.15C1684.8,568.68,1680.23,564.38,1673.19,564.07Zm3.37,16.48c0,13.08,0,13-13.34,13-20.53,0-41,.1-61.57.06a18.57,18.57,0,0,0-7.58,1.35c-7.43,4.76-5.49,12.55-5.71,19.31a23.9,23.9,0,0,0,4.67,15.1c2.12,2.9,2.08,6.91,2.08,10.55q0,35.28-.07,70.56c0,4.7-.39,9.42-.7,14.12-.27,4-4.4,7.9-8.79,8-8.77.19-17.55.18-26.34.19-13.51,0-23.43,5.94-30.19,17.68q-36.9,64.11-74,128.12c-3,5.1-11,7.85-16.63,5.66-2.36-.92-2.41-3.38-2.87-5.15-2.33-9-4.22-10.7-13.31-10.7-23.18,0-46.36.15-69.53,0-10.81-.09-11.5,2.94-13.11,11.48-.57,3-1.42,3.73-4.19,3.69-16.68-.22-33.36-.16-50-.55-5.31-.12-10.29-2.5-15.35-4.06-21.42-6.6-42.8-13.32-64.24-19.86q-39.65-12.08-79.39-23.81a44.7,44.7,0,0,0-12.7-1.6c-30.89.09-61.8,0-92.7.26-4.89,0-6.65-1.67-7.17-6.08-.83-7.14-3.79-9.87-11.06-9.94h-85.1C906.91,818,905.11,823,905.42,830c.19,4.29-2.34,3.81-5,3.81-30.37,0-60.74.26-91.1-.14-11.5-.16-22.14,2.84-32.84,6.13-12.76,3.93-25.5,8-38.25,11.87q-15.62,4.82-31.23,9.5c-17.69,5.31-35.84,9.45-53,16.15-23.07,9-46.75,5.06-70.21,6.15-2.59.12-3.94-.61-3.88-4,.13-6.88-4.22-11-11.27-11-24.92-.08-49.85,0-74.78,0-5.19,0-7.63,2.65-9.18,7.41-.84,2.55.59,7.66-4.05,7.2-5.36-.52-11.63,3.48-15.91-4.35-10.22-18.69-21.39-36.86-32.15-55.27-11.16-19.13-22-38.44-33.44-57.41-4.32-7.14-7.69-14.91-13.1-21.34a32.23,32.23,0,0,0-26.17-12c-8.78.09-17.55,0-26.33-.18-4.52-.08-8.7-4.56-8.69-9,0-27.2.25-54.4,0-81.59a41,41,0,0,1,4.42-18.68,27.31,27.31,0,0,0-.09-24c-2.68-5.75-9.07-5.54-14.34-5.59q-32.91-.36-65.82.06c-4.73.05-6.09-1.38-5.47-6.36a34.63,34.63,0,0,0,0-9c-.65-4.56.27-6.19,4.46-5.87,5.21.39,10.37.24,14.47-4.07a10.86,10.86,0,0,0,3.33-7.85c.06-5.21-.73-10.47.45-15.66-.09-21.75-.38-43.5-.2-65.25.09-11.1-6.2-14.61-14.88-14.57a25.09,25.09,0,0,0-3.68,0c-3.49.55-4.29-1-4-4.6a111.75,111.75,0,0,0,0-14.41c-.11-2.4.42-3.49,2.88-3.47q26,.21,52.07.31l35.26-.27c5.55,0,11.13-.42,15.7-3.84a19.33,19.33,0,0,0,7.88-16.08c.05-14.92.3-29.86-.15-44.76-.21-6.75,3.13-9.15,10.6-11.1a7.28,7.28,0,0,0,3.29-2.41c.43-.45,2.82-.92,1.7-2.79-.89-1.46-1.9-1-3.11-.31-3,1.65-6.15,3.15-9.23,4.72-1.06.53-2.23,1.59-3.33.76-1.57-1.2.54-2,.69-3.09,1.56-11.58,7.08-21.18,15.22-29.27,6.64-6.61,15.36-9.83,23.74-13.6q28-12.63,56.68-23.75c14.14-5.52,28.29-11,42.8-15.57,4.26-1.35,7.56-.51,10.43,2.55,7.91,8.37,16.85,9.57,27.76,6,38-12.46,76.77-22.51,115.57-32.25,17.23-4.33,34.51-8.58,52-11.72,11.5-2.06,18.14-8.47,20.86-19.3,1.14-4.5,3.62-6.65,8.34-7.46,17.28-3,34.61-5.67,52-8.12,21.57-3,43.27-4.75,65-6.07,5-.3,9.19-2.59,13.1-5.22,6.79-4.55,14.29-4.33,21.88-4.23a4.28,4.28,0,0,1,4.1,2.7c4,8.39,8.53,10.44,17.73,9.59l111.78,0c9.68.75,12.86-1.64,16.22-10.54.47-1.25.9-1.75,2-1.71,7.39.23,15-1.45,21.67,3.78,6.35,5,14.14,6.24,22,6.42,21.09.48,41.87,3.49,62.73,6.18,14.76,1.9,29.36,4.8,44.13,6.53,6.73.8,11.15,4.14,12.64,10.94,1.69,7.67,5.93,13.26,13.69,15.26,8.16,2.1,16.48,3.59,24.72,5.39q24.18,5.28,48.11,11.52c25.74,6.72,51.43,13.5,76.92,21.09,8.87,2.65,18,4.53,26.59,7.93,10,4,17.23-.14,24-6.45,3.38-3.12,6.59-4.16,11.19-2.62,24,8,47.52,17.16,70.77,27.06,12.8,5.44,25.66,10.73,38.29,16.54,16.82,7.76,26.43,21.33,30.07,39.29.6,2.93-1.11,2.86-3,1.92-3.1-1.54-6-3.42-9.21-4.76-.82-.33-2-2.21-3.08-.56a2.4,2.4,0,0,0,1.09,3.55,78.66,78.66,0,0,0,10.09,5.07c3.4,1.26,4.64,3,4.58,6.8-.25,15.09-.16,30.19-.07,45.28.06,8.52,2.44,15.92,11.22,19.34,3.75,1.46,7.86,1.33,11.87,1.37,13.68.1,27.37.15,41,.22,15.09-.4,30.19-.4,45.28.15,2.41-.31,5-.89,4.07,3.15.06,5.08.07,10.16.19,15.24.09,2.76-1.25,3.74-3.83,3.71-3.78,0-7.56-.19-11.27.9s-6.73,3.2-7,7.26c-.33,4.83-1,9.57-.71,14.54.62,12.06,0,24.17,0,36.25.48,10.92.34,21.84,0,32.76,1.39,3.36-.54,7.27,2.06,10.53,3.41,4.26,7.87,5.26,13,5.22C1676.59,572.52,1676.59,572.58,1676.56,580.55Zm-147-222.41c1.69-.7,3-.07,4.47.61,1.09.51,2.68,1.74,3.39-.31a2.8,2.8,0,0,0-1.66-3.87c-2.92-1.18-5.74-2.69-8.74-3.62-8.76-2.75-15.3-9.27-23.2-13.46-15-8-30.89-14-46.44-20.75-11.71-5.07-23.38-10.35-35.58-14.27-2.27-.73-4.59-1.46-6.59-.72-6.6,2.41-12.5-.27-18.34-2.29-2.54-.87-4.47-.48-7.56-.45,3.61,4.22,8.85,3.77,12.17,7.21-7.41,3.36-14.38,1.13-21.07-1.28-24.32-8.72-49.15-15.75-73.92-23-27-8-54.08-15.78-81.5-22.4-8-1.92-16-3.84-23.82-6.46-2.44-.82-5.27-1.51-6.59-5.15-.77.78-1.78-.35-2.48-1.4-5.19-7.76-13.33-9.76-21.67-11.21-10.52-1.84-21-3.82-31.66-4.92-7.66-.78-15.36-1.66-23-2.48-8-.86-16-1.5-24-2.69-6.83-1-13.81-1.12-20.73-1.54-11.57-.71-23.14-1.34-34.72-2-48.51-2.81-97-2.45-145.57-.77-21.54.75-43.08,2.43-64.57,4.19-16.2,1.32-32.39,3.12-48.51,5.27-12.43,1.66-24.8,3.88-37.08,6.42-6.54,1.36-10.63,6.88-15.26,11.29h0l0,0,.08,0c-3.2,4.55-8.37,5.12-13.15,6.41-26.19,7-52.46,13.8-78.56,21.15-23.73,6.68-47.38,13.67-70.86,21.17-9.1,2.9-18.48,5.1-27.24,9.15-4.86,2.24-10.26,1-15.43,1.12-.74,0-1.94.42-2.21-.71s.68-1.83,1.75-2.12a34.85,34.85,0,0,0,10.77-4.91c-6.3-2.1-10.9,1.22-15.85,2.51-1.68.45-3.29,1.45-5.06.84-9.06-3.11-16.81,1.13-24.66,4.41q-31.31,13.14-62.51,26.54a48.25,48.25,0,0,0-8.79,5A138.74,138.74,0,0,1,386,353.52c-1.91.78-5.28,1.39-4.13,4.22s3.78.21,5.73-.06c.76-.09,1.43-1.06,2.39.17-6.66,8.64-13.07,17.46-17,28a102.55,102.55,0,0,0-6.67,36.06q0,101.31,0,202.64c0,6.24-.45,12.53,1.46,18.63,4.76,21.85,15.93,39.76,33.13,54Q431.14,721,461.35,744.9c20.29,16.14,40.44,32.46,60.71,48.62,18.17,14.49,36.44,28.87,54.65,43.32,5.73,4.53,11.34,9.22,17.11,13.69,10.9,8.45,23.71,12.06,37.1,12.55,8.44.29,16.7-2.87,24.68-6,33-12.91,67.23-22.05,101.66-30.2,23.5-5.56,47.36-9.61,71.3-13.21,19.62-2.95,39.32-5.18,59.05-6.87,22.5-1.93,45.07-3,67.67-3l15.2.18c16.77.2,33.5,1.1,50.25,2.24s33.3,2.72,49.87,4.64c16.1,1.85,32.12,4.54,48.08,7.37,24.86,4.43,49.53,9.83,73.91,16.44,25.77,7,51.3,14.77,76.28,24.35,20.56,7.88,39.76,3.61,57.09-9.19,11.9-8.79,23.23-18.35,34.91-27.42,15.51-12,30.58-24.63,46.16-36.6,16.91-13,33.13-26.85,49.76-40.2,16.83-13.5,33.7-27,50.73-40.21,8.32-6.46,16.79-12.73,23.69-20.74,11.44-13.27,19.29-28.34,21-46.07,0,0,1.27-12.57,1.27-18.37s.22-196.6.22-196.6c-.25-21.79-5.89-41.88-19.3-59.42C1532.88,362.12,1531.2,360.16,1529.55,358.14ZM502.48,771.28c-1.36,1-1.65-.52-2.39-1.09-10-7.87-20.14-15.68-30.18-23.56Q455.63,735.37,441.45,724c-6.58-5.23-13.14-10.51-19.7-15.77-12.87-10.79-27.24-20-36.56-34.57-8.16-12.81-13.95-26.44-14-41.78q-.45-68.65-.32-137.33c.06-28.58-1.08-57.19.77-85.74A66.14,66.14,0,0,1,383,375.69c5.79-12.15,14.93-21.61,25.74-29.09,5.21-3.6,12.6-3.41,18.42-6.59,2.88-1.57,6.74-1.39,7.73-6.14.7-3.36,6-4.12,9.08-2,1.19.83,2.11.39,3.3-.13,5.06-2.2,10.42-3.71,15.16-6.65,1.37-.85,4.9-.2,2-3.82-1.1-1.38,1.66-2,2.87-2.46,2.22-.92,4.48-4.09,6.95-.95,1.31,1.66,2.2,2.22,4.25,1.52,6-2.1,12.2-3.87,17.89-6.89,2-1.06,2.1-1.16.92-2.26-.85-.82-2.55-1.49-1.65-2.7,1.22-1.62,3.41-1.43,5.36-1.48a2.15,2.15,0,0,1,2.45,2.13,39.39,39.39,0,0,1,.07,4.21q-.1,192.21-.18,384.42,0,27.12.16,54.25c0,5.8-1.3,11.62,0,17.43A2.55,2.55,0,0,1,502.48,771.28Zm898.38,14.36c-19,14.29-37.3,29.52-56,44.17-8.86,6.94-17,14.89-26.82,20.49-16.27,9.28-33.06,10.44-50.82,3.62-18.36-7-37.1-13-56.08-18.32-15.12-4.2-30.23-8.38-45.54-11.76-14.88-3.26-29.71-6.6-44.73-9.21-11.87-2.07-23.78-3.92-35.65-6-9.76-1.68-19.79-1.81-29.57-3.43-9.18-1.52-18.47-1.54-27.66-2.86-7.89-1.14-16-1.11-23.94-1.48q-13.28-.61-26.6-1L940.7,800c-20.22-.29-40.34,1.39-60.48,3.11-20.48,1.74-40.83,4.41-61.12,7.62-17.09,2.71-34.18,5.72-51.07,9.5q-29.5,6.63-58.65,14.83c-23.12,6.55-45.27,16.09-68.46,22-16.74,4.24-32.93-.32-46.72-11.44-9.29-7.49-18.49-15.1-27.87-22.49-15.4-12.14-31-24-46-36.72-3.49-3-7.64-5.11-10.78-8.6a6.21,6.21,0,0,1-2-4.58q.31-35,.54-70c-.07-4.56-.21-9.1-.21-13.64q0-88.26,0-176.54c0-1.92.15-3.84.23-5.75-.5-19.67-.44-39.33-.05-59q0-34.76,0-69.52c-.1-22.65-.13-45.28-.4-67.92,0-3.8,1.74-3.52,4.09-2.63,5.7,2.15,11.46,4.48,17.61,3.13s12.5-3.29,18.65-5.28c36.31-11.81,72.84-22.91,109.77-32.68,20.57-5.42,41-11.24,61.62-16.6,2.51-.65,4.79-1.76,6-3.41,5.27-7.34,13.25-7.95,21-9.51,3.65-.74,8.3.11,10.6-3.2,1.79-2.59,3.89-3,6.32-3.49.67-.14,1.77-.5,2-.23,4.54,5.85,10.23,2,15.27,1.53,4-.4,8.29-.26,11.58-4.3a6.08,6.08,0,0,1,8.85-.26c2.76,2.48,6.66.81,9.72.25,4.94-.91,10.14-1.37,14.74-3.85,5.59-3,11.16,1.06,16.9.1,5.28-.89,10.74-1.09,15.91-2.51,2.81-.78,5.69-1.35,8.23-.72,5.61,1.39,11.21.41,16.49-.37,12.36-1.82,24.74-1.56,37.13-2,7-.25,13.95-.58,20.93-1l38.7.05c14.15.54,28.34.51,42.49,1.21,8.12.4,16.2,1.65,24.26,2.84,2.44.36,4.38-.82,6.63-1,6.18-.43,11.77,2.57,17.91,2.65,5.11.06,10.12,1.9,15.33-.24a8,8,0,0,1,6.63.64c6.41,3.5,13.56,3.74,20.59,4.48,2.07.21,3.78.3,5.68-1.41,2.34-2.1,6.94-.93,7.56.69,2,5.17,6.52,3.52,9.79,4.57,3.57,1.13,7.54,1,11.34,1.39a4.53,4.53,0,0,0,4.75-1.81c2.31-2.68,7.59-.74,8,.63,2,6.07,7.22,3.93,10.87,5.17,4.19,1.42,8.8,1.51,13.22,2.31a4.31,4.31,0,0,1,2.62,1.46c6.27,9.22,16.31,10.82,26,13.19,36.5,8.9,72.62,19.16,108.57,30q30.75,9.32,61.32,19.21c7.65,2.47,14.85,1.67,22.17-1.05,6.79-2.53,6.84-2.4,6.79,4.6l-.34,65.24c.45,12.63.39,25.28,0,37.92.11,7.18.31,14.36.31,21.53q0,110.92-.07,221.82c0,1.74-.15,3.49-.23,5.23l0,37.93q.14,28.42.28,56.85a7.59,7.59,0,0,0,0,1.58C1415.12,772.82,1409.27,779.31,1400.86,785.64Zm148.77-359.51q0,97.92,0,195.87c0,20.22-5.44,38.58-17.44,54.92-6.35,8.65-14.55,15.39-22.91,22-15,11.82-29.87,23.8-44.8,35.69-15.59,12.43-31.21,24.83-47.89,38.11V754.15q0-56.29,0-112.6,0-56.77,0-113.56,0-90.8,0-181.58,0-18.63,0-37.29c0-1.69-.11-3.13,2.31-3.11s5.5.52,6.36,2.71-2.86.74-3.85,3c6.57,3.68,13.69,5.88,20.83,8,.61.18,1.82.11,2-.22,3-6.28,6.11-.49,9.13,0,.48.07,1.34.44,1.34.64-.32,8.75,7.92,6.94,12.31,9.59,2.56,1.54,5.73,3.62,9.84.93,2.28-1.48,6.58.27,7.93,3.83a7.23,7.23,0,0,0,4.53,4.45,127,127,0,0,0,18.39,6.42c6.12,1.49,10.54,6.73,14.86,11.12a94.24,94.24,0,0,1,23.73,41.23C1548.88,407,1549.63,416.52,1549.63,426.13Zm-330.8-175c.71-2.79-2.19-2.83-4.26-3.22q-7.74-1.45-15.44-3.15c-1.59-.34-3.34-1-3.79,1.23a4.43,4.43,0,0,1-.62,1.69c6.64,1.48,12.82,2.91,19,4.21C1215.52,252.29,1218.27,253.41,1218.83,251.16Zm-24.36-3.5a1,1,0,0,0,.1.24,1,1,0,0,0,.15-.19Zm0,0a1,1,0,0,0,.1.24,1,1,0,0,0,.15-.19Zm20.1.28q-7.74-1.45-15.44-3.15c-1.59-.34-3.34-1-3.79,1.23a4.43,4.43,0,0,1-.62,1.69c6.64,1.48,12.82,2.91,19,4.21,1.78.37,4.53,1.49,5.09-.76C1219.54,248.37,1216.64,248.33,1214.57,247.94Zm319.88,116.24c-1.57-2.06-3.25-4-4.9-6,1.69-.7,3-.07,4.47.61,1.09.51,2.68,1.74,3.39-.31a2.8,2.8,0,0,0-1.66-3.87c-2.92-1.18-5.74-2.69-8.74-3.62-8.76-2.75-15.3-9.27-23.2-13.46-15-8-30.89-14-46.44-20.75-11.71-5.07-23.38-10.35-35.58-14.27-2.27-.73-4.59-1.46-6.59-.72-6.6,2.41-12.5-.27-18.34-2.29-2.54-.87-4.47-.48-7.56-.45,3.61,4.22,8.85,3.77,12.17,7.21-7.41,3.36-14.38,1.13-21.07-1.28-24.32-8.72-49.15-15.75-73.92-23-27-8-54.08-15.78-81.5-22.4-8-1.92-16-3.84-23.82-6.46-2.44-.82-5.27-1.51-6.59-5.15-.77.78-1.78-.35-2.48-1.4-5.19-7.76-13.33-9.76-21.67-11.21-10.52-1.84-21-3.82-31.66-4.92-7.66-.78-15.36-1.66-23-2.48-8-.86-16-1.5-24-2.69-6.83-1-13.81-1.12-20.73-1.54-11.57-.71-23.14-1.34-34.72-2-48.51-2.81-97-2.45-145.57-.77-21.54.75-43.08,2.43-64.57,4.19-16.2,1.32-32.39,3.12-48.51,5.27-12.43,1.66-24.8,3.88-37.08,6.42-6.54,1.36-10.63,6.88-15.26,11.29h0l0,0,.08,0c-3.2,4.55-8.37,5.12-13.15,6.41-26.19,7-52.46,13.8-78.56,21.15-23.73,6.68-47.38,13.67-70.86,21.17-9.1,2.9-18.48,5.1-27.24,9.15-4.86,2.24-10.26,1-15.43,1.12-.74,0-1.94.42-2.21-.71s.68-1.83,1.75-2.12a34.85,34.85,0,0,0,10.77-4.91c-6.3-2.1-10.9,1.22-15.85,2.51-1.68.45-3.29,1.45-5.06.84-9.06-3.11-16.81,1.13-24.66,4.41q-31.31,13.14-62.51,26.54a48.25,48.25,0,0,0-8.79,5A138.74,138.74,0,0,1,386,353.52c-1.91.78-5.28,1.39-4.13,4.22s3.78.21,5.73-.06c.76-.09,1.43-1.06,2.39.17-6.66,8.64-13.07,17.46-17,28a102.55,102.55,0,0,0-6.67,36.06q0,101.31,0,202.64c0,6.24-.45,12.53,1.46,18.63,4.76,21.85,15.93,39.76,33.13,54Q431.14,721,461.35,744.9c20.29,16.14,40.44,32.46,60.71,48.62,18.17,14.49,36.44,28.87,54.65,43.32,5.73,4.53,11.34,9.22,17.11,13.69,10.9,8.45,23.71,12.06,37.1,12.55,8.44.29,16.7-2.87,24.68-6,33-12.91,67.23-22.05,101.66-30.2,23.5-5.56,47.36-9.61,71.3-13.21,19.62-2.95,39.32-5.18,59.05-6.87,22.5-1.93,45.07-3,67.67-3l15.2.18c16.77.2,33.5,1.1,50.25,2.24s33.3,2.72,49.87,4.64c16.1,1.85,32.12,4.54,48.08,7.37,24.86,4.43,49.53,9.83,73.91,16.44,25.77,7,51.3,14.77,76.28,24.35,20.56,7.88,39.76,3.61,57.09-9.19,11.9-8.79,23.23-18.35,34.91-27.42,15.51-12,30.58-24.63,46.16-36.6,16.91-13,33.13-26.85,49.76-40.2,16.83-13.5,33.7-27,50.73-40.21,8.32-6.46,16.79-12.73,23.69-20.74,11.44-13.27,19.29-28.34,21-46.07,0,0,1.27-12.57,1.27-18.37s.22-196.6.22-196.6C1553.5,401.81,1547.86,381.72,1534.45,364.18Zm-1032,407.1c-1.36,1-1.65-.52-2.39-1.09-10-7.87-20.14-15.68-30.18-23.56Q455.63,735.37,441.45,724c-6.58-5.23-13.14-10.51-19.7-15.77-12.87-10.79-27.24-20-36.56-34.57-8.16-12.81-13.95-26.44-14-41.78q-.45-68.65-.32-137.33c.06-28.58-1.08-57.19.77-85.74A66.14,66.14,0,0,1,383,375.69c5.79-12.15,14.93-21.61,25.74-29.09,5.21-3.6,12.6-3.41,18.42-6.59,2.88-1.57,6.74-1.39,7.73-6.14.7-3.36,6-4.12,9.08-2,1.19.83,2.11.39,3.3-.13,5.06-2.2,10.42-3.71,15.16-6.65,1.37-.85,4.9-.2,2-3.82-1.1-1.38,1.66-2,2.87-2.46,2.22-.92,4.48-4.09,6.95-.95,1.31,1.66,2.2,2.22,4.25,1.52,6-2.1,12.2-3.87,17.89-6.89,2-1.06,2.1-1.16.92-2.26-.85-.82-2.55-1.49-1.65-2.7,1.22-1.62,3.41-1.43,5.36-1.48a2.15,2.15,0,0,1,2.45,2.13,39.39,39.39,0,0,1,.07,4.21q-.1,192.21-.18,384.42,0,27.12.16,54.25c0,5.8-1.3,11.62,0,17.43A2.55,2.55,0,0,1,502.48,771.28Zm898.38,14.36c-19,14.29-37.3,29.52-56,44.17-8.86,6.94-17,14.89-26.82,20.49-16.27,9.28-33.06,10.44-50.82,3.62-18.36-7-37.1-13-56.08-18.32-15.12-4.2-30.23-8.38-45.54-11.76-14.88-3.26-29.71-6.6-44.73-9.21-11.87-2.07-23.78-3.92-35.65-6-9.76-1.68-19.79-1.81-29.57-3.43-9.18-1.52-18.47-1.54-27.66-2.86-7.89-1.14-16-1.11-23.94-1.48q-13.28-.61-26.6-1L940.7,800c-20.22-.29-40.34,1.39-60.48,3.11-20.48,1.74-40.83,4.41-61.12,7.62-17.09,2.71-34.18,5.72-51.07,9.5q-29.5,6.63-58.65,14.83c-23.12,6.55-45.27,16.09-68.46,22-16.74,4.24-32.93-.32-46.72-11.44-9.29-7.49-18.49-15.1-27.87-22.49-15.4-12.14-31-24-46-36.72-3.49-3-7.64-5.11-10.78-8.6a6.21,6.21,0,0,1-2-4.58q.31-35,.54-70c-.07-4.56-.21-9.1-.21-13.64q0-88.26,0-176.54c0-1.92.15-3.84.23-5.75-.5-19.67-.44-39.33-.05-59q0-34.76,0-69.52c-.1-22.65-.13-45.28-.4-67.92,0-3.8,1.74-3.52,4.09-2.63,5.7,2.15,11.46,4.48,17.61,3.13s12.5-3.29,18.65-5.28c36.31-11.81,72.84-22.91,109.77-32.68,20.57-5.42,41-11.24,61.62-16.6,2.51-.65,4.79-1.76,6-3.41,5.27-7.34,13.25-7.95,21-9.51,3.65-.74,8.3.11,10.6-3.2,1.79-2.59,3.89-3,6.32-3.49.67-.14,1.77-.5,2-.23,4.54,5.85,10.23,2,15.27,1.53,4-.4,8.29-.26,11.58-4.3a6.08,6.08,0,0,1,8.85-.26c2.76,2.48,6.66.81,9.72.25,4.94-.91,10.14-1.37,14.74-3.85,5.59-3,11.16,1.06,16.9.1,5.28-.89,10.74-1.09,15.91-2.51,2.81-.78,5.69-1.35,8.23-.72,5.61,1.39,11.21.41,16.49-.37,12.36-1.82,24.74-1.56,37.13-2,7-.25,13.95-.58,20.93-1l38.7.05c14.15.54,28.34.51,42.49,1.21,8.12.4,16.2,1.65,24.26,2.84,2.44.36,4.38-.82,6.63-1,6.18-.43,11.77,2.57,17.91,2.65,5.11.06,10.12,1.9,15.33-.24a8,8,0,0,1,6.63.64c6.41,3.5,13.56,3.74,20.59,4.48,2.07.21,3.78.3,5.68-1.41,2.34-2.1,6.94-.93,7.56.69,2,5.17,6.52,3.52,9.79,4.57,3.57,1.13,7.54,1,11.34,1.39a4.53,4.53,0,0,0,4.75-1.81c2.31-2.68,7.59-.74,8,.63,2,6.07,7.22,3.93,10.87,5.17,4.19,1.42,8.8,1.51,13.22,2.31a4.31,4.31,0,0,1,2.62,1.46c6.27,9.22,16.31,10.82,26,13.19,36.5,8.9,72.62,19.16,108.57,30q30.75,9.32,61.32,19.21c7.65,2.47,14.85,1.67,22.17-1.05,6.79-2.53,6.84-2.4,6.79,4.6l-.34,65.24c.45,12.63.39,25.28,0,37.92.11,7.18.31,14.36.31,21.53q0,110.92-.07,221.82c0,1.74-.15,3.49-.23,5.23l0,37.93q.14,28.42.28,56.85a7.59,7.59,0,0,0,0,1.58C1415.12,772.82,1409.27,779.31,1400.86,785.64ZM1549.59,622c0,20.22-5.44,38.58-17.44,54.92-6.35,8.65-14.55,15.39-22.91,22-15,11.82-29.87,23.8-44.8,35.69-15.59,12.43-31.21,24.83-47.89,38.11V754.15q0-56.29,0-112.6,0-56.77,0-113.56,0-90.8,0-181.58,0-18.63,0-37.29c0-1.69-.11-3.13,2.31-3.11s5.5.52,6.36,2.71-2.86.74-3.85,3c6.57,3.68,13.69,5.88,20.83,8,.61.18,1.82.11,2-.22,3-6.28,6.11-.49,9.13,0,.48.07,1.34.44,1.34.64-.32,8.75,7.92,6.94,12.31,9.59,2.56,1.54,5.73,3.62,9.84.93,2.28-1.48,6.58.27,7.93,3.83a7.23,7.23,0,0,0,4.53,4.45,127,127,0,0,0,18.39,6.42c6.12,1.49,10.54,6.73,14.86,11.12a94.24,94.24,0,0,1,23.73,41.23c2.61,9.29,3.36,18.84,3.36,28.45Q1549.65,524.05,1549.59,622ZM1194.47,247.66a1,1,0,0,0,.1.24,1,1,0,0,0,.15-.19Zm20.1.28q-7.74-1.45-15.44-3.15c-1.59-.34-3.34-1-3.79,1.23a4.43,4.43,0,0,1-.62,1.69c6.64,1.48,12.82,2.91,19,4.21,1.78.37,4.53,1.49,5.09-.76C1219.54,248.37,1216.64,248.33,1214.57,247.94Zm319.88,116.24c-1.57-2.06-3.25-4-4.9-6,1.69-.7,3-.07,4.47.61,1.09.51,2.68,1.74,3.39-.31a2.8,2.8,0,0,0-1.66-3.87c-2.92-1.18-5.74-2.69-8.74-3.62-8.76-2.75-15.3-9.27-23.2-13.46-15-8-30.89-14-46.44-20.75-11.71-5.07-23.38-10.35-35.58-14.27-2.27-.73-4.59-1.46-6.59-.72-6.6,2.41-12.5-.27-18.34-2.29-2.54-.87-4.47-.48-7.56-.45,3.61,4.22,8.85,3.77,12.17,7.21-7.41,3.36-14.38,1.13-21.07-1.28-24.32-8.72-49.15-15.75-73.92-23-27-8-54.08-15.78-81.5-22.4-8-1.92-16-3.84-23.82-6.46-2.44-.82-5.27-1.51-6.59-5.15-.77.78-1.78-.35-2.48-1.4-5.19-7.76-13.33-9.76-21.67-11.21-10.52-1.84-21-3.82-31.66-4.92-7.66-.78-15.36-1.66-23-2.48-8-.86-16-1.5-24-2.69-6.83-1-13.81-1.12-20.73-1.54-11.57-.71-23.14-1.34-34.72-2-48.51-2.81-97-2.45-145.57-.77-21.54.75-43.08,2.43-64.57,4.19-16.2,1.32-32.39,3.12-48.51,5.27-12.43,1.66-24.8,3.88-37.08,6.42-6.54,1.36-10.63,6.88-15.26,11.29h0l0,0,.08,0c-3.2,4.55-8.37,5.12-13.15,6.41-26.19,7-52.46,13.8-78.56,21.15-23.73,6.68-47.38,13.67-70.86,21.17-9.1,2.9-18.48,5.1-27.24,9.15-4.86,2.24-10.26,1-15.43,1.12-.74,0-1.94.42-2.21-.71s.68-1.83,1.75-2.12a34.85,34.85,0,0,0,10.77-4.91c-6.3-2.1-10.9,1.22-15.85,2.51-1.68.45-3.29,1.45-5.06.84-9.06-3.11-16.81,1.13-24.66,4.41q-31.31,13.14-62.51,26.54a48.25,48.25,0,0,0-8.79,5A138.74,138.74,0,0,1,386,353.52c-1.91.78-5.28,1.39-4.13,4.22s3.78.21,5.73-.06c.76-.09,1.43-1.06,2.39.17-6.66,8.64-13.07,17.46-17,28a102.55,102.55,0,0,0-6.67,36.06q0,101.31,0,202.64c0,6.24-.45,12.53,1.46,18.63,4.76,21.85,15.93,39.76,33.13,54Q431.14,721,461.35,744.9c20.29,16.14,40.44,32.46,60.71,48.62,18.17,14.49,36.44,28.87,54.65,43.32,5.73,4.53,11.34,9.22,17.11,13.69,10.9,8.45,23.71,12.06,37.1,12.55,8.44.29,16.7-2.87,24.68-6,33-12.91,67.23-22.05,101.66-30.2,23.5-5.56,47.36-9.61,71.3-13.21,19.62-2.95,39.32-5.18,59.05-6.87,22.5-1.93,45.07-3,67.67-3l15.2.18c16.77.2,33.5,1.1,50.25,2.24s33.3,2.72,49.87,4.64c16.1,1.85,32.12,4.54,48.08,7.37,24.86,4.43,49.53,9.83,73.91,16.44,25.77,7,51.3,14.77,76.28,24.35,20.56,7.88,39.76,3.61,57.09-9.19,11.9-8.79,23.23-18.35,34.91-27.42,15.51-12,30.58-24.63,46.16-36.6,16.91-13,33.13-26.85,49.76-40.2,16.83-13.5,33.7-27,50.73-40.21,8.32-6.46,16.79-12.73,23.69-20.74,11.44-13.27,19.29-28.34,21-46.07,0,0,1.27-12.57,1.27-18.37s.22-196.6.22-196.6C1553.5,401.81,1547.86,381.72,1534.45,364.18Zm-1032,407.1c-1.36,1-1.65-.52-2.39-1.09-10-7.87-20.14-15.68-30.18-23.56Q455.63,735.37,441.45,724c-6.58-5.23-13.14-10.51-19.7-15.77-12.87-10.79-27.24-20-36.56-34.57-8.16-12.81-13.95-26.44-14-41.78q-.45-68.65-.32-137.33c.06-28.58-1.08-57.19.77-85.74A66.14,66.14,0,0,1,383,375.69c5.79-12.15,14.93-21.61,25.74-29.09,5.21-3.6,12.6-3.41,18.42-6.59,2.88-1.57,6.74-1.39,7.73-6.14.7-3.36,6-4.12,9.08-2,1.19.83,2.11.39,3.3-.13,5.06-2.2,10.42-3.71,15.16-6.65,1.37-.85,4.9-.2,2-3.82-1.1-1.38,1.66-2,2.87-2.46,2.22-.92,4.48-4.09,6.95-.95,1.31,1.66,2.2,2.22,4.25,1.52,6-2.1,12.2-3.87,17.89-6.89,2-1.06,2.1-1.16.92-2.26-.85-.82-2.55-1.49-1.65-2.7,1.22-1.62,3.41-1.43,5.36-1.48a2.15,2.15,0,0,1,2.45,2.13,39.39,39.39,0,0,1,.07,4.21q-.1,192.21-.18,384.42,0,27.12.16,54.25c0,5.8-1.3,11.62,0,17.43A2.55,2.55,0,0,1,502.48,771.28Zm898.38,14.36c-19,14.29-37.3,29.52-56,44.17-8.86,6.94-17,14.89-26.82,20.49-16.27,9.28-33.06,10.44-50.82,3.62-18.36-7-37.1-13-56.08-18.32-15.12-4.2-30.23-8.38-45.54-11.76-14.88-3.26-29.71-6.6-44.73-9.21-11.87-2.07-23.78-3.92-35.65-6-9.76-1.68-19.79-1.81-29.57-3.43-9.18-1.52-18.47-1.54-27.66-2.86-7.89-1.14-16-1.11-23.94-1.48q-13.28-.61-26.6-1L940.7,800c-20.22-.29-40.34,1.39-60.48,3.11-20.48,1.74-40.83,4.41-61.12,7.62-17.09,2.71-34.18,5.72-51.07,9.5q-29.5,6.63-58.65,14.83c-23.12,6.55-45.27,16.09-68.46,22-16.74,4.24-32.93-.32-46.72-11.44-9.29-7.49-18.49-15.1-27.87-22.49-15.4-12.14-31-24-46-36.72-3.49-3-7.64-5.11-10.78-8.6a6.21,6.21,0,0,1-2-4.58q.31-35,.54-70c-.07-4.56-.21-9.1-.21-13.64q0-88.26,0-176.54c0-1.92.15-3.84.23-5.75-.5-19.67-.44-39.33-.05-59q0-34.76,0-69.52c-.1-22.65-.13-45.28-.4-67.92,0-3.8,1.74-3.52,4.09-2.63,5.7,2.15,11.46,4.48,17.61,3.13s12.5-3.29,18.65-5.28c36.31-11.81,72.84-22.91,109.77-32.68,20.57-5.42,41-11.24,61.62-16.6,2.51-.65,4.79-1.76,6-3.41,5.27-7.34,13.25-7.95,21-9.51,3.65-.74,8.3.11,10.6-3.2,1.79-2.59,3.89-3,6.32-3.49.67-.14,1.77-.5,2-.23,4.54,5.85,10.23,2,15.27,1.53,4-.4,8.29-.26,11.58-4.3a6.08,6.08,0,0,1,8.85-.26c2.76,2.48,6.66.81,9.72.25,4.94-.91,10.14-1.37,14.74-3.85,5.59-3,11.16,1.06,16.9.1,5.28-.89,10.74-1.09,15.91-2.51,2.81-.78,5.69-1.35,8.23-.72,5.61,1.39,11.21.41,16.49-.37,12.36-1.82,24.74-1.56,37.13-2,7-.25,13.95-.58,20.93-1l38.7.05c14.15.54,28.34.51,42.49,1.21,8.12.4,16.2,1.65,24.26,2.84,2.44.36,4.38-.82,6.63-1,6.18-.43,11.77,2.57,17.91,2.65,5.11.06,10.12,1.9,15.33-.24a8,8,0,0,1,6.63.64c6.41,3.5,13.56,3.74,20.59,4.48,2.07.21,3.78.3,5.68-1.41,2.34-2.1,6.94-.93,7.56.69,2,5.17,6.52,3.52,9.79,4.57,3.57,1.13,7.54,1,11.34,1.39a4.53,4.53,0,0,0,4.75-1.81c2.31-2.68,7.59-.74,8,.63,2,6.07,7.22,3.93,10.87,5.17,4.19,1.42,8.8,1.51,13.22,2.31a4.31,4.31,0,0,1,2.62,1.46c6.27,9.22,16.31,10.82,26,13.19,36.5,8.9,72.62,19.16,108.57,30q30.75,9.32,61.32,19.21c7.65,2.47,14.85,1.67,22.17-1.05,6.79-2.53,6.84-2.4,6.79,4.6l-.34,65.24c.45,12.63.39,25.28,0,37.92.11,7.18.31,14.36.31,21.53q0,110.92-.07,221.82c0,1.74-.15,3.49-.23,5.23l0,37.93q.14,28.42.28,56.85a7.59,7.59,0,0,0,0,1.58C1415.12,772.82,1409.27,779.31,1400.86,785.64ZM1549.59,622c0,20.22-5.44,38.58-17.44,54.92-6.35,8.65-14.55,15.39-22.91,22-15,11.82-29.87,23.8-44.8,35.69-15.59,12.43-31.21,24.83-47.89,38.11V754.15q0-56.29,0-112.6,0-56.77,0-113.56,0-90.8,0-181.58,0-18.63,0-37.29c0-1.69-.11-3.13,2.31-3.11s5.5.52,6.36,2.71-2.86.74-3.85,3c6.57,3.68,13.69,5.88,20.83,8,.61.18,1.82.11,2-.22,3-6.28,6.11-.49,9.13,0,.48.07,1.34.44,1.34.64-.32,8.75,7.92,6.94,12.31,9.59,2.56,1.54,5.73,3.62,9.84.93,2.28-1.48,6.58.27,7.93,3.83a7.23,7.23,0,0,0,4.53,4.45,127,127,0,0,0,18.39,6.42c6.12,1.49,10.54,6.73,14.86,11.12a94.24,94.24,0,0,1,23.73,41.23c2.61,9.29,3.36,18.84,3.36,28.45Q1549.65,524.05,1549.59,622Z"/><path class="cls-2" d="M1412.36,761.64a7.59,7.59,0,0,1,0-1.58q-.13-28.42-.28-56.85l0-37.93c.08-1.74.23-3.49.23-5.23q.06-110.91.07-221.82c0-7.17-.2-14.35-.31-21.53.4-12.64.46-25.29,0-37.92l.34-65.24c0-7,0-7.13-6.79-4.6-7.32,2.72-14.52,3.52-22.17,1.05q-30.59-9.84-61.32-19.21c-35.95-10.88-72.07-21.14-108.57-30-9.72-2.37-19.76-4-26-13.19a4.31,4.31,0,0,0-2.62-1.46c-4.42-.8-9-.89-13.22-2.31-3.65-1.24-8.92.9-10.87-5.17-.43-1.37-5.71-3.31-8-.63a4.53,4.53,0,0,1-4.75,1.81c-3.8-.42-7.77-.26-11.34-1.39-3.27-1.05-7.8.6-9.79-4.57-.62-1.62-5.22-2.79-7.56-.69-1.9,1.71-3.61,1.62-5.68,1.41-7-.74-14.18-1-20.59-4.48a8,8,0,0,0-6.63-.64c-5.21,2.14-10.22.3-15.33.24-6.14-.08-11.73-3.08-17.91-2.65-2.25.15-4.19,1.33-6.63,1-8.06-1.19-16.14-2.44-24.26-2.84-14.15-.7-28.34-.67-42.49-1.21l-38.7-.05c-7,.37-14,.7-20.93,1-12.39.43-24.77.17-37.13,2-5.28.78-10.88,1.76-16.49.37-2.54-.63-5.42-.06-8.23.72-5.17,1.42-10.63,1.62-15.91,2.51-5.74,1-11.31-3.1-16.9-.1-4.6,2.48-9.8,2.94-14.74,3.85-3.06.56-7,2.23-9.72-.25a6.08,6.08,0,0,0-8.85.26c-3.29,4-7.63,3.9-11.58,4.3-5,.51-10.73,4.32-15.27-1.53-.21-.27-1.31.09-2,.23-2.43.54-4.53.9-6.32,3.49-2.3,3.31-7,2.46-10.6,3.2-7.75,1.56-15.73,2.17-21,9.51-1.2,1.65-3.48,2.76-6,3.41-20.59,5.36-41,11.18-61.62,16.6-36.93,9.77-73.46,20.87-109.77,32.68-6.15,2-12.35,3.91-18.65,5.28s-11.91-1-17.61-3.13c-2.35-.89-4.13-1.17-4.09,2.63.27,22.64.3,45.27.4,67.92q0,34.75,0,69.52c-.39,19.66-.45,39.32.05,59-.08,1.91-.23,3.83-.23,5.75q0,88.26,0,176.54c0,4.54.14,9.08.21,13.64q-.27,35-.54,70a6.21,6.21,0,0,0,2,4.58c3.14,3.49,7.29,5.63,10.78,8.6,14.93,12.75,30.57,24.58,46,36.72,9.38,7.39,18.58,15,27.87,22.49,13.79,11.12,30,15.68,46.72,11.44,23.19-5.87,45.34-15.41,68.46-22q29.14-8.25,58.65-14.83c16.89-3.78,34-6.79,51.07-9.5,20.29-3.21,40.64-5.88,61.12-7.62,20.14-1.72,40.26-3.4,60.48-3.11l36.71-.13q13.3.35,26.6,1c8,.37,16,.34,23.94,1.48,9.19,1.32,18.48,1.34,27.66,2.86,9.78,1.62,19.81,1.75,29.57,3.43,11.87,2.06,23.78,3.91,35.65,6,15,2.61,29.85,6,44.73,9.21,15.31,3.38,30.42,7.56,45.54,11.76,19,5.28,37.72,11.28,56.08,18.32,17.76,6.82,34.55,5.66,50.82-3.62,9.82-5.6,18-13.55,26.82-20.49,18.74-14.65,37-29.88,56-44.17C1409.27,779.31,1415.12,772.82,1412.36,761.64ZM529,517.55c1-3.69,1.91-7.39,2.86-11.08.16-.3.3-.62.47-.91,1.33-2.23,1.22-6.95,4.09-6.24,3.93,1,.38,5,.94,7.63-1.37,3.89-2.56,7.86-4.17,11.66-.69,1.6-.54,4.94-3.52,3.95C527.29,521.78,528.5,519.36,529,517.55Zm-1.61,36.57c0-7,.13-14,.3-21a1.47,1.47,0,0,1,1.67-1.58,1.87,1.87,0,0,1,1.5,1.9c.25,3.67.4,7.34.59,11h-.16c0,3.16,0,6.31,0,9.46,0,1.14-.24,2.31-1.45,2.43A2.19,2.19,0,0,1,527.36,554.12ZM540,588c-1.56.71-2.72,0-3.39-1.51a106.9,106.9,0,0,1-6.29-18.68c.06-1.14-.28-2.4,1.19-2.66a2.21,2.21,0,0,1,2.46,1.56q3.51,9,6.89,18.1C541.24,586,541.38,587.36,540,588Zm3.63-97.4a4.48,4.48,0,0,1-2.48-.24c-1-.52-.6-1.6-.21-2.33,3.36-6.4,7.54-12.15,13.31-16.61,1-.79,2.26-1.25,2.72.64C557,472.86,544.39,490.51,543.59,490.6Zm14.46,124.12a69.91,69.91,0,0,1-13.23-15.52c-.92-1.49-.81-3,.88-3.45,2,.25,15.7,16.58,15.4,18C560.69,615.75,559.35,615.9,558.05,614.72Zm7.28-149.26a3.84,3.84,0,0,1-1,.28c-2.28-.39-2.65-1.9-1.28-3.28,5.14-5.15,11.58-8.2,18.29-10.72a2,2,0,0,1,2.3.85,1.47,1.47,0,0,1-.48,2.24C577.25,458.43,571.29,461.94,565.33,465.46Zm24.93,166.05c-8.64.21-15-5-21.65-9.3-1-.68-.5-1.92-.33-2.94,7.64,2.21,14.17,6.85,21.43,9.91C590.65,629.57,590.4,630.65,590.26,631.51Zm3.37-180.63c-1.37.28-2-1-1.89-2.47,7.32-3.34,15.15-2.79,22.89-3,2,0,2.07,1.41,2.08,2.86C609.17,450.45,601.26,449.3,593.63,450.88ZM623.8,634.76c-7.54,1.69-15.18.56-22.78.64-.8,0-1.61-1.12-2.41-1.72.39-.56.72-1.56,1.17-1.63,7.65-1,15.35-.59,23-.33C624.49,631.78,623.71,633.66,623.8,634.76Zm1.52-186.5c3.57-2.56,6.54.64,9.78,1.1a32.11,32.11,0,0,1,5.43,1.76c2.07.9,4.19,1.7,6.18,2.74a2.91,2.91,0,0,1,1.41,4c-1.06,2.07-2.41.22-3.4-.32a97,97,0,0,0-13.85-5.8C628.75,451,626.53,450.45,625.32,448.26ZM652.9,623.5l-10.42,5.79L635,632c-3.13-.7-3.86-2.3-.7-3.71,5.69-2.54,11.45-4.9,16.7-8.34,1-.63,2.44-1.19,3.27.14S654.26,622.73,652.9,623.5Zm730.5-124.3c1.23-.5,1.94.37,2.41,1.38,2.83,6.2,4.28,12.84,6,18.82.22,1.63.18,2.68-1.07,3.13a2.11,2.11,0,0,1-2.93-1.39q-3.08-9.66-5.92-19.41A2.21,2.21,0,0,1,1383.4,499.2Zm-95.75,132.14c-4.39,1.43-7.63-1.94-11.49-2.73-3-1.73-6.06-3.44-9.07-5.2-1.39-.82-2-2.06-1-3.5s2.37-.46,3.27.13a82.35,82.35,0,0,0,16.38,8.09A2.6,2.6,0,0,1,1287.65,631.34ZM1290,451.43c-5,1.88-10.17,3.46-14.85,6.22-.82.48-2.05,2.14-3,.42a2.56,2.56,0,0,1,1-3.64c2.39-1.36,4.86-2.6,7.3-3.89,4.88-.66,9.23-3.76,14.4-3.17C1294.59,450.35,1292,450.68,1290,451.43Zm30.87,183.42c-7.26,1.28-14.57.66-21.87.57a3.5,3.5,0,0,1-3-1.74c.36-2.13,2-2.12,3.59-2.12,6.13,0,12.27.05,18.4,0C1320.48,631.45,1321.69,632.19,1320.88,634.85ZM1324.76,451a81.65,81.65,0,0,0-17.71-1.66c-2.23,0-3.81-.55-3.79-3.14,8.62-2,16.93-.46,25.14,2.22C1328.13,450.6,1327,451.46,1324.76,451Zm25.38,172.34a110.22,110.22,0,0,1-14.79,7.77c-1.87.74-3.65.46-5.41.3-.32-1.93.75-2.57,1.9-3.07a144.89,144.89,0,0,0,16.39-8.09c1-.57,2.6-2,3.62-.16C1352.74,621.65,1351.42,622.57,1350.14,623.35ZM1354,465.19a165.41,165.41,0,0,0-16.09-9.74c-1-.56-2.19-1.48-1.4-2.95s2.18-1.25,3.24-.74c5.83,2.77,11.77,5.38,16.63,9.79a18,18,0,0,1,1.66,2C1357.2,465.61,1355.85,466.51,1354,465.19Zm21.57,134.08a80.15,80.15,0,0,1-13.5,15.27,2,2,0,0,1-2.89.06c-.86-1,.06-2,.67-2.74q6.2-7.49,12.5-14.88c.66-.79,1.5-1.67,2.65-.94.52.33.75,1.09,1.1,1.63A6.11,6.11,0,0,1,1375.55,599.27Zm2.83-108.44a2.54,2.54,0,0,1-2.86-.73c-4-5.5-7.83-11-11.69-16.61a1.85,1.85,0,0,1,.24-2.4c.24-.24,1-.09,1.39,0,2.94.82,14.06,14.82,14.11,17.72C1379.64,489.8,1379.44,490.55,1378.38,490.83ZM1389.82,568a81.75,81.75,0,0,1-6.51,18.84c-.55,1.17-1.51,2-3,1.34a2.05,2.05,0,0,1-.93-2.72q3.32-9.36,6.84-18.66c.44-1.16,1.33-2.25,2.84-1.55C1390.33,565.77,1389.74,567,1389.82,568Zm3-14.05c-.06,1.31-.75,2.35-2.35,2.15s-1.56-1.49-1.55-2.73c0-3,0-5.92,0-8.88h-.09c.17-3.48.28-6.95.53-10.42.06-1,.24-2.28,1.44-2.5,1.43-.26,1.68,1.14,1.79,2.06A127.76,127.76,0,0,1,1392.82,553.9Z"/><path class="cls-1" d="M1390.79,522.53a2.11,2.11,0,0,1-2.93-1.39q-3.08-9.66-5.92-19.41a2.21,2.21,0,0,1,1.46-2.53c1.23-.5,1.94.37,2.41,1.38,2.83,6.2,4.28,12.84,6,18.82C1392.08,521,1392,522.08,1390.79,522.53Z"/><path class="cls-1" d="M1358,463.59c-.82,2-2.17,2.92-4,1.6a165.41,165.41,0,0,0-16.09-9.74c-1-.56-2.19-1.48-1.4-2.95s2.18-1.25,3.24-.74c5.83,2.77,11.77,5.38,16.63,9.79A18,18,0,0,1,1358,463.59Z"/><path class="cls-1" d="M1389.82,568a81.75,81.75,0,0,1-6.51,18.84c-.55,1.17-1.51,2-3,1.34a2.05,2.05,0,0,1-.93-2.72q3.32-9.36,6.84-18.66c.44-1.16,1.33-2.25,2.84-1.55C1390.33,565.77,1389.74,567,1389.82,568Z"/><path class="cls-1" d="M1378.38,490.83a2.54,2.54,0,0,1-2.86-.73c-4-5.5-7.83-11-11.69-16.61a1.85,1.85,0,0,1,.24-2.4c.24-.24,1-.09,1.39,0,2.94.82,14.06,14.82,14.11,17.72C1379.64,489.8,1379.44,490.55,1378.38,490.83Z"/><path class="cls-1" d="M1376.08,597.67a6.11,6.11,0,0,1-.53,1.6,80.15,80.15,0,0,1-13.5,15.27,2,2,0,0,1-2.89.06c-.86-1,.06-2,.67-2.74q6.2-7.49,12.5-14.88c.66-.79,1.5-1.67,2.65-.94C1375.5,596.37,1375.73,597.13,1376.08,597.67Z"/><path class="cls-1" d="M1328.4,448.43c-.27,2.17-1.45,3-3.64,2.58a81.65,81.65,0,0,0-17.71-1.66c-2.23,0-3.81-.55-3.79-3.14C1311.88,444.23,1320.19,445.75,1328.4,448.43Z"/><path class="cls-1" d="M1287.65,631.34c-4.39,1.43-7.63-1.94-11.49-2.73-3-1.73-6.06-3.44-9.07-5.2-1.39-.82-2-2.06-1-3.5s2.37-.46,3.27.13a82.35,82.35,0,0,0,16.38,8.09A2.6,2.6,0,0,1,1287.65,631.34Z"/><path class="cls-1" d="M1320.88,634.85c-7.26,1.28-14.57.66-21.87.57a3.5,3.5,0,0,1-3-1.74c.36-2.13,2-2.12,3.59-2.12,6.13,0,12.27.05,18.4,0C1320.48,631.45,1321.69,632.19,1320.88,634.85Z"/><path class="cls-1" d="M1350.14,623.35a110.22,110.22,0,0,1-14.79,7.77c-1.87.74-3.65.46-5.41.3-.32-1.93.75-2.57,1.9-3.07a144.89,144.89,0,0,0,16.39-8.09c1-.57,2.6-2,3.62-.16C1352.74,621.65,1351.42,622.57,1350.14,623.35Z"/><path class="cls-1" d="M1392.82,553.9c-.06,1.31-.75,2.35-2.35,2.15s-1.56-1.49-1.55-2.73c0-3,0-5.92,0-8.88h-.09c.17-3.48.28-6.95.53-10.42.06-1,.24-2.28,1.44-2.5,1.43-.26,1.68,1.14,1.79,2.06A127.76,127.76,0,0,1,1392.82,553.9Z"/><path class="cls-1" d="M1294.82,447.37c-.23,3-2.8,3.31-4.81,4.06-5,1.88-10.17,3.46-14.85,6.22-.82.48-2.05,2.14-3,.42a2.56,2.56,0,0,1,1-3.64c2.39-1.36,4.86-2.6,7.3-3.89C1285.3,449.88,1289.65,446.78,1294.82,447.37Z"/><path class="cls-1" d="M537.33,507c-1.37,3.89-2.56,7.86-4.17,11.66-.69,1.6-.54,4.94-3.52,3.95-2.35-.78-1.14-3.2-.67-5,1-3.69,1.91-7.39,2.86-11.08.16-.3.3-.62.47-.91,1.33-2.23,1.22-6.95,4.09-6.24C540.32,500.3,536.77,504.32,537.33,507Z"/><path class="cls-1" d="M540,588c-1.56.71-2.72,0-3.39-1.51a106.9,106.9,0,0,1-6.29-18.68c.06-1.14-.28-2.4,1.19-2.66a2.21,2.21,0,0,1,2.46,1.56q3.51,9,6.89,18.1C541.24,586,541.38,587.36,540,588Z"/><path class="cls-1" d="M561.1,613.77c-.41,2-1.75,2.13-3.05,1a69.91,69.91,0,0,1-13.23-15.52c-.92-1.49-.81-3,.88-3.45C547.72,596,561.4,612.33,561.1,613.77Z"/><path class="cls-1" d="M616.71,448.31c-7.54,2.14-15.45,1-23.08,2.57-1.37.28-2-1-1.89-2.47,7.32-3.34,15.15-2.79,22.89-3C616.65,445.41,616.7,446.86,616.71,448.31Z"/><path class="cls-1" d="M652.9,623.5l-10.42,5.79L635,632c-3.13-.7-3.86-2.3-.7-3.71,5.69-2.54,11.45-4.9,16.7-8.34,1-.63,2.44-1.19,3.27.14S654.26,622.73,652.9,623.5Z"/><path class="cls-1" d="M590.26,631.51c-8.64.21-15-5-21.65-9.3-1-.68-.5-1.92-.33-2.94,7.64,2.21,14.17,6.85,21.43,9.91C590.65,629.57,590.4,630.65,590.26,631.51Z"/><path class="cls-1" d="M648.12,457.87c-1.06,2.07-2.41.22-3.4-.32a97,97,0,0,0-13.85-5.8c-2.12-.76-4.34-1.3-5.55-3.49,3.57-2.56,6.54.64,9.78,1.1a32.11,32.11,0,0,1,5.43,1.76c2.07.9,4.19,1.7,6.18,2.74A2.91,2.91,0,0,1,648.12,457.87Z"/><path class="cls-1" d="M623.8,634.76c-7.54,1.69-15.18.56-22.78.64-.8,0-1.61-1.12-2.41-1.72.39-.56.72-1.56,1.17-1.63,7.65-1,15.35-.59,23-.33C624.49,631.78,623.71,633.66,623.8,634.76Z"/><path class="cls-1" d="M531.26,544.44c0,3.16,0,6.31,0,9.46,0,1.14-.24,2.31-1.45,2.43a2.19,2.19,0,0,1-2.46-2.21c0-7,.13-14,.3-21a1.47,1.47,0,0,1,1.67-1.58,1.87,1.87,0,0,1,1.5,1.9c.25,3.67.4,7.34.59,11Z"/><path class="cls-1" d="M292.68,528.37c.09-7,.53-14,.15-21-.3-5.33,1.35-7.53,6.72-6.52a8.22,8.22,0,0,0,2.08-.16c7.86.07,15.72.27,23.57.15,3.15,0,4.28.9,4.22,4.16-.19,8.91-.13,17.82,0,26.73,0,3-.66,4.47-4,4.41-9.78-.17-19.57.07-29.34-.19C290.37,535.79,294.11,530.78,292.68,528.37Zm32.39-9.75v-3.15c0-10.34,0-10.34-10.38-10.35-12,0-12.05,0-12,12.1,0,4.69-1.63,11,.75,13.65,2.75,3.08,9.17.81,14,.91,7.72.17,7.72.06,7.66-7.39C325.06,522.47,325.07,520.54,325.07,518.62Z"/><path class="cls-1" d="M465.36,783.67c2.11,0,4.21,0,6.31,0,9.19.11,10.59,1.27,12.56,10.45,2.87,13.4-5.84,26.7-17.77,27.12-12.18.43-22.06-11.49-20.3-24.51.11-.86.38-1.71.55-2.57,1.88-9.38,3-10.29,12.34-10.39,2.11,0,4.21,0,6.31,0Zm15.18,15.23c-.08-.64-.18-1.87-.39-3.07-1.29-7.44-2-8.1-9.44-8.16-4.56,0-9.12,0-13.69,0-1.59,0-3.13-.07-4.27,1.42-5.9,7.76-1.24,23.54,8,27C470.59,819.79,480.6,811.38,480.54,798.9Z"/><path class="cls-1" d="M1231.62,252c6,1.38,12.46,2.08,18.53,4.48,1.17.47,2.52,1.18,2.2,2.54s-1.73,1.69-3,1.37c-6.26-1.55-12.51-3.15-18.76-4.73-1.26-.32-2.57-.93-2.32-2.36S1230.13,252.17,1231.62,252Z"/><path class="cls-1" d="M606.39,277.3c-1.8.12-2.9,0-3.29-1.17a1.94,1.94,0,0,1,1.31-2.5,132,132,0,0,1,20.45-6c1.06-.23,2.2-.17,2.34,1.27a2.15,2.15,0,0,1-1.65,2.35Z"/><path class="cls-1" d="M574.25,286.35c-2.06-.12-3.12.09-3.5-.84a2,2,0,0,1,1.21-2.58,97.57,97.57,0,0,1,20.35-6,1.82,1.82,0,0,1,2.15,1.11,2,2,0,0,1-1.56,2.35C586.34,282.53,579.74,284.6,574.25,286.35Z"/><path class="cls-1" d="M1377.86,296.69c-5.75-1.88-11.71-3.78-17.63-5.78-1.41-.48-2.51-1.48-1.87-3.18.75-2,2.36-1.05,3.54-.68,5.81,1.82,11.58,3.74,17.34,5.72,1.07.36,2.53.78,2.24,2.42C1381.1,297.25,1379.34,296.42,1377.86,296.69Z"/><path class="cls-1" d="M1317,275.47a2.17,2.17,0,0,1-3.1,1.88c-6.46-1.94-12.89-4-19.34-6a1.81,1.81,0,0,1-1.41-1.92,1.54,1.54,0,0,1,1.87-1.36c7.32.63,14.17,3.05,20.94,5.72C1316.47,274,1316.69,274.93,1317,275.47Z"/><path class="cls-1" d="M670.21,260.41c-1.17.11-2.38-.11-2.52-1.31a2.55,2.55,0,0,1,1.84-2.35,90.91,90.91,0,0,1,20.31-4.83c.71-.09,2,.48,2.2,1,.44,1.51-1,2.21-2.07,2.49C683.41,257.17,676.8,258.76,670.21,260.41Z"/><path class="cls-1" d="M1284.63,266.58a2.16,2.16,0,0,1-2.83,1.62c-6.22-1.48-12.43-3-18.6-4.72-1.47-.4-3.22-1.52-2.64-3.28s2.47-.8,3.67-.53c5.92,1.3,11.82,2.73,17.69,4.25C1283.16,264.25,1284.7,264.71,1284.63,266.58Z"/><path class="cls-1" d="M1346,286.3c-5.49-1.62-11.64-3.45-17.8-5.25a2.21,2.21,0,0,1-1.59-2.85c.25-1.26,1.33-1.5,2.47-1.17,6.16,1.8,12.34,3.56,18.46,5.5,1,.32,2.35,1.21,1.89,2.73C1349.05,286.55,1347.75,286.12,1346,286.3Z"/><path class="cls-1" d="M541.65,296.71c-1.25-.27-2.57.42-2.94-1.06a2,2,0,0,1,1.39-2.45c6.35-2.35,12.63-4.94,19.31-6.28,1-.2,2.21-.43,2.56,1a2.06,2.06,0,0,1-1.34,2.49C554.47,293.32,547.73,294.46,541.65,296.71Z"/><path class="cls-1" d="M659.74,260.38a3.4,3.4,0,0,1-2.68,2.86c-6.2,1.63-12.39,3.31-18.61,4.89-1,.25-2.21.33-2.67-.91a2.09,2.09,0,0,1,1.53-2.87c6.87-1.86,13.77-3.6,20.67-5.32A1.32,1.32,0,0,1,659.74,260.38Z"/><path class="cls-1" d="M725.42,248.06c-6.85.46-13.27,3.07-20,4-1.56.21-3.89,1.49-4.31-1-.35-2,1.8-2.55,3.62-2.9,4.79-.93,9.63-1.72,14.29-3.1,3.45-1,5.38-.27,6.3,3.15Z"/><path class="cls-1" d="M556.93,472.06c.06.8-12.54,18.45-13.34,18.54a4.48,4.48,0,0,1-2.48-.24c-1-.52-.6-1.6-.21-2.33,3.36-6.4,7.54-12.15,13.31-16.61C555.24,470.63,556.47,470.17,556.93,472.06Z"/><path class="cls-1" d="M583.18,454.83c-5.93,3.6-11.89,7.11-17.85,10.63a3.84,3.84,0,0,1-1,.28c-2.28-.39-2.65-1.9-1.28-3.28,5.14-5.15,11.58-8.2,18.29-10.72a2,2,0,0,1,2.3.85A1.47,1.47,0,0,1,583.18,454.83Z"/><path class="cls-1" d="M1454.84,821.27c-10.76.05-19-9.06-19.39-21.08a26.93,26.93,0,0,1,.53-5.73c1.79-9.55,3.09-10.64,12.65-10.7q8.41,0,16.82,0c1.93,0,3.64.31,5,2.21,7.78,11,3,28.79-9.36,34.05A13,13,0,0,1,1454.84,821.27Zm0-33.61c-1.4,0-2.8,0-4.2,0-9,.11-9.44.46-10.74,9.5-.1.69-.18,1.39-.21,2.08-.35,10.08,7.93,18.73,17,17.77,7.78-.83,14.39-10.82,13.15-19.88-1.2-8.77-2-9.46-10.79-9.48C1457.6,787.64,1456.2,787.65,1454.8,787.66Z"/><path class="cls-1" d="M1609,500.93c4.9,0,9.8.11,14.69-.05,2.76-.08,3.68,1,3.66,3.67-.07,9.28,0,18.55.06,27.82,0,2.6-1,3.71-3.7,3.67q-14.7-.18-29.38-.06c-2.76,0-3.61-1.05-3.58-3.68.11-9.27.19-18.54,0-27.81-.06-3.16,1.25-3.79,4-3.68,4.72.17,9.45,0,14.18,0Zm8.71,17.45h-.13c0-3.33-.14-6.68.05-10,.14-2.42-.43-3.41-3.12-3.3-5.26.21-10.54.18-15.79-.05-2.72-.12-3.74.61-3.62,3.43.2,4.73.1,9.48.05,14.22-.1,9.29-.12,9.37,9,9.14,4.33-.11,10.21,1.92,12.54-.78S1617.52,522.72,1617.72,518.38Z"/><rect class="cls-2" width="1" height="1"/><rect class="cls-2" x="1919" y="1079" width="1" height="1"/><rect class="cls-2" y="1079" width="1" height="1"/><rect class="cls-2" x="1919" width="1" height="1"/></g><g id="Capa_3" data-name="Capa 3"><path d="M802.92,479.9v111H783.09V520.19L763.58,535.1l-16.17,12.53L731.23,535.1l-19.51-14.91v70.74H691.89v-111l19.83,15.23,35.69,27.44,35.68-27.44Z"/><path d="M856.84,516.86v75.5H837V514.8a15.83,15.83,0,0,0-13.49-13.48h-4.44V481.65h4.28v.16a35.35,35.35,0,0,1,29.51,19.82,41.54,41.54,0,0,1,2.69,7.46,33,33,0,0,1,1,8.09Z"/><path d="M982.94,571.42v19.83H872.23V558.58a31.66,31.66,0,0,1,2.69-12.85,32.59,32.59,0,0,1,28.87-20h48.06a13,13,0,0,0-1.11-25.85h-78.2V480.06h78.2a32.63,32.63,0,0,1,32.68,32.68,31.62,31.62,0,0,1-2.7,12.84,31.94,31.94,0,0,1-6.66,9.84,32.94,32.94,0,0,1-22.37,10h-47.9a12.92,12.92,0,0,0-11.58,12.85v12.85Z"/><path d="M1110.14,479.9v111h-19.83V545.25h-58.52a31.39,31.39,0,0,1-14.91-3.65,32.38,32.38,0,0,1-17.77-29V479.9h19.83v32.68a13.06,13.06,0,0,0,13,13h58.53V479.9Z"/><path d="M1196.26,479.9a35.81,35.81,0,0,1,35.85,35.85v39.18a35.82,35.82,0,0,1-35.85,35.85H1162a35.82,35.82,0,0,1-35.84-35.85V515.75A35.81,35.81,0,0,1,1162,479.9ZM1162,499.73a16.25,16.25,0,0,0-16.18,16.18v39.18A16.25,16.25,0,0,0,1162,571.27h34.26a16.25,16.25,0,0,0,16.18-16.18V515.91a16.25,16.25,0,0,0-16.18-16.18Z"/></g></g></svg>