<svg xmlns="http://www.w3.org/2000/svg" viewBox="0 0 1920 1080"><defs><style>.cls-1{fill:#f2f2f2;}.cls-2{fill:#010101;}</style></defs><g id="Capa_2" data-name="Capa 2"><g id="Capa_1-2" data-name="Capa 1"><rect class="cls-1" width="1" height="1"/><rect class="cls-1" x="1919" y="1079" width="1" height="1"/><rect class="cls-1" y="1079" width="1" height="1"/><rect class="cls-1" x="1919" width="1" height="1"/><path class="cls-1" d="M1521.81,554.2c-4.64,21.21-23.15,37.53-44.76,39.17-15.44,1.19-30.93.65-46.39.68-23.2.05-46.42.62-69.61,0-29-.73-48.88,11.9-61.78,37.74-12.64,25.31-26.5,50-39.8,75-7.15,13.43-17.27,23-32.64,26.35a35.86,35.86,0,0,1-13.42.16c-9.52-1.52-18.68-1.34-26.48,5.44-2.25,2-4.71,1.54-7.29.92-4.37-1.05-8.75-2.08-13.17-2.91-2-.37-4,.07-4.63,2.4-.7,2.63.52,4.27,3.14,5,4.61,1.25,9.21,2.55,14.08,3.91-2.26,7.54-4.25,14.28-6.33,21-.93,3-2.33,4.91-6.26,3.87-14.29-3.75-28.63-7.35-43-10.66-4.71-1.09-6.49-2.64-5.09-7.84,1.73-6.44,2.34-13.16,3.5-20.08,6.48,1.2,12.42,2.58,18.44,3.36,6.2.82,6.23.56,6-7-7.82-.12-15.09-3-22.68-4.36-2.76-.48-4.39-2.44-5.75-4.74-3.71-6.31-9.54-9.36-16.54-10.46-11.75-1.86-23.47-4-35.29-5.37-26.87-3-53.79-5.72-80.87-6.14-17.2-.56-50.38.18-50.38.18-31.2.42-62.23,3.26-93.14,7.47a36.73,36.73,0,0,1-4.81.06c-5.67,2.67-12,2-17.93,3.46-6.9,1.73-12.82,4.39-16.5,10.59-2.23,3.77-5.39,5-9.48,5.57-5.39.8-10.64,2.45-16,3.61-3,.65-4.74,2.24-4.27,5.32.51,3.39,3.47,2.42,5.4,2.19,5.74-.68,11.48-1.57,17.13-2.79,3-.66,4.1.29,4.44,3.12.72,6.06,1.46,12.13,2.4,18.15.52,3.27-.64,4.41-3.85,5.13-15,3.4-30.06,7-45,10.83-4.31,1.13-5.6-.21-6.47-4.13-1.46-6.57-3.44-13-5.23-19.61,2.11-3.12,5.81-2.09,8.68-3.26,2.33-1,5.16-1,6.89-3.16a4.66,4.66,0,0,0,1-4.52c-.69-2-2.44-1.89-4-1.58a106.74,106.74,0,0,0-12.2,2.78c-3.08,1-5.76.78-8.16-1.16-7.22-5.82-15.1-6.51-23.6-3.47a10.46,10.46,0,0,1-2.87.2c-10.55,3.77-21.08,7.6-31.66,11.3-12,4.2-23.22,2.78-33.89-4.63C621,727,600.14,713.1,579.35,699q-36.14-24.49-72.29-49L433.3,600.14c-25-16.94-35.42-41.59-37.23-70.71A92.21,92.21,0,0,1,400,495.07c6.44-19.85,18.66-35.23,37.37-44.77,18.32-9.33,37.41-17,56.44-24.81L515.09,417q36.07-13.56,72.23-27c3.91-1.47,7.94-2.69,11.72-4.45,7.39-3.4,9.23-7.3,8.16-15.39-1.39-10.51-4.43-20.65-7.54-31.33l54.28-16.39c3,9.4,5.8,18.5,8.75,27.56,4,12.47,7.77,14.8,20.78,12.07,42.53-8.94,85.4-15.85,128.47-21.61,5.75-.77,11.52-1.44,17.29-1.9,13.63-1.12,24.18,5.33,29.12,17.59,4.55,11.29,1.19,23.77-9.94,31.49-13.73,9.53-28.19,18-42.28,27C796.36,421,786.7,427.37,777,433.65c-10.83,7-17.5,16-15.08,29.74.33,1.87-.08,3.87.14,5.78.45,3.88-1.32,5-5,5-8-.08-16.12.39-24.17.22-4.62-.09-6.14,1.59-6.11,6.21q.27,41.07.05,82.17c0,4.15,1.32,5.72,5.53,5.65,8.37-.17,16.75.13,25.13.07,3.25,0,4.66,1.11,4.47,4.52a27.73,27.73,0,0,0,10.64,23.62c5,4.08,11.62,6.24,17.64,9,11.54,5.23,23.24,10.14,34.72,15.5,2.3,1.08,4.3.76,6.49.75q49.8-.24,99.59-.41l58.64.74c13.49-1.21,27-.38,40.52-.52,16.43-.16,32.86,0,49.3,0a54.68,54.68,0,0,0,24.9-5.51c11.35-5.62,23.16-10.31,34.75-15.45a22,22,0,0,0,3.11-2.06c12.2-5.89,16.65-16.12,15.31-30.32,10.16,0,19.42-.14,28.68.06,4.62.09,6.86-.89,6.79-6.35-.3-26.74-.12-53.48-.2-80.23,0-6.8-.2-7-6.78-7.27-7.39-.32-14.82-.44-22.22-.24-4.37.11-6.65-.85-6.17-5.85.42-4.47-.06-9,.12-13.52.22-5.57-1.87-9.85-5.93-13.63a136.12,136.12,0,0,0-20.1-15c-18-11.37-36-22.63-53.9-34-4.62-2.92-9.45-5.7-12.63-10.32-6.09-8.86-7.88-18.39-2.68-28.2,5.44-10.25,14.22-15.64,26-15.2,6.43.24,12.86,1,19.25,1.86q65.6,8.37,130.31,22.06c10.41,2.22,15-.26,18.47-10.4,3.35-9.63,6.14-19.45,9.38-29.8l54.14,16.2c-2.21,9.12-4.46,18-6.52,26.93-3.08,13.35-1.09,17,11.9,21.85,25.29,9.42,50.68,18.55,75.86,28.23,14.89,5.72,12.08,3.05,12.36,17.52.11,5.16.06,10.31,0,15.47,0,2.53.45,4.57,3.61,4.36,2.74-.2,3.76-1.74,3.72-4.46-.1-7.74,0-15.46,0-22.81,3-1.93,4.78-.13,6.8.63,16.53,6.29,32.52,13.85,48.65,21.09,31.59,14.2,46.49,39.29,47.4,73.25C1524.11,531.78,1524.24,543.07,1521.81,554.2Z"/><path class="cls-2" d="M1775.55,406.4c-17.16-12.91-33.49-25.26-49.89-37.51-5.42-4-10.74-8.34-16.6-11.62-17.77-9.95-38.63,1.17-40.79,21.26-1.19,10.94-.73,21.89-.83,32.85-.11,13.32-.09,14.18-12.92,13.22-17.59-1.31-29.46,4.76-34.39,22.24-1.25,4.43-4.18,5.67-8.59,5.84-17.92.71-35.43,0-50.63-11.36a43.58,43.58,0,0,0-6-3.19c-53-27.77-107.08-53.3-163.07-74.54-18.62-7.07-37.58-13.25-56.45-19.67-4.35-1.48-9-2.05-6.89-8.67.53-1.65-1-2.6-2.77-3.13q-29.62-8.65-59.16-17.56c-4.07-1.24-7.21-1-7.63,3.86s-3.06,4.91-6.67,4.05q-7.05-1.68-14.11-3.22-61.32-13.32-123.45-22.28c-33.22-4.77-66.63-7.15-100.08-9.24-1.93-.12-4.41.36-5.66-.65-5.36-4.36-11.6-3.15-17.59-3.37-7.09-.25-14.18-.17-21.28-.29l-24.32.18c-8.37-.2-16.76,0-25.14.15-2.2,0-5.31-1-6.36,1-2.05,3.84-5.14,3.14-8.29,3.18-31.63,0-90.63,7-90.63,7-48.54,8-97.21,15.41-145.1,27-6.94,1.68-7.23,1.57-9.46-4.87-1.17-3.36-3-3.64-5.84-2.83-4,1.12-8.14,1.91-12.13,3.1-15.71,4.68-31.37,9.5-47.1,14.12-2.59.76-5.61,1.15-4.32,4.64,1.8,4.87-.83,6-4.6,7.18-81.7,25.3-159,61-234,101.52-15.31,8.28-30.66,8-46.71,7.58-3-.08-4.74-1.29-5.72-4.14-1-3-2.37-6-3.69-8.91-4.27-9.41-11.4-14.5-21.93-14.45-5.48,0-11-.23-16.44.14-4.58.3-6.27-1.22-6.16-5.93.29-12.56.37-25.13.14-37.7-.23-13.34-8.17-23.24-20.83-26.93a25.13,25.13,0,0,0-17.9,1.16,29.16,29.16,0,0,0-5.87,3.31C187.37,374.71,165.6,388.61,146.5,406c-6,5.27-6.82,19.48-6.82,19.48-.4,31.92-.81,63.82-.57,95.73a51.06,51.06,0,0,0,4.34,20.61,78.82,78.82,0,0,1,6.83,33.79c-.22,11.29.3,22.58-.15,33.85-.53,13.38,5.05,22.68,16.58,29.23,16,9,31.62,18.61,47.46,27.87a39.7,39.7,0,0,0,8.68,4.14c21.75,6.41,42.64-1.05,41-28.08-.62-10.29-.19-20.64,0-31,.11-7.54,2.23-9.15,9.4-7.33a24.06,24.06,0,0,1,6.22,2.53c5.47,3.24,11.33,4.17,17.6,4.11,16.12-.15,32.26.44,48.37-.18,17.19-.65,32,4.33,45.95,14.4,27.95,20.16,56.56,39.41,84.73,59.27,39.73,28,81.08,53.85,116.81,87.26,8.22,7.71,17,14.87,25.52,22.22a74.47,74.47,0,0,0,15.09,9.68A74.45,74.45,0,0,0,660,799.41c26.15-8.91,52.65-16.67,79.62-24.44,1.6,3.95,1.79,9,8.66,7.27,19.3-5,38.75-9.38,58.14-14,1.85-.43,4.49-.87,4.16-3.18-1-7.08,3.88-6.57,8.32-7.32,24.79-4.22,49.75-7,74.78-9.05,19.57-1.63,39.19-2.83,58.88-2.88l12,.38c46.85-.43,93.18,5.21,139.43,11.85,3,.44,5.85,1.21,5.35,5.25-.43,3.6,2,4.08,4.69,4.65,6.59,1.4,13.16,3,19.72,4.54q18.77,4.5,37.48,9.11c2.49.61,5.78,1.91,6.53-1.51,1.48-6.86,5.26-4.46,9.34-3.28,26.88,7.71,53.62,15.93,80.1,24.89,12,4.06,22.85,3.52,32.13-5.78,3.46-3.47,5.36-2.55,8.33.76,16.13,18,32.48,35.79,48.85,53.56,10,10.9,20.33,21.58,30.37,32.47,2.71,3,4.91,3.48,8.05.58,14.89-13.8,30-27.36,44.81-41.23,4.88-4.57,4.64-5.29.14-10.19-8.06-8.79-16.24-17.46-24.27-26.27-15.83-17.35-31.59-34.78-47.53-52.32,2.87-4.4,6.71-7.35,10.21-10.57q26-23.86,52.07-47.62a81.31,81.31,0,0,1,8.19-6.75q48.63-34.12,97.35-68.1a51.8,51.8,0,0,1,30.86-9.39q21.76.16,43.52,0c11.75-.06,23.36,1,34.48-5.75,7.8-4.75,11.83-1.38,12,7.79.18,12.24,0,24.48.18,36.73.18,10.21,5.73,17.85,15.38,21.07,11,3.65,21.63,2.73,31.66-3.15,16.65-9.77,33.18-19.72,49.87-29.41,7.89-4.57,13.64-10.65,16-19.63.23-6.5.48-13,.71-19.5-1.38-20.34-1.71-40.56,7.17-59.68,2.78-6,3.26-12.35,3.24-18.86V417S1782.24,415,1775.55,406.4ZM1007.39,306.06c0-3.44,2.65-3,4.89-2.87,12.87.74,25.76,1.26,38.62,2.29,65.6,5.24,130.18,17.08,194.4,31.06,2.19.47,4.3,1.26,6.64,2-.8,4.56-1,9.06-3.76,12.87-.66,2.86-2.18,4.71-5.35,3.63-14.52-4.94-30-4.73-44.76-8.13-.56-.12-1-.72-1.5-1.1-5.85,0-11.49-1.49-17.19-2.5-10.42-1.44-20.89-2.6-31.08-5.42a262.26,262.26,0,0,1-30.83-4.22c-6.94-.69-13.92-1.08-20.8-2.15a65.78,65.78,0,0,0-19.91.14c-9.23,3.2-16.39,8.89-20.81,17.67-8.57,17-3.5,35.88,12.87,46.49,18.11,11.73,36.47,23.07,54.72,34.58,7.36,4.64,14.7,9.28,21.42,14.87,3.45,2.87,5.35,6.1,5.09,10.79-.32,5.73-.08,11.5-.08,17.09-4.54,1.7-7.39-.93-10.32-2.61-17.83-10.32-35.8-20.43-53.31-31.26a116.52,116.52,0,0,1-42.62-46.41c-8.88-17.2-17.83-34.4-29.39-49.85C1005.58,331.3,1007.54,318.74,1007.39,306.06ZM980.2,291.34h1c5.72.33,13.06-2.25,16.76,1.16,4.21,3.88,1.32,11.47,1.5,17.43.2,6.81-.07,6.82-6.71,6.62l-1-.06-9.61-.55v0c-5.45-.33-10.89-.71-16.33-1-2.34-.11-3.58-1.07-3.38-3.52a6.3,6.3,0,0,0,0-1C960.75,291.19,960.75,291.19,980.2,291.34Zm13,42.51A10.63,10.63,0,0,1,988,337.8c-7.61,2.66-9.73,1.11-9.44-7,.25-7.19.25-7.19,7.7-7.07a15.92,15.92,0,0,1,3.79.2c3.1.83,7.77-2.16,9.14,2.1C1000.46,330.11,995.16,331.14,993.21,333.85Zm6,1.54c-6.27,10-8.36,10.95-22.89,9.17,5.24-3.92,9.58-2.3,13.37-3C993.66,340.76,994.86,336,999.17,335.39ZM959,332.46c-.55,2,.89,5.1-2.18,5.66a27.43,27.43,0,0,1-8.62-.16c-1.28-.19-1.35-1.93-1.29-3.25.12-2.58.21-5.15.24-7.73s1.22-4.32,4-4.37c5.79-.12,11.58-.14,17.38-.14,2.33,0,3.47,1.38,3.55,3.64.08,1.93.13,3.86.13,5.79,0,3.12.91,6.33-4.42,6.44-5,.1-6.12-2-5.71-6.27a12.24,12.24,0,0,0-.64-3.15C958.88,329.91,959.26,331.34,959,332.46Zm.24,12.27a31.28,31.28,0,0,1-13.61.49C951.16,341.14,952,341.09,959.19,344.73Zm13.88-.81c-3.29,2.62-6.8,1.35-11.9,2.14C966,340.57,969.51,341.72,973.07,343.92ZM920.61,298c0-6.59.36-6.69,7.18-6.77,8.36-.1,16.74.19,25.1-.12,4.76-.18,6.2,1.68,5.88,6.18-.38,5.41,1.51,11.95-.93,16s-9.51,1-14.47,1.93c-1.58.28-3.19.35-4.8.52C916.16,316.24,920.51,321.05,920.61,298Zm18.45,40.5c-7.55.53-12.92-2.49-17.25-7.77-1.31-1.61-2-3.43-1.24-5.34s2.64-1.27,4.15-1.37c.64,0,1.29,0,1.94,0C940.62,323.69,940.62,323.69,939.06,338.51Zm-7.86,3.17c3.45.73,7.76-1.16,10.63,3-12.48,2-17.06.28-22-9.18C924.33,337.56,927.12,340.84,931.2,341.68Zm-17.37,2.56a9.09,9.09,0,0,1,4-3.76c4.74,7.8,12.84,8.06,21,8.06,13.21,0,26.43.31,39.63-.07,14.27-.42,14.27-.7,24.59-8.71,11.23,16.85,22,33.93,31.1,52,12.52,24.75,30.56,44.34,54.69,58.22,14,8,27.79,16.23,41.76,24.22,4.18,2.39,8.42,5,13,6.27,5.05,1.38,6.56,3.84,6.5,8.84-.23,22.23-.2,44.47-.13,66.7,0,3.73-.64,6-5.1,6.25-6,.4-10.53,4.63-15.3,7.75-14.59,9.53-30.26,17-45.86,24.65a46,46,0,0,1-21.43,4.74c-14.82-.24-29.65-.15-44.47,0-3.92,0-5.93-.76-5.51-5.29.44-4.79-.07-9.67.2-14.49.31-5.61-2.5-7-8.28-6.4a72.28,72.28,0,0,1-15.42.2c-5.37-.55-7.2,1.13-7,5.7.09,2.62,1.15,5.7-1.46,8l-40.28.4V576.89a3.64,3.64,0,0,0-3.63-3.63c-6.8,0-13.48,0-20.17,0-9.92.06-7.73.07-8.05,11.58-.08,3.12-.07,6.26.14,9.39.23,3.35-.56,5.23-4.16,5.22-18,0-36.09,1.39-54.12-.27-5.24-.48-9.91-2.69-14.57-4.83a434.81,434.81,0,0,1-45-24.19c-5.2-3.18-10.19-6.89-16.34-8.08-3.35-.64-3.81-2.69-3.82-5.57-.09-22.87-.2-45.75-.49-68.63,0-3.87,1.17-6.1,5.1-6.72,4.23-.69,7.73-3.08,11.34-5.18,16.41-9.55,33-18.83,49.25-28.57,21.54-12.9,37.75-31.09,49.21-53.19A534.55,534.55,0,0,1,913.83,344.24Zm16.32,258.84q33.36-.86,66.73.47c3.68.14,7.84-.86,10.54,3.22.51.77,2.32,1,3.52,1,18.36-.78,36.73.87,55.1-.23a55.7,55.7,0,0,0,22.1-6.16c17.26-8.66,34.46-17.41,50.8-27.75,3.23-2,6.34-4.44,10.44-4.48,1.64,11.36-.59,17.06-9.92,21.49-15.11,7.15-30.51,13.67-45.79,20.46a38.41,38.41,0,0,1-15.1,2.85c-31,.44-61.91.59-92.86-.24-3.7-.11-7.56.35-8.73-5.18-.55-2.62-2.92-1-4.17.7-5.18,7.11-7.66,6.84-12.57-2.46-1.68,5.1-3.79,9.35-9.67,7.38-.91-.3-2.47-.32-2.65-.86-3.44-9.93-6-4.14-9.15.25-1.17,1.65-3.62.87-5.5.87q-44.5-.07-89-.22a58.75,58.75,0,0,1-25.21-5.65c-12.51-5.9-25.11-11.58-37.71-17.29-7.08-3.21-11.26-8.32-11.45-16.33,0-1.87-1.08-3.94,1.16-5.15,2-1.07,3.77.22,5.34,1.13,4.45,2.6,8.75,5.43,13.16,8.1,14.89,9,30.52,16.62,46.3,24A43.63,43.63,0,0,0,852.6,607c18.71.82,37.4.59,56.09.15,1.29,0,3.31.5,3.74-.11C917.2,600.36,924.16,603.24,930.15,603.08Zm-14.41-10.32c-.25-5.71,4.71-3.4,7.73-3.8a17.2,17.2,0,0,1,3.78.17c2.51.24,4.23,1.48,4,4.17s-2.56,2.14-4.3,2.26c-1.26.1-2.53,0-4.05,0C920.72,594.45,916,598,915.74,592.76Zm72.8.39c-.34-5.19,5-3.34,8.16-3.75a32.89,32.89,0,0,1,3.85-.1c2.65,0,4.47,1,4.29,3.88s-2.51,2.29-4.34,2.36c-1.29.05-2.57,0-4.07,0C993.89,594.49,988.82,597.32,988.54,593.15ZM674.89,336.55c19.16-4.17,38.34-8.32,57.59-12a1340,1340,0,0,1,132.74-19c13.78-1.23,27.66-1.42,41.48-2.33,4.39-.29,6.59.58,6.23,5.59-.44,6.09-.37,12.23-.3,18.35,0,4.09-1.56,7.5-3.75,10.73-12.62,18.68-23.39,38.39-34.3,58.12a114.76,114.76,0,0,1-40.77,43c-17,10.37-34.3,20.32-51.58,30.26-3.48,2-6.82,5-12.25,4,0-5.93-.14-11.95,0-17.95.12-4,2-7.14,5.18-9.88,7.11-6.14,15-11.13,22.84-16.14,17.9-11.41,36-22.48,53.76-34.12,16.24-10.66,21-31,11.41-47.48-6.7-11.48-17.38-16.69-30.34-17.76l-29.13,3.65c-6.51.84-12.92,2.63-19.57,2.32-14.65,3.11-29.46,5.2-44.27,7.32-5.22.79-10.26,2.66-15.64,2.38-8.1,3.29-16.8,4.05-25.31,4.84a51,51,0,0,1-6.89,1.46,17,17,0,0,1-8.51.24,38,38,0,0,0,8.51-.24,43.85,43.85,0,0,1,6.17-1.39l.72-.07c6.12-1.68,11.79-4.06,17.78-5.11,1.28-.22,1.14-2.08,1.3-3.33-2.67-3.21-6.21-3.07-9.76-2.36-10.08,2-20.11,4.29-30.22,6.15-3.24.6-3.8,4.31-6.94,5a29.75,29.75,0,0,1-2-4.39C667.06,339.41,667.62,338.12,674.89,336.55Zm39,429.4c-22,7-44.21,13.63-66.15,21-7.39,2.47-13,1.23-18.46-3.84-7.35-6.77-15.2-13-22.46-19.84-27.53-25.93-57.93-48.1-89-69.44-39.58-27.12-79-54.44-118.06-82.34-15.38-11-31.82-16.24-50.5-16-16.75.25-33.51-.09-50.28,0-5.23,0-10-.55-14.66-3.61-3.09-2.05-7.17-2.85-10.92-3.58-12.56-2.42-24.33,6.35-25,19.14-.58,11.57-.14,23.2-.19,34.79-.07,13-7.53,18.15-20,13.77a24.65,24.65,0,0,1-4.38-2c-16.87-10-33.66-20.21-50.61-30.11-5.32-3.12-7.63-7.28-7.53-13.39.21-11-.21-21.92,0-32.87A95.61,95.61,0,0,0,158.29,538a58.09,58.09,0,0,1-4.21-23.48c.25-27.07.35-54.14,0-81.21-.14-10.22,2.94-17.84,11.47-23.9,15.22-10.81,30-22.28,44.94-33.47,1.54-1.15,3.13-2.25,4.68-3.4,4.32-3.24,8.91-5.39,14.26-2.69s7.79,7.36,7.6,13.42c-.13,4.51-.07,9-.07,13.54,0,8.37-.22,16.76,0,25.13.34,11.23,5.87,17.26,17.09,18.18a150.81,150.81,0,0,0,20.28.07c4.24-.23,6.5,1.23,8,5.16a142.69,142.69,0,0,0,6.08,13.11c2.82,5.62,7.38,8.63,13.75,9.17a209,209,0,0,0,34.76-.28c6.48-.54,12.32-3.49,18-6.52,38.07-20.16,76.5-39.62,116-56.95,38.26-16.8,77-32.49,117-44.75,8.18-2.51,8.21-2.5,10.45,5.82a32.24,32.24,0,0,1,.57,3.8,6,6,0,0,1,1.31,6.92c-2.7-.54-2.87-2.81-3.43-4.82-6.72-1.08-12.5,2.33-18.5,4.2-7.29,2.29-14.29,5.53-21.4,8.4-1.19.48-2.37,1.23-2.31,2.71.11,2.26,2,2.09,3.51,2.19,1.72.1,3.45,0,5.42,1.4l-21.32,8a28.53,28.53,0,0,1-3.34,1.82c-10,3.9-19.95,7.74-30.11,11.13C515,406.62,522,404,529,401.63c3.63-1.24,7.18-2.7,9.8-5.73-.14-2.82-.63-5.42-4.43-4.38-5.25,1.44-10.49,3-15.66,4.67-4.56,1.5-9.05,3.27-13.57,4.94-9.83,3.62-9.83,3.63-5.6,13.3l-16.78,6.74c-4.2,2.81-8.65,5-13.76,5.59-6.56,4.25-14,6.52-21.17,9.32-8.84,3.33-16.15,9.76-25.26,12.58.74,3-2.26,3.37-3.68,4.56-19.43,16.24-28.79,37.41-30.57,62.24a117.49,117.49,0,0,0,4.11,41.08c6.4,22.27,20.07,39.42,38.82,52.48,19.79,13.79,39.88,27.16,60,40.43,6,4,11.3,7.52,7.53,15.93-1.06,2.35.31,4.33,2.35,5.75l27.68,19.32c2.27,1.57,4.88,2.57,7,.37,2.82-2.87.21-5.22-1.49-7.51-9.3-6.07-19.4-11-27.46-18.89-.76-.73-.74-1.65.67-3.56a210.54,210.54,0,0,1,27.56,19c6.53,2.84,11.93,7.49,17.79,11.39q35.7,23.73,71.16,47.86c2.7,1.84,6.2,3,7.46,6.52,3.62-.32,5.69,2.61,8.39,4.13,11.51,6.49,23.37,8.62,36.18,4.28q16.43-5.59,33-10.62c5.31-1.59,10.7-3.51,17.44-2.46-3.69,4.26-8.36,5.06-12,7.43-1.12.72-1.92,1.74-1.51,3.17s1.89,1.74,3.13,1.6c2.87-.31,5.74-.79,8.58-1.31,8.24-1.48,8.23-1.5,10.74,7C728.8,762.62,721.1,763.66,713.84,766Zm227.38-35.12a859.79,859.79,0,0,0-89.54,7c-14.3,1.83-28.63,3.52-43.74,5.38-.58-3.56-1-6.39-1.52-9.49,3.92-2.62,9.75-1.38,12.68-6-.06-4.17-5.43-1.32-6.16-4.39-.4-1.32.21-2.17,1.13-2.37,12.29-2.48,24.5-5.91,36.91-7.13,27.24-2.69,54.41-6.5,81.87-6.52,1.29,0,2.59-.19,3.86-.11,1.88.12,4.3,0,3.95,2.83-.27,2.14-2.07,3-4.28,3q-14.49.12-29,.4c-2.88,0-5.82-.13-8.54,1.18a3.83,3.83,0,0,0-2.25,3.87c0,2.13,1.45,2.66,3.21,2.57,12.54-.66,25.13-1,37.62-2.25,3.91-.4,8.29-3,9.29-7.46,1.16-5.15,4.48-4.41,8-4.35,2.94.05,4.06,1.42,3.91,4.17a7.87,7.87,0,0,0,0,1C960,730.58,960,730.41,941.22,730.83Zm171.71,8.92c-.56,3.74-2.79,4.16-6.31,3.52-36.82-6.78-74.12-9.19-111.37-12-9.3-.7-18.69-.53-28-.48-3.8,0-5.12-1.39-4.91-5.1.25-4.5.08-9,.19-13.53,0-2.11-.78-5,2.45-5.35,2.74-.31,6-.81,7,3.15.47,1.85.81,5,2.53,4.68,5.52-1.11,6.29,5.87,11.68,5.63,10.28-.43,20.61.55,30.92.82,2.4,0,5.58.88,5.87-3.07s-2.2-4.76-5.54-4.8c-11.6-.12-23.2-.36-34.79-.51-1.83,0-4,1-4.47-1.94-.59-3.45,1.81-3.54,4.14-3.56,16.46-.16,32.84,1.43,49.21,2.78,19.26,1.56,38.44,3.86,57.51,7,6.29,1.06,12.68,1.74,18.66,4.81-1,3.73-4.6,2.18-5.72,5.33,1.17,3.17,4.66,3.34,7.55,4.09C1114.67,732.61,1113.46,736.34,1112.93,739.75Zm66.71-.06c-4.37-1.05-8.75-2.08-13.17-2.91-2-.37-4,.07-4.63,2.4-.7,2.63.52,4.27,3.14,5,4.61,1.25,9.21,2.55,14.08,3.91-2.26,7.54-4.25,14.28-6.33,21-.93,3-2.33,4.91-6.26,3.87-14.29-3.75-28.63-7.35-43-10.66-4.71-1.09-6.49-2.64-5.09-7.84,1.73-6.44,2.34-13.16,3.5-20.08,6.48,1.2,12.42,2.58,18.44,3.36,6.2.82,6.23.56,6-7-7.82-.12-15.09-3-22.68-4.36-2.76-.48-4.39-2.44-5.75-4.74-3.71-6.31-9.54-9.36-16.54-10.46-11.75-1.86-23.47-4-35.29-5.37-26.87-3-53.79-5.72-80.87-6.14-17.2-.56-50.38.18-50.38.18-31.2.42-62.23,3.26-93.14,7.47a36.73,36.73,0,0,1-4.81.06c-5.67,2.67-12,2-17.93,3.46-6.9,1.73-12.82,4.39-16.5,10.59-2.23,3.77-5.39,5-9.48,5.57-5.39.8-10.64,2.45-16,3.61-3,.65-4.74,2.24-4.27,5.32.51,3.39,3.47,2.42,5.4,2.19,5.74-.68,11.48-1.57,17.13-2.79,3-.66,4.1.29,4.44,3.12.72,6.06,1.46,12.13,2.4,18.15.52,3.27-.64,4.41-3.85,5.13-15,3.4-30.06,7-45,10.83-4.31,1.13-5.6-.21-6.47-4.13-1.46-6.57-3.44-13-5.23-19.61,2.11-3.12,5.81-2.09,8.68-3.26,2.33-1,5.16-1,6.89-3.16a4.66,4.66,0,0,0,1-4.52c-.69-2-2.44-1.89-4-1.58a106.74,106.74,0,0,0-12.2,2.78c-3.08,1-5.76.78-8.16-1.16-7.22-5.82-15.1-6.51-23.6-3.47a10.46,10.46,0,0,1-2.87.2c-10.55,3.77-21.08,7.6-31.66,11.3-12,4.2-23.22,2.78-33.89-4.63C621,727,600.14,713.1,579.35,699q-36.14-24.49-72.29-49L433.3,600.14c-25-16.94-35.42-41.59-37.23-70.71A92.21,92.21,0,0,1,400,495.07c6.44-19.85,18.66-35.23,37.37-44.77,18.32-9.33,37.41-17,56.44-24.81L515.09,417q36.07-13.56,72.23-27c3.91-1.47,7.94-2.69,11.72-4.45,7.39-3.4,9.23-7.3,8.16-15.39-1.39-10.51-4.43-20.65-7.54-31.33l54.28-16.39c3,9.4,5.8,18.5,8.75,27.56,4,12.47,7.77,14.8,20.78,12.07,42.53-8.94,85.4-15.85,128.47-21.61,5.75-.77,11.52-1.44,17.29-1.9,13.63-1.12,24.18,5.33,29.12,17.59,4.55,11.29,1.19,23.77-9.94,31.49-13.73,9.53-28.19,18-42.28,27C796.36,421,786.7,427.37,777,433.65c-10.83,7-17.5,16-15.08,29.74.33,1.87-.08,3.87.14,5.78.45,3.88-1.32,5-5,5-8-.08-16.12.39-24.17.22-4.62-.09-6.14,1.59-6.11,6.21q.27,41.07.05,82.17c0,4.15,1.32,5.72,5.53,5.65,8.37-.17,16.75.13,25.13.07,3.25,0,4.66,1.11,4.47,4.52a27.73,27.73,0,0,0,10.64,23.62c5,4.08,11.62,6.24,17.64,9,11.54,5.23,23.24,10.14,34.72,15.5,2.3,1.08,4.3.76,6.49.75q49.8-.24,99.59-.41l58.64.74c13.49-1.21,27-.38,40.52-.52,16.43-.16,32.86,0,49.3,0a54.68,54.68,0,0,0,24.9-5.51c11.35-5.62,23.16-10.31,34.75-15.45a22,22,0,0,0,3.11-2.06c12.2-5.89,16.65-16.12,15.31-30.32,10.16,0,19.42-.14,28.68.06,4.62.09,6.86-.89,6.79-6.35-.3-26.74-.12-53.48-.2-80.23,0-6.8-.2-7-6.78-7.27-7.39-.32-14.82-.44-22.22-.24-4.37.11-6.65-.85-6.17-5.85.42-4.47-.06-9,.12-13.52.22-5.57-1.87-9.85-5.93-13.63a136.12,136.12,0,0,0-20.1-15c-18-11.37-36-22.63-53.9-34-4.62-2.92-9.45-5.7-12.63-10.32-6.09-8.86-7.88-18.39-2.68-28.2,5.44-10.25,14.22-15.64,26-15.2,6.43.24,12.86,1,19.25,1.86q65.6,8.37,130.31,22.06c10.41,2.22,15-.26,18.47-10.4,3.35-9.63,6.14-19.45,9.38-29.8l54.14,16.2c-2.21,9.12-4.46,18-6.52,26.93-3.08,13.35-1.09,17,11.9,21.85,25.29,9.42,50.68,18.55,75.86,28.23,14.89,5.72,12.08,3.05,12.36,17.52.11,5.16.06,10.31,0,15.47,0,2.53.45,4.57,3.61,4.36,2.74-.2,3.76-1.74,3.72-4.46-.1-7.74,0-15.46,0-22.81,3-1.93,4.78-.13,6.8.63,16.53,6.29,32.52,13.85,48.65,21.09,31.59,14.2,46.49,39.29,47.4,73.25.3,11.24.43,22.53-2,33.66-4.64,21.21-23.15,37.53-44.76,39.17-15.44,1.19-30.93.65-46.39.68-23.2.05-46.42.62-69.61,0-29-.73-48.88,11.9-61.78,37.74-12.64,25.31-26.5,50-39.8,75-7.15,13.43-17.27,23-32.64,26.35a35.86,35.86,0,0,1-13.42.16c-9.52-1.52-18.68-1.34-26.48,5.44C1184.68,740.72,1182.22,740.31,1179.64,739.69Zm-445-251.11c0-8.53,2.09-9.54,9.52-5.24,1.41.83,2.47,3.71,4.63,1.83l.48-.63a.85.85,0,0,1,.22,0c3.82-3.48,5.16-1.31,6.17,2.63-3.3,1.2-3.65-3.11-6.17-2.63a1.77,1.77,0,0,0-.17.14,4.41,4.41,0,0,1-.53.53l-.63.87c7.64,5,6.14,12.63,6,20-.18,12.84-.63,25.71-.11,38.55.28,6.83-3.23,10.81-7.78,14.43-2.83,2.24-6.63,3.34-9.95,2s-1.69-5.15-1.7-7.81Q734.48,520.88,734.65,488.58Zm22.49,61.35q.17-24.63.33-49.24c0-4.15,0-8.29,0-13.77,2.31,3,2,5,2,6.81.1,20.27,0,40.56.32,60.83.08,5.16-1.79,6.25-6.72,4.94C757.78,557.56,757.11,553.62,757.14,549.93Zm406.43-63.6-.25.14-.2,0c-.37,23.62-1.35,47.31,1.8,70.87.18,1.29.58,2.58-1.28,2.77s-2-.92-2.12-2.35c-.23-2.57-.92-5.1-1-7.65-.23-19.32-.35-38.62-.52-57.94,0-2.54-.34-5.18,3.08-5.7v-.2l.45,0c2-1.17,1.75-4.83,5.83-4.47C1168.07,484.71,1166.61,486.51,1163.57,486.33Zm21.14-4.65v78.57c-11.21,3-18.31-3.32-18.42-15.71-.16-15.72-.32-31.45-.15-47.16C1166.23,489.13,1174.69,482.1,1184.71,481.68Zm135.85,318.23c-1.5-1.43-.44-2.93.62-4.15a33.41,33.41,0,0,1,2.75-2.7q16.65-15.37,33.35-30.71a12.9,12.9,0,0,1,3.85-2.78c2.34-.9,3.59.37,3.73,2.48a6,6,0,0,1-2.26,4.39c-11.72,11-23.65,21.76-36.21,31.82-.49.4-1.12.63-1.6,1C1323.48,800.38,1322,801.24,1320.56,799.91Zm40.59-23.54c-5.13,11.91-14.05,18.63-27.05,22C1341.4,789.52,1356,777.63,1361.15,776.37Zm28.95,13.23c13.51,14.24,26.66,28.84,40.06,43.19,2.56,2.74,3.82,4.61.25,7.77-12.3,10.88-24.29,22.1-36.42,33.16a34,34,0,0,1-3.29,2.28c-19.55-21.12-38.88-42-58.32-64.56,22-4.24,37.16-14.93,42.48-35.37C1380.1,780.68,1385.5,784.75,1390.1,789.6Zm-19.78-12.22c-5.19,16.15-16.87,25.11-32.88,29.06-3,.75-6.12,2.29-9.34.76-1.13-.54-2.26-1.51-1.78-3a3.29,3.29,0,0,1,1.87-1.84,31,31,0,0,1,4.75-.65c16.37-1.83,27-10.69,32-26.31.87-2.69,1.59-5.42,2.71-9.3C1372.88,770,1371.47,773.83,1370.32,777.38ZM1313,791.05c-9.37-10.21-18.4-20.06-27.66-30.17,9.85-6.54,19-12.48,28-18.71,2.71-1.88,7.59-4.06,5.22-7.91-2.92-4.76-7-.49-9.89,1.3-9.54,5.89-18.82,12.22-28.71,18.72-5.07-7.58-3.44-15,.32-22.31q10.29-20.07,20.82-40c7.2-13.63,14.53-27.19,21.88-40.74a117.35,117.35,0,0,1,6.88-11.61c10.63-15,29.38-17.76,42.74-5.2,11.67,11,22.13,23.22,33.76,35.57-5.52,3.31-10.2,6-14.81,8.92a45.76,45.76,0,0,0-6.3,4.44c-2.29,2-2.11,4.63-.52,7s3.91,1.75,6,.69a81.23,81.23,0,0,0,16.66-11.49c3.52-3.08,5.73-3.15,8.46.69,2.21,3.1,5,5.83,8.06,9.44C1386.89,723.5,1350.11,757.12,1313,791.05Zm452.54-281.39c.13,11.39-.92,22.24-5.53,32.9-4.51,10.46-5.31,21.79-5.24,33.17.07,11.92-.4,23.85-.33,35.76,0,5.37-1.81,9.21-6.5,11.94-17.22,10.08-34.35,20.3-51.54,30.42a24.83,24.83,0,0,1-9.07,3.15c-11.45,1.65-15.38-1.68-15.38-13.2,0-10-.46-20,.37-30,1.43-17-12.58-32.92-34.19-22.88-8.77,4.09-17,4.53-26,4.53-15.14,0-30.3.08-45.46.08a70.22,70.22,0,0,0-41.63,13q-46.2,32.56-92.73,64.64c-2.58,1.79-5,5.93-8.94,3.34-3.52-2.29-3.46-5.73-1.58-9.37.51-1,.18-2.55-.16-3.74-.85-3-.24-7.6-3.91-8.06-4.67-.59-2.17,5.26-4.69,7.27-2.83.88-3.77-1.72-5.15-3.2-8.77-9.44-17.29-19.13-26.19-28.45C1371,619.84,1358.1,616,1342.93,620.1a34.39,34.39,0,0,0-17.61,11.2,74.25,74.25,0,0,0-8.84,13.8c-12.86,24.51-25.78,49-38.56,73.53a142.8,142.8,0,0,0-6.75,14.92c-4.18,10.94-2,20.89,5.55,29.65,5.21,6,10.63,11.9,15.86,17.73-6.73,8.05-14,8.48-22.89,5.5-25.9-8.63-52-16.53-78.11-24.71-2.44-.77-4.88-1.57-7.29-2.35,1.67-9.44,1.65-9.26,10.45-7.85,3.88.61,8,3.15,12.35-.06-2.76-4.83-9.32-4.45-12.13-9.72,5.71-2.61,11.5-1.68,17-1.08,25.11,2.74,43-7.75,54.75-29.48,13-24.07,25.67-48.31,38.6-72.42a137.47,137.47,0,0,1,9.44-15.7c9-12.43,21.21-19.83,36.65-20.41,18.36-.68,36.74-.63,55.11-.67,6.62,0,6.72.28,6.86,7.17.17,8.38.14,16.76.2,25.14,0,2,.17,3.93,2.42,4.76a3.46,3.46,0,0,0,3.56-.81c2-1.73,1.3-4.16,1.36-6.33.22-9,.36-18,.52-27-.37-1.33-.15-2.22,1.54-2a27.69,27.69,0,0,1,11.71-.3,8.77,8.77,0,0,1,7.49-.18l.57-.26.45.45c8.39-2.3,17-.78,25.47-1.28,4.75-.28,9.52-.14,14.28-.19,14-3.66,26.18-10.35,35.41-21.9,6.59-8.26,11.18-17.52,12.16-27.91,1.52-16,2.31-32.13-.55-48.09-3.76-21-13.49-38.66-30.94-51.61-1.13-.83-3-1.38-2.43-3.51-1.91.62-3.1-.28-4-1.89l-17.17-8.52c-4.79-1.83-9.76-3.27-13.73-6.68-.43-.25-.87-.51-1.29-.79l-.15-.06c-4.27.82-7.32-2.41-10.84-4l-1.66-.62a9.24,9.24,0,0,1,1.66.62c3.61,1.34,7.22,2.7,10.84,4l.43-.08c.32.32.66.63,1,.93,4.77,2.68,10.07,3.39,15.39,4,3.14-.93,5.18-2.4,1.1-4.69-6.68-3.77-13.51-7.28-20.39-10.66a116.5,116.5,0,0,0-12.39-5.17c-5.93-2.11-6-2-7.2,4.34-.15.85.16,1.85-1.13,2.34-3.2-.08-5.68-2.52-8.74-3.33-5.23-1.37-9-3.39-6.3-9.85.83-2-.35-3.63-2.45-4.48-11.26-4.51-22.57-8.87-34.36-11.91-6.78-1.75-3.63,4.23-5.41,6.34L1413.3,410c-12.31-2-23.39-7.35-34.67-12.14-6.1-1.25-11.71-3.81-17.38-6.26a81.67,81.67,0,0,1-21.15-7.72c7.35.79,15.64,5.37,24.9,4.51.82-2.71-.57-4.37-2.8-5.41-10.79-5.08-22.21-8.44-33.52-12.11-4.84-1.57-5.1,3.5-7.46,5.48-1.5-2.29-1.11-4.22-.84-6.14,2-14.22,2-14.14,15.81-9.76,65.8,20.87,128.49,49.12,189.92,80.29,12.91,6.55,25.84,13.07,38.54,20a56.79,56.79,0,0,0,29.6,7.29c6.76-.22,13.54-.33,20.3-.14,8.37.22,14.15-3.51,17.83-10.82,1.16-2.31,2.69-4.53,3.26-7,2-8.58,7.52-11,15.7-10a93.43,93.43,0,0,0,14.49.07c10.67-.48,16.62-6.33,16.85-17,.26-12.56.12-25.13,0-37.69,0-3.94.15-7.75,2.64-11,4.73-6.22,11.23-7.61,17.78-2.85,18.48,13.45,36.71,27.26,55.06,40.91,5.38,4,7.35,9.31,7.31,15.93C1765.36,455.51,1765.2,482.59,1765.51,509.66Z"/><path class="cls-2" d="M657.7,356.15a4.77,4.77,0,0,1-3.26,3.09C642.6,363,630.81,366.9,619,370.65c-2.77.87-4.86.15-5.73-3.14-.76-2.91.52-4.19,3-4.95,11.85-3.69,23.72-7.37,35.93-9.76C654.9,352.25,657.31,352.58,657.7,356.15Z"/><path class="cls-2" d="M1362.24,494.25c-.36,3.77-.42,7.67-1.14,11.45-2.56,13.49-10.11,22.92-23.56,26.56a44.3,44.3,0,0,1-26.66-.76c-12.23-4.32-19.73-12.78-21.8-25.83a73.53,73.53,0,0,1,.14-25.92c2.73-14,12.11-23.55,26.18-26.14,16-2.94,30,0,40.47,13.8C1362,475.47,1361.72,484.86,1362.24,494.25Zm-66.55-.17a42.36,42.36,0,0,0,1.21,11.86c3,12.32,13,20,27,20.59,13.66.57,25.17-6.61,28.58-18.48,2.71-9.41,3.21-19.14.38-28.62-2.73-9.12-8.13-15.67-18.1-18.18-22.41-5.63-38.53,6.26-39.09,29.33C1295.67,491.55,1295.69,492.52,1295.69,494.08Z"/><path class="cls-2" d="M1264.83,351.57c12.78,3.12,24.7,6.71,36.48,10.79a27.8,27.8,0,0,1,3.64,1.23c1.84.94,3,2.44,2.37,4.64-.73,2.41-2.73,2.49-4.68,2-5.59-1.43-11.15-3-16.71-4.49s-11.13-3-16.62-4.76C1264.44,359.42,1264.49,359.26,1264.83,351.57Z"/><path class="cls-2" d="M1421,555.75c0,5.79,0,11.59,0,17.38,0,2.42-.22,4.56-3.49,4.44-2.45-.08-3.48-1.58-3.46-3.7.09-12.55.27-25.1.46-37.65,0-1.78.76-3.11,2.8-3.14,2.25,0,3.59.81,3.57,3.35-.07,6.44,0,12.88,0,19.32Z"/><path class="cls-2" d="M1420.88,493.55c0,5.12,0,10.23,0,15.35,0,2.47.72,5.38-3.47,5.16-3.94-.21-3.34-3.11-3.4-5.55-.1-3.84-.07-7.67,0-11.51.06-7.35.13-14.71.25-22.06,0-2.21-.1-4.93,3-5.07,3.84-.18,3.48,2.95,3.51,5.46,0,6.07,0,12.15,0,18.22Z"/><path class="cls-2" d="M1001.44,382.53c1.92-.16,2.73-1.69,2.78-3.37.06-2-1.44-2.66-3.19-2.73L927.54,376c-1.28.1-11.25-2-11.73,2.83-.59,5.92,4.82,3.78,7.76,4.2Z"/><path class="cls-2" d="M1101.8,522.63c0,12.51,0,25,0,37.53a24.91,24.91,0,0,1-.36,5.74c-.44,1.82-2.24,2-3.89,2a2.72,2.72,0,0,1-2.85-2.06,23.77,23.77,0,0,1-.32-4.78q0-37.53.08-75.06c0-1,.09-1.93.07-2.89,0-3.07,1.45-5.07,4.49-5,3.41.05,2.7,3.05,2.73,5.09.15,9.94.15,19.88.19,29.83,0,3.21,0,6.41,0,9.62Z"/><path class="cls-2" d="M825.45,524.48c0,11.92.16,23.84-.11,35.76-.06,2.57,2.41,7.24-3.26,7.22s-4.3-4.53-4.31-7.85c0-19.65,0-39.31,0-59q0-6.76.07-13.53c0-1.61.06-3.22.17-4.83.18-2.9,2-3.77,4.6-3.56s2.71,2.24,2.72,4.18c0,9.67.06,19.33.08,29C825.46,516.1,825.45,520.29,825.45,524.48Z"/><path class="cls-2" d="M1496.49,448.29c-.58-2.12-1.54-3.48-3.93-2,3.23-8.09,3.53-8.3,11.92-5s16.37,7.34,22.75,13.92a30.17,30.17,0,0,1,4.24,5.15c1.46,2.39,1.5,5.25-.93,6.83s-4.1-1-5.56-2.5c-6.81-7.07-15.38-11.38-24-15.69C1499.57,448.35,1498.16,447.6,1496.49,448.29Z"/><path class="cls-2" d="M1438.4,656a6.81,6.81,0,0,1-2.2-1.14,2.54,2.54,0,0,1,0-3.48,17.56,17.56,0,0,1,2.65-2.73c7.46-6,16-10.62,22.92-17.47,1.61-1.6,4.54-2.08,7-2.56,1.6-.32,3,1,4,2.31a2.76,2.76,0,0,1-.68,4.21c-10.25,7.14-20.47,14.36-31.52,20.26A11.9,11.9,0,0,1,1438.4,656Z"/><path class="cls-2" d="M1550.75,554.68c.71,8.16-1.53,15.49-4.71,22.57a24.55,24.55,0,0,1-3.55,5.67c-1.43,1.72-3.42,3.52-5.76,2-2-1.33-.91-3.43,0-5.18,5.08-10.24,7.15-21.18,7.46-32.51.07-2.35,0-4.71,3.26-4.65,3.11.05,3.42,2.23,3.36,4.67S1550.75,552.35,1550.75,554.68Z"/><path class="cls-2" d="M1222.14,756.11c8.15-1.5,15.12,2.6,22.51,4,7.17,1.39,14.1,4.12,21.67.92-1,7.6-2,8.91-7.5,8.92-13.14,0-24.89-4.79-36.15-11C1222.18,758.67,1222.33,757.23,1222.14,756.11Z"/><path class="cls-2" d="M1551.1,509.15c-.23,3.84-.44,7.68-.72,11.51a2.91,2.91,0,0,1-3,3c-2,.12-2.87-1-3.12-2.78a25.4,25.4,0,0,1-.41-2.85c-.21-10.61-1.27-21.08-4.56-31.26-.63-2-1.66-4.83,1.18-5.87,3.24-1.2,5.24.53,6.5,3.81A61,61,0,0,1,1551.1,509.15Z"/><path class="cls-2" d="M1524.45,596.69a6.88,6.88,0,0,1-3,5.35c-9.53,6.51-19.06,13-29.28,18.43a8.12,8.12,0,0,1-2.71.87,3.19,3.19,0,0,1-3.24-1.61c-.62-1,.18-1.76.61-2.56a2.17,2.17,0,0,1,.61-.73c10.59-7.8,21.43-15.2,33.11-21.29C1522.69,594,1524.17,594.64,1524.45,596.69Z"/><path class="cls-2" d="M553,697.51c1.74-.13,2.91,1,4.23,1.89l25.63,16.84a10.87,10.87,0,0,1,4.51,4.81,4,4,0,0,1-.73,4.47c-1,1-2.35.28-3.52-.3-10.92-5.38-21.06-12.07-31.24-18.68a4.37,4.37,0,0,1-1.88-5.77C550.54,699.24,551,697.67,553,697.51Z"/><path class="cls-2" d="M422.54,448.49c-8.13.77-13.94,6.2-20.32,10.37-3.2,2.1-6,4.84-9,7.25-1.29,1-2.78,1.84-4.27.51s-1.17-2.89-.63-4.47a15.44,15.44,0,0,1,3.78-5.49c7.19-7.66,16.2-12.43,25.81-16.21,2-.79,4.48-2,6.25.2,2.25,2.78.15,4.6-1.93,6.32-.26.21.07,1.14.13,1.74Z"/><path class="cls-2" d="M398.45,595.23c.65.28,1.85.71,3,1.26,9.82,4.78,18.85,10.89,27.94,16.87a13.2,13.2,0,0,1,3.39,3.36c2,2.83,0,4.14-2.32,4.76s-4.36-.88-6.24-2q-12.29-7.5-24.45-15.23c-2.18-1.38-4.17-3-4.31-6C395.36,596.47,395.58,595.06,398.45,595.23Z"/><path class="cls-2" d="M631.54,745.65c-2,1.39-1,2.66.25,3.77,1.88,1.72,4,3.24,5.75,5,1.1,1.09,2.18,2.5.89,4.19a3.77,3.77,0,0,1-4.27,1.33,12.58,12.58,0,0,1-3.5-1.46c-9.6-6.36-19.42-12.42-28.08-20.06-1.35-1.19-3.7-2.46-2.38-4.57,1.48-2.37,4-1.52,6-.34C613,737.64,619.73,742,626.63,746c1.38.8,3.48,4,5-.11Z"/><path class="cls-2" d="M450.46,628.47a21.57,21.57,0,0,1,3.85,1.87q13.67,9.78,27.19,19.75c1.61,1.2,4.5,2.41,2.43,5.19s-4.49,1.54-6.75,0c-6.6-4.53-13.23-9-19.78-13.6-3.4-2.38-6.74-4.87-10-7.47a2.88,2.88,0,0,1-.72-4.22A3.56,3.56,0,0,1,450.46,628.47Z"/><path class="cls-2" d="M664.38,770.1c-2.83-.4-5.68-.71-8.49-1.21a2.91,2.91,0,0,1-2.48-2.6,2.57,2.57,0,0,1,2.44-2.48c12.4-1.56,24.28-5.44,36.47-7.94,1.69-.34,4.17-1.23,5,1.13,1,2.84-1.42,3.73-3.58,4.55C684.22,765.18,675,769.86,664.38,770.1Z"/><path class="cls-2" d="M370.1,554.4c.25-3.5.35-7,.86-10.49a2.81,2.81,0,0,1,2.88-2,2.43,2.43,0,0,1,2.36,2.5c.23,2.22.37,4.46.51,6.69.61,10,2.3,19.64,6.64,28.75.78,1.64,2,3.94-.11,5.16-2.45,1.43-5,.6-6.61-1.88a23,23,0,0,1-2-4.32A62.28,62.28,0,0,1,370.1,554.4Z"/><path class="cls-2" d="M380.41,486.62c-3.05,10.21-2.36,21.81-3.7,33.2-.23,2-.52,3.85-3.13,3.79a2.94,2.94,0,0,1-3.17-2.88c-.69-12.11-1.65-24.26,3.62-35.77.13-.29.19-.62.34-.89.91-1.73,1.93-3.4,4.23-3.15C380.29,481.1,380.63,482.09,380.41,486.62Z"/><path class="cls-2" d="M480.67,419l-11.39,8c-7.42,1.82-14.71,4-21.34,7.95-2.44-.81-5.19.53-7.53-1.14-.86-2.38.8-3.53,2.52-4.44a291.78,291.78,0,0,1,32.22-15C479.94,412.54,480,412.68,480.67,419Z"/><path class="cls-2" d="M1347.6,699.75c-7.86-1.46-13.23-6-15.25-13.67-2.66-10.12-1.88-19.82,5.83-27.86,2-2.13,4.81-2.09,7.17-.8,10.14,5.55,20.17,11.29,30.25,17,3,1.7,3.74,4.19,2.63,7.36A33.23,33.23,0,0,1,1373,692c-2.09,2.59-5.82,4.47-2.38,8.76,1,1.3-.42,3-1.71,4.06a208.39,208.39,0,0,1-31.7,20.06c-1.3.68-3.14,1.54-4.45,0-1.46-1.65-.8-3.62.09-5.34a6.17,6.17,0,0,1,1.89-2.17c6.82-4.71,13-10.28,20.5-14.09,1.67-.64,3.84-.91,2.84-3.56ZM1339.08,675a16.16,16.16,0,0,0,12.05,17c5.86,1.68,14.22-1.89,17.43-7.44,1.32-2.29,1.29-4.24-1.25-5.65-7-3.87-14-7.81-21.07-11.57-2.86-1.51-5-.24-6.06,2.63A33.08,33.08,0,0,0,1339.08,675Z"/><path class="cls-2" d="M881.28,316.88c5.46,0,10.93,0,16.39,0,1.86,0,4.18-.3,4.21,2.51,0,2.32-.63,4.5-3.54,4.84-.31,0-.64,0-1,0-11.24.54-22.47,1.1-33.71,1.62a16.45,16.45,0,0,1-3.84-.19,3.75,3.75,0,0,1-3.07-4.22c.09-1.74,1.54-2.72,3.33-2.84,7.07-.45,14.13-.87,21.19-1.31Z"/><path class="cls-2" d="M832.94,328.65c-8.19.74-16.39,1.52-24.58,2.22-4.09.35-8.22,1.31-12.24-.44-.78-3.4-1.15-6,4-6.29,10.85-.68,21.66-2.1,32.49-3.09,2.32-.21,5.46-1.56,6.3,2.22C840,328.26,835.83,327.85,832.94,328.65Z"/><path class="cls-2" d="M778.43,333.46a175.61,175.61,0,0,1-44.22,6.66c-1-3.66,1-5.15,4.21-5.93a292.14,292.14,0,0,1,31.71-5.69C774,328,778,327.87,778.43,333.46Z"/><path class="cls-2" d="M1040.24,324.42c-5.45,0-10.9,0-16.34,0-2.87,0-5-.55-5.06-4.12-.09-4.16,2.83-3.48,5.26-3.53,11.89-.2,23.72,1,35.55,1.77,2,.14,4,.42,4.09,3,.06,2.75-1.79,4.11-4.29,4.16-6.4.13-12.8,0-19.21,0Z"/><path class="cls-2" d="M1182.7,341.83a190.89,190.89,0,0,0-34.41-5.71c-3-1.42-8.43-1.45-7.51-5.75s6-2.06,9-1.76A169.93,169.93,0,0,1,1180,334c1.88.54,3.87.92,5.15,2.32C1188.19,339.67,1186.65,341.35,1182.7,341.83Z"/><path class="cls-2" d="M1125,330c-2.87,2.17-6.07,1.36-9.23,1.08-9.79-.87-19.59-1.69-29.39-2.53a43.54,43.54,0,0,1-4.39-1.82c-1.63-.89-1.77-2.54-1.46-4.17.42-2.18,2.24-1.95,3.74-1.8,12.39,1.21,24.76,2.58,37.15,3.72C1125.25,324.83,1124.77,327.52,1125,330Z"/><path class="cls-2" d="M1247.49,351.52c-3.74,3-7.24,3.1-12.24,1.88-10.94-2.66-21.43-7.49-32.93-7.75l-.9-4,1.19-1.69c5.07-1.21,10.05-.51,15,.65,7.39,1.72,14.74,3.72,22.21,4.88C1243.94,346.12,1246.05,348.11,1247.49,351.52Z"/><path class="cls-2" d="M833.91,726.75c-.5-5.18,2.61-6.66,6.25-7.41a151.86,151.86,0,0,1,36.23-2.76c1.82.06,4.24-.06,4.19,2.63,0,2.14-1.69,3.33-3.84,3.51C862.46,723.88,848.3,726.53,833.91,726.75Z"/><path class="cls-2" d="M1056.08,716.22c7.73.44,15.41,1.06,22.93,3,1.55.4,3.08.88,4.63,1.31,2.27.62,3,2.23,2.64,4.37s-2.36,2-3.82,1.83c-10.57-.85-21.13-1.82-31.69-2.78-2.24-.2-4.47-.51-6.71-.79s-3.61-1.23-3.44-3.69,1.74-3.24,3.89-3.25C1048.37,716.19,1052.22,716.22,1056.08,716.22Z"/><path class="cls-2" d="M960,535.24a37.62,37.62,0,1,1,37.61-37.61A37.65,37.65,0,0,1,960,535.24Zm0-66.52a28.91,28.91,0,1,0,28.9,28.91A28.94,28.94,0,0,0,960,468.72Z"/></g><g id="Capa_3" data-name="Capa 3"><path d="M513.05,492.67v59.88H502.36V514.4l-10.52,8-8.73,6.76-8.72-6.76-10.52-8v38.15h-10.7V492.67l10.7,8.21,19.24,14.8,19.25-14.8Z"/><path d="M542.14,512.6v40.72h-10.7V511.49a8.52,8.52,0,0,0-7.27-7.27h-2.39V493.61h2.31v.09A19,19,0,0,1,540,504.39a22.18,22.18,0,0,1,1.45,4,17.54,17.54,0,0,1,.52,4.36Z"/><path d="M610.15,542v10.69H550.43V535.1a17.07,17.07,0,0,1,1.46-6.93,17.56,17.56,0,0,1,15.57-10.78h25.92a7,7,0,0,0-.6-13.94H550.61V492.76h42.17a17.6,17.6,0,0,1,17.62,17.62,17.06,17.06,0,0,1-1.45,6.93,17.25,17.25,0,0,1-3.59,5.3A17.75,17.75,0,0,1,593.29,528H567.46a7,7,0,0,0-6.25,6.93v6.93Z"/><path d="M678.75,492.67v59.88H668.06V527.92H636.49a17,17,0,0,1-8-2,17.48,17.48,0,0,1-9.58-15.66V492.67h10.69v17.62a7.05,7.05,0,0,0,7,7h31.56V492.67Z"/></g></g></svg>