<svg xmlns="http://www.w3.org/2000/svg" viewBox="0 0 1920 1080"><defs><style>.cls-1{fill:#f2f2f2;}.cls-2{fill:#010101;}</style></defs><g id="Capa_2" data-name="Capa 2"><g id="Capa_1-2" data-name="Capa 1"><rect class="cls-1" width="1" height="1"/><rect class="cls-1" x="1919" y="1079" width="1" height="1"/><rect class="cls-1" y="1079" width="1" height="1"/><rect class="cls-1" x="1919" width="1" height="1"/><path class="cls-2" d="M959.8,734.48a41.1,41.1,0,1,1,41.1-41.1A41.14,41.14,0,0,1,959.8,734.48Zm0-76.91a35.82,35.82,0,1,0,35.81,35.81A35.85,35.85,0,0,0,959.8,657.57Z"/><path class="cls-2" d="M959.79,641.37a52,52,0,1,0,52,52A52.06,52.06,0,0,0,959.79,641.37Zm0,98.73a46.73,46.73,0,1,1,46.73-46.72A46.77,46.77,0,0,1,959.79,740.1Z"/><path class="cls-2" d="M1703.08,400.71c-9.34-12.73-22.6-15.36-37.37-15.23-29.92.28-59.85,0-89.78,0-10.12,0-17.5-4.7-23.13-12.88-4.82-7-4.36-15.07-4.94-22.87-2.74-36.66-28.1-69.47-63.29-80.74-26.34-8.43-53.22-15-80.21-21C1352,236.45,1299.28,227,1246.47,217.83c-34.88-6-69.84-11.48-105.11-14.53-37.28-3.21-74.61-5.27-112-5.52-4,0-5-1.48-4.68-5,.16-1.52-.16-3.09,0-4.61.74-5.6-1.2-7.67-7.24-7.53l-116,.05c-4.53-.06-6.65,1.27-6,6,.2,1.51-.14,3.09.07,4.61.64,4.73-.86,6.4-6,6.37-40.53,0-83.78,2.82-111.57,5.59-13.32,1.34-26.56,3.3-39.83,4.84-26.2,3-52.15,7.69-78.11,12.19-46.3,8-92.5,16.6-138.44,26.51-27.89,6-55.67,12.79-82.88,21.31-40.31,12.64-64.53,44.79-66.81,87-.31,6-.79,11.84-4.18,17-5.55,8.49-13,13.43-23.47,13.41-27.06,0-54.12.07-81.19.1-28.44,0-28.44,0-49.37,17.89-5.09,9-3.6,23.16-3.6,23.16-.05,57.42,0,114.84-.09,172.27,0,8,.91,15.74,4.36,23,9.14,13.62,22,18.9,38.22,18.28,14.87-.57,29.78,0,44.69.11,50.75-.06,101.51-.29,152.26,0,10.37,0,17.46,6.07,20.94,16.12,13.94,40.33,27.82,80.68,42,120.93,7.25,20.58,12.49,42,24.73,60.6,12.78,16.72,28.48,29.6,48.69,36.48,9.94,3.16,27.56,4.79,27.56,4.79,18.26,0,36.51,1.11,54.77.33,3.59-.16,4.36,1,4.48,4.4.51,15,.62,15,15.47,15q42.26,0,84.49.14a1.61,1.61,0,0,1,1.15-.28c.13-4.76.51-9.54.33-14.28-.13-3.23.48-4.88,4.11-4.73l362.95-.21c3.82,0,4.93,1.17,4.91,4.87,0,4.7-2.26,11.15,1.22,13.66,3.23,2.33,9.31.78,14.13.78,26.15,0,52.31-.2,78.47.16,6.23.08,7.9-2.09,7.87-7.86,0-11.39.23-11.24,11.61-11.4,16.93-.25,33.87,1,50.75-.48,30.18-2.65,54.19-16.42,72.13-40.8.9-1.21,1.89-2.36,2.84-3.54a145.1,145.1,0,0,0,10.82-23q8.2-23.38,16.44-46.77c3.84-11.9,7.58-23.83,12.52-35.34,8.52-25.08,16.81-50.23,25.66-75.19,3.21-9,10.41-14.39,20.16-14.42,42.85-.14,85.7,0,128.54.1,22.78-.07,45.57-.51,68.35-.08,15,.29,27.48-4.09,36.81-16.17,4.48-7.85,5.91-16.28,5.88-25.29V418.48C1710.21,412.37,1703.08,400.71,1703.08,400.71ZM1080,212.26c-.21-3.75,2.94-2.53,4.81-2.39,20.61,1.41,41.26,2.43,61.8,4.54,75.43,7.74,149.66,22.78,224,37.18,35.78,6.94,71.13,15.7,106.07,25.91,33.92,9.92,53.66,33.37,60.28,68,.83,4.32.7,6.73-5,5-4.62-1.4-8.81-2.38-8.84-8.47,0-1.15-.15-3.45-2.27-3.5-1.94,0-2.54,1.49-2.4,3.19.5,6.32-3.48,3.34-5.88,2.64-27.77-8.09-55.4-16.76-83.31-24.38a1654.73,1654.73,0,0,0-231.66-45.78c-24.64-3.06-49.36-5.52-73.91-9.18-20.9-3.11-34.79-15.39-41.32-35.66h0l.12,0s0,0,0,0C1078.76,224.12,1080.37,218,1080,212.26Zm-55,4c-1.67-8.48-.85-8.63,7.76-8.22,2.85.14,5.71.23,8.56.28,2.64.05,5.29,0,8.91,0,5.39.3,11.78,1.09,18.12.85,4.93-.18,6.17,1.2,6.32,6.17.79,25.92,15.76,45.89,39.56,53.25,9.72,3,19.92,3.25,29.94,4.33,32.08,3.49,64,7.79,95.94,12.55,46.87,7,93.24,16.44,139.41,27,4.37,1,3.7,2.54,3.33,5.7-.49,4.32-2.62,3.46-5.43,2.79-60.94-14.54-122.71-24.53-184.75-32.85-44.94-6-90.18-8.48-135.48-9.8-5.48-.16-11-.29-16.46-.81-10-.94-15.5-6.66-15.82-16.71-.34-10.56-1.48-21.37.38-31.57A31,31,0,0,0,1025,216.22Zm-173.9-7c13.6-.27,27.18-1,40.75-1.62,5.93-.28,2.48,4.23,3.55,6.14-.42,2.87,1.13,6-3,7.27-1.74.53-2.33,3.57-.15,4,4.46.9,3.23,3.91,3.23,6.48,0,9.23.06,18.47-.17,27.7-.31,11.68-5.5,17.63-17,18.29-25.25,1.44-50.52,2.22-75.77,3.51-41.29,2.13-82.21,7.7-123.05,13.91-46.19,7-92.15,15.28-137.58,26.34-4.13,1-4.17-1-4.74-3.83-.52-2.61-1.1-4,2.67-4.87,52.32-12.15,105-22.43,158.2-29.82,32.39-4.5,64.93-8,97.35-12.18,29.54-3.86,49.53-26,50.33-55.74C845.76,210.42,846.81,209.31,851.09,209.23ZM382.78,346.61c6.58-34.15,25.23-58.18,59-68.49,40.95-12.5,82.63-22.14,124.72-30,37.32-6.92,74.63-14,112-20.53,47.19-8.26,94.64-14.64,142.57-16.77,5.05-.22,10.11-.62,15.13-1.14,3.12-.31,4.49.6,4.07,3.93-.33,2.6-.24,5.27-.44,7.9-.26,3.54.57,5.6-5.48,3.62-8.31-2.73-17.78.11-26.73,1A2.55,2.55,0,0,0,805.3,229c.12,2.4,2.06,1.84,3.45,1.85a247.7,247.7,0,0,0,29.79-2.13c-7.75,20.35-20.89,33.4-42.07,36.35-28.06,3.9-56.25,6.83-84.34,10.49a1665.66,1665.66,0,0,0-173.32,32.2c-44.58,10.67-88.51,23.59-132.35,36.93-2.89.87-5.15,2.14-4.86-2.53.1-1.58-.09-3.42-2-3.55s-2.74,1.85-2.75,3.2c0,6.36-4.48,7.65-9.34,8.9C383.64,351.67,381.83,351.5,382.78,346.61ZM666.39,869.36c-19.11-.57-38.28.32-57.32-.93-21.84-1.42-40.32-11-55.15-27.33-12.52-11.71-17.9-27.31-23.29-42.89q-24.54-70.85-49-141.69c-6.77-19.51-17.1-26.78-38-26.79q-67.65-.09-135.27,0c-3.74,0-7.47-.2-11.21-.3-17.13.05-34.28.51-51.4,0-15.21-.44-25.21-11.22-25.24-26.43,0-27.68.12-55.37.2-83.06-.07-33.22-.28-66.43-.12-99.65,0-11,9-21.1,20-23.2a68.36,68.36,0,0,1,12.48-.93c30.58-.09,61.17.16,91.76-.21,17.74-.22,31.35-11.41,36.06-28.46a26.66,26.66,0,0,0,.73-3.21c.91-5.82,6.7-10.57,12.33-10.2,2.88.19,2.06,2.26,2.15,3.85.2,3-.51,6.15,1.12,9,.74,1.27,1.5,2.16,3.1,1.58a2.28,2.28,0,0,0,1.6-2.54c0-.44-.11-.87-.11-1.32,0-13,0-13,12.26-16.83C451.88,336,490.09,325.4,528.5,315.55c1.39-.35,4.22-2.71,4.73.73s.73,7-4.29,8.12c-10.92,2.48-21.74,5.29-32.56,8.13-9.75,2.56-19.55,5-29.16,8.07-25.11,7.94-43.07,24-53.51,48.27-.42,1-.79,2-1.3,3-.18.32-.74.4-1.23.65-2.13-2.67-1.95-6.19-3.28-9.15-.85-1.83-2.22-2.9-4.15-2.43-1.68.43-1.35,2.14-1,3.32,10.52,37.21,2.25,75.18,4.56,112.7.45,7.21-.24,14.49-.41,21.73.21,9.66.17,19.32.66,29,1.13,22.11,15.28,39.16,36.61,44.38,7.35,1.79,14.91,1,22.35,1.12,6.4.11,8.84,2.43,7.81,8.6,2.55.89,2,3.69,3.32,5.38,1.14,1.44,2.29,3,4.22,2.46,2.35-.72,1.31-2.88,1.19-4.48-.21-3.2-3-5.84-2.14-9.85,13.58,5.14,23.53,13.69,28.5,27.29,7.29,19.93,13.78,40.19,21.69,59.86,3.36,8.35,1.68,16.17,1.64,24.3,0,5.48.2,11,.41,16.46,0,1.36.59,2.72,2.27,2.66s2-1.5,2-2.84c0-4.15,0-8.3,0-12.66,3.85.11,4.46,2.67,5.3,5.13,3,8.68,6.29,17.26,9.08,26,10.38,32.64,38.58,54,77.2,54.13,10.33,0,20.66,0,31,.17,8,.16,12.3,4.23,12.43,12.12.16,10.53-.14,21.06-.26,31.6,0,5.12,1.32,10.15-1.81,15.24-1.07,1.73,2.21,5.28,2.31,8.7C672.81,868.5,671.38,869.5,666.39,869.36Zm473.67-12.8c6.36-.81,5.81,3.29,6,7.38.14,4.27-1.34,5.41-5.78,5.39q-85.29-.36-170.59-.12c-5.46,0-9.58,0-8.57-7.17-3.47,1.14-1.78,3.55-2.89,4.82.16,1.63-.82,2-2.17,1.93l-17.07-.18c-38.31.83-76.62.78-114.93.09l-47.27.39c-5.86-.84-2-5.27-2.74-7.91s.34-4.77,3.79-4.23a17.78,17.78,0,0,0,1.94-.29c1.91-.47,5.2,1.35,5.42-1.81s-3.18-2.63-5.13-2.57c-4.91.13-6.27-2-6.1-6.73.41-11.84.07-23.7.45-35.54.37-11.22,3.82-14.38,14.94-14.36q40.47.06,81,.28c20.17-.15,40.34-.22,60.52-.53,3.91-.06,4.33,1.87,4.09,4.86-.12,1.44.24,2.65,2,2.64,1.23,0,2.24-.62,2.2-1.91-.23-6.74,4.6-5.45,8.59-5.43,10.7,0,10.78.05,10.78,10.71,0,10.29-.17,20.59-.28,30.88.18,4.13.3,8.28.58,12.4.11,1.55-.7,3.82,2.22,3.8q.4-3.63.79-7.24c0-.92.06-1.81.07-2.73-.08-14.5-.09-29-.29-43.5,0-3.12,1-4.43,4.13-4.26a77.52,77.52,0,0,0,7.92-.06c3.86-.23,7.71-.68,7.4,5.13a2.25,2.25,0,0,0,2.44,2.52c1.68-.15,1.89-1.78,1.71-3.07-.72-4.74,2.26-4.64,5.56-4.64q70.27.12,140.55.15c10.07,0,14.15,3.71,14.48,13.69.33,9.64-.06,19.33-.14,29a71.69,71.69,0,0,0,.41,7.19c.66,4.69-.84,7-6,6.65-1.91-.14-5.22-.53-5.14,2.57C1135,858.26,1138.37,856.77,1140.06,856.56Zm102.29-47.24c-.12,9.65-.3,19.31-.46,29,1.21,13.41,1.21,13.39-11.81,13.48-2.86,0-5.71.26-8.55.49-1.72.12-3,.84-2.75,2.87.26,1.86,1.82,1.54,3.06,1.56,5.5,0,11,.11,16.49-.1,3.13-.12,4.17.81,4.09,4.09q-.33,14.51.09,29c.09,3.29-.9,4.09-4,4.07q-41.93-.12-83.83.06c-2.87,0-3.7-.84-3.62-3.77.23-9.22.38-18.47.09-27.69-.15-4.61,1.21-6,5.88-5.86,3,.11,8.84,2.21,8.86-1.77,0-5-5.94-1.82-9.13-2.82a20.38,20.38,0,0,0-3.87-.51c-1,.12-1.38-.38-1.24-1.36a25.73,25.73,0,0,1,0-9.26c-.09-9.43-.21-18.88-.28-28.31-.12-16.37-5.85-22.36-22.21-22.36l-253.62-.46c-19,.17-38,.3-57,.53-13.1.14-26.2.41-39.3.62-4.77,3.3-8.68,7.28-10.22,13.11-.05,14-.27,28.1-.05,42.14.08,4.48-.92,6.19-5.75,6-3.26-.13-9.25-2.08-9.19,2.85,0,3.73,6,1.88,9,1.64,5.22-.41,6.24,1.47,6,6.22-.4,8.78-.29,17.59-.07,26.36.1,3.24-.35,4.67-4.09,4.65-27.68-.12-55.38,0-83.06.06-2.85,0-4.34-.4-4.21-3.92.34-9.43.45-18.89.22-28.32-.1-4.22,1.4-5.23,5.33-5,5,.32,10.11.07,15.15,0,1.23,0,2.74.28,3-1.66.23-2.09-1-2.74-2.75-2.79-4.82-.17-9.67-.58-14.48-.28-5,.32-7.5-1-6.42-6.47a68,68,0,0,0,.69-7.16c-.13-9.66-.25-19.32-.41-29-.21-12.6-5.8-18.52-18.44-18.95s-25.11.17-37.58-.7c-32.05-2.24-53.15-19.51-64.53-49-5.2-13.49-8.93-27.6-14.86-40.74-6.11-13.57-4.4-27.48-4.92-41.41-.08-2,1.6-5.7-2.24-5.64-3.44.06-2.34,3.49-2.46,5.78-.15,2.77,1.12,5.64-1,9.42-9.22-20.71-13.1-42.76-24.69-61.6-7.48-8-16-14.32-26.92-16.78-4-.91-4.55-4.29-5.78-7.26-.49-1.18-.78-2.86-2.51-2.44a2.61,2.61,0,0,0-1.84,3.12c1,5.37-2,5.62-6.08,5.22-6.11-.59-12.39-.24-18.38-1.44-16.87-3.38-31.16-19.95-32.44-37.19a182,182,0,0,1,0-29.62c-1.17-24.84-.64-49.7-.52-74.53.05-12.46-.56-24.83,1.67-37.4,5.51-31,23.36-51.29,52.17-61.41,19.8-7,40.55-11.19,60.83-16.76,4.36-1.19,6.23-.23,5.48,4.56a18,18,0,0,0,.07,5.91c.34,1.87-1.15,5.08,2.23,5.24,3.66.17,2.16-3.13,2.36-5a42.43,42.43,0,0,0,.11-9.22c-.4-3.51,1.37-4.58,4.32-5.23,44.95-10.06,90.15-18.74,135.72-25.57,31.49-4.71,63-9.3,94.71-12.05,30.25-2.61,60.56-4,90.89-5,5.71-.19,11.44-.3,17.11-.9,12.49-1.36,19.86-9.19,20.27-21.79.32-10.11.33-20.24-.07-30.35-.18-4.82,1.66-6.17,6-5.94,3.72.18,7.47,0,11.21-.06,2,0,3.65-.62,3.58-2.88-.06-2.07-1.94-2.11-3.45-2.12-4.18-.06-8.4-.37-12.52.11s-4.77-1.19-4.78-4.75,1-7.32-.81-10.94c-.78-1.57-1.36-4.06,1.67-4.55,2.16-.35,4.83-.79,5.19,2.33.59,5.36,4.29,5.24,8.16,5.22,5.5,0,11,0,16.51,0s11,.94,13.55-6.26c.83-2.42,4-2.28,4.51,1,.76,5.12,4.22,5.54,8.18,5.49,7.47-.09,14.94-.29,22.42-.35,4,0,5.37-2.05,5.24-5.86s-2.42-4.46-5.71-4.41q-30.66.5-61.33.77c-3.74,0-7.53-.74-11.19-.28-6.08.78-6.8-2.1-6.45-7.14.24-3.26,1.35-4,4.35-4,36.74.08,73.49.15,110.23-.05,5.23,0,4,3.1,4.27,6,.25,3.34-.23,5.39-4.53,5a151.15,151.15,0,0,0-16.49-.17c-3.34.08-6.87.21-6.62,5.18.24,4.67,3.53,5,7,5.07,4.4.11,8.83.33,13.2,0,5.22-.36,7.82.54,7.73,6.95s-3.51,5.74-7.6,5.56c-3.29-.15-6.59-.11-9.89,0-1.65.06-3.94-.08-3.69,2.55.17,1.82,1.81,2.26,3.48,2.3,3.73.09,7.51.58,11.2.24,4.85-.44,6.61,1,6.37,6.13-.43,9-.17,18-.12,27.05.1,16.78,7.36,24.68,24.24,25.45,15.16.69,30.34.91,45.51,1.56,41.73,1.78,83.23,5.73,124.61,11.57q82.79,11.69,164.37,29.75c3.54.77,4.67,2.18,4.42,5.66-.28,3.72,0,7.47.07,11.21,0,1.44.61,2.57,2.23,2.73,1.93.2,2.08-1.31,2.17-2.57.21-3.07.67-6.2.3-9.2-.5-4,.54-5.3,4.55-4.19,22.15,6.16,45.17,9.73,66.34,18.76,25.73,11,42.35,30.17,47.2,58.81,4.35,25.62,1,51.3,2,76.95.42,10.95-.2,22-.35,32.94.78,10.16,1.09,20.31-.27,30.45-.23,19.73-16.61,37.79-36.18,39.71-4.58.44-9.21.42-13.8.71-4.17.26-8.29.67-6.95-5.75a1.91,1.91,0,0,0-1.76-2.31,2.46,2.46,0,0,0-1.94,1.39c-1.71,9.3-10.3,8.78-16.49,11.65a66.1,66.1,0,0,0-16.16,12.6c-11.36,17.58-15.49,38.07-22.92,57.21-.69,1.76-1.23,3.58-2.24,6.58-2.6-4.63-.86-8.28-1.08-11.74-.12-2.08.38-5.06-2.72-5.08s-1.85,2.94-1.91,4.62c-.23,6.59-.25,13.18-.35,19.77a23.74,23.74,0,0,1-1.18,12.3c-6.35,17.75-12.56,35.55-19.18,53.18-3,8-6.52,15.83-13,21.86-11.71,15.11-27.58,23.05-46.17,24.81-14,1.32-28.11.79-42.18,1.19C1248,790.73,1242.51,796.51,1242.35,809.32Zm457.3-207.89c0,3.25.52,6.64-1.41,9.64a23.9,23.9,0,0,1-23.53,18.23c-30,.4-60,.12-90.06.12l-83.13.28c-9,0-18-.12-27,.08-19.33.42-28.79,7.33-35.46,25.57-3,8.12-6,16.23-9,24.35-7,20.82-14,41.65-21.1,62.45-2.52,7.41-5.33,14.73-8,22.09q-7.86,26-17.85,51.25c-4.12,10.44-10,19.87-18.65,27.38-14.32,15-31.92,24.14-52.52,25.49-19.9,1.29-39.91.52-59.89.83-3.38,0-5.26-.93-4.34-4.39,1.79-6.74.61-13.4,0-20.09a4.24,4.24,0,0,1,.29-1.27c-.06-12.09-.31-24.2-.14-36.27.1-7.24,4.42-11.21,11.65-11.47,13.41-.48,26.82.2,40.23-.75,24.39-1.75,43.42-12.82,58.08-32,.66-.86,1.4-1.66,2.1-2.5,8.94-17.34,14.42-36.05,21.32-56,2.39,6.61.92,11.77,1.38,16.78.16,1.81-.57,4.56,2.43,4.41,2.49-.1,1.81-2.64,1.85-4.2.25-8.77.64-17.51-.49-26.31-.81-6.46,3-12.1,5.07-18,6.88-19.39,13.42-38.89,20.76-58.09,4-10.45,12.33-17.42,22.32-22.26,1.39-.66,3.14-2.56,4.68-.84,1.28,1.44-.21,3.25-.58,4.91-.65,2.84-4.44,6.91.19,8.31,4.1,1.24,4.92-4.09,5.28-6.89,1-8.41,6-10,13.26-9.43,18.13,1.42,33.81-3.51,45.54-18.29,5.32-6.7,7.79-14.56,10.06-22.56q.18-16.71.38-33.39-.19-37.27-.41-74.55c-.06-11.88.33-23.77-.92-35.61-.72-6.66,2.57-12.37,4-18.51.43-1.93,1-3.82,1.4-5.76.24-1.24.63-2.88-.78-3.51-1.73-.78-3,.54-3.69,1.92-1.48,3.16-2.68,6.45-4.15,10.09-.72-.84-1.48-1.35-1.75-2.07-11.43-29-33.43-45.35-63-52.77-17.66-4.44-35.24-9.17-53-13.35-4.74-1.13-4.75-4.15-4.24-7.36.78-4.89,4.26-1.65,6.07-1.19q59.5,15.27,118.27,33.31c6.31,1.93,8.67,4.61,7.56,10.82a45.7,45.7,0,0,0-.34,5.26c-.09,1.34-.16,2.65,1.58,3.09,2,.5,2.88-.6,3.32-2.25.33-1.27.21-2.73.79-3.83,1.35-2.55-3-7.35,2.43-7.86,6.61-.64,11.13,3.25,11.91,8.89A37.31,37.31,0,0,0,1575.62,396c31.24.22,62.5.57,93.74-.07,17.31-.35,30.72,11,30.53,29.9C1699.31,484.38,1699.69,542.91,1699.65,601.43Z"/><path class="cls-1" d="M1507.08,517.24c.15-11,.77-22,.35-32.94-1-25.65,2.35-51.33-2-76.95-4.85-28.64-21.47-47.84-47.2-58.81-21.17-9-44.19-12.6-66.34-18.76-4-1.11-5.05.2-4.55,4.19.37,3-.09,6.13-.3,9.2-.09,1.26-.24,2.77-2.17,2.57-1.62-.16-2.19-1.29-2.23-2.73-.08-3.74-.35-7.49-.07-11.21.25-3.48-.88-4.89-4.42-5.66q-81.62-18-164.37-29.75c-41.38-5.84-82.88-9.79-124.61-11.57-15.17-.65-30.35-.87-45.51-1.56-16.88-.77-24.14-8.67-24.24-25.45,0-9-.31-18,.12-27.05.24-5.1-1.52-6.57-6.37-6.13-3.69.34-7.47-.15-11.2-.24-1.67,0-3.31-.48-3.48-2.3-.25-2.63,2-2.49,3.69-2.55,3.3-.15,6.6-.19,9.89,0,4.09.18,7.51,1,7.6-5.56s-2.51-7.31-7.73-6.95c-4.37.3-8.8.08-13.2,0-3.43-.08-6.72-.4-7-5.07-.25-5,3.28-5.1,6.62-5.18a151.15,151.15,0,0,1,16.49.17c4.3.36,4.78-1.69,4.53-5-.23-2.9,1-6-4.27-6-36.74.2-73.49.13-110.23.05-3,0-4.11.7-4.35,4-.35,5,.37,7.92,6.45,7.14,3.66-.46,7.45.3,11.19.28q30.66-.3,61.33-.77c3.29,0,5.58.45,5.71,4.41s-1.25,5.82-5.24,5.86c-7.48.06-15,.26-22.42.35-4,.05-7.42-.37-8.18-5.49-.49-3.25-3.68-3.39-4.51-1-2.5,7.2-8.11,6.25-13.55,6.26s-11,0-16.51,0c-3.87,0-7.57.14-8.16-5.22-.36-3.12-3-2.68-5.19-2.33-3,.49-2.45,3-1.67,4.55,1.78,3.62.78,7.32.81,10.94s.66,5.24,4.78,4.75,8.34-.17,12.52-.11c1.51,0,3.39.05,3.45,2.12.07,2.26-1.61,2.87-3.58,2.88-3.74,0-7.49.24-11.21.06-4.36-.23-6.2,1.12-6,5.94.4,10.11.39,20.24.07,30.35-.41,12.6-7.78,20.43-20.27,21.79-5.67.6-11.4.71-17.11.9-30.33,1-60.64,2.39-90.89,5-31.73,2.75-63.22,7.34-94.71,12.05-45.57,6.83-90.77,15.51-135.72,25.57-3,.65-4.72,1.72-4.32,5.23a42.43,42.43,0,0,1-.11,9.22c-.2,1.83,1.3,5.13-2.36,5-3.38-.16-1.89-3.37-2.23-5.24a18,18,0,0,1-.07-5.91c.75-4.79-1.12-5.75-5.48-4.56-20.28,5.57-41,9.8-60.83,16.76-28.81,10.12-46.66,30.43-52.17,61.41-2.23,12.57-1.62,24.94-1.67,37.4-.12,24.83-.65,49.69.52,74.53a182,182,0,0,0,0,29.62c1.28,17.24,15.57,33.81,32.44,37.19,6,1.2,12.27.85,18.38,1.44,4.07.4,7.1.15,6.08-5.22a2.61,2.61,0,0,1,1.84-3.12c1.73-.42,2,1.26,2.51,2.44,1.23,3,1.75,6.35,5.78,7.26,10.9,2.46,19.44,8.79,26.92,16.78,11.59,18.84,15.47,40.89,24.69,61.6,2.14-3.78.87-6.65,1-9.42.12-2.29-1-5.72,2.46-5.78,3.84-.06,2.16,3.64,2.24,5.64.52,13.93-1.19,27.84,4.92,41.41,5.93,13.14,9.66,27.25,14.86,40.74,11.38,29.54,32.48,46.81,64.53,49,12.47.87,25,.28,37.58.7s18.23,6.35,18.44,18.95c.16,9.67.28,19.33.41,29a68,68,0,0,1-.69,7.16c-1.08,5.47,1.42,6.79,6.42,6.47,4.81-.3,9.66.11,14.48.28,1.71.05,3,.7,2.75,2.79-.22,1.94-1.73,1.64-3,1.66-5,.06-10.12.31-15.15,0-3.93-.26-5.43.75-5.33,5,.23,9.43.12,18.89-.22,28.32-.13,3.52,1.36,3.93,4.21,3.92,27.68-.1,55.38-.18,83.06-.06,3.74,0,4.19-1.41,4.09-4.65-.22-8.77-.33-17.58.07-26.36.21-4.75-.81-6.63-6-6.22-3.06.24-9,2.09-9-1.64-.06-4.93,5.93-3,9.19-2.85,4.83.2,5.83-1.51,5.75-6-.22-14,0-28.1.05-42.14,1.54-5.83,5.45-9.81,10.22-13.11,13.1-.21,26.2-.48,39.3-.62,19-.23,38-.36,57-.53l253.62.46c16.36,0,22.09,6,22.21,22.36.07,9.43.19,18.88.28,28.31a25.73,25.73,0,0,0,0,9.26c-.14,1,.21,1.48,1.24,1.36a20.38,20.38,0,0,1,3.87.51c3.19,1,9.16-2.18,9.13,2.82,0,4-5.84,1.88-8.86,1.77-4.67-.15-6,1.25-5.88,5.86.29,9.22.14,18.47-.09,27.69-.08,2.93.75,3.78,3.62,3.77q41.91-.15,83.83-.06c3.13,0,4.12-.78,4-4.07q-.42-14.51-.09-29c.08-3.28-1-4.21-4.09-4.09-5.48.21-11,.11-16.49.1-1.24,0-2.8.3-3.06-1.56-.28-2,1-2.75,2.75-2.87,2.84-.23,5.69-.48,8.55-.49,13-.09,13-.07,11.81-13.48.16-9.65.34-19.31.46-29,.16-12.81,5.64-18.59,18.29-18.93,14.07-.4,28.2.13,42.18-1.19,18.59-1.76,34.46-9.7,46.17-24.81,6.44-6,10-13.88,13-21.86,6.62-17.63,12.83-35.43,19.18-53.18a23.74,23.74,0,0,0,1.18-12.3c.1-6.59.12-13.18.35-19.77.06-1.68-1.25-4.63,1.91-4.62s2.6,3,2.72,5.08c.22,3.46-1.52,7.11,1.08,11.74,1-3,1.55-4.82,2.24-6.58,7.43-19.14,11.56-39.63,22.92-57.21a66.1,66.1,0,0,1,16.16-12.6c6.19-2.87,14.78-2.35,16.49-11.65a2.46,2.46,0,0,1,1.94-1.39,1.91,1.91,0,0,1,1.76,2.31c-1.34,6.42,2.78,6,6.95,5.75,4.59-.29,9.22-.27,13.8-.71,19.57-1.92,35.95-20,36.18-39.71C1508.17,537.55,1507.86,527.4,1507.08,517.24Zm-1079-67.72c-1.7.86-3.23-.55-3.78-1.75a95.9,95.9,0,0,1-7.76-25.4,2.4,2.4,0,0,1,1.57-2.53,3.75,3.75,0,0,1,2.67,2.67q4,11.7,7.88,23.49C429.08,447.19,429.52,448.81,428.12,449.52Zm12.82,40a2.81,2.81,0,0,1-3.19-1.72,148.88,148.88,0,0,1-8.47-25.3,2.44,2.44,0,0,1,1.7-3.12,2,2,0,0,1,2.63,1.3c3.15,8.57,6.25,17.16,9.08,24.94C442.52,487.84,442.89,489.32,440.94,489.56Zm13.35,40.08a2.08,2.08,0,0,1-2.55-1.45c-1.36-3.17-2.68-6.35-4-9.54-1.41-4.81-2.87-9.62-4.24-14.44-.48-1.66-1.19-3.59,1.29-4.35s3.07,1.21,3.66,2.82c1.93,5.31,3.75,10.67,5.62,16,.5,2.76,1.07,5.52,1.48,8.3C455.68,528,455.69,529.29,454.29,529.64Zm13.58,39.27c-2.46.91-3.67-1-4.27-2.95q-3.39-11-6.5-22c-.39-1.4-.62-3.15,1.5-3.47a3.22,3.22,0,0,1,2.39,2.24c2.59,7.2,5.3,14.36,7.74,21.6C469.21,565.75,470.21,568,467.87,568.91Zm69.66-100.1c0,1.63.42,3.76-2.38,3.7-2.29-.05-2.23-1.88-2.23-3.3,0-8.31.11-16.63.23-24.94,0-1.32.16-2.84,1.89-2.9,2-.06,2.47,1.48,2.49,3.13,0,4.17,0,8.33,0,12.49C537.55,460.93,537.61,464.86,537.53,468.81Zm-4.43,17c0-1.4.55-2.63,2.25-2.61s2.16,1.31,2.18,2.7c0,4.36,0,8.72,0,13.09h.05c0,3.7,0,7.41,0,11.13,0,1.86-.22,3.68-2.44,3.84s-2.2-2.06-2.22-3.32C532.88,502.4,533,494.12,533.1,485.85Zm0-127.16a2,2,0,0,1,2-2.17A2.22,2.22,0,0,1,537.5,359c0,4.39,0,8.78,0,13.16h0c0,3.95,0,7.9,0,11.84,0,1.39.45,3.48-1.87,3.46-1.78,0-2.71-1.5-2.71-3.17Q533,371.5,533.13,358.69ZM535.41,399a2.51,2.51,0,0,1,2.16,2.82q0,6.56,0,13.12c0,3.71,0,7.44,0,11.15,0,1.2.34,2.77-1.59,3s-3-.71-3.05-2.51c-.17-8.51-.28-17-.28-25.54A2.22,2.22,0,0,1,535.41,399Zm2.1,238.7c0,1.36.47,3.46-1.93,3.34-1.78-.09-2.55-1.6-2.59-3.26-.1-5-.07-10.06-.19-15.08-.08-2.81-.41-5.63-.49-8.45-.06-1.8-.93-4.14,2.36-4.18,3,0,3,2,3,4q0,5.91,0,11.82h-.09C537.54,629.79,537.62,633.73,537.51,637.67Zm-4.36-66c0-1.49-.2-3.38,2-3.47,2.58-.12,2.45,2,2.46,3.72,0,7.86,0,15.74-.07,23.61,0,1.56.56,3.82-2.3,3.69s-2.18-2.39-2.24-3.94c-.15-4.15-.05-8.31-.05-12.46h.22C533.14,579.15,533.11,575.42,533.15,571.71ZM537.57,553c0,1.31.06,2.7-1.84,2.83s-2.78-1.17-2.81-2.83c-.1-4.37,0-8.75,0-13.12h-.11c0-3.73,0-7.44,0-11.16,0-1.68.37-3.18,2.39-3.18s2.47,1.46,2.47,3.16Q537.61,540.88,537.57,553Zm203,303.58c-4.4,0-8.8,0-13.2,0v.08H714.2c-1.41,0-2.63-.28-2.51-2.13a2.06,2.06,0,0,1,2-2.16,141,141,0,0,1,27.64-.11,2.1,2.1,0,0,1,2,2.25C743.29,856.4,742,856.61,740.61,856.61ZM939.84,219.35c12.75,0,25.51,0,38.26-.06,2.37,0,5.41-.64,4.62,3.38a1.1,1.1,0,0,1-1.13,1.56c-1.66.06-42.54,0-42.54,0s-1.81.51-1.89-2.47A2.15,2.15,0,0,1,939.84,219.35Zm19.95,526a52,52,0,1,1,52-52A52.06,52.06,0,0,1,959.79,745.39Zm245.42,111.23c-4.15,0-8.3,0-12.45,0v0c-4.16,0-8.31.05-12.46,0-1.36,0-3.35.65-3.55-1.71-.17-2,1.32-2.62,3-2.74a190.9,190.9,0,0,1,26.2,0c1.4.08,2.47.56,2.47,2.34C1208.37,856.87,1206.69,856.61,1205.21,856.62ZM1382.52,371.4h.1c0-3.94,0-7.87,0-11.81,0-1.35.08-2.84,1.73-3a2.25,2.25,0,0,1,2.59,2.32,149.84,149.84,0,0,1,0,26.2c-.13,1.4-1,2.58-2.53,2.39s-2-1.52-2-2.93Zm.08,30.4c0-1.49.51-2.68,2.06-2.79,1.89-.14,2.76,1.17,2.8,2.87.08,3.93,0,7.86,0,11.79h-.27c0,4.13.08,8.28,0,12.42,0,1.49-.29,3.18-2.45,3.14s-2.28-1.68-2.26-3.22C1382.48,417.93,1382.56,409.86,1382.6,401.8Zm4.62,67.65c0,1.37,0,3.3-2.38,3.08-2-.2-2.31-1.68-2.31-3.32,0-4.15,0-8.3,0-12.44h.09c0-3.93,0-7.85,0-11.79,0-1.59.12-3.38,2-3.58,2-.23,2.37,1.62,2.4,3.18C1387.13,452.87,1387.25,461.16,1387.22,469.45Zm-4.75,70.42h.13c0-3.7,0-7.41,0-11.12,0-1.51-.09-3.27,2.21-3.18,1.64.06,2.27,1.37,2.28,2.69q0,12.42-.1,24.84c0,1.62-.49,3.09-2.67,2.78-1.8-.25-1.84-1.62-1.84-2.92C1382.44,548.59,1382.47,544.23,1382.47,539.87Zm4.49,97.82c0,1.51-.25,3.39-2.26,3.41s-2.17-1.81-2.17-3.34q0-12.42.11-24.86c0-1.42.37-2.73,2-2.73s2.22,1.28,2.23,2.67c.07,4.15,0,8.3,0,12.44h0C1387,629.42,1387.05,633.56,1387,637.69Zm0-53.8c0,4.38,0,8.74,0,13.1,0,1-.17,2.28-1.68,2.31s-2.67-.66-2.67-2.23c0-9,0-17.91.07-26.85a1.92,1.92,0,0,1,2-2.13c1.61,0,2.14,1.31,2.2,2.72.23,4.36.4,8.72.6,13.08Zm-1.76-69.31-2.43-.28c-1-9.15-.17-18.32-.2-27.49,0-1.48-.21-3.32,1.92-3.54a2.2,2.2,0,0,1,2.43,2.48C1386.89,495.38,1389.59,505.2,1385.25,514.58Zm77.81,28.29a153.26,153.26,0,0,1-7.36,24.36,2.69,2.69,0,0,1-3.16,1.75c-2.41-.45-1-2.42-1.38-3.38a171.15,171.15,0,0,1,8.33-23.75c.43-1,1-2.07,2.38-1.69S1463.26,541.93,1463.06,542.87Zm13.77-39.52c-1.31,4.6-2.72,9.17-4.08,13.76-.37.84-.73,1.67-1.09,2.52-1.12,2.83-2.22,5.68-3.38,8.49-.42,1-1.11,2-2.4,1.63s-1.47-1.6-1.26-2.68c1.7-8.79,4.64-17.22,7.57-25.65a2.63,2.63,0,0,1,3.13-1.79C1477.27,500.1,1477.27,501.82,1476.83,503.35Zm13.94-38.74c-2.51,7-5.21,14.62-8,22.21-.54,1.46-1.44,3-3.35,2.43s-2-2.36-1.54-3.81c2.71-8.09,5.54-16.14,8.4-24.17.44-1.23,1.23-2.58,2.87-1.93C1491.32,460.2,1490.73,462.21,1490.77,464.61Zm5.67-17.93c-.6,1.71-2.13,3.37-3.89,2.84-2.35-.71-1.21-2.92-.71-4.47,2.31-7.3,4.65-14.58,7.15-21.8.51-1.48,1-3.9,3.33-3.11,1.55.53,1.25,2.59,1.38,4.85C1501.44,431.79,1499,439.26,1496.44,446.68Z"/><path class="cls-2" d="M982.72,222.67a1.1,1.1,0,0,1-1.13,1.56c-1.66.06-42.54,0-42.54,0s-1.81.51-1.89-2.47a2.15,2.15,0,0,1,2.68-2.41c12.75,0,25.51,0,38.26-.06C980.47,219.29,983.51,218.65,982.72,222.67Z"/><path class="cls-2" d="M442.69,485.66c-.17,2.18.2,3.66-1.75,3.9a2.81,2.81,0,0,1-3.19-1.72,148.88,148.88,0,0,1-8.47-25.3,2.44,2.44,0,0,1,1.7-3.12,2,2,0,0,1,2.63,1.3C436.76,469.29,439.86,477.88,442.69,485.66Z"/><path class="cls-2" d="M535.15,472.51c-2.29-.05-2.23-1.88-2.23-3.3,0-8.31.11-16.63.23-24.94,0-1.32.16-2.84,1.89-2.9,2-.06,2.47,1.48,2.49,3.13,0,4.17,0,8.33,0,12.49,0,3.94.07,7.87,0,11.82C537.49,470.44,538,472.57,535.15,472.51Z"/><path class="cls-2" d="M537.53,384c0,1.39.45,3.48-1.87,3.46-1.78,0-2.71-1.5-2.71-3.17q0-12.82.18-25.63a2,2,0,0,1,2-2.17A2.22,2.22,0,0,1,537.5,359c0,4.39,0,8.78,0,13.16h0C537.57,376.14,537.62,380.09,537.53,384Z"/><path class="cls-2" d="M537.57,426.06c0,1.2.34,2.77-1.59,3s-3-.71-3.05-2.51c-.17-8.51-.28-17-.28-25.54a2.22,2.22,0,0,1,2.76-2.08,2.51,2.51,0,0,1,2.16,2.82q0,6.56,0,13.12C537.58,418.62,537.63,422.35,537.57,426.06Z"/><path class="cls-2" d="M1490.77,464.61c-2.51,7-5.21,14.62-8,22.21-.54,1.46-1.44,3-3.35,2.43s-2-2.36-1.54-3.81c2.71-8.09,5.54-16.14,8.4-24.17.44-1.23,1.23-2.58,2.87-1.93C1491.32,460.2,1490.73,462.21,1490.77,464.61Z"/><path class="cls-2" d="M537.61,510.16c0,1.86-.22,3.68-2.44,3.84s-2.2-2.06-2.22-3.32c-.07-8.28,0-16.56.15-24.83,0-1.4.55-2.63,2.25-2.61s2.16,1.31,2.18,2.7c0,4.36,0,8.72,0,13.09h.05C537.59,502.73,537.57,506.44,537.61,510.16Z"/><path class="cls-2" d="M1387.22,469.45c0,1.37,0,3.3-2.38,3.08-2-.2-2.31-1.68-2.31-3.32,0-4.15,0-8.3,0-12.44h.09c0-3.93,0-7.85,0-11.79,0-1.59.12-3.38,2-3.58,2-.23,2.37,1.62,2.4,3.18C1387.13,452.87,1387.25,461.16,1387.22,469.45Z"/><path class="cls-2" d="M1387,385.06c-.13,1.4-1,2.58-2.53,2.39s-2-1.52-2-2.93V371.4h.1c0-3.94,0-7.87,0-11.81,0-1.35.08-2.84,1.73-3a2.25,2.25,0,0,1,2.59,2.32A149.84,149.84,0,0,1,1387,385.06Z"/><path class="cls-2" d="M1387.49,413.67h-.27c0,4.13.08,8.28,0,12.42,0,1.49-.29,3.18-2.45,3.14s-2.28-1.68-2.26-3.22c0-8.08.09-16.15.13-24.21,0-1.49.51-2.68,2.06-2.79,1.89-.14,2.76,1.17,2.8,2.87C1387.54,405.81,1387.49,409.74,1387.49,413.67Z"/><path class="cls-2" d="M1476.83,503.35c-1.31,4.6-2.72,9.17-4.08,13.76-.37.84-.73,1.67-1.09,2.52-1.12,2.83-2.22,5.68-3.38,8.49-.42,1-1.11,2-2.4,1.63s-1.47-1.6-1.26-2.68c1.7-8.79,4.64-17.22,7.57-25.65a2.63,2.63,0,0,1,3.13-1.79C1477.27,500.1,1477.27,501.82,1476.83,503.35Z"/><path class="cls-2" d="M1503.7,425c-2.26,6.8-4.7,14.27-7.26,21.69-.6,1.71-2.13,3.37-3.89,2.84-2.35-.71-1.21-2.92-.71-4.47,2.31-7.3,4.65-14.58,7.15-21.8.51-1.48,1-3.9,3.33-3.11C1503.87,420.67,1503.57,422.73,1503.7,425Z"/><path class="cls-2" d="M1385.25,514.58l-2.43-.28c-1-9.15-.17-18.32-.2-27.49,0-1.48-.21-3.32,1.92-3.54a2.2,2.2,0,0,1,2.43,2.48C1386.89,495.38,1389.59,505.2,1385.25,514.58Z"/><path class="cls-2" d="M454.29,529.64a2.08,2.08,0,0,1-2.55-1.45c-1.36-3.17-2.68-6.35-4-9.54-1.41-4.81-2.87-9.62-4.24-14.44-.48-1.66-1.19-3.59,1.29-4.35s3.07,1.21,3.66,2.82c1.93,5.31,3.75,10.67,5.62,16,.5,2.76,1.07,5.52,1.48,8.3C455.68,528,455.69,529.29,454.29,529.64Z"/><path class="cls-2" d="M428.12,449.52c-1.7.86-3.23-.55-3.78-1.75a95.9,95.9,0,0,1-7.76-25.4,2.4,2.4,0,0,1,1.57-2.53,3.75,3.75,0,0,1,2.67,2.67q4,11.7,7.88,23.49C429.08,447.19,429.52,448.81,428.12,449.52Z"/><path class="cls-2" d="M1463.06,542.87a153.26,153.26,0,0,1-7.36,24.36,2.69,2.69,0,0,1-3.16,1.75c-2.41-.45-1-2.42-1.38-3.38a171.15,171.15,0,0,1,8.33-23.75c.43-1,1-2.07,2.38-1.69S1463.26,541.93,1463.06,542.87Z"/><path class="cls-2" d="M532.21,747.47c1.91-2.5.4-5.25,1-7.74.34-1.44,1.08-2.47,2.55-2.57,2-.14,1.76,1.55,1.77,2.75q.11,12.78.08,25.56c0,1.82-.33,3.65-2.64,3.8-2,.12-2.4-1.53-2.91-3-2.38-6.77-4.86-13.51-7.11-20.32-.7-2.1-2.2-5.12,1.23-6,3-.78,3,2.37,3.58,4.34C530.11,745.49,529.94,747,532.21,747.47Z"/><path class="cls-2" d="M551.34,805.64c.36,2.47-.29,3.52-1.81,3.84a2.59,2.59,0,0,1-3.16-1.67A130.28,130.28,0,0,1,538,783c-.3-1.39.05-2.7,1.74-3a2.68,2.68,0,0,1,3.2,1.7C545.89,790,548.76,798.25,551.34,805.64Z"/><path class="cls-2" d="M510.62,704.76c.2-2-.13-3.76,1.71-4.46,2-.78,2.77.75,3.27,2.19q4.08,11.68,8,23.43c.45,1.36,1.14,3.15-1,3.81-1.45.45-2.61-.64-3.2-1.75C515.34,720.48,513,712.34,510.62,704.76Z"/><path class="cls-2" d="M485.45,619.44a4.45,4.45,0,0,1,3.2,2.82c2.72,7.37,5.42,14.75,8,22.18.59,1.67.73,3.74-1.51,4.38s-3.07-1.44-3.63-3c-2.61-7.17-5-14.42-7.55-21.64A3.81,3.81,0,0,1,485.45,619.44Z"/><path class="cls-2" d="M577.19,839.46c-.7,4.33-3.33,2.45-5.14,1.3-3.25-2.08-6.23-4.58-9.33-6.9l-7-9.31c-1.12-1.49-1.92-3.34-.49-4.71,1.82-1.75,3,.22,4.21,1.43Z"/><path class="cls-2" d="M497.93,658.41c3.9,2.12,5,5,5.94,7.72q3.17,9.58,5.88,19.32c.36,1.31.64,3.22-1.44,3.78a2.59,2.59,0,0,1-3.25-1.54C501.67,678.5,497.69,669.43,497.93,658.41Z"/><path class="cls-2" d="M537.64,528.73q0,12.15-.07,24.3c0,1.31.06,2.7-1.84,2.83s-2.78-1.17-2.81-2.83c-.1-4.37,0-8.75,0-13.12h-.11c0-3.73,0-7.44,0-11.16,0-1.68.37-3.18,2.39-3.18S537.64,527,537.64,528.73Z"/><path class="cls-2" d="M467.87,568.91c-2.46.91-3.67-1-4.27-2.95q-3.39-11-6.5-22c-.39-1.4-.62-3.15,1.5-3.47a3.22,3.22,0,0,1,2.39,2.24c2.59,7.2,5.3,14.36,7.74,21.6C469.21,565.75,470.21,568,467.87,568.91Z"/><path class="cls-2" d="M537.51,595.57c0,1.56.56,3.82-2.3,3.69s-2.18-2.39-2.24-3.94c-.15-4.15-.05-8.31-.05-12.46h.22c0-3.71,0-7.44,0-11.15,0-1.49-.2-3.38,2-3.47,2.58-.12,2.45,2,2.46,3.72C537.59,579.82,537.61,587.7,537.51,595.57Z"/><path class="cls-2" d="M537.51,637.67c0,1.36.47,3.46-1.93,3.34-1.78-.09-2.55-1.6-2.59-3.26-.1-5-.07-10.06-.19-15.08-.08-2.81-.41-5.63-.49-8.45-.06-1.8-.93-4.14,2.36-4.18,3,0,3,2,3,4q0,5.91,0,11.82h-.09C537.54,629.79,537.62,633.73,537.51,637.67Z"/><path class="cls-2" d="M1387.1,528.26q0,12.42-.1,24.84c0,1.62-.49,3.09-2.67,2.78-1.8-.25-1.84-1.62-1.84-2.92,0-4.37,0-8.73,0-13.09h.13c0-3.7,0-7.41,0-11.12,0-1.51-.09-3.27,2.21-3.18C1386.46,525.63,1387.09,526.94,1387.1,528.26Z"/><path class="cls-2" d="M1387,583.89c0,4.38,0,8.74,0,13.1,0,1-.17,2.28-1.68,2.31s-2.67-.66-2.67-2.23c0-9,0-17.91.07-26.85a1.92,1.92,0,0,1,2-2.13c1.61,0,2.14,1.31,2.2,2.72.23,4.36.4,8.72.6,13.08Z"/><path class="cls-2" d="M1387,637.69c0,1.51-.25,3.39-2.26,3.41s-2.17-1.81-2.17-3.34q0-12.42.11-24.86c0-1.42.37-2.73,2-2.73s2.22,1.28,2.23,2.67c.07,4.15,0,8.3,0,12.44h0C1387,629.42,1387.05,633.56,1387,637.69Z"/><path class="cls-2" d="M532.88,287.78c.12-12.29.12-12.28-12.15-10.7-1.31.17-2.62.36-3.93.41-1.12,0-2.36-.24-2.59-1.48a2.4,2.4,0,0,1,1.62-2.6c8.46-3.21,17.31-4.64,26.25-5.61a1.66,1.66,0,0,1,2,1.93c0,1.5-.79,2.87-2.13,2.95-5.1.3-4.23,3.87-4.24,7.11q0,9.56-.19,19.11c0,1.49.14,3.16-2.19,3.23s-2.33-1.79-2.39-3.16C532.77,295.25,532.88,291.51,532.88,287.78Z"/><path class="cls-2" d="M423.91,306a18,18,0,0,1-2,2.4c-5.42,4.9-9.66,10.72-13.61,16.81-1.15,1.78-2.74,4.26-5.12,2.67-1.72-1.15-.83-3.56.15-5.41A45.81,45.81,0,0,1,419,305C420.5,304.05,422.56,302.8,423.91,306Z"/><path class="cls-2" d="M600,259.94c-1.66.06-3.35-.13-3.69-2-.42-2.25,1.34-3,3.18-3.31,8.15-1.52,16.32-3,24.47-4.55,1.27-.24,2.68-1,3.29.75.71,2.06-.39,3.24-2.31,4C616.88,257.78,608.38,258.55,600,259.94Z"/><path class="cls-2" d="M643.13,252.05c-1.84-.62-4.54,1.31-5.12-1.51s2-3.42,4.22-3.73c7.56-1.06,15.12-2.1,22.69-3.07,1.61-.21,3.88-1.14,4.37,1.3s-1.7,3.46-3.66,3.77C658.1,250,650.53,251,643.13,252.05Z"/><path class="cls-2" d="M435.91,299.86c-1.52-.13-3.09.16-3.58-1.41-.58-1.86.73-2.85,2.24-3.44a149.32,149.32,0,0,1,24.49-7.16c1.34-.28,2.77,0,3.29,1.46a2.41,2.41,0,0,1-1.62,3.15C452.41,295,444,297.45,435.91,299.86Z"/><path class="cls-2" d="M767.66,235.87c-1.78.22-3.12-.42-3.53-2.18-.47-2,1-2.61,2.61-2.86,8-1.23,16-2.49,24-3.69,1.55-.23,3.42-.31,3.85,1.56.49,2.08-1,3.14-3,3.45Z"/><path class="cls-2" d="M559.83,268.07c-1.76-.16-3.62.52-3.94-1.74-.28-1.93,1.09-2.83,2.64-3.14,7.92-1.56,15.85-3,23.79-4.49,1.62-.3,3.31,0,3.64,1.83s-1,2.85-2.64,3.17C575.39,265.21,567.45,266.66,559.83,268.07Z"/><path class="cls-2" d="M732.37,239.48c-3.22-1.57-9.33,2.42-9.64-1.82-.41-5.41,6-2.5,9.34-3.28a104.65,104.65,0,0,1,15.54-2c1.85-.15,4.93-1.57,5.18,1.86.21,2.88-2.63,3-4.76,3.28C742.85,238.23,737.66,238.83,732.37,239.48Z"/><path class="cls-2" d="M686,245.56c-2.34-.11-4.83,1.4-5.5-1.44s2-3.23,3.78-3.52c7.32-1.22,14.68-2.2,22-3.13,1.66-.21,4-.5,4.4,1.7.48,2.61-1.92,3.12-3.85,3.41C699.71,243.66,692.58,244.62,686,245.56Z"/><path class="cls-2" d="M498.7,276.81c2.28.31,4.09-.41,4.64,1.74s-1.06,2.6-2.53,3.08a166.48,166.48,0,0,1-23.48,5.95c-1.18.2-2.73.87-3.34-.87a2.17,2.17,0,0,1,1.64-3C483.57,281.31,491.52,279,498.7,276.81Z"/><path class="cls-2" d="M1382.55,287.81v-8.55c0-3,.88-6.36-4.06-6.44a2.64,2.64,0,0,1-2.37-3.35c.48-2,2.35-1.86,3.77-1.58,7.72,1.51,15.42,3.14,23.11,4.81,1.56.34,3,1.25,2.68,3.12s-2.15,2.05-3.68,1.8c-3.23-.53-6.44-1.19-9.64-1.92-3.74-.85-5.59-.35-5.16,4.38.55,6.08.17,12.26,0,18.39,0,1.65,0,3.77-2.6,3.73-2.86-.05-2.05-2.33-2.11-3.86-.13-3.51,0-7,0-10.53Z"/><path class="cls-2" d="M1318.41,259.85c-7.44-1.15-15-2.23-22.22-4.6-1.78-.58-4.38-1.08-3.77-3.62.64-2.74,3-1.6,4.92-1.25,7.26,1.39,14.52,2.8,21.8,4.11,2.13.39,5,.27,4.71,3.18S1320.55,259.65,1318.41,259.85Z"/><path class="cls-2" d="M1517.58,325.37c0,1.07.06,2.28-1.13,2.81a2.46,2.46,0,0,1-2.94-.89c-5.27-6.93-10.22-14.11-16.5-20.22a1.54,1.54,0,0,1-.14-2.31,3.21,3.21,0,0,1,2.32-.55C1504.2,304.93,1517.48,320.29,1517.58,325.37Z"/><path class="cls-2" d="M1461.92,287.71c7.61,2.27,15.35,4.5,23,7,1.51.49,3.61,1.48,2.67,3.71-.79,1.88-2.66,2-4.51,1.39-7.49-2.28-15-4.57-22.47-6.79-1.93-.57-3.26-1.56-2.74-3.67S1460.3,288,1461.92,287.71Z"/><path class="cls-2" d="M1082.61,229.41c1.31-5.13,5.06-5.41,9.42-5,5.88.55,11.78.81,17.67,1.17,2.23.14,4.88.11,4.76,3.14-.15,3.7-3.33,2-5.07,2-9-.28-18-.86-26.94-1.34Z"/><path class="cls-2" d="M1150.43,235.64c-6.79-1.06-14.1-2.24-21.41-3.34-1.89-.28-3.75-.88-3.54-3,.28-2.77,2.68-2.38,4.6-2.09,7.32,1.1,14.63,2.31,21.94,3.48,1.83.29,4.48-.12,3.81,3C1155.28,236.24,1152.9,235.7,1150.43,235.64Z"/><path class="cls-2" d="M1185.45,239a62.45,62.45,0,0,1-14.49-1.56c-1.94-.48-4.27-.9-3.92-3.47s2.73-1.77,4.32-1.62c7.83.73,15.65,1.61,23.47,2.47,1.65.18,3.08.77,3,2.77-.12,2.17-1.8,2.14-3.36,2.05C1191.59,239.44,1188.76,239.21,1185.45,239Z"/><path class="cls-2" d="M1214.55,237.41c7.2,1.06,14.12,2,21,3.16,1.73.3,4.42.56,3.83,3.41s-2.83,2-4.8,1.69c-6.67-1-13.36-1.93-20-2.95-2.26-.35-5.65-.11-5.26-3.41C1209.63,236.37,1212.86,237.88,1214.55,237.41Z"/><path class="cls-2" d="M1256,243.86c7.51,1,14.64,1.95,21.76,3,1.92.27,4.3.57,4.3,3.08,0,3.31-2.86,2.12-4.43,2-7.35-.76-14.7-1.68-22-2.82-2-.32-5.1-.81-4.69-3.54C1251.38,242.33,1254.55,244.71,1256,243.86Z"/><path class="cls-2" d="M1359.66,268.11c-7.64-1.48-15.13-2.91-22.61-4.38-1.6-.31-3.09-1.1-3-2.9.11-2,1.81-2.37,3.4-2.09,7.94,1.39,15.88,2.82,23.79,4.39,1.69.34,3.61,1.28,2.81,3.56S1361.1,267.67,1359.66,268.11Z"/><path class="cls-2" d="M1422,277c6.8,2,14.5,4.35,22.23,6.57,1.57.44,2.23,1.27,2,2.76s-1.37,1.6-2.48,1.45c-8.87-1.2-17.37-3.89-25.86-6.6a1.85,1.85,0,0,1-1.33-2.54C1417.4,276.52,1419.27,276.8,1422,277Z"/><path class="cls-2" d="M1418.39,679.71c-.94,2.41-1.81,4.86-2.85,7.23-.61,1.42-1.56,2.87-3.38,2.43-2.3-.55-2.13-2.51-1.76-4.23.68-3.16,1.54-6.27,2.32-9.41,2.74-5.51,2.85-12.35,8.76-17.07C1423.86,666.57,1418.9,672.85,1418.39,679.71Z"/><path class="cls-2" d="M1423.25,644.11c2.66-7,5.57-14.73,8.61-22.43.45-1.13,1.52-2.67,2.89-2.09a3.19,3.19,0,0,1,1.44,4c-2.56,7.65-5.24,15.26-8,22.86-.52,1.42-1.45,3-3.33,2.45S1423.55,646.49,1423.25,644.11Z"/><path class="cls-2" d="M985.52,839.77c-1.09,1.57,1.05,5.16-2.38,5-4.36-.2-1.51-4.6-3.08-6.59.3-6.72.53-13.45,1-20.16.09-1.49-.7-4.06,2.08-3.86,2.31.17,2.08,2.41,2.11,4.11C985.33,825.44,985.42,832.61,985.52,839.77Z"/><path class="cls-2" d="M1382,762.74c.18-6.79.26-13.59.61-20.37.1-1.82-1.45-5.21,2.07-5,3,.16,2,3.32,2.15,5.38.09,1.69,0,3.39,0,5.79,3.3-1.39,3.41-3.73,3.75-6,.24-1.6.86-3.14,2.83-2.95,2.47.23,2.63,2.24,2.17,4-1.34,5.07-2.93,10.07-4.42,15.11a37.42,37.42,0,0,1-2,4.78c-1.22,2.07-.53,6.14-4,5.78C1381.81,768.87,1382.76,765.1,1382,762.74Z"/><path class="cls-2" d="M1381.68,784.76a118.35,118.35,0,0,1-8,22.83c-.68,1.49-1.65,2.71-3.49,1.9-1.45-.63-1.56-2.07-1.15-3.36q3.87-12.11,7.86-24.17a2.87,2.87,0,0,1,3.57-2.1C1382.51,780.35,1382.2,782.05,1381.68,784.76Z"/><path class="cls-2" d="M1353,837.66c-3.58.67-5.67,6.32-10.41,3.11,5.36-7.74,13.18-13.18,19.11-20.38.83-1,2.2-1.86,3.37-.7s.57,2.87-.17,4.22C1361.88,829.33,1357,833.1,1353,837.66Z"/><path class="cls-2" d="M868.18,221.43a8.6,8.6,0,0,1,2-.1c2.83.53,7.63-2.69,8,2.15.29,3.55-4.68,2.64-7.33,3.05-5.6.85-11.28,1.15-16.94,1.51-2,.13-4.65,1.12-4.77-2.54-.1-3.12,2.22-2.61,4.07-2.8,5-.49,10-1,15-1.44Z"/><path class="cls-2" d="M1052.58,221.39c5,.46,10,1,15,1.36,1.9.16,3.46.51,3.4,2.92-.07,2.61-1.92,2.6-3.68,2.43-7.81-.74-15.6-1.59-23.4-2.37-1.45-.15-2.59-.55-2.41-2.28a2.5,2.5,0,0,1,2.63-2.39c2.82,0,5.65.3,8.47.47Z"/><path class="cls-2" d="M940,840.82c-.37,1.31-.75,2.62-1.12,3.92-2.85.66-4.06-.5-4-3.4.07-7.9,0-15.8.07-23.7,0-1.56,0-3.55,1.9-3.68,2.54-.18,2.32,2.22,2.39,3.86C939.58,825.48,939.78,833.15,940,840.82Z"/><path class="cls-2" d="M895.47,856.71c-4,0-7.9,0-11.84,0-1.38,0-3.42.67-3.51-1.7a2.62,2.62,0,0,1,2.42-2.7c9-1.14,17.93-.77,26.9-.19a2.43,2.43,0,0,1,2.14,2.86c-.15,1.85-1.63,1.7-2.94,1.7H895.47Z"/><path class="cls-2" d="M838.16,855.35c.53-1.09,1.06-2.18,1.6-3.27,8.56-.08,17.13-.21,25.7-.21,1.93,0,4.5.11,4.45,2.76-.06,3.18-3,2-4.59,1.92C856.27,855.93,847.09,858.29,838.16,855.35Z"/><path class="cls-2" d="M941.57,851.41c3.25.27,6.5.51,9.74.82,1.74.16,3.7.27,3.47,2.79s-2.24,1.53-3.53,1.57c-5.88.17-11.75.2-17.63.28-2.37-.08-4.74-.08-7.1-.26-1.32-.1-3.32.7-3.41-1.73-.06-1.93,1.4-2.62,3-2.71C931.25,851.84,936.41,851.65,941.57,851.41Z"/><path class="cls-2" d="M743.29,854.55c0,1.85-1.3,2.06-2.68,2.06-4.4,0-8.8,0-13.2,0v.08H714.2c-1.41,0-2.63-.28-2.51-2.13a2.06,2.06,0,0,1,2-2.16,141,141,0,0,1,27.64-.11A2.1,2.1,0,0,1,743.29,854.55Z"/><path class="cls-2" d="M1023.61,856.72c-4.18,0-8.35,0-12.52,0-1.3,0-2.81.13-2.92-1.73a2.4,2.4,0,0,1,2.29-2.71c9-1,18-.51,27-.35,1.64,0,2,1.44,2,2.84,0,2-1.36,1.92-2.69,1.92h-13.17Z"/><path class="cls-2" d="M1065.77,856.71c-4.16,0-8.31,0-12.47,0-1.36,0-3.33.6-3.28-1.91a2.49,2.49,0,0,1,2.48-2.56,179.72,179.72,0,0,1,26.86-.07c1.56.1,2.23,1,2.23,2.6,0,2-1.39,1.9-2.69,1.91-4.38,0-8.75,0-13.13,0Z"/><path class="cls-2" d="M1107.2,856.77c-4.15,0-8.3,0-12.45,0-1.32,0-2.74.07-2.73-1.87a2.36,2.36,0,0,1,2.29-2.62c8.93-.95,17.88-.61,26.83-.21a2.39,2.39,0,0,1,2.48,2.52c0,2.37-1.87,2-3.3,2-4.37.06-8.75,0-13.12,0Z"/><path class="cls-2" d="M964.89,855.29c.23-1.92,1.52-2.94,3.12-3.7,8.07.12,16.14.19,24.21.39,1.84,0,4.43-.4,4.59,2.39.18,3.29-2.66,2.19-4.33,2.22-8.09.14-16.18.1-24.27.12C966.9,856.71,965.54,856.83,964.89,855.29Z"/><path class="cls-2" d="M828,856.57c-9.38,0-18.75.12-28.13.1-1.33,0-3.34.68-3.38-1.81,0-2,1.41-2.6,3-2.7a166.39,166.39,0,0,1,26.13.09c3,.28,2.51,2.38,2.32,4.34Z"/><path class="cls-2" d="M1208.37,854.5c0,2.37-1.68,2.11-3.16,2.12-4.15,0-8.3,0-12.45,0v0c-4.16,0-8.31.05-12.46,0-1.36,0-3.35.65-3.55-1.71-.17-2,1.32-2.62,3-2.74a190.9,190.9,0,0,1,26.2,0C1207.3,852.24,1208.37,852.72,1208.37,854.5Z"/><path class="cls-2" d="M1409.6,704.18a103.75,103.75,0,0,1-9.23,24.15,2.4,2.4,0,0,1-3.31,1.24c-1.15-.62-1-1.89-.71-2.93a177.13,177.13,0,0,1,8.17-24.14c.56-1.36,1.42-3,3.32-2.47S1409.34,702.43,1409.6,704.18Z"/><path class="cls-2" d="M642.16,856.77c-3.94,0-7.89,0-11.83,0-1.46,0-3.38.52-3.53-1.76a2.64,2.64,0,0,1,2.82-3c8.76,0,17.53,0,26.28.06a2.35,2.35,0,0,1,2.26,2.73c-.09,1.8-1.47,1.85-2.84,1.84-4.39,0-8.77,0-13.16,0Z"/><path class="cls-2" d="M610.29,856.61c-6.94-1.15-14-2.34-20.7-5.07-1.86-.77-4-1.7-3.12-4.14s3.31-1.66,5-1c6.32,2.41,12.65,4.62,19.47,5.14,2.09.16,5.09.12,4.83,3.06C615.47,857.81,612.38,856.21,610.29,856.61Z"/><path class="cls-2" d="M1276.91,856.74c-4,0-7.91,0-11.87,0-1.38,0-3.37.61-3.37-1.89,0-2,1.53-2.65,3.13-2.68,8.56-.16,17.12-.23,25.69-.26,2,0,2.62,1.33,2.5,3.11-.12,2-1.64,1.67-2.9,1.68-4.39,0-8.79,0-13.18,0Z"/><path class="cls-2" d="M1309.09,856.6c-2.41,0-4.66.35-5-1.88s1.9-2.8,3.6-3a79.54,79.54,0,0,0,20.87-5.31c1.67-.65,4.08-1.7,5.06.77s-1.05,3.39-3,4.21C1323.53,854.43,1316,855.51,1309.09,856.6Z"/></g><g id="Capa_3" data-name="Capa 3"><path d="M798.38,459V570H778.56V499.24l-19.51,14.91-16.18,12.53-16.18-12.53-19.51-14.91V570H687.35V459l19.83,15.23,35.69,27.44,35.69-27.44Z"/><path d="M852.31,495.91v75.5H832.48V493.85A15.8,15.8,0,0,0,819,480.37h-4.45V460.7h4.29v.16a35.35,35.35,0,0,1,29.5,19.82,42.36,42.36,0,0,1,2.7,7.46,33.47,33.47,0,0,1,1,8.09Z"/><path d="M978.4,550.47V570.3H867.69V537.63a31.66,31.66,0,0,1,2.69-12.85,32.6,32.6,0,0,1,28.87-20h48.06a13,13,0,0,0-1.11-25.85H868V459.11H946.2a32.63,32.63,0,0,1,32.68,32.68,32.45,32.45,0,0,1-9.36,22.68,32.94,32.94,0,0,1-22.37,10h-47.9a12.92,12.92,0,0,0-11.58,12.85v12.85Z"/><path d="M1102.91,524.94a31.61,31.61,0,0,1,2.69,12.84,32.63,32.63,0,0,1-32.67,32.68h-78.2V550.63h78.2a12.93,12.93,0,0,0,12.85-13,12.77,12.77,0,0,0-11.42-12.85H994.73V459.43h101.68v19.83h-81.85V505h59.64a32.17,32.17,0,0,1,28.87,19.83Z"/><path d="M1230.11,478.94a34.27,34.27,0,0,1,2.54,12.85v45.52a32.69,32.69,0,0,1-10.47,24.11,34.1,34.1,0,0,1-7.3,5.23A31.39,31.39,0,0,1,1200,570.3h-69V550.47h69a13.06,13.06,0,0,0,13-13V521.92a32.48,32.48,0,0,1-12.37,2.54h-46.79a32.76,32.76,0,0,1,.47-65.51h45.52a32.58,32.58,0,0,1,30.14,20Zm-88.67,12.85a13.05,13.05,0,0,0,12.38,13h46.79a13,13,0,0,0-.64-26h-45.52A13.07,13.07,0,0,0,1141.44,491.79Z"/></g></g></svg>