<svg xmlns="http://www.w3.org/2000/svg" viewBox="0 0 1920 1080"><defs><style>.cls-1{fill:#f2f2f2;}.cls-2{fill:#010101;}</style></defs><g id="Capa_2" data-name="Capa 2"><g id="Capa_1-2" data-name="Capa 1"><path class="cls-1" d="M1575.32,632.46c0,18.37-5.47,23.75-23.72,23.83q-67.8.29-135.59.39c-19.74,2.12-38.37,7.33-55.13,18.51-20.5,13.69-34.54,32.44-44.37,54.68-6.44,17.34-7.89,35.63-10.63,53.73-3.77,24.87-16.39,38.3-40.84,43.38-39.39,8.14-78.9,15.76-118.37,23.6-35.66,7.29-71.35,14.5-107,21.95-5.18,1.08-8.37.37-8.4-5.53,0-3.19-2.43-4.92-3.79-7.3l-81-.61c-15.78.14-31.56.44-47.32.29-6.34-.07-10.6,1.44-10.57,8.62,0,5.75-3.49,5.33-7.44,4.5q-28.49-5.91-57-11.76L726,840.89c-27-4.9-54.2-9.06-80.58-16.85-14.34-4.24-23.77-14.3-28-28.89-3.8-8.33-4.48-17.22-5.16-26.18-1.12-14.35-5.16-28.07-9.84-41.61-8.09-15.2-16.44-30.22-29.74-41.74-19.37-16.76-41.43-27-67.28-28.23a49.05,49.05,0,0,1-6.62-1.15c-45.48,0-91,0-136.45-.1-9.77,0-16.76-7-17.59-17-.37-4.48-.19-9-.19-13.54q0-87.32,0-174.59c0-30.87,9.85-44.5,38.13-57.2,78.11-35.09,159-61.64,242.44-80.67,9.06-2.07,16.64-6.69,24-11.95C709.14,258.41,774.7,228.18,847,213c11.59-2.42,23.26-4.32,34.78-7,5.17-1.21,7.12.44,6.63,5.21-.93,9.29,3.6,11.5,12.08,11.21,16.37-.56,32.79.19,49.16-.46,6.76-.25,8.33,2.19,7.81,8.1-.24,2.93-1,6.15,1.58,9.06,3.68-2.58,2.74-6.37,2.35-9.28-.88-6.77,2-7.93,8.08-7.77,16.66.39,33.34-.12,50,.28,8.15.21,13.3-1.56,12.49-11.07-.39-4.57,1.31-6.35,6.62-5.37,52,9.52,102.58,23.38,150.34,46.51a516,516,0,0,1,81,48.8c11.91,8.74,25.23,12.32,38.89,15.43,79.9,18.11,156.7,45.23,231.4,78.63,23.69,10.57,35.54,27.65,35.32,54.1C1575,510.41,1575.42,571.43,1575.32,632.46Z"/><path class="cls-2" d="M1707.9,466.76c0-3.72-13.61-3.38-13.61-3.38a42.43,42.43,0,0,0-8.45-.42c-19.49,0-39,.12-58.49,0-14.83-.12-19.19-4.42-19.39-19.24-.26-17.53-.39-35.05-.09-52.56s-7.46-30.28-22.88-37.27c-39.53-17.92-79.88-33.88-120.29-49.63-5.19-2-10.11-1.34-13.86,3.11-2.66,3.15-5.38,2.93-9,1.78q-42.33-13.38-84.74-26.33c-4.13-1.26-7-3.17-8.1-7.53-1.51-6.18-5.71-9.25-11.8-10.62-25.3-5.65-50.66-11.12-75.8-17.36-19.68-4.87-40.75-4.87-59.08-14-54.81-27.43-113-43.24-173.23-52.69-11.25-1.78-16.78,1.8-17.85,13.2-.42,4.34-1.93,4.95-5.61,4.92-12.72-.17-25.45-.31-38.16.08l-15.82-.05q-18.23-.51-36.46.09c-4.8.13-5.91-1.43-6.38-6.08-1-9.77-4.51-12.75-14.62-12.3l-36,5.71c-13.84,3.25-27.7,6.43-41.51,9.8A381.4,381.4,0,0,0,732,227.19c-23.14,11.95-48.48,14.25-73,20.11-25.48,6-51.1,11.63-76.66,17.42-5.67,1.27-10.15,4.41-11.56,10-1.25,5-4.31,6.82-8.58,8.13-28,8.62-56,17.2-83.95,26.06-4,1.27-6.66,1.22-9.65-2.07-3.77-4.21-8.57-4.65-13.91-2.45-39.6,16.34-79.38,32.27-118.82,48.95-15.73,6.66-23.62,19.51-23.64,36.81,0,17.8.14,35.59-.1,53.37-.19,14.7-4.65,19.06-19.39,19.26-15.25.22-30.5.12-45.75.22-10.34.05-20.84-1.29-30.46,3.92-6.43,6.8-5.29,28.3-5.29,28.3,0,16.39-.25,32.77,0,49.16.24,15.71,6.72,21.84,22.43,22,4.53,0,9.06.12,13.57-.12,3.39-.15,5.38.6,5.33,4.53-.39,25.13.88,50.25-.65,75.36-.9,9.35,3.92,11.47,12.22,10.35,7.94-1.08,16.08,1.1,24-1.12,0-27.38.21-54.76-.07-82.14,0-5.52,1.18-7.32,6.93-7,14.55.85,23.34,17.68,15.2,30.54a19.76,19.76,0,0,0-3,11.08q-.3,27.51-.61,55c.17,6.44.32,12.91.56,19.35.39,11.1,6.84,17.65,18,17.89,11,.23,22,.49,32.9-.09,9.09-.49,15.71,2.53,20.63,10.13,3.19,4.9,6.9,9.48,10.38,14.2,6.57,7.07,12.79,14.49,19.82,21.09,4.24,4,3.8,6.49.12,10.23-5.33,5.37-10.06,11.33-15.36,16.72-3.8,3.87-3.51,7.18.15,10.69q37.54,32.68,75.11,65.3c8.46,7.31,8.69,7.18,16.23-1.34,6.33-7.16,12.78-14.27,18.67-21.8,3.12-4,5.44-4.17,9.72-1.59,19.49,11.77,39.29,23.05,58.83,34.77a76,76,0,0,0,20,8.57c25.94.19,51.9.48,77.84.46,4.14,0,6.43,0,7.24,5.28,1,6.56,5.28,10.46,12.86,11,29,1.91,57.9,4.32,86.85,6.58,2.8.22,5.68-.14,8.26,1.37,12.89-.49,25.39,2.46,38,4.53l69.35,3.14c9.27.15,14.85-2.39,16-11.72.46-4,2.43-4.26,5.62-4.23,13,.19,25.94.17,38.9.22l12-.32c13.24.26,26.47.19,39.7,0,4-.07,5.65.88,6.53,5.31,2,10,5.89,12.17,16.32,11.11,2.23-.22,4.48-.25,6.7-.37l111.69-8.74c28.11-2.37,56.22-4.82,84.35-7.07,6.58-.54,10.89-3.58,11.45-10.15.47-5.71,3.19-6.51,8.28-6.46,24.29.22,48.57.12,72.86-.14,8-.08,15.44-2.81,22.33-7,41-25.33,84.52-46.67,122.91-76.21,20.61-15.86,40.17-32.9,56.36-53.48,1.7-2.17,4.07-3.83,6.12-5.75a4.88,4.88,0,0,1,.31-.78c17.47-23.37,17.47-23.37,46.7-23.32,5.35,0,10.69.1,16-.09,12.72-.41,19.35-7.51,19.27-20.36,0-3.92.15-7.83.25-11.75,0-2.8-.05-5.6-.07-8.38,0-1.18,0-2.33,0-3.48-.12-12.71-.13-25.42-.42-38.12-.17-7.94.08-15.39-4.08-23.41-7.21-13.88,2.92-28.4,17.7-28.42,4.12,0,5.34,1.27,5.31,5.26-.25,26-.32,52-.44,77.94.1,5.49,2.48,7.77,8.33,7.22a133.77,133.77,0,0,1,21.09-.18c5.54.37,7.63-2,7.85-7q-.26-36-.49-72c-.05-11.1,0-11.1,11-11.06h5.94c17.4-.07,23.9-6.4,23.82-24.13C1708.78,517,1707.9,491.9,1707.9,466.76ZM1256.81,260.17c24.25,5.06,48.32,10.94,72.48,16.37,4.49,1,7.75,2.67,8.4,7.81s4.15,7.55,8.88,9q47.23,14.48,94.38,29.18c6.4,2,12.64,3.36,17.41-3.45,1.88-2.68,4.29-1.52,6.78-.47Q1519,340.89,1572.92,363c13,5.31,22.13,12.87,21.63,28.67-.22,6.65-1.08,7.67-7.22,4.82-31.37-14.64-63.3-28.05-95.47-40.87-59.42-23.69-120-43.82-182.22-58.89a93.83,93.83,0,0,1-14.35-4.92c-20-8.4-36.36-22.88-58.23-32.5C1245.58,256.35,1251.38,259.05,1256.81,260.17ZM967.05,211.92c14.11-.06,28.24.09,42.38,0,10.5-.05,14.18-3.21,14.86-13.49.29-4.36,1.63-5,5.7-4.32,30.55,5.21,61.19,10.36,90.58,20.3,36,12.18,70.59,27.73,104.4,45.47,23.78,12.47,44.89,29.6,70.08,39.36,18.93,7.33,39.06,10.47,58.53,15.91C1420.88,334,1485.89,359,1549.8,387c2.56,1.12,5.38,2.07,5.14,7.16-13.33-5.63-26-10.77-38.54-16.28-68.54-30.2-139.71-52.34-212.59-69.22-11.74-2.73-22.08-8-31.88-14.93-69.52-49.23-146.63-79.84-230.63-93.45-12.75-2.07-14.57-.89-15.91,11.1-.36,3.19-1.46,4.51-4.63,4.5-19.21-.19-38.41-.31-57.6-.5-.4,0-.81-.66-1.27-1.07C962.3,210.63,965.15,211.94,967.05,211.92Zm-8,27.22c3.68-2.58,2.74-6.37,2.35-9.28-.88-6.77,2-7.93,8.08-7.77,16.66.39,33.34-.12,50,.28,8.15.21,13.3-1.56,12.49-11.07-.39-4.57,1.31-6.35,6.62-5.37,52,9.52,102.58,23.38,150.34,46.51a516,516,0,0,1,81,48.8c11.91,8.74,25.23,12.32,38.89,15.43,79.9,18.11,156.7,45.23,231.4,78.63,23.69,10.57,35.54,27.65,35.32,54.1-.54,61-.13,122-.23,183.06,0,18.37-5.47,23.75-23.72,23.83q-67.8.29-135.59.39c-19.74,2.12-38.37,7.33-55.13,18.51-20.5,13.69-34.54,32.44-44.37,54.68-6.44,17.34-7.89,35.63-10.63,53.73-3.77,24.87-16.39,38.3-40.84,43.38-39.39,8.14-78.9,15.76-118.37,23.6-35.66,7.29-71.35,14.5-107,21.95-5.18,1.08-8.37.37-8.4-5.53,0-3.19-2.43-4.92-3.79-7.3l-81-.61c-15.78.14-31.56.44-47.32.29-6.34-.07-10.6,1.44-10.57,8.62,0,5.75-3.49,5.33-7.44,4.5q-28.49-5.91-57-11.76L726,840.89c-27-4.9-54.2-9.06-80.58-16.85-14.34-4.24-23.77-14.3-28-28.89-3.8-8.33-4.48-17.22-5.16-26.18-1.12-14.35-5.16-28.07-9.84-41.61-8.09-15.2-16.44-30.22-29.74-41.74-19.37-16.76-41.43-27-67.28-28.23a49.05,49.05,0,0,1-6.62-1.15c-45.48,0-91,0-136.45-.1-9.77,0-16.76-7-17.59-17-.37-4.48-.19-9-.19-13.54q0-87.32,0-174.59c0-30.87,9.85-44.5,38.13-57.2,78.11-35.09,159-61.64,242.44-80.67,9.06-2.07,16.64-6.69,24-11.95C709.14,258.41,774.7,228.18,847,213c11.59-2.42,23.26-4.32,34.78-7,5.17-1.21,7.12.44,6.63,5.21-.93,9.29,3.6,11.5,12.08,11.21,16.37-.56,32.79.19,49.16-.46,6.76-.25,8.33,2.19,7.81,8.1C957.19,233,956.39,236.23,959,239.14ZM345.75,363.64c36.14-15.1,72.44-29.79,108.65-44.73,3.1-1.29,5.66-2,8.21,1.12,4.27,5.19,9.9,4.64,15.54,2.9,31.47-9.78,62.89-19.68,94.39-29.34,5.41-1.66,9-4.46,10-10.12.65-3.87,3-5.72,6.64-6.57q45.17-10.31,90.32-20.7a11.63,11.63,0,0,1,3.15.12,5.64,5.64,0,0,1-3.12,4.12c-31.09,18.78-62.24,36-98.6,44.66-85.74,20.44-166.87,54.47-247,90.76-2.26,1-4.57,2-7.72,3.32C324.27,378.57,328.26,371,345.75,363.64Zm-72,286.05c-14.49-.52-14.44-.13-14.39-14.47.05-22.31,0-44.6,0-66.91,0-24.84.19-49.69-.15-74.53-.1-6.12,1.83-7.45,7.65-7.26,14.71.49,14.69.19,14.67,14.59-.05,46.86-.2,93.72,0,140.59C281.6,647.89,280.35,650,273.77,649.69Zm228.4,166.84c-7.5,8.36-14.74,17-22,25.55-2,2.37-3.45,4-6.67,1.07-17.68-16-35.56-31.83-53.39-47.71a4,4,0,0,1-.8-.27c-22.9-15.58-22.87-15.54-4.59-35.65,6.63-7.27,13-14.79,19.4-22.25,2.41-2.82,4.18-4.77,8.06-1.26,18.78,16.93,37.82,33.57,56.77,50.32a6.11,6.11,0,0,1,1.47.73C516.32,800.89,516.23,800.82,502.17,816.53Zm4-33.73c-7.88-6.84-15.65-13.81-23.45-20.73q-18.27-15.71-36.58-31.37c-2.39-2-2.93-4-.54-6.34,9.48-9.22,17-20.35,28.25-27.83,27.07-18,66.65-3.63,74.61,27.21,7.41,21.86-.29,39.89-14.18,56.38C521.12,795.73,521.1,795.78,506.16,782.8ZM952,870.48c-13.81-.11-27.64-.17-41.47-.33-4.63,0-9,.33-11.87,4.69-1.73,10.23-8.15,11.7-17.32,10.38-12.69-1.83-25.54-2.51-38.31-3.7l-6.82-.25-98.55-7.21c-13.2-1-26.38-2.14-39.6-2.84-4.85-.25-7.68-.83-7.82-6.92C690,856.68,684.44,854,677.37,854c-14.91-.14-29.83-.34-44.74-.51-22.36,1.75-43.92,1.54-63.69-12.38C553.84,830.42,537.2,822,521,812.9c-3.59-2-3.78-3.28-1.22-6.08,6.62-7.19,13.13-14.52,19.68-21.8,14.88-16.44,21.21-35.62,18.6-57.7-5.84-17.05-14.8-31.64-31.76-39.75-24.38-11.65-50.8-6-70.76,15.38-9.83,10.51-19.24,21.44-28.52,32.45-3.67,4.36-5.7,4.43-9.66,0-10.11-11.44-20.44-22.69-29.28-35.12-6.46-9.13-15.1-13.23-25.9-13.46-12.13-.23-24.28-.32-36.41-.45-7.48.79-4.62-4.64-4.92-8.16a43.93,43.93,0,0,1,0-13.59q-.25-26.7-.47-53.38c0-1.66-.17-3.91.78-4.9,8.19-8.48,4.68-18.9,4-28.23C324.05,562.71,311.92,553,295.26,553c-6.07,0-7.43-1.76-7.29-7.6.42-18.91,0-37.86.37-56.78.14-6.82-2.43-9.07-8.91-8.74-6.75.36-13.55.28-20.34,0-5-.2-6.82,1.53-6.73,6.81.34,19.2,0,38.42.32,57.63.12,6.22-.93,8.92-8.2,8.74-20-.55-20-.16-20.06-20.11,0-15.83.33-31.64.18-47.47-.08-6.65,1.9-9.41,9.2-9.23,19.78.5,39.56.19,59.34.17,21,0,32.34-11.21,32.54-32.42.09-10.45-.05-20.91-.19-31.37,0-2.91-.13-5.53,3.24-6.93,16.1-6.72,31.39-15.26,47.93-21,33.83-16,68.81-29.26,103.93-42.12a1155.1,1155.1,0,0,1,132.65-39.39A85.8,85.8,0,0,0,641.89,291c42.6-29,88.8-50.86,136.52-69.54,31.32-12.26,64.27-19.05,97.38-24.7,2.5-.42,5-1.29,7.47-1.44,5.9-.34,13.81-5.11,12.48,8.13-.52,5.21,7,8.56,13.61,8.48q20.76-.25,41.53,0c2,0,5.94-2.08,6,1.94,0,3.09-3.59,1.69-5.54,1.71-16.68.12-33.34-.05-50,.21-4.61.06-6.49-1.46-6.95-6.06-1-9.86-3-11.52-12.66-9.94A612.11,612.11,0,0,0,777,226.19c-27.55,9.7-53.71,22.45-79.52,35.88a268.31,268.31,0,0,0-37.57,23.69,145.74,145.74,0,0,1-57,26.22c-75.56,16.93-148.14,42.91-218.9,74.11-2.3,1-4.76,1.66-7.16,2.46-15,7.24-28.21,16.33-34.74,32.57-2.43,6-4.19,12.28-4.19,18.81q0,102.72.2,205.38c5.72,13.12,15.39,18.29,30,18.17,47.06-.39,94.26-3,141.15,1.36,39.85,3.68,67.81,26.13,84.47,62.5,9.69,17.53,10.94,36.95,12.69,56.27,1.15,4.33,2.09,8.74,3.49,13,7,21.28,22.19,33.1,43.79,37.45,16.8,3.37,33.54,6.92,50.32,10.38,35.88,7,71.8,13.89,107.66,21,22.65,4.49,45.2,9.43,67.81,14,5.56,1.12,11.37,1.93,14.67-4.61.33-7.54,4.55-9.05,11.51-8.81,15.49.53,31,.14,46.53.15,1.77,0,4.55-1.2,4.74,1.67C957.12,871.26,954.14,870.49,952,870.48Zm709.77-369q-.08,33.47,0,66.93h-.12c0,24.87-.17,49.72.14,74.57.06,5.26-1.34,6.69-6.57,6.72-16.86.09-16.83.31-16.81-16.67,0-46.05.17-92.09-.1-138.13,0-6.76,1.91-8.67,8.6-8.5C1661.82,486.84,1661.77,486.5,1661.74,501.52ZM1695.63,541c-.08,11-.86,11.66-11.36,11.91-16.44.37-16.43.37-16.39-16.28,0-16.39-.09-32.78.15-49.15.07-5.47-2-7.72-7.43-7.47s-10.74,0-16.1,0c-12.79,0-12.79,0-12.81,13.25,0,17.5-.15,35,.12,52.54.09,5.07-.58,7.24-6.62,7.36-20.22.42-30.86,11.82-30.86,32.27,0,7.19-1.39,14.77,4.3,21,.95,1,.88,3.22.88,4.86-.09,13.85-.26,27.67-.39,41.52.1,9,.12,18,.35,27,.12,5-2,7.06-7.09,7-11.28-.17-22.56,0-33.84.07-11.52.05-20.45,4.58-27.3,14.15-6.36,8.87-13.11,17.54-21,25.16-26.25,30.21-57.36,54.49-91.68,74.82-23.28,13.77-46.81,27.12-69.76,41.42-13.41,8.35-27.2,12.54-43.1,11.93-20.27-.78-40.61-.25-60.92-.17-11.87,0-13,.78-14.82,12.25-.84,5.34-4.58,4.24-7.55,4.48-24.74,2-49.47,3.88-74.23,5.75-6.17.46-12.35.78-18.52,1.17q-43.83,3.59-87.63,7.21c-2.81.24-5.77,0-8.4.83-6,1.89-9.19.66-10.41-6.14-1.12-6.26-5.67-9.23-12.28-9.13-13.83.21-27.64.21-41.47.12-2.59,0-7,1.19-7.19-2.19-.2-4.32,4.31-2.13,6.6-2.17,16.35-.25,32.72,0,49.08-.39,4.48-.08,6.45,1,7.26,5.62,1.37,7.8,6.79,9.4,13.93,7.94q52.44-10.77,104.93-21.34a12.39,12.39,0,0,1,2.51,0q50.74-10.3,101.5-20.59c6.6-1.34,13.3-2.36,19.83-4,29.06-7.16,44.6-27,46.57-58.53,1-16.57,3.53-32.87,11.74-47.74,16.78-36.27,44.54-58.83,84.54-62.5,47.21-4.34,94.68-1.42,142-1.47,14.15,0,23.8-5,29-18.2.15-26,.41-51.95.46-77.93.07-39.83-.31-79.66.12-119.5.22-21.32-6.86-38.54-24.54-51-.57-.41-.86-1.22-1.71-2.46a11,11,0,0,1,9.76,0c9,4.07,20.19,6.07,26.28,12.77,6.39,7,1.27,18.85,2.17,28.54.47,5.05.15,10.19.83,15.2,2.24,16.44,12.76,25.55,29.3,25.6,20.9.05,41.82.23,62.72-.12,6.73-.12,8.8,2.05,8.67,8.72C1695.45,503.67,1695.77,522.32,1695.63,541Z"/><path class="cls-2" d="M441.59,592.73c-.1,14.61-11.66,25.93-26.51,26-14,0-25.05-11.55-25-26.3,0-14.49,11.13-25.81,25.44-25.92C430.31,566.37,441.7,577.83,441.59,592.73Zm-44.9-.45c-.08,10.05,8.59,19.21,18.46,19.5,10.18.31,19.72-9,19.73-19.19,0-9.79-9.09-19.27-18.71-19.51A19.21,19.21,0,0,0,396.69,592.28Z"/><path class="cls-2" d="M1503.33,618.69c-13.3,2.09-25.45-14.1-25.09-26.48a26.5,26.5,0,0,1,26.11-25.76c13.57-.19,25,11.42,25.78,25.11C1531.06,607.28,1516.83,619.31,1503.33,618.69Zm20-26c0-10.65-8.94-19.63-19.32-19.47-10,.15-18.76,9-18.85,19.12-.1,10,8.75,19.24,18.58,19.46A19.33,19.33,0,0,0,1523.28,592.66Z"/><path class="cls-2" d="M525.43,729.87c2.33,19-4.38,30.22-20.11,34-7.72,1.88-14.25-.87-20.66-4.53-5-5.7-9.84-11.32-9.88-19.75-.06-13,6.22-22.39,18.39-26.09,11.45-3.48,23.17,1.24,29.75,12C523.8,727,524.59,728.42,525.43,729.87Zm-25.5-10.65c-10.14,0-18.57,8.53-18.67,18.89a19.58,19.58,0,0,0,19.12,19.55c10,.12,19.44-9.39,19.33-19.48S510.34,719.23,499.93,719.22Z"/><rect class="cls-1" width="1" height="1"/><rect class="cls-1" x="1919" y="1079" width="1" height="1"/><rect class="cls-1" y="1079" width="1" height="1"/><rect class="cls-1" x="1919" width="1" height="1"/></g><g id="Capa_3" data-name="Capa 3"><path d="M793.38,460.73v111H773.56V501l-19.51,14.91-16.18,12.54-16.18-12.54L702.18,501v70.75H682.35v-111L702.18,476l35.69,27.44L773.56,476Z"/><path d="M847.31,497.68v75.5H827.48V495.62A15.8,15.8,0,0,0,814,482.14h-4.45V462.47h4.29v.16a35.55,35.55,0,0,1,13.48,3.65,35.17,35.17,0,0,1,16,16.18,42.26,42.26,0,0,1,2.7,7.45,33.53,33.53,0,0,1,1,8.09Z"/><path d="M973.4,552.25v19.82H862.69V539.4a31.69,31.69,0,0,1,2.69-12.85,32.57,32.57,0,0,1,28.87-20h48.06a13,13,0,0,0-1.11-25.86H863V460.88H941.2a32.63,32.63,0,0,1,32.68,32.68,32.4,32.4,0,0,1-9.36,22.68,32.89,32.89,0,0,1-22.37,10h-47.9a12.92,12.92,0,0,0-11.58,12.85v12.85Z"/><path d="M1091.25,515.77a32.75,32.75,0,0,1-23.48,55.51h-45.52a32.59,32.59,0,0,1-30.14-20,34.5,34.5,0,0,1-2.54-12.85V492.92a32.16,32.16,0,0,1,8.25-21.41,33.65,33.65,0,0,1,9.52-7.45,31.42,31.42,0,0,1,14.91-3.65h69v19.83h-69a13.06,13.06,0,0,0-13,13v15.55a32.48,32.48,0,0,1,12.37-2.54h46.8a32.77,32.77,0,0,1,23,10Zm-23.64,35.68a13.06,13.06,0,0,0,13-13,12.92,12.92,0,0,0-12.21-13h-46.8a13,13,0,0,0,.64,26h45.36Z"/><path d="M1227.49,494.35a32.65,32.65,0,0,1-9.2,22.84,32.76,32.76,0,0,1-23.48,55.52h-78.19V552.88h78.19a13.07,13.07,0,0,0,13-13,12.92,12.92,0,0,0-12.21-13h-59V507h59a13,13,0,0,0-.64-26h-78.19V461.2H1195a32.63,32.63,0,0,1,32.68,32.68Z"/></g></g></svg>