<svg xmlns="http://www.w3.org/2000/svg" viewBox="0 0 1920 1080"><defs><style>.cls-1{fill:#f2f2f2;}.cls-2{fill:#010101;}</style></defs><g id="Capa_2" data-name="Capa 2"><g id="Capa_1-2" data-name="Capa 1"><rect class="cls-1" width="1" height="1"/><rect class="cls-1" x="1919" y="1079" width="1" height="1"/><rect class="cls-1" y="1079" width="1" height="1"/><rect class="cls-1" x="1919" width="1" height="1"/></g><g id="Capa_3" data-name="Capa 3"><path class="cls-1" d="M1739.17,344.61c-.56-15-11.24-25.62-26.4-26.76-5.44-.41-10.93-.21-16.4-.21-105.82,0-189.41,0-295.23-.09a48,48,0,0,1-10.53-.73c-25.57-5.9-51.23-11.36-77.08-15.95-48-8.52-96-16.67-144.65-20.53l-27.26-2.7c-23.6.08-44.77-7-63.41-21.53-2.52-2-5.32-3.56-8-5.31-1.54-1-3.57-3.23-5-1.73-9.43,10.13-21.59,6-32.81,6.75-1.63.11-4.1.06-4.15,1.58-.32,10.84-3.78,22.8,1.48,32.11a42.2,42.2,0,0,1,5.62,18.56q2.09,27.87,4,55.76l7.65-12.38c-.73-1.83.8-3.89,1.84-5.84,5-9.31,9.84-18.69,14.74-28.05,1.25-2.37,2.64-4.57,5.87-3.53a2.93,2.93,0,0,1,1.18.71l10.88-13.94c-1.59-2.19.09-4.35,1.82-5.62,11.37-8.38,23.73-13.91,40.24-13.47a18.19,18.19,0,0,1-1.43,1.71l15.59,1.55a8.08,8.08,0,0,1,.12-2.07c11.06-1.86,21.87,1.23,32.82,1.55,3.38,2.56,11.41.69,11.52,5.44l18.46,3c0-.09,0-.17,0-.27.34-2.93,3-3.24,5.17-2.95,11,1.45,22.08,3,33.1,4.67,2.78.41,5.14,2.13,4.9,5,0,.18,0,.33-.07.49l16.8,2.69a4.26,4.26,0,0,1-.1-1.19c.2-2.79,2.85-2.94,7.56-2.63,9.28,1.83,20.88,4.08,32.45,6.45,2.47.5,4.84,1.71,4.49,4.49l16.29,2.61a4.79,4.79,0,0,1,.07-.51c.77-3.58,4.92-1.9,7.43-1.58,8.6,1.07,17.11,2.82,25.71,3.89,5.79.72,9.78,2.72,11.67,6.51l15.72,4.06c0-.09,0-.19.06-.29.94-2.91,3.82-1.22,5.87-1.52a228.5,228.5,0,0,1,33.63,7.4c2.07.62,4.86.88,4.55,3.91a3.33,3.33,0,0,1-.63,1.75l16.55,4.28a4.05,4.05,0,0,1,0-.7c.16-2.86,3.18-2.39,5.39-2.34,11.21,2.3,22.55,4.17,33,9.31,3,1.47,6.31,3.13,4.78,7a4.78,4.78,0,0,1-.33.68l15.54,9.22c4.87-2.83,7.91,6.19,11.5,10.23a54.84,54.84,0,0,1,4.15,6.09c2.07,5,4.46,9.89,6.1,15,.79,2.49,1.79,6.23-1.61,7.62-.14.06-.27.09-.41.14v16.37a2.23,2.23,0,0,1,.58.17c3,1.33,2.09,4.24,2.24,6-1.25,13.45-7,24.47-13,35.37-.7,1.26-1.85,2.78-3.66,2.13l-6.55,14.93c1.75,3.31.23,6.63-1,9.72-3.43,8.61-7.19,17.09-10.84,25.62-1.27,3-2.88,6.55-6.17,5.69l-7,15.83c2.14,1,1.34,3.48,1.51,7.08-4.37,9.78-9.35,21.14-14.56,32.39a3.57,3.57,0,0,1-4.91,1.65l-.08,0-6.77,15.42a5.26,5.26,0,0,1,.57,1.37c.81,3.4-13.12,36.79-15.92,38.45a14.71,14.71,0,0,1-2.41,1l-.13,0-7,16c1.08,1.12,1.19,2.92,1,5.56-4,10.86-8.38,22.89-14.64,34.11-.94,1.7-2.89,2-4.72,1.43l-7.2,15.12c3.66,2.48-1.37,7.81-1,11.73-3.74,8.1-7.41,16.24-11.26,24.28-1.19,2.48-2.35,6.06-6.14,4.44a4.66,4.66,0,0,1-.67-.35l-8,16.9c8.32-2.05,2.88,5.07,2,7.84-3.3,10.08-9.42,18.72-15.25,27.47-2.51,2.09-5.09,3.92-8.58,2.23,0-.15,0-.32,0-.48L1337.57,808a6.18,6.18,0,0,1,1,.31c-7.94,13.92-22.1,18.11-35.91,22.75-1.53.51-4,.73-4.69-1.89-.05-.19-.08-.38-.11-.55l-16.94,2.08a5.12,5.12,0,0,1,.07,1.65c-.42,3.91-3.88,2.39-6.12,2.55-3.5.26-7,.07-11.7.07a78,78,0,0,1-20.7-2.05c-3.37-.76-6.65-2.77-6.05-6.18l-16.74-2.62c-1.11,4.25-5.39.55-7.72,1.68-10.77-1.62-21.23-3-31.6-4.88-2.16-.38-5.3-.93-5.65-3.61L1158,815c-1.23,2.06-4.23,1.2-6.36.95-11.1-1.3-22.17-2.79-33.25-4.23-2.56-.33-3.56-1.43-3.84-2.88l-17.19-2.44c-.35,2-2.36,2.81-5.35,2.46-11.72-1.36-23.39-3.13-35.08-4.74-2.28-.31-3.87-1.38-4-3.58l-16-.69c-.52,3.36-3.93,2.13-6.28,2.33a23.11,23.11,0,0,1-3.53,0L998,800.24c-2.43-.16-5.55.44-6.3-2.35l-16.25-.69c-.7,5.81-8.12,1.46-11.33,3.48-5.09-.18-10.17-.34-15.26-.53-2.08-.07-3.86-.6-4-3.13,0-.11,0-.21,0-.31l-15.84.7a1.73,1.73,0,0,0,.05.45c-3.09,3.77-7.73,1.51-11.42,2.94-11.42.77-22.82,2-34.3,1.15,0-.86-.07-1.7,0-2.51l-14.44.64,0,.08c-1.11,1.47-1.7,3.46-4,3.74-12.28,1.54-24.54,3.17-36.83,4.58-2,.23-5,.88-5.37-2.26a3.41,3.41,0,0,1,0-.55l-16.6,2.53c-.2,3.44-3.55,3.21-6.17,3.59l-29.84,4.36c-2.86-.72-6.7,1.48-8-1.24l-16.51,2.51c-.46,1.88-2.4,2.47-4.19,2.78-12.27,2.13-24.56,4.08-36.83,6.2-2.34.41-3.27-.56-3.59-2.31l-17,2.11c.88,2.68-.85,4.2-3.17,4.93A81.45,81.45,0,0,1,654.42,835c-3.8,0-6.67.07-9.54,0-2.39-.08-5.46.72-5.32-3.4,0-.27,0-.52.07-.76l-17-1.05c-.79,1.54-2.81,1.24-4.43,1.32-9.36.42-32-13.66-36-22.41l.08,0L569.3,798.15c-2.09-.07-4.19-.12-6.28-.18-6.71-10.09-13.65-20.06-17.95-31.51-.71-1.89-2.71-4.15-.69-6.1a2.11,2.11,0,0,1,1.64-.66l-6.85-15.56a3.67,3.67,0,0,1-4.32-2,180.78,180.78,0,0,1-14.79-36c-.31-1.12-.25-2.67.85-3.38l-6.25-14.17c-4.12.73-6.43-1.7-8.06-5.56-1.79-4.26-3.78-8.44-5.69-12.66-2-5.34-4.19-10.64-6-16.06-.85-2.54-1.86-5.64,1.49-7.13l-6.82-15.49c-4.1.42-5.5-3.2-7.48-6-3.67-9.48-7.3-19-11-28.41-1-2.55-2.59-5.48.27-7.06l-6.63-15a4.94,4.94,0,0,1-1.24.6c-2.88.94-4.66-1.83-5.72-4.07-4.08-8.61-7.92-17.32-11.85-26-.14-.63-.34-1.24-.42-1.87-.41-3.41-3.75-7.91,1.11-9.78l-7-15.85a3.63,3.63,0,0,1-4.51-1.69c-6.2-11.85-12.1-23.85-14.82-37.07-.16-.77.59-1.73,1.19-2.65l-6.09-15.5a3.4,3.4,0,0,1-1.08.79c-2.52,1.2-3.91-1.44-4.9-3.42-5.38-10.8-11.18-21.47-11.68-34.42.06-1.71-.48-4.43,2.29-5.17a4.76,4.76,0,0,1,.77-.13V402.51l-.43-.1c-3.26-1-2.64-4.29-2.16-6.46,1.24-5.49,3.13-10.83,4.76-16.23,4.53-3.26,5.77-9,9.42-12.84,2.13-2.26,4.61-5.9,7.8-4a5.2,5.2,0,0,1,.62.44L434.9,352c-.11-2.23,1.87-3.69,3.8-4.78,11.09-6.23,23.56-7.7,35.25-10.39,1.93.32,3.95-.47,4.56,1.46h0l15.6-3.66c-.2-1.89,1.16-3.22,3-3.85a193.06,193.06,0,0,1,37.16-8.36c1.61-.22,3.48.22,4.14,1.82l15.66-3.68c1.48-5.24,6.59-5.48,22.79-8.44,5.66-1,11.4-1.76,17.13-2.38,1.68-.18,4.36-1.12,5,1.22a4.28,4.28,0,0,1,.13,1.3l15.84-2.89c-.06-2.16,2.07-3.09,4-3.73,11.54-3.7,23.45-5.61,35.44-7.09,1.89-.23,4.1,0,4.5,2.47a4.22,4.22,0,0,1,0,.49l16.76-2.17s0-.09,0-.14c0-3.08,2.18-4.38,5-4.83q14.63-2.34,29.27-4.65l.06.4a41,41,0,0,1,5.73-.39c1.79.11,4.24,0,4.43,2.52a3.74,3.74,0,0,1-.15,1.35l16.93-2.19c-.86-2.52,1.38-3.71,3.16-4.92a245.32,245.32,0,0,1,38.68-4.43c1.66.61,4,.4,3.77,3.22,0,.08,0,.14,0,.22L799,283.36a1.36,1.36,0,0,1,0-.21,3.49,3.49,0,0,1,2.87-1.8,70.52,70.52,0,0,1,36.06,14.34c.92.71,1.29,2.12,1.77,3a6.29,6.29,0,0,1-1.4,2.45L850,314.25h0a2.81,2.81,0,0,1,4.12.6c7.06,11.27,13.11,23.17,19.41,34.61a8.36,8.36,0,0,1-.79,2.18l8,13.23c1.14-10.77,1.94-21.56,2.46-32.39.59-12.47-.72-26.31,4.33-36.9s3.88-20.7,5.11-31.1c.89-7.51-2.06-9.2-9.11-8.83-8.15.44-17.49,2.86-24-3.38-4.69-4.48-7.17-3-11.11-.2-21,14.68-42.9,26.86-69.7,25.83l-38.7,3.31c-4-1.62-7.41,1.25-11.19,1.62C673.6,288.25,619,298,564.61,309.09c-19.75,4-39.18,8.88-59.8,8.77-104.91-.55-185.69-.24-290.6-.18-20.42,0-31,10.41-31.2,30.77-.11,10.28.22,20.57.35,30.86-.08,18.63-.59,37.27-.1,55.89.38,14.24,10,25,23,25,27.58,0,31.16,2.93,58.56-2.6,6.68-1.35,12.46,0,16.12,5.7,2.94,4.55,6.65,5.22,11.39,5.09,8.36-.22,16.72-.08,25.08-.15,3,0,5.2,1.1,5,4.35-.18,2.9-2.67,3.24-5,3.32-2.57.09-5.16,0-7.72.15-7.88.57-16-1.3-25.29,1.53,8.78,2.68,56.91,2.88,66.64.77-.23-2.2-2-2.19-3.49-2.25-3.12-.12-6.47-.95-6.5-4.31,0-4.13,4-3.14,6.64-3.28,3.26-.16,6.18-.59,9-2.69,19.48-14.59,26.94-13.64,41.21,4.94Q414.43,509,431,547.33c11.2,29.27,23.09,58.26,36.16,86.75A303.86,303.86,0,0,0,485,676.69c11.25,30.32,23.37,60.31,37.44,89.4,7.53,15.56,17.94,29.57,32.16,40.14,31.36,29,68.76,40.26,110.64,35.42,22.22-2.56,44-9,66.19-11.86,72.63-9.27,145.55-15.5,218.76-18l14-.55c97.49,5.1,194.67,11.77,290.93,30.24,41.11,7.88,79.27-6.42,110.86-35.11,29.95-24.06,41.36-58.88,53.93-93,1.87-3.55,4-7,5.58-10.68,14.43-34.55,28.72-69.16,43.13-103.72q25.93-62.24,52-124.42c1.38-2.11,2.72-4.25,4.14-6.33,10-14.59,23.25-16.37,36.39-4.55,3.89,3.5,8,5.17,13,4.68,2.67-.26,4.3,1,4.7,3.63.47,3.2-1.72,3.46-4.12,3.88-2.1.36-5.5-1.25-5.74,2.83h65.15c-.77-2.82-2.21-2.63-3.34-2.65-9-.09-18,0-27-.18-2.56,0-5.72-.44-5.91-3.61-.25-4.26,3.41-3.86,6.24-3.89,7.39-.08,14.78-.29,22.16,0,5.69.22,10.29-.22,13.83-5.91,2.79-4.47,8-6.44,13.62-5.19,27,6.06,32.13,2.72,59.33,3,15.17.18,25.62-10,26-25.14.51-18.59,0-37.21-.07-55.82C1739.1,367.74,1739.59,356.16,1739.17,344.61Z"/><path class="cls-2" d="M1788.41,310.69c-12.89-18.45-31.48-22-52.55-21.91-107.8.41-215.61.24-323.42.25-9.32,0-18.58-.25-27.78-2.38-75.84-17.63-152.41-30.89-230.08-37-19.42-1.53-37.2-6.17-52.9-18a62.91,62.91,0,0,0-12.62-7c-13.54-6-25.83-2.64-33.47,9.78-3.19,5.19-6.92,6.66-12.6,6.58l-169.43-.12c-3.57,0-6.26-1.36-7.73-4.65-4.9-10.9-13.84-14.3-25.1-14.11-7-.42-16.79,4.56-16.79,4.56-11.21,8.19-21.64,17.85-36,19.72-30.26,4-60.61,7.3-90.92,10.83-54,6.28-107.14,17.25-160.09,29.23-10.81,2.44-21.65,2.57-32.57,2.58-107.13.05-214.27.3-321.4-.07-22-.08-40.69,4.84-55.25,23.49-2.9,3.47-5.14,15.39-5.14,15.39v53.51c.19,23.86.32,47.72.63,71.57.06,5.14.49,10.28.86,15.42a8.62,8.62,0,0,0,3,5.88c10.85,9.46,16.3,21.13,14.51,36.52a80.7,80.7,0,0,0,2,28.45c6.84,12.22,16.92,21.66,26.76,31.29a27.53,27.53,0,0,0,19.46,7.81c11.28-.09,22.56,0,33.85-.06,15.16-.1,21.59-6.44,21.95-21.4.09-3.83.27-7.65.41-11.48-.14-18.61-.39-37.23-.34-55.84,0-6.87,15-18.67,21.48-17.25,3.92.86,3.12,4.25,3.45,7,1.44,11.95,4.52,15.22,16.46,15.36,20.87.26,41.75.06,62.62,0,5.62,0,10.27-1.65,14.43-6.18,7-7.63,23-4.13,26.94,5.41q10.59,25.71,21,51.49,27.8,66,55.57,132,17.5,41.7,34.79,83.5c5.14,12.5,12.87,23.53,19.32,35.28,7,7,13.71,14.2,20.89,20.94,18.31,17.2,40.1,28.37,65.89,36,24.54,6.88,68.89,2.59,68.89,2.59,32.23-5.88,64.31-12.15,97-15.51,56.94-5.86,114-10.5,171.15-12.78h31.83c37.91,1.54,75.76,4.13,113.55,7.54,47.34,4.26,94.75,7.72,141.18,18.91a161.63,161.63,0,0,0,69.81,1.37c36.06-7.08,65.46-25.53,90.32-52,20.37-24.6,30.47-54.47,42.73-83.23,1.24-2.9,2.78-5.67,4.18-8.5,13.19-32.32,26.24-64.71,39.61-97q25.21-60.87,50.84-121.57c3.46-8.27,20.12-11.85,26-4.93,4.13,4.86,8.86,6.15,14.36,6.2,21.86.21,43.73.32,65.6.2,9.37-.05,14.27-5.33,14.13-14.61-.12-7.81,3-8.67,9.49-5.85,10.56,4.62,16.82,10.72,15.95,23.91-1.26,19.21-.42,38.57-.22,57.86.17,16.59,6.22,22.48,22.75,22.65,7.4.08,14.86-.6,22.18.13,14.9,1.5,27.17-3,37-14.19,3.8-4.32,7.51-8.72,11.41-12.94a37.86,37.86,0,0,0,10.43-27.06c0-5.45.47-10.93,0-16.34-1-12.3,2.06-22.67,12.21-30.58,5.46-4.25,6.47-10.43,6.45-17.25V334.64C1797.4,325.29,1788.41,310.69,1788.41,310.69ZM1057.58,460.62c11.57.35,23.14,1.09,34.71,1.14,5.44,0,7.89,1,7.78,7.37-.38,23.15-.08,46.31,0,69.46,0,2.28.28,5.63-2.09,5.82-8.86.69-6.44,7.09-6.51,12-.2,15.12-.43,30.24,0,45.35.14,5.64-2.29,8.08-6.55,11.37-24.71,19.09-52.44,25.4-83.11,22.35-11.15-1.11-22.5-.42-33.75-.26-4.12,0-6.83-.26-6.56-5.53.23-4.69,1.5-6.79,6.74-6.76,24.77.13,49.54-.12,74.31-.24l9.65-.05c2.95,0,6.4.1,6.53-3.84.17-4.62-3.83-3.4-6.41-3.42-19.62-.13-39.25-.1-58.87-.18-3.85,0-7.7-.27-11.54-.42-37.2.15-74.41.2-111.6.58-3.6,0-10.22-2.63-10.38,3-.18,6.47,6.71,4.35,10.77,4.38,26.7.19,53.41.12,80.12.09,4.2,0,8.39-1.09,8.07,5.88-.26,5.75-2.64,6.77-7.74,6.7-21.24-.31-42.48-.53-63.71-.19A46.83,46.83,0,0,1,861,627.9c-5.18-3.24-10-7.56-15.69-9.34-15.21-4.78-18.2-15.07-16.74-29.44,1.2-11.78.32-23.78.27-35.68,0-2.47.94-6.66-1.6-7-9.79-1.15-7.07-8.54-7.14-13.82-.29-21.54.12-43.1-.07-64.64,0-4.59,1.24-6.35,5.88-6.41,12.22-.16,24.43-.58,36.64-1.06,12.86-.5,19.18-6.53,20.4-19.56.89-9.6,1.84-19.23,2-28.85.07-6,2.34-6.95,8-7.58,18.51-2.11,35.39,5,53,8.05,2.85.49,5.74.7,8.61,1,2.52.3,5.62,0,4.82,4.07-.62,3.12-3,4-5.86,3.7a78.19,78.19,0,0,1-24-6.49c-2.48-1.15-6.26-2.88-7.82,0-1.82,3.41,2.36,4.6,4.59,6.14,4.48,3.13,9.89,4.11,15.28,5.78-.78,3.59-3.8,3.5-5.83,4.34-30.35,12.57-47.85,42.68-42.45,73.28a67.85,67.85,0,0,0,66.43,56.23c7.85,0,15.72-2.79,23.58-4.3,25.6-12.47,41.67-31.75,42.58-61.21.87-28.2-15.55-52.86-41.66-63.53-2.05-.84-4.45-.9-6.18-3.72,5.51-2.33,11-4.51,16.35-7,2.53-1.17,6.1-2.5,4.69-6.12-1.68-4.33-5.36-1.19-7.29-.33-8,3.62-16.53,5-25,6.82-2.48.51-4.44.27-5-2.78-.46-2.57,0-4.6,3-4.71,20.82-.77,39.9-12.21,61.5-9.34,7,.94,9.28,2.51,9.26,9.51,0,9.3,1.06,18.61,2,27.88C1038.67,454.06,1045.57,460.25,1057.58,460.62Zm-14.11-36.74c10,7.22,15.38,15.53,19.21,25,1.44,3.56-.71,4.19-3.83,4.47-7.39.64-11.76-3.09-13.25-9.69C1044.29,437.87,1044.26,431.8,1043.47,423.88ZM860.25,443.81c3.76-6.89,7.39-14,16.42-19.63-.68,7.76-1,13.47-1.75,19.11a11,11,0,0,1-5.7,8.48c-3.43,1.77-8,3-10.88.5S858.83,446.43,860.25,443.81Zm25.93-58.28c5,4.14,8,6.62,7.64,10.57-.18,2.16-3.3,1.94-4.79,1.2C884.14,394.87,887.84,391.08,886.18,385.53ZM959,514.73c.19,7-1.72,9.54-9.21,9.34-23.08-.64-20.48,1.37-20.62-21.12-.06-10.3.29-20.59.18-30.89-.07-5.66,2.13-8.13,8-8,14.79.22,29.59.19,44.39,0,5.5-.07,7.47,2.55,7.45,7.6,0,14.8-.1,29.6,0,44.4,0,5.2-2.26,7.33-7.46,7.82-20.07,1.88-20.1,2-20.22-18-.07-11.67,0-23.35,0-35l-2.6,0C958.84,485.5,958.56,500.12,959,514.73Zm9.13,16.83c28.65-.74,28.64-.89,28.67-29.83,0-9.32.11-18.64,0-28-.15-13-4.06-17-17.27-17.7-5.12-.25-10.25-.28-15.38-.41-4.32-4-8.34.5-12.53.63-30.05.92-30.05,1.08-30.1,31.58,0,9-.17,18,.07,27,.3,11.58,5,16.1,16.58,16.58,2.57.11,5.15,0,7.72.06,13.26.06,12.73.07,13.12,13.4.25,8.8-5.58,9-10.56,7.87-28.7-6.59-48.93-33.06-48.06-62,.95-31.78,30.45-58.18,61.8-55.3,20.63-1.78,52.73,23.3,55.87,51.28,2.87,25.5-14,53.69-39.06,62-.91.3-1.88.41-2.8.69-14.56,4.32-14.2,4.31-14.79-11C961.16,532.84,962.73,531.7,968.09,531.56Zm63.14-134.32c-1.59.75-4.53,1.12-5-.85-1.19-4.44,3.74-5.75,6-8.81C1033.57,391.14,1036.18,394.91,1031.23,397.24Zm-10.94-11.05c3.34-7.72,6.12-13.26,6.34-19.68s1.09-12.66,1.72-19.5C1036.31,357.89,1033.09,376.12,1020.29,386.19Zm-5.8-130.57c4.85,0,6,2.27,5.78,6.44-.16,2.85,0,5.72,0,8.57h0a15.53,15.53,0,0,1-.05,3.8c-.76,2.84,2.89,8-2.56,8.13a8.39,8.39,0,0,1-8.3-7.78c-.38-4.42-.25-8.88-.28-13.32C1009,257.82,1010.1,255.64,1014.49,255.62Zm-3.24,33.11c5.7,1.16,8.53,5.21,9.59,10.94.62,1.82-.54,3.41-2.21,2.91-5.19-1.59-8.87-5-9.93-10.61C1008.35,290.16,1009.52,288.38,1011.25,288.73Zm-15.51,6c-11.9.05-23.81,0-35.71,0v.14q-17.38,0-34.75,0c-3.54,0-7.31.81-6.68-5.09.44-4.06-1-8.76,5.62-8.76,24.09,0,48.17-.06,72.26-.06,6.89,0,4.67,5.73,5.41,9.27C1003,295.53,998.81,294.7,995.74,294.71Zm-34.45-32.09c.34-5.57,2-7.09,7.33-6.86,8.66.38,17.36.2,26,0,4.22-.09,7-.13,7,5.83-.07,11.81.41,11.81-11.74,11.74-2.89,0-5.79,0-8.68,0-3.22,0-6.51-.46-9.63.06C962.54,274.94,960.81,270.7,961.29,262.62Zm-42.5-.76c.38-4.4,1.72-6.23,6.37-6.09,9.31.28,18.65.35,28-.07,7.29-.33,5.46,4.81,5.46,8.46,0,4,1.92,9.7-5.84,9.21-4.8-.31-9.64-.06-14.46-.06v.05H929.6C918,273.39,917.84,273,918.79,261.86Zm39.33,41.63,4.21.64c13.48-3.82,27.3-2.8,40.66-.71,11,1.72,12.92,7.63,9.55,18.61-.78,2.53-3.42,5.69-.57,8,3.06,2.51,4.34-3,8.69-2.41-1.58,15,1.26,30.23-2.68,45.23-4.45,17-14.2,24.2-31.8,24.09-7.67,0-15.33,0-22.86,0-.81-3.34.39-5,2.64-6.07,2.43-1.11,2.54-4,1.09-4.44-8.8-2.64-5.31-9.82-5.52-15.05-.55-13-.19-26.12-.19-39.18H959c0,14.1,0,28.21,0,42.32,0,2.53.68,6.66-.52,7.35-8.13,4.68-5.95,8.82,3.06,14.33-15.7,0-29.06,2.66-40.66-.71-13.07-3.8-18.84-17.12-20-30.51-1.06-12-.22-24.17-.22-36.2,3.16-1.88,5.93,4.36,8.59.51,1.85-2.68-.75-5.5-1.7-8.11-3.26-9,.62-17.53,10.54-18.39C931.29,301.66,944.8,300.8,958.12,303.49Zm-57.83-27.85c-.28-4.12,0-8.29,0-12.43,0-3.74-.9-7.68,5.38-7.65,6.08,0,5.58,3.74,5.6,7.61V268h-.44c0,2.86.63,5.92-.15,8.54-1.16,3.88-4.59,6.89-8.46,6.4S900.47,278.18,900.29,275.64Zm-.62,23.06c.18-5.4,3.88-7.82,8.17-9.52,2.23-.87,3.68.32,3.64,2.88-.57,5.54-4.62,8.28-9,10.13C899.9,303.25,899.6,300.8,899.67,298.7Zm-7.73,29.88c2.76,19.26-1,38.95,6.2,57.65C880.07,368.65,891.74,347.93,891.94,328.58ZM232.47,476c-3.86,11.15-1.71,22.69-2.09,34.06-.37,11.12-.35,22.26-.51,33.39,1.1,19.54,1.1,19.54-18,19.52-2.55,0-5.16-.37-7.64.06-16.24,2.8-27.37-4.55-35.74-17.62-8.93-5.75-11.93-14-11.88-24.47.08-15.18,2.53-30.9-6.65-44.78-10.72-7.41-12.39-17.71-12-30.17.86-30.21.19-60.46.14-90.69,0-4.18-.11-8.36.08-12.54,1.14-26,14.06-38.57,40.23-38.59q122.55-.08,245.12,0c13.51,0,27.1-.88,40.52.18,47.5,3.75,93.13-6.84,139-16.44a1228.9,1228.9,0,0,1,155.23-22.2c25.13-2,49-6.11,69.49-21.88a33.19,33.19,0,0,1,14.81-6.62c2.61-.44,5.66-.72,7,1.8,1.7,3.2-1.68,4.11-3.61,5.61-22.56,17.52-48.06,25.31-76.66,26.89-47.78,2.62-95.09,9.8-142.24,18.13C594.23,295.43,561.6,302.1,529,309c-8.36,1.78-17.29,1.11-26,1.11-102,0-179.82-.05-281.79-.06-6.41,0-12.81-.24-19.18,1.27-15.29,3.63-26.32,15.78-26.53,31.32q-.64,47.28-.18,94.56c.17,17.19,13,29,32.74,31.41,12.84,0,1.54.07,14.38.1l15.36-.71C237.48,472.42,234.62,474,232.47,476Zm143.27,1.8c-2.07-.65-5.6,1.49-6-2.32-.35-3.42,2.8-3.62,5.3-3.71,2.86-.12,6.54,0,6.66,3.44C381.83,478.84,378,477.17,375.74,477.76Zm1168.54-.07c-2.39.24-5.83.69-5.56-3,.25-3.25,3.62-2.79,6.07-3,2.48.24,6,0,6.08,3.05C1550.91,479,1546.78,477.45,1544.28,477.69Zm109.45-20.46c-5.58-1.25-10.83.72-13.62,5.19-3.54,5.69-8.14,6.13-13.83,5.91-7.38-.28-14.77-.07-22.16,0-2.83,0-6.49-.37-6.24,3.89.19,3.17,3.35,3.57,5.91,3.61,9,.14,18,.09,27,.18,1.13,0,2.57-.17,3.34,2.65H1569c.24-4.08,3.64-2.47,5.74-2.83,2.4-.42,4.59-.68,4.12-3.88-.4-2.64-2-3.89-4.7-3.63-5.1.49-9.16-1.18-13-4.68-13.14-11.82-26.4-10-36.39,4.55-1.42,2.08-2.76,4.22-4.14,6.33q-26,62.21-52,124.42c-14.41,34.56-28.7,69.17-43.13,103.72-1.55,3.7-3.71,7.13-5.58,10.68-12.57,34.14-24,69-53.93,93-31.59,28.69-69.75,43-110.86,35.11-96.26-18.47-193.44-25.14-290.93-30.24l-14,.55c-73.21,2.5-146.13,8.73-218.76,18-22.2,2.84-44,9.3-66.19,11.86-41.88,4.84-79.28-6.39-110.64-35.42-14.22-10.57-24.63-24.58-32.16-40.14C508.34,737,496.22,707,485,676.69a303.86,303.86,0,0,1-17.83-42.61c-13.07-28.49-25-57.48-36.16-86.75Q414.43,509,397.9,470.74c-14.27-18.58-21.73-19.53-41.21-4.94-2.81,2.1-5.73,2.53-9,2.69-2.64.14-6.67-.85-6.64,3.28,0,3.36,3.38,4.19,6.5,4.31,1.51.06,3.26.05,3.49,2.25-9.73,2.11-57.86,1.91-66.64-.77,9.32-2.83,17.41-1,25.29-1.53,2.56-.19,5.15-.06,7.72-.15,2.33-.08,4.82-.42,5-3.32.21-3.25-2-4.37-5-4.35-8.36.07-16.72-.07-25.08.15-4.74.13-8.45-.54-11.39-5.09-3.66-5.67-9.44-7-16.12-5.7-27.4,5.53-31,2.56-58.56,2.6-13,0-22.64-10.73-23-25-.49-18.62,0-37.26.1-55.89-.13-10.29-.46-20.58-.35-30.86.24-20.36,10.78-30.75,31.2-30.77,104.91-.06,185.69-.37,290.6.18,20.62.11,40.05-4.75,59.8-8.77C619,298,673.6,288.25,728.88,282.83c3.78-.37,7.17-3.24,11.19-1.62l38.7-3.31c26.8,1,48.73-11.15,69.7-25.83,3.94-2.76,6.42-4.28,11.11.2,6.53,6.24,15.87,3.82,24,3.38,7-.37,10,1.32,9.11,8.83-1.23,10.4,0,20.37-5.11,31.1s-3.74,24.43-4.33,36.9c-.75,15.69-2.09,31.3-4.19,46.86-.46,9.83-1,19.66-1.37,29.5-.13,3.07-1.1,5.58-3.84,7.19-9.63,5.66-15.51,14.74-21.53,23.7-1,11.56-7.28,14.85-18.61,14.14-14.05-.88-28.26,1.09-42.36.52-17.4-.71-33.55,8.82-51.11,5.46-17.09,10.74-25,34.33-18.35,58.11,3.55,12.78,7.12,26.24,22,31.36,18.89-1.47,37.29,5.37,56.28,3.29,6.6-.72,15.69-2.72,19.46.6,4.57,4,1.36,13.26,1.53,20.22.23,9.61.59,19.28-.23,28.82-.75,8.61,2.21,13.9,9.93,17.47,4.58,2.13,8.64,5.38,12.93,8.13.93.25,2.07.24,2.74.79,16.81,13.81,36.36,15.31,57.07,14l123.89.14c14.28.53,27.34-1.4,39-10.28,2.74-2.09,6.23-3.2,9.38-4.76.43-.45.78-1.14,1.31-1.32,19.22-6.36,25.07-19.82,22.26-39.14-1.36-9.4.12-19.19-.24-28.78-.19-5.22,1.63-6.65,6.61-6.21,23.39,2.05,46.48-2.18,69.72-3.47,8.84-.49,11-7.71,15.78-12.44,3.34-7.87,7.11-15.46,8.57-24.15,2.4-14.33-.9-27.32-7-40-5.58-10.06-14.7-11.26-25.36-13.25-28.42-5.3-57.06-3.54-85.53-5.71-6.47,1.61-10.32.7-12.4-7.21-3.1-11.73-10.64-21.31-20.77-28.14-4.56-3.07-6.22-6.48-6.56-11.73q-3.16-49.09-6.88-98.14a42.2,42.2,0,0,0-5.62-18.56c-5.26-9.31-1.8-21.27-1.48-32.11,0-1.52,2.52-1.47,4.15-1.58,11.22-.71,23.38,3.38,32.81-6.75,1.4-1.5,3.43.72,5,1.73,2.69,1.75,5.49,3.35,8,5.31,18.64,14.57,39.81,21.61,63.41,21.53l27.26,2.7c48.64,3.86,96.67,12,144.65,20.53,25.85,4.59,51.51,10.05,77.08,15.95a48,48,0,0,0,10.53.73c105.82.05,189.41.06,295.23.09,5.47,0,11-.2,16.4.21,15.16,1.14,25.84,11.73,26.4,26.76.42,11.55-.07,23.13-.16,34.7.07,18.61.58,37.23.07,55.82-.4,15.13-10.85,25.32-26,25.14C1685.86,460,1680.73,463.29,1653.73,457.23ZM795.57,524.32c.2,5.42-1.33,7.79-7,7.17-7.29-.8-13.28.19-18.19,7.39-4.12,6-28.22,2.36-32.25-4-3-4.85-6.26-9.7-7.38-15.5-5.4-17.66-4.29-34.11,8.85-48.37a4.92,4.92,0,0,1,6.08-3.54c10.57,2.52,23.1-5.09,32,6.11.43.54,1.84.29,2.79.43,14.84,2.18,14.84,2.18,14.88,17.56C795.42,502.46,795.17,513.41,795.57,524.32ZM783.49,538c.32,0,.64,0,1,0,5.86-.65,13.8,3,17.06-2.23,2.81-4.49,1.25-11.82,1.33-17.89.18-13.16-.1-26.32.35-39.46.27-7.95-2.09-11.69-10.79-11-3.81.3-11.31,2.69-11.16-2.92.12-4.87,7.5-2.1,11.51-2.16,20.32-.31,20.31-.13,20.14,20.42-.06,7.06,0,14.12,0,21.17h.26c0,11.55-.24,23.11.11,34.65.15,5.08-1.46,6.84-6.53,6.66-7.69-.28-15.4.14-23.1,0-2.15,0-5.8,1.46-5.58-2.91C778.19,539.15,780.68,538.13,783.49,538Zm324.56-18.89c-.48-5.08-.09-10.25-.09-15.38h0c0-11.54.38-23.1-.16-34.62-.28-5.84,1.85-7.21,7.08-7,6.72.29,13.47,0,20.2,0,1.71,0,4.28-.75,4.37,2.11.07,2.49-2.36,2.66-4.17,3a22.09,22.09,0,0,1-3.83.21c-13.71.59-13.64.59-13.64,14.69,0,15.39.16,30.8-.35,46.17-.24,7.24,1.47,10.87,9.49,9.67,3.73-.56,7.67-.1,11.47.27a3.83,3.83,0,0,1,3.44,4c.07,2.8-2.09,2.67-4,2.78-.64,0-1.28,0-1.92,0-9-.23-20,3.55-26.29-1.38S1108.85,527.51,1108.05,519.06Zm16.69-16.55h0c0-2.89,0-5.79,0-8.68.08-5.78-1.49-12.34.74-17.13,2.62-5.66,11,.19,14.75-2.93,9.43-7.77,20.12-5.21,30.55-5.89,6.26-.41,10.17,2.29,13.64,7.09,12.27,16.93,10.38,47.31-4,63-2.18,2.39-4.65,3.49-7.65,3.11-9.56-1.22-20.68,4.12-27.79-7.58-2.31-3.81-7.84-2.32-11.84-1.92-7,.69-9.07-2.17-8.57-8.82S1124.74,509.26,1124.74,502.51Zm658-149.11c-.92,34.07-.63,68.17-.65,102.26,0,5.78-.92,10.43-5.81,14.38-7.28,5.88-10.3,14.49-12.81,23.22,0,4.49-.65,9.08,0,13.47,3.12,20.9-5.35,36.56-20.9,49.69-4.69,4-9.09,6.72-15.34,6.58-10-.21-20-.43-29.9.06-6.3.32-7.43-2.28-7.36-7.87.26-21.86,0-43.73.17-65.6a34.14,34.14,0,0,0-2.28-13.12l-6.56-4.47c2.51-5.27,5.46-3.65,7.68-3.68,16.09-.17,9.94.19,26-.22A32.51,32.51,0,0,0,1747,436q.4-45.83-.1-91.67c-.17-17.17-12-30.6-28.95-33.24a124.49,124.49,0,0,0-19.23-1c-97.8-.05-173.38-.78-271.17.43-31.44.39-61.08-7.11-91.22-13-61.53-12-123.34-22.18-185.91-26.06-28.32-1.75-53.31-9.55-75.55-26.84-2-1.55-5.49-2.57-4.55-5.37,1.12-3.33,4.72-2.51,7.6-2a32.5,32.5,0,0,1,14,6.14c18.89,14.11,40.17,20,63.6,21.73,78.21,5.93,155.22,19.92,231.62,37.34,8,1.82,16,1.56,24,1.57,107.45.1,214.92.84,322.36-.27C1773.85,303.37,1783.61,322,1782.77,353.4Z"/><path class="cls-2" d="M569.91,386c-5.54.32-9.39-7.19-14.39-4.64-4.63,2.36-9.49,3-14.11,4.77-9.23,4.81-17.48,10.6-22,20.54-10.64,23.35,1.47,49.18,26.32,56.22,3.46,1,9.33.32,7,7.21.07.31.14.62.2.93,1.13,5.28-1.17,15,4,14.78,6.45-.23,3-9.3,3.56-14.5.42-4,.07-7.79,5.58-7.86,12.33-4.88,22.31-12.33,27.12-25.25C600.89,417.45,592.56,398.83,569.91,386Zm17.61,42c-1.35,12.29-8.82,20.27-19.32,25.86-5.4,2.87-8.38,2.17-7.91-4.88.18-2.85,1.37-7.49-3.65-7.17-3.69.24-3.37,4.28-3.13,7,.73,8.6-3.62,8-9.38,5.58-12.5-5.21-21.13-18.49-20.65-32,.47-13,9.44-24.69,21.81-28.93,5.8-2,9.05-2.17,8.22,5.8-.73,7-.09,14.11.26,21.17.1,2,.38,5,3.39,5s3-2.88,3.13-5c.19-4.17.06-8.36.06-12.54h.19a22.46,22.46,0,0,1,0-3.85c.62-3.63-2.29-8.91,1.35-10.58,4.08-1.88,8.55,1.73,12.07,4.33C584.06,405.27,588.91,415.37,587.52,428Z"/><path class="cls-2" d="M594.67,316.37c-8.11,1.84-16.26,4.3-24.47,4.67-8.42.37-10.12,3.87-9.63,11.35.57,8.63,0,17.33-.09,26,0,2.22,0,5.06-2.81,5.44-3.81.51-3.77-3-3.88-5.31-.28-6.09-.1-12.2-.1-18.29,0-25.83-3.94-23.16,23.15-28.11,5.66-1,11.4-1.76,17.13-2.38,1.68-.18,4.36-1.12,5,1.22C599.7,314,597.18,315.8,594.67,316.37Z"/><path class="cls-2" d="M419.55,371.23c-1.08,1.94-2.11,3.91-3.16,5.87-5,6.28-7.17,14-10.74,21-1.06,2.09-2,5.3-5.3,4.32s-2.64-4.29-2.16-6.46c1.24-5.49,3.13-10.83,4.76-16.23,4.53-3.26,5.77-9,9.42-12.84,2.13-2.26,4.61-5.9,7.8-4C423.77,365.07,421.07,368.48,419.55,371.23Z"/><path class="cls-2" d="M476.23,343.09c-4.73,1.83-9.66,3.13-14.5,4.69-6.67,2.15-13.28,4.51-20,6.4-2.07.58-5.18,2.85-6.55-.92-1.09-3,1.27-4.77,3.54-6.05,11.09-6.23,23.56-7.7,35.25-10.39,1.93.32,3.95-.47,4.56,1.46A4,4,0,0,1,476.23,343.09Z"/><path class="cls-2" d="M873.56,349.46c-.89,4.09-4.07,6.05-6.12,3.47-8.31-10.5-14-22.63-18.68-35.11-1.19-3.22,3.6-5.83,5.39-3C861.21,326.12,867.26,338,873.56,349.46Z"/><path class="cls-2" d="M534.45,329.37c-11.82,2.52-23.62,5.08-35,7.54-2.18-.46-4.67.88-5.29-1.83-.48-2.14,1-3.62,2.93-4.3a193.06,193.06,0,0,1,37.16-8.36c1.88-.26,4.13.37,4.37,2.71C538.91,327.87,536.86,328.86,534.45,329.37Z"/><path class="cls-2" d="M655.2,305.69c-11.54,2.31-23.09,4.56-34.64,6.83-2.33.14-4.91.41-5.56-2.38s1.75-3.79,3.94-4.5c11.54-3.7,23.45-5.61,35.44-7.09,1.89-.23,4.1,0,4.5,2.47C659.32,303.69,657.68,305.2,655.2,305.69Z"/><path class="cls-2" d="M720.11,292.25a3.75,3.75,0,0,1-3.38,4q-18.91,2.91-37.84,5.65a2.66,2.66,0,0,1-3.22-2.7c0-3.08,2.18-4.38,5-4.83q14.63-2.34,29.27-4.65l.06.4a41,41,0,0,1,5.73-.39C717.47,289.84,719.92,289.72,720.11,292.25Z"/><path class="cls-2" d="M839.7,298.66c-1,3-3.37,4.35-5.31,3.15-10.64-6.6-21.7-12.17-33.74-15.75a3.38,3.38,0,0,1-1.65-2.91,3.49,3.49,0,0,1,2.87-1.8,70.52,70.52,0,0,1,36.06,14.34C838.85,296.4,839.22,297.81,839.7,298.66Z"/><path class="cls-2" d="M782.5,285.28c-.24,2.38-2.06,3-4,3.24-12.3,1.38-24.68,2.22-36.73,5.39a3.89,3.89,0,0,1-4.77-2.26c-1.1-2.69,1.24-3.91,3.08-5.16a245.32,245.32,0,0,1,38.68-4.43C780.39,282.67,782.78,282.46,782.5,285.28Z"/><path class="cls-2" d="M1378.49,385.57c-3.3-.79-6.74-1.22-9.86-2.46-4.12-1.64-8-3.35-11.75.46-1.68.87-3.31,1.86-5.05,2.59q-28,11.73-27.09,39.91c.58,17.34,11.23,30.63,29.69,37.08,5.54.24,5,4.21,5.55,8.13.75,5.21-3.4,14.07,3.52,14.67,5,.44,2.78-9,4.1-13.94-2.37-5.89.82-7.45,5.93-8.91,19.42-5.55,30.43-19.39,31-37.79C1405.15,405.92,1394.88,393.77,1378.49,385.57Zm18,44.14c-1.67,11.73-12.36,23.16-24.15,26.27-7,1.84-4.88-3.87-6-6.85-.92-2.41,1.16-6.9-2.81-7-4.7-.09-3.7,4.48-3.41,7.42.72,7.22-3,6.55-7.42,4.36-11.36-5.63-19-14.29-19.92-27.34-1-13.77,4.91-24.27,17-31,8.81-4.87,10.09-4.06,10.07,5.68q0,3.38,0,6.75a12.05,12.05,0,0,0,0,2.88c1.09,4.84-3.08,13.29,3.85,13.63,4.89.24,2.79-8.48,3.49-13.25a43.28,43.28,0,0,0,.06-6.74c-.16-15.24.16-15.44,13.31-8.24C1392.42,402.83,1398.49,415.56,1396.48,429.71Z"/><path class="cls-2" d="M1425.89,652.92c-4,10.86-8.38,22.89-14.64,34.11-1,1.84-3.22,2.07-5.17,1.28-2.46-1-1.86-3.32-1.35-5a167.86,167.86,0,0,1,14.54-34.44c1-1.7,2.36-3.33,4.62-2.25C1425.91,647.61,1426.12,649.62,1425.89,652.92Z"/><path class="cls-2" d="M1476.1,541.24c-4.37,9.78-9.35,21.14-14.56,32.39a3.57,3.57,0,0,1-4.91,1.65c-2.2-1-2.42-3.1-1.89-4.9,3.55-12,8.81-23.22,14.18-34.42a4,4,0,0,1,4.87-2.09C1476.93,534.64,1475.91,537.25,1476.1,541.24Z"/><path class="cls-2" d="M1434.43,630.48a14.71,14.71,0,0,1-2.41,1c-3.67-.88-4-3.48-3-6a207.48,207.48,0,0,1,16.32-34.49,3.72,3.72,0,0,1,3-1.63c.85.18,1.76,1.68,2,2.75C1451.16,595.43,1437.23,628.82,1434.43,630.48Z"/><path class="cls-2" d="M1398.3,715.31c-3.74,8.1-7.41,16.24-11.26,24.28-1.19,2.48-2.35,6.06-6.14,4.44s-2.21-5.13-1.27-7.6c3-7.77,6.34-15.37,9.57-23,.25-.19.6-.33.73-.59,2-4,3.91-11.26,8-9.88C1404.06,705,1397.93,711,1398.3,715.31Z"/><path class="cls-2" d="M1498.56,487c-3.43,8.61-7.19,17.09-10.84,25.62-1.43,3.33-3.27,7.46-7.47,5.17-3.63-2-.74-5.8.44-8.48,4.9-11.12,10-22.14,15.11-33.19l3,0C1501.68,479.85,1499.94,483.58,1498.56,487Z"/><path class="cls-2" d="M1366.66,605.9c0,1.9-.13,5.05-3.4,4.69-2.61-.29-3.38-2.59-3.39-5,0-6.06,0-12.12,0-18.18h.07V571.14c0-2.64.12-5.54,3.6-5.55,2.92,0,3.31,2.79,3.33,4.94C1366.93,582.32,1366.92,594.11,1366.66,605.9Z"/><path class="cls-2" d="M1366.64,544.48c-.18,1.95.17,5-3.36,4.69-2.91-.26-3.4-2.55-3.42-4.92,0-6.1,0-12.21,0-18.32h.05c0-5.47,0-10.93,0-16.4,0-2.22-.26-4.79,2.93-5.09s3.67,2.12,3.82,4.41C1367.39,520.73,1367.77,532.62,1366.64,544.48Z"/><path class="cls-2" d="M1366.78,666.44c0,2.24-.1,6-3.76,5.32-2.73-.49-3.22-3.47-3.18-6.21.09-5.74,0-11.48,0-17.22h-.07c0-5.1,0-10.2,0-15.3,0-2.54-.58-5.43,3.35-5.46,2.91,0,3.8,2,3.81,4.46C1367,643.5,1367,655,1366.78,666.44Z"/><path class="cls-2" d="M1367.72,717.2c-.44,4.46-.79,8.93-1.37,13.37-.23,1.75-.09,4.2-2.91,4-2.39-.12-3.2-2.16-3.31-4-.36-6.39-.45-12.8-.64-19.2.25-6,.43-12.07.79-18.1.11-1.94,1-4,3.16-4.07,2.64-.09,2.58,2.42,2.72,4.2C1366.76,701.33,1367.21,709.27,1367.72,717.2Z"/><path class="cls-2" d="M569.83,798.16,563,798c-6.71-10.09-13.65-20.06-17.95-31.51-.71-1.89-2.71-4.15-.69-6.1,1.66-1.6,3.42.06,5.14.9,6.06,2.93,4.26-1.89,4.46-4.69.18-2.48-.23-6,3.27-5.74,3,.18,3.18,3.46,3.21,6.06s.45,5.21-.05,7.67c-1.84,9.12.66,16.84,6.49,23.88C569.12,791.12,570.94,794.29,569.83,798.16Z"/><path class="cls-2" d="M516,688.22c-5,1.53-7.57-1-9.37-5.25s-3.78-8.44-5.69-12.66c-2-5.34-4.19-10.64-6-16.06-.88-2.64-1.95-5.89,1.9-7.31,3.41-1.25,4.63,1.79,5.55,3.91C507.64,663,515.13,674.43,516,688.22Z"/><path class="cls-2" d="M490.72,631.44c-5,1.26-6.46-2.77-8.61-5.76-3.67-9.48-7.3-19-11-28.41-1.06-2.7-2.79-5.83.81-7.33,2.95-1.23,4.27,1.84,5.39,4.15,4.3,8.9,8.78,17.71,12.75,26.75C491.44,624.06,494,627.7,490.72,631.44Z"/><path class="cls-2" d="M622.87,829c-.44,2.49-2.84,2.07-4.71,2.16-9.36.42-32-13.66-36-22.41,3.72-2,6.58.72,9.74,1.75a150.41,150.41,0,0,0,26.59,13.14C620.9,824.52,623.44,825.76,622.87,829Z"/><path class="cls-2" d="M868.92,800.16c-1.11,1.47-1.7,3.46-4,3.74-12.28,1.54-24.54,3.17-36.83,4.58-2,.23-5,.88-5.37-2.26-.34-2.64,1.69-3.75,4.18-4.22,4.65-.87,9.26-1.94,13.89-2.93,6.6-.81,13.19-1.71,19.8-2.4C863.92,796.34,867.8,795.1,868.92,800.16Z"/><path class="cls-2" d="M741.41,820.2c-12.27,2.13-24.56,4.08-36.83,6.2-2.63.46-3.48-.81-3.68-3-.29-3.27,1.93-4.73,4.57-5.16,11.68-1.91,23.4-3.6,32.51-5,4.94-.26,7.35-.41,7.69,2.73S743.59,819.82,741.41,820.2Z"/><path class="cls-2" d="M929.1,797.86c-3.09,3.77-7.73,1.51-11.42,2.94-11.42.77-22.82,2-34.3,1.15-.17-3.68-.24-7.27,4.88-7.53,11.79-.62,23.58-1.19,35.37-1.9,3.06-.19,4.81,1.1,5.74,3.85A1.83,1.83,0,0,0,929.1,797.86Z"/><path class="cls-2" d="M806.14,807.53c.22,4.14-3.39,3.86-6.17,4.26l-29.84,4.36c-3.21-.81-7.67,2.09-8.4-2.48-.66-4.14,3.75-4.63,6.78-5.11,10.07-1.59,20.16-3.08,30.29-4.23C801.49,804,805.85,802.29,806.14,807.53Z"/><path class="cls-2" d="M680.8,831.13A81.45,81.45,0,0,1,654.42,835c-3.8,0-6.67.07-9.54,0-2.39-.08-5.46.72-5.32-3.4.12-3.64,2.81-3.79,5.41-3.83,11.48-.17,22.94-.46,34.18-3.2,1.87-.45,4-.77,4.82,1.61C684.86,828.87,683.13,830.4,680.8,831.13Z"/><path class="cls-2" d="M557.2,671.68c-3.84,0-3.42-4.21-3.56-6.81-.48-8.93-.53-17.89-.75-26.84a24.33,24.33,0,0,0,.45-3.68c-.06-2.89-.39-6.33,3.29-6.79,5-.62,3.46,4.07,4.4,6.67-.15,10.24-.23,20.47-.5,30.71C560.46,667.62,561.13,671.68,557.2,671.68Z"/><path class="cls-2" d="M560.48,728.48c-.17,2.33.72,5.78-2.89,6-4.17.3-3.92-3.62-4.07-6.16-.43-7.55-.4-15.13-.55-22.7.39-4.11.68-8.24,1.23-12.33.24-1.77.33-4.29,2.9-4.17,2.16.1,3,2.27,3.12,4.13.4,7.31.57,14.63.83,22C560.87,719.65,560.8,724.07,560.48,728.48Z"/><path class="cls-2" d="M1367.27,329.28c-.41,3.49-.07,7.07-.07,10.61h-.44c0,6.42.15,12.85-.09,19.26-.08,2,0,4.92-3.47,4.64-3-.24-3.34-2.59-3.35-4.91,0-9.32-.3-18.66.15-28,.32-6.38-1.51-9.18-8.37-9.66-7.94-.56-15.83-2.39-23.62-4.21-2.77-.64-7.55-1.09-6.63-5.37.77-3.58,4.92-1.9,7.43-1.58,8.6,1.07,17.11,2.82,25.71,3.89C1363.76,315.13,1368.43,319.54,1367.27,329.28Z"/><path class="cls-2" d="M1485,353.34c-1.56,3.93-5.08,1.72-7.41.7-10-4.35-20.65-6.32-31-9.34-2.84-.83-4.86-2.85-4.72-5.32.16-2.86,3.18-2.39,5.39-2.34,11.21,2.3,22.55,4.17,33,9.31C1483.23,347.82,1486.56,349.48,1485,353.34Z"/><path class="cls-2" d="M1071.91,318.45c-.78,1.85-1.64,4.26-2.8,6.51-4.25,8.26-8.48,16.53-13,24.66-1.53,2.75-3.78,6-7.55,3.54-3.33-2.2-1.08-5,.3-7.55,5-9.31,9.84-18.69,14.74-28.05,1.25-2.37,2.64-4.57,5.87-3.53C1071.28,314.61,1071.7,316.18,1071.91,318.45Z"/><path class="cls-2" d="M1304.9,310.2c-.68,2.66-3.12,2.66-5.55,2.19q-17.38-3.33-34.81-6.51c-2.72-.49-4.17-2.44-4-4.62.2-2.79,2.85-2.94,7.56-2.63,9.28,1.83,20.88,4.08,32.45,6.45C1303.18,305.62,1305.72,307,1304.9,310.2Z"/><path class="cls-2" d="M1520.38,402.21c-3.86,1.58-4.66-2.37-5.9-4.73-3.55-6.77-5.7-14.26-10.52-20.38-1.24-4.9-9-10.82-3.72-13.86,4.87-2.83,7.91,6.19,11.5,10.23a54.84,54.84,0,0,1,4.15,6.09c2.07,5,4.46,9.89,6.1,15C1522.78,397.08,1523.78,400.82,1520.38,402.21Z"/><path class="cls-2" d="M1426,334.05c-.32,3.11-3.06,3.05-5.2,2.61-11.87-2.4-23.71-4.94-35.53-7.52-2.51-.55-4.1-2.51-3.32-4.88.94-2.91,3.82-1.22,5.87-1.52a228.5,228.5,0,0,1,33.63,7.4C1423.54,330.76,1426.33,331,1426,334.05Z"/><path class="cls-2" d="M1243.89,299.27c-.34,3.8-3.63,2.5-4.36,2.5-12.31-1.91-23-3.59-33.68-5.22-2.52-.38-5.57-.18-5.13-4,.34-2.93,3-3.24,5.17-2.95,11,1.45,22.08,3,33.1,4.67C1241.77,294.71,1244.13,296.43,1243.89,299.27Z"/><path class="cls-2" d="M1123.62,281.71c-4.38,5.9-9,6.27-13.17,7.45-8.41,2.41-15.51,7.22-22.83,11.67-2,1.2-4.34,2.25-6,.06s0-4.42,1.76-5.71C1094.75,286.8,1107.11,281.27,1123.62,281.71Z"/><path class="cls-2" d="M1182,291.52c-1.82,7.06-8.71.48-13.22.38-8.21-.18-16.36-2.21-24.57-3.17-3.77-.44-7.27-.55-6.34-5.83,11.06-1.86,21.87,1.23,32.82,1.55C1174.44,287.26,1183.78,284.72,1182,291.52Z"/><path class="cls-2" d="M1374.17,768.42c-3.3,10.08-9.42,18.72-15.25,27.47-2.51,2.09-5.09,3.92-8.58,2.23.21-1.88-.31-4.46.73-5.52,9.69-9.93,9.59-22.2,9-34.72-.14-2.74-.44-6.59,3.46-6.65,3.45-.06,3,3.51,2.94,5.95s0,5.26,3.21,4.16C1381.52,757.23,1375.15,765.41,1374.17,768.42Z"/><path class="cls-2" d="M1092,808.82c-11.72-1.36-23.39-3.13-35.08-4.74-2.55-.35-4.24-1.63-4-4.39.39-3.81,3.36-3.23,5.83-3,6.65.69,13.29,1.56,19.93,2.36l17.83,3.37C1098.78,807.26,1096.49,809.34,1092,808.82Z"/><path class="cls-2" d="M1338.52,808.32c-7.94,13.92-22.1,18.11-35.91,22.75-1.53.51-4,.73-4.69-1.89-.78-3.25,1.46-4.55,3.95-5.58,8.86-3.65,17.74-7.26,25.8-12.56C1331.22,809.87,1334.22,806.52,1338.52,808.32Z"/><path class="cls-2" d="M1158.33,814.14c-.87,3.1-4.34,2.05-6.71,1.77-11.1-1.3-22.17-2.79-33.25-4.23-4.79-.62-4.14-3.93-3.5-7.21,13-.76,25.35,3.68,38.18,4.08C1155,810.29,1159.39,810.39,1158.33,814.14Z"/><path class="cls-2" d="M463.47,575.77c-2.88.94-4.66-1.83-5.72-4.07-4.08-8.61-7.92-17.32-11.85-26-.14-.63-.34-1.24-.42-1.87-.42-3.46-3.86-8,1.3-9.86,4.59-1.62,4.9,3.87,6.77,6.51,1.09,1.53,1.95,3.23,2.91,4.86,3,7.68,6.09,15.32,8.83,23.08C466.19,571,467.18,574.56,463.47,575.77Z"/><path class="cls-2" d="M560.45,588.82h-.14c0,6.09,0,12.18,0,18.26,0,1.63-.5,3.41-2.34,3.73-2.38.42-3.6-1.4-3.84-3.35-1.62-13.09-1.14-26.18.18-39.25.17-1.62,1.17-3.29,3.1-2.93,2.12.4,3,2.31,3,4.32C560.51,576,560.45,582.41,560.45,588.82Z"/><path class="cls-2" d="M560.78,545.35c-.8,1.88-.73,4.71-3.92,4.19-3.44-.55-1.79-4.29-3.49-6,.11-10.49.1-21,.43-31.46.09-2.86-1-7.58,3.37-7.63,4.55-.06,3.3,4.55,3.35,7.48C560.7,523.08,560.71,534.21,560.78,545.35Z"/><path class="cls-2" d="M1522.79,424.87c-1.25,13.45-7,24.47-13,35.37-.72,1.3-1.91,2.89-3.81,2.09s-1.62-2.88-1.13-4.11A244.41,244.41,0,0,0,1516.9,421c.33-1.46,1.87-2.94,3.65-2.15C1523.57,420.22,1522.64,423.13,1522.79,424.87Z"/><path class="cls-2" d="M441,517.56c-2.05,1.32-4.73,1.26-5.94-1-6.2-11.85-12.1-23.85-14.82-37.07-.2-1,1.06-2.26,1.64-3.39l4.63,2.93q7.31,16.71,14.58,33.42C441.85,514.1,443.21,516.15,441,517.56Z"/><path class="cls-2" d="M414.3,462.09c-2.52,1.2-3.91-1.44-4.9-3.42-5.38-10.8-11.18-21.47-11.68-34.42.06-1.71-.48-4.43,2.29-5.17s3.79,1.42,4.22,3.84c2,11.34,6,22,10.76,32.46C415.94,457.46,417.27,460.67,414.3,462.09Z"/><path class="cls-2" d="M964.11,800.68c-5.09-.18-10.17-.34-15.26-.53-2.08-.07-3.86-.6-4-3.13-.13-2.78,1.41-4.59,4-4.16l22.51-.14c1.16-.25,2.51.41,3.77.65C977.34,804.66,967.86,798.32,964.11,800.68Z"/><path class="cls-2" d="M1219.74,823.72c-.93,4.93-5.43.92-7.83,2.09-10.77-1.62-21.23-3-31.6-4.88-2.53-.45-6.4-1.11-5.58-5.15.72-3.51,4.13-2.46,6.41-2.18,10.47,1.27,20.94,2.65,31.35,4.39C1215.67,818.52,1220.64,818.92,1219.74,823.72Z"/><path class="cls-2" d="M1037,798.73c.09,4.71-3.77,3.19-6.35,3.41a23.11,23.11,0,0,1-3.53,0L998,800.24c-2.76-.18-6.41.62-6.47-3.67s3.51-3.9,6.34-3.77c11.21.53,22.41,1.17,33.61,1.81C1034.19,794.76,1036.9,795.49,1037,798.73Z"/><path class="cls-2" d="M1280.94,832.36c-.42,3.91-3.88,2.39-6.12,2.55-3.5.26-7,.07-11.7.07a78,78,0,0,1-20.7-2.05c-3.39-.76-6.7-2.79-6-6.24.76-3.9,4.65-2.19,7.26-1.62,10.37,2.28,20.91,2.32,31.43,2.9C1277.85,828.12,1281.39,828.15,1280.94,832.36Z"/><path class="cls-2" d="M539.74,744a3.7,3.7,0,0,1-4.89-1.84,180.78,180.78,0,0,1-14.79-36c-.39-1.4-.22-3.5,1.85-3.74a3.82,3.82,0,0,1,3.16,1.45C531,715.37,536.77,727,541.76,737,541.75,741,541.93,743.1,539.74,744Z"/><path class="cls-2" d="M911.6,351.06c.07-1.75-.32-3.66,1.46-4.36a3.63,3.63,0,0,1,4.91,1.76,100.42,100.42,0,0,1,3.57,9.84,38.22,38.22,0,0,0,12.76,18.77c2.33,1.85,4.56,4.38,1.93,7.22-1.9,2-4.82,1.51-7-.32C919.13,375.22,913.87,363.84,911.6,351.06Z"/><path class="cls-2" d="M1009,351c-2.91,12.94-7.52,24.67-18.6,32.73-1.89,1.37-4.29,2.55-6.12.78-2.46-2.38-.64-4.82,1.37-6.5,8.23-6.91,12.58-16,15.08-26.17.69-2.82,2.15-5.67,5.77-5.25C1009,346.85,1008.63,349.31,1009,351Z"/><path d="M808.13,663.46v111H788.3V703.75l-19.51,14.91-16.18,12.53-16.17-12.53-19.51-14.91v70.74H697.1v-111l19.83,15.23,35.68,27.44,35.69-27.44Z"/><path d="M862.05,700.42v75.5H842.23V698.35a15.84,15.84,0,0,0-13.49-13.48H824.3V665.2h4.28v.16A35.64,35.64,0,0,1,842.07,669a35.17,35.17,0,0,1,16,16.18,41.72,41.72,0,0,1,2.69,7.45,33,33,0,0,1,1,8.09Z"/><path d="M988.15,755v19.83H877.44V742.13a31.69,31.69,0,0,1,2.69-12.85,32.56,32.56,0,0,1,28.87-20h48.06A13,13,0,0,0,956,683.44h-78.2V663.62H956a32.62,32.62,0,0,1,32.67,32.67A32.33,32.33,0,0,1,979.27,719a33,33,0,0,1-22.37,10H909a12.9,12.9,0,0,0-11.58,12.84v12.85Z"/><path d="M1092.35,683.13a34.47,34.47,0,0,1,3.65,15.54v75.66h-19.83V696.77a15.8,15.8,0,0,0-13.48-13.48h-58.21V663.46h56.31a34.47,34.47,0,0,1,15.54,3.65,35.17,35.17,0,0,1,16,16.18Z"/><path d="M1222.73,663.46v111H1202.9V728.81h-58.53a31.42,31.42,0,0,1-14.91-3.65,32.39,32.39,0,0,1-17.76-29V663.46h19.82v32.67a13.07,13.07,0,0,0,13,13h58.53V663.46Z"/></g></g></svg>