<svg xmlns="http://www.w3.org/2000/svg" viewBox="0 0 1920 1080"><defs><style>.cls-1{fill:#010101;}.cls-2{fill:#f2f2f2;}</style></defs><g id="Capa_2" data-name="Capa 2"><g id="Capa_1-2" data-name="Capa 1"><path class="cls-1" d="M1696.74,560.18A91.86,91.86,0,0,0,1682,546.63c-3.42-2.41-7.44-2.07-11-3.64-26.37.14-52.72,0-79.08.57-6.15.14-7.33-1.48-7.27-7.24.23-29.17.32-58.34-.14-87.51-.32-19.51-3.17-38.77-10.14-57.1-22.06-58-67.19-89.14-124.68-104.53-12.4-3.3-25.21-5.9-37.81-8.9-5.62-1.34-13.47-.27-16.27-5s1.64-11.22,3.26-16.73c2.36-8,0-10.77-8-12.3-29.19-5.65-58.24-12-87.36-18-16.49-3.42-33-6.91-49.5-10.14-5.16-1-10.11-1.54-9.19,6.94.52,4.72-1.19,9.7-2,14.56-.5,3.2-1.87,5-5.66,4.29-23.51-4.61-47.32-7-71.09-9.82-21.86-2.58-43.73-4.48-65.65-6.25-17.23-1.38-34.45-2.83-51.63-4.47-13.11-1.24-25.43-6.54-39.17-5.64,0,0-91.34-1.57-101.92-1.57s-25.35,6.15-25.35,6.15l-68,5.73c-21.5.91-42.68,4.25-64,6.35-22,2.16-43.87,5-65.58,9.19-2.63.5-6.2,2.34-6.91-1.74,0,0-3.8-16.23-5.1-20.49s-2.72-3.59-2.72-3.59c-.38-.66-2.22-.18-3.25.15L621,225.26l-23,5.35c-24.1,4.91-48.16,10-72.31,14.56-5.52,1.05-6,3.78-5.05,8.16.07.27.15.54.2.81,1,6.72,6.93,14.83,2.78,19.59-3.77,4.35-12.82,4.13-19.53,5.94-18.63,5-37.57,9.06-55.82,15.16-69.6,23.26-111.62,81.53-112.65,155.42q-.6,42.86-.07,85.73c.09,6.69-1.75,8.27-7.95,7.3-4.65-.74-9.47-.51-14.22-.71-17.66.27-35.34,1.13-53,.61-14.5-.44-25.43,4.06-35.37,15.13-4.92,5.47-11.33,21.67-11.33,21.67V618.2q.15,31.14.32,62.28c2.28,8.89,8.88,14.64,15.1,20.65,32.57,31.62,18.57,26.59,64.62,26.86,47.66.29,95.33.09,143,.07,9.76,0,18.84,1.5,26.37,8.68,3.15,3,3.09,4.78.05,7.26-5.63,4.62-11.14,9.4-16.9,13.84-4,3.11-4.25,6.23-1,9.89q26,29.74,51.91,59.51c3.26,3.73,6.41,3.83,10.06.58,5.45-4.84,11.09-9.46,16.57-14.26,2.52-2.24,4.4-2.59,6.89.37,12.79,15.2,25.78,30.23,39.6,46.37,4,4.67,12.4,4.23,12.4,4.23,18,.63,35.91.29,53.84.88,10.61.37,18.43-3.13,23.88-12.25A62.92,62.92,0,0,1,666,845.8c1-1.27,2.26-2.75,4.2-2a3.07,3.07,0,0,1,1.72,3.53c-2.31,11,5.51,9.79,12.08,10.1,1.4-.1,2.8-.27,4.18-.27,41.2,0,82.38-.09,123.58.08,6.81,0,11.9-.66,10.36-9.4-.33-1.85-.64-4.42,2.38-4.21l42.35.05c8.83-.05,16.14-2.06,19.53-11.21,1.31-3.5,4-4.16,7.36-4.13l133.64,0c3.59,0,5.88,1.24,6.93,4.65,2.59,8.39,9.21,10.29,16.88,10.51l11.73.31,32-.16c1.57-.06,3.14-.13,2.87,2.19.75,11.4.75,11.35,12.45,11.33,43.2,0,86.43-.15,129.63.1,6.44,0,9.5-1.48,8.71-8.32-.2-1.69-1-4.27,1.57-5,2.22-.65,3.49,1.32,4.84,2.7a2.44,2.44,0,0,1,.54.66c8.62,17.57,23.75,19.58,41.11,18.11,12.25-1,24.67-.3,37-.17,8.14.09,14.48-3,19.85-9.16,9.79-11.13,18.65-23.09,29.47-33.32,24.74-28.58,49.39-57.24,74.26-85.7a23.86,23.86,0,0,1,17.73-8.39c4.2-.12,8.39-.57,12.59-.59q85.79-.15,171.55-.2a28.55,28.55,0,0,0,12.73-7.75c8.34-8.26,16.59-16.6,25-24.74a28.93,28.93,0,0,0,9.41-22.35V580.25C1706.25,570,1696.74,560.18,1696.74,560.18ZM1395.55,288.11c32.69,9.52,67,13.92,97.65,29.91a120,120,0,0,1,42,35.86c-11.81-3.73-23.62-7.47-35.45-11.14-34-10.53-67.83-21.32-102.25-30.25-9.29-2.39-13-16.06-6.54-23.42C1392.37,287.48,1394,287.67,1395.55,288.11Zm-351.79-54c64.29,5.56,126.92,9.64,188.88,20.14,4.84.82,6.44,2.35,5.18,7-.81,3-1.24,6-2,9-2.38,9.2-6.52,12.22-15.72,10.8-34.88-5.34-69.81-10.34-104.95-13.78-23.15-2.24-46.34-4.2-69.56-5.53-7.19-.42-9.32-3.52-9.37-9.69,0-3.08.39-6.2,0-9.25C1035.46,235.57,1037.48,231.74,1043.76,234.12Zm-361.71,23.3c.86-3.47,3.81-2.64,6.11-3.08,28.38-5.53,57.11-8.32,85.81-11.24,32.33-3.3,64.77-5.71,97.16-8.54,12.7-1.1,12.69-1.12,12.84,11.67,0,2,0,3.93,0,5.89.07,5.88-1.87,9-8.7,9.47-25.44,1.7-50.92,3.45-76.25,6.33-32,3.64-63.88,8.24-95.77,12.74C690.1,282.5,678.8,270.43,682.05,257.42ZM422.46,320.48c13.33-7.89,27.77-13.16,42.74-17,18.94-4.87,37.91-9.61,56.77-14.78,5.25-1.45,7.38-.29,8.71,5,3.47,13.88,2.19,16.08-11.86,19.9C476,325.28,433.52,338.46,391.21,352c-2,.62-3.88,2.47-7,.59A147.92,147.92,0,0,1,422.46,320.48Zm96.61,488.38c-5.26,4.16-10.31,8.54-15.32,12.72-1.87.17-2.64-1.06-3.57-2.09-15.64-17.57-31.26-35.2-47-52.71-1.94-2.17-2.07-3.77.18-5.56.44-.35.88-.7,1.3-1.08,15.89-14.84,15.89-14.86,29.93,1.32,11.58,13.33,23,26.77,34.75,39.95C522,804.43,522.27,806.33,519.07,808.86Zm10.09-16.08q-22.39-25.68-44.79-51.36c-1.9-2.15-3.47-4.38,0-5.94s5.88-9.64,10.51-4.6c16.15,17.5,31.45,35.79,47,53.78a9.28,9.28,0,0,1,1.1,2.28c-1.42,4.11-5.27,5.71-8.29,8C532.23,796.79,530.61,794.44,529.16,792.78Zm-.72-110.54A9.28,9.28,0,0,1,532,675c10.92-8.26,21.71-16.7,33-24.45,7.08-4.89,15.19-4.11,22.35,0,16.38,9.25,32,19.56,41.58,36.58a6.33,6.33,0,0,1,1.18,1.13c20,31,18.73,36.56-5.24,58.59a45,45,0,0,0-5.29,5.41c-9.43,12.3-21.38,18.11-37.2,16.06-10.62-1.39-19.92,2.74-27.47,10.14-4.06,4-6.47,4.33-10.48-.56-13.89-16.9-28.23-33.39-42.68-49.79-2.95-3.34-3.42-5.26.38-7.85,2.55-1.74,4.64-4.08,7.12-5.92C520.08,706.21,529.57,697.43,528.44,682.24Zm141,148.31c-11.26.28-15.45,9.89-22.06,16.31-1.58,4.58-5.31,5.19-9.47,5.19-16.8,0-33.61-.07-50.41.07-3.91,0-7.05-1-9.68-4Q559,826.67,540,805.3c-2.19-2.44-2.41-4.16.46-6,2.32-1.51,4.53-3.2,6.79-4.8q7.1-6.5,14.2-13c5.41-4.94,11.6-7.73,19.08-6.81,17.39,2.19,32-3.08,43.54-16.34h0c.75-.76,1.51-1.5,2.27-2.26,5.49-5.91,11-11.83,16.48-17.78,9-9.75,10.25-21,5-32.65-3.66-8.11-8.55-15.66-12.88-23.46-10.53-15.49-24.48-27.08-40.74-36.13-13.28-7.39-26-7.16-38.27,2.21-8.21,6.24-16.5,12.4-25,18.33-5,3.54-8,8.41-10.21,13.89,1.77,11-3.42,18.45-11.88,24.89-9.35,7.13-18.15,15-27,22.78-3.48,3.08-5.54,4-9.38-.22-9.24-10.18-21.55-13.31-35-13.29-53.85.1-107.71-.19-161.56.2-10,.06-17.73-2.23-24.3-10s-14.29-14.94-21.5-22.36c-2.65-1.85-2.71-4.68-2.71-7.48q.07-28.41.21-56.8c-.1-12.59-.45-25.18-.2-37.75.2-9.59,15.07-23.28,24.91-23.34,26.89-.1,53.77,0,80.64-.08,15.15,0,15.15-.13,16.18-14.59-.07-37.58-2.26-75.21,1.21-112.72,2-21.75,9.9-41.82,21.57-60.32,1.49-2.34,2.89-4.8,5.85-5.76,12.37-4,24.72-8.06,37.73-12.32-.74,4.21-3.29,5.36-5.43,6.87-27,19.42-40.29,46-40.74,79-.47,34.49-.46,69-.66,103.51,1.05,29,12.49,53.12,34,72.51,20,14.36,42.35,20.44,67,20.14,40.94-.53,81.93-.66,122.86.23,26.42.59,47.7,12.52,62.93,34.53,11.17,13.21,15.22,29.1,15.91,45.77.66,16.19,0,32.43,0,48.66q.18,31.77.35,63.51C671.87,828,672,830.48,669.41,830.55Zm273.15-15.44c-17.39,0-34.78.12-52.17.1-5,0-10.48.51-12.32,5.43-3.71,10-11.14,10.26-19.6,9.23-1.38-.17-2.76-.28-4.14-.42-9.17.29-18.33.49-27.5.95-3.61.16-5.22-1-4.79-4.71a34.25,34.25,0,0,0,.05-4.18c.07-25.79,5.77-31,31.92-29.25q50-.15,100.11-.35c3.45,0,5.42.91,5,4.72a7.68,7.68,0,0,0,0,.84C960,815.15,960,815.11,942.56,815.11ZM1080.43,830c-5.86-.06-11.73-.2-17.59-.3-8.65,1.37-16.38,1.62-20.46-8.78-2-5.12-7.68-5.81-13-5.81-20.44.07-40.89-.24-61.33.12-5.82.1-7.37-1.89-6.84-7.18.42-4.18.3-8.39.37-12.59,0-2.44.87-3.77,3.55-2.9a23.38,23.38,0,0,1,10.26-.23l84.21-.07c6.15-.14,12.3-.62,18.43-.32,12.32.6,19.16,7.4,20,19.29C1099.39,830.19,1099.39,830.19,1080.43,830Zm160,18.86c-3.67,4.94-14.63,1.36-22.36,1.42-35.27.2-70.54,0-105.79.42-6.55.08-8-1.77-7.67-7.91.54-10.61.31-21.26.16-31.89-.22-14.73-8.77-24.08-23.51-25.43-7.23-.66-14.53-.52-21.79-.76H975.33q-61.49,0-123,0c-5.31.46-10.67.54-15.89,1.43-13,2.23-20.31,10.38-20.81,23.51-.44,11.76-.41,23.58-.14,35.34.1,4.48-1.19,5.63-5.64,5.61q-62.71-.22-125.44,0c-3.69,0-6.3,0-6.23-5.1.4-28.62.47-57.23.65-85.82-.18-15.12-.32-30.25-.54-45.37-.27-19-6.85-36.06-16.86-52-15.93-18.67-35.07-32.14-60-34.9-11.65-1.28-23.47-.79-35.22-1.11-36.94.06-73.91,1.34-110.79-.14-45.21-1.8-81.07-43.27-79.07-88.83-.6-37-2.93-74.18.91-111,3.81-36.55,25.3-61.45,59.82-74.27,28.08-10.42,56.44-20.06,84.66-30.1,16.3-5.8,20-12.92,15.74-29.59C534.57,281,532,269.54,529,258.18c-1.18-4.46-1.06-6.76,4.57-7.88q64.16-12.9,128.15-26.59c5-1.07,6.18.26,7,4.81,2.61,14,5.61,27.94,8.61,41.88,3.1,14.39,11.08,19.51,25.61,17.19,57-9.15,114.3-15.81,171.93-19.45,12.4-.79,15.65-4.13,15.8-16.65.1-7.85.14-15.72-.06-23.56-.09-3.2-.17-5.34,4.14-5.29l132.77.27c1.16-.38,1.72,0,1.6,1.25.12,8.93.27,17.86.35,26.81.15,12.91,3.59,16.31,16.16,17.2,41.35,2.9,82.65,6.31,123.65,12.64,16.31,2.51,32.67,4.74,49,7.05,12.69,1.78,20.56-3.16,23.67-15.66q5.27-21.15,9.42-42.58c1-5.11,1.93-7,7.89-5.7q63.12,13.61,126.43,26.19c6.84,1.35,6.93,4,5.48,9.37q-4.89,18.19-9,36.62c-2.89,12.79,1.21,20.47,13.63,25,28.64,10.38,57.44,20.4,86.14,30.67,38.62,13.78,62.4,46.84,62.48,87.55.07,32.79-.39,65.58-.61,98.38,2.6,46.93-35.84,88.14-83.68,88.75-47.08.59-94.16.25-141.22.3-14.53,3.34-28.61,7.7-40.68,16.94-24.37,18.65-36.11,43.5-36.28,74q-.3,53.79-.64,107.59C1241.32,833.33,1244.3,843.61,1240.46,848.83Zm450-166.45c-10.33,10.19-19.69,21.4-31.18,30.4-3.92,3.08-8.57,1.85-12.9,1.87-53,.12-106.08.47-159.09-.09-19.38-.2-34.38,5.87-47,21.05-22.34,27-45.86,53-69,79.42-3.67,4.19-7.62,8.17-11.42,12.25-.27.49-.51,1-.8,1.46-11.17,19.13-27.33,27.55-49.57,23.34a35.7,35.7,0,0,0-10.92,0c-14.51,1.85-27.05-.22-34.33-15.05-1.76-3.57-6-4.65-9.47-6.44-3.42,0-6.75.57-6.6-4.82,1.06-40.34-1.9-80.76,1.65-121,3.39-38.35,39.21-71,77.88-71.35,39.82-.4,79.64-.6,119.44,0,24.2.37,46.56-4.42,66.85-17.88,20.89-16.65,32.82-38.45,37.09-64.66-.05-33.07-1.07-66.19.11-99.23,1.5-41.89-11.67-75.71-50.5-99.6,12.46.59,21.13,6.05,30.7,7.78,10.89,2,17,8.73,22.08,18.3,10.65,20.22,17,41.6,17.56,64.2.77,33.33.1,66.71,0,100.08a45.32,45.32,0,0,1,.3,6.67c-.54,5.48,2.28,7.8,7.28,7.9,6.71.14,13.43,0,20.16,0,22.43,0,44.84,0,67.25.19,13.14.1,26.76,13.77,26.76,26.66,0,29.7,0,59.39-.07,89.09C1692.8,676.28,1693,679.82,1690.41,682.38Z"/><path class="cls-2" d="M1544.43,439.29c-.08-40.71-23.86-73.77-62.48-87.55-28.7-10.27-57.5-20.29-86.14-30.67-12.42-4.5-16.52-12.18-13.63-25q4.11-18.41,9-36.62c1.45-5.38,1.36-8-5.48-9.37q-63.32-12.51-126.43-26.19c-6-1.28-6.91.59-7.89,5.7Q1247.27,251,1242,272.2c-3.11,12.5-11,17.44-23.67,15.66-16.35-2.31-32.71-4.54-49-7.05-41-6.33-82.3-9.74-123.65-12.64-12.57-.89-16-4.29-16.16-17.2-.08-8.95-.23-17.88-.35-26.81.12-1.25-.44-1.63-1.6-1.25l-132.77-.27c-4.31,0-4.23,2.09-4.14,5.29.2,7.84.16,15.71.06,23.56-.15,12.52-3.4,15.86-15.8,16.65C817.26,271.78,760,278.44,703,287.59c-14.53,2.32-22.51-2.8-25.61-17.19-3-13.94-6-27.87-8.61-41.88-.85-4.55-2-5.88-7-4.81q-64,13.66-128.15,26.59c-5.63,1.12-5.75,3.42-4.57,7.88,3,11.36,5.58,22.8,8.48,34.19,4.25,16.67.56,23.79-15.74,29.59-28.22,10-56.58,19.68-84.66,30.1-34.52,12.82-56,37.72-59.82,74.27-3.84,36.79-1.51,74-.91,111-2,45.56,33.86,87,79.07,88.83,36.88,1.48,73.85.2,110.79.14,11.75.32,23.57-.17,35.22,1.11,25,2.76,44.11,16.23,60,34.9,10,15.9,16.59,32.92,16.86,52,.22,15.12.36,30.25.54,45.37-.18,28.59-.25,57.2-.65,85.82-.07,5.14,2.54,5.1,6.23,5.1q62.71-.12,125.44,0c4.45,0,5.74-1.13,5.64-5.61-.27-11.76-.3-23.58.14-35.34.5-13.13,7.85-21.28,20.81-23.51,5.22-.89,10.58-1,15.89-1.43q61.47,0,123,0h84.17c7.26.24,14.56.1,21.79.76,14.74,1.35,23.29,10.7,23.51,25.43.15,10.63.38,21.28-.16,31.89-.32,6.14,1.12,8,7.67,7.91,35.25-.44,70.52-.22,105.79-.42,7.73-.06,18.69,3.52,22.36-1.42,3.84-5.22.86-15.5.86-23.56q.33-53.81.64-107.59c.17-30.52,11.91-55.37,36.28-74,12.07-9.24,26.15-13.6,40.68-16.94,47.06-.05,94.14.29,141.22-.3,47.84-.61,86.28-41.82,83.68-88.75C1544,504.87,1544.5,472.08,1544.43,439.29Zm-585,267.24A40.57,40.57,0,1,1,1000,666,40.62,40.62,0,0,1,959.43,706.53Z"/><path class="cls-1" d="M1371,709.57c-.21,18.68-16.76,35.07-35.08,34.74-20.11-.36-35.43-15.65-35.33-35.27.1-18.75,16.33-34.85,35.12-34.83C1355.12,674.24,1371.24,690.39,1371,709.57Zm-34.71-28c-16.21-.09-28.79,12-28.75,27.57,0,15.09,13.49,28.53,28.52,28.52,14.52,0,27.74-13.4,27.86-28.21A28,28,0,0,0,1336.31,681.55Z"/><path class="cls-1" d="M555.14,689.3c16.1-18.64,36.81-20,56-3.6,5.2,9,10.16,17.88,7.84,29.06-3.1,14.9-11.74,24.6-26.32,28.24-13.87,3.46-26.3-.15-35.28-11.53-9.24-11.7-10.93-24.74-4-38.4C554,691.83,554.55,690.56,555.14,689.3Zm29.59-7.83c-15-.54-28.06,11.69-28.62,26.9C555.58,723,569,737.08,584,737.61c14.13.5,27.94-12.72,28.69-27.49S600.39,682,584.73,681.47Z"/><path class="cls-1" d="M959.43,625.39A40.57,40.57,0,1,0,1000,666,40.62,40.62,0,0,0,959.43,625.39Zm0,73.55a33,33,0,1,1,33-33A33,33,0,0,1,959.43,698.94Z"/><rect class="cls-2" width="1" height="1"/><rect class="cls-2" x="1919" y="1079" width="1" height="1"/><rect class="cls-2" y="1079" width="1" height="1"/><rect class="cls-2" x="1919" width="1" height="1"/></g><g id="Capa_3" data-name="Capa 3"><path d="M809.59,406V517H789.76V446.28l-19.51,14.91-16.18,12.53-16.18-12.53-19.51-14.91V517H698.56V406l19.82,15.22,35.69,27.44,35.69-27.44Z"/><path d="M863.51,443v75.5H843.68V440.89a15.8,15.8,0,0,0-13.48-13.48h-4.44V407.74H830v.16a35.55,35.55,0,0,1,13.48,3.65,35.17,35.17,0,0,1,16,16.18,41.48,41.48,0,0,1,2.7,7.45,33,33,0,0,1,1,8.09Z"/><path d="M989.61,497.52v19.82H878.89V484.67a31.54,31.54,0,0,1,2.7-12.85,32.56,32.56,0,0,1,28.87-20h48.06A13,13,0,0,0,957.41,426h-78.2V406.15h78.2a32.63,32.63,0,0,1,32.67,32.68,32.28,32.28,0,0,1-9.36,22.68,32.89,32.89,0,0,1-22.36,10h-47.9a12.91,12.91,0,0,0-11.58,12.85V497.2Z"/><path d="M1093.81,425.66a34.51,34.51,0,0,1,3.65,15.55v75.66h-19.83V439.3a15.81,15.81,0,0,0-13.48-13.48h-58.21V406h56.31a34.46,34.46,0,0,1,15.54,3.64,35.17,35.17,0,0,1,16,16.18Z"/><path d="M1183.42,406a35.81,35.81,0,0,1,35.85,35.84V481a35.81,35.81,0,0,1-35.85,35.85h-34.26A35.81,35.81,0,0,1,1113.31,481V441.84A35.81,35.81,0,0,1,1149.16,406Zm-34.26,19.82A16.25,16.25,0,0,0,1133,442v39.18a16.25,16.25,0,0,0,16.18,16.18h34.26a16.25,16.25,0,0,0,16.18-16.18V442a16.25,16.25,0,0,0-16.18-16.18Z"/></g></g></svg>