<svg xmlns="http://www.w3.org/2000/svg" viewBox="0 0 1920 1080"><defs><style>.cls-1{fill:#010001;}.cls-2{fill:#f2f2f2;}</style></defs><g id="Capa_2" data-name="Capa 2"><g id="Capa_1-2" data-name="Capa 1"><path class="cls-1" d="M1591.15,722.67c.64-8.83-1.76-16-9.07-21.1-5.88-4.14-7.36-9.81-7-16.63.52-11.23.64-22.49.94-33.73q0-46.65,0-93.3c-.84-29.11-.89-58.23,0-87.32-.12-47.12-.18-94.23-.46-141.34,0-4.78,2.55-7.3,5.94-9.36,7.57-4.58,9.87-11,9.75-19.84,0,0,.07-79.56.07-87.15s-7.75-15.85-7.75-15.85c-6.31-7.85-15-9.27-24.44-9.24-39.73.14-79.46-.11-119.18.25-7.86.07-12.46-2.45-16.6-9.26-16.83-27.74-41.68-41.59-74.36-41.34-30.85.22-61.69-.06-92.54.15-47.22.3-82.78,35.88-83.09,82.91-.09,12.34,0,24.68-.21,37-.19,9.75-1.08,10.49-10.69,10.5q-48.5.09-97,.12c-22.86.05-22.92.08-31.16,21.34-2.44,6.34-7.85,3.88-12,4.18-5.15.38-3.15-4.18-3-6.54.26-5.82-2-7.61-7.79-7.58q-51.84.34-103.64,0c-5.66,0-7.5,1.91-7,7.33.21,2.3,1.91,5.5-2.29,6.68-6.89,1.93-11.25-.29-13.4-7.17-5-16-7.81-18.21-24.67-18.25-32.81-.08-65.65,0-98.46,0-14.91,0-14.81-.06-15-14.91-.19-15,1.44-30.21-.87-45.1-6.43-41.64-40.78-70.62-83-70.62,0,0-77.55-.06-94.66-.06s-33.28,6.89-33.28,6.89c-16.83,7.36-30,18.86-38.73,35-3.49,6.45-8.12,8.71-15.45,8.65-35.25-.32-70.51-.16-105.77-.09-14.85,0-30.44-2.69-42.69,12.73-2.53,2.89-3.36,13-3.36,13q0,45.51-.18,91c0,4.67.68,9.28,5.07,11.57,9.49,4.95,12,12.67,10.43,22.63-.46,2.88-.09,5.91-.09,8.87q-.18,59.94-.34,119.88,0,50.34,0,100.67,0,40,.05,80c.16,14.28.24,28.55.55,42.82.09,4-2.08,6.56-4.88,8.58-8.87,6.38-11.93,14.84-10.9,25.63.69,7.3-.06,14.73-.17,22.11.11,18.23.14,36.47.36,54.71.22,18.79,9.59,28,28.33,28.09,4.43,0,9-.5,13.3.08,16.26,2.19,28.7-3.8,38.72-16.41,4.12-5.18,9.17-9.66,13.92-14.31,9.59-9.35,17.27-9.32,26.78.06q30.83,30.39,61.56,60.82c10.16,10.09,20.22,20.27,33.73,26,0,0,16.08,7.77,25.13,7.77h47.84c22.6-.36,45.21.07,67.8.15a61.15,61.15,0,0,1,8.11-.17c13.42,1.4,22.41-3.85,25.88-17.2,1.91-7.35,7.72-7,13-6.38,5.91.63,3.08,5.91,3,8.9-.14,5,1.7,6.22,6.35,6.06,7.86-.27,15.72.09,23.58.18,23.42-.12,46.84-.48,70.27-.19,6.67.07,9.61-1.71,8.41-8.57-.91-5.33,1.49-6.89,6.63-6.37s10.32.24,15.49.31c9.26-.4,14.57-6.37,18.61-13.7,2.21-4,5.09-5.22,9.56-5.17l129.57.1c4.93-.06,8.69,1,10.77,5.79,4.47,10.31,12.69,13.69,23.33,12.72,1.72-.17,3.46.05,5.19.05,10.7,0,10.92,0,11.36,10.32.17,3.77,1.72,4.46,4.94,4.44,32.8-.09,65.62-.19,98.42,0,5.32,0,5-2.83,5.29-6.54.21-2.92-2.4-7.91,3.27-8.07,4.83-.14,10.82-1.28,12.64,5.85,3.56,13.76,12.6,18,26.46,17.66,32.3-.77,64.63-.09,96.94-.33,6.92,0,12.26,1.56,16.58,7.29,3.84,5.07,8.58,9.44,12.94,14.14,10.38,10.41,20.86,20.76,31.13,31.29a11.53,11.53,0,0,0,9.08,3.82c15-.16,30.06-.2,45.08,0a12.24,12.24,0,0,0,9.69-4.22c7.49-7.84,15.18-15.49,22.7-23.27,4.7-4.84,9.22-4.9,13.94,0,6.35,6.51,13.12,12.65,19.1,19.48,4.12,4.71,6.89,4.49,11.17.22,14.64-14.61,29.55-28.95,44.48-43.25,8.85-8.49,8.86-8.28.39-17q-33.72-34.68-67.25-69.53c-12.7-11.51-9.49-12.28-22.67.54-13.44,13.05-26.74,26.25-40.42,39.07-5.13,4.8-5.13,8.32-.47,13.58,2.44,2.79,10.69,5.39,5.09,10.36-4.46,4-6.83-3.63-9.61-6.21-4.4-4.09-12.21-7.7-11.77-13.08.36-4.49,7.43-8.48,11.6-12.58,13.92-13.63,28-27.11,41.79-40.85,15.34-15.24,22-15,36.44,1.7,15.25,20.76,35.59,28.93,61,24.75a12.07,12.07,0,0,1,1.48,0c16.65-.62,26.33-10.55,26.4-27.16q.15-28.8.25-57.59C1591.22,737.82,1590.62,730.21,1591.15,722.67ZM736.48,854.57c.11,3.71-1.48,4.89-4.78,4.57-13.35-1.29-20.72,5.64-24.27,17.69-1.22,4.13-3.66,5.95-8,5.85-14.77-.31-29.54-.43-44.31-.62-26.57.75-53.16,1.09-79.7-.15-19.21-.89-35.16-9.78-48.71-23.35-22.09-22.11-44.6-43.8-66.57-66-9.93-10-20.77-14.52-34.54-9.52-11.76,7.51-20.43,18.34-30,28.15-5,5.08-10.21,7.9-17.54,7.35-7.59-.55-15.26,0-22.88-.23-9.51-.25-14.15-4.43-14.27-14.06-.22-19.43.15-38.86.28-58.3-.17-8.81-.2-17.63-.6-26.44-.2-4.12,2.34-6.33,4.95-8.46,8.2-6.69,11.83-14.83,10.81-25.72-.87-9.22,0-18.6.08-27.9q0-50.74,0-101.48,0-39.47,0-78.94c-.1-47.84-.5-95.68-.07-143.51.1-10.67-2.11-18.8-11.84-23.91-3.56-1.87-4.25-4.8-4.21-8.61.25-27.11.25-54.24.45-81.37.11-14.86,5.23-19.88,20.09-19.9,39.7,0,79.42-.26,119.13.15,12.77.13,20.95-4.64,27.43-15.84,12.72-22,32.55-34.13,58.16-34.59,33.55-.58,67.09-.4,100.64-.11C702.82,149.64,734,180.43,735,217c.39,13.56.19,27.13.4,40.69.25,16.77,6.09,22.33,23,22.33q52.18,0,104.33-.06c4.21,0,8.66-.58,9.78,5.26,2.58,13.29,8.14,23.14,24.52,19.35-2.94,10.84-7.52,14.74-17,15.29q-10.7.62-21.41,1.2c-3.07.18-5.72.63-3.78,4.77l15.35.78c0,.54.05,1.07.08,1.59H854.94c-3.2.07-6.39.19-9.59.18-1.2,0-3.36-.15-3.45-.58-1.9-9.11-8.86-4.42-13.59-4.76-5.36-.38-10.81.48-16.21.89-1.42.11-3.82.28-4,1-1.82,6-7,4-9.83,3.09-10.3-3.5-20.48-1.68-30.76-1-43.59,3-87.25,1.1-130.89,1.38-55.25.36-110.5-.13-165.73.24-36.7.24-67.68,23.44-78.36,57.66a89.66,89.66,0,0,0-3.94,26.94c0,19-.17,38-.26,56.94q0,48.36.08,96.69c.09,12.31.59,24.64.18,36.92a97.24,97.24,0,0,0,8.53,44.42C408.9,668.71,425.45,683.29,449,689a89,89,0,0,0,21.24,2.33q86.64-.12,173.25,0c3.43,0,6.87.25,10.32.4,40-1.32,77.46,31,81.33,70.61C738.08,793,735.7,823.82,736.48,854.57Zm319.94,4.88c-4.8,0-7.94-1.42-10-5.81-4.7-10.13-12.86-13.93-23.88-13.64l-125.72.29c-11-.35-18.56,3.38-23.07,13.29-2,4.4-5,6.52-9.95,5a14.39,14.39,0,0,1-7.37,0c-1.91.18-3.85.22-5.75.56-5.71,1-6.86-1.79-5.66-6.64q0-5.28.08-10.59c.25-1.91.49-3.84.74-5.75-1.14-5.24.58-7.79,6.33-7.58,3.88.14,7.79-.6,11.67-.94,2.37-.89,3.94-2.46,2.89-5s-3.42-1.15-5.2-1.18c-3.56,0-7,1.89-11.65.4,6.92-8.86,14.92-14.87,25.93-15.09,19.16-.39,38.35-.12,57.52-.34,3.52-.05,5.17,1,4.44,4.5-.6,3,2.42,8-4.28,7.88-2.07,0-5.2-.38-5.06,2.71.13,3.62,3.51,2.45,5.76,2.64l50.8,0c2.7-.15,7,1.28,7.17-2.89s-4-2.61-6.32-2.51c-5.78.24-3.66-3.92-4-6.65-.31-2.93-.89-5.84,4-5.78,19.46.28,38.92-.16,58.36.52,10.7.37,19.71,5.16,25.77,15.19-5.14,1.91-9.54-.8-14-.54-1.63.09-3.8-.53-4.14,1.89s1.34,3.52,3.54,3.8c3.9.51,7.86,1.56,11.71,1.29,5.44-.37,7.7,1.78,7.81,6.95,0,1.22.31,2.45.38,3.66C1076.62,859.37,1076.6,859.26,1056.42,859.45Zm-113-50.24c-.43-2.77,1.9-2.83,4-2.82,8.36.08,16.73.27,25.07.06,5.13-.12,3.8,3.42,3.78,6s1.5,5.93-3.58,6.3l-27.59-.16C941.4,816.44,943.94,812.38,943.43,809.21Zm234.66-34.82c-.21,18.25-.41,36.51-.16,54.76.07,5.35-1.75,6-6.39,5.2-8.24-1.35-16.47-3.08-24.92-2.65-1,4.44,1.72,5.57,5.29,6.06,7,1,14.09,2.19,21.17,2.83,3.31.31,4.89,1,4.83,4.69-.15,10.35-.1,20.69.06,31,.06,2.9-.74,3.79-3.73,3.78q-44.34-.17-88.68,0c-3.8,0-4.4-1.55-4.4-4.84,0-13.78.06-27.58-.38-41.35-.15-4.57,2.46-4.6,5.42-5-.22-.92-.27-2.57-.69-2.67-9-2.35-12-11.45-18.45-16.53-3.41-2.66-7.25-4.76-10.88-7.12-14.86-3.46-30-1.48-44.93-1.92-7.63-.22-15.29-.15-22.92.06-4.2.1-7.29-.19-6.77-5.72.19-2.19.46-5.85-2.94-5.75-3.72.12-2.29,3.81-2.18,5.88a24.65,24.65,0,0,1-.28,4.91c-.35,1.26-2.41,1.18-2.41,1.18h-29c-1.84,0-1.45-6.12-1.45-6.12.11-2.35.31-5.81-2.89-5.82-3.6,0-2.67,3.62-2.45,5.73.52,4.8-1.67,5.74-5.94,5.69-16.49-.2-33,0-49.44-.13A61.15,61.15,0,0,0,863.66,803c-7.69,3.68-14.32,8.63-18.89,16a11.8,11.8,0,0,1-9,5.66c-1.53.21-2.94.92-2.94,2.73s1.56,2.21,3.07,2.37c2.3.25,4.43.46,3.91,3.84-2,13.72-.62,27.52-1,41.29-.06,2.35.92,5.08-3.22,5-22.16-.26-44.31-.39-66.48-.55-7.57.2-15.15.34-22.73.68-3.08.15-4.37-.71-4.31-4.06.21-10.28.17-20.57.09-30.85,0-3.12,1.29-4.15,4.36-4.43,6.55-.61,13-1.66,19.59-2.52,1.61-.35,3.25-.63,4.85-1.08s3-1.55,2.94-3.52c-.09-3.32-2.92-1.41-4.33-2.23-7.27,1.17-14.56,2.18-21.79,3.54-4.64.89-5.82-.63-5.75-5.29.31-18.19.25-36.4.22-54.59-.1-46-30.25-81.24-75.55-88.57a20.43,20.43,0,0,1-2.77-.92c-44.74,0-89.49-.11-134.23.07-4.95,0-6.15-1.42-6-6.25.23-9.27,1.71-18.64-.87-27.84l-3.42,1.48c-1.56,9-.58,18.12-.92,27.19-.09,2.31.77,5.38-3.19,5.21-21.3-.88-42.84,2.64-63.87-2.19-18.87-4.34-34.05-14.71-44.14-31.7-8.83-11-12-24.08-12.43-37.59-.63-17.62,0-35.29,0-52.94V504.59a1.33,1.33,0,0,1,0-1.41c0-7.42,0-14.86,0-22.28a1.33,1.33,0,0,1,0-1.41c0-3,0-6,0-8.95-.09-20-.1-40-.32-59.93-.05-4.39,1.94-6.59,5.72-8.36,5.4-2.54,11.2-3.63,16.84-5.26,2.24-.65,4.63-1.46,4.05-4.31-.73-3.54-3.4-1.76-5.32-1.29a134.14,134.14,0,0,0-14.21,3.87c-5,1.84-5.62.06-4.34-4.19,5.95-20,17.7-35.56,35.6-46.27a70.79,70.79,0,0,1,36.55-10.32q101.77-.24,203.53-.14c1.36,0,2.94-.48,4.34,1.27-2,2.86-5.38,1.14-7.82,2.21-1.72.75-4.18.65-4.06,3.41.13,3.32,2.82,2,4.47,2,8.69.05,17.09-2.21,25.59-3.53,1.32-.19,3.13-1.17,3.57-2.26,1.87-4.64,6.46-4.17,8.77-2.89,10.27,5.72,20.7,1.87,30.84.93,16.77-1.55,33.5-1,50.25-1.17,24.18-.18,48.36.06,72.54-.09,26.92-.16,44.41-17,45.43-43.91.15-4,1.27-5,5.08-4.92l95.93,0c4.15-.1,5.23.94,5.37,5.23.81,26.58,18.77,43.64,45.6,43.67,32.06,0,64.14.12,96.22-.05,12.61-.07,25.07,1.35,37.57,2.6,5.47.53,10.76,1.46,16.46-1.57,3.69-2,10.09-3.92,13.23,2.94a4.21,4.21,0,0,0,3,1.8c8.33.84,16.4,3.6,24.86,3.27,1.73-.06,4.39,1.05,4.83-1.84.55-3.45-2.73-3-4.56-3.4-3.69-.79-7.48-1-11.91-1.56,2.11-2.89,4.47-2,6.37-2,68.09-.07,136.19-.3,204.28,0,34.15.15,64.17,23.45,73.5,55.95.45,1.58,1.32,3.79.64,4.81-1.41,2.09-3.56.09-5.32-.28-4.56-1-9.07-2.18-13.58-3.3-2.15-.54-4.89-1.56-5.43,1.52-.46,2.67,2.3,3.32,4.48,4,5.38,1.67,10.72,3.51,16.12,5.12,4.43,1.34,6.09,4.09,6.07,8.74-.15,67.36-.07,134.7-.28,202,0,8.07-1.19,16.18-4.9,23.63-7.26,25.16-35.21,46.91-63,48.37-11.29.61-22.65,0-34,0-5.91.1-11.84,0-17.74.38-4.07.27-5-1.36-4.81-5.12.27-7.14.12-14.3,0-21.46,0-2.28.57-5.83-2.62-5.92s-2.81,3.36-2.84,5.75c-.08,6.9-.4,13.82,0,20.71.29,5.08-1.65,6-6.33,6-41.44-.13-82.91-.83-124.32.24-38,1-65.22,19.83-80.64,54.79C1179.47,751.14,1178.22,762.74,1178.09,774.39Zm121.33,89.73c.44-.45.9-.89,1.36-1.34a56,56,0,0,1,18.66,19.72Zm39.78,22.66c-1.78,1.74-3.23,1.72-5-.1-5.31-5.51-10.7-10.92-16.08-16.34-1.36-1.38-2.38-2.86-.12-4.11,5.52-3,2-4.8-1-5.31-14.34-2.39-21.07-14.33-30.09-23.4-12.05-6.7-9.69-18.09-9.2-28.76.13-2.87,2.72-4.58,4.65-6.44q38.12-37.23,76.26-74.42c2.13-2.11,4.34-2.64,7.15-3,12-1.49,22.27.89,29.38,11.74,1.87,2.83,4.58,5.09,6.91,7.63,6.38,6.37,13.43,12.21,19,19.26s4.22,16.21,1.08,23.11c-4,8.89-13,14.45-21.53,22.77,0-5.31.24-8.22-.06-11.06-.33-3-1.69-4.65-4.65-1.94-.18.94-.36,1.88-.53,2.83.59,7.42-2.21,14-3.9,21.06-2.52,10.38-9.2,17.24-13.65,25.81-7.2,13.83-19,14.86-31.3,16.66-3.14.44-6.4.1-9.6.22-1.69.07-3.75.06-3.58,2.56.14,1.94,1.93,2.11,3.35,2.14,5.41.14,10.83.16,16.24.22,1.17,0,2.52-.49,3.19,1s-.64,2.22-1.44,3C1349.5,876.87,1344.31,881.79,1339.2,886.78Zm-53.43-41.36c3.41,2.59,5.9,6.38,9.1,10-3.21,1.72-4.52-.65-5.81-2q-13.38-13.6-26.55-27.44c-5.2-5.48-5.12-21.19.36-26.52q48.42-47.15,97.1-94c5.89-5.66,13.72-2.33,20.46-2,7.18.39,15.67,15,14.12,23.07-4.68-3.54-8.46-7.36-15.09-7.79-13.41-.88-23.47,2.5-33.21,12.66-22.29,23.31-46,45.24-69.28,67.61-3.69,3.54-4.31,7.51-5,12.37C1269.83,825.74,1274.4,836.68,1285.77,845.42Zm217.06-11c1.94.15,2.9,1.66,4.1,2.89,16.17,16.61,32.27,33.26,48.62,49.69,3.06,3.1,2.83,4.77-.18,7.65q-21.63,20.73-42.84,41.91c-2.71,2.71-3.89,2.13-6.34-.4Q1481.82,910.92,1457,886c-3-3-3.86-4.53-.16-8,14-13.12,27.65-26.71,41.47-40.09C1499.66,836.66,1500.62,834.72,1502.83,834.44Zm-6.68-8.27c1.38.46,1.67,1.65,1.76,2.92-.13,2.27-2,3.29-3.35,4.62l-39.88,38.44a14.51,14.51,0,0,1-2.09,2.06c-1.9,1.18-3.71,4.47-6.12,1.82-2-2.22.74-3.91,2.22-5.37q21.51-21.25,43.12-42.47C1493,827,1494.09,825.48,1496.15,826.17Zm-62.32,35.62c-4.56-2.52-.41-4.56,1.54-6.46q20.67-20.08,41.35-40.17c1.56-1.49,2.73-4.81,5.84-2.53s6,4.89,9.11,7.48c-2.06,2.28-2.81,3.22-3.67,4-14.39,13.82-29,27.45-43.12,41.53C1438,872.59,1437.08,863.6,1433.83,861.79ZM1444,881.35c-.9,2.38-2.19,4.59-4.94,4.78-1.66.11-2.54-1.42-2.3-3.08.37-2.38,1.69-4.1,4.33-4.09C1442.53,879,1444.11,879.21,1444,881.35Zm1.87,7.52c2.42-2.59,3.8-2.13,5.87.06,6.77,7.17,13.69,14.21,20.45,21.4,1.11,1.17,3.48,2.65.35,4.35-11.11,6.05-18,16.57-26.74,25.18-3.62,3.55-7,5.26-12.25,5.11-14.18-.42-28.38-.15-40.08-.15C1410.57,926.63,1428.32,907.84,1445.89,888.87Zm-24.74-11.45c14.59,13.25,14.55,13.19.5,26.65C1411,914.28,1400.36,924.49,1390,935c-3.46,3.53-5.35,4.49-9.06,0-6.59-7.89-14-15.09-21.08-22.58l-17-16.23c-2-2-1.73-3.48.33-5.45q22.11-21.13,44-42.52c2.11-2.06,3.82-2.73,6.13-.25C1402.56,857.86,1411.87,867.63,1421.15,877.42Zm37.1-74.91c-16,15.68-32.2,31.17-48.17,46.88-2.67,2.62-4.52,3.11-7,0-1.85-2.29-4.1-4.23-6.06-6.44-2.62-3-3.33-5.88.15-8.91,2.28-2,4.19-4.56,3.72-7.7-1.13-7.59,2.71-12.49,8.09-17,3.78-3.14,6.89-7.11,10.74-10.12,7.69-6,9.85-13.63,10.06-23.2s-2.32-17.07-9.69-23.32c-5.42-4.61-9.91-10.28-15.24-15-4.26-3.79-4.82-8-3.74-13,2.17-.74,3,.74,4,1.73,14,14.49,27.93,29.13,42.17,43.43,3.19,3.21,1.82,4.89-.5,7.16-1.91,1.88-4.71,4.4-2.31,6.72s5-.61,6.69-2.55c2.83-3.24,4.6-2.86,7.51.32C1468.5,792.33,1468.74,792.26,1458.25,802.51ZM1579.46,726c-.42,25.39-.09,50.8-.07,76.21,0,11.41-4.69,16.08-16.17,16.21-5.67.06-11.42-.52-17,.15-10.33,1.26-18-2.55-24.54-10.32-5.21-6.2-11.13-11.82-16.73-17.7-9.48-8.12-19.55-12.18-32.35-7.44-6.29,2.33-8.64-5.15-12.38-8.41-3-2.6,1.78-4.15,2.94-6.23.23-.43.69-.69,1-1.08,1.75-2.21,5.63-4.77,3.19-7.2-2.77-2.74-5.22,1.5-6.76,3.44-4.34,5.53-7.16,4.75-11.63-.36-9.19-10.5-19.25-20.24-28.94-30.28-10-9.44-22.19-17.5-20.83-35.26-4,12.13-7.64,7.38-11.94,2.13-3.16-3.84-8.24-2.25-12.49-2.93l-9.47,0c-4-.18-6.81,1.71-9.63,4.45-31.33,30.59-62.63,61.23-94.33,91.44-5.91,5.65-8.89,11.48-8,19.37.65,5.51-2.32,11.64,2.73,16.4l53.43,50.77c-3,4.51-5.5,3.25-7.41,3.26-26.08.09-52.17-.16-78.26.19-6.71.11-9.9-2.07-12.31-8.38-5-13-8.77-15.14-22.85-14.74-4.06.12-5.14-1.17-5-5,.31-7.85.28-15.72.38-23.59-.06-22.86-1.7-45.78,1-68.57,4.53-38.79,37.42-69.8,76.64-70.88,34.18-.93,68.42-.12,102.64-.07h7.5l54.75.09c11.51-.28,23.1.09,34.55-1,22.18-2,39.57-13.34,53.9-29.86,12.07-16.83,16.77-35.61,16.67-56.27-.33-65.37.6-130.73-.33-196.09-.56-40.83-31.11-73.32-69.83-78.75-9.33-1.31-18.68-1.33-28-1.33q-129.88,0-259.77,0c-10.58,0-21.18-1.08-31.73-2.06-6-.55-11.69-.79-17.49,1.21-4.23,1.45-8.67,2.15-12.21-2.09a5.15,5.15,0,0,0-3.34-1.23q-13.29-.86-26.58-1.49c-1.15-.06-3.27.2-3.36.65-2.3,11.05-10.21,2.92-15.19,4.53h-17.73c7.33-2.87,12.55-1.14,17.73-.68,3.44-4.24,2.48-6.09-3-6.22-7.63-.16-15.26-.71-22.9-1.08-6-.3-12.82-6-14.39-11.74-.89-3.17.87-3.05,3-3.26,14-1.33,16.78-3.23,20.21-16.74,1.55-6.21,4.19-8.24,10.55-8.19,35,.25,70.08.16,105.1,0,16.68-.08,22.27-6.12,22.67-23s-1.48-34,1.42-50.95c5.25-30.48,33.68-55.92,64.56-56.48,35.27-.64,70.58-.81,105.84,0,23.54.56,42.42,12.19,54.21,32.25,8.14,13.82,18.23,18.49,33.75,18.15,38.23-.84,76.49-.31,114.73-.27,14.52,0,19.55,5,19.64,19.53.18,26.89.12,53.78.4,80.67.05,5.25-1.51,9-6.21,11.49-7.42,3.86-9.67,10.09-9.67,18.31q.32,179.87.07,359.69c0,7.79,1.91,14.06,8.17,18.67S1579.59,718.46,1579.46,726Z"/><path class="cls-2" d="M1519.62,402.28c-5.4-1.61-10.74-3.45-16.12-5.12-2.18-.67-4.94-1.32-4.48-4,.54-3.08,3.28-2.06,5.43-1.52,4.51,1.12,9,2.34,13.58,3.3,1.76.37,3.91,2.37,5.32.28.68-1-.19-3.23-.64-4.81-9.33-32.5-39.35-55.8-73.5-55.95-68.09-.3-136.19-.07-204.28,0-1.9,0-4.26-.86-6.37,2,4.43.53,8.22.77,11.91,1.56,1.83.38,5.11-.05,4.56,3.4-.44,2.89-3.1,1.78-4.83,1.84-8.46.33-16.53-2.43-24.86-3.27a4.21,4.21,0,0,1-3-1.8c-3.14-6.86-9.54-4.9-13.23-2.94-5.7,3-11,2.1-16.46,1.57-12.5-1.25-25-2.67-37.57-2.6-32.08.17-64.16.09-96.22.05-26.83,0-44.79-17.09-45.6-43.67-.14-4.29-1.22-5.33-5.37-5.23l-95.93,0c-3.81-.06-4.93.92-5.08,4.92-1,26.89-18.51,43.75-45.43,43.91-24.18.15-48.36-.09-72.54.09-16.75.12-33.48-.38-50.25,1.17-10.14.94-20.57,4.79-30.84-.93-2.31-1.28-6.9-1.75-8.77,2.89-.44,1.09-2.25,2.07-3.57,2.26-8.5,1.32-16.9,3.58-25.59,3.53-1.65,0-4.34,1.28-4.47-2-.12-2.76,2.34-2.66,4.06-3.41,2.44-1.07,5.82.65,7.82-2.21-1.4-1.75-3-1.27-4.34-1.27q-101.76,0-203.53.14a70.79,70.79,0,0,0-36.55,10.32c-17.9,10.71-29.65,26.3-35.6,46.27-1.28,4.25-.68,6,4.34,4.19a134.14,134.14,0,0,1,14.21-3.87c1.92-.47,4.59-2.25,5.32,1.29.58,2.85-1.81,3.66-4.05,4.31-5.64,1.63-11.44,2.72-16.84,5.26-3.78,1.77-5.77,4-5.72,8.36.22,20,.23,40,.32,59.93,0,3,0,6,0,8.95a1.33,1.33,0,0,0,0,1.41c0,7.42,0,14.86,0,22.28a1.33,1.33,0,0,0,0,1.41v56.33c-.07,17.65-.66,35.32,0,52.94.48,13.51,3.6,26.61,12.43,37.59,10.09,17,25.27,27.36,44.14,31.7,21,4.83,42.57,1.31,63.87,2.19,4,.17,3.1-2.9,3.19-5.21.34-9.07-.64-18.16.92-27.19l3.42-1.48c2.58,9.2,1.1,18.57.87,27.84-.1,4.83,1.1,6.27,6,6.25,44.74-.18,89.49-.09,134.23-.07a20.43,20.43,0,0,0,2.77.92C712,693.73,742.13,729,742.23,775c0,18.19.09,36.4-.22,54.59-.07,4.66,1.11,6.18,5.75,5.29,7.23-1.36,14.52-2.37,21.79-3.54,1.41.82,4.24-1.09,4.33,2.23.06,2-1.2,3-2.94,3.52s-3.24.73-4.85,1.08c-6.54.86-13,1.91-19.59,2.52-3.07.28-4.37,1.31-4.36,4.43.08,10.28.12,20.57-.09,30.85-.06,3.35,1.23,4.21,4.31,4.06,7.58-.34,15.16-.48,22.73-.68,22.17.16,44.32.29,66.48.55,4.14,0,3.16-2.69,3.22-5,.37-13.77-1-27.57,1-41.29.52-3.38-1.61-3.59-3.91-3.84-1.51-.16-3.08-.42-3.07-2.37s1.41-2.52,2.94-2.73a11.8,11.8,0,0,0,9-5.66c4.57-7.33,11.2-12.28,18.89-16a61.15,61.15,0,0,1,18.94-2.41c16.47.09,32.95-.07,49.44.13,4.27,0,6.46-.89,5.94-5.69-.22-2.11-1.15-5.76,2.45-5.73,3.2,0,3,3.47,2.89,5.82,0,0-.39,6.12,1.45,6.12h29s2.06.08,2.41-1.18a24.65,24.65,0,0,0,.28-4.91c-.11-2.07-1.54-5.76,2.18-5.88,3.4-.1,3.13,3.56,2.94,5.75-.52,5.53,2.57,5.82,6.77,5.72,7.63-.21,15.29-.28,22.92-.06,15,.44,30.07-1.54,44.93,1.92,3.63,2.36,7.47,4.46,10.88,7.12,6.49,5.08,9.41,14.18,18.45,16.53.42.1.47,1.75.69,2.67-3,.41-5.57.44-5.42,5,.44,13.77.43,27.57.38,41.35,0,3.29.6,4.87,4.4,4.84q44.34-.2,88.68,0c3,0,3.79-.88,3.73-3.78-.16-10.34-.21-20.68-.06-31,.06-3.64-1.52-4.38-4.83-4.69-7.08-.64-14.12-1.87-21.17-2.83-3.57-.49-6.31-1.62-5.29-6.06,8.45-.43,16.68,1.3,24.92,2.65,4.64.77,6.46.15,6.39-5.2-.25-18.25,0-36.51.16-54.76.13-11.65,1.38-23.25,6.11-34,15.42-35,42.64-53.81,80.64-54.79,41.41-1.07,82.88-.37,124.32-.24,4.68,0,6.62-.93,6.33-6-.4-6.89-.08-13.81,0-20.71,0-2.39-.37-5.84,2.84-5.75s2.58,3.64,2.62,5.92c.17,7.16.32,14.32,0,21.46-.15,3.76.74,5.39,4.81,5.12,5.9-.37,11.83-.28,17.74-.38,11.32,0,22.68.62,34,0,27.78-1.46,55.73-23.21,63-48.37,3.71-7.45,4.87-15.56,4.9-23.63.21-67.34.13-134.68.28-202C1525.71,406.37,1524.05,403.62,1519.62,402.28ZM464.3,385.08l-27.64,7.08c-1.52-.22-3.29.42-3.67-1.71-.31-1.65.31-3.23,1.82-3.63,10-2.61,20-5.09,30-7.53,1.49-.36,2.19.7,2.32,2.12C467.29,383.5,466.21,384.59,464.3,385.08Zm44.4-10.52c-8.25,2.27-16.42,4.88-24.67,6-2-.26-4.55,1.34-5.24-1.49s1.7-3.75,3.88-4.3c8.06-2,16.12-4,24.21-5.88,1.61-.37,4.07-1.81,4.66,1.41C512,372.47,511.1,373.9,508.7,374.56Zm9.59,94.74c.48-2.39-.91-6.24,2.93-6.36,4.09-.13,1.54,4.36,3.14,6.21-.18,8.06-.3,16.12-.56,24.16,0,1.51.69,3.77-2,3.94s-3.11-1.8-3.19-3.91q-.4-10.59-.78-21.2C518,471.19,518.11,470.23,518.29,469.3Zm5.55-22.39c0,1.41,0,3.11-2.07,3.2S518.6,449,518.61,447c0-9.56,0-19.13.18-28.7,0-1.78.92-3.66,3-3.45,2.25.22,2,2.52,2,4.1.14,4.65.05,9.34.05,14S523.9,442.24,523.84,446.91Zm-.1,95.49c0,1.33.15,3.27-2,3.23a2.76,2.76,0,0,1-3-2.7c0-9.85-.1-19.7,0-29.56,0-1.76,1.25-3.54,3.26-3.33,1.81.18,1.74,2.16,1.77,3.53.09,4.93,0,9.85,0,14.78h-.11C523.78,533,523.84,537.72,523.74,542.4Zm-2,96.93c-2.25.13-3-1.29-3.05-3.25-.06-9.33-.13-18.65-.12-28,0-1.85.74-3.48,3-3.29,2,.17,2,2,2,3.37.07,4.92,0,9.82,0,14.74h.13c0,4.16.06,8.34,0,12.52C523.63,637,524.49,639.15,521.72,639.33Zm2.15-51.22c-.06,1.72.74,4.34-2.55,4.18-2.83-.14-2.75-2.33-2.8-4.29-.16-7.61-.26-15.23-.38-22.83,1.36-2.78-.86-8.33,3.82-8,3.33.2,1,5.52,2.5,8.16C524.29,572.89,524.15,580.51,523.87,588.11Zm32.23-224c-9.26,2.32-18.39,5.79-28,5.69-4.45-.05-4.77,1.55-4.68,5,.21,8.38.23,16.75.16,25.1,0,1.44.64,4-2.1,3.8-2-.12-2.79-1.87-2.8-3.75,0-9.35-.27-18.72.1-28.06.19-5.13,6-5.12,8.89-6.2,9.13-3.43,18.88-5.17,28.39-7.55,1.94-.15,2.87.63,3,2.49C559.16,362.72,558.11,363.6,556.1,364.12Zm46.09-8.89c-8.85,1.82-17.68,3.66-26.52,5.45-1.84.38-3.74.06-4.09-2s1.2-3.05,3-3.6c9.38-2.89,19.07-4.26,28.74-5.69,1.56-.22,3,.05,2.83,2.78C605.94,354,604.22,354.81,602.19,355.23Zm44.82-8c-8,1.39-16.06,2.44-24.12,3.36-1.59.18-4.36,1.36-4.6-1.84-.16-2.35,1.72-3.49,3.78-3.82,8-1.27,16.06-2.42,23.69-3.54,2.67.55,6.17-1.16,6.64,2.3S649.07,346.9,647,347.26ZM816.45,831.85c-6.61.46-13.21,1.12-19.8,1.72a2.3,2.3,0,0,0,0-.26c-2.68.21-5.38.52-8.07.58-1.44,0-3.06-.25-3.17-2.24a2.56,2.56,0,0,1,2.62-2.89q14.64-1.46,29.29-2.83c1.61-.14,3,.32,2.89,2.35C820.05,830.59,818.88,831.67,816.45,831.85ZM926.57,324.13c-7.11.34-14.21.81-21.3,1.15-2,.09-4.24.14-4.52-2.51-.22-2.12,1.44-2.89,3.3-3.18,0,0,33.47-3.8,32.92.21C934.78,325,930.5,324,926.57,324.13ZM966.72,323l-13.17.61c-1.8.74-3.52.5-4.06-1.73-.34-1.47-.14-3.57,1.6-3.53l16.51-.5c1.73,0,3.7.53,3.5,2.84C970.86,323.39,968.9,323.65,966.72,323Zm47.89,2.36c-8.87-.45-17.73-.92-26.59-1.34a3.15,3.15,0,0,1-3.23-3.31c-.18-2.57,1.8-2.46,3.55-2.48H998a1.66,1.66,0,0,1,0-.22c5.64.49,11.29,1,17,1.42,2.06.14,3.18.8,3.08,3.07S1016.58,325.45,1014.61,325.36Zm116.47,508.4a187.33,187.33,0,0,1-29.9-2.77c-.75-.14-1.3-1.4-2-2.14,1.48-3.73,4.65-2.83,7.45-2.59,8.92.8,17.82,1.7,26.74,2.56C1133.6,830.94,1134.61,833.79,1131.08,833.76ZM1301.2,349c-.43,2.92-3,2.09-4.73,1.85-8-1.11-16-2.28-23.88-3.75-1.77-.32-5,.26-4.65-3.27s3.39-1.65,4.91-2.46c8.3,1.19,16.3,2.33,24.29,3.5C1299.51,345.17,1301.61,346.13,1301.2,349Zm46.89,9.07c-.53,3-2.67,2.9-5.07,2.41q-12.23-2.55-24.46-4.93c-2.31-.46-4.74-1-4.28-3.9s3-1.7,5.35-2c8,1.56,16.39,3.14,24.77,4.85C1346.28,354.86,1348.59,355.21,1348.09,358Zm33,10.4c-5.51-1.17-10.93-2.74-16.42-4.08-2.1-.51-3.88-1.33-3.18-3.91.58-2.19,2.49-2.22,4.21-1.78,10.62,2.73,21.79,3.58,31.41,9.71,2.62,1.67,3.94,3.5,3.92,6.46,0,7.63.06,15.26-.09,22.88,0,2,.6,5-2.74,5-4,0-2.71-3.35-2.8-5.54-.16-3.69,0-7.38,0-11.07C1395.47,371.42,1395.46,371.48,1381.13,368.43Zm14.52,50.31c.08-1.71,1.11-3.6,3.14-3.34,1.51.17,2.12,2,2.14,3.45q.1,14,0,28c0,1.57-.55,2.89-2.45,3-2.2.13-3.09-1.05-3.09-3.11V433.47h.16C1395.59,428.57,1395.47,423.65,1395.65,418.74Zm-.46,72.54c.06-7.86.15-15.72.19-23.58,0-2.31,0-4.91,3.13-4.7,2.52.16,2.52,2.67,2.52,4.61,0,9.57-.12,19.15-.19,28.73C1395.12,498.93,1396.1,494.05,1395.19,491.28Zm5.66,97.54c0,1.85-.59,3.45-3,3.2-1.89-.19-2.37-1.56-2.37-3.13,0-9.09,0-18.19.15-27.29,0-2,.79-4.34,3.1-4.21,1.83.12,2.13,2.43,2.16,4.14.07,4.43,0,8.86,0,13.27h-.06C1400.88,579.48,1400.93,584.15,1400.85,588.82Zm0-47.09c0,1.62-.31,3.74-2.65,3.59-2-.14-2.76-1.69-2.73-3.68.06-4.44,0-8.89,0-13.32h.12c0-4.69-.06-9.37,0-14.06,0-1.82.86-3.63,2.86-3.67,2.32-.06,2.47,2.15,2.47,3.78Q1401,528.05,1400.82,541.73Zm-.09,93.11c-.29,1.64.42,4.59-2.62,4.32-2.44-.2-2.65-2.55-2.67-4.56q0-14.39,0-28.77c4.27-1.77,5.78,0,5.78,4.23,0,5.34.2,10.66.31,16A85.59,85.59,0,0,1,1400.73,634.84Zm40.57-256.69c-.68,3.81-3.75,2-6.06,2.49a150.33,150.33,0,0,1-25.22-6.88c-1.58-.55-3.45-1.48-3-3.61.67-2.85,3.25-1.9,4.86-1.54,8.82,1.89,17.59,4,26.35,6.16C1440,375.18,1441.73,375.84,1441.3,378.15Zm45.91,12.15c-.57,2.23-2.51,2.23-4.17,1.83-8.8-2.11-17.58-4.29-26.32-6.63-1.83-.49-3.89-1.51-3.42-4.08s2.43-1.83,6.21-1.43c7,1.83,16,4.13,25,6.6C1486.1,387,1487.79,388.09,1487.21,390.3Z"/><path class="cls-1" d="M1401,397.71c0,2,.6,5-2.74,5-4,0-2.71-3.35-2.8-5.54-.16-3.69,0-7.38,0-11.07.07-14.7.06-14.64-14.27-17.69-5.51-1.17-10.93-2.74-16.42-4.08-2.1-.51-3.88-1.33-3.18-3.91.58-2.19,2.49-2.22,4.21-1.78,10.62,2.73,21.79,3.58,31.41,9.71,2.62,1.67,3.94,3.5,3.92,6.46C1401.06,382.46,1401.13,390.09,1401,397.71Z"/><path class="cls-1" d="M937,319.8c-2.19,5.19-6.47,4.15-10.4,4.33-7.11.34-14.21.81-21.3,1.15-2,.09-4.24.14-4.52-2.51-.22-2.12,1.44-2.89,3.3-3.18C904.05,319.59,937.52,315.79,937,319.8Z"/><path class="cls-1" d="M559,360.64c.13,2.08-.92,3-2.93,3.48-9.26,2.32-18.39,5.79-28,5.69-4.45-.05-4.77,1.55-4.68,5,.21,8.38.23,16.75.16,25.1,0,1.44.64,4-2.1,3.8-2-.12-2.79-1.87-2.8-3.75,0-9.35-.27-18.72.1-28.06.19-5.13,6-5.12,8.89-6.2,9.13-3.43,18.88-5.17,28.39-7.55C558,358,558.91,358.78,559,360.64Z"/><path class="cls-1" d="M971.1,320.69c-.24,2.7-2.2,3-4.38,2.31l-13.17.61c-1.8.74-3.52.5-4.06-1.73-.34-1.47-.14-3.57,1.6-3.53l16.51-.5C969.33,317.88,971.3,318.38,971.1,320.69Z"/><path class="cls-1" d="M523.8,493.31c0,1.51.69,3.77-2,3.94s-3.11-1.8-3.19-3.91q-.4-10.59-.78-21.2c.14-.95.25-1.91.43-2.84.48-2.39-.91-6.24,2.93-6.36,4.09-.13,1.54,4.36,3.14,6.21C524.18,477.21,524.06,485.27,523.8,493.31Z"/><path class="cls-1" d="M1441.3,378.15c-.68,3.81-3.75,2-6.06,2.49a150.33,150.33,0,0,1-25.22-6.88c-1.58-.55-3.45-1.48-3-3.61.67-2.85,3.25-1.9,4.86-1.54,8.82,1.89,17.59,4,26.35,6.16C1440,375.18,1441.73,375.84,1441.3,378.15Z"/><path class="cls-1" d="M1348.09,358c-.53,3-2.67,2.9-5.07,2.41q-12.23-2.55-24.46-4.93c-2.31-.46-4.74-1-4.28-3.9s3-1.7,5.35-2c8,1.56,16.39,3.14,24.77,4.85C1346.28,354.86,1348.59,355.21,1348.09,358Z"/><path class="cls-1" d="M606.13,352.18c-.19,1.85-1.91,2.63-3.94,3.05-8.85,1.82-17.68,3.66-26.52,5.45-1.84.38-3.74.06-4.09-2s1.2-3.05,3-3.6c9.38-2.89,19.07-4.26,28.74-5.69C604.86,349.18,606.31,349.45,606.13,352.18Z"/><path class="cls-1" d="M1487.21,390.3c-.57,2.23-2.51,2.23-4.17,1.83-8.8-2.11-17.58-4.29-26.32-6.63-1.83-.49-3.89-1.51-3.42-4.08s2.43-1.83,6.21-1.43c7,1.83,16,4.13,25,6.6C1486.1,387,1487.79,388.09,1487.21,390.3Z"/><path class="cls-1" d="M508.7,374.56c-8.25,2.27-16.42,4.88-24.67,6-2-.26-4.55,1.34-5.24-1.49s1.7-3.75,3.88-4.3c8.06-2,16.12-4,24.21-5.88,1.61-.37,4.07-1.81,4.66,1.41C512,372.47,511.1,373.9,508.7,374.56Z"/><path class="cls-1" d="M523.86,432.92c0,4.66,0,9.32,0,14,0,1.41,0,3.11-2.07,3.2S518.6,449,518.61,447c0-9.56,0-19.13.18-28.7,0-1.78.92-3.66,3-3.45,2.25.22,2,2.52,2,4.1C524,423.57,523.86,428.26,523.86,432.92Z"/><path class="cls-1" d="M464.3,385.08l-27.64,7.08c-1.52-.22-3.29.42-3.67-1.71-.31-1.65.31-3.23,1.82-3.63,10-2.61,20-5.09,30-7.53,1.49-.36,2.19.7,2.32,2.12C467.29,383.5,466.21,384.59,464.3,385.08Z"/><path class="cls-1" d="M1301.2,349c-.43,2.92-3,2.09-4.73,1.85-8-1.11-16-2.28-23.88-3.75-1.77-.32-5,.26-4.65-3.27s3.39-1.65,4.91-2.46c8.3,1.19,16.3,2.33,24.29,3.5C1299.51,345.17,1301.61,346.13,1301.2,349Z"/><path class="cls-1" d="M647,347.26c-8,1.39-16.06,2.44-24.12,3.36-1.59.18-4.36,1.36-4.6-1.84-.16-2.35,1.72-3.49,3.78-3.82,8-1.27,16.06-2.42,23.69-3.54,2.67.55,6.17-1.16,6.64,2.3S649.07,346.9,647,347.26Z"/><path class="cls-1" d="M1018,322.5c-.11,2.3-1.44,2.95-3.41,2.86-8.87-.45-17.73-.92-26.59-1.34a3.15,3.15,0,0,1-3.23-3.31c-.18-2.57,1.8-2.46,3.55-2.48H998a1.66,1.66,0,0,1,0-.22c5.64.49,11.29,1,17,1.42C1017,319.57,1018.12,320.23,1018,322.5Z"/><path class="cls-1" d="M1131.08,833.76a187.33,187.33,0,0,1-29.9-2.77c-.75-.14-1.3-1.4-2-2.14,1.48-3.73,4.65-2.83,7.45-2.59,8.92.8,17.82,1.7,26.74,2.56C1133.6,830.94,1134.61,833.79,1131.08,833.76Z"/><path class="cls-1" d="M1401,446.85c0,1.57-.55,2.89-2.45,3-2.2.13-3.09-1.05-3.09-3.11V433.47h.16c0-4.9-.12-9.82.06-14.73.08-1.71,1.11-3.6,3.14-3.34,1.51.17,2.12,2,2.14,3.45Q1401,432.85,1401,446.85Z"/><path class="cls-1" d="M1401.49,626a85.59,85.59,0,0,1-.76,8.8c-.29,1.64.42,4.59-2.62,4.32-2.44-.2-2.65-2.55-2.67-4.56q0-14.39,0-28.77c4.27-1.77,5.78,0,5.78,4.23C1401.16,615.4,1401.38,620.72,1401.49,626Z"/><path class="cls-1" d="M1401,467.61c0,9.57-.12,19.15-.19,28.73-5.72,2.59-4.74-2.29-5.65-5.06.06-7.86.15-15.72.19-23.58,0-2.31,0-4.91,3.13-4.7C1401,463.16,1401,465.67,1401,467.61Z"/><path class="cls-1" d="M1306,195c14.28,0,28.58-.33,42.86.1,12.72.37,21.06,8.93,21.31,21.74q.46,24-.08,48c-.3,13.06-8.76,21.76-22,21.93-28.58.39-57.16.34-85.74.05-12.5-.12-20.88-8.42-21.2-20.86-.44-16.73-.43-33.5-.1-50.24.24-12.19,8.41-20.29,20.59-20.57,14.78-.34,29.56-.09,44.35-.09Zm-.1,6c-14.31,0-28.63-.1-42.94,0-9.71.1-15.65,5.83-15.81,15.65-.27,16-.33,32.07-.08,48.1.16,10.18,6.05,16.08,16.2,16.15q42.2.3,84.39,0c10.13-.07,16.29-6,16.52-16.08q.54-23.67,0-47.37c-.2-10.34-6.51-16.3-16.88-16.43C1333.57,200.86,1319.75,201,1305.93,201Z"/><path class="cls-1" d="M1551.41,572.45c0,4.18.12,8.37-.06,12.54-.08,1.67.78,4.38-2.55,4.18-2.4-.14-2.5-2-2.51-3.77-.09-8.86-.11-17.72-.18-26.58,0-2.1,1-3.35,3-3.35,2.36,0,2.53,1.93,2.55,3.69,0,4.43,0,8.86,0,13.29Z"/><path class="cls-1" d="M1517.67,715.74c-2.16.77-4.47,3.89-6.45,1.61s.31-5,2.26-6.88c4.65-4.59,9.33-9.14,14-13.71,3-.39,5.38-5.82,7.83-2.9,3.11,3.7-1.73,6.31-4.07,8.74C1526.87,707.13,1522.21,711.38,1517.67,715.74Z"/><path class="cls-1" d="M1551.64,440.94c-.91,1.88,1.27,5.93-2.76,6.08-3.55.14-2.58-3.62-2.86-5.79a64.3,64.3,0,0,0-5.75-19.69c-1.13-2.34-2.08-5.14.83-6.41,2.72-1.19,3.51,1.78,4.53,3.66A46.9,46.9,0,0,1,1551.64,440.94Z"/><path class="cls-1" d="M1546.31,524.24c0-4.4,0-8.8,0-13.2,0-1.49.18-3.08,2.08-3.32,2.38-.3,2.9,1.4,2.9,3.23,0,9.29,0,18.57,0,27.86,0,1.32.25,3.2-1.89,3.29s-3.11-1.12-3.11-3.19V524.24Z"/><path class="cls-1" d="M1551.38,662.93c.2,6.14.23,12.29-2.45,18-.74,1.58-1.73,3.19-3.85,2.64-2.46-.63-1.8-2.82-1.37-4.23,2.48-8.11,2.27-16.46,2.6-24.77.07-1.89-.4-4.52,2.27-4.66,3.39-.18,2.6,2.91,2.75,4.9C1551.53,657.52,1551.38,660.23,1551.38,662.93Z"/><path class="cls-1" d="M1551.23,619.94c0,4.68.07,9.35,0,14,0,1.59.18,3.91-2.4,3.67-2.11-.19-2.48-2.09-2.49-3.92,0-9.11,0-18.22,0-27.32,0-1.73.8-2.93,2.42-3.14,2.52-.33,2.69,1.64,2.72,3.4.06,4.43,0,8.86,0,13.29Z"/><path class="cls-1" d="M1546.32,477.27c0-4.44,0-8.88,0-13.32a2.67,2.67,0,0,1,2.6-2.95c2-.15,2.45,1.42,2.45,2.95q0,14.06-.2,28.11c0,1.37.13,3.27-1.89,3.41-2.22.16-2.91-1.53-2.93-3.4C1546.28,487.14,1546.32,482.21,1546.32,477.27Z"/><path class="cls-1" d="M614.34,287c-13.55,0-27.11.09-40.66,0C558.31,286.85,550,278.51,550,263c-.08-15-.1-30.06.06-45.09.15-14.11,8.33-22.66,22.44-22.83,27.11-.31,54.23-.45,81.33-.18,17.91.18,25.06,7.3,25.68,25.1.48,14,.53,28.09.23,42.13-.37,16.86-8.59,24.68-25.42,24.8C641,287.07,627.65,287,614.34,287Zm.12-86c-14.07,0-28.13-.12-42.19,0-9.37.1-15.82,5.53-16.09,14.63-.48,16.76-.44,33.55,0,50.31.2,8.66,6.62,14.86,15.27,14.93q43.29.35,86.59,0c7.53-.05,14-5.26,14.66-12.16a284.26,284.26,0,0,0,.36-53.15c-.88-9.56-6.87-14.4-16.38-14.52C642.58,200.85,628.52,201,614.46,201Z"/><path class="cls-1" d="M369.12,441c.59-8.36,2.1-16,5.57-23.1,1-2,2.05-4.46,4.81-3.08,2.52,1.25,1.91,3.76.9,5.78a52.8,52.8,0,0,0-5.67,20.27c-.18,2.54.11,7.16-3.82,6.63C367.35,447,370.42,442.8,369.12,441Z"/><path class="cls-1" d="M368.94,475v-3c.1-2.2.07-4.41.34-6.58.24-1.91-1.16-5.07,2.36-5,3.09,0,2.62,3.12,2.85,5.12.42,3.63.45,7.31.65,11-.26,4.91-.37,9.84-.85,14.74-.17,1.72.26,4.41-2.53,4.65-3.77.31-2-3.19-3-4.81,0-.52,0-1,0-1.57,0-1.25,0-2.51,0-3.77Q368.87,480.4,368.94,475Z"/><path class="cls-1" d="M1400.94,574.8h-.06c0,4.68,0,9.35,0,14,0,1.85-.59,3.45-3,3.2-1.89-.19-2.37-1.56-2.37-3.13,0-9.09,0-18.19.15-27.29,0-2,.79-4.34,3.1-4.21,1.83.12,2.13,2.43,2.16,4.14C1401,566,1400.94,570.39,1400.94,574.8Z"/><path class="cls-1" d="M1400.82,541.73c0,1.62-.31,3.74-2.65,3.59-2-.14-2.76-1.69-2.73-3.68.06-4.44,0-8.89,0-13.32h.12c0-4.69-.06-9.37,0-14.06,0-1.82.86-3.63,2.86-3.67,2.32-.06,2.47,2.15,2.47,3.78Q1401,528.05,1400.82,541.73Z"/><path class="cls-1" d="M820.18,828.28c-.13,2.31-1.3,3.39-3.73,3.57-6.61.46-13.21,1.12-19.8,1.72a2.3,2.3,0,0,0,0-.26c-2.68.21-5.38.52-8.07.58-1.44,0-3.06-.25-3.17-2.24a2.56,2.56,0,0,1,2.62-2.89q14.64-1.46,29.29-2.83C818.9,825.79,820.28,826.25,820.18,828.28Z"/><path class="cls-1" d="M521.32,592.29c-2.83-.14-2.75-2.33-2.8-4.29-.16-7.61-.26-15.23-.38-22.83,1.36-2.78-.86-8.33,3.82-8,3.33.2,1,5.52,2.5,8.16-.17,7.6-.31,15.22-.59,22.82C523.81,589.83,524.61,592.45,521.32,592.29Z"/><path class="cls-1" d="M523.89,528.35h-.11c0,4.69.06,9.37,0,14,0,1.33.15,3.27-2,3.23a2.76,2.76,0,0,1-3-2.7c0-9.85-.1-19.7,0-29.56,0-1.76,1.25-3.54,3.26-3.33,1.81.18,1.74,2.16,1.77,3.53C524,518.5,523.89,523.42,523.89,528.35Z"/><path class="cls-1" d="M523.84,811.67c-3.57,12,2.66,19.65,11.28,26.54,3,2.43,5.55,5.57,8.12,8.55a2.8,2.8,0,1,1-4,3.9c-8.56-10.1-22.92-16.52-20.79-33.45.7-5.58.1-11.32.17-17,0-2.45-.06-5.76,3.11-5.7,2.92.05,2,3.33,2.07,5.33C524,803.78,523.84,807.73,523.84,811.67Z"/><path class="cls-1" d="M523.83,764.49c0,4.66,0,9.32,0,14,0,1.42.05,3.11-2.14,3.06-1.69,0-2.87-.89-2.89-2.64-.1-9.8-.19-19.59-.16-29.39,0-1.78,1.44-2.42,3.1-2.32s1.91,1.44,1.93,2.62c.08,4.9,0,9.8,0,14.7Z"/><path class="cls-1" d="M443.32,750c-.89,3-3.58,2.45-5,1.22a141.64,141.64,0,0,1-20.51-20.89c-.92-1.17-1.34-2.71,0-4,1.15-1.12,2.44-.31,3.32.32,8.41,6,15.31,13.61,21.72,21.66A6,6,0,0,1,443.32,750Z"/><path class="cls-1" d="M406.64,718.15a21.75,21.75,0,0,1-2.44-1.71c-5.89-5.53-11.81-11-17.56-16.69-1.51-1.48-3.47-3.74-1.77-5.76,1.91-2.28,4.18-.1,5.6,1.26,5.83,5.61,11.49,11.38,17.06,17.22,1.11,1.17,2.13,2.87,1,4.66C408.24,717.62,407.38,717.77,406.64,718.15Z"/><path class="cls-1" d="M632.86,855.41,634,857c-2.14,4-6.36,4.1-10,5-6.15,1.54-12.37,2.8-18.58,4.08-2,.42-4.8,1.74-5.68-1.23-1-3.17,1.86-4.22,4.27-4.72C613.56,858.17,623,855.71,632.86,855.41Z"/><path class="cls-1" d="M644.84,856.67c-1-4.85,2.94-5.06,5.75-5.67,7.9-1.75,15.89-3.13,23.86-4.57,1.8-.32,4.52-1.66,5.19.77.86,3.12-2.11,4-4.56,4.46-9.13,1.87-18.27,3.66-27.41,5.48Z"/><path class="cls-1" d="M368.91,656c1.14-2.43-2.24-9,5.2-5.66,1.68,9.67-.17,19.64,2.54,29.24.52,1.84.78,4-2.29,4.29-3.22.25-4.43-2.13-4.65-4.4-.5-5.1-.36-10.27-.51-15.41C369.13,661.41,369,658.72,368.91,656Z"/><path class="cls-1" d="M575.58,868.29c-6.87,0-13.78.15-19.81-3.92-1.56-1-3.71-2.51-2.7-4.63,1.1-2.32,3.41-1.11,5.09-.31,7.32,3.49,15.12,3.49,23,3.56,2.08,0,5.74-1.19,5.44,2.77-.26,3.44-3.49,2.55-5.85,2.53Z"/><path class="cls-1" d="M454,758.83a19.58,19.58,0,0,1,3.69,2.27c5.83,5.66,11.62,11.36,17.28,17.19,1.43,1.47,3.66,3.5,1.61,5.65s-4.16.23-5.71-1.31c-5.92-5.9-11.81-11.84-17.55-17.92C451.65,763,450.17,760.66,454,758.83Z"/><path class="cls-1" d="M511,815.41c-.6,3-3,2.3-4.36,1.28a120,120,0,0,1-20.26-19.34c-.84-1-1.69-2.85,0-3.84a3.68,3.68,0,0,1,3.42.2,181.8,181.8,0,0,1,20.47,20.22A7.55,7.55,0,0,1,511,815.41Z"/><path class="cls-1" d="M523.7,716.3c0,5.17,0,10.35,0,15.52,0,1.09.13,2.65-1.66,2.71-1.63.06-3.11-.62-3.12-2.38q-.1-15.14.05-30.27a2.88,2.88,0,0,1,2.83-2.89c2.22,0,1.78,2.06,1.82,3.28.16,4.67.07,9.35.07,14Z"/><path class="cls-1" d="M699.31,848.34c-3-.62-6.5,1-6.73-2.67-.2-3.26,3-3.22,5.43-3.56,8-1.09,16-2.25,24.07-3.35,1.66-.23,3.71-.89,4.31,1.44.67,2.57-1.17,3.4-3.3,3.79Z"/><path class="cls-1" d="M521.72,639.33c-2.25.13-3-1.29-3.05-3.25-.06-9.33-.13-18.65-.12-28,0-1.85.74-3.48,3-3.29,2,.17,2,2,2,3.37.07,4.92,0,9.82,0,14.74h.13c0,4.16.06,8.34,0,12.52C523.63,637,524.49,639.15,521.72,639.33Z"/><path class="cls-1" d="M1499.45,725.74c2.47.92,3.62,3,1.91,5A171.8,171.8,0,0,1,1481,751.12a3,3,0,0,1-4.06.17c-1.38-1.24-.85-2.9.11-4A207.11,207.11,0,0,1,1498,726.4,6.48,6.48,0,0,1,1499.45,725.74Z"/><path class="cls-1" d="M1342.11,820.12l-11.89-11.8c-3.94-3.9-4.5-8.08-.75-12.36a11.26,11.26,0,0,0,3-8c-.19-18.49,10-30.83,26.32-32.08,17.87-1.37,29.8,9.11,32.48,28.55v3c-.07,1-.13,2.07-.2,3.1a.83.83,0,0,0,.27,1.22l0,.2c-3.83,5.43-5.51,12.4-11.68,16.16-3.77,2.3-7.51,4.79-11.92,5.4-6.74.93-14.12-.79-19.23,6C1347.55,820.64,1344.27,820,1342.11,820.12Zm19.58-12.06c12.22.11,23.08-10.57,23.34-22.93s-10.7-23.85-23.1-24.16c-11.8-.29-23.53,11.34-23.87,23.69S1348.72,808,1361.69,808.06Zm-15,6.48c.6-.6,1.19-1.21,1.79-1.82-4.14-4.35-8.23-8.74-12.47-13a2.9,2.9,0,0,0-2.62,0c-1.08.58-.65,2-.11,2.56C1337.45,806.73,1341.17,811.77,1346.71,814.54Z"/><path class="cls-1" d="M1397,781.4c-3-10.38-1.14-21-1.3-31.47,0-2.43,1.81-3.26,4.17-2.32,1.43,9.51,1.39,19.09,1.06,28.65C1400.8,778.58,1401.63,782.3,1397,781.4Z"/><path class="cls-1" d="M1221.67,848.2c-8.06-1.14-16.07-2.24-24.06-3.42-2.06-.3-3.95-1.18-3.77-3.66.23-3.09,2.82-2.31,4.53-2.11,8,.94,16,2.08,24.05,3.16,2.21.3,5,.61,4.9,3.36C1227.19,849.31,1223.81,847.86,1221.67,848.2Z"/><path class="cls-1" d="M1244.79,846.25c8.53,1.63,17,3.19,25.36,4.88,2.28.46,4.49,1.69,4,4.37-.56,3-3.26,1.59-4.85,1.29-8.4-1.59-16.75-3.43-25.1-5.23-1.75-.38-3.42-1.09-3.23-3.29C1241.18,845.63,1243.28,846.39,1244.79,846.25Z"/><path class="cls-1" d="M1022.86,825.76c-4.9,0-9.79.07-14.68,0-2.19,0-3.9-1.12-3.75-3.54s2.3-2.09,3.93-2.13a169.06,169.06,0,0,1,27.08,1.24c2.23.3,4,.94,3.69,3.41-.36,2.85-2.62,2.13-4.57,1.94C1030.67,826.29,1026.77,826.05,1022.86,825.76Z"/><path class="cls-1" d="M885.58,825.88c-2,1-4.26,1.11-4.56-1.55s1.88-2.9,3.92-3.21c8.58-1.31,17.22-1.08,25.84-1.13,2,0,4-.23,3.88,2.88-.12,2.81-1.78,3-4,3C902.32,825.85,894,825.88,885.58,825.88Z"/><path class="cls-1" d="M1408.65,816.5a143.16,143.16,0,0,1,23-23.06,3,3,0,0,1,2.73-.28c.57.33.87,1.69.76,2.53C1434.56,800.53,1414.83,816.61,1408.65,816.5Z"/><path class="cls-1" d="M369.27,619.13c0-4.44,0-8.87,0-13.31,0-1.43-.16-3.21,1.84-3.44,1.73-.19,2.72,1,2.86,2.65.85,10.07,1.29,20.15.21,30.23-.16,1.55-.88,2.82-2.82,2.64s-2.09-1.78-2.11-3.25C369.23,629.48,369.26,624.3,369.27,619.13Z"/><path class="cls-1" d="M369,559.43c.69-1.55-.47-4.58,2.39-4.37,4.73.34,2.49,4.82,3.73,7.29-.23,7.34-.3,14.68-.77,22-.14,2.16.26,5.85-3.16,5.59-2.9-.22-1.85-3.51-1.89-5.54C369.09,576.08,369.07,567.75,369,559.43Z"/><path class="cls-1" d="M369.27,524.52c0-4.66,0-9.33,0-14,0-1.36-.42-3.2,1.82-3.23,1.6,0,3,.79,3.13,2.5.57,10.28,1.07,20.58-.36,30.84A2.37,2.37,0,0,1,371.5,543c-2.12.07-2.26-1.49-2.28-3-.05-5.15,0-10.3,0-15.46Z"/><rect class="cls-2" width="1" height="1"/><rect class="cls-2" x="1919" y="1079" width="1" height="1"/><rect class="cls-2" y="1079" width="1" height="1"/><rect class="cls-2" x="1919" width="1" height="1"/></g><g id="Capa_3" data-name="Capa 3"><path d="M800.83,482.85v111H781V523.14L761.5,538.05l-16.18,12.53-16.18-12.53-19.51-14.91v70.74H689.8v-111l19.83,15.23,35.69,27.44L781,498.08Z"/><path d="M854.76,519.81v75.5H834.93V517.75a15.81,15.81,0,0,0-13.48-13.49H817V484.59h4.29v.16a35.55,35.55,0,0,1,13.48,3.65,35.17,35.17,0,0,1,16,16.18,42.36,42.36,0,0,1,2.7,7.46,33.41,33.41,0,0,1,1,8.09Z"/><path d="M980.85,574.37V594.2H870.14V561.52a31.61,31.61,0,0,1,2.69-12.84,32.58,32.58,0,0,1,28.87-20h48.06a13,13,0,0,0-1.11-25.85H870.46V483h78.19a32.63,32.63,0,0,1,32.68,32.67A32.45,32.45,0,0,1,972,538.37a33,33,0,0,1-22.37,10H901.7a12.91,12.91,0,0,0-11.58,12.85v12.84Z"/><path d="M1099.17,538.52A32.76,32.76,0,0,1,1075.7,594h-45.53a32.57,32.57,0,0,1-30.13-20,34.22,34.22,0,0,1-2.54-12.84,32.63,32.63,0,0,1,9.2-22.84,31,31,0,0,1-6.82-10,34.22,34.22,0,0,1-2.54-12.84,32.67,32.67,0,0,1,9.2-22.85,30.85,30.85,0,0,1,22.84-10h46.48a32.88,32.88,0,0,1,23,55.68Zm-24.27-9.67a12.94,12.94,0,0,0,.48-25.86h-46.79a12.94,12.94,0,0,0,.32,25.86h46Zm.16,45.52a13.07,13.07,0,0,0,13-13,12.92,12.92,0,0,0-12.21-13h-46.48a12.88,12.88,0,0,0-12.21,12.85,13.06,13.06,0,0,0,13,13h45.53Z"/><path d="M1194.18,482.85A35.81,35.81,0,0,1,1230,518.7v39.18a35.81,35.81,0,0,1-35.84,35.84h-34.26a35.81,35.81,0,0,1-35.85-35.84V518.7a35.81,35.81,0,0,1,35.85-35.85Zm-34.26,19.83a16.24,16.24,0,0,0-16.18,16.18V558a16.24,16.24,0,0,0,16.18,16.18h34.26A16.25,16.25,0,0,0,1210.36,558V518.86a16.25,16.25,0,0,0-16.18-16.18Z"/></g></g></svg>