<svg xmlns="http://www.w3.org/2000/svg" viewBox="0 0 1920 1080"><defs><style>.cls-1{fill:#f2f2f2;}.cls-2{fill:#020202;}</style></defs><g id="Capa_2" data-name="Capa 2"><g id="Capa_1-2" data-name="Capa 1"><rect class="cls-1" width="1" height="1"/><rect class="cls-1" x="1919" y="1079" width="1" height="1"/><rect class="cls-1" y="1079" width="1" height="1"/><rect class="cls-1" x="1919" width="1" height="1"/></g><g id="Capa_3" data-name="Capa 3"><path class="cls-2" d="M1796.51,329.72c0-4.35-3.78-9.41-3.78-9.41-12.41-12.3-26-23.42-38.64-35.44-8.47-8-18.07-10.45-27.81-5.82-8,3.8-11.43,12.08-11.15,21.57.29,10.78.24,21.6-.36,32.36-.72,12.88-6.85,19-19.56,20.12-6.45.58-13,.56-19.42.56-95.35,0-190.73-.82-286.07.44-45.52.6-90.13-3.16-134.46-13.11-35.28-7.93-70.92-13.84-106.79-18.79-40.54-5.59-81.22-8.41-122-10.5-19.08-1-38.26-.67-57.38-.5l-20.84,0a1194.22,1194.22,0,0,0-165.74,9.52c-43.19,5.39-86,13.08-128.56,22-31,6.48-61.93,12-94,11.28-50-1-100-.18-150-.18q-92.6,0-185.15-.09c-20.05-.06-25.83-6-26.37-25.87-.25-10.17,0-20.4-1.07-30.47-1.15-10.53-7.63-15.27-18.17-15.57-14.81,0-17.79,3.75-17.79,3.75-11.41,13.28-21.49,25-33.33,38.83-4.52,5.26-5.08,14.93-5.08,14.93V456.8c0,6.72-1.33,13.93.62,20.1,6.42,20.51,4.65,41.37,4.44,62.21q.22,8.31.45,16.6c.5,17.92,7.56,32,23.47,41.22,16.47,9.52,32.83,19.27,49.24,28.94,12.16,3.26,24.25,4.69,36.24-.74,10.06-7.39,13.8-17.42,13.23-29.7-.43-9.52.17-19.08.07-28.62-.09-9,3.91-15.64,12.19-18.79,8-3,15.49-.85,20.64,6,4.13,5.45,9.17,6.24,15.32,6.15q26.32-.36,52.66-.06c12.58.15,18.71,4.12,22.14,15.55,4.76,15.84,8.63,31.94,12.89,47.93q10.34,36.65,20.7,73.29c6,20.64,11.11,41.55,24.52,59.21,5.8,7.63,13,13.91,19.05,21.23,11.38,8.23,23.46,15.23,38.11,20.14,11.67,4.56,25.4,5.78,25.4,5.78l876.85.09c57.58-.13,100.84-33.12,116.48-88.44,3.26-11.56,6.44-23.13,9.63-34.69,9.23-33.4,18.25-66.86,27.68-100.21,4.52-15.93,8.89-19.32,25.57-19.76,16.34-.45,32.72-.39,49.06,0,7.24.17,12.87-1.07,17.78-7.07,5.37-6.58,12.82-8.32,20.88-4.47,7.41,3.52,11,9.34,10.89,17.69-.11,12.94.23,25.87.34,38.8.11,9.76,9.22,21.58,18.6,22.45,12.26,1.15,24.68,1.69,36-5,15.62-9.3,31.46-18.24,46.91-27.82,11.58-7.19,19.82-17.9,19.88-31.55.14-36.93,3.9-73.61,5.61-110.4C1798.48,411.83,1796.51,370.74,1796.51,329.72Zm-444.38,79.89-.33,127.61v83.95c-.76.18-1.35.53-1.83.42-3.39-.8-5.78-7.06-9.21-3.74-2.74,2.67,1.65,6.35,3.24,9.43,12.78,24.68,11.58,49.5.72,74.4-.5,1.11-1.35,2.08-1.91,3.17-.94,1.87-2.48,4.17-.37,5.74s3.75-.85,5.32-2.2c.91-.78,1.93-1.39,2.82-2,2.63,1.59,1.74,4,1.74,6,0,18.2-.17,36.37-.13,54.56,0,4.51-.39,7.49-6.34,7.45q-97.56-.47-195.16-.53c-29.83.14-59.65.42-89.48.38-49.21,0-98.42-.27-147.62-.42-13.88.15-27.76.42-41.63.42q-132.87.06-265.71,0c-3.69,0-7.39-.22-11.08-.35-8.28.06-18.58,3.17-24.33-.63-6.48-4.3-1.63-15.3-2.07-23.34-.67-12.27-.37-24.57-.58-36.85-.09-4.91.54-7.8,5.91-3.47,3.1,2.52,5.73,2.62,5.71-2.53-7.85-9.51-12.43-20-11.28-32.76a184.42,184.42,0,0,0,.15-23.86c-.45-10.84,3.52-19.64,11-27.11,2.54-11.39-4.84-4.28-8.32-4.44-.41,1-.72,2.3-2.15,1.81-.44-.16-.54-1.35-.78-2.07.17-4.26.32-8.52.48-12.79,0-1.25,0-2.51,0-3.76-.87-19.75-.63-39.48.19-59.21-.21-42.53-.37-85.05-.76-127.59,0-4.39,1.66-5.76,5.54-6.61,9.3-2,18.54-4.43,27.77-6.8,3-.8,6.76-2.36,5.91-5.9-1.13-4.7-5.15-1.7-7.73-1.18-7.82,1.63-15.49,3.93-23.3,5.43-2.6.5-7.1,4.48-8-1.36-.65-4.48-2.91-10.48,5.28-12.28,22.79-5,45.41-10.82,68.23-15.71,56.88-12.19,114.18-22.18,172.13-27.36a1650,1650,0,0,1,214.32-5c46.54,1.9,92.86,5.65,138.86,12.34q81.62,11.87,161.85,31.58c4.46,1.11,8.91,2.62,13.45,3.15,8.17,1,11.06,5.15,9.19,13C1352,402.22,1352.08,405.9,1352.13,409.61ZM950.4,787.94c-138.8.13-277.6,0-416.41.52-31.6.13-59.21-7.74-81.72-30.73-16.62-17-23.56-38.52-29.58-60.66-10.73-39.44-22.57-78.61-32.41-118.28-5.17-20.87-16.62-32.16-37.74-34.08-16.63.11-33.29.13-49.93.38-4.33.08-7.41-1.72-10.7-4.31-15.34-12.12-34.3-11.06-48.14,2.33-5.68,8.08-7.68,17.23-7.74,26.94s.09,19.69-.26,29.51c-.35,10.43-5.47,14.82-16,14.38-7.24-.32-13.78-2.74-20-6.35-11.67-6.8-23.14-14-35.11-20.24C149,579.18,141.47,567,143.21,549.24c.33-3.35.26-6.74.37-10.11-2.59-62.42-8.35-124.7-6-187.29.44-11.41,3.37-21,11.13-29.34,7.13-7.67,13.82-15.77,20.68-23.7,2.53-2.93,5.42-5.41,9.56-3.89s4.78,5.24,4.79,9.12c0,9.26,0,18.5.15,27.75.45,22.38,13.1,35.61,35.56,36.33,16.95.54,33.92.11,50.89.11,45.65,0,91.32.09,137-.17,5.55,0,7.3,1.6,8.18,7,1.28,7.71,5.62,14.25,10.94,20,1.55,1.69,3.48,3.08,5.65,1.76,2.63-1.61.89-3.93,0-5.69-2.1-4.09-4.69-7.95-6.76-12.06-5-9.82-4.43-10.69,6.29-10.71,50.29,0,100.57.11,150.85-.11,10.34-.05,20.66-1.35,31-2.07,40.37-9.45,81.21-16.4,122-23.75,70.26-12.7,141.1-16.47,212.24-17.64,3.3-.06,9.27-2,9.42,2.41.16,5.28-5.8,2.53-8.84,2.61-61.68,1.35-123.2,4.09-184.38,12.76-46.8,6.62-93.21,15.08-139.38,25-3.61.8-7.15,1.76-10.89,1.3-16.28,4.19-32.64,8.08-48.84,12.6-19.54,5.46-39.16,10.8-58.32,17.43-17.15,5.95-34.31,6.5-51.91,4-2.65-.37-6.19-1.89-7,1.82-1,4.2,2.65,4.81,5.89,5.07,3.58.32,7.28,0,10.8,1.95-2.42,4.28-6.76,4.41-10.35,5.72-53.19,19.34-78.09,61-69.85,117.07a23,23,0,0,1,.08,2.76Q398,587.43,411.83,637.56c7.5,27.24,14.32,54.67,22.42,81.74,9.74,32.65,44.61,62.55,81.87,62.42,54-.21,108-.06,161.94,0q136,.16,272.06.46c2.65,0,7.25-2.11,7.45,2.52S953.22,787.92,950.4,787.94Zm-389.88-160c-.64,15.34.91,30.7-1.88,46.06-1.19,6.59.87,13.76,1.44,20.69,2.13,21.16,1.09,42.35.72,63.55-.26,16-.29,16.1-16.75,16s-33.25,1.53-49.37-4.21c-33.68-12-51.86-36.66-58.19-71-6.3-22.1-13.06-44.08-17.64-66.64-9.41-29.37-16.93-59.27-24.19-89.23-15.4-46.44,7-96,52.43-115,17-7.1,34.51-12.95,51.83-19.27,2-.71,4.76-1.85,6.15-1.06,12.23,7.15,25.39,2.11,38,3.26,3.3.3,7.75.15,7.26-4.68-.4-4-4.46-2.08-6.89-2.14-8-.2-16-.07-24.21-.83,12.93-6,26.66-9.6,40.7-12.19,1.59-.39,1.72.48,1.45,1.69q-.18,70.44-.37,140.87a19.72,19.72,0,0,1-.64,3.6C561.6,567.55,561.47,597.73,560.52,627.91Zm906.13,131c-19.85,19.73-44.21,29.29-71.83,29.31q-212.76.19-425.52-.39c-2.61,0-7.36,1.89-7.3-2.8s4.85-2.67,7.43-2.67q109.61-.21,219.22-.11v-.5c68.46,0,136.92-.27,205.37.15,27.11.17,50.36-8.15,70-26.77,1.39-1.32,2.81-4.43,5-2.09C1471.54,755.71,1468.05,757.5,1466.65,758.93ZM1370.9,411c10.78.31,21.58.29,32.38.35.89,0,2.47-.17,2.56-.54,2.56-10.5,9.14-4,13.43-2.63,15.46,5.13,30.72,10.84,45.91,16.67,52.58,20.25,75.54,65.81,60.77,120.07q-21.9,80.56-43.67,161.21c-12,44.46-42.07,67.86-87.76,68-9.26,0-18.52-.26-27.77.23-5.69.31-7.54-1.39-7.28-7.19,1.35-30.14.35-60.34,1.22-90.54.8-27.24-1-54.67-.94-82,0-10.48.26-20.95.39-31.44q0-12,0-24.1-.33-71.22-.61-142.43c0-2.36-1.11-6.69,3.63-5.47,12.52,3.22,24.92,6.95,37.37,10.47-.13.81-.24,1.61-.35,2.43-9.62,0-19.22-.1-28.81.07-2.1,0-5.39-1.71-5.9,2.22S1368.33,411,1370.9,411Zm410.76,47.83c-3.38,33.85-3.67,67.57-5.1,101.36-.41,9.62-5.13,17.06-13.3,22q-23.73,14.31-47.76,28.14c-4.32,2.52-9.25,3.32-14.23,3.54-11.27.48-16.64-4.13-17.12-15.6-.45-10.47-.48-21-.17-31.44.43-14.6-6.17-25-18.8-31.29-13-6.48-25.46-3.72-36.2,5.1a19.2,19.2,0,0,1-13.29,4.65c-15.43-.1-30.86-.23-46.28.11-21.23.48-31.86,8.43-37.59,28.62q-19.5,68.77-38.38,137.71c-4,14.43-10,27.73-19.81,39.16-1.11,1.3-2.33,3.32-4.43,1.93-1.74-1.13-.68-2.83.3-3.91,15.15-16.73,19.3-38.13,25-58.86,13.6-49.82,27.57-99.54,40.63-149.49,13.73-52.48-13.48-102.47-65.41-122-4.73-1.78-10.05-2.5-14-5.91,1.65-3.59,4.45-2.89,6.76-3.18,2.74-.34,5.11-1.15,4.6-4.39-.41-2.65-2.89-3.27-5.08-2.69-23.21,6.08-44.28-2.59-65.62-9.41-27.24-8.71-55.06-15.27-82.72-22.35-23.53-4.66-47-9.44-70.57-14-73-14-146.49-23.74-220.95-25.22-17.86-.35-35.72-1.7-53.62-1.57-2.22,0-6.3,1.79-6.09-2.84.16-3.63,3.68-2.52,5.89-2.46,26.49.63,53,.66,79.5,2.26,35.31,2.13,70.56,5.06,105.64,10.21,43.81,6.44,87.28,14.61,130.55,23.78,10,2.13,20.64,2,29.68,7.8q85.57-.21,171.15-.48c9.82,0,10.58.85,5.78,9.6a113.49,113.49,0,0,1-8.26,12.19c-1.5,2.06-3.58,4.41-1.44,6.46,2.48,2.38,5.09.34,7-1.74,5.6-5.89,10.14-12.61,12.08-20.47,1.21-4.83,3-6.22,8-6.19,59.23.3,118.46.32,177.69.41,8.06,0,16.15-.26,23.56-3.67,11.45-5.28,18.82-14.06,19.66-26.93.78-12,.65-24,.85-36,.07-4.13.15-8.26,4.71-10.13,4.39-1.84,6.93,1.61,9.43,4.13,9.8,9.8,19.54,19.67,29.08,29.73a32.37,32.37,0,0,1,9.42,23.31C1782.27,385.56,1785.27,422.54,1781.66,458.87Z"/><path class="cls-1" d="M1526,545q-21.9,80.56-43.67,161.21c-12,44.46-42.07,67.86-87.76,68-9.26,0-18.52-.26-27.77.23-5.69.31-7.54-1.39-7.28-7.19,1.35-30.14.35-60.34,1.22-90.54.8-27.24-1-54.67-.94-82,0-10.48.26-20.95.39-31.44q0-12,0-24.1-.33-71.22-.61-142.43c0-2.36-1.11-6.69,3.63-5.47,12.52,3.22,24.92,6.95,37.37,10.47-.13.81-.24,1.61-.35,2.43-9.62,0-19.22-.1-28.81.07-2.1,0-5.39-1.71-5.9,2.22s2.9,4.54,5.47,4.62c10.78.31,21.58.29,32.38.35.89,0,2.47-.17,2.56-.54,2.56-10.5,9.14-4,13.43-2.63,15.46,5.13,30.72,10.84,45.91,16.67C1517.76,445.14,1540.72,490.7,1526,545Z"/><path class="cls-1" d="M561,533.79a19.72,19.72,0,0,1-.64,3.6c1.21,30.16,1.08,60.34.13,90.52-.64,15.34.91,30.7-1.88,46.06-1.19,6.59.87,13.76,1.44,20.69,2.13,21.16,1.09,42.35.72,63.55-.26,16-.29,16.1-16.75,16s-33.25,1.53-49.37-4.21c-33.68-12-51.86-36.66-58.19-71-6.3-22.1-13.06-44.08-17.64-66.64-9.41-29.37-16.93-59.27-24.19-89.23-15.4-46.44,7-96,52.43-115,17-7.1,34.51-12.95,51.83-19.27,2-.71,4.76-1.85,6.15-1.06,12.23,7.15,25.39,2.11,38,3.26,3.3.3,7.75.15,7.26-4.68-.4-4-4.46-2.08-6.89-2.14-8-.2-16-.07-24.21-.83,12.93-6,26.66-9.6,40.7-12.19,1.59-.39,1.72.48,1.45,1.69Q561.22,463.36,561,533.79Z"/><path class="cls-1" d="M1350.58,706.37c-.89.63-1.91,1.24-2.82,2-1.57,1.35-3.06,3.87-5.32,2.2s-.57-3.87.37-5.74c.56-1.09,1.41-2.06,1.91-3.17,10.86-24.9,12.06-49.72-.72-74.4-1.59-3.08-6-6.76-3.24-9.43,3.43-3.32,5.82,2.94,9.21,3.74.48.11,1.07-.24,1.83-.42V537.22l.33-127.61c-.05-3.71-.11-7.39-.16-11.1,1.87-7.82-1-12-9.19-13-4.54-.53-9-2-13.45-3.15q-80.14-19.78-161.85-31.58c-46-6.69-92.32-10.44-138.86-12.34a1650,1650,0,0,0-214.32,5c-57.95,5.18-115.25,15.17-172.13,27.36-22.82,4.89-45.44,10.73-68.23,15.71-8.19,1.8-5.93,7.8-5.28,12.28.85,5.84,5.35,1.86,8,1.36,7.81-1.5,15.48-3.8,23.3-5.43,2.58-.52,6.6-3.52,7.73,1.18.85,3.54-2.87,5.1-5.91,5.9-9.23,2.37-18.47,4.76-27.77,6.8-3.88.85-5.58,2.22-5.54,6.61.39,42.54.55,85.06.76,127.59-.82,19.73-1.06,39.46-.19,59.21,0,1.25,0,2.51,0,3.76-.16,4.27-.31,8.53-.48,12.79.24.72.34,1.91.78,2.07,1.43.49,1.74-.83,2.15-1.81,3.48.16,10.86-7,8.32,4.44-7.52,7.47-11.49,16.27-11,27.11a184.42,184.42,0,0,1-.15,23.86c-1.15,12.77,3.43,23.25,11.28,32.76,0,5.15-2.61,5.05-5.71,2.53-5.37-4.33-6-1.44-5.91,3.47.21,12.28-.09,24.58.58,36.85.44,8-4.41,19,2.07,23.34,5.75,3.8,16,.69,24.33.63,3.69.13,7.39.35,11.08.35q132.86,0,265.71,0c13.87,0,27.75-.27,41.63-.42,49.2.15,98.41.39,147.62.42,29.83,0,59.65-.24,89.48-.38q97.57.21,195.16.53c6,0,6.34-2.94,6.34-7.45,0-18.19.11-36.36.13-54.56C1352.32,710.35,1353.21,708,1350.58,706.37ZM626.76,387.6c11.15-2.19,22.32-4.34,33.49-6.37,2-.37,4.58-1,5.19,2.11.52,2.67-1.15,4-3.5,4.5-11.08,2.52-22.16,5-30.72,6.91-5.15.09-7.82.2-8.39-3.07C622.31,388.75,624.61,388,626.76,387.6Zm3,349.84c-.72,3.46-4.54,1.87-7.11,1.8-7.77-.25-14.53-4.19-21.81-6.19-2.76-1.69-5.59-3.26-8.23-5.12-1.64-1.14-3.53-2.55-2.7-5s3.24-2.17,5.26-2.47c8.52,6.19,18.06,9.82,28.36,11.88C626.22,732.84,630.59,733.42,629.74,737.44ZM626.2,596.56c-9.24,1.89-18.34,4.26-26.9,8.3-1,.46-1.61,1.69-2.41,2.56-2.2-.48-5.24.42-5.61-3.13-.26-2.5,1.5-3.89,3.39-5,2.35-1.37,4.78-2.63,7.17-3.94,7.63-2,15.23-4.19,22.92-5.93,2.44-.56,6.26-1.37,6.91,2.19C632.22,594.75,629,596,626.2,596.56Zm56.12,125.78a70.66,70.66,0,0,1-30.76,15.3c-2.85,0-5.09.32-5.81-1.78-1-2.7,1.35-3.65,3.28-4.55,10-4.64,20.13-8.88,29.14-15.38,1.76-1.26,4.26-1.91,5.54.57A4.7,4.7,0,0,1,682.32,722.34Zm3.07-107.25c-1.27,1.91-3.27,1.78-4.81.44-9.4-8.15-20.62-13.15-31.52-18.75a2.48,2.48,0,0,1-1.14-3.18c10.39-1.48,32.36,8.19,37.07,16.28C686,611.57,686.54,613.4,685.39,615.09Zm14.77,83.2c-1.43,2.17-3,5.65-6.3,3.63-2.39-1.5-1-4.68,0-6.74,9.84-20,9.67-40.07.43-60.21-1-2.28-2.26-5,.61-6.43,3.46-1.74,4.85,1.54,6.17,3.82,5.83,10.09,7.76,21.19,8,32.66C708.87,676.86,706.72,688.19,700.16,698.29ZM720.35,376c-11.74,2.38-23.51,4.64-33.25,6.54-3.89.52-6.08,1.06-6.6-1.4a3.91,3.91,0,0,1,3.21-4.86q18-3.78,36.14-7.3a3.5,3.5,0,0,1,4.3,2.63C724.62,374.13,722.61,375.52,720.35,376Zm52.29-7c-8.25.83-16.49,1.81-24.74,2.61-3,.28-7.39,3.11-8.17-2.19-.74-5.07,4.39-4.39,7.32-4.87,8.49-1.37,17.06-2.21,25.77-3.28,3.1,2,9.28-3,9.73,2.89C783.05,370.28,776.68,368.52,772.64,368.91Zm64.25-7.25c-9.36,2-18.84,2.87-28.37,3.61-3.61-1.27-10.15,2.28-10.52-2.44-.5-6.47,6.47-4.63,10.75-5.15,8.87-1.06,17.76-2,26.65-3,2.43-.28,5.36-1,6,2.43C841.93,360.22,839.65,361.05,836.89,361.66Zm56.91-3.76q-16,1-32,2c-2.21.13-5.32,1.62-5.43-2.48a4.52,4.52,0,0,1,4.52-4.85c6.11-.28,12.23-.09,18.34-.09v-.62c4.58-.35,9.15-.81,13.73-1,2.89-.13,6.8-1.15,7,3.5C900,358.38,896.41,357.73,893.8,357.9Zm103.47-3.15c-.53,5.15-4.68,2.58-7.26,2.69-3.35.15-6.72-.76-10.1-.67,0,0-16.58-.44-34.14-.33-7.63.68-15.32.85-23,1.29-3,.17-5.71-.14-5.8-4s2.78-3.33,5.19-3.5a557.24,557.24,0,0,1,68.14-.43C993.42,350,997.83,349.47,997.27,354.75Zm59.7,1.84c-.41,2.61-2.56,3.11-4.9,3.09-3.07,0-6.13,0-9.85,0-7.62-.57-15.88-1.24-24.14-1.83-2.28-.15-4.43-.34-4.47-3.34s2.08-3.63,4.36-3.54q17.47.75,34.94,1.78C1055.11,352.86,1057.39,353.71,1057,356.59ZM1306.35,395c1.52-3.87,4.26-.68,6.21-.28,10.19,2.14,20.32,4.62,30.46,7l4.72,1.39.11.09c1.13,2,.71,3.86-.27,5.73-13.1.33-25.15-4.6-37.56-7.62C1307,400.55,1305.11,398.12,1306.35,395ZM1113.27,364.9c-3,.26-6.12.08-9.17.08,0,.18-.06.37-.08.55q-13.62-1.89-27.25-3.78c-2.24-.29-4.43-.7-4.09-3.66.29-2.8,2.59-3.38,4.74-3.23,11.91.91,23.79,2,35.68,3,2.08.18,3.5,1.35,3.58,3.4A3.5,3.5,0,0,1,1113.27,364.9Zm61,4.52c-1,4.32-4.69,2.65-7.63,2.34-9.14-1-18.29-1.93-27.44-2.89-2.82-.3-6.84,1.07-7-3.67-.15-5.11,4-3.3,6.76-3.58,1.22-.12,2.46,0,5,0,7.2.83,15.75,1.77,24.27,2.89C1171.18,364.87,1175.24,364.87,1174.22,369.42Zm52.51,332.45c-4.19,2.13-5.75-2.76-7-5.34-2.79-5.7-4.72-11.84-7-17.78-2.08-13.21-.74-26.16,3-38.91a60.46,60.46,0,0,1,3.39-8.5c1.32-2.82,3.67-4.45,6.67-3.08s1.59,4.32.83,6.43c-2.51,7.19-5.44,14.23-6.54,21.88-.55,3.95-1.18,7.84-.31,11.78-.24,9.12,3.08,17.27,6.47,25.48C1227.24,696.29,1230.49,700,1226.73,701.87Zm6.54-321.27c-.43,2.35-3,2.7-3.06,2.7-13.51-2.7-24.66-4.93-35.79-7.13-2.62-.52-3.69-2-3.14-4.63.65-3.1,3-2.58,5.12-2.19q15.87,2.94,31.73,6C1231.06,375.91,1233.9,377.21,1233.27,380.6Zm3.4,228.06c10-9.08,21.09-15.69,35.48-15.93.08,4.33-2.13,5-4,5.93-9.24,4.26-18.36,8.67-26,15.65-1.63,1.5-4,3.37-6.47.78S1234.88,610.29,1236.67,608.66Zm31.61,128.83c-10.76-2.77-20.88-6.94-29.12-14.76-1.91-1.8-3.39-4.43-1.93-6.5,2.3-3.28,4.91-.56,7.06.9,7.89,5.32,16,10.08,25.2,12.93,2,.64,4,1.67,4.18,4.4C1273.26,737.83,1270.84,738.16,1268.28,737.49Zm16.6-342.5c-10.89-1.87-22.06-3.78-32.9-7.19-2.17-.68-4.39-1.7-4-4.24.46-3,3.33-2.35,5.26-2q17.21,3,34.35,6.43c2,.41,4.46,1.15,4.13,4.06C1291.18,396.58,1287.46,394.05,1284.88,395Zm4.26,196.51c.63-3.48,4-2.46,6.15-2.09,12.36,2.21,25,4,34.46,13.56-1,3.78-3.52,4.3-6.78,3.11-3-1.09-6-2.24-9.06-3.37-6.35-3.3-13.35-4.46-20.14-6.37C1291.29,595.64,1288.64,594.43,1289.14,591.5Zm39.5,135.14c-10.17,6.24-20.71,11.6-32.27,12.86-2.65,0-5.13.74-5.49-2.47-.27-2.8,1.84-3.57,4-4.09a115.87,115.87,0,0,0,30.64-11.66c1.59-.9,3.74-1.4,4.8.63C1331.22,723.67,1330.36,725.58,1328.64,726.64Z"/><path class="cls-2" d="M997.27,354.75c-.53,5.15-4.68,2.58-7.26,2.69-3.35.15-6.72-.76-10.1-.67,0,0-16.58-.44-34.14-.33-7.63.68-15.32.85-23,1.29-3,.17-5.71-.14-5.8-4s2.78-3.33,5.19-3.5a557.24,557.24,0,0,1,68.14-.43C993.42,350,997.83,349.47,997.27,354.75Z"/><path class="cls-2" d="M709.13,665c-.26,11.84-2.41,23.17-9,33.27-1.43,2.17-3,5.65-6.3,3.63-2.39-1.5-1-4.68,0-6.74,9.84-20,9.67-40.07.43-60.21-1-2.28-2.26-5,.61-6.43,3.46-1.74,4.85,1.54,6.17,3.82C706.92,642.45,708.85,653.55,709.13,665Z"/><path class="cls-2" d="M682.32,722.34a70.66,70.66,0,0,1-30.76,15.3c-2.85,0-5.09.32-5.81-1.78-1-2.7,1.35-3.65,3.28-4.55,10-4.64,20.13-8.88,29.14-15.38,1.76-1.26,4.26-1.91,5.54.57A4.7,4.7,0,0,1,682.32,722.34Z"/><path class="cls-2" d="M836.89,361.66c-9.36,2-18.84,2.87-28.37,3.61-3.61-1.27-10.15,2.28-10.52-2.44-.5-6.47,6.47-4.63,10.75-5.15,8.87-1.06,17.76-2,26.65-3,2.43-.28,5.36-1,6,2.43C841.93,360.22,839.65,361.05,836.89,361.66Z"/><path class="cls-2" d="M899.9,354.31c.13,4.07-3.49,3.42-6.1,3.59q-16,1-32,2c-2.21.13-5.32,1.62-5.43-2.48a4.52,4.52,0,0,1,4.52-4.85c6.11-.28,12.23-.09,18.34-.09v-.62c4.58-.35,9.15-.81,13.73-1C895.82,350.68,899.73,349.66,899.9,354.31Z"/><path class="cls-2" d="M1116.68,361.25a3.5,3.5,0,0,1-3.41,3.65c-3,.26-6.12.08-9.17.08,0,.18-.06.37-.08.55q-13.62-1.89-27.25-3.78c-2.24-.29-4.43-.7-4.09-3.66.29-2.8,2.59-3.38,4.74-3.23,11.91.91,23.79,2,35.68,3C1115.18,358,1116.6,359.2,1116.68,361.25Z"/><path class="cls-2" d="M1347.58,408.89c-13.1.33-25.15-4.6-37.56-7.62-3-.72-4.91-3.15-3.67-6.3,1.52-3.87,4.26-.68,6.21-.28,10.19,2.14,20.32,4.62,30.46,7l4.72,1.39.11.09C1349,405.13,1348.56,407,1347.58,408.89Z"/><path class="cls-2" d="M1291.72,392c-.54,4.55-4.26,2-6.84,3-10.89-1.87-22.06-3.78-32.9-7.19-2.17-.68-4.39-1.7-4-4.24.46-3,3.33-2.35,5.26-2q17.21,3,34.35,6.43C1289.59,388.38,1292.05,389.12,1291.72,392Z"/><path class="cls-2" d="M685.39,615.09c-1.27,1.91-3.27,1.78-4.81.44-9.4-8.15-20.62-13.15-31.52-18.75a2.48,2.48,0,0,1-1.14-3.18c10.39-1.48,32.36,8.19,37.07,16.28C686,611.57,686.54,613.4,685.39,615.09Z"/><path class="cls-2" d="M661.94,387.84c-11.08,2.52-22.16,5-30.72,6.91-5.15.09-7.82.2-8.39-3.07-.52-2.93,1.78-3.65,3.93-4.08,11.15-2.19,22.32-4.34,33.49-6.37,2-.37,4.58-1,5.19,2.11C666,386,664.29,387.32,661.94,387.84Z"/><path class="cls-2" d="M1174.22,369.42c-1,4.32-4.69,2.65-7.63,2.34-9.14-1-18.29-1.93-27.44-2.89-2.82-.3-6.84,1.07-7-3.67-.15-5.11,4-3.3,6.76-3.58,1.22-.12,2.46,0,5,0,7.2.83,15.75,1.77,24.27,2.89C1171.18,364.87,1175.24,364.87,1174.22,369.42Z"/><path class="cls-2" d="M720.35,376c-11.74,2.38-23.51,4.64-33.25,6.54-3.89.52-6.08,1.06-6.6-1.4a3.91,3.91,0,0,1,3.21-4.86q18-3.78,36.14-7.3a3.5,3.5,0,0,1,4.3,2.63C724.62,374.13,722.61,375.52,720.35,376Z"/><path class="cls-2" d="M1057,356.59c-.41,2.61-2.56,3.11-4.9,3.09-3.07,0-6.13,0-9.85,0-7.62-.57-15.88-1.24-24.14-1.83-2.28-.15-4.43-.34-4.47-3.34s2.08-3.63,4.36-3.54q17.47.75,34.94,1.78C1055.11,352.86,1057.39,353.71,1057,356.59Z"/><path class="cls-2" d="M772.64,368.91c-8.25.83-16.49,1.81-24.74,2.61-3,.28-7.39,3.11-8.17-2.19-.74-5.07,4.39-4.39,7.32-4.87,8.49-1.37,17.06-2.21,25.77-3.28,3.1,2,9.28-3,9.73,2.89C783.05,370.28,776.68,368.52,772.64,368.91Z"/><path class="cls-2" d="M626.2,596.56c-9.24,1.89-18.34,4.26-26.9,8.3-1,.46-1.61,1.69-2.41,2.56-2.2-.48-5.24.42-5.61-3.13-.26-2.5,1.5-3.89,3.39-5,2.35-1.37,4.78-2.63,7.17-3.94,7.63-2,15.23-4.19,22.92-5.93,2.44-.56,6.26-1.37,6.91,2.19C632.22,594.75,629,596,626.2,596.56Z"/><path class="cls-2" d="M1233.27,380.6c-.43,2.35-3,2.7-3.06,2.7-13.51-2.7-24.66-4.93-35.79-7.13-2.62-.52-3.69-2-3.14-4.63.65-3.1,3-2.58,5.12-2.19q15.87,2.94,31.73,6C1231.06,375.91,1233.9,377.21,1233.27,380.6Z"/><path class="cls-2" d="M629.74,737.44c-.72,3.46-4.54,1.87-7.11,1.8-7.77-.25-14.53-4.19-21.81-6.19-2.76-1.69-5.59-3.26-8.23-5.12-1.64-1.14-3.53-2.55-2.7-5s3.24-2.17,5.26-2.47c8.52,6.19,18.06,9.82,28.36,11.88C626.22,732.84,630.59,733.42,629.74,737.44Z"/><path class="cls-2" d="M1226.73,701.87c-4.19,2.13-5.75-2.76-7-5.34-2.79-5.7-4.72-11.84-7-17.78-2.08-13.21-.74-26.16,3-38.91a60.46,60.46,0,0,1,3.39-8.5c1.32-2.82,3.67-4.45,6.67-3.08s1.59,4.32.83,6.43c-2.51,7.19-5.44,14.23-6.54,21.88-.55,3.95-1.18,7.84-.31,11.78-.24,9.12,3.08,17.27,6.47,25.48C1227.24,696.29,1230.49,700,1226.73,701.87Z"/><path class="cls-2" d="M1329.75,603c-1,3.78-3.52,4.3-6.78,3.11-3-1.09-6-2.24-9.06-3.37-6.35-3.3-13.35-4.46-20.14-6.37-2.48-.7-5.13-1.91-4.63-4.84.63-3.48,4-2.46,6.15-2.09C1307.65,591.62,1320.27,593.39,1329.75,603Z"/><path class="cls-2" d="M1272.15,592.73c.08,4.33-2.13,5-4,5.93-9.24,4.26-18.36,8.67-26,15.65-1.63,1.5-4,3.37-6.47.78s-.81-4.8,1-6.43C1246.64,599.58,1257.76,593,1272.15,592.73Z"/><path class="cls-2" d="M1273.67,734.46c-.41,3.37-2.83,3.7-5.39,3-10.76-2.77-20.88-6.94-29.12-14.76-1.91-1.8-3.39-4.43-1.93-6.5,2.3-3.28,4.91-.56,7.06.9,7.89,5.32,16,10.08,25.2,12.93C1271.5,730.7,1273.51,731.73,1273.67,734.46Z"/><path class="cls-2" d="M1328.64,726.64c-10.17,6.24-20.71,11.6-32.27,12.86-2.65,0-5.13.74-5.49-2.47-.27-2.8,1.84-3.57,4-4.09a115.87,115.87,0,0,0,30.64-11.66c1.59-.9,3.74-1.4,4.8.63C1331.22,723.67,1330.36,725.58,1328.64,726.64Z"/><path d="M798.38,443.63v111H778.55V483.92L759,498.83l-16.18,12.53-16.18-12.53-19.51-14.91v70.74H687.34v-111l19.83,15.22,35.69,27.45,35.69-27.45Z"/><path d="M852.3,480.59v75.5H832.47V478.52A15.8,15.8,0,0,0,819,465h-4.44V445.37h4.28v.16a35.55,35.55,0,0,1,13.48,3.65,35.17,35.17,0,0,1,16,16.18,42.55,42.55,0,0,1,2.7,7.45,33.53,33.53,0,0,1,1,8.09Z"/><path d="M978.39,535.15V555H867.68V522.3a31.54,31.54,0,0,1,2.7-12.85,32.56,32.56,0,0,1,28.87-20h48.06a13,13,0,0,0-1.11-25.86H868V443.79h78.2a32.62,32.62,0,0,1,32.67,32.67,32.4,32.4,0,0,1-9.36,22.68,32.94,32.94,0,0,1-22.36,10h-47.9A12.89,12.89,0,0,0,887.67,522v12.85Z"/><path d="M1096.71,499.3a32.75,32.75,0,0,1-23.47,55.52h-45.52a32.59,32.59,0,0,1-30.14-20A34.27,34.27,0,0,1,995,522a32.67,32.67,0,0,1,9.2-22.84,31.13,31.13,0,0,1-6.82-10,34.5,34.5,0,0,1-2.54-12.85,32.21,32.21,0,0,1,32-32.83h46.48a32.87,32.87,0,0,1,23,55.67Zm-24.26-9.67a12.94,12.94,0,0,0,.47-25.86h-46.79a12.94,12.94,0,0,0,.32,25.86h46Zm.16,45.52a13.07,13.07,0,0,0,13-13,12.9,12.9,0,0,0-12.21-13h-46.48A12.87,12.87,0,0,0,1014.71,522a13.07,13.07,0,0,0,13,13h45.52Z"/><path d="M1232.48,443.63v111h-19.82V509h-58.53a31.39,31.39,0,0,1-14.91-3.65,32.4,32.4,0,0,1-17.77-29V443.63h19.83V476.3a13.07,13.07,0,0,0,13,13h58.52V443.63Z"/></g></g></svg>