<svg xmlns="http://www.w3.org/2000/svg" viewBox="0 0 1920 1080"><defs><style>.cls-1{fill:#010202;}.cls-2{fill:#f2f2f2;}</style></defs><g id="Capa_2" data-name="Capa 2"><g id="Capa_1-2" data-name="Capa 1"><path class="cls-1" d="M1758.77,414.11a1108.7,1108.7,0,0,0-133.5-72.66c-55.72-25.44-113.39-46-170.93-66.76-14.8-5.35-29.76-10.24-44.7-15.35.2-1.15.32-2.06.51-2.95,1.51-7,1.57-7.17-4.78-8.9-24.48-6.67-49-13.16-73.46-19.84-3.59-1-6.74-2-7.38,3.29-.62,5.08-3.6,5.53-8,4.42-46-11.58-92.61-19.77-139.63-25.76a15.07,15.07,0,0,1-11.43-6.91q-5.41-8.1-11.3-15.89c-22.79-30-52.82-46-90.77-46.2L852,140.37c-13.21,0-39.25,8.77-39.25,8.77A109.71,109.71,0,0,0,765,187.77c-1.42,2-3,3.95-4.42,6-10.71,14.93-10.72,14.8-29,17.26-42.37,5.7-84.32,13.66-125.93,23.48-1.5.35-3,.67-4.5,1.09-3.3,1-5.32.09-5.84-3.58-.65-4.52-2.68-6.13-7.64-4.73-24.42,6.88-49,13.33-73.39,20.14-6.73,1.87-6.64,2.19-4.27,11.84-20.1,7-40.3,13.77-60.3,21.09C392,301.47,334,322.13,278.46,348.83c-36.55,17.56-71.78,37.55-106.74,58.05a49.92,49.92,0,0,0-12.34,9.92l-5.15,7.41v68.71c-.11,7.45-.17,15,2.16,22.1,5.12,15.56,10.26,31.2,17.38,46,12.93,26.77,34.41,41.61,64.41,42.89,13,.55,26,.15,39-.07,8.16-.13,13.26-4.7,14.23-12.75a123.94,123.94,0,0,0,.53-13.91c.09-8.37-.44-16.76.18-25.08.92-12.4,11.5-17.71,21.56-10.82,7,4.81,14.46,6.62,22.74,6.5,17.05-.22,34.09-.18,51.13-.29,8.68-.06,8.69-.11,11.63,8q40.65,112,81.39,223.94a16.38,16.38,0,0,1,0,11.64c-2.46,7-5.55,13.84-7.28,21l-10.52,28.84c-2.45,7.23-5.25,14.35-7.28,21.69-5.93,21.35-1.12,40.32,13.53,56.83,4.53,5.1,10.37,8.53,18,13.38,35.07,10.59,87.33,6,91,5.07s19.64-6.66,19.64-6.66c73.15-32,149-54.9,228-67a591.27,591.27,0,0,1,79.53-6.8c7-.12,7.19-.07,7.45,6.57s-1.09,6.7,7.51,6.84l77,0c8.95,0,9.1-.06,9.66-8.75.22-3.35.83-5,4.76-4.74,11.44.65,22.95.38,34.35,1.39A816.16,816.16,0,0,1,1165,878a922.56,922.56,0,0,1,159.58,54.2c6.84,3,13.78,5.6,21.38,5.59,21.08,0,42.15.15,63.21-.29,15.76-.33,29.83-5.71,40.82-17.31,16.32-17.27,21-37.53,13.45-60.07-7.13-21.4-14.71-42.67-22.48-63.85-2.59-7-2.81-13.4-.19-20.58q40.23-110.14,80-220.45c2.78-7.67,2.84-7.72,11.28-7.76,18-.07,36-.16,53.92-.07,7.37,0,13.84-1.74,19.83-6.39,7-5.42,15.87-3.26,20.45,4.19,1.9,3.06,2,6.46,2,9.86,0,10.84-.27,21.69,0,32.53.22,11,5,15.83,16,16.1,11.78.28,23.56.39,35.33,0,31.91-1,54.57-16.29,67.47-45.34,5.89-13.24,10.36-27.13,15.63-40.66a51.37,51.37,0,0,0,3.15-19.09V420.06C1765.81,418.38,1758.77,414.11,1758.77,414.11ZM606.48,249.67c15.69-3.55,31.36-7.19,47.13-10.35,29.73-6,59.59-11.22,89.69-15,10.74-1.36,19.25-6.06,25.11-15.5a147.87,147.87,0,0,1,14.7-20.28c18.62-21,41.92-32.3,70.07-32.94l218.34.32c26.66.92,48.58,13.36,65.85,33.6a172.08,172.08,0,0,1,14.27,19.44c5.92,9.35,14.13,14,25,15.49q58.44,7.83,116.07,20.42c7.24,1.58,14.45,3.38,21.71,4.92,2.89.61,4.33,1.68,3.64,5-.77,3.61-2.84,3.22-5.51,2.49-43.38-11.86-87.81-18.16-132.19-24.62a23.31,23.31,0,0,0-3.69-.48c-16.08.23-27.54-7.45-36.22-20.48-4.64-6.94-9.94-13.44-15.08-20-12.86-16.45-29.41-26.06-50.55-27.44-9.92-.65-19.82-.72-29.73-.73q-89.14,0-178.28-.06c-8.05,0-16.09,0-24.13.8C823.4,166,808,174.65,796,189.7c-6.73,8.48-13.42,17-19.75,25.8-7.4,10.27-17.28,14.95-29.77,16.39a1085.58,1085.58,0,0,0-128,22.2q-4.95,1.18-9.86,2.57c-2.94.83-6,2.65-7.2-2.28C600.38,249.79,604.09,250.21,606.48,249.67Zm703.06,16.47c-.83,3.1-4.12,1.66-6.44,1.31a25.36,25.36,0,0,1-5.4-1.24c-1.5-.57-4.31,0-4-2.7.32-2.31,2.7-2,5.22-2.09a36.82,36.82,0,0,1,5.6,1.3C1306.49,263.45,1310.57,262.31,1309.54,266.14ZM1253,254.94c-.55,2.19-2.28,1.38-4.25,1.28-3.31-.88-7.14-1.88-11-3-1.63-.46-2.77-1.59-2.35-3.34.37-1.47,1.85-1.28,3-1.07,3.9.69,7.81,1.39,11.68,2.25C1252,251.53,1253.52,252.59,1253,254.94ZM979.67,243.73c.36-4.88-2.07-11,1.06-14.35s9.37-.83,14.22-1.33c2.37-.24,5.26.6,5.43-3.21s-2.4-3.62-5-3.64c-8.66-.07-17.34-.25-26-.31-8,0-6.93.4-7.27-6.9-.14-3.4-.2-6.79-.4-10.18,0-.43-.73-.82-1.92-2.07-2,4.67-1.25,9.13-1.14,13.33.12,4.38-1.25,6.08-5.8,5.94-8-.25-16.11,0-24.15.11a52,52,0,0,0-6.49.41c-1.84.25-2.38,1.67-2.35,3.39s.72,3,2.64,3c4.33.06,8.68.22,13,.06,3.35-.12,5.22.67,5.08,4.54-.2,5.57,0,11.16.05,16.73.06,3.08-1.15,4.49-4.36,4.37-4.64-.18-9.3-.12-14-.12q-107.79-.08-215.59-.16c-1.37,0-3.05.64-4.42-2a91.85,91.85,0,0,0,9.63-1.74c5.34-1.56,11-.91,15.47-6.69,2.88-3.72,10.39-3.7,15.37-.33,2.31,1.56,4.33,2.41,6.76,1.79,8.74-2.25,17.72-2.76,26.55-4.33,3.36-.61,9.11-.55,8.13-5.43-1-5.11-5.93-2.17-9.32-1.54-.89.17-1.81.22-4.08.49,3.72-4.35,6.87-7.78,9.72-11.44,6.49-8.28,13-16.57,19.19-25,12.88-17.58,30.59-26,51.86-26.26l216.3-.16c20.72.08,37.89,7.94,50.8,24.43,3.24,4.14,6.49,8.29,9.61,12.52,6.44,8.69,12.47,17.7,22.14,25.9-4.66-.71-7.7-1.28-10.77-1.6-2.69-.28-3.94,1.31-4.18,3.84-.22,2.32.94,3.26,3.14,3.59,11.32,1.65,22.63,3.4,34,5,1.17.17,3.4,0,3.45-.34,1.16-7.16,5.83-3.18,9.17-2.91,3.78.31,8.27-.79,9.6,4.9.59,2.55,3.47,2,5.5,2.54,6.53,1.66,13.56.9,21.67,4.88h-36l-197-.05h-5.57c-2.69,0-3.9-1.4-3.75-4.1C979.7,247.44,979.53,245.57,979.67,243.73ZM962,240.92h.15c0-2.47-.08-5,0-7.43.24-5.69.68-5.85,6.67-5.48,3.08.2,4.48,1.24,4.46,4.38,0,5.57,0,11.15.23,16.71.2,4.8-3,4.46-6.18,4.55s-5.53-.42-5.36-4.38C962.05,246.49,962,243.7,962,240.92Zm-3.39,8.17c.07,4.7-3.15,4.35-6.32,4.5-3.43.16-5.19-1-5-4.72.17-2.76,0-5.54,0-8.31h.07c0-2.16,0-4.31,0-6.47.17-6.25.68-6.51,7-6.14,3.22.17,4.3,1.48,4.24,4.52Q958.43,240.77,958.56,249.09ZM685,250.88c-5.47,3.74-10.2,3.62-14.4,5.06a2.28,2.28,0,0,1-3.23-2.11,2.77,2.77,0,0,1,2.67-3.06C674.42,250.33,678.86,249.19,685,250.88ZM623.56,266a101.27,101.27,0,0,1-10.75,2,2.78,2.78,0,0,1-3.07-2.7c-.15-1.66,1.24-1.85,2.42-1.94,3.65-.31,7-2.3,10.78-1.85,1.15.14,2.55,0,3,1.39C626.65,265,625,265.62,623.56,266ZM539.72,920.44a7.55,7.55,0,0,1-6.53,2.8c-3.72-.13-7.44,0-11.15,0-8.36-.3-16.7-.5-24.79-3.14a42.17,42.17,0,0,1-28.17-49.88c2.47-10.56,6.7-20.54,10.23-30.76,1.38-4,3.52-5.91,8.14-5.48,14.64,1.38,28.94,4.5,41.62,11.84C553.7,860,561.91,893.56,539.72,920.44Zm370.81-78.69a15.79,15.79,0,0,1-8.7.1c-8.19,1.81-16.5,1.28-24.78,1.23l-12.31.67c-2.55,1.53-5.33,1.35-8.12,1.06l-8.9.74c-2.46,1.51-5.13,1.47-7.84,1.16q-3.63.3-7.26.63a7,7,0,0,1-5.7,1l-7.09.91c-1.78,1.48-3.87,1.43-6,1.16l-5.39.61a3.49,3.49,0,0,1-3.78.88,17.13,17.13,0,0,1-7,1.12c-1.2,1.31-2.71,1.31-4.28,1-1.79.26-3.57.5-5.37.74a3.86,3.86,0,0,1-3.93,1l-5.23.88c-1.12,1.29-2.55,1.34-4.08,1.07l-5.15.81a1.56,1.56,0,0,1-2.19.74,10.18,10.18,0,0,1-5.45,1,3.78,3.78,0,0,1-4,1.12q-41.29,10.31-81.87,23.18a723.27,723.27,0,0,0-86.8,33.7c-10.94,5.07-27.43,6.46-41,3.27,4.5-7.45,8.87-14.84,10.6-23.39,5.64-27.88-9.59-54.52-36.77-63.93-6.13-2.12-12.41-3.84-18.67-5.57a89.84,89.84,0,0,0-18.16-2.69c-1.74-2.84.18-4.94.95-7.16,2.93-8.47,5.74-17,9.08-25.3,2.22-5.54,2-10.48-.08-16.08q-34-93.18-67.57-186.51c-5.14-14.24-10.13-28.53-15.45-42.71-4.81-12.88-8.31-15.29-22-15.44q-25.56-.27-51.12-.21a32.14,32.14,0,0,1-18.32-5.25c-16.61-10.67-37.58-2-42.77,17-2.34,8.54-1.09,17.24-1.38,25.87-.21,5.84-.34,11.68-.49,17.53-5.94,2.5-12.16.8-18.23,1.13-5.86.32-11.77.16-17.66,0-25-.81-43.08-12.56-53.4-35.16-5.89-12.9-10.32-26.47-15.25-39.79a49,49,0,0,1-2.9-17.29c0-19.82.29-39.65-.08-59.47-.14-8,2.26-13.79,9.81-17a20.22,20.22,0,0,0,4-2.3c4-3.06,7.5-3.77,12.24-.44,5,3.56,11.5,4.42,17.67,5.17a25,25,0,0,0,6.46-.3c2-.29,3.61-1.4,3.34-3.67-.2-1.72-1.67-2.42-3.33-2.66a145.92,145.92,0,0,1-22.15-4.64c2.12-3.78,5.72-5,8.78-6.78,58.25-34.28,119.54-62,182.83-85.64,38.52-14.38,77.1-28.55,116-41.9,2.86-1,5.61-2.81,9-2.15,1.7,1.84,1.83,4.41,2.68,6.69s0,3.83-2.24,5.27c-5.41,3.5-5.3,3.66-.45,9.51-5.85,2.86-11.58,5.26-17.92,6.1l-21,6.7A42.56,42.56,0,0,1,490.35,301c1.71-2,4.88-3.27,3.43-7.07-3-1.6-5.78.54-8.49,1.44a124.1,124.1,0,0,0-23.66,10.44c-3.93,2.31-8.8,4.06-6.41,10.38.25.65-.38,2.35-.77,2.4-5.62.79-9.43,7.56-16,4.91a5.68,5.68,0,0,0-4.43-.06c-9.84,3.62-19.7,7.14-29.55,10.73a11.2,11.2,0,0,0-2.45,1.28c-1.56,1.07-3.08,2.29-2,4.5.94,1.94,2.64,2.38,4.66,2.13,3.76-.45,7-2.46,10.48-3.58,3.07-1,5.74-3.91,9.57-2.2-1.71,4.18-5.24,6.91-7.74,10.38-12.28,17.15-19.11,36.53-23.4,57-.78,3.71-.07,7,1.61,10.65,2.37,5.08,3.64,10.74,2.34,16.54,2.48,1.95,2.8,5,3.76,7.73q44.39,126.24,88.8,252.49c8.55,24.12,15.75,48.75,26.4,72.1,3.65,3.28,4.47,8.14,6.94,12.07-4.28-3.19-6.47-8.73-12.23-10-3.21.48-3,2.9-2.24,4.88a35.46,35.46,0,0,0,4,7.2c5.15,7.4,12,13.22,18.11,19.78,1.09,1.18,2.32,2.37,3.85,2.33,9.42-.25,12.34,6.65,14.39,13.68,1,3.53,3.29,4.91,5.79,6.62,27.39,18.85,56.5,33.84,89.56,40a12.8,12.8,0,0,1,1.74.6c16.65,2.37,33.33,4.28,50.2,3.58,2.29-.95,4.49-2.21,7.09-2.13,1.7-1.6,3.74-1.75,5.91-1.41,2.75-.77,5.59-2.09,7.67,1.25l3.5.55a6.66,6.66,0,0,1,4.72-.53c1.88-1.75,4.14-1.53,6.41-1.25l3.23-.52c1.75-1.68,3.88-1.73,6.09-1.4l3.18-.47c1.75-1.71,3.89-1.7,6.11-1.33l3.31-.49c1.68-1.49,3.88-1.41,5.88-1.92l-.84-5.1c.5-3.19,2.78-2.1,4.68-1.93a1.27,1.27,0,0,1,1.61-.26c3.14-1.39,6.32-4,9.34.21a.88.88,0,0,1,.45,1.23c3.56,1.65,7.29,0,10.91.58a.93.93,0,0,1,1.37-.27c1.73-1.65,3.84-1.85,6.07-1.57a2.78,2.78,0,0,1,2.9-.34c2.5-1.91,5.39-1.66,8.26-1.47l3.06-.37c1.8-1.7,4-1.66,6.23-1.42,3.19-.95,2.28-6.31,6.55-6.08,1.91-1.65,4.17-1.55,6.46-1.3,1.85-.71,3.71-1.31,5.66-.33,2.53.06,2,2,2.18,3.48a1.39,1.39,0,0,1,1.48.34,6.72,6.72,0,0,1,4.65-.3c3.17-2.1,6.73-1.5,10.21-1.45,1.07-.12,2.15-.22,3.22-.33,6.74-2.77,13.83-1.7,20.8-1.87.63-5.45,4.22-6.28,8.78-5.62,2.93-1.49,5.86-2.76,8.73.12a3.11,3.11,0,0,1,.7,3l.06.15,7.35.5c3.75-1.41,7.51-3.18,11.09.36a8.69,8.69,0,0,1,.5,5.51C912.54,841.12,912.17,842,910.53,841.75Zm78.62-16.87c-2.09.27-4.7-.26-4.83,2.86-.12,2.78,2,3.66,4.35,3.76,3.38.13,6.78,0,10.83,0v28.05c0,2.27-1.33,3.39-3.46,3.4H926.32c-3.11,0-5.66-.51-5.36-4.45.66-8.63-.75-17.2-1-26.33,4.33-.35,8.28-.57,12.19-1,2.24-.26,4.39-1.07,4.23-3.91s-2.46-2.34-4.18-2.4c-8.93-.32-17.56-1-26.36-3.85-9.07-2.94-19.11-.45-28.6.55-34.17,3.62-68.27,7.79-102.06,14.31-22.49,4.33-44.25,12-66.8,15.75Q607.26,868.28,541.56,789c-3.53-4.27-4.83-9.17-4.66-14.66.11-3.7-.26-7.42-.33-11.14-.05-2-.5-4-2.61-4.29-2.73-.36-3.65,1.84-4.05,4.11-.33,1.81-.48,3.63-.75,5.77-2.9-1.06-3.27-3.55-4.22-5.58-10.05-21.64-17-44.44-25-66.84-18.39-51.62-36.4-103.38-54.59-155.08-11.55-32.82-23-65.67-34.79-98.42-8.25-23-9.74-45.86-.19-68.74,8.25-19.78,21.3-35.95,40.63-45.37,24.72-12,51.37-19.26,78.4-29.28.28,7.28.51,13.29.74,19.31a49.08,49.08,0,0,0,.31,5.56c.29,1.86,1.81,2.2,3.48,2.2,1.87,0,2.86-.88,2.88-2.73,0-7.13.31-14.26,0-21.37-.15-3.82,1-5.66,4.85-6.14a31.2,31.2,0,0,0,6.21-1.88c6.62-2.28,6.66-2.31,3.66-8.77-1-2.21,0-5.05-2.69-7.33l-24.65,5.15c-2.41-9.39-4.77-18.57-7.4-28.83l71.43-19.45c2.89,9.74,5.75,19.32,8.77,29.45-8.33,2.27-16.07,4.25-23.75,6.53-7.32,2.17-7.28,2.3-4.59,9.44,2.76,7.34,2.77,7.38,10.1,5.45,5.37-1.41,10.83-2.63,16.07-4.47,26.1-9.14,53.44-13,80.29-18.89,7.34-1.61,14.78-1.61,22.19-1.61q98.53-.09,197.07,0c13.32,0,26.65.12,40-.19,4.55-.11,7.68,1.08,8.92,6.57,3.86-2.68,5.34-7.67,10.68-6.56,3,.63,4.37,1.48,4.38,4.54q0,11.15.27,22.3c.05,1.66-.66,3.64,1.19,4.93,2.22-.45,1.78-2.26,1.82-3.64.16-6.81.06-13.64.41-20.44.13-2.47-1.76-6.47,2-7.08,3.34-.55,8.12-2.79,10,3.24,1,3.4,3.73,2.41,4.4,0,1.09-3.84,3.7-3.58,6.46-3.61q9.3-.07,18.59-.06c67.24-.12,134.48,0,201.72-.43a299.93,299.93,0,0,1,67.13,7.47c24.14,5.34,48.1,11.06,71.39,19.4L1349,287c-.31-4.73,3.11-8.64,3.15-14.06L1323,264.6c2.74-9.83,5.41-19.45,8.23-29.61l71.9,19.6c-2.7,9.91-5.19,19.12-7.81,28.78-6.49-1.46-12.77-2.69-18.95-4.33-3.93-1.05-6.56-.76-7.35,3.92-.23,1.45-1.27,2.8-2.09,4.11-2.37,3.77-.7,5.23,3,6.69,4.43,1.76,10.93.56,12.94,5.58,1.61,4,.52,9.15.62,13.78.06,2.79,0,5.58.19,8.36.14,2.34-.5,5.4,3.45,5.13,3.1-.21,2.86-2.68,2.91-4.83.09-3.71.13-7.43.16-11.14,0-3.09,0-6.18,0-8.92,2.55-2.11,4.49-.73,6.41,0,19.5,6.94,39,13.81,58.46,20.87,36.68,13.31,55.48,40.73,61,78.24,1.71,11.55-.79,22.9-4.44,33.78-8.54,25.5-17.45,50.86-26.37,76.22q-40,113.7-80.11,227.33c-3.69,10.47-7.76,20.76-12.76,29.66-1.56.74-1.93.46-2.19-.33-1-2.91.88-8.19-4-7.86-3.5.24-1.64,5.28-2.82,8a3.17,3.17,0,0,0-.16,1.83c2.54,11.23-4,18.76-10.68,26.18-40.88,45.41-91.83,64.29-152.42,57.76-17-1.83-33.12-7.68-49.65-11.58-33.19-7.84-66.85-12.85-100.67-17-16.61-2-33.25-3.58-50-4.48-3.79-.21-7.21,0-10.72,1.85C1003,825.53,995.85,824,989.15,824.88ZM526,290.68c.26-.8.88-.81,1.18,0a5.42,5.42,0,0,1,0,1.77c-.34.68-.83.71-1.13-.11A2.7,2.7,0,0,1,526,290.68ZM1746.84,518c-4.18,11-8.07,22.07-12.61,32.9-10.39,24.8-29.22,37.57-56.15,38.11-9.92.2-19.84-.17-29.75.13-4.67.15-5.64-1.63-5.49-5.95.36-10.52.51-21.06.17-31.58-.37-11.43-5.86-20-16.14-25.25-9.95-5.07-20-5-29,1.57-4.92,3.59-9.73,4.72-15.44,4.7-16.73-.07-33.45.08-50.18.14-16.91,0-19.82,1.91-25.77,18.13-10.33,28.14-20.47,56.36-30.67,84.54-16.63,45.92-33.12,91.89-50,137.71a33.4,33.4,0,0,0,0,24.24c7.73,21.2,14.92,42.59,22.64,63.79,5.06,13.88,5,27.38-2.64,40.16-8.07,13.43-20.4,20.6-36,21.26-21.36.9-42.74.77-64.12.32-6.34-.13-12-2.77-17.66-5.29-54.37-24.29-110.7-42.69-168.66-56.17-46.56-10.83-93.67-17.66-141.51-18.88a54.37,54.37,0,0,1-5.57-.24c-2.23-.27-5.25.71-5.32-3.32-.09-4.44,1.35-6.4,5.53-6.66a18.72,18.72,0,0,1,5.55.16c3.7.88,6.61,1.83,9.39-2.67,2.14-3.48,14.32-1.3,17.42,2.6,1.31,1.65,1.65,3.46,4.68,3.21,10.27-.82,20.3,1.59,30.41,2.92,2.08.28,5.13,1.89,6-.32,1.92-5.28,5-3.95,8.69-2.77,3.37,1.09,7.65.06,9.17,4.81.92,2.88,3.64,2.9,6.1,3.35,9.43,1.72,18.83,3.58,28.27,5.3,1.72.31,4,1.47,5.18-.44,4.31-7.08,9.74-2.15,14.75-1.64,1.81.19,2.8,1.36,2.35,3.16-1,4.1,1.6,4.46,4.58,5,10.63,2,21.21,4.29,31.82,6.4,1.17.23,3.1.52,3.51,0,3.55-5,8.12-2.35,11.83-1.2,16.47,5,33,3.56,49.68,1.7,39-4.33,72.56-21.54,104.34-43.16,2.08-1.4,4-2.84,4.25-5.7.54-5.34,4.72-8.55,7.68-12.44.91-1.2,2.12-2.68,3.83-1.89,4.61,2.13,6.9-1.21,9.37-3.84,6.6-7,12.89-14.24,17.56-22.73,1-1.77,3.16-3.71.94-5.74s-4,.36-5.85,1.16c-.49.2-.79.89-1.18,1.36-.31,3.32-3.56,4.52-5.47,7.61.63-3.93,1.73-6.82,4.22-9.08,9.23-19.87,15.72-40.76,23-61.36q43.82-124.57,87.68-249.1c4.19-11.94,8.21-23.93,10.68-36.42.61-3,.48-6.52,3.94-8.94,2.37-1.67.7-5.17.08-7.85-5.83-25.69-15-49.74-35.11-69.53,7.48.71,12.69,4.35,18.54,5.94,3.43.93,8.06,4,9.82-.23,2.17-5.22-3.88-5-7-6.24-7.16-2.88-14.42-5.55-21.68-8.17-4-1.43-7.63-3.52-12.39-1.38-3.87,1.73-6.34-3.12-9.85-4.08s-6-2.44-4.7-7c.65-2.3-1.89-3.69-3.61-5-9.09-6.72-19.42-10.83-30.31-13.45-4.65-1.11-5.11,0-3,5.65a84.4,84.4,0,0,1,18.78,8.94,126.29,126.29,0,0,1-22.35-6.87,63.36,63.36,0,0,1-17.32-5.75c-.31-2.3,1.31-2.67,2.52-3.42,2.67-1.67,2-3.45.06-5.2-5.86-5.38-5.86-5.38-2.58-14.22,108.07,38,216.54,74.85,315.45,135.82-5.78,4.56-12.5,4.21-18.52,6-2.72.78-7.47,0-7,3.87.51,4.3,5.33,3.41,8.53,3.13,8-.68,16-2.12,23.07-6.33,2.83-1.69,4.59-1.38,7.29.38,18.14,11.75,15.17,6.66,15.44,27.59.22,16.72-.06,33.44.11,50.17A63.66,63.66,0,0,1,1746.84,518Z"/><path class="cls-2" d="M1516.11,400.79c-5.56-37.51-24.36-64.93-61-78.24-19.45-7.06-39-13.93-58.46-20.87-1.92-.69-3.86-2.07-6.41,0,0,2.74,0,5.83,0,8.92,0,3.71-.07,7.43-.16,11.14,0,2.15.19,4.62-2.91,4.83-3.95.27-3.31-2.79-3.45-5.13-.16-2.78-.13-5.57-.19-8.36-.1-4.63,1-9.75-.62-13.78-2-5-8.51-3.82-12.94-5.58-3.66-1.46-5.33-2.92-3-6.69.82-1.31,1.86-2.66,2.09-4.11.79-4.68,3.42-5,7.35-3.92,6.18,1.64,12.46,2.87,18.95,4.33,2.62-9.66,5.11-18.87,7.81-28.78l-71.9-19.6c-2.82,10.16-5.49,19.78-8.23,29.61l29.15,8.32c0,5.42-3.46,9.33-3.15,14.06l-5.27.58c-23.29-8.34-47.25-14.06-71.39-19.4a299.93,299.93,0,0,0-67.13-7.47c-67.24.39-134.48.31-201.72.43q-9.28,0-18.59.06c-2.76,0-5.37-.23-6.46,3.61-.67,2.37-3.35,3.36-4.4,0-1.86-6-6.64-3.79-10-3.24-3.79.61-1.9,4.61-2,7.08-.35,6.8-.25,13.63-.41,20.44,0,1.38.4,3.19-1.82,3.64-1.85-1.29-1.14-3.27-1.19-4.93q-.25-11.14-.27-22.3c0-3.06-1.35-3.91-4.38-4.54-5.34-1.11-6.82,3.88-10.68,6.56-1.24-5.49-4.37-6.68-8.92-6.57-13.32.31-26.65.19-40,.19q-98.53,0-197.07,0c-7.41,0-14.85,0-22.19,1.61-26.85,5.94-54.19,9.75-80.29,18.89-5.24,1.84-10.7,3.06-16.07,4.47-7.33,1.93-7.34,1.89-10.1-5.45-2.69-7.14-2.73-7.27,4.59-9.44,7.68-2.28,15.42-4.26,23.75-6.53-3-10.13-5.88-19.71-8.77-29.45l-71.43,19.45c2.63,10.26,5,19.44,7.4,28.83l24.65-5.15c2.69,2.28,1.66,5.12,2.69,7.33,3,6.46,3,6.49-3.66,8.77a31.2,31.2,0,0,1-6.21,1.88c-3.83.48-5,2.32-4.85,6.14.3,7.11,0,14.24,0,21.37,0,1.85-1,2.73-2.88,2.73-1.67,0-3.19-.34-3.48-2.2a49.08,49.08,0,0,1-.31-5.56c-.23-6-.46-12-.74-19.31-27,10-53.68,17.25-78.4,29.28-19.33,9.42-32.38,25.59-40.63,45.37-9.55,22.88-8.06,45.78.19,68.74,11.77,32.75,23.24,65.6,34.79,98.42C463.58,593,481.59,644.75,500,696.37c8,22.4,14.91,45.2,25,66.84.95,2,1.32,4.52,4.22,5.58.27-2.14.42-4,.75-5.77.4-2.27,1.32-4.47,4.05-4.11,2.11.29,2.56,2.31,2.61,4.29.07,3.72.44,7.44.33,11.14-.17,5.49,1.13,10.39,4.66,14.66q65.49,79.07,166.83,62.63c22.55-3.72,44.31-11.42,66.8-15.75,33.79-6.52,67.89-10.69,102.06-14.31,9.49-1,19.53-3.49,28.6-.55,8.8,2.85,17.43,3.53,26.36,3.85,1.72.06,4-.3,4.18,2.4s-2,3.65-4.23,3.91c-3.91.46-7.86.68-12.19,1,.24,9.13,1.65,17.7,1,26.33-.3,3.94,2.25,4.46,5.36,4.45H996c2.13,0,3.46-1.13,3.46-3.4V831.54c-4,0-7.45.09-10.83,0-2.33-.1-4.47-1-4.35-3.76.13-3.12,2.74-2.59,4.83-2.86,6.7-.89,13.81.65,20.06-2.71,3.51-1.89,6.93-2.06,10.72-1.85,16.71.9,33.35,2.46,50,4.48,33.82,4.1,67.48,9.11,100.67,17,16.53,3.9,32.61,9.75,49.65,11.58,60.59,6.53,111.54-12.35,152.42-57.76,6.66-7.42,13.22-15,10.68-26.18a3.17,3.17,0,0,1,.16-1.83c1.18-2.69-.68-7.73,2.82-8,4.83-.33,3,4.95,4,7.86.26.79.63,1.07,2.19.33,5-8.9,9.07-19.19,12.76-29.66q40.1-113.65,80.11-227.33c8.92-25.36,17.83-50.72,26.37-76.22C1515.32,423.69,1517.82,412.34,1516.11,400.79ZM530.56,346.91c0-2.16.76-3.41,3.2-3.37,2.62.06,2.89,1.77,2.9,3.68.05,6.14,0,12.27,0,18.41h.09c0,5.53,0,11.05,0,16.58,0,1.87-.18,3.63-2.84,3.73-3,.11-3.58-1.65-3.56-4.06Q530.45,364.41,530.56,346.91Zm-.76,238.86c0-2.86.94-4.78,4.22-4.73s3.06,2.37,3.06,4.55c0,5.24,0,10.48,0,15.72H537c0,5.85,0,11.71,0,17.57,0,2.41-.48,4.4-3.34,4.48s-3.54-2-3.57-4.31C530,608,529.9,596.86,529.8,585.77Zm4,157.21c-4.24,0-3.8-3.27-3.8-6,0-4,.23-8,.28-12,.09-6.47.08-13,.19-19.44,0-2.35-.58-5.25,3.39-5.09,3.35.13,2.87,2.63,2.9,4.67.07,5.86,0,11.73,0,17.59h0c0,4.94.12,9.88,0,14.81C536.67,739.7,537.84,743,533.79,743Zm3.07-63.82c0,2.19.07,4.37-3.24,4.25s-3.23-2.27-3.23-4.47c0-12.32.56-24.63-.36-36.94,4.14-1.67,6.33-.24,6.61,4.17.2,3,.38,6,.56,9Q537,667.15,536.86,679.16Zm.8-123.69c-.19,1.17-.38,2.35-.55,3.53-.26,1.93.72,4.47-2.37,5-2.71.49-4.75-.28-5.55-3.17.13-10.65.2-21.29.36-31.94.11-7.37.2-7.4,7.9-4.67-.35,2.88-.68,5.76.34,8.59A126.6,126.6,0,0,0,537.66,555.47Zm.22-88.44c-1,11.11-.74,22.25-1.19,33.37-.07,2,.73,4.6-2.71,4.76-3.28.15-4.29-1.73-4.39-4.61-.07-2.13-.3-4.24-.54-7.5-22.1,17.58-44.92,17.4-60.53.36-13.78-15-13-40,2-54.7,13.55-13.29,37-17.8,57.4,1.58,2.87-1.16,1.61-3.68,1.69-5.59.38-9.28.57-18.56.8-27.84.07-2.32.29-4.39,3.41-4.32,3.37.08,2.9,2.53,2.92,4.64q.13,16.24.22,32.49c0,.92.24,2.4-.21,2.68-7.21,4.47-1.38,9.07-.34,13.69C537.18,459.64,538.2,463.43,537.88,467ZM960.42,733.94A39.92,39.92,0,1,1,1000.33,694,40,40,0,0,1,960.42,733.94Zm424-387.17c0-1.6.48-3.14,2.49-3.24,2.65-.11,2.81,1.88,2.83,3.75,0,5.89,0,11.78,0,17.66h.16v17.65c0,2.1-.62,3.58-3.12,3.48-2-.09-2.55-1.4-2.54-3.06Q1384.32,364.91,1384.44,346.77Zm0,270.79c-.19-4.92-.06-9.85-.06-14.78h.1c0-5.25-.23-10.49.1-15.71.14-2.37-1.63-6.78,2.61-6.52,3.58.22,2.22,4.44,2.33,7,.24,5.85.21,11.71.26,17.56,0,4,.15,8,0,12-.11,2.47,1.35,6.42-3,6.34C1383.16,623.36,1384.52,619.74,1384.44,617.56Zm-.17-91.84c0-1.93.26-3.72,2.87-3.8s2.77,1.82,2.78,3.7c0,5.86,0,11.73,0,17.6h-.07c0,6.18,0,12.36,0,18.54,0,1.78-.84,2.85-2.73,2.9s-2.77-1-2.77-2.8Q1384.3,543.78,1384.27,525.72Zm.11,137.18h.21c0-5.88,0-11.75,0-17.63,0-1.8,0-4.17,2.54-4,2.39.16,2.44,2.44,2.46,4.29q.12,17.18.19,34.35c0,2-.44,3.75-3,3.69-2.82-.06-2.41-2.24-2.43-4C1384.35,674.05,1384.38,668.47,1384.38,662.9Zm2.65,80.57c-2.55,0-2.73-2-2.73-3.9q0-18,.06-35.92c0-1.59.31-3.1,2.3-3.3,2.61-.25,3,1.54,3,3.51,0,6.14,0,12.27,0,18.41h.28c0,5.84,0,11.68,0,17.51C1390,741.86,1389.41,743.49,1387,743.47Zm63.85-249.9c-15.77,16.95-36.55,17.08-60.13-.12-.33,3.28-.63,6.18-.9,9.09-.17,1.9-1.41,2.58-3.1,2.72a2.55,2.55,0,0,1-3-2.62c-.19-2.46-.28-4.94-.37-7.41q-.46-13.46-.91-26.9c-.14-4.65-.06-9.27,1.52-13.75,1.48-4.2,5.18-8.47-.45-12.52-.49-.34-.31-1.76-.29-2.68.24-10.83.49-21.66.81-32.49.06-2.12-.09-4.65,3.14-4.57s2.85,2.6,2.85,4.71c0,10.8,0,21.59,0,33.74,25.44-18.06,45.18-17.64,61.43.37C1464.7,455.84,1464.46,479,1450.88,493.57Z"/><path class="cls-1" d="M1451.44,441.14c-16.25-18-36-18.43-61.43-.37,0-12.15,0-22.94,0-33.74,0-2.11.44-4.64-2.85-4.71s-3.08,2.45-3.14,4.57c-.32,10.83-.57,21.66-.81,32.49,0,.92-.2,2.34.29,2.68,5.63,4.05,1.93,8.32.45,12.52-1.58,4.48-1.66,9.1-1.52,13.75q.43,13.46.91,26.9c.09,2.47.18,4.95.37,7.41a2.55,2.55,0,0,0,3,2.62c1.69-.14,2.93-.82,3.1-2.72.27-2.91.57-5.81.9-9.09,23.58,17.2,44.36,17.07,60.13.12C1464.46,479,1464.7,455.84,1451.44,441.14Zm-29.85,58.16c-17.38.37-31.24-14-31.54-32.7-1.87-18.87,16.68-31.52,31.54-31.93,16.9-.48,32,14.74,32.07,31.87A32.27,32.27,0,0,1,1421.59,499.3Z"/><path class="cls-1" d="M537.88,467c.32-3.6-.7-7.39-1.5-11-1-4.62-6.87-9.22.34-13.69.45-.28.21-1.76.21-2.68q-.09-16.25-.22-32.49c0-2.11.45-4.56-2.92-4.64-3.12-.07-3.34,2-3.41,4.32-.23,9.28-.42,18.56-.8,27.84-.08,1.91,1.18,4.43-1.69,5.59-20.41-19.38-43.85-14.87-57.4-1.58-15,14.71-15.75,39.66-2,54.7,15.61,17,38.43,17.22,60.53-.36.24,3.26.47,5.37.54,7.5.1,2.88,1.11,4.76,4.39,4.61,3.44-.16,2.64-2.79,2.71-4.76C537.14,489.28,536.89,478.14,537.88,467ZM498.17,499.4c-16.88.36-32.08-14.78-32.07-31.93,0-18,14.42-32.79,32.14-32.94,17.26-.14,31.64,14.32,31.82,32A32.12,32.12,0,0,1,498.17,499.4Z"/><path class="cls-1" d="M537.66,555.47c-.19,1.17-.38,2.35-.55,3.53-.26,1.93.72,4.47-2.37,5-2.71.49-4.75-.28-5.55-3.17.13-10.65.2-21.29.36-31.94.11-7.37.2-7.4,7.9-4.67-.35,2.88-.68,5.76.34,8.59A126.6,126.6,0,0,0,537.66,555.47Z"/><path class="cls-1" d="M537.2,655.15q-.16,12-.34,24c0,2.19.07,4.37-3.24,4.25s-3.23-2.27-3.23-4.47c0-12.32.56-24.63-.36-36.94,4.14-1.67,6.33-.24,6.61,4.17C536.84,649.16,537,652.16,537.2,655.15Z"/><path class="cls-1" d="M533.79,743c-4.24,0-3.8-3.27-3.8-6,0-4,.23-8,.28-12,.09-6.47.08-13,.19-19.44,0-2.35-.58-5.25,3.39-5.09,3.35.13,2.87,2.63,2.9,4.67.07,5.86,0,11.73,0,17.59h0c0,4.94.12,9.88,0,14.81C536.67,739.7,537.84,743,533.79,743Z"/><path class="cls-1" d="M1390,739.78c0,2.08-.58,3.71-3,3.69-2.55,0-2.73-2-2.73-3.9q0-18,.06-35.92c0-1.59.31-3.1,2.3-3.3,2.61-.25,3,1.54,3,3.51,0,6.14,0,12.27,0,18.41h.28C1390,728.11,1390,734,1390,739.78Z"/><path class="cls-1" d="M1386.79,623.44c-3.63-.08-2.27-3.7-2.35-5.88-.19-4.92-.06-9.85-.06-14.78h.1c0-5.25-.23-10.49.1-15.71.14-2.37-1.63-6.78,2.61-6.52,3.58.22,2.22,4.44,2.33,7,.24,5.85.21,11.71.26,17.56,0,4,.15,8,0,12C1389.63,619.57,1391.09,623.52,1386.79,623.44Z"/><path class="cls-1" d="M536.76,382.21c0,1.87-.18,3.63-2.84,3.73-3,.11-3.58-1.65-3.56-4.06q.09-17.47.2-35c0-2.16.76-3.41,3.2-3.37,2.62.06,2.89,1.77,2.9,3.68.05,6.14,0,12.27,0,18.41h.09C536.77,371.16,536.8,376.68,536.76,382.21Z"/><path class="cls-1" d="M1389.93,543.22h-.07c0,6.18,0,12.36,0,18.54,0,1.78-.84,2.85-2.73,2.9s-2.77-1-2.77-2.8q0-18.08-.08-36.14c0-1.93.26-3.72,2.87-3.8s2.77,1.82,2.78,3.7C1389.94,531.48,1389.93,537.35,1389.93,543.22Z"/><path class="cls-1" d="M1389.94,364.94v17.65c0,2.1-.62,3.58-3.12,3.48-2-.09-2.55-1.4-2.54-3.06q0-18.11.16-36.24c0-1.6.48-3.14,2.49-3.24,2.65-.11,2.81,1.88,2.83,3.75,0,5.89,0,11.78,0,17.66Z"/><path class="cls-1" d="M1389.8,679.91c0,2-.44,3.75-3,3.69-2.82-.06-2.41-2.24-2.43-4-.05-5.56,0-11.14,0-16.71h.21c0-5.88,0-11.75,0-17.63,0-1.8,0-4.17,2.54-4,2.39.16,2.44,2.44,2.46,4.29Q1389.73,662.74,1389.8,679.91Z"/><path class="cls-1" d="M537,618.88c0,2.41-.48,4.4-3.34,4.48s-3.54-2-3.57-4.31c-.14-11.1-.23-22.19-.33-33.28,0-2.86.94-4.78,4.22-4.73s3.06,2.37,3.06,4.55c0,5.24,0,10.48,0,15.72H537C537,607.16,537,613,537,618.88Z"/><path class="cls-1" d="M1433.45,887c-.19,12.27-10.53,22.8-22.39,22.8-12.56,0-22.86-9.92-22.88-22.05,0-12.91,10.34-23.44,22.81-23.17C1423.64,864.87,1433.64,874.86,1433.45,887Zm-7.7.29c.12-8.22-7.16-15.84-15-15.76-7.62.08-14.88,7.14-15.18,14.76-.31,8.12,6.68,15.84,14.66,16.19S1425.63,895.52,1425.75,887.32Z"/><path class="cls-1" d="M1432.83,711.29c4.46,2.59,4.23,6,3.46,9.34a84.64,84.64,0,0,1-12.56,28.59,18.1,18.1,0,0,1-1.78,2.13,4,4,0,0,1-5,1c-2-1-1.92-2.92-1.15-4.78.93-2.28,1.8-4.59,2.86-6.81C1423.26,731.13,1427.93,721.48,1432.83,711.29Z"/><path class="cls-1" d="M1681.27,414a3.29,3.29,0,0,1-3.14,2.84c-2.56.28-4.71-1-6.87-2.18-8.06-4.43-16.13-8.82-24.19-13.24a17.62,17.62,0,0,1-3.1-1.95c-2-1.7-1.73-3.91-.65-5.86,1.26-2.26,3.25-1.18,4.79-.33,6.16,3.42,12.27,6.94,18.36,10.5q6.36,3.71,12.6,7.61C1680,412,1681.34,412.44,1681.27,414Z"/><path class="cls-1" d="M1515.1,491.51c-2.79,11.64-5.72,23.61-10.22,35.13-.82,2.11-2,3.94-4.84,2.87s-2.66-3.46-2-5.45c3.89-11.69,8-23.33,12.08-34.94.5-1.4,1.78-2.79,3.6-2S1514.86,489.67,1515.1,491.51Z"/><path class="cls-1" d="M1458.75,636.44a39.6,39.6,0,0,1,1.12-4.76c3.46-9.85,7-19.68,10.51-29.5.55-1.51,1.47-2.87,3.29-2.42s2.2,2.17,1.9,3.7c-.75,3.91-1.55,7.82-2.67,11.63-2.34,7.95-4.32,16-8,23.52-.84,1.71-1.79,3.45-4,2.92S1458.59,639,1458.75,636.44Z"/><path class="cls-1" d="M1575.54,361.14a3.61,3.61,0,0,1-3.23,2.73c-2.6.21-4.75-1.17-7-2a165.93,165.93,0,0,1-24.58-10.32c-1.88-1-4.11-1.69-5.07-3.76s-.41-3.7,2.16-3.73a13.19,13.19,0,0,1,3.55.88c10.66,3,20.67,7.71,30.71,12.31C1573.71,358.05,1575.41,358.91,1575.54,361.14Z"/><path class="cls-1" d="M1495.78,547.26c-3.52,12-6.51,24.27-11,36-.8,2.07-2.66,2.41-4.58,1.52a3.42,3.42,0,0,1-1.85-4.61c2.55-7.56,5.1-15.13,7.79-22.64,1.45-4,3.11-8,4.86-11.94a2.53,2.53,0,0,1,3.1-1.31C1495.51,544.73,1495.71,545.93,1495.78,547.26Z"/><path class="cls-1" d="M1630.17,385.37c-2.61,3.92-5.47,3.5-8,2.35-10.35-4.7-20.58-9.64-30.89-14.44-1.55-.73-2.69-1.82-2.39-3.45.44-2.45,2.59-2.26,4.41-2.07a13.78,13.78,0,0,1,3.53,1A216.55,216.55,0,0,1,1630.17,385.37Z"/><path class="cls-1" d="M1454.35,656.34c2.22,1.75,1.49,4,1,5.94a241.63,241.63,0,0,1-9.09,31c-.87,2.27-1.24,5.15-4.83,3.91-3.31-1.14-2.67-3.51-1.81-6,3.39-9.9,6.65-19.84,10.06-29.72C1450.5,659.17,1451.33,656.71,1454.35,656.34Z"/><path class="cls-1" d="M1529.44,439.76c-1,9.49-2.79,19.8-6.6,29.67-.69,1.8-1.47,3.65-3.82,2.88s-2-2.65-1.56-4.6c2.13-10.26,4.66-20.47,5-31A8.89,8.89,0,0,1,1523,434c.67-1.86,1.85-3.42,4-3.19,2.5.27,2.3,2.46,2.41,4.27C1529.5,436.3,1529.44,437.54,1529.44,439.76Z"/><path class="cls-1" d="M448.62,599.72c.37,0,.67,1.31,1.14,2.43A271.52,271.52,0,0,1,462,636.83c.47,1.74.91,3.75-1.4,4.74-2.54,1.09-4.36-.28-5.31-2.3a242.51,242.51,0,0,1-12.18-32.78C442.21,603.44,445.29,599.26,448.62,599.72Z"/><path class="cls-1" d="M406.78,486.59c2.09-.19,2.76,1.05,3.32,2.6,4.07,11.31,8.24,22.58,12.25,33.9.77,2.18,2.14,4.95-1.48,6.1-3.21,1-5.32-.35-6.33-3.53-3.41-10.87-8-21.34-10.45-32.54C403.39,489.88,403.6,487.74,406.78,486.59Z"/><path class="cls-1" d="M481.59,694.52c0,2.54-1.85,3-3.75,3.08a3.73,3.73,0,0,1-3.7-2.34,347,347,0,0,1-11.52-34.16c-.62-2.23.87-3.35,2.9-3.9,1.67-.45,3.22-.28,3.88,1.41,4.49,11.5,8.72,23.09,12.06,35A6.79,6.79,0,0,1,481.59,694.52Z"/><path class="cls-1" d="M441.77,579.91c.33,2.81-.21,4.49-2.39,5a3.45,3.45,0,0,1-4.38-2.36c-3.93-11-7.89-21.88-11.57-32.91-.91-2.74,1-4.87,3.63-5.45,2.4-.52,2.88,1.9,3.46,3.47,3.6,9.77,7.09,19.58,10.57,29.39A21.56,21.56,0,0,1,441.77,579.91Z"/><path class="cls-1" d="M503.41,749.87c-.3,2.57-1.71,2.73-3.33,2.25-1.89-.57-2.95-2.19-4-3.71-6-9-10.14-18.93-13.31-29.26-.18-.59-.3-1.2-.44-1.8-.59-2.66.89-4,3.12-4.84,2.44-.88,3.41,1,4.1,2.66,2.31,5.35,4.43,10.8,6.6,16.21q3.07,7.7,6.13,15.41C502.76,747.92,503.13,749.08,503.41,749.87Z"/><path class="cls-1" d="M348.64,363.81c-2.05,0-3.44-.74-3.74-2.45a2.77,2.77,0,0,1,1.56-3.05c11.28-5.7,22.81-10.76,35.06-14a2.28,2.28,0,0,1,3,1.4,3,3,0,0,1-.55,3.39,4,4,0,0,1-1.43,1.13C372,354.59,362,360.1,351,363.43A16.13,16.13,0,0,1,348.64,363.81Z"/><path class="cls-1" d="M241.68,417.13c-2.64-.13-2.93-1.81-2.27-3.81s2.31-2.82,3.91-3.75c8.78-5.12,17.54-10.28,26.39-15.28,2-1.13,4.61-2.84,6.32.4,1.37,2.6.37,4.8-2.22,6.15q-14.74,7.7-29.5,15.33A21.55,21.55,0,0,1,241.68,417.13Z"/><path class="cls-1" d="M397.19,430.61A193.89,193.89,0,0,0,402,463.48c.42,1.8.8,3.61,1,5.44.32,2.42-1.59,3.07-3.3,3.74a2.6,2.6,0,0,1-3.63-1.81c-3.84-12.18-5.85-24.62-4.49-37.4.39-3.67,3.55-2.51,5.88-2.53Z"/><path class="cls-1" d="M329.48,369.31a3,3,0,0,1-1.42,3.27c-10.57,5.56-20.82,11.82-32.27,15.53-1.72.56-3.8.88-4.55-1.54-.52-1.7.48-2.95,2-3.68,10.46-5.15,20.71-10.76,31.65-14.87C326.56,367.38,328.53,367.17,329.48,369.31Z"/><path class="cls-1" d="M874.38,231.66c-3.71,0-7.1.05-10.49,0-2.84-.06-3.47-2-3.52-4.39-.06-2.7,1.94-2.7,3.78-2.78,11.38-.51,22.76-1,34.14-1.47,2.68-.11,6.09-.77,6.05,3.49,0,3.44-3,3.3-5.42,3.47C890.63,230.52,882.34,231.1,874.38,231.66Z"/><path class="cls-1" d="M1036.59,223.76c6.15.3,12.3.65,18.45.88,2.45.09,4.09.67,4.16,3.59.07,3.07-1.79,3.58-4.14,3.47-11.68-.54-23.36-1.16-35-1.65-2.8-.12-3.76-1.44-3.64-4.07.12-2.42,1.5-3,3.61-3,5.54,0,11.07,0,16.6,0Z"/><path class="cls-1" d="M836.56,227c1.24,0,2.48,0,3.71,0,2.27,0,3.32,1.32,3.42,3.48.11,2.35-1.23,3.21-3.39,3.39-4.92.44-9.84,1-14.77,1.45L807.06,237c-2.2.2-4.56.48-5-2.54s.73-4.56,4-4.81C816.23,228.83,826.39,227.85,836.56,227Z"/><path class="cls-1" d="M1112.41,236.35c-8.9-.5-17.8-1-26.7-1.52-1.83-.12-3.64-.61-5.48-.77-2.71-.24-3.77-1.7-3.48-4.3.32-2.83,2.13-3.31,4.6-3.06,11,1.11,22,2.14,33,3.22,2,.2,4.61-.24,4.35,3.16-.21,2.83-2.23,3.36-4.51,3.54-.61,0-1.22,0-1.84,0C1112.4,236.53,1112.4,236.44,1112.41,236.35Z"/><path class="cls-1" d="M531.68,887.41a22.53,22.53,0,0,1-22.41,22.4c-12.81,0-22.68-9.5-22.72-21.93,0-13.51,9.26-23.25,22.29-23.34A22.35,22.35,0,0,1,531.68,887.41Zm-23,15.22c7.93.21,15.39-7.22,15.45-15.4.05-7.3-7.45-15.46-14.4-15.67-8.15-.24-15.57,6.81-15.87,15.06S500.59,902.42,508.71,902.63Z"/><path class="cls-1" d="M960.42,654.1A39.92,39.92,0,1,0,1000.33,694,40,40,0,0,0,960.42,654.1Zm0,72.4A32.48,32.48,0,1,1,992.89,694,32.52,32.52,0,0,1,960.42,726.5Z"/><rect class="cls-2" width="1" height="1"/><rect class="cls-2" x="1919" y="1079" width="1" height="1"/><rect class="cls-2" y="1079" width="1" height="1"/><rect class="cls-2" x="1919" width="1" height="1"/></g><g id="Capa_3" data-name="Capa 3"><path d="M808.14,423V534H788.31V463.25L768.8,478.16l-16.18,12.53-16.18-12.53-19.51-14.91V534H697.11V423l19.82,15.23,35.69,27.44,35.69-27.44Z"/><path d="M862.06,459.92v75.5H842.23V457.86a15.8,15.8,0,0,0-13.48-13.48h-4.44V424.71h4.28v.16a35.42,35.42,0,0,1,29.5,19.82,41.57,41.57,0,0,1,2.7,7.46,33.47,33.47,0,0,1,1,8.09Z"/><path d="M988.16,514.49v19.82H877.44V501.64a31.5,31.5,0,0,1,2.7-12.85,32.59,32.59,0,0,1,28.87-20h48.06A13,13,0,0,0,956,443h-78.2V423.12H956a32.63,32.63,0,0,1,32.67,32.68,32.28,32.28,0,0,1-9.36,22.68,32.89,32.89,0,0,1-22.36,10H909a12.91,12.91,0,0,0-11.58,12.85v12.85Z"/><path d="M1106.48,478.64A32.75,32.75,0,0,1,1083,534.15h-45.52a32.58,32.58,0,0,1-30.14-20,34.5,34.5,0,0,1-2.54-12.85,32.67,32.67,0,0,1,9.2-22.84,31.24,31.24,0,0,1-6.82-10,34.5,34.5,0,0,1-2.53-12.85,32.17,32.17,0,0,1,32-32.83h46.47a32.87,32.87,0,0,1,23,55.67ZM1082.21,469a12.94,12.94,0,0,0,.47-25.85h-46.79a12.93,12.93,0,0,0,.32,25.85h46Zm.16,45.53a13.07,13.07,0,0,0,13-13,12.92,12.92,0,0,0-12.21-13h-46.47a12.89,12.89,0,0,0-12.22,12.85,13.07,13.07,0,0,0,13,13H1083Z"/><path d="M1219.25,442.63a34.64,34.64,0,0,1,3.64,15.55v75.66h-19.82V456.27a15.83,15.83,0,0,0-13.49-13.48h-58.21V423h56.31a34.44,34.44,0,0,1,15.54,3.65,35.24,35.24,0,0,1,16,16.18Z"/></g></g></svg>