<svg xmlns="http://www.w3.org/2000/svg" viewBox="0 0 1920 1080"><defs><style>.cls-1{fill:#f2f2f2;}</style></defs><g id="Capa_2" data-name="Capa 2"><g id="Capa_1-2" data-name="Capa 1"><rect class="cls-1" width="1" height="1"/><rect class="cls-1" x="1919" y="1079" width="1" height="1"/><rect class="cls-1" y="1079" width="1" height="1"/><rect class="cls-1" x="1919" width="1" height="1"/><path d="M1723.61,440.31c0-5.6-.77-10.59-6.08-13.67-3-1.75-3.48-4.45-3.31-7.64.14-2.61-.19-5.24-.31-7.86q-35.06-.24-70.12-.43a16.46,16.46,0,0,0-3.76.86l-.48,6c.48,1.5-.17,2-1.59,1.76-10.23.13-20.48,0-30.7.5-5.14.26-6.1-2-6.16-6.35-.18-13.87.42-27.76-1.25-41.57-.81-.55-1.28-1.2-.69-2.18-6.57-22.59-19.16-40.46-41-50.4-18.38-8.36-36.23-17.77-54.81-25.74a1534.15,1534.15,0,0,0-170.93-61.77c-16.91-5-34-9.46-51-14.05-2.47-.67-3.46-1.64-2.39-4.1.14-.6.28-1.2.43-1.81-.73-3.05-2.81-3.62-5.75-4.23-25.9-5.34-51.75-11-77.61-16.55,0,0-5.18-.86-9-1.69a13.45,13.45,0,0,0-6.85.27c-5,8.52-4.93,8.08-13.6,6.55-4.24-.75-8.24-2.2-12.44-2.95-40.26-6.26-66.24-6.13-66.24-6.13l-11.08-4.62a347,347,0,0,0-74.62-21.28,286.28,286.28,0,0,0-40.75-2.83c-23.08,0-51,4.53-51,4.53a278.2,278.2,0,0,0-52.84,14.92c-7.12,2.72-25.49,9.89-25.49,9.89C805.5,187.5,756.5,195,756.5,195c-10.57,1.79-10.57,1.79-12.14-5.85-.54-2.48-43.14,6.86-43.14,6.86-16.33,3.46-32.68,6.8-48.93,10.59-3.09.73-7.69.44-8.5,5.15-1.1,6.35-5.7,7.36-11,8.66-3.46.86-7,1.34-10.44,2.28-41.45,11.28-82.44,24-122.72,39C485,267,470.08,271.63,455.88,278c-15.18,6.77-30.74,12.61-45.81,19.71-19.64,9.25-39.77,17.61-58.23,29-10.88,6.7-17.7,17.62-23.43,29.47-3.18,6.57-2.2,13.43-5.08,19.59.65,1,.22,1.65-.61,2.23,0,11.9-.22,23.81,0,35.71.09,4.82-1.72,6.31-6.4,6.12-9.24-.38-18.5-.29-27.76-.39-1.55.32-2.19-.26-1.81-1.84-.12-1.88-.23-3.75-.35-5.62-2.51-1.1-5.18-1-7.85-1q-32.93-.11-65.85-.25-.3,5.44-.62,10.89c.36,1.33-.23,1.78-1.49,1.59-8,1.8-8.42,8-8.41,14.5q0,47.34,0,94.67c0,2.32.59,4.67.37,7-.6,6,3,7.91,8,8.56,1.25-.09,1.91.29,1.28,1.66.15,4.3.35,8.61.44,12.91.22,10.89-1.12,10.46,10.06,10.51q30.91.15,61.82.33c5.06-4.23,1.92-10,2.44-15,.75-7.29.8-8,8.06-7,1.3.18,2.6.55,2.8,2.3a1,1,0,0,1-.89,1.39c-8.45,1.22-8.42,1.21-8.42,9.62,0,3-.18,6-.28,8.93.15,3.61.4,7.22.42,10.83.1,14.86.32,29.71.07,44.56-.08,4.82,2,6.41,6.19,6.53,1.7-.25,3.32-.38,3.48,2,.89,9.69,7,16.94,18.09,15.36a48.66,48.66,0,0,1,5.92-.05c11.73-.25,11.73-.26,12.53,10.74,21.28-.1,42.56,1,63.84-.27.11-2.61.23-5.22.34-7.84-.39-2,.42-3.21,2.47-3,5.16.44,10.4-.56,15.5.87l3.79.31c2.13-.09,4.56-1.1,5.68,1.88,5.8,4.35,14.44,4.35,18.16,11.88.65-.81,1.22-1.06,1.58.22l.45.38a1.56,1.56,0,0,1,1.71,1.54,88.93,88.93,0,0,0,10.58,10.13,491.92,491.92,0,0,0,93.11,58.3c19.47,9.27,39.61,16.48,60.11,23,10.09,3.22,19.89,7.32,30.52,8.58a10.3,10.3,0,0,1,7.83,1.83l.25.06a15,15,0,0,1,9.67,2l.31.06a15.15,15.15,0,0,1,9.68,1.93l.32.07c3.47-.29,6.86-.1,9.93,1.82l2,.28c3.58-.38,7.08-.26,10.3,1.6l.89-.23.79.45c6.06-.24,12.07,0,17.9,2l2.1.17a265.91,265.91,0,0,1,35.91,1.81l2.07.06q29.65,0,59.3-.08c10.87,0,21.74.06,32.61.09l3.62-.26a11.79,11.79,0,0,1,8.35-1.47,60.66,60.66,0,0,0,8.9-3c10.6-5.17,18.34-13.61,26.42-21.76,2.39-2.41,4.07-6.31,8.6-5.57,5.89-2,12.21.56,18.06-1.77,1.24-4.44,3-8.82,3.57-13.34.66-5.26,2.74-7.9,8.22-7.43,7,.59,3.87,6,3.94,9.15.39,15.59.25,31.21.31,46.81A142.49,142.49,0,0,0,939,819.36c2.8,11,9.15,20.53,15.3,29.85,3.79,5.78,12.09,13,12.09,13,24.45,25.64,54.72,36.53,89.76,36l82.77-.41c1.61,0,3.68.31,4.3-1.56a4.6,4.6,0,0,0-1.7-5.33,39.13,39.13,0,0,0-4.24-2.6c-11.12-6.06-11-6-5.67-16.78,4.61-9.29,7.66-18.78,1.4-28.66l-89,0a7.06,7.06,0,0,1-4.63-1.3c-3.7.3-7.11-.78-10.43-2.21-18.81-8.14-31.12-20.6-36.85-41.72-.16-.59-.66-1.7-.8-2.29-5.1-20.44-1.08-41.79-1.77-62.68-.13-3.92,2.56-4,5.4-3.76,2.34.24,6.42-1.24,5.65,3.07-.81,4.61,2.5,7.74,2.71,12.13.33,7,1.39,7.24,8.72,6.59,7.49-.66,14.3.24,19.86,5.75,3.77,3.74,8,7.2,11,11.51,5.79,8.33,14.57,10.8,23.4,13.49a12.71,12.71,0,0,1,8.27,1.62l3.72.29,93.91-.08,2.06-.06a276,276,0,0,1,37.91-1.83l2.1-.15a43.68,43.68,0,0,1,15.9-1.9l.83-.47.93.22c3.18-1.94,6.67-2,10.23-1.64l2-.26a16.08,16.08,0,0,1,9.93-1.8l.36-.07c2.37-1.39,4.85-2.33,7.67-1.76l2.16-.31a10.29,10.29,0,0,1,7.85-1.74,45.12,45.12,0,0,1,6.53-2.19c16-2.89,31.61-7.74,46.74-13.19,12.31-4.43,25-8.63,36.74-14.86,6.21-3.28,12.16-7.76,18.88-9.46,11.77-3,20.3-11.53,30.9-16.54,9.73-4.6,18.58-12.07,27.64-18.53,14-10,27.41-20.64,40.82-31.35a1.59,1.59,0,0,1,1.78-1.53l.56-.42,1.33-1.25c4-3.23,7.63-7.31,13.47-7.14,1.8-2.09,4.15-1.84,6.51-1.5,3.92-.37,7.83-1,11.76-1.06,13-.12,10.63-.09,10.45,10.43,21.84.92,43.67,1.73,65.49-.28-.19-3.11-.83-6.26.74-9.23,5.69-1.94,11.64-.15,17.39-1.19,7.33-1.89,13.74-4.9,15.16-13.39.85-5.08,4.43-4,7.63-3.59,3.79.45,5.67-.88,5.51-4.86-.1-2.66.06-5.33.08-8q.19-24.47.38-48.92a27.07,27.07,0,0,1-.33-3c0-4.63,1.71-9.87-.55-13.73s-8.18.44-11.83-2.44c3.64-3,10.82-4.73,13.12-3.09,1.61,1.15,1.08,2.88,1.1,4.53.06,5.87-1.7,12,2.38,17.33,20.41,0,40.82-.94,61.22.29,9.31.56,10.47-.49,11-9.59.29-4.9-.75-9.88.81-14.71a7.19,7.19,0,0,1-.24-1.36c0-.17.37-.33.57-.5,6.5-5.45,7.47-12.66,7.44-20.66C1723.16,497.87,1723.39,469.09,1723.61,440.31ZM259.54,565.41c-6.66,0-13.32.09-20,0-6-.08-12.08.25-17.86-2.76h54.91C273.28,565.36,273.28,565.37,259.54,565.41Zm18.71-79.27h-.06c0,20.28,0,40.55,0,60.83,0,7.22-.11,7.46-7,7.55-14.62.19-29.25,0-43.87.21-5,.07-6.37-1.73-7-6.85-4.35-35.11-1.4-70.32-2-105.47-.12-7,2.61-13.69,2.18-20.75-.18-3.05,2-3.79,4.63-3.77q24.43.19,48.86.34c5.41,0,4.25,4,4.26,7.09Q278.29,455.73,278.25,486.14Zm995.28-248c.44-1.58.81-3.17,1.43-5.61,45.13,10.91,88.5,24.42,131.32,39.67a1352.83,1352.83,0,0,1,141.32,59.31c11.69,5.73,21.46,13.17,28.84,23.8,1.23,1.77,3.18,3.32,2.7,5.89-1.9,1.16-3.15-.18-4.56-.92-80.28-42-163.84-75.84-251-100.55-14.7-4.16-29.47-8-44.23-12C1271.45,245.67,1271.44,245.73,1273.53,238.17Zm-140.46-32c11.77,1.73,23.46,4,35.24,5.64,4.93.67,4.86,3.28,4.18,6.92s-.4,7.27-6.39,5.9c-7.06-1.6-14.4-1.9-21.61-2.91-13.17-1.83-22.89-10.47-33.52-17.95C1118.34,204.52,1125.75,205.06,1133.07,206.14Zm-168.9-26.58c.14-1.71,1.36-2,2.76-2.05,3.33,0,6.65,0,10.69,0,48.45,2.87,94.94,15.55,137.5,40.29a101.24,101.24,0,0,0,44,13.62c1.32.11,2.67.08,4,.3,2.32.39,5.92-.87,5.41,3.6-.39,3.41-1.35,7.26-5.58,7-15.81-1.12-31.76-1.14-45.74-11-29.38-20.71-61.9-34.51-97-42.23a260.48,260.48,0,0,0-46.39-5.75c-2.32-.08-4.66-.11-7-.35A2.82,2.82,0,0,1,964.17,179.56Zm-36.11-.24c8.6-1,17.19-1.71,25.83-1.93,2.29-.06,5.28-.74,5.46,2.54s-2.8,3.12-5.11,3.14a251.4,251.4,0,0,0-41.6,4.06,258.35,258.35,0,0,0-103.16,42.5c-11.29,7.81-23.46,10.3-36.3,12-2.31.32-4.64.38-7,.59-9.34.87-9.34.88-10.17-9.82,10.1-1.38,20.22-2.87,30.37-4.11a28.59,28.59,0,0,0,11.92-4.57C838.12,198.88,881.54,184.64,928.06,179.32ZM813.48,204.71c-12.75,7.2-23.76,17.58-39.47,17.41-3.27,0-6.54,1.13-9.83,1.57-11.68,1.55-11.68,1.52-13.67-11.35A541.44,541.44,0,0,1,813.48,204.71ZM368.89,335.62A1108.33,1108.33,0,0,1,484.56,284.5c52.17-19.82,105.14-37.16,159.3-50.78,4.26-1.07,6.21-.5,6.74,4,.27,2.27,1.11,4.48,2,7.83C545.09,271.56,443,311.35,343,363.47,350.22,350.87,357.49,341.52,368.89,335.62Zm-78.7,199.26a26.05,26.05,0,0,1-2.87-.29c-1.16-1.93-.87-4-.87-5.92q-.07-43-.12-85.94c0-6.82-.81-7.25,6.92-7.16,9.33.1,18.66.15,28-.07,11.76-.27,17.55-6.31,17.66-18.19.09-11,0-22,.06-33,0-6.42,2.28-10.66,8.61-14,92.11-48.5,188.3-86.43,289.14-112.44,4.5-1.17,9-2.2,13.48-3.52,2.53-.75,4.74-1.13,5.38,2.13.5,2.49,1.72,5.47-1.61,7a47,47,0,0,1-7.54,2.52C588.92,281.41,532.25,299.32,477,321.6c-37.3,15-73.49,32.56-109.53,50.37-13.66,6.74-20.9,17.7-20.77,33.53.29,36,.11,71.95.11,107.93,0,5.33.1,10.66-.1,16-.66,17.38-10.75,26.9-28.06,26.76-2.19,0-3.49-.25-4.24-2.82C309.6,536.84,306.84,534.83,290.19,534.88Zm43.67,100c-1.83,3.23-4.42,3.28-7.34,1.77,0-.5-.12-.91,0-1.15,1.58-2.64,3.48-4.78,6.93-3.2C334.5,632.78,334.34,634,333.86,634.88Zm580.21,100c-2.51,1.2-5.3.8-7.86.33-10.58-1.9-19,1.32-25.14,10.14-.19.27-.47.47-.68.73-13.21,16.13-29.92,22.76-51,21.74-25.26-1.22-50.63-.2-75.94-.51a464.1,464.1,0,0,1-162.66-31.45c-49.54-19.1-94.59-45.7-134.31-80.89-14.85-13.16-31.14-19.74-50.93-18.32-7.67.55-7.71,0-6.22-8.49,6.88,3.14,14.21,2.73,21.36,2.3,10.43-.63,18.77,3.1,26.07,10.13,33.93,32.65,73.28,57.4,115.46,77.69s86.78,33.09,133.27,39.3a462.77,462.77,0,0,0,60.77,3.72c28,0,56-.22,84,.2,12.87.2,23.4-3.87,32-13.31,3.14-3.45,6.69-6.52,9.74-10,8.44-9.73,19.59-10.23,31.16-9.49,1.39.09,2.74.54,3,2A3.79,3.79,0,0,1,914.07,734.86Zm134.6,116.2c30.62.34,36.12-.08,66.75-.1,4.29,0,8.65-.58,12.94,1.09,1.08,7.14-2.25,13-5.62,18.68-3.75,6.32-7.33,12.34-.21,17.43-.22,2.12-.68,2.33-1.54,2.32-35.94-.44-46.8,1.38-82.68-1.18-30.23-2.16-53.69-17.93-73.4-40-1.75-1.94-6.85-9.49-6.85-9.49-9-17.89-15-34.28-15.61-52.06-.59-17.62-.07-35.28-.39-52.91-.08-4.85,1.39-6.77,6.2-6.1l24,.3c9.28.08,8.5-1.25,8.54,8.49.08,18.27-1.56,36.6,1.13,54.81C986.87,825.62,1015.05,850.7,1048.67,851.06ZM1520.9,636.63a108.63,108.63,0,0,1-11,.2c-13.23-.38-24.83,3.91-34.93,12.28-14.6,12.09-29.2,24.14-44.73,35.08-38.63,27.21-80.71,47.16-125.63,61.5a456,456,0,0,1-136.32,21.64c-27,.2-53.94-.22-80.9.28-14.94.27-27.33-4.41-37.55-15.18a43.43,43.43,0,0,1-3.53-3.52c-7.94-10.63-18-16.34-31.66-13.92a11.13,11.13,0,0,1-2,0,3.21,3.21,0,0,1-3.42-2.94,3,3,0,0,1,3.08-3.2c10.48-.55,20.67-.2,28.66,8.17,4.83,5.05,9.92,9.85,14.81,14.85a29.61,29.61,0,0,0,22.29,9.41c45.93-.39,91.94,2,137.75-2.18,49.37-4.5,96.53-18,141.51-38.84,43.11-20,82.68-45.47,117.72-77.72,8.4-7.73,17.49-12.63,29.52-11.79,7.48.51,15.37.77,22.28-3.9C1528.24,636,1528.25,636.1,1520.9,636.63Zm85.35-.74c-.25,3.36-3.44.53-5,0-1.89-.86-2.53.86-3.71,1.12-2.18.49-4.55,1.42-5.84-1.42a2.71,2.71,0,0,1,.84-3.52c2-1.23,3.74-.24,5.19,1.19,1.1,1.08,1.71,2.83,3.85,2.09C1603.34,634.71,1606.56,631.67,1606.25,635.89Zm23.85-68.6c0,19.57,0,39.14,0,59.43-7.81,0-14.76.11-21.7,0a19.73,19.73,0,0,1-11.21-3.18c-6.77-4.54-13.06-1-13.35,7.09-.3,8-.07,16-.07,24.66h-49c0-8.73.37-17.58-.09-26.39-.59-11.55-4.87-13.71-15.13-8.11a14.83,14.83,0,0,1-9.66,1.5c-16.57-2.51-29.37,4-41.4,15.07-44.12,40.62-94.94,70.39-151.44,90.32-47.08,16.6-95.54,25.91-145.61,25.94-30,0-60-.09-90,.21a27.64,27.64,0,0,1-21.27-9.07c-4.39-4.56-8.87-9-13.39-13.46a34.65,34.65,0,0,0-23.21-10.14L906,720.86c-13-.45-23.08,4.42-31.9,13.56-21.12,21.9-17.29,19.18-47.93,19.37-24,.15-48,0-72-.16q-123.07-.9-228.57-64.35c-25.49-15.32-49.61-32.41-71.25-52.8-11.06-10.41-23.13-16.57-38.74-14a13.44,13.44,0,0,1-11.17-2.65c-6.77-5.23-13.7-1.55-14.2,7.25-.42,7.31-.47,14.65-.25,22,.14,4.82-.53,7.23-6.48,6.93-12-.62-24-.44-36-.13-4.54.12-5.61-1.46-5.47-5.65a168.62,168.62,0,0,0-.31-21c-.6-6.58-6.18-10.21-11.18-6.7-7.05,4.94-14.45,3.91-22,4-2,0-4-.45-6-.26-4.52.42-6.61-.81-6.51-6,.29-16.64.18-33.3,0-50,0-4.12,1.16-5.85,5.59-5.81,7.32.06,14.64-.76,22-.82,17.54-.15,30.07-15.55,30.88-30.77.14-2.66.14-5.32.14-8,0-38.3.54-76.62-.29-114.91-.35-16.37,6.59-25.93,20.59-32.86,45.89-22.72,92.54-43.61,140.49-61.66,43.6-16.41,88.26-29.25,133.12-41.54,1.92-.52,3.86-1,5.73-1.67,8.44-3.08,10.71-6.48,8.93-15-2.35-11.38-5.18-22.66-7.88-34-2-8.16-2-8.08,6.55-10.23,24.83-6.26,50-10.7,75.45-15.41,3.74,14.51,6.86,28.09,10.82,41.43,3.12,10.51,5.24,11.47,15.81,11.15,9-.27,17.86-1.86,26.74-3.23,8.14-1.26,14.8-5.46,21.5-10C854.15,209,900,193,950.53,190.91c5.47-.29,20.19.08,20.19.08,21.78.18,43,4,63.94,9.77a241.76,241.76,0,0,1,76.26,36c16.29,11.55,34.72,12.33,53.23,13.77,5.32.42,8.39-3.09,10.29-7.89,2.71-6.84,3.92-14.06,5.76-21.13,1.75-6.75,3.63-13.46,5.29-20.23.82-3.34,2.7-4.08,5.84-3.37,24,5.42,48.35,9.12,72.15,15.47,6.81,1.82,6.85,1.87,5.27,8.44-2.56,10.66-5.25,21.3-7.81,32-2.72,11.35-.37,16,11,19.32,15.3,4.5,30.83,8.19,46.17,12.57C1397,308.15,1472.54,339,1546,375.42c16.87,8.36,24.19,19.54,23.83,38.2-.74,38.63-.17,77.27-.24,115.91,0,14.62,6.81,24.62,20,30.5,5.27,2.36,11,2.55,16.64,2.75,6.32.21,12.66.19,19,0C1628.41,562.75,1630.11,563.84,1630.1,567.29Zm9.72-34.21a7.22,7.22,0,0,1-.72,2.07c-2.26-.1-4.57-.24-6.89-.29-13.34-.33-17.81,2.3-22.41,15.07-1.75,4.86-4,5.61-8.63,5.05-14.1-1.69-23.74-12.28-23.62-27.22.32-38.62.13-77.25.07-115.88a107.27,107.27,0,0,0-.73-12.92c-1.43-11.77-7.49-20.43-18.13-25.74-11.3-5.64-22.67-11.16-34-16.78-54.25-27-110.59-48.8-168.22-67.32q-37-11.89-74.71-21.39c-3.22-.81-6.4-1.75-9.61-2.62-4.26-1.16-4.64-4.19-3.71-7.78,1.09-4.25,3.65-3.27,6.93-2.45,80.4,20.27,158.51,47,233.5,82.53,22.51,10.67,45.36,20.62,67.13,32.84,5.84,3.28,8.79,7,8.5,14-.41,10.3.29,20.63.29,31,0,12.71,5.65,21.45,20.75,20.46,9.61-.64,19.31-.09,29-.2,3.38,0,5.59.31,5.56,4.72C1639.92,471.15,1639.93,502.12,1639.82,533.08Zm66.78,15.33c-.2,4.08-1.17,5.92-5.59,5.89q-23.46-.15-46.92.23c-5,.09-6-2.08-6-6.62q.23-61.9.08-123.79c0-3.73.36-6.37,5.24-6.31,17,.21,33.94.11,50.92.18.58,0,1.16.57,1.93,1C1708.13,462.05,1708.77,505.22,1706.6,548.41Zm109.77,222.86c-.08-7.85-.13-7.85-8.33-7.94h-2l-194.55,0c-1.66,0-3.33.1-5,0-3.5-.27-4.56,1.41-4.66,4.72-.21,7.29.59,14.62-.66,21.88-2.16,4.13-3.66.69-5.36-.46-5,.46-9.27-2.34-14-2.83a11.35,11.35,0,0,1-7.85-1.22c-6,0-12-.52-17.89.17-7.91.93-15.53,1.9-22.66,7.23-16.43,12.27-33.82,23.29-50.82,34.81-1.48,1.77-2.91,3.09-3.84-.4-.16-2.31-.49-4.61-.44-6.91.22-10.94-1-17.56-16.45-19.72l-7.81.22c-5.87.19-9.15,3.71-11.26,8.75,0,1.37-.71,3-1.69,3s-1.56-1.72-1.5-3.06c-2.8-4.39-6-8.23-11.7-8.84l-7.77,0c-1,.22-1.93.46-2.9.66-12,2.38-12.48,2.88-13.12,15.28-.11,2-.15,4-.25,6-.32,6.66-.32,6.76-7.37,6.8-15.27.07-30.54.11-45.8,0-22.23-.13-44.45-.38-66.68-.58-3.6.47-7.19.83-10.52-1.18-1-.16-2.32,0-2.8-.54-4.7-5.5-11.5-5.7-17.75-7.09-5-1.11-9.89.94-14.15,2.83a6.94,6.94,0,0,0-2,2.48c-1.1,1.93-2.69,16-2.69,16-.41,2.3-2.21,2-3.79,2l-81,.73c1.72,8.55,3.54,16.35-2.42,23.31-1.43,1.67-2.23,3.86-3.73,5.65-3.12,3.74-3.32,7.78-.12,11.87,5.52,7,11.93,12.52,21.42,12.73l61.94.43c8.08,0,8.13.14,8.08,8.25,0,14,11.53,15.67,11.53,15.67h12.17c5.83,0,7.66-3.41,7.66-3.41,3.62-6.22,9.62-6,15.73-5.94,37.89,0,75.78-.07,113.67-.08,2.3,0,4.59.43,6.89.66,1.78-.24,2,.71,1.65,2.13.1,2,.29,4,.3,6,.12,17.66,2.54,20,20,19.55,6.48-.18,12.3-1.73,15.86-7.84,0-1.28.32-2.88,1.82-2.26a3.62,3.62,0,0,1,2.24,4.58c.94,2.89,2.33,5.61,5.77,5.62a117.29,117.29,0,0,0,16.78-.73c8.08-1.16,11-4.79,11.76-13.08.34-3.94.46-7.9.67-11.85-.57-1.24-1-2.6.6-3.25a1.38,1.38,0,0,1,2,1.41c18.47,13,36.9,26.12,55.45,39.05,2,1.4,4.68,1.87,7,2.78a34,34,0,0,1,12,1.92l17.42-.17c3.29-1.87,6.87-1.86,10.49-1.65,3.79-.3,6.95-3.06,10.89-2.78a2.77,2.77,0,0,1,3.09-1.08l1.89-.56c.18-.78.71-1.21,1.23-.8,1.09.84,1,2,.47,3.16L1602,977c13.64.25,27.28.71,40.92.73q86.4.09,172.81,0c.21-2.63.61-5.26.61-7.9q.19-80.29.28-160.59C1816.68,796.54,1816.51,783.91,1816.37,771.27Zm-581.68,88.48c.08,8.65-.12,17.31,0,26,0,3.33-1.13,5-4.6,4.81-1.33-.08-2.66,0-4,0h-24.25s-3.09,0-24.75,0c-8,0-16-.07-23-4.94-5.42-3.76-5.87-3.92-2.12-9.28,5.18-7.38,7.17-15.51,7.08-25.33h11.11c53.63.08.38.15,54,.22h2C1236,851.18,1234.62,850.82,1234.69,859.75Zm169.19,32.78c-.19,13.71,2.16,12.41-12,12.51-19.64.14-39.28,0-58.93,0v.24c-20.3,0-40.61,0-60.92,0-4.41,0-7.89-.09-10.17,5.36-2.42,5.79-8.46,3.12-13.23,2.76s-5.86-3.73-6-7.64c-.17-5-.15-10-.15-15,0-15-.09-30,.08-44.94.06-4.63.83-9.26,1.27-13.89.31-3.33,2.1-4.8,5.38-4,4.18,1,8.81.92,12.25,3.84,3.87,3.29,8.31,3.65,13,3.9,39.59,2.11,79.21.93,118.82,1.44,12.45.16,10.66-1.19,10.69,10.48C1404.06,862.58,1404.1,877.56,1403.88,892.53Zm28.28-20.41h0c0,17.62.13,35.25-.07,52.87-.08,7.48-.63,7.71-8.06,7.91-9.52.25-11.15-.8-11.67-8.07-.26-3.64-.12-7.31-.12-11,0-31.26,0-62.51.16-93.76.05-10,7.33-14.36,16.53-10.47,2.63,1.11,3.14,3.24,3.18,5.63.09,5.65.09,11.31.09,17Q1432.18,852.18,1432.16,872.12Zm35.25,59.61a20.73,20.73,0,0,1-14.62.15c-1.7-.61-2-2.56-2.14-4.21-.24-2.64-.43-5.3-.43-7.95q0-49.35,0-98.71c0-1.66.06-3.32.07-5,0-5.08,2.91-7.06,7.62-7a43.29,43.29,0,0,1,5,.17c6.59.8,7.27,1.36,7.34,8.13.13,13.63,0,27.25,0,40.88v13h0c0,17.29.1,34.57-.1,51.85C1470.05,926,1471.52,930.17,1467.41,931.73Zm72.83,8.86c-2.83,1.57-4.31-1-6-2.15-13.71-9.35-27.24-19-41-28.22-4-2.69-5.72-5.69-5.66-10.56.23-19.61.16-39.22.06-58.83,0-3.62.86-6.19,4.07-8.34,14.92-10,29.67-20.13,44.47-30.24,1.11-.76,2.17-1.53,4.12-.54Zm51.86-88.86q0,40.93,0,81.87c0,11.1,0,11.33-11.12,13.1-8.52,1.36-17.06,2.48-25.81,1.44-4.68-.55-6.4-2.54-6.32-6.9.06-3,0-6,0-9v-61.9h.07c0-22.29-.09-44.59,0-66.89.06-9.06,1.08-9.79,10.55-10.23,9-.42,17.89,1.35,26.83,2.21,4.64.45,6,2.94,5.91,7.35C1592,819.11,1592.1,835.42,1592.1,851.73Zm216.21,64.92c0,5-1.16,6.84-6.6,6.75-20-.35-39.9-.14-59.86-.14v-.06c-19.62,0-39.24.06-58.86,0-7,0-7.16-.2-7.18-7.14q-.12-45.39,0-90.77c0-7.08.21-7.15,7.06-7.14q58.86,0,117.73.17c7.49,0,7.67.11,7.68,7.59C1808.3,856.14,1808.15,886.4,1808.31,916.65ZM1614.45,771.28c2,.16,4,0,6,0l177.64.05c2,0,4,.08,6,0,2.92-.12,4.17,1.17,4.15,4.11q-.09,15.46,0,30.93c0,5.51-4,4.25-7,4.26q-35.43.08-70.86,0h-21v.09q-43.92,0-87.83,0c-13,0-11.34,1.47-11.45-11.87-.06-7.65.09-15.3-.15-23C1609.83,772.48,1611,771,1614.45,771.28Zm43.85,82.07c0,18.3-.17,36.61,0,54.91,0,4.14-.9,6.06-5.52,5.73-8.25-.59-16.58.48-24.79-1.23h-17.6c7.16-1.76,12.49.43,17.59-1.2,1.23-16.93.69-33.9.75-50.85,0-10.59,0-21.18,0-32.69,8.2,0,16.44.18,24.66-.08,4.23-.13,5.05,1.93,5,5.44C1658.26,840,1658.31,846.7,1658.3,853.35Zm-48.47,17h0c0-9.62.11-19.24,0-28.86-.07-3.57,1.42-4.58,4.72-4.4,3.1.16,5.78-.16,5.73,4.49-.19,19.25-.13,38.49,0,57.74,0,3.87-1.4,5.28-5.22,5.23s-5.32-1.49-5.26-5.33C1609.94,889.62,1609.83,880,1609.83,870.37Zm192.29,100.31c-20.63-.21-41.26-.07-61.89-.06h-30.94v-.08h-87.84c-2.33,0-4.66-.08-7-.11-2.66,0-4.44-.89-4.43-4q.06-16,0-31.94c0-2.62,1.35-3.45,3.67-3.43,1.66,0,3.32.05,5,.05q89.33.06,178.67.09a52,52,0,0,0,6,0c4.21-.5,5,1.76,5,5.32-.06,9.32-.08,18.64.21,27.94C1808.65,969.19,1806.9,970.73,1802.12,970.68Z"/><path class="cls-1" d="M1630.1,567.29c0-3.45-1.69-4.54-5-4.47-6.32.15-12.66.17-19,0-5.64-.2-11.37-.39-16.64-2.75-13.14-5.88-20-15.88-20-30.5.07-38.64-.5-77.28.24-115.91.36-18.66-7-29.84-23.83-38.2-73.43-36.4-149-67.27-227.82-89.77-15.34-4.38-30.87-8.07-46.17-12.57-11.41-3.35-13.76-8-11-19.32,2.56-10.67,5.25-21.31,7.81-32,1.58-6.57,1.54-6.62-5.27-8.44-23.8-6.35-48.16-10-72.15-15.47-3.14-.71-5,0-5.84,3.37-1.66,6.77-3.54,13.48-5.29,20.23-1.84,7.07-3,14.29-5.76,21.13-1.9,4.8-5,8.31-10.29,7.89-18.51-1.44-36.94-2.22-53.23-13.77a241.76,241.76,0,0,0-76.26-36c-21-5.76-42.16-9.59-63.94-9.77,0,0-14.72-.37-20.19-.08C900,193,854.15,209,812.37,237c-6.7,4.5-13.36,8.7-21.5,10-8.88,1.37-17.73,3-26.74,3.23-10.57.32-12.69-.64-15.81-11.15-4-13.34-7.08-26.92-10.82-41.43-25.42,4.71-50.62,9.15-75.45,15.41-8.54,2.15-8.5,2.07-6.55,10.23,2.7,11.3,5.53,22.58,7.88,34,1.78,8.55-.49,11.95-8.93,15-1.87.68-3.81,1.15-5.73,1.67-44.86,12.29-89.52,25.13-133.12,41.54-48,18.05-94.6,38.94-140.49,61.66-14,6.93-20.94,16.49-20.59,32.86.83,38.29.28,76.61.29,114.91,0,2.67,0,5.33-.14,8-.81,15.22-13.34,30.62-30.88,30.77-7.33.06-14.65.88-22,.82-4.43,0-5.63,1.69-5.59,5.81.16,16.66.27,33.32,0,50-.1,5.17,2,6.4,6.51,6,2-.19,4,.27,6,.26,7.52,0,14.92,1,22-4,5-3.51,10.58.12,11.18,6.7a168.62,168.62,0,0,1,.31,21c-.14,4.19.93,5.77,5.47,5.65,12-.31,24-.49,36,.13,5.95.3,6.62-2.11,6.48-6.93-.22-7.32-.17-14.66.25-22,.5-8.8,7.43-12.48,14.2-7.25a13.44,13.44,0,0,0,11.17,2.65c15.61-2.6,27.68,3.56,38.74,14,21.64,20.39,45.76,37.48,71.25,52.8q105.55,63.42,228.57,64.35c24,.18,48,.31,72,.16,30.64-.19,26.81,2.53,47.93-19.37,8.82-9.14,18.93-14,31.9-13.56l117.59.26a34.65,34.65,0,0,1,23.21,10.14c4.52,4.43,9,8.9,13.39,13.46a27.64,27.64,0,0,0,21.27,9.07c30-.3,60-.19,90-.21,50.07,0,98.53-9.34,145.61-25.94,56.5-19.93,107.32-49.7,151.44-90.32,12-11.07,24.83-17.58,41.4-15.07a14.83,14.83,0,0,0,9.66-1.5c10.26-5.6,14.54-3.44,15.13,8.11.46,8.81.09,17.66.09,26.39h49c0-8.69-.23-16.69.07-24.66.29-8.12,6.58-11.63,13.35-7.09a19.73,19.73,0,0,0,11.21,3.18c6.94.15,13.89,0,21.7,0C1630.09,606.43,1630.07,586.86,1630.1,567.29ZM583.48,504.57c1-10.31,16.35-28,26.24-30.45,3.35-.82,4.93.73,5.85,3.46.16,2.46-1.32,3.82-3,4.87-9.81,6.08-17,14.54-22.58,24.53-.93,1.65-2.16,3.86-4.49,2.79C583.55,508.89,583.28,506.63,583.48,504.57Zm-125.73-52.5c-2.46,2.68-5,1-7-.79a41.09,41.09,0,0,1-14.49-26.41,28.52,28.52,0,0,1-.39-6.94c.24-2-6.06-3.58-.4-5.56,3.57-1.25,7.35-2,7.95,3.67l-.26.78.55.62q.51,3,1,6.09A37.25,37.25,0,0,0,456.25,446C456.36,448.11,460,449.58,457.75,452.07Zm12.15-4.3c-3.08,3.16-5.87.33-8.33-1.9-1-.86-2.05-1.57-3.08-2.34-4.37-6.2-8.41-12.57-10.41-20,.1-2.13.18-4.27-1.13-6.14.1-.21.31-.43.28-.61a8.2,8.2,0,0,0-.39-1.15c.11-.64.26-1.28.31-1.93.27-3.1-1.19-7.55,2.78-8.44,3.7-.82,2.71,4.69,5.21,6.25l-.06,4.13A4.35,4.35,0,0,0,456.2,420l-.26.81.6.62c1.22,7.74,6.1,13.42,10.59,19.4C468.61,442.75,473.1,444.47,469.9,447.77Zm56.2-7.86c-6.28,8.83-15,13.74-25.58,15.74-2.87.55-8.12-1.24-7.58,3.75.61,5.7,5.53,2.6,8.67,2.23,3.61-.43,7.13-1.53,10.73-2.05,2.27-.34,5-.57,5.53,2.6s-1.23,4.93-4.4,5.41c-3.93.6-7.85,1.84-11.78,1.85-4.89,0-8.92.85-11.32,6.59-1.44-4.85-3.6-7.7-8.32-7.3-.93.07-1.9-.56-2.87-.79-2.79-.69-7.11-.58-6.49-4.45s4.78-2,7.5-2.11,5.21,0,8,0a14.79,14.79,0,0,0,.64-2.91c.1-8.15,0-8.41,8.07-9.78,9.61-1.64,17.19-6.58,23.85-13.35,1.37-1.39,3-3.37,5-1.75S527.51,437.93,526.1,439.91Zm24.17-18.72a91,91,0,0,1-8.94,23.15,24,24,0,0,1-4.17,5.52c-1.43,1.38-3.42,2.3-5.33.59-1.64-1.48-.53-3,.21-4.46,3.64-7.1,7.34-14.17,9.55-21.89.74-2.59,1.31-5.14.6-7.93-7.56-.54-15.15-.73-22.62-1.76-3.41-.47-5.25.42-6,3.33-2.39,8.87-7.51,14.57-17,15.9-6,.85-2.43,6.81-5.5,10.5-1.07-6.76-3.33-12.1-10.19-13.9-1.16-.3-2.21-2.56-1.35-4.32A3.6,3.6,0,0,1,482.7,424c6.63-.73,6.62-.81,5.11-8.39l.3-4.11c.37-1.24,1.07-2.49,1-3.72-.09-2.82,1.57-6.78-1.44-8.12-3.54-1.57-4.61,2.6-6.3,4.87-1,1.33-1.91,2.71-3.61,3.29a5.05,5.05,0,0,1-4.74-.47c-1.71-1.21-1.15-3-.43-4.49,2.4-4.82,5.51-9.05,10.61-11.35,2.05-.92,4.95-1,5.32-3.77a48.33,48.33,0,0,0,.3-10.88c-.2-2-2.47-1.66-4.12-1.42-6.44.95-11.7,4.41-16.9,8-3.19,2.2-6,5.1-9.57,6.29-2.46-2.05-1.56-3.95-.93-5.76s2-3.94-.59-5c-1.82-.77-2.86,1.2-3.76,2.52-1.87,2.73-3.54,5.61-5.43,8.32-1.62,2.33-2.77,5.34-6.29,5.42-2-1.63-1.54-3.7-1.16-5.58,2.82-13.72,11.86-22.59,23.3-29.51a8.28,8.28,0,0,1,3.86-.84c1.62-.06,3.41,0,4.32,1.72s0,3.18-1.15,4.46c-.87,1-1.79,2-2.68,2.93a14.16,14.16,0,0,0-5.91,4.58c-1.71.78-4.23,1.69-2.57,3.91,1.81,2.41,3.1-.18,4.31-1.45a21.08,21.08,0,0,0,7.62-5.08c4.1-1.34,8.11-3.25,12.52-3.06,4.87.22,5.35-2.45,5-6.32a56.73,56.73,0,0,1,.82-16.23c4.42,1.6,1,7.06,4.86,7.92,2.91.66,5.92.86,8.82,1.54a85,85,0,0,1,21.39,8c2.32,1.26,4.65,2.59,6.23,4.87.82,1.18,1.29,2.34.34,3.6a3,3,0,0,1-3.48,1.29,70.72,70.72,0,0,1-7.23-3.22c-7.14-3.64-14.51-6.58-22.53-7.62-1.63-.21-3.49-.64-4.38,1.16a3.64,3.64,0,0,0,1.17,4.51c5.1,2.84,3.15,4.48,0,7.77-3,3.14-2.11,8.17-1.87,12.51.12,2.18,1.88,2.41,3.52,2.69a20.21,20.21,0,0,1,9.06,3.93c3.65,2.83,6.17,6.12,4.1,11.13-4.62-.53-7-4.9-11.05-6.35-2.78-1-4.63-.74-4.89,2.5-.33,4.13-2.23,8.83,2.11,11.86,3.26,2.27,8.82.31,13.12-3.86a10,10,0,0,1,1.46-1c1.27-.29,1.68.79,2.31,1.47,4.1,4.39,10.29,5.83,14.42,3.33s1.24-8.4-.13-12.77a38.08,38.08,0,0,0-10.07-15.8c-1.78-1.75-4.89-3.76-2-6.49,2.18-2,5.16-.92,7.18,1,7.35,7,12.77,15.22,14.54,25.53.57,3.31-.77,9.44,3.49,9,5.21-.52,2.17-6.46,2.17-9.89,0-3.91-1.22-7.85-2.19-11.7-.59-2.34-1.67-4.6,1.65-5.58,2.75-.82,4.48.41,5.18,3.11C549.69,399.71,552.9,410.14,550.27,421.19Zm52,145.61c-2.37,2.45-5.66,1.45-8-.82-7.23-7.09-13.29-15.16-13.94-25.56a25.13,25.13,0,0,0-5.09-14.49h12.51c-1.75,13.62,3.48,25,12.61,34.87C602,562.47,604.23,564.82,602.31,566.8Zm40,18.49c-4.12.69-4.13.63-7.46,5.75-2-3.81-3.85-7.72-9-7.28a10.53,10.53,0,0,1-7.43-2.43,5.14,5.14,0,0,1-1.66-6.27c1.08-2.5,3.21-1.22,5.06-.49s3.81,1.14,5.68,1.81c2.79,1,5.15,1.16,6.47-2.24.3-.78,1.61-3.21,2.22-.92,2.13,8,7.17,3,11.12,2.95,5-.1,10.08-3.94,15.55.13C657.3,583,649.71,584,642.27,585.29ZM697.67,529c-5.61,7.66-5.23,17.6-9.76,25.67-2.1,3.75-3.73,7.81-6.89,10.89-1,.93-2,1.75-3.5,1s-1.61-2-1.63-3.38c0-2.82,1.6-5,2.86-7.35a86.81,86.81,0,0,0,7.57-20.5c.9-3.55.18-5.64-4.25-5.57-13.31.22-26.62.21-39.93.14-3.86,0-5.38,1.77-5.37,5.42,0,7.61,0,15.22,0,22.83l-2.49-.28c-1.39-4.72-1.12-9.66-1.24-14.52-.33-13.41-.28-13.42-14.15-13.5-5.87,0-11.75,0-17.49,0-.27-4.62,2.17-4.18,4-4.21,7.32-.13,14.65-.33,22-.07,4.35.15,5.69-1.41,5.64-5.68-.21-17.64-.16-35.27-.13-52.9,0-2.48-.76-5.24,2.45-8.67.39,9.54,6.48,10.38,13,11.21a52.21,52.21,0,0,1,21.37,7.77c2.27,1.43,4.51,2.81,5.74,5.35a3.43,3.43,0,0,1-.07,3.72,3,3,0,0,1-3.6,1c-2.75-1.15-5.43-2.46-8.08-3.84a62.78,62.78,0,0,0-25.55-7.24c-2.16,4.35-1.22,8.74-1.27,13-.11,10,.18,20,0,29.94-.07,4.46,1,6.59,6.1,6.49,14.26-.3,28.53-.11,43.12-.11,1.27-7.49-.46-14.13-2.17-20.78-.46-1.78-2.18-3.93.75-4.93,2.66-.92,5.34-.94,6.2,2.73,1.13,4.85,2.37,9.67,3.43,14.52.69,3.19,0,6.72,2.68,9.38C697.57,527.11,698.53,527.88,697.67,529Zm755.56-168.58c.94-1.13,2.31-1.11,3.64-.84,9.36,1.86,27.43,22.56,27.76,31.94-.09,1.48,0,3.23-1.91,4s-3.12-.39-4.06-1.82q-2.17-3.31-4.17-6.74c-4.27-7.27-9.71-13.34-17.19-17.44-1.7-.93-3.82-1.53-4.61-3.51A5.26,5.26,0,0,1,1453.23,360.46ZM1312.62,474.4c9.57.72,28.05,21.49,27.86,31.49a4,4,0,0,1-2.79,4.39c-2.68.94-3.59-1.09-4.37-2.81a52.8,52.8,0,0,0-21.51-24c-1.77-1.06-3.16-2.55-3.24-4.69C1308.47,476.1,1309.68,474.18,1312.62,474.4Zm-6.24,105.17a10.77,10.77,0,0,1-7.73,4c-4.67.17-7.36,2.39-8.3,7.53-1.87-4.06-2.93-6.77-8-6-5.62.88-11.11-1.56-16-4.55-1.95-1.2-4-3.18-2.51-5.74,1.23-2.15,3.41-1,5.33-.42a69.08,69.08,0,0,0,10.6,2.66c2.89.38,6.77,2.53,8.09-2.65a1.41,1.41,0,0,1,2.34-.76c4.19,4.09,8.36,2.58,12.73.32a3.28,3.28,0,0,1,4.41,1C1308.34,576.69,1307.53,578.28,1306.38,579.57Zm15.08-51.41c-.19,1.58-1.81,1.64-3.12,1.64-8.31,0-16.62,0-25.4,0-3,9.51.94,19.64-3.44,28.5-2.37-7.26-1.65-14.56-1.7-21.78,0-5.25-2.07-6.85-7.15-6.76-14.3.26-28.61.09-44.05.09a59.5,59.5,0,0,0,7.07,22.4c.8,1.46,1.81,2.8,2.53,4.3,1.5,3.13,5.1,7.07,1,9.58-4.36,2.68-5.9-2.84-7.92-5.42a53.84,53.84,0,0,1-9.34-19.68c-.84-3.18-1-7.08-3-9.29-3-3.35-4.46-5.21.48-7.79.86-.46.6-3.1.83-4.73a62.24,62.24,0,0,1,4.7-16.22c.93-2.18,2.15-4.43,5.15-3.35,2.62.94,1.78,3.29,1.48,5.12-1.1,6.52-2.36,13-3.69,20.23H1287c.18-5,.45-10.12.52-15.28.11-8.33.12-16.65.11-25,0-9.63,0-9.49-9.06-7.87a72.14,72.14,0,0,0-23.2,8.7c-1.93,1.1-4.24,3.39-6.1.82-1.55-2.16.72-4.34,2.1-6.07,2.54-3.16,6-5.23,9.62-7a48.23,48.23,0,0,1,16.31-4.3c5.92-.56,12.06-.73,11.68-10.57,3.77,3.63,2.67,6.71,2.69,9.34.07,17,.13,34-.12,50.94-.07,5,1.06,7.28,6.61,6.87,6.63-.48,13.32-.11,20-.07C1319.91,525.58,1321.73,525.89,1321.46,528.16Zm21.38,14a66.54,66.54,0,0,1-9.17,19.76c-1.49,2.18-3.05,4.35-5.43,5.73a4.54,4.54,0,0,1-5.54-.54c-2-1.7-.88-3.47.28-5.21,2.57-3.86,5.15-7.72,7.54-11.69a48.94,48.94,0,0,0,5.52-13.8c.76-3.14.83-6.46,1.25-9.69a1,1,0,0,1,.69-.67c3.86,0,7.73,0,13.15,0C1345.31,530.63,1344.41,536.52,1342.84,542.14Zm56.8-96.5c-1.07-1.27-2.23-2.46-3.34-3.7s-2.29-2.76-4.07-1.55-.62,3,.1,4.36c1.19,2.16,2.53,4.25-.41,5.89s-5.17-.15-6.86-2.3c-6.27-8-9.79-17.19-12.71-26.82-3.23-10.67.44-20.26,3.66-30a13.32,13.32,0,0,1,2.54-4.17,3,3,0,0,1,3.5-1.18c1.55.6,1.7,2.1,1.48,3.32-.85,4.9-2.15,9.73-2.81,14.65-.4,3-2.24,6.62,1.57,8.85,4.62-.89,2.39-6.91,6.43-8.14.53.24,1.34.34,1.57.76,5,9,8.51,10.47,17.88,5.49,3.46-1.84,5.73-2.88,8.46.36a2.14,2.14,0,0,0,.84.49c9.73,4.13,14.42.88,13.76-9.55-.1-1.61.24-3.35-1.56-4.87-4.37-.27-7.62,2.62-11,5.22-1.77,1.34-3.93,1.63-5.5.14-1.78-1.68-.55-3.57.56-5.31,3.12-4.91,8-6.83,13.34-7.79,2-.36,4.21-.37,4.23-3.08,0-3.91,1.52-8-.63-11.67-.75-1.3-2.32-.61-3.6-.41-7.71,1.22-14.52,4.48-20.91,8.86-2.94,2-5.28,5-9.24,6-2.8-5.23-.63-9,3.11-12.19a41.44,41.44,0,0,1,22.34-10.17c2.31-.28,4.68-.15,7-.56,2.56-.47,2.76-2.56,2.39-4.66-.42-2.32-2.26-2.06-3.83-1.73-7.8,1.62-15.6,3.27-22.64,7.3-2.58,1.48-5.27,2.81-8,4.1-1.54.74-3.37,1.16-4.41-.57-.95-1.57-.25-3.35,1-4.56,7.6-7.65,17.39-10.65,27.57-12.76.32-.06.66,0,1-.07,8.64-.87,8.64-.87,10.84-8.43,3.29.86,2.39,3.57,2.39,5.73,0,11,0,22-.2,32.93-.09,4.08.77,6.81,5.08,8.38,4.89,1.77,8.17,5.6,9.85,10.62.49,1.45,2,3.07.13,4.42s-3.83.51-5.58-.53c-.49-.29-.62-1.13-1-1.67-1.79-2.61-3.51-7.43-7.06-4.8-3,2.21-1.72,7.38-.87,11.19.55,2.44,3.12,1.85,5,2,8.63.6,17.3-.62,26.92,1,.32-9.64-2.89-17.65-8.12-25.05a59.59,59.59,0,0,0-4-4.43c-2.14-2.44-5.62-5-2-8.32,2.8-2.56,5.75,0,7.85,2,9.45,8.9,13.85,20.05,14.15,32.94.08,3.39-1.17,5.24-4.68,4.34-9.53-2.45-19.19-.56-28.78-1-2.53-.11-6.36-1.62-6.63,3.46-.22,4.18.07,7.47,5.69,6.36a2.64,2.64,0,0,1,3.13,1.83c.33,1.29-.24,3.09-1.5,3.38-7.12,1.64-7.51,8-9.09,14.31-2.69-2.63-2.15-4.4-2.12-6,0-3.31-1.37-4.75-4.71-4.93-10-.52-15.54-6.47-18.24-15.66-.55-1.89-1.42-4.6-3.69-3.74-3.51,1.33-7.47-.5-10.54,1.78-1.38,1-.72,3.11-.33,4.68,1.81,7.25,5.67,13.41,10.23,19.2,1.8,2.29,4.73,3.69,5.49,6.91C1406.17,449.73,1402.78,449.34,1399.64,445.64Zm36.15,13.47c.43,4.44,3.81,2.44,6.16,2.44,2,0,4-.48,5.94-.39,1.55.07,3.51.11,3.7,2.38.15,1.67-1.34,2.28-2.46,2.75a57.16,57.16,0,0,1-5.68,1.69c-4,1.22-8.91,1.12-9,8.49-2.45-5.9-5.73-7.16-10.36-6.73-5,.46-9.81-1.49-14.49-3.13-1.82-.64-3.51-2.15-2.53-4.64a3.81,3.81,0,0,1,4.73-2.6c4.87,1,9.72,2,14.6,3,2.35.44,4.81.64,5.53-2.51s-1-4.15-3.77-4.41c-1.56-.14-2.13-1.32-2.49-2.68,1.62-3.25,4.81-3.21,7.73-3.53a39.39,39.39,0,0,0,25.23-12.69,13.15,13.15,0,0,1,2.85-2.69c2-1.13,3.86-.36,5.31,1.25s.47,3.06-.59,4.39a43.1,43.1,0,0,1-19.93,14.41,35.17,35.17,0,0,1-5.72,1.65C1438.21,455.91,1435.45,455.67,1435.79,459.11Zm50.67-31a69.22,69.22,0,0,1-8.37,17.83c-1.68,2.43-3.4,4.91-6.26,6.19-1.79.8-3.76,1.95-5.33-.05-1.25-1.59.06-3,1-4.41,6.63-10,11.71-20.58,14-32.46.71-3.65,1-3.58,10.31-2.65C1488,417.63,1488.12,423.17,1486.46,428.15Z"/><path d="M1461.59,378.68c-2.1-2-5-4.59-7.85-2-3.57,3.28-.09,5.88,2,8.32a59.59,59.59,0,0,1,4,4.43c5.23,7.4,8.44,15.41,8.12,25.05-9.62-1.58-18.29-.36-26.92-1-1.92-.14-4.49.45-5-2-.85-3.81-2.1-9,.87-11.19,3.55-2.63,5.27,2.19,7.06,4.8.37.54.5,1.38,1,1.67,1.75,1,3.72,1.92,5.58.53s.36-3-.13-4.42c-1.68-5-5-8.85-9.85-10.62-4.31-1.57-5.17-4.3-5.08-8.38.24-11,.22-21.95.2-32.93,0-2.16.9-4.87-2.39-5.73-2.2,7.56-2.2,7.56-10.84,8.43-.33,0-.67,0-1,.07-10.18,2.11-20,5.11-27.57,12.76-1.21,1.21-1.91,3-1,4.56,1,1.73,2.87,1.31,4.41.57,2.69-1.29,5.38-2.62,8-4.1,7-4,14.84-5.68,22.64-7.3,1.57-.33,3.41-.59,3.83,1.73.37,2.1.17,4.19-2.39,4.66-2.27.41-4.64.28-7,.56A41.44,41.44,0,0,0,1400,377.34c-3.74,3.23-5.91,7-3.11,12.19,4-1,6.3-4,9.24-6,6.39-4.38,13.2-7.64,20.91-8.86,1.28-.2,2.85-.89,3.6.41,2.15,3.71.67,7.76.63,11.67,0,2.71-2.23,2.72-4.23,3.08-5.37,1-10.22,2.88-13.34,7.79-1.11,1.74-2.34,3.63-.56,5.31,1.57,1.49,3.73,1.2,5.5-.14,3.4-2.6,6.65-5.49,11-5.22,1.8,1.52,1.46,3.26,1.56,4.87.66,10.43-4,13.68-13.76,9.55a2.14,2.14,0,0,1-.84-.49c-2.73-3.24-5-2.2-8.46-.36-9.37,5-12.92,3.55-17.88-5.49-.23-.42-1-.52-1.57-.76-4,1.23-1.81,7.25-6.43,8.14-3.81-2.23-2-5.84-1.57-8.85.66-4.92,2-9.75,2.81-14.65.22-1.22.07-2.72-1.48-3.32a3,3,0,0,0-3.5,1.18,13.32,13.32,0,0,0-2.54,4.17c-3.22,9.73-6.89,19.32-3.66,30,2.92,9.63,6.44,18.86,12.71,26.82,1.69,2.15,3.88,4,6.86,2.3s1.6-3.73.41-5.89c-.72-1.32-2-3.09-.1-4.36s3,.31,4.07,1.55,2.27,2.43,3.34,3.7c3.14,3.7,6.53,4.09,10.33.95-.76-3.22-3.69-4.62-5.49-6.91-4.56-5.79-8.42-11.95-10.23-19.2-.39-1.57-1-3.65.33-4.68,3.07-2.28,7-.45,10.54-1.78,2.27-.86,3.14,1.85,3.69,3.74,2.7,9.19,8.2,15.14,18.24,15.66,3.34.18,4.76,1.62,4.71,4.93,0,1.57-.57,3.34,2.12,6,1.58-6.32,2-12.67,9.09-14.31,1.26-.29,1.83-2.09,1.5-3.38a2.64,2.64,0,0,0-3.13-1.83c-5.62,1.11-5.91-2.18-5.69-6.36.27-5.08,4.1-3.57,6.63-3.46,9.59.42,19.25-1.47,28.78,1,3.51.9,4.76-.95,4.68-4.34C1475.44,398.73,1471,387.58,1461.59,378.68Zm-72.65,60.51c-4.7-6.21-6.88-13.45-8.24-21-.3-1.62,0-3.37,2.15-3.6a2.44,2.44,0,0,1,2.72,2.27c.68,8.14,4.18,15.44,7.44,22.56C1390.88,440.92,1389.71,440.2,1388.94,439.19Zm41.59-13.49c-2.62,1.61-5.63.1-8.08-1.56-2.73-1.86-4.55-4.42-5.87-8.33,4.5-1.69,8.13-1,11.68-1.08,2.18,0,3.71,1.19,3.53,3.66S1433,424.19,1430.53,425.7Z"/><path d="M547,389.22c-.7-2.7-2.43-3.93-5.18-3.11-3.32,1-2.24,3.24-1.65,5.58,1,3.85,2.19,7.79,2.19,11.7,0,3.43,3,9.37-2.17,9.89-4.26.42-2.92-5.71-3.49-9-1.77-10.31-7.19-18.48-14.54-25.53-2-1.94-5-3.07-7.18-1-2.92,2.73.19,4.74,2,6.49A38.08,38.08,0,0,1,527,400c1.37,4.37,4.2,10.3.13,12.77s-10.32,1.06-14.42-3.33c-.63-.68-1-1.76-2.31-1.47a10,10,0,0,0-1.46,1c-4.3,4.17-9.86,6.13-13.12,3.86-4.34-3-2.44-7.73-2.11-11.86.26-3.24,2.11-3.48,4.89-2.5,4.08,1.45,6.43,5.82,11.05,6.35,2.07-5-.45-8.3-4.1-11.13a20.21,20.21,0,0,0-9.06-3.93c-1.64-.28-3.4-.51-3.52-2.69-.24-4.34-1.12-9.37,1.87-12.51,3.13-3.29,5.08-4.93,0-7.77a3.64,3.64,0,0,1-1.17-4.51c.89-1.8,2.75-1.37,4.38-1.16,8,1,15.39,4,22.53,7.62a70.72,70.72,0,0,0,7.23,3.22,3,3,0,0,0,3.48-1.29c1-1.26.48-2.42-.34-3.6-1.58-2.28-3.91-3.61-6.23-4.87a85,85,0,0,0-21.39-8c-2.9-.68-5.91-.88-8.82-1.54-3.82-.86-.44-6.32-4.86-7.92a56.73,56.73,0,0,0-.82,16.23c.3,3.87-.18,6.54-5,6.32-4.41-.19-8.42,1.72-12.52,3.06a21.08,21.08,0,0,1-7.62,5.08c-1.21,1.27-2.5,3.86-4.31,1.45-1.66-2.22.86-3.13,2.57-3.91a14.16,14.16,0,0,1,5.91-4.58c.89-1,1.81-1.93,2.68-2.93,1.13-1.28,2.08-2.69,1.15-4.46s-2.7-1.78-4.32-1.72a8.28,8.28,0,0,0-3.86.84c-11.44,6.92-20.48,15.79-23.3,29.51-.38,1.88-.87,3.95,1.16,5.58,3.52-.08,4.67-3.09,6.29-5.42,1.89-2.71,3.56-5.59,5.43-8.32.9-1.32,1.94-3.29,3.76-2.52,2.6,1.1,1.23,3.21.59,5s-1.53,3.71.93,5.76c3.59-1.19,6.38-4.09,9.57-6.29,5.2-3.59,10.46-7.05,16.9-8,1.65-.24,3.92-.55,4.12,1.42a48.33,48.33,0,0,1-.3,10.88c-.37,2.76-3.27,2.85-5.32,3.77-5.1,2.3-8.21,6.53-10.61,11.35-.72,1.45-1.28,3.28.43,4.49a5.05,5.05,0,0,0,4.74.47c1.7-.58,2.63-2,3.61-3.29,1.69-2.27,2.76-6.44,6.3-4.87,3,1.34,1.35,5.3,1.44,8.12,0,1.23-.67,2.48-1,3.72l-.3,4.11c1.51,7.58,1.52,7.66-5.11,8.39a3.6,3.6,0,0,0-3.18,1.89c-.86,1.76.19,4,1.35,4.32,6.86,1.8,9.12,7.14,10.19,13.9,3.07-3.69-.52-9.65,5.5-10.5,9.47-1.33,14.59-7,17-15.9.78-2.91,2.62-3.8,6-3.33,7.47,1,15.06,1.22,22.62,1.76.71,2.79.14,5.34-.6,7.93-2.21,7.72-5.91,14.79-9.55,21.89-.74,1.44-1.85,3-.21,4.46,1.91,1.71,3.9.79,5.33-.59a24,24,0,0,0,4.17-5.52,91,91,0,0,0,8.94-23.15C552.9,410.14,549.69,399.71,547,389.22Zm-51.26,36.65c-3.15-.57-2.71-3.23-2.92-5.51-.47-5.35,2.82-6,7.68-5.58,1.37.25,4.37-.93,4.83,2.45S499.1,426.48,495.69,425.87Z"/><path d="M697.67,529c-5.61,7.66-5.23,17.6-9.76,25.67-2.1,3.75-3.73,7.81-6.89,10.89-1,.93-2,1.75-3.5,1s-1.61-2-1.63-3.38c0-2.82,1.6-5,2.86-7.35a86.81,86.81,0,0,0,7.57-20.5c.9-3.55.18-5.64-4.25-5.57-13.31.22-26.62.21-39.93.14-3.86,0-5.38,1.77-5.37,5.42,0,7.61,0,15.22,0,22.83l-2.49-.28c-1.39-4.72-1.12-9.66-1.24-14.52-.33-13.41-.28-13.42-14.15-13.5-5.87,0-11.75,0-17.49,0-.27-4.62,2.17-4.18,4-4.21,7.32-.13,14.65-.33,22-.07,4.35.15,5.69-1.41,5.64-5.68-.21-17.64-.16-35.27-.13-52.9,0-2.48-.76-5.24,2.45-8.67.39,9.54,6.48,10.38,13,11.21a52.21,52.21,0,0,1,21.37,7.77c2.27,1.43,4.51,2.81,5.74,5.35a3.43,3.43,0,0,1-.07,3.72,3,3,0,0,1-3.6,1c-2.75-1.15-5.43-2.46-8.08-3.84a62.78,62.78,0,0,0-25.55-7.24c-2.16,4.35-1.22,8.74-1.27,13-.11,10,.18,20,0,29.94-.07,4.46,1,6.59,6.1,6.49,14.26-.3,28.53-.11,43.12-.11,1.27-7.49-.46-14.13-2.17-20.78-.46-1.78-2.18-3.93.75-4.93,2.66-.92,5.34-.94,6.2,2.73,1.13,4.85,2.37,9.67,3.43,14.52.69,3.19,0,6.72,2.68,9.38C697.57,527.11,698.53,527.88,697.67,529Z"/><path d="M1321.46,528.16c-.19,1.58-1.81,1.64-3.12,1.64-8.31,0-16.62,0-25.4,0-3,9.51.94,19.64-3.44,28.5-2.37-7.26-1.65-14.56-1.7-21.78,0-5.25-2.07-6.85-7.15-6.76-14.3.26-28.61.09-44.05.09a59.5,59.5,0,0,0,7.07,22.4c.8,1.46,1.81,2.8,2.53,4.3,1.5,3.13,5.1,7.07,1,9.58-4.36,2.68-5.9-2.84-7.92-5.42a53.84,53.84,0,0,1-9.34-19.68c-.84-3.18-1-7.08-3-9.29-3-3.35-4.46-5.21.48-7.79.86-.46.6-3.1.83-4.73a62.24,62.24,0,0,1,4.7-16.22c.93-2.18,2.15-4.43,5.15-3.35,2.62.94,1.78,3.29,1.48,5.12-1.1,6.52-2.36,13-3.69,20.23H1287c.18-5,.45-10.12.52-15.28.11-8.33.12-16.65.11-25,0-9.63,0-9.49-9.06-7.87a72.14,72.14,0,0,0-23.2,8.7c-1.93,1.1-4.24,3.39-6.1.82-1.55-2.16.72-4.34,2.1-6.07,2.54-3.16,6-5.23,9.62-7a48.23,48.23,0,0,1,16.31-4.3c5.92-.56,12.06-.73,11.68-10.57,3.77,3.63,2.67,6.71,2.69,9.34.07,17,.13,34-.12,50.94-.07,5,1.06,7.28,6.61,6.87,6.63-.48,13.32-.11,20-.07C1319.91,525.58,1321.73,525.89,1321.46,528.16Z"/><path d="M1466.17,439.46a43.1,43.1,0,0,1-19.93,14.41,35.17,35.17,0,0,1-5.72,1.65c-2.31.39-5.07.15-4.73,3.59.43,4.44,3.81,2.44,6.16,2.44,2,0,4-.48,5.94-.39,1.55.07,3.51.11,3.7,2.38.15,1.67-1.34,2.28-2.46,2.75a57.16,57.16,0,0,1-5.68,1.69c-4,1.22-8.91,1.12-9,8.49-2.45-5.9-5.73-7.16-10.36-6.73-5,.46-9.81-1.49-14.49-3.13-1.82-.64-3.51-2.15-2.53-4.64a3.81,3.81,0,0,1,4.73-2.6c4.87,1,9.72,2,14.6,3,2.35.44,4.81.64,5.53-2.51s-1-4.15-3.77-4.41c-1.56-.14-2.13-1.32-2.49-2.68,1.62-3.25,4.81-3.21,7.73-3.53a39.39,39.39,0,0,0,25.23-12.69,13.15,13.15,0,0,1,2.85-2.69c2-1.13,3.86-.36,5.31,1.25S1467.23,438.13,1466.17,439.46Z"/><path d="M526.1,439.91c-6.28,8.83-15,13.74-25.58,15.74-2.87.55-8.12-1.24-7.58,3.75.61,5.7,5.53,2.6,8.67,2.23,3.61-.43,7.13-1.53,10.73-2.05,2.27-.34,5-.57,5.53,2.6s-1.23,4.93-4.4,5.41c-3.93.6-7.85,1.84-11.78,1.85-4.89,0-8.92.85-11.32,6.59-1.44-4.85-3.6-7.7-8.32-7.3-.93.07-1.9-.56-2.87-.79-2.79-.69-7.11-.58-6.49-4.45s4.78-2,7.5-2.11,5.21,0,8,0a14.79,14.79,0,0,0,.64-2.91c.1-8.15,0-8.41,8.07-9.78,9.61-1.64,17.19-6.58,23.85-13.35,1.37-1.39,3-3.37,5-1.75S527.51,437.93,526.1,439.91Z"/><path d="M1351.13,526c-5.82,4.63-6.72,10.52-8.29,16.14a66.54,66.54,0,0,1-9.17,19.76c-1.49,2.18-3.05,4.35-5.43,5.73a4.54,4.54,0,0,1-5.54-.54c-2-1.7-.88-3.47.28-5.21,2.57-3.86,5.15-7.72,7.54-11.69a48.94,48.94,0,0,0,5.52-13.8c.76-3.14.83-6.46,1.25-9.69a1,1,0,0,1,.69-.67C1341.84,526,1345.71,526,1351.13,526Z"/><path d="M602.31,566.8c-2.37,2.45-5.66,1.45-8-.82-7.23-7.09-13.29-15.16-13.94-25.56a25.13,25.13,0,0,0-5.09-14.49h12.51c-1.75,13.62,3.48,25,12.61,34.87C602,562.47,604.23,564.82,602.31,566.8Z"/><path d="M615.57,477.58c.16,2.46-1.32,3.82-3,4.87-9.81,6.08-17,14.54-22.58,24.53-.93,1.65-2.16,3.86-4.49,2.79-1.93-.88-2.2-3.14-2-5.2,1-10.31,16.35-28,26.24-30.45C613.07,473.3,614.65,474.85,615.57,477.58Z"/><path d="M662.78,576.3c-5.48,6.73-13.07,7.73-20.51,9-4.12.69-4.13.63-7.46,5.75-2-3.81-3.85-7.72-9-7.28a10.53,10.53,0,0,1-7.43-2.43,5.14,5.14,0,0,1-1.66-6.27c1.08-2.5,3.21-1.22,5.06-.49s3.81,1.14,5.68,1.81c2.79,1,5.15,1.16,6.47-2.24.3-.78,1.61-3.21,2.22-.92,2.13,8,7.17,3,11.12,2.95C652.25,576.07,657.31,572.23,662.78,576.3Z"/><path d="M1306.38,579.57a10.77,10.77,0,0,1-7.73,4c-4.67.17-7.36,2.39-8.3,7.53-1.87-4.06-2.93-6.77-8-6-5.62.88-11.11-1.56-16-4.55-1.95-1.2-4-3.18-2.51-5.74,1.23-2.15,3.41-1,5.33-.42a69.08,69.08,0,0,0,10.6,2.66c2.89.38,6.77,2.53,8.09-2.65a1.41,1.41,0,0,1,2.34-.76c4.19,4.09,8.36,2.58,12.73.32a3.28,3.28,0,0,1,4.41,1C1308.34,576.69,1307.53,578.28,1306.38,579.57Z"/><path d="M1340.48,505.89a4,4,0,0,1-2.79,4.39c-2.68.94-3.59-1.09-4.37-2.81a52.8,52.8,0,0,0-21.51-24c-1.77-1.06-3.16-2.55-3.24-4.69-.1-2.67,1.11-4.59,4-4.37C1322.19,475.12,1340.67,495.89,1340.48,505.89Z"/><path d="M1491.79,412.6c-3.76,5-3.67,10.57-5.33,15.55a69.22,69.22,0,0,1-8.37,17.83c-1.68,2.43-3.4,4.91-6.26,6.19-1.79.8-3.76,1.95-5.33-.05-1.25-1.59.06-3,1-4.41,6.63-10,11.71-20.58,14-32.46C1482.19,411.6,1482.53,411.67,1491.79,412.6Z"/><path d="M457.75,452.07c-2.46,2.68-5,1-7-.79a41.09,41.09,0,0,1-14.49-26.41,28.52,28.52,0,0,1-.39-6.94c.24-2-6.06-3.58-.4-5.56,3.57-1.25,7.35-2,7.95,3.67l-.26.78.55.62q.51,3,1,6.09A37.25,37.25,0,0,0,456.25,446C456.36,448.11,460,449.58,457.75,452.07Z"/><path d="M1484.63,391.56c-.09,1.48,0,3.23-1.91,4s-3.12-.39-4.06-1.82q-2.17-3.31-4.17-6.74c-4.27-7.27-9.71-13.34-17.19-17.44-1.7-.93-3.82-1.53-4.61-3.51a5.26,5.26,0,0,1,.54-5.6c.94-1.13,2.31-1.11,3.64-.84C1466.23,361.48,1484.3,382.18,1484.63,391.56Z"/><path d="M469.9,447.77c-3.08,3.16-5.87.33-8.33-1.9-1-.86-2.05-1.57-3.08-2.34-4.37-6.2-8.41-12.57-10.41-20,.1-2.13.18-4.27-1.13-6.14.1-.21.31-.43.28-.61a8.2,8.2,0,0,0-.39-1.15c.11-.64.26-1.28.31-1.93.27-3.1-1.19-7.55,2.78-8.44,3.7-.82,2.71,4.69,5.21,6.25l-.06,4.13A4.35,4.35,0,0,0,456.2,420l-.26.81.6.62c1.22,7.74,6.1,13.42,10.59,19.4C468.61,442.75,473.1,444.47,469.9,447.77Z"/><path d="M1713.86,897.85c-7.32,0-14.64-.26-21.94.1-4.25.21-5.94-.81-5.86-5.36.25-14.62.25-29.26.1-43.88-.05-4.32,1.52-5.8,5.8-5.76,15,.16,29.92.08,44.88,0,3.26,0,4.8.88,4.77,4.46-.12,15.29-.08,30.58,0,45.88,0,3.4-1.49,4.7-4.8,4.66-7.65-.1-15.3,0-22.94,0Zm.46-7.53v-.23c5,0,10,0,15,0,2.91,0,4.2-1.27,4.18-4.19-.07-10.33-.07-20.65-.08-31,0-3.05-1.73-4-4.48-3.93-10,.09-20,.18-30,.11-3.48,0-4.65,1.53-4.62,4.83.08,9.66.08,19.32,0,29,0,3.62,1,5.62,5.06,5.44C1704.32,890.16,1709.32,890.32,1714.32,890.32Z"/><path d="M247.53,495.26c-1.38-4.07-3-7-7.24-7.95-3.18-.75-5.81-3.08-8.06-5.63-10.17-11.57-7.42-28.14,6.7-35.08,4.35-2.14,6.86-4.54,8.38-11.27,1.87,6.85,4.37,9.52,9.45,10.87,8.75,2.32,15.43,12.91,15.06,21.44-.35,8.25-7.32,17.91-15.69,19.83C251.55,488.53,249.68,491.36,247.53,495.26Zm11.27-28.12c-9.06.09-9.82.54-9.54,6.46.12,2.47-1.51,6.61,3.19,6.74,4.33.12,10.4-6.66,10-10.72C262.09,466.05,259.32,467.14,258.8,467.14Zm4-2.38c-.48-5.14-3.78-8.62-8.06-11.27-1.6-1-3.66-1.74-4.83,1-2.82,6.64,0,11.25,7,11.44C258.77,466,260.81,466.83,262.77,464.76Zm-27.88.05c11.77,2.2,12.54,1.19,8.72-11.6C238.27,455.43,235.84,459.43,234.89,464.81Zm.37,3c.29,5,2.05,8.8,5.79,11.25,1.76,1.15,3.69.88,4.24-1.88C246.74,469.85,244.46,467.51,235.26,467.79Z"/><path d="M1675.15,436.36c1.67,5.91,4.61,8.8,9.31,10.69,8.89,3.6,13.42,11.53,13.4,20.38,0,8.64-5.52,15.73-13.55,19.38-4.13,1.88-8,3-8.8,9-1.72-4.75-3.81-7.21-8.42-8.38-8.41-2.14-15.18-12.11-15-20.13.16-9.34,7.07-19.77,15.86-21.53C1673.12,444.77,1672.17,440.69,1675.15,436.36Zm-14.4,28.39c13.43,2.44,14.77.94,11.09-12.51C1663.64,456.88,1663.64,456.88,1660.75,464.75Zm12.4,9.49c0-6.75-2.43-8.45-9.33-6.65-2.93.76-3.75,2.37-2.37,5.14a17.66,17.66,0,0,0,4.22,5.49c1.59,1.4,3.65,2.55,5.38,2C1673.84,479.41,1673.19,476.53,1673.15,474.24Zm4.18-.29c1.45,1.37-1.76,5.49,2.55,5.73,3.58.19,5.62-3,7.48-5.74,1.16-1.69,1.88-4.07.53-5.52-1.91-2.06-5-1.31-7.5-1.13C1676.38,467.57,1677.87,471,1677.33,474Zm1.11-21.24c-2,14-1.47,15.27,10.2,11.47C1687.46,458.84,1684.8,455,1678.44,452.71Z"/></g><g id="Capa_3" data-name="Capa 3"><path d="M802,306.78v111H782.17V347.07L762.66,362l-16.18,12.53L730.3,362l-19.5-14.91v70.74H691v-111L710.8,322l35.68,27.44L782.17,322Z"/><path d="M855.92,343.74v75.5H836.09V341.68a15.8,15.8,0,0,0-13.48-13.48h-4.44V308.53h4.28v.16A35.35,35.35,0,0,1,852,328.51a41.54,41.54,0,0,1,2.69,7.46,33,33,0,0,1,1,8.09Z"/><path d="M982.33,340.41a32.66,32.66,0,0,1-9.19,22.84,32.77,32.77,0,0,1-23.48,55.52h-78.2V398.94h78.2a13.07,13.07,0,0,0,13-13,12.91,12.91,0,0,0-12.22-13h-59V353.1h59a13,13,0,0,0-.63-26h-78.2V307.26h78.2a32.62,32.62,0,0,1,32.67,32.67Z"/><path d="M1068.46,306.78a35.81,35.81,0,0,1,35.84,35.85v39.18a35.81,35.81,0,0,1-35.84,35.84H1034.2a35.81,35.81,0,0,1-35.85-35.84V342.63a35.81,35.81,0,0,1,35.85-35.85Zm-34.26,19.83A16.25,16.25,0,0,0,1018,342.79V382a16.25,16.25,0,0,0,16.18,16.18h34.26A16.25,16.25,0,0,0,1084.64,382V342.79a16.25,16.25,0,0,0-16.18-16.18Z"/><path d="M1221.83,361.82a32.76,32.76,0,0,1-23.47,55.52h-45.53a32.56,32.56,0,0,1-30.13-20,34.27,34.27,0,0,1-2.54-12.85V339a32.09,32.09,0,0,1,8.25-21.41,33.63,33.63,0,0,1,9.51-7.46,31.44,31.44,0,0,1,14.91-3.64h69v19.82h-69a13.07,13.07,0,0,0-13,13v15.54a32.63,32.63,0,0,1,12.37-2.53H1199a32.73,32.73,0,0,1,23,10Zm-23.63,35.69a13.06,13.06,0,0,0,13-13,12.9,12.9,0,0,0-12.21-13H1152.2a13,13,0,0,0,.63,26h45.37Z"/></g></g></svg>