<svg xmlns="http://www.w3.org/2000/svg" viewBox="0 0 1920 1080"><defs><style>.cls-1{fill:#f2f2f2;}</style></defs><g id="Capa_2" data-name="Capa 2"><g id="Capa_1-2" data-name="Capa 1"><path d="M1709.54,489.81c-.54-40.58-.48-81.16-.75-121.74,0-1.23-4-3.79-5.39-4.64-7.28-4.59-14-4.44-21.34-4.45-46.83-.05-93.68-.15-140.52,0a117.76,117.76,0,0,1-30.7-4c-34.9-9.24-69.77-18.6-104.79-27.36-66.91-16.73-133.72-34-202-44.55-36.89-5.7-73.94-10.22-111.16-13.22a48.84,48.84,0,0,1-6.19-.7c-7.5-1.63-10.66-5.2-11.15-12.76-.19-2.93.18-5.91.24-8.87.13-6.51.77-13-.22-19.53-2.11-14-11-22.13-25.12-22.66-7.67-.29-15.35,0-23.8,0,1.51-20.72-4.52-38.2-21.35-52,7.66-1.52,13.68-2.69,19.68-3.93q67-13.86,133.9-27.75c10.43-2.17,20.84-4.45,31.26-6.67,3.4-.73,6.47-2.13,6.62-6a21.74,21.74,0,0,0-6-16.19c-3.72-4-8.08-2.52-12.44-1.6l-221,46.22c-5.27,1-9.9-.38-14.42-1.4q-79.22-18-158.38-36.22c-13.28-3-26.52-6.21-39.84-9-3.35-.72-7-2.11-10.4-.11-4.43,2.61-7.64,12.27-6.64,18.43,1,6.37,6.4,6.42,10.78,7.39,38.72,8.59,77.48,16.94,116.21,25.46,18.64,4.12,37.24,8.43,57.31,13A51.23,51.23,0,0,0,895.79,180a61.77,61.77,0,0,0-2.64,20.16c.15,3.87-1.35,5.1-5.18,5.13,0,0-23.94.37-26.36.37s-7.22,3.75-7.22,3.75c-9.22,8.9-10.56,18.38-10.33,28.38.13,5.33.33,10.66.25,16-.14,10.6-3.4,14.36-14,15.56-17.36,2-34.75,3.61-52.13,5.46a1231.83,1231.83,0,0,0-144.48,23.89Q517.7,325.26,402.91,356.51A76.06,76.06,0,0,1,382.72,359q-64,0-128,0c-7.1,0-14.22.05-21.33.27-6.17.2-12.38.47-17.44,5-2.81,2-5.46,12.62-5.46,12.62V480.26c-.1,14,2.12,27,9,39.24a64.13,64.13,0,0,1,8.31,26c.44,5,1.36,10,1.59,15,.8,17.31,10,29.24,24.13,38,7.05,4.34,14.46,8.15,21.26,12.87,10.86,7.53,22.84,9.25,35.55,8.17,8.12-.7,12.32-4.59,13.23-12.82a131.46,131.46,0,0,0,.34-13.33c.09-8,0-16,.21-24,.21-7.27,3.5-13,9.42-17.26,6.07-4.43,8.47-5.33,14.17-.36,8.87,7.75,19,8.52,29.88,8.47,16.59-.1,33.19-.16,49.79.28,18.12.46,30.18,13.36,34,28.3,21,81.58,42.58,163,63.67,244.56,9.43,36.46,27.67,67,57.45,90.49a165.46,165.46,0,0,0,50.69,26.88c10.05,3.66,29.68,8.21,29.68,8.21,18.93-.09,37.95-.5,56.53-5,61.18-14.88,123.29-23.21,186.13-26.54,15.68-.84,31.37-1.42,47.08-1.52l18.3.18c30.85-.1,61.58,2.16,92.27,5.14a1005.31,1005.31,0,0,1,135.75,22.14c20.36,4.85,40.91,6.8,61.68,3.13,67.91-12,113.25-50.47,132.34-117,15.5-54,28.63-108.63,42.85-163,7.78-29.75,15.68-59.47,23.5-89.21,4.37-16.68,15.18-25.26,32.33-26.64,15.71-1.26,31.4-.58,47.11-.52,12.48,0,24.94,1,34.84-9.19,3.59-3.69,8.24-2.71,12.16.29,6.19,4.72,10,10.91,10.27,18.81s0,16,.08,24c0,4.44-.22,8.94.35,13.32.66,5.18,2.7,10.08,8.6,11.13,10.89,1.94,22.09,2.93,32.16-2.55a330,330,0,0,0,35.54-21.82c10-7.25,17.27-17.22,17.83-30.36.85-20.15,5.49-39.14,15.6-56.72C1709.14,501.79,1709.62,495.83,1709.54,489.81Zm-621.44-372c3.68-1.07,7.39-2,11.13-2.84q39-8.22,78-16.35c9.27-2,9.27-2,12.89,8.92-26.57,5.55-52.53,11-78.52,16.38-6.93,1.45-13.89,2.69-20.83,4.09-2.36.47-5,1.43-5.5-2.11C1084.86,122.85,1083.52,119.09,1088.1,117.77Zm-93.92,18.71,75.5-15.67c7.75-1.61,7.93-1.2,8.9,6.08.64,4.76-2.48,4.63-5.2,5.2-15.62,3.26-31.26,6.41-46.88,9.63-4.92,1-9.91,1.82-14.7,3.23-13.56,4-26.57,2.08-41.51-3.42C979.53,139.57,986.85,138,994.18,136.48Zm-25.8,12.22a129.3,129.3,0,0,1,21.46,5.53c18.74,6.93,29.35,22,29.62,42,.13,10.07,0,20.15,0,30.22-.27,14.81.29,29.61-1.5,44.38-2.91,24-24.51,45.82-48.53,48.67a41,41,0,0,1-4.43.3c-1.76.05-3.7.22-3.88-2.34-.15-2.32.67-4.07,3.19-4.52,1.16-.22,2.36-.24,3.53-.4,26.43-3.91,43.88-27.31,39.92-53.59-1.33-8.84-.7-17.74-.77-26.61-.1-10.67.12-21.34-.16-32-.51-20.13-11.06-33.37-30.46-38.52-3.72-1-7.51-1.69-11.3-2.34-3-.49-3.81-2.29-3.88-5C961.05,148.68,962.32,147.59,968.38,148.7Zm31.33,65.69c-11.4-7.15-22.05-12-34.2-12.28l-10.9-.08c-12.37.88-23.26,5.85-34.3,13.23-2.36-18.85,3.5-33,18.18-43.36,4.66-3.28,9.78-6,15.46-6.28,2.93-.16,9.06.2,12,.43,18.6,1.44,32.57,14.79,33.73,33.56C999.94,204,999.71,208.46,999.71,214.39Zm1.86,53.92c-1.19,18.09-15.2,33.86-32.79,37.12a23.18,23.18,0,0,1-5.25.49c-.63,0-1.51-.92-1.78-1.62-.51-1.32.27-2.26,1.6-2.53,2-.4,4.12-.5,6.1-1,14.73-3.89,24.1-12.89,27.36-28.11,1.44-6.72,1.16-13.51,1.8-20.91C1002.51,257.2,1001.93,262.85,1001.57,268.31Zm-44.44-59.7c12.17-1.18,23.45,2,33.8,8.5,8.26,5.15,9.3,7.51,8.1,18.14-2.24.26-2.91-1.76-4.09-2.93-14-13.92-33.9-18.15-51.45-11-19.79,8-30,23.22-30,43.94-.08,24.68,15,41.55,37.92,47.08a5,5,0,0,0,1.76.16c3.48-.37,4.77,1.22,4.55,4.61-.3,4.61-3.5,3-5.85,2.76a51.85,51.85,0,0,1-33.27-16.9c-15.46-17.07-20-37-11.15-58.35C916.39,222.8,933.62,210.86,957.13,208.61ZM952,301.07c2,.57,6-.35,5.12,3-.88,3.59-4.57,1.33-6.74.87-15.83-3.37-29.44-20.24-30.26-37.22-.17-3.42,0-6.84,0-10.27,3.23,2.86,2.85,5.85,3.11,8.74C924.8,284.24,934.54,296,952,301.07Zm-21.46-30.23c-1.88-9.06-1.34-18.26-1.46-27.42,0-3.57,1.92-6.08,4.57-8.18a57.34,57.34,0,0,1,18-9.39c12.2-2.5,20.1.68,20.1.68a75,75,0,0,1,8.23,3.22c7.72,3.5,12.11,9,11.35,18-.48,5.58.09,11.24-.12,16.84-.6,16.32-11.49,27.78-29.42,30l-3.67-.39C943.32,292.81,933.28,284,930.54,270.84ZM835,130.41l-92.72-20.58c-1.15-.25-2.33-.42-3.49-.64-4.14-.78-5.1-3.17-4.15-7.12.92-3.78,2.53-5.81,6.75-4.87,8.66,1.92,17.38,3.6,26,5.57q90.83,20.76,181.63,41.58c9.53,2.19,9.52,2.21,7.68,13.08Zm65.82,59.22c.91-11.5,6.4-21.35,15.59-28.92,3.28-2.69,6.71-3.93,10.63-2.76,4.45,1.32,9.45.76,13.5,3.64-1,1.92-2.76,2.41-4.24,3.3-15.61,9.22-23.14,23.08-23.58,41,0,.6,0,1.19,0,1.78.26,15.07.26,15.07-10.69,29.38C900.31,220.31,899.61,204.92,900.82,189.63ZM386.15,542.49c.44,1.49,1,3.08-1.6,2.88-3.85.07-7.7,0-11.53.26-5.9.44-10.85-1.46-15.7-4.79-16-11-32.06-7.22-42,9.65a43,43,0,0,0-5.82,22.06c-.06,8.88-.25,17.78.08,26.66.17,4.65-1.34,6.22-6,6.31-6.7.12-12.83-.92-18.57-4.65-8.69-5.64-17.65-10.84-26.38-16.42-9-5.74-14.5-13.75-15.13-24.7-.15-2.65-.74-5.29-.79-8-.18-13.58-3.25-26.45-10.15-38.18-6.21-10.55-8.13-21.71-7.91-33.92.56-31.4.17-62.82.23-94.23,0-12,.11-12.27,12.33-12.31q71.57-.24,143.14-.16c6.34,0,6.44.1,6.44,7.1q0,52-.07,104,0,12.9-.08,25.78c0,1.45.14,3-1.62,3.69,3.1,5.15,1.45,10.65,1.21,16A51.8,51.8,0,0,1,386.15,542.49ZM405.54,539c0,6.69-.14,6.51-6,6.76-3.93.16-4.91-1.17-4.92-5-.11-30.76-.61-61.52-.72-92.29-.08-23.07.17-46.14.46-69.22.08-6.79,1.32-7.7,7.56-8,2.79-.15,3.69,1.13,3.69,3.6s.07,4.73.07,7.1v76.32h-.09Q405.56,498.62,405.54,539ZM1503,545.67a86.06,86.06,0,0,0-17.63,1.13c-19.58,3.24-33,13.92-38.57,33.09-5.87,20.36-10.9,41-16.28,61.46-.36,1.41-.41,2.94-1.66,4-1.33,10-4.88,19.44-7.42,29.14-14.05,53.7-28.61,107.25-42.35,161-13.29,52-58,99.64-125.23,107.76-17.8,2.16-35.43.48-52.87-3.78-40-9.73-80.58-16.28-121.5-20.89-36.83-4.16-73.76-6.29-110.79-6.85-2.28,0-5.53,1.56-6.49-2.47-1-4.42.41-6.25,5.38-6.23,14.51.08,29,.27,43.53.41,62.21.57,124.41.85,186.61,1.85,21.06.34,42-1.21,63-1.36,2.06,0,4.08,0,5.87-1.45,3.68-3,8.14-3.15,12.59-3.24,3.38-1.85,7-1.74,10.7-1.48,15.39-5.11,30.53-10.71,44-20.14,25.69-18,40.64-42.83,48.52-72.91,13.91-53.15,28.61-106.09,43-159.1a37.17,37.17,0,0,1,1.66-4.11c3.55-18.28,9.65-35.89,14.39-53.86,5.73-21.71,12.83-43,18-64.92.74-3.15,1.43-6.32,2.13-9.47,2-23.35,1.85-46.76.6-70.09-1.32-24.94-18.41-44.19-42.05-52.8-32.67-11.89-66.59-18.5-100.25-26.31-6.8-1.58-6.82-1.48-6.75-8.61,0-4.44.25-8.89.09-13.32-.14-3.41.35-5.52,4.57-5.7,3.36-.14,2.5-2.54,1.08-4.37s-3.73-2.83-6-3.48c-9.44-2.64-19.15-3.77-28.81-5.23-2.09-.31-4.29-.45-4.59,2.59s1.25,4,4.11,4.44c6.14.9,12.19,2.44,18.33,3.3,3.79.54,4.89,2.43,4.81,5.95-.15,6.75-.05,13.51-.05,20.9-9-.31-16.83-2.76-24.79-4.38-51-10.34-102.19-19.85-154.14-24.54-26.83-2.43-53.69-4.4-80.55-6.32-7.31-.52-14.77-1.39-21.84,1.78-.65,1.42-2,1.76-3.34,2.12-7.78,5.68-10.32,14-11.36,23-1,8.27-2.76,16.3-7.07,23.57-9.11,15.38-22.83,23.27-40.82,25.2l-5.47-.62c-24.93-.17-44-18.82-47.84-44-.4-2.63-.83-5.25-1.15-7.89a25.29,25.29,0,0,0-10.07-18L895.72,328c-8.12-4.11-16.81-3.19-25.33-2.6-43.15,2.93-86.3,6-129.16,12-37.55,5.23-74.68,12.79-111.82,20.33-5.11,1-10.26,1.9-16.17,3,0-5.27,0-9.65,0-14,.07-12.77.08-12.75,13.17-14.62,3.51-.49,7-1.2,10.51-1.71,2.51-.38,3.56-1.84,3.48-4.26-.11-3.2-2.45-2.92-4.47-2.63-10.55,1.52-21.17,2.62-31.53,5.22-2.41.61-4.61,1.43-4.69,4.44s2.15,3.25,4.2,3.56c2.93.46,2.76,2.57,2.72,4.67-.14,6.81,1.92,14.85-1,20s-11.84,3.67-18.08,5.2c-16.68,4.06-33.42,7.85-50.15,11.68A240.51,240.51,0,0,0,492.79,393c-20.6,9.21-33.55,25.66-35.11,48.53-1.58,23-1,46.19.07,69.28.45,9.2,3.65,17.93,6,26.78,2.74,10.27,5.33,20.58,8,30.87,6.15,14.71,9.45,30.31,13.7,45.59,12.19,43.76,23.9,87.67,35.77,131.52a11.48,11.48,0,0,1,.11,2.63c6.29,18.48,11.13,37.39,15.77,56.3,12,49,43.51,78.56,90.93,92.56,3.9,1.14,8.2.88,12.2,1.76,4.66,1,10.17-.5,13.58,4.8.65,1,3.9.41,6,.47,71.69,1.7,143.38.18,215.07,0,25.77,0,51.55-.68,77.32-1.09,3.19-.06,5.69-.21,5.56,4.44s-3,4.28-5.91,4.25c-17.2-.16-34.36.94-51.51,1.81a982.37,982.37,0,0,0-181.74,25.94c-75,18.15-149.92-21.32-174.37-93.42-7.11-20.94-11.93-42.66-17.61-64.08-2.49-9.4-5.49-18.69-6.9-28.36-4.69-13.06-7.38-26.66-10.92-40-11.24-42.45-22.28-85-33.51-127.43-1.42-5.36-3.51-10.57-5.29-15.85-11.14-17.85-28-24.6-48.21-24.63a43.84,43.84,0,0,0-4.44,0c-3.51.38-4.54-1.14-4.49-4.57.16-11,0-21.92,0-32.88,0-44.45.08-88.9-.19-133.35,0-5.3,1.75-6.84,6.59-8.12Q524.69,338.85,631,313.94c56.91-13.35,114.56-21.47,172.53-27.94,11.46-1.28,23-1.56,34.42-3.69s19.1-10.42,20-21.77c.56-7.07.19-14.2.28-21.31a73.13,73.13,0,0,1,.34-8c1.12-9.09,3.91-11.68,13.24-12.06,5.62-.23,11.27.09,16.87-.28,3.77-.25,5.41.9,5.5,4.76.27,11.85.81,23.69,1.08,35.53.28,12.61,2.58,24.74,8.83,35.81,10.11,17.93,25.65,28.35,45.87,31.44,4.58.7,8.57.86,9.58,7.08,1.82-5.17,5.22-6.25,9.6-6.86,30.43-4.19,52.23-26.5,56.19-56.65,1.78-13.59.94-27.22,1.26-40.82.24-10.08.15-10.08,9.81-10a114.11,114.11,0,0,0,11.55,0c8.72-.85,13.59,4.25,13.82,13.35.2,7.69,0,15.41.19,23.1.07,3.25-.05,6.68,1,9.67,3,9,9.05,15.46,18.8,16.84,13.77,2,27.6,3.45,41.45,4.84a1404.83,1404.83,0,0,1,193.22,33.18C1376.67,334.86,1437,349.5,1497,365.69c3.27.88,6.91,1,9.5,3.67a8.67,8.67,0,0,1,.47,1.13c0,.17-.12.41-.19.62.1,13.54.29,27.08.26,40.63q-.11,50.81-.38,101.61c.14,9.43.2,18.86.46,28.28C1507.18,544.72,1506,545.79,1503,545.67ZM744.13,885.34a250.38,250.38,0,0,0-33.27,4.7c-4.52,1-3.55,4.2-2.9,7.52a44.28,44.28,0,0,1-14-.59l-12.34-1.63-3.49.53c-.63.84-1.26.89-1.87,0l-.16,0a7.72,7.72,0,0,1-5.23-.35c-1.23-.14-2.46-.27-3.69-.42a5.5,5.5,0,0,1-5.14-1c-3.09-.33-6.41,1-9.24-1.26l-5.07-1-1.92-.37a6.07,6.07,0,0,1-4.93-1c-7,.78-13.47-1.65-19.49-4.24-8.18-3.5-9.6-1.85-7.74-13.57a114.3,114.3,0,0,1-.32-23.17c-.37-2.47-.74-4.92-1.12-7.39l-2.36-1.09a1.69,1.69,0,0,1-2.12.1c-1.83,9.62-.64,19.36-1.07,29-.32,7.36-1.41,8.32-8.36,5.78a49.86,49.86,0,0,1-8.51-4.62c-.94-.57-2.37-1.79-2.24-2.43,1.59-7.72-5.23-10.48-8.69-15.18-3.66-5-7.41-9.88-11.14-14.79-1.75-2.3-3.15-5.15-6.8-4.74.18,3.3-1.51,4.84-3.66,2.06-2-2.56-3.83-5.72-4-9.33-1.24-1.37-4-2.33-3-4.45,1.27-2.75,4.64-.45,6.74-1.79-2-12.15-5.84-23.83-8.51-35.79-1.24-5.6-4-4.64-7.52-2.86-.81,3.62,1.76,6.83,1.3,10.55-1.79-3.45-3.43-6.78-3.34-10.66-2.14-4.39-2.83-9.12-3.39-13.89-4.83-11.55-7.58-23.69-10.25-35.87-2.26-7-4.54-14-5.43-21.31-5.31-11.94-7.95-24.64-10.56-37.35-1.36-4.71-3.37-9.24-3.88-14.18a76.45,76.45,0,0,1-5.14-17.83q-7.69-28.2-15.41-56.4c-5.9-21.67-11.72-43.37-17.67-65a87.38,87.38,0,0,1-2.81-25.49c.06-2.48-.17-4.92,3.48-4.67s3.57-2.17,3.58-4.68c0-10.07.08-20.15.09-30.22,0-2,.47-4.67-2.69-4.47-5,.33-5-2.51-4.67-6.17.51-5.65,1.44-11.14,4.15-16.2,1-5.29,4.21-9.4,8.2-14.55-1.24,6.77-4.39,11.45-6.54,16.51.2,1.88.7,3.42,3,3.61,2.12.19,3.12-.74,3.93-2.64a250.72,250.72,0,0,1,11.62-23.9,19.38,19.38,0,0,1,11.21-9.27,507.77,507.77,0,0,1,61.3-17.79C616,367.79,671,356,726.46,347c25.73-4.22,51.61-7.18,77.56-9.48,21.83-1.93,43.69-3.52,65.54-5.21,3.54-.27,7.11-.37,10.66-.35,12.73.1,20.43,7.08,21.63,19.85a82,82,0,0,0,2,13.13c3.91,15.1,12.17,27.54,26.07,34.4,12.27,6.07,22.07,8.42,33.23,8.42s26.06-7.93,26.06-7.93c17.44-10.13,26.13-26,28.38-45.67,1.88-16.46,8.6-22.9,24.9-22,26.32,1.49,52.6,3.53,78.87,5.73,52.29,4.37,103.89,13.51,155.14,24.4,40.77,8.67,81.88,16,121.82,28.21,7.06,2.17,14,4.88,21,7.11,5.41,1.71,9.1,5.06,11.93,9.92,4.47,7.69,8.79,15.44,11.54,23.91,1.15,3.53,3.1,2.72,5.41,1.85,1.37-3.62,0-6.86-1.35-10.13-1.22-2.93-2.3-5.94-4-10.33a35.55,35.55,0,0,1,8.85,17c3.28,6.85,3.57,14.22,3.89,21.88-2.84,1.1-4.26-3.23-7.56-1.3,0,5.39.08,11.19,0,17-.09,5.31.19,10.61-.85,15.93-1.28,6.58-.79,6.79,6.22,5.26a7.27,7.27,0,0,1,2,.18,93,93,0,0,1-3.12,31.44q-19.35,70.95-38.65,141.91c-1.63,5.94-2.21,12.22-5.2,17.78l.08.06h0c-1.49,11.6-5.93,22.45-8.76,33.7-1.42,5.62-3.32,11.12-5,16.67-2.14,12.9-6.1,25.3-10.42,37.59-.67,5.28-2.39,10.26-4,15.06-2,.8-2.93-.59-4-1.45-2.24-1.71-3.81-1.26-4.54,1.47-3,11.38-6.08,22.76-9,34.17-.33,1.26-.69,3.73,1.19,3.59,7.2-.54,4.07,3,2.71,6.08-1.79,4-3.38,8.12-6.17,11.59-6.14-5-6.35-5.1-10.33,1.22-4.74,7.52-9.65,14.85-16.26,20.89-1.1,1-2.57,2.4-2.09,3.67,1.12,2.93.7,5-1.9,6.75-4.2,2.78-8.48,5.45-13.67,5.81-3.15.21-2.88-2.27-2.87-4.31q0-13.71.12-27.45c-.71-1.88-1-4.22-3.86-3.89s-2.93,2.54-2.94,4.6c0,9.75,0,19.5,0,29.24,0,7.42,0,7.51-6.82,10.32-12.41,5.1-25.79,6-38.76,8.7-8.69,1.78-17.47,2.86-26.4,1.61-5.66-.79-10.76,3-16.53,2.16-3.2-.47-7.45,1.31-6.91-4.74.13-1.4-1.61-2.36-3.13-2.7-11.52-2.54-23.1-4.76-35-4.54-.81,0-1.6.73-2.39,1.12-.23,2-.11,3.93,1.75,5.24,2.78.09,5.68-.56,8.15,1.37a2.19,2.19,0,0,1,2.54.29l25.36,2.13a70.32,70.32,0,0,1-23.62,1.52l-393.05-.29H711c0-.26,0-.54-.06-.81l30.52-4c1.18-.15,2.37-.09,3.54-.25,2.33-.3,2.53-2,2.53-3.89C747.52,885.92,746.2,885.18,744.13,885.34ZM1525,542.41a25.12,25.12,0,0,1-.47,3.18c-.88.07-1.17.12-1.46.11-8.58-.16-8.57-.16-8.58-8.57q0-77.28-.1-154.54a28.53,28.53,0,0,1,.12-5.32c.41-2.2-1.77-5.75,2.76-6.1,4.83-.35,7.33,1.59,7.73,6,.09,1.19.09,2.37.09,3.55Q1525,461.59,1525,542.41Zm168-40.76c-1.53,3.19-2.9,6.48-4.62,9.56a87.31,87.31,0,0,0-10.95,41.56c-.27,15.9-7.32,27.53-21.42,35.11-7.27,3.91-14.34,8.27-21.21,12.86-6,4-12.32,5.18-19.35,4.93-3.83-.14-5.25-1.33-5.15-5.17.23-9.47.11-18.93.29-28.4.26-13.81-5.43-24.56-16.46-32.62-9.47-6.9-20.07-7.86-28.75-.51-10.29,8.71-21.35,6-32.67,6.63V530.86a72.07,72.07,0,0,1-.2-17.55c-.14-2-.42-4.1-.42-6.15q0-63.41.09-126.81c0-2-.43-4.14.66-6.07s3.13-1.29,4.82-1.29q74.35,0,148.72,0c2.37,0,5.33-1.25,7.14,1.67,2.18,2.49,1.7,5.57,1.71,8.47.09,35.79.1,71.59.24,107.38A25.1,25.1,0,0,1,1693,501.65Z"/><path class="cls-1" d="M1455.37,488.76a7.27,7.27,0,0,0-2-.18c-7,1.53-7.5,1.32-6.22-5.26,1-5.32.76-10.62.85-15.93.1-5.8,0-11.6,0-17,3.3-1.93,4.72,2.4,7.56,1.3-.32-7.66-.61-15-3.89-21.88a35.55,35.55,0,0,0-8.85-17c1.68,4.39,2.76,7.4,4,10.33,1.36,3.27,2.72,6.51,1.35,10.13-2.31.87-4.26,1.68-5.41-1.85-2.75-8.47-7.07-16.22-11.54-23.91-2.83-4.86-6.52-8.21-11.93-9.92-7-2.23-13.93-4.94-21-7.11-39.94-12.26-81-19.54-121.82-28.21-51.25-10.89-102.85-20-155.14-24.4-26.27-2.2-52.55-4.24-78.87-5.73-16.3-.93-23,5.51-24.9,22-2.25,19.7-10.94,35.54-28.38,45.67,0,0-14.89,7.93-26.06,7.93s-21-2.35-33.23-8.42c-13.9-6.86-22.16-19.3-26.07-34.4a82,82,0,0,1-2-13.13C900.65,339,893,332,880.22,331.91c-3.55,0-7.12.08-10.66.35-21.85,1.69-43.71,3.28-65.54,5.21-25.95,2.3-51.83,5.26-77.56,9.48C671,356,616,367.79,561.14,380.05a507.77,507.77,0,0,0-61.3,17.79,19.38,19.38,0,0,0-11.21,9.27A250.72,250.72,0,0,0,477,431c-.81,1.9-1.81,2.83-3.93,2.64-2.32-.19-2.82-1.73-3-3.61,2.15-5.06,5.3-9.74,6.54-16.51-4,5.15-7.16,9.26-8.2,14.55-2.71,5.06-3.64,10.55-4.15,16.2-.33,3.66-.33,6.5,4.67,6.17,3.16-.2,2.7,2.47,2.69,4.47,0,10.07-.08,20.15-.09,30.22,0,2.51-.08,4.92-3.58,4.68s-3.42,2.19-3.48,4.67A87.38,87.38,0,0,0,467.27,520c6,21.65,11.77,43.35,17.67,65q7.68,28.2,15.41,56.4a76.45,76.45,0,0,0,5.14,17.83c.51,4.94,2.52,9.47,3.88,14.18,2.61,12.71,5.25,25.41,10.56,37.35.89,7.34,3.17,14.33,5.43,21.31,2.67,12.18,5.42,24.32,10.25,35.87.56,4.77,1.25,9.5,3.39,13.89-.09,3.88,1.55,7.21,3.34,10.66.46-3.72-2.11-6.93-1.3-10.55,3.54-1.78,6.28-2.74,7.52,2.86,2.67,12,6.56,23.64,8.51,35.79-2.1,1.34-5.47-1-6.74,1.79-1,2.12,1.75,3.08,3,4.45.13,3.61,2,6.77,4,9.33,2.15,2.78,3.84,1.24,3.66-2.06,3.65-.41,5,2.44,6.8,4.74,3.73,4.91,7.48,9.82,11.14,14.79,3.46,4.7,10.28,7.46,8.69,15.18-.13.64,1.3,1.86,2.24,2.43a49.86,49.86,0,0,0,8.51,4.62c6.95,2.54,8,1.58,8.36-5.78.43-9.68-.76-19.42,1.07-29a1.69,1.69,0,0,0,2.12-.1l2.36,1.09c.38,2.47.75,4.92,1.12,7.39a114.3,114.3,0,0,0,.32,23.17c-1.86,11.72-.44,10.07,7.74,13.57,6,2.59,12.53,5,19.49,4.24a6.07,6.07,0,0,0,4.93,1l1.92.37,5.07,1c2.83,2.3,6.15.93,9.24,1.26a5.5,5.5,0,0,0,5.14,1c1.23.15,2.46.28,3.69.42a7.72,7.72,0,0,0,5.23.35l.16,0c.61.91,1.24.86,1.87,0l3.49-.53L694,897a44.28,44.28,0,0,0,14,.59c-.65-3.32-1.62-6.56,2.9-7.52a250.38,250.38,0,0,1,33.27-4.7c2.07-.16,3.39.58,3.4,2.9,0,1.87-.2,3.59-2.53,3.89-1.17.16-2.36.1-3.54.25l-30.52,4c0,.27,0,.55.06.81h80.91l393.05.29a70.32,70.32,0,0,0,23.62-1.52l-25.36-2.13a2.19,2.19,0,0,0-2.54-.29c-2.47-1.93-5.37-1.28-8.15-1.37-1.86-1.31-2-3.22-1.75-5.24.79-.39,1.58-1.1,2.39-1.12,11.87-.22,23.45,2,35,4.54,1.52.34,3.26,1.3,3.13,2.7-.54,6,3.71,4.27,6.91,4.74,5.77.85,10.87-3,16.53-2.16,8.93,1.25,17.71.17,26.4-1.61,13-2.66,26.35-3.6,38.76-8.7,6.87-2.81,6.84-2.9,6.82-10.32,0-9.74-.07-19.49,0-29.24,0-2.06.07-4.28,2.94-4.6s3.15,2,3.86,3.89q-.08,13.72-.12,27.45c0,2-.28,4.52,2.87,4.31,5.19-.36,9.47-3,13.67-5.81,2.6-1.73,3-3.82,1.9-6.75-.48-1.27,1-2.66,2.09-3.67,6.61-6,11.52-13.37,16.26-20.89,4-6.32,4.19-6.23,10.33-1.22,2.79-3.47,4.38-7.58,6.17-11.59,1.36-3.05,4.49-6.62-2.71-6.08-1.88.14-1.52-2.33-1.19-3.59,2.92-11.41,6-22.79,9-34.17.73-2.73,2.3-3.18,4.54-1.47,1.12.86,2,2.25,4,1.45,1.61-4.8,3.33-9.78,4-15.06,4.32-12.29,8.28-24.69,10.42-37.59,1.68-5.55,3.58-11.05,5-16.67,2.83-11.25,7.27-22.1,8.76-33.7h0l-.27-.07a4.3,4.3,0,0,1-1.26-.13c-2.18.14-1.93,2.86-2.4,4.28-2.19,6.67-3.89,13.5-6,20.18-1.43,4.51-1.62,4.44-6.12,7.69-1.84-2.93,0-5.71.62-8.33,2.1-9.42,4.66-18.73,7-28.1.45-1.74.84-3.87,2.92-3.84,2.37,0,3.19,2.26,3.76,4.31.33,1.16-1.62,3.26.23,3.81a3.49,3.49,0,0,1,1.26.13h.19c3-5.56,3.57-11.84,5.2-17.78q19.44-70.92,38.65-141.91A93,93,0,0,0,1455.37,488.76ZM478.63,543.84c-4.17-10.77-6.63-22-8.39-33.42-.26-1.71-.45-3.68,2-4.17s4,.15,4.64,2.75c1.1,4.24,2.48,8.41,3.59,12.66,1.61,6.17,3.07,12.39,4.6,18.6,0,1,.06,2,.09,3C481.39,547.64,480.19,547.86,478.63,543.84Zm13.78,53.09c-2.07-10.41-5.42-20.52-7.05-31-.6-3.87.09-5.77,4.32-5.2,4.39,13,9.28,25.92,10.41,39.8C496.47,601.61,493.52,602.53,492.41,596.93Zm15.26,60.3c-1.44-6.69-2.78-13.4-5.54-19.7q-1.61-8.65-3.24-17.3c-.33-1.83-.47-3.7,1.81-4.25a3.66,3.66,0,0,1,4.45,1.92,28.54,28.54,0,0,1,1.87,4.94c2.31,8.81,4.69,17.6,6.77,26.47C515,654.68,514.38,655.3,507.67,657.23Zm13.58,53.59c-3.39-12.34-7.16-24.6-8.7-37.37,3.36-2.36,5.91-3.57,7.55,2.09,2.91,10.11,5.63,20.27,7.53,30.61C528.58,711.29,527.51,711.93,521.25,710.82Zm16.17,55.09c-4.22-12.8-8.06-25.7-9.41-39.19l.45.06.14-.44a5.83,5.83,0,0,1,5.35,2.24c2.45,8.73,4.93,17.46,7.33,26.21.62,2.26,1,4.57,1.44,6.89C543.53,766.27,540.74,766.45,537.42,765.91Zm69.67-376.42c0-2.22.48-4.23,3.32-4.06,2.62.16,2.17,2.36,2.19,4,.1,5.58,0,11.17,0,16.75h0c0,5.59,0,11.17,0,16.75,0,1.91-.28,3.45-2.78,3.45S607,425,607,423Q607.05,406.25,607.09,389.49ZM607,559.64a4.81,4.81,0,0,1,3.91-4.14,4.36,4.36,0,0,1,1.61,3.89c0,11.23,0,22.45-.12,33.68a9.49,9.49,0,0,1-1.6,5.78c-.24.34-.46.71-.67,1.07a10.52,10.52,0,0,1,1.37,3.71c.57,3.11-.4,5.75-1.45,8.34l.12.21c1.83,3.19,1.94,6,2,9,.24,10,.15,20.09.28,30.13,0,2.73-.35,4.77-3.78,4.34-2.19-4.15-1.17-8.63-1.18-13,0-7.9.51-15.81.6-23.72,0-2.51,1-4.75,1.94-7a12.88,12.88,0,0,1,.08-12.05,9.33,9.33,0,0,0-3.11-3Q607,578.3,607,559.64Zm3.49,265.46c-1.89,0-3.43-.68-3.37-3.07.22-11.54-.27-23.1.84-34.61.14-1.41.58-3,2.58-2.77,1.46.2,1.72,1.57,1.73,2.7.07,5.92,0,11.84,0,17.76h.32q0,8.45,0,16.88C612.63,823.54,612.5,825.11,610.48,825.1Zm1.28-100.31a8.44,8.44,0,0,0-.93.81c2.46,9.09.75,18.47,2.07,27.59-1.33,5,.94,10.53-2.47,17.37-4.7-13.16-1.39-25.2-2.85-36.78,1.15-2.69.72-5.63,3.25-8.18a31.53,31.53,0,0,0-1.26-3.69,8.78,8.78,0,0,1,1-8.66c-2.33-2.26-2.21-4.63-2.26-7.27-.19-11.17-.3-22.34-.44-33.5.46-1.07.91-2.13,1.36-3.2,2.1.36,2.87,1.59,2.86,3.71,0,11.85,0,23.71,0,35.57,0,1.43.12,2.94-1.08,4.13a5,5,0,0,0-.49.56c.16.16.34.31.52.47C614.58,716.62,614.52,722.69,611.76,724.79ZM599.68,541.62a33.19,33.19,0,1,1,33.19-33.19A33.19,33.19,0,0,1,599.68,541.62Zm201.15,342a15.29,15.29,0,0,1-1.69.48c-10.42,1.75-20.83,3.47-29.75,5-3.37.37-5.18.35-5.56-2a3.52,3.52,0,0,1,2.44-4.18,62.63,62.63,0,0,1,8.5-2.16c8.1-1.35,16.24-2.54,24.37-3.75,2-.29,4.4-1.08,4.8,2A4,4,0,0,1,800.83,883.58Zm56.78-5.38c-12.38.94-24.73,2.13-37.09,3.23-.93-2.3-.52-4.65-.23-7a230.15,230.15,0,0,1,37.06-3.28c2,0,4.36-.57,4.41,2.66C861.82,876.64,860.65,878,857.61,878.2Zm60.74-6.57c-.23,2.23-1.68,2.93-3.66,2.94H896.05v.77c-5,.3-10,.65-15.08.87-1.67.07-3.76.36-3.69-2.39,0-2.09,0-4.31,2.86-4.64A202.23,202.23,0,0,1,915.62,868C917.83,868.13,918.57,869.55,918.35,871.63Zm67.32.86q-24.27.1-48.55.19a19.15,19.15,0,0,1-2.78-.43c-1-4,1.73-7.32,1.74-11.08,0-4.85,3.31-4.73,6.78-4.17.41,2.79-1.4,6.49,1.21,8.22,3.21,2.13,7.4.86,11.18.82,1.79,0,2.34-1.35,2.64-2.91.4-2.13-.09-4.63,2.23-6.39,1.79,9.49,1.79,9.33,11.4,9.28,3.77,0,6.36-.36,5.8-5.09-.26-2.16.3-4.23,3.23-4.09,2.26.1,3,1.79,3,3.61C983.36,864.65,986.28,868.25,985.67,872.49ZM959.86,781.3a31.2,31.2,0,1,1,31.2-31.2A31.2,31.2,0,0,1,959.86,781.3Zm82.62,92.56c-.29,1.72-1.55,2.14-3.08,2.22l-20.53-1.27c-3.84-.16-7.71,0-11.53-.35-2.18-.22-5.76,1.69-5.87-3-.1-4.39,3.06-3.47,5.54-3.46,4.74,0,9.48.18,14.21.2l12.52.43,3.57.2c1.1.29,2.22.48,3.28.86C1042.57,870.43,1042.79,872.08,1042.48,873.86Zm56.91,4.53c-.3,2.75-2.56,3-4.68,2.79-11.19-1.07-22.36-2.14-33.52-3.43-3.29-.39-4.19-2.82-3.43-6.26,12.72-1.13,25.24.42,37.68,3.07C1097.55,875,1099.69,875.67,1099.39,878.39ZM1150.34,890c-1.79-1.78-4-1.41-6.25-1.34a2.41,2.41,0,0,0-2.52-.62c-1.9-1.71-4.14-1.31-6.37-1l-6.06-.79c-1.93-1.58-4.18-1.19-6.4-1l-2.9-.64a17.42,17.42,0,0,1-3-1.63c-1.57-1.31-1.34-3.14-.73-4.8s2.31-1.69,3.72-1.41c9.49,1.8,19.25,2.17,28.58,4.94,3.74,1.1,7.27,2.53,8.13,7C1154.78,890.62,1152.31,889.17,1150.34,890ZM1310,385.44c2.39,0,3,1.36,3,3.33,0,5.6,0,11.2,0,16.8h-.12c0,5.9,0,11.8,0,17.7,0,2.28-1.17,3.09-3.3,3-1.84-.1-2.45-1.17-2.45-2.85,0-11.49-.06-23,0-34.5C1307,387,1307.5,385.47,1310,385.44Zm.7,439.15c-2.63.13-3.37-1.55-4.13-3.41,1.45-8.53.41-17.13.8-25.69.08-1.77-.13-3.57.08-5.33.25-2.1-.82-5.4,3-5.1,2.92.23,2.32,2.93,2.34,4.91.08,8.6.09,17.18.19,25.78,0,1.76.31,3.52.48,5.28C1312.85,822.48,1313.23,824.46,1310.65,824.59Zm-.76-154.27c3-.15,2.64,2.59,2.67,4.57.07,5.6,0,11.22,0,16.82h.09c0,5.31,0,10.64,0,15.95,0,2,.24,4.53-2.87,4.34-2.45-.15-2.25-2.34-2.27-4q-.11-9.3-.07-18.6c0-4.72,0-9.45.19-14.17C1307.72,673.34,1306.89,670.47,1309.89,670.32Zm-2.19,59.43c0-1.56.5-3,2.39-2.92s2.44,1.42,2.45,3c0,6.17,0,12.35,0,18.51h.13c0,5.59,0,11.18,0,16.77,0,1.65-.53,3.07-2.21,3.26-2.33.28-2.89-1.45-2.89-3.38Q1307.62,747.4,1307.7,729.75Zm2-74.84c-1.89,0-2.28-1.49-2.27-3.07q.12-17.26.28-34.52c0-1.59.54-3.1,2.36-3.14,2.42-.06,2.58,1.81,2.57,3.66,0,5.61,0,11.21,0,16.83h0c0,5.61,0,11.21,0,16.82C1312.7,653.57,1311.9,655,1309.69,654.91Zm2.59-56.69c-1.51-.16-3-.31-4.55-.45l-.67-.54c-.11-12.15-.34-24.29-.26-36.44,0-5.48.31-5.48,6.26-2.93,0,10.55.09,21.11.09,31.67C1313.15,592.44,1313.54,595.41,1312.28,598.22Zm6.52-56.6A33.19,33.19,0,1,1,1352,508.43,33.18,33.18,0,0,1,1318.8,541.62ZM1382,765.71c-3,.58-5.41.1-5.18-3.73a34.51,34.51,0,0,1,.93-6.07c2.14-8.51,4.29-17,6.64-25.49,1.43-5.07,1.61-5,7-1.84A232.61,232.61,0,0,1,1382,765.71Zm30.32-113.81a10.73,10.73,0,0,1-2.37,3.67c-.77.77-2.07,1.5-3.2.7a3.36,3.36,0,0,1-1-2.22,10.91,10.91,0,0,1,.17-3.52c2.55-10.31,5.1-20.61,7.8-30.87.54-2.06.44-5.36,4-4.58,3.34.73,1.77,3.85,2.49,5.65C1418.2,631.48,1416.09,641.89,1412.36,651.9ZM1426.5,599c-.43,2.07-2.14,2.53-4.13,2.18s-3.26-1.34-2.87-3.55c.84-4.64,1.63-9.27,2.63-13.86,1.52-6.88,3.2-13.72,4.8-20.58a6.07,6.07,0,0,1,7.13-2.1C1434.21,574.24,1429.17,586.38,1426.5,599Zm22.81-87.55c-2.82,10.8-5.48,21.64-9.51,32.08-.63,1.62-1.44,3.63-3.59,2.91-2-.66-2-2.69-1.58-4.52,2.14-11,4.73-21.81,7.9-32.52.7-2.37,1.88-3.77,4.37-2.92C1449.16,507.25,1449.91,509.14,1449.31,511.44Z"/><path d="M610,612a12.88,12.88,0,0,1,.08-12.05,10.52,10.52,0,0,1,1.37,3.71C612.06,606.74,611.09,609.38,610,612Z"/><path d="M612.46,651.35c0,2.73-.35,4.77-3.78,4.34-2.19-4.15-1.17-8.63-1.18-13,0-7.9.51-15.81.6-23.72,0-2.51,1-4.75,1.94-7l.12.21c1.83,3.19,1.94,6,2,9C612.42,631.26,612.33,641.31,612.46,651.35Z"/><path d="M610.79,598.85c-.24.34-.46.71-.67,1.07a9.33,9.33,0,0,0-3.11-3q0-18.66,0-37.32a4.81,4.81,0,0,1,3.91-4.14,4.36,4.36,0,0,1,1.61,3.89c0,11.23,0,22.45-.12,33.68A9.49,9.49,0,0,1,610.79,598.85Z"/><path d="M611.76,724.79a8.44,8.44,0,0,0-.93.81,31.53,31.53,0,0,0-1.26-3.69,8.78,8.78,0,0,1,1-8.66c.16.16.34.31.52.47C614.58,716.62,614.52,722.69,611.76,724.79Z"/><path d="M611.07,712.69a5,5,0,0,0-.49.56c-2.33-2.26-2.21-4.63-2.26-7.27-.19-11.17-.3-22.34-.44-33.5.46-1.07.91-2.13,1.36-3.2,2.1.36,2.87,1.59,2.86,3.71,0,11.85,0,23.71,0,35.57C612.15,710,612.27,711.5,611.07,712.69Z"/><path d="M612.9,753.19c-1.33,5,.94,10.53-2.47,17.37-4.7-13.16-1.39-25.2-2.85-36.78,1.15-2.69.72-5.63,3.25-8.18C613.29,734.69,611.58,744.07,612.9,753.19Z"/><path d="M985.67,872.49q-24.27.1-48.55.19a19.15,19.15,0,0,1-2.78-.43c-1-4,1.73-7.32,1.74-11.08,0-4.85,3.31-4.73,6.78-4.17.41,2.79-1.4,6.49,1.21,8.22,3.21,2.13,7.4.86,11.18.82,1.79,0,2.34-1.35,2.64-2.91.4-2.13-.09-4.63,2.23-6.39,1.79,9.49,1.79,9.33,11.4,9.28,3.77,0,6.36-.36,5.8-5.09-.26-2.16.3-4.23,3.23-4.09,2.26.1,3,1.79,3,3.61C983.36,864.65,986.28,868.25,985.67,872.49Z"/><path d="M507.67,657.23c-1.44-6.69-2.78-13.4-5.54-19.7q-1.61-8.65-3.24-17.3c-.33-1.83-.47-3.7,1.81-4.25a3.66,3.66,0,0,1,4.45,1.92,28.54,28.54,0,0,1,1.87,4.94c2.31,8.81,4.69,17.6,6.77,26.47C515,654.68,514.38,655.3,507.67,657.23Z"/><path d="M500.09,600.48c-3.62,1.13-6.57,2-7.68-3.55-2.07-10.41-5.42-20.52-7.05-31-.6-3.87.09-5.77,4.32-5.2C494.07,573.71,499,586.6,500.09,600.48Z"/><path d="M800.83,883.58a15.29,15.29,0,0,1-1.69.48c-10.42,1.75-20.83,3.47-29.75,5-3.37.37-5.18.35-5.56-2a3.52,3.52,0,0,1,2.44-4.18,62.63,62.63,0,0,1,8.5-2.16c8.1-1.35,16.24-2.54,24.37-3.75,2-.29,4.4-1.08,4.8,2A4,4,0,0,1,800.83,883.58Z"/><path d="M485.16,543.26c-3.77,4.38-5,4.6-6.53.58-4.17-10.77-6.63-22-8.39-33.42-.26-1.71-.45-3.68,2-4.17s4,.15,4.64,2.75c1.1,4.24,2.48,8.41,3.59,12.66,1.61,6.17,3.07,12.39,4.6,18.6C485.09,541.26,485.13,542.27,485.16,543.26Z"/><path d="M521.25,710.82c-3.39-12.34-7.16-24.6-8.7-37.37,3.36-2.36,5.91-3.57,7.55,2.09,2.91,10.11,5.63,20.27,7.53,30.61C528.58,711.29,527.51,711.93,521.25,710.82Z"/><path d="M1434.06,561.08c.15,13.16-4.89,25.3-7.56,37.91-.43,2.07-2.14,2.53-4.13,2.18s-3.26-1.34-2.87-3.55c.84-4.64,1.63-9.27,2.63-13.86,1.52-6.88,3.2-13.72,4.8-20.58A6.07,6.07,0,0,1,1434.06,561.08Z"/><path d="M861.76,873.82c.06,2.82-1.11,4.15-4.15,4.38-12.38.94-24.73,2.13-37.09,3.23-.93-2.3-.52-4.65-.23-7a230.15,230.15,0,0,1,37.06-3.28C859.32,871.17,861.71,870.59,861.76,873.82Z"/><path d="M1042.48,873.86c-.29,1.72-1.55,2.14-3.08,2.22l-20.53-1.27c-3.84-.16-7.71,0-11.53-.35-2.18-.22-5.76,1.69-5.87-3-.1-4.39,3.06-3.47,5.54-3.46,4.74,0,9.48.18,14.21.2l12.52.43,3.57.2c1.1.29,2.22.48,3.28.86C1042.57,870.43,1042.79,872.08,1042.48,873.86Z"/><path d="M1420.3,620.73c-2.1,10.75-4.21,21.16-7.94,31.17a10.73,10.73,0,0,1-2.37,3.67c-.77.77-2.07,1.5-3.2.7a3.36,3.36,0,0,1-1-2.22,10.91,10.91,0,0,1,.17-3.52c2.55-10.31,5.1-20.61,7.8-30.87.54-2.06.44-5.36,4-4.58C1421.15,615.81,1419.58,618.93,1420.3,620.73Z"/><path d="M1449.31,511.44c-2.82,10.8-5.48,21.64-9.51,32.08-.63,1.62-1.44,3.63-3.59,2.91-2-.66-2-2.69-1.58-4.52,2.14-11,4.73-21.81,7.9-32.52.7-2.37,1.88-3.77,4.37-2.92C1449.16,507.25,1449.91,509.14,1449.31,511.44Z"/><path d="M1156.49,888.65c-1.71,2-4.18.52-6.15,1.35-1.79-1.78-4-1.41-6.25-1.34a2.41,2.41,0,0,0-2.52-.62c-1.9-1.71-4.14-1.31-6.37-1l-6.06-.79c-1.93-1.58-4.18-1.19-6.4-1l-2.9-.64a17.42,17.42,0,0,1-3-1.63c-1.57-1.31-1.34-3.14-.73-4.8s2.31-1.69,3.72-1.41c9.49,1.8,19.25,2.17,28.58,4.94C1152.1,882.74,1155.63,884.17,1156.49,888.65Z"/><path d="M1312.28,598.22c-1.51-.16-3-.31-4.55-.45l-.67-.54c-.11-12.15-.34-24.29-.26-36.44,0-5.48.31-5.48,6.26-2.93,0,10.55.09,21.11.09,31.67C1313.15,592.44,1313.54,595.41,1312.28,598.22Z"/><path d="M1407,679.75c-2.18.14-1.93,2.86-2.4,4.28-2.19,6.67-3.89,13.5-6,20.18-1.43,4.51-1.62,4.44-6.12,7.69-1.84-2.93,0-5.71.62-8.33,2.1-9.42,4.66-18.73,7-28.1.45-1.74.84-3.87,2.92-3.84,2.37,0,3.19,2.26,3.76,4.31C1407.05,677.1,1405.1,679.2,1407,679.75Z"/><path d="M1407,679.75a3.49,3.49,0,0,1,1.26.13A4.3,4.3,0,0,1,1407,679.75Z"/><path d="M1408.48,680l-.27-.07h.19Z"/><path d="M1391.42,728.58a232.61,232.61,0,0,1-9.38,37.13c-3,.58-5.41.1-5.18-3.73a34.51,34.51,0,0,1,.93-6.07c2.14-8.51,4.29-17,6.64-25.49C1385.86,725.35,1386,725.4,1391.42,728.58Z"/><path d="M1312.82,405.57c0,5.9,0,11.8,0,17.7,0,2.28-1.17,3.09-3.3,3-1.84-.1-2.45-1.17-2.45-2.85,0-11.49-.06-23,0-34.5,0-1.86.47-3.43,2.92-3.46s3,1.36,3,3.33c0,5.6,0,11.2,0,16.8Z"/><path d="M1312.69,651.49c0,2.08-.79,3.47-3,3.42-1.89,0-2.28-1.49-2.27-3.07q.12-17.26.28-34.52c0-1.59.54-3.1,2.36-3.14,2.42-.06,2.58,1.81,2.57,3.66,0,5.61,0,11.21,0,16.83h0C1312.68,640.28,1312.66,645.88,1312.69,651.49Z"/><path d="M612.63,822c0,1.55-.13,3.12-2.15,3.11s-3.43-.68-3.37-3.07c.22-11.54-.27-23.1.84-34.61.14-1.41.58-3,2.58-2.77,1.46.2,1.72,1.57,1.73,2.7.07,5.92,0,11.84,0,17.76h.32Q612.62,813.56,612.63,822Z"/><path d="M537.42,765.91c-4.22-12.8-8.06-25.7-9.41-39.19l.45.06.14-.44a5.83,5.83,0,0,1,5.35,2.24c2.45,8.73,4.93,17.46,7.33,26.21.62,2.26,1,4.57,1.44,6.89C543.53,766.27,540.74,766.45,537.42,765.91Z"/><path d="M612.68,406.15c0,5.59,0,11.17,0,16.75,0,1.91-.28,3.45-2.78,3.45S607,425,607,423q.06-16.74.1-33.5c0-2.22.48-4.23,3.32-4.06,2.62.16,2.17,2.36,2.19,4,.1,5.58,0,11.17,0,16.75Z"/><path d="M1313.41,821c-.56,1.45-.18,3.43-2.76,3.56s-3.37-1.55-4.13-3.41c1.45-8.53.41-17.13.8-25.69.08-1.77-.13-3.57.08-5.33.25-2.1-.82-5.4,3-5.1,2.92.23,2.32,2.93,2.34,4.91.08,8.6.09,17.18.19,25.78C1313,817.51,1313.24,819.27,1313.41,821Z"/><path d="M1312.66,707.66c0,2,.24,4.53-2.87,4.34-2.45-.15-2.25-2.34-2.27-4q-.11-9.3-.07-18.6c0-4.72,0-9.45.19-14.17.08-1.85-.75-4.72,2.25-4.87s2.64,2.59,2.67,4.57c.07,5.6,0,11.22,0,16.82h.09C1312.67,697,1312.71,702.35,1312.66,707.66Z"/><path d="M1312.69,765.14c0,1.65-.53,3.07-2.21,3.26-2.33.28-2.89-1.45-2.89-3.38q0-17.62.11-35.27c0-1.56.5-3,2.39-2.92s2.44,1.42,2.45,3c0,6.17,0,12.35,0,18.51h.13C1312.68,754,1312.66,759.55,1312.69,765.14Z"/><path d="M977.13,350a22.85,22.85,0,0,0-2.85-.47c-11.65.33-11.65.33-14.27,11-3.5-2.66-1.34-6.8-3.13-10.46H942.63q0,15.93,0,31.8c0,1.85-.26,3.68-2.72,3.57a3.5,3.5,0,0,1-3.62-3.22,42.71,42.71,0,0,1-.19-5.31c0-6.81.11-13.62,0-20.43-.09-8.13,1.84-8.59-7.89-10.56-.86-.17-1.69-.52-2.54-.77-2.39-.69-4.81-1.57-4-4.71s3.48-1.48,5.16-1.15a178.76,178.76,0,0,0,27.27,3.49c12.21.49,24.19-1.26,36.19-3.12,2.63-.41,6.7-2.64,7.71,1.15,1.28,4.81-4,4.24-6.62,5.1-7.46,2.41-7.56,2.19-7.62,9.87-.06,7.1,0,14.21,0,21.32a42.48,42.48,0,0,1-.4,6.18,2.7,2.7,0,0,1-2.45,2.21,2.81,2.81,0,0,1-3.28-2.29,30.18,30.18,0,0,1-.5-6.17C977.1,368.21,977.13,359.36,977.13,350Z"/><path d="M1259.39,324.94q-16.87-3.27-33.75-6.56c-1.85-.37-3.45-1.17-2.62-3.55.59-1.66,1.15-3.46,3.43-3.4a15.35,15.35,0,0,1,2.61.38c10.39,2,20.77,4.1,31.18,6,2.44.45,3.75,1.47,3.53,4C1263.53,324.59,1261.75,325.11,1259.39,324.94Z"/><path d="M585.33,338.4a2.57,2.57,0,0,1-1.77,2.7c-11,5-22.61,8.45-34,12.4-2.09.72-3.4-.25-4.21-2.08-.91-2.09.25-3.53,1.92-4.32a144.76,144.76,0,0,1,33.37-11.35C582.67,335.34,584.86,335.57,585.33,338.4Z"/><path d="M1370.3,353.42c-5-1.81-10-3.68-15-5.35q-8.8-2.94-17.69-5.55c-2.78-.81-4-2.41-3.28-5.19s3.11-2.25,5-1.79A170.55,170.55,0,0,1,1371,346.41a7.87,7.87,0,0,1,1.52.87c1.44,1.13,2.76,2.48,2.15,4.45C1374,354,1371.92,353.24,1370.3,353.42Z"/><path d="M661.08,325c-2.59-.1-5.12.66-5.51-2.31-.37-2.81,1.36-4.27,4-4.78,10.09-1.94,20.18-3.91,30.27-5.82a15.81,15.81,0,0,1,3.51-.11,2.79,2.79,0,0,1,3,2.63c.17,1.68-.81,2.69-2.35,3.2q-.4.15-.84.27C682.37,320.92,671.55,323.6,661.08,325Z"/><path d="M1419.53,383.59c-.43,1.85-1.4,2.91-3.11,2.13a18.1,18.1,0,0,1-4.38-2.87c-6.67-5.78-13.45-11.4-20.66-16.5a15.27,15.27,0,0,1-3.65-3.7,3.64,3.64,0,0,1,.66-4.84c1.13-1.06,2.69-.8,4.07.07a113.85,113.85,0,0,1,26.14,23.45A8,8,0,0,1,1419.53,383.59Z"/><path d="M796.64,297.81c2.39,0,5.34,0,8.29,0,1.93,0,3.54.35,3.89,2.61.42,2.74-1.4,3.62-3.55,4.13a19.21,19.21,0,0,1-2.64.29c-9.68.9-19.37,1.78-29,2.71-2.36.23-4.82,1-5.27-2.68-.48-3.87,2.07-4.39,4.87-4.68C780.8,299.39,788.43,298.64,796.64,297.81Z"/><path d="M715.93,314.61c-2.14.31-4.3.73-4.24-2.56,0-2.51.48-4.57,3.69-4.93,11.1-1.24,22.17-2.65,33.26-3.94,1.74-.2,3.68-.37,4,2.14.27,2.11-.85,3.23-2.83,3.73C738.66,311.85,727.3,313.25,715.93,314.61Z"/><path d="M1023.34,325.07a3.63,3.63,0,0,0-2.56,2.71c-2,1.26-3.9,2.58-5.92,3.74a2.4,2.4,0,0,1-3.15-.63c-.86-1-1.39-2.48-.5-3.15,8.53-6.46,9.95-17.95,17.76-24.88,2.16-1.92,4.5-5.06,7.39-2.66,3.71,3.09.15,5.76-1.9,8C1029.84,313.25,1027.23,319.57,1023.34,325.07Z"/><path d="M846.76,294.65c5,0,10,.05,15,0,2.11,0,3.33.73,3.61,2.86.37,2.74-1.13,3.7-3.56,3.81-10.6.46-21.19,1-31.79,1.37-2.69.1-4.51-1-4.39-4.14.12-3,2.22-3.11,4.32-3.14,5.59-.06,11.19,0,16.78,0Z"/><path d="M1124,297.92c7.4-.2,14.59,1.7,21.92,2.23,2.35.17,5,.45,5,3.69.07,3.51-2.61,3.45-5,3.27-10.84-.83-21.67-1.75-32.5-2.69-1.8-.16-3.55-.56-3.35-3.05a3.32,3.32,0,0,1,3.31-3.4C1117,297.81,1120.49,297.92,1124,297.92Z"/><path d="M1174.53,303.33c9.66,1.31,19.31,2.66,29,3.9,2.56.32,3.68,1.72,3.61,4.09-.07,2.86-2.15,3.18-4.37,3a302.38,302.38,0,0,1-32.36-4.95c-1.87-.39-3.32-1-3.17-3.38.15-2.57,2-2.54,3.75-2.56,1.18,0,2.36.1,3.54.16Z"/><path d="M502.56,385.55c-2,.12-2.61-1-2.27-2.71.42-2.11,1.77-3.69,3.15-5.24,6.14-6.88,13.31-12.56,20.79-17.87a17.19,17.19,0,0,1,3.94-1.94,3.34,3.34,0,0,1,4,1.13,2.7,2.7,0,0,1-.38,4c-9.68,6.77-18.16,15-27.51,22.19A4.9,4.9,0,0,1,502.56,385.55Z"/><path d="M1071.27,294.48c7.73.53,13.61,1,19.49,1.32,2,.13,3.38.69,3.33,3,0,2.13-1.1,3.43-3.16,3.42-5.59,0-11.18-.21-16.77-.38-5-.14-10-.23-15-.57-2.44-.17-5.77.52-5.87-3.56-.11-4.44,3.38-3.14,5.71-3.22C1063.69,294.35,1068.4,294.48,1071.27,294.48Z"/><path d="M904.18,331.74c1.46.3,3.08.58,4.19-.56,1.33-1.37.32-2.86-.64-3.86-6-6.22-10.32-13.57-14.5-21-1.47-2.64-4-4.33-6.27-6.13-1.71-1.33-3.32-.88-4.57.74-1.09,1.43-2.08,3-.44,4.68,1,1.07,2.2,2,3.16,3.09Z"/><path d="M1099.39,878.39c-.3,2.75-2.56,3-4.68,2.79-11.19-1.07-22.36-2.14-33.52-3.43-3.29-.39-4.19-2.82-3.43-6.26,12.72-1.13,25.24.42,37.68,3.07C1097.55,875,1099.69,875.67,1099.39,878.39Z"/><path d="M918.35,871.63c-.23,2.23-1.68,2.93-3.66,2.94H896.05v.77c-5,.3-10,.65-15.08.87-1.67.07-3.76.36-3.69-2.39,0-2.09,0-4.31,2.86-4.64A202.23,202.23,0,0,1,915.62,868C917.83,868.13,918.57,869.55,918.35,871.63Z"/><path d="M599.68,544.73a36.3,36.3,0,1,1,36.3-36.3A36.34,36.34,0,0,1,599.68,544.73Zm0-66.37a30.07,30.07,0,1,0,30.07,30.07A30.1,30.1,0,0,0,599.68,478.36Z"/><path d="M1318.8,544.73a36.3,36.3,0,1,1,36.3-36.3A36.34,36.34,0,0,1,1318.8,544.73Zm0-66.37a30.07,30.07,0,1,0,30.07,30.07A30.1,30.1,0,0,0,1318.8,478.36Z"/><path d="M959.86,784.41a34.32,34.32,0,1,1,34.32-34.31A34.36,34.36,0,0,1,959.86,784.41Zm0-62.4A28.09,28.09,0,1,0,988,750.1,28.12,28.12,0,0,0,959.86,722Z"/><rect class="cls-1" width="1" height="1"/><rect class="cls-1" x="1919" y="1079" width="1" height="1"/><rect class="cls-1" y="1079" width="1" height="1"/><rect class="cls-1" x="1919" width="1" height="1"/></g><g id="Capa_3" data-name="Capa 3"><path d="M810.59,497.28v111H790.77V537.57l-19.51,14.91L755.08,565,738.9,552.48l-19.51-14.91v70.74H699.56v-111l19.83,15.23L755.08,540l35.69-27.44Z"/><path d="M864.52,534.24v75.5H844.69V532.18a15.83,15.83,0,0,0-13.48-13.49h-4.44V499h4.28v.15a35.55,35.55,0,0,1,13.48,3.65,35.17,35.17,0,0,1,16,16.18,42.36,42.36,0,0,1,2.7,7.46,33.41,33.41,0,0,1,1,8.09Z"/><path d="M990.93,530.91a32.67,32.67,0,0,1-9.2,22.84,32.75,32.75,0,0,1-23.47,55.51h-78.2V589.44h78.2a13.07,13.07,0,0,0,13-13,12.92,12.92,0,0,0-12.21-13H900V543.6h59a13,13,0,0,0-.64-26H880.22V497.76h78.19a32.63,32.63,0,0,1,32.68,32.67Z"/><path d="M1077.05,497.28a35.81,35.81,0,0,1,35.85,35.85v39.18a35.81,35.81,0,0,1-35.85,35.84h-34.26a35.82,35.82,0,0,1-35.85-35.84V533.13a35.82,35.82,0,0,1,35.85-35.85Zm-34.26,19.83a16.25,16.25,0,0,0-16.18,16.18v39.17a16.25,16.25,0,0,0,16.18,16.18h34.26a16.24,16.24,0,0,0,16.18-16.18V533.29a16.24,16.24,0,0,0-16.18-16.18Z"/><path d="M1216.79,517a34.47,34.47,0,0,1,3.65,15.54v75.66h-19.83V530.59a15.81,15.81,0,0,0-13.48-13.48h-58.22V497.28h56.31a34.51,34.51,0,0,1,15.55,3.65,35.17,35.17,0,0,1,16,16.18Z"/></g></g></svg>