<svg xmlns="http://www.w3.org/2000/svg" viewBox="0 0 1920 1080"><defs><style>.cls-1{fill:#010101;}.cls-2{fill:#f2f2f2;}</style></defs><g id="Capa_2" data-name="Capa 2"><g id="Capa_1-2" data-name="Capa 1"><path class="cls-1" d="M1706.79,501.68c-3.49-21.7-6.79-43.42-10.27-65.11-3.35-20.83-16.6-32.31-37.66-32.71-7-.13-14.12-.13-21.17-.06a20.29,20.29,0,0,1-11.9-3.66c-6.2-4.15-10.43-9.5-10.82-17.2-.32-6.31-3.26-9.95-9.34-12.32-14.67-5.75-29-12.31-43.58-18.34-68.71-28.44-138.28-54.54-210.21-73.64a1774,1774,0,0,0-239.59-46.3,1358.38,1358.38,0,0,0-137.58-9.86H961.39c-8.41,0-69,1.3-69,1.3-8.09.32-14.51,1.21-20.91,1.76q-59,5.11-117.57,14.15c-44.84,7-89.27,16.09-133.57,25.92C531.48,285.32,446.27,316,362.25,350.33c-15.89,6.5-31.64,13.35-47.47,20-5.77,2.43-9.29,5.66-9.92,12.93-1,11.74-12.1,20.34-24.19,20.53-7.05.12-14.11-.07-21.17.11-19.13.5-31.39,10.14-35.2,29-3.39,16.83-5.61,33.9-8.35,50.87-1.25,7.79-2.44,15.58-3.77,23.36l-7.55,51.46c-2.19,17.12,6,27.85,23.22,30.42,2.21.33,4.43.63,6.64,1q30.54-.25,61.09-.47c2.21,0,4.43.32,6.64.5,7.68-1.56,14.32.61,20.52,5.25a153.63,153.63,0,0,0,17.5,11.8c8.09,4.48,12.94,11.2,16.88,19.28,13.68,28.07,27.69,56,41.61,83.94,17.43,35,35,70,52.31,105.06a76.84,76.84,0,0,0,31.27,33.41l6.33,3.12c6.34,3.12,28.52,5.23,28.52,5.23q135.44,0,270.88,0c7.36,0,14.81,0,21.88-1.8,27.66-7.06,55.77-11.28,84.14-14,21-2,42.08-2.94,63.44-3.08l11.24,0c16.37.26,32.7,1.16,49,2.46,23.37,1.85,46.58,4.57,69.45,9.72,18.18,4.1,36.29,7.25,55.16,7.14,83.57-.49,167.15-.27,250.73-.31,3.38,0,6.77,0,10.16-.12,30.36-1.11,52.51-15,66-42.4,2.61-5.31,5.25-10.61,7.63-16,1.5-3.43,3.29-3.6,6.54-2.09,8.94,4.13,18,8.09,27.14,11.7,6.28,2.48,7.14,2,9.94-3.65q17-34.5,33.78-69.11c2.61-5.4,2.43-6.18-2.63-9.72-7.87-5.49-15.77-10.92-23.93-16-4-2.5-4.3-4.82-2.27-8.85q20.4-40.4,40.38-81a22,22,0,0,1,7.65-8.8c8.41-5.68,16.72-11.5,25.22-17,3-1.94,5.82-4.65,9.92-4.07,3.27-1.32,6.69-.7,10-.7,17.79,0,35.57,0,53.36.15a246.14,246.14,0,0,0,26.19-1.13c10.37-5.09,17.77-12.09,17.5-24.66ZM955.93,823.86a23.86,23.86,0,0,1-2.54.11c-25.38.91-50.72,2.5-76,5.15C855,831.47,832.87,836,811,841.22a104.9,104.9,0,0,1-24.31,2.86c-70.3.12-140.59.33-210.89-.4-18.35-.2-36.7,0-55-.15-6.2,0-12.41-.32-18.48-1.88-18.07-4.63-30.91-15.58-39.14-32.22q-21.72-44-43.56-87.88C402,686.2,384.34,650.9,366.93,615.49a42.82,42.82,0,0,0-16-18.08c-8.13-5.08-16.19-10.29-24-15.78a30.13,30.13,0,0,0-18.18-5.55c-23.44.14-46.87,0-70.3-.1a67.31,67.31,0,0,1-11.78-1c-6.09-1.15-9.17-5.13-9.17-11.28a43.62,43.62,0,0,1,.58-6.75q8.17-53,16.43-106.07c.52-3.33,1.33-6.61,2-9.91.16-1.14.33-2.28.49-3.42-.46-.91,0-1.47.72-1.92,2.58-11.65,8.19-16.95,20.06-17.94,7-.6,14.07-.29,21.11-.37,20.8-.21,33.36-10,38.86-30.37.66-2.4,1.71-4.1,4-5l33.48-13.68c25.82-11.86,52.38-21.9,79-31.82,47.22-17.6,94.93-33.78,143.72-46.6,33.51-8.81,67.34-16.22,101.27-23.16q59.66-12.19,120.06-19.94C835,242.1,871,238.59,907.06,237c13.81-.6,27.64-1.08,41.45-1.58,2.25-.09,4.52,0,6.76.09a2.44,2.44,0,0,1,2.6,2.63c0,1.57-.61,2.75-2.34,2.92-1.12.11-2.25.11-3.38.17-22.82,1.16-45.66,2-68.46,3.56-29.53,2-59,4.67-88.47,7.71-28.6,2.94-57.11,6.51-85.49,11A809.94,809.94,0,0,0,617.54,284c-83.43,23.52-165.3,51.8-246.93,80.79-4.22,1.5-8.33,3.32-12.48,5-11.95,8.66-18.29,20.2-17.87,35.78-6.05-1.46-9.89,1.83-12.3,6.41-5.57,10.62-14,13.5-25.61,12.42-11.15-1-22.48-.24-33.73-.16-12.8.09-22.83,5-28.69,16.9-2.15,7.41-2.14,15-2.15,22.64q-.06,40.23-.17,80.45a61.1,61.1,0,0,0,.25,6.77c1.19,10.73,8.65,18.3,19.5,18.6,16.36.46,32.74.3,49.11.29a102.4,102.4,0,0,1,19.4,1.36c15.44,2.94,28.12,10.47,36.12,24.12,7.25,12.38,13.5,25.37,20.08,38.14,3.68,7.15,7.42,14.09,16.57,15.32.87.12,2.58.41,1.36,2-2.37,3,.08,5.42,1,7.8,3.35,8.37,6.8,16.71,11.38,24.51,1,1.66,2.24,3.83,4.46,2.79,2.49-1.16,3.54-3.44,2-6.27-5.3-9.79-9.43-20.21-15.93-29.94,2.18-1.1,4.41-.64,6.51-.66,30.21-.17,60.41-.26,90.62.07,34.6.38,60.25,33.09,52.23,67.71-3.88,16.71-8.85,33.19-13.83,49.63-5.78,19.1-3.7,36.72,8.2,53,.79,1.08,2,2.09,1.19,4.25H533.1c-4.23,0-8.46,0-12.7.1-1.84.06-4.25-.44-4.43,2.53s2.21,2.74,4.08,2.88a218.3,218.3,0,0,0,30.47.51c4.45-.27,8.29.3,12,2.85,6.7,4.65,14.32,6.54,22.36,6.65,18.92.26,37.83.54,56.74.54,40.65,0,81.31-.51,122-.12,19,.17,37.6-1.45,56.13-6,26.06-6.41,52.79-8.93,79.46-11.55,15.73-1.55,31.52-2.23,47.31-3,3.1-.14,6.21-.17,9.31-.13,1.76,0,2.33,1.22,2.28,2.81A2.07,2.07,0,0,1,955.93,823.86ZM335.51,416.28a20.72,20.72,0,0,1-1.87,2.46c-.14-.44-.53-1-.38-1.3a25.36,25.36,0,0,1,1.86-2.57C335.26,415.35,335.68,416,335.51,416.28ZM953.07,804.73c-1.67.24-3.81.44-3.85,2.52-.11,5.31-3.89,4.55-7.18,4.7-2.24.1-4.5.11-6.75.14-1.21,0-2.5-.38-2.26-1.72,1-5.85-3-4.86-6.28-4.73q-13.1.52-26.17,1.24c-7.1.37-7.1.42-5.61,8.47h-6.78c-4.39,2.49-9.35,1.38-14,2.13-11,1.77-22.15,3-33.22,4.49-23.65,4.87-46.8,12.09-71.42,11.93-59.25-.38-118.53.21-177.79-.65-4.43-.06-8.87-.26-13.77-2,4.85-2.51,9.43-1.52,13.82-1.76,5.35-.3,10.72-.22,16.08-.38a2.22,2.22,0,0,0,2.46-1.79,2.32,2.32,0,0,0-2.34-2.84c-4.77-.42-9.55-.64-14.33-.95-5.62.13-11.24.22-16.87.42-1.91.06-4.56-.85-5.55,1-2.7,5.06-5.42,2.24-7.93.27-11.45-9-19.72-19.95-20.42-35.22-1.59-7.75.42-15.1,2.5-22.44l15.28-53.87c-.52-.87-.17-1.47.62-1.92-.25-6.18.11-12.33-1.12-18.52-5.74-29-29.94-50.1-59.44-50.59-30.46-.51-60.92-.23-91.38-.28-2.26,0-4.51.1-6.77,0-7.17-.2-7.2-.21-6.79-7.77.11-2.11-.93-3.76-1.77-5.54-3.46-7.32-6.85-14.68-10.27-22-1.91-2.84-2.79-6.58-7.93-5.45-4,.87-4.73-3.43-5.75-6-.87-2.2-5.08-5,.18-7.39,2.13-1,1.26-2.76.53-4.27q-6.34-13.1-12.76-26.17a9.8,9.8,0,0,0-1.95-2.72,3.31,3.31,0,0,0-3.83-.89c-1.62.77-1.4,2.23-1.11,3.62,1.22,5.56,4,10.49,6.24,15.64.87,2,2.87,3.48,2.7,6-1.7,1.33-2.49-.43-3.28-1.17-11.38-10.5-25.1-14.74-40.22-14.91-16.35-.21-32.7-.12-49.05-.17-2.53,0-5.07.05-7.61-.09-9.79-.52-14.56-4.92-15-14.6-.34-7.59,0-15.2,0-22.8-.39-25.41-.82-50.82.34-76.23a1.53,1.53,0,0,1,.77-2.18c.66-8.28,6.5-12.05,13.24-14.68a26.13,26.13,0,0,1,9.09-1.55c14.07-.16,28.14,0,42.2-.09,2.93,0,5.09.17,4.06,4.06-.47,1.74.07,3.58,1.93,4.15,2.1.63,4.26-.22,4.8-2.34,1.27-5.15,5.3-6.5,9.49-8.39,10.14-4.57,15.11-13.11,16.2-23.89.39-3.92,1.25-5.73,5.61-7.27,10-3.52,18.69-10.18,28.63-14.13,2-.82,3.15-2.51,2.21-4.77-1.07-2.55-3.24-1.88-5-1.17a137.35,137.35,0,0,0-25.36,13.08L348.75,395c-.66-3.34.9-5,2.51-6.69,3.29-7.81,9.49-12.46,17.15-15.23,19-6.9,38.1-13.75,57.25-20.33,42.85-14.73,85.71-29.42,129-42.7,41.19-12.63,82.34-25.42,124.55-34.31,26.79-5.64,53.93-9.09,81.07-12.45,40.32-5,80.8-8.52,121.29-11.71,21.09-1.66,42.24-2.69,63.36-4,2.81-.17,5.64-.12,8.46-.17,2.26,0,4.79-.46,4.66,3.08-.13,3.1-2.49,2.41-4.33,2.42-7.06,0-14.11,0-21.17,0-1.7,0-3.39,0-5.09.08-2.14.07-3,1.46-2.92,3.34,0,1.67,1.17,2.46,2.76,2.48l66.35,0c1.41-.23,2.81-1.08,2.46-2.78a3.68,3.68,0,0,0-1.93-2.47,23.46,23.46,0,0,0-5.87-.59q-11-.12-22-.09c-2.12,0-4-.12-4-3s1.73-3.12,4-3c8.46.41,17,.46,25.38,1.14,39.92,3.29,79.93,5.61,119.78,9.9,52.14,5.63,104.36,10.79,155.38,23.65,39.86,10,79.16,22.14,118.35,34.56,53.4,16.9,106.2,35.62,159.15,53.88,10,3.46,19.4,7.87,24.5,18a18.27,18.27,0,0,1,.94,2.35c.06.18-.15.45-.58,1.52-7.19-4.88-14.36-9.57-22.35-12.69-2.36-.92-4.69-1.88-7.09-2.71-1.09-.38-2.53-.34-3.06.67-.44.84-.16,2.15,0,3.23.28,1.91,1.79,2.69,3.39,3.39,9.91,4.39,18.67,11.47,29.85,12.94,1.74.23,2.33,1.39,2.49,2.83.2,1.68.1,3.39.3,5.07,1.39,11.61,7.3,19.94,18.22,24.39,3.44,1.4,6.93,2.28,7.46,6.89a3.43,3.43,0,0,0,4.16,3.24c2.9-.45,2-2.85,2.26-4.69.14-1.05.28-2.1.47-3.66,16.31,0,32.39-.34,48.44.11,11.31.33,18.69,7.28,21.07,18.46a35.6,35.6,0,0,1,1,7.52q-.06,33-.32,66.05a12.77,12.77,0,0,1-.51,2.47c1.13,8.42.51,16.85-.32,25.22-.78,7.72-6.11,12-14.63,12.18-15.21.25-30.43.14-45.64.25-5.63,0-11.27.11-16.89.48-14,.94-26.18,6.13-36.18,16.12-.79.79-1.67,1.51-2.52,2.24a7.45,7.45,0,0,1-1.48.48c3.83-9.76,10.49-17.68,12.72-27.86-3.79-1.29-6.45-1-8.26,3-3.49,7.66-7.3,15.18-11,22.76-1.44,3-3.76,6,.49,8.75.64.41,1.22,1.46.42,2.18-3.59,3.17-2.2,11.41-10.32,10-2-.33-3,1.44-3.69,3-1,2.29-1.73,4.71-3.54,6.57-2.14,4.89-4.29,9.77-6.4,14.67-1.55,3.62-3.36,7.23-2.4,11.36.81,3.41-1.08,4.73-4,5s-5.65.21-8.47.21q-47,.16-94,.28a59,59,0,0,0-27.56,7.15c-24,12.62-36.84,40.81-30.92,67.3,4.36,19.53,10.52,38.57,16,57.8,5,17.6-4.18,40.75-21.3,51.19-2.37,1.44-4.32,2.91-5.86-.83-.68-1.66-2.36-1.31-3.69-1.32q-15.66-.24-31.33-.33c-1.6,0-3.61-.33-3.59,2.27,0,2.23.81,3.77,3.45,3.73,6.21-.11,12.42-.24,18.63-.11,2.64.06,5.56-1.09,8,1.09-1.15,2.46-3.34,1.74-5.1,2-9.56,1.16-19.16.64-28.76.66q-68.58.1-137.17.49c-17.77.07-35.53.21-53.14-2.86a13.37,13.37,0,0,1-4.44-2,137.18,137.18,0,0,1-22-4.81c-4.15.33-7.9-1.58-11.91-2.12-14.8-1.39-29.43-4.27-44.3-5.12a26.43,26.43,0,0,1-4.86-1.17h-5.72c-.72-2.9,1.61-4.5,1.84-6.42-.61-.73-.93-1.45-1.28-1.46-11.52-.63-23-1.15-34.56-1.77-3.23-.17-4.94.77-3.85,4.34.16.54.39,1.46.16,1.63-3.12,2.25-6.48.41-9.75.42-2.06,0-4.74.45-4.53-3.13.19-3.38-1.93-4.22-4.8-4.44A60.75,60.75,0,0,0,953.07,804.73Zm630.54-392.12c2.48,1.17,3.65,3.22,4.65,5.46C1585.1,416.83,1585.1,416.83,1583.61,412.61Zm-39.48,316.06c3.35,2.05,4,4,2.21,7.52-6,12.11-11.75,24.36-17.68,36.51-4.2,8.61-8.67,17.1-12.75,25.77-1.55,3.3-3,3.83-6.42,2.26-16.39-7.44-33-14.53-49.88-21.92,3.58-7.62,7.32-15.18,10.66-22.9,1.08-2.5,4.47-6,.54-8.06-4.39-2.27-5.47,2.69-7,5.34-3.31,5.9-6.41,11.93-9.18,18.09-1.69,3.76-3.74,4.19-7.3,2.65-11.63-5-23.44-9.62-35-14.74-20.46-9-31.12-27.08-29-48.62A50.84,50.84,0,0,1,1421,666.52c10.56-2.67,20.86-1.9,30.43,3.17,15.44,8.19,29.92,18,44.59,27.48.37.23.52.78.73,1.22,9.7,4.4,17.88,11.29,26.87,16.85C1530.55,719.55,1537.16,724.4,1544.13,728.67ZM1693.49,575c-3.25,1.14-6.65,1.09-10,1.1-23.44,0-46.87.31-70.29,0a36.87,36.87,0,0,0-23.57,7.43c-7.46,5.54-15.33,10.54-23.13,15.61a34.89,34.89,0,0,0-12.54,14.5q-19,38.72-38.17,77.32c-1.22,2.48-1.8,5.37-4.77,7.46-11-7-22.14-14-33.3-21-7.14-4.51-14.14-9.28-21.74-13-22.76-11.2-50.07-5.67-66.1,13.44-16.62,19.8-18,50.1-3.31,70a51.52,51.52,0,0,0,21.87,16.81q24.09,10.23,48.19,20.47c2.06.88,4,2,6.15,2.78,2.73,1,3.43,2.35,2.09,5.06-5.58,11.37-10.34,23.18-19.4,32.51-10,10.35-22,16.39-36.49,17.42-4.78.34-9.57.75-14.36.77q-127.45.28-254.91.56a161.38,161.38,0,0,1-41.78-5.45c-19.67-5.17-39.84-7.4-60-9.71-23-2.66-46.16-3.13-69.24-4.71a38.5,38.5,0,0,1-5-.43c-1.63-.33-2-1.69-1.89-3.24s1.32-1.77,2.41-1.76c7.33.06,14.69-.06,22,.36,33,1.94,65.79,5.26,98.28,11.31,8.31,1.54,16.65,3,24.8,5.22A130.26,130.26,0,0,0,1143.5,840q88.93-.12,177.86-.28c8.16,0,16.36,0,24.39-2.09,3.31-.88,6.67-1.74,9.34-3.78,5-3.79,10.12-5,16.47-4.36,8.1.79,16.35.19,24.53.15,1.69,0,3.39-.16,5.07-.32,1.87-.18,3.39-1,3.09-3.12-.21-1.5-1.41-2.26-3-2.28-4.52,0-9-.22-13.55-.26-5.32,0-10.63,0-15.79,0-1.52-2.68.63-3.94,1.65-5.39,10.57-15,13.52-31.22,8.37-49-4.94-17-9.88-34.08-14.25-51.27-8.8-34.62,14.88-66.52,50.62-68.76,13.55-.84,27.09-.25,40.64-.28,18.61,0,37.22,0,56.66,0-4,8.55-7.74,16.59-11.45,24.65-1.17,2.56-2.22,5.18-3.25,7.81-.61,1.55.24,2.77,1.4,3.63,1.58,1.2,2.83.07,3.38-1.19,4.75-10.94,13.87-20,14.62-32.62.14-2.47,1.58-2.87,3-3.05,5.78-.75,8.8-4.71,11.23-9.31,6.33-12,12.73-23.87,18.79-36,11.3-22.56,29.83-32.89,54.64-32.94,17.5,0,35-.64,52.49,0,12.9.5,21.08-9.86,21.7-20.11.15-2.26.26-4.51.24-6.77-.28-29.63-.46-59.27-.91-88.9-.3-18.78-10.54-29.23-29.4-29.78-15-.43-29.94-.4-44.89-.05-5.48.13-9.07-1.42-11.61-6.29a66.72,66.72,0,0,0-5.8-8.32c-2.37-3.21-4.35-8.41-8.82-.51-2.08-5.72-1.16-10.25-2.29-14.56-3.66-13.83-11.68-23.44-25.27-28.37q-56.75-20.59-114.06-39.55c-48.88-16.23-97.82-32.21-147.59-45.58a832,832,0,0,0-94.13-19.6c-49.12-7.26-98.49-12-148-15.63-27-2-54-4.05-81.11-4.94a24.39,24.39,0,0,1-4.19-.28c-1.77-.36-1.86-1.92-1.72-3.32a2.13,2.13,0,0,1,2.14-2.13c1.69,0,3.38.07,5.08.12,47.13,1.33,94.1,4.43,140.93,10.26a1838.45,1838.45,0,0,1,224.94,42.57c60.39,15.32,119,36,177,58.62C1540,357.5,1567,368.79,1594,380.13c4.79,2,7.47,4.73,9,9.95,5,17.52,18.09,27,36.34,27.19,6.21.07,12.42-.07,18.64.06,15.62.32,22.79,6.36,25.22,21.56q9.72,60.93,19.26,121.88C1703.51,567.63,1700.34,572.56,1693.49,575Z"/><path class="cls-2" d="M1675.51,523.12q.21-33,.32-66.05a35.6,35.6,0,0,0-1-7.52c-2.38-11.18-9.76-18.13-21.07-18.46-16-.45-32.13-.11-48.44-.11-.19,1.56-.33,2.61-.47,3.66-.22,1.84.64,4.24-2.26,4.69a3.43,3.43,0,0,1-4.16-3.24c-.53-4.61-4-5.49-7.46-6.89-10.92-4.45-16.83-12.78-18.22-24.39-.2-1.68-.1-3.39-.3-5.07-.16-1.44-.75-2.6-2.49-2.83-11.18-1.47-19.94-8.55-29.85-12.94-1.6-.7-3.11-1.48-3.39-3.39-.16-1.08-.44-2.39,0-3.23.53-1,2-1.05,3.06-.67,2.4.83,4.73,1.79,7.09,2.71,8,3.12,15.16,7.81,22.35,12.69.43-1.07.64-1.34.58-1.52a18.27,18.27,0,0,0-.94-2.35c-5.1-10.17-14.47-14.58-24.5-18-52.95-18.26-105.75-37-159.15-53.88-39.19-12.42-78.49-24.52-118.35-34.56-51-12.86-103.24-18-155.38-23.65-39.85-4.29-79.86-6.61-119.78-9.9-8.43-.68-16.92-.73-25.38-1.14-2.25-.1-3.94.3-4,3s1.86,3,4,3q11,0,22,.09a23.46,23.46,0,0,1,5.87.59,3.68,3.68,0,0,1,1.93,2.47c.35,1.7-1,2.55-2.46,2.78l-66.35,0c-1.59,0-2.74-.81-2.76-2.48,0-1.88.78-3.27,2.92-3.34,1.7-.06,3.39-.08,5.09-.08,7.06,0,14.11,0,21.17,0,1.84,0,4.2.68,4.33-2.42.13-3.54-2.4-3.12-4.66-3.08-2.82.05-5.65,0-8.46.17-21.12,1.28-42.27,2.31-63.36,4-40.49,3.19-81,6.73-121.29,11.71-27.14,3.36-54.28,6.81-81.07,12.45-42.21,8.89-83.36,21.68-124.55,34.31-43.32,13.28-86.18,28-129,42.7-19.15,6.58-38.21,13.43-57.25,20.33-7.66,2.77-13.86,7.42-17.15,15.23-1.61,1.67-3.17,3.35-2.51,6.69l4.38-4.76a137.35,137.35,0,0,1,25.36-13.08c1.79-.71,4-1.38,5,1.17.94,2.26-.17,3.95-2.21,4.77-9.94,3.95-18.61,10.61-28.63,14.13-4.36,1.54-5.22,3.35-5.61,7.27-1.09,10.78-6.06,19.32-16.2,23.89-4.19,1.89-8.22,3.24-9.49,8.39-.54,2.12-2.7,3-4.8,2.34-1.86-.57-2.4-2.41-1.93-4.15,1-3.89-1.13-4.07-4.06-4.06-14.06.08-28.13-.07-42.2.09a26.13,26.13,0,0,0-9.09,1.55c-6.74,2.63-12.58,6.4-13.24,14.68a1.53,1.53,0,0,0-.77,2.18c-1.16,25.41-.73,50.82-.34,76.23,0,7.6-.39,15.21,0,22.8.45,9.68,5.22,14.08,15,14.6,2.54.14,5.08.09,7.61.09,16.35.05,32.7,0,49.05.17,15.12.17,28.84,4.41,40.22,14.91.79.74,1.58,2.5,3.28,1.17.17-2.56-1.83-4-2.7-6-2.24-5.15-5-10.08-6.24-15.64-.29-1.39-.51-2.85,1.11-3.62a3.31,3.31,0,0,1,3.83.89,9.8,9.8,0,0,1,1.95,2.72q6.42,13.08,12.76,26.17c.73,1.51,1.6,3.31-.53,4.27-5.26,2.35-1.05,5.19-.18,7.39,1,2.61,1.73,6.91,5.75,6,5.14-1.13,6,2.61,7.93,5.45,3.42,7.35,6.81,14.71,10.27,22,.84,1.78,1.88,3.43,1.77,5.54-.41,7.56-.38,7.57,6.79,7.77,2.26.06,4.51,0,6.77,0,30.46,0,60.92-.23,91.38.28,29.5.49,53.7,21.63,59.44,50.59,1.23,6.19.87,12.34,1.12,18.52-.79.45-1.14,1-.62,1.92l-15.28,53.87c-2.08,7.34-4.09,14.69-2.5,22.44.7,15.27,9,26.19,20.42,35.22,2.51,2,5.23,4.79,7.93-.27,1-1.86,3.64-.95,5.55-1,5.63-.2,11.25-.29,16.87-.42,4.78.31,9.56.53,14.33.95a2.32,2.32,0,0,1,2.34,2.84,2.22,2.22,0,0,1-2.46,1.79c-5.36.16-10.73.08-16.08.38-4.39.24-9-.75-13.82,1.76,4.9,1.79,9.34,2,13.77,2,59.26.86,118.54.27,177.79.65,24.62.16,47.77-7.06,71.42-11.93,11.07-1.47,22.19-2.72,33.22-4.49,4.67-.75,9.63.36,14-2.13H895c-1.49-8.05-1.49-8.1,5.61-8.47q13.08-.71,26.17-1.24c3.25-.13,7.3-1.12,6.28,4.73-.24,1.34,1.05,1.74,2.26,1.72,2.25,0,4.51,0,6.75-.14,3.29-.15,7.07.61,7.18-4.7,0-2.08,2.18-2.28,3.85-2.52a60.75,60.75,0,0,1,13.48-.11c2.87.22,5,1.06,4.8,4.44-.21,3.58,2.47,3.13,4.53,3.13,3.27,0,6.63,1.83,9.75-.42.23-.17,0-1.09-.16-1.63-1.09-3.57.62-4.51,3.85-4.34,11.52.62,23,1.14,34.56,1.77.35,0,.67.73,1.28,1.46-.23,1.92-2.56,3.52-1.84,6.42H1029a26.43,26.43,0,0,0,4.86,1.17c14.87.85,29.5,3.73,44.3,5.12,4,.54,7.76,2.45,11.91,2.12a137.18,137.18,0,0,0,22,4.81,13.37,13.37,0,0,0,4.44,2c17.61,3.07,35.37,2.93,53.14,2.86q68.58-.3,137.17-.49c9.6,0,19.2.5,28.76-.66,1.76-.22,3.95.5,5.1-2-2.43-2.18-5.35-1-8-1.09-6.21-.13-12.42,0-18.63.11-2.64,0-3.43-1.5-3.45-3.73,0-2.6,2-2.28,3.59-2.27q15.66.1,31.33.33c1.33,0,3-.34,3.69,1.32,1.54,3.74,3.49,2.27,5.86.83,17.12-10.44,26.28-33.59,21.3-51.19-5.43-19.23-11.59-38.27-16-57.8-5.92-26.49,7-54.68,30.92-67.3a59,59,0,0,1,27.56-7.15q47-.16,94-.28c2.82,0,5.66,0,8.47-.21s4.77-1.59,4-5c-1-4.13.85-7.74,2.4-11.36,2.11-4.9,4.26-9.78,6.4-14.67,1.81-1.86,2.52-4.28,3.54-6.57.69-1.53,1.73-3.3,3.69-3,8.12,1.39,6.73-6.85,10.32-10,.8-.72.22-1.77-.42-2.18-4.25-2.74-1.93-5.75-.49-8.75,3.66-7.58,7.47-15.1,11-22.76,1.81-4,4.47-4.33,8.26-3-2.23,10.18-8.89,18.1-12.72,27.86a7.45,7.45,0,0,0,1.48-.48c.85-.73,1.73-1.45,2.52-2.24,10-10,22.17-15.18,36.18-16.12,5.62-.37,11.26-.44,16.89-.48,15.21-.11,30.43,0,45.64-.25,8.52-.14,13.85-4.46,14.63-12.18.83-8.37,1.45-16.8.32-25.22A12.77,12.77,0,0,0,1675.51,523.12ZM320.81,491.5a2.38,2.38,0,0,1-2.85-1.16,27.78,27.78,0,0,1-2.35-5.37c-2.65-9.15-5.88-18.25-3.79-28.05.34-1.61.4-3.44,2.56-3.82a2.63,2.63,0,0,1,2.74,2.61c.39,3.06.49,6.16.84,9.23a126.6,126.6,0,0,0,3.41,19,30.06,30.06,0,0,1,1.05,4.91A2.22,2.22,0,0,1,320.81,491.5ZM345,540.14c-1.92,1.05-3-.29-4.42-1.28-4.08-2.87-4.88-7.92-7.9-11.46.77-5.16-3.52-8.59-4.46-13.09-.61-2.9-4.35-6.79-.15-8.82,4.51-2.2,4.93,3.22,6.42,5.67,3.15,5.22,5.74,10.79,8.56,16.22,1.08,2.54,2.27,5,3.23,7.61C347,536.89,347.28,538.88,345,540.14ZM431.68,362c-9.48,4.25-18.65,9.26-28.83,11.83-1.85.46-4,1.64-5.22-.75s.39-3.91,2.11-4.88a138.16,138.16,0,0,1,30.41-12.3c2.38-.67,3.71.63,4,2.84A3.53,3.53,0,0,1,431.68,362Zm18-13a24.55,24.55,0,0,1,3-1.4c9.32-3.19,18.61-6.41,28-9.45,1.7-.55,4.06-1.49,4.93,1.34a3.15,3.15,0,0,1-2.17,4c-10.1,3.46-19.62,8.5-30,11.13a10.56,10.56,0,0,1-1.8.16c-1.64,0-3.37-.13-3.72-2.34A3.15,3.15,0,0,1,449.71,349Zm30.38,155.47c-17.57-.32-31.91-14.59-31.9-31.76,0-17.67,14.93-32.89,32.1-32.71a32.45,32.45,0,0,1,32.24,32.4C512.41,490.23,497.7,504.78,480.09,504.47Zm55.08-177.11a7.13,7.13,0,0,1-2.28,1.07q-13.74,4.11-27.5,8.15a10.52,10.52,0,0,1-1.15.27l.32-.08c-3.3.58-4.51-.35-5-1.65-.58-1.53.58-2.77,1.83-3.39a62.19,62.19,0,0,1,9.25-4.05c7.24-2.26,14.6-4.16,21.9-6.25,1.67-.47,3.51-1.09,4.43.81S536.87,326.08,535.17,327.36Zm52.46-15.23c-11,3.06-22.11,6-33.16,9-2.05-.14-3.5-1-4-2.77-.46-1.59.75-2.65,2.08-3.21a118.17,118.17,0,0,1,33.18-8.52c1.56-.17,2.75.31,3.13,2C589.17,310,589.32,311.65,587.63,312.13Zm180-44c10-1.72,20-2.88,30-3.67,2-.15,4-.28,4.47,2.47s-1.6,3.37-3.47,3.7c-9.91,1.76-19.85,3.39-29.78,5.06-3.34.32-4.78-1.57-5.12-4.4S765.68,268.51,767.62,268.17ZM711.75,278.6a23.28,23.28,0,0,1,4.78-1.64c8-1.65,15.91-3.63,24.1-4.06,1.4-.09,2.81-.22,4.21-.24a2.85,2.85,0,0,1,3.24,3c.07,1.65-.77,2.52-2.4,2.85-10.74,2.15-21.47,4.35-32.23,6.48a2.4,2.4,0,0,1-3.07-2.06C710,281.26,709.79,279.49,711.75,278.6Zm-52.48,9.83c10.18-2,20.34-4.06,30.51-6.08,2.54-.5,4.64.21,5.08,2.94.33,2.11-1.58,2.77-3.23,3.14-10.39,2.35-20.8,4.63-29.88,6.64-3.62.44-5.16-.31-5.59-2.75S656.94,288.88,659.27,288.43Zm-52,18a2.8,2.8,0,0,1-3.19-2.16c-.37-1.71,1-2.65,2.28-3.1a175.35,175.35,0,0,1,31.25-7.72c2.22.12,4.24-.53,4.81,1.73a3.2,3.2,0,0,1-2.31,4A195.14,195.14,0,0,1,607.28,306.39Zm54.83,522.25q-17.18.36-34.38.5c-1.62,0-3.62,0-3.46-2.45a2.63,2.63,0,0,1,2.84-2.5c11.44,0,22.91-.91,34.32.79a2.46,2.46,0,0,1,2.34,2.16C663.28,827.6,662.71,828.62,662.11,828.64Zm53.54.14c-5.31,0-10.62,0-15.93,0v.34c-5.32,0-10.63,0-15.94,0-1.56,0-3.65.35-3.85-2-.19-2.12,1.4-2.84,3.24-2.85,10.89-.07,21.8-.78,32.68.4,1.36.14,3,.38,2.93,2.21S717,828.77,715.65,828.78Zm56.86-2.27c-.23,2.56-2.57,2.52-4.59,2.52h-15.2v.08c-5.63,0-11.26,0-16.88,0-1,0-2.35-.11-2.49-1.65a2.84,2.84,0,0,1,2-3.18,7.74,7.74,0,0,1,2.51-.22c10.14,0,20.27-.11,30.4-.1C770.18,823.92,772.79,823.5,772.51,826.51Zm51.35-3.91c-.26.09-.51.23-.79.3a271.46,271.46,0,0,1-31.51,5.77c-2.45.32-4.52-.43-4.78-3.42-.25-2.74,1.74-3.07,3.75-3.49,9.92-2.06,19.9-3.7,28.38-4.62h4.15c1.53,0,2.78.43,2.89,2.25A2.87,2.87,0,0,1,823.86,822.6ZM822,267.47c-2.42,0-4.54-.57-4.73-3.57-.17-2.83,2-3.12,3.94-3.3,10.08-.92,20.17-1.74,30.26-2.54,2-.16,4.21-.33,4.17,2.65,0,2.69-1.56,4-4.25,4.15-7,.34-13.9,2.23-21,2.12C827.56,267.15,824.75,267.42,822,267.47ZM879,815c-7.64,3.29-16,1.62-23.93,3.74C850.58,820,845.7,820,841,820.53c-1.48-3.64-1.4-6.32,3.36-7.35a206.26,206.26,0,0,1,32.35-4C881.86,808.85,879.35,812.59,879,815Zm30.22-555a16.91,16.91,0,0,1-4.12.75c-9.55.48-19.1.88-28.65,1.31a8,8,0,0,1-.85,0c-1.92-.11-4.08.23-4.24-2.73-.15-2.81,1.6-3.15,3.75-3.28,6.17-.39,12.34-.85,18.52-1.28,0-.11,0-.21,0-.32,4.77,0,9.55.07,14.33,0,1.65,0,2.79.27,2.84,2.08C910.88,257.92,911,259.51,909.26,260.06Zm262.09,15.1c.59-3.41,3.32-2.19,5.39-2.26.84,0,1.69.11,3.41.25,6.48.14,13.64,1.65,20.75,3.46a36.09,36.09,0,0,1,6.35,2.19c1.82.85,3.56,2.27,2.64,4.6-.82,2.05-2.79,1.41-4.39,1.11q-14.94-2.81-29.84-5.68C1173.51,278.42,1170.75,278.62,1171.35,275.16Zm-52.84-8.52c.33-2.47,2.17-2.07,3.83-2,.85,0,1.69.13,2.53.2,0-.1,0-.2,0-.3,9.46,1.31,18.91,2.66,28.37,3.92,2.42.32,3.43,1.53,3.22,3.94-.18,2.18-1.44,2.76-3.4,2.66-10.7-.47-21.17-2.66-31.75-4.1C1118.91,270.65,1118.21,268.9,1118.51,266.64Zm-87.92-4.48c0-.16,0-.31,0-.48-5.34-.25-10.69-.56-16-.73-2.44-.09-4.61-.3-4.44-3.55.18-3.64,2.95-2.62,5-2.67,10.17-.25,20.26.8,30.36,1.67,1.7.15,3.54.25,3.56,2.61,0,2.75-2.06,3.08-4.08,3.12C1040.16,262.22,1035.38,262.16,1030.59,262.16ZM1078,818.51c-1.79.85-2.91,1.9-5.7,1.36-10.83-2.07-21.66-4.61-32.79-4.62-1.21-4.43.65-6.5,5-6,10.49,1.31,21,2.9,31.44,4.25C1080,814.05,1078.13,816.55,1078,818.51Zm11.75-551.07c-6.48-.48-12.81-1.68-19.17-2.62a45.72,45.72,0,0,1-4.91-1.08,3.31,3.31,0,0,1-2.7-3.68c.19-2.49,2.2-2.1,3.77-2.05,11.21.28,22.27,2,33.36,3.42,1.6.21,2.83,1,2.76,2.55-.1,1.71-1.08,3.33-3.07,3.42C1096.47,267.54,1093.11,267.44,1089.77,267.44Zm42.62,560.27c-4.55,2-9-1.16-13.52-.23l-2-.23-23.4-5.19c.08-2.18-.57-4.87,3-4.8,11.61.22,22.94,2.49,34.25,4.87C1134.14,822.85,1132.33,825.69,1132.39,827.71ZM1188,825a2.26,2.26,0,0,0-.15.39c-1.18,4-3.67,4.07-6.92,4.07-8.43,0-16.87.28-25.3.41-1.69,0-3.38,0-5.06-.1-2.22-.12-2.58-1.65-2.63-3.49s1-2.47,2.6-2.48q17.28-.09,34.57-.13A5.48,5.48,0,0,1,1188,825c.88-2.14,3.22-2.19,5.17-.21C1191.06,827.08,1189.49,826.08,1188,825Zm53.07,1.16c-.15,2.09-1.09,3-3.15,3-5.64,0-11.28,0-16.91,0v.53h-15.23c-2.21,0-3.77-.49-3.9-3.2-.15-3,1.74-3,3.79-3q16.07,0,32.13.12C1239.4,823.6,1241.2,823.54,1241,826.16Zm-11.67-537.53c-2.09-.45-5.2-.23-4.74-3.39.48-3.31,3.55-2.92,6.09-2.69,10.69.87,20.8,4.55,31.32,6.2,1.78.28,2.27,1.49,2,3-.31,1.82-1.32,3.23-3.34,3.05a65,65,0,0,1-7.46-1.18C1245.26,292,1237.3,290.32,1229.35,288.63Zm63.78,540.17a4,4,0,0,1-1.66.28c-11,.19-22,.38-32.94.5-1.49,0-2.7-.5-2.87-2.33-.21-2.33.37-3.78,3.11-3.75,5.63.08,11.26,0,16.9,0v0c5.63,0,11.26,0,16.9,0,1,0,2.36,0,2.28,1.68C1294.78,826.69,1294.63,828.12,1293.13,828.8Zm22.7-524.23c-.79,2-2.58,1.78-4.95,1.56-9.57-1.95-19.76-4.09-30-6-2.93-.55-3.74-2.13-3.31-4.73.4-2.42,2.27-2,3.93-1.89,11,.92,21.45,4.42,32,7.35C1315.13,301.29,1316.67,302.45,1315.83,304.57Zm49.7,15.79c-11-2.24-22-4.8-32.7-8.13a3.24,3.24,0,0,1-1.47-.77c-.87-1-2-2.13-1.29-3.66.56-1.16,1.75-1.25,2.91-1.17.81.07,1.61.16,1.61.17,11.09.93,20.72,4,30.34,7.16,1.39.45,2.67,1.1,3.1,2.57C1368.66,318.69,1368.47,321,1365.53,320.36Zm21.9,7.95c-1.8-.57-3.93-.79-4.9-2.9-.47-1-1-2.06-.52-3.2a2.24,2.24,0,0,1,2.8-1.17c11.21,2.61,22.36,5.37,33.06,9.71a3.58,3.58,0,0,1,2.63,3.05c0,1.44-.61,2.76-2.29,2.76a21.29,21.29,0,0,1-5.79-.74Q1399.88,332.21,1387.43,328.31Zm52,176c-16.59-.77-31.35-10.09-32-31.29-.53-16.42,10.92-32.1,31.5-33,17.32-.76,32.54,14.52,32.67,32A32,32,0,0,1,1439.4,504.3Zm32.18-150.9c-.91,1.86-3,1.57-4.49,1.07-10.37-3.39-20.68-6.91-31-10.45a3.76,3.76,0,0,1-2.67-4.61c.47-2.37,2.47-1.71,4.66-1.68,10.11,3.27,20.8,6.53,31,11.19C1470.82,349.73,1472.76,351,1471.58,353.4Zm50.69,18.7a3.36,3.36,0,0,1-4.19,1.93,41,41,0,0,1-6.36-2.13q-9.75-4-19.41-8.18a24.7,24.7,0,0,1-5.13-2.86,3.58,3.58,0,0,1-1.47-3.67c.52-1.68,2.19-1.39,4.43-1.22,9.91,3.23,20.57,6.72,30.55,12C1522.43,368.88,1523.1,370.19,1522.27,372.1Zm70.15,141.54c-1.9,4-4.76,7.6-6.08,12-2.28,3.75-4.53,7.51-6.84,11.24-1.17,1.89-2.44,4.18-5.11,2.72-2.33-1.26-1-3.3-.32-5.08s1.32-3.59,2-5.39c3.44-6.42,6.78-12.92,10.43-19.22,1.24-2.14,2.09-6.28,5.85-4.25C1596.26,507.73,1593.67,511,1592.42,513.64Zm16.27-50.4c.12,8.54-2,16.63-5,24.54-.5,1.31-.75,2.7-1.94,3.64a3.72,3.72,0,0,1-4,.42c-1.22-.51-1.3-1.67-1.12-2.83a8.88,8.88,0,0,1,.27-1.65c3.44-9.86,5-20.1,6.25-30.4.22-1.73.52-3.64,2.6-3.76,2.83-.16,2.76,2.22,2.89,4.15S1608.69,461.27,1608.69,463.24Z"/><path class="cls-1" d="M480.29,440c-17.17-.18-32.1,15-32.1,32.71,0,17.17,14.33,31.44,31.9,31.76s32.32-14.24,32.44-32.07A32.45,32.45,0,0,0,480.29,440Zm-.81,58c-12.54-.12-24.53-12.55-24.51-25.41,0-14.82,11.13-25.41,26.67-25.42,13.21,0,23.79,11.22,23.91,25.33C505.65,486.21,493.44,498.16,479.48,498Z"/><path class="cls-1" d="M1438.87,440c-20.58.89-32,16.57-31.5,33,.68,21.2,15.44,30.52,32,31.29A32,32,0,0,0,1471.54,472C1471.41,454.54,1456.19,439.26,1438.87,440Zm-.12,57.85c-13.55-.25-25.25-12.32-25-25.75.23-12.36,10.48-25.55,26.45-24.88a24.69,24.69,0,0,1,24.34,25C1464.53,486.49,1452.82,498.15,1438.75,497.87Z"/><path class="cls-1" d="M345,540.14c-1.92,1.05-3-.29-4.42-1.28-4.08-2.87-4.88-7.92-7.9-11.46.77-5.16-3.52-8.59-4.46-13.09-.61-2.9-4.35-6.79-.15-8.82,4.51-2.2,4.93,3.22,6.42,5.67,3.15,5.22,5.74,10.79,8.56,16.22,1.08,2.54,2.27,5,3.23,7.61C347,536.89,347.28,538.88,345,540.14Z"/><path class="cls-1" d="M434.16,358.7a3.53,3.53,0,0,1-2.48,3.26c-9.48,4.25-18.65,9.26-28.83,11.83-1.85.46-4,1.64-5.22-.75s.39-3.91,2.11-4.88a138.16,138.16,0,0,1,30.41-12.3C432.53,355.19,433.86,356.49,434.16,358.7Z"/><path class="cls-1" d="M1522.27,372.1a3.36,3.36,0,0,1-4.19,1.93,41,41,0,0,1-6.36-2.13q-9.75-4-19.41-8.18a24.7,24.7,0,0,1-5.13-2.86,3.58,3.58,0,0,1-1.47-3.67c.52-1.68,2.19-1.39,4.43-1.22,9.91,3.23,20.57,6.72,30.55,12C1522.43,368.88,1523.1,370.19,1522.27,372.1Z"/><path class="cls-1" d="M855.59,260.71c0,2.69-1.56,4-4.25,4.15-7,.34-13.9,2.23-21,2.12-2.8.17-5.61.44-8.41.49-2.42,0-4.54-.57-4.73-3.57-.17-2.83,2-3.12,3.94-3.3,10.08-.92,20.17-1.74,30.26-2.54C853.4,257.9,855.63,257.73,855.59,260.71Z"/><path class="cls-1" d="M587.63,312.13c-11,3.06-22.11,6-33.16,9-2.05-.14-3.5-1-4-2.77-.46-1.59.75-2.65,2.08-3.21a118.17,118.17,0,0,1,33.18-8.52c1.56-.17,2.75.31,3.13,2C589.17,310,589.32,311.65,587.63,312.13Z"/><path class="cls-1" d="M535.17,327.36a7.13,7.13,0,0,1-2.28,1.07q-13.74,4.11-27.5,8.15a10.52,10.52,0,0,1-1.15.27l.32-.08c-3.3.58-4.51-.35-5-1.65-.58-1.53.58-2.77,1.83-3.39a62.19,62.19,0,0,1,9.25-4.05c7.24-2.26,14.6-4.16,21.9-6.25,1.67-.47,3.51-1.09,4.43.81S536.87,326.08,535.17,327.36Z"/><path class="cls-1" d="M1102.88,264c-.1,1.71-1.08,3.33-3.07,3.42-3.34.14-6.7,0-10,0-6.48-.48-12.81-1.68-19.17-2.62a45.72,45.72,0,0,1-4.91-1.08,3.31,3.31,0,0,1-2.7-3.68c.19-2.49,2.2-2.1,3.77-2.05,11.21.28,22.27,2,33.36,3.42C1101.72,261.64,1103,262.46,1102.88,264Z"/><path class="cls-1" d="M823.86,822.6c-.26.09-.51.23-.79.3a271.46,271.46,0,0,1-31.51,5.77c-2.45.32-4.52-.43-4.78-3.42-.25-2.74,1.74-3.07,3.75-3.49,9.92-2.06,19.9-3.7,28.38-4.62h4.15c1.53,0,2.78.43,2.89,2.25A2.87,2.87,0,0,1,823.86,822.6Z"/><path class="cls-1" d="M1185.06,823.67A5.48,5.48,0,0,1,1188,825a2.26,2.26,0,0,0-.15.39c-1.18,4-3.67,4.07-6.92,4.07-8.43,0-16.87.28-25.3.41-1.69,0-3.38,0-5.06-.1-2.22-.12-2.58-1.65-2.63-3.49s1-2.47,2.6-2.48Q1167.77,823.71,1185.06,823.67Z"/><path class="cls-1" d="M1193.12,824.79c-2.06,2.29-3.63,1.29-5.17.21C1188.83,822.86,1191.17,822.81,1193.12,824.79Z"/><path class="cls-1" d="M1420.5,333.8c0,1.44-.61,2.76-2.29,2.76a21.29,21.29,0,0,1-5.79-.74q-12.54-3.61-25-7.51c-1.8-.57-3.93-.79-4.9-2.9-.47-1-1-2.06-.52-3.2a2.24,2.24,0,0,1,2.8-1.17c11.21,2.61,22.36,5.37,33.06,9.71A3.58,3.58,0,0,1,1420.5,333.8Z"/><path class="cls-1" d="M1471.58,353.4c-.91,1.86-3,1.57-4.49,1.07-10.37-3.39-20.68-6.91-31-10.45a3.76,3.76,0,0,1-2.67-4.61c.47-2.37,2.47-1.71,4.66-1.68,10.11,3.27,20.8,6.53,31,11.19C1470.82,349.73,1472.76,351,1471.58,353.4Z"/><path class="cls-1" d="M691.63,288.43c-10.39,2.35-20.8,4.63-29.88,6.64-3.62.44-5.16-.31-5.59-2.75s.78-3.44,3.11-3.89c10.18-2,20.34-4.06,30.51-6.08,2.54-.5,4.64.21,5.08,2.94C695.19,287.4,693.28,288.06,691.63,288.43Z"/><path class="cls-1" d="M748.08,275.68c.07,1.65-.77,2.52-2.4,2.85-10.74,2.15-21.47,4.35-32.23,6.48a2.4,2.4,0,0,1-3.07-2.06c-.34-1.69-.59-3.46,1.37-4.35a23.28,23.28,0,0,1,4.78-1.64c8-1.65,15.91-3.63,24.1-4.06,1.4-.09,2.81-.22,4.21-.24A2.85,2.85,0,0,1,748.08,275.68Z"/><path class="cls-1" d="M798.63,270.67c-9.91,1.76-19.85,3.39-29.78,5.06-3.34.32-4.78-1.57-5.12-4.4s1.95-2.82,3.89-3.16c10-1.72,20-2.88,30-3.67,2-.15,4-.28,4.47,2.47S800.5,270.34,798.63,270.67Z"/><path class="cls-1" d="M1365.53,320.36c-11-2.24-22-4.8-32.7-8.13a3.24,3.24,0,0,1-1.47-.77c-.87-1-2-2.13-1.29-3.66.56-1.16,1.75-1.25,2.91-1.17.81.07,1.61.16,1.61.17,11.09.93,20.72,4,30.34,7.16,1.39.45,2.67,1.1,3.1,2.57C1368.66,318.69,1368.47,321,1365.53,320.36Z"/><path class="cls-1" d="M1264,291.78c-.31,1.82-1.32,3.23-3.34,3.05a65,65,0,0,1-7.46-1.18c-8-1.63-15.93-3.33-23.88-5-2.09-.45-5.2-.23-4.74-3.39.48-3.31,3.55-2.92,6.09-2.69,10.69.87,20.8,4.55,31.32,6.2C1263.8,289,1264.29,290.24,1264,291.78Z"/><path class="cls-1" d="M640.12,299.12a195.14,195.14,0,0,1-32.84,7.27,2.8,2.8,0,0,1-3.19-2.16c-.37-1.71,1-2.65,2.28-3.1a175.35,175.35,0,0,1,31.25-7.72c2.22.12,4.24-.53,4.81,1.73A3.2,3.2,0,0,1,640.12,299.12Z"/><path class="cls-1" d="M1156.5,272.42c-.18,2.18-1.44,2.76-3.4,2.66-10.7-.47-21.17-2.66-31.75-4.1-2.44-.33-3.14-2.08-2.84-4.34.33-2.47,2.17-2.07,3.83-2,.85,0,1.69.13,2.53.2,0-.1,0-.2,0-.3,9.46,1.31,18.91,2.66,28.37,3.92C1155.7,268.8,1156.71,270,1156.5,272.42Z"/><path class="cls-1" d="M1608.69,463.24c.12,8.54-2,16.63-5,24.54-.5,1.31-.75,2.7-1.94,3.64a3.72,3.72,0,0,1-4,.42c-1.22-.51-1.3-1.67-1.12-2.83a8.88,8.88,0,0,1,.27-1.65c3.44-9.86,5-20.1,6.25-30.4.22-1.73.52-3.64,2.6-3.76,2.83-.16,2.76,2.22,2.89,4.15S1608.69,461.27,1608.69,463.24Z"/><path class="cls-1" d="M1315.83,304.57c-.79,2-2.58,1.78-4.95,1.56-9.57-1.95-19.76-4.09-30-6-2.93-.55-3.74-2.13-3.31-4.73.4-2.42,2.27-2,3.93-1.89,11,.92,21.45,4.42,32,7.35C1315.13,301.29,1316.67,302.45,1315.83,304.57Z"/><path class="cls-1" d="M909.26,260.06a16.91,16.91,0,0,1-4.12.75c-9.55.48-19.1.88-28.65,1.31a8,8,0,0,1-.85,0c-1.92-.11-4.08.23-4.24-2.73-.15-2.81,1.6-3.15,3.75-3.28,6.17-.39,12.34-.85,18.52-1.28,0-.11,0-.21,0-.32,4.77,0,9.55.07,14.33,0,1.65,0,2.79.27,2.84,2.08C910.88,257.92,911,259.51,909.26,260.06Z"/><path class="cls-1" d="M1209.89,283.4c-.82,2.05-2.79,1.41-4.39,1.11q-14.94-2.81-29.84-5.68c-2.15-.41-4.91-.21-4.31-3.67s3.32-2.19,5.39-2.26c.84,0,1.69.11,3.41.25,6.48.14,13.64,1.65,20.75,3.46a36.09,36.09,0,0,1,6.35,2.19C1209.07,279.65,1210.81,281.07,1209.89,283.4Z"/><path class="cls-1" d="M483.48,343.53c-10.1,3.46-19.62,8.5-30,11.13a10.56,10.56,0,0,1-1.8.16c-1.64,0-3.37-.13-3.72-2.34a3.15,3.15,0,0,1,1.78-3.48,24.55,24.55,0,0,1,3-1.4c9.32-3.19,18.61-6.41,28-9.45,1.7-.55,4.06-1.49,4.93,1.34A3.15,3.15,0,0,1,483.48,343.53Z"/><path class="cls-1" d="M1592.42,513.64c-1.9,4-4.76,7.6-6.08,12-2.28,3.75-4.53,7.51-6.84,11.24-1.17,1.89-2.44,4.18-5.11,2.72-2.33-1.26-1-3.3-.32-5.08s1.32-3.59,2-5.39c3.44-6.42,6.78-12.92,10.43-19.22,1.24-2.14,2.09-6.28,5.85-4.25C1596.26,507.73,1593.67,511,1592.42,513.64Z"/><path class="cls-1" d="M879,815c-7.64,3.29-16,1.62-23.93,3.74C850.58,820,845.7,820,841,820.53c-1.48-3.64-1.4-6.32,3.36-7.35a206.26,206.26,0,0,1,32.35-4C881.86,808.85,879.35,812.59,879,815Z"/><path class="cls-1" d="M320.81,491.5a2.38,2.38,0,0,1-2.85-1.16,27.78,27.78,0,0,1-2.35-5.37c-2.65-9.15-5.88-18.25-3.79-28.05.34-1.61.4-3.44,2.56-3.82a2.63,2.63,0,0,1,2.74,2.61c.39,3.06.49,6.16.84,9.23a126.6,126.6,0,0,0,3.41,19,30.06,30.06,0,0,1,1.05,4.91A2.22,2.22,0,0,1,320.81,491.5Z"/><path class="cls-1" d="M1049,259c0,2.75-2.06,3.08-4.08,3.12-4.78.09-9.56,0-14.35,0,0-.16,0-.31,0-.48-5.34-.25-10.69-.56-16-.73-2.44-.09-4.61-.3-4.44-3.55.18-3.64,2.95-2.62,5-2.67,10.17-.25,20.26.8,30.36,1.67C1047.16,256.55,1049,256.65,1049,259Z"/><path class="cls-1" d="M1132.39,827.71c-4.55,2-9-1.16-13.52-.23l-2-.23-23.4-5.19c.08-2.18-.57-4.87,3-4.8,11.61.22,22.94,2.49,34.25,4.87C1134.14,822.85,1132.33,825.69,1132.39,827.71Z"/><path class="cls-1" d="M1078,818.51c-1.79.85-2.91,1.9-5.7,1.36-10.83-2.07-21.66-4.61-32.79-4.62-1.21-4.43.65-6.5,5-6,10.49,1.31,21,2.9,31.44,4.25C1080,814.05,1078.13,816.55,1078,818.51Z"/><path class="cls-1" d="M1241,826.16c-.15,2.09-1.09,3-3.15,3-5.64,0-11.28,0-16.91,0v.53h-15.23c-2.21,0-3.77-.49-3.9-3.2-.15-3,1.74-3,3.79-3q16.07,0,32.13.12C1239.4,823.6,1241.2,823.54,1241,826.16Z"/><path class="cls-1" d="M1294.85,825.28c-.07,1.41-.22,2.84-1.72,3.52a4,4,0,0,1-1.66.28c-11,.19-22,.38-32.94.5-1.49,0-2.7-.5-2.87-2.33-.21-2.33.37-3.78,3.11-3.75,5.63.08,11.26,0,16.9,0v0c5.63,0,11.26,0,16.9,0C1293.55,823.61,1294.93,823.61,1294.85,825.28Z"/><path class="cls-1" d="M772.51,826.51c-.23,2.56-2.57,2.52-4.59,2.52h-15.2v.08c-5.63,0-11.26,0-16.88,0-1,0-2.35-.11-2.49-1.65a2.84,2.84,0,0,1,2-3.18,7.74,7.74,0,0,1,2.51-.22c10.14,0,20.27-.11,30.4-.1C770.18,823.92,772.79,823.5,772.51,826.51Z"/><path class="cls-1" d="M663.77,827.14c-.49.46-1.06,1.48-1.66,1.5q-17.18.36-34.38.5c-1.62,0-3.62,0-3.46-2.45a2.63,2.63,0,0,1,2.84-2.5c11.44,0,22.91-.91,34.32.79A2.46,2.46,0,0,1,663.77,827.14Z"/><path class="cls-1" d="M718.78,826.85c-.09,1.79-1.74,1.92-3.13,1.93-5.31,0-10.62,0-15.93,0v.34c-5.32,0-10.63,0-15.94,0-1.56,0-3.65.35-3.85-2-.19-2.12,1.4-2.84,3.24-2.85,10.89-.07,21.8-.78,32.68.4C717.21,824.78,718.89,825,718.78,826.85Z"/><path class="cls-1" d="M512.84,713.76C513,729.45,500.78,742,485.35,742a27.26,27.26,0,0,1-27.09-26.72c-.3-14.93,12.18-27.83,27-27.91C499.9,687.25,512.69,699.5,512.84,713.76Zm-7.58.86c-.11-11.75-8.16-19.72-19.58-19.83-11.82-.12-19.8,8.52-20.07,20.49-.24,10.36,9.27,19.2,19.72,19.14A19.75,19.75,0,0,0,505.26,714.62Z"/><path class="cls-1" d="M502.94,820.25c-.42,2.65-1.77,3.89-4.13,3.1a41.54,41.54,0,0,1-25.53-22.71c-.79-1.73-1.27-4,1.08-5.08,1.85-.85,3.15.67,4.22,2,1.79,2.15,3.36,4.48,5.16,6.63a38.62,38.62,0,0,0,14.48,11.21C500.61,816.37,502.8,817.49,502.94,820.25Z"/><path class="cls-1" d="M469.29,778.88a4,4,0,0,1-2.23,3.55,2.8,2.8,0,0,1-3.79-.51,14.22,14.22,0,0,1-1.88-2.79c-3.89-7.49-7.79-15-11.56-22.52a23,23,0,0,1-1.77-5.6c-.3-1.42.07-2.83,1.81-3.27a2.67,2.67,0,0,1,3,1,34.38,34.38,0,0,1,2.19,3.59c4,7.13,7.94,14.26,11.85,21.42C467.85,775.42,468.55,777.27,469.29,778.88Z"/><path class="cls-1" d="M444.56,731.46c-.08,2.32-1.31,2.66-2.86,2.5-2.57-.26-3.93-2.18-5.05-4.1a208.07,208.07,0,0,1-12-24.24,12.51,12.51,0,0,1-.8-4.12,3,3,0,0,1,.9-2.27,2.19,2.19,0,0,1,3,.61,16.16,16.16,0,0,1,2.11,2.59q6.87,13.1,13.61,26.26A25.69,25.69,0,0,1,444.56,731.46Z"/><path class="cls-1" d="M1417.27,820c.18-1.57,1.28-2.39,2.54-3a55.58,55.58,0,0,0,20.9-19c1.23-1.84,2.88-3.9,5.44-1.95,2.35,1.79,1.33,4,.08,6-5.7,8.87-12.81,16.25-22.64,20.55C1420.35,824,1417.12,822.56,1417.27,820Z"/><path class="cls-1" d="M1461.09,709.59c1.48,14.28-4.37,23.12-15,29.36-1.45.85-3.24,1.25-4.47,2.33-7.24,6.39-14.92,4.24-22,.47-11.72-6.23-17.73-16.32-16.4-29.8,1.22-12.49,7.46-21.86,19.65-26,12.55-4.23,23.76-1.36,33.3,8C1461.13,698.85,1461.46,704.87,1461.09,709.59Zm-47.2,4.39c-.06,9.28,6.87,18,15,20.18,3.45.9,6,.28,7.87-2.91,4.29-7.25,8.6-14.51,13.09-21.64,2.45-3.91,1.42-6.84-1.78-9.56-6.56-5.58-13.89-7.42-21.93-3.89S1414.73,706.5,1413.89,714Zm40.1,2.73c-3.6,5-6.81,8.6-8,14.77C1450.72,727.2,1453.39,723.3,1454,716.71Z"/><path class="cls-1" d="M1496.57,698.3c-.09,3,.08,5.92-1.6,8.79-4.4,7.51-8.46,15.23-12.68,22.85a11.79,11.79,0,0,1-1.44,2.07c-1,1.11-2.26,2.07-3.65,1.41s-1.36-2.26-1-3.68a9.92,9.92,0,0,1,.64-1.55c3.81-8.15,7.75-16.24,11.4-24.46,1.72-3.9,4.46-5.47,8.53-5.18Z"/><rect class="cls-2" width="1" height="1"/><rect class="cls-2" x="1919" y="1079" width="1" height="1"/><rect class="cls-2" y="1079" width="1" height="1"/><rect class="cls-2" x="1919" width="1" height="1"/></g><g id="Capa_3" data-name="Capa 3"><path d="M800.83,481.77v111H781V522.06L761.5,537,745.32,549.5,729.14,537l-19.51-14.91V592.8H689.8v-111L709.63,497l35.69,27.44L781,497Z"/><path d="M854.76,518.73v75.5H834.93V516.67a15.83,15.83,0,0,0-13.48-13.49H817V483.52h4.29v.15a35.55,35.55,0,0,1,13.48,3.65,35.17,35.17,0,0,1,16,16.18,42.36,42.36,0,0,1,2.7,7.46,33.41,33.41,0,0,1,1,8.09Z"/><path d="M981.17,515.4a32.67,32.67,0,0,1-9.2,22.84,32.75,32.75,0,0,1-23.48,55.51H870.3V573.93h78.19a13.07,13.07,0,0,0,13-13,12.92,12.92,0,0,0-12.21-13h-59V528.09h59a13,13,0,0,0-.64-26H870.46V482.25h78.19a32.63,32.63,0,0,1,32.68,32.67Z"/><path d="M1067.29,481.77a35.81,35.81,0,0,1,35.85,35.85V556.8a35.81,35.81,0,0,1-35.85,35.84H1033a35.81,35.81,0,0,1-35.85-35.84V517.62A35.81,35.81,0,0,1,1033,481.77ZM1033,501.6a16.25,16.25,0,0,0-16.18,16.18V557A16.25,16.25,0,0,0,1033,573.13h34.26A16.25,16.25,0,0,0,1083.47,557V517.78a16.25,16.25,0,0,0-16.18-16.18Z"/><path d="M1227.33,547.75A31.69,31.69,0,0,1,1230,560.6a32.63,32.63,0,0,1-32.67,32.68h-78.2V573.45h78.2a12.93,12.93,0,0,0,12.85-13,12.77,12.77,0,0,0-11.42-12.84h-79.63V482.25h101.68v19.82H1139v25.7h59.64a32.19,32.19,0,0,1,28.87,19.83Z"/></g></g></svg>