<svg xmlns="http://www.w3.org/2000/svg" viewBox="0 0 1920 1080"><defs><style>.cls-1{fill:#050505;}.cls-2{fill:#f2f2f2;}</style></defs><g id="Capa_2" data-name="Capa 2"><g id="Capa_1-2" data-name="Capa 1"><path class="cls-1" d="M1765.23,548c-.6-21.72-15-35.73-36.81-36.11-10.15-.17-20.3,0-30.46-.09-11.27-.09-14.46-3.18-14.51-14.36-.09-16.65-.23-33.31.09-50,.6-30.5-13.55-51.86-39.84-66.11-51.16-27.7-104.39-50.76-158.36-72.36a996.36,996.36,0,0,0-104.79-35.09c-2.26-.63-3.38-1.52-2.14-4a15,15,0,0,0,.74-3.22c1.44-6,.43-8.17-5.55-9.82-16.5-4.59-33-9-49.6-13.37-6.69-1.78-13.4-3.5-20.13-5.06s-9.28,0-9.89,6.82c-.39,4.35-2.37,4.41-5.57,3.71-22.33-4.87-44.47-10.6-67-14.47-29-5-57.79-10.8-87.2-13.06-17-1.31-33.83-3.85-50.67-6.75,0,0-58.52-4.93-63.55-5.1s-5,6.73-5,6.73c-.06,2.16-.15,4.53-2.94,5.2a7.45,7.45,0,0,1-1.89,0q-50.65,0-101.31,0c-1.55,0-3.81,1.2-4.43-2a57.29,57.29,0,0,0-5.81-7.32c-2.83-2.83-55.36,2.43-55.36,2.43-15.27,1.8-32.19,4.17-49.19,5.71q-34.06,3.09-67.73,8.86-42.36,7.32-84.26,17c-4.45,1-9,1.8-13.31,3.14-2.44.74-3.36.27-4.15-2.05-3.77-11.11-3.84-11.15-15.66-7.9-20.72,5.71-41.45,11.39-62.1,17.31-8.29,2.38-8.61,3.11-6.41,11.32,1,3.81,0,5-3.81,6.06C478.11,290.28,422,312.86,366.37,336.9c-30.64,13.24-60.2,28.56-89.82,43.82a88.59,88.59,0,0,0-27.17,21.86c-8,9.44-10.2,21-13.2,32.37-3.21,12.14-1.75,24.56-2,36.87-.21,10.63-.31,21.25-.09,31.88.12,4.93-2.23,6.69-6.6,7.29-6.8.92-13.62.64-20.44.88-9,.3-17.9-.63-26.9,1.48-15.32,3.58-25.43,16.45-25.66,32.76-.57,40-.27,79.95-.08,119.92a41.75,41.75,0,0,0,4.19,17.38l6.31,7.88c8.85,8.13,19.17,9.24,29.9,9.22q61.86-.12,123.72-.06c2.69,0,5.39.18,8.07.18,15.42,0,24.87,9.29,32.88,20.87,5.07,7.34,5,7.34-2.34,12.26q-14.94,10-29.84,20.07c-.91.62-1.77,1.35-2.61,2-5.44,4.56-5.7,5.91-1.76,11.79l67.94,99.63c3,3.71,5.53,3.87,9.22,1.69,11.13-6.6,21.33-14.58,32.12-21.69,6.05-4,12-8.16,17.86-12.43,1.87-1.37,3.83-1.26,5.83-1.27,29.34-.1,58.67,0,88-.4,7.25-.09,14.46-.54,21.66.55,21.36-.17,42.78.49,64.08-.75,13.9-1.1,12.94-7.35,12.94-7.35-.11-3.06.75-4.88,3.94-5.13,7.58-.6,14.86-2.71,22-5a926.64,926.64,0,0,1,93.65-24.81c18-3.84,36.27-6.6,54.49-9.3,17-2.53,34.16-4.5,51.28-6.42,11.8-1.31,23.65-2.21,35.5-3.1,25.16-1.88,50.36-2.23,75.59-2,18.26.13,36.33,2.58,54.51,3.54,13.6.72,26.91,3.51,40.38,4.91a843.68,843.68,0,0,1,132.84,24.36c20.42,5.52,40.41,12.55,61.07,17.24,1.84.41,3.69.85,5.56,1.14,3.67.56,3.37,3.41,3.18,5.84-.56,7.06,1.8,6.55,1.8,6.55h74.31c39-.29,78,1.22,116.92-.78,6.65-.66,15.19-6.5,15.19-6.5,19.54-15.14,28.91-37.91,42.88-57.21,12-16.62,23-34,34.53-50.94,8.29-12.1,19.68-17.78,34.63-17.65,40.9.34,81.81,0,122.71.13,11.77,0,24.75,1.52,33.86-7.85,2.36-2.45,7.85-11.12,7.85-11.12,3-4.76,3.75-10.72,3.85-16.42C1765.73,626,1766.33,587,1765.23,548ZM1371.36,292.62c1.05-2.5,1.53-5.54,5.78-4.14,8.47,2.8,17,5.5,25.61,7.81,37.91,10.15,73.74,26,110.08,40.4,41.87,16.65,82.3,36.38,122.19,57.25,10.76,5.63,20,13.26,26.81,23.53a31.9,31.9,0,0,1,1.71,3.78c-12.17-6.59-23.12-12.37-33.93-18.41-24.69-13.78-50.44-25.47-76-37.47-51-24-103.79-43.49-157.32-61-7.31-2.39-14.5-5.17-21.85-7.44C1372,296.15,1370.05,295.67,1371.36,292.62Zm-344.71-59.55c1.82-4.15,4.74-5.4,9.32-4.95,18,1.75,35.94,3.11,53.92,4.66,15.28,1.31,30.57,2.71,45.85,4q25.26,2.22,50.18,6.84c22.72,4.26,45.56,7.94,68.12,13.1,10.41,2.38,20.86,4.54,31.29,6.86,1.42.32,3.34.41,3,3,0,4.9-2,6.39-7,5.35-35.52-7.34-71.12-14.2-106.9-20.12C1139,246,1103.27,242.38,1067.53,239c-12.94-1.23-26-1.51-38.93-2.25-1-.06-2.32.57-3-.75S1026.23,234,1026.65,233.07Zm-25.19,17.34c30.23.91,60.45,2.65,90.56,6.09,22.48,2.58,45,4.47,67.39,8,21.07,3.36,42.08,7.05,63,10.94,15.65,2.9,31.21,6.35,46.79,9.6,1.51.31,3.31,0,4.27,2-1.52,1.74-3,.74-4.51.45-21-4.31-41.85-8.93-62.89-12.79-19.23-3.53-38.6-6.35-57.94-9.25-26.8-4-53.8-6.15-80.75-8.36A1322.42,1322.42,0,0,0,921,253.25c-36.76,1.06-73.43,3.66-110,7.52-49.5,5.21-98.58,13-147.08,24.24-5.38,1.26-10.86,2-16.3,3-1.12.21-2.56.47-2.84-.85-.34-1.68,1.26-1.65,2.47-1.87,27.69-5.31,55.32-11,83.11-15.85,32.08-5.56,64.38-9.58,96.81-12.94A1310.84,1310.84,0,0,1,1001.46,250.41ZM632.61,263.64c19.81-3.43,39.21-8.8,59-12.49,21-3.91,42.07-7.79,63.2-11.13,12.32-1.94,24.8-2.88,37.23-4.11q22.66-2.24,45.34-4.18c10.41-.91,20.84-1.64,31.24-2.54,5-.44,10.08-1,15.07-1.71,3.22-.47,5.72-.44,7,3.34.67,1.94,2.39,3.51,4,5.7-7.31.42-13.87.94-20.45,1.13-21.39.61-42.61,3.17-63.87,5.45-20.59,2.21-41.18,4.4-61.58,8-23.74,4.22-47.63,7.55-71.2,12.76-14.28,3.15-28.62,6-42.93,9-2.26.48-3.89,0-3.8-2.59C630.86,268,628.35,264.37,632.61,263.64Zm-356.35,135C291.92,389,308.61,381.2,325,373c40.7-20.32,82.93-37.12,125.09-54.12,29.68-12,60.34-20.78,90.9-30,1.83-.54,4.47-2.73,5.13,1.09.51,2.87,2.33,6.09-2.87,7.7a1538.46,1538.46,0,0,0-153,56.36c-36.19,15.58-71.73,32.74-106.26,51.83-9.05,5-18.23,9.79-27.35,14.67A52.75,52.75,0,0,1,276.26,398.66Zm51.66,286.5q-64.73-.1-129.46-.1c-3.17,0-6.36,0-9.51-.29-12.29-1.16-17.78-4.48-19.3-20.91-1.23-13.28-.41-26.64-.38-40q.07-36.17.16-72.33a51.67,51.67,0,0,1,2.23-13.51c2-7.67,8.87-8.68,15.19-9.95,9.4-1.88,19-1.06,28.44-1.11a132.43,132.43,0,0,0,15.67-.7c11.53-1.45,17.26-7.18,17.54-18.93.41-17.43.4-34.87.61-52.31q0-4,.38-8.07A8.88,8.88,0,0,1,254,439.6c9.89-5.51,19.85-10.9,29.78-16.34,19.75-11.45,40.22-21.52,60.87-31.21,20.93-9.8,41.41-20.66,63-29,31.76-12.3,63-25.82,95.61-36,13-4.09,25.83-8.91,38.73-13.36,1.11-.39,2.27-.67,4-1.17-1.45,3.06-3.8,3.55-5.9,4.27-21.61,7.34-43.46,14.06-64.81,22.12-31.17,11.76-61.86,24.74-92.52,37.79-31.88,13.56-62.25,30.12-93.46,45-1.85.87-3.58,2-5.37,3-4.14,3.64-8.28,7.31-12.43,10.95-9.65,8.45-14.09,19.73-16.12,31.85a174.74,174.74,0,0,0-.12,56.73,66.82,66.82,0,0,0,9.3,24.05c9.6,15.81,19.66,31.36,31.17,45.84,14.48,18.25,31.38,34,53.21,43.11A147.24,147.24,0,0,0,423,647.67c19.71-2.12,39.89-4.85,59.3,1.91,30.94,10.77,54.29,30,66.24,61.54,4.37,11.51,5.51,23.34,5.9,36.21-16.9-27.64-36.15-52.58-52.91-79.2a29.67,29.67,0,0,0-7-7.7c-8.31-6.44-16.69-6.61-27.12.05-11.83,7.57-23.37,15.58-35,23.41-17.54,11.8-35.67,22.73-52.63,35.38-2.16,1.61-2.82.78-3.9-1q-3.76-6-7.79-11.85C358.28,692.53,345,685.19,327.92,685.16Zm95.6,149.54c-5,4.1-11,6.81-15.68,11.39-1.6,1.57-2.78.91-3.8-.72-2.81-4.5-5.64-9-8.91-14.16l-5.61-7.38c-12.7-20.69-26.67-40.54-40.38-60.56-1.91-2.77-2.07-4.33,1.17-6.27,5.95-3.54,11.64-7.54,17.34-11.48,1.74-1.2,2.62-1.6,4,.62,12.42,20,26.28,39,39.5,58.47,5,7.42,10.15,14.78,15.72,22.88,0,0,.6.86,1.54,2.36S423.52,834.7,423.52,834.7ZM462,809.14c-2.62,2.44-4.16,1.73-5.93-1q-26.61-40.51-53.36-80.94c-1.84-2.79-1.75-4.05,1.37-6.1,22.57-14.82,44.91-30,67.36-44.94,3.25-2.18,6.54-4.39,10.88-5.18,1.8.1,2.91,1.74,4.08,3.19,7.78,9.6,14,20.26,21,30.42q14.6,21.3,28.78,42.86c4.43,6.76,4.28,7.27-2.19,11.74-21.43,14.8-43,29.4-64.48,44.13A63.28,63.28,0,0,0,462,809.14Zm92.35-45.4c0,13-.15,26-.09,39,0,3.1-.44,4.49-4.19,4.07-5.91-.67-7.4.62-8.46,6.81-.62,3.63-2,4.84-5.82,4.81-18.22-.21-36.43,0-54.65,0h-5.58c26.31-19.75,54.62-34.93,79.24-56.6A7.58,7.58,0,0,0,554.3,763.74Zm721.38,39c-.35,1.68-1.83,1.4-2.59,1.17-11.17-.67-21.14-4.16-31.23-7.21a918.6,918.6,0,0,0-96.06-23.75c-31-5.82-62.36-10.18-93.79-13.31-40.56-4-81.29-6.44-122-4.69-35.11,1.51-70.08,5.1-105,9.81-53.88,7.28-106.55,19.71-158.56,35.31a105.71,105.71,0,0,1-19.39,4.12c-1.21.12-2.81,1-3.32-.6-.43-1.36.58-2.7,1.86-3.51,3.41-2.16,7.56-2.16,11.13-3.69,5.94-2.53,12.11-.56,18.11-1.56,11.66-1.95,22.73-6.08,34-9.35a798.3,798.3,0,0,1,81.32-18.54c29-5.2,58.19-8.5,87.48-11.16,47.62-4.34,95.36-4.31,143.05-1.79,27.65,1.46,55.14,5,82.57,9A810.9,810.9,0,0,1,1215,786.71c9.09,2.65,18.26,4.94,27.37,7.5,6.69,1.88,13.78-.34,20.42,2.21,3.5,1.35,7.16,2.29,10.7,3.55C1274.69,800.38,1276,801.26,1275.68,802.72Zm76.67-85.49c-3.73,13-3.85,26.11-3.94,39.33-.12,19-.23,38.07-.1,57.1,0,3.56-.56,4.83-4.53,4.74-15.54-.34-31.1,0-46.64-.44-6.43-.18-6.55,1-5.59-6.75a33.31,33.31,0,0,0-1.21-14c-3.83-12.54-14.47-14.71-25.07-16.86-8.17-1.67-16.64-1.59-24.81-2.9-10-1.6-19.76-5-29.57-7.82a740.83,740.83,0,0,0-86.25-18.9c-27.81-4.55-55.79-7.75-83.86-10.33-36.24-3.33-72.55-3-108.87-2.81-31.59.15-63,3.42-94.33,6.7-6.91.73-13.77,1.84-20.67,2.78l-.9.17c-9,1.45-18,3-27,4.35-15.11,2.29-29.88,6.26-44.86,9.14-20.87,4-40.85,11.35-61.54,15.89-9.52,2.08-19.45,2.16-29.09,3.81-16.48,2.82-25.17,9-26.09,26.59-.19,3.71,1.81,8.68-1,10.8-2.32,1.77-7,.46-10.65.46-14,0-27.93-.13-41.89,0-3.49.05-4.52-.81-4.47-4.47.42-25.22.85-50.44.1-75.64-.77-25.94-10.79-48.33-27.68-67.67a117.44,117.44,0,0,0-50.43-34.16c-17.24-6-35.12-7-53.36-5.18-27.23,2.78-54.48,4.73-80.59-6.88A117.36,117.36,0,0,1,314,591.59a461.46,461.46,0,0,1-35.45-49.09c-6.65-10.53-9.54-22.23-10-34.52s-.86-24.58,1.48-36.9c3.35-17.68,13.9-29.08,29.16-37.26,37.9-20.31,76.82-38.47,116.46-55.09,39-16.35,78.24-31.94,118.84-43.91,6-1.76,11.91-3.75,17.79-5.85,7.85-2.81,14.56-15.82,12.94-24.81a237.31,237.31,0,0,0-7.71-29.62c-1.33-4.2-.23-5.38,3.66-6.36,15.47-3.93,31-7.74,46.12-12.86,3.18-1.07,4.09.05,4.84,2.73,2.48,8.91,5.2,17.76,7.61,26.7,3.12,11.59,12.31,16.53,22.47,19.31,5.65,1.54,11.78-1.48,17.59-2.79,31.12-7,62.32-13.43,93.92-18.07,23.94-3.51,47.91-6.25,72-8.53,53.7-5.07,107.46-8.2,161.43-6.78,26.77.71,53.52,2.24,80.21,4.33,25.21,2,50.44,4.31,75.49,7.66a1194.13,1194.13,0,0,1,125.65,23.34c11.84,2.9,27-6,30.46-17.71q3.94-13.56,7.64-27.19c.69-2.53.93-3.77,4.52-2.72,15.94,4.64,32.05,8.71,48.13,12.86,2.92.75,3.57,1.51,2.45,4.72-3.22,9.32-6.19,18.75-8.6,28.31-2.78,11,7.1,25.87,19.36,29.43,60.46,17.58,118.37,41.8,175.84,67.2,23.47,10.38,45.83,22.95,68.78,34.34,7,3.47,13,8.43,18.6,13.82,8.12,7.75,10.45,18,12.84,28.33,4.93,21.39,3,42.29-6.32,61.81-8,16.65-18.83,31.79-31,45.74-7.17,8.2-13.22,17.31-21.81,24.37-19,15.66-40.85,23.7-65.1,26.37-16.92,1.85-33.47-1.73-50.21-2.34-24.42-.92-47.34,3.1-68.33,16.43C1379.17,663.86,1361.07,686.71,1352.35,717.23ZM1750,661.7a43.21,43.21,0,0,1-2.51,12c-3.17,9.18-11.14,10.78-19.4,11.33-5.69.37-11.43.2-17.13.2-37.44,0-74.9.63-112.33-.26-22.59-.53-39.51,7.66-51.38,26.57-16.82,26.79-35.13,52.56-52.47,79-4.94,7.54-9.83,15.13-17,20.9a28.91,28.91,0,0,1-18.3,6.76c-24.75.07-49.5,0-74.25,0-1.58,0-3.16-.32-4.74-.34-2,0-2.58-.92-2.69-2.93-.36-6.47-2.68-8.91-9.52-8.59-4.38.19-4.81-1.39-4.79-5.06.17-17.45-.52-34.92.18-52.35,1.71-43,20.7-75.25,60.26-94.22,18.41-8.81,37.72-10.28,57.74-8,30.9,3.58,61.51,3.45,90.25-10.94A143.38,143.38,0,0,0,1614,603.28c14-15.45,24.94-33,36.39-50.2,10.73-16.13,15-34.32,15.91-53.58.71-14.31-2.6-27.84-6.13-41.39s-12.51-23-23.53-31q-4.23-3-8.45-6.07l-3-1.77c-19.71-9.89-39.13-20.45-59.21-29.53-48.55-22-97.49-43.11-148.06-60.16-12.36-4.17-24.85-7.94-37.24-12-2.77-.9-5.74-1.6-8.42-4.66,10.66,2.18,20,5.92,29.44,9q59.38,19.15,116.61,44c36.15,15.62,72,32.27,106.45,51.5a10.22,10.22,0,0,1,1.41,1.16,4.78,4.78,0,0,1,3.07,1.65l36.52,19.68c2.27,1.22,2.76,3.14,2.68,5.57-.66,18.7-.37,37.41.11,56.1.47,18,9.43,24.88,25.61,25.44,9.52.33,19,.1,28.56.13a58.65,58.65,0,0,1,14.51,2,14.07,14.07,0,0,1,10.84,10.62,81.79,81.79,0,0,1,2.41,21.6C1750.55,594.78,1751.66,628.24,1750,661.7Z"/><path class="cls-2" d="M1648.51,474.61c-2.39-10.38-4.72-20.58-12.84-28.33-5.65-5.39-11.63-10.35-18.6-13.82-23-11.39-45.31-24-68.78-34.34-57.47-25.4-115.38-49.62-175.84-67.2-12.26-3.56-22.14-18.42-19.36-29.43,2.41-9.56,5.38-19,8.6-28.31,1.12-3.21.47-4-2.45-4.72-16.08-4.15-32.19-8.22-48.13-12.86-3.59-1-3.83.19-4.52,2.72q-3.71,13.64-7.64,27.19c-3.41,11.71-18.62,20.61-30.46,17.71a1194.13,1194.13,0,0,0-125.65-23.34c-25-3.35-50.28-5.69-75.49-7.66-26.69-2.09-53.44-3.62-80.21-4.33-54-1.42-107.73,1.71-161.43,6.78-24.08,2.28-48.05,5-72,8.53-31.6,4.64-62.8,11.08-93.92,18.07-5.81,1.31-11.94,4.33-17.59,2.79-10.16-2.78-19.35-7.72-22.47-19.31-2.41-8.94-5.13-17.79-7.61-26.7-.75-2.68-1.66-3.8-4.84-2.73-15.14,5.12-30.65,8.93-46.12,12.86-3.89,1-5,2.16-3.66,6.36a237.31,237.31,0,0,1,7.71,29.62c1.62,9-5.09,22-12.94,24.81-5.88,2.1-11.81,4.09-17.79,5.85-40.6,12-79.86,27.56-118.84,43.91-39.64,16.62-78.56,34.78-116.46,55.09C283.93,442,273.38,453.4,270,471.08c-2.34,12.32-2,24.58-1.48,36.9s3.37,24,10,34.52A461.46,461.46,0,0,0,314,591.59a117.36,117.36,0,0,0,43.42,32.7C383.55,635.9,410.8,634,438,631.17c18.24-1.85,36.12-.8,53.36,5.18a117.44,117.44,0,0,1,50.43,34.16c16.89,19.34,26.91,41.73,27.68,67.67.75,25.2.32,50.42-.1,75.64,0,3.66,1,4.52,4.47,4.47,14-.17,27.92,0,41.89,0,3.64,0,8.33,1.31,10.65-.46,2.79-2.12.79-7.09,1-10.8.92-17.64,9.61-23.77,26.09-26.59,9.64-1.65,19.57-1.73,29.09-3.81,20.69-4.54,40.67-11.87,61.54-15.89,15-2.88,29.75-6.85,44.86-9.14,9-1.37,18-2.9,27-4.35l.9-.17c6.9-.94,13.76-2,20.67-2.78,31.37-3.28,62.74-6.55,94.33-6.7,36.32-.18,72.63-.52,108.87,2.81,28.07,2.58,56,5.78,83.86,10.33a740.83,740.83,0,0,1,86.25,18.9c9.81,2.83,19.56,6.22,29.57,7.82,8.17,1.31,16.64,1.23,24.81,2.9,10.6,2.15,21.24,4.32,25.07,16.86a33.31,33.31,0,0,1,1.21,14c-1,7.72-.84,6.57,5.59,6.75,15.54.43,31.1.1,46.64.44,4,.09,4.56-1.18,4.53-4.74-.13-19,0-38.07.1-57.1.09-13.22.21-26.28,3.94-39.33,8.72-30.52,26.82-53.37,53.37-70.24,21-13.33,43.91-17.35,68.33-16.43,16.74.61,33.29,4.19,50.21,2.34,24.25-2.67,46.08-10.71,65.1-26.37,8.59-7.06,14.64-16.17,21.81-24.37,12.19-13.95,23.06-29.09,31-45.74C1651.53,516.9,1653.44,496,1648.51,474.61ZM568.81,485.06c3-2.47,4.9.24,6.64,2.23,12.83,14.7,19.39,31.83,19.77,52.52,0-.07,0,1,0,2.15.06,2.21.61,4.4-3.07,4.34-3.26,0-4.6-1.2-4.63-4.38a80.44,80.44,0,0,0-4-26.06,77.46,77.46,0,0,0-13.75-24C568,489.66,565.77,487.53,568.81,485.06ZM447.3,599.48a4.67,4.67,0,0,1-6.11,0,9.44,9.44,0,0,1-1.58-1.75c-11.3-15-19.09-31.39-20.1-50.49,0-.63,0-1.26,0-2.13,1.17-1.91-1.41-5.57,2.65-6.52,3.2-.74,4.43.51,4.57,3.93a85.55,85.55,0,0,0,12.2,40.59c2.4,4,5.11,7.9,7.55,11.92C447.28,596.36,449.34,597.87,447.3,599.48Zm-15.2-84.2c-.54,1.44-.82,3.84-3.34,3-2-.64-3.85-1.71-3.36-4.17.4-3.55,1.84-6.51,3.08-9.56C435.24,488,447,475.91,462.22,467a27.87,27.87,0,0,1,2.47-1.31c1.76-.81,3.45-.71,4.69.89,1.38,1.8.32,3.16-1,4.54-2.82,3-6.41,5-9.77,7.36C445.44,487.57,437.57,500.54,432.1,515.28ZM524,628.33c-4.65,2.27-9.59,1.43-14.91,1.86-14.87-.62-29.78-3.08-43.58-10.38-1.25-.67-2.87-1.06-3.33-2.42-.6-1.78-.88-3.9.57-5.4,1.22-1.27,2.56,0,3.77.56a102,102,0,0,0,47.1,9.67c3-.11,6-.62,9-.79,1.65-.09,3.72-.6,4.08,2A4.27,4.27,0,0,1,524,628.33Zm4.14-164.16c-11.58-2.56-23.26-2.08-35-1.29-1.72.13-4.15,1.53-3.86-1.95.2-2.32-1.51-5.88,3.13-5.92s9.19,0,13.78,0c15.59-.72,30.48,1.72,43.9,10.3a13.42,13.42,0,0,1,1.61,1c1.67,1.43,2.94,3,1.41,5.29s-3.26,1.55-5,.5A64,64,0,0,0,528.09,464.17ZM554.67,615.9c-1.24.68-2.55,1.23-3.82,1.82-1.87.86-3.83,1.34-4.9-1a4,4,0,0,1,1.59-5.36c2.87-1.94,5.69-4,8.57-5.88,12-8,18.94-20,25.65-32.24.61-1.11,1.06-2.3,1.71-3.38.8-1.34.79-3.61,3.24-3.19,1.28.21,3.93,3.67,4,5.13a9.31,9.31,0,0,1-.58,2.11C581.47,590.62,571.89,606.51,554.67,615.9ZM596.24,709c-15.88-.47-27-11.46-26.91-27.29.12-17.74,11-29.12,27.79-28.94,16.48.18,28.68,12.28,28.36,28.35C625.21,695.08,615.35,709.56,596.24,709Zm725.63-.06c-17-.1-28.07-11.38-27.9-28.41.17-16.54,11.62-27.76,28.29-27.72,16.35,0,28,11.76,27.88,28.09C1350.05,697.87,1338.79,709.05,1321.87,708.93Zm28.77-109.45c-2.31,1.7-4.5,1.52-6.21-.73-10.46-13.87-18.89-28.64-20.14-46.51-.18-2.52-.64-5-.83-6.54,0-1.79,0-2.59,0-3.38.07-2.5,1.38-3.63,3.87-3.78,2.65-.17,3.33,1.49,3.4,3.53a85.44,85.44,0,0,0,3.58,22.31c3.39,11.12,9.57,20.79,16,30.33C1351.3,596.23,1353.07,597.68,1350.64,599.48Zm-16.05-84.18c-.76,1.55-1.39,3.83-4.12,2.8-1.92-.72-2.75-2-2.16-5.17,1.68-5.09,4.85-10.71,8-16.31a76.53,76.53,0,0,1,28.7-28.91,21.88,21.88,0,0,1,4.23-2.09c1.25-.4,2.93-1.21,3.84.38a3.74,3.74,0,0,1-.31,4.07,13.59,13.59,0,0,1-3.56,3.75C1352.44,483.31,1342.79,498.69,1334.59,515.3ZM1427,628.84a24.1,24.1,0,0,1-4.62.93c-2.84.15-5.68,0-8.53,0-15.24-1.37-30.89-1.31-44.5-10-1.34-.86-2.93-1.39-3-3.29-.1-1.68-1.27-3.81.18-5,1.18-.94,2.84.58,4.19,1.24,17.49,8.62,36,11,55.18,8.75,1.42-.16,3.69-1.5,4.16,1.33C1430.48,625.48,1430.29,628,1427,628.84Zm-18.21-166.48c-2.73.14-7.64-.26-12.52.65-1.17.21-3.21,1.15-3.31-1.16s-1-4.92,2-6.16a5,5,0,0,1,1.4-.23c18.75-1.67,37.24-1.48,54.39,7.87a29.58,29.58,0,0,1,4.44,2.68c1.75,1.43,3.17,3.13,1.53,5.62s-3.46.91-4.92.08a77.71,77.71,0,0,0-21.07-7.79C1424.25,462.42,1417.62,462.22,1408.81,462.36Zm84.31,110.43c-3.66,8.89-7.81,17.51-13.62,25.23a63.51,63.51,0,0,1-23.18,19c-1.12.55-2.34.9-3.07,1.19-1.55.34-2.45-.09-2.78-1.06-.48-1.4-1.74-2.84-.42-4.38a8.37,8.37,0,0,1,2.42-2.15c15.85-8.17,25.09-22,32.61-37.46a29.19,29.19,0,0,1,2-3.68c1.22-1.8,3-3.37,5.13-2.15S1494,570.66,1493.12,572.79Zm3.14-26c-3.62.4-3.89-2.17-4.11-4.38-.59-6.13-1.18-12.2-2.89-18.17a103.77,103.77,0,0,0-14.44-31c-1.65-2.38-5.28-5.54-2.17-8.16,3.42-2.88,6,1.13,7.93,3.61a89.93,89.93,0,0,1,18.69,51.88c0,.48,0,1,0,1.43C1499.31,544.2,1499.6,546.37,1496.26,546.74Z"/><path class="cls-1" d="M1322.26,652.8c-16.67,0-28.12,11.18-28.29,27.72-.17,17,10.89,28.31,27.9,28.41s28.18-11.06,28.27-28C1350.24,664.56,1338.61,652.83,1322.26,652.8Zm-1.52,47.1c-9.92-.31-18.69-9.89-18.18-20s9.71-19,19.94-17.94c11,.28,18.65,8.51,18.35,19.64C1340.57,692.11,1331.64,700.24,1320.74,699.9Z"/><path class="cls-1" d="M597.12,652.76c-16.75-.18-27.67,11.2-27.79,28.94-.12,15.83,11,26.82,26.91,27.29,19.11.57,29-13.91,29.24-27.88C625.8,665,613.6,652.94,597.12,652.76Zm-.53,47.55c-9.89-.1-18.77-9.59-18.69-20,.06-10,9.28-18.69,19.92-18.73,9.36,0,18.92,9.47,18.94,18.87C616.79,690.72,607,700.4,596.59,700.31Z"/><path class="cls-1" d="M590.67,571.84a9.31,9.31,0,0,1-.58,2.11c-8.62,16.67-18.2,32.56-35.42,41.95-1.24.68-2.55,1.23-3.82,1.82-1.87.86-3.83,1.34-4.9-1a4,4,0,0,1,1.59-5.36c2.87-1.94,5.69-4,8.57-5.88,12-8,18.94-20,25.65-32.24.61-1.11,1.06-2.3,1.71-3.38.8-1.34.79-3.61,3.24-3.19C588,566.92,590.64,570.38,590.67,571.84Z"/><path class="cls-1" d="M1496.26,546.74c-3.62.4-3.89-2.17-4.11-4.38-.59-6.13-1.18-12.2-2.89-18.17a103.77,103.77,0,0,0-14.44-31c-1.65-2.38-5.28-5.54-2.17-8.16,3.42-2.88,6,1.13,7.93,3.61a89.93,89.93,0,0,1,18.69,51.88c0,.48,0,1,0,1.43C1499.31,544.2,1499.6,546.37,1496.26,546.74Z"/><path class="cls-1" d="M447.3,599.48a4.67,4.67,0,0,1-6.11,0,9.44,9.44,0,0,1-1.58-1.75c-11.3-15-19.09-31.39-20.1-50.49,0-.63,0-1.26,0-2.13,1.17-1.91-1.41-5.57,2.65-6.52,3.2-.74,4.43.51,4.57,3.93a85.55,85.55,0,0,0,12.2,40.59c2.4,4,5.11,7.9,7.55,11.92C447.28,596.36,449.34,597.87,447.3,599.48Z"/><path class="cls-1" d="M592.16,546.3c-3.26,0-4.6-1.2-4.63-4.38a80.44,80.44,0,0,0-4-26.06,77.46,77.46,0,0,0-13.75-24c-1.78-2.17-4-4.3-1-6.77s4.9.24,6.64,2.23c12.83,14.7,19.39,31.83,19.77,52.52,0-.07,0,1,0,2.15C595.29,544.17,595.84,546.36,592.16,546.3Z"/><path class="cls-1" d="M468.42,471.07c-2.82,3-6.41,5-9.77,7.36-13.21,9.14-21.08,22.11-26.55,36.85-.54,1.44-.82,3.84-3.34,3-2-.64-3.85-1.71-3.36-4.17.4-3.55,1.84-6.51,3.08-9.56C435.24,488,447,475.91,462.22,467a27.87,27.87,0,0,1,2.47-1.31c1.76-.81,3.45-.71,4.69.89C470.76,468.33,469.7,469.69,468.42,471.07Z"/><path class="cls-1" d="M1493.12,572.79c-3.66,8.89-7.81,17.51-13.62,25.23a63.51,63.51,0,0,1-23.18,19c-1.12.55-2.34.9-3.07,1.19-1.55.34-2.45-.09-2.78-1.06-.48-1.4-1.74-2.84-.42-4.38a8.37,8.37,0,0,1,2.42-2.15c15.85-8.17,25.09-22,32.61-37.46a29.19,29.19,0,0,1,2-3.68c1.22-1.8,3-3.37,5.13-2.15S1494,570.66,1493.12,572.79Z"/><path class="cls-1" d="M1350.64,599.48c-2.31,1.7-4.5,1.52-6.21-.73-10.46-13.87-18.89-28.64-20.14-46.51-.18-2.52-.64-5-.83-6.54,0-1.79,0-2.59,0-3.38.07-2.5,1.38-3.63,3.87-3.78,2.65-.17,3.33,1.49,3.4,3.53a85.44,85.44,0,0,0,3.58,22.31c3.39,11.12,9.57,20.79,16,30.33C1351.3,596.23,1353.07,597.68,1350.64,599.48Z"/><path class="cls-1" d="M1372.77,470.07a13.59,13.59,0,0,1-3.56,3.75c-16.77,9.49-26.42,24.87-34.62,41.48-.76,1.55-1.39,3.83-4.12,2.8-1.92-.72-2.75-2-2.16-5.17,1.68-5.09,4.85-10.71,8-16.31a76.53,76.53,0,0,1,28.7-28.91,21.88,21.88,0,0,1,4.23-2.09c1.25-.4,2.93-1.21,3.84.38A3.74,3.74,0,0,1,1372.77,470.07Z"/><path class="cls-1" d="M524,628.33c-4.65,2.27-9.59,1.43-14.91,1.86-14.87-.62-29.78-3.08-43.58-10.38-1.25-.67-2.87-1.06-3.33-2.42-.6-1.78-.88-3.9.57-5.4,1.22-1.27,2.56,0,3.77.56a102,102,0,0,0,47.1,9.67c3-.11,6-.62,9-.79,1.65-.09,3.72-.6,4.08,2A4.27,4.27,0,0,1,524,628.33Z"/><path class="cls-1" d="M1427,628.84a24.1,24.1,0,0,1-4.62.93c-2.84.15-5.68,0-8.53,0-15.24-1.37-30.89-1.31-44.5-10-1.34-.86-2.93-1.39-3-3.29-.1-1.68-1.27-3.81.18-5,1.18-.94,2.84.58,4.19,1.24,17.49,8.62,36,11,55.18,8.75,1.42-.16,3.69-1.5,4.16,1.33C1430.48,625.48,1430.29,628,1427,628.84Z"/><path class="cls-1" d="M1456.76,471.63c-1.64,2.48-3.46.91-4.92.08a77.71,77.71,0,0,0-21.07-7.79c-6.52-1.5-13.15-1.7-22-1.56-2.73.14-7.64-.26-12.52.65-1.17.21-3.21,1.15-3.31-1.16s-1-4.92,2-6.16a5,5,0,0,1,1.4-.23c18.75-1.67,37.24-1.48,54.39,7.87a29.58,29.58,0,0,1,4.44,2.68C1457,467.44,1458.4,469.14,1456.76,471.63Z"/><path class="cls-1" d="M553.11,471.56c-1.41,2.1-3.26,1.55-5,.5a64,64,0,0,0-20-7.89c-11.58-2.56-23.26-2.08-35-1.29-1.72.13-4.15,1.53-3.86-1.95.2-2.32-1.51-5.88,3.13-5.92s9.19,0,13.78,0c15.59-.72,30.48,1.72,43.9,10.3a13.42,13.42,0,0,1,1.61,1C553.37,467.7,554.64,469.31,553.11,471.56Z"/><path class="cls-1" d="M502.15,740.39c.71,17.2-14.51,33.69-31.74,34.38-18.74.75-35.13-14.4-35.9-33.09-.87-20.86,16.18-34.59,34.38-35.33C482.15,705.81,503.41,720.09,502.15,740.39Zm-52.74.35c-1.08,9,8.4,18.91,18.86,18.75,10.18-.16,19.19-8.54,19.2-18.26a19.38,19.38,0,0,0-19.36-19.62C457.93,721.57,449.43,730.26,449.41,740.74Z"/><path class="cls-1" d="M1449.36,713.61c15.05,0,27.35,11.72,27.38,26.15,0,15.4-12,28-26.71,28a27.16,27.16,0,0,1-27.57-27.08A26.62,26.62,0,0,1,1449.36,713.61Zm.92,8.57c-12.13,0-19.54,7.09-19.6,18.79,0,9.89,8.35,18.24,18.41,18.32,10.73.07,19.14-8.1,19.16-18.62S1460.6,722.18,1450.28,722.18Z"/><rect class="cls-2" width="1" height="1"/><rect class="cls-2" x="1919" y="1079" width="1" height="1"/><rect class="cls-2" y="1079" width="1" height="1"/><rect class="cls-2" x="1919" width="1" height="1"/></g><g id="Capa_3" data-name="Capa 3"><path d="M837.47,475.52v111H817.64V515.81l-19.51,14.9L782,543.25l-16.18-12.54-19.51-14.9v70.74H726.44v-111l19.83,15.22L782,518.18l35.68-27.44Z"/><path d="M891.39,512.47V588H871.57V510.41a15.83,15.83,0,0,0-13.49-13.48h-4.44V477.26h4.29v.16a35.65,35.65,0,0,1,13.48,3.65,35.17,35.17,0,0,1,16,16.18,41.44,41.44,0,0,1,2.69,7.45,33,33,0,0,1,1,8.09Z"/><path d="M1017.81,509.14a32.65,32.65,0,0,1-9.2,22.84,32.76,32.76,0,0,1-23.48,55.52H906.94V567.67h78.19a13.07,13.07,0,0,0,13-13,12.92,12.92,0,0,0-12.21-13h-59V521.83h59a13,13,0,0,0-.64-26h-78.2V476h78.2A32.64,32.64,0,0,1,1018,508.67Z"/><path d="M1071.89,512.47V588h-19.83V510.41a15.8,15.8,0,0,0-13.48-13.48h-4.44V477.26h4.28v.16a35.55,35.55,0,0,1,13.48,3.65,35.17,35.17,0,0,1,16,16.18,41.48,41.48,0,0,1,2.7,7.45,33.53,33.53,0,0,1,1,8.09Z"/><path d="M1157.54,475.52a35.81,35.81,0,0,1,35.85,35.84v39.18a35.81,35.81,0,0,1-35.85,35.85h-34.26a35.81,35.81,0,0,1-35.85-35.85V511.36a35.81,35.81,0,0,1,35.85-35.84Zm-34.26,19.82a16.25,16.25,0,0,0-16.18,16.18V550.7a16.25,16.25,0,0,0,16.18,16.18h34.26a16.25,16.25,0,0,0,16.18-16.18V511.52a16.25,16.25,0,0,0-16.18-16.18Z"/></g></g></svg>