<svg xmlns="http://www.w3.org/2000/svg" viewBox="0 0 1920 1080"><defs><style>.cls-1{fill:#f2f2f2;}</style></defs><g id="Capa_2" data-name="Capa 2"><g id="Capa_1-2" data-name="Capa 1"><path d="M950.68,407.9a71,71,0,0,1-28.48-6.66,2.86,2.86,0,0,0-3.46.31c-1.08,1.08-.53,2.27-.17,3.44,1.51,4.9,5.7,5.83,9.91,6.95l32.7,6.91C960.67,411.33,958.26,408.06,950.68,407.9Zm58.87-9.69c-.9-2.33-3.37-1.94-4.7-1.12-7.68,4.72-16.45,6.44-24.76,9.43-.55.2-.93.85-1.48,1.11-2.38,1.14-5.85-1.17-7.5,2.2-1.79,3.67,2.92,3.89,3.6,6.46l13.76-4.6c6.74-1.9,13-5.72,18.7-9.93C1008.24,401,1010.28,400.11,1009.55,398.21Zm0,0c-.9-2.33-3.37-1.94-4.7-1.12-7.68,4.72-16.45,6.44-24.76,9.43-.55.2-.93.85-1.48,1.11-2.38,1.14-5.85-1.17-7.5,2.2-1.79,3.67,2.92,3.89,3.6,6.46l13.76-4.6c6.74-1.9,13-5.72,18.7-9.93C1008.24,401,1010.28,400.11,1009.55,398.21Zm-58.87,9.69a71,71,0,0,1-28.48-6.66,2.86,2.86,0,0,0-3.46.31c-1.08,1.08-.53,2.27-.17,3.44,1.51,4.9,5.7,5.83,9.91,6.95l32.7,6.91C960.67,411.33,958.26,408.06,950.68,407.9Zm827.53-9.82c-6-5.28-11.45-8.28-18-9.92-5-1.24-9.78-1.14-14.62-1.14q-140.89-.15-281.78.06c-9.69,0-20.07.87-28.73-2.08-19.21-6.53-39.2-9.92-58.35-16.39-3-1-5.79-1.29-5.79-5.39,0-1.69-1.36-2.26-3.16-2.59-8.94-1.64-17.83-3.54-26.72-5.4-12.13-2.53-24.35-4.82-36.39-7.54-12.59-2.85-25.47-4.84-37.77-9.06-3.49-1.19-6.07-.73-7.35,4.17-1.47,5.65-3,5.51-9.7,3.75a95.71,95.71,0,0,0-12.9-2c-7.42-.93-14.87-1.66-22.29-2.58-36.21-4.46-72.43-8.79-108.85-11.08-6.31-.39-10.06-4.33-14.38-8.11-3.41-3-3-6.46-3.18-10.07-.52-9.47.82-19-1.83-28.42-2.36-8.39-7.09-14.19-14.3-18.81-8.08-5.17-16.85-6.27-26-6.48-5-.11-11.27,2.33-14.51-.87-3.6-3.57-1.09-10.09-1.18-15.3-.13-9-.77-17.78-4.07-26.27-2.2-5.66-6.62-10-9.58-15.17,2.55-1.53,4.8-.61,6.85-1.06,18.78-4.1,37.84-6.57,56.74-10,3.51-.64,4.94-1,5.56,3.06,2.25,14.32,8.72,17.79,22.5,12.67,28.76-10.67,57.65-21.06,86.33-32,7-2.66,14.43-4.89,19.8-10.84,5.17-5.72,5.2-9.75.14-15.29s-11.33-6.53-18.49-5.33c-22.88,3.82-45.8,7.39-68.71,11q-28.58,4.55-57.15,9.05c-11.45,1.82-22.88,3.72-34.34,5.52-15,2.38-30,5-45.06,7-9.74,1.31-19.3,4.09-29.86,4.2l-4.42-.27a183.79,183.79,0,0,1-33.85-4c-12-2.61-24.1-3.74-36-6.09-30.51-6-61.53-9.08-92.11-14.78-17-3.17-34.27-4.5-51.23-8-4.14-.85-8.8.24-12.68-1.13a55.84,55.84,0,0,0-16.39-2.73c-8.15-.37-11.29,2.14-13.36,9.82a13.52,13.52,0,0,0,6.74,15.58,71.84,71.84,0,0,0,9.16,4.38c31.53,11.39,62.69,23.7,93.71,36.38,10.3,4.22,20.62-.29,22.5-13.38.29-2-1.09-4.37,1.06-6,21.91,4.81,44.11,7.73,66.53,11.43-.51,1.41-.6,2.41-1.15,3-6.83,7.69-9.93,16.68-10.57,26.9-.47,7.48-1,14.95-.84,22.43.1,4.08-.61,6.23-5.51,6.25H867.38a54.89,54.89,0,0,0-22.34,5.2c-11.35,9.77-14.68,21.48-14,34.71.17,3.11.12,6.23,0,9.35-.26,11.77-6.27,19-17.8,21.06-21.8,3.83-43.94,4.73-65.87,7.4-23.82,2.88-47.67,5.49-71.46,8.56-5.16.66-10.56-.1-15.18,2.38-1.8-1.6-1.72-3.69-2.3-5.29-1.39-3.86-4.26-4.76-7.11-3.76-4.46,1.55-9.33.73-13.43,2.28-13.3,5.07-27.49,6.21-41.11,9.88-9.93,2.69-20.32,4.5-30.6,6.23-5.89,1-11.36,3.91-17.46,4.1a2.37,2.37,0,0,0-.89.15c-.79,11-10.89,8.47-16.74,10.18-16.49,4.87-33.43,8.07-49.81,13.6-6.94,2.35-14.77,1.82-22.28,1.82q-128.65-.09-257.3-.06c-9.67,0-19.35.25-29-.1-12-.44-23.28,1.22-32.72,10.2a21.28,21.28,0,0,0-4.24,10.43v88.31c-.07,11.68.91,22.9,9.92,31.83,2.12,2.11,3.19,5.23,5,7.72a26.8,26.8,0,0,1,5,17.43c-.33,8.41-.27,16.85-.11,25.27.24,12.46,5.59,22.83,14.65,30.94,8.28,7.42,17.45,13.84,26,21,6.49,5.41,14,7.81,22.15,8.33,5,.31,10,.14,15,.25,11.7.26,23.27-9.68,23.79-22.87.14-3.75.15-7.48.24-11.23.32-11.84-.47-23.69.44-35.53.44-5.82,2.75-10.39,7.94-12.28,5.55-2,11.78-3,16.67,2,9.44,9.59,21.22,11.94,34,11.86,21.53-.12,43.06,0,64.6,0,12.28,0,13.93,1.26,17.76,13.1.75,2.35,1.32,4.73,1.94,7.11,4.6,17.79,8.78,35.7,13.86,53.35,11.88,41.25,21.76,83,33,124.44,5.58,20.62,9.67,41.7,21.89,60,7.92,11.84,16.4,22.88,28,31.6a167.85,167.85,0,0,0,37.34,21.61c25.72,8,58.78,4.23,58.78,4.23,5.95-1.48,12-2.59,17.84-4.5,21.46-7,43.45-12,65.58-16.28q45-8.76,90.43-14.34c17.86-2.18,35.69-5,53.74-5.07,8.46-2.45,17.25-1.83,25.85-2.53,17.08-1.39,34.24-1.8,51.35-2.84,4.25-.26,6.73.51,5.91,5.4s1.24,6.35,6.13,6.22l91.45-.25c12.59,0,12.59.06,14.07-11.43a4.82,4.82,0,0,1,1.73-.57c32.34,2.29,64.74,4.07,97,7.09a1129.78,1129.78,0,0,1,114.15,16.2c21.3,4.21,42.59,8.28,63.47,14.38,13.21,3.87,26.36,8.28,40.33,9.09,21.85,1.27,42.88-1.74,62.65-11.44,10.8-5.29,20.52-12.12,30-19.74,10.25-8.28,17.88-18.45,24.71-29.17,7-11,11.58-23.4,14.75-36.29,3.82-15.55,8.68-30.85,12.87-46.31,4-14.62,7.65-29.3,11.4-44,4.48-17.56,8.33-35.3,13.45-52.66,6-20.21,11.29-40.57,16.23-61,2.73-11.29,7-15.21,18.92-15.29,20.91-.15,41.83-.48,62.72,0,13.48.32,25.06-2.36,35.24-12.11,8.44-8.1,22.76-2,25.53,9.53,1,4.36,1,8.6,1.11,12.93.29,12.47-1.11,24.95.1,37.41,1.18,12.27,9.58,19.93,22.06,20.22,3.74.09,7.5-.15,11.23.12,9.24.65,17.12-2.52,24.5-7.78s13.92-12.1,21.43-17.14c16.55-11.1,22.79-26.56,22.71-45.55,0-7.8.26-15.62-.17-23.4a12.65,12.65,0,0,1,2.08-7.74c3.08-4.88,6-10,9.86-14.22,6.18-6.89,8.32-14.7,8.23-23.75V409.62C1784.19,403.43,1778.21,398.08,1778.21,398.08ZM325.55,550.3c0,1.5.29,3.18-1.73,3.77-6.59,2.44-13.18,1.74-19.75-.11-4.66.14-7.74-2.78-11-5.47-5.4-4.39-11.5-8.55-18.37-8.58-12.43-.09-22.87,4.85-29,16.45-2.81,5.31-3.66,11.14-3.64,17.11,0,13.08.11,26.16.05,39.24-.05,9.46-.63,9-9.88,10.9A36.16,36.16,0,0,1,211.9,622c-3.4-1.25-6.81-2.53-9.36-5.14-5.94-6.08-13-10.73-19.58-16-7.92-6.42-13.09-14.44-12.62-25.29.31-7.14.07-14.32.13-21.47.11-11.35-3-21.43-10.34-30.39-3.21-3.91-4.7-9.2-8.88-12.52-1.86-1.48-1-3.33-1-5.13q0-45.76,0-91.52c0-6.48,2.9-10,9.84-12,3.59-1.4,7.37-1,11.07-1.05q73.38-.19,146.74-.25c2,0,4.4-1.16,5.95,1.26,2.47.86,1.7,3,1.7,4.71Q325.6,478.77,325.55,550.3Zm20.55,3.77c-4,2.13-8,1.66-12,0-1.46-2.94-.74-6.1-.74-9.15q-.07-64.22,0-128.42c0-4.22.48-8.46-1.41-12.53-.39-.85,1-1.23,1.92-1.29,4.06-1.69,8.11-2.3,12.19-.12,1.11,1.68.84,3.6.84,5.43q.06,70.37,0,140.71C347,550.5,347.33,552.42,346.1,554.07Zm683.62-240.82c0-10.29,0-20.58.17-30.88,0-2.27-1-4.93,1.31-6.83,3,.21,2.26,2.53,2.26,4.13,0,15.59.87,31.24-.25,46.76-1.71,23.37-13.38,41.18-33.46,53.5-10.29,6.31-21.46,8.61-33.33,8.42-2.37,0-4.82.26-7.1-1.87,4.38-2.67,9.25-1.71,13.7-2.4,22.83-3.56,38.85-16.35,49.36-36.32C1028,337.07,1029.76,325.3,1029.72,313.25Zm-9.31,18.58c-3.49,15.7-12.69,27.77-26.08,36.7-16.78,11.2-35.27,12.38-53.68,6.77-11.57-3.51-20.85-11.93-27.85-22.29-8.12-12-10.79-25.32-10.49-39.68.36-17.18,7.15-31.3,19.23-42.94,7.7-7.39,17.5-11.29,27.81-13.72a87.07,87.07,0,0,1,12.83-1.74,68.23,68.23,0,0,1,33.56,10.68c3.12,1.95,3.54,3.44,2,6.34-4.51,8.29-5.65,8.73-15.09,3.68-16.39-8.77-32.55-7.87-47.79,2-16.64,10.81-22.7,27.19-20.83,46.46,2,20.22,14,33.62,32.26,40.19,17.91,6.44,34.23,1.47,48.45-11.5,11.86-10.8,15.28-24.58,15.86-39.58.41-10.59.12-21.2.36-31.79.06-2.82-.55-6.7,4.48-6.16,2.08-.9,4.16-2.51,6.27,0C1022.48,294.14,1024.57,313.12,1020.41,331.83ZM1001,289.69c-2.39,0-2.45-2.61-2.4-4.15s.15-4.22,2.4-4.22c2.56,0,1.83,2.53,2.1,3.92C1003,287.25,1003.57,289.67,1001,289.69Zm-50.85,57.94c-12.75-5.73-21.39-14.38-21.45-29.41,0-5,0-10,0-14.91.09-11.18,4.85-18.29,15.16-22.22,3.89-1.48,8-2.45,13.25-4a34.67,34.67,0,0,1,10.57.91,54.77,54.77,0,0,1,17.7,7c2.35,1.38,4.86,3.1,5,6.27.43,10.55,1.75,21.24-.68,31.59-3,12.91-12.09,21.57-28.47,24.79C956.75,348.69,950.15,347.63,950.15,347.63Zm8.15,9.18c-7.84,2.61-8.64,2.77-18.48-2.85-3.85-2.19-9.27-4-8.6-12.37C937.86,351.91,948.39,352.6,958.3,356.81Zm23.34-9.89c5.45-5.71,11-10.77,13.8-18.93,2.87-8.31,1.4-16.59,3-24.69,8.16,7.86,4.91,26.14-2.55,37.6-7.64,11.75-23.55,19.72-36,17.12C966.91,352.73,975.89,352.94,981.64,346.92Zm20.48-88.84c-4,1.55-6.72-1.11-9.45-2.5-22.77-11.6-44.84-10.33-66.84,2.27-3.27,1.87-5.17,5.31-9.69,6.66-1.11-11.81-1.77-23.61.28-34.88A17.38,17.38,0,0,1,932,215.22c6.77-.8,13.46-2.29,20.15-3.62l14.19,0c7.48,1.5,15.27,2,22.35,5,7.89,3.4,12.91,9.34,13.59,18.32A169.91,169.91,0,0,1,1002.12,258.08ZM1199.79,151a12,12,0,0,1,3.43-1.08c2.86-.13,5.43-.48,6.65,3.28,1.07,3.35.09,5.49-2.63,7-3.68,2.07-7.31,4.48-11.29,5.7-23.72,7.28-46.56,17-69.83,25.44-6.24,2.27-12.61,4.38-18.5,7.4-2.73,1.4-5.34.84-7.81,1.51-4.15.81-5-1.36-6.86-4.79-2.46-4.67,1.17-6.43,2.81-7.29a140,140,0,0,1,18.32-7.46c20.9-7.36,41.84-14.58,62.76-21.83C1184.49,156.23,1192.18,153.71,1199.79,151Zm-45.22,6c-5,4.1-10.68,6.28-16.71,8.1-9.56,2.87-18.61,7.42-28.15,10.35a332.32,332.32,0,0,1-43.73,9.84c-17.28,2.85-34.77,4.51-51.81,8.84a9.9,9.9,0,0,1-7.68-1.06c-5.52-3.14-11.2-6.66-18-7.05-.36,0-.67-1-1.65-2.52ZM792.62,194.14a355.83,355.83,0,0,0-38.32-14.47c-1.67-.51-2.35-1.89-2.89-4.52l58.4,10.25C804.9,199.35,804.86,199.43,792.62,194.14Zm29.64,7c-1.78,1.9-4.25,3.28-6.63,2.31-2.1-.85-1.54-3.65-1.83-5.57.18-5.81,2.23-7.69,7.05-7a5.09,5.09,0,0,1,4.53,3.94C826.2,197.73,823.91,199.34,822.26,201.1Zm49.2-12.9c-7.87-2-16.53-1-24.28-3.26-9-2.61-18.2-3.24-27.22-5.07s-18.23-3.38-27.47-4.35c-4.47-.47-8.8-2.55-13.26-2.83-15.06-.93-29.69-4.65-44.59-6.66-7.1-1-14.09-3.34-21.54-3.57-4.37-.12-7.49-4.14-7-7,.75-4.2,3.66-6.59,8.86-5.92,13.89,1.77,27.75,3.87,41.59,6,14.65,2.29,29.26,4.88,43.91,7.18,24.81,3.9,49.65,7.6,74.45,11.52,22,3.49,43.92,7.15,65.87,10.75l24.11,3.86c16.5,2.26,33.18,3.63,45.6,17.17a40,40,0,0,1,10.62,22c1.49,10.12,2.61,20.11-.16,30.15-3.21,1.73-6.42,2.64-9.68.13-1.58-4.89-.6-9.9-.35-14.79.48-9.6-3.77-17.67-7.52-25.89-2.36-5.15-8.41-6.79-12.75-7.94L913.9,196C899.77,193.88,885.46,191.73,871.46,188.2Zm26,33.77c1.25-6.77,5.7-12.5,10-18,1.09-1.4,2.55-2.25,4-1.56,6.52,3.06,14.24.12,20.23,4.59-.72,1.68-1.56,2.4-3,2.56-10.94,1.32-16.21,8.47-19,18.33-2.31,8.25-1.42,16.68-1.61,25.06-.15,6.46-.11,6.53-6.33,6.65-1.82,0-3.63,1.13-6.14-.29C895.61,247.07,895.18,234.39,897.49,222Zm-7.66,57.29c-.05-4.55,1.63-6.14,6.09-5.54,3.33.44,6.84-.38,10.85,2-13.94,22.89-15.79,46.48-6,70.41,10.1,24.69,31,35.73,56.07,39.77-.92,4.05-3.12,2.66-4.67,2.55-10-.65-19.83-2.59-28.69-7.32-11.28-6-19.6-15.1-26-26.31-5.46-9.65-7.08-20.13-7.53-30.69C889.35,309.17,890,294.2,889.83,279.26ZM666.4,361.42c16.41-1.8,32.79-3.92,49.19-5.77,33.14-3.71,66.24-7.78,99.44-10.76,14.34-1.28,33.11-20.22,31.2-37.15-.67-5.85-.18-11.85.18-17.75.53-8.7,4.46-13.1,13.05-14.93a91.46,91.46,0,0,1,17.65-1.66c4.24-.06,5.27,1.73,5.24,5.55-.12,14-.22,28.07,0,42.1.21,11.46,1.63,22.74,6.94,33.18,12,23.62,30.76,37.21,57.34,41.15a90.11,90.11,0,0,0,51.85-7.24c20.16-9.13,32.67-25.07,39.34-45.87,2.66-8.29,3.38-16.84,3.32-25.51-.09-12.48.21-25-.06-37.43-.1-4.66,1.61-6.15,6-5.59,3.09.4,6.23.42,9.3.89,10,1.54,16.46,8.78,16.91,18.87.37,8.68-.58,17.38,1.29,26.07,2.12,9.84,11.67,23.14,26.5,24.84,23.84,2.73,47.74,4.93,71.58,7.62,27.2,3.08,54.35,6.45,81.55,9.7.7,6.8-2.88,12-3.61,17.83-.95,7.53-3.26,14.94-5.55,22.23-3.1,9.8-10.09,14.74-20.33,13.84-20.8-1.83-41.54-4.51-62.35-6.22-31.69-2.6-63.43-4.69-95.16-7-6.53-.47-13.07-.93-19.61-1.31-7.68-.45-14.24,1.68-20.61,6.49-12.92,9.76-27,17.49-43.29,19.92-30.84,5.84-52.38-.75-52.38-.75-11-1.31-20.77-5.63-30-11.52-6.16-3.95-12.05-8.24-18.61-11.66a21.94,21.94,0,0,0-12.41-2.41c-47.6,3.3-95.25,5.93-142.74,10.72-11.48,1.16-22.92,2.62-34.42,3.62-12.5,1.09-17.39-4.16-20.07-12.15-2-5.94-3.93-12.48-4-19.06,0-2.55-1.58-4.42-2.39-6.38,2.84-2.28,6-.88,8.47-2.14,2.13-1.08,3.29-2.83,2.75-5.34-.73-3.43-3.7-2.54-5.11-1.67-4.27,2.62-7.32,2.72-9.3-2.48C662.4,363.39,662.73,361.82,666.4,361.42ZM900.09,824.47a56.74,56.74,0,0,1-8.33.9c-46.2,1-92,6.25-137.81,11.89-12.86,1.59-25.64,5.39-38.4,6.42-13.15,1.06-25.59,5.37-38.62,5.93-5.37.22-10,2.53-15,3.64-19,4.15-38,8-56.53,14.32a72.74,72.74,0,0,1-20,3.68c-19.9.89-39.37-.86-57.6-9.59-17.91-8.58-32.77-20.82-43.84-37.48a102.8,102.8,0,0,1-10.46-20.76c-7.75-20.51-12.1-41.93-17.93-62.95q-7.73-27.79-15-55.7c-6.94-26.6-13.58-53.27-20.56-79.85-2.56-9.74-5-19.53-8-29.14-2.73-9-8.59-16-18.72-18.06-1.39-.28-2.57-1.56-3.85-2.38l-30.43,0c-1.18,0-2.48.23-3-1.31-2.12-3.11-1.15-6.64-1.15-10q-.07-65.85.12-131.71c0-3.25-1-6.81,1.32-9.8,3.13-2.06,6.65-1,9.94-1q54.58-.19,109.16-.12c13.27-2.27,26-6.83,38.7-10.89,10.72-3.41,22-4.17,32.49-8,2.88-1.06,4.8.51,5.47,3.36.49,2.11.68,4.28,1,6.46-8.06,4.24-17.13,4-25.59,6.29-2.4.66-4.42,2-6.76,2.68a3.09,3.09,0,0,0-2,3.76,3.68,3.68,0,0,0,3.49,2.63,15.43,15.43,0,0,0,4.64-.38c3-.71,5.92-1.74,8.92-2.43,7.79-1.78,8.64-1.11,8.76,6.88.12,7.48.06,15,.17,22.44,0,1.41-.33,3.33,1.83,3.66a3.45,3.45,0,0,0,4-3,30.51,30.51,0,0,0,.47-6.49c0-7.79-.06-15.59,0-23.37,0-1.7-.5-4.15,2.37-4.07,2.5.06,2.46,2.23,2.78,4.08.92,5.14,1.45,10.43,3.07,15.37,4.12,12.57-2.8,19.21-13.56,23.07-15.35,5.5-31.25,9.1-46.64,14.63-20.26,7.27-31.83,21.95-40.2,40.36-4.59,10.09-4.87,21.05-5,31.79-.43,28-.78,56.11-.23,84.14.65,32.93,6.95,64.66,21.59,94.61a258.21,258.21,0,0,0,32.16,50.32c9.46,11.61,20.7,20.9,32,30.29a3.52,3.52,0,0,0,.74.56c4.17,1.8,3.22,8.86,8,9s7.5,3.3,11.21,4.89c3.91,1.68,7.36,4.42,11.12,6.5,20.67,11.46,42.83,19,65.78,24.1,8.15,1.8,16.67,1.85,25,2.7,3.27.44,6.78-.67,9.81,1.44,1.39,4.06,4.42,4.4,8.08,3.75,11-2,22-3.46,32.9-5.84,14.23-3.12,28.66-5,43-7.1,23.72-3.38,47.44-6.69,71.3-9,24.22-2.29,48.49-3.59,72.77-4.86,2.07-.12,4.53-.73,5,2.55S903.49,823.88,900.09,824.47Zm107.77-6.57c-.08,7.15-.26,14.3,0,21.44.18,4.27-1.53,5.27-5.43,5.15l-87-.34c-2.78,0-3.9-1.13-3.87-3.84.08-8.71.13-17.41.1-26.13l-.32-2a10.27,10.27,0,0,0-11.09-8.56l-74.56,6.85c-14.45,2.45-28.85,5.15-43.35,7.27-15.44,2.26-31.15,3-46.36,6.23-14.24,3-28.52,4.55-42.91,5.84-15.61,1.39-31.13.27-46.64-1.87-9.19-1.26-18.6-1.73-27.34-4.77-12.21-4.22-24.56-8-36-14.48-9-5.06-18.16-9.76-27-15.18-3.82-2.35-5-4.84-5-8.88.11-8.11,0-16.21-.1-24.32,0-2.17-.11-4.5-3.25-4.62s-3.42,2-3.55,4.32c-.4,7.14-.8,14.28-1.19,21.2-2.41,1.67-3.64,0-5-1.19-16.2-14.47-30.93-30.46-42.58-48.65C482.29,710.7,472,688.28,466.72,664c-3.25-14.79-4.4-29.87-4.6-45-.39-27.76-.54-55.52-.93-83.27a158.16,158.16,0,0,1,1.89-27c1.29-8.11,5.52-15.3,10-22.23,8.19-12.54,20.28-19.5,34-23.95,12.35-4,24.92-7.31,37.39-11,11-3.26,20.13-8.52,22.45-21.22a26,26,0,0,0-.84-11.88c-4.58-16.68-7.38-33.69-10.43-51.37,17.38-3.81,34.28-7.61,51.23-11.19,13.23-2.81,26.53-5.29,39.58-8.89,5.17-1.43,5.82-.75,7,4.72,1.28,5.94,3,11.81,4.58,18.15-7.44,2.57-15.84,3.83-22.7,9.13a37.22,37.22,0,0,0,18.87-.19c4.29-1.21,6.53-.62,7.12,5,.73,6.92,3.24,13.67,5.3,20.39,3.81,12.39,13.65,20.27,27.09,19,15.51-1.5,31-3,46.51-4.75,27.29-3.11,54.68-4.62,82-6.58,14.94-1.07,29.89-1.85,44.81-3.15,7.4-.64,14,.37,20,5.05,13.25,10.23,27.9,17.58,44.49,20.73,28,5.49,56,0,56,0,16-2.93,29.62-11,42.45-20.34,5.36-3.88,10.68-5.91,17-5.5,29.88,1.9,59.74,4,89.61,5.91,27.91,1.76,55.65,5,83.39,8.3A30.45,30.45,0,0,0,1253.22,399c1.13-4.95,3-9.73,3.65-14.86.45-3.66,2.72-5.32,6.5-4.67,7,1.2,14.31,1,21.11,3.56a6.5,6.5,0,0,0,2.66.67c1.88-.15,4.59,1.45,5.11-2.1.34-2.3-1.16-2.82-2.84-3.91-2.52-1.66-5.23-1.73-7.88-2.39-5.93-1.46-12.11-1.3-18-3-3.35-1-3.72-2.1-2.58-5.16,1.66-4.44,3.19-8.9,3.31-13.88.12-5.39,2.48-6.41,8.08-5.39,27.09,4.95,53.84,11.49,80.78,17.17a39.29,39.29,0,0,1,4.45,1.05c3.58,1.18,6,1.09,4.48,7-4.12,16-6.58,32.51-9.57,48.83-2.26,12.38,2.69,23.54,16.51,28,13.64,4.39,27.5,8,41.18,12.3,31.42,9.83,47.53,34.93,47.91,64.32.45,34.3,1.41,68.65-1.06,102.9a208.39,208.39,0,0,1-29.27,93.32,254.63,254.63,0,0,1-36.25,46.79c-4.19,4.31-9.63,7-13.41,11.83l-1.86-.59c-.15-6.68-.25-13.35-.45-20-.06-2,.52-4.68-2.91-4.65s-3,2.58-3,4.67c-.27,7.16-.72,14.35-.55,21.5.13,5.23-1.58,8-6.5,10.62-9.91,5.37-19.39,11.53-29.59,16.45-15.86,7.65-32.38,14.32-49.4,17.53a230.76,230.76,0,0,1-66,2.54c-7.8-.79-16.22-.56-23.35-2.61-9.17-2.64-18.57-3.27-27.71-4.82-7.14-1.2-14.11-3.62-21.48-3.95s-14.87-1.8-22.32-2.33l-99.36-12C1013.21,803,1008,807.72,1007.86,817.9Zm556.48-270c0,2.09.65,4.4-1.13,6.21-11,2.29-22.06.91-33.11,1-17.15,2.56-22.81,15.17-26.59,29.82q-19.47,75.57-39.32,151c-5.46,20.68-10,41.63-16.88,61.9-6.7,19.75-18.64,35.55-34.73,49.11-13.86,11.67-29.75,18.25-46.5,22.68-10,2.64-20.95,2.18-31.61,1.82-14.91-.51-28.6-5.71-42.7-9.5-12.49-3.36-25.16-6-37.82-8.76-10.89-2.34-22.19-3.12-32.69-7.17-3.72-1.44-7.89-1-11.5-1.36-10-.88-19.45-6.42-29.84-4.16-6.73-4.41-14.69-1-22.09-3.81-7.62-2.92-16.52-2.63-24.88-3.5-37.27-3.89-74.6-6.95-112.08-8-2.53-.07-5.74,1-5.71-3.76,0-5.41.22-5.89,6.58-5.69,21.81.65,43.57,2.29,65.26,4.45q55.32,5.52,110.22,14.45c9.63,1.56,19.33,3,28.84,5.58,3.47.95,7.38.38,11.46-1A35.48,35.48,0,0,1,1255,838.1h0a2.51,2.51,0,0,0-.19.24l.1,0c6.65-2.82,13.86-1.79,20.77-2.94a218.45,218.45,0,0,0,77.12-28.47c3.83-2.3,7.7-4.5,11.45-7,2.64-1.73,6.21-4.89,10.29,1,1.27-7.32,3.9-11.39,8.73-15.41a237.12,237.12,0,0,0,56-67.9c9.5-17.13,14.27-35.94,19.84-54.56,7.2-24.1,6.73-48.72,7.24-73.36a289.62,289.62,0,0,1,0-35.6c-.13-7.16-.57-14.33-.35-21.48.61-19.13-5.26-36.3-16.18-51.61-5.44-7.61-13-13.35-21.29-18.11-12-6.86-25.63-8.9-38.16-14.07-6.25-2.58-13.08-2.55-19.41-5.32-9.4-4.11-11.83-8.75-11.38-19,.49-11.53,5.4-22.13,5.58-33.54,0-2.51,2.17-3.65,2.29-5.85.15-3.08,1.77-3.26,4.43-2.53,19.38,5.33,39.1,9.42,58.13,16,4,1.39,8.3,2.09,12.45,3.12q59-.25,118-.46c1,0,2.6-.84,2.85,1.19,1.77,2.17,1.18,4.78,1.18,7.19Q1564.44,478.78,1564.34,547.93Zm20,7c-3.14.92-6.66,1.71-10,.11-2.13-1-1.92-3-1.94-4.81,0-5.9,0-11.82,0-17.73q0-60.24.07-120.5c0-1.86.16-3.74,0-5.6-.27-3.46.94-5.29,4.69-4.91,2.72.27,5.51-.84,8.21.36,1.44,3,.81,6.16.81,9.23q.11,67.71.09,135.43a14.41,14.41,0,0,1,0,1.86C1585.87,550.71,1587.38,554.05,1584.3,555Zm181.83-43.63c-2.59,3.8-5.46,7.41-8.09,11.18-6.38,9.14-9.08,19.34-8.94,30.42.08,6.22-.35,12.47,0,18.68.62,11.12-3.58,19.95-12,26.81s-17.11,13.1-25.34,20c-9.3,7.86-20.1,4.3-30.4,4.69-2.2.08-2.83-2.29-3.36-4-1.13-3.59-1.1-7.36-1.07-11.1.09-10.59.26-21.18.24-31.76,0-18.67-6.07-27.29-23.78-34.39a9.3,9.3,0,0,1-2.13-1.73l-10.82.07c-7.23,2.47-14.4,4.84-19.38,11.34-2.78,3.63-7.4,2.67-11.34,3-16.12,1.38-16.11,1.34-16.1-14.32,0-42.62,0-85.25.14-127.87,0-3.2-1.78-6.61.51-9.71,1.7-2.05,4-1.23,6.1-1.23q76.41,0,152.82.21c2.14,0,4.37-.33,6.36.9,7.29,3,9.54,9.31,9.6,16.23.24,28,.07,56,.14,84.06C1769.28,506.18,1767.84,508.81,1766.13,511.33Zm-791.42-95,13.76-4.6c6.74-1.9,13-5.72,18.7-9.93,1.07-.79,3.11-1.65,2.38-3.55-.9-2.33-3.37-1.94-4.7-1.12-7.68,4.72-16.45,6.44-24.76,9.43-.55.2-.93.85-1.48,1.11-2.38,1.14-5.85-1.17-7.5,2.2C969.32,413.5,974,413.72,974.71,416.29Zm-46.23-4.35,32.7,6.91c-.51-7.52-2.92-10.79-10.5-11a71,71,0,0,1-28.48-6.66,2.86,2.86,0,0,0-3.46.31c-1.08,1.08-.53,2.27-.17,3.44C920.08,409.89,924.27,410.82,928.48,411.94Z"/><path class="cls-1" d="M1458,526.56c-.38-29.39-16.49-54.49-47.91-64.32-13.68-4.28-27.54-7.91-41.18-12.3-13.82-4.45-18.77-15.61-16.51-28,3-16.32,5.45-32.8,9.57-48.83,1.53-5.95-.9-5.86-4.48-7a39.29,39.29,0,0,0-4.45-1.05c-26.94-5.68-53.69-12.22-80.78-17.17-5.6-1-8,0-8.08,5.39-.12,5-1.65,9.44-3.31,13.88-1.14,3.06-.77,4.17,2.58,5.16,5.93,1.74,12.11,1.58,18,3,2.65.66,5.36.73,7.88,2.39,1.68,1.09,3.18,1.61,2.84,3.91-.52,3.55-3.23,1.95-5.11,2.1a6.5,6.5,0,0,1-2.66-.67c-6.8-2.57-14.07-2.36-21.11-3.56-3.78-.65-6,1-6.5,4.67-.63,5.13-2.52,9.91-3.65,14.86A30.45,30.45,0,0,1,1220,422.81c-27.74-3.3-55.48-6.54-83.39-8.3-29.87-1.89-59.73-4-89.61-5.91-6.29-.41-11.61,1.62-17,5.5-12.83,9.31-26.49,17.41-42.45,20.34,0,0-28,5.53-56,0-16.59-3.15-31.24-10.5-44.49-20.73-6.06-4.68-12.64-5.69-20-5.05-14.92,1.3-29.87,2.08-44.81,3.15-27.37,2-54.76,3.47-82,6.58-15.48,1.76-31,3.25-46.51,4.75-13.44,1.3-23.28-6.58-27.09-19-2.06-6.72-4.57-13.47-5.3-20.39-.59-5.61-2.83-6.2-7.12-5a37.22,37.22,0,0,1-18.87.19c6.86-5.3,15.26-6.56,22.7-9.13-1.61-6.34-3.3-12.21-4.58-18.15-1.17-5.47-1.82-6.15-7-4.72-13.05,3.6-26.35,6.08-39.58,8.89-16.95,3.58-33.85,7.38-51.23,11.19,3.05,17.68,5.85,34.69,10.43,51.37a26,26,0,0,1,.84,11.88c-2.32,12.7-11.4,18-22.45,21.22-12.47,3.67-25,7-37.39,11-13.7,4.45-25.79,11.41-34,23.95-4.52,6.93-8.75,14.12-10,22.23a158.16,158.16,0,0,0-1.89,27c.39,27.75.54,55.51.93,83.27.2,15.12,1.35,30.2,4.6,45,5.32,24.26,15.57,46.68,28.83,67.39,11.65,18.19,26.38,34.18,42.58,48.65,1.36,1.21,2.59,2.86,5,1.19.39-6.92.79-14.06,1.19-21.2.13-2.3.46-4.43,3.55-4.32s3.22,2.45,3.25,4.62c.1,8.11.21,16.21.1,24.32-.05,4,1.14,6.53,5,8.88,8.81,5.42,18,10.12,27,15.18,11.48,6.49,23.83,10.26,36,14.48,8.74,3,18.15,3.51,27.34,4.77,15.51,2.14,31,3.26,46.64,1.87,14.39-1.29,28.67-2.82,42.91-5.84,15.21-3.23,30.92-4,46.36-6.23,14.5-2.12,28.9-4.82,43.35-7.27l74.56-6.85a10.27,10.27,0,0,1,11.09,8.56l.32,2c0,8.72,0,17.42-.1,26.13,0,2.71,1.09,3.86,3.87,3.84l87,.34c3.9.12,5.61-.88,5.43-5.15-.31-7.14-.13-14.29,0-21.44.14-10.18,5.35-14.87,15.66-14.16l99.36,12c7.45.53,14.86,2,22.32,2.33s14.34,2.75,21.48,3.95c9.14,1.55,18.54,2.18,27.71,4.82,7.13,2,15.55,1.82,23.35,2.61a230.76,230.76,0,0,0,66-2.54c17-3.21,33.54-9.88,49.4-17.53,10.2-4.92,19.68-11.08,29.59-16.45,4.92-2.67,6.63-5.39,6.5-10.62-.17-7.15.28-14.34.55-21.5.07-2.09-.28-4.66,3-4.67s2.85,2.62,2.91,4.65c.2,6.67.3,13.34.45,20l1.86.59c3.78-4.81,9.22-7.52,13.41-11.83a254.63,254.63,0,0,0,36.25-46.79A208.39,208.39,0,0,0,1457,629.46C1459.45,595.21,1458.49,560.86,1458,526.56ZM544.56,461.24c0-1.85.2-3.86,2.73-4.09,3.11-.28,3.55,1.85,3.57,4.2,0,5.92,0,11.85,0,17.77h0V496c0,1.95-.15,3.69-2.77,3.88-3,.2-3.72-1.44-3.71-4C544.5,484.33,544.49,472.78,544.56,461.24Zm2.29,278c-3.34,0-2.34-3-2.4-4.93-.17-5.56-.05-11.13-.05-16.71h.31c0-6.19,0-12.37,0-18.56,0-1.72.77-2.94,2.74-2.85,1.7.08,3.06.8,3.09,2.69.18,12.06.34,24.12.39,36.18A4.06,4.06,0,0,1,546.85,739.24Zm4.25-81h-.25c0,5.9,0,11.81,0,17.71,0,2-.28,3.66-2.91,3.7-2.45,0-3.24-1.23-3.26-3.42-.14-11.81-.34-23.61-.42-35.42,0-1.92.61-3.78,3.11-3.66,2.67.13,3.76,1.74,3.74,4.31C551.08,647,551.1,652.61,551.1,658.2Zm43.51-71c-4.46,16-20.14,26-36.46,29.28-14.46,2.86-24.48-3.92-33.89-11.53-9.15-7.39-13.08-18.61-13.2-30.7,0-2.49,0-5,0-7.47-.79-14.77,1.83-28.47,12.7-39.54,20.74-21.13,58.13-14.13,69.19,13.25C599.1,555.78,598.93,571.72,594.61,587.25ZM617.9,386.46c-11.46,2.42-23,4.72-33.35,6.83-3.22-.21-5.75.48-6.15-2.71-.32-2.67,1.31-4.09,3.61-4.57,11.47-2.41,22.84-5.45,34.58-6.42,2-.17,4.62-.66,5.09,2.48C622.1,384.87,620.1,386,617.9,386.46ZM821.48,780.7a43.24,43.24,0,1,1,43.25-43.24A43.24,43.24,0,0,1,821.48,780.7Zm284.59,0a43.24,43.24,0,1,1,43.25-43.24A43.25,43.25,0,0,1,1106.07,780.7Zm263.48-320.37a2.74,2.74,0,0,1,3-2.84A3.19,3.19,0,0,1,1376,461c0,6.19,0,12.38,0,18.57h.08c0,5.57,0,11.14,0,16.7,0,2.17-.78,3.47-3.21,3.43-2.17,0-3.67-.81-3.65-3.13Q1369.29,478.43,1369.55,460.33Zm-59-76.47c.29-2.65,2.1-2.61,4.16-2.55,11.42,2.81,22.84,5.59,34.23,8.49,1.79.45,3.69,1.43,3.34,3.77-.44,2.89-2.79,3.17-5,2.65-11.45-2.65-22.86-5.51-34.31-8.18C1310.38,387.45,1310.29,385.83,1310.5,383.86Zm62.62,355.45c-4.26.17-2.83-3.24-2.89-5.35-.18-5.58-.06-11.16-.06-16.74h0c0-5.57,0-11.15,0-16.73,0-1.8-.22-3.91,2.47-4,2.49-.12,3,1.55,3,3.61.06,11.47.15,22.92.17,34.38C1375.81,736.49,1376.37,739.18,1373.12,739.31Zm2.7-68.29c-.09,2.17,0,4.36-.19,6.53-.12,1.48-1.34,1.9-2.66,1.92s-2.45-.44-2.56-2c-.13-1.86-.15-3.74-.21-5.6q-.42-15.87-.85-31.76c4.2-3.9,4.7-3.76,6.82,2C1374.85,651.72,1376.25,661.37,1375.82,671ZM1409,567.1c-.23,3.41-.39,6.84-.69,10.26-1.33,15.09-8.53,26.4-21.84,33.74-3,1.64-6.28,2.83-9,4.8-3.22,2.31-5.81,4.52-9.46.49-.86-1-3.57-.19-5.44-.29a41.31,41.31,0,0,1-38.92-35.27,92.91,92.91,0,0,1-.07-28.83c3.51-22.15,20.16-36.87,42.34-37.13,20.87-.25,38.53,15,42.15,36.4A67.64,67.64,0,0,1,1409,567.1Z"/><path d="M1408,551.27c-3.62-21.45-21.28-36.65-42.15-36.4-22.18.26-38.83,15-42.34,37.13a92.91,92.91,0,0,0,.07,28.83,41.31,41.31,0,0,0,38.92,35.27c1.87.1,4.58-.67,5.44.29,3.65,4,6.24,1.82,9.46-.49,2.76-2,6-3.16,9-4.8,13.31-7.34,20.51-18.65,21.84-33.74.3-3.42.46-6.85.69-10.26A67.64,67.64,0,0,0,1408,551.27Zm-8.85-3c-3.93-4.15-6.59-9-11-12.4-4.22-3.19-9.7-5-13-10.53C1385.64,525.71,1396.07,536.11,1399.15,548.26Zm-34.24-26c1.9,0,3.93-.14,4.26,2.4s-1.43,2.79-3.47,3.13c-17.8,3-20.67,4.67-33.11,19.81C1337.83,532,1351.7,521.93,1364.91,522.21Zm4.44,81.59c-.14,3.47-1.31,5-5.07,4.73-19.86-1.28-33.27-16.66-32.5-33.09,5.69,12.34,13.5,19.87,25.29,22.52a42.42,42.42,0,0,0,8.3,1.08C1368.76,599.13,1369.48,600.78,1369.35,603.8Zm4-28.4a4.07,4.07,0,0,0-4.2,4.15,38.4,38.4,0,0,0-.06,6.52c.5,4.52-1.2,6.08-5.8,5.63-14.65-1.42-26.42-14.7-25.73-29.4.71-15.17,12.53-27.14,26.59-27.17,3.41,0,5.21.62,5,4.56-.29,5.27-.09,10.57-.12,15.87,0,2.5.76,4.16,3.68,4.18,3.17,0,3.34-2,3.32-4.32,0-5.77,0-11.53,0-18.46,11,6.26,17.86,13.6,17.64,25.55s-6,20.37-16.77,26.68c-1.36-3.57-.89-6.61-1-9.55C1375.91,577.66,1375.66,575.46,1373.39,575.4Zm3,31.31c-.66-4.42-1.51-8.18,3-10.17,9.49-4.16,15.89-11.4,20.51-21.8C1400.25,588.7,1392.3,599.27,1376.38,606.71Z"/><path d="M593,540.54c-11.06-27.38-48.45-34.38-69.19-13.25-10.87,11.07-13.49,24.77-12.7,39.54,0,2.49,0,5,0,7.47.12,12.09,4.05,23.31,13.2,30.7,9.41,7.61,19.43,14.39,33.89,11.53,16.32-3.25,32-13.27,36.46-29.28C598.93,571.72,599.1,555.78,593,540.54Zm-42-15.84a2.51,2.51,0,0,1,2.43-2.34,20.28,20.28,0,0,1,8.27.71c12.74,3.71,21.65,11.42,25.19,24.63-6.52-10.47-15.07-18-27.78-19.57-1.83-.23-3.7-.23-5.55-.39S550.7,526.59,550.92,524.7Zm-6.12,1.39c-9.55,6-18.63,12.24-24.69,23.67C523.47,535.28,532.71,526.32,544.8,526.09Zm-1.55,79.84c-12.79-2.42-21.91-13.46-23.71-29.63,4.74,9,10.86,16.6,20.81,20.31C545.33,598.46,544.19,602.22,543.25,605.93Zm7.57-27.12a2.86,2.86,0,0,0-3-2.87,2.77,2.77,0,0,0-3.2,2.62c-.21,1.85-.25,3.73-.47,5.57-.18,1.52-.53,3-1.11,6.19-11.32-7.52-18-16.07-17.13-29.06.71-11.13,6.73-19.3,18.39-24v15c0,1.24-.09,2.5,0,3.73a3.49,3.49,0,0,0,3.51,3.55c2.71.24,3-1.53,3.05-3.52.09-5.29,0-10.59.25-15.86s1-5.86,6.27-5.17c13.77,1.8,24.94,14,25,27.18,0,14-11.52,27.52-25.24,29.42-5,.69-5.86,0-6.19-5.35C550.78,583.79,551,581.28,550.82,578.81Zm4.41,29.92c-2.45,0-4.33-.52-4.21-3.52.1-2.68-.62-6.05,3.64-6.08A35,35,0,0,0,569,595.9c7.43-3.38,9.76-5.74,19.1-19.51C586.48,594.13,570.83,608.87,555.23,608.73Z"/><path d="M617.9,386.46c-11.46,2.42-23,4.72-33.35,6.83-3.22-.21-5.75.48-6.15-2.71-.32-2.67,1.31-4.09,3.61-4.57,11.47-2.41,22.84-5.45,34.58-6.42,2-.17,4.62-.66,5.09,2.48C622.1,384.87,620.1,386,617.9,386.46Z"/><path d="M1352.23,393.57c-.44,2.89-2.79,3.17-5,2.65-11.45-2.65-22.86-5.51-34.31-8.18-2.54-.59-2.63-2.21-2.42-4.18.29-2.65,2.1-2.61,4.16-2.55,11.42,2.81,22.84,5.59,34.23,8.49C1350.68,390.25,1352.58,391.23,1352.23,393.57Z"/><path d="M1376.06,479.52c0,5.57,0,11.14,0,16.7,0,2.17-.78,3.47-3.21,3.43-2.17,0-3.67-.81-3.65-3.13q.09-18.09.35-36.19a2.74,2.74,0,0,1,3-2.84A3.19,3.19,0,0,1,1376,461c0,6.19,0,12.38,0,18.57Z"/><path d="M1373.12,739.31c-4.26.17-2.83-3.24-2.89-5.35-.18-5.58-.06-11.16-.06-16.74h0c0-5.57,0-11.15,0-16.73,0-1.8-.22-3.91,2.47-4,2.49-.12,3,1.55,3,3.61.06,11.47.15,22.92.17,34.38C1375.81,736.49,1376.37,739.18,1373.12,739.31Z"/><path d="M1375.82,671c-.09,2.17,0,4.36-.19,6.53-.12,1.48-1.34,1.9-2.66,1.92s-2.45-.44-2.56-2c-.13-1.86-.15-3.74-.21-5.6q-.42-15.87-.85-31.76c4.2-3.9,4.7-3.76,6.82,2C1374.85,651.72,1376.25,661.37,1375.82,671Z"/><path d="M551.1,658.2h-.25c0,5.9,0,11.81,0,17.71,0,2-.28,3.66-2.91,3.7-2.45,0-3.24-1.23-3.26-3.42-.14-11.81-.34-23.61-.42-35.42,0-1.92.61-3.78,3.11-3.66,2.67.13,3.76,1.74,3.74,4.31C551.08,647,551.1,652.61,551.1,658.2Z"/><path d="M550.92,479.12V496c0,1.95-.15,3.69-2.77,3.88-3,.2-3.72-1.44-3.71-4,.06-11.54,0-23.09.12-34.63,0-1.85.2-3.86,2.73-4.09,3.11-.28,3.55,1.85,3.57,4.2,0,5.92,0,11.85,0,17.77Z"/><path d="M550.94,735.06a4.06,4.06,0,0,1-4.09,4.18c-3.34,0-2.34-3-2.4-4.93-.17-5.56-.05-11.13-.05-16.71h.31c0-6.19,0-12.37,0-18.56,0-1.72.77-2.94,2.74-2.85,1.7.08,3.06.8,3.09,2.69C550.73,710.94,550.89,723,550.94,735.06Z"/><path d="M1376,846.61a124.85,124.85,0,0,0,20.66-11.83c2-1.4,4.08-2.84,6.12-4.27,1.34-.93,3-1.66,4.27-.59a4.58,4.58,0,0,1,1.15,5.17,9.46,9.46,0,0,1-2.73,3.64c-9.22,7.65-20,12.45-31.17,16.35-3.68,1.28-5.14-.55-5.14-4.14,0-9.65-.09-19.29,0-28.93,0-2.43-.25-5.37,3.36-5.51s3.49,2.82,3.51,5.26C1376.06,829.53,1376,837.31,1376,846.61Z"/><path d="M1368.21,394.86c13.59,1.38,25.79,4.91,38,8.51a6.7,6.7,0,0,1,2.41,1.39,3.07,3.07,0,0,1,1.14,3.29c-.46,1.6-1.86,1.57-3,1.38-4.29-.72-8.56-1.55-12.82-2.44-5.71-1.2-11.41-2.49-18-3.94,0,11.14,0,21.71,0,32.27,0,1.76.37,4.16-2.07,4.53-2.61.39-4-1.61-4.35-3.9a65.83,65.83,0,0,1-.27-7.45C1368.8,417.69,1369.81,406.85,1368.21,394.86Z"/><path d="M1469.9,642.21c2.7-10.81,5.36-21.62,8.11-32.42a5.32,5.32,0,0,1,3.55-3.94c3.46-1.24,5.89.25,5.06,3.71-2.8,11.74-5.9,23.4-8.92,35.08-.54,2.06-1,4.65-4,4C1470.48,647.89,1469.29,645.52,1469.9,642.21Z"/><path d="M1484.76,589.69l0-1.89c3.45-8.58,4-17.83,6-26.75.81-3.61,2.91-6.59,3.71-10.15.49-2.17,2.52-2.56,4.5-2.22,2.41.43,2.82,2.33,2.43,4.25a199,199,0,0,1-11.08,37.38C1489,593.5,1486.4,592.27,1484.76,589.69Z"/><path d="M1432.56,409.83c11,1.51,21.73,6.22,32.24,11.52,2.36,1.2,3.9,3.11,2.11,6-1.58,2.6-3.73,1.89-5.64.82-9.53-5.36-19.82-8.54-30.38-11a14.37,14.37,0,0,1-2.61-1c-1.84-.83-3.11-2.22-2.8-4.31.39-2.62,2.62-2,4.37-2.06C1430.46,409.8,1431.08,409.83,1432.56,409.83Z"/><path d="M1254.76,838.37c12.42,2.19,24.83,4.41,37,7.57,2,.52,4.72.13,4.2,3.46-.47,3-2.46,4.27-5.35,3.77-4.26-.75-8.48-1.74-12.72-2.61-6.37-1.3-12.77-2.43-19.1-3.91-7.3-1.71-7.27-1.84-3.86-8.54Z"/><path d="M1471.47,667.93c-2.79,11.21-4.64,22.89-8.48,34.09-.88,2.56-2.16,4.72-5.36,3.5-2.56-1-2.55-3.11-1.92-5.43,2.93-10.79,5.8-21.6,8.71-32.39A7.88,7.88,0,0,1,1465,666c.94-1.73,2.29-3.13,4.39-2.75C1472,663.66,1471.42,665.88,1471.47,667.93Z"/><path d="M1336.53,860.87c-6.88.37-13.93-1.13-21-2.07-2.18-.29-4.54-1-4.25-3.92s2.69-3,4.94-2.82c7.45.73,14.87,1.94,22.38,1.63,4-.17,8.07-.59,12.1-.93,1.75-.15,3.9-1.29,4.59,1.39.61,2.34-.12,4.55-2.65,5.2a63.29,63.29,0,0,1-9.19,1.48C1341.26,861.05,1339.06,860.87,1336.53,860.87Z"/><path d="M1456.51,726.82a313.53,313.53,0,0,1-10.68,35.92c-.44,1.15-.93,2.42-2.5,2.23a3.64,3.64,0,0,1-3.26-2.82,9.64,9.64,0,0,1-.06-4.56c3-10.43,6-20.8,9.11-31.19a8.53,8.53,0,0,1,.64-1.73,3.85,3.85,0,0,1,4.68-2C1457,723.28,1456.39,725.38,1456.51,726.82Z"/><path d="M1482.57,436.06a11.88,11.88,0,0,1,2.56,1.77c8.23,9,15,18.92,19.59,30.3.79,2,1.78,4.35-1.06,5.54s-4.7-.34-5.72-3a79.29,79.29,0,0,0-16.41-25.71c-1.52-1.63-2.73-3.41-2.35-5.81C1479.43,437.51,1480.05,436.16,1482.57,436.06Z"/><path d="M1440.6,785c-.66,2.3-1.48,5.95-2.75,9.44A94.32,94.32,0,0,1,1426,817.48c-1.09,1.52-2.6,3-4.68,2-2.51-1.21-2.24-3.56-1.4-5.63a31.59,31.59,0,0,1,2.84-4.79c4.5-7.11,8.34-14.51,10.08-22.85a12.87,12.87,0,0,1,1.46-4.38c1.16-1.76,3.13-1.75,5-1.09C1440.6,781.19,1441.05,782.29,1440.6,785Z"/><path d="M1510.73,502.16c.41,9.41-1.66,18.49-4,27.51-.45,1.76-1.22,3.85-3.62,3.4-2.07-.38-2.86-2.19-2.94-4.19a10.55,10.55,0,0,1,.21-3.69c3.45-10.2,3.53-20.74,3.5-31.32,0-2-.65-4.77,2.57-5,3.46-.3,4,2.47,4.17,4.95C1510.91,496.56,1510.73,499.37,1510.73,502.16Z"/><path d="M498.78,406.41c2.52-.14,4.4-.06,5,2.32.68,2.79-1.08,4-3.34,4.65-3.59,1-7.28,1.74-10.84,2.86-6.22,1.95-12.32,4.33-18.6,6.07-2.91.8-7.12,3.75-8.87-.89-2-5.32,3.48-5.86,6.56-7.06A128.65,128.65,0,0,1,492,407.89C494.48,407.44,496.89,406.83,498.78,406.41Z"/><path d="M463.22,711.61c2.72-.26,3.8,1.41,4.32,3.16q5,16.86,9.66,33.8a4.15,4.15,0,0,1-2.63,5.3c-2.77,1-3.7-1.19-4.52-3.31a259.93,259.93,0,0,1-9.77-32.79C459.51,714.61,459.88,712.25,463.22,711.61Z"/><path d="M432.62,595.26l5,1q4,15.33,8,30.67c.39,1.51.62,3.06,1.1,4.53.93,2.83.29,4.67-2.64,5.91-3.77,1.6-4.41-1.31-5.1-3.49a305.82,305.82,0,0,1-7.85-32.61C430.71,599.11,430.65,596.9,432.62,595.26Z"/><path d="M475.92,775.71c-.22-4,.31-6.14,3-6.66s3.83,1.3,4.26,3.72a101.47,101.47,0,0,0,11.35,31.45c1.07,1.93,2.11,3.93-.82,5.42-2.5,1.29-4.27.22-5.64-1.64-5.29-7.14-7.64-15.58-10.27-23.86A74,74,0,0,1,475.92,775.71Z"/><path d="M649,841.77c1.62,0,2.87-.07,4.11,0,2.16.16,3.64,1.54,3.63,3.52,0,1.57-1.64,2.4-3.27,2.83a327.74,327.74,0,0,1-36.59,7.1c-1.82.26-4.23.22-4.61-2s1.83-2.84,3.62-3.49A150.63,150.63,0,0,1,649,841.77Z"/><path d="M407.24,501.58c.61-7.48,1.49-14.82,4.59-21.74.71-1.6,1.77-2.71,3.44-2.44s2.51,1.81,2.63,3.41a11.87,11.87,0,0,1-.4,4.57c-3.09,9.06-2.55,18.26-1.73,27.58.26,3,2.23,8-2.12,8.7-5.16.81-4.6-4.76-5.24-8.09C407.64,509.65,407.6,505.59,407.24,501.58Z"/><path d="M581.56,861.2a93.69,93.69,0,0,1-25.74-3.84c-1.66-.47-3-1.5-2.74-3.18a3.28,3.28,0,0,1,3.45-2.53,23.58,23.58,0,0,1,2.79.1c11.43,1.22,22.86,2.36,34.39,2.18,1.5,0,3.25-.07,3.57,2s-.69,3.86-2.76,4.15C590.23,860.65,585.88,860.84,581.56,861.2Z"/><path d="M428.49,563.54c-.21,5.59,2.87,10.76,2.1,16.42-3.6,1.41-5-.61-6-3.64-3.77-10.83-6.58-21.93-9.38-33-.8-3.14.4-4.74,3.16-5.58,3.29-1,3.61,1.92,4.1,3.72C424.43,548.8,425.3,556.48,428.49,563.54Z"/><path d="M445.84,657.75c-.29-2.41.3-4.51,2.87-5s3,1.8,3.42,3.5c3,11.32,5.85,22.66,8.73,34,.6,2.35.36,4.31-2.61,4.8-2.51.41-4.16-.31-4.81-3C450.65,680.67,447.63,669.34,445.84,657.75Z"/><path d="M448.89,432.47a6,6,0,0,1-2.52,3.76c-8.28,6.32-14.56,14.35-20,23.14a10.73,10.73,0,0,1-2.33,2.84,3.38,3.38,0,0,1-2.51.47,2.16,2.16,0,0,1-1.59-2.87,13.56,13.56,0,0,1,.94-2.61,73.28,73.28,0,0,1,21.19-26.76c1.45-1.15,3-2.48,5-1A3.67,3.67,0,0,1,448.89,432.47Z"/><path d="M504.61,822.38c1.72-.15,2.93.91,4,2A113.38,113.38,0,0,0,534,842.86a8.83,8.83,0,0,1,2.92,2.2c.9,1.22,1.44,2.81.35,4.24-.92,1.2-2.35.76-3.42.33a82.14,82.14,0,0,1-29.11-19.36c-1.18-1.23-1.71-3.28-2-5A2.67,2.67,0,0,1,504.61,822.38Z"/><path d="M550.8,835.83c0,4.95.05,9.9,0,14.84,0,1.47,0,3.3-2.13,3.47-1.93.16-3.78-.34-4.51-2.4a10.23,10.23,0,0,1-.48-3.62q.38-13.89.88-27.79c.07-1.8.15-3.87,2.82-3.8a3.29,3.29,0,0,1,3.46,3.53c.1,5.26,0,10.51,0,15.77Z"/><path d="M731.39,361.27c3.84.41,7-1.09,7.49,2.71.38,3.11-2,4.26-4.65,4.68q-16.1,2.52-32.19,5a19.92,19.92,0,0,1-2.79.09c-2,0-3.74-.67-4-2.91a3.35,3.35,0,0,1,2.79-4.12c.91-.21,1.81-.46,2.73-.61C711.46,364.42,722.18,362.73,731.39,361.27Z"/><path d="M763.19,366.29c-.8,0-1.43,0-2,0-2.33-.08-5.41,1-5.64-2.83-.19-3.11,1-5.19,4.75-5.38,11.45-.57,22.89-1.42,34.33-2.14,1.55-.1,3.28-.26,3.65,1.8s-.13,3.93-2.09,4.64a30.67,30.67,0,0,1-7.23,1.55C780.29,364.8,771.65,365.52,763.19,366.29Z"/><path d="M1218.25,372.75c-7.4-.75-14.81-1.47-22.2-2.27a9.9,9.9,0,0,1-3.55-.91c-1.62-.86-1.33-2.58-1.34-4.11,0-2.08,1.39-2.69,3-2.56,12.06.89,24.11,1.87,36.17,2.82,2.78.22,3.54,2,3.53,4.49,0,3.21-2.33,3.29-4.52,3.17-3.71-.2-7.41-.64-11.11-1Z"/><path d="M823.54,361c-1.37,0-3.25.14-5.1,0-2.37-.22-2.83-2.28-3.11-4.06-.41-2.49,1.38-3.18,3.44-3.24q18.22-.54,36.45-1c1.84,0,4,0,4.17,2.52.15,3.15-2.53,3.16-4.62,3.34C844.53,359.42,834.28,360.17,823.54,361Z"/><path d="M1151.75,364.91c-5.55,0-11.11,0-16.67,0-2.91,0-4.67-1-4.44-4.33.21-3.17,2.3-3,4.54-3.08,11.46-.2,22.85,1,34.27,1.64,3,.16,4.57,1.49,4.53,4.53,0,3.36-2.54,2.81-4.63,2.82-5.86,0-11.73,0-17.59,0C1151.76,366,1151.75,365.44,1151.75,364.91Z"/><path d="M1098.35,361.41a152,152,0,0,1-22.72-1.92c-3-.45-4.78-1.94-4.27-4.87s3.3-2.18,5.34-2c10.22.78,20.45,1.64,30.67,2.52a32.57,32.57,0,0,1,4.6.71c2.3.55,2.72,2.51,2.47,4.36s-1.84,2.38-3.53,2.26C1106.27,362.1,1101.63,361.68,1098.35,361.41Z"/><path d="M1056.1,359.66a3.66,3.66,0,0,1-2.38,2.8c-9.4,3.75-15.42,11.35-21.61,18.79a26.75,26.75,0,0,1-4.79,4.41c-1.61,1.17-3.52,1.38-5-.37-1.16-1.37-.89-2.87.12-4.24,6.88-9.32,14-18.35,24.82-23.53,1.93-.92,3.88-2.17,6.2-1.11C1054.9,357.08,1056.2,357.89,1056.1,359.66Z"/><path d="M876.49,361.11c3.14.07,4.78,2.06,6.62,3.66,8.24,7.11,13.74,16.7,21.67,24.11,1,.92,1.47,2.38.69,3.3a5.25,5.25,0,0,1-3.35,1.18c-2,.16-3.5-1.16-4.75-2.52q-11.29-12.29-22.47-24.68c-1-1.09-1.9-2.66-.52-4.11A5.61,5.61,0,0,1,876.49,361.11Z"/><path d="M821.48,694.22a43.24,43.24,0,1,0,43.25,43.24A43.24,43.24,0,0,0,821.48,694.22Zm0,79a35.75,35.75,0,1,1,35.75-35.75A35.79,35.79,0,0,1,821.48,773.21Z"/><path d="M1106.07,694.22a43.24,43.24,0,1,0,43.25,43.24A43.25,43.25,0,0,0,1106.07,694.22Zm0,79a35.75,35.75,0,1,1,35.75-35.75A35.79,35.79,0,0,1,1106.07,773.21Z"/><rect class="cls-1" width="1" height="1"/><rect class="cls-1" x="1919" y="1079" width="1" height="1"/><rect class="cls-1" y="1079" width="1" height="1"/><rect class="cls-1" x="1919" width="1" height="1"/></g><g id="Capa_3" data-name="Capa 3"><path d="M835.1,512.59v111H815.27V552.88l-19.51,14.91-16.18,12.53-16.17-12.53L743.9,552.88v70.74H724.07v-111l19.83,15.23,35.68,27.44,35.69-27.44Z"/><path d="M889,549.55v75.5H869.19V547.49A15.8,15.8,0,0,0,855.71,534h-4.44V514.34h4.28v.16a35.35,35.35,0,0,1,29.51,19.82,41.54,41.54,0,0,1,2.69,7.46,33,33,0,0,1,1,8.09Z"/><path d="M1015.44,546.22a32.67,32.67,0,0,1-9.2,22.84,32.76,32.76,0,0,1-23.48,55.52h-78.2V604.75h78.2a13.07,13.07,0,0,0,13-13,12.91,12.91,0,0,0-12.22-13h-59V558.91h59a13,13,0,0,0-.63-26h-78.2V513.07h78.2a32.62,32.62,0,0,1,32.67,32.67Z"/><path d="M1069.52,549.55v75.5h-19.83V547.49A15.8,15.8,0,0,0,1036.21,534h-4.44V514.34h4.28v.16a35.35,35.35,0,0,1,29.5,19.82,42.36,42.36,0,0,1,2.7,7.46,33.47,33.47,0,0,1,1,8.09Z"/><path d="M1195.93,512.59v111H1176.1V577.94h-58.52a31.39,31.39,0,0,1-14.91-3.65,32.38,32.38,0,0,1-17.77-29V512.59h19.83v32.68a13.06,13.06,0,0,0,13,13h58.53V512.59Z"/></g></g></svg>