<svg xmlns="http://www.w3.org/2000/svg" viewBox="0 0 1920 1080"><defs><style>.cls-1{fill:#010202;}.cls-2{fill:#f2f2f2;}</style></defs><g id="Capa_2" data-name="Capa 2"><g id="Capa_1-2" data-name="Capa 1"><path class="cls-1" d="M1498,808.74q0-81,.08-161.9c0-2.23.32-4.46.5-6.69a99.76,99.76,0,0,1,.16-23.74c-1-6.41-.47-12.89-.51-19.32-.12-27-.11-54-.12-80.94,0-1.95.22-3.91.34-5.86a6.64,6.64,0,0,1,0-5.21c-.16-3.92-.43-7.83-.45-11.75-.52-100.61.14-201.22-.52-301.84l-5.87-5.52c-5.58-6.11-13-8.69-20.31-11.34-12.92-4.66-25.9-9.19-38.73-14.1a72.09,72.09,0,0,0-26.32-4.79q-110.49.22-221,.22c-11.56,0-11.55.1-12-10.93-.06-1.4-.07-2.82-.24-4.2-.24-1.84-1.1-3.13-3.21-3.13s-3.93-.1-5.9-.1q-49.77,0-99.53,0c-1.66,0-3.33.21-5,.32-1.48,4.57-.46,9.13-1,13.55-.61,4.88-1.35,5.29-5.78,3.7-10.38-3.71-15.94-11-16.48-22.07-.12-2.52.1-5.06-.07-7.57-1.18-18-11.92-28.09-30.05-28.25l-97.87,0c-9.48,0-13.08,4.25-13.08,4.25-9.34,9.55-11.53,20-11.41,31.6.12,12.6-7.82,20.48-22.12,22.8,0-3.68,0-7.24,0-10.8-.08-7.37-.1-7.46-7.22-7.48-17.43,0-34.84,0-52.26,0-16.3,0-32.59,0-48.89.06-5.92,0-5.8.18-6.32,6.1-.33,3.82,1.66,8.64-1.45,11.2-2.91,2.4-7.57.83-11.44.83q-108.74.08-217.45-.07a84.59,84.59,0,0,0-32.82,6c-10.63,4.33-21.54,8-32.4,11.77-8.68,3-17.24,6.18-25,14.59-2.82,2.81-4.23,7.53-4.23,7.53v55c-.44,66.61-.11,133.22-.16,199.83,0,5.33-.32,10.65-.49,16a10.91,10.91,0,0,1,0,6.71c.12,2.8.34,5.6.35,8.4q.12,52.25.2,104.51,0,119.69,0,239.37c0,4.2.47,8.4.57,12.61.26,11.26,9.29,19.4,21.09,19.76,3.75.12,7.51,0,11.27,0-3.39,3-3.5,5.81-1.68,9.2l47.53,109.8c3.07,7.07,3.18,7.11,10.46,4.09,9.82-4.08,19.34-8.87,29.46-12.22,2.29-2.47,5.27-1.34,7.93-1.34,22.13-.06,44.27-.31,66.4.17a58.05,58.05,0,0,0,29.81-6.87c2.9-1.58,5.74-3.49,9.18-3.86,6.47-2.72,12.9-5.53,19.4-8.15a728.74,728.74,0,0,1,117.87-36.53c23.27-5.05,46.64-9.77,70.53-11a2.1,2.1,0,0,1,2.59-.59c13.3-1,26.56-3.14,40.4-2,0,2.72,0,5,0,7.18,0,7.76,0,7.77,8.09,7.81l97.39.07c3.89,0,5.34-1,5.46-5.14.33-10.5.58-10.66,11-10.17a614.59,614.59,0,0,1,123.79,19c44.08,11.31,87,26.08,128.27,45.24a54.15,54.15,0,0,0,23.64,5c22.75,0,45.51-.19,68.26,0,16,.18,27.3-6.67,34.48-20.92,12.11-24,24.4-48,36.61-72l3.45-6.73c3.56-6.94,9.16-10.34,17-10.13,4.76.13,9.56.19,14.32-.06,13.15-.7,20.36-7.94,21.49-21.19.25-3.06-.3-6.2.93-9.16C1498.47,821.06,1498,814.9,1498,808.74Zm-315.7-639.56q102.74-.09,205.47-.07c8.7,0,17.4.26,26.1.43,2.74.06,5.58,0,8.43,3.61-82.41-1.05-163.46,1.1-244.5-1.17-.21,0-.39-.89-.64-1.48C1178.37,168.43,1180.49,169.19,1182.25,169.18Zm-315.54.53c1-1.57,2.88-1.35,4.44-1.85,15.52-4.94,24.55-16.44,25.69-32.81.25-3.64,0-7.33.44-10.94.94-7.93,6-13.2,13.74-13.37l95-.3c9.57-.7,15.45,6.41,16.75,14.24a54.48,54.48,0,0,1,.32,8.39c.14,17.67,9.94,30.45,26.92,35,1.07.29,2.24.33,3,1.73-.22,2.53-2.47,4-4.07,5.78-18.81,20.85-37.8,41.55-56.54,62.47-7.87,8.78-17.54,12.72-29.14,12.51-3.65-.07-7.31.07-11-.18-8.34-.58-16.17-2.84-22-9.18Q899,207,867.91,172.66C867.19,171.87,866.34,171.07,866.71,169.71Zm-360.3-.32c7.3-.07,14.6-.19,21.9-.2q103.66-.12,207.32-.13c2.52,0,7-1.64,7.22,1.43.22,3.89-4.32,2.25-6.75,2.25q-118.43.22-236.82.21c-1,0-2-.15-3.24-.26C499.21,169.76,502.77,169.44,506.41,169.39ZM526.79,940c-1.33-3.78-3.84-3.72-6.63-2.5s-6.95,1.84-6.21,6.59a18.93,18.93,0,0,0,4.31,9c2.65,3.22,5.55,6.23,8.92,10a10.82,10.82,0,0,0,4.15,1.56l-8.8,3.39c-3.16,1.52-6.3,3.11-9.51,4.55,0,0-1.62.7-3.71,1.67s-2.51-.56-2.51-.56l-5.91-14.1Q495.12,947,489.63,934.2c-9.74-22.65-19.43-45.33-29.47-68.79,1.61-.92,2.78-1.69,4-2.27,3.8-1.76,6.78-1.56,9,2.82a128.38,128.38,0,0,0,7.43,12.22c5.08,7.94,6.85,8.11,14.18,1.43,2.55,2,3.11,5,4,7.71-1.05,1.72-2.69,1.06-3.92,1.56-6,2.47-7,4.42-4.11,10.2,5.06,10,10.43,19.87,15.92,29.64,1.31,2.31,2.28,6.23,6.83,3.54s6.33-5,4.62-9.34a116.2,116.2,0,0,0-6.09-12c-2.12-3.94-4.34-7.83-6.61-11.93,1.83-1.7,7.55.88,5.12-4.74-4-9.27-7.82-18.63-13.16-27.22-1.21-1.95-2.67-5.75-5.79-1.28-1.15,1.66-2.35.56-3.22-.7A38.16,38.16,0,0,1,483.43,855c18.79-7.88,37.14-16.66,57.19-23.89.84,9.08,1.59,17.29,2.33,25.24,2.68.87,3.82-1.73,6.32-1.41q15.24,35,30.86,71c-3.15,2-6.43.32-9.14,1.45-1.32.55-2.47,1.45-2.36,3.08a2.76,2.76,0,0,0,2.15,2.28,19.24,19.24,0,0,0,8.36.6c3-.33,4.64,1,5.93,3.58,1,2,1.44,3.63-1,4.76-9.42,4.37-18.69,9.31-28.75,11.8C544.45,956.13,531.11,952.24,526.79,940Zm148.67-41.3c6.12-1.22,11.9-3.81,16.35-3.84a51,51,0,0,1-14.33,6.24C653,912.8,627.42,922.22,602.7,933.49c-2.3,1-4.57,2.17-6.91,3.07-1.47.57-3.41,1.52-4.21-.78-.65-1.89-.65-4,1.68-5,2-.89,4.19-1.59,6.26-2.45a44,44,0,0,0,4.55-2.15c2-1.15,3.95-2.51,2.51-5.28-1.32-2.54-3.42-2.47-5.76-1.56-2.87,1.1-6,1.81-8.64,3.26-4.14,2.24-5.82.63-7.35-3.25-3.48-8.86-7.3-17.58-11.08-26.32-7.31-17-15-33.81-22-50.92-7.2-17.66-4-14.81,8.13-20.09Q617,797.21,674.1,772.62c2.54-1.09,5.1-2.13,7.74-3.24,11.62,26.83,23.06,53.28,34.51,79.74,3.23,7.45,6.28,15,9.8,22.3,2,4.1,1.35,6.67-2.64,8.77-3.23,1.7-6.22,3.79-9.4,5.58-2.12,1.19-4.13,2.72-6.45-.25-1.36-1.75-3.65-.41-5.5.13l-31.46,9.14C669.65,899.31,672.27,899.31,675.46,898.68ZM904.61,882c-.32,2.93-2.38,2.6-4.28,2.61-9.28,0-18.52.61-27.77,1.29a584.46,584.46,0,0,0-94.64,15.22,13.77,13.77,0,0,1-2.49.15c-20.47,5.92-41.17,11-61.38,17.86-27.9,9.42-55.43,19.78-82.2,32.07-2.81,1.29-5.56,2.66-8.78,2.64-15.16,0-30.3,0-45.48,0,0-2.5,1.92-2.78,3.34-3.35,43.52-17.25,85.81-37.36,129-55.37,15.2-6.34,29.57-15,46.26-17.49,2.36-.36,4.36-1.68,3.73-4.57-.7-3.27-3.24-2.49-5.4-2-4.64,1.09-9.35,2-13.84,3.56-4,1.38-6.09.6-7.52-3.54-1.83-5.28-4.26-10.36-6.49-15.51q-19.18-44.37-38.41-88.74c-2.67-6.16-2.92-6.44-9.18-3.81q-34.5,14.49-68.83,29.37c-18.79,8.09-37.51,16.36-56.31,24.42-2.41,1-4.9,3.27-7.86,1.23-1.25-.87-2.39-.38-2.71.66-1.36,4.24-5.41,4.6-8.57,6C521,830.85,507,836.62,493.2,842.86c-3.75,1.69-5.2,1.43-6.6-2.7-2.17-6.35-5.19-12.4-7.86-18.58-.56-1.28-1.19-2.53-1.8-3.78-1.27-2.68-2.77-5.13-6.32-3.92-1.93.66-2.79,5.65-1.17,8.15,4.46,6.88,6.37,14.85,9.91,22.11.7,1.44,1.59,3,.29,4.89-.69,0-1.66.39-2.22.06-9.22-5.31-19.28-5.41-29.44-5a28.39,28.39,0,0,1-5.05-.21c-5.45-.75-6.51-1.84-7.16-7.46a68.15,68.15,0,0,1-.33-7.57c.1-22.47.35-44.94.32-67.4,0-18.53-.4-37.07-.53-55.6,0-2.77-.55-5.62.64-8.32a202.67,202.67,0,0,1-.28-39,82.49,82.49,0,0,1-.23-16.7c-1.25-18.25-.41-36.51-.43-54.75q-.13-187.59,0-375.15c0-16.59,1.06-18.1,16.45-24.14,5.94-2.33,12-4.44,18.06-6.69.63,2.4-1,2.84-1.91,3.52-16,12.44-23.44,29-23.83,49-.16,7.59-.21,15.19-.19,22.77q.17,83.47.37,167c0,10.39-.26,20.66-4.39,30.56-2.6,6.21-3.32,13-3.17,19.84.05,2.48.59,4.79,3.38,4.91,3.79.17,3.73,2.5,3.68,5.16,0,2.81,0,5.62.05,8.43,0,1.46-.08,3-1.94,3.05-4.13,0-4.22,2.94-4.34,5.79-.37,9.26-.64,18.53-1,27.79-.1,2.88.52,5.14,4,5,2.77-.14,3.2,1.49,3.17,3.71-.05,2.81,0,5.62.07,8.43,0,1.15,0,2.9-1,2.86-6.8-.31-4.73,5-5.13,8.28-1,8.38-.9,16.82-.72,25.26.07,3,.09,6,4.56,4.85.49-.13,1.42-.1,1.56.17,2,4,.29,8.27.81,12.39.24,2-.64,3.17-2.84,3-2.89-.19-2.88,1.85-3.07,3.88a252.43,252.43,0,0,0-.77,29.49c.07,2.9.91,5,4.35,4.77,1.29-.54,2.13,0,2.19,1.25.12,2.44,0,4.89,0,7.34-.08,6.59-.09,6.59-5.69,9.08-.3,8.27-.66,16.52-.88,24.78a42.77,42.77,0,0,0,1.51,13.91l4.68.06c.39-1,.78-2.09,1.16-3.14a3.45,3.45,0,0,1-.29-3.43,15.76,15.76,0,0,1,.19-9.29c.1,3.24,2.63,5.86,2.05,9.25,10,32.82,38.33,50.25,69.45,50.45,7.27.05,14.55.15,21.83,0,3.13-.05,5.55.2,5.19,4.28-.21,2.29,1.59,2.58,3.3,2.8a1,1,0,0,1,1.38-.48c.3-5.35,3.22-6.66,8.36-6.66q80.8,0,161.62-.49c10.89-.07,20.25,2.92,28.73,9.75,10.89,8.78,22.11,17.15,33.19,25.7,12.6,7.93,23.93,17.58,35.93,26.34,20.17,14.74,40.1,29.8,60.13,44.73,2.7,2,5.39,4,7.39,6.8a13.09,13.09,0,0,0,7.08,5.22C898.6,861.89,905.61,872.78,904.61,882Zm103.8-1.19c-.2,7-.31,14.06-.11,21.07.12,3.87-.82,5.54-5.11,5.42l-87.31,0c-4.31.07-5.27-1.79-5-5.59.42-5,.68-10.09.71-15.15.08-11.19-1.57-21.84-12.52-30l-12.59-10.18c-16.23-10.88-31.51-23.05-47.22-34.63-20.9-15.41-41.69-31-62.5-46.53-1.31-1-2.46-2.19-3.68-3.29-8.18-4.94-15.7-10.82-23.14-16.77-9.64-7.72-20.38-11.09-32.73-11.1-52.84,0-105.68-.34-158.51-.56-2,0-4-.12-5.9,0-3.13.24-4.76-.85-4.55-4.22.22-3.92.3-7.83.44-11.75-.23-1.59-.47-3.19-.68-4.77s0-3.36-2.33-3.55c-2.53-.2-3.33,1.13-3.38,3.4a21.55,21.55,0,0,1-.55,3.16c.44,5.59,2.36,12.61-.64,16.37-3.25,4.08-10.54,1.22-16,1.22-9.24,0-18.52.51-27.66-1.81a61.51,61.51,0,0,1-46.24-55.64c-1.78-27.8-.78-55.62-.71-83.43.12-48.33-.09-96.65-.2-145-.16-68.56,0-137.13-.05-205.69,0-5.06.5-10.08.83-15.13,1.55-23.36,24.18-47.2,49.8-47.58,6.74-.1,13.47-.6,20.22-.61q103.73-.12,207.44-.13c3.66,0,7.32,0,11-.11,9.93-.39,13.43-3.93,13.75-14,.15-4.78.25-9.57-.06-14.33-.26-4.14.64-6.26,5.41-5.77,3.89.42,7.86,0,11.8,0q39.21,0,78.42,0c5.82,0,6.31.16,5.71,5.87-1.36,12.75,3.37,22.61,12.06,31.77,18,19,35.47,38.37,52.82,57.91,10.11,11.38,22.12,17.89,37.88,17.35h8.62c15,.09,25.91-7.48,35.47-18.23q26.88-30.24,54.27-60c6.8-7.44,10.35-15.86,9.72-26-.16-2.51,0-5,0-7.58,1.94-1.79,4.31-.93,6.46-.94q43-.13,86-.11c1.41,0,2.82.17,4.22.07,3.17-.23,4.59,1,4.48,4.33-.17,5.34-.12,10.68,0,16,.25,9.65,3.66,13.28,13.11,13.6,9.27.32,18.55.38,27.82.37q94-.14,188.06-.32c7.85,0,15.76.07,23.57.84,29.05,2.83,49.54,24.74,49.85,53.94.39,36.81.17,73.62.17,110.43q0,160.59,0,321.19c0,9.34-.53,18.6-3.83,27.35-8.87,23.58-25.77,37.57-50.88,41-12,1.65-24.06.82-36.63,1.27-.38-6.83-.75-13.23-1.11-19.64a22,22,0,0,0-.36-4.16,2.65,2.65,0,0,0-1.65-1.62c-1.3-.37-2.14.53-2.22,1.77-.17,3.08-.08,6.18-.32,9.25-.35,4.66,1.95,10.6-1.51,13.62-3,2.61-8.6.6-13.05.6-51.44.06-102.88.28-154.33-.1-13.67-.11-24.88,4.17-35.67,12.31-44.4,33.48-89.15,66.49-133.69,99.78l-18.18,14.57C1010.76,866.49,1008.63,873.35,1008.41,880.83Zm476.22-220.31c0,8.93.85,17.9-.57,26.81,1.1,8.94.39,17.92.43,26.89.12,31.73.29,63.46.33,95.19,0,8.42-.18,16.85-.65,25.25-.39,7.25-2,8.67-9.24,9.18-4.49.31-9,.3-13.48.37-12.91.17-22.69,5.41-28.43,17.34-1.28,2.66-2,6.37-6.4,2.84-2.09-1.66-3.54.8-4.48,2.41-2.11,3.63-4,7.39-6,11.1A1.72,1.72,0,0,1,1415,880a40,40,0,0,1-5.31,11.41c1.41,2-5.48,7,2.48,6.8,1.2,0,1,1.68.46,2.73-7.56,14.72-14.38,29.82-22.81,44.08a17.37,17.37,0,0,1-15.4,8.85c-25.86.12-51.72.06-77.58,0-4.91,0-9.18-2.39-13.52-4.35a798.11,798.11,0,0,0-110.55-40.26c-44.44-12.58-89.6-21.13-135.75-24.11-5.89-.38-11.79-.51-17.69-.51-3.45,0-4.38-1.65-4.08-4.72,1-10.44,6.56-17.67,15.93-22,1.49-.69,3.45-.55,4.57-1.92,8.43-10.46,20.19-16.87,30.5-25,11.39-9,23.07-17.61,34.67-26.32a41.28,41.28,0,0,1,5-2.81c9-8,19.06-14.73,28.65-22,12.75-9.66,25.74-19,38.34-28.89a44.9,44.9,0,0,1,28.74-10.14q82.6.19,165.23.11c3.46,0,6.19.24,5.94,4.73a2.29,2.29,0,0,0,1.84,2.47c.42-.29,1.19-.55,1.21-.87.4-5.68,4.1-6.12,8.73-6.16,10.1-.11,20.23.24,30.3-1.16q40.65-5.65,56.19-43.55a19.14,19.14,0,0,1,1.25-2.2c.76-3.31,1.51-6.64,2.27-10l.85.16v11.43c2.6,1.33,4.66,1.26,5.46-2.11.49-2.1,1-4.19,1.52-6.29,0-7.84,0-15.67-.08-23.51-.05-5.94-.08-5.94-6.67-6,0-3.89,0-7.79,0-11.7,0-2.92-.92-6.56,4.4-5.55,1.61.3,2.22-1.34,2.22-2.88q.06-16,.07-31.93c0-1.36-.2-3.29-2-3-5,.89-5-2.26-4.52-5.44.63-4-2.84-10.16,5.34-10.54,1.24-.06,1.24-2.31,1.24-3.7,0-10.08,0-20.17-.06-30.25,0-1.55.25-4.06-2.16-3.61-5.14,1-4.62-2.12-4.45-5.29.12-2.23.11-4.48.2-6.71,0-1.4.08-3.3,1.86-3.19,5.57.39,4.63-3.54,4.67-6.7.11-8.4-.07-16.81.19-25.21.13-4.21-.15-7.22-5.66-6.19-1.19.22-1.08-1.57-.91-2.65-.23-4.48-.86-9,.58-13.37,6.07-2.51,6-2.5,6-9.16a57.16,57.16,0,0,0-4.44-23c-2.45-5.57-2.63-11.39-2.62-17.32q.13-94.32.14-188.66a157.27,157.27,0,0,0-.71-17.65c-1.76-15.53-9.21-28-21.12-38-1.8-1.51-4.12-2.52-5.57-5.93,10.3,4,20,7.51,29.39,11.56,4.49,1.93,6.17,6.44,6.6,11.05s.44,9.53.43,14.29q0,120.87-.14,241.73c0,7-.47,14-.72,21a51.49,51.49,0,0,1,0,15.18c2,6.88.79,13.9.67,20.83C1483.84,564.1,1484.55,612.31,1484.63,660.52Z"/><path class="cls-2" d="M1469.13,343.41c0-36.81.22-73.62-.17-110.43-.31-29.2-20.8-51.11-49.85-53.94-7.81-.77-15.72-.84-23.57-.84q-94,.09-188.06.32c-9.27,0-18.55-.05-27.82-.37-9.45-.32-12.86-4-13.11-13.6-.15-5.34-.2-10.68,0-16,.11-3.35-1.31-4.56-4.48-4.33-1.4.1-2.81-.07-4.22-.07q-43,0-86,.11c-2.15,0-4.52-.85-6.46.94,0,2.54-.13,5.07,0,7.58.63,10.14-2.92,18.56-9.72,26q-27.32,29.87-54.27,60c-9.56,10.75-20.49,18.32-35.47,18.23H957.3c-15.76.54-27.77-6-37.88-17.35-17.35-19.54-34.84-39-52.82-57.91-8.69-9.16-13.42-19-12.06-31.77.6-5.71.11-5.86-5.71-5.87q-39.21-.08-78.42,0c-3.94,0-7.91.42-11.8,0-4.77-.49-5.67,1.63-5.41,5.77.31,4.76.21,9.55.06,14.33-.32,10.09-3.82,13.63-13.75,14-3.64.15-7.3.11-11,.11q-103.71.06-207.44.13c-6.75,0-13.48.51-20.22.61-25.62.38-48.25,24.22-49.8,47.58-.33,5.05-.83,10.07-.83,15.13,0,68.56-.11,137.13.05,205.69.11,48.34.32,96.66.2,145-.07,27.81-1.07,55.63.71,83.43a61.51,61.51,0,0,0,46.24,55.64c9.14,2.32,18.42,1.81,27.66,1.81,5.5,0,12.79,2.86,16-1.22,3-3.76,1.08-10.78.64-16.37a21.55,21.55,0,0,0,.55-3.16c0-2.27.85-3.6,3.38-3.4,2.37.19,2.12,2,2.33,3.55s.45,3.18.68,4.77c-.14,3.92-.22,7.83-.44,11.75-.21,3.37,1.42,4.46,4.55,4.22,1.95-.15,3.93,0,5.9,0,52.83.22,105.67.56,158.51.56,12.35,0,23.09,3.38,32.73,11.1,7.44,5.95,15,11.83,23.14,16.77,1.22,1.1,2.37,2.31,3.68,3.29,20.81,15.54,41.6,31.12,62.5,46.53,15.71,11.58,31,23.75,47.22,34.63l12.59,10.18c11,8.21,12.6,18.86,12.52,30,0,5.06-.29,10.11-.71,15.15-.32,3.8.64,5.66,5,5.59l87.31,0c4.29.12,5.23-1.55,5.11-5.42-.2-7-.09-14,.11-21.07.22-7.48,2.35-14.34,7.3-20.18l18.18-14.57c44.54-33.29,89.29-66.3,133.69-99.78,10.79-8.14,22-12.42,35.67-12.31,51.45.38,102.89.16,154.33.1,4.45,0,10.06,2,13.05-.6,3.46-3,1.16-9,1.51-13.62.24-3.07.15-6.17.32-9.25.08-1.24.92-2.14,2.22-1.77a2.65,2.65,0,0,1,1.65,1.62,22,22,0,0,1,.36,4.16c.36,6.41.73,12.81,1.11,19.64,12.57-.45,24.65.38,36.63-1.27,25.11-3.48,42-17.47,50.88-41,3.3-8.75,3.83-18,3.83-27.35Q1469,504,1469.13,343.41ZM486.81,408.33a3.73,3.73,0,0,1-2.23,3.32A85.25,85.25,0,0,0,460,428.83c-1.07,1.06-2.87,2.2-4.44.67-1.33-1.3-1-3.18-.42-4.75a7.85,7.85,0,0,1,1.9-2.63c7.13-7.42,16-12.08,25.45-15.77C485.08,405.33,486.94,406.39,486.81,408.33Zm48.46-17.53a2,2,0,0,1-.61.56,196.25,196.25,0,0,1-30,10.9c-2,0-3.43-.22-4-1.75-.78-2,.53-3,2.15-3.78a184.63,184.63,0,0,1,29.63-11.24c1.27-.38,2.94-.89,3.72.67A4.08,4.08,0,0,1,535.27,390.8ZM548,691.5c-.18,2.16-1.39,2.82-3.31,2.78s-2.21-1.23-2.26-2.75c-.16-4.17-.33-8.35-.5-12.51,0-1.79,0-3.57,0-5.35a2.82,2.82,0,0,0,0-2.73c.18-3.35.27-6.71.55-10.05.17-2.07-.64-5,2.69-5.18,3.64-.2,2.66,2.93,2.74,4.88.34,7.82.48,15.65.69,23.48C547.57,686.47,548.24,689,548,691.5ZM548.12,405c0,4.78,0,9.56,0,14.33,0,2.18.3,4.85-3.14,4.75-3-.08-2.45-2.54-2.46-4.34-.06-9.83,0-19.65,0-29.49a17.74,17.74,0,0,1,.23-2.51c.25-1.66,1.35-2.31,2.92-2.32,1.84,0,2.34,1.26,2.34,2.74,0,5.61,0,11.23,0,16.84Zm-5.56,39.2c0-2.1.32-4.07,3.09-3.85,2.28.18,2.34,2,2.38,3.71q.29,13.8.54,27.58c-1.67,2.21,1.56,7.29-3.32,7.18s-2.14-4.59-2.74-7.12a33.34,33.34,0,0,1-.45-4.93Q542.32,455.45,542.56,444.16ZM548,529.08c0,1.87-.75,3.17-2.87,3.34-2.38.19-2.73-1.32-2.73-3.16q0-15.91,0-31.84c0-2.06.23-4,3.1-3.79,2.32.18,2.46,2,2.48,3.59.07,5.31,0,10.62,0,15.94h0C548,518.46,548.05,523.77,548,529.08Zm-2.83,18.33c4.6.08,2.66,4.14,2.72,6.41.26,9.46,0,18.93.17,28.4,0,2.83-1,4.11-3.77,4.06-2.92-1.93-1.93-5-2-7.59-.23-8.29-.24-16.58-.34-24.87C543.5,551.87,540.62,547.32,545.2,547.41ZM542.78,605c0-1.9,1-3.18,3.08-3,1.88.17,2,1.79,2,3.11.09,10.85.11,21.71.14,32.56,0,2-1,3.24-2.94,3.33-2.33.1-2.48-1.76-2.49-3.46,0-5.29,0-10.58,0-15.87h.19C542.75,616.11,542.71,610.54,542.78,605Zm45.49-229a6.27,6.27,0,0,1-1.5.72c-11.06,2.94-22,6.27-33.45,7.45-.45.05-1-.45-2-1,.72-3.08,2.94-3.65,5-4.41a253.93,253.93,0,0,1,26.45-7.85,14.43,14.43,0,0,1,4.12-.48c1.59.09,2.33,1.35,2.66,2.79A2.46,2.46,0,0,1,588.27,375.94Zm.88-67.38a22.09,22.09,0,0,1-15.39,5.55c-12.35-.05-24.7,0-37,0v0c-12.63,0-25.27-.08-37.9,0a16.41,16.41,0,0,1-11.42-4.36c-14.59-12.53-22.6-28.4-24.05-47.45-1.67-22,4-41.62,20.07-57.61,5.43-5.41,11.32-8.3,19.38-8.15,23,.43,46,.3,69.05,0a25.22,25.22,0,0,1,18.23,7C620,230.73,619.54,282,589.15,308.56Zm50.91,54.36a4,4,0,0,1-1.5.7c-10.09,3.42-20.6,5.17-30.33,7.67-2.53.28-3.94-.53-4.4-2.39A3,3,0,0,1,606,365c1.85-.61,3.72-1.23,5.62-1.66,8.74-2,17.49-3.89,26.24-5.82,1.35-.29,2.89-.77,3.56,1A3.86,3.86,0,0,1,640.06,362.92Zm52-11c-3.24.89-6.55,1.51-9.84,2.21-7.4,1.6-14.8,3.18-21.41,4.6-2.16-.36-3.9.4-4.49-1.35-.71-2,.76-3.17,2.39-3.76a163.92,163.92,0,0,1,31.76-8.1c2-.3,3.35.34,3.71,2.34C694.48,349.71,693.93,351.42,692,352Zm50.87-9.23q-15,2.25-30,4.18c-2.3.3-4.62.15-4.74-3.16-.11-2.76,1.93-3.16,3.86-3.45,10-1.48,20-2.87,29.12-4.16,2.64.35,5.14-1.38,5.88,1.49C747.85,340.82,745.6,342.32,742.89,342.72Zm54-6.71c-9.76.5-19.5,1.11-29.19,2.39-.84.11-1.66.24-2.5.33-1.38.14-3,.46-3.34-1.41s-.37-4,2.09-4.76a15.36,15.36,0,0,1,3.26-.73c9.72-.86,19.4-2.44,29.21-2.08,1.77.07,4.18-.88,4.49,2.17S799.45,335.89,796.89,336ZM852,331c-10.87,1.37-21.76,2.46-32.73,2.81-1.9.06-3.08-.79-3.17-3s.84-3.19,2.82-3.37c6.44-.56,12.89-1.05,19.32-1.56a.28.28,0,0,1,0,.09c4.21-.24,8.42-.49,12.64-.68,1.67-.08,3.53-.25,3.8,2.15A2.87,2.87,0,0,1,852,331Zm54.26-1.7c-5.87.08-11.74,0-17.6,0v.5c-4.75.26-9.5.54-14.24.76-2,.09-4,.14-4.22-2.72s1.55-3.17,3.68-3.24c10.62-.4,21.23-.79,31.85-1.24,1.91-.09,3.35.12,3.28,2.49C909,327.69,908.4,329.25,906.26,329.28Zm86.5.11-66.38,0c-2.29,0-2.78-1.54-2.87-3.3-.11-2.1,1-2.92,3.1-2.92h65.65c1.84,0,4.1-.51,4.11,2.64C996.37,328.36,995.07,329.36,992.76,329.39Zm53.52,1.22c-10.64-.34-21.29-.79-31.94-1.12-2.52-.08-3.63-1.49-3.51-3.69s1.77-2.49,3.65-2.47c5.32.06,10.64,0,16,0v.55l16,.93c1.72.1,3.48.29,3.68,2.52C1050.31,330.11,1048.38,330.67,1046.28,330.61Zm53.62,2.91c-10.36-.71-20.7-1.49-31.05-2.18-2.49-.16-3.44-1.44-3.37-3.79.1-3.22,2.39-2.4,4.23-2.29,3.63.23,7.27.53,10.91.81l0-.3c6.42.68,12.83,1.35,19.23,2.07,1.9.21,4.19.05,4.17,2.94S1101.9,333.66,1099.9,333.52Zm54.19,4.81c-1.69,0-3.37,0-5-.17-8.68-.69-17.35-1.48-26-2.06-2.65-.18-4.37-.93-4.16-3.9s2.48-2.43,4.37-2.44h8c6,.62,13.28,1.34,20.54,2.13a14.77,14.77,0,0,1,3.27.75c1.62.54,1.8,1.92,1.79,3.37C1156.82,337.86,1155.64,338.35,1154.09,338.33Zm57.21,6.21c-.43,2.92-2.74,2.37-4.55,2.14q-15.35-2-30.64-4.14c-2.25-.32-4.57-.93-4.13-4.08s2.83-1.89,4.59-2a23.51,23.51,0,0,1,2.51.1c0-.12,0-.23.05-.34,9.36,1.46,18.71,2.94,28.07,4.38C1209.52,341,1211.75,341.38,1211.3,344.54Zm52.29,12c-.36,2.86-3,1.69-5.11,1.92l-29.27-6.08c-2.1-.43-3.72-1.28-3.49-3.83.26-3,2.36-2.52,4.33-2.34,10.41.93,20.27,4.06,30.14,7.25C1261.83,354,1263.83,354.66,1263.59,356.54Zm51.75,12.32c-.22,2.19-1.63,2.62-3.57,2.16q-15.82-3.81-31.67-7.53c-2.12-.49-2.65-1.82-2.37-3.66.21-1.39.53-2.8,2.74-2.6,1.08.27,2.42.63,3.78.93,8.44,1.83,16.87,3.63,25.3,5.46a40.07,40.07,0,0,1,4,1.08C1315.66,365.41,1315.51,367.21,1315.34,368.86Zm16.91,7.53a3,3,0,0,1-2.21-3.89c.37-1.5,1.41-2.61,3-2.21,12,3.06,24.45,4.82,35,12,.14.1.11.47.42,2.17C1355.69,382.79,1344,379.53,1332.25,376.39ZM1372,403.53h-.14V389.24c0-1.64-.41-3.65,1.93-3.95,2.57-.34,3.44,1.36,3.45,3.62q.09,10.51.12,21,0,5,0,10.09c0,2-.1,4.14-3,4-2.36-.13-2.32-2-2.34-3.67C1372,414.74,1372,409.13,1372,403.53Zm.33,44.92c0-1.67,0-3.33.13-5s.1-3.68,2.41-3.53c1.59.1,1.86,1.79,1.91,3.2.13,3.89.19,7.78.33,11.67s.32,7.74.48,11.62c-1.08,3.24-.35,6.63-.7,9.93-.18,1.61,0,3.62-2.46,3.48-1.88-.11-1.74-1.78-1.9-3.13-.12-1.09-.32-2.17-.48-3.25Q1372.17,460.95,1372.31,448.45Zm3.83,83.3a1.76,1.76,0,0,1-1.74,1.49c-1.42-.16-1.69-1.37-1.7-2.42q-.12-17.22-.12-34.43c0-1.39,0-3,2-3,1.4,0,1.78,1.11,1.84,2.29C1377.05,507.72,1377.59,519.74,1376.14,531.75Zm.82,160.54c0,1.49-.83,2.77-2.48,2.7s-2.08-1.58-2.08-3c0-5.86,0-11.72,0-17.58h-.06c0-5.3,0-10.6,0-15.89,0-1.38,0-2.92,1.88-3.11s2.38,1.09,2.52,2.6C1377.75,669.42,1377,680.85,1377,692.29Zm-4.12-91.44c3.17,1.25,3.51,2.29,3.53,3.43q.38,16.43.68,32.85a8.27,8.27,0,0,1-.24,2.49c-.33,1.1-1,2-2.38,1.84a2.08,2.08,0,0,1-1.76-1.51,2.45,2.45,0,0,1-.22-.81C1372.37,626.66,1372.16,614.18,1372.84,600.85Zm4.11-16.61a1.94,1.94,0,0,1-2.33,1.73,1.88,1.88,0,0,1-1.72-1.56,42.9,42.9,0,0,1-.47-5.78q-.21-13.29-.34-26.59a14.56,14.56,0,0,0,.4-1.61c.23-1.57-.25-3.75,2.24-3.67,1.93.07,1.62,2,1.68,3.26.45,8.66.81,17.32,1.2,26C1377.41,578.75,1377.3,581.51,1377,584.24Zm42.5-183.72c-.68,1.77-2.39,1.91-4,1.47-3.49-.94-6.94-2-10.36-3.18-5.54-1.83-11.08-3.68-16.57-5.65-2-.74-4.41-1.33-5.09-3.85a5.63,5.63,0,0,1,0-3.25c.46-1.16,1.79-1.06,2.88-.71a317.63,317.63,0,0,1,31.14,11.8C1418.7,397.73,1419.77,398.57,1419.45,400.52Zm-74.69-86.25c-5.68,0-10.22-2.21-14.41-5.87-31.18-27.2-30.66-80,1.09-106.67a19.88,19.88,0,0,1,13.83-5c12.36.24,24.72.08,37.08.08v-.11c11.52,0,23.06.31,34.56-.11,8-.3,14.08,2.84,19.47,8.24,14.74,14.8,21.2,32.83,20.23,53.45-.88,18.89-7.5,35.46-21.18,49-4.47,4.42-9.4,6.91-15.65,6.91Q1382.27,314.19,1344.76,314.27ZM1462.5,429.86c-2.58-.57-4.47-2.33-6.29-4.05-6-5.67-12.3-10.63-20.54-12.58-2.42-.56-4-1.73-2.92-4.8,1-2.91,2.61-3.23,5.11-2,8.33,4,16.83,7.82,23.33,14.74,1.93,2,3.53,4.32,3.85,7A1.87,1.87,0,0,1,1462.5,429.86Z"/><path class="cls-1" d="M1436.38,204.81c-5.39-5.4-11.46-8.54-19.47-8.24-11.5.42-23,.11-34.56.11v.11c-12.36,0-24.72.16-37.08-.08a19.88,19.88,0,0,0-13.83,5c-31.75,26.62-32.27,79.47-1.09,106.67,4.19,3.66,8.73,5.89,14.41,5.87q37.5-.12,75-.08c6.25,0,11.18-2.49,15.65-6.91,13.68-13.56,20.3-30.13,21.18-49C1457.58,237.64,1451.12,219.61,1436.38,204.81ZM1449.84,258c-.42,16.26-6,30.68-17.34,42.68-4.65,4.93-9.88,7.74-17,7.45-11-.46-21.92-.12-32.87-.12v0c-11.81,0-23.6-.1-35.41,0-5.1.07-9.1-1.74-12.89-5.1-27.47-24.3-27-72.28,1-95.82a14.52,14.52,0,0,1,9.87-3.88q36.24.17,72.49,0c5.46,0,9.66,2.38,13.45,6C1445.08,222.52,1450.33,239.28,1449.84,258Z"/><path class="cls-1" d="M590.07,203.61a25.22,25.22,0,0,0-18.23-7c-23,.32-46,.45-69.05,0-8.06-.15-14,2.74-19.38,8.15-16,16-21.74,35.59-20.07,57.61,1.45,19,9.46,34.92,24.05,47.45a16.41,16.41,0,0,0,11.42,4.36c12.63-.12,25.27,0,37.9,0v0c12.35,0,24.7,0,37,0a22.09,22.09,0,0,0,15.39-5.55C619.54,282,620,230.73,590.07,203.61Zm-2.27,97.06c-4.76,4.82-10,7.68-17.09,7.42-11.23-.41-22.47-.11-33.71-.11v0c-11.24,0-22.48-.17-33.71.07-6.71.15-11.76-2.42-16.28-7.21-22.82-24.19-23.26-64.58-.93-89.11,5.19-5.7,10.93-8.82,19.07-8.65,21.91.46,43.82.28,65.73.09a22.45,22.45,0,0,1,17.18,7.32C611.47,234.51,611.38,276.83,587.8,300.67Z"/><path class="cls-1" d="M996.37,325.82c0,2.54-1.3,3.54-3.61,3.57l-66.38,0c-2.29,0-2.78-1.54-2.87-3.3-.11-2.1,1-2.92,3.1-2.92h65.65C994.1,323.2,996.36,322.67,996.37,325.82Z"/><path class="cls-1" d="M742.89,342.72q-15,2.25-30,4.18c-2.3.3-4.62.15-4.74-3.16-.11-2.76,1.93-3.16,3.86-3.45,10-1.48,20-2.87,29.12-4.16,2.64.35,5.14-1.38,5.88,1.49C747.85,340.82,745.6,342.32,742.89,342.72Z"/><path class="cls-1" d="M640.06,362.92a4,4,0,0,1-1.5.7c-10.09,3.42-20.6,5.17-30.33,7.67-2.53.28-3.94-.53-4.4-2.39A3,3,0,0,1,606,365c1.85-.61,3.72-1.23,5.62-1.66,8.74-2,17.49-3.89,26.24-5.82,1.35-.29,2.89-.77,3.56,1A3.86,3.86,0,0,1,640.06,362.92Z"/><path class="cls-1" d="M1315.34,368.86c-.22,2.19-1.63,2.62-3.57,2.16q-15.82-3.81-31.67-7.53c-2.12-.49-2.65-1.82-2.37-3.66.21-1.39.53-2.8,2.74-2.6,1.08.27,2.42.63,3.78.93,8.44,1.83,16.87,3.63,25.3,5.46a40.07,40.07,0,0,1,4,1.08C1315.66,365.41,1315.51,367.21,1315.34,368.86Z"/><path class="cls-1" d="M535.27,390.8a2,2,0,0,1-.61.56,196.25,196.25,0,0,1-30,10.9c-2,0-3.43-.22-4-1.75-.78-2,.53-3,2.15-3.78a184.63,184.63,0,0,1,29.63-11.24c1.27-.38,2.94-.89,3.72.67A4.08,4.08,0,0,1,535.27,390.8Z"/><path class="cls-1" d="M692,352c-3.24.89-6.55,1.51-9.84,2.21-7.4,1.6-14.8,3.18-21.41,4.6-2.16-.36-3.9.4-4.49-1.35-.71-2,.76-3.17,2.39-3.76a163.92,163.92,0,0,1,31.76-8.1c2-.3,3.35.34,3.71,2.34C694.48,349.71,693.93,351.42,692,352Z"/><path class="cls-1" d="M852,331c-10.87,1.37-21.76,2.46-32.73,2.81-1.9.06-3.08-.79-3.17-3s.84-3.19,2.82-3.37c6.44-.56,12.89-1.05,19.32-1.56a.28.28,0,0,1,0,.09c4.21-.24,8.42-.49,12.64-.68,1.67-.08,3.53-.25,3.8,2.15A2.87,2.87,0,0,1,852,331Z"/><path class="cls-1" d="M1211.3,344.54c-.43,2.92-2.74,2.37-4.55,2.14q-15.35-2-30.64-4.14c-2.25-.32-4.57-.93-4.13-4.08s2.83-1.89,4.59-2a23.51,23.51,0,0,1,2.51.1c0-.12,0-.23.05-.34,9.36,1.46,18.71,2.94,28.07,4.38C1209.52,341,1211.75,341.38,1211.3,344.54Z"/><path class="cls-1" d="M486.81,408.33a3.73,3.73,0,0,1-2.23,3.32A85.25,85.25,0,0,0,460,428.83c-1.07,1.06-2.87,2.2-4.44.67-1.33-1.3-1-3.18-.42-4.75a7.85,7.85,0,0,1,1.9-2.63c7.13-7.42,16-12.08,25.45-15.77C485.08,405.33,486.94,406.39,486.81,408.33Z"/><path class="cls-1" d="M909,325.85c0,1.84-.61,3.4-2.75,3.43-5.87.08-11.74,0-17.6,0v.5c-4.75.26-9.5.54-14.24.76-2,.09-4,.14-4.22-2.72s1.55-3.17,3.68-3.24c10.62-.4,21.23-.79,31.85-1.24C907.64,323.27,909.08,323.48,909,325.85Z"/><path class="cls-1" d="M796.89,336c-9.76.5-19.5,1.11-29.19,2.39-.84.11-1.66.24-2.5.33-1.38.14-3,.46-3.34-1.41s-.37-4,2.09-4.76a15.36,15.36,0,0,1,3.26-.73c9.72-.86,19.4-2.44,29.21-2.08,1.77.07,4.18-.88,4.49,2.17S799.45,335.89,796.89,336Z"/><path class="cls-1" d="M1419.45,400.52c-.68,1.77-2.39,1.91-4,1.47-3.49-.94-6.94-2-10.36-3.18-5.54-1.83-11.08-3.68-16.57-5.65-2-.74-4.41-1.33-5.09-3.85a5.63,5.63,0,0,1,0-3.25c.46-1.16,1.79-1.06,2.88-.71a317.63,317.63,0,0,1,31.14,11.8C1418.7,397.73,1419.77,398.57,1419.45,400.52Z"/><path class="cls-1" d="M1046.28,330.61c-10.64-.34-21.29-.79-31.94-1.12-2.52-.08-3.63-1.49-3.51-3.69s1.77-2.49,3.65-2.47c5.32.06,10.64,0,16,0v.55l16,.93c1.72.1,3.48.29,3.68,2.52C1050.31,330.11,1048.38,330.67,1046.28,330.61Z"/><path class="cls-1" d="M1465,428.19a1.87,1.87,0,0,1-2.54,1.67c-2.58-.57-4.47-2.33-6.29-4.05-6-5.67-12.3-10.63-20.54-12.58-2.42-.56-4-1.73-2.92-4.8,1-2.91,2.61-3.23,5.11-2,8.33,4,16.83,7.82,23.33,14.74C1463.12,423.21,1464.72,425.48,1465,428.19Z"/><path class="cls-1" d="M1104,330.78c0,2.91-2.14,2.88-4.14,2.74-10.36-.71-20.7-1.49-31.05-2.18-2.49-.16-3.44-1.44-3.37-3.79.1-3.22,2.39-2.4,4.23-2.29,3.63.23,7.27.53,10.91.81l0-.3c6.42.68,12.83,1.35,19.23,2.07C1101.77,328.05,1104.06,327.89,1104,330.78Z"/><path class="cls-1" d="M1156.83,336c0,1.85-1.19,2.34-2.74,2.32s-3.37,0-5-.17c-8.68-.69-17.35-1.48-26-2.06-2.65-.18-4.37-.93-4.16-3.9s2.48-2.43,4.37-2.44h8c6,.62,13.28,1.34,20.54,2.13a14.77,14.77,0,0,1,3.27.75C1156.66,333.18,1156.84,334.56,1156.83,336Z"/><path class="cls-1" d="M588.27,375.94a6.27,6.27,0,0,1-1.5.72c-11.06,2.94-22,6.27-33.45,7.45-.45.05-1-.45-2-1,.72-3.08,2.94-3.65,5-4.41a253.93,253.93,0,0,1,26.45-7.85,14.43,14.43,0,0,1,4.12-.48c1.59.09,2.33,1.35,2.66,2.79A2.46,2.46,0,0,1,588.27,375.94Z"/><path class="cls-1" d="M1263.59,356.54c-.36,2.86-3,1.69-5.11,1.92l-29.27-6.08c-2.1-.43-3.72-1.28-3.49-3.83.26-3,2.36-2.52,4.33-2.34,10.41.93,20.27,4.06,30.14,7.25C1261.83,354,1263.83,354.66,1263.59,356.54Z"/><path class="cls-1" d="M1376.87,476.34c-.18,1.61,0,3.62-2.46,3.48-1.88-.11-1.74-1.78-1.9-3.13-.12-1.09-.32-2.17-.48-3.25q.13-12.49.28-25c0-1.67,0-3.33.13-5s.1-3.68,2.41-3.53c1.59.1,1.86,1.79,1.91,3.2.13,3.89.19,7.78.33,11.67s.32,7.74.48,11.62C1376.49,469.65,1377.22,473,1376.87,476.34Z"/><path class="cls-1" d="M1368.47,384.47c-12.78-1.68-24.49-4.94-36.22-8.08a3,3,0,0,1-2.21-3.89c.37-1.5,1.41-2.61,3-2.21,12,3.06,24.45,4.82,35,12C1368.19,382.4,1368.16,382.77,1368.47,384.47Z"/><path class="cls-1" d="M1377,692.29c0,1.49-.83,2.77-2.48,2.7s-2.08-1.58-2.08-3c0-5.86,0-11.72,0-17.58h-.06c0-5.3,0-10.6,0-15.89,0-1.38,0-2.92,1.88-3.11s2.38,1.09,2.52,2.6C1377.75,669.42,1377,680.85,1377,692.29Z"/><path class="cls-1" d="M1377.31,420c0,2-.1,4.14-3,4-2.36-.13-2.32-2-2.34-3.67,0-5.6,0-11.21,0-16.81h-.14V389.24c0-1.64-.41-3.65,1.93-3.95,2.57-.34,3.44,1.36,3.45,3.62q.09,10.51.12,21Q1377.37,415,1377.31,420Z"/><path class="cls-1" d="M1377.61,576c-.2,2.76-.31,5.52-.66,8.25a1.94,1.94,0,0,1-2.33,1.73,1.88,1.88,0,0,1-1.72-1.56,42.9,42.9,0,0,1-.47-5.78q-.21-13.29-.34-26.59a14.56,14.56,0,0,0,.4-1.61c.23-1.57-.25-3.75,2.24-3.67,1.93.07,1.62,2,1.68,3.26C1376.86,558.68,1377.22,567.34,1377.61,576Z"/><path class="cls-1" d="M1376.81,639.62c-.33,1.1-1,2-2.38,1.84a2.08,2.08,0,0,1-1.76-1.51,2.45,2.45,0,0,1-.22-.81c-.08-12.48-.29-25,.39-38.29,3.17,1.25,3.51,2.29,3.53,3.43q.38,16.43.68,32.85A8.27,8.27,0,0,1,1376.81,639.62Z"/><path class="cls-1" d="M548.09,582.22c0,2.83-1,4.11-3.77,4.06-2.92-1.93-1.93-5-2-7.59-.23-8.29-.24-16.58-.34-24.87,1.53-2-1.35-6.5,3.23-6.41s2.66,4.14,2.72,6.41C548.18,563.28,548,572.75,548.09,582.22Z"/><path class="cls-1" d="M548,691.5c-.18,2.16-1.39,2.82-3.31,2.78s-2.21-1.23-2.26-2.75c-.16-4.17-.33-8.35-.5-12.51,0-1.79,0-3.57,0-5.35a2.82,2.82,0,0,0,0-2.73c.18-3.35.27-6.71.55-10.05.17-2.07-.64-5,2.69-5.18,3.64-.2,2.66,2.93,2.74,4.88.34,7.82.48,15.65.69,23.48C547.57,686.47,548.24,689,548,691.5Z"/><path class="cls-1" d="M545.25,478.78c-4.82-.11-2.14-4.59-2.74-7.12a33.34,33.34,0,0,1-.45-4.93q.26-11.28.5-22.57c0-2.1.32-4.07,3.09-3.85,2.28.18,2.34,2,2.38,3.71q.29,13.8.54,27.58C546.9,473.81,550.13,478.89,545.25,478.78Z"/><path class="cls-1" d="M548,637.68c0,2-1,3.24-2.94,3.33-2.33.1-2.48-1.76-2.49-3.46,0-5.29,0-10.58,0-15.87h.19c0-5.57,0-11.14,0-16.7,0-1.9,1-3.18,3.08-3,1.88.17,2,1.79,2,3.11C548,616,548,626.83,548,637.68Z"/><path class="cls-1" d="M548.1,419.29c0,2.18.3,4.85-3.14,4.75-3-.08-2.45-2.54-2.46-4.34-.06-9.83,0-19.65,0-29.49a17.74,17.74,0,0,1,.23-2.51c.25-1.66,1.35-2.31,2.92-2.32,1.84,0,2.34,1.26,2.34,2.74,0,5.61,0,11.23,0,16.84h.13C548.12,409.74,548.17,414.52,548.1,419.29Z"/><path class="cls-1" d="M1291.56,874.36c-9.46,6.85-19.89,6.75-30.78,4.7-2.68-.51-3-3.94-5.85-3.55-9.94-8.55-14.22-19-10.88-32.08a28.72,28.72,0,0,1,24.64-21.95,29.91,29.91,0,0,1,29.67,14.86c6,10.89,5.09,23.67-2.42,33C1294.56,871.09,1293,872.7,1291.56,874.36Zm-18.39-46.27c-12.85-.06-23.5,10.09-23.64,22.52-.14,12.28,10.61,23.32,22.89,23.51,12.12.18,23-10.91,22.91-23.31C1295.22,837.91,1285.7,828.16,1273.17,828.09Z"/><path class="cls-1" d="M1431.45,845.16c1.11-2.85,2.44-6.51,4-10.1,2.61-6.17,5.27-12.33,8-18.42,1-2.21,2.83-3.76,5.37-2.43,2.18,1.14,1.69,3.45,1.08,5.25a271.29,271.29,0,0,1-11.13,27.09,7,7,0,0,1-1.4,2.07c-1.19,1.17-2.51,2.47-4.37,1.76C1431,849.6,1431.41,847.71,1431.45,845.16Z"/><path class="cls-1" d="M1470.16,765.39c-2.62,11.18-5.74,21.91-10.67,32a5.11,5.11,0,0,1-1.66,1.86c-1.47,1-3.14,1.39-4.65.18-1.28-1-1-2.36-.48-3.79,3.27-9.23,6.43-18.49,9.69-27.71.76-2.12,1.71-4.23,4.35-4.66C1468.6,763,1470.06,763.33,1470.16,765.39Z"/><path class="cls-1" d="M1479.24,722.49c-.6,7.53-.94,15.65-4,23.28-.69,1.7-1.17,4.07-3.82,3.64-3.1-.51-3.06-3-2.53-5.21,2.27-9.52,3.39-19.2,4.47-28.9.15-1.35.29-2.92,1.57-3.71a5.45,5.45,0,0,1,3.1-.75c.46,0,1.16,1.22,1.19,1.91C1479.31,715.81,1479.24,718.89,1479.24,722.49Z"/><path class="cls-1" d="M1144.44,872a9.55,9.55,0,0,1-5.77.35c-9.38-1.72-18.78-3.3-28.16-5-5.33-1-5.35-1.15-2.84-7.19,10.63,1.49,21.27,2.86,31.67,5.72C1142.73,866.84,1144.87,868.22,1144.44,872Z"/><path class="cls-1" d="M1197.07,879.9c.35,2.62.73,5.55-3.38,4.6-11.39-2.64-23.06-4.18-34.09-8.33.79-2.19-.95-6.76,3.92-5.34C1174.65,874.08,1186.4,875,1197.07,879.9Z"/><path class="cls-1" d="M1377.36,837.22c0,5.33,0,10.65,0,16,0,2.08-.78,3.19-2.86,3.14-1.73,0-2.39-1.14-2.38-2.75q.11-16.8.22-33.62c0-1.56.59-2.79,2.42-2.59s2.19,1.59,2.2,3c0,5.6,0,11.2,0,16.8Z"/><path class="cls-1" d="M1377.17,784.63c0,5,0,10.1,0,15.14,0,1.76-.28,3.51-2.59,3.44-1.77-.05-2.2-1.47-2.2-2.94,0-11.22,0-22.43.12-33.65,0-1.35.3-3.08,2.18-2.88,1.72.18,1.84,1.87,1.85,3.24,0,5.88,0,11.77,0,17.65Z"/><path class="cls-1" d="M1377.79,874.5q-.15,13.35-.29,26.71c0,1.67,0,3.34,0,5s-.21,3.4-2.49,3.62c-2.63.24-3.39-1.33-3.42-3.55-.07-6.69-.08-13.38-.16-20.06,0-3.34-.17-6.67-.25-10,1.23-1.56.12-4.78,3.45-4.88C1376.8,871.27,1377.25,872.91,1377.79,874.5Z"/><path class="cls-1" d="M548.05,513.16h0c0,5.3,0,10.61,0,15.92,0,1.87-.75,3.17-2.87,3.34-2.38.19-2.73-1.32-2.73-3.16q0-15.91,0-31.84c0-2.06.23-4,3.1-3.79,2.32.18,2.46,2,2.48,3.59C548.09,502.53,548.05,507.84,548.05,513.16Z"/><path class="cls-1" d="M454.85,762.63c5,10.37,6.94,21.85,11.91,32.23.93,1.94,1.39,4.67-1.79,5.32-2,.41-3.84.55-5.16-2.42a156.36,156.36,0,0,1-9.46-27.54c-.58-2.48-1.8-5.54,1.26-7.63Z"/><path class="cls-1" d="M438.82,716.34c-.76-4.3.59-5.72,3.27-6,2.93-.25,2.72,2,3.09,3.92,2,10,3.95,20.07,6,30.08.47,2.29-.29,3.94-2.21,4.82-2.4,1.1-3.45-.6-4.32-2.55a65.59,65.59,0,0,1-4.32-16.06C439.48,725.4,439.21,720.09,438.82,716.34Z"/><path class="cls-1" d="M775.56,868c10.79-5.2,22.48-6.17,34.15-7.12,1.71-.14,4.25-.5,4.42,2.49.14,2.63-2,3.28-3.85,3.66-10.95,2.24-21.94,4.34-32.91,6.49C774.89,872.27,776,869.87,775.56,868Z"/><path class="cls-1" d="M541.75,775c.25-2.78.46-5.57.77-8.34a2.77,2.77,0,0,1,2.79-2.6c1.77-.16,2.4.95,2.66,2.5.38,2.19-.36,4.52.78,6.61q-.21,10.08-.44,20.16c0,2-.1,3.92-.13,5.89,0,2.22-.76,4-3.34,3.83-2.31-.1-2.37-2-2.41-3.67-.09-3.09,0-6.18-.12-9.26C542.16,785.11,541.94,780.07,541.75,775Z"/><path class="cls-1" d="M1369.24,929.94c-2.21-.1-4.15-.15-4.68-2.09s1-3.21,2.45-4c2.2-1.16,4.59-1.94,6.91-2.88a122.8,122.8,0,0,0,19.89-10.76c2-1.3,4.62-3.35,6.56-.33,1.66,2.6-.38,4.93-2.35,6.47a69.63,69.63,0,0,1-22,11.87C1373.62,929,1371.17,929.46,1369.24,929.94Z"/><path class="cls-1" d="M1340.6,933.8c-9.27.75-16.81-4-24.63-7.68-2.3-1.08-3.32-3.07-2.19-5.58s3.07-1.89,5-1.12c3.12,1.25,6.28,2.42,9.35,3.78,5.17,2.31,10.4,4.16,16.22,3.81a16.55,16.55,0,0,1,5,.69,2.73,2.73,0,0,1,2.16,2.3c.21,1.8-1.23,2.53-2.53,2.78C1346.19,933.3,1343.38,933.48,1340.6,933.8Z"/><path class="cls-1" d="M1059.89,852.58c8.52,1.39,17.93,2.88,27.31,4.49,1.89.33,4.24.8,3.58,3.58-.55,2.34-1.76,3.6-4.81,3.05-9.37-1.69-18.83-2.94-28.26-4.35-2.54-.38-5.6-.61-5-4.15S1056.58,852.86,1059.89,852.58Z"/><path class="cls-1" d="M1267.39,901.34a153.66,153.66,0,0,1,30.33,10.92c1.22.59,2.44,1.67,1.89,3.3s-2.27,1.46-3.5,1.18a169.18,169.18,0,0,1-30.76-10.29c-1.6-.7-2.72-2.18-1.88-4.06C1264.2,900.74,1265.86,901.56,1267.39,901.34Z"/><path class="cls-1" d="M1214.28,885.05a178.67,178.67,0,0,1,32.38,9.58c1.34.55,2.6,1.35,2,3a2.57,2.57,0,0,1-3.37,1.69c-10.75-3-21.64-5.61-32.06-9.69-1.38-.54-2.45-1.55-2.08-3.17C1211.6,884.62,1213.24,885.09,1214.28,885.05Z"/><path class="cls-1" d="M647.41,820.93c17.55,1.5,29.74,13.05,29.45,30.52-.28,16.28-12.67,29.71-30.56,29.14-14.92-.48-28.71-10.81-29-29.83C617.09,834.25,631.27,820.6,647.41,820.93Zm.58,7.38c-13.09-.35-23.37,9-24,21.9-.58,12,10.26,24,22.44,23.7,13.6-.32,23.13-9.9,23.39-22.65A22.32,22.32,0,0,0,648,828.31Z"/><path class="cls-1" d="M620.5,912l1.71-.67c8.36-3,16.67-6.07,25.1-8.82,3-1,7.61-3.44,8.88.09,1.44,4-4,4.39-6.78,5.46-8,3.14-15.91,6.58-24.32,8.57C620.94,917.65,619.12,916.45,620.5,912Z"/><path class="cls-1" d="M861.14,852.63c1,0,1.88,0,2.71,0,1.08.09,2.29.05,2.75,1.36a3.36,3.36,0,0,1-.9,3.81,3.29,3.29,0,0,1-1.43.85c-10.69,2.33-21.39,4.6-32.4,4.56-1.91,0-4.2-.39-4.11-3.12.08-2.14,2-2.4,3.64-2.82C841.22,854.75,851.37,854.39,861.14,852.63Z"/><path class="cls-1" d="M549.64,930c-9.86-2.67-19.7-6.45-27.95-13.51a6.59,6.59,0,0,1-2.59-4.19c-.27-2.34.48-3.88,3.25-3.38a2.67,2.67,0,0,1,.78.27c9.85,5.2,19.7,10.38,29.53,15.63a3,3,0,0,1,1.64,3.49C553.86,930,552.35,930,551,930,550.68,930,550.4,930,549.64,930Z"/><path class="cls-1" d="M542.43,889.81c0-5.3,0-10.61,0-15.91,0-2,1-3.06,3.1-3,1.74.07,2.41,1.13,2.5,2.68.59,10.88.64,21.76.23,32.65-.06,1.72-.56,3.33-2.81,3.38-2.77.05-3.12-1.9-3.14-3.92-.07-5.31,0-10.61,0-15.91Z"/><path class="cls-1" d="M1376.14,531.75a1.76,1.76,0,0,1-1.74,1.49c-1.42-.16-1.69-1.37-1.7-2.42q-.12-17.22-.12-34.43c0-1.39,0-3,2-3,1.4,0,1.78,1.11,1.84,2.29C1377.05,507.72,1377.59,519.74,1376.14,531.75Z"/><path class="cls-1" d="M1382.17,209.84c9.28,0,18.55.14,27.82-.05,6-.12,10.81,2.17,15,6.35,21.44,21.38,20,61.3-2.83,81a16.42,16.42,0,0,1-10.61,4.45c-20.23.49-40.46-.12-60.68-.57-3.85-.08-6.88-2.11-9.71-4.54-23.58-20.23-23.15-62.54.8-82.4a15.82,15.82,0,0,1,10.71-4.1c9.83.13,19.67,0,29.5,0Zm-.92,85.42V295c9.26,0,18.52,0,27.78,0a14.43,14.43,0,0,0,9.93-3.73c19.36-17,19.41-54,0-71-2.86-2.52-5.87-4.11-9.77-4.17-18.24-.29-36.48-.49-54.72,0a13.54,13.54,0,0,0-9.63,4.31,50.2,50.2,0,0,0-3.71,66.69c4.36,5.42,9.37,8.47,16.49,8.24C1365.52,295.05,1373.39,295.26,1381.25,295.26Z"/><path class="cls-1" d="M537.5,210c9.55,0,19.11.08,28.66,0,5.41-.06,9.71,2.1,13.52,5.76,22.28,21.38,21.29,61-2,81.47a16.45,16.45,0,0,1-11.44,4.43q-29.91-.24-59.83-.54c-3.93,0-6.82-2.15-9.63-4.59-13.12-11.38-17.64-26.38-17.36-43a53.18,53.18,0,0,1,14.72-36.64c4.26-4.54,9-7.14,15.51-6.92,9.26.31,18.54.08,27.81.08Zm-.15,6v0c-9,0-18,.09-26.94,0-4.26-.06-7.42,1.66-10.4,4.59-18,17.7-18.77,50.63-1.48,68.9,3.45,3.65,7.39,5.9,12.52,5.86,17.68-.15,35.37-.33,53.05-.36,5.18,0,9-2.24,12.49-5.86,17-17.76,16.71-49.84-.59-67.44-3.53-3.59-7.38-5.79-12.54-5.71C554.76,216.06,546.05,216,537.35,216Z"/><path class="cls-1" d="M959.68,243.57a42.88,42.88,0,1,1,42.88-42.88A42.92,42.92,0,0,1,959.68,243.57Zm0-78.16A35.29,35.29,0,1,0,995,200.69,35.33,35.33,0,0,0,959.68,165.41Z"/><rect class="cls-2" width="1" height="1"/><rect class="cls-2" x="1919" y="1079" width="1" height="1"/><rect class="cls-2" y="1079" width="1" height="1"/><rect class="cls-2" x="1919" width="1" height="1"/></g><g id="Capa_3" data-name="Capa 3"><path d="M895.46,493.82v111H875.63V534.11L856.12,549l-16.18,12.53L823.76,549l-19.51-14.91v70.74H784.43v-111l19.82,15.23,35.69,27.44,35.69-27.44Z"/><path d="M949.38,530.78v75.5H929.55V528.71a15.8,15.8,0,0,0-13.48-13.48h-4.44V495.56h4.28v.16a35.55,35.55,0,0,1,13.48,3.65,35.17,35.17,0,0,1,16,16.18,41.76,41.76,0,0,1,2.7,7.45,33.53,33.53,0,0,1,.95,8.09Z"/><path d="M1075.79,527.44a32.67,32.67,0,0,1-9.2,22.85,32.75,32.75,0,0,1-23.47,55.51h-78.2V586h78.2a13.06,13.06,0,0,0,13-13,12.92,12.92,0,0,0-12.21-13h-59V540.13h59a13,13,0,0,0-.63-26h-78.2V494.29h78.2A32.63,32.63,0,0,1,1076,527Z"/><path d="M1129.87,530.78v75.5h-19.82V528.71a15.83,15.83,0,0,0-13.49-13.48h-4.44V495.56h4.29v.16a35.65,35.65,0,0,1,13.48,3.65,35.17,35.17,0,0,1,16,16.18,41.72,41.72,0,0,1,2.69,7.45,33,33,0,0,1,1,8.09Z"/></g></g></svg>