<svg xmlns="http://www.w3.org/2000/svg" viewBox="0 0 1920 1080"><defs><style>.cls-1{fill:#010101;}.cls-2{fill:#f2f2f2;}</style></defs><g id="Capa_2" data-name="Capa 2"><g id="Capa_1-2" data-name="Capa 1"><path class="cls-1" d="M1546.42,551.72c-.1-35.82-.27-71.65-.3-107.48,0-41.51-20.23-69.5-59.88-81.76-80.84-25-163-44.55-246.58-57.69-10.4-1.64-20.82-3.44-30.58-7.66-2.95-1.27-6.5-1.75-8-5.24-3.12-1.63-6.89-2.45-8.91-6.8-2.32,1.28-3.22-1.89-4.64-3.22-17.53-17.68-35-35.31-55.72-49.57-49.52-34.08-104.22-51.71-164.18-53.51-6.89-.28-16.11,0-16.11,0C877,181.19,812.3,208,757,257.55c-9.68,8.66-18.44,18.35-27.61,27.56a16.29,16.29,0,0,1-9.94,6.82C710.5,300,699,301.43,688,303.29c-71.25,12-141.92,26.48-211.34,46.68-17.77,5.17-35.86,9.38-53,16.48-31.94,13.26-48.71,37.68-49.39,72.09-.77,37.73-.32,75.46-.42,113.18,0,2.21-.22,4.42-.35,6.63,1.15,14.76.6,29.7,7,43.71,3.72,8.11,9.26,14.91,14,22.27,18.68,17.9,41.08,24.23,66.72,23.92,56.56-.69,113.15-.19,169.73-.14,2.75,0,5.52.25,8.29.37,33.3-2.08,59.82,8.89,76,39.6a60.63,60.63,0,0,1,7.07,26.27c.49,14.13.12,28.29.12,42.41,1.33,17.12-.72,34.25,1.42,51.41,4.48,36.08,38,67,80.46,64.73,8.84-.46,17.64-1.4,26.45-2.12,37.3-3,74.68-4.08,112.09-4.68,57.49-.92,114.77,2.4,172.08,6.54,33.64,2.4,58.46-13.47,74.8-42.74,6.18-13.37,7.83-27.53,7.74-42.1-.15-22.46-.21-44.93,0-67.4.46-41.7,29.4-71.45,71.1-71.87q94.88-.93,189.76-.27c21.5.14,41.12-4.27,58.66-16.86,21.5-18.35,30.59-41.81,29-69.77C1545.9,558.35,1546.31,555,1546.42,551.72Zm-15,50.93c-7,13.24-16.6,23.88-30.28,30.49-11.35,6.84-24,8.17-36.84,8.19q-92,.12-184.06,0c-15.06,0-30,.45-43.91,7.19-28.21,13.65-44,36-45.21,67.35-1,26.06-.28,52.18-.64,78.26-.21,14-2.47,27.61-11.25,39.25-13.57,21.28-33.17,32.79-58.19,32.34-27.12-.48-54.23-3.09-81.33-4.75-24.1-.64-48.2-1.37-72.3-1.77L944,859.06q-49.9.78-99.72,4c-3.85.25-7.74.18-11.61.26-16.75,2-33.68,4.89-50.25.47-31-8.25-50.33-32-52.41-64.76-1.4-21.8-1-43.7,0-65.55-1.29-9.58-.19-19.24-2-28.86-6.5-34.68-36.19-61.13-71.42-62.86-6.34-.3-12.67-.47-19-.72-49.29.12-98.56.33-147.85.28-15.76,0-31.54.95-47.3-.85a63.3,63.3,0,0,1-28.27-10.17C393,616.44,381.87,596.84,381,571.57c-.29-8.27.1-16.56.18-24.85,0-37.74-.88-75.54.22-113.27.86-29.55,21.11-53.91,50.82-63.26,75-23.62,151.16-42.54,228.82-55.23,10.38-1.7,20.73-3.55,31.11-5.25,23-3.79,40.66-16.33,56.09-33.19,36.15-39.47,80.78-65.19,131.89-80.22a279.27,279.27,0,0,1,69.67-11c18.11-.62,28,.88,28,.88,74.67,4.45,138.89,33.09,190.22,87.08,22.91,24.09,49.14,35.56,81,40.33C1330,325.72,1409.22,345.23,1487,370.2c34.41,11.05,52.12,36.31,52.32,72.54.18,34.43-.12,68.85-.22,103.3C1539.45,565.3,1540.83,584.72,1531.38,602.65Zm156.33-186c-5.07-1.17-10.49-1-15.74-1-32-.1-63.9,0-95.84-.15-11-.05-12-1.2-12.2-11.91s.21-21.68-.35-32.49c-1.95-37.86-22.95-64.78-59.09-75.81-37.09-11.31-74.29-22.27-112-31.22-64.26-15.23-128.89-28.53-194.59-35.8-25-2.77-46.74-10.76-62.23-32-9.48-13-20.75-24.7-30-37.83-12-17-28-23.37-48.17-21.91-11.07.8-16.06,5.17-16.41,16.49-.15,4.86-1.69,6-6.34,6l-150.63-.15c-3.4,0-4.69-.72-4.92-4.54-.89-14.06-5.09-17.76-19.28-17.74,0,0-8.41.21-16.3.21s-11.66,3.69-11.66,3.69c-17.78,16.14-31.09,34.28-44.41,52.22-16.58,22.32-38.3,33-65.59,35.81-60.18,6.31-119.41,18.42-178.33,32-43,9.87-85.27,22.07-127.43,34.78-37.43,11.29-59.48,40.44-59.78,79.59-.07,9.42-.12,18.88-.32,28.31-.22,11.32-1,12.25-12.59,12.32-28.34.18-56.66.12-85,.18-8.89,0-17.8-.31-26.61,1.12-10.69,4.37-10.19,12.16-10.19,12.16v78.41c0,14.78,4.54,27.22,17.42,35.66,7.48,3.24,15.34,4,23.46,4.12,24.36.3,48.74-1.27,73,1.07,12.38,1.17,19.62,8.47,20.25,21,.52,9.95.23,19.94.1,29.89,0,2.14-.28,4.82-1.53,6.29-5.32,6.19-5.57,13.58-5.82,21q1,31,0,62.05c.55,9.53,2.17,18.63,8.52,26.36,6.12,7.45,13.53,12.2,23.4,12.35,12.21.2,24.42.61,36.63.35,12.51-.26,22.17,4,30.34,13.9,37.63,45.52,75.69,90.67,113.57,136,8.17,9.78,16.16,19.68,24.24,29.54,10,9.91,17.11,22.75,30.65,29.42a120.32,120.32,0,0,0,16.2,6.83h31.89c18.36.21,22.26-3.42,21.7-21.7-.23-7.18,2.48-8.09,8.59-8.06,35.28.27,70.55.17,105.83.18,13.81,0,18.76-4.38,19.2-17.86.13-4.34,1.46-6.07,5.7-6,2.49.07,5-.31,7.44-.48,40.45-4.4,81.09-4.45,121.68-5.64l14.62-.05c22.37,1,44.77,1.49,67.17,2.17,19.87,1.29,39.73,2.6,59.61,3.8,3.37.22,5.24,1.39,4.72,5.06-.93,6.57,2,11.76,5.94,16.59,4.5,2.72,9.49,2.54,14.5,2.52,35.22-.1,70.45.05,105.68-.31,6.53-.09,8.45,2.2,7.73,8.12a39.49,39.49,0,0,0,0,5c.16,11.75,5.06,16.71,16.68,16.78,2.77,0,5.59-.45,8.33-.17,28.94,3.13,53-5.11,70.17-29.72,23.13-29.08,47.2-57.35,71.53-85.4,6.93-8.53,13.73-17.13,20.77-25.55,17.93-21.47,36-42.79,53.94-64.3,5.31-6.36,11.69-9.93,20-10.09,14.4-.27,28.83-.17,43.19-1.06,18.58-1.15,32-15.54,32.39-34.52.43-21.88.3-43.77.4-65.65-.45-7.67.2-15.56-6.17-21.68-1.15-1.11-1.27-3.64-1.27-5.51,0-10.52-.32-21.06.3-31.56.65-11.2,8.36-18.89,19.51-20,21.84-2.17,43.75-.79,65.62-.84,9.44,0,18.83-.15,28-2.75,14.48-7.2,20.83-19.31,20.78-35V430.53C1698.32,419.24,1687.71,416.67,1687.71,416.67ZM1248.83,248.48c70.27,11.76,139.81,26.65,208.24,46.58,17.25,5,34.54,10.11,51.44,16.22,23.12,8.34,35.69,26,41.06,49.48,1.46,6.31-.13,7.94-6.48,5.62a1497.57,1497.57,0,0,0-163.16-48.53c-55.83-13.35-112.07-24.6-169-32.61-4.88-.68-9-2.15-12.22-6.12C1188,265.71,1177,252.41,1166.23,239c-.63-.79-.85-1.92-1.58-3.69C1192.87,242.12,1221.06,243.84,1248.83,248.48ZM370.45,361c6.05-26.57,21.48-44.18,47.75-52.5a1783.51,1783.51,0,0,1,189-48.47c44.07-8.81,88.5-15.11,133-21.39,5.09-.71,10-2.48,15.23-3.8.3,3.74-2.55,5.1-4.1,7.17-2.67,3.54-5.74,6.77-8.43,10.31-23.91,31.61-24,31.22-62.94,37.51-79.88,12.88-158.72,30.43-236,54.54-22.71,7.08-45.31,14.53-67.86,22.14C369.51,368.74,369.13,366.82,370.45,361ZM327.33,490.54h-.22c0,12.5-.16,25,.1,37.47.1,4.78-1.6,6.27-6.27,6.2q-16.63-.26-33.29.28c-4.57.16-6.51-1-6.47-5.92q.22-37.91,0-75.77c0-4.24,1.69-5,5.49-4.95,11.94.21,23.89.23,35.81-.09,4.29-.11,5,1.49,5,5.31C327.2,465.56,327.33,478.05,327.33,490.54Zm1311.21,36.57c0,5.25-1.2,7.32-6.92,7.13-11.06-.36-22.15-.1-33.21.34-4.37.17-5.79-1.07-5.7-5.51.26-12.72.1-25.47.1-38.19h0c0-12.19.26-24.39-.12-36.56-.18-5.67,1.67-6.86,7.17-6.56,11,.62,22.15.44,33.21.15,4.77-.11,5.94,1.29,5.86,6.11C1638.54,478.39,1638.44,502.75,1638.54,527.11Zm47.19-88.87c-.5,22.77.16,45.55-.45,68.3-.62,22-14.63,32.29-36.5,28.09-4.92-1-3.15-4.66-3.15-7.22-.1-24.71,0-49.41.08-74.13.07-11.82.15-11.87-11.25-11.91-13.33-.05-26.68.3-40-.11-6.48-.2-8.55,1.78-8.47,8.42.37,25.54,0,51.07.24,76.63,0,5.45-.59,8.35-7.18,9.17-10.47,1.28-17.81,8.34-24,16.54-7,17.6-4,36-4.1,54.08,0,3.44,1.87,6.35,4,9,3.68,4.57,3.08,9.8,2.63,15.06.05,20.8.4,41.63,0,62.43-.25,13.28-8.91,21.45-22.32,21.86q-18.32.58-36.64.29c-14.78-.27-25.94,6-35.23,17.19-27.33,32.86-55,65.49-82.48,98.18-1.06,1.27-2.33,2.35-3.5,3.52-14.76,17.88-29.39,35.89-44.37,53.61-7.64,9-14.47,18.83-23.31,26.83-6.89,9.54-16,15-28,15.16-9.41.17-18.83.24-28.22.82-5.32.32-6.81-1.77-6.36-6.7a40,40,0,0,0-1.5-16.43c-5.34-5.92-12.39-6.61-19.75-6.59-34.67.05-69.35-.07-104,.23-5.82.05-8.2-.86-8-7.5.21-11.16-4.37-15.35-15.45-16.42-40.9-3.9-81.93-4.72-123-5.55-46.56-.95-93,1.1-139.45,4.15-1.65.1-3.3,0-5,0a45.93,45.93,0,0,1-5.62,1.25c-16.77,1.77-18.07,2.82-19.13,19.3-.29,4.52-2.47,4.72-5.81,4.69q-48.88-.3-97.79-.55c-5.42.3-10.84.57-16.24.92-6.26.4-10.78,3.27-13,9.34-.25,2.2-.64,4.38-.74,6.59-.58,13.36-.55,13.36-14.43,13.06a67.5,67.5,0,0,0-8.29-.07c-22.15,2.13-37.49-8.27-48.77-26.27Q566.66,862.72,532.1,822c-8.37-9.91-16.43-20.1-24.63-30.16-4.34-5.52-10.38-9.64-13.48-16.21-10.58-12.37-21.87-24.23-31.58-37.26-12.57-16.9-27.83-26.14-49.5-24-9.31.92-18.81.37-28.2-.16-15.2-.85-22.14-8.73-22-24.12-1-21.67-.94-43.33-.09-65,.09-2.2-.7-5.14.42-6.46,9.21-10.79,5.89-23.63,6.24-35.84.21-8.11,0-16.23-.1-24.34-3.4-.75-3.32-4.18-4.66-6.4-5.48-9.11-13.41-15.18-23.73-16.65-6.12-.86-7-3.4-6.91-8.59.2-25.53-.11-51.09.29-76.62.11-7-2.2-9.08-9-8.88-14.43.39-28.87.27-43.32-.06-5.82-.12-7.5,1.85-7.44,7.67.3,26.1-.05,52.21.25,78.31.07,5.45-1.21,7.1-6.8,7-26.91-.32-33.26-6.51-33.34-33.66-.07-21.1.3-42.22-.19-63.3-.17-6.74,1.92-8.57,8.32-8.54,32.76.17,65.54,0,98.31,0,21.5,0,28.27-6.82,28.47-28.27.09-8.26-3.3-18.48,1.52-24.22,4.44-5.27,14.46-5.84,22-8.49,91.34-32.09,185.24-54,280.46-70.57,15.25-2.67,30.61-4.62,45.94-6.91l8.1-7.25c17.18-21.3,32.84-43.87,52.68-63,17.88-17.2,31.92-37.63,47.43-56.78,9.19-11.37,20.28-14.31,33.73-13.61,4.32.24,4.7,2.2,4.8,5.76.47,16.54.57,16.54,17.23,16.53l159,0c11.41,0,11.74-.25,11.81-11.46,0-11,0-10.67,11.18-10.91,10.15-.2,18.36,3.19,24.73,11.13,9.73,12.07,19.37,24.23,29.34,36.11,20.82,24.78,44.32,47.25,63.55,73.4,2.58,3.51,5.29,6.93,7.94,10.4,1.58.83,3.77,2.06,2.15,3.68,4,1,5,5,8,6.14,35.84,5.15,71.57,11.09,107.08,18.28a1768.55,1768.55,0,0,1,235,64.32c5.67,2,8,4.25,7.54,10.37-.52,7.46-.1,15,.17,22.47.53,15.34,8.55,22.9,24.47,22.9,33.61,0,67.2.2,100.79-.34C1684,428.38,1685.89,430.77,1685.73,438.24Zm-139.61,6c0-41.51-20.23-69.5-59.88-81.76-80.84-25-163-44.55-246.58-57.69-10.4-1.64-20.82-3.44-30.58-7.66-2.95-1.27-6.5-1.75-8-5.24-3.12-1.63-6.89-2.45-8.91-6.8-2.32,1.28-3.22-1.89-4.64-3.22-17.53-17.68-35-35.31-55.72-49.57-49.52-34.08-104.22-51.71-164.18-53.51-6.89-.28-16.11,0-16.11,0C877,181.19,812.3,208,757,257.55c-9.68,8.66-18.44,18.35-27.61,27.56a16.29,16.29,0,0,1-9.94,6.82C710.5,300,699,301.43,688,303.29c-71.25,12-141.92,26.48-211.34,46.68-17.77,5.17-35.86,9.38-53,16.48-31.94,13.26-48.71,37.68-49.39,72.09-.77,37.73-.32,75.46-.42,113.18,0,2.21-.22,4.42-.35,6.63,1.15,14.76.6,29.7,7,43.71,3.72,8.11,9.26,14.91,14,22.27,18.68,17.9,41.08,24.23,66.72,23.92,56.56-.69,113.15-.19,169.73-.14,2.75,0,5.52.25,8.29.37,33.3-2.08,59.82,8.89,76,39.6a60.63,60.63,0,0,1,7.07,26.27c.49,14.13.12,28.29.12,42.41,1.33,17.12-.72,34.25,1.42,51.41,4.48,36.08,38,67,80.46,64.73,8.84-.46,17.64-1.4,26.45-2.12,37.3-3,74.68-4.08,112.09-4.68,57.49-.92,114.77,2.4,172.08,6.54,33.64,2.4,58.46-13.47,74.8-42.74,6.18-13.37,7.83-27.53,7.74-42.1-.15-22.46-.21-44.93,0-67.4.46-41.7,29.4-71.45,71.1-71.87q94.88-.93,189.76-.27c21.5.14,41.12-4.27,58.66-16.86,21.5-18.35,30.59-41.81,29-69.77-.2-3.28.21-6.6.32-9.91C1546.32,515.9,1546.15,480.07,1546.12,444.24Zm-14.74,158.41c-7,13.24-16.6,23.88-30.28,30.49-11.35,6.84-24,8.17-36.84,8.19q-92,.12-184.06,0c-15.06,0-30,.45-43.91,7.19-28.21,13.65-44,36-45.21,67.35-1,26.06-.28,52.18-.64,78.26-.21,14-2.47,27.61-11.25,39.25-13.57,21.28-33.17,32.79-58.19,32.34-27.12-.48-54.23-3.09-81.33-4.75-24.1-.64-48.2-1.37-72.3-1.77L944,859.06q-49.9.78-99.72,4c-3.85.25-7.74.18-11.61.26-16.75,2-33.68,4.89-50.25.47-31-8.25-50.33-32-52.41-64.76-1.4-21.8-1-43.7,0-65.55-1.29-9.58-.19-19.24-2-28.86-6.5-34.68-36.19-61.13-71.42-62.86-6.34-.3-12.67-.47-19-.72-49.29.12-98.56.33-147.85.28-15.76,0-31.54.95-47.3-.85a63.3,63.3,0,0,1-28.27-10.17C393,616.44,381.87,596.84,381,571.57c-.29-8.27.1-16.56.18-24.85,0-37.74-.88-75.54.22-113.27.86-29.55,21.11-53.91,50.82-63.26,75-23.62,151.16-42.54,228.82-55.23,10.38-1.7,20.73-3.55,31.11-5.25,23-3.79,40.66-16.33,56.09-33.19,36.15-39.47,80.78-65.19,131.89-80.22a279.27,279.27,0,0,1,69.67-11c18.11-.62,28,.88,28,.88,74.67,4.45,138.89,33.09,190.22,87.08,22.91,24.09,49.14,35.56,81,40.33C1330,325.72,1409.22,345.23,1487,370.2c34.41,11.05,52.12,36.31,52.32,72.54.18,34.43-.12,68.85-.22,103.3C1539.45,565.3,1540.83,584.72,1531.38,602.65Z"/><path class="cls-2" d="M1539.35,442.74c-.2-36.23-17.91-61.49-52.32-72.54-77.81-25-157.06-44.48-237.92-56.56-31.89-4.77-58.12-16.24-81-40.33-51.33-54-115.55-82.63-190.22-87.08,0,0-9.91-1.5-28-.88a279.27,279.27,0,0,0-69.67,11c-51.11,15-95.74,40.75-131.89,80.22-15.43,16.86-33.06,29.4-56.09,33.19-10.38,1.7-20.73,3.55-31.11,5.25-77.66,12.69-153.83,31.61-228.82,55.23-29.71,9.35-50,33.71-50.82,63.26-1.1,37.73-.24,75.53-.22,113.27-.08,8.29-.47,16.58-.18,24.85.83,25.27,12,44.87,33.14,58.75a63.3,63.3,0,0,0,28.27,10.17c15.76,1.8,31.54.82,47.3.85,49.29,0,98.56-.16,147.85-.28,6.34.25,12.67.42,19,.72,35.23,1.73,64.92,28.18,71.42,62.86,1.8,9.62.7,19.28,2,28.86-1,21.85-1.4,43.75,0,65.55,2.08,32.75,21.38,56.51,52.41,64.76,16.57,4.42,33.5,1.5,50.25-.47,3.87-.08,7.76,0,11.61-.26q49.82-3.26,99.72-4l23.36.15c24.1.4,48.2,1.13,72.3,1.77,27.1,1.66,54.21,4.27,81.33,4.75,25,.45,44.62-11.06,58.19-32.34,8.78-11.64,11-25.24,11.25-39.25.36-26.08-.32-52.2.64-78.26,1.17-31.39,17-53.7,45.21-67.35,13.92-6.74,28.85-7.19,43.91-7.19q92,.07,184.06,0c12.84,0,25.49-1.35,36.84-8.19,13.68-6.61,23.29-17.25,30.28-30.49,9.45-17.93,8.07-37.35,7.75-56.61C1539.23,511.59,1539.53,477.17,1539.35,442.74ZM485.47,508a38.1,38.1,0,1,1,38.09-38.09A38.14,38.14,0,0,1,485.47,508Zm475.12,213.6a38.1,38.1,0,1,1,38.1-38.1A38.13,38.13,0,0,1,960.59,721.62ZM1435.74,508a38.1,38.1,0,1,1,38.09-38.09A38.12,38.12,0,0,1,1435.74,508Z"/><path class="cls-1" d="M485.47,431.83a38.1,38.1,0,1,0,38.09,38.1A38.16,38.16,0,0,0,485.47,431.83Zm0,66.19a28.09,28.09,0,1,1,28.08-28.09A28.13,28.13,0,0,1,485.47,498Z"/><path class="cls-1" d="M1435.74,431.83a38.1,38.1,0,1,0,38.09,38.1A38.14,38.14,0,0,0,1435.74,431.83Zm0,66.19a28.09,28.09,0,1,1,28.09-28.09A28.11,28.11,0,0,1,1435.74,498Z"/><path class="cls-1" d="M960.59,645.43a38.1,38.1,0,1,0,38.1,38.09A38.14,38.14,0,0,0,960.59,645.43Zm0,66.18a28.09,28.09,0,1,1,28.09-28.09A28.12,28.12,0,0,1,960.59,711.61Z"/><rect class="cls-2" width="1" height="1"/><rect class="cls-2" x="1919" y="1079" width="1" height="1"/><rect class="cls-2" y="1079" width="1" height="1"/><rect class="cls-2" x="1919" width="1" height="1"/></g><g id="Capa_3" data-name="Capa 3"><path d="M836,405.81v111H816.19V446.1L796.68,461,780.5,473.54,764.32,461,744.81,446.1v70.74H725v-111L744.81,421l35.69,27.44L816.19,421Z"/><path d="M889.94,442.77v75.5H870.11V440.71a15.8,15.8,0,0,0-13.48-13.48h-4.44V407.56h4.28v.16A35.35,35.35,0,0,1,886,427.54a42.36,42.36,0,0,1,2.7,7.46,33.41,33.41,0,0,1,1,8.09Z"/><path d="M1016.35,439.44a32.67,32.67,0,0,1-9.2,22.84,32.75,32.75,0,0,1-23.48,55.51H905.48V498h78.19a13.07,13.07,0,0,0,13-13,12.92,12.92,0,0,0-12.21-13h-59V452.13h59a13,13,0,0,0-.64-26H905.64V406.29h78.19A32.63,32.63,0,0,1,1016.51,439Z"/><path d="M1070.43,442.77v75.5H1050.6V440.71a15.8,15.8,0,0,0-13.48-13.48h-4.44V407.56H1037v.16a35.35,35.35,0,0,1,29.51,19.82,41.54,41.54,0,0,1,2.69,7.46,32.92,32.92,0,0,1,.95,8.09Z"/><path d="M1194.15,471.8a31.61,31.61,0,0,1,2.69,12.84,32.63,32.63,0,0,1-32.67,32.68H1086V497.49h78.2a12.93,12.93,0,0,0,12.85-13,12.77,12.77,0,0,0-11.42-12.84H1086V406.29h101.68v19.82H1105.8v25.7h59.64a32.17,32.17,0,0,1,28.87,19.83Z"/></g></g></svg>