<svg xmlns="http://www.w3.org/2000/svg" viewBox="0 0 1920 1080"><defs><style>.cls-1{fill:#f2f2f2;}</style></defs><g id="Capa_2" data-name="Capa 2"><g id="Capa_1-2" data-name="Capa 1"><path d="M1766,608.42s0-34.45,0-44.63a26.88,26.88,0,0,0-6.07-16.84c-6.85-8.53-14.93-9.74-23.83-9.56-16.83.31-33.69.22-50.53,0-17.69-.17-18.59-1.17-18.47-18.9.1-15.93.47-31.85.44-47.78,0-26.29-11.06-47.22-31.67-63.25-12.16-9.47-25.91-16.22-39.94-22.32-35.86-15.57-71.52-31.66-108-45.83-14-5.44-27.92-10.79-41.9-16.17-4-1.53-7.37-2.27-9.93,2.78-3.15,6.21-3.56,6.17-10.35,4-25.3-8.17-50.56-16.48-75.86-24.62-3.35-1.07-5.52-2.23-4.24-6.35,1.54-4.94-.88-7.48-5.66-8.39-2.4-.45-4.74-1.19-7.13-1.72-30.75-6.87-61.48-13.8-92.25-20.55a53.92,53.92,0,0,1-21.42-9.89c-19.55-14.78-40.15-28-62.31-38.57a372.73,372.73,0,0,0-122.11-34.46c-9.45-1-9.76-.95-11.65,7.85-.88,4.1-3.35,3.62-6,3.63l-118.66-.05c-.35-1.61-.57-2.8-.87-4-1.82-7.25-1.83-7.27-8.87-7.67-12,0-35.41,4.49-35.41,4.49-6.14,1.61-12.25,3.39-18.44,4.79C786,205.53,742.21,227.3,702.38,257.22a61.78,61.78,0,0,1-24.66,11.35c-30.49,6.59-60.91,13.53-91.35,20.32-.6.13-1.22.16-1.82.31-11.19,2.62-11.19,2.63-9.85,14.51-10.3,3.31-20.74,6.63-31.14,10-16.86,5.51-33.72,11-50.53,16.66-4.64,1.55-7.79,1.87-9.15-4.31-1.19-5.38-5.6-4.49-9.63-3-12.57,4.78-25.2,9.41-37.72,14.33-39.84,15.63-79,32.82-118,50.35-15.39,6.92-30.29,14.63-42.39,26.84-16.15,16.29-24,35.61-23.4,58.67.45,16.83.09,33.69-.08,50.53-.11,10.45-2.54,13.26-13,13.45-18.37.34-36.75.08-55.12.11-13.24,0-14.49.47-25.55,9.07-3.56,2.73-5,9.73-5,9.73v59.07c1,15.85,10.56,25.42,26.41,25.68,19.29.31,38.6,0,57.89.26,9.07.1,11.55,2.17,12.23,11.18.57,7.6,1.15,15.49-.23,22.89A275.56,275.56,0,0,0,245.47,719c.16,9.45.36,18.9.44,28.36s3.05,17.36,10.68,23.22c4.46,3.42,9.31,5.75,15.13,5.52,2.75-.1,5.5.06,8.25.09,11.09.1,19.32,4.87,24.28,14.92,8.16,16.57,19.05,31.19,31.61,44.68a188.66,188.66,0,0,0,80.85,51.69c15.52,3.56,42.94,6.61,60.25,6.61s49.8-7.29,49.8-7.29l18.1-6.67c16.08-6.52,32.24-12.85,48.22-19.62a141.71,141.71,0,0,1,57.24-11c25.11.2,50.23,0,75.35,0,10.86,0,10.86,0,10.76,11.16-.09,10.79-.1,11,11,11.09q67.07.35,134.16.42c3.06,0,6.14-.59,9.18-.34,4.9.41,6.54-2.28,6.91-6.43.21-2.13.22-4.28.25-6.42.11-9.4.1-9.37,9-9.37l105.49-.1c10.25,0,10.07,0,10.59,10,.7,13.77-1.13,12.34,12.7,12.48,35.84.34,71.68.19,107.51.15,10.72,0,21.45-.26,32.17-.53,7.77-.19,8-.42,8.77-8.34.43-4.43.47-8.9.7-13.72,28.93,0,57.07.19,85.22-.06A145.31,145.31,0,0,1,1325.55,860c21.59,8.54,42.68,18.45,64.9,25.25,65.36,20,125.19,10,178.08-34.5a184.21,184.21,0,0,0,47-59.3c5.38-10.85,13.94-15.76,25.82-15.45,1.84,0,3.68,0,5.52,0,15.29-.14,26.48-11,27-26.41.25-7.35.18-14.7.13-22.05-.09-16.19.4-32.33-3.54-48.36-2.46-10.08-1.94-20.68.07-31,.88-4.52,3.17-6.92,8-6.91s9.8-.41,14.69-.4c15.63,0,31.26.41,46.87.18,14.16-.21,23.55-8.36,25.43-21.58A70.74,70.74,0,0,0,1766,608.42ZM1241.51,283.27q37.14,8.24,74.25,16.68c2.67.6,5.35,1.29,8,1.83,3.79.77,6.93,1.6,6.42,6.86-.48,4.9,3.58,6.65,7.48,7.93,10.17,3.33,20.3,6.73,30.52,9.85,18.71,5.7,36.86,13.13,55.81,18.08q4.88,1.28,9.82,2.31c4.82,1,9.27.85,11.54-4.58,1.69-4.05,4.29-2.08,6.77-1.13q58.24,22.13,115.1,47.61c14.49,6.48,29.33,12.2,43.29,19.83,12.21,6.67,23.2,14.82,31.37,26.3,2.93,4.12,5.79,8.34,6.78,13.23-1.76,1.38-2.86.62-3.87.08-99.15-53.59-204.28-91.94-312.5-122.39-17.36-4.9-34.7-9.94-52.28-13.86-18.91-4.23-33-15.07-45.39-29.43C1237.39,280.75,1239.4,282.81,1241.51,283.27Zm-278.69-71.7c15.65-.9,31.3,0,46.94,0-.07.61-.13,1.21-.2,1.81H962.82ZM1639.27,593c0,24.51-.09,49,0,73.52.07,18.53-5.12,35.59-14.26,51.51-12.49,21.75-24.94,43.52-37.79,65-11.72,19.61-26.29,37-44.64,50.72-36.8,27.58-78,34.91-122.64,26-18.09-3.63-35.22-10.07-52.32-16.7a1180.46,1180.46,0,0,0-119.35-38.9c-38.15-10.29-75.87-6.76-112.91,6-20.8,7.17-41.27,15.33-62.82,20.14-4.18.93-8.39,1.84-12.63,2.38-10.31,1.31-10.33,1.22-14.89-8.69l-5.32-1.75-152.74.1c-2.14,0-4.29.1-6.43,0-3.46-.17-5.69,1-6.83,4.58-1.8,5.71-6.18,6.67-11.68,6-16.78-2.11-32.89-6.87-48.86-12.13-8.7-2.87-17.28-6.1-25.88-9.22-24.07-8.76-48.82-13.77-74.51-13.25-21,.42-41.1,5.44-61.12,11.31C611.47,821.36,572,835.09,533,850.29c-7.65,3-15.32,6.14-23.65,6.91-32.11,9-63.86,8.23-95.33-3.23-29.84-10.87-52.84-30.59-70.8-56-17.62-24.94-31.91-52-46.63-78.74-10.21-14.72-14.71-31.32-15.7-49-.36-6.38.11-12.8.2-19.21-.12-18.22-.3-36.44-.32-54.66,0-11.83.18-23.68.28-35.51-.75-14.68-1.25-29.45.31-44,3.49-32.49,21.2-55.63,50-70,30.66-15.25,62.5-27.93,94.33-40.51,63.75-25.21,128.65-46.93,195.21-63.39,26-6.44,47.64-20.41,68.16-36.56,17.31-13.64,34-28,52.72-39.83A325.35,325.35,0,0,1,858,221.15a50.53,50.53,0,0,0,6.28-1.24c4.81-1.52,8.34-1.21,9.08,4.92.35,2.86,2.65,3.88,5.36,4l158,.59c4.93,0,9.16-.61,10.36-6.54,1-4.89,4.65-3.82,8-3.24,30.27,5.19,59.52,13.65,87.31,27a362.15,362.15,0,0,1,68.81,43.61c10.07,8,20.07,16.07,30.17,24,18.57,14.61,39.55,23.88,62.46,29.64,96.3,24.23,188.9,58.95,279.23,99.92,14.43,6.55,27,15.51,37.1,27.83,11.82,14.45,18.45,31,18.81,49.68C1639.47,545.17,1639.24,569.06,1639.27,593Zm-682.39-381c-5.81,2.55-38.17,2.68-46.69,0ZM288,423.32c9.84-8.94,21.31-15.34,33.36-20.75,49.86-22.39,100-44.21,151.33-63.07,5.2,8.45,6.26,9,16.22,6.74,6.25-1.42,12.45-3.13,18.54-5.11Q542.8,329.72,578,318a76.52,76.52,0,0,0,8.46-3.5c2.37-1.1,4.53-3.39,4-5.68-1.65-6.68,2.67-6.54,7-7.43q42.21-8.7,84.07-19.05c1.13-.29,2.23-.88,3.81.26-11.89,13.06-24.61,24.25-42.56,28.48-31.27,7.36-62.1,16.36-92.85,25.55-91.28,27.29-179.69,61.77-264.4,105.52-4.33,2.24-8.64,4.52-13,6.75-.17.1-.5-.11-1.53-.38C274.38,438.44,280.34,430.32,288,423.32Zm745.09,407.05c3.59,0,6.33.47,8,4.41,2.13,5.05,7.27,5,11.8,5.44,8.32.84,16.37-1.88,24.62-2.12,1.1-1.63,2.7-1.54,4.34-1.29,25.32-7,49.47-17.64,74.7-24.82a168.11,168.11,0,0,1,91.5-.34,1177.72,1177.72,0,0,1,127.7,42.56c23.77,9.48,48.39,15.8,73.93,16.51,44,1.21,82.13-13.88,113.44-45.13a206.84,206.84,0,0,0,33.3-43.66c11.11-19.36,22.11-38.79,33.67-57.87a119.71,119.71,0,0,0,17.44-61.92c.43-41.93.24-83.87,0-125.81,0-11.93-1.06-23.89-4.29-35.44-8.08-28.91-26.49-49.32-53.36-61.81q-74.42-34.57-151.87-61.71c-44.42-15.63-89.3-29.77-135-41-22.74-5.59-42.66-16.39-60.85-30.81-15.11-11.95-29.79-24.46-45.61-35.53-42.27-29.58-88.64-49-139.62-57.23-.29-.05-.59-.13-.89-.19-11.33-2-11.61-1.82-17.27,8.21-7.91,3.31-16.14.7-24.21,1.06-1.48.06.45-1.81,1.2-2.64,1.7-6.61,5.68-9.36,12.64-8.16,4.7.81,8.86-.35,8.86-6.28,0-4.86,2.74-4.41,6-3.92,48,7.08,93.32,22,134.91,47.34,17.78,10.84,35.35,22,48.88,38.33,3.68,4.45,8.42,8,12.52,12.14,10.23,10.27,22.64,16.33,36.61,19.76,44.83,11,89.2,23.61,133,38.07,74.37,24.55,146.67,54.09,216.43,89.72,6.54,3.33,12.93,7,19.69,9.78,5.78,2.36,7.54,6.23,7.29,12-.32,7.34-.21,14.69-.3,22-.15,12.56.47,25.11.55,37.64s9.92,24.6,25.43,24.56c17.15,0,34.29-.2,51.44-.17a80.42,80.42,0,0,1,12.8.84c5.85.94,8,3.21,8.13,9.23.53,17.44.88,34.9-.06,52.33-.51,9.33-2.45,11-11.92,11-17.15.1-34.3,0-51.45,0a91.76,91.76,0,0,0-10.09.3c-12.67,1.41-21.79,10.24-22.08,22.89-.31,13.71-1.49,27.59,2.15,41.11,1.85,6.88,2.18,13.87,2.1,20.92-.16,12.55.18,25.13-.49,37.64-.57,10.64-3.26,12.67-13.65,13a95.81,95.81,0,0,0-13.71.87c-12,2.06-20.86,8.26-26.84,18.76-7.28,12.76-14.74,25.35-24.28,36.67-27.65,32.84-61.89,54.42-104.78,60.48a176.37,176.37,0,0,1-88.52-9.61c-19.71-7.51-39.24-15.45-58.78-23.38A139.71,139.71,0,0,0,1275.53,835q-47.77,0-95.55,0c-1.84,0-3.67.09-5.5.11-3.07,0-4.34,1.71-4.38,4.63,0,4.59-.19,9.18-.19,13.77,0,2.66-1.11,4-3.84,3.88-2.44-.11-4.89-.15-7.35-.15H1046.64c-1.83,0-3.68-.11-5.51,0-2.83.15-3.72-1.26-3.58-3.89.14-2.44.06-4.89,0-7.35,0-10.38-.06-10.43-10.8-10.59l-138.35-.26c-3.53.19-5.7,1.73-5.6,5.66s-.24,8,0,11.91c.28,3.67-1.15,5-4.67,4.8-3.67-.2-7.35-.26-11-.25q-51.48.09-102.93.24c-2.46,0-4.92-.26-7.35-.09-4.9.34-6.61-1.91-5.77-6.53a4.71,4.71,0,0,0,0-.92c-.41-14.83,2.09-14.65-15.36-14.82-28.18-.26-56.37.21-84.55-.28-24-.41-46.62,4.53-68.69,13.89-22.49,9.55-45,19.33-68.79,25.32-85.21,21.44-156-19.74-191.91-82.17q-3-5.17-5.84-10.39c-7.34-13.3-18.86-19.57-33.77-20.15-2.44-.09-4.9,0-7.35-.08-10.75-.32-13.53-2.79-14.05-13.7-.43-8.55-.13-17.15-.25-25.72A167.62,167.62,0,0,1,264.68,681c2.5-10.77.81-22.51.87-33.83a10.82,10.82,0,0,0-1.11-3.46c-4.51-12.37-12.82-18.14-26.71-18.2-17.46-.09-34.92.1-52.38,0-15.23-.08-16.55-1.5-16.39-17,.17-15,.28-30,.69-45,.23-8.76.86-9.15,9.32-10.54,6.39-1.05,12.82-1,19.25-1,14.4,0,28.81-.3,43.2.16,13.12.42,25.63-8.13,25.92-25.86.23-13.79,0-27.57.09-41.36,0-6.73.42-13.48.17-20.2-.14-4.06,1.63-5.67,5-7.48,72.84-38.55,148.53-70.41,226.62-96.67Q571,336.47,644.49,318.38c13.06-3.19,24.58-8.94,34.38-18.31,7.08-6.77,14.36-13.31,20.54-21,3.1-3.84,7-6.82,10.92-9.78,49.18-37,104.4-59.42,165.24-68.29,3.78-.55,6.64-.38,7.36,4.15.76,4.86,3.84,7,8.45,6.18,8.47-1.56,12,3.16,14.38,11-5,0-9.33,0-13.62,0-5.94,0-12,1.3-14.78-6.92-1.8-5.26-7.67-4.07-12.18-3.26a409.24,409.24,0,0,0-49.06,11.58c-42.38,13.13-80,35-114.47,62.47-11.48,9.15-22.52,18.85-34.56,27.34a137.16,137.16,0,0,1-45.43,21.21A1665.52,1665.52,0,0,0,331,438.54c-37.07,17.25-57.12,47.27-57.72,88.58-.67,45.93-.22,91.88-.3,137.83a108.49,108.49,0,0,0,13.86,53.61c13.24,23.79,26.32,47.73,40.83,70.73,22.66,35.93,52.48,63.45,94.55,75.62,36.77,10.65,72.8,7.58,108-5.74,42.33-16,84.87-31.29,128.47-43.53,12.37-3.47,24.77-6.74,37.55-8.47,29.81-4.06,58.57.37,86.65,10.44,20.13,7.22,40,15.2,61,19.78,7.16,1.57,14.37,3.14,21.77,3,5.9-.12,11.76-.24,14.38-7.22,1.25-3.34,4.59-2.53,7.21-2.54Z"/><path class="cls-1" d="M1639,521.29c-.36-18.64-7-35.23-18.81-49.68-10.07-12.32-22.67-21.28-37.1-27.83-90.33-41-182.93-75.69-279.23-99.92-22.91-5.76-43.89-15-62.46-29.64-10.1-8-20.1-16-30.17-24a362.15,362.15,0,0,0-68.81-43.61c-27.79-13.31-57-21.77-87.31-27-3.37-.58-7-1.65-8,3.24-1.2,5.93-5.43,6.57-10.36,6.54l-158-.59c-2.71-.1-5-1.12-5.36-4-.74-6.13-4.27-6.44-9.08-4.92a50.53,50.53,0,0,1-6.28,1.24A325.35,325.35,0,0,0,741.7,266.59C723,278.43,706.29,292.78,689,306.42c-20.52,16.15-42.15,30.12-68.16,36.56-66.56,16.46-131.46,38.18-195.21,63.39-31.83,12.58-63.67,25.26-94.33,40.51-28.77,14.32-46.48,37.46-50,70-1.56,14.58-1.06,29.35-.31,44-.1,11.83-.3,23.68-.28,35.51,0,18.22.2,36.44.32,54.66-.09,6.41-.56,12.83-.2,19.21,1,17.64,5.49,34.24,15.7,49,14.72,26.74,29,53.8,46.63,78.74,18,25.44,41,45.16,70.8,56,31.47,11.46,63.22,12.22,95.33,3.23,8.33-.77,16-3.93,23.65-6.91,39-15.2,78.52-28.93,118.7-40.71,20-5.87,40.15-10.89,61.12-11.31,25.69-.52,50.44,4.49,74.51,13.25,8.6,3.12,17.18,6.35,25.88,9.22,16,5.26,32.08,10,48.86,12.13,5.5.69,9.88-.27,11.68-6,1.14-3.62,3.37-4.75,6.83-4.58,2.14.1,4.29,0,6.43,0l152.74-.1L1045,824c4.56,9.91,4.58,10,14.89,8.69,4.24-.54,8.45-1.45,12.63-2.38,21.55-4.81,42-13,62.82-20.14,37-12.77,74.76-16.3,112.91-6A1180.46,1180.46,0,0,1,1367.62,843c17.1,6.63,34.23,13.07,52.32,16.7,44.66,8.94,85.84,1.61,122.64-26,18.35-13.76,32.92-31.11,44.64-50.72,12.85-21.53,25.3-43.3,37.79-65,9.14-15.92,14.33-33,14.26-51.51-.09-24.51,0-49,0-73.52C1639.24,569.06,1639.47,545.17,1639,521.29Zm-1272.8,186c-17.6.14-31-13-31-30.4.89-17.82,11-31.33,29.88-31.37,19.3,0,31.54,17.62,31.49,30.27C396.52,692.92,382.94,707.21,366.21,707.33Zm1188.12,0c-16.76-.17-30.54-13.65-30.77-30.12-.24-17.07,13.5-32,30-31.57,18.85.49,31.3,13.83,31.7,30.9A30.86,30.86,0,0,1,1554.33,707.32Z"/><path d="M1553.59,645.63c-16.53-.44-30.27,14.5-30,31.57.23,16.47,14,29.95,30.77,30.12a30.86,30.86,0,0,0,31-30.79C1584.89,659.46,1572.44,646.12,1553.59,645.63Zm.44,54.73c-11.6.14-23.26-11.78-23.31-23.84-.06-12.78,11.11-23.53,24.33-23.43,12.31.1,22.74,11.06,22.84,24C1578,688.86,1566.36,700.21,1554,700.36Z"/><path d="M365.07,645.56c-18.85,0-29,13.55-29.88,31.37,0,17.36,13.42,30.54,31,30.4,16.73-.12,30.31-14.41,30.35-31.5C396.61,663.18,384.37,645.52,365.07,645.56Zm0,54.82c-12.24-.09-22.78-11.29-22.69-24.11A23.54,23.54,0,0,1,365.73,653c12.48-.05,23.25,10.76,23.33,23.41S377.78,700.46,365.08,700.38Z"/><rect class="cls-1" width="1" height="1"/><rect class="cls-1" x="1919" y="1079" width="1" height="1"/><rect class="cls-1" y="1079" width="1" height="1"/><rect class="cls-1" x="1919" width="1" height="1"/></g><g id="Capa_3" data-name="Capa 3"><path d="M834,485.3v111H814.19V525.58l-19.51,14.91L778.5,553l-16.17-12.53-19.51-14.91v70.75H723v-111l19.83,15.22L778.5,528l35.69-27.44Z"/><path d="M887.94,522.25v75.5H868.12V520.19a15.83,15.83,0,0,0-13.49-13.48h-4.44V487h4.29v.16A35.65,35.65,0,0,1,868,490.85,35.17,35.17,0,0,1,884,507a41.44,41.44,0,0,1,2.69,7.45,33,33,0,0,1,1,8.09Z"/><path d="M1014.36,518.92a32.65,32.65,0,0,1-9.2,22.84,32.76,32.76,0,0,1-23.48,55.52h-78.2V577.45h78.2a13.07,13.07,0,0,0,13-13,12.91,12.91,0,0,0-12.21-13h-59V531.61h59a13,13,0,0,0-.64-26h-78.2V485.77h78.2a32.63,32.63,0,0,1,32.68,32.68Z"/><path d="M1068.44,522.25v75.5h-19.83V520.19a15.8,15.8,0,0,0-13.48-13.48h-4.44V487H1035v.16a35.55,35.55,0,0,1,13.48,3.65,35.17,35.17,0,0,1,16,16.18,42.26,42.26,0,0,1,2.7,7.45,33.53,33.53,0,0,1,.95,8.09Z"/><path d="M1194.85,518.92a32.65,32.65,0,0,1-9.2,22.84,32.76,32.76,0,0,1-23.47,55.52H1084V577.45h78.2a13.07,13.07,0,0,0,13-13,12.91,12.91,0,0,0-12.21-13h-59V531.61h59a13,13,0,0,0-.63-26h-78.2V485.77h78.2A32.63,32.63,0,0,1,1195,518.45Z"/></g></g></svg>