<svg xmlns="http://www.w3.org/2000/svg" viewBox="0 0 1920 1080"><defs><style>.cls-1{fill:#f2f2f2;}.cls-2{fill:#010001;}</style></defs><g id="Capa_2" data-name="Capa 2"><g id="Capa_1-2" data-name="Capa 1"><rect class="cls-1" width="1" height="1"/><rect class="cls-1" x="1919" y="1079" width="1" height="1"/><rect class="cls-1" y="1079" width="1" height="1"/><rect class="cls-1" x="1919" width="1" height="1"/></g><g id="Capa_3" data-name="Capa 3"><path class="cls-2" d="M385.18,346.75c-1.7-4.44-6,0-9,.62-5.57,1.18-10.34,4.26-15.14,7.22-4.15,2.57-7.72,5-1.1,8.6,5.94-5.55,12.45-7.31,18.08-10.52C380.77,351.09,386.79,350.92,385.18,346.75Zm1092-17.17c-8.42-4.84-18-6.2-27.59-7.47-1.27-.17-3-.39-3.24,1.68a2.87,2.87,0,0,0,2.14,3.24q12.88,3.42,25.83,6.63c2.26.55,3.29-2,5-3A15.26,15.26,0,0,1,1477.22,329.58Zm282.53,214.89c-4-9.77-8.51-19.48-11.92-29.56-4.18-12.23-11.95-17.18-24.92-16.86-25.86.67-51.73.44-77.59.22-15.49-.13-22.29-7-22.52-22.5-.25-16.93.24-33.87-.24-50.78-1.18-42.46-20.21-74.63-57.52-95.08-20-11-42.25-16.69-64.29-22.27-6.15-1.55-8.31-3-5.77-9.62,3.11-8.08,2.18-8.9-6-10.91-31.4-7.71-62.76-15.53-94.19-23.14-9.6-2.32-9-3.92-11.56,6.82-1,4.29-2.82,5.74-7.27,4.78-59.69-12.87-119.74-23.57-180.48-30.19q-57.47-6.27-115.13-10.22c-8.74-.59-16-2.29-21.6-9.35-2.78-3.48-6.41-6.36-11.31-6.38-10.11,0-20.24-.39-30.32.22-10.85.66-17.23,7.49-17.66,18.23-.35,8.92,0,17.86-.27,26.78-.11,5.44,2.23,9.26,7.23,10.79s5.17,4.22,3.8,8.48c-4.29,13.4-8.3,26.88-12.45,40.3-4.66,15.06-14.19,25.92-29.65,29.39a38.88,38.88,0,0,1-17.08-.21c-14.38-4.86-24.12-14.05-28.62-28.61-4.28-13.88-8.4-27.8-12.78-41.65-1.2-3.79-.79-6.24,3.36-7.56,6-1.92,8.22-6.27,7.95-12.47-.31-7.28,0-14.58-.18-21.86-.43-15-7.3-21.84-22.27-21.9,0,0-9.75-.05-20.31-.05s-15.33,4.53-15.33,4.53c-5.07,6.15-10.2,10.73-19.41,11.25-40.09,2.29-80.06,6.22-120,10.5-58.65,6.27-116.54,17-174.27,28.7a14.73,14.73,0,0,0-3.43.73c-6,2.8-8.66.31-9.26-5.63-.67-6.61-4.21-7.54-10.15-6-32.23,8.19-64.48,16.25-96.82,23.94-6.17,1.46-6.78,4.15-5.27,9.39,2.64,9.06,2.4,8.87-6.39,11.26C395.63,314,373.09,319.46,353,330.89c-36.55,20.77-54.69,52.95-55.65,94.79-.38,16.67,0,33.37-.24,50.06-.25,15.34-6.51,21.95-21.88,22.22-25.85.45-51.71.26-77.57.41-17.06.09-19.7,1.91-26.11,17.85-3.13,7.82-6.07,15.74-9.32,23.53-2.55,6.34-4.94,13.16-6.43,17.59a30.69,30.69,0,0,0-1.6,9.78V697c0,9.44,1.64,17.56,8.37,24.32,8,7.92,16.46,15.43,23.83,23.89,6.37,7.31,13.85,9.55,23.05,9.4,15-.27,30,.07,45,.15,22.75-.1,45.52-.56,68.26-.12,9,.17,15.5,7.11,22.85,11.53q36,20.33,71.88,40.7c6.47,3.67,12.83,7.56,19.24,11.34,17.54,9.32,34.81,19.2,53.67,25.78,11.93,4.16,24,8,36.39,10.38,36.62,8.24,77.2,5.42,77.2,5.42,23.12-.48,45.39-6.47,67.62-12.17,5-1.27,7.62-1,7.69,4.83.07,5.6,4,4.72,7.54,4.13,20.54-3.48,41.05-7.07,61.57-10.57,1.84-.31,3.73-.27,5.59-.4,10.35-1.86,20.68-3.79,31-5.52,4.39-.73,8-1.68,6.41-7.42-.76-2.78.58-3.71,3.26-3.92,25.92-2,51.74-6,77.76-7,37.05-1.44,103.17-2.29,103.17-2.29,49.57.92,99,3.84,148.33,9.17,3.75.41,5.74.71,4.46,5.27-1.47,5.18,2.55,5.51,6.2,6.11,18.49,3.05,37,6.2,55.44,9.33,14.32,2.43,28.62,5,43,7.24,2.68.43,7.1,1.92,7.25-2.76.27-8,4.07-7.87,9.89-5.66,3,1.14,6.38,1.48,9.54,2.31,74.52,19.54,145.59,11.2,212.82-26.73q57.3-32.34,114.16-65.49c5.65-3.27,11.41-4,17.52-3.95q56.74.17,113.5.42c4.32-1.11,8.56-2.35,11.82-5.71,10.15-10.44,20.34-20.82,30.49-31.27,4-4.08,5.62-9,5.58-14.72l.25-137.82C1765.81,557.47,1759.75,544.47,1759.75,544.47ZM1491.83,317.4c3.87-2.87,11.3,2.17,17.07,3.88,12.8,3.78,25.48,8.05,38,12.56,20.31,7.27,36.42,20.09,48.48,38,1,1.52,2.38,2.9,2.34,5.49-12.06-4.05-23.56-7.88-35-11.79-2.65-.9-5.47-1.79-.48-4,3.24-1.45,1.22-3.51-.43-4.83-7.12-5.59-15.36-8.92-23.9-11.58-1.37-.43-3-.33-3.47,1.39-.65,2.22.66,3.33,2.56,4.29,5.14,2.59,10.11,5.55,15.33,7.94a5.93,5.93,0,0,1,2.73,2.74c-1.86.93-3.63.48-5.41-.22-19.44-7.42-39.52-12.81-59.47-18.6-4.8-1.4-6-3.25-4.36-7.93C1487.94,328.8,1487.78,320.38,1491.83,317.4Zm-392.72-68.9c1.61-2.3,5.25-.38,8-.13q40.31,3.76,80.63,7.45c32.25,3,64.25,7.81,96.13,13.41,29.53,5.19,58.9,11.18,88.41,16.55,4.92.9,6.66,2.38,4.37,7.2a17.21,17.21,0,0,0-1.45,5.4c-.47,4.2-2.76,5-6.34,3.77a8.33,8.33,0,0,0-1.33-.45c-2.83-.37-7.25-2.57-8,.58-1.09,4.31,4,3.83,6.88,4.74.68.23,1.35.43,2,.62,1.85.51,4,1,3.33,3.56-.56,2.3-2.61,1.16-4.48,1.33l-39.64-7.62c-51.37-9.89-103.13-17.18-155-23.52-15.36-1.86-30.73-3.77-46.11-5.44-3.76-.39-5.93-1-3.84-5.35,1.24-2.57-.51-4.08-2.56-3.06-10.06,5-13.15-3-17.45-8.91a9.48,9.48,0,0,1-1-1.83C1100.34,254.09,1097.26,251.14,1099.11,248.5ZM895.49,233.82c0-2.19.65-3.57,3.2-3.42,4.32.26,9.31.5,10.31,5.44,1.85,9.19,1,18.63.49,28-.1,1.69-1.49,2.15-2.71,2.85-9.78,5.72-10.64,7.86-7.79,18.56.65,2.46,1.12,5,1.68,7.44,3.84,12.27,7.41,24.64,11.58,36.78,6.88,20.1,20.48,32.72,42,35.5,2.08.31,10.53.49,10.53.49,25-3.92,39-19.47,45.24-43.19,2.14-8.11,5.05-16,7.62-24,.18-5.49,2.88-10.33,4.12-15.56,1.77-7.46-.31-12.36-7.4-15.28-3.1-1.29-4.61-3.1-4.6-6.22.06-7.51-.07-15,.47-22.52.42-5.86,5.7-9.15,11.52-8.38,2.79.39,2.72,2.07,2.72,4q0,32-.08,64.1c1.83,27.08-4.65,50.76-27.64,67.69-9.11,6.69-19.47,10.1-30.6,11.3-4.86.68-13.1,0-13.1,0-26.91-1.37-54-27.68-56.71-55.07a179.65,179.65,0,0,1-.68-28.12C894.56,274,895.58,253.92,895.49,233.82Zm-69.78,21c.4-7.44,5.07-8.41,10.86-8.45,1.64,0,3.29-.26,4.93-.23,10.89.19,20.21-3,27.14-12,2.32-3,16.83-5.35,19.83-3.67,2.12,1.2,1.26,3.35,1.27,5.08.06,13.41,0,26.81,0,40.21.6,15.5-.65,31,.91,46.49,3.13,31.5,30,58.33,61.63,60.49a94.81,94.81,0,0,0,26-1.68c30.76-8.38,51.36-35.44,51.8-69.12.31-25.16.24-50.31,0-75.45,0-4.87,1-6.16,6.06-6.26,7.45-.14,13.79.81,18.5,7.26s11.73,8.07,19.26,8.38c3.75.14,7.51.51,11.26.52,4.75,0,7.62,1.4,8.57,6.85,1,5.8,4.43,10.86,8.44,15.19,2.95,3.19,2.53,4.79-1.37,6.51-2.5,1.11-4.64,3.12-6.8,4.9-.85.7-1.61,1.93-.74,3.09a2.2,2.2,0,0,0,3.15.59c9.67-8.46,19.77-4,30.54-2.36,37.09,5.55,74.44,9.36,111.6,14.54,41.29,5.76,82.33,13.13,123.23,21.33,1.66.34,4.28.09,4.77,2.12.62,2.53-2.06,3.3-3.67,4.54-6.93,5.31-14.62,5.44-22.8,3.8q-91.15-18.4-183.63-28.05c-10.28-1.06-20.5-2.62-30.77-3.64-15.67-1.55-30.92-.21-45.85,8.91.67-4.91,3.68-6.52,5.12-9.12,1.12-2,.57-3.64-1.1-4.94-1.84-1.43-3,0-4.12,1.23a2.24,2.24,0,0,0-.41.56c-9.49,19.34-26.1,34.06-33.63,54.93-13,36.09-39.37,56.64-77.8,61.33-4.1.57-15.19,0-15.19,0-38.54-4.28-64.44-25.09-78.54-60.65-4.92-12.39-11-23.63-19.72-33.78-5-5.77-8.19-13.08-12.34-19.6-1.38-2.16-2.33-5.93-6.15-3.84-3.44,1.88-.68,4.39-.26,6.72.23,1.32,2.8,2.24.59,4.12-1.7,1.45-2.72-.21-3.62-.66-12.29-6.09-25.38-6.67-38.54-5.21-54.59,6-109.19,12.19-163.25,22.12-17.07,3.13-34.16,6.17-51.17,9.52-8.49,1.68-16.35,1.05-23.51-4.1-1.48-1.08-3.51-2.21-2.86-4.38.54-1.75,2.77-1.51,4.23-1.81,38.39-7.6,76.85-14.82,115.63-20.15,35.09-4.83,70.22-9.33,105.37-13.74,9.53-1.2,19.23-1.27,27.9-6.25,2.42-1.4,4.54.15,6.58,1.2,3.13,1.59,6.16,3.37,9.21,5.14,1.64,1,3.22,1,4.34-.6s-.4-2.54-1.19-3.61c-.28-.38-.71-.62-1-1-2.59-2.88-8.8-2.7-8.66-6.89.11-3.07,4.22-5.9,6.26-9C823.51,259.92,825.57,257.35,825.71,254.79ZM551.06,285.36c62.24-13.2,124.9-23.83,188.19-30.47,25.7-2.68,51.46-4.74,77.18-7.21,4.88-.48,6,1,3.89,5.36a66,66,0,0,1-8.83,13.54c-1.84,2.17-4,2.81-6.88,2.27-8.06-1.46-8.07-1.34-6.56,6.4-27.26,3.36-54.5,6.63-81.73,10.11-46.3,5.92-92.41,13.11-138.23,22.1-8.51,1.68-17,3.43-25.53,4.94-1.51.26-4,1.48-4.52-1.49-.42-2.66,2-2.73,3.67-3.38,3.32-1.33,9.88-1.24,8.85-4.85-1.45-5.1-6.72-.72-10.22-.2-3.68.56-4.76-.83-5.74-4.1C541.31,287.47,541.14,287.46,551.06,285.36ZM359.68,339.72c20.76-10.56,43.46-16,65.61-22.83,2.69-.83,4.33-.24,5,2.89,1.27,5.69,2.88,11.32,4.45,17,.78,2.81,0,4.36-2.94,5.19-22.95,6.54-45.76,13.55-68.35,21.29-.58.21-1.27,0-3.45,0,.36.21.77.42,1.22.63-13.59,4.75-26,9.06-40.27,14C330.8,360.32,343.49,348,359.68,339.72Zm310.6,497.17c-10.48,2.52-21,5.14-31.53,7.23-72.66,14.32-139.51-.35-202.13-39.13-31.5-19.49-64.27-37-96.45-55.37-1.38-.8-2.67-1.78-4-2.67-6.21-3.19-12.87-3.8-19.75-3.8-21.58,0-43.15-.23-64.73-.37l-43.43.4c-3.5,1.85-6.26.32-8.89-1.94Q183.93,726,168.49,710.67c-2.32-2.29-2.91-5.14-2.91-8.33q.1-68.18.13-136.36c0-6.2,2.17-11.84,5.31-17.12,4.47-11.31,9-22.59,13.35-34,1.57-4.17,4.09-5.45,8.5-5.42,27,.18,54.06,0,81.09.08,11.72,0,21.76-3.43,28.79-13.32,3.77-5.32,5.19-11.37,5.39-17.9.69-21.84-1.14-43.7,1.2-65.51a86.83,86.83,0,0,1,3.77-17.14c3.43-10.83,7.89-14.2,20.54-15.32-1,5.65-7.4,9.53-5.34,16.1,4.12-.09,5.75-3.15,7.24-6,5.59-10.66,13.57-17.12,25.65-20.82,23.26-7.14,46.41-14.74,69.69-21.84,1.43-.44,3-2,4.55-.42s.36,3.1-.05,4.61c-2.4,8.64-8.11,14-16.55,16.72-16.7,5.42-33.35,11-50.09,16.36-18.71,6-32.62,17.12-39.62,35.95a36.56,36.56,0,0,1-2.37,4c-.95-5.28-.13-9,.49-12.76.27-1.64.06-3.43-2.1-3.84s-3.06,1.2-3.14,2.86c-.43,10.2-4.61,20.54,2.22,30.42,2.06,3,1.64,7.41-.18,10.83-4.49,8.37-4.8,26.93-.2,34.49,1.88,3.09,2.39,7.52.56,9.33-5.42,5.42-3.5,11.77-3.54,17.75,0,6.57-1.78,13.47,3.62,19.37,1.62,1.75,1.1,5.48-.22,8.12-5.84,11.69-5.21,23.45-.39,35.2,1.59,3.9,2.52,8.33-.2,11.31s-2.85,6.18-2.88,9.63c0,5.64,0,11.29,0,16.92,0,2.63.33,5,2.29,7.12,3,3.34,2.88,7.55.83,11.16-4.28,7.53-4.5,26.57,0,34.4,1.85,3.26,2.54,7.73.17,10-5.06,4.74-3.19,9.83-2.46,15,1.15,8,4.31,15,8.61,21.93,5.1,8.25,7,18.38,14.87,25.06,2.3,2,4.54,4,6.93,5.9,1.83,1.44,4,3.5,5.11-.69.56-2,1.78-1.8,3.16-1,2.81,1.69,5.65,3.36,8.38,5.16.7.46,1.66,1.87,1.5,2.08-5.08,6.76,2.43,6.77,5,8.85a84.83,84.83,0,0,0,12.55,7.78c2.7,1.45,5.12,4.77,8.69-.26,1.83-2.55,5.38,2.19,8.37,3.1,1.78.55,3.89,1.49,2.48,4-1.78,3.06.24,4.27,2.28,5.55q9.87,6.11,19.79,12.16c1.36.84,2.7,1.92,4.53.95,6.05-3.21,10.39-1.41,12,5.18a6.33,6.33,0,0,0,3,4.46c6.54,3.7,13,7.48,19.69,10.91,2.13,1.1,6,3.43,4.9-2.57-.1-.52.41-1.66.65-1.66,4.11-.07,7.24,2.78,11,3.78,3.13.82,1.26,3.06.51,4.43-1.71,3.09-.38,5.06,2.2,6.31a98.7,98.7,0,0,0,23.91,8c1.74.34,4.12.8,4.69-1.57.46-1.94-1.77-2.68-3.15-3.2-5.48-2.06-11.07-3.8-16.56-5.85-2.48-.93-5.73-1.24-5.95-5.88,8,2.14,15.64,4.44,23.41,6.22,40.22,9.22,80.13,7,119.79-3.4,4.31-1.13,8.61-2.27,13-3.15,5.91-1.15,11.71-.87,17,2.36,2.19,1.31,5.24,2.34,5.46,5.07.28,3.37-3.43,2.24-5.26,3.29-1.12.62-2.05,1.14-1.77,2.57a2.82,2.82,0,0,0,3,2.4,9.89,9.89,0,0,0,3.41-.77c2.54-1,5.06-2.07,6.18,1.73C676.2,835.74,672.94,836.26,670.28,836.89Zm451.16-19.28c-50.64-6.62-101.6-8.47-152.6-9.36a24.28,24.28,0,0,0-2.83,0c-3.4.38-4.43-1.25-4.61-4.49-.2-3.63,1.85-3.66,4.37-3.66,6.36,0,12.71,0,19.05-.17,2,0,4.57.6,4.8-2.61.21-3-2.18-2.24-3.9-2.64l-51.61,0c-1.82.4-4.25.21-4,2.76.24,2.84,2.91,2.6,5,2.64q9.15.14,18.33.09c2.61,0,5.27-.57,5,3.65-.23,3.35-1.6,4.15-4.87,4.27-31.45,1.08-62.92,2.08-94.34,3.71-21.81,1.11-43.57,3-65.2,6.11-4.5.64-5.22-.65-5.12-4.64.25-11,6.11-19.72,16-23,14.67-1.93,82.18-8.4,155.19-8.4s142.74,5.84,142.74,5.84c11.66.94,21.77,3.91,26.64,15.91a16.24,16.24,0,0,1,1.34,4C1132.16,819.9,1131.69,819,1121.44,817.61Zm117.35,4.07a48,48,0,0,0-7-.88c-2.36-.14-5.83-1.95-6.47,1.74-.69,3.91,3.11,3.12,5.46,3.53,8.93,1.51,8.93,1.51,7.15,10.6-2.84,14.54-2.83,14.41-17.45,11.94q-40.21-6.75-80.46-13.2c-4.14-.66-6.31-1.75-5.2-6.58,1.26-5.43.08-12.69,3.25-16,2.18-2.25,10,1,15.25,1.66a118.46,118.46,0,0,0,11.83,1.4c4.17.13,4.79-2.12,2.78-5.45-9.55-1.11-19.06-2.3-28.6-3.33a4.21,4.21,0,0,1-4-3.32c-4.19-14.45-14.9-20.27-28.88-21.49-44.45-3.93-89-5.71-133.62-6q-17-.11-34.1-.28L881,777.66c-21.05,1.47-42.1,3.17-63.16,4.29-10.45.57-19.82,3.14-27.68,10.24a8.39,8.39,0,0,0-1.55,2.3c-3.58,14.72-15.93,13.33-26.8,14.67a26.46,26.46,0,0,0-4.12.86c-2.45.72-7.1-.75-6.63,3.13.55,4.65,5.22,2.7,8.13,2.34,6.51-.8,13-2,19.39-3.27,3.08-.62,4.51.14,4.42,3.33,0,.24,0,.47,0,.71,0,5.84,4.27,12.72,1.22,17s-10.91,2.64-16.61,3.67c-26.27,4.76-52.64,9-78.92,13.81-3.9.71-4.51-1-5-3.73-.62-3.7-.53-7.66-1.92-11-3.19-7.89.85-9.61,7.39-10,2.44-.14,6,.28,5.33-3.64s-4.32-2.23-6.38-1.71c-6.48,1.66-11.28,1.31-16.5-4.43-6.66-7.34-16.32-8.59-26.11-6.53-18.78,4-37.27,9.24-56.51,11-46.82,4.22-91-4.46-132.45-26.55-7.41-4-14.86-7.93-21.54-13.13-18.87-11.08-37.87-22-56.59-33.34-10.52-6.37-21.85-11.55-30.86-20.23-11.4-11-16.84-24.56-16.84-40.3,0-79.91.27-159.83-.11-239.74-.1-21.26,7.41-37.78,24.66-50,4.85-3.46,10.37-5.38,15.94-7.2,16.68-5.45,33.48-10.55,50-16.34,17.19-6,23.64-19.28,19-36.76-3.43-12.89-6.21-26-9.68-38.83-1.16-4.25.31-5.07,4-6q45.69-11.24,91.29-22.95c3.53-.9,4.81-.27,5.69,3.47,2.09,8.88,4.67,17.65,7.41,26.34,1.23,3.94,1.27,6.11-3.71,6.58-2.45.21-6.61.78-5.37,4.74,1.13,3.66,4.42,1.17,6.68.69,3.5-.76,5.7-1.21,7.06,3.63,3.4,12.21,16.8,21.15,29.34,19.21,20.61-3.19,41.07-7.31,61.61-11q50.94-9,102.34-14.84c18.64-2.14,37.36-3.85,55.93-6.6,32.25-4.8,63.52,12.69,74.61,45.1a114.15,114.15,0,0,0,17.91,33.16l11.24,11.54q6.07,4.81,12.14,9.59L936,412.37a32.15,32.15,0,0,1,11.19,2c3.12,1.38,6.78-1.27,10.16,1.19-3.51,2.37-7.08-.85-10.22.91-.38,4.32,3.17,5.24,5.88,5.4a119.1,119.1,0,0,0,15.19-.48c3.89-.17,6.18-2.61,1.12-6.75L983.83,412c9.43-2.48,17.94-7.15,26.78-11.05q7.47-5.85,14.93-11.7c.92-.95,1.85-1.89,2.78-2.84,11.94-12.38,19.54-27.19,25.54-43.21,10.9-29.1,40.17-46.3,73.4-41.68,30.21,4.19,60.6,7,90.84,11,27.42,3.6,54.72,8.06,81.91,13.2,15,2.83,29.91,5.8,45,8.16,13.87,2.19,27.45-6.66,31.55-20.1.93-3,1.8-4.7,5.2-3a30,30,0,0,0,3.39.87c2.19.76,4.39,1.16,5.11-1.69.62-2.49-1.37-3.42-3.33-3.53-7.71-.47-7.49-4.34-5.29-10.29a207.68,207.68,0,0,0,6.9-23.6c.82-3.48,1.92-4,5.17-3.22q46.3,11.73,92.71,23.15c3.53.86,3.94,2,3.09,5.25q-3.93,15-7.32,30.07c-.6,2.65-1.12,3.47-2.69,2.93,2.18,2.9.41,5.24-.12,7.53-4,17.26,2.76,30.13,19.6,35.86,16.39,5.58,32.94,10.69,49.42,16,26.47,8.52,40.78,27.91,40.78,55.63,0,35-.14,70.05-.21,105.07q0,37.41-.05,74.83c0,23.91,1.87,47.89-.89,71.71-1.89,16.27-10.84,28.89-24.83,37.39-26.24,16-52.7,31.58-79.08,47.29-8.06,4.78-15.85,10-24.51,13.75-34.1,17.88-70.39,26.23-108.91,26.14-25,0-48.85-5.59-72.74-11.49-12-3-22.77-1.4-32.08,7.19C1244.63,820.87,1242.48,822.44,1238.79,821.68ZM1751.3,710.56c-9.67,9.91-19.41,19.76-29.07,29.68-2.51,2.57-5.3,3.74-8.85,2.54-35.71.17-71.41.55-107.11.38A55.53,55.53,0,0,0,1577,751c-38.91,22.68-77.73,45.59-117.36,67-59.23,31.94-122.06,39.47-187.6,23.93-7.52-1.78-15.12-3.26-22.63-5.13-2.38-.59-5.33-1.31-4.54-5,.92-4.28,3.7-2.33,6-1.76s5.38,2.35,6.51-1.3-2.55-3.46-4.46-3.93c-5.31-1.29-2.5-3.38-.58-5,6-5.17,13-6.05,20.5-4.46,15.1,3.2,30.12,6.9,45.35,9.37,35.08,5.69,69.67,2.67,103.7-7.34,2.31-.67,4.53-2.52,7.52-.69-2.65,4.39-7.44,4.56-11.32,6.17-4.09,1.71-8.38,2.92-12.52,4.52-1.27.49-2.55,1.59-2.19,3.22.44,1.84,2.23,1.55,3.48,1.34a91.29,91.29,0,0,0,25.86-8.68c1.36-.71,2.51-2.19,1.93-3.41-3.5-7.27,2.67-7.34,6.55-9,1.67-.69,3.2-2.07,5.45-1.49,1.35,2-2.08,2.79-1.34,4.77,2.76,1.65,5.29.22,7.72-1.12,5.73-3.19,11.42-6.49,17.08-9.81,2.23-1.3,3.75-2.61,3.84-5.94.13-4.75,7.62-7.91,11.38-5.1,2.37,1.77,4,.51,5.73-.51q9.64-5.76,19.19-11.75c2.14-1.33,4.71-2.32,1.78-5.78-1.78-2.13,1.26-3.37,2.76-3.65,3.19-.61,5.56-6.54,8.75-2.93s5.14,1.91,7.69.44c5.48-3.19,10.93-6.42,16.28-9.8,2.43-1.52,7-2.62,2.27-6.77-.69-.61-.23-2.26.66-2.32,4.66-.26,7.41-10,13.75-2.64,1.46,1.7,3.45-.67,4.69-1.92,7.18-7.27,14.82-13.8,17.91-24.6,2.57-9,10.52-16,11.35-26.1.47-5.73,2.84-11.24-2.46-16.33-2.06-2-2.08-6.86-.28-8.67,5.63-5.59,3.28-12.24,3.7-18.51.27-4,.13-8,.16-12-2-4.51-7.4-9.37-3.91-13.84,6.39-8.19,2.76-17,3.65-25.41.4-3.8.48-7.6-3-11-2.53-2.41-2.44-8-.63-9.91,6.14-6.52,2.9-14,3.76-21.09.15-1.16.19-2.31.27-3.47-.83-4.11.79-8.57-3.72-12.1-2-1.58-1.39-6.15.11-9.33,5.43-11.53,5.59-23-.16-34.56-1.51-3-2.09-7.49,0-9.4,4.83-4.54,3.78-9.84,3.47-15-.45-7.41,2.23-15.23-3.76-22.06-1.72-2-1.63-6.78.32-9.44,7.14-9.72,2.55-20.13,2.38-30.27,0-1.69-1-3.32-3.17-2.77-2,.48-2.35,2-2.12,3.86.45,3.6,2.06,7.14.86,10.81-1.77.17-2.3-.86-2.71-2-7.26-19.62-21.87-30.91-41.35-37-16.09-5-32-10.41-48.1-15.49-8.76-2.79-14.45-8.26-16.9-17.2-1-3.77-.66-5.4,3.77-4.08,27.1,8.1,54.08,16.6,80.78,25.89,6.85,2.39,9.5,8.67,13.27,13.95,2.49,3.46,3.83,8.16,9.15,9.37,2-6.85-4-10.81-5.24-16.28,11.38.37,17.08,4.27,20.37,14.16a101.22,101.22,0,0,1,5.11,31.1c.14,16.67,0,33.36.09,50,.17,21.68,12,33.51,33.58,33.59,26.55.13,53.1.26,79.66,0,5.63,0,9.1,1.34,11.23,6.93,5.2,13.55,11,26.88,16.29,40.36a23.25,23.25,0,0,1,1.6,8.23c0,31-.05,62-.1,93,.08,15.25.12,30.5.29,45.75A9.29,9.29,0,0,1,1751.3,710.56ZM1448.53,327q12.88,3.42,25.83,6.63c2.26.55,3.29-2,5-3a15.26,15.26,0,0,1-2.11-1.06c-8.42-4.84-18-6.2-27.59-7.47-1.27-.17-3-.39-3.24,1.68A2.87,2.87,0,0,0,1448.53,327ZM385.18,346.75c-1.7-4.44-6,0-9,.62-5.57,1.18-10.34,4.26-15.14,7.22-4.15,2.57-7.72,5-1.1,8.6,5.94-5.55,12.45-7.31,18.08-10.52C380.77,351.09,386.79,350.92,385.18,346.75Z"/><path class="cls-1" d="M1588.87,625.58q0-37.41.05-74.83c.07-35,.23-70,.21-105.07,0-27.72-14.31-47.11-40.78-55.63-16.48-5.29-33-10.4-49.42-16-16.84-5.73-23.63-18.6-19.6-35.86.53-2.29,2.3-4.63.12-7.53l-.12,0c-1.68,1-2.71,3.57-5,3q-13-3.2-25.83-6.63a2.87,2.87,0,0,1-2.14-3.24c.22-2.07,2-1.85,3.24-1.68,9.54,1.27,19.17,2.63,27.59,7.47a15.26,15.26,0,0,0,2.11,1.06l.07,0a.18.18,0,0,1,0,.08c1.57.54,2.09-.28,2.69-2.93q3.4-15.11,7.32-30.07c.85-3.21.44-4.39-3.09-5.25q-46.41-11.32-92.71-23.15c-3.25-.82-4.35-.26-5.17,3.22a207.68,207.68,0,0,1-6.9,23.6c-2.2,5.95-2.42,9.82,5.29,10.29,2,.11,3.95,1,3.33,3.53-.72,2.85-2.92,2.45-5.11,1.69a30,30,0,0,1-3.39-.87c-3.4-1.67-4.27,0-5.2,3-4.1,13.44-17.68,22.29-31.55,20.1-15-2.36-30-5.33-45-8.16-27.19-5.14-54.49-9.6-81.91-13.2-30.24-4-60.63-6.8-90.84-11-33.23-4.62-62.5,12.58-73.4,41.68-6,16-13.6,30.83-25.54,43.21-.93.95-1.86,1.89-2.78,2.84q-7.47,5.83-14.93,11.7c-8.84,3.9-17.35,8.57-26.78,11.05l-14.49,2.63c5.06,4.14,2.77,6.58-1.12,6.75a119.1,119.1,0,0,1-15.19.48c-2.71-.16-6.26-1.08-5.88-5.4,3.14-1.76,6.71,1.46,10.22-.91-3.38-2.46-7,.19-10.16-1.19a32.15,32.15,0,0,0-11.19-2l-27.29-11.46q-6.08-4.79-12.14-9.59l-11.24-11.54a114.15,114.15,0,0,1-17.91-33.16c-11.09-32.41-42.36-49.9-74.61-45.1-18.57,2.75-37.29,4.46-55.93,6.6Q685.51,314,634.56,323c-20.54,3.64-41,7.76-61.61,11-12.54,1.94-25.94-7-29.34-19.21-1.36-4.84-3.56-4.39-7.06-3.63-2.26.48-5.55,3-6.68-.69-1.24-4,2.92-4.53,5.37-4.74,5-.47,4.94-2.64,3.71-6.58-2.74-8.69-5.32-17.46-7.41-26.34-.88-3.74-2.16-4.37-5.69-3.47q-45.59,11.67-91.29,22.95c-3.68.92-5.15,1.74-4,6,3.47,12.87,6.25,25.94,9.68,38.83,4.63,17.48-1.82,30.74-19,36.76-16.56,5.79-33.36,10.89-50,16.34-5.57,1.82-11.09,3.74-15.94,7.2-17.25,12.24-24.76,28.76-24.66,50,.38,79.91.1,159.83.11,239.74,0,15.74,5.44,29.29,16.84,40.3,9,8.68,20.34,13.86,30.86,20.23C397.13,759,416.13,769.87,435,781c6.68,5.2,14.13,9.18,21.54,13.13C498,816.17,542.17,824.85,589,820.63c19.24-1.73,37.73-7,56.51-11,9.79-2.06,19.45-.81,26.11,6.53,5.22,5.74,10,6.09,16.5,4.43,2.06-.52,5.69-2.1,6.38,1.71s-2.89,3.5-5.33,3.64c-6.54.35-10.58,2.07-7.39,10,1.39,3.38,1.3,7.34,1.92,11,.48,2.78,1.09,4.44,5,3.73,26.28-4.79,52.65-9.05,78.92-13.81,5.7-1,13.51.67,16.61-3.67s-1.27-11.12-1.22-17c0-.24,0-.47,0-.71.09-3.19-1.34-3.95-4.42-3.33-6.42,1.31-12.88,2.47-19.39,3.27-2.91.36-7.58,2.31-8.13-2.34-.47-3.88,4.18-2.41,6.63-3.13a26.46,26.46,0,0,1,4.12-.86c10.87-1.34,23.22.05,26.8-14.67a8.39,8.39,0,0,1,1.55-2.3c7.86-7.1,17.23-9.67,27.68-10.24,21.06-1.12,42.11-2.82,63.16-4.29l57.79-1.59q17,.15,34.1.28c44.62.28,89.17,2.06,133.62,6,14,1.22,24.69,7,28.88,21.49a4.21,4.21,0,0,0,4,3.32c9.54,1,19.05,2.22,28.6,3.33,2,3.33,1.39,5.58-2.78,5.45a118.46,118.46,0,0,1-11.83-1.4c-5.28-.7-13.07-3.91-15.25-1.66-3.17,3.27-2,10.53-3.25,16-1.11,4.83,1.06,5.92,5.2,6.58q40.28,6.42,80.46,13.2c14.62,2.47,14.61,2.6,17.45-11.94,1.78-9.09,1.78-9.09-7.15-10.6-2.35-.41-6.15.38-5.46-3.53.64-3.69,4.11-1.88,6.47-1.74a48,48,0,0,1,7,.88c3.69.76,5.84-.81,7-4.12,9.31-8.59,20.08-10.15,32.08-7.19,23.89,5.9,47.79,11.45,72.74,11.49,38.52.09,74.81-8.26,108.91-26.14,8.66-3.7,16.45-9,24.51-13.75,26.38-15.71,52.84-31.34,79.08-47.29,14-8.5,22.94-21.12,24.83-37.39C1590.74,673.47,1588.91,649.49,1588.87,625.58ZM444.5,328.14A147,147,0,0,1,469.3,322c1.91.07,3.84-.62,4.11,1.92.22,2-1.16,3.09-2.77,3.51-8.14,2.11-16.3,4.1-24.49,6.05-1.69.39-3.57,0-4.18-1.77C441.31,329.81,442.93,328.65,444.5,328.14ZM438,728.58c-14.29,2.49-28.39,2.9-42.19-2.75-5-2.06-9.35-5.29-14.15-7.69-23-19.5-29.67-43.86-21.74-72.62,15.53-40.55,60.25-53,93.18-33.52,18.54,11,28.9,27.54,30.28,49.35.11,1.73-.72,3.84,1.41,5.07C482.57,697.24,467.16,718.09,438,728.58Zm53.39,71c0,1.73-.5,3.43-2.62,3.48s-2.68-1.58-2.69-3.35c0-4.69,0-9.39,0-14.07H486c0-3.76-.12-7.51.05-11.25.09-1.67-.91-4.38,1.68-4.62s3.17,2.41,3.38,4.5c.28,2.8.32,5.62.34,8.43Q491.44,791.18,491.34,799.61Zm-.68-44c-.2,1.4-.89,2.85-2.71,2.51s-1.95-1.87-2-3.29c-.05-4.68,0-9.35,0-14s0-9.36,0-14c0-1.19.17-2.42,1.62-2.66a2.3,2.3,0,0,1,2.95,2.18A118.46,118.46,0,0,1,490.66,755.6Zm0-45c-.18,1.47-.76,2.69-2.63,2.5s-2.1-1.55-2.11-3c0-4.44,0-8.87,0-13.3h.4c0-4.67,0-9.35,0-14,0-1.35,0-3.12,1.67-3.43s2.3,1.17,2.51,2.66A109,109,0,0,1,490.66,710.58Zm.75-47.24c0,4.59-2,5.15-5.54,3.12.05-8.15,0-16.31.17-24.45.06-2.56-1.64-6.69,1.73-7.24,3.58-.6,3,3.85,3.9,6.31C491.58,648.49,491.39,655.91,491.41,663.34Zm-5.48-71c0-1.61-.33-3.6,1.93-3.87,2.09-.27,2.91,1.4,3,3.12.65,9.36,1,18.72-.12,28.06-.14,1.23-.34,3.07-2.29,3-2.17-.11-2.46-1.93-2.5-3.57-.08-4.69,0-9.37,0-14.06Q485.93,598.68,485.93,592.35Zm5.21-19.1c-.1,2-.11,4.62-3.23,4.38s-2-2.74-2-4.38c-.17-7-.19-14.06-.26-21.07,1.33-2.64-1.88-7.77,2.26-8,4.77-.31,2.68,5.16,3.75,8C491.52,559.2,491.45,566.23,491.14,573.25Zm-5.08-206.62c0-1.25-.33-3.11,1.76-3.16a2.77,2.77,0,0,1,2.78,2.68c.4,3.73.69,7.47.76,11.21.1,5.17.05,10.35-.14,15.5-.05,1.74.13,4.25-2.62,4.11-2.49-.13-2.57-2.4-2.6-4.26-.08-4.24,0-8.46,0-12.69h0C486,375.56,486,371.1,486.06,366.63ZM486,411.1c0-1.1,0-2.43,1.53-2.67a2.37,2.37,0,0,1,3,2.16,118.86,118.86,0,0,1,.11,29.38c-.17,1.56-1,2.57-2.77,2.35-1.95-.24-2-1.72-2-3.11,0-4.69,0-9.38,0-14.06H486C486,420.47,486,415.79,486,411.1Zm0,103.79c0-4-.1-8,0-12,0-1.47-.64-3.8,1.65-4s3,1.94,3.23,3.86c.3,3,.45,6.09.47,9.14q0,8.44-.17,16.91c0,1.56-.17,3.54-2.44,3.57s-2.67-1.74-2.7-3.42c-.11-4.68,0-9.38,0-14.09Zm5-31.22c-.12,1.41-.29,3.66-2.58,3.57-2.72-.11-2.37-2.47-2.41-4.23-.09-4.46,0-8.92,0-13.39V457c0-1.65-.18-3.6,2-3.9s2.78,1.51,2.92,3.21A161.87,161.87,0,0,1,491,483.67Zm22-166.89c-5.74,1.18-11.37,3-17.16,3.77-3.71.52-4.57,2-4.44,5.43.22,6.56.2,13.16-.09,19.72-.1,2.3.41,6.14-3.1,6-3.21-.15-2-3.66-2.12-5.81-.17-4,0-8-.06-12,0-16.43,0-16.45,16.07-20.43,3.19-.79,6.36-1.63,9.6-2.13,1.94-.31,4.7-1.06,5.3,1.8S515.12,316.33,512.91,316.78ZM735.32,817.54c-8,1.77-16,3.5-22,4.83-4.07.62-5.87.14-6.35-2.12-.6-2.81,1.72-2.77,3.51-3.13q11.68-2.36,23.33-4.75c1.78-.36,3.91-1.51,4.55,1.26C738.9,815.83,737.38,817.08,735.32,817.54ZM864.79,362.27c-1.85.75-3-.65-3.87-2.11-4.5-7.74-6.93-16.25-9.23-25.4a3.28,3.28,0,0,1,2-3.57c1.84-.68,2.93.79,3.53,2.5,2.85,8.13,5.75,16.23,8.6,24.36C866.38,359.66,866.78,361.48,864.79,362.27Zm24.57,34.28c-6.76-5.42-12.43-12-17.7-18.86-1.17-1.54-1.78-3.93-.25-5.18,2-1.65,3.16.93,4.43,2,2.64,2.28,5.14,4.7,7.69,7.06,2.79,4.84,7.78,7.51,11.27,11.65C894.93,397.59,892.89,399.38,889.36,396.55Zm41.36,21c-8.64-2.2-17.06-5-24.36-10.36-1.69-1.23-4.63-3.13,0-4.71q14.26,5.71,28.53,11.46C935.48,417.41,933.12,418.13,930.72,417.52Zm81.68-9.47c-7.14,4-14.56,7.44-22.59,9.22-2.62.59-5.91,1.42-5.84-3.25,8.78-4.15,18.82-5.39,26.75-11.53,1.59.68,4.22-.92,4.84,1.37C1016.1,405.85,1014,407.15,1012.4,408.05Zm35.33-29.85q-7.73,8.6-15.65,17c-1.61,1.69-4,3.5-6.16,1.71-2.67-2.21.74-4,1.29-6a4.82,4.82,0,0,0,3-2.74q6.73-6.6,13.45-13.2c1.5-1.45,3.25-3.51,5.31-1.61C1050.62,375,1048.92,376.88,1047.73,378.2Zm19.75-40.91a87.24,87.24,0,0,1-8.56,23c-.73,1.36-1.76,2.45-3.23,2.08-2-.51-2.17-2.47-1.63-4q4.28-12.5,8.86-24.86c.56-1.54,1.74-3.19,3.6-2.33C1068.13,331.94,1068.26,333.8,1067.48,337.29Zm145,483.44c-.75,2.39-2.7,2.32-4.63,1.91q-11.33-2.4-22.64-4.87c-3.16-.71-5.45-2-3.21-5.8q13.5,2.34,27,4.71C1211,817.39,1213.48,817.65,1212.52,820.73ZM1432,577.6c-3,.21-3.23-2.43-3.3-4.39-.3-7.47-.31-15-.42-22.43a27.79,27.79,0,0,1,.59-2.74c.47-1.68.07-4.21,2.74-4.17,3.43.08,2.06,3,2.37,4.8a31.34,31.34,0,0,1,.24,3.51c-.08,7-.11,14-.32,21C1433.86,574.79,1435,577.39,1432,577.6Zm2,28h-.07c0,4.45,0,8.91,0,13.37,0,1.31.34,3-1.48,3.47-2.19.52-3.19-1.38-3.33-2.81-.44-4.64-.52-9.33-.57-14,0-4.22.12-8.46.29-12.68.08-2.1.14-4.7,3.13-4.47,2.74.18,2,2.71,2,4.45C1434.06,597.18,1434,601.4,1434,605.63Zm-.2-76.49c0,1.72-.55,3.39-2.78,3.24-1.79-.09-2.3-1.65-2.33-3-.14-9.14-.69-18.3.47-27.42.21-1.56.92-3.44,3.1-3,1.73.34,1.68,2.05,1.71,3.43,0,4.24,0,8.46,0,12.68h-.16C1433.83,519.75,1433.89,524.44,1433.8,529.14Zm0-135.78c0,1.66-.25,3.45-2.44,3.61s-2.73-1.76-2.71-3.33c0-8.91.15-17.82.42-26.72.06-1.57.68-3.55,2.81-3.42,2.3.16,2,2.26,2.06,3.81.07,4.22,0,8.44,0,12.68h-.14C1433.86,384.45,1433.9,388.9,1433.83,393.36Zm-4.4,17a2.08,2.08,0,0,1,2.33-2c1.9.09,2.17,1.51,2.18,2.94.06,4.67,0,9.34,0,14h0c0,4.69,0,9.36,0,14,0,1.46-.22,2.81-2.14,2.92s-2.57-1.09-2.71-2.54A129.69,129.69,0,0,1,1429.43,410.39Zm-.22,44.7a2.09,2.09,0,0,1,2.42-2c1.76.12,2.3,1.35,2.3,2.9,0,4.93,0,9.84,0,14.77h0c0,4.22.07,8.44,0,12.66,0,1.5.43,3.56-2,3.77-1.81.15-2.57-1.48-2.74-2.71C1427.8,474.69,1428.48,464.88,1429.21,455.09Zm-5.8-134.66c-5.74-.46-11.36-2.51-17.06-3.71-2.08-.44-3.73-1.09-3.5-3.47.26-2.85,2.69-2.39,4.33-2,8.22,1.77,16.39,3.72,24.55,5.74,2.69.68,2.4,3,2.38,5.17,0,4.22,0,8.42,0,12.65h-.18c0,4.22.09,8.44-.05,12.64,0,1.67.71,4.27-2.13,4.29-2.36,0-2.93-2.42-3-4.1-.24-6.79-.31-13.6-.09-20.37C1428.81,323.26,1428.52,320.86,1423.41,320.43ZM1431.73,713c-1.91.12-2.5-1.18-2.63-2.59-1-10.08-1.14-20.16.68-30.17.27-1.53,1.65-1.34,2.82-1.16l1.53,14.17c-.06,5.41-.09,10.8-.17,16.21C1433.94,711.06,1434.24,712.87,1431.73,713Zm2.26,73.08h-.06c0,4.22,0,8.44,0,12.66,0,2-.11,4-2.65,4-2,0-2.7-1.66-2.69-3.43.07-8.44.12-16.86.36-25.29,0-1.77.38-4.19,2.83-4.19,2.86,0,2.12,2.56,2.18,4.24C1434.07,778.13,1434,782.11,1434,786.09Zm-.22-30c0,1-.53,1.95-1.56,1.88a3,3,0,0,1-2.26-1.19,10.75,10.75,0,0,1-1.4-4.57c0-8.15.18-16.31.34-24.45a4.61,4.61,0,0,1,2-4.21l1.72.12C1435.58,734.37,1433.38,745.27,1433.77,756.08Zm127-70.79a63.58,63.58,0,0,1-62.82,45c-26.58-.67-45-14-57-37q-2.37-8.55-4.75-17.08c0-2.31,0-4.63,0-6.94,0-2.54.24-5.22-3.54-2.54-3.42,2.43-4-.06-4.06-2.64-.22-6.24-.29-12.51-.42-18.76,1.1-3.56-1.06-10.29,3.53-10,4.91.27,1.5,6.5,2,10,.78,5.65-.6,11.49,1.48,17.49,2.21-18.71,10.14-34.2,24.42-46.25,23.65-16.29,48.31-18.75,73.35-4C1557.83,627.2,1569.13,657.9,1560.78,685.29Z"/><path class="cls-2" d="M1533,612.55c-25-14.78-49.7-12.32-73.35,4-14.28,12.05-22.21,27.54-24.42,46.25-2.08-6-.7-11.84-1.48-17.49-.46-3.52,3-9.75-2-10-4.59-.25-2.43,6.48-3.53,10,.13,6.25.2,12.52.42,18.76.09,2.58.64,5.07,4.06,2.64,3.78-2.68,3.57,0,3.54,2.54,0,2.31,0,4.63,0,6.94q2.38,8.54,4.75,17.08c12,23,30.39,36.35,57,37a63.58,63.58,0,0,0,62.82-45C1569.13,657.9,1557.83,627.2,1533,612.55Zm-33.34,112.33c-31.49.2-58.33-26.51-58.47-58.2-.14-31,26.68-57.93,57.81-58.1,31.74-.18,59.38,26.61,58.83,58.54C1557.27,697.68,1533.48,724.33,1499.64,724.88Z"/><path class="cls-2" d="M483.33,661.35C482,639.54,471.59,623,453.05,612c-32.93-19.51-77.65-7-93.18,33.52-7.93,28.76-1.25,53.12,21.74,72.62,4.8,2.4,9.11,5.63,14.15,7.69,13.8,5.65,27.9,5.24,42.19,2.75,29.21-10.49,44.62-31.34,46.79-62.16C482.61,665.19,483.44,663.08,483.33,661.35Zm-25.45,49.71c-20.3,18.13-53.5,18.12-75,0-22.09-18.68-27.09-50.24-11.73-74.2,10.83-18.24,27.22-27.68,48.07-28.07s37.47,8.73,49.16,26.27C485.14,659.53,480.85,690.54,457.88,711.06Z"/><path class="cls-2" d="M1434.11,322.13c0,4.22,0,8.42,0,12.65h-.18c0,4.22.09,8.44-.05,12.64,0,1.67.71,4.27-2.13,4.29-2.36,0-2.93-2.42-3-4.1-.24-6.79-.31-13.6-.09-20.37.15-4-.14-6.38-5.25-6.81-5.74-.46-11.36-2.51-17.06-3.71-2.08-.44-3.73-1.09-3.5-3.47.26-2.85,2.69-2.39,4.33-2,8.22,1.77,16.39,3.72,24.55,5.74C1434.42,317.64,1434.13,320,1434.11,322.13Z"/><path class="cls-2" d="M512.91,316.78c-5.74,1.18-11.37,3-17.16,3.77-3.71.52-4.57,2-4.44,5.43.22,6.56.2,13.16-.09,19.72-.1,2.3.41,6.14-3.1,6-3.21-.15-2-3.66-2.12-5.81-.17-4,0-8-.06-12,0-16.43,0-16.45,16.07-20.43,3.19-.79,6.36-1.63,9.6-2.13,1.94-.31,4.7-1.06,5.3,1.8S515.12,316.33,512.91,316.78Z"/><path class="cls-2" d="M864.79,362.27c-1.85.75-3-.65-3.87-2.11-4.5-7.74-6.93-16.25-9.23-25.4a3.28,3.28,0,0,1,2-3.57c1.84-.68,2.93.79,3.53,2.5,2.85,8.13,5.75,16.23,8.6,24.36C866.38,359.66,866.78,361.48,864.79,362.27Z"/><path class="cls-2" d="M894.8,393.26c.13,4.33-1.91,6.12-5.44,3.29-6.76-5.42-12.43-12-17.7-18.86-1.17-1.54-1.78-3.93-.25-5.18,2-1.65,3.16.93,4.43,2,2.64,2.28,5.14,4.7,7.69,7.06C886.32,386.45,891.31,389.12,894.8,393.26Z"/><path class="cls-2" d="M1047.73,378.2q-7.73,8.6-15.65,17c-1.61,1.69-4,3.5-6.16,1.71-2.67-2.21.74-4,1.29-6a4.82,4.82,0,0,0,3-2.74q6.73-6.6,13.45-13.2c1.5-1.45,3.25-3.51,5.31-1.61C1050.62,375,1048.92,376.88,1047.73,378.2Z"/><path class="cls-2" d="M1067.48,337.29a87.24,87.24,0,0,1-8.56,23c-.73,1.36-1.76,2.45-3.23,2.08-2-.51-2.17-2.47-1.63-4q4.28-12.5,8.86-24.86c.56-1.54,1.74-3.19,3.6-2.33C1068.13,331.94,1068.26,333.8,1067.48,337.29Z"/><path class="cls-2" d="M470.64,327.43c-8.14,2.11-16.3,4.1-24.49,6.05-1.69.39-3.57,0-4.18-1.77-.66-1.9,1-3.06,2.53-3.57A147,147,0,0,1,469.3,322c1.91.07,3.84-.62,4.11,1.92C473.63,326,472.25,327,470.64,327.43Z"/><path class="cls-2" d="M1433.77,756.08c0,1-.53,1.95-1.56,1.88a3,3,0,0,1-2.26-1.19,10.75,10.75,0,0,1-1.4-4.57c0-8.15.18-16.31.34-24.45a4.61,4.61,0,0,1,2-4.21l1.72.12C1435.58,734.37,1433.38,745.27,1433.77,756.08Z"/><path class="cls-2" d="M1433.87,483.43c0,1.5.43,3.56-2,3.77-1.81.15-2.57-1.48-2.74-2.71-1.33-9.8-.65-19.61.08-29.4a2.09,2.09,0,0,1,2.42-2c1.76.12,2.3,1.35,2.3,2.9,0,4.93,0,9.84,0,14.77h0C1433.9,475,1434,479.21,1433.87,483.43Z"/><path class="cls-2" d="M491,483.67c-.12,1.41-.29,3.66-2.58,3.57-2.72-.11-2.37-2.47-2.41-4.23-.09-4.46,0-8.92,0-13.39V457c0-1.65-.18-3.6,2-3.9s2.78,1.51,2.92,3.21A161.87,161.87,0,0,1,491,483.67Z"/><path class="cls-2" d="M1434,515.05h-.16c0,4.7.06,9.39,0,14.09,0,1.72-.55,3.39-2.78,3.24-1.79-.09-2.3-1.65-2.33-3-.14-9.14-.69-18.3.47-27.42.21-1.56.92-3.44,3.1-3,1.73.34,1.68,2.05,1.71,3.43C1434,506.61,1434,510.83,1434,515.05Z"/><path class="cls-2" d="M491.38,511.92q0,8.44-.17,16.91c0,1.56-.17,3.54-2.44,3.57s-2.67-1.74-2.7-3.42c-.11-4.68,0-9.38,0-14.09h0c0-4-.1-8,0-12,0-1.47-.64-3.8,1.65-4s3,1.94,3.23,3.86C491.21,505.8,491.36,508.87,491.38,511.92Z"/><path class="cls-2" d="M1434,425.31h0c0,4.69,0,9.36,0,14,0,1.46-.22,2.81-2.14,2.92s-2.57-1.09-2.71-2.54a129.69,129.69,0,0,1,.36-29.34,2.08,2.08,0,0,1,2.33-2c1.9.09,2.17,1.51,2.18,2.94C1434,416,1434,420.64,1434,425.31Z"/><path class="cls-2" d="M1434,380h-.14c0,4.46,0,8.91,0,13.37,0,1.66-.25,3.45-2.44,3.61s-2.73-1.76-2.71-3.33c0-8.91.15-17.82.42-26.72.06-1.57.68-3.55,2.81-3.42,2.3.16,2,2.26,2.06,3.81C1434,371.53,1434,375.75,1434,380Z"/><path class="cls-2" d="M491.22,392.86c-.05,1.74.13,4.25-2.62,4.11-2.49-.13-2.57-2.4-2.6-4.26-.08-4.24,0-8.46,0-12.69h0c0-4.46-.05-8.92.05-13.39,0-1.25-.33-3.11,1.76-3.16a2.77,2.77,0,0,1,2.78,2.68c.4,3.73.69,7.47.76,11.21C491.46,382.53,491.41,387.71,491.22,392.86Z"/><path class="cls-2" d="M490.66,440c-.17,1.56-1,2.57-2.77,2.35-1.95-.24-2-1.72-2-3.11,0-4.69,0-9.38,0-14.06H486c0-4.68,0-9.36,0-14,0-1.1,0-2.43,1.53-2.67a2.37,2.37,0,0,1,3,2.16A118.86,118.86,0,0,1,490.66,440Z"/><path class="cls-2" d="M491.67,552.18c-.15,7-.22,14.05-.53,21.07-.1,2-.11,4.62-3.23,4.38s-2-2.74-2-4.38c-.17-7-.19-14.06-.26-21.07,1.33-2.64-1.88-7.77,2.26-8C492.69,543.83,490.6,549.3,491.67,552.18Z"/><path class="cls-2" d="M1433.92,573.21c-.06,1.58,1.12,4.18-1.9,4.39s-3.23-2.43-3.3-4.39c-.3-7.47-.31-15-.42-22.43a27.79,27.79,0,0,1,.59-2.74c.47-1.68.07-4.21,2.74-4.17,3.43.08,2.06,3,2.37,4.8a31.34,31.34,0,0,1,.24,3.51C1434.16,559.19,1434.13,566.21,1433.92,573.21Z"/><path class="cls-2" d="M1434,709.47c0,1.59.28,3.4-2.23,3.54-1.91.12-2.5-1.18-2.63-2.59-1-10.08-1.14-20.16.68-30.17.27-1.53,1.65-1.34,2.82-1.16l1.53,14.17C1434.07,698.67,1434,704.06,1434,709.47Z"/><path class="cls-2" d="M1012.4,408.05c-7.14,4-14.56,7.44-22.59,9.22-2.62.59-5.91,1.42-5.84-3.25,8.78-4.15,18.82-5.39,26.75-11.53,1.59.68,4.22-.92,4.84,1.37C1016.1,405.85,1014,407.15,1012.4,408.05Z"/><path class="cls-2" d="M930.72,417.52c-8.64-2.2-17.06-5-24.36-10.36-1.69-1.23-4.63-3.13,0-4.71q14.26,5.71,28.53,11.46C935.48,417.41,933.12,418.13,930.72,417.52Z"/><path class="cls-2" d="M735.32,817.54c-8,1.77-16,3.5-22,4.83-4.07.62-5.87.14-6.35-2.12-.6-2.81,1.72-2.77,3.51-3.13q11.68-2.36,23.33-4.75c1.78-.36,3.91-1.51,4.55,1.26C738.9,815.83,737.38,817.08,735.32,817.54Z"/><path class="cls-2" d="M491.34,799.61c0,1.73-.5,3.43-2.62,3.48s-2.68-1.58-2.69-3.35c0-4.69,0-9.39,0-14.07H486c0-3.76-.12-7.51.05-11.25.09-1.67-.91-4.38,1.68-4.62s3.17,2.41,3.38,4.5c.28,2.8.32,5.62.34,8.43Q491.44,791.18,491.34,799.61Z"/><path class="cls-2" d="M490.66,755.6c-.2,1.4-.89,2.85-2.71,2.51s-1.95-1.87-2-3.29c-.05-4.68,0-9.35,0-14s0-9.36,0-14c0-1.19.17-2.42,1.62-2.66a2.3,2.3,0,0,1,2.95,2.18A118.46,118.46,0,0,1,490.66,755.6Z"/><path class="cls-2" d="M490.66,710.58c-.18,1.47-.76,2.69-2.63,2.5s-2.1-1.55-2.11-3c0-4.44,0-8.87,0-13.3h.4c0-4.67,0-9.35,0-14,0-1.35,0-3.12,1.67-3.43s2.3,1.17,2.51,2.66A109,109,0,0,1,490.66,710.58Z"/><path class="cls-2" d="M491.67,641.08c-.09,7.41-.28,14.83-.26,22.26,0,4.59-2,5.15-5.54,3.12.05-8.15,0-16.31.17-24.45.06-2.56-1.64-6.69,1.73-7.24C491.35,634.17,490.77,638.62,491.67,641.08Z"/><path class="cls-2" d="M490.76,619.66c-.14,1.23-.34,3.07-2.29,3-2.17-.11-2.46-1.93-2.5-3.57-.08-4.69,0-9.37,0-14.06q0-6.33,0-12.66c0-1.61-.33-3.6,1.93-3.87,2.09-.27,2.91,1.4,3,3.12C491.53,601,491.89,610.32,490.76,619.66Z"/><path class="cls-2" d="M1212.52,820.73c-.75,2.39-2.7,2.32-4.63,1.91q-11.33-2.4-22.64-4.87c-3.16-.71-5.45-2-3.21-5.8q13.5,2.34,27,4.71C1211,817.39,1213.48,817.65,1212.52,820.73Z"/><path class="cls-2" d="M1434,786.09h-.06c0,4.22,0,8.44,0,12.66,0,2-.11,4-2.65,4-2,0-2.7-1.66-2.69-3.43.07-8.44.12-16.86.36-25.29,0-1.77.38-4.19,2.83-4.19,2.86,0,2.12,2.56,2.18,4.24C1434.07,778.13,1434,782.11,1434,786.09Z"/><path class="cls-2" d="M1298.73,838.86c-9.41-.3-17.22-2.81-25.17-4.62-2-.46-3.44-1.75-3-4,.42-2.44,2.59-1.71,4-1.45,8,1.52,16,3.19,24,4.89,1.82.39,4,.92,3.63,3.4C1301.65,839.85,1299.29,838.8,1298.73,838.86Z"/><path class="cls-2" d="M1366,841.47c-2.56-.2-6,1.09-6.15-2.77-.09-3.17,3.1-2.75,5.35-3.05,7.17-1,14.32-2.09,21.51-2.88,1.7-.19,4.56-1.46,4.9,1.89.3,3-2.57,3.14-4.37,3.47C1380.18,839.43,1373,840.4,1366,841.47Z"/><path class="cls-2" d="M1329.64,837.07c4.69.23,9.39.41,14.08.7,1.86.12,3,1,2.86,3.15s-1.79,1.91-3.11,1.94c-8.69.17-17.38.35-26-1.19-1.67-.29-3.48-.47-3.48-2.65,0-2.57,2.19-2,3.67-2,4-.11,8,0,12,0Z"/><path class="cls-2" d="M713,279.44c-3.23.16-5.78.09-6.09-2.45-.38-3.11,2.51-2.56,4.48-2.86,7.38-1.11,14.76-2.22,22.13-3.4,2.16-.35,4.8-.81,5.37,1.69s-1.92,3.19-4.14,3.53C727.1,277.12,719.52,278.38,713,279.44Z"/><path class="cls-2" d="M775.09,266.07c3.52,1.24,9.33-1.62,9.46,2.48.16,5.45-5.79,2.37-9,3-6,1.11-12,1.68-18.07,2.46-2.08.26-4.72.95-5.14-1.94s2.16-3.17,4.32-3.47Z"/><path class="cls-2" d="M644,284c2.36.58,4.81-.72,5.39,1.91.64,2.91-1.8,3.44-3.83,3.85-7.5,1.52-15,3-22.55,4.32-1.67.29-4.08,1.21-5-1.1-1.08-2.83,1.6-3.81,3.42-4.24C629.14,286.9,636.9,285.43,644,284Z"/><path class="cls-2" d="M668.62,286.18c-3.23-.22-6,.67-6.42-2.18-.5-3.14,2.61-2.86,4.43-3.17,7.84-1.33,15.71-2.48,23.59-3.53,1.68-.22,4.09-.73,4.39,2.06.27,2.48-1.71,3.11-3.62,3.41C683.14,284,675.28,285.17,668.62,286.18Z"/><path class="cls-2" d="M579.09,302.6c-3.19-.07-5.07.19-5.68-1.83-.67-2.25,1.35-2.91,2.77-3.27,8.58-2.17,17.15-4.48,26-5.11,1.44-.1,3.65-.66,3.88,1.71.14,1.47-1.25,2.49-2.66,2.83C594.83,299,586.22,300.94,579.09,302.6Z"/><path class="cls-2" d="M1144.14,266c6.5.91,13,1.79,19.5,2.76,1.82.28,4.26.6,4,3-.34,2.7-2.84,2.77-5,2.4a156.68,156.68,0,0,0-23.06-2.61c-2,0-4.75.3-4.59-2.85s3-2.1,4.93-2.34a34.92,34.92,0,0,1,4.22,0Z"/><path class="cls-2" d="M1185.57,270.51c8.31,1.3,16.62,2.58,24.92,3.92,1.37.22,2.93.67,2.89,2.37s-1.84,2.45-3,2.44a131.3,131.3,0,0,1-27.62-3.71,2.26,2.26,0,0,1-1.64-2.75C1181.65,270.38,1183.66,270.45,1185.57,270.51Z"/><path class="cls-2" d="M1251.82,286.4c-7.19-1.11-14.57-2.28-22-3.37-2.45-.36-5.07-.83-4.57-4s3.37-1.9,5.18-1.68c7.42.89,14.84,1.88,22.19,3.23,1.85.34,5.49-.42,5,3.33C1257.18,287.25,1254.26,286.34,1251.82,286.4Z"/><path class="cls-2" d="M1276.46,284.08c6.69,1.37,14.22,2.85,21.72,4.47,2.11.45,4.28,1.36,3.51,4.16s-3.06,1.67-4.71,1.37c-7.32-1.29-14.59-2.86-21.91-4.14-2.36-.41-5.11-.28-4.63-3.66C1270.88,283.14,1273.68,284.57,1276.46,284.08Z"/><path class="cls-2" d="M1340.39,302.59c-7.11-1.61-15-3.37-22.92-5.2-1.83-.43-4-1.05-3.42-3.49s3.11-1.66,4.69-1.39c7.78,1.34,15.54,2.87,23.27,4.48,1.91.39,4.82.51,4.41,3.33S1343.29,302.49,1340.39,302.59Z"/><path class="cls-2" d="M622.28,839.22c-1.7,0-3.52.66-4.13-1.67s1.08-3.35,3.07-3.76c8-1.69,16-3.42,24-4.93,1.35-.25,3.52-1,4.09,1.32s-1.2,3.45-3.09,3.87C638.28,835.85,630.27,837.51,622.28,839.22Z"/><path class="cls-2" d="M533.06,832.69c7.74,1.07,15.61,2.14,23.48,3.27,1.67.23,3.43.74,3.35,2.83s-1.55,2.87-3.41,2.63c-8.55-1.13-17.1-2.29-25.64-3.57-1.71-.26-3.06-1.43-2.56-3.47C529,831.6,531.28,833.07,533.06,832.69Z"/><path class="cls-2" d="M590.48,836.94c4.22,0,8.45,0,12.66,0,1.08,0,2.49-.11,2.68,1.51.14,1.23-.22,2.42-1.57,2.74-9.72,2.28-19.59,1.6-29.43,1.47-1.57,0-1.57-1.38-1.44-2.6.21-1.84,1.66-2.15,3-2.24,4.68-.3,9.37-.48,14.05-.71Z"/><path class="cls-2" d="M1075.8,799.47c1.45,0,2.8.46,2.92,2.29s-.62,3.21-2.66,3.33c-9.34.6-18.59-.75-27.88-1.32-1.18-.07-1.87-1.3-1.81-2.62.08-1.83,1.4-2.34,2.86-2.37Z"/><path class="cls-2" d="M1018.71,801.89c-4.67-.25-9.35-.41-14-.81-1.52-.13-3.5-.29-3.53-2.59s1.75-2.52,3.42-2.5c8.2.12,16.39.22,24.58.51,2.45.08,5.06,1,4.58,4.07s-3.32,1.61-5.2,1.59c-3.28,0-6.55-.3-9.83-.47Z"/><path class="cls-2" d="M1112.42,809.13c-4.25.42-10.17-1.33-16.21-2-2-.21-4.59-.9-4.07-3.74.46-2.55,2.91-1.91,4.65-1.7,7.88.95,15.75,2,23.62,3.13,1.78.25,4.26.54,3.76,3-.4,2-2.75,1.06-4.24,1.2C1118.08,809.26,1116.19,809.13,1112.42,809.13Z"/><path class="cls-2" d="M840.67,800.43c4.28-2.27,9.08-.47,13.5-1.68,5.15-.06,10.31-.15,15.46-.18,2,0,3.92.53,3.83,3-.09,2.29-2.11,2.18-3.69,2.29q-11.92.86-23.87,1.59C842.39,805.68,840.73,803.86,840.67,800.43Z"/><path class="cls-2" d="M900.6,801.71c-3.51.15-7,.23-10.52.49-1.66.13-3.35.81-3.65-1.75-.23-1.94.54-3.2,2.48-3.53,9.06-1.52,18.21-.8,27.32-.93a2.36,2.36,0,0,1,2.35,2.19c.24,1.8-1.05,2.45-2.58,2.58-5.12.41-10.26.76-15.39,1.13Z"/><path class="cls-2" d="M818.84,801.6c3,1.15,6.77-2.05,9.28,1.69,0,2-1,2.93-2.82,3.38a100.74,100.74,0,0,1-27.8,2.44c-1.15-.05-2.59-.2-2.38-1.79.27-2,2-2.38,3.65-2.64Z"/><path class="cls-2" d="M402.31,344.61c-1.7.18-3.48.2-3.91-1.89-.4-1.93.79-3,2.61-3.47l25.1-6.12c1.47-.36,2.93-.36,3.47,1.3.64,2-.54,2.91-2.31,3.56A158.55,158.55,0,0,1,402.31,344.61Z"/><path class="cls-2" d="M1517.29,344.82a197.54,197.54,0,0,1-24.68-6.63c-1.75-.62-2.91-1.52-2.28-3.53.55-1.71,2-1.79,3.42-1.46q12.87,3,25.71,6.22a2.69,2.69,0,0,1,2.09,3.73C1520.9,345.28,1519,344.74,1517.29,344.82Z"/><path class="cls-2" d="M1434,593c.09,4.22,0,8.44,0,12.67h-.07c0,4.45,0,8.91,0,13.37,0,1.31.34,3-1.48,3.47-2.19.52-3.19-1.38-3.33-2.81-.44-4.64-.52-9.33-.57-14,0-4.22.12-8.46.29-12.68.08-2.1.14-4.7,3.13-4.47C1434.68,588.69,1433.94,591.22,1434,593Z"/><path class="cls-2" d="M1543.05,667.11c-.26,25.13-19.6,43.37-45.65,43.07-22.76-.27-41.42-19.66-41.33-43,.09-24.77,19.34-44.33,43.42-44.12C1524.08,623.31,1543.3,642.73,1543.05,667.11Zm-5.73-.23c.14-20.46-17.58-38.48-37.79-38.44s-38.07,17.68-38.41,38.2c-.33,20.06,17.75,38.1,38.27,38.18A37.78,37.78,0,0,0,1537.32,666.88Z"/><path class="cls-2" d="M388.07,636.61c15-13.34,31.78-17.43,50.76-9.45,6.19,2.6,10.92,7.19,15.69,11.71,16.34,23,9.91,48.2-6.14,61.32a44.21,44.21,0,0,1-56.85-.3c-15.41-13.1-19.27-36.81-8.88-55.09C384.26,642,386.25,639.33,388.07,636.61ZM420,704.76c19.77.36,37.63-14.41,38.69-37.67.91-20-18.35-38.66-38.14-38.49-20.44.18-37.92,17.45-38.07,37.61C382.29,687.19,399.41,704.77,420,704.76Z"/><path class="cls-2" d="M1499.58,693.27c-15.37.08-27-11.38-26.91-26.52a26.74,26.74,0,0,1,53.47-.23C1526.32,681.68,1514.89,693.19,1499.58,693.27Zm.13-5.41c11.36.1,20.85-9.46,21-21.14.14-11-9.9-21.11-21.12-21.32-10.82-.2-21.22,10-21.53,21S1488.05,687.77,1499.71,687.86Z"/><path class="cls-2" d="M420.17,693.27c-15.11,0-26.39-11.29-26.56-26.68a26.75,26.75,0,0,1,26.22-26.7c14.92-.22,27.55,12.22,27.42,27S435.39,693.22,420.17,693.27Zm.72-5.47a21.16,21.16,0,0,0,20.8-21.36c-.27-11.11-10.38-21-21.55-21S398.81,655.69,399,666.7A21.49,21.49,0,0,0,420.89,687.8Z"/><path d="M798.38,533.86v111H778.56V574.14l-19.51,14.91-16.18,12.53-16.18-12.53-19.51-14.91v70.75H687.35v-111l19.83,15.22,35.69,27.44,35.69-27.44Z"/><path d="M852.31,570.81v75.5H832.48V568.75A15.8,15.8,0,0,0,819,555.27h-4.45V535.6h4.29v.16a35.42,35.42,0,0,1,29.5,19.82A42.36,42.36,0,0,1,851,563a33.47,33.47,0,0,1,1,8.09Z"/><path d="M978.72,567.48a32.67,32.67,0,0,1-9.2,22.84A32.76,32.76,0,0,1,946,645.84H867.85V626H946a13.07,13.07,0,0,0,13-13,12.91,12.91,0,0,0-12.21-13h-59V580.17h59a13,13,0,0,0-.64-26H868V534.33H946.2A32.63,32.63,0,0,1,978.88,567Z"/><path d="M1105.29,625.38V645.2H994.57V612.53a31.7,31.7,0,0,1,2.7-12.85,32.56,32.56,0,0,1,28.87-20h48.06a13,13,0,0,0-1.11-25.86h-78.2V534h78.2a32.63,32.63,0,0,1,32.67,32.68,32.33,32.33,0,0,1-9.35,22.68,32.93,32.93,0,0,1-22.37,10h-47.9a12.92,12.92,0,0,0-11.58,12.85v12.85Z"/><path d="M1232.17,625.38V645.2H1121.46V612.53a31.54,31.54,0,0,1,2.7-12.85,32.55,32.55,0,0,1,28.86-20h48.06a13,13,0,0,0-1.11-25.86h-78.19V534H1200a32.63,32.63,0,0,1,32.68,32.68,32.4,32.4,0,0,1-9.36,22.68,32.89,32.89,0,0,1-22.36,10H1153a12.92,12.92,0,0,0-11.58,12.85v12.85Z"/></g></g></svg>