<svg xmlns="http://www.w3.org/2000/svg" viewBox="0 0 1920 1080"><defs><style>.cls-1{fill:#f2f2f2;}.cls-2{fill:#060606;}</style></defs><g id="Capa_2" data-name="Capa 2"><g id="Capa_1-2" data-name="Capa 1"><rect class="cls-1" width="1" height="1"/><rect class="cls-1" x="1919" y="1079" width="1" height="1"/><rect class="cls-1" y="1079" width="1" height="1"/><rect class="cls-1" x="1919" width="1" height="1"/></g><g id="Capa_3" data-name="Capa 3"><path class="cls-2" d="M1724.46,279c0-4.66-4.81-13.17-4.81-13.17-5.79-8-13.45-12.73-23.49-13.52a134.66,134.66,0,0,0-15.43-.22,71,71,0,0,1-30.37-5.22c-16.54-6.93-28.29-18.83-36.63-34.52a99,99,0,0,0-36.62-38.56c-23.32-14.26-48.88-16.39-74.91-13-29.62,3.84-52.67,19.23-69.29,44.14-4.77,7.15-8.21,15-11.9,22.68-3.62,7.53-9.37,10.79-17.57,10.76-23.61-.11-47.23-.07-70.84,0a47.65,47.65,0,0,1-17.33-3.06c-7.34-2.82-14.74-5.48-22.09-8.25-3.76-1.41-4-1.76-1.67-5.06,1.88-2.64,1-4-1.43-5.1-1-.48-2-1-3-1.36q-20.88-7.75-41.75-15.48c-10.48-3.89-20.82-8.18-31.47-11.61-2.33-.75-3.59-.52-4,2.07a20,20,0,0,1-.68,2.21c-.64,2.45-1.9,3-4.37,2-9.29-3.6-18.63-7.06-28-10.46-8.22-3-16.2-6.91-25.22-6.92q-61.11,0-122.22.05c-7.57,0-14.89,1.63-21,6.52a106.3,106.3,0,0,0-8.4,8.19,54.58,54.58,0,0,1-35.77,16.64c-18.85,1.35-34.76-5.18-47.38-19.29-7.56-8.46-17-12.19-28.2-12.18q-60.1.08-120.21,0a30.37,30.37,0,0,0-9.91,1.26c-14.54,5-29,10.21-43.21,16.05-3.08,1.28-4,.95-5.14-2-2.05-5.41-2.2-5.35-7.74-3.38-.31.11-.65.14-1,.26L631.6,215.72c-4.51,1.7-5.23,2.8-3,7.08,1.46,2.79.38,3.38-1.86,4.17-8.14,2.85-16.31,5.65-24.33,8.79a41,41,0,0,1-15.67,2.65c-13.77-.13-27.54,0-41.31,0-10.18,0-20.37-.06-30.55-.06-7.67,0-13.19-3.27-16.36-10.4-1.62-3.65-3.46-7.2-5.26-10.76-18.94-37.46-49.46-56.82-91.39-57.19-23.73,0-39.59,4.51-39.59,4.51-16.69,6.11-31.32,15.28-43.23,28.66-6.19,7-11,14.85-15.56,22.87C292,236,274.68,247.7,252.1,251.51c-5.35.9-10.94.45-16.42.47a113,113,0,0,0-15.4.65c-8.28,1.21-14.61,5.67-19.56,12.26L199,268a29.22,29.22,0,0,0-3.67,14c-.84,147.56-.07,295.12-.39,442.69-.05,27,11,48,32.14,64.33,28.87,22.35,57.47,45.06,86.2,67.59q27.81,21.81,55.68,43.54a68.25,68.25,0,0,0,15.74,9.13c15.4,5.23,38.36,3.3,38.36,3.3a51.58,51.58,0,0,0,26.47-6.82c19.08-10.83,38-22,57.67-31.72,2.43-1.21,4.1-1.95,5.19,1.42,1,3,3,3.16,5.69,1.87,7.09-3.37,14.29-6.48,21.43-9.72,16.45-7.45,32.91-14.86,49.32-22.39,4.77-2.19,4.67-2.35,2.6-7.05-.48-1.09-1.08-2.09.82-2.78,10.49-3.86,20.89-8,31.38-11.79a1068.66,1068.66,0,0,1,123-36.89c24.15-5.62,48.44-10.53,72.93-14.32,18.74-2.89,37.57-5.13,56.44-7,20-2,40.11-3.46,60.23-3.75,36-.52,72,0,107.92,3.75,14.51,1.5,29,3.45,43.45,5.13,14.24,1.65,28.35,4.42,42.45,7.09,28.78,5.46,57.25,12.18,85.48,20A1093.38,1093.38,0,0,1,1326.09,835c2.35.93,2.48,1.65,1.47,3.75-1.94,4-1.85,4.2,2.37,6.12Q1365.34,861,1400.81,877c4.19,1.89,4.29,1.88,6.48-2.22.92-1.72,1.56-2.32,3.66-1.25,16.64,8.41,33.13,17.07,49.07,26.76,7.22,4.38,14.62,8.29,22.92,10.43,10.56,2.73,21.27,2.07,32,2a59.66,59.66,0,0,0,25.72-6.07c1.51-.73,2.21-.72,3.28.67,9.66,12.58,19.45,25.05,29.09,37.63,1.49,1.94,2.68,2.28,4.63.76,15.48-12,31-24,46.5-36.07,4.08-3.18,3.92-4,.68-8.09-9.06-11.46-18-23-27.1-34.46-1.39-1.75-1.73-2.86.48-4.2a42.43,42.43,0,0,0,5.53-4.08c6.53-5.59,13.43-10.69,20.18-16q32.68-25.62,65.34-51.29c8.38-6.55,16.61-13.17,22.65-22.16,9.68-14.4,13.2-30.36,13.15-47.48C1724.61,572.89,1725.73,428,1724.46,279ZM983.84,215.25a67,67,0,0,0,26.69-18.43,25.68,25.68,0,0,1,20.35-8.92q59.43.28,118.88,0c7.14,0,13.36,2.83,19.8,5.1,10.93,3.86,21.56,8.59,32.74,11.75,1.12.32,1.22.85.9,1.65-3.64,9-6.44,18.38-12.62,26.22-3.08,3.91-6.91,3.29-10.89,2.91a16.2,16.2,0,0,1-3.62-.59c-3-1-4.47-.05-4.42,3.13,0,1.94-1.42,1.7-2.6,1.72-24.84.5-49.69.28-74.53.19-31.12-.11-62.23.14-93.34.21-6.38,0-12.76-.19-19.14-.13-2.33,0-3.48-.46-3.27-3.12a65.23,65.23,0,0,0,0-9.06c-.09-1.72.28-2.46,2.14-2.3a44.49,44.49,0,0,0,5-.06c1.46,0,2.74-.34,2.59-2.24-.13-1.73-.93-2.48-2.81-2.46-7.38,0-14.77,0-22.14-.62a2.86,2.86,0,0,1-2.87-1.33A60.54,60.54,0,0,0,983.84,215.25Zm-18.7,24.62c-4.42-.09-4.42-.09-4.42-7.08,0-7.21,0-7.21,7.17-7.18,5.6,0,5.6,0,5.68,5.73C973.68,240,973.68,240,965.14,239.87ZM721.62,203.55c12.52-4.62,25-9.27,37.58-13.86A30,30,0,0,1,769.68,188c39.5,0,79,.14,118.53-.12A27.23,27.23,0,0,1,910,197.47a61.19,61.19,0,0,0,17.67,14.13,69,69,0,0,0,27.43,7.34c.83,0,1.86-.35,2.41,1.76-6.3,0-12.37,0-18.44,0-2,0-4,.14-6,.19-1.37,0-2.51.38-2.43,2.05.08,1.42.48,2.67,2.3,2.65.45,0,.9,0,1.35,0,5.79.15,5.79.15,5.81,6.1a46.77,46.77,0,0,0,0,6c.34,2.35-.76,2.56-2.64,2.55q-90.66-.3-181.32-.54c-1.79,0-3.59-.17-5.37-.07-2.33.15-3.85-.32-3.88-3.11,0-1.76-1.17-2-2.82-1.65-2.06.45-4.26.31-6.29.85-4.6,1.23-7.35-1.18-9.84-4.45-4.58-6-6.68-13.22-9.57-20C715.91,205.65,716,205.62,721.62,203.55ZM958,232.62c0,.34,0,.68,0,1-.05,6.72-.05,6.72-6.64,6.4-6.11-.3-6.11-.3-6.11-7.15,0-7.19,0-7.19,6.88-7.25C958.05,225.57,958.05,225.57,958,232.62ZM505.31,862.2c-1.07,1.84-3.9,2.74-6.06,3.85q-26.82,13.77-52.74,29.19a50.42,50.42,0,0,1-24.12,6.67,159,159,0,0,1-22.47-.27c-11-1.14-20.11-6.5-28.63-13.26Q335.73,860.21,300,832.29c-23.69-18.61-47.49-37.09-71.07-55.86-14.45-11.5-22.24-26.84-23-45.23-1.42-34.9-.33-69.82-.38-104.73q-.21-159.32-.08-318.63c0-9.06-.6-18.12.33-27.17,1-9.63,8.18-16.57,17.86-17.6,6.6-.72,13.19-.21,19.78-.39,31.77-.88,55.16-15.72,70.37-43.17,13.22-23.87,32.17-40,58.84-46.5,13.26-3.24,26.74-3.29,40.26-1.93a86.67,86.67,0,0,1,46.37,19.21c11.35,9.09,19.72,20.52,25.81,33.69a136.07,136.07,0,0,0,6,12.23c5.4,9.15,14,12.76,24.21,12.81,25.3.11,50.59,0,75.88,0,8.57,0,16.18-3.49,24-6.34,5.5-2,11-4,16.47-6.08,1.7-.63,2.61-.26,3.29,1.47,1.63,4.23,3.33,8.45,5.22,12.57.86,1.86.69,2.88-1.34,3.43a31.3,31.3,0,0,0-3.77,1.23c-1.25.51-3.12.73-2.46,2.82a3.13,3.13,0,0,0,3.68,2.22c1.74-.26,3.44-.83,5.64-1.4-.74,7.77-2.76,14.69-8,20.38a28.48,28.48,0,0,1-21.72,9.39q-37.77.06-75.54.05h-4.46c.49-1.55,2-2.08,3.31-2.59,1.82-.72,3.72-1.94,3.07-3.7-.72-1.95-3-1.06-4.72-.61-5.88,1.61-11.77,3.13-17.61,4.87-6.07,1.8-12.27,2.09-18.53,2.08q-65.82,0-131.62,0c-21.54,0-38.9,14-43.75,35.07-1.37,5.92-1.1,12-1.13,18,0,5.7,0,11.42.17,17.12a3.82,3.82,0,0,1-2.56,4.16c-2.55,1.08-5.07,2.23-7.61,3.34-1.87.81-3,2.27-2.47,4.21s2.15,2.16,4.05,1.45,1.92.66,1.92,2q0,8.57.16,17.12c.08,5.05.11,5.05,5.18,4.87.17-.92.34-1.84.57-3,.8,1.13.51,2.11.47,3.05-.1,3.57-.22,7.14-.33,10.71.62,7.76,1,15.51-.15,23.26-.32,2.14-.05,4.36-.26,6.53.05-9.44.06-18.87-.33-28.3-5.52-.28-4.66-.74-4.72,4.35-.1,7.61,0,15.22,0,22.82,0,2.69.59,4.22,3.64,3.16,1.56-.55,2.05.22,2.05,1.61,0,2.58-.25,5.16,0,7.71.19,2.27-.82,2.81-2.69,2.49-2.44-.42-3,.64-3,2.93.1,8.39.14,16.78,0,25.17-.06,2.7,1,3.47,3.24,2.71,1.75-.58,2.2,0,2.2,1.59,0,3-.1,6,0,9.06.08,2.13-.59,3.3-2.86,2.79s-2.62.61-2.64,2.52c-.05,8.05-.26,16.11-.29,24.16,0,4,.23,4.22,4.11,3.5,1.62-.31,1.68.37,1.66,1.5-.05,2.23-.15,4.46-.13,6.7,0,2.53,0,4.89-3.69,3.95-1.6-.41-1.54.82-1.55,1.82q-.17,13.24-.32,26.51c0,2.39,1.1,3.29,3.3,2.4s2.52,0,2.34,2-.16,3.79-.22,5.69c-.08,2.35.28,5-3.61,4-1.22-.31-1.44.66-1.47,1.65-.26,9.06-.46,18.11-.22,27.18.06,2.47,1.66,2.42,3.12,1.9,2.14-.76,2.55,0,2.47,1.92-.11,2.91-.12,5.82-.1,8.73,0,2.08-.72,3.24-3,2.83-1.84-.34-2.29.54-2.31,2.22-.1,8.17-.38,16.33-.42,24.5,0,4.24.32,4.48,4.19,3.35,2.4-.7,1.64.92,1.69,1.94.35,8.55,2,16.77,6.13,24.36,3.07,5.62,7.71,9.78,12.67,13.64l75.88,59.07c16,12.5,32,25.1,48.14,37.48a84.27,84.27,0,0,1,27.17,36.17c2.45,6.07,5.1,12,7.86,18,.83,1.78.57,2.43-1.16,3.21-4,1.84-8,3.83-11.94,5.91a3.87,3.87,0,0,0-1.22,6.1c.82,1,1.72.63,2.7.14,4.26-2.12,8.59-4.12,12.81-6.3,1.9-1,3.14-1,3.55,1.39,0,.12.05.23.07.33C503.93,857.66,506.59,860,505.31,862.2ZM950.22,750.76c-27,.17-53.91,1.33-80.74,4.17q-39.11,4.14-77.84,11.13c-37.31,6.67-73.95,16-110.26,26.68Q634.67,806.56,589.6,825c-3.47,1.42-4.77,1-5.69-2.31a23.52,23.52,0,0,0-1.56-3.62c-.85-1.78-.68-2.81,1.58-3.3a19.56,19.56,0,0,0,5.17-2.14,2.85,2.85,0,0,0,1.42-3.71c-.53-1.56-1.81-1.52-3-1.41a19,19,0,0,0-3.21.76c-.92.26-1.95,1.28-2.74.3s.39-1.82.72-2.71c2.74-7.24,9.07-9.85,15.62-12.33q48.63-18.35,98.78-32c23.22-6.28,46.68-11.58,70.26-16.27q33.45-6.64,67.3-10.71c26.29-3.14,52.64-5.91,79.13-6.94,8-.31,16.09-.81,27-1.36,3.19,0,9.24.07,15.28,0,1.73,0,2.35.29,2.25,2.15-.32,5.43-.25,5.35-5.73,5.52a107.9,107.9,0,0,0-12.69,1c-1.82.28-2.43,1.27-2.78,2.8s-.1,2.49,1.92,2.37c5.59-.35,11.18-.39,16.76-.82,2.06-.16,2.43.51,2.54,2.32C958.37,750.72,958.41,750.72,950.22,750.76Zm376.65,72.83c-29.55-11.48-59.39-22.14-89.79-31.2q-42-12.52-84.87-21.44c-24.55-5.13-49.24-9.39-74.1-12.61a851.2,851.2,0,0,0-114.38-7.52c-2.54,0-3.19-.67-3.15-3.16.09-7.74,0-7.78,7.77-7.51,3.91.13,7.81.51,11.72.57.91,0,2.77,1.44,2.81-.88,0-1.7,0-3.63-2.58-4-5.44-.69-10.91-1.48-16.37-1.08-4.78.35-2.83-2.93-3.25-5-.59-2.95,1.37-2.55,3.2-2.54,6.82,0,13.66,0,17.83,0,23.55.87,44.42,1.88,65.24,3.87,18.11,1.72,36.19,3.58,54.16,6.31,23.42,3.56,46.74,7.64,69.92,12.55q40.34,8.57,79.82,20.3c25.06,7.42,49.69,16.15,74.12,25.45,6.07,2.31,10.51,6.09,12.76,12.29.27.74.76,1.52.19,2.18-.73.84-1.36-.29-2.07-.4-1.08-.16-2.08-.77-3.15-1s-2.62-1-3.16.7-.64,3.33,1.32,4.33a19,19,0,0,0,4.7,1.62c1.61.37,2.3,1.22,1.62,3.18C1334.42,826.5,1334.49,826.56,1326.87,823.59Zm83.24,24.21c2.17.94,2.09,2.05,1.28,3.9-2.59,5.83-5.06,11.72-7.49,17.63-.82,2-1.91,2.31-3.82,1.39-21.28-10.3-42.95-19.77-64.52-29.44-1.73-.78-2.59-1.51-1.38-3.41,3.36-5.25,5.75-11,8.24-16.68.79-1.81,1.4-2.66,3.56-1.38a53.74,53.74,0,0,0,8.19,3.65c1.91.73,3.76.55,4.76-1.67s-1-3.11-2.31-3.74a98.78,98.78,0,0,0-10.75-4.44,3,3,0,0,1-2.32-3.11c-.5-8.57-4.77-14.64-12.56-18.17-17-7.69-34.7-13.44-52.4-19.17q-46.92-15.23-95.07-26C1158.82,741.7,1134,737,1109,733.23q-32.16-4.86-64.56-7.67c-18.6-1.62-37.26-2.77-56-3.1-26-1-67.33,0-67.33,0-14.83,1-29.68,1.8-44.5,2.87-15.71,1.13-31.34,3.12-47,5-3.1.39-6.2.68-9.3,1-7.57,2-15.36,2.56-23,3.88-16.65,2.86-33.26,5.83-49.79,9.35-32.32,6.89-64.26,15.17-95.77,25.06-19.94,6.26-39.78,12.8-59.15,20.69-8,3.24-14.5,7.93-16.17,16.71-.91,4.75-2.85,7.2-7.43,8.14-1.8.37-3.45,1.5-5.17,2.27-.45.46-.89.94-1.36,1.37-3.33,3-3.33,3,.71,5.28,4-.4,7.28-2.58,10.68-4.44,1.3-.7,2.58-1.13,3.16.74,1.83,5.86,4.87,11.17,7.71,16.53,1.51,2.86.67,3.54-1.86,4.68-19.11,8.58-38.16,17.32-57.22,26-2.31,1.06-4.62,2.15-6.84,3.39-1.47.84-2.27.88-3-.91-2.51-6.14-5.06-12.27-7.82-18.31-.9-2-.28-2.95,1.36-3.65a4.54,4.54,0,0,0,2.81-2.64c-.12-1-.18-2-1.45-2.17l-4.93.34c-.64.63-1.25,1-1.67-.21-4.11-10.15-8.32-20.27-13.2-30.08-6.77-13.6-17.77-23.25-29.62-32.2-13.25-10-26.31-20.28-39.45-30.44L418.25,748q-16.74-12.87-33.45-25.74-21.21-16.37-42.38-32.8c-10.57-8.22-15.61-19.21-15.64-32.48-.07-36.94,0-73.88-.09-110.81-.13-57.2-.23-114.39-.64-171.58,0-6.32,1.38-10.42,7.77-12a9.74,9.74,0,0,0,2.11-1,2.43,2.43,0,0,0,1.56-3c-.43-1.71-1.81-1.65-2.95-1.36a34.38,34.38,0,0,0-6.28,2.12c-1.68.78-1.86.35-1.84-1.26.12-8.94-.05-17.9.29-26.84a38.72,38.72,0,0,1,33.59-36.64c6.49-.87,12.95-.64,19.43-.66,31.45-.09,62.9-.06,94.36-.13,5.76,0,11.53-.55,18-.1-2.24,1.95-4.58,2.26-6.65,2.9a136.66,136.66,0,0,0-16.44,6.2c-1.07.48-2.73.76-2.42,2.3s1.82,2.26,3.28,2.41a7.86,7.86,0,0,0,3.58-.45c7.38-2.68,14.64-5.7,22.22-7.81,1.36-.39,2.31-1.37,2-2.66-.77-3,.92-2.63,2.88-2.63,36.94,0,73.88-.17,110.82,0,20,.09,33.48-13.63,35.28-30.51.59-5.47,2.55-7,7.15-7.43a20.14,20.14,0,0,0,7.26-2.23c1.13-.57,3-.64,2.61-2.38-.49-2-2.23-2.75-4.26-2.28-3.56.81-7.17,1.53-10.63,2.68-1.7.56-2.36.36-3-1.25-3.4-9.33-7.29-18.47-11.48-27.48-.86-1.83-.72-2.33,1.41-3.11,22.61-8.28,45.25-16.46,67.62-25.37,1.21-.48,2.27-1.22,2.76.74,1.87,7.58,5.77,14.36,8.6,21.55s5.4,14.29,10.94,20.38c-2.59.51-4.52.91-6.46,1.27s-2.35,1.67-2.26,3.47c.11,2.25,1.7,1.69,2.91,1.63a36.66,36.66,0,0,0,5.64-.68c4.72-1,9.1,0,13.71,1.17,6.61,1.65,13.54,1.42,20.35,1.42l413.33-.45a30.4,30.4,0,0,0,11.73-2.12c4.5-1.85,9,.29,13.54.31.55,0,1.11.33,1.64.29,1.12-.11,2.91.8,3.13-.87.19-1.5-.12-3.31-2.28-3.94-1.55-.44-3.11-.32-4.63-.67-1.29-.29-1.93-.82-.92-2.31,8.32-12.2,12.58-26.29,18.32-39.68.63-1.46.85-2.32,2.91-1.55,20.76,7.92,41.59,15.69,62.4,23.5,2.46.93,6.1,1.15,6.95,3.19.68,1.63-1.62,4.51-2.6,6.83-3,7-6.38,13.9-8.71,21.19-.7,2.2-2,3-4.22,2.38-3.43-.93-6.86-1.89-10.34-2.55-1.13-.22-3-1.39-3.56.9-.42,1.85-.23,3.37,2.32,3.88,3.89.78,7.65,2.3,11.55,3,2,.35,2.39,1,2.47,2.86.53,13.1,6.1,23.31,17.68,29.9,6.64,3.78,14,4.25,21.38,4.26,27.86.05,55.74,0,83.61,0,8.16,0,16.34.11,24.51.08,1.66,0,2.8,0,2.51,2.23-.22,1.62.83,2.64,2.37,3.16,7.86,2.67,15.69,5.41,23.57,8,1,.35,2.53,1,3.22-.63s0-2.74-1.42-3.67a46.17,46.17,0,0,0-10.89-4.91c-4-1.38-8.12-2.58-12.67-4,2.7-1,5-.48,7.23-.45,36.15.52,72.3.07,108.45.22,8,0,16-.46,23.87,2.07,15,4.81,26.59,20,26.77,35.64.11,9.29,0,18.58,0,28a56.11,56.11,0,0,0-6.52-2.32c-1.2-.29-3-1.1-3.75.91s.79,2.8,2.13,3.55a26.18,26.18,0,0,0,5.37,2.63c2.5.69,2.88,2.18,2.88,4.43q-.07,50,0,100.06,0,91.68.08,183.34c0,10.11-1.13,19.82-7.17,28.27-4.34,6.09-10.6,10.18-16.43,14.7q-43.11,33.47-86.29,66.88c-9.77,7.55-19.48,15.2-29.45,22.49-13.94,10.19-23.46,23.61-30,39.39-2.33,5.64-4.92,11.16-7.25,16.81-.92,2.26-2,3.58-4.66,2.58-1.13-.41-2.79-1.12-3.51.56S1408.74,847.21,1410.11,847.8Zm196.64,39.61c4.19,5.37,8.33,10.77,12.64,16,1.71,2.08-.07,2.79-1.14,3.63-8.07,6.36-16.19,12.63-24.29,19-5.45,4.26-10.89,8.52-16.26,12.88-1.14.93-1.67,1.34-2.78-.09q-18.59-24.12-37.33-48.11c-1.84-2.34-2.19-3.67.7-5.48a142.83,142.83,0,0,0,12.15-8.82c1.11-.86,3.36-1.8,2-3.81s-3.36-1.55-5.26-.33c-4.78,3.07-9.77,5.84-14,9.61-1.35,1.18-2,.93-2.82-.27-1.32-1.92-2.6-3.87-3.93-5.78-1-1.45-.08-2.12,1-2.93a75,75,0,0,0,9.74-8.67c.9-1,2.44-2.25,1.06-3.72s-2.8-.68-4.21.32a124.72,124.72,0,0,0-10.15,8.18c-.53.46-1.1,1.57-1.85.81-.91-.91.2-1.55.83-2.07,4-3.25,7.8-6.7,12-9.66,6-4.25,11.61-9,17.42-13.48a4.82,4.82,0,0,1,2.24-1.8,9.32,9.32,0,0,1,4-2.74c1.44-2.11,3.56-3.26,5.75-4.34a16.68,16.68,0,0,1-5.3,4.74l-3.78,3a4.32,4.32,0,0,1-2.06,1.81c-1.22,1.3-2.41,2.64-3.69,3.88s-3,2.89-1.67,4.51,3.29-.23,4.54-1.18c5-3.78,9.88-7.66,14.62-11.74,2-1.71,3-1.72,4.17.68a23.6,23.6,0,0,0,2.6,3.47c2.74,3.62,2.74,3.62-.83,6.63s-6.86,5.74-10.28,8.62c-1.31,1.11-2.64,2.38-1.3,4.2s3.1.65,4.35-.23c4.25-3.05,8.43-6.22,12.54-9.47,1.39-1.11,2.09-1.46,3.4.26C1589.82,865.8,1598.3,876.59,1606.75,887.41Zm-129.2-64.77c6.28,8.26,12.75,16.37,19.16,24.53q9.09,11.58,18.21,23.16a4.25,4.25,0,0,1,1.35,3c0,.73-.3,1.31-1.16,1.32-1.17-.05-1.68-.89-2.31-1.71q-18.61-24.28-37.28-48.55l-.2-.27c-5.43-7.19-5.38-7.12,1.67-12.53,15.12-11.61,30.2-23.27,44.88-35.43,5.28-4.37,5.33-4.41,9.42.86q18.69,24,37.33,48.12c.88,1.14,1.62,2.4,2.45,3.58.5.72,1.44,1.55.51,2.3-1.11.89-1.77-.39-2.33-1.09-3.38-4.14-6.76-8.3-10.06-12.52q-14.37-18.27-28.69-36.6c-.42-.53-.88-1-1.32-1.52-2-2.37-3.6-2.81-6.48-.5-14.45,11.56-29.18,22.79-43.8,34.14C1474.05,816.66,1473.78,817.68,1477.55,822.64ZM1502,844.73c-5.76-7.37-11.44-14.81-17.22-22.17-3.32-4.21-3.46-4.26.59-7.44,10.6-8.35,21.28-16.6,31.91-24.91,2.11-1.65,4.13-3.41,6.21-5.1.59-.48,1.25-.88,1.78-1.24a3.19,3.19,0,0,1,1.92,1.48q16.69,21.57,33.45,43.07c1.25,1.6,1,2.37-.45,3.46-13.71,10.52-27.43,21-41,31.68-1.69,1.33-2.13.16-2.83-.72Q1509.12,853.81,1502,844.73Zm212.22-519.37q-.07,147.06-.15,294.14,0,52,.07,104.09c0,17-4.52,32.28-15.77,45.24-7.1,8.17-16.13,14.09-24.53,20.73q-29.83,23.57-59.74,47-11.58,9.12-23.07,18.33c-1.56,1.26-2.06,1-3.24-.63-2-2.63-3.46-5-1.86-8.35.61-1.27-.31-2.31-1.73-1.65-2.71,1.23-4.18-.48-5.73-2.09a13.85,13.85,0,0,1-1.15-1.65c-2.91-4.1-3-4.19.78-7.58,2.11-1.88,1.36-3.4,0-5.14-5.2-6.7-10.35-13.42-15.56-20.1q-15-19.28-30.1-38.51c-3.25-4.13-4.09-4.44-8.4-1.2-9.37,7-18.58,14.3-27.79,21.54-9.82,7.75-20.14,14.86-29.7,22.93-4.38,3.71-4.47,3.75-1,8.57,9.22,12.78,19.35,24.85,29,37.27q8.45,10.83,17,21.57c2.14,2.68,3.53,2.72,6,.38,3-2.84,3.44-2.84,5.63.79,1.3,2.17,3.54,4.11,2.25,7.16-.43,1,.39,1.43,1.22,1.55,3.45.51,5.64,2.67,7.75,5.25,1.28,1.57,1,2.1-.58,2.79-4.85,2-9.88,3.69-15.1,3.93-10.59.5-21.23,1-31.75-1.16a55.44,55.44,0,0,1-18-7.45c-17.26-10.75-35.36-20-53.34-29.39-2-1-2.23-1.88-1.56-3.79,2.69-7.61,2.65-7.63,9.71-4.3,2.4,1.13,4.76,2.39,7.18,3.5,3.56,1.63,4.11,1.38,5.71-2.29-.63-.8-1.25-1.62-1.86-2.42-4.5-2.19-9-4.4-13.48-6.55-1.07-.51-1.56-1-.94-2.28,5.66-11.4,9.68-23.58,16.34-34.54,5.93-9.75,14.41-16.94,23.24-23.83q39.32-30.68,78.63-61.34,21.11-16.46,42.28-32.83c10.35-8,15.86-18.68,17.25-31.59-.17-17.64.12-35.28-.07-52.91-.24-22.11.29-44.21.09-66.31-.2-20.56.2-41.11.26-61.66,0-9.05-.17-18.1-.22-27.15,0-1.2-.26-2.47.48-3.59a44.32,44.32,0,0,1-.13-10,326.86,326.86,0,0,1-.21-33l0-8q-.1-14.4-.17-28.79c0-.49-.31-1.21.46-1.36a1.13,1.13,0,0,1,1.37,1.13c.13,1.43.15,2.89.17,4.34.12,7.35-.22,14.71.43,22,2.93.8,4.36.08,4.26-3.35-.2-5.92,0-11.86,0-17.79,0-1.93,0-3.29,2.62-2.77,1.48.3,3.32.31,3.92-1.65s-.82-3.15-2.37-3.9c-2.48-1.22-5-2.68-7.61-3.25-2.84-.61-3.19-2.17-3.18-4.51.07-8.62-.19-17.24.09-25.85.72-21.89-18.38-44.51-44.82-44.47-38.62.07-77.23-.27-115.85.2-17.55.21-34.69-.94-51.26-7.08a5.85,5.85,0,0,0-1.92-.49c-1.18,0-3-1.74-3.29,1-.29,2.3.77,3.76,2.93,4,.91.08,1.09.22,3.17,2.4H1379c-23.74,0-47.46-.1-71.19,0-16,0-27.61-10.3-30-26.87-.36-2.48.43-3.31,2.91-2.44a11.15,11.15,0,0,0,3.56.66c1.35,0,2.46-.59,2.34-2.21-.09-1.2-.11-2.25-1.81-2.7-6.54-1.74-6.52-1.82-3.77-8.29,1.16-2.76,2.4-5.48,3.44-8.28.85-2.3,1.69-2.87,4.34-1.84,10.19,4,20.38,8,30.89,11.12a28.83,28.83,0,0,0,8.25,1.19q37.11,0,74.21,0c9.56,0,18.11-2.29,24.36-10.11,3.36-4.21,5.53-9.11,7.68-14,9.62-21.67,24.89-37.71,46.77-47.2a90.64,90.64,0,0,1,33-7.26c14.22-.51,28.28.16,41.85,5,22.08,8,38.33,22.61,49.41,43.13,9.38,17.39,22.74,30.44,41.11,38.05a81.74,81.74,0,0,0,33.86,6c6.26-.17,12.59-.7,18.74.66,9.34,2.08,15.26,10.52,15.34,21.66C1714.34,298.5,1714.22,311.93,1714.21,325.36Z"/><path class="cls-1" d="M1592.8,469q0-50,0-100.06c0-2.25-.38-3.74-2.88-4.43a26.18,26.18,0,0,1-5.37-2.63c-1.34-.75-2.91-1.51-2.13-3.55s2.55-1.2,3.75-.91a56.11,56.11,0,0,1,6.52,2.32c0-9.46.09-18.75,0-28-.18-15.67-11.78-30.83-26.77-35.64-7.86-2.53-15.87-2-23.87-2.07-36.15-.15-72.3.3-108.45-.22-2.21,0-4.53-.58-7.23.45,4.55,1.43,8.64,2.63,12.67,4a46.17,46.17,0,0,1,10.89,4.91c1.39.93,2.08,2.09,1.42,3.67s-2.2,1-3.22.63c-7.88-2.6-15.71-5.34-23.57-8-1.54-.52-2.59-1.54-2.37-3.16.29-2.21-.85-2.23-2.51-2.23-8.17,0-16.35-.08-24.51-.08-27.87,0-55.75.08-83.61,0-7.38,0-14.74-.48-21.38-4.26-11.58-6.59-17.15-16.8-17.68-29.9-.08-1.9-.43-2.51-2.47-2.86-3.9-.7-7.66-2.22-11.55-3-2.55-.51-2.74-2-2.32-3.88.51-2.29,2.43-1.12,3.56-.9,3.48.66,6.91,1.62,10.34,2.55,2.26.62,3.52-.18,4.22-2.38,2.33-7.29,5.75-14.15,8.71-21.19,1-2.32,3.28-5.2,2.6-6.83-.85-2-4.49-2.26-6.95-3.19-20.81-7.81-41.64-15.58-62.4-23.5-2.06-.77-2.28.09-2.91,1.55-5.74,13.39-10,27.48-18.32,39.68-1,1.49-.37,2,.92,2.31,1.52.35,3.08.23,4.63.67,2.16.63,2.47,2.44,2.28,3.94-.22,1.67-2,.76-3.13.87-.53,0-1.09-.28-1.64-.29-4.52,0-9-2.16-13.54-.31a30.4,30.4,0,0,1-11.73,2.12l-413.33.45c-6.81,0-13.74.23-20.35-1.42-4.61-1.14-9-2.2-13.71-1.17a36.66,36.66,0,0,1-5.64.68c-1.21.06-2.8.62-2.91-1.63-.09-1.8.29-3.09,2.26-3.47s3.87-.76,6.46-1.27c-5.54-6.09-8.14-13.29-10.94-20.38s-6.73-14-8.6-21.55c-.49-2-1.55-1.22-2.76-.74-22.37,8.91-45,17.09-67.62,25.37-2.13.78-2.27,1.28-1.41,3.11,4.19,9,8.08,18.15,11.48,27.48.59,1.61,1.25,1.81,3,1.25,3.46-1.15,7.07-1.87,10.63-2.68,2-.47,3.77.32,4.26,2.28.43,1.74-1.48,1.81-2.61,2.38a20.14,20.14,0,0,1-7.26,2.23c-4.6.48-6.56,2-7.15,7.43-1.8,16.88-15.33,30.6-35.28,30.51-36.94-.17-73.88,0-110.82,0-2,0-3.65-.36-2.88,2.63.33,1.29-.62,2.27-2,2.66-7.58,2.11-14.84,5.13-22.22,7.81a7.86,7.86,0,0,1-3.58.45c-1.46-.15-3-.88-3.28-2.41s1.35-1.82,2.42-2.3a136.66,136.66,0,0,1,16.44-6.2c2.07-.64,4.41-.95,6.65-2.9-6.43-.45-12.2.09-18,.1-31.46.07-62.91,0-94.36.13-6.48,0-12.94-.21-19.43.66a38.72,38.72,0,0,0-33.59,36.64c-.34,8.94-.17,17.9-.29,26.84,0,1.61.16,2,1.84,1.26a34.38,34.38,0,0,1,6.28-2.12c1.14-.29,2.52-.35,2.95,1.36a2.43,2.43,0,0,1-1.56,3,9.74,9.74,0,0,1-2.11,1c-6.39,1.57-7.81,5.67-7.77,12,.41,57.19.51,114.38.64,171.58.08,36.93,0,73.87.09,110.81,0,13.27,5.07,24.26,15.64,32.48q21.15,16.45,42.38,32.8,16.71,12.88,33.45,25.74l3.59,2.76C435,760.9,448,771.16,461.29,781.18c11.85,9,22.85,18.6,29.62,32.2,4.88,9.81,9.09,19.93,13.2,30.08.42,1.22,1,.84,1.67.21l4.93-.34c1.27.21,1.33,1.21,1.45,2.17a4.54,4.54,0,0,1-2.81,2.64c-1.64.7-2.26,1.68-1.36,3.65,2.76,6,5.31,12.17,7.82,18.31.73,1.79,1.53,1.75,3,.91,2.22-1.24,4.53-2.33,6.84-3.39,19.06-8.71,38.11-17.45,57.22-26,2.53-1.14,3.37-1.82,1.86-4.68-2.84-5.36-5.88-10.67-7.71-16.53-.58-1.87-1.86-1.44-3.16-.74-3.4,1.86-6.67,4-10.68,4.44-4-2.29-4-2.28-.71-5.28.47-.43.91-.91,1.36-1.37,1.72-.77,3.37-1.9,5.17-2.27,4.58-.94,6.52-3.39,7.43-8.14,1.67-8.78,8.2-13.47,16.17-16.71,19.37-7.89,39.21-14.43,59.15-20.69,31.51-9.89,63.45-18.17,95.77-25.06,16.53-3.52,33.14-6.49,49.79-9.35,7.68-1.32,15.47-1.92,23-3.88,3.1-.33,6.2-.62,9.3-1,15.62-1.91,31.25-3.9,47-5,14.82-1.07,29.67-1.92,44.5-2.87,0,0,41.37-.91,67.33,0,18.7.33,37.36,1.48,56,3.1q32.38,2.82,64.56,7.67c25,3.77,49.86,8.47,74.56,13.95q48.17,10.68,95.07,26c17.7,5.73,35.41,11.48,52.4,19.17,7.79,3.53,12.06,9.6,12.56,18.17a3,3,0,0,0,2.32,3.11,98.78,98.78,0,0,1,10.75,4.44c1.28.63,3.35,1.4,2.31,3.74s-2.85,2.4-4.76,1.67a53.74,53.74,0,0,1-8.19-3.65c-2.16-1.28-2.77-.43-3.56,1.38-2.49,5.69-4.88,11.43-8.24,16.68-1.21,1.9-.35,2.63,1.38,3.41,21.57,9.67,43.24,19.14,64.52,29.44,1.91.92,3,.61,3.82-1.39,2.43-5.91,4.9-11.8,7.49-17.63.81-1.85.89-3-1.28-3.9-1.37-.59-2.74-2-2-3.78s2.38-1,3.51-.56c2.71,1,3.74-.32,4.66-2.58,2.33-5.65,4.92-11.17,7.25-16.81,6.52-15.78,16-29.2,30-39.39,10-7.29,19.68-14.94,29.45-22.49q43.17-33.41,86.29-66.88c5.83-4.52,12.09-8.61,16.43-14.7,6-8.45,7.19-18.16,7.17-28.27Q1592.72,560.67,1592.8,469ZM376.5,342.36A6.61,6.61,0,0,1,374,345a108.15,108.15,0,0,1-22.86,9.52,8.27,8.27,0,0,1-1.66.17c-.93.05-1.81,0-2.1-1.14s-.22-2.3,1-2.86c8.53-3.89,16.88-8.22,25.74-11.41a1.76,1.76,0,0,1,2.35.62A2.26,2.26,0,0,1,376.5,342.36Zm38.59-13.85a190.86,190.86,0,0,1-24,9.15,5.88,5.88,0,0,1-1.33.07c-1.29.09-2.64-.15-3.08-1.39-.5-1.4.93-1.81,1.88-2.29,7.89-4,15.85-7.74,24.39-10.14,1.71-.49,2.75-.25,3.49,1.39S416.45,327.89,415.09,328.51Zm40.58-16a138.89,138.89,0,0,1-25.46,10,3,3,0,0,1-3.42-2.2c-.57-1.77.52-2.67,2-3.24,8.15-3.08,16.19-6.46,24.72-8.4,1.14-.26,2.21-.73,2.85.65C457,310.51,457,311.85,455.67,312.53Zm93.76,516.31c-3,2.27-6.6,3.57-10,5.17-4.4,2.08-8.74,4.3-13.21,6.24-2.63,1.13-4.1,0-4.17-2.9-.3-1.51.65-2.31,2-2.84,7.43-2.86,14.88-5.66,22.07-9.1a8.7,8.7,0,0,1,1.63-.31,2.12,2.12,0,0,1,2.81,1.06C551.36,827.62,550.3,828.19,549.43,828.84ZM701.78,246.73c-7.28,1.41-14.53,3-21.79,4.52-.53.11-1.06.28-1.39.37-1.78-.38-3.61-.07-4-2.49s1.24-2.82,2.89-3.16q11.57-2.4,23.17-4.72c1.83-.36,3.64-.48,4.2,2C705.48,245.9,703.88,246.32,701.78,246.73Zm543.56,2.69c-.34,2-1.47,2.61-2.45,2.19-9.64-1.86-18.35-3.52-27.05-5.22-1.21-.24-2.34-.52-2-2.34.43-2.2,1.64-3.16,3.74-2.78,4.7.85,9.39,1.8,14.07,2.77,3.7.77,7.35,1.74,11.06,2.39C1244.6,246.76,1245.69,247.35,1245.34,249.42ZM1395,840.47a157.9,157.9,0,0,1-22.23-10.12c-1.6-.87-4.87-1.13-3.4-4.08,1.35-2.7,3.8-.66,5.46,0,6.78,2.67,13.44,5.63,20.14,8.48,1.66.71,2.86,1.75,2.73,4.06C1397.43,840,1397.23,841.27,1395,840.47Zm98.31-520.6c-.45,1.43-1.35,2.59-4.12,2.35-1.5-.46-4-1.09-6.34-2-6.18-2.36-12.3-4.92-18.51-7.24-1.88-.7-2.5-1.83-1.94-3.54s2.09-1.21,3.37-.94c8.93,2,17.19,5.8,25.62,9.13C1492.34,318,1493.76,318.37,1493.3,319.87Zm39.63,16.58c-.15,1.21-1.26,1.39-2.35,1.31a50.35,50.35,0,0,1-9.16-2.68c-5.49-1.95-11.05-3.74-16.34-6.23a2.87,2.87,0,0,1-1.74-3.79c.6-1.91,2.19-1.36,3.62-1,8.34,2.32,16.17,5.91,23.94,9.64C1532,334.26,1533.1,335.07,1532.93,336.45Zm38.81,16.44c-.41,1.05-.94,2.09-2.09,1.76a9,9,0,0,1-2-.22c-7.85-2.92-15.79-5.63-23-10.11a9.09,9.09,0,0,1-1.72-1.57,2.53,2.53,0,0,1-.48-3.09c.62-1.08,1.83-.59,2.74-.34,6.52,1.86,12.47,5,18.5,8,2.27,1.14,4.48,2.38,6.72,3.56C1571.3,351.35,1572.18,351.75,1571.74,352.89Z"/><path class="cls-2" d="M455.67,312.53a138.89,138.89,0,0,1-25.46,10,3,3,0,0,1-3.42-2.2c-.57-1.77.52-2.67,2-3.24,8.15-3.08,16.19-6.46,24.72-8.4,1.14-.26,2.21-.73,2.85.65C457,310.51,457,311.85,455.67,312.53Z"/><path class="cls-2" d="M1493.3,319.87c-.45,1.43-1.35,2.59-4.12,2.35-1.5-.46-4-1.09-6.34-2-6.18-2.36-12.3-4.92-18.51-7.24-1.88-.7-2.5-1.83-1.94-3.54s2.09-1.21,3.37-.94c8.93,2,17.19,5.8,25.62,9.13C1492.34,318,1493.76,318.37,1493.3,319.87Z"/><path class="cls-2" d="M701.78,246.73c-7.28,1.41-14.53,3-21.79,4.52-.53.11-1.06.28-1.39.37-1.78-.38-3.61-.07-4-2.49s1.24-2.82,2.89-3.16q11.57-2.4,23.17-4.72c1.83-.36,3.64-.48,4.2,2C705.48,245.9,703.88,246.32,701.78,246.73Z"/><path class="cls-2" d="M376.5,342.36A6.61,6.61,0,0,1,374,345a108.15,108.15,0,0,1-22.86,9.52,8.27,8.27,0,0,1-1.66.17c-.93.05-1.81,0-2.1-1.14s-.22-2.3,1-2.86c8.53-3.89,16.88-8.22,25.74-11.41a1.76,1.76,0,0,1,2.35.62A2.26,2.26,0,0,1,376.5,342.36Z"/><path class="cls-2" d="M1245.34,249.42c-.34,2-1.47,2.61-2.45,2.19-9.64-1.86-18.35-3.52-27.05-5.22-1.21-.24-2.34-.52-2-2.34.43-2.2,1.64-3.16,3.74-2.78,4.7.85,9.39,1.8,14.07,2.77,3.7.77,7.35,1.74,11.06,2.39C1244.6,246.76,1245.69,247.35,1245.34,249.42Z"/><path class="cls-2" d="M415.09,328.51a190.86,190.86,0,0,1-24,9.15,5.88,5.88,0,0,1-1.33.07c-1.29.09-2.64-.15-3.08-1.39-.5-1.4.93-1.81,1.88-2.29,7.89-4,15.85-7.74,24.39-10.14,1.71-.49,2.75-.25,3.49,1.39S416.45,327.89,415.09,328.51Z"/><path class="cls-2" d="M1571.74,352.89c-.41,1.05-.94,2.09-2.09,1.76a9,9,0,0,1-2-.22c-7.85-2.92-15.79-5.63-23-10.11a9.09,9.09,0,0,1-1.72-1.57,2.53,2.53,0,0,1-.48-3.09c.62-1.08,1.83-.59,2.74-.34,6.52,1.86,12.47,5,18.5,8,2.27,1.14,4.48,2.38,6.72,3.56C1571.3,351.35,1572.18,351.75,1571.74,352.89Z"/><path class="cls-2" d="M1532.93,336.45c-.15,1.21-1.26,1.39-2.35,1.31a50.35,50.35,0,0,1-9.16-2.68c-5.49-1.95-11.05-3.74-16.34-6.23a2.87,2.87,0,0,1-1.74-3.79c.6-1.91,2.19-1.36,3.62-1,8.34,2.32,16.17,5.91,23.94,9.64C1532,334.26,1533.1,335.07,1532.93,336.45Z"/><path class="cls-2" d="M1397.69,838.81c-.26,1.15-.46,2.46-2.7,1.66a157.9,157.9,0,0,1-22.23-10.12c-1.6-.87-4.87-1.13-3.4-4.08,1.35-2.7,3.8-.66,5.46,0,6.78,2.67,13.44,5.63,20.14,8.48C1396.62,835.46,1397.82,836.5,1397.69,838.81Z"/><path class="cls-2" d="M1521.82,267.93c-6.26.18-12.52.17-18.59-1.62-14.45-4.27-22.89-17.71-20.58-33.48,1.78-12.24,12.49-24.13,27.51-24.77,8.5-.37,17-1,25.41.56,12.78,2.37,21.93,11.14,24.2,23.52,2.38,13-2.32,23.19-12.93,30.72-6,4.23-12.83,5.31-20,5.07C1525.18,267.88,1523.5,267.93,1521.82,267.93Zm-.72-5.51v.09c2.8,0,5.59.05,8.39,0a25.58,25.58,0,0,0,20.74-10.21c10.42-13.36,2.72-34.67-13.82-38.13-8.62-1.8-17.31-1.49-26-.66-15.45,1.49-22.92,13-22.83,24.5.11,13.61,10.33,23.82,23.79,24.39C1514.61,262.54,1517.86,262.42,1521.1,262.42Z"/><path class="cls-2" d="M1604.16,794.28a137.27,137.27,0,0,1,.85,26c-.09,1.45-.14,2.91-.21,4.36-.24.06-.54.08-.37.47l.62-.29c3.31-1.63,5.72-4.49,8.79-6.45,1.39-.89,2.66-1.61,4.31-.93,2.42,2.38,1.42,4.1-.88,5.91-5.33,4.2-10.53,8.57-15.83,12.83a11.05,11.05,0,0,1-3.13,1.82c-1.1.41-2.49.87-3.31-.52a3,3,0,0,1,.17-3.7c2.17-2.91,5.57-4.45,8.21-7.53-3.1.12-3.34-1.84-3.34-4,0-8.37.1-16.74,0-25.11C1600,793.86,1602.35,794.63,1604.16,794.28Z"/><path class="cls-2" d="M1681.32,763.54l.74-.59c1.56-.35,3.12-.64,4.22.95s-.07,3-1,4.16a69.44,69.44,0,0,1-19.45,17c-1.16.67-2.45,1.37-3.49-.1s-1.71-3-.14-4.47a63.66,63.66,0,0,1,6.28-5.08C1673.35,772.09,1677.23,767.71,1681.32,763.54Z"/><path class="cls-2" d="M1627.56,808.56a9,9,0,0,1,1.65-2.43c7.17-5.12,14-10.82,21.94-14.73a3,3,0,0,1,2,1l.39,1.38c-2.23,4.81-6.93,7.13-10.65,10.42-2.74,2.43-5.74,4.59-8.71,6.74C1630.39,813.75,1628.87,813.16,1627.56,808.56Z"/><path class="cls-2" d="M1706.94,612c0,4.48,0,9,0,13.42,0,1.4-.13,2.36-1.92,2.34-1.54,0-3,.13-3.23-1.92a24,24,0,0,1-.2-2.67q-.06-12.42-.07-24.84c0-1.26-.44-2.92,1.82-2.72,1.74.16,3.73-.12,3.7,2.64,0,4.58,0,9.17,0,13.75Z"/><path class="cls-2" d="M1701.56,569.11c0-4.46,0-8.92,0-13.39,0-1.51.23-2.69,2.1-2.65,1.68,0,3.14.32,3.24,2.44.44,9.15.41,18.3,0,27.44-.09,2.5-2.57,2.27-4.09,2.45s-1.15-1.55-1.16-2.56c0-4.57,0-9.15,0-13.72Z"/><path class="cls-2" d="M1701.75,698.15c0-4.46,0-8.93,0-13.4,0-1.42,0-2.75,2.06-2.49,1.54.2,3.17-.06,3.16,2.38q-.1,13.4,0,26.8c0,2.85-2.23,2.45-3.76,2.69-1.9.29-1.6-1.41-1.6-2.57,0-4.47,0-8.94,0-13.41Z"/><path class="cls-2" d="M1700.41,726.69l.45-.68a3.59,3.59,0,0,1,4-.68c1.43.76.88,2.47.58,3.66-2,8.17-4.37,16.23-8.92,23.45-1.89,3-2.56,3.06-5.18.38l-.11-1.37C1694.75,743.36,1697.52,735,1700.41,726.69Z"/><path class="cls-2" d="M1647.65,390.22c-1.24.17-2.44-.48-3.67-1-7.2-2.78-14.09-6.27-21.12-9.44-2.55-1.15-2.43-3.22-1.75-5s2.39-.79,3.67-.24c7.07,3.08,14.23,6,21,9.59a12.21,12.21,0,0,1,3.72,2.78,2.23,2.23,0,0,1,.57,2.44C1649.68,390.33,1648.74,390.35,1647.65,390.22Z"/><path class="cls-2" d="M1701.59,525.22V511.85c0-1.21-.17-2.85,1.61-2.52,1.36.25,3.69-.44,3.76,2.23.22,9.25.27,18.5-.19,27.74-.11,2.2-2.13,2-3.59,2.12-2,.25-1.62-1.36-1.63-2.5,0-4.57,0-9.13,0-13.7Z"/><path class="cls-2" d="M1449,862.5c.08,0,1,.42,1.87.87q10.22,5.19,20.42,10.39c2.72,1.4,3.29,3.46,1.82,6.07-.71,1.28-1.7.94-2.54.44a229.6,229.6,0,0,0-22.86-12.06c-1.91-.87-1.5-2.82-1.31-4.45C1446.5,862.92,1446.84,862,1449,862.5Z"/><path class="cls-2" d="M1701.78,653.9c0-4.35,0-8.7,0-13,0-1.17-.26-2.77,1.58-2.71,1.49.05,3,.23,3.16,2.47a241.18,241.18,0,0,1,.09,27.42c-.1,2.31-1.88,2.33-3.34,2.35-1.84,0-1.51-1.63-1.52-2.76-.06-4.57,0-9.14,0-13.72Z"/><path class="cls-2" d="M1370.58,279c.19,3.22-1.91,2.55-3.76,2-5.62-1.65-11.17-3.54-17-4.6-2.51-.46-5-1-7.55-1.24s-2.92-2-2.65-4c.33-2.44,2.16-1.42,3.39-1.17,8.25,1.71,16.52,3.37,24.65,5.61C1369.54,276.12,1370.79,276.88,1370.58,279Z"/><path class="cls-2" d="M1701.53,488.11c.36-5.89-.81-11.87-.78-17.91,0-1.3-.41-2.79,1.76-2.83,1.79,0,2.81.34,3.14,2.47a114.59,114.59,0,0,1,.95,26c-.16,2.16-1,3-3,3.08-2.61.09-2-1.89-2-3.31C1701.47,493.19,1701.53,490.73,1701.53,488.11Z"/><path class="cls-2" d="M1680.65,418.38a2.76,2.76,0,0,1-2.25-1.26,76.81,76.81,0,0,0-18.19-16.54c-1.91-1.26-1.52-3-.36-4.64s2.67-1.44,4-.27c6.1,5.38,12.24,10.72,17.47,17,1,1.17,1.81,2.6,1,4.28C1682,417.64,1681.6,418.35,1680.65,418.38Z"/><path class="cls-2" d="M1507,893.12c-7.22.21-14-1.79-20.61-4.41a3.47,3.47,0,0,1-2.35-3.57c-.12-2.24.86-2.79,2.79-1.95a57.46,57.46,0,0,0,26.53,5.15c.8,0,1.69-.18,1.57,1-.17,1.7-.5,3.46-2.58,3.7A47.69,47.69,0,0,1,1507,893.12Z"/><path class="cls-2" d="M1701.46,453a16.46,16.46,0,0,1,0,2.33,1.85,1.85,0,0,1-1.51,1.59,1.47,1.47,0,0,1-1.51-1.12c-2.55-9.08-7.84-17-10.63-26-.3-.95-.77-2.09.36-2.67a2.31,2.31,0,0,1,3,.74,45.47,45.47,0,0,1,3.26,5A62.3,62.3,0,0,1,1701.46,453Z"/><path class="cls-2" d="M1301.08,259.07a144.52,144.52,0,0,1,16.56,3.67,51.67,51.67,0,0,1,9.09,3.13c1.22.61,2.25,1.5,1.94,2.75-.4,1.62-1.85,1-3.07.82-8.65-1.38-17-3.76-25.51-6-1.72-.45-1.68-1.43-1.66-2.67C1298.47,259.24,1299.52,259,1301.08,259.07Z"/><path class="cls-2" d="M1604.67,724c0,4.46,0,8.92,0,13.37,0,1.44-.22,2.29-2,2.29-1.5,0-2.09-.34-2.21-2-.65-9.24-.13-18.48-.2-27.72,0-1.43.86-1.59,2-1.56,1.3,0,2.43.09,2.41,1.92-.06,4.56,0,9.13,0,13.7Z"/><path class="cls-2" d="M1604.8,450.59q0,14.54,0,29.06c0,1.3,0,2.52-1.89,2.4-1.4-.1-2.76-.14-2.82-2-.32-9.88-.23-19.75,0-29.63Z"/><path class="cls-2" d="M1600.29,767.81c0-4.46,0-8.92,0-13.38,0-1-.36-2.42,1.51-2.31,1.4.09,2.75.21,2.76,2.11q.09,13.71.17,27.42c0,2-1.57,1.55-2.63,1.74-1.33.24-2-.36-2-1.87.08-4.57,0-9.14,0-13.71Z"/><path class="cls-2" d="M1604.78,681.61c0,4.35,0,8.71,0,13.07,0,1.29.12,2.48-1.82,2.33-1.53-.11-2.86,0-2.84-2.21.07-8.7-.44-17.42.59-26.1.08-.65.39-1.28.49-1.93a1.75,1.75,0,0,1,2.09-1.65c1.16.13,1.19,1.21,1.19,2.08,0,4.8,0,9.61,0,14.41Z"/><path class="cls-2" d="M1600.82,525.12c-1.25-1.44-.77-3.2-.78-4.8,0-7.69.06-15.37.09-23.05,0-1.11-.25-2.3,1.32-2.6,1.34-.26,2.86-1.16,3.59.94,0,.43,0,.86,0,1.3s0,.92,0,1.38q-.15,11.73-.28,23.45C1604.74,525.87,1604.74,525.87,1600.82,525.12Z"/><path class="cls-2" d="M1600.33,439.05c-.82-8.86-.15-17.72.06-26.57a15.42,15.42,0,0,0-.31-3.6c4.53-1.32,4.66-1.24,4.59,3.47-.11,7.78-.47,15.57-.26,23.35C1604.5,439.24,1603.08,439.63,1600.33,439.05Z"/><path class="cls-2" d="M1601.46,568.28c-1.83-.92-1.38-2.73-1.38-4.16,0-8.69.13-17.38.25-26.06,0-.3.28-.59.43-.89,3.24-.52,4,.82,3.86,4-.4,8.11-.42,16.25-.44,24.37C1604.18,567.65,1603.38,568.39,1601.46,568.28Z"/><path class="cls-2" d="M1602.81,611.3c-1.66.14-2.31-.67-2.57-2.28a51.21,51.21,0,0,1-.26-9.26c.15-5.76.37-11.51.57-17.26,0-1.09-.09-2.23.88-3.06,1.8-.48,3-.27,2.92,2.07-.2,8.92-.3,17.84-.45,26.76A3.56,3.56,0,0,1,1602.81,611.3Z"/><path class="cls-2" d="M1601.45,654.78c-1.93-2.54-1.2-5.59-1.24-8.35-.1-6.68.41-13.37.51-20.06a4.92,4.92,0,0,1,1.4-3.19c1.73-.36,2.1.59,2.09,2.07q-.06,13.57,0,27.15C1604.17,654.36,1603.17,654.92,1601.45,654.78Z"/><path class="cls-2" d="M391.66,766.14c1.7.33,3.55,1.64,5.29,3C416.19,784,435.36,799,454.63,813.84c2.38,1.84,2.21,3.29.62,5.47-9,12.33-18.74,24.13-28.14,36.18-6.3,8.09-12.67,16.14-18.83,24.35-1.8,2.39-3.26,2.48-5.47.76-12.59-9.81-25.24-19.53-37.85-29.32-7.49-5.82-14.86-11.79-22.43-17.5-2.64-2-2.57-3.7-.74-6,8.75-11.27,17.43-22.61,26.19-33.88,6.77-8.72,13.63-17.38,20.46-26.06C389.12,766.92,389.72,765.89,391.66,766.14Zm13.22,109.28c.56-.75,1.08-1.46,1.62-2.17,13.8-18,27.57-36,41.47-53.84,1.35-1.75,1.07-2.55-.44-3.73q-26.89-21.1-53.73-42.28c-1.42-1.12-2.15-1.32-3.42.32q-20.64,26.78-41.47,53.38c-1.67,2.13-1.56,3.49.63,5.19q26.57,20.64,53,41.43C403.16,874.19,403.79,874.62,404.88,875.42Z"/><path class="cls-2" d="M399.32,267.92c-7.6.19-15.15,0-22.4-2.71-11.18-4.23-19.16-18-17.6-29.84,1.72-13,8.15-22.66,21-26a70.65,70.65,0,0,1,36.82.34c14.11,3.93,22.86,20,19.42,34.46s-15.29,23.74-30.18,23.76Zm-.71-5.35c4.34-.3,9,.37,13.69-.68,10.9-2.46,19.46-11.21,19.59-23.85.12-10.93-7-21.65-18.94-23.9a82.3,82.3,0,0,0-29.32,0c-10.31,1.78-18.59,11.58-19.2,22.71-.58,10.6,7.31,21.72,17.18,24.42C387.11,262.8,392.7,262.4,398.61,262.57Z"/><path class="cls-2" d="M468.63,862.72l3.16-.53c2.57,2.79,2.59,3.84-.53,5.66-7.07,4.12-14.25,8-21.36,12.09-1.57.9-3,1.59-4.17-.46-1-1.87-.5-3.24,1.26-4.49,6.26-4.45,13.34-7.43,19.9-11.33C467.46,863.33,468.05,863,468.63,862.72Z"/><path class="cls-2" d="M258.41,784c-.25,1.42-1.21,1.86-2.63,1.5a16.08,16.08,0,0,1-4.71-2.38,93.62,93.62,0,0,1-14.88-12.34,23.48,23.48,0,0,1-2.46-3.14c-.9-1.27-1.34-2.69,0-3.9a2.75,2.75,0,0,1,4.17.22c6,6.2,12.83,11.39,18.95,17.4A4.49,4.49,0,0,1,258.41,784Z"/><path class="cls-2" d="M314.49,824.53c.78,2.91,3.62,3.68,5.62,5.26a25.44,25.44,0,0,1,4.51,3.88c1.11,1.38,1.52,3.26.36,4.63-1,1.19-2.6.12-3.64-.5-7.77-4.64-14.52-10.61-21.22-16.63-.63-.57-1.56-1.43-.63-2.58a2.94,2.94,0,0,1,3.84-1c3.13,1.51,5.68,3.85,8.41,5.95.79.61,1.38,2.13,2.86,1.12Z"/><path class="cls-2" d="M267.63,791.07a23.3,23.3,0,0,1,3.33,1.5,187.7,187.7,0,0,1,18.76,14c.34.28.53.72.84,1,1.41,1.38,1.73,3,.42,4.47s-2.75.42-3.92-.36a150.82,150.82,0,0,1-15.35-11.89c-2.18-1.88-4.71-3.47-5.85-6.31C265.31,792.11,265.36,791,267.63,791.07Z"/><path class="cls-2" d="M216.7,725.26a2.11,2.11,0,0,1,2.64,1.8A126.43,126.43,0,0,0,228,750.31c1.15,2.31-.26,3.2-1.87,4.12-1.95,1.12-2.76,0-3.54-1.61-3.9-7.88-7.34-15.9-8.09-24.8C214.36,726.38,214.5,725,216.7,725.26Z"/><path class="cls-2" d="M232.07,430c-.21,2.42-1.67,5-2.89,7.53-2.81,5.9-5.55,11.82-7.78,18-.79,2.18-1.71,1.95-3,.53-1.72-1.9-1.55-4.08-.8-6.26a148.18,148.18,0,0,1,8.27-19.16,15.73,15.73,0,0,1,2.1-3,2.48,2.48,0,0,1,3.07-.42C232.08,427.57,232.09,428.5,232.07,430Z"/><path class="cls-2" d="M261.11,397.23a30.06,30.06,0,0,1-3.27,3.91c-5.83,5-11.66,10-16.34,16.17a2.24,2.24,0,0,1-2.3,1.06c-1.17-.26-1.43-1.37-1.72-2.27a3.76,3.76,0,0,1,1-3.71c5.28-5.88,10.59-11.75,16.83-16.68a3.43,3.43,0,0,1,4.3-.38A8.07,8.07,0,0,1,261.11,397.23Z"/><path class="cls-2" d="M272.14,390.24c-1-.11-2.2.22-2.61-1a2.72,2.72,0,0,1,1.19-3.2,32.88,32.88,0,0,1,6-3.44c5.88-2.58,11.71-5.25,17.62-7.73,1-.42,2.45-1.78,3.5.09.92,1.63-.23,2.73-1.21,3.79a6.9,6.9,0,0,1-1.41.86,117.42,117.42,0,0,1-20.53,10.17A12.07,12.07,0,0,1,272.14,390.24Z"/><path class="cls-2" d="M356.45,865.18c-2.06.06-3.59-1.21-5-2.35-5.23-4.17-10.34-8.49-15.49-12.76a6,6,0,0,1-1.09-1.26c-.87-1.3-2-2.91-.74-4.21s2.9-.16,4.11.81c6.35,5.07,13.25,9.44,19.2,15,.9.84,2.12,1.8,1.49,3.4A2.27,2.27,0,0,1,356.45,865.18Z"/><path class="cls-2" d="M315.34,794.57c1.94.19,4.66-1.06,4.73,2.57q0,12.92,0,25.81c0,3.82-.34,4-3.83,2.46-.6-.27-1.19-.59-1.79-.88l.11.11q.06-13.25.14-26.48A7.13,7.13,0,0,1,315.34,794.57Z"/><path class="cls-2" d="M412.59,893.32c-1.89-.12-3.8-.1-5.66-.39s-1.68-1.75-1.69-3.14c0-1.56,1.24-1.59,2.09-1.5,8.6.89,16.33-2.6,24.33-4.73,1.41-.38,3-1.42,3.91.66s-.22,3.36-2.07,4.21A48.54,48.54,0,0,1,412.59,893.32Z"/><path class="cls-2" d="M320.06,724.24c0,4.14-.13,8.28.05,12.42.09,2.26-.74,2.82-2.87,2.84s-2.6-.58-2.57-2.61c.11-8.39.08-16.78,0-25.17,0-2,.07-3.35,2.77-3.4,3,0,2.52,1.78,2.53,3.51,0,4.13,0,8.27,0,12.41Z"/><path class="cls-2" d="M314.54,681.61c.22-4.68.44-9.37.69-14.05,0-1-.25-2.56,1.38-2.48,1.21.06,2.6.27,2.82,2.18,1.11,9.24.51,18.51.51,27.76,0,2.12-2,1.88-3.5,2s-1.76-.5-1.71-2c.16-4.46.06-8.93.06-13.39Z"/><path class="cls-2" d="M213.25,484.77c0-4-.11-8.06.05-12.08.09-2.38.52-4.52,3.8-4.88,2.22-.25,2.29.65,2.1,2.13-1.1,8.79-.7,17.64-1,26.45-.06,2-1.1,1.85-2.33,1.82s-2.78.67-2.72-1.69c.12-3.91,0-7.83,0-11.75Z"/><path class="cls-2" d="M551.7,280.88c-2.74.15-2.71-1.31-2-3,.85-1.94,2.82-2.52,4.59-3,7.52-1.85,15.09-3.48,22.61-5.29a2.15,2.15,0,0,1,3,1.75c.42,1.52-.1,2.82-1.68,3.1-8.7,1.58-17.12,4.34-25.73,6.3C552.16,280.85,551.82,280.86,551.7,280.88Z"/><path class="cls-2" d="M390.06,890.5a38.23,38.23,0,0,1-5.46-2.83c-5.41-3.91-10.71-8-16-12.07-1-.78-2.34-1.71-1.3-3.31s2.42-1.27,3.84-.58c5,2.41,8.91,6.27,13.46,9.29,2.59,1.72,5.07,3.61,7.59,5.44a2.41,2.41,0,0,1,.88,3C392.64,890.62,391.58,890.58,390.06,890.5Z"/><path class="cls-2" d="M213.14,611.6c0-4.35.08-8.71,0-13.06,0-1.79.52-2.34,2.29-2.24,1.59.1,2.69.09,2.67,2.28,0,8.82,0,17.65.24,26.47.07,2.93-2,1.66-3.22,2-1.81.53-1.93-.66-1.91-2,.05-4.47,0-8.94,0-13.41Z"/><path class="cls-2" d="M618.73,259.16c1.33,0,2.59-.28,2.82,1.37a2.24,2.24,0,0,1-1.85,2.71c-8.71,2.56-17.38,5.23-26.43,6.36-1.09.13-2.31,0-2.6-1.42-.33-1.7.74-2.43,2.13-2.87a162.91,162.91,0,0,1,21.89-5.47C616.11,259.59,617.54,259.36,618.73,259.16Z"/><path class="cls-2" d="M213.16,654.32c0-4.47,0-8.94,0-13.41,0-1.5.32-2.4,2-2.2,1.43.16,2.88-.05,2.87,2.24,0,9,.05,18.1.17,27.15,0,2.3-1.61,1.35-2.58,1.43s-2.53.75-2.48-1.46c.11-4.58,0-9.17,0-13.75Z"/><path class="cls-2" d="M218.17,569.81c0,4.24-.06,8.49,0,12.74,0,1.39-.2,2.22-1.79,1.85-1.23-.29-3.29,1.12-3.26-1.8q.12-13.25,0-26.5c0-1.94.88-2.17,2.45-2.12s2.53,0,2.46,2.08c-.16,4.57-.05,9.16-.05,13.75Z"/><path class="cls-2" d="M213.07,525.47c0-4.36,0-8.73,0-13.09,0-1.41,0-2.56,1.89-2.26,1.33.22,3.2-.63,3.17,2.1-.08,8.95,0,17.9.12,26.85,0,2.57-1.76,1.34-2.78,1.56-1.26.28-2.35.2-2.3-1.73.13-4.47,0-8.95,0-13.43Z"/><path class="cls-2" d="M213.17,698.41c0-4.35.08-8.72,0-13.07-.06-1.94.66-2.44,2.52-2.44s2.44.56,2.42,2.47c-.09,8.61-.1,17.21.08,25.81.05,2.4-1.43,2-2.77,2.24-1.88.33-2.25-.6-2.22-2.26.09-4.25,0-8.5,0-12.75Z"/><path class="cls-2" d="M549.43,828.84c-3,2.27-6.6,3.57-10,5.17-4.4,2.08-8.74,4.3-13.21,6.24-2.63,1.13-4.1,0-4.17-2.9-.3-1.51.65-2.31,2-2.84,7.43-2.86,14.88-5.66,22.07-9.1a8.7,8.7,0,0,1,1.63-.31,2.12,2.12,0,0,1,2.81,1.06C551.36,827.62,550.3,828.19,549.43,828.84Z"/><path class="cls-2" d="M1089.71,225.76A211.87,211.87,0,0,1,1115,228.3c1.81.27,2.42,1.07,2.37,2.88,0,2.34-1.54,2-3,1.88-8.74-.88-17.47-1.89-26.23-2.58-2.47-.2-2.59-1.4-2.59-3.22,0-2.36,1.67-1.48,2.84-1.56A9.87,9.87,0,0,1,1089.71,225.76Z"/><path class="cls-2" d="M1017.13,226.84c-4.46-.7-8.94-.45-13.41-1-2.16-.25-2.49-1.42-2.51-3.08,0-1.88,1.24-2,2.72-2,8.63-.26,17.19.94,25.8,1,1.47,0,1.49.89,1.52,2,0,1.92-.78,3-2.73,3C1024.72,226.86,1020.92,226.84,1017.13,226.84Z"/><path class="cls-2" d="M1068.73,229.05c-7.23-.76-14.92-.88-22.55-2-2.38-.35-2.66-1.82-2.65-3.47,0-2.34,2-1.37,3-1.29,8.34.63,16.68,1.38,25,2.13.86.08,2,.19,2.47.75a3.68,3.68,0,0,1,.74,3.12c-.33,1.24-1.46.71-2.27.76C1071.39,229.1,1070.27,229.05,1068.73,229.05Z"/><path class="cls-2" d="M1153.26,236.49c-7.22-.51-14.43-1-21.64-1.57-1.39-.11-3.2.09-3.1-2.42.09-2.28,1.47-2.51,3.11-2.47a156.75,156.75,0,0,1,25.23,2.2c1.11.21,2.17.47,2.72,1.62.34.7.85,1.41.43,2.18s-1.3.64-2.08.57c-1.55-.14-3.11-.22-4.66-.32Z"/><path class="cls-2" d="M824.48,226c2,0,4,0,6,0,1.28-.05,2.79-.81,2.87,1.46.06,1.94-.58,3.27-2.71,3.44-2.56.2-5.12.33-7.66.58-5.1.51-10.18,1.13-15.28,1.61a14.76,14.76,0,0,1-4-.17,2.79,2.79,0,0,1-2.23-3c0-1.63,1.37-1.46,2.41-1.63C810.73,227.21,817.53,226,824.48,226Z"/><path class="cls-2" d="M895.54,226.78c-1.79,0-3.58,0-5.37,0-1.6,0-2.36-.74-2.36-2.48s.67-2.47,2.34-2.52c8.83-.29,17.62-1.24,26.48-1,2,.05,2.18,1.21,2.36,2.49.22,1.65-.66,2.34-2.36,2.43-7,.38-14.06.87-21.09,1.32Z"/><path class="cls-2" d="M870.31,222.23a13.73,13.73,0,0,1,3,0c1,.32,2.91-1.24,3,1.27.07,1.85-.33,3.23-2.62,3.44-6.42.59-12.82,1.32-19.23,2q-3,.3-6,.49c-1.58.1-3.13.32-3.24-2.14-.1-2.17.68-2.91,2.8-3.08C855.76,223.62,863.51,222.85,870.31,222.23Z"/><path class="cls-2" d="M765.69,236.45a23.23,23.23,0,0,1-3.34,0c-1-.13-2.75.88-2.8-1.17,0-1.85.38-3.44,2.91-3.58,7.34-.39,14.67-1,22-1.48a29,29,0,0,1,3.31-.33c2.08.09,2.25,1.79,2.53,3.33.35,2-1,1.76-2.28,1.84Q776.86,235.72,765.69,236.45Z"/><path class="cls-2" d="M1248.15,782.34c0-1.56-.05-3.11,2.28-2.51,8.24,2.11,16.58,3.93,24.54,7.06,2.1.82,3.57,1.72,2.8,4.38-.39,1.37-1.1,1.9-2.39,1.6-8.73-2.06-17.28-4.7-25.78-7.55C1248,784.78,1248.21,783.53,1248.15,782.34Z"/><path class="cls-2" d="M1316.25,807.13a139.86,139.86,0,0,1-22.18-7c-.92-.39-1.83-.81-2.73-1.23-2-.91-3.48-2.06-2.38-4.61s3.17-1.34,4.58-.88q10.1,3.33,19.86,7.55a19.2,19.2,0,0,1,4.65,2.47,2.08,2.08,0,0,1,.72,2.66C1318.3,807.2,1317.39,807,1316.25,807.13Z"/><path class="cls-2" d="M1234.28,780.23c-8.32-1.2-15.91-3.37-23.52-5.46a14.55,14.55,0,0,0-2.26-.53c-3-.29-2.27-2.22-2-4.11.32-2.18,1.71-2,3.22-1.67,8.56,2,16.89,4.68,25.28,7.24,1.11.34,1.79.88,1.39,2.16S1235.79,780.68,1234.28,780.23Z"/><path class="cls-2" d="M1083.92,743.84c8.15,1.25,16.3,2.47,24.43,3.78,1.66.27,3,1.19,2.72,3.17-.4,2.64-2.54,2.16-4.2,1.92-8.37-1.2-16.71-2.52-25.06-3.82-1.23-.19-2.88.16-2.51-2.1.28-1.74.81-3,2.91-2.77a15.51,15.51,0,0,0,1.67,0Z"/><path class="cls-2" d="M1192.17,769.52q-12.42-3-24.83-6c-1.77-.43-2.46-1.64-2.57-3.42-.1-1.54.47-2.07,1.92-1.8,8.81,1.7,17.61,3.41,26.28,5.77,1.69.46,2.56,1.32,1.92,3.13C1194.45,768.42,1194.16,769.94,1192.17,769.52Z"/><path class="cls-2" d="M1151.54,760.37c-5.68-1.07-10.8-2-15.92-3-3.48-.65-7-1.42-10.47-1.85-2.32-.27-3.12-1.46-2.91-3.51.23-2.28,1.81-1.52,3.27-1.45,8.85.43,17.39,2.46,25.88,4.82a2.36,2.36,0,0,1,2,2.9C1153.24,759.68,1152.63,760.65,1151.54,760.37Z"/><path class="cls-2" d="M1064.24,746.29c-8.09-.8-16.17-1.67-24.27-2.34-2.44-.2-2.89-1.47-2.89-3.47,0-1.27.38-1.76,1.76-1.64,8.66.77,17.33,1.41,26,2.21,1.45.14,3.19.09,3.89,2,.87,2.38.19,3.32-2.46,3.17l-2-.1Z"/><path class="cls-2" d="M1010,736.67c4.57.31,9.12.67,13.69.9,1.94.1,2.24,1.07,2.28,2.78,0,1.92-.86,2.33-2.44,2.21-8.78-.64-17.6-.49-26.38-1.44-2.57-.28-2.44-1.83-2.47-3.39,0-2.2,1.75-1.58,3-1.53,4.12.16,8.24.42,12.36.65Z"/><path class="cls-2" d="M643.58,793.3c-1.18.2-1.83-.09-2.08-1.44-.32-1.65-.57-3.21,1.21-4.05a51.64,51.64,0,0,1,5.55-2.13c6.51-2.16,13.08-4.08,19.77-5.59,1.53-.35,3.11-1.22,3.82,1a3.23,3.23,0,0,1-2.27,4.47c-4.5,1.48-9,2.83-13.54,4.31A103.44,103.44,0,0,1,643.58,793.3Z"/><path class="cls-2" d="M630.44,795.5c.12,2-.78,3-2.61,3.76-7.64,3-15.18,6.17-23.18,8.08-1.57.38-3.4,1.12-4.2-.61s.95-3,2.31-3.93c4.94-3.27,10.61-4.91,16.09-7,2.79-1,5.64-1.9,8.49-2.77C629.49,792.41,630.5,793.33,630.44,795.5Z"/><path class="cls-2" d="M833.63,743.94c1.75,0,2.53,0,3.31,0,1.67,0,2.77.51,2.91,2.41s-.58,2.79-2.31,3c-8.79,1.36-17.58,2.69-26.37,4.06-1.68.26-2.4-.55-2.17-2s-1.68-3.86,1.75-4.29C818.71,746.13,826.64,744.93,833.63,743.94Z"/><path class="cls-2" d="M854,746.72c-1.32-.05-3.12.72-3-1.79.12-1.83-.41-3.89,2.54-4.12,8.35-.62,16.69-1.38,25-2.09,1.71-.14,3.1,0,3.33,2.22s-.79,3.35-2.93,3.55c-5.89.55-11.78,1.07-17.67,1.6C858.93,746.31,856.48,746.51,854,746.72Z"/><path class="cls-2" d="M794.83,750.36c1.78-.21,2.39.88,2.6,2.36a2.25,2.25,0,0,1-2.09,2.83c-5.89,1.07-11.77,2.2-17.66,3.29-2.73.51-5.47.94-8.2,1.47-1.46.28-3.07.87-3.29-1.39-.17-1.79-.09-3.53,2.29-4.16,5.62-1.46,11.33-2.34,17-3.26C788.6,751,791.72,750.73,794.83,750.36Z"/><path class="cls-2" d="M727.55,769.53c-2,.21-2.92-.48-3.23-2.07s0-2.74,1.82-3.3c6.24-1.94,12.66-3.17,19-4.64,2-.47,4.11-.86,6.18-1.25,1.72-.31,3.27.19,3.8,1.89s-1,2.74-2.34,3.15C744.4,766,735.78,767.79,727.55,769.53Z"/><path class="cls-2" d="M685.91,780.42c-1.62-.12-3,.44-3.36-1.12a2.45,2.45,0,0,1,1.67-3.18,172.44,172.44,0,0,1,26.08-7.55c1.31-.29,2.72-.16,3,1.72s-.3,3.35-2.2,3.89c-5,1.44-10,2.85-15,4.11C692.56,779.18,689,779.8,685.91,780.42Z"/><path class="cls-2" d="M901.15,742.74c-1.34,0-2.68,0-4,0s-3,.28-3-2c0-2,.3-3.37,2.81-3.5,8.69-.46,17.36-1.24,26.07-.65,1.15.08,2.69-.2,2.74,1.63s-.85,2.55-2.6,2.8C915.83,742,908.48,742.22,901.15,742.74Z"/><path class="cls-2" d="M1521.22,841.58c-10.85-.16-18-7.57-17.86-18.55a17.93,17.93,0,0,1,35.85.74C1539,834.18,1531.38,841.73,1521.22,841.58Zm12.46-17.7a12.87,12.87,0,0,0-12.24-12.9c-6.82-.19-12.91,5.79-13.16,12.94-.21,5.91,6,12.08,12.34,12.15C1528.06,836.15,1533.55,831,1533.68,823.88Z"/><path class="cls-2" d="M314.85,767.41c0-4.47.11-8.95-.05-13.42-.07-1.89.86-1.91,2.19-1.84s3-.53,3,1.91q0,13.59.14,27.2c0,2.25-1.54,1.71-2.77,1.74s-2.72.43-2.66-1.82c.12-4.58,0-9.18,0-13.76Z"/><path class="cls-2" d="M398.36,841.58a17.6,17.6,0,0,1-17.93-17.91c0-10.16,8.18-18.6,18.18-18.13,8.87.41,17.63,6.1,17.57,18.32A17.71,17.71,0,0,1,398.36,841.58Zm-.37-5.45c7.42,0,12.78-5.25,12.8-12.41,0-6.69-6.1-13.13-12.33-13-6.89.17-13.52,6.51-13.21,13S391.08,836.64,398,836.13Z"/><path d="M798.38,458.77v111H778.55V499.06L759,514,742.86,526.5,726.68,514l-19.51-14.91V569.8H687.34v-111L707.17,474l35.69,27.44L778.55,474Z"/><path d="M852.3,495.73v75.5H832.47V493.67A15.8,15.8,0,0,0,819,480.19h-4.44V460.52h4.28v.16a35.35,35.35,0,0,1,29.5,19.82A42.36,42.36,0,0,1,851,488a33.41,33.41,0,0,1,1,8.09Z"/><path d="M978.71,492.4a32.67,32.67,0,0,1-9.2,22.84A32.76,32.76,0,0,1,946,570.76h-78.2V550.93H946a13.07,13.07,0,0,0,13-13,12.92,12.92,0,0,0-12.21-13h-59V505.09h59a13,13,0,0,0-.63-26H868V459.25h78.2a32.62,32.62,0,0,1,32.67,32.67Z"/><path d="M1105.28,550.29v19.83H994.57V537.45a31.66,31.66,0,0,1,2.69-12.85,32.59,32.59,0,0,1,28.87-20h48.06a13,13,0,0,0-1.11-25.85h-78.2V458.93h78.2a32.63,32.63,0,0,1,32.68,32.68,32.45,32.45,0,0,1-9.36,22.68,32.94,32.94,0,0,1-22.37,10h-47.9a12.91,12.91,0,0,0-11.58,12.85V550Z"/><path d="M1232.48,492.4a32.67,32.67,0,0,1-9.2,22.84,32.76,32.76,0,0,1-23.47,55.52h-78.2V550.93h78.2a13.06,13.06,0,0,0,13-13,12.92,12.92,0,0,0-12.21-13h-59V505.09h59a13,13,0,0,0-.63-26h-78.2V459.25H1200a32.62,32.62,0,0,1,32.67,32.67Z"/></g></g></svg>