<svg xmlns="http://www.w3.org/2000/svg" viewBox="0 0 1920 1080"><defs><style>.cls-1{fill:#f2f2f2;}.cls-2{fill:#010202;}</style></defs><g id="Capa_2" data-name="Capa 2"><g id="Capa_1-2" data-name="Capa 1"><rect class="cls-1" width="1" height="1"/><rect class="cls-1" x="1919" y="1079" width="1" height="1"/><rect class="cls-1" y="1079" width="1" height="1"/><rect class="cls-1" x="1919" width="1" height="1"/><path class="cls-2" d="M1731.88,382.75c0-4.42-19.45-22.46-19.45-22.46-6.88-7.3-14.75-10.18-24.84-10.07-36.37.45-72.74.22-109.11.24a73.12,73.12,0,0,1-9-.25A15.57,15.57,0,0,1,1555.92,335c0-2.4,0-4.8.14-7.21.32-9.54-4.34-15.95-12.67-19.94a61.16,61.16,0,0,0-8.42-3.12q-67.9-21.07-136.51-39.68a1298.61,1298.61,0,0,0-179.19-35.4c-32.2-4-64.46-7.41-96.81-10q-30.54-2.44-61.22-2.89c-7.84-.1-12.77,3.09-16.4,9.58-1.25,2.26-2.55,4.48-4,6.61-1.29,1.9-2.67,3.95-5.59,3.06-2.59-5-.58-10.76-2.77-16.71l-135.82.24c-10.62,0-10.62,0-11.19,10.2,0,.91-.06,1.81-.13,2.7-.1,1.49-.11,3.25-2,3.39a4.9,4.9,0,0,1-3.23-1.18,14.3,14.3,0,0,1-2.59-3.61c-9.39-15.85-6.81-13.66-24.76-13.67-47.43,0-106.91,7-106.91,7-76.31,7.65-151.6,20.65-225.62,41-44.84,12.29-89.49,25.14-133.89,38.89-2.29.71-4.58,1.44-6.83,2.27-10.93,4.05-15.21,10-15.64,21.55-.08,2.11.1,4.22,0,6.31-.64,10.26-6.22,15.91-16.62,15.95-38.45.19-76.91.42-115.36,0-10.11-.11-18,2.55-24.59,10.24L193.6,377c-3.77,4.56-5.91,11.26-5.91,11.26,0,38.76,0,77.53-.38,116.28-.08,8.14,2.54,14.42,8.39,19.95,8.09,7.62,16.13,15.36,23.51,23.64,6.77,7.58,14.62,10.39,24.69,10.23,30-.5,60.11-.35,90.17-.4,7.21,0,14.44,0,21.63.44,10.24.7,16.47,7,17.31,17.22.32,3.89.26,7.81.26,11.71q.15,52.29.23,104.57c0,10.41,2.95,19.34,10.9,26.57,7.1,6.47,13.72,13.46,20.52,20.26,4.35,4.37,8.64,8.79,13.18,13.41-12.61,13-24.27,25.87-37.77,36.84-1.06,4.79,1.75,7.84,4.78,10.87l54.07,53.34c.54.91,3,1,4-.37L479,817.74c1.45-1.5,2.81-2,4.52-.28l32,29.72a11.3,11.3,0,0,0,7.71,3h92c2.44,0,7.42-2.74,6.71,3.7l.31,7a1.78,1.78,0,0,0,1.64,1.7c2.16.18,4.33.4,6.48.41q58,.06,116,0c2.77,0,6.13,1.44,8.11-2.05-.32-3-.56-6.08.36-9.07,1.18-2.67,3.59-1.62,5.49-1.63l402.24,0c1.31,0,2.24.45,2.33,1.92a34.35,34.35,0,0,1,.29,5.34c-.43,4.29,1.28,6.15,5.62,5.64a37.69,37.69,0,0,1,4.51,0l112.72,0c8.42,0,8.59,0,9.06-8.28.19-3.36,1.13-5,4.7-4.67,2.09.19,4.2,0,6.31,0,27.65,0,55.3-.22,83,.05,8.75.08,15.26-2.85,21.47-9.09q61-61.39,122.6-122.19c7.54-7.45,11.41-15.65,11.18-26.36-.46-20.13-.26-40.26-.29-60.39,0-17.43-.25-34.87.07-52.29.27-14.79,7.09-21.26,21.76-21.61,2.71-.06,5.41,0,8.12,0,34,0,67.93-.15,101.9.14,8.62.07,15.34-2.4,21.21-9A251.27,251.27,0,0,1,1721.7,527c8.1-7.14,11.17-15.53,11-26.22C1732,461.46,1732.26,422.11,1731.88,382.75ZM1067.27,230.41c28.5,1.52,57,3.27,85.39,6.16,25.7,2.61,51.35,5.48,76.95,8.9a1186.6,1186.6,0,0,1,133.49,25.28q85.1,21.53,168.75,48c1.43.45,2.78,1.19,4.22,1.56,4.58,1.17,6.23,4.13,5.66,8.66-.36,2.91.62,5.93-.93,9.2q-16.33-4.87-32.66-9.75c-3.32-1-5.57-3.41-8-5.69a65,65,0,0,0-21.91-13.9c-1.67-.64-3.38-1.2-5.11-1.68s-3-.17-3.56,1.64a3,3,0,0,0,1.65,3.73c4.24,2.23,8.57,4.33,12.82,6.51,1,.53,2,1.24,3,1.88-1.91,2-3.5.33-5.2-.15-36.11-10.09-72.19-20.3-108.66-29.09-1.16-.28-2.37-.39-3.53-.71-2.32-.64-3.78-2-3-4.6.88-2.74,2.84-1.21,4.41-.86,7,1.59,14,3.25,21.06,4.78,2.08.45,4.72,2.45,5.73-1.52,1-3.78-1.69-4.76-4.36-5.44-7-1.76-14-3.33-21-5-.58-.15-1.14-.37-1.72-.51-13.35-3.14-13.35-3.14-11.11,10.38-8.57-1.94-16.87-3.89-25.19-5.73-33.41-7.41-67.12-13.3-100.76-19.55-3-.55-5.91-.6-7.23-4.15-1-2.52-3.52-2-5.5-1.9-31.14,1.28-61.57-5.44-92.36-8.12-24.84-2.15-49.71-4.09-74.63-5C1054.58,233.56,1058,229.9,1067.27,230.41ZM390.81,318c58.48-18.84,117.61-35.4,177.25-50.14,52.81-13,106.48-21,160.45-27.22,40.28-4.65,80.62-8.32,121.14-9.92,13.1-.51,11.61-2.28,16.2,11.87-.61,1.32-1.82,1.38-3,1.41-44.48,1.2-88.61,6.33-132.7,11.86-10.19,1.29-20.4.74-30.59,1-3.07.09-6.45-.92-7.88,3.76-.66,2.12-4.21,1.7-6.55,2.13-21.82,4-43.71,7.76-65.44,12.22-18.78,3.85-37.69,7.22-56.18,12.46-1.14.32-2.33.6-3.31-.46,2.32-12.25,2.3-12.35-10.24-9.78-6.75,1.39-13.42,3.14-20.11,4.82a52.57,52.57,0,0,0-6,2c-2.58,1-2.64,2.92-1.84,5.16s2.42,2.33,4.34,1.84c7-1.77,13.92-3.66,21-5.2,1.89-.41,4.89-3.07,5.89.64s-2.63,4.16-5.13,4.72c-32.78,7.34-65,17-97.38,25.71-5.68,1.53-11.09,4.16-17.8,5,3.61-3.75,7.48-5.4,11.18-7.34a26.78,26.78,0,0,0,4.48-3c1.2-1,2.05-2.42,1.26-3.95-.87-1.69-2.39-1.19-3.9-.76-10.67,3-19.67,8.9-27.5,16.48a23.8,23.8,0,0,1-11.4,6.47c-9.5,2.35-18.83,5.38-28.1,8.08-.4-.62-.69-.87-.7-1.13C377.73,319.18,377.23,322.41,390.81,318Zm52.07,526.56c-1.74,1.29-3.22-.8-4.42-2-2.95-3-5.75-6.1-8.69-9.08-11.77-12-23.58-23.85-35.33-35.82a40.52,40.52,0,0,1-4.62-5.44c-.77-1.13,0-2.22,1.44-2.71a8.53,8.53,0,0,1,5.25,2.9c4.5,4.41,8.94,8.85,13.39,13.29q14,13.93,28,27.91a58.79,58.79,0,0,1,4.72,5.38C444,840.74,444.86,843.11,442.88,844.59Zm23.51-24.88c-5.2,4.91-10.1,10.15-15.81,15.95l-51.77-53,18.95-18.44c3.15,1.61,5.28,5,8,7.65,13.39,13.34,26.56,26.9,40.1,40.08C468.87,814.88,469.68,816.6,466.39,819.71Zm20.29-19.51c-4.73-5.18-9.11-10-13.53-14.77-1.42-1.54-2.9-3-4.45-4.46-9-8.18-13.83-7.08-18.69,4.78-3.29-3.68-6.41-7.15-10.51-11.71,6.12,3,8.71-1,10.61-4.37,2.27-4-.68-7.48-3.45-10.29-3.15-3.22-6.58-6.16-9.93-9.17-2-1.77-3.39-3.43-.8-5.91,2.18-2.09,4.09-3.35,6.86-.77,3.29,3.06,6.85,5.83,10.24,8.79,2,1.78,3.92,3.74,6,5.49,1.45,1.23,2.91,3.91,5.11,1.54,1.79-1.91.2-4-1.16-5.58-3.61-4-7.42-7.86-11.1-11.82a69.5,69.5,0,0,1-4.73-5.42c-.93-1.23-1.33-2.83.24-3.93,1.1-.78,2.32-.28,3.25.54,1.57,1.39,3.1,2.84,4.58,4.33C469,751.3,482.79,765.1,496.47,779c1.91,1.93,6.25,4.17,3.55,7-3.14,3.29-4.78-1.68-6.78-3.36-4.35-3.68-8.42-7.68-12.69-11.47-1.07-.94-2.54-2.12-3.92-.88-1.11,1-1.15,2.7-.93,4.24.37,2.6,2.22,4.22,4,5.83,4.42,4,8.93,8,13.42,12Zm66.56-138.77c-.1,2.67,1.19,3.89,3.76,3.78,2.14-.09,3.06-1.25,3.19-3.45.18-2.92-.4-5.93,1.11-9.69,7.25,7.18,14.18,14.09,21.16,20.95,1.67,1.64,1.84,3.72,1.85,5.82q.09,23.43.07,46.85c0,1.46,0,3.54-.87,4.28-8.14,6.87-14,16.15-23.52,22.94-.37-4.2-.6-7.62-1-11-.14-1.18-.73-2.42-2.17-2.5a2.66,2.66,0,0,0-3,2.61,84.56,84.56,0,0,0-.58,11.67c.29,5.24-1.53,9-5.42,12.59-7.74,7.1-15.07,14.65-22.41,22.18-2.68,2.74-4.34,2.81-7.21-.09-23.92-24.08-48.05-48-72.08-71.93-4.83-4.82-4.9-5.07-.08-9.89,18.25-18.27,36.65-36.41,54.93-54.66,2.48-2.47,5.16-3.94,8.72-3.93,12.91,0,25.84.11,38.75-.08,4.15-.06,5.17,1.78,4.88,5.45C553.1,656,553.33,658.72,553.24,661.43Zm62.27,174.4c-28.23,0-56.46-.22-84.68-.16a19.11,19.11,0,0,1-15.11-6.47c-6.31-6.84-13.05-13.27-19.49-20-1.5-1.57-4.3-3-2.32-5.94,1.83-2.67,4.08-4.43,7.52-2.18a5.07,5.07,0,0,0,4.43.68c1.79-2.3,0-4.35-.68-6.54-.59-1.81-.53-3.68,1.42-4.66,1.56-.78,2.83.2,3.95,1.25,2.19,2,4.32,4.16,6.56,6.14,5.34,4.72,5.39,4.71,10.71-.51,7.69-7.56,15.34-15.14,22.91-22.61a2.18,2.18,0,0,1,2,1.59c.86,2.3.17,6.07,4.26,5.59,3.4-.41,3-4.15,2.76-5.78-1.74-10.63,5.22-16.41,11.71-22.6,5-4.76,9.83-9.71,14.86-14.43a16.21,16.21,0,0,0,5.6-12.66c-.15-16.51-.09-33,0-49.53a12.18,12.18,0,0,0-4.19-9.47c-7.57-7.27-14.82-14.89-22.54-22-3.57-3.3-5.55-6.73-5.29-11.64.2-3.82-.09-7.69-2.85-10.81-3.15-.13-3.42,2.25-3.9,4.45-.09,12.47-.09,12.4-11.93,12.32-11.12-.07-22.25.15-33.36,0-4.14-.06-7.39.93-10.42,4-20.38,20.84-41,41.48-61.39,62.26-5.27,5.37-5.06,5.44-.17,10.85,2.76,3.05,6.65,5.2,8.08,10-4.85,2.07-8.1,5.71-11,10-3.33,4.78-4.42,4.76-8.38.85-10.71-10.54-21.21-21.29-31.89-31.86-4.46-4.42-5.08-9.78-5.05-15.7q.27-55.44.18-110.87c0-4.78.34-9.67-1.69-14.2-4.58-10.16-11.94-17.11-23-19.7a78.68,78.68,0,0,0-17.92-1.56c-33.37,0-66.73-.12-100.09.05-6.69,0-11.85-1.43-16.52-6.87-6.63-7.73-14.21-14.67-21.69-21.62a15.73,15.73,0,0,1-5.45-12.59q.28-53.62,0-107.26a20.29,20.29,0,0,1,6.1-15.28C223,364.59,222.93,364.54,245,364.61q42.39.15,84.76.16c5.11,0,10.23-.3,15.33,0,11.71.61,21.25-3.4,28-13,3-4.22,6.88-6.28,11.62-7.69,53.18-15.86,106.49-31.21,160.38-44.5l4.37-1.05c2.77-.67,3.83.58,3.84,3.25,0,4.5.14,9,.21,13.51,0,2.3.54,4.39,3.35,4.29,3-.11,2.83-2.49,2.83-4.62,0-4.51.39-9.05,0-13.52-.45-4.62,1.34-5.93,5.73-7C596,287,626.91,280.8,657.94,275.32c26-4.59,52.13-8.56,78.21-12.67a61.6,61.6,0,0,1,16.9-.27c8.89,1.06,18,.42,27,.25,4.33-.09,9.41,2,11.7-4.74.73-2.15,5.31-2.07,8.29-2.55,17.83-2.91,35.84-3.72,53.86-4.25,9-.25,18-.42,27-.57,2,0,4.54-.68,4.36,2.75-.16,3.17-2.54,2.63-4.6,2.71-3.91.13-7.81.34-11.71.52-2,.09-3.49.7-3.39,3.12a3.24,3.24,0,0,0,3.35,3.43,101.51,101.51,0,0,0,11.68.5c4-.17,5.25,1.51,5,5.25-.29,4.5,0,9-.46,13.5-1.36,13.06-9.38,21.46-22.32,23.32-6.23.9-12.54,1.53-18.83,1.85q-58.53,3-116.83,8.91c-29.31,3-58.25,8.48-87.19,13.8-26.54,4.87-53,10.07-79.43,15.11-2.06-1.8-1.07-4.05-1.28-6s-.82-3.5-3.22-3.23c-1.74.2-2.39,1.18-2.66,3-1.29,8.36-1.35,8.37-9.7,9.85-9.46,1.69-19,3.09-27.81,7.19-28.17,13.18-43.7,35.58-44.75,66.42-1.14,33-.56,66.09-.21,99.14A67.39,67.39,0,0,0,482.39,558c1.44,2.21,3.55,4.18,3.45,7.16,1.14-.15,1.35.47,1.16,1.42,6,3.11,10.14,8.54,15.79,12.2,8.35,5.41,17.58,7.75,27.07,9.49,2.49.46,4.6,1.06,6.3,3,20.07,22.46,46.54,31.81,75.2,36.78,8.1,1.41,7.9,1.63,9.53,9.94a79.55,79.55,0,0,1,1.19,15.23q.09,87.79.08,175.6C622.16,835.74,622,835.84,615.51,835.83ZM546,589.47c7.43-1.86,7.43-1.86,6.24,5.39C548.85,594.53,547.19,592.41,546,589.47Zm13.68,10A63.82,63.82,0,0,1,561.2,589c.27-1.19,2-.82,3.21-.74,22.54,1.65,39.35,12.2,51.38,33.51-19.63-3.63-36.66-8.63-52.27-17.85C561.69,602.88,559.52,601.93,559.67,599.52ZM756.44,835.66c.79-11.46,5.72-16.36,16.35-16.46,3.3,0,6.61,0,9.91,0,2.14,0,4.4-.09,5.93-1.65,5.88-6,12.07-4.64,18.15-.72a11.12,11.12,0,0,0,5.82,2c9.9.2,19.82.25,29.72.32a10.47,10.47,0,0,0,2.66-.37c2.07-.55,2.79-2,2.65-4.06-.14-1.83-1.22-2.52-2.88-2.79-3.74-.57-7.68.18-12-1.78,35.07-34.62,69.8-68.91,104.56-103.14,4.05-4,8.07-8.21,13.85-9.68l15.87-.26c5.19.63,8.66,3.88,12.11,7.24q29.4,28.59,58.77,57.22c16.47,16.14,32.83,32.41,49.67,49.05-3.8,1.86-7.65,1.31-11.32,1.66-2.42.23-5,.09-4.92,3.67.11,3,2.34,3.13,4.47,3.15,10.81.07,21.63.08,32.45.09,1.48,0,3.66.11,4-1.33,1.38-5.93,5.89-3.94,9.43-3.9,3.33,0,7.33-1.5,9.32,3.17.8,1.9,3,1.73,4.77,1.8,2.7.12,5.41.14,8.11.14,13.7,0,16.13,2,20.32,16.14ZM1290.7,641.9c-1.5,13.79-1.14,27.6-.74,41.4,1.6,55,.28,109.91.56,164.87,0,8.09-.2,8.09-7.65,8.08l-100.95-.09a33.74,33.74,0,0,0-4.5,0c-4.68.64-5.8-1.74-5.19-5.78.13-.88,0-1.8.06-2.7.83-9.76-.13-19.14-6.11-27.5,1.13-.76,1.79-1.48,2.56-1.65,2.28-.52,4.06-1.4,3.59-4.13-.45-2.55-2.64-2-4.28-2a49.33,49.33,0,0,1-17.52-3.62c-5.11-2-10.54-2.22-16-2.23-10.51,0-21-.2-31.54-.1a21.25,21.25,0,0,1-16-6.64c-32.85-32.56-65.9-64.93-98.79-97.45-6.5-6.42-12.79-12.88-22.91-12.54l-12.56.19c-7.29,0-12.86,4-18,9q-48.06,47.55-96.38,94.82c-2.35,2.32-4.77,4.58-7.15,6.87a19.55,19.55,0,0,1-15.43,5.85c-9.59-.51-19.22-.3-28.84-.26-7.52,0-15,.41-22,3.78-4.11,2-8.81,1.58-13.29,2-1.48.13-3.17.06-3.89,1.66a3.42,3.42,0,0,0,1.62,4.6c2.16,1.11,3.74,2,2.19,4.64-5.2,8.72-5.11,18.37-4.77,28,.14,3.87-.87,5.08-5,5.07-34.86-.08-69.72.09-104.58.22-8,0-7.57.53-7.57-8q0-92.85-.07-185.67c0-9.58.27-19.17-1.79-28.7-6.06-28.09-30.39-49.88-59.12-52.58a20.82,20.82,0,0,0-3.59-.27c-4.21.35-6.16-1.38-5.88-5.71a47.4,47.4,0,0,0-.25-6.29A2.06,2.06,0,0,0,556.6,567c-1.23.05-2.5.52-2.67,1.88a50.87,50.87,0,0,0-.46,7.19c0,3.15-.76,4.93-4.53,5-11.81.09-23.54-.47-34.46-5.34-23.51-10.5-35.45-29.49-36.1-54.58-.85-33-.71-66.1.13-99.12.79-31.33,20.81-55,51.22-62.78a156.21,156.21,0,0,1,23.78-4.31c0,5.68-.06,11,0,16.32,0,2.23-.73,5.21,3.18,5s2.6-3.31,2.72-5.4a63.9,63.9,0,0,0,.09-10.8c-.57-5.16,1.05-7.19,6.51-8.16,27.17-4.84,54.23-10.31,81.35-15.43,36-6.82,72.16-12.65,108.71-15.61,26.64-2.17,53.32-4,80-5.95,9-.66,18-1.12,26.95-2.06,16.79-1.78,27.9-13.24,29.4-30,.21-2.39.22-4.8.33-7.21.16-3.58-.77-7.77.78-10.59,1.77-3.21,6.51-1.63,9.93-2.23,1.94-.34,3.53-.86,3.62-3.13.11-2.61-1.86-2.53-3.65-2.79-3.23-.44-7.32,1.18-9.52-1.28-2.67-3-1-7.43-1.18-11.24-.17-4.5.1-9,0-13.51-.08-3.06,1.1-4.29,4.21-4.27h123.79c6.51,0,6.59.16,6.69,6.36.11,6-.16,12,.09,18,.15,3.86-1.27,5.57-5.12,5.49-2.1-.05-4.2.21-6.31.32-1.62.09-3,.53-2.88,2.54,0,1.57.36,3,2.27,3.26a22.13,22.13,0,0,0,2.7.18c10.26,0,9.09,1,9.3,9.77.08,3.3,0,6.61.14,9.91.51,14.84,8.93,25.41,23.52,29,10.86,2.68,22,2.74,33.11,3.32,68.75,3.65,137.09,10.5,204.61,24.41,21.16,4.35,42.45,8.06,63.65,12.27,7.91,1.57,7.87,1.82,8,9.69.06,4.2.08,8.4.12,12.62,0,1.68.71,2.95,2.53,2.94a2.76,2.76,0,0,0,2.81-2.9c.33-6.25.58-12.5.87-19.32,12,2.13,23.59,3.52,34.28,8.32,23.57,10.62,37.74,29,39.73,54.68,2.79,36.27,2.18,72.69,0,109-1.76,29.06-26,51.81-55,53.53-2.7.16-5.4.28-8.1.4-10,.46-10.28.48-11.06-9.63-.31-4-2.49-4.18-5.4-4-.47.76-1,1.5-1.44,2.26.41,10.81.41,10.81-10,12.17C1317.55,585.44,1294.23,609.48,1290.7,641.9ZM1373.79,589c-1.16,3.38-3.59,4.5-6.67,5.27C1365.58,587.51,1369.73,588.59,1373.79,589Zm-13.74,6.49c.65,4.61-1.69,7.12-5.4,9.27-15,8.69-31.35,13-48.44,16,5.65-17.93,28.71-31.85,53.79-32.08A54.48,54.48,0,0,0,1360.05,595.45Zm352.83-80.35c-8.28,7.85-16.29,16-24.06,24.37-3.18,3.42-6.55,4.48-11.08,4.46-34.27-.12-68.52,0-102.78,0a92.16,92.16,0,0,0-16.17,1c-15.85,2.79-25.41,13.55-26.25,29.58-1.87,35.73-.61,71.49-1.12,107.22-.34,24.18,2.34,17.1-13.91,33.44q-53.73,54-107.37,108.07c-12.28,12.37-12.21,12.43-29.58,12.45-24.94,0-49.89.07-74.83,0-8.16,0-8.41,2.1-8.43-8.08q-.1-59.94.21-119.87c0-7.78-.38-15.61.78-23.37a331.12,331.12,0,0,1,.25-44.88c.66-9.61,1.12-9.62,10.4-11.3,16.56-3,32.67-7.28,47.54-15.58a102.58,102.58,0,0,0,22.75-17.4,28.48,28.48,0,0,1,15.49-8.37c11.74-2.17,21.75-8.13,31.17-15.16,17-16.16,23.45-36.32,23.3-59.28-.18-27,.11-54,.1-81.06,0-16.77-2.94-32.81-12.35-47.16-11.84-18.06-28.72-28.52-49.53-33.11-4.1-.9-8.25-1.56-12.36-2.44-2.62-.55-5.48-.81-7.72-2.08-2.87-1.62-1.23-4.9-1.51-7.46-.18-1.66-.77-2.91-2.63-3-2.29-.13-3.22,1.08-3.12,3.28,0,.59,0,1.2,0,1.8v4.52c-8.21-1.6-16-3.11-23.79-4.64-45.33-8.94-90.66-18-136.52-23.77-30.08-3.8-60.37-5.63-90.61-7.79-16.47-1.18-32.94-2.46-49.41-3.48-15.44-1-25.13-10.8-25.29-26,0-5.07-2-11.1.61-14.92s8.92-1.31,13.57-2c1.18-.17,2.4-.15,3.56-.42a3,3,0,0,0-.58-6c-3.9-.22-7.8-.32-11.7-.47a20.32,20.32,0,0,1-3.59-.22,2.78,2.78,0,0,1-2.25-3.29,2.42,2.42,0,0,1,2.17-2.42,25.26,25.26,0,0,1,3.59-.06c23.4.8,46.81,1.44,70.15,3.45a6.52,6.52,0,0,1,2.14.95.75.75,0,0,0,.2.1l-.12-.24c3.88.31,7.76.59,11.64.94,1.81.17,4.32.48,4.51,2.3.67,6.46,5.21,5.26,9.29,5.24,6.91-.05,13.94.73,20.7-.28,20.65-3.07,40.47,2.22,60.47,5.25,43.92,6.65,87.57,14.86,130.83,25.06,1.16.27,2.34.48,3.51.78,6.87,1.79,6.88,1.79,6.95,8.76,0,2.7-.42,5.47.05,8.09.55,3-2.68,8.61,3.25,8.39,5.39-.19,2.74-5.66,3.13-8.8.47-3.82.11-7.75.11-12.31,9.44,1,17.86,3.82,26.39,6,47.41,11.93,94.34,25.59,141.16,39.58,5.3,1.59,9.65,3.68,12.9,8.74A25.35,25.35,0,0,0,1569,364.49c4.2.06,8.41.28,12.62.28,35.45,0,70.92,0,106.38-.27a16.8,16.8,0,0,1,12.7,5.1c17.68,16.84,17.72,16.76,17.68,41,0,30.35-.13,60.69.09,91C1718.47,507.21,1716.93,511.27,1712.88,515.1ZM968.33,722.38c-8.09-2.6-21.81,1.11-21.81,1.11-23.11,8-34.1,33.47-24.64,56.57,1.52,3.7,3.65,5.7,8.06,5.56h58.42c7.34,0,8.61-2.48,8.61-2.48,1-3.45,2.16-6.87,3-10.35C1005.65,749.59,991.76,727.5,968.33,722.38Zm24.14,50.42c-1.26,4.16-3.16,6-7.53,5.79L936,778.52c-7.46-.08-7.46-.11-9.37-7.68-4.53-17.9,7.7-37.47,25.73-41.17,7.79-1.31,16.88.48,16.88.48C987.62,735.73,997.91,754.88,992.47,772.8Zm-70.9,39.76c-1,4.36.06,6.75,5.27,6.56l66.56.34c5.13.12,6.13-2.64,5.55-6.89Zm46.76-90.18c-8.09-2.6-21.81,1.11-21.81,1.11-23.11,8-34.1,33.47-24.64,56.57,1.52,3.7,3.65,5.7,8.06,5.56h58.42c7.34,0,8.61-2.48,8.61-2.48,1-3.45,2.16-6.87,3-10.35C1005.65,749.59,991.76,727.5,968.33,722.38Zm24.14,50.42c-1.26,4.16-3.16,6-7.53,5.79L936,778.52c-7.46-.08-7.46-.11-9.37-7.68-4.53-17.9,7.7-37.47,25.73-41.17,7.79-1.31,16.88.48,16.88.48C987.62,735.73,997.91,754.88,992.47,772.8Zm-70.9,39.76c-1,4.36.06,6.75,5.27,6.56l66.56.34c5.13.12,6.13-2.64,5.55-6.89Zm77.38,0H921.57c-1,4.36.06,6.75,5.27,6.56l66.56.34C998.53,819.58,999.53,816.82,999,812.57Zm-30.62-90.19c-8.09-2.6-21.81,1.11-21.81,1.11-23.11,8-34.1,33.47-24.64,56.57,1.52,3.7,3.65,5.7,8.06,5.56h58.42c7.34,0,8.61-2.48,8.61-2.48,1-3.45,2.16-6.87,3-10.35C1005.65,749.59,991.76,727.5,968.33,722.38Zm24.14,50.42c-1.26,4.16-3.16,6-7.53,5.79L936,778.52c-7.46-.08-7.46-.11-9.37-7.68-4.53-17.9,7.7-37.47,25.73-41.17,7.79-1.31,16.88.48,16.88.48C987.62,735.73,997.91,754.88,992.47,772.8Z"/><path class="cls-1" d="M1440.81,417.52c-2-25.69-16.16-44.06-39.73-54.68-10.69-4.8-22.3-6.19-34.28-8.32-.29,6.82-.54,13.07-.87,19.32a2.76,2.76,0,0,1-2.81,2.9c-1.82,0-2.51-1.26-2.53-2.94,0-4.22-.06-8.42-.12-12.62-.11-7.87-.07-8.12-8-9.69-21.2-4.21-42.49-7.92-63.65-12.27-67.52-13.91-135.86-20.76-204.61-24.41-11.08-.58-22.25-.64-33.11-3.32-14.59-3.61-23-14.18-23.52-29-.1-3.3-.06-6.61-.14-9.91-.21-8.73,1-9.78-9.3-9.77a22.13,22.13,0,0,1-2.7-.18c-1.91-.26-2.22-1.69-2.27-3.26-.07-2,1.26-2.45,2.88-2.54,2.11-.11,4.21-.37,6.31-.32,3.85.08,5.27-1.63,5.12-5.49-.25-6,0-12-.09-18-.1-6.2-.18-6.33-6.69-6.36H896.93c-3.11,0-4.29,1.21-4.21,4.27.12,4.5-.15,9,0,13.51.15,3.81-1.49,8.27,1.18,11.24,2.2,2.46,6.29.84,9.52,1.28,1.79.26,3.76.18,3.65,2.79-.09,2.27-1.68,2.79-3.62,3.13-3.42.6-8.16-1-9.93,2.23-1.55,2.82-.62,7-.78,10.59-.11,2.41-.12,4.82-.33,7.21-1.5,16.75-12.61,28.21-29.4,30-8.95.94-18,1.4-26.95,2.06-26.66,2-53.34,3.78-80,5.95-36.55,3-72.7,8.79-108.71,15.61-27.12,5.12-54.18,10.59-81.35,15.43-5.46,1-7.08,3-6.51,8.16a63.9,63.9,0,0,1-.09,10.8c-.12,2.09,1.22,5.2-2.72,5.4s-3.15-2.78-3.18-5c-.09-5.32,0-10.64,0-16.32a156.21,156.21,0,0,0-23.78,4.31C499.32,367,479.3,390.69,478.51,422c-.84,33-1,66.1-.13,99.12.65,25.09,12.59,44.08,36.1,54.58,10.92,4.87,22.65,5.43,34.46,5.34,3.77,0,4.56-1.82,4.53-5a50.87,50.87,0,0,1,.46-7.19c.17-1.36,1.44-1.83,2.67-1.88a2.06,2.06,0,0,1,2.36,2.07,47.4,47.4,0,0,1,.25,6.29c-.28,4.33,1.67,6.06,5.88,5.71a20.82,20.82,0,0,1,3.59.27c28.73,2.7,53.06,24.49,59.12,52.58,2.06,9.53,1.78,19.12,1.79,28.7q.13,92.83.07,185.67c0,8.52-.46,8,7.57,8,34.86-.13,69.72-.3,104.58-.22,4.12,0,5.13-1.2,5-5.07-.34-9.63-.43-19.28,4.77-28,1.55-2.6,0-3.53-2.19-4.64a3.42,3.42,0,0,1-1.62-4.6c.72-1.6,2.41-1.53,3.89-1.66,4.48-.4,9.18,0,13.29-2,7-3.37,14.47-3.74,22-3.78,9.62,0,19.25-.25,28.84.26a19.55,19.55,0,0,0,15.43-5.85c2.38-2.29,4.8-4.55,7.15-6.87q48.21-47.37,96.38-94.82c5.12-5.07,10.69-9,18-9l12.56-.19c10.12-.34,16.41,6.12,22.91,12.54,32.89,32.52,65.94,64.89,98.79,97.45a21.25,21.25,0,0,0,16,6.64c10.51-.1,21,.08,31.54.1,5.44,0,10.87.26,16,2.23a49.33,49.33,0,0,0,17.52,3.62c1.64,0,3.83-.56,4.28,2,.47,2.73-1.31,3.61-3.59,4.13-.77.17-1.43.89-2.56,1.65,6,8.36,6.94,17.74,6.11,27.5-.08.9.07,1.82-.06,2.7-.61,4,.51,6.42,5.19,5.78a33.74,33.74,0,0,1,4.5,0l100.95.09c7.45,0,7.68,0,7.65-8.08-.28-55,1-109.91-.56-164.87-.4-13.8-.76-27.61.74-41.4,3.53-32.42,26.85-56.46,59.12-60.71,10.42-1.36,10.42-1.36,10-12.17.48-.76,1-1.5,1.44-2.26,2.91-.15,5.09,0,5.4,4,.78,10.11,1,10.09,11.06,9.63,2.7-.12,5.4-.24,8.1-.4,29-1.72,53.22-24.47,55-53.53C1443,490.21,1443.6,453.79,1440.81,417.52ZM559.4,489.39c0,1.63-.37,3.05-2.23,3.23-2.16.21-3.36-.89-3.36-3.11q0-17.5.05-35c0-2.16,1-3.43,3.16-3.37s2.12,1.78,2.13,3.25c.06,6,0,12,0,18h.21C559.39,478,559.37,483.71,559.4,489.39Zm-5.57-92.27c0-1.74.79-3,2.5-3.14,2.49-.26,2.85,1.48,2.85,3.45,0,6,0,12,0,18h.17c0,5.4,0,10.79,0,16.19,0,1.74.22,3.68-2.44,3.82-2.37.14-3.11-1.14-3.11-3.24Q553.81,414.64,553.83,397.12Zm2.33,152.22c-1.9-.06-2.53-1.12-2.52-2.87,0-6,0-12,0-18h.05c0-5.7,0-11.38,0-17.07,0-1.7.83-2.91,2.62-2.94a2.58,2.58,0,0,1,2.8,2.79c.13,11.68.18,23.35.32,35C559.48,548.7,558.26,549.41,556.16,549.34ZM671.94,818.57c-2.67.25-5.36.36-8,.38-7.47.07-14.93.08-22.4.07a30.75,30.75,0,0,1-5.35-.25c-2.14-.39-2.63-2.12-2.53-4.06s1.5-2.47,3-2.49c6-.07,11.94,0,17.92,0v.1h17c1.62,0,2.9.48,3,2.41S674.21,818.36,671.94,818.57Zm55.55.31c-.88.16-1.73.42-2.58.62-9.75-.18-19.48-.26-29.22-.57-5.6-.18-5.81-.82-3.3-6.82,11.35,0,22.7,0,34,.21,2,0,5.21-1.4,5.67,2.32C732.5,817.9,729.92,818.42,727.49,818.88ZM995.3,262.45a49,49,0,0,1-6.29.42L928,263c-2,0-4.4.61-4.69-2.6-.34-3.74,2.27-3.53,4.71-3.55l62.89,0a25.72,25.72,0,0,1,4.47.32c1.36.26,1.7,1.45,1.74,2.71S996.64,262.26,995.3,262.45Zm233.93,552.86c-.13,2.27-1.57,3.1-3.53,3.14q-17.46.27-34.92.42c-2.21,0-3.09-1.5-3.21-3.48-.14-2.36,1.34-3,3.4-3h17.9v0c5.38,0,10.75,0,16.12,0C1227,812.41,1229.42,812,1229.23,815.31Zm53.55,3.31q-17.43.2-34.84.21c-2.07,0-3.19-1.2-3.28-3.38-.09-2.41,1.38-3.06,3.35-3.07,6.25,0,12.51,0,18.76,0v0c5.07,0,10.13,0,15.19,0,2.07,0,4.33-.29,4.21,3C1286.09,817.73,1284.71,818.59,1282.78,818.62ZM1363,393.69c3.5-.22,2.49,3.37,2.55,5.56.23,6.88.32,13.76.41,20.65,0,3.88,0,7.78-.09,11.67,0,1.71.25,3.89-2.35,4.05s-2.51-2-2.52-3.72c0-5.68,0-11.36,0-17h-.16c0-5.07-.14-10.17.07-15.25C1361,397.46,1359.86,393.89,1363,393.69Zm2.72,78.6c0,5.71,0,11.42,0,17.13,0,1.51-.14,3.18-2,3.48-2,.33-2.52-1.34-2.53-2.84q-.12-18-.08-36c0-1.47.26-3.2,2.27-3.11s2,1.93,2.06,3.37c.07,6,0,12,0,18Zm-2.54,77c-1.66-.08-2.92-.74-2.88-2.61q.3-17.92.69-35.82a2.29,2.29,0,0,1,2-2.53c1.89-.09,2.58,1.38,2.6,2.94.08,6,0,11.93,0,17.9h.79c0,5.68-.05,11.34,0,17C1366.43,548.52,1365.31,549.38,1363.17,549.28Z"/><path class="cls-2" d="M997.11,259.8c0,1.35-.47,2.46-1.81,2.65a49,49,0,0,1-6.29.42L928,263c-2,0-4.4.61-4.69-2.6-.34-3.74,2.27-3.53,4.71-3.55l62.89,0a25.72,25.72,0,0,1,4.47.32C996.73,257.35,997.07,258.54,997.11,259.8Z"/><path class="cls-2" d="M1365.86,431.57c0,1.71.25,3.89-2.35,4.05s-2.51-2-2.52-3.72c0-5.68,0-11.36,0-17h-.16c0-5.07-.14-10.17.07-15.25.09-2.13-1-5.7,2.1-5.9,3.5-.22,2.49,3.37,2.55,5.56.23,6.88.32,13.76.41,20.65C1366,423.78,1366,427.68,1365.86,431.57Z"/><path class="cls-2" d="M1366.41,546.18c0,2.34-1.1,3.2-3.24,3.1-1.66-.08-2.92-.74-2.88-2.61q.3-17.92.69-35.82a2.29,2.29,0,0,1,2-2.53c1.89-.09,2.58,1.38,2.6,2.94.08,6,0,11.93,0,17.9h.79C1366.38,534.84,1366.33,540.5,1366.41,546.18Z"/><path class="cls-2" d="M671.94,818.57c-2.67.25-5.36.36-8,.38-7.47.07-14.93.08-22.4.07a30.75,30.75,0,0,1-5.35-.25c-2.14-.39-2.63-2.12-2.53-4.06s1.5-2.47,3-2.49c6-.07,11.94,0,17.92,0v.1h17c1.62,0,2.9.48,3,2.41S674.21,818.36,671.94,818.57Z"/><path class="cls-2" d="M727.49,818.88c-.88.16-1.73.42-2.58.62-9.75-.18-19.48-.26-29.22-.57-5.6-.18-5.81-.82-3.3-6.82,11.35,0,22.7,0,34,.21,2,0,5.21-1.4,5.67,2.32C732.5,817.9,729.92,818.42,727.49,818.88Z"/><path class="cls-2" d="M559.4,489.39c0,1.63-.37,3.05-2.23,3.23-2.16.21-3.36-.89-3.36-3.11q0-17.5.05-35c0-2.16,1-3.43,3.16-3.37s2.12,1.78,2.13,3.25c.06,6,0,12,0,18h.21C559.39,478,559.37,483.71,559.4,489.39Z"/><path class="cls-2" d="M559.33,431.59c0,1.74.22,3.68-2.44,3.82-2.37.14-3.11-1.14-3.11-3.24q0-17.54.05-35.05c0-1.74.79-3,2.5-3.14,2.49-.26,2.85,1.48,2.85,3.45,0,6,0,12,0,18h.17C559.34,420.8,559.36,426.19,559.33,431.59Z"/><path class="cls-2" d="M1365.71,472.29c0,5.71,0,11.42,0,17.13,0,1.51-.14,3.18-2,3.48-2,.33-2.52-1.34-2.53-2.84q-.12-18-.08-36c0-1.47.26-3.2,2.27-3.11s2,1.93,2.06,3.37c.07,6,0,12,0,18Z"/><path class="cls-2" d="M559.45,546.31c0,2.39-1.19,3.1-3.29,3-1.9-.06-2.53-1.12-2.52-2.87,0-6,0-12,0-18h.05c0-5.7,0-11.38,0-17.07,0-1.7.83-2.91,2.62-2.94a2.58,2.58,0,0,1,2.8,2.79C559.26,523,559.31,534.63,559.45,546.31Z"/><path class="cls-2" d="M1357.76,684.44c6.89-3.72,13.53-8,20.48-11.5,17.66-8.91,39.86,0,47.9,18.54.95,2.18,1.61,4.48,2.41,6.72,0,2.4-.15,4.8,0,7.19,1.35,18.31-16.9,38.08-39.72,35.22a35.39,35.39,0,0,1-30.73-41.87c.42-2.35,1.07-4.66,1.6-7C1360.37,689,1360.08,686.43,1357.76,684.44Zm8.93,21.59c.38,4.87-.79,10.53,3,15.7,8.09,11,23.15,15.29,35.22,9.51s19.32-20.9,15.66-33.06c-4.07-13.5-17.88-22.7-31-20.64C1374.38,679.91,1366.67,689.29,1366.69,706Z"/><path class="cls-2" d="M1375.61,819.35c-16.37-.24-17.78-1.9-15.49-18.39a7.38,7.38,0,0,1,.16-1.78,2.91,2.91,0,0,1,2.76-1.88c1.62,0,2.9.59,3.3,2.31a11.93,11.93,0,0,1,.08,1.8c.24,3.24-1.71,7.33.76,9.53,2.94,2.61,7.45,1.16,11.28,1.17a58,58,0,0,0,18.58-3c1.85-.63,4.44-1.35,5.46,1.21s-.75,4.49-3,5.78c-3.23,1.86-6.91,2-10.45,2.46C1384.62,819.09,1380.1,819.1,1375.61,819.35Z"/><path class="cls-2" d="M1494.57,717.44c0-2.32,1.42-3.88,2.85-5.37q10.88-11.27,21.82-22.45c1-1.08,2.26-2.3,3.84-1.65,2.3.94,1.27,3,1,4.66a10.54,10.54,0,0,1-1.51,4.14c-6.11,9-14,16.2-22.42,22.92a3.88,3.88,0,0,1-4.17.78C1494.74,719.9,1494.68,718.62,1494.57,717.44Z"/><path class="cls-2" d="M1519,639.25l1.83-8.52c2.22.08,5-1,5,3,0,11.69.12,23.39.18,35.08,0,1.93-.46,3.73-2.79,3.8s-4-1.21-4-3.77c-.12-6.29-.18-12.58-.22-18.88C1518.91,646.42,1519,642.84,1519,639.25Z"/><path class="cls-2" d="M1525.88,374.88c-.69,2.85,1.61,7.61-3,8.13-5.06.57-3.58-4.55-3.9-7.29-.94-8.15-3.94-15.63-6.53-23.28-1-2.83-3.86-6.8,0-8.63,4.4-2.08,6.1,2.6,7.53,5.72C1523.59,357.52,1524.94,366.11,1525.88,374.88Z"/><path class="cls-2" d="M1416.66,801.52c-2.26-.27-3.08-1.41-3.15-3a5.17,5.17,0,0,1,1.83-4c7.7-7.54,15.36-15.14,23.15-22.59,1.42-1.35,3.4-3,5.38-.72a3.53,3.53,0,0,1-.21,4.92c-7.8,8.28-15.32,16.85-24.25,24A13.58,13.58,0,0,1,1416.66,801.52Z"/><path class="cls-2" d="M1112.19,254.56c-1,1.52.32,2.8.42,4.21.15,2-.38,3.75-2.67,3.77-12.27.13-24.53.14-36.79.16-1.84,0-2.63-1.08-2.63-2.83s.57-3,2.34-3.24a40.08,40.08,0,0,1,5.37-.26c9.28,0,18.55.18,27.82,0,2.09,0,4.87,1.59,6.28-1.56C1112.31,254.81,1112.19,254.56,1112.19,254.56Z"/><path class="cls-2" d="M1456,760c-1.7-2.42-.86-4.68.87-6.46q10.62-11,21.49-21.68c1-.95,2.26-2.31,3.89-1.59,2,.86,3.61,2.11,2.37,4.79C1482.77,739,1461,758.07,1456,760Z"/><path class="cls-2" d="M1366.52,760.44c0,5.68,0,11.36,0,17,0,2.53-1,3.94-3.69,3.92s-2.77-1.78-2.77-3.65q0-16.59.12-33.18c0-2.16.23-4.47,3.11-4.49,3.55,0,3.27,2.72,3.28,5.12,0,5.08,0,10.16,0,15.24Z"/><path class="cls-2" d="M1324.39,812.4c5.68,0,11.37,0,17,0,1.75,0,3.71-.18,3.93,2.43s-1.28,3.82-3.67,4c-2.68.17-5.38.19-8.07.19-8.08,0-16.16,0-24.24-.08-2.63,0-5.74.41-5.56-3.79.16-3.83,3.1-2.87,5.29-2.91,5.09-.09,10.18,0,15.27,0Z"/><path class="cls-2" d="M1519.44,612v0c0-10.15-.1-20.3-.11-30.45,0-1.79.27-3.57.36-5.36s.45-3.47,2.92-3.55,2.92,1.46,2.94,3.39c0,4.78.11,9.56.09,14.34,0,7.77-.11,15.54-.17,23.31l-5.23.19Z"/><path class="cls-2" d="M1525.64,479.68c0,5.39,0,10.77,0,16.16,0,1.84-.12,3.75-2.55,3.93s-2.91-1.61-2.9-3.53c0-11.67.07-23.34.18-35,0-1.71-.11-3.92,2.63-3.6,2.38.29,2.39,2.31,2.4,4.1,0,6,0,12,0,17.94Z"/><path class="cls-2" d="M1525.58,420.65c0,5.36,0,10.71,0,16.07,0,2.07.24,4.42-3,4.27-2.6-.12-2.4-2.13-2.4-3.85q0-17,0-33.93c0-1.74-.14-3.81,2.4-3.9,3.15-.11,2.87,2.32,2.89,4.37,0,5.66,0,11.31,0,17Z"/><path class="cls-2" d="M1525.84,536.51c0,5.38,0,10.76,0,16.14,0,2.46-.91,4-3.68,3.76-2.6-.25-2.31-2.27-2.31-4q0-16.59.11-33.17c0-1.67-.22-3.81,2.37-4,3-.16,3.3,1.92,3.3,4.16q0,8.52,0,17Z"/><path class="cls-2" d="M394,376.21a84.34,84.34,0,0,1,5.18-25.33,21.42,21.42,0,0,1,3-5.43,4.61,4.61,0,0,1,5.59-1.75c2.59,1.18,1.48,3.63.77,5.45-3.95,10-7.1,20.23-8.2,31-.21,2.11-1.16,3.26-3.37,3.23-2.42,0-2.86-1.67-2.93-3.58C394,378.59,394,377.4,394,376.21Z"/><path class="cls-2" d="M396.33,688.19a4.73,4.73,0,0,1,4.32,1.72c7.4,7.88,14.85,15.72,22.24,23.61a12.53,12.53,0,0,1,2,3,2.55,2.55,0,0,1-.64,3.23c-1,.89-2.41,1.34-3.29.57-9.49-8.2-19.86-15.63-25.92-27.07C394.16,691.54,394,689.08,396.33,688.19Z"/><path class="cls-2" d="M394.78,630.35c3-.09,5.2.3,5.18,4.22,0,10.78,0,21.56.45,32.32.18,4.37-2.11,5.75-5.56,6.59-2.12-6.3-.73-12.78-.88-19.17C393.79,646.33,393.67,638.31,394.78,630.35Z"/><path class="cls-2" d="M826.91,262.77H810.82c-2.17,0-3.29-1.07-3.31-3.23s1.41-2.4,3-2.45c11.32-.36,22.63-.67,33.95-1.05,2.57-.08,4,1,3.91,3.57-.11,2.83-2.19,3.13-4.43,3.12-5.66,0-11.32,0-17,0Z"/><path class="cls-2" d="M400.25,478.21c0,6,0,12,0,18,0,1.81-.13,3.79-2.7,3.68a2.66,2.66,0,0,1-2.64-3q0-18.43.17-36.86c0-1.23.47-2.36,2-2.43a2.42,2.42,0,0,1,2.84,2.62c.06,6,0,12,0,18Z"/><path class="cls-2" d="M395,571c3.85.16,5,2.45,4.94,6,0,10.78,0,21.56.19,32.33.08,4-1.56,5.44-5.35,4.79C394.48,599.75,394,585.39,395,571Z"/><path class="cls-2" d="M400.16,420.74v17c0,2-.64,3.45-3.05,3.29-2-.14-2.32-1.52-2.32-3.06q0-17.88,0-35.75c0-1.65.64-2.89,2.51-2.93,2.47,0,2.8,1.67,2.8,3.59,0,6,0,11.92,0,17.88Z"/><path class="cls-2" d="M400.2,535.8v17c0,1.89-.2,3.59-2.69,3.72s-2.89-1.57-2.89-3.48c0-11.35.06-22.7.15-34,0-1.72-.11-3.76,2.49-3.84s2.83,1.75,2.85,3.6c.05,5.68,0,11.35,0,17Z"/><path class="cls-2" d="M1286.17,815.4c-.08,2.33-1.46,3.19-3.39,3.22q-17.43.2-34.84.21c-2.07,0-3.19-1.2-3.28-3.38-.09-2.41,1.38-3.06,3.35-3.07,6.25,0,12.51,0,18.76,0v0c5.07,0,10.13,0,15.19,0C1284,812.41,1286.29,812.11,1286.17,815.4Z"/><path class="cls-2" d="M1229.23,815.31c-.13,2.27-1.57,3.1-3.53,3.14q-17.46.27-34.92.42c-2.21,0-3.09-1.5-3.21-3.48-.14-2.36,1.34-3,3.4-3h17.9v0c5.38,0,10.75,0,16.12,0C1227,812.41,1229.42,812,1229.23,815.31Z"/><path class="cls-2" d="M1360,665.62c0-12.18,0-24.45,0-36.72,0-2.18,0-4.48,2.82-4.7,3.29-.26,3.81,2.1,3.81,4.75,0,10.49-.09,21,0,31.47C1366.67,664.79,1364.7,666.4,1360,665.62Z"/><path class="cls-2" d="M885.27,812.37h17c1.58,0,3,.37,3.13,2.3s-.52,3.51-2.76,3.75a59.19,59.19,0,0,1-6.24.51c-8.36.06-16.73.18-25.08-.07-2.82-.08-7.55,1.65-7.44-3.54.09-4.67,4.46-2.75,7-2.92,4.76-.3,9.55-.08,14.33-.08Z"/><path class="cls-2" d="M559.77,799.39c.05,4.77.09,9.55.16,14.32.05,3.69-1.76,5.47-5.43,5.56-9.87.24-19.73.52-29.48-1.47a12.59,12.59,0,0,1-2.57-.73c-2.67-1.17-6.35-1.94-5.12-6,1.17-3.86,4.34-2,6.78-1.37,7.89,2.06,15.93,2.21,24,2.36,3.87.07,5.47-1.32,5.15-5.24-.19-2.36-.4-5,.36-7.1,1.46-4.11,3.84-4.12,6.15-.41Z"/><path class="cls-2" d="M595.63,819.07c-5.37,0-10.74,0-16.11,0-2.51,0-4.87-.35-4.66-3.83.19-3,2.28-3.08,4.43-3.07,11,.07,22.08.14,33.12.27,1.76,0,3.71,0,3.92,2.54s-1.33,3.93-3.69,4c-5.67.13-11.34,0-17,0Z"/><path class="cls-2" d="M526.4,741c-16.48-.47-29.15-9.68-33.87-24.61-4.78-15.1.24-30.74,12.82-40a35.55,35.55,0,0,1,42.65.29c3.94,3,10.44,3.48,11.75,8.75,1.12,4.53,1.7,9.36,2.43,14.07C565.42,720.24,549.83,741.72,526.4,741ZM553,704.38c1-6.87-.55-14.07-7.45-19.64-6.6-5.33-13.76-8.57-22.36-7.32-15.15,2.21-26.07,15.78-24.66,30.46C500,723,512.13,734,527,733.54,542.74,733.1,552.57,722.58,553,704.38Z"/><path class="cls-2" d="M1054.91,812.2c1.74,5.89,1.5,6.85-3.22,7-11,.25-21.93.19-32.9,0-4.81-.08-4.86-.48-3.51-6.95Z"/><path class="cls-2" d="M1448.48,305.8c-10.74-2.3-21.21-5.71-31.67-9.14-2.52-.83-3.08-2.73-2.48-5s2.63-1.89,4.39-1.54a222,222,0,0,1,31.82,8.86c1.74.62,4.3.88,3.5,4S1451.11,306.4,1448.48,305.8Z"/><path class="cls-2" d="M1336.73,277.28c-10.52-2.12-21-4.22-31.57-6.39-2.26-.46-3.81-1.72-3.42-4.36.53-3.6,3.09-3,5.46-2.53,10.25,2,20.5,3.95,30.71,6.13,2.06.43,5.24.48,4.51,4.09C1341.79,277.41,1339.3,277.3,1336.73,277.28Z"/><path class="cls-2" d="M1265.87,263.84c-6.24-.43-12.49-.88-18.74-1.28-2-.13-3.66-1-3.69-3.06,0-1.6,1.4-2.62,3.07-2.61,11.88.12,23.9-1.6,35.46,2.6,1.54.56,3.88,1,3.43,3.34-.42,2.2-2.62,2.17-4.36,2.07-5.06-.28-10.11-.74-15.16-1.13Z"/><path class="cls-2" d="M472,306c-3.59.21-5.35-.05-6-2.16-.9-2.73,1.07-4,3-4.65,8.52-2.73,17.11-5.25,25.68-7.81a60.69,60.69,0,0,1,6.09-1.48c1.72-.31,3.58-.82,4.44,1.6s0,4.16-2.29,4.94c-6.51,2.18-13.05,4.25-19.61,6.29C479,304.09,474.69,305.26,472,306Z"/><path class="cls-2" d="M582.94,277c-2.35,0-4.81.74-5.63-1.9-1-3.14,1.42-4.36,3.81-4.9C591.61,267.86,602,265,612.76,264c2-.19,4.43-.79,5.25,1.85,1,3.14-1.31,4.28-3.81,4.83C603.7,273,593.3,275.78,582.94,277Z"/><path class="cls-2" d="M652.8,264.05c-4.8.21-9.61.5-14.41.59-1.4,0-3.17,0-3.43-2a2.8,2.8,0,0,1,2.41-3.23A84.86,84.86,0,0,1,647,257.2a133.6,133.6,0,0,1,23.41-.46c2.1.1,4.41.21,4.25,3.26-.13,2.44-2.09,2.66-3.88,2.79-6,.44-12,.79-18,1.18Z"/></g><g id="Capa_3" data-name="Capa 3"><path d="M798.38,430.63v111H778.56V470.92l-19.51,14.91-16.18,12.53-16.18-12.53-19.51-14.91v70.74H687.35v-111l19.83,15.22,35.69,27.44,35.69-27.44Z"/><path d="M852.31,467.58v75.51H832.48V465.52A15.8,15.8,0,0,0,819,452h-4.45V432.37h4.29v.16a35.55,35.55,0,0,1,13.48,3.65,35.17,35.17,0,0,1,16,16.18,42.55,42.55,0,0,1,2.7,7.45,33.53,33.53,0,0,1,1,8.09Z"/><path d="M978.72,464.25a32.63,32.63,0,0,1-9.2,22.84A32.76,32.76,0,0,1,946,542.61H867.85V522.78H946a13.07,13.07,0,0,0,13-13,12.92,12.92,0,0,0-12.21-13h-59V476.94h59a13,13,0,0,0-.64-26H868V431.1H946.2a32.63,32.63,0,0,1,32.68,32.68Z"/><path d="M1105.29,522.15V542H994.57V509.3a31.7,31.7,0,0,1,2.7-12.85,32.56,32.56,0,0,1,28.87-20h48.06a13,13,0,0,0-1.11-25.86h-78.2V430.79h78.2a32.62,32.62,0,0,1,32.67,32.67,32.33,32.33,0,0,1-9.35,22.68,33,33,0,0,1-22.37,10h-47.9A12.9,12.9,0,0,0,1014.56,509v12.85Z"/><path d="M1230.11,450.61a34.31,34.31,0,0,1,2.54,12.85V509a32.68,32.68,0,0,1-10.47,24.11,33.8,33.8,0,0,1-7.3,5.24A31.39,31.39,0,0,1,1200,542h-69V522.15h69a13.07,13.07,0,0,0,13-13V493.6a32.67,32.67,0,0,1-12.37,2.54h-46.79a32.76,32.76,0,0,1,.47-65.51h45.52a32.58,32.58,0,0,1,30.14,20Zm-88.67,12.85a13.07,13.07,0,0,0,12.38,13h46.79a13,13,0,0,0-.64-26h-45.52A13.07,13.07,0,0,0,1141.44,463.46Z"/></g></g></svg>