<svg xmlns="http://www.w3.org/2000/svg" viewBox="0 0 1920 1080"><defs><style>.cls-1{fill:#f2f2f2;}.cls-2{fill:#020202;}</style></defs><g id="Capa_2" data-name="Capa 2"><g id="Capa_1-2" data-name="Capa 1"><path class="cls-1" d="M1568.47,652.17c1.54,28.26-18.94,43-44.94,32.41-3.81-1.55-1.8-6.34-3-6.86-26,14.81-45,36.32-67.65,53.44-2.72,2.68-5.08,5.91-8.2,7.94-15,9.74-19.92,24-19,41a42.09,42.09,0,0,1,.59,4.29c.89,33.79.89,33.79-30.38,44.41,10.69,7.15,19.57-1.13,29.31-1.9a15,15,0,0,1,1.07,3.63c.54,23.25.53,23.25-23.29,23.25-16.42,0-32.87-.48-49.27.11-8.12.29-10.53-2-10.72-10.32-.72-32.33-3.1-35-33-45.86-12.6-4.56-25.09-9.48-37.62-14.23-47.63-13.8-94.78-29.24-144.12-36.54-43.5-6.42-87.07-11.57-131-12.88-10.26-.29-18.34-.35-15.52-14,.54-2.6-1.08-4.55-3.33-5.87-3.71,4.18-2,9.2-2,13.88,0,6.17-4.51,4.85-8.06,5.56-5.12,1-5.51-2-5.46-5.78.1-6.92,0-13.85,0-20.79l-3.53-.1c0,4.92.65,10-.2,14.74-.74,4.19,4.32,11.43-5.23,11.94-8.86.47-6.69-5.88-7.09-10.88-.21-2.56,1.16-6.07-3.27-7.06-4,1.32-2.42,4.92-2.07,7.16,1.43,9.34-2.69,11.15-11.3,11.08-15.91-.13-31.82,1.18-47.74,1.9a990.78,990.78,0,0,0-232.63,47.65c-14.32,5.48-28.59,11.08-43,16.39-23.21,8.57-28.44,14.58-27.5,39.32.47,12.62-3.45,15.51-15.2,14.87a474.29,474.29,0,0,0-53.59,0c-11.89.71-17-2.41-14.75-14.8.68-3.73.1-7.67.1-12.19,10.08-.21,19.47,9.25,30.32,1.78-30.66-10.63-30.67-10.63-30.34-44.43,0-2.4.32-4.8.48-7.2,1.66-17.76-7.12-29.9-20.78-39.79-4.55-3.29-8.13-7.91-12.16-11.93-20.9-14.62-37.2-34.84-60.57-46.05-9.14,11.62-23.59,3.66-36.64,4-10.55-3.12-13-11.6-13-20.93-.07-77-.22-154.07.29-231.09.16-24.79,16.95-44.87,40-53.53,7.71-2.88,7.5,2.38,10.84,6.94,2.16-8.07,5.12-13.62,13.21-16.68,95-36.07,190.4-70.43,291.29-86.75,52.14-8.43,104.5-14.86,157.21-17.67,18.2-1,32.49-16.09,53.77-8.87-4.87-9.14-10.4-6.88-14.38-6.53-9.2.82-12.24-1.88-12.35-11.7-.09-10.27,3.91-12.23,12.62-11.3,18.13,1.92,36.8,2,54.54,1.74,18.85-.23,38.3.35,57.32-1.79,9.19-1,11.58,2.38,11.21,11.15-.33,7.6-.2,13.3-10.54,11.9-4.34-.6-9.5-1.88-14.11,2.06.82,1.11,1.38,2.76,2.29,3,56.6,13.49,114.81,14.91,172.19,22.64,96.51,13,188.81,41,279.62,74.8,14.92,5.56,29.85,11.11,44.63,17,7,2.81,16.15,4.19,11,20.74,7.08-7.87,7.63-13.93,15.92-10.31,23.43,10.24,38.54,29,38.85,54.42.38,32.43-.19,64.88-.36,97.31q.08,36.43.16,72.85Q1568.48,627.52,1568.47,652.17Z"/><path class="cls-2" d="M1756,659.46c-.44-22.82,2-22-20.93-21.08-9.68.37-12.76-3-12.2-12.39.7-11.54.16-23.17.16-34.77,0-29.17,0-29.17,28.83-30.46.47-20.66-1.59-27.47-1.59-27.47-12.66-17.18-27.54-19-43.38-18.07-4.83.28-9.69.07-14.54.07-30.35,0-30.68,0-30.28-31,.33-25.39-1.13-50.09-13-73.47-16.72-32.94-46-49.4-77.84-64-149.27-68.51-306.5-106.7-469.14-124.69-9.74-1.07-18.34-2.3-25.64-10.81s-24.11-10.59-26.51-2.33c-5.74,19.77-15.34,12.94-28,11-19-2.87-38.56,1.31-57.76-2h-6.08c-19.57,3.41-39.3.51-58.91,1.6-3.93.22-9.26-2.3-11.21,3.49-1.42,4.2-4.06,5.2-7.66,4.05s-2.82-4.55-2.84-7.33c-.07-11.29-6.37-15.13-16.82-14.55-14.74-1-16.2,4.51-16.2,4.51-3.39,11.13-12.75,11-21.54,12.08-81.62,10.49-163.13,21.71-242.71,43.51-86.87,23.79-171.89,52.66-252.62,93-43.85,21.91-66,58.09-67.27,107-.27,10.66-.21,21.32,0,32,.24,12.91-6,18.56-18.72,18.1-9.2-.33-18.43.23-27.62-.18-15.43-.71-29.72,1.39-42,18.38-2.5,3.22-3.59,14.51-3.59,14.51-.3,10.12,3.27,14.39,13.46,13.11,2.8-.35,5.74.42,8.62.69,7.91-2.32,8.74,2.35,8.72,8.46-.08,19.57-.22,39.16.18,58.73.18,9.37-4.69,10.15-11.85,8.56-6.68,3.26-17.56-4.89-20.91,6.79-7.9,27.49,2.41,52.84,26.92,67.87,29.32,3.43,58.76.89,88.13,1.69,5.29.14,10.56.46,15.85.7,24.13-1.82,29.72,3.13,29.76,26.45,0,4.83.24,9.67,0,14.47-.81,14.15,4.71,25,15.8,33.79,9.8,7.72,18.92,16.3,28.34,24.49a369,369,0,0,1,43.19,36c9.22,5.75,17.61,12.4,25.29,22.45l6.95,3.18c8.22,0,17,1.88,24.55-.29,12-3.45,3.88-15,6.56-22.55a16.55,16.55,0,0,1,.84-2.75c1.73-3,4-5.74,7.87-5.28,4.17.49,3.32,4.31,3.17,6.76-.5,8.1,4.53,8,10.3,8,22.29-.12,44.61-.71,66.85.36,8.12.38,20.25-7.67,24.24,7.84.31,1.21,5.31,1.62,8.14,1.69,18.1.46,37.76,4.16,44.79-20.15.21-.75,1.44-1.21,2.2-1.8,17.11-23.87,41.26-34.24,69.72-34.49,54.66-.49,109.34-.25,164,0,8.66,0,16.37-.89,22-8.17,3.61-4.64,8.45-5.83,14.13-5.71,19.78.44,39.56.62,59.35.89,13.68-.87,29.85-6.13,40.26,2.21,11.42,9.15,22.56,10.84,35.39,11.27,53.68-.16,107.38-1.28,161-.09,26,.59,48.48,11.84,63.85,34.25,1.89,2.16,4.65,4,5.51,6.54,4.81,14.1,15.17,17.13,28.48,15.52,5.27-.65,10.66-.12,16-.46,3.32-.21,7.45-.44,7.66-4.92.32-6.89,4.12-5.09,8.73-5,27.11.4,54.24.23,81.36.19,3.72,0,7.71.85,8.66-5,.55-3.41-2.77-10.31,4.73-9.42,6.38.75,7.28,6.53,7.6,12.25,1.13,19.69,1.23,19.54,20.69,18.76a29,29,0,0,0,18.37-7.3c7.73-6.53,15.93-12.47,23.93-18.67,20.74-17.63,41.58-35.15,62.19-52.94,7.57-6.53,14.57-13.71,21.83-20.59,6-15.78,1.73-32.37,3.84-48.46,2.42-10,9.61-13.84,19-13.86,15.87,0,31.72.38,47.58.6,15.45-.22,30.88-.62,46.32-.61,11.9,0,23-1.88,32.52-9.78C1755.37,692.36,1756.34,676.31,1756,659.46ZM1039.38,238.88c11.86.64,15.57-5.72,17.21-16.64s10-6.24,13.12-1.75c7.84,11.43,19.34,11.54,30.83,12.82,169,18.82,332.14,59.1,485.89,133.59,21.9,10.6,35.5,22.25,48.26,42.4-11.89-1.5-13.61-3.25-20.17-13.51-4.5-7-11.76-11.4-19.29-15-1.25-.58-3-1.3-4.09-.9-12.26,4.43-12.24,4.49-22.08.55,8.66-9.65,4.33-13.85-22-20.6.32,8.48,10.31,5.91,13.67,13.77-15.9-2.17-27.89-8.76-41.17-15.26,5.22-5.2,10.05.2,14.9-4.87-10.34-4.06-19.59-7.72-29.43-11.59-1,9.38,9.11,5.82,10.17,13.66-16.45-1.92-29.38-12.13-45.39-15.16,6.88-7.6,14,2.46,22.18-3-9.77-4.05-17.89-7.46-26.08-10.73-1.25-.51-3.65-1-4-.44-10,13.68-19,.54-28.41-.79l-8.38-2.95q-21.72-7.39-43.43-14.82c-3.46-1.83-8.2-.11-11-3.91l-39.62-10.37c9.35-5.52,17.12,3.07,26.08-.66-10.62-3-19.38-13.11-32.74-4.87-7.47,4.59-15.44-.25-25.91-4.69l14.85-1c-.79-1.73-1.11-3.75-1.92-4-6-1.65-12.13-3-18.25-4.34-4.44-1-4.45-.86-7.14,4.65-1.46,3-4.25,1.67-6.19,1.37-7.12-1.08-14.16-2.66-21.1-4-.65-6.9,7.87-.17,7.42-6.92-6.76-4.4-19.46-8-23.22-5.23-16.73,12.39-32.23,1.56-47.92.47-17.79-1.23-37.12-1-52.78-8.11-29.92-13.53-60.78-1.95-90.48-8.46-4.25-.93-8.65-1.07-13-1.69-1.89-.28-4-.81-4.19-3.15C1034.34,239.41,1037,238.75,1039.38,238.88Zm473,124c-.65.49-1.26,1.31-1.75,1.26-.73-.1-1.39-.83-2.08-1.27.35-.33.76-1,1-.93A18,18,0,0,1,1512.4,362.87Zm-6.79-2.57c-6.06,1.56-8.63-1.31-11.84-3.42C1498.15,355.33,1501,358.14,1505.61,360.3Zm-15.7-6.43c-.47.58-1,1.67-1.41,1.66-1.8,0-3.68-.28-3.75-2.65l-.26-.05a1.22,1.22,0,0,0-.17-.15c-5.5,1.57-9.47-2.31-16.52-4.67,8.3-1.5,12.53,1.25,16.52,4.67l.42-.13c0,.11,0,.23,0,.33C1486.47,353.22,1488.18,353.53,1489.91,353.87Zm-22.44-8c-5.41,2-8.41-1-12.39-3.63C1460.69,339.81,1463.56,343.28,1467.47,345.9Zm-15.3-5.93c-.7.4-1.53,1.27-2.05,1.1a11.13,11.13,0,0,1-2.79-1.86l2.31-1.44Zm-5.9-1.57c-11.24-1.32-18.86-4.21-26-8.52-2.09-.09-5.83-.28-5-2.25,1.26-3.06,4.44-.79,6.75.26C1429.42,330.38,1437.34,331.77,1446.27,338.4Zm-35.93-11.75a29,29,0,0,1-3-.76c-1.43-.48-1.53-1.47-.11-1.87a7,7,0,0,1,3.65.27C1412.25,324.69,1412.24,325.53,1410.34,326.65Zm-8.88-3.1a18.42,18.42,0,0,1-3-.58c-1.41-.47-1.47-1.48-.08-1.87a7.15,7.15,0,0,1,3.66.19C1403.49,321.67,1403.48,322.48,1401.46,323.55Zm-7.07-4.3c-.69.56-1.49,1.66-2.05,1.54a15.74,15.74,0,0,1-3.64-1.74l2.25-1.85Zm-8-2.44c-6.64,2-10.93-.24-15.63-4.19C1377,311.22,1381.21,313.81,1386.4,316.81Zm-19-6c-10,.18-19.11-2.65-27.71-7.53l-.61.1-.18-.22c-5.8.89-10.71-2-15.61-4.74,5.6,0,11.26-.16,15.61,4.74a3.35,3.35,0,0,0,.44-.07l.35.19C1350,301.85,1358.32,307.79,1367.44,310.8ZM1318,296.19c-2.21,1.76-5.64,1.72-6.18,0-.66-2.1,2.39-1.28,3.9-1.21C1316.46,295,1317.18,295.73,1318,296.19Zm-11.74-3c-2.14,1.44-5.44,1.95-6.1,0-.78-2.34,2.23-1.25,3.63-1.18C1304.6,292,1305.4,292.75,1306.25,293.2ZM1294.17,290c-1,.41-2,1.17-3,1.13s-2.08-.85-3.11-1.32l2.56-1Zm-9.25-2.9c-10.14,2.74-15.79-2.37-25.39-2.23C1269.57,281.63,1275.5,286.1,1284.92,287.09ZM1225.47,277,1193,272.55a6.59,6.59,0,0,0-.75.25,3.4,3.4,0,0,1-.12-.38c-44.27-7.45-88.87-11-135.42-14.35,3.92-3.81,7.39-4.37,10.71-4q61.81,7.48,123.59,15.37c.49.06.77,1.78,1.12,2.95l.47.07c.13,0,.27,0,.4.06C1204.29,268.9,1214.76,274.41,1225.47,277ZM331.3,369.18C449.55,312,573.38,272.21,703,250.81c42-6.94,84.25-12.26,126.41-18.24,8.77-1.25,17.15-2.74,22.21-11.49,2-3.42,5.69-5.14,10-4.61,6,.72,4.11,5.46,4.53,9,1,8.37,5.15,13.3,14.09,13.37,2.74,0,6.74-.83,7.21,2.87.66,5.22-4.32,4.38-7.26,4.59-23.34,1.76-46.77,6.37-70.12,1.89-14.47-2.77-23.2,10.85-37.33,10.15-15.18-.76-30.31,5.22-45.94,4.27-1.43-4.83,6.66-1.95,5-6.47-1.19-3.14-4.56-2.54-6-1.45-7.52,5.54-23.12-4.35-24.84,13.11-.15,1.54-8.83,4.32-12.77,1.87-13.63-8.47-20.64-6.87-33.1,6.27-5.48,5.78-14,4.5-21.67,3.87-.09-5.08,6.87-.83,6.49-6.8-10.82-.59-20.7,2.89-30.54,5.88.31,7.07,7.24,1,8.47,7.24L551.5,303.77c-2.28,3.52-5.87,2.36-9.08,2.56-18.22,7.28-36.21,15.25-55.94,17.77l.4-.34c-11.17,9.08-13.83,9.42-25.16,3-3-1.7-5.63-.17-8.25.88-7.27,3-14.49,6.09-22.41,9.43,6.25,6.39,11.85-3,16.82,1.6-9.17,7.08-28,14.67-40.35,16.18-.45-7.23,9.67-3.82,10.07-12.28-10.72,1.77-19.46,6.94-29.28,10.76,4.16,5.77,9.16-.71,12.56,3.4-1.73,7.1-8.82,6.49-13.63,8.73-13.38,6.25-26.92,12.22-40.74,17.4-4.32,1.62-8.28,3.29-14.91-.87-8.5-5.32-19.32,5.31-22.2,12.39-4.43,10.86-13,12.14-21.23,16C297.67,391.57,312.58,378.23,331.3,369.18ZM859.82,256.4c-39.27,4.68-78.61,8.57-117.91,12.91A653.59,653.59,0,0,1,859.82,256.4ZM729.69,271.94l-38.8,6.49C703.18,273,716.34,272,729.69,271.94Zm-66.43,11.32c-4.12,2.83-7.82,2.39-11.89,2C654.89,281.78,658.76,283.43,663.26,283.26Zm-17.13,3.2c-3.58,3-7.08,2.14-10.44,1.93-.11.1-.2.2-.3.31l-.43.06c-1.35,4.17-4.27,2.46-8.65,1.07l8.65-1.07c0-.13.09-.27.13-.41l.6,0C638.45,285.63,641.92,286.1,646.13,286.46Zm-23.2,6.87a23,23,0,0,1-4.2.85c-.77,0-3.06.44-1.71-1.56.54-.8,2.52-.77,3.86-.8C621.46,291.81,622,292.64,622.93,293.33Zm-16.26,3.88c-.67.16-1.57-.66-2.45-1.07,2-1.48,5.17-2.52,6-.6C611.27,297.89,608,296.88,606.67,297.21Zm-7.8.86c-4.64,3.53-9.69,5.72-15.57,5.06a2.54,2.54,0,0,0-.2.24l-.56-.09c-8.25,5.57-17.93,6.4-27.43,7.78,8.87-3.45,17.12-9.15,27.43-7.78a2.61,2.61,0,0,0,.3-.2,3.8,3.8,0,0,0,.46.05C587.48,298.23,593.38,298.8,598.87,298.07Zm-46.5,14.13c-5.57,4.47-10.09,5.88-17.85,5.28C541,313.66,545.34,311.62,552.37,312.2Zm-18.85,6.85-3.4,2.06-2.26-1.86a16.57,16.57,0,0,1,3.66-1.75C532.05,317.39,532.84,318.5,533.52,319.05Zm-9,2.68-2.55,2.3-2.49-1.57a11.64,11.64,0,0,1,2.91-1.94C522.89,320.36,523.76,321.3,524.48,321.73Zm-11.19,4.9a2.43,2.43,0,0,1-2.22-.72c-.95-1.85.93-1.85,1.88-2.45.81.28,2,.33,2.31.86C516.19,326.19,514.3,326.34,513.29,326.63ZM502,329.87c-7.17,4.38-14.82,7.19-26.16,8.58,9-6.68,16.95-8.12,24.44-10.53,2.31-1.09,5.48-3.39,6.76-.29C507.83,329.61,504.07,329.81,502,329.87Zm-26.69,9.64c-1.12.65-2.26,1.29-3.33,1.9l-2.21-1.76A16.47,16.47,0,0,1,473.3,338C473.84,337.94,474.62,339,475.27,339.51Zm-5.55.2c-6.35,5.77-9.92,7.14-15.08,7.2C457.94,342.2,461.7,341.59,469.72,339.71Zm-35.65,15.76c-.57,0-1.13-.94-1.69-1.46l5-1.24a2.39,2.39,0,0,0-.05-.36c.16,0,.31.09.45.11,3.43-4.06,8.24-4.75,15.89-6.19-6.35,4.77-10.35,7.74-15.89,6.19a1.35,1.35,0,0,0-.16.19l-.24.06C437.65,355.14,435.85,355.45,434.07,355.47Zm-5.45,1.59-1,.85c-.32-.15-.64-.3-1-.47l1-1.3Zm-10.52,5.13c-.14-.14-.27-.27-.41-.39h0c-1.92,2-4.13,3-7.85,1.39,3-1.36,5-3.95,7.88-1.4l.1-.05c-2-3,1.19-2.67,2.78-3.18.38-.12,1.06.74,1.6,1.15l-4.38,2A5.14,5.14,0,0,0,418.1,362.19Zm-67.89,414.4c-4.42,2.49-6-2.18-7.45-4.56-7.45-12-3.48-25.51-4.05-38.37-.87-19.49-11.24-30.41-30.63-31.28-4.33-.19-8.66-.47-13-.72-29.25.18-58.49.52-87.73.43-7.71,0-15.23-1.87-19.95-9.12-13.15-10.51-8.86-25.26-9.35-38.81-.14-3.84,2.7-4.48,5.91-4.38,5.29.15,10.6.2,15.9.3,9-5.21,11.58-13.11,11.08-23.24-.69-14,.73-28.12-.48-42-1-11.77,4-14,13.95-13.1,4.62.44,9.67,1.52,14.19-1.81-1.34-4.83-5.16-3.07-8-3.11-9.81-.1-19.67,1.78-24-11.55-2.14-6.54-10.44-5.53-16.77-5.57-3.19,0-7.36,1.76-9.28-1.93-2-3.89,1-7.41,3.05-10.44,5-7.34,12.24-10.51,21.09-10.52,16.43,0,32.87-.21,49.3-.33,13-6.3,18.13-16.54,18.08-31s-3-29.18,1.93-43.46l-.38.11c-.78-8.9,2-17,5.67-24.89.79-2.09.74-4.95,4.18-4.66l.11-.13a2.27,2.27,0,0,0-.35-.26l.47.12,1.16-1.38c.09.59.2,1.16.29,1.74l-1.45-.36-.12.14c3.62,2.72-.86,4.85-.92,7.31.19,2.68-3.63,5.69-.28,7.85,2.92,1.88,4.1-1.38,4.77-3.51,6.1-19.77,22.62-27.68,39.67-35,14-6,26.89-14.62,42.84-18.19.28,5.43-3.61,7.16-5.8,9.68-10.93,12.55-16.47,26.95-16.45,43.67q.13,113.85-.05,227.72c0,13.45,5,23.1,17.45,28.54,9.65,0,19.29,0,28.93,0,4.23,0,7.47.39,7.58,6,.09,4.84-1,7.09-6.38,6.73a12.54,12.54,0,0,0-11.3,5.53c-7.31,11.37-13.29,7.22-19.35-.93-4.87-.88-6.95-6.94-13.55-6.73,2,8.66,9.89,11.35,15.26,15.87,4.83,4.09,5.4,7.14,1.2,11.74s-7.88,9.81-12,14.52c-6.58,7.48-10.6,15.31-4,24.78C353.51,771.33,353.87,774.53,350.21,776.59Zm32.56,30.2c-2.66-2.22-13-4.39-2-10.38,2.28-1.25-.8-4.06-2.49-5.54-4.37-3.82-9-7.34-13.26-11.29-12.82-11.9-13.57-22.57-2.74-35.72,6.76-8.22,14-16.13,20.15-24.76,7.92-11.07,15.44-12.67,26-2.86,13.81,12.82,28.67,24.52,43,36.74,14.86,12.66,14.6,17.17-1.89,30-4.49,12-14.51,19.77-22.33,29.17-6.14,7.38-13.23-.09-18.4-2.09C400,806.64,390.38,813.13,382.77,806.79Zm93.75,29c-7.14,1-10,9.49-10.48,17.41-.63,11.17-7.43,15.73-16.06,9.4-15.57-11.43-30-24.5-44.79-36.93-1.4-1.18-3.25-2.83-1.39-4.7,1.61-1.61,4.78-4.09,5.79-3.54,17.91,10,25.89-3.6,33.75-14.83,7.73-11.06,14-14.43,23.34-1.82,3.7,5,9.89,8.13,14.95,12.11.82-1.2,1.65-2.41,2.49-3.61-7.89-8.15-16.34-15.61-27-20.82,0-4.17,3.75-6.17,5.9-9.09,7.25-9.88,6.42-18.84-2.93-26.81-14.37-12.23-28.85-24.34-43.25-36.54-2.93-2.5-6.45-4.75-8.4-7.9-2.86-4.63-3.82-11.34-.48-15,4.17-4.51,8.71,1,12,3.81,20.59,17.64,40.86,35.66,61.38,53.38,6.37,5.49,9,12.12,8.82,20.43-.31,13.55-.09,27.13-.26,40.68C489.78,821.77,493.54,833.42,476.52,835.75Zm826.6-14.39c7.56,10.09,18.47,8.33,26.79,11.79-2.19,3.67-4.22,7.46-6.62,11-2.92,4.37,3.9,13.9-7.59,13.77-10-.11-18.72,1-25.12-11-11.78-22.07-33.28-33.54-55.53-43.2l.43.34c-20.54-3.67-41.4-2.29-62.08-3.74l-2.86,0c-39.77,1.35-79.52,1.25-119.28.07-10.29,1.76-19.46,1.25-27-8-6.21-7.6-15.91-4.81-24.33-5.27-7.14-.39-14.29-.6-21.44-.9-20.7.31-41.4.85-62.1.8-8.68,0-16.51,1.38-21.91,8.59-4.52,6.06-10.64,5.48-16.9,5.47-42,0-84,.07-126,0-21.69,0-43.39-.56-64.92,3l.43-.36c-24.57,10.71-46.45,24.57-59.75,49.11-5.25,9.72-14.82,4-22.35,4.74-8.29.82-4.67-6.69-5.41-10.64-1-5.56-4.69-9.36-7.88-14,9.24-2.19,18.69-3.19,29.34-10.41-14.19-3.2-23.79,7.14-34.78,2.8.8-8,5.73-13.49,12.65-16.08,32-12,64-24.11,97.24-32.43l6-2.13,5.16-1.73c57.86-17.62,117.2-26.53,177.44-30.08,15-1.08,29.91-2,44.85-3.31,7.1-.62,13.2-.37,14.2,10.18,2.84-6.52,4.38-12.28,12-10.68,4.33.9,3,3.92,3.46,6.56,1.2,7.39-1,12.1-13.77,11.63,9.63,4.77,16.33,7.41,15.46,16.76,1-7.6,2.68-13.5,12.33-14-9-3.08-11.91-8.52-10.72-16.71.76-5.26,4-4,7.29-4.11,6.73-.27,6.81,3.66,5.82,8.48,17-15.05,36.66-6.7,55-5.58,62.35,3.81,124,12.31,184,30.8l5.2,1.75,6,2.12c51.4,9.62,104.21,33,109.66,48.67C1324.82,829.21,1315.53,820.22,1303.12,821.36Zm122.56-41.27a42.09,42.09,0,0,1,.59,4.29c.89,33.79.89,33.79-30.38,44.41,10.69,7.15,19.57-1.13,29.31-1.9a15,15,0,0,1,1.07,3.63c.54,23.25.53,23.25-23.29,23.25-16.42,0-32.87-.48-49.27.11-8.12.29-10.53-2-10.72-10.32-.72-32.33-3.1-35-33-45.86-12.6-4.56-25.09-9.48-37.62-14.23-47.63-13.8-94.78-29.24-144.12-36.54-43.5-6.42-87.07-11.57-131-12.88-10.26-.29-18.34-.35-15.52-14,.54-2.6-1.08-4.55-3.33-5.87-3.71,4.18-2,9.2-2,13.88,0,6.17-4.51,4.85-8.06,5.56-5.12,1-5.51-2-5.46-5.78.1-6.92,0-13.85,0-20.79l-3.53-.1c0,4.92.65,10-.2,14.74-.74,4.19,4.32,11.43-5.23,11.94-8.86.47-6.69-5.88-7.09-10.88-.21-2.56,1.16-6.07-3.27-7.06-4,1.32-2.42,4.92-2.07,7.16,1.43,9.34-2.69,11.15-11.3,11.08-15.91-.13-31.82,1.18-47.74,1.9a990.78,990.78,0,0,0-232.63,47.65c-14.32,5.48-28.59,11.08-43,16.39-23.21,8.57-28.44,14.58-27.5,39.32.47,12.62-3.45,15.51-15.2,14.87a474.29,474.29,0,0,0-53.59,0c-11.89.71-17-2.41-14.75-14.8.68-3.73.1-7.67.1-12.19,10.08-.21,19.47,9.25,30.32,1.78-30.66-10.63-30.67-10.63-30.34-44.43,0-2.4.32-4.8.48-7.2,1.66-17.76-7.12-29.9-20.78-39.79-4.55-3.29-8.13-7.91-12.16-11.93-20.9-14.62-37.2-34.84-60.57-46.05-9.14,11.62-23.59,3.66-36.64,4-10.55-3.12-13-11.6-13-20.93-.07-77-.22-154.07.29-231.09.16-24.79,16.95-44.87,40-53.53,7.71-2.88,7.5,2.38,10.84,6.94,2.16-8.07,5.12-13.62,13.21-16.68,95-36.07,190.4-70.43,291.29-86.75,52.14-8.43,104.5-14.86,157.21-17.67,18.2-1,32.49-16.09,53.77-8.87-4.87-9.14-10.4-6.88-14.38-6.53-9.2.82-12.24-1.88-12.35-11.7-.09-10.27,3.91-12.23,12.62-11.3,18.13,1.92,36.8,2,54.54,1.74,18.85-.23,38.3.35,57.32-1.79,9.19-1,11.58,2.38,11.21,11.15-.33,7.6-.2,13.3-10.54,11.9-4.34-.6-9.5-1.88-14.11,2.06.82,1.11,1.38,2.76,2.29,3,56.6,13.49,114.81,14.91,172.19,22.64,96.51,13,188.81,41,279.62,74.8,14.92,5.56,29.85,11.11,44.63,17,7,2.81,16.15,4.19,11,20.74,7.08-7.87,7.63-13.93,15.92-10.31,23.43,10.24,38.54,29,38.85,54.42.38,32.43-.19,64.88-.36,97.31q.08,36.43.16,72.85,0,24.66,0,49.31c1.54,28.26-18.94,43-44.94,32.41-3.81-1.55-1.8-6.34-3-6.86-26,14.81-45,36.32-67.65,53.44-2.72,2.68-5.08,5.91-8.2,7.94C1429.63,748.84,1424.73,763.07,1425.68,780.09ZM1514,828.2c-12.8,11.06-25.55,22.23-38.9,32.62-10.35,8.06-17.76,4.4-18.93-8.56-.94-10.44-6.51-17.6-16.62-19.17-6.73-1-7.3-4-7.26-9.42.15-17.91.15-35.81-.2-53.71-.19-9.09,3.84-15.5,10.45-21.17,19.09-16.38,37.89-33.1,57-49.42,4.25-3.61,9.66-11.93,14.93-5,3.94,5.16,1.39,13.37-5.56,18.83-13.29,10.44-25.87,21.8-38.71,32.84-20.49,17.63-20.75,19.91-4.41,42-11.13,5.89-20.43,12.59-26.68,22.92,9.37-2.8,16.87-8.82,22.7-15.81,5.32-6.38,7.41-4.44,11.13.61,4,5.42,8.68,10.38,12.91,15.67,5.87,7.32,12.33,12.68,22.23,7.15,4.11-2.3,7.64-1.67,10.07,2.08C1521.08,825.12,1516.11,826.37,1514,828.2Zm40.5-48c-3.32,3.35-6.45,6.91-10,10-8.07,7-1.56,7.32,5.48,8.43l-16.55,12.9c-5.74-13.08-14-1.43-18.32.06-26.8,9.23-30.44-15.39-42.76-27.19-16.78-18-16.75-18.57,2.22-34.49,10.37-8.69,20.63-17.53,31.26-25.9,1.84-1.45,3.71-6.92,7.63-2.27,4.5-13.31,13.85-16.34,22.48-6.72,8.32,9.26,15.9,19.21,23.83,28.84C1572,758.78,1570.8,767.37,1554.48,780.21ZM1704,702.36c-14-.07-28-.41-41.92-.63-14.34.24-28.7,1.11-43,.52-14.81-.6-26,4.48-33.71,17.12l-1.23,2.83c-.3,1.89-.6,3.78-.9,5.69.08,11,.24,22,.22,33,0,5.55-2.64,10.12-6.26,14.09-1.14,1.25-2.52,3.45-4.61,1.92-1.44-1-3.52-3.74-3.17-4.25,14.17-20.76-6.33-30.6-13.84-44.47-5.72-3.85-4.56-6.93.31-11,5.42-4.54,12.34-7.68,16.48-16-9.3.86-13.66,7.51-19.25,11.72-4.4,3.3-7.56,5.53-11.48-.68-3.44-5.45-8.51-9.35-15.56-9.06-4.91.21-5.21-2.6-5.12-6.49.1-4.18,1.56-6.29,5.91-6.16,3.38.1,6.78,0,10.17,0,29.1-.09,36.23-6.66,38.39-35.39q0-27.55,0-55.12,0-35,0-69.94c-.21-31.92-.47-63.85-.61-95.76-.11-21.07-8.19-38.16-25.39-51.45,3.07-1.55,6.17-2.17,9.09-.79,20.51,9.67,41.17,19.06,61.3,29.48,8,4.14,10.17,13.75,14.57,21.16,1.23,2.09,1.33,6.9,5.36,4.82,3.57-1.84-.43-5.09-.17-7.76-.74-1.86-1.47-3.72-2.21-5.59-1.15-1.17-1.3-2.38-.07-3.61l1.53,2c3.38-.19,3.38,2.62,4.16,4.73,3.64,9,7.75,17.8,5.39,27.91l-.39-.31c5.45,11.86,2,24.34,2.23,36.51.49,27.66,7.9,35.47,35.17,35.53,5.79,0,11.57.43,17.36.66,11.86-1.2,23.94-3.06,33.41,6.84,3.26,3.41,6.93,8,5.45,12.5-1.65,5-7.45,2.29-11.45,2.8-3.28.42-6.63.45-9.94.65-6.94,16.55-21.21,18.63-38.83,16.15,6.06,7.6,11.8,5.84,16.38,5.19,12.11-1.74,14.6,3.68,13.94,14.49-.83,14-.25,28-.18,42,.08,16.64,4.7,22.08,21.25,21.45,10-.38,11.9,2.94,11.86,12.14C1744.43,692.45,1734.86,702.5,1704,702.36Z"/><path class="cls-2" d="M932.37,249.28h61.82c-20.12,7.79-7.93,23.1-14.11,33-5.73-.24-3.21-4.7-3.89-7.5-2-8.29,7.34-20.76-12.57-21.69-20.6-1-16.8,10.67-16.77,22.26,0,2.32-.61,4.65-1.09,8.05C933.48,274.77,952.92,254.44,932.37,249.28Z"/><path class="cls-2" d="M962.36,287.82v65.27l-1.67,0V287.84Z"/><path class="cls-2" d="M962.05,393.41v64.5l-1.55,0V393.44Z"/><path class="cls-2" d="M963.29,564.74c-3.1-.55-3.82-3.18-4.86-5.53v-61.6l4.86-.07Z"/><path class="cls-2" d="M404.06,443.8c3.32,10.49,3.05,21.12-.1,31.81C401,465.14,400.64,454.58,404.06,443.8Z"/><path class="cls-2" d="M1517.05,443.79c5,10.61,3.55,21.2,0,31.86Z"/><path class="cls-2" d="M976.84,296.7c6.85,9.6,4.45,20,4.64,30.14,0,2.39-1.8,3.25-3.94,2.63-1.37-.4-2.88,0-2.49-3.21C976.27,316.48,976.33,306.57,976.84,296.7Z"/><path class="cls-2" d="M979,561.46a57,57,0,0,1,.06-33.33A55.89,55.89,0,0,1,979,561.46Z"/><path class="cls-2" d="M400.39,588c2,0,2.35-11.18,5.93-.94a58.24,58.24,0,0,1,1.54,6.86c-2.59,6.76.84,14.37-2.93,21.2-5.92-2.77-1.89-8.8-4.43-12.5-.07-1.83-.13-3.67-.2-5.5Z"/><path class="cls-2" d="M1514.36,593.94c1-3.58,1.09-8,3.32-10.46,1.42-1.55,2.33,3.24,4.15,4.56q0,4.56.08,9.12c-.06,1.83-.13,3.66-.19,5.49-2.18,3.71.69,8.77-3.93,12.78C1513,608.59,1517.28,600.55,1514.36,593.94Z"/><path class="cls-2" d="M947.5,553c-1.73,2.51,1.12,8.12-3.49,7.94-4.77-.18-2.37-5.21-2.58-8.1-.46-6.58-.45-13.19-.63-19.79.85-1.59,1.33-4,2.64-4.59,2.34-1.11,3.16,1,3.25,3.05C947,538.63,947.24,545.79,947.5,553Z"/><path class="cls-2" d="M942.31,515.08c-.78-9.72-1.54-19.44-2.35-29.15-.2-2.43,1.3-3.56,3.28-3.8,2.37-.28,3.46,1.51,3.48,3.54.11,9.82,0,19.63,0,29.45Z"/><path class="cls-2" d="M942.72,329.22c-3.59-9.33.45-19.51-2.36-28.93-.74-2.49.84-3.58,2.8-3.78,3.38-.34,3.69,2.29,3.71,4.71.07,9.34,0,18.67,0,28Z"/><path class="cls-2" d="M980.54,388.57c2.58,9.72.88,19.7,1.1,29.56.05,2.13-.95,3.63-3.36,3.54-2.81-.11-2.32-1.93-2.28-3.95.15-9.71.06-19.43.06-29.15Z"/><path class="cls-2" d="M978.87,482.1a49.33,49.33,0,0,1,.13,32.73C975.18,503.94,975.56,493,978.87,482.1Z"/><path class="cls-2" d="M943.87,342.72c4,10.89,3,21.89.48,33C940.74,364.84,941.1,353.84,943.87,342.72Z"/><path class="cls-2" d="M978.21,609.9c-4.46-8.81,0-18.5-2.71-27.48.7-1.66,1-3.91,2.19-4.82a2.32,2.32,0,0,1,3.83,2.14C980.17,589.77,985.94,600.6,978.21,609.9Z"/><path class="cls-2" d="M944.23,468.79c-3.85-10.76-3.6-21.52-.24-32.28C947.87,447.26,947.51,458,944.23,468.79Z"/><path class="cls-2" d="M979.27,342.64c2.56,10.94,4,22-.4,32.82A51.37,51.37,0,0,1,979.27,342.64Z"/><path class="cls-2" d="M944.39,421.72c-4.61-10.9-2.28-22-1-33.12C948,399.37,947,410.54,944.39,421.72Z"/><path class="cls-2" d="M978.6,702.06c-3.54-11.74-3.84-23.49-.05-35.24C983.75,678.56,983.64,690.31,978.6,702.06Z"/><path class="cls-2" d="M978.62,655.82c-3.85-11.79-3.62-23.59-.08-35.39C983.8,632.21,983.91,644,978.62,655.82Z"/><path class="cls-2" d="M981.71,437.54q0,13.66,0,27.32c0,2.08-.71,3.85-3.1,3.64a8.51,8.51,0,0,1-3.51-1.65C978.65,457.42,973.37,446.7,981.71,437.54Z"/><path class="cls-2" d="M962,602.33v65.45h-1.71V602.35Z"/><path class="cls-2" d="M943.84,576.13c3.52,10.83,4,21.66.5,32.45C939.78,597.84,941.83,587,943.84,576.13Z"/><path class="cls-2" d="M944.33,667.91c2.86,11.07,3.69,22.07-.16,33A50,50,0,0,1,944.33,667.91Z"/><path class="cls-2" d="M944.3,654.49c-4.45-10.77-2.26-21.61-.49-32.5C947.4,632.68,947.3,643.56,944.3,654.49Z"/><path class="cls-2" d="M1640.44,596.52c1.29-3.84,2.54-7.78,7-2.45-1.49,10.06.64,20.92-6.33,30C1638.8,614.76,1642.87,605.58,1640.44,596.52Z"/><path class="cls-2" d="M1630.72,654.69c-2,2-4.09,3.92-5.91,6.06-1.63,1.92-3.68,4-5.88,2.45-3.48-2.53.54-4.79,1.16-7.21l17.17-20.39C1638.59,645,1632.24,648.94,1630.72,654.69Z"/><path class="cls-2" d="M1671.82,619c5.37,13.94,16.73,10.63,26.35,13.73C1680.86,640.15,1672.53,636.49,1671.82,619Z"/><path class="cls-2" d="M1648,454.81c-4.21,9.29,2.69,20.44-5.78,31.62-.71-11.73-2.15-21.15-1.63-30.46.58-10.52,5.41,2.32,7.78-.86Z"/><path class="cls-2" d="M1673.5,606.68c-4.45-10.32-2.5-20.94-1.15-31.54C1677.8,585.4,1675.94,596,1673.5,606.68Z"/><path class="cls-2" d="M1647.38,527.2c-1.44,2.12-3,4-6,2.95V498.8C1649.12,507.4,1645.32,517.81,1647.38,527.2Z"/><path class="cls-2" d="M298.25,663c-4-6.18-8-12.4-12.14-18.52-2.05-3-3.05-5.73.83-8q7.62,10.25,15.27,20.48C306.43,662.52,305.47,664.76,298.25,663Z"/><path class="cls-2" d="M273.63,452.09c3.52,1.43,10-1.77,8.1,7.35-1.67,7.83-.35,16.3-2,24.5-8.53-9.88-.25-21.95-5.7-32Z"/><path class="cls-2" d="M340.47,692.2c-11.1-2.91-18.51-10.25-24.36-19.66C326.6,676,334.55,682.85,340.47,692.2Z"/><path class="cls-2" d="M280.84,530.15c-2,0-4.4,1.27-5.87-1.33V498.59l5.87.06Z"/><path class="cls-2" d="M280,591.45q1.51,16,3,32l-4.19.5c-4.19-10.31-3.87-21.14-2.46-32.11Z"/><path class="cls-2" d="M224.2,633c8.8-4,21,1.28,24.82-13.78C251.14,635.75,242.52,639.7,224.2,633Z"/><path class="cls-2" d="M250.67,606.63c-6-10.62-4.78-21.06,0-31.49Z"/><path class="cls-2" d="M279.33,577.36c-4.42-10.56-4.68-20.92,0-31.37Z"/><path class="cls-2" d="M728.48,782.76c7.91,1.19,15-5.25,23.07-2.51-8.15,11.45-21.06,7.08-32.14,11.65C719.31,783.38,726.22,786,728.48,782.76Z"/><path class="cls-2" d="M879.63,766H853.47c11.48-8.29,22.33-5.11,31.95-7.31,1.2,1.14,4.18,1.12,3.07,3.78C886.82,766.48,882.43,764.38,879.63,766Z"/><path class="cls-2" d="M764.48,779.79c8.54-10.12,19.84-8.63,31.09-7.38l-.69,4C784.55,775.82,775,782.31,764.48,779.79Z"/><path class="cls-2" d="M661.14,807.84c-8.53,6.92-18.59,8.29-28.85,9.16C641,811.25,650,806,661.14,807.84Z"/><path class="cls-2" d="M687.15,803.79c-4.13-1.12-8.58,2.3-13.47-1.53,10-6.56,20.63-9.27,33-10.7-3.67,10.91-15.3,6-20,12.56Z"/><path class="cls-2" d="M903.84,760.52c10.16-4,20.34-5,30.74-1.35C924.6,763.72,914.25,763.41,903.84,760.52Z"/><path class="cls-2" d="M1383.15,305.77c-2.6-3.86-7.15-2.44-10.63-3.92-2.36-5.53,1-5.87,4.79-4.8a137.79,137.79,0,0,1,25.41,9.32C1395.81,311.16,1389.64,304.22,1383.15,305.77Z"/><path class="cls-2" d="M1435.51,323.22c-1.86-3.3-5.3-2.83-8.27-3.47l-11.9-6.25c11.64-1.82,21.16,2.68,31.07,7.68C1442.74,326,1438.79,322,1435.51,323.22Z"/><path class="cls-2" d="M1175.29,254.45c-10.74,4.26-20.52-1.19-30.76-3.4C1155.15,247.1,1165.06,251.58,1175.29,254.45Z"/><path class="cls-2" d="M1220.12,264.63l-29.75-6.18.82-4.16a131.94,131.94,0,0,1,30.58,6.34Z"/><path class="cls-2" d="M375.12,361c-6.42,6.56-11.45,9.17-27.57,14.3C352.27,367,362.18,361.89,375.12,361Z"/><path class="cls-2" d="M549.68,301.88l-8.62,2.44c-7.2.51-13.69,6.27-23.43,2.92,10.11-7.05,20.3-8.69,30.25-10.44C551.26,296.2,550.63,299.58,549.68,301.88Z"/><path class="cls-2" d="M747,255.16c9.89-4.8,20-7,30.64-4.56C767.58,253.78,757.74,257.93,747,255.16Z"/><path class="cls-2" d="M486.87,323.76c-3.16-2.19-7.4,2.27-11-2.41,9.35-5.92,19.6-8.14,31.93-11.73-5.32,10.73-16.9,7.09-21.31,14.47C486.48,324.1,486.87,323.76,486.87,323.76Z"/><path class="cls-2" d="M594.65,285.09c-9.58,4.59-18.77,10-32.76,8.68C573.6,286.12,584.36,286,594.65,285.09Z"/><path class="cls-2" d="M540.05,829c10.23-2.89,20.58-3.36,31-.29C560.86,833.54,550.5,831.86,540.05,829Z"/><path class="cls-2" d="M1351.29,828.68a56.93,56.93,0,0,1,31.09.11C1372.18,832.81,1361.82,832.64,1351.29,828.68Z"/><path class="cls-2" d="M1170.72,780.27c9.07-2.5,17.09,4.11,26,3,1.21,2.54,6.21,2,5.42,5.74-.73,3.44-4.08,2.22-5.94,1.42C1187.78,786.87,1176.39,790.63,1170.72,780.27Z"/><path class="cls-2" d="M1261.09,807.85c11-2.11,19.59,3.59,28.32,9.18C1279.49,815.79,1269.55,814.7,1261.09,807.85Z"/><path class="cls-2" d="M1127.33,776.41c-2.37-4.72-.15-6,4.2-5.43,8.87,1.17,18,1.32,26,6.23C1147.23,785,1137.45,774.54,1127.33,776.41Z"/><path class="cls-2" d="M1235.48,804.12c-5-6.1-15.09-2.53-21.37-13.17,13.79,1.94,24,5.67,35.13,10.75-5.66,4.49-10.09.86-14.2,2.07Z"/><path class="cls-2" d="M1079.91,766.19c11-2.29,21.59-.62,31.86,3.68C1100.54,773.89,1090.21,770.21,1079.91,766.19Z"/><path class="cls-2" d="M1065.67,765.05c-10.89,1.18-21.63,1.64-31.67-3.49C1045,758.69,1055.62,759.39,1065.67,765.05Z"/><path class="cls-2" d="M987.59,759.39c10.43-4,20.71-3.15,30.89.91C1008,764.23,997.77,763.15,987.59,759.39Z"/><path class="cls-2" d="M411.3,753c-10.43-5.27-18.88-11.83-25.54-20.66,7.08-5.22,8.95,4.67,14.37,3.72,3.14-3.8-.55-9.5,4.2-14C409.4,731.91,403.43,744,411.3,753Z"/><path class="cls-2" d="M449.59,782.86c-12.93-1.67-19.15-12-26.25-21.1,10.26,5.1,21.34,9.23,25.87,21.48Z"/><path class="cls-2" d="M1644,577.26a50.81,50.81,0,0,1-.17-31.4C1647.83,556.11,1646.89,566.6,1644,577.26Z"/><path class="cls-2" d="M1605.9,672.3c-5.32,10-13.78,16.32-24.13,20.34C1586.56,682.11,1596.53,677.58,1605.9,672.3Z"/><path class="cls-2" d="M1513.3,722.16c10.36-.35,6.48,8.22,8.14,13.48,5.8,2.21,7.48-7.94,13.44-4.4-3.66,8.73-9,13.84-24.46,23,3.48-11.35,8.53-21.57,3.17-32.29Z"/><path class="cls-2" d="M1486.5,777c-4.67,1.36-7.36,7.15-13.19,5.87,3.74-12.23,16.16-15.08,24.64-25.15C1500.59,770.38,1489,770.65,1486.5,777Z"/><path class="cls-2" d="M807.87,770.38c12.38-6.39,23.37-4.47,36.58-8.45C835.26,771.26,826,773.11,807.87,770.38Z"/><rect class="cls-1" width="1" height="1"/><rect class="cls-1" x="1919" y="1079" width="1" height="1"/><rect class="cls-1" y="1079" width="1" height="1"/><rect class="cls-1" x="1919" width="1" height="1"/><rect class="cls-1" x="685.31" y="434.73" width="549.38" height="210.53"/></g><g id="Capa_3" data-name="Capa 3"><path d="M798.38,479.85v111H778.55V520.14L759,535.05l-16.18,12.53-16.18-12.53-19.51-14.91v70.74H687.34v-111l19.83,15.23,35.69,27.44,35.69-27.44Z"/><path d="M852.3,516.81v75.5H832.47V514.75A15.8,15.8,0,0,0,819,501.27h-4.44V481.6h4.28v.16a35.35,35.35,0,0,1,29.5,19.82A42.36,42.36,0,0,1,851,509a33.47,33.47,0,0,1,1,8.09Z"/><path d="M978.71,513.48a32.67,32.67,0,0,1-9.2,22.84A32.75,32.75,0,0,1,946,591.83h-78.2V572H946a13.07,13.07,0,0,0,13-13,12.9,12.9,0,0,0-12.21-13h-59V526.17h59a13,13,0,0,0-.63-26H868V480.33h78.2A32.62,32.62,0,0,1,978.87,513Z"/><path d="M1105.6,513.48a32.67,32.67,0,0,1-9.2,22.84,32.75,32.75,0,0,1-23.48,55.51H994.73V572h78.19a13.07,13.07,0,0,0,13-13,12.9,12.9,0,0,0-12.21-13h-59V526.17h59a13,13,0,0,0-.64-26h-78.2V480.33h78.2A32.63,32.63,0,0,1,1105.76,513Z"/><path d="M1232.48,479.85v111h-19.82V545.2h-58.53a31.39,31.39,0,0,1-14.91-3.65,32.38,32.38,0,0,1-17.77-29V479.85h19.83v32.68a13.06,13.06,0,0,0,13,13h58.52V479.85Z"/></g></g></svg>