<svg xmlns="http://www.w3.org/2000/svg" viewBox="0 0 1920 1080"><defs><style>.cls-1{fill:#f2f2f2;}.cls-2{fill:#010101;}</style></defs><g id="Capa_2" data-name="Capa 2"><g id="Capa_1-2" data-name="Capa 1"><path class="cls-1" d="M1547.28,570.52c0,6.46-.69,12.79-3.68,18.65-.61,13.13-14.48,25.88-30.81,28s-32.74,1.06-49.11,1.23c-11.14.11-22.29-.17-33.39.35-6.57.32-9.64-1.13-9.19-8.54.26-4.38,2.73-12.67-2.54-12.73-7.09-.07-3.86,8.3-3.81,12.73.11,7.13-2.32,9-9.13,8.63-12.66-.61-25.36-.57-38-.31-24.74.52-41.12,15.37-44.59,39.79-1.13,7.93-2.67,15.82-4,23.71-3.92,27.75-7.76,55.51-11.77,83.26-3.12,21.66-6.59,43.27-9.52,65-.75,5.53-2.21,8.63-8.47,7.55-1.78-.31-4.69-1.15-5,2.19s2,4.07,4.68,4.42c12.6,1.61,3.34,9.89,4.14,14.85,1,6.53-4.29,5.25-8.17,4.58a144.88,144.88,0,0,0-25.8-2.09c-4.06,0-7.7,1.09-8.26,5.58-.59,4.7,3.31,6.61,6.93,7.28,9.06,1.69,18.24,2.8,27.37,4.06,2.18.3,4.94.13,4.78,3-.21,3.93-3.66,2.61-5.74,2.32-16.15-2.36-32.28-4.92-48.43-7.41-13.84-.76-27.47-3.17-41-6a63.89,63.89,0,0,0-6.41-.94c-4.92-.25-7.13-.45-4.29-6.93,3.73-8.46.93-18.22,1.38-27.39.24-4.83.81-6.69,6.12-5.61,4.49.91,9.23.73,13.85.87,1.76,0,3.86.19,4.23-2.39.34-2.26-1-3.86-3-3.77-16.91.76-29-8.85-41.17-18.56-2.48-2-6.29-2.32-9.5-3.41q-61.53.11-123.08.18c-2.11,0-4.38.37-6.16-1.32-7.83-1.89-8.3-8-8.3-14.42q0-39.75-.05-79.53c0-20.68-5.51-26.73-25.84-27.07-5.46-.07-8.2-1.22-7.39-7.16a22,22,0,0,0-.31-6.42c-.37-2.21-1.47-4.44-4.07-4.25-2.78.2-2.93,2.52-2.74,4.84.13,1.84-.06,3.7.09,5.53.37,5-.6,8.11-6.94,7.59-5.31-.42-10-.05-9-7.61.38-2.65.73-5.58-2.13-8.25-3.45,2.7-2.47,6.58-2.12,9.74.67,6.22-2.74,6.44-7.23,5.94-3.88-.43-9,1.73-8.43-5.87.28-4.12,2.34-9.56-3.6-12.15-3.53,2.11-3.81,5.73-3.25,9,1.39,8.39-2.62,9.8-9.78,9-7.7-.87-14.7.83-19.73,7.59-3.55,4.75-4.23,10.08-4.23,15.74.05,26.56.07,53.14-.08,79.7-.09,16.37-3.06,19.38-19.56,19.4-25.62,0-51.25-.24-76.86-.39q-17.62.2-35.21.35c-11.79.09-22,3.84-28.87,13.79-4.78,6.94-12.17,4.66-18.41,6.44-4.4,1.25-12.55-.54-12,5.09.69,6.44,8.24,2.32,12.42,2.06,11.41-.73,10.58-1.1,11.76,10.15.82,7.91-3.84,15.52.37,23.76,1.58,3.1-3.26,6.38-7.87,6-15.88,4-32.09,5.76-48.35,7.32-14.59,2.3-29.16,4.64-43.76,6.85-1.88.28-4.66,1.54-5.11-1.93-.48-3.77,2.47-3.36,4.88-3.7,8.56-1.15,17.08-2.5,25.64-3.6,5.14-.65,7.74-2.91,7.23-8.46-.51-5.92-4.69-4.64-8.2-4.55-8.63.2-17.3,0-25.85,1.78-2.94.63-7.56,2.47-7.13-3.47.39-5.23-6.59-11.93,2.69-15.59,3.08-1.21,7-1.45,5.94-6.42-11.79,1.56-13.12-5.24-14.46-15.11-6.48-47.65-14-95.16-21.12-142.72-1.43-9.44-2.55-19-4.57-28.3-4.16-19.21-19.62-32.41-39.31-33.26-14.18-.62-28.42-.54-42.6-.13-6.61.2-9.5-1.28-9.37-8.54.07-4.51,3.39-12.81-3.81-12.83-5,0-3.13,8.37-2.82,12.85.47,7.11-2,8.85-8.85,8.57-26.53-1-53.14,1.23-79.63-1.32-17.37-1.65-28.25-12.13-34.08-28.23-3-4.14-2.15-8.93-2.15-13.47q-.17-75.48,0-151c0-21.29,9.52-34.48,29.63-42,6.34-2.36,12.82-4.37,19.06-7,12.53-5.18,16.72-13.39,13.84-26.53-1.52-6.9-3-13.84-5-20.64-1.52-5.25-3.56-10,4.09-12.36,2.61-.83,3-5.42,0-5.27-12.83.61-7.8-10.49-11.16-15.94-.72-1.19-.43-3-.67-4.53-.78-5-6.74-10.23-3.1-14.3,2.92-3.24,9.56-3.26,14.59-4.52,28-7.06,56.07-14,84.08-21.11,3.44-.87,6.11-2.49,7.63,2.82,1.62,5.57-1.71,5.14-5.08,5.81q-11.79,2.37-23.47,5.16c-4.82,1.17-10.48,2.32-9,9.19,1.45,6.53,6.57,6.29,11.82,4.88a39,39,0,0,1,4.5-.7,73.34,73.34,0,0,1,25.8-4.07,64.23,64.23,0,0,1-25.66,7.2c-2.5,1.51-5.1,3.4-3.35,6.54,1.16,2.09,4,.92,6,.52,7.24-1.49,14.42-3.34,21.66-4.77,1.78-.36,4.66-2.18,5.46,1s-1.82,4-4.51,4.51c-5.74,1.09-11.45,2.37-17.17,3.67-1.93.45-3.62,1.6-3.29,3.77s2.46,2.86,4.31,2.6a156.52,156.52,0,0,0,17.28-3.06c5-1.34,7.2.18,8.32,5.14,1.72,7.5,3.82,14.94,6.12,22.27,4.79,15.33,11.71,19.69,27.75,17.17,19.49-3.08,38.89-6.66,58.38-9.76,49.07-7.78,98.24-14.7,147.89-18.08,49.37-3.36,98.78-5.31,148.21-7.11,6.63-.26,9.76.09,8.5,8.56-1.52,10-.63,20.34-.69,30.55,0,2.52.26,5.38,3.64,5.34s3.34-3.06,3.36-5.47c.06-10.84.54-21.7-.17-32.47-.35-5.51.9-7.16,6.22-6.77,4.68.35,10-1.82,9.65,6.63-.55,11.73-.22,23.49-.05,35.24,0,2.84-1.32,6.24,2.39,8.67,3.33-4.82,1.64-10.17,1.78-15.14.3-8.95.21-17.93,0-26.9-.12-5.36-.33-9.22,7.5-8.72,6.65.42,9.17,1.5,8.6,8.72-.78,9.84-.3,19.79-.19,29.68,0,2.8-1.13,7.18,3.32,7,3.75-.15,3.83-4.24,3.83-7.37,0-10.53.42-21.07-.41-31.52-.41-5.12.54-6.24,5.42-6,34.6,1.46,69.23,2.28,103.79,4.14,35.18,1.89,70.31,4.19,105.3,8.42,40.74,4.94,81.24,11.35,121.72,18,10,1.65,20,3.75,30.15,4.56,12.34,1,18.19-3.08,22.38-14.81,2.71-7.53,5.4-15.25,6.46-23.11,1-7.29,4.64-7.57,10.08-6.47,4.53.89,9,1.87,13.59,2.61,2.59.41,5.21-.05,5.68-3.23.42-3-2.12-3.23-4.25-3.65-5.44-1.1-10.84-2.27-16.28-3.34-2.56-.52-4-2-3.29-4.55s2.88-1.58,4.59-1.21c7.49,1.64,15,3.14,22.47,5,4.46,1.12,5.72-.48,4.94-4.6l-29-8.56a63.16,63.16,0,0,1,29.29,3.79,53,53,0,0,0,6.39,1c4.15.19,7.18-1.61,8.16-5.86,1.08-4.62-1.56-7.11-5.57-8.08-9-2.13-18-4.14-27.09-5.88-3.72-.71-6.78-1.43-5.83-6.2,1.06-5.38,4.6-3.53,7.89-2.71,31.66,7.81,63.31,15.68,95,23.29,5.31,1.29,5.29,4,3.84,8.06-3.15,8.82-6.12,17.65-7.16,27.06-.43,3.81-3.9,1.49-6,1.71-1.82.19-3.84-.24-4.58,2.08-1,3,1.32,4,3.38,4.42,6.58,1.15,5.29,5.06,4,9.57-2.07,7.43-4,14.93-5.43,22.48-2.79,14.24,1.74,22.24,15.35,27.42,6.33,2.41,12.82,4.36,19.17,6.71,17,6.37,28.08,21.54,28.12,39.67C1547.52,472.22,1547.33,521.37,1547.28,570.52Z"/><path class="cls-2" d="M1732.55,423.61c-3.84-.09-5.36-2.73-7.07-5.11-7.07-2.06-8.16-7.31-7.57-13.71.48-5.07-.26-8.8-7.17-8.75-33,.26-66-.53-98.91.52-9.17.28-9.37-2.72-8.89-9.46,1.75-24.5-2.37-47.5-18.3-67.25q-5.82-5.34-11.64-10.71c-9.2-4.88-17.93-12-27.73-14-10-2.1-19.9-4.72-29.9-6.87-6.31-1.37-9.11-4.34-6-10.91,2.5-5.27.33-7.89-5.14-9.08-9.51-2.08-18.94-4.57-28.38-6.92-25.32-6.33-50.68-12.59-76-19.1-6.85-1.77-13.16-1.38-13.11,6.88,0,8-3.66,6.7-8.59,5.94-27.86-4.23-55.28-10.76-83.14-15q-61.27-9.33-122.76-16.82c-7.15-.87-17.78,2-21.22-5.7-6.4-14.49-17.35-15.22-30.31-14.88-13.19.33-26.63,1.83-39.51-2.79-29.81-10.67-60.14-18.58-91.92-21.31-32-4.51-89.39,3.25-89.39,3.25l-31.2,8.08c-2.1.54-4.32.78-6.24,1.67-22.77,10.54-46.86,12.79-71.47,11.32-10.21-.61-17.58,2.69-21.13,12.57-1.65,4.6-5.08,5.64-9.31,6.1-70.63,7.69-140.85,18.12-210.56,31.76a38.39,38.39,0,0,0-6.29,1.47c-7.45,2.8-11.83.79-12.4-7.54-.39-5.79-3.25-6.79-8.61-5.46-35.86,9.06-71.8,17.86-107.7,26.77-5.1,1.28-7.51,4.16-4.8,9.45,3.25,6.33.18,8.55-5.68,10.06-11.34,2.89-22.59,6.2-33.8,9.56-32.71,9.83-53.44,37.41-53.9,71.66-.13,10.51.09,21,0,31.54,0,2.48.87,5.3-1.49,7.68-2.51-1.63-2-3.92-1.89-5.81.33-5-2.16-6.52-6.7-6.52q-49.14.09-98.32-.05c-4.6,0-7.54,1.54-6.54,6.4,2.21,10.94-5.49,14.91-12.69,20C180.74,434.3,183,544.11,183,544.11c0,15.57,2,30,11.51,42.78,5.68,4.21,7.59,9.8,7.39,16.87-.39,13.9.39,27.86-.26,41.75-.37,8,2.86,10.06,10,10,20.11-.2,40.21,0,60.33,0,11.43,0,22.88-.19,34.32,0,5.36.05,7.64-1.8,7.5-7.52-.34-11.43,0-22.88-.08-34.32,0-4.16-.89-8.91,5.55-7.72,6.07,1.11,15.85-4.16,16.52,7.54.74,13,.41,26,.39,39,0,9.24-.28,18.5-.43,27.76l1.17,64.61c7.39,21.13,28.31,36,50.19,36,32.06.08,24-3.64,43.17,22.57,6,8.21,11.79,16.58,17.67,24.87,9.08,11.73,18.34,23.21,30.35,32.26,11.57,8.71,24.17,15.41,37.25,21.85,24.88,8.11,104.22-.69,104.22-.69,4.76.34,2.94,3.86,3.1,6.42.13,5.7,3.75,5,7.67,4.42,19.47-3,39-5.86,58.43-8.78,15.52-2.34,31.07-4.47,46.55-7.12,3.7-.65,9,.66,10.25-5.48.48-2.45-3.18-6.78,2.43-7.15,4.71-.29,10.39-2.71,13.85,2.21,6.62,9.45,15.62,9.51,25.55,8,5.15-.76,10.44-.61,15.65-.87,45.7-4.42,91.47-7.26,137.41-7.2l27.3-.58c21.83.37,43.66.56,65.43,2.26,32.15.52,64.15,3.49,96.15,6.2,7.46.63,14.71,1.36,21.94-1.07,5-5.66,9.39-12.27,18.87-9.38,2.84.86,4.92,1.53,3.83,4.66-2.29,6.61,2.35,7.22,6.66,7.87q53,8.09,106.06,16c5.62.84,10.63,1.06,10.34-7.23-.17-4.91,3.58-3.51,6.71-3.18,16.89,1.76,33.8,3.36,50.71,5a113.79,113.79,0,0,0,52.68-7.48c5.49-2.16,9.63-1.69,14.33,2.24,8,6.72,16.78,12.6,25.17,18.91,4.71,3.57,8.15,3.83,12.1-1.8,14.59-20.69,29.57-41.11,44.66-61.45,4.45-6,4.08-10.15-2.23-14.55-5.72-4-15.48-6.78-15.65-13-.15-5.6,7.8-11.15,11.36-17.22,5.35-9.08,12.79-12.94,23.15-11.45,1.2.18,2.5-.21,3.71,0,23.55,4.5,39.33-7.57,53-24.51a27.3,27.3,0,0,0,6.2-17.92c.07-20.08.33-40.16.54-60.25-.17-20.69-.52-41.39-.39-62.06,0-8.26,13.43-14.57,20.75-10.16,2.41,1.45,1.39,3.86,1.41,5.89,0,11.43.33,22.88-.11,34.3-.25,6.29,1.93,9.19,8.22,9.17q48.66-.12,97.35-.08c6,0,7.07-3.3,7-8.31-.12-14.52.33-29.07-.15-43.58-.23-7.13,1.65-12.61,7.48-16.69,8.65-11.56,11.43-24.78,11.43-38.94C1736.71,547.69,1739.61,428.71,1732.55,423.61ZM201.69,567.25c-7.13-10.19-7.09-124.86,0-134.14Zm104.8,44.21c-.43,10.16-.41,20.37,0,30.54.19,5.29-2.1,6-6.61,6-27.78-.12-55.57-.1-83.35.26-5.52,0-7.71-1.08-7.45-7.06.49-11.39.28-22.83.23-34.24,0-4.57-.43-8.11,6.25-4.81,6.39,3.16,13.75,3.25,20.86,3.4,11.53.22,12.64-1.06,12.09-12.62-8.69-3.4-18.19-1.86-27.12-4.94-8.39-2.9-12.86-6.7-12.33-16.37.77-13.55.43-27.18.06-40.76-.15-5.29,1.34-7.24,6.7-6.63,13.62,1.58,27.66,1.5,41,1.41,13.7-.07,28,.19,41.84-1.37,6.1-.67,7.87,1.39,7.72,7.53q-.64,26.4,0,52.81c.13,5.72-2,6.66-6.92,6.5-10.19-.32-20.38-.19-30.57-.19-3.68,0-7.48-.43-10.56,2.32-.5,11.17.31,12.12,11.58,12.21,9.87.1,19.77.28,29.62-.18C304.45,605,306.73,605.79,306.49,611.46ZM240.91,485.53c13.48-.37,13.48-.32,13.7,11.15-1.5,3,3.51,9.23-3.4,10.64-5.6,1.15-16.42-10.75-17.09-17.45C233.51,483.73,238,485.6,240.91,485.53Zm-2.49-14.91c.17-.24.41-.44.62-.68,3.84-4.38,9-11,13.92-7.71,4.29,2.88,2.13,11.62.93,17.32-1.12,5.25-7,.58-9.73,2.66-3.8-1-8.37,1.54-9.86-2S236.31,473.57,238.42,470.62Zm21.8,15.85c5.64-1.55,12.06-.85,18.07-.31,2.9.24,2.08,3.38,1.41,5.33-1.54,4.39-3.89,8.44-7.77,11.13-3.46,2.38-7.22,6.59-11.31,4.77s-.89-7.18-2.17-10.26C259.4,493.1,256.47,487.51,260.22,486.47Zm-.86-23.83c.19-2,2.36-1.35,3.79-.89,8.15,2.67,13.45,8.32,16.44,16.2.52,1.4.47,3.35-1.57,3.61-3,.39-6.11.35-9.29.5-3.24-.93-8.7,2-9.67-2.06C257.77,474.54,258.84,468.43,259.36,462.64ZM277,425.58c7.72,0,15.46.2,23.18-.1,4.53-.16,6.37.78,6.32,6q-.54,38.94-.12,77.88c.08,5.64-1.35,7.67-7.12,7.48-11.7-.35-23.41-.09-35.12-.09,12.21-6.46,22-14.15,23.68-28.86.21-1.77.89-1.68,11.75-2.64v-1.69c-10.43.17-13.08-7.48-16.52-15.29-2.17-5-7-8.51-12.08-11.14-11.08-5.79-11.06-5.81-14.89-16.19,1.12,11.53-6.42,14.24-14.73,17.06-5.65,1.91-9.62,6.83-11.83,12.46-2.61,6.72-3.32,15.1-15.89,10.85l16.12,18.06c4.32,8.8,12.43,12.9,20.78,17.36-12.47,0-24.92,0-37.4,0-3.41,0-4-1.92-4-4.74.06-26.89.17-53.77,0-80.66,0-4.72,2.1-5.63,6.18-5.61,12,.08,24.11-.3,36.16-.18,5.7.07,8.31-1.67,8.33-7.95,0-6.53-3.51-6.68-8.28-6.61-12.36.21-24.72.19-37.08.21-2.6,0-5.68.87-5.62-3.79,0-4.47,2.8-3.9,5.58-3.9H300.7c2.76,0,5.86-.5,6.05,3.66.24,5.23-3.81,3.81-6.55,3.88-7.73.18-15.45.2-23.17.13-5.34-.07-8.17,2.23-8,7.68C269.11,424.18,272.47,425.59,277,425.58ZM1556,317.23c-17.56-4.88-35.79-7.27-52-16C1521.74,305.24,1539.83,308.21,1556,317.23Zm-425-99.84c.84-.33,2.92.34,3.14,1,7.11,20.4,25.5,17.61,41.09,19.62,46.18,5.94,92.51,10.89,138.23,19.73,19.78,3.84,39.81,6.29,59.41,11,2.51.59,5.63.24,8,4.78-15.57-2.76-30-5.51-44.53-7.88-44.1-7.22-88.42-13-132.84-18-18.1-2-36.21-3.75-54.29-5.89-12.81-1.5-19.62-8.91-19.44-20.36C1129.78,219.94,1129.21,218.06,1131,217.39Zm-333.76,6c.35-4.79,1.43-6.5,6.42-6,19.15,2,37.12-2.33,55.16-8.9,29.16-10.66,59.64-15.41,90.71-16.9,7.44-.35,8.71,2.06,8.52,8.62-.2,7.14-1.5,14.57,2.39,21.58,3.16-7.09,2-14.68,1.66-21.95-.26-6.44,1.46-8.38,8.11-8.17a300.69,300.69,0,0,1,95,18.34c16.06,6,32,8.83,48.91,7.33,5.59-.5,8.2.35,8.57,7,.8,14.35,7.93,21.66,22.46,23.46,36.44,4.53,72.93,8.45,109.36,13,39.47,4.9,78.85,10.28,117.85,18.19,2.36.48,5.7.09,5.57,3.41-.13,3.68-3.6,2.32-5.83,2.55-2.4.22-5.5-.6-6.09,2.71-.67,3.78,2.08,4.36,5.22,4.67,4.34.43,3.32,3.23,2.41,6.15-2.26,7.37-4.14,14.85-6.5,22.2-3.78,11.82-7.5,14.12-19.86,12.15-27.41-4.38-54.83-8.91-82.24-13.4-59.53-9.78-119.52-15.16-179.75-17.87-38.62-1.75-77.23-3.77-115.91-3.7-5.92,0-7.24-2.17-7.33-7.49-.17-9.06,1.43-18.32-2.19-27.22-3.08,7.95-2.25,16.26-1.93,24.34.29,7.81-1.64,10.45-10.12,10.5-66.8.5-133.55,3.38-200.09,9.4-57.52,5.19-114.48,14.7-171.35,24.63-17,3-21.24.52-25.49-16.43-1.05-4.18-2.43-8.28-3.45-12.47-1.15-4.77-6.12-11.07,4.42-11.6,1.43-.08,2-2.16,1.85-3.81-.31-3.1-2.72-2.56-4.82-2.93-2.45-.45-6.52,1.89-7.07-1.91-.73-5,4.08-3.29,6.7-3.86,28.92-6.24,58.19-10.51,87.53-14.13a187,187,0,0,1,29.9-3.82q48.74-5.68,97.43-11.38c5.2-.61,10.51-1,15.54-2.38C791,244.1,796.3,235.08,797.19,223.37ZM589,260.83C642.76,250.1,697.27,244.49,751.49,237c2.75-.39,5.53-.47,8.32-.6,10.61-.5,19.28-4,23.4-14.83.89-2.35,2.23-4.9,5.29-4,3.56,1,1.82,4.23,1.54,6.27-1.48,10.91-7.39,16.28-20.25,17.82-23.57,2.82-47.26,4.9-70.81,8-30.12,4-60.3,7.33-90.32,12.38-22.16,3.73-44.45,6.72-66.5,11.15a13,13,0,0,1-3.44-.22c-.07-.8-.13-1.6-.2-2.38C555.35,267.31,572.21,264.17,589,260.83Zm-174.14,40.7c-16,8.47-33.8,11.1-51,15.56C379.66,308.08,397.57,305.82,414.87,301.53ZM350.68,618c.13-8.76-1.39-16.48-7.89-22.72-6.92-4-14.46-5-22.23-4.19-5.16.53-7-1.27-7-6.69.17-50.7.08-101.4,0-152.1,0-3.42.65-5.65,4.6-6.72,9-2.45,12.7-9.43,13-18.16.41-13.29.52-26.59.42-39.88-.07-10.9,3.59-20.57,8.82-29.83,2.19-3.88,5.07-7.07,9.5-8.33q32.44-9.14,64.95-18.14c.74-.2,1.69.24,3.45.56-7.13,6.92-18.23,7.18-24,16.55,7,2.47,11.5-1.67,15.92-3.93,7.37-3.75,11.4-3.66,12.62,5.85.93,7.29,3.25,14.42,5,21.6,2,8.2-.84,13.9-8.84,16.85-7.51,2.75-15.16,5.22-22.55,8.28-20.67,8.6-31.42,24-31.31,46.65.09,19.47,0,39-2,58.74-1-8.41-1.93-16.83-2.95-25.24-.43-3.38,1.09-8.87-4.46-8.2-4,.48-3.06,5.4-2.71,8.72.84,8,1.54,16,2.91,23.87.69,3.9-2.74,12.51,7.52,8.33,1.69-.68,1.73,1.43,1.64,2.4-.58,5.84,2.22,12.67-4.77,16.68-2.31,1.32-2.2,3.55-1.9,5.74,1.51,11.62,1.54,23.35,4.38,34.87,3.83,15.45,2,31.37,2.71,47.09,1.71,2.12,1.1,4.72,1.41,7.13.26,1.82.1,4.48,1.93,4.92,16.82,4.07,29.27,18.86,48.61,17.67,23.41-1.43,47-.39,70.46-.41,1.25,0,2.47-.13,3.71-.11,2.79,0,5.8-.28,5.52,4.08-.26,4-3.18,3-5.46,3-17.41.06-33.65,4.18-48.07,14.16a140.92,140.92,0,0,0-13.74,11c-6.88,6.18-13.57,12.62-20.25,19-6.22,6-11.67,15.82-20.93,3.46-.32-.45-1.77-.06-2.68-.06,0,.63-.26,1.47.06,1.82,9.09,11,1.15,16.8-6.5,23.33-9.3,7.94-18,16.58-28.34,26.19V672.62C350.92,654.4,350.44,636.19,350.68,618ZM585.26,870.89c-21.63,1.78-43.21,3.12-64.32-3.69-3.73-1.19-9-1.6-5.31-8.19,1.19-2.13-.65-4.69-2.11-6.79-4.59-6.59-9-13.27-13.66-19.82-2.25-3.2-5.14-8.54-9-5.76s.67,7.3,2.71,10.38c5.42,8.15,11.29,16,17.12,24.15a7,7,0,0,1-6.91-.73A147.31,147.31,0,0,1,458,816.58c-8.28-12.3-17.45-24-25.94-36.17-7.18-10.32-16.94-14.85-29.3-14.55-6.81.16-13.63-.21-20.42.16-8.26.45-14.33-2.69-18.38-9.85-13.86-12.72-13.86-12.72-.42-25.3,9.24-8.65,18.65-17.13,27.6-26.1,4-4,6.38-5,9.33.84,1.79,3.52,4.7,6.47,7.06,9.72,1.26,1.75,3.19,2.47,4.84,1.58,2-1.06,1.39-3.23.5-4.94a58.64,58.64,0,0,0-3.32-5.53c-7.87-11.6-7.93-11.64,2.65-21.16,3.42-3.08,7-5.92,10.58-8.87,19.62-22.66,42.4-38.76,74.36-35.3,23.67,2.56,42.65,13.14,55.91,33.3,12.6,14.53,13,33,16.14,50.54,1.38,7.81,2,15.74,3,23.61,5.81,38.1,11.68,76.19,17.36,114.31C590,866.2,591.51,870.37,585.26,870.89Zm6.55-43.17C585.22,785,580.26,742,572.36,699.56c-6.13-32.78-27.44-53.78-59.62-63.26a42.07,42.07,0,0,1-6.2-1.76c-2.78-1.32-2.4-4.12-2.12-6.52.34-2.69,2.68-2,4.38-2,8,0,16.08,0,24.11,0v0c6.5,0,13-.15,19.49,0,18.92.48,33.08,12.29,35.94,30.88,9,58.58,17.5,117.24,26.54,175.82.91,5.9-1.22,6.62-6,7.38C590.18,843.16,594.3,843.79,591.81,827.72Zm26.88,34.86c-.41,10.37-10.81,5.32-15.84,5.71-10.65.8-7.18-10.52-6.88-15,.65-9.69,11.39-1.53,15-6.91C622.14,848.6,618.87,858,618.69,862.58Zm558.89-19c.46,7.63-5.33,5.9-9.73,5.31-9.19-1.24-17.24.09-22.77,8.5-2,3.14-5.24,2.86-8.34,2.53-35-3.85-70.18-5.26-105.27-7.58-21-.46-42-1-63-1.31-4-.06-6.39-.67-6.22-5.5.28-7.72.26-15.46-.05-23.16-.17-4.31,2.17-5.05,5.53-5.68,1.87-.36,4.64-.39,4.47-3.57s-2.62-2.87-4.73-2.78c-10,.37-2.45-9.49-7.48-12.1-2.23.89-2,3.21-1.9,5.16.28,4.71-1,7.7-6.44,7.7-2.17,0-4.79.8-4.56,3.49.15,1.84,2.47,2.71,4.38,2.45,6.51-.87,7,3.08,6.57,7.91-.09.93,0,1.85,0,2.78-.35,24.17-.35,24.17-24.81,23l-120.63,6c-10.68,1.12-21.37,2.21-32.06,3.35a6.35,6.35,0,0,1-6.42-2.77c-5.77-8.85-14-10-23.57-8.37-2.77.44-8,2.86-8.08-2.17,0-6-4.51-13.4,3.57-18.25,2.54-1.52,13.55,0,3.69-8.16-2.78-2.31,1.56-4.59,3.69-5.87,9.75-5.9,20.53-4.44,31.13-4H889.94c-2.75,9.3-2.75,9,7.4,8.21,8.91-.74,17.88-.8,26.82-1.12,2.82-.11,6.24.06,6.31-3.67s-3.41-3.66-6.18-3.62c-8,.11-16,.32-24.09.44-1.37,0-3.15,1-3.79-1.24-.55-2,.82-2.52,2.32-3.21,8.62-4,10.27-11.32,10.21-19.95-.15-26.88-.07-53.77.1-80.65.09-15.37,7.72-21.31,22.58-18,1.12.24,3,1,3,1.43-.34,6.57,3.08,13.64-1.49,19.64-19.56,25.78-14.62,50.24,13.5,65.78,8.91,1,8.91,1,13.9,11.58.17-9,6.14-9.69,12-11.45,28-8.46,37.09-41.6,17.71-64.13-2-2.3-5.53-4.18-4.94-7.41,1-5.25-4.77-13.41,4.27-15.29,12.68-2.62,20.45,2.52,20.73,13.18.56,20.68.3,41.37.39,62.05,0,8.33.32,16.69,0,25-.22,6.51,1.43,12.16,5.83,17,11.71,9.08,25.35,4.64,38.08,4.9,33,.69,66.06.17,99.08.36a21.4,21.4,0,0,1,12.85,4.53c3.08,2.33,6.51,3.86,1.5,8.24-3.78,3.32.21,4.47,2.92,4.79C1182.57,829.15,1177.24,837.76,1177.58,843.55Zm-235.17-149c-.85-5.46,1-8.58,5.1-7.26,5.66.7,10.77-1.3,10.4,5.51-.47,8.52-8.3,5.85-12.66,7.52S942.76,696.75,942.41,694.51Zm13.94,11.26c3.95,1.38,1.24,9.54,1.37,14.65.34,11.84.11,23.68.11,37.38,5.22-3.77,4.22-7.22,4.25-10.25.11-12.65.13-25.31.26-38,0-2.75-.28-5.57,4.4-4.77,20.4,3.49,33,29.79,22.74,47.89-.74,1.28-1.58,2.71-4.38,1.87,0-6.35.07-13,0-19.6a33.9,33.9,0,0,0-.93-8.19c-.5-1.87-1.31-4.52-4.28-3.73-2.55.67-1.53,2.86-1.54,4.59-.1,10.19-.41,20.38-.21,30.57.11,5.73-2.34,8.7-7.78,9.43a70.71,70.71,0,0,1-11,1.11c-14.7-.3-16.91-2.67-16.91-17.32,0-7.4,0-14.83-.08-22.23,0-2.45,0-5.63-3.13-5.68s-3.57,3.25-3.64,5.58c-.22,7.67-.07,15.34-.07,23.93-8.69-8.52-8.15-26.1.13-35.73a33.83,33.83,0,0,1,4-3.88C944.56,709.23,950.54,703.75,956.35,705.77Zm19.13-6c-4.6-2.08-13,2.19-13.6-7.16-.41-6.87,5-4.33,8.28-5,6.12-1.15,8.93,1.13,8.13,7.29C978,696.94,979.14,701.39,975.48,699.72Zm322.21,130.49c-.75,5.53-2.21,8.63-8.47,7.55-1.78-.31-4.69-1.15-5,2.19s2,4.07,4.68,4.42c12.6,1.61,3.34,9.89,4.14,14.85,1,6.53-4.29,5.25-8.17,4.58a144.88,144.88,0,0,0-25.8-2.09c-4.06,0-7.7,1.09-8.26,5.58-.59,4.7,3.31,6.61,6.93,7.28,9.06,1.69,18.24,2.8,27.37,4.06,2.18.3,4.94.13,4.78,3-.21,3.93-3.66,2.61-5.74,2.32-16.15-2.36-32.28-4.92-48.43-7.41-13.84-.76-27.47-3.17-41-6a63.89,63.89,0,0,0-6.41-.94c-4.92-.25-7.13-.45-4.29-6.93,3.73-8.46.93-18.22,1.38-27.39.24-4.83.81-6.69,6.12-5.61,4.49.91,9.23.73,13.85.87,1.76,0,3.86.19,4.23-2.39.34-2.26-1-3.86-3-3.77-16.91.76-29-8.85-41.17-18.56-2.48-2-6.29-2.32-9.5-3.41q-61.53.11-123.08.18c-2.11,0-4.38.37-6.16-1.32-7.83-1.89-8.3-8-8.3-14.42q0-39.75-.05-79.53c0-20.68-5.51-26.73-25.84-27.07-5.46-.07-8.2-1.22-7.39-7.16a22,22,0,0,0-.31-6.42c-.37-2.21-1.47-4.44-4.07-4.25-2.78.2-2.93,2.52-2.74,4.84.13,1.84-.06,3.7.09,5.53.37,5-.6,8.11-6.94,7.59-5.31-.42-10-.05-9-7.61.38-2.65.73-5.58-2.13-8.25-3.45,2.7-2.47,6.58-2.12,9.74.67,6.22-2.74,6.44-7.23,5.94-3.88-.43-9,1.73-8.43-5.87.28-4.12,2.34-9.56-3.6-12.15-3.53,2.11-3.81,5.73-3.25,9,1.39,8.39-2.62,9.8-9.78,9-7.7-.87-14.7.83-19.73,7.59-3.55,4.75-4.23,10.08-4.23,15.74.05,26.56.07,53.14-.08,79.7-.09,16.37-3.06,19.38-19.56,19.4-25.62,0-51.25-.24-76.86-.39q-17.62.2-35.21.35c-11.79.09-22,3.84-28.87,13.79-4.78,6.94-12.17,4.66-18.41,6.44-4.4,1.25-12.55-.54-12,5.09.69,6.44,8.24,2.32,12.42,2.06,11.41-.73,10.58-1.1,11.76,10.15.82,7.91-3.84,15.52.37,23.76,1.58,3.1-3.26,6.38-7.87,6-15.88,4-32.09,5.76-48.35,7.32-14.59,2.3-29.16,4.64-43.76,6.85-1.88.28-4.66,1.54-5.11-1.93-.48-3.77,2.47-3.36,4.88-3.7,8.56-1.15,17.08-2.5,25.64-3.6,5.14-.65,7.74-2.91,7.23-8.46-.51-5.92-4.69-4.64-8.2-4.55-8.63.2-17.3,0-25.85,1.78-2.94.63-7.56,2.47-7.13-3.47.39-5.23-6.59-11.93,2.69-15.59,3.08-1.21,7-1.45,5.94-6.42-11.79,1.56-13.12-5.24-14.46-15.11-6.48-47.65-14-95.16-21.12-142.72-1.43-9.44-2.55-19-4.57-28.3-4.16-19.21-19.62-32.41-39.31-33.26-14.18-.62-28.42-.54-42.6-.13-6.61.2-9.5-1.28-9.37-8.54.07-4.51,3.39-12.81-3.81-12.83-5,0-3.13,8.37-2.82,12.85.47,7.11-2,8.85-8.85,8.57-26.53-1-53.14,1.23-79.63-1.32-17.37-1.65-28.25-12.13-34.08-28.23-3-4.14-2.15-8.93-2.15-13.47q-.17-75.48,0-151c0-21.29,9.52-34.48,29.63-42,6.34-2.36,12.82-4.37,19.06-7,12.53-5.18,16.72-13.39,13.84-26.53-1.52-6.9-3-13.84-5-20.64-1.52-5.25-3.56-10,4.09-12.36,2.61-.83,3-5.42,0-5.27-12.83.61-7.8-10.49-11.16-15.94-.72-1.19-.43-3-.67-4.53-.78-5-6.74-10.23-3.1-14.3,2.92-3.24,9.56-3.26,14.59-4.52,28-7.06,56.07-14,84.08-21.11,3.44-.87,6.11-2.49,7.63,2.82,1.62,5.57-1.71,5.14-5.08,5.81q-11.79,2.37-23.47,5.16c-4.82,1.17-10.48,2.32-9,9.19,1.45,6.53,6.57,6.29,11.82,4.88a39,39,0,0,1,4.5-.7,73.34,73.34,0,0,1,25.8-4.07,64.23,64.23,0,0,1-25.66,7.2c-2.5,1.51-5.1,3.4-3.35,6.54,1.16,2.09,4,.92,6,.52,7.24-1.49,14.42-3.34,21.66-4.77,1.78-.36,4.66-2.18,5.46,1s-1.82,4-4.51,4.51c-5.74,1.09-11.45,2.37-17.17,3.67-1.93.45-3.62,1.6-3.29,3.77s2.46,2.86,4.31,2.6a156.52,156.52,0,0,0,17.28-3.06c5-1.34,7.2.18,8.32,5.14,1.72,7.5,3.82,14.94,6.12,22.27,4.79,15.33,11.71,19.69,27.75,17.17,19.49-3.08,38.89-6.66,58.38-9.76,49.07-7.78,98.24-14.7,147.89-18.08,49.37-3.36,98.78-5.31,148.21-7.11,6.63-.26,9.76.09,8.5,8.56-1.52,10-.63,20.34-.69,30.55,0,2.52.26,5.38,3.64,5.34s3.34-3.06,3.36-5.47c.06-10.84.54-21.7-.17-32.47-.35-5.51.9-7.16,6.22-6.77,4.68.35,10-1.82,9.65,6.63-.55,11.73-.22,23.49-.05,35.24,0,2.84-1.32,6.24,2.39,8.67,3.33-4.82,1.64-10.17,1.78-15.14.3-8.95.21-17.93,0-26.9-.12-5.36-.33-9.22,7.5-8.72,6.65.42,9.17,1.5,8.6,8.72-.78,9.84-.3,19.79-.19,29.68,0,2.8-1.13,7.18,3.32,7,3.75-.15,3.83-4.24,3.83-7.37,0-10.53.42-21.07-.41-31.52-.41-5.12.54-6.24,5.42-6,34.6,1.46,69.23,2.28,103.79,4.14,35.18,1.89,70.31,4.19,105.3,8.42,40.74,4.94,81.24,11.35,121.72,18,10,1.65,20,3.75,30.15,4.56,12.34,1,18.19-3.08,22.38-14.81,2.71-7.53,5.4-15.25,6.46-23.11,1-7.29,4.64-7.57,10.08-6.47,4.53.89,9,1.87,13.59,2.61,2.59.41,5.21-.05,5.68-3.23.42-3-2.12-3.23-4.25-3.65-5.44-1.1-10.84-2.27-16.28-3.34-2.56-.52-4-2-3.29-4.55s2.88-1.58,4.59-1.21c7.49,1.64,15,3.14,22.47,5,4.46,1.12,5.72-.48,4.94-4.6l-29-8.56a63.16,63.16,0,0,1,29.29,3.79,53,53,0,0,0,6.39,1c4.15.19,7.18-1.61,8.16-5.86,1.08-4.62-1.56-7.11-5.57-8.08-9-2.13-18-4.14-27.09-5.88-3.72-.71-6.78-1.43-5.83-6.2,1.06-5.38,4.6-3.53,7.89-2.71,31.66,7.81,63.31,15.68,95,23.29,5.31,1.29,5.29,4,3.84,8.06-3.15,8.82-6.12,17.65-7.16,27.06-.43,3.81-3.9,1.49-6,1.71-1.82.19-3.84-.24-4.58,2.08-1,3,1.32,4,3.38,4.42,6.58,1.15,5.29,5.06,4,9.57-2.07,7.43-4,14.93-5.43,22.48-2.79,14.24,1.74,22.24,15.35,27.42,6.33,2.41,12.82,4.36,19.17,6.71,17,6.37,28.08,21.54,28.12,39.67.15,49.15,0,98.3-.09,147.45,0,6.46-.69,12.79-3.68,18.65-.61,13.13-14.48,25.88-30.81,28s-32.74,1.06-49.11,1.23c-11.14.11-22.29-.17-33.39.35-6.57.32-9.64-1.13-9.19-8.54.26-4.38,2.73-12.67-2.54-12.73-7.09-.07-3.86,8.3-3.81,12.73.11,7.13-2.32,9-9.13,8.63-12.66-.61-25.36-.57-38-.31-24.74.52-41.12,15.37-44.59,39.79-1.13,7.93-2.67,15.82-4,23.71-3.92,27.75-7.76,55.51-11.77,83.26C1304.09,786.92,1300.62,808.53,1297.69,830.21Zm18.43,37.95c-5.24-.7-15.37,4.18-15.87-8.33,4-3.25-3.55-14.59,7.9-12.19,5.28,1.11,15.37-3.64,15.45,6.58C1323.63,858.64,1327.25,869.65,1316.12,868.16Zm4.73-26.63c-3.64-.63-7.33-1.69-11-1.6-5.59.15-6-2.84-5.33-7q6.77-44.8,13.53-89.59,5.81-38.24,11.66-76.46c.86-14.85,5.09-27.91,18.8-36,4.29-2.55,8.76-4.51,13.89-4.55q23.16-.16,46.29-.39c3,0,5.64.11,5.68,4.16,0,3.1-.67,4.88-4.33,5.71-25.24,5.68-43.52,20.74-56.44,42.79-10.77,26.06-11.3,54.14-15.83,81.41-4.23,25.54-7.59,51.22-11.07,76.88C1326.18,840.86,1324.69,842.2,1320.85,841.53Zm39.85,31c-8,0-16-1.22-24-1.35-5.77-.09-7.53-2.27-6.62-7.93,2.34-14.55,4.28-29.16,6.59-45,14.92,11.17,28.77,21.57,42.63,32-.28.69-.56,1.36-.83,2-7.5-1.46-15-3-22.54-4.36a70.34,70.34,0,0,0-9.17-1.06c-1.46-.07-3.08.43-3.26,2.44-.15,1.67.11,3,2.11,3.37,11.75,2.36,23.41,6.07,35.23,6.74,11.34.65,11.43-.72,18.69,7.09C1386.76,871.43,1373.77,872.54,1360.7,872.56Zm36.66-126.69a60.31,60.31,0,0,0-13.09-10.27c-11.71-6.48-13.49-16.3-11.56-28.32,3.53-21.87,15.68-37,35.12-46.8,5.51-2.78,7.92-1.8,6.88,5-.68,4.52-.42,9.24-.26,13.86.21,6.66-.94,12-6.36,17.24-10.81,10.32-10.51,29.18-.11,40.32,3.76,4,6.68,7.78,6.38,13.62-.15,3,.39,7.07,4.23,7.13,4.16.07,2.75-4.12,2.69-6.46-.16-6.2,3.85-4,6.89-3.79,15,1,27.73-7.29,32.28-20.95a30.48,30.48,0,0,0-12.59-35.58c-7.62-4.83-16.26-4.55-24.77-4.9-1.79.16-1.77-.91-1.51-2.16.11-2.06.21-4.1.3-6.16-.15-2.15-.39-4.29-.41-6.44-.15-16.74-.07-17.15,16.56-15.11,11.73,1.43,22.77,5.27,31.07,14.5,6.49,5.53,12.49,11.47,15.89,19.52,6.18,14.65,8.35,28.18-3.57,42.06s-22.1,29.68-32.57,45c-3.6,5.27-6.13,3.12-9.54.41-4.66-3.68-9.47-8.13-14.28,0-1,1.79-2.39,2.49-4.23.34-5.75-6.78-6.92.17-6.42,3.08,1.58,9.08-3,15.24-8,21.72-8.23,10.8-16.24,21.77-24.15,32.79-2.66,3.73-4.44,4.77-8.59,1.25-7.26-6.2-15.21-11.62-23.09-17-3.88-2.68-4.66-4.42-1.36-8.65,9.45-12.2,18.25-24.87,27.17-37.44,2-2.88,3.21-5.46,7.91-3.29,5.25,2.42,11.42,2.58,14.35-3.89C1401.78,759.62,1403.56,752.12,1397.36,745.87Zm23.89-26.94c0-1.82.09-3.89-2.6-4s-3.77,1.6-4.12,4c-.54,3.59,1.39,7.32-1.15,12-4.33-3.39-4.92-7.55-5.51-11.75-2.07-14.38,11.13-24.72,21-25.87,13.55-1.62,25.44,9.54,25.74,23.13.28,13.1-11.06,24.13-24.26,23.79-6.22-.15-10-2-9.17-9.26C1421.67,727,1421.3,723,1421.25,718.93ZM1419.11,858c-2.13,1.25-4.27,2.49-6.48,3.57-.74.37-1.72.26-5.36.68,7.3-9.52,13.51-17.48,19.56-25.57,2.08-2.79,6.07-6.09,1.67-9.4s-6.64,1.36-8.74,4.12c-5,6.65-10.17,13.28-14.4,20.42-3.19,5.38-5.77,5.4-9.71,1.23a20.39,20.39,0,0,0-5.29-3.73c-4.9-2.6-5.7-5.22-1.89-10,8.35-10.47,16-21.46,24-32.18,4.36,3.23.67,11.58,6,10.65s2.1-7.91,2.67-12.18c.6-4.53-.37-9.11,2.23-13.49,6.65-11.16,12.75-11.64,21.24-1.49,2.07,2.49,1.41,4.4-.19,6.56-2.19,3-4.45,5.92-6.46,9-1.5,2.32-3.34,5.1,0,7.22,3,1.87,5.27-.21,7.17-2.38,1.41-1.61,2.39-3.62,3.88-5.16,2.8-2.93,3.11-10.63,10.58-4.64,5.53,4.44,8.63,7.17,3,14.46C1450.09,832,1437.15,847.54,1419.11,858Zm78.13-28.32c1.7,1.52-.89,3.84-2.1,5.53-13.14,18.23-26.39,36.36-39.39,54.68-2.71,3.81-4.49,4.9-8.54,1.37a237.43,237.43,0,0,0-19.15-14.44c-3.4-2.41-5.36-4.08-.35-7,20.3-12,35.76-29,48.31-48.74,1.08-1.71,1.6-4.16,4.7-4C1486.16,821.07,1492,825,1497.24,829.67Zm68.34-82.8c-10.49,11.54-20.55,22.61-39,19.41-20-3.45-35.69,4.14-45.27,22.74a37.5,37.5,0,0,1-3.79,5.27c-4.86,6.59-13.34,5.83-17.2-1.47-.87-1.67-.43-2.76.56-4.12,2.91-4,7.12-8.35-1.81-10.56-1.67-.41-.64-2.24-.07-3,3.12-4.23,6.35-8.37,9.65-12.46.48-.59,2.06-1.24,2.25-1,8.37,8.92,8.78-2.51,11.23-5.13,5.21-5.55,9.09-12.42,13.27-18.89,1.67-2.58,6.42-5.94-.84-8-1-.26-.63-2-.24-3.28,10.67-35.64-15.89-74-53.66-77.7-45.88-4.43-79,28.27-75.21,74.21.43,5.23,2.23,9.48,6.48,12.71,5.88,4.5,11.56,9.28,17.54,13.65,5,3.65,5.37,8.7,2.88,13.1-2.64,4.68-6.52,1.1-9.47-.8-5.08-3.25-7.27.41-9.61,3.71-10.19,14.37-20.29,28.77-30.46,43.12-1,1.41-1.65,3.49-5.11,3,1.82-12,3.7-24,5.42-36.05,3.36-23.2,5.92-46.55,10.12-69.6,5.53-30.4,23.09-51.58,52.82-61.05,28.2-9,53.65-2.67,75.7,16.91,10.39,9.23,20.21,19.08,30.66,28.23,4.23,3.71,4.6,6.68,1.21,10.88a90.08,90.08,0,0,0-6.8,9.91c-1.15,1.93-1.5,4.7.3,6,2.41,1.78,3.82-1.05,5-2.56a57.12,57.12,0,0,0,6.33-9.09c2.45-4.68,4.45-5.7,8.74-1.47,12.33,12.16,25,23.94,37.7,35.69C1567.81,741.86,1568.33,743.84,1565.58,746.87Zm38.94-158c-3.1,5.11-10.9.89-16.43,2.3-3.54.91-7,2.32-10.45,3.51-7.11,6.57-9,15-9.05,24.26,0,16-.36,32.09-.56,48.13q.53,29.52,1,59c0,1.43.42,3.2-1.39,3.94s-2.71-.87-3.77-1.89c-11.16-10.6-22.26-21.26-33.47-31.78-2.63-2.47-3.73-4.6-.87-7.69a10.37,10.37,0,0,0,3-8.44c-2-.69-3.93-.26-4.92,1.45-4.36,7.53-8.07,5.21-13,.15-7.93-8.23-16.71-15.58-24.86-23.6-17.39-17.13-38.31-25.29-62.56-25.39-2.7,0-5.94,1.1-5.8-3.45s3.61-3.41,6.17-3.41q36.14-.15,72.27-.08c15,0,28.75-3.21,39.87-14.09.65-.63,1.47-1.78,2.06-1.69,12.29,1.67,10.21-8,11.77-14.77,1.24-24,2.47-48,6.24-71.79,1-6.11,1.74-12.07-3.66-18-1.93-2.12-7.52-13.57,5-15.13,1.84-.22,1.34-2.5,1.49-3.93,1.11-10.73,2.32-21.46,3.23-32.22.5-6-1.49-8.67-7.35-4.35.59,8.32-1.52,16.35-3.36,24.52V451.8c-.15-9.87-.09-19.77-.45-29.64-.76-22-11.39-37.31-31.86-45.55-7.13-2.88-14.33-5.66-21.68-7.92-8.64-2.64-10.75-8.64-9.23-16.52,1.75-9.06,4.12-18,5.92-27.08.87-4.4,3.73-3.66,6.22-2.64,4.55,1.87,8.82,4.42,13.29,6.48,1.69.78,4,1,5.09-.74,1.2-1.88-.39-3.79-1.82-4.74-4.27-2.8-8.78-5.25-14.67-8.7,15.32-1.28,27.4,5.62,40.34,8,3,.56,5.84,1.93,8.81,2.73,23.46,6.33,32.73,18,33.17,42.52.22,12.68,0,25.36.15,38,.17,9.34,3.1,17.14,13.44,19.51,6.23,1.45,3.77,6.39,3.78,9.8.08,44.83-.09,89.65-.18,134.5,0,.61,0,1.22,0,1.85C1605.26,577.5,1607.14,584.57,1604.52,588.91Zm14.25-185.26q42.69-.13,85.35,0c2.73,0,6.55-1.49,6.68,3.75s-3.66,3.82-6.44,3.84c-11.75.07-23.5,0-35.25.06-5,0-10.24-.69-10.37,7-.13,8.41,5.68,7.3,10.87,7.35,11.46.13,22.89.38,34.32.21,5.16-.08,6.94,1.69,6.89,7-.28,26-.24,51.95-.11,77.93,0,4.35-1.25,6.09-5.74,6-12-.19-23.92-.06-35.88-.06-.11-.54-.22-1.06-.31-1.58,2.19-1,4.36-2,6.61-2.89,11.63-4.62,17.68-14.14,18.43-25.67.7-11.1-4-21.07-14-27.64-3.93-2.62-8.46-3.64-12.82-5.12-5.5-1.89.22-9.41-7-11.94,3.21,10.77-4.07,12.81-11.47,15.37-12.83,4.44-17.75,17.25-18.18,27.49-.38,9.17,5.15,20.86,16,26.39,2.39,1.23,4.62,2.75,9.44,5.65-14.7,0-26.78,0-38.86,0-4.16,0-4.09-2.9-4.09-5.76.08-26.91.23-53.81.1-80.7,0-3.94,1.58-4.75,4.84-4.73,7.43.07,14.85.13,22.28,0,5.1-.1,11.21,1.05,11.32-7.13s-5.64-7.37-11-7.33c-7.13.07-14.24.07-21.35.13-3.1,0-6.55.63-6.4-4.25C1612.8,402.39,1616.31,403.65,1618.77,403.65Zm44.77,68.74c2.71-3.29-2.6-9.47,4-10.49,6.44-1,18.71,10.84,17.43,17.54-1.73,8.95-9.78,3.47-14.85,4.19C1659.22,485.18,1666.64,475.91,1663.54,472.39Zm.63,24.59c.71-3.75-1.67-9.6,1.53-10.32,5.7-1.3,12.06-.11,18.08.61,2.52.3,1.59,2.94,1,4.51a22.9,22.9,0,0,1-7.4,10.27c-3.27,2.73-7.22,6.51-11.1,5.18C1661.89,505.7,1665.31,500.28,1664.17,497Zm-3.87-24.48c1.31,9.17-2,13.34-11.62,11.36-1.12-.23-2.38.18-4.48.41,1.15.91,1.38,1.26,1.64,1.28,15.2,1.26,15.25,1.5,14.51,17.72-.18,3.94-1.54,4.94-5,4-9-2.3-16-12.9-16.18-24.46-.13-8,7.31-17.66,15.1-20.35,4.74-1.63,6.3-.11,6.11,4.48A29.22,29.22,0,0,0,1660.3,472.5Zm50.56,59.1c-.52,13.88-.49,27.8-.08,41.67.24,8-3.88,11.69-10.58,14.18-9.46,3.49-19.38,3.41-29.21,4-2.55,12.59-1.36,14,11.24,14.07,9.64.08,18.68-3,28.37-5.68,0,14.78-.13,28.92.05,43.06.06,4.25-1.82,5.16-5.59,5.16-28.38-.09-56.77-.16-85.15,0-5.74,0-7.43-2-7.17-7.63.48-9.83.48-19.73.21-29.58-.12-4.66,1.69-5.76,6-5.7,11.1.17,22.22.18,33.32-.19,10.51-.35,12.21-3.73,7.48-13.6-12.34-.13-24.72-1-37-.15-8.74.61-10.1-2.56-9.84-10.25.56-16.65.41-33.33.06-50-.12-5.35,1.37-7.33,6.7-6.83,14,1.26,28.23,1.22,42,1.22,13.53,0,27.5.13,41.2-1.22C1708.72,523.63,1711.08,525.16,1710.86,531.6Zm7.38,35.87v-133C1723.46,439.57,1723.74,558.64,1718.24,567.47Z"/><path class="cls-2" d="M504.68,433.49c17.22-8.43,33.67-9.75,50.14-2.1,21.49,10,32,27.69,32.72,50.73.39,13.2,1.5,26.57-1,39.79-6.33,33.82-39,53.7-71.94,43.13-7.69-2.47-12.26-3.51-10.48,7a11.43,11.43,0,0,1-.56,4.56c-.48,1.84-1.35,3.6-3.73,3.23a2.83,2.83,0,0,1-2.51-3.34c3.9-16.35-7.81-26.43-14.7-38.78-13.38-24-7.32-75.45,10.64-95.29,4.47-4.94,3.22-10.23,3.81-15.58.32-2.91-.91-7.59,2.71-7.89,4.52-.38,3.88,4.55,4.37,7.73C504.44,428.46,504.45,430.31,504.68,433.49Zm-9.09,17.57c-6.86,6.56-9.85,14.37-10.73,22.6a232.93,232.93,0,0,0-.15,45.35,47.49,47.49,0,0,0,7.39,20.78c1.15,1.86,2.77,4.87,5.18.93,1.12-1.82,2-4.54,4.59-3.43,2.07.89,2.13,3.66,2,5.81-.27,6,1.19,10.38,7.45,13.22,28.93,13.15,62-3.8,67.49-35.13,2.69-15.36,1.78-30.84.17-46.23-3.27-31.26-39.54-50.68-67.77-36.64-5.28,2.63-8.34,5.78-7.49,12.14.56,4.12,1.27,10.62-3.24,11.1C495.75,462.07,498.81,454.82,495.59,451.06Z"/><path class="cls-2" d="M1419.44,580.56c-5.85-1.41-5.28-6.15-4.69-10.21,1.08-7.45-1-8.19-8-6-27.92,9-53.25-.2-67.21-24-2.31-3.94-4.57-8.28-5.32-12.69-3.35-19.59-4-39.48-.2-58.92,6.11-31.11,39.93-49.78,70-39.68,6.06,2,12.24,5.53,10.8-5.91a3.57,3.57,0,0,1,3.86-4.22c3.31.16,2.66,3.16,2.4,5-1.42,9.79,2.84,16.74,9.41,23.66,8.07,8.51,11.74,19.62,12.29,31.27.66,13.86,1,27.75-.59,41.64-1.26,10.89-5.39,20.47-13,27.93-6.62,6.44-9,13.53-8,22.36.36,3.31.61,6.82-1.7,9.78Zm3.17-36.51c.66-.19,1.44-.17,1.76-.54a31.3,31.3,0,0,0,2.67-3.7c12.44-19.76,9.07-41.53,8-63a43.78,43.78,0,0,0-6.93-20.82c-1.28-2.07-2.38-5.24-4.95-5-3.58.39-1.7,3.91-2,6.08-.28,1.82,0,4.14-2.32,4.39-2.78.29-3.45-2.11-3.7-4.3-.4-3.36-1-6.77-.79-10.11.27-4-1.13-6.22-4.56-8.08-26.46-14.32-61.65,1-68.21,30.45a130.32,130.32,0,0,0-.2,54.21c5.87,29,38.61,44.91,65.8,33,5.17-2.27,8.12-5.21,7.48-11.12-.37-3.39-.68-7.79,3.34-8.57C1423.11,536,1419.42,542.68,1422.61,544.05Z"/><path class="cls-2" d="M1157.71,774.77c-9.46,1-18.81,1.53-28.25-.83-17.45-4.38-28.19-16.27-36.45-31.21-6.85-19.87-3-40.47-4.14-60.73,4-16.47,11.4-30.46,26.54-39.55a55.64,55.64,0,0,1,81.45,29c1.23,3.48,2.29,7,3.43,10.52,0,12.92.44,25.87-.19,38.76C1198.76,748.58,1183.69,766.05,1157.71,774.77Zm-47.17-21.89c12.3,14,27.67,18,45.49,13.85,12.8-2.75,22-10.21,28.92-21.18,5.11-8.14,7.15-17,7.14-26.38,0-13.68,2.55-27.59-2.93-40.89,1.47-1.72.61-3.52.06-5.22-5.33-16.73-25.16-31.06-43.69-31.62-18.69-.58-37.06,11.48-44.09,28.93-1.47,2.3-2.87,4.56-3.27,7.42a200.08,200.08,0,0,0-.38,51.4A36.51,36.51,0,0,0,1110.54,752.88Z"/><path class="cls-2" d="M801.07,640.5c20.87,12.17,30.22,30.61,29.77,54.45q-.2,10.62-.06,21.26c.26,23.53-9.35,41.56-29.71,53.66-31.57,14.47-62.25.1-73.69-20.8A52.82,52.82,0,0,1,720.87,730c-2-16-2.57-32.23-.26-48C726.36,642.85,762.9,624.48,801.07,640.5Zm6.33,14.6C794,642.33,778.18,638.47,760.65,644c-16.45,5.19-27.72,16.76-31.38,33.42a131.75,131.75,0,0,0-.27,54.19c3.63,18.06,15.9,29.93,33.33,34.87,17.82,5.06,34.08,1.21,46.72-13.47A40.51,40.51,0,0,0,822,728.22,159.51,159.51,0,0,0,822,682C820.45,671.3,815.82,662.16,807.4,655.1Z"/><path class="cls-2" d="M478.46,286.75c2.67.34,6.76-.38,7.1,2.75.38,3.6-3.93,3.94-6.68,5-6.63,2.53-14.21,2.42-22.45,8.16a79.54,79.54,0,0,0,26.79-4.3c6.89-2.27,12.33,1.77,18.54,1.91,2.34.05,2.58,3.08,2.57,5.32-.06,10.49-.07,21-.22,31.48,0,2.4-.12,5.72-3.12,5.83-3.65.15-3.95-3.25-3.93-6.11.09-9.88.09-19.76.49-29.62.19-4.63-1.66-7-5.72-4.72-9.91,5.6-21,5.84-31.7,8.11-2.38.51-5.7,1.91-7.49-1.29s2.84-4,3.41-6.36c-3.24-4.56-13.53,4.88-12.49-6.82A227.7,227.7,0,0,0,478.46,286.75Zm-20.84,17.66-.61-1c-.18.19-.55.42-.52.55A5.53,5.53,0,0,0,457,305Z"/><path class="cls-2" d="M725.25,865.65a173.86,173.86,0,0,1-46.4,6c-4.31-10.91-3.79-12.08,6.82-13.7,10.26-1.56,20.53-3,30.82-4.35C726.54,852.28,729,855.83,725.25,865.65Z"/><path class="cls-2" d="M439.43,292.57c-4.08-.51-9,.57-9.32-6.06-.31-6.05,3.69-6.86,8.14-7.88,10.81-2.48,21.55-5.23,32.33-7.84,3.3-.81,6.55-1.86,9,2s1.37,6.91-1.21,10C465.87,288,452.5,289.68,439.43,292.57Z"/><path class="cls-2" d="M1439.89,282.76c-1.06-12.9.74-14.41,13.13-11.17,8.92,2.33,17.83,4.74,26.81,6.84,4.66,1.1,9.25,1.7,9.09,8.14-.18,7.56-6.09,5.1-10.11,6Z"/><path class="cls-2" d="M958.66,488.53V397.05l2.21,0v91.73Z"/><path class="cls-2" d="M960.84,623.82c-3.53-7.09-4.13-83.36,0-93.16Z"/><path class="cls-2" d="M650.5,837.5c2.13-5.44,7.28-4.8,11.62-5.76,5.68-1.26,11.37-2.47,17.06-3.71,3.35-.41,6.7-.94,10.06-1.18,1.68-.12,3.92-.69,4.4,2,.37,2.05-.45,4.09-2.44,4.4-13.26,2-26,7.41-39.81,5.8C651,839,650.79,838,650.5,837.5Z"/><path class="cls-2" d="M984.93,447.8c0,5.85.15,11.69-.07,17.53-.1,2.67-1.68,5-4.63,4.62s-2.37-3.12-2.37-5.19c0-11.38.08-22.76.12-34.15,0-2.16-.27-4.85,2.48-5.2,3.12-.39,4.29,2.43,4.41,4.86.3,5.83.1,11.69.1,17.53Z"/><path class="cls-2" d="M978.11,626q0-9.21,0-18.42c0-2,.4-3.84,2.69-4a3.55,3.55,0,0,1,3.69,3.45,249.31,249.31,0,0,1,.18,37.67c-.12,1.73-1.32,3.69-3.57,3.53-2.82-.2-3.09-2.42-3.08-4.7,0-5.84,0-11.67,0-17.51Z"/><path class="cls-2" d="M978,505.06c0-5.25.12-10.51-.05-15.75-.07-2.32-.18-4.58,2.61-5,2.16-.32,3.57,1.48,3.76,3.36a174,174,0,0,1,0,37.83c-.18,1.54-1.58,3.91-3.73,3.45-1.83-.39-2.58-2.39-2.57-4.41,0-6.49,0-13,0-19.48Z"/><path class="cls-2" d="M1421.23,380.56c0,5.82,0,11.64,0,17.46,0,1.92-.45,3.66-3,3.69a3.14,3.14,0,0,1-3.45-3.42q-.18-18.37-.12-36.75c0-2.3,1.91-3.07,3.81-3.14,2.5-.1,2.82,1.82,2.83,3.77q0,9.19,0,18.39Z"/><path class="cls-2" d="M942.27,506.22c0,5.54.06,11.09,0,16.63,0,2.44,0,5.32-3.65,5.08-2.74-.17-3.35-2.36-3.34-4.66q.06-17.08.2-34.17c0-2.36.67-4.46,3.59-4.23s3.24,2.48,3.26,4.72c.07,5.54,0,11.09,0,16.63Z"/><path class="cls-2" d="M503.9,379.59c0,6.16.1,12.33-.07,18.49-.05,1.75-.67,3.84-3.1,3.79a3.4,3.4,0,0,1-3.39-3.66q-.06-18.48.21-37c0-1.83,1.27-3.75,3.5-3.4,2.06.33,2.88,2.29,2.92,4.18.11,5.85,0,11.71,0,17.56Z"/><path class="cls-2" d="M938.67,648.26c-1.11-1.4-3.18-2.81-3.17-4.2.1-13.4-1.87-26.88,1.36-40.16,3.14-.19,5.53.53,5.52,4.36,0,11.71,0,23.41-.07,35.12C942.31,645.88,940.65,647.21,938.67,648.26Z"/><path class="cls-2" d="M942.28,447.29c0,5.55.05,11.1,0,16.64,0,2.42.14,5.37-3.45,5.17-2.45-.13-3.66-2-3.62-4.51.21-11.7.35-23.4.64-35.1,0-1.86.71-3.76,3.24-3.56,2.27.18,3.14,1.85,3.17,3.8C942.34,435.58,942.27,441.44,942.28,447.29Z"/><path class="cls-2" d="M978,565.64c0-4.92-.06-9.84,0-14.76,0-2.28-1.1-5.67,2.31-6s4.57,3,4.63,5.69c.23,11.06.11,22.13.1,33.2,0,2.48-.91,4.26-3.74,4s-3.37-2.21-3.37-4.59c0-5.84,0-11.68,0-17.52Z"/><path class="cls-2" d="M942.26,388.42c0,5.84,0,11.68,0,17.52,0,2-.82,4.11-2.7,4.26a3.87,3.87,0,0,1-4.19-4c0-11.68.06-23.36.31-35,0-1.69.83-3.9,3.16-3.83,2.64.09,3.52,2.1,3.53,4.48,0,5.53,0,11.07,0,16.6Z"/><path class="cls-2" d="M978.06,386.54c0-4.92,0-9.85,0-14.77,0-2-1.14-4.66,2.07-5.14s4.58,2.17,4.63,4.55c.28,11.69.23,23.38.24,35.08a3.09,3.09,0,0,1-3.48,3.37c-2.27-.06-3.25-1.75-3.28-3.7-.12-6.46,0-12.93,0-19.39Z"/><path class="cls-2" d="M938.68,589l-3.3-2.35c0-11.73,0-23.46,0-35.19,0-2.46.24-5.67,3.19-5.85,3.89-.24,3.72,3.24,3.72,6,0,10.19-.08,20.38-.08,30.57C942.26,585.13,941.89,587.78,938.68,589Z"/><path class="cls-2" d="M1421.23,322.39c0,5.54,0,11.08,0,16.62,0,2-.37,3.72-2.93,3.68-2.2,0-3.56-1.23-3.61-3.34-.26-12.29-1-24.6.8-36.84.24-1.66,1-3.06,2.89-2.86s2.47,1.86,2.49,3.37c.12,6.46.05,12.91.05,19.37Z"/><path class="cls-2" d="M1465.72,305.39c2.09,3.22,2.77,5.72-2.59,5.43-12-.64-23.4-4.43-35.06-6.87-1.89-.4-3.32-1.15-3.21-3.61.14-2.85,2.08-2.49,3.85-2.52,2.46,0,4.92,0,7.38,0Z"/><path class="cls-2" d="M1436.07,294.35c-4.22-5.22-1.22-6.94,3.74-7.71,3.1,1.12,6.14,2.43,9.29,3.32,8.67,2.45,17.91,3,25.84,7.89-.44,7.36-6.36,2-9.13,3.93A114.3,114.3,0,0,0,1436.07,294.35Z"/><path class="cls-2" d="M959.68,634.05c3.36,6,3.47,8,.88,16.56C957.18,646,957,642.34,959.68,634.05Z"/><path class="cls-2" d="M959.55,518.82c-2.51-7.15-1.57-12.56-.68-18.61C963.46,505.79,963.6,508.65,959.55,518.82Z"/><path class="cls-2" d="M959.64,385.66c-2.48-7.93-2-13.35-.62-21.29C963.64,372.39,962.81,378.06,959.64,385.66Z"/><path class="cls-2" d="M959.48,232.2c.61,13.94,9.37,12,17.18,11.74,5.24-.15,10.48,0,15.73,0,2.31,0,4.53.27,4.53,3.23,0,2.8-2.23,3.86-4.43,3.54-7.34-1.05-7.78,3-7.49,8.72.42,8.31.11,16.65.09,25,0,3.25-.55,6.95-4.33,7-5.37.08-2.62-4.55-2.69-7-.25-9.25-.23-18.51.16-27.75.19-4.51-1.3-5.94-5.7-5.79-8,.26-16,.34-24,0-4.77-.21-6.45,1.15-6.24,6.13.39,9.24.09,18.51,0,27.76,0,2.39.49,5.37-3.09,5.61-4.18.28-4-2.93-4-5.74,0-9.25-.18-18.51.09-27.75.14-4.55-.81-7-6-6.42-2.81.33-6-.19-5.5-4.21.5-3.72,3.84-2.22,6-2.33,4.92-.25,9.87-.13,14.8-.1C951.76,243.91,961,246.93,959.48,232.2Z"/><path class="cls-2" d="M716.17,260.05a69.62,69.62,0,0,1,8.25-.73c2.13,0,5.51-1.59,5.88,2.19a4.81,4.81,0,0,1-4.35,5.18c-11.88,1.25-23.78,2.26-35.69,3.25-1.79.15-4,.05-3.81-2.65.17-3.08,2.65-4.1,5.07-4.45,8.18-1.16,16.41-2,24.62-3Z"/><path class="cls-2" d="M822.45,258.1c-4.62,0-9.24.08-13.86,0-2.31-.05-5.35.67-5.36-3.2,0-2.67,1.8-3.63,4.19-4,12-1.7,24-1.52,36-1.67a3.47,3.47,0,0,1,3.77,3.27c.35,2.51-1.88,3.08-3.59,3.27-7,.78-14.09,1.31-21.13,1.93Z"/><path class="cls-2" d="M1095.83,257.58c-7-.65-14-1.27-21-2-1.93-.19-3.9-.92-3.64-3.2.23-1.93,1.8-3.12,3.94-3.16a285.12,285.12,0,0,1,36.72,1.85c2,.23,3.51.91,3.21,3.41-.32,2.74-2.19,3.63-4.49,3.57-4.9-.11-9.79-.46-14.69-.71Z"/><path class="cls-2" d="M1031.17,245.7c7.86.66,13.7,1.15,19.54,1.66,2.42.21,5.22-.06,5,3.75-.21,3.11-2.66,3.28-4.7,3.17q-17.07-.92-34.12-2.23c-2-.15-4.89-.22-4.45-3.38.36-2.6,2.76-3,5-3Z"/><path class="cls-2" d="M885.92,253.53c-5.51.27-11,.74-16.52.7-2.3,0-5.14-.52-5.35-3.83-.25-4.15,3.26-3,5.26-3.16,10.4-.68,20.81-1,31.22-1.57,3.07-.15,5.7.29,5.51,4.16-.17,3.55-2.95,3.22-5.42,3.21-4.9,0-9.8,0-14.71,0Z"/><path class="cls-2" d="M1226.16,269.94c-10.71-1.19-21.12-2.4-31.54-3.47-2.53-.26-4.25-1.12-3.94-3.9.32-3,2.69-3,4.89-2.78,10.43.95,20.88,1.78,31.27,3.09,2.62.33,7.33-.1,6.73,4.37S1228.57,269.28,1226.16,269.94Z"/><path class="cls-2" d="M577.11,286.76c-4.29-.55-8.32,1-9-2.31-.79-3.95,3.62-3.31,6-3.83,9.92-2.18,19.89-4.1,29.85-6.06,2.76-.55,5.94-1.28,6.45,2.79.43,3.44-2.53,3.67-5,4.13Z"/><path class="cls-2" d="M1285.91,277.17c-10.47-1.48-20.23-2.65-29.9-4.37-2.6-.46-7.32-.4-6.59-4.65.59-3.5,4.68-2.19,7.15-1.92,10.08,1.08,20.12,2.49,30.16,3.88,2.77.39,6.23,1.13,5.5,4.72S1287.72,276.93,1285.91,277.17Z"/><path class="cls-2" d="M757.59,262.69c-3.87-1.31-12.58,2.82-12.77-2.45-.24-6.77,8.56-3.82,13.43-4.61,8.14-1.31,16.41-1.8,24.64-2.52,2-.18,4.56-.94,5.31,2,.9,3.54-2,4.1-4.3,4.57A119.75,119.75,0,0,1,757.59,262.69Z"/><path class="cls-2" d="M1343.65,287.1c-10.09-1.92-20.3-3.92-30.54-5.76-2.68-.49-5.21-1.47-4.89-4.36.4-3.52,3.64-2.64,5.9-2.24,10.25,1.8,20.48,3.69,30.68,5.78,2.4.49,6.63-.13,6,3.87S1346.23,285.82,1343.65,287.1Z"/><path class="cls-2" d="M1159.84,262.53c-7.78.94-15.25-1.48-22.9-2.08-2.18-.17-5.25-.62-5.23-4,0-3.8,3.1-3.34,5.38-3.14,11.32,1,22.63,2.18,33.94,3.3,1.57.15,3.13.4,3.23,2.41.12,2.28-1.28,3.4-3.36,3.47C1167.22,262.62,1163.53,262.53,1159.84,262.53Z"/><path class="cls-2" d="M636.16,269.52l29.77-3.71c1.7.86,4.87-.67,5,2.64.07,2-1.66,3.26-3.59,3.56-11.8,1.83-23.6,3.67-35.43,5.29-2.71.37-5.08-1.17-5.11-4.08s2.75-2.76,4.8-3.11C633.11,269.86,634.64,269.71,636.16,269.52Z"/><path class="cls-2" d="M1235.68,872.16c-13.7-1.54-27.47-2.75-40.88-6.22-4.68-6.4-2.69-12.66,4.75-12.68,13.63,0,26.89,3.6,40.28,5.81,4.27.7,3.06,4.5,3.31,7.5C1243.66,872.66,1238.93,871.33,1235.68,872.16Z"/><path class="cls-2" d="M1232.18,826.74c10.16,2,21,4,31.83,6.15,2.16.44,4,1.78,3.67,4.52-.34,3.19-2.85,3-4.86,2.65-10.85-1.94-21.68-4-32.47-6.22-2-.41-4.32-1.6-4-4.31C1226.76,826.53,1229.39,827.13,1232.18,826.74Z"/><path class="cls-2" d="M496.67,676.44c.16-4.91.28-9.83.48-14.74.11-2.46.12-5.69,3.05-6,3.82-.36,3.79,3.18,4,5.92.2,2.44.28,4.9.41,7.35-.13,3.7-.07,7.42-.43,11.09-.62,6.2,1,10.48,6.3,14.93,14.88,12.55,13.24,32.66-2.86,47.45-4.68,1.4-3.11,5.37-3.43,8.51-.28,2.71.21,6.35-3.16,6.86-4,.6-3.87-3.1-3.89-5.82,0-3.1-1-4.49-4.4-4-9.9,1.43-17.79-3.22-25.36-8.72-13.88-19.94-11-37.89,7.53-49.63a18.85,18.85,0,0,1,12.15-2.52C495.76,687.93,498.87,684.86,496.67,676.44ZM504,735.05c10-9.67,11.46-20.1,5.38-30.21-5.28-8.78-18.33-13.32-28-9.72-10.3,3.85-17.11,15.6-15,25.79,2.6,12.28,13.63,20.89,25.3,20.12,4.13-.27,5.25-2.31,5.19-5.94-.07-4.62-.08-9.25.09-13.87.09-2.61-.51-6.34,3.58-6.14,3.82.2,3.3,3.79,3.37,6.47C504.11,725.53,504,729.51,504,735.05Z"/><path class="cls-2" d="M427.53,744.81c-1.84-2.42-3.71-4.82-5.51-7.27-1.49-2-5.11-4.22-1.81-6.63a6.44,6.44,0,0,1,9.06,1.61c4.45,5.86,8.72,11.84,13.09,17.75,1.09,1.48,2.24,2.91,3.36,4.36.34.85.74,1.68,1,2.55.83,2.63,4.27,5.69.06,7.81-3.45,1.75-5.58-1.46-7.4-3.9C435.36,755.72,431.47,750.24,427.53,744.81Z"/><path class="cls-2" d="M482.3,811.17c-.13.29-.31,1.93-1.1,2.31a3.85,3.85,0,0,1-5-1c-6.94-9.71-14.75-18.84-19.93-29.72-.65-1.36-1-3.18.39-4.24a4.34,4.34,0,0,1,3.31-.31C463.65,779.25,482.28,806.19,482.3,811.17Z"/><path class="cls-2" d="M504,797.05c0,5.51.14,11-.08,16.54-.08,2-.39,4.78-3,4.85-2.42.07-3.66-2.2-3.67-4.48,0-11.64,0-23.28.2-34.91,0-1.71.76-3.9,3-3.93,2.79,0,3.5,2.37,3.57,4.47.19,5.82.07,11.64.07,17.46Z"/><path class="cls-2" d="M569,846.81c3.28.24,6-1,6.7,1.94.79,3.47-2.17,3.78-4.55,4.28q-16.09,3.4-32.21,6.78c-2.23.46-4.65.35-5.2-2.31-.61-2.9,1.2-4.32,4.08-4.84C548.67,850.71,559.46,848.62,569,846.81Z"/><path class="cls-2" d="M360.28,373.62c-2.77-.74-2.42-2.71-1.56-4.95a79.44,79.44,0,0,1,18.41-28.32c2.15-2.12,4.64-3.63,7.2-1.13s.06,4.47-1.63,6.1c-6.95,6.69-12,14.66-16.22,23.26C365.25,371.1,363.83,373.52,360.28,373.62Z"/><path class="cls-2" d="M348.56,413.47c.85-7,1.59-14.07,2.63-21.07.31-2,1.25-4.34,4.21-3.78,2.37.46,2.58,2.45,2.51,4.29-.43,11.64-3.52,23.23-.36,34.93a2.84,2.84,0,0,1-2.1,3.59c-2.18.57-3.61-.51-4.3-2.45A48.9,48.9,0,0,1,348.56,413.47Z"/><path class="cls-2" d="M1562.53,369.94c-.46,1.19-.57,2.72-1.37,3.3-1.34,1-2.9.22-4.27-.66-3-1.94-4.17-5.26-6.07-8-4.69-6.88-9.53-13.65-14.12-20.6-1.16-1.77-1.94-4.4,0-6,1.72-1.36,3.42.54,4.76,1.67C1551.17,347.82,1557.5,358.29,1562.53,369.94Z"/><path class="cls-2" d="M1562.67,409c-.46-4.46-1.22-9.64-1.42-14.83-.07-1.88-.06-4.66,2.7-5.18,2.31-.44,3.34,1.66,3.77,3.32,3.2,12.47,2.36,25-.19,37.42-.18.87-1.83,2.18-2.56,2-1.6-.29-2.27-1.94-2.28-3.55C1562.64,422,1562.67,415.86,1562.67,409Z"/><path class="cls-2" d="M803,823.7c-9.4.81-18.81,1.6-28.21,2.44-2.86.25-6,.41-6.32-3.27-.3-3.25,2.67-3.5,5.13-3.88,3.61-.56,7.21-1.19,10.81-1.8,5.82-.36,11.64-1,17.46-1,3.36,0,8.72-2.77,9.67,2C812.71,824.31,806.25,822.39,803,823.7Z"/><path class="cls-2" d="M837.14,820.9c-1.24,0-2.48,0-3.71,0-2.42,0-5.75.62-6.21-2.46-.57-3.76,3.2-4.3,5.75-4.44,10.49-.59,21-1,31.35-2.93,3.53-.66,5.18,1.56,5.54,4.68.45,3.89-2.58,3.44-5,3.56-9.25.48-18.51.92-27.76,1.38Z"/><path class="cls-2" d="M940.51,782.33c3.21,9.95,2.69,19.92.09,29.89-11.21-4.54-3.44-14-5.17-21C934.63,788,933.06,781.93,940.51,782.33Z"/><path class="cls-2" d="M1016.67,810.17c2.77,1.85,5.91,1.42,9,1.38,5.48-.07,7.36,2.34,5.44,7.55-11.94-1-23.87-2.05-35.87-1.62-2.56.09-5.1.06-4.9-3.67.19-3.47,2.62-3.69,5.18-3.69C1002.55,810.12,1009.61,810.15,1016.67,810.17Z"/><path class="cls-2" d="M978.24,796.64c0-3.35,0-6.7,0-10,0-1.79-.55-3.79,2-4.3a3.2,3.2,0,0,1,4,2.81,68.49,68.49,0,0,1-.16,25.37,4.4,4.4,0,0,1-3.11,2.81c-2.26.16-2.74-2-2.79-3.83-.1-4.27,0-8.54,0-12.82Z"/><path class="cls-2" d="M1115.45,816.19c10.47.62,19.68,1.15,28.9,1.72,3,.19,6.65-.13,6,4.69-.53,4-3.87,3.52-6.44,3.33-9.2-.7-18.38-1.66-27.55-2.62-3.42-.36-8.82.83-8.26-4.58C1108.6,814.09,1113.74,816.91,1115.45,816.19Z"/><path class="cls-2" d="M1079.5,820.5c-8.59-.38-17.19-.7-25.78-1.2-2.14-.12-5.61,1.06-5.26-3,.24-2.93,2-5.3,5.41-5q16.53,1.28,33.05,2.83c2.26.22,4.14,1.5,3.92,4.21-.26,3.24-2.87,2.6-4.9,2.61s-4.29-.21-6.44-.33Z"/><path class="cls-2" d="M381.18,666.92c-1.3,1.39-2.77,2.4-4.8,2.21-5.87-13-4.12-27.07-5.53-40.7-.19-1.9.59-3.95,3-3.68,3.58.39,4,3.51,4.23,6.24C379.21,643,380.17,654.94,381.18,666.92Z"/><path class="cls-2" d="M1545.17,668.78l-5-.19c-1.21-12.33,1.28-24.45,2.32-36.64.21-2.51.57-6.15,4.32-6,4.48.22,2.78,4,2.68,6.4C1549,644.63,1548.2,656.84,1545.17,668.78Z"/><path class="cls-2" d="M532.49,533.53c-22.63-1.89-39.38-12.42-39-39.55.31-21.91,17.59-39,39.87-38.81,21.91.21,39.48,18.06,39,39.67C572,517,554.84,533.61,532.49,533.53ZM504.07,494c-.13,21,10,32.37,28.76,32.39A32.34,32.34,0,0,0,565.25,495c.48-17.13-14.78-32.32-32.57-32.43C514.17,462.45,504.19,473.43,504.07,494Z"/><path class="cls-2" d="M1386.38,533.61A39.29,39.29,0,1,1,1426,493.55C1426.49,519.75,1408.3,533,1386.38,533.61Zm27.83-39.92c-1-6.05,2.72-13.58-3.44-20.11-11.08-11.74-28-14.7-41.13-6.52C1357,475,1351.16,491.6,1356.25,505c5.62,14.72,20.77,23.62,36,21.12C1407.68,523.57,1414.07,514.42,1414.21,493.69Z"/><rect class="cls-1" width="1" height="1"/><rect class="cls-1" x="1919" y="1079" width="1" height="1"/><rect class="cls-1" y="1079" width="1" height="1"/><rect class="cls-1" x="1919" width="1" height="1"/><polygon class="cls-1" points="1234.69 611.66 960 655.25 685.31 611.66 685.31 358.39 1234.69 358.39 1234.69 611.66"/></g><g id="Capa_3" data-name="Capa 3"><path d="M798.38,436V547H778.55V476.26L759,491.17,742.86,503.7l-16.18-12.53-19.51-14.91V547H687.34V436l19.83,15.23,35.69,27.44,35.69-27.44Z"/><path d="M852.3,472.93v75.5H832.47V470.86A15.81,15.81,0,0,0,819,457.38h-4.44V437.71h4.28v.16a35.55,35.55,0,0,1,13.48,3.65,35.17,35.17,0,0,1,16,16.18,42.55,42.55,0,0,1,2.7,7.45,33.53,33.53,0,0,1,1,8.09Z"/><path d="M978.71,469.6a32.67,32.67,0,0,1-9.2,22.84A32.75,32.75,0,0,1,946,548h-78.2V528.13H946a13.07,13.07,0,0,0,13-13,12.92,12.92,0,0,0-12.21-13h-59V482.29h59a13,13,0,0,0-.63-26H868V436.45h78.2a32.62,32.62,0,0,1,32.67,32.67Z"/><path d="M1105.6,469.6a32.67,32.67,0,0,1-9.2,22.84A32.75,32.75,0,0,1,1072.92,548H994.73V528.13h78.19a13.07,13.07,0,0,0,13-13,12.92,12.92,0,0,0-12.21-13h-59V482.29h59a13,13,0,0,0-.64-26h-78.2V436.45h78.2a32.63,32.63,0,0,1,32.68,32.67Z"/><path d="M1229.79,502a31.69,31.69,0,0,1,2.69,12.85,32.63,32.63,0,0,1-32.67,32.68h-78.2V527.65h78.2a12.93,12.93,0,0,0,12.85-13,12.78,12.78,0,0,0-11.42-12.85h-79.63V436.45h101.67v19.82h-81.84V482h59.64a32.15,32.15,0,0,1,28.86,19.82Z"/></g></g></svg>