<svg xmlns="http://www.w3.org/2000/svg" viewBox="0 0 1920 1080"><defs><style>.cls-1{fill:#f2f2f2;}.cls-2{fill:#010202;}</style></defs><g id="Capa_2" data-name="Capa 2"><g id="Capa_1-2" data-name="Capa 1"><rect class="cls-1" width="1" height="1"/><rect class="cls-1" x="1919" y="1079" width="1" height="1"/><rect class="cls-1" y="1079" width="1" height="1"/><rect class="cls-1" x="1919" width="1" height="1"/></g><g id="Capa_3" data-name="Capa 3"><path class="cls-2" d="M1766,715.12c-.76-40.42-.71-80.87-.89-121.28l-5.12-1.52c-3.25-.18-5.82-.38-8.41-.46-16.33-.49-16.35-.48-16.37-17,0-20.4-.18-40.8.09-61.21.14-10.7-7.06-16.69-13.24-18-3.43-.75-7.08-.62-10.64-.63-27.54-.07-55.08,0-82.62-.13-8,0-8.07-.17-8.1-8.08-.06-23.32,0-46.64,0-70a70.88,70.88,0,0,0-1.27-15.45c-6.23-27.52-23.07-45.8-49.12-55.68-17.21-6.54-34.64-12.55-52.06-18.56-106.79-36.86-214.31-70.9-326.9-85.81-41.1-5.45-82.17-10.94-123.47-14.53-10.76-1-10.77-.72-11.49-11.84-.62-9.39-3.51-12.84-12.57-14.34a67.28,67.28,0,0,0-20.33-.2c-9.16,1.29-11.41,4.15-12.29,13.3-.29,3.07,1.2,6.47-2,10-.62-6.31-4.54-6.86-9.34-6.78l-77.95-.13c-6.23-.36-9.75,1.39-10.63,7.7,0,.18-1.12.21-2.09.37-.17-3.2-.38-6.35-.51-9.51-.48-11.72-3.4-14.72-15.42-14.76-31,0-29,4.59-29,4.59-.17,3.67-.35,6.76-.46,9.86-.42,10.87-.42,10.76-10.7,11.59-38.43,3.1-76.64,8-114.8,13.4-45.21,6.35-90.19,13.93-134.51,25.07-71.89,18.06-142.29,41-212.21,65.43C377,335.65,362.35,340.7,348,346.44a77.11,77.11,0,0,0-48.32,64.61c-2.07,23.28-.74,46.62-1.12,69.93a69.43,69.43,0,0,0,0,7.77c.42,4.61-1.32,6.17-6,6.11-18.79-.2-37.59,0-56.38,0-10.7,0-21.38,0-32.08.2-13,.22-18.82,5.92-19,19.09-.25,19.1-.1,38.22-.18,57.33,0,4.85-.31,9.7-.4,14.56-.07,3.64-1.95,5-5.48,5.08-6.4.16-12.8.6-20.47,1-4.73,0-4.42,4-4.42,4v17.46c0,33,.16,66-.13,99-.09,9.69,2.67,17.2,9.94,24,17.64,16.52,12.07,16.35,39.79,16.4,44.36.06,88.72,0,133.08,0,3.16,0,6.41-.74,9.53.66.29,3.25-2.5,3.25-4.33,4.18-8.65,4.39-17.4,8.58-25.94,13.16-6.88,3.69-7.06,4.47-4,11.28,10,22.43,20.66,44.57,32.06,66.34,5.41,10.33,7.65,11,18.31,5.85,2.49-1.2,4.86-2.66,7.28-4,7.31-5.39,16.09-8.1,23.72-12.93,2.57-1.64,4.72-.81,6.71,1.59,11.65,14.09,27.32,18.89,44.91,19q43.24.15,86.5.13c11.31,0,11.31-.09,12.2,11.15.38,4.34,3,4.81,3,4.81h37.19c9.18-1.71,8.27-11.07,12.51-17.53,2.34,5.52,5.92,7.17,11.09,7.12,25.91-.26,51.84-.22,77.76-.24,3.39,0,6.13-.31,7.8-4.17,1.55-3.58,4-2.47,5.48.47a16.82,16.82,0,0,1,1,3.74c1.86,7.37,6.68,10.63,14.17,10.54,7.77-.11,15.56.2,23.33,0,8.14-.19,10.64-1.73,12.48-9.43,1.19-5,3.2-6.61,8.29-6.6l404.76.05c4.34,0,6.62.57,7.7,5.8,1.62,7.91,5,9.88,13.2,10.11,8.09.22,16.21.14,24.31-.1,7.63-.23,9.35-1.69,11.92-8.94,1-2.86,1-6.18,4.12-9.31,3.81,8.11,10.24,8.16,17.25,8.06,23.32-.31,46.66-.29,70-.11,5.79,0,10.65-.66,12.83-8.29,1.12,3,1.81,4.44,2.22,6,3,11.05,4.82,12.62,16,12.77,7.45.08,14.91.16,22.35,0,7.26-.21,9.93-2.45,12.18-8.91.8-2.31-1-5.79,2.21-6.84,2.35-.78,5.12-.38,7.7-.38q45.11,0,90.21,0a62.3,62.3,0,0,0,13.56-1.38c18.4-4,30.56-15.36,38.72-31.3,9.72-19,19.76-37.84,29.21-57,5.12-10.34,12-15.29,24.3-15.14,44.38.57,88.78.13,133.17-.07,26.88-.12,21.35,2.06,43.33-19.68C1764.11,728.35,1766.13,722.49,1766,715.12Zm-68.89-203.25c1.47-.92,1.73-1.24,2-1.24,6.43,0,14.39-2.61,18.87,1.11,4.77,4,1.57,12.15,1.75,18.47.35,12.3.2,24.61.07,36.91a188.51,188.51,0,0,0,2,31.78h-19.52c-3.12,0-4.75-1.45-4.74-4.7,0-1.94-.38-3.88-.38-5.82C1697.08,562.81,1697.09,537.25,1697.09,511.87Zm-688.95-262c.13-8.19.07-8.45,8.35-10.4,5.13-1.2,8-4,8.78-9,.79-4.75,1.41-9.53,2.09-14.21,1.83-1.32,3.84-.89,5.74-.89,7.47,0,7.47,0,7.75,7.95.44,12.43,3.15,15.85,16,17.4,28.28,3.39,56.67,6,84.93,9.53,72.6,9.14,144.57,21.22,215.07,41.64,68.95,20,137,42.59,204.47,67,18.9,6.84,33.61,17.79,40.47,37.45.73,2.1,1.64,4.13,1.24,7-4,0-7-2.7-10.52-3.84-3.14-1-5.22-2.93-3.15-6.46,1.32-2.24.12-3.75-1.18-5.11-8.11-8.49-17.09-15.84-28-20.53a10,10,0,0,0-3.76-.86,3.39,3.39,0,0,0-2.45,1.11,2.62,2.62,0,0,0,.37,3.53c2,1.61,4.2,2.94,6.33,4.37,6.9,4.6,14.45,8.47,18.57,16.34-2,1.3-3.38.16-4.78-.45-33.77-14.76-68.3-27.55-103-39.87-1.82-.65-3.64-1.34-5.5-1.9-4.69-1.4-3.31-5.25-2.67-8,.71-3.09,3.56-2,5.63-1.13,2.81,1.2,5.63,1.67,8.48.54a3.35,3.35,0,0,0,.68-5.93,18.31,18.31,0,0,0-4.68-1.83c-9.9-3-19.79-6-29.75-8.84-2.33-.65-5-1.78-7.76.78,2.7,5.35,8.45,6.2,13.12,8.46,7,3.36,7,3.23,5,11.83q-37.68-12.7-75.72-24c-68-20.18-136.91-36.19-207.19-46.31-51.7-7.44-103.63-11.12-155.77-12.85-7.33-.25-7.34-.18-7.38-7.59C1008,253.07,1008.11,251.45,1008.14,249.83Zm446.79,106.85c-4.22.11-7.93-1.64-11.77-2.79-19.8-6-39.59-12-59.43-17.82-149.66-46.84-270-52.75-270-52.75-31.59-3.27-63.31-4.13-95-5.66-1.62-.08-3.24-.22-4.86-.21-3.3,0-4.58-1.72-4.52-4.84.07-3.73,2.87-2.86,4.9-2.79,19.74.62,39.51.89,59.22,2.14,52,3.31,103.58,10.66,154.84,20.24,67.2,12.55,132.75,31.1,197.7,52.1,8.28,2.68,16.49,5.59,24.77,8.33C1452.68,353.25,1454.72,353.46,1454.93,356.68ZM344.21,365.06a116.7,116.7,0,0,1,15.11-6.49c73.79-27,148.33-51.61,224.14-72.3,42.17-11.52,84.95-20.09,128.15-26.77,47-7.25,94.19-13.44,141.63-17.48,4.19-.36,8.36-1,12.52-1.58,8-1.18,12.67-6.08,13.39-14.09a23,23,0,0,0-.06-4.84c-.55-4.55,1-6.78,5.93-6.06a21.84,21.84,0,0,0,4.84-.11c2.81-.22,4.06,1,3.92,3.6-.06,1.12-.15,2.25-.14,3.37.08,13,1.08,14.6,12.79,17.89,4.46,1.25,4.46,1.25,5.63,7.57-5.4-3.07-11-2.33-16.53-2.37-8.08-.06-16.17.56-24.27.57-5,0-6.07,2.61-5.51,8.17,15.17-1.21,30.53.07,46-2.54a20.59,20.59,0,0,1,.42,3.52c-.27,7.39-.33,7.36-7.84,7.45-45.73.51-91.18,4.56-136.55,10-100.69,12-197.87,38.71-294,70-3,1-6.11,1.88-9.32,2.87-2.09-6.06.23-9.49,5.51-11.65,3.58-1.47,7.09-3.12,10.56-4.85,1.46-.74,2.71-2,2-3.89-.54-1.48-2.05-1.38-3.28-1.11A223.43,223.43,0,0,0,444,334.24a7.88,7.88,0,0,0-2.37,1.66,3.75,3.75,0,0,0-.91,4.44c.59,1.26,2.13,1.32,3.39,1.13,4.12-.62,8.21-1.36,12.31-2.05,1.31,8.48,1.39,8.69-6.13,11.37-26.79,9.54-53.49,19.35-79.86,30-9.5,3.83-18.9,7.91-28.76,12.05,3.08-7.57,6.56-11.07,16.2-16.87,2.75-1.66,5.48-3.4,8.05-5.32.53-.39.64-1.8.44-2.62s-1.14-1.37-2.22-1.44c-8-.54-30.84,15.51-33.07,23.35a5.06,5.06,0,0,0-.24,2.85c1.65,4.33-1,5.77-4.34,6.9S320,402,315.54,403.58C320.69,386.25,329.17,373.15,344.21,365.06Zm563.62-87.81a22.69,22.69,0,0,1-4.82.42c-25.92.64-27.36.15-53.27,1-43.84,1.45-159.65,18.69-235.15,37.45C538.46,335,476.59,354,476.59,354c-3.9,1.22-7.64,3.45-13.08,2.9,3.18-4.14,6.85-4.58,10.15-5.71C553,324.13,633.72,302,716.41,287.78c54.91-9.46,110.21-16,166-17,8.09-.12,16.18-.64,24.27-.9,1.48-.05,3.52-.5,3.71,1.85S910.76,276.52,907.83,277.25ZM200.5,572.7c.06-18.06.05-36.12.12-54.17,0-8,.12-8,7.61-8.27,14.41-.52,14.49-.52,14.47,14,0,22.25-.12,44.51-.36,66.76-.08,7.4-.33,7.42-7.54,7.47-5.69,0-11.4,0-17.73,0C200.36,589.38,200.48,581.05,200.5,572.7ZM274,737.39c-11.23-.18-18.87-7.53-25.73-15.59-12.27-14.43-10.55-52.87-1.15-64.71,8-10.1,17.39-17.2,30.45-18.72,2.9-.34,5.79-.76,8.7-1,13.5-.91,13.5-.88,19.53,11.23q20.12,40.35,40.17,80.71c1.22,2.49,3.51,4.76,2.57,8.16C323.63,737.52,298.79,737.79,274,737.39Zm37.2-98.86c5.55,4.69,44.79,81.81,55.22,108.91-4.59-3.31-6.52-7-8.32-10.71Q334.6,689,311.29,641.14C310.88,640.29,310.29,639.45,311.16,638.53Zm72.68,181.05a32.39,32.39,0,0,1-2.12-4.35c-.79-1.75-1.43-4.08-4-2.73-2.18,1.17-3.74,3.28-1.91,6.36a23.63,23.63,0,0,1,2.3,5.31c1,3.36,4,6,3,11.06-4.28-2.79-5-7.37-7.39-10.65-1.85-2.54-2.61-8.16-7.11-5.93-4.32,2.14-2.26,5.9-.63,9.13,1.1,2.17,2.91,5.74,4.19,7.83,1.83,3,.5,4.55-2,6.24-3.58,2.42-5,.33-6.72-3.39a40.45,40.45,0,0,0-4.06-6.66c-2.07-2.84-3.29-6.69-8.07-7.22-.79,8.35,5.49,14.78,4.8,23q-17.38-34.27-34.76-68.53c6.7,6.76,10.17,15.33,14.92,23.14,1.84,3,2.89,9.34,7.32,7.25,4.72-2.22.1-6.74-1.28-9.79-3.85-8.52-8.27-16.8-12.62-25.49,1.63-1.08,2.84-2,4.16-2.74,3.53-2,5.84-1.19,7.57,2.67,2.91,6.49,6.18,12.81,9.38,19.16,1.3,2.59,2.81,5.08,4.26,7.6.87,1.52,2.16,2.58,3.92,1.71a3.85,3.85,0,0,0,2-4.07,29.49,29.49,0,0,0-2.38-6.32c-3.12-6.75-6.41-13.42-9.42-20.22-.83-1.89-2.35-3.84-1.47-6.93,4.5,3.31,4.8,8.27,7.49,11.71a46.34,46.34,0,0,1,8.58,17.08c1.41,5.46,4.27,5,6.87,4.07,2.37-.88,3-3,1.64-5.5q-5.88-11.14-11.59-22.39c-1.72-3.35-3.73-6.61-4.29-11.81,4.88,4.3,6.37,9.24,8.81,13.52,3.21,5.61,6,11.47,9.35,17,3.82,6.27,4.07,6.18,11.72,4.39a11.8,11.8,0,0,1,3.77-.69c1.75.17,2.6,1.73,3.28,3.21,1,2.28-.38,3.39-1.95,4.75-6.89,6-6.7,5.94-3.26,14.17,2,4.84,5.76,9,6.44,15.48C387.13,827.83,386.11,823.16,383.84,819.58Zm214.2,13c-.22,9.17-.22,9.17-9,10.11-7.14.78-9.67,2.46-10.48,10.21-.56,5.39-2.56,6.46-7.2,5.7a24.1,24.1,0,0,0-5.82,0c-4.22.33-6.64-.11-7.57-5.63-1.57-9.31-3.44-10.26-13.2-10.3-28.83-.14-57.64-.13-86.47-.14a200.16,200.16,0,0,1-24.23-1.27,34.19,34.19,0,0,1-17.53-7.66c-2.61-2.09-4.22-4.09-4-8,.39-7.37-5.25-12.94-7.54-20.36,3.28-.35,6.28,3.88,9.34.68.72-1.85-.79-3-1.6-4.24-6.12-9.14-12.34-18.16-15.7-28.85-1-3.07-2.49-7.56-7.38-3.49a1.84,1.84,0,0,1-3.1-.66c-2.1-4-4.07-8-6-12.13-.38-.8-.65-1.93.47-2.47,6.09-3,2.65-6.93,1-10.53Q376,730.3,369.58,717.23c-1.55-3.13-3-6.84-7.9-4.78-2.39,1-3.53-.43-4.4-2.38-1.31-3-2.76-5.85-4-8.84-.59-1.44-1.2-3.48,1.25-3.65,5.52-.41,4.44-3.68,2.9-6.71-5.7-11.24-11.56-22.39-17.44-33.54-.75-1.43-1.88-2.7-3.65-.9-3.32,3.36-4.93,1.4-6.26-2.25a46.64,46.64,0,0,0-3.16-6.94c-1.32-2.32-1.69-4.24.93-5.33s3.27-2.47,2.06-5.24c-5.25-12.16-5.35-25.18-6-38.1-2.18-1-4.39-1.48-6.69-.41v30.56c-4,1.41-8.5.29-12.88.41-7.43.19-14.88,0-22.32.2-24.73.64-45.31,18-49.59,42.4a95.44,95.44,0,0,0,.44,33.79c2.28,12.45,8.8,22.68,18.61,30.61-1.89,3-4.37,1.63-6.38,1.64-16.18.08-32.35-.18-48.52.07-6.87.1-11.82-2-17.06-6.91-8.11-7.53-10.56-15.67-10.27-26.53.77-29.41.34-58.84.39-88.27,0-9-1.06-8.64,8.08-8.62s18.09.29,27.14.45a29.52,29.52,0,0,1,11.62-.13c12.57-3.31,14.15-4.65,14.39-17.92.43-22.66.16-45.33.18-68V511.18c5.13-1.56,10-.78,14.77-.82,15.55-.16,31.11,0,46.66-.27,16.2-.24,21.14-4.8,21.4-20.76.36-23,.09-46,.19-69,0-7.32.19-7.42,7.46-9.14.23-1.89,2.07-2.11,3.32-2.64q35.34-14.76,70.74-29.31a20.09,20.09,0,0,1,3.76-.8c17.67-8.54,36.52-14.07,54.72-21.25a7.7,7.7,0,0,1,2.67,0,6.36,6.36,0,0,1,.24,1.19c0,.3,0,.79-.22.88-17.3,8.49-35.91,13.62-53.72,20.8-3.46,1.76-6.9,3.55-10.37,5.27-10.1,5-15.79,13.11-17,24.26A156.27,156.27,0,0,0,374.49,426c-.15,52.77-.12,105.54-.31,158.31a64,64,0,0,0,8.95,33.16c25.06,43.38,49.66,87,74.39,130.62,9.88,17.43,19.76,34.86,29.4,52.43,7.45,13.61,18.49,19.82,34.23,19.43q32.57-.79,65.15.07c12.75.32,11.74-1.87,11.84,9.66C598.15,830.66,598.06,831.64,598,832.61Zm626.56-3.53c-5.83.07-11.66.08-17.49.22-2.16.05-4.8-.28-4.47,3.31.26,2.92,2.13,3.71,4.68,3.69,5.5,0,11,0,16.51-.17,2.35-.08,3.72.62,3.8,3.07.07,2.28-.83,3.67-3.36,3.61s-5-.16-7.56,0a12.13,12.13,0,0,0-11.2,11.4c-.2,4.21-1.89,4.86-5.54,4.54-1.94-.16-3.89,0-5.84-.06-2.57-.09-5.41.35-7.64-.59-2.85-1.2-1.22-4.58-1.86-6.94-1.72-6.36-3.27-7.94-10.08-8.1-11.66-.27-23.32-.32-35-.32q-193.83,0-387.66,0-1.47,0-2.91,0c-11.68.22-11.68.22-14,11.86-.07.31,0,.71-.13,1-4.14,6.27-10.43,1.76-15.6,3-2.71.64-4.48-.17-4.89-3.94-1-9.72-3.1-11.3-12.91-11.9-2.26-.14-4.54,0-6.8-.12-2.07-.1-2.63-1.72-2.72-3.34-.1-1.91,1.05-3,3.18-2.92a73.36,73.36,0,0,0,7.56.14c3.84-.19,7.77.06,11.61-.36,2.18-.23,3.39-1.62,3.42-3.93,0-3-2.17-2.77-4-2.84-4.85-.18-9.72-.24-14.57-.34-1.62,0-3.26.06-4.85-.14-2.5-.32-2.86-2.21-2.78-4.28s1.29-2.85,3.12-2.91h54.15l64.35-14.42a672.65,672.65,0,0,1,293.84,0l64.33,14.39h53.26c3-.08,4,1.58,4,4.19C1228.37,828.15,1226.8,829.06,1224.6,829.08Zm89.08-6.62c-.54,7.41-.18,14.88-.42,22.32-.11,3.49.72,7.11-1.12,11-15.36,0-30.86,0-46.35,0-8.75,0-17.49-.16-26.23,0-3.35,0-4.67-1.23-4.45-4.52a41.17,41.17,0,0,0,0-7.77c-.64-5.28,1.42-7.75,6.79-7.57a13.58,13.58,0,0,0,3.8-.72,2.53,2.53,0,0,0,1.81-3,2.63,2.63,0,0,0-2.46-2.54,29.83,29.83,0,0,0-3.87-.26c-4.45.34-6.6-1.59-6.57-6.11,0-1.25-.86-2.5-.88-3.76-.08-4.78-2.85-5.79-7-5.72h-47.61L1101.76,797a672.57,672.57,0,0,0-283.55-.1l-77.67,16.72H693.68c-7.16.32-7.66.3-8.28,7.59-.5,5.82-1.91,9.25-8.55,8.3-2.46-.35-4.69.79-4.48,3.69.18,2.51,2.56,2.36,4.44,2.73,7.84,1.51,7.84,1.54,7.76,9.56,0,1.94-.2,3.89-.14,5.82.18,4.25-2.55,4.5-5.74,4.49-22.36-.08-44.72-.18-67.07-.07-4.27,0-5.65-1.64-5.57-5.72.16-9.4.2-18.79-.06-28.18S605.24,812,595.8,812c-24.3-.16-48.61-.55-72.89-.05-13.85.31-23.43-4.76-30-17-8.05-15.14-16.74-29.92-25.36-44.73-2.4-4.13-2.85-8.46-3-13-.4-11.31.47-22.67-1.42-33.91-3,0-5.84,0-5.72,4.39.17,7,0,14,0,21.92-3.53-2.21-4.38-5-5.71-7.42C432.58,688,414.17,653.48,394,620c-10.16-16.86-12.76-34.09-10.9-52.82-1.36-3.11-.76-6.4-.77-9.6q-.07-66.21-.06-132.42c0-.91-.06-2.4-.09-3.31-.74-16.92,7-27.87,23.38-34.14,15.39-5.9,30.73-11.93,46.31-17.33,2.76-.95,5.61-2.84,6.05,2.37a2.68,2.68,0,0,0,3.51,2.35,2.74,2.74,0,0,0,2-3c0-5.45,3.77-6.64,8-8.07,23.92-8,48.16-14.91,72.42-21.77C746.28,282.92,871,286.49,871,286.49c11.33-.44,22.66-.78,34-1.21,8.76-.33,13.33-3.94,14.3-12.58s.11-17.41.61-26a116.17,116.17,0,0,0-.13-15.94c-.33-4.31,0-6.41,4.17-6.36l71,.14c4.45-.21,5.47,1.4,5.41,5.49q-.29,18.94,0,37.9c.19,13.05,4.3,17,17.61,17.42,43.06,1.32,86.1,3.13,128.77,9.69,70.56,0,229.59,47.33,229.59,47.33,18.11,4.83,36,10.32,54,15.65,6.49,1.93,12.83,4.43,19.35,6.29,3.76,1.08,6.56,2.51,6.84,6.91.1,1.79-.11,4.38,2.64,4.27,2.16-.09,3.07-2,3.45-4.1a12.31,12.31,0,0,1,1.13-2.26c19.39,6.5,38.93,12.9,57.53,21.8,10.58,5.07,15.66,13.56,15.92,25.58.84,40.16,0,80.32.14,120.48.07,16.51.75,33-.74,49.52,1.66,10.27-2.63,18.94-7.47,27.45-13.44,23.58-26.94,47.14-40.31,70.76-6.68,11.82-13.1,23.78-19.71,35.62-1.35,2.42-2,5.37-5.85,7.63-.24-7-.63-13.21-.59-19.46,0-4.17-1.61-6-5.75-5.41-2.3,9.92-.77,20-1,30a40.11,40.11,0,0,1-9,25.24,129.94,129.94,0,0,0-17.7,31.46c-6.35,15.87-16.08,22.76-31.75,22.36-24.27-.61-48.56-.08-72.86.08C1314.77,812.23,1314.43,812.41,1313.68,822.46Zm436.86-107.39c0,3.92-1.86,6.29-4.14,9.24-8.73,11.26-19.71,14.13-33.74,13.81-42.42-1-84.9.29-127.31-.88-21.17-.58-34,8-42.65,26.58-8.69,18.76-18.86,36.83-28.24,55.27-7.78,15.28-19.92,23.28-37.26,23.3-30.13,0-60.25.24-90.38.36-4.21,0-8.43-.1-12.65,0-8.46.22-10.87,1.31-12,9.36-.85,6.36-3.6,7.17-8.78,6.64a108.27,108.27,0,0,0-10.84-.07c-.28-1.69-.41-2.91-.67-4.11-2.05-9.49-4.12-11.27-13.58-11.74-7.13-.36-7.13-.36-7.35-7.5-.51-15.54-.51-15.56,15-15.58,19.44,0,38.93-.91,58.31.24,19.88,1.18,32.33-7.61,41.35-24.34,11.18-20.78,23.19-41.11,34.8-61.67q31.49-55.76,62.9-111.56c3.79-6.74,7.35-13.61,11-20.42,0-2.71,0-5.42,1.35-7.88-1.18-3.47-.72-7-.71-10.59q0-79.53.16-159.07c0-1.93-.09-3.88,0-5.81.58-17.56-7.31-29.6-23.52-36.29-1.49-.61-2.87-1.48-4.3-2.22-18.2-6.89-36.69-13-54.48-20.92,5.38-1.36,42.74,11.55,58.1,19.27,17.79,5.91,35,13.28,52.19,20.66,7.13,3.05,14.26,6.07,21.29,9.32.78.35,6.27,2.26-.09,3.28-2,.32-1.65,2.47-1.59,4q.52,16,1.15,32a33.87,33.87,0,0,0,.55,4.82c.43,2.28,1.95,3.2,4.21,2.89s2.24-2.37,2.34-4.1c0-.87.07-1.75,0-2.62-.27-11.27-.52-22.53-.88-33.78,0-1.31-.39-2.75,1.15-3.15A2.78,2.78,0,0,1,1605,414a53.53,53.53,0,0,1,1,9.6c-.12,10.35-.49,20.71-.73,31.07-.31,13,.28,25.89.78,38.83.38,9.55,7.43,16.06,16.85,16.53,4.2.21,8.41.38,12.62.38,13.94,0,27.86-.17,41.8-.11,13.68.07,11.37-1.81,11.49,10.91.17,16.84,0,33.69.12,50.52.06,7.44.45,14.89,1,22.32.61,8.6,3,11.08,11.62,12.44a61.18,61.18,0,0,0,9,.72c11.27.11,22.56.22,33.82.06,4.23-.06,6.41.61,6.37,5.75C1750.38,647.05,1750.44,681.06,1750.54,715.07Z"/><path class="cls-1" d="M1537.36,537c-.14-40.16.7-80.32-.14-120.48-.26-12-5.34-20.51-15.92-25.58-18.6-8.9-38.14-15.3-57.53-21.8a12.31,12.31,0,0,0-1.13,2.26c-.38,2.06-1.29,4-3.45,4.1-2.75.11-2.54-2.48-2.64-4.27-.28-4.4-3.08-5.83-6.84-6.91-6.52-1.86-12.86-4.36-19.35-6.29-18-5.33-35.91-10.82-54-15.65,0,0-159-47.33-229.59-47.33-42.67-6.56-85.71-8.37-128.77-9.69-13.31-.4-17.42-4.37-17.61-17.42q-.29-19,0-37.9c.06-4.09-1-5.7-5.41-5.49l-71-.14c-4.14-.05-4.5,2-4.17,6.36a116.17,116.17,0,0,1,.13,15.94c-.5,8.63.36,17.44-.61,26S913.74,285,905,285.28c-11.33.43-22.66.77-34,1.21,0,0-124.71-3.57-327.1,55.79-24.26,6.86-48.5,13.77-72.42,21.77-4.27,1.43-8.06,2.62-8,8.07a2.74,2.74,0,0,1-2,3,2.68,2.68,0,0,1-3.51-2.35c-.44-5.21-3.29-3.32-6.05-2.37-15.58,5.4-30.92,11.43-46.31,17.33-16.34,6.27-24.12,17.22-23.38,34.14,0,.91.09,2.4.09,3.31q0,66.21.06,132.42c0,3.2-.59,6.49.77,9.6-1.86,18.73.74,36,10.9,52.82,20.18,33.49,38.59,68,57.79,102.12,1.33,2.37,2.18,5.21,5.71,7.42,0-7.93.13-14.94,0-21.92-.12-4.39,2.68-4.4,5.72-4.39,1.89,11.24,1,22.6,1.42,33.91.15,4.56.6,8.89,3,13C476.21,765,484.9,779.74,493,794.88c6.53,12.27,16.11,17.34,30,17,24.28-.5,48.59-.11,72.89.05,9.44.07,9.93.53,10.19,9.88s.22,18.78.06,28.18c-.08,4.08,1.3,5.74,5.57,5.72,22.35-.11,44.71,0,67.07.07,3.19,0,5.92-.24,5.74-4.49-.06-1.93.12-3.88.14-5.82.08-8,.08-8-7.76-9.56-1.88-.37-4.26-.22-4.44-2.73-.21-2.9,2-4,4.48-3.69,6.64,1,8-2.48,8.55-8.3.62-7.29,1.12-7.27,8.28-7.59h46.86l77.67-16.72a672.57,672.57,0,0,1,283.55.1l77.38,16.71h47.61c4.16-.07,6.93.94,7,5.72,0,1.26.88,2.51.88,3.76,0,4.52,2.12,6.45,6.57,6.11a29.83,29.83,0,0,1,3.87.26,2.63,2.63,0,0,1,2.46,2.54,2.53,2.53,0,0,1-1.81,3,13.58,13.58,0,0,1-3.8.72c-5.37-.18-7.43,2.29-6.79,7.57a41.17,41.17,0,0,1,0,7.77c-.22,3.29,1.1,4.57,4.45,4.52,8.74-.12,17.48,0,26.23,0,15.49,0,31,0,46.35,0,1.84-3.87,1-7.49,1.12-11,.24-7.44-.12-14.91.42-22.32.75-10.05,1.09-10.23,11-10.29,24.3-.16,48.59-.69,72.86-.08,15.67.4,25.4-6.49,31.75-22.36a129.94,129.94,0,0,1,17.7-31.46,40.11,40.11,0,0,0,9-25.24c.19-10-1.34-20,1-30,4.14-.55,5.78,1.24,5.75,5.41,0,6.25.35,12.5.59,19.46,3.81-2.26,4.5-5.21,5.85-7.63,6.61-11.84,13-23.8,19.71-35.62,13.37-23.62,26.87-47.18,40.31-70.76,4.84-8.51,9.13-17.18,7.47-27.45C1538.11,570,1537.43,553.46,1537.36,537ZM463.75,557.45c0,1.55.06,3.34-2.22,3.51s-3.71-1-3.71-3.3q.06-19.3.27-38.6a2.64,2.64,0,0,1,3.08-2.83c2.06.21,2.31,1.91,2.31,3.58,0,6.43,0,12.87,0,19.3h.28C463.77,545.22,463.8,551.34,463.75,557.45ZM461,454.55c2.7.17,2.37,2.63,2.39,4.46.07,6.47,0,12.95,0,19.43h-.08c0,6.47,0,12.95,0,19.43,0,1.32-.51,2.61-2.15,2.55a3.11,3.11,0,0,1-2.84-2.23,9.21,9.21,0,0,1-.34-2.88c0-12-.07-24,0-35.94C458,457.25,457.5,454.33,461,454.55Zm-.29-61.07c2.72-.16,3,1.82,3,3.87,0,12.28,0,24.56-.08,36.85,0,1.84.12,4.11-2.73,4.09-2.57,0-3.13-1.85-3.14-3.94,0-6.46,0-12.93,0-19.4h0c0-5.81.05-11.64,0-17.46C457.67,395.29,458.26,393.62,460.72,393.48Zm3.78,289.08c0,2.45-1.48,3.33-3.73,3.37-2.43.06-3.4-1.07-3.37-3.5.09-6.13,0-12.28,0-18.42h0c0-6.13,0-12.27,0-18.41,0-1.92.14-4.05,2.95-4s4.24,1.35,4.24,4.14Q464.57,664.16,464.5,682.56Zm0-61.59c-.11,2.19-1.2,3.64-3.59,3.6-3-.05-3.63-2-3.61-4.55,0-6.12,0-12.24,0-18.35h.24v-17.4c0-2,0-4,2.74-4.12,2.17-.07,3.82.68,3.94,3.15C464.79,595.85,465.08,608.41,464.49,621ZM651.41,836.38c-2.57.13-5.15.09-7.72.1q-11.12.06-22.21.08c-1.93,0-3.87,0-5.79,0-2.49,0-4.32-.66-4.47-3.74-.16-3.46,2.08-3.35,4.38-3.36H633v.13c6.1,0,12.22,0,18.34,0,1.81,0,4-.33,4.16,2.6S654,836.26,651.41,836.38Zm654.63-.06c-12.94.26-25.86.32-38.77-.7a2.84,2.84,0,0,1-2.89-3.13c0-2,1.14-2.79,3-2.79h19.4v-.1h18.43c2,0,4,0,4,2.83C1309.2,834.64,1308.49,836.28,1306,836.32Zm150.17-421.06h.12c0-5.8,0-11.61,0-17.41,0-2,.22-3.9,3-4,2.52-.06,3.35,1.32,3.35,3.57q0,18.38,0,36.77c0,2.1-.51,3.84-3.07,4-3.48.22-3.32-2.33-3.34-4.56C1456.16,427.53,1456.21,421.39,1456.21,415.26Zm.1,62.21c0-6.1,0-12.22,0-18.34,0-1.9.15-4.11,2.84-4.05,2.25,0,3.41,1.44,3.41,3.75,0,4.18.06,8.37.07,12.55q0,11.58,0,23.16c0,2.55.5,5.53-3.56,5.28-3.28-.2-3-2.73-3-5,0-5.78,0-11.58,0-17.37Zm-.21,42.65c0-2.06.61-3.77,3.3-3.62,2.44.15,3.3,1.43,3.28,3.72,0,6.43,0,12.85,0,19.27h.22c0,6.11-.05,12.22,0,18.32,0,2.51-1.16,3.32-3.5,3.28s-3.54-.94-3.52-3.38C1456,545.18,1456,532.65,1456.1,520.12ZM1455,586.47a8.71,8.71,0,0,0,.52-1.85c.1-3.46,2.13-4.39,5.15-3.91,2.7.42,2.37,2.63,2.38,4.46q.09,16.88,0,33.78c0,2.13.59,4.75-2.58,5.39-3.9.78-5.11-1.61-5.53-4.84A295.89,295.89,0,0,0,1455,586.47Zm4.44,99.43c-3-.07-3.92-1.63-3.92-4.29q0-17.45-.09-34.88c0-3,1.19-5.08,4.49-4.91,3.12.17,3.19,2.65,3.2,5,0,5.82,0,11.63,0,17.44s-.06,11.62,0,17.44C1463.19,684.32,1462.51,686,1459.42,685.9Z"/><path class="cls-2" d="M1462.92,557.81c0,2.51-1.16,3.32-3.5,3.28s-3.54-.94-3.52-3.38c.08-12.53.1-25.06.2-37.59,0-2.06.61-3.77,3.3-3.62,2.44.15,3.3,1.43,3.28,3.72,0,6.43,0,12.85,0,19.27h.22C1462.89,545.6,1462.84,551.71,1462.92,557.81Z"/><path class="cls-2" d="M1459.11,499.82c-3.28-.2-3-2.73-3-5,0-5.78,0-11.58,0-17.37h.19c0-6.1,0-12.22,0-18.34,0-1.9.15-4.11,2.84-4.05,2.25,0,3.41,1.44,3.41,3.75,0,4.18.06,8.37.07,12.55q0,11.58,0,23.16C1462.67,497.09,1463.17,500.07,1459.11,499.82Z"/><path class="cls-2" d="M655.49,832.19c.14,2.89-1.5,4.07-4.08,4.19s-5.15.09-7.72.1q-11.12.06-22.21.08c-1.93,0-3.87,0-5.79,0-2.49,0-4.32-.66-4.47-3.74-.16-3.46,2.08-3.35,4.38-3.36H633v.13c6.1,0,12.22,0,18.34,0C653.14,829.6,655.37,829.26,655.49,832.19Z"/><path class="cls-2" d="M1462.65,397.45q0,18.38,0,36.77c0,2.1-.51,3.84-3.07,4-3.48.22-3.32-2.33-3.34-4.56-.07-6.12,0-12.26,0-18.39h.12c0-5.8,0-11.61,0-17.41,0-2,.22-3.9,3-4C1461.82,393.82,1462.65,395.2,1462.65,397.45Z"/><path class="cls-2" d="M463.43,478.44h-.08c0,6.47,0,12.95,0,19.43,0,1.32-.51,2.61-2.15,2.55a3.11,3.11,0,0,1-2.84-2.23,9.21,9.21,0,0,1-.34-2.88c0-12-.07-24,0-35.94,0-2.12-.48-5,3-4.82,2.7.17,2.37,2.63,2.39,4.46C463.47,465.48,463.43,472,463.43,478.44Z"/><path class="cls-2" d="M463.71,397.35c0,12.28,0,24.56-.08,36.85,0,1.84.12,4.11-2.73,4.09-2.57,0-3.13-1.85-3.14-3.94,0-6.46,0-12.93,0-19.4h0c0-5.81.05-11.64,0-17.46,0-2.2.57-3.87,3-4C463.44,393.32,463.72,395.3,463.71,397.35Z"/><path class="cls-2" d="M463.75,557.45c0,1.55.06,3.34-2.22,3.51s-3.71-1-3.71-3.3q.06-19.3.27-38.6a2.64,2.64,0,0,1,3.08-2.83c2.06.21,2.31,1.91,2.31,3.58,0,6.43,0,12.87,0,19.3h.28C463.77,545.22,463.8,551.34,463.75,557.45Z"/><path class="cls-2" d="M1460.47,624.34c-3.9.78-5.11-1.61-5.53-4.84a295.89,295.89,0,0,0,0-33,8.71,8.71,0,0,0,.52-1.85c.1-3.46,2.13-4.39,5.15-3.91,2.7.42,2.37,2.63,2.38,4.46q.09,16.88,0,33.78C1463,621.08,1463.64,623.7,1460.47,624.34Z"/><path class="cls-2" d="M1463.15,681.66c0,2.66-.64,4.3-3.73,4.24s-3.92-1.63-3.92-4.29q0-17.45-.09-34.88c0-3,1.19-5.08,4.49-4.91,3.12.17,3.19,2.65,3.2,5,0,5.82,0,11.63,0,17.44S1463.06,675.84,1463.15,681.66Z"/><path class="cls-2" d="M1309.19,832.43c0,2.21-.7,3.85-3.15,3.89-12.94.26-25.86.32-38.77-.7a2.84,2.84,0,0,1-2.89-3.13c0-2,1.14-2.79,3-2.79h19.4v-.1h18.43C1307.15,829.61,1309.17,829.57,1309.19,832.43Z"/><path class="cls-2" d="M1660.45,706.74c-6.68,5.31-14.43,6.83-22.73,6.38-12.49-2.41-19.32-10.62-19.67-23.63-.38-14.15,5.65-22.17,19-25.31.94-.21,1.85-.5,2.77-.76l7.45,0c2.09.86,4.26,1.56,6.25,2.6,13,6.74,17.09,18.7,11.65,32.37C1664,701.51,1661.85,703.87,1660.45,706.74Zm-17.2-1.76c8.61-.12,16.65-8.55,16.4-17.21-.24-8.46-7.91-16-16.38-16.13a16.61,16.61,0,0,0-16.75,16.57C1626.58,697.2,1634.46,705.09,1643.25,705Z"/><path class="cls-2" d="M1458,835.52c-2.06.12-3.35.23-4.65.26-1.45,0-2.69-.69-2.7-2.08a4.87,4.87,0,0,1,1.32-3.46,10,10,0,0,1,4.37-1.8c10.9-2.07,21-6.22,31-11,1.68-.81,3.33-2.26,5.13-.15s1.32,4.15-.32,6.08a23.11,23.11,0,0,1-8.59,6.14A67.41,67.41,0,0,1,1458,835.52Z"/><path class="cls-2" d="M1509.39,807c-1.81-.46-3.13-1.33-3-3.26a5.33,5.33,0,0,1,1-2.67c6.62-9.6,11.49-20.15,16.83-30.46,1-2,2.49-4.06,5.32-2.58,2.68,1.4,3.53,3.35,2.18,6.38-4.58,10.35-9.74,20.35-16.66,29.37A7.6,7.6,0,0,1,1509.39,807Z"/><path class="cls-2" d="M1550.71,715.67c2.34-2.07,4.31-6.33,7.87-1.35-3.23,13.16-10,24.76-16.11,36.66-1.1,2.14-2.58,3.92-5.26,2.77-3.1-1.33-1.68-3.62-.83-5.65C1541,737.2,1543.5,725.4,1550.71,715.67Z"/><path class="cls-2" d="M1601.1,495.93c0,6.12-.07,12.24,0,18.36,0,2.53-.18,4.45-3.49,4.29-2.34-.11-3.58-1-3.55-3.4q.24-19.32.47-38.63c0-2.36,1.38-3.57,3.67-3.41,2,.15,2.36,1.73,2.35,3.47,0,6.44,0,12.88,0,19.32Z"/><path class="cls-2" d="M1350.93,829.49c6.1,0,12.19,0,18.29,0,1.69,0,3.33.55,3.51,2.48a3.65,3.65,0,0,1-3.07,4.19,23.77,23.77,0,0,1-4.78.32c-9.63.09-19.26.18-28.89.2a29.85,29.85,0,0,1-5.75-.41c-2.32-.44-2.76-2.34-2.73-4.39s1.55-2.68,3.2-2.7c6.74-.08,13.48,0,20.22,0Z"/><path class="cls-2" d="M1599.19,637.56c-5.91,5.24-5.91,5.24-10,1.39a11.42,11.42,0,0,0,2-7.58c.79-.49,1.28-1.06.57-2,2.73-10.28,1.67-21,3.25-31.35l5.77,0c.1,9.37.13,18.74.35,28.11A38.74,38.74,0,0,1,1599.19,637.56Z"/><path class="cls-2" d="M1462.87,788.73q0,9.21,0,18.43c0,2.18-.78,3.82-3.13,4.12-2.55.33-3.54-1.41-3.54-3.5,0-11.62-1.58-23.24-.27-34.86a23.7,23.7,0,0,1,1.15-4.68,3.21,3.21,0,0,1,3-2.14c2.21-.14,2.6,1.65,2.63,3.24.09,6.46,0,12.93,0,19.39Z"/><path class="cls-2" d="M1412.39,829.45c6.11,0,12.21,0,18.32,0,1.82,0,3.21.54,3.44,2.46.28,2.29-.85,3.73-3.19,3.83a356.64,356.64,0,0,1-38.55,0c-1.69-.11-3.14-.79-3.07-2.87.08-2.38,1.6-3.37,3.76-3.39C1399.53,829.42,1406,829.45,1412.39,829.45Z"/><path class="cls-2" d="M1601,558.15c0,6.1,0,12.21,0,18.31,0,1.9,0,3.91-2.72,4.08-2.52.15-3.46-1.25-3.47-3.46q-.12-19.27-.15-38.53c0-2.64,1.12-4.37,4-4.07s2.27,2.64,2.29,4.41c.08,6.42,0,12.84,0,19.26Z"/><path class="cls-2" d="M461.9,835.88A72.62,72.62,0,0,1,436,829.14a36.39,36.39,0,0,1-8-5.23c-1.87-1.6-3.83-3.8-1.85-6.6,1.78-2.51,3.91-1.18,6-.22,10.18,4.74,20.43,9.26,31.69,10.92,2.72.4,5,2,4.29,5.26C467.31,836.9,464.4,836.1,461.9,835.88Z"/><path class="cls-2" d="M570.05,828.88c6.13,0,12.25-.07,18.37,0,2.11,0,4.8-.38,5,3,.14,3.2-1.51,4.75-4.63,4.8-6.77.12-13.53.25-20.3.29-5.48,0-11-.13-16.44-.07-3.22,0-4.65-1.27-4.71-4.56s2-3.6,4.39-3.62c6.13,0,12.25,0,18.37,0Z"/><path class="cls-2" d="M508.73,836.59H489.47c-2.13,0-3.9-.73-4.06-3.1-.17-2.68,1.26-4.22,4-4.25q18.78-.21,37.56-.35c2.54,0,4.2.92,4.2,3.93s-1.5,4-4.15,4H508.73Z"/><path class="cls-2" d="M464.58,790.33c0,4.54.26,9.09-.1,13.59-.21,2.56,1.26,6.72-3,7.09-4.86.43-4.25-3.62-4.23-6.85,0-5.18,0-10.36,0-15.54s0-10.36.08-15.54a15.22,15.22,0,0,1,.47-4.79,3.63,3.63,0,0,1,3.9-2.26c1.54.17,1.56,1.78,1.71,3A154.79,154.79,0,0,1,464.58,790.33Z"/><path class="cls-2" d="M321.51,411.47c3,.39,7.25-.35,6,4.82-2.84,11.65-3,23.55-3.71,35.4-.1,1.69-.49,3.31-2.46,3.54-2.45.28-3.54-1.27-3.55-3.45-.08-13.68-2.1-27.57,4.05-40.64C321.84,411.14,321.51,411.47,321.51,411.47Z"/><path class="cls-2" d="M323.82,496.07c0,6.15,0,12.3,0,18.46,0,2-.23,3.86-3,3.87-2.55,0-3.44-1.47-3.42-3.67q.21-18.45.5-36.91c0-2.12.74-4.07,3.11-4.16,3.63-.13,2.77,2.88,2.81,4.92.12,5.82,0,11.66,0,17.49Z"/><path class="cls-2" d="M324.26,578.67c-3.85,2.24-6.53,2.3-6.52-3.28,0-2.8-.3-5.6-.47-8.4q.23-13.59.44-27.17c0-2.4.16-4.77,3.46-4.43,2.69.28,2.46,2.54,2.49,4.41Q324,559.24,324.26,578.67Z"/><path class="cls-2" d="M464.49,621c-.11,2.19-1.2,3.64-3.59,3.6-3-.05-3.63-2-3.61-4.55,0-6.12,0-12.24,0-18.35h.24v-17.4c0-2,0-4,2.74-4.12,2.17-.07,3.82.68,3.94,3.15C464.79,595.85,465.08,608.41,464.49,621Z"/><path class="cls-2" d="M464.62,645.75q0,18.4-.12,36.81c0,2.45-1.48,3.33-3.73,3.37-2.43.06-3.4-1.07-3.37-3.5.09-6.13,0-12.28,0-18.42h0c0-6.13,0-12.27,0-18.41,0-1.92.14-4.05,2.95-4S464.62,643,464.62,645.75Z"/><path class="cls-2" d="M925.49,829.37c-2.22.06-4.82-.24-4.68,3.22.13,3.28,2.7,3,4.92,3.21,1.61.12,3.23.18,4.84.2q30.52.27,61.06.51c1.29,0,2.59.08,3.87,0,2-.15,3.93-.45,4.29-2.93.42-2.84-1.19-4.12-3.71-4.64Z"/><path class="cls-2" d="M756.56,837.11c-5.78,0-11.56-.08-17.34,0-2.94.05-4.88-.48-5.11-4s1.74-4.31,4.68-4.3c11.88,0,23.77,0,35.65.1,2.19,0,4.85-.28,5,3,.19,3.77-2.13,4.91-5.54,4.86-5.78-.09-11.57,0-17.35,0Z"/><path class="cls-2" d="M1163,829.27c6.45,0,12.9,0,19.35,0,1.58,0,3.38.15,3.47,2.33.08,2-.51,4.49-2.59,4.59a315.22,315.22,0,0,1-39.6-.34c-2.2-.17-2.88-2.39-2.65-4.46s2.08-2.2,3.64-2.22c6.12-.07,12.25,0,18.38,0Z"/><path class="cls-2" d="M820.83,828.74h17.36c2.5,0,4.33.59,4.24,3.75-.08,2.76-1.16,4.24-4,4.23q-18.33,0-36.65-.12c-2.49,0-4.37-.71-4.45-3.75-.11-3.8,2.46-3.94,5.14-4,6.11,0,12.21,0,18.32,0Z"/><path class="cls-2" d="M1060.27,829c.65,7.27.65,7.49-5.43,7.59q-16.77.3-33.54.08c-6-.09-6-.44-3.72-7.67Z"/><path class="cls-2" d="M1099.76,836.63h-18.34c-2.69,0-4.17-1.16-4.21-4s1.61-3.79,4.24-3.77c12.23.07,24.46.06,36.69.13,2.34,0,4.51.32,4.41,3.59-.1,3-2,3.86-4.45,3.91-6.11.1-12.23,0-18.34,0Z"/><path class="cls-2" d="M880.65,835.79c-6.11,0-12.23.07-18.34,0-1.92,0-3.95-.4-3.74-3.17.19-2.37,1.64-3.36,3.84-3.34q19.32.12,38.63.33c2.3,0,3.49,1.28,3.33,3.65-.15,2.2-1.92,2.44-3.44,2.46-6.76.1-13.52.05-20.28.05Z"/><path class="cls-2" d="M1565.64,698.32a3.38,3.38,0,0,1-3.31-2.59,6.36,6.36,0,0,1,.05-3.77c4.9-11.19,9.7-22.44,15.81-33.05,1.38-2.4,3.81-3.7,6.58-2.1,2.5,1.45,1.86,3.64.86,5.88-4.44,10-8.48,20.16-13.76,29.76C1570.47,695,1569.16,697.64,1565.64,698.32Z"/><path class="cls-2" d="M1055.09,253.15c-13.17,0-26.27,0-39.37,0-2.59,0-4.11-1.23-4.38-4-.34-3.33,1.85-3.61,4.19-3.83,11.93-1.17,23.73.26,35.53,1.71C1054.88,247.47,1055.35,250.23,1055.09,253.15Z"/><path class="cls-2" d="M1092.16,249.41c6.75.56,13.49,1.11,20.23,1.69,2.4.21,4.46.78,4.33,3.91-.14,3.51-2.73,2.93-4.87,3-11.94.16-23.8-1.2-35.69-2.07-2.29-.17-4.83-.39-4.55-3.59.27-3,2.82-3.13,5.08-3.16,5.16-.08,10.31,0,15.46,0Z"/><path class="cls-2" d="M1234.05,274.53c-11.59-1.68-23.39-3.42-35.21-5.07-3.08-.43-4.74-1.81-4.28-5.08.49-3.42,3.11-2.75,5.22-2.48,12.14,1.56,24.32,2.91,36.25,5.86,2.32.57,4.84,1.08,4.41,3.95C1239.91,275.2,1236.86,274.71,1234.05,274.53Z"/><path class="cls-2" d="M1325.4,287.27c9.76,3,21.2,6.35,32.6,9.89,1.73.54,4,1.43,2.76,4-.79,1.73-2,3.52-4.32,3.25a24,24,0,0,1-3.71-1L1326.64,296c-1.55-.44-3.07-1-4.64-1.36-2.69-.58-3.92-2.31-3.63-4.87C1318.75,286.51,1321.39,287.16,1325.4,287.27Z"/><path class="cls-2" d="M1263.12,273.42c10.45,2.06,21.87,4.26,33.26,6.61,2.21.46,4.71,1.37,4.3,4.31-.38,2.75-2.62,3.55-5.12,3.07-11.73-2.27-23.47-4.56-35.18-7-2.37-.49-4.18-2-3.66-4.79C1257.34,272.2,1260.05,273.56,1263.12,273.42Z"/><path class="cls-2" d="M1381.75,303.27c11.88,3.45,24.54,6.13,35.75,12.83,1.34.8,2.79,2,1.91,3.87-.63,1.36-2.08,1.48-3.33,1.13q-17.65-5-35.28-10c-2.52-.74-3.57-2.66-3-5.25C1378.16,304,1379.41,303.15,1381.75,303.27Z"/><path class="cls-2" d="M1139.61,252.54c11.45,1.86,22.9,3.74,34.35,5.55,2.85.45,5.25,1.34,4.52,4.78-.64,3-3.25,2.71-5.5,2.38-11.48-1.71-22.94-3.53-34.42-5.21-2.93-.42-5.14-1.36-4.39-4.8C1134.82,252.27,1137.26,252.46,1139.61,252.54Z"/><path class="cls-2" d="M1536.52,364.67c-11.7-4.26-22.24-8.06-32.75-11.94a41.37,41.37,0,0,1-6.08-2.82,3.74,3.74,0,0,1-1.75-5c.8-1.76,2.66-1.27,4.21-.74q16.85,5.73,33.67,11.49C1538.47,357.29,1536.35,360.74,1536.52,364.67Z"/><path class="cls-2" d="M828.48,248.94c5.5,0,11,0,16.51,0,2.14,0,3.83.66,3.68,3.29a3.47,3.47,0,0,1-3.6,3.67c-12.28.78-24.51,2.39-36.85,1.92-2.49-.1-4.67-.77-4.78-3.64-.11-3.05,2.48-3.42,4.68-3.59,6.78-.56,13.57-.93,20.36-1.37Z"/><path class="cls-2" d="M680.2,274.68c-.58-4.38.64-6.59,4.69-7.44,11.69-2.46,23.56-3.46,35.37-5,3-.39,4.12,1.21,4.51,3.68a2.78,2.78,0,0,1-2.72,3.23C708.06,270.53,694.37,274.46,680.2,274.68Z"/><path class="cls-2" d="M564.21,304.29c-2.65.39-4.26-.46-5-2.56-.79-2.29.42-3.71,2.43-4.46a257,257,0,0,1,36.12-10.19c1.56-.33,3.27-.37,3.9,1.65.83,2.68-.34,4.38-2.86,5.15-11.35,3.47-22.73,6.88-34.09,10.31A1.56,1.56,0,0,1,564.21,304.29Z"/><path class="cls-2" d="M502.25,321.63c-1.43-.19-2.87-.07-3.23-1.73a2.83,2.83,0,0,1,1.61-3.17,82.67,82.67,0,0,1,7.75-3.91,200.74,200.74,0,0,1,29.47-9.28c2.34-.59,3.8.11,4.53,2.23s-.35,3.8-2.41,4.5C527.48,314.52,515,318.84,502.25,321.63Z"/><path class="cls-2" d="M624.42,287.59a17,17,0,0,1-3.84-.07,4.11,4.11,0,0,1-2-1.78,2.56,2.56,0,0,1,.7-3.45,8.55,8.55,0,0,1,3.35-1.78c11.89-3.07,23.83-5.83,36.06-7.16,1.81-.19,4.09-.69,4.52,2.09A3.92,3.92,0,0,1,660.4,280a100.9,100.9,0,0,1-11.23,2.85C640.93,284.42,632.88,287,624.42,287.59Z"/><path class="cls-2" d="M776.26,253.46c2.25,0,4.51-.05,6.76,0a2.75,2.75,0,0,1,3,3c.08,1.87-.7,3.09-2.57,3.41-3.82.65-7.63,1.3-11.46,1.84q-12.93,1.81-25.87,3.48c-2,.26-4,0-4.41-2.54-.39-2.31,1-3.57,3-4.25,7.4-2.53,15.24-2.47,22.84-3.9a83.07,83.07,0,0,1,8.67-.74Z"/><path class="cls-2" d="M386.21,364.23c-3.11.57-3.2-1.66-3.3-3.54-.14-2.75,2-3.85,4.09-4.77,10.65-4.66,21.45-8.91,32.8-11.63,1.6-.38,3.44-1,4.3.71,1.08,2.11-.3,3.88-2.17,4.68-9.19,3.92-18.44,7.71-27.68,11.51C391.56,362.29,388.82,363.25,386.21,364.23Z"/><path class="cls-2" d="M276.71,712.94a24.71,24.71,0,1,1,25.11-24.1C301.71,702.13,290.47,712.91,276.71,712.94Zm16.73-24c.28-8.74-7.64-17.1-16.31-17.2a16.31,16.31,0,0,0-16.8,16.34c-.1,9.78,6.59,17,15.89,17.17A17.33,17.33,0,0,0,293.44,688.91Z"/><path d="M799.38,484.77v111H779.56V525.06L760.05,540,743.87,552.5,727.69,540l-19.51-14.91V595.8H688.35v-111L708.18,500l35.69,27.44L779.56,500Z"/><path d="M853.31,521.73v75.5H833.48V519.67A15.83,15.83,0,0,0,820,506.18h-4.45V486.51h4.29v.16a35.55,35.55,0,0,1,13.48,3.65,35.17,35.17,0,0,1,16,16.18A42.36,42.36,0,0,1,852,514a33.41,33.41,0,0,1,1,8.09Z"/><path d="M979.72,518.4a32.67,32.67,0,0,1-9.2,22.84A32.75,32.75,0,0,1,947,596.75H868.85V576.93H947a13.07,13.07,0,0,0,13-13,12.92,12.92,0,0,0-12.21-13h-59V531.09h59a13,13,0,0,0-.64-26H869V485.25H947.2a32.63,32.63,0,0,1,32.68,32.67Z"/><path d="M1106.6,484.77v111h-19.82V550.12h-58.53a31.42,31.42,0,0,1-14.91-3.65,32.39,32.39,0,0,1-17.77-29V484.77h19.83v32.68a13.07,13.07,0,0,0,13,13h58.53V484.77Z"/><path d="M1231.11,504.76a34.22,34.22,0,0,1,2.54,12.84v45.53a32.71,32.71,0,0,1-10.47,24.11,34.1,34.1,0,0,1-7.3,5.23,31.39,31.39,0,0,1-14.91,3.65h-69V576.29h69a13.07,13.07,0,0,0,13-13V547.74a32.48,32.48,0,0,1-12.37,2.54h-46.79a32.76,32.76,0,0,1,.47-65.51h45.52a32.58,32.58,0,0,1,30.14,20Zm-88.67,12.84a13.07,13.07,0,0,0,12.38,13h46.79a13,13,0,0,0-.64-26h-45.52A13.07,13.07,0,0,0,1142.44,517.6Z"/></g></g></svg>