<svg xmlns="http://www.w3.org/2000/svg" viewBox="0 0 1920 1080"><defs><style>.cls-1{fill:#010202;}.cls-2{fill:#f2f2f2;}</style></defs><g id="Capa_2" data-name="Capa 2"><g id="Capa_1-2" data-name="Capa 1"><path class="cls-1" d="M995.08,285.69c-3.23-.26-6.46-.71-9.7-.79-5.39-.13-10.79,0-16.32,0-.13.76-.52,1.54-.29,1.88-.11,3.3,12.16,3.15,12.16,3.15,4.53.33,9.07.44,13.6.63,1.46.07,3.38.64,3.65-1.48S997.16,285.86,995.08,285.69Zm0,0c-3.23-.26-6.46-.71-9.7-.79-5.39-.13-10.79,0-16.32,0-.13.76-.52,1.54-.29,1.88-.11,3.3,12.16,3.15,12.16,3.15,4.53.33,9.07.44,13.6.63,1.46.07,3.38.64,3.65-1.48S997.16,285.86,995.08,285.69Zm-47.57-.77a212.42,212.42,0,0,0-22.71.48,10.38,10.38,0,0,0-3.74.85,3,3,0,0,0-1.29,3.37c.31,1.4,1.58,1.31,2.63,1.18,5.38-.65,10.78-.79,16.19-.9,8.55,0,10.24-1.16,10.24-1.16a2.22,2.22,0,0,0,1.25-2.69C949.79,284.51,948.46,284.92,947.51,284.92Zm2.57,1.13c-.29-1.54-1.62-1.13-2.57-1.13a212.42,212.42,0,0,0-22.71.48,10.38,10.38,0,0,0-3.74.85,3,3,0,0,0-1.29,3.37c.31,1.4,1.58,1.31,2.63,1.18,5.38-.65,10.78-.79,16.19-.9,8.55,0,10.24-1.16,10.24-1.16A2.22,2.22,0,0,0,950.08,286.05Zm900.5,240.25c-.8-7.21-1.59-8.06-8.63-8.66-2.59-.21-5.19-.23-7.78-.24l-71.67,0c-1,0-2.17-.11-2.7-1.35-1.74-4.1-4.42-7.65-4.31-12.65.32-14.28,0-28.56,0-42.85,0-3.18-.7-4.69-4.32-4.56-7.79.26-15.58,0-23.37.14-7,.16-8.51,1.69-9.31,8.78a61,61,0,0,0-.26,6.49c-.06,9.52,0,19-.1,28.56,0,4.91-.07,5.06-4.91,5.09q-20.77.12-41.56,0c-6.82,0-6.86-.12-6.91-6.8-.06-9.09,0-18.18-.1-27.27a16.5,16.5,0,0,0-7-13.9c-2.79-2-5.6-4.07-8.5-6a676.56,676.56,0,0,0-58.88-34.06c-68.68-35.4-140.53-63.16-213.51-88.13-14.71-5-29.61-9.52-44.46-14.12-2.83-.88-4.73-1.32-3-5.14s1.41-4.33-3.3-5.64q-27.8-7.68-55.65-15.13c-5.17-1.39-5.62-1.3-6.75,3.78-.83,3.71-2.31,3.6-5.39,2.9q-31.95-7.24-64.23-12.83c-29.86-5.16-59.88-9-90-12.21-23.45-2.47-47-4.35-70.5-5.86-23.12-1.49-46.26-3.21-69.4-2.78-66.55,0-147.9,8.42-147.9,8.42-28.17,3-56.28,6.57-84.26,11.15-25.38,4.15-50.58,9.26-75.6,14.87-1.29-.88-1.47-2.21-1.81-3.45-1.5-5.38-1.53-5.53-7-4.06-14.83,3.94-29.61,8-44.41,12.07-3.76,1-7.47,2.22-11.26,3.1-2.87.66-4,1.93-3.29,5,1.14,4.81,1,4.91-3.72,6.27-32.18,9.3-63.85,20.14-95.21,31.9C434.33,367.85,379.69,390,327.3,417.29q-31.92,16.65-62.17,36.17c-8.66,5.56-12.21,12.81-11.89,22.74.24,7.78,0,15.58-.06,23.37-.07,5.3-.16,5.41-5.37,5.43-16.66.09-33.33.08-50,.12-8,0-16-.14-24,.16-14.88.54-23.49,9.45-23.66,24.34-.15,13.2-.22,26.41-.09,39.6,0,3.71-.4,6.31-4.81,6.73-1.59.15-3.09,1.34-5.38,2.4-3.09,1.62-2.92,5.56-2.92,5.56v89.83a8.68,8.68,0,0,0,2.71,6.94c4.6,4.26,9,8.71,13.35,13.25a16.2,16.2,0,0,0,12.69,5.2c24-.15,48,.37,72-.19,11.51-.27,19.18,4.22,25.28,13.57,13,19.89,26.41,39.51,39.68,59.23,5.91,8.78,12,17.44,17.83,26.28A32.36,32.36,0,0,0,340,812c7.77,0,15.55,1.07,23.31-.12l11-11.92c1.55-1.73,3.63-1.08,5.48-1.09q36.56,0,73.1,0c4.75,0,4.75.08,5,5.09,0,.44,0,.86,0,1.29.06,5.51-.82,5.53,5.68,5.53l59.51,0c1.61-2.8.87-5.88,1-8.83.07-2.31.51-3.43,3.26-3.32,7.28.29,14.58.21,21.86.33,1.23,0,2.79-.35,3.47,1A140.9,140.9,0,0,1,558.43,814a7.24,7.24,0,0,0,3.7,4.14H681.72a72,72,0,0,0,24.72-4.32c17.9-6.34,36.07-11.78,54.81-15.17,1.18-.21,2.16-1.38,3.57-.94a10.35,10.35,0,0,1,6.28-1.29l.2,0a6.92,6.92,0,0,1,5-1.12l1.41-.2a7,7,0,0,1,5.09-1.12l1.41-.18a6.75,6.75,0,0,1,5.09-1.11l1.41-.18a10,10,0,0,1,6.39-1.22c6.11-1.8,12.42-2.53,18.7-3.35a4,4,0,0,1,3.37-.45l4.52-.67a240.63,240.63,0,0,1,37.06-4.71c10.22-2,20.59-2.45,30.92-3.32,20.71-1.74,41.47-1.91,62.23-2.49l10.28.15c12.11.38,24.24.27,36.33.86,30,1.44,59.93,4.17,89.69,8.55,42.6,6.27,84.6,15,125.35,29.17a55.36,55.36,0,0,0,18.41,3.15q54.19-.09,108.39-.1c2.59,0,5.17-.38,7.76-.5,4.57-.21,7.67-2.57,9.75-6.47a91.21,91.21,0,0,0,4.41-8.64c1.06-2.59,2.59-3.59,5.39-3.51,5.62.15,11.24,0,16.87,0,7.65,0,7.76,0,7.78,7.82,0,2.81.26,4.31,3.75,4.28,19.47-.17,38.94-.11,58.41,0,2.65,0,4-.7,3.91-3.63-.08-2.71.26-5.44.44-8.43,26.86,0,53.23,0,79.59,0,2.52,0,3.87,1.33,5.36,3,3.19,3.5,5.84,7.54,9.84,10.26,5.19.07,10.38.16,15.56.2,11.56.11,20.23-4.89,26.63-14.47,18.85-28.22,38.12-56.16,56.65-84.57,6.61-10.14,14.8-15.3,26.85-14.24,1.29.12,2.59,0,3.89,0,22.72,0,45.43,0,68.15.05,4.31,0,7.94-.81,11-4.25a122.5,122.5,0,0,1,12.41-12.34c3.93-3.32,4.78-7.2,4.77-12-.07-25.74.07-51.47.17-77.21,0-5.73.09-5.75,5.55-5.73,2.6,0,5.2,0,7.78.19a10.71,10.71,0,0,0,9.18-3.7c4-4.3,8.2-8.32,12.26-12.51a11.26,11.26,0,0,1,8.61-3.78c2.29,0,3.73.42,3.66,3.15-.07,3.23.11,6.48.15,9.72,0,2.06.91,3.21,3.1,3.25,3.24.06,6.48.27,9.72.31,8.88.13,8.9.1,9-8.6q.15-23.35.24-46.69C1850.8,528,1850.67,527.16,1850.58,526.3Zm-92.21.8c-.11,6.48,0,13,.06,19.45,0,1.41-.44,3.22,1.93,3.27,2,.06,2.64-1.39,2.69-3,.13-3.86,0-7.74,0-11.84,2.56.54,2.83,2.46,3.59,3.81,2.69,4.68,5.2,9.45,7.81,14.17a16,16,0,0,1,2.34,6c.2,1.85-.25,2.92-2.29,2.91q-15.55-.1-31.11-.17c-1.62,0-2.49-.7-2.3-2.31,1.51-13.06-4.44-23.89-10.32-34.74a14.19,14.19,0,0,1-.53-2.06c8.17,0,15.92.15,23.66-.07C1757.46,522.44,1758.42,523.89,1758.37,527.1ZM1770,578c-2.21-.46-5.23,1.11-6.49-1.37s-.35-5.49-.22-8.27a1.56,1.56,0,0,1,1.68-1.56c3.24,0,6.47,0,9.7,0,1.65,0,2.19,1.11,2.28,2.52s.13,2.59.14,3.88c0,4.72,0,4.72-4.51,4.8h-1.94v0A3.42,3.42,0,0,1,1770,578Zm-23.55-.13c-5.46,0-5.46,0-5.43-5.77,0-5.45,0-5.46,5.76-5.43a35.65,35.65,0,0,1,5.17.14c2,.31,4.9-1,6,1,1.31,2.42.52,5.49.43,8.28,0,1.25-1,1.79-2.23,1.79-2.15,0-4.31,0-6.47,0v0C1748.65,577.9,1747.57,577.92,1746.49,577.9ZM1729.64,603c1.3,0,2.6,0,3.89,0,1.64,0,2.24,1,2.17,2.5s-.58,2.48-2.24,2.5c-2.6,0-5.19.09-7.78.09q-32.13,0-64.24-.12a33.39,33.39,0,0,1-3.88-.15c-1.28-.16-1.71-1.12-1.7-2.32a2,2,0,0,1,1.77-2.3,36,36,0,0,1,4.53-.17h33.74v0Zm-29.94-8.23c.22-2.13.09-4.73,3.16-4.47s2.73,3.35,3.18,5.45c.5,2.35-1.43,2.07-3.45,2.18C1700.85,598.1,1699.43,597.41,1699.7,594.74Zm54.15-77.3c-8.13,0-15.86-.05-23.57,0a4.51,4.51,0,0,1-4.55-2.85c-1.31-2.71-2.67-5.39-2.26-9.21h24.35c1.4,0,2.5.36,2.6,2.09C1750.62,511,1752.75,513.81,1753.85,517.44ZM1723,488.34c.26-6.89-.85-6.25,6.23-6.28,5.82,0,11.65.15,17.47,0,2.89-.08,3.93,1.06,3.64,3.79a17.92,17.92,0,0,0,0,1.94c0,5.59,0,5.6-5.6,5.66-2.58,0-5.17,0-7.76,0v.05c-3.46,0-6.91-.11-10.36,0-2.88.12-3.89-1.21-3.61-3.89C1723,489.21,1723,488.78,1723,488.34Zm26.78,11.5a239.08,239.08,0,0,1-26.23,0C1728.68,497.34,1745.66,497.45,1749.79,499.84ZM1735.28,461c4.08,0,8.16,0,12.25,0,1.85,0,2.83.75,2.74,2.67,0,.22,0,.44,0,.65-.57,4.15,2.15,9.86-1.26,12.1-3,2-8.31.4-12.61.4v.19c-3.44,0-6.88-.08-10.32,0-2.06.06-3-.41-3.13-2.79C1722.1,461.34,1722.21,461.14,1735.28,461Zm-11.63,62.34c3.43,2.59,4.58,8.1,7,12.2,3.72,6.35,5.08,13.22,5,20.47-.06,10.8-.21,21.61-.16,32.41,0,2.87-.47,4.35-3.87,4.17-5.82-.32-11.66-.19-17.5-.19-2.2,0-3.95-.39-3.67-3.15s-1.25-3.11-3.5-3.35c-11.4-1.23-11.67-1-12.53,11.6h-38.09c-.11-18.45-1.1-36.59.35-54.71.91-11.4,7.5-18,18.76-19.57a73.58,73.58,0,0,1,9-.7c8.42-.1,16.86-.14,25.28,0C1714.47,522.58,1720.15,520.72,1723.65,523.36ZM662.73,305.56c14.4-2.93,28.71-6.24,43.14-9,31.43-6,63.09-10.57,94.87-14.18,33.31-3.77,66.69-6.85,100.19-8.42q25.59-1.22,51.22-2.11h14.9c24.65.85,49.28,1.88,73.89,3.58,41.86,2.9,83.58,7.24,125.09,13.36,29.71,4.38,59.25,9.83,88.53,16.58,4.7,1.08,4.77,1.13,3.33,5.89-1.32,4.34-2.64,8.69-4.27,12.91-4.12,10.69-13,15.64-24.24,13.47-13.16-2.56-26.23-5.52-39.4-8q-45.6-8.54-91.68-13.91c-38.49-4.57-77.1-7.24-115.83-8.35l-43.91.08c-3.47,0-6.92.16-10.39.24-42.66.92-85.07,4.87-127.37,10.35q-55.68,7.21-110.54,19.11c-13.75,3-21.91-1.74-26.46-15.12-1.32-3.87-2.39-7.85-3.85-11.66C658.79,307.4,659.66,306.18,662.73,305.56ZM458,452.35c-.21,48-.18,96-.26,144,0,1.72-.13,3.44-.21,5.16a3.37,3.37,0,0,1,0,2.73c.11,2.36.33,4.73.33,7.09q-.09,81-.22,162c0,5,0,5-4.78,5-1.71,0-3.43-.21-5.15-.31-.89.13-1.35-.13-1-1.12-.14-2.95-.28-5.92-.41-8.87-1.79-.37-3.51-.46-4.88,1.06,0,1.95,0,3.91.15,5.84.22,2.39-.5,3.69-3.11,3.65-1.78,0-2.88.8-2.62,2.79s2,2,3.45,2c4.75,0,9.51,0,14.27,0,1.93,0,4.2-.51,4.09,2.55-.09,2.45-2,2.45-3.76,2.46-6.06,0-12.12,0-18.18.07-19,0-38.07.25-57.11.06-5.94-.06-10.5,1.76-14.06,6.44a63.43,63.43,0,0,1-4.29,4.86,6.29,6.29,0,0,1-3.26,1.93c-12.8,2.87-22.2-.94-29.59-12q-26.9-40.12-53.86-80.19c-.84-1.26-1.77-2.46-2.56-3.75-7.57-12.34-18.27-17.91-33-17.48-23.13.67-46.29.13-69.44.32-4.43,0-7.28-1.76-10.75-4.46-9-7-11.09-15.44-10.62-26.47.89-21.16.18-42.38.15-63.58,0-2,.14-3.9.1-5.84a2.64,2.64,0,0,1,2.58-3c.86-.12,1.71-.3,2.56-.41,7.39-.95,7.52-.94,7.6-8.62.14-13.62.08-27.25.14-40.88a78.7,78.7,0,0,1,.29-8.42c.8-6.88,4.68-10.37,12-11.09,2.5-1,5.13-.55,7.69-.56,21.42-.09,42.84-.07,64.26-.17,4.1,0,8.2-.4,12.3-.62,6.49-4.78,7.35-11.44,6.88-18.89-.45-6.89,0-13.84-.17-20.76-.15-5.46,1.86-9.2,6.56-12.31,24-15.85,49.1-29.77,74.77-42.69,41.1-20.68,83.57-38.21,126.49-54.7,38.48-14.76,77.32-28.49,116.85-40.21,5-1.48,5-1.54,6.6,3.22.56,1.64,1.1,3.27,1.7,4.89.82,2.18,1.49,4.16-1.82,4.91-1.88.42-2.12,2.06-1.54,3.61s2.11,1.24,3.32.92c2.7-.73,3.85.33,4.57,2.95,2.22,8.14.33,12.16-8,14.76-17.91,5.64-35.93,11-53.85,16.56-12.16,3.8-24.32,7.63-36.32,11.87C474.16,398.84,458.15,421.47,458,452.35Zm916,336.09c-10.8-1.26-17.45,3.43-21,13.18-1.86,5.12-5.28,6.29-10.46,6.26q-51.94-.27-103.89,0a70.59,70.59,0,0,1-24.16-4c-31.68-11.18-64.36-18.41-97.37-24.31A865.13,865.13,0,0,0,968,766.4l-16.15-.13c-17.54.23-35.07.4-52.57,1.57-67.79,4.52-134.44,15.21-199,37a54.78,54.78,0,0,1-17.79,3c-35.93-.05-71.86-.13-107.78.06-5.08,0-8.25-1.42-9.79-6.33a25,25,0,0,0-2.54-5.23c-3-5-7.1-8-13.22-7.8-6.71.18-13.42.11-20.13.09-1.16,0-2.87.44-2.89-1.51a2.9,2.9,0,0,1,2.13-2.94,26.83,26.83,0,0,1,4.48-.61c6.14-.5,12.36.64,18.45-1.71,2.42-.94,5.63-.37,8.35.17a75.89,75.89,0,0,0,31.9-.06,23.74,23.74,0,0,1,11,.16c9.22,2.31,18.52.91,27.78.88,1.27,0,2.89-.23,3-1.76.2-2.15-1.74-2.1-3.19-2.32-2.13-.32-4.27-.55-7.36-.94a200.87,200.87,0,0,1,22.13-10.45C778,712.15,959,710.72,959,710.72c114.93,1.47,247.86,33.1,247.86,33.1a225.23,225.23,0,0,1,35.65,12.76c2.78,1.3,5.82,1.28,8.56,2.25a406.67,406.67,0,0,1,42.94,18c.13.07.15.35.46,1.17l-6,.83c-1.48.2-3.4.17-3.24,2.27s2.14,1.66,3.54,1.88a15,15,0,0,0,2.58.2c8.61-.2,17.23,1.1,25.79-1.28a17.18,17.18,0,0,1,9,.07c9.18,2.68,18.48,1.09,27.71,1.27,3.27.07,6.55-2.3,10.05-1.5,7.61,1.71,15.36,1.73,23.08,2.1,2.41.12,4.85.63,4.84,4.7C1385.87,788.57,1379.88,789.13,1374,788.44Zm80.91,8.67c.3,1.67,0,3.46.08,5.18.2,2.94-.79,4.27-4,4.23-16-.22-32-.27-48-.31-2.37,0-3.52-.63-3.45-3.28.15-6,.59-12.11-2.38-17.78-1-1.95,1.38-3.44,1.62-6.07-5.36-.81-10.56-1.92-15.82-2.32-19.44-1.46-39-1.17-58.41-.59-14,.41-26.69-1.93-39.11-8.66-14-7.6-29.12-13-44.12-18.37-.71.25-1.1-.1-1.38-.7l-31-10c-118.92-33.44-249.77-35-249.77-35-56.26,0-155.43,13.2-155.43,13.2-21,4.21-42,8.13-62.68,13.38C698.5,740.78,657,754.61,617.71,774.42c-2.88,1.45-5.77,1.54-8.78,1.54q-28.21,0-56.43,0a192.74,192.74,0,0,0-32.19,2.61,192.82,192.82,0,0,1-2.61,26.85c-.79,1-1.9.77-2.94.77q-23.77.12-47.54.2c-1.17,0-2.61.59-3.35-1-1-6.42,0-12.87-.32-19.29a4.48,4.48,0,0,1,1.29-3.5c.72-.73,1.65-1.77.57-2.74-2.91-2.6-1.88-6-1.88-9.08,0-14.84.12-29.68.21-44.51-.49-14.32-.56-28.62-.06-42.93-.95-25.32-.28-50.63-.31-75.95q-.09-74.33-.1-148.68c0-6.47-.4-13,1-19.38,4.77-21.39,16.85-36.73,37.57-44.45s41.84-13.78,62.86-20.4c9.67-3,19.3-6.32,29.13-8.82s16.22-10.08,12.07-22.18c-.26-.77-.44-1.57-.74-2.62,4.06-1.42,7.92-2.74,11.75-4.14a30,30,0,0,0,4.14-1.84c.69-.38,1.56-.9,1.38-1.91a2.19,2.19,0,0,0-2.25-1.92c-2.85-.05-5.53.81-8.27,1.43-2.91.66-6.05,3.39-8.49,2-2.64-1.55-2.58-5.67-3.68-8.67-1.49-4-2.79-8.16-4.24-12.22-1.58-4.41-1.64-4.49,3.2-5.84,12.06-3.38,24.15-6.66,36.23-10,4.56-1.26,9.12-2.55,14.31-4,2.59,9,6.18,17.67,8.07,27.18-7.13,1.65-14,2.73-20.42,5.25-1.85.72-5,.71-4.2,3.71s3.65,1.66,5.59,1.19q8.19-2,16.27-4.38c2.82-.83,4.69-.72,6.24,2.39,5.81,11.72,17.59,16.07,30.66,13.26q61.85-13.31,124.67-20.95c36.53-4.42,73.16-7.55,110-8.57,15.36-.55,66.22,0,66.22,0,34.86.73,69.52,3.84,104.14,7.87,43.85,5.11,87.3,12.46,130.49,21.52,14.29,3,22.52-.38,30.12-12.82,1.69-2.76,3.19-3.56,6.2-2.7,5.19,1.49,10.46,2.67,15.7,4a27.88,27.88,0,0,0,3.81.75c1,.11,2.26.17,2.67-1.18.46-1.52-.3-2.41-1.67-3a91.49,91.49,0,0,0-16.1-4.83c-2.3-.51-4.6-1-6.84-1.47a4.54,4.54,0,0,1-.12-1.47c2.64-8.44,5.32-16.86,8.13-25.73l55.51,15.18-9.39,26.5c-3.71-1.11-7-2.14-10.27-3.07a44.81,44.81,0,0,0-5.68-1.29c-1.27-.19-2.78-.08-3.26,1.41s.69,2.43,2,2.87c3.85,1.39,7.69,2.9,11.64,3.92,3,.78,4.12,2,2.7,5a5.28,5.28,0,0,0-.4,1.22c-2.15,10,1.27,16.44,11.06,19.6,12.94,4.17,26.06,7.81,39,11.91,17.69,5.6,35.46,11,52.94,17.22,21.2,7.54,34.13,22.79,39.06,44.75,1.09,4.89,1,9.89,1,14.86q.1,40.59.09,81.16,0,118.5,0,237c0,2.8,1.42,6.21-2.27,8.11a1.18,1.18,0,0,0-.07,1.1C1457.34,785.85,1454,791.82,1455,797.11Zm316.11-126.46a5.62,5.62,0,0,1-2,4.56c-1,.85-2,1.72-2.9,2.6-3.8,3.5-6.54,8.81-11.37,10.34-4.52,1.44-9.85.4-14.83.41-20.56,0-41.12.3-61.68-.06-13.38-.24-23,5.09-30.39,16.21-18.85,28.47-38.11,56.69-57.17,85-7.53,11.19-16.56,14.88-29.56,12.08a6.83,6.83,0,0,1-3.76-2.32c-1.3-1.43-2.61-2.88-3.84-4.39-3.84-4.65-8.6-6.65-14.75-6.59-23.81.2-47.62.07-71.42.07-1.51,0-3-.07-4.55,0-2.21.12-2.29-1.31-2.38-2.92s.75-2.2,2.28-2.21c5.42-.05,10.83-.12,16.23-.24,1.24,0,2.91.31,3.33-1.27.51-1.92-1.06-2.79-2.59-2.94-3.25-.31-3.67-2.31-3.54-4.95a28.71,28.71,0,0,0-.28-4.53,2.07,2.07,0,0,0-4.14.21c-.1,2.59,0,5.18,0,7.85a6.11,6.11,0,0,1-1.73.8c-9.48,1-9.47,1-9.47-8.59q0-152.86,0-305.75a178,178,0,0,0-.67-19.45c-2.9-26.63-17-45.07-41.72-54.55-25.19-9.67-51.26-16.86-77.06-24.8-5.78-1.77-11.65-3.28-17.36-5.27-6.31-2.2-8-5.38-7.16-11.86.62-4.48,1.06-4.94,5.81-5.32,1.43-.11,2.63-.43,2.9-1.91a2.4,2.4,0,0,0-1.92-2.94c-3.07-.71-3-2.29-1.83-4.73,1.36-2.92,1.48-7.1,3.65-8.75,2.39-1.82,6,1,9,1.89,52.18,15.48,103.07,34.61,153.47,55.1,46.85,19,92.59,40.37,136.18,66.12,8.18,4.83,16.1,10.11,24.17,15.13,4.59,2.85,6.85,6.55,6.58,12.29-.43,9.07-.14,18.17,0,27.26.11,7.72,5.78,13.22,13.62,13.17,14.5-.09,29-.31,43.5-.47,1.72,0,3.46,0,5.19,0,1.46,0,3.5-.27,3.45,1.86-.08,2.44-2.29,1.29-3.54,1.3-14.27.16-28.55-.23-42.84.15-12.14.32-22.08,12.73-22.33,22.29-.14,5.18-.42,10.36-.48,15.54-.15,12.54-.21,25.08-.3,37.62a2.46,2.46,0,0,1,0,2.77c.19,4.4.41,8.79.56,13.19.07,2.07.48,3.77,3,3.83,11.22-.33,22.45-.47,33.67,0l66.2-.26c4.33,0,8.66,0,13-.14,2.72-.11,3.88.82,3.87,3.67Q1771,643.71,1771.06,670.65Zm3.51-62.51c-5.16-.1-10.34,0-15.5,0v0c-4.74,0-9.49-.11-14.22,0-2.65.09-4-.56-3.89-3.52.18-6.24.24-12.49.11-18.73,0-2.69,1.17-3.28,3.48-3.24,9.69.15,19.38.28,29.07.32,2.52,0,4.06.57,4,3.57-.12,6.24-.07,12.49.06,18.73C1777.72,607.58,1776.69,608.18,1774.57,608.14Zm3.7-73c0,3.85,0,7.7,0,11.92-2.89-2.6-11.28-17.39-13.85-24.09.14-.12.28-.34.42-.35C1778.41,521.75,1778.4,521.75,1778.27,535.1Zm67.11,38.11c0,5.1-.09,5.1-5.43,5.11a17.94,17.94,0,0,0-1.94,0c-2.4.26-3.35-.54-3.4-3.19-.23-12.43-1.5-13.45-13.39-12.52a10.3,10.3,0,0,0-6.71,3.45c-4,4-8,7.89-11.79,12.06a13.39,13.39,0,0,1-11.42,4.71c-9.63-.42-9.58-.19-9.71-9.56-.23-14.92-.6-29.84-.78-44.75-.07-5.87.1-5.88,6.15-5.89h25.31v-.06c8.86,0,17.73-.09,26.59,0,6.51.09,6.58.21,6.59,6.49Q1845.48,551.15,1845.38,573.21ZM980.93,289.89c4.53.33,9.07.44,13.6.63,1.46.07,3.38.64,3.65-1.48s-1-3.18-3.1-3.35c-3.23-.26-6.46-.71-9.7-.79-5.39-.13-10.79,0-16.32,0-.13.76-.52,1.54-.29,1.88C968.66,290,980.93,289.89,980.93,289.89Zm2.86,460a9.45,9.45,0,0,0-1.3,0l-48.22-.11a1.77,1.77,0,0,0-1.89,2.05c0,1.11.2,2.32,1.43,2.61a17.79,17.79,0,0,0,3.87.25l42.65,0a23.8,23.8,0,0,0,3.88-.21,2.37,2.37,0,0,0,2-2.84A2.13,2.13,0,0,0,983.79,749.9ZM922.4,290.8c5.38-.65,10.78-.79,16.19-.9,8.55,0,10.24-1.16,10.24-1.16a2.22,2.22,0,0,0,1.25-2.69c-.29-1.54-1.62-1.13-2.57-1.13a212.42,212.42,0,0,0-22.71.48,10.38,10.38,0,0,0-3.74.85,3,3,0,0,0-1.29,3.37C920.08,291,921.35,290.93,922.4,290.8Zm63.8,460.79a2.13,2.13,0,0,0-2.41-1.69,9.45,9.45,0,0,0-1.3,0l-48.22-.11a1.77,1.77,0,0,0-1.89,2.05c0,1.11.2,2.32,1.43,2.61a17.79,17.79,0,0,0,3.87.25l42.65,0a23.8,23.8,0,0,0,3.88-.21A2.37,2.37,0,0,0,986.2,751.59Zm0,0a2.13,2.13,0,0,0-2.41-1.69,9.45,9.45,0,0,0-1.3,0l-48.22-.11a1.77,1.77,0,0,0-1.89,2.05c0,1.11.2,2.32,1.43,2.61a17.79,17.79,0,0,0,3.87.25l42.65,0a23.8,23.8,0,0,0,3.88-.21A2.37,2.37,0,0,0,986.2,751.59Z"/><path class="cls-2" d="M1455,797.11c-1-5.29,2.39-11.26-2.46-16a1.18,1.18,0,0,1,.07-1.1c3.69-1.9,2.27-5.31,2.27-8.11q.09-118.5,0-237,0-40.58-.09-81.16c0-5,.07-10-1-14.86-4.93-22-17.86-37.21-39.06-44.75-17.48-6.21-35.25-11.62-52.94-17.22-13-4.1-26.09-7.74-39-11.91-9.79-3.16-13.21-9.6-11.06-19.6a5.28,5.28,0,0,1,.4-1.22c1.42-2.93.32-4.19-2.7-5-3.95-1-7.79-2.53-11.64-3.92-1.26-.44-2.44-1.31-2-2.87s2-1.6,3.26-1.41a44.81,44.81,0,0,1,5.68,1.29c3.29.93,6.56,2,10.27,3.07l9.39-26.5-55.51-15.18c-2.81,8.87-5.49,17.29-8.13,25.73a4.54,4.54,0,0,0,.12,1.47c2.24.48,4.54,1,6.84,1.47a91.49,91.49,0,0,1,16.1,4.83c1.37.58,2.13,1.47,1.67,3-.41,1.35-1.63,1.29-2.67,1.18a27.88,27.88,0,0,1-3.81-.75c-5.24-1.29-10.51-2.47-15.7-4-3-.86-4.51-.06-6.2,2.7-7.6,12.44-15.83,15.82-30.12,12.82-43.19-9.06-86.64-16.41-130.49-21.52-34.62-4-69.28-7.14-104.14-7.87,0,0-50.86-.53-66.22,0-36.8,1-73.43,4.15-110,8.57q-62.8,7.59-124.67,20.95c-13.07,2.81-24.85-1.54-30.66-13.26-1.55-3.11-3.42-3.22-6.24-2.39q-8.08,2.38-16.27,4.38c-1.94.47-4.79,1.68-5.59-1.19s2.35-3,4.2-3.71c6.45-2.52,13.29-3.6,20.42-5.25-1.89-9.51-5.48-18.14-8.07-27.18-5.19,1.45-9.75,2.74-14.31,4-12.08,3.34-24.17,6.62-36.23,10-4.84,1.35-4.78,1.43-3.2,5.84,1.45,4.06,2.75,8.18,4.24,12.22,1.1,3,1,7.12,3.68,8.67,2.44,1.42,5.58-1.31,8.49-2,2.74-.62,5.42-1.48,8.27-1.43a2.19,2.19,0,0,1,2.25,1.92c.18,1-.69,1.53-1.38,1.91a30,30,0,0,1-4.14,1.84c-3.83,1.4-7.69,2.72-11.75,4.14.3,1,.48,1.85.74,2.62,4.15,12.1-2.2,19.67-12.07,22.18s-19.46,5.77-29.13,8.82c-21,6.62-42.21,12.7-62.86,20.4s-32.8,23.06-37.57,44.45c-1.44,6.42-1,12.91-1,19.38q0,74.34.1,148.68c0,25.32-.64,50.63.31,75.95-.5,14.31-.43,28.61.06,42.93-.09,14.83-.23,29.67-.21,44.51,0,3.09-1,6.48,1.88,9.08,1.08,1,.15,2-.57,2.74a4.48,4.48,0,0,0-1.29,3.5c.28,6.42-.64,12.87.32,19.29.74,1.58,2.18,1,3.35,1q23.76-.06,47.54-.2c1,0,2.15.19,2.94-.77a192.82,192.82,0,0,0,2.61-26.85A192.74,192.74,0,0,1,552.5,776q28.21,0,56.43,0c3,0,5.9-.09,8.78-1.54C657,754.61,698.5,740.78,741.07,730c20.73-5.25,41.73-9.17,62.68-13.38,0,0,99.17-13.2,155.43-13.2,0,0,130.85,1.57,249.77,35l31,10c.28.6.67.95,1.38.7,15,5.42,30.11,10.77,44.12,18.37,12.42,6.73,25.12,9.07,39.11,8.66,19.45-.58,39-.87,58.41.59,5.26.4,10.46,1.51,15.82,2.32-.24,2.63-2.65,4.12-1.62,6.07,3,5.67,2.53,11.75,2.38,17.78-.07,2.65,1.08,3.28,3.45,3.28,16,0,32,.09,48,.31,3.24,0,4.23-1.29,4-4.23C1454.91,800.57,1455.25,798.78,1455,797.11ZM508.5,781.35c-.22,1.51-1.76,1.69-3.08,1.68-9,0-18,0-27.05-.06.45-1.46-.4-3.17.89-4.47,7.51,0,15,0,22.54,0,1.29,0,2.58,0,3.87.11C507.29,778.8,508.77,779.49,508.5,781.35Zm928.69,1.53c-4.29,0-8.59,0-12.89,0v.18c-3.87,0-7.74,0-11.61,0-1.45,0-2.53-.32-2.62-2-.11-2,1-2.55,2.79-2.5,8.17.19,16.33.33,24.49.5,1.12,0,2.27.28,2.36,1.6C1439.82,782.31,1438.58,782.86,1437.19,782.88Z"/><path class="cls-1" d="M508.5,781.35c-.22,1.51-1.76,1.69-3.08,1.68-9,0-18,0-27.05-.06.45-1.46-.4-3.17.89-4.47,7.51,0,15,0,22.54,0,1.29,0,2.58,0,3.87.11C507.29,778.8,508.77,779.49,508.5,781.35Z"/><path class="cls-1" d="M1439.71,780.66c.11,1.65-1.13,2.2-2.52,2.22-4.29,0-8.59,0-12.89,0v.18c-3.87,0-7.74,0-11.61,0-1.45,0-2.53-.32-2.62-2-.11-2,1-2.55,2.79-2.5,8.17.19,16.33.33,24.49.5C1438.47,779.08,1439.62,779.34,1439.71,780.66Z"/><path class="cls-1" d="M235.15,533.81c7.24,5.17,9.77,12.28,8.64,20.89s-6.45,14.21-15,15.33c-4.46.59-9,.37-13.54.52-3.22-1.12-6.77-1.4-9.53-3.69-7-5.78-8-13.36-6.22-21.62,1.65-7.54,6.59-11.83,14.13-13.1A41.5,41.5,0,0,1,235.15,533.81ZM222,565.39a25.29,25.29,0,0,0,6.88-.77c9.16-2.86,12.76-13.18,8.06-21.53s-26-8.12-30.38-1.54c-.12.18-.25.35-.36.54-2.9,5.21-3.52,10.67-1,16.11,2.32,5,6.82,6.91,12.11,7.18C218.33,565.44,219.42,565.39,222,565.39Z"/><path class="cls-1" d="M441.66,409.43c0-3-.13-6.06,0-9.08.15-2.61-.43-4.2-3.47-3.86-1.41.15-2.64-.35-2.77-2-.11-1.25.88-1.86,1.91-2.32a214.41,214.41,0,0,1,21-8.4,10.8,10.8,0,0,1,2.55-.33c1.42-.11,2.67.33,3,1.81.27,1.19-.6,2-1.57,2.58-3.36,2-7.13,3.07-10.78,4.37-5.07,1.81-5.08,1.73-5.06,7q0,10.38,0,20.77c0,1.67.28,3.68-2.43,3.57-2.55-.11-2.42-2-2.45-3.74C441.61,416.36,441.65,412.9,441.66,409.43Z"/><path class="cls-1" d="M478.42,381.84c-2.37,0-3.86-.38-4.31-1.61-.56-1.54,1-2.3,2.11-2.75q11-4.38,22.15-8.56c1.33-.5,3-1.28,3.86.72a2.84,2.84,0,0,1-1.35,3.84C493.56,377.67,485.47,379.71,478.42,381.84Z"/><path class="cls-1" d="M425.3,400.26a2.87,2.87,0,0,1-2,2.82q-11.28,4.76-22.62,9.36c-1.52.62-3.12.47-3.68-1.38a2.59,2.59,0,0,1,1.53-3.18,167.33,167.33,0,0,1,23.89-9.64C424,397.71,424.8,398.7,425.3,400.26Z"/><path class="cls-1" d="M581.92,344.36c-.08,1.55-1,2.25-2.33,2.78-7.75,3.27-15.92,5.16-24,7.24a1.9,1.9,0,0,1-2.57-1.24,2.08,2.08,0,0,1,1.24-2.64c8-3.65,16.18-6.94,25-8.05C580.81,342.26,581.76,342.77,581.92,344.36Z"/><path class="cls-1" d="M516.57,368.25c-2.91,0-3.86-1.54-2.89-3.39A4.16,4.16,0,0,1,516,362.8a184.41,184.41,0,0,1,22.87-6.86c1.32-.3,2.7-.33,3.24,1.22a2.18,2.18,0,0,1-1.35,2.63A188.46,188.46,0,0,1,516.57,368.25Z"/><path class="cls-1" d="M289,471.67c-.88-.44-1.77-1.05-1.46-2.32a3.75,3.75,0,0,1,.94-1.65,64.62,64.62,0,0,1,20.48-14.28c1.12-.48,2.48-1.43,3.4.12a2.77,2.77,0,0,1-.7,3.53,41.84,41.84,0,0,1-5,4.07c-4.85,3.19-9.78,6.24-14.7,9.31C291.06,471,290.27,471.84,289,471.67Z"/><path class="cls-1" d="M383.91,414.65c1.3,0,2.18.08,2.6,1a2.11,2.11,0,0,1-.36,2.42,19,19,0,0,1-4.1,3.07c-5.57,2.83-11.21,5.52-16.84,8.21a13.52,13.52,0,0,1-3,1,2.07,2.07,0,0,1-2.24-.93,2.3,2.3,0,0,1,.19-3,10.87,10.87,0,0,1,2.51-2,192.43,192.43,0,0,1,19.25-9.14A18.44,18.44,0,0,1,383.91,414.65Z"/><path class="cls-1" d="M297.93,721.12c2.36-3,2.36-3,6.91,0,3.73,5.48,7.5,10.92,11.17,16.44,1.26,1.9,3.57,4.53,1.36,6.22-2.63,2-3.82-1.64-5.17-3.21-4.21-4.84-8.12-9.93-12.27-14.83C298.74,724.38,298.81,722.58,297.93,721.12Z"/><path class="cls-1" d="M348.86,434.11a2.78,2.78,0,0,1-1.23,2.89,85.77,85.77,0,0,1-22.09,11.76c-1.29.44-2.74.45-3.36-1-.51-1.16.58-2,1.46-2.53a235.35,235.35,0,0,1,22.09-12C347,432.69,348.21,432.64,348.86,434.11Z"/><path class="cls-1" d="M269.65,502a53.81,53.81,0,0,1,6.73-20.09,5.8,5.8,0,0,1,2.27-2.18,3.18,3.18,0,0,1,2.46,0,1.79,1.79,0,0,1,.59,2.28,20.14,20.14,0,0,1-1.48,3.55,43.58,43.58,0,0,0-5.34,17.13,6.07,6.07,0,0,1-.14,1.29c-.65,1.85,0,5.14-3.07,4.71-2.82-.4-1.7-3.46-2-5.45C269.62,503,269.65,502.81,269.65,502Z"/><path class="cls-1" d="M446.54,492.56c0,3.87,0,7.73,0,11.59,0,1.69-.13,3-2.34,2.86a2.13,2.13,0,0,1-2.29-2.43q0-12.57.07-25.12c0-1.5.53-2.43,2.26-2.33s2.17,1.11,2.17,2.55c0,4.29,0,8.59,0,12.88Z"/><path class="cls-1" d="M274.11,687.25c1.5-2.42,3.38-3.88,5.24-.6,3.72,6.57,8.45,12.43,12.6,18.7,1.55,2.34,2.2,4.29-1.33,5.26A99.31,99.31,0,0,1,274.11,687.25Z"/><path class="cls-1" d="M446.57,657.74c0,4.11,0,8.22,0,12.33,0,1.29,0,2.62-1.85,2.74s-2.77-.85-2.76-2.68c.05-8.21.12-16.43.16-24.64,0-1.47.35-2.55,2.11-2.52s2.21.88,2.19,2.45c-.05,4.11,0,8.22,0,12.32Z"/><path class="cls-1" d="M353.39,783.13c-.52-2.8,0-4.64,3-4.61q12.23.13,24.47.35c1.58,0,3.14.31,3,2.43-.13,1.76-1.61,1.81-2.88,1.81C371.77,783.15,362.56,783.13,353.39,783.13Z"/><path class="cls-1" d="M409.64,783.37h-13c-1.52,0-2.38-.57-2.31-2.27.06-1.52.61-2.49,2.23-2.51l25.92-.18c1.78,0,2.94.81,2.8,2.72-.11,1.59-1.29,2.1-2.72,2.11h-13Z"/><path class="cls-1" d="M324.24,752.41a2.56,2.56,0,0,1,2.49.93,34.86,34.86,0,0,1,2.69,3.61,66.54,66.54,0,0,0,12.3,15.64c1.08,1,2.5,2.48,1.34,3.79s-3.17.88-4.67-.27a16.1,16.1,0,0,1-1.46-1.26A68.45,68.45,0,0,1,323.58,756C322.9,754.67,322.44,753.16,324.24,752.41Z"/><path class="cls-1" d="M445.82,715.53c-2.66-.09-4.35-.83-4.22-4.14.27-7.28.32-14.58.18-21.86-.06-3.14,1.57-4.11,4.14-4.51C446.82,695.19,447.3,705.37,445.82,715.53Z"/><path class="cls-1" d="M446.53,452v11c0,1.56,0,3.12-2.2,3.11-1.68,0-2.22-1.11-2.29-2.5-.48-8.38-.21-16.76.07-25.13.06-1.6,1-2.26,2.56-2.13,1.3.1,1.8.91,1.8,2.15q0,6.76,0,13.54Z"/><path class="cls-1" d="M444.84,756.55c-1.6-.35-3.43-.17-3.35-2.81q.33-11.88.32-23.76c0-3.33,1.65-4,4.49-3.42.11,8.58.24,17.15.31,25.73C446.62,753.91,447.18,755.86,444.84,756.55Z"/><path class="cls-1" d="M441.66,602.85c2.09-.86,4.16-1.67,5.19,1.39q-.17,10.34-.32,20.66c0,1.29-.08,2.59,0,3.88.07,1.64,0,3-2.23,3s-2.21-1.58-2.23-3.11C441.9,620.09,441.79,611.47,441.66,602.85Z"/><path class="cls-1" d="M446.63,589.91c-4.6.59-4.86.56-4.91-3.07-.1-7.34.11-14.69,0-22,0-3,1.31-4.36,4.18-4.47C447.29,570.16,446.25,580.05,446.63,589.91Z"/><path class="cls-1" d="M441.34,526.28c.18-2.48.35-4.95.52-7.43,3-.81,4.94-.52,4.78,3.47-.34,8.64.44,17.29-.47,25.92-3.14.53-4.79-.41-4.48-4a41.57,41.57,0,0,0-.36-6.28A52.11,52.11,0,0,0,441.34,526.28Z"/><path class="cls-1" d="M273.28,518.86c1.67,9.39.68,18.87.88,28.31,0,1.47-.63,2.46-2.3,2.4-1.37-.05-1.85-.93-1.81-2.12.28-9.41-1.28-18.88.86-28.24Z"/><path class="cls-1" d="M1471.58,407.73c0-3.45-.34-6.94.1-10.32.37-2.82-.8-3.87-3.09-4.64-3.87-1.3-7.7-2.69-11.54-4.08-1.66-.6-3.42-1.34-2.78-3.59s2.79-2,4.31-1.51a174.78,174.78,0,0,1,22.19,8.64c1.14.53,2.44,1.24,2,2.87a2.21,2.21,0,0,1-2.63,1.39c-4.07-.65-3.88,1.92-3.83,4.67.11,5.38.07,10.76.07,16.14,0,1.29-.07,2.58-.1,3.88,0,1.49-.65,2.39-2.27,2.47s-2.3-.9-2.31-2.36c0-4.52,0-9,0-13.56Z"/><path class="cls-1" d="M1620.11,721.15a17,17,0,0,1-1.08,2.12,225.1,225.1,0,0,1-14.8,19.43,6,6,0,0,1-.93.89c-.87.66-1.84,1.24-2.86.4a2.11,2.11,0,0,1-.38-2.39,8.1,8.1,0,0,1,1.07-2.33q6.25-9,12.57-17.89a4.91,4.91,0,0,1,3.59-2.47A2.43,2.43,0,0,1,1620.11,721.15Z"/><path class="cls-1" d="M1493.77,397.73A174.49,174.49,0,0,1,1519,407.5c1.54.72,3.1,2,1.89,4.1-1,1.66-2.62,1.2-4.06.63-7.21-2.88-14.39-5.81-21.6-8.7C1492.41,402.41,1492.81,400.41,1493.77,397.73Z"/><path class="cls-1" d="M1440.43,381.75a140.45,140.45,0,0,1-23.24-8.11c-1.59-.75-2-2.25-1.33-3.86.78-2,2.25-1.49,3.74-.91,7.41,2.91,14.84,5.76,22.24,8.72,1.1.44,2.66,1,1.87,2.76C1443.08,381.74,1441.63,381.62,1440.43,381.75Z"/><path class="cls-1" d="M1534.4,414.7a6.44,6.44,0,0,1,1.35.36,174.39,174.39,0,0,1,20.23,9.78,5.29,5.29,0,0,1,2.26,2.12c.62,1.52.39,3-1.76,3.25a5.67,5.67,0,0,1-3.08-.69c-6.16-3-12.37-5.9-18.51-8.94a10.46,10.46,0,0,1-3-2.39,2,2,0,0,1-.11-2.4C1532.29,415,1532.92,414.52,1534.4,414.7Z"/><path class="cls-1" d="M1630.64,469.8c-.19,1.85-1.63,2.58-2.71,1.79-6.74-5-14.69-8.24-20.93-14a6.86,6.86,0,0,1-1.32-2.2,1.84,1.84,0,0,1,.25-2.35,1.56,1.56,0,0,1,1.77-.27,59.76,59.76,0,0,1,22.09,15.37A6.87,6.87,0,0,1,1630.64,469.8Z"/><path class="cls-1" d="M1340.5,342.52a138.66,138.66,0,0,1,22.73,7.51c1.51.62,2.45,1.91,1.58,3.62s-2.15.77-3.34.42c-6.58-1.91-13.17-3.8-19.75-5.72-1-.3-2-.74-3-1.07-1.61-.54-2.76-1.6-2.29-3.31S1338.44,342,1340.5,342.52Z"/><path class="cls-1" d="M1404.93,367.55c0-.16-.58.44-1.57.42a12.87,12.87,0,0,1-3.83-.4c-6.94-2.3-13.85-4.71-20.77-7.09a6.32,6.32,0,0,0-.61-.22,2.35,2.35,0,0,1-1.92-3.37c.59-1.87,2.08-1.16,3.22-.85,5.61,1.53,11.21,3.1,16.77,4.77a47.83,47.83,0,0,1,6.63,2.52C1404,363.86,1405,364.84,1404.93,367.55Z"/><path class="cls-1" d="M1648.27,502.76a5,5,0,0,1,0,1.28c-.47,1.63,1,4.41-2.09,4.54s-2.25-2.52-2.49-4.28a55,55,0,0,0-6.32-20.1c-.81-1.43-2.2-3.22,0-4.4s3.45.44,4.47,2.3C1645.38,488.56,1648.14,495.24,1648.27,502.76Z"/><path class="cls-1" d="M1643.71,647.92c.66-1.36.08-3.62,2.68-3.54,1.88,0,1.45,1.72,2,2.71q0,9.38.1,18.74a30.08,30.08,0,0,1-.65,8.36l-3.74-.16Z"/><path class="cls-1" d="M1476.07,518.7l.54,17.43-.33,9c-.06,1.5.12,3.09-2.11,3.19-2.05.09-2.55-1.13-2.55-2.82q0-12.18-.08-24.37C1471.52,517.4,1474.09,518.6,1476.07,518.7Z"/><path class="cls-1" d="M1643.75,688a16.25,16.25,0,0,1-1.1,2.15q-6.32,9-12.7,17.89a8.36,8.36,0,0,1-1.92,1.67,1.82,1.82,0,0,1-2.35,0,1.86,1.86,0,0,1-.56-2.29,9.82,9.82,0,0,1,1.06-2.35c4.41-6.1,9-12.07,12.65-18.69.65-1.17,1.69-2,3.18-1.18A3.73,3.73,0,0,1,1643.75,688Z"/><path class="cls-1" d="M1571,432.85a15.78,15.78,0,0,1,2.17.85q10.26,5.51,20.49,11.09a5,5,0,0,1,1.88,1.74,1.39,1.39,0,0,1-1.14,2.3,6.83,6.83,0,0,1-3.14-.52,104.49,104.49,0,0,1-19.44-10.22,5.68,5.68,0,0,1-2.59-2.78C1568.83,434,1569.63,433.35,1571,432.85Z"/><path class="cls-1" d="M1476.24,701c0,3.66,0,7.32,0,11,0,1.61-.09,3.14-2.11,3.31s-2.37-1.27-2.36-3c0-7.74,0-15.49,0-23.24a8.92,8.92,0,0,1,.22-1.93c.25-1.16.88-2,2.19-1.79a2,2,0,0,1,2,2.06c0,3.45,0,6.89,0,10.34,0,1.07,0,2.15,0,3.23Z"/><path class="cls-1" d="M1577,777.13c-1.54-.2-2.35-1.18-2-2.64a5.34,5.34,0,0,1,1.75-2.59c5.32-4.22,8.63-10,12.43-15.47,1.28-1.82,2.58-5.21,5.07-3.63s-.2,4.13-1.23,6a73.78,73.78,0,0,1-11.21,15.63C1580.54,775.78,1579.27,777.38,1577,777.13Z"/><path class="cls-1" d="M1476.27,576.07c0,3.66,0,7.32,0,11,0,1.86-.11,3.66-2.51,3.61-2.1,0-2-1.76-2-3.31,0-7.53-.07-15.06,0-22.59,0-1.6-.34-3.87,2.17-3.92,3-.05,2.32,2.46,2.35,4.27.06,3.65,0,7.31,0,11Z"/><path class="cls-1" d="M1549.17,783.25c-4.11,0-8.21-.07-12.32,0-1.76.05-2.29-.78-2.22-2.31s.56-2.34,2.31-2.34c8.21,0,16.42-.37,24.62.18.22,0,.43.06.64.09,1.35.18,2.64.52,2.63,2.21s-1.39,1.95-2.7,2c-4.32,0-8.64,0-13,0Z"/><path class="cls-1" d="M1476.26,450.87c0,4.07,0,8.15,0,12.22,0,1.79-.65,3-2.53,2.91-1.58-.06-2-1.28-2-2.71q-.06-11.9-.15-23.79c0-1.66.28-3,2.34-3.08,2.63-.08,2.42,1.77,2.41,3.52,0,3.64,0,7.29,0,10.93Z"/><path class="cls-1" d="M1471.7,658.18c0-4.08,0-8.15,0-12.23,0-1.65.29-3,2.42-3s2.18,1.55,2.18,3.15c0,8,0,15.89,0,23.83,0,1.68-.38,2.95-2.46,2.92-2.24,0-2.19-1.59-2.19-3.11,0-3.87,0-7.73,0-11.6Z"/><path class="cls-1" d="M1508.22,783.25h-12.31c-1.35,0-2.58-.13-2.67-2-.11-2,1-2.59,2.79-2.57,8.2.07,16.4.11,24.61.17,1.34,0,2.7.16,2.85,1.89.17,2.15-1.33,2.38-3,2.37h-12.3Z"/><path class="cls-1" d="M1476.24,742.15c0,3.89,0,7.78,0,11.67,0,1.5-.48,2.42-2.18,2.43s-2.33-.73-2.33-2.32c0-8-.1-16-.13-24,0-1.61.34-3.13,2.36-3.16s2.4,1.33,2.38,3.05c0,4.11,0,8.21,0,12.32Z"/><path class="cls-1" d="M1476.29,616.84c0,4.07,0,8.15,0,12.23,0,1.45-.36,2.43-2.08,2.51-2,.08-2.61-.81-2.6-2.69,0-7.72,0-15.44,0-23.17a9.14,9.14,0,0,1,.06-1.28c.19-1.43.88-2.42,2.46-2.34a2.18,2.18,0,0,1,2.25,2.51c0,4.08,0,8.15,0,12.23Z"/><path class="cls-1" d="M1476.29,492.08c0,4.08,0,8.15,0,12.23,0,1.37-.15,2.54-2,2.62s-2.67-.8-2.67-2.66c0-7.94-.05-15.87-.06-23.81,0-1.64.46-3,2.44-3s2.34,1.4,2.32,3.08c0,3.86,0,7.72,0,11.58Z"/><path class="cls-1" d="M1648.53,625.24c-.16,2.13-.27,4.27-.52,6.39-.12,1-.94,1.33-1.88,1.3s-1.71-.27-1.9-1.3a11.23,11.23,0,0,1-.17-1.92c.07-8.82-.39-17.64.48-26.44,2.4-.77,3.58-.17,3.59,2.62C1648.15,612.34,1648.38,618.79,1648.53,625.24Z"/><path class="cls-1" d="M1645.26,591.28c-1.22-1.15-1.26-2.67-1.25-4.18q0-11,.12-22a15.72,15.72,0,0,1,.23-2.56c.19-1.11.69-2.18,1.93-2.2,1.5,0,1.46,1.33,1.47,2.34.08,9.46.64,18.93,0,28.39Z"/><path class="cls-1" d="M1647.93,534.74c0,4.29,0,8.58,0,12.87,0,.8-.18,1.73-1.34,1.84a2.09,2.09,0,0,1-2.46-1.5,6.1,6.1,0,0,1-.22-1.91q0-11.58.1-23.17a11.29,11.29,0,0,1,.12-1.28,1.89,1.89,0,0,1,2.17-1.8,1.85,1.85,0,0,1,1.9,2.08c0,4.29,0,8.58,0,12.87Z"/><path class="cls-1" d="M1067.25,755.77a.79.79,0,0,0,1,.51c0,4.57-.18,4.85-3.7,4.55-7.71-.66-15.4-1.53-23.12-2.07-3.19-.23-3.84-2.17-4.19-4.86C1047.41,752.51,1057.32,754.29,1067.25,755.77Z"/><path class="cls-1" d="M872.46,753.23l5.8.21c1.12,0,2.17.22,2.23,1.66,0,1.1,0,2.27-1.18,2.77a8.4,8.4,0,0,1-3.08.79,220.52,220.52,0,0,0-22.51,2.26c-1.58.21-3.84.81-4-1.79a3.6,3.6,0,0,1,3.45-4c5.14-.58,10.29-1,15.43-1.58.86-.09,1.71-.21,2.56-.31Z"/><path class="cls-1" d="M733,783.37c-3,.09-4.59.12-5-1.84s1-2.61,2.56-3q11.65-2.77,23.32-5.49c1-.23,2.27-.69,2.85.58a2.94,2.94,0,0,1-.87,3.52,4.81,4.81,0,0,1-1.6,1.06A126.28,126.28,0,0,1,733,783.37Z"/><path class="cls-1" d="M807.63,763.92l2.49-2.5c5.68-1.17,11.33-2.43,17-3.46a67.92,67.92,0,0,1,7.7-.61c1.73-.11,3,.62,3.13,2.45s-1.26,2.5-2.86,2.79c-2.12.37-4.22.85-6.35,1.15-5.53.78-11.07,1.49-16.61,2.24C810.2,766.25,808.18,766.71,807.63,763.92Z"/><path class="cls-1" d="M793.36,764.49c2.26.63,4,1.68,3.42,4.45-7.75,1.66-15.49,3.33-23.25,5a30.55,30.55,0,0,1-4.46.56,2.18,2.18,0,0,1-1.65-.58,2.06,2.06,0,0,1,.22-2.41c1.19-1.7,3-2.26,5-2.66C779.52,767.39,786.44,765.93,793.36,764.49Z"/><path class="cls-1" d="M1161.28,773.36c1.16-1,2.47-.5,3.67-.21q11.31,2.7,22.6,5.52c1.38.34,3.32.39,2.88,2.62-.37,1.88-2,2.11-3.56,1.94-1.92-.21-3.84-.54-5.73-.93-5.06-1.07-10.13-2.07-15.14-3.33C1162.27,778,1162.32,777.87,1161.28,773.36Z"/><path class="cls-1" d="M895.91,757c-2.16.1-4.25.85-4.63-1.69-.36-2.35.94-3.44,3.35-3.71,8.2-.92,16.43-.59,24.65-.63,1,0,2.22,0,2.32,1.52s-.27,2.77-1.63,3.19a17.12,17.12,0,0,1-4.49.43C908.78,756.35,902.05,755.82,895.91,757Z"/><path class="cls-1" d="M1218.15,783.09c-4.08,0-8.17,0-12.25,0-1.51,0-3.16,0-3.33-2.1s1.44-2.34,3-2.34q12.26,0,24.51.06c1.54,0,3.26.22,3.12,2.32s-2,1.93-3.43,2c-3.87,0-7.74,0-11.61,0Z"/><path class="cls-1" d="M1012.71,750.67c4,.54,8.08,1.14,12.13,1.59,1.57.17,2.36.88,2.42,2.4.08,2.12-1.32,2.47-3,2.41-8.2-.31-16.41-.7-24.61-.91-2.91-.07-2.7-2.18-3.17-4l.7-1.19,7.79-.33A23.38,23.38,0,0,0,1012.71,750.67Z"/><path class="cls-1" d="M659.37,779c4.09,0,8.18,0,12.27,0,1.25,0,3,0,3,1.62.09,2-1.74,2.16-3.23,2.19-4.95.12-9.91.2-14.86.21-3.44,0-6.89-.1-10.33-.18-1.19,0-2.09-.51-2.19-1.82-.13-1.7.94-2.25,2.4-2.26,4.31,0,8.62,0,12.92,0Z"/><path class="cls-1" d="M1259.76,782.65c-4.53.16-9.07.48-13.58-.23-1.07-.17-2.23-.22-2.32-1.63-.13-1.87,1.3-2,2.6-2a224,224,0,0,1,25.25.44,5.53,5.53,0,0,1,1.27.21,1.9,1.9,0,0,1,1.56,1.81c0,1-1,1.37-1.83,1.38C1268.4,782.69,1264.08,782.65,1259.76,782.65Z"/><path class="cls-1" d="M1127.44,765.32A131.67,131.67,0,0,1,1147,769.4a8.6,8.6,0,0,1,3.33,1.78,3,3,0,0,1,.5,2.39c-.2,1-1.26,1-2.09.81q-12.29-2.37-24.57-4.8c-1.55-.3-3-.71-2.71-2.78.32-2.29,2.09-1.6,3.5-1.64C1125.33,765.15,1125.76,765.21,1127.44,765.32Z"/><path class="cls-1" d="M700.76,782.92c-4.31,0-8.63,0-12.94,0-1.49,0-2.51-.57-2.38-2.27a1.89,1.89,0,0,1,2.12-1.89q12.95,0,25.88.15c1.15,0,2.17.47,2.2,1.81.05,1.72-1.24,2.17-2.59,2.19C709,783,704.86,782.92,700.76,782.92Z"/><path class="cls-1" d="M1104.71,765.42c-7.16-.95-14.38-1.94-21.61-2.87-1.59-.21-3-.5-3-2.54,0-2.45,1.72-2.64,3.55-2.6,8.45.16,16.46,2.68,24.58,4.63,1,.24,2,.88,1.73,2.25s-1.66,1-2.62,1.11A21.14,21.14,0,0,1,1104.71,765.42Z"/><path class="cls-1" d="M1028.16,292.68c-5.13-.49-10.25-1-15.39-1.45-2.13-.17-3.19-1.19-3.09-3.24.11-2.25,1.86-1.94,3.34-1.82q10.92.82,21.85,1.74a18.45,18.45,0,0,1,2.53.47c1.63.35,1.87,1.66,1.79,3-.09,1.59-1.18,2.13-2.67,2l-8.33-.88Z"/><path class="cls-1" d="M840.27,297.3a2.23,2.23,0,0,1-2.66-1.76c-.36-1.69.19-2.94,2.08-3.35a112.53,112.53,0,0,1,25.69-2.37c1.29,0,2,.52,2.21,1.77.3,2-.87,2.66-2.6,2.84q-9.63,1-19.26,2.09C844,296.71,842.32,297,840.27,297.3Z"/><path class="cls-1" d="M703,313.89c-.15,1.59-.78,2.83-2.57,3.19L676.32,322c-1.72.35-3.07-.1-3.5-1.9s.84-2.68,2.49-3c8-1.65,16-3.31,24.07-4.9C700.89,311.84,702.48,311.78,703,313.89Z"/><path class="cls-1" d="M1139.52,298.87c6.45.9,13.69,1.92,20.93,2.92,1.6.22,3,.57,2.87,2.64s-1.47,2.48-3.14,2.32q-6.11-.6-12.18-1.34c-3.2-.38-6.41-.78-9.58-1.34-1.94-.35-4.83,0-4.38-3.29C1134.45,297.84,1136.93,299,1139.52,298.87Z"/><path class="cls-1" d="M903.81,286.39c1.39.37,4.47-1.56,4.83,1.63.4,3.47-2.93,3-5.12,3.25q-9.91,1.07-19.85,1.85c-1.69.13-4.21,1.51-4.76-1.42-.64-3.46,2.2-3.65,4.55-3.85C890.09,287.31,896.73,286.89,903.81,286.39Z"/><path class="cls-1" d="M1201.54,313.36c-8.08-1.26-16.16-2.54-24.25-3.77-1.42-.21-2.48-.58-2.38-2.31.12-2.16,1.65-2.29,3.2-2.21,8.2.41,16.26,1.89,24.35,3.17,1.86.3,2.48,1.6,2.14,3.31S1202.93,313.29,1201.54,313.36Z"/><path class="cls-1" d="M801.16,301.76c-.21,0-.43,0-.64,0-1.79,0-4.18,1.06-4.58-1.89-.47-3.41,2.44-3,4.37-3.28,4.24-.7,8.53-1.17,12.8-1.73,2.77-.36,5.54-.75,8.32-1,1.74-.17,3.73-.29,4.15,2,.45,2.45-1.68,2.72-3.33,3-7,1.08-14,2.05-21.07,3.06Z"/><path class="cls-1" d="M778.5,298.84c2.21.33,5.22-1.2,5.66,1.81.49,3.39-2.86,3.17-5,3.53-5.53.9-11.09,1.63-16.64,2.38-1.49.2-3,.24-4.5.34-1.67.11-3.06-.23-3.19-2.26s1.23-2.55,2.83-2.82,3.41-.55,5.11-.79Z"/><path class="cls-1" d="M1059.21,289.92a114.61,114.61,0,0,1,18.55,2.24c1.59.29,3,.6,3,2.63-.07,2.19-1.59,2.19-3.2,2l-23.75-2.29c-.43,0-.84-.2-1.26-.27a2.18,2.18,0,0,1-2-2.67c.16-1.39,1.19-1.65,2.29-1.67C1054.9,289.89,1057.06,289.92,1059.21,289.92Z"/><path class="cls-1" d="M737.23,305.19c1.83.36,5-1.94,5.69,1.67.71,3.77-3,2.94-4.91,3.29-6.74,1.27-13.56,2.17-20.37,3.06-1.46.19-3.58,1.14-3.86-1.77-.24-2.66,1.26-3.07,3.45-3.44C723.8,306.9,730.35,305.74,737.23,305.19Z"/><path class="cls-1" d="M1218.58,311.9l25,5.31a2,2,0,0,1,1.77,2.24,2.16,2.16,0,0,1-2,2.17,11.18,11.18,0,0,1-3.14-.29c-7.19-1.34-14.36-2.71-21.55-4.06-.42-.08-.86-.08-1.27-.18-1.86-.44-2.25-1.77-2-3.44C1215.56,311.75,1217,312.16,1218.58,311.9Z"/><path class="cls-1" d="M1097.38,293.84c7.29,1,14.78,2,22.26,3,1.89.26,2.56,1.34,2.3,3.14s-1.68,1.84-2.92,1.69c-7.92-.92-15.84-1.92-23.76-2.92-1.87-.23-2.58-1.39-2.23-3.18C1093.54,292.94,1095.65,294.09,1097.38,293.84Z"/><path class="cls-1" d="M1696.85,570.32a56.46,56.46,0,0,1-5.82,0c-7.47-.76-13.38-4.14-15.65-11.54-2.38-7.76-1.82-15.39,4-21.82a14.88,14.88,0,0,1,2.39-2.17c6.62-4.68,24.65-4.18,31,.81,5.86,4.64,8.27,13.55,5.9,21.83-2.13,7.43-7.34,11.81-15.33,12.76-2.14.26-4.31.29-6.46.42Zm-.11-5v.12a57.6,57.6,0,0,0,6.46-.38c6.36-1.09,10.49-5.65,10.94-11.81.56-7.83-2.28-13.46-8.11-15.24a31.48,31.48,0,0,0-17.27-.42,11.4,11.4,0,0,0-8.2,6.73c-3.39,8.27-1,20.81,12.94,21C1694.58,565.37,1695.66,565.36,1696.74,565.36Z"/><path class="cls-1" d="M1810.3,553.46c-3.66,0-7.35.33-11-.07-7.46-.83-11.95-6.42-11.5-13.77.43-7.13,5.13-11.74,12.61-11.94,6.66-.19,13.37-.38,20,.06,9.26.62,14.65,9.07,11.45,17.55a12,12,0,0,1-11.28,8.24c-3.43.19-6.88,0-10.33,0Zm.49-5.11v.06h7.75c.43,0,.86,0,1.29,0,4.82-.4,7.48-3.09,7.68-7.77.18-4-2.56-7.28-7.08-7.68a114.18,114.18,0,0,0-20,0c-5,.45-7.53,3.52-7.37,8.06.15,4.28,2.66,6.95,7.41,7.33C1803.89,548.57,1807.35,548.35,1810.79,548.35Z"/><path class="cls-1" d="M274.36,658.42c0,4.07.06,8.15,0,12.22,0,1.67,0,3.67-2.56,3.6-2.37-.07-1.83-2-1.83-3.34,0-7.72,0-15.44.05-23.16a10.27,10.27,0,0,1,.12-1.92,1.76,1.76,0,0,1,1.8-1.47,1.69,1.69,0,0,1,2,1.86c0,4.07,0,8.14,0,12.21Z"/><path class="cls-1" d="M270.16,575.37c0-4.1,0-8.21,0-12.31,0-1.37.54-2.66,2.2-2.53,1.42.11,1.44,1.45,1.45,2.47q.15,12.64.17,25.28c0,1.46-.68,2.57-2.32,2.41-1.28-.14-1.66-1.17-1.66-2.36,0-4.32,0-8.64,0-13Z"/><path class="cls-1" d="M274.09,618.33c0,4.11,0,8.22,0,12.33,0,1.62-.74,2.47-2.31,2.34-1.29-.1-1.71-1-1.71-2.26.05-8.43.06-16.87.11-25.3,0-1.16.56-2.18,1.83-2.25s1.79,1.06,1.8,2.17c.05,4.32,0,8.65,0,13Z"/><rect class="cls-2" width="1" height="1"/><rect class="cls-2" x="1919" y="1079" width="1" height="1"/><rect class="cls-2" y="1079" width="1" height="1"/><rect class="cls-2" x="1919" width="1" height="1"/></g><g id="Capa_3" data-name="Capa 3"><path d="M800.92,467.41v111H781.09V507.7l-19.51,14.91-16.17,12.53-16.18-12.53L709.72,507.7v70.74H689.89v-111l19.83,15.23,35.69,27.44,35.68-27.44Z"/><path d="M854.84,504.37v75.5H835V502.31a15.85,15.85,0,0,0-13.49-13.49h-4.44V469.15h4.28v.16A35.64,35.64,0,0,1,834.86,473a35.17,35.17,0,0,1,16,16.18,41.54,41.54,0,0,1,2.69,7.46,32.91,32.91,0,0,1,1,8.09Z"/><path d="M981.26,501a32.67,32.67,0,0,1-9.2,22.84,32.75,32.75,0,0,1-23.48,55.51h-78.2V559.57h78.2a13.07,13.07,0,0,0,13-13,12.92,12.92,0,0,0-12.22-13h-59V513.73h59a13,13,0,0,0-.63-26h-78.2V467.89h78.2a32.63,32.63,0,0,1,32.68,32.67Z"/><path d="M1108.14,467.41v111h-19.83V532.76h-58.52a31.39,31.39,0,0,1-14.91-3.65,32.39,32.39,0,0,1-17.77-29V467.41h19.83v32.68a13.06,13.06,0,0,0,13,13h58.53V467.41Z"/><path d="M1194.26,467.41a35.81,35.81,0,0,1,35.85,35.85v39.18a35.81,35.81,0,0,1-35.85,35.84H1160a35.81,35.81,0,0,1-35.84-35.84V503.26A35.81,35.81,0,0,1,1160,467.41ZM1160,487.24a16.25,16.25,0,0,0-16.18,16.18v39.17A16.25,16.25,0,0,0,1160,558.77h34.26a16.24,16.24,0,0,0,16.18-16.18V503.42a16.24,16.24,0,0,0-16.18-16.18Z"/></g></g></svg>