<svg xmlns="http://www.w3.org/2000/svg" viewBox="0 0 1920 1080"><defs><style>.cls-1{fill:#f2f2f2;}</style></defs><g id="Capa_2" data-name="Capa 2"><g id="Capa_1-2" data-name="Capa 1"><path d="M1690,377.16a31.12,31.12,0,0,0-18.26-5.26c-28.19.11-56.37.07-84.56.06-11.93,0-14.23-2.42-12.66-14.41,1.64-12.62,1.1-25.15-.35-37.7l-3.91-5.61c-5.31-4.19-11.37-5.6-18.09-5.46-10.56.23-21.14-.27-31.69.14-11.36.46-22-1.85-32.58-5.8-39.06-14.53-78.6-27.62-119.23-37.14-3.49-.83-6.17-1.78-5.29-6.24.53-2.75.21-4.89-3.28-6.05-4.62-1.55-9.77-3.68-14-4.12-20.77-2.23-40.37-9.21-60.64-13.31l-3.6-.48c-6.27-1.11-7,3.05-7.28,7.65.42,2.63-.37,4-3.28,3.17-9.8-.4-18.12-2.2-21.1-13.9-1.8-7.11-8.58-9-15.53-9-20.27,0-40.56-.74-60.76.29-10.79.54-17.05-2.79-20.45-12.77-3-8.92-9.38-13.15-18.89-12.12-6.56.68-11.82-1.77-17-5.68a180.09,180.09,0,0,0-43-23.6c-33.75-13.26-68.85-19.62-105-20-54.08,0-79.92,5.94-79.92,5.94-8.77,2.56-17.53,5.17-26.31,7.67a192.33,192.33,0,0,0-62.73,30.9,23.48,23.48,0,0,1-16.41,4.85c-9.15-.67-15.52,2.94-18.23,11.74-3.21,10.36-9.75,13.45-20.48,13-19.34-.88-38.75.09-58.12-.21-10.07-.16-16.75,3.49-20.42,13.13-2.52,6.63-12.44,11.32-19.39,10.3-3.36-.51-3.33-2.84-3.36-5.17-.06-5.74-3-6.85-8.09-5.67Q598,245,559.88,253.62c-2,.48-5,.92-4.41,3.24,2.75,10.17-5,8.85-10.51,10.25a1001.25,1001.25,0,0,0-112.14,35.64c-15.45,5.9-30.82,6.19-46.61,6.13-7.63,0-15.3-.3-22.9.14-12.41.73-18.61,7.34-18.81,19.71-.19,11.46-.62,22.95.07,34.36.44,7.45-2.59,8.94-9.11,8.88-28.77-.16-57.56,0-86.33,0-7.77,0-14.77,1.2-21.22,6.57a32,32,0,0,0-8.21,11.67v84.84c.53,10.85,11.77,25.92,27.58,25.39,30.77-1,61.58,0,92.37.1,6.14,0,9.06,2.88,8.91,9.1-.25,9.38-.32,18.76-.48,28.12,1.57,9.22-1,17.4-6.24,24.89-4.55,6.5-6.26,13.64-6,21.57.74,22.83-1.22,45.69,1.14,68.5,5.61,12.13,15.81,15.16,28.19,15.09,41-.24,82.06-.15,123.08-.12,5,0,9.94.46,14.91.71,35.31,1.18,65.08,15.38,90.66,39,12.72,11.79,23,25.7,32.57,40.09l66,85.19q18.78,24.25,37.51,48.53c19.34,18.07,40.28,33.62,66.46,40.9,12.9,4.39,48.51,8.07,48.51,8.07,7.6-.12,15.2-.48,22.78-.34,12,.23,20.21-4.68,23.51-16.65a5.05,5.05,0,0,1,.05-1.7c1.54-3.82,1.59-10,6.7-9.8,6.3.25,1.25,6.67,3.33,9.7a4.64,4.64,0,0,1,.32,1.67,36,36,0,0,0,5.73.66h104.37c3.69,0,7.07-.29,7.23-5.4.07-2.36-1.18-6.13,2.31-6.68,3.7-.56,4.18,3.35,5.27,5.94.78,1.89,1.36,3.84,2,5.8,3.93,12,8.57,15.65,20.93,16.18,7.58.34,15.18.37,22.77.55,19.66-1,39-3.19,57.7-10.15,30.65-11.44,54.59-31.31,74.23-57.12,35.87-47.15,71.43-94.55,108.27-140.95,29.74-37.46,69.33-55.63,117.56-53.75,2.91-.17,5.81-.49,8.72-.49q57.16,0,114.34.12c9,0,17.52-1.14,24.78-7,2.75-5.45,5.75-10.63,5.66-17.22-.27-21.44-.16-42.88-.11-64.31,0-4.23-.63-8.3-3.17-11.63-8.5-11.15-10.4-23.77-9.45-37.32a155.6,155.6,0,0,0,0-22c-.47-6.13,1.45-7.9,7.65-7.83,27.89.32,55.8-.37,83.67.29,20.76.49,38.49-10.05,38.3-37.9V391.73C1700.3,385.7,1690,377.16,1690,377.16Zm-332.86-88.88c1.8-3.74-.88-11.66,7.72-9.43,24.64,6.36,49.16,13.13,73.24,21.43.69.25,1.2,1,3.58,3.1-28.36-.68-54.81,1.59-80.47-6.84C1356.08,294.87,1355.08,292.54,1357.11,288.28Zm-125.78-50.81c2.67-1.12,5.71.16,7.25,3.25a27.41,27.41,0,0,1,1.53,3.13c4,11.16,12.41,15.55,23.68,15.53,4,0,7.19.66,5.8,5.56-1.08,10.29-2.86,11.38-12,8.14-14.12-5-21.86-15.86-26.52-29.37C1230.45,241.77,1228.57,238.62,1231.33,237.47Zm-535.12,3.44c.85-3.82,3.08-4,6.43-3.95,17,.27,34.06-.24,51.05.46,10.26.41,17.08-3.3,20.5-12.73,3.28-9,8.43-14.1,18.85-12,4.07.83,8-1,11.37-3.68,32.75-26,71.09-37.8,111.79-42.89,14.32-1.78,29.11-.55,43.3-1.46,40.79-2.65,78.83,5.85,116,20.87a146.06,146.06,0,0,1,37.09,21.68c5,4.05,10.06,6.77,16.8,5.62,6.47-1.11,11.31,1.06,13.59,7.85,4.63,13.76,14.36,18.26,28.59,17.15,14.6-1.13,29.33-.28,44-.53,4.77-.09,7.61.92,8.25,6.47.84,7.42,6,13.24,8.78,19.87,4.77,11.22,11.84,17.27,24.27,16.35a5.66,5.66,0,0,1,2.41.94c.16.09.2.42.55,1.25-4,4.12-9.34,3.86-14.42,3.1-47-7.05-94.22-11.9-141.48-16.66-28.42-2.87-49.57,15.55-50.57,44.46-.44,12.6-.13,25.24-.37,37.88-.46,22.32-12.24,34.89-34.66,35.91L897,386.46c-17.84-1-30.39-15.35-30.78-33.42-.26-12.62,0-25.26-.14-37.88-.23-29.53-20.34-49-49.51-46.49-33.58,2.95-67.08,7.06-100.57,10.9-14.56,1.67-29,4-43.56,5.85a42.67,42.67,0,0,1-9.64-.25,3.65,3.65,0,0,1-2.71-1.86c-.55-1.7.89-2.47,2.39-3C681.44,273.79,691.94,260,696.21,240.91Zm-43.58,19.23a36.68,36.68,0,0,1,6.07-.95c9.5-1,16.66-5,19.78-14.67a12.1,12.1,0,0,1,4.3-6.48c1.46-1.06,3.13-2,4.88-1.24,2.15.94,1.3,2.91,1.06,4.6-1.73,14.86-17,30.31-32.23,33.3-6.13,1.22-4.9-3.4-5.9-6.22C649.46,265.36,647,261.62,652.63,260.14Zm-111.4,22c2.25-.62,4.53-1.17,6.78-1.71,12.47-3.05,12.64-3.07,14.58,9.62.76,5,3.76,12.8-7.21,8.2-1.57-.67-4,.42-5.92,1-22.93,6.45-46.38,2.22-69.72,3.15C499.71,293.58,520.48,287.94,541.23,282.18ZM894.31,888.75c-9.38,1.81-14.14,8.28-15.64,16.9s-5.9,10.77-14,10.3c-17.18-1-34.6.91-51.45-4.22-29.09-5.16-52.94-19.55-72.64-41.25-18.53-19.63-33.62-42-50.14-63.26-24.09-31-47.19-62.81-71.74-93.45C589,676.67,550,655.57,502.18,654c-35.15-1.22-70.37-.29-105.55-.34-3.21,0-6.42-.23-9.65-.37a17.55,17.55,0,0,1-8.93,0c-35,1.67-27.15-.81-28-25.56-.14-4.11.16-8.22.25-12.32-2-21.7-1.37-42.93,11.88-61.7.05-15.57.25-31.13.13-46.7-.11-13.08-6.91-20.07-20.19-20.2-28.19-.24-56.37,0-84.56-.16-19.46-.07-24.52-4.95-24.68-24.45-.16-20.25,0-40.52.34-60.79.21-12.73,3-15.29,15.91-15.34,28.79-.11,57.56,0,86.35-.07,17.83-.05,22.58-4.87,22.59-22.46,0-10.87.23-21.75-.08-32.61-.18-6.13,2.24-8.27,8.26-8.14,13.51.3,27-.13,40.51.19a49.83,49.83,0,0,0,21.44-3.88c30.23-13.25,61.5-11.35,93.11-7.05,7.21,1,14.33-2.17,21.38-4,5.59-1.43,11.07-3.23,17.89-5.24-3.68,9.06-10.52,11.32-17.48,13.33-32,9.29-64.24,17.94-95.56,29.45-10.42,3.85-20.77,7.92-30.94,12.41-16.78,7.43-25.56,19.31-25.24,39,.79,48.75.1,97.51,0,146.27,0,1.75-.27,3.49-.41,5.24v32.91c-2.68-.53-2.84-3.69-4.4-5.59-1.38-1.66-2.79-3.3-5.13-2s-2.15,3.7-1.22,5.43c6.4,11.74,9.61,26,25.33,30.23,3.69,1,8.81,4,9.61,7,2.08,7.93,8.72,9.66,14.1,13.29,6.61,1.62,12.83,4.82,19.76,5.15,6.47.32,6.61-2.17,2.66-6.31-5.78-.94-11.74-1.46-16.11-7l16.62,1.13c31.54,0,63.22-2.74,94.19,6.5,29.07,8.69,55.08,22.46,77,43.61l1.63,1.59c13.66,10.88,23.18,25.42,33.81,38.9,28.59,36.28,56.83,72.82,85.19,109.28a12.72,12.72,0,0,1,1.15,2.34c4.46,3.67,7.51,8.41,10.38,13.31q6.32,6.51,12.62,13c11.76,6.35,24.52,6.43,37.41,6.36,11.93,0,23.86.43,35.82.66a241.43,241.43,0,0,1,39.52-.09c11.33.84,14.49,3.54,19.44,15.46-9.31,2.27-18.9,3-27.82,6.33-1.92.7-3.93,1.23-5.76,2.11-2,1-4.87,1.89-4,4.88.92,3.32,3.95,2,5.91,1.54,8-1.75,15.9-3.92,23.86-5.8,2.88-.67,6.93-3.21,8.18,1.14C902.08,888.73,897.25,888.18,894.31,888.75Zm119.43-21.53c-1.55,5.49-1.64,18.58-1.64,18.58.17,21.17.39,21.16-20.61,21.17l-79.45.27c-4.35,0-4.35-2.51-4.37-5.75,0-9.08.07-18.21-.67-27.25-1.09-13-10.52-22.19-23.51-22.86-14-.74-28.09-.73-42.13-1a353.57,353.57,0,0,1-55.23-.55,24.74,24.74,0,0,1-17-8.34c-18.14-21.05-35-43.13-51.49-65.49-18.65-23.62-37.51-47.08-55.91-70.89-14.7-19-30-37.45-49.18-52.2-28.51-20.18-59.89-33.14-94.75-36.59-24.86-2.46-49.84-.55-74.76-1-12.18-.21-23.13-3.19-31.82-12.34C403.71,595,398.78,586,399,574.74c.19-11.72.21-23.44.32-35.18q-.27-55.92-.51-111.87c-.06-11.45.54-22.95-.23-34.35-.85-12.73,5.41-20.45,15.67-26.06,17.29-9.46,35.91-15.7,54.61-21.54,25.38-7.93,50.93-15.35,76.47-22.77,19.76-5.73,27.29-17.4,23.44-37.5-1.3-6.89-2.78-13.8-4.76-20.52-1.14-3.94,0-5.05,3.65-5.9,21.67-4.94,43.28-10.08,64.91-15.23,4.37-1,5.52,1.06,6.26,4.92a218.8,218.8,0,0,0,5.25,22.12c1.6,5.22-.48,6.89-5,7.63-4.13.66-11.28.34-10.35,5.13,1,5,7.3,1.29,11.12.51,5.71-1.14,10.26-.82,15.06,3.56,9.6,8.78,21.29,4.41,32,2.83,42.92-6.39,86.09-10.49,129.23-15,24.41-2.55,42.5,14.25,42.94,38.94.21,12.92-.07,25.85.08,38.77.27,22.14,15,38.37,37.06,40.45l127.6-.19c20.35-1.31,35.58-18.09,36.21-38.54.39-12.92-.07-25.86.32-38.76.85-28.86,19.48-44,48.18-40.42,38.65,4.85,77.4,9.08,116.09,13.63,5.82.68,11.64,1.44,17.37,2.61,8.86,1.79,16.92.58,24-5.27a14.58,14.58,0,0,1,6.14-3.25c3.68-.84,6.34-1.44,3.67-6.91-3-6.17,1.83-12.41,3-18.63,2.87-15.09,3.13-14.88,18.08-11.34,17.91,4.27,35.84,8.61,53.91,12.11,5.73,1.12,5.68,3.34,4.48,7.64-2.49,9-4.69,18.14-7.13,27.18-2.38,8.83,10.16,25.12,22.5,28.71,15.14,4.45,30.41,8.43,45.53,12.89,24.66,7.28,49.27,14.72,73,24.73,4.84,2.05,9.55,4.44,14.26,6.81,11.79,5.92,17.36,14.68,17.2,28.73-.65,58.15-.28,116.31-.39,174.48,0,8.16.46,16.55-5.23,23.5-7.35,14.54-19.85,21-35.47,21.68-13.45.55-27,.77-40.4.09-50.47-2.59-96,10.89-136.53,41-36.54,30.75-60.94,71.75-90.92,108-19,23-36.88,47-55.14,70.69-8.07,10.47-18.37,15.86-31.71,15.77-17.56-.1-35.14,1-52.69-.28-11.13.28-22.25.64-33.39.83C1027.08,851.39,1018.34,856.33,1013.74,867.22ZM1646.2,479.34c0,5.49-1.07,7.9-7.26,7.51a233.63,233.63,0,0,0-28.13.06c-5.7.35-6.9-1.61-6.74-6.88.37-11.72.12-23.46.12-35.2s.2-23.46-.08-35.19c-.13-5.11.86-7.33,6.77-6.94a277.56,277.56,0,0,0,29,0c4.92-.21,6.67,1,6.58,6.24Q1645.92,444.13,1646.2,479.34ZM1686,466.46c-.25,15.46-16.2,25.82-30.61,20.32-3.75-1.43-2.06-4.49-2.06-6.75-.12-24.66-.33-49.34.13-74,.14-7.65-2-10.35-9.82-10-12.89.58-25.83.41-38.73.07-6-.14-8,1.57-7.9,7.88.35,24.66-.12,49.34.23,74,.09,6.81-1.58,9.8-8.79,8.78-3.74-.53-7.62-.16-11.43.05-13.64.69-20.09,7.53-20.16,21.28-.07,10.28.24,20.57-.14,30.83-.43,11.25,2.09,21.44,8.58,30.69,2.17,3.1,4,6.4,4,10.51-.2,21.13-.27,42.27-.39,63.41.74,6.71-2.79,10-9,10-20.34,0-40.7.94-61-.44-21.4.13-42.82.81-64.19.28-62.57-1.55-109.57,25.33-146,75.45-33.41,46-68.54,90.82-104,135.24-26.73,33.44-62.58,50.27-105.54,51.33-8.21.21-16.48-.32-24.63.44-8.88.83-13.09-2.71-13.52-11.35-3.26-8.71-8.12-15.56-18.5-16a3.68,3.68,0,0,1-3.74-2.93c-3.76-11.86,5.34-26.26,17.66-27.22a172.86,172.86,0,0,1,32.33,0c17-1.64,34-.88,51-.46,19.5.5,33.79-6.78,45.76-22.47Q1219.8,764.05,1275.79,694c37.34-46.64,86.45-70.44,146.27-71.5,17.88-.3,35.77.07,53.65.12a8.27,8.27,0,0,1,6.38.48,8.12,8.12,0,0,1-4.76,4.56c-1.36,7.57,4.18,3.57,7,4.17,13-5.63,25.82-11.53,32.33-25.48,1.9-4.05,4.95-6.54,8.86-9.06,10.93-7,15-18.93,18.76-30.69a4.58,4.58,0,0,0-2.34-5.27c-2.72-1-3,2.13-3.9,3.7-3.68,6.44-5,14.12-10.61,21.17,0-17.94,0-34.44,0-51q0-72.24-.11-144.47c0-4.71.07-9.42-2.34-13.72-.67-1.2-1.78-2.68,0-3.79,1.51-1,2.66.07,3.63,1.32,1.86,2.42,4.35,5.06,7.12,2.17,2-2.11-.27-4.93-1.71-7.07-5.47-8-11.55-15.58-19.18-21.66-1.73-1.38-4.07-3.58-6.19-1.39-2.4,2.48-.33,4.93,1.64,6.77,4.81,4.46,10.19,8.46,12.2,15.19-.63.37-1.34,1-1.52.86-27.18-20.13-59.74-27.28-90.94-37.54-18.33-6-37-10.83-55.54-16.34-6.17-1.84-12.38-3.93-14.74-11.11,3.54-2.15,6.26.67,9.2,1.27,3.12.62,6.1,3.08,9.08,3,20.29-.6,37.27,11.1,56.36,14.79,2.73.54,6.32,2.76,7.31-1.4.78-3.26-2.64-4.77-5.53-5.69-6.49-2-13.59-2.08-19.46-6.56,20.16,1.78,41.1-4.65,60.32,4.3,20.62,9.61,42.08,8.84,63.74,8.71,21-.1,21,0,20.91,21.1,0,7.05-.07,14.1.05,21.16.32,16.5,4.79,20.92,21,20.92,28.47,0,56.93-.09,85.42,0,15.25.05,17.91,2.42,18.1,17.89C1686.52,424.77,1686.3,445.62,1686,466.46Z"/><path class="cls-1" d="M1520.62,395.4c.16-14-5.41-22.81-17.2-28.73-4.71-2.37-9.42-4.76-14.26-6.81-23.73-10-48.34-17.45-73-24.73-15.12-4.46-30.39-8.44-45.53-12.89-12.34-3.59-24.88-19.88-22.5-28.71,2.44-9,4.64-18.16,7.13-27.18,1.2-4.3,1.25-6.52-4.48-7.64-18.07-3.5-36-7.84-53.91-12.11-14.95-3.54-15.21-3.75-18.08,11.34-1.2,6.22-6.08,12.46-3,18.63,2.67,5.47,0,6.07-3.67,6.91a14.58,14.58,0,0,0-6.14,3.25c-7.08,5.85-15.14,7.06-24,5.27-5.73-1.17-11.55-1.93-17.37-2.61-38.69-4.55-77.44-8.78-116.09-13.63-28.7-3.61-47.33,11.56-48.18,40.42-.39,12.9.07,25.84-.32,38.76-.63,20.45-15.86,37.23-36.21,38.54l-127.6.19c-22.07-2.08-36.79-18.31-37.06-40.45-.15-12.92.13-25.85-.08-38.77-.44-24.69-18.53-41.49-42.94-38.94-43.14,4.52-86.31,8.62-129.23,15-10.74,1.58-22.43,6-32-2.83-4.8-4.38-9.35-4.7-15.06-3.56-3.82.78-10.15,4.46-11.12-.51-.93-4.79,6.22-4.47,10.35-5.13,4.56-.74,6.64-2.41,5-7.63a218.8,218.8,0,0,1-5.25-22.12c-.74-3.86-1.89-6-6.26-4.92-21.63,5.15-43.24,10.29-64.91,15.23-3.65.85-4.79,2-3.65,5.9,2,6.72,3.46,13.63,4.76,20.52,3.85,20.1-3.68,31.77-23.44,37.5-25.54,7.42-51.09,14.84-76.47,22.77-18.7,5.84-37.32,12.08-54.61,21.54-10.26,5.61-16.52,13.33-15.67,26.06.77,11.4.17,22.9.23,34.35q.24,55.95.51,111.87c-.11,11.74-.13,23.46-.32,35.18-.19,11.3,4.74,20.28,12.27,28.19,8.69,9.15,19.64,12.13,31.82,12.34,24.92.46,49.9-1.45,74.76,1,34.86,3.45,66.24,16.41,94.75,36.59,19.21,14.75,34.48,33.16,49.18,52.2,18.4,23.81,37.26,47.27,55.91,70.89,16.5,22.36,33.35,44.44,51.49,65.49a24.74,24.74,0,0,0,17,8.34,353.57,353.57,0,0,0,55.23.55c14,.31,28.11.3,42.13,1,13,.67,22.42,9.87,23.51,22.86.74,9,.62,18.17.67,27.25,0,3.24,0,5.77,4.37,5.75l79.45-.27c21,0,20.78,0,20.61-21.17,0,0,.09-13.09,1.64-18.58,4.6-10.89,13.34-15.83,25-16,11.14-.19,22.26-.55,33.39-.83,17.55,1.31,35.13.18,52.69.28,13.34.09,23.64-5.3,31.71-15.77,18.26-23.66,36.1-47.67,55.14-70.69,30-36.26,54.38-77.26,90.92-108,40.56-30.14,86.06-43.62,136.53-41,13.43.68,26.95.46,40.4-.09,15.62-.67,28.12-7.14,35.47-21.68,5.69-7,5.23-15.34,5.23-23.5C1520.34,511.71,1520,453.55,1520.62,395.4ZM459.7,454.49c-7.95-3.88-14.09-9.56-16.71-18.23-4.11-13.52-4.52-27.29.37-40.56,5.52-15,19.92-21.93,38.95-20,13.65,1.39,25.88,13.15,28.23,27.39.75,4.62,1,9.31,1.42,14C513.71,453.11,480.68,464.73,459.7,454.49ZM609.94,290.92c-10.14,2.8-20.31,5.48-30.46,8.22-2.19.58-4.09.74-4.57-2.24-.35-2.33.21-4,2.74-4.66,10.45-2.71,20.9-5.46,30.4-8,3.11.16,5.54.29,5.89,2.75S611.86,290.37,609.94,290.92ZM959.39,726.1c-22.09,0-40.07-21.07-40.07-47s18-47,40.07-47,40.07,21.08,40.07,47S981.5,726.1,959.39,726.1Zm373.28-432.52c-.47,2.51-2.94,2.38-3.66,2.35-12.34-1.94-22.86-5.4-33.49-8.48-2.21-.64-3.81-2-3.27-4.43.62-2.64,3-2.57,5-2.08,10.47,2.58,20.91,5.33,31.38,7.9C1331.3,289.49,1333.19,290.89,1332.67,293.58Zm145.82,135.7c-3,17.91-19.62,30.28-37.49,28.82-19.64-1.62-32.1-14.82-32.56-34.53,0-2.65,0-5.29,0-9.4-1-12.46,1.89-24.78,14.47-33.1,23.59-15.53,53.41-1.22,56,27.15A82.89,82.89,0,0,1,1478.49,429.28Z"/><path d="M512,417.06c-.45-4.65-.67-9.34-1.42-14-2.35-14.24-14.58-26-28.23-27.39-19-1.94-33.43,5-38.95,20-4.89,13.27-4.48,27-.37,40.56,2.62,8.67,8.76,14.35,16.71,18.23C480.68,464.73,513.71,453.11,512,417.06ZM498.11,439.8c-5.59,8.38-13.84,11.16-24,11.53-8.65-.46-16-4.65-22.19-11.42-1.15-1.27-1.62-2.24-.09-3.47,1.37-1.11,1.9.21,2.77.81,16,11.1,25.89,11.12,40.63,0,1.37-1,2.61-2.91,4.28-.95C500.81,437.81,498.87,438.66,498.11,439.8ZM453.6,415.69c.21-11.6,10.52-21.49,22.32-21.4a22.58,22.58,0,0,1,22.14,22.6c-.18,11.77-10.26,21.87-22,22C463.66,439.08,453.37,428.45,453.6,415.69Zm22.76-28.08c-11.5-.21-18.88,5.9-26.37,13.13,4.12-12.9,14.13-19.44,27.25-19,12.13.37,22,8.06,26.28,22.34C495.32,394.41,488,387.82,476.36,387.61Z"/><path d="M1478.91,408.22c-2.59-28.37-32.41-42.68-56-27.15-12.58,8.32-15.42,20.64-14.47,33.1,0,4.11,0,6.75,0,9.4.46,19.71,12.92,32.91,32.56,34.53,17.87,1.46,34.48-10.91,37.49-28.82A82.89,82.89,0,0,0,1478.91,408.22Zm-62.31-5.61c2.47-12.34,11.6-19.73,25.37-20.5s23.94,6,28.32,20.08C1454.15,383.25,1432.92,382.07,1416.6,402.61Zm49,14.84c-.6,12-10.94,21.9-22.4,21.51a22.61,22.61,0,0,1-22-23.68c.51-11.61,11-21.22,22.83-20.81C1456.23,394.89,1466.13,405.45,1465.55,417.45Zm-43.47,25.09c-.93-1-3.52-1.7-1.42-4,1-1.11,1.69-.67,2.8.07,18,12.11,33.35,8,47-8.11C1463.88,451.81,1437.28,458.08,1422.08,442.54Z"/><path d="M1332.67,293.58c-.47,2.51-2.94,2.38-3.66,2.35-12.34-1.94-22.86-5.4-33.49-8.48-2.21-.64-3.81-2-3.27-4.43.62-2.64,3-2.57,5-2.08,10.47,2.58,20.91,5.33,31.38,7.9C1331.3,289.49,1333.19,290.89,1332.67,293.58Z"/><path d="M609.94,290.92c-10.14,2.8-20.31,5.48-30.46,8.22-2.19.58-4.09.74-4.57-2.24-.35-2.33.21-4,2.74-4.66,10.45-2.71,20.9-5.46,30.4-8,3.11.16,5.54.29,5.89,2.75S611.86,290.37,609.94,290.92Z"/><path d="M968.56,250.14c7.91.43,15.85.16,23.78.06,2.38,0,5.75,1.25,5.91-3,.14-4-2.93-3.76-5.55-3.77-8.52,0-17-.16-25.54.11,0,0-4.11-.83-4.11,3.35S968.56,250.14,968.56,250.14Z"/><path d="M773.08,255.46c3.16,0,7.09-1.7,7.8,2.2s-3.85,4.06-6.27,4.5c-9.43,1.72-19,3-28.5,4.1-2.22.26-5.86,1.45-6-2.77-.08-2.79,2.34-3.71,4.84-4.06C754.47,258.11,764,256.75,773.08,255.46Z"/><path d="M1082.31,248.44c7.65.77,14.92,1.47,22.19,2.25,2.33.25,5.1.42,5,3.65-.1,3.56-3,2.91-5.27,2.79q-14.46-.81-28.92-1.8c-2.6-.18-5.86-.21-5.69-3.88.18-3.86,3.36-3.16,6-3C1078,248.53,1080.32,248.44,1082.31,248.44Z"/><path d="M1188.35,260.83c9.35,1.11,19.17,2.24,28.63,5.34,2.24.73,5.08,1.6,4.47,4.41-.69,3.21-3.72,3.27-6.41,2.49-9.24-2.66-18.71-4-28.16-5.62-2-.34-6.07.35-5.34-3.95C1182.19,259.6,1185.44,261,1188.35,260.83Z"/><path d="M807.89,257.68c-3.16-1.44-11.42,3.71-11.72-3-.27-6.05,8.05-2.59,12.42-3.49,7.12-1.47,14.48-1.75,21.75-2.43,2.37-.22,5.17-.18,5.44,2.89s-2.61,3.63-4.87,3.93C823.68,256.54,816.51,258.21,807.89,257.68Z"/><path d="M875.78,245.23c5.22,0,9-.07,12.78,0,2.06.06,4.25.36,4.18,3.22,0,2.19-1.81,3-3.53,3.16-11.31.79-22.63,1.43-33.94,2.07-2,.12-3.29-.77-3.35-3-.06-2.46,1-3.7,3.55-3.88C862.72,246.34,870,245.71,875.78,245.23Z"/><path d="M1033.51,252.43c-5.84-.31-11.69-.51-17.52-1-1.75-.14-3.51-1.13-3.36-3.33s1.9-2.78,3.75-2.82c10.83-.18,21.68-.72,32.45.92,2.26.34,5.11.84,4.84,4-.36,4.11-3.76,2.62-6.1,2.59-4.68-.07-9.36-.39-14-.61Z"/><path d="M692.27,274.87c-5.09.37-7.54.29-7.75-2.95-.17-2.71,2.14-3.24,4.09-3.61,10-1.92,19.95-3.82,30-5.48,2-.34,5.24-1.33,6,1.67.86,3.6-2.79,4.21-5,4.72C709.6,271.49,699.64,273.37,692.27,274.87Z"/><path d="M912.48,251c-2,0-4.49.54-4.63-2.5-.09-2,1.35-3,3.34-3.38,11.31-2.42,22.77-1.67,34.19-1.64,2.17,0,3.17,1.28,2.92,3.4-.29,2.39-1.66,3.55-4.14,3.52Z"/><path d="M1157.61,263c-9.11-.73-17.27-1.27-25.39-2.11-2.7-.28-6.93.07-6.71-3.85.28-5.09,4.86-3,7.62-2.8,7.86.46,15.74,1.12,23.53,2.24,3.2.46,9.18-1.79,8.72,4.07C1165,266,1159.35,261,1157.61,263Z"/><path d="M445.74,327.93c1.88.38,4-.68,4.54,1.93s-.88,4-3,4.58a122.53,122.53,0,0,0-29.42,12.86c-1.62.95-4.18,1.69-5.29-.92-1.22-2.89.44-5.19,2.72-6.68,7.13-4.65,15.11-7.39,23.17-9.88C441,329.05,443.51,328.51,445.74,327.93Z"/><path d="M379,548.76a26.63,26.63,0,0,1,.37,3.43c0,2.66,1.46,6.3-2.76,6.95s-4-3-4.51-5.75a31.36,31.36,0,0,0-1.05-3.24c.06-8.49,0-17,.26-25.48.08-2.82.18-7,3.62-7,4.49-.09,2.54,4.24,2.74,6.8C378.34,532.52,377.15,540.72,379,548.76Z"/><path d="M371.24,431.5c-.26-8.79-.13-15.18,1.37-21.47.45-1.87.05-4.48,3.11-4.23s3.79,2.87,3.38,5.13c-1.94,10.71-.75,21.51-1.23,32.25-.09,1.9.56,4.51-2.49,4.63s-3.93-2.41-4.06-4.71C371.05,438.45,371.24,433.79,371.24,431.5Z"/><path d="M377.86,483.3c0,4.95.1,9.9-.06,14.84-.06,2.13,1,5.58-2.07,5.82-3.58.29-4.51-3.12-4.56-6.14-.12-8.14-.08-16.29,0-24.44a30.75,30.75,0,0,1,.53-6.93c.49-2.09.78-5.15,4-4.71,2.71.38,2.19,3,2.2,5C377.91,472.24,377.87,477.77,377.86,483.3Z"/><path d="M379.05,390.26c-2,0-1.42-2.72-.87-4.32,3.74-10.8,8.49-21,17.86-28.29,1.35-1,2.95-2.33,4.6-.94,1.32,1.1.65,3-.18,4-6.8,8.07-11.61,17.28-15.8,26.88C383.94,389.17,382.41,390.17,379.05,390.26Z"/><path d="M498.13,313.65c3.11.36,5.77-.74,6.37,1.93.53,2.42-1.42,3.33-3.67,3.9-10.46,2.63-20.87,5.47-31.33,8.13-1.67.43-3.9.59-4.49-1.48-.83-2.9,1.54-4.38,3.75-5C478.89,318.42,489.09,315.93,498.13,313.65Z"/><path d="M1461.4,324.76c10.41,2.32,20.65,4.6,30.21,9.07,2.07,1,4.71,2.1,3.94,5-.81,3-3.62,2.56-5.83,1.9q-15-4.5-29.92-9.33c-2.24-.72-4.55-2.09-3.53-5C1457.18,323.72,1459.68,324.91,1461.4,324.76Z"/><path d="M1548,419.64c0,3.5.06,7,0,10.51,0,2.16-.53,4.2-3.4,4-2.13-.16-3-1.59-3-3.56.33-11.12-1.12-22.1-2.67-33.08-.26-1.83-.64-4.55,1.81-5.27,3.07-.89,4.07,1.93,4.65,4A71.67,71.67,0,0,1,1548,419.64Z"/><path d="M1541.72,468.7c0-5.23,0-10.46,0-15.69,0-2-.64-4.52,2.14-4.89,3-.4,4.1,1.92,4.12,4.45.08,11.36,0,22.72,0,34.08,0,2.47-1.35,3.78-3.87,3.47s-2.33-2.17-2.33-3.95Q1541.72,477.44,1541.72,468.7Z"/><path d="M1543.17,547.73c-2.75-14.47.12-27.68-1.63-40.67a2.51,2.51,0,0,1,2.51-2.95,4.14,4.14,0,0,1,2.76,1.66C1550,510,1548,541.28,1543.17,547.73Z"/><path d="M1371.61,644.1c-2.18-.93-6,1.29-6.51-2.48-.45-3.23,3-4.13,5.27-4.85a143.23,143.23,0,0,1,31.54-5.86c7.2-.54,6.63,2.55,3.15,6.92A213.38,213.38,0,0,0,1371.61,644.1Z"/><path d="M1058.09,891.53c-7.89-2.71-15.76-5.44-23.66-8.1-2.26-.76-5-1.49-4.48-4.36.61-3.68,4.09-3,6.36-2.49,6.18,1.31,12.24,3.17,18.35,4.81,3.13,1.47,6.32,2.82,9.36,4.43,2.17,1.15,5.54,2.16,4.31,5.36-1.3,3.35-4.41,1.41-6.83,1C1060.36,892,1059.23,891.74,1058.09,891.53Z"/><path d="M1352.56,647c-.11,3.15-2.45,4.35-4.83,5.61-8.28,4.35-16.5,8.79-23.64,15-1.64,1.43-4.09,3.61-6.13,1.57-2.25-2.26-.63-5,1.33-6.91,8.5-8.45,19.27-13,30.08-17.51C1351.78,643.77,1352.56,644.73,1352.56,647Z"/><path d="M1248.09,754.51c-4.25.4-4.27-2.23-3.06-4.38,5.58-9.93,13.35-18.28,20.37-27.17a3,3,0,0,1,3.92-.93c1.51.82,2.13,2.09,1.24,3.57-6,9.95-12.12,19.83-20.39,28.13C1249.62,754.28,1248.58,754.34,1248.09,754.51Z"/><path d="M1307,680.6c-1,1.65-1.7,3.33-2.87,4.5A108.1,108.1,0,0,0,1286.79,707c-1.31,2.25-3.34,4.89-6.22,3-2.36-1.55-.91-4.43.18-6.36,5.26-9.18,11.6-17.54,19.82-24.31,1.28-1.05,2.7-2.66,4.59-1.67C1306,678.1,1306.31,679.46,1307,680.6Z"/><path d="M1443.52,630.73c5,0,10,0,14.93,0,2.2,0,5-.79,5.22,2.87.21,3.19-1.88,4-4.45,4q-16.23.15-32.48.1c-2.59,0-4.76-1.22-4.6-4.14s2.7-2.55,4.7-2.57c5.56,0,11.12,0,16.68,0Z"/><path d="M1213.51,800.26c-2.84-.41-4.1-2.83-2.87-4.88,6.18-10.32,14-19.43,22.36-28a3.62,3.62,0,0,1,3.11-.46,1.94,1.94,0,0,1,.94,2.91c-6.1,11-14,20.78-22.55,29.95A4.25,4.25,0,0,1,1213.51,800.26Z"/><path d="M1169,860.07a16.45,16.45,0,0,1-1.73,3.06c-6.52,7.92-13.65,15.2-22.26,20.9-2.24,1.49-5,3.21-7,.63-1.86-2.35.64-4.39,2.39-5.8a198.8,198.8,0,0,0,22.54-20.77,4.57,4.57,0,0,1,4.71-1.61C1169,856.85,1169.21,858,1169,860.07Z"/><path d="M1178.87,844.27c-3.74-.42-3.15-2.87-1.66-4.85,6.66-8.84,13.52-17.53,20.32-26.26,1-1.24,2.24-2,3.75-1.14a3.34,3.34,0,0,1,1.3,4.59c-6.31,9.79-13.33,19-22,26.9A7,7,0,0,1,1178.87,844.27Z"/><path d="M1098.41,897.64c-3.79,0-7.57,0-11.36,0-1.57,0-2.9-.75-3-2.5-.08-2,1-3,3.14-3.26,10.71-1.09,21.42-2.34,32.13-3.47,1.62-.17,3.72-.77,4.19,1.72a4.09,4.09,0,0,1-3.51,5.14C1112.91,896.68,1105.75,898.1,1098.41,897.64Z"/><path d="M586.28,662.38c-2.19-3.46-9.8-5.42-6.66-9.71,3.79-5.17,8,1.61,11.6,3.48,7,3.63,13.21,8.69,19,14.14,2,1.87,3.88,4.44,1.78,6.9-2.3,2.69-4.81.29-6.91-1.14-4.56-3.13-8.19-7.55-13.42-9.76A10.29,10.29,0,0,0,586.28,662.38Z"/><path d="M735.25,828.25l11.69,14.94c1.26,4.07,7.87,8.38,2.81,11.89-3.22,2.24-6.3-4.42-9-7.49-4.58-5.25-8.87-10.76-13.08-16.32-2.05-2.72-5.13-6.5-1.56-9.13,3.31-2.44,5.3,2,7.33,4.26C734,827.05,734.65,827.64,735.25,828.25Z"/><path d="M559.84,648.22l-5.38-1.83c-5.18-2.12-10.37-4.21-16.07-4.41l-5.07-1.56-7.18-2.25c-1.28-3.46-.77-5.7,3.61-5.25a97.58,97.58,0,0,1,33.91,9.63c3.19,1.59,3.1,3.75.62,6.05Z"/><path d="M682.55,763.56c-.27.56-.45,1.68-1,2-1.46.71-2.8,0-3.85-1.13a196.8,196.8,0,0,1-20-26.49c-1.35-2.1-.55-4,.87-5.57s2.69-.6,3.63.59c7.24,9.12,14.7,18.1,19.76,28.73A15.79,15.79,0,0,1,682.55,763.56Z"/><path d="M491.36,631c5,0,10,0,15,0,2,0,4.32-.32,4.34,2.85,0,2.14-1.19,3.49-3.08,3.56-11.72.46-23.45,1.06-35.14-.43-2.1-.27-3-1.59-2.72-3.68.37-2.39,2.34-2.29,4-2.31C479.62,631,485.49,631,491.36,631Z"/><path d="M717.13,807.9c-.63,3.78-3.6,3.94-5.56,1.93-8.14-8.37-14.16-18.37-20.41-28.17a2.39,2.39,0,0,1,.44-3.14,2.54,2.54,0,0,1,3.87-.18c7.73,8.69,15.4,17.45,21.15,27.65A8.36,8.36,0,0,1,717.13,807.9Z"/><path d="M621.16,691.15c.85-5.19,3.81-3.58,6.17-1.58,8.12,6.87,14.19,15.49,19.8,24.41,1.19,1.9,2,5.12-.17,6.48-2.32,1.49-4.24-1-5.67-2.87-5-6.42-9.93-12.89-14.88-19.35Z"/><path d="M793.65,888.56c-.35,3.05-2.48,3.16-4.5,2.65-11.51-2.93-20.52-9.72-28-18.69a5.29,5.29,0,0,1-.61-4.1c.34-1.35,2-1.15,3-.55q14.41,9.23,28.7,18.62C792.87,886.92,793.19,887.88,793.65,888.56Z"/><path d="M836.12,890.72c2.56.24,5.13.44,7.69.74,2.15.26,5-.34,4.92,3.22-.12,3.4-3,3.11-5.14,3.23-7.19.39-14.38.55-21.57.8l-10.29-1c-2-.21-4.25-.32-4.15-3.2s2.27-2.94,4.34-3C820,891.13,828.09,892.21,836.12,890.72Z"/><path d="M959.39,708.27a29.15,29.15,0,1,1,29.15-29.15A29.18,29.18,0,0,1,959.39,708.27Zm0-51.24a22.1,22.1,0,1,0,22.1,22.09A22.12,22.12,0,0,0,959.39,657Z"/><path d="M959.39,632.14c-22.09,0-40.07,21.08-40.07,47s18,47,40.07,47,40.07-21.07,40.07-47S981.5,632.14,959.39,632.14Zm0,86.9c-18.21,0-33-17.91-33-39.92s14.81-39.93,33-39.93,33,17.91,33,39.93S977.6,719,959.39,719Z"/><rect class="cls-1" width="1" height="1"/><rect class="cls-1" x="1919" y="1079" width="1" height="1"/><rect class="cls-1" y="1079" width="1" height="1"/><rect class="cls-1" x="1919" width="1" height="1"/></g><g id="Capa_3" data-name="Capa 3"><path d="M798.38,452v111H778.56V492.31l-19.51,14.91-16.18,12.53-16.18-12.53-19.51-14.91v70.75H687.35V452l19.83,15.22,35.69,27.44,35.69-27.44Z"/><path d="M852.31,489v75.5H832.48V486.92A15.8,15.8,0,0,0,819,473.44h-4.45V453.77h4.29v.16a35.42,35.42,0,0,1,29.5,19.82,42.36,42.36,0,0,1,2.7,7.46,33.47,33.47,0,0,1,1,8.09Z"/><path d="M978.72,485.65a32.67,32.67,0,0,1-9.2,22.84A32.76,32.76,0,0,1,946,564H867.85V544.18H946a13.07,13.07,0,0,0,13-13,12.91,12.91,0,0,0-12.21-13h-59V498.34h59a13,13,0,0,0-.64-26H868V452.5H946.2a32.63,32.63,0,0,1,32.68,32.68Z"/><path d="M1102.91,518a31.66,31.66,0,0,1,2.69,12.85,32.62,32.62,0,0,1-32.67,32.67h-78.2V543.71h78.2a12.93,12.93,0,0,0,12.85-13,12.77,12.77,0,0,0-11.42-12.85H994.73V452.5h101.68v19.83h-81.85V498h59.64a32.17,32.17,0,0,1,28.87,19.83Z"/><path d="M1232.49,485.65a32.67,32.67,0,0,1-9.2,22.84A32.76,32.76,0,0,1,1199.81,564h-78.19V544.18h78.19a13.07,13.07,0,0,0,13-13,12.91,12.91,0,0,0-12.21-13h-59V498.34h59a13,13,0,0,0-.64-26h-78.19V452.5H1200a32.63,32.63,0,0,1,32.68,32.68Z"/></g></g></svg>