<svg xmlns="http://www.w3.org/2000/svg" viewBox="0 0 1920 1080"><defs><style>.cls-1{fill:#f2f2f2;}.cls-2{fill:#010101;}</style></defs><g id="Capa_2" data-name="Capa 2"><g id="Capa_1-2" data-name="Capa 1"><rect class="cls-1" width="1" height="1"/><rect class="cls-1" x="1919" y="1079" width="1" height="1"/><rect class="cls-1" y="1079" width="1" height="1"/><rect class="cls-1" x="1919" width="1" height="1"/></g><g id="Capa_3" data-name="Capa 3"><path class="cls-2" d="M1790.86,570c-6.77-4.56-14.48-4.16-22-4.23-17.86-.19-35.71-.35-53.56,0-8.12.14-10.88-3.78-10.86-11.13,0-14.34-.58-28.71.14-43,.72-13.93-4.89-23.05-16.71-30.1-23.6-14.08-46.61-29.12-70-43.47a61.21,61.21,0,0,1-22.09-23.11c-13.21-23.8-27.34-46.85-48.22-65.23-21.74-19.16-47.57-30.39-73.73-41.39-59.31-24.91-120.73-43.51-182.51-61-3.27-.93-7.75-.65-8.14-5.17-.51-5.73-4.66-6.18-8.56-7q-30.42-6.48-60.87-12.7c-5.27-1.08-11.18-5.05-14.64,3.34-.77,1.84-3.79.79-5.76.43-41.19-7.55-82.84-11.29-124.47-15-22.44-2-44.93-3.27-67.44-4.3-10-.48-13.89,3.35-14.91,13.21-.51,4.92-.21,9.93-.28,14.9-.08,6.19-.58,12.37,6.61,15.7,3.37,1.54,1.42,4.46.67,6.88-2.73,8.63-5.4,17.28-8.12,25.91s-7.82,14.81-16,18.75c-8.34,3.63-18.1.56-18.1.56-7.43-3.39-13.46-8.22-16-16.38-2.92-9.17-5.61-18.42-8.84-27.46-1.67-4.68-2.57-8.25,3.34-10.43,3.14-1.16,3.55-4.37,3.53-7.41,0-6.43.14-12.88-.19-19.31-.6-11.46-4.39-14.87-15.92-14.87-25.38,0-123.15,9.75-123.15,9.75-22.35,2.62-44.72,5.08-66.85,9.3-3.76.7-7.26,1.95-8.94-3.6-.95-3.17-4.57-1.9-7-1.39q-34.7,7.38-69.31,15c-1.9.42-4.9.19-4.89,2.76,0,9.36-7.83,8.26-13.09,9.75-69.45,19.63-138.19,41.26-204.18,70.85-36.62,16.43-66.25,41.09-84.8,76.87-12.48,24-29.56,41.89-53.32,54.65-18.24,9.8-35.2,21.94-53,32.58-9.62,5.74-13.68,13.79-13.57,24.67.16,14.92.11,29.84,0,44.76-.07,10.63-1.62,12.38-12.09,12.61-14.34.32-28.68.14-43,.3-11.86.14-24-1.37-35.39,6.24C121.92,573.6,120,581,120,581V704c0,21.66,6.12,27.76,27.45,27.88,14.34.07,28.66.27,43,.39q37.62-.13,75.21-.28a9.78,9.78,0,0,1,8.88,4.5c9,13.23,18.05,26.41,27.08,39.59,24.53,31.68,53.45,58.22,87.88,79.2,9.59,5.85,22.05,10,22.05,10h61.17c1.73,0,4.84.09,4.94.63,2.37,11.05,11.09,6,16.91,6.19,20.15.56,40.34.23,60.5.1,4.16,0,8.91,1.2,10.35-5.2.63-2.78,4-1.9,6.17-1.69,33.1,3.4,64.1-4,94.45-16.81a207.44,207.44,0,0,1,44.32-13.17c26.18-8.89,53.28-14,80.36-19.08,14-2.62,28.12-4.34,42.17-6.47,39.31-6.18,78.94-8.75,118.65-10.31,3.73-.14,16.31,0,16.31,0,82,2.71,162.88,13.22,242,35.45,23.3,6.55,46.48,13.56,68.89,22.7,14.07,5.75,28.27,8.81,43.47,7.79,8.15-.57,16.4.26,24.55-.2,5.39-.3,8.42,1.18,8.61,6.86l75.81.05c3.2,0,6.4,0,9.24-1.79.23-1.13.48-2.23.72-3.36-.23-1.3.39-1.65,1.55-1.35h10.51l8.84-.08c12-.07,24-.57,35.9-.09,10.68.4,19.77-2.88,28.92-8.1,48.52-27.63,84.12-68,113.59-114.4,5.1-8,10.25-11.77,20.14-11.26,19.23,1,38.52.58,57.78.72,18.05-.13,36.09-.2,54.14-.43,20.19-.26,26.68-6.73,27-26.64l.6-118C1800.05,576.62,1790.86,570,1790.86,570Zm-514-297.68c6.43,1.62,12.86,3.17,19.28,4.85,2.67.72,5.92,1.3,6.94-1.44,1.39-3.72-2.57-3.78-4.84-4.53-4.71-1.57-9.43-3-14.21-4.27-2.92-.76-6.4-1.16-5.64-5.1.88-4.6,4.46-2.53,7-1.79,44,12.56,87.83,25.59,130.94,41,29.38,10.51,58.3,22.14,86.54,35.39,15.73,7.38,29.46,17.8,42.13,29.63,2,1.93,4.32,3.76,5.16,8.24-11.93-6.56-23.07-12.67-35.11-16.78-.77-.27-1.81-.9-2-1.55-4-15.22-19.09-15.45-29.53-21.88-1.68-1-4.76-2.79-5.85.28-.88,2.43.69,4.68,3.67,6a93.07,93.07,0,0,1,15.19,8.47c-72.19-28.47-145.54-53.46-220.56-73.58C1276.34,274.27,1276.61,273.3,1276.89,272.33Zm242.47,102c-1.36,3-3.82.74-5.78-.14a1475.06,1475.06,0,0,0-228.48-81.66c-5-1.33-10.09-3.06-10.69-10.84,11.67,3.23,22.79,6.17,33.85,9.4,69.27,20.3,137.34,44,203.58,72.75a26.64,26.64,0,0,1,6.16,3.2C1520.32,368.91,1520.32,372.2,1519.36,374.34ZM1016,225.38c-.8-3.8,2.06-4,5-3.76,33.44,2.88,66.94,5.48,100.36,8.64q34.43,3.26,68.48,9.3c3.71.65,6.91.4,5.71,6-1.35,6.38-4.57,2.95-7.71,2.26-9.39-2-18.82-3.88-28.28-5.67-2.39-.46-5.3-.11-6,2.28-.44,1.41,1.6,3.71,3.69,4.13,11.1,2.22,22.54,2.66,29.29,6.1-25.09-1.6-53.82-6.56-82.62-11.05-4.29-.67-8.67-.71-13-1.32-4.54-.65-11.11,1.7-10.28-7.28.21-2.37-3.32-1.77-5.15-1.53-5.2.69-10.6,1-15.47,2.71-13.67,4.85-27.3.79-40.85.12C1012.82,236,1016.79,229.16,1016,225.38Zm-16-.83c.09-2.9,1.58-4.06,4.41-4.11,3.36-.09,4.67,1.35,4.6,4.69-.14,6.66-.05,13.32-.05,20.9C998.89,240.82,999.7,232.58,1000,224.55Zm-35.23,92.93c24-3.69,32.54-21.11,37.34-42,1.3-5.6,3.29-11,4.94-16.57,6.76,28.17-7.79,53.84-34,62.47a68,68,0,0,1-6.8,1.65c-1.81.37-3.65.32-4.18-1.9S962.79,317.78,964.73,317.48Zm-49.35-96.92c3.76.14,3.8,2.43,4,5.26.55,7.94.25,15.44-9,20.65,0-7.51.08-14.13,0-20.76C910.27,222.11,911.57,220.42,915.38,220.56Zm-3.07,38.31c3.06,10.23,5.92,20.51,9.22,30.65,4.92,15.2,15.57,24.27,31.07,27.64,2.3.51,5.29.28,4.9,3.5-.5,3.95-3.79,2.6-6.25,2.26-20-2.7-39.07-23.89-40.65-45.75C910.16,271.16,909,265,912.31,258.87Zm-6.19,31c6.93,22.79,22.5,36.15,46.24,39.68,6.25,1.19,14.62,0,14.62,0,28.59-4.39,47.2-25.14,48.6-54.42.41-8.75.41-17.54.21-26.31-.09-4.16,1.13-5.85,5.43-5.32,8.16,1,17-1.88,24.24,4.37a3.3,3.3,0,0,0,2.44.5c26.48-4.8,52.12,2.79,78.07,5.44,18.54,1.9,37,5,55.45,7.56a13,13,0,0,1,3.41.79c1.89.81,5.41-.18,4.92,3.5-.41,3-2.73,4.22-5.68,4.43-8.56.56-16.89-1.43-25.27-2.39-25.53-3-51-6.4-76.51-9.53-17.93-2.19-35.09-.81-50.07,13.11-1-5.34,3-8.68,0-12.9-7,4.18-8.48,11.51-10.75,18.19-2.53,7.45-4.06,15.25-6.87,22.58-7.56,19.75-28.68,35.62-47,35.71l-15.76.07c-17.52.23-39-15.5-46.66-34.85-3.53-8.91-5.68-18.36-8.72-27.48-1.89-5.64-3.44-11.74-9.85-14.45-2.2,3.89.75,7,1,10.34-.9.3-1.59.75-1.8.59-20.38-16-43.6-11.82-66.47-9.1-24.06,2.88-48,6.54-72.09,9.3-5.87.68-15.71,4.29-16.81-3-1-6.3,9.22-4.43,14.63-5.38,36.82-6.42,73.76-12.55,111.1-13.62,13.41-.39,26.2-3.88,39.52-4,6.89,0,8.19,2,7.94,8.29C903.15,264.39,902.34,277.45,906.12,289.87ZM726.9,239.82c10.1-1.46,20.1-3.56,30.22-4.81,46.08-5.71,92.22-10.55,138.62-13,3.91-.21,8.41-2.25,7.89,5-.41,5.28.86,9.85-7.7,10.05-16,.37-31.89,1.72-47.69-2.83-3.62-1.06-10.21-4.94-10.62,5.52-.15,4.28-9.33,3.19-13.83,3.14-13.12-.16-25.32,4.76-38.2,5.45-7.47.39-14.92,1.6-22.56,2.46,2.83-8.52,1.49-10.14-7-8.21-9.08,2.09-18.52,2.53-27.25,6.17-2.55,1.07-4.59,1.14-4.85-2.35C723.73,243.71,722,240.53,726.9,239.82Zm-82.08,43.93c1,2.45-1.41,4.43-3.47,5.45a55.12,55.12,0,0,1-9.7,3.75,1578.86,1578.86,0,0,0-217.39,77.4c-4.48,2-8.87,4.2-13.76,6.52-2.6-7.08-.17-10.08,5.84-12.7,75.44-32.92,153.18-59.19,232.48-81C641,282.58,643.64,280.84,644.82,283.75ZM396.5,348.18c27.34-18.49,58.48-29.07,88.91-40.77,48.22-18.52,97.78-33.09,147.47-47.15,2.22-.63,4.56-2,6.72-.65.93.58,1.47,2.53,1.38,3.81-.14,1.92-1.72,2.59-3.63,3.06-5.4,1.28-10.74,2.76-16,4.52-2.44.82-6.62,1.1-4.81,5.43,1.47,3.53,4.3,1.49,6.76.77,6.24-1.79,12.52-3.41,19.21-3.69-73.73,22.07-146.82,45.9-218.39,74.32,4.88-2.87,9.82-5.68,14.69-8.6,1.84-1.11,3.5-3,2.58-5-1.12-2.6-3.65-1.14-5.31-.41-8.52,3.84-17.22,7.31-24.84,12.87-.72.51-1.92.88-2.09,1.53-3.57,13.79-17.51,12.75-26.57,18.61-3.87,2.51-8.05,4.49-12.09,6.73C376.46,362.23,386.39,355,396.5,348.18ZM167.15,718.64c-7.8-.86-15.74-.56-23.63-.51-6.48.06-9.65-2.7-9.63-9.4q.11-60.43,0-120.86c0-5,1.93-7.61,7.17-7.68,10.51-.18,21-.35,31.49-.9,5.32-.28,5.45,2.67,5.43,6.58-.09,21,0,42,0,63.06h-.07c0,19.84-.47,39.72.21,59.56C178.4,717.36,175.43,719.58,167.15,718.64ZM190.37,711c0,.6,0,1.18,0,1.76-.21,2.44.81,5.92-3.22,5.88-4.2,0-2.88-3.48-2.86-5.9q.16-22.34.35-44.65c0-6.14,0-12.27,0-18.39h.11c0-21-.06-42,.07-63.05,0-2.53-1.8-6.87,2.79-6.85s2.76,4.41,2.76,6.87C190.46,628.15,190.39,669.58,190.37,711ZM473.68,851.6c-19.84-.21-39.7-.21-59.56-.35-4.23,0-7.82-2.15-11.37-4.18-37.25-21.34-68.71-49-92.94-84.69-6.54-9.63-13.34-19.12-20-28.66-7.42-13.53-19.23-16.53-33.8-15.81-18.24.91-36.58.15-54.87.12-1.55.58-2.31,0-2.52-1.48a1.69,1.69,0,0,1-1.3-2.42c-1.07-15.8-.56-31.58.12-47.36-.22-27.48-.4-54.95-.75-82.43,0-4.12,1.93-4.61,5.38-4.85,20.84-1.52,26.81-8.32,26.67-29.37-.09-13.16.65-26.34,0-39.47-.42-8.24,3-12.72,9.62-16.78,22.91-14,45.33-28.85,68.35-42.68,13.2-7.93,23.43-18,30.4-31.74,4.33-8.57,10-16.43,14.8-24.79A28.48,28.48,0,0,1,366.92,382c.35.53.95,1,.9,1.4-.48,3.4-5.61,7.21-.9,10,4.2,2.46,6.08-2.92,8.44-5.45,4.18-4.48,8-9.31,12.09-13.85,1.09-1.21,2.46-2.93,4.42-2.11,2.54,1.06,1.27,3.57,1.5,5.42.4,3.42-2.27,5.09-4.54,6.94-24.76,20.17-36.2,46.41-36.11,78.18.14,56.72-.16,113.47,0,170.21.06,10.91.62,22,5.66,32.12,7.3,15,16.87,28,31.63,36.39,3.27,1.87,3.06,4.59,3.11,7.51.16,8.17.25,16.36.57,24.53.09,2.09-.51,5.36,3,5.24s2.71-3.31,2.78-5.43c.18-7,.35-14,.07-21-.17-4.55,1.25-5.57,5.59-4.32,10.89,3.14,21.93,5.87,32.86,8.93,28.17,7.9,42.05,27.67,40.29,57.28.13,24.22.18,48.45.43,72.67C478.77,850.39,477.44,851.63,473.68,851.6Zm879.61-1.51c-.82,3.11-4,1.33-6.06,1.54-30.36,3.08-58.66-4.55-87-14.81-47.8-17.29-97.16-28.7-147.42-36.83a1062.44,1062.44,0,0,0-144.67-13.73c-2.45-.07-6.21.92-6.12-2.91.11-4.1,4-2.36,6.24-2.34,6.71,0,13.42.6,20.14.88,2.74.12,6.94,1.6,7.2-2.23.19-2.87-4-3.76-6.94-4-5.53-.44-11.11-.86-16.64-.85-13.18,0-26.32.37-39.5.51-3.9.06-7.44.65-9.74,4.84,3.11,2.76,6,1.77,8.87,1.6,7-.43,14-.64,21-.85,2,0,4.64-.54,4.57,2.5-.05,2.74-2.47,2.65-4.58,2.72-11.41.42-22.81.7-34.2,1.35-85.33,4.92-169.14,18.26-250.31,46-14.91,5.08-30.08,9.4-44.6,15.62a25.67,25.67,0,0,1-9.36,2.11c-14.62.33-29.24.37-43.88.45-1.62,0-3.73.64-4.46-1.61-.62-1.86.59-3.29,1.67-4.69,1.51-2,3.41-3.4,5.92-3.22,37.92,2.72,70.32-16.47,104.89-26.8,38.22-11.44,76.76-21.77,116-28.66,34.41-6.06,69.17-10.16,104.12-13.18,45.06-3.88,89.88-2.62,134.66,1.14,30.38,2.55,60.54,7.33,90.69,12.62,48.12,8.44,94.9,21,141.18,36q17.43,5.64,34.46,12.42a75.22,75.22,0,0,0,35.11,5.45c5-.44,10.07-.34,14.59,2C1351.59,844.43,1354.16,846.87,1353.29,850.09Zm80.58-28.8c.1,4.18-1.18,5.62-5.45,5.46-8.19-.3-16.38-.12-24.59-.07-2.33,0-5,0-5.06,3.34s2.66,3.39,5,3.41c8.19.09,16.39.26,24.58,0,4-.12,6.26.63,5.5,5.15a8.49,8.49,0,0,0,0,.88c-.47,8.42,3.45,19.17-1.46,24.58-4.58,5.08-15.42,1.09-23.51,1.27-14.06.31-28.1.09-42.14.21-3.65,0-6.29-.25-5.69-5.13,1.28-10.76-.18-20.47-12.85-25.13.46-.6.92-1.2,1.39-1.79,8.88,0,17.75,0,26.62,0,3.08,0,7.49,1,7.63-3.55.16-5.22-4.62-3.13-7.34-3.2-9.07-.23-18.16-.12-27.22,0-2.48,0-5.26-.62-5.63,3.56-.35,4-13.32,7.19-16.43,4.31-.19-.18-.63-.35-.6-.46,2.5-13.39-8-7-12.26-7.08-11.85-.11-23.07-1.63-34.3-5.68a975.71,975.71,0,0,0-123.59-35.51c-34.32-6.68-68.76-12.58-103.56-16.15q-31.36-3.21-62.86-4.38c-23.88-.84-61.08-.15-61.08-.15-42.7,1.24-85,6.64-127.14,13.23-40.29,7.31-80.25,16.06-119.28,28.73a26.2,26.2,0,0,1-4.27.67c-16.54,5.69-33,11.51-49.59,17-9,3-18.52,1.88-27.85,2-3.57.06-9.37-2-6.77,5.73.6,1.78-.46,2.66-2.27,2.66-4.67,0-9.34,0-14,0-1.21,0-2.49-.63-2.28-2,1.3-8.89-5.24-6.29-9.58-6.4-8.17-.17-16.36,0-24.55.06-2.49,0-6-.62-6.06,3.12,0,3.41,3.16,3.62,5.9,3.61,9.83,0,19.67,0,30.4.86-13.4,5.32-14,16.09-13.35,27.41.19,3.32-1.62,3.83-4.33,3.83-21.35-.07-42.7-.12-64,0-3.57,0-4.71-1.42-4.34-4.67.07-.58,0-1.18,0-1.76.19-8.15-2.64-18.64,1.39-23.79,4.3-5.47,15.3-1.16,23.35-1.85.86-.07,1.76.09,2.62,0,2.91-.42,7.48,1.12,7.45-3.6,0-5.05-4.76-2.6-7.52-3.24a8.61,8.61,0,0,0-.88,0c-8.63-.65-20.19,3.78-25.08-1.82-4.23-4.85-1.23-16.14-1.23-24.57,0-7,.34-14,.51-21-.38-7.85.2-15.92-1.33-23.56-4.66-23.32-19.09-38.22-41.79-45-10.63-3.15-21.49-5.52-32.14-8.63-17.56-5.12-31.33-15.25-40.33-31.42-7.94-10.18-10.39-22.18-10.44-34.55-.28-62.61-1.84-125.22.77-187.8.92-21.79,12.32-39.2,27.45-54.25,3.08-3,5.63-3.34,5.68,2.27,0,2.18-.48,5.31,3.06,5.11,2.83-.15,2.72-3,2.37-4.81-2.11-10.54,4.72-14,12.65-17.57A1579.29,1579.29,0,0,1,632.43,299.9c17.31-4.83,17.11-6.57,19.06-24.58.69-6.4,4.5-10-3.37-14.73-3.27-2-2.72-10.22-4-15.62-.73-3.21,1.72-3,3.62-3.42,20-4.15,40-8.21,60-12.5,3.82-.81,5.61-.77,6.42,3.92,1.77,10.33,4.3,20.54,6.73,30.75,2.33,9.83,7.26,14.13,17.59,13.13,22.07-2.18,44-5.33,66.09-7.86,15.38-1.77,30.66-4.72,46.22-4.49,20.75.31,35.53,10,43.79,29.1,4.27,9.91,8,20.06,15.27,28.34,4.25,4.89,8.8,9.89,15,11.83,34,14.35,62.61,3.49,62.61,3.49,18.64-7.62,29.26-22.4,36-40.68,6-16.11,16.87-27.16,33.9-31.21,8.05-1.91,16.4-1.35,24.48-.4q45.68,5.36,91.24,11.49c17.15,2.34,23.65-1.91,27-18.87,1.7-8.58,3.76-17.08,5.34-25.69.56-3,1.54-3.87,4.6-3.22,20.81,4.47,41.65,8.77,62.49,13.15.83.17,1.93.24,2.41.8,1.84,2.17-4.38,21.11-7.42,21.67-6.73,1.23-5.13,3.43-1.07,6.13,2.78,1.85,2.32,4.38,1.93,7-1.7,11.94,1.29,17.14,13.06,20.83,30,9.42,60.24,18.15,90.15,27.87,47.16,15.3,93,34.18,138.3,54.26,6.48,2.88,10.82,6.14,9.77,14.06-.3,2.25-.87,6.1,2.65,6.57,4.32.6,2.88-3.44,3.2-5.64.82-5.69,3.3-3.48,5.57-1.23,14.88,14.8,25.13,32.05,27.55,53.32,2.23,19.54,1.36,39.17,1.2,58.74-.39,45.34,1.38,90.7-1.13,136-.44,8.18-2.12,16.18-7,23.1-8.42,18.81-23.11,30.42-42.41,36.4-10,3.11-20.31,5.34-30.42,8.2-30.41,8.65-45.11,28.15-45.09,59.59,0,3.8-.19,7.59-.3,11.39C1433.62,794.38,1433.57,807.84,1433.87,821.29Zm288.52-108.06c0,3.55-.79,5.4-4.94,5.15-7.85-.46-15.74-.44-23.63-.61-11.67.12-23.39.8-35,.24-13.11-.63-21.64,4.54-28.82,15.62-17.14,26.5-35.94,51.9-58.89,73.83-17,16.23-36.78,28.75-56.72,41a20.12,20.12,0,0,1-10.83,2.93q-28.51,0-57,.23c-3.62,0-6-.12-5.89-4.94.37-27.76.42-55.53.58-83.29.32-19.23,13-37.52,31.84-44,13.76-4.71,28-8,42-12,4.69-1.34,4.66,1.47,4.66,4.69,0,7.31.07,14.62.17,21.93,0,2.11.41,4.37,3.09,4.43,3.19.07,2.55-2.8,2.62-4.55.27-8.18.67-16.37.25-24.52-.19-3.95.3-6.78,3.79-8.86,14.33-8.47,24.24-20.84,31.2-35.74,5-12.42,6.15-25.39,6.11-38.64-.14-53.21-.46-106.42,0-159.61.28-33.62-10.46-61.74-37.21-83a10.1,10.1,0,0,1-3.11-4.06c-.89-2.39-2.18-5.6.32-7.24,2.29-1.49,4.22,1.21,5.73,2.88,3.76,4.08,7.33,8.32,11,12.48,2.25,2.55,4.2,7,8,5.64,5.27-1.86.34-6.4.69-10.38a20.94,20.94,0,0,1,14,10.05c6.62,11,13.56,21.8,19.82,33a59,59,0,0,0,21,21.77c24.79,15.38,49.36,31.16,74.28,46.36,6.48,4,9.36,8.47,9.15,16.2-.38,15.18,0,30.4.37,45.6.41,15.87,9,23.94,25,23.67,3.83,0,6.85-.61,6.78,4.89-.37,26.89-.49,53.75-.7,80.64C1722.16,681.09,1722.2,697.15,1722.39,713.23Zm12.53-127.05q0,63.5-.14,127c0,2.32.69,5.12-2.85,5.14-3.74,0-2.74-3-2.74-5.17q-.07-32.43,0-64.83h-.09c0-20.73,0-41.47.07-62.2,0-2.27-1.63-6.08,2.37-6.37C1736.19,579.47,1734.92,583.51,1734.92,586.18Zm50.52,123.45c0,6-3.18,8.29-8.78,8.38-9.93.16-19.88.28-29.79.77-4.43.23-5.61-1.72-5.55-5.64.17-15.76.26-31.52.38-47.28-.1-26.57-.12-53.14-.4-79.71,0-4.84,1.32-6.89,6.4-6.7,9.63.33,19.27.35,28.9.3,6.28,0,9,2.92,9,9.08q-.21,38.1-.27,76.2C1786.57,679.9,1785.32,694.76,1785.44,709.63Z"/><path class="cls-1" d="M1559.83,506.24c.16-19.57,1-39.2-1.2-58.74-2.42-21.27-12.67-38.52-27.55-53.32-2.27-2.25-4.75-4.46-5.57,1.23-.32,2.2,1.12,6.24-3.2,5.64-3.52-.47-3-4.32-2.65-6.57,1-7.92-3.29-11.18-9.77-14.06-45.32-20.08-91.14-39-138.3-54.26-29.91-9.72-60.14-18.45-90.15-27.87-11.77-3.69-14.76-8.89-13.06-20.83.39-2.65.85-5.18-1.93-7-4.06-2.7-5.66-4.9,1.07-6.13,3-.56,9.26-19.5,7.42-21.67-.48-.56-1.58-.63-2.41-.8-20.84-4.38-41.68-8.68-62.49-13.15-3.06-.65-4,.21-4.6,3.22-1.58,8.61-3.64,17.11-5.34,25.69-3.36,17-9.86,21.21-27,18.87q-45.55-6.16-91.24-11.49c-8.08-1-16.43-1.51-24.48.4-17,4.05-27.94,15.1-33.9,31.21-6.76,18.28-17.38,33.06-36,40.68,0,0-28.57,10.86-62.61-3.49-6.19-1.94-10.74-6.94-15-11.83-7.22-8.28-11-18.43-15.27-28.34-8.26-19.12-23-28.79-43.79-29.1-15.56-.23-30.84,2.72-46.22,4.49-22,2.53-44,5.68-66.09,7.86-10.33,1-15.26-3.3-17.59-13.13-2.43-10.21-5-20.42-6.73-30.75-.81-4.69-2.6-4.73-6.42-3.92-20,4.29-40,8.35-60,12.5-1.9.38-4.35.21-3.62,3.42,1.23,5.4.68,13.66,4,15.62,7.87,4.75,4.06,8.33,3.37,14.73-2,18-1.75,19.75-19.06,24.58A1579.29,1579.29,0,0,0,412.1,379c-7.93,3.53-14.76,7-12.65,17.57.35,1.77.46,4.66-2.37,4.81-3.54.2-3-2.93-3.06-5.11,0-5.61-2.6-5.32-5.68-2.27-15.13,15.05-26.53,32.46-27.45,54.25-2.61,62.58-1.05,125.19-.77,187.8.05,12.37,2.5,24.37,10.44,34.55,9,16.17,22.77,26.3,40.33,31.42,10.65,3.11,21.51,5.48,32.14,8.63,22.7,6.73,37.13,21.63,41.79,45,1.53,7.64.95,15.71,1.33,23.56-.17,7-.49,14-.51,21,0,8.43-3,19.72,1.23,24.57,4.89,5.6,16.45,1.17,25.08,1.82a8.61,8.61,0,0,1,.88,0c2.76.64,7.48-1.81,7.52,3.24,0,4.72-4.54,3.18-7.45,3.6-.86.12-1.76,0-2.62,0-8,.69-19-3.62-23.35,1.85-4,5.15-1.2,15.64-1.39,23.79,0,.58,0,1.18,0,1.76-.37,3.25.77,4.69,4.34,4.67,21.33-.1,42.68,0,64,0,2.71,0,4.52-.51,4.33-3.83-.69-11.32-.05-22.09,13.35-27.41-10.73-.86-20.57-.86-30.4-.86-2.74,0-5.92-.2-5.9-3.61,0-3.74,3.57-3.09,6.06-3.12,8.19-.11,16.38-.23,24.55-.06,4.34.11,10.88-2.49,9.58,6.4-.21,1.41,1.07,2,2.28,2,4.68,0,9.35,0,14,0,1.81,0,2.87-.88,2.27-2.66-2.6-7.68,3.2-5.67,6.77-5.73,9.33-.12,18.8,1,27.85-2,16.59-5.48,33.05-11.3,49.59-17a26.2,26.2,0,0,0,4.27-.67c39-12.67,79-21.42,119.28-28.73,42.16-6.59,84.44-12,127.14-13.23,0,0,37.2-.69,61.08.15q31.53,1.14,62.86,4.38c34.8,3.57,69.24,9.47,103.56,16.15A975.71,975.71,0,0,1,1280,821.3c11.23,4.05,22.45,5.57,34.3,5.68,4.27,0,14.76-6.31,12.26,7.08,0,.11.41.28.6.46,3.11,2.88,16.08-.34,16.43-4.31.37-4.18,3.15-3.53,5.63-3.56,9.06-.09,18.15-.2,27.22,0,2.72.07,7.5-2,7.34,3.2-.14,4.52-4.55,3.51-7.63,3.55-8.87.05-17.74,0-26.62,0-.47.59-.93,1.19-1.39,1.79,12.67,4.66,14.13,14.37,12.85,25.13-.6,4.88,2,5.16,5.69,5.13,14-.12,28.08.1,42.14-.21,8.09-.18,18.93,3.81,23.51-1.27,4.91-5.41,1-16.16,1.46-24.58a8.49,8.49,0,0,1,0-.88c.76-4.52-1.53-5.27-5.5-5.15-8.19.28-16.39.11-24.58,0-2.32,0-5,0-5-3.41s2.73-3.32,5.06-3.34c8.21,0,16.4-.23,24.59.07,4.27.16,5.55-1.28,5.45-5.46-.3-13.45-.25-26.91-.36-40.35.11-3.8.3-7.59.3-11.39,0-31.44,14.68-50.94,45.09-59.59,10.11-2.86,20.39-5.09,30.42-8.2,19.3-6,34-17.59,42.41-36.4,4.85-6.92,6.53-14.92,7-23.1C1561.21,596.94,1559.44,551.58,1559.83,506.24ZM399.18,568.06c-.07.74-1.54,1.88-2.4,1.94-2.27.16-2.88-1.76-2.92-3.54-.11-5.83,0-11.66,0-17.52H394c0-5.83-.06-11.66,0-17.5,0-1.35.3-3.21,2.27-3a3.4,3.4,0,0,1,2.44,2.07C400.64,543,400.2,555.55,399.18,568.06Zm-5.27-91c0-1.81.42-3.83,2.53-4s3,1.74,3,3.48c.12,11.39.12,22.78.11,34.16,0,1.88-.67,3.4-3,3.31s-2.78-1.92-2.82-3.64c-.1-5.54,0-11.09,0-16.64h.25C393.9,488.13,393.86,482.57,393.91,477Zm-.3-40h.27c0-5.25-.07-10.51,0-15.76,0-1.69.09-3.82,2.41-3.94,2.07-.12,3.13,1.53,3.15,3.39q.15,17.08.08,34.15c0,1.93-.82,3.37-3.09,3.32s-2.76-1.94-2.79-3.64C393.54,448.75,393.61,442.89,393.61,437.06Zm0,168.84h.22c0-5.24-.06-10.48,0-15.73,0-1.67-.05-3.8,2.28-4,2.73-.26,3.41,1.81,3.43,4,.07,11.05.05,22.12,0,33.17,0,1.88-.7,3.43-2.95,3.48s-3-1.61-3-3.44C393.54,617.53,393.61,611.71,393.61,605.9ZM397,682.3c-5.57.06-3-6.62-4-10.36-.15-.57-.31-1.11-.47-1.66q.69-12.15,1.35-24.3c.13-2.09.42-4.69,2.9-4.57,2.18.11,2.81,2.57,2.87,4.71q.33,13.05.68,26.1C398.09,675.4,402.19,682.25,397,682.3ZM666.83,429.7c.3,26.29-12.72,42.5-35.4,44.42a36.81,36.81,0,0,1-38.93-29.28,74.35,74.35,0,0,1-.77-26.09c3.11-21.42,19.08-35.08,39.4-34.16,19.94.91,34.65,16.59,35.7,38.11C666.94,425,666.83,427.36,666.83,429.7ZM707,258.49c-10.44,2.4-20.91,4.58-30.47,6.64-2.87-.53-5.5.65-6.28-1.88-1-3.2,1.94-3.9,4-4.52a207.6,207.6,0,0,1,31.41-6.64c1.86-.23,4.36-1.21,5.13,1.62C711.66,256.75,709.2,258,707,258.49Zm537.35,6.34c-11-.65-21.51-4.11-32.24-6.31-2.37-.47-4.73-2.21-4.11-4.74.73-3.06,3.83-1.46,7.89-1.85,8.59,2,19,4.45,29.36,6.92,2,.48,4.24,1.38,4,3.84C1248.9,265.55,1246.15,264.93,1244.34,264.83Zm83.9,165.11c-.16,25.41-11.69,40.6-33.39,44.06-19.77,3.16-39.86-12-41.83-31.88a137.43,137.43,0,0,1-.33-20.09c1-21.54,16.1-37,36.18-37.37,21.44-.41,37.84,15.15,39.35,37.41C1328.39,424.69,1328.24,427.32,1328.24,429.94ZM1520,532.13c0-1.81,1-3.59,3-3.59,2.37,0,2.58,2.2,2.58,3.83.06,11.37,0,22.73-.15,34.09,0,1.74-.28,3.73-2.76,3.52-2.15-.18-2.83-1.92-2.85-3.76-.09-5.82,0-11.65,0-17.49h.15C1520,543.2,1519.87,537.66,1520,532.13Zm-.09,57.65c0-1.88.72-3.56,2.9-3.67,2.36-.1,2.79,1.78,2.83,3.57.09,5.53,0,11.09,0,16.62h.12c0,5.54,0,11.07,0,16.63,0,2.1-.3,4.16-3.39,3.79-2.34-.28-2.69-1.83-2.67-3.69Q1519.76,606.4,1519.9,589.78Zm5.78-95.33c0,5.22.06,10.46,0,15.69,0,1.6.3,3.66-2.32,3.84s-3.57-1.43-3.57-3.78q.08-17,.23-34c0-1.94,1-3.4,3.16-3.2,1.74.16,2.29,1.67,2.36,3.16.33,6.1.58,12.2.84,18.29C1526.12,494.43,1525.91,494.43,1525.68,494.45Zm-5.78-73.28c0-1.84.51-3.67,2.64-3.9,3.13-.35,3,2.23,3,4.15.13,5.52.06,11.05.06,16.57h.21c0,5.52,0,11,0,16.57,0,1.69-.14,3.57-2.67,3.62-2.76.07-3.42-1.53-3.41-3.86C1519.76,443.26,1519.81,432.21,1519.9,421.17Zm6.12,255c-.43,2.39,1,6.59-3.62,6.31-4.06-.25-2.32-3.89-2.59-6.1-.42-3.67-.44-7.4-.61-11.11q.35-9.57.67-19.13c.07-2.11.24-4.52,2.79-4.62s2.83,2.42,3,4.46c.4,6.38.77,12.74,1.16,19.1A107.36,107.36,0,0,1,1526,676.12Z"/><path class="cls-2" d="M1328.22,422.07c-1.51-22.26-17.91-37.82-39.35-37.41-20.08.37-35.18,15.83-36.18,37.37a137.43,137.43,0,0,0,.33,20.09c2,19.91,22.06,35,41.83,31.88,21.7-3.46,33.23-18.65,33.39-44.06C1328.24,427.32,1328.39,424.69,1328.22,422.07Zm-32.55-30.35c11.13,2.57,17.21,8,18.46,17.17-16.31-16.66-33.15-13.06-50.26-1.28C1271.58,394.85,1284.06,389.05,1295.67,391.72Zm-5,12.74A24.52,24.52,0,0,1,1315,430a24.89,24.89,0,1,1-49.76-1.14C1265.54,414.81,1276.57,404.29,1290.72,404.46Zm-25.1,49.33c19.42,11.46,37.1,11,52.46-6.93C1309.19,470.27,1281.16,474,1265.62,453.79Z"/><path class="cls-2" d="M666.83,422.7c-1.05-21.52-15.76-37.2-35.7-38.11-20.32-.92-36.29,12.74-39.4,34.16a74.35,74.35,0,0,0,.77,26.09,36.81,36.81,0,0,0,38.93,29.28c22.68-1.92,35.7-18.13,35.4-44.42C666.83,427.36,666.94,425,666.83,422.7Zm-42,44c-11.61-1.09-19-8.07-23.33-18.86,7.54,7.07,15.2,13.17,26.3,13.52,11.27.33,19.47-5.19,27.35-12.34C649.84,463.79,638.65,468,624.85,466.74Zm-20.79-37.47c-.1-13.19,11.29-24.86,24.31-24.91,14.57,0,25.72,10.87,25.74,25.16a24.66,24.66,0,0,1-24.2,24.83C615.45,454.54,604.19,443.6,604.06,429.27Zm-2.58-16.94c2.5-11.22,12.62-19.62,23.94-21.15,11.1-1.51,22.59,4.51,30.2,17.85C635.4,393.88,617.82,393.36,601.48,412.33Z"/><path class="cls-2" d="M1525.68,494.45c0,5.22.06,10.46,0,15.69,0,1.6.3,3.66-2.32,3.84s-3.57-1.43-3.57-3.78q.08-17,.23-34c0-1.94,1-3.4,3.16-3.2,1.74.16,2.29,1.67,2.36,3.16.33,6.1.58,12.2.84,18.29C1526.12,494.43,1525.91,494.43,1525.68,494.45Z"/><path class="cls-2" d="M1525.77,622.93c0,2.1-.3,4.16-3.39,3.79-2.34-.28-2.69-1.83-2.67-3.69q0-16.63.19-33.25c0-1.88.72-3.56,2.9-3.67,2.36-.1,2.79,1.78,2.83,3.57.09,5.53,0,11.09,0,16.62h.12C1525.79,611.84,1525.84,617.37,1525.77,622.93Z"/><path class="cls-2" d="M397,682.3c-5.57.06-3-6.62-4-10.36-.15-.57-.31-1.11-.47-1.66q.69-12.15,1.35-24.3c.13-2.09.42-4.69,2.9-4.57,2.18.11,2.81,2.57,2.87,4.71q.33,13.05.68,26.1C398.09,675.4,402.19,682.25,397,682.3Z"/><path class="cls-2" d="M1525.75,454.56c0,1.69-.14,3.57-2.67,3.62-2.76.07-3.42-1.53-3.41-3.86.09-11.06.14-22.11.23-33.15,0-1.84.51-3.67,2.64-3.9,3.13-.35,3,2.23,3,4.15.13,5.52.06,11.05.06,16.57h.21C1525.79,443.51,1525.84,449,1525.75,454.56Z"/><path class="cls-2" d="M1526,676.12c-.43,2.39,1,6.59-3.62,6.31-4.06-.25-2.32-3.89-2.59-6.1-.42-3.67-.44-7.4-.61-11.11q.35-9.57.67-19.13c.07-2.11.24-4.52,2.79-4.62s2.83,2.42,3,4.46c.4,6.38.77,12.74,1.16,19.1A107.36,107.36,0,0,1,1526,676.12Z"/><path class="cls-2" d="M1249.21,262.69c-.31,2.86-3.06,2.24-4.87,2.14-11-.65-21.51-4.11-32.24-6.31-2.37-.47-4.73-2.21-4.11-4.74.73-3.06,3.83-1.46,7.89-1.85,8.59,2,19,4.45,29.36,6.92C1247.28,259.33,1249.48,260.23,1249.21,262.69Z"/><path class="cls-2" d="M707,258.49c-10.44,2.4-20.91,4.58-30.47,6.64-2.87-.53-5.5.65-6.28-1.88-1-3.2,1.94-3.9,4-4.52a207.6,207.6,0,0,1,31.41-6.64c1.86-.23,4.36-1.21,5.13,1.62C711.66,256.75,709.2,258,707,258.49Z"/><path class="cls-2" d="M399.18,568.06c-.07.74-1.54,1.88-2.4,1.94-2.27.16-2.88-1.76-2.92-3.54-.11-5.83,0-11.66,0-17.52H394c0-5.83-.06-11.66,0-17.5,0-1.35.3-3.21,2.27-3a3.4,3.4,0,0,1,2.44,2.07C400.64,543,400.2,555.55,399.18,568.06Z"/><path class="cls-2" d="M1525.59,532.37c.06,11.37,0,22.73-.15,34.09,0,1.74-.28,3.73-2.76,3.52-2.15-.18-2.83-1.92-2.85-3.76-.09-5.82,0-11.65,0-17.49h.15c0-5.53-.08-11.07,0-16.6,0-1.81,1-3.59,3-3.59C1525.38,528.53,1525.59,530.74,1525.59,532.37Z"/><path class="cls-2" d="M399.54,510.65c0,1.88-.67,3.4-3,3.31s-2.78-1.92-2.82-3.64c-.1-5.54,0-11.09,0-16.64h.25c0-5.55,0-11.11,0-16.66,0-1.81.42-3.83,2.53-4s3,1.74,3,3.48C399.55,487.88,399.55,499.27,399.54,510.65Z"/><path class="cls-2" d="M399.59,623.31c0,1.88-.7,3.43-2.95,3.48s-3-1.61-3-3.44c-.11-5.82,0-11.64,0-17.45h.22c0-5.24-.06-10.48,0-15.73,0-1.67-.05-3.8,2.28-4,2.73-.26,3.41,1.81,3.43,4C399.64,601.19,399.62,612.26,399.59,623.31Z"/><path class="cls-2" d="M399.55,454.9c0,1.93-.82,3.37-3.09,3.32s-2.76-1.94-2.79-3.64c-.13-5.83-.06-11.69-.06-17.52h.27c0-5.25-.07-10.51,0-15.76,0-1.69.09-3.82,2.41-3.94,2.07-.12,3.13,1.53,3.15,3.39Q399.62,437.84,399.55,454.9Z"/><path class="cls-2" d="M1464.48,775.5c-.39-25.33,15.38-40.55,38.06-36.93,14.63,2.34,29.17,16.74,25.47,38.5-.32,10.49-3.7,16.66-15.17,21.28C1493.59,806.13,1470,800,1464.48,775.5Zm55.1-5.19c-.2-16.51-8.66-25.22-24.28-25-12.69.19-23.65,11.38-23.78,24.27a25.05,25.05,0,0,0,25.45,25.5C1511.57,795,1519.77,786,1519.58,770.31Z"/><path class="cls-2" d="M1675.52,658.43c-4.55,1.81-5.27,11.2-13.06,6.6q8.63-15.49,17.27-31c1-1.83,2.33-3.61,4.76-2.64s1.83,3.19,1.37,5.19C1684,644.62,1679.8,651.54,1675.52,658.43Z"/><path class="cls-2" d="M1562.87,405.21c2.44.07,3.85,1.58,4.87,3.35,4.94,8.53,9.87,17.06,14.63,25.69,1.3,2.35,1.84,5.41-.69,7.14-3.18,2.16-4.47-1.05-6-3.07-6.21-8.48-9.94-18.29-14.71-27.54C1559.94,408.68,1559.86,406.2,1562.87,405.21Z"/><path class="cls-2" d="M1674.33,503.32c-.74,3.3-2.71,4.92-5.4,2.22-7.31-7.34-16.75-11.49-25-17.36-2.79-2-4.1-4.72-2.43-7.47,2-3.34,4.91-.4,6.7.68,8,4.77,16.33,9.05,22.67,16.1C1672.34,499.16,1674.46,500.56,1674.33,503.32Z"/><path class="cls-2" d="M1623.68,727.76a21,21,0,0,1-1.54,3.47c-5.81,8.34-11.62,16.68-17.6,24.9-1.33,1.84-3.48,4-5.84,2.48-3-1.88-1.44-4.59.1-6.81q8.43-12.18,17-24.28c1.4-2,3.32-3.51,5.93-2.28C1622.57,725.65,1623,726.89,1623.68,727.76Z"/><path class="cls-2" d="M1574.64,781.44l10.52-10.28c7-1.77,6.47,2.5,3.92,6a117.9,117.9,0,0,1-22.4,22.84c-1.4,1.11-3.58,2.66-5.42.6s-1-4.3.73-6.14C1566.18,790.08,1570.42,785.77,1574.64,781.44Z"/><path class="cls-2" d="M1514.06,826.76c-.85-.44-2.31-.71-2.64-1.46a3.36,3.36,0,0,1,1.57-4.48,15.74,15.74,0,0,0,7.51-8,6.84,6.84,0,0,1,2.38-2c7.06,8.13,12.1-.69,17.91-2.2,2.41-.63,5-3.23,6.88-.17,2.06,3.37-.67,5.23-3.52,6.52C1534.44,819.36,1524.75,823.86,1514.06,826.76Z"/><path class="cls-2" d="M1475.66,826.4c5.2-.35,10.4-.8,15.61-1,2-.08,4.2.41,4.17,3.23a3.48,3.48,0,0,1-3.18,3.53c-11.49,2.25-23.12,1-34.69,1.22-2.27.05-2.82-1.56-2.67-3.52.2-2.68,2-3.2,4.23-3.2h16.52C1475.65,826.58,1475.66,826.49,1475.66,826.4Z"/><path class="cls-2" d="M1626.5,476.09c-10.89-6.65-21.2-12.88-31.41-19.26-1.66-1-3.57-2.78-2.23-5,1-1.65,3.29-1.34,4.78-.46,9.24,5.43,18.41,11,27.57,16.56C1628.08,469.7,1627.33,472.27,1626.5,476.09Z"/><path class="cls-2" d="M1655,677.73c.27,1,.53,2.08.8,3.12-5,13.17-13.68,23.64-24.55,32.6C1636,699.45,1643.23,687.11,1655,677.73Z"/><path class="cls-2" d="M1686.3,595.29c0,5.53.15,11.08-.1,16.6-.07,1.52-.73,3.71-3,3.54a3.5,3.5,0,0,1-3.2-3.57c-.08-11.65,0-23.3.14-35,0-1.45.74-3,2.63-2.69a3.76,3.76,0,0,1,3.28,3.61c.2,5.81.08,11.64.08,17.46Z"/><path class="cls-2" d="M1686.34,542.13c0,4.66.12,9.32,0,14-.07,1.74-.83,3.47-3,3.6s-3.16-1.37-3.3-3.24c-.88-11.57.81-23.27-1.68-34.78a2.14,2.14,0,0,1,1.77-2.59c2.58-.56,3.79,1.3,4.54,3.16C1687.19,528.66,1686.34,535.46,1686.34,542.13Z"/><path class="cls-2" d="M257.05,665c-5.87,5-7.61-2.26-11.28-3.78-5-7.54-9.75-15.16-12-24.09-.58-2.39-1.37-4.95,1.6-5.86,2.23-.69,3.46,1.37,4.52,3.27C245.59,644.75,251.33,654.87,257.05,665Z"/><path class="cls-2" d="M359.06,410c-6.07,9.5-9.51,21.47-17.52,30.93a2.91,2.91,0,0,1-3.93.64,3.52,3.52,0,0,1-1.3-4.64c4.88-10.52,9.48-21.23,17.09-30.21a3.49,3.49,0,0,1,3.87-1.35C359,406,359,407.5,359.06,410Z"/><path class="cls-2" d="M278.53,482.79c.22,2.72-1.37,4.18-3.47,5.58-8.23,5.5-17.38,9.65-24.51,16.77-1.19,1.18-2.79,2.2-4.51.31s-1.44-3.66.11-5.41c7.92-8.89,17.74-15.06,28.52-19.84C277.28,479.05,278.52,480,278.53,482.79Z"/><path class="cls-2" d="M233.56,541.22c-.55-6.12-1-12.3,1-18.2.71-2.06,1.68-5,4.52-4.34,2.17.53,2.26,3.15,1.89,5.27-1.75,9.83-1.08,19.77-1.44,29.66-.08,2.33,1.13,6-3,5.94s-2.63-3.95-2.88-6.11C233.23,549.42,233.56,545.3,233.56,541.22Z"/><path class="cls-2" d="M239.55,595c0,5.52,0,11,0,16.56,0,1.83-.62,3.67-2.71,3.8a3.51,3.51,0,0,1-3.51-3.3,216,216,0,0,1,.25-34.78c.14-1.77,1.43-3.5,3.51-3,1.8.45,2.54,2.21,2.53,4.13,0,5.52,0,11,0,16.57Z"/><path class="cls-2" d="M294.9,475c-3.75-.55-3.14-2.74-2.48-4.57,1.08-3,28-19.56,31.49-19.57,2.57,0,4.77,2,2.67,3.5C316.16,461.69,305.28,468.35,294.9,475Z"/><path class="cls-2" d="M455,773.58c-6.38,26.13-26.48,34.95-51.19,22.54-1.5-.76-3.51-1.88-4.81-1.44-4.88,1.64-5.32-1.45-5.88-4.77-.71-4.19-1.48-8.37-2.23-12.55-1.57-15.94,3.05-29,18.18-36.38C431.48,730,455,746.83,455,773.58Zm-55.38-3.73c-.07,16.41,8.05,25.24,23.17,25.19,14.36,0,24.82-10.58,24.74-24.94a24.69,24.69,0,0,0-25-24.81C407.9,745.26,399.69,754.08,399.62,769.85Z"/><path class="cls-2" d="M320.5,759.22c-4.56-.46-7.06-3.59-9.45-7-4.8-7-9.72-13.82-14.59-20.73-.1-2.17-1.8-4.77.9-6.28a4.22,4.22,0,0,1,5.46,1.4c6.69,8.73,13.57,17.34,18.75,27.1A4.4,4.4,0,0,1,320.5,759.22Z"/><path class="cls-2" d="M348.21,785.06c3.23,3.27,6.5,6.51,9.65,9.85a4.42,4.42,0,0,1,.87,4.87c-.66,1.59-2,1.65-3.57,1.32-4.19-.84-25-20.4-25.79-24.68-.34-1.92.05-4,.12-6,6.06-.79,7.78,4.83,11.32,7.73C343.4,780.33,345.75,782.76,348.21,785.06Z"/><path class="cls-2" d="M287.21,715.31A132.33,132.33,0,0,1,263.88,683a3.46,3.46,0,0,1,.24-4.08A1.75,1.75,0,0,1,267,679c8.08,10.46,17.95,19.76,21.61,33.08C288.77,712.52,288.22,713.13,287.21,715.31Z"/><path class="cls-2" d="M790.74,791.38c2.84.4,6-.81,6.16,2.66.09,2.61-2.41,3.79-4.85,4.26q-15.45,3-30.9,5.91c-2,.39-4.48.78-5.17-1.71-.89-3.19,1.91-3.32,4.09-4.26C770.11,793.88,781.08,794.15,790.74,791.38Z"/><path class="cls-2" d="M1074.05,783c9.63,1.35,19.3,1.57,28.52,4.52,2,.65,5.48.72,4.72,3.66s-4,1.47-6.12,1.25c-9-.9-17.88-2-26.83-2.85-3.2-.32-7.64-.12-7.46-4C1067.05,781.91,1071.52,783.42,1074.05,783Z"/><path class="cls-2" d="M846.91,783.36c1,.12,5.54-1.24,5.71,2.18.19,3.69-4.33,3.77-7.53,4.11-9.55,1-19.1,2.13-28.65,3.17-1.93.21-4.51,1.26-5.23-1.4s1.84-3,3.81-3.56A126.73,126.73,0,0,1,846.91,783.36Z"/><path class="cls-2" d="M872.6,785.52c-2.18.5-4.42.32-4.8-2.21-.32-2.11,1.9-2.75,3.54-3.15,11.11-2.65,22.43-3,33.79-2.88,1.38,0,3.29.27,3.11,2.15-.22,2.38-2.24,2.79-4.39,3.31C893.56,785.22,882.91,783.5,872.6,785.52Z"/><path class="cls-2" d="M1211.16,816.86c-10.59-3.28-22-5-32.66-9.34-1.85-.74-3.3-1.31-2.44-3.53.75-2,2.08-.78,3.49-.64,11.4,1.14,22.26,4.56,33.16,7.75,1.75.51,4.43,1.23,3.92,3.88C1216.05,818,1213.43,816.42,1211.16,816.86Z"/><path class="cls-2" d="M1021.6,777.06c8.29.68,16.13,1.19,23.92,2.06,2.5.28,6,1.32,5.61,4.28-.51,3.38-4.07,2.24-6.59,2-9-.77-17.92-1.45-26.85-2.42-2.59-.29-7.08.39-6.51-3.71.52-3.77,4.78-1.77,7.41-2.2A17,17,0,0,1,1021.6,777.06Z"/><path class="cls-2" d="M690.61,819.68c-13.63,6.94-24.86,12.94-38.12,13.74-1.88.11-3.44-.65-3.51-2.93a2.78,2.78,0,0,1,2.48-3.08C663.8,825.84,674.82,818.2,690.61,819.68Z"/><path class="cls-2" d="M1231.48,820.42c13.11-2.17,24.08,5.63,36.41,7.05a2.82,2.82,0,0,1,2.16,4c-1,2.5-3.42,2.25-5.25,1.86C1253,830.89,1241.71,827.21,1231.48,820.42Z"/><path class="cls-2" d="M1164.2,803.63c-14-.12-26.11-4.47-38.56-6.31a3.3,3.3,0,0,1-3-3.67c.19-2,1.85-2,3.28-1.83,12.28,1.59,24.67,2.72,36.09,8.1C1162.64,800.2,1162.86,801.28,1164.2,803.63Z"/><path class="cls-2" d="M706.29,817.57c-2.31.1-4.15-.45-4.4-2.46s1.53-3.16,3.14-3.73c10.93-3.92,22.25-6.42,33.6-8.77,1.55-.31,2.86,0,3.24,1.83s-.88,2.35-2.27,3C728.84,812.43,717.13,814.2,706.29,817.57Z"/><path class="cls-2" d="M375.45,806.86c1.83,1,4,2.86,6.38,3.4,4.45,1,8.88,8.77,13.72.4.72-1.24,2.24-.2,2.66.84a19.73,19.73,0,0,0,9.06,10.06c.66.38.9,2.1.78,3.13-.24,2-2.08,2-3.38,1.68a126.78,126.78,0,0,1-32-13c-1.64-.91-1.79-2.92-1.23-4.7S373.33,806.71,375.45,806.86Z"/><path class="cls-2" d="M446.77,833.82c-5.77-.4-11.56-.63-17.3-1.29-2.43-.27-5.89-.56-5.65-4.07s3.53-3.11,6.07-3q14.33.51,28.65,1.18c2.4.11,5.75-.83,5.87,3.19.14,4.8-3.73,3.42-6.32,3.55-3.75.21-7.53.06-11.3.06C446.78,833.55,446.78,833.69,446.77,833.82Z"/><path class="cls-2" d="M1352.28,293.22a199.68,199.68,0,0,1-31.67-9.9c-1.89-.75-3.69-2.25-2.64-4.7.91-2.12,3-1.47,4.55-1,10.29,2.95,20.58,5.89,30.79,9.08,2.06.65,4.85,1.95,4.07,4.79C1356.66,294.05,1353.75,292,1352.28,293.22Z"/><path class="cls-2" d="M1411,308.14c-10.62,2.75-36.14-6.43-39.92-14.35C1385.91,296.35,1399.16,300.23,1411,308.14Z"/><path class="cls-2" d="M1428.24,312.67c11.66,3.55,23,7.06,33.54,12.5a3,3,0,0,1,1.74,3.61,3,3,0,0,1-4.25,1.84c-10.64-4-21.29-8-31.82-12.23-1.16-.47-2.78-2.4-1.88-4.28C1425.93,313.35,1427.39,313.1,1428.24,312.67Z"/><path class="cls-2" d="M567.52,293.22c-2.49-.56-5.19.76-5.75-2.05-.48-2.42,1.68-3.59,3.63-4.21,10.48-3.31,21-6.56,31.53-9.68,1.58-.47,3.6-.57,4.36,1.63s-.63,3.46-2.23,4.15A166.91,166.91,0,0,1,567.52,293.22Z"/><path class="cls-2" d="M513.35,310.46c-2.44-.45-4.26.3-4.81-1.52-.61-2.05.8-3.43,2.48-4.05,10.62-3.93,21.14-8.23,32.32-10.4,1.5-.3,3.71-.81,4.51,1.25.61,1.55-.66,2.84-2,3.51C535.29,304.78,523.48,306.63,513.35,310.46Z"/><path class="cls-2" d="M459.4,331.36c-1.32-.92-2.86-1.48-3.48-2.56-1.16-2,.58-3.24,2.11-4,10.41-5.3,21.58-8.57,32.62-12.21a3.67,3.67,0,0,1,3.08.92c.9.95.27,2.29-.76,2.95C482.6,323.05,470.58,325.87,459.4,331.36Z"/><path class="cls-2" d="M1126.34,244c-8.15-.11-16.11-2.62-24.35-1.92a4.5,4.5,0,0,1-5.1-4.8c.2-3.44,3.5-2.42,5.56-2.24,9.85.88,19.69,2,29.53,3,2.34.23,5.54,0,5.57,2.85,0,3.59-3.49,2.95-6,3.09C1129.84,244.11,1128.09,244,1126.34,244Z"/><path class="cls-2" d="M790.31,243.6c-1.55-.41-8.42,3.09-8.88-2.08-.53-5.93,6.79-3.24,10.45-3.94,8-1.54,16.14-1.83,24.23-2.56,2.65-.25,5.89-.23,5.8,3.23-.07,3.06-1.93,5-5.95,4.14C808.13,240.76,800.56,244.91,790.31,243.6Z"/><path d="M834.86,540V651H815V580.29L795.53,595.2l-16.18,12.53L763.17,595.2l-19.51-14.91V651H723.83V540l19.83,15.23,35.69,27.44L815,555.23Z"/><path d="M888.79,577v75.5H869V574.89a15.81,15.81,0,0,0-13.48-13.48H851V541.74h4.28v.16a35.55,35.55,0,0,1,13.48,3.65,35.17,35.17,0,0,1,16,16.18,42.55,42.55,0,0,1,2.7,7.45,33.53,33.53,0,0,1,1,8.09Z"/><path d="M1015.2,573.63a32.67,32.67,0,0,1-9.2,22.84A32.75,32.75,0,0,1,982.53,652h-78.2V632.16h78.2a13.07,13.07,0,0,0,13-13,12.92,12.92,0,0,0-12.21-13h-59V586.32h59a13,13,0,0,0-.63-26h-78.2V540.48h78.2a32.62,32.62,0,0,1,32.67,32.67Z"/><path d="M1139.39,606a31.7,31.7,0,0,1,2.7,12.85,32.64,32.64,0,0,1-32.68,32.68h-78.2V631.68h78.2a12.93,12.93,0,0,0,12.85-13,12.77,12.77,0,0,0-11.42-12.84h-79.63V540.48h101.68V560.3H1051V586h59.64a32.16,32.16,0,0,1,28.87,19.83Z"/><path d="M1196.17,577v75.5h-19.83V574.89a15.81,15.81,0,0,0-13.48-13.48h-4.44V541.74h4.28v.16a35.55,35.55,0,0,1,13.48,3.65,35.17,35.17,0,0,1,16,16.18,42.55,42.55,0,0,1,2.7,7.45,33.53,33.53,0,0,1,.95,8.09Z"/></g></g></svg>