<svg xmlns="http://www.w3.org/2000/svg" viewBox="0 0 1920 1080"><defs><style>.cls-1{fill:#f2f2f2;}.cls-2{fill:#010101;}</style></defs><g id="Capa_2" data-name="Capa 2"><g id="Capa_1-2" data-name="Capa 1"><rect class="cls-1" width="1" height="1"/><rect class="cls-1" x="1919" y="1079" width="1" height="1"/><rect class="cls-1" y="1079" width="1" height="1"/><rect class="cls-1" x="1919" width="1" height="1"/></g><g id="Capa_3" data-name="Capa 3"><path class="cls-2" d="M1441.85,125.78c-10.33-9.52-20.4-19.35-31.06-28.47a82.35,82.35,0,0,0-41.25-18.76L1207.38,56c-9.65-1.39-18,.92-25.43,7.38-12,10.49-24.29,20.71-36.45,31.05-.65.55-1.25,1.15-1.89,1.72-2.23,2-4.07,4-.62,6.6,1.61,1.24,1.16,3-.65,3.31-4,.7-4.29,3.29-4.27,6.53,0,6.73.53,7.25,7.17,6.92,2.33-.11,4.78-.77,7.31.8-12.27,6.66-15.69,12.09-16.19,25.57-.26,7-.5,14-.5,21.07q-.09,71.51-.06,143c0,2.13-.1,4.26,0,6.39.08,2-.91,2.3-2.67,2.55-8.58,1.2-16.77,10.74-16.83,19.39,0,4.47.07,8.94,0,13.41-.08,3.32.11,6.33,3.6,8.14a5.07,5.07,0,0,1,2.52,4.86c-.11,8.71.62,17.47-1.21,26.09-3.09,14.56-16.47,27.49-31.75,28l-6.74.42a35.84,35.84,0,0,1-31.89-28.57c-1.93-9.06-.88-18.23-1-27.35a3.43,3.43,0,0,1,2.15-3.58c3.72-1.43,4.06-4.46,4-7.82a72.73,72.73,0,0,1,.09-9.57c.8-7.43-1.68-13.31-7.56-17.86-1.34-1-2.46-2.36-3.79-3.42a9.71,9.71,0,0,0-4.5-2.2c-4.84-.78-4.89-.86-4.89-5.55,0-16.18,0-32.35.11-48.53,0-2.62-.08-5.21-1.59-7.34-5.09-7.12-10.75-12.71-20.78-12.31l-110.51.22a17.53,17.53,0,0,0-13.05,5.4c-5.09,4.88-8.19,10.22-7.11,17.48a36.79,36.79,0,0,1,.16,4.46,12.34,12.34,0,0,1-12.57,12.83c-1.43,0-2.49-.3-2.56-2a24.32,24.32,0,0,1-.18-3.18c.25-2.77-.95-3.63-3.67-3.61q-29.38.11-58.76-.07c-3.13,0-3.94,1-4,4,0,5.25-.67,5.53-5.87,5.05a7.61,7.61,0,0,1-4.47-2.11A17,17,0,0,1,784,269.38c.35-37.67.2-75.35.19-113,0-4.47,0-9-.26-13.41-.56-9.43-4.94-16.5-13.46-20.89-.94-.49-2.67-.38-2.48-2.46,2.93,0,5.87.07,8.81,0,4.14-.12,4.61-.6,5-4.82.11-1.27,0-2.56.07-3.83.09-2.36-.36-4.06-3.26-4.44-3.43-.45-3.11-2.57-1-4.25,2.92-2.37,1.34-4-.54-5.59-2.73-2.37-5.55-4.64-8.3-7Q753.13,76.45,737.58,63.2c-7.81-6.66-16.69-8.86-26.78-6.83L555.68,77.52a89.27,89.27,0,0,0-51.67,24l-28.25,26.79c-5.59,8.07-4,17.8,3.93,23.67,1.36,1,2.82,1.89,4.25,2.81,33.81,21.71,67.57,43.49,101.47,65,4.12,2.62,5.61,5.59,5.46,10.39-.41,13.4-.47,26.81-.47,40.22q-.07,168.24-.07,336.49,0,147.81-.09,295.63c0,8.74.36,17.45,2.3,26,9.06,39.91,32.21,68.12,70,84.22,23.5,9.63,38.69,8.08,38.69,8.08h84.62a389.91,389.91,0,0,0,42.64-3c5.56-.64,11.12-2.23,16.9-1.53.07,1.27.11,2.11.17,2.94.36,5.29.36,5.31,5.44,4.84,5.3-.49,10.59-1,15.88-1.53,13.56-1.25,27.11-2.55,40.68-3.69,2.52-.21,4.19-.91,4.06-3.65-.15-3.08,1.17-3.88,4.19-3.84l87.67,0c3.11,0,5.59.29,5.28,4.34-.17,2.14,1.07,2.85,3.12,3q29.23,2.56,58.46,5.31c2.62.25,4.16-.13,4.11-3.09,0-.85.2-1.7.25-2.55.13-2.07.92-3.13,3.23-2.52,1.22.32,2.55.25,3.81.45A344.66,344.66,0,0,0,1137,1021c27,.08,54.09.47,81.11-.14,37.33-.86,67.07-17.37,89.36-46.83,14.91-19.69,22.18-42.33,22.18-67.24,0-61.3.19-122.6.18-183.9q0-118.14-.21-236.27-.08-126.1,0-252.23c0-2.77.1-5.54,0-8.3-.09-2.17.84-3.25,2.72-4.45,23.64-15.11,47.18-30.39,70.75-45.61q18-11.58,35.93-23.1c4.36-2.78,7.24-6.45,8.21-11.59C1448.39,135.07,1446.41,130,1441.85,125.78ZM1036.75,331c0-.59,0-1.26,1.23-1.81,3.93,2.75,8,5.56,7.73,11.55-.08,2.33,0,4.68.17,7s-.06,4.1-2.32,5.43c-2.62,1.53-3.51,4.4-3.63,7.12-.44,10.19-1.18,20.45.53,30.57,3.53,20.77,18.43,35,39.26,37.9a69.69,69.69,0,0,0,11.74.07,46.07,46.07,0,0,0,8.71-1.77c17.74-6.38,28.47-18.88,31.33-37.54a118,118,0,0,0,.3-29.27c-.23-2.39-.53-4.62-2.81-6.09s-2.85-4-2.68-6.67a31.34,31.34,0,0,0-.11-5.73c-.82-6.62,3.3-9.82,9.08-13.37,0,19.55.37,37.84-.09,56.11-.61,24.12-18,43.74-41.71,47.91a46.27,46.27,0,0,1-8.77.4,31.63,31.63,0,0,1-4.46-.18c-23.74-2.49-42.9-22.89-43.36-46.75C1036.52,367.58,1036.76,349.28,1036.75,331ZM498.88,158.49c-4.58-3.42-9.74-6.05-14.46-9.29-8.58-5.91-9.08-12.41-2.46-20.26l10.35-8.42c16.07-17.71,33.12-31.94,56.35-36.48L711.17,61.48c10-1.76,18.15.68,25.67,7.53,10.38,9.43,21.26,18.32,32,27.31,2.26,1.87,4.12,3.3,2.42,6.67s-.65,6.16,3.05,7.68a3.82,3.82,0,0,1,1.54,1.08c.94,1.17,1.12,2.37-.73,2.71a22,22,0,0,1-3.81,0H720.92v0c-16.16,0-32.33.11-48.49-.06-5.73-.06-11,1.08-15.72,4.21L652.05,122a15.46,15.46,0,0,0-4.63,5.46c-3,5.88-8.21,8.37-15.56,9.23L508.47,160.37C505,161,502,160.81,498.88,158.49Zm90.92,54.33c-5,.4-9-2.11-12.86-4.55-13.31-8.35-26.52-16.85-39.75-25.32q-12.08-7.72-24.09-15.52c-.83-.53-2-.85-1.77-2.4l129.48-24.78c.35-.07.77.19,1.62.44,0,5.79,0,11.72,0,17.65-.06,10.21,0,20.43-.29,30.64-.29,9.39-4.51,16.64-12.91,21.26a19,19,0,0,1-9.12,2.51Zm4.57,6.39c.11-2,1.79-2,3.33-2,5.49.16,11,.37,16.47.42,6.3.05,12.64.22,18.46-2.94-4.49,4.32-10,5.54-15.72,5.88-6.32.37-12.66.5-19,.76C596.21,221.44,594.22,221.82,594.37,219.21ZM839.8,1006.15c-46.14,7.09-92.6,5.41-138.94,4.42-50.16-1.07-91-39.24-99.1-87.8a139.92,139.92,0,0,1-1.43-22.9q.15-187.11.17-374.19,0-142.39-.07-284.79c0-10,0-10.13,10.13-10.21,11.31-.08,21.94-1.93,31.1-9.28,10.07-8.08,15.62-18.42,15.89-31.3.28-13.2.14-26.4.19-39.59,0-1.92,0-3.84.13-5.75.72-9.9,5.53-14.81,15.41-14.85q42.78-.19,85.57,0c9.66.05,14.35,4.79,15,14.47.25,3.61.24,7.24.24,10.85q0,58.75,0,117.49c0,12.74,9.72,22.69,22.57,23.18,4,.15,4.16.53,4,4.44-.06,2.37-1.19,2.85-3.19,2.74-5-.28-9.75.63-13.85,3.76-6.11,4.65-8.26,11.1-8.29,18.47q-.06,18.21,0,36.4,0,19.8,0,39.59c0,7.09-2.08,13.4-7,18.6a24,24,0,0,1-15.57,7.86c-6.17.59-12.34.51-18.51.52l-88.92.39c-20,1.07-37.95,18.2-40.09,38.18a131.23,131.23,0,0,0-.7,14q0,149.1,0,298.19c0,38.1-.28,76.21-.25,114.3a118.09,118.09,0,0,0,5.84,38.27c14.06,41.4,51.38,70,94.92,71.2,36.17,1,72.38,1.38,108.52-1,10.38-.69,20.71-2,31-3C845.94,1005.41,845.91,1005.21,839.8,1006.15Zm169-9.49c-.16,4.74-.08,5-5,5-14.65.06-29.3,0-44,0a.17.17,0,0,1,0-.07q-21.33,0-42.67,0c-5.78,0-6.44-.87-5.75-6.69.21-1.78.86-2.72,2.71-2.72,2.33,0,4.67-.14,7-.11,13.12.2,26.25.27,39.35.32,12.91.06,25.86.06,38.79-.29,1.69,0,3.41.16,5.09,0C1007.74,992,1008.94,993.3,1008.83,996.66Zm61.27-2.87c-1.14,8.15-.63,16.44-1,24.29a3,3,0,0,1-2.77.72c-16.1-1.55-32.17-3.25-48.29-4.6-3.68-.31-4.5-1.77-4.36-5.09.23-5.31.08-10.64,0-16s-.07-5.48-5.72-5.52l-96.61-.1c-4.8,0-4.83.11-4.86,4.89,0,5.11,0,10.22,0,15.33,0,7.38-.25,6-5.63,6.58-11.2,1.25-22.44,2.17-33.67,3.18-5.29.48-10.59.86-15.75,1.27-1.53-1.61-.91-3.38-.94-5-.08-5.32,0-10.64-.1-16-.07-4.61-.14-4.75-4.62-4.37-8.69.74-17.39,1.43-26,2.56a245.83,245.83,0,0,1-28.67,1.67q-40.54.52-81.1.38c-20-.09-38.82-5.36-55.34-16.75-28.23-19.51-44.24-46.37-44.35-81.08-.32-101.52-.11-203-.1-304.56q0-61.62,0-123.23a39,39,0,0,1,35.25-38.6,163.67,163.67,0,0,1,16.58-.68c25.75-.06,51.51,0,77.27,0,4.25,0,8.51-.11,12.76-.39a29.56,29.56,0,0,0,28-27.17c.39-4,.38-8.09.39-12.13q0-32.56,0-65.13c0-1.7-.09-3.41.07-5.1,1-10.43,7.86-14.91,15-15.25,3.13-.14,7.19,1.11,9.23-1.06,2.24-2.38.72-6.5.86-9.84.16-3.61,0-7.24.05-10.86,0-4.57.06-4.68,4.3-4.7q24-.08,47.9,0c4.22,0,4.27.12,4.3,4.71,0,7,0,14,0,20.75,2.83,1,5.19.68,7.51.69l119.12.48c17.23,1.9,28.11,13.41,28.79,30.81.27,6.59.11,13.19.11,19.79,0,18.73.47,37.47-.13,56.18-.56,17.77,11.47,38.63,38.26,38.86,11.49.1,23,.11,34.48.1q85.59,0,171.16-.07c3.61,0,7.23.12,10.85.19,19.42.39,37.37,16.65,37.82,39.7.09,5.1-.09,10.22-.09,15.32q0,149.1.09,298.18c0,30.44-.1,60.88-.06,91.31.06,46.93-33.9,88.29-80,97.37a125,125,0,0,1-24.1,2.2q-32.58,0-65.14,0c-21.11,0-42.08-1.9-63-4.26C1075.38,993.56,1072.87,992.86,1070.1,993.79ZM1314.54,938c-13.84,39.59-41.61,63.1-82.35,71.6-6.64,1.38-13.52,1.51-20.35,1.5-24.91,0-49.81,0-74.71-.1-19.82-.1-39.48-2.44-59.11-5-3.12-.4-4.47-2.87-3.43-5.9.59-1.72,1.85-1.28,3.11-1.16,7.61.73,15.24,1.42,22.86,2.14,38,3.56,76.15,2.76,114.21,1.83,46.59-1.14,87.17-35,97.68-80.25a136,136,0,0,0,3.11-31q-.15-96.72,0-193.45h.06q0-94.17,0-188.34c0-7.86-.15-15.7-.9-23.56-1.52-16.14-18.13-36.25-41.12-37.1l-190-.25c-11.26-.33-22.58.95-33.79-.74-15.81-2.39-26.67-14.7-26.87-30.74-.22-18.3,0-36.6,0-54.9,0-8.3.07-16.6-.13-24.9a35.24,35.24,0,0,0-32.35-34.26L871.34,303c-1.4,0-3.33.53-3.82-1.3a8.42,8.42,0,0,1,.4-6.2c.71-1.29,2.3-.65,3.52-.62A20.29,20.29,0,0,0,892.64,274c0-2.33-.13-4.67-.1-7,.08-7,4.46-11.68,11.4-11.72h109c7.39,0,12.19,4.76,12.23,12.35.06,12.13-.08,24.27-.12,36.39q0,9.58,0,19.15c0,2.2.12,4.33,2.92,4.92,3.57.74,3.69,3.42,3.64,6.37-.17,12.76-.23,25.53-.35,38.3-.07,7.45-.29,15,1.25,22.26,5,23.83,24.71,40.8,49.31,42.92a68.94,68.94,0,0,0,11-.24,52.85,52.85,0,0,0,20.38-6.86c17.41-10.49,26.6-26,27-46.24.35-16.81.11-33.63.07-50.44,0-2.81-.43-5.68,3.58-6.1,1.6-.17,2-1.4,2-2.76s0-3,0-4.47V152.87a63.16,63.16,0,0,1,.65-10.81c1.35-7.7,5.36-11.53,13.21-12.1,3.39-.24,6.81-.25,10.21-.25q36.72,0,73.44.09c1.7,0,3.4,0,5.1.13,7.62.45,12.74,5.09,13.36,12.74.48,5.71.33,11.48.4,17.22.14,11.06-.31,22.12.38,33.19,1,15.74,15.11,33.55,34,36.56a114.14,114.14,0,0,0,19.08,1.13c2.68,0,4,.75,3.77,3.59-.11,1.27,0,2.55,0,3.83q0,327.86.06,655.68C1319.58,908.77,1319.57,923.6,1314.54,938Zm9.94-717.05a2.44,2.44,0,0,1-1.22.29c-9.06-1.22-18.28.56-27.29-1.73a20.76,20.76,0,0,1-9-4.69c10.17,4.42,20.87,2.57,31.38,2.77,1.91,0,3.82-.23,5.74-.26,1,0,1.48.6,1.54,1.59A1.91,1.91,0,0,1,1324.48,220.91Zm83-53.89q-29.78,19.1-59.53,38.19c-4.11,2.63-8.17,5.37-12.88,6.9l-34.25.64c-12.45.06-21.8-11.23-22.57-20.39-.27-3.16-.77-6.3-.75-9.5,0-14,0-28,0-43l130.9,25C1408.85,166.1,1408.18,166.55,1407.44,167Zm26.81-16.92c-4.29,2.76-8.82,5.18-12.91,8.21-3.25,2.4-6.56,2.67-10.23,1.95L1279.2,134.89a5.36,5.36,0,0,1-4.22-3.41c-5.55-12.46-15.64-17.09-28.72-17-31.72.12-63.43.06-95.15.07h-7.6c-1.14-2.5.94-3,2.21-3.9,4.18-3.09,4.8-4,2.76-8.36-1.15-2.46-.25-3.34,1.28-4.64,11.69-9.9,23.48-19.68,35-29.82a26.33,26.33,0,0,1,22.34-6.69l162.07,22.41a80.71,80.71,0,0,1,31.65,12.8,78.53,78.53,0,0,1,8.62,6.55c9.17,8.26,18.32,16.54,27.27,25C1445.32,136.09,1444.41,143.58,1434.25,150.1Z"/><path class="cls-1" d="M1310.2,807.19c0,30.44-.1,60.88-.06,91.31.06,46.93-33.9,88.29-80,97.37a125,125,0,0,1-24.1,2.2q-32.58,0-65.14,0c-21.11,0-42.08-1.9-63-4.26-2.5-.28-5-1-7.78-.05-1.14,8.15-.63,16.44-1,24.29a3,3,0,0,1-2.77.72c-16.1-1.55-32.17-3.25-48.29-4.6-3.68-.31-4.5-1.77-4.36-5.09.23-5.31.08-10.64,0-16s-.07-5.48-5.72-5.52l-96.61-.1c-4.8,0-4.83.11-4.86,4.89,0,5.11,0,10.22,0,15.33,0,7.38-.25,6-5.63,6.58-11.2,1.25-22.44,2.17-33.67,3.18-5.29.48-10.59.86-15.75,1.27-1.53-1.61-.91-3.38-.94-5-.08-5.32,0-10.64-.1-16-.07-4.61-.14-4.75-4.62-4.37-8.69.74-17.39,1.43-26,2.56a245.83,245.83,0,0,1-28.67,1.67q-40.54.52-81.1.38c-20-.09-38.82-5.36-55.34-16.75-28.23-19.51-44.24-46.37-44.35-81.08-.32-101.52-.11-203-.1-304.56q0-61.62,0-123.23a39,39,0,0,1,35.25-38.6,163.67,163.67,0,0,1,16.58-.68c25.75-.06,51.51,0,77.27,0,4.25,0,8.51-.11,12.76-.39a29.56,29.56,0,0,0,28-27.17c.39-4,.38-8.09.39-12.13q0-32.56,0-65.13c0-1.7-.09-3.41.07-5.1,1-10.43,7.86-14.91,15-15.25,3.13-.14,7.19,1.11,9.23-1.06,2.24-2.38.72-6.5.86-9.84.16-3.61,0-7.24.05-10.86,0-4.57.06-4.68,4.3-4.7q24-.08,47.9,0c4.22,0,4.27.12,4.3,4.71,0,7,0,14,0,20.75,2.83,1,5.19.68,7.51.69l119.12.48c17.23,1.9,28.11,13.41,28.79,30.81.27,6.59.11,13.19.11,19.79,0,18.73.47,37.47-.13,56.18-.56,17.77,11.47,38.63,38.26,38.86,11.49.1,23,.11,34.48.1q85.59,0,171.16-.07c3.61,0,7.23.12,10.85.19,19.42.39,37.37,16.65,37.82,39.7.09,5.1-.09,10.22-.09,15.32Q1310.14,658.11,1310.2,807.19Z"/><path class="cls-2" d="M1228.42,188.86c0,3.19.15,6.39,0,9.57-.73,13.08-10.47,21-23.34,18.92-8.39-1.36-16.78-2.72-25.08-4.49-9-1.91-12.85-6.49-14.28-15.64a57.09,57.09,0,0,1,.07-18.4c1.29-7.74,5.69-12.86,13.16-14.71a171.69,171.69,0,0,1,27.57-4.86c12.16-1,20.47,6.05,21.75,18.13.41,3.79.07,7.65.07,11.48Zm-5.16,1.47c0-6.51.31-11.18-.84-15.78-1.59-6.4-6.85-11-13.35-10.42a154.38,154.38,0,0,0-30.55,5.72c-4.14,1.21-6.61,4.24-7.51,8.65a54.61,54.61,0,0,0-.72,16.47c.65,6.33,3.57,11.47,10.38,12.89,8.91,1.86,17.85,3.72,26.87,4.9,7.89,1,14.26-4.73,15.09-12.84C1223,196.13,1223.13,192.3,1223.26,190.33Z"/><path class="cls-2" d="M692.06,188.08c0-3.83-.27-7.67.05-11.47.86-10.6,9.1-18.13,19.71-17.42a159,159,0,0,1,30,5.27c7.76,2.07,11.92,7.78,12.75,15.76a78.25,78.25,0,0,1-.1,16.55c-1,8.81-5.91,14.41-14.57,16.2s-17.08,3.41-25.7,4.55c-12.52,1.66-21.56-6.05-22.28-18.61-.21-3.6,0-7.22,0-10.83Zm5-.11h.11c0,4.05-.24,8.1,0,12.13.54,7.59,7.36,13.65,14.78,12.65,8.83-1.19,17.62-2.87,26.33-4.76,7.15-1.55,10.59-5.62,11.15-12.85a93.75,93.75,0,0,0-.07-14c-.46-6.39-3.8-10.77-10.22-12.23-8.91-2-17.85-4-27-4.69-8.53-.65-14.74,5.07-15.13,13.56C697,181.16,697.08,184.57,697.08,188Z"/><path d="M1256.3,327.74h-53.39A21.89,21.89,0,0,1,1181,305.87V279.49a21.89,21.89,0,0,1,21.87-21.87h53.39a21.89,21.89,0,0,1,21.87,21.87v26.38A21.89,21.89,0,0,1,1256.3,327.74Zm-53.39-64.37a16.14,16.14,0,0,0-16.12,16.12v26.38A16.14,16.14,0,0,0,1202.91,322h53.39a16.14,16.14,0,0,0,16.12-16.12V279.49a16.14,16.14,0,0,0-16.12-16.12Z"/><path d="M1241.47,413.63a26.23,26.23,0,1,1,26.23-26.23A26.26,26.26,0,0,1,1241.47,413.63Zm0-46.7A20.48,20.48,0,1,0,1262,387.4,20.49,20.49,0,0,0,1241.47,366.93Z"/><path d="M717.41,327.74H664a21.89,21.89,0,0,1-21.86-21.87V279.49A21.89,21.89,0,0,1,664,257.62h53.4a21.89,21.89,0,0,1,21.86,21.87v26.38A21.89,21.89,0,0,1,717.41,327.74ZM664,263.37a16.13,16.13,0,0,0-16.11,16.12v26.38A16.13,16.13,0,0,0,664,322h53.4a16.13,16.13,0,0,0,16.11-16.12V279.49a16.13,16.13,0,0,0-16.11-16.12Z"/><path d="M678.84,413.63a26.23,26.23,0,1,1,26.23-26.23A26.26,26.26,0,0,1,678.84,413.63Zm0-46.7a20.48,20.48,0,1,0,20.48,20.47A20.5,20.5,0,0,0,678.84,366.93Z"/><path d="M798.54,592.36v111H778.71V632.65L759.2,647.56,743,660.09l-16.18-12.53-19.51-14.91v70.74H687.51v-111l19.83,15.22L743,635l35.68-27.45Z"/><path d="M852.46,629.32v75.5H832.64V627.25a15.83,15.83,0,0,0-13.49-13.48h-4.44V594.1H819v.16a35.65,35.65,0,0,1,13.48,3.65,35.17,35.17,0,0,1,16,16.18,41.72,41.72,0,0,1,2.69,7.45,33,33,0,0,1,1,8.09Z"/><path d="M978.88,626a32.67,32.67,0,0,1-9.2,22.85,32.75,32.75,0,0,1-23.48,55.51H868V684.51h78.2a13.07,13.07,0,0,0,13-13,12.92,12.92,0,0,0-12.21-13H888V638.67h59a13,13,0,0,0-.64-26h-78.2V592.83h78.2A32.64,32.64,0,0,1,979,625.51Z"/><path d="M1096.4,647.4a32.75,32.75,0,0,1-23.47,55.51h-45.52a32.58,32.58,0,0,1-30.14-20,34.31,34.31,0,0,1-2.54-12.85V624.56a32.12,32.12,0,0,1,8.25-21.42,33.65,33.65,0,0,1,9.52-7.45,31.39,31.39,0,0,1,14.91-3.65h69v19.83h-69a13.07,13.07,0,0,0-13,13v15.55a32.48,32.48,0,0,1,12.37-2.54h46.79a32.81,32.81,0,0,1,23,10Zm-23.63,35.69a13.07,13.07,0,0,0,13-13,12.93,12.93,0,0,0-12.22-13h-46.79a13,13,0,0,0,.64,26h45.36Z"/><path d="M1223.29,647.4a32.75,32.75,0,0,1-23.48,55.51h-45.52a32.58,32.58,0,0,1-30.14-20,34.5,34.5,0,0,1-2.53-12.85V624.56a32.12,32.12,0,0,1,8.25-21.42,33.46,33.46,0,0,1,9.51-7.45,31.42,31.42,0,0,1,14.91-3.65h69v19.83h-69a13.06,13.06,0,0,0-13,13v15.55a32.41,32.41,0,0,1,12.37-2.54h46.79a32.81,32.81,0,0,1,23,10Zm-23.63,35.69a13.07,13.07,0,0,0,13-13,12.92,12.92,0,0,0-12.21-13h-46.79a13,13,0,0,0,.63,26h45.37Z"/></g></g></svg>