<svg xmlns="http://www.w3.org/2000/svg" viewBox="0 0 1920 1080"><defs><style>.cls-1{fill:#f2f2f2;}.cls-2{fill:#010101;}</style></defs><g id="Capa_2" data-name="Capa 2"><g id="Capa_1-2" data-name="Capa 1"><rect class="cls-1" width="1" height="1"/><rect class="cls-1" x="1919" y="1079" width="1" height="1"/><rect class="cls-1" y="1079" width="1" height="1"/><rect class="cls-1" x="1919" width="1" height="1"/></g><g id="Capa_3" data-name="Capa 3"><path class="cls-2" d="M554.26,342.58c-.76-2.18-2.37-2.8-4.61-2-12.81,4.76-27,6.22-38.57,16.33,1.13.52,2.47,2.25,3.77,2,13-2.53,25.39-7.11,37.51-12.36A3.23,3.23,0,0,0,554.26,342.58Zm1238.53,7c-19.85-16-39.54-32.16-59.3-48.25-10.26-7.78-20.61-15.42-30.73-23.37-7.06-5.53-14.41-8.73-23.24-4.61-9.25,4.3-11.39,12.19-11.22,21.64.22,12.27-.17,24.55-.31,36.84.12,15.07.08,30.14.41,45.18.14,5.37-1.81,7.57-7.19,7.47-14.43-.25-28.86-.27-43.28-.39q-33.95.18-67.91.35c-6.73,0-12.5-2.9-18.38-5.56-33.77-15.34-67.44-30.91-102.55-43-2.53-.88-6-1.91-5-4.77,3.25-9-3.64-9.35-8.79-11.16-16.39-5.77-32.82-11.51-49.31-17.05-3.94-1.32-8.65-4.14-10.12,3.6-.8,4.26-4.69,2.18-7.26,1.48-42.61-11.81-85.48-22.56-128.86-31.13-31.69-6.26-63.5-11.9-95.67-15.09-86.35-11.53-176.77-10.4-176.77-10.4-68,.89-135.79,6.2-202.94,17.25-58.41,9.6-115.9,23.37-172.88,39.23-3.19.89-7.18,3.44-8.62-2.14s-4.7-4.72-8.84-3.25c-17.64,6.28-35.35,12.31-53,18.47-4.24,1.48-9.14,2.4-6.28,9.16,1.46,3.42-1,4.77-4.3,5.91-35.42,12.39-69.66,27.59-103.61,43.49a50.58,50.58,0,0,1-22.35,5.27c-34.65-.23-69.32-.33-104,0-7.12.08-9.53-1.67-9.33-9.11.54-20.4.34-40.81.23-61.21-.06-9,.8-18.14-1-27.12-2.78-13.79-15.89-19.91-28.12-12.89a99,99,0,0,0-11.84,8.42Q169.76,315,129.06,347.27a31.37,31.37,0,0,0-11.74,21.83v88.25c0,6.18-.1,12.56,2.72,18.08,11.47,22.48,9.29,46.45,8.28,70.32-3.71,27.22,10.4,45.87,28.11,64.34,14.33,14.93,29.38,23.25,50.17,21.62,11.89-.94,23.91,0,35.85-.53s18.93-7.56,19.54-19.63.5-23.92.75-35.88c.3-14.38,9.39-21.11,21.08-12.63,15.09,11,30.89,8.92,47.11,9.1,11,.11,22,.35,32.95.33,6.75,0,11.09,2.93,12.82,9.47,8.12,30.48,16.91,60.81,23.62,91.67,3.6,12.67,7,25.43,10.87,38,5.89,19.06,18.12,32.63,36.86,39.69,13.57,5.09,27.41,9.43,41.14,14.09,12.89,4.4,25.8,8.77,40.79,13.86-8.93,4.57-15.77,8.05-22.59,11.53-20,13.75-19.95,13.75-7.7,34.86,8.73,15.07,17.61,30,26.11,45.23,3.42,6.1,6.63,6.86,12.89,3.15,29.65-17.66,59.69-34.69,89.43-52.19,6.2-3.63,11.77-5.13,19-2.52,22.69,8.12,45.51,7.15,68.34-.32,12.25-4,24.71-7.33,37.13-10.77,3.81-1,8.38-3.19,9.12,4,.41,3.95,3,5.13,7,4,3.07-.85,6.36-.89,9.56-1.3,16.67-3.64,33.31-7.31,50-10.83,3-.62,6.79-1.09,6.08-4.67-1.78-9.15,4.59-8.16,9.82-8.71,31.54-3.28,63.07-6.41,94.82-7.11,49.21-.7,65.83.91,65.83.91,24.6,1,49,4.09,73.42,6.87,2.72.31,7.7-.9,6.92,4.29-1,6.94,2.84,8.13,8.13,9.08s10.65,2.55,16,3.87c13.59,2.53,27.22,5,40.79,7.66,3.44.66,6.94,1.44,7.27-3.32.45-6.61,4.45-6.5,8.69-4.75,0,0,21.56,6.48,44.89,12.68s45.81,1.5,45.81,1.5l26.42-7.14Q1334,798,1384.82,780.87a16.48,16.48,0,0,1,3.81-.41c25.33-10.44,51.58-18.24,77.47-27.06,22.87-7.8,37.43-23.1,43.57-46.55,5.14-19.63,10.64-39.17,16-58.73q8.16-31.93,16.33-63.85c2.1-8.32,6.61-12.46,15.84-12,14.2.72,28.45.43,42.66.57,12.09,0,23-1.81,33.6-9.41,12.38-8.89,22.74-2.41,22.84,12.5.08,11.64-.25,23.31.37,34.92.72,13.41,7.76,20.2,20.88,20.45,15.2.29,30.39.08,45.59,0,11.18,0,20.73-4.26,29-11.57,35.91-31.73,38.17-36.71,38.07-84.15,0-2.91.13-5.83,0-8.73-1-18,.68-35.36,8.77-51.87,3-6.12,3-13.1,3-19.95-.06-29.41.06-58.83.1-88.22C1802.69,358.8,1792.79,349.56,1792.79,349.56ZM577.65,321.88c50.24-13.38,100.67-25.78,151.88-35a1306.26,1306.26,0,0,1,238.39-20.63c61.45.29,122.73,5.56,183.67,14.33,64.33,9.25,127.34,24.54,190,41.37,3.07.82,8.3-.07,6.53,5.62-1.54,4.92-5.82,2.92-9.1,2-26.48-7-52.83-14.58-79.42-21.19,0,0-154.82-35.21-300.15-35.21s-300.87,35.27-300.87,35.27c-23.7,6.3-47.25,13.2-70.85,19.85-2.49.7-5,1.26-7.48,2-4.2,1.32-8.52.92-9.47-3.65S574.89,322.61,577.65,321.88Zm75.5,467c-10.08-4.2-20.63-7.23-31-10.62-2.18-.7-5-3.11-6.67.28s2.54,3.87,3.73,5.93l32.37,12.73c.76,2.43-1.36,3.15-2.93,4.06-36.11,20.79-72.29,41.44-108.26,62.45-6,3.48-8.24,2.61-11.49-3.48-8.65-16.21-18.2-32-27.55-47.81-2.2-3.73-3.65-6.18,1.69-9,13.13-6.9,25.84-14.56,38.71-21.93,7.16-4.37,14.49-8.49,21.37-13.24,3.85-2.66,7.33-1.81,11-.54,6.09,2.1,12.06,4.49,18.16,6.55,2.55.87,5.62.87,6.75-2,1.24-3.08-1.44-4.55-3.93-5.51-6-2.27-12-4.86-18.14-6.55-6.92-1.89-10.77-5.93-13.14-12.64-10-28.44,5.83-61.1,34.08-69.6,31-9.33,62.47,7.62,68.9,37.19,2.26,10.35,1.05,20.65-1.32,30.72A204.17,204.17,0,0,0,660,785.11C659.77,791.1,658.28,791,653.15,788.86Zm98.39,3.73C728.45,797,707,808.46,683,808.85c-6.44.09-12.89-.47-19.35-.8-4.51-.23-7.7-1.56-2.93-6,5.71-5.35,7-12,7.13-19.34.33-14.94,4-29.42,6.52-44.06,4.76-27.37-4.44-49-26.72-62.39-21-12.68-49.79-11.16-69.43,3.64-2.25,1.69-4.06,4.29-7.42,4,.29,2.22-1.15,3.56-2.45,5C553.68,705.12,550.24,724,555,744.84c.49,2.2,1.36,4.32,1.69,6.53,2,14.1-3.85,19.1-17.67,14.51-27.53-9.12-54.92-18.55-82.4-27.82-16.62-5.6-27.2-16.82-31.53-33.83-3.91-15.27-7.66-30.57-11.49-45.85C407,634.16,400.26,610,394,585.67c-5.79-22.38-13.24-28.76-36.53-29.17-14.21-.23-28.43.1-42.66.22-7.19.06-14.07-.88-19.73-5.93-13.81-7.64-27.47-7.21-41,.72-5.41,6.22-6.77,13.69-6.83,21.64-.08,11.31-.47,22.63-.43,33.94,0,6.32-2,9.49-9,9.26-13.57-.43-27.18-.31-40.75-.33-9,0-16.25-3.5-22.28-10-6.59-7.11-12.83-14.64-20-21.11-9.72-8.77-12.09-19.31-10-31.53-.27-14.22-.58-28.43-.84-42.64-.17-10.07-.52-20.24-5-29.4-5.86-12.07-6.81-24.75-6.75-37.76.1-23.29.17-46.58,0-69.85,0-7,2.51-11.8,8.26-16.24,27.14-20.92,53.89-42.34,80.8-63.57q3.42-2.72,7-5.13c4.73-3.19,7.14-1.56,7.51,3.83.15,2.25.11,4.53.11,6.78.08,26.52,0,53.06.22,79.58.11,13.84,7.05,20.94,20.9,21,37.21.13,74.42,0,111.63,0,7.26,0,13.94-2,20.52-4.91,34.12-15.4,68-31.31,103.31-43.9,3.13-1.11,7.76-5.29,9.37.71,1.21,4.52-1.38,8.5-7.31,9.22-11.35,1.4-21.54,6.61-32.13,10.48-3.45,1.24-8.79,2.24-8.09,6.92.74,4.9,6.39-.08,9.1,2.9-4.44,10-2.63,20.76-2.71,31.32-.35,44.31-.44,88.6-.64,132.89.2,24.22.58,48.47.45,72.69C460.53,629,462,638.92,469,647.4c3.77,4.57,4.08,10,4.33,15.55.12,2.28.14,4.86,3.37,4.8,2.64,0,2.7-2.33,2.93-4.22.45-3.4.94-5.67,5.76-5.61,38.82.52,77.65.6,116.48,1,31.45.27,57.22,11.72,74.73,38.84,8.46,13.09,12.31,27.59,12.54,43.09.16,10,.12,20.06-.05,30.09-.06,4.28-.16,9.06,2.19,12.21,7.88,10.62-.13,10.89-7.17,12a63.89,63.89,0,0,1-6.77.54c-2.78.14-4.24,1.62-4,4.32s2.8,2.1,4.51,2.18c16.48.72,31.47-6.32,47.22-9.37,8.54-1.66,16.86-4.3,25.32-6.24,2.12-.49,4.92-.32,5.17,2.81C755.74,791.89,753.47,792.22,751.54,792.59ZM1087.31,775c-.8,3.24-3.52,2-5.56,1.69-11.8-1.91-23.66-3.11-35.58-4.24-25.76-2.41-51.54-4-77.4-4.37L951,767.92c-27.76.51-55.45,2.12-83.08,5-10.57,1.1-21.11,2.58-32.27,3.94-1.15-.05-3.58,1.15-4.1-1.69-.57-3.07,1.24-5.09,4.06-5.64,7.56-1.44,15.16-3.07,22.81-3.79,31.16-2.89,62.37-5.21,93.71-4.86l37.58,0c30.1.84,59.94,3.87,89.72,8a25.55,25.55,0,0,1,3.84.55C1086.05,770.18,1088.05,771.87,1087.31,775Zm60.7-2.53c-3-.33-7-3.17-8.17,1.48-1.18,4.92,4,6,7,6,10.58.2,9.47,4.87,7,12.78-4.84,15.63-4.24,15.75-20.36,12.31-11.35-2.42-22.7-4.88-34.16-6.73-5-.82-6.66-2.7-5.67-7.64,1.26-6.26,0-14.78,3.69-18.38,4.26-4.14,11.84,1.93,18.16,2.16,2.84.1,7.35,2.53,8-2.19.51-3.7-3.5-4.73-6.82-5.43-22.44-4.82-45.21-7.45-67.9-10.48-62-7-119.18-3.21-119.18-3.21-27.2.41-54.32,2.1-81.23,6.13-15.65,2.33-31.24,5-46.87,7.46-3.31.51-7.35.68-6.87,5,.57,4.92,4.85,2.74,7.8,2.53,1.28-.08,2.53-.58,3.79-.78,15-2.43,14.7-2.35,18.2,12.19,2,8.19,1.52,12.58-8.79,13.65-13.08,1.36-26,4.72-38.86,7.86-6.32,1.53-9-.12-9.37-6.46-.12-2.26-.14-4.74-1.11-6.67-4.42-8.73-4-14.66,7.62-15.51a3.59,3.59,0,0,0,3.38-4.84c-1.09-3.29-3.87-2.55-6.49-1.83-14,3.85-28,7.54-42,11.47-5.3,1.5-10.52,3-16.08,3.27-12,.56-15.45-2.42-15.9-14.7-.25-7.12-.54-14.27-.08-21.35,1.66-25.68-5.67-48.47-21.46-68.65-20.49-21.7-45.5-31.11-75.46-30.43-35.19.8-70.42-.1-105.65-.56-13.59-.18-13.66-.68-14.4-14.49-.25-4.74.52-9.62-1.48-14.27-4.08,3.25-4.08,3.25-6.49,12.45-3.6-1.05-3.81-4.13-3.81-6.91q0-64.38.23-128.8l.12-15.4a386,386,0,0,1-.18-46.76c.1-5.09.19-10.21.29-15.3-1.11-12.4-1.73-24.77.92-36.82,1.49.07,3,.13,4.47.21V418c5.07,4.61,6,.54,6-3.27.22-10,.2-20-.17-30-.16-4.41,1.05-7.07,5.17-9.21,8.91-4.59,20-6,24.38-17.42a3.53,3.53,0,0,1,.27-.55v0c-.46-9-1.71-17.2-5.46-24.71-2.06-4.12.76-5.17,3.52-6.14,14.58-5.09,29.26-9.92,43.78-15.2,4.22-1.54,6-.49,6.73,3.59a46.34,46.34,0,0,0,1.36,5.64c6,18.49,12.56,21.87,30.91,16.51,22.58-6.63,45.17-13.22,67.84-19.56,0,0,173.42-36.69,301.22-36.69S1261,317.75,1261,317.75c23.62,6.54,47.18,13.34,70.75,20.07,16.74,4.78,20.78,2.8,27-13.69a49.61,49.61,0,0,0,2.7-9.29c.64-4,2.56-4.65,6.06-3.46,15,5.11,30,10.09,44.88,15.18,2.25.78,4.1,2.2,3.26,5.06-1.92,6.49-3.59,13.08-6,19.4-1.64,4.3-4.83,1.44-7.33.54-9.1-3.28-18.12-6.82-27.32-9.85-2.72-.9-7.08-3-8.22,1.55-1,3.91,3.11,5.23,6.24,6,11.82,3,22.55,9.33,35,10.61,6.36.67,8.57,9.32,15.4,10.76,13.84,2.89,18.24,11.64,16,25.17-1,5.66-.25,11.63-.1,17.44.06,2.4-.74,5.74,3.19,5.86s3.15-3.78,3.6-5.76c.84-3.71.45-7.7.62-11.59.1-1.86-.15-4.27,2.78-3.85,2.06.3,1.81,2.34,1.77,3.87-.17,10.35-.41,20.71-.62,31.05.06,7.78.1,15.58.14,23.35q-.06,17.48-.1,34.94c2.93,42.25,1.26,137-2.55,144.18a3.41,3.41,0,0,1-.6-.6c-2.55-3.56,1.57-12.13-5.54-11.08-5.25.78-2.49,8.26-2.63,12.69-.44,13.79-.19,14.12-14,14.53-25.82.78-51.63,1.28-77.43-.18-9.67.22-19.35.9-29,.59-52.77-1.7-93.25,34.37-96.26,85.15-.06,11.94.37,23.92-.35,35.82-.78,13.22-5.21,16.44-18,14.27C1185.16,783.28,1167.37,774.71,1148,772.45Zm638.81-311.52c0,1.92,0,4.08-.87,5.69-14.31,27.88-10.75,58-10.33,87.49.2,13.75-4.08,23.92-13.39,33.62-29.77,31-21.52,28.56-65.7,28.44-24.16-.07-24.16-.07-24.18-24.42,0-5.81,0-11.62,0-17.46-.2-20.12-8.87-28.65-29.11-28.67-1.94,0-3.87-.08-5.81-.14-5.23,1.61-10.73,2.84-15,6.51-4.53,4-9.72,4.69-15.34,4.69-16.18,0-32.35-.1-48.53.25-18.68.39-27.24,6.94-32,24.85-10.52,39.6-21,79.23-30.93,119-5,20-16.94,32.54-36.44,39-42,13.8-83.83,28.11-125.75,42.21-24.17,8.13-48.2,16.66-72.54,24.2a77.49,77.49,0,0,1-43.12.7c-15.58-4.14-30.86-9.37-46.61-12.94-2.85-.67-7.68-.72-6.74-5.18,1-4.64,5.36-2.29,8.09-1.61q27.2,6.67,54.3,13.88a43.59,43.59,0,0,0,13.43,1.11c1.75-.08,4.2.35,4.44-2.41.21-2.45-1.64-3.23-3.68-3.6-4.14-.74-8.32-1.28-12.38-2.31-2.22-.57-6.28-1.28-3.52-4.82,8.07-10.29,5.17-22.21,5.79-33.62.14-2.58.27-5.15.43-7.72-4.07-50.94,35.54-90.93,87.45-88.27q44.57-.35,89.12-.69c6.79-.06,13.59,0,20.38-.34,5.52-.21,12.69-3.65,11.45,7.14-.2,1.63,1.69,2.7,3.5,2.53a3,3,0,0,0,2.7-3.44c-2.49-14.8,12.89-23.49,12.56-37.62-.29-13.24.08-26.5.14-39.76q.13-32.46.29-64.94V382.92c.6-3.24,6.75,3,7.5-3.15.59-4.88-4.31-6.08-7.81-7.27-11.51-3.9-21.93-11-34.63-11.55-5.5-.23-7.31-4.93-6.18-9.06,1.52-5.56,5.54-1.75,8.42-.7a977.47,977.47,0,0,1,93.5,39.47c14.71,7.16,29.57,10.6,45.76,9.43,5.76-.43,11.61.14,17.42.25q38.76-.16,77.52-.36c16.25-.12,23.1-6.67,23.23-22.87.2-27.47,0-54.92.06-82.4,0-2.43-1.2-5.65,1.28-7.15,2.88-1.73,5.58.51,7.84,2.29q44.6,35,89.08,70.09a12.54,12.54,0,0,1,5.08,10.91c-.24,10.32-.22,20.65-.29,31Q1786.78,431.37,1786.82,460.93ZM549.65,340.62c-12.81,4.76-27,6.22-38.57,16.33,1.13.52,2.47,2.25,3.77,2,13-2.53,25.39-7.11,37.51-12.36a3.23,3.23,0,0,0,1.9-4C553.5,340.4,551.89,339.78,549.65,340.62Z"/><path class="cls-1" d="M1450.63,491.14q.06-17.47.1-34.94c0-7.77-.08-15.57-.14-23.35.21-10.34.45-20.7.62-31.05,0-1.53.29-3.57-1.77-3.87-2.93-.42-2.68,2-2.78,3.85-.17,3.89.22,7.88-.62,11.59-.45,2,.31,5.87-3.6,5.76s-3.13-3.46-3.19-5.86c-.15-5.81-.87-11.78.1-17.44,2.28-13.53-2.12-22.28-16-25.17-6.83-1.44-9-10.09-15.4-10.76-12.48-1.28-23.21-7.6-35-10.61-3.13-.8-7.22-2.12-6.24-6,1.14-4.55,5.5-2.45,8.22-1.55,9.2,3,18.22,6.57,27.32,9.85,2.5.9,5.69,3.76,7.33-.54,2.39-6.32,4.06-12.91,6-19.4.84-2.86-1-4.28-3.26-5.06-14.93-5.09-29.92-10.07-44.88-15.18-3.5-1.19-5.42-.55-6.06,3.46a49.61,49.61,0,0,1-2.7,9.29c-6.17,16.49-10.21,18.47-27,13.69-23.57-6.73-47.13-13.53-70.75-20.07,0,0-173.7-36.84-301.49-36.84S658.26,317.6,658.26,317.6c-22.67,6.34-45.26,12.93-67.84,19.56-18.35,5.36-24.86,2-30.91-16.51a46.34,46.34,0,0,1-1.36-5.64c-.74-4.08-2.51-5.13-6.73-3.59-14.52,5.28-29.2,10.11-43.78,15.2-2.76,1-5.58,2-3.52,6.14,3.75,7.51,5,15.69,5.46,24.71a1,1,0,0,1,1.5-.52c11.55-10.11,25.76-11.57,38.57-16.33,2.24-.84,3.85-.22,4.61,2a3.23,3.23,0,0,1-1.9,4c-12.12,5.25-24.48,9.83-37.51,12.36-1.3.25-2.64-1.48-3.77-2-.48.43-1,.87-1.46,1.34,0-.27,0-.54,0-.8a3.53,3.53,0,0,0-.27.55c-4.35,11.39-15.47,12.83-24.38,17.42-4.12,2.14-5.33,4.8-5.17,9.21.37,10,.39,20,.17,30-.07,3.81-1,7.88-6,3.27V384.79c-1.48-.08-3-.14-4.47-.21-2.65,12.05-2,24.42-.92,36.82-.1,5.09-.19,10.21-.29,15.3a386,386,0,0,0,.18,46.76l-.12,15.4q-.15,64.42-.23,128.8c0,2.78.21,5.86,3.81,6.91,2.41-9.2,2.41-9.2,6.49-12.45,2,4.65,1.23,9.53,1.48,14.27.74,13.81.81,14.31,14.4,14.49,35.23.46,70.46,1.36,105.65.56,30-.68,55,8.73,75.46,30.43,15.79,20.18,23.12,43,21.46,68.65-.46,7.08-.17,14.23.08,21.35.45,12.28,3.89,15.26,15.9,14.7,5.56-.26,10.78-1.77,16.08-3.27,14-3.93,28-7.62,42-11.47,2.62-.72,5.4-1.46,6.49,1.83A3.59,3.59,0,0,1,774,778.5c-11.61.85-12,6.78-7.62,15.51,1,1.93,1,4.41,1.11,6.67.33,6.34,3,8,9.37,6.46,12.85-3.14,25.78-6.5,38.86-7.86,10.31-1.07,10.75-5.46,8.79-13.65-3.5-14.54-3.21-14.62-18.2-12.19-1.26.2-2.51.7-3.79.78-3,.21-7.23,2.39-7.8-2.53-.48-4.28,3.56-4.45,6.87-5,15.63-2.43,31.22-5.13,46.87-7.46,26.91-4,54-5.72,81.23-6.13,0,0,57.22-3.79,119.18,3.21,22.69,3,45.46,5.66,67.9,10.48,3.32.7,7.33,1.73,6.82,5.43-.66,4.72-5.17,2.29-8,2.19-6.32-.23-13.9-6.3-18.16-2.16-3.69,3.6-2.43,12.12-3.69,18.38-1,4.94.62,6.82,5.67,7.64,11.46,1.85,22.81,4.31,34.16,6.73,16.12,3.44,15.52,3.32,20.36-12.31,2.45-7.91,3.56-12.58-7-12.78-3-.05-8.2-1.1-7-6,1.15-4.65,5.21-1.81,8.17-1.48,19.36,2.26,37.15,10.83,56.25,14.06,12.81,2.17,17.24-1,18-14.27.72-11.9.29-23.88.35-35.82,3-50.78,43.49-86.85,96.26-85.15,9.64.31,19.32-.37,29-.59,25.8,1.46,51.61,1,77.43.18,13.81-.41,13.56-.74,14-14.53.14-4.43-2.62-11.91,2.63-12.69,7.11-1,3,7.52,5.54,11.08a3.41,3.41,0,0,0,.6.6C1451.89,628.09,1453.56,533.39,1450.63,491.14Zm-976.2-53.82c2.94-2.1,4.94-1.47,5,2.2.12,13.07,0,26.11,0,39.18,0,2.72-2,2.76-4,2.72C471.48,466.8,473.36,452,474.43,437.32Zm-.1,62c3-3.24,5.12-2.91,5.12,1.75,0,13.85,1.71,27.73-.78,41.53-3.89-.62-5.31-3.07-5.21-6.78C473.77,523.67,472.49,511.48,474.33,499.34Zm5.45,102c-.16,1.86.58,5.31-3,4.78-2.35-.35-3.48-2.64-3.48-5.15,0-5.81,0-11.61,0-17.42h.45c0-6.44-.17-12.87.12-19.29.08-1.67,1.18-4,3.69-3.54,2,.37,1.75,2.39,1.89,3.93A214.08,214.08,0,0,1,479.78,601.36Zm96.43-65.78c-2.58,1.27-5.23,2.36-7.85,3.52l-18.47,1.11c-22-4.1-37.53-18-41.22-37-4-20.39,4-39.7,20.8-50.53,23.22-15,54.66-7.09,67.93,16.94A47.58,47.58,0,0,1,576.21,535.58Zm788.08,4.55c-26.74.26-47.42-19.94-47.68-46.54-.27-27.38,20-48.29,47-48.57,26.54-.25,47.83,20.92,48.1,47.85C1411.94,518.79,1390.78,539.88,1364.29,540.13ZM1444.62,498c3.75,13.87.91,28,1.77,42q-1.89,1.34-3.75,2.7c-1.07.12-2.14.25-3.19.39-.06-13.49,0-27-.25-40.5C1439.12,498.39,1440.44,496.74,1444.62,498Zm1.93,84.52a159.55,159.55,0,0,1-.28,18.29c-.09,2.12-.19,4.94-3.15,5.14-3.59.23-3.87-2.69-3.9-5.35q-.21-16.86-.33-33.69c.73-2.57,0-6.09,4.14-6.5C1449.11,567,1446,575.09,1446.55,582.52Zm-.82-106.18c-.2,1.66.39,5.06-3.11,5-3.17-.06-3.33-2.55-3.33-4.82-.06-11.92,0-23.82,0-35.74,0-4.25,2.45-4.62,5.74-3.94l2,19.36C1446.6,462.91,1446.49,469.68,1445.73,476.34Z"/><path class="cls-2" d="M597.4,469.66c-13.27-24-44.71-31.89-67.93-16.94-16.81,10.83-24.77,30.14-20.8,50.53,3.69,19,19.17,32.86,41.22,37l18.47-1.11c2.62-1.16,5.27-2.25,7.85-3.52A47.58,47.58,0,0,0,597.4,469.66Zm-42.89,62.72c-22.18-.55-39.17-18.61-38.74-41.14.4-20.63,19.17-39,39.54-38.71,21.47.27,40.44,19.58,39.94,40.59A39.9,39.9,0,0,1,554.51,532.38Z"/><path class="cls-2" d="M478.67,542.62c-3.89-.62-5.31-3.07-5.21-6.78.31-12.17-1-24.36.87-36.5,3-3.24,5.12-2.91,5.12,1.75C479.49,514.94,481.16,528.82,478.67,542.62Z"/><path class="cls-2" d="M479.39,478.7c0,2.72-2,2.76-4,2.72-3.94-14.62-2.06-29.38-1-44.1,2.94-2.1,4.94-1.47,5,2.2C479.53,452.59,479.45,465.63,479.39,478.7Z"/><path class="cls-2" d="M1363.6,445c-27,.28-47.26,21.19-47,48.57.26,26.6,20.94,46.8,47.68,46.54,26.49-.25,47.65-21.34,47.41-47.26C1411.43,465.94,1390.14,444.77,1363.6,445Zm-.19,87.45c-22.57-.5-39.58-18.82-38.94-41.91.56-20.48,19.75-38.6,40.22-38,20.92.6,39.43,19.58,39.33,40.34C1403.93,514.49,1385,533,1363.41,532.47Z"/><path class="cls-2" d="M1446.39,540q-1.89,1.34-3.75,2.7c-1.07.12-2.14.25-3.19.39-.06-13.49,0-27-.25-40.5-.08-4.2,1.24-5.85,5.42-4.59C1448.37,511.87,1445.53,526,1446.39,540Z"/><path class="cls-2" d="M1446.55,582.52a159.55,159.55,0,0,1-.28,18.29c-.09,2.12-.19,4.94-3.15,5.14-3.59.23-3.87-2.69-3.9-5.35q-.21-16.86-.33-33.69c.73-2.57,0-6.09,4.14-6.5C1449.11,567,1446,575.09,1446.55,582.52Z"/><path class="cls-2" d="M1447,456.2c-.37,6.71-.48,13.48-1.24,20.14-.2,1.66.39,5.06-3.11,5-3.17-.06-3.33-2.55-3.33-4.82-.06-11.92,0-23.82,0-35.74,0-4.25,2.45-4.62,5.74-3.94Z"/><path class="cls-2" d="M1446.63,704.62c0,.65,0,1.3,0,1.94-.09,18.37-.18,18.17,17.07,10,3.71-1.75,8.69-8.74,11.84-2.83s-4.85,8.1-9.13,10.06c-8.12,3.71-16.65,6.57-25.11,9.5-2.51.87-7.54,1.77-5.29-3,5.71-12.23,1.87-24.9,3.25-37.26.35-3.22-1.45-8.45,3.57-8.49s3.63,5.15,3.8,8.47c.19,3.88,0,7.77,0,11.65Z"/><path class="cls-2" d="M1547.13,457.69c-2.85-4-1.5-8.69-1.8-13.07-.57-8.4-2.1-16.44-6.46-23.83-1.1-1.87-1.67-4.74.61-6.09s4,.76,5.49,2.55c3.76,4.58,4.62,10.47,7.12,15.61.14,6.25.24,12.51.42,18.77C1552.61,455.38,1551.06,457.57,1547.13,457.69Z"/><path class="cls-2" d="M1497.17,631.73c2.67-10.48,5.59-22.33,8.77-34.1.58-2.17,2.22-4.07,5-3.39,3.24.77,2.49,3.5,2.12,5.48-2.18,11.69-4.41,23.39-8.69,34.54-.78,2-1.84,4.6-4.58,4.32C1496.52,638.23,1497.73,635.26,1497.17,631.73Z"/><path class="cls-2" d="M1380.19,755.08c-1.64-.34-2.73-.78-3.32-2.14a3.64,3.64,0,0,1,1.7-4.94,205.67,205.67,0,0,1,36.79-13.83c1.84-.52,4-.13,4.66,2.24.61,2.08,0,4.14-2,4.87C1405.47,746,1392.82,750.5,1380.19,755.08Z"/><path class="cls-2" d="M1264.53,796.83c-1.6.24-3.26.75-4-1.33-.61-1.63-.46-3.59.93-4.39,12-6.89,25.43-10.18,38.6-14a2.39,2.39,0,0,1,2.85,2c.55,2.69-1,4.34-3.11,5.33C1288.42,789.7,1276.48,793.29,1264.53,796.83Z"/><path class="cls-2" d="M1545.32,481c-2.52,9.36-5.51,20.48-8.55,31.58-.71,2.61-2.24,5.47-5.07,4.77s-2.85-3.81-2-6.51c3.37-11,6.68-22,10.11-33,.64-2.07,1.42-4.79,4.39-3.77C1546.48,474.89,1545.58,477.3,1545.32,481Z"/><path class="cls-2" d="M1514.18,570.13c3-10.88,6-22,9.32-33.08.64-2.17,1.62-5.56,5.1-4.3,2.62,1,2.16,3.91,1.69,6q-3.88,16.89-8.23,33.68c-.64,2.48-2,5.17-5.27,4.53C1512.83,576.13,1515.38,572.69,1514.18,570.13Z"/><path class="cls-2" d="M1325,776.36c-3.38-.09-5.73-.44-6.41-3.06s1.18-4.06,3.48-4.87q16.74-5.94,33.46-11.88c2.08-.74,3.94-.53,4.87,1.54.8,1.78-.63,3.27-2,3.87C1347.06,767,1335.6,771.83,1325,776.36Z"/><path class="cls-2" d="M1482.24,691.58c2.77-11,5.55-22.3,8.46-33.53.58-2.2,1.6-4.45,4.6-3.87s3.11,3.13,2.66,5.32a186.84,186.84,0,0,1-10.2,34.21c-.78,1.88-1.94,3.72-4.23,3C1480.83,695.94,1482.5,693.54,1482.24,691.58Z"/><path class="cls-2" d="M366.49,443.13a54.75,54.75,0,0,1,7.27-25.06c1.61-2.7,3.75-6.38,7.41-4.58,4.26,2.09,1.31,5.79,0,8.33-4.41,8.44-7.24,17.18-7.14,26.81,0,2.68,1.08,6.93-2.75,7.19-4,.27-4.5-3.8-4.74-7.1C366.41,447.43,366.49,446.13,366.49,443.13Z"/><path class="cls-2" d="M400.47,406.15c-1.52-.69-3.18-.91-3.57-1.74a3.23,3.23,0,0,1,1.64-4.12c11.71-6.05,23.35-12.27,35.82-16.72,2.15-.77,3.8-.05,4.52,2.23a3.85,3.85,0,0,1-2.06,4.9C424.74,396,412.57,401,400.47,406.15Z"/><path class="cls-2" d="M372.69,477.16c.14-2.57.05-4.84,2.28-5.53,2.79-.87,4.27,1.25,4.88,3.44,3.37,12.08,6.59,24.2,9.78,36.33a3.33,3.33,0,0,1-2.67,4.39,3.15,3.15,0,0,1-3.85-2.17C379.5,501.3,376,488.93,372.69,477.16Z"/><path class="cls-2" d="M401.11,549.61c1.37,6.52,2.88,13,4.05,19.59.33,1.89,1.77,4.73-1.43,5.63-2.84.8-5.1-.68-6-3.45-2.22-7.29-4.23-14.64-6.32-22-.84-5-1.83-9.94-2.4-14.95-.16-1.34.61-3.5,1.64-4.09,2.15-1.24,3.63.77,4.29,2.45C397.19,538.36,399.09,544,401.11,549.61Z"/><path class="cls-2" d="M479.78,601.36c-.16,1.86.58,5.31-3,4.78-2.35-.35-3.48-2.64-3.48-5.15,0-5.81,0-11.61,0-17.42h.45c0-6.44-.17-12.87.12-19.29.08-1.67,1.18-4,3.69-3.54,2,.37,1.75,2.39,1.89,3.93A214.08,214.08,0,0,1,479.78,601.36Z"/><path class="cls-2" d="M421.7,629.31c-.22,2.59.18,4.86-2.35,5.43-2.15.49-3.58-.56-4.53-2.64-5.26-11.54-7.54-24-10.76-36.08a4.1,4.1,0,0,1,2.35-4.89c2.11-.79,3.78.94,4.46,2.75A268,268,0,0,1,421.7,629.31Z"/><path class="cls-2" d="M434.63,676.77c.7,4.43,1.59,8.84,2,13.29.19,2,1.1,5.05-2,5.62-2.61.49-4.09-2-4.71-4.06-2.55-8.61-4.81-17.3-7.19-26-.68-2.47-1.37-4.94-2.05-7.41.64-2.22-.81-5.67,2.85-6.18,3.14-.44,4.3,2.18,5.07,4.69C430.67,663.42,432.63,670.1,434.63,676.77Z"/><path class="cls-2" d="M1482.29,387.14c15.25-.63,27.81,6.11,40.33,12.92a3.82,3.82,0,0,1,1.81,4.95,3.64,3.64,0,0,1-4.72,2.32C1506.6,401.87,1493.49,396.34,1482.29,387.14Z"/><path class="cls-2" d="M480.52,710c0,3.54-.2,7.09,0,10.62.85,12.63.79,13-10.85,9.12-8.73-2.89-18.38-4-25.26-11.16-2.2-2.27-5.5-5.15-2.93-8.19,3-3.55,5.5.6,8,2.26.8.54,1.51,1.23,2.35,1.69,6.2,3.39,13.41,8.44,19.55,5.68,4.74-2.13,1-10.53,1.61-16.11.4-3.5-.09-7.1.26-10.61.31-3.23-1.73-8.75,2.95-8.87,5.58-.14,3.45,5.82,3.76,9.16.52,5.43.14,10.94.14,16.41Z"/><path class="cls-2" d="M504.48,734.15c9.62,3.74,21.22,8.19,32.76,12.78,2,.81,2.63,2.84,2,4.86-.74,2.46-3.1,2.33-4.76,1.77q-17.25-5.79-34.36-12c-1.75-.63-3.63-2.17-3.12-4.33C497.62,734.77,499.81,734,504.48,734.15Z"/><path class="cls-2" d="M654,737.55c.26,3.22-1.38,4.73-3.42,5.89Q630.88,754.74,611.09,766c-4,2.25-7.13,1.84-9.66-2.56-7.36-12.86-14.95-25.6-22.49-38.36-2.47-4.18-1.49-7.41,2.58-9.76,13.13-7.58,26.31-15.09,39.44-22.67,3.43-2,6.66-1.31,8.5,1.76,8.12,13.57,15.93,27.31,23.82,41A10.19,10.19,0,0,1,654,737.55Zm-9.46-1.94c-.71-1.09-1.8-2.63-2.75-4.27C637,723,631.6,714.88,627.62,706.13c-2.81-6.2-5.74-5.54-10.32-2.8-8.57,5.13-17.11,10.34-26,14.94-4.36,2.27-4.58,4.41-2.3,8.25,5.43,9.14,10.86,18.31,15.76,27.74,2.37,4.56,4.71,4.11,8.33,2,9.15-5.43,18.41-10.65,27.64-15.92C642.44,739.34,644.36,738.7,644.58,735.61Z"/><path d="M798.38,452.75v111H778.55V493L759,508l-16.18,12.53L726.68,508,707.17,493v70.74H687.34v-111L707.17,468l35.69,27.44L778.55,468Z"/><path d="M852.3,489.71v75.5H832.47V487.64A15.81,15.81,0,0,0,819,474.16h-4.44V454.49h4.28v.16a35.55,35.55,0,0,1,13.48,3.65,35.17,35.17,0,0,1,16,16.18,42.55,42.55,0,0,1,2.7,7.45,33.53,33.53,0,0,1,1,8.09Z"/><path d="M978.71,486.38a32.67,32.67,0,0,1-9.2,22.84A32.75,32.75,0,0,1,946,564.73h-78.2V544.91H946a13.07,13.07,0,0,0,13-13,12.92,12.92,0,0,0-12.21-13h-59V499.07h59a13,13,0,0,0-.63-26H868V453.23h78.2a32.62,32.62,0,0,1,32.67,32.67Z"/><path d="M1096.24,507.79a32.75,32.75,0,0,1-23.48,55.51h-45.52a32.58,32.58,0,0,1-30.14-20,34.5,34.5,0,0,1-2.53-12.85V485a32.09,32.09,0,0,1,8.25-21.41,33.32,33.32,0,0,1,9.51-7.46,31.42,31.42,0,0,1,14.91-3.65h69v19.83h-69a13.06,13.06,0,0,0-13,13v15.54a32.41,32.41,0,0,1,12.37-2.54h46.79a32.81,32.81,0,0,1,23,10Zm-23.63,35.69a13.07,13.07,0,0,0,13-13,12.92,12.92,0,0,0-12.21-13h-46.79a13,13,0,0,0,.63,26h45.37Z"/><path d="M1232.17,544.27V564.1H1121.45V531.42a31.45,31.45,0,0,1,2.7-12.84,32.57,32.57,0,0,1,28.87-20h48.06a13,13,0,0,0-1.11-25.85h-78.2V452.91H1200a32.62,32.62,0,0,1,32.67,32.67,32.4,32.4,0,0,1-9.36,22.68,32.94,32.94,0,0,1-22.36,10H1153a12.9,12.9,0,0,0-11.58,12.85V544Z"/></g></g></svg>