<svg xmlns="http://www.w3.org/2000/svg" viewBox="0 0 1920 1080"><defs><style>.cls-1{fill:#f2f2f2;}</style></defs><g id="Capa_2" data-name="Capa 2"><g id="Capa_1-2" data-name="Capa 1"><rect class="cls-1" width="1" height="1"/><rect class="cls-1" x="1919" y="1079" width="1" height="1"/><rect class="cls-1" y="1079" width="1" height="1"/><rect class="cls-1" x="1919" width="1" height="1"/><path d="M1682.48,502.47c-.54-22.84-9.28-31.47-32.23-31.85-24.36-.39-49.93-.41-76-.05-21.82.31-30.9,9.24-31.36,30.83-.42,19.87-.51,40.2-.26,62.17.24,21.64,9,30.25,31.21,30.69,5,.1,10.05.13,15.07.13,4.27,0,8.51,0,12.69,0,4,0,8,0,12,0h11.28c7.62,0,15.5,0,23.25,0,25.89-.27,34.32-8.72,34.69-34.79C1683.08,541.7,1683,523.05,1682.48,502.47Zm-41.71,51.21L1639.61,540l10.63-1c.81,4.86.42,8.21-1.22,10.5C1647.52,551.59,1644.81,553,1640.77,553.68Zm9.56-26.37c-5.36-.12-8.89-.28-9.89-1.57-1.18-1.52-.2-6.09,1.56-13.61C1649.23,513.84,1651.64,518.25,1650.33,527.31Zm-20.82-1.87c-.19.78-2.93,2.75-4.37,2.65s-4-2.18-4.2-3.4c-.7-3.49-.34-6.16,1.09-8.14s4-3.35,7.76-4.06c0,.9,0,1.8.07,2.69A51.62,51.62,0,0,1,1629.51,525.44Zm-.34,14.13v13.32c-2.89,0-5-.68-6.28-2-1.55-1.55-2.22-4.2-2-8.11.1-1.93.18-2,.67-2.17C1622.6,540.17,1625,539.93,1629.17,539.57Zm43.06-20.4c0,2.8-.1,5.68-.12,8.6h-10.45c2.76-14.51-6.62-20-14.94-24.93-3.82-2.25-7.43-4.37-10.08-7.25l-1.17-1.27-1.12,1.32c-2.44,2.85-6,4.91-9.75,7.09-8,4.65-17.11,9.91-14,24.23l-20.1,5.36,19.13,7.3c-2.66,13.38,6.45,19,14.52,24a54.08,54.08,0,0,1,9.12,6.52l.83.79,1-.57c1.83-1,3.82-2,5.74-2.94,4.55-2.22,9.26-4.51,12.66-8.11s5.29-8.06,7.55-13.34c.94-2.18,1.91-4.44,3-6.77l6.57-.44q.4.54.75,1a11.72,11.72,0,0,1,.75,1c0,1.8.07,3.59.1,5.38.13,6.14.27,12.48-.2,18.64-1.14,15.11-5.06,18.87-20,19.19-15.62.34-31.52.29-46.9.24q-8.67,0-17.34,0c-1.74,0-3.47,0-5.21,0-3.81,0-7.74.08-11.55-.21-13-1-17.93-5.74-18.23-17.61-.56-21.82-.56-44.45,0-67.25.31-12.32,5.75-17.94,17.65-18.23,28-.67,56.48-.66,84.52,0,11.13.27,16,5.23,16.94,17.11C1672.48,504.89,1672.36,511.83,1672.23,519.17Z"/><path d="M983.77,676.14c-14.18-9-33.54-8.25-47.07,1.91-14.07,10.56-17.67,26.88-10.41,47.18l.37,1H996.9l.3-1.15C1003.29,701.8,998.89,685.78,983.77,676.14ZM938.08,691c3.89-5,10.14-7.84,19.07-8.78v34H934.08C932.36,704.85,933.67,696.6,938.08,691Zm28.61,1.27c0-3.7,0-7.22,1-10.52,18.35,5.57,24.06,14.79,21.37,34.46h-31l1.71-1.87C966.76,706.68,966.72,699,966.69,692.22Z"/><path d="M1729.86,546.73c-.13-8.15-.36-12.41-2.55-14.84s-6.35-3-14.36-3.88a20.87,20.87,0,0,1-3.69-.85c-.74-.21-1.59-.47-2.62-.74l-1.14-.29v-1.19c0-6,0-11.92,0-17.87,0-13.32,0-27.09,0-40.62-.13-17.94-2.67-20.44-20.86-20.63-17.18-.17-34.19-.13-52.2-.09-7.81,0-15.73,0-23.82,0h-1.42l-.12-1.42c-.17-2.48-.41-4.86-.65-7.16a98,98,0,0,1-.77-13.94c1.41-35-18.5-63.39-53.25-76a1775.89,1775.89,0,0,0-237-67.92c-1.44-.31-2.87-.66-4.6-1.07l-3.22-.77-1.37-.32.2-1.39c.65-4.45.07-7.76-1.73-10.1-2.82-3.67-8.78-4.79-14.22-5.4a140.79,140.79,0,0,1-16.34-3.18c-2.59-.61-5.25-1.23-8-1.81l-26.25-3.83c-5.07-.57-10.13-1.37-15.48-2.21-2-.32-4.09-.65-6.21-1l-2.23,4-3.92,7.07-.44.79h-.9c-.66,0-1.28,0-1.88,0a27.48,27.48,0,0,1-3.64-.07l-47.89-5c-33.8-3.53-68.76-7.2-103.14-10.74-.74-.07-1.47-.16-2.21-.25-5.92-.72-11.06-1.33-14.8,3.93V261.8H965.24l-6.78-.53H886l-1.76-16.35c-2.28,0-4.57-.07-6.81-.12a151.82,151.82,0,0,0-17.46.28c-36.82,3.49-72.89,7.1-111.08,10.93l-36.66,3.66-1,.1-1.81-3c-1.27-2.15-2.91-4.9-4.93-8.29L666,254l-9.57,1.3-7.14,1.51c-6.72,1.42-13.61,2.89-20.48,4.38-5.39,1.16-8.1,1.75-9.46,3.36s-1.88,4.9-2.83,11.36l-.15,1-1,.25q-10.53,2.52-21.12,5c-14.4,3.42-29.28,6.94-44,10.49-56.36,13.61-113.61,30.91-175,52.88-42.06,15.05-57.36,36.28-58.43,81.13-.08,3.5-.36,7-.64,10.79-.13,1.75-.28,3.58-.4,5.52l-.09,1.3-1.3.12c-1.66.17-3.25.35-4.78.53a81.91,81.91,0,0,1-9.32.75l-7.58.05c-17.38.12-35.34.26-53-.11-12.48-.25-20.93,2.1-24.38,14.65l-.32,1.12H198.65c-18.91,0-38.46,0-57.58-.12a10.91,10.91,0,0,1-5-1.74c-.52-.29-1-.55-1.52-.78l-1.39.12H133q-.21,9.72-.47,19.44c-.38,15.07-.77,30.64-.82,45.94,0,10.48,5.05,12.85,5.26,12.94l.23.1,2,1.84c6.15.8,9.29,1.17,11.46-.09,2.32-1.35,4.21-4.79,8-11.64l.41-.75.85,0c9.84-.51,18.1,2,23.85,7.38,5.46,5.08,8.46,12.52,8.65,21.51.61,27.72.6,52.62,0,76.14-.34,12.55,3,20.85,11.08,27.76A217.86,217.86,0,0,1,226.8,682.8c5.7,6.6,12.31,9.3,22.74,9.3h.38c20.38-.14,41.11-.09,61.16,0,33.22.09,67.58.2,101.33-.64,21.51-.5,34.78,6.82,43,23.85l21.8,27.58c18.43,23.33,37.48,47.45,56.29,71.11,4,5.06,8.3,9.91,12.82,15,2,2.3,4.11,4.66,6.21,7.1l37.93.24,4.12-2,6.49-3.13,1-.47h.34q10.2-.12,20.39-.29c17-.26,34.61-.5,52-.51,4.72,0,9.53-.22,11.89-2.83,1.59-1.76,2.15-4.61,1.73-8.72l-.17-1.68H858.13l.74,2.2c1.9,5.7,3.88,11.65,5.79,17.43l192.43-.18c1.86-5.29,3.93-11.2,6.43-18.27l.36-1H1233.4l-.06,1.6c-.15,3.8.61,6.5,2.34,8.27,2.19,2.25,6.13,3.2,12.77,3.06,18.64-.35,38.36-.33,64,.05a53.34,53.34,0,0,1,10.92,1.72c1.59.37,3.23.75,4.83,1l.22,0L1331,834h43.06c26.09-33.06,52.66-66.62,78.35-99.08l6.63-8.38a1.29,1.29,0,0,0,0-.19,4.3,4.3,0,0,1,.63-1.62c22.34-32.57,22.92-32.87,62.43-32.87q19,0,37.92,0c36.8,0,74.85-.11,112.28.29h.64c10.72,0,17.84-3.1,23.69-10.32,4.65-5.75,9.49-11.23,15.08-17.57,2.61-2.95,5.36-6.07,8.29-9.44l9-11.16c.11-11.32.27-21.31.43-31s.33-19.91.44-31.4C1730.08,568.87,1730.05,557.57,1729.86,546.73Zm-426.93-259,1.56.36c7.9,1.82,15.83,3.52,23.48,5.16,17.09,3.67,33.25,7.13,49.37,11.85,46.66,13.69,93.86,28.36,139.52,42.56l28.5,8.87c21.13,6.56,35.14,17.73,42.83,34.13,4.19,8.95,7.72,19.08,5.25,32.45l-.34,1.84-1.74-.7c-94.92-38.44-191.58-68-295.5-90.38l-1.45-.31ZM964.51,273.22h82c1.06-5.7,1.92-10.3,3-16.11l.25-1.32,1.33.07c47.14,2.19,96,7,158.24,15.64l1.55.22-.25,1.55c-2.29,14.33-4.47,28.05-6.86,43.05l-.24,1.5-1.49-.23A1684.07,1684.07,0,0,0,966,299.8h-1.52ZM1198.76,323l-.43,3c-67.91-7.89-148.37-16.11-230.11-17.24l0-3.07C1042,303.65,1117.41,309.31,1198.76,323ZM872,254.43l3.92,18.32h82.58v26.9l-1.52,0a1688.77,1688.77,0,0,0-235.79,17.8l-1.47.21-8.43-47.05Zm83.55,51.21v3.06c-69,1.36-144.12,6.95-229.64,17.1l-.43-3C809.86,309.14,885.12,303.55,955.53,305.64ZM362.61,362.89c16.51-7.36,33.95-13.28,50.84-19l5.79-2c58-19.72,118.87-36.44,186.17-51.11,2.62-.56,5.24-.89,8.27-1.28,1.51-.18,3.12-.39,4.87-.63l1.47-.22.26,1.46c1.72,9.41,3.39,18.6,5.12,28.1l2.78,15.22-1.46.32A1760.51,1760.51,0,0,0,332.2,424.11l-1.74.7-.34-1.84C325.47,398.2,338.83,373.49,362.61,362.89ZM223.85,480.94c0-2.54,0-5.09,0-7.63v-1.56l6.61.11v55.77l-2.85-4.86c-3.74-6.38-3.71-13.1-3.69-19.59,0-1.44,0-2.89,0-4.32C223.79,492.87,223.82,486.8,223.85,480.94Zm-27.19,51c-17.47-19.64-28.31-22-52.73-11.51l-2.13.92V472.89l1.46-.07,13.83-.64,15.61-.74-2.49,2.74c-.79.87-1.57,1.71-2.35,2.55-7.89,8.52-13.59,14.68-8.19,24.46,4.49,8.12,11.12,7.82,18.79,7.48,2-.09,4-.18,6-.1,4.4.17,8.89,0,13.25-.21,1.45-.08,2.91-.14,4.36-.19l0-1.57c-5-1.92-10.3-1.68-15.91-1.41a68.91,68.91,0,0,1-10.26,0c-12.53-1.26-13.22-3.28-12.91-18.52l0-1.5h41.3l5-17.68,1.85,2.62c1,1.39,1.94,2.55,2.79,3.56,1.66,2,3,3.53,3,5.4.26,12.3.23,24.53.21,37.47q0,6,0,12.23v1.36l-1.35.17-15.33,1.87-3.4.4Zm3.88,5.88,42.6-10.54v17.45l-1.35.15-9,1-8.84,1c-.45,4.37-.94,9.11-1.76,17.09l-.41,4.1-2.36-3.37c-6.79-9.66-11.87-16.92-17.59-25.08Zm52.57,1.7,2-6.78,1.82,2.52c2.81,3.9,4.3,8.16,5.74,12.29,2.36,6.73,4.4,12.54,11.49,15.77l6.41,2.93H245.15l.58-2C248.53,554.92,250.86,547.12,253.11,539.54Zm-.77-16.64V485.61l5,.41v37.11Zm87.55,41v1.53H288l8.2-3c11.32-4.1,16.1-11.79,14.59-23.49l-.17-1.26,1.22-.4,9.78-3.18,1.36-.45-12.21-4.92.29-1.26c3.33-14.75-5.8-19.33-16.36-24.62-2.46-1.24-5-2.5-7.36-3.92l-24.66,12.43V480.66l1.09-.32c14-4.2,61.62-4.22,75,0l1.07.33v1.13C339.89,508.71,339.89,535.65,339.89,563.89ZM269.3,537.57l.19-1.32h14.7l.28,6.13c.18,3.79.37,7.77.58,12.33l.09,1.67-1.68-.07c-5.61-.23-9.47-1.71-11.81-4.51C269.12,548.76,268.37,544.25,269.3,537.57Zm-.43-13a17.39,17.39,0,0,1-.24-2.77c0-7.88,6.63-10.9,13.52-13.28l2-.71v21.73l-1.06.35a24.92,24.92,0,0,1-7.22,1.54,6.85,6.85,0,0,1-3.64-.92C270.48,529.4,269.37,527.46,268.87,524.54Zm52.67,45.9H322c3.71,0,6.33.92,8,2.71a8.23,8.23,0,0,1,2,6.4c-.16,2.88-1.65,7.71-10.08,7.59-7.07-.06-14.26,0-21.22,0-3.64,0-7.34,0-11.06,0-7.06,0-14.2,0-21.27-.21-10.48-.26-11.27-1.16-18.41-13l-2.08-3.42h2.72l20,0C288.23,570.56,304.83,570.58,321.54,570.44Zm-16.6-40.8-.26,1.21H289.82l-1.22-22.18,1.85.26c6.46.92,10.75,3,13.11,6.38S306.33,523.22,304.94,529.64Zm-1.8,22.27c-2.31,2.89-6.19,4.48-11.83,4.88l-1.57.1-.07-1.56c-.26-5.64-.52-10.88-.89-18.34l-.08-1.76,2.71.24,12.48,1.1,1.2.1.18,1.2C306.27,544.49,305.62,548.84,303.14,551.91Zm-55.67-83c-.91,10.5-1.75,20.22-2.58,29.65l-2.51,28.9L240,524.39c-5-6.47-8-39-4.61-49.75.62-1.94,2.58-3,5.27-4.5,1.34-.72,2.84-1.55,4.45-2.62l2.64-1.78Zm-4.25,82.46v14.53H228.79l-.15-1.35c-.74-6.57-1.1-9.87.78-11.85s5.17-1.82,12.36-1.41ZM596.86,790.56c-.44,2-.81,3.89-1.17,5.71a105.89,105.89,0,0,1-2.61,11.25,118.22,118.22,0,0,1-4.35,11.18c-.78,1.81-1.58,3.7-2.4,5.7l-.39,1h-1c-1.69,0-3.41.08-5.23.16s-3.79.18-5.71.18a38.35,38.35,0,0,1-7.47-.65c-5.15-1-12-3.17-15.51-7.57-17-21.26-33.79-43.2-50.05-64.43q-7.59-9.91-15.2-19.81c-2.93-3.57-6-7.2-8.95-10.73-6.88-8.17-14-16.64-20.5-25.33-8.58-11.44-19.16-16.47-34.44-16.36-25.39.2-51.19.2-76.14.18-28.93,0-58.83,0-88.23.31-12.1.15-19.67-4.92-28.27-11.54-21.31-16.42-29.55-36.34-25.94-62.69,1-7.62.78-15.35.51-23.54-.12-3.68-.26-7.5-.26-11.32v-1.94l18.74,4.47.1,1.09c.22,2.31.46,4.8.72,7.56l.67,7,3.67.29.58.05-1.33-17.59,1.37-.25c13.81-2.45,14.53-2,19.36,10.85l.58,1.52-1.55.48-11.17,3.5L230,590.89c2.59.2,5.11.36,7.64.36,34.33.06,69.84,0,105.55-.06,27.4-.07,32.66-5.3,33.13-32.92,0-1.63.19-3.25.36-4.83.07-.68.14-1.38.2-2.06-.08-4.85-.17-9.69-.26-14.55-.2-10.49-.4-21.33-.48-32-.2-23.88-4.3-28.32-29.26-31.7l-1.08-.16-.22-1.06c-.71-3.55-1.49-7.37-2.46-12.14-24.71,6.42-49.68,5.78-73.86,5.14-12.71-.32-25.87-.66-38.78,0l-1.6.09,0-1.6c0-1.66-.05-3.32-.07-5l0-1.93h71.19c22.12-.08,25.1-2.74,28.93-25.82l.15-.84.78-.33A1500.38,1500.38,0,0,1,625.88,341.3l.64,3c-6.24,1.49-12.6,2.95-18.75,4.37-13.51,3.11-27.47,6.32-41,10-40.9,11.25-82.33,23.22-122.4,34.8l-1.48.43c-24,6.94-40,19.4-48.92,38.1-3.41,7.17-7.54,18-7.8,29-.55,21.57-.17,43.55.2,64.8.14,8.08.29,16.42.38,24.64,2.07,3.66,4.07,7.45,6,11.11,4.3,8.15,8.75,16.59,14.28,23.93,22.94,30.41,46.7,61,69.69,90.6Q489.86,693,503,710l.26.31c.77.9,1.55,1.81,2.31,2.72l2.37,3.13c2.66,3.28,5.46,6.6,8.17,9.81,6,7.14,12.24,14.54,17.63,22.35,17.07,24.74,36.13,37.2,61.8,40.4l1.66.2ZM345,586.86V479.47l1.42-.11c10.48-.8,16.61.36,20.49,3.9,3.55,3.23,5.18,8.48,5.32,17,.37,21.73.21,43.63,0,62.19-.22,19.27-3.33,22.21-25.54,24.23ZM1233.4,805h-60.59c-32.4,0-65.91,0-98.89.09-10.15,0-14.76.14-17.61,2.26s-4.39,6.89-7.34,16.26l-.39,1.24h-84.2l-.09-1.44c-.8-13.53-.68-27.12-.56-40.27.12-14.06.26-28.58-.79-42.73l-2.87.09v84.22h-86.7l-.3-1.14c-.19-.68-.39-1.39-.61-2.1A42.61,42.61,0,0,1,871.1,816c-1.26-7.72-5.65-11.14-14.34-11-6.43.12-13,.06-19.29,0-4,0-7.92-.06-11.88-.05q-56.16.08-112.31.19H688.82V788.79h208.4c.19-1.69.37-3.27.56-4.78a94.14,94.14,0,0,0,.84-10.12c.06-7.9,0-15.92-.07-23.69-.11-13.81-.22-28.08.35-42.11,1.44-35.62,27.71-61.42,62.48-61.42h.18c33.67.08,60.17,25.18,61.63,58.36.58,13.26.5,26.76.41,39.81,0,7.38-.1,15,0,22.52,0,4.56.33,9,.68,14.21.14,2,.28,4.16.42,6.41H1233.4Zm85.21-27.17h-1.32V817.7h-72V778.29H1035.13V720.86c-.08-1.1-.17-2.18-.27-3.27-.2-2.31-.41-4.68-.49-7.05-1.28-39.11-22-64.58-59.91-73.63-10-2.9-22.87-.66-23-.63-38.16,5.6-63.09,35.44-63.58,76.05,0,2-.25,4.06-.46,6-.1.87-.2,1.74-.28,2.62v56.78H885.6l-17,0c-12.62,0-25.68,0-38.57,0-12.63-.08-25.48-.24-37.9-.41l-16.9-.21H678.91c-.56,7.86-1.08,15.18-1.58,22.25L676.2,815.2l-.55.43a11.36,11.36,0,0,0-1,.93c-1,1-2.09,2-3.54,2-12.63.11-25.19.13-38.18.13H608.16l-.09-1.45c-.69-13.23-1.34-25.66-2-38.37l-4.21-.53c-3.51-.43-6.55-.8-9.6-1.34-16-2.93-28-9.33-36.69-19.59-6.67-7.92-12.89-16.42-18.91-24.63-2.64-3.6-5.38-7.33-8.1-10.95L502,688.43c-20.17-25.4-41-51.66-61.48-77.52-6.64-8.41-13.32-17-19.78-25.33q-5-6.44-10-12.87a66,66,0,0,1-14.53-44.32c.4-12.39.31-25,.23-37.21,0-6.5-.09-13.22-.06-19.84.14-34.82,14.73-55.18,47.29-66A1626.21,1626.21,0,0,1,625.4,356.12c3.57-.75,7.12-1.72,11.21-2.85,1.76-.48,3.61-1,5.6-1.52-4.39-25.9-8.62-50.83-13.1-77.24l-.25-1.42,1.41-.33,19.16-4.43,9.2-2.14.53,1.09c1.94,3.91,3.79,7.63,6.57,13.25l2.09-15.85,1.15-.16,14.76-2.11,14-2,.26,1.44c4.84,25.44,9.63,50.61,14.76,77.61,79.08-9.71,160.84-19.68,246.23-18l6.5,0c80.3-1.74,158.39,7.09,244.72,18l4-21.39c3.51-18.6,7-36.88,10.55-56l.26-1.41,30.85,3.78v15.14l.94-.26a12,12,0,0,0,1.83-.55,78.85,78.85,0,0,0,2.92-7.85c.38-1.15.78-2.34,1.2-3.55l.45-1.28,1.31.28,22.27,4.72,7.07,1.5-13.37,79.24c4.67,1.1,9.24,2.13,13.69,3.13,10.72,2.43,20.86,4.72,31,7.52l11.81,3.27c47.89,13.28,97.42,27,145.9,41.29,26.05,7.68,41.32,26.46,43,52.87,1.46,23.41,1.4,48.7-.2,79.6a52.54,52.54,0,0,1-10.39,27.82c-30.36,39.48-61.72,79.24-92,117.69q-14.7,18.66-29.41,37.33c-3.92,5.54-7.87,11.13-11.81,16.72C1368.36,758.38,1350.23,777.85,1318.61,777.85ZM1718.12,638.5c-.51,5.91-3.12,10.74-6.77,15s-8.3,8-12.89,11.58a98.77,98.77,0,0,0-11.45,10c-3.53,3.83-10.79,5.6-16.42,5.65-31.29.31-63.11.28-93.88.26L1546,681q-8.09,0-16.18,0c-10.57,0-21.51.08-32.27,0h-.47c-12.46,0-21.83,4.7-29.47,14.76-7.21,9.51-15,18.86-22.46,27.9q-4.94,5.94-9.84,11.93-8.9,11.58-17.86,23.22c-14.46,18.8-29.42,38.25-44,57.45-6.06,8-13.47,9.38-21,9.38-2.08,0-4.16-.12-6.22-.22a81.4,81.4,0,0,0-9.24-.12l-1.2.07-10.49-34.83,1.44-.45c1.87-.58,3.51-1.12,5-1.6,3.08-1,5.51-1.79,8.06-2.47,16.67-4.43,30.23-13.51,41.43-27.75,7.75-9.83,15.73-19.75,23.46-29.33l9.95-12.38,16.29-21.14c16.28-21.13,33.12-43,49.73-64.43q3.72-4.8,7.43-9.62c9.3-12.09,18.92-24.59,28.91-36.46,13.93-16.52,20.73-35.38,20.8-57.66,0-7.33.08-14.67.13-22,.09-11.44.19-23.27.15-34.89-.1-25.9-10-47.29-29.47-63.62-34-16.72-71.14-26.61-107-36.17l-4.53-1.2c-19.66-5.25-39.83-10-59.34-14.51-10.11-2.36-20.56-4.8-30.83-7.28a18.4,18.4,0,0,1-11.17-7.08l-2.49-3.39,4.08,1c7.75,1.88,15.66,3.71,23.3,5.48,16.94,3.91,34.43,8,51.41,12.83,34.46,9.86,69.32,20.53,103,30.83q15.78,4.83,31.57,9.64a38.23,38.23,0,0,1,6.55,2.93c.93.49,1.85,1,2.79,1.41l20,7.15,56.45,20.11.88.31.13.91c.2,1.45.35,2.79.5,4.07a46,46,0,0,0,1,6.62c3.13,12,8.15,15.93,20.69,16.11,14.82.2,29.88.16,44.46.12q9.77,0,19.55,0h15v19.14c0,13.13,0,25.82,0,38.52,0,22.28.26,22.52,22.93,26.24l1.29.21V542c0,9.35.17,18.89.33,28.12C1719.61,592.57,1720,615.78,1718.12,638.5Z"/><path class="cls-1" d="M1525.61,539.61a52.54,52.54,0,0,1-10.39,27.82c-30.36,39.48-61.72,79.24-92,117.69q-14.7,18.66-29.41,37.33c-3.92,5.54-7.87,11.13-11.81,16.72-13.59,19.21-31.72,38.68-63.34,38.68h-1.32V817.7h-72V778.29H1035.13V720.86c-.08-1.1-.17-2.18-.27-3.27-.2-2.31-.41-4.68-.49-7.05-1.28-39.11-22-64.58-59.91-73.63-10-2.9-22.87-.66-23-.63-38.16,5.6-63.09,35.44-63.58,76.05,0,2-.25,4.06-.46,6-.1.87-.2,1.74-.28,2.62v56.78H885.6l-17,0c-12.62,0-25.68,0-38.57,0-12.63-.08-25.48-.24-37.9-.41l-16.9-.21H678.91c-.56,7.86-1.08,15.18-1.58,22.25L676.2,815.2l-.55.43a11.36,11.36,0,0,0-1,.93c-1,1-2.09,2-3.54,2-12.63.11-25.19.13-38.18.13H608.16l-.09-1.45c-.69-13.23-1.34-25.66-2-38.37l-4.21-.53c-3.51-.43-6.55-.8-9.6-1.34-16-2.93-28-9.33-36.69-19.59-6.67-7.92-12.89-16.42-18.91-24.63-2.64-3.6-5.38-7.33-8.1-10.95L502,688.43c-20.17-25.4-41-51.66-61.48-77.52-6.64-8.41-13.32-17-19.78-25.33q-5-6.44-10-12.87a66,66,0,0,1-14.53-44.32c.4-12.39.31-25,.23-37.21,0-6.5-.09-13.22-.06-19.84.14-34.82,14.73-55.18,47.29-66A1626.21,1626.21,0,0,1,625.4,356.12c3.57-.75,7.12-1.72,11.21-2.85,1.76-.48,3.61-1,5.6-1.52-4.39-25.9-8.62-50.83-13.1-77.24l-.25-1.42,1.41-.33,19.16-4.43,9.2-2.14.53,1.09c1.94,3.91,3.79,7.63,6.57,13.25l2.09-15.85,1.15-.16,14.76-2.11,14-2,.26,1.44c4.84,25.44,9.63,50.61,14.76,77.61,79.08-9.71,160.84-19.68,246.23-18l6.5,0c80.3-1.74,158.39,7.09,244.72,18l4-21.39c3.51-18.6,7-36.88,10.55-56l.26-1.41,30.85,3.78v15.14l.94-.26a12,12,0,0,0,1.83-.55,78.85,78.85,0,0,0,2.92-7.85c.38-1.15.78-2.34,1.2-3.55l.45-1.28,1.31.28,22.27,4.72,7.07,1.5-13.37,79.24c4.67,1.1,9.24,2.13,13.69,3.13,10.72,2.43,20.86,4.72,31,7.52l11.81,3.27c47.89,13.28,97.42,27,145.9,41.29,26.05,7.68,41.32,26.46,43,52.87C1527.27,483.42,1527.21,508.71,1525.61,539.61Z"/></g><g id="Capa_3" data-name="Capa 3"><path d="M797.38,436.92V548H777.56V477.21l-19.51,14.91-16.18,12.53-16.18-12.53-19.51-14.91V548H686.35v-111l19.83,15.23,35.69,27.44,35.69-27.44Z"/><path d="M851.31,473.88v75.5H831.48V471.81A15.81,15.81,0,0,0,818,458.33h-4.45V438.66h4.29v.16a35.55,35.55,0,0,1,13.48,3.65,35.17,35.17,0,0,1,16,16.18,42.55,42.55,0,0,1,2.7,7.45,33.53,33.53,0,0,1,1,8.09Z"/><path d="M977.72,470.55a32.67,32.67,0,0,1-9.2,22.84A32.75,32.75,0,0,1,945,548.9H866.85V529.08H945a13.07,13.07,0,0,0,13-13,12.92,12.92,0,0,0-12.21-13h-59V483.24h59a13,13,0,0,0-.64-26H867V437.4H945.2a32.63,32.63,0,0,1,32.68,32.67Z"/><path d="M1095.25,492a32.75,32.75,0,0,1-23.48,55.51h-45.52a32.58,32.58,0,0,1-30.14-20,34.5,34.5,0,0,1-2.54-12.85V469.12a32.14,32.14,0,0,1,8.25-21.41,33.5,33.5,0,0,1,9.52-7.46,31.42,31.42,0,0,1,14.91-3.65h69v19.83h-69a13.07,13.07,0,0,0-13,13V485a32.48,32.48,0,0,1,12.37-2.54h46.8a32.81,32.81,0,0,1,23,10Zm-23.64,35.69a13.07,13.07,0,0,0,13-13,12.92,12.92,0,0,0-12.21-13h-46.8a13,13,0,0,0,.64,26h45.36Z"/><path d="M1231.49,470.55a32.67,32.67,0,0,1-9.2,22.84,32.75,32.75,0,0,1-23.48,55.51h-78.19V529.08h78.19a13.07,13.07,0,0,0,13-13,12.92,12.92,0,0,0-12.21-13h-59V483.24h59a13,13,0,0,0-.64-26h-78.19V437.4H1199a32.63,32.63,0,0,1,32.68,32.67Z"/></g></g></svg>