<svg xmlns="http://www.w3.org/2000/svg" viewBox="0 0 1920 1080"><defs><style>.cls-1{fill:#f2f2f2;}.cls-2{fill:#010101;}</style></defs><g id="Capa_2" data-name="Capa 2"><g id="Capa_1-2" data-name="Capa 1"><rect class="cls-1" width="1" height="1"/><rect class="cls-1" x="1919" y="1079" width="1" height="1"/><rect class="cls-1" y="1079" width="1" height="1"/><rect class="cls-1" x="1919" width="1" height="1"/></g><g id="Capa_3" data-name="Capa 3"><path class="cls-2" d="M1690.39,510.23q-.44-54.78-.4-109.57l-5.91-5.38c-3.27-3.62-8.95-5.69-9-11.23,0-6.58-3.39-7.42-8.55-7.4q-45.84.18-91.65.24c-1.7,0-4.66-.06-4.87.63-2.81,8.54-9.89,4.75-15,5-13.39.72-13.42.39-13.64-13.56-.88-50.63-29.52-89.21-78-104.64-26.6-8.46-53.58-15.66-80.73-22.12-4.89-1.17-7.47-2.66-5.11-7.92,3.33-7.39-.14-9.91-7.11-11.44-32.26-7.07-64.48-14.31-96.58-22-8.28-2-11.63.67-11.95,8.57-.26,6.72-3.15,8.45-10,7.16-29.14-5.57-58.63-8.89-88.12-11.89-65-6.62-130.21-11.56-195.65-10.73,0,0-13.73-.05-18.32,0-91.54,1-148.67,6.15-148.67,6.15-19.9,2.14-37.64,4.15-55.38,6-26,2.68-52,6-77.78,10.65-6.68,1.22-8.84.05-9.89-6.84,0,0-1.1-4.06-1.85-8s-9-1.2-9-1.2c-7.32,1.75-14.62,3.6-22,5.24-25.23,5.71-50.44,11.5-75.74,16.9-7,1.49-10.52,4.15-7.14,11.5,2.14,4.7,1.23,6.53-4.34,7.82-28,6.5-55.79,14-83.13,22.9-47.29,15.41-75.1,53.48-76.27,103.16,0,2-.26,4-.14,6,.38,6.17-2.41,9.39-8.57,8.41-6.89-1.1-15.29,4-20.53-4.9-.64-1.06-3.74-.88-5.69-.88-30.25-.08-60.49-.06-90.74-.17-4.46,0-7.68.59-7.82,6.23-.13,6.18-6.27,8.29-8.91,12.94l-6.7,10v98.67c0,14.23,1.9,27.8,9.82,40,5.62,3.93,6.24,9.81,6.22,15.94,0,16.56.26,33.12-.07,49.66-.12,6.08,1.32,8.48,8,8.41q44.52-.54,89.07,0c7,0,9.62-2.16,9.36-9.32-.44-12.53,0-25.11-.19-37.66-.08-4.47,1.38-5.81,5.92-5.81,15.47,0,16.74,1,16.71,16.25q-.1,40.65-.34,81.29c-3.45,24.85,8.93,41.14,28.16,54.73,13.14,9.29,25,20.48,37.36,30.83,7.68,6.09,15.19,12.43,23.11,18.17,4.18,3,3,5.25.34,8.2-5.93,6.56-11.42,13.54-17.67,19.77-5.56,5.54-5.32,9.91.48,14.92l98.5,85.75c3.69,3.34,6.65,3.49,10-.57,5.79-7,12.24-13.56,17.77-20.79,3.33-4.35,6.91-6.26,12.31-5.57,20.84,2.64,40.31-2.26,60-9.12a556.82,556.82,0,0,1,101.76-24.89,741.35,741.35,0,0,1,116.32-12.95c9.35-.38,18.76-.29,28-1.29,6.79-.7,8.76,1.77,7.71,8-1.32,7.73,2.4,9.81,9.63,9.59H1010.9c8.79.36,12.17-2.54,10.85-11.09-.69-4.56.6-6.57,5.87-6.43,18.26.5,36.51.82,54.7,2.59,48.76,2.89,96.75,10.9,144.18,22.36,22.14,5.37,44.08,11.45,65.3,19.77,11.84,4.64,23.91,4.54,36.18,4,4.91-.23,8.47-3.06,12-6q72.75-59.7,145.53-119.38a5.56,5.56,0,0,1,1.58-.63c14.59-12.15,29-24.48,43.81-36.37,10.32-8.3,14.91-18.89,15-31.85.11-11.33.35-22.66.52-34-.11-22.23-.12-44.48-.4-66.73-.07-5.43,2.23-7.92,7.44-8.11a71.3,71.3,0,0,0,8.55-.37c5.58-.88,6.72,1.66,6.6,6.7-.31,12.54.26,25.12-.25,37.67-.26,6.41,1.8,8.47,8.12,8.43q45-.3,89.93,0c6.19,0,8.54-2,8.42-8.47-.31-17.1.1-34.24,0-51.37,0-4.78.94-8.93,4-12.68C1687.22,535.6,1690.49,523.57,1690.39,510.23ZM244.78,520l-1.15-.1V411c.38,0,.77,0,1.15,0Zm100.47,85.8c.09,4.77-2,5.78-6.12,5.76q-40.67-.08-81.32.16c-3.81,0-5.76-.71-5.66-5.13.43-18.24.58-36.47.84-54.73-.12-16.5-.14-33-.45-49.51-.07-4.1,1.25-5.32,5.35-5.3q41,.24,82.05,0c4.08,0,5.42,1.31,5.33,5.4-.34,15.36-.39,30.73-.55,46.11C344.88,567.65,344.89,586.75,345.25,605.82Zm0-120.83c0,4.71-1.8,5.65-6.05,5.64-26.79-.16-53.6-.28-80.39.05-5.64.07-6.55-2-6.48-6.88.26-15.66.11-31.34.11-47h.12c0-15.95.15-31.91-.11-47.87-.07-4.11.91-5.26,5.13-5.23q41.49.31,83,0c3.76,0,4.84.91,4.82,4.7Q345.05,436.67,345.22,485ZM669.16,229.86c53.49-8.65,107.35-14.21,161.34-18.1a1838,1838,0,0,1,202.73-3c36.49,1.39,72.88,4.08,109.21,7.52,36.87,3.5,73.57,8.33,110.21,13.73,2,.28,4.61.31,3.84,3.17-.89,3.4-1.23,7.8-6.17,8-2.52.14-5.07-.75-7.61-.73-4.73,0-9.46-2.47-13.61,3.51-2.36,3.39-8.6.6-12.94-.12s-.56-3.46-.53-5.26c0-2.25-1.2-3-3.1-3.21-10.17-1.3-20.33-2.69-30.51-3.85-2.06-.23-4.92-1-5.62,2.19-.53,2.35,2.33,7.27-3.6,5-4.1-1.54-12,3.86-11.84-6.19.06-3.7-3.06-3.41-5.63-3.51-9.41-.34-18.82-.72-28.23-1-2.74-.09-5.1-.78-6,3.7-.69,3.44-13.32,2.59-14.3-1.22-1.18-4.59-4-5.09-7.47-5.19-9.41-.28-18.87-1-28.21-.28-4.8.36-7.94,7.32-14.28,4.78-1.49-.58-4.39.23-4.58-1.38-.94-8.25-7.11-5.33-11.6-5.69-6.26-.52-12.53-.71-18.8-.95-3.74-.13-6.69-.78-9.84,3.77s-11.4,3.52-14.52-.18c-3.58-4.27-7-3.84-11.09-4l-55.24,0c-3.65,0-6.56.57-9.84,3.45-4,3.51-10.11,5.65-14.07-1.38-1.71-3-4.46-1.95-6.84-1.88q-12.82.43-25.64,1.2c-2.38.14-4.92-.53-6.58,2.59-2.81,5.28-10.16,6.54-13.82,2-2.27-2.81-4.42-2.9-7.28-2.83-7.71.2-15.43.1-23.1.5-4.15.22-9.24-1.15-10,6.05-.33,3.12-14.48,3.65-15.62.34-1.56-4.63-4.64-3.46-7.43-3.43-8.57.12-17.13.53-25.68.81-3.67.12-7,.17-5.66,5.67.84,3.36-2.34,3.38-4.45,3.68-4.75.67-9.55,1.08-15.31,1.7,1.22-2.81,4.49-4.75,2.81-7.44s-4.73-1.08-7-.82c-9.34,1.06-18.63,2.45-27.94,3.75-1.7.24-4,.71-3.75,2.64.41,2.95,2.77,6.59-2.78,6.14-3.92-.33-9.44,5.48-11.79-2.81-.7-2.5-3.88-1.9-6.07-1.66-4.25.46-8.45,1.42-12.7,1.71-5.07.36-5.71-3.87-6.6-7.4C662.75,229.16,666.56,230.29,669.16,229.86ZM551.7,887.67c-1.51,1.73-3.07,2.5-5.05.72L452.86,806.5c-3.26-2.76-4.17-4.39-.86-8.08,12.39-13.74,24.46-27.8,36.46-41.89,3.66-4.28,6.44-8.17,9.15.66,1.51,4.91,6.25,7.28,10.15,10.06,29,20.7,54.52,45.69,82.3,67.92,3.19,2.56,3.65,4.65.65,7.47Zm9.41-113.76c9.89,5.09,18.74,9.46,29.17,5.93,11.38-3.85,19.63-10.69,22-22.74,2.47-12.5-1.15-23.5-11.65-31-10-7.13-21.34-8.47-32.19-2-7.51,4.47-7.73,1.18-7.22-5,.24-2.93.91-7.39-3.39-7.32-3.6.05-2.88,4.37-2.71,7,.82,12.6-4.64,25.07-2.11,37.35,2.25,10.81,1.13,21.45,1.84,32.15.1,1.56.73,3.39-1.74,5.42q-21-18.67-42.33-37.52c-13.56-9.31-13.58-9.31-3.29-21q16.07-18.28,32.19-36.52c1.52-3.3,4.57-2.78,7.37-3,11.93-.93,23.87-1.75,35.78-2.93,6.6-.66,11.66.7,16.8,5.74,10.17,10,21.22,19,32.31,28,4.85,3.92,7.23,8.33,7.54,14.41q.93,18.36,2.42,36.68a13.42,13.42,0,0,1-3.58,10.87q-16.05,17.79-31.71,35.92c-3.07,3.57-6.43,4.51-10.59,2.8-13.56-5.57-24.34-15.38-33.07-26.4C557.74,794.1,562.19,783.75,561.11,773.91Zm-1.49-20.48c.55-16,9.07-26.53,21.61-26.63,13.54-.11,24.79,10.85,24.69,24-.11,12.69-11,23.61-23.37,23.43C570.66,774.09,559.26,763.73,559.62,753.43Zm338.75,51.15c-1.45,3.73-4.81,2.4-7.4,2.4a794.47,794.47,0,0,0-87.91,5.29c-16.68,1.91-33.3,4.34-49.95,6.52-28.09,6.1-56.46,10.91-84.05,19.06-15.82,4.67-31.61,9.56-47.19,15-8.62,3-17.33,3-26.14,3.17-5.24.11-5.19-2.29-2.33-5.6,3.91-4.54,8-8.9,11.81-13.52,3.19-3.93,7.36-2,11.13-2.37,2-.19,4.2,0,4.64-2.64.41-2.4-1.47-2.69-3.14-3.08-5.38-1.24-2.7-3.52-.75-5.73,8.52-9.58,16.9-19.3,25.59-28.74,4.7-5.11,7-10.42,6.2-17.66-1.3-12.46-1.57-25-2.34-37.55-.31-5.16-1.19-10.16-4.75-14.26C629,714,616,703.4,603.53,692.14c-5.82-5.28-11.72-7-19.4-6.12-22.59,2.66-22.49,2.43-22.88-19.49-.07-3.46,2.31-9.87-2.71-9.89-5.91,0-2.62,6.62-3.5,10.29a23.57,23.57,0,0,0-.15,5.12c-.17,16-.17,16-16.28,17.23C519.8,710.7,500.88,732,482.29,753.64c-4.56,5.31-7.43,6.29-13.43,1.15C447.2,736.26,425.21,718,402.6,700.68c-11.1-8.56-15.25-18.4-14.84-32.23.86-29.36.38-58.75.36-88.13,0-4.27-.51-8.54-.79-12.8-.43-1.43-.84-2.85-1.27-4.27-6.44-10-16.14-12-26.94-10.78-5.52.61-7.32-1.1-7.3-6.86q.3-71.88,0-143.77c0-4.56,1.27-6.1,5.79-5.72a124.8,124.8,0,0,0,13.68.13c13.51-.41,20.72-7.19,20.76-20.77.05-14.67,1.16-29.1,6.89-42.71C410.44,305.5,430.42,287,458.6,278c27.1-8.69,54.66-15.81,82.18-23,6.6-1.73,8.25,1,7,6.09-1.63,6.55-4.42,13.16-11.21,15.87-2.64,1.06-9.14,7-8.93-3.19,0-2.28-2.5-1.49-4.15-1.11q-15,3.47-29.94,6.89c-2,.48-3.79,1.2-3.89,3.75-.1,2,5.09,4.06.19,5.81a115.22,115.22,0,0,1-13.65,3.5c-.42.08-1.68-1.1-1.61-1.56,1.55-11.18-5.83-4.46-8.72-3.82-8.3,1.85-16.63,4-24,8.65-2.07,1.32-5.19,2.73-3.68,5.8,1.64,3.32,4.52,1.11,6.7.18,5.06-2.14,9.77-5.33,15.92-5.82-1.11,4.13-4.32,4.71-6.56,6.22-19.73,13.25-31.52,31.47-32.29,55.33-1.12,34.76-2.44,69.65.34,104.31,2.91,36.49,31.61,61.43,68.29,62.35,10.54.28,21.15.65,31.65,0,28.78-1.84,60.34,18.39,65.22,53.51,2.47,11.51.89,23.2,1.1,34.79.41,23,8.62,35.1,30.18,43.12,10.13,3.78,20.09,7.84,28.61,14.73,25.89,17.81,38.18,43.29,42.3,73.72,3.65,26.91,18.32,45.33,44.2,54.35,4,1.37,8.11,1.78,10.27,6.48,1.18,2.55,4.63,1.3,7.11,1.32,11.62-2.54,23.41-3.81,35-7.27,11-3.33,23.56,1.68,34.72-2.23,21-7.35,42.82-1.56,64-5a31.6,31.6,0,0,1,4.25-.25C894.46,791.33,900.31,799.66,898.37,804.58Zm116.52,1.13c-.14,6.55-.45,13.13,0,19.64.32,4.77-1.47,5.85-5.79,5.74-13.39-.31-26.78-.32-40.15-.44-19.31.13-38.65.1-58,.53-5.31.12-6-2-5.79-6.55.34-7.08.28-14.19,0-21.29-.5-13.85-9-22-22.8-21.85-7.64.09-15.29.7-22.93,1.08q-49.44,5.83-98.91,11.62c-4.75.55-9.6,1.35-14.28-.63-23.16-1.27-46.59-23.21-49.35-48.2-4.64-41.86-25-72.43-62.3-91.85-5.61-2-11.3-3.84-16.82-6.09-14.43-5.84-22-16.54-22.07-32.27,0-6.26.19-12.51.27-18.77-1-7.34-.25-14.74-1.64-22.13-3.34-17.69-12-32-26.38-42.47-5.37-3.91-7.25-7.95-6.81-14.23.47-6.53.18-13.13,0-19.67,0-2.37,1-6-2.66-6.17-4.39-.24-3.37,3.87-3.49,6.37-.31,6.57-.16,13.13-.24,19.7,0,2.45.53,6-3.81,4.23-17.64-7-36.08-3.89-54.21-4.58-7.72-.29-15.45-.36-22.8-2.84-27.35-9.26-43.84-28.4-45.32-57.08-1.73-33.85-2.62-67.94.5-101.76,2.55-27.85,18.73-46.38,45.27-55.43,7.25-2.47,15-3.56,22.21-6,19.75-6.75,42.78-4.82,58.07-23.4,0,11.47,0,21.6,0,31.73a53.26,53.26,0,0,0,.44,6.79c.24,1.78,1.15,3.44,3.16,3.51,2.88.09,2.86-2.26,2.81-4.23-.29-11.37,1.71-22.88-1-34.06-1.12-4.58.8-4.66,3.89-5.3,5-1,10-2.22,14.89-3.66,1.94-.57,3.58-2.13,2.69-4.56-.77-2-2.81-1.91-4.4-1.58-5.3,1.06-10.73,1.85-15.75,3.7-5.64,2.11-6.67.16-7.27-5.11a142.76,142.76,0,0,0-4.39-21.69c-1.28-4.68-.19-6.72,4.49-7.73,30-6.57,60-13.17,89.93-20.06,5.15-1.18,7-.41,7.89,5.07,1.61,9.77,4.23,19.36,6.48,29.3-1.94.37-3.91.61-5.78,1.15s-2.54,2.21-2.47,4c.11,2.52,2.15,2,3.76,2.3,24.13,4.14,48,.72,72-2.27,42.47-5.26,85.1-8.75,127.79-11.34,23.66-1.44,47.33-2.26,71-3.36l67.91-.07c50.18,1.63,100.32,4.3,150.28,9.39,31.18,3.19,62.29,7.13,93.46,10.29,10.46,1.06,20.56-4.8,31.27-2.78,1.59.31,2.57-.82,2.62-2.55a3.43,3.43,0,0,0-3.7-3.81c-6.46,0-5.5-2.93-4-7.57a184.24,184.24,0,0,0,5.57-24.07c.72-4.2,2.08-5.14,6.11-4.22Q1320,218.76,1365.81,229c4.9,1.08,5.67,2.84,4.35,7.47a128.2,128.2,0,0,0-4.55,21.68c-.64,5.85-2.94,6.31-7.74,4.83-4.33-1.33-8.91-1.9-13.36-2.82-2.15-.45-4.94-1.94-5.8,1.2s2,4.18,4.6,4.81c4.4,1,8.75,2.35,13.21,3.23,3.41.66,4.06,1.64,3.74,5.62-.91,11-.55,22.19-.67,33.3,0,2,.19,4.61,2.42,4.95,3.18.48,3.49-2.7,3.61-4.73.7-11.91,1.1-23.84-1.37-37.26,21.89,20.29,49.78,19.39,74.64,26.76,32.16,9.53,52.25,32.77,52.68,66,.39,30.25.49,60.5,0,90.75-.56,32.72-23.67,57.66-56.15,61.72-13.08,1.65-26.22.74-39.35.91-8.33.1-16.58.53-24.37,3.67-5.25,2.09-6.3.46-5.88-4.78a179.11,179.11,0,0,0-.11-19.66c-.06-2.2-.22-5.09-3.39-5-3.41.1-2.54,3.12-2.69,5.21a36.19,36.19,0,0,0,0,6c1.22,14,.69,26.74-14.38,34.63-6.67,3.48-9.61,11.75-14.17,17.94-8.26,19.22-6.93,39.63-7,59.77,0,16.42-7.82,27-22.64,32.6-13.39,5-26.19,11-37.85,19.33-23.29,19.68-36,44.55-39.88,75-4.56,35.63-33.2,56.42-68.68,51.83q-36.48-4.71-72.92-9.47c-13.91-1-27.8-2.45-41.71-2.93C1022.67,780.91,1015.28,788.23,1014.89,805.71Zm553.77-260.1c0,5.59-1.44,7.87-7.13,7.23a51.05,51.05,0,0,0-9.41.16c-12.53.94-19.52,8.4-19.64,21.17-.28,29.08-.41,58.17-.6,87.26,0,1.18,0,2.36,0,3.54,0,4,0,8-.07,12,.81,7.51-2.53,13.32-8,17.84-12.51,10.27-25.23,20.32-37.84,30.46Q1408.55,789,1331.12,852.59c-8.76,7.16-19.47,4.69-28.64,1.4-53.36-19.14-108.32-31.21-164.32-39-18.63-2.6-37.4-4.25-56.1-6.32-18.43-.55-36.85-1.17-55.28-1.61-3.37-.07-5.84-.76-4.91-4.72,1.09-4.67.65-10.91,7.88-11,4.51,0,9,.94,13.56,1.21,9,.55,17.93,1.84,27-.72,6.55-1.85,12.81,1.08,18.8,3.76,11.87,1.47,23.62,3.22,35.72,2.21,11.25-.94,21.17,6.22,32.36,6.6a14.61,14.61,0,0,1,5.06.84c10,4.06,16.49-4.46,24.56-7.06,12.75-4.13,23-12.12,31.21-22.85,8.06-10.56,11.88-22.57,13.15-35.57,4.06-41.83,37.59-75.29,66.37-82.1,3.29-1.49,6.61-2.93,9.87-4.5,14.81-7.08,23.39-18.29,23.67-35.21.22-12.75-.79-25.54.89-38.24,1.46-11.1,4.63-21.49,12.41-30,11.29-17.05,28-24.13,47.65-25.31,15.65-.93,31.36.92,47-1.3,33.06-4.72,58.81-32.69,59.43-65.91.54-28.23-.42-56.49.41-84.72.91-31.54-9.1-56.8-38.62-73.22,3.43-.94,5.54-.93,8,.58,2.31,1.41,5.21,1.84,7.73,2.93s4.81,1.15,5.93-1.26-1.48-3.42-3-4.48c-9.72-7.08-21.36-9-32.5-12-3.61,1.47,1.07,6.73-2.43,6.75-5,0-10-1.61-15-2.93-1.67-.45-1.32-2.35-.23-3.5,3.31-3.44-.08-4.76-2.16-5.33-10.16-2.76-20.43-5.14-30.66-7.59a3.1,3.1,0,0,0-3.72,1.27c-1.06,1.8,1.72,6.22-2.91,5.34-4.05-.75-8.47-1.79-11.18-5.51a53.32,53.32,0,0,1-3.75-6.69c-1.89-3.6-3.89-8-1.75-11.33,2.64-4.06,6.91-.15,10.06.64,27.6,6.9,55.16,14,82.07,23.27,37,12.75,61.19,45.54,62.82,84.35,1.26,30.21,3.53,32.6,33.54,32.27,6.08-.07,7.54,1.56,7.5,7.51Q1568.32,474.58,1568.66,545.61Zm6.63-155.75c0-4.61.74-6.27,5.92-6.22,27.08.31,54.16.27,81.24,0,4.59-.05,5.69,1.18,5.62,5.62-.27,16.25-.1,32.5-.1,48.74,0,15.4-.29,30.79.12,46.16.14,5.52-1.71,6.51-6.79,6.46-26.22-.25-52.45-.34-78.67,0-6.17.09-7.51-1.76-7.44-7.61C1575.5,452,1575.47,420.92,1575.29,389.86Zm92.78,215.36c0,4.61-.82,6.55-6,6.52q-40.18-.36-80.4,0c-5.45.07-6.6-1.76-6.51-6.86.32-16.81.12-33.62.12-50.44h.07c0-16.25.25-32.49-.12-48.73-.14-6.24.9-8.89,8.19-8.75,25.93.49,51.88.29,77.83,0,5,0,6.89.87,6.86,6.46C1667.83,537.4,1667.9,571.32,1668.07,605.22Zm8.52-85.15-1.3.17V411.06h1.3Z"/><path class="cls-1" d="M1491.57,364.07c-.43-33.27-20.52-56.51-52.68-66-24.86-7.37-52.75-6.47-74.64-26.76,2.47,13.42,2.07,25.35,1.37,37.26-.12,2-.43,5.21-3.61,4.73-2.23-.34-2.44-2.91-2.42-4.95.12-11.11-.24-22.26.67-33.3.32-4-.33-5-3.74-5.62-4.46-.88-8.81-2.18-13.21-3.23-2.63-.63-5.49-1.52-4.6-4.81s3.65-1.65,5.8-1.2c4.45.92,9,1.49,13.36,2.82,4.8,1.48,7.1,1,7.74-4.83a128.2,128.2,0,0,1,4.55-21.68c1.32-4.63.55-6.39-4.35-7.47q-45.81-10.14-91.47-20.85c-4-.92-5.39,0-6.11,4.22a184.24,184.24,0,0,1-5.57,24.07c-1.45,4.64-2.41,7.57,4,7.57a3.43,3.43,0,0,1,3.7,3.81c-.05,1.73-1,2.86-2.62,2.55-10.71-2-20.81,3.84-31.27,2.78-31.17-3.16-62.28-7.1-93.46-10.29-50-5.09-100.1-7.76-150.28-9.39l-67.91.07c-23.65,1.1-47.32,1.92-71,3.36-42.69,2.59-85.32,6.08-127.79,11.34-23.93,3-47.82,6.41-72,2.27-1.61-.28-3.65.22-3.76-2.3-.07-1.83.55-3.48,2.47-4s3.84-.78,5.78-1.15c-2.25-9.94-4.87-19.53-6.48-29.3-.89-5.48-2.74-6.25-7.89-5.07-29.92,6.89-59.92,13.49-89.93,20.06-4.68,1-5.77,3.05-4.49,7.73a142.76,142.76,0,0,1,4.39,21.69c.6,5.27,1.63,7.22,7.27,5.11,5-1.85,10.45-2.64,15.75-3.7,1.59-.33,3.63-.46,4.4,1.58.89,2.43-.75,4-2.69,4.56-4.9,1.44-9.89,2.62-14.89,3.66-3.09.64-5,.72-3.89,5.3,2.72,11.18.72,22.69,1,34.06,0,2,.07,4.32-2.81,4.23-2-.07-2.92-1.73-3.16-3.51a53.26,53.26,0,0,1-.44-6.79c0-10.13,0-20.26,0-31.73-15.29,18.58-38.32,16.65-58.07,23.4-7.25,2.47-15,3.56-22.21,6-26.54,9.05-42.72,27.58-45.27,55.43-3.12,33.82-2.23,67.91-.5,101.76,1.48,28.68,18,47.82,45.32,57.08,7.35,2.48,15.08,2.55,22.8,2.84,18.13.69,36.57-2.4,54.21,4.58,4.34,1.73,3.77-1.78,3.81-4.23.08-6.57-.07-13.13.24-19.7.12-2.5-.9-6.61,3.49-6.37,3.7.2,2.61,3.8,2.66,6.17.14,6.54.43,13.14,0,19.67-.44,6.28,1.44,10.32,6.81,14.23,14.4,10.44,23,24.78,26.38,42.47,1.39,7.39.68,14.79,1.64,22.13-.08,6.26-.29,12.51-.27,18.77,0,15.73,7.64,26.43,22.07,32.27,5.52,2.25,11.21,4.06,16.82,6.09,37.28,19.42,57.66,50,62.3,91.85,2.76,25,26.19,46.93,49.35,48.2,4.68,2,9.53,1.18,14.28.63q49.45-5.73,98.91-11.62c7.64-.38,15.29-1,22.93-1.08,13.8-.17,22.3,8,22.8,21.85.26,7.1.32,14.21,0,21.29-.24,4.51.48,6.67,5.79,6.55,19.3-.43,38.64-.4,58-.53,13.37.12,26.76.13,40.15.44,4.32.11,6.11-1,5.79-5.74-.45-6.51-.14-13.09,0-19.64.39-17.48,7.78-24.8,25.49-24.19,13.91.48,27.8,1.92,41.71,2.93q36.47,4.74,72.92,9.47c35.48,4.59,64.12-16.2,68.68-51.83,3.87-30.41,16.59-55.28,39.88-75,11.66-8.33,24.46-14.29,37.85-19.33,14.82-5.59,22.62-16.18,22.64-32.6,0-20.14-1.3-40.55,7-59.77,4.56-6.19,7.5-14.46,14.17-17.94,15.07-7.89,15.6-20.61,14.38-34.63a36.19,36.19,0,0,1,0-6c.15-2.09-.72-5.11,2.69-5.21,3.17-.08,3.33,2.81,3.39,5a179.11,179.11,0,0,1,.11,19.66c-.42,5.24.63,6.87,5.88,4.78,7.79-3.14,16-3.57,24.37-3.67,13.13-.17,26.27.74,39.35-.91,32.48-4.06,55.59-29,56.15-61.72C1492.06,424.57,1492,394.32,1491.57,364.07Zm-936.1-34c0-1.7.86-3.55,3.16-3.05,1.88.41,2.58,1.93,2.57,3.85,0,5.38,0,10.78,0,16.18h0c0,5.11.07,10.22,0,15.33,0,1.85.48,4.28-2.42,4.62s-3.62-2.05-3.63-3.77C555.06,352.19,555.25,341.13,555.47,330.08Zm5.74,142.77c0,1.92.21,4.32-2.57,4.48a3.25,3.25,0,0,1-3.34-3.24,183.5,183.5,0,0,1,.4-34.76,2.34,2.34,0,0,1,2.84-2.35c2.18.2,2.69,1.66,2.69,3.55v17C561.23,462.64,561.27,467.74,561.21,472.85ZM558,422c-2.54-.17-3.38-1.51-3.34-3.86.05-4.82,0-9.63,0-14.45H555c0-5.38,0-10.75,0-16.13,0-2.07.46-4.35,2.82-4.54,3.14-.26,3.4,2.43,3.41,4.71.07,10.2,0,20.38.06,30.58C561.27,420.47,560.85,422.15,558,422Zm74.08-167.48c-10.39,2.54-20.78,5-29.52,7.13-3.73-.22-6.12.06-6.53-2.5s1.61-3.27,3.65-3.84a228.57,228.57,0,0,1,31.56-6.07c1.69-.22,3.79-.13,4.08,2C635.6,253.1,633.84,254.05,632.09,254.47Zm691.23,5.69c-.86,2.23-3,2.28-5.07,1.75-9.88-2.48-19.78-4.87-29.64-7.44-1.73-.44-4.66-.37-4.33-3.08s3-1.89,4.73-2.08c10.54,1.41,21,2.61,30.92,6.19C1322.22,256.32,1324.47,257.22,1323.32,260.16Zm36.25,71.39c0-1.9-.34-4.33,2.66-4.35a3.15,3.15,0,0,1,3.27,3.27c.6,11.35,1.2,22.71-.32,34-.19,1.42-.65,2.95-2.47,2.9-2.08-.05-3-1.6-3-3.43-.09-5.67,0-11.36,0-17.05h-.14C1359.55,341.8,1359.5,336.68,1359.57,331.55Zm-.24,87.48c.07-5.36,0-10.74,0-16.11h.17c0-5.38,0-10.74,0-16.13,0-1.76.19-3.66,2.25-4,2.63-.43,3.32,1.64,3.58,3.7,1.32,11,.77,22,.17,33-.1,1.68-.93,3.36-3.24,2.94C1360.41,422.12,1359.3,421.16,1359.33,419Zm6,55.18c-.17,1.64-.72,3.61-2.93,3.48-2-.14-2.71-1.84-2.73-3.66,0-6,0-11.92,0-17.89h-.1c0-5.11,0-10.21,0-15.32,0-1.72.17-3.6,2.48-3.72,2-.09,3.1,1.23,3.27,3.14A172.91,172.91,0,0,1,1365.35,474.21Z"/><path class="cls-2" d="M632.09,254.47c-10.39,2.54-20.78,5-29.52,7.13-3.73-.22-6.12.06-6.53-2.5s1.61-3.27,3.65-3.84a228.57,228.57,0,0,1,31.56-6.07c1.69-.22,3.79-.13,4.08,2C635.6,253.1,633.84,254.05,632.09,254.47Z"/><path class="cls-2" d="M1323.32,260.16c-.86,2.23-3,2.28-5.07,1.75-9.88-2.48-19.78-4.87-29.64-7.44-1.73-.44-4.66-.37-4.33-3.08s3-1.89,4.73-2.08c10.54,1.41,21,2.61,30.92,6.19C1322.22,256.32,1324.47,257.22,1323.32,260.16Z"/><path class="cls-2" d="M1365.52,419.5c-.1,1.68-.93,3.36-3.24,2.94-1.87-.32-3-1.28-3-3.41.07-5.36,0-10.74,0-16.11h.17c0-5.38,0-10.74,0-16.13,0-1.76.19-3.66,2.25-4,2.63-.43,3.32,1.64,3.58,3.7C1366.67,397.49,1366.12,408.49,1365.52,419.5Z"/><path class="cls-2" d="M561.21,472.85c0,1.92.21,4.32-2.57,4.48a3.25,3.25,0,0,1-3.34-3.24,183.5,183.5,0,0,1,.4-34.76,2.34,2.34,0,0,1,2.84-2.35c2.18.2,2.69,1.66,2.69,3.55v17C561.23,462.64,561.27,467.74,561.21,472.85Z"/><path class="cls-2" d="M1365.35,474.21c-.17,1.64-.72,3.61-2.93,3.48-2-.14-2.71-1.84-2.73-3.66,0-6,0-11.92,0-17.89h-.1c0-5.11,0-10.21,0-15.32,0-1.72.17-3.6,2.48-3.72,2-.09,3.1,1.23,3.27,3.14A172.91,172.91,0,0,1,1365.35,474.21Z"/><path class="cls-2" d="M1365.18,364.51c-.19,1.42-.65,2.95-2.47,2.9-2.08-.05-3-1.6-3-3.43-.09-5.67,0-11.36,0-17.05h-.14c0-5.13,0-10.25,0-15.38,0-1.9-.34-4.33,2.66-4.35a3.15,3.15,0,0,1,3.27,3.27C1366.1,341.82,1366.7,353.18,1365.18,364.51Z"/><path class="cls-2" d="M561.2,362.39c0,1.85.48,4.28-2.42,4.62s-3.62-2.05-3.63-3.77c-.09-11.05.1-22.11.32-33.16,0-1.7.86-3.55,3.16-3.05,1.88.41,2.58,1.93,2.57,3.85,0,5.38,0,10.78,0,16.18h0C561.23,352.17,561.3,357.28,561.2,362.39Z"/><path class="cls-2" d="M561.27,418.26c0,2.21-.42,3.89-3.26,3.69-2.54-.17-3.38-1.51-3.34-3.86.05-4.82,0-9.63,0-14.45H555c0-5.38,0-10.75,0-16.13,0-2.07.46-4.35,2.82-4.54,3.14-.26,3.4,2.43,3.41,4.71C561.28,397.88,561.25,408.06,561.27,418.26Z"/><path class="cls-2" d="M1359.58,727.81c0-5,0-8.69,0-12.36,0-1.88.59-3.61,2.51-3.9,2.13-.32,3.14,1.43,3,3.25-.86,16.07,4.9,31.84.76,48.29-2.28,9.07-1,19.2-.31,28.78.35,4.91,3.36,1.28,5.25.3,2.85-1.48,6.24-6.24,8.53-3.24,2.55,3.32-2.4,6.1-5.07,8.35q-9.46,8-19.25,15.62c-1.87,1.46-4.28,3.92-6.68,1.24s-.06-5.16,2.05-6.3c13.73-7.35,8.32-20.32,9-31.23.3-4.76-3.56-1.76-5.34-.74-7.39,4.26-14.94,6.53-23.59,4.27-17.32-4.54-27.28-21.29-22.31-38,5.14-17.28,22.87-25.95,40.1-19.52C1351.65,723.89,1354.86,725.63,1359.58,727.81Zm-21.72,46.5c10.63,0,22.94-11,23-20.49.06-15.55-9.9-27-23.57-27.1-12-.08-23.62,11.48-23.68,23.63S1325.4,774.34,1337.86,774.31Z"/><path class="cls-2" d="M1475.49,707.77c7.83-9.19,18.91-14.35,27.75-22.29,1-.92,2.55-2,3.47-.16.55,1.1.68,3.13,0,4a62.84,62.84,0,0,1-8,8.65c-6.22,5.34-12,11.24-19.22,15.37C1475.88,713.08,1475.87,710.3,1475.49,707.77Z"/><path class="cls-2" d="M1224.43,815.94c-9.17-1.87-18.88-3.77-28.54-5.87-1.89-.41-4.11-1.48-3.52-4,.4-1.72,2.19-2.47,4.08-2.38,11.69.54,22.8,4,34.07,6.71,1.58.37,2.56,1.75,2,3.18C1231,817.27,1227.54,815,1224.43,815.94Z"/><path class="cls-2" d="M1252.56,815.54c8.42,2.05,18.88,4.57,29.32,7.17a3.78,3.78,0,0,1,3.1,4.42c-.49,2.67-3,2.38-4.85,2-10.49-2.32-21-4.7-31.37-7.3a3.93,3.93,0,0,1-3.2-4.44C1246.1,814.65,1248.49,815.3,1252.56,815.54Z"/><path class="cls-2" d="M1392.73,781.05c-3.56-1.31-3.28-4.31-1.47-6a161.66,161.66,0,0,1,27.82-20.74,4.24,4.24,0,0,1,3.92.38c1.29,1.14.09,2.64-1,3.51q-13,10.86-26.17,21.57A11.77,11.77,0,0,1,1392.73,781.05Z"/><path class="cls-2" d="M1465.7,720.41c-1.81,7.24-8.61,9.56-13.2,13.81a136.66,136.66,0,0,1-14.13,10.92,3.85,3.85,0,0,1-4.79,0,2.59,2.59,0,0,1,.16-3.81c9-8.2,17.9-16.49,29.2-21.49C1463.55,719.53,1464.54,720.13,1465.7,720.41Z"/><path class="cls-2" d="M1359.22,661.53c.73-1.95-.42-5.17,2.76-5.48,3.73-.37,2.78,3.63,4.27,5.43-.13,9.39-.09,18.79-.5,28.18-.11,2.45.59,6.74-3.53,6.45-3.08-.22-2.68-3.9-2.72-6.39C1359.34,680.33,1359.3,670.93,1359.22,661.53Z"/><path class="cls-2" d="M1312.6,834.42c-3.14,0-6.27,0-9.4,0-2.28,0-3.9-1-3.87-3.53,0-2.75,2.06-3,4.15-3,4.27-.05,8.55-.22,12.82,0a29,29,0,0,0,14.69-3.62c1.89-1,4.5-3,6-.39s-1.13,4.61-3.16,6.16C1329.61,833.2,1323.32,834.5,1312.6,834.42Z"/><path class="cls-2" d="M1439.63,570.15c4.37,18.07,2.21,34.53-12.2,47.76-15.8,14.5-38.22,15.76-55.73,3.34-1.49-1.06-2.66-3.74-4.91-2.28-1.84,1.19-.91,3.62-1,5.54-.15,4.55-.22,9.1-.53,13.64-.11,1.66-.63,3.7-2.81,3.64-2,0-2.59-1.86-2.71-3.63-.15-2.27-.25-4.55-.25-6.83,0-11.63.35-23.12-4.34-34.39-3.19-7.68-2.69-16.41.37-24.28s4-15.91,4.07-24.18c.56-1.28,2.35-1.72,2.7-1.12,4.88,8.38,9.34,1.92,13.74-.38C1400.22,534.35,1425,543.35,1439.63,570.15Zm-40.93,52.47c13-.53,24.57-6.43,31.51-19.94,6.69-13,6.15-25.79-2.24-37.84-8.94-12.82-21.43-18.43-36.92-16.09-16,2.41-25.26,13.56-25.21,29.48,0,3.41.55,6.93-3.43,8.82-2.8,1.33-1.89,3.65-1.44,5.9C1364.37,609.85,1379.51,622.36,1398.7,622.62Z"/><path class="cls-2" d="M1516.93,340.82c0,2.84-.36,4.85-2.7,5.44-2.07.52-3.08-1-3.68-2.69-3.35-9.52-9.1-17.51-15.71-25-1.47-1.67-3-3.84-1.32-6,1.2-1.53,3.52-.85,4.64.17A75.7,75.7,0,0,1,1516.93,340.82Z"/><path class="cls-2" d="M1522.35,660.77c-1.13,3.45-2.16,7-3.43,10.35a2.87,2.87,0,0,1-3.35,1.94,2.14,2.14,0,0,1-1.69-2.52c.85-11.46,1.69-22.92,2.72-34.37.19-2.16,2.26-2.11,4-2C1523.36,642.88,1521.52,651.91,1522.35,660.77Z"/><path class="cls-2" d="M1515.9,434.21c0-5.69-.09-11.39.07-17.08,0-1.62.72-3.53,2.93-3.3,1.62.17,2.15,1.73,2.33,3.16a160.44,160.44,0,0,1,.21,34.08c-.16,1.72-.79,3.59-3.07,3.19-1.93-.33-2.71-2-2.73-3.82-.08-5.41,0-10.82,0-16.23Z"/><path class="cls-2" d="M1520.53,618.66c-4.24.41-5.08-2.09-5.06-5.63,0-4.4-.15-8.8-.25-13.21.13-5.37.21-10.75.41-16.12.08-2.21,0-5,3.07-5.05,2.65,0,2.76,2.6,2.8,4.49C1521.73,595,1523.32,606.89,1520.53,618.66Z"/><path class="cls-2" d="M1515.24,543.89c.25-5.39.38-10.79.84-16.16.13-1.51.48-3.62,2.77-3.64,1.85,0,2.21,1.62,2.38,3a174.41,174.41,0,0,1,.33,34c-.14,1.87-1.3,3.29-3.38,2.89s-2.61-2.06-2.62-3.88c0-5.41,0-10.81,0-16.22Z"/><path class="cls-2" d="M1515.46,379.25c0-4.83,0-9.66,0-14.49,0-1.94-.32-4.39,2.36-4.74,3.4-.43,3.46,2.6,3.53,4.63.32,10.22.43,20.44.47,30.66,0,1.93-.3,4.27-3,4.26-2.58,0-3.22-2-3.25-4.13-.08-5.39,0-10.79,0-16.19Z"/><path class="cls-2" d="M1521.91,490.19c0,5.13.09,10.25,0,15.37-.06,2.17-1,3.94-3.67,3.65-2.1-.24-2.74-1.81-2.72-3.67.11-10.53.19-21.06.5-31.59,0-1.5.47-3.83,2.37-4.09,2.81-.38,3.1,2.45,3.19,4.13.31,5.38.12,10.8.12,16.2Z"/><path class="cls-2" d="M566.76,589.54c-5.11,14.75-6.15,30-5.54,45.43.08,2.18,1.44,5.77-2.6,6-4.44.31-3.74-3.29-3.73-6,0-3.7.22-7.41.19-11.11,0-1.88,1-4.29-1.09-5.46-2.3-1.3-3.44,1.34-4.93,2.36-17.87,12.23-39,12-54.72-.77-15-12.13-23.6-38.47-6.15-63.14,20.27-18.78,37.7-20.16,62.35-4.58,3.73,2.36,4.3.22,5.25-2.35a2.93,2.93,0,0,1,3.26-2.14c1.7.26,2.16,1.82,2,3.25C559.91,564.33,567.73,576.29,566.76,589.54ZM518,548.3c-14.43-.16-31.19,15.37-32.41,34.73s13.11,37,31.62,39.22c19.73,2.41,38.32-10.58,41.85-29.35.3-1.59.58-4.17-.27-4.84-5.22-4.1-3.7-9.81-4-15-.2-3.77-.39-7.46-3-10.39C544.08,554.07,535,548.31,518,548.3Z"/><path class="cls-2" d="M426.35,315.71a19.16,19.16,0,0,1-1.73,3.16c-5.47,7.61-11.08,15.12-14.34,24-.7,1.92-1.88,3.87-4.28,3.23s-2.59-3.07-2.12-5a56.45,56.45,0,0,1,16.74-28.09,5,5,0,0,1,4.74-1.21C426.61,312.16,427.32,312.94,426.35,315.71Z"/><path class="cls-2" d="M405.7,555.29c-1.16,9.83-1.16,9.83-6.63,7,0-10.19-.24-20.38,0-30.56.07-2.65-1-7.54,3.15-7.25,3.39.24,2.83,4.94,2.94,7.93C405.46,540,405.54,547.65,405.7,555.29Z"/><path class="cls-2" d="M399.2,433.69c0-5.09,0-10.18,0-15.27,0-2,.09-4.27,2.74-4.27,2,0,2.75,1.9,2.85,3.64a216.91,216.91,0,0,1-.05,33c-.14,1.58-.69,3.55-3,3.44s-2.75-2-2.79-3.61c-.16-5.65-.06-11.31-.06-17Z"/><path class="cls-2" d="M399,380.32c0-5.39-.12-10.78.07-16.16.07-1.8.16-4.31,2.82-4.36,2.18-.05,2.73,2.24,2.76,3.7q.4,16.14.31,32.29c0,2-1,4.06-3.63,3.67-2-.3-2.57-2-2.58-3.82,0-5.11,0-10.21,0-15.32Z"/><path class="cls-2" d="M405.12,490.26c0,5.12.05,10.23,0,15.34,0,1.79-.67,3.48-2.76,3.65-2.57.21-3.59-1.57-3.57-3.76.06-10.5.18-21,.47-31.51.05-1.48.26-3.82,2.32-4,2.74-.28,3.13,2.5,3.23,4.14.33,5.38.13,10.78.13,16.17Z"/><path class="cls-2" d="M405.65,650.62a67.61,67.61,0,0,0,.72,16.87c.4,2.23,1.1,5.06-1.89,5.58-3.59.62-5.17-2.49-5.32-5.31-.58-11.22-1.88-22.51,1.07-33.64,4.69-.59,4.47,3,4.8,5.86C405.43,643.51,405.46,647.07,405.65,650.62Z"/><path class="cls-2" d="M400.21,618.86a101.92,101.92,0,0,1,.23-40.8c4.4-.46,4.44,3,4.5,5.63.23,10,.2,19.92.14,29.88C405.07,616.64,404.27,619.35,400.21,618.86Z"/><path class="cls-2" d="M694.44,815.92c-2.8-.7-6.23,1.28-6.44-3-.19-3.77,2.81-3.48,5.29-3.95,8.89-1.69,17.75-3.6,26.67-5.15,2.71-.47,6.73-.84,7.36,2.39.73,3.68-3.43,3.77-6,4.32C712.18,812.46,703,814.21,694.44,815.92Z"/><path class="cls-2" d="M674.73,817.48a3.6,3.6,0,0,1-3,3.82c-10.43,2.64-20.85,5.36-31.3,7.92-1.91.46-4.41.64-4.72-2.1a4.08,4.08,0,0,1,3.22-4.46c10.45-2.64,20.68-6.19,31.47-7.34C672.29,815.11,674.55,814.72,674.73,817.48Z"/><path class="cls-2" d="M443.29,709.72c-.48,2.63-2.49,4.25-5.2,2-8.16-6.64-17.07-12.38-24.3-20.13-1.62-1.74-3.11-4-1.4-6.07,2-2.39,4.22-.09,5.86,1.16,7.46,5.71,14.81,11.56,22.16,17.41C442,705.38,443.49,706.75,443.29,709.72Z"/><path class="cls-2" d="M485.82,742.29c.24,4.13-2.52,3.92-4.4,2.64-8.94-6.08-17.81-12.31-25.58-19.91-1.25-1.22-1.85-3.24-.3-4.51a4.2,4.2,0,0,1,3.91-.37,147.68,147.68,0,0,1,25.4,20.05A6.13,6.13,0,0,1,485.82,742.29Z"/><path class="cls-2" d="M1589.13,445.41c-.16-21.58,6.73-32.25,23.26-36.37,17.6-4.4,35.21,7.78,36.76,25.82a136.39,136.39,0,0,1,.12,22.14c-1.2,15.54-14.5,26.82-30.83,26.78a28.9,28.9,0,0,1-29.26-27.28C1588.9,452.82,1589.13,449.11,1589.13,445.41Zm9.67-13.72c12.07-12.94,25.22-13.36,39.51-2.14-1.88-8.73-7.49-13.54-15.9-14.63-10.56-1.37-19.64,4-25.14,15a1.8,1.8,0,0,0-.76,2.83C1597.61,433.9,1598.33,432.75,1598.8,431.69Zm20.42-3.26c-9.25-.11-17.68,7.83-18,16.94s8.33,18.44,17.47,18.78c9,.33,18.22-8.62,18.44-17.82C1637.37,436.82,1629.07,428.54,1619.22,428.43Zm21.49,31.79c-15.74,13.56-30.39,15.09-44-2.51,2,11.88,10.4,18.93,22,19.38C1629.7,477.52,1637.65,471.86,1640.71,460.22Z"/><path class="cls-2" d="M270,445.77c.21-21.44,7.18-32.38,23.59-36.7A29.84,29.84,0,0,1,330.28,432a81.54,81.54,0,0,1,.75,24.64c-1.64,15.68-13.68,26.6-29,27-16.54.45-28.22-8.88-31.12-25.16C270.19,454.33,270.27,450,270,445.77Zm31-17.28c-9.93,0-17.59,7.22-17.79,16.78-.21,10.16,8.4,19.34,17.86,19.05,8.67-.27,17.32-9.1,17.49-17.85A17.42,17.42,0,0,0,300.94,428.49ZM279,461.15C285,474.22,293.48,479,305.15,476.8c10.09-1.88,17-8.74,18.21-19.25C309.51,474.37,294.83,474.28,279,461.15Zm-1.57-27.47c15.13-15.56,30.33-17.26,46.19,1-2.86-11.77-10.62-18.71-20-19.8C292.29,413.56,283.71,419.35,277.47,433.68Z"/><path d="M798.38,425.18v111H778.55V465.47L759,480.38l-16.18,12.53-16.18-12.53-19.51-14.91v70.74H687.34v-111l19.83,15.23,35.69,27.44,35.69-27.44Z"/><path d="M852.3,462.14v75.5H832.47V460.07A15.81,15.81,0,0,0,819,446.59h-4.44V426.92h4.28v.16a35.55,35.55,0,0,1,13.48,3.65,35.17,35.17,0,0,1,16,16.18,42.55,42.55,0,0,1,2.7,7.45,33.53,33.53,0,0,1,1,8.09Z"/><path d="M978.71,458.81a32.67,32.67,0,0,1-9.2,22.84A32.75,32.75,0,0,1,946,537.16h-78.2V517.34H946a13.07,13.07,0,0,0,13-13,12.92,12.92,0,0,0-12.21-13h-59V471.5h59a13,13,0,0,0-.63-26H868V425.66h78.2a32.62,32.62,0,0,1,32.67,32.67Z"/><path d="M1096.24,480.22a32.75,32.75,0,0,1-23.48,55.51h-45.52a32.58,32.58,0,0,1-30.14-20,34.5,34.5,0,0,1-2.53-12.85V457.38a32.09,32.09,0,0,1,8.25-21.41,33.32,33.32,0,0,1,9.51-7.46,31.42,31.42,0,0,1,14.91-3.65h69v19.83h-69a13.06,13.06,0,0,0-13,13v15.54a32.41,32.41,0,0,1,12.37-2.54h46.79a32.81,32.81,0,0,1,23,10Zm-23.63,35.69a13.07,13.07,0,0,0,13-13,12.9,12.9,0,0,0-12.21-13h-46.79a13,13,0,0,0,.63,26h45.37Z"/><path d="M1232.48,425.18v111h-19.82V490.53h-58.53a31.39,31.39,0,0,1-14.91-3.65,32.39,32.39,0,0,1-17.77-29V425.18h19.83v32.68a13.07,13.07,0,0,0,13,13h58.52V425.18Z"/></g></g></svg>