<svg xmlns="http://www.w3.org/2000/svg" viewBox="0 0 1920 1080"><defs><style>.cls-1{fill:#f2f2f2;}.cls-2{fill:#010101;}</style></defs><g id="Capa_2" data-name="Capa 2"><g id="Capa_1-2" data-name="Capa 1"><rect class="cls-1" width="1" height="1"/><rect class="cls-1" x="1919" y="1079" width="1" height="1"/><rect class="cls-1" y="1079" width="1" height="1"/><rect class="cls-1" x="1919" width="1" height="1"/></g><g id="Capa_3" data-name="Capa 3"><path class="cls-2" d="M1016.25,239.16c.33-4.49,5.15-2,7.91-2.27,4.41-.44,8.9-.09,13.33-.33,7.62-.41,8.44-1.33,9.11-9.13a16.74,16.74,0,0,1,.16-2.85c.81-3.08-2-7.47,2.74-9.09,5.64-1.91,12.15.33,14.09,5.55,2.66,7.15,7.79,9,14.61,9.53,29.11,2.43,58.11,5.91,87,10s57.7,8.82,86.33,14.5c4.36.86,8.72,1.72,13.11,2.37,6.92,1,7.59.57,9.87-5.66,2.65-7.27,2.65-7.29,10.15-5.59,4.3,1,8.57,2,12.52,2.91.27.93.48,1.24.42,1.51-2.88,13.75-2.9,13.8,10.6,17.11,106.65,26.13,208.92,64.22,307.46,112.51,15.07,7.38,28.62,16.44,37.91,30.81,1.29,2,3.44,3.69,2.76,7.25-8-4.28-15.66-8.45-23.39-12.49A1450.36,1450.36,0,0,0,1288.8,278.61q-70-16.28-141.29-25.64c-40.93-5.32-82-9.45-123.36-10.34C1021.27,242.57,1015.85,244.75,1016.25,239.16ZM298.06,383c38.44-18.81,77.33-36.59,117.14-52.37a1511.13,1511.13,0,0,1,198.15-63.33,47.37,47.37,0,0,1,4.58-1.29c4.39-.6,5.93-3.14,5.37-7.31a38.55,38.55,0,0,0-.63-4.72c-.89-3.36-.37-5.23,3.68-5.81,4.37-.61,8.58-2.22,12.9-3.29,2.92-.72,4.25.23,5.33,3.45,3.56,10.66,3.78,10.52,15.31,8.28,60.5-11.77,121.31-21.32,182.81-26,6-.45,10-2.48,12.34-8.21,1.55-3.87,3.72-7,9-7,8.55,0,8.78-.14,9,8.69.22,11.16,1.63,12.58,12.74,12.63,4.77,0,9.53-.1,14.31-.07,1.69,0,3.11.67,3.1,2.7a2.87,2.87,0,0,1-2.89,3.08c-1.9.17-3.8.25-5.71.27-35.63.43-71.06,3.92-106.36,8.2a1470.66,1470.66,0,0,0-382.69,99.35c-42.58,17.4-84.1,37.08-124.82,58.49-5.83,3.06-11.53,6.39-17.28,9.59C270.73,402.25,282.45,390.65,298.06,383ZM163,574.57c3.48.09,7,.07,10.47.14,9.25.17,8.94-1.27,8.91,8.48,0,18.09-.35,36.18-.09,54.25.08,5.14-1.44,6.59-6.4,6.22-6-.43-12-.09-18.77-.09h-5.89v34.51c-.39,17.4,13.36,38.65,35.89,39.91,4.43.25,8.87.8,13.3.82,26.07.09,52.13,0,78.2.08,15.27,0,15.42.06,15.64,15.23s.11,30.51.14,45.77c0,5.11-.26,10.43,2.33,14.91,2.5,4.32.66,6.23-2.74,8.19-9.24,5.3-27.64,16-27.64,16-.94.54.67,3.36.67,3.36l27.66,45.58c7.9,13.83,8.72,14.64,21.3,5,10.74-8.26,22.06-9.51,34.61-9.06,35.59,1.28,71.18.5,106.77.5h1c12.85-.34,13.66-1.13,13.76-13.63,0-4.71,0-9.44,0-13.89,3.85-1.72,6.79.32,9.86.41,4.12.12,5.09,2.27,5.25,6.11.35,7.82.61,7.88,8.78,7.87,26.38-.09,52.75-.25,79.13-.32,4.43,0,8.86.31,13.29.46,2-.46,3.1-.47,4.07,2.15,4,10.85,4.16,10.86,15.34,10.91,7.63.05,15.25,0,22.87-.25a22.59,22.59,0,0,0,18-9.13c2.51-3.25,4.81-6.7,7-10.15,6.37-9.86,12.86-19.65,18.92-29.7,8.79-14.57,21.4-22.85,38.33-25,9.43-1.18,18.82-2.86,28.13-4.82,35.86-7.5,72-11.26,108.72-10,16.8.58,33.65-.24,50.48-.29,4.53,0,8.41-.43,8.46-6.25,0-2.91,1.8-3.76,4.32-3.77l91.78,0c3.57,0,6.53.41,6.51,4.72,0,4.92,2.88,5.45,6.81,5.46,18.09,0,36.23,1,54.28.17,35.46-1.63,70.28,2.48,104.89,9.6,9.93,2,20,3.6,30,5.17,15.95,2.48,28.4,10.19,37,24,7.41,11.83,15.24,23.39,22.49,35.31,6.17,10.16,14.66,15.39,26.69,14.89,7.93-.32,15.87-.36,23.81-.37,4.85,0,8-1.54,7.74-7.07-.24-5.77,3.37-6.28,8-6.27,28.25.08,56.51-.06,84.77-.13,2.86,0,5.72-.16,8.57-.08,3.72.09,5.57-1.22,6.12-5.31,1.06-7.75,1.35-7.74,9-8.94,1.54-.25,3.14-.21,5-.32,1.29,6.37,0,12.74.68,19,.77,7.61,1.54,8.42,9.25,9.11,4.1.36,8.25.36,12.37.38q45.23.21,90.46.34a34.61,34.61,0,0,1,11.44-.24c8.5-1.41,14.11-6.55,18.39-13.72,10.56-17.69,21.27-35.28,32-52.88a34.09,34.09,0,0,0,4.88-19c-.31-16.16-.2-32.35-.12-48.53,0-9.46,1.45-11,11.06-11.31,10.78-.32,21.58-.1,32.37-.24,20.93-.27,41.85,0,62.8-.51,16.65-.41,36.06-18.87,35.91-36.86-.08-9.48.35-19,.54-28.45v-8.8l-5.22-.39c-7.37,0-14-.28-20.57.08-4.79.26-5.87-1.67-5.8-6.09.24-16.51.15-33,.18-49.55,0-13.44,0-13.44,13.41-13.48h18.1l-.1-18.2c.94-9.09-5.3-15.33-5.3-15.33-7.83-11.39-18.76-13.18-31.13-12.62s-24.8.27-37.19,0c-12-.23-13.21-1.45-13.28-13.14-.12-18.11,0-36.23,0-54.36,0-7.3.06-14.61-1.21-21.85-5.76-32.78-24.17-56-53.71-70.62-68-33.62-138-62.63-210.19-86-32-10.34-64.29-19.49-96.83-27.86-4.64-1.19-7.36-2.29-6-8.06,1.7-7.53.79-9-6.43-10.88-10.12-2.64-20.37-4.81-30.61-6.89-12-2.43-12-2.29-14.7,10.17-.11.54-.63,1-1.23,1.87l-49.33-8.69c-40.68-7.17-81.66-12.09-122.75-15.91-8-.74-13.06-2.83-15.71-10.44-1-3-2.77-5.49-6.85-5.38-9.53.25-19.08.23-28.61.09-3.72,0-4.58,1.84-5.35,5.05-1.24,5.2.17,10.7-1.63,15.54-3.65,0-6.83,0-10,0-2.06,0-4.16-.73-4.31-2.92-.33-4.93-3.8-4.18-6.86-4.23l-100-.41c-3.48,0-6.41.1-6.05,4.81.19,2.62-1.74,3-3.77,3H889.1c-1.63-3.83-.67-7.69-.94-11.43-.61-8.77-.85-9.29-9.37-9.29-33.44,0-32.95,4.14-32.95,4.14-3.51,10.79-3.54,10.48-13.37,11.26-24.69,1.94-49.29,5-73.83,8.37q-48.1,6.68-95.76,16a6.7,6.7,0,0,1-4.62-.27c-2.9-13.59-3-13.82-17-11.11-9.33,1.82-18.61,3.94-27.83,6.28-8.06,2-8.79,3.37-7.87,11.16.75,6.4.76,6.43-5.93,8.14a1550.83,1550.83,0,0,0-176.52,56.28c-44.71,17.25-88.36,36.82-131.31,58-26.93,13.26-44.13,34.6-51.37,63.83a92.28,92.28,0,0,0-2.31,21.72c-.1,20.33,0,40.68-.26,61-.15,10.82-1.84,12.55-12.93,12.85-13.35.38-26.72.6-40.06.12-10.82-.39-20.13,1.66-27.34,13.32-4.19,5.52-5.78,13.13-5.78,13.13v19.31ZM277.33,824.13c1.76-3.38,5.41-4.22,8.16-6,7.95-5.2,16.14-10,24.12-15.16,2.8-1.8,4.92-2.6,6.95,1,3.26,5.79,9.46,11.45,9.44,17.15,0,6.64-9.69,7.27-14.86,10.94-6.68,4.74-14,8.61-21.24,13Zm112.72-32h-.28c-.19,2.62,2.22,6.11-.74,7.55-3.45,1.68-7.34.53-10.47-2.25a13.12,13.12,0,0,1-2.82-16.28c1.52-2.76,4.16-3.1,5.9-.55,1.05,1.53,2.62,3.8,2.14,5.07-2.54,6.87,2,6.3,6,6.46,0-.09,0-.17,0-.26a.84.84,0,0,1,.24.06c-.23-2.51-.32-4.93,3-5.62,1.67-.35,3.41-.23,4.12,1.31,1.19,2.6,1.68,5.48-.36,8a1.91,1.91,0,0,1-3.17.08c-1.18-1.26-1.62-3.3-3.62-3.73C390,792,390,792,390.05,792.09Zm-7.31-16.22c4-2.52,6.57-.06,8.9,2.72,1.27,1.52,2.07,3.19-.33,4.63-1.71,1-3.75,2.17-4.93.09C385,780.94,382.23,779.17,382.74,775.87Zm13.73-6.08c-2.41-3.15-7.5-3-11.69-2.55-1.89.2-3.74.73-5.62.89a3.78,3.78,0,0,1-4.32-2.84c-.46-1.71.65-2.9,2.13-3.79,7.3-4.45,14.46-9.14,21.87-13.37,17.62-10.08,13.89-10,24.92,6.15,1.24,1.81,2.22,3.8,3.76,6.46-5.07,3.15-9.35,5.83-13.65,8.48C408.23,772.7,403,778.28,396.47,769.79Zm3.94,35.57c.16-1.37,1.46-2.63,2.3-3.91,3.84-5.76,5.83-12.06,3.83-18.84-1-3.22.09-4.55,2.56-6,5.73-3.32,11.39-6.77,17-10.26,2.71-1.68,4.51-1.36,6.05,1.62,2.31,4.48,5,8.79,7.45,13.18,1.89,3.35,1.06,6.15-2.09,8.07-10.51,6.39-21.09,12.68-31.66,19a18.3,18.3,0,0,1-2.37,1C400.56,809.27,400.2,807.12,400.41,805.36ZM432.34,754c-3-5.19-6.07-10.31-9.12-15.45-7.1-6.74-14.27-6.45-22.35-1.24C390.82,743.78,381,750.82,370,756.05c-5.09-6-7.11-13.75-13.76-20,.37,6.91,4.5,10.59,6.91,15,3.93,7.15,4.07,7.12-3.05,11.5q-20.26,12.49-40.58,24.9c-8.11,4.93-9.47,4.33-9.78-5.41-.63-19.85-3-14.88,12.29-26.58q12.84-9.84,25.94-19.39C370,720,400.07,719,422.19,733.6a21.22,21.22,0,0,1,2.71,2.58c6.25,3,9.94,8.55,14.07,13.67,1.57,2,.84,3.33-1.18,4.5S434,756.92,432.34,754Zm-127,116.12-12.79-22.33c11.27-6.72,22.66-13.43,34-20.28,3-1.83,4.57-.52,6,2,3.28,5.71,6.64,11.38,10.45,17.89Zm31.85-48.21c2.27-2.77,6.57-3.14,7.52-8.19-10.19,3.91-10.18,3.9-15.62-5-2.46-4-5-8-7.42-11.9,2-3.44,5.43-4.73,8.33-6.55,12.08-7.54,24.23-15,36.46-22.31,1.86-1.11,4.22-3.6,6.55-.36,1.65,2.31.49,4.1-1.16,5.79-4.8,5-6.14,11.08-5,17.6.84,4.69.13,7.66-4.74,9.56-2.63,1-7.77,3.09-6,5.86,2.49,3.79,6.05-.45,8.23-2.5,3.62-3.38,6.16-2.78,9.76.14a18.83,18.83,0,0,0,17,3.74c1.77-.43,3.54-1,5.51-.07,3,1.45,3.5,3.34,1,5.49a36,36,0,0,1-3.93,2.65l-42.86,26.63C345,836.17,341.63,828.66,337.21,821.89ZM416,849.29c-19.07-.1-38.13,0-57.22,0-.83-3.3,2-3.67,3.65-4.66q36.56-22.32,73.22-44.47c3.29-2,6.64-3.9,9-6.92,3.68-4.7,3.91-10,1.47-15.28-1.86-4-4.08-7.88-6.22-11.77-3-5.49-3.06-5.48,3.21-10.17,11,21,11.43,42,.09,62.76-5,9.15-11.67,17.38-17.39,26.15C423.4,848.61,420.07,849.31,416,849.29Zm70.36-28.7c-.76,2.33-1.44,2.43-3.77.54-3.11-.59-6.22-1.18-9.34-1.74-9.93-1.78-15.88,2.87-16.42,13.08-.23,4.12,0,8.27.13,12.39.12,2.86-1.16,4-3.92,4-6.22,0-12.44,0-20,0,4.17-6.1,7.55-11.3,11.18-16.31,17-23.34,19.22-48.44,8.52-74.79-2-4.84-1.76-7.38,3-9.54,2.77-1.24,5.72-2.7,6.16-7.16-5.78-.05-9.1,4.36-13.64,6.34-2-.24-2.76-2.09-3.89-3.52-25.25-31.87-69.1-37.73-101.95-13.58-8.19,6-16.28,12.16-24.43,18.22-2.46,1.82-5,3.56-8.59,6.13,0-7.36.08-13.27,0-19.17a89.07,89.07,0,0,0-.73-12.34c-1.86-11.75-9.38-18.75-21.23-19.08-14.29-.4-28.59-.15-42.88-.18-16.53,0-33.05.19-49.57-.17-19.63-.42-28.36-9.41-28.41-28.91,0-5-2.16-11.16,1.26-14.69,3.06-3.15,9-.88,13.68-1.06,12.36-.49,15.88-3.72,16-16.11q.24-33.36,0-66.7c-.1-12.72-4-16.42-16.54-16.81-3.45-.11-7,.64-10.29-.76-1-2.62-.28-5.09.25-7.54,1.07-5,3.89-7.33,9.37-7.22,13,.24,26,0,39.07-.12,3.18,0,6.37-.08,9.53-.29,15.6-1.1,23.83-9.36,24.07-25,.32-20,.2-40,.09-60,0-6.71.84-13.29,1.54-19.92.49-4.76,2.6-8.32,6.92-10.64C298.62,408,336,388.51,375,372.53c14.73-8.19,30.59-13.82,46.16-20a1464.31,1464.31,0,0,1,195.41-62.88c50.29-12.28,101-22.33,152.36-29.11,42.2-5.57,84.57-9.84,127.19-10.74,2-.05,4.4-1.3,7,2.43-36.64,2.38-72.47,4.06-108.06,8.27-36.2,4.3-72.26,9.75-108,16.86q-53.1,10.55-105.4,24.67-52.78,14.33-104.3,32.55c-34,12-67.69,25.07-100.62,39.91-4.73,4.2-10.44,7.11-15,11.57-16.6,16.24-26,35.75-27.43,59-.38,6-.82,12.05-.82,18.08q-.25,81-.34,162.1a170.31,170.31,0,0,0,1.12,20.92c3.25,26.72,23.51,46.63,50.28,48.94,6,.52,12.05.68,18.09.76,12.39.18,24.81-.21,37.18.37,24.64,1.14,42.76,18.06,46.18,42.5a42,42,0,0,1,.74,5.66C486.86,769.77,487.41,795.18,486.39,820.59Zm828.8,1.35c-5.79,3.51-4.73,10-4.89,15.54-.36,11.63-.16,11.64-12.07,11.67-2.22,0-4.45-.14-6.67,0-4.93.29-8.18-1.65-10.84-6-7.23-11.93-15.27-23.38-22.38-35.37-11.34-19.13-28.18-29.29-49.8-32.85-24.07-3.95-48-8.61-72.11-12.66-13.85-2.33-27.87-1.53-41.84-1.57h-14.3v-.39c-15.88,0-31.77.05-47.64,0-3.74,0-7.66.46-7.93-5.51-.21-4.63-4.41-4.57-8-4.58L902.06,750c-3.34,0-6.46.08-7,4.49-.59,5.24-3.77,6.09-8.64,6-21.61-.35-43.24.21-64.84-.42-24.38-.71-48.06,3.72-71.81,8-15.61,2.83-31.24,5.52-46.78,8.68-16.31,3.33-29.13,12.17-38.26,26.14-8,12.23-16.08,24.4-23.68,36.86-4.23,6.94-9.41,10.13-17.85,9.69-14-.73-14.06-.26-14.08-14.39,0-5.5.22-10.9-5.83-13.93-2.46-1.23-3.35-3.69-3.1-6.46,0-.32,0-.63,0-1,0-5.4-1.73-11.65.41-16,2.66-5.4,9.73-1.49,14.79-2.55a115,115,0,0,0,21-6c48.15-20,97.88-35,148.84-45.93,45.57-9.19,100.33-15.5,100.33-15.5,22.15-2,44.41-2.68,66.65-3.34l16.54.14c22.87.38,45.75,1,68.49,3.23,64,6.36,126.61,19,187.61,39.52,18.63,6.25,37,13.15,55.24,20.47,11,4.4,22.05,8.1,34.09,7.47,3.46-.17,5.3.8,5.07,4.77a126.15,126.15,0,0,0,.13,13.33C1319.57,817.05,1318.84,819.72,1315.19,821.94Zm110.46-80.73c-.55,27.95-.13,55.93-.14,83.9v17.74h-98.38c-1.14-8-.13-16.21-.33-24.4q-.32-12.87-.07-25.75c.06-3.62-1-5.3-4.81-5-18.36,1.43-34.72-5.26-51.37-11.85A831.71,831.71,0,0,0,1091.06,727a799.63,799.63,0,0,0-121.45-9.9l-19.2-.08c-21.31.1-42.58.85-63.8,2.76-13.28,1.2-26.53,2.62-39.8,3.94-9.92,1.68-19.82,3.48-29.78,5-32.83,5.07-65,13.12-96.9,22.2-2.42.69-4.9,1.16-7.35,1.73-20.34,7.43-41.12,13.69-61.19,21.94-7.27,3-14.62,5.79-21.93,8.65-6.2,2.43-12.55,4.05-19.3,3.38-2.63,1.61-5.58,1.08-8.37,1-8.73-.32-9.26-.49-9.29,9.63,0,11.44.06,22.88.1,34.33,0,12.09,0,12-12,11.91-25.76-.18-51.5-.26-77.26-.37-8.84,0-8.88,0-8.88-8.64,0-29.89.26-59.77,0-89.65-.27-26.56-16-47.22-40.92-54.49-7.37-2.15-15-2.69-22.63-2.67-14.62,0-29.27.67-43.85-.09-21.78-1.15-38.12-15-43.88-36.05a33.13,33.13,0,0,1-1.21-6.52c-2-28.56-1.32-57.15-.74-85.73-.14-13.33-.46-26.67-.37-40,.2-24.46-.8-48.94.86-73.4,2.25-33,19.35-55.74,48.76-69.37,15.49-7.18,31.59-13.07,47.51-19.33,68.56-27,139-47.95,210.85-63.94A1364.84,1364.84,0,0,1,790.6,269.12c37.27-4.26,74.59-7.52,112.09-8.83,2.48-.08,5.06.38,8.12-1.41,0-10.36.2-21.15-.11-31.91-.11-4.28,1.35-5.41,5.4-5.36l92.19,0c1.45,8.64.43,16.8.51,24.91.13,13.31.08,13.21,12.85,13.82a1501,1501,0,0,1,183.61,20c108.58,18.73,213.43,49.93,315.1,92.2,18,7.49,33.88,17.33,44.7,34,8,12.26,12.89,25.77,13,40.28.59,59.42.71,118.85-.1,178.27a41.83,41.83,0,0,1-.23,13.94c.33,27.14-22.81,49.26-49.25,48.6-13.35-.33-26.7,0-40,0a89.76,89.76,0,0,0-20.83,2.15C1443.8,695.38,1426.14,716.54,1425.65,741.21Zm179,54.27q-14.6,23.44-28.79,47.15c-2.74,4.59-6.34,6.6-11.67,6.56-20.66-.12-41.33-.07-62,0-3.37,0-6-.71-8-3.83-5.8-8.72-12.57-16.78-17.62-26-17.26-31.46-7-69.85,23.2-87a45.68,45.68,0,0,1,13.87-5.23,6.12,6.12,0,0,1,5.74-1.61l1.91-.32a34.75,34.75,0,0,1,23.21-.1c.75.53,1.52,1.54,2.25,1.52,11.73-.43,20.11,6.6,28.8,12.84,9.54,6.86,18.91,14,28.5,20.76,4.47,3.16,6.73,6.78,6.66,12.6C1610.6,781.05,1609,788.48,1604.65,795.48Zm146.89-108.6c-3.64,8.63-9.51,14.87-19.5,15.86-3.5,2.11-7.4,1.22-11.1,1.23-30.92,0-61.84-.05-92.76-.1-12.58,4.81-17.21,11.24-17.66,24.6-.26,7.8.46,15.65-.72,23.44.83,1.14,0,1.58-.89,1.69a1.59,1.59,0,0,1-1.84-1.49c-8.35-6.16-16.9-12.06-25-18.52-12.89-10.28-27.2-16.85-43.7-18.39l-11.31.16c-24.17,2.43-43.34,13.56-55.77,34.41-14.68,24.59-14.72,49.91-.74,75.06,4.48,8,10.43,15.1,16.56,23.18-7.76,2-14.86.9-21.89.69-2.43-.08-2.86-1.94-2.83-4.08a131.5,131.5,0,0,0,0-13.32c-.74-8.74-6.11-13.13-14.85-12-4.64.57-9.18,1.93-13.8,3-2-2.31-1.29-5-1.27-7.36.11-24.14.51-48.27.6-72.41.08-23.47,19.73-43.27,38.92-45a85.78,85.78,0,0,1,26.42-.84c12.41-1,24.84-.15,37.26-.25,2.59-1.91,5.59-1.52,8.52-1.53,13.82-5.22,25.58-13,33.61-25.87,4.25-6.79,5.78-14.45,8.25-21.84a25,25,0,0,1,.39-9.55c-.13-3.8-.35-7.6-.35-11.4,0-58.06,0-116.12-.13-174.19-.07-23.76-7.85-44.68-24-62.37-4.33-4.72-9.63-8.19-14.49-12.24-1.93-.66-3.82-1.38-5.1-3.1a1462.28,1462.28,0,0,0-207.74-73.13,1432.84,1432.84,0,0,0-160.87-33.84,1253.2,1253.2,0,0,0-139.3-13.39c-6.1-.23-12.26-.34-18.57-2,2-3.31,4.43-2.17,6.47-2.16q28.13.18,56.15,2.88c30,2.84,60,6.05,89.85,10.51q61.7,9.19,122.37,23.55c84.76,19.87,166.85,47.83,246.78,82.24,2.27,1,4.94,1.39,6.59,3.57a13.4,13.4,0,0,1,6.65,2.81c23.84,9.58,46.79,21.07,69.67,32.69,12.14,6.17,24.08,12.75,36.22,18.91a14.06,14.06,0,0,1,8.15,10.78,107.82,107.82,0,0,1,1.76,20.8c.06,19.68,0,39.36,0,59,0,6.54,1.49,12.52,5.75,17.67,4.82,5.83,11.31,8.14,18.5,8.33,13.64.37,27.3.34,40.94.47.95,0,1.9,0,2.86,0,12.64,0,14.08,1.42,14.55,14.91-4,1.14-8.12.36-12.19.58-8.91.48-12.47,3.51-14,12.36a57.63,57.63,0,0,0-.84,9.45q-.11,29.06,0,58.09a47.45,47.45,0,0,0,.7,8.51c1.28,6.87,4.33,10,11.24,10.81,5,.63,10.13.59,15.19.81,2,.09,3.87.35,3.93,2.92C1753.36,670.63,1754.89,679,1751.54,686.88Z"/><path class="cls-1" d="M1578,625a41.83,41.83,0,0,1-.23,13.94c.33,27.14-22.81,49.26-49.25,48.6-13.35-.33-26.7,0-40,0a89.76,89.76,0,0,0-20.83,2.15c-23.84,5.66-41.5,26.82-42,51.49-.55,27.95-.13,55.93-.14,83.9v17.74h-98.38c-1.14-8-.13-16.21-.33-24.4q-.32-12.87-.07-25.75c.06-3.62-1-5.3-4.81-5-18.36,1.43-34.72-5.26-51.37-11.85A831.71,831.71,0,0,0,1091.06,727a799.63,799.63,0,0,0-121.45-9.9l-19.2-.08c-21.31.1-42.58.85-63.8,2.76-13.28,1.2-26.53,2.62-39.8,3.94-9.92,1.68-19.82,3.48-29.78,5-32.83,5.07-65,13.12-96.9,22.2-2.42.69-4.9,1.16-7.35,1.73-20.34,7.43-41.12,13.69-61.19,21.94-7.27,3-14.62,5.79-21.93,8.65-6.2,2.43-12.55,4.05-19.3,3.38-2.63,1.61-5.58,1.08-8.37,1-8.73-.32-9.26-.49-9.29,9.63,0,11.44.06,22.88.1,34.33,0,12.09,0,12-12,11.91-25.76-.18-51.5-.26-77.26-.37-8.84,0-8.88,0-8.88-8.64,0-29.89.26-59.77,0-89.65-.27-26.56-16-47.22-40.92-54.49-7.37-2.15-15-2.69-22.63-2.67-14.62,0-29.27.67-43.85-.09-21.78-1.15-38.12-15-43.88-36.05a33.13,33.13,0,0,1-1.21-6.52c-2-28.56-1.32-57.15-.74-85.73-.14-13.33-.46-26.67-.37-40,.2-24.46-.8-48.94.86-73.4,2.25-33,19.35-55.74,48.76-69.37,15.49-7.18,31.59-13.07,47.51-19.33,68.56-27,139-47.95,210.85-63.94A1364.84,1364.84,0,0,1,790.6,269.12c37.27-4.26,74.59-7.52,112.09-8.83,2.48-.08,5.06.38,8.12-1.41,0-10.36.2-21.15-.11-31.91-.11-4.28,1.35-5.41,5.4-5.36l92.19,0c1.45,8.64.43,16.8.51,24.91.13,13.31.08,13.21,12.85,13.82a1501,1501,0,0,1,183.61,20c108.58,18.73,213.43,49.93,315.1,92.2,18,7.49,33.88,17.33,44.7,34,8,12.26,12.89,25.77,13,40.28C1578.69,506.18,1578.81,565.61,1578,625Z"/><path class="cls-2" d="M1529.28,748.16l2.1-6.8c3,6.92,2,14.06,2.35,21,.18,3.7,1,5.75,4.82,6.81a16.51,16.51,0,0,1,12.3,13.12c.78,3.77,2.75,4.22,5.93,4.15,6.63-.15,13.27,0,19.9,0,1.22,0,2.88,0,2.63,1.61-.14.89-1.76,1.55-2.72,2.31-4.12-.06-8.24,0-12.36-.22-7-.36-13.65-.77-16.18,8.33-1.13,4.06-5.26,6.28-9.48,7.17s-5.3,3.62-5.38,7.59c-.16,7.16.79,14.4-.53,22.08-3.38-2.09-3.05-4.64-3.08-7,0-3.81-.29-7.65,0-11.42.54-6.18-.37-10.95-7.47-12.93-4.21-1.18-6.53-5-7.44-9.25-.84-3.89-3-4.76-6.71-4.76-7.22,0-14.51.84-21.67-.72-.07-3.49,2.43-2.59,4-2.63,6.35-.18,12.7-.33,19-.15,3.51.09,5.81-.76,7.53-4.15,2.69-5.33,5.45-10.71,11-14,2.43-1.43,2.27-4.32,2.12-6.91C1529.78,757,1529.54,752.58,1529.28,748.16Zm5.39,26.85c-1.36,4.29-1.93,8.42.71,10.92,1.75,1.65,5.77,1.57,8.5-1.1A19.49,19.49,0,0,0,1534.67,775Zm4.36,15.16c-4.11-.64-5.86.68-5.64,4.46.09,1.69.31,3.25,2,3.73,2,.56,7.6-4.19,7.42-6.26C1542.56,789.22,1540.06,790.44,1539,790.17Zm-17.58.32c1.25,4.19,1.79,8.12,6.66,7.14,2.16-.43,2.53-3,2-4.69C1528.78,788.59,1525.29,790.29,1521.45,790.49Zm8.92-7.4c-.25-1.52-.51-3.63-2.47-3a4.93,4.93,0,0,0-3.77,4.84c.07,1.71,1.78,1.44,2.9,1.53C1529.33,786.61,1530.55,785.51,1530.37,783.09Z"/><path d="M808.3,445.33v111H788.47V485.62L769,500.53l-16.18,12.53L736.6,500.53l-19.51-14.91v70.75H697.26v-111l19.83,15.23L752.78,488l35.69-27.44Z"/><path d="M862.22,482.29v75.5H842.39V480.23a15.8,15.8,0,0,0-13.48-13.48h-4.44V447.08h4.28v.16a35.42,35.42,0,0,1,29.5,19.82,42.36,42.36,0,0,1,2.7,7.46,33.47,33.47,0,0,1,.95,8.09Z"/><path d="M988.63,479a32.67,32.67,0,0,1-9.2,22.84A32.76,32.76,0,0,1,956,557.32h-78.2V537.49H956a13.06,13.06,0,0,0,13-13,12.9,12.9,0,0,0-12.21-13h-59V491.65h59a13,13,0,0,0-.63-26h-78.2V445.81h78.2a32.62,32.62,0,0,1,32.67,32.67Z"/><path d="M1092.52,465a34.51,34.51,0,0,1,3.65,15.55v75.66h-19.83V478.64a15.8,15.8,0,0,0-13.48-13.48h-58.21V445.33H1061A34.48,34.48,0,0,1,1076.5,449a35.17,35.17,0,0,1,16,16.18Z"/><path d="M1213.53,500.37a32.75,32.75,0,0,1-23.47,55.52h-45.52a32.59,32.59,0,0,1-30.14-20,34.22,34.22,0,0,1-2.54-12.84V477.53a32.09,32.09,0,0,1,8.25-21.41,33.65,33.65,0,0,1,9.52-7.45,31.39,31.39,0,0,1,14.91-3.65h69v19.82h-69a13.07,13.07,0,0,0-13,13V493.4a32.48,32.48,0,0,1,12.37-2.54h46.79a32.75,32.75,0,0,1,23,10Zm-23.63,35.69a13.07,13.07,0,0,0,13-13,12.93,12.93,0,0,0-12.22-13H1143.9a13,13,0,0,0,.64,26h45.36Z"/></g></g></svg>