<svg xmlns="http://www.w3.org/2000/svg" viewBox="0 0 1920 1080"><defs><style>.cls-1{fill:#010202;}.cls-2{fill:#f2f2f2;}</style></defs><g id="Capa_2" data-name="Capa 2"><g id="Capa_1-2" data-name="Capa 1"><path class="cls-1" d="M1745.88,531.62c0-9.46-6.38-17.26-6.38-17.26-7.51-8.3-17.17-10.08-27.6-9.95q-18.8.22-37.59,0c-8.85-.12-9.22-.38-9.62-8.82a409.3,409.3,0,0,1,.23-48.28c.49-7,.62-7.19,7.79-7.49,10.11-.45,20.3-.06,30.38-1,15.76-1.44,24.74-11.13,25.45-27,.43-9.52-.35-19.11.27-28.61.89-13.67-5.09-22.88-16.92-28.75-9.6-4.75-19.28-9.33-29-13.85-91.15-42.41-185.12-77.05-282.62-101.81-82.07-20.83-165-37.49-248.91-48.89-34-4.61-68.1-7.93-102.46-8.65-12.09-.25-22.49,1.86-29.29,12.92a10.11,10.11,0,0,1-1.12,1.4,7.62,7.62,0,0,1-8.21,2.08c-3.22-.92-2-4-1.89-6.1.23-4.36-1.57-5.67-5.77-5.59l-77.25.08c-4.16,0-9-1.08-12.29.7-3.48,1.91-1.57,7.66-3.28,11.43-5.77.24-9.55-2.63-12.57-7.14-4.52-6.78-10.92-9.7-19.12-9.24-6.55.37-13.12.25-19.68.25-16.64,0-69.68,4.84-69.68,4.84C776,188.77,764,190.61,752,192.26c-45.48,6.32-90.6,14.69-135.54,24.07C547.9,230.64,480,247.45,413.56,269.8a1710.68,1710.68,0,0,0-197.5,80.47A112.45,112.45,0,0,0,203.47,357c-8.33,5.41-12.69,13.12-12.57,23.24.12,9.85.17,19.69,0,29.53-.2,14.22,8.27,28.16,26.29,29.11,9.22.49,18.47.42,27.71.72,9.57.3,10.13.63,10.23,10.31.16,15.51,0,31-.27,46.52-.13,7.12-.72,7.67-7.76,7.79q-18.78.34-37.58.16c-11.26-.12-22.13.54-29.9,10.89-5.25,7.5-5.53,12.41-5.53,12.41v94.5c0,11.33-.08,22.67.26,34s8.33,20.09,19.64,22.07a81.78,81.78,0,0,0,14.24,1.09q44.74,0,89.48,0c5.09,0,10.08.24,14.85,2.46,17.8,8.27,35.59,16.59,53.54,24.52a22,22,0,0,1,12,12.36c5,12.09,10.22,24.11,15.28,36.18,2.46,5.88,2.37,5.85-3.7,9.07-17.63,9.34-35.32,18.55-52.8,28.15-11.12,6.11-10.92,6.35-5,17.5q21.67,40.54,43.26,81.14a6,6,0,0,0,3.08,1.95c1.92.44,7.49-3.33,7.49-3.33,17.78-9.55,35.62-19,53.34-28.61,2.88-1.57,4.47-1.56,6.48,1.29,8.11,11.46,16.19,23.92,28.63,30.41,10,5.22,29.14,6.59,38.3,6.29s12.2-6.59,12.2-6.59c2.85-9.49,9.17-13.31,18.89-11.66a4.41,4.41,0,0,0,.89,0c3.88,0,8.38-1.15,11.46.43,4.1,2.11.59,7.76,2.59,11.3,1.34,1,2.87.82,4.33.82,27.75.06,55.49,0,83.22.22,4.77,0,6.06-1.76,6.17-6.25.17-6.45.5-6.5,7.14-6.54,10.44-.05,20.88,0,31.31,0,6.85-.06,13.64.08,20.43-1.71,39.2-10.36,79-17.5,119.26-22.56a1039.68,1039.68,0,0,1,108.77-7.8c46-.94,91.8,1.61,137.52,6.4,35.3,3.69,70.53,8.32,104.8,17.36,24.54,6.47,49,9.53,74.15,8.41h.9c13.57-.09,10.61-.43,11.47,10.83a1.62,1.62,0,0,0,1,1.52c29.2.24,58.4.18,87.6.32,4.46,0,4.44-2.46,4.65-5.65.49-7.06.62-7,7.66-7.11a44.62,44.62,0,0,0,4.48,0c10.55-1.19,18.82,1.28,21.87,12.91,1.05,4,4.09,5.29,8.15,5.23,8-.14,16.1,0,24.14.14,7.24.12,13.37-2.57,18.71-7.24,16.29-14.25,30.59-30.08,40.13-49.78,8.16-16.88,16.33-33.75,23.72-51,10-23.25,20.31-46.34,30.17-69.63,3.08-7.24,7.35-12.32,14.86-15.49,14.8-6.24,29.29-13.2,43.75-20.19a58.85,58.85,0,0,1,26.7-6c28.94.18,57.86-.06,86.8-.11a88,88,0,0,0,13.36-1c10.07-1.55,15.6-8,18.64-17,1.63-4.88,1.4-10,1.41-15.07C1745.87,646.18,1745.88,541.08,1745.88,531.62ZM1043.27,195.1a113.35,113.35,0,0,1,13.41.26c54.87,2.64,109.17,10.07,163.24,19.41,72.53,12.53,144.41,28,215.25,48.1C1526.15,288.61,1613.83,323,1699,364a86.22,86.22,0,0,1,7.87,4.23c6.24,3.85,6.78,4.91,7.93,15.41-217.45-101-443.07-166.64-683-180.36C1033.57,197,1038.22,195.46,1043.27,195.1Zm-34.87,18.09c.35-2.71,2.8-3,3.65-1.56,4.81,7.93,12.84,6.44,20,7.2,6.5.69,13.08.78,19.63,1,1.68.06,3.91.39,4-2.23,0-2.06-1.48-2.82-3.41-3.42-3.57-1.13-7.61-.5-10.76-3.3,157.24,10,310,41.9,458.58,94.43-4.53-1.08-9.07-2.05-13.56-3.23s-9.15-2.57-13.68-4c-2.28-.71-5-2.23-6.87-.84-5.39,4-10.14.69-15.1-.59-1.4-.37-3.48-.95-3.29-2.5.69-5.36-3.37-5.34-6.59-6.36-7.09-2.23-14.15-4.55-21.27-6.66-3.86-1.15-7.42-2.71-11.57.82-3.06,2.59-14.85-2.94-16-7.22-.72-2.71-2-2.92-4.13-3.41-8.69-2-17.3-4.28-26-6.39-1.41-.35-3.23-1-4.33-.41-6.81,3.43-12.85.15-18.81-2.14-14-5.36-28.18-9.18-43.19-10.22-5.86-.41-11.67-2.31-17.35-4a190.82,190.82,0,0,0-30.4-7.06c-6.93-.92-14,.15-20.92-2.42-5.84-2.18-11.88-3.84-17.91-5.43-5.75-1.51-11.6-2.7-17.43-3.89-2-.42-4.63-1.1-6,.61-3.88,4.85-8.72,2.29-13.23,2.25-1.17,0-2.82-.14-3-1.4-1.18-6.74-6.64-5.38-11-6.09-8.23-1.33-16.43-2.75-24.68-3.93-2.57-.37-5.87-.77-6,3.18-.16,3.59,2.55,4.08,7.57,3.2-9.23,2.7-16.16-.26-23.8,0-1-2.57,2.35-5.2.25-7.35s-5-1.47-7.58-1.84c-7.37-1-14.74-2-22.14-2.83a32.78,32.78,0,0,0-8,0c-2,.28-2.72,2.18-2.59,4.1s1.57,2.3,3.13,2.44c5.05.46,10.1.82,15.13,1.41,3.19.37,6.55-.29,9.58,1.35-.16,1.7-1.4,1.54-2.4,1.52q-36.21-.47-72.42-1c-3.28,0-6.57-.1-9.7-1.28A9.78,9.78,0,0,1,1008.4,213.19ZM210,370.12a61.49,61.49,0,0,1,9.21-5.4c95.06-46,193.41-83.3,295.59-110.13a2179.66,2179.66,0,0,1,215.85-45c46.53-7.3,93.28-12.85,140.41-14.31,6.07-.19,12.09-.71,15.7,5.65.24.41,0,1.08,0,2.05-239,14.18-464.65,79.56-681.47,180.06C204.26,377.4,205.78,373.16,210,370.12ZM437.2,817c-1.37-2.64-2.83-5.24-4.26-7.84-1.8-3.24-4.26-5-8.07-3.37-4.17,1.74-5.6,4.59-3.89,9.35a183.48,183.48,0,0,0,16.29,33.68c.6,1,1.63,1.79,1.26,3.76l-57,30.74c-3-1.59-3.93-4.88-5.4-7.61Q357.85,841.9,339.82,808c-3.64-6.81-3.63-6.87,3.2-10.51,18.61-9.94,37.25-19.85,56.33-30,4,8.94,7.79,17.59,11.7,26.19,2.87,6.34,5.15,7.53,9.91,5.43s5.48-4.57,2.84-11.1q-4.65-11.6-9.93-22.92c-1.42-3-1.2-4.78,1.89-6.44,16-8.54,31.9-17.3,47.9-25.84q18.7-10,38.86-3c33.88,11.65,40.22,56.23,16.74,77.45A61.46,61.46,0,0,1,507,816.07c-10.76,5.74-21.63,11.29-32.2,17.36-3.82,2.2-5.82,1.45-7.91-1.92-1.87-3-4-5.94-6.09-8.82-1.3-1.78-3.06-3.15-5.31-1.86-2.54,1.45-1.44,3.61-.43,5.42,2.29,4.15,4.71,8.2,7.31,12.7-3.23,3.64-7.32,4.91-11.32,7.73A306.1,306.1,0,0,0,437.2,817Zm116.16,48.66c0,.6-12.85.86-14,.36-.75-.34-.93-.59-.63-1.37,1.9-5-1.61-4.54-4.62-4.49A121.58,121.58,0,0,1,504,857.25c-2.5-.58-6.39-2.43-7,2.37-.55,4.27,3,4.11,6,4.79,8.41,1.92,17,1.78,25.91,2.7-7.37,2.86-12.1,8.16-15.09,15.14-1,2.24-2.89,2.83-5.14,2.71a20.42,20.42,0,0,0-4.46-.21c-14.05,2.45-24-4.44-32.67-14.22-5.14-5.79-10.33-11.52-15.48-17.27,1.87-3.26,5.21-3.3,7.43-5,4-3.1,7.42-2.53,10.9,1.14,1.86,2,4.31,5.46,7.38,2.72,3.22-2.88-.49-5.19-2.06-7.47-.83-1.17-2.15-2-2.28-4.11,8.53-4.49,17.17-9,25.74-13.57,5-2.67,9.9-5.46,14.71-8.4,19.44-11.92,28.4-42.34,20.4-63-8.92-23-31.24-38.12-55.92-36.14-9.06.73-17.27,4.23-25.25,8.4-3.05,1.6-6,3.71-10.41,4.3,0-9.15,0-17.71,0-26.26,0-2.31.46-5.1-3.32-4.9-3.48.19-3.33,2.77-3.34,5.16-.08,8-.33,16.12-.06,24.16.16,4.74-1.13,7.88-5.75,9.78-4.37,1.79-8.47,4.23-13.23,6.66-3.82-7.29-7.5-14.29-11.14-21.3-.69-1.32-1.24-2.71-1.9-4-1.18-2.39-3.29-2.45-5.35-1.71-2.76,1-2.25,3.05-1.3,5.12,1.85,4.06,3.6,8.17,5.58,12.17,1.59,3.18,3.37,6.29,5.19,9.36,1.2,2,3.14,4-.08,5.9s-3.94-.75-4.9-3c-4.71-10.93-9.58-21.79-14.19-32.76-4.73-11.24-11.75-19.77-23.51-24.65-16.48-6.84-32.55-14.64-48.71-22.22-7.21-3.37-14.71-4.46-22.57-4.43q-45.19.14-90.36,0A68.28,68.28,0,0,1,197,664.6c-6.05-1-7.95-3.36-8.41-9.57-.15-2.08-.16-4.18-.16-6.26q.09-55,.2-110c0-2.09,0-4.19.08-6.26.47-8.82,4.35-12.89,13.3-13.49,5.05-.34,10.14-.15,15.22-.18,10.43-.05,20.88.24,31.3-.21,12.44-.54,19.51-7.6,20.83-20.05a85.77,85.77,0,0,0,.32-8.93c-.07-13.42-.28-26.83-.27-40.25a29.33,29.33,0,0,0-2.3-12.16c-3.31-7.45-8.76-11.9-17.21-11.94s-16.71,0-25.06-.08a77.9,77.9,0,0,1-8.88-.69c-5.81-.73-8.76-4.64-10.29-9.84a22.27,22.27,0,0,1-.54-5.31c-.74-18-.8-18.1,15.75-25.4,29.09-12.86,57.92-26.36,87.93-37,9.19-5.62,19.47-8.66,29.43-12.41,27.45-10.33,55-20.33,82.49-30.63,9.18-3.45,18.61-6.1,27.86-9.29,24.19-8.35,48.68-15.73,73.29-22.74,36.62-10.4,73.74-18.71,110.88-27,29.08-6.47,58.39-11.81,87.72-16.73,34.9-5.85,70.08-10.2,105.34-13.78,17.76-1.8,35.7-1.29,53.31-4.68a27.46,27.46,0,0,1,10.35.43c-6.13,1.1-14.07,2.55-22,3.92-2.27.39-4.15,1.05-3.78,3.85.35,2.63,2.54,2,4.14,2,10.16.11,20.22-1.25,30.3-2.2a9.39,9.39,0,0,0,7.75-5.23,3.06,3.06,0,0,1,4-1c1.56.75,1.4,2.27,1.07,3.86-1.3,6.16-4.2,9-11.21,9.28-11.31.48-22.66.8-34,.68q-35.33-.4-70.49,2.63c-2.39.21-5,1.25-3.84-3.19.76-2.81-1.61-3.63-3.83-3.55-4.46.16-8.94.4-13.36,1-5,.68-9.93,2-14.94,2.63-4.27.54-7.76,1.48-10.58,5.41s-10.84,4.3-14.38,1.1c-2.43-2.18-4.6-2.32-7.26-1.71-11.9,2.7-24,4.53-35.42,9.16A36.24,36.24,0,0,1,675.85,241c-11.5-.64-22.26,3.52-33.13,6.4-8.93,2.37-17.71,4.48-27,5.28A105.41,105.41,0,0,0,583,261.26c-6.68,2.9-13.17,7.37-21.11,3.19-1.28-.67-3.49.29-5.24.65-7.85,1.64-15.67,3.47-23.55,5-3.36.63-5.76.93-6.49,5.47-.8,5-10.74,8.58-15.07,5.75-2.72-1.76-5-1.52-7.56-.81q-14.19,3.88-28.35,8c-1.57.45-3.26.81-4.22,2.75-3.51,7.13-9.54,9.61-16,6.51a7.86,7.86,0,0,0-6-.33c-9.72,2.7-19.43,5.45-29.23,7.9-2.34.59-4.55,1.27-3.59,3.74,1.9,4.9-1.28,5.72-4.54,6.46-4.26,1-8.43,5.39-13,.33-1-1.05-2.79.38-4.17.82-9.63,3-19.25,6.11-28.89,9.13-1.19.37-2.47.71-2.55,2-.43,6.68-6.12,7.15-10.53,9.23-2.71,1.29-5,1.75-6.95-1.21-1.38-2.06-3.09-1.9-5.37-.83-9.92,4.67-20,9.06-30,13.56-.28.52-.86,1.07-.82,1.56.65,6.83.57,6.76-3.73,12.65A47,47,0,0,0,296.47,391c0,35.48,0,71-.25,106.45-.06,7.6.95,15.15-1.58,22.9-1.24,3.8,1.78,8.93,1.73,13.79-.25,20.27.53,40.58-.33,60.82-.83,19.12,8.2,31.75,23.58,40.93,14.88,8.87,31.12,14.78,47.3,20.76,44.9,16.6,90.28,31.92,134.63,50a224.79,224.79,0,0,1,27.38,13,80.2,80.2,0,0,1,17.62,13.63c7.14,7.31,11.26,15.75,11.21,26.34-.17,31.31-.21,62.62.37,93.92C558.23,858.82,552.93,860.8,553.36,865.61Zm712.92-.4c-1.07,2.75-4.81.95-7.34,1.29a38.3,38.3,0,0,1-6.25.11c-1.7-.05-2.82-.79-2.32-2.76.9-3.7-1-5.58-4.23-6.65a161.93,161.93,0,0,0-31.25-7.29c-1.61-.2-3.83-.82-4.16,1.82a3.69,3.69,0,0,0,2.65,4.16,96.85,96.85,0,0,0,9.41,2.68c6.4,1.39,12.85,2.6,19.28,3.84a7.87,7.87,0,0,1,6.25,4.05c-12.68,1.28-24.72,1.34-36.22-1.64a943.17,943.17,0,0,0-121.94-23.05c-20.7-2.53-41.5-4.54-62.31-5.74-27.66-1.6-55.35-2.81-83.09-2-69.24,1.89-138.07,7.4-205.77,23-5.8,1.34-11.69,2.5-17.32,4.39-22.67,7.57-45.87,5.26-69,4.7.18-11,3-15.18,13-17.76,17.3-4.47,34.64-8.83,52.1-12.6,40.77-8.81,81.88-15.87,123.21-21.61,30.43-4.24,61-7.31,91.71-8,7.53-.16,7.52-.19,7.8,7.6.09,2.67.16,5.36.41,8,.18,2,1.3,3.32,3.5,3.06s1.82-2,1.84-3.42c.06-3.87.1-7.75,0-11.62-.21-5.32,3.64-4.33,6.77-4.56l16.79.19c3-.24,3,2.21,3,4.34.1,4.17.14,8.35.29,12.51a2.31,2.31,0,0,0,2.11,2.42c1.74.21,3-.59,3.19-2.28.35-3.25.39-6.52.62-9.78.45-6.32.47-6.36,6.65-6.29,16.41.18,32.76,1.35,49.1,2.78,71.4,6.27,141.6,19.37,211,37,4,1,8,2.31,11.93,3.66a12.9,12.9,0,0,1,7.07,5.19C1266.71,858.13,1267.53,862,1266.28,865.21Zm87.91-103.31c.19,28.31,0,56.63,0,85,0,3-.11,6,0,8.93S1353,860,1350,860c-6.26-.05-12.51,0-18.77.1-1.5,0-3,0-4.48,0-1.92,0-3.59.23-3.45,2.81.1,2.15,1.07,3.17,3.31,3.17,5.67,0,11.33,0,17,.18,12.77.45,10.37-.09,10.38,10.82s1.37,9.87-10.13,9.84q-31.29-.09-62.6-.14c-1.75,0-3.52-.16-5.47-.25-1.48-5.41-.34-10.79-.71-16.08-.23-3.31,1.61-3.89,4.4-3.91,6.86,0,13.72-.29,20.57-.46,2.08,0,4.17-.06,6.25-.18s3.4-1,3.19-3.31c-.16-1.91-1.5-2.3-3.09-2.34-1.78-.06-3.57-.14-5.36-.16-6.26-.09-12.53-.34-18.78-.17-5.22.15-8.54-1.09-10.7-6.71-2.75-7.16-9.57-10.31-16.75-12.09-15-3.72-30-7.46-45.12-10.91q-68-15.56-137.13-24.43c-26.61-3.41-53.33-5.76-80.14-6.71-2.39-.08-4.77-.17-7.15-.35-23.94-1.12-50.2.17-50.2.17q-23.69,1.07-47.33,2.64c-10.09.67-20.15,1.79-30.22,2.7-2.63,1.31-5.39,1.16-8.17.75-23.26,3.53-46.57,6.63-69.74,10.73-39,6.92-77.59,15.83-116,25.51-7.91,2-14.16,6.28-16.81,14.48-1.12,3.44-3.34,4.37-6.79,4.27-8-.22-16.1-.05-24.14-.1-2.65,0-4.77.34-4.52,3.78s2.75,2.5,4.63,2.54c7.45.16,14.91,0,22.35.33,6.51.27,6.5.46,6.67,6.57.35,13.79.35,13.76-13.78,13.72-19.38-.06-38.75,0-58.13-.08-8,0-8.11,0-8-7.58.2-14.83-.83-11.53,11.73-12.55,4.75-.39,9.53-.26,14.29-.53,2.19-.12,5.28.78,5.43-2.88s-2.85-3.1-5.12-3.15c-6.86-.11-13.71-.29-20.56-.13-4.08.1-6-1.09-5.8-5.54.38-11,.4-22,.57-33-1.09-19.05-.1-38.12-.48-57.18-.13-5.95-.61-11.89-.93-17.83-5.94-14.48-16.69-24.56-29.77-32.5-3-1.82-6-3.59-9.05-5.38a11.85,11.85,0,0,1-7.27-3.42c-22.42-8.51-44.83-17.07-67.3-25.52-3.25-1.22-4.46-3.11-4.34-6.62.26-7.73.19-15.46.05-23.18-.05-2.36,1.12-6-3.33-5.76-3.51.15-3,3.13-3.09,5.35-.17,6.84-.15,13.67-.25,20.51,0,1.46-.21,2.92-.32,4.22-2.82,1.35-4.86-.43-7-1.19C414.7,666.46,397,659.6,379,653.68c-7.85-2.57-12.88-6.78-14.78-14.73-3.12-6-6.22-12.09-9.39-18.11-.93-1.76-1.65-4.24-4.46-3.06-2.53,1.07-3.55,3.16-2.41,5.83,1.28,3,2.6,6,4.15,8.87,2.26,4.17,4.73,8.22,7.49,13-4.67.25-7.84-2.16-11.2-3.54a153.45,153.45,0,0,1-29.11-15.37c-10.66-7.32-15.93-17.11-15.7-30.19.32-17.57.08-35.13.08-53.36,4.39,1.26,4.59,5.4,6.58,7.91,1.17,1.47,2.33,3.15,4.25,2.35,2.76-1.15,1.66-3.37.69-5.23-2.33-4.48-4.34-9.21-7.22-13.32a23,23,0,0,1-4-17.72c-.11-6.51-.31-13-.32-19.53q0-47.6,0-95.19c0-5.32-.45-10.67.77-15.94-.57-1-.21-1.65.65-2.19,1.88-14.78,10.53-24.35,23.89-29.67,17.67-7.07,35.52-13.73,53.39-20.31,16.46-6.06,33-11.83,49.6-17.65,2.19-.77,4.32-2.13,8-1.18,0,6.7,0,13.72,0,20.74,0,2.35-.31,5.08,3.28,5.12s3.44-2.48,3.45-5c0-5.67,0-11.33.13-17,.18-8.4-1.53-7.11,6.9-9.8,23.53-7.53,47.06-15,70.69-22.24,35.29-10.77,70.81-20.77,107-28.46C671,250.27,711,244,751.27,239.47a1314.57,1314.57,0,0,1,140.11-8.07c4.47,0,9-.18,13.4-.65,7.41-.78,11.82-5.17,12.75-12.64a103.08,103.08,0,0,0,.79-19.63c-.25-3.5.42-5.55,4.73-5.46l73.11,0c3.93-.08,5.16,1.33,5.05,5.15a165.81,165.81,0,0,0,.4,17c.81,10.49,5.38,15.2,15.74,15.59,20.55.77,41.13.86,61.69,1.74q54.51,2.34,108.66,9.09c50,6.32,99.5,15.25,148.17,28.39,43.66,11.79,86.9,25,129.85,39.16,7,2.29,6.93,2.36,6.91,10,0,5.07-.26,10.15,0,15.2.14,2.56-1.8,6.74,3,7,5,.25,3.37-4,3.45-6.58.2-6.52.06-13.06.06-20,8.19.94,14.95,4.11,21.9,6.47,27,9.2,53.69,19.42,80.43,29.43,20.89,7.83,35,17.47,34.66,49.55-.43,39.65,0,79.31.16,119a23.81,23.81,0,0,1-3,11.93c-3.29,6-6.22,12.18-9.33,18.29-.69,1.35-1.43,2.74.15,3.93,1.89,1.41,3.6.33,4.7-1,2-2.47,3.73-5.25,5.55-7.87,2.22.47,1.8,2.22,1.79,3.54-.06,16.7-.35,33.4-.22,50.09.11,12.14-5.23,21.08-14.81,28-11.23,8.07-24,12.9-36.79,17.85-.74.18-1.83.75-2.14.46-1-.92-.38-1.95.37-2.82q4.93-9.44,9.86-18.87c-.22-2.54-1.15-4.54-4.46-5.26-5,8.88-10.08,17.79-14.94,26.83a16,16,0,0,1-9.14,7.89c-20.62,7.4-41.2,14.91-61.81,22.35a12.47,12.47,0,0,1-2.77,0c0-8.46.11-16.9,0-25.35-.08-4.37-1.81-5.76-5.22-4.74-1.79.54-1.18,2.5-1.94,3.68.14,8,0,16.1.49,24.11.27,4.82-1.9,6.63-6.12,8.16-17.05,6.21-34,12.77-50.91,19.26a241,241,0,0,0-26,11.8,93.6,93.6,0,0,0-18.82,13.49C1359.67,734.77,1354.09,746.91,1354.19,761.9ZM1731.5,651.11c0,6-1.22,11.31-8.21,12.92-1.44,1.39-3.29,1.26-5,1.26q-53.19,0-106.37-.1c-2.3.6-4.74.89-6.88,1.86-20.86,9.45-41.77,18.8-62.45,28.63-8.52,4.06-12.72,12.16-16.15,20.57-15,36.63-30.93,72.83-47.42,108.8a158,158,0,0,1-39.57,53.48c-5.05,4.45-10.32,6.79-17,6.35a29.07,29.07,0,0,0-5.36,0c-6.47.78-11.48-.36-13.89-7.6-1.66-5-7.11-6.82-12.44-10.45,9.2-.66,17.08-.22,24.66-2.31a37.82,37.82,0,0,0,4.33-1c2.26-.93,2.89-3,2.39-5.18-.56-2.49-2.74-1.87-4.36-1.63-5.88.86-11.7,2.1-17.68,2.47-5.36.34-10.69,1-16.07.64-2.24-.17-4.64-.13-3.71,3,1.21,4-1.11,3.82-3.7,3.65-1.19-.08-2.38-.15-3.57-.26-2.63-.24-7.65.06-7.5-.87.74-4.9-4.5-6.71-4.43-11.58.46-31.61.24-63.21.22-94.82,0-10.1,4.18-18.38,10.92-25.63,8.08-8.68,18-14.57,28.7-19.37,23.35-10.51,47.25-19.67,71.41-28.12,30-10.49,59.81-21.74,89.81-32.36a239.63,239.63,0,0,0,35.13-15.95c1-1.19,2-2.43,3.79-2.38,1.4-1.09,2.74-2.25,4.18-3.26,11.52-8.11,17.66-19,17.65-33.25,0-22-.62-44.09.21-66.1.82-21.31-.78-42.54-.18-63.83s.23-42.88.23-64.32c0-5.36-.15-10.73-.34-16.08a42.41,42.41,0,0,0-11.6-28.24c-2.68-2.86-5.65-5.09-1.45-8.94.26-.24-.87-2-1.36-3-9.47-4.13-19-8.07-28.37-12.48-2.72-1.27-4.53-1.53-7.21.12-4.44,2.75-15.67-.48-16.23-5.23-.54-4.53-2.94-4.13-5.59-5-7.3-2.45-14.52-5.13-21.81-7.61-4.1-1.38-7.76-2.76-12.68-.75-4.5,1.85-9.47-1.82-13.88-4-1.57-.78-.63-2.6-.15-4,.55-1.64,1.57-2.48,3.3-1.95,4.26,1.28,8.54,2.49,12.73,4,29.8,10.59,59.39,21.75,88.59,33.92a20.81,20.81,0,0,1,2.91,1.83c7.15,2.58,14.7,4.21,21.1,8.6l.19.12-.23-.27a21.71,21.71,0,0,1,4.3.87c24,10.4,47.84,21,71.9,31.21,6.13,2.6,8.88,6.13,7.84,12.76-.55,3.52-.38,7.14-.79,10.68-1,9.11-6,13.94-15.19,14.23-8.92.27-17.92.59-26.79-.16-11.9-1-22.48,9.87-21.74,21.7,1.09,17.5-1.15,35.1.18,52.64.89,11.78,7.58,18.51,19.49,18.95,14.88.55,29.78.33,44.67.54,11.69.16,16.33,4.43,16.4,16.12C1731.57,573.67,1731.48,612.38,1731.5,651.11ZM964.93,820.81l-10.12.23c-2.83,1.06-2.08,3.84.08,5.69s9.39,1.57,11.67-.45C968.23,824.8,967.45,821.71,964.93,820.81Zm0,0-10.12.23c-2.83,1.06-2.08,3.84.08,5.69s9.39,1.57,11.67-.45C968.23,824.8,967.45,821.71,964.93,820.81Zm0,0-10.12.23c-2.83,1.06-2.08,3.84.08,5.69s9.39,1.57,11.67-.45C968.23,824.8,967.45,821.71,964.93,820.81Z"/><path class="cls-2" d="M1614.31,544.38c-1.82,2.62-3.5,5.4-5.55,7.87-1.1,1.32-2.81,2.4-4.7,1-1.58-1.19-.84-2.58-.15-3.93,3.11-6.11,6-12.3,9.33-18.29a23.81,23.81,0,0,0,3-11.93c-.16-39.66-.59-79.32-.16-119,.34-32.08-13.77-41.72-34.66-49.55-26.74-10-53.4-20.23-80.43-29.43-7-2.36-13.71-5.53-21.9-6.47,0,7,.14,13.52-.06,20-.08,2.61,1.5,6.83-3.45,6.58-4.79-.25-2.85-4.43-3-7-.26-5.05,0-10.13,0-15.2,0-7.6,0-7.67-6.91-10-43-14.17-86.19-27.37-129.85-39.16-48.67-13.14-98.17-22.07-148.17-28.39q-54.14-6.84-108.66-9.09c-20.56-.88-41.14-1-61.69-1.74-10.36-.39-14.93-5.1-15.74-15.59a165.81,165.81,0,0,1-.4-17c.11-3.82-1.12-5.23-5.05-5.15l-73.11,0c-4.31-.09-5,2-4.73,5.46a103.08,103.08,0,0,1-.79,19.63c-.93,7.47-5.34,11.86-12.75,12.64-4.44.47-8.93.62-13.4.65a1314.57,1314.57,0,0,0-140.11,8.07C711,244,671,250.27,631.34,258.7c-36.14,7.69-71.66,17.69-107,28.46-23.63,7.21-47.16,14.71-70.69,22.24-8.43,2.69-6.72,1.4-6.9,9.8-.13,5.67-.13,11.33-.13,17,0,2.49.05,5-3.45,5s-3.27-2.77-3.28-5.12c-.05-7,0-14,0-20.74-3.68-.95-5.81.41-8,1.18-16.56,5.82-33.14,11.59-49.6,17.65-17.87,6.58-35.72,13.24-53.39,20.31-13.36,5.32-22,14.89-23.89,29.67-.86.54-1.22,1.23-.65,2.19-1.22,5.27-.75,10.62-.77,15.94q-.09,47.6,0,95.19c0,6.5.21,13,.32,19.53a23,23,0,0,0,4,17.72c2.88,4.11,4.89,8.84,7.22,13.32,1,1.86,2.07,4.08-.69,5.23-1.92.8-3.08-.88-4.25-2.35-2-2.51-2.19-6.65-6.58-7.91,0,18.23.24,35.79-.08,53.36-.23,13.08,5,22.87,15.7,30.19a153.45,153.45,0,0,0,29.11,15.37c3.36,1.38,6.53,3.79,11.2,3.54-2.76-4.74-5.23-8.79-7.49-13-1.55-2.86-2.87-5.86-4.15-8.87-1.14-2.67-.12-4.76,2.41-5.83,2.81-1.18,3.53,1.3,4.46,3.06,3.17,6,6.27,12.07,9.39,18.11,1.9,7.95,6.93,12.16,14.78,14.73,18,5.92,35.72,12.78,53.59,19.16,2.13.76,4.17,2.54,7,1.19.11-1.3.31-2.76.32-4.22.1-6.84.08-13.67.25-20.51.06-2.22-.42-5.2,3.09-5.35,4.45-.19,3.28,3.4,3.33,5.76.14,7.72.21,15.45-.05,23.18-.12,3.51,1.09,5.4,4.34,6.62,22.47,8.45,44.88,17,67.3,25.52a11.85,11.85,0,0,0,7.27,3.42c3,1.79,6.05,3.56,9.05,5.38,13.08,7.94,23.83,18,29.77,32.5.32,5.94.8,11.88.93,17.83.38,19.06-.61,38.13.48,57.18-.17,11-.19,22-.57,33-.16,4.45,1.72,5.64,5.8,5.54,6.85-.16,13.7,0,20.56.13,2.27.05,5.28-.57,5.12,3.15s-3.24,2.76-5.43,2.88c-4.76.27-9.54.14-14.29.53-12.56,1-11.53-2.28-11.73,12.55-.1,7.54,0,7.56,8,7.58,19.38,0,38.75,0,58.13.08,14.13,0,14.13.07,13.78-13.72-.17-6.11-.16-6.3-6.67-6.57-7.44-.3-14.9-.17-22.35-.33-1.88,0-4.39.77-4.63-2.54s1.87-3.8,4.52-3.78c8,0,16.1-.12,24.14.1,3.45.1,5.67-.83,6.79-4.27,2.65-8.2,8.9-12.48,16.81-14.48,38.4-9.68,77-18.59,116-25.51,23.17-4.1,46.48-7.2,69.74-10.73,2.78.41,5.54.56,8.17-.75,10.07-.91,20.13-2,30.22-2.7q23.65-1.57,47.33-2.64s26.26-1.29,50.2-.17c2.38.18,4.76.27,7.15.35,26.81.95,53.53,3.3,80.14,6.71q69.17,8.85,137.13,24.43c15.09,3.45,30.1,7.19,45.12,10.91,7.18,1.78,14,4.93,16.75,12.09,2.16,5.62,5.48,6.86,10.7,6.71,6.25-.17,12.52.08,18.78.17,1.79,0,3.58.1,5.36.16,1.59,0,2.93.43,3.09,2.34.21,2.31-1.17,3.18-3.19,3.31s-4.17.14-6.25.18c-6.85.17-13.71.42-20.57.46-2.79,0-4.63.6-4.4,3.91.37,5.29-.77,10.67.71,16.08,2,.09,3.72.25,5.47.25q31.31.09,62.6.14c11.5,0,10.14,1.13,10.13-9.84s2.39-10.37-10.38-10.82c-5.66-.19-11.32-.19-17-.18-2.24,0-3.21-1-3.31-3.17-.14-2.58,1.53-2.82,3.45-2.81,1.5,0,3,0,4.48,0,6.26-.05,12.51-.15,18.77-.1,3,0,4.35-1.14,4.22-4.2s0-5.95,0-8.93c0-28.32.16-56.64,0-85-.1-15,5.48-27.13,16.51-37.07a93.6,93.6,0,0,1,18.82-13.49,241,241,0,0,1,26-11.8c16.94-6.49,33.86-13,50.91-19.26,4.22-1.53,6.39-3.34,6.12-8.16-.47-8-.35-16.07-.49-24.11.76-1.18.15-3.14,1.94-3.68,3.41-1,5.14.37,5.22,4.74.15,8.45,0,16.89,0,25.35a12.47,12.47,0,0,0,2.77,0c20.61-7.44,41.19-14.95,61.81-22.35a16,16,0,0,0,9.14-7.89c4.86-9,10-17.95,14.94-26.83,3.31.72,4.24,2.72,4.46,5.26q-4.92,9.43-9.86,18.87c-.75.87-1.4,1.9-.37,2.82.31.29,1.4-.28,2.14-.46,12.75-5,25.56-9.78,36.79-17.85,9.58-6.88,14.92-15.82,14.81-28-.13-16.69.16-33.39.22-50.09C1616.11,546.6,1616.53,544.85,1614.31,544.38Zm-1272,60.47a3.13,3.13,0,0,1-4.07-.38,14.84,14.84,0,0,1-3.41-4.05c-4.63-8.62-9.2-17.28-13.6-26-.95-1.89-3.07-4.48.35-6,2.61-1.18,4.66.51,5.9,2.64,3.59,6.15,7,12.38,10.47,18.63,2.12,3.88,5.06,7.4,5.6,12.45A3.52,3.52,0,0,1,342.34,604.85Zm101-191.25c3-.17,3.22,1.93,3.22,4.14v16.94h.14c0,5.65,0,11.29,0,16.94,0,1.83-.05,3.67-2.55,3.84-3,.22-3.31-1.77-3.3-4,.06-11.29.08-22.58.17-33.87C441,415.88,440.7,413.74,443.31,413.6Zm-2.5-52.6c0-1.82-.07-3.78,2.41-3.92,2.89-.18,3.27,1.78,3.25,4.11-.05,5.65,0,11.29,0,16.94h.1c0,5.64,0,11.29,0,16.93,0,1.82-.13,3.56-2.65,3.75-3.07.23-3.31-1.68-3.3-3.94Q440.72,377.93,440.81,361Zm-.43,188.93h.44c0-5.66,0-11.31,0-17,0-1.77.12-3.75,2.57-3.86,2.27-.11,3.06,1.41,3.06,3.42q0,17.4,0,34.81c0,2.12-.92,3.27-3.22,3.13s-2.91-1.66-2.92-3.59C440.36,561.24,440.38,555.58,440.38,549.93Zm3.29,76.5c-2.3-.06-3.16-1.46-3.17-3.39-.05-11.25,0-22.49,0-33.74,0-2,.88-3.44,3.12-3.39s2.92,1.5,2.92,3.55c0,5.63,0,11.25,0,16.87h.19q0,8,0,16C446.75,624.49,446.77,626.53,443.67,626.43Zm.25-113.95c-2.66.07-3.7-1.27-3.65-3.79q.36-16.83.7-33.67c0-1.67.67-2.72,2.52-2.83,2.29-.12,3.13,1,3.12,3.15,0,5.61,0,11.23,0,16.84h.28c0,5.32,0,10.64,0,15.95C446.89,510.29,447,512.39,443.92,512.48Zm194,178.06c-1.92,5.39-5.42,9.78-8.8,14.26-11.4,9.28-24.26,12.4-38.32,7.87a36.93,36.93,0,0,1-23.3-48.74,37.6,37.6,0,0,1,49.91-21.37c2.19.92,4.32,1.94,6.47,2.91C640.16,657.78,642.94,676.43,637.93,690.54ZM841.23,669c-23.55,0-42.32-18.68-42.16-41.86a41.52,41.52,0,0,1,42.32-41.65c20.15.34,41.79,15.44,41.31,42.75A41.44,41.44,0,0,1,841.23,669Zm237,0a41.62,41.62,0,0,1-41.37-41.65c.1-23.67,18.46-42.14,41.81-42.06,23,.08,41.91,19.42,41.63,42.5C1120.05,650.09,1100.5,669.24,1078.24,669ZM1317,714.42c-21,0-38-16.28-37.69-37,.31-23.82,18.59-37.26,37.15-37.55s37.68,15.26,37.84,37.06A37.36,37.36,0,0,1,1317,714.42Zm156.7-279.74c0-5.65,0-11.29,0-16.94,0-1.79.1-3.87,2.5-3.9,1.81,0,2.1,1.73,2.19,3.22a315.87,315.87,0,0,1,0,35.62c-.08,1.47-.29,3.14-2.28,3.05s-2.23-1.78-2.26-3.24c-.08-5.93,0-11.88,0-17.81Zm-.16-74.59c0-1.57.41-3.06,2.27-3.14s2.66,1.28,2.68,2.86c.09,6.22,0,12.44,0,18.65h.08c0,5.63,0,11.25,0,16.88,0,1.82-.14,3.71-2.73,3.5-2-.17-2.11-1.71-2.13-3.21-.1-5.63-.2-11.25-.24-16.88C1473.48,372.53,1473.51,366.31,1473.54,360.09Zm-.06,146.66c-.33-4.72-.1-9.48-.1-14.21h.24c0-5.34-.06-10.66,0-16,0-1.89-.67-4.69,2.53-4.57,2.31.09,2.21,2.45,2.27,4.14q.33,8.88.42,17.76a128.36,128.36,0,0,1-.15,13.31c-.19,2.17,1.79,6.31-2.75,6C1472,512.92,1473.64,509,1473.48,506.75Zm2.09,120c-2.13-.09-3-1.36-3-3.5q.08-16.46,0-32.92c0-2.37.57-4.19,3.23-4.32s3.39,1.75,3.39,4.09c0,5.34,0,10.67,0,16h0c0,5.63-.08,11.27,0,16.9C1479.32,625.7,1478.05,626.82,1475.57,626.73Zm3.57-61.5c0,1.87.89,4.36-2.15,5.09-2.79.67-3.57-1.43-4.64-3.18q.21-14.65.44-29.32c0-2.07,0-4.15.25-6.21a2.46,2.46,0,0,1,2.25-2.32c1.67-.21,3.07.49,3.33,2.17.47,2.91.61,5.87.9,8.82C1479.41,548.59,1479.36,556.91,1479.14,565.23Zm119.26,8.52c-4.49,8.65-8.94,17.33-13.43,26a26,26,0,0,1-2,2.93c-1.25,1.69-2.63,3.57-5,2.57-3-1.23-2.54-4-1.47-6.07,4.86-9.44,9.51-19,15.39-27.92a8.12,8.12,0,0,1,6.52-3.6C1599.9,569.9,1599.41,571.81,1598.4,573.75Z"/><path class="cls-1" d="M841.39,585.52a41.52,41.52,0,0,0-42.32,41.65c-.16,23.18,18.61,41.82,42.16,41.86a41.44,41.44,0,0,0,41.47-40.76C883.18,601,861.54,585.86,841.39,585.52Zm.59,76.3c-19.39.15-35.66-16.13-35.19-35.21.45-18.36,16.36-33.5,35-33.34,20.85,0,33.23,17.27,33.83,33.54C876.32,645,859.81,661.69,842,661.82Z"/><path class="cls-1" d="M1078.68,585.27c-23.35-.08-41.71,18.39-41.81,42.06A41.62,41.62,0,0,0,1078.24,669c22.26.26,41.81-18.89,42.07-41.21C1120.59,604.69,1101.64,585.35,1078.68,585.27Zm0,76.65c-18.78.15-34.39-15.26-34.28-33.83.11-19.83,14.84-34.75,34.26-34.71a33.66,33.66,0,0,1,33.9,34.11A34.32,34.32,0,0,1,1078.64,661.92Z"/><path class="cls-1" d="M623.89,645.47c-2.15-1-4.28-2-6.47-2.91a37.6,37.6,0,0,0-49.91,21.37,36.93,36.93,0,0,0,23.3,48.74c14.06,4.53,26.92,1.41,38.32-7.87,3.38-4.48,6.88-8.87,8.8-14.26C642.94,676.43,640.16,657.78,623.89,645.47Zm-21.71,61.58c-16.29,0-29.15-13.15-29.15-29.85,0-16.36,13.11-30,29.07-30.12a30.06,30.06,0,0,1,30.75,30.4C632.64,694.12,619.26,707,602.18,707.05Z"/><path class="cls-1" d="M1316.46,639.86c-18.56.29-36.84,13.73-37.15,37.55-.27,20.73,16.68,37,37.69,37a37.36,37.36,0,0,0,37.3-37.5C1354.14,655.12,1335.09,639.57,1316.46,639.86Zm.37,67.62c-16.12.27-30.51-13.79-30.59-29.9-.07-16.41,13.65-30.54,29.75-30.63,17.23-.11,31.11,13.36,31.1,30.16C1347.09,693.19,1333.13,707.21,1316.83,707.48Z"/><path class="cls-1" d="M1598.4,573.75c-4.49,8.65-8.94,17.33-13.43,26a26,26,0,0,1-2,2.93c-1.25,1.69-2.63,3.57-5,2.57-3-1.23-2.54-4-1.47-6.07,4.86-9.44,9.51-19,15.39-27.92a8.12,8.12,0,0,1,6.52-3.6C1599.9,569.9,1599.41,571.81,1598.4,573.75Z"/><path class="cls-1" d="M1478.6,395.34c0,1.82-.14,3.71-2.73,3.5-2-.17-2.11-1.71-2.13-3.21-.1-5.63-.2-11.25-.24-16.88,0-6.22,0-12.44,0-18.66,0-1.57.41-3.06,2.27-3.14s2.66,1.28,2.68,2.86c.09,6.22,0,12.44,0,18.65h.08C1478.61,384.09,1478.63,389.71,1478.6,395.34Z"/><path class="cls-1" d="M446.55,395.06c0,1.82-.13,3.56-2.65,3.75-3.07.23-3.31-1.68-3.3-3.94q.12-16.94.21-33.87c0-1.82-.07-3.78,2.41-3.92,2.89-.18,3.27,1.78,3.25,4.11-.05,5.65,0,11.29,0,16.94h.1C446.56,383.77,446.58,389.42,446.55,395.06Z"/><path class="cls-1" d="M1476,513.18c-3.94-.26-2.33-4.14-2.49-6.43-.33-4.72-.1-9.48-.1-14.21h.24c0-5.34-.06-10.66,0-16,0-1.89-.67-4.69,2.53-4.57,2.31.09,2.21,2.45,2.27,4.14q.33,8.88.42,17.76a128.36,128.36,0,0,1-.15,13.31C1478.53,509.36,1480.51,513.5,1476,513.18Z"/><path class="cls-1" d="M1478.39,452.68c-.08,1.47-.29,3.14-2.28,3.05s-2.23-1.78-2.26-3.24c-.08-5.93,0-11.88,0-17.81h-.12c0-5.65,0-11.29,0-16.94,0-1.79.1-3.87,2.5-3.9,1.81,0,2.1,1.73,2.19,3.22A315.87,315.87,0,0,1,1478.39,452.68Z"/><path class="cls-1" d="M1479.14,565.23c0,1.87.89,4.36-2.15,5.09-2.79.67-3.57-1.43-4.64-3.18q.21-14.65.44-29.32c0-2.07,0-4.15.25-6.21a2.46,2.46,0,0,1,2.25-2.32c1.67-.21,3.07.49,3.33,2.17.47,2.91.61,5.87.9,8.82C1479.41,548.59,1479.36,556.91,1479.14,565.23Z"/><path class="cls-1" d="M443.92,512.48c-2.66.07-3.7-1.27-3.65-3.79q.36-16.83.7-33.67c0-1.67.67-2.72,2.52-2.83,2.29-.12,3.13,1,3.12,3.15,0,5.61,0,11.23,0,16.84h.28c0,5.32,0,10.64,0,15.95C446.89,510.29,447,512.39,443.92,512.48Z"/><path class="cls-1" d="M446.67,434.68c0,5.65,0,11.29,0,16.94,0,1.83-.05,3.67-2.55,3.84-3,.22-3.31-1.77-3.3-4,.06-11.29.08-22.58.17-33.87,0-1.67-.29-3.81,2.32-3.95,3-.17,3.22,1.93,3.22,4.14v16.94Z"/><path class="cls-1" d="M1479.27,623c0,2.7-1.22,3.82-3.7,3.73-2.13-.09-3-1.36-3-3.5q.08-16.46,0-32.92c0-2.37.57-4.19,3.23-4.32s3.39,1.75,3.39,4.09c0,5.34,0,10.67,0,16h0C1479.23,611.73,1479.15,617.37,1479.27,623Z"/><path class="cls-1" d="M1434,799.56c-14.27.08-25.19-10.35-25.54-24.38-.37-14.89,10.85-26.44,25.55-26.3a25.73,25.73,0,0,1,25.3,25A25.19,25.19,0,0,1,1434,799.56Zm.18-43.25c-10.43-.13-19.15,8.19-19,18.18.1,9.29,9.06,18.07,18.47,18.12s18.43-8.49,18.55-18.07C1452.25,766.74,1445.67,756.08,1434.19,756.31Z"/><path class="cls-1" d="M1479.15,780.46c4.16-2.92,4.72-6.34,6.7-8.73.91-1.1,2.09-2.23,3.79-1.43s1.78,2.15,1.23,3.72a165,165,0,0,1-14.66,31.26c-1.29,2.12-3.31,3.67-5.92,2-2.35-1.5-1.34-3.67-.4-5.5,2.7-5.23,2.6-10.86,2.62-16.49,0-8,.06-16,.06-24,0-2.17,1.1-3.35,3.17-3.38a3,3,0,0,1,3.39,3.22C1479.18,767.2,1479.15,773.25,1479.15,780.46Z"/><path class="cls-1" d="M1525.9,706.88c-2.17-.24-3.66-2-3.6-4.64,0-1.38,1-2.78,1.63-4.09,4.24-8.2,8.49-16.39,12.83-24.53a14.06,14.06,0,0,1,3.21-4.18,3.69,3.69,0,0,1,4.92-.24c1.35,1.07,1.34,2.6,1,4.07a14.56,14.56,0,0,1-1.28,3.3c-4.58,8.69-9.14,17.39-13.85,26C1529.82,704.32,1529.08,706.55,1525.9,706.88Z"/><path class="cls-1" d="M1631.11,355.43c.57,3.41,3.91,4,6.05,5.72,8.33,6.76,11.13,15.62,10.49,26-.13,2.1-1,3.29-3,3.62-1.75.29-3.27-.66-3.28-2.14-.13-13.16-9-21.22-17-29.84-.14-.15,0-.54,0-.92,1.56-3.1,5-.39,7-2.14Z"/><path class="cls-1" d="M1439.74,852.51c-2.71,0-3.64-1.35-3.28-3.44.32-1.85,1.86-3,3.18-4.19a100.05,100.05,0,0,0,17.52-20.12c.32-.5.68-1,1-1.45,1.5-2,3.55-3.93,5.9-2.45s.52,3.7-.3,5.55a57.28,57.28,0,0,1-19.72,23.7A38.91,38.91,0,0,1,1439.74,852.51Z"/><path class="cls-1" d="M1647.42,469.83c-2,8.89-3.68,18.59-8.4,27.36a26.21,26.21,0,0,1-3.62,5.06c-.89,1-2,2.43-3.72,1.26a3.62,3.62,0,0,1-1.37-4,22.75,22.75,0,0,1,1.23-4.28c3.58-8.82,6.92-17.72,8.88-27.07.56-2.67,1.78-4.57,4.74-4.06S1647.6,467,1647.42,469.83Z"/><path class="cls-1" d="M1498.47,756.31c-.34-.3-1.21-.76-1.53-1.46a3.78,3.78,0,0,1-.08-2.57c4.17-11.13,9.81-21.55,15.77-31.8,1-1.77,2.95-1.92,4.69-.85a3,3,0,0,1,1.35,3.84c-4.83,11.2-11,21.67-17.51,31.95A2.19,2.19,0,0,1,1498.47,756.31Z"/><path class="cls-1" d="M1479.17,721.39c0,5.64,0,11.28,0,16.92,0,1.73.11,3.77-2.47,3.87s-3.85-1.2-4-3.69c0-.59-.08-1.19-.07-1.78q0-15.59.07-31.17c0-2.08-.26-4.45,2.69-4.66,3.11-.23,4,1.6,3.91,4.48-.14,5.34,0,10.68,0,16Z"/><path class="cls-1" d="M1647.49,428.09V445c0,1.57-.31,3-2.19,3.21a3.66,3.66,0,0,1-4.14-2.55,5.13,5.13,0,0,1-.29-1.74c0-11,.07-22,.09-33,0-2,.84-3.49,3-3.66,2.68-.21,3.61,1.35,3.59,3.85,0,5.65,0,11.29,0,16.94Z"/><path class="cls-1" d="M343.58,602.09a3.52,3.52,0,0,1-1.24,2.76,3.13,3.13,0,0,1-4.07-.38,14.84,14.84,0,0,1-3.41-4.05c-4.63-8.62-9.2-17.28-13.6-26-.95-1.89-3.07-4.48.35-6,2.61-1.18,4.66.51,5.9,2.64,3.59,6.15,7,12.38,10.47,18.63C340.1,593.52,343,597,343.58,602.09Z"/><path class="cls-1" d="M443.67,626.43c-2.3-.06-3.16-1.46-3.17-3.39-.05-11.25,0-22.49,0-33.74,0-2,.88-3.44,3.12-3.39s2.92,1.5,2.92,3.55c0,5.63,0,11.25,0,16.87h.19q0,8,0,16C446.75,624.49,446.77,626.53,443.67,626.43Z"/><path class="cls-1" d="M446.53,567.34c0,2.12-.92,3.27-3.22,3.13s-2.91-1.66-2.92-3.59c0-5.64,0-11.3,0-17h.44c0-5.66,0-11.31,0-17,0-1.77.12-3.75,2.57-3.86,2.27-.11,3.06,1.41,3.06,3.42Q446.53,549.93,446.53,567.34Z"/><path class="cls-1" d="M273.15,469.34c.39-2.25-1.27-5.31,2.3-5.81s4.34,2.08,4.68,5c1.07,9.16,4.24,17.74,7.47,26.3,1.14,3,3,7.14-.5,8.74-3.77,1.71-5.06-3-6.57-5.55C275.24,489.17,273.88,479.23,273.15,469.34Z"/><path class="cls-1" d="M397,702.12c-.12,1.73-.49,3.15-2,4a3.4,3.4,0,0,1-4.72-.94,21.53,21.53,0,0,1-2-3,203.4,203.4,0,0,1-13.18-29.23c-.47-1.37-.81-3.13.81-3.94a3.53,3.53,0,0,1,4.06,1,12.79,12.79,0,0,1,2,2.91q6.8,13.05,13.51,26.14C396.14,700.1,396.61,701.19,397,702.12Z"/><path class="cls-1" d="M271.54,383.8c.6-12.33,8.53-23.51,18.84-26.9,1.54-.51,2.9-.9,3.88.62a2.9,2.9,0,0,1-.73,4c-1.56,1.37-3.32,2.51-4.8,3.95-5.41,5.27-9.7,11.12-10.3,19.06-.2,2.59,1,6.83-3.84,6.27C270.15,390.25,271.92,386.32,271.54,383.8Z"/><path class="cls-1" d="M278.32,428.17c0,5.34-.08,10.68,0,16,0,2.61-1.26,3.83-3.61,4.07-3,.31-3.23-1.81-3.23-4l.06-32c0-.29.05-.59.06-.89.07-2.28.78-4.23,3.4-4.31,2.84-.09,3.18,2.06,3.18,4.27q0,8.45,0,16.89Z"/><path class="cls-1" d="M486.34,799.79c-15,0-25.81-10.5-25.79-24.93,0-15.15,11.2-26.55,25.7-26.19,13.86.33,25,11.59,25,25.2C511.28,788.61,500.49,799.82,486.34,799.79Zm17.45-26c-.15-8.1-8-17.58-18-17.14-10.25.44-18,8-17.86,18.12A17.41,17.41,0,0,0,485.69,792C495.64,791.84,504,783.45,503.79,773.82Z"/><path class="cls-1" d="M439.83,781.12c0-5.75,0-9.46,0-13.17a67.38,67.38,0,0,1,.21-7.11,3.5,3.5,0,0,1,3.46-3.41c2.28-.06,2.92,1.69,3,3.59.13,4.15.06,8.31.23,12.46.41,10-1.78,20.24,3.23,29.75a2.88,2.88,0,0,1-.95,3.94c-2,1.2-3.51.1-4.42-1.5-5.7-10.06-11.55-20-15.92-30.78-.7-1.71-1.19-3.73.89-4.6a3.37,3.37,0,0,1,4.48,1.84A24.2,24.2,0,0,0,439.83,781.12Z"/><path class="cls-1" d="M780.29,841.33c-.57-4.91.61-7.07,4.86-7.81q15.76-2.76,31.66-4.42c.59-.06,1.18-.14,1.77-.18,2.23-.16,3.14,1.34,3.65,3.12.65,2.28-.7,3.13-2.7,3.56C806.81,838.35,793.94,839.91,780.29,841.33Z"/><path class="cls-1" d="M1071.31,833.21l-25.85-1.84c-2.49-.18-4.8-.53-4.75-3.91,0-2.28.26-4.35,3.26-4,11.54,1.31,23.2,1.42,34.67,3.42,2.54.44,3.64,1.54,3.44,4.13-.24,3.15-2.46,2.81-4.53,2.73s-4.17-.27-6.25-.41Z"/><path class="cls-1" d="M722.68,847.74a4.26,4.26,0,0,1,3.49-2.84q17-3.6,34-7.07c2-.4,4.4-.89,5.17,1.91.84,3.06-1,4.24-3.74,4.78-10.47,2.11-20.93,4.33-31.41,6.38A7.24,7.24,0,0,1,722.68,847.74Z"/><path class="cls-1" d="M1103.93,829.47a258.86,258.86,0,0,1,30.74,4.42,14.71,14.71,0,0,1,2.59.55c2,.79,2.32,2.45,2,4.36s-1.8,2.06-3.32,2.06a13.05,13.05,0,0,1-1.77-.13c-9.66-1.4-19.33-2.78-29-4.24a23.87,23.87,0,0,1-6-1.46c-1.39-.62-1.75-2.32-1.38-3.85a2.4,2.4,0,0,1,2.61-1.89C1101.56,829.33,1102.75,829.41,1103.93,829.47Z"/><path class="cls-1" d="M845,833.7c-1.77,0-3.55,0-5.32,0a2.2,2.2,0,0,1-2.37-2.07c-.17-1.47-.47-3.1,1-4a8.1,8.1,0,0,1,3.35-.89c10.62-.84,21.25-1.66,31.89-2.35,1.9-.13,4.5-.78,5,2.24s-1.9,4.15-4.36,4.38c-9.72.91-19.46,1.65-29.2,2.45Z"/><path class="cls-1" d="M1003.6,821.62h16.92c2.82,0,4.47,1.23,4.45,4.23,0,3.26-2.44,2.72-4.43,2.71-9.5-.06-19-.13-28.49-.27a34,34,0,0,1-5.3-.61c-2.51-.43-3.38-2-3-4.48s2-2.69,3.86-2.6c5.33.25,10.66.56,16,.85Z"/><path class="cls-1" d="M709.22,850.23c.33,4.45-2.6,5.95-5.81,6.72-10.33,2.46-20.71,4.69-31.08,7-1.44.31-3.05.52-3.62-1.33a3.44,3.44,0,0,1,1-4,10.54,10.54,0,0,1,3.16-1.49,208.87,208.87,0,0,1,32.8-7.3A14.39,14.39,0,0,1,709.22,850.23Z"/><path class="cls-1" d="M1191.4,850.78c-11.38-2.22-22.77-4.42-34.14-6.69-1.83-.37-3.5-1.3-3.2-3.54s1.9-2.78,3.93-2.39c11.69,2.21,23.38,4.4,35,6.68,1.88.37,3.38,1.63,2.76,3.74S1193.36,851,1191.4,850.78Z"/><path class="cls-1" d="M915.82,821.61c5-.28,10.07-.59,15.11-.8,1.67-.07,3.76-.54,4.06,2.07.26,2.33-.57,4.09-3.09,4.6a20.08,20.08,0,0,1-3.51.51c-10.1.19-20.19.36-30.28.43-1.66,0-3.71.21-3.68-2.55,0-2.45,1-4,3.57-4,5.93,0,11.87,0,17.81,0Z"/><path class="cls-1" d="M847.59,217.83c.19,3-1.33,3.84-3.76,4-4.72.38-9.43,1-14.15,1.36-5,.43-10.07.33-14.91,2.05a7.94,7.94,0,0,1-5.22.39c-1.47-.49-2.78-1.36-3-2.95s.87-2.8,2.2-3.55a6.63,6.63,0,0,1,2.54-.7c10.6-1.12,21.19-2.23,31.8-3.26C845.24,215,847.36,215.2,847.59,217.83Z"/><rect class="cls-2" width="1" height="1"/><rect class="cls-2" x="1919" y="1079" width="1" height="1"/><rect class="cls-2" y="1079" width="1" height="1"/><rect class="cls-2" x="1919" width="1" height="1"/></g><g id="Capa_3" data-name="Capa 3"><path d="M809.67,376.57v111H789.85V416.86l-19.51,14.91L754.16,444.3,738,431.77l-19.51-14.91V487.6H698.64v-111l19.83,15.23,35.69,27.44,35.69-27.44Z"/><path d="M863.6,413.53V489H843.77V411.47A15.8,15.8,0,0,0,830.29,398h-4.44V378.32h4.28v.16a35.35,35.35,0,0,1,29.5,19.82,42.36,42.36,0,0,1,2.7,7.46,33.47,33.47,0,0,1,.95,8.09Z"/><path d="M990,410.2a32.67,32.67,0,0,1-9.2,22.84,32.75,32.75,0,0,1-23.47,55.51h-78.2V468.73h78.2a13.07,13.07,0,0,0,13-13,12.92,12.92,0,0,0-12.21-13h-59V422.89h59a13,13,0,0,0-.64-26H879.3V377.05h78.19a32.63,32.63,0,0,1,32.68,32.67Z"/><path d="M1093.9,396.24a34.47,34.47,0,0,1,3.65,15.54v75.66h-19.83V409.88a15.8,15.8,0,0,0-13.48-13.48H1006V376.57h56.31a34.48,34.48,0,0,1,15.55,3.65,35.17,35.17,0,0,1,16,16.18Z"/><path d="M1183.51,376.57a35.81,35.81,0,0,1,35.85,35.85V451.6a35.81,35.81,0,0,1-35.85,35.84h-34.26a35.81,35.81,0,0,1-35.85-35.84V412.42a35.81,35.81,0,0,1,35.85-35.85Zm-34.26,19.83a16.25,16.25,0,0,0-16.18,16.18v39.18a16.24,16.24,0,0,0,16.18,16.17h34.26a16.24,16.24,0,0,0,16.18-16.17V412.58a16.25,16.25,0,0,0-16.18-16.18Z"/></g></g></svg>