<svg xmlns="http://www.w3.org/2000/svg" viewBox="0 0 1920 1080"><defs><style>.cls-1{fill:#f2f2f2;}.cls-2{fill:#010202;}</style></defs><g id="Capa_2" data-name="Capa 2"><g id="Capa_1-2" data-name="Capa 1"><rect class="cls-1" width="1" height="1"/><rect class="cls-1" x="1919" y="1079" width="1" height="1"/><rect class="cls-1" y="1079" width="1" height="1"/><rect class="cls-1" x="1919" width="1" height="1"/></g><g id="Capa_3" data-name="Capa 3"><path class="cls-2" d="M1790.14,487.52c.66-9.47-5-13.84-5-13.84-9-5.59-17.66-5.05-26.19-5.09-15.66-.08-31.32,0-47-.15-10.56-.12-11.85-1.51-12.81-12.09a30.13,30.13,0,0,1,2.42-15.57c6.51-14.29,4.46-29.4,3.32-44.22-.62-8.06-7.3-12.28-14.11-15.56-18.56-8.93-37-18.13-55.75-26.68A1607.56,1607.56,0,0,0,1271.2,238c-48.07-9.27-96.44-16.48-145.09-21.91-29.12-1.93-113.37-6.3-113.37-6.3-2.86,0-5.84-.53-8.43.49-1.32,9.44-1.32,9.46-10.14,9.55l-72.49.1c-3.52,0-5.84-.95-5.81-4.95,0-5.58-3.58-6.38-8.06-6.19-3.66.15-7.33.08-11,.19-33.64,1.06-67.17,3.68-100.65,7.05a1608.53,1608.53,0,0,0-173.59,27c-136.3,29-267,74.15-391.55,136.86-2.37,1.19-4.77,2.35-7,3.75-6.39,4-10,9.47-9.82,17.3.22,8.66.13,17.32.16,26a24.9,24.9,0,0,0,3,12.49c3,5.26,3,10.83,2.75,16.45-.38,9.92-2.72,12.43-12.6,12.62-14,.26-28,0-42,.07-9.92,0-19.94-.83-29.16,3.71-5.08,2.88-5.92,9.44-5.92,9.44,0,8.34.06,16.61,1.71,24.81a125.86,125.86,0,0,1,.58,47.58c-1.46,8.17-1.84,16.52-2.8,24.78-1.34,11.57,6.54,23.08,20.45,22.73,13-.32,26-.05,39,.1,10,.12,20-.6,29.75.68,1.26,2.9.49,5.48.09,8.1-4.06,26.36-5.83,52.9-6.42,79.55A83.82,83.82,0,0,0,214,705.9c1.53,9,5.77,13.72,14.73,15a110,110,0,0,0,15.94.78c34,0,68,.19,102-.16,8.49-.09,14,3.28,17.5,10.49,5.92,12.27,11.64,24.64,17.44,37,1,2.17,2.16,4.78-.71,6-7.13,3.11-4.4,7.7-2.24,12.27,7,14.72,14.27,29.27,20.34,44.39,2.48,4.27,4.82,8.63,7.47,12.8,1.84,2.91,4.65,4.3,7.45,1.47,3-3,4.48-2.11,7,.74,13,14.95,30,21.76,49.45,22.2,21.62.5,43.26.15,64.89.07,6.6,0,12.81-.85,12.54-9.87-.06-1.93,1.28-2.9,3.2-3,1.33,0,2.66,0,4,0,24,0,47.92.12,71.88,0,4.42,0,8.1,0,7.3,6.06-.54,4.14,1.6,6,5.68,6.19,5,.16,10,.66,14.94.66l608.92.18c5.64,0,11.29-.63,16.94-.79,3.6-.11,5.75-1.54,5.41-5.34-.45-5.11,1.51-6.94,6.83-6.91q36.46.24,72.94-.3c4.78-.06,6.54,1.45,6.76,6,.22,4.78,3.3,6.87,7.93,6.94,2,0,4,.23,6,.23q33-.17,65.92-.37c16.34,0,33-9.76,33-9.76,13.53-9.46,21.91-22.68,28.58-37.52,13.09-29.1,26.88-57.89,40.15-86.9,4-8.76,9.48-13.12,19.93-12.92,33,.6,66,.19,99,.11,5.32,0,10.68,0,16-.5,10.37-1,16.22-7.08,17.27-17.33a67.87,67.87,0,0,0,.39-7c0-24.64-.45-49.25-4.16-73.71-1-6.76-3-13.6-1.82-21.39,5.13,0,10.11,0,15.09,0,18.32-.1,36.66-.66,55-.17,11.54.3,21.09-11.49,19.32-21.73-1.52-8.83-2.3-17.8-3.34-26.71-1.43-12.22-3.08-24.52-.55-36.73C1786,516.49,1789.48,497,1790.14,487.52ZM345.23,706.19c5.47-7.31,11.16-11.54,17.19-16.75l12.25,25.83C365.84,709.7,357.57,704.61,345.23,706.19Zm35.71-18.67c-1.76-3.8-1.79-6.73,1.92-9.52,6.11-4.59,11.88-9.62,17.89-14.35,29.9-23.53,70.34-5.93,81.44,25.7,2.42,6.92,4.19,14,4.26,21.42.06,6.67,2.59,11.69,9.11,13.91,4.47,1.52,7.1,4.59,9,8.66q10.57,22.54,21.25,45c1.53,3.21,1.42,5.43-2.24,7.09-16.6,7.5-33.14,15.15-50.28,23-9.12-19.45-17.9-37.69-26.17-56.17-1.93-4.32-3.86-5.7-8.14-3.78-6.66,3-13.44,5.73-20.05,8.84-3.1,1.46-4.93,2.08-6.76-2C402,732.69,391.44,710.11,380.94,687.52Zm30.6,150.28c-8.07-17.24-15.77-33.4-23.2-49.67-2.93-6.4-2.62-6.43,3.67-9.27q20.4-9.25,40.72-18.67c7.42-3.42,7.38-3.45,10.62,3.62,6.51,14.17,13.07,28.32,19.53,42.51,2.84,6.21,2.84,6.45-3.58,9.18C443.47,822.24,427.82,829.39,411.54,837.8Zm153.15,2.43c-7.33.12-14.66-.08-22,.09-8.87.2-9,.27-11,8.84-.63,2.75-1.65,4.17-4.49,4.11-22.3-.47-44.68,1.84-66.87-1.47-10.39-1.54-19.28-6.64-27-15.06,16.12-7.73,31.6-15.24,47.17-22.58,16.84-7.94,33.76-15.69,50.63-23.57,6.62-3.09,6.88-3.3,3.66-10.57-6.45-14.59-13.24-29-19.91-43.53-1.39-3-3.12-5.91-4.21-9-1.88-5.32-4.31-9.39-10.9-9.61-4.73-.16-5.56-3.94-5.44-8,.31-10.9-2.54-21-7.4-30.71-14.71-29.33-47.08-42-77.73-30.47-2.34.89-4.61,2-8.27,3.56,16.21-11.21,32.53-14.78,50.32-10.4,20.72,5.11,37.27,15.92,46.58,35.81Q533.54,754,569,830.49c1.24,2.66,2.16,5.46,3.35,8.51C569.85,841.19,567.12,840.19,564.69,840.23ZM1656.13,578.17c-2.9,19.58-20.84,37.67-41.55,41.88a104.51,104.51,0,0,1-20.82,1.69q-57.32,0-114.62.12c-11.3,0-22.61-.22-33.29,4.53-1.08.49-2.59,0-3.9,0a4.39,4.39,0,0,1-2.07,3.23c-13.4,7.61-21.12,19.85-27.36,33.35q-24.24,52.47-48.59,104.89c-2.66,5.72-5.19,11.57-8.59,16.84C1344.92,800.85,1330.4,810,1310.6,810l-701,.11c-23.29-.33-39.82-11.15-49.65-32.17-11.24-24.07-22.36-48.19-33.55-72.28-8-17.15-15.73-34.42-24-51.41s-22.07-27.1-40.37-31.16c-3.86-.86-7.89-1-11.84-1.48q-46.81.12-93.62.24c-11.63,0-23.25.21-34.87.09-3.57,0-7.33.9-10.7-1.21-23.5-1.15-44.24-19.22-48.57-42.58a83.61,83.61,0,0,1-1.52-14.87c-.09-38.29,0-76.58,0-114.87,0-17.49,5.42-32.6,18.7-44.53,5.28-4.75,11.4-8,17.76-10.93A1577.29,1577.29,0,0,1,587.08,292.58a1596.17,1596.17,0,0,1,200.43-34.8A1566.23,1566.23,0,0,1,945,248.48l22.69-.15c22,.76,44,.58,65.91,1.63,180.35,8.56,354.37,46.17,521.72,114.13,20.3,8.24,40.27,17.3,60.35,26.1a155.13,155.13,0,0,1,14.25,7.12c18,10.19,27.21,25.82,28.1,46.36.35,8,.29,16,.28,24q0,48-.25,95.89C1658,568.44,1658.49,573.51,1656.13,578.17ZM1331,840.22h-41.9c-2.33,0-4.66,0-7,.09-11,.39-11,.4-12.61,11.51-1.06,2.63-3.34,1.51-5.11,1.51q-302.6,0-605.19-.17c-2.89,0-6,.86-8.6-1.36-3.62-11.56-3.62-11.62-17-11.72-14.93-.1-29.87-.24-44.79,0-4.67.07-7.1-1.48-8.85-5.81-3.45-8.58-7.5-16.93-11.3-25.37-1.4-2.15-2.82-4.3-2.74-7.19,3.17.27,4.2,2.35,5.41,4.21,10.83,8,23.43,11.22,36.45,13.23l703.86-.76c14.48-.45,27.17-5.55,38.46-14.42.69-1.89,2-3.09,4.93-4.16-1,2.64-.63,5-3,6.41-4.38,10-9,19.91-13,30C1337.26,840.57,1334.24,840.22,1331,840.22ZM1570,705.82c-15.07.52-24.39,8.67-30.44,21.95-11.85,26-24,51.85-36.12,77.74-3.09,6.62-6.2,13.25-9.61,19.71-8.56,16.22-22.06,25.38-40.33,27.21-19.93,2-39.92.68-59.89.78-3.3,0-5.31-.73-6.12-4.74-1.55-7.59-2-7.75-9.85-8.12-7-.33-14-.06-21-.23-3.26-.08-6.58.67-9.86-.51-.29-3.24,1.65-5.67,2.87-8.3q33-70.95,66.07-141.86c2.25-4.82,4.7-9.54,7.06-14.31,15-30.3,64-50,100.24-19.46,17.57,14.77,32.34,32.42,50.09,48.43C1571.06,705.27,1570.54,705.8,1570,705.82Zm197.93-120.44c-14.84.23-29.68.28-44.52.35-7.91,0-15.82,0-23.73-.05-13.15,5-17.84,13-15.35,27.13a423.84,423.84,0,0,1,5.88,83.26c-.06,2.63-.51,5.25-.78,7.88-.25,1.62-1.38,1.93-2.78,1.92l-65-.3h-12c-8.11.17-16.32,1.94-24.23-1.36-8-6-14.3-13.64-21.34-20.57q-13.45-13.26-26.61-26.81c-10.57-11-22.79-19.09-37.63-23-8.93-.21-17.72-2.21-26.8-1a82.07,82.07,0,0,0-44.66,20.37c1.27-5,5-8.09,8.61-11A53.66,53.66,0,0,1,1470,629.91c14.29-.38,28.6,0,42.9,0q45.39-.07,90.79-.22c1.32,0,2.63.24,4,.36l2-.11c12.25-2.31,23.75-6.46,33.91-13.88,9.24-9.2,17.07-19.33,20.91-32.06a1.66,1.66,0,0,1,.91-2.42c1.79-42.6.86-85.22.94-127.84,0-7.64.32-15.4-1.48-22.88-4.28-17.72-14.17-31.44-30.3-40.19-18.72-10.16-38.48-18.1-58-26.41a1546.37,1546.37,0,0,0-297.71-92,1622.18,1622.18,0,0,0-407.4-29.52c-185.05,10.13-363.33,50.47-534,123.35-15,6.4-29.76,13.25-44.6,19.95-27.2,12.27-40.16,33.74-40.27,63.2-.13,38-.21,75.93,0,113.89.12,19.76,6.21,37.27,21.56,50.7a58.11,58.11,0,0,0,31.23,14.38c4.28.56,8.54,1.27,12.82,1.91,14.63-.38,29.25-.6,43.88.24,28.65,0,57.3-1.53,86-.15,17.84-.16,31.6,7.85,42.23,22-2.32-1.53-4.75-2.92-6.95-4.61-10.77-8.3-22.75-13.42-36.44-14.34a25.13,25.13,0,0,1-4.75-1.27c-6,.33-11.92.76-17.87,1.61-14,2-26.21,7.57-36.28,17.37-16.24,15.78-32.37,31.68-48.18,47.88-4.77,4.89-9.59,7.14-16.52,7.06-28-.3-56-.05-83.94,0-1.67,0-3.34-.14-5-.07-4.2.19-6-1.66-5.86-6,.26-8.31-.08-16.66.36-25,1.16-21.93,2.87-43.8,6.51-65.5,2.22-13.2-5.48-22.85-19.09-23.4-14.3-.58-28.64-.33-43-.42-6.66,0-13.32.14-20,0-7.63-.21-7.82-.34-7.23-8.18.57-7.62,1-15.34,2.51-22.8,3.68-18,1.71-35.72-1.13-53.54-3.06-19.2-3.72-16.28,14.21-16.66,16-.34,32,0,48-.26,16.7-.26,26.11-10.23,26.39-27.07a64.53,64.53,0,0,0-4.32-25.3c-3.87-9.8-1.08-20.42-1.42-30.67-.14-4.05,4-5.06,6.84-6.43,18.21-8.91,36.39-17.88,54.82-26.3C398.81,319.57,509.87,283.52,624.64,259A1613.79,1613.79,0,0,1,799.07,231.7c31.48-3.21,63-4.93,94.6-7,4.59-.3,7.92.16,8.12,5.74.14,3.84,2.76,4.95,6.11,5.06.33,0,.66,0,1,0q51-.14,101.93-.26c3.63,0,6.79-.6,7-5.11.29-5.37,3.8-5.14,7.76-4.92,20.61,1.18,41.26,1.74,61.83,3.41,32.83,2.67,65.56,6.48,98.19,11.06a1611.08,1611.08,0,0,1,259.46,58.72C1526.4,324,1605,356.18,1681.36,394c6.3,3.11,8.59,7,8.55,13.85-.07,10.72-.28,21.2-4.45,31.35-3,7.24-2.81,15-1.74,22.67,1.92,13.82,11,22,25,22.32,16.31.36,32.64.2,49,.26,16.68.07,17.19.16,14.29,16.26-4.14,22.94-2.91,45.69.66,68.48a56.37,56.37,0,0,1,.76,12.9C1773.76,586.73,1770.14,585.35,1767.94,585.38Z"/><path class="cls-1" d="M1658.27,467.63c0-8,.07-16-.28-24-.89-20.54-10.13-36.17-28.1-46.36a155.13,155.13,0,0,0-14.25-7.12c-20.08-8.8-40.05-17.86-60.35-26.1-167.35-68-341.37-105.57-521.72-114.13-21.94-1.05-43.94-.87-65.91-1.63l-22.69.15a1566.23,1566.23,0,0,0-157.46,9.3,1596.17,1596.17,0,0,0-200.43,34.8A1577.29,1577.29,0,0,0,297.36,392.93c-6.36,2.92-12.48,6.18-17.76,10.93-13.28,11.93-18.7,27-18.7,44.53,0,38.29-.13,76.58,0,114.87a83.61,83.61,0,0,0,1.52,14.87c4.33,23.36,25.07,41.43,48.57,42.58,3.37,2.11,7.13,1.18,10.7,1.21,11.62.12,23.24-.06,34.87-.09q46.8-.14,93.62-.24c3.95.48,8,.62,11.84,1.48,18.3,4.06,32.11,14.26,40.37,31.16s16.06,34.26,24,51.41c11.19,24.09,22.31,48.21,33.55,72.28,9.83,21,26.36,31.84,49.65,32.17l701-.11c19.8,0,34.32-9.13,44.74-25.29,3.4-5.27,5.93-11.12,8.59-16.84q24.36-52.41,48.59-104.89c6.24-13.5,14-25.74,27.36-33.35a4.39,4.39,0,0,0,2.07-3.23c1.31,0,2.82.5,3.9,0,10.68-4.75,22-4.51,33.29-4.53q57.31-.06,114.62-.12a104.51,104.51,0,0,0,20.82-1.69c20.71-4.21,38.65-22.3,41.55-41.88,2.36-4.66,1.86-9.73,1.89-14.65Q1658.29,515.58,1658.27,467.63ZM473.51,445c-15,.21-27.21-11.06-27.6-25.51-.44-16,11.28-28.54,26.71-28.59a27.47,27.47,0,0,1,27.28,26.22A27,27,0,0,1,473.51,445Zm973-.25c-15.1,0-26.89-11.43-26.93-26.22,0-15.41,12.16-27.92,26.93-27.59s26.88,12.24,27,26.66C1473.7,433,1462,444.74,1446.48,444.78Z"/><path class="cls-2" d="M499.9,417.15a27.47,27.47,0,0,0-27.28-26.22c-15.43.05-27.15,12.59-26.71,28.59.39,14.45,12.59,25.72,27.6,25.51A27,27,0,0,0,499.9,417.15Zm-28,20.51c-9.41-.16-18.67-10.19-18.42-19.94.29-10.77,9.25-18.89,20.42-18.51A18.88,18.88,0,0,1,491.83,418C491.79,428.14,482,437.83,471.92,437.66Z"/><path class="cls-2" d="M1446.48,391c-14.77-.33-27,12.18-26.93,27.59,0,14.79,11.83,26.26,26.93,26.22,15.55,0,27.22-11.76,27-27.15C1473.36,403.21,1461.27,391.3,1446.48,391Zm-.17,46.53c-10,.19-18.84-8.9-18.88-19.33,0-10.89,8.73-19.22,20-19,9.43.16,18.16,9.24,18.25,19C1465.81,427.58,1456.05,437.31,1446.31,437.5Z"/><path class="cls-2" d="M1459.48,704.13c.36-18.14,13-26.26,27.09-25.14,17.62,1.39,26.79,11.86,26.86,28.08.07,15.76-13,26.42-29.46,25.34C1469,731.44,1458.63,719.44,1459.48,704.13Zm27.34-16c-11.11,0-19.25,7.88-19.06,18.43.18,9.77,8.87,18.65,18.3,18.71,9.81.07,19.52-9.45,19.34-19A18.93,18.93,0,0,0,1486.82,688.13Z"/><path class="cls-2" d="M405.86,705.39c.13-15.91,12.17-26.49,27.68-26.66,14.2-.16,26.82,13.36,26.46,27.19-.39,15.09-13,27.43-27.62,27C416.5,732.52,405.65,721.24,405.86,705.39Zm27.44-17.46c-10.9-.07-19.25,7.84-19.36,18.34-.1,9.42,8.7,18.63,18.16,19,9.9.41,19-8.61,19.12-18.92A17.81,17.81,0,0,0,433.3,687.93Z"/><path d="M808.14,444.86v111H788.31V485.15L768.8,500.06l-16.18,12.53-16.18-12.53-19.51-14.91v70.74H697.11v-111l19.82,15.23,35.69,27.44,35.69-27.44Z"/><path d="M862.06,481.82v75.5H842.23V479.75a15.81,15.81,0,0,0-13.48-13.48h-4.44V446.6h4.28v.16a35.55,35.55,0,0,1,13.48,3.65,35.17,35.17,0,0,1,16,16.18,41.76,41.76,0,0,1,2.7,7.45,33,33,0,0,1,1,8.09Z"/><path d="M988.47,478.49a32.67,32.67,0,0,1-9.2,22.84,32.75,32.75,0,0,1-23.47,55.51H877.6V537h78.2a13.06,13.06,0,0,0,13-13,12.93,12.93,0,0,0-12.22-13h-59V491.17h59a13,13,0,0,0-.63-26h-78.2V445.33H956A32.63,32.63,0,0,1,988.63,478Z"/><path d="M1092.36,464.53a34.47,34.47,0,0,1,3.65,15.54v75.66h-19.83V478.17a15.8,15.8,0,0,0-13.48-13.48h-58.21V444.86h56.31a34.47,34.47,0,0,1,15.54,3.65,35.17,35.17,0,0,1,16,16.18Z"/><path d="M1220.36,464.84a34.5,34.5,0,0,1,2.53,12.85v45.52a32.67,32.67,0,0,1-10.46,24.11,34.3,34.3,0,0,1-7.3,5.24,31.42,31.42,0,0,1-14.91,3.65h-69V536.38h69a13.07,13.07,0,0,0,13-13V507.83a32.49,32.49,0,0,1-12.38,2.54h-46.79a32.76,32.76,0,0,1,.48-65.51h45.52a32.59,32.59,0,0,1,30.14,20Zm-88.67,12.85a13.06,13.06,0,0,0,12.37,13h46.79a13,13,0,0,0-.63-26H1144.7A13.06,13.06,0,0,0,1131.69,477.69Z"/></g></g></svg>