<svg xmlns="http://www.w3.org/2000/svg" viewBox="0 0 1920 1080"><defs><style>.cls-1{fill:#f2f2f2;}</style></defs><g id="Capa_2" data-name="Capa 2"><g id="Capa_1-2" data-name="Capa 1"><path d="M995.84,643.36c-1.22-.28-2.52-.2-3.77-.38l-64.5.11c-1.56.23-3.18.16-4.71.49-1.35.29-1.92,1.55-2.1,2.82-.23,1.54.8,2.17,2.13,2.52l72.27.83c1.56-.3,3.53-.48,3.74-2.22A3.75,3.75,0,0,0,995.84,643.36ZM1033,448.28a27,27,0,0,0-1.78-3.36,50.46,50.46,0,0,1-7.86-24.07,47,47,0,0,0-1-5.6c-.45-2.37-1.37-4.44-4.24-4-2.69.46-1.86,2.79-1.91,4.56,0,.62.2,1.26.15,1.89-.32,4.29,3.9,9.7.33,12.39-2.85,2.15-8.46.95-12.82.78-5.57-.22-12.52,2.54-16.35-1.52l-59.61,1.73c-8.47-.16-16.95-.05-25.87-.05-.36-5.77,1-10.58,1.88-15.45.36-2,.05-3.93-2.48-4.25a3.44,3.44,0,0,0-4.13,2.95,41.23,41.23,0,0,0-.74,4.67c-.93,8.52-2.5,16.81-7.39,24.14a21.88,21.88,0,0,0-2.23,5.2,2.9,2.9,0,0,0,1.59,3.92,3.13,3.13,0,0,0,4.13-1.3c1.71-3,3.24-6.14,4.66-9.31,1.16-2.59,2.83-3.83,5.81-3.78q12.35.22,24.69,0l67.55,0c6.33,0,12.67.2,19-.08,4.32-.19,7.18.8,8.56,5.39.89,3,2.76,5.66,4.44,8.32,1,1.56,2.74,1.39,4.25.64A2.68,2.68,0,0,0,1033,448.28ZM995.84,643.36c-1.22-.28-2.52-.2-3.77-.38l-64.5.11c-1.56.23-3.18.16-4.71.49-1.35.29-1.92,1.55-2.1,2.82-.23,1.54.8,2.17,2.13,2.52l72.27.83c1.56-.3,3.53-.48,3.74-2.22A3.75,3.75,0,0,0,995.84,643.36ZM1033,448.28a27,27,0,0,0-1.78-3.36,50.46,50.46,0,0,1-7.86-24.07,47,47,0,0,0-1-5.6c-.45-2.37-1.37-4.44-4.24-4-2.69.46-1.86,2.79-1.91,4.56,0,.62.2,1.26.15,1.89-.32,4.29,3.9,9.7.33,12.39-2.85,2.15-8.46.95-12.82.78-5.57-.22-12.52,2.54-16.35-1.52l-59.61,1.73c-8.47-.16-16.95-.05-25.87-.05-.36-5.77,1-10.58,1.88-15.45.36-2,.05-3.93-2.48-4.25a3.44,3.44,0,0,0-4.13,2.95,41.23,41.23,0,0,0-.74,4.67c-.93,8.52-2.5,16.81-7.39,24.14a21.88,21.88,0,0,0-2.23,5.2,2.9,2.9,0,0,0,1.59,3.92,3.13,3.13,0,0,0,4.13-1.3c1.71-3,3.24-6.14,4.66-9.31,1.16-2.59,2.83-3.83,5.81-3.78q12.35.22,24.69,0l67.55,0c6.33,0,12.67.2,19-.08,4.32-.19,7.18.8,8.56,5.39.89,3,2.76,5.66,4.44,8.32,1,1.56,2.74,1.39,4.25.64A2.68,2.68,0,0,0,1033,448.28ZM1793.4,462.1s-1.1-71.6-1.1-78.51a12.86,12.86,0,0,0-4.6-10.21c-8.18-6.8-16.5-11.27-24.59-16.1q-25.66-15.3-51.27-30.7c-23.58-14.18-47.29-28.14-70.63-42.69-11.42-7.12-23.32-10.93-36.79-10.09-7.26.46-14.57.13-21.84.57-15.18.95-24.49,9.88-26.09,25-.47,4.39-.29,8.85-.32,13.29-.07,12,.17,24.07-.23,36.1-.37,10.57-7.33,17.47-17.87,18.54-1.89.19-3.8.22-5.69.22q-94.08,0-188.16,0a89.23,89.23,0,0,1-17-1.63c-3.08-.6-4.75-1.77-4.28-4.85.7-4.47-2.32-5.19-5.48-6-2.77-.68-5.5-1.45-8.26-2.15-15-3.76-30-7.55-45.09-11.23-2.5-.6-5.94-2.54-6.49,2.25-.76,6.46-5,5.2-9.08,4.36q-45.13-9.15-90.71-15.63C1096,323.81,1034,318,971.45,317.91L950,317.77c-31.35.36-62.67,1.37-94,4-43.55,3.69-86.89,8.91-130,16.33-20.79,3.57-41.52,7.46-62.23,11.2-3.26-9-3.27-9.1-12.67-6.77-16.27,4-32.51,8.15-48.76,12.2-3.14.78-6.49,1.39-5.9,5.8s-2.17,4.93-5.62,5.52a135.13,135.13,0,0,1-22.72,1.43q-89.8.06-179.6,0a81,81,0,0,1-8.54-.25c-9.21-1-15-6.61-16.08-15.81a91.65,91.65,0,0,1-.18-11.37c.09-12,.44-24.07.3-36.09-.18-18.05-13.85-30.78-30-29.79-2.84.18-5.7-.07-8.55,0-31.46,0-38.56,4.69-38.56,4.69L131.53,372.21c-4.6,2.77-4.68,8.24-4.68,8.24v85.86c0,3.11-1.23,7.48,1.41,9,5.3,3.08,3.72,7.68,3.76,11.74.23,28.5.49,57,.14,85.51-.16,11.69,4.3,20.18,14,26.15Q174,615.88,202,632.87c10.34,6.28,21.61,6.67,33.06,4.34,8.07-1.64,12.9-7.6,13.81-16,.23-2.2.35-4.41.51-6.62a9.52,9.52,0,0,1-.05-5.83c-.87-16.13-.26-32.25-.18-48.39,0-1.54-.23-3.42,1.39-4.25,2.14-1.08,3.76.5,4.74,2,5.57,8.72,14,9.29,23.23,9.19,27.85-.31,55.71-.11,83.57-.06,9.46,0,9.89,0,12.48,9.33,8.24,29.81,16.15,59.71,24.15,89.59,4.81,18,9.2,36.1,14.34,54,10.38,36.12,32.37,62.36,67.2,77.41,22.41,8.56,40.38,8.68,40.38,8.68h856.11c8.23,0,16.47,0,24.7-.48,6.29-.36,12.73-.77,18.78-2.35,44.29-11.58,74-38.86,86.35-83.24,12.61-45.36,24.12-91,36.22-136.54,4.37-16.45,4.49-16.45,21.91-16.48,27.55-.05,55.11-.16,82.67,0,5.84,0,10.42-1.37,14.09-6,2.06-2.62,4.2-5.62,9.26-4.92,0,5.05-.06,10,0,15,.26,16.45-.58,32.94.76,49.37.81,10.13,5.69,15.49,15.83,16.89,10.79,1.47,21.3.68,31-5.43,16.05-10.1,32-20.53,48.74-29.37,15.41-8.12,21.7-19.75,21-36.83-.73-16.75-.11-33.56-.08-50.35,0-10.13,0-20.26.13-30.4,0-2.47-.88-5.56,1.1-7.27C1794.33,473.49,1793.35,467.7,1793.4,462.1Zm-1085-105.79c46.11-8.24,92.48-14.69,139.15-18.83,61.56-5.47,123.19-6.93,185-2.93,70.52,4.57,140.35,14.16,209.68,27.58a25.06,25.06,0,0,1,3.67,1c2.55.9,7-.51,5.5,5.15s-1.71,6.33-7.57,4.95c-25.57-6-51.52-10-77.45-14.05-33.16-5.15-66.53-8.43-100-10.75-24.32-1.68-48.66-2.88-75.34-3.66,4.77-2.28,9.12-2,9.31-6.81-1.68-2.48-4.47-1.57-6.79-1.59-23.1-.23-46.2-.32-69.3-.42-1.7,0-4-1-4.59,1.75-.34,1.66.65,2.92,1.95,4,1.08.92,3.18.81,3.13,3.36-9.69.37-19.41.78-29.13,1.1A1245.27,1245.27,0,0,0,679.06,372.4c-.31.07-.61.19-.92.25-8,1.37-9.64,2.65-10.44-8.49C681.19,361.55,694.75,358.75,708.38,356.31Zm-33.91,24.55a1259.85,1259.85,0,0,1,231.36-27.48c1.95,3.68.37,7.4-.19,10.93-1.19,7.47-2.87,14.87-4.32,22.3-.25,1.24-.38,2.5-.57,3.75a3.51,3.51,0,0,0,2.67,4.33c2.87.85,4.08-.86,4.55-3.3,2.07-10.54,4.07-21.09,6.16-31.62.52-2.6-.59-6.54,3.14-7.07,0,0,52.57.36,70.37,0,16.55-.36,16.51-1.51,19.15,13.95,1.27,7.48,2.76,14.92,4.24,22.36a15.73,15.73,0,0,0,1.51,4.42c.85,1.6,2.41,1.84,4.08,1.24a2.69,2.69,0,0,0,2-2.85c-.27-2.83-.56-5.66-1-8.47-1.66-9.57-3.41-19.13-5.36-30a1223,1223,0,0,1,232.87,27.48l75.07,18.56c24.88,7.21,49.85,14.12,74.57,21.83l26.54,8.4c11.68,3.91,23.57,7.29,35,11.78a97.6,97.6,0,0,1,61.66,93.68,88.48,88.48,0,0,1-3.11,20.56c-14.11,51.44-27.82,103-42.53,154.26-8.52,29.66-29.14,48.72-58.5,60.45,0,0-10.11,3.36-18,3.69q-15.66.63-31.32.67l-833.17-.32a77.87,77.87,0,0,1-32.69-7.13c-25.2-12-42.37-28.78-50.39-54.73s-14.92-52.2-22-78.4c-7.37-27.11-15.52-54-22.11-81.33-11.69-48.41,18.34-97.13,61-112,13.1-4.58,26.4-8.56,41.12-13.31L521,422.71c27.65-8.93,55.66-16.66,83.57-24.72C629.17,390.94,674.47,380.86,674.47,380.86Zm1103.77,76.29c0,2.19.7,5.13-1,6.38-5.43,3.94-4,9.46-4,14.63-.17,30.39-.5,60.79-.19,91.19.09,8.29-2.7,13.62-9.69,17.77-17.94,10.64-35.67,21.66-53.48,32.52a22.55,22.55,0,0,1-8.9,3c-13.84,1.86-15.12.73-15.06-13.13,0-16.46-.05-32.93,0-49.39,0-4.6-1-8.67-4-12.31-7.56-9.17-18.4-10.24-27.24-1.34-5,5-10,6.43-16.72,6.34-26.6-.33-53.2.2-79.8-.19-17.58-.25-24.82,6.75-29,22.49-11.82,44.88-23.94,89.69-35.74,134.57-5.66,21.54-14.7,40.92-31.87,55.94-17.82,15.58-38.24,24.4-61.95,25.19-8.55.29-17.1.26-25.65.26l-831.56-.17c-9.48,0-19,.08-28.46-.94-41.75-4.5-73-29.92-84.77-70.58-10.14-35.19-19.08-70.73-28.54-106.11-3.18-11.89-6.24-23.83-9.53-35.7a65.06,65.06,0,0,0-4.42-12.45c-3.7-7.16-9.43-11.87-18-12s-17.09-.33-25.64-.37q-32.3-.15-64.6-.15c-5.2,0-9.44-1.14-13.26-5.56-4.71-5.42-11.15-8.33-18.76-5.47-8,3-11.94,9-12.61,17.28-.18,2.2-.09,4.43-.1,6.65,0,14.24.13,28.49-.15,42.74-.08,4.57,2.24,11.17-1.84,13.3-5,2.64-11.74,1.55-17.64-.08a11.25,11.25,0,0,1-2.58-1.21q-28.84-17.34-57.71-34.68c-4.42-2.66-6.92-6.2-6.61-11.6.21-3.47-.14-7-.16-10.44-.13-29.13-.2-58.25-.41-87.38,0-4.3.74-8.81-3.46-12.24-2-1.62-1.33-4.75-1.35-7.24-.11-20.27.15-40.54-.4-60.79-.23-8.68,3.08-14.05,10.39-18.38,34.28-20.28,68.38-40.87,102.52-61.37q18.69-11.24,37.3-22.63a29.7,29.7,0,0,1,17.08-4.63c7.9.25,15.83-.09,23.75.09,10.61.22,14.74,3.92,16.17,14.48a78.67,78.67,0,0,1,.37,10.42c0,12.68-.3,25.35.12,38,.5,14.65,9.95,25.57,24.2,29a70.93,70.93,0,0,0,16.93,1.86q89.31-.06,178.61-.07c9.19,0,18.36-.5,27.32-2.73a8.15,8.15,0,0,1,5.33.2c5.08,1.84,7,.3,6.17-5-.61-4-2.13-7.86-3.41-12.35l51.28-13.71c1.62,9.15,5.24,17.57,6.15,27.07-31.45,6.54-61.89,14.89-92.23,23.6-34.63,9.93-69,20.74-103.17,32.14-37.1,12.37-69.49,44.95-72.63,98.1-.58,9.82,1.21,19.58,3.74,29.07,13.13,49.13,26.21,98.27,39.7,147.31,9.47,34.4,31.07,58,64.71,70.4A80.25,80.25,0,0,0,526.79,782l839.38.16c13.26,0,26.62,1.14,39.73-2.06,37-9,62.77-31.25,74.24-67.56,10.08-31.9,17.88-64.53,26.59-96.86,5.43-20.13,10.64-40.31,16-60.46,12-45.11-12.33-101.31-64.62-121.09-26.91-10.17-54.6-18-82.06-26.49-37.45-11.62-75.23-22-113.55-30.34-4.2-.91-5.29-2.28-4.12-6.27,2.13-7.23,4-14.55,6-21.94l50.72,13.47c-1.3,4.69-2.59,9.19-3.79,13.71-1,3.65.55,6,4.24,4.74,4.83-1.71,9.34-.47,13.9.23a152.56,152.56,0,0,0,23.67,1.47q86,.07,172,0a140.69,140.69,0,0,0,14.23-.55c19.74-2,31.51-14.67,31.92-34.56.27-13,0-26,0-38.95a71.41,71.41,0,0,1,.27-8.54c.76-6.2,4-9.89,10.24-10.55a173.47,173.47,0,0,1,36,.15c4.17.42,7.67,2.79,11.19,4.89q69.6,41.6,139.25,83.12c7,4.15,10.3,9.52,10.19,17.71C1778.12,416,1778.28,436.56,1778.24,457.15Zm-889.7-4.9a3.13,3.13,0,0,0,4.13-1.3c1.71-3,3.24-6.14,4.66-9.31,1.16-2.59,2.83-3.83,5.81-3.78q12.35.22,24.69,0l67.55,0c6.33,0,12.67.2,19-.08,4.32-.19,7.18.8,8.56,5.39.89,3,2.76,5.66,4.44,8.32,1,1.56,2.74,1.39,4.25.64a2.68,2.68,0,0,0,1.39-3.89,27,27,0,0,0-1.78-3.36,50.46,50.46,0,0,1-7.86-24.07,47,47,0,0,0-1-5.6c-.45-2.37-1.37-4.44-4.24-4-2.69.46-1.86,2.79-1.91,4.56,0,.62.2,1.26.15,1.89-.32,4.29,3.9,9.7.33,12.39-2.85,2.15-8.46.95-12.82.78-5.57-.22-12.52,2.54-16.35-1.52l-59.61,1.73c-8.47-.16-16.95-.05-25.87-.05-.36-5.77,1-10.58,1.88-15.45.36-2,.05-3.93-2.48-4.25a3.44,3.44,0,0,0-4.13,2.95,41.23,41.23,0,0,0-.74,4.67c-.93,8.52-2.5,16.81-7.39,24.14a21.88,21.88,0,0,0-2.23,5.2A2.9,2.9,0,0,0,888.54,452.25Zm107.3,191.11c-1.22-.28-2.52-.2-3.77-.38l-64.5.11c-1.56.23-3.18.16-4.71.49-1.35.29-1.92,1.55-2.1,2.82-.23,1.54.8,2.17,2.13,2.52l72.27.83c1.56-.3,3.53-.48,3.74-2.22A3.75,3.75,0,0,0,995.84,643.36Z"/><path class="cls-1" d="M1456.27,441.4c-11.45-4.49-23.34-7.87-35-11.78l-26.54-8.4c-24.72-7.71-49.69-14.62-74.57-21.83l-75.07-18.56a1223,1223,0,0,0-232.87-27.48c1.95,10.85,3.7,20.41,5.36,30,.48,2.81.77,5.64,1,8.47a2.69,2.69,0,0,1-2,2.85c-1.67.6-3.23.36-4.08-1.24A15.73,15.73,0,0,1,1011,389c-1.48-7.44-3-14.88-4.24-22.36-2.64-15.46-2.6-14.31-19.15-13.95-17.8.38-70.37,0-70.37,0-3.73.53-2.62,4.47-3.14,7.07C912,370.3,910,380.85,908,391.39c-.47,2.44-1.68,4.15-4.55,3.3a3.51,3.51,0,0,1-2.67-4.33c.19-1.25.32-2.51.57-3.75,1.45-7.43,3.13-14.83,4.32-22.3.56-3.53,2.14-7.25.19-10.93a1259.85,1259.85,0,0,0-231.36,27.48s-45.3,10.08-70,17.13c-27.91,8.06-55.92,15.79-83.57,24.72l-14.76,4.75c-14.72,4.75-28,8.73-41.12,13.31-42.62,14.9-72.65,63.62-61,112,6.59,27.33,14.74,54.22,22.11,81.33,7.11,26.2,14,52.48,22,78.4s25.19,42.7,50.39,54.73a77.87,77.87,0,0,0,32.69,7.13l833.17.32q15.66,0,31.32-.67c7.86-.33,18-3.69,18-3.69,29.36-11.73,50-30.79,58.5-60.45,14.71-51.26,28.42-102.82,42.53-154.26a88.48,88.48,0,0,0,3.11-20.56A97.6,97.6,0,0,0,1456.27,441.4ZM509.8,576a31.39,31.39,0,1,1,31.39-31.39A31.42,31.42,0,0,1,509.8,576Zm622.84-13.93c0-2.4.45-4.49,3.57-4.36,2.71.11,2.7,2.16,2.74,4q.36,17,.63,34.08a11,11,0,0,1-.34,2.8c-.54,2.28-2.27,2.78-4.32,2.68s-2.45-1.58-2.46-3.23c0-6,0-12,0-18h.19C1132.64,574.06,1132.62,568.06,1132.64,562.08ZM887,448.33a21.88,21.88,0,0,1,2.23-5.2c4.89-7.33,6.46-15.62,7.39-24.14a41.23,41.23,0,0,1,.74-4.67,3.44,3.44,0,0,1,4.13-2.95c2.53.32,2.84,2.29,2.48,4.25-.9,4.87-2.24,9.68-1.88,15.45,8.92,0,17.4-.11,25.87.05l59.61-1.73c3.83,4.06,10.78,1.3,16.35,1.52,4.36.17,10,1.37,12.82-.78,3.57-2.69-.65-8.1-.33-12.39,0-.63-.17-1.27-.15-1.89,0-1.77-.78-4.1,1.91-4.56,2.87-.48,3.79,1.59,4.24,4a47,47,0,0,1,1,5.6,50.46,50.46,0,0,0,7.86,24.07,27,27,0,0,1,1.78,3.36,2.68,2.68,0,0,1-1.39,3.89c-1.51.75-3.26.92-4.25-.64-1.68-2.66-3.55-5.37-4.44-8.32-1.38-4.59-4.24-5.58-8.56-5.39-6.32.28-12.66.07-19,.08l-67.55,0q-12.33.19-24.69,0c-3-.05-4.65,1.19-5.81,3.78-1.42,3.17-3,6.28-4.66,9.31a3.13,3.13,0,0,1-4.13,1.3A2.9,2.9,0,0,1,887,448.33ZM853.6,484.19a21.83,21.83,0,0,1,3.78-.16c9.28,1,16.67-.82,18.43-11.75.35-2.2,1.78-4.36,4.37-4.26,3.05.13,3,2.84,3,5,0,3.38,2.37,3.19,4.56,3.25,6.31.15,12.63.22,18.94.4,3.15.09,6.3.29,9.45.54a2.57,2.57,0,0,1,2.62,2.23,3.12,3.12,0,0,1-2.46,3.51,32.81,32.81,0,0,1-6.59.49c-6.94.13-13.89.06-20.83.32-4.48.16-9.56-1.26-12,4.87-.8,2.07-3.86,1.74-6,1.8-3.76.09-7.52,0-12.35,0,0,12.26,0,23.26,0,34.27,0,2.59.33,5.42-3.38,5.45s-3.5-2.77-3.58-5.37c-.4-12.29.57-24.62-.89-36.89C850.37,485.42,851.34,484.38,853.6,484.19Zm4.69,84.86h.15c0,5.69-.07,11.37,0,17.06,0,2.06-.05,3.86-2.59,4.1-2.76.25-4.07-1.16-4.09-3.89,0-7-.12-13.89-.13-20.84,0-4.74.09-9.48.07-14.21,0-2.52.68-4.5,3.62-4.25,2.27.2,3,1.87,3,4C858.25,557.06,858.29,563.05,858.29,569.05ZM707.68,620.31c-1.35-.32-1.26-1.91-1.37-3.2a245.61,245.61,0,0,1-.76-29.35c.06-2.3.24-4.74,3.34-4.5,2.83.22,3.25,2.45,3.19,4.86-.07,2.21.14,4.44.06,6.64-.28,9,.35,17.69,7.91,24.19.84.72,1.06,2.17,1.91,4C715.85,625.55,712.11,621.32,707.68,620.31Zm5.5-82.37c-1.52,6.84-.53,13.86-1,20.77-.23,3,1.67,8.19-3.92,7.76-4.37-.34-2.8-5-2.9-7.81-.31-8.2-.65-16.44,1.23-24.53s3.49-8.9,12.15-9.5c5-.35,9.74,2.21,14.72.89l-.1-.16c.27-.56.62-1.63.81-1.63,2.06-5,2.74-5.12,9.81-6.5,7.73-1.51,15.45-3,23.16-4.64,4-.85,8-1.25,12.49.35,1.6-3.51.71-7.25,1-10.84.15-2.26.1-4.64,3.33-4.52,2.4.08,3,1.77,3.08,3.87q.22,18,.47,35.94c0,2.34-1.12,3.39-3.43,3.41s-3.48-.9-3.46-3.31c0-3.78.09-7.57-.09-11.35-.14-3,.83-6.3-1.13-9-14.75,4.88-29.51,8.73-45.18,6.63h0c-.2.53-.43,1.1-.68,1.72,5.4,3.95,12.06,3.95,18.18,5.57,9.92,2.61,10,2.48,10,12.46,0,9.79.06,19.58-.11,29.38,0,2.51,1.41,6.51-3,6.59-4.84.09-3.82-4.11-3.87-7.05-.14-8.21-.06-16.43-.13-24.64-.07-8-.11-8-7.74-9.93-7.94-2-15.88-4.1-23.84-6C715.86,530.16,714.75,530.84,713.18,537.94Zm74.11,59.12c0,2.62-1,4.12-3.87,4-2.64-.08-2.86-1.94-2.87-3.85q0-17.88.05-35.76c0-2,.49-3.71,3.08-3.74s3.3,1.47,3.33,3.56c.06,6.27,0,12.55,0,18.82h.26C787.29,585.77,787.27,591.41,787.29,597.06Zm-53.93,13.82c5.25-.87,10.52-1.69,15.8-2.21,3.69-.36,5.88-1.49,5.45-5.75-.24-2.4-.39-5.53,3.35-5.35,3.39.17,3.26,3.21,3.55,5.65.23,1.86.34,3.73.5,5.59-.5,2.73-.8,5.06-4.46,6.07-4.49,1.22-9.31.63-13.53,2.84a8.46,8.46,0,0,0-5,.63L727.8,618C727.11,613.61,729.47,611.52,733.36,610.88ZM791.65,623c-5.92,1.51-4.66,5.74-4.08,9.72.56,3.83-.65,5.21-4.76,6.24-11.52,2.87-22.51,1.25-33.53-2.06-2.37-2.21-5.87-2.3-8.26-4.14-1.91-1.47-6.88-.73-5.29-4.91,1.23-3.26,4.37-.63,6.53-.22a91.8,91.8,0,0,1,10.88,2.89,22.34,22.34,0,0,0,8.28,1.37c2.11,1.78,4.73,1.44,7.14,1.44,3.66,0,7.84,1.76,10.84-.77,2.45-2.07.51-5.94,1.26-8.9.45-1.77,1.41-3.41,1.94-5.17a3.44,3.44,0,0,0-1.51-4c.51-2.55-2.05-6.08.93-7.54,3.5-1.72,6.17,1,8.21,3.83.81,2.7,1.64,5.39,2.44,8.1C793.14,620.44,793.32,622.59,791.65,623Zm2.11-113.74c.15-2.31,2-3.22,3.7-3.86q16.9-6.2,33.87-12.19c2.29-.81,4.48-.65,4.85,2.55.11,2.61-1.42,4-3.57,5.06-11.41,5.6-23.54,9.13-35.75,12.39C793.15,514.22,793.62,511.51,793.76,509.27Zm64.71,141-.09.07a.13.13,0,0,1,0-.06c-2.4.26-4.83.59-7.2-.19-.61-1.13-1.55-2.14-2.74-2-23.93,2-44.39-7.41-44.39-7.41-1.12-1.91-2.7-3.63-.89-5.83,1.54-1.88,3.27-.78,5-.13,2.57,1,4.65,3.26,7.71,2.86,6.43,3.94,13.69,3.91,20.84,4.46a2.5,2.5,0,0,0,2.93.51c12,3.37,12,3.37,11.48-9.69a7.19,7.19,0,0,0-.15-.91q.48-12.21,1-24.41c4.54-1,6.85-.14,6.68,5.41-.3,10,.21,20.09.37,30.14l-.63,7.23Zm45.22-1c-1.85.2-3.75,0-5.63.06-11.63.19-23.29-.81-34.86,1.06a7.65,7.65,0,0,1-.54-7.22c11.64,0,23.27-.11,34.92-.1a32.34,32.34,0,0,1,6.52.57c1.3.28,1.71,1.66,1.7,3A2.36,2.36,0,0,1,903.69,649.2Zm95.21-1.67c-.21,1.74-2.18,1.92-3.74,2.22l-72.27-.83c-1.33-.35-2.36-1-2.13-2.52.18-1.27.75-2.53,2.1-2.82,1.53-.33,3.15-.26,4.71-.49l64.5-.11c1.25.18,2.55.1,3.77.38A3.75,3.75,0,0,1,998.9,647.53Zm-38.22-21.24a67.58,67.58,0,1,1,67.57-67.58A67.65,67.65,0,0,1,960.68,626.29Zm92.08,23.54c-12.65-.19-25.31-.12-38-.15-1.8-4.84-.2-6.9,5-6.8,12.77.23,25.54.21,38.31.3C1060.09,648.43,1057.74,649.89,1052.76,649.83Zm-4.22-158.7c-2.71-.19-5.11-.72-6.38-3.24-2.06-4.12-5.63-4.44-9.59-4.44q-13.27,0-26.54-.3c-2,0-4.85.39-4.57-3.11.2-2.49,2.29-2.75,4.18-2.81,8.21-.26,16.43-.58,24.63-.59,3.43,0,6.54.36,5.6-4.68-.39-2.08.33-3.87,2.67-4.16,2-.23,3.75.38,4.56,2.52.43,1.19,1,2.32,1.42,3.51,3.52,9.76,3.51,9.76,13.24,10l1.91.05c9.37.23,9.14.22,8.76,10-.35,8.83-.14,17.69-.17,26.54,0,1.89-.08,3.79,0,5.68.13,2.79-1.15,4.15-3.9,4.07-2.5-.06-3-1.81-3-3.86,0-5.06,0-10.1,0-15.16h-.1c0-2.21.1-4.43,0-6.63-.22-4.09.77-9-1.18-12C1057.8,489.08,1052.5,491.41,1048.54,491.13ZM1064,546.9c2.61-.14,4.13,1.13,4.12,3.94,0,6.32,0,12.65,0,19h.18c0,5.39-.07,10.76,0,16.14,0,2.66-.78,4.15-3.75,4-2.57-.11-3.06-1.69-3.06-3.75,0-11.7,0-23.4.07-35.1C1061.62,549.38,1061.28,547,1064,546.9Zm3.31,103.65c-5.35.3-7.4-2.5-7.08-7.53,1.21-11.19.54-22.39.18-33.59,2-2.32,4.63-1.74,7.15-1.75C1068.7,622,1069.61,636.27,1067.35,650.55Zm49.42-11.76a22.51,22.51,0,0,1-9.09,6.44c-8.27,3.47-17,4.29-25.89,4.85-2.62-.56-7,2.11-7.5-2.8-.59-5.5,4.28-4.15,7.38-4.64,8.9-1.43,18.09-1.69,26-7.07,1.71-1.16,4.08-1.45,6.2-1.9a2.94,2.94,0,0,1,3.12,1.58A3,3,0,0,1,1116.77,638.79Zm8.85-127c-1,1.59-2.74.94-4.29.57a258,258,0,0,1-34.11-11.07c-2.81-1.09-4.07-2.89-3.5-5.79.33-1.74,1.51-2.67,4.14-2.37l3.75,1.32c8.91,3.17,17.83,6.3,26.71,9.53a21.81,21.81,0,0,1,5.91,2.84C1125.66,507.89,1126.8,509.88,1125.62,511.77Zm52.44,121.36c-13.66,7.31-27.85,10.59-43.16,5.46-3-1-2.57-3.13-2.69-5.25-.22-4.19.83-8.26-4.22-11.35-3.44-2.1-.69-6.3.9-9.37s3.51-6,7.74-5.89c2.51.1,3.95,2.09,2.92,3.64-5.08,7.69,2.33,14.78,0,22.54,9.23,1.39,17.55-.08,25.78-2.15,3.37-.83,6.6-2.19,10-3,2.49-.6,5.87-3.39,7.38.32C1183.67,630.61,1180.11,632,1178.06,633.13Zm13.87-17.65c-.41,2.93-3.73,2.81-6.24,3-.94.06-1.89,0-3.89,0-4.88-.75-10.78-1.78-16.72-2.53-4.77-.6-7.44-2.81-7.27-7.88.07-2.2-.2-4.42,0-6.61.13-2,.92-3.69,3.32-3.8s3.91,1.33,3.51,3.39c-1.49,7.49,3.61,7.33,8.47,7.85,4.38.47,8.72,1.24,13.09,1.9C1189,611.21,1192.44,611.78,1191.93,615.48Zm-22.81-76.91c-3.79.81-4.32,2.87-4.31,6,.07,8.87,0,17.73,0,26.6,0,1.89-.11,3.8-.18,5.69a2.6,2.6,0,0,1-2.15,2.68,3,3,0,0,1-3.78-2,19.37,19.37,0,0,1-.93-5.54c-.11-10.14-.26-20.27-.06-30.39.16-7.56.86-8.22,8.47-10.19,5.81-1.51,11.67-2.84,17.52-4.2,1.2-.29,2.32-.54,2.38-2l-.21,0h0l-.06-.19c-15.53-.65-30.94-1.91-46.51-9.22,0,5.82,0,11.32,0,16.82,0,1.89.06,3.8-.08,5.7-.18,2.44-2.09,3-4,3s-2.57-1.5-2.57-3.29c0-2.21,0-4.43,0-6.64,0-9.51,0-19,.05-28.51,0-2.11-.63-4.75,2.75-5s3.18,2.21,3.3,4.49c.19,3.45-.16,7,1.48,11.23,2.76-2.08,5.89-2.13,9.11-1.52,10.26,1.92,20.5,4,30.81,5.53,4.87.69,4.57,4.38,5.69,7.38h.29a1.15,1.15,0,0,1,0,.19c5.55.91,11-.72,16.5-.82s8,2.26,9.77,7c2,5.52,1.87,11.18,1.87,16.86,0,4.43-.11,8.86-.14,13.29,0,2.81-.65,5.28-4,5.14s-2.64-2.91-2.72-5c-.19-5.69-.23-11.39-.45-17.09a37.09,37.09,0,0,0-.8-7.53c-1.63-6.39-2.72-7-9.32-5.32C1187.52,534,1178.38,536.6,1169.12,538.57Zm45,71.15c-.8,12.93-2.56,14.37-16.67,13.55.53-1.47.63-3.47,1.66-4.32,7.7-6.43,8.13-15.11,8-24.07-.05-2.52.17-5,.29-7.54.09-2.33.39-4.64,3.54-4.27,2.24.26,3,1.88,3,4,0,3.77,0,7.56,0,11.33.08,3.45.25,6.9.37,10.35A5.12,5.12,0,0,0,1214.16,609.72ZM1411.55,576a31.39,31.39,0,1,1,31.39-31.39A31.42,31.42,0,0,1,1411.55,576Z"/><path d="M758.51,579.45c-4.84.09-3.82-4.11-3.87-7.05-.14-8.21-.06-16.43-.13-24.64-.07-8-.11-8-7.74-9.93-7.94-2-15.88-4.1-23.84-6-7.07-1.68-8.18-1-9.75,6.1-1.52,6.84-.53,13.86-1,20.77-.23,3,1.67,8.19-3.92,7.76-4.37-.34-2.8-5-2.9-7.81-.31-8.2-.65-16.44,1.23-24.53s3.49-8.9,12.15-9.5c5-.35,9.74,2.21,14.72.89l-.1-.16a.6.6,0,0,0,.13.09c5.4,3.95,12.06,3.95,18.18,5.57,9.92,2.61,10,2.48,10,12.46,0,9.79.06,19.58-.11,29.38C761.51,575.37,763,579.37,758.51,579.45Z"/><path d="M916.26,482.92a32.81,32.81,0,0,1-6.59.49c-6.94.13-13.89.06-20.83.32-4.48.16-9.56-1.26-12,4.87-.8,2.07-3.86,1.74-6,1.8-3.76.09-7.52,0-12.35,0,0,12.26,0,23.26,0,34.27,0,2.59.33,5.42-3.38,5.45s-3.5-2.77-3.58-5.37c-.4-12.29.57-24.62-.89-36.89-.28-2.46.69-3.5,3-3.69a21.83,21.83,0,0,1,3.78-.16c9.28,1,16.67-.82,18.43-11.75.35-2.2,1.78-4.36,4.37-4.26,3.05.13,3,2.84,3,5,0,3.38,2.37,3.19,4.56,3.25,6.31.15,12.63.22,18.94.4,3.15.09,6.3.29,9.45.54a2.57,2.57,0,0,1,2.62,2.23A3.12,3.12,0,0,1,916.26,482.92Z"/><path d="M858.47,650.22l-.09.07a.13.13,0,0,1,0-.06Z"/><path d="M859,643l-.63,7.23c-2.4.26-4.83.59-7.2-.19-.61-1.13-1.55-2.14-2.74-2-23.93,2-44.39-7.41-44.39-7.41-1.12-1.91-2.7-3.63-.89-5.83,1.54-1.88,3.27-.78,5-.13,2.57,1,4.65,3.26,7.71,2.86,6.43,3.94,13.69,3.91,20.84,4.46a2.5,2.5,0,0,0,2.93.51c12,3.37,12,3.37,11.48-9.69a7.19,7.19,0,0,0-.15-.91q.48-12.21,1-24.41c4.54-1,6.85-.14,6.68,5.41C858.35,622.9,858.86,633,859,643Z"/><path d="M734.12,523.73c-.2.53-.43,1.1-.68,1.72l0,.07-.1-.16C733.58,524.8,733.93,523.73,734.12,523.73Z"/><path d="M787.42,537.39c0,2.34-1.12,3.39-3.43,3.41s-3.48-.9-3.46-3.31c0-3.78.09-7.57-.09-11.35-.14-3,.83-6.3-1.13-9-14.75,4.88-29.51,8.73-45.18,6.63h0c2.06-5,2.74-5.12,9.81-6.5,7.73-1.51,15.45-3,23.16-4.64,4-.85,8-1.25,12.49.35,1.6-3.51.71-7.25,1-10.84.15-2.26.1-4.64,3.33-4.52,2.4.08,3,1.77,3.08,3.87Q787.18,519.42,787.42,537.39Z"/><path d="M791.65,623c-5.92,1.51-4.66,5.74-4.08,9.72.56,3.83-.65,5.21-4.76,6.24-11.52,2.87-22.51,1.25-33.53-2.06-2.37-2.21-5.87-2.3-8.26-4.14-1.91-1.47-6.88-.73-5.29-4.91,1.23-3.26,4.37-.63,6.53-.22a91.8,91.8,0,0,1,10.88,2.89,22.34,22.34,0,0,0,8.28,1.37c2.11,1.78,4.73,1.44,7.14,1.44,3.66,0,7.84,1.76,10.84-.77,2.45-2.07.51-5.94,1.26-8.9.45-1.77,1.41-3.41,1.94-5.17a3.44,3.44,0,0,0-1.51-4c.51-2.55-2.05-6.08.93-7.54,3.5-1.72,6.17,1,8.21,3.83.81,2.7,1.64,5.39,2.44,8.1C793.14,620.44,793.32,622.59,791.65,623Z"/><path d="M836.18,495.77c.11,2.61-1.42,4-3.57,5.06-11.41,5.6-23.54,9.13-35.75,12.39-3.71,1-3.24-1.71-3.1-4s2-3.22,3.7-3.86q16.9-6.2,33.87-12.19C833.62,492.41,835.81,492.57,836.18,495.77Z"/><path d="M722,623c-6.11,2.58-9.85-1.65-14.28-2.66-1.35-.32-1.26-1.91-1.37-3.2a245.61,245.61,0,0,1-.76-29.35c.06-2.3.24-4.74,3.34-4.5,2.83.22,3.25,2.45,3.19,4.86-.07,2.21.14,4.44.06,6.64-.28,9,.35,17.69,7.91,24.19C720.89,619.67,721.11,621.12,722,623Z"/><path d="M762,608.81c-.5,2.73-.8,5.06-4.46,6.07-4.49,1.22-9.31.63-13.53,2.84a8.46,8.46,0,0,0-5,.63L727.8,618c-.69-4.37,1.67-6.46,5.56-7.1,5.25-.87,10.52-1.69,15.8-2.21,3.69-.36,5.88-1.49,5.45-5.75-.24-2.4-.39-5.53,3.35-5.35,3.39.17,3.26,3.21,3.55,5.65C761.74,605.08,761.85,607,762,608.81Z"/><path d="M855.88,590.21c-2.76.25-4.07-1.16-4.09-3.89,0-7-.12-13.89-.13-20.84,0-4.74.09-9.48.07-14.21,0-2.52.68-4.5,3.62-4.25,2.27.2,3,1.87,3,4-.06,6,0,12,0,18h.15c0,5.69-.07,11.37,0,17.06C858.51,588.17,858.42,590,855.88,590.21Z"/><path d="M905.8,646.58a2.36,2.36,0,0,1-2.11,2.62c-1.85.2-3.75,0-5.63.06-11.63.19-23.29-.81-34.86,1.06a7.65,7.65,0,0,1-.54-7.22c11.64,0,23.27-.11,34.92-.1a32.34,32.34,0,0,1,6.52.57C905.4,643.85,905.81,645.23,905.8,646.58Z"/><path d="M787.29,597.06c0,2.62-1,4.12-3.87,4-2.64-.08-2.86-1.94-2.87-3.85q0-17.88.05-35.76c0-2,.49-3.71,3.08-3.74s3.3,1.47,3.33,3.56c.06,6.27,0,12.55,0,18.82h.26C787.29,585.77,787.27,591.41,787.29,597.06Z"/><path d="M1186.06,525.05a1.15,1.15,0,0,1,0,.19l-.21,0Z"/><path d="M1214.19,548.28c0,4.43-.11,8.86-.14,13.29,0,2.81-.65,5.28-4,5.14s-2.64-2.91-2.72-5c-.19-5.69-.23-11.39-.45-17.09a37.09,37.09,0,0,0-.8-7.53c-1.63-6.39-2.72-7-9.32-5.32-9.2,2.27-18.34,4.83-27.6,6.8-3.79.81-4.32,2.87-4.31,6,.07,8.87,0,17.73,0,26.6,0,1.89-.11,3.8-.18,5.69a2.6,2.6,0,0,1-2.15,2.68,3,3,0,0,1-3.78-2,19.37,19.37,0,0,1-.93-5.54c-.11-10.14-.26-20.27-.06-30.39.16-7.56.86-8.22,8.47-10.19,5.81-1.51,11.67-2.84,17.52-4.2,1.2-.29,2.32-.54,2.38-2,5.55.91,11-.72,16.5-.82s8,2.26,9.77,7C1214.34,536.94,1214.19,542.6,1214.19,548.28Z"/><path d="M1068.43,493.85c-.35,8.83-.14,17.69-.17,26.54,0,1.89-.08,3.79,0,5.68.13,2.79-1.15,4.15-3.9,4.07-2.5-.06-3-1.81-3-3.86,0-5.06,0-10.1,0-15.16h-.1c0-2.21.1-4.43,0-6.63-.22-4.09.77-9-1.18-12-2.25-3.4-7.55-1.07-11.51-1.35-2.71-.19-5.11-.72-6.38-3.24-2.06-4.12-5.63-4.44-9.59-4.44q-13.27,0-26.54-.3c-2,0-4.85.39-4.57-3.11.2-2.49,2.29-2.75,4.18-2.81,8.21-.26,16.43-.58,24.63-.59,3.43,0,6.54.36,5.6-4.68-.39-2.08.33-3.87,2.67-4.16,2-.23,3.75.38,4.56,2.52.43,1.19,1,2.32,1.42,3.51,3.52,9.76,3.51,9.76,13.24,10l1.91.05C1069,484.09,1068.81,484.08,1068.43,493.85Z"/><path d="M1139.26,532.64c0,1.89.06,3.8-.08,5.7-.18,2.44-2.09,3-4,3s-2.57-1.5-2.57-3.29c0-2.21,0-4.43,0-6.64,0-9.51,0-19,.05-28.51,0-2.11-.63-4.75,2.75-5s3.18,2.21,3.3,4.49c.19,3.45-.16,7,1.48,11.23,2.76-2.08,5.89-2.13,9.11-1.52,10.26,1.92,20.5,4,30.81,5.53,4.87.69,4.57,4.38,5.69,7.38-15.53-.65-30.94-1.91-46.51-9.22C1139.26,521.64,1139.27,527.14,1139.26,532.64Z"/><path d="M1186.06,525.05l-.22.17h0l-.06-.19Z"/><path d="M1178.06,633.13c-13.66,7.31-27.85,10.59-43.16,5.46-3-1-2.57-3.13-2.69-5.25-.22-4.19.83-8.26-4.22-11.35-3.44-2.1-.69-6.3.9-9.37s3.51-6,7.74-5.89c2.51.1,3.95,2.09,2.92,3.64-5.08,7.69,2.33,14.78,0,22.54,9.23,1.39,17.55-.08,25.78-2.15,3.37-.83,6.6-2.19,10-3,2.49-.6,5.87-3.39,7.38.32C1183.67,630.61,1180.11,632,1178.06,633.13Z"/><path d="M1125.62,511.77c-1,1.59-2.74.94-4.29.57a258,258,0,0,1-34.11-11.07c-2.81-1.09-4.07-2.89-3.5-5.79.33-1.74,1.51-2.67,4.14-2.37l3.75,1.32c8.91,3.17,17.83,6.3,26.71,9.53a21.81,21.81,0,0,1,5.91,2.84C1125.66,507.89,1126.8,509.88,1125.62,511.77Z"/><path d="M1116.77,638.79a22.51,22.51,0,0,1-9.09,6.44c-8.27,3.47-17,4.29-25.89,4.85-2.62-.56-7,2.11-7.5-2.8-.59-5.5,4.28-4.15,7.38-4.64,8.9-1.43,18.09-1.69,26-7.07,1.71-1.16,4.08-1.45,6.2-1.9a2.94,2.94,0,0,1,3.12,1.58A3,3,0,0,1,1116.77,638.79Z"/><path d="M1214.38,608.8a5.12,5.12,0,0,0-.22.92c-.8,12.93-2.56,14.37-16.67,13.55.53-1.47.63-3.47,1.66-4.32,7.7-6.43,8.13-15.11,8-24.07-.05-2.52.17-5,.29-7.54.09-2.33.39-4.64,3.54-4.27,2.24.26,3,1.88,3,4,0,3.77,0,7.56,0,11.33C1214.09,601.9,1214.26,605.35,1214.38,608.8Z"/><path d="M1191.93,615.48c-.41,2.93-3.73,2.81-6.24,3-.94.06-1.89,0-3.89,0-4.88-.75-10.78-1.78-16.72-2.53-4.77-.6-7.44-2.81-7.27-7.88.07-2.2-.2-4.42,0-6.61.13-2,.92-3.69,3.32-3.8s3.91,1.33,3.51,3.39c-1.49,7.49,3.61,7.33,8.47,7.85,4.38.47,8.72,1.24,13.09,1.9C1189,611.21,1192.44,611.78,1191.93,615.48Z"/><path d="M1139.58,595.8a11,11,0,0,1-.34,2.8c-.54,2.28-2.27,2.78-4.32,2.68s-2.45-1.58-2.46-3.23c0-6,0-12,0-18h.19c0-6,0-12,0-18,0-2.4.45-4.49,3.57-4.36,2.71.11,2.7,2.16,2.74,4Q1139.31,578.76,1139.58,595.8Z"/><path d="M1067.35,650.55c-5.35.3-7.4-2.5-7.08-7.53,1.21-11.19.54-22.39.18-33.59,2-2.32,4.63-1.74,7.15-1.75C1068.7,622,1069.61,636.27,1067.35,650.55Z"/><path d="M1052.76,649.83c-12.65-.19-25.31-.12-38-.15-1.8-4.84-.2-6.9,5-6.8,12.77.23,25.54.21,38.31.3C1060.09,648.43,1057.74,649.89,1052.76,649.83Z"/><path d="M1068.35,586c0,2.66-.78,4.15-3.75,4-2.57-.11-3.06-1.69-3.06-3.75,0-11.7,0-23.4.07-35.1,0-1.75-.33-4.09,2.43-4.23s4.13,1.13,4.12,3.94c0,6.32,0,12.65,0,19h.18C1068.33,575.2,1068.26,580.57,1068.35,586Z"/><path d="M960.68,491.14a67.58,67.58,0,1,0,67.57,67.57A67.65,67.65,0,0,0,960.68,491.14Zm0,127.15a59.58,59.58,0,1,1,59.57-59.58A59.65,59.65,0,0,1,960.68,618.29Z"/><path d="M509.8,513.23a31.39,31.39,0,1,0,31.39,31.39A31.42,31.42,0,0,0,509.8,513.23Zm0,54.78a23.39,23.39,0,1,1,23.39-23.39A23.41,23.41,0,0,1,509.8,568Z"/><path d="M1411.55,513.23a31.39,31.39,0,1,0,31.39,31.39A31.42,31.42,0,0,0,1411.55,513.23Zm0,54.78a23.39,23.39,0,1,1,23.39-23.39A23.41,23.41,0,0,1,1411.55,568Z"/><path d="M960.67,600a41.3,41.3,0,1,1,41.3-41.3A41.35,41.35,0,0,1,960.67,600Zm0-74.59A33.3,33.3,0,1,0,994,558.71,33.34,33.34,0,0,0,960.67,525.42Z"/><rect class="cls-1" width="1" height="1"/><rect class="cls-1" x="1919" y="1079" width="1" height="1"/><rect class="cls-1" y="1079" width="1" height="1"/><rect class="cls-1" x="1919" width="1" height="1"/></g><g id="Capa_3" data-name="Capa 3"><path d="M831.29,672.14v88.42H815.5V704.22L800,716.1l-12.88,10-12.89-10-15.53-11.88v56.34H742.87V672.14l15.79,12.13,28.42,21.85,28.42-21.85Z"/><path d="M874.23,701.57V761.7H858.44V699.93a12.59,12.59,0,0,0-10.73-10.74h-3.54V673.53h3.41v.13a28.16,28.16,0,0,1,23.5,15.79,33.07,33.07,0,0,1,2.14,5.93,26.25,26.25,0,0,1,.76,6.44Z"/><path d="M974.91,698.92a26,26,0,0,1-7.33,18.19,26.08,26.08,0,0,1-18.69,44.21H886.61V745.53h62.28a10.4,10.4,0,0,0,10.35-10.36,10.28,10.28,0,0,0-9.72-10.35h-47V709h47a10.36,10.36,0,0,0-.51-20.71H886.74V672.52H949a26,26,0,0,1,26,26Z"/><path d="M1068.88,716.48a26.08,26.08,0,0,1-18.69,44.21h-36.25a26,26,0,0,1-24-15.92,27.39,27.39,0,0,1-2-10.23,26,26,0,0,1,7.33-18.19,24.64,24.64,0,0,1-5.43-8,27.39,27.39,0,0,1-2-10.23A26.06,26.06,0,0,1,995.11,680a24.53,24.53,0,0,1,18.19-8h37a26.18,26.18,0,0,1,18.32,44.34Zm-19.32-7.71a10.3,10.3,0,0,0,.38-20.59h-37.27a10.3,10.3,0,0,0,.25,20.59h36.64Zm.12,36.26A10.41,10.41,0,0,0,1060,734.67a10.28,10.28,0,0,0-9.73-10.36h-37a10.25,10.25,0,0,0-9.72,10.23,10.4,10.4,0,0,0,10.36,10.36h36.25Z"/><path d="M1177,698.92a26,26,0,0,1-7.33,18.19A26.08,26.08,0,0,1,1151,761.32h-62.28V745.53H1151a10.4,10.4,0,0,0,10.35-10.36,10.28,10.28,0,0,0-9.72-10.35h-47V709h47a10.36,10.36,0,0,0-.51-20.71h-62.27V672.52h62.27a26,26,0,0,1,26,26Z"/></g></g></svg>