<svg xmlns="http://www.w3.org/2000/svg" viewBox="0 0 1920 1080"><defs><style>.cls-1{fill:#010101;}.cls-2{fill:#f2f2f2;}</style></defs><g id="Capa_2" data-name="Capa 2"><g id="Capa_1-2" data-name="Capa 1"><path class="cls-1" d="M1803.75,364.76a45.08,45.08,0,0,0-20.6-11.9c-42-1.83-83.93-.34-125.89-1-3.45-.05-6.9-.34-10.34-.52-2.51.1-5,.3-7.52.3q-80.22-.14-160.42-.33c-4.71,0-9.42-.27-14.13-.41-3.42.43-6.85.93-10-1.17-2.17-.23-4.44-.1-6.48-.74-18.8-5.89-37.48-12.17-56.35-17.82-27.46-8.22-55-16.14-82.69-23.54-23.84-6.37-47.93-11.68-71.88-17.55-65.46-15.86-244.6-29.3-279.24-29.3s-116.6,6.71-116.6,6.71a1422.44,1422.44,0,0,0-308,61.91c-19.2,6.11-38.49,11.94-57.71,18a85.79,85.79,0,0,1-26,4q-138.3,0-276.59.38c-8.21,0-16.42.2-24.63.37-13.34.27-25.83,2.63-33.9,15.43L108.72,380c0,11.05.29,22.06.89,33.1.64,11.64,2.93,23.19,2.1,34.91.1.63.2,1.27.31,1.9.16,1.24-.09,2.76.54,3.66,7.15,10.1,8.61,21.47,7.33,33.33-.31,2.9.8,5.66,2.35,6.7,4,2.66,3.47,6.25,3.48,9.9,0,13.22.38,26.44,0,39.65-.3,9.47,3.9,16.93,8.79,24.37,4.52,6.87,11.17,11.39,17.22,16.68,9.57,8.38,19,16.67,32.5,17.45,4.56-.45,9,.53,13.35,1.57l1.79.15a123.84,123.84,0,0,1,26.5,1.8c.93-.09,1.87-.24,2.81-.26,18.75-.33,27.57-9.11,27.83-28,.15-11-.15-22.07.06-33.1.25-13.63,11.59-19.91,23.53-13.18q4.11,2.31,8.05,4.94a30.88,30.88,0,0,0,18.62,5.56c11-.3,22.06,0,33.1.09,17.76.24,18,.24,22.65,17.13,10.12,36.36,19.74,72.86,30.11,109.15q22.81,79.83,93.93,123.13c14.61,8.9,30.53,14.64,46.34,20.74,24.54,7.8,53.2,7.84,53.2,7.84h750l16-1.53c80.44-7.7,151.89-67.79,173.94-143.93,5.16-17.83,10-35.76,15-53.64,6.08-21.82,12-43.69,18.29-65.44,3.55-12.24,5.23-13.22,18.06-13.44,7.57-.12,15.18-.5,22.72,0,14.92,1,28.64-1.09,40.92-10.73,10.37-8.15,24.25,2,23.41,12.79-.32,4.07.14,8.2.18,12.3.11,8.83-.48,17.72.4,26.47,1.54,15.25,10.62,22.93,26,22.67,8.19-.14,16.37-1.24,24.57-1.34,16.38-.2,31.73-3.55,45.24-13.34.68-1.62,2.2-2.25,3.59-3,1.85-1.65,3.62-3.34,5.59-4.89,15.57-12.3,26.39-26.93,25.15-48.32a248.87,248.87,0,0,1,.27-36.63c-.67-1.17.07-1.71,1-2.17,3-5.3,5-10.86,4-17s.69-11.74,3.45-17.25c2.94-5.84,5.29-12,5.62-18.64.73-15.12,1.86-30.25,1.91-45.38C1811.28,372.57,1803.75,364.76,1803.75,364.76ZM1429.3,381.83q0,42.14-.11,84.27c0,1.88-.16,3.77-.24,5.59a5.9,5.9,0,0,1-1.87.7c-3,0-7.27-2.25-8.56,1.24-1.36,3.7,3.26,4.89,5.9,5.95,5,2,4.89,5.77,4.88,10q-.18,62-.18,124c0,45.76-.07,91.53.3,137.28,0,6.31-2.05,9.55-7.27,12.65-27.18,16.11-56.4,25-88,25H590.8c-33.2,0-64.18-8-92.74-25.24-4.77-2.88-7.14-5.91-6.86-11.84.63-13.53.48-27.1.65-40.66q-.3-42.48-.57-85c0-3.13.26-6.26.4-9.39q-.18-39.29-.34-78.56c0-8.2.13-16.41.05-24.61,0-4.16.7-6.87,5.77-4.77.71.29,1.74-.17,3.29-.37-3.16-5.95-5.14-11.78-1.3-18a26,26,0,0,1,7.94-8,26.21,26.21,0,0,0,4.5-3.33,3.73,3.73,0,0,0,.47-4.42c-1-1.81-2.58-1.29-4.12-.95a19.45,19.45,0,0,0-9.18,4.62c-2,1.87-4.07,3.72-6.11,5.58-2.51-1.94-1.35-4.31-1.35-6.3q0-47.34.15-94.68c0-8.46.16-8.27,8.07-10.87,36.49-12,73.35-22.65,110.42-32.65a1534.83,1534.83,0,0,1,158.84-33.78C828.19,296,887.94,293,948,293.33l23,.26c36.62-.3,73.25-.18,109.75,3.13a1279.38,1279.38,0,0,1,132.78,19.43c69.91,13.81,138.23,33.53,206.16,54.77,2.1.66,4.16,1.45,6.24,2.17a4.48,4.48,0,0,1,3.41,5C1429.23,379.3,1429.3,380.57,1429.3,381.83Zm-932-25.52c48.38-15.05,96.92-29.52,146.1-41.74,43.15-10.71,86.9-18.12,130.93-24.06,32.82-4.43,65.7-8.09,98.72-10.44,25.8-1.84,51.63-3.17,77.5-3.41l15.39-.25c25.52,1.23,51.09,1.64,76.58,3.32,49.11,3.22,97.92,9.3,146.52,17,51.08,8.06,101.26,20.23,150.9,34.59,27.5,7.95,54.84,16.48,82.24,24.75,4.37,1.32,8.85,2.55,6.38,9.74-22.93-6.88-45.53-13.58-68.09-20.45A1533.5,1533.5,0,0,0,1161.1,299a961.92,961.92,0,0,0-159.18-12.8l-94.49.23c-42.32.1-84.35,3.73-126.27,9.49-79.09,10.87-156.34,29.75-232.71,52.58-16.26,4.86-32.44,10-48.71,14.87-2.8.83-6.75,4.24-8.5-.8S494,357.34,497.34,356.31Zm-13,255.62a41.26,41.26,0,0,1-.49,4.68,27.09,27.09,0,0,1-.14,13.18c.11,5.66.31,11.32.32,17q0,52.51,0,104.85c-3.25,1.56-4.25-1.14-5.72-2.34C446,722.91,427,688.51,417.46,648.41Q404.76,595.16,391.74,542c-16.28-66.54,14.57-131.44,75.82-159.17,4.82-2.18,9.65-4.51,14.82-5.22,2.31,2,1.47,4.3,1.48,6.33Q484.15,497.93,484.3,611.93ZM1796.08,403.25c-.62,11.8-1.5,23.58-2.34,36.36-4.8-3.16-6.86-7.12-9.76-10.26s-5.88-6.61-9.58-9.11a2.65,2.65,0,0,0-3.45.18,2.82,2.82,0,0,0-.65,3.47,30.88,30.88,0,0,0,3.8,5.37c4.76,5.47,9.43,11.06,14.56,16.18,2.66,2.66,3.38,4.87,1.6,8.19-4.15,7.71-5.4,16-4.94,24.72.11,2.15.11,4.76-1,6.45-5,8-4.76,16.78-4.67,25.63.09,8.13,0,16.26,0,26.23-4.86-4.21-8.46-7.39-12.12-10.49-2.17-1.83-4.41-3.58-6.64-5.33-1.35-1.05-2.91-1.45-4.3-.27-2,1.75-.74,3.62.51,4.89q8,8.09,16.24,15.87c6.52,6.15,7,6.44,1.59,13.7-13.92,18.51-30.67,32.51-55.52,32.93-9.15.15-18.27,1.32-27.42,1.54-10.58.25-12.7-2-12.83-12.68-.13-11.68.32-23.37-.14-35-.62-15.82-10.54-26.58-26-28.93-3.41-.52-6.94-1.05-10.25.45-1.8.82-4.13,1.9-5.25.33-4.59-6.44-6.69-1.41-8.47,1.88-4.61,8.53-11.32,11.66-21,10.85s-19.48-.18-29.22-.18c-.92-4.76,1.94-7.81,2.9-11.35,1.24-4.55,3.26-8.92,4.18-13.52.6-3,4.27-7.55-.13-9.22-5.61-2.13-6.08,3.87-7.43,7.42-2.7,7.05-5.12,14.22-7.62,21.35-1.28,3.66-2.66,6.25-7.45,7.15-9.69,1.81-14.69,9.32-17.34,18.2-4.42,14.78-8.47,29.68-12.64,44.54-7.23,25.78-13.52,51.87-21.81,77.3-24.26,74.45-75.68,118.65-152.34,133.56-11.12,2.16-22.57,2.47-34,2.47l-733.95-.57C525.06,803,472,775.06,433.7,720.63,420.51,701.9,412.11,680.8,406,658.8c-9.71-35.21-19.28-70.47-29-105.68a89.32,89.32,0,0,0-4.13-11.56c-2.91-6.73-7.85-11.82-15.05-13.25-4.88-1-6.72-3.55-8.24-7.66-3.18-8.56-6.75-17-10.12-25.47-.7-1.77-1.18-3.88-3.69-3.34s-2.54,2.76-2.17,4.56a96.09,96.09,0,0,0,2.93,10.92c2,5.93,4.19,11.79,6.69,18.74-13.17,0-24.84-.22-36.49.09-6.13.16-10.18-2.22-13-7.49a46.79,46.79,0,0,0-4.29-6.22c-.89-1.16-1.77-2.69-3.62-.9-2.85,2.74-6.25,2.11-9.8,1.65-19.22-2.51-34.14,10.15-34.66,29.53-.3,11,0,22.1-.11,33.15s-3.08,14.24-14.22,13.68c-13.54-.68-27.12-1.21-40.56-3.29a16.31,16.31,0,0,1-4.55-1.18c-15.62-7.5-29.07-17.54-38.17-32.72-2.44-4.07-1.71-6.75,2-9.61a168,168,0,0,0,12.68-11.36,31.2,31.2,0,0,0,4.73-5.83c1-1.65,1.32-3.9-.57-5.11-1.39-.89-3,.17-4.22,1.26-5.39,4.68-10.8,9.33-17.79,15.37,0-9.61.06-17.3,0-25-.1-9.69,1.35-19.62-4.89-28.33-1.48-2.08-1-4.9-.66-7.41a33.36,33.36,0,0,0-4-21c-2.58-4.45-1.48-7.2,1.83-10.63,5.91-6.12,11.28-12.75,16.82-19.22,1-1.11,2.61-2.39,1.43-4-1.42-2-3.39-.82-5.14-.2-3.14,1.1-5,3.78-7.17,6-3.7,3.79-6.72,8.25-11,11.37-2.76-1.69-1.87-4.15-2-6.19-.86-13.22-1.73-26.44-2.32-39.68-.77-17,6.15-24.59,22.91-25.2q11.84-.44,23.67-.46,134.5-.39,269-.73c14.8,0,29.68.55,43.94-5.67,2.45,6.09-.4,8.26-5.3,9.91a137.31,137.31,0,0,0-46,25.63c-36.79,31.36-53.88,71.43-52.06,119.47.6,15.79,5.18,31,8.84,46.35,7.7,32.17,14.3,64.64,23.12,96.49C431,728.22,476.34,772.33,546,791.38a151.91,151.91,0,0,0,40.23,5.26l731-.09c16.43,0,32.94.23,49-3.46,73.36-16.83,122.06-60.63,142.08-133.67,11.24-41,20.51-82.54,29.76-124,15.18-68.09-24.23-138.37-90.74-163.11-2.36-.88-4.77-1.63-7.14-2.49-3.38-1.21-4.17-3.81-3-6.81,1.3-3.22,3.63-1.35,5.5-.51,7.69,3.44,15.85,3.91,24.08,3.93q34.11.11,68.21.2,110.82.27,221.65.56c7.26,0,14.53.2,21.76.75,10.4.8,16.82,6.95,17.77,17.37A125.36,125.36,0,0,1,1796.08,403.25Zm-359,118.8c0-5.49.25-10.6,3.75-16s2.82-12.91-.22-19.14-3.82-12.52-3.79-19.23c.13-25.86.09-51.72.19-77.58,0-4,.43-8,.63-11.57a4.29,4.29,0,0,1,4.27-.38c65.34,24.06,96.39,84.82,90.92,141.82-1.69,17.59-6.95,34.52-11.09,51.64-7.46,30.89-14,62-23,92.53-10.08,34.5-29.07,63.29-57.7,85.43a3.85,3.85,0,0,1-3.5,2.52c-1.07-.05-1-1.84-.47-3,.06-34.68.19-69.36.17-104C1437.28,604,1437.07,563.05,1437.09,522.05Z"/><path class="cls-2" d="M1532.84,520c-1.69,17.59-6.95,34.52-11.09,51.64-7.46,30.89-14,62-23,92.53-10.08,34.5-29.07,63.29-57.7,85.43a3.85,3.85,0,0,1-3.5,2.52c-1.07-.05-1-1.84-.47-3,.06-34.68.19-69.36.17-104,0-41-.23-82-.21-123,0-5.49.25-10.6,3.75-16s2.82-12.91-.22-19.14-3.82-12.52-3.79-19.23c.13-25.86.09-51.72.19-77.58,0-4,.43-8,.63-11.57a4.29,4.29,0,0,1,4.27-.38C1507.26,402.21,1538.31,463,1532.84,520Z"/><path class="cls-2" d="M484,646.77q0,52.51,0,104.85c-3.25,1.56-4.25-1.14-5.72-2.34C446,722.91,427,688.51,417.46,648.41Q404.76,595.16,391.74,542c-16.28-66.54,14.57-131.44,75.82-159.17,4.82-2.18,9.65-4.51,14.82-5.22,2.31,2,1.47,4.3,1.48,6.33q.28,114,.44,228a41.26,41.26,0,0,1-.49,4.68,27.09,27.09,0,0,1-.14,13.18C483.78,635.45,484,641.11,484,646.77Z"/><path class="cls-2" d="M1429.12,613.64q0-62,.18-124c0-4.26.09-8-4.88-10-2.64-1.06-7.26-2.25-5.9-5.95,1.29-3.49,5.56-1.26,8.56-1.24a5.9,5.9,0,0,0,1.87-.7c.08-1.82.23-3.71.24-5.59q.07-42.14.11-84.27c0-1.26-.07-2.53,0-3.78a4.48,4.48,0,0,0-3.41-5c-2.08-.72-4.14-1.51-6.24-2.17-67.93-21.24-136.25-41-206.16-54.77a1279.38,1279.38,0,0,0-132.78-19.43c-36.5-3.31-73.13-3.43-109.75-3.13l-23-.26c-60-.33-119.78,2.7-179.19,12.16a1534.83,1534.83,0,0,0-158.84,33.78c-37.07,10-73.93,20.69-110.42,32.65-7.91,2.6-8,2.41-8.07,10.87q-.15,47.34-.15,94.68c0,2-1.16,4.36,1.35,6.3,2-1.86,4.09-3.71,6.11-5.58a19.45,19.45,0,0,1,9.18-4.62c1.54-.34,3.15-.86,4.12.95a3.73,3.73,0,0,1-.47,4.42,26.21,26.21,0,0,1-4.5,3.33,26,26,0,0,0-7.94,8c-3.84,6.18-1.86,12,1.3,18-1.55.2-2.58.66-3.29.37-5.07-2.1-5.81.61-5.77,4.77.08,8.2-.07,16.41-.05,24.61q.14,39.29.34,78.56c-.14,3.13-.42,6.26-.4,9.39q.24,42.48.57,85c-.17,13.56,0,27.13-.65,40.66-.28,5.93,2.09,9,6.86,11.84,28.56,17.22,59.54,25.27,92.74,25.24h743.33c31.62,0,60.84-8.9,88-25,5.22-3.1,7.32-6.34,7.27-12.65C1429.05,705.17,1429.12,659.4,1429.12,613.64ZM520.06,523.57c-2.46.39-5,.74-7.39-.46a4.33,4.33,0,0,1-2.68-3.6c0-2.2,1.81-2.06,3.34-2.27a50,50,0,0,0,6.48-1.07c11.25-3.09,17-13.63,13.45-24.88a68.36,68.36,0,0,0-3.29-7.76c-.78-1.73-2-3.78.13-4.95a4.17,4.17,0,0,1,5.1,1.39c4.14,5.29,6.73,11.22,7,16.25C542,510.65,532.53,521.63,520.06,523.57Zm685.26,24.85c-7.41,1.86-7,7.57-7,13.33.06,9.15,0,18.31-.19,27.46-.15,8-.21,8.1-8.08,10.11-15.26,3.87-30.53,7.69-45.85,11.31a69.8,69.8,0,0,0-7.12,2.35c-1.45-.26-2.9-.51-4,.88l-.29.09a53.86,53.86,0,0,0-24.42,9.19c-10.22,7-21.22,13-30.32,21.61-7.32,4.87-15.37,6.21-24.1,6.16l-175.93.44c-10.15.21-20-.54-28.69-6.71A291.93,291.93,0,0,0,813,619.25c-8.16-4.91-17.86-5.92-27-8.22-15.88-4-31.85-7.67-47.74-11.64-8.19-2-8.21-2.21-8.26-10.91-.06-11.68,0-23.36,0-35,0-2.72.86-5.74-1.94-7.86-3.39-2.55-7-5.06.58-6.91,2.41-.6,1.44-3.18,1.45-4.89.06-7.26,0-14.52-.14-21.78-.11-4.52,1.64-6.52,6.33-7.54,19.69-4.28,39.26-9.14,58.9-13.67,14.18-3.28,27.62-8.65,41-14.34,12.47-5.33,25-10.37,38.61-12.16,5.25-.69,7.82-2.81,9.06-8.61,9-42.18,18.58-84.25,28-126.36a44.79,44.79,0,0,0,1.31-5.5c.48-5.28,3.76-7.15,8.47-8.62,26.61-8.33,53.25-9.14,80.07-1.27,1.21.36,2.38,1.09,3.59,1.15,6.95.38,9.27,4.76,10.61,10.89,8.75,40.32,18.13,80.5,26.35,120.91,2.34,11.49,6,17.91,18.9,19.3,13.4,1.44,25.81,8,38.14,13.5,19.44,8.73,40.26,12.44,60.72,17.44,10.71,2.62,21.41,5.32,32.23,7.39,4.35.84,5.84,2.67,5.82,6.81-.06,8.21.21,16.41.2,24.62,0,4.1.15,7.74,5.9,6.84,1.54-.24,3.37-.14,3.6,2A3.29,3.29,0,0,1,1205.32,548.42Zm213.83-26.52c-.94.07-1.89,0-2.84,0-23-.13-28.89-22.86-22.2-38a8.91,8.91,0,0,1,4.49-4.69c1.68-.75,3.61-1.68,5.17.08,1.25,1.42.43,2.93-.47,4.27a27.91,27.91,0,0,0-4,10.53c-1.74,9,1.61,15.35,10.1,19a58.64,58.64,0,0,0,9.95,2.79c1.93.44,3.79.68,3.79,3.22C1423.11,521.86,1421,521.76,1419.15,521.9Z"/><path class="cls-1" d="M1207.68,544.74c-.23-2.1-2.06-2.2-3.6-2-5.75.9-5.9-2.74-5.9-6.84,0-8.21-.26-16.41-.2-24.62,0-4.14-1.47-6-5.82-6.81-10.82-2.07-21.52-4.77-32.23-7.39-20.46-5-41.28-8.71-60.72-17.44-12.33-5.54-24.74-12.06-38.14-13.5-12.91-1.39-16.56-7.81-18.9-19.3-8.22-40.41-17.6-80.59-26.35-120.91-1.34-6.13-3.66-10.51-10.61-10.89-1.21-.06-2.38-.79-3.59-1.15-26.82-7.87-53.46-7.06-80.07,1.27-4.71,1.47-8,3.34-8.47,8.62a44.79,44.79,0,0,1-1.31,5.5c-9.4,42.11-19,84.18-28,126.36-1.24,5.8-3.81,7.92-9.06,8.61-13.57,1.79-26.14,6.83-38.61,12.16-13.33,5.69-26.77,11.06-41,14.34-19.64,4.53-39.21,9.39-58.9,13.67-4.69,1-6.44,3-6.33,7.54.18,7.26.2,14.52.14,21.78,0,1.71,1,4.29-1.45,4.89-7.57,1.85-4,4.36-.58,6.91,2.8,2.12,1.93,5.14,1.94,7.86.08,11.68,0,23.36,0,35,.05,8.7.07,8.86,8.26,10.91,15.89,4,31.86,7.64,47.74,11.64,9.13,2.3,18.83,3.31,27,8.22a291.93,291.93,0,0,1,36.33,25.39c8.64,6.17,18.54,6.92,28.69,6.71l175.93-.44c8.73.05,16.78-1.29,24.1-6.16,9.1-8.61,20.1-14.57,30.32-21.61a53.86,53.86,0,0,1,24.42-9.19l.29-.09c1.09-1.39,2.54-1.14,4-.88a69.8,69.8,0,0,1,7.12-2.35c15.32-3.62,30.59-7.44,45.85-11.31,7.87-2,7.93-2.12,8.08-10.11.17-9.15.25-18.31.19-27.46,0-5.76-.43-11.47,7-13.33A3.29,3.29,0,0,0,1207.68,544.74ZM809.13,608.1c-2.75,1.11-4.77.08-6.81-.72-.8-.31-1.92-.71-1.53-1.75,3.19-8.42-2.85-14.29-5.89-20.87-2.22-4.82-5.33-9.26-8.34-13.67-1.51-2.21-3.57-5.33-6.72-2.79-2.32,1.88-.92,4.64.55,6.82a112.38,112.38,0,0,1,13,25.06c.51,1.41,1.34,2.78.43,5.15-17.51-4.33-35.07-8.8-52.71-13-3.44-.81-3.58-2.82-3.58-5.45,0-12.6,0-25.19,0-38.29,8.32.8,15.08,4.67,22,8.12,2,1,4.27,2.6,5.66-.06s1.37-5.56-1.76-7.39a72.08,72.08,0,0,0-21-8.19c-3.81-.85-5.27-2.51-5.07-6.39.35-7.22-2-15.77,1.17-21.31,3-5.33,12.5-4.08,19.11-5.76,17-4.32,34.15-8.09,51.49-12.14ZM913.82,355.85c1.63-9.3,3.95-18.48,5.71-27.76.6-3.15,1.73-5.06,5.08-5.79,8.93-1.92,17.8-4.07,26.87-5.35,4-.57,4.76,1,5.09,4.51.28,3-1.83,8.32,2.55,8.31,3.19,0,1.25-5.32,1.36-8.17.17-4,1.32-5.49,5.57-5.35a174.12,174.12,0,0,1,36.42,5.4c2.49.62,4.66,1.69,5.32,4.67,3.7,16.87,7.5,33.72,11.36,51-18.43,0-35.76-.07-53.09.05-4.13,0-5.52-1.67-5.4-5.66.21-6.94.1-13.89.05-20.83,0-2.06.63-4.38-1.36-6-3.16.18-2.43,2.55-2.46,4.12-.16,7.58-.24,15.15-.14,22.73,0,4-1.59,5.6-5.64,5.56-13.55-.14-27.09-.06-41-.06C909.48,369.57,912.59,362.84,913.82,355.85ZM1111,561.52c0,14.52-.14,29,.09,43.56.08,4.9-1.38,8.06-5.68,10.84-11.38,7.36-22.49,15.16-33.48,23.1a21.32,21.32,0,0,1-13.08,4.45q-46.39-.13-92.8-.08c-4,0-5.67-1.15-5.39-5.39.34-5.34.07-10.73.15-16.09,0-2.36-.12-4.48-3-5L956.54,628c1,15.31,1,15.32-14,15.31-24.31,0-48.62-.21-72.93,0a22.2,22.2,0,0,1-14-4.45c-10.79-8.21-22-15.78-33.38-23.14-4-2.61-5.2-5.54-5.18-10.05q.19-53.5,0-107c0-4.31,1-6.78,5.46-8.39,11.77-4.27,23.34-9.13,36.38-14.31,0,10.71-.18,20.32.1,29.91.09,2.9-2.13,8,3.38,7.94,4.51-.06,3.18-4.73,3.26-7.56.24-8.83.38-17.69,0-26.51-.17-4.32,1.12-7,5.44-6.88,15.71.56,19.53-9.31,21.87-22.41,3.47-19.51,8.39-38.77,12.82-58.1,1.73-7.52,1.89-7.54,9-7.53,11.05,0,22.1,0,33.15.17,8.77.15,8.81.27,8.87,8.72.1,12,.06,24,.22,36,0,2.68-.93,5.6,1.13,8.07,3.48-.49,2.44-3.22,2.45-5.13.11-13.89.24-27.78,0-41.67-.07-4.46,1.17-6,5.8-6,16.42.17,32.84-.07,49.25-.1,2.41,0,5.07-.59,5.87,3.06,5.66,25.75,11.44,51.48,17.35,78-6.38.34-12,.62-17.52,1-1.52.1-3.33.06-3.5,2.22a3,3,0,0,0,3.5,3.39c6.32-.77,13.07,2.65,19-2.43,2.79-2.4,6.06.29,8.95.9,13.53,2.86,13.48,3,13.45,17,0,6.63-.1,13.26.09,19.89.07,2.47-1.33,6.43,3.35,6.18,4.47-.24,2.81-4.13,3-6.58.29-5,.19-10.1.22-15.15s0-10,0-15.44c5-.21,8.46,2.18,12.1,3.59,7.63,3,15.06,6.46,22.79,9.11,5.37,1.83,6.91,4.86,6.82,10.39C1110.79,520.47,1111,541,1111,561.52Zm55.21-1.71c1.15,2.68,3.75,2.08,5.74,1.46,2.37-.74,4.51-2.21,6.81-3.23,3.38-1.51,6.35-4.17,11.75-3.95,0,11.1-.14,21.81.08,32.51.08,4-1.83,5.32-5.34,6.14-14.62,3.41-29.19,7-44.87,10.87,1.13-6.38,4.18-10.71,6.78-15.17,2.21-3.81,4.81-7.4,7-11.2.89-1.53,2.19-3.39.32-5.13-2.12-2-4.18-.84-5.87.63a35.89,35.89,0,0,0-4.39,4.9c-4.5,5.78-8.36,12.2-10,19.17-2,8.75-7,11.82-15.46,11.32V496c8.24.82,15.94,3.15,23.75,4.92,14.12,3.2,28.2,6.6,42.37,9.56,4.27.9,5.76,2.76,5.62,7-.24,7.25-.19,14.52.1,21.76.17,4.15-1.36,6.31-5.31,7.59a91,91,0,0,0-11.2,5,43.14,43.14,0,0,0-5.7,3.31C1166.83,556.21,1165.26,557.71,1166.17,559.81Z"/><path class="cls-1" d="M542.18,496.22c-.2,14.43-9.65,25.41-22.12,27.35-2.46.39-5,.74-7.39-.46a4.33,4.33,0,0,1-2.68-3.6c0-2.2,1.81-2.06,3.34-2.27a50,50,0,0,0,6.48-1.07c11.25-3.09,17-13.63,13.45-24.88a68.36,68.36,0,0,0-3.29-7.76c-.78-1.73-2-3.78.13-4.95a4.17,4.17,0,0,1,5.1,1.39C539.34,485.26,541.93,491.19,542.18,496.22Z"/><path class="cls-1" d="M1423.12,519.11c0,2.75-2.11,2.65-4,2.79-.94.07-1.89,0-2.84,0-23-.13-28.89-22.86-22.2-38a8.91,8.91,0,0,1,4.49-4.69c1.68-.75,3.61-1.68,5.17.08,1.25,1.42.43,2.93-.47,4.27a27.91,27.91,0,0,0-4,10.53c-1.74,9,1.61,15.35,10.1,19a58.64,58.64,0,0,0,9.95,2.79C1421.26,516.33,1423.12,516.57,1423.12,519.11Z"/><path class="cls-1" d="M1685.16,482.25c2.08.24,4.35-.51,5.07,1.94.76,2.6-.91,4.44-3,5.14-4.13,1.4-8.51,2.07-12.68,3.39-7.15,2.27-14.21,4.84-21.31,7.25-1.52.51-3.33.9-4.32-.56-1.33-2,.09-3.58,1.55-4.8,4.14-3.45,9-5.64,14-7.51C1671.25,484.57,1678.34,483.36,1685.16,482.25Z"/><path class="cls-1" d="M1743.76,509.4c-.42,2.23-2,3.49-3.77,1.57-8.17-8.87-19.07-12.86-29.78-17.21-2.63-1.07-4.57-2.56-3.65-5.51,1-3.31,3.91-2.54,6.31-1.9a63.12,63.12,0,0,1,27.5,15.49C1742.46,503.82,1744.07,506.11,1743.76,509.4Z"/><path class="cls-1" d="M1687.81,376.83c5.71,0,10.43,0,15.14,0a2.52,2.52,0,0,1,2.6,2.24c.21,1.64-.3,3.3-1.93,3.9a14.55,14.55,0,0,1-4.63.61,153.22,153.22,0,0,0-30,3.15c-2.33.51-5.46,1.51-6.35-1.91s1.62-5.12,4.59-6C1674.31,376.92,1681.61,377.34,1687.81,376.83Z"/><path class="cls-1" d="M1593.34,476.38c-3.1-.39-3.93-2.38-3.07-4.75,4-10.92,8.1-21.77,12.22-32.62a8.3,8.3,0,0,1,1.53-2.37c1-1.2,2.33-2.27,4-1.68s1.84,2.31,1.67,3.91a10.65,10.65,0,0,1-.42,1.84c-3.24,10.83-7.16,21.42-11.43,31.89C1597,474.77,1595.92,476.58,1593.34,476.38Z"/><path class="cls-1" d="M1647.71,393c-.21,1.73-1.48,2.74-2.69,3.71-8.59,6.92-17.23,13.77-24,22.63-1.26,1.66-2.93,2.3-4.85.72s-1.13-3.32,0-4.93a92.48,92.48,0,0,1,23.11-23.41c1.75-1.25,3.87-2.25,6.21-1.36C1646.64,390.81,1647.66,391.51,1647.71,393Z"/><path class="cls-1" d="M1726,382.39c2,.57,4.12,1,6.15,1.83a71.25,71.25,0,0,1,20.85,12.4,19.72,19.72,0,0,1,5.37,6.41c.69,1.51.9,3.19-.47,4.31-1.06.87-2.34.11-3.37-.6a24.94,24.94,0,0,1-2.23-1.72c-6.92-6-15-10.17-23.3-13.8-2-.88-4.16-1.52-5.5-3.4a4.13,4.13,0,0,1-.48-3.58C1723.44,382.78,1724.53,382.4,1726,382.39Z"/><path class="cls-1" d="M229.86,376.88a97.49,97.49,0,0,1,23.36,2.1c2.49.58,5.24,1.22,4.51,4.7-.69,3.27-3.31,3.4-5.94,2.81-10.17-2.28-20.53-2.42-30.87-2.87a27.25,27.25,0,0,1-3.73-.38,3.75,3.75,0,0,1-3.11-4.11c.09-1.79,1.94-2.21,3.55-2.23C221.71,376.85,225.78,376.88,229.86,376.88Z"/><path class="cls-1" d="M235.56,482.37c11.21,1.61,23,4.38,33.49,11.14a14.25,14.25,0,0,1,2.72,2.55c.87.95,1.49,2.21.61,3.34a3.16,3.16,0,0,1-3.43.86,9.13,9.13,0,0,1-.89-.27,196.37,196.37,0,0,0-34.88-10.54c-2.45-.48-3.83-2.28-3.16-4.84C230.62,482.35,232.68,482.29,235.56,482.37Z"/><path class="cls-1" d="M209.75,485.92c2.24,0,4.34-.05,4.84,2.37a4,4,0,0,1-2.41,4.63c-2.86,1.27-5.9,2.15-8.77,3.4a73.33,73.33,0,0,0-22,14.32c-.88.84-1.94,1.83-3.3,1a3.66,3.66,0,0,1-1.52-4.1,7.8,7.8,0,0,1,1.65-3.3,52.16,52.16,0,0,1,29-18.15A13.85,13.85,0,0,1,209.75,485.92Z"/><path class="cls-1" d="M193,382.85c3.38-.45,5,0,5.42,1.73.24,1-.47,2.42-1.18,3.31a7.92,7.92,0,0,1-3,2.09c-10.07,4.39-19.72,9.46-28.1,16.71-1.47,1.27-3.14,2.25-4.93.5a3.32,3.32,0,0,1-.06-5A69.73,69.73,0,0,1,193,382.85Z"/><path class="cls-1" d="M330.45,472.36c-.13,2.07-.3,3.68-2.28,4-1.64.29-3.1,0-3.91-1.75-.94-2-2.07-3.91-2.84-6-3.08-8.24-6.15-16.5-9-24.82-1-3-4-7.17.59-8.72,4.3-1.45,5.29,3.57,6.5,6.58,3.39,8.46,6.48,17,9.61,25.61A51.17,51.17,0,0,1,330.45,472.36Z"/><path class="cls-1" d="M305.93,417.64a10.46,10.46,0,0,1-1.24,2.53,2.47,2.47,0,0,1-3.41.27,25,25,0,0,1-3.93-4,75.6,75.6,0,0,0-19.87-17.17c-1.61-.95-3.56-1.46-4.18-3.5a6,6,0,0,1,.54-5.44c1.59-2.11,3.32-.52,4.85.41a86.14,86.14,0,0,1,24.89,22.76A40.45,40.45,0,0,1,305.93,417.64Z"/><path class="cls-1" d="M932.1,508.27c7.68,0,14-.08,20.24,0,3.23.05,4.56-1.37,4.52-4.53-.08-5.26,0-10.52,0-16.22-7.6.67-13.43,3.93-19.6,6-2,.67-4.3,2.31-5.64-.68-1.12-2.5-.8-5.37,1.78-6.64,11.5-5.68,23.61-8.71,36.55-7.39a2.88,2.88,0,0,1,2.73,2.22,3.59,3.59,0,0,1-2.18,3.82,16.92,16.92,0,0,1-1.77.65c-2.32.85-5.42-.67-7.1,1.53-2,2.66-.93,6.1-.93,9.18,0,14.63-1.28,11.73,11.92,11.95,6.63.11,13.26.25,19.88.12,4-.08,5.72,1.57,5.71,5.53,0,18.29-.08,36.59.11,54.88.05,4.88-2.38,5.76-6.47,5.73-11.36-.07-22.72.08-34.07.13-6.63,0-13.25-.11-19.87.07-3.7.1-5.88-.62-5.84-5C932.18,549.44,932.1,529.29,932.1,508.27ZM960.65,541h0c0,6.93.09,13.86,0,20.79-.06,3.42.84,5.27,4.75,5.19,6.61-.14,13.24-.08,19.84.28,4.3.24,5.45-1.73,5.45-5.55q0-20.32.21-40.65c.05-3.55-1.14-5.11-4.9-5-6.93.2-13.87.24-20.79,0-4-.16-4.69,1.76-4.61,5.12C960.76,527.72,960.65,534.34,960.65,541Zm-3.8.73h-.07c0-5.33.06-10.67,0-16-.12-9.76,2.29-10.06-10.27-9.76a7.39,7.39,0,0,1-.94,0c-4.39-.53-6,1.17-5.92,5.79.29,11.29.07,22.59,0,33.89,0,12.06-.07,11.9,11.72,11.31,4-.2,5.67-1.36,5.52-5.5C956.69,554.88,956.85,548.29,956.85,541.69Z"/><path class="cls-1" d="M1027.56,542.76c-.42,10.79-2.29,21.19-8.29,30.41-1.83,2.8-4.2,7.12-7.87,4.9s-.89-6.15.94-9c5.6-8.71,7.25-18.55,8.45-28.54.22-1.87.29-3.75.54-5.61s1.17-3.1,3-2.93a3.25,3.25,0,0,1,2.8,3.26C1027.33,537.75,1027.41,540.26,1027.56,542.76Z"/><path class="cls-1" d="M957,602.91c.18-6.09-.61-11.11.66-16,.88.07,2,0,2,.19,2.11,8.9,2.11,9,11.43,7.67,7.5-1,14.89-2.46,21.84-5.7,1.91-.88,4.49-2,5.59.94,1,2.62-1.23,4.11-3.21,5.06C983.44,600.68,970.84,602.57,957,602.91Z"/><path class="cls-1" d="M904,536.81a60.88,60.88,0,0,1,6.42-24.37,18.85,18.85,0,0,1,4.43-6.06c1.51-1.3,3.14-2.45,5-1.16,1.65,1.14.66,2.77.06,4.21-4.25,10.18-8.05,20.48-9,31.62-.18,2.09-.95,4.71-3.83,4.59-3-.13-2.85-2.78-3-4.95-.05-.63,0-1.26,0-1.89Z"/><path class="cls-1" d="M866.25,618.44a55.3,55.3,0,0,0-.09,15.15c-1.4,2.44-3.61,3.78-6.17,2.63-1.89-.85-1.07-3.32-1.08-5-.07-10.92,0-21.85.06-32.78a23.38,23.38,0,0,1,.32-3.73,2.81,2.81,0,0,1,3.24-2.58,2.73,2.73,0,0,1,2.81,3c.18,5,.27,10,.45,15C865.89,612.85,866.09,615.65,866.25,618.44Z"/><path class="cls-1" d="M865.05,553.82c0,6.29,0,12.58,0,18.87,0,2.15-.94,3.8-3.29,3.57-1.76-.18-2.5-1.79-2.51-3.45q0-18.4.06-36.79c0-2,.67-4,2.93-4.1,2.65-.15,2.66,2.12,2.68,4,.05,6,0,11.94,0,17.91Z"/><path class="cls-1" d="M1020.69,513.79c-.3.55-.52,1.61-1.16,2a2.7,2.7,0,0,1-3.46-.27,19.9,19.9,0,0,1-2.67-3.81c-4.58-8.18-11.25-14.08-19.48-18.42-2.87-1.5-7.58-2.84-5.45-7.13,2.23-4.5,6.47-1,9,.2,10.61,5.06,17.29,14.05,22.31,24.4A20.5,20.5,0,0,1,1020.69,513.79Z"/><path class="cls-1" d="M941.82,591.64c.14,2.09-1.15,3.25-2.76,3.17a13.8,13.8,0,0,1-5.37-1.61c-11.12-5.71-19-14.32-23.05-26.28-.69-2-.63-3.81,1.5-4.74,1.79-.78,2.94.62,3.84,1.89s1.58,2.71,2.38,4.07C923.2,576.43,929.11,583.7,938,588,939.74,588.83,941.39,589.63,941.82,591.64Z"/><path class="cls-1" d="M959.4,450.26c2.44,5-.11,10.69,1.64,16.54,10.17,0,20.49-.11,30.81.08,2.83.05,7.6-1.53,7.75,2.81.15,4.73-4.7,2.84-7.42,2.9-10.06.22-20.12,0-30.18.16-4.06.08-5.6-1.23-5.27-5.38.46-5.68.45-11.4.63-17.09Z"/><path class="cls-1" d="M917.71,472.69c-6,0-11.9,0-17.85,0-1.83,0-4,.17-4.13-2.54s1.64-3.77,4.2-3.74c12.21.14,24.42.24,36.63.43,1.49,0,3.22.12,3.32,2.3.11,2.35-1.25,3.48-3.39,3.51-6.26.08-12.52,0-18.78,0Z"/><path class="cls-1" d="M1069.17,614.44q0,8.47,0,17c0,2.47-.8,4.41-3.7,4.25-2.68-.16-2.47-2.43-2.48-4.19-.07-11.62-.06-23.25,0-34.88,0-2.4.65-4.48,3.65-4.26,2.66.19,2.48,2.4,2.5,4.2.07,6,0,11.94,0,17.91Z"/><path class="cls-1" d="M1069.08,554.47c0,5.94,0,11.88,0,17.83,0,2.32-1.22,3.31-3.51,3.14-2-.15-2.58-1.41-2.58-3.12q0-18.3,0-36.6c0-2.28,1.21-3.46,3.5-3.28,1.93.16,2.54,1.53,2.55,3.26q0,9.38,0,18.77Z"/><rect class="cls-2" width="1" height="1"/><rect class="cls-2" x="1919" y="1079" width="1" height="1"/><rect class="cls-2" y="1079" width="1" height="1"/><rect class="cls-2" x="1919" width="1" height="1"/></g><g id="Capa_3" data-name="Capa 3"><path d="M857,672v93.29H840.37V705.88L824,718.41l-13.6,10.53-13.59-10.53L780.4,705.88v59.44H763.74V672l16.66,12.8,30,23,30-23Z"/><path d="M902.33,703.08v63.44H885.67V701.35A13.29,13.29,0,0,0,874.35,690h-3.74V673.5h3.6v.13a30,30,0,0,1,11.33,3.07A29.58,29.58,0,0,1,899,690.29a35.2,35.2,0,0,1,2.26,6.26,27.67,27.67,0,0,1,.8,6.8Z"/><path d="M1008.54,700.28a27.42,27.42,0,0,1-7.73,19.19,27.52,27.52,0,0,1-19.73,46.65H915.39V749.46h65.69A11,11,0,0,0,992,738.53a10.86,10.86,0,0,0-10.26-10.93H932.18V711h49.57a10.94,10.94,0,0,0-.53-21.86h-65.7V672.43h65.7a27.41,27.41,0,0,1,27.45,27.46Z"/><path d="M1107.68,718.81A27.52,27.52,0,0,1,1088,765.45h-38.25a27.37,27.37,0,0,1-25.32-16.79,28.91,28.91,0,0,1-2.13-10.8,27.45,27.45,0,0,1,7.73-19.19,25.92,25.92,0,0,1-5.73-8.39,28.71,28.71,0,0,1-2.14-10.79A27.06,27.06,0,0,1,1049,671.9h39a27.61,27.61,0,0,1,19.32,46.77Zm-20.39-8.13a10.87,10.87,0,0,0,.4-21.72h-39.31a10.87,10.87,0,0,0,.26,21.72h38.65Zm.13,38.25A11,11,0,0,0,1098.35,738a10.85,10.85,0,0,0-10.26-10.93h-39a10.82,10.82,0,0,0-10.26,10.79,11,11,0,0,0,10.93,10.93H1088Z"/><path d="M1160.58,703.08v63.44h-16.66V701.35A13.3,13.3,0,0,0,1132.59,690h-3.73V673.5h3.6v.13a30,30,0,0,1,11.33,3.07,29.58,29.58,0,0,1,13.46,13.59,35.2,35.2,0,0,1,2.26,6.26,28.16,28.16,0,0,1,.8,6.8Z"/></g></g></svg>