<svg xmlns="http://www.w3.org/2000/svg" viewBox="0 0 1920 1080"><defs><style>.cls-1{fill:#f2f2f2;}.cls-2{fill:#010101;}</style></defs><g id="Capa_2" data-name="Capa 2"><g id="Capa_1-2" data-name="Capa 1"><rect class="cls-1" width="1" height="1"/><rect class="cls-1" x="1919" y="1079" width="1" height="1"/><rect class="cls-1" y="1079" width="1" height="1"/><rect class="cls-1" x="1919" width="1" height="1"/></g><g id="Capa_3" data-name="Capa 3"><path class="cls-2" d="M1092.53,803.19l.06.06.08-.07ZM1758.1,594.87a7.05,7.05,0,0,1,.58-1.08s-1.43-115-1.43-126.43-4-17.43-4-17.43c-11.65-12.87-26.52-11.54-41.06-11.55-16,0-32,.2-48-.16-14.23-.32-19.2-5.53-19.27-19.56-.08-14.66-.24-29.34.3-44,1.24-33.82-18.29-70.16-59-83.4-44.62-14.53-89.59-27.63-135.49-37.38q-79.56-16.92-160-29.37c-42.45-6.52-85-12-127.93-15.09-15.86-1.14-32.05-1-47.1-7.55-4.7-2-9.56-3.81-13.47-7.34-9.55-6.83-40.26-6.32-40.26-6.32a77.6,77.6,0,0,0-15.82,1.11c-5.32,1-8.25,3.39-9.48,8.37.45,3.07-.74,5.45-3,7.56-1.25-2.55-1.06-5-.89-7.51-2.52-3.3-6.12-2-9.29-2l-130.11-.28c-5-.1-6.53,1.91-6.59,6.25.48,1.31.26,3.09-.8,3.26s-1.76-1.54-1.84-2.9c-3.4-6.88-6.73-13.72-16.08-13.79-12-.1-24-.83-35.93.46-6.89.74-12.86,3.66-18.61,7.34-10.35,6.61-21.63,10.79-33.93,11.6-15.29,1-30.53,2.45-45.79,3.75-39.5,3.38-78.73,8.83-117.84,15q-80.13,12.67-159.44,30c-19.74,4.29-39.67,8.16-58.89,14.21-20,6.3-40.5,11.34-60.15,19-4.62,1.8-9.56,3.16-14.31,4.86C310.7,299,301.18,308,292.81,317.6a69.38,69.38,0,0,0-17.33,41.74c-1.31,20.32-.3,40.65-.69,61-.06,3.21.8,6.66-2.11,9.37-5.09,4.73-10.12,8.85-17.87,8.72-18.32-.3-36.65-.19-55,.15-11.83.23-24.19-.57-32.7,11.65-4.12,4.7-5.82,14.08-5.82,14.08V575.55a156.52,156.52,0,0,0,1.55,22.88,20.53,20.53,0,0,0,4.84,10.41c5.62,7,12.74,10.56,21.86,10.51q26.48-.14,53,.25c13,.19,20.25,8.59,19.55,21.5-1.55,28.6-3.17,57.21-.82,85.86,1,12.43,13.12,24,25.85,24.07l93.93.46,59.93.32c1.66-.31,2.13.44,1.75,2a49.07,49.07,0,0,1,.52,5c.08,10.69,4.71,18.58,13.87,24.21,3.92,2.41,8.39,4,11.93,6.64,4,3,10.79,3.57,10.42,11.25-.57,11.62-.44,23.28-.6,34.92.16,1.65.45,3.3.46,5,0,15,0,30,.06,45,.05,8,.18,8,8.43,8.28,1.66,0,3.33.06,5,.06q64,0,128,0c13.74,0,13.74,0,14.49-13.37a19.15,19.15,0,0,0,0-2c-.12-3.24,1.52-4.49,4.64-5.24,18.56-4.51,37-9.74,55.63-13.75,11.41-2.45,22.42-6.95,34.49-7.32a29.9,29.9,0,0,1,1.31,8.95c.32,7.07,3.18,9.36,10.33,8.39,29-3.91,57.06-12.72,86.07-16.63,3.85-.52,6.11-3.36,5.21-8-.54-2.82-1.83-5.67-.84-9.21,0,0,91.5-7.72,128.43-7.72s117.27,6.38,117.27,6.38c8.81,1.13,9.38,2.06,9.25,11.26-.08,6,1.07,7.16,7.19,7.62a57.1,57.1,0,0,1,9.86,1.38c15,3.84,30.41,5.53,45.35,10.26,10,3.18,21.07,4.72,31.88,5.65,4.49-.14,4.76-3.64,5.6-6.84,3.24-12.37,3.27-12.31,15.75-9.5,35.26,7.91,70.31,16.6,104.82,27.37A58.84,58.84,0,0,1,1313,884c4.2-1.4,5.77,3.82,9.69,3.7,5.62-.17,11.26.45,16.89.46,7.71.26,16.31-4.19,16.31-4.19,11.53-11.28,12.38-25.54,14.8-39,1.56-8.64,5.49-14.09,13.11-18.33,25-13.91,49.55-28.6,74.5-42.57,11.37-6.36,18.47-15.07,18.8-28.37.1-3.89,2.14-4.23,5.07-4.19,5,.08,10,.08,15,.08q61.44,0,122.88-.1a80.61,80.61,0,0,0,12-.56c16.45-2.48,26.85-13.7,27.53-30.39a681.29,681.29,0,0,0-1.07-77.88c-1.29-17.35,4-23.08,21.28-22.93,15,.13,30,.1,45-.18,18.54-.34,27.29-6.74,33.6-24C1758.21,595.3,1758,595.05,1758.1,594.87ZM1033.25,230.16a39.07,39.07,0,0,1,.49-4.28c9.43.12,13.28-5.94,16-13.79,2.75-8.09,3-8,12-8,2.67,0,5.35.2,8,0,11-1,20.87,1.8,30.31,7.66,11.48,7.11,24.45,10.75,37.81,11.71,68.73,5,136.93,14,204.77,26,59.92,10.6,119.72,21.63,178.33,38.3,21.43,6.09,42.74,12.57,63.73,20.07,20.81,7.44,34.44,22,41.59,42.81.42,1.23,1,2.49-.39,4.13-10.15-3.05-20.54-6.07-30.86-9.31-27-8.46-54-16.38-81.24-24-14.41-4.06-28.06-10.33-42-15.77-2.64-1-5.11-3.43-7.33,1-1,2-3.58.84-5.45.11-3.71-1.45-7.42-2.91-11.14-4.34-15.53-6-31.32-10.56-48.22-10.65-4.55,0-9.18-1.5-13.62-2.82-15.64-4.63-31.42-8.61-47.7-10.16s-31.58-8.66-47.87-9.5c-23.06-1.2-45.05-8.36-67.81-11-3-.33-6.09-1.13-8.89.15-5.78,2.65-11.45,1.05-16.46-1.2-14.2-6.38-29.36-4.9-44.16-6.41a6.14,6.14,0,0,0-3.81.87c-6.16,4.2-12.53,2.43-17.9-.63-4.38-2.51-8.6-3.06-13.24-3.22-6.66-.24-13.31-.67-20-.81-5.27-.11-10.34-.12-15.6,2-4.63,1.86-10.44,2.82-14.82-1.89-2.33-2.51-5.52-2.11-8.39-2.4-4.3-.43-8.65-.38-13-.51C1031.17,243.78,1033.16,247.12,1033.25,230.16Zm482.8,109.26c-15.44-4-30.84-8.12-46.27-12.15-10.61-2.78-21.25-5.39-31.82-8.29-2.32-.64-5.5-.76-5.44-4.62,0-3.27.08-6.3,4.84-5.24l23.13,6.09c18.63,4.93,37.27,9.83,55.87,14.88,2.34.63,5.6.29,6.26,3.77C1523.37,337.89,1520.4,340.53,1516.05,339.42Zm-90-26.43c-.85,3.3-3.1,2.32-5.53,1.75-29.11-6.87-58.21-13.75-87.53-19.68-40.13-8.11-80.53-14.29-121.13-19.44-39-4.95-78-8.85-117.25-11.09-16.29-.93-32.6-1.55-48.88-2.45-3.06-.17-6.72.62-9-3.57,3.17-1.45,6.09-.88,8.86-.85a1586.27,1586.27,0,0,1,191.08,13.46,1747.36,1747.36,0,0,1,177.45,32.59c2.91.7,5.82,1.4,8.71,2.16C1426.76,306.91,1426.85,309.88,1426.05,313ZM294.28,348.69c7.34-20.43,21.22-34.34,41.79-41.27a1244.21,1244.21,0,0,1,144.19-39.56c54.39-11.3,109-21.26,164-29.45,37.85-5.65,75.85-10.22,114-13.07,10.59-.8,21.23-1.31,31.78-3.08,11.34-1.9,22.05-5.42,31.64-11.58,7.94-5.1,16.22-7.46,25.52-6.62a13,13,0,0,0,3,0c11-1.51,20-.15,22.57,13.34,1.25,6.65,7.72,7.52,13.17,8.77,1.81,17.91,1.81,17.9-15.74,18.12-4,.05-8,.23-12,.37-2,.07-4.26-.17-5.45,1.75-3.75,6-10,4.65-14.3,3-7.91-3.1-15.63-2.46-23.57-2.1-4,.19-8,.19-12,.38-5.53.25-10.76.26-16,3.73-4,2.63-9.76,4.67-14.79,0-1.79-1.64-4.38-1.3-6.73-1.12-8.3.63-16.64.94-24.89,2-5.44.68-11,.6-15.91,4.66a14.89,14.89,0,0,1-13.37,2.58c-9.48-3.15-18.51-.51-27.64.68a126.46,126.46,0,0,0-18.51,4A88.43,88.43,0,0,1,639.54,268c-11-.09-21.77,2.76-32.33,5.74-18,5.08-37.05,4.73-54.87,10.23-19.11,5.89-38.93,7.56-58.38,11.35-9.59,1.87-18.24,5.82-27.23,9.16-4.36,1.62-9.21,6.25-14.11,0-1.27-1.62-3.71.61-5.43,1.33-49.17,20.8-101.45,31.79-152,48.16a3.5,3.5,0,0,1-1,0C292,352.18,293.66,350.43,294.28,348.69Zm588.55-90.12c-2.54,4.13-6.14,3.13-9.23,3.3-26.27,1.5-52.6,2.34-78.8,4.56q-47.26,4-94.36,10c-39.62,5-79.06,11.24-118.14,19.52-25,5.31-50,11.21-74.93,16.85-2.27.51-4.6.83-6.82,1.49-2.56.76-4.69.82-5.14-2.42-.38-2.72-.43-5.46,3.14-6.29,6.16-1.42,12.31-2.87,18.47-4.27,55.17-12.56,110.73-22.76,166.87-30.07a1704.57,1704.57,0,0,1,190.2-13.75C876.72,257.41,879.42,256.81,882.83,258.57ZM487.15,317.41c-1.6,1.07-3.7,1.45-5.62,1.95Q443.42,329.22,405.3,339c-1.29.33-2.58.66-3.89.9-2.45.46-3.75-.82-4.18-3.08s-.93-4.52,2.42-5.4c28.26-7.41,56.18-16.16,84.73-22.48a7.53,7.53,0,0,0,.95-.31c1.52-.51,2.83.08,3.1,1.47C488.93,312.64,489.84,315.6,487.15,317.41Zm83.28,568.38q-38.79-.4-77.6-.3c-4.65,0-5.53-2.13-5.47-6.07.22-14.58.26-29.16.37-43.73-.13-9.26-.17-18.52-.42-27.78-.11-4,.78-6,5.47-5.94,23.5.46,47,.6,70.52.9,1.65,0,3.28.47,4.93.58,5.36.35,7.37,3.15,7.08,8.48-.43,7.92-.36,15.87-.5,23.8.19,14.91.33,29.82.59,44.72C575.46,884,574.62,885.83,570.43,885.79Zm-23.8-161.68c0-2.33,0-4.66.13-7,.09-1.8.8-3.15,2.91-3.22s4,.25,4.57,2.72a14.1,14.1,0,0,1,.21,3c0,20.93,0,41.86,0,63.16-6.12-.08-8.43-1.77-8.22-7.75C546.83,758.06,546.55,741.08,546.63,724.11Zm2.64,69.25c-1.76.21-2.28-1-2.33-2.43,0-.91.32-2.2,1.33-2a3.27,3.27,0,0,1,2.66,2.63C551.11,792.76,550.27,793.24,549.27,793.36Zm77.84,87c0,3.73-1,5.39-5,5.29-10.65-.25-21.32-.42-32-.08-5.33.16-6.8-1.65-6.75-6.84.21-20.65,0-41.3,0-62,0-5.67-.14-11.34.08-17,.17-4.38-1.82-5.78-6-5.83-17.23-.19-14.62-1-14.77-15.92-.2-20.32.18-40.64,0-61a22.87,22.87,0,0,1,8.86-19c13.09-10.78,28.06-16.63,45-16.71,13,0,24.59,5.27,35,12.43,30.16,20.73,37.37,58.7,17.3,88.3-4.34,6.4-9.08,10.8-18,9.61-7.85-1.05-16-.3-23.95-.15-11.17.2-15.22,7.1-10.21,17.28.73,1.47,1.74,2.81,3,4.9-5.63.75-9.4-1.9-13.57-2.64-2.63-.46-4.76-.3-5.79,2.28-1.17,2.92.91,4.11,3.22,5.1a74.11,74.11,0,0,0,18.15,5.28c4.32.66,5.42,2.71,5.39,6.65Q627,855.4,627.11,880.38Zm5.82-72.63a8.17,8.17,0,0,1-8.3-2,4.64,4.64,0,0,1-1.64-4.41c.44-2.22,2.4-2.18,3.91-2,6.53.57,13.14-1.18,21.58.72C642.85,804.57,637.93,806.29,632.93,807.75Zm91.88,27.75c-3,3.44-10.44,3.12-15.95,4.25-22.81,4.68-45.32,10.61-67.85,16.48-1.57.41-3,1.47-5.32.45V827.13c1.9-2.37,4.83-.81,7.27-1.38,2-.47,4.1-.88,4.45-3.23.4-2.74-1.94-3.09-3.84-3.57-2.45-.61-4.94-1.1-7.49-1.66,1.27-4.1,5-3.52,7.5-4.71,28.61-13.51,44.65-36,44.66-67.6,0-30.72-15-53.54-43.17-66.31-29-13.15-62.22-6.14-84.42,19.15-4.66,5.3-8.71,9.71-16.58,7.72-4.63-1.16-5.56,2.1-5.54,6,.08,14.67.09,29.33.11,44,0,11-.15,22,.1,33,.11,4.35-1.33,5.49-5.65,5.7-14,.66-26.91-1.08-38.72-9.78-7.71-5.68-16.58-9.85-25.14-14.3-7.23-3.77-11.42-8.82-10-17.46a18.74,18.74,0,0,0-.37-6.95c-1.54-7-4.56-9.57-11.76-9.75-10-.24-20-.15-30-.17-40-.07-80-.35-120-.06-12.33.1-20-2-21.3-19.94a177.69,177.69,0,0,1-.22-20c.68-18.64,1.36-37.3,2.49-55.92,1.27-21.06-12-35.89-33.27-36.23-16.33-.25-32.66,0-49-.09-14.11-.11-18.55-4.39-18.6-18.64q-.22-56,0-112c0-12.8,6.09-18.73,19.14-18.85,17.33-.15,34.67.05,52,0,4.33,0,8.67,0,13-.4,17.45-1.53,28.83-13.19,29.25-30.65.41-16.66,0-33.34.25-50,.17-10-1.33-8.21,8.68-11.3q39.56-12.18,79.13-24.34c3.17-1,6.21-2.4,9.64-2.29.49-.87,1.41-1.56,2.05-.65s-.32,1.37-1.26,1.4c-5.29,7.32-12.92,11.06-21.26,13.57-9.55,2.87-19.23,5.32-28.74,8.33-23.72,7.54-37.49,25.37-38.49,50.2-.44,11,0,22,0,33q0,116,0,232a93.24,93.24,0,0,0,.8,15c4.17,25.2,22.81,41,49.71,41.49,28.32.47,56.65.16,85,.22q12,0,24,.2c4.62.06,9.28-.35,13.25,3.1,2.19,1.9,5.18,2.09,7.16-.38,2.24-2.8,5-2.67,8-2.71,19.49-.26,33.28-9.12,42.13-26.72,13.15-26.15,34.77-41.93,63.39-46.91,49.82-8.67,93.74,19.32,106.64,68.33,8.21,31.19,14.74,62.81,21.73,94.31C723.73,824.43,728.6,831.18,724.81,835.5Zm103.67-32.29c-.43.56-.93.44-1.33-.33,0-.07.4-.49.67-.58s.45.18.68.29C828.49,802.8,828.58,803.08,828.48,803.21Zm237.64,14.12c-31.84-3.15-63.73-5-95.72-5.14l-26,.08c-36.61.81-73.16,2.76-109.53,7.25-1.93.23-4,.89-5.84-.64-.54-6.21,2.66-9,8.64-9.54,11.25-1.07,22.48-2.43,33.73-3.47,14.58-1.35,29.18-2.39,43.82-2.94,5-.19,11.82,2,14-6,.44-1.62,2.93-.89,4.52-.9l54.6-.09c1.43,0,3,.42,3.15,1.82.84,6.37,5.69,5.54,9.87,5.55,24,0,47.81,3.15,71.73,4.64,3.3.2,6.57,1,9.87,1.39,5.68.73,7.81,4.26,8.14,9.93C1082.39,820.49,1074.27,818.14,1066.12,817.33ZM948.19,757.9l27-.12c4.32-.62,7.5-2.44,9.7-6.07,1.69-2.8,3.23-5.69,4.83-8.55l1.66,0c0,13.83,0,27.67,0,41.51,0,2.53-1.19,3.46-3.65,3.41l-47-.26c-12.22.63-12.3.43-12.23-12.2.06-11.26-.62-22.54,1.77-33.93.69,1.76,1.44,3.5,2.08,5.27C935,754.44,940.16,757.78,948.19,757.9Zm-10.58-28.1c.95-9.33,8.77-15.55,21.34-18,2.24-.48,7.11.16,7.11.16,12.35,3.33,20,18,15.08,28.81-3.32,7.24-5.19,8.93-13.48,8.87l-14.07-.25C939.3,750.46,936.33,742.38,937.61,729.8Zm243.08,77.41c-8.54-1.13-16.94-3.27-25.41-5-.65-.13-1.32-.21-2-.31-2.7-.39-5.41-.94-6,3s1.84,4.08,4.72,4.61c10.13,1.83,20.17,4.21,30.32,5.89,5,.83,6.71,2.08,5.23,7.69-3.29,12.48-5.63,25.21-8.56,38.75l-83.51-17.06c1.4-14,9.15-28-2.89-41.6l-.38.33-1.16-.67c.21-.19.47-.56.63-.52a5.41,5.41,0,0,1,1.21.59l-.22.2c7-.5,12.4.89,17.84,1.52,4.62.54,9.25,1,13.88,1.46,2.5.24,4.64,0,4.84-3.39.15-2.64-1.24-3.54-3.47-3.84-12.2-1.62-24.39-3.29-36.59-4.84-6.6-.84-2.79,5.31-4.94,7.76-4.55-.76-9.11-1.56-13.68-2.24-1.71-.26-3.72-.51-3.63-2.53.26-5.44-3.16-5.45-7.1-5.62-9.64-.44-19.26-1.27-28.9-1.72-3.91-.19-8.05-.72-10.6,3.68-1.1,1.9-3.34,1.85-5.4,1.63-15.61-1.68-14,.84-14.07-14.62,0-15,.28-30-.12-45-.56-21-12.27-35.77-31.34-41.4s-43.54,7.93-48.47,30.58a84,84,0,0,0-1.5,18.87c.15,13.66.27,27.31.07,41,0,3.31,1.55,7.79-3.28,9.45s-10.41,3.47-14.14-.54c-3.37-3.62-6.87-3.35-10.74-3.55-11-.59-21.89,1.82-32.88,1.8-2.64,0-4.62.72-4.73,3.78-.08,2.18-.68,4.1-3.21,4.16-4.31.1-8.39,2.3-12.77,1.35a2.05,2.05,0,0,1-1.39-1.26c-1.05-7.67-6.78-5.79-11.37-5.29-8.92,1-17.8,2.4-26.68,3.68-1.64.24-3.25.71-4.88,1-2.45.47-3.15,2-2.88,4.34.31,2.55,2,3.37,4.19,3.1,7.59-.91,15.16-2,22.77-2.86,2.56-.27,5.14-1.46,7.74-.47,2,2.39-.34,3.53-1.34,5a18.12,18.12,0,0,0-3.1,12.33c.37,3.63,1,7.24,1.59,10.84,2.11,13.15,2.12,13.15-11.21,15.69a4.37,4.37,0,0,1-4.21.62c-15.38,4.38-31.23,6.54-46.79,10-4.87,1.09-9.89,1.63-14.65,3.07-3.42,1-5.06.13-5.79-3.06-2.82-12.33-5.55-24.67-8.41-37-.9-3.9,1.43-4.28,4.34-4.84,9.8-1.87,19.56-4,29.34-6,2.28-.46,4.7-.53,6.44-2.35a3.8,3.8,0,0,0,.86-3.69,2.66,2.66,0,0,0-3-2.06,37.07,37.07,0,0,0-5.93.71c-11.1,2.15-22.18,4.35-33.69,6.62-4.31-11.22-5.86-23.14-8.62-34.73-4.25-17.79-7.71-35.78-12.27-53.49C691.18,652.31,608,622.84,551.33,665c-12.85,9.56-22.31,21.89-29.55,36-4.81,9.36-11.75,16-21.86,19.19a16.53,16.53,0,0,1-3.23,0c0-9.81,0-19.62,0-29.43,0-2.64.52-5.45-.87-7.85a5,5,0,0,0-5.12-2.39c-2.26.27-2.24,2.28-2.25,3.81-.09,9.66.08,19.33-.06,29-.12,8.76-.3,8.66-9.16,8.28-6-.25-10.77-2.57-15.32-6.33-5.53-4.57-10.82-9.68-18.25-12.45-3.11,10.51,8.11,11.47,10.83,18.74h-13q-42,0-84,0a89,89,0,0,1-16.92-1.16c-19.32-3.68-32.42-18.29-33.68-37.92-.15-2.33-.15-4.67-.15-7q0-131.5,0-263c0-8.09.7-16,4.5-23.27a45.88,45.88,0,0,1,26.49-23c5.65-1.94,11.56-3.14,17.22-5.05,3.51-1.19,6.18-2.28,7.24,2.88.51,2.52,2.91,2.23,4.83,1.06a8.08,8.08,0,0,0,2.31-1.9c6.25-8.37,15.58-10.81,25-13.28q39.56-10.38,79.06-20.94A53.36,53.36,0,0,1,488,327c1.27,4.58.51,8.93.77,13.23.1,1.61,0,3.47,2.35,3.54,2.11.07,4.17-.37,4.43-2.92a70.69,70.69,0,0,0,.56-11c-.28-5,2.05-6.92,6.68-8,58-13.7,116.14-26.11,175.18-34.36q58.88-8.24,118.08-13.22c24.89-2.08,49.89-2.78,74.84-4.14a70.15,70.15,0,0,0,9.94-1,15.19,15.19,0,0,0,11.44-8.78c2.36-7.8,2.36-19.29,2.36-19.29,0-11,.1-22-.07-33-.06-3.51,1.21-4.62,4.59-4.6l120-.09c4.72-.07,6.42,1.22,6.24,6.14-.37,9.65-.09,19.33-.1,29,0,1.33.48,3.13-.2,3.93-7.69,9,2.06,14.33,4.91,20.59s9.93,6.91,16.52,7.13c33.3,1.15,66.58,2.73,99.73,6,55.64,5.45,111.11,12.18,166.06,22.82,34.62,6.7,69.07,14.09,103.32,22.44,10.42,2.54,9.94.42,10.56,13,.16,3.28-3,9.65,3.21,9.46,5.61-.17,2.36-6.46,3.25-9.95.56-2.2.37-4.6.55-7.4,10.51,1.1,20.2,4.43,30,7.05q33.74,9,67.41,18.25c5.44,1.5,10.59,3.42,14.58,8.06,7,8.11,7.2,7.92,13.27-.7,8.12,2.68,16.51,4.92,24.48,8.19,17.32,7.11,27.13,20.34,27.89,39,.78,19.3.31,38.66.39,58a13.33,13.33,0,0,1-.08,2c-.19,1.26-.27,2.65-2.05,2.76s-2.19-1.12-2.47-2.42c-1.15-5.54-2.18-11.1-3.41-16.62-.79-3.57-1.7-7.12-2.84-10.59-.72-2.18-1.78-4.67-4.86-3.71-2.38.74-2.53,3-2.09,5,2.72,12,5.54,24,6.86,36.24.51,4.73,3.9,4.67,7.45,4.1.09-1,.19-2,.28-3a28.75,28.75,0,0,1-.66-2.89c-.23-1.64-.46-3.74,1.68-3.93s2.25,1.85,2.17,3.52c0,1-.22,2-.33,3a4.86,4.86,0,0,1,0,4,74.23,74.23,0,0,1,.05,16,8.89,8.89,0,0,1,0,6,245.52,245.52,0,0,1,0,32,4.41,4.41,0,0,1,0,4q.77,28.63-.24,57.26c1,28.93.72,57.89.13,86.81-.35,17.53-17.34,35.34-34,36.45-5.64.37-11.28,1.06-16.92,1.11q-46.93.35-93.88.42c-.86,0-2.08.47-2.62-1.8,3-2.71,6.44-5.64,9.66-8.77,1.83-1.78,4.84-3.83,3.38-6.53-1.62-3-4.78-.36-7.26-.28-4.19,3.26-8.71,6.19-12.5,9.87-6.51,6.35-14,8.46-23.72,6.79,0-10.4.13-21-.07-31.58-.07-3.53,2-9.43-4.48-8.78-5.2.52-2.78,5.91-2.87,9.11-.3,10.3-.11,20.6-.11,31.42a30.1,30.1,0,0,1-22.23-12.37,87.34,87.34,0,0,1-6.26-10.18c-16.14-28.81-40.22-46.32-73-51.46-3.61-.56-7.2-1.27-10.79-1.91a38.25,38.25,0,0,1-12.08.21c-12.44,2.21-24.9,4.32-36.37,10.1-27.38,13.78-45.77,35.25-53.42,65-6.71,26-12.31,52.4-18.1,78.68C1190.41,811.34,1190.67,808.53,1180.69,807.21Zm562-220.41c-.48,10.66-6.26,16.42-16.94,16.55-12.67.15-25.33.06-38,.15-6,0-12,.52-18,.29-16.63-.61-26.69,15-27.2,27-.32,7.64.16,15.31.23,23,.18,20.66.47,41.33.43,62,0,14.92-4.94,19.83-19.75,19.88q-67,.23-134,.24c-4.33,0-8.67,0-13,0-13,.15-16,2.27-15.22,15,.67,10.65-4.81,15.88-12.71,20.41-24.26,13.91-48.28,28.25-72.85,41.58-11.15,6-18.08,13.95-19.92,26.61-1,7.21-3.19,14.26-4.77,21.4-2.14,9.64-9.82,14.76-20.28,11.3-29-9.59-58.37-18.31-88.22-25.13q-20.41-4.66-40.85-9.24c-2.6-.58-5.23-1-8-2.86,3.76-16.51,7.42-33.27,11.41-49.94,5.27-22,9.3-44.28,15.81-66,14.61-48.74,67.09-75.6,116.39-60.76,18,5.43,32.71,16.29,43.88,31.54a99.34,99.34,0,0,1,9.53,15.21c8.21,16.94,22.43,23.7,40.26,24.79,1.33.08,3.28-.59,3.9.07,5.85,6.17,11.39,2.18,17.5.39,4.64-1.36,9.92-.63,14.91-.64,33.33-.06,66.66,0,100-.14,13.65-.07,26-3.09,36.44-13.27,9.91-9.7,15.39-20.8,15.54-34.42.26-24.33.17-48.67.25-73,0-3.65.21-7.31.32-11a5.12,5.12,0,0,1,0-4.18c-.14-4-.41-8-.41-11.95q0-85,.07-170c0-11.22-2-21.83-8.11-31.43-7.13-11.17-17.36-18.28-29.77-22.29-9.48-3.06-19.14-5.59-28.68-8.47a48.41,48.41,0,0,1-21.74-13c1.52-2.63,3.24-1.26,4.53-.87,29,8.78,57.87,17.75,86.87,26.4,4.92,1.47,6.81,3.79,6.72,9-.26,16.32,0,32.66-.12,49a36.32,36.32,0,0,0,2.23,13.72c5.09,12.74,14.75,19.51,28.36,20.05,12.31.48,24.65.35,37,.43,9.67.05,19.34-.07,29,0,10.27.12,15.87,5.35,16.93,15.6a37.9,37.9,0,0,1,.08,4v111C1742.68,585.46,1742.7,586.13,1742.67,586.8ZM1092.53,803.19l.06.06.08-.07Zm0,0,.06.06.08-.07Z"/><path class="cls-1" d="M1610.93,503.75a8.89,8.89,0,0,0,0-6,74.23,74.23,0,0,0-.05-16,4.86,4.86,0,0,0,0-4c.11-1,.28-2,.33-3,.08-1.67,0-3.71-2.17-3.52s-1.91,2.29-1.68,3.93a28.75,28.75,0,0,0,.66,2.89c-.09,1-.19,2-.28,3-3.55.57-6.94.63-7.45-4.1-1.32-12.26-4.14-24.24-6.86-36.24-.44-2-.29-4.25,2.09-5,3.08-1,4.14,1.53,4.86,3.71,1.14,3.47,2,7,2.84,10.59,1.23,5.52,2.26,11.08,3.41,16.62.28,1.3.75,2.52,2.47,2.42s1.86-1.5,2.05-2.76a13.33,13.33,0,0,0,.08-2c-.08-19.33.39-38.69-.39-58-.76-18.69-10.57-31.92-27.89-39-8-3.27-16.36-5.51-24.48-8.19-6.07,8.62-6.3,8.81-13.27.7-4-4.64-9.14-6.56-14.58-8.06q-33.66-9.26-67.41-18.25c-9.83-2.62-19.52-6-30-7.05-.18,2.8,0,5.2-.55,7.4-.89,3.49,2.36,9.78-3.25,9.95-6.26.19-3.05-6.18-3.21-9.46-.62-12.54-.14-10.42-10.56-13-34.25-8.35-68.7-15.74-103.32-22.44-55-10.64-110.42-17.37-166.06-22.82-33.15-3.25-66.43-4.83-99.73-6-6.59-.22-13.67-.88-16.52-7.13s-12.6-11.55-4.91-20.59c.68-.8.2-2.6.2-3.93,0-9.66-.27-19.34.1-29,.18-4.92-1.52-6.21-6.24-6.14l-120,.09c-3.38,0-4.65,1.09-4.59,4.6.17,11,0,22,.07,33,0,0,0,11.49-2.36,19.29a15.19,15.19,0,0,1-11.44,8.78,70.15,70.15,0,0,1-9.94,1c-24.95,1.36-49.95,2.06-74.84,4.14Q736.88,279.21,678,287.49c-59,8.25-117.22,20.66-175.18,34.36-4.63,1.09-7,3-6.68,8a70.69,70.69,0,0,1-.56,11c-.26,2.55-2.32,3-4.43,2.92-2.35-.07-2.25-1.93-2.35-3.54-.26-4.3.5-8.65-.77-13.23a53.36,53.36,0,0,0-12.65,1.92q-39.51,10.51-79.06,20.94c-9.4,2.47-18.73,4.91-25,13.28A8.08,8.08,0,0,1,369,365c-1.92,1.17-4.32,1.46-4.83-1.06-1.06-5.16-3.73-4.07-7.24-2.88-5.66,1.91-11.57,3.11-17.22,5.05a45.88,45.88,0,0,0-26.49,23c-3.8,7.29-4.5,15.18-4.5,23.27q.06,131.51,0,263c0,2.33,0,4.67.15,7,1.26,19.63,14.36,34.24,33.68,37.92a89,89,0,0,0,16.92,1.16q42,.06,84,0h13c-2.72-7.27-13.94-8.23-10.83-18.74,7.43,2.77,12.72,7.88,18.25,12.45,4.55,3.76,9.35,6.08,15.32,6.33,8.86.38,9,.48,9.16-8.28.14-9.66,0-19.33.06-29,0-1.53,0-3.54,2.25-3.81a5,5,0,0,1,5.12,2.39c1.39,2.4.86,5.21.87,7.85,0,9.81,0,19.62,0,29.43a16.53,16.53,0,0,0,3.23,0C510,717,517,710.29,521.78,700.93c7.24-14.09,16.7-26.42,29.55-36,56.62-42.11,139.85-12.64,157.49,56,4.56,17.71,8,35.7,12.27,53.49,2.76,11.59,4.31,23.51,8.62,34.73,11.51-2.27,22.59-4.47,33.69-6.62a37.07,37.07,0,0,1,5.93-.71,2.66,2.66,0,0,1,3,2.06,3.8,3.8,0,0,1-.86,3.69c-1.74,1.82-4.16,1.89-6.44,2.35-9.78,2-19.54,4.1-29.34,6-2.91.56-5.24.94-4.34,4.84,2.86,12.31,5.59,24.65,8.41,37,.73,3.19,2.37,4.09,5.79,3.06,4.76-1.44,9.78-2,14.65-3.07,15.56-3.48,31.41-5.64,46.79-10a4.37,4.37,0,0,0,4.21-.62c13.33-2.54,13.32-2.54,11.21-15.69-.58-3.6-1.22-7.21-1.59-10.84a18.12,18.12,0,0,1,3.1-12.33c1-1.46,3.29-2.6,1.34-5-2.6-1-5.18.2-7.74.47-7.61.81-15.18,2-22.77,2.86-2.22.27-3.88-.55-4.19-3.1-.27-2.3.43-3.87,2.88-4.34,1.63-.32,3.24-.79,4.88-1,8.88-1.28,17.76-2.71,26.68-3.68,4.59-.5,10.32-2.38,11.37,5.29a2.05,2.05,0,0,0,1.39,1.26c4.38,1,8.46-1.25,12.77-1.35,2.53-.06,3.13-2,3.21-4.16.11-3.06,2.09-3.79,4.73-3.78,11,0,21.86-2.39,32.88-1.8,3.87.2,7.37-.07,10.74,3.55,3.73,4,9.38,2.18,14.14.54s3.23-6.14,3.28-9.45c.2-13.65.08-27.3-.07-41a84,84,0,0,1,1.5-18.87c4.93-22.65,29.38-36.22,48.47-30.58s30.78,20.43,31.34,41.4c.4,15,.08,30,.12,45,0,15.46-1.54,12.94,14.07,14.62,2.06.22,4.3.27,5.4-1.63,2.55-4.4,6.69-3.87,10.6-3.68,9.64.45,19.26,1.28,28.9,1.72,3.94.17,7.36.18,7.1,5.62-.09,2,1.92,2.27,3.63,2.53,4.57.68,9.13,1.48,13.68,2.24,2.15-2.45-1.66-8.6,4.94-7.76,12.2,1.55,24.39,3.22,36.59,4.84,2.23.3,3.62,1.2,3.47,3.84-.2,3.34-2.34,3.63-4.84,3.39-4.63-.42-9.26-.92-13.88-1.46-5.44-.63-10.83-2-17.84-1.52l-.08.07c12,13.58,4.29,27.63,2.89,41.6L1179,861.91c2.93-13.54,5.27-26.27,8.56-38.75,1.48-5.61-.24-6.86-5.23-7.69-10.15-1.68-20.19-4.06-30.32-5.89-2.88-.53-5.3-.73-4.72-4.61s3.32-3.41,6-3c.66.1,1.33.18,2,.31,8.47,1.68,16.87,3.82,25.41,5,10,1.32,9.72,4.13,12.37-7.92,5.79-26.28,11.39-52.63,18.1-78.68,7.65-29.71,26-51.18,53.42-65,11.47-5.78,23.93-7.89,36.37-10.1a38.25,38.25,0,0,0,12.08-.21c3.59.64,7.18,1.35,10.79,1.91,32.81,5.14,56.89,22.65,73,51.46a87.34,87.34,0,0,0,6.26,10.18,30.1,30.1,0,0,0,22.23,12.37c0-10.82-.19-21.12.11-31.42.09-3.2-2.33-8.59,2.87-9.11,6.46-.65,4.41,5.25,4.48,8.78.2,10.58.07,21.18.07,31.58,9.7,1.67,17.21-.44,23.72-6.79,3.79-3.68,8.31-6.61,12.5-9.87,2.48-.08,5.64-2.7,7.26.28,1.46,2.7-1.55,4.75-3.38,6.53-3.22,3.13-6.65,6.06-9.66,8.77.54,2.27,1.76,1.81,2.62,1.8q47-.15,93.88-.42c5.64,0,11.28-.74,16.92-1.11,16.69-1.11,33.68-18.92,34-36.45.59-28.92.86-57.88-.13-86.81q1-28.63.24-57.26a4.41,4.41,0,0,0,0-4A245.52,245.52,0,0,0,1610.93,503.75ZM317.62,444c.24-1,.72-1.84,1.05-2.78,1-2.83,1.91-6.74,5.44-5.92s2.62,4.74,2.06,7.67c-1.31,6.8-2.73,13.59-4,20.4-.72,3.9-1.15,7.85-1.81,11.76-.51,3-1.05,6.46-5,6.16-4.95-.38-1.81-4.65-2.94-6.51A235,235,0,0,1,317.62,444Zm.74,100.14c-2.36,0-4.73,0-5.14-3.24a209.88,209.88,0,0,1-1-38.66c.15-2.53,2-3.12,4.21-3,2.83.1,2.89,2.12,2.89,4.17q0,9.91,0,19.83h.93c.27,5.62.53,11.24.82,16.86C321.14,542.09,321.33,544.15,318.36,544.12Zm21.44,60.47c-4.4,2.86-5.15-4.25-8.55-5.41-4.9-10.15-9.13-20.53-10.73-31.79-.26-1.87-1.29-4.23,1.25-5.13,2.8-1,4.31,1,5.12,3.37,2.14,6.25,4,12.62,6.31,18.81,1.38,3.66,2.47,7.56,5.32,10.53C337.9,598.44,343.3,602.32,339.8,604.59Zm-4.6-188.36a4.79,4.79,0,0,1-4.17,2.42c-2.33-.37-4.68-1-3.31-4.3,5.23-12.55,11.9-24.25,20.91-34.51,1-1.16,2.55-2.47,4.32-1.43,2.21,1.29,1.77,3.27.72,5.12Q344.46,399.88,335.2,416.23Zm45.68,239.3c-3.22.9-5.79-.46-8.21-2.37a98.66,98.66,0,0,1-21.76-24.22c-2-3.12-4.68-6.92.1-10.28,10.59,9.41,18.93,20.84,28.24,31.38A7.08,7.08,0,0,1,380.88,655.53Zm46.64,40.25c-2.17.3-3.78-1.1-5.31-2.31-8.58-6.77-17.14-13.56-25.59-20.47a11.24,11.24,0,0,1-3.48-4.68c-.74-2.11.14-4.1,2.95-3.47a11.32,11.32,0,0,1,4.44,2.11q13.65,10.74,27.15,21.7a20.23,20.23,0,0,1,2.75,3.19C430.65,694.74,429.26,695.54,427.52,695.78Zm63.27-333.89c3.3-.36,4.79,1.56,4.78,4.8,0,6.3,0,12.6,0,18.89h.58c0,6-.07,11.94,0,17.9.05,2.79-.75,4.34-3.86,4.41-3.44.08-3.56-2-3.56-4.52,0-12.27-.07-24.54,0-36.8C488.72,364.79,487.9,362.21,490.79,361.89Zm.35,126.38c2.93-.27,4.22,1.4,4.25,4.2.13,11.65.28,23.3.38,34.95a41,41,0,0,1-.3,6c-.3,2.06-2.05,2.29-3.76,2.38-2.14.11-2.91-1.1-2.91-3q0-10.49,0-21h-.08c0-6.33,0-12.66,0-19C488.77,491,488.23,488.53,491.14,488.27Zm4.57-18.52c-.44,2.56-2.63,2.77-4.61,2.76-2.29,0-2.37-1.89-2.38-3.56,0-7,0-14,0-21h0c0-6.33,0-12.66,0-19,0-2-.07-4.17,3-3.88,2.27.21,3.7,1.23,3.74,3.71,0,2.66.22,5.32.26,8q.16,14,.27,28A27.53,27.53,0,0,1,495.71,469.75ZM496.76,659c.18,5.39-3.58,5.15-8.38,6.24V618.08c2.47-1.71,4.85-.46,7.24.21C497.65,631.81,496.3,645.42,496.76,659Zm-8.61-63c1.25-12.26.23-24.56.59-36.84.06-2-1.2-5,2.52-5.38s4.24,2.16,4.34,5.1c.42,11.61.9,23.22,1.36,34.83C494.93,600.1,492.8,600.65,488.15,596Zm938.07-231.15c0-1.83.71-3.2,2.86-3.11,1.89.09,3.17,1.07,3.27,3,.18,3.64.23,7.29.24,10.93,0,9.61,0,19.23,0,28.84,0,2.57-1.19,3.59-3.6,3.47-2.1-.11-2.73-1.46-2.73-3.33q0-10.44,0-20.88h-.08C1426.21,377.48,1426.19,371.19,1426.22,364.89Zm6.3,84.83h0c0,6.62,0,13.23,0,19.84,0,2.19-1,3.93-3.52,3.75-2-.14-2.6-1.72-2.6-3.49q-.06-20.83-.07-41.67c0-1.79.62-3.36,2.77-3.17s3.5,1.45,3.48,3.91C1432.49,435.83,1432.52,442.78,1432.52,449.72ZM1429,664.3c-3.38.1-3.45-2.15-3.42-4.68.14-12.61.2-25.22.29-37.83,0-2.31-.31-5.07,3.12-4.9,3,.15,3.42,2.43,3.37,5-.11,6.3,0,12.61,0,18.92h.37c0,6.3-.1,12.61,0,18.92C1432.79,662.57,1431.93,664.22,1429,664.3Zm.86-64.37c-2.35,0-3.77-.86-3.76-3.44q.14-19.47.23-38.93c0-2.12.31-4.12,3.18-3.84,2.63.25,3,2.22,3,4.33q0,10,0,20h.34c0,6,0,12,0,18C1432.84,598.18,1432.71,600,1429.83,599.93Zm-.06-63.95c-5.62.12-3.1-4.8-3.28-7.54-.37-5.62-.11-11.28-.12-16.93,0-5.31-.21-10.64.09-15.93.14-2.6-1.76-7.11,2.59-7.21,5.2-.13,3,4.79,3.41,7.7a66,66,0,0,1,.13,8c0,8.31.19,16.62-.1,24.91C1432.4,531.42,1434.59,535.88,1429.77,536Zm94.63,137.49c-9.26,7-18.63,13.82-28,20.69a7.69,7.69,0,0,1-1.71,1c-2,.78-4,.83-5.18-1.29-1-1.78.14-3.23,1.42-4.31,6.33-5.34,12.69-10.66,19.12-15.89a94.17,94.17,0,0,1,10.3-7.77c3.1-1.9,6.89-.19,7,2.59A6.56,6.56,0,0,1,1524.4,673.47Zm47.79-47.73c-2.43,3.52-5.1,6.88-7.8,10.21A139.25,139.25,0,0,1,1548,653.07c-1.48,1.3-2.94,2.72-5.18,2.45-1.69-.12-2.22-1.52-2.27-2.73-.11-2.61,0-5.31,2.09-7.3,7.53-7.21,13-16.29,21-23.09,1-.83,1.84-2,3-2.35,1.8-.56,3.9-1.4,5.58.26S1573.31,624.11,1572.19,625.74Zm-4.32-238.2c-.66-1.15-1.19-2.37-1.74-3.57a3.2,3.2,0,0,1,1.35-4.29c1.47-1,3.21-1.33,4.43.23a160.34,160.34,0,0,1,20.39,35.26,7.24,7.24,0,0,1,.25,1.06c-1,2.57-2.87,3.51-5.44,2.53-2-.75-2.8-2.77-3.79-4.47Q1575.55,400.94,1567.87,387.54Zm24.75,203.56c-3.91,4.8-5.29,11.88-12.11,14.14-3.09-3.68,1-6.36.57-9.48,5.21-8,7.89-17.21,11.66-25.89,1.26-2.91,1.55-6.43,6-7.87C1601.39,572.87,1594.63,581.54,1592.62,591.1Zm14.71-55.39a5.08,5.08,0,0,0-.34,4c-.75,1.42-1.14,3.34-2.31,4.17-3.23,2.29-5.73,1-5.84-2.88s.26-7.89.48-11.83c.47-8.54,1.15-17.07,1.42-25.61.13-4.24,2-6,6-5.76q.62,3,1.22,5.93Q1607.66,519.74,1607.33,535.71Z"/><path class="cls-2" d="M495.71,469.75c-.44,2.56-2.63,2.77-4.61,2.76-2.29,0-2.37-1.89-2.38-3.56,0-7,0-14,0-21h0c0-6.33,0-12.66,0-19,0-2-.07-4.17,3-3.88,2.27.21,3.7,1.23,3.74,3.71,0,2.66.22,5.32.26,8q.16,14,.27,28A27.53,27.53,0,0,1,495.71,469.75Z"/><path class="cls-2" d="M496.76,659c.18,5.39-3.58,5.15-8.38,6.24V618.08c2.47-1.71,4.85-.46,7.24.21C497.65,631.81,496.3,645.42,496.76,659Z"/><path class="cls-2" d="M496.17,403.48c.05,2.79-.75,4.34-3.86,4.41-3.44.08-3.56-2-3.56-4.52,0-12.27-.07-24.54,0-36.8,0-1.78-.82-4.36,2.07-4.68,3.3-.36,4.79,1.56,4.78,4.8,0,6.3,0,12.6,0,18.89h.58C496.14,391.55,496.07,397.52,496.17,403.48Z"/><path class="cls-2" d="M318.36,544.12c-2.36,0-4.73,0-5.14-3.24a209.88,209.88,0,0,1-1-38.66c.15-2.53,2-3.12,4.21-3,2.83.1,2.89,2.12,2.89,4.17q0,9.91,0,19.83h.93c.27,5.62.53,11.24.82,16.86C321.14,542.09,321.33,544.15,318.36,544.12Z"/><path class="cls-2" d="M326.17,443c-1.31,6.8-2.73,13.59-4,20.4-.72,3.9-1.15,7.85-1.81,11.76-.51,3-1.05,6.46-5,6.16-4.95-.38-1.81-4.65-2.94-6.51a235,235,0,0,1,5.2-30.78c.24-1,.72-1.84,1.05-2.78,1-2.83,1.91-6.74,5.44-5.92S326.73,440,326.17,443Z"/><path class="cls-2" d="M1592.55,416.23c-1,2.57-2.87,3.51-5.44,2.53-2-.75-2.8-2.77-3.79-4.47q-7.77-13.35-15.45-26.75c-.66-1.15-1.19-2.37-1.74-3.57a3.2,3.2,0,0,1,1.35-4.29c1.47-1,3.21-1.33,4.43.23a160.34,160.34,0,0,1,20.39,35.26A7.24,7.24,0,0,1,1592.55,416.23Z"/><path class="cls-2" d="M353.67,383.53q-9.21,16.35-18.47,32.7a4.79,4.79,0,0,1-4.17,2.42c-2.33-.37-4.68-1-3.31-4.3,5.23-12.55,11.9-24.25,20.91-34.51,1-1.16,2.55-2.47,4.32-1.43C355.16,379.7,354.72,381.68,353.67,383.53Z"/><path class="cls-2" d="M497,593.75c-2,6.35-4.16,6.9-8.81,2.29,1.25-12.26.23-24.56.59-36.84.06-2-1.2-5,2.52-5.38s4.24,2.16,4.34,5.1C496,570.53,496.5,582.14,497,593.75Z"/><path class="cls-2" d="M380.88,655.53c-3.22.9-5.79-.46-8.21-2.37a98.66,98.66,0,0,1-21.76-24.22c-2-3.12-4.68-6.92.1-10.28,10.59,9.41,18.93,20.84,28.24,31.38A7.08,7.08,0,0,1,380.88,655.53Z"/><path class="cls-2" d="M1432.72,659.76c.07,2.81-.79,4.46-3.75,4.54-3.38.1-3.45-2.15-3.42-4.68.14-12.61.2-25.22.29-37.83,0-2.31-.31-5.07,3.12-4.9,3,.15,3.42,2.43,3.37,5-.11,6.3,0,12.61,0,18.92h.37C1432.67,647.14,1432.57,653.45,1432.72,659.76Z"/><path class="cls-2" d="M1429.77,536c-5.62.12-3.1-4.8-3.28-7.54-.37-5.62-.11-11.28-.12-16.93,0-5.31-.21-10.64.09-15.93.14-2.6-1.76-7.11,2.59-7.21,5.2-.13,3,4.79,3.41,7.7a66,66,0,0,1,.13,8c0,8.31.19,16.62-.1,24.91C1432.4,531.42,1434.59,535.88,1429.77,536Z"/><path class="cls-2" d="M1432.52,449.72h0c0,6.62,0,13.23,0,19.84,0,2.19-1,3.93-3.52,3.75-2-.14-2.6-1.72-2.6-3.49q-.06-20.83-.07-41.67c0-1.79.62-3.36,2.77-3.17s3.5,1.45,3.48,3.91C1432.49,435.83,1432.52,442.78,1432.52,449.72Z"/><path class="cls-2" d="M339.8,604.59c-4.4,2.86-5.15-4.25-8.55-5.41-4.9-10.15-9.13-20.53-10.73-31.79-.26-1.87-1.29-4.23,1.25-5.13,2.8-1,4.31,1,5.12,3.37,2.14,6.25,4,12.62,6.31,18.81,1.38,3.66,2.47,7.56,5.32,10.53C337.9,598.44,343.3,602.32,339.8,604.59Z"/><path class="cls-2" d="M1429.83,599.93c-2.35,0-3.77-.86-3.76-3.44q.14-19.47.23-38.93c0-2.12.31-4.12,3.18-3.84,2.63.25,3,2.22,3,4.33q0,10,0,20h.34c0,6,0,12,0,18C1432.84,598.18,1432.71,600,1429.83,599.93Z"/><path class="cls-2" d="M427.52,695.78c-2.17.3-3.78-1.1-5.31-2.31-8.58-6.77-17.14-13.56-25.59-20.47a11.24,11.24,0,0,1-3.48-4.68c-.74-2.11.14-4.1,2.95-3.47a11.32,11.32,0,0,1,4.44,2.11q13.65,10.74,27.15,21.7a20.23,20.23,0,0,1,2.75,3.19C430.65,694.74,429.26,695.54,427.52,695.78Z"/><path class="cls-2" d="M1432.62,404.52c0,2.57-1.19,3.59-3.6,3.47-2.1-.11-2.73-1.46-2.73-3.33q0-10.44,0-20.88h-.08c0-6.3,0-12.59,0-18.89,0-1.83.71-3.2,2.86-3.11,1.89.09,3.17,1.07,3.27,3,.18,3.64.23,7.29.24,10.93C1432.62,385.29,1432.56,394.91,1432.62,404.52Z"/><path class="cls-2" d="M1592.62,591.1c-3.91,4.8-5.29,11.88-12.11,14.14-3.09-3.68,1-6.36.57-9.48,5.21-8,7.89-17.21,11.66-25.89,1.26-2.91,1.55-6.43,6-7.87C1601.39,572.87,1594.63,581.54,1592.62,591.1Z"/><path class="cls-2" d="M1607.33,535.71a5.08,5.08,0,0,0-.34,4c-.75,1.42-1.14,3.34-2.31,4.17-3.23,2.29-5.73,1-5.84-2.88s.26-7.89.48-11.83c.47-8.54,1.15-17.07,1.42-25.61.13-4.24,2-6,6-5.76q.62,3,1.22,5.93Q1607.66,519.74,1607.33,535.71Z"/><path class="cls-2" d="M495.77,527.42a41,41,0,0,1-.3,6c-.3,2.06-2.05,2.29-3.76,2.38-2.14.11-2.91-1.1-2.91-3q0-10.49,0-21h-.08c0-6.33,0-12.66,0-19,0-1.82-.51-4.27,2.4-4.53s4.22,1.4,4.25,4.2C495.52,504.12,495.67,515.77,495.77,527.42Z"/><path class="cls-2" d="M1368,781c1.84,2.27,5.28,0,7.06,2.48.18.25.34.53.74,1.15-3.12,5.52-8.2,9.2-13.48,12.6-14.9,9.61-31.49,15.66-47.74,22.4a91.07,91.07,0,0,1-30.61,6.54,60,60,0,0,1-7-.07,3.38,3.38,0,0,1-3.33-3.11c-.32-2.2.54-4.16,2.73-4.67,2.89-.68,5.92-.8,11.75-1.52-29.75-9-47.87-26.76-55-54.79-4.66-18.32-1.58-35.78,7.37-52.06,18.56-33.71,58.15-45.55,92.14-31.38C1363,691.17,1391.75,731.58,1368,781Zm-127.57-35.51c-.13,35.83,28,64.16,63.78,64.13,35,0,64.45-28.38,64.14-63.06-.36-41.29-31.47-65.06-62.88-65.16C1269.07,681.25,1240.59,709.16,1240.45,745.45Z"/><path class="cls-2" d="M1242.89,828c-9.79.64-19-2.51-28.31-4.56-3.8-.83-4.66-3.35-3.67-6.72s3.57-1.93,5.68-1.46c11.62,2.59,23.18,5.56,35.2,5.75,2.33,0,3.74,1.14,3.83,3.55.09,2.59-1.61,3.37-3.79,3.42C1248.85,828.06,1245.86,828,1242.89,828Z"/><path class="cls-2" d="M1389.79,773c-2-.3-2.87-1.47-2.33-3.42a5.37,5.37,0,0,1,1.53-2.49,266.82,266.82,0,0,1,30.2-22.57c1.61-1,3.81-2,5.4-.14,1.86,2.2.79,4.44-1.14,6-9.71,8-19.61,15.73-30.84,21.54A25.33,25.33,0,0,1,1389.79,773Z"/><path class="cls-2" d="M677.52,828.16c-3.32-.17-6.64-.25-9.94-.53-2.17-.18-3.87-1.2-3.65-3.7.17-1.91,1.53-2.84,3.41-2.83,12.08.11,23.62-3.11,35.29-5.57,2.46-.51,5.52-2,6.26,2.2.67,3.77-1.59,5.24-4.95,6.06C695.24,825.91,686.68,828.77,677.52,828.16Z"/><path class="cls-2" d="M530.37,773.56c-11.71-5.8-21.91-13.67-32.25-21.34a17.38,17.38,0,0,1-2.24-2c-1.41-1.5-2.84-3.6-1.71-5.28,1.47-2.2,4.16-1.63,6.32-.53a35.1,35.1,0,0,1,5,3.21c7.45,5.51,14.9,11,22.28,16.64C531.29,767,531.21,767.07,530.37,773.56Z"/><path class="cls-2" d="M1572.19,625.74c-2.43,3.52-5.1,6.88-7.8,10.21A139.25,139.25,0,0,1,1548,653.07c-1.48,1.3-2.94,2.72-5.18,2.45-1.69-.12-2.22-1.52-2.27-2.73-.11-2.61,0-5.31,2.09-7.3,7.53-7.21,13-16.29,21-23.09,1-.83,1.84-2,3-2.35,1.8-.56,3.9-1.4,5.58.26S1573.31,624.11,1572.19,625.74Z"/><path class="cls-2" d="M1527.36,668.48a6.56,6.56,0,0,1-3,5c-9.26,7-18.63,13.82-28,20.69a7.69,7.69,0,0,1-1.71,1c-2,.78-4,.83-5.18-1.29-1-1.78.14-3.23,1.42-4.31,6.33-5.34,12.69-10.66,19.12-15.89a94.17,94.17,0,0,1,10.3-7.77C1523.48,664,1527.27,665.7,1527.36,668.48Z"/><path class="cls-2" d="M615.66,707.63C632,707.15,653,720.73,653.23,745a37.49,37.49,0,0,1-37,37.9c-21,.22-37.94-16.22-37.6-37.05C579,724.53,591.63,707.35,615.66,707.63Zm-29.22,37.26c-.21,16.12,12.49,29.7,28.25,30.21s30-13.14,30.52-29.26c.45-15.37-13.26-29.83-29-29.34C596.69,717.12,586.31,731.11,586.44,744.89Z"/><path class="cls-2" d="M1341.38,745.24c1,21.73-18.11,38.13-36.7,38-22.89-.11-38.5-17.88-38.2-37.59.33-21.53,16.57-38.36,37.71-38C1325.73,708.15,1342.72,726.54,1341.38,745.24Zm-8.08.66a29.2,29.2,0,0,0-28.47-29.79c-15.38-.36-29.38,13.21-29.78,28.87a28.4,28.4,0,0,0,27.74,29.17C1320.65,774.42,1333,763,1333.3,745.9Z"/><path d="M798.38,431V542H778.56V471.24l-19.51,14.91-16.18,12.53-16.18-12.53-19.51-14.91V542H687.35V431l19.83,15.22,35.69,27.44,35.69-27.44Z"/><path d="M852.31,467.91v75.5H832.48V465.85A15.8,15.8,0,0,0,819,452.37h-4.45V432.7h4.29v.16a35.4,35.4,0,0,1,29.5,19.83,42,42,0,0,1,2.7,7.45,33.47,33.47,0,0,1,1,8.09Z"/><path d="M978.72,464.58a32.67,32.67,0,0,1-9.2,22.84A32.76,32.76,0,0,1,946,542.94H867.85V523.11H946a13.07,13.07,0,0,0,13-13,12.91,12.91,0,0,0-12.21-13h-59V477.27h59a13,13,0,0,0-.64-26H868V431.43H946.2a32.63,32.63,0,0,1,32.68,32.68Z"/><path d="M1096.72,486.63a32.75,32.75,0,0,1-23.47,55.51h-45.52a32.57,32.57,0,0,1-30.14-20,34.31,34.31,0,0,1-2.54-12.85,32.67,32.67,0,0,1,9.2-22.84,31.24,31.24,0,0,1-6.82-10,34.31,34.31,0,0,1-2.54-12.85,32.19,32.19,0,0,1,32-32.83h46.48a32.88,32.88,0,0,1,23,55.67ZM1072.45,477a12.94,12.94,0,0,0,.48-25.85h-46.79a12.93,12.93,0,0,0,.32,25.85h46Zm.16,45.53a13.07,13.07,0,0,0,13-13,12.92,12.92,0,0,0-12.21-13h-46.48a12.88,12.88,0,0,0-12.21,12.85,13.07,13.07,0,0,0,13,13h45.52Z"/><path d="M1232.17,522.48V542.3H1121.46V509.63a31.54,31.54,0,0,1,2.7-12.85,32.55,32.55,0,0,1,28.86-20h48.06a13,13,0,0,0-1.11-25.86h-78.19V431.11H1200a32.63,32.63,0,0,1,32.68,32.68,32.4,32.4,0,0,1-9.36,22.68,32.89,32.89,0,0,1-22.36,10H1153a12.92,12.92,0,0,0-11.58,12.85v12.85Z"/></g></g></svg>