<svg xmlns="http://www.w3.org/2000/svg" viewBox="0 0 1920 1080"><defs><style>.cls-1{fill:#010001;}.cls-2{fill:#f2f2f2;}</style></defs><g id="Capa_2" data-name="Capa 2"><g id="Capa_1-2" data-name="Capa 1"><path class="cls-1" d="M1802.69,455l-.84-96.4-15.13-15.12c-14.83-12.18-29.31-24.8-44.36-36.68-12.95-10.26-29-3.36-30.8,13a123.68,123.68,0,0,0-.35,20.46c.53,9-2.4,12.7-12.15,12.63-59.88-.38-119.77-.24-179.65-.18-6.25,0-12.53-.27-18.25-2.58-41.55-16.61-83.72-31.52-126-46.12-5.84-1.27-14,.47-12.13-10.3.43-2.46-2.66-3.28-4.87-3.89-18.41-5.13-36.79-10.29-55.22-15.34-2.41-.66-5.73-1.62-6.49,2-1.74,8.19-6.68,5.47-11.82,4.3-19.25-4.42-38.58-8.56-57.89-12.78-24.33-4-48.6-8.72-73-11.9-40.94-5.34-82-9.72-123-14.5-10.9-1.27-21,1.4-26,11.41,0,0-2.21,6.47-3.71,9.69s-6.47,5.45-6.47,5.45H927.12c-5.86-1-7.62-8.44-10.67-13.27-5.76-9.08-13.39-13.66-24.29-13.19l-116.43,12.9c-48,6.51-95.4,15.91-142.52,26.91-4.06.94-8.34,3.15-9.71-3.63-1.07-5.34-5.39-3.91-8.64-3-17.53,4.75-35,9.77-52.47,14.67-2.52.71-6,1.21-5.58,4.32,1.38,9.67-6.06,8.87-11.57,10.61-40.59,12.78-80.42,27.67-120,43.27a68.88,68.88,0,0,1-25.62,5c-59.87,0-119.75-.16-179.63.18-8.44,0-11.88-2.68-11.66-11,.17-7.15-.43-14.3-.39-21.45.07-8.27-4.3-13.25-11.32-16.61-7.4-3.54-14-1.68-19.89,3.24q-24,19.94-47.9,40.06c-2.15,1.8-4.28,3.62-6.47,5.45-3.5,3-5.06,11-5.06,11v99.31A64.35,64.35,0,0,0,120.5,482,58.62,58.62,0,0,1,123,506c.17,8.43.31,16.85.55,25.27.35,12.94,5.76,23,17,29.84,12.76,7.74,25.46,15.54,38.26,23.2,13.43,8,27.93,8.15,42.29,4,11.16-3.25,16.53-12.08,17.12-23.51.43-8.43.27-16.87.39-25.31,0-3.28,0-6.92,3.22-8.66s6.76.37,8.74,2.62c5.63,6.43,12.8,6.74,20.4,6.7,12.64-.07,25.31.12,37.95.22,4.86-.12,9.75-.08,14.6-.37,12.25-.76,20.3,4.55,25.13,15.85,10.78,25.32,22.08,50.45,32.85,75.8,5.9,13.83,5.41,18.11-6.41,26.87,0,0-10.24,4.69-42.53,26.42s-27.06,47.58-27.06,47.58a41.38,41.38,0,0,0,.64,6.63c5.2,56.16,61.11,66.36,61.11,66.36,58.27,17.24,157.86,22.24,157.86,22.24,37.68.55,75.35.66,113,.7,8.07,0,11.22,2.21,10.71,9.95q31.16.15,62.34.27c2.89,0,7,.45,7-3.34-.08-8.81,5.85-6.6,10.63-6.6,34.77,0,69.51,0,104.28.06,17.06,0,33-6.67,49.71-8.39,22.16-5.33,44.67-7.85,67.38-9.42l17.86,0c20.17,1,40.06,3.93,60,7.2,19.21,3.14,37.77,10.2,57.43,10.41,35.14.35,70.29.2,105.45.1,5.33,0,10.57-1.19,10.61,7.07,0,3.34,3.73,3,6.27,3q28.32.06,56.63,0c3,0,7.23.08,6.94-3.48-.66-8.57,4.94-6.44,9.46-6.52,55.26-.8,110.6,2.52,165.67-5.51,40.49-5.91,81-11.77,120.81-21.28,24.78-5.93,40.33-22.38,45.47-47s-2.44-45.36-23.31-60.83c-15.42-11.42-30.27-23.61-45.26-35.59-10-8-11.68-13.07-6.84-24.51,11.55-27.16,23.43-54.2,35.39-81.19,3.72-8.38,9.95-13,19.84-12.78,17.57.41,35.15-.06,52.72.12,9.28.09,17.76-.73,25.5-7.22,6.39-5.37,9.46-3.45,10,5.26.57,9.4.27,18.88,1,28.26,1.08,13.76,11.2,23.1,24.84,24.15,14.74,1.12,28.38-1.35,40.79-9.92a252.81,252.81,0,0,1,26.4-16.6c16.22-8.5,23.62-21,22.43-39.55-.84-12.92-1.89-26.24,2-38.81A103.66,103.66,0,0,0,1802.69,455ZM1359.6,322c-4.4-8.52,2.3-5.18,5.14-4.38,37.89,10.67,74.28,25.62,111.17,39.16.53.2.92.86,1.37,1.29,18.06,7.74,36.7,10.83,56.51,10.28,34.75-.92,69.53-.33,104.3-.25,2.71,0,6.35-1.51,8,1.5,1.82,3.33-1,6.08-2.74,8.78A18.13,18.13,0,0,1,1627,387.2c-28.26,0-56.54.14-84.81,0-13.14-.08-23.77-8.05-35.73-11.9-3.92-1.25-9.57-6.08-11.78-1.37s4.48,6.49,8.46,8.54c2.11,1.12,5.1,1.29,6.37,4.77-11.55.72-21.61-3.61-31.67-7.39-4.19-1.56-4.17-6.46-1.92-9.18,4.67-5.65.76-7.84-3-10.51-10.12-1.39-18.7-7.08-28.22-10.19-2.83-.91-6.43-2.91-8,0-2.09,4,2.44,5.49,5.1,6.7,7,3.22,14.25,6.15,21.55,8.75,4.13,1.49,6.45,4.3,4.68,8s-5.11.47-7.53-.47c-33.18-13-66.75-24.86-100.62-36-2.81-.92-7.09-.59-7.8-4.53s2.58-5.53,5.75-6.72C1359.6,325,1360.62,324,1359.6,322Zm110.25,65.86c-8,1-13.48-2.33-19-4.5-30.17-11.88-60.72-22.75-91.52-32.87a10.05,10.05,0,0,1-1.87-.49c-2.62-1.56-7.94-1.93-6.51-5.76,1.53-4,5.43-.49,8.19.39q51.27,16.44,101.26,36.56C1463.6,382.49,1467.06,383.18,1469.85,387.85ZM1009.68,273.33c4.73-13,12.18-17.12,26.13-15.53,33.4,3.77,66.91,6.72,100.25,10.9,35.74,4.49,71.21,10.85,106.37,18.82,15.38,3.5,30.85,6.55,46.29,9.81-.17.88-.35,1.78-.53,2.66-6.84.62-13.07-2.7-19.69-3.4-2.58-.28-5.14-.94-7.7-1-2.29-.06-4.77.39-4.91,3.46-.14,2.6,2.11,3,4,3.42,6.93,1.6,13.89,3.18,20.89,4.61,2.64.55,5.35.68,4.67,4.53-.74,4.26-3.71,3.81-6.7,3.07-45.13-11.1-90.87-18.82-136.82-25.52-35.41-5.16-71-8-106.69-10.55-2.47-.18-4.93-.57-7.94-.92,1.84-4.73,5.34-5.14,8.84-5.28,4.55-.17,9.1-.06,13.65-.19,2.17-.08,4.85.33,5-3.07.11-2.62-2-3.34-3.85-3.58-11.38-1.38-22.87-3-31.68,7.14a41.93,41.93,0,0,1-4.83,4.78,3.74,3.74,0,0,1-4.55.2C1008,276.44,1009.18,274.76,1009.68,273.33Zm-51.23,10.79c51,.43,101.93,3,152.73,9C1166,299.56,1220,310.28,1274,321.31c2.3.47,6.33.29,5.1,3.9-1.18,3.44-5.2,1.78-7.8,1.29-24.58-4.53-49-9.69-73.71-13.87-59.6-10.12-119.54-17.53-180-21.09-99.63-5.88-198,4.26-295.86,21.42-24.59,4.32-49.11,9.13-73.68,13.54-2.56.47-6.7,2.43-7.52-1.4-.88-4.11,3.5-3.38,6.18-4A1464.3,1464.3,0,0,1,795,294.34C849.23,287.48,903.71,283.49,958.45,284.12Zm-295.75,6c60.48-13.72,121.84-22.1,183.44-28.92,15.14-1.68,30.37-2.84,45.57-4.09,6.25-.51,19.84,13.19,19,18.92-.44,3.12-2.75,2.17-4.41,1.82-3.48-.73-5.08-3.93-7.17-6.3-8.5-9.57-19.62-6.6-30.12-6.45a3.25,3.25,0,0,0-3,3.27c-.06,2.4,2,3.4,3.85,3.53,4.85.36,9.75.3,14.62.53,2.87.12,6.76-.06,6.78,3.71s-4,2.31-6.17,2.43c-64.59,3.55-128.51,12.45-191.92,25-17.18,3.4-34.26,7.15-51.38,10.77-3.16.66-6.88,2.29-8.21-2.15-1.52-5.08,3.13-4.67,6-5.39,4.69-1.24,9.56-1.84,14.17-3.33,3.58-1.13,10.32-.17,9.19-5.76-.84-4.22-6.73-2-10.3-1.33-7.27,1.33-14.44,3.15-21.65,4.77C640.46,293.54,651.88,292.6,662.7,290.14ZM273.92,370c1.52-4.1,6.86-1.77,10.41-1.79,27-.2,54-.37,80.95,0,27.22.33,54.5,1.58,79.81-11.38q48.45-20.19,98.62-35.78c3.38-1.07,6.7-2.42,10.14-3.3s9.78-4.51,5.48,4.48c-1.31,2.75.76,3.3,2.77,3.63,3.46.57,5,2.62,4.95,6.06-.08,4.1-3.52,4.1-6.16,4.9-34.73,10.62-68.75,23.22-102.57,36.35-2.06.78-4.83,4.09-6.59.61-1.58-3.13-.16-6.35,3.56-7.86l18-7.4c2.09-.86,4.26-1.59,6.28-2.62,2.5-1.29,4.55-3.66,3.16-6.24-1.17-2.17-4-1.15-6.21-.31-8.76,3.4-17.49,6.86-26.29,10.14-1.42.55-3.1.41-4.67.59-3.75,2.73-7,4.94-2.57,10.45,2.65,3.27,2.16,8.15-3.31,10.24-8.69,3.34-17.55,5.92-27.06,6.67,0-6.84,6.27-5.06,9.06-7.68,1.84-1.72,5.14-2.91,3.87-5.92s-4.59-2.13-6.72-.82C389.55,391,357,387.44,325,387.32c-10.4,0-20.79.1-31.21,0-5.23,0-10.45-.76-14.38-4.69C275.93,379.17,272.08,374.81,273.92,370Zm295-26.83c-.57,5.63-5.22,5.77-8.52,7q-51,18.64-102.07,36.88c-2.09.74-5,3.75-6.74.56s1.86-4.32,4.14-5.23c36-14.39,72.6-27.25,109.42-39.4C566.26,342.59,567.59,343.06,569,343.15ZM639.9,813.23c-39-.41-78.07,1.06-117.1-1C478.89,810,435.74,802,392.5,794.72c-3.73-.62-7.51-1.13-13.21-2-46.3-13-57.43-37.21-59.55-59.15s37.52-41.22,37.52-41.22c9.46-7.42,19.12-14.61,28.46-22.2,14.13-11.45,18.46-23,11.8-39.57-11.88-29.47-24.88-58.49-38.16-87.35-5.81-12.62-17.3-18-31-18.43-10.39-.31-20.79-.45-31.19-.68-9.41.14-18.83.31-28.23.39-7.18.06-11.36-5.74-17-8.79l-9.49-1.51c-15.73,5.32-19.1,9.71-19.49,25.89-.19,7.78-.11,15.56-.13,23.34,0,6.54-3.38,10.57-9.74,11.21-9.71,1-19.26,1-28.08-4.76-11.12-7.25-22.43-14.21-34-20.66-8.62-4.81-12.78-11.35-12.11-21.24.43-6.45.29-12.94.41-19.41-7.63-44.67-7.08-89.75-6.88-134.83,0-6.37,1.52-10.89,6.66-15,15.17-12.29,29.82-25.17,44.81-37.68,2.11-1.76,4.61-4.69,7.62-2.81,2.35,1.46,1.31,4.79,1.37,7.33.14,6.82-.06,13.68.41,20.48.88,13.28,9.38,21.61,22.65,21.92,13.66.31,27.34.26,41,0,4.82-.1,7.38.71,8.83,6.14,3.91,14.54,12.49,20.93,27.65,21,20.81.11,41.64-.24,62.48-.38,2.77,0,5.68-.66,9.1,1.65-10.3,7.85-19.89,15.59-23.82,27.78-1.05,3.31-5.31,7.86-.19,10.15,3.88,1.74,5.45-3.4,7.07-6.43,4.34-8.07,9.46-15.54,16.28-21.73.72-.67,1.95-1.35,2-2.07.8-12.36,9.91-8.8,16.94-8.82,19.17-.1,38.44.84,56.73-6.6,1.59-.65,3.4-1.16,4.07.84.53,1.58-.47,3.16-2.09,3.94q-4,1.91-8,3.66-24.52,10.69-49.08,21.36c-17.24,7.46-29.88,19.21-34.38,37.79a8,8,0,0,1-2.42,0c-2.62-1-2.83-6.56-6.16-4.9-3.75,1.85-2.46,6.39-1.29,9.61,4.62,12.78,8.48,25.76,15.05,37.89,6.9,12.8,6.92,28.24,13.87,41.24,2.82,5.27,4.34,10.72,10.62,14.34,4.22,2.42,8.95,9,4.2,15.79-1.94,2.79-1.66,5.47-.65,8.31,3.29,9.14,6.49,18.33,10,27.37,1,2.56,1.72,6.26,5.24,6.33s2.38-4.67,5.66-7.15c13.37,33.67,31.87,64.55,42.17,100.7-9-2.38-8.63-9.56-12-13.76-1.95-2.42-3.32-6.86-7.13-4.92s-1.29,5.63,0,8.54c3.85,9,9.56,16.94,15.23,24.86,2,2.75,4.39,6.78,8.36,4.82s.25-5.76.33-8.75a9.33,9.33,0,0,1,.92-4.4c5.88,8.33,13.09,15.61,17.28,25.09q13.95,12,27.9,23.94c-.66.72-1.33,1.47-2,2.21q-14.34-13.14-28.65-26.25c-5-.13-5.94,2.49-3.24,6,7.44,9.53,16.74,17.17,26.44,24.32a4.93,4.93,0,0,0,5.49.42c1.7-1-1-7.16,4.55-4,5,2.83,10.12,5.59,15,8.66,1.07.66.74,2.69-.57,3.28-5.8,2.58-1.41,4.71.51,6A122.73,122.73,0,0,0,547.72,797c1.39.43,3.69.61,4.47-.19,3.21-3.27-1.64-5.59-1.44-9.79,29.37,7.64,59.23,6.52,89,6.72,2,0,5.28-.61,5.1,2.79-.18,3-3.2,2.5-5.39,2.8-3,.39-7.76-1.06-7.37,3.77.37,4.59,5.16,2.34,8,2.85,3.19.57,8.27-1.68,8.11,4S642.87,813.27,639.9,813.23Zm554.38.08c-18.86.08-37.72,0-64.18,0-32.48,4.22-71.23-4.09-110.12-12a252.42,252.42,0,0,0-50.28-5.49l-16.65-.16c-36.58.69-71.93,9.56-107.71,15.77-21.52,3.75-43.46.94-64.47,1.8-18.6,0-36.46.1-54.34-.12-2.64,0-7.29,2.44-7.59-3-.29-5.16,4.07-3.79,7.08-4a4.47,4.47,0,0,0,1,0c4.21-1.39,12,2.44,12.14-3.68.1-5.53-7.43-2-11.45-2.87-2.39-.55-6.1.63-6-3s3.71-2.87,6.17-2.87c28.28-.06,57-3,84.64,1.15,14.72,2.19,27.73.86,41.55-.84,14.48-1.78,28.92-3.85,43.44-5.31,18.07-1.84,36.21-3.15,54.3-4.79l17.92.37c27,1.09,53.63,4.81,80.36,8.19,11.57,1.44,23.12,2.85,34.65,4.65,5.94.92,13.32,5.12,18.54-2.93.74-1.16,4.3-.65,6.57-.67,26.65,0,53.31-.06,80,.08,3,0,8.23-1.21,8.19,2.76-.08,5-5.51,2.6-8.7,3.1a39.27,39.27,0,0,1-4.86.1c-1.86.1-4.07-.29-4.32,2.54-.33,3.32,1.91,3.66,4.34,3.69,3.24,0,6.49.06,9.73,0,3.05,0,6.37,0,6.53,4C1200.86,814.58,1196.91,813.29,1194.28,813.31ZM1269.45,791c-4.18,9.56-11.82,8.31-19.58,8.33-2.89,0-7.52-1.78-7.85,3.1-.38,5.59,4.61,2.74,7.27,3.38,4.65,1.12,12.15-2.54,13.6,1.57,2.26,6.37,1,14.07.78,21.18-.1,3.36-3.34,2.37-5.4,2.39-14.63.07-29.29-.12-43.92.15-4.91.1-6.4-1.76-5.89-6.31a38.48,38.48,0,0,0,.22-8.77c-.94-7.53.84-12,9.73-10.38,2.13.37,6,1.52,6.37-2.17.43-4.16-3.52-4.42-6.27-4.05-6.92.92-11.24-1.38-14.78-7.69-3.12-5.57-9.63-5.89-15.67-5.89-35.8,0-71.62-.7-107.4.12-23,.53-45.2-4.77-67.83-6.64-8.75-.75-17.53-1.37-26.3-1.61-25.21-1.48-51.87-.35-51.87-.35-12,.71-24,1.55-35.95,2.33-41.76,9.49-84.21,4.88-126.36,6-14.3.37-28.63.15-42.93.09-5.12,0-10.83.69-12.94,5.2-3.83,8.21-10.1,9-17.61,8.66-2.21-.12-5,0-5,3.19,0,3.45,3.07,2.48,5.08,3,3.89,1.1,10.2-2.56,11.47,2.15,1.72,6.37.71,13.55.51,20.35-.1,3.44-3.16,2.6-5.26,2.6-15,.07-29.93-.06-44.88.13-3.91.06-5.36-1.27-4.89-5.06a39.35,39.35,0,0,0,.08-4.86c.16-14.35.16-14.33,16.32-15.5,2.05-.16,5.08.9,5.31-2.48.2-2.9-2.3-4.2-4.63-3.64-13,3.17-20.85-4.36-28.37-12.92-21.38-2.11-42.94.26-64.32-2.36-58.43-7.17-101.44-36.86-126.65-89.91-26.46-55.69-51.14-112.23-76.44-168.47C371,512.05,364.79,498.2,359.57,484a43.89,43.89,0,0,1,19.05-53.19c19.15-11,40.08-18.31,60.15-27.46,3.13-1.42,5.67-1.38,6.32,2.91.27,1.78.05,4.4,2.77,4.28,2.23-.09,3.46-2.61,3.22-4.22-1.36-9.28,5.81-10.35,11.69-12.58,32.69-12.47,65.48-24.66,98.71-35.69,16.35-5.43,18.74-9.94,13.75-26.88-1.87-6.32-.19-8.92,6-9.91,5.41-.88,10.71-2.56,16.12-3.5,3.5-.61,5.55-2.11,4.85-5.73-.86-4.31-3.89-2-6.16-1.56-5.7,1.21-11.53,2.11-17,4-6.13,2.09-8.58,1.11-11-5.69-3.36-9.56-1.8-13.33,8.46-15.18,10.77-2,21.26-5.77,31.72-9.19,5.9-1.93,10-1.78,10.81,5.57.6,5.38,6,10.67.21,16.2-.35.33,0,2.33.29,2.37,9.6,1.72,7.57,10.9,10.54,16.7,3.87,7.53,9.59,10.54,17.51,8.93q68.67-13.86,138-23.78a1419.23,1419.23,0,0,1,148.52-12.95c12.62-.06,53.11.17,53.11.17,32.19.9,64.23,3.44,96.22,6.8,23.55,2.47,47,5.94,70.47,9a54.74,54.74,0,0,1,6.47,1.64c33.55,3.66,66.44,11.26,99.68,16.77,4.48.74,8.91,1.64,13.41,2.34,6.47,1,11.18-1.38,14.77-6.95,4-6.24,2.29-15.75,11.06-19.17-3.2-6.78.22-13,1.49-19.41,1-5,3-6.33,8-4.79,13.29,4.09,26.65,8.08,40.16,11.36,5.12,1.25,5.16,3.48,4.2,7.52-3.26,13.84-3.28,13.92-17.33,10.52-4.4-1.08-8.78-2.31-13.21-3.15-2-.39-4.85-1.74-5.81,1.39s1.15,4.88,3.91,5.66c4.67,1.35,9.32,3.13,14.09,3.62,8.91.92,13.09,4.08,8.64,13.4-1,2-1.16,4.36-1.72,6.57.45,8.56,5.12,13.35,13.11,16.06q52.91,18,105.08,38.19c5.25,2,8.46,4.1,8.54,9.94,0,2.14-.08,5.07,2.77,5.63,3.48.71,3.28-2.38,3.52-4.47.58-5.2,3.89-3.4,6.37-2.33,19.89,8.72,40.37,16.26,59.25,27.05,20.17,11.53,28.06,34.47,18.52,56.45-20.16,46.46-41,92.61-62,138.67-8.58,18.82-16.79,37.78-27,56-6.08,10.92-9,24.13-16.57,34.8-32.93,46.51-78.58,68.28-135,68.93-12,.13-24.09.21-36.13.09C1277.17,785.7,1271.5,786.32,1269.45,791Zm199-78c0,.22-.41.37-.63.55-.19-.12-.37-.24-.57-.35.24-.3.47-.57.71-.84C1468.11,712.51,1468.45,712.75,1468.43,712.94Zm318.78-340.22q-.12,42.94-.21,85.91c0,2.26.29,4.71-.4,6.8-6.8,21.14-5.72,43-5.88,64.72-.06,7.89-3.49,13.62-10.14,17.66-12.78,7.78-25.48,15.66-38.24,23.45-8.33,5.07-17.55,4.46-26.56,3.27-5.84-.76-8.79-5.2-9-11.14-.25-8.77-.29-17.57-.6-26.34-.69-18.94-16.54-28.49-32.46-18.43-8.37,5.28-16.61,6.25-25.78,6.23-16.26,0-32.54.22-48.79.47-15.09.22-25,8.35-30.9,21.52-12,26.61-23.92,53.25-35.37,80.1-7.19,16.82-4.16,30,9.87,42q21.51,18.36,44.28,35.2c16.39,12.09,25.54,27.16,20.44,47.72s-18.66,31.87-39.67,36.66c-91.94,21-185,27.79-279.06,24.76-2.52-.1-6.43,1.76-7-2.74-.61-5.12,3.73-4.2,6.72-4.63,1.93-.25,3.89-.19,5.84-.39a3.08,3.08,0,0,0,3-3.18c.06-2.12-1.48-2.6-3.2-2.72-1.31-.1-2.62-.12-3.91-.18-2.23-.11-5.2.3-5.22-2.85,0-4.16,3.66-2.83,5.88-2.85,19.19-.26,38.38,0,57.57-1.55,10-.82,19.66-3.4,29.49-4.84,1.64,3.75-2.5,6.72.61,10.06,13-2.46,24.5-8.95,35.9-15.75,1-.61,2.52-2.25,2.3-2.79-5.51-13.43,9.56-10.4,13.09-16.5l31.45-29.29c5.49-5.94,8.5-14,15-19.31,3.84,4.07-3,10.11,2.34,11.55s7.76-4.75,10.51-8.52a116.64,116.64,0,0,0,13.21-22.67c1-2.26,3.44-5.1.65-6.95-3.13-2.06-5.55,1-7.09,3.34-3.17,4.73-5.85,9.77-9.44,15.89-3.25-7.1-1-12.53,1.17-17.49,11.37-26.48,23-52.85,34.78-79.15.92-2.07,3-6.37,5.51-.58,2.09,4.82,4.58,4.16,6.28-.14,4.26-10.87,8.26-21.83,12.33-32.75a6.43,6.43,0,0,0-.24-5.57c-3.83-7.43-1.34-15.07,6.12-17.71,2.81-1,4.47-2.32,5.37-4.92,4.07-11.63,9.56-22.81,10.87-35.26,1.41-13.36,11.82-23,14.71-35.82a98.67,98.67,0,0,1,5.44-15.59c1.68-4.06,1.36-7.52-2-11.26-6,10.42-7.83,6-10.88-2.24-4.83-13-14.85-21.95-27.54-27.58-18.36-8.16-36.79-16.16-55.2-24.25a54.15,54.15,0,0,1-6.12-2.87c-1.42-.86-2.5-2.5-1.78-4.14.83-1.88,2.68-1.43,4.17-.73,20.65,9.95,42.72,6.12,64.33,6.71,3.91.09,9.05-1.78,7.42,5.72-.23,1.08,1.47,2.86,2.64,3.87a68.72,68.72,0,0,1,18.7,25.8c1,2.48,2.41,5,5.65,4,3.6-1.15,2.33-4.51,1.66-6.64-4.28-14-12.62-24.74-27.06-31.19,3.48-2.56,7-1.58,10.18-1.58,20.52,0,41,.21,61.52,0,16.94-.14,25-6,29.7-22.42,1.46-5.18,4.32-4.65,7.85-4.63,13,0,26,.25,39.05,0,17.27-.33,25.31-8.72,25.52-26.19.08-6.17.25-12.37,0-18.54-.23-5.63,1.8-7.82,6.49-4,17.33,14.23,34.49,28.71,51.55,43.27C1787.66,365.12,1787.23,369.11,1787.21,372.72Z"/><path class="cls-2" d="M1540.4,430.82c-18.88-10.79-39.36-18.33-59.25-27.05-2.48-1.07-5.79-2.87-6.37,2.33-.24,2.09,0,5.18-3.52,4.47-2.85-.56-2.74-3.49-2.77-5.63-.08-5.84-3.29-7.93-8.54-9.94q-52.18-20.08-105.08-38.19c-8-2.71-12.66-7.5-13.11-16.06.56-2.21.76-4.57,1.72-6.57,4.45-9.32.27-12.48-8.64-13.4-4.77-.49-9.42-2.27-14.09-3.62-2.76-.78-4.85-2.56-3.91-5.66s3.81-1.78,5.81-1.39c4.43.84,8.81,2.07,13.21,3.15,14.05,3.4,14.07,3.32,17.33-10.52,1-4,.92-6.27-4.2-7.52-13.51-3.28-26.87-7.27-40.16-11.36-5-1.54-7-.25-8,4.79-1.27,6.45-4.69,12.63-1.49,19.41-8.77,3.42-7,12.93-11.06,19.17-3.59,5.57-8.3,8-14.77,6.95-4.5-.7-8.93-1.6-13.41-2.34-33.24-5.51-66.13-13.11-99.68-16.77a54.74,54.74,0,0,0-6.47-1.64c-23.49-3.09-46.92-6.56-70.47-9-32-3.36-64-5.9-96.22-6.8,0,0-40.49-.23-53.11-.17a1419.23,1419.23,0,0,0-148.52,12.95q-69.36,9.86-138,23.78c-7.92,1.61-13.64-1.4-17.51-8.93-3-5.8-.94-15-10.54-16.7-.25,0-.64-2-.29-2.37,5.82-5.53.39-10.82-.21-16.2-.83-7.35-4.91-7.5-10.81-5.57-10.46,3.42-21,7.21-31.72,9.19-10.26,1.85-11.82,5.62-8.46,15.18,2.4,6.8,4.85,7.78,11,5.69,5.49-1.88,11.32-2.78,17-4,2.27-.49,5.3-2.75,6.16,1.56.7,3.62-1.35,5.12-4.85,5.73-5.41.94-10.71,2.62-16.12,3.5-6.21,1-7.89,3.59-6,9.91,5,16.94,2.6,21.45-13.75,26.88-33.23,11-66,23.22-98.71,35.69-5.88,2.23-13,3.3-11.69,12.58.24,1.61-1,4.13-3.22,4.22-2.72.12-2.5-2.5-2.77-4.28-.65-4.29-3.19-4.33-6.32-2.91-20.07,9.15-41,16.48-60.15,27.46A43.89,43.89,0,0,0,359.57,484c5.22,14.21,11.41,28.06,17.63,41.86,25.3,56.24,50,112.78,76.44,168.47,25.21,53,68.22,82.74,126.65,89.91,21.38,2.62,42.94.25,64.32,2.36,7.52,8.56,15.41,16.09,28.37,12.92,2.33-.56,4.83.74,4.63,3.64-.23,3.38-3.26,2.32-5.31,2.48-16.16,1.17-16.16,1.15-16.32,15.5a39.35,39.35,0,0,1-.08,4.86c-.47,3.79,1,5.12,4.89,5.06,15-.19,29.92-.06,44.88-.13,2.1,0,5.16.84,5.26-2.6.2-6.8,1.21-14-.51-20.35-1.27-4.71-7.58-1.05-11.47-2.15-2-.54-5.1.43-5.08-3,0-3.19,2.79-3.31,5-3.19,7.51.37,13.78-.45,17.61-8.66,2.11-4.51,7.82-5.2,12.94-5.2,14.3.06,28.63.28,42.93-.09,42.15-1.12,84.6,3.49,126.36-6,12-.78,24-1.62,35.95-2.33,0,0,26.66-1.13,51.87.35,8.77.24,17.55.86,26.3,1.61,22.63,1.87,44.83,7.17,67.83,6.64,35.78-.82,71.6-.12,107.4-.12,6,0,12.55.32,15.67,5.89,3.54,6.31,7.86,8.61,14.78,7.69,2.75-.37,6.7-.11,6.27,4.05-.39,3.69-4.24,2.54-6.37,2.17-8.89-1.58-10.67,2.85-9.73,10.38a38.48,38.48,0,0,1-.22,8.77c-.51,4.55,1,6.41,5.89,6.31,14.63-.27,29.29-.08,43.92-.15,2.06,0,5.3,1,5.4-2.39.25-7.11,1.48-14.81-.78-21.18-1.45-4.11-9-.45-13.6-1.57-2.66-.64-7.65,2.21-7.27-3.38.33-4.88,5-3.1,7.85-3.1,7.76,0,15.4,1.23,19.58-8.33,2-4.65,7.72-5.27,12.88-5.22,12,.12,24.08,0,36.13-.09,56.38-.65,102-22.42,135-68.93,7.54-10.67,10.49-23.88,16.57-34.8,10.16-18.21,18.37-37.17,27-56,21-46.06,41.82-92.21,62-138.67C1568.46,465.29,1560.57,442.35,1540.4,430.82ZM451.3,655.49c-.06,1.84-.82,4.16-3,4.22s-3-2.27-3.2-4.18c-1.24-12.59-1.57-25.15.09-37.72.26-1.81.34-4.22,3.19-3.73a3.47,3.47,0,0,1,2.69,3.6c.12,6.46,0,12.91,0,19.38h.26C451.36,643.2,451.48,649.35,451.3,655.49Zm.57-66.81c0,1.33-.1,2.65-.16,4-1,2.07-.25,5.94-3.95,5.42-2.89-.41-3.52-3.62-3.61-6.06-.37-9.56-.45-19.11-.63-28.65.18-1,.35-1.9.53-2.85.57-3.29.06-8.56,4.18-8.31,4.48.3,2.8,5.61,3.15,8.89s.37,6.43.54,9.66Q451.89,579.71,451.87,588.68ZM454,508.34c-5,6.31-1.43,13.72-2.64,20.5-.45,2.56,1.17,6.72-3.07,6.92-3.68.17-4.89-3.85-4.18-6.37,4.32-15.66-4.69-13.06-14.6-11.94-10.4,1.17-19.31-3.83-26.91-10.87-16.14-21.57-7.72-47.09,10.73-55.65,5.76-2.68,11.8-4.69,17.84-3.23,10.14,2.45,15.34.61,13.15-11.1-.39-2.11.53-4.45.9-6.68.26-1.6.47-3.36,2.7-3.28a2.91,2.91,0,0,1,2.93,3.2c-2.91,16.81,6.35,30.06,12.17,44.5C468.24,487.2,461.77,498.24,454,508.34ZM700.2,627.76c-5.45.72-11,.86-16.47,1.27-32.36-6-50.3-25.56-54.76-57.9C631.2,536,648.63,514.44,680,508c31.93-6.59,65,17,70.38,50.24C755.7,591.08,732.29,623.58,700.2,627.76Zm529.33,1.15c-32.93.57-60.62-26.79-61.17-60.44-.52-32.91,27.15-61.24,60.23-61.63s61.42,27.31,61.81,60.09C1290.81,600.5,1263.47,628.33,1229.53,628.91Zm245.35,7.66h0c0,6.18,0,12.35,0,18.53,0,2-.57,4.14-3,4.26-2.6.16-3-2-3-4q0-19,.16-38c0-1.6.15-3.4,2.46-3.24s3.42,1.88,3.46,3.95C1475,624.22,1474.88,630.4,1474.88,636.57Zm0-42.89c0,1.91-.2,4.26-2.62,4.55-3.07.37-3.87-2.28-3.87-4.47q-.06-18.88.33-37.78c0-1.74,0-4.24,2.79-4.2,2.43.06,3.19,2.19,3.23,4.12.15,6.45.06,12.92.06,19.37h.09C1474.91,581.41,1475,587.54,1474.9,593.68Zm35.38-82.12c-7.32,5.09-15.55,6.14-25.67,5.22-9-3.46-11.06,1.62-9.5,10.67a19.38,19.38,0,0,1-.2,4.85c-.19,2.05-.82,3.83-3.43,3.67-2.13-.13-2.53-1.7-2.68-3.36a51.36,51.36,0,0,1-.35-5.82c.21-9.56-1.63-17.9-7.72-26.17-8.66-11.72-8.52-25.79.23-37.25,5.86-7.66,8-15,7.47-23.95a39.68,39.68,0,0,1,.29-7.78c.25-1.94-.86-5.16,2.83-4.93,2.93.2,3.31,2.78,3.4,5.09a90.94,90.94,0,0,1,0,10.7c-.43,5.61.12,7.76,7.21,6,18-4.45,34.57,4.54,41.3,20.91C1529.53,484.19,1523.93,502.11,1510.28,511.56Z"/><path class="cls-1" d="M1228.59,506.84c-33.08.39-60.75,28.72-60.23,61.63.55,33.65,28.24,61,61.17,60.44,33.94-.58,61.28-28.41,60.87-62C1290,534.15,1261.52,506.46,1228.59,506.84Zm.88,114.12c-27.32.33-53-24.68-53.25-51.81-.22-29.31,23.45-53.79,52.53-54.32,28.43-.51,53.46,24.35,53.62,53.23C1282.53,596.43,1258.35,620.61,1229.47,621Z"/><path class="cls-1" d="M1523.46,469.41c-6.73-16.37-23.34-25.36-41.3-20.91-7.09,1.76-7.64-.39-7.21-6a90.94,90.94,0,0,0,0-10.7c-.09-2.31-.47-4.89-3.4-5.09-3.69-.23-2.58,3-2.83,4.93a39.68,39.68,0,0,0-.29,7.78c.54,9-1.61,16.29-7.47,23.95-8.75,11.46-8.89,25.53-.23,37.25,6.09,8.27,7.93,16.61,7.72,26.17a51.36,51.36,0,0,0,.35,5.82c.15,1.66.55,3.23,2.68,3.36,2.61.16,3.24-1.62,3.43-3.67a19.38,19.38,0,0,0,.2-4.85c-1.56-9.05.53-14.13,9.5-10.67,10.12.92,18.35-.13,25.67-5.22C1523.93,502.11,1529.53,484.19,1523.46,469.41Zm-11.24,28.92c-7.37,9.78-17.69,13.23-29.06,10.71-5.88-1.31-8-4.14-8.19-9.94-.17-7.17-.43-6.63-7-5.51-5.73,1-4-4.28-4.67-7.35a31.21,31.21,0,0,1,0-4.89c1.7-3.71-3-13.64,9.26-9.92,2.6.78,2.87-3.19,2.58-5.24-1.13-8.17,4-9.73,10.36-10.75,11.62-1.88,21.88,2.7,28,12.9S1519.12,489.17,1512.22,498.33Z"/><path class="cls-1" d="M1474.9,593.68c0,1.91-.2,4.26-2.62,4.55-3.07.37-3.87-2.28-3.87-4.47q-.06-18.88.33-37.78c0-1.74,0-4.24,2.79-4.2,2.43.06,3.19,2.19,3.23,4.12.15,6.45.06,12.92.06,19.37h.09C1474.91,581.41,1475,587.54,1474.9,593.68Z"/><path class="cls-1" d="M1474.88,636.57h0c0,6.18,0,12.35,0,18.53,0,2-.57,4.14-3,4.26-2.6.16-3-2-3-4q0-19,.16-38c0-1.6.15-3.4,2.46-3.24s3.42,1.88,3.46,3.95C1475,624.22,1474.88,630.4,1474.88,636.57Z"/><path class="cls-1" d="M750.4,558.23C745.05,525,712,501.4,680,508c-31.39,6.45-48.82,28-51,63.14,4.46,32.34,22.4,51.94,54.76,57.9,5.49-.41,11-.55,16.47-1.27C732.29,623.58,755.7,591.08,750.4,558.23ZM689.71,620.9c-27.67-.53-52.78-25.64-52.53-52.53.29-29.49,24.25-53.56,53.19-53.44,28.57.09,53.35,25.24,53,53.83C743.08,596.9,717.83,621.41,689.71,620.9Z"/><path class="cls-1" d="M463.06,474.34c-5.82-14.44-15.08-27.69-12.17-44.5a2.91,2.91,0,0,0-2.93-3.2c-2.23-.08-2.44,1.68-2.7,3.28-.37,2.23-1.29,4.57-.9,6.68,2.19,11.71-3,13.55-13.15,11.1-6-1.46-12.08.55-17.84,3.23-18.45,8.56-26.87,34.08-10.73,55.65,7.6,7,16.51,12,26.91,10.87,9.91-1.12,18.92-3.72,14.6,11.94-.71,2.52.5,6.54,4.18,6.37,4.24-.2,2.62-4.36,3.07-6.92,1.21-6.78-2.39-14.19,2.64-20.5C461.77,498.24,468.24,487.2,463.06,474.34Zm-16.57,15.53c-.82,2.07-2.09,4-2.36,6.1-1.43,11.33-5.26,14.93-16.55,13.72-11.59-1.23-20.11-7.33-24-18.51-3.77-10.8-1-20.26,6.92-28.51,8.24-8.62,18-9.3,28.57-5.92,2.13.68,4.41,1.27,4.75,4.16.6,5.1-2,13.29,8.65,8.87,1.21-.5,2.52,1.67,2.88,3.39.93,4.41,2.59,8.83,1,13.36-.94,2.66,0,6.47-3,7.84C449.74,496,450.19,490,446.49,489.87Z"/><path class="cls-1" d="M451.92,570.74q0,9-.05,17.94c0,1.33-.1,2.65-.16,4-1,2.07-.25,5.94-3.95,5.42-2.89-.41-3.52-3.62-3.61-6.06-.37-9.56-.45-19.11-.63-28.65.18-1,.35-1.9.53-2.85.57-3.29.06-8.56,4.18-8.31,4.48.3,2.8,5.61,3.15,8.89S451.75,567.51,451.92,570.74Z"/><path class="cls-1" d="M451.3,655.49c-.06,1.84-.82,4.16-3,4.22s-3-2.27-3.2-4.18c-1.24-12.59-1.57-25.15.09-37.72.26-1.81.34-4.22,3.19-3.73a3.47,3.47,0,0,1,2.69,3.6c.12,6.46,0,12.91,0,19.38h.26C451.36,643.2,451.48,649.35,451.3,655.49Z"/><path class="cls-1" d="M1576.66,742.23a20.59,20.59,0,0,1-21.55,20.31c-11.48-.42-20.25-10.25-19.74-22.13.48-11.06,10-19.55,21.52-19.18A20.67,20.67,0,0,1,1576.66,742.23Zm-7.72-.66c-.11-6.77-6.65-13.46-13-13.3s-13,7-12.89,13.54,6.67,13.14,13.1,13A13.47,13.47,0,0,0,1568.94,741.57Z"/><path class="cls-1" d="M1516.16,633.83c-4.35,11.43-8.76,23.16-13.31,34.83-.68,1.75-2,3.57-4.34,2.7s-2.46-3-2-4.9c3.19-12.15,6.9-24.12,13.09-35.15.91-1.61,2.2-3.61,4.47-3C1516.72,629.1,1515,631.64,1516.16,633.83Z"/><path class="cls-1" d="M1319.11,805.54c-3-.9-12.6,3.52-13-2.4-.55-7.73,9-3.37,14-4.49,7.49-1.71,15.36-1.72,23-2.64,3-.35,5.4.17,5.78,3.38.32,2.8-2,3.7-4.4,4C1336.81,804.42,1329.2,806.12,1319.11,805.54Z"/><path class="cls-1" d="M1422.22,764.74a224.65,224.65,0,0,0,29.3-27.13c4.49-.74,8.14.21,4.28,5.21-7.69,10-17.29,18.14-27.75,25.13C1425.67,769.54,1421.33,770.94,1422.22,764.74Z"/><path class="cls-1" d="M403.85,633.72c-.2-2.42-.18-4.27,1.37-5.07,2.25-1.16,3.8.83,4.58,2.32a175.2,175.2,0,0,1,13.48,35.12,4.25,4.25,0,0,1-2.39,4.88c-2.36,1-3.46-1-4.34-2.71C410.65,657.09,407.77,644.82,403.85,633.72Z"/><path class="cls-1" d="M575.66,796.39c12.89,1.05,24.19,2,35.5,2.9,2.22.18,3.78,1.15,3.78,3.51,0,2.72-2.23,2.88-4.15,2.94a175.66,175.66,0,0,1-36.85-2.4c-2.12-.38-4-1.43-3.63-3.72C570.93,795.57,574.66,796.68,575.66,796.39Z"/><path class="cls-1" d="M383.94,741.09c0,11.83-9,21.28-20.46,21.34-11.19.07-20.59-9.14-20.52-20.11.08-12.37,8.5-21,20.45-21C375.17,721.28,383.91,729.71,383.94,741.09Zm-7.48,1.07c.09-6.79-6.11-13.65-12.5-13.87s-13.35,6.29-13.55,12.91c-.2,6.79,5.85,13.23,12.69,13.51A13.11,13.11,0,0,0,376.46,742.16Z"/><path class="cls-1" d="M840.79,266.59c2.36,1.16,7.07-2.6,7.25,3.19.14,4.81-3.77,4.22-7,4.52-10.27,1-20.54,2-30.8,3.11-2.81.29-6.42,1.78-7.15-2.33s2.87-4.28,5.82-4.63C819.53,269.18,830.1,267.89,840.79,266.59Z"/><path class="cls-1" d="M724.44,285.72c-.37,2.84-2.66,3.41-4.86,3.85-11.37,2.32-22.77,4.47-34.12,6.88-2.76.59-5.3,1.32-6-2.38-.52-2.94,1.75-3.78,4.09-4.31,11.32-2.55,22.62-5.2,34-7.62C720.55,281.5,723.45,282,724.44,285.72Z"/><path class="cls-1" d="M774.37,274c3.46,1.23,10.56-3.14,11.21,2.21.59,4.83-7,4-11.14,4.71-9.24,1.62-18.61,2.5-27.9,3.89-2.15.32-4.66,2.15-5.68-.94s1.51-4.81,4.1-5.56A123.81,123.81,0,0,1,774.37,274Z"/><path class="cls-1" d="M1201.65,282.07c10.59,2.32,21.9,4.82,33.22,7.25,3.15.68,6,2.39,5.32,5.63-.76,3.63-4.06,1.84-6.45,1.38-11.39-2.16-22.78-4.28-34.15-6.52-2.67-.52-5.53-2.19-5.12-4.9C1194.91,282,1198.25,282,1201.65,282.07Z"/><path class="cls-1" d="M1078.75,266.91c10.31,1.14,20.55,2.31,30.8,3.38,3.1.32,6.56,1.11,6.17,4.63-.56,5.11-4.85,2.7-7.67,2.44-9.93-.91-19.83-2.17-29.76-3-3.71-.31-8.17-.37-7.58-5S1076,267.66,1078.75,266.91Z"/><path class="cls-1" d="M1146.49,274c9,.83,18.11,1.45,26.94,3.83,2.81.76,5.16,2,4.17,5.26-.86,2.82-3.31,2.05-5.68,1.69-10.25-1.52-20.56-2.67-30.8-4.22-3-.45-7.91-.23-7.54-4.27.37-4.2,5-2.52,8.05-2.58C1143.24,273.71,1144.87,273.93,1146.49,274Z"/><path class="cls-1" d="M1140.08,805.52c-5.52,0-11,0-16.56,0-3.35,0-6.07-1.14-5.89-4.81.2-4,3.76-3.07,6-2.65,11.29,2.09,22.67,1.13,34,1.47,2.15.06,5-.43,4.95,3s-2.82,3-5,3.07c-5.84.09-11.69,0-17.53,0Z"/><path class="cls-1" d="M777.32,806.32c-5.5,0-11,.08-16.5,0-2.19,0-4.68,0-4.56-3.49.11-3.27,2.32-3.45,4.66-3.43,12,.1,23.93,0,35.85-1.45,2.61-.33,5.51-.53,5.26,3.52-.21,3.32-2.4,4.05-5.33,4.16-6.46.25-12.91.71-19.36,1.09C777.33,806.56,777.33,806.44,777.32,806.32Z"/><path class="cls-1" d="M1380.87,327.27c12.22,4.12,24.68,7.75,36.44,13.29,2,.93,3.11,2.49,2.52,4.67s-2.56,1.89-4,1.41c-11.92-4.05-23.82-8.15-35.65-12.46-2-.73-4.17-2.32-3.45-5.11C1377.25,327.07,1379.19,327.39,1380.87,327.27Z"/><path class="cls-1" d="M538,327.45c2.4,0,4.23-.45,5,1.5.87,2.26-.44,3.72-2.31,4.67-12.2,6.22-25.67,8.64-38.54,12.84a3.56,3.56,0,0,1-3.22-1.3c-1-2.32,1.12-3.67,2.72-4.46C513.46,334.84,526.26,331.52,538,327.45Z"/><path class="cls-1" d="M1229,579.34c-14.33.19-24.12-9.61-24.31-24.34-.19-14.32,9.73-24.78,23.83-25.13,14.31-.35,25.68,10.51,25.68,24.53C1254.22,568.8,1243.77,579.15,1229,579.34Zm-16.42-25.59a17.26,17.26,0,0,0,16.19,18.13c8.53.56,17-7,17.68-15.81.75-9.23-6.73-17.9-15.94-18.47C1220.82,537,1213.11,543.94,1212.6,553.75Z"/><path class="cls-1" d="M690.24,579.31c-14.19.25-24.76-10.36-25-25.1-.22-12.85,10.72-24,24-24.37,14.19-.43,25.77,10.38,26,24.29S704.65,579.06,690.24,579.31Zm17-24.9a17.21,17.21,0,0,0-17.61-16.89,17,17,0,0,0-16.52,17.92c.42,9,9.16,17.06,18.2,16.85C699.25,572.1,707.46,562.88,707.29,554.41Z"/><rect class="cls-2" width="1" height="1"/><rect class="cls-2" x="1919" y="1079" width="1" height="1"/><rect class="cls-2" y="1079" width="1" height="1"/><rect class="cls-2" x="1919" width="1" height="1"/></g><g id="Capa_3" data-name="Capa 3"><path d="M798.38,358.72v111H778.56V399l-19.51,14.91-16.18,12.53-16.18-12.53L707.18,399v70.74H687.35v-111L707.18,374l35.69,27.44L778.56,374Z"/><path d="M852.31,395.68v75.5H832.48V393.62A15.8,15.8,0,0,0,819,380.14h-4.45V360.47h4.29v.16a35.42,35.42,0,0,1,29.5,19.82,42.36,42.36,0,0,1,2.7,7.46,33.47,33.47,0,0,1,1,8.09Z"/><path d="M978.72,392.35a32.67,32.67,0,0,1-9.2,22.84A32.76,32.76,0,0,1,946,470.71H867.85V450.88H946a13.07,13.07,0,0,0,13-13,12.9,12.9,0,0,0-12.21-13h-59V405h59a13,13,0,0,0-.64-26H868V359.2H946.2a32.63,32.63,0,0,1,32.68,32.67Z"/><path d="M1103.23,378.71a34.46,34.46,0,0,1,2.53,12.85v45.52a32.69,32.69,0,0,1-10.46,24.11,34.25,34.25,0,0,1-7.3,5.23,31.42,31.42,0,0,1-14.91,3.65h-69V450.25h69a13.07,13.07,0,0,0,13-13V421.69a32.49,32.49,0,0,1-12.38,2.54h-46.79a32.76,32.76,0,0,1,.48-65.51h45.52a32.59,32.59,0,0,1,30.14,20Zm-88.67,12.85a13,13,0,0,0,12.37,13h46.79a13,13,0,0,0-.63-26h-45.52A13.07,13.07,0,0,0,1014.56,391.56Z"/><path d="M1232.49,392.35a32.67,32.67,0,0,1-9.2,22.84,32.76,32.76,0,0,1-23.48,55.52h-78.19V450.88h78.19a13.07,13.07,0,0,0,13-13,12.9,12.9,0,0,0-12.21-13h-59V405h59a13,13,0,0,0-.64-26h-78.19V359.2H1200a32.63,32.63,0,0,1,32.68,32.67Z"/></g></g></svg>