<svg xmlns="http://www.w3.org/2000/svg" viewBox="0 0 1920 1080"><defs><style>.cls-1{fill:#f2f2f2;}.cls-2{fill:#ccc;}</style></defs><g id="Capa_2" data-name="Capa 2"><g id="Capa_1-2" data-name="Capa 1"><path d="M567.49,798.48V772c-.22-3.9,1.66-10.55-2.32-11-4.84-.63-4.21,36.94-4.21,36.94-.05,3.11-.11,7.59,4,7.55S567.24,801.05,567.49,798.48Zm.58-142.68s.54-16.14-3.59-17.1-3.48,19-3.48,19c0,6.73-.07,13.47.14,20.2.21,6.51,3.2,6.14,7.2,2.59.13-1.24.29-2.45.42-3.69C568.57,669.83,568.84,662.76,568.07,655.8Zm0,0s.54-16.14-3.59-17.1-3.48,19-3.48,19c0,6.73-.07,13.47.14,20.2.21,6.51,3.2,6.14,7.2,2.59.13-1.24.29-2.45.42-3.69C568.57,669.83,568.84,662.76,568.07,655.8Zm-2.9,105.12c-4.84-.63-4.21,36.94-4.21,36.94-.05,3.11-.11,7.59,4,7.55s2.3-4.36,2.55-6.93V772C567.27,768.06,569.15,761.41,565.17,760.92ZM1781.55,443.77c-.37-29.86-1.06-59.74-1.08-89.59l-9.67-9.87c-9.63-4.47-19.57-3.08-29.39-3.08q-112.83-.18-225.66,0a86.35,86.35,0,0,1-24.68-3.35c-38.43-11.35-77.16-21.62-116.36-30-55.24-11.84-110.84-21.54-167-28.45q-49.27-6.09-98.76-9.61c-15.07-1.07-20.74-7.7-21.15-23.09-.19-6.73-.06-13.49-.23-20.22-.46-17.59-10-28.39-27.33-30.19-7.62-.77-15.4-.38-23.1-.09-3.61.13-5.46-.64-5.17-4.56,1.18-16-2.53-30.53-12.35-43.39-2.65-3.45-1.1-4.9,2.85-5.46q30-4.31,59.89-9c3.49-.54,5-.23,5.56,3.9,2.1,14.84,8.22,18.37,22.44,13,32-12.16,63.94-24.57,95.91-36.87,7.18-2.78,12.48-6.87,10.86-15.69-1.5-8.34-7.06-12.62-17-11.69-11.16,1-22.26,2.93-33.35,4.69-65.87,10.46-131.74,20.88-197.56,31.65-8.76,1.43-19.16,0-19.16,0-20.87-3.61-41.81-6.68-62.73-10Q802.37,99.43,717.29,86c-10-1.56-16.29,2.14-18.33,9.77-2,7.33,2.31,16.92,10.11,19.76,34.61,12.55,69.27,24.94,104.12,36.79,11.37,3.86,18.44-1.6,19.94-13.53.37-2.8-.54-5.6,4.54-4.73,19.88,3.38,39.87,6.18,59.81,9.26,3.43.52,5.75,2,2.72,5.64-10.09,12-12.8,26.32-12.64,41.4.06,4.69-1.62,5.79-6.2,5.75-35.66,0-37.38,4.63-37.38,4.63-13.72,12.85-11.64,28-11.93,42.52-.38,19.57-5.67,25.34-25.75,26.81a1880.47,1880.47,0,0,0-263.67,38.4c-38.89,8.44-77.32,18.61-115.45,29.88-8.15,2.41-16.39,2.86-24.77,2.86q-114.75-.09-229.49-.06c-9.59,0-19.4-1.08-29,6.52-2.34,1.66-5.5,7.66-5.5,7.66v86.22c.12,13.14.44,26.28.29,39.43-.12,9.76.79,19.33,5.56,28,10.11,18.2,10.15,38.06,10.19,58,4.21,15,10.67,28.22,25.13,36.26,12.29,6.87,24.28,14.34,36.26,21.77a21.15,21.15,0,0,0,11.25,3.11c33.66.89,34.9-.46,35.32-34.33.1-8.34-2.53-17,1.74-25.09-1.29-7.57.31-13.71,7.82-17.47s14.24-1.64,20.41,2.93c3.32,2.47,6.64,4.83,10.6,6.12,24.07.25,48.11.43,72.16.79,14.77.22,24.8,7.61,30.17,21.19l56.33,201.23c4.58,10.8,8.44,22,13.82,32.36,21.56,41.55,54,71.05,98.39,86.87,44.51,14.59,90.71,7.53,90.71,7.53,13.88-2.13,27.35-6.45,41.42-7.57a802.36,802.36,0,0,1,123.48-19.3c16.1-.25,31.71-4.57,47.87-5.13,26.48-1,52.88-4.05,79.44-2.78,41.34-1.12,82.44,2.16,123.5,6.58,44.35,3.28,88.08,10.69,131.58,19.67,4.35.89,9,.34,13,2.83,14.78,2.57,29.47,5.62,44.33,7.57,25.84,3.36,51-1.29,75.72-8.47,47-18,82.1-49.16,103.08-95.05,11.06-24.19,16.13-50.49,23.56-75.93,11.49-39.26,22.6-78.59,33.85-117.9,2.32-8.63,4.54-17.28,7-25.87,5.56-19.84,15.77-27.67,36.56-28.21,24.26-.66,48.57,1.46,72.78-1.55a25.72,25.72,0,0,1,13.18-9.07c10.73-3.51,21.52,4,22.23,16,.64,10.54,0,21.17-.09,31.75a19.79,19.79,0,0,1-.2,9.67l.06,3.82c1.76,7.91,4.81,14.73,13.82,16.6,9.55.77,20.15,2.91,28.33-1.68,25.84-14.48,56.55-23.93,66.18-57.3-.58-22.31,1.51-44.08,12.31-64.25,4.14-7.66,3.15-16.2,3.32-24.47Q1781.25,462,1781.55,443.77ZM1202.69,93.9c3.59-.06,6,1.7,6.48,5.42.39,3.38-1.33,5.31-3.63,5.6-5.29.23-6.27-2.94-6.91-6S1199.56,94,1202.69,93.9Zm-17.53,5.9c8.94-3.45,5,6.06,8.67,6.82-.29,4-2.51,4.53-4.63,5.36q-42,16.33-84,32.75c-4.2,1.64-7.62,1.26-9.4-3.35-1.7-4.37-.19-7.34,4.29-9C1128.48,121.55,1156.85,110.79,1185.16,99.8Zm-33,1.59c-2,5.11-5.65,5-8.39,6.25-36.85,17.29-77,20.5-116.23,27.73-14.16,2.63-26,.27-40.14-7.76C1043.44,118.7,1097.21,110.13,1152.12,101.39Zm-342.21,31.4c-1.14,3.14-.83,9.57-6.06,8-16.52-5-32.69-11.14-49-16.83.31-.87.6-1.74.91-2.59,16.52,2.57,33,5.17,49.58,7.7C807.73,129.41,811.36,128.77,809.91,132.79Zm15.41,6.37c-.56,3.39-1.55,7.27-6.1,7.19-3.44,0-3.38-3.14-3.67-5.67.62-3.07.58-7,4.77-7.12A4.64,4.64,0,0,1,825.32,139.16ZM721.48,108c-6-1-16.23.4-14.82-9.34,1.54-10.62,11-4.75,16.64-3.88l241.05,38c21.6-1.89,45.72,11.1,55.14,30.09a45.15,45.15,0,0,1,4.79,22.91c-.7,3,1.93,7.62-1.89,10.07-2.09,1.33-5.68,1-8.4.48-3.88-.73-3-4.34-3.09-7.1-1.37-28-9.63-36.9-37.84-40.92Zm260.28,105.3a50.63,50.63,0,0,0-15.54-4.42c-18.27-2.32-33,6.41-33,6.41-3.57,3.1-3.4-3.81-5.31-5.81-3-3.17-1.39-5.43,2.26-7.2a80.34,80.34,0,0,1,23.74-6.8c21.17-1.66,32.85,5.41,32.85,5.41,7.33,2.3,6.1,6.83,4.17,11.85C988.42,219.29,984.46,214.52,981.76,213.25Zm6.14,52.51c-2.41,10.87-9.73,17-19.36,20.92-10.38,2.55-16.87.33-16.87.33-10.79-4.69-19-11.31-20.5-24.2-1.09-9.28-.82-18.53-.92-27.77-.1-9.09,16.66-21.35,25.53-18.94l11.66.41c17.43,3.42,21.73,8.38,21.65,26.27C989.07,250.44,989.6,258.12,987.9,265.76Zm-65.52-68c-4.44,2.35-5.33.58-5.78-3.69-2.45-23.08,6.12-34.18,28.7-38a89.66,89.66,0,0,1,30.44.06c19.18,3.2,27.5,12.29,27.44,31.58,0,2.23-.13,4.47,0,6.71.33,5-2.1,5.64-5.79,3.57C972.42,184,947.41,184.47,922.38,197.77Zm-21.78-35c8-16.64,11.57-18.32,30.73-13.76-2,4.32-5.87,4.9-8.61,6.91-11.62,8.49-14.9,20.24-13.72,33.79.44,5-1.25,7-6.43,6.72-4.67-.21-7.83-.58-7.68-6.74C895.12,180.3,896.51,171.33,900.6,162.8Zm-568,277q.25,50,.54,100c0,2.76-.31,5.61-3.73,5.5-9.18-.31-18.64,1.56-27.29-3.36-28.21-16-48.94-6.66-55.58,25.11.13,13.41.13,26.82.44,40.22.12,4.67-1.72,6.21-6.17,6-5.1-.25-10.6.72-15.13-1.66-16.6-8.72-33.8-16.65-47.25-30.22-3.78-3.84-7-8.38-7-14.27-3.24-6.92-1.83-14.35-2.22-21.55-.56-10.58-.77-21.46-6-30.79-8.88-15.84-9.9-32.71-9.15-50.12.29-7,.31-14,.47-21-.14-26.37,0-52.71-.52-79-.18-8.86,5.46-7.89,10.84-7.91,48.23-.06,96.44-.16,144.68,0,7.62,0,17.46-3.4,22.33,1.31s1.17,14.63,1.23,22.22C333.19,400,332.8,419.89,332.61,439.79Zm16-76.25q0,86.26-.12,172.54a52.88,52.88,0,0,1-.36,5.77c-.26,2.12-1.3,3.53-3.67,3.63-3.24.13-3.51-2.07-3.49-4.44,0-5.15.17-10.29.17-15.42q0-37.61,0-75.19H341c0-28.92-.06-57.85.1-86.76,0-2.74-1.93-7.43,2.89-7.81C349.28,355.45,348.57,360.08,348.57,363.54ZM973.4,859.89c-9.26,0-18.54.08-27.83.08-2.68,0-4.28-1.2-3.9-4.09.37-2.68,2.2-2.47,4.29-2.3l26.86.41c2.11,0,5-.68,4.75,2.89C977.42,859.16,975.53,859.89,973.4,859.89ZM1564,366.39c-.52,39.51-.25,79-.33,118.56,0,4.15-.4,8.3-.61,12.45a153.42,153.42,0,0,1-.16,33c1.56,14.62,1.56,14.6-12.06,14.62-3.84,0-7.68.11-11.54.17-12,2-22,7.87-30.67,16.25-12.95,18-15.3,39.85-21.31,60.29-15.69,53.5-29.74,107.48-46.18,160.73-25.75,83.32-105.73,129.23-191.07,111.07s-171.19-30.86-258.43-33.33c-4.71-.13-7.64-.94-6.93-6.21.54-4.06-2.33-5.29-5-6.8-12.2.2-24.4.47-36.62.54-4.71,0-8.33.76-7.89,6.78.44,5.65-3.51,5.71-7.64,5.87-39.51,1.41-78.84,5.07-118.16,9.13-36.72,3.76-72.82,11.3-109.14,17.58-46.55,12.64-92.83,17.1-137.8-5.77-42.85-21.77-71.72-55.24-84-102.2L421.58,582.8c-8.47-26.71-24.36-37.71-53.31-37.5-12.23.1-12.12.1-12-12.21q.4-44.79.65-89.55c-.15-27.31-.25-54.6-.56-81.91-.05-4.23,1.3-5.85,5.54-5.29C412,362.9,458,344.47,505.13,333q88.25-21.54,178.23-34.28c43.24-6.1,86.62-10.33,130.12-13.55,19.83-1.47,33-15.63,33.63-35.4.26-7.7,0-15.42.32-23.12.39-9.4,4.91-15,14.86-15.26,4.17-.1,8.36-.23,12.51-.64,7.87-.75,15.29-1.31,12.74,10.58-.68,3.18,1.45,4.78,4.42,4.9,3.38.13,3.1-2.43,3.14-4.71s0-4.5.18-6.74c.44-4.45,3.88-5,7.08-4.3,4.34,1,1.6,3.55.62,5.64-1.89,4-1.06,6.23,3.78,7.54,10.21,2.72,11.25,4.67,6.49,14.9-6.47,13.82-5,27.48-.62,41.23,1,3.28,3.16,6.25,5.09,9.16.78,1.16,2.51,2.61,3.63,2.49,10-1.14,15.67,3.13,16.29,12.61.1,1.79.77,3.3,2.34,3.86,13,4.69,26.17,6,39.21,0,1.07-.48,2.71-2.08,2.53-2.54-3.12-8,4-9.81,7.9-13.63,2.29-2.26,3.35-4.61,7.5-1.52,4,2.93,6-2.05,7.47-5,7.22-14.75,9-29.88,2.59-45.45-5-12.11-4.79-12.76,8.28-16.89,4.88-1.53,3.07-4.25,1.87-7.09-.75-1.83-3.49-4.13.19-5.28,3-1,5.52.23,6.64,3.78,1.22,3.8-2.7,11,4.06,10.9,6.56,0,2.89-7,3.74-10.88.75-3.49,3-3.71,5.65-3.65,6.43.16,12.88.14,19.29.54,10.65.7,14.91,4.9,15.51,15.65.41,7.38-.07,14.81.23,22.18.91,21.5,14.42,34.8,35.9,36.24,124.16,8.38,246.29,28.88,365.68,64,26.73,7.88,53.23,7,80,6.89C1562.5,356.2,1564.1,358.44,1564,366.39Zm11.16,179c-6.2.21-3.48-4.94-3.48-7.87q-.14-85.69,0-171.39c0-2.23.06-4.49.2-6.73.13-2,.61-4,3.24-3.75,2.05.18,3.78,1.07,4,3.4.15,1.91.09,3.84.09,5.77q0,42.85,0,85.71,0,43.32,0,86.66C1579.11,540.4,1580.46,545.21,1575.14,545.36Zm190.18-57.86c0,6.66-2.22,12.66-4.94,18.41-6.43,13.59-10.25,27.68-9.4,42.77,1.16,20.77-7.22,35.86-25.84,45.51-7.09,3.67-13.55,8.55-20.42,12.68a40.6,40.6,0,0,1-9.48,4.52c-19.82,5.61-22.56,3.53-22.58-16.58,0-9.94.25-19.92-.17-29.86-1-24.07-28-39.43-48.27-26.56-9.85,6.22-19.67,6.53-30.21,7.05-6.15.31-7.45-2-7.41-7.8.29-45.6.25-91.19.29-136.8,0-12.19.29-24.41-.25-36.61-.27-6.27,1.49-8.05,7.89-8,27,.37,54,.15,81,.15v.14c26.65,0,53.32.25,80-.14,8.06-.11,10.69,2.88,10.61,10.66Q1765.41,427.27,1765.32,487.5ZM564.48,638.7c-4.13-1-3.48,19-3.48,19,0,6.73-.07,13.47.14,20.2.21,6.51,3.2,6.14,7.2,2.59.13-1.24.29-2.45.42-3.69-.19-7,.08-14.09-.69-21.05C568.07,655.8,568.61,639.66,564.48,638.7Zm.69,122.22c-4.84-.63-4.21,36.94-4.21,36.94-.05,3.11-.11,7.59,4,7.55s2.3-4.36,2.55-6.93V772C567.27,768.06,569.15,761.41,565.17,760.92Z"/><path d="M1514.79,486.48c-1.08-4.15,1.33-8.94-5.39-11.74-4.92-2-3.63-9.7-4.71-14.84s4-1.85,6-2.91c1.86-1,1.89-2.55,1.51-4a189.14,189.14,0,0,0-12-34.35c-1-2.18-3.25-4-5.39-3.05-2.82,1.2-1.64,4-1.14,6.47,1,4.9,5.7,8.39,5.12,13.83,3.57,4.75,3.22,10.66,3,17q-3.65-8.37-7.28-16.77c-17.62-30.88-44.83-48.16-78.84-56-16.85-3.88-33.6-8.07-50.37-12.22-2.63-.66-6.64-.42-6.68-4.21-.13-9.22-1.85-19.41,1.55-27.29,1.79-4.17,12.08,1.22,18.49,2.63a5.32,5.32,0,0,0,.94.17c2.12,0,4.85,1.26,5.91-1.52,1.21-3.21-1.16-4.9-3.75-5.54q-16.76-4.2-33.62-7.91c-1.89-.41-4.78-1.26-5.36,2.14a3.92,3.92,0,0,0,3.59,4.84c5.65.52,5.3,4.23,5.19,8.26a123.23,123.23,0,0,0,.19,15.38c.79,8.3-2.18,9.6-10,7.74-105-24.84-211.64-36.15-319.31-39.18-11.91-.32-23.78-.73-34.24,6.55a9.66,9.66,0,0,1-8.2,1.73,53.9,53.9,0,0,1-42.41-.19c-24.43-12.93-50.64-7.51-76.23-6.75-23.72.69-47.4,3.16-71.1,4.82-67.63,4.73-134.31,15.75-200.45,30.36-21.4,4.75-21.4,5.06-21.46-17.18,0-4.67-2.43-10.69,5.77-11.67,2.53-.31,3.53-2.72,2.85-5.23s-3.1-2-4.78-1.76c-11.81,1.45-23.26,4.5-34.61,7.93-2.27.68-3.93,2.36-3.45,5,.6,3.3,3.38,2.64,5.36,2.24,5-1,10-2.34,14.9-3.69,4.48-1.21,7.34-1,6.86,5a156.64,156.64,0,0,0-.2,20.21c.2,4.49-1.58,6.4-5.81,7-14.61,2.16-28.73,6.45-43,10.15-24.66,6.41-48.73,13.84-67.45,32.7-9.15,9.22-16.08,19.9-22.66,30.92-3.07,9.68-6.1,19.41-9.26,29.08-.49,1.47-1.2,3.51-2.34,4-7,2.74-5.87,8.57-5.15,13.8,1.58,11.62,1.72,23.64,9.55,33.66a18.08,18.08,0,0,1,3.55,11.81c-.33,6.89,1.64,13.26,3.61,19.7,5.93,19.52,14.07,38.35,16.77,58.87.93,7.16,4.19,14,6.28,21.07.83,2.74,2.14,5.08,5.28,4.08s3-3.73,2.24-6.45c-1.62-5.73-3.18-11.46-5.27-19.09,13.3,8.94,25.94,11,39.67,6.93,19.31-5.75,38.77-11.06,58.19-16.46,14.82-4.13,14.84-4.07,15.84,10.73.06.64.06,1.27.1,1.91.15,2.26.15,4.88,3.08,5.15,3.27.33,3.15-2.55,3.48-4.67a16.06,16.06,0,0,0,.21-4.78c-.83-5.68.64-7.36,6.06-4.17,8,4.67,16.12,9,24.2,13.56C619.1,631.46,640.36,642,660.8,654c29.55,17.33,43.7,43.76,43.52,78.15-.09,19.53-8.3,35.82-18,51.9-15.52,25.7-5.06,51.62,23.52,59.19l494.8-.25c21.61-.16,36.92-17.55,36-39.08-.42-9.85-5.48-17.63-10.46-25.5-17-26.88-19.92-55.1-7.26-84.4,7.47-17.25,19.28-31.09,35.94-40.2q42.62-23.34,85.5-46.13c2.53-1.33,7.08-6.58,7.56,1.93.26,4.11-2.2,10.81,4.39,10.35,3.82-.25,2.47-7.12,2.2-10.93-.58-8.47,2.7-10,10.28-7.72,16.25,4.85,32.68,9.06,49,13.71,17.85,5.07,35.66,11.77,55-4.15-2.49,9.32-4,15.11-5.62,20.86-.65,2.3-1.19,4.69,1.41,5.83,3.19,1.41,4.62-1,5.62-3.51a71.58,71.58,0,0,0,3-8.11c6.6-23.95,11.76-48.36,22.49-71,1-4.71,2.93-9.46,2.7-14.11-.29-6.49-1.28-13.07,2.47-18.61C1512.16,511.28,1513.59,499,1514.79,486.48Zm-17.57,29c-6.56,24.74-12.7,49.62-20.84,73.92-4.25,17.08-18.35,27.09-35.13,23.5-26.63-5.71-52.3-15.13-79-20.67-4.3-.9-22.43,9-22.43,9-27.15,13.84-53.94,28.39-80.57,43.2-52,28.95-67,87.83-35.71,138.65,12.29,19.95,12.33,31.9.08,44.21-4.69,4.71-10.21,7.74-17,7.74L714.13,835c-19.8-.25-32.54-20.73-25.09-39.14,2-5,5.07-9.58,7.93-14.19,20.07-32.56,20.88-65.66,3-99.32-.75-1.4-1.37-2.85-2.06-4.3C687,661.47,672,649.93,654.63,640.78c-23.8-12.56-47.37-25.57-71-38.46-20.21-11-33.44-8.42-33.44-8.42-22.66,5.6-45.07,12.3-67.73,18-19.43,4.88-33.6-2.2-39-21.12-8.5-29.81-18.78-59.25-23.4-90-3-20.26,1.11-39.45,11-57.4,15.32-31.22,41.84-47.22,74.4-55.66,67.3-17.45,135.19-32.06,204-41.82a1320.84,1320.84,0,0,1,137.07-12.31q17.79-.67,35.58-1.92c31.17-2.54,35.71.64,35.71.64a116.54,116.54,0,0,0,34.8,10.19c3.12.41,10.57,1,10.57,1,16.06-.76,30-8.67,45-13,2.28-.66,4.88-.1,8.53-.1l26.56,1.22c96,4,191.17,14.55,285,35.62,33.08,7.41,66.45,13.92,98.72,24.42,33.74,11,57.36,32.83,68.11,67.34C1502.51,477.54,1502.26,496.44,1497.22,515.45Z"/><path class="cls-1" d="M1495.1,459c-10.75-34.51-34.37-56.38-68.11-67.34-32.27-10.5-65.64-17-98.72-24.42-93.83-21.07-189-31.65-285-35.62l-26.56-1.22c-3.65,0-6.25-.56-8.53.1-15,4.3-28.93,12.21-45,13,0,0-7.45-.6-10.57-1a116.54,116.54,0,0,1-34.8-10.19s-4.54-3.18-35.71-.64q-17.76,1.25-35.58,1.92a1320.84,1320.84,0,0,0-137.07,12.31c-68.85,9.76-136.74,24.37-204,41.82-32.56,8.44-59.08,24.44-74.4,55.66-9.86,17.95-14,37.14-11,57.4,4.62,30.8,14.9,60.24,23.4,90,5.4,18.92,19.57,26,39,21.12,22.66-5.69,45.07-12.39,67.73-18,0,0,13.23-2.6,33.44,8.42,23.64,12.89,47.21,25.9,71,38.46C672,649.93,687,661.47,697.88,678c.69,1.45,1.31,2.9,2.06,4.3,17.91,33.66,17.1,66.76-3,99.32-2.86,4.61-5.91,9.21-7.93,14.19-7.45,18.41,5.29,38.89,25.09,39.14l492.44.09c6.83,0,12.35-3,17-7.74,12.25-12.31,12.21-24.26-.08-44.21-31.34-50.82-16.31-109.7,35.71-138.65,26.63-14.81,53.42-29.36,80.57-43.2,0,0,18.13-10,22.43-9,26.71,5.54,52.38,15,79,20.67,16.78,3.59,30.88-6.42,35.13-23.5,8.14-24.3,14.28-49.18,20.84-73.92C1502.26,496.44,1502.51,477.54,1495.1,459Zm-932,88.54a40.14,40.14,0,1,1,40.12-40.12A40.18,40.18,0,0,1,563.09,547.52ZM960,814.33a40.14,40.14,0,1,1,40.12-40.13A40.16,40.16,0,0,1,960,814.33Zm396.92-266.81a40.14,40.14,0,1,1,40.13-40.12A40.18,40.18,0,0,1,1356.93,547.52Z"/><path d="M1488.51,396.37a3.91,3.91,0,0,1-2.26,3.87c-2.24,1.2-4.63,1.12-6-1.09-5.79-9.73-14.38-17.06-21.59-25.55-1.45-1.7-2.71-3.72-.64-5.94,1.39-1.49,2.85-1.06,4.25-.07,10.27,7.32,18.49,16.59,25.5,27A7.93,7.93,0,0,1,1488.51,396.37Z"/><path d="M462.87,369.41c.11,3.58-1.94,5.24-3.85,6.93a98,98,0,0,0-17.68,20.17c-2,3.12-4.67,6.49-8.38,3.76-3.07-2.25-1.07-5.68,1-8.46,6.48-8.86,13.77-16.9,22.91-23.08C459.1,367.19,461.9,364.88,462.87,369.41Z"/><path d="M887.56,257.55c.54-5.42,1-10.8,1.63-16.17.35-3.08,2.35-4.37,5.32-4.17,3.79.26,3.6,3,3.06,5.56-2,9.47-1.33,19-.82,28.52.13,2.46,1.71,6.34-3,6.49-3.87.11-4.24-3.12-4.58-6C888.62,267,888.1,262.28,887.56,257.55Z"/><path d="M1126.71,300.83c-8-.6-16.58-1.29-25.15-1.87-3.06-.21-6-.55-5.81-4.55s3.49-3,5.84-2.92c11.76.51,23.52,1.16,35.28,1.79,2.63.14,5.16.35,5.21,4,.06,4-2.79,3.46-5.25,3.51C1133.65,300.88,1130.46,300.83,1126.71,300.83Z"/><path d="M1400.76,340c15.71-1.45,29,4,41.14,13,1.45,1.09,2.59,3.07,1.45,5.06a3.66,3.66,0,0,1-5.06,1.39C1426,352.57,1413.18,346.77,1400.76,340Z"/><path d="M791.54,301c-4.31-2-13.25,3.55-13.56-3.22-.38-8.4,8.86-3.79,13.74-4.51,8.52-1.27,17.23-1.39,25.86-1.78,2.35-.1,5.86-1,6.13,2.72s-2.72,4.59-5.89,4.82C809.19,299.6,800.57,300.28,791.54,301Z"/><path d="M517.78,339.89c-.19,2.38-1.74,3.5-3.62,4.18a202.49,202.49,0,0,0-30.53,14c-2.39,1.34-6,2.62-7.63-.6-1.32-2.56,1.35-4.7,3.51-6.15,10.27-6.89,21.74-10.86,33.73-13.46C515.12,337.49,517.17,337.41,517.78,339.89Z"/><path d="M698.88,306.81c-.32,2.37-1.53,3.38-3.77,3.7-12,1.72-23.88,3.55-35.82,5.36-1.77.27-3.18-.15-3.78-1.95-.67-2-.1-4.54,1.59-5a195.46,195.46,0,0,1,39.55-5.59C698.39,303.3,698.82,305.34,698.88,306.81Z"/><path d="M1261.36,315.9c-13.82-2.11-25.51-3.84-37.18-5.72-2.19-.35-4.76-1.2-4.14-4.12a4,4,0,0,1,4.52-2.86q18.51,2.49,37,5.31c2.44.38,4.25,2.14,3.36,4.78A3.85,3.85,0,0,1,1261.36,315.9Z"/><path d="M1287.65,312.52c10.46,2,21.75,4,33,6.31,2.34.49,5.29,1.49,4.36,5.06-.72,2.8-3.12,3-5.38,2.56q-17.36-3.17-34.67-6.57c-2.39-.47-4.19-2.15-3.66-4.74C1281.87,312.17,1284.65,312.92,1287.65,312.52Z"/><path d="M1072.81,289.5c2.71.48,7-1.28,7.31,3.56.25,4.19-3.57,3.74-6.32,3.87-9.6.44-18,3.52-25.15,10.17-2.16,2-5.12,5.54-8,1.8-2.41-3.16,1-5.82,3.2-8C1051.84,293,1061.93,290.49,1072.81,289.5Z"/><path d="M601.32,326.31c-3.09-.58-6.41.8-7-2.82s2.76-4.21,5-4.67c11.19-2.31,22.44-4.37,33.72-6.27,1.83-.31,4.83-1.37,5.39,2,.5,3-1.21,4.86-4.11,5.43C623.06,322.16,611.83,324.29,601.32,326.31Z"/><path d="M1171.49,297.13c7.11.91,16.92,2.19,26.73,3.44,2.59.33,5.56.47,5,4.15-.41,2.57-2.87,3.58-5.15,3.33-11.73-1.3-23.37-3.44-35.23-3.49-2.64,0-4.14-1.83-4-4.41.15-2.32,2.07-3,4.14-3S1166.83,297.13,1171.49,297.13Z"/><path d="M846.35,289.65c11.7.39,21.53,3.76,29.78,11,2.38,2.07,5,5.42,2.7,8.32-2.91,3.7-5.54.08-7.83-1.95a38,38,0,0,0-24.28-9.92c-3.2-.12-7.42.2-7.2-4.14C839.75,288.43,844.2,289.91,846.35,289.65Z"/><path d="M721.83,307.52c-2.45,1.1-4.68.72-4.9-2.25-.16-2.3.66-4.26,3.66-4.64C732,299.19,743.41,297,755,297.08c2.31,0,5.42-1,5.31,3.31-.09,3.41-2,4.16-4.94,4.38C744.19,305.58,733,306.59,721.83,307.52Z"/><path d="M937.61,327.61c-.62-3.75-.13-6.48,4.74-5.18,11.29,3,22.6,2.67,33.93.26,2.15-.46,4.66-1.12,5.88,1.46s-1.13,4-2.18,5.87C965.64,332.92,951.37,334.82,937.61,327.61Z"/><path d="M1023.93,261.11c.41-5.5-.56-12.13-1.63-18.78-.38-2.43-.83-5.42,3.22-5.44,2.86,0,4.79.9,5.31,4.18,1.77,11.18,1.14,22.33-.11,33.5-.26,2.34-1.31,3.27-3.68,3.2-2.73-.08-3-1.9-3.08-3.87C1023.87,270.06,1023.93,266.21,1023.93,261.11Z"/><path d="M926,316.39c-1,5.29-5,5.13-7.84,3.12a57.36,57.36,0,0,1-19.74-23.17c-.72-1.59-.78-3.14.43-4.45a2.59,2.59,0,0,1,4.16.17,173.37,173.37,0,0,0,21.86,21.66C925.49,314.25,925.59,315.43,926,316.39Z"/><path d="M1023.3,292.64a13.52,13.52,0,0,1-2.88,7.62,96.68,96.68,0,0,1-18.09,18.56c-2.2,1.8-5.22,2.47-7,.59-2.3-2.38.35-4.67,2-6.46q9.71-10.68,19.65-21.14c1.26-1.34,2.77-3.13,4.88-1.87C1022.7,290.47,1023,292,1023.3,292.64Z"/><path d="M419,439.65c-1,4-1.77,8-3,11.93-.81,2.56-1.43,6.39-5.32,5.25-3.39-1-1.14-4.24-1.22-6.5,0-.95,0-1.89.05-2.83,2.52-8.87,4.65-17.84,8.54-26.28,1.66-3.6,4.05-6.62,8-4.4,3.68,2.09-.09,5-.88,7.31C423.37,429.39,421.1,434.49,419,439.65Z"/><path d="M1358.34,851.34c10.79-9.06,21.51-15.93,29.9-25.65,1.73-2,4.24-5,7.2-2.19s.15,5.35-1.8,7.32c-10.45,10.55-20.2,22-36,25.07-3.8.74-5.58.52-5.61-3.49-.06-8.66-.09-17.33,0-26,0-2.35,1-4.67,3.86-4.42,2.61.22,2.37,2.74,2.4,4.5C1358.41,834.35,1358.34,842.22,1358.34,851.34Z"/><path d="M1449.07,718.36c-1.65,11.37-6.79,22.83-9.93,34.84-.75,2.9-3,3.1-5.27,2.86-3.44-.36-2.86-3.17-2.32-5.14q4.77-17.53,10-34.94c.64-2.15,2.43-4.21,4.88-4C1449.36,712.35,1449.13,715,1449.07,718.36Z"/><path d="M1430.88,775.74c-.8,4.51-3.23,8.31-5.56,12.09-4.37,7.06-8.9,14-13.49,20.92-1,1.52-2.37,3.41-4.61,2.52s-2.42-3.14-1.49-4.86q9-16.83,18.46-33.44a3.7,3.7,0,0,1,5.06-1.35C1430.93,772.45,1431,774.1,1430.88,775.74Z"/><path d="M1069.73,850.69l29.76,3.28c2.53.28,5.69.25,5.34,3.84-.3,3.15-3.22,3.74-5.86,3.54-10.16-.77-20.33-1.5-30.44-2.7-2.88-.34-8.23,1.43-7.64-4.39C1061.53,848.07,1066.82,851.58,1069.73,850.69Z"/><path d="M1160.19,868.41c-10.9-.27-21.54-2.25-32.18-4.34-3.17-.62-5.87-1.38-5.19-5.2s4-2.64,6.22-2.33c10.72,1.5,21.43,3.14,32.1,5,2.41.42,6.75-.62,6,4C1166.59,869.4,1162.89,868.34,1160.19,868.41Z"/><path d="M1220.84,879.52c-11.59-2.18-22.54-4.15-33.44-6.36-2-.4-5-.88-4.31-3.94.64-2.81,3.16-3.85,6-3.35,7.21,1.27,14.4,2.63,21.6,4,3.44.63,6.87,1.31,10.32,1.9,2.9.5,6,.87,5.85,4.81C1226.62,881.79,1222.14,877.77,1220.84,879.52Z"/><path d="M1034,848.19c2.21.15,4.43.2,6.62.49,2.43.32,2.73,2.21,2.78,4.23,0,2.47-1.43,3.21-3.58,3.33-13,.68-25.95-1.24-38.9-2.1-4.2-.28-3.37-3.72-2.61-6.58l12.57.05,19.19.53Z"/><path d="M1266.26,883.53c-5.74,0-11.48.08-17.21,0-2,0-4.85.55-4.66-3a3.53,3.53,0,0,1,3.82-3.49c12.42,0,24.84.13,37.26.29a2.72,2.72,0,0,1,2.92,3c-.05,2.61-2,3-4,3-6.06.07-12.12,0-18.18,0Z"/><path d="M1310.86,879.54c-2.09-.48-4.48.8-5.11-2-.59-2.62.78-4.41,3.06-5.25,11-4.06,22.08-8.06,33.19-11.89,1.53-.52,4-1.2,4.71,1.47a3.29,3.29,0,0,1-1.79,4A162.24,162.24,0,0,1,1310.86,879.54Z"/><path d="M472,718.36c1.66,11.37,6.8,22.83,9.94,34.84.75,2.9,3,3.1,5.27,2.86,3.43-.36,2.85-3.17,2.32-5.14q-4.77-17.53-10-34.94c-.64-2.15-2.43-4.21-4.88-4C471.7,712.35,471.93,715,472,718.36Z"/><path d="M456.57,652.54c-7.31.34,4.32,28,9.12,41.35.5,1.37,1.48,3,3.55,2.41,1.64-.43,1.61-2,1.41-3.06C468.07,679,460.87,652.34,456.57,652.54Z"/><path d="M1358.43,659.61c0,6.38,0,12.76,0,19.14,0,1.89-.18,3.92-2.94,3.88a3.41,3.41,0,0,1-3.63-3.62c0-13.06.13-26.13.33-39.19a3.27,3.27,0,0,1,3.07-3.16c2.75-.29,3,2,3.09,3.82.13,6.37,0,12.75,0,19.13Z"/><path d="M1358.31,783.85c0,5.73.11,11.46-.07,17.19,0,1.65.63,4.22-2,4.57a3.56,3.56,0,0,1-4-3.24c-1.17-13-.76-26.06,0-39.09a3,3,0,0,1,3.29-2.78c1.94,0,2.64,1.67,2.66,3.31.08,6.68,0,13.36,0,20Z"/><path d="M1358.43,721.54c0,6.08.1,12.17,0,18.25-.05,2.11.1,4.81-3.39,4.52-2.61-.21-2.88-2.24-2.89-4.14-.07-12.18,0-24.35,0-36.53,0-2,.58-4,3-4.1,3.32-.16,3.26,2.54,3.3,4.7C1358.51,710,1358.43,715.77,1358.43,721.54Z"/><path d="M566.28,858.75c-4.29-4.07-6.69-8.48-12.43-5-1.4.86-6-2.88-8.73-5a114.32,114.32,0,0,1-18.7-18c-1.84-2.2-4-5.25-1.59-7.71,3.08-3.12,5.2.8,6.88,2.57,8.59,9,18.55,16.32,29.24,24.77,0-8,0-14.88,0-21.81,0-2.88-.31-6.46,3.76-6.47,3.76,0,3,3.63,3,5.91C567.88,837.84,568.88,847.66,566.28,858.75Z"/><path d="M488.75,779c-1-5.18.58-8.13,6.43-7.35,5.92,10.63,11.94,21.21,17.68,31.94,1.08,2,3.36,4.86.33,6.86-3.69,2.45-5.14-1.44-6.52-3.51C500.53,797.71,494.69,788.31,488.75,779Z"/><path d="M717.57,867.5c4.08-.57,8.15-1.3,12.25-1.64,2.77-.23,6.35-.73,6.63,3.39.23,3.35-3,3.69-5.4,4.2-10.25,2.19-20.82,2.8-30.83,6.15-2.56-1.1-7.37,1.85-7.5-3.37-.11-4.4,4.08-4,7.12-4.68C705.76,870.26,711.66,868.86,717.57,867.5Z"/><path d="M608.12,879.31a141.63,141.63,0,0,1-32.9-13.17c-1.86-1-3.27-2.26-2.2-4.47.83-1.71,2.82-1.77,4.23-1.27,11.43,4.05,22.82,8.23,34.19,12.45a3.62,3.62,0,0,1,2.3,4.69C612.79,880.7,610,878.89,608.12,879.31Z"/><path d="M652,883.62c-5.43,0-10.86,0-16.29,0-1.94,0-4.14-.26-4.1-2.82a3.58,3.58,0,0,1,3.63-3.73q18.18-.15,36.38,0c2.06,0,3.66,1,3.57,3.52-.11,2.75-2.14,2.81-4,2.83-6.39.07-12.78,0-19.17,0Z"/><path d="M567.56,700.37c2.27,13.45-.89,26.87-.24,40.31.07,1.46.29,3.43-2,3.59a3.43,3.43,0,0,1-3.88-3.36c-.45-5.41-.6-10.86-.87-16.29.18-6.64.43-13.28.53-19.92C561.15,700,562.94,698.13,567.56,700.37Z"/><path d="M758.52,869.25c-2.47-1-6,1.6-6.1-3.07-.1-3.5,2-4.37,4.75-4.78,11.72-1.75,23.44-3.53,35.18-5.13,2.54-.34,5.47-.21,5.72,3.41.2,2.87-2,3.79-4.35,4.16C781.84,865.7,770,867.5,758.52,869.25Z"/><path d="M820.51,861.69c-1.91-.63-5.29,1.57-5.74-2.73-.4-3.74,1.55-5.2,5-5.46,10.89-.81,21.77-1.76,32.66-2.44,2.44-.15,5.74-.11,6.11,3.17s-2.64,3.81-5.29,4.08C842.4,859.42,831.56,860.55,820.51,861.69Z"/><path d="M900,847.92c5.43,0,10.86,0,16.29,0,2,0,4,.28,4.06,2.85.07,2.34-1.43,3.34-3.64,3.46-11.8.64-23.6,1.3-35.39,1.9-2.32.12-4.85-.07-4.78-3.17s2.29-4.25,5.24-4.24c6.07,0,12.15,0,18.22,0Z"/><path d="M1464,652.54c7.31.34-4.32,28-9.12,41.35-.5,1.37-1.48,3-3.55,2.41-1.64-.43-1.61-2-1.41-3.06C1452.49,679,1459.69,652.34,1464,652.54Z"/><path d="M563.09,467.25a40.14,40.14,0,1,0,40.12,40.15A40.19,40.19,0,0,0,563.09,467.25Zm0,70.62a30.49,30.49,0,1,1,30.47-30.47A30.5,30.5,0,0,1,563.09,537.87Z"/><path d="M1356.93,467.25a40.14,40.14,0,1,0,40.13,40.15A40.19,40.19,0,0,0,1356.93,467.25Zm0,70.62a30.49,30.49,0,1,1,30.48-30.47A30.51,30.51,0,0,1,1356.93,537.87Z"/><path d="M960,734.06a40.14,40.14,0,1,0,40.12,40.14A40.16,40.16,0,0,0,960,734.06Zm0,70.62a30.49,30.49,0,1,1,30.47-30.48A30.5,30.5,0,0,1,960,804.68Z"/><path d="M1307.44,769.48a40.13,40.13,0,1,1,40.13-40.13A40.18,40.18,0,0,1,1307.44,769.48Zm0-70.61a30.48,30.48,0,1,0,30.48,30.48A30.52,30.52,0,0,0,1307.44,698.87Z"/><path d="M612.57,769.48a40.13,40.13,0,1,1,40.13-40.13A40.18,40.18,0,0,1,612.57,769.48Zm0-70.61a30.48,30.48,0,1,0,30.48,30.48A30.52,30.52,0,0,0,612.57,698.87Z"/><rect class="cls-1" width="1" height="1"/><rect class="cls-1" x="1919" y="1079" width="1" height="1"/><rect class="cls-1" y="1079" width="1" height="1"/><rect class="cls-1" x="1919" width="1" height="1"/></g><g id="Capa_3" data-name="Capa 3"><path class="cls-2" d="M831,610.4l-5.79,20.49-2.81,10-7.31,25.71H804.67L812,640.93l2.81-10,5.78-20.49Z"/><path class="cls-2" d="M895.31,609.19v56.25h-10V629.6l-9.89,7.56-8.19,6.34-8.2-6.34-9.88-7.56v35.84h-10V609.19l10,7.72,18.08,13.9,18.08-13.9Z"/><path class="cls-2" d="M922.63,627.92v38.24h-10V626.87a8,8,0,0,0-6.83-6.83h-2.25v-10h2.17v.08a18.05,18.05,0,0,1,6.83,1.84,17.85,17.85,0,0,1,8.11,8.2A20.59,20.59,0,0,1,922,624a16.88,16.88,0,0,1,.48,4.1Z"/><path class="cls-2" d="M986.52,655.56v10H930.43V649.05a15.92,15.92,0,0,1,1.37-6.51,16.51,16.51,0,0,1,14.62-10.13h24.35a6.56,6.56,0,0,0-.57-13.09H930.59V609.27H970.2a16.54,16.54,0,0,1,16.56,16.56,16,16,0,0,1-1.37,6.5,16.16,16.16,0,0,1-3.37,5,16.71,16.71,0,0,1-11.33,5.06H946.42a6.54,6.54,0,0,0-5.87,6.51v6.51Z"/><path class="cls-2" d="M1046.46,637.4a16.59,16.59,0,0,1-11.89,28.12h-23.06a16.51,16.51,0,0,1-15.27-10.12,17.48,17.48,0,0,1-1.28-6.51,16.51,16.51,0,0,1,4.66-11.57,15.7,15.7,0,0,1-3.46-5.07,17.4,17.4,0,0,1-1.29-6.5,16.56,16.56,0,0,1,4.67-11.58,15.65,15.65,0,0,1,11.57-5.06h23.54a16.66,16.66,0,0,1,11.65,28.21Zm-12.29-4.9a6.56,6.56,0,0,0,.24-13.1H1010.7a6.55,6.55,0,0,0,.16,13.1h23.31Zm.08,23.06a6.63,6.63,0,0,0,6.59-6.59,6.55,6.55,0,0,0-6.19-6.59h-23.54a6.52,6.52,0,0,0-6.19,6.51,6.62,6.62,0,0,0,6.59,6.59h23.06Z"/><path class="cls-2" d="M1110.74,637.4a16.59,16.59,0,0,1-11.89,28.12h-23.06a16.51,16.51,0,0,1-15.27-10.12,17.48,17.48,0,0,1-1.28-6.51,16.55,16.55,0,0,1,4.66-11.57,15.86,15.86,0,0,1-3.46-5.07,17.39,17.39,0,0,1-1.28-6.5,16.59,16.59,0,0,1,4.66-11.58,15.65,15.65,0,0,1,11.57-5.06h23.54a16.66,16.66,0,0,1,11.65,28.21Zm-12.29-4.9a6.56,6.56,0,0,0,.24-13.1H1075a6.55,6.55,0,0,0,.16,13.1h23.3Zm.08,23.06a6.62,6.62,0,0,0,6.59-6.59,6.54,6.54,0,0,0-6.19-6.59h-23.54a6.52,6.52,0,0,0-6.19,6.51,6.62,6.62,0,0,0,6.59,6.59h23.06Z"/><path d="M798.38,450V561H778.55V490.27L759,505.17l-16.18,12.54-16.18-12.54-19.51-14.9V561H687.34V450l19.83,15.22,35.69,27.44,35.69-27.44Z"/><path d="M852.3,486.93v75.51H832.47V484.87A15.8,15.8,0,0,0,819,471.39h-4.44V451.72h4.28v.16a35.55,35.55,0,0,1,13.48,3.65,35.17,35.17,0,0,1,16,16.18,42.26,42.26,0,0,1,2.7,7.45,33.53,33.53,0,0,1,1,8.09Z"/><path d="M978.71,483.6a32.65,32.65,0,0,1-9.2,22.84A32.76,32.76,0,0,1,946,562h-78.2V542.13H946a13.06,13.06,0,0,0,13-13,12.92,12.92,0,0,0-12.21-13h-59V496.29h59a13,13,0,0,0-.63-26H868V450.45h78.2a32.63,32.63,0,0,1,32.67,32.68Z"/><path d="M1103.22,470a34.5,34.5,0,0,1,2.54,12.85v45.52a32.68,32.68,0,0,1-10.47,24.11,34.15,34.15,0,0,1-7.3,5.24,31.42,31.42,0,0,1-14.91,3.65h-69V541.5h69a13.07,13.07,0,0,0,13-13V513a32.67,32.67,0,0,1-12.37,2.53h-46.8a32.75,32.75,0,0,1,.48-65.5h45.52a32.59,32.59,0,0,1,30.14,20Zm-88.67,12.85a13.06,13.06,0,0,0,12.37,13h46.8a13,13,0,0,0-.64-26h-45.52A13.07,13.07,0,0,0,1014.55,482.81Z"/><path d="M1232.48,450V561h-19.82V515.33h-58.53a31.39,31.39,0,0,1-14.91-3.65,32.41,32.41,0,0,1-17.77-29V450h19.83v32.67a13.07,13.07,0,0,0,13,13h58.52V450Z"/></g></g></svg>