<svg xmlns="http://www.w3.org/2000/svg" viewBox="0 0 1920 1080"><defs><style>.cls-1{fill:#f2f2f2;}.cls-2{fill:#010101;}</style></defs><g id="Capa_2" data-name="Capa 2"><g id="Capa_1-2" data-name="Capa 1"><rect class="cls-1" x="1919" y="1079" width="1" height="1"/><rect class="cls-1" width="1" height="1"/><rect class="cls-1" y="1079" width="1" height="1"/><rect class="cls-1" x="1919" width="1" height="1"/></g><g id="Capa_3" data-name="Capa 3"><path class="cls-2" d="M1765.83,541.55c0-12.88-10.83-13.18-10.83-13.18-10.8-1.16-10.82-.74-10.79-11.83,0-15.24,0-30.49,0-45.73-.08-10.44-4.52-15.25-15-15.38-20.24-.26-40.48-.14-60.73-.14-19.83,0-20-.36-20.3-19.86-.21-13.95,1.29-28-1-41.88-4-23.72-17.28-40.85-38.89-50.7-25.83-11.76-52.21-22.34-78.33-33.46-4.1-1.75-8.18-2.38-12.23-.09s-7.4,1.38-10.1-1.71c-3.32-3.76-7.62-5.38-12.12-7q-39.42-14.07-78.75-28.33c-3.61-1.3-6.37-2.38-9.81,1.5-4.63,5.24-9.18,1-11.4-3-3.3-5.94-8.16-8.08-14.21-9.61-76.76-19.53-154.39-34-233.3-41.48-8.31-.78-16.6-1.93-26.06-3.06l-74.74-5.37c-6.71,0-11.43,2.9-13.58,9.53-.79,2.46.84,7.29-3.81,6.42-3.27-.63-1.41-4.73-1.41-7.17,0-10.17.14-10.23-9.65-10.26l-78,0c-5.21.09-11.24-1.87-15.39,1.2s-.69,8.87-1.47,13.39c-.26,1.42.18,3.21-2,3.34-1.89.12-2.15-1.24-2.66-2.82-4.1-12.74-6.11-14.42-19.13-13.5-22.67,1.6-45.31,3.6-68,5.53-43,3.69-85.9,8.9-128.52,16-38.12,6.36-76,14.3-113.49,23.53-13.07,3.21-28.31,2.76-36.64,17.07-1.17,2-6,4.61-7.68,1.59-3.84-6.93-8.46-3.45-12.74-1.95-25.84,9.13-51.6,18.46-77.36,27.76-4,1.44-7.8,3.08-10.89,6.3-2.39,2.49-5.7,5-9.26,2.64-5.22-3.43-10.08-1.87-14.94.18-26,11-52.14,21.43-77.71,33.22-20.42,9.43-33.61,25.71-37.65,48.24-2.88,16.06-1.29,32.4-1.66,48.6-.3,13.13-1.92,15-15.28,15.11-21,.15-42,0-63,.16-13.45.08-16.91,3.43-17.86,16.57-.1,1.39.78,3.81-.75,4l-47.44.46c-4-.15-5.21,1.43-5.15,5.24.2,15,.09,30,.3,45,.05,2.36-1.6,6,2.6,6.73,3.72.63,6.69-.39,8.43-4.41,1.59-3.73,17.58-6.61,20.76-4.12,1.25,1,.63,2.21.59,3.37q-.48,12.35-.95,24.69c.09,26.71.74,53.43,0,80.11-.35,13.56,3.18,24.37,13.83,32.9,3.45,2.78,6.2,6.44,9.26,9.7,7,7.42,15.64,9.4,25.72,9.27,30.44-.45,60.9-.09,91.36-.21,6.84,0,12.27,1.92,15.41,8.33,6.63,13.62,13.38,27.2,18.81,41.38,9.8,20.78,19.78,41.47,29.29,62.39,3.69,8.14,8.57,15.57,12.64,23.46,15.18,19.79,33.63,35.25,57.45,43.66A112.72,112.72,0,0,0,497,870.7q27.71.13,55.39,0c11.89,0,16.18-4.29,16.67-16.08a33.23,33.23,0,0,1,.12-3.74c.3-1.84-.42-4.67,1.8-5.16,3-.68,2.58,2.58,2.85,4.17.62,3.59,2.69,4.14,5.82,4.13,26.7-.09,53.4-.06,80.1-.11,3.33,0,6.63,0,6.43-5-.12-3.34,2.33-3.2,4.76-2.86,9.72,1.37,18.59-1.23,27.47-5.16a293.86,293.86,0,0,1,47.25-16.16c4.68-1.18,7.53-1.69,6.6,5-.73,5.31.2,10.85,8.12,9.6a612.91,612.91,0,0,1,111-21.3c19.81-3.33,39.82-4.41,59.85-5.29,13.13-.33,26.26-.61,39.39-1l13.11,0a834.45,834.45,0,0,1,164.72,16.87,13.58,13.58,0,0,1,2.65,1.12c12.65,1.67,24.82,5.32,37.1,8.56,9.73,2.58,11.77,1.36,11.59-8.78-.1-5.76,1.7-5.9,6.5-4.58,16.83,4.65,33.43,9.95,49.44,17a49.17,49.17,0,0,0,21,4.53c4.06-.07,9.22-2.16,9.22,5.42,0,2.3,3.12,2,5,2q40.85,0,81.7,0c2.47,0,5.13.13,5.55-3.47.24-1.95-.53-5.25,3-4.64,2.6.48,1.41,3.35,1.47,5.15.54,16.82,3.62,19.85,20.47,19.84h54.73a92.84,92.84,0,0,0,35.55-7.51,120.42,120.42,0,0,0,52.39-38.45c7.07-8.84,12.06-18.85,16.77-29,14.87-32.07,30-64,44.36-96.29,4.8-10.81,11.21-15.83,23.33-15.12,15.92.91,31.91.42,47.88.52,13.91-.09,27.8-.39,41.71-.21,8.72.11,16-2.53,22-8.86,4.46-4.68,8.94-9.35,13.7-13.7,6.14-5.61,10.11-12.11,10.2-20.63-.07-1.49-.22-3-.22-4.47C1765.61,637,1765.83,554.44,1765.83,541.55ZM1521.2,329.48c-4.59-1.89-9.39-3.25-14-5.2-2-.86-5.28-.39-5.76-5.19,7.76,2.55,14.76,4.78,22.13,1.26,1.32-.63,3.78.79,5.6,1.56,24.3,10.29,48.62,20.52,72.86,31,20.79,9,35,30.54,33.8,51.4-14.78-6.72-29.36-13.52-44.07-20-30.92-13.67-62-27-93.85-38.44-3.81-1.37-5.17-2.75-3.49-7,4.74-12,4.56-12.07,16.7-7.32,2.55,1,5.13,1.87,7.66,2.91,2.12.85,4.76,2,6-.39C1526.22,331.21,1523.12,330.26,1521.2,329.48Zm-487.32-80.94c3,.13,6,0,9,0v0a58.43,58.43,0,0,0,7.49-.06c2.13-.28,5.91,1.5,5.82-2.47-.09-4.54-4-2.42-6.38-2.49-5.73-.15-11.49,0-17.22-.18-1.59,0-4.08.16-4-2.15,0-2.7,2.61-1.71,4.09-1.7,7.52.06,10.92-4.09,11.45-11,.33-4.43,2.16-5.76,6.69-5.42,45,3.46,90,7.25,134.89,12.82,63.92,7.92,126.92,20.33,189.35,36,4.82,1.22,8.66,2,10.87,7.25,1.65,3.95,5.86,6.32,10.2,6.87,5.58.72,5,3.24,3.1,7.07a152,152,0,0,0-7.2,16.41c-1.51,4.37-3.93,4.33-7.47,3.12-37.8-12.85-76.49-22.23-115.59-30.08a1298.83,1298.83,0,0,0-147.39-20.78c-29.15-2.45-58.3-4-87.53-4.4-3.5,0-5.79-.36-5.66-4.68C1028.45,248.49,1030.88,248.4,1033.88,248.54Zm349.78,76.83c-4.19,4-8.85,3.78-13.88,2.07-40.39-13.69-81.7-23.85-123.56-31.85C1180,282.94,1113.1,275.36,1045.6,274c-5.31-.11-10.64-.09-14.06-5.18-.94-1.39-2.55-2.79-1.83-4.6.87-2.21,3-1,4.61-1.05,6.73,0,13.47,0,21.21,0,35.64,1.71,72.16,4.57,108.6,8.77a1292.44,1292.44,0,0,1,141.13,24.49c26,5.94,51.5,13.35,76.85,21.37,1.72.54,4.4.42,4.73,2.89C1387.13,322.87,1385.1,324,1383.66,325.37ZM554.6,286.53c5.79-1.14,9.76-4.85,12.76-9.65a9.73,9.73,0,0,1,6.51-4.44c66.83-16.43,134.15-30,202.6-37.87,40.92-4.73,81.92-8,122.94-11.47,5.24-.45,8.08.11,8.57,6.58.47,6.24,4.56,10.39,11.79,9.72,1.63-.15,4-.42,3.86,2.16-.12,2.39-2.41,2.09-4.1,2.07-6-.07-12-.31-18-.3-2.33,0-5.73-.69-5.72,3s3.35,2,5.25,2.14c3,.26,6,.06,9,.06s6,.17,9-.06c3.59-.27,4.8,1.1,4.79,4.71s-1.76,4-4.66,4.07c-15.72.4-31.46.64-47.15,1.48-103.22,5.53-204.53,22-303.21,53.19-6.26,2-8.42.45-10.25-5a154.37,154.37,0,0,0-6.4-15.09C550.85,288.87,551.24,287.17,554.6,286.53Zm365-16.67c-3,3.18-6.76,3.91-10.88,4a1092,1092,0,0,0-109.05,7.42c-71.95,8.26-142.75,22-211.8,44.14-4,1.29-8.11,2.38-11.23,3.3-4.17-.23-6.84-1.44-9-3.66-3.6-3.68-3.46-5.79,2.06-7.53,60.9-19.24,123.11-32.76,186.26-41.69C809.33,268.27,863,263.48,917,263.08c1.83,0,4.34-1.2,5.34,1.15C923.42,266.75,921.08,268.25,919.6,269.86ZM345,355.64C371.25,343,398.47,332.43,425.28,321c.9-.38,2.12-.9,2.87-.59,7.29,3.08,14.54,1.74,22,.09-2.8,3.86-7.15,4.55-11.13,5.6a39.47,39.47,0,0,0-10.38,4.06c-1.49.87-3.35,2.05-2.52,4.07s3,1.26,4.53.75c5.91-1.95,11.84-3.87,17.58-6.23,3.69-1.5,5.25-.76,6.45,3.1,4.52,14.53,6.94,11-7.06,16.36-43.78,16.76-86.95,34.89-129.07,55.49a25.3,25.3,0,0,1-3.54,1C317.25,383,325.44,365,345,355.64ZM190,488.12c0-3.45-.27-6.06,4.84-5.89,12.46.4,24.94.33,37.41,0,4.78-.12,6.42,1.07,6.27,6.15-.39,12.95-.12,25.92-.12,38.88,0,12.71.09,25.43-.11,38.14,0,2.36,2,6-1.87,7-3.68.94-5.09-2.51-6.56-5q-10.62-18-21-36.13c-3.65-6.38-7.13-12.82-15.9-12.71-1.8,0-2.64-1-2.78-2.76-.22-2.57,1.59-2.84,3.35-2.9,5.71-.19,11.44-.3,17.18-.36,5.53-.06,8.22-2.91,8.29-8.33s-1.33-10.15-7.8-10.63a108.59,108.59,0,0,0-16.43-.15C190.29,493.74,190,491.6,190,488.12ZM244.29,487c0-3.45.87-4.78,4.57-4.77q37.42.27,74.86.11c4,0,5,1.54,4.95,5.32-.21,13.46-.09,26.94-.09,40.41h-.14c0,13.22-.12,26.44.08,39.66.06,3.78-.8,5.1-4.94,5.1-24.93,0-49.87.16-74.82.49-3.8.06-4.52-1.32-4.5-4.75Q244.44,527.82,244.29,487Zm36.22,92.28v-.15c14.22,0,28.46,0,42.68,0,2.34,0,5.27-.66,5.39,3.29s-2.84,3.36-5.18,3.36q-41.94.06-83.9.06c-2.81,0-5.85.28-5.72-3.86s3.29-2.72,5.54-2.72C253.05,579.3,266.78,579.32,280.51,579.32ZM193.32,507c-2.69-.06-3-1.92-3.15-4.09-.12-2.48.78-3.77,3.34-3.77,5,0,10,0,15,0,3,0,4.55,1.32,4.76,4.44.27,4-2.57,3.53-5,3.62-2.24.09-4.48,0-6.73,0V507C198.79,507,196.05,507.09,193.32,507Zm-13.27,11.45c-6.39,1-13.53-2.37-20.07,5.18,0-13.94,0-25.87,0-37.78,0-3.12,1.54-3.63,4.2-3.56,5.5.15,11-.12,16.49.15,2.22.11,6.21-1.89,5.91,3-.21,3.4,1.11,7.52-4.62,8.61-7.32,1.4-10,6.63-7.85,13.67,1,3.39,3.53,4.56,6.75,4.91,2.52.27,6.45-.86,6.26,3.25C186.83,520.82,182.5,518.09,180.05,518.46Zm6.9-15.68c-.27,2.22-.25,4.77-3.49,4.47-2.16-.21-4.74-.49-4.37-3.69.32-2.7,1.59-4.68,4.77-4.48C186.58,498.88,187.24,500.43,187,502.78Zm6.23,26c-2,.27-3.57-.35-3.39-2.56.24-2.59,2.6-1.38,3.72-1.84,2.12.27,4.94-.29,4.62,2.35C197.89,528.83,195.06,528.5,193.18,528.76ZM571.06,834.09c-13,.38-14.36,9-13.8,19.13.16,2.82-.09,5.7-4.17,5.55-25.65-.9-51.56,3.08-76.88-2.83-35.73-8.36-60.52-30.25-75.33-63.65-2.41-5.45-4.9-10.88-7.3-16.36-.57-1.27-1.8-2.86-.11-4s2.58.63,3.5,1.77c2.77,3.51,5.46,7.12,8.43,10.45,1.23,1.39,3.14,3.1,5.12,1.23,1.72-1.62.06-3.21-.86-4.61-4.5-6.86-9.24-13.56-13.49-20.58-1.74-2.89-3.61-2.92-6.19-2-.63,3.51,1.26,6.2,2.91,9,.7,1.22,1.92,2.78-.06,3.75-1.38.66-2.19-.67-2.7-1.84-1.59-3.62-4.26-6.77-4.61-10.9-1.08-2.35-2.16-4.72-3.26-7.08a55.36,55.36,0,0,1-7.21-15.41c-6.47-13.73-13.52-27.23-19.24-41.27-6.54-16.12-17.82-22.49-35-22.1-29.2.67-58.44.09-87.65.33a20.32,20.32,0,0,1-15.38-6.08c-19.57-18.86-19.64-18.77-19.66-46.26,0-24.47-.06-48.94,0-73.41,0-2.54-1.12-5.87,2.81-6.76a6.92,6.92,0,0,1,7.79,3.23c6.37,10.68,12.67,21.41,18.65,32.32,1.09,2,1,5,.61,7.34-1.27,7.62,2.16,9.09,9.12,9,21.47-.31,42.95,0,64.42.15,10.72-.1,21.45-.07,32.17-.34,14.56-.38,21.33-7.31,21.68-21.85.07-3.22.22-6.46.34-9.71q-.18-29.21-.37-58.42c-.11-19-6.56-25.39-25.87-25.39-34.23,0-68.46.05-102.69-.15-2.67,0-7.47,2.76-7.68-3.65s4.35-5.43,8.19-5.43c21,0,42,.08,63,0,17.62-.07,25-7.56,25.06-25.11,0-8.5.05-17,0-25.48,0-2.63.17-4.86,3-6.18,19.82-9.22,39.62-18.52,60.21-28.17.72,6.46-2.36,11.08-2.33,16.15,0,2.47-.63,5-.43,7.44.16,2-.45,5.37,2.43,5.4,2.62,0,2.5-3.1,2.85-5.29,4.13-26.1,4.1-26.17,28.45-36.18,14.51-6,29.06-11.81,43.75-17.3,2.52-1,6.06-4.68,8.52-.67s2.94,9.13-.34,13.39c-2.33,3-5.82,4.61-9.32,6-9.68,4-19.4,7.89-29,12-20.65,8.81-31.7,24.22-31.76,47q-.18,61-.26,122.13c0,1.74-.27,3.47-.42,5.21q1,44.7,0,89.38c.19,17.67,1,35.36.39,53a76.43,76.43,0,0,0,9.72,39.95c9.15,16.87,17.81,34,26.66,51,.78,1.5,2.18,2.8,1.47,4.77H429c.73,0,1.14.38.88,1.19a.66.66,0,0,1-.63.25c-.58-.31-.69-.72-.48-1.14-2.32,2.52-5.92-4.67-7.2.24-1.2,4.59,4,5.72,6.65,8,9.15,7.62,19.82,10.83,31.64,10.47,2.27-.07,4.7-.25,4.07,3.41-.29,1.69.81,2.65,2.52,3.06a182.15,182.15,0,0,0,25.67,4.69c2.25.21,5.15.39,5.36-2.53.25-3.48-2.94-3.39-5.4-3.56-7.33-.52-14.62-1.17-21.57-4.71h86.34a32.08,32.08,0,0,1,6,.26c2.6.52,6.51,1,6.23,4.06-.3,3.35-4.11,1-6.28,1.67-1.65.51-4.59-1.25-4.68,1.89-.07,2.5,2.45,2.74,4.49,2.86,2.73.17,5.49.15,8.22.42,2.52.24,3,2.22,3.26,4.32A3,3,0,0,1,571.06,834.09ZM334.75,554.28c-.06-22.19,0-44.37-.29-66.56-.06-5.94,2.48-6.26,6.8-4.11,5.4,2.67,8.23,7.05,8.2,13.1q-.1,29.91-.3,59.8c.07,5.21.19,10.4.16,15.59a12,12,0,0,1-3.89,9.34c-2.78,2.44-5.85,5.82-9.65,4-2.86-1.35-1.15-5.36-1.18-8.16C334.49,569.64,334.67,562,334.75,554.28ZM1285,832.65c-1.73,4.23-6.63,1.65-10.09,1.83-6.15.32-11.68-2.35-17.18-4.7-18.62-7.95-37.67-14.52-57.58-18.39-9.74-1.89-14,0-12.2,9.47.84,4.36-1.28,4.92-5.21,3.87-65.55-17.53-132.41-24.58-200.11-24.53L962.81,800c-8.48,0-17,.08-25.45.14l-69.05,5.52c-30.82,4.53-61.59,9.24-91.83,16.94a37.7,37.7,0,0,0-6.48,1.74c-5.44,2.49-6.82.7-6.57-4.92.38-8.48-1.47-9.68-10.31-7.93a276.1,276.1,0,0,0-52.81,16c-9.18,3.85-18.19,8-28.67,7.39-5-.27-6-2.13-5.44-6.38,1.08-8.21,5.32-13.92,12.56-13.16,30.12,3.14,57.14-9.23,85.29-15.86a1000.48,1000.48,0,0,1,104.37-18.57,53.85,53.85,0,0,1,6-.15c19.89-2.76,39.85-4.73,60-4.48,33.64-3,67.32-1.69,100.9.33a849.84,849.84,0,0,1,154.34,23.56c7.24,1.8,14.58,3.44,21.59,6,19.47,7,39.34,10.73,60.09,9a11.67,11.67,0,0,1,10.62,4.3C1285.16,823.39,1286.84,828.21,1285,832.65ZM1361,821a1.83,1.83,0,0,0-2.28,2.16,2.42,2.42,0,0,0,2.27,2.49c2.71.28,5.43.52,8.16.78,3.87-.24,3.74,1.36,1.77,3.84-.13,1-.27,2-.4,2.93-.32,4.57,3,8.76,1.45,13.47.17,1-.19,1.44-1.24,1.17-24.6.07-49.19.06-73.78.34-4.76.06-6.2-1.66-5.67-6.06.36-3,.39-5.94.55-8.89-1.48-18.91-7.14-25.08-26.43-23.85-22.22,1.41-42.07-6.84-62.68-12.22-63.21-16.55-127.55-25.09-192.74-28-41.11-1.59-75.59-.12-75.59-.12l-49.17,4.13c-5.94.49-11.91.91-17.87,1.38-29.78,4.29-59.48,9.15-89,15.09q-32.73,8.57-65.21,17.92c-12.27,3.54-25.14,1.09-38.78,1.62,2.89-3.57,6.55-2.93,9.24-4.35,1.92-1,2.62-2.21,2.05-4.11s-2.14-1.89-3.66-1.41c-9.24,2.91-18.57,5.61-27.39,9.72-1.44.66-2.74,1.62-1.86,3.39.64,1.37,2.05,1,3.3.78,4.11-.54,9.72-4.73,11.68-2,2.33,3.23-4.75,5.66-5.73,9.87a77.7,77.7,0,0,0-1.54,20.83c.18,4.62-.77,6.42-6,6.34q-34.1-.5-68.19,0c-6,.09-7.58-1.89-6.56-7.32a15.54,15.54,0,0,0,.22-5.95c-1.5-7.27,1.34-9.92,8.53-9.1,2.26.26,5.88.27,5.34-3.36-.44-2.94-3.83-1.84-5.72-1.6-5.92.75-10.46-.35-14-5.85-2.64-4.1-7.49-5.65-12.44-5.78-4.25-.14-8.54-.51-12.74-.06-5.49.6-7.5-.81-7-6.81.66-7.42.18-15,0-22.43-.06-2,.74-5.29-2.74-5-3.3.22-2.24,3.44-2.3,5.42-.19,7.74-.33,15.5-.1,23.22.12,4-.66,5.75-5.25,5.69-22-.27-44,0-66-.29-14.09-.19-25-6.37-31.61-19.1-10.91-21-21.64-42.11-32.41-63.19-2.28-4.49-4-9.25-4-14.29-.14-21.72-.09-43.44-.11-65.15-.67-30-.79-60,.06-89.93,0-44-.6-87.93.24-131.87.33-17.15,11.15-29,26.53-36,10.4-4.79,21.16-8.77,31.68-13.31,12.87-5.57,16.53-13,11.71-26.26-4.29-11.9-6.93-24.43-12.87-35.72-2-3.86-1.71-5.78,3.06-7.46,26.05-9.18,52-18.76,77.84-28.39,3.5-1.31,4.64-.5,5.93,2.79,4.56,11.64,4.68,11.57-7.52,15.14-4.54,1.32-9.08,2.66-13.56,4.16-1.37.45-3,1.32-2.46,3.16s2.19,2,3.7,1.73c2.7-.44,5.55-.63,8-1.71,6.8-3,7.47.24,7.08,5.91s0,11.49-.06,17.24c0,2,.66,3.72,2.67,3.87,2.63.22,2.28-2.21,2.34-3.78.24-6.48.24-13,.5-19.46.12-3-1.5-6.93,3.15-8s5,3,6.18,5.82c2.33,5.5,4.34,11.15,6.75,16.61,5.15,11.6,13.25,15.35,25.45,11.31a909.81,909.81,0,0,1,99.42-26.86,1232.18,1232.18,0,0,1,129.9-20.37q47.74-4.8,95.67-5.94c13-.32,20.83-8.32,21.07-21.34q.33-18.36-.11-36.72c-.1-4.59.65-6.64,6-6.42h80.63c5.48-.26,6.53,1.66,6.44,6.78-.23,11.46-.92,22.9-.51,34.4.58,16.13,7.11,23,23.35,23.41,104.15,2.79,206.47,17.41,306.28,47.94,6.18,1.89,12.24,4.17,18.45,5.91,9.3,2.58,17.5-1,21.8-9.75,3.29-6.69,5.84-13.73,8.82-20.57.92-2.1,1.15-5,4.87-4.38s3.07,3.1,3.07,5.56c0,7-.09,14,.09,21,.06,2.11.09,5.1,3.11,5.17,3.82.09,2.08-3.3,2.19-5a99.57,99.57,0,0,0,.12-16.47c-.78-7.22,2-7.92,7.89-5.76,2.75,1,5.85,1.15,8.82,1.41,1.47.13,3.29-.48,3.59-2,.34-1.82-1.56-2.54-2.88-2.9-6.95-1.93-13.91-3.85-20.95-5.42-4.27-.94-5.17-2.49-3.36-6.67,4.74-10.87,4.52-10.87,15.71-6.8,23.15,8.4,46.29,16.84,69.55,24.92,5.58,1.94,6.48,3.92,4.09,9.56a372.44,372.44,0,0,0-13.23,36.46c-3.53,11.45.82,19.31,11.84,24,11.23,4.74,22.59,9.21,33.65,14.33,16.76,7.77,25.78,21.41,25.84,39.67q.45,138.27.12,276.56a49.76,49.76,0,0,1-5.79,23c-10,19.25-19.91,38.56-29.92,57.81-5.78,11.12-13.36,19.94-27.17,20.41-12.85,2.26-25.83.93-38.73,1.21-11.22.24-22.45-.09-33.65.2-4.3.1-5.66-1.31-5.51-5.52.3-8.22.22-16.45.13-24.67,0-1.73.9-4.43-2.29-4.53-3-.09-2.73,2.35-2.78,4.28-.19,8.22-.6,16.44-.33,24.65.15,4.75-1.51,5.8-6,5.79-7.36-.05-15.68-2.39-21.64,3.13S1369.83,822.67,1361,821Zm392.39-177.61c-.31,7.23-23.24,29.07-30.52,29.1-18.92.09-37.84-.15-56.76-.27-13.21.16-26.45.57-39.68.4-13.91-.16-23,6.29-28.72,18.7q-23.34,50.91-47,101.66c-20.12,43.13-53.94,65.3-101.67,65.8-16,.16-32-.17-48,.18-5.38.12-6.67-1.68-6.58-6.83.24-12.69-1.19-14.73-10.19-18-6.9-.42-7-.62-4.62-7.21.55,0,1.11-.1,1.68-.16l2.87.24,8.67-1c2.31-3.46,3.18-6.16-2.76-5.47-1.73.21-3.47.37-5.21.42-1,0-2.22-.06-2.16-1.37a3.32,3.32,0,0,1,1.24-2.41,13.72,13.72,0,0,1,7.07-2c29.37,0,58.74,0,89.58,0-4.19,3.31-8.07,2.62-11.6,3.13-3.69.54-7.4,1-11.07,1.59-2.14.35-4.93.35-4.49,3.63.39,2.81,2.93,2.22,4.79,2.21,10-.05,19.56-3.2,29.37-4.71,1.76-7,7.19-7.47,13-7.38,12.23.16,20.27-8.5,29.63-14.32a3,3,0,0,0,.68-4.1c-1-1.66-2.57-.9-3.92-.13a8.88,8.88,0,0,1-5.49,1.47q9.71-18.66,19.38-37.3c.81-1.56,1.56-3.15,2.51-4.61,14.45-22.41,18.38-46.81,18-73.41-1.09-81.94-.39-163.89-.4-245.85,0-27.65-10.35-43.07-35.83-53.64-9.44-3.9-18.8-8-28.25-11.82-4.53-1.84-7.58-4.86-8.38-9.71-1.41-8.49,1.65-11,9.55-7.89,19.67,7.8,39.26,15.74,59,23.44,4.46,1.74,7.36,3.85,8.71,9,1.69,6.49,3.6,12.91,5,19.5.54,2.59.37,7.44,4.18,6.78,3.45-.6,2.31-4.85,1.77-7.73-1.23-6.51-2.55-13-4.14-21,16.57,7.58,31.51,15.63,47.31,21.28,13.51,4.81,19,12.3,16.54,26.4-.92,5.33-.32,11,.18,16.46,1.23,13.49,9.1,20.68,22.68,20.74,21.74.12,43.48.27,65.23-.14,6.31-.1,8.05,1.85,7.92,8-.35,15.72-.11,31.47,0,47.21.09,13.87,2.83,16.81,16.32,17.23,3.27.1,5.12.55,5.07,4.44-.27,25-.37,49.92-.54,74.89C1753.42,627,1753.77,635.2,1753.42,643.37Z"/><path class="cls-1" d="M1555,430.06c-.06-18.26-9.08-31.9-25.84-39.67-11.06-5.12-22.42-9.59-33.65-14.33-11-4.67-15.37-12.53-11.84-24a372.44,372.44,0,0,1,13.23-36.46c2.39-5.64,1.49-7.62-4.09-9.56-23.26-8.08-46.4-16.52-69.55-24.92-11.19-4.07-11-4.07-15.71,6.8-1.81,4.18-.91,5.73,3.36,6.67,7,1.57,14,3.49,20.95,5.42,1.32.36,3.22,1.08,2.88,2.9-.3,1.56-2.12,2.17-3.59,2-3-.26-6.07-.39-8.82-1.41-5.88-2.16-8.67-1.46-7.89,5.76a99.57,99.57,0,0,1-.12,16.47c-.11,1.74,1.63,5.13-2.19,5-3-.07-3-3.06-3.11-5.17-.18-7-.12-14-.09-21,0-2.46.72-5-3.07-5.56s-3.95,2.28-4.87,4.38c-3,6.84-5.53,13.88-8.82,20.57-4.3,8.78-12.5,12.33-21.8,9.75-6.21-1.74-12.27-4-18.45-5.91-99.81-30.53-202.13-45.15-306.28-47.94-16.24-.45-22.77-7.28-23.35-23.41-.41-11.5.28-22.94.51-34.4.09-5.12-1-7-6.44-6.78H935.71c-5.34-.22-6.09,1.83-6,6.42q.45,18.34.11,36.72c-.24,13-8.1,21-21.07,21.34q-47.94,1.22-95.67,5.94a1232.18,1232.18,0,0,0-129.9,20.37A909.81,909.81,0,0,0,583.77,333c-12.2,4-20.3.29-25.45-11.31-2.41-5.46-4.42-11.11-6.75-16.61-1.18-2.79-1.45-6.93-6.18-5.82s-3,5-3.15,8c-.26,6.48-.26,13-.5,19.46-.06,1.57.29,4-2.34,3.78-2-.15-2.68-1.91-2.67-3.87,0-5.75-.31-11.52.06-17.24s-.28-8.94-7.08-5.91c-2.45,1.08-5.3,1.27-8,1.71-1.51.24-3.22,0-3.7-1.73s1.09-2.71,2.46-3.16c4.48-1.5,9-2.84,13.56-4.16,12.2-3.57,12.08-3.5,7.52-15.14-1.29-3.29-2.43-4.1-5.93-2.79-25.88,9.63-51.79,19.21-77.84,28.39-4.77,1.68-5.09,3.6-3.06,7.46,5.94,11.29,8.58,23.82,12.87,35.72,4.82,13.29,1.16,20.69-11.71,26.26-10.52,4.54-21.28,8.52-31.68,13.31-15.38,7.06-26.2,18.89-26.53,36-.84,43.94-.25,87.91-.24,131.87-.85,30-.73,60-.06,89.93,0,21.71,0,43.43.11,65.15,0,5,1.74,9.8,4,14.29,10.77,21.08,21.5,42.19,32.41,63.19,6.59,12.73,17.52,18.91,31.61,19.1,22,.29,44,0,66,.29,4.59.06,5.37-1.7,5.25-5.69-.23-7.72-.09-15.48.1-23.22.06-2-1-5.2,2.3-5.42,3.48-.26,2.68,3.08,2.74,5,.23,7.47.71,15,0,22.43-.54,6,1.47,7.41,7,6.81,4.2-.45,8.49-.08,12.74.06,4.95.13,9.8,1.68,12.44,5.78,3.58,5.5,8.12,6.6,14,5.85,1.89-.24,5.28-1.34,5.72,1.6.54,3.63-3.08,3.62-5.34,3.36-7.19-.82-10,1.83-8.53,9.1a15.54,15.54,0,0,1-.22,5.95c-1,5.43.6,7.41,6.56,7.32q34.1-.51,68.19,0c5.25.08,6.2-1.72,6-6.34A77.7,77.7,0,0,1,662,821.05c1-4.21,8.06-6.64,5.73-9.87-2-2.72-7.57,1.47-11.68,2-1.25.17-2.66.59-3.3-.78-.88-1.77.42-2.73,1.86-3.39,8.82-4.11,18.15-6.81,27.39-9.72,1.52-.48,3.09-.48,3.66,1.41s-.13,3.09-2.05,4.11c-2.69,1.42-6.35.78-9.24,4.35,13.64-.53,26.51,1.92,38.78-1.62q32.48-9.39,65.21-17.92c29.51-5.94,59.21-10.8,89-15.09,6-.47,11.93-.89,17.87-1.38L934.42,769s34.48-1.47,75.59.12c65.19,2.9,129.53,11.44,192.74,28,20.61,5.38,40.46,13.63,62.68,12.22,19.29-1.23,25,4.94,26.43,23.85-.16,2.95-.19,5.94-.55,8.89-.53,4.4.91,6.12,5.67,6.06,24.59-.28,49.18-.27,73.78-.34,1,.27,1.41-.17,1.24-1.17,1.55-4.71-1.77-8.9-1.45-13.47.13-1,.27-1.95.4-2.93,2-2.48,2.1-4.08-1.77-3.84-2.73-.26-5.45-.5-8.16-.78a2.42,2.42,0,0,1-2.27-2.49A1.83,1.83,0,0,1,1361,821c8.8,1.69,14.39-3,20.41-8.62s14.28-3.18,21.64-3.13c4.47,0,6.13-1,6-5.79-.27-8.21.14-16.43.33-24.65,0-1.93-.22-4.37,2.78-4.28,3.19.1,2.28,2.8,2.29,4.53.09,8.22.17,16.45-.13,24.67-.15,4.21,1.21,5.62,5.51,5.52,11.2-.29,22.43,0,33.65-.2,12.9-.28,25.88,1.05,38.73-1.21,13.81-.47,21.39-9.29,27.17-20.41,10-19.25,19.91-38.56,29.92-57.81a49.76,49.76,0,0,0,5.79-23Q1555.21,568.33,1555,430.06ZM503.66,309.77c-3,2.86-7.14,3.24-10.86,4.46-5.39,1.75-10.86,3.27-16.34,4.74-1.53.4-3.59,1.27-4.17-1.38a3.25,3.25,0,0,1,2.19-4.18c9.15-2.91,18.35-5.71,26.78-8.32,2,.46,3.72-.27,3.81,1.48A4.7,4.7,0,0,1,503.66,309.77Zm33,146.45c0-4.21,0-8.43,0-12.63,0-1.89.18-3.67,2.36-4,2.4-.36,2.77,1.52,2.86,3.33.41,9.41.93,18.82,0,28.22-.13,1.37,0,3.31-2.05,3.35s-3-1.43-3-3.42c0-4.95,0-9.9,0-14.86Zm5.21-33.72c-.15,1.54-.32,2.94-2.42,2.95-2.49,0-2.76-1.66-2.77-3.49,0-4.72,0-9.44,0-14.15h.13c0-4.71,0-9.43,0-14.15,0-1.61.42-3.05,2.37-3.14s2.36,1.38,2.49,3A164.38,164.38,0,0,1,541.91,422.5ZM536.66,360h.24c0-4.74-.06-9.48,0-14.21,0-1.63.79-2.91,2.71-2.74,1.62.12,1.89,1.42,2,2.67a163.72,163.72,0,0,1,.29,29.12c-.12,1.55-.45,3-2.55,2.91-2.45-.07-2.73-1.68-2.73-3.55Zm.19,143.83c0-4.48,0-9,0-13.46,0-1.56.27-3.18,2.14-3.4,2.57-.32,2.6,1.74,2.76,3.46A178.74,178.74,0,0,1,542,518.1c-.11,1.65,0,3.66-2.69,3.57-2.49-.09-2.65-1.78-2.65-3.61q0-7.11,0-14.23Zm0,34.45c0-1.75,0-3.72,2.4-3.81s2.4,2,2.52,3.66c.37,5.4.7,10.79,1,16.19a80.91,80.91,0,0,1-.72,9.49c-.38,2,1.27,5.74-2.85,5.4-3.71-.32-2.16-3.75-2.48-5.93-.34-2.4-.31-4.86-.46-7.31Zm2,45c2.29-.3,2.79,1.52,3,3.36a150,150,0,0,1,.06,28.9c-.16,1.46-.28,3.18-2.37,3.06a2.71,2.71,0,0,1-2.62-3c-.08-5,0-9.9,0-14.84,0-4.46,0-8.91,0-13.37C536.87,585.68,536.51,583.55,538.88,583.25Zm.81,179.08c-2.55,0-3-2.13-3-4.27V744c0-4.21,0-8.42,0-12.64,0-1.93.36-3.66,2.47-3.9,2.39-.25,2.73,1.68,2.75,3.5.06,9.15.15,18.32,0,27.47C541.91,759.9,542.21,762.34,539.69,762.33Zm2.23-52.26c-.12,1.39.06,3.09-2.14,3.21s-3-1.13-3-3.18c0-4.72,0-9.43,0-14.15h.11c0-4.71,0-9.43,0-14.14,0-1.51.15-3.13,2.1-3.36,2.55-.31,2.64,1.61,2.81,3.38A162.41,162.41,0,0,1,541.92,710.07Zm0-47.24c-.14,1.62-.6,2.91-2.64,2.78s-2.45-1.22-2.48-2.94c-.09-4.22-.27-8.42-.42-12.64.17-4.2.15-8.41.57-12.58.23-2.39-1.51-6.44,2.64-6.49,3.56,0,2.12,3.82,2.39,6,.55,4.41.66,8.88.94,13.32C542.55,654.45,542.22,658.63,541.88,662.83ZM636.48,821c-6.69,2.44-13.14,6-21.26,4.89-2.78-.92-9.08,2.56-9.06-3.08,0-4.36,5.74-1.5,8.8-1.72,6.83-.5,12.95-3.09,19.26-5.25,2-.71,4.72-1.74,5.88.7C641.49,819.45,638.42,820.24,636.48,821Zm92.79-29.07c-8.78,2.49-17.59,4.84-25.57,7-2.49-.51-4.8.66-5.3-1.76-.45-2.18,1.53-2.73,3.23-3.29,8.7-2.79,17.36-5.74,26.39-7.35,1.64-.28,3.83-.7,4.52,1.4C733.39,790.47,731.1,791.36,729.27,791.88Zm47.65-11.34c-8.87,2-17.71,4.23-26.62,6-1.87.38-5.16,1.34-5.86-1.41-.86-3.33,2.55-3.9,4.83-4.36,8.76-1.85,17.58-3.44,26.39-5.11C780.46,776.17,779.83,778.07,776.92,780.54Zm45.21-8.22c-7.94,1.95-15.91,3.82-24.13,4.24a30.76,30.76,0,0,1-3.71.21c-1.47-.07-3.21-.13-3.52-2-.38-2.25,1.2-3,3.12-3.27,9.08-1.39,18.14-2.86,27.22-4.15,1.51-.21,3.91-1,4.53,1C826.37,770.85,824,771.87,822.13,772.32Zm45.18-5.13c-7.49-.38-14.71,1.5-22,2.55-2.46.36-5.58.93-6.26-2.16-.81-3.69,2.6-3.32,5-3.71,9-1.47,18-3.31,27.18-3.66C876.16,766,870,765.61,867.31,767.19Zm51.07-6-25.93,2.95c-2.64,0-5.19.48-5.61-2.08-.43-2.77,1.71-3.73,4.26-3.94,8.9-.78,17.78-1.66,26.69-2.43,1.77-.16,3.8.06,4,2.27C921.91,760,920.33,761,918.38,761.22Zm46.62-1q-15.29.36-30.55.77c-1-4.9,1.57-5.81,5.82-6l25.7-.48c1.58-.3,2.79.51,2.85,2.5C968.9,759.79,967.22,760.2,965,760.24Zm47.25.9c-2.46,0-4.94.11-7.42.17-6.42-.24-12.82-.65-19.25-.62-2.11,0-3.12-.49-3.46-2.48-.35-4.09,2.16-4.42,5.22-3.85l25.37.73c1.92.2,4.11-.31,4.11,2.81C1016.82,761.31,1014.57,761.13,1012.25,761.14Zm48.86,3c-8.61-.81-17.22-1.78-25.83-2.68-2.27-.24-4.88-.36-4.44-3.58.52-3.78,3.51-1.41,5.32-1.6,2.18-.23,4.43.27,6.65.45a1.81,1.81,0,0,1,0-.23c6.17.56,12.33,1.13,18.51,1.64,2.51.21,4.63,1.23,4.46,3.89C1065.63,764.85,1062.94,764.28,1061.11,764.11Zm47.66,5.91c-9.32-1.44-18.62-2.89-27.88-4.62-1.64-.31-4.44-.79-3.89-3.54s3.24-1.33,5.15-1.86c8.94,1.32,18,2.76,27.11,4,2.43.33,3.83,1.44,3.83,3.65C1113.1,770.58,1110.66,770.32,1108.77,770Zm51.81,5.21c-.36,2-2.52,2-4.31,1.84a142.5,142.5,0,0,1-26.21-4.92c-1.89-.52-4.34-1-3.74-3.61.54-2.33,3-1.41,4.38-1.13,8.66,1.77,17.62,1.68,26.16,4.25C1158.88,772.27,1161,772.81,1160.58,775.23Zm46.66,10.25c-.64,2.52-2.64,1.75-4.25,1.39q-13.07-3-26.12-6.06c-1.95-.45-4.39-1-3.6-3.65.63-2,3-.93,5.34-1.15,8.06,1.65,16.84,3.42,25.58,5.28C1206.34,781.74,1207.9,783,1207.24,785.48Zm45.54,12.12c-.71,1.73-2.61.81-5.16,1.25-7.81-2.13-16.67-4.48-25.48-7-1.62-.47-3.36-1.34-2.93-3.66s2.22-2.45,4-2.1c9.45,1.81,18.47,5.1,27.56,8.14C1252.4,794.78,1253.41,796,1252.78,797.6Zm42.88,15.62c-9.63-3.05-19.28-6.11-28.88-9.27-1.31-.42-2.93-1.13-2.31-3.17a2.53,2.53,0,0,1,3-1.54c10.77,1.9,20.81,6.06,30.82,10.29.51.21.66,1.24.94,1.8C1298.59,813.19,1297.3,813.73,1295.66,813.22Zm47.23,12.41c-2.44.31-4.93.39-7.39.57-7.54.82-14.06-2.58-20.81-4.94-2.19-.76-4.33-2.16-3.14-4.89,1-2.37,3.54-1.69,5.27-1,8.34,3.29,16.61,6.62,25.88,5.45,1.18-.15,2.58,0,2.67,1.74A2.67,2.67,0,0,1,1342.89,825.63ZM1409.53,345c.16-1.77,1.15-2.74,2.92-2.56,2.12.21,1.92,1.95,1.94,3.39,0,5,0,9.95,0,14.91,0,4.73.08,9.46,0,14.18,0,1.32.53,3.35-1.5,3.6a3.12,3.12,0,0,1-3.6-3A192,192,0,0,1,1409.53,345Zm.06,47.45c.21-1.58,1.2-2.9,2.92-2.76,2.07.15,1.83,2,1.86,3.42.08,5,0,9.92,0,14.88h0c0,4.71,0,9.42,0,14.14,0,1.65.33,3.72-2.46,3.52-1.74-.12-2.82-1-2.86-2.76C1408.78,412.77,1408.28,402.61,1409.59,392.49Zm3.07,130a3,3,0,0,1-3.25-2.51,149.76,149.76,0,0,1,.37-32c.18-1.45,1.56-1.81,2.88-1.62,1.64.24,1.71,1.59,1.71,2.84,0,5.22,0,10.44,0,15.66,0,4.73.07,9.44,0,14.17C1414.33,520.41,1414.87,522.41,1412.66,522.53Zm1.67-51c0,1.31.64,3.26-1.67,3.46a2.66,2.66,0,0,1-3.16-2.47,143.91,143.91,0,0,1,.34-32.07c.2-1.5,1.52-1.83,2.85-1.68,1.77.19,1.67,1.62,1.68,2.82.05,5.23,0,10.47,0,15.72h0C1414.37,462,1414.43,466.77,1414.33,471.51Zm0,286.61c-.07,1.62,1.26,4.52-1.87,4.66s-3.23-2.67-3.32-4.85c-.31-7.4-.46-14.79-.67-22.19.16-.47.3-1,.49-1.4,1.17-2.55-1.32-7.74,3.56-7.36,3.72.27,1.06,5,2.38,7.42C1414.75,742.31,1414.67,750.22,1414.34,758.12Zm.11-62.35c0,4.72,0,9.43,0,14.15,0,1.63.42,3.76-2.34,3.69-1.71-.05-2.87-.89-2.94-2.67-.41-10.18-.78-20.33.42-30.48.19-1.59,1.14-2.94,2.85-2.91,2.1,0,1.93,1.94,1.95,3.33.07,5,0,9.92,0,14.89Zm-.11-32.94c-.1,1.29.6,3.27-1.47,3.56a3,3,0,0,1-3.48-3c-.39-4.39-.58-8.79-.85-13.19.3-5.46.61-10.9.88-16.35.11-2,.62-3.47,3-3.29,2.11.18,2,1.86,2,3.3.18,6.47.3,12.94.45,19.41C1414.73,656.46,1414.63,659.65,1414.34,662.83Zm0-47.08c0,1.35.33,3.26-2,3.14a2.87,2.87,0,0,1-2.88-2.84,199.06,199.06,0,0,1,.17-30.5c.1-1.68,1-2.85,2.77-2.82,2.21,0,2,1.81,2,3.21.06,5.22,0,10.42,0,15.65h-.09C1414.36,606.31,1414.4,611,1414.33,615.75Zm.09-50.2c-.14,1.69.93,4.45-2.42,4.27-2.7-.16-2.71-2.49-2.86-4.44-.29-3.68-.47-7.37-.69-11.06.31-5.64.58-11.3,1-16.94.12-1.81.78-3.67,2.85-3.73,2.67-.09,2,2.32,2.11,3.82.3,5.66.42,11.33.6,17C1414.81,558.15,1414.73,561.85,1414.42,565.55Zm65.79-247.77c-.72,2.93-3.31,1.64-5,1.16-8.39-2.34-16.71-4.89-25.07-7.36-2.34-.69-4.32-1.95-3.62-4.66.6-2.27,2.88-1.32,5-1.59,8.15,2.67,16.69,5.38,25.17,8.3C1478.49,314.26,1480.8,315.35,1480.21,317.78Z"/><path class="cls-2" d="M968.82,757c.08,2.81-1.6,3.22-3.82,3.26q-15.29.36-30.55.77c-1-4.9,1.57-5.81,5.82-6l25.7-.48C967.55,754.18,968.76,755,968.82,757Z"/><path class="cls-2" d="M1016.82,757.9c0,3.41-2.25,3.23-4.57,3.24s-4.94.11-7.42.17c-6.42-.24-12.82-.65-19.25-.62-2.11,0-3.12-.49-3.46-2.48-.35-4.09,2.16-4.42,5.22-3.85l25.37.73C1014.63,755.29,1016.82,754.78,1016.82,757.9Z"/><path class="cls-2" d="M1414.37,375c0,1.32.53,3.35-1.5,3.6a3.12,3.12,0,0,1-3.6-3,192,192,0,0,1,.26-30.52c.16-1.77,1.15-2.74,2.92-2.56,2.12.21,1.92,1.95,1.94,3.39,0,5,0,9.95,0,14.91C1414.42,365.51,1414.48,370.24,1414.37,375Z"/><path class="cls-2" d="M1414.33,471.51c0,1.31.64,3.26-1.67,3.46a2.66,2.66,0,0,1-3.16-2.47,143.91,143.91,0,0,1,.34-32.07c.2-1.5,1.52-1.83,2.85-1.68,1.77.19,1.67,1.62,1.68,2.82.05,5.23,0,10.47,0,15.72h0C1414.37,462,1414.43,466.77,1414.33,471.51Z"/><path class="cls-2" d="M1414.42,709.92c0,1.63.42,3.76-2.34,3.69-1.71-.05-2.87-.89-2.94-2.67-.41-10.18-.78-20.33.42-30.48.19-1.59,1.14-2.94,2.85-2.91,2.1,0,1.93,1.94,1.95,3.33.07,5,0,9.92,0,14.89h.06C1414.45,700.49,1414.49,705.2,1414.42,709.92Z"/><path class="cls-2" d="M1414.36,519.11c0,1.3.51,3.3-1.7,3.42a3,3,0,0,1-3.25-2.51,149.76,149.76,0,0,1,.37-32c.18-1.45,1.56-1.81,2.88-1.62,1.64.24,1.71,1.59,1.71,2.84,0,5.22,0,10.44,0,15.66C1414.4,509.67,1414.46,514.38,1414.36,519.11Z"/><path class="cls-2" d="M1414.43,422.17c0,1.65.33,3.72-2.46,3.52-1.74-.12-2.82-1-2.86-2.76-.33-10.16-.83-20.32.48-30.44.21-1.58,1.2-2.9,2.92-2.76,2.07.15,1.83,2,1.86,3.42.08,5,0,9.92,0,14.88h0C1414.45,412.74,1414.49,417.45,1414.43,422.17Z"/><path class="cls-2" d="M541.86,471.15c-.13,1.37,0,3.31-2.05,3.35s-3-1.43-3-3.42c0-4.95,0-9.9,0-14.86h-.06c0-4.21,0-8.43,0-12.63,0-1.89.18-3.67,2.36-4,2.4-.36,2.77,1.52,2.86,3.33C542.3,452.34,542.82,461.75,541.86,471.15Z"/><path class="cls-2" d="M1412,569.82c-2.7-.16-2.71-2.49-2.86-4.44-.29-3.68-.47-7.37-.69-11.06.31-5.64.58-11.3,1-16.94.12-1.81.78-3.67,2.85-3.73,2.67-.09,2,2.32,2.11,3.82.3,5.66.42,11.33.6,17-.16,3.69-.24,7.39-.55,11.09C1414.28,567.24,1415.35,570,1412,569.82Z"/><path class="cls-2" d="M1414.34,758.12c-.07,1.62,1.26,4.52-1.87,4.66s-3.23-2.67-3.32-4.85c-.31-7.4-.46-14.79-.67-22.19.16-.47.3-1,.49-1.4,1.17-2.55-1.32-7.74,3.56-7.36,3.72.27,1.06,5,2.38,7.42C1414.75,742.31,1414.67,750.22,1414.34,758.12Z"/><path class="cls-2" d="M541.94,374.84c-.12,1.55-.45,3-2.55,2.91-2.45-.07-2.73-1.68-2.73-3.55V360h.24c0-4.74-.06-9.48,0-14.21,0-1.63.79-2.91,2.71-2.74,1.62.12,1.89,1.42,2,2.67A163.72,163.72,0,0,1,541.94,374.84Z"/><path class="cls-2" d="M541.91,422.5c-.15,1.54-.32,2.94-2.42,2.95-2.49,0-2.76-1.66-2.77-3.49,0-4.72,0-9.44,0-14.15h.13c0-4.71,0-9.43,0-14.15,0-1.61.42-3.05,2.37-3.14s2.36,1.38,2.49,3A164.38,164.38,0,0,1,541.91,422.5Z"/><path class="cls-2" d="M542,518.1c-.11,1.65,0,3.66-2.69,3.57-2.49-.09-2.65-1.78-2.65-3.61q0-7.11,0-14.23h.21c0-4.48,0-9,0-13.46,0-1.56.27-3.18,2.14-3.4,2.57-.32,2.6,1.74,2.76,3.46A178.74,178.74,0,0,1,542,518.1Z"/><path class="cls-2" d="M539.24,569.21c-3.71-.32-2.16-3.75-2.48-5.93-.34-2.4-.31-4.86-.46-7.31l.54-17.69c0-1.75,0-3.72,2.4-3.81s2.4,2,2.52,3.66c.37,5.4.7,10.79,1,16.19a80.91,80.91,0,0,1-.72,9.49C541.71,565.77,543.36,569.55,539.24,569.21Z"/><path class="cls-2" d="M867.31,767.19c-7.49-.38-14.71,1.5-22,2.55-2.46.36-5.58.93-6.26-2.16-.81-3.69,2.6-3.32,5-3.71,9-1.47,18-3.31,27.18-3.66C876.16,766,870,765.61,867.31,767.19Z"/><path class="cls-2" d="M1480.21,317.78c-.72,2.93-3.31,1.64-5,1.16-8.39-2.34-16.71-4.89-25.07-7.36-2.34-.69-4.32-1.95-3.62-4.66.6-2.27,2.88-1.32,5-1.59,8.15,2.67,16.69,5.38,25.17,8.3C1478.49,314.26,1480.8,315.35,1480.21,317.78Z"/><path class="cls-2" d="M505.07,306.57a4.7,4.7,0,0,1-1.41,3.2c-3,2.86-7.14,3.24-10.86,4.46-5.39,1.75-10.86,3.27-16.34,4.74-1.53.4-3.59,1.27-4.17-1.38a3.25,3.25,0,0,1,2.19-4.18c9.15-2.91,18.35-5.71,26.78-8.32C503.24,305.55,505,304.82,505.07,306.57Z"/><path class="cls-2" d="M921.76,758c.15,2-1.43,3-3.38,3.23l-25.93,2.95c-2.64,0-5.19.48-5.61-2.08-.43-2.77,1.71-3.73,4.26-3.94,8.9-.78,17.78-1.66,26.69-2.43C919.56,755.56,921.59,755.78,921.76,758Z"/><path class="cls-2" d="M1412.87,666.39a3,3,0,0,1-3.48-3c-.39-4.39-.58-8.79-.85-13.19.3-5.46.61-10.9.88-16.35.11-2,.62-3.47,3-3.29,2.11.18,2,1.86,2,3.3.18,6.47.3,12.94.45,19.41-.18,3.18-.28,6.37-.57,9.55C1414.24,664.12,1414.94,666.1,1412.87,666.39Z"/><path class="cls-2" d="M541.92,758.38c0,1.52.29,4-2.23,4s-3-2.13-3-4.27V744c0-4.21,0-8.42,0-12.64,0-1.93.36-3.66,2.47-3.9,2.39-.25,2.73,1.68,2.75,3.5C541.94,740.06,542,749.23,541.92,758.38Z"/><path class="cls-2" d="M541.92,710.07c-.12,1.39.06,3.09-2.14,3.21s-3-1.13-3-3.18c0-4.72,0-9.43,0-14.15h.11c0-4.71,0-9.43,0-14.14,0-1.51.15-3.13,2.1-3.36,2.55-.31,2.64,1.61,2.81,3.38A162.41,162.41,0,0,1,541.92,710.07Z"/><path class="cls-2" d="M542.88,650.24c-.33,4.21-.66,8.39-1,12.59-.14,1.62-.6,2.91-2.64,2.78s-2.45-1.22-2.48-2.94c-.09-4.22-.27-8.42-.42-12.64.17-4.2.15-8.41.57-12.58.23-2.39-1.51-6.44,2.64-6.49,3.56,0,2.12,3.82,2.39,6C542.49,641.33,542.6,645.8,542.88,650.24Z"/><path class="cls-2" d="M729.27,791.88c-8.78,2.49-17.59,4.84-25.57,7-2.49-.51-4.8.66-5.3-1.76-.45-2.18,1.53-2.73,3.23-3.29,8.7-2.79,17.36-5.74,26.39-7.35,1.64-.28,3.83-.7,4.52,1.4C733.39,790.47,731.1,791.36,729.27,791.88Z"/><path class="cls-2" d="M636.48,821c-6.69,2.44-13.14,6-21.26,4.89-2.78-.92-9.08,2.56-9.06-3.08,0-4.36,5.74-1.5,8.8-1.72,6.83-.5,12.95-3.09,19.26-5.25,2-.71,4.72-1.74,5.88.7C641.49,819.45,638.42,820.24,636.48,821Z"/><path class="cls-2" d="M776.92,780.54c-8.87,2-17.71,4.23-26.62,6-1.87.38-5.16,1.34-5.86-1.41-.86-3.33,2.55-3.9,4.83-4.36,8.76-1.85,17.58-3.44,26.39-5.11C780.46,776.17,779.83,778.07,776.92,780.54Z"/><path class="cls-2" d="M541.89,615.51c-.16,1.46-.28,3.18-2.37,3.06a2.71,2.71,0,0,1-2.62-3c-.08-5,0-9.9,0-14.84,0-4.46,0-8.91,0-13.37,0-1.68-.34-3.81,2-4.11s2.79,1.52,3,3.36A150,150,0,0,1,541.89,615.51Z"/><path class="cls-2" d="M822.13,772.32c-7.94,1.95-15.91,3.82-24.13,4.24a30.76,30.76,0,0,1-3.71.21c-1.47-.07-3.21-.13-3.52-2-.38-2.25,1.2-3,3.12-3.27,9.08-1.39,18.14-2.86,27.22-4.15,1.51-.21,3.91-1,4.53,1C826.37,770.85,824,771.87,822.13,772.32Z"/><path class="cls-2" d="M1113.09,767.61c0,3-2.43,2.71-4.32,2.41-9.32-1.44-18.62-2.89-27.88-4.62-1.64-.31-4.44-.79-3.89-3.54s3.24-1.33,5.15-1.86c8.94,1.32,18,2.76,27.11,4C1111.69,764.29,1113.09,765.4,1113.09,767.61Z"/><path class="cls-2" d="M1065.81,762c-.18,2.85-2.87,2.28-4.7,2.11-8.61-.81-17.22-1.78-25.83-2.68-2.27-.24-4.88-.36-4.44-3.58.52-3.78,3.51-1.41,5.32-1.6,2.18-.23,4.43.27,6.65.45a1.81,1.81,0,0,1,0-.23c6.17.56,12.33,1.13,18.51,1.64C1063.86,758.32,1066,759.34,1065.81,762Z"/><path class="cls-2" d="M1252.78,797.6c-.71,1.73-2.61.81-5.16,1.25-7.81-2.13-16.67-4.48-25.48-7-1.62-.47-3.36-1.34-2.93-3.66s2.22-2.45,4-2.1c9.45,1.81,18.47,5.1,27.56,8.14C1252.4,794.78,1253.41,796,1252.78,797.6Z"/><path class="cls-2" d="M1299.26,811.33c-.67,1.86-2,2.4-3.6,1.89-9.63-3.05-19.28-6.11-28.88-9.27-1.31-.42-2.93-1.13-2.31-3.17a2.53,2.53,0,0,1,3-1.54c10.77,1.9,20.81,6.06,30.82,10.29C1298.83,809.74,1299,810.77,1299.26,811.33Z"/><path class="cls-2" d="M1160.58,775.23c-.36,2-2.52,2-4.31,1.84a142.5,142.5,0,0,1-26.21-4.92c-1.89-.52-4.34-1-3.74-3.61.54-2.33,3-1.41,4.38-1.13,8.66,1.77,17.62,1.68,26.16,4.25C1158.88,772.27,1161,772.81,1160.58,775.23Z"/><path class="cls-2" d="M1345.37,822.54a2.67,2.67,0,0,1-2.48,3.09c-2.44.31-4.93.39-7.39.57-7.54.82-14.06-2.58-20.81-4.94-2.19-.76-4.33-2.16-3.14-4.89,1-2.37,3.54-1.69,5.27-1,8.34,3.29,16.61,6.62,25.88,5.45C1343.88,820.65,1345.28,820.78,1345.37,822.54Z"/><path class="cls-2" d="M1207.24,785.48c-.64,2.52-2.64,1.75-4.25,1.39q-13.07-3-26.12-6.06c-1.95-.45-4.39-1-3.6-3.65.63-2,3-.93,5.34-1.15,8.06,1.65,16.84,3.42,25.58,5.28C1206.34,781.74,1207.9,783,1207.24,785.48Z"/><path class="cls-2" d="M1714.56,585.36c-5.45,5-11.83,6.63-19.2,6.56-25.46-.26-50.93,0-76.4-.13-15.32,0-21.6-6.35-22.18-21.8-.18-4.71-.44-9.42-.66-14.13.21-18.21.49-36.43.61-54.64.12-18.42,6.23-24.72,24.71-24.78,24.48-.09,49-.14,73.45,0,17.95.11,24,6.54,24,24.6q.06,33.72.3,67.44C1719.27,574.59,1718.76,580.47,1714.56,585.36Zm-6-3.85c3.16-3.61,4.3-8,4.31-12.6,0-24,.1-48,0-71.93-.06-9.2-5.17-14.44-14.44-14.5q-40.85-.27-81.7,0c-8.68.07-13.63,4.82-13.77,13.37-.34,20.47-.75,41,.28,61.41-.1,5-.47,10-.23,14.93.44,9.24,4.77,13.48,14.25,13.53,27.22.15,54.45.06,81.68.07C1702.76,585.83,1706.35,585.22,1708.56,581.51Z"/><path class="cls-2" d="M1576,718.71c-.8,8.58-2.28,16.86-6.16,24.51-.84,1.66-1.84,4.1-4.35,2.85-2-1-1-3.18-.59-4.72,2.2-7.63,4.62-15.2,5.2-23.19.19-2.54,0-5.65,3.49-5.33C1577.27,713.17,1575.49,716.67,1576,718.71Z"/><path class="cls-2" d="M1576.05,555.42l-4-.21q-.09-14.85-.17-29.71c0-2.23-.18-5.11,2.67-5.3,3.24-.21,2.83,2.87,2.76,4.94C1576.93,535.24,1579,545.44,1576.05,555.42Z"/><path class="cls-2" d="M1571.76,569.3c3.85-2.25,5.86-1.5,5.73,3.32-.07,2.89.22,5.78.35,8.68-.19,5.72-.33,11.44-.58,17.16-.08,1.68,0,4-2.18,4.18-2.53.18-3.17-2.15-3.2-4.19C1571.77,588.74,1571.79,579,1571.76,569.3Z"/><path class="cls-2" d="M1560.39,757c-1,11.85-7.43,20.59-15.83,28.12-.93.82-2.7,1.83-3.92.2a2.86,2.86,0,0,1-.12-2.7C1547.37,774.33,1553.31,765.33,1560.39,757Z"/><path class="cls-2" d="M1571.91,489.51c0-4.46,0-8.92,0-13.38,0-1.87.48-3.63,2.74-3.54,1.74.08,2.49,1.57,2.5,3.15,0,9.42.09,18.83-.07,28.24,0,1.51-.18,3.93-2.68,3.63-2-.24-2.54-2.17-2.56-4-.06-4.71,0-9.42,0-14.13Z"/><path class="cls-2" d="M1577.18,441c0,5,0,9.94,0,14.92,0,1.25-.58,2.63-1.94,2.84a2.66,2.66,0,0,1-3-2.66c-.24-9.69-.29-19.39-.29-29.09a2.47,2.47,0,0,1,2.89-2.62,2.89,2.89,0,0,1,2.5,3.17c0,4.48,0,9,0,13.44Z"/><path class="cls-2" d="M1577.38,681.12c0,4.48.11,9-.05,13.45-.07,1.88-.09,4.54-2.62,4.63s-2.9-2.39-2.91-4.4c0-9,0-17.93.06-26.9,0-1.93.74-3.72,2.72-3.79,2.79-.09,2.72,2.32,2.75,4.31,0,4.23,0,8.47,0,12.7Z"/><path class="cls-2" d="M1577.78,634c-.27,5-.48,9.91-.85,14.86-.09,1.18-.54,2.59-2,2.71a2.6,2.6,0,0,1-2.88-2.73q-.15-14.9,0-29.8a2.38,2.38,0,0,1,2.87-2.56c1.67.28,2.31,1.76,2.33,3.35,0,4.72,0,9.44,0,14.16Z"/><path class="cls-2" d="M384,746.27l-5.15-10.77c-1.08-5.88-2.33-11.74-3.17-17.66-.24-1.74-.26-4.36,2.42-4.73,2.86-.4,2.81,2,3.27,4,1.86,7.73,3.9,15.41,5.69,23.15C387.64,742.88,389.57,746.59,384,746.27Z"/><path class="cls-2" d="M380.77,681.38c0,4.71,0,9.42,0,14.13,0,1.54-.57,3.16-2.24,3.33-1.86.2-2.5-1.6-2.67-3-1.18-9.89-.64-19.79.16-29.67a2.15,2.15,0,0,1,2.46-2.2c1.64.3,2.36,1.66,2.37,3.27,0,4.72,0,9.43,0,14.14Z"/><path class="cls-2" d="M375.56,650c0-9.43-.06-18.86,0-28.29,0-2.07-.56-5.16,2.67-5,3,.11,2.56,3.11,2.61,5.26.18,6.45.28,12.9.41,19.35-.12,2.39.16,4.88-.45,7.13C380.07,651.17,378.52,653.53,375.56,650Z"/><path class="cls-2" d="M528,825.8c-4.73,0-9.46,0-14.19,0-1.94,0-3.57-.79-3.48-2.95.09-2,1.95-2,3.39-2,9-.14,17.93-.26,26.9-.29,1.92,0,4.33-.17,4.28,2.81,0,2.79-2,2.86-4.2,2.78-4.23-.15-8.47,0-12.7,0Z"/><path class="cls-2" d="M380.82,490.5c0,4.47.07,8.94,0,13.4,0,1.72-.36,3.72-2.67,3.71-2,0-2.08-1.95-2.24-3.3-1.16-9.66-.43-19.32.05-29,.06-1.29.56-2.54,2.07-2.57,1.8,0,2.68,1.26,2.71,2.86.09,5,0,9.92,0,14.88Z"/><path class="cls-2" d="M380.79,553.92c-3.48,3.54-4.09.12-5.18-2.13,0-8.65,0-17.31.15-25.95.05-2.18-1-5.83,2.77-5.6,2.7.16,2.37,3.3,2.36,5.48C380.88,535.12,380.83,544.52,380.79,553.92Z"/><path class="cls-2" d="M380.84,441.14c0,4.46,0,8.92,0,13.38,0,1.77-.18,3.92-2.22,4.18-2.84.36-3-2.46-3.06-4.16-.21-8.91-.11-17.83-.13-26.75,0-2.13,1-3.37,3.11-3.16,1.62.17,2.46,1.34,2.44,3.12-.06,4.46,0,8.93,0,13.39Z"/><path class="cls-2" d="M758.64,254.38c-4.15.1-6.5.18-6.69-2.45-.18-2.44,1.89-3.13,4-3.5,8.53-1.5,17-3.14,25.58-4.55,1.74-.29,4.33-1.34,4.88,1.58.47,2.49-1.85,3.53-3.68,3.93C774.05,251.33,765.31,253,758.64,254.38Z"/><path class="cls-2" d="M662.31,271.2c-2.63.9-3.62.45-4-1-.52-1.88-.24-3.46,1.89-4.16,9.48-3.1,19.3-4.36,29.15-5.47,1.47-.17,2.29.71,2.25,2.23-.05,1.84-.38,3.31-2.71,3.7C679.59,268.06,670.34,269.77,662.31,271.2Z"/><path class="cls-2" d="M709,262.07c-2-.33-4,.52-4.34-1.59s1.36-2.77,3.14-3.33c9.31-2.95,19-3.92,28.57-5.22,1.73-.23,2.93.27,3,2.24.1,2.15-1,3.05-3.1,3.38C727,259,717.71,260.62,709,262.07Z"/><path class="cls-2" d="M816.44,248.59c-4.72,0-9.45,0-14.17,0-1.51,0-3.08-.11-3-2.27.06-1.75,1-2.85,2.73-2.85q14.53-.08,29.07,0a2.46,2.46,0,0,1,2.73,2.77c-.07,2.06-1.67,2.23-3.17,2.25-4.73.05-9.45,0-14.18,0Z"/><path class="cls-2" d="M614.93,281.58c-1.95-.36-3.8.58-4.37-1.48s.69-3.43,2.52-3.89c9.17-2.29,18.37-4.48,27.57-6.64,1.51-.35,3.11-.27,3.16,1.91,0,1.85-.4,3.44-2.58,3.95C632.28,277.5,623.33,279.61,614.93,281.58Z"/><path class="cls-2" d="M593.5,280.93c1.66.28,3.61-.68,4.18,1.12s-1.34,2.68-2.6,3.09a168.84,168.84,0,0,1-26.66,6.78c-1.57.23-3.85.72-4.23-1.71-.28-1.75,1.4-2.36,2.87-2.83C575.81,284.56,584.63,282,593.5,280.93Z"/><path class="cls-2" d="M866,243.41c4.46,0,8.92-.09,13.37.05,1.62.06,3.79.15,3.47,2.72-.21,1.77-1.68,2.27-3.3,2.27q-14.12.06-28.24.08c-1.84,0-3.65-.42-3.48-2.78.13-1.9,1.83-2.18,3.31-2.2,5-.07,9.91,0,14.87,0Z"/><path class="cls-2" d="M1264.1,260.72c9.12,1.32,18.27,2.47,27.07,5.41,2.12.71,4.06,1.7,3.68,3.94-.46,2.71-2.8,2.08-4.83,1.67-8.78-1.8-17.56-3.54-26.34-5.29-2.1-.42-4.18-1.33-3.85-3.72C1260.11,260.64,1262.31,260.67,1264.1,260.72Z"/><path class="cls-2" d="M1193.81,254.35c-7.64-1.42-15.66-2.83-23.64-4.43-2.13-.43-4.87-1.31-4.29-4.06.63-2.93,3.55-2.18,5.64-1.82,7.79,1.32,15.53,2.89,23.32,4.23,2.55.44,5.46.68,4.91,4.06C1199.24,255.44,1196.26,254.14,1193.81,254.35Z"/><path class="cls-2" d="M1242.34,262l-27.17-4.45c-1.48-.24-3.19-.42-2.84-2.51a3.09,3.09,0,0,1,3.27-2.54c10.55,0,20.63,2.86,30.75,5.37a1.8,1.8,0,0,1,1.21,2.37C1246.76,262.44,1244.81,262,1242.34,262Z"/><path class="cls-2" d="M1086.83,248.49c-4.73,0-9.47,0-14.21,0-1.22,0-2.6-.11-2.87-1.7a2.5,2.5,0,0,1,2.39-3.13c10.2-1,20.41-.35,30.61.1a2,2,0,0,1,1.83,2.69,2.7,2.7,0,0,1-2.79,2h-15Z"/><path class="cls-2" d="M1336.62,281.74c-8.56-2.14-17.5-4.31-26.38-6.69-1.59-.42-3.4-1.58-3-3.74.47-2.44,2.63-2.05,4.23-1.69,8.75,1.93,17.48,4,26.19,6.09,1.73.42,3.36,1.34,3.31,3.5C1340.91,282,1338.63,281.11,1336.62,281.74Z"/><path class="cls-2" d="M1382,292.17c-7.39-2-16.41-4.38-25.41-6.91a2.41,2.41,0,0,1-1.93-2.76c.34-1.76,1.88-1.3,3-1.27,9.51.28,18.35,3.55,27.31,6.28,1.53.46,2.78,1.39,2.44,3.15C1387,292.8,1385.12,292,1382,292.17Z"/><path class="cls-2" d="M1134.31,248.54c-4.49,0-9,0-13.47,0-1.72,0-3.8.13-3.71-2.46.07-1.84,1.57-2.52,3.14-2.52q14.6,0,29.19.18a2.41,2.41,0,0,1,2.64,2.12c.15,1.91-1.17,2.59-2.82,2.61-5,.05-10,0-15,0Z"/><path class="cls-2" d="M380.74,585.73c0,4.71.06,9.42,0,14.13,0,1.56-.8,2.92-2.69,2.82-1.53-.07-2.12-1.42-2.26-2.57-1.13-9.87-.48-19.78-.16-29.67a2.5,2.5,0,0,1,3.19-2.3c1.63.36,2.16,1.83,2.16,3.46,0,4.71,0,9.42,0,14.13Z"/><path class="cls-2" d="M301.38,534.48c0,4.74.31,9.51-.06,14.22-.84,10.43-8.15,17.33-18.64,17.71-6,.21-12,.16-18-.08C257,566,250.2,560.55,248.9,553c-2-11.84-1.79-23.86-.4-35.73,1-8.18,6.81-13.11,15-14.29a90.21,90.21,0,0,1,20.18-.28c11.09.89,17.54,7.9,17.86,19.06.13,4.24,0,8.49,0,12.73Zm-13.26.5H288c0-3.24.05-6.47,0-9.71-.08-5.3-3.38-8.15-8-9.55-7.58-2.31-16.18.58-18.45,5.91-2.95,6.93-.57,27.22,3.5,29.84.21.14.4.3.62.42,11.44,6.09,22.32-.3,22.41-13.17C288.13,537.47,288.12,536.23,288.12,535ZM254,542.45c-1,4.92-.67,10.14,3.9,14.84,5.21,5.35,10.41,4,16.21,1.91,1.8-.66,3.82.41,5.74,1.06,7.37,2.48,15.24-4,15.29-12.39C276.05,566.23,260.11,563.8,254,542.45Zm27.69-33.33c9.81,4.72,13.86,12.53,13,23.16C298,516,292.88,508.39,281.7,509.12Zm-13.12-.31c-10.46-.37-15.15,4.48-14.78,15C256.9,516.74,261.91,512.6,268.58,508.81Z"/><path class="cls-2" d="M1561.24,363.36c0,.21,0,1.12-.41,1.51a2.36,2.36,0,0,1-3.33-.32Q1547.17,353.89,1537,343a1.75,1.75,0,0,1,0-2.64,4.12,4.12,0,0,1,2.74-.58C1544.16,340.45,1560.71,358.28,1561.24,363.36Z"/><path class="cls-2" d="M393.6,365.4c-2.14-.07-2.78-1.13-2.13-2.45,4.62-9.32,11.79-16.52,19.68-23,1.24-1,2.92-.35,3.87,1.06a2.41,2.41,0,0,1-.24,3.39c-7.44,5.6-13.09,12.87-19,19.94C395.25,365,394.1,365.16,393.6,365.4Z"/><path class="cls-2" d="M1424,820.49c4.71,0,9.41,0,14.12,0,1.64,0,3.78-.29,3.79,2.24,0,1.92-1.1,3.11-3.24,3.25a243.22,243.22,0,0,1-29.7-.27,2.73,2.73,0,0,1-2.87-2.76c-.11-2.06,1.57-2.31,3-2.34,5-.08,9.9,0,14.86,0Z"/><path class="cls-2" d="M1414.45,601.59h-.09c0,4.72,0,9.43,0,14.16,0,1.35.33,3.26-2,3.14a2.87,2.87,0,0,1-2.88-2.84,199.06,199.06,0,0,1,.17-30.5c.1-1.68,1-2.85,2.77-2.82,2.21,0,2,1.81,2,3.21C1414.48,591.16,1414.45,596.36,1414.45,601.59Z"/><path class="cls-2" d="M1687.83,558.15c-9.47,2.37-18.68,3.05-26.68-4.11-5.58-11.42-4.3-23.4-1.86-35.09,1.4-6.69,9.36-9.9,19.27-9.58,9.22.3,15.88,4,17.6,11.14a60.55,60.55,0,0,1-.42,28.91C1694.75,553.4,1691,555.71,1687.83,558.15Zm-24.23-23.92h-.31c.27,3.71.33,7.45.89,11.11a8.51,8.51,0,0,0,7.19,7.51c13.91,2.95,19.73-1.62,20-15.81.05-2.73.1-5.48-.06-8.21-.61-10.63-4.1-13.72-15.18-13.56-9,.13-12.23,3.6-12.5,13.72C1663.56,530.74,1663.6,532.48,1663.6,534.23Z"/><path d="M812.59,470V581H792.77V510.29L773.26,525.2l-16.18,12.53L740.9,525.2l-19.51-14.91V581H701.56V470l19.83,15.23,35.69,27.44,35.69-27.44Z"/><path d="M866.52,507v75.5H846.69V504.89a15.81,15.81,0,0,0-13.48-13.48h-4.44V471.74h4.28v.16a35.55,35.55,0,0,1,13.48,3.65,35.17,35.17,0,0,1,16,16.18,42.55,42.55,0,0,1,2.7,7.45,33.53,33.53,0,0,1,1,8.09Z"/><path d="M992.93,470V581H973.1V535.35H914.57a31.38,31.38,0,0,1-14.9-3.65,32.4,32.4,0,0,1-17.77-29V470h19.83v32.67a13.07,13.07,0,0,0,13,13h58.53V470Z"/><path d="M1079.05,470a35.81,35.81,0,0,1,35.85,35.85V545a35.81,35.81,0,0,1-35.85,35.85h-34.26A35.82,35.82,0,0,1,1008.94,545V505.85A35.82,35.82,0,0,1,1044.79,470Zm-34.26,19.83A16.24,16.24,0,0,0,1028.61,506v39.18a16.25,16.25,0,0,0,16.18,16.18h34.26a16.25,16.25,0,0,0,16.18-16.18V506a16.24,16.24,0,0,0-16.18-16.17Z"/><path d="M1218.79,489.67a34.47,34.47,0,0,1,3.65,15.54v75.66h-19.83V503.31a15.81,15.81,0,0,0-13.48-13.48h-58.22V470h56.31a34.51,34.51,0,0,1,15.55,3.65,35.17,35.17,0,0,1,16,16.18Z"/></g></g></svg>