<svg xmlns="http://www.w3.org/2000/svg" viewBox="0 0 1920 1080"><defs><style>.cls-1{fill:#f2f2f2;}.cls-2{fill:#010001;}</style></defs><g id="Capa_2" data-name="Capa 2"><g id="Capa_1-2" data-name="Capa 1"><rect class="cls-1" x="1919" y="1079" width="1" height="1"/><path class="cls-2" d="M1741.9,527.32c0-19.27-8.86-27.85-27.94-28-18.68-.15-37.36,0-56,0-27.34,0-27.54,0-27.47-27.28.06-14.39-6.1-24.26-19-30.4-21.56-10.26-43-20.72-65-30a1513.28,1513.28,0,0,0-143.91-53.05c-4.91-1.53-6.88-3.44-4.74-8.4s-.78-6.6-4.8-7.74q-32.7-9.27-65.41-18.62c-3.95-1.14-6.41-.52-6.41,4.39,0,5.44-2.61,6.36-7.82,5-29.26-7.68-58.84-13.93-88.56-19.49a1410.92,1410.92,0,0,0-238-24.1l-35.66.56c-15.31-.21-30.62-.06-45.94.36-5,.13-6.84-1.12-6.72-6.52.36-18.37.12-36.75.23-55.13.1-13.11,1.07-14,14.16-14l124.54-.05c12.92,0,12.9,0,14.8,12.92.35,2.36.26,5.24,3.75,5.24s3.55-3,3.62-5.29c.18-7.34.16-14.67.09-22,0-3.07-.83-6.63,3.84-6.56,4.18.07,3.33,3.36,3.33,6.1,0,7.94,0,15.92.26,23.86.05,2.23.9,4.29,3.84,4,2.39-.22,2.83-2,2.94-3.91a20.1,20.1,0,0,0,.09-4.58c-1.41-8.16,1.9-10,10-10l128.95.2c2.52,0,6.43-1,5.66,3.53-1.87,11,5.06,11.58,12.65,10.7,6.06-.7,13.8,3,17.3-6,.69-1.8,3.3-1.1,5.07-1.12,4.6-.09,9.25.37,13.77-.2,6-.74,8.51,1,7.42,7.26-1.43,8.49,1.7,11.65,10.92,11.58,54.82-.44,109.64-.15,164.45-.39,5.72,0,8.26.87,7.72,7.3-.64,7.61.08,15.31-.25,23-.28,6.1,2.26,7.55,8.1,7.48,22-.27,44.07,0,66.11.07a162.41,162.41,0,0,1,27.72,0l21.91,0a133.8,133.8,0,0,1,25.86-.11c7.8-.61,16.6-3.18,14.54,10.52-.92,6.14,4.58,5.25,8.4,5.27,32.16,0,64.31-.16,96.44.11,7.37.08,9.41-2.63,9.32-9.7l-.15-173.85c.08-7.4-2.83-9.54-9.8-9.43-19.28.32-38.56-.07-57.85.26-5.62.09-9-1.25-11-6.89-2.73-7.39-6.39-14.47-9.85-21.57-7.52-15.44-12.35-17.85-29.63-16.14-7,.68-10.5,3.53-10.28,11,.32,10.7.1,21.41,0,32.13-.09,18.48-.35,18.68-19.12,16.75-1.5-.15-3-.06-4.57-.06q-56,0-112.06,0c-2.72,0-5.46.76-8.18.65-5.08-.22-5.83,2.37-5.76,6.78.13,8.84-.33,17.72-.55,26.58.87,2.37.94,4.28-2.44,4.15-1.51.13-3,.37-4.54.37q-83.06.06-166.13,0c-5,0-10.75-.53-9.3,7.13,1.9,10.09-2.9,12.26-11.39,10.55-5.12-1-11.48,3.07-15.21-2.35-2.46-3.6-5.31-3.53-8.54-3.68-4.88-.24-9.77-.27-14.66-.38-6.43,0-5.75,4.1-5.75,4.1,0,8.2-3,9.85-10.75,9.83l-122.54.06c-9.6,0-13.36-2.23-12-11.84.39-2.58.64-6.36-3.11-6.53-4.61-.22-3.67,4.1-3.8,6.86-.33,7-.33,14.08-.42,21.12,0,2.59-.17,5.06-3.72,4.93-3.78-.13-3.14-2.93-3.16-5.33,0-6.73,0-13.46-.26-20.19-.14-3,1.24-7.7-4.21-7.35-4.81.29-3.38,4.82-3,7.19,1.71,9.26-2,11.06-10.79,11l-128.23-.22c-10.17,0-20.2.59-29.43,5.28l-8.26,7.9c-9.13,8.42-11.93,19.43-12,31.36-.08,18.7-.46,37.39.16,56.05.28,8.07-1.85,10.19-10.07,10.17L793.67,299c-26.74,3.11-53.41,6.58-79.92,11.33-36.11,6.47-72,13.62-107.48,23.08-4.62,1.24-7.1.67-7.39-4.52-.34-5.82-3.86-6-8.39-4.69-21.38,6.29-42.74,12.63-64.17,18.68-4.32,1.21-5.77,3.53-4.1,7.28,2.74,6.12-1,7.08-5.55,8.51-66,20.66-129.84,46.84-193,74.82-25.41,11.25-38.57,26.6-34.53,54.7,1.27,8.87-2.9,11.51-11.56,11.35-23.58-.48-47.17-.26-70.75-.06-21,.19-28.72,8.16-28.7,29.08v140.1c0,17.29,5.63,19.9,5.63,19.9,10.9,8,22.9,7.19,34.72,7.21,40.39,0,80.76.31,121.12-.15,12.36-.14,20,4.49,25.17,15.54C374,731,384,750.54,393.6,770.22c8.86,15.65,17.2,31.57,29.67,44.91,16.54,17.7,35.64,31.49,58.44,40,42.46,14.41,78.71,8.68,78.71,8.68,21.31-2.36,40.39-11.69,59.8-19.82,23.1-9.7,46.87-17.52,70.55-25.66,3.22-1.1,7.06-3.46,8.12,2.92.92,5.41,5.41,4,8.83,3.37,7.2-1.27,14.36-2.89,21.52-4.36,14-3.11,27.91-6.27,41.88-9.28,3.92-.85,7.66-1.88,5.61-6.93-2.3-5.61,0-6.4,5.09-7.17,22.31-3.44,44.59-7,67.17-8.35,34-3.95,68.12-4.15,102.28-4.34h15.84c37.25.08,74.47.54,111.51,5.13,20.19,1,40.06,4.34,60,7.61,4,.65,6.58,1.47,5.05,6.2-1.6,5,.22,6.76,5.4,7.83,20.61,4.19,41.07,9.15,61.66,13.42,4.1.84,9.69,3.43,10.83-5,.59-4.38,5-1.68,7.59-.85,29.37,9.34,58.55,19.34,86.56,32.23,79.74,36.65,168.42,2.26,205.3-70.52a30.65,30.65,0,0,1,2-3c10.85-24.18,23.13-47.65,35.32-71.18,3.75-7.26,9.7-10.22,17.9-10.2q63.72.17,127.45-.11c11.19,0,22.59.49,33-7.8,5.79-7.37,5.08-10.88,5.08-10.88C1741.73,627.13,1742,577.23,1741.9,527.32Zm-19.84-240.9q-21.55,0-43.14,0t-43.14,0c-3.33,0-7.17.77-7-4.54.13-4.78,3.74-4,6.68-4,28.75-.15,57.5-.22,86.27-.39,3.54,0,6.85-.33,6.78,4.85C1728.42,287.32,1725,286.4,1722.06,286.42Zm6.49-50.3a275,275,0,0,0,0,27.54c.2,5.42-1.25,7.44-7.14,7.42q-124.87-.16-249.8.21c-6.08,0-7.09-2.12-6.78-7.5a207.48,207.48,0,0,0,.15-27.54c-.53-6.84,1.91-8.18,8.14-8.14,41.33.24,82.65.13,124,.13v.16c41,0,82,.15,123.07-.15C1726.31,228.22,1729,229.32,1728.55,236.12Zm-.11-54c-.2,13.83,2,13.09-12.5,13-2.83,0-6.23-1.1-8.34,2.65,4.32,3.69,9.33,1.69,13.93,1.56,4.82-.15,7.7.74,7,6.44a42.58,42.58,0,0,0-.06,9.17c.44,4.94-1.71,6.06-6.41,6.06-82.94-.12-165.89-.25-248.83.1-13.4.05-6.56-9.18-8-14.53-1.85-6.89,2.67-6.94,7.8-6.91,16.82.13,33.66,0,50.5-.29,3.19,0,6.69.53,9.68-1.62-1.47-4-4.67-2.57-7-2.59-17.75-.15-35.51-.3-53.25-.06-5.53.08-8-1-8-7.39,0-15.79-.31-16,15.63-16,80.18,0,160.39.11,240.55-.11,6.38,0,8.22,2,7.41,7.76A19.39,19.39,0,0,0,1728.44,182.11Zm-49.56-73.93v0c14.36,0,28.72-.07,43,0,2.67,0,6.57-1.55,6.57,3.69,0,4.78-3.39,4.23-6.4,4.23q-43.51.06-87,0c-3,0-6.38.44-6.11-4.41.24-4.32,3.33-3.53,5.94-3.55Q1656.92,108.17,1678.88,108.18Zm-61.34-43.82c6-.79,13.88-3.41,17.87,3,5.92,9.46,10.31,19.92,15.11,30.07,1.87,4-1.45,3.69-3.83,3.69-5.49,0-11,.11-16.47-.24-5.93-.38-9.44,1-8.6,8,.37,3.07,1.2,7.72-3.79,7.65-4.65-.08-2.86-4.53-3-7.21-.22-6.4-.07-12.81-.07-19.21h0c0-5.5-.3-11,.11-16.45C1615.17,70.38,1612.47,65,1617.54,64.36Zm-152.83,87.4c-.07-5.2.27-10.4.29-15.62,0-12.21,0-12.34,11.73-12.34q59.73-.1,119.43,0v-.24c41.34,0,82.69.13,124-.15,6.17,0,8.82,1.16,8.36,7.94a251.45,251.45,0,0,0-.07,26.62c.18,5.24-1.66,7-6.86,6.88-12.24-.28-24.48,0-36.74,0q-103.82,0-207.63,0C1462.15,164.74,1464.93,165.31,1464.71,151.76Zm-182.76,60c-.88-8.56.46-14.57,11.27-12.18,1.49.33,3.29.07,3.38-2s-1.64-2.65-3.16-2.37c-13.73,2.41-11.54-7.1-11.47-15.13.16-18.31.15-18.29,18.84-18.26,49.32.06,98.64.23,148,0,7,0,10.07,1.32,9.21,9-.72,6.34.39,12.88-.18,19.26-.9,10.15-11.79,1.1-15,7.32.82,1.43,2.15,2.52,3.73,2.15,11.3-2.65,12.66,3.31,11.12,12.33-1.14,6.79,3.38,16.18-1.77,19.89-4.68,3.39-13.53,1.12-20.55,1.14-48.4.09-96.8-.07-145.2.35-7.17.08-9.12-2-8.29-8.67A56.84,56.84,0,0,0,1282,211.76Zm-28.22-16.65c-7.52.35-5.18-4.72-5.81-8.47-.79-4.71.81-6.44,5.79-6.71,21-1.22,21-1.38,21.07,19.63,0,15,0,15.33-15.61,14.89-4.08-.11-11.1,4.19-11.54-5.44-.29-6.57.74-10.3,8.62-9.69,3.88.31,8.59,1.6,12.43-2.28C1263.94,193.14,1258.51,194.89,1253.73,195.11Zm-19.54,27c-6.67-.09-9.92-1.45-8.42-8.64a11.86,11.86,0,0,0,.08-4.56c-1.27-6.65.05-9.61,8.1-9.89,9.43-.31,6.68,5.19,6.69,9.91v2.43C1240.09,215.44,1244.45,222.32,1234.19,222.15Zm-.81-48.68c9.67-1,7.32,5.13,6.81,12.49-.46,2.37,4,9.13-6,9.39-12.74.35-7-9-8.4-14.54C1224,174,1228.16,174,1233.38,173.47Zm-159.76,24.67c.31-8.62,2.15-11.78,11.2-11.16l128.1.28c2.63,0,5.83-.7,6,3.57.24,4.89-3.45,4.3-6.34,4.32-9.48,0-19-.21-28.47-.3-2.32,0-5.5-.82-5.3,3,.19,3.29,3.2,2.08,5,2.08,9.19,0,18.38-.22,27.55,0,2.82.05,7.49-2.1,7.41,3.73-.09,5.66-4.67,3.77-7.55,3.79l-127,.26C1077.11,207.68,1073.29,207.32,1073.62,198.14Zm-181.87-7.7c13-5.22,78-2.68,91.3-2.9l63.09-.22c2.63,0,5.79-.79,6,3.49.33,5.15-3.46,4-6.27,4-17.76.13-35.5,0-53.24.39-3,.07-9-3.07-8.88,2.48.13,4.54,6,2.1,9.23,2.12,17.14.18,34.27-.17,51.4-.08,2.81,0,7.43-2.09,7.68,3.55.3,6.56-4.92,4.08-7.9,4.1l-135.33.22c-12.5.31-17.19,4.67-17.37,17.22-.3,19.27-.15,38.55-.28,57.84,0,2.37.88,5.11-1.18,6.94a6.14,6.14,0,0,1-4.15,1.25c-2.54-.07-2.46-2.33-2.43-4.08.55-25-2.2-50.13,1.34-75.09a6.48,6.48,0,0,0-.62-4.78C879.21,198,883.75,193.64,891.75,190.44Zm-20.69,31.73c.06-7.06,1-13.92,7.93-20.11,2.3,8.73-.52,15.83-.42,23,.27,19.58.18,39.16.25,58.74,0,3.42.55,7.2-4.67,6.85s-3.07-4.41-3.09-7Q870.9,252.91,871.06,222.17ZM611,346.77c54.21-13.77,109.1-23.83,164.54-31.22,56.16-7.48,112.67-9.74,169.18-12.48,3-.15,6.12-.07,9.17-.07,2,0,3.68.38,3.75,2.88,0,2.72-1.91,2.67-3.73,2.72-6.12.17-12.24.15-18.33.54-1.69.11-3.58,1-3.66,3.42,0,1.43.83,2.57,2.06,2.53,13.77-.55,27.69,1.11,42.28-1.54-2.94-5.24-6.63-5-10.24-4.95-2.37,0-4.45-.58-4-3.56.35-2.65,2.72-2.06,4.32-2,9.48.33,19,1.07,28.44,1.24,67,1.15,133.56,7.83,199.72,18.71,37.26,6.12,74.16,14,110.92,22.59,3.05.7,7.46,0,9.54,4.89-5,1.43-9.21-.37-13.47-1.27-3.88-.83-7.76-1.74-11.68-2.26-2.2-.27-5.53-1.52-6.32,1.45s2.39,3.84,4.73,4.51q6.58,1.82,13.27,3.31a19.58,19.58,0,0,1,9,4.21c-4.67,2.42-8.26,1.3-11.93.44-57.49-13.53-115.69-22.52-174.38-28.74a1620.84,1620.84,0,0,0-209.91-8.47c-2.48.06-6.16,1.78-7-2.06-1.09-5,3.58-3.6,6.12-4.41,2.26-.72,3.82-1.86,3.45-4.54s-2.52-2.21-4.19-2.21c-10.4.06-20.84-.13-31.21.44-5,.26-9.89,1.62-4.14,8.28,3.62,4.19,1.75,6.26-3.51,6.49-6.05.25-13.36,3.56-12.87-7.6.15-3.32-3-4.1-6-4-11.33.43-22.65.78-34,1.22-2.53.09-5.24.51-4.89,4,.37,3.67,3.55,2.76,5.74,2.72,8.86-.17,17.72-.66,26.6-.86,2.17-.06,5.44-1.46,6,2.15.68,4.44-3.09,3.56-5.61,3.78-34.1,3-68.2,6.16-102.11,10.92-20.17,2.83-40.26,6.25-60.39,9.25-22.31,3.34-44.19,8.71-66.05,14.12-3,.75-6.45,1.63-9.92-.48,1.74-3.84,5.64-3.15,8.45-4.38s8-1,7-5.22c-.74-3.25-5.18-1.82-8.14-1.36-4.09.61-8.17,2-12.39.57C605.82,346.6,608.77,347.34,611,346.77Zm289.12-26.09c.37,6.45-5.57,3.4-8.84,4.41-3-.94-8.4,2.19-8.31-3.84.09-5.86,5.39-3.58,8.4-3.46S899.78,315,900.09,320.68Zm-212,483.63c-37,10.71-72,27.05-108.4,39.52-33.82,11.58-66.76,9-99-4.8-37-15.79-59.54-45.41-76.57-80.59-10.35-21.4-19.7-43.36-32.83-63.42-6-9.19-14-13.44-24.34-13.55-40.42-.35-80.84-.4-121.25-.57-7,0-14.08-.22-21.12-.16-8.9.09-13-4-11.89-13,.31-2.72.24-5.5.33-8.24q-.13-67.47-.33-134.92c0-8.07,4.17-10.68,11.52-10.65q33.51.12,67-.12a135.24,135.24,0,0,0,16.47-1c9-1.18,14.82-7.3,15.37-16.47.48-7.95.22-15.91.46-23.87s3.49-13.8,11-17.55c16.1-8.05,32.28-15.94,49-22.68,21.58-11.81,45-19.29,67.65-28.5,28.82-11.69,58.31-21.6,88-30.73,2.56-.79,6.82-5.68,8.84.92,1.6,5.14,2.54,10.53-3.75,13.42a128.63,128.63,0,0,1-13.71,5.09c-11,3.58-22.06,6.87-33,10.53-4.31,1.43-8.39,3.64-9.19-3.58-.19-1.75-1.59-2.56-3.28-2.49-2.83.11-2.44,2.39-2.2,4,.93,6.33-2.72,8.38-8,10.13-15.29,5.07-30.39,10.79-45.72,15.75-1.76.57-7.3,6.92-7.59-2.59-.09-3-5.72-1.71-9.14-.2-9.43,4.15-19,8-28.51,12-.29.51-1,1.19-.84,1.56,4.5,11.47-6.44,12.06-11.11,12-9.63-.14-13.58,5.7-17.66,11.92A106.66,106.66,0,0,0,326,477.63c-1.23,2.83-2.08,5.06,2.33,7.9,5.06,3.26,1.4,10.45,1.86,15.91v23.67c-4.1-7.39-4.34-15.55-5-23.66-5.78-1.56-5.22,3.17-5.26,6-.19,12.74-.76,25.66,8.49,36.27,1.88,2.15,1.89,5.09,1.89,7.84q-.07,52.16-.16,104.27c1.91,13.38,7.17,19.28,20.22,18.25,13.31-1,18.86,5,24.63,16,16.18,30.9,27.5,64.58,49.16,92.36C460.36,828.86,508.45,847,566.6,840c22.59-2.71,42.68-12.5,63.51-20.43,20.24-7.7,40.77-14.61,61.21-21.78,1-.35,2.28.07,3.49.15C695.16,803.18,690.92,803.5,688.12,804.31Zm264.07-34.44c-13.48.11-27,.06-40.41.06C868.34,772.06,825,775,782.09,782.12c-3.16.53-8.86,3-9.5-1.31-.85-5.73,5.28-3.25,8.35-3.58,32.51-3.57,65-7.56,97.63-10.09,24.68-1.92,49.52-1.9,74.3-2.71,2,0,4.72-.86,4.74,2.52C957.63,770.94,954.36,769.87,952.19,769.87Zm189,13.11c-20.06-3.36-40.68-5.92-61.38-8.12a933,933,0,0,0-104.51-5c-2.74,0-5.49,0-8.25,0-2.1,0-4.67.46-4.93-2.63-.31-3.58,2.61-2.77,4.51-2.7,24.17.77,48.38,1,72.48,2.65,34.13,2.35,68.25,5.07,102.17,9.91,2.57.36,6.49-.74,6.65,3C1148.13,784.43,1144.19,782.78,1141.2,783Zm71.63,1.91q-10.1-2-20.16-4c-4.08,4.36-1.68,6.24,2.77,7.52,5.55,1.6,11,3.72,16.62,4.91,5.39,1.12,7,3.31,5.61,8.88-3.62,15.07-3.39,15.13-18.5,11.95-14-3-28-6.22-42.13-8.68-5-.88-6.23-2.68-4.94-7.15.49-1.76.73-3.58,1.12-5.39,2.79-12.64,2.79-12.62,15.68-10.58,2,.31,4.48,1.41,5.35-1.49s-.76-4.78-3.48-5.46c-7.7-1.86-15.36-4.52-23.18-5.17-18.31-1.54-36.21-5.46-54.3-8.27a131.83,131.83,0,0,0-18.25-1.34c-1.12.22-2.23.44-3.33.68-1.43,1.63-2.9,1.54-4.39.09-13.75-2.74-27.43-5.86-41.55-6.14-3.93-.07-7.83-.57-11.41,2.06-2.91,2.11-7.39,2.44-9.69.81-12.24-8.7-26-3.53-38.94-5.08-1.48-.18-3-.49-4.46-.73-11.22,2.11-23.09-1.29-33.94,4.74-3.25,1.8-7.75,0-11.71-.49-15.36-1.84-30.75-3.53-45.51,3.6-2.35,1.14-6,2.13-8,1.14-9.89-5-19.83-.26-29.69-.9-22,6.85-45.22,6.54-67.66,11a22.37,22.37,0,0,0-6.07,1.68,5.15,5.15,0,0,0-2.52,3.47c-.2,1.71,1.62,2,3.15,2.56,4.21,1.48,10.94,20.58,8.62,24.19-1.34,2.13-3.82,1.58-5.81,2-17.22,3.93-34.47,7.74-51.69,11.73-3,.69-5.39,1.12-6.05-2.87-1-5.72-1.93-11.42-3.12-17.08-.87-4,2.35-3.64,4.37-4.15,8.84-2.26,17.78-4.19,26.6-6.51,3.55-.92,9.69-.79,8.27-6-1.45-5.46-7-1.42-10.09-.81-8.93,1.73-17.63,4.61-26.41,7-40.24,10.19-78.28,26.69-117,41.29-11,4.15-22.6,4.87-34.31,4.45-8.19-.3-16.37-1.2-24.65.37-4.78.9-9.19-.68-13.62-3.72-10.31-7-22.88-9.94-33.25-17.07a3.49,3.49,0,0,0-2.52-.78c-9.25,2.82-9.23,2.83-17.57-2.88-20.5-13.39-35-32-45.89-53.55-12.44-24.54-24.78-49.14-36.5-74-4.69-10-11.42-14.25-22.27-13.75-6.06.28-13.23,2.17-17.09-5.35-2.76-2.46-1.43-5.75-1.47-8.58-.3-25.11-.39-50.22-.48-75.33,0-1.38-.5-3.11,2.15-4.18,4.8,4.58,5.26,11.62,8.49,17.12,1.53,2.57,2.93,6.49,6.64,4.65,4-2,1-5.39-.15-7.85-4.67-9.62-9.41-19.19-14.52-28.57a19.08,19.08,0,0,1-2.3-9.59c.06-19-.16-38,.17-57,.29-16.2,7.08-29.41,21.74-36.73,31.49-15.7,65.06-26.27,98-38.38,4.1-1.51,5.5.27,5.28,4.39-.26,4.58-.15,9.19-.13,13.79,0,2.08-.37,4.69,2.59,5s3.38-2.1,3.51-4.3c.3-4.88,1.29-9.89.5-14.6-1.12-6.76,1.78-9.23,7.63-11,14.59-4.38,29.06-9.16,43.53-13.9,7.41-2.43,14.56-5.33,16-14.45.61-3.93,4.06-4.28,6.82-5.18,6.36-2.1,12.83-4,19.3-5.72,3.75-1,6.58-3.07,5.26-7-1.49-4.43-4.67-.41-6.86-.19-3.88.37-7.57,2.34-11.45,3.09-4.74,1-11,6-13.51,3.09-3.6-4.13-3.79-11.25-5.37-17.11-1-3.79,1.69-4.78,4.43-5.59,17-4.95,34-9.82,50.94-14.85,4.47-1.33,7-.48,7.57,4.59a25.62,25.62,0,0,0,1.81,7.08c2.66,6.21,3.21,11-5.63,12-2.54.28-5.92,1.71-4.8,5.32s4.89,2.84,7.08,1.8c5.62-2.67,9.63-1.38,13.9,2.86,3.78,3.77,9,3.33,13.91,2.12,54-13.38,108.94-22,164.21-28,36.18-3.91,72.41-7.79,108.86-8.23l31.58-1.4c8-.13,16,.24,23.88-.31l27.23,0a1620.21,1620.21,0,0,1,206.62,16c39.3,5.62,78.45,12,116.84,22.15,10.75,2.85,16.49-6,25-7.94,1.64-.35,1.31-3.36.39-5-1.07-1.88-2-3.39-1.73-5.85,2.17-17.52,4-18.77,20.88-13.9,13.48,3.88,26.93,7.8,40.46,11.49,4.23,1.14,6.31,2.83,4.78,7.63-1.8,5.74-3.07,11.64-4.63,17.74-11.47-6.54-23.93-8.36-35.64-12.41-2.89-1-7.67-1.89-8.75,2.21-1,3.89,3.42,4.23,6.26,5,11.42,3,22.1,9.08,34.34,8.68,3.53-.11,3.13,2.2,3.11,4.23-.11,8.49,4.85,12.5,12.3,14.85,16,5.07,31.76,10.72,47.83,15.46,5.61,1.65,7.28,4.23,6.84,9.7a96,96,0,0,0,.37,14.67c.12,2.15.86,4.36,3.69,4.38,3.49,0,2.48-2.74,2.76-4.67.86-6.09-3.15-14.67,2.2-17.57,3.62-2,11.11,3.08,16.86,5,26.62,8.92,52.67,19.34,78.51,30.22,16.84,7.08,26.71,20.34,27.3,39,.53,17.13.2,34.28.17,51.44,0,10.82-6.38,19.61-9.77,29.35-.69,2-1.93,3.86-2.57,5.88s-2.3,5.08.59,6.29c2.24.94,3.53-1.65,4.52-3.64,1.71-3.45,3.53-6.86,5.24-10.16,3.22.79,2.46,2.94,2.44,4.59q-.17,38.13-.47,76.25c-.13,12.63-2.83,16.49-14.91,15-18.16-2.21-24.89,9.12-31,22.35-10.53,23.81-21.91,47.19-34.41,70-11.55,21.33-26.82,39.27-47.61,52.17-.74.42-1.36,2-2.32.41-.15-.26.68-1.13,1.07-1.71.11-5.65-2.14-7.39-7.12-4.18-9,5.78-18.78,10.35-27.44,16.38-5.15,3.61-8,11.23-15.87,9a38.18,38.18,0,0,0-18.07-.42c-27.68,5.33-53.08-1.53-78.09-12.83C1276.4,804.1,1244.43,795,1212.83,784.89Zm514.51-115.75c0,7.43-3,11.47-10.94,11.18-7.32-.28-14.65-.23-22-.3-19.54,1.55-39.14.53-58.7.75s-39.19.65-58.79.37c-15.6-.2-26.1,6.8-32.85,20.48-10,20.28-20.31,40.41-30.18,60.74-16.64,34.24-39.8,62-75.79,77.18-38.75,16.4-77.41,15.1-115.65-1.25-29.22-12.48-58.87-23.71-89.13-33.4-1.45-.47-2.92-.86-4.34-1.39-2-.78-4.41-1.68-3.16-4.47,1-2.28,3-1,4.78-.63,9,2,17,6.82,25.64,9.77,24.47,8.3,48.49,17.75,72.58,27.09,19,7.39,40.44,8.14,61.17,5.92,44.89-4.83,81.29-25.17,108.2-61.53,14.45-19.52,23-42.37,34.19-63.73,4.82-9.21,10-18.34,13.73-28,4-10.32,10.21-15,21.48-13.66s18.86-3.73,22.24-14.75q0-60,0-120c0-4.26-1.49-9.67,6.36-8.49,2.78.42,2.85-2.63,3.27-4.65,2.12-10.28,1.71-20.66.56-31-.34-3.05-1-8.27-6.84-5,.79,12,1.61,24-.37,35.94l-2.81.06v-36c-.66-6.48-3.33-12.72-.55-19.57,1.39-3.44-2.27-6.69-4.23-9.65a65.76,65.76,0,0,0-15.9-16.11c-1.69-1.25-4-3.56-5.56-2.44-7.55,5.4-13.36-1.31-19.94-2.32-16.08-8.62-33.88-12.85-50.7-19.61-10.48-4.21-21.29-7.54-31.95-11.22-1.69-.58-4.1-.71-3.29-3.27.87-2.74,3-1.17,4.52-.6,7.43,2.75,14.84,5.62,22.27,8.4,2.59,1,6.06,2.33,7.39-.57,1.59-3.48-2.52-4.41-4.73-5.3-8.2-3.32-16.45-6.63-24.93-9.13-4.08-1.22-10.69-6.92-11.58,3.91-.24,2.87-3.53,1.53-5.44.92-15.38-4.87-30.79-9.74-46.12-14.81-3.71-1.24-7.43-2.74-8.24-7.6-1.48-8.82.94-11.38,9.4-8.77,19.17,5.92,37.83,13.44,56.82,19.8,27.52,9.21,54.12,20.52,81,31.22a21.56,21.56,0,0,1,3.7,2.42c22,8.62,43.36,18.61,64.46,29.16,6.4,3.2,9.51,8.09,9.51,15.35,0,8.23.38,16.5.94,24.74.73,10.61,5.6,16,16.17,17.83a69.05,69.05,0,0,0,11.86.77c23.56.09,47.13.3,70.68,0,8.16-.11,11.87,2.86,11.86,11.06Q1727.23,597.07,1727.34,669.14Z"/><path class="cls-1" d="M1580.5,570.76c-1.71,3.3-3.53,6.71-5.24,10.16-1,2-2.28,4.58-4.52,3.64-2.89-1.21-1.27-4.14-.59-6.29s1.88-3.86,2.57-5.88c3.39-9.74,9.73-18.53,9.77-29.35,0-17.16.36-34.31-.17-51.44-.59-18.69-10.46-32-27.3-39-25.84-10.88-51.89-21.3-78.51-30.22-5.75-1.93-13.24-7-16.86-5-5.35,2.9-1.34,11.48-2.2,17.57-.28,1.93.73,4.69-2.76,4.67-2.83,0-3.57-2.23-3.69-4.38a96,96,0,0,1-.37-14.67c.44-5.47-1.23-8-6.84-9.7-16.07-4.74-31.86-10.39-47.83-15.46-7.45-2.35-12.41-6.36-12.3-14.85,0-2,.42-4.34-3.11-4.23-12.24.4-22.92-5.68-34.34-8.68-2.84-.73-7.27-1.07-6.26-5,1.08-4.1,5.86-3.2,8.75-2.21,11.71,4.05,24.17,5.87,35.64,12.41,1.56-6.1,2.83-12,4.63-17.74,1.53-4.8-.55-6.49-4.78-7.63-13.53-3.69-27-7.61-40.46-11.49-16.91-4.87-18.71-3.62-20.88,13.9-.31,2.46.66,4,1.73,5.85.92,1.6,1.25,4.61-.39,5-8.54,1.91-14.28,10.79-25,7.94-38.39-10.15-77.54-16.53-116.84-22.15a1620.21,1620.21,0,0,0-206.62-16l-27.23,0c-7.92.55-15.92.18-23.88.31L893,332.21c-36.45.44-72.68,4.32-108.86,8.23-55.27,6-110.16,14.62-164.21,28-4.91,1.21-10.13,1.65-13.91-2.12-4.27-4.24-8.28-5.53-13.9-2.86-2.19,1-6,1.76-7.08-1.8s2.26-5,4.8-5.32c8.84-1,8.29-5.79,5.63-12a25.62,25.62,0,0,1-1.81-7.08c-.53-5.07-3.1-5.92-7.57-4.59-17,5-34,9.9-50.94,14.85-2.74.81-5.44,1.8-4.43,5.59,1.58,5.86,1.77,13,5.37,17.11,2.52,2.91,8.77-2.13,13.51-3.09,3.88-.75,7.57-2.72,11.45-3.09,2.19-.22,5.37-4.24,6.86.19,1.32,4-1.51,6-5.26,7-6.47,1.76-12.94,3.62-19.3,5.72-2.76.9-6.21,1.25-6.82,5.18-1.43,9.12-8.58,12-16,14.45-14.47,4.74-28.94,9.52-43.53,13.9-5.85,1.74-8.75,4.21-7.63,11,.79,4.71-.2,9.72-.5,14.6-.13,2.2-.57,4.61-3.51,4.3s-2.59-2.94-2.59-5c0-4.6-.13-9.21.13-13.79.22-4.12-1.18-5.9-5.28-4.39-32.92,12.11-66.49,22.68-98,38.38-14.66,7.32-21.45,20.53-21.74,36.73-.33,19-.11,38-.17,57a19.08,19.08,0,0,0,2.3,9.59c5.11,9.38,9.85,18.95,14.52,28.57,1.2,2.46,4.19,5.84.15,7.85-3.71,1.84-5.11-2.08-6.64-4.65-3.23-5.5-3.69-12.54-8.49-17.12-2.65,1.07-2.17,2.8-2.15,4.18.09,25.11.18,50.22.48,75.33,0,2.83-1.29,6.12,1.47,8.58,3.86,7.52,11,5.63,17.09,5.35,10.85-.5,17.58,3.79,22.27,13.75,11.72,24.87,24.06,49.47,36.5,74,10.92,21.51,25.39,40.16,45.89,53.55,8.34,5.71,8.32,5.7,17.57,2.88a3.49,3.49,0,0,1,2.52.78c10.37,7.13,22.94,10,33.25,17.07,4.43,3,8.84,4.62,13.62,3.72,8.28-1.57,16.46-.67,24.65-.37,11.71.42,23.3-.3,34.31-4.45,38.67-14.6,76.71-31.1,117-41.29,8.78-2.41,17.48-5.29,26.41-7,3.14-.61,8.64-4.65,10.09.81,1.42,5.24-4.72,5.11-8.27,6-8.82,2.32-17.76,4.25-26.6,6.51-2,.51-5.24.11-4.37,4.15,1.19,5.66,2.15,11.36,3.12,17.08.66,4,3,3.56,6.05,2.87,17.22-4,34.47-7.8,51.69-11.73,2-.46,4.47.09,5.81-2,2.32-3.61-4.41-22.71-8.62-24.19-1.53-.54-3.35-.85-3.15-2.56a5.15,5.15,0,0,1,2.52-3.47,22.37,22.37,0,0,1,6.07-1.68c22.44-4.41,45.62-4.1,67.66-11,9.86.64,19.8-4.06,29.69.9,2,1,5.65,0,8-1.14,14.76-7.13,30.15-5.44,45.51-3.6,4,.47,8.46,2.29,11.71.49,10.85-6,22.72-2.63,33.94-4.74,1.49.24,3,.55,4.46.73,13,1.55,26.7-3.62,38.94,5.08,2.3,1.63,6.78,1.3,9.69-.81,3.58-2.63,7.48-2.13,11.41-2.06,14.12.28,27.8,3.4,41.55,6.14,1.49,1.45,3,1.54,4.39-.09,1.1-.24,2.21-.46,3.33-.68a131.83,131.83,0,0,1,18.25,1.34c18.09,2.81,36,6.73,54.3,8.27,7.82.65,15.48,3.31,23.18,5.17,2.72.68,4.34,2.59,3.48,5.46s-3.39,1.8-5.35,1.49c-12.89-2-12.89-2.06-15.68,10.58-.39,1.81-.63,3.63-1.12,5.39-1.29,4.47,0,6.27,4.94,7.15,14.12,2.46,28.09,5.72,42.13,8.68,15.11,3.18,14.88,3.12,18.5-11.95,1.34-5.57-.22-7.76-5.61-8.88-5.62-1.19-11.07-3.31-16.62-4.91-4.45-1.28-6.85-3.16-2.77-7.52q10.08,2,20.16,4c31.6,10.06,63.57,19.21,93.84,32.93,25,11.3,50.41,18.16,78.09,12.83a38.18,38.18,0,0,1,18.07.42c7.85,2.22,10.72-5.4,15.87-9,8.66-6,18.45-10.6,27.44-16.38,5-3.21,7.23-1.47,7.12,4.18-.39.58-1.22,1.45-1.07,1.71,1,1.56,1.58,0,2.32-.41,20.79-12.9,36.06-30.84,47.61-52.17,12.5-22.83,23.88-46.21,34.41-70,6.14-13.23,12.87-24.56,31-22.35,12.08,1.47,14.78-2.39,14.91-15q.36-38.1.47-76.25C1583,573.7,1583.72,571.55,1580.5,570.76ZM465.55,572.94c2.37,0,3.21,1.38,3.38,3.4,1,12.43,1.58,24.88-.09,37.3-.28,2-1.07,3.49-3.4,3.37-2.52-.15-2.65-2.1-2.67-3.94,0-6.38,0-12.77,0-19.15,0-5.48,0-11,0-16.44C462.77,575.48,462.13,573,465.55,572.94Zm3.38-18.6c-.17,2.08-.22,4.41-3.38,4.32-3.37-.09-2.81-2.54-2.81-4.56q0-17.8.16-35.61c0-1.72-.16-3.89,2.48-4,2.23,0,3.24,1.35,3.38,3.44.45,6.36.89,12.72,1.37,19.51C469.76,542.85,469.41,548.6,468.93,554.34Zm-3.22-99.6c2.85,0,3.18,2.38,3.35,4.54.88,11.57,1.29,23.13,0,34.71-.24,2.1-.3,4.61-3.31,4.52-3.73-.13-3-3.09-3-5.44,0-5.48,0-11,0-16.47s0-11,0-16.45C462.72,457.81,461.93,454.78,465.71,454.74Zm0,176.53c4,0,3.38,3.81,3.56,6.32.54,7.3.74,14.64,1.07,21.95-.31,3.28-.46,6.58-1,9.82-.38,2.48,0,6.08-4,5.66-3.59-.37-2.34-3.57-2.46-5.73-.24-4.49-.3-9-.43-13.46.11-6.1.11-12.22.37-18.33C462.88,635.11,461.19,631.23,465.68,631.27Zm-2.83,81.32h-.06c0-5.77,0-11.54,0-17.31,0-1.71-.44-3.84,2.13-4.23a3,3,0,0,1,3.8,2.89,147.27,147.27,0,0,1,.08,38.16c-.31,2.3-1.55,3.12-3.68,2.85-2.61-.31-2.28-2.39-2.3-4.12C462.81,724.75,462.85,718.68,462.85,712.59Zm-84.42-62c-1-.18-1.93-.39-2.9-.57-6.73-10.46-9.8-22.54-14.87-33.73a4.49,4.49,0,0,1,1.5-5.75c2.91-1.66,3.39,1.47,4.18,3.1q6.42,13.08,12.55,26.25C380.55,643.44,381.82,647.17,378.43,650.59Zm25.48,52.57c-2.44,1.11-4.15-.58-5.22-2.53-5.73-10.48-9.54-21.75-13.4-31.91-.06-2.58-.42-4.38,1.27-5.08,2.24-.94,3.56,1.05,4.28,2.5q7.44,15.23,14.51,30.68C406.34,699,406.87,701.8,403.91,703.16Zm24.52,52.71c-2.75,1-4.67-1-5.68-3.33-4.28-10.07-8.49-20.15-12.53-30.31-.7-1.75-1.6-4.29,2.22-4.87,1.07,1.21,2.57,2.37,3.36,3.89,4.73,9.18,9.44,18.37,13.83,27.71C430.66,751.14,432.44,754.47,428.43,755.87Zm32.72,47.41c-12.4-5.76-17.2-19.09-27-27.43-1.22-1-1.38-4.43,1.14-5.39,3.16-1.21,5.86.06,7.79,3a145,145,0,0,0,19.28,23c.65.62,1.38,1.14,2.08,1.71C465.09,801,464.54,803,461.15,803.28Zm3.7-9.75c-4.28-13.58-1-27.53-2-41.28-.11-1.75.82-2.74,2.7-2.8,2.94-.07,3.47,1.91,3.6,4.16.42,7.85.79,15.71,1.2,23.58C468.53,782.63,471.6,789.73,464.85,793.53Zm992.62-256.84c0,5.48.09,11-.06,16.44-.05,1.91.79,4.78-2.39,5a3.83,3.83,0,0,1-4.28-3.84c-.15-11.88-.11-23.75-.06-35.63,0-2.33,1.86-3,3.75-3,2.3,0,3,1.71,3,3.73v17.37Zm-.08,59c0,5.17.09,10.35-.05,15.52-.06,1.86,1,4.7-2.37,4.85a3.76,3.76,0,0,1-4.19-3.9q-.09-17.75.22-35.53a3,3,0,0,1,3.56-3.2c2.35.26,2.74,2.15,2.78,4,.05,6.08,0,12.17,0,18.25ZM1451,458.35c.07-2.1,1.6-3.15,3.8-2.85,2.43.35,2.61,2.22,2.63,4.06.06,5.77,0,11.54,0,17.33h-.05c0,5.78,0,11.55,0,17.32,0,1.84-.1,3.73-2.74,3.75a3.32,3.32,0,0,1-3.64-3.23C1449.8,482.59,1450.5,470.46,1451,458.35Zm3.22,333.88c-4.29-.19-3.09-4.32-3.44-7.06s-.41-5.35-.59-8c.26-7.28.42-14.57.81-21.87.11-2.24-.35-5.52,3.29-5.35,3.44.15,3,3.25,3.11,5.61.2,8.21.29,16.43.42,24.67a37.16,37.16,0,0,1-.46,5.31C1456.73,788,1459.21,792.47,1454.18,792.23Zm-3.11-98c0-1.6,1.71-2.59,3.36-2.4,2.15.22,3,1.82,2.94,3.86q0,8.69,0,17.35c0,5.79.06,11.58,0,17.35,0,1.75.21,3.92-2.29,4.25a3.24,3.24,0,0,1-3.86-3C1451,719.12,1451,706.66,1451.07,694.19Zm6.25-24.67c-.13,2,.75,4.67-2.46,5-3.57.33-3.63-2.7-4-5-.47-3.29-.55-6.65-.8-10,.16-7.3.27-14.61.53-21.89.11-2.65-.22-6,4-5.7,3.71.26,2.78,3.4,2.85,5.62.24,7.3.29,14.62.42,21.92C1457.67,662.85,1457.56,666.18,1457.32,669.52Zm12.74,124.86a4.45,4.45,0,0,1-4.16.86c-2-1-1.26-3.45-.58-4.87a105.16,105.16,0,0,1,5.57-9.32c4.19-5.86,8.36-11.76,12.62-17.59,1.92-2.61,3.63-6.23,7.67-2.54C1489.43,775.41,1478.38,784.05,1470.06,794.38Zm45.68-83.88a228.4,228.4,0,0,1-15.9,33.49,3.6,3.6,0,0,1-2.94,1.51c-1.79-.33-2.12-2.17-1.69-3.64,3.4-11.67,7.88-22.89,14.46-33.16a3.58,3.58,0,0,1,4.78-1.36A2.64,2.64,0,0,1,1515.74,710.5Zm24.1-50.24c-3.44,7.74-7.15,15.35-10.76,23-.88,1.92-1.72,3.87-2.57,5.8-1.87,1.15-2.77,5-5.75,2.95-1.82-1.25-1.16-4.06-.48-5.95,2.43-6.89,5.13-13.7,7.74-20.53,1.49-3,2.87-6,4.48-8.92,1.27-2.28,2.43-5.66,6-3.71C1541.38,654.52,1541,657.7,1539.84,660.26Zm24.7-54.91a241.86,241.86,0,0,1-17.4,36.45c-3.75-7.64-.87-12.46.95-17.09,3-7.63,6.64-15,10.24-22.37.88-1.79,2.52-4,5-2.65C1565.57,600.88,1565.37,603.13,1564.54,605.35Z"/><path class="cls-2" d="M1539.84,660.26c-3.44,7.74-7.15,15.35-10.76,23-.88,1.92-1.72,3.87-2.57,5.8-1.87,1.15-2.77,5-5.75,2.95-1.82-1.25-1.16-4.06-.48-5.95,2.43-6.89,5.13-13.7,7.74-20.53,1.49-3,2.87-6,4.48-8.92,1.27-2.28,2.43-5.66,6-3.71C1541.38,654.52,1541,657.7,1539.84,660.26Z"/><path class="cls-2" d="M469.06,494c-.24,2.1-.3,4.61-3.31,4.52-3.73-.13-3-3.09-3-5.44,0-5.48,0-11,0-16.47s0-11,0-16.45c0-2.34-.77-5.37,3-5.41,2.85,0,3.18,2.38,3.35,4.54C469.94,470.85,470.35,482.41,469.06,494Z"/><path class="cls-2" d="M1564.54,605.35a241.86,241.86,0,0,1-17.4,36.45c-3.75-7.64-.87-12.46.95-17.09,3-7.63,6.64-15,10.24-22.37.88-1.79,2.52-4,5-2.65C1565.57,600.88,1565.37,603.13,1564.54,605.35Z"/><path class="cls-2" d="M378.43,650.59c-1-.18-1.93-.39-2.9-.57-6.73-10.46-9.8-22.54-14.87-33.73a4.49,4.49,0,0,1,1.5-5.75c2.91-1.66,3.39,1.47,4.18,3.1q6.42,13.08,12.55,26.25C380.55,643.44,381.82,647.17,378.43,650.59Z"/><path class="cls-2" d="M470.13,537.47c-.37,5.38-.72,11.13-1.2,16.87-.17,2.08-.22,4.41-3.38,4.32-3.37-.09-2.81-2.54-2.81-4.56q0-17.8.16-35.61c0-1.72-.16-3.89,2.48-4,2.23,0,3.24,1.35,3.38,3.44C469.21,524.32,469.65,530.68,470.13,537.47Z"/><path class="cls-2" d="M468.84,613.64c-.28,2-1.07,3.49-3.4,3.37-2.52-.15-2.65-2.1-2.67-3.94,0-6.38,0-12.77,0-19.15,0-5.48,0-11,0-16.44,0-2-.62-4.5,2.8-4.54,2.37,0,3.21,1.38,3.38,3.4C470,588.77,470.51,601.22,468.84,613.64Z"/><path class="cls-2" d="M470.31,659.54c-.31,3.28-.46,6.58-1,9.82-.38,2.48,0,6.08-4,5.66-3.59-.37-2.34-3.57-2.46-5.73-.24-4.49-.3-9-.43-13.46.11-6.1.11-12.22.37-18.33.09-2.39-1.6-6.27,2.89-6.23,4,0,3.38,3.81,3.56,6.32C469.78,644.89,470,652.23,470.31,659.54Z"/><path class="cls-2" d="M1457.41,553.13c-.05,1.91.79,4.78-2.39,5a3.83,3.83,0,0,1-4.28-3.84c-.15-11.88-.11-23.75-.06-35.63,0-2.33,1.86-3,3.75-3,2.3,0,3,1.71,3,3.73v17.37h.06C1457.47,542.17,1457.56,547.65,1457.41,553.13Z"/><path class="cls-2" d="M1455,616a3.76,3.76,0,0,1-4.19-3.9q-.09-17.75.22-35.53a3,3,0,0,1,3.56-3.2c2.35.26,2.74,2.15,2.78,4,.05,6.08,0,12.17,0,18.25h0c0,5.17.09,10.35-.05,15.52C1457.28,613,1458.35,615.88,1455,616Z"/><path class="cls-2" d="M1454.86,674.49c-3.57.33-3.63-2.7-4-5-.47-3.29-.55-6.65-.8-10,.16-7.3.27-14.61.53-21.89.11-2.65-.22-6,4-5.7,3.71.26,2.78,3.4,2.85,5.62.24,7.3.29,14.62.42,21.92-.16,3.34-.27,6.67-.51,10C1457.19,671.49,1458.07,674.19,1454.86,674.49Z"/><path class="cls-2" d="M1457.41,476.89h-.05c0,5.78,0,11.55,0,17.32,0,1.84-.1,3.73-2.74,3.75a3.32,3.32,0,0,1-3.64-3.23c-1.18-12.14-.48-24.27,0-36.38.07-2.1,1.6-3.15,3.8-2.85,2.43.35,2.61,2.22,2.63,4.06C1457.45,465.33,1457.41,471.1,1457.41,476.89Z"/><path class="cls-2" d="M461.15,803.28c-12.4-5.76-17.2-19.09-27-27.43-1.22-1-1.38-4.43,1.14-5.39,3.16-1.21,5.86.06,7.79,3a145,145,0,0,0,19.28,23c.65.62,1.38,1.14,2.08,1.71C465.09,801,464.54,803,461.15,803.28Z"/><path class="cls-2" d="M403.91,703.16c-2.44,1.11-4.15-.58-5.22-2.53-5.73-10.48-9.54-21.75-13.4-31.91-.06-2.58-.42-4.38,1.27-5.08,2.24-.94,3.56,1.05,4.28,2.5q7.44,15.23,14.51,30.68C406.34,699,406.87,701.8,403.91,703.16Z"/><path class="cls-2" d="M428.43,755.87c-2.75,1-4.67-1-5.68-3.33-4.28-10.07-8.49-20.15-12.53-30.31-.7-1.75-1.6-4.29,2.22-4.87,1.07,1.21,2.57,2.37,3.36,3.89,4.73,9.18,9.44,18.37,13.83,27.71C430.66,751.14,432.44,754.47,428.43,755.87Z"/><path class="cls-2" d="M468.84,732.1c-.31,2.3-1.55,3.12-3.68,2.85-2.61-.31-2.28-2.39-2.3-4.12-.05-6.08,0-12.15,0-18.24h-.06c0-5.77,0-11.54,0-17.31,0-1.71-.44-3.84,2.13-4.23a3,3,0,0,1,3.8,2.89A147.27,147.27,0,0,1,468.84,732.1Z"/><path class="cls-2" d="M470.35,777.19c-1.82,5.44,1.25,12.54-5.5,16.34-4.28-13.58-1-27.53-2-41.28-.11-1.75.82-2.74,2.7-2.8,2.94-.07,3.47,1.91,3.6,4.16C469.57,761.46,469.94,769.32,470.35,777.19Z"/><path class="cls-2" d="M1457.37,730.35c0,1.75.21,3.92-2.29,4.25a3.24,3.24,0,0,1-3.86-3c-.22-12.45-.24-24.91-.15-37.38,0-1.6,1.71-2.59,3.36-2.4,2.15.22,3,1.82,2.94,3.86q0,8.69,0,17.35C1457.39,718.79,1457.45,724.58,1457.37,730.35Z"/><path class="cls-2" d="M1491.18,760.92c-1.75,14.49-12.8,23.13-21.12,33.46a4.45,4.45,0,0,1-4.16.86c-2-1-1.26-3.45-.58-4.87a105.16,105.16,0,0,1,5.57-9.32c4.19-5.86,8.36-11.76,12.62-17.59C1485.43,760.85,1487.14,757.23,1491.18,760.92Z"/><path class="cls-2" d="M1515.74,710.5a228.4,228.4,0,0,1-15.9,33.49,3.6,3.6,0,0,1-2.94,1.51c-1.79-.33-2.12-2.17-1.69-3.64,3.4-11.67,7.88-22.89,14.46-33.16a3.58,3.58,0,0,1,4.78-1.36A2.64,2.64,0,0,1,1515.74,710.5Z"/><path class="cls-2" d="M1454.18,792.23c-4.29-.19-3.09-4.32-3.44-7.06s-.41-5.35-.59-8c.26-7.28.42-14.57.81-21.87.11-2.24-.35-5.52,3.29-5.35,3.44.15,3,3.25,3.11,5.61.2,8.21.29,16.43.42,24.67a37.16,37.16,0,0,1-.46,5.31C1456.73,788,1459.21,792.47,1454.18,792.23Z"/><path class="cls-2" d="M1543.79,436.29c-13.72-2.26-25.38-8.67-36.16-16.91,12.46.76,23.33,5.67,34.21,10.56C1541,432.52,1551.62,431.58,1543.79,436.29Z"/><path class="cls-2" d="M1401.3,197.37c-1.49,2.49-3.53,2-5.23,2q-39.87.24-79.73.32c-2,0-5,.74-5.25-2.09s2.77-2.67,4.81-2.67q41.25.06,82.49.22A2.88,2.88,0,0,1,1401.3,197.37Z"/><path class="cls-2" d="M1412.28,197.93c4.93-4.73,10.23-2.64,15-2.93,1.21-.08,1.91,1.27,1.53,2.68a2.43,2.43,0,0,1-2.77,1.82C1421.93,199.1,1417.63,200.76,1412.28,197.93Z"/><path class="cls-2" d="M1665.84,197.32c-.92,2.65-3.4,2-5.36,2q-39.93.3-79.86.41c-2,0-5.1.76-5.13-2.17,0-2.61,3-2.57,5.06-2.57q40.86,0,81.7.05C1663.8,195.05,1665.34,195.31,1665.84,197.32Z"/><path class="cls-2" d="M1544.65,198.07c4.81-4.71,10-2.76,14.76-2.84.58,0,1.54,1,1.71,1.75a1.87,1.87,0,0,1-1.94,2.38C1554.63,199.06,1549.8,201,1544.65,198.07Z"/><path class="cls-2" d="M1677.62,198.09c.31-.74.35-1.12.54-1.23a16,16,0,0,1,15.22-.39,3.83,3.83,0,0,1-.29,2.26C1687.92,199.66,1682.69,200.89,1677.62,198.09Z"/><path class="cls-2" d="M1012.69,310.43c5.81,0,11.62,0,17.44,0,2.26,0,4.31.47,4.36,3.43s-1.94,3.48-4.26,3.48c-11,0-22,.06-33-.06-2.86,0-6.08-1.05-6-4.34.11-3.49,3.63-2.41,5.85-2.48C1002.28,310.32,1007.49,310.42,1012.69,310.43Z"/><path class="cls-2" d="M678.23,336.53c2.17.08,4.25-.27,5,2,.87,2.76-1.4,3.57-3.15,4.76-4.32,2.95-9.38,1-14,2.23-6.57,1.71-13.15,3.42-19.79,4.81-1.82.39-4.64,1.32-5.43-1.63s1.1-4.56,3.77-5.13C656,341.16,667.27,338.82,678.23,336.53Z"/><path class="cls-2" d="M1211.73,335.7c-15.28,1-27.85-3.15-40.7-4.58-1.73-.19-3.56-1.22-3.66-3.5-.09-2.07,1.45-2.63,3-2.51,12.44,1,24.91,1.77,36.89,5.63C1208.44,331.12,1209.19,332.81,1211.73,335.7Z"/><path class="cls-2" d="M741,329.73c.19,2.74-2,2.58-3.69,2.93q-16.55,3.4-33.11,6.8c-2.37.48-4.53-.12-5.06-2.62-.42-2,1.15-3.54,3-4a199,199,0,0,1,34.14-6.26C738.56,326.33,740.59,327,741,329.73Z"/><path class="cls-2" d="M1146.11,328.32c-10.24-1.15-20.48-2.27-30.72-3.46-2.82-.32-6.18-1.24-6.13-4.3.07-4.22,4.09-2.75,6.38-2.51q15.39,1.62,30.7,3.91c2.55.38,6,1.32,5.23,4.93C1151,329.5,1148.05,328.12,1146.11,328.32Z"/><path class="cls-2" d="M768.43,329.14c-3.66-2.17-10.31,2.56-10.69-3.21-.37-5.39,6.38-4,10.3-4.41,8.8-1,17.63-1.71,26.46-2.42,2-.16,4.53-.66,4.94,2.49.39,2.92-1.7,3.59-3.92,3.9C786.47,326.74,777.4,327.93,768.43,329.14Z"/><path class="cls-2" d="M1079.44,321.48c-7.7.57-15.14-1.82-22.76-2.14-2.81-.12-5.93-.84-5.53-4.55s3.64-2.58,5.84-2.4c10,.79,20,1.69,30,2.77,2.57.27,6.44.2,6.23,3.85-.23,4.1-4.16,2.08-6.5,2.39A55.64,55.64,0,0,1,1079.44,321.48Z"/><path class="cls-2" d="M1232.69,335.35c9.17,1.71,18.43,3.31,27.63,5.23,2.51.52,6.32,1,5.89,4.48-.49,4-4.35,2.46-6.68,2.06-9.53-1.62-19-3.59-28.49-5.48-2.41-.48-5.63-1.34-5.22-4C1226.44,333.57,1230.23,336.36,1232.69,335.35Z"/><path class="cls-2" d="M1437,393.56c-13.18-1.32-25.64-5.26-37.84-10.07-1.64-.65-3.17-2.24-2.19-4.37.73-1.61,2.54-1.69,4-1.29C1413.59,381.39,1426.68,383.93,1437,393.56Z"/><path class="cls-2" d="M512.7,382.45c-2.82,6-8.43,6-13,7.74-7.31,2.84-14.52,5.95-21.89,8.6-1.77.64-4.57.93-5.63-1.42a3.18,3.18,0,0,1,2.19-4.36c11.49-3.93,22.32-9.88,34.59-11.41C510,381.47,511.12,382.07,512.7,382.45Z"/><path class="cls-2" d="M457,401.42c-10.8,11.23-25.36,13.7-39.85,16.31C428.63,408.07,442.69,404.43,457,401.42Z"/><rect class="cls-1" width="1" height="1"/><rect class="cls-1" y="1079" width="1" height="1"/><rect class="cls-1" x="1919" width="1" height="1"/></g><g id="Capa_3" data-name="Capa 3"><path d="M799.83,489.25v111H780V529.53L760.5,544.44,744.32,557l-16.18-12.54-19.51-14.91v70.75H688.8v-111l19.83,15.22,35.69,27.44L780,504.47Z"/><path d="M853.76,526.2v75.51H833.93V524.14a15.8,15.8,0,0,0-13.48-13.48H816V491h4.29v.16a35.55,35.55,0,0,1,13.48,3.65,35.17,35.17,0,0,1,16,16.18,42.26,42.26,0,0,1,2.7,7.45,33.53,33.53,0,0,1,1,8.09Z"/><path d="M980.17,489.25v111H960.34V554.6H901.81A31.42,31.42,0,0,1,886.9,551a32.42,32.42,0,0,1-17.76-29V489.25H889v32.67a13.06,13.06,0,0,0,13,13H960.5V489.25Z"/><path d="M1066.29,489.25a35.81,35.81,0,0,1,35.85,35.84v39.18a35.81,35.81,0,0,1-35.85,35.85H1032a35.81,35.81,0,0,1-35.85-35.85V525.09A35.81,35.81,0,0,1,1032,489.25ZM1032,509.07a16.25,16.25,0,0,0-16.18,16.18v39.18A16.25,16.25,0,0,0,1032,580.61h34.26a16.25,16.25,0,0,0,16.18-16.18V525.25a16.25,16.25,0,0,0-16.18-16.18Z"/><path d="M1219.67,544.29a32.75,32.75,0,0,1-23.48,55.51h-45.52a32.59,32.59,0,0,1-30.14-20A34.5,34.5,0,0,1,1118,567V521.44a32.16,32.16,0,0,1,8.25-21.41,33.65,33.65,0,0,1,9.52-7.45,31.42,31.42,0,0,1,14.91-3.65h69v19.83h-69a13.06,13.06,0,0,0-13,13v15.55a32.48,32.48,0,0,1,12.37-2.54h46.8a32.77,32.77,0,0,1,23,10ZM1196,580a13.06,13.06,0,0,0,13-13,12.92,12.92,0,0,0-12.21-13H1150a13,13,0,0,0,.64,26H1196Z"/></g></g></svg>