<svg xmlns="http://www.w3.org/2000/svg" viewBox="0 0 1920 1080"><defs><style>.cls-1{fill:#f2f2f2;}.cls-2{fill:#010101;}</style></defs><g id="Capa_2" data-name="Capa 2"><g id="Capa_1-2" data-name="Capa 1"><rect class="cls-1" width="1" height="1"/><rect class="cls-1" x="1919" y="1079" width="1" height="1"/><rect class="cls-1" y="1079" width="1" height="1"/><rect class="cls-1" x="1919" width="1" height="1"/></g><g id="Capa_3" data-name="Capa 3"><path class="cls-2" d="M993.63,213.49l-68.7.08c-3,.26-8.17-.83-7.91,3.37.29,4.45,5.33,4.71,9.16,3.94,9.93-2,20-1.56,30-1.52,12.2.06,24.45-.88,36.59,1.33,3.18.57,7,.66,7.56-3.34C1001.05,212.06,996.25,213.84,993.63,213.49Zm0,0-68.7.08c-3,.26-8.17-.83-7.91,3.37.29,4.45,5.33,4.71,9.16,3.94,9.93-2,20-1.56,30-1.52,12.2.06,24.45-.88,36.59,1.33,3.18.57,7,.66,7.56-3.34C1001.05,212.06,996.25,213.84,993.63,213.49Zm772.18,168.26c-.62-43.24-1-86.49-.71-129.71l-4.49-2.77c-12.22-10.51-22.82-19.55-33.34-28.71-6-5.24-12.43-8.63-20.45-4.69-7.61,3.72-10.61,10-10.42,18.38.23,10.65-.4,21.32.13,32,.34,6.82-2.27,8.35-8.6,8.34q-109.58-.23-219.15,0a69.64,69.64,0,0,1-23.92-3.86c-15.29-5.49-30.78-10.35-46.15-15.59-5.77-2-13.76-1.51-12.69-11.5.24-2.32-3.06-2.91-5.06-3.46q-37.45-10.37-75-20.5c-3-.79-6.44-1.59-6.92,3.32.29,6.4-3.32,5.05-7,3.52-35.15-6.66-70.28-13.36-105.66-18.89q-59.46-9.3-119.35-14c-32-2.51-64.22-5-96.45-4.17l-25.38.27c-59.88,0-156.9,10.19-156.9,10.19a1507.67,1507.67,0,0,0-159.11,27c-4.5,1-7.73,1.74-8.64-4.23-.7-4.62-4.29-3.75-7.36-2.91q-37.53,10.22-75,20.53c-2.5.68-5.68,1.95-4.87,4.73,2.34,8-3.59,7.67-8.14,9.17-16.34,5.38-32.72,10.62-48.92,16.43-8.75,3.13-17.61,4-26.74,4-71.79.05-143.59,0-215.38.34-8.73.06-11.44-2.52-10.79-11.13.74-10-.07-20,.22-30.07.22-7.59-2.06-13.43-9-17.13-7.39-3.93-13.92-2.29-19.89,2.81-11.19,9.53-22.29,19.16-35.08,30.17l-4.81,6.11v17.51c-.87,38.2.12,76.43-.58,114.62a95,95,0,0,0,5.48,34.84A60.3,60.3,0,0,1,163.42,443c.08,16.92.84,33.85.09,50.73-.39,8.7,3.77,13.82,8.85,19.68,7.46,8.58,18.12,14.15,23.25,24.86,27.85,15.74,58.13,5.5,87.21,8.14,3.49.32,5.64-2.33,8.26-3.93,4.13-13.83,1.13-28,2-42,.2-3.13.13-6.27,0-9.4-.2-6.68,3.81-10.05,9.23-12.79s9.7.07,12.38,3.62c4.42,5.88,9.9,6.55,16.43,6.46,18.18-.26,36.37.22,54.55-.33,7.72-.23,11,2.49,12.93,9.89,14.78,56.16,29,112.51,45.43,168.2,6.89,23.45,6.47,45.5,1.71,68.94-6.16,30.28-14.14,60.36-15.38,91.5-.16,4.07-3.19,4.85-6,6.15-11.08,5.09-22.1,10.3-33.2,15.39-5.1,2.33-7.1,5-3.85,10.86l29,62.58c2.28,6.31,6.1,5.59,10.62,3.44,11.54-5.46,23.35-10.48,34.5-16.67a61.2,61.2,0,0,1,38-7.66c22.64,2.78,42.12-4.8,61.59-15.25a777,777,0,0,1,121.32-52C731.64,815,782.48,802.51,834.5,794.78c23.19-3.46,46.44-6.53,70-5.66,3.72.08,10.31-3.77,10.6.88.65,10.65,7.52,8,13.18,8.17l69.12-.25c3.15,0,7,.45,6.68-4.24-.48-7,4-5.43,8-5.33,87.09,2.11,170.12,23.26,251,54.07,37.43,14.25,73.57,31.36,109.25,49.64,28.93,14.8,58.68,13.22,85.23-6.33s36-47.31,30.43-79.67c-5-28.94-10.91-57.72-16.32-86.59-2-10.72-4-21.18-.94-32.39,17.36-63.62,34.25-127.35,51.11-191.08,1.55-5.88,4.25-7.94,10.36-7.84,19.74.35,39.5,0,59.26.12,4.91,0,9.14-.77,12.61-4.77,3.8-4.39,8.15-7.73,14.71-5,7.07,2.92,8.33,8.73,8.37,15.28.07,12.23,0,24.45.13,36.68.19,13.71,2.42,16,15.76,16.12,17.87.1,35.76-.49,53.61.13,11.6.4,20.68-3.83,28.65-11.52,34.84-33.65,31.08-25,31.37-70.93.09-14.63-2-29.49,3.48-43.75C1764.93,408,1766,395,1765.81,381.75ZM1378.7,283.08c1.44-4.16,4.56-.58,6.75.12,7.13,2.29,14.1,5.05,21.27,7.18,2.36.7,6,2.06,7.22-1.69s-2.27-4.65-4.91-5.51c-7.72-2.46-15.47-4.86-23.26-7.11-3.4-1-7.08-1.39-5.62-6.49,1.52-5.27,5-3.37,8.24-2.29,18,6.06,36.14,11.92,54.06,18.34a58.14,58.14,0,0,0,20.15,3.45q82.25-.18,164.48-.06c2.63,0,6.28-1.65,7.78,1.29,1.62,3.21-1.51,5.81-3.42,8.05-4.59,5.35-10,9.42-17.59,9.45q-72.37.15-144.75.42c-4.4,0-7.66-2.06-11.09-4.33-7.53-5-15-10.26-24.31-11.39-1.92-.23-4.78-1.32-5.81,1.29s1.68,3.58,3.34,4.85c5.08,1.83,10.57,2.84,16.06,9.43l-16-4.49c-15.74-5-31.5-10-47.19-15.16C1381.54,287.59,1377.54,286.41,1378.7,283.08ZM634.1,240.54c22.67-4.55,45.32-9.23,68.11-13.23A1567.32,1567.32,0,0,1,949.76,204l54.11.06q88.35,4.35,175.78,17.08c35.89,5.23,71.51,12,107,19.48,2.85.59,6.79.78,5.61,5.55-1.16,4.56-4.42,2.13-6.88,1.71-7.71-1.29-15.37-2.93-23.09-4-2-.29-5.45-2-6,2-.46,3.3,2.63,4.14,4.9,4.68,7,1.68,14,3,21,4.39,2.63.49,6.63-.38,6,3.82-.72,4.62-4.75,1.93-6.87,1.44-33.43-8-67.13-14.61-101.16-19.53-101.71-14.73-203.92-19.76-306.55-13.56a1545.37,1545.37,0,0,0-171.5,19.64c-21.18,3.68-41.82,9.33-62.88,13.26-2.46.46-6.24,2.71-7.18-1-1-4,3.14-3.52,5.78-4.1,7.31-1.57,14.63-3.15,21.85-5.05,2.28-.6,5.41-1.65,4.42-4.93-.84-2.81-3.73-1.69-5.69-1.37-7.71,1.29-15.37,2.88-23.06,4.27-2.75.49-6.48,3.54-7.78-1.35C626.21,241.28,631,241.16,634.1,240.54Zm645.65,34.68c-4.38,3.73-9.45,2.73-14.34,1.66A1375.55,1375.55,0,0,0,983.23,245l-47.84,0c-94.5,1.07-188,11.21-280.23,32a27.28,27.28,0,0,1-9.31.55c-4.57-.56-9.24-2.95-9.27-7.71,0-4.44,5.21-3,8.27-3.73,49.23-12.13,99.25-19.89,149.56-25.48a1441.83,1441.83,0,0,1,155.61-9l21.2-.22c67.32,1.23,134.34,5.87,201.07,15.37,35.58,5.07,70.67,12.31,105.78,19.58,2.37.5,5.47.48,6,3.35S1281.61,273.65,1279.75,275.22ZM285.27,290.5c1.16-3.07,4.39-1.44,6.64-1.44,52-.07,104-.62,156,.29,17.9.32,33.72-5.31,50-10.72q16.87-5.6,33.78-11.16c3.21-1.06,6.72-3,8.31,2.15,1.51,5-1.84,5.47-5.46,6.46-7.82,2.15-15.56,4.64-23.2,7.36-2.38.84-6.46,1.48-5.59,5.1,1.07,4.54,5.2,2.16,7.85,1.8,5.73-.77,10.6-4.72,16.57-4.94,3-1.26,5.75-3.88,9.37-2.83a2.1,2.1,0,0,1,.82,3.18c-2.49,3.56-6.31,3.41-10.06,3.28-16.85,6.86-33.74,13.5-51.93,15.45,1.81-4.12,5.55-3.83,8.28-5.51,1.92-1.17,4.06-2.68,3.12-5.11-1-2.65-3.87-2-5.68-1.16-7.59,3.66-15.25,7.27-22.44,11.66a24.15,24.15,0,0,1-13.13,3.94q-68.15-.1-136.25-.06c-9.84,0-18.69-1.82-24.29-11.09C286.62,295,284.34,293,285.27,290.5Zm170.21,472c3.1-17.86,7-35.59,10.3-53.43a47.46,47.46,0,0,0-.76-21.38Q438.83,590.5,412.86,493.2c-4.09-15.18-9.72-19.54-25.31-19.71-17.24-.18-34.49-.08-51.73-.05-4.79,0-8.82-1-12.86-4.3-8.63-7.08-18.58-8.69-29-3.61-10.6,5.2-15.69,14-15.77,25.69s-.13,23.19.19,34.77c.13,4.51-1.21,6-5.77,5.9-17.24-.3-34.49,0-51.73-.39-14.22-.32-42.36-29.38-42.55-43.6-.13-8.76-.16-17.54,0-26.32.45-18.83.28-37.47-6.79-55.46-2.38-6.06-2.44-12.87-2.44-19.49,0-38.86.11-77.72-.16-116.59,0-6.56,2-11.21,7.09-15.34,8.73-7.12,17-14.78,25.52-22.17,1.61-1.39,3.29-3.38,5.72-2,2,1.1,1.13,3.36,1.15,5.09.13,10.35,0,20.7.21,31,.42,17,6,22.48,22.76,22.53,12.23,0,24.46.08,36.68-.25,4.91-.13,7.73.84,9.82,6,5.43,13.39,15.58,20.58,30.49,20.56,42,0,84.1-1.63,126,.57,34.26,1.81,65.41-7.4,96.8-18.11,3.1-1.05,7.43-4.84,9.24.71,1.54,4.7-.29,8.88-6.07,10.79q-27.13,9-54,18.7c-26.94,9.67-40.28,28.39-40.38,56.8-.17,43.25-.14,86.5-.19,129.76,0,1.88-.07,3.76.07,5.63.19,2.42,3.29,6-1.14,6.68-3.85.61-3.06-4.06-3.84-6.33-2-5.88-3.16-12.08-5-18-.65-2.14-1.26-5.57-4.74-4.46-2.59.86-2,3.38-1.4,5.64,2.76,10.56,5.33,21.16,8.18,31.69.87,3.22,1.88,8.52,6,2,3.36-5.33,4.67-.51,5.17,1.23,1.63,5.64,2.57,11.47,3.77,17.22a236.91,236.91,0,0,1,11.34,41.34q2.17,8.43,4.32,16.85c5.34,12.72,8.47,26,10.95,39.56,1,6.58,7.3,13,.57,19.93-.57.58.3,3,1,4.26a115.55,115.55,0,0,0,18,26.2c2.26,2.46,5.21,5.43,7.63-.21,1.35-3.13,3.39-1.74,5.35-.63a54.87,54.87,0,0,0,26.84,7.2c3,0,6.82-.17,7.44,4s1.47,8.82-.6,12.92c-1.34,2.65-3.76,1.06-5.8.52-5.37-1.43-9-5.37-13.18-8.69-2-1.64-4.36-5.66-7.82-2.23-3.7,3.68-.48,6,2.19,8.37a26.6,26.6,0,0,1,2.46,3c-5.3,2-10.4,3.53-15.1,5.88-25.47,12.67-37.73,38.56-31.88,68.5,1.16,5.88.05,8.85-5.18,10.95-6.56,2.6-12.42,7-20.43,8.43C447.05,801.56,452.05,782.16,455.48,762.54ZM427.63,915.89c-2.07,1-4.49,1.92-5.66-.71l-20.43-43.63c-6-16.82-7.31-16.35,9.48-24.16,18.41-8.58,36.83-17.08,55.23-25.68,12.58-5.88,14.21-9.16,11.54-22.64-6-30.29,13.44-58,44-63.32a17.81,17.81,0,0,1,10.88,1.31c6,2.79,11.19,8.56,18.73,3.44.72-.49,2.86.83,4.18,1.6,20.8,11.85,31.67,37.45,24.6,60.63-4.64,15.21-10.9,29.93-16.62,44.8a15.7,15.7,0,0,1-8,8.91ZM547,720.35c0-7.09,2.08-8.19,8.11-5.72a64.54,64.54,0,0,1,21,13.75q11.57,11.39,23.15,22.74c-12.1.57-22.95-1.26-31.74-9.49-3.35-3.13-7.5-6.11-11.81-7.37C548.16,732,547,727.37,547,720.35Zm366.13,51.82c-1.23,3.24-5,.91-7.6,1-53.45,1.49-105.74,10.65-157.38,24-26,6.74-51.39,15.49-77,23.6-53.87,18.66-104,46.31-157.14,66.78,5.48-7.2,13.57-9.45,20.89-13,37.6-18,30.65-11.5,45.19-48.31,5.07-12.82,10.2-25.5,9.91-39.64-.2-9.55-3.24-18.33-7.24-27.44,4.68-1.65,8.73.1,12.77.83,3.64.64,6.68,1.58,10.3-1.62,4.28-3.8,8.39,1.5,12.68,2.37q133.43.32,266.84.68c7.69,0,15.88-1.4,22.7,3.68C910.43,766.88,914.52,768.63,913.15,772.17Zm83.55,12.77c-.3,4.44-1.46,5.9-6,5.84-20.37-.23-40.75-.27-61.11,0-5,.07-6.77-1.41-6.32-6.35.67-7.57.3-15-4.82-21.35-6.88-7.44-15.52-9.34-25.41-9.33-83,.23-166-.29-249,.52-23.09.22-41.38-6-55.62-24.63a62,62,0,0,0-32.81-22.46c-5.26-1.47-9.49-3-8.91-9.67.18-2-1.93-2.1-3.42-2.47-1.89,9.56-8.09,9.43-15.84,7.75-21.4-4.6-35.87-17-42.62-37.67-4-12.4-6.78-25.23-10.09-37.88Q463.82,585.92,453,544.61a74.69,74.69,0,0,1-5.48-29.16q-.11-65.31.06-130.64c.08-23.45,11.84-40.65,33.85-48.92,17.82-6.69,35.93-12.61,53.9-18.87.6-.22,1.49-.25,1.73-.65,2.47-4.55,11.06,9.38,11-3.78,0-5.22,5.17-9.36,5-14.91l-3.19-19.21c-2.36-8.7-4.44-17.51-7.27-26.08-1.6-4.9.54-5.83,4.49-6.88,19.86-5.29,39.71-10.66,59.47-16.33,5.85-1.69,9.06-1.48,10.35,5.72,1.46,8.2,4.3,16.18,7,24.12l6.57,16.7c5.22,8.72,14.2,11,23.85,8.82a1326.6,1326.6,0,0,1,155.35-25.08c42.39-4.29,84.93-6.46,127.53-7.23l44.11-.52c49.68,2.31,99.38,4.1,148.86,10q67.53,8.14,133.88,22.51c11.09,2.4,20.5-.1,26.85-10.29l5.75-15.54c2.76-8.6,5.09-17.35,7.5-26.09.85-3.1,2.06-5.28,5.62-3.78,21.83,6,43.51,11.84,65.17,17.78,3.46.94,3.89,3,2.78,6.43-2.62,8-4.84,16.15-7,24.3,0,0-3.77,14-3.33,18.89.71,8,1.87,16.12,7.39,22.58,3.56-3,7.33-2.44,11.4-1,16.47,5.74,33.07,11.14,49.49,17,24.84,8.88,36.91,25.43,37.07,51.61q.39,63.44,0,126.9c-.12,22.21-8.37,42.88-13.6,64.05-6.88,27.9-14.73,55.55-22.25,83.29-7.1,26.18-24.48,40.79-51.39,43.43-3.57.35-7.13,1-7.16-4.45,0-2-.9-3.82-3.16-4-3-.18-3.79,2.31-3.73,4.41.11,4.76-2.37,6.15-6.55,7.32A61.44,61.44,0,0,0,1332,729.38c-13.86,18.38-31.8,25-54.61,24.8-82.43-.74-164.87-.36-247.3-.32C1005.15,753.87,998.43,760.09,996.7,784.94Zm754.18-396.77c0,4.66.2,9.72-1.43,13.93-10.42,26.86-7.94,54.87-7.71,82.63.09,9.83-3.53,16.63-9.88,24.06-15.19,17.81-32.81,26.78-56.62,23.1-8.88-1.36-18.18-.51-27.25,0-5.21.29-6.2-1.61-6.08-6.33.32-11.59.19-23.19.07-34.8-.11-11.79-5.62-20.16-16.28-25.29-9.81-4.73-19.09-3.45-27.27,3.09-4.81,3.84-9.71,5-15.56,4.95q-23.5-.3-47,0c-19.47.22-24.12,3.57-29.18,22.28-14.58,54-28.88,108.1-43.31,162.16-1.2,4.52-2,9.26-3.81,13.51-11.31,26.22-1.89,51.7,2.6,77.31,3.66,20.93,8.59,41.67,11.64,62.68,3.71,25.55-4.36,47.52-25.67,62.66C1426,889.8,1401.73,890.52,1378,878a982,982,0,0,0-123.31-54.84C1176.49,795,1096.56,775.27,1013,773.59c-2.31-.05-5.54,1.11-6.33-2.29-.71-3,2.39-4,4.15-5.64,4.81-4.5,10.75-4.44,16.75-4.44q123.67,0,247.37-.08c11.82,0,23.89,1.38,35.09-4.21.76-.39,2-.83,2.56-.48,14.48,10,26.87-2.92,40.35-3.71,3-.17,3.92-3,3-5.78-1.09-3.3-3.73-1.44-5.54-1-9.3,2.45-18.52,5.13-28.42,6.71,13.53-14.24,24.11-31.49,43.85-38.4,3.85-1.35,5.81-.65,5.61,4.06-.28,6.24-.12,12.53,0,18.78.15,5.38,2.57,7.39,7.74,4.67a171,171,0,0,0,26.8-17.28c2.43-1.93,4.23-4.57,2.13-7.22-2.54-3.18-5-.23-7.16,1.35-5.56,4.07-11,8.23-16.59,12.31-1.47,1.07-4.15,3-4.83,1.42-2.38-5.52-.73-11.56-1-17.38-.16-4.33,3.42-3.75,6-4,10.94-1.13,21.79-2.36,31.06-9.17,3-2.2,3.89-1,4.59,2.48,1,4.92,4.39,3.91,6.56,1,6.3-8.56,13.37-16.63,18.24-26.18.8-1.58,1.78-4.37,1.07-5.2-6.17-7-.75-13.51.56-20.18a216.49,216.49,0,0,1,9.14-33.86c.8-9.24,4.74-17.62,7.2-26.39,2.38-14.17,6.41-27.92,11-41.49,6.62-22.48,6.48-45.55,6.35-68.67-.18-32.19.08-64.39,0-96.57-.1-30.13-14-49.35-42.27-59.26-17.32-6.06-34.59-12.24-51.89-18.37a6.45,6.45,0,0,1-5.86-2.22,9.57,9.57,0,0,1-1.32-10.44c1.65-3.39,5-.07,7.34.42,3.86.78,7.49,2.67,11.23,4.1,20.61,6.07,40.66,14.11,62.63,15,8.82.38,17.46-.74,26.21-.68,41.08.26,82.16-.06,123.22.13,15.92.07,27-6.59,32.88-21.45,1.64-4.17,4.27-5.29,8.65-5.17,13.15.34,26.33.34,39.5.17,14.7-.19,20.34-5.81,20.61-20.64.25-12.75.06-25.51.06-40.76a317.79,317.79,0,0,1,38,33c2.32,2.39,1.58,5.93,1.58,9.06Q1750.94,328.92,1750.88,388.17ZM926.18,220.88c9.93-2,20-1.56,30-1.52,12.2.06,24.45-.88,36.59,1.33,3.18.57,7,.66,7.56-3.34.73-5.29-4.07-3.51-6.69-3.86l-68.7.08c-3,.26-8.17-.83-7.91,3.37C917.31,221.39,922.35,221.65,926.18,220.88Zm67.45-7.39-68.7.08c-3,.26-8.17-.83-7.91,3.37.29,4.45,5.33,4.71,9.16,3.94,9.93-2,20-1.56,30-1.52,12.2.06,24.45-.88,36.59,1.33,3.18.57,7,.66,7.56-3.34C1001.05,212.06,996.25,213.84,993.63,213.49Zm0,0-68.7.08c-3,.26-8.17-.83-7.91,3.37.29,4.45,5.33,4.71,9.16,3.94,9.93-2,20-1.56,30-1.52,12.2.06,24.45-.88,36.59,1.33,3.18.57,7,.66,7.56-3.34C1001.05,212.06,996.25,213.84,993.63,213.49Z"/><path class="cls-1" d="M555.56,742.1c-1.32-.77-3.46-2.09-4.18-1.6-7.54,5.12-12.75-.65-18.73-3.44a17.81,17.81,0,0,0-10.88-1.31c-30.54,5.32-49.93,33-44,63.32,2.67,13.48,1,16.76-11.54,22.64-18.4,8.6-36.82,17.1-55.23,25.68-16.79,7.81-15.45,7.34-9.48,24.16L422,915.18c1.17,2.63,3.59,1.66,5.66.71l128-59.45a15.7,15.7,0,0,0,8-8.91c5.72-14.87,12-29.59,16.62-44.8C587.23,779.55,576.36,754,555.56,742.1Zm6.2,61.85c-12.6,7.53-26.23,13-39.61,18.91-.81.36-1.85.21-4,.42-2.56.41-4.8-1.92-6.2-4.77-5.74-11.76-11.39-23.56-16.8-35.47-2.73-6-1.3-10.78,5.18-13.77,11.05-5.1,21.94-10.55,33-15.74,6.44-3,11.37-1.67,14.56,5.15,5.29,11.29,10.87,22.45,16.21,33.71C566.11,796.71,566.46,801.14,561.76,804Z"/><path class="cls-1" d="M1472.74,386.13c-.16-26.18-12.23-42.73-37.07-51.61-16.42-5.87-33-11.27-49.49-17-4.07-1.4-7.84-2-11.4,1-5.52-6.46-6.68-14.61-7.39-22.58-.44-4.86,3.33-18.89,3.33-18.89,2.13-8.15,4.35-16.31,7-24.3,1.11-3.43.68-5.49-2.78-6.43-21.66-5.94-43.34-11.82-65.17-17.78-3.56-1.5-4.77.68-5.62,3.78-2.41,8.74-4.74,17.49-7.5,26.09L1290.87,274c-6.35,10.19-15.76,12.69-26.85,10.29q-66.42-14.37-133.88-22.51c-49.48-5.95-99.18-7.74-148.86-10l-44.11.52c-42.6.77-85.14,2.94-127.53,7.23a1326.6,1326.6,0,0,0-155.35,25.08c-9.65,2.15-18.63-.1-23.85-8.82L623.87,259c-2.68-7.94-5.52-15.92-7-24.12-1.29-7.2-4.5-7.41-10.35-5.72-19.76,5.67-39.61,11-59.47,16.33-4,1.05-6.09,2-4.49,6.88,2.83,8.57,4.91,17.38,7.27,26.08L553,297.68c.12,5.55-5.08,9.69-5,14.91.08,13.16-8.51-.77-11,3.78-.24.4-1.13.43-1.73.65-18,6.26-36.08,12.18-53.9,18.87-22,8.27-33.77,25.47-33.85,48.92q-.21,65.31-.06,130.64A74.69,74.69,0,0,0,453,544.61q10.89,41.29,21.79,82.62c3.31,12.65,6.05,25.48,10.09,37.88,6.75,20.67,21.22,33.07,42.62,37.67,7.75,1.68,13.95,1.81,15.84-7.75,1.49.37,3.6.51,3.42,2.47-.58,6.66,3.65,8.2,8.91,9.67a62,62,0,0,1,32.81,22.46c14.24,18.65,32.53,24.85,55.62,24.63,83-.81,166-.29,249-.52,9.89,0,18.53,1.89,25.41,9.33,5.12,6.32,5.49,13.78,4.82,21.35-.45,4.94,1.33,6.42,6.32,6.35,20.36-.26,40.74-.22,61.11,0,4.56.06,5.72-1.4,6-5.84,1.73-24.85,8.45-31.07,33.38-31.08,82.43,0,164.87-.42,247.3.32,22.81.2,40.75-6.42,54.61-24.8a61.44,61.44,0,0,1,32.91-22.25c4.18-1.17,6.66-2.56,6.55-7.32-.06-2.1.78-4.59,3.73-4.41,2.26.13,3.16,2,3.16,4,0,5.43,3.59,4.8,7.16,4.45,26.91-2.64,44.29-17.25,51.39-43.43,7.52-27.74,15.37-55.39,22.25-83.29,5.23-21.17,13.48-41.84,13.6-64.05Q1473.12,449.58,1472.74,386.13ZM540.53,347.29c0-2.81.2-5.62.36-8.43.13-2.27.53-4.63,3.36-4.76,3.17-.13,3.11,2.49,3.14,4.65.07,5.92,0,11.86,0,17.8,0,5.62.13,11.25-.06,16.86-.07,2.16,1.18,5.65-2.89,5.55-3.22-.08-3.87-2.93-3.91-5.45C540.43,364.76,540.48,356,540.53,347.29Zm7,326.92c0,3.91-.55,7-5.68,5.07-2.62-12.22-.35-24.59-1.26-36.85,1.58-2.5-1.14-8.12,4.46-7.45,4.52.54,2.52,5,2.58,7.65C547.75,653.14,547.49,663.67,547.48,674.21Zm.11-76c0,5.94,0,11.88,0,17.82,0,1.81.12,3.91-2.66,3.91-2.24,0-3.58-1.14-3.73-3.33a298.2,298.2,0,0,1,.15-38.4,3.13,3.13,0,0,1,3.72-3.22c2.11.24,2.17,2.09,2.2,3.54.1,6.56,0,13.12,0,19.68Zm-.14-45.09c-.32,2.44,1.28,6.39-3.2,6.26-4-.1-3.23-3.81-3.56-6.43s-.58-5.51-.86-8.27c.33-8.32.64-16.65,1-25,.12-2.48.19-5.35,3.85-5,3.12.32,2.57,3,2.64,5.06.27,8.34.43,16.68.64,25C547.81,547.56,547.8,550.34,547.45,553.08Zm8.65-83.26c-8.29,5.77-9.55,13-8.75,21.9.23,2.45,2.26,7.27-2.55,7.35-3.72.05-4.49-4.44-4.06-7.39,1.35-9.36-1.71-11.88-11.5-11.56-16.34.55-28-10.14-30.14-26.38a112.92,112.92,0,0,1-.1-28.1c2.05-16.55,13.83-26,31.15-26.46,5.47-.15,11.45,1.45,15.39-5.52a20.58,20.58,0,0,0,7.82,12.43c7,5.76,11.11,13.35,10.85,22.9-.2,7.52.07,15.05,0,22.57C564.21,458.83,561.76,465.9,556.1,469.82Zm816.17-135.48h.51l.17-.47c5.55-.14,5.61,3.7,5.59,7.64,0,10.27.06,20.54-.07,30.81,0,2.55,1,6.41-3.17,6.46-3.67.05-4.09-3.33-4-6.2C1371.55,359.84,1371.92,347.09,1372.27,334.34Zm-.72,184.83c0-2,0-4.78,3.24-4.58,2.68.18,3.64,2.25,3.65,4.61q.09,17.79,0,35.61c0,2.15-.1,4.75-3.23,4.59-2.69-.13-3.66-2.42-3.73-4.62-.21-5.94-.08-11.87-.08-17.81h.12C1371.49,531,1371.37,525.1,1371.55,519.17Zm.6,59c.14-1.4,1.08-3.14,3-2.84a3.73,3.73,0,0,1,3.24,3.89c.06,6.21,0,12.42,0,18.64,0,5.91,0,11.8,0,17.71,0,1.87-.35,3.91-2.82,4a3.55,3.55,0,0,1-3.83-3.36A230.6,230.6,0,0,1,1372.15,578.21Zm6.32,95.43c-.06,2.38.28,5.55-3.33,5.4-2.35-.1-3.78-2.18-3.75-4.65.08-11.86.19-23.72.49-35.59,0-1.65.52-4,3.19-3.7a3.66,3.66,0,0,1,3.31,3.88c.13,6.24,0,12.48,0,18.74h.07C1378.5,663,1378.59,668.34,1378.47,673.64Zm37.69-206.83c-7.18,10.12-17.44,14.37-29.27,13.38-7.64-.63-9.09,1.91-8.45,8.62.33,3.41,1.86,9.39-2.58,9.71-5.36.39-4.66-5.77-4.53-9.53.25-7.83-.33-14.81-8-19.52-2.14-1.33-3.37-4.43-4.59-6.93-7.68-15.91-2.91-44.52,9.53-57.32a12.52,12.52,0,0,0,3.2-5.55c1-3.61,2.58-7.44,6.39-1.9,1.36,2,3,1.68,4.88,1.73,30,.55,39.1,9.95,39.21,42.09C1422.56,449.41,1421.93,458.65,1416.16,466.81Z"/><path class="cls-2" d="M564.21,429c.26-9.55-3.82-17.14-10.85-22.9a20.58,20.58,0,0,1-7.82-12.43c-3.94,7-9.92,5.37-15.39,5.52-17.32.46-29.1,9.91-31.15,26.46a112.92,112.92,0,0,0,.1,28.1c2.1,16.24,13.8,26.93,30.14,26.38,9.79-.32,12.85,2.2,11.5,11.56-.43,2.95.34,7.44,4.06,7.39,4.81-.08,2.78-4.9,2.55-7.35-.8-8.93.46-16.13,8.75-21.9,5.66-3.92,8.11-11,8.14-18.26C564.28,444,564,436.51,564.21,429Zm-10.59,32.84c-.74,2-1.93,4.36-4.56,4-3.33-.5-1.49-3.46-2-5.3-.59-2.1,1.69-5.89-2.12-6-3.51-.07-3.61,3.64-4,6.42-1.84,13.12-3.78,14.18-17,11-10.11-2.47-15.92-9.38-17.45-18.71-1.65-10.1-1.7-20.58,1-30.74,1.92-7.17,6.69-11.92,13.42-14.6,13.43-5.34,19.39-1.45,19.76,12.66.15,5,.34,10,.63,15,.11,2,.7,3.8,3.23,3.7,2.75-.11,2.54-2.29,2.56-4.06.07-7.16,0-14.31,0-22,5.18.61,6.6,3.85,7.39,6.56C558.49,433.77,558.65,447.89,553.62,461.83Z"/><path class="cls-2" d="M544.25,559.34c-4-.1-3.23-3.81-3.56-6.43s-.58-5.51-.86-8.27c.33-8.32.64-16.65,1-25,.12-2.48.19-5.35,3.85-5,3.12.32,2.57,3,2.64,5.06.27,8.34.43,16.68.64,25-.18,2.76-.19,5.54-.54,8.28C547.13,555.52,548.73,559.47,544.25,559.34Z"/><path class="cls-2" d="M544.47,379c-3.22-.08-3.87-2.93-3.91-5.45-.13-8.75-.08-17.48,0-26.22,0-2.81.2-5.62.36-8.43.13-2.27.53-4.63,3.36-4.76,3.17-.13,3.11,2.49,3.14,4.65.07,5.92,0,11.86,0,17.8,0,5.62.13,11.25-.06,16.86C547.29,375.57,548.54,379.06,544.47,379Z"/><path class="cls-2" d="M1422,441.59c-.11-32.14-9.24-41.54-39.21-42.09-1.87-.05-3.52.26-4.88-1.73-3.81-5.54-5.34-1.71-6.39,1.9a12.52,12.52,0,0,1-3.2,5.55c-12.44,12.8-17.21,41.41-9.53,57.32,1.22,2.5,2.45,5.6,4.59,6.93,7.64,4.71,8.22,11.69,8,19.52-.13,3.76-.83,9.92,4.53,9.53,4.44-.32,2.91-6.3,2.58-9.71-.64-6.71.81-9.25,8.45-8.62,11.83,1,22.09-3.26,29.27-13.38C1421.93,458.65,1422.56,449.41,1422,441.59Zm-7.72,6c-.66,16.27-12.21,26.26-28.43,25.39-5.49-.29-8.16-2.05-7.36-7.82a18.38,18.38,0,0,0-.12-4.68c-.26-2.36.15-5.59-3.31-5.63-2.74,0-2.9,2.79-3.35,4.91-.3,1.49-.52,3-.84,4.94a7.13,7.13,0,0,1-5.58-5.87,78.64,78.64,0,0,1,.37-39.64c.53-2,1.31-4.78,4-4.29,3.09.56,1.52,3.58,1.62,5.49.28,4.68,0,9.39.41,14.05.16,2,.65,4.75,3.58,4.63s3.07-2.72,3.11-4.88c.16-6.88.51-13.77.1-20.62-.3-5.28,1.9-7,6.75-7.67a25.65,25.65,0,0,1,29,23.88A160.32,160.32,0,0,1,1414.26,447.6Z"/><path class="cls-2" d="M1378.41,554.81c0,2.15-.1,4.75-3.23,4.59-2.69-.13-3.66-2.42-3.73-4.62-.21-5.94-.08-11.87-.08-17.81h.12c0-5.93-.12-11.87.06-17.8,0-2,0-4.78,3.24-4.58,2.68.18,3.64,2.25,3.65,4.61Q1378.53,537,1378.41,554.81Z"/><path class="cls-2" d="M1375.3,378.78c-3.67.05-4.09-3.33-4-6.2.28-12.74.65-25.49,1-38.24h.51l.17-.47c5.55-.14,5.61,3.7,5.59,7.64,0,10.27.06,20.54-.07,30.81C1378.43,374.87,1379.5,378.73,1375.3,378.78Z"/><path class="cls-2" d="M1378.47,673.64c-.06,2.38.28,5.55-3.33,5.4-2.35-.1-3.78-2.18-3.75-4.65.08-11.86.19-23.72.49-35.59,0-1.65.52-4,3.19-3.7a3.66,3.66,0,0,1,3.31,3.88c.13,6.24,0,12.48,0,18.74h.07C1378.5,663,1378.59,668.34,1378.47,673.64Z"/><path class="cls-2" d="M1378.46,597.9c0,5.91,0,11.8,0,17.71,0,1.87-.35,3.91-2.82,4a3.55,3.55,0,0,1-3.83-3.36,230.6,230.6,0,0,1,.39-38.08c.14-1.4,1.08-3.14,3-2.84a3.73,3.73,0,0,1,3.24,3.89C1378.5,585.47,1378.46,591.68,1378.46,597.9Z"/><path class="cls-2" d="M547.58,616c0,1.81.12,3.91-2.66,3.91-2.24,0-3.58-1.14-3.73-3.33a298.2,298.2,0,0,1,.15-38.4,3.13,3.13,0,0,1,3.72-3.22c2.11.24,2.17,2.09,2.2,3.54.1,6.56,0,13.12,0,19.68h.28C547.59,604.11,547.62,610.05,547.58,616Z"/><path class="cls-2" d="M547.58,642.63c.17,10.51-.09,21-.1,31.58,0,3.91-.55,7-5.68,5.07-2.62-12.22-.35-24.59-1.26-36.85,1.58-2.5-1.14-8.12,4.46-7.45C549.52,635.52,547.52,640,547.58,642.63Z"/><path class="cls-2" d="M1412.37,787.84a22.48,22.48,0,0,1-21.91,22.28,22,22,0,0,1-22.92-22.19c-.08-12.65,10.16-23.07,22.44-22.83C1403.09,765.36,1412.31,774.72,1412.37,787.84Zm-22.32,14.81a14.79,14.79,0,0,0,14.89-14.72c0-8.24-7.38-15.73-15.32-15.53-7.35.19-14.77,8-14.65,15.44A15.52,15.52,0,0,0,1390.05,802.65Z"/><path class="cls-2" d="M1497,505.15c-2.27,8.84-4.89,19.69-8,30.41-.56,1.93-1.36,5.67-4.64,4.63-2.72-.85-2.69-4-2.12-6.49,2.51-10.88,5-21.76,7.87-32.55.52-2,1.11-5.66,4.58-4.52C1497.5,497.53,1497.35,500.54,1497,505.15Z"/><path class="cls-2" d="M1481.27,326.24a24.45,24.45,0,0,1,3.59,2.62A100.65,100.65,0,0,1,1504,357.45c.89,2,1.79,4.64-.4,6-2.47,1.53-5,.05-6.32-2.27-5.83-9.93-11.47-20-18.36-29.25C1477.37,329.84,1477.34,327.23,1481.27,326.24Z"/><path class="cls-2" d="M1512.13,446.66c-2.33,8.61-5.31,19.74-8.41,30.84-.51,1.85-1.68,3.28-4,3.2-2.78-.1-3-2.28-2.79-4a173.15,173.15,0,0,1,9.31-36.11c.55-1.54,2.06-2.79,3.61-2.27C1512.4,439.23,1512.09,441.78,1512.13,446.66Z"/><path class="cls-2" d="M1515.93,410.19c-1.68,3.51,3.08,11.65-3.78,11.61-6.07,0-3.14-8.07-3.8-12.6-1.16-8-2.11-16.07-2.71-24.15-.14-2-.64-5.53,2.79-5.89,2.69-.28,3.34,2.48,3.94,4.5A94.69,94.69,0,0,1,1515.93,410.19Z"/><path class="cls-2" d="M1451.34,653.73l7.74-33.94c.66-3,1.14-6.43,5.51-5.39,3.56.85,2.5,4,2.08,6.17-2,10.66-4.37,21.24-9.1,31.09C1456.31,654.27,1455.17,658.37,1451.34,653.73Z"/><path class="cls-2" d="M1467.91,593.52l8.61-37.35c4.46-1,7,.73,5.84,5.31-2.83,11.12-6.07,22.14-9.16,33.19-.53,1.9-1.57,3.81-3.72,3C1468.56,597.27,1468.41,595,1467.91,593.52Z"/><path class="cls-2" d="M423,475.23c-.24,2.61.88,5.23-2.64,5.46-2.54.17-4.34-.92-4.88-3.33-2.63-11.78-5.14-23.58-7.64-35.39-.25-1.19-.24-2.66,1.34-2.94a4.68,4.68,0,0,1,5,1.79c2.65,3.67,3,8.09,4,12.29C419.93,460.66,421.5,468.24,423,475.23Z"/><path class="cls-2" d="M441.75,329.42a39.27,39.27,0,0,1-2,4.23c-5.71,9-11.43,17.91-17.27,26.78-1.14,1.73-2.69,4.11-5.16,2.74-1.92-1.06-1.06-3.48-.4-5.15,4.38-11.1,9.45-21.8,18.82-29.75,1.39-1.18,3-2.51,5-1.41C441.3,327.19,441.38,328.45,441.75,329.42Z"/><path class="cls-2" d="M443.28,556c5.44,13.25,8.18,27.15,10,41.28-2.6,2.6-4.8,2.85-6.27-1.08-4.49-12-6.76-24.59-9-37.14C437,553.94,440.66,555.59,443.28,556Z"/><path class="cls-2" d="M403.78,406.7c-.18-8.23,2-16.05,4.31-23.81.51-1.68,1-3.92,3.48-3.69,2.63.25,2.45,2.59,2.29,4.33-1.1,12.11-2.33,24.2-3.54,36.3-.12,1.25-.53,2.74-1.95,2.6a4.39,4.39,0,0,1-2.86-2C403,416.15,403.87,411.35,403.78,406.7Z"/><path class="cls-2" d="M458.55,616.33a278.93,278.93,0,0,1,11,37.2c-3.47,3.1-5.94,2.54-7.3-2-3.09-10.31-6.27-20.58-9.18-30.94-.53-1.9-1-4.53.87-6C456,612.91,456.85,616.07,458.55,616.33Z"/><path class="cls-2" d="M564.06,792.39c-5.34-11.26-10.92-22.42-16.21-33.71-3.19-6.82-8.12-8.18-14.56-5.15-11,5.19-21.91,10.64-33,15.74-6.48,3-7.91,7.74-5.18,13.77,5.41,11.91,11.06,23.71,16.8,35.47,1.4,2.85,3.64,5.18,6.2,4.77,2.15-.21,3.19-.06,4-.42,13.38-5.92,27-11.38,39.61-18.91C566.46,801.14,566.11,796.71,564.06,792.39Zm-11.89,8.82c-9.23,3.7-18.06,8.39-27.07,12.66-1.38.65-2.77,1.28-3.54,1.64-3.65,0-4-2.36-4.91-4.31-4.39-9.3-8.6-18.7-13.42-27.78-2.69-5.09-.77-7.25,3.64-9.25q13.57-6.17,27-12.73c4-2,6.38-2.22,8.49,2.85,3.93,9.47,8.74,18.58,13.32,27.78C557.9,796.55,557.44,799.09,552.17,801.21Z"/><path class="cls-2" d="M1087.65,217.42c9.12,1.08,18.11,2.07,27.07,3.24,3,.4,7.18.74,6.59,4.92-.68,4.78-4.63,2.46-7.52,2.13-8.67-1-17.35-1.79-26-2.84-3.66-.45-9.87,1.77-9.8-3.88C1078.06,214.71,1084.49,219.15,1087.65,217.42Z"/><path class="cls-2" d="M805.42,227.84c-2.51.22-5.43.3-5.68-3-.2-2.64,2.32-3.32,4.54-3.81,10.72-2.35,21.61-3.17,32.55-3.52,2.5-.08,6-.35,6.15,2.5.11,2.63-2.54,4.94-5.92,4.79C826.37,224.34,816,226.86,805.42,227.84Z"/><path class="cls-2" d="M1143.5,223.24c10.86,1.76,22.21,3.57,33.55,5.45,2.25.37,4.48,1.21,4.1,4s-2.61,3.18-5,2.82c-11.36-1.73-22.72-3.43-34-5.29-2.52-.42-5.1-1.64-4.52-4.82C1138.17,222.45,1140.93,223.37,1143.5,223.24Z"/><path class="cls-2" d="M1231.44,243.85c-9.62-1.45-19.18-2.74-28.67-4.42-2.63-.47-6.49-1.62-6.14-4.74.44-4,4.56-2.17,6.85-1.93,9.6,1,19.17,2.4,28.71,4,3.19.51,8.43.63,7.87,4.76C1239.45,246,1234.26,242.36,1231.44,243.85Z"/><path class="cls-2" d="M745.49,235.06c-2.65-.12-5.6-.16-6.1-3.22-.67-4.07,3-3.07,5.14-3.44,10.14-1.73,20.29-3.45,30.47-5,2.71-.41,6.46-.58,6.91,2.91s-3.12,4-6,4.37C765.76,232.15,755.57,233.62,745.49,235.06Z"/><path class="cls-2" d="M879.52,221.52l-15.83.9c-2.06.12-4.48,1-4.43-2.65,0-2.13.6-3.82,2.87-4q18.6-1.08,37.23-1.93c2.23-.1,3.3,1.31,3.18,3.58-.14,2.82-1.91,3.64-4.36,3.64q-9.33,0-18.66,0Z"/><path class="cls-2" d="M688.06,243.79c-2.6-.89-6.65,1.69-7.41-1.95-.91-4.34,3.73-4.56,6.44-5,9.84-1.69,19.76-3,29.67-4.17,2.11-.25,5.61-1.63,5.89,2.32.21,3-2.49,4.17-5.06,4.57C707.72,241,697.83,242.4,688.06,243.79Z"/><path class="cls-2" d="M1037.31,221.13c-5,0-10,.06-15,0-2.11,0-4.64.22-4.82-3-.16-2.85,1.8-4,4.15-3.93,11.83.4,23.65,1,35.46,1.57a2.91,2.91,0,0,1,2.89,3c0,2.16-2,1.75-3.33,2.31C1050.23,223.79,1043.76,221,1037.31,221.13Z"/><path d="M800.83,437V548H781V477.25L761.5,492.16l-16.18,12.53-16.18-12.53-19.51-14.91V548H689.8V437l19.83,15.22,35.69,27.44L781,452.19Z"/><path d="M854.76,473.92v75.5H834.93V471.86a15.8,15.8,0,0,0-13.48-13.48H817V438.71h4.29v.16a35.4,35.4,0,0,1,29.5,19.83,42.26,42.26,0,0,1,2.7,7.45,33.47,33.47,0,0,1,1,8.09Z"/><path d="M981.17,437V548H961.34V502.32H902.81a31.42,31.42,0,0,1-14.91-3.65,32.42,32.42,0,0,1-17.76-29V437H890v32.67a13.06,13.06,0,0,0,13,13H961.5V437Z"/><path d="M1067.29,437a35.81,35.81,0,0,1,35.85,35.84V512a35.81,35.81,0,0,1-35.85,35.85H1033A35.81,35.81,0,0,1,997.18,512V472.81A35.81,35.81,0,0,1,1033,437ZM1033,456.79A16.25,16.25,0,0,0,1016.85,473v39.18A16.25,16.25,0,0,0,1033,528.33h34.26a16.25,16.25,0,0,0,16.18-16.18V473a16.25,16.25,0,0,0-16.18-16.18Z"/><path d="M1229.71,528.49v19.82H1119V515.64a31.7,31.7,0,0,1,2.7-12.85,32.56,32.56,0,0,1,28.87-20h48.06a13,13,0,0,0-1.11-25.86h-78.2V437.12h78.2a32.63,32.63,0,0,1,32.67,32.68,32.33,32.33,0,0,1-9.35,22.68,32.93,32.93,0,0,1-22.37,10h-47.9A12.91,12.91,0,0,0,1139,515.32v12.85Z"/></g></g></svg>