<svg xmlns="http://www.w3.org/2000/svg" viewBox="0 0 1920 1080"><defs><style>.cls-1{fill:#f2f2f2;}</style></defs><g id="Capa_2" data-name="Capa 2"><g id="Capa_1-2" data-name="Capa 1"><path d="M1704.87,529.66c-.21-31.66.63-63.32-.82-95-.26-5.62-1.24-10.43-5.86-14-4.17-3.19-6.35-7.26-6.12-12.65.26-6.28-3.7-8.56-9.22-9.09-2.25-.21-4.51-.4-6.76-.4-26,0-52-.07-78,.06-6.68,0-14-.63-16.82,8-.29.86-1.56,1.58-2.54,2-9.63,4.26-21.28-1-24.64-11.11-2.75-8.31-2.78-17.09-4.43-25.59-7.25-37.46-27.91-63.59-64.49-76.17-7.12-2.46-14.33-4.7-21.6-6.67-19.64-5.31-39.32-10.46-59-15.58-4.08-1.07-7.89-1.4-7.66-7.54.32-8.76-.11-9-8.82-11.34-9.81-2.63-19.76-4.8-29.67-7.13-24.93-5.87-49.85-11.84-74.84-17.47-8.85-2-9.08-1.52-13.06,6.48-3.9,7.83-5,8.58-14,7.08q-70.25-11.67-141.17-18.13c-39.43-3.51-78.85-6.39-118.46-6.3-41.85.1-83.7-.09-125.54-.1-23.3,0-69.58,5.33-69.58,5.33-32.12,4.4-64.23,8.17-96.22,12.85-12.67,1.85-25.33,3.77-38,5.88-12.26,2-12.42,2.25-18-8.92-2.31-4.61-5.38-5.71-10.06-4.61-14.67,3.44-29.39,6.68-44.06,10.11-20.55,4.82-41.08,9.64-61.57,14.68-9.34,2.29-9.71,2.51-9.76,11.75,0,5.28-3,6.2-6.86,7.18-17.13,4.44-34.31,8.75-51.39,13.42-10.54,2.88-21,6-31.34,9.57-35.28,12.27-55.2,37.83-62.69,73.74-1.77,8.48-2.5,17.17-4.39,25.61-2.63,11.75-12.77,17.05-24.23,13.25-1.47-.48-2.94-1.09-3.47-2.62-2.74-7.92-9.51-7.6-15.89-7.63q-39.58-.17-79.17-.06a72,72,0,0,0-7.88.66c-4.66.53-7.6,2.92-8.27,7.78s-1.67,9.7-5.64,13.2c-5.24,4.63-6.58,10.67-6.57,17.35.06,41.1-3.15,82.51.87,123.2,2.15,15.79,10,23.87,10,23.87,3.21,3.27,2.61,6.72,2.64,9.81.09,13.57-.09,27.14.08,40.71.15,12.09,2.45,14.48,14.77,14.53,26.75.1,53.52-.11,80.27-.21a48.38,48.38,0,0,0,5.64-.35c9.52-1.18,10.81-2.43,11-12,.19-9.8,0-19.6.1-29.41.05-3.59-.82-7.93,4.38-9.12,4.47-1,10.16,1.85,12.05,6.39,2.21,5.32,2.28,11,2.27,16.69q0,41.83,0,83.67c0,5.27.05,10.54,1.45,15.71,4,14.93,11.82,21.1,27.69,21.44,8.65.19,17.33,0,26,.1,2.16,0,4.88-.48,5.92,2.13,1,2.44-1.06,4.18-2.39,5.94-2.94,3.92-6.15,7.64-8.85,11.73-4.5,6.84-4.51,9,1.79,14.54,11.33,9.93,23.14,19.3,34.74,28.92,15.07,12.52,30.18,25,45.17,37.61l7.07,5.66c10.46,6.91,18.49,1.34,18.49,1.34l7.3-7.3c11-11.29,10.58-15.37,24.64-1.83,4.59,4.4,10.28,5.92,16.62,5.83,12.81-.2,25.63-.18,38.45-.17,3.7,0,7.4.32,11.1.49,0,14.81,10.86,13.46,10.86,13.46H731.45c11.89,0,13.44-1.69,14-13.81,0-.1,0-.2,0-.3h430.2c0,.86.06,1.71.11,2.56.51,9.79,2,11.48,11.35,11.51,34.32.16,68.62,0,102.93.06,5.25,0,10.07-.65,10.66-7.27.57-6.28,4.91-6.72,9.73-6.71,13.57,0,27.17-.43,40.71.12,9.74.41,17.49-2.76,24.62-9.1,32.12-28.53,64.71-56.56,96.4-85.56,9.06-8.3,18.08-12.36,30.25-11.47,11.25.83,22.59.13,33.9.29,10.94.14,17.38-5.63,21.39-15.27,2.67-6.44,3.28-13.1,3.28-19.93q0-43-.06-85.95a88.15,88.15,0,0,1,.52-11.27,11.18,11.18,0,0,1,7.24-9.39c5.43-2.19,8.8-.42,9.42,5.46.45,4.11.23,8.28.27,12.42.05,6.8-.2,13.6.15,20.37.47,8.68,2.23,10.49,10.72,11.48a94.62,94.62,0,0,0,11.3.38q32.79,0,65.6,0c3,0,6,0,9-.11,13.59-.72,14.77-1.89,14.85-15.27.09-12.81,0-25.64.07-38.45,0-3.87-.76-8.21,4-11.33,11.23-12,10.74-21.38,10.74-21.38ZM233.42,565.91c0,1-.59,2-1.18,3.92-4.84-3.4-4-7.46-4-11.07q-.12-59.32,0-118.65c0-3.25-.58-6.77,2-9.32,3.93.41,3.16,3.2,3.16,5.17Q233.54,500.94,233.42,565.91ZM241.21,421c.13-9.36,1.18-10.42,10.5-10.48,21.06-.15,42.14-.1,63.2,0,10.25,0,12.32,1.5,15.58,11a24,24,0,0,1,1.15,7.74c.08,26,.16,51.92,0,77.88-.07,9.44-1.18,10.5-10.44,10.57q-35,.24-70,0c-8.67-.06-9.85-1.23-10-9.81-.23-14.67-.07-29.35-.07-44C241.15,449.61,241,435.31,241.21,421ZM330,595.44c-1.43,10.35-.34,21-.62,31.56-.26,9.51-1.17,10.54-10.4,10.6q-33.86.24-67.72,0c-8.61-.06-9.37-1-9.46-10.09-.16-15.41-.05-30.84-.05-46.26h-.64c0-15-.16-30.1.06-45.14.13-9.21,1.36-10.48,10.58-10.56q34.41-.27,68.85,0c9.7.07,11.1,1.36,11,11.3C331.38,556.37,332.72,575.9,330,595.44ZM672,254.05q67.46-11.12,135.54-17.27c34.12-3.07,68.32-5.69,102.64-5.49,33.17.19,66.34-.1,99.5.06,52,.25,103.78,5,155.42,11,28.8,3.4,57.49,7.52,86.12,12.09,2.6.41,5.18.94,7.76,1.51,8.65,1.89,9.56,3,7.89,11.2a71.56,71.56,0,0,1-4.06,14.09c-7.2,16.55-18.7,27.2-38.06,26.35-3-.14-6,0-9,0-19.67.21-39-3.41-58.45-5.38-24.72-2.51-49.51-4.19-74.23-6.53-51.51-4.87-103.11-4.08-154.7-4.23-39.22-.1-78.22,3.35-117.27,6.3-30.06,2.28-59.93,6-89.85,9.24-8.58.94-17.33.3-26,.6-16.22.55-27-7.71-34.66-21.11a52.27,52.27,0,0,1-3.37-7.14C649.81,259.94,651.45,257.45,672,254.05ZM538.62,809.77c-8.18,9.34-16.85,18.24-25.23,27.42-4.38,4.8-7.93,2.13-11.61-.93-13-10.83-26.17-21.56-39.16-32.43-12.12-10.17-24-20.64-36.25-30.61-4.2-3.42-4.22-5.82-1.3-10.2a293.65,293.65,0,0,1,51.87-59.28c16.18-14.08,31.63-29,47-44,5.38-5.24,10.48-6.65,18.1-5.72,18.4,2.24,34,9,46.47,22.89,8.39,9.35,12.22,20.56,14.09,32.65.21,4.07-1.68,7.33-3.8,10.49-15.73,23.46-31.56,46.87-47.13,70.43-3.08,4.66-5.87,4.8-10.11,1.71-3.06-2.24-7.17-7.55-10.35-3.16-3.43,4.77,3,7.35,6.13,10.11C542.89,804,543.33,804.4,538.62,809.77Zm81.9,17c2.34,2.81-.33,7.3-5.25,7.77-2.63.25-5.28.27-7.9.27-11.32,0-22.7-.86-33.92.07-11.62,1-19.13-5.2-26.82-12-2.72-2.43-3.23-4.84-1.22-7.88,1.89-2.83,3.66-5.72,5.53-8.55,17.82-27.08,35.43-54.3,53.63-81.12,5.83-8.59,6.93-17,4.28-26.73-8.64-31.67-31.1-46.62-61.88-51.69-3-.49-6-.6-9-1.12-6.88-1.23-12.51.9-17.51,5.68-3.21,3.05-5.76,7-10.13,8.69-3.7-1.67-1.35-9-6.27-8-5.41,1.1-3.6,6.86-3.4,10.58.33,6.3-2.19,10.72-6.58,14.8-13,12.07-25.9,24.19-38.57,36.56-3.88,3.78-6.7,4-10.19-.13a34.7,34.7,0,0,0-5.92-5.22c-1.75-1.33-3.92-3.06-6-1s-.47,4.24,1.08,5.86a81.18,81.18,0,0,0,7.47,6.9c2.85,2.35,2.36,4.25-.22,6.34a14.2,14.2,0,0,1-9.3,3.49c-14.33-.06-28.66.17-43-.14-9.23-.2-13.83-4-15.71-13.16a81,81,0,0,1-1.17-15.74c-.18-26-.21-52-.25-78A112.56,112.56,0,0,0,371,606.3c-1.56-10.13-7.21-16.29-17.11-18.63a52.47,52.47,0,0,0-7.73-1.65c-5.37-.42-6.89-3.36-6.7-8.33,1.81-47.45.69-94.93,1-142.41,0-1.51.09-3,.05-4.52-.11-5.84,2.21-9.33,8.56-9.36a54.92,54.92,0,0,0,7.86-.86c10.78-1.56,17.78-7.45,20.87-18a124.45,124.45,0,0,0,4.32-22.15c2.12-21,10.34-39.15,25.31-54.2A74,74,0,0,1,435.74,308c28.51-10,57.85-16.93,87.13-24.07,8-1.95,9.06-1.29,11.09,6.78a214.82,214.82,0,0,1,4.91,25.5c1.57,12.78-2.39,19.55-14,25.63a61.31,61.31,0,0,1-7.22,3.22c-7,2.66-7,2.62-10.16-4.71-.86-2-1.21-4.83-4.26-4.13-2.76.64-2.79,3.5-2.59,5.58.76,8.17-3.8,11.32-10.91,13-6.58,1.56-13,4-19.48,5.85-43,12.28-66,57.58-66.38,89.62-.35,31.67-.57,63.35,0,95,.8,41.2,25.81,75.85,63.11,87.68,14.61,4.64,29.83,5.09,45.26,4.27,16.52-.89,33.31-1.57,49.7.27,30.27,3.37,59.83,33.76,59.27,64.48-.64,34.29,0,68.61,0,102.91,0,1.88.36,4.14-.51,5.57C617.45,816,615.33,820.59,620.52,826.78Zm554.82,7.73H745.55c0-.7,0-1.42,0-2.12.36-8.27.47-8.33,8.8-10,2.13-.43,5.11.08,5.51-2.75.54-3.85-3.25-3.3-5.42-4.3-1.34-.62-2.68-1.16-4.86-2.09,3.92-6.75,10.16-8.12,16.35-8.85a153.19,153.19,0,0,1,18.07-.65q177,.06,354,.22c8.26,0,16.58-.48,24.57,2.67,8.2,3.25,13,8.56,12.79,17.85C1175.33,827.82,1175.32,831.16,1175.34,834.51ZM1291,707.12c0,30.93-.14,61.85-.14,92.77,0,6.86.75,13.72-8,16.56a2.59,2.59,0,0,0,.15,5c10.06,2.23,7.68,9.44,7.07,16.06a29.74,29.74,0,0,1-.67,3.33c-1.88,8.9-2.05,9.26-11,9.3q-40.16.17-80.31,0c-9.6,0-10.08-.73-10.31-10.42-.06-2.27-.06-4.53,0-6.79.35-8.93.42-9,9.51-10.49,1.11-.2,2.28-.12,3.35-.42,1.43-.4,3-.87,3.19-2.72a2.68,2.68,0,0,0-2.46-3.17c-10.84.31-16.17-7.39-22.76-14.19-7.67-7.92-18.44-10-29.19-10.3-10.92-.36-21.86-.15-32.8-.15H960.51v.14q-90.5,0-181,0c-9.14,0-18,.91-26.62,4.26-11.51,4.5-18.81,12.21-19.43,25.17q-.48,10.15-1.24,20.29c-.56,7.38-1.58,8.76-8.76,8.81-27.92.18-55.81,0-83.72.1-5.52,0-8.5-2.23-8.66-7.92-.2-7-2.75-14.26,1.95-20.85,1-1.35,1.15-3.16-.07-4.12-5.2-4.11-3.08-9.49-3.05-14.65.21-33.55,1.19-67.15.1-100.66-1.32-41-34.57-71.46-77.71-72.91-10.92-.37-21.86-.15-32.81-.08-5.49,0-10.43-.24-12.85-6.63-1.26-3.31-4.59-3.6-5.47.12-1.6,6.73-6.36,6.34-11.33,6.47-23.78.61-41.95-10.58-57-27.59-14.12-15.9-20.66-35.18-21.11-56.06-.7-32-.57-64.1-.09-96.14.43-29.26,24.13-72.77,62.26-82.21,12-3,23.79-7.25,35.63-11.06a120.12,120.12,0,0,0,22.75-10c10.61-6,15.46-15.05,14.61-27.16-.25-3.38-.75-6.73-1.13-10.11-.94-8.13-.83-8.31,7.13-11.37a40.93,40.93,0,0,0,4.22-1.56c1.33-.69,2.49-1.71,2.22-3.5s-1.86-2.31-3.31-2.43a24.35,24.35,0,0,0-4.48.38c-8.84.94-9.55.48-11.83-7.63-4.32-15.48-3.39-17.09,11.83-20.66q37.44-8.78,74.83-17.6c13-3.07,13-3.12,17.36,9.93a30.92,30.92,0,0,1,1.58,5.41c.76,5.4,1.38,10.79-6.1,12.26-1.79.35-3.78,1.54-3.57,3.73.29,2.93,3,3.55,5.11,3,6.87-1.71,9.09,2.33,11.43,7.67,8.65,19.67,23.92,29.13,45.49,29.06,19.67-.06,39.06-3,58.52-5.08,23.6-2.48,47.23-4.45,70.87-6.62,67.72-6.22,135.57-5.33,203.4-3.89,29,.61,57.88,3.31,86.79,5.79,29.65,2.55,59.17,6.3,88.77,9.31,6,.6,12,.35,18.08.4,20.64.21,35.06-9.59,44.36-27.63,4.78-9.27,4.81-9.24,14.94-8.28,1.87.17,3.73.35,5.61.34a2.2,2.2,0,0,0,2.27-2.08,4,4,0,0,0-1-3,18.71,18.71,0,0,0-9.55-3.11c-5.22-.42-6.18-3.31-5.33-7.73.28-1.47.3-3,.57-4.48,3.27-17.59,4.53-18.37,22.07-14.22,24.21,5.73,48.43,11.38,72.63,17.15,12.63,3,12.61,3.1,11,15.6-.15,1.12-.19,2.26-.37,3.37-1.37,8.44-1.52,8.62-10.44,9.81-1.91.25-4,.16-4.24,2.6a3.36,3.36,0,0,0,2.55,3.35c7.3,2.09,7.55,7.06,6.16,13.34-.88,4-.79,8.23-.87,12.36-.22,10,4.29,17.34,12.74,22.41a116.07,116.07,0,0,0,23.72,10.58c11.1,3.63,22.17,7.45,33.42,10.57,35,9.71,53.26,34.85,62.91,67.91a48.82,48.82,0,0,1,2.14,13.38c0,36.92,3.23,74-1.76,110.7-4.35,32.05-22.73,54.28-52.64,66.82a50.68,50.68,0,0,1-21,3.87c-5.89-.13-12.27,1.34-14.42-7.07a2.63,2.63,0,0,0-5.1.06c-2.51,7.86-8.71,6.89-14.7,7.06-14.68.44-29.39-1-44,1.39C1317,636.85,1291,667.67,1291,707.12Zm289.64-203.28h0c0,23.76.1,47.5,0,71.25-.06,9.1-.35,9.8-9,11.36-17.77,3.23-22.09,12.12-22.5,28.64-.52,21.09-.3,42.21-.39,63.32-.05,9.42,0,18.85-.17,28.27a49.69,49.69,0,0,1-1.35,11.17c-2.41,9.15-6.5,12.32-16.16,12.45-13.19.21-26.41.46-39.58-.06-8.58-.34-15,2.68-21.31,8.26-31.83,28.29-64.06,56.12-95.81,84.51-9.2,8.23-18.74,12.91-31.47,11.81-10.84-1-21.84,0-32.77-.25-8.45-.18-9.67-1.51-9.82-10.13-.57-35-1.14-70.06-1.51-105.1a132.39,132.39,0,0,1,3-31.43c6.11-26.39,33-49.4,60.08-50.7,17.62-.86,35.31-.38,53,.5,49.6,2.46,90.05-23.61,100.46-77.57a136.94,136.94,0,0,0,2.2-27c-.21-26.75.21-53.52-.19-80.29-.56-38.94-25.87-76.69-59.94-89.83a207.49,207.49,0,0,0-22.62-7.13c-8.61-2.24-16.06-4.92-14.38-16.2a3.64,3.64,0,0,0-2.72-4.38c-3.13-.56-3.51,2.08-4.18,4.18a9.18,9.18,0,0,0-.34,2.23c-.37,5.46-3.39,6.16-7.74,4.27a112.08,112.08,0,0,1-10.25-4.73c-9.33-5.22-14.53-12.59-13.13-24a209.09,209.09,0,0,1,4.63-24.4c2.68-11,3-11.28,13.59-8.58q28.47,7.25,56.82,15c8.36,2.26,16.69,4.69,24.87,7.54,31.41,10.89,49,33.71,55.55,65.62,1.68,8.1,2.29,16.43,4.09,24.5,3.7,16.6,10.16,22.22,26.76,24.27,12.12,1.48,12.23,1.48,12.27,13.66C1580.66,457.86,1580.61,480.85,1580.61,503.84Zm98.15,84.86c-1.12,12.35-.48,24.85-.76,37.27-.24,10.79-1,11.61-11.69,11.65q-32.79.17-65.57,0c-9.32,0-10.51-.8-10.25-9.26.86-29-3.87-57.87-2.4-86.89.13-2.62.14-5.27.07-7.91-.19-5.8,2.86-8.1,8.36-8.08,10.55,0,21.1,0,31.64,0h5.66v0c12.06,0,24.12-.18,36.18.07,8.52.18,9.83,1.39,9.82,10C1679.8,553.31,1680.36,571,1678.76,588.7Zm1.18-125.35h0c0,14.67.15,29.35-.06,44-.12,9.42-1,10.29-10.52,10.35q-35.58.21-71.13,0c-9,0-10-.94-10-9.58-.14-26.33-.24-52.68.1-79,.16-13,6.53-18.62,19.64-18.64,20.32,0,40.64-.1,61,0,10.06.06,10.88.89,11,11C1680.08,435.49,1679.94,449.42,1679.94,463.35Zm11.66,78.8c-.28,8.85,1.35,18-3.33,26.36V431.84c5.25,8.62,2.92,17.91,3.31,26.9.41,9.38.09,18.79.09,28.18V514C1691.67,523.37,1691.89,532.77,1691.6,542.15Z"/><path class="cls-1" d="M1509.31,447.57a48.82,48.82,0,0,0-2.14-13.38c-9.65-33.06-27.89-58.2-62.91-67.91-11.25-3.12-22.32-6.94-33.42-10.57a116.07,116.07,0,0,1-23.72-10.58c-8.45-5.07-13-12.44-12.74-22.41.08-4.13,0-8.38.87-12.36,1.39-6.28,1.14-11.25-6.16-13.34a3.36,3.36,0,0,1-2.55-3.35c.22-2.44,2.33-2.35,4.24-2.6,8.92-1.19,9.07-1.37,10.44-9.81.18-1.11.22-2.25.37-3.37,1.63-12.5,1.65-12.59-11-15.6-24.2-5.77-48.42-11.42-72.63-17.15-17.54-4.15-18.8-3.37-22.07,14.22-.27,1.48-.29,3-.57,4.48-.85,4.42.11,7.31,5.33,7.73a18.71,18.71,0,0,1,9.55,3.11,4,4,0,0,1,1,3,2.2,2.2,0,0,1-2.27,2.08c-1.88,0-3.74-.17-5.61-.34-10.13-1-10.16-1-14.94,8.28-9.3,18-23.72,27.84-44.36,27.63-6-.05-12.11.2-18.08-.4-29.6-3-59.12-6.76-88.77-9.31-28.91-2.48-57.82-5.18-86.79-5.79-67.83-1.44-135.68-2.33-203.4,3.89-23.64,2.17-47.27,4.14-70.87,6.62-19.46,2.05-38.85,5-58.52,5.08-21.57.07-36.84-9.39-45.49-29.06-2.34-5.34-4.56-9.38-11.43-7.67-2.15.54-4.82-.08-5.11-3-.21-2.19,1.78-3.38,3.57-3.73,7.48-1.47,6.86-6.86,6.1-12.26a30.92,30.92,0,0,0-1.58-5.41c-4.37-13.05-4.37-13-17.36-9.93q-37.4,8.83-74.83,17.6c-15.22,3.57-16.15,5.18-11.83,20.66,2.28,8.11,3,8.57,11.83,7.63a24.35,24.35,0,0,1,4.48-.38c1.45.12,3,.53,3.31,2.43s-.89,2.81-2.22,3.5a40.93,40.93,0,0,1-4.22,1.56c-8,3.06-8.07,3.24-7.13,11.37.38,3.38.88,6.73,1.13,10.11.85,12.11-4,21.12-14.61,27.16a120.12,120.12,0,0,1-22.75,10C497.64,359.74,485.9,364,473.85,367c-38.13,9.44-61.83,52.95-62.26,82.21-.48,32-.61,64.11.09,96.14.45,20.88,7,40.16,21.11,56.06,15.09,17,33.26,28.2,57,27.59,5-.13,9.73.26,11.33-6.47.88-3.72,4.21-3.43,5.47-.12,2.42,6.39,7.36,6.66,12.85,6.63,10.95-.07,21.89-.29,32.81.08C595.43,630.56,628.68,661,630,702c1.09,33.51.11,67.11-.1,100.66,0,5.16-2.15,10.54,3.05,14.65,1.22,1,1,2.77.07,4.12-4.7,6.59-2.15,13.81-1.95,20.85.16,5.69,3.14,7.94,8.66,7.92,27.91-.07,55.8.08,83.72-.1,7.18,0,8.2-1.43,8.76-8.81q.75-10.14,1.24-20.29c.62-13,7.92-20.67,19.43-25.17,8.57-3.35,17.48-4.27,26.62-4.26q90.51.12,181,0v-.14h156.11c10.94,0,21.88-.21,32.8.15,10.75.34,21.52,2.38,29.19,10.3,6.59,6.8,11.92,14.5,22.76,14.19a2.68,2.68,0,0,1,2.46,3.17c-.23,1.85-1.76,2.32-3.19,2.72-1.07.3-2.24.22-3.35.42-9.09,1.49-9.16,1.56-9.51,10.49-.08,2.26-.08,4.52,0,6.79.23,9.69.71,10.38,10.31,10.42q40.14.2,80.31,0c8.95,0,9.12-.4,11-9.3a29.74,29.74,0,0,0,.67-3.33c.61-6.62,3-13.83-7.07-16.06a2.59,2.59,0,0,1-.15-5c8.75-2.84,8-9.7,8-16.56,0-30.92.15-61.84.14-92.77,0-39.45,26-70.27,64.72-76.72,14.64-2.43,29.35-.95,44-1.39,6-.17,12.19.8,14.7-7.06a2.63,2.63,0,0,1,5.1-.06c2.15,8.41,8.53,6.94,14.42,7.07a50.68,50.68,0,0,0,21-3.87c29.91-12.54,48.29-34.77,52.64-66.82C1512.54,521.54,1509.36,484.49,1509.31,447.57ZM504.78,479.78c-5,.1-3.81-5.18-4.15-8.6a16.3,16.3,0,0,1,.36-4.39c.33-1.86,1.05-3.93,3.1-4.08,2.86-.21,3.35,2.28,3.66,4.49.2,1.46.2,2.95.28,4.42C507.46,474.64,509.11,479.69,504.78,479.78ZM508,407.66c-.09,1.61-.09,3.09-.27,4.55-.23,1.85-.58,3.88-2.79,4.24-3,.49-3.58-1.93-4.06-4.08a15.1,15.1,0,0,1-.34-4.39c.28-3.51-.85-9.05,3.74-9.11C509.39,398.8,507.33,404.47,508,407.66Zm-7.28-34.54c.56-2.42.41-5.86,4.2-5.33,2.75.37,2.64,3.25,2.9,5.43a41.47,41.47,0,0,1,0,4.15c-.46,2.32,1.09,7.38-3.57,7.33-4.3-.06-3.43-5-3.74-8.21A10.58,10.58,0,0,1,500.76,373.12Zm0,62.53c.49-2.47.53-5.7,4.21-5.27,2.8.34,2.69,3.11,2.92,5.27.11,1.11,0,2.23,0,4.12-.63,2.52,1.63,8.23-3.52,8.23-4.77,0-3.44-5.55-3.8-9A11.57,11.57,0,0,1,500.75,435.65Zm7.14,162.61c-.57,2.54,1.45,8.25-3.63,8.13-4.61-.1-3.36-5.64-3.68-9.15a14.26,14.26,0,0,1,.17-3.32c.32-2.21.65-4.94,3.24-5.18,3.64-.35,3.6,2.88,3.88,5.41C508,595.25,507.89,596.37,507.89,598.26Zm-.14-28.55c-.32,2.24-.73,4.82-3.74,4.52-2.1-.23-2.73-2.38-3.07-4.26a18.86,18.86,0,0,1-.34-4.49c.23-3.26-.48-8.16,3.72-8.3,4.76-.13,3.09,5,3.71,8C508,566.71,508,568.23,507.75,569.71Zm-.62-28.54a3.8,3.8,0,0,1-2.32,2c-1.67.49-2.79-.69-3.3-2.15a22,22,0,0,1-.14-13.07,3.21,3.21,0,0,1,3.07-2.68,3,3,0,0,1,3,2.77c.39,2.53.51,5.13.72,7.59A33.23,33.23,0,0,1,507.13,541.17Zm0-31.7a3.67,3.67,0,0,1-2.28,2c-1.69.52-2.82-.68-3.32-2.13a22.06,22.06,0,0,1-.18-13.07,3.24,3.24,0,0,1,3.07-2.7,3.07,3.07,0,0,1,3,2.75c.38,2.17.48,4.39.72,6.8A47.6,47.6,0,0,1,507.13,509.47Zm68.61-224.06c4.52-1.21,8.9-4,13.82-1.63a1.93,1.93,0,0,1,.86,2.81c-3.09,4.81-8.5,3.48-12.59,4.7-2.3,0-4.24-.19-4.46-2.58A3.09,3.09,0,0,1,575.74,285.41Zm1.68,311.39a39.64,39.64,0,0,1-40.36-39.91,40.16,40.16,0,1,1,80.32-.24C617.27,579.55,600.27,596.63,577.42,596.8Zm42.36-314.52c-3.37,2-7.31,1.5-10.85,2.41-2,0-4,0-4.61-2.29s1.29-3.48,3.06-3.95a98.16,98.16,0,0,1,11-2.09,3,3,0,0,1,3.37,2.33C622.22,280.48,621.1,281.53,619.78,282.28Zm45.16,537.24c-.41,2.78-3.28,2.54-5.45,2.77-1.11.11-2.24,0-4,0-2.37-.51-7.45,1.28-7.37-3.45.07-4.21,5-3.41,8.2-3.74a9.37,9.37,0,0,1,3.34.22C662,816,665.51,815.73,664.94,819.52Zm27.18,2.7c-1.47.15-3,0-5.4,0-2.06-.49-7.19,1.36-6.92-3.54.23-4.16,5.12-3.3,8.34-3.54a17.75,17.75,0,0,1,4.45.45c1.87.35,4.07,1,4.2,3C697,821.61,694.38,822,692.12,822.22Zm31.57,0c-1.47.13-3,0-5.29,0-2.12-.52-7.21,1.31-6.95-3.52.21-4.07,5.07-3.34,8.28-3.58a18,18,0,0,1,4.42.42c1.86.34,4,1,4.13,3.07C728.47,821.56,726,822,723.69,822.22Zm67.44-113.68a39.64,39.64,0,0,1-40.36-39.91,40.16,40.16,0,1,1,80.32-.24C831,691.28,814,708.36,791.13,708.54Zm339.2,0A39.64,39.64,0,0,1,1090,668.63a40.16,40.16,0,1,1,80.32-.24C1170.18,691.28,1153.18,708.36,1130.33,708.54Zm101.2,113.63c-1.46.21-3,.24-4.53.35-3.18-.8-8.91,1.44-8.76-3.79.12-4.49,5.61-3.57,9.19-3.73a14.32,14.32,0,0,1,4.38.62c1.75.5,3.77,1.21,3.68,3.45S1233.42,821.91,1231.53,822.17Zm35.29-3c-.31,4.21-5.16,2.83-8.43,3.34-3-.84-8.79,1.52-8.43-3.91.28-4.3,5.73-3.68,9.29-3.55C1262.37,815.16,1267.14,815,1266.82,819.17Zm69.08-533c.67-2.14,2.82-2,5.09-1.84,3.89.81,8.73.14,11.82,4.24a2,2,0,0,1-.47,2.92c-4.4,2.66-8.63.34-12.84-.8C1337.3,290.07,1335,289,1335.9,286.13Zm-31.42-6.49c.63-2.34,2.81-2,4.61-2.05a30.79,30.79,0,0,1,4.43.48c3.4.83,8.83.58,7.86,5.51-.74,3.77-5.57,2.14-8.71,1.72a23.14,23.14,0,0,1-5.32-1.62C1305.59,283,1303.86,281.91,1304.48,279.64Zm38.15,316.93A39.24,39.24,0,0,1,1303.45,557c0-22.54,18.82-41.12,41.13-40.52,21.24.56,39.36,19,39.43,40.14C1384.08,579.37,1366,596.8,1342.63,596.57Zm74.79-116.79c-5,.1-3.81-5.18-4.16-8.6a16.3,16.3,0,0,1,.36-4.39c.34-1.86,1.05-3.93,3.1-4.08,2.86-.21,3.35,2.28,3.66,4.49.2,1.46.2,2.95.29,4.42C1420.09,474.64,1421.75,479.69,1417.42,479.78Zm3.25-72.12c-.09,1.61-.09,3.09-.27,4.55-.23,1.85-.57,3.88-2.77,4.24-3,.49-3.6-1.93-4.08-4.08a14.76,14.76,0,0,1-.33-4.39c.28-3.51-.86-9.05,3.73-9.11C1422,398.8,1420,404.47,1420.67,407.66Zm-7.28-34.54c.57-2.42.42-5.86,4.2-5.33,2.75.37,2.64,3.25,2.91,5.43.13,1.11,0,2.25,0,4.15-.46,2.32,1.09,7.38-3.56,7.33-4.31-.06-3.44-5-3.74-8.21A10.88,10.88,0,0,1,1413.39,373.12Zm0,62.53c.5-2.47.55-5.7,4.21-5.27,2.8.34,2.7,3.11,2.92,5.27.12,1.11,0,2.23,0,4.12-.64,2.52,1.64,8.23-3.51,8.23-4.79,0-3.46-5.55-3.82-9A11.57,11.57,0,0,1,1413.38,435.65Zm7.14,162.61c-.57,2.54,1.45,8.25-3.63,8.13-4.61-.1-3.36-5.64-3.68-9.15a14.26,14.26,0,0,1,.17-3.32c.32-2.21.65-4.94,3.24-5.18,3.65-.35,3.6,2.88,3.88,5.41C1420.63,595.25,1420.52,596.37,1420.52,598.26Zm-.14-28.55c-.32,2.24-.73,4.82-3.74,4.52-2.1-.23-2.73-2.38-3.05-4.26a18.87,18.87,0,0,1-.36-4.49c.24-3.26-.48-8.16,3.72-8.3,4.76-.13,3.09,5,3.72,8C1420.58,566.71,1420.59,568.23,1420.38,569.71Zm-.61-28.54a3.83,3.83,0,0,1-2.31,2c-1.69.49-2.81-.69-3.32-2.15A22.06,22.06,0,0,1,1414,528a3.22,3.22,0,0,1,3.08-2.68,3.06,3.06,0,0,1,3,2.77c.4,2.53.5,5.13.72,7.59A35.41,35.41,0,0,1,1419.77,541.17Zm0-31.7a3.71,3.71,0,0,1-2.29,2c-1.69.52-2.81-.68-3.32-2.13a22.06,22.06,0,0,1-.18-13.07,3.24,3.24,0,0,1,3.07-2.7,3.07,3.07,0,0,1,3,2.75c.38,2.17.49,4.39.73,6.8A51.09,51.09,0,0,1,1419.77,509.47Z"/><path d="M1266.82,819.17c-.31,4.21-5.16,2.83-8.43,3.34-3-.84-8.79,1.52-8.43-3.91.28-4.3,5.73-3.68,9.29-3.55C1262.37,815.16,1267.14,815,1266.82,819.17Z"/><path d="M728.28,818.63c.19,2.93-2.32,3.37-4.59,3.59-1.47.13-3,0-5.29,0-2.12-.52-7.21,1.31-6.95-3.52.21-4.07,5.07-3.34,8.28-3.58a18,18,0,0,1,4.42.42C726,815.9,728.14,816.55,728.28,818.63Z"/><path d="M692.12,822.22c-1.47.15-3,0-5.4,0-2.06-.49-7.19,1.36-6.92-3.54.23-4.16,5.12-3.3,8.34-3.54a17.75,17.75,0,0,1,4.45.45c1.87.35,4.07,1,4.2,3C697,821.61,694.38,822,692.12,822.22Z"/><path d="M664.94,819.52c-.41,2.78-3.28,2.54-5.45,2.77-1.11.11-2.24,0-4,0-2.37-.51-7.45,1.28-7.37-3.45.07-4.21,5-3.41,8.2-3.74a9.37,9.37,0,0,1,3.34.22C662,816,665.51,815.73,664.94,819.52Z"/><path d="M1235.49,819.07c-.1,2.23-2.07,2.84-4,3.1-1.46.21-3,.24-4.53.35-3.18-.8-8.91,1.44-8.76-3.79.12-4.49,5.61-3.57,9.19-3.73a14.32,14.32,0,0,1,4.38.62C1233.56,816.12,1235.58,816.83,1235.49,819.07Z"/><path d="M1352.34,291.45c-4.4,2.66-8.63.34-12.84-.8-2.2-.58-4.5-1.65-3.6-4.52.67-2.14,2.82-2,5.09-1.84,3.89.81,8.73.14,11.82,4.24A2,2,0,0,1,1352.34,291.45Z"/><path d="M619.78,282.28c-3.37,2-7.31,1.5-10.85,2.41-2,0-4,0-4.61-2.29s1.29-3.48,3.06-3.95a98.16,98.16,0,0,1,11-2.09,3,3,0,0,1,3.37,2.33C622.22,280.48,621.1,281.53,619.78,282.28Z"/><path d="M1420.78,535.63a35.41,35.41,0,0,1-1,5.54,3.83,3.83,0,0,1-2.31,2c-1.69.49-2.81-.69-3.32-2.15A22.06,22.06,0,0,1,1414,528a3.22,3.22,0,0,1,3.08-2.68,3.06,3.06,0,0,1,3,2.77C1420.46,530.57,1420.56,533.17,1420.78,535.63Z"/><path d="M1420.67,407.66c-.09,1.61-.09,3.09-.27,4.55-.23,1.85-.57,3.88-2.77,4.24-3,.49-3.6-1.93-4.08-4.08a14.76,14.76,0,0,1-.33-4.39c.28-3.51-.86-9.05,3.73-9.11C1422,398.8,1420,404.47,1420.67,407.66Z"/><path d="M1417.42,479.78c-5,.1-3.81-5.18-4.16-8.6a16.3,16.3,0,0,1,.36-4.39c.34-1.86,1.05-3.93,3.1-4.08,2.86-.21,3.35,2.28,3.66,4.49.2,1.46.2,2.95.29,4.42C1420.09,474.64,1421.75,479.69,1417.42,479.78Z"/><path d="M1420.52,598.26c-.57,2.54,1.45,8.25-3.63,8.13-4.61-.1-3.36-5.64-3.68-9.15a14.26,14.26,0,0,1,.17-3.32c.32-2.21.65-4.94,3.24-5.18,3.65-.35,3.6,2.88,3.88,5.41C1420.63,595.25,1420.52,596.37,1420.52,598.26Z"/><path d="M1420.78,503.13a51.09,51.09,0,0,1-1,6.34,3.71,3.71,0,0,1-2.29,2c-1.69.52-2.81-.68-3.32-2.13a22.06,22.06,0,0,1-.18-13.07,3.24,3.24,0,0,1,3.07-2.7,3.07,3.07,0,0,1,3,2.75C1420.43,498.5,1420.54,500.72,1420.78,503.13Z"/><path d="M1420.54,439.77c-.64,2.52,1.64,8.23-3.51,8.23-4.79,0-3.46-5.55-3.82-9a11.57,11.57,0,0,1,.17-3.32c.5-2.47.55-5.7,4.21-5.27,2.8.34,2.7,3.11,2.92,5.27C1420.63,436.76,1420.54,437.88,1420.54,439.77Z"/><path d="M1420.67,565.15c-.09,1.56-.08,3.08-.29,4.56-.32,2.24-.73,4.82-3.74,4.52-2.1-.23-2.73-2.38-3.05-4.26a18.87,18.87,0,0,1-.36-4.49c.24-3.26-.48-8.16,3.72-8.3C1421.71,557.05,1420,562.14,1420.67,565.15Z"/><path d="M1420.52,377.37c-.46,2.32,1.09,7.38-3.56,7.33-4.31-.06-3.44-5-3.74-8.21a10.88,10.88,0,0,1,.17-3.37c.57-2.42.42-5.86,4.2-5.33,2.75.37,2.64,3.25,2.91,5.43C1420.63,374.33,1420.52,375.47,1420.52,377.37Z"/><path d="M508.14,535.63a33.23,33.23,0,0,1-1,5.54,3.8,3.8,0,0,1-2.32,2c-1.67.49-2.79-.69-3.3-2.15a22,22,0,0,1-.14-13.07,3.21,3.21,0,0,1,3.07-2.68,3,3,0,0,1,3,2.77C507.81,530.57,507.93,533.17,508.14,535.63Z"/><path d="M508,407.66c-.09,1.61-.09,3.09-.27,4.55-.23,1.85-.58,3.88-2.79,4.24-3,.49-3.58-1.93-4.06-4.08a15.1,15.1,0,0,1-.34-4.39c.28-3.51-.85-9.05,3.74-9.11C509.39,398.8,507.33,404.47,508,407.66Z"/><path d="M504.78,479.78c-5,.1-3.81-5.18-4.15-8.6a16.3,16.3,0,0,1,.36-4.39c.33-1.86,1.05-3.93,3.1-4.08,2.86-.21,3.35,2.28,3.66,4.49.2,1.46.2,2.95.28,4.42C507.46,474.64,509.11,479.69,504.78,479.78Z"/><path d="M507.89,598.26c-.57,2.54,1.45,8.25-3.63,8.13-4.61-.1-3.36-5.64-3.68-9.15a14.26,14.26,0,0,1,.17-3.32c.32-2.21.65-4.94,3.24-5.18,3.64-.35,3.6,2.88,3.88,5.41C508,595.25,507.89,596.37,507.89,598.26Z"/><path d="M508.14,503.13a47.6,47.6,0,0,1-1,6.34,3.67,3.67,0,0,1-2.28,2c-1.69.52-2.82-.68-3.32-2.13a22.06,22.06,0,0,1-.18-13.07,3.24,3.24,0,0,1,3.07-2.7,3.07,3.07,0,0,1,3,2.75C507.8,498.5,507.9,500.72,508.14,503.13Z"/><path d="M507.9,439.77c-.63,2.52,1.63,8.23-3.52,8.23-4.77,0-3.44-5.55-3.8-9a11.57,11.57,0,0,1,.17-3.32c.49-2.47.53-5.7,4.21-5.27,2.8.34,2.69,3.11,2.92,5.27C508,436.76,507.9,437.88,507.9,439.77Z"/><path d="M508,565.15c-.08,1.56-.07,3.08-.28,4.56-.32,2.24-.73,4.82-3.74,4.52-2.1-.23-2.73-2.38-3.07-4.26a18.86,18.86,0,0,1-.34-4.49c.23-3.26-.48-8.16,3.72-8.3C509.08,557.05,507.41,562.14,508,565.15Z"/><path d="M507.89,377.37c-.46,2.32,1.09,7.38-3.57,7.33-4.3-.06-3.43-5-3.74-8.21a10.58,10.58,0,0,1,.18-3.37c.56-2.42.41-5.86,4.2-5.33,2.75.37,2.64,3.25,2.9,5.43A41.47,41.47,0,0,1,507.89,377.37Z"/><path d="M1321.38,283.58c-.74,3.77-5.57,2.14-8.71,1.72a23.14,23.14,0,0,1-5.32-1.62c-1.76-.7-3.49-1.77-2.87-4s2.81-2,4.61-2.05a30.79,30.79,0,0,1,4.43.48C1316.92,278.9,1322.35,278.65,1321.38,283.58Z"/><path d="M590.42,286.59c-3.09,4.81-8.5,3.48-12.59,4.7-2.3,0-4.24-.19-4.46-2.58a3.09,3.09,0,0,1,2.37-3.3c4.52-1.21,8.9-4,13.82-1.63A1.93,1.93,0,0,1,590.42,286.59Z"/><path d="M877.36,815a18.25,18.25,0,0,0-5.38,1,3,3,0,0,0-2.43,3.18c.16,1.74,1.49,2.51,3,2.78,1.8.34,3.66.38,5.5.55,3.28-.75,9,1.18,8.64-3.95C886.41,814.34,880.93,815.08,877.36,815Z"/><path d="M847,815.19c-3.45,0-8.87-1-8.67,4.14.16,4.29,5.33,2.48,8.41,3.1,3.08-.59,8.12,1,8.25-3.44C855.06,814.82,850.12,815.17,847,815.19Z"/><path d="M819.18,815.59a13.86,13.86,0,0,0-4.44-.43c-3.22.25-8.14-.54-8.27,3.63-.14,4.76,4.95,3,7.9,3.65,1.58-.08,3.09-.06,4.57-.23,1.85-.21,4-.4,4.43-2.62C824,816.47,821.26,816.13,819.18,815.59Z"/><path d="M787.64,815.55a18.1,18.1,0,0,0-4.45-.42c-3.23.24-8.11-.56-8.37,3.54-.31,4.92,4.81,3.07,6.87,3.57,2.41,0,3.92.12,5.4,0,2.28-.21,4.85-.67,4.71-3.57C791.71,816.59,789.53,815.89,787.64,815.55Z"/><path d="M1131,815c-3.15,0-7.91-.3-7.83,3.94.08,4.58,5,2.93,8.54,3.66,2.68-1.14,8.51,1.25,8.44-3.83C1140.11,814.49,1134.59,815,1131,815Z"/><path d="M1104.65,815.49a15.32,15.32,0,0,0-4.39-.51c-3.47.3-8.72-.66-8.68,4.21,0,4.34,5.11,2.75,8.14,3.31,1.5-.07,3-.07,4.45-.24,2.25-.27,4.73-.78,4.56-3.63C1108.61,816.59,1106.49,815.87,1104.65,815.49Z"/><path d="M1067.31,815a18.2,18.2,0,0,0-5.41,1,2.91,2.91,0,0,0-2.38,3.21c.2,1.74,1.57,2.48,3,2.75a55.77,55.77,0,0,0,5.55.55c3.23-.8,9,1.28,8.58-4C1076.39,814.32,1070.9,815.07,1067.31,815Z"/><path d="M1036.66,815a15.77,15.77,0,0,0-5.48.66c-1.78.47-3.55,1.33-3.3,3.71.19,1.8,1.66,2.42,3.1,2.69a51.2,51.2,0,0,0,5.41.48c3.22-.55,8.25,1,8.6-3C1045.42,814.35,1040.08,815.31,1036.66,815Z"/><path d="M1010,815.6a13.82,13.82,0,0,0-4.37-.6c-3.57.17-9.06-.65-9.2,3.72-.17,5.19,5.54,3,8.75,3.79,1.56-.12,3-.15,4.5-.36,1.89-.28,3.84-.91,4-3.11S1011.79,816.1,1010,815.6Z"/><path d="M977.61,815.56a13.77,13.77,0,0,0-4.47-.44c-3.24.25-8.18-.47-8.29,3.69-.13,4.79,5,2.93,7.07,3.41,2.47,0,4,.11,5.47,0,1.85-.17,4-.36,4.44-2.61C982.39,816.45,979.69,816.1,977.61,815.56Z"/><path d="M1163.73,815.06c-3.49,0-8.88-.93-8.76,4.18.11,4.4,5.27,2.68,8.9,3.37,2.42-1.06,7.6,1.12,7.78-3.54C1171.81,814.81,1166.92,815.06,1163.73,815.06Z"/><path d="M915,815.58a14.65,14.65,0,0,0-4.4-.6c-3.58.17-9.11-.65-9.2,3.79-.1,5.14,5.63,3,8.86,3.75,1.58-.12,3.07-.15,4.53-.35,1.92-.26,3.86-.93,3.92-3.15S916.75,816.06,915,815.58Z"/><path d="M945.86,815.59a14.07,14.07,0,0,0-4.47-.46c-3.25.22-8.19-.49-8.3,3.66-.14,4.78,5,3,7.08,3.44,2.45,0,4,.11,5.46,0,1.85-.17,4-.36,4.45-2.6C950.65,816.46,947.94,816.13,945.86,815.59Z"/><path d="M1381.72,682.44c-24.58-.27-40.76,25.77-29.54,47.51,3.15,6.12,7.74,11,12.83,15.51,6.18,5.42,8.29,5.61,14.58.41,9.53-7.88,18.77-16.12,28.14-24.19,3.77-3.25,4.79-7.32,4.17-12.15C1410.06,695.39,1395.9,682.59,1381.72,682.44Zm18.51,35.46c-7.83,7.05-15.77,14-23.67,21-2.19,1.93-4.63,2.76-7.07.57-7.47-6.73-12.82-14.7-14.13-23.73.22-10.51,11.75-23.06,21.6-24.7s21.83,5,25.74,14.54C1404.62,710.19,1404,714.46,1400.23,717.9Z"/><path d="M1424.58,756.1c-.64.35-1.31.64-3.41,1.68-.3-2.76-.49-4.56-.69-6.37-.26-2.39-1-4.7-3.87-4.37-2,.24-2.83,2.36-3,4.25a35,35,0,0,0-.15,7.78c.74,5.61,3.93,7.67,9.42,6.06a13.72,13.72,0,0,0,5.78-3.18c2.59-2.62,8.8-4.82,5.21-9.2C1431,749.2,1427.61,754.42,1424.58,756.1Z"/><path d="M1412.18,300.92a68.71,68.71,0,0,0-9.85-2.3c-1.8-.31-4-.3-4.72,1.89s1,3.7,2.78,4.16c7.32,1.91,13.49,4.69,13.77,13.7a2.8,2.8,0,0,0,3.17,2.52c1.66-.17,2.5-1.52,2.78-3.09s.39-3,.45-3.43C1420.85,305.29,1419.66,303.38,1412.18,300.92Z"/><path d="M1521.86,662.25c-1.46-1.06-3-.25-3.92.87-3,3.79-5.46,8-6.11,12.86-.28,2.09.76,3.52,3,3.95a8.18,8.18,0,0,0,2.09-.5c3.2-1.7,7.52-10.84,6.76-14.56A4.79,4.79,0,0,0,1521.86,662.25Z"/><path d="M1383.65,791.14c-3.58-.23-12.77,6.72-13.78,10.44-.6,2.2.44,3.76,2.63,4,4,.43,13.79-7.86,14-11.59A2.82,2.82,0,0,0,1383.65,791.14Z"/><path d="M1504.09,689c-3.42.24-10.94,7.86-11.24,11.43-.19,2.21,1.1,3.49,3.36,3.2,3.76-.47,11.09-7.9,11.36-11.33C1507.45,690.08,1506.28,688.81,1504.09,689Z"/><path d="M1488.46,329.38a2.45,2.45,0,0,0-1.34,3.61,20.9,20.9,0,0,0,11.72,9.44c2.05.63,3.48-.53,3.75-2.69C1502.35,335.47,1492.07,327.9,1488.46,329.38Z"/><path d="M1531.88,504.94a3.36,3.36,0,0,0-3.06,2.78,28,28,0,0,0-.41,11c.23,1.88.82,3.9,3,4.18,3,.39,3.48-2.12,3.94-4.27a44.83,44.83,0,0,0,.47-4.91c-.23-1.73-.42-3.94-.84-6.1A3.16,3.16,0,0,0,1531.88,504.94Z"/><path d="M1529.33,632.2c-2.06-.21-3.28,1.61-3.95,3.46-1.52,4.24-3.3,8.54-.87,13a3.12,3.12,0,0,0,2.94.71c4.82-2.62,3.73-7.73,4.77-11.75C1532.26,635.08,1532.32,632.49,1529.33,632.2Z"/><path d="M1531.89,441.57a3.36,3.36,0,0,0-3.07,2.77,27.7,27.7,0,0,0-.39,11c.25,1.88.88,3.9,3,4.17,3,.38,3.53-2.05,4-4.24a46.81,46.81,0,0,0,.41-4.91c-.23-1.73-.42-3.95-.85-6.11A3.16,3.16,0,0,0,1531.89,441.57Z"/><path d="M1531.9,554.52c4.89,0,3.25-5.63,3.83-8.85-.06-1.33,0-2.45-.18-3.55-.27-2.23-.49-5-3.12-5.29-3.62-.43-3.74,2.77-4.16,5.29a12.92,12.92,0,0,0-.15,3.34C1528.47,549,1527,554.52,1531.9,554.52Z"/><path d="M1531.62,601c-3.5.07-3.24,4.36-3.47,7.25a33.19,33.19,0,0,0,.08,5.55c.15,1.85.47,3.91,2.67,4.34,3,.59,3.64-1.9,4.18-4a37,37,0,0,0,.66-5.17C1535.24,605.53,1536.1,600.91,1531.62,601Z"/><path d="M1442.21,309.18a88.28,88.28,0,0,0-10.79-2.6,2.82,2.82,0,0,0-3.38,2.19,3.13,3.13,0,0,0,2,3.58,30.6,30.6,0,0,0,10.62,3.19c1.87.19,4.06.42,4.88-1.58C1446.63,311.15,1444.33,309.84,1442.21,309.18Z"/><path d="M1532,491.07c4.72-.07,3.22-5.67,3.71-8.46a28.34,28.34,0,0,0,0-2.88c-.3-2.53-.07-6-3.27-6.25-4.23-.34-3.7,3.64-4.17,6.41a7.79,7.79,0,0,0-.06,2.21C1528.56,485.56,1527.09,491.13,1532,491.07Z"/><path d="M1528.22,418.2a38.48,38.48,0,0,0,0,4.32c.36,2.56.59,5.69,4.19,5.27,2.69-.31,2.82-3.07,3.1-5.27a15,15,0,0,0,.13-3.34c-.35-3.5,1-9.07-3.78-9.07S1528.7,415.77,1528.22,418.2Z"/><path d="M1417.16,669.71c5-.16,2.74-5.8,3.42-8.54a27.51,27.51,0,0,0,0-2.79c-.32-2.47.24-6-3.17-6.19-4.15-.2-3.65,3.75-4.15,6.51a7.51,7.51,0,0,0-.06,2.22C1413.62,664.35,1412.24,669.88,1417.16,669.71Z"/><path d="M1407.09,772.09c-5.14,1.53-9.56,4.37-12.27,9.12-1.06,1.86,0,3.8,2.25,4.15,3.79.59,12.83-7.12,13-10.89A2.31,2.31,0,0,0,1407.09,772.09Z"/><path d="M1522.47,364.4c.8-3.94-5.91-13.32-9.79-13.82a2.55,2.55,0,0,0-2.82,2.69c-.09,3.78,6,12.44,9.34,13.25A2.47,2.47,0,0,0,1522.47,364.4Z"/><path d="M1456.6,731.62c-5.07,1.54-9.4,4.37-12,9.11-1,1.88,0,3.75,2.21,4.08,3.79.57,12.64-7.1,12.75-11A2.28,2.28,0,0,0,1456.6,731.62Z"/><path d="M1482.19,711.14c-2.86-.89-11.42,5-13,9-.75,2-.33,3.59,1.88,4.23a9.1,9.1,0,0,0,1.18,0c4.07-.59,11.55-7.48,11.64-10.73A2.34,2.34,0,0,0,1482.19,711.14Z"/><path d="M1462.42,315.38c-2.36,0-3.83.6-4,2.31a3.66,3.66,0,0,0,1.1,2.88,25.31,25.31,0,0,0,13.43,5c.83.06,1.94-1,2.57-1.75a2.2,2.2,0,0,0-.6-3C1471.16,317.41,1466.49,316.18,1462.42,315.38Z"/><path d="M1420.46,688.34c-.28-2.28-.67-4.82-3.66-4.66-2.12.12-2.85,2.2-3.22,4.1a13.57,13.57,0,0,0-.34,3.35c.2,3.64-.84,9.28,3.56,9.5,5.28.28,3.06-5.58,3.84-8.6C1420.58,690.6,1420.6,689.46,1420.46,688.34Z"/><path d="M1321.79,815a15.15,15.15,0,0,0-5.45.63c-1.76.47-3.55,1.29-3.27,3.69.2,1.78,1.62,2.43,3.07,2.7a53.64,53.64,0,0,0,5.36.49c3.23-.53,8.24,1,8.58-3C1330.52,814.37,1325.18,815.36,1321.79,815Z"/><path d="M1354,812.61c-2,.83-4,1.89-6,2.92-1.62.85-3.54,1.71-3.19,4,.47,3,3.1,2.57,5,2.79a12.14,12.14,0,0,0,8.21-3.3c1.66-1.48,3.62-3.28,2.53-5.63C1359,809.92,1356.25,811.68,1354,812.61Z"/><path d="M1531.47,569.37c-3.91.17-3.12,5.11-3.33,8.31a20.32,20.32,0,0,0,.25,4.4c.37,2.25,1.12,4.53,4,4.23,2.15-.22,2.73-2.23,3-4.1.22-1.45.26-2.93.39-4.51C1535.1,574.49,1536.58,569.14,1531.47,569.37Z"/><path d="M1416.81,733.13c4.76.23,3.23-4.83,3.89-8-.72-3.3,1.5-9-3.37-9.25s-3.84,5.48-4,9C1413.13,728.07,1412.58,732.93,1416.81,733.13Z"/><path d="M1530.86,395.26c2.79-.49,2.58-3.11,2.62-6.18-.92-3-.79-7.37-4.59-10a2.11,2.11,0,0,0-3,.41c-2.71,4-.2,7.84.63,11.66C1527,393.2,1528.08,395.74,1530.86,395.26Z"/><path d="M412.25,684.35c-2.1.66-3.31,2.23-2.59,4.23A19.77,19.77,0,0,0,420,699.88a2.92,2.92,0,0,0,4.29-2.27C425.11,693.53,416.32,684,412.25,684.35Z"/><path d="M401.76,658.53c-1-1.56-2.5-2.93-4.59-1.9-1.89.92-2.35,2.77-2.05,4.68a22.86,22.86,0,0,0,4.71,11.05c1.26,1.54,3,2.35,4.84,1.27,1.28-.75,1.72-2.31,1.31-5.49A30.13,30.13,0,0,0,401.76,658.53Z"/><path d="M557,807.59c-2.39.57-2.84,2.63-1.9,4.36,2.61,4.79,7.07,7.54,12,9.3,2.1.73,3.44-.69,3.91-2.8C571,814.35,561.09,806.61,557,807.59Z"/><path d="M396.79,639.21c-.83-3.79-.58-8.16-3.41-11.45-1.87-2.18-4.17-1.88-5.11.91-1.36,4.07-.48,8.14,1.15,12,.88,2.1,2.07,4.23,4.89,3.31C396.38,643.32,396.62,641.31,396.79,639.21Z"/><path d="M388.55,580.2c5.34.38,4-5,4.29-8.43a18,18,0,0,0-.46-5.56c-.42-1.83-1.32-3.6-3.72-3.26-1.75.24-2.42,1.73-2.73,3.18a53.13,53.13,0,0,0-.6,5.37C385.82,574.86,384.45,579.91,388.55,580.2Z"/><path d="M389.3,531.34c-4.53-.19-3.4,4.8-4,8,.62,3.37-1.26,9.06,3.59,9.23s3.8-5.46,3.86-9C392.86,536.42,393.54,531.51,389.3,531.34Z"/><path d="M388.76,485c5.16.09,4-5.31,4-8.75.07-3.2.71-8.33-3.32-8.38-5.13-.07-3.48,5.41-4.13,8.7C385.81,479.88,384.5,485,388.76,485Z"/><path d="M391.06,390.26c2.09.39,3.3-1.37,4.05-3.07,1.63-3.72,3.57-7.41,3-11.65a2.85,2.85,0,0,0-4.84-1.69c-3.05,3-3.6,7.16-4.61,11.09C388.44,387.19,388.08,389.7,391.06,390.26Z"/><path d="M388.76,453.44c5.16.1,3.66-5.32,4.12-8.76a8.93,8.93,0,0,0-.06-2.25c-.28-2.58-.14-6.17-3.32-6.31-4.15-.17-3.62,3.87-4,6.71a27.35,27.35,0,0,0,0,2.95C385.8,448.25,384.53,453.36,388.76,453.44Z"/><path d="M389.26,422c2.08-.13,2.94-2.07,3.27-4,.25-1.47.32-3,.52-5-.95-2.81,1-8.61-4-8.44-4.74.16-3.22,5.79-3.56,9.3a17.65,17.65,0,0,0,.31,4.46C386.08,420.35,387.15,422.14,389.26,422Z"/><path d="M392.77,602.17c.11-2.84.08-7.09-3.46-7.13-4.67,0-3.37,4.67-4,7.76.59,3.35-1.11,9.1,3.57,9.08C394.54,611.85,392.64,605.87,392.77,602.17Z"/><path d="M404.72,361.83c3.59-.91,9.94-9.31,9.77-12.73a2.52,2.52,0,0,0-3-2.45c-3.5.34-10.25,8.3-10.3,12.22C401.14,361,402.34,362.43,404.72,361.83Z"/><path d="M388.94,517.1a3.24,3.24,0,0,0,2.57-1.58,45.89,45.89,0,0,0,1.55-6.1c-.37-2.46-.59-4.64-1-6.78a3.37,3.37,0,0,0-2.91-2.91,3,3,0,0,0-3.07,2.61c-.91,4.36-1.16,8.75.36,13A3.39,3.39,0,0,0,388.94,517.1Z"/><path d="M454.72,323.35c4.26-1.41,9.75-1.66,13.18-6.3a1.89,1.89,0,0,0-.72-2.87c-5.51-1.69-10.09,1.16-14.69,3.47-1.28.65-2.43,1.85-1.92,3.62S452.44,323.4,454.72,323.35Z"/><path d="M517.33,305.91c3-1.3,7.34-1,10.63-3.76a2.35,2.35,0,0,0,.87-2.91c-.48-.86-1.46-1.95-2.28-2-4.1-.29-8,.93-11.79,2.37-1.63.62-3.52,1.66-2.75,4C512.72,305.82,514.69,305.84,517.33,305.91Z"/><path d="M596.18,815.31a9.61,9.61,0,0,0-3.34-.22c-3.18.35-8.08-.53-8,3.85.06,4.68,5.08,2.86,7.53,3.37,1.71,0,2.85.1,3.95,0,2.18-.25,5.08-.09,5.36-2.89C602,815.69,598.56,815.92,596.18,815.31Z"/><path d="M503.44,320.48c3.66.45,3.59-3,4.24-5.31a8.08,8.08,0,0,0,.19-3.32c-.49-3.15.18-8.08-3.91-8.09-4.67,0-2.72,5-3.31,7.56a31.14,31.14,0,0,0,0,3.79C501,317.23,500.6,320.13,503.44,320.48Z"/><path d="M424.82,338.51c3.21.84,13.38-5.92,14.07-9.22,0-1.66-.76-2.85-2.49-3-3.52-.26-12.19,5.51-13.32,8.82A2.38,2.38,0,0,0,424.82,338.51Z"/><path d="M485.11,314a102.69,102.69,0,0,0,10.62-3c1.75-.61,3.36-2,2.52-4.19-.58-1.54-2.17-1.77-5.42-1.65-2.41.13-6.23,1.49-9.93,3.18a3.14,3.14,0,0,0-2.11,3.48C481.27,314.21,483.29,314.38,485.11,314Z"/><path d="M985.12,248.91c3.29.48,6.63.71,9.54,1,3.4-.22,6.37-.35,9.33-.64a3,3,0,0,0,2.92-2.81c0-1.65-1.36-2.55-2.81-3a40.94,40.94,0,0,0-18.77-.74,3.24,3.24,0,0,0-2.84,3A3.08,3.08,0,0,0,985.12,248.91Z"/><path d="M960.28,249.57c3.25.06,8.13.43,8.07-3.82s-5-3.27-8.31-3.72c-3.34.62-9-1.09-9,3.91S956.77,249.5,960.28,249.57Z"/><path d="M1058.49,253.62a24.1,24.1,0,0,0,4.17.47c3-.38,7.18.61,7.59-3,.52-4.6-4-4.14-7.08-4.54a21.66,21.66,0,0,0-4.41,0c-2.16.15-4.89,0-5.34,2.74C1052.82,252.86,1056.13,253,1058.49,253.62Z"/><path d="M1026.26,251.45a11.12,11.12,0,0,0,3.29.32c3.44-.3,9,1.46,9.1-3.41.13-4.66-5.45-3.51-8.36-4.06-1.63,0-2.75-.08-3.85,0-2.23.2-4.85.47-4.87,3.32C1021.56,250.29,1024.07,251,1026.26,251.45Z"/><path d="M1216.28,268c8,2,13.45,1,12.54-1.94-1.75-5.71-7.54-3.18-11.09-4.7-4.74-.34-6.75.28-6.79,2.32C1210.87,267.18,1213.8,267.37,1216.28,268Z"/><path d="M890.5,251.28a44.12,44.12,0,0,0,5,.58c2.84-1.3,9.08.54,8.83-4.8-.22-4.53-5.88-2.6-9.29-2.86a12.87,12.87,0,0,0-4.35.53c-1.8.51-3.46,1.44-3.21,3.74C887.7,250.15,889.05,250.94,890.5,251.28Z"/><path d="M1088.73,255.58a10.31,10.31,0,0,0,3.26.54c3.75-.26,9.69,1.95,10-3.54.21-4.33-5.58-3.41-8.49-3.85-1.71,0-2.83-.07-3.93,0-2.27.19-4.78.55-4.7,3.46C1084.88,254.21,1086.89,255.09,1088.73,255.58Z"/><path d="M927.3,249.73c3.51-.51,9.35.79,9.23-3.71-.14-5.51-6.16-3.66-9.93-3.73-2.9,0-7.2.23-7.18,3.65C919.46,250.64,924.24,249.19,927.3,249.73Z"/><path d="M826.1,255.26a17,17,0,0,0,4.11.93c4.13-.91,9,.27,11.14-4.25,1.23-2.54-4.52-4.29-11.48-3.18a11.58,11.58,0,0,0-4.21,1.31,3.49,3.49,0,0,0-1.41,2.71A3.63,3.63,0,0,0,826.1,255.26Z"/><path d="M866,253.49a34.57,34.57,0,0,0,5.37-1.64,2.65,2.65,0,0,0,1.69-2.62,2.3,2.3,0,0,0-2-2.34,36.13,36.13,0,0,0-4.41-.6c-7.49,0-10.61,1.18-11,3.68C855.19,253,859.64,254.62,866,253.49Z"/><path d="M1245.45,272.27a19.36,19.36,0,0,0,3.19.9c3.55.84,7.17,2.35,10.52-.39a2.2,2.2,0,0,0,.36-3c-2.55-3.47-6.53-2.83-10.85-3.58-.34,0-1.45-.05-2.55,0-1.51.09-3.06.4-3.51,2.06C1242,270.6,1243.74,271.53,1245.45,272.27Z"/><path d="M735.49,264.23c2.38-.41,5.7-.89,9-1.6a3.17,3.17,0,0,0,2.6-3.19,2.88,2.88,0,0,0-3-2.7c-3.34.08-6.68.49-10,.89-2.25.27-4.89.77-4.66,3.66S732.24,264.21,735.49,264.23Z"/><path d="M764.51,260.81c1.11.19,2.24.16,4.47.29,1.51-.29,4.1-.66,6.61-1.32a3.4,3.4,0,0,0,2.75-3.13,3,3,0,0,0-2.85-2.93,21,21,0,0,0-12.13,1.12c-1.38.6-2.52,1.64-2.13,3.46S763,260.56,764.51,260.81Z"/><path d="M1119.24,257.69a9.2,9.2,0,0,0,3.27.73c3.83-.26,10.07,2.34,10.63-2.69.59-5.34-6-3.76-8.59-4.56-2.17,0-3.3-.06-4.42,0-2.08.14-3.74,1.12-3.7,3.34A3.65,3.65,0,0,0,1119.24,257.69Z"/><path d="M795.22,258.05c1.46.28,2.95.4,4.52.6,3.56-1.2,10.18.5,9.67-4.78s-6.73-2.39-10.49-2.7a8.35,8.35,0,0,0-4.29,1.1,3.87,3.87,0,0,0-1.87,2.56A2.9,2.9,0,0,0,795.22,258.05Z"/><path d="M1183.68,263.75a25.27,25.27,0,0,0,3.27.83c3.3.53,6.72,1.62,9.58-1.12a2.2,2.2,0,0,0,.25-3c-2.43-3.13-6-2.45-8.74-2.79-1.68,0-2.81-.09-3.93,0-1.82.19-4,.18-4.15,2.71S1181.92,263.21,1183.68,263.75Z"/><path d="M700,267.49a37.22,37.22,0,0,0,4.38.62c3.71-.66,7.73.18,10.55-3.14a2.11,2.11,0,0,0-.13-3c-3.33-2.9-7.1-1.48-10.74-.76a28.81,28.81,0,0,0-4.29,1.35,2.71,2.71,0,0,0-1.73,2.61A2.2,2.2,0,0,0,700,267.49Z"/><path d="M672.22,272.91c3.19-1.19,8.26.73,11.39-3.67a2,2,0,0,0-.57-2.92c-4.33-3.1-8.59-.34-12.83.41-2.24.4-4.56,1.49-3.64,4.4C667.24,273.28,669.44,273,672.22,272.91Z"/><path d="M1158.29,261.34c1.19,0,2.29,0,3.4,0,2-.09,3.81-.63,3.93-2.9.08-1.62-1.32-2.5-2.81-2.94a27,27,0,0,0-3.22-.78c-3.56-.64-7.21-2.18-10.56.52a2.17,2.17,0,0,0-.67,2.94C1150.79,262.08,1154.93,260.58,1158.29,261.34Z"/><path d="M514,722.66c6,5.11,12,10.24,17.81,15.55,16.76,15.3,22,14.64,34.63-4.58.61-.94,1.21-1.9,1.76-2.88,12.17-21.59-3.29-48.13-28.14-48.33-13.67-.11-26.67,10.3-30.54,24C507.73,713,508.82,718.23,514,722.66Zm2.84-13.54c2.69-10.37,15.55-19.62,25.54-18.19,12.36,1.77,22.45,13,22.25,24.7-.13,10.39-6.56,17.3-13.4,23.92-2,1.92-4.24,1.27-6.11-.33q-13.32-11.4-26.54-22.9C516.41,714.39,516.14,712,516.88,709.12Z"/><path d="M511.14,768.62A22,22,0,0,0,509,768c-2.57-.23-4.13,2-3.11,4.46,1.71,4.09,9.91,9.84,13.25,9.21a2.51,2.51,0,0,0,2.27-2.13C521.86,776.51,516.37,770.63,511.14,768.62Z"/><path d="M459.08,727.59a2.74,2.74,0,0,0-2,4.28,20.63,20.63,0,0,0,11.9,9.58c1.6.52,2.88-.34,3.29-2.12C472.76,735.49,463.07,726.75,459.08,727.59Z"/><path d="M485,748.05c-2.47.09-4,.89-3.53,3.31.67,3.54,8.8,10.27,12.29,10.09,2.33-.12,3.39-1.93,2.46-3.84C493.88,752.74,489.73,749.78,485,748.05Z"/><path d="M508.12,691.59a19.6,19.6,0,0,0-.84-5.39,3.09,3.09,0,0,0-3.14-2.52,3.18,3.18,0,0,0-3,2.78c-.39,1.78-.5,3.62-.72,5.39.72,3.39-1.13,9,3.89,8.85C508.7,700.57,508,695.15,508.12,691.59Z"/><path d="M1636.74,446.29c-18.53-.58-34.5,15-34.88,34.08s15,34.21,34.32,34.18,34.24-14.85,34.46-34.22C1670.85,462.69,1655.08,446.85,1636.74,446.29Zm-.31,60.68c-15.24.11-26.23-10.76-26.34-26s10.93-27,25.49-27.33c14.31-.32,27.52,12.65,27.61,27.09C1663.28,494.78,1651,506.86,1636.43,507Z"/><path d="M285.43,514.55a34.16,34.16,0,0,0-.49-68.3c-18.84-.07-35.09,16.13-34.69,34.59C250.67,500.24,265.89,514.82,285.43,514.55Zm-.51-61c14.17.24,26.2,12.65,26.15,27C311,496,300.22,506.94,285,507c-14.76.05-27.52-12.69-27.17-27.14C258.21,465.58,270.83,453.34,284.92,453.58Z"/><path d="M790.92,628.16a40.58,40.58,0,0,0-40.15,40.47,39.64,39.64,0,0,0,40.36,39.91c22.85-.18,39.85-17.26,40-40.15A40.23,40.23,0,0,0,790.92,628.16Zm0,73.55c-16.84-.06-32.34-15.76-32.45-32.83-.11-18.19,15-33.58,32.77-33.38,17.57.21,32.26,15.1,32.26,32.7C823.5,686.84,809,701.79,790.92,701.71Z"/><path d="M1130.12,628.16A40.58,40.58,0,0,0,1090,668.63a39.64,39.64,0,0,0,40.36,39.91c22.85-.18,39.85-17.26,40-40.15A40.22,40.22,0,0,0,1130.12,628.16Zm0,73.55c-16.82-.06-32.34-15.76-32.44-32.83-.12-18.19,15-33.58,32.76-33.38,17.57.21,32.26,15.1,32.26,32.7C1162.7,686.84,1148.15,701.79,1130.12,701.71Z"/><path d="M577.2,516.43a40.56,40.56,0,0,0-40.14,40.46,39.64,39.64,0,0,0,40.36,39.91c22.85-.17,39.85-17.25,40-40.15A40.21,40.21,0,0,0,577.2,516.43Zm0,73.55c-16.83-.08-32.33-15.77-32.43-32.83-.12-18.19,15-33.59,32.76-33.38,17.57.21,32.26,15.1,32.26,32.7C609.79,575.1,595.25,590.06,577.2,590Z"/><path d="M1344.58,516.44c-22.31-.6-41.18,18-41.13,40.52a39.24,39.24,0,0,0,39.18,39.61c23.41.23,41.45-17.2,41.38-40C1383.94,535.45,1365.82,517,1344.58,516.44Zm-.86,73.53c-18.2-.08-32.46-14.9-32.32-33.64.12-18.12,14.39-32.66,32-32.59s33.11,15.9,32.91,33.56C1376.11,574.59,1360.7,590,1343.72,590Z"/><rect class="cls-1" x="1919" y="1079" width="1" height="1"/><rect class="cls-1" width="1" height="1"/><rect class="cls-1" y="1079" width="1" height="1"/><rect class="cls-1" x="1919" width="1" height="1"/></g><g id="Capa_3" data-name="Capa 3"><path d="M871.65,420.13v111H851.82V460.42l-19.51,14.91-16.17,12.53L800,475.33l-19.51-14.91v70.74H760.62v-111l19.83,15.23,35.69,27.44,35.68-27.44Z"/><path d="M925.57,457.09v75.5H905.75V455a15.85,15.85,0,0,0-13.49-13.49h-4.44V421.88h4.29V422a35.65,35.65,0,0,1,13.48,3.65,35.17,35.17,0,0,1,16,16.18,41.54,41.54,0,0,1,2.69,7.46,32.91,32.91,0,0,1,1,8.09Z"/><path d="M1052,420.13v111h-19.83V485.48H973.63a31.42,31.42,0,0,1-14.91-3.65,32.38,32.38,0,0,1-17.76-29V420.13h19.82v32.68a13.07,13.07,0,0,0,13,13h58.53V420.13Z"/><path d="M1106.07,457.09v75.5h-19.83V455a15.83,15.83,0,0,0-13.48-13.49h-4.44V421.88h4.28V422a35.55,35.55,0,0,1,13.48,3.65,35.17,35.17,0,0,1,16,16.18,41.57,41.57,0,0,1,2.7,7.46,33.41,33.41,0,0,1,1,8.09Z"/><path d="M1159.68,457.09v75.5h-19.83V455a15.83,15.83,0,0,0-13.48-13.49h-4.44V421.88h4.28V422a35.55,35.55,0,0,1,13.48,3.65,35.17,35.17,0,0,1,16,16.18,42.36,42.36,0,0,1,2.7,7.46,33.41,33.41,0,0,1,.95,8.09Z"/></g></g></svg>