<svg xmlns="http://www.w3.org/2000/svg" viewBox="0 0 1920 1080"><defs><style>.cls-1{fill:#f2f2f2;}</style></defs><g id="Capa_2" data-name="Capa 2"><g id="Capa_1-2" data-name="Capa 1"><path d="M1703.75,428.08c-.07-10.52-2.42-20.24-12-26.17-5-3.11-6.85-6.89-6.07-12.47,1.1-7.56-2-10.2-9.82-10.06-28,.45-56,0-84,.45-6.25.1-8.23-1.56-8-7.8.9-22.48-3.55-43.38-19.39-60.56a155.88,155.88,0,0,0-33.39-27.84c-38-23.25-80.52-33.91-123.3-43.75-82.81-19-166.31-34.11-250.71-44.15-55.58-6.64-111.29-11.14-167.27-12.17-124.18,0-206.57,9.21-206.57,9.21-21.32,2.8-42.66,5.38-63.93,8.45-83.48,12.1-166.31,27.69-248,48.82-35.1,9.08-68.73,21.81-97.8,44.24-18.33,14.15-33.11,31.05-36.35,55.17a172.77,172.77,0,0,0-1.06,23.44c0,5.54-2.24,6.92-7.56,6.87-27.69-.28-55.38-.22-83.08-.15-11.7,0-11.85.17-11.81,11.69,0,4.19-.62,7.06-4.72,9.66-9.55,6.07-12.65,15.93-13.11,26.72-.23,5.86,0,11.74-.12,17.6v86.63c0,9.54,1.87,11.84,1.87,11.84,5.66,10.39,19.91,14.89,17.74,30.8-1.34,9.9-.05,20.11-.49,30.16-.25,5.88,2.24,8.63,7.7,9.41,30.12-.69,60.25-.81,90.37,0,5.73-1,7.39-4.57,7.24-10.18-.32-12,.12-24-.15-36-.12-4.37,1.06-6.17,5.56-5.68,6.23.67,13-1.41,18.25,3.86,1.12,1.13,2.87,2.25,2.4,4.12-.54,2.22-2.57,1.71-4.13,1.48-7.48-1.15-9,2.92-8.93,9.32.14,16.75-.11,33.49-.2,50.24.1,18.11.32,36.24.24,54.35,0,6.25,1.27,10.58,8.8,9.67a5.18,5.18,0,0,1,5.55,2.93c5.2,10.16,14.14,17.07,21.85,25,14.12,11.68,15.43,28.86,19.11,44.94,4.06,17.74,8,35.52,13.86,52.81,8.48,16.16,18.81,30.83,33.4,42.23,14.34,11.21,30.26,19.51,48.57,25.68,13.22,5,39.53,7.32,39.53,7.32,22.46,1.76,43.38-6.72,64.68-12.21l4.88-1.25c69.74-21.22,140.43-37.85,213.13-45.21,22.51-2.27,45-5.26,67.66-5,12.46-2.29,25.08-1.33,37.61-1.52,51-.74,101.88-.18,152.61,5.4,12.76,1.39,25.46,3.39,38.2,5.1,32,3.33,63.32,10.17,94.62,17.22,42.19,9.53,83.32,23.09,125.23,33.64,58.84,14.8,130.38-17.84,153.65-70.11,9.14-20.51,13.09-42.64,17.45-64.5,3.31-16.51,9.75-30.66,23.36-41.23a47.5,47.5,0,0,0,14-16.56c1.51-3.13,3.64-4.94,7.16-4.66,7.62.63,8.51-4,8.5-10.06-.12-32.73,0-65.46,0-98.2,0-14.08-.08-14.08-13.19-16.5,3.08-6.32,20.33-11.81,25.2-8,1.8,1.43,1,3.65,1,5.53,0,12.32.27,24.63-.12,36.93-.2,6.23,2.64,8.9,8.25,8.92q44.5.08,89-.12c6.62,0,9.12-3.26,8.85-10-.5-12.28-.2-24.62-.17-36.93,0-3-.79-6.44,2.71-8.2,7.61-3.8,10.65-11.12,14.24-18,2.1-10,1.45-20.18,2-30.3Q1704,469.2,1703.75,428.08ZM235.34,543.74c-2.52.23-3.61-2.67-4.17-4.67a42.72,42.72,0,0,1-2.06-11.46c-.15-33.23-.1-66.47-.07-99.7,0-5.73,1.45-10.9,6.5-15.1,2.34,3.49,1.53,6.35,1.55,9q.12,58.23.06,116.46C237.15,540.19,238.72,543.4,235.34,543.74Zm16.48-150.89q35.64-.12,71.25,0c1.75,0,4.52-.94,4.74,1.84.27,3.31-2.69,2.91-4.82,2.93-11.74,0-23.49,0-35.21,0v0c-12,0-24,0-36,0-2.1,0-5.19.62-5.14-2.62C246.66,391.51,249.92,392.87,251.82,392.85ZM330,546.51c.05,4.6-2,5.78-6.1,5.69-5.6-.11-11.19.06-16.79.14-2.11,0-4,.64-4,3.21s1.94,3.21,4,3.27c4.75.16,9.52.37,14.26.12,4.22-.23,6.07.93,5.93,5.53-.3,10.35-.25,20.7-.05,31,.07,4.11-1.44,5.16-5.44,5.14-22.94-.12-45.89,0-68.82.17-3.31,0-5.58-.51-5.17-4.46,2.82-28.12-5.77-55.67-4.1-83.82.82-14.12.17-14.12,14-14,9.77.07,19.57,0,29.36,0v1c12.59,0,25.17.13,37.75-.09,3.94-.06,5.47,1,5.38,5.13Q329.78,525.53,330,546.51Zm-65.44-85.18c.05-12.21,10.9-23.2,23-23.24,12.52,0,23.54,11.23,23.29,23.79-.24,11.45-11.56,22.55-23,22.55C276,484.45,264.49,473,264.56,461.33Zm65.71,24.11c.06,5.9-1.7,7.46-7.58,7-8.81-.65-17.68-.17-26.51-.17,19.12-14.45,24.91-25.57,20-40.34-4.37-13.15-16-21.06-30.21-20.54-13.31.48-24.35,10.11-27.45,23.92-3.33,14.75,2.92,25.25,21.85,35.65-12.11,4.09-23.5,2.59-34.84.47-2.5-.45-2-3-2-4.89q.15-36.46.32-72.94c0-6.39,2.38-9.46,9.49-9.36,23.49.32,47,.2,70.44-.1,5.26-.07,6.57,1.58,6.51,6.65Q329.93,448.13,330.27,485.44Zm35.06-165c19.35-22.11,44.65-35.13,71.52-45.35,38.51-14.63,78.88-22.44,118.95-31.21,56.48-12.35,113.45-22,170.66-30.23a1632.5,1632.5,0,0,1,309.66-15.29c61.17,2.86,122,9.93,182.55,19.24,77,11.83,153.53,26.09,228.86,46.07,36.11,9.57,70.77,22.81,99,48.62,10.24,9.36,18.8,19.94,21.81,34,.56,2.57,2.94,6.28.1,7.41-3.31,1.28-7.19-.74-9-4.45-1.93-4-3.34-8.3-5.44-12.22-1.16-2.16-2-6.35-5.76-4.33-3.19,1.73-1.18,4.91-.19,7.44.88,2.24,3.23,3.95,1.78,8.92q-589.65-203.49-1180.23.22c-.37-.82-.73-1.63-1.1-2.43,1.4-3,2.86-5.95,4.14-9,.77-1.84,1.32-4-.71-5.27-2.28-1.4-3.8.62-4.72,2.2a91.54,91.54,0,0,0-6.06,11.93c-2,5-5.2,7.61-11.51,7.31C351.25,340.92,357,330,365.33,320.44Zm630.6-66.92c50.9,1.28,101.59,5.24,152.18,11.21,94.39,11.14,187.31,29.6,279.21,53.59,6.6,1.71,8.34,4.25,8.15,10.6-.4,14.2,0,14-14,10.35-64.36-16.82-129.53-29.79-195.19-40.44-111.44-18.09-223.57-23.17-336.28-19.37-47.57,1.61-95,4-142.37,8.74-66.11,6.65-130.5,22.16-194.83,37.9-21.15,5.17-42.15,10.94-63.17,16.67-3.86,1.05-5.34,1.11-5.42-3.68-.37-19-.49-18.79,18-23.44,58.74-14.78,117.81-27.92,177.55-37.9,51.83-8.65,103.9-15.44,156.3-19.49,21.77-1.7,43.51-3.31,65.34-4.89,10.35,0,20.7.27,31-.12Zm-653,295.54c-4.57.12-6.3-1-6.26-6,.32-43.08.33-86.15.52-129.23,0-2.18-.2-5.14,1.06-6.45,10.28-10.72,10.16-24.41,10.78-37.7.29-6.17,2.89-8.52,8.35-10.35,36.74-12.32,73.69-24,111-34.51,9.54-2.69,9.47-2.76,9.39,7.12-.05,4.71,2.07,11-.24,13.71-2.72,3.19-9.14,3.23-13.92,4.71C444.39,356.27,425.29,362.54,407,371c-19.05,8.79-29.7,23.74-35.8,43.82-3.58,11.83-2,22.61-1.63,34.15.94,30.2.37,60.42.41,90.64v13.66C360.81,548,351.8,548.86,342.93,549.06Zm1188.84,154c-20.53,14.38-28.73,35.38-33,59-2.48,13.71-6.16,27.22-9.86,40.68-10.5,38.22-38.69,58.58-73.57,72-30.44,11.71-60.42,8.62-91-.74-50.42-15.44-101.32-29.28-153.34-38.57-12.83-2.31-25.67-4.68-38.5-7-50.47-6.33-101.06-11.1-152-11.1-35.5,0-71,.23-106.43,1.88-46.22,4.12-92.24,9.51-137.79,18.61-39.17,7.83-77.73,18-116.14,28.88-2.67.76-5.43,1.18-8.15,1.75-46.8,18.52-92.65,20.73-136.64-8.15-13.14-8.62-25.43-18.14-33-32.46-11.19-14.65-13.56-32.57-17.84-49.64-4.44-17.69-7.31-35.77-14.54-52.67-6.62-9.11-15.23-16.22-23.55-23.62-1.58-1.43-4-3-2.6-5.5,1.1-2,3.56-.91,5.37-.91,27.1,0,54.2.16,81.3-.16,5.9-.07,8.08,1.46,7.33,7.46a74.19,74.19,0,0,0,0,12.56c.08,2-.77,4.79,2.82,4.91,3.8.12,3.71-2.64,3.8-5.16.15-4.74.35-9.49.18-14.23s2-5.36,5.6-3.56c10.11,5,15.2,13.51,16.65,24.44,3.71,12.2,1.41,25,3.88,37.35,5.11,25.49,20.53,39.67,46.15,42.07,7.51.71,15,1.3,22.6,1.3q119.17.12,238.37.05c3.41,0,7.88-1.45,6.41,5-.25,1.15,1.06,2.06,2.21,1.93,8.24-1,16.58.64,24.49-4.94,6.13-4.34,14.21-3,21.12,1,2.79.1,5.73.85,8.33.2,21.14-5.31,42.21-.89,63.31-.07,7.81.3,15.47-.08,23.2-2.32,8-2.32,15.79,3.53,24.46,1.63a92.82,92.82,0,0,1,41.48.3,27.51,27.51,0,0,0,17.31-1.68c10.65-4.73,19,3.18,28.54,4.83,4.12.7,8.34.82,12.5,1.12,1.62.1,4.4.42,4.24-1.41-.79-8.25,5.15-5.31,8.82-5.41,7.24-.18,14.51.15,21.77.27h23.47c4.49,0,9,0,13.49,0q90.22-.18,180.44-.29a131.6,131.6,0,0,0,25-2.08c25-4.84,40.28-23,41.61-48.69.59-11.43.35-23,3.53-34.11,2.37-8.26,6.23-15.52,14.43-19.64,4.86-2.45,7.93-2.72,7.39,4.27-.35,4.45-.15,8.94-.18,13.41,0,2.72,1.54,4.35,4,4.35,2.79,0,2.38-2.54,2.55-4.42.08-.84,0-1.68.07-2.52.57-17.81.57-17.81,18.78-17.81q35.68,0,71.34,0c1.58,0,3.34-.72,4.89.91C1537,699.67,1534,701.5,1531.77,703.06Zm21.93-110.84q-.63,41.53-.32,83.08c0,6.1-1.83,7.46-7.6,7.21a326.48,326.48,0,0,0-33.55,0c-7.25.44-7.86-2.25-6.23-8.11a123.1,123.1,0,0,0,2.71-14.8c.28-2-.12-4.2-2.52-4.66s-3.47,1.53-3.89,3.51c-1.19,5.73-3,11.49-3.12,17.26-.15,6.42-3.08,7-8.35,6.89-14.55-.39-29.13.3-43.65-.44-36.24-1.85-46.45,21.81-49.09,46.87-.91,8.61-.74,17.34-1.82,25.93-2.35,18.9-14.65,30.51-33.6,32.76-19.25,2.3-38.57,1.31-57.86,1.36l-722.21.08a199.28,199.28,0,0,1-25.12-1.43c-20.35-2.55-32.86-15.23-34.39-35.8-.59-7.79-.62-15.62-.91-23.45-1.09-5.16-1.8-10.43-3.33-15.47-6.13-20.25-19.52-30.52-40.7-30.82-16.5-.23-33-.15-49.52.44-5.79.2-8-1.21-8.2-7.12a56.67,56.67,0,0,0-2.46-14c-.71-2.49.15-7.48-4.63-6.32-3.37.82-2.25,4.45-1.76,7.22.82,4.68,1.14,9.46,2.32,14.05,1.09,4.33.49,6-4.5,5.88-12.57-.27-25.17-.18-37.75.17-4.22.13-5.16-1.23-5.1-5.18.29-19.28.31-38.57.41-57.87-.1-9.78,0-19.58-.42-29.36-.22-5,1.58-6.4,6.26-5.69,8.2,1.21,10.89-2.86,10.61-10.67-.46-12-.29-24.06-.24-36.09,0-1.71-1.09-4.45,1.61-4.89s2.31,2.41,2.89,4.07.79,3.34,1.7,4.65c.71,1,2.29,2.12,3.39,2,1.5-.12,1.78-1.95,1.7-3.38a81.31,81.31,0,0,0-3.14-19.77c-.25-.79-.69-2.07-1.19-2.14-13.91-2.1-6.19-12.21-5.9-18.36a122.38,122.38,0,0,0,.17-16.48c-1.77-21.2-2.2-42.47.23-63.63,1.83-15.89,10.82-27.31,24.85-34.61,25.42-13.2,52.77-21.37,80.21-28.86,62.71-17.12,125.82-32.89,189.8-44.74,40.17-7.44,80.74-11.64,121.47-14.5,44.38-3.11,88.82-4.74,133.31-5.27l53.73-.12c61.89.45,123.42,5.42,184.79,13.27a2005.69,2005.69,0,0,1,225.35,42.36c31.38,7.72,62.67,15.77,93.55,25.31,15.91,4.93,31.19,11,40.07,26.67,7.24,12.88,4.15,26.88,4.3,40.5.74,15.93,1,31.86-1.16,47.7-1.13,8.2,2.4,15.93,1.88,24-.19,2.94,1.16,6.67-4.23,5.61-2.44-.47-3.48,1-4,3.15-1.31,6.28-3,12.5-3,19,0,1.58-.37,3.67,1.84,4.09,2.44.47,3.23-1.38,4-3.31,2-4.74.21-10.57,5-16,0,9.84,0,18.35,0,26.83s0,16.78.11,25.17c.09,6,2.74,9.69,9.33,8.47S1553.78,586.14,1553.7,592.22ZM383.42,521.88c2.61-.27,2.64,3,2.77,5.31.26,1.75,1.57,4.47-1,4.7-3.36.31-2.23-2.7-2-4.7C382.1,525.26,381.54,522.06,383.42,521.88ZM1576.48,549c-7.46-.25-15.09-1-22.3,2.35-5,2.29-4.75-1.33-4.73-4.58.1-14.25,0-28.52.27-42.78.42-24.28-.24-48.49,2.38-72.8,3.29-30.56-14.41-56.13-43.71-67A471,471,0,0,0,1449,346.85c-5.66-1.29-7.54-3.28-7.34-9.27.55-15.31.15-15.19,14.9-11.08,35.92,10,71.56,21,106.75,33.39,4.29,1.49,7.11,3,7.3,8.45.47,13.91.82,28,11.35,39.21,1.36,1.45.88,4.82.88,7.29.06,21.25,0,42.51,0,63.74h0c0,21.26-.15,42.51.1,63.75C1583,547.37,1581.82,549.21,1576.48,549Zm15.14-154.52c.27-2.45,2.48-1.69,3.94-1.69,12.29-.07,24.57,0,36.83,0,11.73,0,23.46-.08,35.17.05,2,0,5.29-1.27,5.52,1.78.29,3.73-3.34,3-5.62,3-20.65.06-41.28,0-61.93,0-3.36,0-6.71.05-10,0C1593.38,397.62,1591.33,397.18,1591.62,394.51Zm-2,14.84c0-4.39,1.92-5.08,5.54-5.06,24.06.08,48.11.19,72.15,0,5.78,0,8.35,2.52,8.41,7.83.31,24.87.46,49.73.68,74.6,0,2.89-.88,4.95-4.22,4.94h-35.05c20.43-8.6,29.3-21.47,22.8-41.16-4.05-12.25-16.36-19.66-29.53-19.09-12.35.54-24.5,9.66-27,21.52-3.82,18.45,3.74,31.25,21,39.27-10.35,0-20.72-.07-31.08,0-3.66,0-3.87-2.07-3.85-4.87C1589.63,461.35,1589.74,435.34,1589.6,409.35Zm42.89,75c-12.38.13-23.5-10.94-23.53-23.44,0-11.57,10.78-22.69,22.24-22.85,12.79-.16,23.69,10.27,23.87,22.89C1655.24,473.07,1644.47,484.25,1632.49,484.38Zm43,57c-3.78,18.21-3.54,36.32-3.44,54.57,0,3.86-1.75,4.62-5.12,4.62-22.92,0-45.84,0-68.75.27-3.89,0-5.45-1-5.36-5.13.25-10.62.28-21.23,0-31.85-.14-4.44,1.78-5.06,5.46-4.89,4.73.2,9.51,0,14.24-.09,2.14-.06,3.9-1,3.85-3.47,0-2.67-2.1-3-4.12-3-5.57-.12-11.19-.32-16.76-.1-4.37.16-5.88-1.57-5.83-5.88.15-14,.22-27.94-.09-41.92-.08-4.4,1.94-5.08,5.5-5.06,12.85.07,25.7,0,38.56,0v-.92c12,0,24,.23,36.05-.1,4.82-.14,7.06.5,6.79,6.18C1675.86,516.87,1678,529.57,1675.5,541.37Zm14.91-13.49c0,6.35-.91,12.5-6.71,17.6-2.2-4.77-.69-9-.72-12.93-.29-38.27-.35-76.55-.4-114.84,0-1.68-1.36-4.31,1.58-4.78,1.88-.31,2.57,1.81,3.44,3.21a18.85,18.85,0,0,1,2.86,10.31C1690.41,460.25,1690.47,494.07,1690.41,527.88Z"/><path class="cls-1" d="M1553.7,592.22c.08-6.08-1.11-9-7.78-7.77s-9.24-2.44-9.33-8.47c-.11-8.39-.1-16.79-.11-25.17s0-17,0-26.83c-4.82,5.46-3,11.29-5,16-.82,1.93-1.61,3.78-4,3.31-2.21-.42-1.86-2.51-1.84-4.09,0-6.46,1.73-12.68,3-19,.47-2.2,1.51-3.62,4-3.15,5.39,1.06,4-2.67,4.23-5.61.52-8.11-3-15.84-1.88-24,2.2-15.84,1.9-31.77,1.16-47.7-.15-13.62,2.94-27.62-4.3-40.5-8.88-15.63-24.16-21.74-40.07-26.67-30.88-9.54-62.17-17.59-93.55-25.31a2005.69,2005.69,0,0,0-225.35-42.36c-61.37-7.85-122.9-12.82-184.79-13.27l-53.73.12c-44.49.53-88.93,2.16-133.31,5.27-40.73,2.86-81.3,7.06-121.47,14.5-64,11.85-127.09,27.62-189.8,44.74-27.44,7.49-54.79,15.66-80.21,28.86-14,7.3-23,18.72-24.85,34.61-2.43,21.16-2,42.43-.23,63.63a122.38,122.38,0,0,1-.17,16.48c-.29,6.15-8,16.26,5.9,18.36.5.07.94,1.35,1.19,2.14a81.31,81.31,0,0,1,3.14,19.77c.08,1.43-.2,3.26-1.7,3.38-1.1.1-2.68-1-3.39-2-.91-1.31-1.14-3.09-1.7-4.65s-.13-4.5-2.89-4.07-1.59,3.18-1.61,4.89c-.05,12-.22,24.06.24,36.09.28,7.81-2.41,11.88-10.61,10.67-4.68-.71-6.48.69-6.26,5.69.45,9.78.32,19.58.42,29.36-.1,19.3-.12,38.59-.41,57.87-.06,3.95.88,5.31,5.1,5.18,12.58-.35,25.18-.44,37.75-.17,5,.1,5.59-1.55,4.5-5.88-1.18-4.59-1.5-9.37-2.32-14.05-.49-2.77-1.61-6.4,1.76-7.22,4.78-1.16,3.92,3.83,4.63,6.32a56.67,56.67,0,0,1,2.46,14c.16,5.91,2.41,7.32,8.2,7.12,16.5-.59,33-.67,49.52-.44,21.18.3,34.57,10.57,40.7,30.82,1.53,5,2.24,10.31,3.33,15.47.29,7.83.32,15.66.91,23.45,1.53,20.57,14,33.25,34.39,35.8a199.28,199.28,0,0,0,25.12,1.43l722.21-.08c19.29-.05,38.61.94,57.86-1.36,18.95-2.25,31.25-13.86,33.6-32.76,1.08-8.59.91-17.32,1.82-25.93,2.64-25.06,12.85-48.72,49.09-46.87,14.52.74,29.1.05,43.65.44,5.27.13,8.2-.47,8.35-6.89.12-5.77,1.93-11.53,3.12-17.26.42-2,1.41-4,3.89-3.51s2.8,2.71,2.52,4.66a123.1,123.1,0,0,1-2.71,14.8c-1.63,5.86-1,8.55,6.23,8.11a326.48,326.48,0,0,1,33.55,0c5.77.25,7.65-1.11,7.6-7.21Q1553,633.78,1553.7,592.22Zm-1156.89-6.5c-1.06-6.26-2.27-12.51-3.21-18.81-.28-1.92,0-4.15,2.54-4.51s3.43,1.52,3.85,3.51c1.34,6.22,2.59,12.47,3.63,17.49,0,3.21.22,5.43-2.3,5.93C398.64,589.87,397.25,588.33,396.81,585.72ZM409.56,636c-2.53.24-3.3-1.81-3.78-3.68-1.22-4.8-2.23-9.64-3.34-14.48-.07-1.08-.1-2.18-.2-3.26-.27-2.54-.45-5.48,2.7-5.88s3.68,2.65,4.36,5c.62,2.08,1.07,4.22,1.59,6.33.44,3.85,1,7.7,1.3,11.58C412.32,633.55,412.25,635.79,409.56,636ZM478,367.8c.06-2,.93-3.85,3.55-3.68,2.79.2,2.7,2.32,2.74,4.25.07,3.06,0,6.12,0,9.16,0,3.34,0,6.67,0,10,0,1.71-.35,3.43-2.54,3.65a3.19,3.19,0,0,1-3.79-3.4C477.86,381.12,477.86,374.47,478,367.8Zm6.24,67.07c0,1.83-.78,3.26-2.89,3.27a3,3,0,0,1-3.31-3c-.05-7.21,0-14.43.28-21.63.07-1.49,1.11-3.46,3.21-3.12a3.39,3.39,0,0,1,2.76,3.63c0,3.61,0,7.22,0,10.85h0C484.29,428.2,484.33,431.54,484.28,434.87Zm-6.42,26.9c0-2,.82-4.22,3.14-4.29,3-.08,3.31,2.44,3.34,4.76.07,3.07,0,6.15,0,9.22h.05c0,3.07,0,6.15,0,9.22-.06,2.32-.24,4.67-3.52,4.47-2.57-.16-3.1-2-3.1-4.11C477.76,474.62,477.74,468.18,477.86,461.77Zm3,43.39c6.16-.15,2.72,7.58,3.51,11.81a33.48,33.48,0,0,1,0,8.37c-.21,2.55,1,6.55-3.08,6.59-4.69.06-3.34-4.22-3.56-7-.19-2.51,0-5,0-8.19C479,513.13,475.21,505.31,480.87,505.16Zm-2.62,49a2.64,2.64,0,0,1,2.92-2.41,3,3,0,0,1,3.11,3.2c.05,3.88,0,7.76,0,11.64h0c0,3.06,0,6.12,0,9.17,0,1.75-.39,3.38-2.62,3.48-1.9.08-3.35-.74-3.55-2.69A102.83,102.83,0,0,1,478.25,554.19Zm3.19,118.31c-2.74.07-3.88-1.43-3.76-4.18.13-3.05,0-6.09,0-9.13h.22c0-3.31-.1-6.63.05-9.94.06-1.73,1-3.33,2.9-3.46,2.41-.19,3.41,1.42,3.43,3.64.09,6.37.1,12.72.19,19.07C484.53,670.68,483.92,672.43,481.44,672.5Zm.22-46.56c-5.73.51-3.06-5.22-4.27-8.13.18-4.95.23-9.93.62-14.87.15-2.11.64-4.87,3.56-4.55,2.1.22,2.72,2.4,2.77,4.49.11,3.84.22,7.71.34,11.56a18.59,18.59,0,0,1-.34,3.27C483.56,620.57,486.46,625.54,481.66,625.94ZM564.6,658.6c-12,9.58-25.5,10.4-39.23,4.42-14.8-6.47-22-23.72-18.58-43,9.22-26.46,38.41-31.5,55.75-19.52,7,4.84,10.61,11.74,14.09,19C580.08,634.81,577.32,648.42,564.6,658.6Zm871-291.14c.07-1.81.84-4.1,3.48-3.71,2.36.35,2.77,2.34,2.77,4.4,0,3.33,0,6.64,0,10h0c0,3,0,6.08,0,9.12,0,1.9.12,4-2.8,4-2.69,0-3.29-2-3.34-3.88C1435.49,380.72,1435.44,374.08,1435.64,367.46Zm.49,44.29c.75-.71,1.52-1.43,2.3-2.13,2.87,1,3.56,3.17,3.51,5.93-.1,5.86,0,11.74-.14,17.6,0,2.1.41,4.89-2.89,5-3.14.12-3.44-2.52-3.49-4.72C1435.2,426.22,1434.73,419,1436.13,411.75Zm-.42,49a3.21,3.21,0,0,1,3.32-3.11c2.72.08,2.82,2.15,2.84,4.15,0,3.05,0,6.11,0,9.15h-.08c0,3.62,0,7.23,0,10.82,0,1.77-.34,3.36-2.62,3.41a3,3,0,0,1-3.41-2.85A98.46,98.46,0,0,1,1435.71,460.78Zm-66.33,204.9c-21-7.76-30.63-24-25.79-44.31,3.56-14.87,13.71-23.53,28.26-26.32,13.89-2.66,25.9,1.81,35,12.93a80.94,80.94,0,0,1,4.59,7C1421.44,646.39,1401.13,670.87,1369.38,665.68Zm72.42-100c0,3.32,0,6.65,0,10,0,1.69-.29,3.41-2.52,3.59a2.87,2.87,0,0,1-3.45-2.72,72.51,72.51,0,0,1,.29-22.3c.25-1.29,1-2.82,2.65-2.73,2,.11,2.83,1.68,2.89,3.39.15,3.58,0,7.19,0,10.79ZM1436.16,601c.3-1.31.91-2.86,2.6-2.81,2,0,2.81,1.73,2.88,3.43.15,3.61,0,7.22,0,10.85h.1c0,3.35,0,6.69,0,10,0,1.73-.37,3.46-2.55,3.67-1.92.18-3.38-.83-3.5-2.74C1435.24,616,1434.48,608.47,1436.16,601Zm5.66,68.29c0,1.62.08,3.6-2.23,3.72-2.1.11-4.14-.89-4.17-3.15-.1-6.92,0-13.86.3-20.78.09-1.86,1.18-4.11,3.63-3.68,1.66.29,2.45,2,2.44,3.9,0,3.33,0,6.65,0,10h0C1441.84,662.65,1441.89,666,1441.82,669.32Zm0-140.72c-.59,4.47-3,4.69-6.2,2.3a104.76,104.76,0,0,1,.32-22.6c.27-1.83.6-4.41,3.17-4.16,2.34.25,2.56,2.65,2.67,4.62.24,3.9.41,7.79.59,11.69C1442.17,523.17,1442.16,525.91,1441.79,528.6Zm72.43,103.07c-.49,2.34-1.63,4.56-4.37,4.09s-2.86-3-2.42-5.35c1.09-5.74,2.08-11.52,3.48-17.2.48-2,1-5.18,3.64-4.87,3.08.37,2.79,3.57,2.86,7.12C1516.48,620.18,1515.39,625.94,1514.22,631.67Zm11.66-62.45c-1,5.41-2,11.11-3,16.82-.39,2.12-1.35,3.75-3.83,3.38-3-.44-3.18-2.56-2.74-5,1-5.46,1.75-11,3-16.33.57-2.46.82-6.37,4.62-5.62C1527.27,563.18,1525.29,566.67,1525.88,569.22Z"/><path d="M1411.48,615a80.94,80.94,0,0,0-4.59-7c-9.14-11.12-21.15-15.59-35-12.93-14.55,2.79-24.7,11.45-28.26,26.32-4.84,20.32,4.75,36.55,25.79,44.31C1401.13,670.87,1421.44,646.39,1411.48,615ZM1407,634.58c-3.29,16.16-15.81,26-31.45,24.63-15.32-2.76-26.37-14.65-26.63-28.65-.23-12.78,10.65-26.24,23.56-29.13,13.07-2.91,27.82,5.24,33.23,18.35A25.48,25.48,0,0,1,1407,634.58Z"/><path d="M576.63,619.48c-3.48-7.25-7.09-14.15-14.09-19-17.34-12-46.53-6.94-55.75,19.52-3.38,19.29,3.78,36.54,18.58,43,13.73,6,27.27,5.16,39.23-4.42C577.32,648.42,580.08,634.81,576.63,619.48Zm-36.27,40.23c-16.79,0-27.77-13.74-27.76-29.68a29.31,29.31,0,0,1,29.62-29c16,.17,29,13.64,28.88,29.8S557.16,660,540.36,659.71Z"/><path d="M409.56,636c-2.53.24-3.3-1.81-3.78-3.68-1.22-4.8-2.23-9.64-3.34-14.48-.07-1.08-.1-2.18-.2-3.26-.27-2.54-.45-5.48,2.7-5.88s3.68,2.65,4.36,5c.62,2.08,1.07,4.22,1.59,6.33.44,3.85,1,7.7,1.3,11.58C412.32,633.55,412.25,635.79,409.56,636Z"/><path d="M401.32,589.33c-2.68.54-4.07-1-4.51-3.61-1.06-6.26-2.27-12.51-3.21-18.81-.28-1.92,0-4.15,2.54-4.51s3.43,1.52,3.85,3.51c1.34,6.22,2.59,12.47,3.63,17.49C403.63,586.61,403.84,588.83,401.32,589.33Z"/><path d="M481.32,531.93c-4.69.06-3.34-4.22-3.56-7-.19-2.51,0-5,0-8.19,1.27-3.57-2.52-11.39,3.14-11.54,6.16-.15,2.72,7.58,3.51,11.81a33.48,33.48,0,0,1,0,8.37C484.19,527.89,485.4,531.89,481.32,531.93Z"/><path d="M484.4,480.68c-.06,2.32-.24,4.67-3.52,4.47-2.57-.16-3.1-2-3.1-4.11,0-6.42,0-12.86.08-19.27,0-2,.82-4.22,3.14-4.29,3-.08,3.31,2.44,3.34,4.76.07,3.07,0,6.15,0,9.22h.05C484.41,474.53,484.45,477.61,484.4,480.68Z"/><path d="M484.33,575.79c0,1.75-.39,3.38-2.62,3.48-1.9.08-3.35-.74-3.55-2.69a102.83,102.83,0,0,1,.09-22.39,2.64,2.64,0,0,1,2.92-2.41,3,3,0,0,1,3.11,3.2c.05,3.88,0,7.76,0,11.64h0C484.34,569.68,484.38,572.74,484.33,575.79Z"/><path d="M481.66,625.94c-5.73.51-3.06-5.22-4.27-8.13.18-4.95.23-9.93.62-14.87.15-2.11.64-4.87,3.56-4.55,2.1.22,2.72,2.4,2.77,4.49.11,3.84.22,7.71.34,11.56a18.59,18.59,0,0,1-.34,3.27C483.56,620.57,486.46,625.54,481.66,625.94Z"/><path d="M1441.94,415.55c-.1,5.86,0,11.74-.14,17.6,0,2.1.41,4.89-2.89,5-3.14.12-3.44-2.52-3.49-4.72-.22-7.24-.69-14.5.71-21.71.75-.71,1.52-1.43,2.3-2.13C1441.3,410.59,1442,412.79,1441.94,415.55Z"/><path d="M484.33,424.87h0c0,3.33,0,6.67,0,10,0,1.83-.78,3.26-2.89,3.27a3,3,0,0,1-3.31-3c-.05-7.21,0-14.43.28-21.63.07-1.49,1.11-3.46,3.21-3.12a3.39,3.39,0,0,1,2.76,3.63C484.36,417.63,484.33,421.24,484.33,424.87Z"/><path d="M484.34,377.53c0,3.34,0,6.67,0,10,0,1.71-.35,3.43-2.54,3.65a3.19,3.19,0,0,1-3.79-3.4c-.12-6.67-.12-13.32.06-20,.06-2,.93-3.85,3.55-3.68,2.79.2,2.7,2.32,2.74,4.25C484.4,371.43,484.34,374.49,484.34,377.53Z"/><path d="M1441.87,378.12h0c0,3,0,6.08,0,9.12,0,1.9.12,4-2.8,4-2.69,0-3.29-2-3.34-3.88-.17-6.62-.22-13.26,0-19.88.07-1.81.84-4.1,3.48-3.71,2.36.35,2.77,2.34,2.77,4.4C1441.87,371.48,1441.87,374.79,1441.87,378.12Z"/><path d="M1442.34,520.45c-.17,2.72-.18,5.46-.55,8.15-.59,4.47-3,4.69-6.2,2.3a104.76,104.76,0,0,1,.32-22.6c.27-1.83.6-4.41,3.17-4.16,2.34.25,2.56,2.65,2.67,4.62C1442,512.66,1442.16,516.55,1442.34,520.45Z"/><path d="M1441.87,471h-.08c0,3.62,0,7.23,0,10.82,0,1.77-.34,3.36-2.62,3.41a3,3,0,0,1-3.41-2.85,98.46,98.46,0,0,1,0-21.57,3.21,3.21,0,0,1,3.32-3.11c2.72.08,2.82,2.15,2.84,4.15C1441.89,464.87,1441.87,467.93,1441.87,471Z"/><path d="M1430.51,267.61c4.83,1.26,10.79,2.74,16.68,4.42,2.16.62,4.52,1.76,4.41,4.41-.15,3.69-3.29,2.22-5.06,2.07-6.6-.55-4,4.36-4.69,7.38-.85,3.75,2.14,10.61-2.82,10.62-5.24,0-3.77-7-3.64-11.05.2-6-.19-11-7.67-12.11a3.34,3.34,0,0,1-2.64-4.5C1425.81,266.69,1427.72,267.29,1430.51,267.61Z"/><path d="M477.7,286.51c1.13-5.11.6-9.46-7.19-7.86-.89.19-2.3.17-2.63-1.35a3,3,0,0,1,1.74-3.43c6.93-3.73,14.66-4.93,22.18-6.76a2.21,2.21,0,0,1,2.79,2.27c.1,1.61.24,3.94-1.85,4.05-10.54.53-8.17,8.18-8.27,14.51,0,1.39,0,2.78-.06,4.17-.09,2.3-.28,4.75-3.3,4.81s-3.28-2.43-3.39-4.71C477.64,290.54,477.7,288.87,477.7,286.51Z"/><path d="M947.13,208.9c-2.21-1.54-.25-4,2.62-4.07,4.46-.11,8.94,0,13.41,0v-.17H974.9c2,0,4-.13,3.83,2.89-.13,2.38-1.31,3.59-3.57,3.79a21.77,21.77,0,0,1-4.19.11S951,211.55,947.13,208.9Z"/><path d="M1014.74,205.71c5.14.28,8.19.43,11.24.63,2.58.16,5.45.44,5.13,3.91-.26,2.91-2.84,2.91-5.15,2.77-6.11-.38-12.21-.74-18.31-1.14-2-.13-3.95-.57-4-3.19-.09-2.87,2.13-2.87,4-2.95C1010.7,205.61,1013.76,205.71,1014.74,205.71Z"/><path d="M1216.25,231.18c-6.22-1-11.94-2-17.7-2.85-2.52-.36-4.52-1.33-4.22-4,.27-2.42,2.57-2.65,4.57-2.4,6,.77,12.06,1.65,18.09,2.5,2.77.39,5.09,1.69,4.38,4.75C1220.71,232,1218,231.31,1216.25,231.18Z"/><path d="M1262.25,238.34l-18.4-3.39c-2.15-.4-3.85-1.44-3.42-3.87s2.66-2.7,4.64-2.41c6.35.94,12.68,2,19,3.11,2,.36,3.88,1.36,3.74,3.78C1267.62,238.93,1264.92,238.22,1262.25,238.34Z"/><path d="M702.61,231.3c-2.35.44-3.91-.6-4.18-2.86a3.08,3.08,0,0,1,2.82-3.52c6.88-1.11,13.77-2.21,20.68-3.16,1.68-.23,3.7.32,4,2.25.33,2.27-1.48,3.61-3.51,4C715.82,229.2,709.21,230.22,702.61,231.3Z"/><path d="M899.85,212.92c-2.85-1.31-8.76,2.88-9.15-2.93s5.69-3.48,9.06-3.92a102.43,102.43,0,0,1,13.24-.5c2.14,0,4.8.07,4.69,3.26-.09,2.6-2.3,2.67-4.26,2.84C909,212.06,904.63,212.48,899.85,212.92Z"/><path d="M1535.72,316.43c0,3.42-2.92,3.43-5,2A200.81,200.81,0,0,1,1514,306.16c-2.28-1.85-2.51-4.57,1-5.68S1535.24,312.1,1535.72,316.43Z"/><path d="M449.94,283.85c-.39.74-.57,1.83-1.18,2.17a105.24,105.24,0,0,1-22.37,8.84c-2.55.72-3.07-1.68-2-3.9,1.28-2.72,20.23-10.93,23.22-10C448.89,281.37,450.2,282,449.94,283.85Z"/><path d="M1356.48,255.77a96.83,96.83,0,0,1-20.16-3.9c-2.38-.66-3.09-2.25-2.54-4.35.5-1.89,2.1-2.44,3.94-2,6.45,1.43,12.92,2.78,19.33,4.4,1.79.45,4.1,1.56,3.58,3.83S1357.64,255.66,1356.48,255.77Z"/><path d="M407.23,303.65a6.87,6.87,0,0,1-1.46,2.27c-5.76,4.29-11.54,8.54-17.48,12.57a4.14,4.14,0,0,1-3.8-.34c-1.69-1.28-.73-3.12.38-4.3A56.21,56.21,0,0,1,403,301C404.77,300.12,406.88,300.2,407.23,303.65Z"/><path d="M609.65,246.68c-1.67-.25-3.72.61-4.12-1.84a3.45,3.45,0,0,1,2.29-4c7-1.61,14-2.93,21.11-4.2,1.73-.31,3.31.26,3.34,2.58s-.71,3.74-3.11,4.14C622.6,244.44,616.05,245.58,609.65,246.68Z"/><path d="M657.43,238.38c-2.8,0-5.1.78-5.39-2.19a3.7,3.7,0,0,1,3.16-4.26c6.56-1.24,13.15-2.33,19.75-3.33,1.62-.25,3.56-.18,4.1,1.9.59,2.31-.68,3.82-2.86,4.27C669.65,236.11,663.08,237.3,657.43,238.38Z"/><path d="M1157.07,216.41c4.19.55,9.19,1.15,14.16,1.87,2.18.32,3.6,1.61,3.47,4-.17,2.85-2.43,2.75-4.34,2.59-5.84-.5-11.68-1.08-17.5-1.8-2.49-.31-5.45-.91-5.08-4.27.43-3.89,3.79-2,6-2.33A26.46,26.46,0,0,1,1157.07,216.41Z"/><path d="M1292.28,236.53c5.69,1.15,12,2.26,18.16,3.73,2.14.5,4.34,1.82,3.49,4.7-.76,2.59-3.14,2-4.9,1.72-6-1-12-2.23-18-3.28-2.7-.47-3.87-2.06-3.73-4.61C1287.51,235.75,1289.88,236.61,1292.28,236.53Z"/><path d="M565.16,255.93c-2.21-.25-4.93.84-5.54-2.29-.54-2.74,1.65-3.69,4.06-4.19,6.22-1.3,12.41-2.75,18.63-4,1.67-.35,3.47-.27,4,1.81a3.36,3.36,0,0,1-2.59,4.47C577.59,253.21,571.36,254.53,565.16,255.93Z"/><path d="M1475,281.5a95.94,95.94,0,0,1,18.43,6.89c2.12,1.1,2.76,2.71,2,4.79-.89,2.58-2.85,2.18-4.8,1.38q-8.85-3.66-17.68-7.37c-2-.82-3.61-2.09-2.68-4.39C1471.08,280.87,1473.13,281.64,1475,281.5Z"/><path d="M1384.52,255.74c6.1,1.55,12,2.95,17.87,4.61,2.25.64,4.11,2.25,3.25,4.92s-3.18,1.81-5,1.39q-8.85-2.13-17.61-4.6c-2.21-.63-4.4-1.92-3.45-4.66C1380.43,255,1382.81,255.93,1384.52,255.74Z"/><path d="M811.84,211.44c2.16.84,6.58-2.28,6.91,2.74.3,4.48-3.77,3.86-6.75,4.13-5,.46-10,1-15,1.42-2.21.17-4.93.38-5-2.81-.07-2.69,2.08-3.69,4.53-3.94Z"/><path d="M519.55,266.65c-3.23.37-5,.6-5.58-1.61a3.32,3.32,0,0,1,2.17-4c6.73-2.72,13.82-4.14,20.93-5.37,1.63-.28,3.59.37,3.92,2.29s-1.2,3.16-2.83,3.63C531.49,263.5,524.78,265.24,519.55,266.65Z"/><path d="M765.34,216.21c2.79.22,6.19-1.14,6.56,2.4s-2.84,4.26-5.73,4.57c-5.5.59-11,1.18-16.51,1.66-2.26.19-4.73.14-4.85-3s2.29-3.41,4.54-3.7C754.83,217.45,760.31,216.81,765.34,216.21Z"/><path d="M1108.39,211.33c5.78.8,11,1.38,16.25,2.34,1.91.36,3.67,1.63,3.07,4.17-.52,2.16-2.34,2.2-4,2-5-.47-10-1-14.92-1.67-3.06-.38-8,1.21-7.9-3.6C1101,209.29,1106.18,212.66,1108.39,211.33Z"/><path d="M1067.91,214.56c-3.61,0-7.22.13-10.82-.05a3.27,3.27,0,0,1-3.42-3c-.19-2.54,1.62-3.5,3.73-3.4,6.92.31,13.83.79,20.75,1.28,1.84.12,3.26,1.1,3.24,3.08,0,2.17-1.75,2.59-3.49,2.62-3.33,0-6.66,0-10,0Z"/><path d="M849.46,214.52c-2.42-1.51-9.84,4.51-10.23-2.44-.3-5.19,7.22-2.63,11.17-3.5,3.76-.82,7.79-.46,11.7-.53,1.66,0,3.55,0,3.72,2.31s-.93,4-3.22,4.1C858.71,214.68,854.79,214.52,849.46,214.52Z"/><path d="M1517.41,615.46c-.93,4.72-2,10.48-3.19,16.21-.49,2.34-1.63,4.56-4.37,4.09s-2.86-3-2.42-5.35c1.09-5.74,2.08-11.52,3.48-17.2.48-2,1-5.18,3.64-4.87C1517.63,608.71,1517.34,611.91,1517.41,615.46Z"/><path d="M1525.88,569.22c-1,5.41-2,11.11-3,16.82-.39,2.12-1.35,3.75-3.83,3.38-3-.44-3.18-2.56-2.74-5,1-5.46,1.75-11,3-16.33.57-2.46.82-6.37,4.62-5.62C1527.27,563.18,1525.29,566.67,1525.88,569.22Z"/><path d="M1441.77,622.53c0,1.73-.37,3.46-2.55,3.67-1.92.18-3.38-.83-3.5-2.74-.48-7.48-1.24-15,.44-22.43.3-1.31.91-2.86,2.6-2.81,2,0,2.81,1.73,2.88,3.43.15,3.61,0,7.22,0,10.85h.1C1441.79,615.85,1441.84,619.19,1441.77,622.53Z"/><path d="M1441.79,575.63c0,1.69-.29,3.41-2.52,3.59a2.87,2.87,0,0,1-3.45-2.72,72.51,72.51,0,0,1,.29-22.3c.25-1.29,1-2.82,2.65-2.73,2,.11,2.83,1.68,2.89,3.39.15,3.58,0,7.19,0,10.79h.1C1441.8,569,1441.85,572.3,1441.79,575.63Z"/><path d="M1441.82,669.32c0,1.62.08,3.6-2.23,3.72-2.1.11-4.14-.89-4.17-3.15-.1-6.92,0-13.86.3-20.78.09-1.86,1.18-4.11,3.63-3.68,1.66.29,2.45,2,2.44,3.9,0,3.33,0,6.65,0,10h0C1441.84,662.65,1441.89,666,1441.82,669.32Z"/><path d="M1435.28,846.7c0-3.47-.1-6,0-8.5.1-1.69.62-3.46,2.53-3.9s3.29.87,3.63,2.62c1.42,7.42,3.81,2.71,6.12.59,2-1.79,4.2-5.76,6.53-3.69,3.14,2.81-.12,6.1-2.32,8.58a99.5,99.5,0,0,1-7.1,7.13c-2.43,2.23-5.11,5.76-8.38,4.49C1432.81,852.66,1435.94,848.53,1435.28,846.7Z"/><path d="M1478.81,797.89a58,58,0,0,1-9.91,20c-2.18,2.82-4.38.64-4.1-2,.9-8.12,5-15.06,9.18-21.9a3.27,3.27,0,0,1,2.87-1C1478.94,793.54,1478.71,795.49,1478.81,797.89Z"/><path d="M1142.67,815.77c-7.28,1.22-14.19-1.34-21.26-2.21-2.49-.3-6.31-.55-5.51-4.54.86-4.27,4.38-1.75,6.83-1.84,1.09,0,2.19,0,3.28,0,4,.64,8.06,1.56,12.13,1.85C1142.86,809.36,1143.33,812.07,1142.67,815.77Z"/><path d="M1258.15,837.46c5.88,1.53,11.8,2.92,17.63,4.63,2.39.7,5,2.1,3.86,5.25-.94,2.56-3.37,2.3-5.68,1.58-5.81-1.8-11.65-3.46-17.45-5.29-1.94-.62-3.58-1.74-3-4.22C1254.2,836.74,1256.13,837,1258.15,837.46Z"/><path d="M1491,754.87a61.71,61.71,0,0,1-4.29,17.48c-.6,1.45-1.71,3.41-3.58,2.89s-2.21-2.66-1.93-4.24c1.16-6.53,2.61-13,3.89-19.53.42-2.1,1.3-4,3.63-3.61C1491.67,748.31,1491.64,750.74,1491,754.87Z"/><path d="M1188.9,822.48c-.64,2.86-2.82,3.33-5.15,2.85-6-1.23-11.91-2.81-17.91-4-3.11-.6-3.27-2.6-3-4.92.38-3,2.69-2.29,4.51-1.91,5.72,1.18,11.43,2.41,17.09,3.83C1186.52,818.87,1189,819.42,1188.9,822.48Z"/><path d="M1319.34,861.54c-5.42-1.58-11.28-3.23-17.11-5-2.19-.67-4.45-1.76-3.27-4.65.86-2.11,2.87-2.34,5-1.76,5.88,1.64,11.78,3.21,17.64,4.87,2.53.72,3.81,2.7,3.19,5.09C1324.08,862.68,1321.63,861.51,1319.34,861.54Z"/><path d="M1227.54,836.13c-4.09-1.13-10.46-2.91-16.85-4.64-1.87-.51-2.87-1.64-2.7-3.56.21-2.3,2-2.54,3.66-2.21q10.17,2,20.26,4.42a3.36,3.36,0,0,1,2.58,3.82C1234.11,836.59,1232,836.44,1227.54,836.13Z"/><path d="M1360.38,869.77c-2.69-.37-7.32-1.1-12-1.64-2.54-.29-4.27-1.21-4.15-4,.17-4.34,3.42-2.71,5.53-2.55,5.23.39,10.45,1,15.64,1.8,2.52.38,6.3.1,5.62,4.24-.59,3.62-4,1.7-6.18,2.16A32.33,32.33,0,0,1,1360.38,869.77Z"/><path d="M1499.64,708.9c-1,5.38-1.82,10.6-2.93,15.77-.39,1.82-1,4-3.63,3.84-3.39-.25-2.93-3.06-2.67-5.07.71-5.24,1.76-10.43,2.76-15.63.51-2.64.48-6.6,4.28-5.86S1499,706.53,1499.64,708.9Z"/><path d="M1441.65,800.88c0,3.34.08,6.68,0,10-.07,1.71-.75,3.42-2.71,3.61s-2.91-1.47-3.1-3.19a78.77,78.77,0,0,1,.2-21.58c.26-1.54.85-3.61,3-3.39,1.86.2,2.58,2,2.64,3.7C1441.74,793.65,1441.65,797.27,1441.65,800.88Z"/><path d="M1397.65,869.85c-1.71-.58-6.2,2.37-6.65-2.14-.43-4.22,4.32-3.45,7-4.1,4.58-1.12,9.29-1.76,14-2.51,2.14-.35,4.92-1.13,5.77,1.53,1.13,3.49-2.33,4-4.47,4.78A38.55,38.55,0,0,1,1397.65,869.85Z"/><path d="M1441.83,754.26c0,2.76.07,5.53,0,8.29-.07,2.16.21,4.7-3.1,4.76-2.75,0-3.07-2.18-3.11-4-.14-6.62-.16-13.26.06-19.88.06-1.9,1.17-4,3.59-3.7,1.69.25,2.55,1.93,2.55,3.77v10.79Z"/><path d="M484.5,668.5c0,2.18-.58,3.93-3.06,4-2.74.07-3.88-1.43-3.76-4.18.13-3.05,0-6.09,0-9.13h.22c0-3.31-.1-6.63.05-9.94.06-1.73,1-3.33,2.9-3.46,2.41-.19,3.41,1.42,3.43,3.64C484.4,655.8,484.41,662.15,484.5,668.5Z"/><path d="M422,722c-.64-4.66-1.3-9.32-1.9-14-.3-2.31-2-5.4,1.89-6,3.7-.63,4.62,2.37,5.09,5.24,1.09,6.58,2.09,13.17,3.12,19.76C423.8,731.27,422.54,727.18,422,722Z"/><path d="M428.06,753.15c0-2.49.07-4.72,3-5.25,2.72-.49,3.06,1.88,3.51,3.66q2.19,8.82,4.13,17.69c.49,2.26.36,5-2.19,5.56s-3.85-1.8-4.4-4C430.67,764.93,429.4,759,428.06,753.15Z"/><path d="M611.91,859c-3.53.77-7,1.86-10.6,2.18-2.08.19-5.37,2.31-6.24-1.61-.71-3.15,1.79-4.29,4.36-5.06,5.3-1.58,10.58-3.2,15.87-4.8,2.26.38,5.56-.83,6.26,2.22s-2.45,3.65-4.59,4.66C615.28,857.39,613.6,858.21,611.91,859Z"/><path d="M737,824.78c-3.6.36-5.42.47-5.93-1.62a3.11,3.11,0,0,1,2.25-3.9c6.94-1.72,13.91-3.28,20.91-4.75,1.77-.37,3.47.49,3.6,2.46a3.75,3.75,0,0,1-3.27,4.12Z"/><path d="M455.49,817.21a4.45,4.45,0,0,1-4.81.59,76.08,76.08,0,0,1-9.53-19.4c-.66-2-.43-4.09,1.5-5.18,2.53-1.42,3.67,1,4.33,2.55C449.91,802.88,455.48,809,455.49,817.21Z"/><path d="M666.07,839.78c-.08,2-.9,3.07-2.38,3.5-6.67,1.93-13.33,3.89-20,5.69a2.69,2.69,0,0,1-3.38-1.75,2.81,2.81,0,0,1,1.27-3.62A78.65,78.65,0,0,1,664,837.33C665.81,837.09,665.9,838.87,666.07,839.78Z"/><path d="M795.38,807c1.65,0,3.31,0,5,0s3.29.39,3.45,2.6c.14,2-.66,3-2.71,3.28-6.55,1-13.07,2.13-19.62,3-1.71.23-4.24.87-4.53-2-.24-2.51,1.1-4.42,3.75-4.51C785.67,809.25,790.3,806.71,795.38,807Z"/><path d="M484.29,800.73c0,3.35,0,6.7,0,10,0,1.81-.64,3.35-2.75,3.5s-3.14-1.16-3.32-3a86.34,86.34,0,0,1,.19-21.67c.25-1.64,1.41-3.32,3.44-2.88a3.15,3.15,0,0,1,2.39,3.1c0,3.63,0,7.26,0,10.89Z"/><path d="M706.82,825.62c2.39.31,4.58-.67,5.27,1.23.82,2.27-1.19,3.82-2.94,4.38-6.08,1.92-12.26,3.54-18.44,5.13-1.8.46-4.08,1.14-4.87-1.53s.61-4.42,3.06-5C695.1,828.24,701.36,826.88,706.82,825.62Z"/><path d="M484.28,753.21c0,3.63,0,7.27,0,10.9,0,1.86-.83,3.21-3,3.24a2.93,2.93,0,0,1-3.21-3.09q-.22-10.47-.1-21a3,3,0,0,1,3.09-3.25c2.6,0,3.23,1.78,3.27,3.92,0,3.08,0,6.15,0,9.23Z"/><path d="M358.05,388c0-4.21-.09-6.15,0-8.08a2.17,2.17,0,0,1,1.94-2.28c1.47-.13,2.87.22,3.2,1.88,1.37,7.05,3.63,14,3.61,21.24,0,1.71-.36,3.45-2.37,3.88-2.65.57-3.39-1.55-3.82-3.38C359.42,396.19,357.88,391.12,358.05,388Z"/><path d="M1562.18,384.56c-.94,5.45-1.8,10.94-2.86,16.39-.37,1.89-1.15,4.16-3.56,3.89-2.85-.32-3.2-2.91-2.9-5.13.74-5.5,1.65-11,2.74-16.43.46-2.28.45-5.94,3.66-5.58C1563,378.12,1561.73,381.94,1562.18,384.56Z"/><path d="M1649.29,552.3c3,0,6.11-.09,9.15,0,2.18.09,4.92.09,4.65,3.26-.23,2.66-2.54,3.35-4.94,3.35-5.82,0-11.64,0-17.46-.07-2.38,0-4.59-.6-4.52-3.6.07-3.22,2.59-3,4.81-3,2.77,0,5.54,0,8.31,0Z"/><path d="M270.63,552.33h9.22c2.26,0,3.92.9,3.76,3.36-.16,2.28-1.67,3.31-4,3.28-6.43-.08-12.86-.07-19.28-.15-2.25,0-3.81-1.13-3.83-3.49,0-2.65,1.95-3,4.06-3Z"/><path d="M484.35,842.79c.28,3.93.54,5.88.53,7.83,0,4-2.07,5.29-5.25,2.89a65.09,65.09,0,0,1-13.82-13.36c-1.33-1.81-2.65-4-.1-5.83,2-1.44,3.76-.54,5.17,1,2.88,3.2,5.66,9.87,8.47-.09.16-.58,1.88-1,2.87-1,1.8,0,2.1,1.5,2.12,3C484.37,839.73,484.35,842.25,484.35,842.79Z"/><path d="M556.85,869.86c-3.35-.88-9.25,2.2-9.61-2.69-.24-3.23,5.8-3.77,9.64-4.14,4.72-.45,9.43-1,14.14-1.59,2.08-.24,4.28,0,4.68,2.3.44,2.59-1.24,4-3.88,4.37C566.85,868.78,562,870.37,556.85,869.86Z"/><path d="M507,860.94c6.31,1.28,12.48,2.61,18.7,3.73,2,.35,3.08,1.27,3.08,3.15a2.89,2.89,0,0,1-3.27,3c-7.76-.38-15.38-1.5-22.57-4.79-1.65-.75-2.13-1.95-1.67-3.22C502.42,859.78,505.25,862.3,507,860.94Z"/><rect class="cls-1" x="1919" y="1079" width="1" height="1"/><rect class="cls-1" width="1" height="1"/><rect class="cls-1" y="1079" width="1" height="1"/><rect class="cls-1" x="1919" width="1" height="1"/></g><g id="Capa_3" data-name="Capa 3"><path d="M835,464.87v111H815.19V505.16l-19.51,14.91L779.5,532.6l-16.18-12.53-19.51-14.91V575.9H724v-111l19.83,15.23,35.69,27.44,35.69-27.44Z"/><path d="M888.94,501.83v75.5H869.11V499.76a15.81,15.81,0,0,0-13.48-13.48h-4.44V466.61h4.28v.16A35.55,35.55,0,0,1,869,470.42a35.17,35.17,0,0,1,16,16.18,42.55,42.55,0,0,1,2.7,7.45,33.53,33.53,0,0,1,1,8.09Z"/><path d="M1015.35,464.87v111H995.52V530.22H937a31.42,31.42,0,0,1-14.91-3.65,32.41,32.41,0,0,1-17.76-29V464.87h19.83v32.67a13.06,13.06,0,0,0,13,13h58.53V464.87Z"/><path d="M1069.43,501.83v75.5H1049.6V499.76a15.81,15.81,0,0,0-13.48-13.48h-4.44V466.61H1036v.16a35.64,35.64,0,0,1,13.49,3.65,35.27,35.27,0,0,1,16,16.18,41.72,41.72,0,0,1,2.69,7.45,33,33,0,0,1,.95,8.09Z"/><path d="M1193.47,484.86A34.41,34.41,0,0,1,1196,497.7v45.53a32.66,32.66,0,0,1-10.46,24.1,34.3,34.3,0,0,1-7.3,5.24,31.42,31.42,0,0,1-14.91,3.65h-69V556.39h69a13.06,13.06,0,0,0,13-13V527.84a32.41,32.41,0,0,1-12.37,2.54h-46.79a32.76,32.76,0,0,1,.48-65.51h45.52a32.59,32.59,0,0,1,30.14,20ZM1104.8,497.7a13.06,13.06,0,0,0,12.37,13H1164a13,13,0,0,0-.63-26h-45.52A13.07,13.07,0,0,0,1104.8,497.7Z"/></g></g></svg>