<svg xmlns="http://www.w3.org/2000/svg" viewBox="0 0 1920 1080"><defs><style>.cls-1{fill:#f2f2f2;}</style></defs><g id="Capa_2" data-name="Capa 2"><g id="Capa_1-2" data-name="Capa 1"><rect class="cls-1" x="1919" y="1079" width="1" height="1"/><rect class="cls-1" width="1" height="1"/><rect class="cls-1" y="1079" width="1" height="1"/><rect class="cls-1" x="1919" width="1" height="1"/><path d="M1762.5,353.25q-117.72-.06-235.46.07a42.72,42.72,0,0,1-16.9-3.31c-97.38-40.77-198.69-67.81-302.52-85.81q-56.86-9.84-114.41-14.73c-38.85-3.34-87.36-9.18-87.36-9.18-5.45-4.22-2.15-14.13-1.84-21.46.39-8.83-3.69-13.06-11-16.5-22.78-10.68-45.69-10.46-68.73-1.5-15.9,6.18-15.81,6.41-15.66,23.59,0,2.63-.42,5.36.14,7.87,1.93,8.44-2.29,9.42-9.39,9.25,0,0-51.15,5.34-68.19,7-61,6-121.49,14.7-181.4,27.54-68.16,14.59-135.2,33-200.44,57.67-13.07,4.94-26,10.3-38.89,15.68-6.71,2.8-13.68,2.5-20.67,2.5Q283.39,352,177,352c-10.44,0-21-.14-30.87,4.54-10.11,4.8-15.94,11.63-15.57,23.7.58,19.53.52,39.12,0,58.65,0,28.61,3.6,31.09,3.6,31.09,4.09-.87,4.46,4,5,6.82a97.87,97.87,0,0,1,1.61,16.47c.23,18.35.47,36.73,0,55.07-.24,10.44,3.19,19,10.92,25.51,17.83,15,36.66,27.94,61.85,25.38,5.2-.52,10.62-.82,15.71.07,11.83,2,19.08-4.31,25.84-12.44,3.94-4.74,1.9-10.09,1.91-15.11.07-17.91-.1-17.86,17.87-17.82,15.75,0,31.48-.23,47.21,0,6.12.09,10.56-.94,10.2-8.3-.21-4,2.13-4.57,5.51-4.77,14.54-.82,14.74-1,18.45,12.93,6,22.44,11.65,44.95,17.45,67.45a.89.89,0,0,1,.17,1.24l1.74,5.8q15.63,50.61,31.25,101.22C414,749.27,421.27,769,428,789c4.51,13.26,11.15,25.31,18.8,36.89,12.39,15.75,26.84,29.11,44.64,38.5A163.18,163.18,0,0,0,547,882.32s37.89,3.42,104.23,3.42,86.32-1.25,86.32-1.25c46.2-9.39,92.06-20.49,139.06-25.71,16-2.65,32.13-3.51,48.24-3.84,21.45-.45,42.91.07,64.35.19,31.86-.1,63.32,3.86,94.56,9.85,31,5.2,61.84,11,92.49,17.88a137.36,137.36,0,0,0,31.57,2.88h133.84c14.47,0,32.75-3.12,32.75-3.12,17.28-3.82,34.29-8.29,50.21-16.4,32.58-16.62,54.87-42.13,67.22-76.46,1.36-3.8,3-7.48,4.48-11.21q16.61-50.67,33.23-101.33c1.33-4.08,2.82-8.14,4.24-12.21Q1547.35,615,1560.9,564.9c1.67-6.17,3.18-12.37,4.68-18.57,2.49-10.16,10.64-3.78,16-5.36,4.77-1.4,5.87,1.89,5.85,6,0,6.87,5.22,6.87,9.88,6.88,19.24.09,38.49.3,57.71-.24,6.08-.18,8.6.81,7.78,7.36-.57,4.57-.07,9.3,0,14,.38,15.76,9.16,24.3,25.08,24.35,5.54,0,11.14-.65,16.59,0,25.51,3,44.76-9.74,63-24.87,8-6.66,11.84-15.28,11.6-26.11-.46-18.93-.18-37.89,0-56.82,0-7.2.53-14.4,4.8-20.62l5.61-9.53V380C1789.48,360.12,1782.65,353.27,1762.5,353.25ZM994.38,261.7Q1001,318,1008.11,374.22c.62,4.8-.4,6.85-5.74,6.72-13.7-.29-27.4-.1-41.08-.1V381c-13.7,0-27.4-.21-41.1.11-5.38.1-7.13-1.35-6.46-7,3.57-30.34,6.88-60.7,10.16-91.07.73-6.94,1.14-13.93,1.38-20.9.16-4.21,2.08-5.22,6.06-5.19,19.24.18,38.47.14,57.69,0C992.52,257,993.92,257.76,994.38,261.7Zm577.74,192.85c-8.2,13.62-15.86,27.54-23.72,41.31-3-1.07-2.26-3.06-2.47-4.57-.3-1.89-.9-3.47-3-3.56-2.4-.09-2.5,2-2.94,3.65a25.5,25.5,0,0,0-.79,4.27c-1.4,12-1.38,12-13.15,9.62s-11.78-2.33-11.79,9.86c0,10.51-.69,21.07.21,31.51,2.75,32.13-5.64,62.3-15.17,92.34-9.67,37.52-19.8,74.93-31,112-2.08,6.74-3.78,13.63-6.3,20.2-7.61,19.86-21.5,33.49-41.38,41.23-4.94,1.93-6.92,1.75-6.5-4.17.4-5.5.25-11.07.18-16.6-.06-2.74-.72-5.68-4.17-5.5s-2.49,3.41-2.56,5.48c-.21,5.83-.58,11.7,0,17.48.59,6-1,8.24-7.4,8-13.38-.44-26.82-.1-40.23-.08q-235.34,0-470.67.08c-3.49,0-7-.23-10.48-.35L763,816.7H661.57q-59.6-.06-119.22-.09c-8.15,0-16.31.12-24.47.16-4,0-5.45-1.65-5.17-5.9.45-6.68.14-13.42.09-20.13,0-2.12-.49-4.35-3-4.57-3.07-.28-2.86,2.47-3,4.31-.38,5.23-1.15,10.58-.54,15.73,1.08,9-2.89,8.16-8.83,5.58-17.08-7.35-29.8-19.37-37.4-36.26-6.32-14-10.58-28.87-13.79-43.95q-14.06-50.66-28.1-101.34c-1.13-4.15-2.13-8.36-3.2-12.54-6.29-18-10.07-36.28-9.15-55.59.83-16.88,0-33.84.3-50.75.12-6.07-1.49-8.79-7.92-7.25-4.78,1.16-10.31,3.82-14.33,2.42-5.34-1.88-1.33-8.86-3.18-13.26-.77-1.81-.58-4.75-3-4.8-4.59-.11-2.42,5-4.78,7.57-4.5-2.74-5.27-7.64-7.53-11.43-6-10-11.43-20.33-17.66-30.16-3.19-5.05-2.49-7,3-9.46,95.88-42.53,194.5-77,296.51-101.62,72.86-17.55,146.54-29.92,221.46-34,3.21-.17,6.43-.21,9.62-.09,13.35.56,17.6,5,17.55,18.33q-.1,19.26-.28,38.5c-.09,10.06,1,20-6.74,28.75-4.68,5.29-4.4,13.42-3.63,20.23.89,8-2.79,8.37-8.88,8.32-23.06-.23-46.11.21-69.14-.23-20.59-.38-34.44,9.11-42.64,27.37-4.77,10.6-8.81,21.51-13.28,32.25-6.13,14.7-16.24,23.17-33.13,21.11a64.37,64.37,0,0,0-7.86-.06c-18.15,0-18.43-.12-24.51,17.24-6.73,19.18-7.38,38.1,3.5,56.43,3,4.94,6.43,7,12,6.83,7.57-.25,15.19.19,22.74-.33,10.24-.74,16.73,4.11,20.54,12.92s6.7,18,10.58,26.74c2.82,6.32,6.66,12.21,10,18.28,14.25,17,32.41,22.81,54.33,21.5,19.72-1.17,39.57,0,59.37.07l112.06,0c39-.1,78-1.31,117,0,33.34,1.14,50.65-14.24,60.44-41.82a26.43,26.43,0,0,1,1.56-3.1A38.73,38.73,0,0,1,1180,597.74c6.52-7,14.19-10.91,24.06-9.89,3.17.33,6.41,0,9.61,0,17.33.07,17.64.16,22.22-17,5.34-20.06,7.07-40.11-2.21-59.79-2.42-5.13-5.47-7.63-11.35-7.35-8.74.4-17.52.19-26.28.08-16.47-.15-29-9.25-33.88-25-3.73-11.95-7.36-23.9-13.82-34.74-8.15-13.7-18.81-21.95-36.16-21.15-23,1.07-46.09.2-69.14.49-5,.07-7.08-1.08-7.5-6.51-.79-9.93-3.57-19.45-9.72-27.63-2.28-3-2.17-6.57-2.17-10.07,0-19.25.19-38.5,0-57.76-.08-8.28,4.29-11.59,11.7-12.1,15.21-1.05,30.31.86,45.38,2.31,107.89,10.46,212.8,34.67,315.81,67.92,58.65,18.95,116,41.29,172.6,65.65C1574.87,447.7,1575.09,449.6,1572.12,454.55Zm6.81,2.35c2.94-5.53,5.48-4.94,10.13-2.7,5.72,2.75,2.15,5.64.68,8.29-8.06,14.45-16.29,28.82-24.47,43.2-1.72,3.05-3.17,6.44-8.22,5.59-1.91-.56-5,.33-6.64-2.26s1.23-4.1,2.28-6C1561.45,487.68,1570.59,472.51,1578.93,456.9ZM363.32,510.65c-5.15,1.61-6.52-.93-8-3.61-8.55-15.24-17.1-30.48-25.87-45.58-2-3.4-2.67-5.61,1.7-7.38,3.52-1.44,6.39-3.85,9.3,1.4,9,16.29,18.32,32.39,27.69,48.46C373.37,512.91,365.17,509.77,363.32,510.65Zm359.83,65.81c-8.08.61-16.33,1.09-24.28,0-5.06-.67-5.68-6.94-7.34-11.08-7.22-17.83-2.45-34.7,4.62-51.38,1-2.29,2.28-3.13,4.51-3.13.87,0,1.75,0,2.62,0C725,510.35,725,510.35,725,532v11.33c0,9,0,18,0,27C725,572.61,725.83,576.25,723.15,576.46Zm467.48-30.31h.07c0-9.91.21-19.83-.09-29.74-.12-4.26,1.28-5.68,5.43-5.52,6.41.26,13,.91,19.22-.05,8.93-1.4,12.61,3.17,14.8,10.49,5.8,19.34,2,38-4,56.51-1.19,3.63-3.75,3-6.27,3-7.87.09-15.77-.22-23.62.25-5,.3-5.76-1.84-5.66-6.1C1190.79,565.41,1190.63,555.77,1190.63,546.15Zm-166.7-147.06c3.78,8,4.52,16.19,4.94,24.14.32,6.12,2.7,7.18,8,7.15,26.26-.18,52.52.23,78.78-.23,9.18-.17,15.55,3.45,21,10.18,8.77,10.88,13.64,23.6,17.15,36.86,3.78,14.38,11.07,25.57,25.82,30.5,3.4,1.13,4.12,3.38,4.1,6.65q-.18,32.82-.07,65.64c0,3.1-.58,5.54-3.35,7.48-11.82,8.34-16,21.36-20.49,34.11-11.39,29.92-25.88,34.72-48.2,34.49-40.85-.42-81.7-.3-122.55-.42H878.74c-24.94.07-49.94,1-74.85,0-19.67-.85-31.67-13.77-39.61-30.84-5.08-6.56-5.81-15-9.32-22.23-4.8-9.95-8-20.91-20.42-24.43-2.95-.84-2.49-3.59-2.47-5.89,0-18.67.14-37.35.12-56,0-3.56.86-5.85,4.59-7.36,10.35-4.19,16.48-12.79,20.91-22.48,4-8.72,7-17.88,10.74-26.69,10.43-24.27,21.67-30.38,42.85-29.59,24.18.89,48.44-.07,72.65.31,7,.11,9.37-1.68,8.53-8.84-.77-6.45-.16-13.07,1-20.45C897.35,416.22,908.72,416,920,416c25.38,0,50.78-.35,76.15.12,11.7.21,20.6-2.82,25.07-14.45C1021.55,400.79,1022.72,400.21,1023.93,399.09Zm-8.74-3.34c-1.84,7.56-4.85,13.33-14.4,13.22-28.54-.35-57.09-.07-85.63-.21C904.32,408.69,899,400.14,903,390c1.33-3.42,4-2.7,6.5-2.7q24.91,0,49.78,0v.58c16.61,0,33.22.24,49.81-.11C1015.54,387.67,1016.43,390.67,1015.19,395.75Zm-71.3-186.22c13.33-2.56,25.93-1.1,38.59,3.37,5.94,2.1,7.9,5.37,7.92,11.57.05,16.8.33,16.8-16.06,16.77H956v.1c-9,0-18.1-.29-27.12.11-5.11.23-6.25-1.52-6.31-6.43C922.33,214.82,923.69,213.37,943.89,209.53ZM144.54,442.75c.63-19.83.15-39.7.22-59.55,0-11.09,2.79-14.36,14-16a120.94,120.94,0,0,1,17.41-1.42q108.59-.11,217.17.11a66.11,66.11,0,0,0,26.24-5.24c91.78-38.29,187.3-63.47,285-81,68.13-12.26,136.83-18.69,205.89-22.33,6.92-.37,8.48,1.36,7.36,8.2-2,11.93-1.51,11.89-13.81,12.24-2.71.09-7.36-1.86-7.34,3.22,0,4.14,4.26,3.12,6.9,3.35,12.21,1.07,12,1,10.71,13.68-2.61,25.21-5,50.45-7.5,75.7-.21,2,1.05,5.65-2.1,5.72-4.26.09-2.37-3.81-2.37-6,0-16.35.23-32.67.14-49-.07-13.5-6.13-20.4-19.67-22-18.13-2.14-36.14,1-54.08,2.72-105.91,10.45-209,34.23-309.89,67.72-5.78,1.93-6.11.42-6.11-4.54,0-16.88-.11-16.69,16.5-21.93,3.54-1.12,10.91-.24,9.06-6.43-1.58-5.24-7-.07-10.74-.24a8.2,8.2,0,0,0-5,1.43c-5.46,4.08-17.53-.56-16.32,12.35.68,7.34-2.23,15.23,3.76,22.06-38.9,12.87-76.94,27.19-116,43.34,2.26-7.11,6.9-10.76,9.84-15.42,1.14-1.84,3.33-4.13.79-6.11-2.17-1.68-4.55-.3-6.17,1.52-5.13,5.85-11.19,11.25-11.61,19.8-.18,3.43-2.5,4.18-4.9,5.27C362,432.83,342,441.64,322.24,451c-4.84,2.28-6-.6-8.11-3.35-14.91-19.32-33.74-32.67-57.88-38.17-31-7-55.31,5.05-76.52,26.12-9.15,9.09-16.47,19.67-23.58,30.38-1.09,1.63-1.45,3.94-4.12,4.36A47.48,47.48,0,0,1,144.54,442.75Zm102.42,99c-3.48,2.42-3.82,6.94-3.73,11.2.14,7,0,14,0,21,0,7.52-3.56,11.35-11.27,11.14-4.95-.12-9.91,0-16.72,0-15,3.17-28.94-3.65-42.35-12.55-2.8-1.85-5.22-3.36-4.09-7.53,5.18-19.3,11.75-37.8,27-51.92,13.89-12.91,40.44-17.17,56.58-9,1.79.91,2.94,2.07,2.73,3.94C253.83,519.63,259.84,532.82,247,541.79Zm-9.25-47.73c-27.08-4.87-49.15,8.56-63.24,35a128.6,128.6,0,0,0-11.17,29.28c-.37,1.49-.37,3.78-2.65,4-2.06.15-2.7-1.81-3.69-3.19-2.4-3.3-2.3-7.15-2.33-10.92-.09-9.61,0-19.23,0-28.85h.16c0-5.25.68-10.61-.13-15.73-2.75-17,4.21-30.44,14.4-43.18,7.29-9.11,14.25-18.46,23-26.21,26.5-23.35,57.56-26.08,87.69-7.53a99.53,99.53,0,0,1,26.77,23.51c3.52,4.52,3.75,6.76-2,9.62-13.79,6.9-28.7,13.13-38.63,25C257.6,494.79,250.26,496.3,237.71,494.06Zm80.94,42.67c0,4.33-2.7,3.47-5.29,3.45-7,0-14,0-21,0v-.22c-6.69,0-13.4-.34-20.07.08-6.85.44-9.74-3-9.92-9.09-.26-9.6-.1-19.22-.07-28.82,0-3.45,2.11-5.95,4.37-8.26,14.29-14.61,32.47-23.25,50.2-32.59,2.87-1.52,4.28-.33,5.57,1.95,8.57,15.15,17,30.37,25.74,45.44,2.5,4.31,1.34,5.73-3.21,5.66-.88,0-1.73.17-2.61.19C327.77,514.74,318.7,521,318.65,536.73Zm1270.83-11c-.18,2.84-3.81,1.79-6,1.81-4.66,0-9.32-.33-14-.4-12.86-.16-13,.08-16.48,12.78-9.18,34-18.17,68-27.77,101.82-5.75,20.26-12.51,40.24-18.81,60.35-1.58,5.86-2.84,11.84-5.94,17.18-4.7,17.13-10.67,33.83-16.8,50.49-2.45,6.67-4.68,13.43-7.29,20.05-15.87,40.38-46.4,63.54-87.33,75-27.8,7.76-56.18,5.4-84.38,5.83-32.09.51-64.2-.17-96.29.2-27.47.33-53.77-6.54-80.15-12.39-75.18-16.67-151.16-21.53-227.83-16.24-48.69,3.35-96.46,12.9-144,23.58-26,5.85-52.25,4.15-78.43,4.77-16,.38-32.07-.37-48.1-.62-27.47,0-55,2.46-82.35-2.1-43.52-7-78.95-26.71-99.22-67.23-8.8-17.59-14.56-36.77-20.9-55.5C405.36,679.8,386,613.67,368.75,546.86c-6.05-23.44-2.63-19.2-26-19.5-4.46-.07-9.26,1.82-15-3,7.95-1.26,14.54-2.15,21.07-3.38,14.58-2.71,29.13-5.44,43.64-8.47,4.48-.93,6.73-1.09,6.62,4.81-.33,21.29-.11,42.61-.18,63.91,0,2,1.28,5.46-2.71,4.85-6.94-1.07-5.5,2.8-4.48,6.74,1.24,4.79,2.32,9.59,3.64,14.35,1,3.73,2.35,7.17,7,3.15,2.25-1.94,3-.35,3.37,1.55.84,4,1.56,8,2.33,12,2.59,4.94,6.23,10.33-4.21,9.53-.89,9.19,3.65,17.17,5.8,25.7,3.1,2.9,7.2-4.21,9,0a60.62,60.62,0,0,1,4.59,19.22c.28,4.43-4.74.82-6.91,2.26,1.82,7.55,3.55,15.11,5.5,22.63.64,2.5,1.52,5.25,5.23,3.82,1.47-2.7,2.95-3.86,4.42,0l4.36,17.39c.24.72.89,1.6.68,2.12-.49,1.19-1.59,1.35-2.71.6-3.89-.3-6.17,2.7-4.57,5.17,3.32,5.13,2.75,11.24,5.46,16.38,1.54,2.89,1.33,9.07,7.24,3.78.35-.3,1.59,0,2.15.42,2.54,1.87,4.84,18.32,2.66,20.95-2,2.44-.82,4.43.21,6.41,2.56,4.89,5.29,9.71,8.08,14.49,1.49,2.58,3.06,5.33,6.73,2.54.54-.42,2-.6,2.26-.26,5.67,6.76,13.66,10.81,19.79,17a2.33,2.33,0,0,1,2.42.33c8.76,5.15,19,6.25,28.18,10.27,6.29-2,12.71-.44,19-.46,41.53,0,83.08.17,124.64.3h106.8l99.89.1,91-.14a103.65,103.65,0,0,1,21.06,0c54-.1,107.93-.3,161.9-.31q123.42-.09,246.84.08c25.75.07,49.12-5.32,67.46-24.89.79-.84,1.93-2.12,2.75-2,14.19,1.94,12-12,17.61-18.22.75-.83.93-3.49.3-4-5.8-4.86-1.56-9.37.17-14,.74-3.28,1.47-6.55,2.24-10.06,2.63,1.3,4.79,2.37,6.92,3.44,4.26-8.41,6-17.5,7.57-26.68-6,.17-8.62-1.9-5.71-8.17,1.21-2.61,1.54-5.6,2.47-8.35,1-3.09.24-8.2,6.73-4.89,3.29,1.68,3.25-3.12,4.9-4.82l4.89-20.56c-6.9,0-8.76-2.93-5.55-9.15a23.92,23.92,0,0,0,1.48-5c2.35-9.14,2.33-9.14,10.36-7.56,1.78-6.08,3.76-12.11,5.29-18.26.87-3.48,3.59-8.3-4.22-7.67-3.42.28-1.84-2.8-1.39-4.45,1.65-6.11,3.49-12.17,5.26-18.23,2.59-6,1.43-13.16,5.76-18.71-.38,6.34-4.62,12-2.82,18.64,3.38,2.54,5.13,1.29,6.1-2.46,1.4-5.32,3.29-10.56,4.39-15.94.67-3.22,2.75-8.32-4.64-6.57-3.31.79-2.64-2.08-2.64-4,0-21.59.28-43.15.08-64.72-.08-8.07,5.49-4.5,8.33-4,16.32,2.76,32.53,6.07,48.78,9.21,1.72.33,3.47.49,5.12,1C1585.67,523.87,1589.74,521.65,1589.48,525.76Zm68.6-14.78c-.62,7.23-.39,14.52-.84,21.77-.32,4.77-3,7.15-8,7-7.29-.23-14.57-.07-21.84-.07v.46c-7,0-14-.07-21,0-2.94,0-5.57-.42-5.54-3.91.16-16.43-9.7-21.67-24.1-21.72-7.55,0-7.1-2.87-3.89-8.23,8.18-13.73,15.94-27.71,23.91-41.57,1.54-2.66,2.45-6.08,7-3.42,14.84,8.62,30.27,16.15,43.69,27.09C1654.82,494.35,1658.88,501.29,1658.08,511Zm88.27,62.33c-13.95,9.53-21.9,11.8-43.55,12-27.33,0-26.44,2-26.38-25.91,0-8.9-.25-17.09-8.46-23.35-5.63-4.27-2.67-11.47-2.81-17.36-.29-14.61-.08-14.61,14.21-17.31,24.17-4.57,43.85,4.91,57.77,27.93,6.52,10.79,10.3,22.65,13.55,34.74C1751.88,568.52,1749.82,570.94,1746.35,573.31Zm18.64-73.4c.35,6.09.07,12.24.07,18.36,0,9.63,0,19.25,0,28.87,0,3.18.23,6.41-1.31,9.42-1.16,2.28-1.58,5.82-4.68,5.55-2.62-.21-2.31-3.57-2.89-5.71-3.19-11.56-7.44-22.63-13.75-32.9-15.82-25.73-42.09-35.89-71.59-27.62-2.56.72-5.12,3.15-7.59-.61-11-16.82-28.48-25.32-45.37-34.43-9.6-5.17-9.63-4.85-2.33-13.24,17-19.53,37.63-31.83,64.06-33,18.33-.79,33.32,7.17,46.76,18.48,15.33,12.89,26.62,29.13,36.8,46.21C1767,485.79,1764.6,493,1765,499.91Zm2.66-28.89c-5.78-8-11.05-16-17-23.42-14.2-17.89-30.55-33.6-53.79-38.14-34.74-6.78-62.84,6.54-85.72,32.08-9.49,10.61-9,10.84-21.53,5.25-17-7.56-34.11-14.9-51.2-22.26-3.52-1.51-5.87-2.58-6.15-7.74-.41-7.8-6.43-13.42-11.79-18.8-1.44-1.46-3.91-2.16-5.52-.44s-.23,3.7,1,5.38c3.47,4.59,6.89,9.21,10.34,13.87-2.8,2.54-4.75.88-6.75.07-103.49-42-209.82-74.52-319.66-95.29-50.75-9.6-101.81-16.65-153.4-19.61a67.14,67.14,0,0,0-13.07.35c-11.35,1.6-16.85,8-16.94,19.36-.07,11.09,0,22.16-.09,33.23v18.15c-2.59-5.8-4.38-11.74-4-18.15-2.4-20.23-4.6-40.5-7.32-60.7-.94-7-.47-11.54,8.29-9.67a9.26,9.26,0,0,0,2.63,0c2.78-.24,6.49.46,6.41-3.91-.07-4.92-4.33-2.15-6.59-3.13-4.33-1.86-12,4.5-13.16-5-2.34-19.08-3.1-15.3,13.19-14.47,27.68,1.43,55.33,3,82.92,5.69A1491.75,1491.75,0,0,1,1272.19,291c80.34,17.5,158.91,40.69,234.64,73,6.09,2.59,12.22,3.33,18.71,3.33q117.76-.12,235.54,0c14.4,0,14.42.07,14.44,14.85,0,20.13-.42,40.28.17,60.4C1776,452.92,1773.12,461.88,1767.65,471Z"/><path class="cls-1" d="M1589.74,462.49c-8.06,14.45-16.29,28.82-24.47,43.2-1.72,3.05-3.17,6.44-8.22,5.59-1.91-.56-5,.33-6.64-2.26s1.23-4.1,2.28-6c8.76-15.38,17.9-30.55,26.24-46.16,2.94-5.53,5.48-4.94,10.13-2.7C1594.78,457,1591.21,459.84,1589.74,462.49Z"/><path class="cls-1" d="M1658.08,511c-.62,7.23-.39,14.52-.84,21.77-.32,4.77-3,7.15-8,7-7.29-.23-14.57-.07-21.84-.07v.46c-7,0-14-.07-21,0-2.94,0-5.57-.42-5.54-3.91.16-16.43-9.7-21.67-24.1-21.72-7.55,0-7.1-2.87-3.89-8.23,8.18-13.73,15.94-27.71,23.91-41.57,1.54-2.66,2.45-6.08,7-3.42,14.84,8.62,30.27,16.15,43.69,27.09C1654.82,494.35,1658.88,501.29,1658.08,511Z"/><path class="cls-1" d="M363.32,510.65c-5.15,1.61-6.52-.93-8-3.61-8.55-15.24-17.1-30.48-25.87-45.58-2-3.4-2.67-5.61,1.7-7.38,3.52-1.44,6.39-3.85,9.3,1.4,9,16.29,18.32,32.39,27.69,48.46C373.37,512.91,365.17,509.77,363.32,510.65Z"/><path class="cls-1" d="M345,514.31c-.88,0-1.73.17-2.61.19-14.63.24-23.7,6.5-23.75,22.23,0,4.33-2.7,3.47-5.29,3.45-7,0-14,0-21,0v-.22c-6.69,0-13.4-.34-20.07.08-6.85.44-9.74-3-9.92-9.09-.26-9.6-.1-19.22-.07-28.82,0-3.45,2.11-5.95,4.37-8.26,14.29-14.61,32.47-23.25,50.2-32.59,2.87-1.52,4.28-.33,5.57,1.95,8.57,15.15,17,30.37,25.74,45.44C350.72,513,349.56,514.38,345,514.31Z"/><path class="cls-1" d="M1569.12,445.23c-56.6-24.36-113.95-46.7-172.6-65.65-103-33.25-207.92-57.46-315.81-67.92-15.07-1.45-30.17-3.36-45.38-2.31-7.41.51-11.78,3.82-11.7,12.1.23,19.26.06,38.51,0,57.76,0,3.5-.11,7,2.17,10.07,6.15,8.18,8.93,17.7,9.72,27.63.42,5.43,2.46,6.58,7.5,6.51,23-.29,46.14.58,69.14-.49,17.35-.8,28,7.45,36.16,21.15,6.46,10.84,10.09,22.79,13.82,34.74,4.92,15.74,17.41,24.84,33.88,25,8.76.11,17.54.32,26.28-.08,5.88-.28,8.93,2.22,11.35,7.35,9.28,19.68,7.55,39.73,2.21,59.79-4.58,17.19-4.89,17.1-22.22,17-3.2,0-6.44.28-9.61,0-9.87-1-17.54,2.89-24.06,9.89a38.73,38.73,0,0,0-10.26,20.83,26.43,26.43,0,0,0-1.56,3.1c-9.79,27.58-27.1,43-60.44,41.82-38.94-1.35-78-.14-117,0l-112.06,0c-19.8-.11-39.65-1.24-59.37-.07-21.92,1.31-40.08-4.54-54.33-21.5-3.36-6.07-7.2-12-10-18.28-3.88-8.75-6.79-17.94-10.58-26.74s-10.3-13.66-20.54-12.92c-7.55.52-15.17.08-22.74.33-5.54.19-9-1.89-12-6.83-10.88-18.33-10.23-37.25-3.5-56.43,6.08-17.36,6.36-17.27,24.51-17.24a64.37,64.37,0,0,1,7.86.06c16.89,2.06,27-6.41,33.13-21.11,4.47-10.74,8.51-21.65,13.28-32.25,8.2-18.26,22-27.75,42.64-27.37,23,.44,46.08,0,69.14.23,6.09.05,9.77-.33,8.88-8.32-.77-6.81-1-14.94,3.63-20.23,7.74-8.74,6.65-18.69,6.74-28.75q.16-19.23.28-38.5c.05-13.32-4.2-17.77-17.55-18.33-3.19-.12-6.41-.08-9.62.09-74.92,4.12-148.6,16.49-221.46,34C545.13,368,446.51,402.46,350.63,445c-5.48,2.43-6.18,4.41-3,9.46,6.23,9.83,11.68,20.16,17.66,30.16,2.26,3.79,3,8.69,7.53,11.43,2.36-2.58.19-7.68,4.78-7.57,2.42,0,2.23,3,3,4.8,1.85,4.4-2.16,11.38,3.18,13.26,4,1.4,9.55-1.26,14.33-2.42,6.43-1.54,8,1.18,7.92,7.25-.31,16.91.53,33.87-.3,50.75-.92,19.31,2.86,37.6,9.15,55.59,1.07,4.18,2.07,8.39,3.2,12.54q14,50.68,28.1,101.34c3.21,15.08,7.47,29.9,13.79,43.95,7.6,16.89,20.32,28.91,37.4,36.26,5.94,2.58,9.91,3.39,8.83-5.58-.61-5.15.16-10.5.54-15.73.14-1.84-.07-4.59,3-4.31,2.56.22,3,2.45,3,4.57.05,6.71.36,13.45-.09,20.13-.28,4.25,1.21,5.92,5.17,5.9,8.16,0,16.32-.11,24.47-.16q59.63.06,119.22.09H763l115.72.12c3.49.12,7,.35,10.48.35q235.34,0,470.67-.08c13.41,0,26.85-.36,40.23.08,6.41.2,8-2.06,7.4-8-.6-5.78-.23-11.65,0-17.48.07-2.07-.9-5.31,2.56-5.48s4.11,2.76,4.17,5.5c.07,5.53.22,11.1-.18,16.6-.42,5.92,1.56,6.1,6.5,4.17,19.88-7.74,33.77-21.37,41.38-41.23,2.52-6.57,4.22-13.46,6.3-20.2,11.23-37.1,21.36-74.51,31-112,9.53-30,17.92-60.21,15.17-92.34-.9-10.44-.23-21-.21-31.51,0-12.19,0-12.19,11.79-9.86s11.75,2.33,13.15-9.62a25.5,25.5,0,0,1,.79-4.27c.44-1.62.54-3.74,2.94-3.65,2.12.09,2.72,1.67,3,3.56.21,1.51-.48,3.5,2.47,4.57,7.86-13.77,15.52-27.69,23.72-41.31C1575.09,449.6,1574.87,447.7,1569.12,445.23ZM383.3,443.94c-.7,6.86-1.5,13.75-2.45,20.58-.33,2.35-2.24,3.75-4.41,3-4.49-1.53-1.33-5.49-2.56-8.88.95-4.79,1.82-10.18,3.19-15.46.42-1.68,1.29-4.23,4.08-3.5C383.18,440.22,383.48,442.24,383.3,443.94Zm129.53,13.43c0,3.47,0,6.94,0,10.41,0,2-.79,3.52-2.89,3.59a3.38,3.38,0,0,1-3.5-3.24c-.56-7.48-1.09-15,.58-22.42.31-1.4.66-2.93,2.55-2.95,2.18,0,3.11,1.51,3.19,3.33.16,3.75.06,7.52.06,11.28Zm-5.66,183.87c.32-1.61,1.21-2.66,3-2.35a3,3,0,0,1,2.51,3.14c.12,3.77.05,7.55.05,11.32h.14c0,3.5,0,7,0,10.47,0,1.88-.59,3.61-2.66,3.89s-3.28-1.33-3.54-3.1A67.72,67.72,0,0,1,507.17,641.24Zm6,61.35a1.1,1.1,0,0,1-.26,0c0,3.18,0,6.37,0,9.56,0,2.14-.35,4.42-3,4.5-2.43.07-3.43-2.06-3.61-4.18a97.57,97.57,0,0,1,.58-21.67c.19-1.4.42-3,2.42-2.93a2.85,2.85,0,0,1,3,2.59C512.73,694.51,512.9,698.56,513.16,702.59ZM513,761.45c0,2.24-.69,4.1-3.4,4a3.21,3.21,0,0,1-3.19-3.49c.44-8.44-1.89-17,.94-25.31,1.46.18,2.93.35,4.38.51C514.13,745.16,512.83,753.34,513,761.45Zm-.86-142.84a5.35,5.35,0,0,1-5.29-1.21c-1.67-7.73-.83-15.49-.07-23.21.17-1.79,0-4.52,3-4.22,2.57.26,2.94,2.48,3,4.53C513,602.56,513.9,610.62,512.15,618.61Zm-6.06-57.15c-.07-4.62-.06-9.26.33-13.87.21-2.57-.61-6.69,3.57-6.52,3.38.14,2.93,3.7,3,6.26.07,2.89,0,5.78,0,8.67h0a30.85,30.85,0,0,1,0,5.18c-.53,3,2,8.15-3.54,8C505.28,569.05,506.14,564.48,506.09,561.46Zm7-54.56c0,2.33.18,4.66,0,7-.27,2.64.87,6.66-3.6,6.46-3.34-.14-3.5-3.45-3.43-6.09.18-6.38.49-12.76.88-19.13.08-1.32.07-3.1,2-3.37,2.19-.31,3.36,1.27,3.57,3,.53,4,.65,8.09.95,12.14A1.72,1.72,0,0,1,513.11,506.9Zm0-89.13c-.09,2-.21,4.45-2.89,4.6-3,.16-3.84-2.33-4-4.69-.22-3.47-.07-7-.07-11.42,1.28-3.44-2.43-11.74,3.12-11.76,6.83,0,2.93,8.29,3.93,12.84C513.93,410.65,513.27,414.28,513.11,417.77Zm84,71.66c-2.6,13.19-14.14,20.74-29.59,19.74-13.75-.87-22.42-9.6-23.12-23.59-.3-6.1-.06-12.23-.06-18.34h.23c0-7-.56-14.05.11-21,1.5-15.35,12.66-23.88,29.36-23.14,14.83.66,24.12,9.95,24.14,25.35C598.23,462.12,599.81,475.87,597.13,489.43Zm777.75.9c-1.45,11.64-11.42,18.49-24.7,18.86-14.06.4-23.21-5.66-26.73-17.52-2.63-8.86-1.07-17.93-1.37-26.9,0-6.41-.29-12.83.07-19.22.72-12.44,9.92-21.35,22.53-22.28,15.17-1.12,27.31,5.94,29.64,18.39C1377.35,457.78,1376.91,474.17,1374.88,490.33Zm32.41-33.69h.12a61.89,61.89,0,0,1,.09-7.83c.28-2.26-1.26-6,2.87-6,3.09,0,3.3,3.07,3.38,5.24.25,6.38.25,12.77.13,19.15,0,2.06-.86,4.31-3.44,4.29s-3.1-2.23-3.13-4.36C1407.24,463.61,1407.29,460.12,1407.29,456.64Zm.19,50.17c-.5-3.38-.1-7,.13-10.42.12-1.81-.84-4.51,2.2-4.8,3.21-.32,3.72,2.36,4,4.62.42,3.45.47,6.94.72,10.72-1.42,4.38,2.45,13-4,13C1404.49,519.91,1408.18,511.47,1407.48,506.81Zm-.17,140.6c.49-2.91-1.44-7.76,2.42-8.2,5-.56,3.92,4.83,4.23,7.86a114.48,114.48,0,0,1,.13,14.82c-.09,2.58-.23,5.86-3.77,5.77-3-.09-3-3.17-3.12-5.43-.17-3.19,0-6.4,0-9.58h.09A32.68,32.68,0,0,1,1407.31,647.41Zm2.77,117.8c-3-.24-2.79-2.54-2.75-4.48.15-7.76.43-15.54.66-23.3,3.14-1.45,4.71.39,6,2.8.06,6.91.18,13.81.15,20.71C1414.18,763.53,1413.18,765.46,1410.08,765.21Zm3.66-52.15c-.25,2-1,4.3-3.66,4-2.07-.27-2.46-2.23-2.56-4-.19-3.77-.35-7.55-.51-11.32a4.7,4.7,0,0,1,.53,0c0-2.91-.16-5.81,0-8.7.16-2.12-.61-5.21,2.94-5.22,2.73,0,2.94,2.57,3.19,4.46A81.52,81.52,0,0,1,1413.74,713.06Zm-1.14-94.28c-2.94,1-4.54-.4-5.34-3.1.07-7,.07-14,.24-20.95,0-1.87-.38-4.54,2.47-4.78,3.08-.28,4,2.29,4,4.62C1414,602.67,1415.54,610.87,1412.6,618.78Zm1.35-52.27c-.11,1.94-1.74,2.84-3.79,2.63-2.22-.23-2.8-1.7-2.82-3.61,0-3.47,0-6.94,0-10.41h.32c0-3.75-.07-7.51,0-11.26,0-1.45.51-3,2.35-3a3.1,3.1,0,0,1,3.19,2.42C1415.24,550.94,1414.44,558.75,1414,566.51Zm-.35-147c-.23,1.82-1.4,3.45-3.35,3.36s-2.73-1.89-2.75-3.77c0-7.2-.09-14.41,0-21.61,0-1.77.37-3.61,2.73-3.58a3.5,3.5,0,0,1,3.5,3.23c.5,3.69.62,7.44.88,11.05C1414.25,412.09,1414.05,415.84,1413.6,419.54Zm129,47.61c-4.57.21-3.38-3.73-3.75-6.36-.71-5.17-1.48-10.34-1.91-15.54-.17-2.08-1.17-5.31,1.81-5.92,3.26-.66,4.36,2.52,4.9,5,1.11,5.08,1.77,10.27,2.53,14.87C1545.26,462.51,1547.92,466.9,1542.56,467.15Z"/><path d="M598.2,448.48c0-15.4-9.31-24.69-24.14-25.35-16.7-.74-27.86,7.79-29.36,23.14-.67,6.92-.11,14-.11,21h-.23c0,6.11-.24,12.24.06,18.34.7,14,9.37,22.72,23.12,23.59,15.45,1,27-6.55,29.59-19.74C599.81,475.87,598.23,462.12,598.2,448.48Zm-28.49,53.67c-11.84-.26-18.23-7.22-17.85-20.72,12.84,12.47,25.72,11.19,38.63.52C590.54,495.39,583,502.46,569.71,502.15Zm-15.38-36.51a16.46,16.46,0,0,1,16.9-16.27,16.83,16.83,0,0,1,16.94,17.29c-.21,8.76-8.18,16.52-17,16.64C562.06,483.42,554.17,475.12,554.33,465.64Zm16.92-23.49c-7.37.33-13.22,3.47-19.7,9.16.5-13.85,8-21.09,19.81-21.11,13,0,19.28,6,19.69,19.41C584.23,447.3,579,441.8,571.25,442.15Z"/><path d="M509.47,569.17c-4.19-.12-3.33-4.69-3.38-7.71-.07-4.62-.06-9.26.33-13.87.21-2.57-.61-6.69,3.57-6.52,3.38.14,2.93,3.7,3,6.26.07,2.89,0,5.78,0,8.67h0a30.85,30.85,0,0,1,0,5.18C512.48,564.16,515,569.33,509.47,569.17Z"/><path d="M513.11,417.77c-.09,2-.21,4.45-2.89,4.6-3,.16-3.84-2.33-4-4.69-.22-3.47-.07-7-.07-11.42,1.28-3.44-2.43-11.74,3.12-11.76,6.83,0,2.93,8.29,3.93,12.84C513.93,410.65,513.27,414.28,513.11,417.77Z"/><path d="M512.83,457.37c0,3.47,0,6.94,0,10.41,0,2-.79,3.52-2.89,3.59a3.38,3.38,0,0,1-3.5-3.24c-.56-7.48-1.09-15,.58-22.42.31-1.4.66-2.93,2.55-2.95,2.18,0,3.11,1.51,3.19,3.33.16,3.75.06,7.52.06,11.28Z"/><path d="M513.11,506.9c0,2.33.18,4.66,0,7-.27,2.64.87,6.66-3.6,6.46-3.34-.14-3.5-3.45-3.43-6.09.18-6.38.49-12.76.88-19.13.08-1.32.07-3.1,2-3.37,2.19-.31,3.36,1.27,3.57,3,.53,4,.65,8.09.95,12.14A1.72,1.72,0,0,1,513.11,506.9Z"/><path d="M383.3,443.94c-.7,6.86-1.5,13.75-2.45,20.58-.33,2.35-2.24,3.75-4.41,3-4.49-1.53-1.33-5.49-2.56-8.88.95-4.79,1.82-10.18,3.19-15.46.42-1.68,1.29-4.23,4.08-3.5C383.18,440.22,383.48,442.24,383.3,443.94Z"/><path d="M512.15,618.61a5.35,5.35,0,0,1-5.29-1.21c-1.67-7.73-.83-15.49-.07-23.21.17-1.79,0-4.52,3-4.22,2.57.26,2.94,2.48,3,4.53C513,602.56,513.9,610.62,512.15,618.61Z"/><path d="M1374.32,441.66c-2.33-12.45-14.47-19.51-29.64-18.39-12.61.93-21.81,9.84-22.53,22.28-.36,6.39-.07,12.81-.07,19.22.3,9-1.26,18,1.37,26.9,3.52,11.86,12.67,17.92,26.73,17.52,13.28-.37,23.25-7.22,24.7-18.86C1376.91,474.17,1377.35,457.78,1374.32,441.66ZM1345,430.38c14.47-1.44,22.83,5.67,23.23,20.57-12.65-11-25.4-12.25-38.21-.6C1328.06,439.12,1334.07,431.45,1345,430.38Zm20.69,36.52c-.59,9.64-8.69,17-17.9,16.23-8.78-.72-16.78-9.2-16.38-17.35.49-9.82,9.27-17.11,19.69-16.31C1359.34,450.12,1366.18,458.28,1365.65,466.9Zm-17.74,35.32c-11.39-.32-18.77-8.2-18-20.23,12.93,11.93,25.78,10.58,38.54-.67C1368.84,495.58,1361.55,502.59,1347.91,502.22Z"/><path d="M1413.88,467.17c0,2.06-.86,4.31-3.44,4.29s-3.1-2.23-3.13-4.36c-.07-3.49,0-7,0-10.46h.12a61.89,61.89,0,0,1,.09-7.83c.28-2.26-1.26-6,2.87-6,3.09,0,3.3,3.07,3.38,5.24C1414,454.4,1414,460.79,1413.88,467.17Z"/><path d="M1412.6,618.78c-2.94,1-4.54-.4-5.34-3.1.07-7,.07-14,.24-20.95,0-1.87-.38-4.54,2.47-4.78,3.08-.28,4,2.29,4,4.62C1414,602.67,1415.54,610.87,1412.6,618.78Z"/><path d="M1414.56,408.22c-.31,3.87-.51,7.62-1,11.32-.23,1.82-1.4,3.45-3.35,3.36s-2.73-1.89-2.75-3.77c0-7.2-.09-14.41,0-21.61,0-1.77.37-3.61,2.73-3.58a3.5,3.5,0,0,1,3.5,3.23C1414.18,400.86,1414.3,404.61,1414.56,408.22Z"/><path d="M1410.58,519.91c-6.09,0-2.4-8.44-3.1-13.1-.5-3.38-.1-7,.13-10.42.12-1.81-.84-4.51,2.2-4.8,3.21-.32,3.72,2.36,4,4.62.42,3.45.47,6.94.72,10.72C1413.11,511.31,1417,519.93,1410.58,519.91Z"/><path d="M1414,566.51c-.11,1.94-1.74,2.84-3.79,2.63-2.22-.23-2.8-1.7-2.82-3.61,0-3.47,0-6.94,0-10.41h.32c0-3.75-.07-7.51,0-11.26,0-1.45.51-3,2.35-3a3.1,3.1,0,0,1,3.19,2.42C1415.24,550.94,1414.44,558.75,1414,566.51Z"/><path d="M1542.56,467.15c-4.57.21-3.38-3.73-3.75-6.36-.71-5.17-1.48-10.34-1.91-15.54-.17-2.08-1.17-5.31,1.81-5.92,3.26-.66,4.36,2.52,4.9,5,1.11,5.08,1.77,10.27,2.53,14.87C1545.26,462.51,1547.92,466.9,1542.56,467.15Z"/><path d="M1414.18,760.94c0,2.59-1,4.52-4.1,4.27s-2.79-2.54-2.75-4.48c.15-7.76.43-15.54.66-23.3,3.14-1.45,4.71.39,6,2.8C1414.09,747.14,1414.21,754,1414.18,760.94Z"/><path d="M1414.09,661.89c-.09,2.58-.23,5.86-3.77,5.77-3-.09-3-3.17-3.12-5.43-.17-3.19,0-6.4,0-9.58h.09a32.68,32.68,0,0,1,0-5.24c.49-2.91-1.44-7.76,2.42-8.2,5-.56,3.92,4.83,4.23,7.86A114.48,114.48,0,0,1,1414.09,661.89Z"/><path d="M1413.74,713.06c-.25,2-1,4.3-3.66,4-2.07-.27-2.46-2.23-2.56-4-.19-3.77-.35-7.55-.51-11.32a4.7,4.7,0,0,1,.53,0c0-2.91-.16-5.81,0-8.7.16-2.12-.61-5.21,2.94-5.22,2.73,0,2.94,2.57,3.19,4.46A81.52,81.52,0,0,1,1413.74,713.06Z"/><path d="M987.48,639.54l-105.28.86q-38.34-.23-76.67-.46c-11.77-.06-11.71,0-11.75-11.84,0-3.44-.41-6.89-.64-10.33-.09-5.59,3.43-6.38,8-6.37q59.94.23,119.9.28a74.9,74.9,0,0,0,13.58-.82c-28.32-15.12-42.51-38-40-69.74,2.53-32.09,22.46-50.74,51-62.66-2.75-.13-5.51-.48-8.25-.36-44.91,2-89.84.22-134.75,1-7.36.14-10.37-2-8.61-9.39,1.45-6.06-3.37-14.33,2.19-17.89,4.4-2.82,11.88-.95,18-1q151,0,302,.05c15.36,0,13.42-2.6,13.66,14.24.2,14,0,13.88-14.32,13.86q-58.65-.06-117.28,0c-6.35,0-12.69,0-19.78.64,29.81,10.15,48.81,29.89,51.71,61.39s-12,54.07-40.19,68.83c3.08,3.08,6.36,1.78,9.25,1.78,39.67,0,79.35-.12,119-.1,11.37,0,11.36.15,11.71,11.63a23.89,23.89,0,0,0,.56,3.42,12.33,12.33,0,0,0-.23,8.51c-.24,1.09-.47,2.19-.7,3.28q-34.87.33-69.75.64Q1023.67,639.36,987.48,639.54Zm-117.43-7q61.26,1.63,122.5-.78c41.65.2,83.29.28,124.93.71,6.25.07,5.25-3.42,5.28-7.21s.91-7.38-5.31-7.33c-42.81.34-85.63.36-128.44.49H878.77c-24.39-.08-48.78,0-73.17-.31-6.26-.06-5.1,3.95-5.15,7.63s-1.09,7.65,5.18,7.52C827.1,632.78,848.57,632.7,870.05,632.49ZM961,472.17v.05c51.34,0,102.68-.17,154,.19,7.53,0,8.28-2.87,8.53-9.13.28-7.27-4.17-5.39-7.94-5.38q-153.15.08-306.3.19c-4.37,0-9.2-2-9.18,6.21,0,7.05,2.48,8,8.59,8C859.46,472.07,910.22,472.17,961,472.17Zm-59.69,74.29c-.22,33,27.15,61.28,59.87,61.77,33.75.51,62.32-27.21,62.81-60.92.46-32-28.17-60.8-60.8-61.18C929.31,485.75,901.51,512.85,901.29,546.46Z"/><path d="M836.94,531.92c11.95,0,23.91.18,35.85-.08,4.81-.1,6.57,1.53,7,6.39,1.55,19.83,1.61,19.8-18.4,19.67s-40.22-.15-60.33.11c-5.65.08-7.54-1.47-7.25-7.46.88-18.67.62-18.68,19.57-18.65C821.2,531.91,829.07,531.9,836.94,531.92Zm-.69,18.89v-.07c10.19,0,20.39-.31,30.55.14,5,.22,5.69-1.8,6-6,.33-4.64-1-6.11-5.72-6q-30.12.33-60.25,0c-4.81-.05-6.61,1.13-6.61,6.32,0,5.81,3.08,5.75,7.23,5.68C817,550.71,826.65,550.81,836.25,550.81Z"/><path d="M1087.29,557.85c-12,0-23.92-.12-35.88.06-4.83.07-6.44-1.64-6.56-6.63-.47-19.29-.66-19.31,18.41-19.35,19.84,0,39.68.24,59.51-.16,6.62-.14,8.58,2,8.44,8.47-.47,20.7,2.13,17.43-17.66,17.63-4.37,0-8.75,0-13.13,0Zm.57-7v-.12c10.21,0,20.43-.29,30.62.12,5,.21,5.77-2,5.83-6.18,0-3.73-.29-5.9-5-5.84q-31.07.33-62.14,0c-5.45-.06-5.05,2.92-5.23,6.68-.2,4.13.86,5.61,5.3,5.45C1067.44,550.59,1077.66,550.84,1087.86,550.84Z"/><path d="M808,288.77c-3.07-1.49-9,2.44-9.29-2.87-.35-5.71,5.85-3.85,9.49-4.4,4.56-.68,9.17-1,13.77-1.42,2-.18,4.21-.26,4.55,2.56s-.86,4.17-3.83,4.4C817.83,287.43,813,288.17,808,288.77Z"/><path d="M486.07,352.05c3.05-.43,4.67-.17,5.31,1.93a3.11,3.11,0,0,1-2,4.2c-6.75,2.48-13.52,4.9-20.34,7.19-1.65.55-3.49.42-4.43-1.59-1.15-2.46.36-4.17,2.18-4.88C473.53,356.3,480.37,354.05,486.07,352.05Z"/><path d="M773,285.46c2.67-.56,4.79,0,5,3.11.2,2.6-1.63,3.29-3.9,3.63-6.33.94-12.62,2.1-18.94,3.07-2,.32-4.29.52-4.82-2.29s.73-4.36,3.63-4.75C760.38,287.37,766.71,286.39,773,285.46Z"/><path d="M579,325.18c4.26-.36,6.48-.7,7,2.06.39,2.06-1,3.21-2.79,3.75-6.89,2-13.78,4.09-20.71,6-1.74.47-3.63,0-4.22-2-.7-2.43.84-3.87,2.93-4.52C567.86,328.42,574.51,326.52,579,325.18Z"/><path d="M612.53,323.92c-3.5.09-5.93.67-6.57-2-.59-2.41,1.16-3.74,3.33-4.27,6.45-1.58,12.89-3.24,19.41-4.53,1.61-.33,4.3-1.27,4.87,1.84.44,2.42-1,4-3.12,4.53C624,321.23,617.56,322.7,612.53,323.92Z"/><path d="M676.21,302.38c2.19.45,4.85-.83,5.49,1.92s-1.63,4.25-3.9,4.78c-6.44,1.5-12.93,2.75-19.42,4-2.08.4-4.32.28-4.53-2.5a3.82,3.82,0,0,1,3.27-4.39Z"/><path d="M422.93,386.48c-4.29-.47-3.74-3.31-2.28-5,5.94-6.69,14.08-10,22.38-12.28,3.41-1,3.74,3,1.89,4.47C438.18,379.12,430.44,383,422.93,386.48Z"/><path d="M708,303.22c-3.06-.44-5.66.53-6.24-2.25-.65-3.14,1.83-3.93,4.22-4.39,6.28-1.21,12.58-2.26,18.85-3.53,2.24-.45,4.24-.55,4.9,2s-1,3.88-3.19,4.36C720,300.85,713.43,302.12,708,303.22Z"/><path d="M862.43,277.48c2.9,0,5.8-.05,8.7,0,2,.05,4.34-.31,4.49,2.7a3.52,3.52,0,0,1-3.55,4.06c-6.94.37-13.9.56-20.85.82-2.05.07-3.42-.92-3.54-2.94-.13-2.27.87-4,3.45-4.06,3.76-.07,7.53,0,11.3,0Z"/><path d="M1414.69,360.19c-2.21,3.85,3.09,12-4,12-6.62,0-3.47-7.93-3-12,.84-7.49-2.06-10.47-9-11.65a96.48,96.48,0,0,1-14.18-4.06c-1.93-.65-3.89-2.17-3.36-4.47s2.84-2.74,5-2.11c8.07,2.36,16.28,4.39,24.12,7.36C1417.57,348.09,1413.2,355,1414.69,360.19Z"/><path d="M1338.92,324.37c6.6,2.06,13.22,4.07,19.8,6.21,1.7.55,3.32,1.76,2.86,3.75a3.69,3.69,0,0,1-4.78,2.67c-6.69-1.73-13.33-3.69-19.94-5.71a3.7,3.7,0,0,1-2.83-4.67C1334.69,323.82,1336.68,324.06,1338.92,324.37Z"/><path d="M1495.83,386.12c-6.53-4-14.69-6.56-21.08-12.22a3,3,0,0,1,0-4,3.32,3.32,0,0,1,4.06-.57q9.35,4.65,18.51,9.68a4.11,4.11,0,0,1,1.85,5.29C1498.78,385.48,1498,386.26,1495.83,386.12Z"/><path d="M1449.85,365.23c-5.69-2-12.56-4.33-19.32-6.93a3.38,3.38,0,0,1-1.89-5c1-2,2.82-1.6,4.56-1,6.33,2.1,12.68,4.16,19,6.32,2.13.72,3.49,2.24,2.94,4.64C1454.66,365.34,1453,365.73,1449.85,365.23Z"/><path d="M1244.51,302.52c5.82,1.2,11.75,2.34,17.64,3.68,2.29.53,4.73,1.63,4.07,4.56-.71,3.13-3.63,2.48-5.75,2.12-5.94-1-11.87-2.19-17.72-3.65-2.11-.52-5.08-1.58-4.7-4.29C1238.58,301.13,1242.09,303,1244.51,302.52Z"/><path d="M1145.76,285.38c7.31,1.08,13.59,2.12,19.91,2.88,2.91.35,4.27,1.65,3.83,4.5s-2.71,2.76-4.72,2.47c-6.58-1-13.14-2.13-19.71-3.18-2.32-.36-3.88-1.46-3.6-4C1141.84,284.61,1144.51,285.33,1145.76,285.38Z"/><path d="M1112.84,288.63c-5.34-.56-10.54-1.18-15.75-1.64-2.54-.22-4.7-.67-4.62-3.86.09-3.49,2.64-3.33,5-3.14q7.83.63,15.64,1.52c3.22.36,8.2-.81,7.57,4.53C1120.09,290.91,1115.36,287.41,1112.84,288.63Z"/><path d="M1306.6,323.81c-4.67-1.14-10.83-2.55-16.95-4.17-2-.53-3.93-1.88-3.69-4.21.3-2.82,2.85-2.67,4.76-2.27,6.47,1.34,12.88,2.93,19.32,4.45,2.14.51,3.88,1.56,3.52,4.09C1313,325.36,1310.31,324,1306.6,323.81Z"/><path d="M1210.22,302.88c-5.1-.95-10.78-1.91-16.42-3.09-2.52-.52-4.24-2.08-3.37-5s3-2,5-1.63c5.41.93,10.87,1.62,16.24,2.73,2.69.56,6.81.88,6.33,4.55C1217.47,304.66,1213.37,302.13,1210.22,302.88Z"/><path d="M1058,278h10.46c2.76,0,3.29,1.83,3.21,4.09s-1.5,2.92-3.48,2.85c-6.68-.22-13.36-.39-20-.74-2.43-.13-4.82-.91-4.5-4.06.3-2.92,2.87-2.36,4.75-2.44,3.19-.15,6.39,0,9.59,0Z"/><path d="M513,761.45c0,2.24-.69,4.1-3.4,4a3.21,3.21,0,0,1-3.19-3.49c.44-8.44-1.89-17,.94-25.31,1.46.18,2.93.35,4.38.51C514.13,745.16,512.83,753.34,513,761.45Z"/><path d="M512.83,653.35c0,3.5,0,7,0,10.47,0,1.88-.59,3.61-2.66,3.89s-3.28-1.33-3.54-3.1a67.72,67.72,0,0,1,.56-23.37c.32-1.61,1.21-2.66,3-2.35a3,3,0,0,1,2.51,3.14c.12,3.77.05,7.55.05,11.32Z"/><path d="M513.16,702.59a1.1,1.1,0,0,1-.26,0c0,3.18,0,6.37,0,9.56,0,2.14-.35,4.42-3,4.5-2.43.07-3.43-2.06-3.61-4.18a97.57,97.57,0,0,1,.58-21.67c.19-1.4.42-3,2.42-2.93a2.85,2.85,0,0,1,3,2.59C512.73,694.51,512.9,698.56,513.16,702.59Z"/><path d="M1386.33,857.8c-2.24-.06-3.81-.1-4.44-1.72-1-2.54.84-4,2.65-4.81,5.53-2.59,11.19-4.89,16.79-7.33,2.36-1,5.15-1.59,6.06-4.49.79-2.47,1-6,4.86-3.25,2.75,1.95,3.58,5.46,1,7.6C1405.23,850.63,1395.61,854.71,1386.33,857.8Z"/><path d="M803.65,847c-1.61-2.74-2.86-5.87,1.51-6.75,7.1-1.43,14.34-2.23,21.54-3.15,3.28-.43,3.59,2.19,4,4.49C822.49,847.26,812.94,846.51,803.65,847Z"/><path d="M1074.35,835.16q.14,3.3.28,6.62c-7.89,1.05-15.47-1.57-23.23-2-2.51-.15-5.4-1.19-4.86-4.77.5-3.32,3.31-2.79,5.48-2.56C1059.47,833.22,1066.9,834.23,1074.35,835.16Z"/><path d="M770.1,845.28c3.85,2.06,10.31-4.71,12.32,3.62-7.55,6.09-17,4.43-25.61,6.19a2.42,2.42,0,0,1-2.88-2.49,3.7,3.7,0,0,1,2.89-3.87C761.22,847.49,765.67,846.42,770.1,845.28Z"/><path d="M1095.19,841.93l2.46-3.53c6.86,1.28,13.74,2.45,20.56,3.92,2.48.54,5.7,1.42,5.16,4.78-.52,3.21-3.69,2.14-5.79,1.95-5.79-.55-11.54-1.36-17.31-2.09C1097.31,846.58,1095.52,845,1095.19,841.93Z"/><path d="M1011.83,829.65c3.5,0,7-.08,10.49,0,2.35.07,3.75,1.26,3.78,3.82,0,2.9-1.85,3.33-4,3.18-7-.48-13.95-1.07-20.92-1.59-2.44-.18-3.86-1.37-3.63-3.87.2-2.27,2.1-2.63,3.85-2.62,3.49,0,7,.27,10.47.42Z"/><path d="M1165.24,860.21c-5.85-1.41-11.72-2.77-17.56-4.26-2.33-.6-4.82-1.9-4.35-4.54.53-3,3.53-2.62,5.73-2.16,5.91,1.24,11.78,2.68,17.62,4.2,2.22.57,5,1.45,4.37,4.37C1170.41,860.94,1167.6,860.06,1165.24,860.21Z"/><path d="M1446.43,816.1c-.59,4.3-14.7,17.86-18.41,18.42a2.79,2.79,0,0,1-3-.93,3.41,3.41,0,0,1,.36-4.73c5.22-5.38,10.64-10.56,17.05-14.54a3.8,3.8,0,0,1,3.16-.47C1446.26,814.23,1446.32,815.77,1446.43,816.1Z"/><path d="M914.3,828.47c3.2,0,6.41-.05,9.61,0,2.17,0,4,.5,4.09,3.35.08,3-1.86,3-4,3.13-6.39.39-12.76,1-19.16,1.3-2.4.12-4.78-.29-4.93-3.55-.17-3.65,2.53-3.2,4.79-3.34,3.2-.2,6.4-.37,9.61-.55Z"/><path d="M712.24,864.82c-3-.37-6,.78-6.34-2.68-.24-2.66,1.51-4.06,4.23-4.53,6-1.05,11.9-2.45,17.89-3.45,2.16-.36,5.08-.88,5.71,2.26.49,2.51-1.86,3.45-3.8,4C723.8,862,717.61,863.49,712.24,864.82Z"/><path d="M850.86,840.07c-.91-4.43,1.37-6.33,5.41-6.81,2.82-.32,5.64-.61,8.46-.92l10.29-1c2.4-.24,3.85.61,4,3.24.16,2.4-.61,3.61-3.24,4C867.51,839.73,859.27,841.23,850.86,840.07Z"/><path d="M955.74,827.52l20.81.85c1.18,4.78-.31,6.94-5.58,6.51-4.88-.4-9.82,0-14.72-.17-2.89-.1-7.14,1.52-7.5-3.33C948.35,826,953.27,828.62,955.74,827.52Z"/><path d="M670.7,866.39c-3.19,0-6.39,0-9.58,0-2.37,0-4-.95-4.07-3.4s1.24-3.66,3.79-3.64c6.68,0,13.36,0,20-.07,2.65,0,4.72.93,4.63,3.87-.07,2.56-2.18,3.15-4.35,3.18-3.49,0-7,0-10.46,0Z"/><path d="M1346.37,866.34c-4.56,0-6.59.06-8.62,0s-4-.65-4-3.39c0-2.49,1.3-3.5,3.77-3.66,6.35-.4,12.68-1,19-1.49,2-.15,4.51-.15,5.12,2.21.76,3-1.88,4.14-4,4.6C1353.08,865.56,1348.47,866,1346.37,866.34Z"/><path d="M1303.11,859.26c3.49,0,7,.09,10.45,0,2.69-.09,3.53,1.39,3.74,3.7.26,2.88-1.58,3.38-3.81,3.4-6.39,0-12.78.17-19.16,0-2.59-.06-5.64-.63-5.37-4.19.25-3.3,3.23-2.68,5.44-2.76,2.9-.1,5.81,0,8.71,0Z"/><path d="M630,866.73c-6.1-.13-12.2-.23-18.3-.41-2.12-.07-4.18-.56-4.37-3.2-.14-2,.83-3.57,2.91-3.59,7.84-.08,15.68-.08,23.51.21.85,0,1.62,2.08,2.43,3.19C635.71,866.77,632.59,866.31,630,866.73Z"/><path d="M1205.45,859.33c3.21,0,6.41.06,9.61,0,2.28,0,4,.45,4.2,3.14s-.93,3.85-3.44,3.84c-7.27,0-14.54,0-21.8-.26-1.61-.06-3.51-.85-3.29-3.22a3.3,3.3,0,0,1,3.38-3.28c3.78-.12,7.56,0,11.34,0Z"/><path d="M1255.3,866.4c-3.49,0-7,.09-10.47,0-2.55-.09-4.7-1.14-4.43-4.12.23-2.59,2.37-2.93,4.54-2.93,6.11,0,12.23.11,18.33-.12,3.26-.13,5.15,1.14,5.1,4.28-.06,3.46-3,2.79-5.22,2.9C1260.54,866.51,1257.92,866.41,1255.3,866.4Z"/><path d="M960.47,277.34c2.89,0,5.79,0,8.68,0,2.32,0,5-.2,4.94,3.21-.06,2.35-1.85,3.59-4.11,3.62-6.93.08-13.87.14-20.79-.08-2-.06-4.08-.93-3.75-3.75.26-2.28,2-2.66,3.76-2.71,3.76-.1,7.52,0,11.27,0Z"/><path d="M510.81,835.15c3.13,9.64,12.8,9.94,19.9,13.9,3.53,2,8.83,2.21,8.1,8.33-9.33,2.25-16-4.56-24-6.94l-8.94-6.87C505.93,839.84,504.94,835.47,510.81,835.15Z"/><path d="M482.81,815.46c1,5.87,6.88,7.46,10,11.48,1.72,2.22,4.95,4.25,2.09,7.19-2.31,2.36-5,.12-6.88-1.49-4-3.45-7.85-7.21-11.72-10.87-1.94-1.83-4.29-4.38-2.86-6.66,1.8-2.88,4.58-.54,6.77.71,1,.57,1.93,1.25,2.72-.23Z"/><path d="M390.63,557.7c-.53,3.41,1.34,6.5-2,7.14s-4.17-2.65-4.76-5c-1.45-5.87-2.57-11.83-3.77-17.77-.42-2.11-.29-4.34,2.26-4.83,2.26-.44,4,1,4.48,3.19C388.28,546.56,389.56,552.76,390.63,557.7Z"/><path d="M575.53,866.27c-5,.38-9.86-.75-14.64-2.07a3.25,3.25,0,0,1-2.57-4,3.2,3.2,0,0,1,3.46-2.15c7.29.35,14.56.82,21.84,1.26a3.49,3.49,0,0,1,3.54,4c-.13,1.94-1.83,2.85-3.75,2.9C580.78,866.33,578.15,866.28,575.53,866.27Z"/><path d="M1539.4,545.08c-.89,3.85-2.32,10.06-3.78,16.25-.52,2.22-1.93,4-4.22,3.41s-2.81-2.82-2.34-5c1.34-6.23,2.78-12.43,4.17-18.65.53-2.37,1.22-4.83,4.38-4.08S1540.12,540.37,1539.4,545.08Z"/><path d="M1015.71,546.79c-.5,31.87-23.59,54.5-55,53.9a53,53,0,0,1-52.26-54.14,53.68,53.68,0,0,1,54.48-53.13C992.93,493.74,1016.17,517.24,1015.71,546.79Zm-53.7,47c26.07,0,46.9-20.48,47-46.3.1-25.64-21-47.09-46.36-47.11-25.72,0-47.2,21.1-47.16,46.37C915.53,572.31,936.74,593.76,962,593.79Z"/><path d="M962.36,509.17c21.62,0,38,16.5,38,38.3.07,20.32-17.53,38.09-37.81,38.15a38.33,38.33,0,0,1-38.4-38.26C924.11,525.87,940.82,509.14,962.36,509.17Zm-.64,7.16a30.5,30.5,0,0,0-30.89,30.79c-.1,16.92,14.74,31.84,31.6,31.78,16.55-.07,31.64-15.41,31.51-32C993.8,529.32,980.1,516.34,961.72,516.33Z"/><path d="M961.77,519.35c16.16,0,28.79,11.94,29.05,27.34.24,14.36-14.09,29.3-28.06,29.25-15.9-.07-28.64-13.47-28.49-30C934.4,531.42,946.93,519.29,961.77,519.35Zm.92,49.23c11.18.16,20.86-9.48,21.17-21.08s-10.26-22.3-22.09-22.24c-10.8.06-21.08,10.29-21.43,21.36C940,558.24,950.29,568.39,962.69,568.58Z"/></g><g id="Capa_3" data-name="Capa 3"><path d="M835,679.38v111H815.19V719.67l-19.51,14.91L779.5,747.11l-16.18-12.53-19.51-14.91v70.75H724v-111l19.83,15.23,35.69,27.44,35.69-27.44Z"/><path d="M888.94,716.34v75.5H869.11V714.28a15.8,15.8,0,0,0-13.48-13.48h-4.44V681.13h4.28v.16A35.42,35.42,0,0,1,885,701.11a42.36,42.36,0,0,1,2.7,7.46,33.47,33.47,0,0,1,1,8.09Z"/><path d="M1015.35,679.38v111H995.52V744.73H937a31.53,31.53,0,0,1-14.91-3.64,32.42,32.42,0,0,1-17.76-29V679.38h19.83v32.68a13.06,13.06,0,0,0,13,13h58.53V679.38Z"/><path d="M1069.43,716.34v75.5H1049.6V714.28a15.8,15.8,0,0,0-13.48-13.48h-4.44V681.13H1036v.16a35.41,35.41,0,0,1,29.51,19.82,41.54,41.54,0,0,1,2.69,7.46,33,33,0,0,1,.95,8.09Z"/><path d="M1187,735.06a32.75,32.75,0,0,1-23.47,55.51H1118a32.57,32.57,0,0,1-30.13-20,34.31,34.31,0,0,1-2.54-12.85,32.67,32.67,0,0,1,9.2-22.84,31,31,0,0,1-6.82-10,34.31,34.31,0,0,1-2.54-12.85,32.19,32.19,0,0,1,32-32.83h46.48a32.88,32.88,0,0,1,23,55.67Zm-24.27-9.68a12.94,12.94,0,0,0,.48-25.85h-46.79a12.93,12.93,0,0,0,.32,25.85h46Zm.16,45.53a13.07,13.07,0,0,0,13-13,12.92,12.92,0,0,0-12.21-13h-46.48A12.88,12.88,0,0,0,1105,757.74a13.07,13.07,0,0,0,13,13h45.53Z"/></g></g></svg>