<svg xmlns="http://www.w3.org/2000/svg" viewBox="0 0 1920 1080"><defs><style>.cls-1{fill:#f2f2f2;}</style></defs><g id="Capa_2" data-name="Capa 2"><g id="Capa_1-2" data-name="Capa 1"><path d="M991,219.69c-21.05-1.91-42.12-2.37-63.17.15-2.54.31-6.51-1-6.71,2.84-.22,4.25,4,3.7,6.85,4.15a19.58,19.58,0,0,0,3.66-.09l53.9-.57a20.49,20.49,0,0,0,4.55.46c3.88,0,9.48.81,9.41-4.41C999.4,217.94,994,220,991,219.69Zm0,0c-21.05-1.91-42.12-2.37-63.17.15-2.54.31-6.51-1-6.71,2.84-.22,4.25,4,3.7,6.85,4.15a19.58,19.58,0,0,0,3.66-.09l53.9-.57a20.49,20.49,0,0,0,4.55.46c3.88,0,9.48.81,9.41-4.41C999.4,217.94,994,220,991,219.69ZM1725.6,557.78c0-4.24-9.82-12-9.82-12-5.72-4.13-12.46-4.61-19.27-4.59q-42.23.08-84.45.05c-12.37,0-12.46,0-12.48-12.45q-.11-84.44-.13-168.87c0-27.59-13.46-46.31-38.59-56.59-14.39-5.88-29.16-10.84-43.82-16.06-46.25-16.52-92.82-32.08-140-45.65-6.12-1.77-11.54-1.82-16,3.07-2.29,2.53-4.31,2.05-7.25,1.47-19-3.77-37.08-12.39-57.08-10.88-2.65.2-3-2-3.12-3.62-.74-11.5-9-14-18.19-15.63-20.74-3.69-41.41-7.75-62.19-11.15-80.68-13.17-161.88-20.74-243.68-21.53-121,0-183.49,10.5-183.49,10.5-48.31,5.33-96.2,13.23-143.88,22.58-8.21,1.62-14.49,4.81-15.54,14.07-.29,2.59-.77,4.52-4.31,4.41-18.34-.57-35.15,6.82-52.67,10.46-4.54.93-8.34,2.2-12.24-2.43-3.51-4.15-8.87-2.68-13.76-1.3-41.15,11.61-81.64,25.27-122,39.11-19.07,6.54-38,13.46-56.88,20.44-31.26,11.54-43.94,29.53-44.09,63.09-.22,50.46-.14,100.95-.24,151.43,0,3.64-.38,7.29-.6,10.93C321,541,321,540.94,307.36,541c-28.28,0-56.55.19-84.82.15a36.91,36.91,0,0,0-20.63,5.75c-6.28,4.06-8,14.9-8,14.9v89.67c.11,9.15.2,18.29.36,27.44.3,15.87,9.79,25.56,25.8,25.59,57.72.13,115.44.32,173.16-.16,11.22-.09,18.9,2.79,24.71,12.8,6.24,10.77,14,20.63,21.1,30.9,1.34,1.62,2.56,3.33,4,4.83,5.91,6.06,7.57,11.36-1.88,15.76-5,2.36-5,6.12-1.93,10.49,15.75,22.71,31.34,45.53,47,68.29,2.23,3.23,4.49,5.42,9,2.75,3.76-2.26,7.07-8.08,11.37-6.1,4.68,2.15,7.05,7.92,9.31,12.9,9.57,13.37,21.35,22.36,38.95,22.25,48-.3,96-.13,143.93-.08,3.64,0,10-1.56,10,5.22,1.61,17.51,19.78,9.92,19.78,9.92,40.09-12.8,81.09-21.57,122.75-27.32,19-3.27,38.2-4.24,57.38-5.67,14.21-1.05,14.47-1,14.64,13.35.07,6.12,1.7,8.73,8.34,8.31,8.21-.52,16.48.05,24.71.14,10.69-.11,21.42-.62,32.07-.18,6.69.29,8.25-2.3,8.25-8.45,0-14.37.22-14.24,14.7-13.15,25.88,1.92,51.78,3.58,77.24,9,34.8,4.87,68.73,13.58,102.37,23.48,3.21.94,6.39,2.07,9.68,2.74,7,1.37,12.84-2.47,12.3-9.48-.62-8,3.11-8,9-8,45.25.19,90.51-.51,135.74.39,21.15.42,35.81-7.46,47.66-24.67,32.24-46.78,65.32-93,98.13-139.35,2.08-2.92,3.53-6.5,7.09-8.17,2.3-2.5,5.33-2.65,8.4-2.65l131.4.34,44-.32c23.37-.16,31.54-8.19,31.5-31.43C1726,633.67,1725.6,597.24,1725.6,557.78ZM626.23,250.09c8.25-2.9,14.64-7,15.34-17,.2-3.1,4.5-2.66,7-3.18,42.8-8.76,86-15.39,129.33-20.5a1623.16,1623.16,0,0,1,167.39-11.52l28.29-.2a1644.78,1644.78,0,0,1,227.27,19.93c22.89,3.62,45.7,7.79,68.56,11.78,5.34.94,10.52,1.3,10.5,9.44,0,5,4.74,8.16,10.22,8.87,2.5.33,5.53,1.44,4.68,4.36-1.25,4.33-3.75.48-5.6,0-11.56-2.75-23-6.24-34.94-6.94-2.32-.13-5.59-1.05-6.25,2.06s2.26,3.65,4.78,4.2c10.41,2.25,20.81,4.62,31.23,6.89,3.12.68,6-.4,9.35-2.09.92,4.57-1.12,7.48-2,10.62-1.72,6.37-5.23,8.56-12.23,7.11q-46.62-9.7-93.84-16.11c-64.88-8.91-130-14.83-195.52-15.49l-58.21-.15a1580.68,1580.68,0,0,0-284.88,30.63c-14.6,2.94-17,1.45-19.36-10-.84-4,.28-4.33,3.88-4.53,12.21-.76,24-4.34,35.86-6.91,2.86-.63,5.87-1.51,4.86-5.07-.88-3.11-3.93-1.93-6.3-1.62-13.5,1.8-26.62,5.26-39.42,9C624.93,252.06,625.35,250.4,626.23,250.09ZM209,565.52c0-7.06,3.69-9.78,10.38-9.69,10.06.13,20.15,0,30.22,0v-.2c10.08,0,20.17.27,30.24-.11,5.29-.22,5.75,2,4.28,6-5.88,15.6-15.9,26.68-33.13,29.34-12.12,1.85-24.37,1.41-36.59,1.54-4.37.06-6-1.45-5.82-5.82C208.93,579.55,209,572.53,209,565.52Zm132.82,124.6c-20.45-.14-40.9,0-61.34,0v-.13c-19.53,0-39.06.07-58.59,0-10.49,0-12.71-2.33-13.2-12.88a77.41,77.41,0,0,0-.39-8.21c-.59-3.69.88-4.87,4.39-4.85,36,.15,72-.24,108,.55,12.22.26,20.3,8.58,25.59,19.46C348.91,689.3,346.69,690.16,341.84,690.12ZM503.68,835.71c-2.55,2.37-4.5,0-5.89-2q-21.66-30.54-43.21-61.14c-.9-1.27-1.8-2.61-1-4.13.33-.63,1.4-.87,1.91-1.14,3,.7,4.19,2.94,5.59,4.88q20.64,29,41.17,58C503.39,831.82,505.83,833.71,503.68,835.71Zm9.74-6.94c-2.68,1.12-3.73-1.14-4.92-2.85q-12.9-18.36-25.8-36.69c-5.45-7.73-11-15.39-16.47-23.11-1.38-1.93-3.61-4.2-.7-6.19,2-1.34,3.87.31,5.23,2.24q21.42,30.26,42.88,60.42a26.44,26.44,0,0,1,1.82,3.72C514.83,827.1,514.32,828.4,513.42,828.77Zm-16.94-44.63a14.14,14.14,0,0,1-6.1-9.88,23,23,0,0,0-6-13.08c-6.78-6.87-5.13-10.64,2.61-15.69C508.9,731.16,530.28,716,551.8,701a39.82,39.82,0,0,1,24-7.48c17.32,0,32.59,11.12,38.91,28.17,5.88,15.85,1.14,33.87-13.43,45C585.28,779,568.44,790,552,801.6c-7,4.9-14.13,9.6-21,14.67-3.76,2.8-5.78,3.88-9.07-1.35C514.83,803.62,508.17,791.81,496.48,784.14Zm420.27,62.57c-57,1.47-112.74,11.43-167.69,26.22a8.46,8.46,0,0,1-1.82,0c-1.23.2-2.46.42-3.69.64a6.17,6.17,0,0,1-5.55,1.73,65.11,65.11,0,0,0-7.7,2.6c-5.49,2.63-9.07,3.16-10.5-4.7-1.47-8-8.64-8.45-15.27-8.47q-54.06-.13-108.13-.18c-9.46,0-19-.85-28.38.29-20.84,2.58-35.39-5.31-44.37-24-4.3-3.21-6.59-6.06-.44-10.19,26.95-18.17,53.72-36.6,80.56-54.95,14.21-12,22.13-26.63,20.68-45.89-.64-8.48-4.55-15.48-7.92-22.85-24.19-25.72-45.85-27.92-75.63-7.73-10.78,7.33-21.6,14.56-32.4,21.84Q493.76,731.82,479,742.57c-2.84,2.06-5.71,4.08-8.26-.44-1.14-2-3-3.65-5.18-2.52-2.37,1.25-1.4,3.77-.5,5.64,1.18,2.45,3.43,5.07-.17,6.93-3.12,1.62-5.08-1-6.68-3.27-8.78-12.46-18-24.64-26.14-37.51-9.67-15.27-22-23.76-40.9-21.63-9.66,1.09-19.53.21-29.28.3-3.16,0-6.17.18-7.15-3.86-4.24-17.65-16.68-26.05-33.49-29.48-35.43,0-70.87,0-106.31.23-5.43,0-6.67-1.8-6.54-6.85.39-14.64.57-29.32.24-44-.11-5.49,2-6.41,6.8-6.41,11.59,0,23.22.66,34.77-1,20.69-3,36.56-16.84,41.49-37.31,1.24-5.27,3.65-6,8.21-5.77,9.39.39,18.94,1.23,27.68-3.63,6-5,7.26-11.65,7.26-18.94q-.16-78.9-.3-157.83c0-10.39-.51-20.9,2.94-30.86C342,331.27,350.8,322,364,317q88.74-33.31,179.5-60.55c3.7-1.11,6.23-1.88,7.83,2.79.59,1.73,2.88,3.88,4.59,4.08,12.07,1.3,11,11.48,12.73,19.14,1.62,7.07-4.35,9.24-9.84,10.86-23.11,6.76-46.32,13.2-69.32,20.28-29.13,8.94-58.25,18-87.09,27.77-30.22,10.29-43.94,30.15-44.09,62.17-.18,43.74-.17,87.5-.26,131.24,0,2.74-.22,5.49-.33,8.23,0,3.09,0,6.15,0,9.24,0,3.64,0,7.29,0,11,1,9.83-.11,20.12,6.18,28.8-5,15.82,10.38,22.44,15.35,33.73,1,2.23,2.72,4.58,6.09,4.82,9.86.66,10.65,7.49,9.86,15.21,4.7,12.1,13.3,21.62,20.89,31.81.9,1.22,2.22,2.3,3.87,1.62,2.59-1.06,1.35-3.18.7-4.63-1.8-4.08-3.91-8-5.89-12.05a10.6,10.6,0,0,1-1.2-1c.63-1,1.47-.76,2.3-.24,10.27,3.89,21,2.52,31.56,2.64,16.7.22,33.4.32,50.11.46,29.23,0,58.48-.64,87.69,0,19,.43,37.78,15.42,43.31,32.54,11.61,11.63,19.88,25.79,29.34,39,23.53,33,46.83,66.09,70.31,99.09,3.67,5.16,7,10.65,12.49,15.81-9.87,0-19.73-.16-29.58.11-2.88.08-8-2.37-8.1,2.81-.09,6.09,5.51,2.85,8.49,3.24,5.1.64,10.34.36,15.5.48,6.6-1.73,14.41,2.4,20.16-5,1-1.34,7.51.84,11.13,2.27,13.24,5.24,26.36,2.52,39.49-.12,2.41-.48,4.14-2,5.7-4.17,4.63-6.4,9.37-6.82,16-1.93.24.16.53.25.79.4,4.54,2.46,37.18-3.75,41-7.24,5.2-4.72,10.84-9.18,16.86-.69.56.75,2.21,1.06,3.31,1,13.78-.83,27.87.68,41.46-5.28C924.31,842.45,925.09,846.49,916.75,846.71Zm72.85-4.88q-.54,13.75,0,27.52c.18,4.79-1.2,6.11-6.08,6.23H939.64c-6.95.78-9.8-1.15-9.06-8.69s.35-15.26.11-22.89c-.4-12.82-6.19-18.75-18.89-17.83-20.68,1.48-41.31,3.85-62,5.84-28.27,3.84-56.43,8.3-84.43,13.85-11.61,2.28-20.91-1.32-27.63-11.32-4.23-6.26-8.71-12.38-13.08-18.55q-28.87-40.56-57.78-81.13c-12.36-17.39-24.78-34.75-37-52.3-4.22-6.1-9.7-10.89-14.86-16-13.24-8-27.7-10.11-43-10-47.11.42-94.23.07-141.33.4-8.5.08-14.7-2.49-19.42-9.47-14.07-20.73-28.29-41.36-42.4-62.06a21.34,21.34,0,0,1-3.45-12.18c0-15.58.17-31.18.26-46.75-.06-42.83-.81-85.67.07-128.47.52-24.89,14.46-41.5,38.06-49.45,50.8-17.16,102.13-32.67,153.64-47.53,16.13-4.66,18.9-8.1,17.14-24.27-.48-4.39,2-4.4,4.59-5,9.19-2.17,18.43-4.1,27.56-6.49,3-.79,7.53-1.69,6.28-6.22-1.3-4.78-4.9-1.53-7.48-.94-9.49,2.22-19.05,4.3-28.4,7-4.88,1.42-6-.48-6.28-4.67-.28-3.43-4.35-7.56,2.7-9.11q18.3-4,36.47-8.67c4-1.05,5.43-.13,6.17,3.84,1.28,6.87,3.1,13.65,4.63,20.48,2.55,11.32,8.21,15.84,19.58,13.93,31.87-5.36,63.62-11.54,95.67-15.89,65.18-8.86,130.58-14.64,196.39-15.74H989q83.91,2.08,167.17,12.3c40.6,5,80.87,11.67,121,19.16,13,2.41,19.63-2.16,22.46-14.93,1.32-5.95,2.79-11.87,3.93-17.86.81-4.26,1.82-6.37,7.2-4.83,11.41,3.25,23.08,5.64,34.69,8.1,5.12,1.1,4.76,3.82,4.06,8-.79,4.68-2.13,6.27-7,5-9.75-2.42-19.65-4.26-29.48-6.41-2.24-.49-4.87-2.53-6,1.18-1,3.42,1.06,4.94,4.19,5.66,9.79,2.22,19.49,4.79,29.32,6.7,4.4.85,5.32,2.72,4.83,6.85-1.73,14.22,1.17,18.47,14.93,22.4,52.08,14.91,104,30.29,155.27,47.89,25.06,8.62,39.07,27.21,39.15,53.48q.27,79.34,0,158.68c0,5.77.6,11.65-1.42,17.25.87,4.12-1.76,7-3.76,10-12.42,18.52-25,36.89-37.3,55.5-6.28,9.53-14.25,13.63-26,13.5-44.62-.5-89.26-.15-133.9,0-8.25,0-16.48.37-24.73.57-17.49,4.21-30.11,14.59-40.32,29.28-32.61,46.83-66.17,93-98.5,140-11.06,16.07-23.23,23-43.1,17.8-18.78-4.94-38.32-7-57.54-10.33-22.76-2.44-45.54-4.94-68.32-7.31a103.88,103.88,0,0,0-14.64-.7C995.56,826.62,990,832.15,989.6,841.83Zm561.81-151.58c-9.33-1-18.84-.09-28.27-.27-7.11-.13-13.9.82-20.32,4-10.39,8.62-16.42,20.61-24.06,31.32q-43.32,60.79-86.07,122c-8.85,12.68-20,18-35.69,17.75-46.46-.72-93-.24-139.43-.37-9.25,0-17.25.86-18.61,12.58-.65,5.61-4.85,2.26-7.08,1.58-30.05-9.29-60.67-16.22-91.59-21.9-31.58-5.78-63.36-9.92-95.51-10.61-1.84,0-3.68-.11-5.49-.3-3.16-.33-2.74-2.66-2.54-4.81.28-2.92,1.69-3.29,4.37-2.44,11.5,3.71,24.38,5.87,35.05,2.62,11.34-3.47,18.06-2.59,28.13,3.62,8.23,5.07,20.79,4.37,31.32,3.91,5.35-.23,10.34-6,16.88-3.14,1.31.55,3.75,0,3.84,1.69.59,10.64,9.68,8,15.21,8.86,10.46,1.65,21.13,2.26,31.62-1.91,3.95-1.58,9.41-5.62,13.26,1.6.66,1.24,4.52,1.08,6.89,1.1,8.88.09,17.75.16,26.6-.15,2.58-.07,7.24,1.89,7.24-2.81,0-5.38-5-3.12-7.84-3.21-7.94-.28-15.89.07-23.85,0-2.24,0-4.88,1.22-6.52-1.14,18.06-19.27,31.73-41.64,46.94-62.88,24-33.51,47.74-67.23,71.55-100.91,10.25-14.51,24-22,41.94-22q69.25.23,138.52.31c8.91-.71,18,.08,26.65-3.06l2.15-.26c-.29.55-.57,1.12-.86,1.67-2.41,4.19-4.91,8.3-7.17,12.57a3.74,3.74,0,0,0,.13,3.38c1.14,1.45,3.31.6,3.93-.3,7.92-11.42,20.39-20.11,21.2-35.86.28-5.34,3.09-11.13,8.25-11.81,6-.81,8.25-4.52,11.06-8.32,5-6.83,9.86-13.85,14.79-20.78a26.45,26.45,0,0,1,2.11-18.09c2.15-4.67,1.82-10.69,1.82-16.13.11-51.37,0-102.73.09-154.09,0-10.11.33-20.32-2.29-30.08-5.83-21.56-20.54-34.92-41.27-41.79Q1441.29,315.8,1363,293.7c-5.64-1.58-11.54-2.94-10.88-9.88s-1-15.87,8.69-19.16c1.73-.57,4-1.18,4.8-2.5,5.62-9.39,12.69-5.23,20.15-3q84,25.46,166.33,56.19c23.15,8.6,33,22.47,33.08,47,.11,53.5,0,107,0,160.5,0,2.14,0,4.28,0,6.42.39,20.92,6,26.5,26.88,26.45a17.08,17.08,0,0,0,3.65-.06c8.32-1.83,11.93,1.36,14.33,9.78,6,21.14,23.68,33.17,47.86,34.09q14.22.55,28.43.1c4.39-.13,5.66.95,5.55,5.58-.35,15-.22,30,0,44.93.07,4.54-.94,6.67-6,6.62-30.86-.33-61.74-.41-92.62-.57-14.51.22-28.7,1.27-39.11,13.45-2.57,3-5.55,5.89-6.41,9.82C1565.76,688.64,1560.47,691.19,1551.41,690.25Zm160.47-20.65a79.88,79.88,0,0,0-.4,9.17c-.19,7.42-3.8,11.24-11.41,11.19-21.42-.15-42.82-.22-64.22-.33-19.51.13-39,.18-58.51.4-4.95.06-6.07-1.89-3.83-6,6-11,14.32-19.14,27.6-19.66,10.32-.42,20.7,0,31,0,24.79-.11,49.55-.07,74.33-.44C1711.13,663.85,1712.47,665.23,1711.88,669.6Zm-23.44-77.26c-9.15-.1-18.37,0-27.11-3.44a41.06,41.06,0,0,1-18.52-14.47c-3.79-5.17-9-11.52-6.6-17.13,1.93-4.4,9.94-1.25,15.21-1.56,6.4-.36,12.85-.09,19.27-.09v.15c9.48,0,19,.05,28.44,0,8.18-.07,12.26,3.47,12.7,12C1713.11,592.54,1713.28,592.58,1688.44,592.34ZM928,226.83a19.58,19.58,0,0,0,3.66-.09l53.9-.57a20.49,20.49,0,0,0,4.55.46c3.88,0,9.48.81,9.41-4.41-.07-4.28-5.46-2.26-8.49-2.53-21.05-1.91-42.12-2.37-63.17.15-2.54.31-6.51-1-6.71,2.84C920.88,226.93,925.09,226.38,928,226.83Z"/><path class="cls-1" d="M1554.78,560.7q.13-79.34,0-158.68c-.08-26.27-14.09-44.86-39.15-53.48-51.25-17.6-103.19-33-155.27-47.89-13.76-3.93-16.66-8.18-14.93-22.4.49-4.13-.43-6-4.83-6.85-9.83-1.91-19.53-4.48-29.32-6.7-3.13-.72-5.22-2.24-4.19-5.66,1.1-3.71,3.73-1.67,6-1.18,9.83,2.15,19.73,4,29.48,6.41,4.91,1.24,6.25-.35,7-5,.7-4.21,1.06-6.93-4.06-8-11.61-2.46-23.28-4.85-34.69-8.1-5.38-1.54-6.39.57-7.2,4.83-1.14,6-2.61,11.91-3.93,17.86-2.83,12.77-9.5,17.34-22.46,14.93-40.18-7.49-80.45-14.12-121-19.16q-83.33-10.33-167.17-12.3H932.53c-65.81,1.1-131.21,6.88-196.39,15.74-32,4.35-63.8,10.53-95.67,15.89-11.37,1.91-17-2.61-19.58-13.93-1.53-6.83-3.35-13.61-4.63-20.48-.74-4-2.15-4.89-6.17-3.84q-18.14,4.74-36.47,8.67c-7,1.55-3,5.68-2.7,9.11.31,4.19,1.4,6.09,6.28,4.67,9.35-2.68,18.91-4.76,28.4-7,2.58-.59,6.18-3.84,7.48.94,1.25,4.53-3.25,5.43-6.28,6.22-9.13,2.39-18.37,4.32-27.56,6.49-2.57.61-5.07.62-4.59,5,1.76,16.17-1,19.61-17.14,24.27C506,315.91,454.67,331.42,403.87,348.58c-23.6,7.95-37.54,24.56-38.06,49.45-.88,42.8-.13,85.64-.07,128.47-.09,15.57-.22,31.17-.26,46.75a21.34,21.34,0,0,0,3.45,12.18c14.11,20.7,28.33,41.33,42.4,62.06,4.72,7,10.92,9.55,19.42,9.47,47.1-.33,94.22,0,141.33-.4,15.32-.13,29.78,1.93,43,10,5.16,5.14,10.64,9.93,14.86,16,12.18,17.55,24.6,34.91,37,52.3Q695.78,775.46,724.7,816c4.37,6.17,8.85,12.29,13.08,18.55,6.72,10,16,13.6,27.63,11.32,28-5.55,56.16-10,84.43-13.85,20.65-2,41.28-4.36,62-5.84,12.7-.92,18.49,5,18.89,17.83.24,7.63.62,15.33-.11,22.89s2.11,9.47,9.06,8.69h43.87c4.88-.12,6.26-1.44,6.08-6.23q-.52-13.76,0-27.52c.37-9.68,6-15.21,15.62-15.62a103.88,103.88,0,0,1,14.64.7c22.78,2.37,45.56,4.87,68.32,7.31,19.22,3.33,38.76,5.39,57.54,10.33,19.87,5.23,32-1.73,43.1-17.8,32.33-47,65.89-93.18,98.5-140,10.21-14.69,22.83-25.07,40.32-29.28,8.25-.2,16.48-.55,24.73-.57,44.64-.11,89.28-.46,133.9,0,11.78.13,19.75-4,26-13.5,12.26-18.61,24.88-37,37.3-55.5,2-3,4.63-5.86,3.76-10C1555.38,572.35,1554.78,566.47,1554.78,560.7ZM437.11,512.3c-19,6.17-38.56-.33-49.25-16.34-5.7-8.54-7-18.07-6.32-27.37-2.45-37.86,27.85-51.6,53.91-45.32.3.06.61.06.9.13,17.75,4.52,28.46,20.65,29,43.69S455.9,506.18,437.11,512.3ZM873.06,697.14c-26.67,6.93-51.58-11.72-52.54-39.37-.07-2.13,0-4.26-.07-6.39,3.62-17.4,12.82-30.13,30.62-34.87,23.94-6.37,43,5.16,52.5,31.21C905.17,674.12,894.37,691.59,873.06,697.14Zm195.83,0c-26.69,6.93-51.6-11.72-52.54-39.37-.07-2.13-.05-4.26-.09-6.39,3.64-17.4,12.84-30.13,30.64-34.87,23.94-6.37,43,5.16,52.51,31.21C1101,674.12,1090.2,691.59,1068.89,697.14ZM1510.3,512.3c-19,6.17-38.54-.33-49.23-16.34-5.72-8.54-7-18.07-6.34-27.37-2.44-37.86,27.85-51.6,53.92-45.32.31.06.62.06.92.13,17.72,4.52,28.45,20.65,29,43.69S1529.11,506.18,1510.3,512.3Z"/><path d="M436.35,423.4c-.29-.07-.6-.07-.9-.13-26.06-6.28-56.36,7.46-53.91,45.32-.65,9.3.62,18.83,6.32,27.37,10.69,16,30.25,22.51,49.25,16.34,18.79-6.12,28.86-22.2,28.29-45.21S454.1,427.92,436.35,423.4Zm15.55,69.46c-7.3,11.32-23.35,16.9-38.09,13.23-16.38-4.08-25-17.23-25.11-38.45-2.11-20.95,10.73-32.24,21.51-36.47a35.76,35.76,0,0,1,40.57,10.6C460.09,453,460.66,479.28,451.9,492.86Z"/><path d="M1509.57,423.4c-.3-.07-.61-.07-.92-.13-26.07-6.28-56.36,7.46-53.92,45.32-.64,9.3.62,18.83,6.34,27.37,10.69,16,30.24,22.51,49.23,16.34,18.81-6.12,28.86-22.2,28.29-45.21S1527.29,427.92,1509.57,423.4Zm15.54,69.46c-7.31,11.32-23.37,16.9-38.1,13.23-16.37-4.08-25-17.23-25.12-38.45-2.09-20.95,10.75-32.24,21.52-36.47a35.78,35.78,0,0,1,40.58,10.6C1533.28,453,1533.87,479.28,1525.11,492.86Z"/><path d="M1099.41,647.72c-9.48-26.05-28.57-37.58-52.51-31.21-17.8,4.74-27,17.47-30.64,34.87,0,2.13,0,4.26.09,6.39.94,27.65,25.85,46.3,52.54,39.37C1090.2,691.59,1101,674.12,1099.41,647.72ZM1079,684.06c-12.46,9.37-28.42,9.63-40.78.64-12.09-8.8-16.94-23.14-12.48-37a33,33,0,0,1,30.37-25.52c15.06-.9,28.84,8.71,33.91,23.66C1095.11,660.27,1090.84,675.11,1079,684.06Z"/><path d="M903.57,647.72c-9.47-26.05-28.56-37.58-52.5-31.21-17.8,4.74-27,17.47-30.62,34.87,0,2.13,0,4.26.07,6.39,1,27.65,25.87,46.3,52.54,39.37C894.37,691.59,905.17,674.12,903.57,647.72Zm-20.42,36.34c-12.48,9.37-28.42,9.63-40.8.64-12.09-8.8-16.94-23.14-12.48-37a33,33,0,0,1,30.39-25.52c15-.9,28.82,8.71,33.89,23.66C899.29,660.27,895,675.11,883.15,684.06Z"/><path d="M1318.07,737c-.11-14.1,7.14-24.7,20.15-29.5a32.17,32.17,0,0,1,35.52,9.84c3.74,4.6,4.46,8.83.75,14-7.15,9.86-14.14,19.87-20.72,30.11-4.16,6.46-9.27,6.93-15.7,4.47A30.74,30.74,0,0,1,1318.07,737Zm7.11.06c.12,8.7,7.39,18.91,15.4,22.06,3.52,1.39,5.55.36,7.57-2.67,6-9.12,12.21-18.17,18.63-27,2.79-3.86,1.68-6.46-1.22-9.45-6.26-6.47-17.75-9-26.19-5.49S1325.05,727.25,1325.18,737.08Z"/><path d="M1467.07,726.84c-3.78.06-4.71-2.35-3.35-4.76,6.1-10.87,12.89-21.3,22-30a4.73,4.73,0,0,1,4.15-.63c1.55.62,1.64,2.77,1,4a160.08,160.08,0,0,1-21.43,30.36C1468.83,726.46,1467.74,726.57,1467.07,726.84Z"/><path d="M1398.72,822.3c-3.25-.86-3-3-1.86-5a152.2,152.2,0,0,1,19.8-28.5c1.29-1.45,3.22-2.37,4.93-1.32s1.53,3.43.62,5c-6.08,10.28-13.59,19.52-21.27,28.62A7.63,7.63,0,0,1,1398.72,822.3Z"/><path d="M1359.06,857.47c-2.71-1.11-7.13,1.83-7.71-2.64-.61-4.71,4-3.53,6.66-3.89,8.91-1.2,15.89-5.72,21.9-12.1,2.17-2.31,4.49-6.43,7.93-2.86,3.12,3.23-.5,6.13-2.71,8.46C1378,852,1369.55,856.9,1359.06,857.47Z"/><path d="M1431.21,777c-1-11.35,14.67-34.32,26.37-38.44C1450.56,753.52,1441.84,764.79,1431.21,777Z"/><path d="M1314.5,851.08c5.79,0,11.59,0,17.38,0,2.19,0,3.65,1.1,3.78,3.13.15,2.44-1.83,2.8-3.77,2.81-11.89.07-23.78.16-35.67.17-1.92,0-3.66-.51-3.66-3s1.72-3.06,3.64-3.09c6.1-.08,12.2,0,18.3,0Z"/><path d="M1255.74,850.83h17.42c2.54,0,4.18,1.31,4.1,3.82s-2.41,2.36-4.14,2.37c-11.31.11-22.61.12-33.92.19-2.33,0-4.57-.43-4.58-3.19s2.34-3.11,4.62-3.1c5.5,0,11,0,16.5,0Z"/><path d="M1035.45,219.54c6.33.56,12.68,1,19,1.72,2.61.28,5,1.56,4.31,4.64-.52,2.45-3,3-5.15,2.67-10.56-1.59-21.19-1-31.79-1.43-2.75-.12-6-.84-5.81-4.33.18-3.28,3.41-2.79,5.76-2.83,4.55-.07,9.1,0,13.65,0Z"/><path d="M752.94,238.65c-3.4-.46-7.07,1.84-7.85-2-.82-4,3.12-4.9,6-5.34,10.17-1.57,20.4-2.89,30.63-4,2-.22,5.34-1.38,5.72,2.4.33,3.27-2.72,4-4.87,4.38C772.4,235.84,762.2,237.26,752.94,238.65Z"/><path d="M1199.44,234c9.78,2.11,19.62,4.17,29.43,6.36,2.51.56,5,2,4.38,4.89-.72,3.38-3.89,2.42-6.12,2-9.6-1.72-19.19-3.5-28.71-5.62-2.82-.64-8,.24-7.07-4.84C1192.14,232.56,1196.63,235.61,1199.44,234Z"/><path d="M721.23,234.39c2.66.7,7-1.55,7.53,2.76s-4.1,3.82-6.63,4.39c-9.73,2.18-19.55,4-29.38,5.69-2,.35-5.21,1.79-6-1.84-.6-2.93,1.66-4.41,4.15-5.06C700.91,237.75,710.88,235.16,721.23,234.39Z"/><path d="M866.13,228.61c-3,.41-4.86.38-5.15-2.11-.21-1.8-.16-3.94,2-4.49,12.6-3.16,25.42-2.09,38.19-1.68.81,0,2.09,1.45,2.24,2.37a3.39,3.39,0,0,1-2.85,4,88.12,88.12,0,0,1-10.91.6C881.48,227.43,873.24,227.19,866.13,228.61Z"/><path d="M1167.46,238.79c-9.56-1.48-20.07-3-30.52-4.82-2.09-.37-5.31-1-4.42-4.49.69-2.68,3.32-2.48,5.34-2.23,10.55,1.3,21.09,2.68,31.6,4.26,2.55.39,6.07.86,5.57,4.63C1174.47,240.3,1170.89,238.38,1167.46,238.79Z"/><path d="M1090.75,223.42c8.31.43,15-.09,21.6,1.56,2.5.63,5.09,1.2,4.55,4.4-.45,2.69-3,2.63-5.14,2.46q-16.32-1.34-32.64-2.8c-2.2-.2-4.66-1.12-4.52-3.55.18-3.19,3.21-1.92,5-2C1083.89,223.28,1088.15,223.42,1090.75,223.42Z"/><path d="M845.83,223.66c-.79,4.65-3.4,5.26-6.19,5.48-10.31.83-20.62,1.65-30.94,2.38-2.28.16-5.39,1-5.8-2.5-.38-3.29,2.55-3.56,5-4C820.39,222.54,832.93,223.68,845.83,223.66Z"/><path d="M1535,325.75c10.65,4.83,23,7.62,30.46,18.31,1.24,1.76,3.32,4.31,1,6.58-2.78,2.7-4.54-.47-5.87-2-6.81-7.84-15.4-12.61-25.18-15.65-2.31-.72-4.66-2.05-4.18-5.16C1531.47,326.05,1532.91,325.53,1535,325.75Z"/><path d="M1575.37,540.31c1.9,11.45,2.66,22.55.18,33.69-1.39,6.24-3.83,9.33-10.66,6.86C1572.16,568.38,1568.35,553,1575.37,540.31Z"/><path d="M1516.2,322c-.7,3.48-3.19,3.14-5.12,2.7a180.46,180.46,0,0,1-32.81-11.07c-1.54-.68-2.47-1.79-2.23-3.51a2.17,2.17,0,0,1,2.67-1.87c12.2,2.63,24.25,5.78,35.59,11.12C1515.23,319.82,1515.68,321.26,1516.2,322Z"/><path d="M1426.88,289.36c10.49,3.83,21.58,7.84,32.6,12a3.57,3.57,0,0,1,1.77,2.77c-.09,2-2,2.26-3.42,2-12.47-2.42-24.42-6.67-36.39-10.83a2.49,2.49,0,0,1-1.61-3.63C1421.2,289.07,1423.76,289.24,1426.88,289.36Z"/><path d="M1370.1,273.31c9.15,2.74,20.49,6.09,31.8,9.57,1.79.55,3.3,1.87,2.69,4.1-.67,2.44-2.52,2.06-4.39,1.57-11.15-2.88-22.31-5.68-33.44-8.63-2.07-.56-4.46-1.9-4.19-4.22C1362.88,273.09,1365.57,273.19,1370.1,273.31Z"/><path d="M1577.12,445.87c0,5.76.07,11.53,0,17.29,0,2,.46,4.7-2.9,4.45-2.3-.18-2.75-2.17-2.77-4q-.15-18.19-.13-36.4c0-1.89.57-3.64,3.13-3.42s2.68,2.07,2.69,3.89C1577.16,433.73,1577.12,439.8,1577.12,445.87Z"/><path d="M1577.13,387.62c0,5.78.07,11.56,0,17.34,0,1.34.44,3.31-1.57,3.7a3.12,3.12,0,0,1-3.75-3c-.46-5.44-.65-10.91-.72-16.37-.07-6.39,0-12.78.22-19.16,0-1.95-.57-4.84,2.42-5,3.48-.21,3.37,2.84,3.41,5.21C1577.19,376.06,1577.13,381.84,1577.13,387.62Z"/><path d="M1577.2,505.39c0,5.49.08,11-.06,16.48,0,1.59.94,4-1.71,4.42s-3.93-1.67-3.94-3.95q-.1-18.32.13-36.61a3,3,0,0,1,3.66-3.09c2.22.25,1.76,2.17,1.78,3.51.1,6.41,0,12.82,0,19.24Z"/><path d="M530.55,840.44c1-7.25,4.77-6.8,9.43-3.25,1.9,1.45,3.55,3.22,5.32,4.85,4.48,6.28,11.43,7.33,18.27,8.65,2.47.47,5.31,1.32,5.1,4.19-.25,3.52-3.76,2.44-5.81,2.41C549.34,857.06,538,852.49,530.55,840.44Z"/><path d="M664.18,851c5.48,0,11,0,16.45,0,2.31,0,4.26,0,4.31,3.16,0,3.38-2.38,3-4.41,3q-16.46.24-32.91.34c-2.25,0-4.44-.33-4.28-3.36.14-2.7,2-3.52,4.39-3.51h16.45Z"/><path d="M605.8,857.2c-5.8,0-11.6.09-17.39-.05-1.94,0-4.69.4-4.43-3,.17-2.27,2-3,3.86-3,11.89-.18,23.79-.25,35.68-.37,2.33,0,3.31,1.55,3.4,3.44.11,2.4-1.73,2.84-3.74,2.83-5.79,0-11.59,0-17.38,0Z"/><path d="M349.16,544.86l.2,3.74,1.46,14.63c-.61,5.37,2,10.08,3,15.12.29,1.44.78,3.2-1,4-1.62.68-2.95-.37-4-1.54-4.44-5-4.55-11.77-6.73-17.69,0-5.73-.13-11.47,0-17.19,0-1.73-1.69-4.26,2-4.83C347.31,540.56,348.38,542.38,349.16,544.86Z"/><path d="M389.11,328.8c-.52,2.92-3.15,3.84-5.25,4.53-9.4,3.11-17.9,7.38-24.23,15.34-1.4,1.76-3.65,4.19-6.1,2.3s-.73-4.52.68-6.46c7.8-10.75,19.62-14.83,31.55-18.54C388.14,325.23,389.35,326.73,389.11,328.8Z"/><path d="M495.22,289.3c2.47.44,5.17-.68,5.63,2.4.32,2.16-1.4,3.19-3.22,3.77-11.21,3.58-22.41,7.19-33.67,10.59-1.48.44-3.81.93-4.64-1.33-.67-1.81.92-2.83,2.23-3.44C472.56,296.2,484.11,292.67,495.22,289.3Z"/><path d="M520.11,288.16c-1.73,0-3.51.43-4.16-1.38-.81-2.28.88-3.5,2.63-4,11.31-3.53,22.67-6.92,34-10.38,2.07-.63,3.78-.27,4.27,1.95s-.35,4.61-2.62,5.22C542.82,282.57,531.33,285.35,520.11,288.16Z"/><path d="M409.87,324.78c-2.6,0-4.73.45-5.51-1.73-.93-2.6,1-4.31,2.94-4.94,10.67-3.46,21.41-6.69,32.17-9.85,1.62-.48,3.82-.78,4.4,1.72.41,1.76-.88,2.74-2.28,3.49C431.34,319,419.91,321,409.87,324.78Z"/><path d="M348.86,446.06c0,5.82,0,11.63,0,17.44,0,1.81-.1,3.87-2.59,4.07s-3.2-1.69-3.21-3.56c-.08-12.53,0-25.06,0-37.59,0-1.72.76-2.95,2.79-2.64,2.25.33,3,2,3,3.93C348.89,433.83,348.85,440,348.86,446.06Z"/><path d="M348.89,504.92c0,5.16,0,10.32,0,15.47,0,2.65-.76,5.55-3.36,5.56-3.2,0-2.86-3.53-2.87-5.72,0-11.23.15-22.45.37-33.67,0-1.65-.07-4.07,2.6-3.81,2.06.2,3,2.07,3.08,4,.12,6.07,0,12.14,0,18.21Z"/><path d="M348.81,386.44c0,5.81,0,11.62,0,17.42,0,1.92-.45,4-2.71,4.09S343,406.14,343,404.2c0-12.22.11-24.44.2-36.66,0-1.74.7-3,2.71-2.57s2.93,2.11,3,4c.07,5.81,0,11.61,0,17.42Z"/><path d="M431.46,690.92a8.55,8.55,0,0,1,6.29,3.81c5.79,8.22,11.7,16.36,17.3,24.71,1.37,2,3.77,5,.45,7.13-2.22,1.44-4.84.2-6.4-2-6.57-9.13-13.17-18.24-19.44-27.57C428.26,695,427.25,691.66,431.46,690.92Z"/><path d="M602.33,737.11a30.85,30.85,0,0,1-21.18,29.15c-5.9,1.88-11,1.82-15-4.6-6.21-10.12-13.12-19.82-19.91-29.57-4.43-6.37-3.66-11.62,2-16.92,10-9.33,22.94-12.29,34.53-7.33C595.42,713.25,602.4,723.71,602.33,737.11ZM570.92,713a22.63,22.63,0,0,0-12.11,3.43c-8.46,5.06-8.91,7.39-3.28,15.49s11.09,16,16.4,24.09c2.18,3.36,4.38,4.44,8.28,2.76,9.91-4.27,16.35-16.12,14.33-27S582.26,712.87,570.92,713Z"/><rect class="cls-1" x="1919" y="1079" width="1" height="1"/><rect class="cls-1" width="1" height="1"/><rect class="cls-1" y="1079" width="1" height="1"/><rect class="cls-1" x="1919" width="1" height="1"/></g><g id="Capa_3" data-name="Capa 3"><path d="M800.83,403.57v111H781V443.86L761.5,458.77,745.32,471.3l-16.18-12.53-19.51-14.91V514.6H689.8v-111l19.83,15.22,35.69,27.45L781,418.79Z"/><path d="M854.76,440.53V516H834.93V438.46A15.8,15.8,0,0,0,821.45,425H817V405.31h4.29v.16a35.55,35.55,0,0,1,13.48,3.65,35.17,35.17,0,0,1,16,16.18,42.55,42.55,0,0,1,2.7,7.45,33.53,33.53,0,0,1,1,8.09Z"/><path d="M981.17,403.57v111H961.34V468.92H902.81a31.42,31.42,0,0,1-14.91-3.65,32.41,32.41,0,0,1-17.76-29V403.57H890v32.67a13.06,13.06,0,0,0,13,13H961.5V403.57Z"/><path d="M1107.74,495.09v19.83H997V482.24a31.7,31.7,0,0,1,2.7-12.85,32.56,32.56,0,0,1,28.87-20h48.06a13,13,0,0,0-1.11-25.86h-78.2V403.73h78.2a32.62,32.62,0,0,1,32.67,32.67,32.33,32.33,0,0,1-9.35,22.68,33,33,0,0,1-22.37,10h-47.9A12.89,12.89,0,0,0,1017,481.92v12.85Z"/><path d="M1194.18,403.57A35.81,35.81,0,0,1,1230,439.42v39.17a35.81,35.81,0,0,1-35.84,35.85h-34.26a35.81,35.81,0,0,1-35.85-35.85V439.42a35.81,35.81,0,0,1,35.85-35.85Zm-34.26,19.82a16.25,16.25,0,0,0-16.18,16.18v39.18a16.25,16.25,0,0,0,16.18,16.18h34.26a16.25,16.25,0,0,0,16.18-16.18V439.57a16.25,16.25,0,0,0-16.18-16.18Z"/></g></g></svg>