<svg xmlns="http://www.w3.org/2000/svg" viewBox="0 0 1920 1080"><defs><style>.cls-1{fill:#f2f2f2;}</style></defs><g id="Capa_2" data-name="Capa 2"><g id="Capa_1-2" data-name="Capa 1"><rect class="cls-1" x="1919" y="1079" width="1" height="1"/><rect class="cls-1" width="1" height="1"/><rect class="cls-1" y="1079" width="1" height="1"/><rect class="cls-1" x="1919" width="1" height="1"/><path d="M986.76,232q-26.7-.07-53.41.06c-1.76,0-4.39-.71-4.66,2-.31,3,2.21,3.25,4.47,3.26l54.19-.16c1.77,0,4.25-.33,4-3.09S988.45,232,986.76,232Zm0,0q-26.7-.07-53.41.06c-1.76,0-4.39-.71-4.66,2-.31,3,2.21,3.25,4.47,3.26l54.19-.16c1.77,0,4.25-.33,4-3.09S988.45,232,986.76,232Zm741.36,276.4a25.74,25.74,0,0,0-17.86-6.37c-25.52.14-51,.1-76.54,0-16.77,0-20-3.45-20-20.39,0-21.17,1.11-42.37-.74-63.49-5.08-58.1-34.61-99.21-88.54-120.86-34.69-13.91-71-23.55-107.05-33.74-4.32-1.21-7.24-2.64-5.2-7.64s-.38-6.76-5-7.73q-49.34-10.42-98.58-21.19c-4.71-1-7,.19-7.27,4.81-.29,5.67-2.8,6.1-8,5.13-54.16-10-108.71-17.44-163.46-23.12-61.75-6.38-123.63-10.3-185.85-9.48-84.17,0-187.72,13.4-187.72,13.4q-60.32,7-120.16,17.4c-2.18.37-5.67,1.18-7.8,1.75-5.82,1.53-10.36,1.12-10.63-7.5-.11-3.53-3-3.08-5.44-2.55Q562,237.67,511.73,248.51c-4,.86-6,2.53-4.12,7,2.22,5.21-.65,6.93-5.36,8.25-35.83,10.08-71.71,20.25-106.48,33.41-55.21,20.9-88.91,71.3-88.95,130.12,0,18.76,0,37.53-.12,56.28-.07,13.63-4.48,18.27-18.18,18.38q-35.37.27-70.75,0c-10.87-.08-21.57-.21-29.23,9.82-5.39,5.18-5.84,23.61-5.84,23.61l.3,87.15c0,10.33-.16,20.67.12,31,.37,14.15,9.58,23.21,23.68,23.54,9.83.25,19.67.26,29.51.36,10-1.09,19.28-.28,25.26,9.48,1.35,2.2,3.83,1.67,5.93,1.68,7.21.07,14.43-.17,21.63.13,11.92.48,17.9,6.78,18,18.68.09,18-.06,36.06.1,54.08.16,17.64,5.12,24.22,21.55,29.33,16.28,0,32.56.13,48.84-.13,4.39-.07,5.87,1.06,5.65,5.58-.37,7.4.29,14.86-.2,22.26-.39,6.12,2,7.71,7.77,7.57,10.51-.28,21,.13,31.56.26,12.73-.13,25.49-.51,38.23-.26,5.79.1,8.2-1.5,7.89-7.65-.45-8.55-.12-17.13-.12-27l135.16,78.19,8.1,4.08a18.92,18.92,0,0,0,8.5,2h91.69c17.85.48,34.85-2,50.35-11.85,9.2-5.85,20.18-5.66,30.6-7.12,20.91-2.92,41.84-5.73,62.89-7.37,14.06-1.16,28.14-2.27,42.2-3.49,3-.26,5.46,0,4.84,3.93-1,6.06,2.54,6.49,7.24,6.42l101.48-.2c2.46,0,6.51.73,5.63-3.27-1.91-8.58,3.65-6.92,8.22-6.69,34.09,1.72,67.92,6,101.72,10.46,11.24,1.49,22.89,1.78,33,8.33a63.39,63.39,0,0,0,34.2,10.3c32.71.17,65.39.38,98.09.43a52.1,52.1,0,0,0,29.09-8.81c8.49-5.52,17.29-10.49,26.07-15.49,28.35-16.16,55.8-33.89,84.7-49.11q16.92-14.81,39.1-11.15c15.85-.13,31.71-.32,47.56-.36,22.35-.06,44.71.3,67-.1,18-.34,26.81-9.76,26.86-27.53.06-18.66-.07-37.3.09-55.94a18.45,18.45,0,0,1,17.08-18.34,166.33,166.33,0,0,1,17.3-.16c6,.22,11.31-.08,14.84-6.14,1.67-2.86,5.17-3.79,8.52-4.1,3.66-1.56,7.55-1.23,11.38-1.26,10.08-.1,20.17.09,30.26-.13,15.57-.33,24.46-9.29,24.78-24.78l.39-126.11C1737.3,516.79,1728.12,508.35,1728.12,508.35Zm-320.67-232c.62-3.16,1.62-3.82,4.83-2.83,35.46,11.09,71.27,21.09,106.31,33.48,27,9.56,47.59,27.49,63.44,51.07.72,1.06,2.06,2.08,1.21,4.6-10.55-4.78-22.37-6.42-30.79-15.74-1.78-2-5.86-11.47-9.11-.17-.47,1.66-2.45.24-3.74-.22-29.74-10.81-59.77-20.68-90.24-29.2-7.11-2-4.69-7.36-3.4-11,1.55-4.34.32-5.51-3.38-6.52-7.15-2-14.26-4.15-21.39-6.27-2.35-.71-5.17-1.7-6,1.52-1.07,4.06,4.26,3.65,5.82,4.91a17.51,17.51,0,0,0,11.1,3.73c8.89,0,7.94,4.45,7.27,8.15-.81,4.45-3.9,1.27-5.62.85-8.84-2.17-17.54-5-26.42-7-4.72-1.07-6.53-2.54-4.95-7.7C1404.55,291,1406,283.64,1407.45,276.37ZM627.35,248c31.59-4.71,63.1-9.88,94.72-14.35Q796.7,223.11,872,218.33c26.88-1.69,53.83-2.2,80.75-3.39l15.78.13c51,1.28,101.84,4.18,152.59,9.41,56.89,5.87,113.45,14,169.85,23.3,4.94.82,6.53,2.08,5.51,7.14-1.94,9.49-1.71,9.49-11.65,9.06-1.76-.09-3.74-.81-5.65,1,1.72,3.58,5.42,4,8.35,4.32,3.69.45,5.16,1.46,4.49,5.29s-3.06,4.25-6.3,3.69c-12.77-2.22-25.54-4.53-38.36-6.44-41.11-6.15-82.31-11.51-123.73-15.4-45-4.2-90.13-7.2-135.36-8.22l-56.44,0c-29.37.36-58.66,2-87.93,4.12-50.84,3.68-101.51,9-151.91,16.74q-28.83,4.43-57.63,9.14c-3.21.52-5.52.68-6.31-3.41-.75-3.89.75-4.79,4.27-5.58,2.91-.65,7,.1,8.75-4.71a13.89,13.89,0,0,0-9.6-.22c-4.61,1.52-6.14-.19-6.56-4.48a33.4,33.4,0,0,0-1.55-6.29C622.19,249.92,623.6,248.54,627.35,248Zm661.72,36.49c-4.88,12.62-14.19,18.32-26.14,16.4a2194,2194,0,0,0-282.05-26.53c-17.73-.55-58.93.1-58.93.1a2083.57,2083.57,0,0,0-237.64,22.42q-13.53,2.07-27.07,4.07c-10.23,1.52-19.71-3-24.5-11.56-1.68-3-2.2-4.7,2.57-5.52q53.28-9,106.9-15.72c46.07-5.7,92.3-9.57,138.63-12.4,16.81-1,33.65-1.2,50.49-1.82l57,.08c24.77,1.06,49.55,1.67,74.26,3.29q39.93,2.59,79.74,6.8c28.17,3,56.26,6.76,84.32,10.64C1247.38,277.59,1267.94,281.14,1289.07,284.48ZM381.86,316.1c18.74-10.8,39.65-15.72,60-22.18,21.49-6.82,43.12-13.22,64.61-20.06,4.68-1.49,5.93-.65,6.61,6.26A59.84,59.84,0,0,0,516.91,296c2.3,5.84,1.25,8.18-3.59,9.37-8.85,2.16-17.58,4.82-26.39,7.09-1.72.43-4.54,2.69-5.22-.84s-2.76-8.86,8.64-8.19a11,11,0,0,0,8.3-3.57c1.44-1.4,7.31-.4,5.69-5.19-1.2-3.52-4-1.41-6.08-.81q-10.72,3-21.42,6.16c-3.26.95-6,1.4-2.5,6,4.05,5.27,2.33,9.14-4.16,11.11-30.29,9.19-60.47,18.67-90.23,29.46-1.2.44-3,2-3.54-.16-2.53-9.88-6.79-2.13-8.38-.24-8.31,9.91-20.51,11.44-31.49,15.84A120.41,120.41,0,0,1,381.86,316.1Zm80.47,502.22c.12,1.75-.95,1.72-2.19,1.47l-34.64-.09c-10.78.13-21.56.13-32.33.45-3.74.12-4.32-1.53-4.26-4.74.17-12.21.29-24.43.1-36.64-.06-3.86,1.23-5,4.91-4.89,9.57.28,19.15.26,28.73.35,12-.12,24-.18,36-.41,3.11-.07,4.28,1,4.21,4.14C462.62,791.41,462.51,804.86,462.33,818.32Zm.22-61.24c.36,2.94-2,3.3-4.44,3.2q-6.83-.3-13.68-.37c-2,0-4.94-.8-5.06,2.37-.11,3,2.83,2.6,4.86,3,5-.07,9.93-.2,14.9-.19,1.25,0,3.18-.48,3.31,1.56.17,2.41-1.81,2.46-3.47,2.36-4.92-.34-9.89.63-14.73-.77l-20.19-.46c-10.44,2-21,.5-31.45.87-2.91.1-3.79-2-3.52-4.3,1.62-13.36-3.59-24.78-9.66-36.09a22.87,22.87,0,0,1-3-13.83c-2.08-20.18,8.43-39.08,26.91-48.43,18.32-9.29,39.81-6.1,55.45,8.23,15.45,14.13,20.59,35,13.05,53.82C468.06,737.49,461.19,745.9,462.55,757.08Zm9.54-2.27c-1,.85-1.62,2.57-3.32,1.76-1.26-.59-1.13-2-.94-3.14.95-6,2.61-11.7,8.43-17.87C475.79,743.62,477.78,750,472.09,754.81Zm3.55-71.12c-2.66.38-2.9-2.05-3.84-3.48-16.19-24.81-48.24-32.47-74.19-17.67-25,14.26-34.75,46.65-21.88,72.63,3.33,6.7,8,13,7.37,22.51-10.78-9.45-17-20.27-19.69-32.83C357.05,695.63,369.2,669,395.23,654c22.61-13,53.22-9,74.23,9.83C476,669.69,477.1,673.1,475.64,683.69ZM883,818.26c4.57-.1,9.16.33,13.67-.17,5.36-.63,6.77,1.57,6,6.41a34,34,0,0,0-.1,6.46c.12,2.66-.73,3.69-3.64,3.82-14.36.59-28.7,1.48-43.05,2.26-3.87.44-7.73.89-11.6,1.32l-2.86.22c-17.75,2.38-35.46,5.1-53.27,7-13.23,1.46-25.92,4-37.43,11.18-4.37,2.76-9.24,5-14.72,5.05-6.65,2.64-13.7,2-20.56,2.08-28.12.27-56.26.08-84.4.23-10.14.06-19-2.78-27.89-8-40.82-24-81.95-47.53-123-71.21-1.28-.74-3.33-1.89-4.67-2.52-9-4.21-10.46-12.18-3.27-19.55,13.93-14.25,22.52-30.57,22.91-51.12.7-35.94-25-65.93-61.49-70.72-34.77-4.59-68.67,19.52-76.14,54-1.39,6.4-1.58,12.85-1.89,19.32,1.31,11.42,3.45,22.59,11,33.08-5.07-.09-6.72-3.35-9.12-5.3-1.3-1.06-2.67-2.72-4.33-1.36-2.07,1.69-.54,3.64.7,5A61.06,61.06,0,0,0,374.36,760c7.41,3.27,9.88,8.33,8.67,15.9-.29,1.78-.56,3.44-2.82,3.34-18.39-.74-36.89,1.73-55.21-1.56-.38-.07-.67-.64-1-1-4.94-3.28-5.35-8.38-5.36-13.57-.06-18.53-.05-37-.1-55.56-.08-18.33-10.21-29.05-28.52-30.19a71.33,71.33,0,0,0-8.65-.07c-7.08.42-13.19-.36-19-5.85-7.51-7.07-18.06-5.21-27.53-6.1-9.11.08-18.23.4-27.35.18-9.5-.24-12.94-3.82-13-13.39q-.15-46.5,0-93c0-7.67.17-15.35.26-23-.07-1.9-.23-3.82-.23-5.75,0-11.67,4.9-16.77,16.46-16.8,25-.09,50-.05,75-.09a59.3,59.3,0,0,0,7.17-.39c17.34-2.11,24.61-10.49,24.81-28.53.24-22.36.16-44.73.61-67.1.28-14.35,4.58-27.85,9.75-41.14,2.77-7.13,9.42-7.58,15-9.83,3.61-1.46,7.54-6.1,11.29.72,1.18,2.15,3.81-.07,4.82-2.22,2.33-5,6.71-7.17,11.59-9q49.32-18.06,99.62-33c5.15-1.55,5.73.13,5.44,4.42-.16,2.47-.72,6.35,2.9,6.1,3.14-.22,2.92-4.09,2.57-6.56-.76-5.59,1.15-8,6.94-9.12,9.13-1.79,18-4.81,27-7.38,4.1-1.17,5.79,0,5.29,4.45-1.22,10.71-7.1,17.54-17.07,21.1-11.07,4-22.08,7.87-32.25,14.06a119.25,119.25,0,0,0-46.58,151.14C430,512.56,435,524,440.11,535.33,453,563.1,465.86,590.94,479,618.62c2.28,4.8-3.95,5.55-3.28,9.19.11,7.94.2,15.87.36,23.8,0,2.16.05,4.9,2.92,4.89s2.06-3,2.11-4.54c.21-7.87.1-15.75.1-23.81,3.58.53,3.83,3.32,4.74,5.3,19.92,43.6,39.68,87.3,59.72,130.85,11.45,24.88,31.19,39.31,58.44,40.36,28.8,1.11,57.86,3,86.49-1,25.86-3.65,51.43-9.53,77.34-13.26,3.31-.49,6.66-.73,10-1.08,19.46-4,39.24-5.9,58.93-8.41,13-1.66,26-4.19,39.27-4.12,16.91-.07,30.44,16.74,26.49,32.67-.75,3.1-2.7,2.78-4.85,2.81-5,0-10.08.08-15.11.2-1.83,0-4-.32-4.06,2.66C878.58,818.29,880.67,818.3,883,818.26Zm-401.61-78.8V681.89C492.28,693.09,492.12,728,481.38,739.46Zm529.93,66.21c-.17,2.83.31,6-3.46,7,7,10.94,2.45,23.11,3.72,34.65.37,3.15-1.9,3.37-4.2,3.37-31.47,0-62.93-.07-94.41,0-3.74,0-5.05-1.33-4.9-5.09.35-7.67-1.17-15.8.89-22.93s-.24-13.2-.58-19.72c-1-18.67-10.74-29.34-29.34-32.52-30.83,2-61.3,7-91.87,11.11-2.11.27-4.25.37-6.39.56-32.38,5.65-64.6,13-97.21,16.45-27.37,2.92-55.29,2.31-82.85-.07-21.72-1.88-38.23-14-47.47-33.3-21.5-45-41.76-90.6-62.52-136-7.33-11.6-10.83-24.13-9.18-38a30.91,30.91,0,0,0-.22-7.5c-.27-2.25,1.53-6.3-2.51-6.17-3.51.1-2.72,3.87-2.78,6.4-.08,3.19,0,6.4,0,9.61l-1.78.39-26.1-56.92c-6.66-14.6-13.75-29-19.92-43.81-20-48.13-1.61-107.08,42-135.48,1.53-1,2.86-2.6,5.73-2.43,0,5.38-.11,10.78.05,16.17.08,2.92-1,7.56,3,7.65,3.41.07,2.37-4.5,2.47-7.1a97.91,97.91,0,0,0-.26-15.13c-.53-4.46,1-6.63,5.09-8,5.66-1.92,11.14-4.42,16.76-6.47,20.23-7.36,27.08-19,21.5-39.54-2.09-7.67-1.09-10.76,6.88-11.62,4.73-.52,9.38-2,14-3.32,2.19-.64,5.28-1.42,4.5-4.57-.86-3.42-3.71-1.18-5.43-.82-6.1,1.27-12.14,2.82-18.12,4.54-4.7,1.33-6.36-.39-6.84-7.33a58.32,58.32,0,0,0-4.36-18c-2.72-6.67-1.11-8.13,3.53-9.09C546.16,246.88,573.59,241,601,235.1c11.39-2.44,11.39-2.45,14.09,8.92,1.37,5.84,2.57,11.7,4.13,17.48.93,3.52.67,5.57-3.7,5.38a19.36,19.36,0,0,0-5.63.94,2.67,2.67,0,0,0-2.21,3.19,2,2,0,0,0,2.71,1.62c11.62-3.24,12.43,4.64,14.56,12.85,4.11,15.82,17.55,23.55,33.59,21,47.95-7.53,96-13.85,144.39-18.28,42.42-3.9,84.87-6.69,127.46-7.75l58.13.13c20.91.91,41.87,1.19,62.75,2.42,31.92,1.87,63.76,4.68,95.55,8.13q57,6.16,113.58,15.23a31.27,31.27,0,0,0,35.74-24.92c1.28-6.85,2.87-10.9,10.83-9,1.62.39,4.82,1.62,5.35-1.56.59-3.6-3-3.73-5-3.64-7.87.36-7.74-3.41-6-9.37a145.14,145.14,0,0,0,4.73-21c.6-4.27,2.16-4.19,5.6-3.42q44.94,9.93,90,19.48c4.79,1,5.2,2.79,3.56,7.82a140.92,140.92,0,0,0-5,21.5c-1.2,7.21-5.28,6.14-14.9,1.44a16,16,0,0,0-8.46-1.11c-2,.16-6.25-2.95-7.18,1.24-.73,3.34,2.83,3.49,4.89,4.09,6,1.75,12,3.62,18.12,4.51,4.64.67,4.52,2.42,3.67,6.17-1.59,6.95-4,13.85-2.3,21.26,2.2,9.94,7.69,16.92,17.2,20.59,8.05,3.11,16.14,6.07,24.23,9.05,3.69,1.36,4.86,3.61,3.84,8.86a47.91,47.91,0,0,0,.11,16.07c.28,2-.71,5.3,2.48,5.31,2.13,0,2.89-1.54,2.93-3.39.12-5.29.25-10.59.16-15.88,0-3.83.47-5.8,4.63-2.82,27.37,19.52,44,45.6,49,79,3.48,23.16-1.06,44.9-10.94,65.78-5.82,12.32-11.71,24.62-17.57,36.93l-23.43,52.73-1.79-.37c0-3.67,0-7.34,0-11,0-2.21-.61-4-3.06-3.93-2.29,0-2.32,2-2.39,3.71a34.78,34.78,0,0,0,0,5.77c1.86,14.57-1.89,27.72-8.53,40.16l-37.19,78.71a601.26,601.26,0,0,1-28.46,62.36c-9.63,18-25.33,29.36-46,30.78-30.22,2.08-60.78,4-90.71-.74-35.31-5.55-70.43-12.56-105.88-17.38-23.58-3.2-47.15-6.41-70.79-9.11C1026.65,768.22,1012.85,780.18,1011.31,805.67Zm516.89-26.3c-22.85-.27-45.71-.42-68.55-.06-6.36.11-5.44-3.36-5.51-7.25-.06-3.73-.87-7.22,5.1-6.69,5.23.46,10.56,0,15.85-.23,2.19-.09,5.6.89,5.47-2.76-.12-3.25-3.57-1.84-5.51-2.33l-3.63-.56c-4.61.07-9.22.37-13.81.19-7.73-.32-12.56-5.54-12.57-13.24q0-15-.06-30l-4.35-.73c-2.66,7.88.13,16.22-1.76,26-5.78-10.42-8.41-19.86-8-30.16-1.48-9.27,1.72-17.79,4.25-26.4.42-1.42,1.2-2.82,2.87-2.69,2,.16,1.75,1.93,1.74,3.32,0,4.09-.23,8.18-.19,12.26,0,2-.83,4.68,2.61,4.82,4.2.18,2.52-3.77,3-5.76,1.48-5.41,2-11,.61-16.41-1.72-6.67-1-10.69,2.62-14.48,23.33-24.39,60.2-26.35,86.76-4.53a63.12,63.12,0,0,1,11.28,85.57,31,31,0,0,1-4.42,5.68c-6.1,5.42-8.41,12.11-7.37,20.05C1535.4,778.13,1533.16,779.43,1528.2,779.37Zm197.15-126.56c-.06,8.69-4,12.49-13,12.75-12.94.37-25.89.39-38.84.58a34.36,34.36,0,0,0-13.09,3c-6.62,7.57-15.06,9.19-24.65,8.19a37.87,37.87,0,0,0-15.68,1.74c-12.07,4-18.61,13.85-18.77,28.54-.19,18.28-.08,36.56-.16,54.84,0,12.68-4.09,16.7-16.95,16.79s-25.51-.16-38.25.2c-4.57.12-5.32-1.36-5.67-5.64-.63-7.87,1.43-13.06,9.31-16.11,6.47-2.5,12.18-6.75,17.35-11.49,1.4-1.28,3.36-3.05,1.9-4.84s-4-1-5.84.41-3.77,2.89-5.67,4.33c-.53,1.07-1.54,2.17-2.51,1.32-1.29-1.14.3-2.26.85-3.33,19.76-37,3-78.74-28.08-95.12-45.57-24-100.59,7.26-102.73,58.74,0,.95-.21,1.9-.33,2.84.65,18.67,6.62,35.05,19.84,48.75,7.46,7.73,5.06,18.8-4.17,24.07-12.91,7.39-25.71,15-38.57,22.46l-93.12,54.88a18.71,18.71,0,0,1-9,2.63c-35.57,1.29-71.17.82-106.76.29-8.11-.12-15.91-2-22.64-6.4-13.89-9-29.67-10.59-45.41-12.52-34.13-4.19-68.2-9-102.64-9.88-4-.1-5.3-1.08-5.06-5.39.62-11.2.36-11.21,11.32-11.24,2.64,0,5.29,0,7.93,0,2.08,0,4.5.62,4.74-2.76.28-3.68-2.41-2.87-4.38-2.93a76.55,76.55,0,0,0-11.53-.06c-7.54.85-9.35-2.64-7.82-9.23.28-1.17.41-2.37.6-3.56,2.34-15,12.73-24.42,27.78-23,23.86,2.25,47.63,5.39,71.36,8.7,25.15,3.49,50.35,6.6,75.19,12,39.52,10.19,79.87,8.09,120.07,7.85a70.91,70.91,0,0,0,31.67-7.68c15.5-9.45,26.2-22.7,33.31-39.43,7.59-17.84,16.23-35.21,24.4-52.78q16.13-35.62,32.26-71.28c1.26-2.78,2.5-5.57,3.75-8.34,3,.55,2.25,2.83,2.25,4.55,0,7.21-.24,14.41-.19,21.62,0,1.86-1.27,5.09,2,5.14,3,.06,3.32-3,3.36-5.43.16-7.44.24-14.87.35-22.31-.61-2.57.48-6-3.79-6.63-1.63-.23-2.25-1.3-1.38-3.11q14-29.22,27.89-58.48c9.2-20.55,18.6-41,27.57-61.69,23.87-54.89,4.09-117.57-46.75-149.29-10.3-6.43-21.73-10-32.92-14.18-9.29-3.51-15.18-9.87-16.83-19.8-.81-4.84.49-7.26,7-4.92a148.45,148.45,0,0,0,28,7.5c4.84.71,5.55,3,5.3,6.54a46.42,46.42,0,0,0,.19,5.77c.1,1.46.45,3.19,2.08,3.32a2.91,2.91,0,0,0,3.1-3.25c-1.42-11.6,5.28-7.56,10.93-5.87,30.05,9,59.86,18.69,89.3,29.5,6.37,2.34,12.74,4.42,16.32,10.89.83,1.46,2.84,3.27,4,1.81,1.77-2.2,2.25-5.42,6.21-3,6.88,4.14,16.66,3.15,20.48,12.83a146.87,146.87,0,0,1,10.08,54.13c.06,18.28-.11,36.56.13,54.83.25,17.84,9.15,27,27.26,27.22,25.26.38,50.52.07,75.78.12,16.27,0,20.13,3.81,20.1,19.79q-.09,31.37-.26,62.75C1725.31,614.94,1725.51,633.88,1725.35,652.81ZM933.16,237.27l54.19-.16c1.77,0,4.25-.33,4-3.09s-2.88-2.07-4.57-2.07q-26.7-.07-53.41.06c-1.76,0-4.39-.71-4.66,2C928.38,237,930.9,237.26,933.16,237.27Z"/><path class="cls-1" d="M1498.75,436.72c-5-33.43-21.66-59.51-49-79-4.16-3-4.68-1-4.63,2.82.09,5.29,0,10.59-.16,15.88,0,1.85-.8,3.39-2.93,3.39-3.19,0-2.2-3.33-2.48-5.31a47.91,47.91,0,0,1-.11-16.07c1-5.25-.15-7.5-3.84-8.86-8.09-3-16.18-5.94-24.23-9.05-9.51-3.67-15-10.65-17.2-20.59-1.65-7.41.71-14.31,2.3-21.26.85-3.75,1-5.5-3.67-6.17-6.14-.89-12.16-2.76-18.12-4.51-2.06-.6-5.62-.75-4.89-4.09.93-4.19,5.16-1.08,7.18-1.24a16,16,0,0,1,8.46,1.11c9.62,4.7,13.7,5.77,14.9-1.44a140.92,140.92,0,0,1,5-21.5c1.64-5,1.23-6.81-3.56-7.82q-45-9.49-90-19.48c-3.44-.77-5-.85-5.6,3.42a145.14,145.14,0,0,1-4.73,21c-1.79,6-1.92,9.73,6,9.37,1.94-.09,5.55,0,5,3.64-.53,3.18-3.73,1.95-5.35,1.56-8-1.95-9.55,2.1-10.83,9a31.27,31.27,0,0,1-35.74,24.92q-56.6-9-113.58-15.23c-31.79-3.45-63.63-6.26-95.55-8.13-20.88-1.23-41.84-1.51-62.75-2.42l-58.13-.13c-42.59,1.06-85,3.85-127.46,7.75-48.35,4.43-96.44,10.75-144.39,18.28-16,2.51-29.48-5.22-33.59-21-2.13-8.21-2.94-16.09-14.56-12.85a2,2,0,0,1-2.71-1.62,2.67,2.67,0,0,1,2.21-3.19,19.36,19.36,0,0,1,5.63-.94c4.37.19,4.63-1.86,3.7-5.38-1.56-5.78-2.76-11.64-4.13-17.48-2.7-11.37-2.7-11.36-14.09-8.92-27.44,5.87-54.87,11.78-82.32,17.55-4.64,1-6.25,2.42-3.53,9.09a58.32,58.32,0,0,1,4.36,18c.48,6.94,2.14,8.66,6.84,7.33,6-1.72,12-3.27,18.12-4.54,1.72-.36,4.57-2.6,5.43.82.78,3.15-2.31,3.93-4.5,4.57-4.6,1.33-9.25,2.8-14,3.32-8,.86-9,4-6.88,11.62,5.58,20.55-1.27,32.18-21.5,39.54-5.62,2.05-11.1,4.55-16.76,6.47-4.08,1.39-5.62,3.56-5.09,8a97.91,97.91,0,0,1,.26,15.13c-.1,2.6.94,7.17-2.47,7.1-4-.09-2.88-4.73-3-7.65-.16-5.39-.05-10.79-.05-16.17-2.87-.17-4.2,1.43-5.73,2.43-43.66,28.4-62.08,87.35-42,135.48,6.17,14.81,13.26,29.21,19.92,43.81L474.24,594l1.78-.39c0-3.21-.07-6.42,0-9.61.06-2.53-.73-6.3,2.78-6.4,4-.13,2.24,3.92,2.51,6.17a30.91,30.91,0,0,1,.22,7.5c-1.65,13.89,1.85,26.42,9.18,38,20.76,45.35,41,91,62.52,136,9.24,19.31,25.75,31.42,47.47,33.3,27.56,2.38,55.48,3,82.85.07,32.61-3.5,64.83-10.8,97.21-16.45,2.14-.19,4.28-.29,6.39-.56,30.57-4.08,61-9.11,91.87-11.11,18.6,3.18,28.31,13.85,29.34,32.52.34,6.52,2.6,12.61.58,19.72s-.54,15.26-.89,22.93c-.15,3.76,1.16,5.1,4.9,5.09,31.48-.06,62.94,0,94.41,0,2.3,0,4.57-.22,4.2-3.37-1.27-11.54,3.26-23.71-3.72-34.65,3.77-1.05,3.29-4.21,3.46-7,1.54-25.49,15.34-37.45,40.74-34.55,23.64,2.7,47.21,5.91,70.79,9.11,35.45,4.82,70.57,11.83,105.88,17.38,29.93,4.7,60.49,2.82,90.71.74,20.62-1.42,36.32-12.79,46-30.78a601.26,601.26,0,0,0,28.46-62.36L1431,626.5c6.64-12.44,10.39-25.59,8.53-40.16a34.78,34.78,0,0,1,0-5.77c.07-1.67.1-3.67,2.39-3.71,2.45,0,3.09,1.72,3.06,3.93-.07,3.66,0,7.33,0,11l1.79.37,23.43-52.73c5.86-12.31,11.75-24.61,17.57-36.93C1497.69,481.62,1502.23,459.88,1498.75,436.72ZM476,409.55h.25c0-4.32-.05-8.64,0-13,0-1.66.24-3.71,2.36-3.74s2.36,2.27,2.41,3.78c.28,8.63.39,17.27.52,25.9,0,1.88-.55,3.26-2.84,3.25s-2.73-1.39-2.72-3.27C476,418.19,476,413.87,476,409.55Zm5.33,92.23c0,4.32.09,8.65,0,13,0,1.35-.17,3.12-2,3.35a2.55,2.55,0,0,1-2.88-2.6c-.16-9.61-.16-19.23-.14-28.84a2.18,2.18,0,0,1,2.39-2.15c1.91-.06,2.53,1.44,2.58,2.84.14,4.8.05,9.61.05,14.43Zm-2.71-29.58c-2.2-.16-2.61-1.68-2.59-3.53,0-4.54,0-9.09,0-13.63h.21c0-4.3-.06-8.61,0-12.92.05-1.7.48-3.52,2.71-3.46,1.83,0,2.16,1.79,2.19,3.15.19,9.07.26,18.16.34,27.23C481.51,470.91,480.86,472.37,478.61,472.2Zm.13,92.13c-3.44,0-2.72-2.64-2.74-4.64-.08-8.1-.08-16.22-.11-24.33,1-4,2.66-5.42,5.65-1.39,0,8.59.07,17.17,0,25.75C481.52,561.7,482.22,564.38,478.74,564.33Zm113.48-286.9c-8.66,1.83-17.32,3.68-25.48,5.43-2-.42-4.25.7-4.88-1.5-.73-2.49,1.43-3.5,3.22-3.93,8.61-2.1,17.18-4.39,26-5.16,1.57-.13,3.83-.87,4.35,1.23S594.34,277,592.22,277.43Zm150,455.89A36.55,36.55,0,0,1,703,762.09c-18.16-1.71-31.6-16-32.41-34.44-.13-3.1,0-6.24,0-9-1-15.64,2.29-29,16.37-37.76,23.57-14.73,54,.26,56.08,28C743.67,717,744,725.25,742.27,733.32Zm507.38-8.83c-.39,21.62-15.54,37.43-36.11,37.7-20.28.26-35.73-14.85-36.87-36.28-.3-5.74-.1-11.51-.13-17.26,2.31-14.85,9.79-25.84,24.15-31.26A36,36,0,0,1,1249,704.55c.25,1.38.67,2.76,1,4.13C1249.87,714,1249.74,719.21,1249.65,724.49Zm103.41-441.8c-8.44-1.6-16.85-3.34-25.23-5.16-1.78-.39-4.21-1-3.57-3.58s3.08-1.48,5.84-1.75c7.26,1.49,15.47,3.13,23.65,4.85,1.92.41,3.9,1.15,3.71,3.59C1357.23,283.6,1354.76,283,1353.06,282.69Zm86.61,113.38c0-1.63.18-3.61,2.46-3.61s2.72,1.83,2.76,3.52c.13,4.54,0,9.08,0,13.61h.21q0,6.46,0,12.91c0,1.91-.52,3.22-2.77,3.28s-2.85-1.29-2.84-3.18C1439.57,413.76,1439.57,404.91,1439.67,396.07Zm-.05,46.08c0-1.73.26-3.77,2.21-4,2.37-.24,3.21,1.64,3.21,3.82v12.93c0,4.55,0,9.1,0,13.66,0,2-.39,4.14-2.8,4.25-2.66.13-2.72-2.16-2.72-4.11Q1439.53,455.45,1439.62,442.15Zm0,45c0-1.4.14-3.25,1.88-3.39a3,3,0,0,1,3.34,3c.11,9.56.11,19.12,0,28.67,0,2-1.38,3-3.32,2.84s-2.08-1.69-2.08-3.2c0-4.78,0-9.55,0-14.33h.1C1439.63,496.24,1439.59,491.69,1439.66,487.15Zm2.67,77.25c-3.32.09-2.77-2.63-2.8-4.65-.12-8.8-.13-17.61-.17-26.41,2.34-3.46,4.3-3,6,.57-.07,8.57-.1,17.14-.23,25.71C1445.05,561.66,1445.56,564.33,1442.33,564.4Z"/><path d="M1249,704.55a36,36,0,0,0-48.27-27.16c-14.36,5.42-21.84,16.41-24.15,31.26,0,5.75-.17,11.52.13,17.26,1.14,21.43,16.59,36.54,36.87,36.28,20.57-.27,35.72-16.08,36.11-37.7.09-5.28.22-10.54.33-15.81C1249.63,707.31,1249.21,705.93,1249,704.55Zm-15.19,43.68c-14.9,13.83-39.42,9.12-47.85-9.39-5.4-11.89-5.32-24.42-1.81-36.61,4.24-14.72,18.56-23.23,33.49-21.05,14.2,2.07,26.07,15.26,26.67,29.71.12,2.63,0,5.28,0,9.22C1245,730.12,1242.38,740.23,1233.77,748.23Z"/><path d="M592.22,277.43c-8.66,1.83-17.32,3.68-25.48,5.43-2-.42-4.25.7-4.88-1.5-.73-2.49,1.43-3.5,3.22-3.93,8.61-2.1,17.18-4.39,26-5.16,1.57-.13,3.83-.87,4.35,1.23S594.34,277,592.22,277.43Z"/><path d="M1357.46,280.64c-.23,3-2.7,2.37-4.4,2.05-8.44-1.6-16.85-3.34-25.23-5.16-1.78-.39-4.21-1-3.57-3.58s3.08-1.48,5.84-1.75c7.26,1.49,15.47,3.13,23.65,4.85C1355.67,277.46,1357.65,278.2,1357.46,280.64Z"/><path d="M1445,442v12.93c0,4.55,0,9.1,0,13.66,0,2-.39,4.14-2.8,4.25-2.66.13-2.72-2.16-2.72-4.11q0-13.29.12-26.59c0-1.73.26-3.77,2.21-4C1444.2,438,1445,439.83,1445,442Z"/><path d="M1444.93,515.47c0,2-1.38,3-3.32,2.84s-2.08-1.69-2.08-3.2c0-4.78,0-9.55,0-14.33h.1c0-4.54,0-9.09,0-13.63,0-1.4.14-3.25,1.88-3.39a3,3,0,0,1,3.34,3C1445,496.36,1445,505.92,1444.93,515.47Z"/><path d="M1442.33,564.4c-3.32.09-2.77-2.63-2.8-4.65-.12-8.8-.13-17.61-.17-26.41,2.34-3.46,4.3-3,6,.57-.07,8.57-.1,17.14-.23,25.71C1445.05,561.66,1445.56,564.33,1442.33,564.4Z"/><path d="M481.28,514.75c0,1.35-.17,3.12-2,3.35a2.55,2.55,0,0,1-2.88-2.6c-.16-9.61-.16-19.23-.14-28.84a2.18,2.18,0,0,1,2.39-2.15c1.91-.06,2.53,1.44,2.58,2.84.14,4.8.05,9.61.05,14.43h.06C481.32,506.1,481.41,510.43,481.28,514.75Z"/><path d="M481.5,469c0,1.87-.64,3.33-2.89,3.16s-2.61-1.68-2.59-3.53c0-4.54,0-9.09,0-13.63h.21c0-4.3-.06-8.61,0-12.92.05-1.7.48-3.52,2.71-3.46,1.83,0,2.16,1.79,2.19,3.15C481.35,450.88,481.42,460,481.5,469Z"/><path d="M1445.15,422.5c0,1.91-.52,3.22-2.77,3.28s-2.85-1.29-2.84-3.18c0-8.84,0-17.69.13-26.53,0-1.63.18-3.61,2.46-3.61s2.72,1.83,2.76,3.52c.13,4.54,0,9.08,0,13.61h.21Q1445.14,416.05,1445.15,422.5Z"/><path d="M478.74,564.33c-3.44,0-2.72-2.64-2.74-4.64-.08-8.1-.08-16.22-.11-24.33,1-4,2.66-5.42,5.65-1.39,0,8.59.07,17.17,0,25.75C481.52,561.7,482.22,564.38,478.74,564.33Z"/><path d="M481.55,422.53c0,1.88-.55,3.26-2.84,3.25s-2.73-1.39-2.72-3.27c0-4.32,0-8.64,0-13h.25c0-4.32-.05-8.64,0-13,0-1.66.24-3.71,2.36-3.74s2.36,2.27,2.41,3.78C481.31,405.26,481.42,413.9,481.55,422.53Z"/><path d="M512.85,782.7c-.68,2.49-2.14,2.49-3.92,1.66a149.41,149.41,0,0,1-23.17-12.89c-1.41-1-2.53-2.49-1.51-4.31.87-1.56,2.59-1.3,3.85-.71a164.59,164.59,0,0,1,23.39,14C512.19,780.9,512.46,782,512.85,782.7Z"/><path d="M527.07,788.85c8.68,4.75,17.74,8.48,25.3,14.8a2.75,2.75,0,0,1,.16,3.92,2.64,2.64,0,0,1-3.29.46,185,185,0,0,1-23.74-14.59,2.36,2.36,0,0,1-.86-3.15C525.07,789.64,526.11,789.39,527.07,788.85Z"/><path d="M700.17,847.23c-1.65-.05-3-.43-3.15-2.29-.12-1.64-.3-3.32,2.14-3.77,9.19-1.68,18.35-3.51,27.52-5.25,1.64-.31,3,.25,3,2.1.05,2.27-1.44,3.51-3.48,3.93C717.52,843.75,708.84,845.48,700.17,847.23Z"/><path d="M633.28,844.23c-8.45-1.74-17.06-3.52-25.35-6.56-1.88-.69-3.79-1.66-3-4.06.74-2.14,2.84-1.38,4.35-1,8.59,1.93,17.15,4,25.73,6,1.93.45,3,1.48,2.81,3.45C637.54,844.86,635.31,844.23,633.28,844.23Z"/><path d="M334.48,606.79c4.66,4.15,1.86,9.91,3.2,14.77-.18,5.26-.24,10.53-.59,15.78-.13,2,0,4.86-3.15,4.61-2.59-.2-2.28-2.67-2.28-4.54,0-8.86,0-17.72-.05-26.58C331.59,608.62,332,607.07,334.48,606.79Z"/><path d="M567.19,811.33a8.56,8.56,0,0,1,1.61.69q11.24,6.22,22.45,12.52c1.82,1,3.33,2.47,2.11,4.53-1,1.73-3.07,1.11-4.52.34-7.57-4-15.08-8.11-22.61-12.16a4,4,0,0,1-2.16-4.77C564.31,811.4,565,810.9,567.19,811.33Z"/><path d="M340.73,715.83c1.43,4,2.91,7.91,4.28,11.89.46,1.33.85,2.92-.77,3.73s-2.81-.35-3.51-1.55c-1.89-3.25-3.58-6.61-5.35-9.92-1.22-5.82-2.51-11.63-3.6-17.48-.24-1.24-.63-3.09,1.17-3.66,2.17-.68,2.89,1,3.41,2.67Q338.54,708.67,340.73,715.83Z"/><path d="M337.68,541.13c-1.22,3,1.17,8-4.62,8.56-3.14-8.8-.95-17.86-1.05-26.79,0-2.63-2.93-7.89,2.22-7.89,4.35,0,2.79,5.22,3,8.27C337.59,529.21,337.55,535.17,337.68,541.13Z"/><path d="M669.38,848.82c-5.23-.5-10.47-1.06-15.71-1.47-2.25-.18-3.92-1.12-3.62-3.41.26-1.92,2.16-2.25,4-2.16,8.37.42,16.74.85,25.11,1.22,2,.09,4,.14,3.86,2.9s-2.25,2.62-4.22,2.61c-3.11,0-6.23,0-9.35,0Z"/><path d="M331.74,669.48c0-4.29.06-8.58,0-12.87,0-1.5-.15-3,1.7-3.35,2.08-.36,3.21,1,3.36,2.83a163.76,163.76,0,0,1,0,28.53c-.13,1.48-.73,3.77-2.92,3.25-1.67-.4-2.19-2.28-2.17-4.09C331.76,679,331.74,674.25,331.74,669.48Z"/><path d="M769.2,826.69c1.86,1,5.37-2.12,5.85,1.85.4,3.4-3.13,3.23-5.16,3.78-6.41,1.72-12.92,3-19.39,4.52-2.9-.9-7.89,3-8.54-1.58-.71-5,5.12-3.81,8.24-4.62C756.46,829,762.86,828,769.2,826.69Z"/><path d="M334.47,559.71c2.29,1.06,2.72,3.07,2.74,5.3,0,8,.11,16.07.08,24.1,0,3-.52,5.76-4.28,6.23-3.37-10.69-.32-21.67-1.5-32.46C331.27,560.66,332.7,560,334.47,559.71Z"/><path d="M331.82,485.79c0-4.32,0-8.63,0-12.94,0-1.6-.61-3.62,1.72-4.08s3,1.38,3.18,3a160.67,160.67,0,0,1,.2,28.68c-.13,1.73-1.11,3.25-3.3,2.95-1.93-.26-1.94-1.82-1.95-3.26,0-4.79,0-9.58,0-14.37Z"/><path d="M334.8,405.66a81.94,81.94,0,0,1,8.68-24.29c.75-1.33,1.84-3.15,3.85-2.22s.75,2.51.27,3.74a196.52,196.52,0,0,0-7.44,24c-.42,1.71-1.13,4.37-3.48,3.73C334.82,410.11,334.38,407.74,334.8,405.66Z"/><path d="M332.21,438.83c0-4.53-.09-9.07,0-13.59,0-1.63.33-3.66,2.57-3.58,1.64.06,2.25,1.64,2.25,3.12,0,9.3,0,18.6-.17,27.9,0,1.5-.59,3.61-2.83,3.48s-2.3-2-2.32-3.73c0-4.53,0-9.07,0-13.6Z"/><path d="M1588.12,704.83a59.34,59.34,0,0,1-7.51,24c-1.06,2-2.67,3.89-5.12,2.63s-.73-3.52,0-5c3.18-7,6-14,7-21.71.32-2.45-.16-6.39,3.16-6.19S1587.4,702.73,1588.12,704.83Z"/><path d="M1583.53,588.29c.14-7.62.23-15.24.45-22.85.06-2.05-.19-5,2.58-5.07s2.77,2.89,2.78,4.92c.06,8.34,0,16.69-.12,25,0,1.93-.35,3.84-2.52,4.69C1583,594,1584.07,590.77,1583.53,588.29Z"/><path d="M1589.76,538.25c-.17,2.57-.26,5.16-.56,7.72-.17,1.41-.71,2.85-2.57,2.65a2.67,2.67,0,0,1-2.67-2.71q-.2-5.28-.37-10.56c.14-5.48.26-11,.41-16.45,0-1.93,0-4.22,2.65-4.21s2.62,2.35,2.68,4.24C1589.52,525.37,1589.62,531.81,1589.76,538.25Z"/><path d="M1589.32,486.14c0,4.3,0,8.6,0,12.9,0,1.68-.39,3.66-2.37,3.81s-3-1.29-3-3.26c.07-9.32.13-18.63.33-27.94,0-1.35.54-3,2.43-2.95s2.21,1.85,2.26,3.13c.16,4.77.06,9.54.06,14.31Z"/><path d="M1589.14,440.77c0,4.08.11,8.17-.05,12.24-.06,1.42-.74,2.91-2.62,2.78s-2.4-1.42-2.48-3c-.48-9.57.63-19.21-1.32-28.73a2,2,0,0,1,2.06-2.36c1.61.07,2.53,1.38,3.13,2.68C1590.27,429.66,1589.16,435.29,1589.14,440.77Z"/><path d="M1588.67,608.84c1.54,9.74.56,19.54.68,29.31,0,1.59,0,3.73-2.32,3.65a3.27,3.27,0,0,1-3-3.47c0-9.31,0-18.61.21-27.92.07-2.57,1.52-4.09,4.28-2.12Z"/><path d="M1589.33,670c0,4.3.07,8.6,0,12.9,0,1.81.19,4.21-2.51,4.28-2.52.06-2.93-2-2.92-4q.06-12.9.12-25.79c0-2,.22-4.12,2.86-4,2.14.11,2.42,2.06,2.45,3.75C1589.38,661.37,1589.33,665.67,1589.33,670Z"/><path d="M1585.18,405.19c-.31,2.48.57,5.1-1.89,5.48-2,.31-2.06-2.12-2.61-3.67-2.69-7.6-5.52-15.16-8.14-22.78-.49-1.42-2.1-3.3-.26-4.53,2.13-1.43,3.55.49,4.55,2.09C1581.45,389.16,1583.55,397.43,1585.18,405.19Z"/><path d="M743.05,708.91c-2.08-27.73-32.51-42.72-56.08-28-14.08,8.77-17.34,22.12-16.37,37.76,0,2.73-.12,5.87,0,9,.81,18.49,14.25,32.73,32.41,34.44a36.55,36.55,0,0,0,39.25-28.77C744,725.25,743.67,717,743.05,708.91ZM737.45,727c-1.71,17.47-14.61,29.57-31.32,29.48-15.76-.1-29.45-13.67-30.66-30.52-.16-2.38,0-4.8,0-6.5-.55-9.3,1-17.42,5.83-24.7,7.28-11,19.37-16.37,31.72-13.18s20.73,10.77,23.45,24.19A71.93,71.93,0,0,1,737.45,727Z"/><path d="M1238.75,255.17c7.91,1.38,16.37,2.82,24.81,4.35,2,.36,4.12,1.35,3.74,3.57-.42,2.41-2.68,2.05-4.68,1.74-8.24-1.3-16.5-2.49-24.75-3.73-2.22-.34-4.73-1-4.7-3.53C1233.21,254.22,1236.28,255.69,1238.75,255.17Z"/><path d="M812.81,238.81c2.86,0,5.72-.08,8.57,0,1.51.06,2.72.66,2.74,2.56s-1.3,2.27-2.8,2.42c-8.77.92-17.54,1.89-26.32,2.72-2.1.2-4.77.39-4.86-2.66-.07-2.43,2.29-2.71,4.18-2.94C800.48,240.2,806.56,238.8,812.81,238.81Z"/><path d="M1192.27,248.33c8.7,1.33,17.19,2.68,25.7,3.92,2.22.32,3.82,1.2,3.31,3.61-.44,2-2.31,2.19-4.07,1.94-8.5-1.21-17-2.47-25.51-3.69-2-.3-4-.9-3.68-3.43C1188.32,248,1190.63,248.45,1192.27,248.33Z"/><path d="M703.44,257.78c-2.51.06-4.51.25-4.92-1.85-.45-2.31,1.1-3.37,3.31-3.68,8.72-1.25,17.42-2.6,26.14-3.77,1.56-.21,3.64-.16,3.86,2.11.21,2-1.47,3-3.15,3.25C720,255.27,711.31,256.56,703.44,257.78Z"/><path d="M1124.43,246.54l-25.59-2.71c-1.42-.15-3-.14-3.16-2.09a2.88,2.88,0,0,1,3.09-3.22c9.62-.19,19.1,1.24,28.52,2.93,1.49.27,3.52,1.58,2.79,3.56C1128.9,248.21,1125.85,245.58,1124.43,246.54Z"/><path d="M657.86,264.56c-2.9.08-4.69.18-5.17-1.37-.62-2,1.07-3.1,2.68-3.52,9.24-2.45,18.77-3.09,28.2-4.36a2,2,0,0,1,2.43,1.94c.09,1.85-.7,3.23-2.74,3.54Z"/><path d="M748.88,252.3c-1.75,0-3.93.39-4.26-2.36-.31-2.58,1.43-3.12,3.57-3.4,8.31-1.11,16.59-2.4,24.92-3.42,1.63-.2,4.3-1,4.58,1.83.24,2.3-1.85,3.25-3.81,3.56C765.61,249.83,757.32,251,748.88,252.3Z"/><path d="M1147,243c8.58,1.26,16.62,2.47,24.68,3.59,2.15.3,3.88,1,3.58,3.49-.33,2.71-2.59,2.43-4.47,2.17-8-1.13-16.08-2.3-24.1-3.58-2.08-.33-4.9-.78-4.48-3.58S1145.59,243.54,1147,243Z"/><path d="M898.22,238c-4.08,0-8.16,0-12.24,0-1.48,0-3.09-.12-3.31-2-.26-2.16,1.31-3,3.13-3.08q13.66-.54,27.34-.91c1.4,0,3.11-.06,3.16,2,.07,2.4-1.66,3.5-3.69,3.58-4.79.17-9.59,0-14.39,0Z"/><path d="M1077.18,242.52a136.39,136.39,0,0,0-23.13-2.19c-1.83,0-4.19.17-4-2.72.14-2,1.58-2.72,3.5-2.84,8.9-.54,17.64.86,26.39,2.07a2.88,2.88,0,0,1,2.72,3.52C1082.11,243.76,1079.47,242.19,1077.18,242.52Z"/><path d="M858.86,234.43c3.51,1.46,10.08-2.22,10.21,3,.12,5-6.5,2.55-10.13,3.14-5.62.92-11.34,1.29-17,1.74-2,.16-4.68.78-5.1-2.34-.43-3.27,2.27-3,4.32-3.28C847,235.89,852.93,235.17,858.86,234.43Z"/><path d="M1020.76,237.81c-4.29,0-8.59.07-12.88,0-2.34-.05-4.41-1-4.39-3.66,0-3.2,2.74-2,4.32-2,8.34.2,16.69.59,25,1,1.93.09,4.19.37,4,2.95-.15,2.41-2.39,1.83-3.94,1.86-4.06.08-8.11,0-12.17,0Z"/><path d="M1366.47,804.15c7.22-6.07,16.07-9.44,24-14.25,1.58-.95,4-1.87,5.23,0,1.48,2.19-.89,3.32-2.4,4.39-3.1,2.21-6.24,4.33-9.36,6.49-3.9,2.18-7.74,4.45-11.7,6.51C1369,809,1366.17,809.36,1366.47,804.15Z"/><path d="M1218.64,846.86c-8.54-1.77-17.14-2.53-25.37-5.15-2-.63-4-1.37-3.57-3.61s2.7-2.08,4.73-1.68q12.3,2.45,24.66,4.7c1.93.36,4,.39,3.68,3.2S1220.47,846.92,1218.64,846.86Z"/><path d="M1127.1,828.75c-8.07-1.15-15.66-2.17-23.23-3.36-2-.32-4.92-.65-4.73-3.39.22-3.06,3.23-2.43,5.18-2.2,7.62.88,15.22,1.94,22.8,3.1,2.24.34,5.59.36,5.33,3.53C1132.16,830,1128.76,828.29,1127.1,828.75Z"/><path d="M1074.12,821.37c-5.54.26-11.22-.66-16.85-1.75-1.86-.36-4.11-1-4.07-3.36,0-2.92,2.7-2.27,4.39-2.12,8.8.81,17.59,1.81,26.38,2.77,1.91.21,3.2,1.19,2.94,3.26-.22,1.85-1.78,2.08-3.25,2C1080.55,822,1077.46,821.66,1074.12,821.37Z"/><path d="M1249.3,848.37c-3.12,0-6.23,0-9.35,0-1.79,0-3.53-.48-3.66-2.56s1.46-2.74,3.33-2.8c9.33-.29,18.7.18,28-1.43,1-.18,2.7-.43,2.7,1.32a4,4,0,0,1-3.81,4.38c-5.71.62-11.43,1.12-17.15,1.68Z"/><path d="M1285.4,844.4c-1.37-.15-2.84.28-3.28-1.19a3.16,3.16,0,0,1,2.13-4.07c9.24-2.44,18.54-4.67,27.85-6.87,1.11-.26,2.64,0,2.84,1.48.26,1.92-.92,3.2-2.71,3.71q-10,2.82-20,5.51C1289.88,843.59,1287.51,844,1285.4,844.4Z"/><path d="M1150.13,827c8.16,1.54,16.36,3,24.52,4.67,1.94.38,3.77,1.52,3.47,3.84-.39,3-2.93,1.93-4.53,1.64-8.17-1.48-16.32-3.09-24.43-4.88-1.9-.42-4.84-.85-4-3.89C1145.86,825.87,1148.41,827.46,1150.13,827Z"/><path d="M1355.86,813.05c0,2.59-1,3.52-2.36,4.26-7.41,4-14.77,8-22.2,11.92-1.65.88-3.89,2-5-.32s.9-3.49,2.6-4.45c7.33-4.11,14.67-8.21,22-12.24C1353.1,811,1355.5,809.83,1355.86,813.05Z"/><path d="M1472.77,732.69c-5.86-5.85-8.37-13.15-9.2-21.18-.16-24.87,24.28-36.62,41.8-29.69,18.61,7.35,25.69,30.41,14,46.66-2.1,2.92-4.67,4.7-8.4,4.65C1498.24,733,1485.51,732.83,1472.77,732.69Zm21.42-5.33c4.81,0,9.62,0,14.43,0,2.72,0,5.09-.11,6.66-3,4.81-8.93,5.64-18,.09-26.65-5.43-8.49-13.51-13.11-23.77-11.93s-17.14,7.12-20.65,16.71c-2.85,7.77-1.1,15.35,2.87,22.14,3.23,5.53,9.21,1.86,13.89,2.68A40,40,0,0,0,1494.19,727.36Z"/><path d="M1514.11,760c2.46-.13,6.51-.4,10.56-.58,1.55-.07,3.73-.73,3.52,2-.12,1.57-.38,3.57-2.67,3.59q-14.34.07-28.66,0a2.29,2.29,0,0,1-2.47-2.77c.15-2,1.69-2.19,3.06-2.22C1502.47,759.93,1507.49,760,1514.11,760Z"/><path d="M792.78,828.83c-2.56-.61-5.2.76-5.75-1.8-.64-2.93,2.21-3.57,4.18-3.88,8.54-1.34,17.11-2.46,25.69-3.5,1.43-.18,3.66-1.1,4.16,1.38s-1.67,3.33-3.52,3.66C809,826.21,800.52,827.55,792.78,828.83Z"/><path d="M865.94,814.21c1.92,4.36-1.63,4.8-4.24,5.93-7.86.58-15.72,1.24-23.59,1.71-1.93.11-4.83,1.24-5.25-1.93s2.4-3,4.51-3.18Q851.65,815.45,865.94,814.21Z"/><path d="M1409.23,785.07a11,11,0,0,1-2.44-1.68c-.75-.95,0-1.87.74-2.4a152.69,152.69,0,0,1,25.76-15.29,2.22,2.22,0,0,1,3,1,2.63,2.63,0,0,1-.36,3.33C1427.79,776.28,1418.53,780.59,1409.23,785.07Z"/><path d="M416.44,320.19a5.38,5.38,0,0,1-3.23,3.72c-7.52,3.72-15,7.44-22.58,11.1-1.43.7-3.17,2-4.33-.23-.8-1.49.23-2.82,1.41-3.69a83.39,83.39,0,0,1,24.86-12.59C414,318.05,416,317.76,416.44,320.19Z"/><path d="M460.3,307.58c.23,2.28-1.57,3.14-3.42,3.72-8,2.49-16,5-24,7.26-1.44.41-3.6,1-4.34-1.14s.59-3.69,2.68-4.31q12.72-3.81,25.47-7.48C458.32,305.15,460.11,304.68,460.3,307.58Z"/><path d="M1486.52,318.58c-7.93-2.39-16.14-4.8-24.29-7.36a3.57,3.57,0,0,1-2.49-5.08c1-2.63,2.8-.89,4.16-.51,8,2.26,16,4.67,24,7,2.09.61,4.51.85,3.65,4C1490.84,319.07,1488.69,318.63,1486.52,318.58Z"/><path d="M1509.65,318.71c7.29,3.09,15.55,6.83,23.12,11.94,1.21.82,2.21,2.08,1.51,3.65a3,3,0,0,1-4.31,1.4c-8.18-4-16.26-8.17-24.36-12.32-1.43-.73-2.17-2-1.49-3.55C1505,317.87,1506.78,318.18,1509.65,318.71Z"/><path d="M422.61,733.42c-1.43-.1-2.87-.26-4.3-.28-17.35-.15-20.17-2.52-23.57-19.85,1.18-21.5,13.73-34.51,32.23-33.42a30.71,30.71,0,0,1,25,46.34c-2.76,4.81-6.26,7.42-12.15,7C434.15,732.86,428.37,733.32,422.61,733.42Zm2.69-6.13v.12c4.81,0,9.61,0,14.41,0,2.73,0,5.22-.14,6.71-3,4.59-8.87,5.76-17.84.2-26.64s-13.87-13.34-24.37-12c-10.15,1.34-17,7.61-20.32,17.13-2.69,7.71-1,15.42,3.44,22,3.21,4.78,8.91,1.63,13.46,2.32A45,45,0,0,0,425.3,727.29Z"/><path d="M424,764.9q-13.27.09-26.55.15c-1.87,0-4.46.42-4.68-2-.27-3.14,2.67-2.81,4.71-2.88,7.86-.29,15.73-.46,23.6-.67C424.16,760.16,426.57,761.21,424,764.9Z"/></g><g id="Capa_3" data-name="Capa 3"><path d="M835,442.15v111H815.19V482.44l-19.51,14.91L779.5,509.88l-16.18-12.53-19.51-14.91v70.74H724v-111l19.83,15.23,35.69,27.44,35.69-27.44Z"/><path d="M888.94,479.11v75.5H869.11V477.05a15.8,15.8,0,0,0-13.48-13.48h-4.44V443.9h4.28v.16A35.35,35.35,0,0,1,885,463.88a42.36,42.36,0,0,1,2.7,7.46,33.47,33.47,0,0,1,1,8.09Z"/><path d="M1015.35,442.15v111H995.52V507.5H937a31.42,31.42,0,0,1-14.91-3.65,32.39,32.39,0,0,1-17.76-29V442.15h19.83v32.68a13.05,13.05,0,0,0,13,13h58.53V442.15Z"/><path d="M1141.92,533.67V553.5H1031.21V520.83A31.66,31.66,0,0,1,1033.9,508a32.59,32.59,0,0,1,28.87-20h48.06a13,13,0,0,0-1.11-25.85h-78.2V442.31h78.2A32.63,32.63,0,0,1,1142.39,475a31.61,31.61,0,0,1-2.69,12.84,31.94,31.94,0,0,1-6.66,9.84,33,33,0,0,1-22.37,10h-47.9a12.92,12.92,0,0,0-11.58,12.85v12.85Z"/><path d="M1196.32,479.11v75.5h-19.83V477.05A15.8,15.8,0,0,0,1163,463.57h-4.44V443.9h4.28v.16a35.35,35.35,0,0,1,29.5,19.82,42.36,42.36,0,0,1,2.7,7.46,33.47,33.47,0,0,1,1,8.09Z"/></g></g></svg>