<svg xmlns="http://www.w3.org/2000/svg" viewBox="0 0 1920 1080"><defs><style>.cls-1{fill:#f2f2f2;}.cls-2{fill:#ccc;}</style></defs><g id="Capa_2" data-name="Capa 2"><g id="Capa_3" data-name="Capa 3"><g id="Capa_2-2" data-name="Capa 2"><g id="Capa_1-2" data-name="Capa 1-2"><path d="M1765.75,474.87c-1-27.92-.1-55.83-1.11-83.79a10.12,10.12,0,0,0-3.23-7.05l-6.65-6.2q-23.54-19-47-38.12c-3.48-2.81-7.16-5.19-11.88-5.59-12.19-1-21.76,7.81-22.34,21.18-.35,8.3,0,16.62-.2,24.94-.14,7-.31,6.88-7.6,7-3.75.06-7.52,0-11.28-.18-13.31-.81-25.77,1.62-37,9.35-4.34,3-9.53,3.19-14.56,3.27-11.87.17-23.76.25-35.64.06-8.69-.14-16.89-2.49-24.94-5.9-47.19-20-94.74-39.1-142.87-56.74-5.29-2-10.57-3.89-15.91-5.68-4.22-1.42-9.74-.94-9.74-7.82,0-1.54-2.17-1.76-3.55-2.19l-66.84-20.52c-1.63,4.1-1.41,7.81-7.25,6.08-28.19-8.34-57.09-13.6-86-18.68-49.14-8.63-98.71-14-148.26-19.55-23.46-2.62-94.48-4.95-94.48-4.95l-21.42.85c-36,.13-71.84,2.92-107.61,6.22-32.3,3-64.39,7.24-96.39,12.14-39,6-77.89,12.74-116.07,23-6.82,1.84-6.81,1.87-11-5-20.78,6.43-41.72,12.9-62.63,19.44-3.74,1.16-8.61,1.23-7.62,7.52.31,2-2,1.62-3.31,2-3.68,1.14-7.41,2.15-11,3.45-51.41,18.28-102,38.54-152.16,60a74.09,74.09,0,0,1-29.33,6.34c-9.81,0-19.61,0-29.42.13-8.18.07-15.84-1.43-22.78-6.17-7.62-5.19-16.22-7.06-25.39-6.68-5.2.21-10.41.31-15.61.21-9.71-.17-9.74.14-9.78-8.39s.47-17.25-.13-25.82c-1.11-15.67-17.33-23.93-30.77-15.88a77.12,77.12,0,0,0-9.24,6.94C192,355.4,178.21,366.75,164.39,378c-10.9,8.89-10.12,16.26-10.12,16.26v90.07c0,6.1.76,11.88,4.58,16.83,6.31,8.18,8,17.62,7.93,27.65-.08,9.8-.11,19.61.15,29.4.29,10.13,4.31,18.37,13.27,23.77q21,12.62,41.92,25.23a30,30,0,0,0,14.26,4.61c10.05.39,20.15,1.2,30.08-1.37,5.72-5.56,7.37-12.56,7.19-20.21-.17-7.41-.41-14.82-.46-22.23,0-4.35,1.17-8.16,5.57-10.27,4-1.92,6.89.35,9.61,2.63,7.21,6,15.54,8,24.79,7.89,16.6-.22,33.21-.08,49.82-.09,7.89,0,8-.07,10.73,7.26,9.05,24.73,17.75,49.58,27.11,74.18,2.6,6.84,1.51,11.53-3.5,16.55-11.71,11.76-23,23.92-34.51,35.93-3.91,4.08-8,8.29-10.1,13.45-3.3,8-9.49,12.48-16.42,16.7-10.38,6.31-20.56,12.91-30.83,19.41-4,2.54-5.67,5.76-3.57,10.52,1.42,3.23,2.29,6.71,3.52,10,3.38,9.15,6.82,18.28,10.24,27.42,2.61,3.32,3.35,7.5,4.9,11.28,1.71,4.18,4.07,5.9,8.71,5.06,12.55-2.27,25.17-4.14,37.73-6.32a163.72,163.72,0,0,1,28.29-2.73c97.36.08,194.73-.44,292.08.39,27.77.24,54.06-5.6,80.63-11.79,47.46-11,95.46-18.56,144.3-19.67,3.44-.08,7.93-1.92,7.66,4.85-.1,2.42,3.3,1.75,5.24,1.8l66.22-.08c3.7-.15,8.72,2,8.78-5.12,0-1.86,2.81-1.51,4.58-1.45,10.39.36,20.83.15,31.17,1.09,41.41,3.74,82.55,9.74,122.8,20.26a314.16,314.16,0,0,0,82.69,10c96.83-.75,189.4-.16,286.24-.57,2,0,6.77-2.58,8-3.63,3.87-3.31,7.94-5.14,10.77-7.09A60,60,0,0,0,1568,769.4c10.33-24.47,6.9-47.13-11-66.94-11.93-13.22-24.54-25.85-37-38.59-3.29-3.37-4.19-6.55-2.48-11.15q14.55-39.15,28.59-78.51c1.66-4.64,4-6.27,9.09-6.14,14.54.39,29.11-.15,43.66.21,12.43.32,24.08-.64,34.3-9.18,5.26-4.4,12-.78,13,6.12a59.34,59.34,0,0,1,.2,8c0,7.72-.28,15.45,0,23.17.38,9,5.32,14.35,14.21,15.28a101.53,101.53,0,0,0,24.88-.25,30.73,30.73,0,0,0,11.65-4.15c13.7-8.29,27.27-16.8,41.13-24.83,10.4-6,14.68-15,14.46-26.6-.17-9.49-.22-19-.31-28.5-.07-7.56.81-15.16,5.25-21.3C1764.61,496.55,1766.16,486.14,1765.75,474.87Zm-348.54-88c.15-6.49,0-13,0-18.78,3.07-2.4,4.79-.6,6.56.08,7.2,2.75,14.32,5.66,21.52,8.41,1.76.68,4.44,2.43,5.09-.66.83-3.94,2.11-4.15,5.26-2.3,4.34,2.53,10.65,2.59,10.84,9.92,0,1.45,2.69,2,4.34,2.72q13.56,5.57,27.1,11.18c1.34.55,3.33,1.85,4,.4,2.83-6.45,6.61-2.44,10-1.1,9.36,3.7,18.6,7.72,28,11.32a8.23,8.23,0,0,1,5.22,8.27c-.24,3.61,0,7.26,0,10.89-6.22-7.68-11.41-14.9-18.79-20.19-2.53-1.81-6-5.32-8.44-2.67-2.71,2.92,1.68,5.52,3.62,7.66a118.9,118.9,0,0,1,14,18.36c.91,1.5,2,3.88,3.21,4,8,.94,6.31,6.84,6.4,11.83,0,1.39.44,2.93-1.16,4.59l-9.19-4.39c-36.35-17.35-72.72-34.69-110.56-48.65-7.33-2.68-7.23-2.76-7-10.9Zm-26.59-30.71c2.87,1,5.7,2.14,7.24-2.13.82-2.3,2.71-1.52,4.46-.74,3.52,1.54,7.1,2.92,10.67,4.36-5,11-.78,22.72-3.65,34.49-14.1-4.63-28.55-7.65-42-13.82-5.89-2.71-6.78-5.11-5.12-11.45,1.56-6,3.52-11.88,5.51-18.49,8.38,2.84,15.64,5.32,22.89,7.77ZM624.91,320.5c1.36-.8,3-1.13,3.86.51,2.47,4.89,6.48,3.2,10.07,2.35,8.08-1.88,16.08-4.08,24.12-6.11,3.43-.86,6.5-1.32,8.18-5.61,1.53-3.92,11.87-4.69,15.27-1.48a6.26,6.26,0,0,0,6.34,1.76c9.86-2.09,19.75-4,29.64-6,1.48-.3,3.48-.7,3.68-2.06.81-5.51,4.9-4.75,8.66-5.28s7-1,9.69,2.4c2.05,2.54,5,1.43,7.51,1,8.48-1.39,16.93-3,25.41-4.37,2.87-.48,5.43-.28,6.5-4.37,1-3.76,5.62-1.93,8.53-2.87s6-1.49,6.37,3.3c.13,1.65,2,1.92,3.57,1.79,11.54-1,22.9-3.23,34.26-5.35,1.18-.22,2.26-.51,2.68-1.9,1-3.26,3.65-3.27,6.42-3.48q26.64-2,53.24-4.23c19.64-1.62,67.82-1.82,67.82-1.82,19.59.11,39.18.66,58.72,2.14,15.38,1.17,30.75,2.46,46.13,3.72,1.76.15,4.35-.17,5.12.84,5.78,7.45,14.71,5.22,22.1,7.51a33.82,33.82,0,0,0,9.56,1.69c5.09,0,9.24,3.07,12.11-2.95,1.65-3.47,12.06-2,14.53,2.2,1.67,2.84,3.63,3.39,6.31,3.79,10,1.47,19.94,3,29.91,4.55,1.48.23,3.66.64,4.16-.59,3.65-8.89,9.86-.18,14.44-2.22a1.71,1.71,0,0,1,1.46.76c1.2,8.21,8.32,5.76,13.11,7.09a170.27,170.27,0,0,0,18.3,3.67c3.91.65,8.28,4,11.19-2.52,1-2.29,13.85.83,14.75,3.78,1,3.35,3.22,3.79,5.83,4.45,9.47,2.4,19,4.82,28.39,7.35,2.78.74,5.21,1.33,6.45-2.28.76-2.18,2.47-2.21,4.35-1.4,2.15,1,2.06,2.71,1.52,4.47-2.17,7.07-3.69,14.36-6.74,21.14-3.45,7.68-5.57,8.94-13.75,6.91q-33.23-8.23-66.34-16.85c-28.25-7.33-57.09-10.68-86-13.73-53.2-5.61-106.6-7.62-160-7.63-45.12,0-90.23.73-135.22,5-27.19,2.59-54.46,4.38-81.4,9C713.45,334,682,342.79,650.5,351.22c-15.23,4.08-16.86,3.43-21.73-11.49-1.65-5.06-3-10.22-4.53-15.33C623.83,323,623.24,321.49,624.91,320.5Zm381,41.73c3.21,1.21,4.22-1.11,5.2-3.27,3.41-7.48,6.74-15,10.1-22.52-.36-2,1.63-3,2-5a4.12,4.12,0,0,1,.33,5c-1.23,15.11-.39,30.26-.63,45.39-.07,4.16,0,8.36-2.69,11.91-3.26,4.21-7.31,6.79-12.87,6.74-8.61-.09-17.22,0-25.84-.05-2.25,0-4.8.59-5.52-2.88-1-4.86,0-9.52,3-11.07s6-2.6,8.81-4.22a26.06,26.06,0,0,0,5.52-4.4,3.4,3.4,0,0,0,.29-4.81v0c-1.25-1.44-2.74-.42-4,.17-7,3.27-13.79,6.86-21.57,8a41.69,41.69,0,0,1-14.69.48c-8.49-.85-16-4.06-23.2-8.43-1.49-.9-3.31-2.24-4.69-.33-1.19,1.66.18,3.46,1.25,4.78,3.1,3.82,7.6,5.53,11.9,7.53,1.76.82,4.3.74,4.73,3.42a28.38,28.38,0,0,1-.47,10.59c-.35,1.58-2.41,1.29-3.85,1.28-9.21,0-18.42.12-27.62-.19-7.77-.27-11.7-3.88-13.93-11.32-1.05-3.52-.84-7-.92-10.59-.36-15.66,1.07-31.38-.94-47h-.15v-.34c-1-2.32-2.08-4.63-2.94-7a1.41,1.41,0,0,1,.86-1.81,1.37,1.37,0,0,1,.35-.08c1.3-.22,2.61.09,2.58,1.43a71.85,71.85,0,0,1-.85,7.46.54.54,0,0,0,.1.22c0,.07,0,.06,0,.1,1.91-.19,1.94,1.4,2.44,2.71,2.6,6.9,4.74,14,8.38,20.44a66.22,66.22,0,0,0,3.72,6c.83,1.16,1.94,2.39,3.66,1.59s1.75-2.28,1.33-3.78c-.66-2.26-1.47-4.48-2.22-6.72a165.85,165.85,0,0,0-13.65-30.22l91.44.69h33.5c1.22,0,2.55.11,2.75,1.47a4.13,4.13,0,0,1-1.51,3.95c-2,1.42-2.38-.63-3-1.76-1.5-2.72-3.3-1.41-5.11-.5a217.91,217.91,0,0,0-12.66,31c-.81,2.45-2.12,4.67,1.27,6ZM964.75,400.7c-4.35,0-4.85-2.15-4.55-5.51.24-2.78-.74-6.14,4.08-6.13,4.48,0,5.82,2.07,5,5.62C969.75,398.62,969,400.67,964.75,400.7Zm-9.71-.12c-4.44-.06-5.36-.8-5.33-5.77,0-2.88-.55-6,4.11-6.11,5-.11,4.79,3.14,4.79,6.93-.12,2,.8,5-3.61,4.95Zm-437.3-47.69c1-.69,2.66-.54,3.06.72,1.71,5.42,5.49,3.35,8.67,2.38,7.06-2.14,14-4.6,21.85-7.2,1.86,5.32,3.62,10,5.12,14.8,2.76,8.75,1.15,12.64-7.55,16-8,3.09-16.28,5.49-24.48,8.07-4.44,1.4-8.95,2.54-13.47,3.81-1.89-11.2,1.67-22.62-3.53-33.83C509.81,355.14,514.44,355.29,517.74,352.89ZM387,405.09c7.6-3.33,15.26-6.49,22.95-9.58,1.48-.59,3.73-2.27,4.79-.38,3.55,6.3,7.71.26,12,.4a18.28,18.28,0,0,0,13.77-5.19c4.76-4.79,11.74-3.07,13.9-11.07,1.2-4.41,7.74-4.6,12-6.48.34-.15,1.32.21,1.39.48,1.93,8.13,6.69,3.07,10.09,1.88,8.31-2.93,16.17-7.07,25.79-9.85,0,8.95-.14,16.66.06,24.36.09,3.45-1,5.38-4.36,6.58-42.18,15.14-82.62,34.24-122.82,53.91-.45.23-1.12,0-2.65,0,0-2.68.09-5.51,0-8.32-.13-3.15,0-5.89,4.17-6.25,1.86-.16,3.06-1.77,3.93-3.35,4.4-7.88,10.77-14.12,16.92-20.55,1.89-2,5.38-4.42,2.59-7.4-2.59-2.76-5.56.05-7.8,1.76-6.46,4.94-11.17,11.41-15.46,18.23-.86,1.36-1.33,3.33-3.56,3.42a4.59,4.59,0,0,1-.63-1.41C373.11,411.23,373.08,411.18,387,405.09ZM337.91,806.85c-10.29,1.77-10.25,1.81-14.05-8.12-4.44-11.59-8.88-23.17-13.44-34.72-1.43-3.64-2-6.27,2.33-8.84,13-7.72,25.58-16,38.36-24a3.59,3.59,0,0,1,3.88-.44l24.57,69.07C365.2,802.21,351.55,804.49,337.91,806.85Zm53.36-8.93a2.57,2.57,0,0,1-3.25-.26,16.12,16.12,0,0,1-2.56-4.58Q374,761.79,362.75,730.45c-.18-.53-.36-1.06-.52-1.6-.6-2-1.66-4.51,1.12-5.35s2.94,2,3.63,3.81q12,32.48,24.12,64.93c.42,1.12.73,2.26,1,3,.09,1.3.08,2.19-.83,2.68Zm521-36.19c-53,.21-104.63,9.84-156,21.56-5.06,1.15-10.08,2.47-15.09,3.83a175.71,175.71,0,0,1-46.88,5.78c-80.21-.25-160.42-.17-240.63-.25-1.95,0-4.05.66-6.55-1.14,6.77-7,11-15.21,11.65-25,.16-2.47,1.85-3.35,3.78-4.4,3.08-1.68,5.93-3.76,9.12-5.85-3.29-5.27-6.33-10-9.22-14.81a49.46,49.46,0,0,1-5.11-12.28,34.18,34.18,0,0,0-2.22-5.8,3.34,3.34,0,0,0-4.36-1.82l-.12.05c-2.4.9-1.55,2.68-1,4.4,2.7,7.84,5.25,15.74,8.88,23.23.78,1.6,1.56,3.2,2.28,4.7a2.65,2.65,0,0,1-2.54,2.16c-5.62.79-6.83,4.75-7.37,9.52-1.72,15.2-8.57,22.8-23.45,25.9-7,1.45-14.11,2.17-21,3.87-4.44,1.09-6.27-.11-7.77-4.3-6.32-17.57-13-35-19.54-52.48-2.09-5.55-4.2-11.09-6.48-16.56-1.1-2.65-.67-4.47,1.81-6,7.6-4.63,14.79-10.06,22.77-13.88,11.1-5.31,21.86-4.08,31.24,4.77,5.27,5,12.32,5.08,18.2,1,2.47-1.74,2.44-4,1.67-6.33-3.67-10.81-7.5-21.57-11.3-32.34-.61-1.69-1.42-3.32-3.76-3-2.82.41-3.1,2.5-2.89,4.63.62,6.25,2.87,12.09,4.86,18,1.32,3.93,2.6,7.88,3.79,11.85a2.07,2.07,0,0,1-.68,2.39,2.86,2.86,0,0,1-3.29,0,7.38,7.38,0,0,1-1.31-1.19c-12.8-12-27-13.69-42.49-5.71-1.45,1.93-3.49,3-6.92,4.31,1.67-3.11,3.31-4.63,5.53-5.69,6.13-6.46,12.12-13,18.42-19.32,8.42-8.41,10.88-17.77,6.61-29.2-9.32-25-18.23-50.12-27.33-75.19-.5-1.39-1.2-2.7-1.81-4.06-3.91-8.65-10.14-13.31-20.12-13.12-16.92.32-33.87-.12-50.8.13-7.39.11-13.67-1.17-19.58-6.35-6.71-5.88-14.95-6.91-23.28-2.7s-12.31,10.94-12.5,20c-.19,8.9-.26,17.82-.11,26.73.08,4.13-1.39,5.65-5.61,5.94-12.17.81-23.35-.78-33.77-8.11-9.93-7-20.66-12.82-31.2-18.87-5.11-2.92-7.65-6.79-8.18-12.74a195,195,0,0,1,0-26.7c.67-13.73-1-26.71-10.08-37.75-2.09-2.55-2.15-5.49-2.16-8.42-.07-29.12,0-58.22-.13-87.33a9.09,9.09,0,0,1,3.66-7.66q24.17-19.5,48.29-39.06a13.73,13.73,0,0,1,2.55-1.65c5.11-2.49,7.7-1.27,8.48,4.49,1.08,8,.72,16,.63,24a46.88,46.88,0,0,0,0,7.11c1.19,9.12,6.18,14.2,15.37,15.84,8,1.42,16,.57,24,.31,6.5-.2,12.36.89,17.76,4.46,8.69,5.73,18.27,7.95,28.65,8.12,14.56.26,29.11-.13,43.65-.77,4.74-.22,6.27,1.15,5.9,5.85-1,13,.59,26-1.69,39.06-1.56,8.93-.3,18.35-.19,27.56a11,11,0,0,0,1.16,4.23c.9,1.93,2.74,2.09,4.57,1.65s2-2,1.77-3.5c-.93-7.09-.61-14.23-.84-21.34-.13-4.41,1.42-6.82,5.53-8.82,38.37-18.74,77.05-36.75,117-52a6,6,0,0,1,1.63-.13c1.17.64.65,1.66.22,2.26-7.67,10.57-10,22.65-10,35.35q-.11,106.63-.22,213.25a34.89,34.89,0,0,0,12.2,26.94,25.14,25.14,0,0,0,14.6,6.18c18.72,1.55,37.45.61,56.17.85,10.67.13,21.35.13,32,.2,9.54.07,15.55,5,18.6,13.77,1.45,4.19,2.83,8.43,3.94,12.72,6.51,25.39,15.81,33.11,42.71,32.9,57-.47,114.08-.14,171.12-.14h42c-.71,2.31-2.49,1.23-3.61,1.75-1.75.81-3,2.09-2.72,4.1s2,2.82,3.86,2.81c3.26,0,6.53-.15,9.79-.28,7.42-.31,14.84-.89,22.25-.86,4.21,0,7.18-1,7.91-6.72,3.65,10,3.25,11-4.66,11.06Zm80.85-7.3c-.78,6.7-.16,13.56-.16,21.25H948.72c-23.26,0-22.05-1-22.05-1,0-5.4.26-10.73,0-16-.72-12.38-4.22-15.73-16.45-15.75q-57.93-.1-115.85-.06H667.83c-3.86,0-7.73-.1-11.59-.12-10.42-.06-17.46-5.3-21.27-14.65-2.45-6-4-12.4-6-18.59-1.28-3.94-2.31-8-4.15-11.7-4-7.86-10.34-12.8-19.22-14.28a97.38,97.38,0,0,0-16-1.11c-23.46,0-46.93.1-70.4.07-8.86,0-8.5,1.25-9-8.6-.15-2.65.14-5.31.23-8-1.42-5.34-.51-10.82-.92-16.22-.2-2.64-.08-5.3-3.51-6-3.26,1.48-2.09,4.46-2.17,6.87-.26,8.1-.3,16.22-.44,24.32.3.84.23,1.9-.61,2a1.92,1.92,0,0,1-2.2-1.6c0-.11,0-.22,0-.34a19.68,19.68,0,0,1-5.75-12.66,128.92,128.92,0,0,1-1-13.31q-.22-102.47-.3-204.92c0-10.85,1.68-21.24,7.78-30.55,5.93-9.09,14.35-14.87,24.4-18.41,7.82-2.76,15.76-5.18,23.6-7.87,14.18-4.84,18.1-12.52,13.68-26.62-1.16-3.68-2.25-7.39-3.73-10.94-1.37-3.23,2.89-5.79,1.24-8.23-1.52-2.23-4.88-3.06-5.75-6.29a66.66,66.66,0,0,0-2.59-6.81l59.5-18.71c.94,4.37,3.24,8.1,2.69,13.18-11.82.74-22.63,5.53-33.92,8.56a20.47,20.47,0,0,0-3.28,1.37c-1.76.8-1.83,2.39-1.45,4a3.31,3.31,0,0,0,2.91,2.58,10.16,10.16,0,0,0,3.51-.38c11.69-3.23,23.4-6.4,35.13-11.66,1.86,5.71,3.61,11.49,5.62,17.18,5.45,15.44,11,18.66,26.93,14.66,21.28-5.34,42.38-11.35,63.72-16.44,28.35-6.65,57.1-10.65,86.07-13.41,24.24-2.3,48.47-4.69,72.83-5.24,11.86-.27,16.4,4.14,16.66,16.38.28,13.36.13,26.72.14,40.09A41.13,41.13,0,0,0,890.45,392a21.21,21.21,0,0,0,15.49,14.57c8.69,2.13,17.55,1.08,26.33,1.19l75.12-.11c8.23-.12,15-3.06,19.44-10.42,2.54-4.24,3.07-8.91,3.08-13.7q0-18.27.08-36.53v-4.46c0-13.68,5.48-19.08,18.69-18.6,27,1,53.88,3.79,80.79,6,47.59,4,93.33,16.63,139.26,28.53.85.22,1.69.55,2.56.74,14.43,3.26,20.07.22,25-13.77,2-5.8,3.75-11.72,5.69-17.87,11.8,5.13,24,7.52,35.71,11.31,2.46.79,4.07.46,5.06-1.85,1.39-3.23-1-4.23-3.32-5-11.48-3.7-22.79-8-35.51-9.28,1.27-4.29,2.4-8.16,3.81-12.93l59.25,18.1c-2.39,4.46-1.37,10.31-7.4,12.27-1.63.53-1.71,2-.87,2.64,3.41,2.6,1.14,5.46.52,8.09-1.24,5.18-3.09,10.22-4.24,15.42-1.81,8.14,1.33,14.66,9,18.23,4.53,2.13,9.43,3.5,14.16,5.22,6.67,2.43,13.45,4.59,20,7.37,16.9,7.16,25.94,20.07,27.08,38.41.29,4.74.41,9.49.41,14.25v197.8c0,4.15-.15,8.32-.43,12.46a26,26,0,0,1-5.9,15.51c-2.44-1.56-2.09-3.7-2.14-5.62-.14-6.53-.13-13.06-.35-19.59-.08-2.17.7-5.23-2.88-5.44-4-.23-2.87,3-2.93,5.1-.18,6.82-.13,13.66-.19,20.49-.12,12.44-.13,12.53-12.22,12.59-17.82.08-35.65,0-53.47,0-9.2,0-18.41.22-27.62.28-11.82.09-19.59,6.24-24,16.7-2.73,6.54-4.65,13.42-6.74,20.21-5.3,17.25-11.53,22.26-29.43,22.29q-110.07.25-220.11.24c-10.4,0-20.79-.07-31.19.17-8.59.22-11.9,2.8-12.9,11.42ZM1751.8,413.1c-1.34,22.49-.44,45.12-.28,67.7,0,5.53-1,10.27-4.35,14.95-5.79,8.18-8.21,17.65-8.26,27.69-.05,11-.32,22-.05,33,.15,6-2,10.22-7.11,13.26-14,8.39-27.81,17-41.93,25.21-8.49,4.91-17.91,3-27,2.29-3-.22-2.33-3-2.34-4.89,0-8.62.1-17.23,0-25.84-.13-7.47-2.7-13.93-8.79-18.65-8.56-6.63-18.27-7.24-27.86.23-6.45,5-13,6.19-20.6,6.09-15.74-.21-31.5.36-47.23-.15-11.79-.37-19.3,4.64-23.24,15.39-9.49,25.87-18.79,51.81-28.34,77.65-4.1,11.08-1.35,20.25,6.67,28.41,11.24,11.45,22.46,22.91,33.53,34.51,10.07,10.54,15.56,22.94,14.63,37.83-1.49,23.45-21.66,43.58-45.18,45-1.48.08-3,.07-4.46.07q-146.16,0-292.31.09a132,132,0,0,1-34.31-4.43,922.57,922.57,0,0,0-125.84-23.77c-17.09-2.07-34.34-2.62-51.58-2.89-5.71-.09-6.8-1.74-5.51-7,.44-1.75,1-3.67,3.25-3.55,2.09.12,1.61,2.1,1.79,3.4.34,2.35,2,2.68,3.83,2.76,11,.46,22,.87,32.94,1.37,3.59.16,3.48-2.39,3.72-4.76l-4.15-2.64c4.17-2.17,7.15-1.49,10-1.49q102.24,0,204.48.24c8.09,0,15.92-.61,23.41-3.81,8.38-6.39,13.23-14.9,15.68-25.06,1.39-5.75,3.17-11.43,5.12-17,2.91-8.31,8.6-13.34,17.71-13.87,4.44-.26,8.88-.72,13.33-.74,23.76-.12,47.57-1,71.28.13,14.4.68,30.55-14.52,30.3-29-.12-6.83.24-13.66.25-20.49V447.86a176.4,176.4,0,0,0-.9-18.67c-1-8.76-5.66-16.07-11.51-24.95,11.2,4.31,20.75,7.72,30.1,11.62,31.17,13,61.67,27.5,92,42.3,4.47,2.19,6,5,6,9.64a83.58,83.58,0,0,1-2,18.52c-.41,1.87-1.23,4.35,1.57,5.21,3.23,1,4-1.57,4.74-3.87,2.74-8.61,4.52-17.6,1.94-26.28s-2.59-17.51-2.55-26.39c0-5.64.29-11.29.07-16.92-.15-3.93,1.27-5.18,5.14-4.89,13.94,1,27.9.69,41.87.68,11.57,0,22.35-2,32.06-8.66,4.79-3.32,10.26-4.19,16.1-4a218.34,218.34,0,0,0,24-.12c9.84-.77,15.41-6.92,15.9-16.88.33-7.12.1-14.26.14-21.38,0-1.79,0-3.57.08-5.35.17-3.22-.22-6.93,3.41-8.49,3.42-1.46,6.29.53,8.89,2.64,12,9.72,23.45,20.21,36.13,28.93C1748.15,388.7,1752.68,398.42,1751.8,413.1ZM266.42,610.45h0l.39.43Z"/><path class="cls-1" d="M1425.67,449.81c0-4.76-.12-9.51-.41-14.25-1.14-18.34-10.18-31.25-27.08-38.41-6.54-2.78-13.32-4.94-20-7.37-4.73-1.72-9.63-3.09-14.16-5.22-7.63-3.57-10.77-10.09-9-18.23,1.15-5.2,3-10.24,4.24-15.42.62-2.63,2.89-5.49-.52-8.09-.84-.64-.76-2.11.87-2.64,6-2,5-7.81,7.4-12.27l-59.25-18.1c-1.41,4.77-2.54,8.64-3.81,12.93,12.72,1.25,24,5.58,35.51,9.28,2.32.75,4.71,1.75,3.32,5-1,2.31-2.6,2.64-5.06,1.85-11.74-3.79-23.91-6.18-35.71-11.31-1.94,6.15-3.64,12.07-5.69,17.87-5,14-10.61,17-25,13.77-.87-.19-1.71-.52-2.56-.74-45.93-11.9-91.67-24.57-139.26-28.53-26.91-2.23-53.77-5.05-80.79-6-13.21-.48-18.66,4.92-18.69,18.6V347q0,18.27-.08,36.53c0,4.79-.54,9.46-3.08,13.7-4.42,7.36-11.21,10.3-19.44,10.42l-75.12.11c-8.78-.11-17.64.94-26.33-1.19A21.21,21.21,0,0,1,890.45,392a41.49,41.49,0,0,1-1.25-11.48c0-13.37.14-26.73-.14-40.09-.26-12.24-4.8-16.65-16.66-16.38-24.36.55-48.59,2.94-72.83,5.24-29,2.75-57.72,6.75-86.09,13.52-21.34,5.09-42.44,11.1-63.72,16.44-15.93,4-21.48.78-26.93-14.66-2-5.69-3.76-11.47-5.62-17.18-11.73,5.26-23.44,8.43-35.13,11.66a10.16,10.16,0,0,1-3.51.38,3.32,3.32,0,0,1-2.91-2.58c-.38-1.62-.31-3.21,1.45-4a20.47,20.47,0,0,1,3.28-1.37c11.29-3,22.1-7.82,33.92-8.56.55-5.08-1.75-8.81-2.69-13.18l-59.5,18.71a66.66,66.66,0,0,1,2.59,6.81c.87,3.23,4.23,4.06,5.75,6.29,1.65,2.44-2.61,5-1.24,8.23,1.48,3.55,2.57,7.26,3.73,10.94,4.42,14.1.5,21.78-13.68,26.62-7.84,2.69-15.78,5.11-23.6,7.87-10,3.54-18.47,9.32-24.4,18.41-6.1,9.31-7.8,19.7-7.78,30.55q.13,102.46.3,204.92a128.92,128.92,0,0,0,1,13.31A19.74,19.74,0,0,0,500.51,675a1.92,1.92,0,0,0,1.88,2,1.3,1.3,0,0,0,.34,0c.84-.1.91-1.16.61-2,.14-8.1.18-16.22.44-24.32.08-2.41-1.09-5.39,2.17-6.87,3.43.65,3.31,3.31,3.51,6,.41,5.4-.5,10.88.92,16.22-.09,2.66-.38,5.32-.23,8,.54,9.85.18,8.59,9,8.6q35.21,0,70.4-.07a97.38,97.38,0,0,1,16,1.11c8.88,1.48,15.25,6.42,19.22,14.28,1.84,3.67,2.87,7.76,4.15,11.7,2,6.19,3.53,12.58,6,18.59,3.81,9.35,10.85,14.59,21.27,14.65,3.86,0,7.73.12,11.59.12H794.32q57.91,0,115.85.06c12.23,0,15.73,3.37,16.45,15.75.31,5.31,0,10.64,0,16,0,0-1.21,1,22,1H993c0-7.69-.62-14.55.16-21.25,1-8.62,4.31-11.2,13-11.4,10.4-.24,20.79-.16,31.19-.17l220.11-.24c17.9,0,24.13-5,29.43-22.29,2.09-6.79,4-13.67,6.74-20.21,4.37-10.46,12.14-16.61,24-16.7,9.21-.06,18.42-.25,27.62-.28,17.82,0,35.65,0,53.47,0,12.09-.06,12.1-.15,12.22-12.59.06-6.83,0-13.67.19-20.49.06-2.06-1-5.33,2.93-5.1,3.58.21,2.8,3.27,2.88,5.44.22,6.53.21,13.06.35,19.59,0,1.92-.3,4.06,2.14,5.62,3.94-4.65,5.51-9.88,5.9-15.51.28-4.14.42-8.31.43-12.46Q1425.7,548.71,1425.67,449.81ZM503.81,437.4h.38V418.85c0-1.78.45-3.7,2.79-3.68,1.85,0,2.26,1.69,2.38,3.13,1,12.06.46,24.13,0,36.19-.07,2.07-1.37,3.12-3.52,2.91s-2.07-1.81-2.08-3.22C503.77,448.58,503.81,443,503.81,437.4Zm.28,96.39c0-1.88.15-3.73,2.54-3.8,3-.08,2.94,2.21,2.94,4.32v16.84h.07V568c0,2.07.14,4.43-3,4.2-2.32-.17-2.54-1.92-2.53-3.83Q504.16,551.08,504.09,533.79Zm-.1-38.93V477.15c0-1.89.25-3.59,2.8-3.48s2.71,1.84,2.72,3.66q.11,17.28.11,34.56c0,1.75,0,3.74-2.45,3.94-3.08.25-3.11-2-3.12-4.12V494.86Zm5.48,129.21c.29,4.17-1.78,5.13-5.39,4.33,0-11.81,0-23.61.07-35.42a25.57,25.57,0,0,1,.42-5.24c.14-.6,1.19-1.22,1.93-1.42a2,2,0,0,1,2.56,1.2,1.86,1.86,0,0,1,.1.39,36,36,0,0,1,.32,5.29c.18,8.84.32,17.7.48,26.54A22.44,22.44,0,0,0,509.47,624.07Zm197.15-21.35c-4,1.09-8.29.7-12,2.91a8.94,8.94,0,0,0-5.19.44l-16.85.4c-2-1.33-4.24-1-6.45-.86-36.9-3.86-72.24-36.9-80.22-75-11.71-55.94,24.93-109.07,81.5-116.93,43.86-6.09,93.65,20.05,106.75,72.93,13.31,53.57-20.67,103.19-67.54,116.11Zm533.06,3.51c-54.37-.42-96.82-41.13-97.17-95.34-.41-64.26,52-97.66,94.67-98,51.34-.42,98.52,38.8,98.6,96,.09,59.11-46.71,97.59-96.1,97.34Zm171.23-128.6c0-1.71-.09-3.65,2.51-3.77,2.95-.16,3.36,1.79,3.37,4,.08,11.26.1,22.53.19,33.8,0,2.3-1.14,3-3.29,3-2.35,0-3-1.24-3-3.3V493.57h.22c0-5.27-.06-10.57,0-15.94Zm6,146.24c0,2.08.1,4.33-3.07,4.14-2.24-.14-3.08-1.48-3.07-3.5q0-17.31.13-34.61c0-1.55.44-2.92,2.46-2.88s3.33.85,3.32,3.13v18.63h.24q.12,7.54,0,15.09Zm.07-55.93c0,1.93-.53,3.45-3,3.31a3.06,3.06,0,0,1-3.27-2.84,2.79,2.79,0,0,1,0-.5c0-11.5.07-23,.15-34.51,0-1.55.4-2.84,2.36-2.91s3.37.71,3.37,3v18.57h.37c0,5.26,0,10.58,0,15.88Zm0-114.43c0,1.93-.59,3.49-3.08,3.27-2.11-.19-3.27-1.31-3.3-3.37-.06-5.93,0-11.85,0-17.77h.38c0-5.33-.06-10.67,0-16,0-1.71,0-3.86,2.37-4.06,3-.25,3.13,2.07,3.3,4.19.88,11.23.61,22.48.35,33.74Z"/><path d="M1237.18,412.88c-42.66.35-95.08,33.75-94.67,98,.35,54.21,42.8,94.92,97.17,95.34,49.39.25,96.19-38.22,96.1-97.35C1335.7,451.68,1288.52,412.46,1237.18,412.88Zm1.5,186.23c-43.68.54-87.25-33.31-89.14-88-1.68-48.52,39.23-90.25,88.13-91.05,49.13-.81,90.6,38.84,90.91,88.11C1328.93,562,1287.05,598.56,1238.68,599.11Z"/><path d="M774.19,486.58c-13.1-52.88-62.89-79-106.75-72.93-56.57,7.86-93.21,61-81.5,116.93,8,38.13,43.32,71.17,80.22,75,2.21-.16,4.44-.47,6.45.86l16.85-.4a8.94,8.94,0,0,1,5.19-.44c3.68-2.21,8-1.82,12-2.91C753.49,589.8,787.47,540.18,774.19,486.58ZM679.52,599.05c-50.27-.44-88.53-40.33-88.69-91-.14-39.43,32.62-88.39,92-88,43.12.31,87,36.74,87,90.28C769.76,559.67,728.9,599.47,679.52,599.05Z"/><path d="M1417,453.51c0,1.93-.59,3.49-3.08,3.27-2.11-.19-3.27-1.31-3.3-3.37-.06-5.93,0-11.85,0-17.77h.38c0-5.33-.06-10.67,0-16,0-1.71,0-3.86,2.37-4.06,3-.25,3.13,2.07,3.3,4.19C1417.53,431,1417.26,442.25,1417,453.51Z"/><path d="M509.43,454.49c-.07,2.07-1.37,3.12-3.52,2.91s-2.07-1.81-2.08-3.22c-.06-5.6,0-11.19,0-16.78h.38V418.85c0-1.78.45-3.7,2.79-3.68,1.85,0,2.26,1.69,2.38,3.13C510.39,430.36,509.85,442.43,509.43,454.49Z"/><path d="M1416.94,623.87c0,2.08.1,4.33-3.07,4.14-2.24-.14-3.08-1.48-3.07-3.5q0-17.31.13-34.61c0-1.55.44-2.92,2.46-2.88s3.33.85,3.32,3.13v18.63h.24Q1417,616.32,1416.94,623.87Z"/><path d="M509.63,568c0,2.07.14,4.43-3,4.2-2.32-.17-2.54-1.92-2.53-3.83V533.82c0-1.88.15-3.73,2.54-3.8,3-.08,2.94,2.21,2.94,4.32v16.84h.07C509.64,556.75,509.66,562.36,509.63,568Z"/><path d="M509.47,624.07c.29,4.17-1.78,5.13-5.39,4.33,0-11.81,0-23.61.07-35.42a25.57,25.57,0,0,1,.42-5.24c.14-.6,1.19-1.22,1.93-1.42a2,2,0,0,1,2.56,1.2,1.86,1.86,0,0,1,.1.39,36,36,0,0,1,.32,5.29c.18,8.84.32,17.7.48,26.54A22.44,22.44,0,0,0,509.47,624.07Z"/><path d="M509.62,511.89c0,1.75,0,3.74-2.45,3.94-3.08.25-3.11-2-3.12-4.12V494.86H504V477.15c0-1.89.25-3.59,2.8-3.48s2.71,1.84,2.72,3.66Q509.63,494.61,509.62,511.89Z"/><path d="M1417,567.94c0,1.93-.53,3.45-3,3.31a3.06,3.06,0,0,1-3.27-2.84,2.79,2.79,0,0,1,0-.5c0-11.5.07-23,.15-34.51,0-1.55.4-2.84,2.36-2.91s3.37.71,3.37,3v18.57h.37C1417,557.32,1417,562.64,1417,567.94Z"/><path d="M1417,511.69c0,2.3-1.14,3-3.29,3-2.35,0-3-1.24-3-3.3V493.6h.22v-16c0-1.71-.09-3.65,2.51-3.77,3-.16,3.36,1.79,3.37,4C1416.87,489.15,1416.89,500.42,1417,511.69Z"/><path d="M414.15,773.14c-7.2.09-12.53-3.18-16-9.33a70.93,70.93,0,0,1-7.68-20.74c-1.83-9,3.46-18.1,12-21.52a18.72,18.72,0,0,1,23.16,8,65.63,65.63,0,0,1,8.28,23.29C435.58,763.47,425.91,773.06,414.15,773.14Zm-3.88-45.51c-8.27-.2-14.27,6.17-12.84,13.8a53.22,53.22,0,0,0,7.45,18.8c3.15,4.93,8.21,6.59,13,4.9,6.07-2.17,8.92-6.52,8.25-12.92-.75-7.2-3.75-13.58-7.53-19.63C416.54,729.34,413.61,727.61,410.27,727.63Z"/><path d="M510.09,762.33a3.92,3.92,0,0,0,.09,3.8c-.08,1.46-.21,2.93-.22,4.4,0,4.83.05,9.56,6,11.35a3.09,3.09,0,0,1,2.24,3.74,2.84,2.84,0,0,1-.17.49c-.58,1.71-2.27,1.72-3.68,1.63A54.8,54.8,0,0,1,482,775.05a13.32,13.32,0,0,1-1.67-2c-.77-1-1.16-2.24-.42-3.25a2.46,2.46,0,0,1,3.17-.63c2.43,1.06,4.87,2.09,7.31,3.12,4,1.7,7.83,4,13.28,4.78,0-5.07-.08-9.64,0-14.21,0-1.88-1-4.54,1.65-5.26C509.16,756.52,509.37,759.84,510.09,762.33Z"/><path d="M413.93,613.58c2.24-.05,3.82.59,4.73,3,3.85,10.17,7.62,20.37,10.56,30.86a10.07,10.07,0,0,1,.4,2.61c0,1.94-.74,3.35-2.81,3.86a3.22,3.22,0,0,1-4.08-2,1.42,1.42,0,0,1-.07-.22c-4.24-11.26-8.4-22.56-11.65-34.17C410.28,614.88,411.09,613.48,413.93,613.58Z"/><path d="M718.1,778.59c7.54-1.41,15.07-2.85,22.62-4.21,2-.36,4.51-.94,5.16,1.79s-1.1,4.65-3.6,5.31c-11.4,3-22.75,6.41-34.65,6.93-1.75.07-3.8,0-3.89-2.47-.07-2.08.08-4.24,2.81-4.78l7.8-1.56A3.43,3.43,0,0,0,718.1,778.59Z"/><path d="M410.72,594.13c0,2.69-1.07,4.74-3.61,5.53-3,.94-3.35-1.87-4-3.55a331.3,331.3,0,0,1-10.79-31.7c-.56-1.87-.5-3.53,1.39-4.55a3,3,0,0,1,4.43,1.47C403.37,571.87,407.24,583,410.72,594.13Z"/><path d="M801.16,765.66c0,1.66-.59,3-2.24,3.41-11.75,3.14-23.73,5.17-35.68,7.33-1.76.31-2.76-.65-3-2.38s-.54-3.62,1.64-4.47a29.81,29.81,0,0,1,4.23-1.37c9.54-2.17,19-4.53,28.8-5.62C797.5,762.27,800.47,761.87,801.16,765.66Z"/><path d="M391.43,540.12c.07,2.21-.18,4-2.22,4.7-2.24.75-3.26-.9-4-2.55-4.33-10-8.64-20.08-10.95-30.82-.51-2.36-.78-5,2.42-5.69,2.71-.57,3.36,1.83,4,3.76q5.11,14.16,10.14,28.35A17.82,17.82,0,0,1,391.43,540.12Z"/><path d="M823,765.78c-2.5,0-5.29,1.07-6-2.41s1.38-4.56,4.45-5.08a220.6,220.6,0,0,1,30-3.43c2.17-.07,5.1-.85,5.62,2.63.64,4.29-3.08,3.83-5.33,4.19C842.07,763.24,832.38,764.47,823,765.78Z"/><path d="M577.15,785.58c-1.83,1.24-2.95,3.27-5.81,3.25-11.44-.1-22.88.07-34.31.33-4.15.09-5-2-4.55-5.49,12.26-.07,24.53-.25,36.79-.12C571.92,783.57,575.22,782.3,577.15,785.58Z"/><path d="M691.37,785.53a6,6,0,0,1-5.74,3.35c-11.25,0-22.5,0-33.75.14-2.7,0-4.53-1-5.55-3.46l.26-1.75h0c12.33-.18,24.66-.48,37-.45C686.21,783.37,689.6,781.93,691.37,785.53Z"/><path d="M633.69,785.65a5.9,5.9,0,0,1-5.64,3.28c-10.62-.08-21.24,0-31.87.16-3.78.06-6.3-1.13-6.53-5.3,14.2-1.27,28.43,0,42.64-.36l.52.13C633.1,784.25,633.39,785,633.69,785.65Z"/><path d="M503.79,721.65V704c0-1.68.67-2.79,2.57-2.66,1.55.11,3,.53,3.18,2.33a42.56,42.56,0,0,1,.32,5.29c0,9.44,0,18.88-.14,28.31,0,2.29,1.27,5.89-3.24,5.68-3.83-.18-2.56-3.26-2.62-5.33-.14-5.3-.05-10.61-.05-15.92Z"/><path d="M1410.43,765.79c.22-1.44.52-2.86.65-4.31.19-1.9.59-3.6,3-3.27,2.07.28,3,1.68,3,3.7v14.52c4.5-.28,7.67-3,11.33-4.4,1.65-.61,3.2-1.48,4.85-2.06,2-.7,4.37-1.36,5.84.26,2.08,2.29-.58,4.2-1.38,6.23-7.4,3.61-14.3,8.34-22.6,10a36.23,36.23,0,0,1-10.58,1c-4.4-.44-4.8-2.72-2.32-6l.15-.11c7.56-2.48,7.59-2.48,8.08-9.63C1410.58,769.76,1410.44,767.77,1410.43,765.79Z"/><path d="M1123.88,762.71a248.15,248.15,0,0,1,30.92,6.1c1.37.37,3,.52,3.5,2.24a5.13,5.13,0,0,1,0,4.27c-.71,1.27-2,.94-3.14.71-4.62-.93-9.22-1.93-13.84-2.85q-9.54-1.9-19.1-3.71c-2.46-.47-5-1.17-4.37-4.3S1121.22,762.52,1123.88,762.71Z"/><path d="M1479,703.55c-1.67,3.57-4.44,4.29-8,3.08a6.42,6.42,0,0,1-.36-5.13c3.58-9.66,7.1-19.35,10.69-29a22.19,22.19,0,0,1,1.58-3.16c.77-1.36,1.95-2.4,3.56-1.91a3.38,3.38,0,0,1,2.34,4.17v0c-.48,2.3-1.32,4.52-2,6.79C1484.43,686.85,1480.46,694.81,1479,703.55Z"/><path d="M1209.31,787.59c-11.51-.48-21.35-3.75-31.39-6.05-2.13-.49-3.82-1.57-3.64-4.21.22-3.15,2.55-2.79,4.51-2.55,3.5.44,7,1.06,10.44,1.8,7.2,1.53,14.36,3.24,21.56,4.76,2.64.56,4.72,1.79,4.27,4.6-.49,3-3.21,1.59-5.08,1.7C1209.39,787.67,1208.8,787.55,1209.31,787.59Z"/><path d="M1507.19,619.76c-3.26,9.19-7.06,20-10.94,30.79-.5,1.37-1.41,2.71-3.25,2.18-1.42-.42-2.86-1.2-3-2.83a10.41,10.41,0,0,1,.42-4.33c3.15-9.15,6.41-18.27,9.68-27.39a9,9,0,0,1,1.58-3.1,4,4,0,0,1,4.86-.93C1508.11,614.91,1507.75,616.6,1507.19,619.76Z"/><path d="M1097.45,765.6l-31.4-5-.88-.14c-1.87-.33-3.48-1-3.42-3.26.06-2.49,2-2.62,3.79-2.51a255.86,255.86,0,0,1,33.34,3.93c2.12.42,4.26.89,3.91,3.69C1102.39,765.49,1100,765.7,1097.45,765.6Z"/><path d="M1525.8,559.69c1.38,2,.55,3.6.1,5.32a239.16,239.16,0,0,1-11.12,32.65c-.61,1.44-1.36,2.68-3.18,2.29a2.25,2.25,0,0,1-1.81-2.62v-.05c3.53-13,6.43-26.22,14.52-37.43C1524.43,559.7,1524.86,559.78,1525.8,559.69Z"/><path d="M1545.31,510.82c-1.14,3.39-2.28,7-3.57,10.59q-3.73,10.35-7.63,20.63c-.65,1.72-1.82,3.39-3.9,2.61s-1.57-3-1-4.53q5.18-15.43,10.63-30.76c.55-1.54,1.19-3.7,3.45-3.24S1544.67,508.92,1545.31,510.82Z"/><path d="M1328.8,788.85c-11.28,0-22.56.11-33.85,0-3.76,0-8.06.43-8.61-5.15h.11l5.4-.37q16,.79,32,0l7.11.61a2.17,2.17,0,0,0,.24,1.65c-.18.55-.36,1.1-.55,1.64A2,2,0,0,0,1328.8,788.85Z"/><path d="M1348.82,783.27c10.06.07,20.12,0,30.17.28,2.75.08,6-1.28,8.27,1.64-1,3.17-3.1,4.17-6.53,4.07-11.7-.33-23.41-.27-35.11-.36a2.06,2.06,0,0,0-2.14-1l-1.2-2.26,1.16-1.89Z"/><path d="M1272.08,783.81c.28,2.65-.14,4.79-3.49,4.81-11.82.11-23.64.24-35.46.31-3.6,0-4.34-2.37-4.25-5.35Z"/><path d="M1417.4,739.16c-.65,3.41-3.2,3.57-5.91,3.48-1.48-12.4-.41-24.84-.52-37.25,0-1.72-.09-3.66,2.45-3.85,2.88-.21,3.4,1.6,3.42,3.91,0,8,.08,16,.19,24C1417.07,732.67,1417.27,735.92,1417.4,739.16Z"/><path d="M860,287.35c11.82,2.24,21.91,8.87,29.78,19.1a2.39,2.39,0,0,1,.16,3.21,3.29,3.29,0,0,1-3.28.83,8.78,8.78,0,0,1-4.5-2.71c-6-6.47-13.45-10.49-21.48-13.69a17,17,0,0,1-3.18-1.48c-1.23-.82-2.51-2-2.18-3.54C855.74,287.2,857.57,287.56,860,287.35Z"/><path d="M1061,287.35c1.24,0,2.38.2,2.93,1.47.75,1.71-.26,2.87-1.54,3.64a22.21,22.21,0,0,1-4.06,1.7,63.93,63.93,0,0,0-21.83,13.3,30,30,0,0,1-3.44,2.72,3,3,0,0,1-4-.63c-.89-.92-.57-2.07,0-3.23C1033,298.42,1052,287.1,1061,287.35Z"/><path d="M1449.13,758c-.23-3.34,1.7-5.72,3.06-8.27a177.22,177.22,0,0,0,9.76-21.8c.81-2.16,1.43-4.54,3.55-6a2.67,2.67,0,0,1,4.38,2.09,12.25,12.25,0,0,1-.25,3.52c-2.31,9.85-5.89,19.15-11.74,27.52C1455.57,758.41,1453.11,760.19,1449.13,758Z"/><path d="M1214.84,509.43c.2-13.95,10.65-24.36,24.28-24.18a24.42,24.42,0,0,1,24.49,24.35c0,.26,0,.52,0,.78a24.77,24.77,0,0,1-25,23.82A24,24,0,0,1,1214.83,510C1214.83,509.79,1214.83,509.61,1214.84,509.43Zm25.26-16.82c-10.16-.43-18,6.57-18.35,16.38a17.82,17.82,0,0,0,16.73,18.34c9.22.41,17.69-7.71,17.92-17.18A17.06,17.06,0,0,0,1240.1,492.61Z"/><path d="M680.72,534.22c-13.42.1-24.74-10.59-25-23.64A24.3,24.3,0,0,1,679,485.27l.9,0c13.52-.27,25.46,11.29,25.23,24.44S693.7,534.13,680.72,534.22Zm16.88-24.77c-.15-10.08-7.54-17-17.86-16.74-9.78.24-17.18,7.48-17.2,16.8,0,9,8.86,17.83,17.72,17.75a17.85,17.85,0,0,0,17.34-17.81Z"/><rect class="cls-1" width="1" height="1"/><rect class="cls-1" x="1919" y="1079" width="1" height="1"/><rect class="cls-1" y="1079" width="1" height="1"/><rect class="cls-1" x="1919" width="1" height="1"/></g><g id="Capa_3-2" data-name="Capa 3"><path d="M825.78,618.75v93.63H809.06V652.72L792.6,665.3,779,675.86,765.32,665.3l-16.45-12.58v59.66H732.15V618.75l16.72,12.84L779,654.73l30.1-23.14Z"/><path d="M871.25,649.92v63.66H854.53v-65.4a13.32,13.32,0,0,0-11.37-11.37h-3.74V620.22H843v.13a29.88,29.88,0,0,1,24.88,16.72,36,36,0,0,1,2.27,6.29,27.48,27.48,0,0,1,.8,6.82Z"/><path d="M977.59,695.93v16.72H884.22V685.09a26.58,26.58,0,0,1,2.28-10.83,27.44,27.44,0,0,1,24.34-16.85h40.53a10.93,10.93,0,0,0-.93-21.81h-66V618.88h66A27.52,27.52,0,0,1,978,646.36v.08a27.3,27.3,0,0,1-7.89,19.13A27.81,27.81,0,0,1,951.24,674h-40.4a10.89,10.89,0,0,0-9.76,10.84v10.83Z"/><path d="M1082.85,635.6a29,29,0,0,1,2.14,10.84v38.39a27.56,27.56,0,0,1-8.83,20.33,28.2,28.2,0,0,1-6.15,4.41,26.47,26.47,0,0,1-12.57,3.08H999.25V695.93h58.19a11,11,0,0,0,11-11V671.85A27.54,27.54,0,0,1,1058,674h-39.45a27.62,27.62,0,0,1,.4-55.24h38.38a27.5,27.5,0,0,1,25.42,16.85Zm-74.77,10.84a11,11,0,0,0,10.44,11H1058a11,11,0,0,0-.53-21.94h-38.39a11,11,0,0,0-11,10.94Z"/><path d="M1157.49,618.75a30.2,30.2,0,0,1,30.23,30.17V682a30.2,30.2,0,0,1-30.17,30.23h-29a30.2,30.2,0,0,1-30.23-30.17V649a30.2,30.2,0,0,1,30.17-30.23h.06Zm-28.89,16.72a13.7,13.7,0,0,0-13.6,13.64v33a13.7,13.7,0,0,0,13.65,13.64h28.89a13.7,13.7,0,0,0,13.64-13.64v-33a13.7,13.7,0,0,0-13.64-13.64Z"/></g></g><path class="cls-2" d="M828,531.16l-5.79,20.49-2.81,10-7.31,25.71H801.67L809,561.69l2.81-10,5.78-20.49Z"/><path class="cls-2" d="M892.31,530V586.2h-10V550.36l-9.89,7.56-8.19,6.34-8.2-6.34-9.88-7.56V586.2h-10V530l10,7.72,18.08,13.9,18.08-13.9Z"/><path class="cls-2" d="M919.63,548.67v38.25h-10V547.63a8,8,0,0,0-6.83-6.83h-2.25v-10h2.17v.08a17.93,17.93,0,0,1,14.94,10,20.59,20.59,0,0,1,1.37,3.78,16.86,16.86,0,0,1,.48,4.09Z"/><path class="cls-2" d="M983.68,530V586.2h-10V563.06H944a15.86,15.86,0,0,1-7.55-1.85,16.4,16.4,0,0,1-9-14.71V530h10V546.5a6.62,6.62,0,0,0,6.59,6.59h29.65V530Z"/><path class="cls-2" d="M1047.8,576.32v10H991.71V569.81a16.08,16.08,0,0,1,1.37-6.51,16.52,16.52,0,0,1,14.62-10.13h24.35a6.56,6.56,0,0,0-.56-13.09H991.87V530h39.62A16.53,16.53,0,0,1,1048,546.58a16.5,16.5,0,0,1-4.74,11.5,16.69,16.69,0,0,1-11.33,5.06H1007.7a6.53,6.53,0,0,0-5.86,6.51v6.51Z"/><path class="cls-2" d="M1112.24,530V586.2h-10V563.06h-29.65a15.86,15.86,0,0,1-7.55-1.85,16.4,16.4,0,0,1-9-14.71V530h10V546.5a6.62,6.62,0,0,0,6.59,6.59h29.65V530Z"/></g></g></svg>