<svg xmlns="http://www.w3.org/2000/svg" viewBox="0 0 1920 1080"><defs><style>.cls-1{fill:#010101;}.cls-2{fill:#f2f2f2;}</style></defs><g id="Capa_2" data-name="Capa 2"><g id="Capa_1-2" data-name="Capa 1"><path class="cls-1" d="M1728,379.47c-5.72-2.72-15.61-1.66-22.09-1.66-52.73,0-105.48-.93-158.18.43-32.17.82-62.2-4.83-92.37-15.89C1395.8,340.54,1335.76,320,1274,305.29c-18-4.28-40.09-8.73-58.27-12.46l-2.57-1c-2.57-1-9.74-20-9.74-20l-54.24-110c-12.16-27.87-33.55-46.33-63-53.09-40.56-9.31-80-4-117.56,14.1-5.27,2.54-12.18,8-15.74,6.34-5.72-2.61-1-10.9-2.35-16.6-.59-2.66,1.53-7.38-3.33-7.14-4.32.23-3.13,4.77-3.2,7.55-.36,12.4-.47,24.81-.54,37.22-.08,13.65-.1,27.3,0,40.94,0,2.94-.62,7.19,3.55,7.45,4.79.3,3.5-4.17,3.58-7,.2-7.12.15-14.27.05-21.4-.05-3.34.66-5.85,4-7.56,32.39-16.47,65.81-29,103-26.1,29,2.25,50.81,13.84,62.34,42.95,11,27.81,24.9,54.5,37.53,81.68l11.46,24c-34.44-4.33-57.21-7.1-91.37-11.39-38-3.74-101-4.67-101.89-4.91L952,269a1423.27,1423.27,0,0,0-143.85,8.91c-61,6.87-121.52,16.76-181,32.3-57.54,15-113.78,34.4-169.54,54.89-24.56,9-49,13.62-75.24,13.11-52.1-1-104.23-.39-156.37-.24-13.11,0-26.6-2.07-39.34,5.79-4.19,2.24-4.62,9.39-4.62,9.39V509.37c0,6.54-.22,13.28,3,19.11,4.08,7.43,4.51,15.29,4.45,23.4-.07,7.76,0,15.51.11,23.26s1.9,14.88,7.25,20.58c7.62,8.16,15.55,16,23.32,24,5.49,5.66,12.35,8.15,20,8.28,11.48.19,23,.36,34.44,0,11.22-.33,17.68-6.76,18.35-18,.43-7.41-.06-14.9.3-22.31.5-10.49,8.75-15.41,17.28-9.67,9,6.07,18.65,7.77,29.1,7.54,8.68-.16,17.38,0,26.06,0,3.54,0,6.35.22,7.93,4.52,13.53,36.83,27.33,73.56,41,110.31l33.88,89.07c11.42,24.85,27,46.48,48.93,63.24,30.57,22.8,65.24,30.57,102.92,30.4l750,0c3.93,0,23.25-4.84,23.25-4.84a218,218,0,0,0,49.21-25.43c20.23-16.33,36.54-35.8,47.37-59.62q17.79-46.41,35.57-92.84c11.38-30.4,22.63-60.87,34.24-91.18,3-7.74,3.09-18.85,9.61-22.35,6.76-3.67,16.88-1.21,25.52-1.28,11.46-.1,22.78.41,33.14-6.5s17.79-2.85,19.22,9.46a64.73,64.73,0,0,1,.11,8.36c-.18,28.59,2.87,30,31,31.8,24.32,1.54,41.93-6.46,57.74-24.48,9.69-11,15.48-21.6,14.64-36.36-.61-10.76-2.66-22.5,1.88-32.22,5.07-10.84,5-21.52,5-32.58V393.72C1738,384.18,1732.27,381.52,1728,379.47ZM1159.87,248.82c-12.09-24.35-23.66-49-33.85-74.25-12.61-31.2-37-43.06-68.23-45.36-34.74-2.57-66.68,7.31-97.45,22.3-2.93,1.42-7.57,6.24-9.11,2.11-1.68-4.51-4-11.93,3-15.69,24.7-13.22,50.44-23.8,78.77-25.28,21-1.09,42.21-2.27,62.21,6.54,27.92,12.3,40.27,29.1,52.64,56.2,12.52,27.47,55.1,114.2,55.1,114.2l-24.88-3.84C1176.07,281,1159.87,248.82,1159.87,248.82ZM967.75,283.48c5.89-.09,11.77,0,17.68,0,60.63,2.78,121.15,6.64,181.14,16.47,7.31,1.21,14.68,2,22,3.35,1.8.32,5,.39,4.06,3.64-.64,2.16-3.11,1.47-4.81,1.24-15.35-1.95-30.7-4-46-6-49.49-6.58-99.13-11-149.09-11.38-8.36-.06-16.72-.54-25.09-.65-2.85,0-5-.49-4.73-4S965.78,283.52,967.75,283.48Zm384.63,109.3c0,2.28-1,5.69,2.51,6,4.16.45,3.88-3.61,4-6q.72-12,.52-24.14c-.1-4.75,1-6.09,5.81-4.15,8,3.24,16.37,5.3,25.3,4.76a14.23,14.23,0,0,1,8.69,2.61c14.09,10.75,30,16.06,47.54,17.06a19.09,19.09,0,0,1,10.15,4.23c12,9,25.65,14.51,39.43,20.14,14.52,5.9,22.11,19.89,22.79,33.66,1.67,34.57,4.11,69.51-1.42,103.88-3.69,22.86-14.21,44-22,65.86-9.93,27.94-20,55.85-30,83.77-10.15,28.69-18.46,58.08-31.94,85.52-1.74,3.5-4.53,6.48-6.84,9.68-14.57,23-36.27,36.53-61.11,45.81-3.51,1.32-6.62,1.91-6.69-3.73,0-3-.56-7.13-4.7-6.58-3.83.51-2,4.53-2,6.92-.09,4.43-.31,7.5-6.22,7.84l-747.57,1.08c-5.57,0-11.16-.41-16.73-.56-7.3-.21-14.58-.24-13.06-11,.25-1.71-.83-4-3-4.08-3.39-.18-2.91,2.87-2.85,4.72.16,5.45-2,7.65-7.27,5.68-25.74-9.63-48.48-23.3-63.29-47.52C482.2,780.84,477.23,765,471.68,749.4c-5.78-16.21-11.35-32.47-17-48.71-17.49-49.74-36.95-98.78-52-149.33-3.49-11.65-2.57-24-2.63-36-.09-21.7-.61-43.4.67-65.1.8-13.56,8.07-23.75,16.26-33.58,3.28-4,8.52-3.25,12.58-5.09,11.23-5.08,22.91-9.5,32.78-17.23,4.53-3.54,9.41-4.77,15.25-5.46a98,98,0,0,0,40.67-14.28c5.49-3.43,10.48-5.91,17.13-5.37,7.25.58,13.88-2.66,20.55-5.05,4.84-1.71,7.43-1.5,6.93,4.9-.6,7.71-.24,15.48-.24,23.25,0,2.53.16,5.57,3.31,5.74,3.58.18,3.26-3.3,3.36-5.54.29-7.43.42-14.88.29-22.31-.22-12,7.44-19.26,19.41-19.28,15.95,0,31.24-3.05,44.73-12.35,2.31-1.58,4.95-3.65,7.63-2.87,13,3.76,24.74-2.4,37-3.93,11.27-8.59,23.6-11.55,37.33-7,12-3.73,24.92-4.23,36.17-11.05,3.6-2.16,9.3-4.43,13.19,1.69.62,1,4.08.54,6.15.23,12.65-2,25.95-.8,37.27-9.17,2.7-2,8.29-2,11.72-.76,15.77,5.89,30.47,1.3,45.22-3.52,5.63-1.84,10.53-2.53,16.82-.26,13.17,4.77,26.94,1.47,40.15-1.44,6.59-1.45,12.51-5.45,18.72.75,1,1,3.52.74,5.34.84l22.58,0c4.64.35,9.07-.06,13.35-2.81,3.41-2.2,8.4-2.76,11.68-.9,10.92,6.19,22.88,4.08,34.37,5.57a21.31,21.31,0,0,0,12.52-2.29c5.08-2.53,10.74-2.89,15.47,1.57,5.16,4.86,11.93,3,17.81,3.57,9.07.84,18.42,5.27,27.68-1.28,2.39-1.7,8.77-.65,11.46,1.47,11.45,9.15,25.37,6.84,38.2,8.81,4.84.76,10.86-7.38,15.7-1.92,3.6,4.08-2.68,12.48-.35,15.61,5.68,7.6.41,10.88-2.63,16.21-2.49,4.39-2.92,10-4,15.14-.54,2.55-2,5.89,2.23,6.74,3.73.77,3.45-2.55,4.16-4.77.37-1.19.8-2.38,3-2,0,9.15.13,18.31-.08,27.46,0,2.92,0,7-4.5,6.57-4.23-.42-2.2-4.3-2.48-6.76a29.06,29.06,0,0,1,.33-3.69c.13-3.57,4.33-8.92-1.69-10-4.45-.82-4.12,5.2-5.23,8.52-3.3,9.61-2.59,18.21,6.81,24.27,8.14,5.23,5.54,13.2,4.6,20.19-.82,6.18-2,12-.28,18.29,1.49,5.53.08,9.13-7.2,9.46-13.32.65-17.9,5.91-18.22,19.52-.3,12.39-.28,24.81-.13,37.22,0,4.73-1.34,7.08-6.5,8.14a909.34,909.34,0,0,1-95.34,15c-10,1-15.49,4-16.28,15.27-1.19,17.69-1.8,35.22,1.23,52.79.75,4.36,2.65,6.28,7.16,6.8,12.68,1.47,25.4,1.15,38.11,1.47,15,.39,29.6,3.16,43.16,9.68,9.48,4.57,19.42,6.19,29.69,6.21,27.86,0,55.77-.86,83.61,0,15.18.51,30.29-.37,45.43-.07a66.92,66.92,0,0,0,30.53-6.74c14-6.71,28.88-8.81,44.19-9.28,4.39-.13,6.16,1.08,5.85,5.68-.34,4.94-.1,9.91,0,14.88,0,2.46-.08,5.46,3.42,5.43s2.93-3.34,3.52-5.56a12.37,12.37,0,0,0,.12-1.84c.82-6.05-2.84-14.23,1.65-17.66,4.12-3.13,11.87-1.69,18-1.79,7.21-.11,10-3.24,11-10.58a192.28,192.28,0,0,0-.28-53.68c-.87-6.37-3.59-9.07-9.87-9.89-33.47-4.3-66.89-8.77-100-15.8-6.45-1.37-8.07-3.67-7.86-9.63.39-12.08.35-24.17.22-36.28-.11-12.74-5.06-18.74-17.47-19.3-7.36-.33-8.44-3.56-8.57-9.78-.67-32.24-1.66-64.48-2.59-96.73-.11-3.7-.63-7.39-1-11.1-5.83-5.27-13.3-6-20.52-7.54-3.21-.69-8.93.31-7.19-5.59,1.54-5.25,6.42-2.74,9.48-1.53,7.39,3,13.82,8.16,21.85,9.78,10.39,1.53,20.32,7,31.42,3.09,3.11-1.08,7.06.49,9.54,2.8,11.83,11.08,27.16,11.21,41.55,12.38,17.42,1.44,23.34,6.11,23.38,23.31C1352.32,380.38,1352.23,386.58,1352.38,392.78ZM1266,508.36c.06,2.18,1,5.74-2.64,5.74-3.09,0-2.22-3.31-2.05-5.14.71-7.1-1.16-11.34-9.43-10.6-4,.37-3.8-3.09-3.85-5.88-.13-7.1-.54-14.22-.23-21.29.14-3.19-3.72-8.8,3.67-9,6.56-.19,12.86.76,13.32,9.18.39,6.78.08,13.58.08,19.39C1265.33,497.28,1265.86,502.81,1266,508.36Zm-14.79,17.89c.6-2.76.51-7.36,4.42-7.06,4.08.31,7.06,3.76,8,8a37,37,0,0,1,.71,8.29c0,16.43.62,32.89-.33,49.28-.8,13.92-9.45,24.42-18.72,34.13-2.16,2.25-5.27,1.36-8,1.38-9.93.07-19.84,0-29.77,0v-.06c-10.24,0-20.49-.3-30.7.11-6.37.26-10.18-2.27-13.61-7.49-9.07-13.86-16.36-27.66-13.73-45.43,1.64-11.21.21-22.89.15-34.36,0-1.87-.09-3.73,0-5.59.28-4.92,4.47-7,7.9-8.12,4.62-1.55,3.93,3.7,4.77,6,2.23,6.35,4.63,8.59,12.1,5.62,21.57-8.58,43.68-7.76,65.33.06C1246,533.34,1249.63,533.64,1251.23,526.25ZM1261.89,620c-1.12.56-4,.08-4.19-.48-1.42-4.84,3.13-6.48,5.62-9.48C1264.42,613.81,1266.36,617.82,1261.89,620Zm-105.51-.35c-.05.43-3,1.14-4.09.63-4.55-2-2.55-6-2.67-11.34C1154,612.9,1157,615.28,1156.38,619.68Zm.28-120.63c-4.78-.58-3.53,4.79-4.35,7.82.42,3.15,2,7.9-2.76,7.62-3.54-.2-1.38-4.86-1.25-7.6.3-11.45.58-22.91.91-34.34.13-4.77,2.09-8.35,6.9-9.9,7.91-2.55,10.59-.59,10.48,7.79-.09,5.59-.46,11.16-.41,16.75C1166.28,493.84,1167.24,500.36,1156.66,499.05Zm-42.8,39.73c-.11-6,2.16-7.82,7.43-9,21.11-4.49,21-4.64,20.79,17-.11,9,0,18,0,26.94h.06c0,13.31-.23,26.63.09,40,.13,5.51-1.84,7.38-7.06,6.18l-.91-.13c-20-2.85-20.4-3.39-20.34-23.37C1114,577.17,1114.27,558,1113.86,538.78Zm-7.12,32.66c0,10.5.06,21-.09,31.49,0,2.37,1.58,6.17-3.17,6-3.4-.09-7.24-.26-7.22-5.12q0-32.42.33-64.83c0-4.65,3.69-5.53,7.1-5.47,4.41.09,2.94,4,3,6.39C1106.82,550.44,1106.74,561,1106.74,571.44Zm-17.3-1.18h-.26c0,9.61,0,19.21,0,28.8,0,3.76-.17,6.54-5.44,6.16-14.18-1-28.41-1.78-42.62-2-6.89-.13-9.72-2.72-10.3-9.62a205.72,205.72,0,0,1,.67-44.44c.54-4.21,2.22-5.92,6.15-6.43,14.71-1.86,29.43-3.72,44.1-5.86,6.23-.92,8.18,1.17,7.79,7.45C1089,552.9,1089.44,561.6,1089.44,570.26Zm182.3,2h.13c0-13.32.26-26.64-.11-39.94-.17-5.71,1.4-6.24,6.74-5.19,21.83,4.3,21.89,4.06,21.89,26.34,0,16.41-.71,32.85.17,49.23.5,9.37-3.22,12.94-11.59,15.16-16.91,4.49-17.3,4.47-17.23-13.08C1271.78,594,1271.74,583.15,1271.74,572.31Zm35.82-2h.13c0-9.87-.2-19.75.13-29.62.08-2.64-2.46-7.58,3.71-7.28,4.77.26,7.11,2.83,7,7.82-.15,8.33.08,16.65,0,25-.06,11.74-.34,23.45-.3,35.19,0,4.93-2,7.63-7,7.73-6.09.13-3.57-4.68-3.65-7.34C1307.39,591.29,1307.56,580.8,1307.56,570.3Zm44.82,3.17c0,1.84.15,3.93,2.66,4.11s3-1.75,3.34-3.61c1.75-8.59,1.21-17.31,1-26-.11-6.16,1-7.75,7.8-6.31,16,3.39,16.13,2.87,16.77,19.48.43,11.74,1,23.49-1.19,35.21-.86,4.67-2.24,7.58-7.57,6.83-6.55-.89-16.28,4.57-16.74-8.53-.08-1.69-2.07-2.1-3.69-2.05-2.78.13-2.66,2.39-2.39,4,1.2,6.84-2.71,7.31-8,7.47-19.26.58-19.24.73-19.17-18.81,0-5,0-9.93,0-14.88h-.06c0-9.3.34-18.61-.13-27.87-.26-5.4,2-6.13,6.52-5.83,20.77,1.36,20.79,1.29,20.77,21.83C1352.3,563.56,1352.28,568.51,1352.38,573.47Zm-135.12-237.4c3.56,1.13,9.94-.3,10.15,3.61.24,4.56-5.59,2.53-8.76,3.13-2.53-.56-6.38,1.62-6.87-2.46C1211.43,337.31,1214,335,1217.26,336.07Zm-.88,10.26a20.49,20.49,0,0,0,15.13-3.09c3.55-2.41,5.29-1.62,5.36,3.2.64,34.11,1.29,68.21,2.44,102.3.23,6.54-3.07,5.72-7.26,6.17s-11.44-2.85-11.38,3.57c0,6.13,7.5,3.75,11.56,3.5,6.6-.37,8.42,1.81,8.39,8.29-.1,15.82.41,31.63,1.11,47.43.19,4.26-1.39,5.1-4.75,4.19-20.19-5.42-40.34-5.85-60.55-.06-3.21.93-4.42-.59-4.29-3.91q1.09-25.56,1.88-51.13c.12-3.76,1.87-4.79,5.2-4.68a75.4,75.4,0,0,0,8.37-.07c2.19-.15,4.45-.63,4.63-3.48.19-3-2-3.26-4.26-3.69-13-2.5-13-2.52-12.65-16.34a13.71,13.71,0,0,0,0-2.79c-2.85-15.22,2.9-24.38,18.44-27.66,5.44-1.14,11.73-19.39,9.18-24.74a4.85,4.85,0,0,0-2.59-2.33,2.85,2.85,0,0,0-3.67,2,36.92,36.92,0,0,0-1.78,8.12c-.53,6.42-3,7.5-9.67,6.7-8.1-1-8.92-4.24-7.66-10.8,2-10.53,2.76-21.29,7.38-32.65-4.64.67-3,4.39-5.59,4.06-2.1-.28-1.69-2.26-1.71-3.69-.06-3.09,0-6.2.11-9.3.11-2.79,1.73-4.32,4.15-2.51,5.5,4.12,11.51,3.82,17.77,3,5.26-.68,5.42,1.5,3.91,5.94-2,5.81-3,12-4.26,18-.43,2.18-.11,4.36,2.77,5,3.54.78,3.17-1.86,3.54-3.89,1.08-5.78,2.89-11.53,3-17.34S1209.7,345.21,1216.38,346.33Zm-27.79-6.07c.54-5.37,6.65-3.91,10.62-4.38,2.89-.35,7.62-.73,6.89,3.45-1,5.58-6.65,2.21-10,3.39C1193.4,341.67,1188.14,344.73,1188.59,340.26Zm.52-15.85c-2.68,7.41-8.42,9.09-14.77,9.94-1.79-3.13-.13-6,.13-9,.54-5.8,3.21-6.88,8.72-5.35,7.8,2.16,16.13,2.42,23.54,6.71C1200.64,328.19,1194.23,332.4,1189.11,324.41ZM278.28,600.72c.5,12.57.18,12.63-12.26,12.72-7.13,0-14.27.09-21.38-.08-18.37-.44-24.78-11.17-16.56-27.54,13.59-27.09,45.65-38.92,73.54-25.19C278.67,566.7,277.59,583.1,278.28,600.72Zm86.07-29.14c-17.71.36-33.84-2.94-49.36-12.66-34.52-21.68-63.85-10.27-81.27,6A59.53,59.53,0,0,0,218.43,589c-1.66,4.69-3.23,5.1-6.84,1.45-4.6-4.65-7.47-9.78-7.47-16.39V555.45c-.18-11.68,1.77-23.73-6.31-34-1.4-1.75-.95-3.54.61-4.92,19.8-17.38,40.65-33.06,68.49-33.6,33.77-.66,60.82,12.66,79.11,41.5,8.25,13,15.15,26.93,22.71,40.4C371.63,570.06,370.46,571.47,364.35,571.58ZM1680.7,613.1c-10.81.62-21.69.12-32.53.38-4.43.11-6-1.61-5.83-6,.21-4.64-.43-9.3-.24-13.94.67-16-4.36-28.07-23.34-32.22,22.84-13.8,56.46-4.06,70.43,18.85a85.28,85.28,0,0,1,5.14,9.85C1699.32,601.31,1693,612.41,1680.7,613.1Zm38.42-84.69c-2.34,3.09-2.23,7-2.25,10.75-.08,10.52-.15,21.06-.3,31.59-.06,4.34,0,8.86-2.1,12.72-2.2,4-4.85,9.29-9.41,9.46-3.73.13-3.48-5.81-4.94-9-13.71-30.7-51.5-45.3-82.23-31.57-5.07,2.27-10.29,4.56-14.76,7.76-14.73,10.6-31.33,12.3-48.67,11.42-2.91-.15-6.82.22-4.15-4.12,11.66-18.88,19-40.38,34.59-56.9,17.36-18.39,39.08-26.41,62.49-27.79,20.34.69,37.92,5.75,53.37,17.17,5,3.67,9.29,8.35,14.56,11.49C1723.09,516,1724.65,521.07,1719.12,528.41Zm4.29-22.17c-6-.89-9.3-6.24-13.68-9.68-39.89-31.34-97.17-27.35-131.63,9.51-13.32,14.25-20.49,32.4-29.92,49.05-21.31,37.66-32.82,79.37-48.63,119.3-14.36,36.21-26.62,73.32-42,109.1-22.74,53.11-64.41,81.85-122,84.08-45.21,1.77-90.57.19-135.85.11-54.22.17-108.43.51-162.65.51q-215.64,0-431.32-.19c-3.39,0-6.78-.26-10.17-.39-60.08,2.7-112.23-31.24-133.69-87.19-25.33-66.13-49.45-132.76-76.26-198.29-11.27-27.53-23.86-55.63-45.2-77.35C304,467.72,249.57,465.54,209,498c-3.75,3-7.4,6.11-12.5,10.33,0-19.44,0-37,0-54.48,0-16.45.41-32.89,0-49.32-.21-8.53,2.49-12.5,11.53-12.28,14.25.34,28.53-.18,42.8-.18,51.8,0,103.61,0,155.41.27a107.63,107.63,0,0,0,38.05-7.09c58.38-21.4,117.11-41.78,177-58.36,51.91-14.34,104.85-23.73,158.27-30.66a1528.84,1528.84,0,0,1,169.53-12.65c1.54,0,3.09,0,4.63-.11,2.35-.13,4.46-.07,4.42,3.13s-2.14,3-4.47,3.07c-10.54.26-21.07.84-31.61,1-61.79.86-123,7.49-184,16.95-64.35,10-127,26.75-188.89,46.75-33.83,10.94-67.22,23.08-100.6,35.38-29.23,10.76-48.53,31.14-62.42,57.76-1.57,3-8.61,9.89,3.54,8.66,4.88-.5,3.05,4.45,3.07,7,.19,23.86.17,47.72.2,71.58.45,2.56,1.14,5.11-.41,7.88a10,10,0,0,1-4-7.86c-1.21-2.72-1.9-6.81-6-5.21-3.82,1.49-2.24,5.46-1.36,8.08,3,9.07,6.5,18,9.89,27,.52,1.39,1.28,3.39,2.38,3.74,11,3.67,8.22,11.64,9,20.51C403.5,602,408.18,615.49,417,626.2c4.37,5.31,5.44,9.89,5.44,17.08,0,13.78,5.57,27.12,14.39,38.09,4.12,5.11,6.65,9.87,6.84,16.45.41,14.45,5.44,27.7,13.3,39.58,2.63,4,5.72,7.75,5.57,12.28-.37,12,3,23.88,9.87,32.28,13.4,16.35,18.2,39,37.63,50.77,3.35,2,5.62,4.51,10.67,2.89,5.2-1.68,9.91,2.61,12.89,6.91,6.88,10,31.8,17.45,42.62,12.44,5.83-2.7,11.34-1.47,16.6,1.79,14.75.67,29.52,2.35,44.14-1.84a18.66,18.66,0,0,1,10.1-.24c16.82,5.12,33.45,3.57,50.2-.12,2.94-.65,6.42-.95,9.18,0,16.78,5.62,33.4,4.09,50-.28a21.69,21.69,0,0,1,11,.42c16.05,4.18,32,4.57,48.07-.24a18.51,18.51,0,0,1,10.06.23c16.49,5,32.86,3.63,49.35.13,3-.62,6.35-1.08,9.16-.28,17.1,4.91,34.22,4.32,51.21.07,6.87-1.71,12.1,1.64,17.39,4.19,6.86,3.3,12.58,1.14,18.37-1.71,6.8-3.35,13.19-2.53,20.51-1a94.85,94.85,0,0,0,40.42-.38c4.62-1.08,9.24-2,13.74-.93a106.49,106.49,0,0,0,49.48.06c9.42-2.13,18,3.41,27.47,2.68,10.43-.8,21,.69,31.31-2.44,7-2.1,13.3,2.09,20,2.29,12.65.39,25.35,1.21,37.87-2,3.17-.82,6.72-.13,10.1-.13,16.07,5.38,32.16,3.78,48.24,0a26.72,26.72,0,0,1,12-.21,113.58,113.58,0,0,0,48.59,0c5.48-1.16,11.51-3.28,16.79,1.64,1.95,1.82,4.82,1.19,7.17.48,11.81-3.56,25-3.52,33.12-16,2.06-3.15,7.26-8.87,14.15-4.79,2.05,1.23,4.58-1.38,6.54-2.76,6.82-4.86,13.41-10,19-16.33,2.87-3.22,5.68-6.17,4.32-11.42-1.14-4.34,2.5-8.33,5.5-10,15.47-8.83,15.83-24.81,19-39.15a63,63,0,0,1,8.68-20.53c7.23-11.66,14.63-24.44,11.83-39.56-.82-4.46,1.32-7.94,3.65-11.11,10.28-14,16.93-29.11,16.36-46.84-.1-3.5.93-7.14,3.37-9.45,10.21-9.63,12.63-23.13,18.1-35.11,1.38-3,1.87-5.72-.15-8.7-4.13-6.12-.24-11.28,3.77-14.47,12.05-9.59,12.55-24,16.72-36.84.47-1.44.86-4-1.73-4.51-2.14-.45-3.18,1.36-4.36,2.79-1.67,2.07-1.43,5.39-4.91,7v-83.7c2.53-2.77,5.62,3.92,7.71.06,1.8-3.37-.93-6.37-2.26-9.42-15.29-35.68-46.17-51.51-80.19-63.82-67.2-24.35-135.12-46.33-204.91-62.14-14.18-3.22-28.5-5.81-42.77-8.68-3.74-.75-10.41-.5-9.81-4.23.85-5.2,6.89-1.62,10.15-1.06a1043.51,1043.51,0,0,1,138.56,33.9q69.43,22,137.73,47.15a83.17,83.17,0,0,0,29.11,4.76q98.67-.08,197.32.17c14.62,0,14.85.15,14.9,14.94C1723.5,440.08,1723.41,473,1723.41,506.24Z"/><path class="cls-2" d="M1519.13,447c-.68-13.77-8.27-27.76-22.79-33.66-13.78-5.63-27.45-11.12-39.43-20.14a19.09,19.09,0,0,0-10.15-4.23c-17.55-1-33.45-6.31-47.54-17.06a14.23,14.23,0,0,0-8.69-2.61c-8.93.54-17.25-1.52-25.3-4.76-4.84-1.94-5.91-.6-5.81,4.15q.19,12.07-.52,24.14c-.13,2.37.15,6.43-4,6-3.48-.35-2.46-3.76-2.51-6-.15-6.2-.06-12.4-.06-18.6,0-17.2-6-21.87-23.38-23.31-14.39-1.17-29.72-1.3-41.55-12.38-2.48-2.31-6.43-3.88-9.54-2.8-11.1,3.88-21-1.56-31.42-3.09-8-1.62-14.46-6.82-21.85-9.78-3.06-1.21-7.94-3.72-9.48,1.53-1.74,5.9,4,4.9,7.19,5.59,7.22,1.53,14.69,2.27,20.52,7.54.34,3.71.86,7.4,1,11.1.93,32.25,1.92,64.49,2.59,96.73.13,6.22,1.21,9.45,8.57,9.78,12.41.56,17.36,6.56,17.47,19.3.13,12.11.17,24.2-.22,36.28-.21,6,1.41,8.26,7.86,9.63,33.06,7,66.48,11.5,100,15.8,6.28.82,9,3.52,9.87,9.89a192.28,192.28,0,0,1,.28,53.68c-1,7.34-3.8,10.47-11,10.58-6.16.1-13.91-1.34-18,1.79-4.49,3.43-.83,11.61-1.65,17.66a12.37,12.37,0,0,1-.12,1.84c-.59,2.22,0,5.52-3.52,5.56s-3.39-3-3.42-5.43c-.1-5-.34-9.94,0-14.88.31-4.6-1.46-5.81-5.85-5.68-15.31.47-30.23,2.57-44.19,9.28a66.92,66.92,0,0,1-30.53,6.74c-15.14-.3-30.25.58-45.43.07-27.84-.89-55.75,0-83.61,0-10.27,0-20.21-1.64-29.69-6.21-13.56-6.52-28.13-9.29-43.16-9.68-12.71-.32-25.43,0-38.11-1.47-4.51-.52-6.41-2.44-7.16-6.8-3-17.57-2.42-35.1-1.23-52.79.79-11.31,6.28-14.27,16.28-15.27a909.34,909.34,0,0,0,95.34-15c5.16-1.06,6.54-3.41,6.5-8.14-.15-12.41-.17-24.83.13-37.22.32-13.61,4.9-18.87,18.22-19.52,7.28-.33,8.69-3.93,7.2-9.46-1.71-6.28-.54-12.11.28-18.29.94-7,3.54-15-4.6-20.19-9.4-6.06-10.11-14.66-6.81-24.27,1.11-3.32.78-9.34,5.23-8.52,6,1.1,1.82,6.45,1.69,10a29.06,29.06,0,0,0-.33,3.69c.28,2.46-1.75,6.34,2.48,6.76,4.5.47,4.45-3.65,4.5-6.57.21-9.15.08-18.31.08-27.46-2.18-.37-2.61.82-3,2-.71,2.22-.43,5.54-4.16,4.77-4.24-.85-2.77-4.19-2.23-6.74,1.1-5.12,1.53-10.75,4-15.14,3-5.33,8.31-8.61,2.63-16.21-2.33-3.13,3.95-11.53.35-15.61-4.84-5.46-10.86,2.68-15.7,1.92-12.83-2-26.75.34-38.2-8.81-2.69-2.12-9.07-3.17-11.46-1.47-9.26,6.55-18.61,2.12-27.68,1.28-5.88-.54-12.65,1.29-17.81-3.57-4.73-4.46-10.39-4.1-15.47-1.57a21.31,21.31,0,0,1-12.52,2.29c-11.49-1.49-23.45.62-34.37-5.57-3.28-1.86-8.27-1.3-11.68.9-4.28,2.75-8.71,3.16-13.35,2.81l-22.58,0c-1.82-.1-4.32.2-5.34-.84-6.21-6.2-12.13-2.2-18.72-.75-13.21,2.91-27,6.21-40.15,1.44-6.29-2.27-11.19-1.58-16.82.26-14.75,4.82-29.45,9.41-45.22,3.52-3.43-1.29-9-1.23-11.72.76-11.32,8.37-24.62,7.16-37.27,9.17-2.07.31-5.53.76-6.15-.23-3.89-6.12-9.59-3.85-13.19-1.69-11.25,6.82-24.15,7.32-36.17,11.05-13.73-4.59-26.06-1.63-37.33,7-12.29,1.53-24.06,7.69-37,3.93-2.68-.78-5.32,1.29-7.63,2.87-13.49,9.3-28.78,12.31-44.73,12.35-12,0-19.63,7.32-19.41,19.28.13,7.43,0,14.88-.29,22.31-.1,2.24.22,5.72-3.36,5.54-3.15-.17-3.31-3.21-3.31-5.74,0-7.77-.36-15.54.24-23.25.5-6.4-2.09-6.61-6.93-4.9-6.67,2.39-13.3,5.63-20.55,5.05-6.65-.54-11.64,1.94-17.13,5.37a98,98,0,0,1-40.67,14.28c-5.84.69-10.72,1.92-15.25,5.46-9.87,7.73-21.55,12.15-32.78,17.23-4.06,1.84-9.3,1.12-12.58,5.09-8.19,9.83-15.46,20-16.26,33.58-1.28,21.7-.76,43.4-.67,65.1.06,12.07-.86,24.38,2.63,36,15.07,50.55,34.53,99.59,52,149.33,5.66,16.24,11.23,32.5,17,48.71,5.55,15.57,10.52,31.44,20.77,44.85,14.81,24.22,37.55,37.89,63.29,47.52,5.27,2,7.43-.23,7.27-5.68-.06-1.85-.54-4.9,2.85-4.72,2.18.12,3.26,2.37,3,4.08-1.52,10.81,5.76,10.84,13.06,11,5.57.15,11.16.54,16.73.56L1346.23,846c5.91-.34,6.13-3.41,6.22-7.84,0-2.39-1.84-6.41,2-6.92,4.14-.55,4.68,3.62,4.7,6.58.07,5.64,3.18,5.05,6.69,3.73,24.84-9.28,46.54-22.8,61.11-45.81,2.31-3.2,5.1-6.18,6.84-9.68,13.48-27.44,21.79-56.83,31.94-85.52,10-27.92,20.1-55.83,30-83.77,7.75-21.83,18.27-43,22-65.86C1523.24,516.52,1520.8,481.58,1519.13,447Zm-166.7-28c.06-2.29-.37-5.44,3.41-5.29,2.87.11,3.35,2.65,3.37,4.71q.12,18.07-.18,36.14c0,1.69-.52,3.84-3,3.93-2.93.13-3.62-1.92-3.63-4.27-.08-6.18,0-12.35,0-18.53C1352.38,430.15,1352.28,424.58,1352.43,419Zm6.39,95.87c-.15,2.07-1.43,3.26-3.69,3.24-3.42,0-2.83-2.57-2.86-4.6-.06-5.86,0-11.73,0-17.58h.13c0-5.87-.11-11.74,0-17.6.06-1.87-.85-4.73,2.57-4.85,2.28-.09,3.26,1.64,3.52,3.56C1360.2,489.66,1359.75,502.29,1358.82,514.9Zm-877.12,28c-14.47-.32-25.44-12.44-25.05-27.66.39-15,11.88-25.8,27.14-25.46s26.33,12.42,25.92,28C509.32,531.65,496.45,543.22,481.7,542.9Zm87.36-28.65c-.15,1.92-.88,3.82-3.28,3.6s-2.94-2-3-4c-.06-6.18,0-12.37,0-18.55H563c0-5.87-.06-11.76,0-17.62,0-1.46.08-3.34,2.05-3.65,2.27-.34,3.58,1.3,3.73,3.2A238.42,238.42,0,0,1,569.06,514.25Zm-6.43-78.4h.23c0-5.87-.08-11.75,0-17.62,0-1.7-.4-4,2.28-4.21s4,1.43,4,3.93c0,12.05.06,24.1,0,36.15,0,2.13-.43,4.64-3.52,4.36s-2.87-2.88-2.91-5C562.56,447.62,562.63,441.74,562.63,435.85Zm6.71,375.07c-.13,2,.17,4.7-2.91,4.88-3.57.24-3.7-2.57-3.8-5-.28-7-.42-14-.63-21.07.24-4.54.43-9.1.8-13.65.15-1.92-.63-4.58,2.68-4.75,3.58-.19,3.67,2.38,3.82,4.9.3,4.54.62,9.07.92,13.62C569.94,796.88,569.75,803.9,569.34,810.92ZM566,652.85c3.07.3,3.22,3.38,3.28,5.83.27,12.61.91,25.22-.84,37.78-1.68-.11-3.37-.24-5-.37-1.7-12.61-.56-25.26-.41-37.89C563,656.11,562,652.48,566,652.85Zm-2.93,62.33c0-1.51.39-3.19,2.31-3.41,2.33-.26,3.3,1.27,3.49,3.32a220,220,0,0,1-.08,37.72c-.13,1.6-.8,3.26-2.68,3.07a3.67,3.67,0,0,1-3.26-3.86c-.11-6.44,0-12.89,0-19.33H563C563,726.86,563,721,563.06,715.18Zm165.17-74.06c-4.83.87-9.63,1.92-12,2.4a58.34,58.34,0,0,1-18-2.53c-2.35-.69-4.17-2.31-3.86-4.55.39-2.64,3.1-2.79,5.22-2.36a64.72,64.72,0,0,0,27.57-.11c2.12-.49,4.78-.45,5.32,2.23C733.05,639.11,731.08,640.62,728.23,641.12Zm167.86-39.55c-1,6.58-4.64,8.31-10.76,8.74-16.08,1.12-32.21.2-48.27,2.29a95.29,95.29,0,0,0-28.44,7.88c-10.9,5.12-22.37,6.87-34.27,6.84q-62.73-.18-125.44-.19c-10,0-19.61-1.55-28.77-6-13.88-6.69-28.75-9.17-44-10-5.08-.26-7.34.71-6.69,6.52.58,5.18-.2,10.51-.48,15.76-.11,2-.76,3.71-3.24,3.63-2.63-.07-2.59-2.12-2.83-4,0-.29,0-.61,0-.93-.89-7,3.11-16.24-1.81-20.32-4.19-3.46-13.07-1.32-19.87-1.54-6-.21-9.39-2.33-10.4-9.11a183.59,183.59,0,0,1,.53-58.25c.87-5.27,4-6.2,8.29-6.8,20.56-2.77,41.12-5.46,61.61-8.68,13.73-2.16,27.29-5.38,41-7.73,5.25-.89,6.2-3.59,6.09-8.32-.28-12.71-.37-25.43,0-38.13.32-12.32,5.31-17.89,17.4-18.22,6.82-.19,8-2.89,8.18-8.81.82-32.84,2-65.68,2.94-98.54.11-4,0-8,1.81-11.77,11.62-6.11,24.4-6.95,37.12-8,8.57,1.28,17.14,2.36,25.58,4.56,6,1.55,8.44,4.32,8.57,10.88.7,34.09,2.12,68.16,2.83,102.24.15,6.56,1.52,9.13,8.68,9.37,12.1.45,17.41,6.93,17.51,19.37.09,12.71.16,25.43-.1,38.13-.11,4.59,1.47,6.45,6,7.38,31.87,6.5,63.89,12.13,96.28,15,10.55.95,14.75,5.16,16,15.69A200.69,200.69,0,0,1,896.09,601.57Zm325.56,39.59c-4.75,1.67-9.63,2-15.92,2.47-4,.17-9-1.21-14.07-2.6-2.4-.68-4-2.35-3.63-4.66.41-2.72,3-3,5.18-2.44,9.18,2.33,18.29,1.92,27.48,0,2.1-.43,4.69-.38,5.27,2.4C1226.63,639.57,1224.19,640.26,1221.65,641.16Zm130.58,33.32h.17c0-5.85-.1-11.7,0-17.55.06-1.88-.78-4.71,2.67-4.73,2.3,0,3.26,1.75,3.44,3.63,1.25,12.56,1.79,25.11-.33,37.63-.32,1.86-.75,3.5-3.32,3.37-2.81-.15-2.63-2.12-2.64-3.89C1352.19,686.77,1352.23,680.63,1352.23,674.48Zm.22,44c-.18-2.81-2.27-7.24,3.37-7.9,3.13,2.33,3.34,5.8,3.36,9.17.09,9.54.26,19.09-.21,28.63-.17,3.11.91,8-4.82,8.32C1349.9,744.18,1353.31,731.25,1352.45,718.53Zm6.63,93.38c-.09,1.73-.56,3.8-3,4a3.06,3.06,0,0,1-3.57-3.26q0-20.21.48-40.39c0-.57,2-1.08,3-1.62,6.29,5.42,1.81,13,3.82,19.28C1359.62,797.23,1359.47,804.57,1359.08,811.91Zm112.49-287.75c-3.67,12.39-14.16,18.83-30.58,18.76-24.44-.1-38.28-20.66-27.4-40.18,7.76-14,26.76-16.24,43.15-10.52C1469.8,496.8,1475.58,510.67,1471.57,524.16Z"/><path class="cls-1" d="M700.53,123.76c0-4.89-.1-7.28,0-9.67.49-10.28,8.64-15.06,17.18-9.64,2.77,1.76,4,2.31,7,.42,9.35-5.88,18.33-1.93,17.75,8.91-.65,12.12,5.05,12.29,14.11,12,20.14-.55,40.31-.21,60.47-.27,7.58,0,14.68.56,21.56-5.34s15.53-.61,16.92,9.39c2,14.53,2,14.52,17,14.49,15.81,0,31.59,0,47.36-1.84,5.75-.65,8.21-2.49,7.88-8.59-.44-8-.06-16.11.06-24.17,0-1.75-.21-4,2.3-4.36,2.81-.39,3.71,1.7,4.18,3.94a17.68,17.68,0,0,1,.41,3.69q0,39.53-.09,79.05c0,2.58.77,6.37-3.25,6.57-5,.25-3.54-4.08-3.7-6.83-.36-6.14-.44-12.3-.63-18.46-6.09.29-12.17.74-18.26.82-15.2.2-30.39.43-45.58.2-5.7-.09-8.1,1.67-7.23,7.46.27,1.81-.13,3.71-.13,5.57,0,5.77-.37,11.92-6.69,14-5.59,1.86-11.61,2.08-15.55-4.36-1.89-3.11-5.53-2.24-8.56-2.24-25.12,0-50.24.15-75.35-.18-5.55-.07-7,1.67-6.61,6.81.41,5.59.33,11.28-4.78,15.25-2.07,1.6-5.4,3.15-6.84,1.84-8.65-7.92-18.14,4.27-26.64-1.52-6.09-4.14-3.47-10.67-4.38-16.15-2.65-1.63-4.12.54-5.7,1.74-12.32,9.38-24.82,18.55-36.72,28.43-5.21,4.32-9.48,4.3-15,1.24-10.79-6-21.85-11.57-32.68-17.55C605.92,212,603.8,212,604,218c.29,8.67-.23,17.37.1,26,.18,4.87-1.63,6.72-6.32,6.66-6.81-.09-13.63.1-20.45.12l-136.75.28c-12.77,0-12.73,0-12.71-12.52.07-53.64.22-107.27,0-160.91,0-6.18,1.67-8.09,7.74-8.06q80,.27,160,.06c6.29,0,9,1.63,8.58,8.37-.53,7.71.2,15.51-.26,23.23s2.27,7.21,7.77,4.15C622,99.75,632.75,95,643,89.17c6.35-3.58,11.12-3,16.71,1.72C672.39,101.66,685.6,111.81,700.53,123.76Zm-265.22,37h-.16c0,25.1.29,50.21-.2,75.3-.14,6.8,1.76,8.25,8.21,8.22q72.54-.42,145.08,0c7.4.05,8.54-2.32,8.5-9q-.37-74.85.09-149.7c0-7.12-1.89-8.59-8.79-8.55q-72.54.48-145.08,0c-5.91,0-8,.8-7.85,7.45C435.61,109.9,435.31,135.32,435.31,160.74Zm265.35,5.53c0-11.5-.07-19.25,0-27a10.9,10.9,0,0,0-4.69-9.44q-20.49-16-40.55-32.51C652.1,94.57,649.3,94,645.52,96q-18,9.51-36.2,18.69c-3.67,1.86-5.45,4.16-5.41,8.62q.32,36.71,0,73.41c0,5,1.71,7.61,6.38,9.76,11.5,5.31,22.77,11.15,33.85,17.29,4.39,2.44,7.47,2.75,11.54-.63,7.85-6.52,15.68-13.3,24.43-18.44C696.63,195,705.91,182.49,700.66,166.27Zm87,21.14v.12c12.68,0,25.37-.2,38,.1,4.46.11,6-1.17,5.92-5.67q-.2-21.33.24-42.67c.08-4.81-1.64-6.31-6.51-6.27q-37.56.38-75.14.08c-5,0-7.14,1.14-7,6.68.33,13.59.22,27.21-.14,40.8-.14,5.09,1.07,7.11,6.56,6.95C762.34,187.16,775,187.41,787.7,187.41ZM889,166.86l0,.34c11.12-.6,22.25-1,33.35-1.86,8.74-.7,4.6-7.76,5.41-12.25.72-4-1.52-4.59-5-4-20,3.6-40.13,2.34-60.23,2.31-5.29,0-7.11,1.55-6.68,7,.38,4.89-.26,9.14,7.08,8.6C871.57,166.37,880.28,166.86,889,166.86ZM736,160.8h-.1c0-14.21.08-28.42-.07-42.63,0-3.39,1.43-8.76-4-8.68-4.76.07-3.21,5.16-3.23,8.23q-.26,43.1-.2,86.2c0,2.81-1.26,7,3.47,7.11,5.44.13,4-4.59,4-7.59C736.06,189.23,736,175,736,160.8Zm-28.14,0h0c0,14.84-.05,29.68,0,44.51,0,2.48-1.17,6,3.56,5.77,4-.18,4.11-2.88,4.11-5.83q0-44.52,0-89c0-3.2,0-6.85-4.19-6.9-4.85-.06-3.5,4.2-3.52,7C707.76,131.11,707.82,146,707.82,160.78Zm141.07-.05h.42c0-9,.1-18,0-26.93-.06-3.71-.23-8.28-5.31-8.21s-5,4.91-5.07,8.43c-.21,17.95-.13,35.91-.16,53.87,0,3.65.51,7.13,5.17,7.17,5.06,0,4.8-4.28,4.9-7.41C849.08,178.69,848.89,169.71,848.89,160.73Z"/><path class="cls-1" d="M897,550.67c-1.2-10.53-5.4-14.74-16-15.69-32.39-2.88-64.41-8.51-96.28-15-4.55-.93-6.13-2.79-6-7.38.26-12.7.19-25.42.1-38.13-.1-12.44-5.41-18.92-17.51-19.37-7.16-.24-8.53-2.81-8.68-9.37-.71-34.08-2.13-68.15-2.83-102.24-.13-6.56-2.56-9.33-8.57-10.88-8.44-2.2-17-3.28-25.58-4.56-12.72,1-25.5,1.86-37.12,8-1.85,3.74-1.7,7.75-1.81,11.77-1,32.86-2.12,65.7-2.94,98.54-.15,5.92-1.36,8.62-8.18,8.81-12.09.33-17.08,5.9-17.4,18.22-.33,12.7-.24,25.42,0,38.13.11,4.73-.84,7.43-6.09,8.32-13.71,2.35-27.27,5.57-41,7.73-20.49,3.22-41,5.91-61.61,8.68-4.34.6-7.42,1.53-8.29,6.8a183.59,183.59,0,0,0-.53,58.25c1,6.78,4.38,8.9,10.4,9.11,6.8.22,15.68-1.92,19.87,1.54,4.92,4.08.92,13.36,1.81,20.32,0,.32,0,.64,0,.93.24,1.83.2,3.88,2.83,4,2.48.08,3.13-1.67,3.24-3.63.28-5.25,1.06-10.58.48-15.76-.65-5.81,1.61-6.78,6.69-6.52,15.29.8,30.16,3.28,44,10,9.16,4.41,18.75,6,28.77,6q62.73.06,125.44.19c11.9,0,23.37-1.72,34.27-6.84a95.29,95.29,0,0,1,28.44-7.88c16.06-2.09,32.19-1.17,48.27-2.29,6.12-.43,9.81-2.16,10.76-8.74A200.69,200.69,0,0,0,897,550.67ZM589.21,605a87.93,87.93,0,0,0-13-1c-4.68.08-8-.58-7.28-6.48.28-2.2-.11-4.62-3-4.81-3.28-.2-3.28,2.57-3,4.57.75,6-2.55,6.55-7.24,6.29-19.91-1.13-16.91,2.5-19.09-17-1.31-11.87.13-23.53.85-35.26.36-5.83,2.87-8.5,9.19-8.91,16.31-1.08,16.29-1.39,16.15,15-.06,4.34-.13,8.68,0,13,0,2.72-.22,6.37,3.57,6.37,3.51,0,2.76-3.69,2.82-5.86.28-8.37.5-16.75.15-25.1-.21-4.73,1.3-6.51,6-7.17,20.27-2.85,20.25-3,20.16,17.72,0,4.65,0,9.31,0,13.95h0c0,9.61-.35,19.24.15,28.83C595.88,604.48,594,605.69,589.21,605Zm23.94-33.88h0c0,10.52.06,21.06,0,31.61,0,2.79,1.3,6.7-4,6.35-4.26-.28-6.74-1.7-6.67-6.76.26-17.34.11-34.7.11-52.06,0-3.71,0-7.44,0-11.16,0-4.94,4-5.07,7.18-5.44,4.69-.54,3.39,3.35,3.42,5.85C613.21,550.05,613.15,560.59,613.15,571.14Zm27.51,48.45a8.62,8.62,0,0,0-.91-.17c-19.39-3.11-19.35-3.11-19.32-22.24,0-19.54.26-39.08-.2-58.62-.13-5.66,1.94-7.4,6.89-8.57,21.55-5.14,21.51-5.25,21.46,17,0,8.68,0,17.38,0,26.06h0c0,13.33-.41,26.69.16,40C649.06,620,646.4,621.13,640.66,619.59Zm56.16-282.5a82.74,82.74,0,0,1,34,.32c1.42.31,3.36.26,3.25,2.4-.1,1.92-1.92,2.44-3.36,2.48-6.16.13-12.33,0-18.51,0v.23c-4.94,0-9.89,0-14.83,0-1.88,0-4-.23-4.28-2.55C692.74,337.3,695.11,337.43,696.82,337.09ZM678.57,517.7c.74-16.73,1.38-33.44,1.75-50.17.07-3.93,1-5.81,5.2-5.42a56.35,56.35,0,0,0,6.5,0c3.31,0,7.91.9,8-3.85.09-5.4-5.07-3.75-7.84-3.37-9.49,1.28-11.55-1.81-11-11.55,1.78-30.61,2.16-61.3,2.92-92,.15-6.39-1-9.71,8.83-6.69a73,73,0,0,0,43.94-.75c6.5-2.16,5.87-.63,5.83,4.12-.17,16.73-.07,33.46-.07,50.18h2.92c0,15.8-.39,31.59.19,47.37.26,7-1,10.66-8.76,9.2a19.85,19.85,0,0,0-3.7,0c-2.65,0-5.28.29-5,3.8.2,3.29,2.77,3.65,5.42,3.61,2.48,0,5,.15,7.43-.11,4.17-.49,5.22,1.41,5.35,5.29q.75,25.53,2.06,51c.26,5.11-3,4-5.36,3.32a104.72,104.72,0,0,0-59.51.37C679,523.47,678.4,521.7,678.57,517.7Zm-23.9-10.42c-.3-5.23-.09-10.5-.09-15.74h1c0-6.79-.42-13.63.13-20.37.6-7.08,8.72-11.42,15.2-9,3,1.12,2.15,3.47,2.15,5.37,0,6.79-.15,13.59-.38,20.39-.18,6,1.06,12.56-9.35,11-5.88-.86-2.57,5.44-3.54,8.44-.78,2.4,1.47,6.81-2.16,7C652.9,514.64,654.8,509.93,654.67,507.28Zm4.27,113.07c-4.87-2.12-2.93-6.45-3.3-10.06,1-.22,1.82-.63,2-.41,2.66,2.85,5.66,5.61,5.38,9.93C663,620.11,660.07,620.83,658.94,620.35Zm85.12-.19c-20.47,0-40.94-.09-61.41.15-5.16.08-8.5-1.69-11.74-5.75-10.78-13.53-17.4-27.83-15.1-46,1.49-11.91.22-24.15.24-36.25,0-2.16-.19-4.47.5-6.45,1.34-3.8,5.05-6,8.36-6.59s3.23,3.89,4,6.29c2.11,6.71,5.35,8.37,12.31,5.48,20.61-8.51,42-8,62.61-.89,9.07,3.14,12.91,2.34,14.83-6.78.37-1.75,1.47-3.34,2.23-5,7.38,2.62,9.85,7.6,9.69,15-.41,18,.41,36-.6,53.93-.69,12.55-8.92,22.07-17,31.07C750.78,620.76,747.17,620.16,744.06,620.16Zm19.63-.35c.47-4.27,2.74-6.8,6.91-9.52C772.09,617.41,771.18,621.19,763.69,619.81ZM771.57,501v13.43c-4.32-.84-4-3.15-3.8-4.7.62-7.06-.24-12.44-9.46-11.38-4.4.51-3.67-3.11-3.78-5.77-.32-6.8-.95-13.62-.77-20.4.12-3.78-3.48-10,5-10.07,7.13-.1,12.42,2.14,12.72,10.09C771.81,481.78,771.57,491.4,771.57,501Zm27.2,115.49c-19.8,6.76-20.85,6.35-20.9-14.18-.08-23.49.18-47,0-70.47-.06-5,1.71-5.25,6-4.73,23,2.74,23,2.61,22.94,25.39q0,10.2,0,20.42h0c0,10.5-.41,21,.15,31.51C807.24,611,805.21,614.28,798.77,616.48Zm25.31-15.58c0,4.64-1,8.25-6.26,8.2-5.75-.08-3.35-4.88-3.44-7.6-.28-10.51-.12-21-.12-31.55,0-10.21-.13-20.44.06-30.63.06-2.25-1.68-6.41,3.3-5.75,3.31.44,6.61,1.23,6.42,6.09-.26,6.8.12,13.6.12,20.41C824.14,573.69,824,587.29,824.08,600.9Zm65.08-4.58c-.7,4.58-2.23,6.41-6.87,6.58-15.18.54-30.42.22-45.49,2.46-4.86.7-5.72-1.4-5.59-5.69.27-9.59.08-19.22.08-28.83h.13c0-9.3.21-18.61-.09-27.9-.15-4.73,1.1-6.9,6.2-6.15,15.31,2.22,30.64,4.26,46,6.35,3.54.49,5,2.18,5.55,6A155,155,0,0,1,889.16,596.32Z"/><path class="cls-1" d="M1456.74,492.22c-16.39-5.72-35.39-3.45-43.15,10.52-10.88,19.52,3,40.08,27.4,40.18,16.42.07,26.91-6.37,30.58-18.76C1475.58,510.67,1469.8,496.8,1456.74,492.22Zm-20.62,43c-10.8-.54-19.24-9.79-18.46-20.24.77-10.12,10.19-18.8,19.82-18.26,10.12.58,19.17,10.56,18.76,20.66C1455.85,527,1446,535.73,1436.12,535.24Z"/><path class="cls-1" d="M483.79,489.78c-15.26-.34-26.75,10.44-27.14,25.46-.39,15.22,10.58,27.34,25.05,27.66,14.75.32,27.62-11.25,28-25.17C510.12,502.2,499,490.13,483.79,489.78Zm-1.14,45.5c-11-.28-19-8.88-18.57-20,.45-10.34,9.41-19,19.24-18.74,10.21.36,18.93,9.95,18.57,20.46A18.4,18.4,0,0,1,482.65,535.28Z"/><path class="cls-1" d="M569.06,514.25c-.15,1.92-.88,3.82-3.28,3.6s-2.94-2-3-4c-.06-6.18,0-12.37,0-18.55H563c0-5.87-.06-11.76,0-17.62,0-1.46.08-3.34,2.05-3.65,2.27-.34,3.58,1.3,3.73,3.2A238.42,238.42,0,0,1,569.06,514.25Z"/><path class="cls-1" d="M569.1,454.1c0,2.13-.43,4.64-3.52,4.36s-2.87-2.88-2.91-5c-.11-5.87,0-11.75,0-17.64h.23c0-5.87-.08-11.75,0-17.62,0-1.7-.4-4,2.28-4.21s4,1.43,4,3.93C569.19,430,569.21,442.05,569.1,454.1Z"/><path class="cls-1" d="M1359,454.59c0,1.69-.52,3.84-3,3.93-2.93.13-3.62-1.92-3.63-4.27-.08-6.18,0-12.35,0-18.53,0-5.57-.1-11.14,0-16.69.06-2.29-.37-5.44,3.41-5.29,2.87.11,3.35,2.65,3.37,4.71Q1359.33,436.53,1359,454.59Z"/><path class="cls-1" d="M1359,748.43c-.17,3.11.91,8-4.82,8.32-4.25-12.57-.84-25.5-1.7-38.22-.18-2.81-2.27-7.24,3.37-7.9,3.13,2.33,3.34,5.8,3.36,9.17C1359.27,729.34,1359.44,738.89,1359,748.43Z"/><path class="cls-1" d="M1359.85,789.87c-.23,7.36-.38,14.7-.77,22-.09,1.73-.56,3.8-3,4a3.06,3.06,0,0,1-3.57-3.26q0-20.21.48-40.39c0-.57,2-1.08,3-1.62C1362.32,776,1357.84,783.6,1359.85,789.87Z"/><path class="cls-1" d="M1221.65,641.16c-4.75,1.67-9.63,2-15.92,2.47-4,.17-9-1.21-14.07-2.6-2.4-.68-4-2.35-3.63-4.66.41-2.72,3-3,5.18-2.44,9.18,2.33,18.29,1.92,27.48,0,2.1-.43,4.69-.38,5.27,2.4C1226.63,639.57,1224.19,640.26,1221.65,641.16Z"/><path class="cls-1" d="M1358.82,514.9c-.15,2.07-1.43,3.26-3.69,3.24-3.42,0-2.83-2.57-2.86-4.6-.06-5.86,0-11.73,0-17.58h.13c0-5.87-.11-11.74,0-17.6.06-1.87-.85-4.73,2.57-4.85,2.28-.09,3.26,1.64,3.52,3.56C1360.2,489.66,1359.75,502.29,1358.82,514.9Z"/><path class="cls-1" d="M728.23,641.12c-4.83.87-9.63,1.92-12,2.4a58.34,58.34,0,0,1-18-2.53c-2.35-.69-4.17-2.31-3.86-4.55.39-2.64,3.1-2.79,5.22-2.36a64.72,64.72,0,0,0,27.57-.11c2.12-.49,4.78-.45,5.32,2.23C733.05,639.11,731.08,640.62,728.23,641.12Z"/><path class="cls-1" d="M1358.23,693.46c-.32,1.86-.75,3.5-3.32,3.37-2.81-.15-2.63-2.12-2.64-3.89-.08-6.17,0-12.31,0-18.46h.17c0-5.85-.1-11.7,0-17.55.06-1.88-.78-4.71,2.67-4.73,2.3,0,3.26,1.75,3.44,3.63C1359.81,668.39,1360.35,680.94,1358.23,693.46Z"/><path class="cls-1" d="M568.43,696.46c-1.68-.11-3.37-.24-5-.37-1.7-12.61-.56-25.26-.41-37.89,0-2.09-1-5.72,3-5.35,3.07.3,3.22,3.38,3.28,5.83C569.54,671.29,570.18,683.9,568.43,696.46Z"/><path class="cls-1" d="M570.22,789.84c-.28,7-.47,14.06-.88,21.08-.13,2,.17,4.7-2.91,4.88-3.57.24-3.7-2.57-3.8-5-.28-7-.42-14-.63-21.07.24-4.54.43-9.1.8-13.65.15-1.92-.63-4.58,2.68-4.75,3.58-.19,3.67,2.38,3.82,4.9C569.6,780.76,569.92,785.29,570.22,789.84Z"/><path class="cls-1" d="M568.78,752.81c-.13,1.6-.8,3.26-2.68,3.07a3.67,3.67,0,0,1-3.26-3.86c-.11-6.44,0-12.89,0-19.33H563c0-5.83,0-11.66,0-17.51,0-1.51.39-3.19,2.31-3.41,2.33-.26,3.3,1.27,3.49,3.32A220,220,0,0,1,568.78,752.81Z"/><path class="cls-1" d="M372.61,496.27c-.19-6.92,1.74-13.46,3.08-20,.42-2.1,1.65-4.46,4.14-4.28,2.79.2,3.11,2.89,2.72,5-2.11,11.25-2.12,22.58-1.85,33.95,0,1.94-.58,3.54-3.11,3.58s-2.91-1.72-3.15-3.58C373.8,506,373.21,501.13,372.61,496.27Z"/><path class="cls-1" d="M1546.65,493.47c-.23,5.22-.5,10.78-.72,16.35-.11,2.85-1.1,4.9-4.36,4.64-3.06-.24-3.27-2.64-2.9-4.8,1.84-10.81,1.2-21.57-.13-32.36-.25-2-.78-4.77,2.21-5.29,3.14-.56,4.53,1.84,4.79,4.43C1546.1,482,1546.28,487.55,1546.65,493.47Z"/><path class="cls-1" d="M1236.66,589.71c0,5.29-4.93,7.85-9.55,5.84-12.24-5.34-24.6-4.93-36.89-.26-2.79,1.06-5.43,1.85-7.71-.41s-1.5-4.83-.53-7.69c4.19-12.41,5.58-24.91-.14-37.32-1.26-2.73-1.54-5.51.61-7.8s4.84-1.88,7.62-.57c11.72,5.52,23.77,4.28,35.58.68,3.53-1.08,6.34-2.35,9.31.39,3.23,3,.23,5.31-.68,8.15-3.9,12.16-5.26,24.43.89,36.42C1235.71,588.2,1236.36,589.2,1236.66,589.71Zm-9-21.28c-.21-19.8-.21-20-19.83-19.85-22.47.19-18.79-3.52-19.28,19-.45,20.23-.24,20.26,19.68,20.51C1230.5,588.34,1227.59,591.21,1227.7,568.43Z"/><path class="cls-1" d="M689.1,568.5c-.8-6.83,1.2-13.91-3.91-19.72-2.08-2.37-.69-4.7,1.15-6.54,2.25-2.24,4.5-1.94,7.48-.66,11.94,5.11,24.24,4.55,36.28.43,3.15-1.07,5.45-2.59,8.07.5,2,2.39,1.45,4.19.52,7.23-3.74,12.26-6,24.85.41,37.09,1.48,2.82,1.54,5.57-.31,7.76-2.29,2.71-5.19,2-8.35.65-11.72-5-23.75-4.46-35.56-.47-3.42,1.16-6.13,2.71-9.07-.5-2.73-3-1.64-5.45.57-8.12C690.85,580.76,688.29,574.25,689.1,568.5Zm3.77-.46c0,19.55,0,19.55,17.1,19.75,21,.25,21,.25,21.42-20.41.39-18.53.39-18.53-18.28-18.86C692.86,548.18,692.86,548.18,692.87,568Z"/><rect class="cls-2" x="1919" y="1079" width="1" height="1"/><rect class="cls-2" width="1" height="1"/><rect class="cls-2" y="1079" width="1" height="1"/><rect class="cls-2" x="1919" width="1" height="1"/></g><g id="Capa_3" data-name="Capa 3"><path d="M808.13,687.84v111H788.3V728.13L768.79,743l-16.18,12.53L736.44,743l-19.51-14.91v70.74H697.1v-111l19.83,15.23,35.68,27.44,35.69-27.44Z"/><path d="M862.05,724.8v75.5H842.23V722.74a15.84,15.84,0,0,0-13.49-13.49H824.3V689.58h4.28v.16a35.64,35.64,0,0,1,13.49,3.65,35.17,35.17,0,0,1,16,16.18,41.54,41.54,0,0,1,2.69,7.46,32.89,32.89,0,0,1,1,8.08Z"/><path d="M988.47,721.47a32.67,32.67,0,0,1-9.2,22.84,32.75,32.75,0,0,1-23.48,55.51h-78.2V780h78.2a13.07,13.07,0,0,0,13-13,12.92,12.92,0,0,0-12.22-13h-59V734.16h59a13,13,0,0,0-.63-26h-78.2V688.32H956A32.62,32.62,0,0,1,988.62,721Z"/><path d="M1115.35,687.84v111h-19.83V753.19H1037a31.39,31.39,0,0,1-14.91-3.65,32.39,32.39,0,0,1-17.77-29V687.84h19.83v32.68a13.06,13.06,0,0,0,13,13h58.53V687.84Z"/><path d="M1219.24,707.51a34.47,34.47,0,0,1,3.65,15.54v75.66h-19.83V721.15a15.8,15.8,0,0,0-13.48-13.48h-58.21V687.84h56.3a34.48,34.48,0,0,1,15.55,3.65,35.17,35.17,0,0,1,16,16.18Z"/></g></g></svg>