<svg xmlns="http://www.w3.org/2000/svg" viewBox="0 0 1920 1080"><defs><style>.cls-1{fill:#f2f2f2;}.cls-2{fill:#020202;}</style></defs><g id="Capa_2" data-name="Capa 2"><g id="Capa_1-2" data-name="Capa 1"><rect class="cls-1" x="1919" y="1079" width="1" height="1"/><rect class="cls-1" width="1" height="1"/><rect class="cls-1" y="1079" width="1" height="1"/><rect class="cls-1" x="1919" width="1" height="1"/></g><g id="Capa_3" data-name="Capa 3"><path class="cls-2" d="M1761.84,582.91c0-11.69-13-24-13-24-9.15-9.05-20-12.17-32.79-11.34-11.35.74-22.79.06-34.19.27-7.19.15-10-2.61-9.93-10.14q.48-37.35-.11-74.7c-.77-46.46-22.72-78.73-65.54-97.05a1912.31,1912.31,0,0,0-198.91-72.41c-10.2-3.07-19.26-6.45-27.35,3.4-.13.16-1-.29-2.13-.61,1.91-6,.31-9.46-6.7-11-28-6.23-55.9-13.13-83.87-19.69-3.69-.86-7.35-2.05-8.54,4.09-.81,4.18-4.54,4.36-5.76.09-3-10.36-11.15-12.23-20-13.71-20.34-3.37-40.14-6.34-57-21.19-65.12-57.4-142.52-84.24-228.48-88.14-40.53,0-82.06,8.36-82.06,8.36-61.19,11.75-115,38.87-161.79,79.55-14,12.16-29.3,17.87-47,19.76-4.75.52-9.45,1.53-14.19,2.2-9.32,1.33-14.9,6.9-18.18,18.49-3.39-14.54-11.66-9.36-18.49-7.79-25.92,6-51.78,12.31-77.69,18.4-4.16,1-7.65,1.91-6.32,7.42.33,1.32.54,3.1-1.3,3.77s-2.86-.71-3.71-1.84c-4.5-5.95-10-6.15-16.72-4.09-70.48,21.51-139.79,46.18-207.57,75.18Q249.77,393,247.75,460.86c-.76,24.88-.29,49.78-.44,74.68-.07,11.44-.68,12-12.37,12.13-10.81.11-21.64.52-32.4-.06-11.37-.59-21.31,1.84-29.83,9.64-12.78,9.25-14.56,28.43-14.56,28.43V706.22c0,7.2,1.82,13.49,8.34,17.6,12.74,17.55,30.49,19.49,50.68,18.72,34.74-1.32,69.58-.07,104.37-.51,9.61-.12,15.32,3.19,20,11.62,15.74,28.22,32.43,55.89,48.41,84,7,12.34,16.14,19.3,31.15,20.58L600.48,878c12.34.49,23.84-.27,30.45-13,.11-.18,1.08.09,1.84.16,1.2,4.06-.15,9.32,7.76,9.12,25.15-.65,50.32-.25,75.49-.32,4,0,8.88,1,7.78-6.08-.57-3.58,1.88-4.36,5.09-4.32q48.51.57,97,1,58.59-.21,117.18-.39c4.14,0,8.3.3,12.46.48,30.62-1.1,61.24-.92,91.85-.09q56.56-.32,113.11-.65c9.88,0,19.77-.23,29.64-.36,2.94,0,7-.77,6.42,3.75-.87,7.3,3.51,6.63,8.19,6.63,23.66-.09,47.32-.16,71,.06,6.67,0,12.92.54,10.81-12.24,6.79,9.59,11.8,17,21.68,16.63,6.25-.23,12.5-1,18.73-1.67q27.65-2.84,55.26-5.77c39.55-4.43,79-9.13,118.62-13.11,13-1.32,21.53-7.55,27.75-18.45,14.4-25.17,29-50.23,43.49-75.35a32,32,0,0,0,2.15-3.93c5.64-13.82,15-19.26,30.68-18.34,26,1.55,52.09.6,78.16.7,14.34-.12,28.7-.34,43.06-.28,5.11,0,9.42-1.3,12.75-5.27a3.76,3.76,0,0,1,.65-.61c17.73-12.83,23.55-29.56,22.13-51.69C1761.65,684.63,1761.84,594.62,1761.84,582.91ZM1371.6,320c1-3.87,1.06-8.52,7.31-8.12,2.54.16,6.06-.35,7.61-2,6.88-7.18,13.78-3.69,21.2-1.4a1920.55,1920.55,0,0,1,196.12,72c22.32,9.62,40.41,27.52,48.23,50.49-19.19-8.56-36.76-16.56-54.43-24.27C1526,375.46,1453,348.26,1377.89,326.49,1374.5,325.5,1370.19,325.38,1371.6,320Zm-147.09-53.24c1.51-2.66,4.2-.56,6.41-.14,5.3,1,10.6,1.93,15.93,2.68,6.52.94,13,1.28,14.81,9.82.67,3.14,4,5.14,7.42,5.91s5.25,2.69,4.45,6.4c-.66,8.72-3.17,10.32-11.47,7.26-14.11-5.19-26.09-13.34-34.79-25.77C1226,271.06,1223.14,269.15,1224.51,266.73ZM708,263.11c29.15-19.37,54.68-43.76,85.74-60.48,38.43-20.7,79.47-32.65,122.52-38.32,11.55-1.54,23.2-2.33,34.84-3.32l20.79-.18c80.59,4.63,152.5,31.35,214.4,83.76,7.75,6.56,15.08,13.8,24.81,17.62,2.72,1.06,3.88,3.64,5.06,6.06,9.9,20,25.88,32.59,47.35,38.05,3.8.95,6.27,1.53,5.23,6.07-1.17,5.1-4.2,4.59-8.13,3.24-13.38-4.59-24.39-12.83-33.85-23-19.08-20.41-38.74-40.09-61.12-57-48.44-36.54-103.1-57.69-163-65.85-11.26-1.53-22.68-1.95-34-3.08l-17.53.11a440.87,440.87,0,0,0-53.44,6.25C844.1,183,795.51,204,752.29,237.36c-19,14.69-36.25,31.32-52.68,48.79-11.37,12.13-23.68,22.9-39.33,29.26-3.53,1.44-6.7,3-8.4-2.34-1.55-4.9.7-5.75,5-6.88,20.72-5.41,36.28-17.66,46.46-36.63C704.63,267.22,706,264.48,708,263.11Zm-58.36,22.2c5.55-1.5,8.62-5.14,10.15-10.31.66-2.25,1.87-3.78,4.12-4.18,10.74-1.91,21.5-3.73,32.65-5.64-5.73,16.51-27.49,33.5-43.22,34.88-5.25.47-4.89-3.19-5.82-6.07C646.49,290.71,644.19,286.77,649.68,285.31ZM315.4,380.47c66.45-28.86,134.55-53.22,203.81-74.41,4.21-1.28,7.36-1.28,10.63,1.82,2.64,2.54,6.18,4.67,9.69,4,7.82-1.49,8.07,4,8.94,8.79,1.13,6.27-4.36,5.23-7.68,6.22A1930.7,1930.7,0,0,0,274.66,428.38c-2,.95-3.78,3-7.58,2.05C276.63,406.85,292.52,390.42,315.4,380.47ZM629.49,850c-7.77-1-11.48,2.74-13.14,10-.72,3.19-3.4,4.77-6.92,4.36l-120.29-14q-36.6-3.68-73.21-7.4c-7-.73-9.78-6.45-12.77-11.57-12.85-22-25.22-44.16-38.36-65.94-7.46-12.4-12.52-26.67-25.24-35.37-6.92-2.36-14.11-2.47-21.31-2.45q-58.44.14-116.88.18c-14.74,0-29-14.23-29-28.83,0-13.17.2-26.36.31-39.53-.06-25.08,0-50.15-.22-75.22-.09-10,6-14.91,14-18.66,2.76-3.59,6.72-3.42,10.63-3.44,13.49,0,27,.11,40.48-.07,16.72-.24,24-7.57,24.11-24.33.25-28.77.52-57.54.45-86.32,0-7,2.72-10.54,9.06-13.53C359.5,396.49,450,361.09,543.62,333.56c3-.9,6.74-4.38,8.59,1.58,1.71,5.41-1.11,7.08-5.89,8.52-51.2,15.46-101.81,32.74-152.08,51-26.59,9.66-41.76,31.31-42,59.67-.3,39.57-.32,79.13-.47,118.68v86.52c.13,13.11.47,26.25.31,39.36-.11,9.3.25,18.43,4,27.14,6.43,8.61,15,14.09,24.72,18.57,43.46,20.09,86.73,40.56,130.05,60.92a41.14,41.14,0,0,1,3.82,2.3c20.88,9.66,41.76,19.37,62.68,29,14.9,6.85,30.77,6.71,46.66,6.33,2.4-.07,4.79-.06,7.19.09,1.93.11,2.2,1.57,2.21,3.17C633.47,849.07,631.85,850.35,629.49,850Zm563.73.09c-1.21,0-2.4.06-3.61,0H733.34c-2.11,0-4.22.18-6.31.07-2.77-.14-3.17-2.27-3.37-4.45-.22-2.68,1.77-2.7,3.55-2.79,1.5-.07,3,0,4.5,0q228.15,0,456.33,0c1.81,0,3.59,0,5.39,0,2,.05,3.37.82,3.41,3.15C1196.89,848.76,1195.88,850.15,1193.22,850.13Zm86.31-3.94c.49,6.68,3.19,15.73-1.2,19.67-3.7,3.32-12.51,1-19,1.08-16.18.11-32.37-.07-48.53.33-5.25.12-7.25-.79-7.25-6.69,0-7.89,4-18-1.92-23.18-5.25-4.54-15-1.08-22.74-1.46L726,835.7c-7.35-.07-8.86,2.42-9.11,9.07-.31,7.29,3.38,17.09-1.77,21.18-4.45,3.53-13.78,1-20.93,1-15.91.08-31.8-.12-47.7.26-4.88.12-6.34-1.41-6.07-6.06.31-5.67-.14-11.4.15-17.08.32-6.07-1.84-8.45-8.25-8.25a275.08,275.08,0,0,1-32.36-.67c-14.27-1.26-26.69-8.12-39-14.93q-41-19.05-82-38.13-45.92-21.39-91.72-43c-3.44-1.62-7.41-2.47-10-5.6-11.26-4.31-17.22-12.81-17.55-24.54-.43-16.47.06-33,.15-49.44q0-43.25,0-86.46c-.07-40.79-1.08-81.62.14-122.37.71-23,13.1-40.36,35.32-48.61,51-19,102.66-35.86,154.51-52.2,12.48-3.93,12.59-3.89,9.62-16.43-2.63-11.06-5.32-22.11-8.31-33.08-1.38-5.1-1.42-7.89,5.12-9.31q36.35-7.87,72.41-17.16c6-1.53,7.17.76,8.23,5.54,2.85,12.84,6.53,25.51,8.89,38.43,1.31,7.27,5,7.83,10.68,6.32,10.56-2.85,19.93-8.09,28.63-14.58,8.45-6.3,15.87-13.71,23-21.45,55.24-60.07,122.49-98,203.59-110.36a341.53,341.53,0,0,1,39.36-3.93c10.83-.36,23.9.51,23.9.51,72.42,4.18,137.3,28.27,194.07,73.54,18.58,14.8,35.12,31.79,51.17,49.24,11.82,12.85,25.94,22,42.81,26.9,6.36,1.84,10.41,1.23,11.82-6.88,2.25-13,5.82-25.66,8.88-38.45.85-3.55,1.21-6.52,6.9-5.08,24.88,6.36,49.91,12.22,75,17.8,5.24,1.17,5.13,3.5,4.14,7.52-3.17,12.77-5.46,25.8-9.38,38.32-2.74,8.66,1.78,10.32,8.07,12.21,50.91,15.37,101.27,32.4,151.23,50.56,30,10.9,41.13,26.61,41.2,58.71.09,37.5-.18,75-.3,112.48q0,44.14,0,88.27c0,16.47.45,32.93,0,49.4-.39,14.43-10,22.34-22,28q-43.41,20.43-86.88,40.72c-34.38,16.14-69,31.83-103,48.64-18.83,9.3-38.45,10.63-58.58,9.53C1281.73,835.32,1278.92,837.83,1279.53,846.19Zm442.08-118.46c-12.86,0-25.73-.16-38.57-.25-27.59.14-55.19.75-82.75.23-16.43-.32-27.71,5.51-35.73,20.27-14.74,27.08-31,53.33-45.84,80.34-5.83,10.63-13.65,15.31-25.49,16.43-40.86,3.87-81.67,8.37-122.48,12.75q-29.48,3.16-58.91,6.83c-4.6.58-7.79-.3-8.92-5-1.51-6.18-4.36-10.25-11.64-9.26-2.86.4-4.34-1.26-4.25-4.34.12-3.5,2.81-2.81,4.56-2.56,36.12,5.3,65.38-13.44,95.86-27.53,49.93-23.08,99.64-46.61,149.42-70,6.75-3.17,13.62-6.16,19.22-11.37,7.64-7.1,11.71-15.64,11.73-26.2,0-15.58.25-31.17.41-46.75q0-44.13.08-88.28-.19-58.92-.38-117.83c0-30.31-13.82-50.52-42.41-60.85-50.31-18.16-100.88-35.58-152.15-50.82-4.65-1.39-6.67-2.79-5.41-7.8,1.53-6.13,5.13-3.21,8.32-2.25a1841.32,1841.32,0,0,1,210.4,76.66c21.1,9.2,42,18.77,63.14,28,4.3,1.87,6.23,4.47,6.9,9.26,2.14,15.55.72,31.13,1,46.7.31,15.28-.09,30.59.15,45.87.21,14.43,8,21.91,22.5,22.16,5.69.11,11.39.16,17.08.25,9.26-.09,18.54-.65,27.78-.16,11.06.58,21.33,11.1,21.44,22.11q.63,59.21.6,118.47C1747.3,711.84,1730.62,727.69,1721.61,727.73Z"/><path class="cls-1" d="M1560.43,659.5c0,16.47.45,32.93,0,49.4-.39,14.43-10,22.34-22,28q-43.41,20.43-86.88,40.72c-34.38,16.14-69,31.83-103,48.64-18.83,9.3-38.45,10.63-58.58,9.53-8.25-.45-11.06,2.06-10.45,10.42.49,6.68,3.19,15.73-1.2,19.67-3.7,3.32-12.51,1-19,1.08-16.18.11-32.37-.07-48.53.33-5.25.12-7.25-.79-7.25-6.69,0-7.89,4-18-1.92-23.18-5.25-4.54-15-1.08-22.74-1.46L726,835.7c-7.35-.07-8.86,2.42-9.11,9.07-.31,7.29,3.38,17.09-1.77,21.18-4.45,3.53-13.78,1-20.93,1-15.91.08-31.8-.12-47.7.26-4.88.12-6.34-1.41-6.07-6.06.31-5.67-.14-11.4.15-17.08.32-6.07-1.84-8.45-8.25-8.25a275.08,275.08,0,0,1-32.36-.67c-14.27-1.26-26.69-8.12-39-14.93q-41-19.05-82-38.13-45.92-21.39-91.72-43c-3.44-1.62-7.41-2.47-10-5.6-11.26-4.31-17.22-12.81-17.55-24.54-.43-16.47.06-33,.15-49.44q0-43.25,0-86.46c-.07-40.79-1.08-81.62.14-122.37.71-23,13.1-40.36,35.32-48.61,51-19,102.66-35.86,154.51-52.2,12.48-3.93,12.59-3.89,9.62-16.43-2.63-11.06-5.32-22.11-8.31-33.08-1.38-5.1-1.42-7.89,5.12-9.31q36.35-7.87,72.41-17.16c6-1.53,7.17.76,8.23,5.54,2.85,12.84,6.53,25.51,8.89,38.43,1.31,7.27,5,7.83,10.68,6.32,10.56-2.85,19.93-8.09,28.63-14.58,8.45-6.3,15.87-13.71,23-21.45,55.24-60.07,122.49-98,203.59-110.36a341.53,341.53,0,0,1,39.36-3.93c10.83-.36,23.9.51,23.9.51,72.42,4.18,137.3,28.27,194.07,73.54,18.58,14.8,35.12,31.79,51.17,49.24,11.82,12.85,25.94,22,42.81,26.9,6.36,1.84,10.41,1.23,11.82-6.88,2.25-13,5.82-25.66,8.88-38.45.85-3.55,1.21-6.52,6.9-5.08,24.88,6.36,49.91,12.22,75,17.8,5.24,1.17,5.13,3.5,4.14,7.52-3.17,12.77-5.46,25.8-9.38,38.32-2.74,8.66,1.78,10.32,8.07,12.21,50.91,15.37,101.27,32.4,151.23,50.56,30,10.9,41.13,26.61,41.2,58.71.09,37.5-.18,75-.3,112.48Q1560.4,615.38,1560.43,659.5Z"/><path d="M798.38,502V613H778.55V542.28L759,557.19l-16.18,12.53-16.18-12.53-19.51-14.91V613H687.34V502l19.83,15.22,35.69,27.44,35.69-27.44Z"/><path d="M852.3,539v75.5H832.47V536.89A15.8,15.8,0,0,0,819,523.41h-4.44V503.74h4.28v.16a35.55,35.55,0,0,1,13.48,3.65,35.17,35.17,0,0,1,16,16.18,42.26,42.26,0,0,1,2.7,7.45,33.53,33.53,0,0,1,1,8.09Z"/><path d="M978.71,502V613H958.88V567.35H900.36a31.39,31.39,0,0,1-14.91-3.65,32.41,32.41,0,0,1-17.77-29V502h19.83v32.67a13.07,13.07,0,0,0,13,13H959V502Z"/><path d="M1105.6,535.62a32.67,32.67,0,0,1-9.2,22.84A32.76,32.76,0,0,1,1072.92,614H994.73V594.15h78.19a13.07,13.07,0,0,0,13-13,12.92,12.92,0,0,0-12.21-13h-59V548.31h59a13,13,0,0,0-.64-26h-78.2V502.47h78.2a32.63,32.63,0,0,1,32.68,32.68Z"/><path d="M1223.12,557a32.75,32.75,0,0,1-23.47,55.51h-45.52a32.59,32.59,0,0,1-30.14-20,34.31,34.31,0,0,1-2.54-12.85V534.19a32.11,32.11,0,0,1,8.25-21.41,33.65,33.65,0,0,1,9.52-7.45,31.39,31.39,0,0,1,14.91-3.65h69v19.83h-69a13.06,13.06,0,0,0-13,13v15.55a32.48,32.48,0,0,1,12.37-2.54h46.79a32.77,32.77,0,0,1,23,10Zm-23.63,35.68a13.07,13.07,0,0,0,13-13,12.93,12.93,0,0,0-12.22-13h-46.79a13,13,0,0,0,.64,26h45.36Z"/></g></g></svg>