<svg xmlns="http://www.w3.org/2000/svg" viewBox="0 0 1920 1080"><defs><style>.cls-1{fill:#f2f2f2;}.cls-2{fill:#010001;}</style></defs><g id="Capa_2" data-name="Capa 2"><g id="Capa_1-2" data-name="Capa 1"><rect class="cls-1" x="1919" y="1079" width="1" height="1"/><rect class="cls-1" width="1" height="1"/><rect class="cls-1" y="1079" width="1" height="1"/><rect class="cls-1" x="1919" width="1" height="1"/><path class="cls-2" d="M1736.52,409.78c0-9.75-8.9-19-8.9-19-7.44-6.08-16.09-7.72-25.5-7.7-29.59.08-59.18-.2-88.77-.33-38.78.69-77.59,1.49-116.3-.44-15-.75-29.67-6.25-44.52-9.45q-70.92-15.3-141.88-30.49c-43.54-8-87.31-14.4-131.29-19.72-27.21-3.31-54.33-7.37-81.66-9.7-17.4-1.49-19.8-3.82-20-21.33-.16-11.94-3.3-22.69-11.48-31.67l-8.46-6c-10.36-5.62-21.53-5-32.65-4.64V237.09a34.67,34.67,0,0,0-7.59-21.67L1240,171.58a15.32,15.32,0,0,0-3-30.36,15.82,15.82,0,0,0-3,.28L959.67,195.56,685.31,141.5a15.74,15.74,0,0,0-3-.28,15.32,15.32,0,0,0-12.71,23.87,15.19,15.19,0,0,0,9.76,6.49l222.5,43.84a34.62,34.62,0,0,0-7.6,21.67v12.27h-1.82c-25,0-36.45,9-36.45,9-9.92,8.57-13.72,19.75-13.84,32.5-.15,17.22-3,20.13-20.64,21.89-48.72,4.86-97.26,11.19-145.68,18.51-16.39,2.48-32.74,5.19-49.1,7.8q-98,19.51-195.26,42.21a86.15,86.15,0,0,1-19.8,1.8q-96.37.09-192.75.12c-10.53,0-20.38,1.61-28.55,8.93s-7.69,45.08-7.69,45.08v84.49c0,17.75,9.34,41.77,9.34,41.77a345.59,345.59,0,0,0,21,36.7,53.06,53.06,0,0,0,28,22.28c6,2.09,11.94,4.35,18,6.35,21.35,7.09,37.2-4.26,37.68-26.91.1-5,0-10,.44-14.93,1.57-16.21,14.18-23.07,28.66-15.8,4.66,2.35,9.76,1.6,14.69,1.62,23,.08,46,.08,69-.13,5.32-.06,9.51.71,12.73,5.71,3.34,5.19,9.18,7.23,15,7.8,5.61.53,8.69,3.41,11.7,7.79q38.91,56.8,78.17,113.34c1.71,2.47,3.18,5.07,4.75,7.61,22.89,32.89,46,65.6,68.55,98.74,13.05,19.21,27.08,37.08,48.54,47.55l11.48,4.4c11.47,4.4,33.73,5.4,33.73,5.4l521.18.43c33.94.34,63.08-9.06,87.06-33.32,6.4-9.3,13-18.5,19.13-28,2.43-3.75,3.86-2.87,6.93-.59,10.64,7.9,21.76,15.15,32.45,23,4.74,3.49,7.67,2.57,10.83-2q28.13-40.5,56.49-80.85c2.27-3.24,3.13-6.41.11-9.68q-17.54-11.78-35.08-23.53c-3.49-2.32-4.52-3.89-1.44-8.28,27-38.41,53.64-77.09,80.23-115.8,2.37-3.45,4.72-5.59,9.1-6,7.1-.66,13.56-3.55,17.88-9.31,2.77-3.7,6-4.28,10-4.28q37.33,0,74.67-.15c3.87,0,7.64-.25,11.27-2.09,11.49-5.79,20.87-2.14,26.44,10.06,3.24,7.72,1.56,15.85,1.87,23.79.76,19.23,17.1,31,35.34,25,6.29-2,12.44-4.53,18.74-6.53,13.86-4.41,24-13.16,31.4-25.53,2.1-3.54,4.55-6.87,6.85-10.3,6.34-11.84,12.79-23.66,17.25-36.37,4.31-12.24,3.32-25.25,3.83-37.85C1738.16,473.86,1736.66,448.81,1736.52,409.78ZM1235.35,148.19a8.52,8.52,0,0,1,3.29,16.72l-227,44.71A34.76,34.76,0,0,0,997,202.91L977.3,199ZM680.7,164.91A8.52,8.52,0,0,1,684,148.19L942,199l17.63,3.47,36,7.09a28,28,0,0,1,6.13,2,27.66,27.66,0,0,1,7.92,5.4,28,28,0,0,1,8.56,20.13v12.56c-7,.6-12.64,2.29-17,5.2V237.09a11,11,0,0,0-8.87-10.79l-15.05-3-17.63-3.48-42.1-8.29-9.87-1.95ZM930.9,286.36a63.41,63.41,0,0,0-2.73-17.52,69.74,69.74,0,0,1,62.9.23,50.81,50.81,0,0,0-2,13.68c-.24,8.86-.5,17.72-.6,26.59-.14,11-5.33,18.9-14.59,24.41a27.15,27.15,0,0,1-25,1.56c-10.67-5.56-17.93-13.46-17.64-26.52C931.44,301.32,931.17,293.84,930.9,286.36Zm28.48-32.85a77.48,77.48,0,0,0-34.44,8.06V237.09a4.2,4.2,0,0,1,3.37-4.1l31.36-6.18L991,233a4.19,4.19,0,0,1,3.37,4.1v24.63l-.06.11A77.57,77.57,0,0,0,959.38,253.51Zm-58.29-16.42A28,28,0,0,1,909.65,217L942,223.34l-15,3a11,11,0,0,0-8.87,10.79V255c-4.36-2.89-10-4.58-17-5.28Zm-.63,36.47c0-2,0-3.94-.11-5.92a6.71,6.71,0,0,1,.74-3.88c.94-1.4,2.79-1.29,5.35-.14a19.58,19.58,0,0,1,6.86,5,18.5,18.5,0,0,1,3.78,7.06,26.56,26.56,0,0,1,1,6.57c0,.17,0,.36,0,.53q.16,5.82.22,11.67.06,7.18-.08,14.38c-.39,22.4,16.71,38,33.55,41.73,0,0,4.37,1.32,13.45.57,15.73-1.31,26.54-11.52,33.2-25.91,2.91-6.28,3.1-12.83,3.17-19.49,0-3.63,0-7.27,0-10.91,0-3.36,0-6.72.11-10.08,0-1,.06-2.08.09-3.11a25.19,25.19,0,0,1,.73-5.28,17.64,17.64,0,0,1,3.62-7.2,20.1,20.1,0,0,1,7.94-5.58c1.84-.74,3.21-1,4.13-.52s1.49,1.82,1.43,4.19-.08,4.54-.09,6.82v1.16c0,4.83,0,9.64,0,14.47-.07,1.32-.12,2.63-.14,3.95,0,.21,0,.41,0,.62-.14,7.86.39,15.74-1.06,23.61-4.69,25.54-25.75,45.43-51.46,48.11a82.69,82.69,0,0,1-13.64.09c-24.28-2.91-49.39-25-51.83-49.43-.75-7.54-1-15.14-1.29-22.71-.08-1.82-.16-3.65-.25-5.47l.45,0c0-2.79,0-5.6.05-8.39v-.31c0-1.5,0-3,0-4.49C900.47,274.66,900.47,274.12,900.46,273.56Zm436.48,524.55c-1.19,2.12-2.08,5-5.14,5.44-2.08.32-2.86-1.39-2.54-3.16.49-2.69,1.36-5.44,4.78-5.54C1335.78,794.8,1337.13,795.75,1336.94,798.11Zm5.47-30.6c-7.15-4.34-8.9,4-12.2,7.72a59.63,59.63,0,0,0-8.63,12.14c-3,5.74-5.7,5.47-10.83,2.16-5.88-3.78-2.79-6.3-.38-9.77q23.91-34.38,47.66-68.89c5.69-8.24,7.68-8.77,13.74-.93,3.8,4.94,6.81,9.79,13.92,9.76,2,0,3.6,1.38,3.14,4.56-.71,2.25-2,4.66-5.64,3.1-2.27-1-4.33-2.43-6.57-3.49-5.82-2.73-10.41-1.71-14.14,4-5.27,8.11-11.18,15.81-16.56,23.84-2.51,3.75-3.25,7.75,1.38,10.79,4.44,2.92,7.26.33,9.69-3,5.51-7.61,10.87-15.31,16.44-22.88,1.55-2.09,3.25-6,6.14-4.2s.16,4.84-1.4,7.05c-10.79,15.39-21.51,30.82-32.42,46.11-1.55,2.17-2.86,6.86-6.39,4.47-2.53-1.71.49-4.83,1.83-7.15C1344.05,777.91,1350.44,772.37,1342.41,767.51Zm-123.68-34c9.25,34.32,36.4,50.22,68.66,54.83,7.16,1,7.12,2.59,3.51,7.6-6,8.3-11.57,16.9-17.57,25.2-11.3,15.69-26.77,23-46,24s-37.18-5.08-55.63-8.35c-27.8-4.92-55.78-8.49-83.79-11.91-35.42-3.07-70.93-4.52-106.43-6.16-26.13.48-52.27.9-78.41,1.48-10.44.24-20.89.86-31.34,1.32l-83.08,8.32c-31.24,3.7-61.37,14.3-93.06,15.09-21.61.56-38.4-8.4-50.62-26.26q-42.63-62.34-85.46-124.57-52.85-77-105.7-154c-1.23-1.81-2.23-3.78-3.35-5.67-9.86-11.13-15.86-25.13-26.51-35.69a4.51,4.51,0,0,1-.89-3c0-20.31,1-40.4,13.52-57.79,12.66-21.29,32.2-32.6,55.59-38.33A2263.72,2263.72,0,0,1,725,355.09q46.35-5.91,92.73-11.82c23.05-2.91,43.65,2.11,60.43,19.11l.55.54q5.5,5.5,11.38,10.41c13,10.76,27.37,19,44.44,23.23,15.7,3.88,31.24,3.58,47,1.26,17.89-4.14,33.09-12.53,46.77-23.67,3.94-3.2,7.75-6.63,11.47-10.25,1.08-1,2.14-2.11,3.21-3.19A57.59,57.59,0,0,1,1087.88,343c23,.1,45.66,4.05,68.39,6.91,49.33,6.21,98.47,13.69,147.36,22.86,43.41,8.15,86.59,17.39,129.35,28.47,18.85,4.89,35.25,14.13,46.17,31.15,14.68,17.27,18.4,37.8,17.52,59.62-.15,3.66-2,6.84-4.06,9.85q-63.6,92.75-127.17,185.51a9.48,9.48,0,0,1-1.83,1.57c-3.09-1.34-3.13-4.5-4.27-6.79-15.87-32.47-51.57-49.25-86-40.56-4.9,1.23-8.5,3.4-11.35,7.51-13.88,20-27.66,40.09-42,59.77C1214,717.17,1217.38,725.19,1218.73,733.47Zm14.92,15.87c-6.38-8-8.46-17.73-10.63-27.42-.68-3,.52-5.39,2.12-7.7q21-30.32,42.09-60.6a14.61,14.61,0,0,1,10.93-6.5c36.12-4.36,62.69,10.74,77.89,44,1.89,4.14,1.75,7.21-.74,10.7q-15.45,21.74-30.79,43.54-11.52,17.18-23,34.35c-1.27,1.9-2.65,3.68-5.28,3.31C1271.25,779.46,1248.08,772.51,1233.65,749.34Zm131.27,77a3.72,3.72,0,0,1-4.1-4c.31-2.69,1.81-5.37,4.84-5.63,2.7-.23,3.3,2.19,3.62,4.12C1368.69,823.61,1367.61,826.1,1364.92,826.3Zm48.63-80.11c.32-2.42,1.53-4.14,4.13-4.19s3.84,1.57,4.11,4c-1,2.26-1.56,4.92-4.8,4.66C1414.31,750.43,1413.21,748.78,1413.55,746.19Zm-1,12.41a30.76,30.76,0,0,1-2.24,4.45q-16.33,23.38-32.79,46.69c-1.59,2.26-3.32,5.15-6.47,2.88-2.55-1.84-1.24-4.37.29-6.56q17.11-24.36,34.2-48.73c1.19-1.7,2.2-4.18,5.12-2.91C1412.12,755,1412.6,756.34,1412.6,758.6Zm-19.92-28.78c2-3,3.5-3.44,6.6-1.63,12.52,7.32,12.57,7.83,4.46,19.35-15.26,21.71-30.25,43.6-45.52,65.31-1.37,1.95-2.31,6.26-5.76,4.55-4.85-2.38-9.13-5.9-13.85-9.08,1.39-2.14,2.23-3.53,3.16-4.86C1358.75,778.92,1375.82,754.44,1392.68,729.82ZM1724,429.66c0,24.88-.35,49.76,0,74.63.11,8.35-.55,15.87-7.48,21.51.18,3-1.29,6.61,1.18,8.76,6.11,5.33,3.3,10.52.92,16.27-6.07,14.58-14.08,28.07-22.43,41.39A41.27,41.27,0,0,1,1674.05,610c-6,2-11.9,4.34-17.86,6.5-10.7,3.87-18.85-1.53-19.7-13.14-.25-3.3-.27-6.62-.26-9.93.07-21.77-6.42-31.31-26.39-38.73-7-1-13.75-1-20,3.11-3.17,2.09-7,1.6-10.52,1.61q-37.36.21-74.74.23c-6.61,0-12.44.37-15.42,8.08a9.05,9.05,0,0,1-11.06,5.42c-6.61-2-9.69,1.51-12.85,6.09q-39.55,57.36-79.19,114.66c-.79,1.13-1.25,2.69-2.3,3.41-3.2,2.19-2.57,10.48-10.66,5.24-7.59-4.93-4.65-7.83-1-13.15q54.45-78.82,108.4-158c3-4.34,5.59-9,9.12-12.84,19.41-21,15.44-44.47,7.88-68.45-.58-1.83-1.28-3.61-1.93-5.41-15.69-34.28-45.85-47.13-79.95-55.17-76.16-18-153-32-230.51-42.78-23.54-3.28-47.13-6.13-70.7-9.17-12.11-1.15-24.3-2.74-36.38-1a73.55,73.55,0,0,0-36.41,15.94,86.14,86.14,0,0,0-8.76,8.18c-.24.25-.48.51-.73.76-17,17.83-37.75,27.94-62.22,31.07a101.4,101.4,0,0,1-26.45-1.17,97.08,97.08,0,0,1-52.26-26.72c-1.68-1.63-3.35-3.25-5-4.87-3-2.86-6.06-5.66-9.25-8.3-2.21-1.84-4.5-3.6-6.89-5.25-21.69-12.37-44.91-11.17-68.46-7.95-32.53,4.45-65.12,8.43-97.64,12.92,0,0-60.86,9.25-116.62,19.74l-88.1,19.78c-5.28,1.45-10.57,2.88-15.85,4.34-26.65,7.39-45.74,24-58.72,48.13a122.85,122.85,0,0,0-8.31,39.38c-.37,10.53,1.08,20.12,8.47,28.34,3.27,3.65,5.57,8.18,8.29,12.3q39.47,57.3,78.92,114.59,58.65,85.37,117.23,170.8c1.08,1.57,2,3.27,2.9,4.92,2.6,3.53,5.29,7,7.77,10.62,12.71,18.59,30.63,26.57,52.81,27.71,21.45,1.1,41.37-6.24,62-9.45,38.8-6,77.63-11.58,116.89-13.56,25.88-2.52,51.87-2.2,77.82-2.91l35,.27c74.07.42,147.13,9.45,219.79,23.83,35.22,7,61.56-1.81,80.56-33.17,4.59-7.56,9.88-14.67,14.5-22.2,2.25-3.66,4.47-2.85,6.46-.48s9.17,1.91,5.47,7.9c-20.62,33.42-47,57.08-89.66,56.08l-524-.28c-24.57,0-46.38-6.47-64.42-23.65a90.41,90.41,0,0,1-18-23.42c-15.23-21.7-30.58-43.3-45.67-65.12Q512.71,663.43,456.08,581c-3.88-5.67-7.71-9.77-15.45-8-5,1.13-8.85-2.1-10.55-6.37-2.6-6.5-7.46-7.24-13.34-7.21-24.92.11-49.84.09-74.75.1a31.91,31.91,0,0,1-15.07-3.32c-15.82-8-39.28,5.76-42.17,24.47-1,6.53-1,13.23-1.23,19.86-.45,14.46-7.66,18.61-21.32,15.5-38.7-8.79-50.18-40.57-62.77-71.75-1.81-2.29-1.77-4.41.41-6.53,5.74-5.61,4.75-11.16-.41-16.5a10.14,10.14,0,0,1-2.93-7.47q0-38.89,0-77.81c-.05-8.29-.48-16.59-.05-24.86S201.68,398,210,397a153,153,0,0,1,17.41-.6c61.18,0,122.36-.15,183.54.13,21.38.09,41.27-7.09,61.79-11.23,12.71-2.55,25.35-5.44,38-8.17l25-5.59s67.79-15,115.79-23.28S759.2,333.06,759.2,333.06c24.38-3.19,48.87-5.6,73.29-8.62,13.28-1.65,21.62-11,22.63-24.57.41-5.52.42-11.08,1.26-16.53,1.84-11.89,10.58-19.74,22.43-20.68,14.86-1.18,14.69-1.18,15,13.49.08,4,.06,8,0,12,0,5.11-.13,10.22,0,15.32a141.08,141.08,0,0,0,1.39,19.11c.5,3.33,2.15,6,2.71,9.14C909,356,927.39,370.46,954.5,372.56a71.83,71.83,0,0,0,16.83-.76c33.16-5,54.84-32.13,54.83-65.7v-.21c0-5.31,0-10.61,0-15.91,0-7.36,0-14.71-.13-22.05-.09-4.71,1.49-6.05,6.21-6,22.46.14,32,9.55,32.27,32.42.23,19.83,7.37,27.53,27,30.69,7.08,1.15,14.41.23,21.26,2.83,20.34,2.29,40.69,4.4,61,6.92,48.58,6.05,97,13.44,145,23.11,34.13,6.88,68.18,14.23,102.21,21.61,22.36,4.86,44.64,10.06,66.9,15.31,7.68,1.82,15.41,1.55,23.14,1.56q63.6.12,127.2.06c2.75,0,5.51.26,8.25.39,20.44-.1,40.89-.37,61.33-.21,9,.07,14.48,5.13,15.52,14A163,163,0,0,1,1724,429.66Z"/><path class="cls-1" d="M1496.67,492c-.15,3.66-2,6.84-4.06,9.85q-63.6,92.75-127.17,185.51a9.48,9.48,0,0,1-1.83,1.57c-3.09-1.34-3.13-4.5-4.27-6.79-15.87-32.47-51.57-49.25-86-40.56-4.9,1.23-8.5,3.4-11.35,7.51-13.88,20-27.66,40.09-42,59.77-6,8.3-2.66,16.32-1.31,24.6,9.25,34.32,36.4,50.22,68.66,54.83,7.16,1,7.12,2.59,3.51,7.6-6,8.3-11.57,16.9-17.57,25.2-11.3,15.69-26.77,23-46,24s-37.18-5.08-55.63-8.35c-27.8-4.92-55.78-8.49-83.79-11.91-35.42-3.07-70.93-4.52-106.43-6.16-26.13.48-52.27.9-78.41,1.48-10.44.24-20.89.86-31.34,1.32l-83.08,8.32c-31.24,3.7-61.37,14.3-93.06,15.09-21.61.56-38.4-8.4-50.62-26.26q-42.63-62.34-85.46-124.57-52.85-77-105.7-154c-1.23-1.81-2.23-3.78-3.35-5.67-9.86-11.13-15.86-25.13-26.51-35.69a4.51,4.51,0,0,1-.89-3c0-20.31,1-40.4,13.52-57.79,12.66-21.29,32.2-32.6,55.59-38.33A2263.72,2263.72,0,0,1,725,355.09q46.35-5.91,92.73-11.82c23.05-2.91,43.65,2.11,60.43,19.11l.55.54q5.5,5.5,11.38,10.41c13,10.76,27.37,19,44.44,23.23,15.7,3.88,31.24,3.58,47,1.26,17.89-4.14,33.09-12.53,46.77-23.67,3.94-3.2,7.75-6.63,11.47-10.25,1.08-1,2.14-2.11,3.21-3.19A57.59,57.59,0,0,1,1087.88,343c23,.1,45.66,4.05,68.39,6.91,49.33,6.21,98.47,13.69,147.36,22.86,43.41,8.15,86.59,17.39,129.35,28.47,18.85,4.89,35.25,14.13,46.17,31.15C1493.83,449.66,1497.55,470.19,1496.67,492Z"/><path class="cls-2" d="M1305.39,681.82a34.85,34.85,0,0,0-48,13c-7.49,13.16-4.89,25.93,2,38.43,18.09,17.31,33.78,18.32,53.71,3.43,1.44-2.3,3-4.56,4.32-6.91C1327.54,712.42,1322.33,691.6,1305.39,681.82Zm-17.68,58.08c-15.56-.44-28.09-12.86-28.24-28-.14-14.77,13.16-28.15,28-28.18,15.53,0,28.52,13,28.38,28.42C1315.71,727.39,1302.58,740.32,1287.71,739.9Z"/><path class="cls-1" d="M1315.86,712.18c-.15,15.21-13.28,28.14-28.15,27.72-15.56-.44-28.09-12.86-28.24-28-.14-14.77,13.16-28.15,28-28.18C1303,683.74,1316,696.75,1315.86,712.18Z"/></g><g id="Capa_3" data-name="Capa 3"><path d="M800.83,519.13v111H781V559.41L761.5,574.32l-16.18,12.54-16.18-12.54-19.51-14.91v70.75H689.8v-111l19.83,15.22,35.69,27.44L781,534.35Z"/><path d="M854.76,556.08v75.5H834.93V554a15.8,15.8,0,0,0-13.48-13.48H817V520.87h4.29V521a35.55,35.55,0,0,1,13.48,3.65,35.17,35.17,0,0,1,16,16.18,42.26,42.26,0,0,1,2.7,7.45,33.53,33.53,0,0,1,1,8.09Z"/><path d="M981.17,519.13v111H961.34V584.48H902.81a31.42,31.42,0,0,1-14.91-3.65,32.42,32.42,0,0,1-17.76-29V519.13H890V551.8a13.06,13.06,0,0,0,13,13H961.5V519.13Z"/><path d="M1108.05,552.75a32.64,32.64,0,0,1-9.19,22.84,32.77,32.77,0,0,1-23.48,55.52h-78.2V611.28h78.2a13.07,13.07,0,0,0,13-13,12.93,12.93,0,0,0-12.22-13h-59V565.44h59a13,13,0,0,0-.63-26h-78.2V519.6h78.2a32.63,32.63,0,0,1,32.67,32.68Z"/><path d="M1194.18,519.13A35.81,35.81,0,0,1,1230,555v39.18A35.81,35.81,0,0,1,1194.18,630h-34.26a35.81,35.81,0,0,1-35.85-35.85V555a35.81,35.81,0,0,1,35.85-35.84ZM1159.92,539a16.25,16.25,0,0,0-16.18,16.18v39.18a16.25,16.25,0,0,0,16.18,16.18h34.26a16.25,16.25,0,0,0,16.18-16.18V555.13A16.25,16.25,0,0,0,1194.18,539Z"/></g></g></svg>