<svg xmlns="http://www.w3.org/2000/svg" viewBox="0 0 1920 1080"><defs><style>.cls-1{fill:#f2f2f2;}.cls-2{fill:#010101;}</style></defs><g id="Capa_2" data-name="Capa 2"><g id="Capa_1-2" data-name="Capa 1"><rect class="cls-1" x="1919" y="1079" width="1" height="1"/><rect class="cls-1" width="1" height="1"/><rect class="cls-1" y="1079" width="1" height="1"/><rect class="cls-1" x="1919" width="1" height="1"/><path class="cls-2" d="M1645.32,447.71c-3.33-3.68-10.8-2.85-11-9.53-.12-5.37-3-6.06-7.36-6l-85-.08c-2.45,0-5.89-1.07-5.49,3.18.49,5-2.13,5.4-6,5.14-3.53-.24-7.08-.12-10.63-.2-9.8-.23-10.39-.66-10.41-10.59-.09-29.78.38-59.57-.11-89.34-.67-40.67-21-68.5-57.76-84.63-14.08-6.17-29.34-8.72-44.12-12.7a1583.35,1583.35,0,0,0-186.4-38q-58.92-8.48-118.29-12.94c-45-3.38-90.1-5.92-135.28-6l-22.24.07L810.19,193c-55.63,3.94-110.77,11.52-165.71,21-55.63,9.64-110.28,23.36-164.79,37.77-39,10.3-66.9,44.91-67.79,85.38-.65,30-.11,60-.17,90,0,12.2-.63,12.74-12.76,13-3.32.07-6.62.08-9.92.26-2.74.15-4.72-.29-4.26-3.74.58-4.52-2.11-4.74-5.67-4.68H293.48c-4.13-.07-6.69.8-6.81,5.77-.18,7.29-7.44,6.32-10.81,11.32,0,0-4.52,5.62-5.33,7.83-.66,1.83-.78,7.74-.78,7.74V570.62c1.15,13,5,25,14.82,34.24,2.4,2.27,2.3,5,2.3,7.81,0,17.27.11,34.52-.19,51.77-.08,4.67,1.28,6.15,5.88,5.92l86.4-.18c4.64.12,6.08-1.4,5.86-6-.3-6.59.1-13.21.2-19.8,0-8.93,0-17.88-.2-26.81-.08-3.4,1.08-4.49,4.48-4.33,8.21.38,16.45,0,24.67.86,4.22.47,6.21,1.92,6.67,6.36a148.7,148.7,0,0,1,.35,21.1c1.24,4.84.32,7.94-5.63,6.95-4.57-.77-4.73,2-4.73,5.46,0,12.87-.18,25.74-.31,38.6.08,14.83.53,29.66.08,44.47-.2,6.75,1,10.41,8.66,9.21,5.39-.85,9.86,1,14.07,4.77,9.17,8.21,20.14,11.73,32.52,11.07,4.22-.22,8.45.13,12.69.23,21.25-1.13,31.52,3.9,37.5,18.78,2.52,6.28,4.35,12.82,6.63,19.19,1.41,4,3.09,7.82,4.64,11.72,16.07,32,38.89,57,72.5,71.15,33.67,13.48,59.86,10.47,59.86,10.47a168.91,168.91,0,0,0,21.85-1.86C699.62,889.37,717,883,734.93,879c37.36-10.19,75.46-16.22,113.89-20.68,33.56-3.9,67.26-5.38,101-6.78l19.22-.18c26.53,1.24,53.09,2,79.52,4.7a784.7,784.7,0,0,1,88.11,11.73c13.84,2.62,27.54,6,41.34,8.91a12.29,12.29,0,0,1,6.78,3.29c4.88-1.09,9.31.83,13.75,2.19,44.29,13.63,88.38,18,132-2.55,27.66-15.15,48-37.37,62.64-65,4.13-11.23,8.1-22.5,12.4-33.66,4.06-10.53,11.56-17.07,23-18.15,5.84-.55,11.74-.62,17.62-.62,10.34,0,20.73.52,30.68-3.18,4.92-3.56,10.25-6.52,14.74-10.73,3.91-3.66,9-1.9,13.58-1.84s5.68-1.49,5.57-5.78c-.32-14.11-.91-28.24.19-42.35-.12-14.76-.37-29.54-.28-44.31,0-3.82-.82-5.92-5-5.31-6,.87-6.7-2.35-5.54-7.07.17-6.81.5-13.63.47-20.44,0-5.14,2.35-7,7.33-7.07,8,0,16-.42,24-.84,3.28-.18,4.71.81,4.58,4.31-.25,7.07-.19,14.13-.25,21.19.07,8.68.39,17.36.1,26-.13,4.33,1.15,5.69,5.51,5.57l86.76-.09c4.75.12,6-1.43,5.9-6-.25-17,0-34-.17-51.05a12.86,12.86,0,0,1,4-10A41.38,41.38,0,0,0,1650.25,578V465.56C1650.25,451.85,1645.32,447.71,1645.32,447.71ZM285.87,505.57a17.74,17.74,0,0,1,1,4.08q0,38.13-.09,76.29c0,.35-.41.7-.95,1.52-2.81-2.44-3-5.66-3.4-8.8-2.48-19.5-1.08-39-.56-58.56.13-4.91-.91-9.89.72-14.73-.22-13.19-.41-26.39-.64-39.59,0-1.86.37-3.32,2.66-3.22,1.81.1,2.31,1.26,2.24,2.89C286.31,478.81,288,492.24,285.87,505.57Zm53.69-55.25c3.48-2.73,3.88-5.7.26-8.74-1-.89-2.48-1.83-1.59-3.45.3-.54,1.57-.78,2.39-.79,12.63,0,25.25,0,37.88,0,0,.93,0,1.86,0,2.8h-23.7c-3.66,0-7-.15-6.95,5.31s3.48,5.59,7.07,5.68c6.61.16,13.23,0,19.84,0,2,0,4.39-.75,4.35,2.76,0,3.32-2.17,3-4.35,3-10.87,0-21.74.11-32.61.15-2.05,0-4.4.57-5.23-2.29C336.23,452.27,338.06,451.49,339.56,450.32Zm2.61,12.36c5.65-.14,11.3,0,16.95,0,1.64,0,3.29,0,4.94,0,15,0,15,0,15.1,15.39,0,7.53,0,15.06,0,22.59,0,2.77-.16,5.08-3.93,5.31-3.52.22-4.89-1-5.46-4.5-2.67-16.52-12.48-26.41-28.84-29.51-3.84-.73-4.29-2.66-4.27-5.82C336.7,461.8,339.82,462.74,342.17,462.68ZM336.1,486a39,39,0,0,0,.74-4.88c.1-3.55,1.52-4.4,5-3.37,11.54,3.45,19.07,10.56,22.17,22.43,1.23,4.74-.34,5.95-4.76,5.66a71.87,71.87,0,0,0-11.81.35,36.76,36.76,0,0,0,13.06.76c2.7-.24,4.52.3,3.89,3.93-1.8,10.28-11.67,20.7-21.88,22.86-4.13.88-6.35.1-5.83-4.77a28.18,28.18,0,0,0-.75-11.85c-3.29,4.22-2,8.32-1.9,11.95.14,4.76-1.53,6-5.76,4.43-9.26-3.52-17.15-9.2-19-19.21-1.21-6.43-2.95-13.59.71-20.23,3.87-7.05,9.13-12.4,16.72-15.5,5.23-2.14,8.06-1.56,7.34,4.88C333.88,484.33,334.06,485.33,336.1,486Zm-43.61-2.93h.09c0-5.44.15-10.88-.06-16.31-.12-3,.76-4.17,3.93-4.14,11.11.11,22.22,0,33.31-.08,2.22,0,4.43-.21,4,3.16-.31,2.55,1.17,5.53-3.28,6.44-16,3.26-26,12.69-28.28,29.27-.57,4.05-3.64,2.78-6,3-3.37.37-3.84-1.59-3.78-4.36C292.57,494.4,292.49,488.73,292.49,483.06Zm3.2,23.37c2.47.2,5.94-.75,6.35,2.8,2.17,18.66,13.81,27.77,31,32.74H295.37c-2.08,0-2.9-1.1-2.9-3.09,0-9.65,0-19.3,0-28.95C292.44,507.85,293.08,506.21,295.69,506.43Zm-1.19-64.9c-1.06-.86-2.52-1.8-1.67-3.42.29-.54,1.55-.79,2.37-.79,12.66-.05,25.32,0,38,0,0,.93,0,1.88,0,2.81H310.37c-3.81,0-7.73-.11-7.54,5.38.19,5.18,3.79,5.85,7.94,5.77,6.36-.13,12.75-.19,19.11-.34,2-.05,3.81-.15,4,2.62.18,3-1.51,3.39-4,3.38-10.85-.06-21.72.05-32.58,0-1.74,0-4.07.74-4.78-1.8-.51-1.82.83-2.89,2.11-4.09C297.94,447.91,298.34,444.67,294.5,441.53Zm84.71,219c0,3.43-1,4.41-4.44,4.33-10.87-.3-21.75-.4-32.62-.19-4.39.07-5.6-1.43-5.5-5.73.26-13.16.09-26.32.09-40.15-3.85,2.35-2.71,5.27-2.76,7.62-.21,10.87-.4,21.75-.07,32.61.15,4.81-1.48,6.19-6,5.76-4.7-.44-9.44-.34-14.15-.48-6.8.06-15.41,2.63-19.9-.57s-1-12.29-1.22-18.79c-.3-9.18-.08-18.38-.07-27.56,0-4.39-.94-8.95,4.1-11.83a3.25,3.25,0,0,0,.23-5.49c-5.57-3.86-4.32-9.42-4.33-14.7,0-4.71.15-9.4.25-14.11q0-10.95-.08-21.92c-.28-1.05.09-1.49,1.18-1.29,11.8-.11,23.62,0,35.42-.41,4-.12,4.62,1.37,4.54,4.9-.2,9.45-.1,18.9.07,28.36,0,2.4-1,5.26,2.8,7.82,0-11.06,0-21.36,0-31.65,0-11.36-1-9.08,9.38-9.29,9.68-.2,19.38.13,29.06-.1,3.17-.07,4,.8,4,3.9-.14,15.36-.17,30.73,0,46.09.06,4.09-1.71,4.55-5.09,4.47-6.84-.18-13.7,0-20.55.08-3.58,0-5.74,1.39-5.64,5.52s2.07,5.38,5.78,5.33c6.85-.1,13.71.09,20.56-.16,3.38-.13,5,.25,5,4.38C378.94,631.71,379,646.12,379.21,660.54Zm0-122.71c0,2.16.13,4.3-3.11,4.28-12.59-.07-25.16,0-37.74,0-.11-.59-.2-1.19-.3-1.79,8-1.36,15.4-4,21.34-9.66,5.41-5.18,9.23-11.29,10.16-18.85.51-4.14,2.73-5.7,6.67-5.33s3,3.6,3,5.95C379.28,520.88,379.19,529.35,379.16,537.83Zm1127.19-85.66c.25-3.68,2.58-2.54,4.53-1.84,6.89,2.45,14,.48,21,1.14,1.89.18,4.56-.93,4.69,2.55s-2.39,2.87-4.43,2.91c-3.53.06-7.07,0-10.6,0v.19c-3.77,0-7.56-.17-11.32.05C1506.21,457.4,1506.17,454.94,1506.35,452.17Zm-1025-188.76q64.2-18.66,129.82-31.75Q682,217.55,753.83,209.5c45.31-5.09,90.75-8.76,136.34-10.48,20.78-.77,41.59-1.1,62.36-2l14.56-.14c54.34,1.22,108.57,3.83,162.71,8.83q79.74,7.38,158.42,21.73a1536.32,1536.32,0,0,1,151.25,35.88c23.22,6.7,40.93,21,51.62,43.18.58,1.22,1.63,2.37.87,4.27-4.48.36-8.46-2-12.59-3.27a1691.22,1691.22,0,0,0-252.49-59c-85.82-13.24-172.11-20.35-259-20.27l-14.33-.11q-80.52.06-160.68,7.87a1733.17,1733.17,0,0,0-195.69,30.33,1661.47,1661.47,0,0,0-165.77,44.48,16.39,16.39,0,0,1-3.27,0C438.86,286.14,456.82,270.54,481.36,263.41Zm-92.83,188c7.9-.52,16,1.42,23.71-1.66,1.83-.73,2.59.36,2.47,2.06-.14,2.15.94,5.09-2.93,5.1H399.09V457c-3.52,0-7,0-10.57,0-2.06,0-3.66-.43-3.78-3C384.59,450.88,386.78,451.57,388.53,451.45ZM1460.91,750.54c-8.74.15-17.48.12-26.23.19-20.83.2-34.81,10.11-41.29,30.09-4.44,13.7-8.92,27.32-16.75,39.56-29.74,46.47-72.32,66.31-127,61.36-24.17-2.19-46.76-10.9-70.14-16.37a884.86,884.86,0,0,0-136.94-21.16c-25.21-1.85-50.42-3.43-75.7-4l-13.76-.08c-66,1.48-131.54,7.41-196.13,21.54-20,4.39-39.69,10.34-59.59,15.3-50.95,12.75-97.11,5.27-135.23-33.41-16-16.27-26.49-36.06-32.73-58-6.79-23.84-20.89-34.62-45.79-34.87-10.85-.12-21.75.89-32.53-1.32-1.3-.27-2.93-.17-3.31-3.26,13.19,0,26.24.28,39.29-.08,21.41-.58,40,11.64,46.73,37,13.4,50.39,46.14,81.56,97,93.08,24.54,5.54,48.53,1.27,72.38-5.64,47.64-13.82,96.36-22.61,145.52-28.72,34.73-4.31,69.66-5.88,104.66-5.91l13.91-.09a900.23,900.23,0,0,1,127,9c48.36,6.82,95.5,18.95,142.89,30.39,67,16.17,132.45-24.33,150.08-90.92,2.89-10.88,6.89-20.88,16.15-28.29,6.33-5,13.34-8.82,21.06-9.18,16-.76,32.06-.23,50.16-.23C1469.23,750.13,1465.06,750.45,1460.91,750.54Zm41.54-96.33c2.19,0,2.94.95,2.86,3-.14,3.29-.25,6.59-.38,9.88q-.2,14.33-.4,28.67c1.35,13.66-.13,27.33.1,41,.07,4.28-4.8,5.72-9.83,2.13-4.37-3.11-7.41-4.09-11.37.3-1.52,1.69-4.47,1-6.83,1-13.93,0-27.87.21-41.79.1-19-.16-34.26,7-45.58,22.35-5.6,10.75-7.56,22.78-11.89,34-2.47,6.35-5.15,12.64-9.35,18.13-18.68,31.61-46.74,49.64-82.36,56.55-21.4,4.15-42.12.48-62.81-5.4A939.61,939.61,0,0,0,1052,834c-58.22-5.43-99.77-3.79-99.77-3.79-87.22-.17-172.69,12.41-256.42,36.51-38.88,11.19-75.18,7.34-108.82-15.49-14-9.48-25.65-21.48-33.77-36.56a76.76,76.76,0,0,1-13.24-30c-6.55-30.14-25.85-45.58-58.21-44.65a25.83,25.83,0,0,1-3.48-.36c-12.19,1-24.72,2.07-36.48-.3-7.38-1.48-13.32-2.64-20.12.92-2.77,1.47-5.59.09-5.5-4,.32-13.61.59-27.22.88-40.83q-.19-6.35-.41-12.71a9,9,0,0,1-.08-5.89q-.13-9.51-.27-19c0-2.12.42-3.77,3.08-3.57,2.43.19,2.19,2,2.18,3.64,0,6.34-.12,12.7-.18,19.05.08,1.9.18,3.8.26,5.71,7.95,3.7,10.57,2.33,10.69-5.79.1-5.89.08-11.79-.18-17.67-.16-3.72,1.29-5.14,4.94-4.8a54.1,54.1,0,0,0,6.37,0c12.65-.18,17.19-3.62,20.73-15.73-2.51-12.62-10.62-22.48-16.77-33.23s-11.09-21.84-9.39-34.72c-.14-4.48-.39-8.94-.39-13.42q-.08-88.28-.11-176.57c0-23.26,6.86-43.14,26.47-57.29,10.83-7.82,23.7-10.21,36.13-13.67,47-13,94.34-24.37,142.29-33.31q65-12.12,130.78-19.46a1676.63,1676.63,0,0,1,178.93-10H969q71.64-.15,143,6.3c53.33,4.72,106.32,12.17,159,21.88,55.16,10.16,109.61,23.13,163.5,38.56,31.61,9.05,48.53,29.71,48.84,62.77.61,64.28.18,128.57.16,192.87a6.15,6.15,0,0,1-.31,1.37,43.57,43.57,0,0,1-5.51,27.12c-5.73,10.23-11.57,20.42-17.39,30.62a19.73,19.73,0,0,0-2.8,12.82c3.65,9.65,8,12.78,18.3,13.09a51.35,51.35,0,0,0,7.75-.07c4.46-.55,5.67,1.29,5.45,5.55-.32,6.09,0,12.21,0,18.32,0,4.25,1.29,6.15,6.11,6s4.53-2.72,4.53-5.92c0-4.68.15-9.37.22-14.07-.1-2.36-.19-4.7-.31-7C1499.49,655.21,1500.32,654.25,1502.45,654.21ZM1531,602.35c-8-.1-16.1-.38-24.07.4-12,1.17-17.53,7.57-17.89,19.63-.2,7.09-.11,14.19.11,21.28.12,4-1.34,5.56-5.39,5.13-3-.32-6.14,0-9.2-.21-10.3-.64-14.12-7.34-9.25-16.58A220,220,0,0,1,1477,611.78c8.38-12.53,13.23-26,12.89-41.17q-.21-48.9-.39-97.81c-.18-34.26.37-68.55-.9-102.78-1.11-30.1-18.85-51.82-48-60.46A1619.68,1619.68,0,0,0,1275.64,270c-53.87-10-108.08-17.59-162.65-22.38-47.08-4.13-94.29-6-141.58-6.23-63.52-.39-126.89,2.15-190,8.9-75.11,8-149.51,20.33-222.87,38.5-23.55,5.83-47,12-70.42,18.34-38.46,10.4-56.13,33.6-56.19,73.47q-.12,89.69-.17,179.36c0,3.53-.2,7.07-.31,10.61-1.45,19.47,9,34.66,18.14,50.3,2.38,4.07,5,8,7,12.29,3.66,8-.57,14.69-9.43,15.38-14.83,1.13-14.82,1.13-14.95-13.6-.05-5.19,0-10.41-.38-15.58-.67-9.11-5.75-14.58-14.8-16.39-8.21-1.64-16.53-1.11-24.73-.5-6.6.49-8.09-1.78-7.63-7.87l.1-126.84c-.08-4,1.07-5.36,5.09-5.22,8.27.25,16.55-.15,24.81.15,4.24.17,5.26-1.05,5.77-5.42C425,418,422,378.58,423,339.23c.52-20.13.46-20.1,19.48-26.17A1652.94,1652.94,0,0,1,647.83,261.9q82.11-15,165.36-22c70-5.74,140.08-8.19,210.28-5.25,50.5,2.1,100.81,6.09,151,12.28a1700.9,1700.9,0,0,1,273.47,56.94c14.21,4.19,28.29,8.86,42.54,12.95,4.09,1.17,5.65,3.44,6.31,7.29a118.93,118.93,0,0,1,1.52,20.46c0,21.5.61,43-.29,64.49-.71,16.87,3.22,33.28,2.94,50-.06,3.55,1.93,3.61,4.52,3.58q13.13-.14,26.24-.06c2.17,0,4.86-.83,4.81,3.14-.15,12.52-.11,25-.17,37.57a1.83,1.83,0,0,1-1.72,1.86c.49,1,1,2.05,1.48,3.07q0,31.47.06,63c.1,8.74,0,17.48.36,26.19C1536.72,601.8,1534.69,602.41,1531,602.35Zm80.08-162.22c-6.36-.05-12.72.06-19.09,0-1.89,0-4.09.8-5.81-1.19,1.3-2,3-1.33,4.5-1.35q16.6-.22,33.21-.3c1.35,0,3.13-.56,3.92.79,1.08,1.85-.64,2.79-1.82,4-3.14,3.18-2.49,6.37.67,9,1.37,1.15,2.61,2.23,2.11,4-.57,2.07-2.55,1.74-4.14,1.76-11.54,0-23.08,0-34.62,0-2.38,0-4.28-.31-4.17-3.31.12-3.4,2.56-2.65,4.6-2.64,6.83.06,13.66.18,20.48.17,3.76,0,7.52-.69,7.57-5.41S1614.9,440.17,1611.08,440.13Zm-20.2,22.52c10.85,0,21.71.12,32.55-.12,3.92-.09,5.57.9,5.32,5.09-.33,5.41-.09,10.84-.09,16.26s0,10.86,0,16.29c0,2.71.71,5.61-4,5.62-4,0-5.23-1.67-5.78-5.25-2-13-9.34-21.84-21.49-26.66A23.61,23.61,0,0,0,1590,472c-4.11-.16-4.16-2.43-4.22-5.6C1585.64,462.14,1588.33,462.65,1590.88,462.65Zm37.89,49.45q-.07,12.72-.07,25.42c0,2.56-.23,4.62-3.68,4.58-12.36-.09-24.72,0-37.08,0,6.55-3.7,13.73-5,19.34-10,6.19-5.49,10.67-11.93,11.45-20.32.37-3.93,2.19-5.15,5.89-5.25C1629,506.39,1628.8,509.18,1628.77,512.1Zm-44.88-26.41a4.48,4.48,0,0,0,1.1-.64c2-2.22-.37-6.55,2.53-7.55,3.66-1.25,7.41,1.12,10.59,2.9,7.94,4.45,13.34,11.05,15.17,20.22.69,3.54-.24,5.34-4.27,5.08a82.57,82.57,0,0,0-12.76.33c4,1.92,8.31,1,12.48.85,4.35-.19,5.57,1.61,4.39,5.53-3.37,11.34-10.81,18.43-22.24,21.52-3.85,1-5-.12-5.1-4s1.75-8.39-1.72-12.44c-2.24,3.8-1.69,7.65-1.39,11.24.47,5.63-2.16,6-6.31,4.36-9.77-4-16.28-10.82-19.06-21.22-.75-2.84-.6-4.67,2.13-5.93-4.75-.54-2.48-3.79-2-5.87,2.69-11.61,10.18-18.66,21.33-22.37,3.16-1.05,3.77.26,4,2.78C1583,482.26,1581.92,484.29,1583.89,485.69ZM1542,511.22c0-2.33.27-4.41,3.18-4.41,2.17,0,5.36-1.35,5.87,2a38.07,38.07,0,0,0,10,21.29c5.67,6,13.32,8,20.42,11.93-11.72,0-23.44-.05-35.16,0-3.36,0-4.47-1.47-4.41-4.74C1542.1,528.65,1542.05,519.93,1542,511.22Zm24-71.07c-5.68,0-11.35,0-17-.08-2.18,0-4.55.61-6.38-1.74,13.07-.58,26.12-1.66,39.77,1.07-3.67,3.79-4.28,7.4-.84,11.78,1.93,2.46,2.13,5.91-3.23,5.79-10.4-.21-20.79,0-31.18,0-2.38,0-5,.36-5-3.26,0-4.21,3.15-2.5,5.13-2.54,6.37-.1,12.75.11,19.13-.06,3.3-.08,7-.25,6.86-5.1C1573.12,441.35,1570,440.19,1566,440.15Zm-23.91,57.6c-.43-4.67-.12-9.41-.12-14.13h.12c0-5.66.15-11.32-.06-17-.11-3.09,1-4.06,4-4,10.62.11,21.22,0,31.84-.09,2.47,0,4.74-.23,4.6,3.45-.12,2.9.19,5.71-3.81,6.24a26.9,26.9,0,0,0-10.54,3.86c-8.65,5.28-14.48,12.62-16.26,22.83-.66,3.78-1.19,7.65-6.74,6.7S1542.39,500.48,1542.12,497.75ZM1628.71,660c.13,3.57-.84,5-4.76,4.9-11.1-.33-22.21-.34-33.31-.19-3.62,0-5.11-.94-4.92-4.75.35-7.07.33-14.16.47-21.23-1.23-6.08,1-12.5-2.07-20.14-3,8.53-.47,16-2,23,.1,6.13,0,12.27.34,18.39.2,3.66-1,5-4.74,4.9-10.41-.19-20.8-.1-31.2.13-3.27.07-4.68-.62-4.5-4.28.37-7.3.29-14.62.39-21.94-.07-7.29,0-14.58-.27-21.87-.12-3.22,1.12-3.94,4.09-3.86,6.6.2,13.2,0,19.78,0,3.73,0,7.19-.11,7.37-5.27.18-5.69-3.66-5.76-7.57-5.77-5.43,0-10.92-.5-16.24.25-6.52.91-8.48-1.54-7.52-7.56.22-1.38.23-2.8.34-4.21,0-.93,0-1.86,0-2.8,0-2.85,0-5.7,0-8.54-.09-9,0-17.89-.36-26.83-.16-3.88,1.27-4.66,4.83-4.59,10.37.22,20.74.17,31.09,0,3.52-.07,5.16.65,4.76,4.64-.52,5.14-.42,10.32-.58,15.49,1.46,6.55-.67,13.44,1.83,21.77,3.63-7.22.88-13.36,2.28-19-.11-6.35,0-12.69-.37-19-.17-3.28,1.22-3.94,4.1-3.9,12.45.21,24.91.24,37.36.34,1.08-.17,1.39.32,1.13,1.3l-.06,19.83c.1,7.73,2.23,16.21-.26,23-2.82,7.65-2.54,13.07,0,20.73,2.56,7.81.4,17.16.3,25.82C1628.5,645.8,1628.46,652.89,1628.71,660Zm10.13-81.21a14.2,14.2,0,0,1-4.5,10.12V509c0-14.15,0-28.3.05-42.44,0-1.7-.78-4.13,2.29-4.1,2.72,0,2.77,2.12,2.71,4C1638.24,503.88,1641.88,541.34,1638.84,578.75Z"/><path class="cls-1" d="M1504.53,695.72q.2-14.33.4-28.67c.13-3.29.24-6.59.38-9.88.08-2-.67-3-2.86-3s-3,1-2.86,3c.12,2.35.21,4.69.31,7-.07,4.7-.22,9.39-.22,14.07,0,3.2.28,5.82-4.53,5.92s-6.16-1.8-6.11-6c.07-6.11-.3-12.23,0-18.32.22-4.26-1-6.1-5.45-5.55a51.35,51.35,0,0,1-7.75.07c-10.31-.31-14.65-3.44-18.3-13.09a19.73,19.73,0,0,1,2.8-12.82c5.82-10.2,11.66-20.39,17.39-30.62a43.57,43.57,0,0,0,5.51-27.12,6.15,6.15,0,0,0,.31-1.37c0-64.3.45-128.59-.16-192.87-.31-33.06-17.23-53.72-48.84-62.77-53.89-15.43-108.34-28.4-163.5-38.56-52.7-9.71-105.69-17.16-159-21.88Q1040.72,247,969,247H952.12a1676.63,1676.63,0,0,0-178.93,10q-65.75,7.38-130.78,19.46c-47.95,8.94-95.32,20.27-142.29,33.31-12.43,3.46-25.3,5.85-36.13,13.67-19.61,14.15-26.51,34-26.47,57.29q.17,88.28.11,176.57c0,4.48.25,8.94.39,13.42-1.7,12.88,3.15,23.83,9.39,34.72s14.26,20.61,16.77,33.23c-3.54,12.11-8.08,15.55-20.73,15.73a54.1,54.1,0,0,1-6.37,0c-3.65-.34-5.1,1.08-4.94,4.8.26,5.88.28,11.78.18,17.67-.12,8.12-2.74,9.49-10.69,5.79-.08-1.91-.18-3.81-.26-5.71.06-6.35.14-12.71.18-19.05,0-1.62.25-3.45-2.18-3.64-2.66-.2-3.11,1.45-3.08,3.57q.15,9.52.27,19a9,9,0,0,0,.08,5.89q.21,6.36.41,12.71c-.29,13.61-.56,27.22-.88,40.83-.09,4.06,2.73,5.44,5.5,4,6.8-3.56,12.74-2.4,20.12-.92,11.76,2.37,24.29,1.25,36.48.3a25.83,25.83,0,0,0,3.48.36c32.36-.93,51.66,14.51,58.21,44.65a76.76,76.76,0,0,0,13.24,30c8.12,15.08,19.79,27.08,33.77,36.56,33.64,22.83,69.94,26.68,108.82,15.49,83.73-24.1,169.2-36.68,256.42-36.51,0,0,41.55-1.64,99.77,3.79a939.61,939.61,0,0,1,170.84,31.81c20.69,5.88,41.41,9.55,62.81,5.4,35.62-6.91,63.68-24.94,82.36-56.55,4.2-5.49,6.88-11.78,9.35-18.13,4.33-11.18,6.29-23.21,11.89-34,11.32-15.35,26.61-22.51,45.58-22.35,13.92.11,27.86-.07,41.79-.1,2.36,0,5.31.7,6.83-1,4-4.39,7-3.41,11.37-.3,5,3.59,9.9,2.15,9.83-2.13C1504.4,723.05,1505.88,709.38,1504.53,695.72ZM431.92,726.63c-.11,4.13-4.06,3.15-6.58,3.54-3.31.52-3.73-1.85-3.75-4.46-.06-10.11-.17-20.21-.27-30.31,1.33-5.46,5.75-3,9-3.54C433.81,703.32,432.22,715,431.92,726.63ZM552.49,544.72a53.81,53.81,0,1,1,53.81-53.81A53.87,53.87,0,0,1,552.49,544.72Zm815,0a53.81,53.81,0,1,1,53.81-53.81A53.87,53.87,0,0,1,1367.51,544.72Zm128,185.45c-3.4-.32-6.46-.55-6.43-5.34.09-10.57-.78-21.14.23-31.7,3.39-1.61,6.8-.92,10.23-.13,0,10.58.07,21.17.16,31.75C1499.72,727.74,1499.85,730.6,1495.49,730.17Z"/><path class="cls-2" d="M1495.49,730.17c-3.4-.32-6.46-.55-6.43-5.34.09-10.57-.78-21.14.23-31.7,3.39-1.61,6.8-.92,10.23-.13,0,10.58.07,21.17.16,31.75C1499.72,727.74,1499.85,730.6,1495.49,730.17Z"/><path class="cls-2" d="M431.92,726.63c-.11,4.13-4.06,3.15-6.58,3.54-3.31.52-3.73-1.85-3.75-4.46-.06-10.11-.17-20.21-.27-30.31,1.33-5.46,5.75-3,9-3.54C433.81,703.32,432.22,715,431.92,726.63Z"/><path class="cls-2" d="M310.94,613.3c-3.33-.79-8.1.51-8.18-5.18-.08-5.52,4.33-5.69,8.18-6.41,5.64.1,11.3.06,16.94.33,3.8.19,6.94-.24,7.21-6,1.35,2.5,1.82,4.27,3,5.27,2.81,2.49,5.4,5.15,3.65,9s-5.75,2.42-8.86,2.54C325.54,613.19,318.24,613.19,310.94,613.3Z"/><path class="cls-2" d="M1584.84,595.91c.32,5.5,2.59,6.33,6.14,6.17,6.8-.31,13.63,0,20.44-.15,4.33-.08,6.72,1.83,6.9,6.1.19,4.74-3.13,5-6.69,5-8.46,0-16.92.07-25.38,0-7.72-.11-9.24-2.84-5.56-9.59C1581.69,601.56,1582.71,599.75,1584.84,595.91Z"/><path class="cls-2" d="M552.49,437.1a53.81,53.81,0,1,0,53.81,53.81A53.88,53.88,0,0,0,552.49,437.1Zm0,101.64a47.83,47.83,0,1,1,47.83-47.83A47.87,47.87,0,0,1,552.49,538.74Z"/><path class="cls-2" d="M1367.51,437.1a53.81,53.81,0,1,0,53.81,53.81A53.88,53.88,0,0,0,1367.51,437.1Zm0,101.64a47.83,47.83,0,1,1,47.82-47.83A47.88,47.88,0,0,1,1367.51,538.74Z"/></g><g id="Capa_3" data-name="Capa 3"><path d="M798.38,483.77v111H778.55V524.06L759,539,742.86,551.5,726.68,539l-19.51-14.91V594.8H687.34v-111L707.17,499l35.69,27.44L778.55,499Z"/><path d="M852.3,520.73v75.5H832.47V518.67A15.83,15.83,0,0,0,819,505.18h-4.44V485.52h4.28v.15a35.55,35.55,0,0,1,13.48,3.65,35.17,35.17,0,0,1,16,16.18A42.36,42.36,0,0,1,851,513a33.41,33.41,0,0,1,1,8.09Z"/><path d="M978.71,483.77v111H958.88V549.12H900.36a31.39,31.39,0,0,1-14.91-3.65,32.39,32.39,0,0,1-17.77-29V483.77h19.83v32.68a13.06,13.06,0,0,0,13,13H959V483.77Z"/><path d="M1105.6,483.77v111h-19.83V549.12h-58.53a31.42,31.42,0,0,1-14.91-3.65,32.4,32.4,0,0,1-17.76-29V483.77h19.82v32.68a13.07,13.07,0,0,0,13,13h58.53V483.77Z"/><path d="M1230.1,503.76a34.22,34.22,0,0,1,2.54,12.84v45.53a32.67,32.67,0,0,1-10.47,24.11,34.29,34.29,0,0,1-7.29,5.23,31.45,31.45,0,0,1-14.91,3.65h-69V575.29h69a13.06,13.06,0,0,0,13-13V546.74a32.44,32.44,0,0,1-12.37,2.54h-46.79a32.76,32.76,0,0,1,.48-65.51h45.52a32.56,32.56,0,0,1,30.13,20Zm-88.66,12.84a13.06,13.06,0,0,0,12.37,13h46.79a13,13,0,0,0-.63-26h-45.53A13.06,13.06,0,0,0,1141.44,516.6Z"/></g></g></svg>