<svg xmlns="http://www.w3.org/2000/svg" viewBox="0 0 1920 1080"><defs><style>.cls-1{fill:#010101;}.cls-2{fill:#f2f2f2;}</style></defs><g id="Capa_2" data-name="Capa 2"><g id="Capa_1-2" data-name="Capa 1"><path class="cls-1" d="M1735.47,551.18c0-14.29-16-25.32-16-25.32-7.06-4.21-14.75-4.75-22.54-4.79-26.07-.09-52.14.06-78.19-.09-4.36,0-9,1-13-1.94-5.29-3.7-3.24-9.36-3.26-14.09-.22-33-.74-66,.16-99,1.12-41.42-18.63-74.32-60.55-90-30.85-11.55-62-22.21-94.05-29.76-11-2.58-15.08-.54-19.89,9.76-1.86,4-4,4.36-7.75,3.48q-44.57-10.46-89.22-20.61c-4.5-1-5.46-3.73-5.51-7.79-.09-7.42-4.61-11.51-11.33-13.18a1072.48,1072.48,0,0,0-122.63-23.39c-41.35-5.33-142.29-10-142.29-10-13.68,0-27.08-1.87-30.63,16.2-.06.27-.35.49-.51.74-1.44,2.2-3.46,3.48-6.05,2.81s-2.27-3.21-2.42-5.21a28.43,28.43,0,0,1,.06-5.38c.74-6.09-1.41-8.63-8-8.34l-81.39-.09c-8.57-.63-12.18,2-10.88,10.86.43,2.88,1.55,7.37-2.83,8.38-4.68,1.1-5.93-3.17-7-6.54-2.15-6.58-5.16-12.61-12.65-13.7-5.28-.75-10.78-.23-16.16,0C830,226,789,228.24,748,232.26c-47.81,4.68-94.78,14-141.41,25.3-7.33,1.78-12.7,5.56-12.74,13.94,0,4.81-2.48,6.58-7,7.59q-43.85,9.82-87.51,20.21c-4.11,1-6.14,1.26-8-3.57-3.92-10-8.39-12.12-19-9.54-35.84,8.7-71.19,19.2-104.77,34.53-33.19,15.16-49.82,42-50.11,78.49-.29,35.4-.09,70.8-.12,106.2,0,14.22-1.37,15.72-15.3,15.79q-40.05.18-80.12.09c-9.87,0-19,1.84-26.9,8.27-7.73,4.75-12,21.62-12,21.62v83.09c-.13,10.87,3.12,19.62,11,27.24C207,674,219.47,687,232,699.93c5.39,5.51,11.8,7.81,19.4,7.74,13.82-.12,27.86,1.57,41.37-.39,23.37-3.43,38.94,5.08,49.26,25.67,2.9,5.8,10.36,10.88,10.31,16.23-.06,6.71-9.59,8.58-15.07,12.35-6.65,4.55-6.54,8.59-2.23,14.72,10.34,14.68,20.16,29.72,30.18,44.61,7.46,10.44,15.1,20.77,22.3,31.36,3,4.45,6,5.35,10.24,2.06.46-.38,1-.63,1.47-1,16.54-16.14,36.63-19,58.81-17.64,22.72,1.37,45.58.31,68.37.53,9.88.09,18-1.61,19.48-13.57.51-4.06,3.77-4.78,7.42-4.87s5.79.76,5.86,4.81c.09,4.76,3.13,5.79,7.28,5.75,24.9-.11,49.8-.12,74.7-.16,3.46,0,7-.13,6.9-4.86-.09-4.27,1.6-5.93,5.92-5.55,4,.34,8,0,8.45,5.6.76,10,7.26,12.88,16.13,12.79,10.2-.12,20.41-.56,30.59-.14,9,.38,13.75-3.82,14.69-12.11.61-5.33,3.09-6,7.69-6,30,.17,60,.11,90,.08,3.84,0,6.74,0,7.19,5.42.72,8.76,6.09,12.94,15.1,12.85l232.36-.27c5.79,0,12.35-.71,13-6.92,1.29-13.1,10-11.41,18.5-11.16,7.19.22,14.38.31,21.55.45q30-.21,59.94-.41c4.13,0,6.27,1.12,6.81,6,.94,8.13,5.82,12.52,14.61,12.25,13.12-.41,26.24-.4,39.37-.56a19.06,19.06,0,0,0,7.33-12.84c.62-4.92,4.16-4.94,8-5s6.48.65,6.21,5.34,3.3,5.11,6.7,5.09q40.3-.14,80.61-.41a51.33,51.33,0,0,0,1.28-5.17c.42-3,1.68-5,5.12-4.92,3.24.11,7.33-.65,8,3.75,2.32,15.33,13.46,14.88,24.95,14.79l97.54,0c7.61,0,18-12.74,18-12.74,24.43-34.49,49.19-68.74,73.28-103.47,6.28-9.07,13.13-13.25,24.48-12.63,18.25,1,36.59.14,54.9.3,9.22.09,16.88-2.9,23.33-9.58,12.7-13.17,25.24-26.52,38.52-39.12,9.93-9.4,7.77-21.29,8.79-32.7C1737,626.27,1735.47,565.47,1735.47,551.18ZM1015.89,257.79c9.69.78,14.38-5.31,16.67-13.22,1.51-5.28,3.6-7,9.15-6.74,89,3.75,177.56,10.18,264.29,32.19,3.89,1,5.35,2.38,5.84,6.35,1.13,9,6.43,13.83,15.63,15.87,29.77,6.57,59.35,13.93,89.06,20.72,13.64,3.12,19.86,2.21,24.4-10.74,1.28-3.66,3.47-3,6.41-2.13,33.3,9.68,66.63,19.26,98.43,33.26,21.58,9.5,34.91,26.09,41.36,50.65-18.59-7.48-37-11.21-52.1-23.22-3.5-2.8-6.67-7.07-12.76-1.37-4,3.74-10.39-2.15-15.85-3.09-.38-.05-1-1.08-.87-1.29,7.72-14.13-6.86-9.24-11.11-12-5.55-3.64-12.88-4.47-19.33-6.83-2.83-1-4.49-.29-6,2-1.91,2.93.93,3.24,2.27,4.41,7.72.85,14.39,4.45,23.45,8.63-10.16.07-16.88-3.39-23.83-5.87l-22.45-5.66c-.45-4.5,6.68-3.37,4.61-7.91-1.42-3.14-4.79-3.17-7.58-3.82-9.79-2.23-19.39-5.15-29.53-6-6.33-.52-4.27,1.75-2.31,4.65,8.41,3.48,18.11,3.22,25.93,8.7-9.16.22-17.62-2.27-25.88-5.75-7.55.45-14.25-3.42-21.53-4.32-11.49-2.5-23.11-4.49-34.28-8.31-6.81-.14-13.3-2-19.79-3.89-12.1-1.94-24.28-3.6-36.07-7.2-7.49.61-14.34-2.51-21.54-3.55q-18.11-3.12-36.2-6.2c-7.13-1-14.29-2-21.42-2.94-11.48-1.24-23-2.18-34.23-5.08-6.83,1.26-13.16-1.76-19.79-2.22l-37.22-4.09c-9.21-1-18.61-.05-27.64-2.81-10.92.76-21.65-1.35-32.48-2.07-5.39-.39-10.78-.81-16.14-1.2l-37.93-1.09c-6.27,1.68-8.2-1.26-7.62-7C1010.34,263.36,1007.44,257.11,1015.89,257.79Zm423.52,99.63c-1.06,7.77-7.33,2.54-10.57,1.7-57.67-15-115.67-28.47-174.26-39.28a1259.78,1259.78,0,0,0-165-19.39c-21.28-1.09-42.56-1.67-63.86-1.89-7.4-.07-13.69-1.76-15.37-10.48-.95-5,.15-7.34,5.77-6.83,8.07.7,16.18.9,24.27,1.31,47.62,1.75,95,6.62,142.26,12.38,84.39,10.29,167.52,26.81,250,47.15C1443,344.67,1440.13,352,1439.41,357.42ZM372.94,333.66c27-12.27,55.44-20.68,83.85-29,2.31-.66,4.63-1.22,6.92-1.93,7.47-2.34,14.1-5.71,18.65,5.73,3.6,9.05,13.38,6.17,20.86,4.49,26-5.82,51.82-12.05,77.72-18.12,4.65-1.1,9.37-2,13.93-3.37,7-2.18,12.41-6,12.61-14.35.09-4,1.79-6.07,6.29-7.11,58.72-13.55,117.9-23.86,178.21-27,28.14-1.46,56.26-3.22,84.37-5.06,5.8-.38,9.13.63,11,7.15,2.09,7.39,6.76,13.71,16.09,12.61,7.39-.86,6.31,4.15,6.56,8.56.3,4.94,0,9.19-6.69,8.59-2.64-.21-5.31-.32-8-.48-9.64,1.58-19.35,1.33-29.08,1.31L848.41,277l-39.75,3.28-21.46,1.69c-9.6,1.26-19.11,3.66-28.92,2.49-9.36,3.06-19.17,2.72-28.8,3.66-11.75,3.55-24,3.91-36,5.24-5.93,1.13-11.76,2.85-17.91,2.47-11.11,3.94-22.93,4.12-34.37,6.39l-23.28,3.68c-11.86,3.28-24,5.26-36.11,7.12l-21,4.39a281.47,281.47,0,0,1-36.61,8.34c-6,1.34-12,2.67-18,4-8,3.19-16.31,5.43-25.17,5.5,7.35-5.3,16.68-5,24.66-8.4.58-3.12,1.32-6.43-3.83-5.22-10.38,2.43-20.78,4.86-31.1,7.56-2.81.72-6.07,2.06-5.66,5.84s4.69.47,6.54,3.3c-5.94,3.75-12.75,4.36-19.22,5.89a119.33,119.33,0,0,1-31,7.94l28.88-11.83c-.18-5.32-2.59-5.7-7.1-3.91-8.61,3.44-17.36,6.5-26.17,9.31-6.49,2.07-9.86,4.42-1.72,9.88-4.82,1.49-8.72,2.81-12.66,3.85-1.66.45-4.74,1-5,.43-3.58-7.08-7.78-2.54-10.65-.1-15.35,13.08-35.35,15.49-54.17,24.75C338.42,360.09,351.59,343.35,372.94,333.66Zm116.28,8.11C543.32,327.59,598,316.33,653.14,307q81.51-13.78,163.92-20.77c27.78-2.31,55.61-3.71,83.47-4.65,3.2-.11,8.88-2.77,9.24,3.53.31,5.14-1.46,10.34-7.31,12.11a34.16,34.16,0,0,1-9.75,1.35c-122.17-.4-241.37,20.36-359.33,50.14-14.79,3.75-29.71,7.08-44.34,11.33-7.6,2.22-10.07.36-8.43-7.29C478.68,345.41,482.5,343.51,489.22,341.77ZM423.17,828.21c-8.5,5.51-16.74,11.44-25.06,17.24-2.6,1.82-4.6,2.12-6.65-1-8.38-12.67-16.92-25.23-25.4-37.82-8-11.06-16.06-22.18-24.18-33.19-2.35-3.19-1.68-5,1.58-7.15,8.51-5.59,16.85-11.42,25.08-17.39,3-2.16,4.88-2.57,7.12,1.05,4.65,7.55,9.73,14.82,14.63,22.23,11.35,16,22.65,32.11,34.09,48.07C426.72,823.54,427,825.72,423.17,828.21Zm-54.93-95c17-11.62,34-23.35,51.24-34.63,14.91-9.75,31.13-11.33,48.07-6,2.88.9,5.87,1.62,6.25,5.46-.53,3.33-2.76,2.4-4.71,1.73-22.21-7.73-41.4-1.75-59.45,12-12.34,9.42-25.53,17.74-38.41,26.45-2.26,1.51-5.17,5.17-7.57,1.73C360.74,735.8,365.86,734.86,368.24,733.24Zm62.95,84.5c-10.78-18.49-25.91-34.11-35.08-53.64-6.13-5.44-9.23-13.13-14.43-19.24-2.69-3.14-.6-4.61,1.83-6.25,14.09-9.57,27.91-19.55,42.27-28.67,12.92-8.19,27.39-9.26,41.15-3.15a56.92,56.92,0,0,1,18.29,13.08c10.7,12,15.69,27,10.09,43.62.23,1.44.23,2.83-1.23,3.73-3.09,15-13,20.61-27.45,19.87-.58,1.53-3.08,3.86-1.3,4.49,12.88,4.57.43,6.47-1.17,7.69-8.52,6.47-17.55,12.27-26.31,18.45C435.46,819.41,433.19,821.16,431.19,817.74Zm49.56-116.32c4.42-3.84,7.37,3.71,10.34,6.74,12.38,12.54,19.79,27.49,20.27,45.76-1,9.82-2.77,19.8-8.29,28.67-1.78,2.88-4.48,6.09-7.85,3.44-2.85-2.24.92-4.63,2.11-6.65,13.13-22.25,9.28-48.65-9.89-68.1C484.52,708.3,477.6,704.18,480.75,701.42ZM458.61,822.35c-3.42-.59-7.05,1-12.9-1.44,14.57-9.73,27.74-18.7,41.17-27.31,2.63-1.7,6.95-2.73,9.13-.06s-1.73,5.19-2.54,7.93C488.21,819.13,476.32,825.45,458.61,822.35Zm95.52-18.56c-11.22-.56-20.3,1.84-22.14,15.17-.41,3-3.4,3.07-5.78,3.1-9.89.13-19.78.06-29.68.24-5.8.09-4.75-2.36-2.72-6,5-8.86,9.52-18,14.54-26.79,9.75-17.17,12.87-35.2,7.7-54.45-6-16.79-16-30.73-30.45-41.11-5.1-3.64-5.23-8.14-5.33-13.26-.08-2.61.18-6.23-3.52-6.11-2.79.09-3.11,3.3-2.88,5.7.54,5.76-1.69,6.36-6.81,4.82-18.95-5.69-36.68-2.28-53,8.51-13.73,9.06-27.24,18.45-41,27.46-2.07,1.35-3.6,5-7.17,2.88-4,7.31-7.37,7.75-11.93,1.48s-9-12.74-13.46-19.1c-6.37-9-15.06-13.19-26.12-13.08-19.8.16-39.6-.13-59.4.14-5.77.07-10.4-1.33-14.49-5.51Q221.26,668.29,201.76,649c-4-4-4.79-8.83-4.79-14,0-24.88-.09-49.78.23-74.66.24-17.73,6.78-24.38,24.68-24.61,25.19-.34,50.4,0,75.59-.07,7.44-.06,15.31.88,22-3,8.72-5.1,12.31-13.19,12.23-23.39-.21-36.28.06-72.57-.36-108.84-.05-6.19,1.66-9.31,7.5-11s11.21-4.14,16.84-6.14c2-.7,5-2.18,5.88-1.42,7.85,7.22,10.36-1.19,15-4.45,7.42-5.23,16.39-7.17,24.92-9.88,21.08-6.64,42.24-13.06,63.5-19.11,2.4-.67,7.86-5.46,8.31.93.36,5.18,4.69,13.17-4.7,15.84s-19.17,4.72-28.59,7.6c-33,10.09-51,34.27-51.32,68.49q-.37,36.86-.72,73.7c1.57,15.44,1.28,31,.47,46.36-1.49,27.78,8.07,49.94,30,66.93,14.76,8,30.47,12.38,47.33,11,7.3-.6,8.49,2.54,8.17,8.82-.19,3.72-2.37,10.56,2.73,10.67,6,.13,3.19-6.79,3.82-10.77.49-3.12-1.55-7.79,5.26-5.88,44,12.27,73.33,52.81,72.54,90.81.2,15.85.25,31.73.72,47.58.15,5.06-2.11,6-6.43,6-7.78-.12-15.59.09-23.37.27-2.39.06-5.4.19-5.31,3.41.12,3.62,3.44,2.52,5.56,2.54,8.09.07,16.2.18,24.27-.2,4.83-.23,5.12,2.42,5.48,6.06C559.58,802.6,557.86,804,554.13,803.79Zm712.23.54c-3-.05-6,.15-9,.15-7,0-11.71,3.22-12.59,10.18-.78,6.25-4,8-9.7,7.55a63.5,63.5,0,0,0-10.77,0c-8.31.74-16,1.43-17-10.41-.38-4.34-5-6.38-9.19-7.57-34.73-1.35-69.47-.5-104.21-.23-8.52.07-14.59,2.7-15.74,12.14-.58,4.67-3.41,6.29-8.08,6.27l-219.3.11c-5.33,0-8.41-.94-9.15-6.74-1-7.73-5.91-11.42-13.58-11.6-34.49-.81-69-.94-103.49,0-7.57.2-12.76,3.71-13.39,11.64-.41,5.24-3.19,6.45-7.69,6.36a113.35,113.35,0,0,0-14.4.21c-7.91.87-13.26,0-15.11-9.83-1.68-8.85-10.29-8.56-17.61-8.83-3.73-.13-8.75,2.43-8.52-5.19.2-6.68,4.27-5.82,8.56-5.78,6.29,0,12.59-.08,18.9-.38,2-.11,5.66,1.53,5.46-2.33-.13-2.7-3.35-3.13-5.77-3.18-6.45-.13-12.92,0-20.16,0,2.25-6.65,6.76-5,10.09-5q30.17-.3,60.29-.07a44,44,0,0,0,26.1-8.2c10.58-7.37,21.23-14.63,31.71-22.11,16.11-11.47,34.27-17.11,53.76-18.14,0,0,45.77-3.53,138.59-3.53s126.75,6.5,126.75,6.5c12.79,2.27,24.2,7.89,34.45,15.84,10.14,6.83,20.34,13.6,30.45,20.48a51.9,51.9,0,0,0,31.2,9.23c18.54-.38,37.1-.22,55.66-.11,3.62,0,7.87-1.31,10.84,3.57-6.47,2.75-13,.66-19.19,1.29-2.5.26-6.14-.84-6.3,3.07-.2,4.47,3.73,2.75,6,2.81,6.88.14,13.78.09,20.65-.18,4.14-.18,6.09,1,5.82,5.53C1271.42,801.52,1271,804.41,1266.36,804.33Zm87.2-67.87c0,25.79-.41,51.57-.09,77.33.09,6.24-1.78,7.46-7.55,7.37q-30.11-.48-60.26,0c-5.37.09-7.68-1-7.05-6.81.8-7.43-.43-14.92,1.05-22.38,1.1-5.64-10.15-15.3-18.45-16.09-4.45-.43-9-.43-13.44-.61-16.67.07-33.35.36-50,.14-10.39-.14-19.58-4.11-28.09-10.14-13.33-9.46-26.39-19.35-40.59-27.55-26.79-13.73-56.17-11.51-84.84-13.75,0,0-32.75-1.76-84.48-1.76S847,725.49,847,725.49c-21,.45-40.86,4.51-59.63,13.87-12,8.38-24.17,16.56-36,25.23-11.11,8.18-23.47,11.28-37.06,11.17-17.66-.16-35.33.41-53,0-10.52-.22-15.42,8.18-22.66,13a2.13,2.13,0,0,0-.36,3.14c5.46,7.55,1.24,16.2,2.66,24.21.6,3.3-1.11,4.83-4.59,4.83-22.47-.07-44.92,0-67.38-.1-.63,0-1.28-1-1.93-1.46l-.54-2.15q.16-41.21.34-82.44c-1.64-25.19-9.73-47.78-26.36-67.15-12.66-14.72-28.64-24.18-46.5-31-9.71-.15-16-3.37-14-14.78.34-1.93-.13-4.52-3.17-4.29-2.8.2-3.43,2.47-3,4.58,2.43,11.69-5.05,10.25-12.47,10-32.68-.92-57-19.08-64.11-48.29-1.58-6.47-1.31-13.06-1.29-19.6,0-16.43.28-32.86.43-49.28-.9-27.56-1.26-55.17.07-82.71,1.15-23.43,19.24-44.85,44.3-52.11,47.06-13.66,94.72-25.19,142.48-36.14,56-12.85,112.36-23.84,169.49-30.14,43.81-4.83,87.72-8.54,131.88-8a93.07,93.07,0,0,0,13.48-.51c12.63-1.75,18.52-8.2,18.83-20.9.34-15,.5-30,.21-45-.11-5.28.72-7.57,6.67-7.21h72.88c5.13-.25,6.68,1.23,6.54,6.42-.4,14.07-.27,28.18-.29,42.27,0,18.16,6.59,25,24.93,24.91,94.79-.43,188.06,12,280.54,32.06,55.19,12,110,25.6,164.45,40.34,34.35,9.27,50.84,31.06,51,66.53.12,23.37-.2,46.76-.33,70.14,0,20.63.9,41.31-.11,61.91-1.44,28.83-28,53.31-58.08,55-2.7.14-5.46-.22-8.07.25-8.11,1.44-12.58-.72-11.14-10,.31-1.94.36-4.63-2.54-4.86s-3.62,2.45-3.26,4.34c2.54,13.24-7,14-15.78,15.51-30.22,11.26-51.94,31.39-64.09,61.46A100.57,100.57,0,0,0,1353.56,736.46Zm199.7,7.16c-15.91,21.69-32,43.29-46.84,65.7-7.19,10.9-15.75,14.62-27.87,12.22-12.24.25-24.47.52-36.7.74-3.26.07-5.46-1.14-7-4.4-3.07-6.47-6.53-12.77-10.11-19-3.23-5.58-.85-6.58,4.39-6.41,6.89.19,13.77,0,20.65-.13,1.73,0,3.8.23,4-2.32.24-2.92-1.82-3.43-4-3.45q-13-.14-26-.16c-3.37,0-6.44-.05-8.09-4-6.62-15.58-10-31.31-3.3-47.78,3.62-13.55,13.1-23.1,22.54-32.59,3.29-3.33,5-2.14,5.28,2.4.23,4.16-2.06,11.51,3.11,11.35,6.27-.2,3.25-7.82,2.94-11.75-.7-8.65,3.42-11.48,10.92-13,14.45-2.95,28.1-1.29,40.52,6.58,18.18,11.53,36,23.66,54,35.33C1556.56,736.14,1556.76,738.88,1553.26,743.62Zm162.93-92.93c-11.82,11.45-23.33,23.24-34.7,35.16-5.33,5.59-11.23,7.93-19.1,7.7-18.56-.52-37.15.11-55.73-.31-12.25-.27-21.34,4.78-28.28,14.38-4.36,6.07-8.52,12.29-12.85,18.39-4.72,6.71-6.88,6.38-11.2-1.85-3.46,1.69-5.19-1.46-7.36-2.92-14.16-9.46-28-19.37-42.35-28.56-15.59-10-32.72-13-50.63-7.91-6,1.68-8.47,1.41-7.75-5.35.24-2.12-.11-4.86-2.48-5.11-3.27-.33-3.72,2.86-3.54,5.11.74,8.56-4.16,13-10.45,17.84-12.48,9.69-21,22.7-26.25,37.67-7.11,26.67,3.9,49,16.58,71.19,9,15.82,8.7,16-9.71,16a74.78,74.78,0,0,0-9,.19c-7.93.94-14.15.71-16.13-9.69-1.71-9-10.37-8.43-17.56-8.77-3.7-.17-7.84,1.46-7.91-5.17s3.74-6.11,8.16-6.06c8.07.11,16.16,0,24.25-.16,1.6,0,4,.61,4.16-2s-1.51-3.62-4-3.63c-8.09-.08-16.18-.49-24.25-.19-6,.24-8.76-1.31-8.25-8,1.11-14.6-.54-29.32,1.53-43.89-.74-42,30.75-82.16,71.81-92.34,5.75-1.42,6.65-.13,6.67,5.15,0,4-2.11,11.24,3.48,11.17s2.68-7.24,2.75-11c.15-6.2,2.31-8.79,8.51-8.36,15.29,1,29.58-2.81,43.31-9.28,22.58-15.55,34.3-36.81,34-64.43a59.1,59.1,0,0,1-.11-16.43,10.07,10.07,0,0,1,0-7c-.18-32.05-.58-64.11-.5-96.18.1-39.63-18.24-64.23-56.41-74.8-7.19-2-14.47-3.71-21.72-5.57-5.6-1.42-9.94-13.6-6.37-18,1.55-1.86,3.31-.49,4.86-.06,28.5,7.8,56.81,16.25,84.7,26.09,3.67,1.3,7.17,3.06,9.73,6.18,2.93,3.59,5.13,8.58,10.5,1.91,1.79-2.2,5.52,1,8.25,1.91,23.17,7.91,23.21,8,23.34,32q.29,52.17.48,104.32c6.24,12.81,17.08,16,30.43,15.79,25.51-.44,51-.2,76.52-.08,20.47.11,26.25,5.68,26.43,26.16.24,24-.07,48-.14,71.93C1723.38,640.61,1721.2,645.82,1716.19,650.69Z"/><path class="cls-2" d="M1523.55,515.07c.13-23.38.45-46.77.33-70.14-.2-35.47-16.69-57.26-51-66.53-54.49-14.74-109.26-28.34-164.45-40.34C1215.91,318,1122.64,305.57,1027.85,306c-18.34.09-25-6.75-24.93-24.91,0-14.09-.11-28.2.29-42.27.14-5.19-1.41-6.67-6.54-6.42H923.79c-5.95-.36-6.78,1.93-6.67,7.21.29,15,.13,30-.21,45-.31,12.7-6.2,19.15-18.83,20.9a93.07,93.07,0,0,1-13.48.51c-44.16-.56-88.07,3.15-131.88,8-57.13,6.3-113.49,17.29-169.49,30.14-47.76,10.95-95.42,22.48-142.48,36.14-25.06,7.26-43.15,28.68-44.3,52.11-1.33,27.54-1,55.15-.07,82.71-.15,16.42-.4,32.85-.43,49.28,0,6.54-.29,13.13,1.29,19.6,7.16,29.21,31.43,47.37,64.11,48.29,7.42.21,14.9,1.65,12.47-10-.44-2.11.19-4.38,3-4.58,3-.23,3.51,2.36,3.17,4.29-2,11.41,4.34,14.63,14,14.78,17.86,6.79,33.84,16.25,46.5,31,16.63,19.37,24.72,42,26.36,67.15q-.2,41.21-.34,82.44l.54,2.15c.65.5,1.3,1.46,1.93,1.46,22.46.07,44.91,0,67.38.1,3.48,0,5.19-1.53,4.59-4.83-1.42-8,2.8-16.66-2.66-24.21a2.13,2.13,0,0,1,.36-3.14c7.24-4.82,12.14-13.22,22.66-13,17.66.39,35.33-.18,53,0,13.59.11,25.95-3,37.06-11.17,11.78-8.67,24-16.85,36-25.23C806.12,730,826,725.94,847,725.49c0,0,61-3.24,112.77-3.24s84.48,1.76,84.48,1.76c28.67,2.24,58,0,84.84,13.75,14.2,8.2,27.26,18.09,40.59,27.55,8.51,6,17.7,10,28.09,10.14,16.67.22,33.35-.07,50-.14,4.48.18,9,.18,13.44.61,8.3.79,19.55,10.45,18.45,16.09-1.48,7.46-.25,15-1.05,22.38-.63,5.85,1.68,6.9,7.05,6.81q30.13-.51,60.26,0c5.77.09,7.64-1.13,7.55-7.37-.32-25.76,0-51.54.09-77.33a100.57,100.57,0,0,1,6.92-37.74c12.15-30.07,33.87-50.2,64.09-61.46,8.81-1.55,18.32-2.27,15.78-15.51-.36-1.89.36-4.58,3.26-4.34s2.85,2.92,2.54,4.86c-1.44,9.23,3,11.39,11.14,10,2.61-.47,5.37-.11,8.07-.25,30.07-1.68,56.64-26.16,58.08-55C1524.45,556.38,1523.59,535.7,1523.55,515.07ZM473.69,407.37h.2c0-6-.06-11.93,0-17.88,0-1.55.69-3.22,2.26-3.47a3.18,3.18,0,0,1,3.63,3.11c1.3,12.18,1,24.38.31,36.56a3.11,3.11,0,0,1-3.55,3.15c-2.43,0-2.86-1.73-2.88-3.6C473.65,419.28,473.69,413.33,473.69,407.37Zm.13,41.67c0-2.09.12-4.49,3-4.56,2.12-.07,3.19,1.73,3.22,3.61q.19,17.43.08,34.84c0,1.73-.76,3.68-3.12,3.64-2.88-.05-3.19-2.27-3.21-4.41-.07-5.66,0-11.34,0-17h.08C473.8,459.8,473.76,454.41,473.82,449Zm6.46,148.17c0,2-.28,4.45-3.29,4.38s-3.23-2.23-3.25-4.4c-.07-6,0-11.94,0-17.92h.11c0-5.39,0-10.76,0-16.15,0-1.91.72-3.89,2.71-4,2.52-.23,3.71,1.78,3.74,4.09C480.37,574.51,480.39,585.86,480.28,597.21Zm-.14-58c-.13,1.85,0,4.66-3.08,4.52-2.65-.11-3.21-2.42-3.26-4.54-.2-8.65-.29-17.3-.42-25.95,1.43-3.89-1.73-11.38,3.19-11.38,6.06,0,3.24,7.35,4,11.58a45.69,45.69,0,0,1,.43,5.25C480.75,525.52,480.61,532.37,480.14,539.2ZM623.55,790.44c-.23,2-1.92,2-3.37,2-6,0-11.94,0-17.92,0v.09c-6,0-12,.06-17.93,0-1.62,0-3.91.3-4-2.31-.06-2.13,1.55-3.26,3.49-3.28q18.36-.13,36.72,0C622.63,786.88,623.81,788.28,623.55,790.44Zm715.89.09c-.18,2.11-2.11,1.82-3.44,1.84-6.29.11-12.58,0-18.87,0v0c-5.69,0-11.37,0-17.06,0-1.66,0-3.94.42-3.87-2.3a3.17,3.17,0,0,1,3.42-3.35c12.27,0,24.54,0,36.79.11C1338.41,786.89,1339.62,788.46,1339.44,790.53ZM1440.1,390.65c.05-2.13.7-4.56,3.31-4.58s2.92,2.47,2.94,4.61c0,6,0,11.93,0,17.89,0,5.07.07,10.13,0,15.19,0,2.11,1.12,5.12-3,4.94-3.41-.16-3.73-2.58-3.72-5Q1439.71,407.18,1440.1,390.65Zm6.12,91.13c0,1.85.94,4.55-2.37,4.83-2.83.23-3.7-1.93-3.72-4-.09-11.66,0-23.31.13-35,0-2,1.1-3.33,3.5-3s2.61,2.11,2.61,3.94c0,5.7,0,11.37,0,17.07h-.13C1446.26,471,1446.35,476.39,1446.22,481.78ZM1444,601.55c-2.67.2-4-1.33-4-3.65q.06-17.82.44-35.66c0-1.89,1-3.55,3.31-3.26s2.7,2,2.7,3.94v17.84h.06c0,5.37.11,10.72-.07,16.07C1446.33,598.62,1447.41,601.3,1444,601.55Zm-.58-57.94c-4.23-.11-3.06-4.52-3.35-7.15-.75-7.08.81-14.27-.83-21.35.18-1.19.29-2.38.54-3.53.8-3.53-1.51-9.8,3.21-9.91,6.18-.15,2,6.79,4,10.09-.18,8.32-.18,16.66-.69,25C1446.1,539.14,1448.35,543.72,1443.41,543.61Z"/><path class="cls-1" d="M1443.31,428.7c-3.41-.16-3.73-2.58-3.72-5q.12-16.55.51-33.08c.05-2.13.7-4.56,3.31-4.58s2.92,2.47,2.94,4.61c0,6,0,11.93,0,17.89,0,5.07.07,10.13,0,15.19C1446.28,425.87,1447.45,428.88,1443.31,428.7Z"/><path class="cls-1" d="M1446.22,481.78c0,1.85.94,4.55-2.37,4.83-2.83.23-3.7-1.93-3.72-4-.09-11.66,0-23.31.13-35,0-2,1.1-3.33,3.5-3s2.61,2.11,2.61,3.94c0,5.7,0,11.37,0,17.07h-.13C1446.26,471,1446.35,476.39,1446.22,481.78Z"/><path class="cls-1" d="M1443.41,543.61c-4.23-.11-3.06-4.52-3.35-7.15-.75-7.08.81-14.27-.83-21.35.18-1.19.29-2.38.54-3.53.8-3.53-1.51-9.8,3.21-9.91,6.18-.15,2,6.79,4,10.09-.18,8.32-.18,16.66-.69,25C1446.1,539.14,1448.35,543.72,1443.41,543.61Z"/><path class="cls-1" d="M480.09,482.93c0,1.73-.76,3.68-3.12,3.64-2.88-.05-3.19-2.27-3.21-4.41-.07-5.66,0-11.34,0-17h.08c0-5.37,0-10.76,0-16.13,0-2.09.12-4.49,3-4.56,2.12-.07,3.19,1.73,3.22,3.61Q480.21,465.52,480.09,482.93Z"/><path class="cls-1" d="M480.12,425.69a3.11,3.11,0,0,1-3.55,3.15c-2.43,0-2.86-1.73-2.88-3.6,0-6,0-11.91,0-17.87h.2c0-6-.06-11.93,0-17.88,0-1.55.69-3.22,2.26-3.47a3.18,3.18,0,0,1,3.63,3.11C481.11,401.31,480.77,413.51,480.12,425.69Z"/><path class="cls-1" d="M481,518.68c-.27,6.84-.41,13.69-.88,20.52-.13,1.85,0,4.66-3.08,4.52-2.65-.11-3.21-2.42-3.26-4.54-.2-8.65-.29-17.3-.42-25.95,1.43-3.89-1.73-11.38,3.19-11.38,6.06,0,3.24,7.35,4,11.58A45.69,45.69,0,0,1,481,518.68Z"/><path class="cls-1" d="M1339.44,790.53c-.18,2.11-2.11,1.82-3.44,1.84-6.29.11-12.58,0-18.87,0v0c-5.69,0-11.37,0-17.06,0-1.66,0-3.94.42-3.87-2.3a3.17,3.17,0,0,1,3.42-3.35c12.27,0,24.54,0,36.79.11C1338.41,786.89,1339.62,788.46,1339.44,790.53Z"/><path class="cls-1" d="M480.28,597.21c0,2-.28,4.45-3.29,4.38s-3.23-2.23-3.25-4.4c-.07-6,0-11.94,0-17.92h.11c0-5.39,0-10.76,0-16.15,0-1.91.72-3.89,2.71-4,2.52-.23,3.71,1.78,3.74,4.09C480.37,574.51,480.39,585.86,480.28,597.21Z"/><path class="cls-1" d="M366,723.61c-2.41.72-4.5.71-6.43-1.44-8.46-9.46-12.22-20.83-13.74-33.13-.24-1.92.34-3.72,2.35-4.28,1.66-.46,2.9.67,3.27,2.24,2.66,11.15,9.25,20.5,13.79,30.79.78,1.77.33,4.08.45,6.15Z"/><path class="cls-1" d="M345.79,425.81a78,78,0,0,1,5.14-22.76c1-2.71,2.48-6.6,5.88-5.58,3.68,1.1,2.15,5.18,1.3,7.71a108.69,108.69,0,0,0-5.33,26.21c-.19,2.45-.08,6.32-3.41,6.41-4.36.1-3.31-4-3.56-6.79C345.7,429.83,345.79,428.62,345.79,425.81Z"/><path class="cls-1" d="M345.89,647.57c0-5.1,0-10.19,0-15.29,0-2.2.42-4.44,3.23-4.42,2.45,0,2.5,2.23,2.65,4,.93,11.07,1.49,22.15.29,33.22-.19,1.77.49,4.75-2.66,4.78-3.31,0-3.53-2.69-3.56-5.15-.06-5.7,0-11.4,0-17.1Z"/><path class="cls-1" d="M352.9,476.73c-.32,5.26-.64,11.2-1,17.14-.1,1.43-.24,3.11-2.23,3.23s-3.53-1-3.55-3.1q-.19-17.87-.13-35.75a3,3,0,0,1,3.4-3.25c1.93.09,2.29,1.71,2.4,3.18C352.17,464.12,352.49,470.07,352.9,476.73Z"/><path class="cls-1" d="M351,569.25c2.43,13.12,1.05,26.3.79,39.47-3.6,2.92-5.91,2.73-5.92-2.55,0-10.79,0-21.57,0-32.36C345.78,570.18,347.83,569.17,351,569.25Z"/><path class="cls-1" d="M351,511.62a162.5,162.5,0,0,1,0,42.89c-4,.28-5.14-2.1-5.14-5.49,0-10.61-.06-21.23.09-31.84C346,514.11,346.81,511.18,351,511.62Z"/><path class="cls-1" d="M1554.47,724.1a11.29,11.29,0,0,1,.89-7.84c4.93-8.91,9.51-18,12.49-27.76.48-1.56,1-3.58,3.36-3.71,1.86-.11,2.5,1.06,3,2.64,2.63,8.86-10.54,32.81-20,36.34Z"/><path class="cls-1" d="M1568.18,633.92c.89-3.65.34-10,6.66-3.61-.13,11.37-.2,22.74-.42,34.12-.05,2.29.09,5.44-3.19,5.48-3.56.05-2.88-3.33-2.91-5.46C1568.14,654.28,1568.2,644.1,1568.18,633.92Z"/><path class="cls-1" d="M1567.71,522.24c1.81-3.27-1.84-10.31,4-9.88,5,.37,2.49,6.95,3.06,10.81a65.31,65.31,0,0,1,.24,8.05c.15,1.23.29,2.47.43,3.7a11.78,11.78,0,0,0-.09,7.24c-.13.26-.26.53-.38.8-1.63,3.55,1.62,10.8-3.12,10.59-6.35-.28-3.29-7.56-3.73-11.76C1567.44,535.33,1567.8,528.77,1567.71,522.24Z"/><path class="cls-1" d="M1574.46,590.68c0,5.36.07,10.72,0,16.07,0,1.66,0,3.79-2.44,4-2.77.19-3.59-1.73-3.61-4-.11-11-.18-22-.14-33,0-1.69.21-3.83,2.56-4,2.75-.23,3.56,1.8,3.6,4,.1,5.66,0,11.31,0,17Z"/><path class="cls-1" d="M1444,601.55c-2.67.2-4-1.33-4-3.65q.06-17.82.44-35.66c0-1.89,1-3.55,3.31-3.26s2.7,2,2.7,3.94v17.84h.06c0,5.37.11,10.72-.07,16.07C1446.33,598.62,1447.41,601.3,1444,601.55Z"/><path class="cls-1" d="M939.66,792.5c-4.44-.71-12.2,2.39-12.69-2-.73-6.6,7.9-2.16,11.38-5.12,16.12.35,32.24.63,48.35,1.1,2.68.08,7-1.11,6.81,3.43-.15,3.88-4.13,2.34-6.52,2.59Z"/><path class="cls-1" d="M775.41,792.62c-5.95,0-11.91.08-17.87-.06-1.53,0-3.93.71-4.19-1.89a3.34,3.34,0,0,1,3.21-3.62,220.12,220.12,0,0,1,37.47,0,3.12,3.12,0,0,1,2.83,3.82c-.33,2-2.21,1.58-3.58,1.59-5.95.06-11.91,0-17.87,0Z"/><path class="cls-1" d="M890.3,792.58c-5.69,0-11.39,0-17.09,0-1.82,0-3.88-.14-3.86-2.57,0-2.1,1.61-3.1,3.62-3.15,11.68-.3,23.37-.62,35-.78,2,0,3.26,1.23,3.11,3.52-.16,2.48-1.85,2.76-3.73,2.77-5.7,0-11.4,0-17.1,0Z"/><path class="cls-1" d="M832.78,792.59c-6,0-11.95.06-17.92,0-1.92,0-4.55.55-4.36-2.84.14-2.27,1.75-3,3.68-3q17.93,0,35.84.09a3.33,3.33,0,0,1,3.6,3.25c.12,2.69-2.15,2.34-3.81,2.36-5.68.07-11.35,0-17,0Z"/><path class="cls-1" d="M717.37,792.54c-5.68,0-11.37.05-17.06,0-1.35,0-3.21.45-3.54-1.63s.86-3.77,2.82-3.8c12-.19,23.91-.21,35.87-.15,1.67,0,2.63,1.51,2.72,3.07.15,2.71-2.08,2.43-3.75,2.46-5.68.08-11.37,0-17.06,0Z"/><path class="cls-1" d="M675.48,293.69c-12.28.27-24.09,3.49-36.06,5.74-2.69-.68-5.47-1.61-5-5.05.36-2.47,2.85-2.53,4.94-2.85,9.93-1.52,19.83-3.28,29.79-4.65C674.06,286.21,677.76,287.37,675.48,293.69Z"/><path class="cls-1" d="M558.27,314.9l-34.09,7.74c-3.15-3.46-2.22-6.18,2-7.29q15.11-4,30.4-7.21c1.72-.37,4.75-1.29,5.64.84C563.52,312.13,560,313.17,558.27,314.9Z"/><path class="cls-1" d="M787.17,278,758,281.53a23.31,23.31,0,0,1-2.63-.32c-2.6-.61-7.17,1.62-7.28-2.5-.1-3.61,4.44-2.71,7.16-3.1,9.36-1.35,18.72-2.79,28.13-3.77C788,271.37,791.82,272.34,787.17,278Z"/><path class="cls-1" d="M617.81,302.59c-11.53,4.86-24.46,3.61-36,8.23-5.77-1.8-5.39-4.8-.54-6.73,10.57-4.2,21.89-5.47,33.12-6.83C618.88,296.71,617.82,300.05,617.81,302.59Z"/><path class="cls-1" d="M731.32,284.73c-12.66,1.23-25,4.94-37.89,4.47-2.31-2.94-2.9-5.63,1.8-6.34,10.63-1.6,21.29-3.14,32-4.31C731.54,278.08,733.11,280.56,731.32,284.73Z"/><path class="cls-1" d="M848.27,273.69c-13.2.44-26.29,2.94-39.56,2.17-3.08-3.56-3.77-6.52,2.27-6.81,10.67-.5,21.36-.67,32-1.11C847.23,267.77,849.1,269.42,848.27,273.69Z"/><path class="cls-1" d="M895.21,270.91c-9.78-1.49-19.29.92-28.89,1.94-5.64-3.38-3.75-6.88,1.11-7.31,11.26-1,22.64-.71,34-.94,2.31,0,3.06,1.27,3,3.39-.08,1.95-1.28,2.41-2.92,2.49C899.36,270.58,897.28,270.76,895.21,270.91Z"/><path class="cls-1" d="M1280.56,299.31l-35.86-6.6c-3.44-3.41-1.94-5.59,2.08-5.72,12-.4,23.51,3.79,35.37,5.09,2,.23,2.85,2.53,2.94,4.1C1285.25,299.07,1282.54,298.89,1280.56,299.31Z"/><path class="cls-1" d="M1338.2,310.5l-36.1-7.24c-1.93-1.49-2.57-3.55-2.76-5.94,13.1-.79,25.34,3.13,37.78,5.67,2.15.44,4.77,1.35,4.8,4.41C1342,309.79,1339.73,309.8,1338.2,310.5Z"/><path class="cls-1" d="M1222.93,290.21,1188.66,285c-3.73-2.48-4.29-5.81.65-6,12.24-.48,24.24,2.31,36.16,4.94,1.31.28,3,1.27,2.44,3.13C1227.24,289.41,1224.82,289.49,1222.93,290.21Z"/><path class="cls-1" d="M1104.1,276.39l-32.21-3c-1.17-4.47.74-5.92,5.09-5.65,9.86.61,19.75.86,29.61,1.54,2.7.19,7.13-.69,7.2,3.38.07,4.25-4.33,2.89-7,3.41C1105.88,276.21,1105,276.28,1104.1,276.39Z"/><path class="cls-1" d="M1168.92,281.41c-11.46.17-22.78-1.35-34.07-3.07-2.13-1.11-6.21-.34-5.32-4.46.68-3.18,3.81-2.34,6-2.08,10.35,1.26,20.71,2.54,31,4.23C1168.79,276.4,1173.32,277.35,1168.92,281.41Z"/><path class="cls-1" d="M1392.14,322.69l-34.08-9.43c-1.1-3.77,0-6,4.21-5.05q15.64,3.42,31.2,7.25c1.91.46,4.47,1.18,4.2,3.81C1397.35,322.36,1394.33,322.07,1392.14,322.69Z"/><path class="cls-1" d="M1056.92,271.46c-9.7,2.93-19.13-1.9-28.78-1-3.5.32-7,.17-10.56.24-3.21-2.37-3.68-5.58.61-5.92,11.8-.91,23.67-.85,35.41,1.27C1056.68,266.62,1056.93,269,1056.92,271.46Z"/><path class="cls-1" d="M1147.39,785.75c6.34,2.29,13.56-1.24,19.6,3,.24,3.23-1.63,4-4.43,4-11.36-.07-22.73,0-34.1-.13-1.77,0-4.68,1.08-4.8-2.23s2.38-3.72,4.94-3.83Z"/><path class="cls-1" d="M1028.48,792.57c-5.37,0-10.73.1-16.09-.06-1.82,0-4.65,1-5-2.07-.26-2.49,1.73-3.66,4.06-3.67,11.91-.07,23.82-.07,35.73-.06,2.2,0,3.16,1.25,3,3.4-.18,2.64-2.24,2.3-3.9,2.32-6,.07-11.92,0-17.87,0Z"/><path class="cls-1" d="M1179.77,790.51c1.27-1.52,1.86-3.72,4.54-3.7,11.59.06,23.18,0,34.76,0,2.33,0,4.18.74,3.94,3.53s-2.38,2-4,2q-10.66.38-21.33.71C1191.81,791.45,1185.2,795.1,1179.77,790.51Z"/><path class="cls-1" d="M1086.82,792.54c-5.38,0-10.76.06-16.14,0-2,0-4.46.46-4.7-2.67s2-3.3,4.13-3.32c11.36-.06,22.72,0,34.07-.08,1.94,0,3.47.28,3.66,2.72.25,3.13-1.77,3.29-4,3.3-5.68,0-11.36,0-17,0Z"/><path class="cls-1" d="M623.55,790.44c-.23,2-1.92,2-3.37,2-6,0-11.94,0-17.92,0v.09c-6,0-12,.06-17.93,0-1.62,0-3.91.3-4-2.31-.06-2.13,1.55-3.26,3.49-3.28q18.36-.13,36.72,0C622.63,786.88,623.81,788.28,623.55,790.44Z"/><path class="cls-1" d="M1574.42,430.39c-.76,2.41,1.73,6.77-2.43,7.34-4.7.64-4.54-4.19-4.76-7.1-.68-9.34-4.11-18-5.73-27.13-.37-2.12-1.18-5.42,1.93-6.08,2.31-.48,3.08,2.32,3.88,4.22C1571.19,410.78,1574,420.18,1574.42,430.39Z"/><path class="cls-1" d="M1574.21,475.48c0,6,0,12,0,18,0,1.9-.71,3.69-3,3.67s-2.72-2.08-2.72-3.84q0-17.53.2-35.06c0-1.54.67-3.23,2.38-3.28a3.26,3.26,0,0,1,3.28,3.47c.13,5.69,0,11.39,0,17.08Z"/><path class="cls-1" d="M1474.59,782.34c-8.28.71-15.95-1-22.79-5.87-.25-.17-.49-.48-.74-.49-15.43-.67-10.75-12.12-11.24-20.85-.32-5.61.79-11.29-.81-16.84.44-1.66-.32-4.71,1.47-4.76,8.14-.2,13.12-6.79,20.07-9.24,11.6-4.09,21.86-1.4,30.8,6.45,9.9,8.69,10.76,15.81,2.86,26.21C1487.74,765.46,1483.08,775.39,1474.59,782.34ZM1448,752.63c0,10,6,17.62,16.64,22,4.4,1.82,7.18,1.17,9.86-2.74,4.91-7.13,10-14.1,15.3-21,2.8-3.68,2.56-6.87,0-10.58-5.61-8.31-15.89-12.64-24.77-10.1C1454.6,733.26,1448,741.87,1448,752.63Z"/><path class="cls-1" d="M1478.66,793c-.87-.13-1.75-.19-2.6-.39-2.36-.55-6,1.39-6.84-1.92-.94-4,3.56-3.82,5.78-5.35,9.91,1,18.66-3.23,27.68-6.18,2.8-.91,6.22-3,7.73.65s-2.33,4.81-5.05,6A91.28,91.28,0,0,1,1478.66,793Z"/><path class="cls-1" d="M1548.5,740a21.35,21.35,0,0,1-1.37,2.94c-5.6,8.74-11,17.68-18.37,25.08-1.66,1.66-4,3.89-6.14,2.35-2.76-2-.2-4.38,1.21-5.94,6.82-7.57,11.68-16.44,17.18-24.89,1.07-1.64,2.31-3.78,4.87-3.13C1547.37,736.78,1548.25,738.06,1548.5,740Z"/><path class="cls-1" d="M464.48,779c-17.53,6-19.35,5.33-30.41-10-4-5.55-8.26-10.93-12.41-16.39-8.46-14.63,15.43-34,32.5-29.83,6.18,1.51,11.35,6.93,16.74,7.9,13.11,2.35,9.68,11,9.67,18.82,0,3.6.11,7.2,0,10.79-.26,6.64,3.45,15.93-9.76,14C469,774.06,466.59,777.37,464.48,779Zm7.42-25.77c.16-13-10.95-24.2-24-23.88-9.05.23-15.08,5.58-19.17,12.88-3.46,6.17,2.78,9.63,5.44,13.87,3.48,5.56,7.53,10.78,11.32,16.15,1.62,2.28,3.36,4,6.61,3.61C462.3,774.57,471.78,763.83,471.9,753.25Z"/><path class="cls-1" d="M440.2,792.49a54.81,54.81,0,0,1-24.89-6c-2.45-1.22-6.21-2.68-4.86-6.36,1.52-4.13,4.83-1.88,7.5-.87a126.11,126.11,0,0,0,26.56,7.29c2.61.39,6.59.34,6.44,3.42-.23,4.47-4.67,1.8-7.19,2.51A13.62,13.62,0,0,1,440.2,792.49Z"/><rect class="cls-2" x="1919" y="1079" width="1" height="1"/><rect class="cls-2" width="1" height="1"/><rect class="cls-2" y="1079" width="1" height="1"/><rect class="cls-2" x="1919" width="1" height="1"/></g><g id="Capa_3" data-name="Capa 3"><path d="M798.38,476.48v111H778.55V516.77L759,531.68l-16.18,12.53-16.18-12.53-19.51-14.91v70.74H687.34v-111l19.83,15.23,35.69,27.44,35.69-27.44Z"/><path d="M852.3,513.44v75.5H832.47V511.38A15.83,15.83,0,0,0,819,497.89h-4.44V478.23h4.28v.15A35.55,35.55,0,0,1,832.31,482a35.17,35.17,0,0,1,16,16.18,42.36,42.36,0,0,1,2.7,7.46,33.41,33.41,0,0,1,1,8.09Z"/><path d="M978.71,476.48v111H958.88V541.83H900.36a31.39,31.39,0,0,1-14.91-3.65,32.39,32.39,0,0,1-17.77-29V476.48h19.83v32.68a13.06,13.06,0,0,0,13,13H959V476.48Z"/><path d="M1105.6,476.48v111h-19.83V541.83h-58.53a31.42,31.42,0,0,1-14.91-3.65,32.4,32.4,0,0,1-17.76-29V476.48h19.82v32.68a13.07,13.07,0,0,0,13,13h58.53V476.48Z"/><path d="M1232.48,510.11a32.67,32.67,0,0,1-9.2,22.84,32.75,32.75,0,0,1-23.47,55.51h-78.2V568.64h78.2a13.06,13.06,0,0,0,13-13,12.92,12.92,0,0,0-12.21-13h-59V522.8h59a13,13,0,0,0-.63-26h-78.2V477H1200a32.62,32.62,0,0,1,32.67,32.67Z"/></g></g></svg>