<svg xmlns="http://www.w3.org/2000/svg" viewBox="0 0 1920 1080"><defs><style>.cls-1{fill:#020202;}.cls-2{fill:#f2f2f2;}</style></defs><g id="Capa_2" data-name="Capa 2"><g id="Capa_1-2" data-name="Capa 1"><path class="cls-1" d="M1670.52,487.35c-11.47,0-19.92,8.73-20.11,20.72a20.35,20.35,0,0,0,19.91,21,21,21,0,0,0,21.32-20.51C1691.84,496.3,1682.91,487.32,1670.52,487.35Zm.33,36.38c-8.34-.05-14.89-6.84-15-15.53-.09-8,6.77-15.51,14.26-15.57a15.78,15.78,0,0,1,16,15.47C1686.16,516,1678.58,523.79,1670.85,523.73Z"/><path class="cls-1" d="M248.29,487.19a20.41,20.41,0,0,0-21.23,20.5c0,12.28,8.7,21.49,20.27,21.46a20.64,20.64,0,0,0,20.9-20.9C268.28,496.58,259.63,487.44,248.29,487.19Zm-.9,36.5a16,16,0,0,1-14.89-16.52c.39-7.91,7.79-14.86,15.43-14.47a15.54,15.54,0,0,1,14.83,15.8C262.5,517.1,255.38,524.13,247.39,523.69Z"/><path class="cls-1" d="M959.39,417.53a56.07,56.07,0,1,0,56.08,56.07A56.13,56.13,0,0,0,959.39,417.53Zm0,105.25a49.18,49.18,0,1,1,49.19-49.18A49.24,49.24,0,0,1,959.39,522.78Z"/><path class="cls-1" d="M1383.7,374.88A51.08,51.08,0,1,0,1434.78,426,51.13,51.13,0,0,0,1383.7,374.88Zm0,95.27A44.19,44.19,0,1,1,1427.9,426,44.24,44.24,0,0,1,1383.7,470.15Z"/><path class="cls-1" d="M535.08,374.88A51.08,51.08,0,1,0,586.16,426,51.14,51.14,0,0,0,535.08,374.88Zm0,95.27A44.19,44.19,0,1,1,579.27,426,44.24,44.24,0,0,1,535.08,470.15Z"/><path class="cls-1" d="M1718.07,835.29c0-3.15-.44-4.9-1.57-6s-2.81-1.58-5.87-1.55c-18.23.12-36.75.13-54.69.13-19.49,0-39.65,0-59.47.18-2.56,0-4-.29-4.77-1s-1-2.13-.92-4.61c.21-6.43.22-9.6-1.54-11.33s-5-1.67-11.6-1.35c-5.44.26-11,.13-16.35,0-7.94-.18-16.15-.39-24.23.71l-.47.06-.66,2.79-.1,53c-.83.18-1.27-.32-1.86-1.1-5.35-7-13-10.94-24-12.46a67.21,67.21,0,0,1-9-2.08c-1.36-.38-2.74-.76-4.09-1.1-6.87-2-13.22-1.12-20,2.85s-14,7.7-20.86,11.3c-3,1.55-6,3.11-8.94,4.7l-.15.06-.08.13a6.5,6.5,0,0,1-3.71,2.51l-3.22,2.6-2.73,2.6c-2,1.94-4.08,3.9-6.12,5.86s-3.91,3.74-4.46,3.59-1.19-2.66-1.9-5.55a5,5,0,0,1-.06-1.18,5.61,5.61,0,0,0,0-.71l-.07-.27c-.39-.81-.73-1.64-1.09-2.47a24.74,24.74,0,0,0-2.8-5.37,16.33,16.33,0,0,0-12.74-6.49h-.05c-3.49,0-8.56,1.26-13,7.16l-.08.14a23.4,23.4,0,0,0-1.21,3.91,19,19,0,0,1-2.53,6.45c-1.86-6.56-4.06-12.24-9.61-15.91l-.18-.08c-13.07-3.87-18.89-.64-23.08,12.81-3.25,10.43-3.29,10.43-14.12,10.41-25.41,0-54.24-.09-82.32,0-3.75,0-6.13-.17-8.36-3.85-3.66-6-10.72-5.09-15.7-3.85-3.7.92-4.08,4.72-4.4,7.77,0,.64-.12,1.28-.21,1.87a13.93,13.93,0,0,0-.11,3.61c.38,3.1,0,5.16-1.19,6.11s-3.19.93-6,0l-.28-.08-.07,0a4.61,4.61,0,0,1-3.48.12l-.16,0h-.15c-31.68.37-69,.63-106-.21-.51-.26-.83-.54-.89-.78-.1-.42.42-1.12.88-1.74l.16-.21.11-.25c.17-.73.36-1.46.54-2.17.41-1.67.84-3.4,1.13-5.13l.11-.55c.33-1.83.8-4.35-2.13-5.48s-3.66.87-4.22,2.14a5.83,5.83,0,0,1-.66,1.25c-2.07,2.74-2.33,5.85-2.59,8.87a18.64,18.64,0,0,1-1.38,6.59c-.33.67-.63,1.36-1,2.05l-.52,1.14v.18c.11,1.6,0,2.69-1,3.53l-.16.15-.06.21-.66,2.89c-.48,2.06-1,4.2-1.54,6.27a7.84,7.84,0,0,1-5.75,5,8.36,8.36,0,0,1-7.79-1.44,3.54,3.54,0,0,1,.18-.65c.06-.28.15-.54.19-.76l0-.11,0-.11a8,8,0,0,1,1.39-5.08l.1-.18v-.21c-.13-2.49,1-4.63,2.13-6.69l.07-.28a26.15,26.15,0,0,1,3.1-10.55l.06-.16c.2-.89.42-1.77.64-2.65a43.65,43.65,0,0,0,1.34-6.68c.12-1.36.41-4.56-2.52-5-2.25-.29-3.89,1-4.49,3.62-.66,2.77-1.49,5.57-2.3,8.27-.33,1.14-.68,2.28-1,3.43l0,.15,0,.15c.09.57,0,.7,0,.73s-.16.1-.44.1l-.22,0c-2.88,1-5.8.85-8.9.63-1.21-.08-2.48-.16-3.73-.16h0c-28.94,0-58.75.07-87.76.08a3.6,3.6,0,0,1-3.61-3.61v-117c19.05.55,38.09,1.4,57,4.35l7.07.43c14.56,2.15,29.18,4.05,43.68,6.51,11.07,1.89,21.91,5.72,32.76,7.52,20.42,3.41,40.48,8.66,61.19,10.79,45.48,4.66,90.29,2.25,134.76-8.14,32.29-7.54,62.69-20,92.3-34.7,13.19-8.14,26.58-16,39.32-24.87,16.91-11.8,32.19-25.5,47.48-39.2,9.06-10,18.33-19.87,27.09-30.14,4.71-5.51,10.09-8,17.3-8,24.32.2,48.65.09,73,.07,13,0,13,0,13.76-12.46-.08-22.65-.2-45.29-.22-67.93a16.26,16.26,0,0,1,1-5.33c1.1-3.12,3.28-6.55,6.49-5.94s1.47,4.68,1.49,7.13c.07,9.84-.19,19.68-.36,29.51-.1,5.43,1.64,8.27,8,8.14,17.62-.38,35.25-.31,52.87,0,6.14.08,8.77-2.16,8.65-8.32-.12-6.85.21-13.71.35-20.57-.1-1.36-.18-2.74-.29-4.1-.49-6.34-1.08-12.43,5.95-16.38,3.29-1.84,3.77-6,3.77-9.8,0-9.17.18-18.33.28-27.49q0-31.68,0-63.36c-.08-1.14-.22-2.29-.22-3.43-.27-7.45-8.27-7.75-8.27-7.75-18.8-.34-37.58-.24-56.38-.31h-7c-9.25.46-9.28.46-9.32-8.8,0-8-.55-16.1.11-24.08,1.32-16.2-5.75-26.53-19.78-34.3-35.52-19.69-71.2-39-108.07-56a1298.48,1298.48,0,0,0-143.09-56.14q-61.07-19.84-123.82-33.71c-25.41-5.57-51-10.15-76.59-14.79-16.68-3-33.56-5.26-50.28-7.41-11-1.41-22.66-2.37-34.08-2.85a214.2,214.2,0,0,1-45.52-7.18c-19-5-38.9-6.87-58.7-8h-15.8c-14.42,0-42.22,1.59-59.85,5.31-16.34,3.45-32.5,7.68-49.31,9-117.19,9.23-230.73,35-341,75.46a1321.14,1321.14,0,0,0-204.37,95.83c-5.75,3.3-11.81,6.26-15.78,11.93a26,26,0,0,0-5,15.4c.08,11.93-.06,23.86,0,35.79,0,3.16-.23,5-4.31,4.93q-34.08-.33-68.15,0c-11.71,0-10.47,11.14-10.47,11.14q0,34,.06,67.94c0,7.48.28,15,.13,22.43-.12,6.17,1.44,11.24,7.62,13.72,1.49.61,2.14,1.23,2.11,2.85,0,3.83.08,7.65.14,11.48.18,8.18.45,16.35.46,24.53,0,5.11,2,7.14,7.37,7.08,19.83-.19,39.65,0,59.47.1,3.9-1.43,3.75-4.78,3.72-8-.06-10.06-.22-20.13-.26-30.18,0-2.08-.93-4.89,2.81-5,3-.06,5.71.52,6,4.06s.11,6.82.1,10.22q-.13,24.69-.28,49.39,0,4.15,0,8.31c.08,3.66.51,7.35.18,11-.53,5.64,2.06,7.09,7.23,7.06,26.58-.15,53.19,0,79.79-.11,6.61,0,12.15,1.79,16.33,7,24.43,30.46,53.72,55.56,85.59,77.82l30.17,18.09C534.83,778.85,559.15,790,585.11,797q19.88,5.34,40.08,9.35c25.19,5.56,68.08,5.51,68.08,5.51,25.92,0,51.61-2.09,76.92-8,40.36-9.41,80.93-17.54,122.3-21.21,14.31-1.29,28.65-2,43-2.59V939.56a8.19,8.19,0,0,0,8.2,8.2h.07q15.66,0,31.31,0c2.75,0,5.51,0,8.26,0H1073c-.23.92-.48,1.8-.72,2.69-.75,2.75-1.46,5.34-2,8-.23,1.17-.44,2.88.39,4.06a2.83,2.83,0,0,0,2,1.17c2.55.4,3.47-2.54,3.82-3.65q2.6-8.28,5.18-16.57l1.36-4.35c.26-1,.7-2.58,1-3.56.44-1.81.91-3.7,1.44-5.52a5.94,5.94,0,0,1,3.67-3.47,10,10,0,0,1,8.42.37,2.56,2.56,0,0,1,1.37,1.46c.28,1-.49,2.38-1.25,3.68-.25.44-.51.88-.72,1.29l-1.75,6.67c-1.5,5.75-3,11.5-4.54,17.23l-.21.73c-.38,1.27-.81,2.73-.16,3.89a3,3,0,0,0,2,1.39c3,.84,3.86-1.71,4.53-3.57l.21-.55c4.24-11.36,4.28-11.36,16.89-11.36h21.83c30.08,0,61.17,0,91.76-.12,2.39,0,3.71.26,4.43,1s1,2,1,4.29V953c0,.54,1.36,13,7.33,14,5.5,2,10.39.47,13.43-4.25,1.47-2.28,3.25-2.79,5.74-2.72h12.1c26,.06,53,.11,79.44-.11h.12c5.27,0,5.57,3.25,5.89,6.71,0,.52.08,1,.15,1.53.69,5.19,2.52,8.81,6,11.75,4.47,3.8,9.9,5.19,14.89,3.83s9-5.39,10.91-11c.48-1.41,1-2.82,1.57-4.49l.52-1.46a10.75,10.75,0,0,1,1.66,4.21l.11.51A15.84,15.84,0,0,0,1406.67,984c7.46.62,13.4-3.14,16.28-10.31.24-.6.43-1.22.61-1.82.08-.29.16-.57.26-.84,1.39-4.37,2.31-7.25,3.35-7.52s3.26,1.79,6.39,4.65c8.75,8.05,19.13,14.94,31.77,21.08,2.5,1.23,4.94,2.7,7.31,4.13a77.7,77.7,0,0,0,9.11,5,17.65,17.65,0,0,0,7.15,1.45c3.87,0,7.63-1.09,11.32-2.14a53,53,0,0,1,8.48-1.94,67.91,67.91,0,0,0,11.48-2.69c1.68-.49,3.36-1,5.06-1.43l.24-.12a32.37,32.37,0,0,0,4.12-4.16,24.74,24.74,0,0,1,6.28-5.69l.32,5.59.43.15c2.86,1,5.77.82,8.57.64,1.07-.07,2.12-.16,3.26-.14q28.57,0,57.14,0c34.25,0,69.67,0,104.49.15,2.84,0,5.06-.26,6.41-1.61,1.17-1.17,1.65-3,1.64-6.09C1717.86,935,1717.85,887.53,1718.07,835.29Zm-99.21-253.68c-2.79-.58-7.55-.49-6.78-4.76.71-4,5.19-1.62,8-2.17,1.7-.33,4.29-1,4.38,2.29C1623.75,580,1622,582.27,1618.86,581.61Zm65.44,24.8c-9.6,0-19.23-.43-28.77.19-6.42.43-8.23-1.82-7.11-7.67.38-2,.43-4.07.63-6.1a11.7,11.7,0,0,1,0-6.81c-.23-13.95-.42-27.91-.74-41.86-.07-2.92,1-4.15,4-4.15q19.92.09,39.86,0c2.93,0,3.9,1.11,3.85,4.09-.23,14-.26,27.91-.37,41.86a21,21,0,0,1,0,8.35C1696.14,606.42,1696.14,606.41,1684.3,606.41ZM1696,504.07h0c0,8.46-.17,16.93.07,25.39.09,3.9-1.23,5.16-5.16,5.11-12.57-.19-25.16-.13-37.76,0-3.55.06-4.89-1.14-4.86-4.72q.22-26.08.11-52.17c0-3,1.27-3.46,3.68-3.44,13.27.06,26.55.18,39.83,0,3.3,0,4.29,1,4.21,4.33C1695.82,487.13,1696,495.6,1696,504.07Zm-59-40.8c.38-3.09,6-1.27,9.12-1.3,20-.19,39.92,0,59.89-.25,4.24-.05,5.45.9,5.37,5.21-.26,15.13-.1,30.28-.1,45.42h.19q0,22,0,44a47.13,47.13,0,0,1-.3,6.17,3.28,3.28,0,0,1-3.25,3c-2.47-.11-1.67-2.33-1.66-3.75.16-16.28.44-32.56.55-48.84q.15-20,0-39.93c-.08-6.44-1.94-7.13-8.14-6.18-17.67,2.7-35.43,3.26-53.13-.13a2,2,0,0,1-.63-.23C1642.15,465.13,1636.3,468.68,1636.94,463.27ZM1069.77,229.52c.55-3.16,3.86-1.42,5.76-1.23,31.67,3.06,63.26,6.79,94.66,12a1295.45,1295.45,0,0,1,249.12,67.23,1308.77,1308.77,0,0,1,194.06,92.77c4.29,2.49,8.87,4.79,11.33,11.77-12.77-7.35-23.93-13.92-35.21-20.26a1279.84,1279.84,0,0,0-255.78-108.61,1295,1295,0,0,0-191.36-42.36c-21.29-3.07-42.67-5.77-64.15-7.29a13.19,13.19,0,0,1-3.39-.53C1072.8,232.26,1069.26,232.48,1069.77,229.52Zm-763.22,171A1302.24,1302.24,0,0,1,486.71,313a1285.6,1285.6,0,0,1,213.48-63.46c45.31-9.29,90.95-16.62,137.13-20.17,3.42-.26,6.8-.91,10.22-1.23,1.21-.12,3-.57,3.17,1.44.14,1.64-1.23,2.35-2.63,2.61-2.94.54-5.87,1.11-8.83,1.41a1325.2,1325.2,0,0,0-138.48,20.65A1286.28,1286.28,0,0,0,377.2,367.15C351.27,380.29,325.65,394,301,409.46c-1.23.77-2.4,2.33-4.68,1.21C298,405.53,302.35,403,306.55,400.54Zm-17.48,74.09c6-3.62,6.05-9.66,6.56-15.57.32-3.55-1.4-7.19.43-10.67-.15-8.92-.24-17.83-.48-26.74-.1-3.33,2.5-4,4.57-5.25,45.47-28.07,93-52.21,141.83-73.8A1285.28,1285.28,0,0,1,719.66,256,1202.22,1202.22,0,0,1,842,238.91c6.41-.56,13.05-1.4,14.91-9.5.42-1.86,2.2-2.09,3.82-2.32,22.24-3,43.63-10.55,66.13-12,8.69-.56,17.4-.85,26.09-1.5h14.75c26,.24,51.47,4.71,76.66,10.92,3.12.76,6.23,1.78,9.39,2,5.48.4,9.69,1.28,12,7.62,1.53,4.23,7.19,4.46,11.49,4.82,76.14,6.46,150.9,20.45,224.5,40.76A1277.45,1277.45,0,0,1,1621,416.62c2.91,1.75,4.34,3.61,4.27,7-.11,6.4.07,12.81.13,19.23,0,6.58.22,13.17.09,19.75-.09,5,1.94,8.72,5.51,11.92,1.24,1.11,3.82,1.43,3.12,3.84-.65,2.19-3,1.86-4.66,2.12-2,.32-4.35,0-5-2.49a37.86,37.86,0,0,1-1.22-8c-.27-8.16.44-16.34-.68-24.47-2.33-8.37-7.43-14.31-14.95-18.76a1262.14,1262.14,0,0,0-374.22-147.9c-39.62-8.73-79.55-15.38-119.76-20.58a58.14,58.14,0,0,1-17.69-5.22c-40.67-19.28-83.39-30.08-128.53-30.48l-14.49-.17c-36.36.3-71.31,7.81-105.19,20.66a52.53,52.53,0,0,0-7.61,3.16c-22.34,13-47.62,13.75-72.18,17.51a1262.62,1262.62,0,0,0-334.2,99.87c-40.68,18.56-80,39.66-118.87,61.73-9.4,5.33-15.25,12.65-17.85,22.88,1.18,8.61,0,17.24,0,25.86a6.63,6.63,0,0,1-3.46,6.23c-2.73,1.5-5,.15-6.61-1.77C285.05,476.26,287.68,475.46,289.07,474.63Zm-17,70.9c-.58,13.49-.47,27-.63,40.53a22.46,22.46,0,0,1-.09,10.87c.93,9.58.93,9.53-8.08,9.51-10.94,0-21.91-.47-32.8.18-7,.42-8.47-2.24-7-8.21a43.92,43.92,0,0,1,0-12.49c-.14-13.76-.24-27.51-.46-41.25,0-3.32.72-5,4.59-4.94,12.85.22,25.7.2,38.54.1C270.2,539.79,272.27,540.52,272.06,545.53ZM272,529.17c0,3.58-.51,5.4-4.82,5.32-13-.25-26.08-.2-39.12.06-4,.09-5.17-1.17-5.05-5.06.28-8,.09-16,.09-24h0c0-7.78.15-15.56-.07-23.33-.1-3.58.37-5.36,4.74-5.25,13,.34,26.09.34,39.12.11,4.35-.07,5.26,1.34,5.19,5.51C271.74,498.06,271.85,513.62,272,529.17Zm7.19-63.08c-19.71.08-39.44.32-59.15,0-5.7-.11-7.62,1.69-7.58,7.2q.36,43.31.33,86.64c0,2,1.82,5.46-1.33,5.77-3.47.34-3.82-3.14-3.81-6V512.9h.07c0-15.36.13-30.72-.08-46.07,0-3.77.81-5.11,4.84-5.07,22.24.21,44.48.1,66.73.24,1.77,0,4.93-1.32,5.16,1.4C284.65,466.68,281.32,466.08,279.18,466.09ZM297.06,576.9c0-4,3.23-1.67,4.76-2.46,2.49,1,6.72-.91,6.59,3s-4.32,2.74-7,3.11S297,579.67,297.06,576.9Zm93.61,76.54c-7.27.51-14.6,0-21.9,0-20.79.07-41.57.09-62.34.3-3,0-3.94-.89-3.91-3.84q.14-27.08,0-54.13c0-2.77.66-4.12,3.75-4.31,6.28-.38,10.39-4.12,13.07-9.59.62-13.41-3.81-18.15-17.37-18.47a74.21,74.21,0,0,0-12.3.22c-5.62.8-7.62-.67-7.21-6.74.76-11.36.65-22.78.91-34.17a328.36,328.36,0,0,1-.15-34.37c0-.5-.05-1-.08-1.48-.61-1.05-.74-2.9.55-2.4,5.57,2.22,10.68,3.78,15.73-1.28,4.58-4.57,2.61-10.31,3.47-15.55-3-18.91,3.63-31.12,21.14-41.22A1289.29,1289.29,0,0,1,659.27,291a1199.63,1199.63,0,0,1,149.78-27.17c7.65-.9,14.52-3.94,21.35-7.16,38.6-18.3,79.27-27.65,122-28.74h15.73c40.07,1,78.69,8.95,114.93,25.95,15.73,7.38,32,10.54,48.77,12.69a1170.76,1170.76,0,0,1,143.91,28.18,1260.2,1260.2,0,0,1,292.39,116.16c11.84,6.49,23.49,13.32,35.23,20,9.74,5.54,15.56,13.26,14.5,25.08-.34,3.87-.27,7.79-.38,11.67a86.91,86.91,0,0,0,.52,8.87c1.24,7.9,7.23,11.55,15,9.36,2.14-.6,5-3,4.94,1.95l-.66,45.85q.3,14.29.63,28.6c.07,3.14-1.5,3-4,2.42-6.69-1.72-13.54-1.5-20.35-.84-11,1.05-16.15,12.26-10.33,22,3.06,3.24,6.39,6,11.22,5.51,3.54-.35,3.49,1.71,3.48,4.23-.11,17.62-.32,35.26-.08,52.89,0,4.32-1,5.22-5.28,5.19-27.71-.2-55.43.07-83.13-.15a47.63,47.63,0,0,0-19.23,3.84c-7.55,3.12-13.34,8.46-18.77,14.43-11.5,12.63-23.57,24.68-37.44,34.78-27.21,23.34-58.09,40.54-91.07,54.1-15.2,6.24-30.69,11.75-46.87,15.1l-4.14,1.15-5.14,1.16c-54.43,12.11-108.73,12.07-162.88-1.74-19.81-3.48-39.29-8.65-59.19-11.83a783.62,783.62,0,0,0-114.94-10H953.65a739.72,739.72,0,0,0-170.73,20.9,5.22,5.22,0,0,1-.69,0c-40.06,10.15-80.68,14-121.89,10.08-29-2.73-57.48-8-84.76-18.66-29.19-8.92-55.87-23-81.32-39.54-5.33-3.47-10.37-7.38-15.54-11.09A302.71,302.71,0,0,1,431.11,674c-4.32-4.69-8.44-9.69-13.95-13.07C409.06,656,400.53,652.75,390.67,653.44ZM783.61,789.78q-222.49,48.81-376-119.89c-1.62-1.78-4.69-4-2.79-6.23s5.12-.48,7.57.88c4.48,2.5,7.88,6.26,11.29,10,51,55.7,113.55,91.7,187.1,108.67,59.67,13.78,118.91,11.12,178.14-3.57,45.6-11.31,92.11-16.84,139.08-19.1a716.8,716.8,0,0,1,96.23,2,769.72,769.72,0,0,1,117.71,19.35c39.72,9.74,80,13.14,120.74,8.94,80.37-8.28,151-39,211.13-93.23,9.73-8.78,18.57-18.37,27.57-27.86,2.86-3,6-5.63,10.19-6.62,1.52-.36,3.57-.91,4.53.51s-.42,3-1.49,4.18c-7.38,8.16-14.42,16.69-22.27,24.35-49.22,48-106.84,81.37-173.73,98.17-10,2.51-20.11,4.52-30.26,6.16a356.85,356.85,0,0,1-63.23,4.45c-31.52.92-65-5.32-98.37-13.13a734.46,734.46,0,0,0-177.88-19.1C892.93,769.43,838.13,777.82,783.61,789.78Zm298.94,125.71-.37,1.57-6.6,22.62c-.63,1.75-2,1.67-4.25,1.38a14.44,14.44,0,0,0-1.84-.16l-86.18,0H946a3.6,3.6,0,0,1-3.61-3.61V779.76l11.93-.55,11.64.24,9.12.23V899.36a8.19,8.19,0,0,0,8.18,8.19h.08l92,0h.62c4.21,0,6.79,0,7.48.87S1083.49,911.62,1082.55,915.49Zm149.84,24.28c-.8.92-2.46,1.36-5.21,1.33-18.87-.15-38-.19-56.83-.19q-13.89,0-27.57,0c-10.37,0-20.76,0-31.15,0q-3.14,0-6.28,0c-1,0-1.61-.11-1.88-.4s-.38-.95-.29-2l7.49-26.18c.58-3.57,2.27-4.91,6.24-4.91h0c39.45.11,78.86,0,112.19-.16a4.1,4.1,0,0,1,2.95.73,4,4,0,0,1,.75,2.89c0,2.62-.13,5.28-.25,7.85-.26,5.32-.54,10.82.33,16.24C1233.31,937.38,1233.14,938.9,1232.39,939.77Zm16.34-16.44h-.08v9.55c0,7.56,0,15.11,0,22.66,0,1.71-.11,3.42-1.05,4.35a3.94,3.94,0,0,1-3,.89c-3.44,0-4.93-1.67-5-5.46l0-4.41c0-3.1-.07-6.2-.05-9.3v-7.34c0-13.31,0-27.08.12-40.62v-.16c0-3.36,0-6.25,4.42-6.43h.42a4.09,4.09,0,0,1,3,.91c1.15,1.09,1.16,3.18,1.18,5.21q0,11.1,0,22.19ZM1383,969.23c-2,5.75-4.92,8.16-9.6,8-5-.15-6.86-3.86-8.09-7.84l-.66-2.08a61.52,61.52,0,0,1-2.11-7.74c-.84-4.8-3.19-6.68-8.34-6.68h-.2c-17.92.16-36.14.17-53.78.19q-19.56,0-39.13.09c-2.55,0-4.12-.15-4.92-1.07-.66-.73-.84-2.07-.59-4.09l-.11-47.1c-.17-2.47.09-3.87.86-4.68s2.3-1.22,4.83-1.19c19.23.26,38.75.29,57.81.29h26.69c13.72,0,14.12-.41,18.58-13.5.3-.84.61-1.69.94-2.53l.08-.22c1.71-4.33,3.32-8.42,8.84-8.42h.13c5.24.05,6.73,3.64,8.45,7.8l.46,1.07c4,9.52,4,19.67,3.95,29.49,0,3.38,0,6.86.11,10.29l0,20.45A80.21,80.21,0,0,1,1383,969.23Zm33.55.76c-2,4.66-3.83,7-8.56,7.14s-6.72-2.4-8.6-7c-5.56-13.79-5.93-28-5.55-40.09l.06-8.72c0-1.47,0-2.93,0-4.4-.09-13-.17-26.55,5.67-39,2-4.19,3.73-7.18,8.36-7.18a1.46,1.46,0,0,1,.29,0c4.76.12,6.8,3.11,8.39,7.56,2.93,8.24,6.26,17.58,5.81,27.65-.26,6-.15,12,0,17.89C1422.62,939.15,1422.91,955,1416.55,970Zm109.61,10.83.25-98.75c0-.22,0-.44,0-.66a14.47,14.47,0,0,0,0-1.47,17.61,17.61,0,0,1,0-1.82c0-1.72.06-3.5-1-4.55a3.15,3.15,0,0,0-2.41-.78c-3.36.12-3.32,4.15-3.31,6.8l0,.76,0,4.63c0,11.12-.08,22.62.22,33.92.07,2.59-.24,4-1,4.72s-2.1.88-4.23.61a63.32,63.32,0,0,0-15.25-.35c-2.47.31-4,.07-4.92-.74-1.1-1-1.3-3-1.24-5.79.25-12.59.19-25.4.12-37.78,0-4.38,0-8.76,0-13.14a39.43,39.43,0,0,0-.29-5.57c-.25-1.8-1.61-2.76-3.79-2.6a2.76,2.76,0,0,0-2.67,3c-.07,1.78-.09,3.36-.09,4.83,0,4.71,0,9.44-.06,14.16,0,12.28-.11,25,.21,37.45.07,2.74-.32,4.36-1.23,5.25s-2.53,1.18-5.4,1a155.09,155.09,0,0,0-22.77.15c-1.6.12-2.62,0-3.13-.51s-.69-1.61-.67-3.29c.09-12.84.09-23.55,0-33.73,0-.4,0-.84,0-1.3.11-1.62.22-3.45-.81-4.58a3,3,0,0,0-2.31-.92,3.61,3.61,0,0,0-2.77.94c-1.24,1.24-1.19,3.33-1.13,5.18,0,.33,0,.66,0,1q0,16.46,0,32.9,0,19.66,0,39.39c0,2.32,0,5.83,3.53,6a3.09,3.09,0,0,0,2.47-.79c1-1,.9-2.58.84-4q0-.54,0-1c.11-9.23.23-18.78.07-28.23,0-1.94.2-3,.81-3.58s1.68-.8,3.46-.71c8.79.44,17.51.22,24.13,0,1.92-.07,3.13.2,3.8.87s1,1.88,1,3.91c-.15,12-.11,24.19-.07,36,0,4.06,0,8.11,0,12.18v.93a36.3,36.3,0,0,0,.18,4.65c.26,2,1.45,3.23,3.11,3.23h.21a3.37,3.37,0,0,0,3.2-3.39c.12-2.51.12-5,.12-7.52v-.76q0-6.07,0-12.16c.06-10.46.11-21.26-.22-31.88-.08-2.6.29-4.2,1.16-5s2.41-1.1,5-.88a90.16,90.16,0,0,0,15.93-.12c2-.2,3.17,0,3.77.55s.9,1.75.86,3.8c-.14,7-.11,14.08-.09,20.94s0,14-.09,21c-.09,3.72.49,7.37,4.86,9.23-9.89,6.88-21.53,8.2-32.81,9.47q-2.82.3-5.62.66c-4.55-2.61-9.22-5.1-13.75-7.52-10.4-5.57-21.16-11.33-30.89-18.63-10.44-7.82-14.19-16.76-12.55-29.89l0-37.09,0-.36c-.29-3.91,1.31-6.36,4.38-9.49,10.87-11.13,24.51-18.48,37.69-25.59,4.39-2.36,8.9-4.8,13.27-7.34,2.26-1.33,4.85-1.6,8.16-.84l4.93,1.1c6.5,1.44,13.22,2.95,19.77,4.64,7.56,2,18.88,13.69,18.94,19.63l.29,78.38C1537.29,968.6,1534.07,975.43,1526.16,980.82Zm184.21-.66c-.71.73-2,1-4.66,1-49.51-.13-101.7,0-159.58.25-1.43,0-2.31-.19-2.74-.62s-.55-1.56-.55-3c0-49.93,0-103.54-.14-157.47,0-1.6.25-2.59.79-3.13s1.36-.7,2.86-.7h.38c5.93.12,12,.15,17.81.16l11.07.06c1.71,0,3.13,0,4.26-.07,2-.07,3.17-.11,3.61.3s.51,2.27.48,5.19c0,.84,0,1.79,0,2.87v.33a3.54,3.54,0,0,1,0,.88c-.68,2.88-.5,4.84.55,6.16s3.17,2,6.61,2h.18c17.45-.11,35.2-.11,52.35-.11,20,0,40.76,0,61.13-.15,2.83,0,4.37.33,5.24,1.2s1.18,2.37,1.16,5.24l.09,135C1711.3,978.1,1711,979.46,1710.37,980.16Z"/><path class="cls-2" d="M1637.87,487.77c.06-5-2.8-2.55-4.94-1.95-7.74,2.19-13.73-1.46-15-9.36a86.91,86.91,0,0,1-.52-8.87c.11-3.88,0-7.8.38-11.67,1.06-11.82-4.76-19.54-14.5-25.08-11.74-6.67-23.39-13.5-35.23-20A1260.2,1260.2,0,0,0,1275.7,294.69a1170.76,1170.76,0,0,0-143.91-28.18c-16.78-2.15-33-5.31-48.77-12.69-36.24-17-74.86-25-114.93-25.95H952.36c-42.69,1.09-83.36,10.44-122,28.74-6.83,3.22-13.7,6.26-21.35,7.16A1199.63,1199.63,0,0,0,659.27,291,1289.29,1289.29,0,0,0,324,426.37c-17.51,10.1-24.15,22.31-21.14,41.22-.86,5.24,1.11,11-3.47,15.55-5.05,5.06-10.16,3.5-15.73,1.28-1.29-.5-1.16,1.35-.55,2.4,0,.5.05,1,.08,1.48a328.36,328.36,0,0,0,.15,34.37c-.26,11.39-.15,22.81-.91,34.17-.41,6.07,1.59,7.54,7.21,6.74a74.21,74.21,0,0,1,12.3-.22c13.56.32,18,5.06,17.37,18.47-2.68,5.47-6.79,9.21-13.07,9.59-3.09.19-3.76,1.54-3.75,4.31q.11,27.07,0,54.13c0,2.95.87,3.87,3.91,3.84,20.77-.21,41.55-.23,62.34-.3,7.3,0,14.63.55,21.9,0,9.86-.69,18.39,2.59,26.49,7.52,5.51,3.38,9.63,8.38,13.95,13.07a302.71,302.71,0,0,0,47.61,42.13c5.17,3.71,10.21,7.62,15.54,11.09,25.45,16.56,52.13,30.62,81.32,39.54,27.28,10.66,55.76,15.93,84.76,18.66,41.21,3.87,81.83.07,121.89-10.08a5.22,5.22,0,0,0,.69,0,739.72,739.72,0,0,1,170.73-20.9h16.08a783.62,783.62,0,0,1,114.94,10c19.9,3.18,39.38,8.35,59.19,11.83,54.15,13.81,108.45,13.85,162.88,1.74l5.14-1.16,4.14-1.15c16.18-3.35,31.67-8.86,46.87-15.1,33-13.56,63.86-30.76,91.07-54.1,13.87-10.1,25.94-22.15,37.44-34.78,5.43-6,11.22-11.31,18.77-14.43a47.63,47.63,0,0,1,19.23-3.84c27.7.22,55.42-.05,83.13.15,4.26,0,5.33-.87,5.28-5.19-.24-17.63,0-35.27.08-52.89,0-2.52.06-4.58-3.48-4.23-4.83.51-8.16-2.27-11.22-5.51-5.82-9.75-.62-21,10.33-22,6.81-.66,13.66-.88,20.35.84,2.47.63,4,.72,4-2.42q-.33-14.31-.63-28.6ZM535.08,477A51.08,51.08,0,1,1,586.16,426,51.15,51.15,0,0,1,535.08,477Zm424.31,52.62a56.07,56.07,0,1,1,56.08-56.06A56.13,56.13,0,0,1,959.39,529.66ZM1383.7,477A51.08,51.08,0,1,1,1434.78,426,51.14,51.14,0,0,1,1383.7,477Z"/><path class="cls-1" d="M1630.81,882.7h-28.43a5.49,5.49,0,0,0-5.49,5.49v72.34a5.49,5.49,0,0,0,5.49,5.49h28.43a5.5,5.5,0,0,0,5.5-5.49V888.19A5.5,5.5,0,0,0,1630.81,882.7Zm-1.39,76.44h-25.64V889.59h25.64Z"/><rect class="cls-2" x="1919" y="1079" width="1" height="1"/><rect class="cls-2" width="1" height="1"/><rect class="cls-2" y="1079" width="1" height="1"/><rect class="cls-2" x="1919" width="1" height="1"/></g><g id="Capa_3" data-name="Capa 3"><path d="M798.38,580.75v111H778.55V621L759,636l-16.18,12.53L726.68,636,707.17,621v70.74H687.34v-111L707.17,596l35.69,27.44L778.55,596Z"/><path d="M852.3,617.71v75.5H832.47V615.64A15.81,15.81,0,0,0,819,602.16h-4.44V582.49h4.28v.16a35.55,35.55,0,0,1,13.48,3.65,35.17,35.17,0,0,1,16,16.18,42.55,42.55,0,0,1,2.7,7.45,33.53,33.53,0,0,1,1,8.09Z"/><path d="M978.71,580.75v111H958.88V646.1H900.36a31.39,31.39,0,0,1-14.91-3.65,32.4,32.4,0,0,1-17.77-29V580.75h19.83v32.67a13.07,13.07,0,0,0,13,13H959V580.75Z"/><path d="M1096.71,636.42a32.75,32.75,0,0,1-23.47,55.52h-45.52a32.59,32.59,0,0,1-30.14-20A34.22,34.22,0,0,1,995,659.11a32.67,32.67,0,0,1,9.2-22.85,31.13,31.13,0,0,1-6.82-10,34.46,34.46,0,0,1-2.54-12.85,32.21,32.21,0,0,1,32-32.83h46.48a32.87,32.87,0,0,1,23,55.67Zm-24.26-9.67a12.94,12.94,0,0,0,.47-25.86h-46.79a12.94,12.94,0,0,0,.32,25.86h46Zm.16,45.52a13.07,13.07,0,0,0,13-13,12.92,12.92,0,0,0-12.21-13h-46.48a12.88,12.88,0,0,0-12.21,12.85,13.07,13.07,0,0,0,13,13h45.52Z"/><path d="M1229.79,646.73a31.69,31.69,0,0,1,2.69,12.85,32.63,32.63,0,0,1-32.67,32.68h-78.2V672.43h78.2a12.93,12.93,0,0,0,12.85-13,12.77,12.77,0,0,0-11.42-12.84h-79.63V581.23h101.67v19.82h-81.84v25.7h59.64a32.14,32.14,0,0,1,28.86,19.83Z"/></g></g></svg>