<svg xmlns="http://www.w3.org/2000/svg" viewBox="0 0 1920 1080"><defs><style>.cls-1{fill:#f2f2f2;}.cls-2{fill:#010001;}</style></defs><g id="Capa_2" data-name="Capa 2"><g id="Capa_1-2" data-name="Capa 1"><rect class="cls-1" x="1919" y="1079" width="1" height="1"/><path class="cls-2" d="M1707.25,549.15c0-2.88-9.88-32.3-9.88-32.3-2.92-7-5.58-14-8.41-21-8.24-20.36-13.35-23.81-35.17-23.81-36.42,0-72.84.09-109.28,0-12.5,0-13.83-1.38-13.93-14.1-.2-22.42.05-44.83-.22-67.24-.75-64.26-43.79-119.2-105.93-136.22C1367.37,238.81,1309,230,1250.71,221.2c-67-10.13-134.78-13.68-202.37-18.46-17-1.19-26.36,1.8-29.67,19.25-.46,2.39-1.28,5.55-4.44,5.23-3.86-.39-2.48-4-2.21-6.07,1.08-8.11-2.71-10.18-10.09-9.83l-82.4-.2c-7.74-.54-11.84,1.18-10.91,9.76.23,2.22,1.11,5.72-2.38,6.22-3.81.56-4.34-3-4.71-5.68-1.11-7.78-5.33-13.07-12-16.89-5.36-3.08-10.93-1.05-16.38-1.05-36.2,0-116.63,7.54-116.63,7.54-18.34,2-36.66,4.17-55,6.14-34.52,3.67-68.67,9.71-102.85,15.6s-68.15,12.54-101.73,21.46c-62.1,16.49-105.81,71.14-107,135.44-.42,22.69-.11,45.38-.25,68.07C389.63,470.6,388.15,472,375,472c-35.86,0-71.73,0-107.59.12-23.17.08-27.49,3.15-36.32,24.65-4.16,10.11-8.18,20.28-14.22,30-3.88,6.79-4.77,35-4.77,35a116.49,116.49,0,0,0,4,42.09c5.65,14.82,11.18,29.69,17,44.44,3.69,9.3,10.26,15.14,20.78,15.51,5.31.19,10.61.52,15.91.52,29.64,0,59.3,0,88.94,0,3.9,0,7.87-.25,11.4,1.92q19.23,11.79,38.46,23.59c11.15,6.3,22.29,12.66,33.46,18.92,2.15,1.21,3.43,2.78,3.48,5.27,0,.84.09,1.68.09,2.5-.07,8.68,2.82,19.13-1,25.52-4,6.6-15.39,3.08-23.53,3.69-6.5.48-6,4.12-5.71,8.52l8.09,117.93c0,5.15,2.8,5.8,7.15,5.3,28.28-3.2,57-2,84.87-9.49,8.4-2.26,17.19-1.57,25.82-.32,30.43-2,60.92-.42,91.38-1,11.47-.22,14.43-2.55,18.25-13.44.66-1.9.81-4.37,3.52-5,2.44,11.67,2.44,11.66,14.92,11.71q36.89.12,73.8.28a80.38,80.38,0,0,1,9.17-.22c6,.53,9.87-1,8.88-8.05-.45-3.17.82-4.39,4.22-4.38l388.71-.27c4.27-.06,5.42,1.59,5,5.47-.63,6,2.67,7.32,8.14,7.27,28.29-.2,56.57-.1,84.86-.09,11.75,0,11.75,0,12.87-11.91,4.07.66,3.74,4.18,4.65,6.8,2.64,7.72,7.65,12,16.2,11.91,31.37-.13,62.76.64,94.1-.3,49.25-1.5,92.5-45,94.41-94.34.67-17.33.63-34.72.2-52.07-.19-7.35,2.12-11.79,9.18-13.66q32.29-19.47,64.55-39c4.05-2.47,8.34-3,12.88-2.94q14.67.18,29.34.32c23.12-.12,46.25,0,69.38-.44,17.56-.34,23.62-5.06,29.77-21.4,4.68-12.46,9.44-24.9,14.17-37.36C1710.39,587,1708.06,568,1707.25,549.15ZM1017,239.74c8.28,1,11.31-4.07,13.46-10.8,4.42-13.78,4.56-13.93,18.94-12.86,62.78,4.65,125.73,7.73,188.09,16.84s125.16,17.63,186,35.35c43.26,12.58,72,41.45,87.51,83.55.15.44-.15,1.06-.44,2.71-9.45-2.3-18.84-4.57-28.23-6.93-2.87-.72-3.36-3.43-4.37-5.7-2.37-5.37-4.7-10.77-7.29-16-1.19-2.44-2.81-5.66-6.27-3.69-3.23,1.85-.66,4.43.28,6.53,2.16,4.79,4.46,9.52,7,14.94-8.36,1.14-15-2.29-21.83-4-61.07-15-122.29-29.29-184.51-38.85-50.94-7.82-102.2-12.68-153.6-16.13-29.64-2-59.29-3.83-89-3.61-8.32.05-10.63-3.23-10.8-10.74-.25-10.86-.57-11.07,10.08-10.86,7.82.13,15-1,21.15-6.35,2-1.76,4-3.78,2.38-6.24-1.51-2.23-3.7.14-5,1.08-7.15,5-15.23,4.64-23.37,5-5.84.25-5.28-3.35-5.6-6.94C1011.2,242,1012.44,239.21,1017,239.74Zm338,94.89c-.63,13.41.07,10.9-11,8.71-95.59-18.95-191.83-32.5-289.41-34.75-13-.3-23.92-4.9-32.49-14.82-1.43-1.63-3.88-3.15-2.65-5.59,1.07-2.13,3.51-.69,5.35-.7h18.45c52.85,2.4,105.54,6.22,158.15,11.84,48.09,5.13,95.58,13.54,143,22.54C1352.59,323.39,1355.36,326.35,1355,334.63ZM410.61,348.19C427,308,455.34,280.73,497.23,268c36.18-11,73.45-16.91,110.55-23.45,41.84-7.37,83.81-13.86,126.12-17.81,24.49-2.29,49.05-4,73.6-5.84,23.06-1.75,46.14-3.18,69.17-5.17,7.22-.62,10.58,1.74,12,8.94,1.78,8.81,4.83,16.8,16.94,15.15,4.67-.62,3.16,4.19,3.23,7,.07,3,.62,6.32-4.41,6.1-8.31-.37-16.86.88-24-5.15-1.55-1.29-4.22-3.07-5.94-.77-1.61,2.15.57,4.17,2.24,5.62,6.19,5.45,13.37,8,21.87,6.44,3.14,2.41,10.14-4,10.44,5.07.44,13.4-1.53,16.57-11.23,16.68-63.32.79-126.37,5.74-189.27,12.69-75.13,8.32-148.79,24.41-222.12,42.22-10.83,2.64-21.65,5.43-32.47,8.16-1.55.39-3.26,1.87-4.57.12-1.15-1.55.22-3.08.94-4.58,2.07-4.25,3.94-8.61,6-12.88.77-1.64,1.38-3.28-.39-4.43s-3.09.1-4.29,1.4c-4.69,5.13-6.27,11.76-8.74,18-.91,2.27-1,5.08-4,5.87-8.65,2.21-17.21,4.83-26,6.45C406.39,355,409.75,350.27,410.61,348.19Zm155.07-12.25c-2.84-9.55,1.16-12.13,8.9-13.74a1613.4,1613.4,0,0,1,193.13-27.67c42.95-3.64,86-5.74,129-7.15,1.6-.05,3.51-1.06,4.54.79,1.21,2.25-1,3.58-2.12,4.94-8.14,9.83-18.74,14.59-31.42,15.29-28.5,1.57-57,2.16-85.51,4.63-52.94,4.61-105.49,12.11-157.82,21.25-17.87,3.13-35.62,6.89-53.4,10.46C559.42,347.08,567.71,337.54,565.68,335.94ZM257.06,490.44q-.21,54.16-.47,108.37c.1,15.05.25,30.12.22,45.2,0,1.91,1.17,4.76-2.12,5.48-2.91.66-5.59.24-7.29-2.61a23,23,0,0,1-2-3.66q-7.48-20.34-14.94-40.7c-1.16-3.11-3.18-6.15-3.38-9.32-1.46-23.11-4.42-46.29,7.07-68.24,4.91-9.36,8.12-19.6,12.09-29.46,1.16-2.84,2.27-5.72,4.71-7.82,1.33-1.15,2.8-2.14,4.51-1.55C257.58,486.84,257.08,488.86,257.06,490.44Zm15.11,160.62c-4.93,1-8.95,1.16-8.8-6.52.47-25.46.17-50.93.17-76.4h.16c0-25.18,0-50.37-.05-75.57,0-4.42-.5-8.1,6.21-7.92s5.12,4,5.13,7.86q.11,75.12.24,150.27C275.23,645.77,277.14,650.1,272.17,651.06ZM457.73,867.35c-7.64,1.18-15.27,2.39-22.93,3.55-2.35.36-4.57.21-4.69-3l-7.92-108.3c-.46-5.47,1-7.32,6.57-7.62q21.81-1.21,43.52-3.63c5.2-.57,7.54-.2,7.76,5.85.3,7.79,1.63,15.56,2.91,23.28.48,3,.12,7.81,5.06,7,4.53-.75,2.52-4.78,2.14-7.58-1.1-8-2.16-16.07-3.6-24-.73-4,.17-5.86,4.49-5.59q31.44,2,62.88,3.79c3.46.18,5.27,1.36,4.61,5.06a4.69,4.69,0,0,0,0,.84c0,4.74,1.76,10.67-.44,13.93-2.95,4.41-8.45-1.26-13-.57-2.76.42-5.64,0-8.38.42-13.49,2.32-16.27,6.37-14.57,20a218.92,218.92,0,0,1,2,23.4c.18,10.11.54,19.56,15.24,19.93-5.47,4.56-10.57,3-15.39,3.33-2.27.14-4.9.05-4.65,3.32.24,2.87,2.83,2.1,4.6,2.24a68.67,68.67,0,0,0,27.26-3.34c1.06-.35,2.88-.58,3-1.17,1.31-6.18,7.55-7.81,10.93-12.08,11.89-15,12.62-30,2-46.19-5-7.61-1.34-17-2-25.56-.12-1.7,1-2.59,2.62-2.45,7.18.57,14.86-.21,20.56,5.48,16.52,16.5,22.52,36,16.53,58.91-1,3.72-3.11,5.49-7,6-6.89,1-13.74,2.37-20.59,3.77-2.59.52-6.12.67-5.45,4.78s4,2.12,6.06,1.76c6.78-1.23,13.49-2.87,21.77-4.69-2.75,8-7.46,12.89-14.66,14.67ZM558.55,816c1,6.36-2.17,9-8,10.4-14.1,3.33-18.44.67-19.85-13.27-.91-9.16-1.46-18.36-2-27.54a8,8,0,0,1,.85-4.75c4.13-5.9,25.27-4.69,28.11,2,1.57,3.67,4.18,5.2,6.58,7.65,5.33,5.47,4.7,12.65,3.16,21.18a21.53,21.53,0,0,1-2.3-2.92c-.86-2-1.13-5.19-3.73-4.78-3,.45-2.38,3.83-2.66,6.16A21.53,21.53,0,0,0,558.55,816Zm88.31,19.95c-5.31.74-6.84,6.87-7.87,11.9-.69,3.43-2.07,5.55-6,5.53-18.1-.08-36.2,0-54.39,0,.21-.32.46-1.38,1-1.5,24.45-5.75,31.61-24.26,34-46.16,2-18.23-4.27-34-15-48.31-8.24-9.22-18.88-11.66-30.8-12.13-24.56-1-49.11-2.54-73.62-4.29-9.58-.69-19,.22-28.41,1.33-5.94.69-7-1.47-6.86-6.78.23-10.6-.22-21.21-.39-31.83-14.8-9-30.45-16.82-44.24-27.13-27.72-20.76-57.89-29.93-92.44-25.71-11.32,1.4-23,.17-34.43.42-3.91.09-5.54-1-5.51-5.08.29-31.35.41-62.73.58-94.08a10.26,10.26,0,0,1,0-6.7c-.14-18.47-.21-36.94-.49-55.39-.07-4.28,1.88-5.24,5.63-5,4.46.29,8.94.25,13.41.35l64,.07c5.31-.15,10.63-.22,15.94-.44,14-.57,21.57-8.21,21.82-22.17.47-26-.59-52.08.62-78.12,1-22,.76-22.36,22.23-26.85,5-1,10.76-6.61,16.11,0a2.38,2.38,0,0,0,2.22-.24c5.32-9.23,15.41-8,23.57-10.13,28.11-7.2,56.46-13.44,84.68-20.18,5-1.2,6.9-.57,6.61,5.38-.7,14.49-.4,14.33-14.6,17.66q-32.19,7.58-64.31,15.57c-11.17,2.77-22.09,6.45-31.24,13.74-4.42,3.51-6.68,4.32-6.36-2.63.09-1.95.31-4.59-2-4.92-3.06-.42-3.7,2.72-3.3,4.66,2.54,12.12-5.9,20.13-10.58,29.62a75.64,75.64,0,0,0-7.64,34q.11,68.06-.1,136.09c0,3.08-.18,6.16-.28,9.22,0,5.64,0,11.25.05,16.87.11,7.83.13,15.65.35,23.47.35,13,5.06,24.06,15.88,31.64,14.15,9.91,28.63,19.33,43,29,19.74,16,43.24,11.68,65.83,12.08,15.19.27,15.19.14,15.16,15.41,0,4.21-.24,8.41,0,12.58.18,2.71-1.65,7.07,3.06,7.32,5.16.27,3.14-4.29,3.24-6.86.31-7.54.24-15.11.22-22.64,0-2.86.15-5,4.09-4,22.22,5.92,40.14,17.63,51.83,37.9,10.78,17,17.26,36.1,26.11,54,8,16.23,7.64,16.38-9.78,20.43-3.24.76-6.42,1.79-9.6,2.78-1.9.61-4.11,1.53-3.67,3.85.56,2.83,3.08,2.78,5.37,2.26,6.79-1.53,13.66-2.88,20.32-4.83,4.57-1.33,6-.25,5.9,4.49C655.44,828,656.8,834.53,646.86,835.91Zm507.26-1.59H765.93c-4.44.06-5-1.92-4.59-5.69,1.07-10,8.29-17.31,19.06-17.44,24.59-.27,49.19,0,73.76,0,3.92-.11,7.84-.19,11.76-.29,13.32-.3,20-7.1,20.2-20.3.21-11.75-.82-23.54,1.28-35.21,4.76-26.36,19.4-45.17,43.29-57.2,5.77-3.13,16.43-5.84,29.28-5.84s25.37,4.82,25.37,4.82c26.5,8.37,47.69,37.42,48.57,66.46.27,9,0,17.92.22,26.86.27,13.78,7,20.28,21,20.41,6.44,0,12.87.17,19.29.27,21.27-.09,42.53-.37,63.79-.19,11.91.1,19.89,7.42,20.73,17.78C1159.23,832.53,1158.53,834.5,1154.12,834.32Zm104.14,2.49c0,16.21.19,16.2-16.33,16.21-23.25,0-46.5-.12-69.74.22-5.15.07-7-1.18-6.68-6.46a167.23,167.23,0,0,0,0-17.63c-.47-12.5-7.49-21-19.78-23.6a64.57,64.57,0,0,0-12.5-1.19c-20.71-.22-41.43-.29-62.16-.41-5.58.09-11.19.29-16.77.22-9-.13-12.79-3.48-13.32-12.48-.46-7.54-.29-15.12-.17-22.68.4-26.61-9.94-48.29-29.83-65.67-11.37-9.46-31.61-17.24-50.45-17.24s-31,5.31-31,5.31c-32.07,14.84-48.57,40-49.93,75.15-.31,7.82.42,15.67,0,23.48-.59,10.75-4.54,14.13-15.38,14.16-4.47,0-9-.16-13.42-.27q-32.25.18-64.52.34c-22.4.15-31.5,9.15-31.86,31.46,0,3.35-.43,6.78.09,10,1.11,7-2.16,8.31-8,6.93-26.24.12-52.49.1-78.73.44-4.94.07-6.52-1.63-5.85-6.27,4.15-28.42-4.73-53.75-18-78.24-6.34-11.71-11.41-24.09-17-36.17-20.68-29.37-49.43-41.86-84.79-40.63-5.83.2-11.67-.18-17.51-.3-15.2,1.9-29.27-.4-41.85-10.06-3.5-2.68-5-5.08-5.4-9.39-.74-8.86-2.21-17.68-3.5-26.49-.37-2.48-1-5.59-4.26-5.08-2.67.42-2.64,3.36-2.37,5.58,1,8.23,2.17,16.45,3.28,24.75-24.93-4.8-45-28.6-45-53.26,0-5,.2-10,.3-15.06q0-53,0-106c-.05-23.5-1.91-47,1.19-70.45,1.11-8.46,3.94-16.57,9.39-23.43,1.11.65,1.76.8,1.91,1.17,1.2,2.88.21,8.38,4.6,7.64,4.79-.82,3.19-6.41,2.2-9.25-2.84-8.09,1.11-12.48,6.9-16.87,14.58-11.09,32.3-13.53,49.2-18,16.72-4.45,33.5-9.32,50.57-11.48,7-.89,13.14-1.7,19.78-4.49,7.81-3.3,16.81-3.8,25.32-5.36,8.24-1.52,16.54-2.81,24.78-4.28,8.53-1.53,17-3.26,25.57-4.67,8.26-1.38,16.59-2.43,24.88-3.74a1506.29,1506.29,0,0,1,192.93-18c31.07-.89,50.17-20.89,50.75-52,.16-8.4.11-16.81,0-25.22-.29-19.7-.32-19.7,19.14-19.6l64-.28c5.2-.42,6.78.94,6.63,6.27-.4,14-.22,28-.22,42,0,26.85,19.55,47.63,46.41,48.64,50.94,1.91,101.78,4.81,152.31,11.77,48.16,6.63,96.14,14.4,143.85,23.79,4.76.94,6.11,4.49,8.9,7.28s3.5-5.2,9.13-3.65c26.9,7.39,54.12,13.58,81.17,20.39,6.53,1.65,12.41,4.95,18.1,8.6,7.67,4.93,13.71,10.48,11.09,21-.56,2.17-2.33,6.35,1.64,7.07s3.52-3.38,4.21-5.95a18,18,0,0,1,1.83-3.13c6.55,9.57,10.43,19.69,10.58,30.38.48,34.72.09,69.46,0,104.18,0,30.48.17,60.94.07,91.41a26.79,26.79,0,0,1-7.34,18.3c-10.16,11-24.15,16.5-35.44,25.94-.57-.42-1.14-.82-1.72-1.23.83-8.74,1.64-17.49,2.51-26.22.42-4.18-.57-6.68-5.45-5.22-1.33,10.8-2.79,21.58-3.89,32.42-.43,4.25-2.25,6.86-5.8,9.39a53.29,53.29,0,0,1-33.73,10.37c-15.37-.42-30.82-.94-46.16,1-30.58,3.84-53.32,19.61-67.45,46.7-9.83,18.81-17.55,38.67-27.07,57.63C1256.63,810.21,1258.26,823.52,1258.26,836.81Zm380.81-194.45c0,7-2,9.07-9,8.83-17.63-.61-35.29-.42-52.92-.57a2.48,2.48,0,0,1-.83.18c-21.39-3.14-38.84,6-55.95,17.25-12,8-24.93,14.66-37.43,21.93-.62.54-1.14,1.35-1.85,1.58-18.13,6.16-20.77,19.55-19.88,36.88,1,20,2.17,40.3-3.2,60.15-9.94,36.79-42.84,63.57-80.84,64.43-29.41.66-58.85.14-88.27.47-5.21.07-6.74-2.32-7.67-6.59-1.46-6.8-4.93-10.92-12.5-12.7-8.63-2-3.16-9.86-3.43-14.82-.32-5.54,4.49-2,6.88-1.68,5.79.85,11.47,2.28,17.23,3.43,2.37.47,5.53,1.93,6.44-1.47,1.06-3.95-3-4.32-5.38-4.94-6.21-1.62-12.54-2.79-18.85-4-4.5-.86-6.17-2.26-3.75-7.25,9.63-19.85,18.59-40,28.2-59.87,10.78-22.28,29-35.53,52.45-42.48,5.13-1.53,6.53-.54,6.32,4.63-.3,7.82-.25,15.68-.15,23.51,0,2.06-.38,5.17,2.71,5.3s3.11-2.79,3.16-5c.16-8.11.42-16.25.07-24.34-.2-4.76,1.3-6.51,6.11-6.48,14.83.1,29.69-.15,44.54-.2a40.25,40.25,0,0,0,22.11-6.73c12.44-8,25.06-15.74,37.59-23.58,25.69-13.49,34-35.13,30.75-63-1.22-10.75,0-21.8.17-32.7v-5.76c0-2.47,0-4.93,0-7.38-.14-38.66-.67-77.32-.25-116,.2-18.38-4.14-34.89-15.36-49.39-3.85-5-3.08-10.51-3.32-16-.1-2.17.46-5.06-2.59-5.33-3.28-.29-2.91,2.54-3,4.79-.08,2.49-.2,6.33-3.9,3.32-16.88-13.66-37.89-15.9-57.7-21.25-15.63-4.22-31.48-7.8-47.39-10.82-6.26-1.17-8.33-3.33-8-9.69.69-13.17.44-13.45,13.24-10.48,31.27,7.26,62.42,15,93.73,22,5.27,1.18,9.15,8.79,11.49,7,5.16-3.94,9-1.09,13.32-.44,3.3.49,6.51,1.52,9.78,2.32,13.39,3.27,14.16,3.62,14.55,17.58.62,22.68.55,45.37.84,68.05.08,6.73.23,13.46.69,20.15.84,12.11,8.24,19.58,20.56,19.7q45.8.44,91.61,0c6.83-.08,9,1.41,9,8.65Q1638.64,568,1639.07,642.36ZM1656.61,492q-.08,75.88-.13,151.77c0,3.92.77,7.68-5.62,7.62-6.81-.06-5.06-4.44-5.08-8-.07-25.15,0-50.31,0-75.46s0-50.32,0-75.47c0-4-.56-7.69,5.72-7.65C1657.39,484.87,1656.61,488.38,1656.61,492Zm36.61,100.95c-.52,2.68-1.79,5.2-2.69,7.79-5,13.86-10,27.74-15.11,41.55a18.87,18.87,0,0,1-4.09,6.24c-1.48,1.54-3.63,3-6,2.33-2.84-.84-2.14-3.59-2.14-5.69,0-17.56.12-35.12.19-52.7V545.29c0-4.44,0-8.89,0-13.35,0-5.07,0-10.15-.05-15.21-.08-8.56-.2-17.14-.18-25.7,0-1.48-.76-3.42,1.29-4.31,2.29-1,3.65.66,4.9,2.07a28.91,28.91,0,0,1,7.25,14.43C1691.72,531.35,1699.51,560.85,1693.22,592.93Z"/><path class="cls-1" d="M1494.51,432.74c-.15-10.69-4-20.81-10.58-30.38a18,18,0,0,0-1.83,3.13c-.69,2.57-.37,6.64-4.21,5.95s-2.2-4.9-1.64-7.07c2.62-10.54-3.42-16.09-11.09-21-5.69-3.65-11.57-7-18.1-8.6-27-6.81-54.27-13-81.17-20.39-5.63-1.55-6.32,6.48-9.13,3.65s-4.14-6.34-8.9-7.28c-47.71-9.39-95.69-17.16-143.85-23.79-50.53-7-101.37-9.86-152.31-11.77-26.86-1-46.39-21.79-46.41-48.64,0-14-.18-28,.22-42,.15-5.33-1.43-6.69-6.63-6.27l-64,.28c-19.46-.1-19.43-.1-19.14,19.6.12,8.41.17,16.82,0,25.22-.58,31.09-19.68,51.09-50.75,52a1506.29,1506.29,0,0,0-192.93,18c-8.29,1.31-16.62,2.36-24.88,3.74-8.55,1.41-17,3.14-25.57,4.67-8.24,1.47-16.54,2.76-24.78,4.28-8.51,1.56-17.51,2.06-25.32,5.36-6.64,2.79-12.78,3.6-19.78,4.49-17.07,2.16-33.85,7-50.57,11.48-16.9,4.47-34.62,6.91-49.2,18-5.79,4.39-9.74,8.78-6.9,16.87,1,2.84,2.59,8.43-2.2,9.25-4.39.74-3.4-4.76-4.6-7.64-.15-.37-.8-.52-1.91-1.17-5.45,6.86-8.28,15-9.39,23.43-3.1,23.42-1.24,46.95-1.19,70.45q0,53,0,106c-.1,5-.3,10.05-.3,15.06,0,24.66,20.1,48.46,45,53.26-1.11-8.3-2.29-16.52-3.28-24.75-.27-2.22-.3-5.16,2.37-5.58,3.28-.51,3.89,2.6,4.26,5.08,1.29,8.81,2.76,17.63,3.5,26.49.37,4.31,1.9,6.71,5.4,9.39,12.58,9.66,26.65,12,41.85,10.06,5.84.12,11.68.5,17.51.3,35.36-1.23,64.11,11.26,84.79,40.63,5.63,12.08,10.7,24.46,17,36.17,13.27,24.49,22.15,49.82,18,78.24-.67,4.64.91,6.34,5.85,6.27,26.24-.34,52.49-.32,78.73-.44,5.85,1.38,9.12,0,8-6.93-.52-3.26-.14-6.69-.09-10,.36-22.31,9.46-31.31,31.86-31.46q32.25-.19,64.52-.34c4.47.11,9,.29,13.42.27,10.84,0,14.79-3.41,15.38-14.16.42-7.81-.31-15.66,0-23.48,1.36-35.15,17.86-60.31,49.93-75.15,0,0,12.16-5.31,31-5.31s39.08,7.78,50.45,17.24c19.89,17.38,30.23,39.06,29.83,65.67-.12,7.56-.29,15.14.17,22.68.53,9,4.34,12.35,13.32,12.48,5.58.07,11.19-.13,16.77-.22,20.73.12,41.45.19,62.16.41a64.57,64.57,0,0,1,12.5,1.19c12.29,2.64,19.31,11.1,19.78,23.6a167.23,167.23,0,0,1,0,17.63c-.37,5.28,1.53,6.53,6.68,6.46,23.24-.34,46.49-.22,69.74-.22,16.52,0,16.33,0,16.33-16.21,0-13.29-1.63-26.6,4.8-39.42,9.52-19,17.24-38.82,27.07-57.63,14.13-27.09,36.87-42.86,67.45-46.7,15.34-1.92,30.79-1.4,46.16-1a53.29,53.29,0,0,0,33.73-10.37c3.55-2.53,5.37-5.14,5.8-9.39,1.1-10.84,2.56-21.62,3.89-32.42,4.88-1.46,5.87,1,5.45,5.22-.87,8.73-1.68,17.48-2.51,26.22.58.41,1.15.81,1.72,1.23,11.29-9.44,25.28-14.94,35.44-25.94a26.79,26.79,0,0,0,7.34-18.3c.1-30.47,0-60.93-.07-91.41C1494.6,502.2,1495,467.46,1494.51,432.74ZM445.2,458c-1-8.57-1.77-17.14-2.56-25.72-.22-2.43-1-5.66,2.39-6.14s3.67,2.64,4,5.14c1.06,8.55,2.07,17.09,3.08,25.54-.81,2.79,1.61,7.08-2.83,7.72C444.41,465.22,445.52,460.63,445.2,458Zm6.68,55.63c-1-7.35-2-14.7-3-22.07-.07-2.74-.17-5.49-.19-8.23,0-1.66-1.91-4.27,1.27-4.54,1.66-.14,3.46,1.5,3.86,3.72.78,4.32,1.6,8.61,2.41,12.92.66,5.73,1.46,11.45,1.87,17.21.15,2.15,1.28,5.53-2.69,5.7C452.47,518.45,452.2,515.8,451.88,513.62Zm6.44,53.69c-1.08-8.78-2-17.59-2.83-25.5,0-2.59,0-4.24,0-5.9,0-1.5.34-2.93,2.11-2.91a2.73,2.73,0,0,1,2.82,2.52c1,10.46,4.12,20.67,4,31.27,0,1.75.72,4.46-1.9,4.78S458.59,569.62,458.32,567.31Zm10.35,57c-4.28.49-4-3.75-4.63-6.57-1.18-5.05-2.29-10.13-3.42-15.19,1.77-3.23-.53-6.48,0-9.71.43-2.51-1.22-6.39,2.6-6.85,3.66-.42,3.65,3.37,4.17,6,.69,3.52,1.29,7,1.93,10.58.54,5,1.35,9.93,1.5,14.91C470.9,619.8,472.77,623.8,468.67,624.27Zm96.2-162.48c0,2.07.51,4.89-2.94,4.81-2.46-.07-3.3-2.09-3.3-4.12,0-10.58,0-21.18.18-31.78,0-1.75.66-3.38,2.92-3.21a3.13,3.13,0,0,1,3,3.35c.12,5.56,0,11.15,0,16.72h.1C564.9,452.3,565,457,564.87,461.79Zm-5.79-86.38c.11-1.72,1.23-3.23,3.3-3s2.44,2.07,2.46,3.76c.06,5.29,0,10.57,0,15.85s0,10.57,0,15.85c0,1.95-.11,4.17-2.82,4.17-2,0-2.88-1.72-3-3.4C558,397.6,558.46,386.49,559.08,375.41Zm5.77,194c0,2-.18,4.15-2.92,4-1.95-.08-2.83-1.78-3-3.48-.91-11.08-.52-22.19.13-33.29.1-1.72,1.21-3.21,3.33-2.79s2.44,2.1,2.46,3.83c0,5.29,0,10.57,0,15.85h0C564.87,558.8,564.9,564.08,564.85,569.37Zm0,107.52c0,2-.24,4.11-2.79,4.31s-3.47-1.55-3.45-3.7c.08-10.83.2-21.65.42-32.47,0-1.6.59-3.53,2.82-3.26a3.28,3.28,0,0,1,2.91,3.48c.07,5.55,0,11.1,0,16.66h0C564.89,666.9,564.9,671.9,564.89,676.89Zm0-67.32h0v14.17c0,2,0,4.45-2.37,4.61-2.59.16-3.85-2-3.85-4.51q0-15.42.13-30.84c0-1.9.2-4.09,3-4.09s3.11,1.94,3.13,4C564.94,598.45,564.9,604,564.9,609.57Zm-2.5-89.44c-3.42,0-3.79-2.73-3.92-5.25-.24-3.85-.24-7.7-.32-11.57.18-6.09.35-12.18.6-18.27.07-2,.32-4.33,2.68-4.53,3-.23,3.4,2.27,3.43,4.59.15,10,.25,20,.37,30C564.4,516.83,565.88,520.06,562.4,520.13ZM710.8,805.42c-9.8,2-19.66,3.73-28.32,5.33-3.69.2-5.81-.54-6.21-3.22s1.71-3,3.77-3.36c9.87-1.65,19.73-3.43,29.64-4.95,1.88-.3,4.87-1.64,5.36,1.84C715.43,803.83,712.87,805,710.8,805.42Zm-4.27-17.67c-18.5,3.28-34.7-8.27-37.7-26.81a82,82,0,0,1,.91-31.65c3.21-13.87,16.82-23,32.27-22.82,14.46.18,27.48,10,31,23.58a51,51,0,0,1,1.66,15.88C734.46,771.33,725.32,784.4,706.53,787.75Zm57.2,11.14c-6.3.84-12.6,1.53-18.91,2.29-3.62-.1-7.24-.14-10.84-.32-1.8-.1-4.18.57-4.35-2.46-.14-2.67,1.88-3,3.82-3.45,5.68-1.28,11.72.07,17.26-2.3,4.12-.15,8.26-.27,12.38-.49,2.32-.14,4.71-.34,5,2.78C768.3,797.88,766,798.59,763.73,798.89Zm54.38-5.44c-9.15.88-18.32,1.54-28.26,2.33-1.58-.47-5.5,2.32-6.07-1.9s3.53-4.36,6.46-4.65c9.15-.91,18.3-1.65,27.47-2.3,2-.14,5-1,5.42,2.18S820.62,793.22,818.11,793.45Zm54.22-5.18c-6,1.06-12.11,1.8-18.18,2.66-4.4.14-8.79.29-13.19.42-1.67,0-3.44.12-3.75-2.17s.6-3.77,2.94-4.1c4.61-.68,9.23-1.26,13.84-1.87,5.86-.3,11.7-.64,17.55-.89,2.05-.09,4.07.37,4.2,2.91C875.85,787.38,873.79,788,872.33,788.27Zm202.1,3c-7.75-.73-15.49-1.37-23.23-2.21-2.46-.25-6.33.74-5.84-3.73.47-4.22,4.07-2.93,6.61-2.83,6.92.29,13.85.84,20.76,1.3.54.12,1.08.2,1.62.35,3,.88,8.46-1.29,8.16,4.14C1082.24,793,1077.09,789.91,1074.43,791.22Zm63.3,2.94c-.74,2.91-3.46,2.07-5.62,1.89-8.83-.73-17.69-1.35-26.49-2.33-3.09-.35-8-.21-7.64-4.5s5-1.35,7.56-2a17.94,17.94,0,0,1,4.15-.07,134.48,134.48,0,0,1,23.92,2.94C1135.71,790.56,1138.52,791.1,1137.73,794.16Zm52.74,4.51c-.37,4.37-4.39,1.58-6.71,2.19-1.57.4-3.33.06-6.92.06-5.65.19-13-1.36-20.42-2.57-2-.32-5-.61-4.67-3.7.38-4.12,3.76-2.42,5.85-2.27,8.88.65,17.76,1.46,26.6,2.57C1186.6,795.25,1190.81,794.67,1190.47,798.67Zm53.13,9.45c-.36,2.31-2.34,3-4.43,2.75-10.41-1.4-20.86-2.7-30.87-6.13-1.9-.64-4.12-1.68-3.82-3.78.47-3.42,3.54-1.33,5.49-1.89,10.06,1.72,20.15,3.47,30.26,5.17C1242.5,804.61,1243.91,805.9,1243.6,808.12Zm8.74-49.44c-1.65,17.53-16.43,29.78-34.74,29.31-17.12-.42-29.67-12.47-31-30-.3-3.89,0-7.81,0-11.73.19-5.84-.37-11.76,1.33-17.46,4.48-15.16,18.42-23.74,35.92-22.17,14.87,1.31,27.39,14.25,28.63,30.25A126.5,126.5,0,0,1,1252.34,758.68Zm102.75-327.57c0-1.54-.32-3.6,2.24-3.54a2.73,2.73,0,0,1,2.84,2.54,200.1,200.1,0,0,1,.1,34.27c-.13,1.61-1.22,2.34-2.87,2.17-2.26-.24-2.54-2-2.58-3.63-.08-5.3,0-10.6,0-15.9h.27C1355.06,441.72,1355,436.4,1355.09,431.11Zm-.42-24.09c0-10.28.2-20.56.41-30.84,0-1.61,0-3.62,2.33-3.6,2,0,3,1.41,3,3.26.08,5.29,0,10.55,0,15.83h.17c0,5,.09,10,0,15-.05,2.17-.09,5.05-2.93,5.25C1354.5,412.15,1354.67,409,1354.67,407Zm5.82,270.9c0,1.73-.45,3.41-2.69,3.47S1355,679.75,1355,678c0-11.17.07-22.34.17-33.51,0-1.48.58-3,2.31-2.78a3.28,3.28,0,0,1,3,3.5c0,5.59,0,11.15,0,16.74h.09C1360.51,667.31,1360.54,672.6,1360.49,677.92Zm.07-54.47c-.08,1.82.19,4.34-2.57,4.47-3.32.17-3.12-2.64-3.22-4.76-.37-6.94-.55-13.89-.82-20.84.35-3.28.67-6.56,1.06-9.82.17-1.57-.12-3.54,2.27-3.7,2.84-.21,2.91,2,3,3.88.34,4.39.54,8.8.78,13.21C1360.93,611.74,1360.85,617.61,1360.56,623.45Zm-5.62-85.12c0-1.92-.13-4.32,2.52-4.51s3,2.09,3,4.09c0,10.33.07,20.67,0,31,0,1.9-.12,4.49-2.62,4.56-3.1.09-3.06-2.89-3.15-5-.22-5-.08-10-.08-15.07h.33C1354.92,548.39,1354.89,543.36,1354.94,538.33Zm5.54-22.44c-.14,1.92-.07,4.2-2.88,4.22s-2.78-2.29-2.86-4.2c-.32-7-.56-13.95-.81-20.93.35-3.57.71-7.13,1.08-10.7.15-1.63,0-3.68,2.2-3.85,2.49-.17,3.18,1.81,3.32,3.87.35,5.23.62,10.48.92,15.73C1361.13,505.32,1360.85,510.61,1360.48,515.89Zm98.67,77.8c-.87,8.35-1.78,17.24-2.81,26.14-.3,2.64-.13,6.56-4.18,5.79-3.64-.69-2.64-4.42-2.39-7.1.79-8.63,1.68-17.26,2.74-25.85.34-2.76-.47-7.29,4-6.68C1459.89,586.42,1459,590.39,1459.15,593.69Zm6.19-57c-.75,10.8-1.71,21.58-2.74,32.36-.22,2.22-1.93,3.75-4.08,3.18-4.61-1.21-1.4-5.13-2.41-7.5,1-9.59,2-19,3.16-28.36.22-1.75.14-4.36,3-4.06C1464.67,532.53,1465.48,534.78,1465.34,536.65Zm6.72-55.33c-1.52,12.5.85,25.62-5.89,37.29l-3.05-.28c-.77-12,1.17-23.84,2.91-35.65.29-1.95,1-3.95,3.42-4.05A2.5,2.5,0,0,1,1472.06,481.32Zm6.09-48.25a18.68,18.68,0,0,1-.14,3.33l.27,0c-.92,8-1.75,16-2.89,24-.29,2-.73,4.83-3.85,4.49-3.66-.37-2.21-3.4-2.07-5.23.64-9.17,1.36-18.32,2.5-27.44.31-2.34-.06-6.66,3.89-6.15S1477.79,430.58,1478.15,433.07Z"/><path class="cls-2" d="M1252.41,736.92c-1.24-16-13.76-28.94-28.63-30.25-17.5-1.57-31.44,7-35.92,22.17-1.7,5.7-1.14,11.62-1.33,17.46,0,3.92-.25,7.84,0,11.73,1.35,17.49,13.9,29.54,31,30,18.31.47,33.09-11.78,34.74-29.31A126.5,126.5,0,0,0,1252.41,736.92Zm-17.85,39.81c-8.07,5.76-16.89,7.17-25.94,2.58-9.49-4.8-15.07-12.45-15.32-23.79,5.6,9.54,12.56,17.46,24.17,18,11.17.54,19.43-5.35,25.52-15.19C1244.55,766.1,1242.18,771.3,1234.56,776.73Zm-34.7-30c.2-9.79,10.12-19.38,19.73-19.1,10.26.31,19.55,10.33,19.06,20.61-.44,9.47-10,18.69-19.33,18.61C1209.08,766.72,1199.64,757,1199.86,746.71Zm19.71-25.27c-12.73,0-20.77,6.58-26,18A25.47,25.47,0,0,1,1218.77,713c14.93-.1,26.91,11.83,27,28.26C1239.54,730.15,1232.81,721.41,1219.57,721.44Z"/><path class="cls-2" d="M733,730.05c-3.54-13.56-16.56-23.4-31-23.58-15.45-.19-29.06,8.95-32.27,22.82a82,82,0,0,0-.91,31.65c3,18.54,19.2,30.09,37.7,26.81,18.79-3.35,27.93-16.42,28.16-41.82A51,51,0,0,0,733,730.05ZM704,713.16c10.88.71,25.89,14.27,22,25.57-5.6-11-13.44-17.59-25.86-17.29s-19.49,8-24.91,18.3C675,723.21,687.86,712.1,704,713.16Zm16.53,35.21c-.23,9.51-9.75,18.54-19.38,18.37-10.27-.18-19.36-9.15-19.41-19.19-.07-9.89,9.4-19.87,19-20C711.16,727.44,720.76,737.52,720.49,748.37Zm-19.44,33.71c-13.56-.23-25.42-11.74-26.08-28,6.55,12.4,14.72,19.83,27,19.33,12-.49,19.59-8.26,25.75-20.34C727.31,769.74,714.84,782.32,701.05,782.08Z"/><path class="cls-2" d="M1472.06,481.32c-1.52,12.5.85,25.62-5.89,37.29l-3.05-.28c-.77-12,1.17-23.84,2.91-35.65.29-1.95,1-3.95,3.42-4.05A2.5,2.5,0,0,1,1472.06,481.32Z"/><path class="cls-2" d="M449.27,464.53c-4.86.69-3.75-3.9-4.07-6.54-1-8.57-1.77-17.14-2.56-25.72-.22-2.43-1-5.66,2.39-6.14s3.67,2.64,4,5.14c1.06,8.55,2.07,17.09,3.08,25.54C451.29,459.6,453.71,463.89,449.27,464.53Z"/><path class="cls-2" d="M1361.45,500c-.32,5.29-.6,10.58-1,15.86-.14,1.92-.07,4.2-2.88,4.22s-2.78-2.29-2.86-4.2c-.32-7-.56-13.95-.81-20.93.35-3.57.71-7.13,1.08-10.7.15-1.63,0-3.68,2.2-3.85,2.49-.17,3.18,1.81,3.32,3.87C1360.88,489.53,1361.15,494.78,1361.45,500Z"/><path class="cls-2" d="M1243.6,808.12c-.36,2.31-2.34,3-4.43,2.75-10.41-1.4-20.86-2.7-30.87-6.13-1.9-.64-4.12-1.68-3.82-3.78.47-3.42,3.54-1.33,5.49-1.89,10.06,1.72,20.15,3.47,30.26,5.17C1242.5,804.61,1243.91,805.9,1243.6,808.12Z"/><path class="cls-2" d="M455.43,518.33c-3,.12-3.23-2.53-3.55-4.71-1-7.35-2-14.7-3-22.07-.07-2.74-.17-5.49-.19-8.23,0-1.66-1.91-4.27,1.27-4.54,1.66-.14,3.46,1.5,3.86,3.72.78,4.32,1.6,8.61,2.41,12.92.66,5.73,1.46,11.45,1.87,17.21C458.27,514.78,459.4,518.16,455.43,518.33Z"/><path class="cls-2" d="M1360.63,406.68c-.05,2.17-.09,5.05-2.93,5.25-3.2.22-3-2.91-3-4.91,0-10.28.2-20.56.41-30.84,0-1.61,0-3.62,2.33-3.6,2,0,3,1.41,3,3.26.08,5.29,0,10.55,0,15.83h.17C1360.66,396.67,1360.75,401.68,1360.63,406.68Z"/><path class="cls-2" d="M875.74,785.23c.11,2.15-2,2.79-3.41,3-6,1.06-12.11,1.8-18.18,2.66-4.4.14-8.79.29-13.19.42-1.67,0-3.44.12-3.75-2.17s.6-3.77,2.94-4.1c4.61-.68,9.23-1.26,13.84-1.87,5.86-.3,11.7-.64,17.55-.89C873.59,782.23,875.61,782.69,875.74,785.23Z"/><path class="cls-2" d="M1478,436.4l.27,0c-.92,8-1.75,16-2.89,24-.29,2-.73,4.83-3.85,4.49-3.66-.37-2.21-3.4-2.07-5.23.64-9.17,1.36-18.32,2.5-27.44.31-2.34-.06-6.66,3.89-6.15s1.93,4.45,2.29,6.94A18.68,18.68,0,0,1,1478,436.4Z"/><path class="cls-2" d="M710.8,805.42c-9.8,2-19.66,3.73-28.32,5.33-3.69.2-5.81-.54-6.21-3.22s1.71-3,3.77-3.36c9.87-1.65,19.73-3.43,29.64-4.95,1.88-.3,4.87-1.64,5.36,1.84C715.43,803.83,712.87,805,710.8,805.42Z"/><path class="cls-2" d="M768.07,794.94c.23,2.94-2.09,3.65-4.34,3.95-6.3.84-12.6,1.53-18.91,2.29-3.62-.1-7.24-.14-10.84-.32-1.8-.1-4.18.57-4.35-2.46-.14-2.67,1.88-3,3.82-3.45,5.68-1.28,11.72.07,17.26-2.3,4.12-.15,8.26-.27,12.38-.49C765.41,792,767.8,791.82,768.07,794.94Z"/><path class="cls-2" d="M1137.73,794.16c-.74,2.91-3.46,2.07-5.62,1.89-8.83-.73-17.69-1.35-26.49-2.33-3.09-.35-8-.21-7.64-4.5s5-1.35,7.56-2a17.94,17.94,0,0,1,4.15-.07,134.48,134.48,0,0,1,23.92,2.94C1135.71,790.56,1138.52,791.1,1137.73,794.16Z"/><path class="cls-2" d="M1190.47,798.67c-.37,4.37-4.39,1.58-6.71,2.19-1.57.4-3.33.06-6.92.06-5.65.19-13-1.36-20.42-2.57-2-.32-5-.61-4.67-3.7.38-4.12,3.76-2.42,5.85-2.27,8.88.65,17.76,1.46,26.6,2.57C1186.6,795.25,1190.81,794.67,1190.47,798.67Z"/><path class="cls-2" d="M1082.51,788.24c-.27,4.78-5.42,1.67-8.08,3-7.75-.73-15.49-1.37-23.23-2.21-2.46-.25-6.33.74-5.84-3.73.47-4.22,4.07-2.93,6.61-2.83,6.92.29,13.85.84,20.76,1.3.54.12,1.08.2,1.62.35C1077.39,785,1082.81,782.81,1082.51,788.24Z"/><path class="cls-2" d="M565.24,515.06c-.84,1.77.64,5-2.84,5.07s-3.79-2.73-3.92-5.25c-.24-3.85-.24-7.7-.32-11.57.18-6.09.35-12.18.6-18.27.07-2,.32-4.33,2.68-4.53,3-.23,3.4,2.27,3.43,4.59C565,495.1,565.12,505.07,565.24,515.06Z"/><path class="cls-2" d="M564.85,407.91c0,1.95-.11,4.17-2.82,4.17-2,0-2.88-1.72-3-3.4-1-11.08-.52-22.19.1-33.27.11-1.72,1.23-3.23,3.3-3s2.44,2.07,2.46,3.76c.06,5.29,0,10.57,0,15.85S564.9,402.63,564.85,407.91Z"/><path class="cls-2" d="M1360.49,677.92c0,1.73-.45,3.41-2.69,3.47S1355,679.75,1355,678c0-11.17.07-22.34.17-33.51,0-1.48.58-3,2.31-2.78a3.28,3.28,0,0,1,3,3.5c0,5.59,0,11.15,0,16.74h.09C1360.51,667.31,1360.54,672.6,1360.49,677.92Z"/><path class="cls-2" d="M564.87,461.79c0,2.07.51,4.89-2.94,4.81-2.46-.07-3.3-2.09-3.3-4.12,0-10.58,0-21.18.18-31.78,0-1.75.66-3.38,2.92-3.21a3.13,3.13,0,0,1,3,3.35c.12,5.56,0,11.15,0,16.72h.1C564.9,452.3,565,457,564.87,461.79Z"/><path class="cls-2" d="M1360.27,464.38c-.13,1.61-1.22,2.34-2.87,2.17-2.26-.24-2.54-2-2.58-3.63-.08-5.3,0-10.6,0-15.9h.27c0-5.3,0-10.62,0-15.91,0-1.54-.32-3.6,2.24-3.54a2.73,2.73,0,0,1,2.84,2.54A200.1,200.1,0,0,1,1360.27,464.38Z"/><path class="cls-2" d="M1361.1,605.89c-.17,5.85-.25,11.72-.54,17.56-.08,1.82.19,4.34-2.57,4.47-3.32.17-3.12-2.64-3.22-4.76-.37-6.94-.55-13.89-.82-20.84.35-3.28.67-6.56,1.06-9.82.17-1.57-.12-3.54,2.27-3.7,2.84-.21,2.91,2,3,3.88C1360.66,597.07,1360.86,601.48,1361.1,605.89Z"/><path class="cls-2" d="M1459.15,593.69c-.87,8.35-1.78,17.24-2.81,26.14-.3,2.64-.13,6.56-4.18,5.79-3.64-.69-2.64-4.42-2.39-7.1.79-8.63,1.68-17.26,2.74-25.85.34-2.76-.47-7.29,4-6.68C1459.89,586.42,1459,590.39,1459.15,593.69Z"/><path class="cls-2" d="M1465.34,536.65c-.75,10.8-1.71,21.58-2.74,32.36-.22,2.22-1.93,3.75-4.08,3.18-4.61-1.21-1.4-5.13-2.41-7.5,1-9.59,2-19,3.16-28.36.22-1.75.14-4.36,3-4.06C1464.67,532.53,1465.48,534.78,1465.34,536.65Z"/><path class="cls-2" d="M1360.44,568.91c0,1.9-.12,4.49-2.62,4.56-3.1.09-3.06-2.89-3.15-5-.22-5-.08-10-.08-15.07h.33c0-5,0-10.06,0-15.09,0-1.92-.13-4.32,2.52-4.51s3,2.09,3,4.09C1360.51,548.24,1360.53,558.58,1360.44,568.91Z"/><path class="cls-2" d="M818.11,793.45c-9.15.88-18.32,1.54-28.26,2.33-1.58-.47-5.5,2.32-6.07-1.9s3.53-4.36,6.46-4.65c9.15-.91,18.3-1.65,27.47-2.3,2-.14,5-1,5.42,2.18S820.62,793.22,818.11,793.45Z"/><path class="cls-2" d="M468.67,624.27c-4.28.49-4-3.75-4.63-6.57-1.18-5.05-2.29-10.13-3.42-15.19,1.77-3.23-.53-6.48,0-9.71.43-2.51-1.22-6.39,2.6-6.85,3.66-.42,3.65,3.37,4.17,6,.69,3.52,1.29,7,1.93,10.58.54,5,1.35,9.93,1.5,14.91C470.9,619.8,472.77,623.8,468.67,624.27Z"/><path class="cls-2" d="M564.9,609.57h0v14.17c0,2,0,4.45-2.37,4.61-2.59.16-3.85-2-3.85-4.51q0-15.42.13-30.84c0-1.9.2-4.09,3-4.09s3.11,1.94,3.13,4C564.94,598.45,564.9,604,564.9,609.57Z"/><path class="cls-2" d="M564.89,661.91c0,5,0,10,0,15,0,2-.24,4.11-2.79,4.31s-3.47-1.55-3.45-3.7c.08-10.83.2-21.65.42-32.47,0-1.6.59-3.53,2.82-3.26a3.28,3.28,0,0,1,2.91,3.48c.07,5.55,0,11.1,0,16.66Z"/><path class="cls-2" d="M564.89,553.52h0c0,5.28,0,10.56,0,15.85,0,2-.18,4.15-2.92,4-1.95-.08-2.83-1.78-3-3.48-.91-11.08-.52-22.19.13-33.29.1-1.72,1.21-3.21,3.33-2.79s2.44,2.1,2.46,3.83C564.92,543,564.89,548.24,564.89,553.52Z"/><path class="cls-2" d="M462.53,571.57c-2.61.34-3.94-2-4.21-4.26-1.08-8.78-2-17.59-2.83-25.5,0-2.59,0-4.24,0-5.9,0-1.5.34-2.93,2.11-2.91a2.73,2.73,0,0,1,2.82,2.52c1,10.46,4.12,20.67,4,31.27C464.41,568.54,465.15,571.25,462.53,571.57Z"/><path class="cls-2" d="M1360.61,284.32c0,5.58.06,11.16,0,16.73,0,1.88,0,4.16-2.94,4-2.77-.13-2.84-2.29-2.85-4.23,0-9.2-.17-18.42.11-27.61.15-4.69-.78-7-6.24-7.21-6.63-.28-13.2-1.89-19.77-3.09-3.05-.55-6.82-1.73-6.09-5.31.56-2.69,4.35-1.39,6.6-1.05,8,1.2,15.87,3.15,23.87,4,5.9.6,7.53,3.41,7.26,8.73-.25,5,0,10,0,15.05Z"/><path class="cls-2" d="M1275.1,246.27c9.3,1.5,18.92,3.08,28.55,4.6,2.72.43,5.19,1.25,4.54,4.59-.62,3.13-3.4,2.39-5.48,2.08-9.63-1.44-19.22-3.08-28.84-4.57-2.69-.41-5.53-1.36-5.23-4.27C1269,245.19,1272.43,246.49,1275.1,246.27Z"/><path class="cls-2" d="M1169.39,232.85c9.15,1.1,18.79,2.22,28.42,3.44,2.25.29,4.59,1,4.43,3.93-.19,3.57-3.13,2.63-5,2.46-10.21-.94-20.41-2.13-30.61-3.16-2.55-.26-4.81-1.6-4.48-3.93C1162.68,231.47,1166.47,233.67,1169.39,232.85Z"/><path class="cls-2" d="M1382.55,266.09c9.48,1,18.77,2.61,27.47,6.67,2.39,1.11,4.9,2.57,3.53,5.54-1.13,2.45-3.94,1.7-6,1a125.73,125.73,0,0,0-25.77-6.55c-2.78-.35-7.15.14-6.26-4.52C1376.3,264.26,1380.15,266.77,1382.55,266.09Z"/><path class="cls-2" d="M1226.16,239c8.25,1.23,16.49,2.57,24.77,3.62,2.76.35,4.27,1.77,4.13,4.2-.18,3.3-3,2.76-5.12,2.47-9.34-1.29-18.69-2.67-28-4.26-2.56-.43-6.5-.76-5.69-4.5.67-3.11,4.1-1.85,6.53-1.57l3.32.41C1226.12,239.24,1226.14,239.11,1226.16,239Z"/><path class="cls-2" d="M1456.05,307.35c0,3.78-2.36,3.61-3.87,2.33-8.47-7.19-16.75-14.59-25-22-1-.89-1.66-2.45-.56-3.72s2.62-.92,3.84-.19c9.1,5.48,18.1,11.1,24.13,20.22A18.79,18.79,0,0,1,1456.05,307.35Z"/><path class="cls-2" d="M1084.76,225.83c.57,0,3.64-.06,6.71,0,1.71,0,3.33.37,3.23,2.74-.09,2.18-1.46,2.88-3.29,2.91-10.05.17-20,.67-28.91,6.28-1.38.87-4.12,1.14-5.06-1.2s.56-4.23,2.49-5.62C1066.65,226.15,1074.35,225.44,1084.76,225.83Z"/><path class="cls-2" d="M1134.17,236.13c-6.38.3-13.73-1.2-21.09-2.59-1.47-.27-3.59-.75-3.35-3s2.35-2.21,3.89-2.15c10,.4,20,.86,30,1.5,2.07.13,4.92.29,4.89,3.36,0,4.13-3.48,2.56-5.62,2.79C1140.37,236.33,1137.85,236.13,1134.17,236.13Z"/><path class="cls-2" d="M558.43,284.54c.25-25.93-1.22-21.61,23.56-26.7a70.27,70.27,0,0,1,10.78-1.51c1.9-.09,5.05-1.48,5.53,1.77s-2.63,4.15-5,4.58c-7.42,1.37-14.87,3-22.36,3.3-5.65.21-6.23,2.56-6.07,7.17.29,8.39.18,16.8,0,25.2-.06,2.44,1.52,6.5-2.78,6.62-4.78.14-3.44-4.22-3.6-7C558.24,293.52,558.43,289,558.43,284.54Z"/><path class="cls-2" d="M539.75,265.9c2.35.38,5.7-1.31,6,2.64.21,3-2.59,3.29-4.76,3.61-9.9,1.46-19.78,3-29,7.13-1.49.67-3.78,1.19-4.43-.65-1-2.72.72-4.72,3.28-5.91C520,268.44,529.92,267.09,539.75,265.9Z"/><path class="cls-2" d="M838.54,225.74c7.61-.23,15.06.42,21.3,5.41,1.89,1.51,4.45,3.46,3.06,6.14-1.72,3.31-4.74,1.06-6.49-.08-7.64-5-16.17-5.4-24.81-5.75-2.48-.1-6.62,1.35-6.51-2.77.11-3.7,4.18-2.68,6.77-2.91C834.07,225.58,836.31,225.74,838.54,225.74Z"/><path class="cls-2" d="M465.83,310.12c-3.24-.55-2.93-2.78-1.86-4.39,6.44-9.71,15.51-16.46,25.61-21.93a2.94,2.94,0,0,1,4.26,1.29,2.8,2.8,0,0,1-.72,3.76c-9.13,5.91-16.75,13.66-25.22,20.38A8,8,0,0,1,465.83,310.12Z"/><path class="cls-2" d="M615,257.46a2.7,2.7,0,0,1-2.93-2.63c-.26-2.36,1.13-3.54,3.4-3.89,10.49-1.56,21-3.2,31.46-4.7,1.49-.21,3.62-.66,3.86,1.81s-1.18,4.3-3.71,4.75c-6.58,1.17-13.18,2.28-19.79,3.28C623.66,256.63,620,256.9,615,257.46Z"/><path class="cls-2" d="M695.49,238.82c2.92.92,7.21-2.41,7.64,2.81.35,4.31-4,3.21-6.28,3.64-8.5,1.6-17.08,2.77-25.63,4-2.57.38-5.59.42-6.12-2.73-.59-3.52,2.54-3.55,5.06-3.92C678.72,241.4,687.27,240.07,695.49,238.82Z"/><path class="cls-2" d="M723.06,242.62c-.85-.16-3.43,1.12-3.73-1.9-.26-2.62,1.27-4.19,3.89-4.47C733.46,235.13,743.71,234,754,233c1.83-.18,4.38-.73,4.63,2.06.23,2.42-1.11,4.17-3.9,4.44C744.42,240.48,734.16,241.52,723.06,242.62Z"/><path class="cls-2" d="M783.41,236.15c-3.24-1.39-10.65,2.52-10.86-2.17-.3-6.32,7.29-3.86,11.51-4.28,7.76-.77,15.61-.72,23.42-1,1.39-.05,3.13-.25,3.58,1.37.6,2.23-1.38,2.78-2.95,3.13A108.94,108.94,0,0,1,783.41,236.15Z"/><path class="cls-2" d="M1382.24,835.44c3.18,3,7.22,1.45,10.87,2,3.1.44,8.58-1.23,8.54,2.68-.06,5.07-5.69,2.42-8.85,2.88-8.81,1.28-18.14-.09-25.16-4.35A49.21,49.21,0,0,1,1348.05,815c-3.35-8.16-4.81-17.22-.3-24.29,7-11,7.2-22.5,7.42-34.49,0-2-1.64-5.8,2.41-5.67,3.31.1,3,3.54,3,6,.1,5.3-2.07,12.1.44,15.54,3.2,4.38,8.77-3,14-1.75,2.39.59,5,.11,7.51.43,13.89,1.82,17.16,5.8,16,19.62-.82,9.73-2.37,19.44-2.58,29.18-.17,7.61-2.81,12.17-10.44,13.52C1384.18,833.25,1382.72,833.55,1382.24,835.44Zm-29.55-25.54c2.14-4.66,4.13-6.77,6.71-5.29,2.19,1.25,1,4.09,1.11,6.23.11,1.67.06,3.36,0,5-.12,4.82,2,8.09,6.73,9.3,6.76,1.71,13.61,3.88,20.25-.14.89-.54,1.19-2.46,1.32-3.79,1.14-11.69,2.13-23.4,3.28-35.09.44-4.41-1.48-6.27-5.67-7.65C1367.46,772.27,1350.71,786.19,1352.69,809.9Z"/><path class="cls-2" d="M1437.13,720.45c.78-7.21,1.48-14.42,2.37-21.61.31-2.5,1-5.56,4.11-5.47,4.05.12,2.34,3.79,2.26,5.79-.38,8.63-.95,17.26-1.93,25.84-.29,2.58.56,7.15-3.91,6.92-4.76-.24-2.71-4.55-3-7.28a22.63,22.63,0,0,1,.36-4.16Z"/><path class="cls-2" d="M1439.44,757.42c-.8,8-1.42,15.73-2.45,23.44-.25,1.81.11,5.09-3.3,4.77-2.88-.26-3.31-2.71-3.11-5q1.34-15.39,2.87-30.75c.2-1.92.73-4.17,3.33-4,3.4.2,2.55,3,2.63,5.08S1439.44,755.36,1439.44,757.42Z"/><path class="cls-2" d="M1414.07,833.85c6-10.4,12.63-20.09,14.26-31.93a2.59,2.59,0,0,1,2.88-2.4c.58.09,1.18,1,1.5,1.67,4.47,9.27-5.43,30.55-15.61,33.53C1416.66,834.85,1416.06,834.45,1414.07,833.85Z"/><path class="cls-2" d="M1316.62,820.76c9,2,19,4.32,29.12,6.5,2.71.59,4.08,2.29,3.49,4.69s-2.79,2-4.88,1.65c-10-1.5-19.62-4.28-29.25-7.13-2-.59-3.95-1.38-3.69-3.82S1314,821.31,1316.62,820.76Z"/><path class="cls-2" d="M486.29,804.86c0-2.13.26-4.06,1.89-4.81,2.05-.94,3.17,1.07,3.55,2.46,2.71,10,6.21,19.58,12.63,27.91.73.94,1.39,2.8-.1,3.76-1.94,1.24-3.63.31-5.19-1.2C491,825.18,488.59,814.85,486.29,804.86Z"/><path class="cls-2" d="M477.51,693.2c5.76,10.65,4.46,22.69,6.67,34a3.16,3.16,0,0,1-3,4.1c-2.92.28-3.67-1.75-4.05-4.18-1.3-8.47-2.68-16.93-4-25.4C473.87,698.55,470.77,693.34,477.51,693.2Z"/><path class="cls-2" d="M1010.33,787.12c-5,0-10,.18-15-.09-2-.1-4.91-.26-5-3.28s2.65-3.09,4.84-3.12c9.73-.12,19.49-.5,29.16,1,2.14.34,4.89.57,4.61,3.64-.31,3.49-3.34,2.12-5.26,2.21-4.45.19-8.91.06-13.36.06Z"/><path class="cls-2" d="M909.29,787.77c-3.92,0-7.83.13-11.74,0-2.4-.11-6.11,2.07-6.48-2.62-.31-4.06,3.24-3,5.42-3.39,9.42-1.8,19-1,28.44-1.05,2.12,0,4.11.15,4,2.9-.06,2.26-1.34,3.52-3.75,3.51-5.31,0-10.62,0-15.93,0Z"/><path class="cls-2" d="M945,780.54h33.34s2.64.34,2.64,2.7-.14,3.46-2.22,3.46H945s-2.36.61-2.36-2.6S945,780.54,945,780.54Z"/><rect class="cls-1" width="1" height="1"/><rect class="cls-1" y="1079" width="1" height="1"/><rect class="cls-1" x="1919" width="1" height="1"/></g><g id="Capa_3" data-name="Capa 3"><path d="M798.38,456.83v111H778.55V497.12L759,512l-16.18,12.54L726.68,512l-19.51-14.9v70.74H687.34v-111l19.83,15.22,35.69,27.44,35.69-27.44Z"/><path d="M852.3,493.78v75.51H832.47V491.72A15.8,15.8,0,0,0,819,478.24h-4.44V458.57h4.28v.16a35.55,35.55,0,0,1,13.48,3.65,35.17,35.17,0,0,1,16,16.18A42.55,42.55,0,0,1,851,486a33.53,33.53,0,0,1,1,8.09Z"/><path d="M978.71,456.83v111H958.88V522.18H900.36a31.39,31.39,0,0,1-14.91-3.65,32.4,32.4,0,0,1-17.77-29V456.83h19.83V489.5a13.07,13.07,0,0,0,13,13H959V456.83Z"/><path d="M1096.71,512.5A32.75,32.75,0,0,1,1073.24,568h-45.52a32.59,32.59,0,0,1-30.14-20A34.27,34.27,0,0,1,995,535.18a32.67,32.67,0,0,1,9.2-22.84,31.13,31.13,0,0,1-6.82-10,34.5,34.5,0,0,1-2.54-12.85,32.21,32.21,0,0,1,32-32.83h46.48a32.87,32.87,0,0,1,23,55.67Zm-24.26-9.67a12.94,12.94,0,0,0,.47-25.86h-46.79a12.94,12.94,0,0,0,.32,25.86h46Zm.16,45.52a13.07,13.07,0,0,0,13-13,12.9,12.9,0,0,0-12.21-13h-46.48a12.87,12.87,0,0,0-12.21,12.84,13.07,13.07,0,0,0,13,13h45.52Z"/><path d="M1232.48,456.83v111h-19.82V522.18h-58.53a31.39,31.39,0,0,1-14.91-3.65,32.4,32.4,0,0,1-17.77-29V456.83h19.83V489.5a13.07,13.07,0,0,0,13,13h58.52V456.83Z"/></g></g></svg>