<svg xmlns="http://www.w3.org/2000/svg" viewBox="0 0 1920 1080"><defs><style>.cls-1{fill:#010001;}.cls-2{fill:#f2f2f2;}</style></defs><g id="Capa_2" data-name="Capa 2"><g id="Capa_1-2" data-name="Capa 1"><path class="cls-1" d="M945.88,370c-6.06-1.51-12-3.32-18.13-4.74-1.92-.45-4.51-.8-5.44,1.72-1.11,3,1.29,4.33,3.52,5.19a56,56,0,0,0,7.69,2.21l5,1.49c5.8,1.68,13.64,2.27,14.12-1.3S945.88,370,945.88,370Zm51.52-2.53c-.75-3.39-3.78-2.51-5.86-2.06-6.69,1.45-13.4,2.94-19.92,5a9.18,9.18,0,0,0-3.12,2.35c-1,1.38,1.87,3.94,4.94,4.39s13-2.62,13-2.62c2.56-.73,5.14-1.47,7.64-2.42C996.13,371.33,997.92,369.84,997.4,367.44Zm0,0c-.75-3.39-3.78-2.51-5.86-2.06-6.69,1.45-13.4,2.94-19.92,5a9.18,9.18,0,0,0-3.12,2.35c-1,1.38,1.87,3.94,4.94,4.39s13-2.62,13-2.62c2.56-.73,5.14-1.47,7.64-2.42C996.13,371.33,997.92,369.84,997.4,367.44ZM945.88,370c-6.06-1.51-12-3.32-18.13-4.74-1.92-.45-4.51-.8-5.44,1.72-1.11,3,1.29,4.33,3.52,5.19a56,56,0,0,0,7.69,2.21l5,1.49c5.8,1.68,13.64,2.27,14.12-1.3S945.88,370,945.88,370ZM1737.3,485.32c-.56-39.41-1.58-72.64-1.61-112,0,0,.09-3.55-3.18-7.55a22.6,22.6,0,0,0-6-4.94c-7-3.57-14.55-3-21.94-3q-107.6-.06-215.17.11c-8.68,0-17.42.05-25.76-2.46-39.13-11.72-78.23-23.41-118.28-31.67-2.47-.52-5.61-1.45-4.88-4.09,2.64-9.36-4.53-8.86-9.63-9.88-29.22-5.81-58.52-11.28-87.72-17.2-5.26-1.08-8.81-1.3-9.44,5.22-.5,5.18-4.18,3.73-7.41,3.37q-28-3.09-56.09-6.08c-24-2.53-48.12-4.81-72.14-7.52-14.19-1.6-18.42-6.69-18.64-21.06-.11-6.87.11-13.74-.12-20.61-.54-15.68-10.36-25.53-26-26a199,199,0,0,0-22.39.18c-6.42.52-8.05-1.73-7.94-7.93.25-13,1.23-26.32-6.34-38.23-2.4-3.77.79-4.16,3.72-4.61,18.83-2.91,37.74-5.55,56.47-9.1,5.72-1.09,6.28.4,6.89,5.29,1.47,11.54,9.17,16.35,20.49,13.28a115.29,115.29,0,0,0,11.78-4.18q35.71-14.07,71.4-28.24c5-2,10-3.85,14.8-6.28,6.73-3.4,9.17-9,7.28-16.43-1.84-7.23-6.81-10.15-13.93-10a53,53,0,0,0-7.13.62L960.16,151.38,725.91,114c-7.09-1-12.52,1.58-14.28,9-2.14,9,.82,15.07,8.63,18.32,6.87,2.85,13.85,5.42,20.75,8.16,23.5,9.37,47,18.8,70.49,28.11,12,4.78,22.58,2.21,24-8,1.81-13,9-9.38,16.29-8.18,2.35.38,4.68.92,7,1.31,15.11,2.46,30.21,4.9,46.61,7.55-10.25,13.41-7.37,27.83-7.48,41.62-.06,6.55-2.08,8.13-8.15,8-11.64-.23-23.3.36-34.94.36-12.44,0-13.4,17.41-13.4,17.41-1.39,9.52-.61,19.06-1,28.59-.68,15.29-5,20-20.27,21.62-42.44,4.41-85,7.82-127.26,13.58-3.1.43-6,1-6.66-3.48-.84-6-4.48-6.48-9.76-5.42-29.76,6-59.61,11.7-89.41,17.51-4.73.93-9.76,1.49-8.07,8.61.83,3.44-1.4,4.52-4.48,5.15-39.74,8.16-78.52,19.86-117.4,31.3-9.51,2.8-19.48,2.59-29.33,2.59q-105.75.07-211.47.14c-8.27,0-16,.47-24.38,3.82-6.87,2.76-9.24,13.65-9.24,13.65V479.9c.13,6.21.65,12.47.27,18.66-.74,11.62,1.38,22.44,7.78,32.24,6.7,10.26,4.78,21.81,4.67,32.92-.11,12.39,2.28,23.51,11.64,32.3,6.17,5.13,12.38,10.23,18.53,15.38,16.26,13.61,35.52,17.47,56,16.88C292,628,295.47,624,295.79,614c.16-5.06.25-10.12.4-15.18-.06-9.24-.42-18.49-.06-27.71s5.58-15.68,14-17.44,13.87,1.92,17,9.51c2.07,5,6.23,4.77,10.5,4.77q29.55-.06,59.11,0c28,.07,33.33,4.28,40.17,31.48q13.1,49.14,26.22,98.29c1,2.76,1.91,5.53,2.84,8.31,2.76,8.14,5.08,15.46-7.73,17.4-7.36,1.11-3,7.3-2,10.82,7.09,24.43,14.57,48.76,21.94,73.1.59,2,1.56,3.91.4,6,2.53,5.22,5.4,10.32,6.31,16.15,1,6.33,4.77,8.23,10.14,5.4,10.72-5.69,16.23-.81,22.94,7.8A156.16,156.16,0,0,0,588.63,894l13.89,5.13c6.78,2.51,42.55,5.14,42.55,5.14a104.16,104.16,0,0,0,28.38-2.29c18.84-4.07,37.55-8.68,56.31-13.08,38.86-10,78.42-15.23,118.37-18,16.52-2.71,33.28-2.3,49.89-3.7,3.61-.3,6,.65,5.45,4.76-.77,5.74,2.59,6.22,7,6.17l97.88-.09c4.57,0,8.62-.07,7.85-6.39-.55-4.52,2.26-4.7,5.56-4.41,19.88,1.63,39.87,1.49,59.65,4.3a726.41,726.41,0,0,1,142.17,25.62c85.31,24.06,168.29-14.57,202.72-95.19,11.46-26.83,16.31-55.91,24.22-84q11.25-39.88,22.4-79.81A494.09,494.09,0,0,1,1487.12,585c3.84-12,13.88-16.63,25.72-16.77,21.69-.29,43.4,0,65.09,0,8,.66,13.74-1.38,17.61-9.65,3-6.43,10.19-6.66,16.6-4.31,8.88,3.27,11.44,10.78,11.62,19.3.29,13.42.09,26.86.36,40.28.2,10,4.18,14.39,14,14.53,21.42.3,41.46-4.14,58.14-18.75,5.81-5.09,11.72-10.08,17.58-15.12,9.51-8.76,10.42-20.33,10.17-32.09-.3-14.23,1.06-27.72,9.39-40.12,4.8-7.15,2.74-16.23,3.28-24.52C1737,493.63,1737.1,489.46,1737.3,485.32ZM1196.82,121.13c4.34-.38,5.61,2.42,6.24,5.88-.25,4.27-2.29,6.75-6.64,6.91-4.09.16-6-2.15-6.15-6C1190.07,123.43,1192.66,121.49,1196.82,121.13Zm-13.65,8.65c-.79,3.73,7.84,7.21.55,10.17-27.26,11.1-54.69,21.8-82.07,32.63a16.06,16.06,0,0,1-2.42.57c-5.31-.14-7.43-3.66-8.63-7.85-1.27-4.43.39-7.47,4.84-9q41.18-14.59,82.31-29.28C1180.57,126,1184,125.79,1183.17,129.78ZM987.84,153.92l159.84-26c-6.13,5.74-14,6.89-21.06,10-36.54,15.94-75.94,19.21-114.61,25.56-8.67,1.42-15.29-7.23-24.35-6.69C987.72,155.81,987.79,154.87,987.84,153.92Zm-188.61,10.8c-13.4-5.38-26.89-10.53-40.33-15.78.12-.79.27-1.58.41-2.39l56.1,9.31C812,170,812.05,169.87,799.23,164.72Zm23.93,8.09c-3.16.45-4.07-2.13-3.57-4.77.84-4.34,1.49-9.33,6.73-10.49,4.1-.92,3.6,2.8,3.87,5.85C829.81,167.65,828.63,172,823.16,172.81Zm-97.49-38.58c-4.86-.78-8-2-7.35-7.59.68-5.89,4.68-6.08,9.24-5.8l256.35,41.62c22.41,4.22,31.77,15,32.42,37.85.38,13.71.07,27.45.07,41.18-.84,17.27.79,34.6-1.22,51.86-2.67,23-24.31,43.54-47.41,45.3a68,68,0,0,1-18.12-.78c-25.42-4.64-43.77-27.19-44.81-55-.06-1.49,0-3,0-3.61-3.11-37.89,38.17-69.6,76.9-52.76,4.69,2,7.86,3.72,5.31,9.69-2.78,6.58-6.33,2-9.27.88-23.66-9.44-48-1.19-57.78,21.71-9.41,21.95-4,56.54,24.73,65.51a22.5,22.5,0,0,0,6.93,1.4l15.23.65c20.74.32,38.19-20.35,37.37-42-.92-24.46-1.17-49,0-73.41,1.34-27.93-12.27-35.67-34.43-37.57ZM994.12,296.76c-.7,8.25-7.89,17.6-17,20.66-15.1,5.1-29.67,4.52-42.07-7.93C958.33,321.71,977.76,317.21,994.12,296.76Zm-59.74-19.83c-.23-6.87-.16-13.74,0-20.61.12-7.62,14-17.88,21.29-15.89l12.13.68c16.15,5.08,17.58,6.48,17.49,23.41,0,5.35-.29,10.69-.64,16-.53,7.43-4.83,12.67-10.55,16.77-13.12,8.33-24.19,2.71-24.19,2.71C939.82,295.65,934.72,287.79,934.38,276.93Zm55.92-54.17a68.2,68.2,0,0,0-23.73-7.25c-14.09-1.54-32,4.77-32,4.77-11.29,4.88-11.27,4.92-11.23-7,0-1.18.07-2.39,0-3.57-1.32-26.43,9.17-26.32,30.25-29.69a112.24,112.24,0,0,1,14.23.07c12,3,26.1,2.24,28.59,18.77,1,6.71.29,13.68.29,20.54C996.76,224.5,993.92,224.62,990.3,222.76Zm-85.36-29a45.13,45.13,0,0,1,.6-8c2.7-13.85,11.53-17.17,28.86-9.69-21.71,8.19-18.33,26.18-17.67,42.54.43,10.69-3,18.75-10.84,25.71-3.17-3.72-1.25-7.68-1.27-11.34C904.53,219.94,904.76,206.86,904.94,193.78ZM706.48,313.64c37.39-3.93,74.77-7.75,112.19-11.14,24.71-2.24,35.29-12.9,35.77-37.58.13-6.57.09-13.14.4-19.7s3.55-10.73,10.44-11.05c9.53-.42,19.07-.6,28.6-.88,4.5-.13,4.3,3,4.25,6.1-.18,14.33-.49,28.66-.4,43,.16,25.83,10.87,45.94,34.7,56.79,25.11,11.45,49.49,9,71-9.23,13.86-11.72,19.57-27.45,19.77-45.25.16-14.94.18-29.87-.27-44.79-.15-4.79,1.09-6.5,5.79-6.32,8.36.33,16.72.45,25.08.54,8,.07,11.05,4.75,11.21,12,.15,6.86,0,13.73.09,20.6.25,21.36,10.66,33.06,32.17,35.34,41.82,4.43,83.65,8.75,125.5,12.63,6.62.61,7.31,2.44,5.69,8.12-1.87,6.57-2.76,13.4-4.14,20.11-1.58,7.66-6.08,11.07-14.09,10.18-26.67-3-53.37-5.89-80.08-8.53-19.84-1.95-39.72-6-59.7-1.84-16.42,3.41-30.62,11.44-43.06,22.6-11.05,9.94-23.57,17.22-37.94,21.08,0,0-9.94,3.84-28.2,3.84s-30.91-3.59-30.91-3.59c-14.87-4.29-27.77-12.16-39.3-22.37C871,346.52,847.72,338.65,821,341.5,788.05,345,755.17,349,722.18,352c-23.59,2.17-25.12,4.18-28.69-20.18C691.09,315.54,690.41,315.33,706.48,313.64ZM357.54,554.05c-9.62-.33-18-.15-26.48-8.35-15.45-15-43.16-4.55-47.85,16.67-3.19,14.46-1.54,29.17-1.32,43.74.09,7.46-2.35,8.5-9.08,8.32-26.08-.74-43.09-17-59.85-33.85-3.06-3.07-3.26-7.57-3.12-11.81.61-18.62-.32-36.56-10.31-53.56-5.44-9.28-2.07-21.06-1.9-31.74q-.13-51-.24-101.91c0-4.9.33-9.44,7.48-9.4q78.69.29,157.33.23c1.53-.21,1.67.59,1.33,1.76q-.11,53.76-.22,107.49c.15,22.09.18,44.17.49,66.25C363.87,552.63,362.13,554.19,357.54,554.05Zm21.58-90.46a.15.15,0,0,0-.09,0q0,40.32,0,80.66a71.3,71.3,0,0,1-.29,7.16c-.25,2.76-2.35,3.06-4.57,3.12s-3.11-1.35-3.21-3.36c-.07-1.79-.11-3.58-.13-5.38q0-83.35,0-166.71c0-2.71-2.22-7,3.61-7.21,6.24-.27,4.59,4.39,4.61,7.46C379.17,407.44,379.12,435.52,379.12,463.59ZM497.86,826.87c-4.34,1.49-5.9,1.09-7.32-3.79q-12.72-44.13-26.42-88c-1.47-4.75-.43-6.31,3.91-7.59,21.38-6.33,42.69-12.82,64-19.3,4.34-1.31,7.57-1.94,9.33,4.14,8.27,28.55,16.7,57,25.82,85.31,2.11,6.54.25,8.48-5.3,10-9.15,2.46-20.14,9.47-26.8,6.51-6.13-2.72-7.62-16-11.07-24.66-1.2-3.05-2-6.25-3.19-9.3-.81-2.08-1.15-5.2-4.49-4.34-2.69.72-1.56,3.45-2,6.1a91.24,91.24,0,0,0,12.61,29.53c2.76,4.29,3.37,6.22-2.56,7.61C515.42,821.18,506.58,823.89,497.86,826.87Zm88.87-92.71c4.95.16,2.77-4.36,2.84-6.78.3-10.14.57-20.31.09-30.43-.25-5.31,1.38-7.1,6.53-8.11,8.7-1.72,17.2-4.52,25.79-6.85,8.69-3.93,18.07-5.78,27-9,8.52-3,12.18.66,14.38,8.11q9,30.32,18.18,60.61c1.43,4.85,2.87,9.69,4.26,14.55,3.2,11,2.25,13-8.46,16.19C646,782,614.61,791.21,583.4,801.05c-6.37,2-8.24.31-9.55-5.5-2-8.95-4.73-17.78-7.16-26.66q-9.53-30.17-19.1-60.35c-1.26-3.93.56-5.35,4-6.3,8.88-2.47,17.84-4.77,26.52-7.85,5-1.8,5.43-.31,5.24,4.16-.43,9.54-.38,19.09-.43,28.65C582.86,730.21,583,734.05,586.73,734.16ZM897.86,853.6a912.12,912.12,0,0,0-159,17.69c-25.53,5.86-50.25,15.32-76.5,17.81-55.43,5.28-100.28-15-135.85-57.21-4.24-5-1.62-6.19,2.9-7.51q23.55-6.84,47-14c4.75-1.48,7.12-1.33,6.76,4.8-.54,9.22-.34,18.52-.21,27.77,0,2.89.3,6.68,4.48,6.28s2.33-4.14,2.37-6.42c.14-9.85.34-19.73-.14-29.56-.27-5.55,1.79-7.49,7-9,27.43-7.93,54.74-16.31,82.06-24.65,15-4.56,18.44-10.41,14.15-25.24q-11-38.19-22.8-76.14c-3.62-11.69-9.87-15-21.78-12.12-8.11,1.95-16.09,4.37-24.13,6.58q-54.24,16.52-108.53,33a16.82,16.82,0,0,1-3.5.33c-8.13,2.72-16.31,5.31-24.38,8.23-5.11,1.85-5.18-1.76-6-4.9q-13.22-48.64-26.47-97.28c-2.54-9.37-4.57-18.89-7.48-28.15C441.84,565,427,554.24,407,553.74c-6-.16-11.91-.25-17.87-.38-5,.31-2.9-3.05-2.74-5.4.07-1.13.12-2.27.19-3.4a9.91,9.91,0,0,1,.26-7.34,6.1,6.1,0,0,1,.07-5.26,356.09,356.09,0,0,1-.22-48.56c-1.47-35.5-.36-71-.66-106.51,0-3.35.89-5,4.5-4.84s7.18-.32,10.75,0c32,2.48,62.73-2.47,93.08-12.82,26.48-9,53.93-14.89,81.11-21.64,5.9-1.47,8.31-.28,9,5.62.66,5.45-.43,8.05-6.87,8-11.14-.08-21.46,4.59-32.15,7.12-2.22.54-5.2,1.67-4.2,4.57s3.88,1.67,6.23,1.29a151.32,151.32,0,0,0,30.16-7.76c5.29-2,5.57.1,5.38,4.09,0,.3,0,.61,0,.89.11,16.11.11,16.1-15.35,20.11-16.44,4.26-32.74,9-49.28,12.71-32.1,7.13-55.9,24.16-68.61,55.19-10.42,29,.65,56.05,7.49,83.55,5.13,20.63,12.7,40.58,16.41,61.59,1.58,5.4,3.18,10.79,4.77,16.21.77,1.72,3,4-.28,5-4.15,1.22-3.48-2.76-4.35-5-4.05-3.26-6.44-1.57-5.75,2.91,1.77,11.73,5.79,22.91,9.74,34.07.61,1.7,2.2,2.92,4.27,1.95a3.81,3.81,0,0,0,2.06-4.52,130.52,130.52,0,0,0-3.66-12.7c-1.15-3.23-2.85-6.26-.83-11.8,7.79,15.07,19,23.41,35,24.2l66.34,0c1.5-.27,1.72.58,1.52,1.78.14,8.36.22,16.72.49,25.06.09,2.67.35,5.85,4.21,5.43,3.59-.37,2.51-3.49,2.55-5.68.14-7.16.34-14.34,0-21.49-.17-4.38,1.37-5.64,5.62-5.51,11.32.36,22.66.34,34,.47A81.9,81.9,0,0,1,717.1,726c.18,18.52.7,37.05,0,55.54-.81,20.58,5.53,38,19.66,52.8,4.72,3.08,9.48,6.12,14.14,9.27,1.17.79,3.1,2.14,3,2.91-2,10.71,6.06,6.4,9.87,6,31.7-3.57,63.3-7.76,95-11.42,11.53-1.35,23.17-1.78,34.78-2.68,6.37-.48,9.19,2.84,10,8.78C904.17,851.81,902.72,853.47,897.86,853.6ZM1010,838.33c0,8.56-.72,17.24-.66,25.85,0,4.67-.7,7.05-6.25,6.86-13.38-.49-26.8-.38-40.2-.49-15.75.15-31.5.22-47.25.54-3.89.07-5.13-1.15-5-5.08.35-9.49-.41-18.94-1-28.41-.43-6.73-3-6.51-8-6.66-17.3-.55-34.32,2.78-51.54,3.21-22.46,2.71-45.05,4.65-67.35,8.31-26.15,4.29-58.05-22.21-58.27-52.64-.16-20.29,0-40.57-.25-60.86-.1-7.74-.32-15.54-1.75-23.15C717.14,677.51,695,653,664.38,641.9c-12-4.36-24.53-4.17-36.89-5.55-39.59-.14-79.17,1.55-118.74-.09-10.67-.45-17.06-7.19-19.77-16.68-12.23-43.13-24.61-86.24-35.16-129.83a34.55,34.55,0,0,1-.4-6.21c-3.19-10-.14-19.62,2.95-28.74,8.46-25,25.33-42.28,50.94-49.76,22.27-6.49,44.82-12.05,67.26-18,0,0,4.95-1.26,15.41-3.83s6-18.71,6-18.71c-3.1-13.65-5.42-27.46-8.66-41.08-1.15-4.81-.18-6,4.55-6.92q40.8-7.69,81.45-16.17c4.86-1,6.21-.05,6.8,4.7l8,37.6c3.36,15.11,8.86,19,23.7,17.5,37.08-3.83,74.14-7.79,111.24-11.52,22.84-2.3,43.09,4.07,60.31,19.32,14.28,12.65,30,22.41,49,26.19a135.13,135.13,0,0,0,28.84,3.61c13.24,0,28.15-4,28.15-4A88.9,88.9,0,0,0,1030.84,372c21.69-20.29,47-26.44,75.92-22.78,34,4.31,68.16,7.57,102.24,11.18,13,1.38,21-4.42,22.5-17.17l5.7-25.69c3.89-18.5,3.86-18.37,22.14-14.59,22.73,4.69,45.48,9.39,68.31,13.48,5.15.91,5.65,2.72,4.72,7,0,0-6.46,32.83-8.66,46s19.23,17.24,19.23,17.24c24.39,6.59,49.1,12.27,73.15,20,38.11,12.15,59.76,54.86,47.56,91.47-6.46,24.46-12.86,48.93-19.43,73.34-3.39,12.63-7.08,25.17-10.65,37.76.09,2.66-2.12,4.36-2.46,7.22a22.29,22.29,0,0,1-20.86,19.89c-24.47,1.33-49-.13-73.45.52-28.4.77-57.46-4.18-85.07,6.6-33.56,13.1-55.09,44.12-56,80.23-.59,23.88,1.13,47.81-1.29,71.63-2.83,28-30.73,50.91-58.39,47.31-18.32-2.37-36.49-5.65-54.84-7.77-21.17.16-42-4.45-63.28-3.93C1012.29,831,1010,831.26,1010,838.33Zm505-284.46c-24,.32-38.43,11.94-44.51,35.88-2.64,10.31-4.81,20.77-8.79,30.69-6.73,31.45-16.52,62.07-24.6,93.14-5.45,21-11.44,41.91-17,62.92C1398.6,858.16,1315.54,907.1,1234,885a941.75,941.75,0,0,0-150.89-28.19c-5.53-.57-11.25,1-16.58-1.59-14.26-.58-28.52-1.06-42.78-1.76-3-.15-7.72,1.92-7.47-4.42.24-5.57,1.48-10.51,8.24-10.33a261.05,261.05,0,0,1,29.33,2c9.11,1.29,18.46.57,27.38,3.33q29.91,3.51,59.86,7c5,.59,10.06,1.42,15.1,1.54,4.24.09,10.88,3.3,9.64-6.08-.31-2.28,2.72-2.87,4.45-3.89,21.38-12.58,32.14-31.34,32.4-56,.21-20.31-.09-40.64.25-60.94.77-45.43,35.39-80.07,80.8-81,13.43-.27,26.89.11,40.32-.23,4.83-.13,6.32,1.5,6.1,6.13-.32,7.16-.23,14.33-.21,21.49,0,2.23-.9,5.06,2.83,5.42,4,.39,3.29-2.71,3.43-4.83.36-5.95,1.29-12,.47-17.86-1.31-9.17,2.45-10.84,10.69-10.48,14.91.65,29.87,0,44.81.23,27.56.47,40.51-1.68,49.71-35.43,8.85-33.81,17.29-67.76,28.09-101,.94-9.46,4.63-18.48,4.45-28.1a142.16,142.16,0,0,0-5.41-32.29c-12.35-30.31-36.06-46.08-67-53.22-19.11-4.4-37.94-10.1-57.08-14.39-7.13-1.6-9.69-4.67-8.74-11.55a33.44,33.44,0,0,0,0-8.06c-.55-5.11,1.6-5.17,5.74-4,10,2.87,20.06,5.32,30.14,7.78,2.46.61,6,1.71,6.55-2,.43-2.82-3-3.45-5.11-4-11-2.65-21.53-7.41-33-7.07-9,.26-4.23-5.93-4.58-9.34-.5-5,2.39-5.69,6.89-4.52,26.19,6.8,53,11.75,78.49,20.77a249.77,249.77,0,0,0,103.6,13.85c7.35-.57,8.65,2,8.61,8.77-.27,48-.09,96.09-.09,144.13,0,3-.29,5.94-.45,8.91C1534.39,553.63,1534.39,553.63,1515,553.87Zm34.24-91h0c0,27.77,0,55.54-.07,83.33,0,3.24,1.41,8.1-4.17,8.14s-4.37-4.7-4.37-8.07q-.09-83.77,0-167.52c0-3.12-1-6.89,4.27-7s4.4,3.84,4.4,6.89C1549.26,406.74,1549.22,434.8,1549.22,462.88Zm173.42,19.64c0,8.06-.36,16.11-.53,24.18a25.42,25.42,0,0,1-3.83,13.57c-6.33,9.84-8.48,20.72-8.39,32.39,0,9.39,3,20.08-3.68,27.79-11.18,12.79-23.54,24.71-40.31,30.3-7.1,2.37-14.49,3.23-22,3.7-4.86.3-6.16-1.47-6.12-6.07.11-13.13,0-26.28-.36-39.41-.38-14.73-8.83-23.66-22-28.43-12.4-4.51-22.75-.34-31.49,8.88-3.23,3.42-22,6.71-25.94,4.41-3-1.74-1.67-4.83-1.68-7.28-.11-28.08-.08-56.15-.08-84.23h.06c0-27.79.16-55.56-.13-83.35,0-5.41,1.19-7.06,6.84-7.05,49.89.26,99.78.38,149.67,0,10.4-.07,9.9,6.46,9.94,12.92C1722.77,417.4,1722.7,450,1722.64,482.52ZM973.44,377.16c3,.45,13-2.62,13-2.62,2.56-.73,5.14-1.47,7.64-2.42,2.06-.79,3.85-2.28,3.33-4.68-.75-3.39-3.78-2.51-5.86-2.06-6.69,1.45-13.4,2.94-19.92,5a9.18,9.18,0,0,0-3.12,2.35C967.5,374.15,970.37,376.71,973.44,377.16Zm-47.61-5a56,56,0,0,0,7.69,2.21l5,1.49c5.8,1.68,13.64,2.27,14.12-1.3s-6.71-4.57-6.71-4.57c-6.06-1.51-12-3.32-18.13-4.74-1.92-.45-4.51-.8-5.44,1.72C921.2,370,923.6,371.28,925.83,372.14Z"/><path class="cls-2" d="M1416.09,406.6c-24-7.68-48.76-13.36-73.15-20,0,0-21.46-4-19.23-17.24s8.66-46,8.66-46c.93-4.24.43-6-4.72-7-22.83-4.09-45.58-8.79-68.31-13.48-18.28-3.78-18.25-3.91-22.14,14.59l-5.7,25.69C1230,356,1222,361.79,1209,360.41c-34.08-3.61-68.24-6.87-102.24-11.18-29-3.66-54.23,2.49-75.92,22.78a88.9,88.9,0,0,1-41.51,21.71s-14.91,4-28.15,4a135.13,135.13,0,0,1-28.84-3.61c-19-3.78-34.72-13.54-49-26.19-17.22-15.25-37.47-21.62-60.31-19.32-37.1,3.73-74.16,7.69-111.24,11.52-14.84,1.52-20.34-2.39-23.7-17.5l-8-37.6c-.59-4.75-1.94-5.72-6.8-4.7q-40.63,8.5-81.45,16.17c-4.73.88-5.7,2.11-4.55,6.92,3.24,13.62,5.56,27.43,8.66,41.08,0,0,4.49,16.15-6,18.71s-15.41,3.83-15.41,3.83c-22.44,5.92-45,11.48-67.26,18-25.61,7.48-42.48,24.76-50.94,49.76-3.09,9.12-6.14,18.75-2.95,28.74a34.55,34.55,0,0,0,.4,6.21c10.55,43.59,22.93,86.7,35.16,129.83,2.71,9.49,9.1,16.23,19.77,16.68,39.57,1.64,79.15,0,118.74.09,12.36,1.38,24.94,1.19,36.89,5.55C695,653,717.14,677.51,722.45,705.81c1.43,7.61,1.65,15.41,1.75,23.15.29,20.29.09,40.57.25,60.86.22,30.43,32.12,56.93,58.27,52.64,22.3-3.66,44.89-5.6,67.35-8.31,17.22-.43,34.24-3.76,51.54-3.21,5,.15,7.53-.07,8,6.66.61,9.47,1.37,18.92,1,28.41-.12,3.93,1.12,5.15,5,5.08,15.75-.32,31.5-.39,47.25-.54,13.4.11,26.82,0,40.2.49,5.55.19,6.27-2.19,6.25-6.86-.06-8.61.66-17.29.66-25.85,0-7.07,2.33-7.32,8-7.46,21.24-.52,42.11,4.09,63.28,3.93,18.35,2.12,36.52,5.4,54.84,7.77,27.66,3.6,55.56-19.36,58.39-47.31,2.42-23.82.7-47.75,1.29-71.63.9-36.11,22.43-67.13,56-80.23,27.61-10.78,56.67-5.83,85.07-6.6,24.43-.65,49,.81,73.45-.52a22.29,22.29,0,0,0,20.86-19.89c.34-2.86,2.55-4.56,2.46-7.22,3.57-12.59,7.26-25.13,10.65-37.76,6.57-24.41,13-48.88,19.43-73.34C1475.85,461.46,1454.2,418.75,1416.09,406.6ZM576,559.21c-23.25,0-42.16-20.34-42.16-45.35s18.91-45.35,42.16-45.35,42.16,20.34,42.16,45.35S599.24,559.21,576,559.21ZM821.87,761.73c-23.24,0-42.14-20.34-42.14-45.35S798.63,671,821.87,671,864,691.37,864,716.38,845.12,761.73,821.87,761.73Zm276.26,0c-23.25,0-42.15-20.34-42.15-45.35s18.9-45.37,42.15-45.37,42.16,20.36,42.16,45.37S1121.38,761.73,1098.13,761.73ZM1344,559.21c-23.23,0-42.14-20.34-42.14-45.35s18.91-45.35,42.14-45.35,42.16,20.34,42.16,45.35S1367.26,559.21,1344,559.21Z"/><path class="cls-1" d="M1325.11,735.06a27.43,27.43,0,0,1-27.43,28c-14.8.15-26.58-11.81-27-27.47a27.18,27.18,0,0,1,26.59-27.92C1312.84,707.23,1324.8,719,1325.11,735.06Zm-6.74.29c-.21-11.06-9.74-20.53-20.61-20.48s-20.33,9.78-20.21,20.79c.12,10.71,10.27,20.42,21,20.13C1308.86,755.53,1318.56,745.49,1318.37,735.35Z"/><path class="cls-1" d="M1329.89,827.55c0-5.66,0-11.33,0-17,0-1.83.17-3.79,2.59-3.84A3.28,3.28,0,0,1,1336,810a204.41,204.41,0,0,1,0,36.61c-.22,2.42-1.78,2.8-3.72,2.68-2.54-.15-2.42-2-2.4-3.82C1329.92,839.47,1329.89,833.51,1329.89,827.55Z"/><path class="cls-1" d="M1330,712.93c0-5.63,0-11.26,0-16.89,0-1.89-.92-4.5,2.49-4.45,2.63,0,3.61,1.91,3.7,4.14.49,11.83,1.37,23.66-.13,35.49-.26,2-.87,3.38-3.17,3.27-2.55-.12-2.54-2.06-2.56-3.8-.05-5.92,0-11.84,0-17.76Z"/><path class="cls-1" d="M1379.48,829.5a9.44,9.44,0,0,1-1.07,3c-7,9-14.82,17.15-25.38,22-1.58.72-4.06,2.52-5.57,0-1.06-1.76.64-3.45,1.87-4.56q12.6-11.37,25.41-22.52C1377.1,825.37,1379.05,825.34,1379.48,829.5Z"/><path class="cls-1" d="M1298.44,875.63c-2.25.24-4.49-.19-4.91-2.62-.49-2.86,1.41-4,4.18-4.51a196.9,196.9,0,0,0,31-7.36c2.45-.83,5.09-1.32,6.1,1.45s-1.52,3.91-3.81,4.86C1320.51,871.76,1309.41,873.43,1298.44,875.63Z"/><path class="cls-1" d="M1330.19,770c0-5.94,0-11.89,0-17.83,0-1.79.09-3.75,2.63-3.75,2.17,0,3,1.35,3.19,3.41.92,11.85,1.76,23.7.11,35.57-.29,2.12-.69,4.34-3.51,4.2-3.11-.15-2.63-2.71-2.66-4.67-.09-5.64,0-11.29,0-16.93Z"/><path class="cls-1" d="M1185.11,851.5c11.94,2.41,22.67,4.59,33.41,6.73,2.5.5,4.93,1.26,4.3,4.4-.49,2.5-2.8,3-5,2.56-11-2.17-22-4.47-33-6.71-2.72-.55-4.44-2-3.69-4.9S1184.24,851.36,1185.11,851.5Z"/><path class="cls-1" d="M1272.36,876.86c-11.17-.84-21.14-2-30.64-5.62-2.56-1-5.73-1.94-4.77-5.19,1.09-3.67,4.23-2,6.72-1.17,9,2.89,18.45,4.07,27.79,5.52,2.8.44,6.93-.06,6.46,4.11C1277.53,878,1273.63,876.4,1272.36,876.86Z"/><path class="cls-1" d="M1405.46,783.06c-2.48,9.89-7.89,20.43-14,30.62a3.55,3.55,0,0,1-2.94,1.36c-1.92-.31-2-2.11-1.48-3.53q6.27-16.71,12.74-33.34c.56-1.44,2-2.79,3.45-2.27C1405.49,776.71,1405.67,779,1405.46,783.06Z"/><path class="cls-1" d="M1445.59,611.5c1.32-1,2.08-3.51,4.08-2.56,2.91,1.38,2.26,4.37,2.14,7-2.83,9.48-5.61,19-8.55,28.43-.74,2.37-1,6.27-4.4,5.54-4-.85-1.64-4.28-1.08-6.62C1440.32,632.66,1443,622.08,1445.59,611.5Z"/><path class="cls-1" d="M1420.69,727.53c-2.9,9.06-6.18,19.24-9.37,29.45-.67,2.11-2.13,3-4,2.52-2.54-.63-1.6-2.89-1.23-4.39,2.5-10.1,5-20.2,7.87-30.21.56-2,1.24-5.29,4.61-4.15C1420.93,721.56,1420.43,724.17,1420.69,727.53Z"/><path class="cls-1" d="M1421.86,706.17c.55-14.53,4.19-27.34,9.45-39.78a4.18,4.18,0,0,1,2.58-2.13c1.31-.28,1.8,1,2.17,2.19C1437.7,671.83,1427.79,701.18,1421.86,706.17Z"/><path class="cls-1" d="M1080.51,313.14c3.84.15,7.75-.38,11.44,1.34,2,1,3.87,2,3,4.61-.63,1.94-2.39,2.64-4.34,2.18-10.19-2.38-20-1.33-29.76,2.41-2,.78-5.1,1.51-6.07-1.63-.89-2.9,1.55-4.26,3.84-5.1C1065.7,314.34,1072.93,312.69,1080.51,313.14Z"/><path class="cls-1" d="M1177.33,321.93c9.56.86,18.72,1.61,27.86,2.56,2.62.27,5.65.71,5.08,4.6-.52,3.58-3.49,2.7-5.62,2.53-8.84-.71-17.67-1.6-26.5-2.53-4-.42-10.28,0-9.92-5C1168.65,318.45,1174.6,323.74,1177.33,321.93Z"/><path class="cls-1" d="M1041.37,331.17c-.64,1.26-1,2.53-1.75,3.34-7.63,7.88-14.27,16.73-23,23.51-1.68,1.3-3.7,2.83-5.52,1s-.21-4,1.13-5.43q11-11.67,22.27-23.07c1.47-1.49,3.48-2.43,5.65-1.4C1040.73,329.45,1041,330.5,1041.37,331.17Z"/><path class="cls-1" d="M741.91,321.94c2.75,1.48,8.63-3.58,9.25,2,.58,5.15-5.62,4.82-9.65,5.2q-12.87,1.23-25.77,2.21c-2.45.18-6.09,1.5-6.43-2.47s3.24-4.48,6.27-4.75C724.18,323.35,732.79,322.69,741.91,321.94Z"/><path class="cls-1" d="M787.14,324.18c-4.75.38-9.49.77-14.24,1.13-2.46.18-5.11.27-5.3-3.08-.16-2.81,2.28-3.21,4.34-3.37,10.37-.8,20.66-2.82,31.12-2.26,2.17.12,5.21-.72,5.47,2.91.27,3.83-2.42,4.2-5.32,4.19-5.35,0-10.71,0-16.07,0Z"/><path class="cls-1" d="M840.38,313.15A46.92,46.92,0,0,1,861.27,317c2.47,1.06,3.89,3,2.81,5.7s-3.34,1.81-5.3,1c-9.66-3.7-19.53-5-29.73-2.7-1.93.44-3.67.4-4.12-1.93-.38-2,.71-3.32,2.37-4.37C831.43,312.2,836,313.49,840.38,313.15Z"/><path class="cls-1" d="M881.47,328.45c1.61,1,3.65,1.79,5,3.21,7,7.22,13.91,14.6,20.82,21.93,1.46,1.55,3,3.57,1.46,5.41-1.74,2.07-3.87.29-5.46-.91-9.06-6.86-16.15-15.65-23.41-24.25C878.32,331.94,877.43,329.55,881.47,328.45Z"/><path class="cls-1" d="M1124.45,316.56c7,.67,14.41,1.37,21.81,2.1,2.6.26,6.34,0,6.21,3.43-.16,4.28-4.32,3.24-7,3.13-9.23-.39-18.44-1-27.66-1.66-2.85-.2-6.72.08-6.43-4.22.27-4,4-2.46,6.42-2.73A63.62,63.62,0,0,1,1124.45,316.56Z"/><path class="cls-1" d="M571.93,852.76c-.31,3.34-2,3.41-4.38,2.42-11.67-4.94-19.65-14.06-27-23.86a2.78,2.78,0,0,1,.53-4,2.27,2.27,0,0,1,3.2-.16q13.5,11.6,26.88,23.34C571.71,851,571.72,852.14,571.93,852.76Z"/><path class="cls-1" d="M625.92,871.4c-.31,4.12-2.34,4.77-4.5,4.35-11-2.17-22.12-3.89-32.46-8.52-2.11-.94-4.91-2.29-3.9-5s3.83-1.57,6.17-1q15,3.75,30.14,7.24C623.81,869.07,626.26,869.24,625.92,871.4Z"/><path class="cls-1" d="M736.87,851.29c3.17,2.48,3.07,4.88-.59,6.51-2.62,1.17-5.54,1.67-8.32,2.47-8.33.58-16.31,2.88-24.41,4.66-2.31.51-5.79,1.85-6.52-2.21-.6-3.38,1.75-4.39,4.82-4.92C713.55,855.77,725.2,853.48,736.87,851.29Z"/><path class="cls-1" d="M645.47,877.16c-.65,0-3.38.11-3.42-3.23,0-2.6,2.16-3.1,4.35-3.4,10.55-1.46,21.09-2.91,31.24-6.34,1.84-.62,4.35-1.47,5.22,1.38s-1.38,4-3.66,5.08C669,875.32,658.05,875.8,645.47,877.16Z"/><path class="cls-1" d="M1481.38,512.16c-2.57,7.83-5,15.71-7.8,23.46-.71,2-1.64,5.17-4.66,4.21-2.81-.89-2.33-3.89-1.79-6.15,1.83-7.74,3.85-15.43,5.8-23.13l.44-.76c2.25-3.69,1.24-11.87,6.44-10.61C1486.23,500.74,1480.47,507.69,1481.38,512.16Z"/><path class="cls-1" d="M1398.65,365.13a103.34,103.34,0,0,1,30.5,13.48c1.7,1.14,3.74,2.89,2.6,5.11-1.36,2.64-4.26,1.87-6.34,1-9.52-4.11-19-8.39-28.38-12.77-2.17-1-4.35-2.68-3.4-5.52C1394.37,364.22,1396.63,365.29,1398.65,365.13Z"/><path class="cls-1" d="M1467.88,428c-6.38-2.1-8.34-8.2-11.93-12.63-4.1-5.09-8-10.37-11.77-15.7a4.52,4.52,0,0,1-.28-5.06c.79-1.27,2.13-.67,3.18-.29C1454.46,397,1468.46,419.42,1467.88,428Z"/><path class="cls-1" d="M1477.09,476.37q-2.86-14.39-5.72-28.76c1-2,1.11-5.13,4.18-5s3.25,2.93,3.7,5.27c1.68,8.75,3.68,17.45,4.93,26.25.43,3,2.85,7.93-1.88,9.11S1479.21,478.46,1477.09,476.37Z"/><path class="cls-1" d="M525.76,367.56a4.47,4.47,0,0,1-3.46,4.62c-9.45,2.82-18.1,7.39-26.73,12-2.1,1.12-5.06,2.2-6.59.08-1.78-2.46.92-4.26,2.73-5.67,8.82-6.88,19.09-10.7,29.74-13.6C523.48,364.48,525.82,364.22,525.76,367.56Z"/><path class="cls-1" d="M476,397.92a17.82,17.82,0,0,1-1.65,3.18q-8.94,12.19-18.05,24.27c-1.2,1.58-2.81,3.66-5.09,1.92-1.71-1.3-.64-3.27.12-4.86a86.58,86.58,0,0,1,19.81-27.13c1.16-1.06,2.36-1.91,3.94-1.17C476.33,394.7,476.61,395.83,476,397.92Z"/><path class="cls-1" d="M447.42,449.38c-.86,9.27-4.06,18.17-3.36,27.79.29,4-2.65,8.93-8.64,4.52,1.43-10.19,2.67-20.4,4.4-30.53.67-3.86,1.44-8.16,5.9-10.16C447.87,443.61,447.61,446.5,447.42,449.38Z"/><path class="cls-1" d="M514,755.43c-.18,2.07-.31,3.9-2.5,4.45-1.67.41-2.85-.88-3.3-2.33-3.22-10.44-6.41-20.88-9.44-31.38-.48-1.66-.22-3.79,2-4.3,2.88-.65,4.5,1.15,5.19,3.64C508.72,735.46,511.35,745.45,514,755.43Z"/><path class="cls-1" d="M597.07,748.81c-7.54-21.84.54-36.17,23.36-41.45,19,2.26,29.72,13.1,28.75,29.59-.67,11.52-7,19.57-17.36,23.87s-20.43,2.53-28.86-5.39C600.81,753.41,599,751,597.07,748.81ZM642,736c.21-10.93-9.08-21-19.7-21.24s-20.51,9.1-20.94,20.11c-.42,10.82,8.93,20.72,19.84,21A20.36,20.36,0,0,0,642,736Z"/><path class="cls-1" d="M582.53,765c.4-4.61.29-9.33,1.32-13.79,1.16-5,3.79-4.36,6.25-.56-.11,11.56-.21,23.12-.36,34.69,0,2.3.46,5.67-2.41,5.85s-4.19-2.89-4.29-5.76C582.81,778.59,582.7,771.78,582.53,765Z"/><path class="cls-1" d="M498.55,698.62c-.66,2.32,1.19,6.18-2.84,6.41-2.63.15-3.56-2.78-4.2-5.13-2.55-9.46-5.17-18.9-7.57-28.39-.61-2.4-2-5.87,1.87-6.62,3.61-.7,4,3.1,4.74,5.42,2.3,7,4.26,14.07,6.35,21.11A11.43,11.43,0,0,0,498.55,698.62Z"/><path class="cls-1" d="M441.72,524.47c-.75-8.57-6.17-16.81-1.51-27.5,7.24,13.34,10.74,26.44,12.66,39.86.64,4.42-3.35,3.54-6.16,1.81Q444.21,531.54,441.72,524.47Z"/><path class="cls-1" d="M452.16,555.29c2.58-2.31,5.18-2.09,6.14,1.2,3.69,12.62,9.77,24.64,9.83,38.2-3.09,1.12-5.41,0-6.36-2.92C457.91,579.79,453,568.06,452.16,555.29Z"/><path class="cls-1" d="M1467.37,558.63c-2.16,11.88-6.21,22.71-9.87,33.65-.62,1.83-2,3.23-4,2.68-2.16-.59-2.07-2.73-1.82-4.48,1.69-11.8,5.8-22.92,9.79-34.06.6-1.69,1.65-3.49,3.85-2.66C1467.86,554.7,1467.25,557.06,1467.37,558.63Z"/><path class="cls-1" d="M821.87,671c-23.24,0-42.14,20.36-42.14,45.37s18.9,45.35,42.14,45.35S864,741.39,864,716.38,845.12,671,821.87,671Zm0,83.55c-19.29,0-35-17.14-35-38.18s15.68-38.19,35-38.19,35,17.13,35,38.19S841.17,754.56,821.87,754.56Z"/><path class="cls-1" d="M1098.13,671c-23.25,0-42.15,20.36-42.15,45.37s18.9,45.35,42.15,45.35,42.16-20.34,42.16-45.35S1121.38,671,1098.13,671Zm0,83.55c-19.28,0-35-17.14-35-38.18s15.7-38.19,35-38.19,35,17.13,35,38.19S1117.42,754.56,1098.13,754.56Z"/><path class="cls-1" d="M576,468.51c-23.25,0-42.16,20.34-42.16,45.35s18.91,45.35,42.16,45.35,42.16-20.34,42.16-45.35S599.24,468.51,576,468.51ZM576,552c-19.29,0-35-17.14-35-38.18s15.69-38.17,35-38.17,35,17.11,35,38.17S595.27,552,576,552Z"/><path class="cls-1" d="M1344,468.51c-23.23,0-42.14,20.34-42.14,45.35s18.91,45.35,42.14,45.35,42.16-20.34,42.16-45.35S1367.26,468.51,1344,468.51Zm0,83.53c-19.28,0-35-17.14-35-38.18s15.68-38.17,35-38.17,35,17.11,35,38.17S1363.3,552,1344,552Z"/><rect class="cls-2" x="1919" y="1079" width="1" height="1"/><rect class="cls-2" width="1" height="1"/><rect class="cls-2" y="1079" width="1" height="1"/><rect class="cls-2" x="1919" width="1" height="1"/></g><g id="Capa_3" data-name="Capa 3"><path d="M798.38,474.51v111H778.55V514.8L759,529.71l-16.18,12.53-16.18-12.53L707.17,514.8v70.74H687.34v-111l19.83,15.23,35.69,27.44,35.69-27.44Z"/><path d="M852.3,511.47V587H832.47V509.41A15.8,15.8,0,0,0,819,495.93h-4.44V476.26h4.28v.16a35.42,35.42,0,0,1,29.5,19.82,42.36,42.36,0,0,1,2.7,7.46,33.47,33.47,0,0,1,1,8.09Z"/><path d="M978.71,474.51v111H958.88V539.86H900.36a31.5,31.5,0,0,1-14.91-3.64,32.41,32.41,0,0,1-17.77-29V474.51h19.83v32.68a13.07,13.07,0,0,0,13,13H959V474.51Z"/><path d="M1096.71,530.19a32.74,32.74,0,0,1-23.47,55.51h-45.52a32.58,32.58,0,0,1-30.14-20A34.31,34.31,0,0,1,995,552.87a32.67,32.67,0,0,1,9.2-22.84,31.35,31.35,0,0,1-6.82-10,34.5,34.5,0,0,1-2.54-12.85,32.19,32.19,0,0,1,32-32.83h46.48a32.87,32.87,0,0,1,23,55.67Zm-24.26-9.68a12.94,12.94,0,0,0,.47-25.85h-46.79a12.93,12.93,0,0,0,.32,25.85h46Zm.16,45.53a13.07,13.07,0,0,0,13-13,12.92,12.92,0,0,0-12.21-13h-46.48a12.88,12.88,0,0,0-12.21,12.85,13.07,13.07,0,0,0,13,13h45.52Z"/><path d="M1230.1,494.5a34.27,34.27,0,0,1,2.54,12.85v45.52A32.66,32.66,0,0,1,1222.17,577a33.94,33.94,0,0,1-7.29,5.23,31.45,31.45,0,0,1-14.91,3.65h-69V566h69a13.07,13.07,0,0,0,13-13V537.48A32.44,32.44,0,0,1,1200.6,540h-46.79a32.76,32.76,0,0,1,.48-65.51h45.52a32.56,32.56,0,0,1,30.13,20Zm-88.66,12.85a13,13,0,0,0,12.37,13h46.79a13,13,0,0,0-.63-26h-45.53A13.07,13.07,0,0,0,1141.44,507.35Z"/></g></g></svg>