<svg xmlns="http://www.w3.org/2000/svg" viewBox="0 0 1920 1080"><defs><style>.cls-1{fill:#f2f2f2;}.cls-2{fill:#010101;}</style></defs><g id="Capa_2" data-name="Capa 2"><g id="Capa_1-2" data-name="Capa 1"><rect class="cls-1" x="1919" y="1079" width="1" height="1"/><rect class="cls-1" width="1" height="1"/><rect class="cls-1" y="1079" width="1" height="1"/><rect class="cls-1" x="1919" width="1" height="1"/><path class="cls-2" d="M243.85,562.42a95.45,95.45,0,0,1-.13,12.77c-.58,5.83,1.85,7.36,7.36,6.92,4.47-.39,11.75-2.67,13,1,4.38,12.3,15.27,20.11,21.16,32.92-23.57,1.26-46.1,2.91-68.67,3.46-8.6.22-15.59-4.55-19-13-4-9.85-8-19.69-11.75-29.64-10.27-27.54-20.18-55.21-30.68-82.67-4.16-10.85-12.58-14.37-22.08-10.66-9.2,3.59-12.66,12.13-9.09,22.85,1.66,5,3.56,10,5.31,15,11.83,34.06,25.69,67.43,36,102,5.55,13.73,10.4,27.78,16.76,41.12,10.91,23,29.51,34.62,55.2,34.62,68.24,0,136.52-.92,204.74.44,26.62.54,51.22,10.21,69,32.16,7.66,7.54,12.17,17.27,17.91,26.16,10.59,16.42,23.42,31,36.81,45.09,25.54,22.89,53,42.94,85.22,55.3,12.7,4.87,26,8.2,39.77,12.47,0,0,30.58,4.85,44.93,5.58S779.67,874,779.67,874l53.1-8.58c24.67-5.36,49.82-6.41,74.82-8.52,11.64-1,23.38-.69,35.06-1,0,0,3.52-.26,16.36-.26s76.24,3.44,76.24,3.44c26.72,2.44,53.28,5.72,79.24,12.77a46.71,46.71,0,0,1,7.41.26c40.55,7.55,80.56,4.71,120.15-6.15,35.14-11.13,67.32-27.74,95-52.27,22.08-19.56,42-41,56.39-67.15,5-9.06,10.79-17.45,19.5-23.41,18.68-16.31,40.8-23.78,65.23-23.89,68.48-.3,137,.09,205.43-.17,26.92-.09,45.58-13.43,56-38.07,4.55-10.68,8.5-21.59,12.73-32.39q20.69-57.39,41.4-114.79c1.94-5.34,4.08-10.55,3.57-16.44-.81-9.46-7.13-14.05-15.33-15-7.33-.83-14.5.66-17,10.06-2,7.49-5.45,14.58-8.12,21.9-10.14,28-19.87,56.07-30.46,83.85-7.31,19.15-13,22.42-32.84,21.38q-25-1.35-50-3.23c-4.25-.32-8.94,1.2-13.51-2,3.16-4.16,5.59-8.11,8.73-11.36,10.83-11.16,14.82-24.17,13.79-39.71-1-15.91-.42-31.94-.08-47.91.38-17.21,5.85-22.38,23.23-22.4,6.41,0,12.77.45,18.88-2.07l4.63-3c5.17-6.09,5.68-13.45,5.74-20.95q.29-31.18.6-62.39c-.28-1.83.77-2,2.16-1.66,19.53,0,39.11-.67,58.63.25,11,.54,13.47-4.44,13-13.68,0,0-.64-21.91-.64-27.21s-7.83-15.73-7.83-15.73c-2.93-4-5.83-7.95-8.76-11.92-8.67-5.51-17.12-11.46-28.12-11.4-25.26.11-50.52-.26-75.75.32q-22.9.51-37.46,19.28c-11.25,14.63-23,29-35.46,42.6-18.94,20.65-42.85,26.2-68.78,15.61-30.38-12.43-59.76-27.18-90.42-39.06-49-18.93-98.46-36.29-149.44-49-29.23-7.3-58-16.76-88.27-19.62-8.31-.79-14.46-4.29-16.93-14-2.29-9.08-7.39-17.49-13.11-25.24-24.43-33.18-57.7-49.41-98.42-50.2-29.87-.57-59.74.11-89.61,0H840.87c-8.22,0-18.37,4.34-23.11,6-39.18,13.54-59.87,35-74.24,69.63-3.41,8.24-8,11.93-16.67,13.52C617.67,312.84,513.37,347.83,413,395c-8,3.76-15.91,7.92-24.71,9.65-23.25,4.61-43-2.16-58.84-19.43-10.76-11.79-20.8-24.3-30.56-37-13-16.93-29.48-25.9-51.22-25.26-17.06.51-34.18.94-51.18,0-22.16-1.26-40.59,4.5-54.73,26.24-4.63,6.36-5,16.57-5,16.57v26.34c-.06,8,1.67,11.28,10.4,10.94,18.83-.71,37.71-.13,56.54-.54,6-.15,7.73,1.11,7.51,7.58-.72,20.24-.7,40.53-.55,60.79.11,15.65,7.71,22.49,23.32,22.46,4.61,0,9.77-3.11,13.87,1.63l.67.38c.79-2.28,2.19-1.62,3.65-.77,8.92,6.79,14.84,29.6,10.31,39.7-.79,1.77-2,2.84-4,2.64-2.49-.25-2.32-2.09-2.3-3.88,0-7.11.1-14.22,0-21.33,0-3.65.42-7.52-4-10.68,0,5.72.21,11.45-.07,17.15s1.07,11.23-.92,17.14c-5-1.92-2.58-6-3.09-9-1.6-9.2,2.56-18.87-2.22-27.84-4.1,5.83-1.48,12.38-1.88,18.57Zm5.08,14.37V543.33c.87,0,1.77-.06,2.67-.08C252.64,554.37,252.86,565.54,248.93,576.79Zm14-3.55c0,2.44-.9,4.21-3.56,4.32-3.08.1-3.1-2-3.06-4.27.09-4.64,0-9.25,0-13.86H256c0-4.27,0-8.52,0-12.77,0-2.33.39-4.48,3.25-4.35,2.48.1,3.65,1.81,3.65,4.31Zm1371,50.84c16.84,2.16,33.88,2.67,50.84,3.87,10.16.72,20.34,1.66,30.49-2.12-3,18.73-4.62,20.54-21.7,19.56-26.77-1.56-53.53-3.73-81.37-5.74C1617.2,629.78,1621.52,622.5,1633.86,624.08Zm69.84,30.79c-5.68,8.39-13.5,10.15-22,10.19q-46.34.26-92.68.34c-8.46,0-16.92,0-28.38,0,24.81-11,46.48-20.07,72.25-16C1655.83,653.08,1679.36,653.14,1703.7,654.87ZM1516.76,419.75a7.29,7.29,0,0,1,.64,1.28c0,.15-.4.42-.64.64-.23-.43-.47-.84-.68-1.18C1516.36,420.22,1516.55,420,1516.76,419.75Zm-8.88,8.56c25.13,12.81,33.12,45.75,17.29,71-16.2,25.88-33.71,50.93-50.73,76.29q-31.15,46.47-62.43,92.82c-.73,1.07-1.82,1.92-4.48,4.72v-63q.06-108.26,0-216.53c0-6.79.88-8.89,8.08-6.13A958,958,0,0,1,1507.88,428.31ZM743.2,306.84c7-2.91,10.91-8.44,13.63-15.4,18.21-46.89,52.33-70.69,102.91-70.57l214,1.26c41.19,4.62,69.24,28.27,84.06,67.37,3,7.75,4.4,17.76,16.29,17.64,86.5,14.09,169.58,39.9,250.4,73.47-81.37-30.58-165-52.93-250.4-68.84-37.08-5.89-74.15-11.87-111.67-14.26-35.72-2.29-56.34,16.16-58.86,51.71-1.46,20.58-16.72,38.16-36.24,42.08l-21-.49a47.7,47.7,0,0,1-34.5-41.53c-1.28-12.57-3.61-24.59-12-34.61-11.38-13.66-26.35-18.57-43.64-17.48-34,2.13-67.71,7.08-101.38,12.25-3.85.6-7.71,1-11.58,1.5-32.77,7.19-65.67,13.79-98.28,21.71-50.41,12.26-99.46,29-148.12,46.85-2,.72-4,1.19-8.26,2.45C524,363.36,647.27,321.42,743.2,306.84ZM1398.9,682.5a15.4,15.4,0,0,1-2.82,9q-14.61,21.3-29.32,42.55-44.48,70.85-124,96.71c-37.58,13.62-76,14.92-115,8-7.9-1.4-15.74-3.28-23.6-5-40.2-4.72-80.32-10.46-120.89-10.8l-52.29.17c-30.58.68-61,3.22-91.41,6.66-33.5,5-66.47,14-100.72,13.22-4.22-.11-8.45-.88-12.66-1.33-68-6-123-36.25-165.2-89.42-14.71-18.58-26.77-39.24-40.25-58.82A24.92,24.92,0,0,1,516,678.57c.26-16.67.62-33.33.94-50-.25-26.63-.64-53.28-.72-79.9-.15-52.59.19-105.18-.45-157.77-.13-9.93,5.53-11.72,12.3-14.07,64.29-22.51,129.67-40.95,196.71-53.42,42.94-8,86.09-14.2,129.63-17.32,27.93-2,43.84,10.63,47.45,38.48,2.92,22.54,10.74,41.06,32.45,51.2a96.85,96.85,0,0,0,24.11,2.77,70.94,70.94,0,0,0,25.26-4.63c18.21-10.06,27.16-25.75,29.18-46.48,3-29.9,18.52-43.45,48.15-41.17A1209.68,1209.68,0,0,1,1316.46,354q37.63,11.31,74.62,24.39c5.13,1.81,8.14,3.73,8.12,10.25-.36,79.28-.36,158.56-.47,237.83a10.67,10.67,0,0,1-.41,2.1Q1398.62,655.54,1398.9,682.5ZM498.53,387.87c6.92-2.71,9.44-2.05,9.42,6q-.39,117.32-.32,234.66,0,20.46,0,40.93l-2.25.81c-8-11.83-16.16-23.64-24.19-35.49-20.69-30.6-41.06-61.41-62.22-91.66-7.47-10.68-12.29-21.25-10-34.49,1.56-8.94-1.71-13.7-11.66-11.57-7.41,1.6-10.85-2.05-12.92-9-7.41-24.85,3.21-50.66,26.44-61.89Q453.93,405.4,498.53,387.87ZM402.45,516.3c-5.51-1.26-6.86-7.35-8.84-11.87-1.52-3.48,2.24-3.46,4.52-3.53,7.16-.19,5.53,5.62,6.52,9.78C404.22,512.71,405.52,517,402.45,516.3ZM280.29,624.06c12.28-.92,17.92,4.72,22.7,15.59-26.95,2-52.33,4.06-77.74,5.59-16,1-17.83-1.11-19.77-18.21C230.59,630.51,255.42,626,280.29,624.06Zm26.82,24c4-.3,7.77-.17,11.21,2.24,10.16,7.13,23.42,7.18,35.55,15.2-12.13,0-22.14,0-32.18,0l-84.25-.27c-8.05-.05-15.27-1.88-20.95-10.25C247.75,652.57,277.43,650.3,307.11,648ZM175.46,619.15c-17-38.18-29.41-78.08-43.5-117.35-1.79-5,0-8.28,4.81-10,5.53-1.92,8.86.73,10.67,5.7,8.18,22.23,16.21,44.52,24.43,66.73,8.71,23.53,17.59,47,26.37,70.5.64,1.69,1.15,3.37-.47,5.68C188.18,635.61,179.87,629.08,175.46,619.15Zm242.87,71.72c-59.68-.08-119.33-.1-179-.36-28.66-.11-49.11-17.4-55.49-48.13,10,6.64,19.64,9.87,26,19.71,6.17,9.54,17.88,12.06,29.34,12,39.08-.06,78.15.22,117.2-.32,22-.32,48.34,5.25,65,15.44C421.3,691.45,419.51,690.87,418.33,690.87Zm1015.22.22c-24.25,8.66-42,24.68-54.76,47.14-9.93,17.45-20.25,34.95-37.73,46.44-37.6,43.45-86.71,64-142.31,72.53-40.72,6.22-79.8-4-119.42-9.63-69.87-10-139.88-12-210.26-4.54-31.13,3.28-61.56,10.37-92.54,14.39C728.94,863.57,683.67,855.54,641,835c-45.89-22.13-81.76-55.56-106.72-100.53-12-21.57-30.53-35.87-54.1-44-45.25-15.58-90.32-31.68-135.42-47.65-4-1.39-7.64-3.44-11.44-5.19-7.88-1.48-13.09-6.88-17.81-12.66-9.41-11.58-18.55-23.38-27.71-35.15-1.46-1.88-4-3.74-3-6.38,1.22-3,4.35-1.37,6.64-1.69,19.39-2.73,38.75,1.22,58.12.38,3.82-.17,7.79,1.2,11.42-1.13-.06-4.12-3.2-3.05-5.4-3.07-11-.11-22.1-.64-33.05.15-6.73.49-7.9-1.84-7.28-7.63s.49-11.35.66-17.06c.08-2.71,0-5.35-4-3.73v26.5c-1.18,0-2.37.08-3.55.1-1.69-8.73-.49-17.72-.51-26.6-2.2-1.39-4.17-1.58-4.51,1.6-.4,3.86-.53,7.77-.57,11.66-.24,14.88-3.93,17.66-19,15.2-3.95-.64-4.42-2.75-4.4-5.74,0-5.68.52-11.38.07-17-.66-8.33-.45-15.18,11.08-13,1.88.34,4.61-.11,4.25-3.16-.28-2.37-2.71-2.27-4.23-1.94-11.7,2.54-11.81-4.72-11-12.82.09-1.06,0-2.13,0-3.2.26-6.32-1.58-14.09,1.48-18.47,2.15-3.07,10.93-1.54,16.74-2.07.36-.66.72-1.3,1.09-1.94-1.33-.47-2.67-1.35-4-1.35-10.33,0-19.17-.77-26.2-11.29-6.4-9.61-18.66-11-30.06-9.82-8.31.89-11.36-1.78-11.13-10.47.62-22.37.67-44.79.43-67.19-.17-18.73-12-24.77-28.2-15.14-9.85,5.83-20.82,2.9-31.28,3.25-15.68.53-15.68.19-14.55-15.46,1.43-19.5,13.84-31.33,33.25-31.41s39.14.47,58.67-.11c16.64-.47,29.45,5.3,39.51,18.68,8.73,11.62,18.53,22.44,27.73,33.72,20.8,25.45,47.21,35.38,79.52,28.8,2.11-.45,4.25-1.79,5.53.37,1.47,2.56-1.37,3.54-2.86,4.8-26.37,22.23-25.22,47.74-17,71.27,3.71,10.68,12.58,19.54,19,29.28,1.88,2.86,5.08,5,5,10.54-11.19,0-22.38.71-33.44-.23-7.43-.64-3.78-7.82-4.19-11.94-.49-4.69,3.55-3.33,6.05-2.37,1.62.62,2.9,2,4.76.79-8.35-12.51-26.09-10.86-31.88,4.21-3.33,8.73-7.79,10.06-15.54,9.54-4.66-.3-9.74-1.45-14.14,2.65,12.15,3.48,24.56,2.18,36.9,1.6,8.94-.4,11.46,3.14,9.26,11.3-1.43,5.27-6.06,2.13-9.07,4.93,3.52,3.67,11.17,3.59,10.31,11.79,3.29-5.47,6.09-9.29,11.55-11a14.88,14.88,0,0,0,9.7-9.35c1.86-6.13,6.06-6.22,11.21-7.09,9.54-1.63,15.35.85,20.79,9.63C429.52,576,446,599.57,461.91,623.46,485.49,658,510,691.92,532.46,727.15c39.52,61.94,92.28,105,165.39,120C731.67,854,765.6,852,799.4,845.46c50-9.71,100.59-13.47,151.45-14.11,61.47-.75,122,7.43,182.6,17,75.44,11.92,142.57-8.75,199.11-61.17a63.51,63.51,0,0,1,6.85-4.91c28.32-28.66,48-63.69,71.11-96.21,13.49-19,26.41-38.48,39.58-57.74q36.48-54.31,73-108.66c7.73-11.49,15.68-22.78,18-37,4.08-24.4-5.38-43.45-23.1-59.29,2.39-4.57,5.92-1.78,8.52-1.41,28,3.88,52.14-3.91,71.27-24.77,12.47-13.58,24.07-28,35.68-42.36,7.67-9.5,17.23-14.57,29.32-14.71,21.69-.26,43.37-.71,65-.37,22.76.34,38.86,20.61,35,42.88-.73,4-3.63,4.12-6.32,3.9-15.59-1.13-31.58,3.27-46.53-6.27-9.56-6.09-22,2.6-22.07,14.15-.11,23.79-.22,47.62.25,71.4.15,8-2.37,10.32-10.33,10.38-31,.34-42,11.68-42.19,42.79q-.19,25.05,0,50.11c0,5.85-.94,11.38-4.65,16-12.36,15.46-22.7,32.6-37.64,46-2.16,1.92-4,4.06-7,4.42-20.75,11-43.55,16.74-65.44,24.79C1491.89,671,1462.61,680.73,1433.55,691.09ZM379.84,545.94c-1.07,5.18-6.22,9.3-11.83,10.54-4.32,1-3.27-3.07-3.53-5.68-.59-5.85.75-9.67,9-7.62C374.88,543.93,381,540.13,379.84,545.94ZM360.11,529c.55,6.54-1.71,10.36-9.42,8.27-2.13,0-6.43,1.45-5.42-3.1,1.34-6,5.51-11,11.51-12.15C361.56,521.15,359.87,526.29,360.11,529ZM1683.18,690.36c-55.73.36-111.46.19-167.19.23-7.45,0-14.88,0-22.71-1.19,14.09-5.49,27.54-13.62,43-14.2,28.71-1.09,57.47-.88,86.21-1,18.45-.09,36.92.19,55.39.23,15,0,27.84-3.95,36.32-17.66,4.74-7.66,14.29-7.92,21.52-14.75C1731.56,671.59,1711,690.17,1683.18,690.36ZM1787.57,505c-13.69,37.26-26.48,74.86-41.7,111.54-4.49,10.81-12,18.73-25.3,24.09,17.61-48.66,34.37-94.93,51.13-141.18,2-5.36,5.09-10.46,11.45-8.56C1790.28,493,1789.75,499.05,1787.57,505Z"/><path class="cls-1" d="M1398.32,628.57q.3,27,.58,53.93a15.4,15.4,0,0,1-2.82,9q-14.61,21.3-29.32,42.55-44.48,70.85-124,96.71c-37.58,13.62-76,14.92-115,8-7.9-1.4-15.74-3.28-23.6-5-40.2-4.72-80.32-10.46-120.89-10.8l-52.29.17c-30.58.68-61,3.22-91.41,6.66-33.5,5-66.47,14-100.72,13.22-4.22-.11-8.45-.88-12.66-1.33-68-6-123-36.25-165.2-89.42-14.71-18.58-26.77-39.24-40.25-58.82A24.92,24.92,0,0,1,516,678.57c.26-16.67.62-33.33.94-50-.25-26.63-.64-53.28-.72-79.9-.15-52.59.19-105.18-.45-157.77-.13-9.93,5.53-11.72,12.3-14.07,64.29-22.51,129.67-40.95,196.71-53.42,42.94-8,86.09-14.2,129.63-17.32,27.93-2,43.84,10.63,47.45,38.48,2.92,22.54,10.74,41.06,32.45,51.2a96.85,96.85,0,0,0,24.11,2.77,70.94,70.94,0,0,0,25.26-4.63c18.21-10.06,27.16-25.75,29.18-46.48,3-29.9,18.52-43.45,48.15-41.17A1209.68,1209.68,0,0,1,1316.46,354q37.63,11.31,74.62,24.39c5.13,1.81,8.14,3.73,8.12,10.25-.36,79.28-.36,158.56-.47,237.83A10.67,10.67,0,0,1,1398.32,628.57Z"/><path class="cls-2" d="M1553.54,569c-2.07-3.18-1.53-7.14-5-7.56-11.7-1.39-13-14-21-19.25a2.78,2.78,0,0,1-.73-2.59c7.23-10.6,14.16-22.48,27-26,4.22-1.15,11.08,5.85,16.17,9.85s5.31,11.55,11,15.31c1.34.89.88,2.38-.42,3.48-7.29,6.13-9.86,17.14-20.85,19.68C1557.5,562.43,1556.07,566,1553.54,569Zm-1.93-40.46c-1.67-1.19,3.35-7.85-3.19-6.51-6.27,1.29-10.85,6.6-11.71,13.26-.72,5.6,4.39,2.79,6.86,3.29C1550.87,540.05,1553,536.18,1551.61,528.55Zm14,8.84c1-.45,6.84,4,6-2.35s-5.63-12-12-13c-5.49-.86-2.8,5.09-3.15,7.93C1555.74,535.15,1555.88,540.52,1565.56,537.39ZM1557,551.63c.11.45-1.7,5.32,3.44,4.39a13.09,13.09,0,0,0,10.75-10.18c.9-4.52-3.56-3.08-6-3.16C1560.65,542.53,1555.46,542,1557,551.63ZM1542.47,543c-.74.36-5.89-2.63-5.26,2.47.66,5.35,5,9.35,10.45,10.6,5,1.16,3.95-3.15,4.41-6.12C1553,543.54,1549.78,541.91,1542.47,543Z"/><path class="cls-2" d="M312.68,498.68c13.68-3.38,27.63-.89,41.42-1.82,2-.13,4.89-.81,4.87,2.27,0,2.59-2.73,2.95-4.88,2.95-9.59,0-19.37,1.06-28.73-.45-9.86-1.58-9.94,2.68-10.13,10.22-.15,6.11,4.07,13.41-3,18.5A186.09,186.09,0,0,1,312.68,498.68Z"/><path class="cls-2" d="M378.67,581.18c5.61-4.92,11.61-3.47,17.28-3.26,6.28.22,9-1.41,8.37-8.23-.62-6.57-.13-13.24-.13-20.37,3.71,4.06,6.36,27.15,4,30.79-1.13,1.75-2.88,1.92-4.59,1.94q-10,.11-20.1,0A30.4,30.4,0,0,1,378.67,581.18Z"/><path class="cls-2" d="M307.76,530.39c-1.42,0-3.28.6-4.17-.08-5.54-4.19-2.08-27.15,4.5-30.8Z"/></g><g id="Capa_3" data-name="Capa 3"><path d="M861.82,519v111H842V559.32l-19.51,14.91L806.3,586.76l-16.18-12.53-19.51-14.91v70.75H750.79V519l19.82,15.23L806.3,561.7,842,534.26Z"/><path d="M915.74,556v75.5H895.91V553.93a15.8,15.8,0,0,0-13.48-13.48H878V520.78h4.28v.16a35.42,35.42,0,0,1,29.5,19.82,40.82,40.82,0,0,1,2.7,7.46,33,33,0,0,1,.95,8.09Z"/><path d="M1032.8,574.07a32.76,32.76,0,0,1-23.48,55.52H963.8a32.59,32.59,0,0,1-30.14-20,34.22,34.22,0,0,1-2.54-12.84V551.23a32.16,32.16,0,0,1,8.25-21.41,33.65,33.65,0,0,1,9.52-7.45,31.39,31.39,0,0,1,14.91-3.65h69v19.82h-69a13.07,13.07,0,0,0-13,13V567.1a32.48,32.48,0,0,1,12.37-2.54H1010a32.77,32.77,0,0,1,23,10Zm-23.64,35.69a13.07,13.07,0,0,0,13-13,12.92,12.92,0,0,0-12.21-13h-46.8a13,13,0,0,0,.64,26h45.36Z"/><path d="M1168.72,610.56v19.82H1058V597.71a31.54,31.54,0,0,1,2.7-12.85,32.55,32.55,0,0,1,28.86-20h48.06a13,13,0,0,0-1.11-25.86h-78.19V519.19h78.19a32.63,32.63,0,0,1,32.68,32.68,32.4,32.4,0,0,1-9.36,22.68,32.89,32.89,0,0,1-22.36,10h-47.91A12.91,12.91,0,0,0,1078,597.39v12.85Z"/></g></g></svg>