<svg xmlns="http://www.w3.org/2000/svg" viewBox="0 0 1920 1080"><defs><style>.cls-1{fill:#010101;}.cls-2{fill:#f2f2f2;}</style></defs><g id="Capa_2" data-name="Capa 2"><g id="Capa_1-2" data-name="Capa 1"><path class="cls-1" d="M991.71,267.2c-6.31-.38-12.62-1.19-18.91-1.13-14.06.13-28.11.69-42.18,1.05-3,.08-6.2.07-5.68,4.38.5,4,3.8,2.46,6.12,2.58,1.43.07,2.87-.27,4.3-.27l51.52.31a31,31,0,0,1,4.3.05c2-.05,4.38,0,4.67-2.65S994.46,267.36,991.71,267.2Zm0,0c-6.31-.38-12.62-1.19-18.91-1.13-14.06.13-28.11.69-42.18,1.05-3,.08-6.2.07-5.68,4.38.5,4,3.8,2.46,6.12,2.58,1.43.07,2.87-.27,4.3-.27l51.52.31a31,31,0,0,1,4.3.05c2-.05,4.38,0,4.67-2.65S994.46,267.36,991.71,267.2Zm704.83,62.59c0-9.68-8.4-16.34-8.4-16.34-14.64-9.05-28.78-8.07-42,2.95a19.66,19.66,0,0,1-13.4,4.68c-27.57-.16-55.15-.26-82.72-.14-6,0-11.45-1.24-16-5.14-7.93-6.88-17.27-8.3-27.31-8.16-23,.31-46,.38-68.93.5-2.84,0-7.31,1.64-5.78-4.05,1.69-6.16-2.48-7.29-6.6-8.81-22.57-8.24-45.28-16.14-67.63-25-7.63-3-11.09-1.4-12.51,6.1-1,5.42-3.41,7.57-9.43,6.62-6.29-1-7.1-4.5-7-9.62a113.48,113.48,0,0,0-.24-14.64c-1.27-12.78-10.4-21.45-23.23-22.3l-692.36.16a19.06,19.06,0,0,0-11.43,3.9c-11.93,10.36-10.66,23.16-10.45,35.68.08,6-4.86,5.32-8.31,6.72-3.94,1.6-5.87-.33-7-3.83-.55-1.62-1.52-3.15-1.83-4.81-1.1-5.64-4-6.67-9.26-4.71-23.59,8.83-47.21,17.59-71,26-6.78,2.4-7.36,6.32-3.83,12.21-15.76,0-30.33,0-44.89,0-10.62,0-21.26.23-31.88.07-10.31-.14-19.94,1.41-28,8.67-4,3.63-9,4.49-14.42,4.47-27.85-.14-55.7-.07-83.55-.09-3.74,0-7.76.37-10.66-2.39-15.24-14.47-31.43-14.13-48.9-2.8-4.38,3.54-3.9,13.9-3.9,13.9-1.17,46-.62,91.95-.62,137.91,0,15,18.57,31.87,33.68,31.89,19.83,0,39.64,0,59.46-.33,5-.09,6.43,1.29,6.36,6.21-.33,20.67-.33,41.35-.43,62,.14,21.45,1.31,43,.12,64.33-1,18.65,2.66,34.4,17.63,46.45,4.7,4.4,9.15,9.11,14.17,13.09,6.33,5,7,8.93.17,14.44-6.65,5.32-12,12.31-18.47,17.93-5.46,4.73-4.27,7.93.26,12.42,13.25,13,26.11,26.48,39.11,39.76,12.06,11.82,24.29,23.47,36.08,35.53,4.83,4.91,8.3,5.74,13.21,0,5.95-6.95,12.93-13,19.25-19.7,3.51-3.72,6.12-5.14,10.27-.29,8.76,10.18,18.11,19.81,27.91,30.4a21.14,21.14,0,0,0,6.6,4.56h114.7c12.51-.78,12.77-.8,13.39,11.84.25,4.87,2.33,5.47,6.38,5.44,29.86-.18,59.71-.32,89.54-.09,5.71,0,8.52-1.83,7.36-7.3-2-9.43,2.54-12.38,10.9-12.26a882,882,0,0,1,115.39-22.33c13.64-3.38,27.64-4.29,41.54-5.76,21.94-2.31,43.9-4.38,66-4.21l13.57-.15a749.93,749.93,0,0,1,101.57,9.16c40.44,4.88,80.19,13.31,119.78,22.69a28.28,28.28,0,0,0,5.88,1.14c5.33.08,6.33,2.67,6.23,7.71-.28,13.46-1,11.19,11.5,11.22,27.57.07,55.15-.15,82.71.14,6.41,0,10-1.52,8.89-8.45-1.17-7.55,1.68-9.45,9.32-9.35,35,.47,70.06.07,105.1.28a28.56,28.56,0,0,0,21.49-8.61c15.24-14.76,29.11-30.93,45.53-44.45,26.81-28,54-55.65,82.41-82,5.55-5.8,10.71-12,16.73-17.26,9.88-8.57,13.59-18.8,13.41-31.92-.55-44.25,0-88.5-.43-132.75-.08-8.28,2.49-10.14,10.14-9.89,16.94.56,33.89.18,50.84.33,22.33.19,38.25-15,38.46-37.32C1697.27,415.84,1696.73,376.05,1696.54,329.79Zm-395.49-79.9c6.78-.22,13,1.52,14,9.47.76,5.95.34,12,.52,18,.29,11,4.08,15.43,14.76,17.65,2.65.57,7.72,0,5.79,4.68-1.88,4.46-.5,12.66-9.53,11.48-17.09-2.19-28.58-15.4-29.77-34.4-.21-3.43,0-6.88,0-10.31h0c0-2.3-.46-4.71.1-6.85C1297.83,256.24,1293.31,250.15,1301.05,249.89Zm-662.6-.17h643.42c6.51,0,9,1.49,7.85,8a39.47,39.47,0,0,0,0,6.88c.15,14.59-1,29.51,11.95,41.35-5.55,1.73-9.09-1.39-12.93-.95-1.9.23-4.32-.41-4.82,2.35-.36,2.1,1.18,3.14,3,3.55,12.31,2.76,23.52,11,37.18,7.4,4.48-1.21,4.85,1.12,3.5,4.73-5.22,14-9.24,22.48-28.11,22-26.12-.73-52.27-.11-78.39-.19-17.94-.06-27.78-8.11-31.08-25.65-1.74-9.24-3.08-18.54-8.64-27.87,9.92,1.38,18.35,2.66,26.82,3.63,2.33.25,6,1.36,6.47-2.19.56-4.07-3.47-4.18-6.08-4.37-24.78-1.84-48.94-8.33-73.8-9.62a43.53,43.53,0,0,0-15.18,1.4c-4.86,1.43-9.76.69-15.28-2.18-11-5.69-23.74-5.48-36.09-5.17-1.5,0-3.16,1.17-2.67,2.69,2.53,8.24-3.71,5.57-7.09,5.59q-35.75.18-71.52,0l-51.7,0-61.16.07c-4.88,0-9.76,0-14.64-.07-3,0-6.73,1.15-5.42-4.55.85-3.68-2.33-4.26-5-3.9-12.14,1.59-25.18-1.52-35.94,7.59-1.88,1.57-6.19,1-9.19.39-19-3.74-37.26-1-55.94,3.71-10.42,2.59-22,1.57-32.89,3.62-3.93.73-10.62-.38-10.07,4.88.45,4.43,6.92,2.18,10.54,1.86,7.31-.62,14.55-2.15,23.28-3.53-6.19,11.21-6.92,22.5-9.81,33.21-3.42,12.63-12.54,20.13-25.63,20.27-29.57.32-59.15.27-88.74.06-10.5-.06-23.28-13.95-22.83-24.1.15-3.44,2.58-3.4,4.91-2.61,13.71,4.64,24.68-5,37-7.17,1.88-.33,3.94-2.14,3.07-4.38s-3.31-1.86-5.34-1.74c-3.93.19-7.47,2.93-13.11,2,14.45-14.41,12.54-32.05,12.11-49.13C630.23,250.82,632.23,249.7,638.45,249.72ZM588.86,295.3c13.21-3.32,15.72-6.45,15.86-20.25,0-4.6.11-9.19.09-13.78a10.56,10.56,0,0,1,2.88-7.86,14.27,14.27,0,0,1,13.64-3.54c5,1.16,1.64,6.31,2.31,9.63.45,2.2.09,4.57.09,6.86.1,11.83-.07,23.42-8.52,33.28a32.93,32.93,0,0,1-23.16,11.61c-7.19.6-5.95-7-7.92-11.16C582,295.62,586.41,295.9,588.86,295.3ZM243.25,322.61c7.06-2.26,14.71-2.83,20.94,3.43,6.88,6.94,15.31,8.94,25.06,8.78,27.24-.41,54.51-.21,81.75,0,8.06,0,15.32-1.73,21.59-6.88s13.56-6.7,21.61-6.64q36.58.25,73.15-.25c4.87-.06,6.92,1.4,8.4,6,5.49,17.19,5.68,16.87-12.79,16.78-38.17-.19-76.31,0-114.46,0v0c-41,0-82.05.07-123.07-.14-3.23,0-8.94,2.88-9-4.24C236.46,333,235.34,325.15,243.25,322.61ZM441.54,783.06,421.48,804c-2.19,2.29-4,3.6-6.9.35-6-6.8-12.43-13.21-18.69-19.8-17.63-17.18-35.2-34.41-52.93-51.5-2.81-2.7-2.46-4.48.12-7q24.19-23.85,48.17-47.91c2.91-3,4.66-2.88,7.62.1Q433.72,713.29,469,748c3.13,3.07,3.83,5.14.42,8.35C460,765.11,450.8,774.13,441.54,783.06ZM410.6,658.63c14.47-14.39,28.57-29.16,43.66-42.84,19-17.24,44.75-18.59,66-4.67a54.64,54.64,0,0,1,22.3,63.32c-4.59,13.81-14.33,23.94-25.33,32.94-11.9,12.33-23.87,24.62-35.68,37-2.49,2.62-4,1.9-6.21-.35Q443.76,712,412,680C399.58,669.7,399.51,669.63,410.6,658.63Zm206.26,146c0,5.92-1.24,7.8-7.46,7.75-35.34-.31-70.66-.25-106,0a18.31,18.31,0,0,1-14.42-6c-8.38-8.64-17.09-17-26.09-25-3.86-3.45-3.77-5.66-.22-8.92,5.08-4.65,10.14-9.38,14.76-14.48,3.29-3.66,4.95-3.81,7.12.94a57.66,57.66,0,0,0,13.21,17.91c1.81,1.72,4.05,4.25,6.5,1.86,2-1.9-.15-3.87-1.5-5.85-5.12-7.59-13.31-15.19-13.81-23.21-.54-8.57,11-13.45,17.12-20.06,9.37-10.1,19.59-19.41,29-29.47,23.53-25.14,23.09-63.54-.76-86.93-24.75-24.26-63.41-24.21-88.38.16-4.73,4.62-9.54,9.17-13.89,14.12-3.89,4.47-6.12,6-9.07-1.07-3.27-7.9-8-15.21-12.15-22.74-1.33-2.42-3.3-4.66-6.14-3.32-3.28,1.56-1.61,4.45-.47,6.66,4.73,9.16,9.37,18.38,14.54,27.3,2,3.43,1.78,5.24-1.05,8q-21.63,21-42.77,42.53c-2.91,2.93-4.6,4.22-8.1.47-8-8.61-16.56-16.73-24.94-25-3.38-3.33-5.85-7-5.81-12q.28-34.46.45-68.91-.21-37.49-.43-74.93c-.09-13.65-4.39-18.22-17.91-18.38-19.52-.21-39-.07-58.56-.15-10.41-.06-22.69-10.13-22.85-20.35-.5-36.75-.26-73.52-.39-110.28,0-6.25,4.39-4.8,7.82-4.82q56.43-.15,112.82-.17c40.47,0,81,.48,121.42-.46,8.73-.21,15.4,6,24,4.39,1.55-.29,1.93,2.4,1.28,4.19-1.74,4.71-4.92,7.94-10.06,8.13-7.07.27-14.17.07-21.28.07-.07-.54-.32-1.18-.13-1.56,1.55-2.91,8.12-2.89,6.27-6.77-2-4.23-6.65-1-9.81.27A116.22,116.22,0,0,1,427,367.34c-10,.21-17.61,6.16-23.85,13.75-1.64,2-3.19,4.17-5.26,5.57-3.84,2.6-12.93,3.55-1.91,9.36,1,.54.45,4.31.45,6.59q0,47.38,0,94.78c0,26.31,13.39,39.78,39.61,39.88,24.4.09,48.8.19,73.2,0,6.8,0,11.85,2.33,16.59,7.26,17.71,18.4,35.78,36.44,53.72,54.6q16.53,16.35,33.06,32.66c3.27,3.22,4.36,7.09,4.36,11.66C616.79,697.22,616.67,750.94,616.86,804.67Zm341.52-30.42c0,4.76-3.54,3.61-6.14,3.69-76.89,2.12-152.32,14.4-226.8,33-4.21,1-5.8.86-5.56-3.76.38-7.31-.38-14.83,1-21.92,2.07-10.36,9.31-16.9,19.47-19.66a46.78,46.78,0,0,1,11.93-1.29q59-.24,118-.24c3,0,5.88.48,8.81.74-.06.51-.15,1-.24,1.58-9,1.45-18.07,2.92-27.11,4.35-2.6.41-5.72.74-5.31,4.21.49,4.14,3.85,2.29,6.13,2q14-1.83,28-4c2-.31,5,.17,5.26-3.16.19-2.62-1.35-6.64,3.48-5.62,4.11.86,10.23-3.62,12.09,3.83.55,2.22,1.81,2.64,3.62,2.7,10.93.38,21.8-.67,32.63-1.84,1.43-.17,2.65-2,4-2.95,3.95-2.71,8.28-2.09,12.44-.91C958.84,766.37,958.34,770.49,958.38,774.25Zm242.34,31c-.26,5-.47,7.24-6.73,5.66a1230.41,1230.41,0,0,0-142.58-27,721.21,721.21,0,0,0-82.32-6c-3.21-.06-8.21,2-7.42-4.73.61-5,.76-9.74,8.21-9.14,8.69.71,15.62,7.49,25,6.12,5.57-.79,11.42.42,17.16.5,2.9,0,5.52.69,7.21-3.77,2-5.28,8.07-2.28,12.33-2.85,4.64-.64,2.62,2.76,2.6,5.07,0,3.11,2.56,3.28,4.87,3.66,9.6,1.53,19.17,3.17,28.78,4.65,2.26.37,5.08.64,5.58-2.39.59-3.4-1.94-4.09-4.82-4.47-9.07-1.19-18.13-2.6-29.1-4.21,4.63-2.67,7.78-2.27,10.78-2.29q58.1-.08,116.2-.05c12.07,0,22.76,2.77,29.66,13.78,2.45,3.89,4.4,7.43,2.65,12.7C1197.22,795.15,1201,800,1200.72,805.24Zm96.12-157.56c.64,12.24-.24,24.57-.45,36.85.18,30.69.42,61.39.52,92.07.07,18.09-.21,36.16,0,54.25,0,4.23-.36,6.09-5.35,6q-38.71-.39-77.46,0c-5.26.05-6.92-1.19-6.61-6.69a203.8,203.8,0,0,0-.2-27.52l-1.47-19.42c-4.24-14.93-14.29-24.42-30.14-25l-415.07-.6a173,173,0,0,0-25.52,1.74c-10.31,5.38-18.47,12.69-20.92,24.66l-.77,16.64c-.37,10.33-.42,20.68-.07,31,.15,4.59-1.9,5.12-5.61,5.12-26.12-.07-52.27-.22-78.39.15-6.24.09-6-2.87-6-7.31.12-60.61,0-121.23.32-181.84.06-10.85-3.17-19.21-10.91-26.82q-39.94-39.24-79.15-79.24c-7.76-7.93-16.13-11.55-27.42-11.21-23.23.71-46.51.35-69.78.19-21.66-.14-33-11.38-33.07-33-.14-31.89.15-63.77,0-95.68-.06-7.57,2.5-12.12,9.79-15.1,5.73-2.35,14.16-2.09,14.66-11.85.1-2.12,4-1.12,6.17-1.14,17.23-.1,34.46-.05,51.69-.12,18-.05,21.07-2.4,24.81-19.69l-3.91-15c-2.75-10.5-6.09-20.87-9.66-31.11-1.54-4.43,0-6.23,3.84-7.62q31.05-11.31,62-22.82c3.86-1.45,5.34-.58,6.74,3.38l18.26,48c5.93,17.81,13.19,22.78,31.61,22.8l78.4,0c24.59,0,36-10,40.14-34.46,1.09-6.44,1.43-13.22,5.37-18.84C748,291.67,754.51,288,762.87,288l387.77-.09c20.06,0,26.39,5.12,30.85,24.73a4.13,4.13,0,0,1,.24.83c2.28,26.8,15,39.94,47.89,38.44,23.51-1.07,47.08-.16,70.64-.21,19.17-.05,26.26-5,32.38-23L1350.77,281c1.29-3.88,2.86-4.46,6.08-3.27,21.22,7.77,42.39,15.62,63.64,23.29,3.48,1.26,4.27,3.07,3.17,6.47q-5.33,16.32-10.31,32.77a68.86,68.86,0,0,0-2.43,21.66c.13,8.2,7.9,11.86,19.19,12,18.66.14,37.32,0,56,.05,3.61,0,8.37-1.74,7.68,5.47-.36,3.78,4.15,4.12,7,5.26,15.91,6.43,16,6.4,16,23.68q0,43.95-.09,87.91c-.07,24.32-10.14,34.37-34.71,34.51-24.13.12-48.25.27-72.38,0-8.1-.1-14.28,2.71-19.83,8.36-10.64,10.87-21.59,21.44-32.4,32.13-16.14,16.24-31.94,32.83-48.53,48.58C1300.45,627.69,1296.22,636.05,1296.84,647.68Zm386.1-185a23.22,23.22,0,0,1-23.18,23.18c-19.54.08-39.06,0-58.58.24-12.3.17-17.16,5.2-17.18,17.48-.1,44.24-.64,88.49.24,132.72.28,14-3.65,24.4-14.65,32.57-3.37,2.52-6.38,5.51-9.56,8.28-25.83,26.56-51.54,53.24-78.86,78.33q-26.2,26.67-52.39,53.37a11,11,0,0,1-8.45,3.38q-55.49,0-110.95.17c-4.36,0-6.05-1.08-6-5.72.53-41.86.88-83.73,1.27-125.58q-.12-21-.27-42a11.19,11.19,0,0,1,3.53-8.42q32.05-31.59,64-63.29c7.91-9.48,17.21-17.61,25.9-26.31,3.45-3.47,7.55-3.71,11.91-3.73q36.62,0,73.23-.12c9.53,0,18.83-.78,26.83-7.1,9.22-7.3,13.67-16.59,13.66-28.3-.06-32.48,0-64.93,0-97.4,0-5.37-1.53-11.44,8.14-12.57-10.64-3.76-14.85-13-22.5-18.32-5.3-3.69-11-6.41-17.51-6.36-14,.12-27.21-3.19-40-8.67-3.36-1.47-6.84-2.87-10.64-.95,0,5,5.57,4.55,7.9,9.33-9.23.34-17.83.6-26.28-1.38-4-.93-6.11-4.8-6-8.56.15-5.79,4.22-.88,6.24-1.72,25.78-10.83,52.74-4,79.05-4.55,57.41-1.26,114.87-.26,172.29-.47,6.94,0,9.37,1.64,9.25,9.07C1682.94,393.76,1683.13,428.24,1682.94,462.71Zm.36-122c-1.29,4.76-5,2.95-7.74,2.95q-62.4.12-124.77.07v.36c-41.89,0-83.76-.05-125.63.08-4.4,0-6-1-4.22-5.34a7.69,7.69,0,0,0,.27-.81c4.73-16.88,4.73-16.87,22.25-16.83,21.23,0,42.45.15,63.67,0,7.45-.05,14.09,1.36,19.86,6.46,6,5.33,13.25,7.2,21.42,7.13q42.57-.42,85.19,0c8.22.07,15.23-2.05,21.09-7.74a19.1,19.1,0,0,1,13.92-5.62C1680.75,321.46,1686.49,328.94,1683.3,340.72ZM931.06,274.08c1.43.07,2.87-.27,4.3-.27l51.52.31a31,31,0,0,1,4.3.05c2-.05,4.38,0,4.67-2.65s-1.39-4.16-4.14-4.32c-6.31-.38-12.62-1.19-18.91-1.13-14.06.13-28.11.69-42.18,1.05-3,.08-6.2.07-5.68,4.38C925.44,275.48,928.74,274,931.06,274.08Z"/><path class="cls-2" d="M1516.68,408.32q0,43.95-.09,87.91c-.07,24.32-10.14,34.37-34.71,34.51-24.13.12-48.25.27-72.38,0-8.1-.1-14.28,2.71-19.83,8.36-10.64,10.87-21.59,21.44-32.4,32.13-16.14,16.24-31.94,32.83-48.53,48.58-8.29,7.88-12.52,16.24-11.9,27.87.64,12.24-.24,24.57-.45,36.85.18,30.69.42,61.39.52,92.07.07,18.09-.21,36.16,0,54.25,0,4.23-.36,6.09-5.35,6q-38.71-.39-77.46,0c-5.26.05-6.92-1.19-6.61-6.69a203.8,203.8,0,0,0-.2-27.52l-1.47-19.42c-4.24-14.93-14.29-24.42-30.14-25l-415.07-.6a173,173,0,0,0-25.52,1.74c-10.31,5.38-18.47,12.69-20.92,24.66l-.77,16.64c-.37,10.33-.42,20.68-.07,31,.15,4.59-1.9,5.12-5.61,5.12-26.12-.07-52.27-.22-78.39.15-6.24.09-6-2.87-6-7.31.12-60.61,0-121.23.32-181.84.06-10.85-3.17-19.21-10.91-26.82q-39.94-39.24-79.15-79.24c-7.76-7.93-16.13-11.55-27.42-11.21-23.23.71-46.51.35-69.78.19-21.66-.14-33-11.38-33.07-33-.14-31.89.15-63.77,0-95.68-.06-7.57,2.5-12.12,9.79-15.1,5.73-2.35,14.16-2.09,14.66-11.85.1-2.12,4-1.12,6.17-1.14,17.23-.1,34.46-.05,51.69-.12,18-.05,21.07-2.4,24.81-19.69l-3.91-15c-2.75-10.5-6.09-20.87-9.66-31.11-1.54-4.43,0-6.23,3.84-7.62q31.05-11.31,62-22.82c3.86-1.45,5.34-.58,6.74,3.38l18.26,48c5.93,17.81,13.19,22.78,31.61,22.8l78.4,0c24.59,0,36-10,40.14-34.46,1.09-6.44,1.43-13.22,5.37-18.84C748,291.67,754.51,288,762.87,288l387.77-.09c20.06,0,26.39,5.12,30.85,24.73a4.13,4.13,0,0,1,.24.83c2.28,26.8,15,39.94,47.89,38.44,23.51-1.07,47.08-.16,70.64-.21,19.17-.05,26.26-5,32.38-23L1350.77,281c1.29-3.88,2.86-4.46,6.08-3.27,21.22,7.77,42.39,15.62,63.64,23.29,3.48,1.26,4.27,3.07,3.17,6.47q-5.33,16.32-10.31,32.77a68.86,68.86,0,0,0-2.43,21.66c.13,8.2,7.9,11.86,19.19,12,18.66.14,37.32,0,56,.05,3.61,0,8.37-1.74,7.68,5.47-.36,3.78,4.15,4.12,7,5.26C1516.64,391.07,1516.68,391,1516.68,408.32Z"/><path class="cls-1" d="M1505.22,629.12c-3.13,2.27-3.6,9.88-8.88,6.84-4.53-2.6.82-7,1.54-10.57.16-.84.38-1.66.58-2.49,3.61-6.44,7.2-12.9,10.84-19.34,1.29-2.27,2.77-4.87,5.89-3.36s2,4.58,1,6.74C1512.73,614.42,1508.91,621.74,1505.22,629.12Z"/><path class="cls-1" d="M1543.12,553.81c-1.47,3.54-2.69,7-4.35,10.31q-5.22,10.3-10.87,20.39c-.9,1.62-2.17,3.63-4.73,2.3a3.64,3.64,0,0,1-1.66-5.14c5-10.27,10.15-20.43,17-29.62a3.32,3.32,0,0,1,2.92-1C1542.15,551.27,1542.5,552.71,1543.12,553.81Z"/><path class="cls-1" d="M1577.24,470.84c-.18,4.85,0,9.73-1.54,14.46-.6,1.91-.65,4.27-3.42,4A3.54,3.54,0,0,1,1569,485a96.32,96.32,0,0,0-.77-32.4c-.34-1.82-.39-4.27,2.71-4.23,2.44,0,3.51,1.67,4,3.74C1576.52,458.28,1577.66,464.47,1577.24,470.84Z"/><path class="cls-1" d="M1567.7,430.4c-.1,1.82-.6,3.13-2.06,3.75-1.76.75-3.54.52-4.47-1.21-5.45-10.06-12.32-19.1-19.59-27.87-.64-.77-1.24-2.21,0-3,2-1.26,3.91-.25,5.51.9,8,5.79,13.44,13.81,18.25,22.27C1566.29,427,1567,428.84,1567.7,430.4Z"/><path class="cls-1" d="M1550.38,538.44c-3.42-.49-3.1-3.12-2.12-5.06,5-9.86,10.25-19.6,15.49-29.34.67-1.25,2-2.35,3.51-1.56a3.22,3.22,0,0,1,1.11,2.85c-3.16,11.94-10.25,21.92-16.38,32.38C1551.76,538.1,1551,538.18,1550.38,538.44Z"/><path class="cls-1" d="M394.85,572.48c1.1,2.56,2.26,5.1,3.29,7.69.83,2.06,2.23,4.47-.34,6.06-2.87,1.79-4.77-.14-6.1-2.56-2.73-4.93-5.37-9.91-8.05-14.86-2.5-1.5-2.54-4-2.91-6.52-.56-3.81-6.47-8.58-1-10.95,3.63-1.58,5.35,5.39,7.63,8.73C390.05,564.06,392.36,568.33,394.85,572.48Z"/><path class="cls-1" d="M352.17,454.56c-2.59,8.89-2.44,18.49-.88,28.19.45,2.78.25,6.38-3.48,6.72s-2.95-3.39-3.49-5.68c-2.41-10.24-1.5-20.43.84-30.52.53-2.26.9-5.71,4.59-4.94C352.63,448.93,352.38,451.58,352.17,454.56Z"/><path class="cls-1" d="M379,404.4A58.71,58.71,0,0,1,375,410c-5.88,6.58-11.73,13.18-16,21-.94,1.73-1.68,4.1-4.22,3.18s-2-3.51-1.26-5.14c4.66-10.57,11.21-19.83,20.54-26.78C376.83,400.2,378.94,401.12,379,404.4Z"/><path class="cls-1" d="M354.8,502.5c1.1,1.18,2.33,2,2.94,3.2q6.78,12.88,13.33,25.89c1.1,2.17,2.94,5-.3,6.53-2.72,1.29-3.92-1.57-5-3.54-4.39-8.34-8.64-16.75-13.05-25.08C351.22,506.58,350.92,504.26,354.8,502.5Z"/><path class="cls-1" d="M656.84,305.4c-2.92-.35-5.5.82-5.9-2.17a3.86,3.86,0,0,1,3.37-4.31c10.31-2.11,20.66-4,31-6,2-.39,4-.73,4.58,2.19.49,2.63-1,3.69-3.15,4.14C676.42,301.38,666.11,303.49,656.84,305.4Z"/><path class="cls-1" d="M1016.16,268q14.14,1.22,28.28,2.41c3,.25,6.29.77,5.64,4.71-.61,3.68-4,2.47-6.39,2.24-9.41-.9-18.81-2-28.23-2.87-2.87-.26-5.52-.78-5-4.25C1011,267.14,1013.92,267.93,1016.16,268Z"/><path class="cls-1" d="M875.62,277.35c-2,0-4.78.72-5.28-2.5-.54-3.47,1.95-4.26,4.79-4.51,10-.86,19.93-1.8,29.89-2.64,2-.17,4.33-.36,4.75,2.35.47,3-1.52,4-4.1,4.26Z"/><path class="cls-1" d="M1262.22,305.38c-9.35-1.88-18.88-3.74-28.38-5.75-2-.43-3.83-1.51-3.51-4.08.36-2.83,2.67-2.89,4.58-2.54,10.4,1.88,20.77,3.9,31.12,6,2.18.44,3.82,2.14,3.09,4.37C1268,306.91,1264.67,304.55,1262.22,305.38Z"/><path class="cls-1" d="M545,795.05c-9.67.15-16.81-.07-23.38-3.45-2-1-4.67-2.13-3.65-4.89s3.56-2,5.87-1.26c9.34,2.91,19,3.65,28.71,3.91,2.2.06,5-.34,4.8,3.21-.19,3-2.67,2.41-4.57,2.45C549.33,795.1,545.9,795.05,545,795.05Z"/><path class="cls-1" d="M591.85,795.14c-5.13,0-10.27.07-15.4,0-1.8,0-4.33.67-4.54-2.36-.19-2.71,1.78-3.27,3.93-3.27,10.83,0,21.66,0,32.49.11,1.8,0,3.52.72,3.47,2.91,0,2.36-2,2.42-3.71,2.43-5.41.05-10.83,0-16.24,0Z"/><path class="cls-1" d="M1456.46,654.1c-.13,15.28-13.47,28.21-28.93,28a28.59,28.59,0,0,1-28.34-28.61c-.06-16.33,12.6-28.82,29-28.61C1444.92,625.14,1456.6,637.2,1456.46,654.1Zm-50.23-.14c.19,11.21,10.56,21.58,21.49,21.47,11.59-.12,21.86-10.53,21.83-22.14s-10.49-21.87-22.08-21.88C1416.1,631.41,1406,642.09,1406.23,654Z"/><path class="cls-1" d="M1472.13,684.7c-2.82.07-2.53-2-2-3.53a109.75,109.75,0,0,1,15.74-31.3c.88-1.21,2.32-2.06,3.71-1.13a4.45,4.45,0,0,1,1.36,2.86c.5,3.48-15,31.65-18,32.81C1472.69,684.52,1472.41,684.6,1472.13,684.7Z"/><path class="cls-1" d="M1453.94,723.57c-3.17,2.81-3.6,11.26-8.47,8.59-5.2-2.84,1.61-7.89,2.38-12.15a12.19,12.19,0,0,1,.52-1.62c3.17-5.65,6.31-11.32,9.55-16.93,1.24-2.15,2.59-5.49,5.4-4.3,3.31,1.4.88,4.49,0,6.52C1460.37,710.39,1457.09,717,1453.94,723.57Z"/><path class="cls-1" d="M1440,748.89c.3,6.22-15.83,29.13-20.86,30.36-3.13.77-5-1-3.42-3.58,5.76-9.51,12-18.76,18.18-28a3.5,3.5,0,0,1,4.68-.8C1439.37,747.35,1439.76,748.56,1440,748.89Z"/><path class="cls-1" d="M1376.94,795.1c-3.42,0-6.85,0-10.27,0-1.78,0-3.55-.25-3.78-2.5s1.19-3,3.14-3.11c11.11-.44,22.18-1.05,32.83-4.78,1.19-.42,3.09-.47,3.68,1.15.84,2.26-.59,3.87-2.4,4.92C1392.94,795,1385,795.24,1376.94,795.1Z"/><path class="cls-1" d="M1328.12,795.13h-15.44c-2.32,0-4-.9-3.88-3.4.13-2.3,2.19-2.37,3.86-2.39,10.58-.09,21.15-.08,31.73-.17,2.39,0,3.86.72,3.69,3.37-.15,2.39-1.94,2.46-3.66,2.47-5.43,0-10.87,0-16.3,0Z"/><path class="cls-1" d="M497.83,682c-12.63,1.74-22.78-2.37-30.21-12.86-.69-1.87-1.41-3.73-2.07-5.62-5.56-16,1.27-31,16.86-37,14-5.39,30.21,1.53,36.4,15.59,6.33,14.36.14,30.21-14.66,37.37C502.11,680.42,499.94,681.14,497.83,682Zm-27.27-28.6a22.2,22.2,0,0,0,21.85,21.93c11.33.08,21.73-10.67,21.53-22.27a21.69,21.69,0,0,0-43.38.34Z"/><path class="cls-1" d="M449.28,676.1c.08,2.8,3.49,6.54-.91,8.1-3.56,1.27-4-3.11-5.58-5.23-1.16-1.58-2.21-3.25-3.31-4.88-3.08-6-6.13-12.06-9.29-18.05-1.17-2.23-1.74-4.61.44-6.13,2.94-2.07,3.82,1.19,4.81,2.81C440.17,660.44,444.69,668.29,449.28,676.1Z"/><path class="cls-1" d="M1173.92,795c-9.45-.13-18-2.57-26.36-5.31-2.46-.8-5.57-2-4.78-5,.93-3.58,4.24-1.7,6.49-1.27,8.11,1.55,16.23,3.11,24.24,5.12,3.14.79,9.07-1,8.56,4.27C1181.64,797.3,1176.36,793.93,1173.92,795Z"/><path class="cls-1" d="M1119.9,784.71c-9.33-.55-18.11-3.08-27-5.07-2.54-.57-4.68-1.63-4.09-4.35.7-3.2,3.39-2.08,5.63-1.67,8.7,1.61,17.45,2.94,26.08,4.82,2.77.6,7.81.37,7.24,4.32C1127.14,787.09,1122.49,783.85,1119.9,784.71Z"/><path class="cls-1" d="M797.75,785.23c-3,.59-4.79.35-5.43-1.63-.78-2.42.61-3.81,2.88-4.27,10.63-2.17,21.26-4.34,31.92-6.39,2.09-.41,4.27.18,4.4,2.76.12,2.34-1.7,3.27-3.84,3.87A180.3,180.3,0,0,1,797.75,785.23Z"/><path class="cls-1" d="M747.62,795.19c-3,0-4.71.1-6.41,0s-3.69.1-3.8-2.36c-.09-2,1.22-3,3.11-3.4,10.92-2.12,21.83-4.29,32.76-6.33,1.68-.32,3.7-.18,4,2.09s-1.4,3.68-3.36,4.4A100.69,100.69,0,0,1,747.62,795.19Z"/><path class="cls-1" d="M457.71,696.56a5.69,5.69,0,0,1,3.77,3.28c4.82,9.08,9.65,18.17,14.26,27.36.77,1.51,2.59,3.88,0,5.24-2.13,1.09-4.92.8-6.07-1.58q-7.44-15.4-14.34-31.05C454.62,698.29,455,696.25,457.71,696.56Z"/><rect class="cls-2" x="1919" y="1079" width="1" height="1"/><rect class="cls-2" width="1" height="1"/><rect class="cls-2" y="1079" width="1" height="1"/><rect class="cls-2" x="1919" width="1" height="1"/></g><g id="Capa_3" data-name="Capa 3"><path d="M861.82,472.68v111H842V513l-19.51,14.9L806.3,540.41l-16.18-12.54L770.61,513v70.74H750.79v-111l19.82,15.22,35.69,27.44L842,487.9Z"/><path d="M915.74,509.63v75.5H895.91V507.57a15.8,15.8,0,0,0-13.48-13.48H878V474.42h4.28v.16a35.55,35.55,0,0,1,13.48,3.65,35.17,35.17,0,0,1,16,16.18,40.72,40.72,0,0,1,2.7,7.45,33,33,0,0,1,.95,8.09Z"/><path d="M1032.8,527.72a32.75,32.75,0,0,1-23.48,55.51H963.8a32.59,32.59,0,0,1-30.14-20,34.31,34.31,0,0,1-2.54-12.85V504.88a32.17,32.17,0,0,1,8.25-21.42,33.65,33.65,0,0,1,9.52-7.45,31.39,31.39,0,0,1,14.91-3.65h69v19.83h-69a13.06,13.06,0,0,0-13,13v15.55a32.48,32.48,0,0,1,12.37-2.54H1010a32.77,32.77,0,0,1,23,10Zm-23.64,35.68a13.06,13.06,0,0,0,13-13,12.92,12.92,0,0,0-12.21-13h-46.8a13,13,0,0,0,.64,26h45.36Z"/><path d="M1166.34,538.66a31.54,31.54,0,0,1,2.7,12.85,32.62,32.62,0,0,1-32.67,32.67h-78.2V564.36h78.2a12.93,12.93,0,0,0,12.84-13,12.77,12.77,0,0,0-11.42-12.85h-79.62V473.15h101.67V493H1078v25.69h59.63a32.17,32.17,0,0,1,28.87,19.83Z"/></g></g></svg>