<svg xmlns="http://www.w3.org/2000/svg" viewBox="0 0 1920 1080"><defs><style>.cls-1{fill:#f2f2f2;}.cls-2{fill:#010101;}</style></defs><g id="Capa_2" data-name="Capa 2"><g id="Capa_1-2" data-name="Capa 1"><rect class="cls-1" x="1919" y="1079" width="1" height="1"/><rect class="cls-1" width="1" height="1"/><rect class="cls-1" y="1079" width="1" height="1"/><rect class="cls-1" x="1919" width="1" height="1"/></g><g id="Capa_3" data-name="Capa 3"><path class="cls-2" d="M1470.44,730.24c-1.56,11.09-7.34,19.09-17.69,23.46-2.22.93-5.21,3.48-7.28.14-1.71-2.75,1.79-3.9,2.84-5.85,2.65-4.93,10.12-4.4,11.56-10.52,2.14-1.92,2.45-4.61,3-7.18.51-2.26.44-5.27,3.57-5.28S1469.09,728.48,1470.44,730.24Z"/><path class="cls-2" d="M1431.62,750.91c-2.27,3-5,.34-7.11-1-5.31-3.43-8-8.88-10.31-14.51-.94-6.34-1.91-12.69,5.41-17.17,4.37,5.42-1.29,12.9,3.76,17.79a19.35,19.35,0,0,0,5.82,9C1431.19,746.58,1433.39,748.61,1431.62,750.91Z"/><path class="cls-2" d="M1460.94,713c-1.42,2.19-4.16,1.58-5.72.45-7.44-5.39-15.14-6.94-23.82-3.19a3.36,3.36,0,0,1-4.9-2.57c-.51-2.54,1-3.94,3.1-4.85,3.67-1.57,7.46-2.51,10.86-2,7.67-.57,13.78,1.56,18.77,6.57C1460.72,708.93,1462.33,710.91,1460.94,713Z"/><path class="cls-2" d="M510.43,692.72c-1.8,2.1-4.41.79-6.48-.73-8.17-6-17.34-9.84-26.93-12.78-2.59-.79-4.8-1.9-3.88-4.87.76-2.48,3.21-2.36,6.74-1.62,9.9,1.75,20.35,5.43,28.55,13.85C510.11,688.3,512.4,690.43,510.43,692.72Z"/><path class="cls-2" d="M457.68,676.52c-.5,2.18-2.12,3.05-3.77,3.86-9,4.42-18,8.9-27.07,13.18-2,.92-4.5,3.27-6.4.24a4.76,4.76,0,0,1,1.64-6.5,84.62,84.62,0,0,1,32.76-13.17A2.22,2.22,0,0,1,457.68,676.52Z"/><path class="cls-2" d="M531.28,731.66c-.18,3.62-.37,7.24-.54,10.86-.08,1.66-.74,3.17-2.48,3.22a3.17,3.17,0,0,1-3.15-2.71c-1.27-5.48-2.58-11-3.87-16.44,1-4.62.26-9-1.14-13.46-.8-2.57-2.79-6.93.65-8.17,4.47-1.61,4.77,3.6,6.15,6.29C530.18,717.61,530.57,724.69,531.28,731.66Z"/><path class="cls-2" d="M504.73,728.36c-.3,11.85-6.51,19.79-16.77,24.83-2.39,1.18-5.67,4.19-7.71.08-1.93-3.89,1.57-5.75,4.48-7.17,6.15-3,10.81-7.12,12-14.21,1.59-2.09-.28-5.84,3.32-6.95C503.17,724,503,727.47,504.73,728.36Z"/><path class="cls-2" d="M465.62,751.24c-3,2.64-5.55-.4-7.67-2.39-4.82-4.53-7-10.44-8.28-16.76.92-4.77-.84-10.25,4-14.51,4.72,4.28,1.82,10.9,4.86,15.44.3,4.44,2.57,7.82,5.27,11.22C465.29,746.07,468.36,748.81,465.62,751.24Z"/><path class="cls-2" d="M495.51,713.18c-1.13,1.71-3.7,1.42-5,.47-8-5.81-16.45-6.77-25.64-3.37a2.9,2.9,0,0,1-3.72-1.74,3.62,3.62,0,0,1,1.71-4.67,23,23,0,0,1,12.58-3.16c7.41-.14,13.58,1.86,18.57,6.85C495.56,709.11,496.83,711.16,495.51,713.18Z"/><path class="cls-2" d="M523.71,764.14a18.94,18.94,0,0,1-1.41,3.48,61.48,61.48,0,0,1-23.5,22.3c-1.91,1-4.6,1.71-6,0-1.69-2.14.71-3.9,2.24-5.15a171.45,171.45,0,0,0,22.7-22.38c1.1-1.31,2.38-3,4.56-2C523.63,760.9,523.88,762.09,523.71,764.14Z"/><path class="cls-2" d="M1765.81,644c-6.41-20.33-13.22-25.27-34.59-25.18-11.31.06-22.64-.18-33.93.2-5.81.21-7-2-7-7.43.24-36.1.31-72.18-.07-108.26-.08-6.59,2.48-7.67,8-7.6,12.83.2,25.68.16,38.52,0,17.94-.22,29.08-11.64,28.72-29.54-.26-11.92-1.42-23.84-1.42-35.73,0-1.09-6.11-7.79-6.11-7.79-7.4-6.72-16.4-8.54-26.2-8.12-7.59.33-14.18-3-20.64-6.62-55.67-31.25-112.79-59.51-172.25-82.81-9.27-3.64-11-7.35-6.13-15.37,3.87-6.35,1.58-9.27-5.34-11.64-21-7.24-41.83-15.19-62.62-23.1-5.28-2-8.81-2.44-9.36,4.63-.16,2.05-1.62,4-1.93,6.07-.93,6-3.82,6-8.92,4.25-53.62-18.81-108.41-33.39-163.93-45.21-102-21.68-205.2-31.91-309.35-33.29-84.61,0-168.63,8.43-168.63,8.43-79.56,7.2-157.76,21.79-235,42.25-31.27,8.28-62.28,17.46-92.83,28.07-4.65,1.62-6.78,1-7.71-3.71-.3-1.48-.79-2.95-1.12-4.44-1.8-8-5.42-9.47-13.44-6.17-19.74,8.12-39.89,15.22-60,22.29-6.22,2.19-8.87,4.79-5.14,11.16,4.92,8.38,2.33,12.38-6.88,16.05-59.93,23.85-117.7,52.24-173.85,84a56.14,56.14,0,0,1-9.23,3.93c-6.5,2.22-13.35.95-20,1.72-6.49.77-11,6.39-19.08,7.29-3.8.81-3.42,9.16-3.42,9.16s-.05,30.48,0,32.06c-.86,21.7,10.47,32.54,31.57,32.23,11.93-.17,23.86.25,35.78-.22,6.15-.26,7.73,1.8,7.69,7.78q-.37,54.12,0,108.24c0,5.62-1.5,7.62-7.12,7.47-12.23-.29-24.46,0-36.7-.18-15.63-.22-26.22,6.55-31,21.72-2.42,34.28-1.76,33.25,27.29,51.76,21.22,13.53,42.76,20.18,67.95,18,18.22-1.58,36.67-.42,55-.05,5.28.09,8.13-1.18,10.26-6.45,6.1-15,22-16.63,31.49-3.38,4.24,5.94,7.6,12.49,11.46,18.72,1.7,2.77,2,4.6-1.56,6.44-7.83,4-15.39,8.57-23.07,12.93-9.78,5.83-19.51,11.78-29.41,17.46-5.78,3.34-6.24,7.07-2.85,12.69l48.61,83.76c11.42,19.5,8.06,20.27,26.86,7.6L412,841.73c10.39-10.6,12.34-10.69,19.24,0,2.78,3,4.26,3.67,4.26,3.67,66.27,3.45,129,1.21,195.31,1.63,4.61,0,6.91,1,6.28,6-.33,2.71.26,5.52-.09,8.24-.72,5.38,1.6,6.54,6.66,6.5,22.9-.15,45.82.11,68.73.24,11.68,1.12,8.7-7.62,8.21-13.37-.57-6.44,1.48-7.42,7.42-7.51,37.2-.64,74.56,2.32,111.52-4.4,37.2-5.81,74.62-8.29,112.24-8.76l24.83.64a506.61,506.61,0,0,1,95.48,7.36c40.12,7.13,80.67,4.48,121.07,5.55,4.42-1.38,7.22-.74,6.54,4.88-.33,2.72-.11,5.49-.19,8.23-.16,5.32,2,7.29,7.66,7.2,22.31-.35,44.62-.41,66.91,0,7.14.14,10.33-1.68,9.05-9.15-1.54-8.89.84-12.1,11.27-12,55.6.77,111.22.29,166.81.57,18.2.07,31.11-6.91,40.12-23.28,17.06-31,35.24-61.35,53-91.94,1.05-1.8,2.43-3.43,3.66-5.16,4-9.6,9.53-18.34,15.29-26.86,8.63-12.72,25.1-11,31,3.19,2.24,5.4,5.34,7.18,11.07,7.13,27.78-.3,55.56-.24,83.34-.17a25.22,25.22,0,0,0,13-3.41c15.82-9.16,31.61-18.38,47.59-27.27,5-2.75,6.68-6.2,6.37-11.8C1765.28,659.86,1765.74,651.91,1765.81,644ZM587.43,271.87A1408.72,1408.72,0,0,1,803.7,234.43c48.71-4.61,97.46-7.91,146.38-8.81l18.41-.11c33,0,66,1.91,98.93,4.35q56.61,4.19,112.93,12a1416.73,1416.73,0,0,1,213.3,46.86q26.74,8,53.1,17l-5.31,15.77q-52.21-17.56-105.76-31.61a1586.84,1586.84,0,0,0-239.32-43.45,1143.5,1143.5,0,0,0-126.34-6H950.19c-65.55-.6-130.64,4.92-195.42,14.62A1610.81,1610.81,0,0,0,480,321l-5.73-15.59Q530,286.52,587.43,271.87Zm-282,419.46c-2.7,3.36-5.45,4.22-9.33,4.22q-34.85-.13-69.68,0a32.21,32.21,0,0,1-16.47-4.68C198,684,186,677.28,174.08,670.53c-.79-.44-2-.61-2.39-1.27-4.74-9-2.5-18.32-1.08-27.49,1-6.68,6.72-8.39,12.47-8.48,11.89-.16,23.79.15,35.71.26,3.65-.2,7.32-.22,11-.64,8.59-1,14.43-6.41,14.47-15,.2-40.35.2-80.71-.24-121.07-.11-10.21-6.85-15.37-18.77-15.72-14-.38-28.13-.53-42.19-.22-9,.19-13-4.26-13.38-12.5-.37-8.54-.21-17.1-.08-25.65.15-9,4.94-13.79,13.85-13.31,13.77.75,25.46-4.28,37.16-10.87a1482.17,1482.17,0,0,1,176.52-84.65l5.51,15.3q-21.9,8.56-43.59,17.82c-23.56,10.05-47.08,20.24-70.21,31.2C247.19,418,234.17,459,256.89,499.2c21.88,38.76,44.58,77.06,66.83,115.6,6.1,10.54,11.92,21.23,17.87,31.86l0,.07c.73,1.36,1.48,2.7,2.22,4.06,12.54,18,22.09,37.75,33.36,56.52,1.4,2.31,3.07,5.39-.26,7.14-3.94,2.09-5-1.6-6.48-4.28-2.94-5.32-5.87-10.7-9.18-15.83C347.37,672.77,321.39,671.28,305.38,691.33ZM354.9,513.74h.27V643.06c0,1.71,1.05,4-1.08,4.85-3,1.19-3.32-2-4.22-3.6-29.47-50.68-59.47-101-88-152.23C242.82,457.85,256,421.57,291.66,405c18.51-8.6,37.24-16.71,55.69-25.42,5.93-2.79,7.73-2.4,7.7,4.82C354.75,427.52,354.9,470.63,354.9,513.74ZM397,840.55l-12.9,6.89c-3.33,1.93-6.52,4.11-10,5.69-12.1,6.87-15.65-2.9-15.65-2.9l-14-23.37c5.74.86,10,.64,8-5.86-4.83-8-9.61-16-14.51-24-3.06-5-6.08-12-10.92.77-4.41-8.74-9.75-15.11-11.5-23.39l-.25,0a1.62,1.62,0,0,0,0-.22c-3.76-2.22-5.54-5.68-6.31-11.64,3.23,4.51,6.86,6.88,6.31,11.64l.22.13s0,.05,0,.07c2.46,0,4.67,3.62,7,1s.26-5.62-1.32-7.36c-7.64-8.52-3.15-12.49,5.05-16.07,6.59-2.86,12.93-11,19-8.9,5,1.72,7.58,10.89,11,16.89,8.3,14.45,16.47,29,24.7,43.48,7,9.51,12.21,20.12,18.12,30.31C400.8,836.81,401.41,839.18,397,840.55Zm18.62-12.92c-1.63-1.12-2.7-3.22-3.74-5q-24.69-42.24-49.21-84.55c-1.23-2.11-4.46-4.68-1-7,2.63-1.8,4.39.9,5.64,3q25.5,43.82,50.95,87.67a28.37,28.37,0,0,1,1.41,3.36C419.57,828.12,418,829.22,415.6,827.63Zm-24.84-92c4.24-.13,5.54,3.32,7,6.19s4.39,5.52,1.87,9.07c-1,1.45-3.38,3.34-4.43,1.85a79.75,79.75,0,0,1-7.8-14C386.54,736.89,388.72,735.73,390.76,735.6ZM431.14,803l-.28.08a1.73,1.73,0,0,0,.07-.31c-7.75-.76-11.47-6.14-14.08-12.55-.88-2.2-.9-5.08,1.56-6.29s4.24,1,4.92,2.82c2,5.6,9.48,8.67,7.6,16h0a1.92,1.92,0,0,0,.19.23c7.27-1.83,9.69,5.27,14.39,8.17,1.36.85-.53,2.1-1.38,2.63a4.24,4.24,0,0,1-5.73-1.06C435.83,809.63,433.54,806.27,431.14,803Zm206.09,26.9a2.81,2.81,0,0,1-2.81,2.81L461,832.6c-6.11,0-12.26,0-18-2.38-1.91-.81-4-1.93-4.06-4.49,0-2.33,2.28-2.49,3.76-3.36,8-4.77,15.87-7.54,25.84-4.86,7.43,2,15.79.64,23.72.64q71.24,0,142.48,0a2.51,2.51,0,0,1,2.51,2.51Zm169.5,2.28c-6.92,1-14.05.61-21.06.61l-63.33,0a2.62,2.62,0,0,1-2.62-2.62v-8.45a3.51,3.51,0,0,1,3.51-3.51q67.93,0,135.87.07c25.78,0,51.57-2.88,78,.43C892.75,821.42,849.66,826,806.73,832.18Zm393.21-2.74a3.15,3.15,0,0,1-3.15,3.15l-64.11.09c-25.85.05-51-5.94-76.55-7.75-23.41-1.67-46.78-3.93-70.21-6.36,12.47-2,25.12-2.16,37.68-1.63,55.63,2.39,111.3,1,166.94,1.18l6.81,0a2.59,2.59,0,0,1,2.59,2.59Zm77-18.6a2,2,0,0,0-1.35.56,1.89,1.89,0,0,0-.56,1.35v44.51a2,2,0,0,1-2,2h-64.1a2,2,0,0,1-2-2V814.51a3.66,3.66,0,0,0-3.65-3.65h0l-450.4-.42-37.27-.06a3.24,3.24,0,0,0-3.25,3.25V853.7c0,.19,0,1,0,1.9A3.35,3.35,0,0,1,709,859h-60.2a3.91,3.91,0,0,1-3.92-4l.19-22.33.12-14.55,0-4.52a3.33,3.33,0,0,0-3.37-3.37h0q-27.12-.06-54.25-.09l-108.17.28a38.66,38.66,0,0,1-5.25.4c-2.19-.11-5.69,1.07-6-1.8-.35-3.17,3.26-3.49,5.78-4.13,1.45-1.08,3-2.09,4.35-3.25a3.57,3.57,0,0,0,.9-4.88c-1.17-2-3.07-1.82-4.75-.9-4.54,2.44-9.44,4.48-13.35,7.71-4.21,3.45-7.31,2.64-11.28,0-6.4-4.28-12.34-9.05-16.25-15.72-10.94-18.56-21.61-37.29-32.37-56a21.09,21.09,0,0,1-1.7-2.1c-8.58-13.4-8.58-13.4,3.85-22.6,2.11-1.56,5.62-2.92,3.34-6.19-2-2.95-5-.79-7.38.39-12.76,6.24-12.74,6.26-19.85-6.15-2.86-5-5.36-10.28-8.72-15-7.91-11-10.13-23.2-8.17-36.37-.11-30.86-.31-61.75-.35-92.61-.07-56.56.07-113.13-.2-169.68,0-6.26,1.95-8.92,7.69-11.31,13.09-5.45,24-9.83,37.16-14.94l.09,0a6.22,6.22,0,0,0,3.56-8l-.41-1.1L404.38,331,396,308.39c-.39-1-.77-2.06-1.16-3.08l63-23.3.05,0,9.23,25.83,5.6,15.64.7,2a5.43,5.43,0,0,0,6.84,3.32l1-.33a1559.9,1559.9,0,0,1,221.48-57.22c74.94-13.76,150.36-22.07,226.55-23.64h62.37c47.06,1.37,93.92,4.57,140.65,10.48a1603.24,1603.24,0,0,1,242.27,50.2q34.4,9.92,68.21,21.46l0,0a4.28,4.28,0,0,0,5.46-2.67l1-3,5.36-15.74,4.67-13.68c.25-.68.51-1.38.77-2.06l2.35-6.68,1.14-3.19c20,6,39.21,14.2,58.76,21.43.78,1.83,1.19,2.79,2,4.62l-2.72,6.23c-.28.71-.53,1.43-.79,2.12l-4.94,13.89-5.43,15.27-.7,2a5.59,5.59,0,0,0,3.21,7.06l39,15.46c3.8,1.54,6.39,3.1,6.37,8.39-.29,85-.25,170-.33,255,0,3.33-.42,6.67-.64,10,2,12.78-.06,24.38-7.25,35.62-11,17.11-20.84,34.94-31.18,52.46-10.41,18.29-20.42,36.83-31.36,54.79-10.06,16.52-25.93,23.7-44.86,23.7Q1359.81,810.83,1276.94,810.84ZM1736.49,676.5c-23.23,14.74-47,22.14-74.35,19.13-8.15-.9-16.5-.31-24.75-.08-10.63.32-19.31-.25-28-9.89-14.43-16.07-40-9.33-52.11,11.6-22.79,39.33-45.9,78.5-68.12,118.17-7.14,12.77-16,17.72-30.81,17.65q-87-.5-174-.51a2.44,2.44,0,0,1-2.44-2.44V821.3a3.13,3.13,0,0,1,3.14-3.14c50.14,0,100.3-.08,150.44.23,29,.17,49.72-10.54,64.19-36.63,26.33-47.46,54.42-94,81.8-140.85q40.79-70.45,81.62-140.92c15.75-27.19,14.46-58-3.46-80.75-7.36-9.33-16.83-15.9-27.45-20.88Q1575.84,371.92,1518,349.3l5.39-15.2a1501.29,1501.29,0,0,1,185.82,89.73c7.42,4.22,15.39,5.43,23.76,5.49,14.56.09,17.61,3.14,17.88,17.84.15,7,.08,14.07-.36,21.08-.5,8.27-4.74,12.75-13.54,12.67q-20.16-.2-40.36.24c-15.53.37-20.74,5.73-20.78,21.37q-.16,51.81,0,103.63c0,23.85,2.3,26.21,25.69,27.36,11.61-.09,23.21-.37,34.81-.2,8.91.11,14.47,4.2,14.31,13.9a4.94,4.94,0,0,0,.09.92C1752.81,661.05,1748.61,668.82,1736.49,676.5Zm-171.37-290c0-8.73,1.67-9.68,9.38-6,17,8.22,34.43,15.4,51.58,23.26,40,18.34,51.67,55.67,29.45,93.92-17.9,30.86-35.93,61.64-53.83,92.5-10.1,17.39-20,34.89-30.11,52.31-1.4,2.46-3,4.8-4.53,7.2l-1.74-.5V616.47C1565.31,539.81,1565.42,463.17,1565.12,386.54Z"/><path class="cls-1" d="M1557.94,634.17c.08-85,0-170,.33-255,0-5.29-2.57-6.85-6.37-8.39l-39-15.46a5.59,5.59,0,0,1-3.21-7.06l.7-2,5.43-15.27,4.94-13.89c.26-.69.51-1.41.79-2.12l2.72-6.23c-.79-1.83-1.2-2.79-2-4.62-19.55-7.23-38.75-15.43-58.76-21.43l-1.14,3.19-2.35,6.68c-.26.68-.52,1.38-.77,2.06l-4.67,13.68-5.36,15.74-1,3a4.28,4.28,0,0,1-5.46,2.67l0,0q-33.81-11.5-68.21-21.46a1603.24,1603.24,0,0,0-242.27-50.2c-46.73-5.91-93.59-9.11-140.65-10.48H929.26c-76.19,1.57-151.61,9.88-226.55,23.64a1559.9,1559.9,0,0,0-221.48,57.22l-1,.33a5.43,5.43,0,0,1-6.84-3.32l-.7-2-5.6-15.64L457.86,282l-.05,0-63,23.3c.39,1,.77,2.05,1.16,3.08L404.38,331,410,346.31l.41,1.1a6.22,6.22,0,0,1-3.56,8l-.09,0c-13.2,5.11-24.07,9.49-37.16,14.94-5.74,2.39-7.71,5.05-7.69,11.31.27,56.55.13,113.12.2,169.68,0,30.86.24,61.75.35,92.61-2,13.17.26,25.32,8.17,36.37,3.36,4.69,5.86,10,8.72,15,7.11,12.41,7.09,12.39,19.85,6.15,2.39-1.18,5.34-3.34,7.38-.39,2.28,3.27-1.23,4.63-3.34,6.19-12.43,9.2-12.43,9.2-3.85,22.6a21.09,21.09,0,0,0,1.7,2.1c10.76,18.67,21.43,37.4,32.37,56,3.91,6.67,9.85,11.44,16.25,15.72,4,2.64,7.07,3.45,11.28,0,3.91-3.23,8.81-5.27,13.35-7.71,1.68-.92,3.58-1.12,4.75.9a3.57,3.57,0,0,1-.9,4.88c-1.38,1.16-2.9,2.17-4.35,3.25-2.52.64-6.13,1-5.78,4.13.33,2.87,3.83,1.69,6,1.8a38.66,38.66,0,0,0,5.25-.4l108.17-.28q27.13,0,54.25.09h0a3.33,3.33,0,0,1,3.37,3.37l0,4.52L645,832.71,644.84,855a3.91,3.91,0,0,0,3.92,4H709a3.35,3.35,0,0,0,3.35-3.39c0-.92,0-1.71,0-1.9V813.63a3.24,3.24,0,0,1,3.25-3.25l37.27.06,450.4.42h0a3.66,3.66,0,0,1,3.65,3.65v42.75a2,2,0,0,0,2,2H1273a2,2,0,0,0,2-2V812.75a1.89,1.89,0,0,1,.56-1.35,2,2,0,0,1,1.35-.56q82.86,0,165.71-.09c18.93,0,34.8-7.18,44.86-23.7,10.94-18,21-36.5,31.36-54.79,10.34-17.52,20.22-35.35,31.18-52.46,7.19-11.24,9.25-22.84,7.25-35.62C1557.52,640.84,1557.94,637.5,1557.94,634.17ZM473.14,674.34c.76-2.48,3.21-2.36,6.74-1.62,9.9,1.75,20.35,5.43,28.55,13.85,1.68,1.73,4,3.86,2,6.15-1.8,2.1-4.41.79-6.48-.73-8.17-6-17.34-9.84-26.93-12.78C474.43,678.42,472.22,677.31,473.14,674.34Zm-46.3,19.22c-2,.92-4.5,3.27-6.4.24a4.76,4.76,0,0,1,1.64-6.5,84.62,84.62,0,0,1,32.76-13.17,2.22,2.22,0,0,1,2.84,2.39c-.5,2.18-2.12,3.05-3.77,3.86C444.9,684.8,435.92,689.28,426.84,693.56Zm38.78,57.68c-3,2.64-5.55-.4-7.67-2.39-4.82-4.53-7-10.44-8.28-16.76.92-4.77-.84-10.25,4-14.51,4.72,4.28,1.82,10.9,4.86,15.44.3,4.44,2.57,7.82,5.27,11.22C465.29,746.07,468.36,748.81,465.62,751.24Zm-.75-41a2.9,2.9,0,0,1-3.72-1.74,3.62,3.62,0,0,1,1.71-4.67,23,23,0,0,1,12.58-3.16c7.41-.14,13.58,1.86,18.57,6.85,1.55,1.55,2.82,3.6,1.5,5.62-1.13,1.71-3.7,1.42-5,.47C482.51,707.84,474.06,706.88,464.87,710.28Zm15.38,43c-1.93-3.89,1.57-5.75,4.48-7.17,6.15-3,10.81-7.12,12-14.21,1.59-2.09-.28-5.84,3.32-6.95,3.07-1,2.9,2.53,4.63,3.42-.3,11.85-6.51,19.79-16.77,24.83C485.57,754.37,482.29,757.38,480.25,753.27Zm43.46,10.87a18.94,18.94,0,0,1-1.41,3.48,61.48,61.48,0,0,1-23.5,22.3c-1.91,1-4.6,1.71-6,0-1.69-2.14.71-3.9,2.24-5.15a171.45,171.45,0,0,0,22.7-22.38c1.1-1.31,2.38-3,4.56-2C523.63,760.9,523.88,762.09,523.71,764.14Zm7-21.62c-.08,1.66-.74,3.17-2.48,3.22a3.17,3.17,0,0,1-3.15-2.71c-1.27-5.48-2.58-11-3.87-16.44,1-4.62.26-9-1.14-13.46-.8-2.57-2.79-6.93.65-8.17,4.47-1.61,4.77,3.6,6.15,6.29,3.28,6.36,3.67,13.44,4.38,20.41C531.1,735.28,530.91,738.9,530.74,742.52Zm900.88,8.39c-2.27,3-5,.34-7.11-1-5.31-3.43-8-8.88-10.31-14.51-.94-6.34-1.91-12.69,5.41-17.17,4.37,5.42-1.29,12.9,3.76,17.79a19.35,19.35,0,0,0,5.82,9C1431.19,746.58,1433.39,748.61,1431.62,750.91Zm-.22-40.61a3.36,3.36,0,0,1-4.9-2.57c-.51-2.54,1-3.94,3.1-4.85,3.67-1.57,7.46-2.51,10.86-2,7.67-.57,13.78,1.56,18.77,6.57,1.49,1.5,3.1,3.48,1.71,5.61s-4.16,1.58-5.72.45C1447.78,708.1,1440.08,706.55,1431.4,710.3Zm21.35,43.4c-2.22.93-5.21,3.48-7.28.14-1.71-2.75,1.79-3.9,2.84-5.85,2.65-4.93,10.12-4.4,11.56-10.52,2.14-1.92,2.45-4.61,3-7.18.51-2.26.44-5.27,3.57-5.28s2.63,3.47,4,5.23C1468.88,741.33,1463.1,749.33,1452.75,753.7Z"/><path d="M861.82,483.93V595H842V524.22l-19.51,14.91L806.3,551.66l-16.18-12.53-19.51-14.91V595H750.79v-111l19.82,15.23L806.3,526.6,842,499.16Z"/><path d="M915.74,520.89v75.5H895.91V518.82a15.81,15.81,0,0,0-13.48-13.48H878V485.67h4.28v.16a35.55,35.55,0,0,1,13.48,3.65,35.17,35.17,0,0,1,16,16.18,41,41,0,0,1,2.7,7.45,33,33,0,0,1,.95,8.09Z"/><path d="M1032.8,539a32.75,32.75,0,0,1-23.48,55.51H963.8a32.58,32.58,0,0,1-30.14-20,34.31,34.31,0,0,1-2.54-12.85V516.13a32.19,32.19,0,0,1,8.25-21.42,33.65,33.65,0,0,1,9.52-7.45,31.39,31.39,0,0,1,14.91-3.65h69v19.83h-69a13.07,13.07,0,0,0-13,13V532a32.48,32.48,0,0,1,12.37-2.54H1010a32.81,32.81,0,0,1,23,10Zm-23.64,35.69a13.07,13.07,0,0,0,13-13,12.92,12.92,0,0,0-12.21-13h-46.8a13,13,0,0,0,.64,26h45.36Z"/><path d="M1159.68,539a32.75,32.75,0,0,1-23.47,55.51h-45.53a32.55,32.55,0,0,1-30.13-20,34.31,34.31,0,0,1-2.54-12.85V516.13a32.14,32.14,0,0,1,8.25-21.42,33.6,33.6,0,0,1,9.51-7.45,31.45,31.45,0,0,1,14.91-3.65h69v19.83h-69a13.07,13.07,0,0,0-13,13V532a32.44,32.44,0,0,1,12.37-2.54h46.79a32.81,32.81,0,0,1,23,10Zm-23.63,35.69a13.06,13.06,0,0,0,13-13,12.92,12.92,0,0,0-12.21-13h-46.79a13,13,0,0,0,.63,26h45.37Z"/></g></g></svg>