<svg xmlns="http://www.w3.org/2000/svg" viewBox="0 0 1920 1080"><defs><style>.cls-1{fill:#fff;}.cls-2{fill:#f2f2f2;}.cls-3{isolation:isolate;}</style></defs><g id="Capa_2" data-name="Capa 2"><g id="Capa_1-2" data-name="Capa 1"><g id="Capa_2-2" data-name="Capa 2"><g id="Capa_1-2-2" data-name="Capa 1-2"><rect class="cls-1" width="1" height="1"/><rect class="cls-1" x="1919" y="1079" width="1" height="1"/><rect class="cls-1" y="1079" width="1" height="1"/><rect class="cls-1" x="1919" width="1" height="1"/><path d="M1765.82,529c-.06-23.24-8-31.2-30.88-31.16h-47c0-19.37-.17-36.57,0-53.76.27-21.76-8.94-37.48-28.42-47.54-208.82-108-428.15-174.78-665.72-171.47-36.54.51-73.12-2.45-109.69-3.28-17.62-.4-35.27.67-52.91.67l-3.62,2.29c-3.57,1.52-4.26,2-5,2.09a1484.39,1484.39,0,0,0-325.11,67.65A1468.28,1468.28,0,0,0,257.31,397.72C241.93,406,231.74,418,232.22,436.87c.42,16.82.11,33.66.71,50.47.28,7.73-2.05,10.83-10.17,10.56-15.22-.5-30.48-.46-45.69,0-14.85.47-23.41,9.85-23.06,23.51V673.25s1,5,7.27,12.35C179,706.45,201.9,703.33,224,703.38c31.57.07,63.13,0,98.48,0-9.82,7-16.68,12.09-23.83,16.79-5.25,3.45-7,6.81-2.94,12.65q27.54,39.4,54.54,79.2c4.38,6.49,8.34,5.9,13.8,2,11-8,22.27-15.67,33.85-23.78,27.89,19,60.63,19.08,92.1,23.76,37.25,5.51,74.63,10.15,111.94,15.24a47.74,47.74,0,0,1,6.52,1.81c68,3.32,115.85-.79,115.85-.79l86.32-17.92c-.16,1.19-.31,2.38-.47,3.57,5.18,1.26,10.48,4,15.51,3.53,23.14-2,46.18-5.1,69.31-7.33,18.93-1.82,16.07,2.8,18-18.09h95.48c-5.73,17.4,4,17.49,16,18.27,23.16,1.5,46.31,4.16,69.24,7.78,8.34,1.32,12.85.18,14.52-8.22L1195.66,830l28.79,5.74c53.57.08,106.1-8,158.81-15.33,34.89-4.85,69.82-9.61,104.52-15.62,25.37-4.4,44.27-19.68,59-40.35,11.85-16.65,24-33.11,35.28-50.12,5.55-8.36,12.38-11.33,22.13-11.22,36.88.38,73.76.1,110.65.31,21.64.12,39.47-6.12,49.93-30.86l1.24-27C1765.81,606.73,1765.93,567.85,1765.82,529ZM1016.16,238.62c.9-2.08,1.2-4.41,2.17-8.26,37.21,3.17,74,5.36,110.49,9.56,130.76,15,257.54,46.59,379.22,96.76,49.51,20.41,97.31,45,145.7,68,11.64,5.55,22.28,12.86,23,30.31-207.38-116.22-428.37-178.41-665.41-188.11C1013.56,243.18,1015.13,241,1016.16,238.62ZM262.74,406c20.48-11,41.09-21.69,62-31.7A1462,1462,0,0,1,822.15,236.77c24.72-2.28,49.55-3.42,74.32-5a50.54,50.54,0,0,1,5.77.27l5.92,15c-116.85,4.43-231.22,22-343.28,53.59A1453,1453,0,0,0,242.32,435C242.43,418.79,252.1,411.64,262.74,406Zm95.51,400.29-53.87-78.07,30-21.22,55.92,76.55Zm36.63-25.77-56.06-76.19,25.83-18.5,54.17,77.53Zm-26-97.82c19-13.39,36.14-26.58,54.38-38.1,20-12.6,46.67-6.19,61.1,13.17s12.48,47.46-6.32,63.07c-16.89,14-35.4,26.11-54.4,39.94ZM696.09,824.14c-64.61,3.86-127.56-9.94-191-18.22-24.21-3.16-48.4-6.71-72.43-11-8.42-1.51-16.33-5.81-26.91-9.75,8.34-6,14.38-10.32,20.45-14.63,18.62-13.21,37.9-25.6,55.74-39.79,25.45-20.25,28.74-55.31,8.9-80.52-19.14-24.32-53.51-28.23-79.64-9.44-24.06,17.31-48.38,34.28-72.65,51.3-2.19,1.54-4.89,3.41-7.33,3.39q-64.83-.75-129.65-2.07a70.48,70.48,0,0,1-15.42-2.14c-12.53-3.11-21.5-14.38-21.62-28.47-.44-47.69-.52-95.38-.5-143.07,0-10,7.28-12.45,15.64-12.51,15.23-.1,30.47.15,45.7,0,13.7-.11,16.83-3.38,17-17.22.1-9.22,1.24-18.64-.22-27.62-2.78-17.07,5.11-25.12,19.55-32.93C428.82,339,606.38,281.8,795.36,260.69c34.22-3.83,68.65-5.78,103-8.53,3.37-.27,6.78,0,11,0-2.28,9.93-8.37,11.24-15.6,11.6A1478.09,1478.09,0,0,0,668.59,292,1448,1448,0,0,0,291.84,425.8C270.09,437.08,259.08,454.26,260,479c.41,11.21,0,22.44.1,33.67.19,38,19.79,58.2,57.74,57.86,45.33-.41,90.41,1,135.41,7.65,22.92,3.39,39.57,12.83,50.61,33.41s22.91,40.41,35,60.23a78.69,78.69,0,0,1,11.83,43.39c-.09,5.21-.08,10.43-.06,15.64.12,31.37,16.39,50.24,47.34,54.81,30.51,4.51,61,8.88,91.55,13.46,3.88.58,8.87.85,11.18,3.31,4.21,4.47,9.4,10.45,9.45,15.84C710.24,827.09,701.46,823.82,696.09,824.14Zm400.36-14.22-79-8.52c3.79-16.5-6.52-17.7-18.41-17.62-26.84.18-53.68-.29-80.5.29-16.14.35-16.13,1-16.86,17.24l-75.85,8.34L813,792.06c-1.23-8.41,4.34-12.72,14.32-12.7q132.2.27,264.41.1c10.15,0,15.69,3.84,18.88,15.59-14.08-3.65-11.11,7.43-14.16,14.87Zm96.38-2.07c-18.26-4.51-36.81-7.84-55.19-11.84-11-2.38-22.6-2.6-29.06-15.25-2-3.91-10.3-6.45-15.74-6.47q-132.81-.59-265.63.16c-6.49,0-13.07,5.93-19.37,9.53-5.14,2.93-9.51,8.18-14.92,9.48-22.18,5.34-44.69,9.34-66.95,14.36-6.42,1.44-10.48,1.06-15.72-4.13-5-4.92-12.78-8.35-19.83-9.52-30.42-5-61-8.75-91.53-13.43-29.48-4.54-44-20.94-42.77-51,1.09-26.26-4.45-49.65-19.25-71.56-11.42-16.89-21.13-35-31.08-52.8s-24.54-28.44-44.64-30.75c-35-4-70-7.46-105-11.15l-.27,1c-16.8,0-33.72,1.32-50.36-.31C280.79,561.74,266,545,265,520.06c-.65-16-.6-32.08,0-48.09.78-20.1,12.11-33.59,29.64-41.83,41.29-19.4,82.12-40,124.3-57.24,152.24-62.3,310.85-96.41,475.14-104.67,6.72-.33,13.11-7,19.69-10.64,3.82-2.11,7.69-5.73,11.6-5.83q34.25-.82,68.52,0c3.8.1,7.51,3.87,11.26,6,6.6,3.65,13,10.22,19.8,10.55Q1299.31,281.83,1550,394c26.3,11.77,51.89,25.12,77.73,37.89,18.82,9.3,27.73,24.51,27,45.59-.38,11.61-.93,23.31.06,34.85,2.43,28.21-13.29,53.18-53,53.58-10.43.11-20.89-.6-31.26.13-37.1,2.6-74.2,5.31-111.24,8.68-20.47,1.86-35.46,11.89-45.47,30.84-12.9,24.42-28.52,47.39-41.36,71.84-4.93,9.39-6.14,21-7.7,31.81-1.24,8.65.08,17.63-.65,26.39-2.19,26.3-15.43,40.81-41.68,45-30.85,4.88-61.87,8.73-92.7,13.77-6.73,1.1-14.31,4-19,8.54-5.79,5.46-10.31,6.81-17.85,5Zm563-149.46c-.47,24.5-13,34.78-40.52,35.08-36.48.39-73,.57-109.45,0-14.69-.24-24.85,4.57-33,17.11-12.25,18.75-25.71,36.77-39.33,54.58-14.62,19.1-34.67,29-58.35,32.3-59.91,8.41-119.65,18.25-179.74,25.06-27.66,3.14-56,.54-84.24.54-4.88-11.5,1.51-21.47,16.41-23.71,30.9-4.66,61.85-9,92.76-13.47,32.55-4.76,50.61-23.33,48.63-56-1.7-28.07,6.09-51.56,21.17-74.25,10.85-16.32,20.09-33.72,29.78-50.79,7.62-13.41,18.61-21.49,33.93-24.15a709,709,0,0,1,143.64-10.12,107.14,107.14,0,0,0,22.67-1.94,47.5,47.5,0,0,0,39.2-45.44c.57-17.62.67-35.3,0-52.91-.79-20.37-12.11-34-29.81-43.2a1468.56,1468.56,0,0,0-221.09-93.24,1451.58,1451.58,0,0,0-383-70.07c-7.16-.34-13.39-1.37-16-11.81,17.94.88,34.9,1.37,51.81,2.61a1460.47,1460.47,0,0,1,350.48,68.85c89.68,29.43,175.53,67.51,258,113.25,6.43,3.57,9.08,7.82,8.8,15.15-.54,14,.28,28.08-.55,42.06-.58,9.68,3.63,13.26,12.38,13.3,15.64.07,31.27-.06,46.91,0,13.65.1,18.66,4.17,18.76,17.68.3,44.53.56,89-.29,133.53Z"/><path class="cls-2" d="M1654.7,512.29c-1-11.54-.44-23.24-.06-34.85.71-21.08-8.2-36.29-27-45.59-25.84-12.77-51.43-26.12-77.73-37.89q-250.62-112.17-525-125.68c-6.76-.33-13.2-6.9-19.8-10.55-3.75-2.08-7.46-5.85-11.26-6q-34.25-.84-68.52,0c-3.91.1-7.78,3.72-11.6,5.83-6.58,3.64-13,10.31-19.69,10.64-164.29,8.26-322.9,42.37-475.14,104.67-42.18,17.26-83,37.84-124.3,57.24-17.52,8.27-28.85,21.76-29.6,41.89-.62,16-.67,32.08,0,48.09,1,24.89,15.84,41.68,40.6,44.1,16.64,1.63,33.56.31,50.36.31l.27-1c35,3.69,70,7.14,105,11.15,20.1,2.31,34.74,13,44.64,30.75s19.66,35.91,31.08,52.8c14.8,21.91,20.34,45.3,19.25,71.56-1.25,30.07,13.29,46.47,42.77,51,30.48,4.68,61.11,8.39,91.53,13.43,7,1.17,14.87,4.6,19.83,9.52,5.24,5.19,9.3,5.57,15.72,4.13,22.26-5,44.77-9,67-14.36,5.41-1.3,9.78-6.55,14.92-9.48,6.3-3.6,12.88-9.48,19.37-9.53q132.81-1,265.63-.16c5.44,0,13.74,2.56,15.74,6.47,6.46,12.65,18.09,12.87,29.06,15.25,18.38,4,36.93,7.33,55.19,11.84,7.54,1.86,12.06.51,17.74-5,4.72-4.59,12.3-7.44,19-8.54,30.83-5,61.85-8.89,92.7-13.77,26.25-4.15,39.49-18.66,41.68-45,.73-8.76-.59-17.74.65-26.39,1.56-10.8,2.77-22.42,7.7-31.81,12.84-24.45,28.46-47.42,41.36-71.84,10-18.95,25-29,45.47-30.84,37-3.37,74.14-6.08,111.24-8.68,10.37-.73,20.83,0,31.26-.13C1641.41,565.47,1657.13,540.5,1654.7,512.29Zm-695.07-35A31.4,31.4,0,0,1,928,446.13c0-.31,0-.62,0-.93.14-17.52,13.55-30.79,31.19-30.9,18-.1,31.95,13.82,31.74,31.71a31.68,31.68,0,0,1-31.3,31.24Z"/><path d="M959.23,414.3c-17.64.11-31.05,13.38-31.19,30.9a31.48,31.48,0,0,0,63,.8C991.18,428.12,977.24,414.2,959.23,414.3Zm.21,58.06a27,27,0,0,1-26.58-26.75,26.57,26.57,0,0,1,53.14,0h0C986.07,460,973.77,472.39,959.44,472.36Z"/><path d="M1498.76,685.6c.17,14.16-10.52,25.38-24.46,25.67s-25.75-10.47-26.14-24.1c-.41-14.3,11.07-26.4,25.2-26.55A25.34,25.34,0,0,1,1498.76,685.6Zm-5,.22a20.55,20.55,0,0,0-20.69-20.26c-10.32.2-19.85,9.71-20,20-.19,11.47,9.85,21,21.61,20.56a19.81,19.81,0,0,0,19.08-20.3Z"/><path d="M477.9,686.37c0,16.91-14.33,31.36-31.3,31.47A31.35,31.35,0,0,1,414.76,687v-1c.26-18.34,13.76-31.46,32.23-31.32C464,654.76,477.86,669,477.9,686.37Zm-31.68,24.94a25.44,25.44,0,1,0-.66,0Z"/><g class="cls-3"><path d="M798.38,564.05v111H778.55V604.34L759,619.25l-16.17,12.53-16.18-12.53-19.51-14.91v70.74H687.35v-111l19.83,15.23,35.69,27.44,35.68-27.44Z"/><path d="M852.3,601v75.5H832.48V599A15.83,15.83,0,0,0,819,585.46h-4.45V565.79h4.29V566a35.6,35.6,0,0,1,13.48,3.65,35.17,35.17,0,0,1,16,16.18,42.55,42.55,0,0,1,2.7,7.45,33.53,33.53,0,0,1,1,8.09Z"/><path d="M978.72,597.68a32.67,32.67,0,0,1-9.2,22.84A32.75,32.75,0,0,1,946,676H867.85V656.21H946a13.07,13.07,0,0,0,13-13,12.92,12.92,0,0,0-12.21-13h-59V610.37h59a13,13,0,0,0-.64-26H868V564.53h78.2a32.63,32.63,0,0,1,32.68,32.67Z"/><path d="M1105.6,564.05v111h-19.82V629.4h-58.53a31.42,31.42,0,0,1-14.91-3.65,32.4,32.4,0,0,1-17.77-29V564.05h19.83v32.67a13.07,13.07,0,0,0,13,13h58.53V564.05Z"/><path d="M1229.79,630a31.54,31.54,0,0,1,2.7,12.85,32.63,32.63,0,0,1-32.67,32.68h-78.2V655.73h78.2a12.93,12.93,0,0,0,12.84-13,12.76,12.76,0,0,0-11.42-12.84h-79.62V564.53h101.67v19.82h-81.84v25.7h59.63A32.16,32.16,0,0,1,1230,629.88Z"/></g></g></g></g></g></svg>