<svg xmlns="http://www.w3.org/2000/svg" viewBox="0 0 1920 1080"><defs><style>.cls-1{fill:#010101;}.cls-2{fill:#f2f2f2;}</style></defs><g id="Capa_2" data-name="Capa 2"><g id="Capa_1-2" data-name="Capa 1"><path class="cls-1" d="M1709.49,497.3c-11.72-14.42-27.32-8.49-41.22-9.21-12.87-.66-25.82.16-38.69-.51-13.66-.71-19.59-6.92-20.45-20.53-.51-7.82,0-15.72-.51-23.55-1.33-21.45-10-39.35-26.49-53.35-10.33-8.78-22-15.5-34-21.53-33.08-16.56-67.7-29.43-102.4-42.06-64.16-23.38-128.93-45-195.31-61.11-59.77-14.54-120.7-22-182.06-25.51-9.67-.54-17.29-3.1-23.3-10.78a39.06,39.06,0,0,0-11.24-10c-8.5-4.92-20.33-2.93-23.9,5.93-3.22,8-8.09,8.61-14.89,8.09-3.89-.31-7.85.05-11.78-.1l-64.82.13c-2.15,0-4.63.47-5.55-2.44-4.3-13.33-14.44-13.39-26.3-13.36-1.65,0-5.31,3.74-5.31,3.74-8.8,11.24-16.65,18.28-31,19-95.09,4.79-187.72,23-278.14,52.91-63.81,21.12-127.54,42.42-189,69.81A224.86,224.86,0,0,0,343,385.6c-21.11,15.16-31.28,36-32.26,61.65-.25,6.72,0,13.48-.3,20.18-.66,12.81-7.28,19.65-20,20.05-15.7.5-31.41.39-47.11.57-11.86.15-24.65-2.47-31.33,11.05l-4.38,9.39a18.22,18.22,0,0,0-1.7,7.66v157a39.89,39.89,0,0,0,5.34,20.39c6.38,10.76,16.13,15.43,31.66,15.58,22.41.22,44.79.17,67.2,0,14-.09,14.92-.93,17.92-15,.63-2.91,1.89-3.52,4.48-3.5q31.92.08,63.83,0c2.74,0,5.05.75,5.91,4.64a30.82,30.82,0,0,0,8.54,15.24c6.79,6.67,3.82,7.43,1,8.86Q380.61,735,349.56,750.63c-6.3,3-8.54,6.67,2.29,18.31A162.11,162.11,0,0,1,391.39,842c3.66,15.55,9.16,12.53,14.71,9.69C426.44,841.24,446.91,831,467,820c6.81-3.74,10.43-2.92,13,4.14.58,1.55,1.74,2.88,2.38,4.41,3.94,9.5,10.68,13.24,21.16,12.16,8.55-.87,17.3,0,26,.07,23.74-.1,47.47-.25,71.21-.28,4.46,0,13.2,11.64,14.75,15.93,3.91,10.85,16.19,4.26,16.19,4.26,41.61-22.5,86-37.29,132-47.8a730.37,730.37,0,0,1,95.82-15.79c40.27-5.08,80.65-8.44,121.3-6.47,10.9.43,21.83.34,32.66,1.4,18.31,1.82,36.79,2.39,54.85,6.35,36.42,3.22,72.11,10.46,107.5,19.36,1.87.47,3.71,1.09,5.56,1.65,37.13,10,73.12,22.94,106.76,41.76,6.71,3.75,11.44,3.42,14.19-3.44,6.42-15.95,18.27-18.33,34-17.59,28.28,1.32,56.67.21,85,.46,6.08.07,9.86-2,12.94-7.14,27.25-45.7,54.74-91.27,81.91-137,2.43-4.08,4.55-5.95,9.62-5.84,19.63.4,39.27.18,58.91.11,3.79,0,6.84-.49,7,5.33.27,9.92,4,13,14.47,13.1,18.22.29,36.45.3,54.69.42,8.31-1.14,16.71.47,25.07-1.26,16.86-3.49,27.08-15,27.4-32l.86-169.68C1714.17,503.5,1709.49,497.3,1709.49,497.3ZM439.65,826.92c-11.56,5.66-23.08,11.39-34.4,17.5-4.09,2.23-5.47,1.28-7.54-2.59q-21-39.21-42.6-78.08c-2.4-4.31-2.8-6.41,2.22-8.86,11.07-5.35,21.81-11.37,32.7-17.11,1.71-.89,3.5-1.69,4.88-2.34,3-.31,3.61,1.87,4.5,3.5,14.32,26.57,28.48,53.2,43,79.66C444.86,823.08,443.74,824.92,439.65,826.92Zm14.77-7.36c-3.37,1.72-4.43-1-5.56-3.22-13.82-27.15-28.58-53.77-43.57-80.28-1.92-3.39-2.8-6.43,2.66-7,3-.29,3.62,2.14,4.65,4q21.48,39.76,42.92,79.5C457,815.33,457.93,817.79,454.42,819.56Zm13.75-7.36c-4.09,2.48-5-.51-6.62-3.4-13.83-25.52-27.81-50.94-41.74-76.39a40,40,0,0,1-3-6c-.58-1.62.48-2.54,2.22-2.51,2.14.66,2.73,2.7,3.71,4.33q22.68,38.1,45.29,76.28C469.52,807,472.52,809.57,468.17,812.2Zm16.39-8.66c-3.69-1.08-4-4.5-6.15-8.51,4.48,1.93,7.4,3.17,7.73,7C486.18,802.53,484.93,803.64,484.56,803.54ZM474.35,780c-5.3-8.46-9.45-17.66-14.1-26.52-6.65-11.94-13.17-24-20-35.78-1.9-3.27-1.39-4.87,1.84-6.45,10.78-5.29,21.34-11.07,32.26-16.05,19.89-9.06,40.56-4.69,54.39,12.38,10.14,12.51,18,26.41,14.13,43.76-1.58,16.59-11.92,27.46-26.09,35.68-2,1.16-4.14,2.07-6.25,3-5.44,2.48-10.75,8.85-15.9,6.89A42.09,42.09,0,0,1,474.35,780Zm949.22,45.12c-1.86,3.32-5.61,2-8.53,2-32.83.08-65.64.24-98.47-.12-7.15-.06-12.39,1.11-15.27,8.32-1.21,3.07-3.79,5.56-5.37,8.51-2.09,3.88-4.4,4-8.17,2-52.64-27.46-109-43.43-167.17-53.79a977.22,977.22,0,0,0-152.16-15.36c-4.55-.1-21.81-.08-21.81-.08-61.27,1.65-121.76,9.7-181.66,22.45-46.53,9.89-91.27,24.88-133.56,46.76-3.81,2-6.17,2.12-7.85-2.15-5.65-14.37-16.21-17.71-31.15-17-28,1.21-56.08.44-84.12.39-5.86,0-13.61-3.78-17-8.51-6.47-8.88.1-13.64,4.45-11.39,35.3,18.41,73.31,7.85,110,10.48,6.71.47,13.5-.27,20.19.39,32.61,3.16,62.88-5.65,93.42-15.79,53.85-17.85,109.76-26.06,166-32.66A668.16,668.16,0,0,1,980,764.68c27.07.67,53.73,4.9,80.5,8.3,52.27,6.62,104,17.35,154,33.91,32.65,10.8,65.29,12.6,100.11,9.71a290.88,290.88,0,0,1,54.41.28c24.24,2.53,45.48-2.19,63.69-16.89,1.55-1.25,3.54-1.94,6.64-3.61C1434.94,807.53,1428.65,816,1423.57,825.1Zm-34.32-15c-44.79,1.1-89.63.51-134.44.53a31.25,31.25,0,0,1-9.11-1.15c-23.47-7.29-46.86-14.77-70.28-22.18-35.32-9.07-71.25-14.88-107.18-20.76-27.34-2.35-54.43-7.26-81.9-8.39,0,0-18.55-.72-27.17-.72s-27.53.83-27.53.83c-24,1.16-47.89,4.7-71.81,7.37-29.44,4.59-59,8.59-88.1,15.1-32,8-63.71,16.88-94.82,27.79-5.69,2-11.52,2.19-17.38,2.21-41.2,0-82.42-.12-123.63,0-10,0-19.39-2.29-28.57-5.84-1.5-.59-3.53-1.35-3.13-3.32.24-1.14,2.48-2,3.57-2.69a42.23,42.23,0,0,1,4.84-2.45c23.58-9.77,37.06-26.68,38.84-51.88-4.28-26.11-14-48.23-41.49-57.74-13.73-4.75-27-3.39-39.82,2.71-9.82,4.65-19.54,9.55-29.06,14.82-4.68,2.58-7,2.39-9.51-2.88-5.92-12.6-12.54-24.86-18.87-37.26l.15.12a21.83,21.83,0,0,1-4.75-8.93c-11-18-20.3-36.91-30-55.62-13.46-25.69-30.59-49.69-37.23-78.55-13.39-58.27,16.86-116.5,73.41-140.18,68.43-28.64,139-51,210.46-70.68,44-12.12,88.32-22.41,133.38-29.48,34.6-5.43,69.25-10.3,104.22-12.69,22.37-1.55,44.74-3,67.13-4.56,27.52-1.91,59.46-.29,59.46-.29,49.53,2.8,99,6.52,148.09,13.66,60.92,8.86,120.77,22.61,179.92,39.72,61.23,17.71,121.63,37.67,180.86,61.22,39,15.48,66.47,41.71,78.82,82.45,7.81,25.84,6.85,51.58-3,76.6-8.93,22.67-21.45,43.63-33.68,64.67-13.25,26.74-27.4,53-42,79-16.18,32.86-32.66,65.68-51.91,96.76C1433.77,797.39,1413.34,809.57,1389.25,810.14Zm310.59-131.45c-.47,9.24-8,15.83-18.09,16.59-6.94.52-14,.08-20.92.08-16.51.12-33,0-49.49.49-5.39.15-7.65-1.41-7.58-7,0-2.61-1.32-5.23-2-7.86-4.65-3-9.82-3.67-15.26-3.64-21,.07-42.08.5-63.09-.2-9-.31-13.78,3.59-17.52,10.83-2.91,5.66-6.4,11-9.65,16.49L1494,703.3q28.15-51.85,56.32-103.67c7.21-13.89,14-28,21.71-41.64,37-65.51,10.56-153.84-67-184.58-102.65-40.7-207.66-73.55-316.18-94.44-72.53-14-145.89-20.82-219.76-22.28H951.67c-46.29.92-92.41,4.21-138.41,9.51C730.39,275.76,649.69,295,570,319.1c-54.09,16.37-107.67,34.23-159.66,56.44-50.94,21.77-80.75,68.38-79.32,123.55.56,21.3,6.55,41.28,16.81,60,7,12.75,13.5,25.72,20.23,38.61,14.42,26.35,28.91,52.64,42.35,79.52,4.41,8.8,10.09,17.19,14.74,26a17,17,0,0,1,2,6.92c-6-9.31-12.23-18.51-17.92-28-2.19-3.65-4.86-4.8-8.8-4.78-23.5.1-47,.17-70.49.08-6,0-10.89,1.65-14.1,7,.2,8.87-3.24,12.08-12.89,11.59-20.65-1-41.39-.12-62.09-.51-14.82-.27-21-6.89-21.46-21.64L218.76,515c.09-7.92,6.07-13.14,14.19-13.21,17.11-.15,34.22-.05,51.34-.12,26.4-.1,39.27-12.9,39.64-39.14.1-8.12-.36-16.38.89-24.35,3.05-19.65,13.81-34.43,30.57-45.09C386.1,373.61,420,361,453.73,348.24,523.91,321.67,595.05,298,667.8,279.46c41.84-10.63,84.53-16.78,127.43-21.44,20.91-2.28,41.79-4.5,62.82-5.21,8.4-.28,15.7-3.13,21.32-9.63a55.49,55.49,0,0,1,5.31-5.53c9.6-8.54,11.42-14.22,17.42,2.8,1.68,4.73,4.9,6.1,9.72,6l94.06,0c6.53.22,10.14-1.73,12.46-8.23,3.89-10.84,7.31-11.85,13.88-2.95,11.2,15.16,26.23,17.16,43.53,18.36,80.62,5.59,160,18.38,237.41,42.73,71.78,22.61,143.24,46,212.27,76.18,16.47,7.21,32.39,15.43,46.59,26.61s21.8,26,23.16,44c.78,10.06.3,20.23,1.5,30.2a30.51,30.51,0,0,0,27.56,27.31c19.83,2.19,39.79.45,59.68,1.09,12.74.41,16.66,3.86,16.63,16.61Z"/><path class="cls-2" d="M1576.67,460.44c-12.35-40.74-39.87-67-78.82-82.45-59.23-23.55-119.63-43.51-180.86-61.22-59.15-17.11-119-30.86-179.92-39.72-49.11-7.14-98.56-10.86-148.09-13.66,0,0-31.94-1.62-59.46.29-22.39,1.55-44.76,3-67.13,4.56-35,2.39-69.62,7.26-104.22,12.69-45.06,7.07-89.41,17.36-133.38,29.48-71.45,19.7-142,42-210.46,70.68-56.55,23.68-86.8,81.91-73.41,140.18,6.64,28.86,23.77,52.86,37.23,78.55,9.65,18.71,18.92,37.65,30,55.62a21.83,21.83,0,0,0,4.75,8.93l-.15-.12c6.33,12.4,12.95,24.66,18.87,37.26,2.47,5.27,4.83,5.46,9.51,2.88,9.52-5.27,19.24-10.17,29.06-14.82,12.85-6.1,26.09-7.46,39.82-2.71,27.49,9.51,37.21,31.63,41.49,57.74-1.78,25.2-15.26,42.11-38.84,51.88a42.23,42.23,0,0,0-4.84,2.45c-1.09.64-3.33,1.55-3.57,2.69-.4,2,1.63,2.73,3.13,3.32,9.18,3.55,18.57,5.88,28.57,5.84,41.21-.13,82.43,0,123.63,0,5.86,0,11.69-.2,17.38-2.21,31.11-10.91,62.83-19.81,94.82-27.79,29.11-6.51,58.66-10.51,88.1-15.1,23.92-2.67,47.76-6.21,71.81-7.37,0,0,18.9-.83,27.53-.83s27.17.72,27.17.72c27.47,1.13,54.56,6,81.9,8.39,35.93,5.88,71.86,11.69,107.18,20.76,23.42,7.41,46.81,14.89,70.28,22.18a31.25,31.25,0,0,0,9.11,1.15c44.81,0,89.65.57,134.44-.53,24.09-.57,44.52-12.75,56.84-32.62,19.25-31.08,35.73-63.9,51.91-96.76,14.61-26,28.76-52.31,42-79,12.23-21,24.75-42,33.68-64.67C1583.52,512,1584.48,486.28,1576.67,460.44ZM1415.78,760.81c-14.64-.31-25.18-11.85-24.86-27.21.29-13.74,11.71-24.53,25.86-24.42a25.11,25.11,0,0,1,25.35,25.7C1441.91,749.59,1430.22,761.11,1415.78,760.81Z"/><path class="cls-1" d="M1416.78,709.18c-14.15-.11-25.57,10.68-25.86,24.42-.32,15.36,10.22,26.9,24.86,27.21,14.44.3,26.13-11.22,26.35-25.93A25.11,25.11,0,0,0,1416.78,709.18Zm.06,44.92c-10.73-.05-19.27-9.08-19-20.15a18.87,18.87,0,0,1,19-18.27c10.24,0,19,9,18.78,19.47C1435.39,744.84,1426.21,754.14,1416.84,754.1Z"/><path class="cls-1" d="M525.88,747.92c-15.09,16.65-29.83,17.19-44.93,1.65-7.14-18.36-2.49-33.25,12.37-38.61,10.34-3.73,20-2.32,27.93,5.74C530.23,725.87,530.11,736.65,525.88,747.92Zm-22.16-32.37c-10.55-.08-19.85,8.6-19.87,18.57,0,10.66,8.4,19.63,18.66,19.87,9.9.23,19.47-9.14,19.55-19.16C522.14,725,513.22,715.63,503.72,715.55Z"/><rect class="cls-2" x="1919" y="1079" width="1" height="1"/><rect class="cls-2" width="1" height="1"/><rect class="cls-2" y="1079" width="1" height="1"/><rect class="cls-2" x="1919" width="1" height="1"/></g><g id="Capa_3" data-name="Capa 3"><path d="M881.33,471.22v111H861.5V511.51L842,526.42,825.81,539l-16.18-12.53-19.51-14.91v70.74H770.3v-111l19.82,15.23,35.69,27.44,35.69-27.44Z"/><path d="M935.25,508.18v75.5H915.42V506.11a15.81,15.81,0,0,0-13.48-13.48H897.5V473h4.28v.16a35.55,35.55,0,0,1,13.48,3.65,35.17,35.17,0,0,1,16,16.18,41.76,41.76,0,0,1,2.7,7.45,33.53,33.53,0,0,1,.95,8.09Z"/><path d="M1038.66,490.89a34.47,34.47,0,0,1,3.65,15.54v75.66h-19.82V504.53A15.83,15.83,0,0,0,1009,491.05H950.79V471.22h56.31a34.44,34.44,0,0,1,15.54,3.65,35.17,35.17,0,0,1,16,16.18Z"/><path d="M1146,490.89a34.47,34.47,0,0,1,3.65,15.54v75.66h-19.83V504.53a15.8,15.8,0,0,0-13.48-13.48h-58.21V471.22h56.31a34.47,34.47,0,0,1,15.54,3.65,35.17,35.17,0,0,1,16,16.18Z"/></g></g></svg>