<svg xmlns="http://www.w3.org/2000/svg" viewBox="0 0 1920 1080"><defs><style>.cls-1{fill:#f2f2f2;}.cls-2{fill:#010101;}</style></defs><g id="Capa_2" data-name="Capa 2"><g id="Capa_1-2" data-name="Capa 1"><path class="cls-1" d="M1490.72,373q0,102.41,0,204.81c0,5.17-1.53,9.44-5.52,12.85-3.74,3.19-8.53,4.57-12.67,3.41-4.31-1.21-2-6.26-2.18-9.57-.46-8.19-.28-16.39-.71-24.55-.13-2.12,0-5.74-3.38-5.43-3,.25-2.75,3.53-2.86,5.85-.29,6.67-.42,13.34-.62,20,.11,1.8.11,3.63.35,5.41.91,6.58-1.29,8.71-8.42,8.64-34.3-.42-68.62.66-102.88-.27A84.26,84.26,0,0,0,1265.71,668c-.36,16.61-.25,33.23-1.16,49.79-2.06,37.38-36.16,69.86-72.77,69.84q-61,.09-122.11.18c-20.58.13-41.17.17-61.77.41-8.43.09-16.47.93-19.06,11.35-1.28,3.72-4.48,2.22-8.36,2.75l-39.37.48c-5.1-.11-8,1.38-9.82-4.67-2.46-8.13-9-9.86-16.48-9.9q-36.4-.13-72.81-.4l-98.32,0c-48.39,4.9-81.59-29.42-86.75-64-2.15-14.42-.95-29-1.17-43.58-.62-42.59-26.11-75-66.32-84.22-7.43-1.69-15-1.8-22.6-1.8q-46.85,0-93.67.13c-3.3,0-6.6-.44-9.9-.68a3.53,3.53,0,0,1-3.86.08c-1.66-.15-1.61-1.23-1.32-2.43-1.54-12.3,1.44-25.08-2.67-37.71-4.36,1.48-4,4.27-4.12,6.38-.46,7.88-.3,15.79-1,23.64-.29,3.46,2.92,9-2.53,10.08-5.65,1.09-11.54-.57-15.09-6.16-3.3-5.18-2.79-11.1-2.81-16.8q-.17-70.53-.11-141.1c0-19.1.2-38.22.35-57.34.07-10.44,5.5-17.57,14.11-22.81,4.37-2.68,7.1-3.49,6.76,3.46-.19,3.48-2.34,9.62,2.95,9.73,5,.09,4-6.14,3.48-9.7-1.11-7.85,2.48-11,9.5-13.46,22-7.79,44.14-14.8,66.53-21.18,11.78-3.35,22.42-7.24,19.87-22.93-.51-3.17,2.39-3.72,4.57-4.74,1.9-.87,4.34-2,3.38-4.55-.81-2.14-3.18-2.55-5.45-2.3s-5.16,2.88-6-.75,3.23-4,5.51-4.66c16-4.39,32.11-8.55,48.22-12.63,2.1-.55,5.47-2.3,6.27.73.91,3.53-2.66,3.71-5.38,4.43-7.89,2-15.69,4.33-23.53,6.61-2.47.73-4.9,2.35-4.13,5.07.84,2.93,3.59,2.35,6.14,1.64,7.84-2.21,15.74-4.27,23.65-6.25,2.83-.71,6-2,7.79,1.95,4.7,10.11,13.46,10.39,22.49,8.56,41.51-8.36,83.17-15.85,125.09-21.92,37.86-5.47,76-8,114.11-10.21,18.15-1,36.39-1,54.55-2.08l58.66.11c31.22,1.33,62.42,2.26,93.61,4.34,67.83,4.54,134.46,16.79,201,29.82,8.63,1.69,17.27,1.25,22-8.06,1.93-3.77,4.56-3.3,7.58-2.53,7.62,2,15.26,3.81,22.78,6,3.23,1,6.38,1.74,7.35-2.27.89-3.7-2.9-4.27-5.27-4.94-7.83-2.23-15.78-4.08-23.71-6-2.24-.53-4.43-1.24-3.83-4,.68-3.1,3.21-1.95,5.11-1.44q25.42,6.69,50.79,13.54c1.86.51,4.77.77,4.1,3.79s-3.33,1.48-5.23,1.4c-2.37-.07-5.41-1-6.27,2-1,3.17,2.11,4,4.37,4.55,4.34,1,3.5,4,3.47,7.09-.15,10.56,3.28,15.46,13.52,18.59,24.55,7.55,49.24,14.55,73.39,23.44,7.55,2.77,10.1,6.4,9.08,13.7-.2,1.5.07,3.05,0,4.56-.09,2.35.71,4.45,3.06,4.87,3,.53,3-2.3,3.61-4.19.09-.28.09-.61.18-.9,1.09-3.42-2.32-9,2.53-10.13,4.12-1,7.35,3.68,10.32,6.58A25.38,25.38,0,0,1,1490.72,373Z"/><path class="cls-2" d="M987,231c-9-.8-18.17.62-27.17-.1-9.66,0-19.32-.2-29,.1-3.16.1-8.53-2.25-8.79,3.29-.25,6,5.31,2.82,8.31,3.62l56.85-.16c3.88-.75,11,3.33,11-3.39C998.12,228.22,990.94,231.39,987,231Zm0,0c-9-.8-18.17.62-27.17-.1-9.66,0-19.32-.2-29,.1-3.16.1-8.53-2.25-8.79,3.29-.25,6,5.31,2.82,8.31,3.62l56.85-.16c3.88-.75,11,3.33,11-3.39C998.12,228.22,990.94,231.39,987,231Zm768.89,238.82c-7.11-6.7-15.84-8.25-25.24-8.16-19.74.18-39.47-.2-59.19.15-9,.16-12.83-4.11-13-12.4-.24-9.4-.22-18.81-.17-28.23.11-27.23-11.81-47.44-36.32-59.12a1740.64,1740.64,0,0,0-228.81-89.78c-5-1.58-10.21-2.13-8.44-9.64.65-2.82-1.73-4.08-4.38-4.75q-32.14-8.2-64.22-16.52c-2.35-.61-5.43-1.71-5.85,1.79-.86,7-4.83,5-9.11,4a1173.82,1173.82,0,0,0-117.79-22.25q-53.7-7.17-107.69-10.95c-5.29-.37-10.34-.51-14-6.36-12.21-19.61-34.79-20-48.24-1.17-2.83,4-5.87,5.56-10.54,5.47l-85.4-.11c-3.59-.06-7.54-.24-9.46-4.16-6.14-12.59-17.2-14.91-29.74-14.87-10.7,0-16.88,11.14-16.88,11.14-3.42,6.21-8.11,9.84-15.8,10.29a1334.64,1334.64,0,0,0-228.23,33.26c-3.37.81-6.56,2.83-6.63-3.13-.06-4.5-3.5-3.48-6-2.86-21.73,5.41-43.41,11-65.14,16.51-2.71.67-4.74,2.11-3.84,5,2.15,7.07-2.72,7.84-7.51,9.31-78.88,24.28-155.33,54.81-229.93,90-24.15,11.39-35.74,31.81-35.74,58.61,0,9.1.15,18.21-.14,27.3-.31,10.38-3.46,13.44-13.94,13.53-19.43.16-38.86,0-58.27.16-14.2.13-14.42.33-31.09,11.08-4.32,2.77-5,11.63-5,11.63V643c.07,8.17.33,16.31.51,24.46,4.72,15.65,14.72,24.77,31.57,24.89,25.16.19,50.33.11,75.5.11,6.69,0,12.43-2.18,16.82-7.49,2.61-3.15,5.71-5,10.17-4.94q28.19.45,56.41.3c8.07-.06,14,3.2,18,10,8.75,14.85,17.35,29.78,26,44.67,4.06,6.69,7.81,13.6,12.32,20,3.31,4.73,2.44,7.07-2.45,9.76-12.46,6.84-24.56,14.33-37,21.22-5.87,3.24-7.45,5.9-3.34,12.54,15.33,24.62,29.78,49.79,44.71,74.66,8.58,14.33,10.86,13.89,10.86,13.89,6.67,2.32,19.68-7.78,19.68-7.78l28.27-16c2.74-1.55,4.56-.27,6.13,1.95,6.05,8.64,14.79,10.43,24.71,10.37,40.31-.2,80.63-.11,120.94-.11,2.13,0,4.25,0,6.38,0,2.66.11,6.56-.31,6.59,3.08,0,0,2.14,8.84,17.19,8.84a106.52,106.52,0,0,0,28.63-4.32c54.13-21.12,110.63-32,167.93-39.42,26.24-4.29,52.65-7,79.17-8.91,2.07-.15,5.34-.68,5.37,1.76.15,9.85,7.4,6,11.79,6,0,0,32.57.2,43.42.42,6.48.13,14.45,3.28,16-7.49,0-.38,2.17-.76,3.3-.69,24.06,1.44,48.06,3.41,71.77,8,28.3,2.49,56.11,8.09,83.94,13.54,9.17,1.8,18.45,3.26,27.21,6.7,21.18,4,41.5,10.94,61.46,18.89,11.41,4.53,23,4.88,34.84,4,3.47-.27,8.22-1.11,10-3.48,6.22-8.44,14.77-6.86,23.06-6.86,37.61,0,75.23-.54,112.83.24,15.52.31,25.4-5.5,33.17-18.72,30.49-51.95,61.6-103.57,92.49-155.29,2.48-4.16,5.06-8.26,7.65-12.34,3.92-6.16,9.64-8.95,16.84-8.95q28.68,0,57.34-.11c3.39,0,6.71.17,8.84,3.43,5.14,7.89,13,9,21.54,9,16.66,0,33.33.26,50,.38,8.73-.45,17.51-.54,26.19-1.44,15.44-1.6,26.39-12.46,27-27.92V489.42C1765.86,479.49,1755.89,469.86,1755.89,469.86Zm-1127-210.2A1130.16,1130.16,0,0,1,800,232.39c17.2-1.36,34.35-3.24,51.55-4.64,9-.73,15.06-5.43,19.69-12.8,6.59-10.48,16.89-11,23.74-.73,6.09,9.13,13.91,12,24.66,11.7,27-.6,54-.45,81,.08,11,.2,19.17-2.74,25.37-12.31,6.45-9.93,16.75-9.25,23,.93,4.78,7.82,11.41,12.29,20.58,13.11,24.42,2.15,48.84,4.39,73.28,6.58,18.81,1.67,37.22,5.94,55.84,8.56,29,4.12,57.88,8.55,86.43,15.07,2.35.55,5,.62,7,1.79,3.73,2.21,12.48-2.11,10.86,7-2.52,13.94-6.42,16.84-17.57,14.73-46.11-8.75-92.16-17.77-138.77-23.57-50.92-6.34-102.09-8.84-153.34-10.61-2.11-.07-4.25-.2-6.36-.12h-54c-12.12.41-24.24,1.19-36.36,1.46-87.59,1.88-173.74,15.13-259.41,32.35-5.65,1.15-12,3.65-16.09-3.7C614.32,265.22,615.45,262.85,628.92,259.66Zm-28-8.64q-27.81,7.92-55.59,15.87C562.91,258.24,582.26,255.79,600.89,251ZM422.7,877.21c-5.14,3-7.2,2.31-10.22-3C398,849,383.08,824.07,368,799.23c-2.77-4.54-3.24-6.69,2-9.61,18.28-10.11,36.27-20.74,54.33-31.25,3.25-1.88,6.22-4.12,9.35.16,1.11,1.53,2.94,2.55,4.72,1.22s1.3-3.15.8-5c-2-7.73,5.14-7.8,9-9.85,3-1.54,2.67,2.06,2.67,4,0,6.06-.29,12.11-.11,18.16.06,1.93.48,4.55,3.43,4.5s3.24-2.39,3.3-4.54c.13-4.23,0-8.47,0-14.49-3-9.62,1.91-16.29,12.21-20.94,8.23-3.72,15.71-9.11,23.71-13.38,22.25-11.9,52.78-5.86,64.73,12.62,18.19,28.06,15,56.66-9.27,74.3-10,7.27-21.29,12.72-32,19-5,2.9-10.53,5.07-14.85,8.71-8.25,6.95-13.76,4-19.14-3.48-1.67-2.33-3.22-7.4-7.19-4.45-2.54,1.88.73,5.33,1.53,8.1,1.09,3.9,8.31,5.34,5.21,10.09-1.88,2.92-6.58,4-10,5.89C455.85,858.35,439.14,867.57,422.7,877.21Zm492.13-57-36.45,2.9c-2.24,1.47-4.72,1.42-7.25,1.13-33.85,5-67.75,9.69-101.3,16.47-33.28,6.73-66.21,14.64-97.77,27.43-8.7,3.52-17.66,3.87-26.8,3.67a8.26,8.26,0,0,1-6.47-2.81c-6-7.51-14.25-8.09-23-8.06-40,.11-80.08,0-120.14,0-.6,0-1.2,0-1.82,0-5.27-.26-11.48,1.15-14.09-5.16-1.2-2.92,10.93-9.13,16.35-8.58a61,61,0,0,0,9.89.65c2.45-.14,4.36-2.37,1.81-4.23-6.25-4.57-.9-5.57,1.93-7.14,13.5-7.47,27.08-14.85,40.62-22.25,25.26-19.12,33.35-43.61,23.06-73.83-10.32-19.78-25.66-32.55-48.43-35.34-13.17-1.6-25.29,1.35-36.65,7.8-16.53,9.39-33.09,18.72-49.35,28.56-4.3,2.59-6.11,2-8.33-2-2.62-4.75-5.7-9.27-8.75-13.79-1-1.53-2.68-2.79-4.63-1.77s-1.91,3.3-1.27,4.85c1.73,4.17,4,8.09,5.9,12.23,1.48,3.3,7.22,6.49.75,10.35-6.65,4-7.67-2.37-9.71-5.76Q396.25,717.83,380.09,690c-4.92-8.55-10.57-16.22-19.41-21.05-6.3-2.44-12.86-3.14-19.61-3.08-18.2.16-36.41.31-54.62.07-6.27-.09-11.53,1.5-15.31,6.33s-8.51,6-14.36,5.9c-21.85-.15-43.7.27-65.55.09-17.35-.14-22.46-5.05-22.57-22.2-.14-25.15.31-50.32.51-75.48-1.34-29.09-.89-58.2-.36-87.28.2-11.41,6.43-16.68,18.23-16.84,20-.26,40.05-.06,60.08-.17,10.34-.07,19.81-1.84,25.74-12a27.71,27.71,0,0,0,3.53-13.85c.24-11.52.08-23.07.8-34.55,1.17-18.45,10.26-32.43,26.85-40.3a1760.59,1760.59,0,0,1,231.29-90.61c2.5-.79,6-3,7.15.11,1.22,3.51-3,3.46-5.47,4.3-13.29,4.48-13.27,4.5-17.1,9.58,6.73,3.12,12.2-1.09,18-2.24,2.7-.53,6.41-3.52,8.22-.05,2,3.75,0,7.78-3.45,10.33a21,21,0,0,1-6.5,3.12c-24.72,7.05-49.5,13.94-73.3,23.8-5.07,2.09-6.15-.17-5.44-4.32,1.32-7.71-2.91-8.55-8.93-7.89-12.9,1.4-23.89,8.11-35.66,12.65a3.36,3.36,0,0,0-2.12,4.46c1.08,2.66,3.59,2.11,5.49,1.39,9-3.47,17.9-7.26,26.92-10.67,2.57-1,6.83-4.41,7.74-.94.86,3.26,2.21,9.29-3.66,11.61-.56.21-1.13.43-1.69.67-16.53,6.52-23,19.06-23,36.4.2,58.84,0,117.71,0,176.58,0,8.18-.24,16.36-.35,24.53,2.7,17.26,10,23.45,27.34,23.42,38.82-.06,77.67,1.31,116.42-.39,42.95-1.89,83.18,31.59,82.63,81.91-.15,14.21-1.62,28.61,1,42.66,7.42,39.68,35.29,64.37,77.69,69.73l120.14,0c22.71-.13,45.44,0,68.13-.44,10.82-.18,8.89,7.86,9.51,13.94C926.22,820.2,925.78,820.42,914.83,820.22Zm67.83-.89c-7.25-.29-14.52-.09-21.79-.09V819c-7.59,0-15.17-.11-22.73.06-3.55.09-5.65-.55-5.8-4.8-.18-4.72,2.48-4.46,5.74-4.46,14.95.05,29.91.14,44.86-.2,4-.09,5.32.94,5.3,4.94C988.24,818.69,986.44,819.47,982.66,819.33Zm6.18-19.74c-1.28,3.72-4.48,2.22-8.36,2.75l-39.37.48c-5.1-.11-8,1.38-9.82-4.67-2.46-8.13-9-9.86-16.48-9.9q-36.4-.13-72.81-.4l-98.32,0c-48.39,4.9-81.59-29.42-86.75-64-2.15-14.42-.95-29-1.17-43.58-.62-42.59-26.11-75-66.32-84.22-7.43-1.69-15-1.8-22.6-1.8q-46.85,0-93.67.13c-3.3,0-6.6-.44-9.9-.68a3.53,3.53,0,0,1-3.86.08c-1.66-.15-1.61-1.23-1.32-2.43-1.54-12.3,1.44-25.08-2.67-37.71-4.36,1.48-4,4.27-4.12,6.38-.46,7.88-.3,15.79-1,23.64-.29,3.46,2.92,9-2.53,10.08-5.65,1.09-11.54-.57-15.09-6.16-3.3-5.18-2.79-11.1-2.81-16.8q-.17-70.53-.11-141.1c0-19.1.2-38.22.35-57.34.07-10.44,5.5-17.57,14.11-22.81,4.37-2.68,7.1-3.49,6.76,3.46-.19,3.48-2.34,9.62,2.95,9.73,5,.09,4-6.14,3.48-9.7-1.11-7.85,2.48-11,9.5-13.46,22-7.79,44.14-14.8,66.53-21.18,11.78-3.35,22.42-7.24,19.87-22.93-.51-3.17,2.39-3.72,4.57-4.74,1.9-.87,4.34-2,3.38-4.55-.81-2.14-3.18-2.55-5.45-2.3s-5.16,2.88-6-.75,3.23-4,5.51-4.66c16-4.39,32.11-8.55,48.22-12.63,2.1-.55,5.47-2.3,6.27.73.91,3.53-2.66,3.71-5.38,4.43-7.89,2-15.69,4.33-23.53,6.61-2.47.73-4.9,2.35-4.13,5.07.84,2.93,3.59,2.35,6.14,1.64,7.84-2.21,15.74-4.27,23.65-6.25,2.83-.71,6-2,7.79,1.95,4.7,10.11,13.46,10.39,22.49,8.56,41.51-8.36,83.17-15.85,125.09-21.92,37.86-5.47,76-8,114.11-10.21,18.15-1,36.39-1,54.55-2.08l58.66.11c31.22,1.33,62.42,2.26,93.61,4.34,67.83,4.54,134.46,16.79,201,29.82,8.63,1.69,17.27,1.25,22-8.06,1.93-3.77,4.56-3.3,7.58-2.53,7.62,2,15.26,3.81,22.78,6,3.23,1,6.38,1.74,7.35-2.27.89-3.7-2.9-4.27-5.27-4.94-7.83-2.23-15.78-4.08-23.71-6-2.24-.53-4.43-1.24-3.83-4,.68-3.1,3.21-1.95,5.11-1.44q25.42,6.69,50.79,13.54c1.86.51,4.77.77,4.1,3.79s-3.33,1.48-5.23,1.4c-2.37-.07-5.41-1-6.27,2-1,3.17,2.11,4,4.37,4.55,4.34,1,3.5,4,3.47,7.09-.15,10.56,3.28,15.46,13.52,18.59,24.55,7.55,49.24,14.55,73.39,23.44,7.55,2.77,10.1,6.4,9.08,13.7-.2,1.5.07,3.05,0,4.56-.09,2.35.71,4.45,3.06,4.87,3,.53,3-2.3,3.61-4.19.09-.28.09-.61.18-.9,1.09-3.42-2.32-9,2.53-10.13,4.12-1,7.35,3.68,10.32,6.58a25.38,25.38,0,0,1,7.89,18.7q0,102.41,0,204.81c0,5.17-1.53,9.44-5.52,12.85-3.74,3.19-8.53,4.57-12.67,3.41-4.31-1.21-2-6.26-2.18-9.57-.46-8.19-.28-16.39-.71-24.55-.13-2.12,0-5.74-3.38-5.43-3,.25-2.75,3.53-2.86,5.85-.29,6.67-.42,13.34-.62,20,.11,1.8.11,3.63.35,5.41.91,6.58-1.29,8.71-8.42,8.64-34.3-.42-68.62.66-102.88-.27A84.26,84.26,0,0,0,1265.71,668c-.36,16.61-.25,33.23-1.16,49.79-2.06,37.38-36.16,69.86-72.77,69.84q-61,.09-122.11.18c-20.58.13-41.17.17-61.77.41C999.47,788.33,991.43,789.17,988.84,799.59Zm763-138.07c-.28,10.59-5.6,15.6-16.06,15.85-24.57.62-49.15.73-73.74,1-4.79.06-8.82-1.27-11.82-5.45-4.07-5.64-9.9-7.23-16.75-7.12q-27.32.4-54.64,0c-8.75-.13-16.79,1.64-24.24,6.17-2.5,1.92-4.87,3.45-6.71,6.55-34.06,57.22-68.58,114.18-102.62,171.4-4.94,8.28-10.63,11.45-20.36,11.32-39.71-.55-79.46-.18-119.19-.26-9,0-16.73,1-24,8-6.55,6.33-16.33,3.54-24.3,1.39-12.81-3.45-25.11-8.71-37.79-12.65-43.76-13.52-88.52-22.18-133.92-28-28.14-3.63-56.17-8-84.55-9-4.41-.17-6-1.71-5.67-5.92.22-2.72.15-5.45.15-8.19,0-8.22,3.35-11.72,12.21-11.48,24.84.64,49.72.42,74.58.55q54.67-.06,109.35-.09c41.68-4,71.24-29.44,79.11-68,1.71-8.38,1.06-16.87,1.24-25.33.22-11.5-.66-23,1.93-34.39,2.66-33.63,34.07-64.75,67.84-65.63,34.22-.91,68.5-.33,102.75-.51,10.61,0,21.23,0,31.78-.75,13.38-1,19.19-6.7,21.89-20,0-65.54-.42-131.08.13-196.6.18-20.64-3.87-37.21-25.84-44.56-5.16-1.71-3.7-7.83-2.87-11.15.9-3.61,4.54-.29,6.78.58,8.42,3.32,16.73,6.95,25.17,10.25,2.72,1.05,6.47,2.47,7.91-1.12,1.31-3.29-2.5-4.5-4.83-5.44-10.86-4.34-21.07-10.67-33.2-11.29-5.53-.29-9.83.4-8.5,7.77.84,4.57-.91,6-5.54,4.1-24.35-10.15-49.9-16.55-75-24.35-3.06-1-5.61-2.13-6.84-5.3-.87-2.26-2.51-4.81-1.13-6.89,1.59-2.43,4.54-.91,6.77-.44,4.43.91,8.71,2.48,13.14,3.32,1.73.32,4.53,1.35,5.1-1.9.46-2.59-1.46-4-3.44-4.72-4.23-1.6-8.57-2.93-12.91-4.26-2.31-.73-4.83-1-5-4.38,2.94-2.2,5.58-.33,8.31.53,77.24,23.95,152,54.31,225.54,87.81,21.08,9.6,32.33,25.62,31.91,49.24-.15,8.5-.08,17,.13,25.5.41,19.32,9.36,28.21,28.66,28.36,19.72.14,39.46-.18,59.18.2,15,.29,20.21,5.59,20.27,20.65ZM930.39,238l56.85-.16c3.88-.75,11,3.33,11-3.39-.07-6.18-7.25-3-11.19-3.36-9-.8-18.17.62-27.17-.1-9.66,0-19.32-.2-29,.1-3.16.1-8.53-2.25-8.79,3.29C921.83,240.3,927.39,237.15,930.39,238ZM987,231c-9-.8-18.17.62-27.17-.1-9.66,0-19.32-.2-29,.1-3.16.1-8.53-2.25-8.79,3.29-.25,6,5.31,2.82,8.31,3.62l56.85-.16c3.88-.75,11,3.33,11-3.39C998.12,228.22,990.94,231.39,987,231Zm0,0c-9-.8-18.17.62-27.17-.1-9.66,0-19.32-.2-29,.1-3.16.1-8.53-2.25-8.79,3.29-.25,6,5.31,2.82,8.31,3.62l56.85-.16c3.88-.75,11,3.33,11-3.39C998.12,228.22,990.94,231.39,987,231Z"/><path class="cls-1" d="M988.24,814.52c0,4.17-1.8,5-5.58,4.81-7.25-.29-14.52-.09-21.79-.09V819c-7.59,0-15.17-.11-22.73.06-3.55.09-5.65-.55-5.8-4.8-.18-4.72,2.48-4.46,5.74-4.46,14.95.05,29.91.14,44.86-.2C987,809.49,988.26,810.52,988.24,814.52Z"/><path class="cls-2" d="M457.44,401.91c0,5.42.11,10.84-.05,16.25-.06,2.08-.55,4.5-3.37,4.39-2.15-.09-3-2.18-3-3.9-.45-12-.87-24.06.72-36,.19-1.44.38-3.18,2.54-2.91,1.88.24,2.32,1.92,2.44,3.34.53,6.28.88,12.57,1.3,18.85Z"/><path class="cls-2" d="M1463.38,458.55c0-5.44-.06-10.87,0-16.31,0-2.08.25-4.58,2.91-4.77,2.25-.17,2.76,2.06,3,3.85,1.41,11.74,1.21,23.5.45,35.26-.11,1.74-.73,3.8-3.13,3.67-2.71-.14-3.36-2.23-3.38-4.48-.07-5.74,0-11.48,0-17.22Z"/><path class="cls-2" d="M450.45,458.2c.28-5.72.46-11.45.93-17.16.11-1.3,1.1-3.42,2-3.59,2.11-.39,3.14,1.51,3.37,3.4,1.47,12,1.15,24.07.52,36.12-.1,1.87-1.16,3.61-3.44,3.34s-2.83-2.26-2.88-4c-.16-6-.06-12.06-.06-18.09Z"/><path class="cls-2" d="M1463.58,401.08c0-6-.13-12,.11-18,0-1.21,1.32-3.17,2.33-3.39,2.25-.49,2.92,1.53,3.19,3.41,1.69,11.67,1.17,23.39.56,35.09-.11,2.11-1,4.27-3.87,3.95s-2.76-2.69-2.77-4.79c0-5.42,0-10.83,0-16.24Z"/><path class="cls-2" d="M457.51,517c0,5.45,0,10.9,0,16.36,0,2.24-.72,4.52-3.26,4.59s-3.43-2.25-3.44-4.45c-.07-11.21,0-22.42,0-33.63,0-2.25,1.09-3.34,3.26-3.38,2.86-.06,3.46,1.67,3.42,4.15-.09,5.45,0,10.9,0,16.36Z"/><path class="cls-2" d="M1463,515.75V500.29c0-1.9.12-3.77,2.62-3.92s4.26.84,4.27,3.51c0,11.52,0,23-.17,34.56,0,1.76-1,3.71-3.38,3.29a3.57,3.57,0,0,1-3.17-3.78c0-6.07,0-12.13,0-18.2Z"/><path class="cls-2" d="M379.35,660.94l-5.25-1c-5.74-9.23-11.56-18.4-17.16-27.72-1.65-2.75-4.2-6.59-.81-8.92,3.75-2.58,5.91,1.69,7.6,4.31,4.9,7.64,9.64,15.39,14.14,23.27C379.6,653.87,382,657.14,379.35,660.94Z"/><path class="cls-2" d="M324.53,576.77c2.44-5.78,5.29-2.89,8-.3,2.54,2.44,3.26,6.36,6.55,8.23,3.47,5.94,7,11.84,10.37,17.85,1.15,2.06,2.55,4.84.14,6.57-2.69,1.92-5.29.18-6.89-2.23C336.17,597.13,329,587.76,324.53,576.77Z"/><path class="cls-2" d="M390.1,673.75c6,9.36,12.06,18.64,17.79,28.15,1.3,2.16,4.64,5.25.45,7.64-3.31,1.89-5.67-.38-7.21-3.31-5.3-10.06-12-19.39-15.78-30.25C386.67,674.67,387.8,673,390.1,673.75Z"/><path class="cls-2" d="M450.87,634c0-5.71-.08-11.43,0-17.14,0-2.2.77-4.48,3.5-4.31,2.14.13,2.73,2.26,2.76,4q.27,17.14.28,34.28c0,2.16-.63,4.39-3.56,4.13-2.21-.2-3-2-3-3.86-.14-5.71-.05-11.43-.05-17.14Z"/><path class="cls-2" d="M457.36,672.1c.05,11.43.14,22.86.15,34.29,0,2.7,0,6.21-3.42,6.25s-3.45-3.51-3.45-6.18c0-11.43.1-22.86.16-34.29C453,670.68,455.16,671,457.36,672.1Z"/><path class="cls-2" d="M1432.22,761.2a34.55,34.55,0,0,1-34.2,34c-19,0-34.14-15.71-33.78-35.19A34.14,34.14,0,0,1,1399,726.58C1418,727,1432.34,741.85,1432.22,761.2Zm-7.21-.76c-.19-14.29-13.3-27-27.64-26.85-14,.17-25.94,13.35-25.64,28.38.27,14.08,12.94,26,27.33,25.85C1412.91,787.62,1425.21,774.65,1425,760.44Z"/><path class="cls-2" d="M1536,677.84a32.74,32.74,0,0,1-2.12,5.06c-4.82,8-9.78,16-14.69,24-1.59,2.59-3.94,4.3-6.78,2.88-3.25-1.63-1-4.35,0-6.24,4.88-9.75,10.3-19.18,17.23-27.66,1.11-1.35,2.18-3.16,4.35-2.53C1535.67,673.81,1535.89,675.44,1536,677.84Z"/><path class="cls-2" d="M1504.78,729.21c-4.86,9.4-10.27,20.12-17.71,29.66a3.41,3.41,0,0,1-4.86.85c-1.78-1.29-1.74-3.22-.88-4.89a215.78,215.78,0,0,1,17.73-29.43c1-1.36,2.41-3,4.49-1.78C1505,724.48,1505,726.14,1504.78,729.21Z"/><path class="cls-2" d="M1454.68,811.12c-3.22-.52-4.53-2-3.08-5,5.2-11,10.91-21.61,18.92-30.85,1-1.15,2.34-2.28,3.94-1.59,1.87.81,1.2,2.52.67,3.88-4.43,11.35-11,21.52-17.55,31.7C1457,810.13,1455.61,810.53,1454.68,811.12Z"/><path class="cls-2" d="M1178.53,830c3.94-4.68,8.77-.73,13.12-1.35,7.76,2.15,15.51,4.34,23.29,6.43,3,.81,6.49,1.82,5.69,5.55s-4.57,2.18-6.84,1.69c-10-2.18-19.86-4.68-29.74-7.22C1181.43,834.39,1178.8,833.35,1178.53,830Z"/><path class="cls-2" d="M1091.27,809.3l14.56,2.51c1.4,5.13.26,7.25-5.76,6.39-10.16-1.45-20.46-2-30.68-3.12-1.71-.18-4.66,1.36-4.93-2.1s2-5,5.1-4.91C1076.8,808.32,1084,808.87,1091.27,809.3Z"/><path class="cls-2" d="M1122,817.21c2.59-3.32,6.16-2.07,9.23-1.54,8.92,1.51,17.75,3.54,26.65,5.17,3.35.61,5.52,2.21,6.51,5.45-1.14,2.3-3.44,2-5.42,2.4l-9.14-.81a6.62,6.62,0,0,0-5.46-1.29l-21.87-5.82C1122.37,819.58,1122.21,818.4,1122,817.21Z"/><path class="cls-2" d="M1418.38,848c-3-.17-6.69.84-7.14-2.72-.43-3.37,2.87-4.08,5.74-4.3,9.78-.75,16.88-5.9,22.34-13.69,1.44-2,3.14-4.38,5.78-2.51,2.3,1.62.22,4.14-.57,5.69C1439.05,841.28,1430.24,847.33,1418.38,848Z"/><path class="cls-2" d="M1465.65,670.48l3.22.64c2.46,12.22,1.09,24.56,1,36.85,0,2.1-.4,4.56-3.13,4.59-2.4,0-3.65-1.65-3.63-4.18.08-11.73.08-23.47.28-35.2C1463.45,672.26,1464.88,671.38,1465.65,670.48Z"/><path class="cls-2" d="M1314.9,847.89c-5.45,0-10.91.11-16.35,0-2.08-.07-4.48-.54-4.7-3.26-.23-2.87,2-3.52,4.24-3.52q16.8,0,33.62.13c2.16,0,4.69.75,4.76,3.22.08,3.16-2.73,3.51-5.21,3.54-5.46,0-10.91,0-16.36,0Z"/><path class="cls-2" d="M1258.07,841.18c5.46,0,10.93,0,16.39,0,1.87,0,4.06.44,4.28,2.51a3.81,3.81,0,0,1-4,4.08c-11.52,0-23-.17-34.56-.49-1.61,0-4-.67-3.91-3,.08-2.61,2.24-3.33,4.52-3.34,5.76,0,11.53,0,17.29,0Z"/><path class="cls-2" d="M1023.54,803.91l20.7,1.9c2.2.2,4.28.41,4,3.52-.29,2.79-2.29,3.52-4.45,3.46q-16.73-.49-33.44-1.31c-2.56-.12-5-1.21-4.94-4.2.08-3.73,3.3-2.75,5.46-2.83,4.22-.18,8.45-.05,12.67-.05C1023.52,804.23,1023.53,804.07,1023.54,803.91Z"/><path class="cls-2" d="M1372.69,847.94c-5.45,0-10.9,0-16.35,0-2.25,0-4.26-.65-4.31-3.49s1.91-3.48,4.21-3.47c10.9.06,21.8.09,32.69.3,2.34,0,5.36.32,5,3.74-.25,2.57-2.72,2.88-4.92,2.9-5.45,0-10.89,0-16.34,0Z"/><path class="cls-2" d="M1462.86,750.2c.3-5.74.54-11.49,1-17.22.11-1.43.55-3.27,2.28-3.52,2.43-.34,3,1.77,3.22,3.52,1.4,11.78,1,23.57.11,35.36-.15,1.9-1,3.76-3.38,3.26-1.94-.42-2.86-2.11-2.87-4.1,0-5.76,0-11.53,0-17.29Z"/><path class="cls-2" d="M314.82,398.25c-3.36.18-3.32-2.33-2.32-4.19,6-11.27,15-19.66,26-26a3.4,3.4,0,0,1,4.8,1c1.26,1.75,1.26,3.76-.13,5-9,8.05-18.2,15.93-27.35,23.85C315.63,398.14,315.26,398.13,314.82,398.25Z"/><path class="cls-2" d="M299.15,523.16c2-.06,2.76,1.29,3.58,2.51A162.57,162.57,0,0,1,318.52,554c1,2.28,2.1,5.24-.07,6.64-2.45,1.58-4.37-1-5.59-3.1-5.1-8.85-10.31-17.66-15-26.72C296.67,528.6,295.24,525,299.15,523.16Z"/><path class="cls-2" d="M284.3,478.77c1.66-4.24-2.39-12,3.37-12.3,5.93-.32,3.68,7.43,4.24,11.82,1,8,1.61,16.14,2.67,24.17.34,2.57.95,4.93-2.18,5.87-3.84,1.15-4.9-2-5.26-4.5C286,495.52,285.22,487.14,284.3,478.77Z"/><path class="cls-2" d="M470.26,320.22c-2.79-.33-4.48-.09-5-2a3.09,3.09,0,0,1,1.73-3.77,179.47,179.47,0,0,1,35.34-12.75,3.33,3.33,0,0,1,3.68,2c.83,1.74-.22,3-1.63,3.57C492.64,311.84,480.88,316.23,470.26,320.22Z"/><path class="cls-2" d="M289.66,451.24a4.83,4.83,0,0,1-2.79-5.92c2.91-11.05,6.05-22,12.6-31.64.93-1.37,1.8-3.53,4.09-2.68s1.72,3.09,1.18,4.64c-3.86,11.05-7.85,22.05-11.89,33C292.38,450,291.78,451.59,289.66,451.24Z"/><path class="cls-2" d="M395.83,346.41a6.5,6.5,0,0,1-4,4.09c-9.95,4.23-20,8.3-30,12.43-1.48.62-3.07.9-4-.63a3.06,3.06,0,0,1,1-4.06c10.49-7.29,22.34-11.52,34.55-14.82C395.11,343,396.31,343.87,395.83,346.41Z"/><path class="cls-2" d="M1582.55,367.67c2.28,1.67,5.83,4,9,6.65,6.26,5.26,12.05,11,15.72,18.47.73,1.49,2.28,3.29.37,4.86-1.64,1.35-3.48.75-4.82-.71-7.58-8.27-16.49-15.05-24.93-22.36-1.37-1.18-2.41-2.84-1.1-4.76C1577.84,368.33,1578.86,366.7,1582.55,367.67Z"/><path class="cls-2" d="M1595.65,580.31q-8.78,13.07-17.56,26.14c-1.35,2-2.83,4.55-5.64,3.08-3.22-1.69-1-4.49,0-6.28,4-7.72,8.41-15.24,12.66-22.83,1-1.09,2-2.15,2.84-3.29,1.45-1.87,2.88-4.37,5.54-3.58C1596.9,574.56,1595.87,577.72,1595.65,580.31Z"/><path class="cls-2" d="M1420.16,301.33c10.81,4.05,21.82,8.12,32.78,12.33,1.58.61,3.76,1.64,2.86,3.82-.44,1.09-2.35,1.78-3.73,2.22a6,6,0,0,1-3.57,0c-10.2-3.68-20.38-7.41-30.5-11.3-1.88-.72-4.15-1.94-3.52-4.58C1415.17,300.89,1417.91,302.18,1420.16,301.33Z"/><path class="cls-2" d="M1636,482.16c.57,7.35-.86,14.5-2.15,21.65-.51,2.78-1.7,5.61-5.32,4.79-3.39-.77-2.33-3.36-1.93-5.84a222,222,0,0,0,2.63-31.65c0-2.19.1-5.47,3.44-5.38s3.2,3.17,3.3,5.53C1636.16,474.89,1636,478.53,1636,482.16Z"/><path class="cls-2" d="M1634,446.2c-.18,2.2-.25,4.5-3,4.84-2.12.27-3.19-1.23-3.84-3.07q-5.67-16.07-11.35-32.15c-.62-1.75-1.06-3.65,1.23-4.51,1.64-.62,3,.43,3.8,1.7A105.69,105.69,0,0,1,1634,446.2Z"/><path class="cls-2" d="M1624.14,526.62a47.94,47.94,0,0,1-2.47,6c-4.68,8.48-9.53,16.87-14.27,25.31-1.11,2-2.45,3.89-4.89,2.85-2.09-.9-1.68-3.44-.92-4.81,5.83-10.59,11.86-21.06,18-31.5a3.84,3.84,0,0,1,3-1.52C1623.93,523.06,1624,524.6,1624.14,526.62Z"/><path class="cls-2" d="M1524.48,343.22c13.65,2.12,25.63,8.1,37.46,14.45,1.34.72,1.69,2.46,1.06,4.06-.52,1.3-1.86,2.09-2.88,1.58-12-6-26.23-7.33-35.79-18C1524.19,345.15,1524.36,344.72,1524.48,343.22Z"/><path class="cls-2" d="M1543.43,660.87c-3.14-.55-4.14-2.32-3-4.62,5.59-11.35,11.5-22.53,19.7-32.29,1-1.19,2.35-2,4-1.15,1.86,1,2.63,2.59,1.77,4.48a166.75,166.75,0,0,1-19.53,32.34C1545.71,660.44,1544.2,660.56,1543.43,660.87Z"/><path class="cls-2" d="M1463.35,633.31c0-5.43,0-10.86,0-16.29,0-2.19.5-4.5,3.22-4.54,2.36,0,2.6,2.24,2.79,4,1.27,11.72,1,23.48.39,35.22-.11,1.89-1,3.6-3.34,3.4a3.34,3.34,0,0,1-3.21-3.65c-.07-6,0-12.07,0-18.1Z"/><path class="cls-2" d="M556.61,760.42c.1,18.64-15.19,34.44-33.66,34.77-19.09.35-34.56-15.05-34.69-34.51-.13-18.95,15.5-34.27,34.78-34.09C541,726.75,556.51,742.37,556.61,760.42Zm-7.63.9c.11-15.09-12.15-27.86-26.61-27.71-14.14.14-26.43,12.63-26.59,27-.16,14,12.47,27,26.41,27.16A26.79,26.79,0,0,0,549,761.32Z"/><path class="cls-2" d="M469.76,806.75c.37,2.61-.37,3.47-1.6,4a4.12,4.12,0,0,1-4.9-1.37c-7.05-10.16-13.53-20.67-17.8-32.36-.34-.93-.08-2.82.55-3.19a3.4,3.4,0,0,1,3.3.41C458,784.31,464.45,795.84,469.76,806.75Z"/><path class="cls-2" d="M1162.8,249.32c-9.24-1.35-18.47-2.77-27.72-4-2.42-.32-4.34-1-3.93-3.73.49-3.24,3.23-3.22,5.68-2.9,9.87,1.27,19.75,2.57,29.59,4.08,2.52.38,6.49.59,6,4s-4.28,2.36-6.89,2.42c-.9,0-1.8-.14-2.71-.21C1162.83,249.11,1162.81,249.22,1162.8,249.32Z"/><path class="cls-2" d="M1037.72,232.76c3.23,0,8.68-.12,14.12.07,2.06.06,4.65.62,4.93,3.07.37,3.13-2.86,2.8-4.56,3-11.49,1.71-22.92.08-34.35-1a3.34,3.34,0,0,1-3.3-3.58c0-2.27,1.88-3.07,3.75-3C1024.05,231.66,1029.77,232.17,1037.72,232.76Z"/><path class="cls-2" d="M695,257.89c-1-.21-3.73,1.22-4.17-2-.34-2.51,1.62-4,3.67-4.54a207.23,207.23,0,0,1,32.9-5.83c2.07-.17,4.64-.09,4.75,2.84.11,2.59-2.15,3.55-4.24,3.92C717.26,254.19,706.56,256,695,257.89Z"/><path class="cls-2" d="M1251,256.27c11.94,1.07,22.85,4.74,33.92,7.66a3.62,3.62,0,0,1,3,4c-.47,2.52-2.64,3.2-4.92,2.66q-16.68-3.92-33.32-8c-1.85-.45-3.38-1.56-3.13-3.78C1246.85,255.58,1249.57,256.76,1251,256.27Z"/><path class="cls-2" d="M758.08,249.13c-2.46,0-4,0-5.46,0-1.82-.05-3.87-.07-4.25-2.34s1.08-3.4,3.06-3.69q16.92-2.42,33.86-4.66c1.87-.24,3.74.36,4,2.66.24,2.48-1.06,3.86-3.59,4.2C776.15,246.59,766.66,247.93,758.08,249.13Z"/><path class="cls-2" d="M825.67,241.46c-4.55.35-9.66.82-14.77,1.12-1.82.11-4.15-.1-4.56-2.08-.5-2.41,1.38-3.79,3.69-4.2,12-2.13,24.07-1.86,36.16-1.71,1.58,0,3,.33,3,2.43-.08,3.11-2.31,4.27-4.79,4.36C838.35,241.61,832.3,241.46,825.67,241.46Z"/><path class="cls-2" d="M636.58,270.77c-1.25-.18-3.11.47-3.73-1.33-.71-2.07.62-3.59,2.38-4.31,11.23-4.55,22.77-7.95,34.94-8.76,1.66-.11,3.85-.39,4.06,2.28.18,2.28-1.52,3.27-3.28,3.72C659.56,265.22,648.14,268,636.58,270.77Z"/><path class="cls-2" d="M1089.47,234.27c7.21.66,14.42,1.3,21.62,2,1.84.18,3.73.67,3.75,3a3.41,3.41,0,0,1-3.69,3.27c-11.74-.2-23.47-.64-35.21-1.13-2.21-.1-3-2-3-3.89,0-2.27,1.86-2.86,3.78-2.89,4.23-.05,8.45,0,12.68,0Z"/><path class="cls-2" d="M879,239.44c-3.34,0-6.67.07-10,0-2.47-.07-5.19-.21-4.91-3.75.23-2.83,2.58-3,4.75-3,10.9-.32,21.84.38,32.67-1.52,2.28-.4,4.42.28,4.39,3.17,0,2.59-1.81,3.57-4.22,3.76-7.55.61-15.09,1.26-22.64,1.89Z"/><path class="cls-2" d="M1195.58,245.84c9.17,2.84,20.26,1.58,30.21,5.92,1.58.69,5,.77,4,3.79-.83,2.56-3.31,3.16-6,2.55-10.28-2.3-20.5-4.94-31.07-5.7-2.16-.16-4.54-.88-4-3.72C1189.31,245.64,1192,245.58,1195.58,245.84Z"/><path class="cls-2" d="M706.6,842.55c-3.52.11-5.49.15-6-2.17a3.63,3.63,0,0,1,2.65-4.24,213.07,213.07,0,0,1,34.23-8.43c1.67-.25,4-.46,4.47,1.86a3.64,3.64,0,0,1-2.86,4.12C727.77,836.88,716.4,839.9,706.6,842.55Z"/><path class="cls-2" d="M763.1,828.3c-2.86-.25-5.88.77-6.25-2.78-.28-2.63,2.06-3.67,4.08-4.09q15.87-3.3,31.82-6.19c1.82-.33,4.51-1,5.29,1.75.83,2.94-1.25,4.72-3.7,5.23C783.77,824.43,773.14,826.37,763.1,828.3Z"/><path class="cls-2" d="M849.26,807.6c2.51.74,5.86,0,7,3.25.94,2.69-1.57,3.55-3.31,4.67-11.19-.78-22.15,1.86-33.26,2.23-2.17.08-5.41,1.2-5.71-2.39-.25-2.94,2.23-3.77,4.89-4.07C829,810.12,839.13,808.84,849.26,807.6Z"/><path class="cls-2" d="M605.14,847.92c-5.71,0-11.43,0-17.14,0-2,0-3.73-1-3.92-2.94-.23-2.47,1.46-3.9,3.91-3.9q17.13,0,34.28.14c1.87,0,4,.73,4.1,2.68.18,2.41-1.92,3.87-4.09,4C616.57,848.07,610.85,847.92,605.14,847.92Z"/><path class="cls-2" d="M663.05,847.72c-5.76,0-11.53.15-17.28-.08-2-.08-4.48-.76-4.07-3.72.31-2.24,2.32-2.74,4.14-2.75,11.22,0,22.45,0,33.67.12,2.07,0,4.55.75,4.42,3.53-.15,3.47-3,3.15-5.4,3.15-5.16,0-10.32,0-15.47,0Z"/><path class="cls-2" d="M547.56,847.77c-5.74,0-11.48.11-17.22-.07-1.72-.06-3.73-.8-3.8-3.05s1.8-3.32,3.57-3.34c11.77-.12,23.55-.07,35.33.07,1.86,0,3.63,1.07,3.29,3.42-.31,2.11-2.17,3-3.94,3.07-5.74.19-11.48.07-17.23.07Z"/><path class="cls-2" d="M912.86,811.62c-10.87.57-21.84-.6-32.6,1.86-2.63-1.14-7.59,1.34-7.36-4.17.16-4.15,4.27-4.14,6.91-4.28,9.92-.56,19.87-.69,29.82-.69C915.55,804.35,916.64,807,912.86,811.62Z"/><rect class="cls-1" x="1919" y="1079" width="1" height="1"/><rect class="cls-1" width="1" height="1"/><rect class="cls-1" y="1079" width="1" height="1"/><rect class="cls-1" x="1919" width="1" height="1"/></g><g id="Capa_3" data-name="Capa 3"><path d="M870.57,449.93V561H850.75V490.22l-19.51,14.91-16.18,12.53-16.18-12.53-19.51-14.91V561H759.54v-111l19.83,15.23,35.69,27.44,35.69-27.44Z"/><path d="M924.5,486.89v75.5H904.67V484.83a15.8,15.8,0,0,0-13.48-13.48h-4.45V451.68H891v.16a35.35,35.35,0,0,1,29.5,19.82,42.36,42.36,0,0,1,2.7,7.46,33.47,33.47,0,0,1,.95,8.09Z"/><path d="M1027.91,469.6a34.51,34.51,0,0,1,3.65,15.55v75.66h-19.83V483.24a15.8,15.8,0,0,0-13.48-13.48H940V449.93h56.31a34.47,34.47,0,0,1,15.54,3.65,35.17,35.17,0,0,1,16,16.18Z"/><path d="M1149.4,505.61a32.75,32.75,0,0,1-23.47,55.51h-45.52a32.58,32.58,0,0,1-30.14-20,34.31,34.31,0,0,1-2.54-12.85,32.67,32.67,0,0,1,9.2-22.84,31.35,31.35,0,0,1-6.82-10,34.31,34.31,0,0,1-2.54-12.85,32.22,32.22,0,0,1,32-32.84h46.48a32.88,32.88,0,0,1,23,55.68Zm-24.27-9.68a12.94,12.94,0,0,0,.48-25.85h-46.79a12.93,12.93,0,0,0,.32,25.85h46Zm.16,45.52a13.06,13.06,0,0,0,13-13,12.92,12.92,0,0,0-12.21-13h-46.48a12.88,12.88,0,0,0-12.21,12.85,13.07,13.07,0,0,0,13,13h45.52Z"/></g></g></svg>