<svg xmlns="http://www.w3.org/2000/svg" viewBox="0 0 1920 1080"><defs><style>.cls-1{fill:#010001;}.cls-2{fill:#f2f2f2;}</style></defs><g id="Capa_2" data-name="Capa 2"><g id="Capa_1-2" data-name="Capa 1"><path class="cls-1" d="M993.7,258.05c-8.86-.15-17.74-.23-26.59.1-8.22,1.05-.7,5.82-.7,5.82q13.73.07,27.41-.17c2.31,0,5.67.57,5.62-3.16C999.37,256.63,995.8,258.08,993.7,258.05Zm0,0c-8.86-.15-17.74-.23-26.59.1-8.22,1.05-.7,5.82-.7,5.82q13.73.07,27.41-.17c2.31,0,5.67.57,5.62-3.16C999.37,256.63,995.8,258.08,993.7,258.05Zm651.11,140c-.13-45.7-.28-82.21-.29-127.91,0-8.05-10-16.69-10-16.69-9.38-4.6-19.44-3.57-29.32-3.34-16.85.38-33.74-1.43-50.51,1.23-6.68,1.07-11.37,4.39-14.12,11.1-3.26,7.93-3.11,16.24-3.49,24.38-.52,10.66-5,14.5-15.12,11.76-23.5-6.34-47-12.91-70.62-18.53-32.35-7.69-64.89-14.57-97.36-21.81-5.17.49-8.51-.54-5.55-6.76.79-5.88.36-9.47-7.62-10.17-14.59-1.29-29-4.44-43.53-6.83-24.25-4-48.51-7.87-72.69-12.14-5.87-1-9.37,0-9.3,6.42,0,6.6-3,7.23-8.91,6.53-25.95-3.14-51.93-6-78-8.4-19.49-1.74-39.08-2.56-58.62-3.66-6.09-.33-9-3-8.84-9.33.2-8.29.1-16.61-.18-24.91-.55-16.55-7.73-23.67-24.23-23.75H882.22c-10.43,0-15.53,3.94-15.53,3.94-10.16,12.24-6.52,25.43-7.07,37.86-.67,15.48-.65,15.66-15.77,16.48-44.2,2.36-88.36,5.39-132.14,12.29-4.49.71-6.33-.4-6.3-4.76.1-9.05-4.41-9.64-12.26-8.3-38.38,6.62-76.87,12.69-115.35,18.65-6,.91-7.87,3.27-5.89,8.74,2.18,6.06-.22,7.74-6.22,8.82C509.62,269,454.44,282.81,399.6,298.13c-13.5,3.78-16.44,1.63-16.91-12.09-.17-5.26-.35-10.53-1-15.73-1.33-11.23-10.25-20-21.62-20.16-20.76-.37-41.53-.07-62.3,0-6.59,0-11.78,3.9-18,7.51-3.64,2.19-4.16,14-4.16,14q-.15,63.54-.5,127.08c0,5.11.67,9.71,5,13.42,3.39,2.93,4.52,7.11,4.44,11.78-.23,12.72-.2,25.46-.07,38.2.09,7.44-.44,15,3.21,21.94,6,8,14,10.89,23.82,10.41,8.82-.43,17.68-.13,26.53.12,6.23.2,10.61,2.77,10.74,9.89.55,29.82.93,59.63-.26,89.43-.84,17,4.92,31.63,14.53,45.35,6.62,9.45,12,19.73,18.2,29.48,2.39,3.77,2.52,6-1.93,8.33-10.5,5.42-20.76,11.27-31.12,17-9.73,7.35-20.72,12.59-31.28,18.5-6.37,3.56-7,7-3.45,13,22.11,37.89,43.86,76,66,113.85,8.82,15.08,9.08,14.92,24.35,6.15,19.16-11,38.37-21.87,57.43-33,4.68-2.73,8.75-3.49,13.94-1.08,10.74,5,21.79,9.33,32.71,13.94q98,41.26,195.87,82.56a139.55,139.55,0,0,0,17.43,5.9,35.49,35.49,0,0,0,17.1-.38c37.22-5.51,74.34-11.79,112-13.44,12.43-.63,24.87-1.15,37.27-2,4.38-.29,6.29,1.11,5.59,5.55-1.1,6.95,2.68,8.3,8.68,8.25,21.87-.18,43.74-.08,65.62,0q27,.08,54,.25l4.83-.73a25.8,25.8,0,0,0,.78-9c-.4-3.16,1-4.74,4.39-3.84l23.48.91c28.78.22,57.23,3.88,85.64,7.95,15,2.15,30,4.84,45,7.07,9,1.33,17.54-.73,25.84-4.21,18.25-7.7,36.54-15.31,54.82-23q51.21-22,102.45-44,44.77-19.23,89.51-38.53c11.18-8.92,16.5-22,23.39-33.8,24.56-42.23,48.78-84.67,73.17-127,1.5-2.59,3.33-5,5-7.5,11.63-16.26,12.41-34.78,12-53.87-.57-25.2-.19-50.41,0-75.61,0-9.83,2.42-12.19,12.34-12.44,8.84-.23,17.73,0,26.59-.11,16.68-.2,24.83-8.44,24.88-25.18.07-15.79-.07-31.57.12-47.35,0-3.45-.8-7.89,3-9.77C1644.85,409,1644.83,403.69,1644.81,398ZM722.59,247.09q60.18-7.41,120.73-10.38a83.64,83.64,0,0,0,12.34-1.36c10.43-2.15,15.7-8,16.45-18.85.7-10.21.8-20.45,1.11-30.7.14-3.92.93-7.3,5.86-7.32l158.75-.28c7.05-.12,9.56,3.13,9.76,9.18.3,8.86.1,17.73.37,26.58.39,14,7.41,21.8,21.33,22.38,36.79,1.58,73.47,4.59,110.06,8.55,9.34,1,18.66,2.21,28,3.36,1.06.14,2.86.28,3,.82,2,6.72-1.13,12.89-2.5,19.22-.93,4.34-4.5,3.06-7.45,2.78-7.17-.68-14.32-1.3-21.47-2.09-2.38-.25-4.94-.32-5.54,2.22-.81,3.51,2.36,3.93,4.76,4.21,6.42.75,12.87,1.25,20.26,1.95-3.06,5-7.19,4.32-10.73,4.16-20.73-1-41.46-2.1-62.15-3.55-51.41-3.61-102.9-4.65-154.38-6l-19.76.27c-46.82.31-93.57,2.13-140.32,4.49-25.43,1.28-50.83,3.31-76.25,4.71-4.13.23-8.9,1.64-12.84-2.75,3-2.56,5.88-1.76,8.51-2.18,1.8-.28,3.29-1,3.41-2.94.13-2.7-2.09-3.09-4-3.06a45.19,45.19,0,0,0-9.07.95c-6.45,1.48-8.73-1.7-9.92-7.47C707.82,249.17,707.64,248.93,722.59,247.09ZM472.77,798.33q-38.17,21.79-76.09,44.09c-4.51,2.64-6.61,1.59-9.07-2.7q-33-57.57-66.42-114.91c-2.13-3.64-2.17-5.58,1.76-7.85,25.43-14.55,50.74-29.3,76.11-44,1.68-1,3.42-1.76,4.95-2.54,2.71-.24,3.26,1.58,4.26,3.34Q441.5,731.59,475,789.26C477.51,793.65,477.24,795.78,472.77,798.33Zm8.56-11.75c-1.78-4-4-7.8-6-11.67Q458.45,746.44,441.6,718c-9.26-15.69-18.44-31.4-27.71-47.07-1.38-2.31-3.82-4.23.23-6.54,25.6-14.63,51-29.54,76.68-44.07,12.47-7.07,25.87-10.8,40.43-8.82,32.26,2.5,58,24.14,65.59,55.24,7.37,30.08-6,62-33.21,78.58-13.92,8.48-28.76,15.64-42.06,25-10.61,7.47-19.13,5.19-28.59-.85-2.88-1.83-6.67-7.38-9.45-3-2.54,4,3.46,6.42,6.59,8.95s10,2,9.78,5.84-6.94,4.51-10.31,7.27C485.91,791.51,483.35,791.11,481.33,786.58ZM888.14,885c-18.79-.66-37.45,1.88-56.2,2.56-26.39,2.9-52.8,5.64-79,10.28a52,52,0,0,1-7.4.3c-9.58,3.53-19.2,4.76-29,.65q-62.22-26.25-124.44-52.41-51.49-21.6-103.13-42.87c-1.85-.75-3.91-1.1-4.47-3-.94-3.09,2.66-1.78,3.7-3.29,1.82-2.6,5-3.15,7.84-4.15,5.5-3.44,10.54-7.25,17.56-8.28,4.69-.7,7-6.9,11.71-9.41,13.17-7,26-14.59,38.9-22.17,25.41-15,39.83-37.06,41.26-66.79,2.12-43.95-33.28-81.18-77.77-82.21L519.5,604c-34.16,5.55-59.89,28.42-89.26,43.74-7.28,3.81-11,4.74-14.85-3.69-2.85-6.21-6-12.94-13.74-17.27-.3,8.67,4.51,13.94,7.47,19.9,1.66,3.31,6.35,7.28,3.57,10.07-4.3,4.31-10.44,7-16.11,9.67-1.78.85-2.78-2.13-3.74-3.76-8.94-14.92-18-29.79-26.8-44.77-7-11.81-3.57-24.78-3.79-37.32-.08-22.84-.25-45.68-.2-68.51,0-8.63-.2-17.08-6-24.22-6.09-5.05-13.37-6.33-20.94-6.47-8-.15-16.05,0-24.07-.06-11.47-.15-12.92-1.17-13.3-12.88-.5-14.65-.23-29.32-.18-44,0-8.43-.2-16.71-7.34-22.8-2.49-2.13-1.84-5.07-1.84-7.75q0-58.55.06-117.07c0-10.83,2.5-13.32,13.17-13.42,18.28-.18,36.56.2,54.82-.2,8.6-.18,12.14,4.21,12.89,11.76.5,4.92.22,9.94.28,14.92.24,17.11,13,26.76,29.66,22,31.08-8.78,62.23-17.3,93.72-24.48,24.48-5.57,49.18-10.3,73.68-15.85,7.46-1.68,10.27.32,9.58,7.83a65.68,65.68,0,0,0,0,8.3c.22,5.74-2.38,8.13-8.25,8.93-8.72,1.22-17.3,3.48-25.86,5.59-2.23.57-5.52,1.66-4.39,4.86.93,2.63,4,1.16,5.85.83,6.52-1.13,13-2.68,19.43-4.08,1.34-.28,2.89-.63,3.46,1s-.82,2.34-2,3.06c-5.82,3.41-12.34,4.79-18.79,6.15-17.82,3.78-35.64,7.45-53.52,10.81-37.46,7-65.68,37.62-67.74,75.62-1.33,24.57-.62,49.25-.85,73.88,0,3.31-.27,6.62-.4,9.91,1.23,11,.17,22,1.28,33.1,3.61,35.86,35.71,67.46,71.8,70.12,21.85,1.61,43.71.32,65.54.62,44.21.59,74.8,28.47,78.29,72.36,1.08,13.72.15,27.61.15,41.41,0,24.83.16,49.66.15,74.5,0,29.6,10.82,46.07,38.15,57.33,18.06,7.45,36.19,14.73,54.24,22.17,6.22,2.56,12.52,4.14,19.27,3.24,29.91-4.24,59.76-8.85,89.93-10.75,8-1.51,16.15-2.64,24.33-2.21,9,.48,15.32,3.64,20.34,12.61,3.89,7,7.17,13,6.79,21C893.26,883.58,892.15,885.14,888.14,885ZM1021,869.48a292.82,292.82,0,0,0-.58,29.78c.1,4.23-.63,5.84-5.19,5.77l-110.08.07c-3.13,0-5.18,0-5.26-4.14-.25-12.14,1.18-23.78-2.11-35.67-1.93-7-10.63-18-10.63-18-6.14-7.47-16.4-8.44-26.09-8-4.15.17-8.29.37-12.43.55Q815,844,781.27,848.24c-10.13,1.26-20.28,2.56-30.42,3.69-4.09.45-8.25.58-12.08-1.43-21.7-8.81-43.89-16.6-64.94-26.76-17-8.18-26.61-22.85-26.61-42.59,0-35.41-.24-70.82.11-106.21.17-17.05-1.41-33.62-8.41-49.35C627.13,606.43,612,591.45,589.64,585c-9.2-2.64-18.51-3.11-27.93-3.21-20.49-.23-41,.48-61.45-.86-36.21-2.38-66-31.37-69.3-67.59-.77-8.54-1.24-17.08-.1-25.65-.92-31.25-2.58-62.6.94-93.72,3.46-30.35,28.71-55.25,61-62.4,18.86-4.17,37.81-8,56.77-11.73,25.86-5,37.12-21.28,32.56-47.28-1.1-6.27-1.71-12.61-2.88-18.86-.81-4.41.15-6.29,5.09-7.05q54.49-8.28,108.86-17.25c3.57-.56,5.32-1,6,3.64,1.64,11.76,3.94,23.42,6.25,35.06,1.88,9.53,9.8,14.44,9.8,14.44,8.56,7.13,19.16,6,29.4,5.27,49.71-3.74,99.51-6,149.3-7.9,18.27-.7,36.56-.76,54.82-1.68l29.21.27c65.59,1.91,131.19,4.09,196.63,9.3,10.43.83,21,1.76,30.35-5.11a26,26,0,0,0,10.82-17c1.87-10.63,3.84-21.24,5.33-31.9.59-4.28,1.5-5.23,6.21-4.41,35.94,6.12,71.93,11.84,108,17.49,4.61.72,6.61,1.72,5.81,7.19-1.73,11.73-4.49,23.42-3.63,35.43a33.81,33.81,0,0,0,4.38,13.73c8.26,12.63,21.5,15.4,34.91,18.1,18.39,3.71,36.87,7.15,55.06,11.67,33.25,8.27,57.58,38.14,58.23,72.12.65,33.78.35,67.59,0,101.37-.08,9.54-1.51,19.11-6.55,27.62-6.89,23.85-33.65,44.36-60.81,46.69-18.77,1.61-37.58,1.4-56.35.76-23.08-.78-44.45,3.4-63.2,17.62-17.29,15.05-28.45,33.59-29.05,56.81-.8,31.53-.35,63.1-.53,94.65,0,11.06,0,22.15-.64,33.2-1.13,19-10.42,33.21-27.82,40.93-20.42,9-41.35,17-62,25.51-10.45,4.31-20.74.88-31-.33-29.09-3.41-58.18-7-87.27-10.51-14.14-1.37-26.84,1.43-36.87,12.42C1022.94,857.68,1021,869.48,1021,869.48Zm610.57-473.36c0,1.6-.07,3.83-1,4.66-8.64,7.35-7.46,17.21-7.43,26.89.07,13,.18,26-.13,39-.32,12.29-2.75,14.37-14.79,14.65-9.94.23-19.92-.73-29.85.77-12.66,1.91-19.79,9.56-19.88,22.35-.2,31.57-.11,63.13-.23,94.7,0,4.37.57,8.9-1.7,13-2.46,8.28-7.65,15.13-11.85,22.48Q1517.61,682,1490.17,729c-1.36,2.34-3.07,4.45-4.64,6.68-8.56,15.45-17.23,30.87-25.66,46.39a33,33,0,0,1-16.81,15.18c-77,32.6-154.18,64.93-230.85,98.36-15.3,6.67-29.41,4.81-44.39,2.23a799.6,799.6,0,0,0-106.26-11.49l-28.61-1.3c-5.43.17-6.86-2-6-6.82.2-1.08.3-2.18.4-3.28,1.3-12.45,1.3-12.3,13.52-12.77,2.74-.1,7.8,1.95,7.5-3.44-.23-4.23-4.61-2.61-7.38-2.85-1.87-.16-3.9.49-5.62-1.87,9.82-10.67,22.4-7.77,34.51-7.06,29.57,3.56,59.15,7,88.69,10.71,11.13,1.42,21.79,1.58,32.45-3.09,17.15-7.52,34.69-14.17,52-21.4,24-10.08,37.16-27.71,37.19-54.32.07-39.82-.4-79.65.52-119.45.7-30.54,17-51.68,44-64.78,4.94-2.4,10.16-4.36,15.83-4.39,5.77-2.38,11.88-1.72,17.86-1.83,20.13-.37,40.29-.17,60.39-.87,29.66-1,51.58-15.46,67.06-40.33.7-1.13,1.57-2.16,2.36-3.24,7.41-16.25,9-33.38,8.65-51-.43-25.75-1.11-51.54,0-77.24,2-44.74-24.28-84.29-77.38-92.7-18.52-2.95-36.76-7.55-55.15-11.33a18,18,0,0,1-11.43-6.95c4.77,0,8.5,0,12.21,0,1.78,0,3.39-.47,3.62-2.54s-1.41-3-3-3.36a107.45,107.45,0,0,0-13-2.38c-6.34-.64-9-3.43-9-10.18.16-16.22-.12-16.22,15.71-13.26,54.3,10.21,107.79,23.84,161,38.67,16.5,4.59,28.59-3.59,30.15-20.56.54-5.77.57-11.6.72-17.41.2-6.73,3.61-10.28,10.31-10.29q29.91-.13,59.82-.05c6.87,0,10,4.14,10,10.64Q1631.63,335.08,1631.58,396.12ZM966.41,264q13.73.07,27.41-.17c2.31,0,5.67.57,5.62-3.16-.07-4-3.64-2.56-5.74-2.59-8.86-.15-17.74-.23-26.59.1C958.89,259.2,966.41,264,966.41,264Z"/><path class="cls-2" d="M1490,405.09c-.65-34-25-63.85-58.23-72.12-18.19-4.52-36.67-8-55.06-11.67-13.41-2.7-26.65-5.47-34.91-18.1a33.81,33.81,0,0,1-4.38-13.73c-.86-12,1.9-23.7,3.63-35.43.8-5.47-1.2-6.47-5.81-7.19-36-5.65-72-11.37-108-17.49-4.71-.82-5.62.13-6.21,4.41-1.49,10.66-3.46,21.27-5.33,31.9a26,26,0,0,1-10.82,17c-9.36,6.87-19.92,5.94-30.35,5.11-65.44-5.21-131-7.39-196.63-9.3l-29.21-.27c-18.26.92-36.55,1-54.82,1.68-49.79,1.9-99.59,4.16-149.3,7.9-10.24.77-20.84,1.86-29.4-5.27,0,0-7.92-4.91-9.8-14.44-2.31-11.64-4.61-23.3-6.25-35.06-.65-4.65-2.4-4.2-6-3.64q-54.39,8.88-108.86,17.25c-4.94.76-5.9,2.64-5.09,7.05,1.17,6.25,1.78,12.59,2.88,18.86,4.56,26-6.7,42.25-32.56,47.28-19,3.7-37.91,7.56-56.77,11.73-32.28,7.15-57.53,32.05-61,62.4-3.52,31.12-1.86,62.47-.94,93.72-1.14,8.57-.67,17.11.1,25.65,3.26,36.22,33.09,65.21,69.3,67.59,20.47,1.34,41,.63,61.45.86,9.42.1,18.73.57,27.93,3.21,22.35,6.46,37.49,21.44,49.28,40.6,7,15.73,8.58,32.3,8.41,49.35-.35,35.39-.1,70.8-.11,106.21,0,19.74,9.66,34.41,26.61,42.59,21,10.16,43.24,18,64.94,26.76,3.83,2,8,1.88,12.08,1.43,10.14-1.13,20.29-2.43,30.42-3.69Q815,844,848.64,839.77c4.14-.18,8.28-.38,12.43-.55,9.69-.4,19.95.57,26.09,8,0,0,8.7,11.06,10.63,18,3.29,11.89,1.86,23.53,2.11,35.67.08,4.12,2.13,4.19,5.26,4.14l110.08-.07c4.56.07,5.29-1.54,5.19-5.77a292.82,292.82,0,0,1,.58-29.78s1.93-11.8,6.89-17.65c10-11,22.73-13.79,36.87-12.42,29.09,3.52,58.18,7.1,87.27,10.51,10.31,1.21,20.6,4.64,31,.33,20.65-8.52,41.58-16.46,62-25.51,17.4-7.72,26.69-21.92,27.82-40.93.67-11,.59-22.14.64-33.2.18-31.55-.27-63.12.53-94.65.6-23.22,11.76-41.76,29.05-56.81,18.75-14.22,40.12-18.4,63.2-17.62,18.77.64,37.58.85,56.35-.76,27.16-2.33,53.92-22.84,60.81-46.69,5-8.51,6.47-18.08,6.55-27.62C1490.34,472.68,1490.64,438.87,1490,405.09ZM1012.35,813l-.65.88a64.32,64.32,0,0,1-103.5,0l-.65-.88V738.35l.65-.88a64.32,64.32,0,0,1,103.5,0l.65.89Z"/><path class="cls-1" d="M1323.07,822.32c-3,0-4.34-.35-5-1.75-.93-1.86,0-3.32,1.49-4.16,9.84-5.52,20.34-9.49,31-12.92,1.24-.4,2.83-.23,3.25,1.56s.47,3.61-1.26,4.38C1342.33,814,1332,818.43,1323.07,822.32Z"/><path class="cls-1" d="M1477.24,690.82c5.56-8.82,11.09-17.66,16.72-26.45.84-1.32,1.87-3,3.82-2.44a2.46,2.46,0,0,1,1.38,3.44c-4.18,10.81-9.32,21.11-17.22,29.74-.93,1-3.09.89-4.67,1.29Z"/><path class="cls-1" d="M1304.43,827c.29,2.42-1.37,3.51-3.16,4.27-8.85,3.74-17.73,7.39-26.6,11-2,.84-4.36,2-5.65-.81-1.15-2.52.48-4.35,2.64-5.24,9.65-3.94,19.38-7.69,29-11.58C1303.17,823.64,1304.34,824.35,1304.43,827Z"/><path class="cls-1" d="M1470.71,706.32c2.87,6.53-.44,10.15-2.38,13.86-3.55,6.79-7.58,13.33-11.53,19.9-1,1.69-2.74,3-4.81,2.29-2.44-.89-2-3.38-1.22-4.93C1456.3,726.85,1461.79,716.2,1470.71,706.32Z"/><path class="cls-1" d="M1256.84,847.08a6.19,6.19,0,0,1-4,4.27c-9,4-18,7.9-27.09,11.63-1.5.62-3.91,1.85-4.94-.84-.79-2.1.4-3.91,2.2-4.8a211.51,211.51,0,0,1,29.51-12.22C1254.24,844.57,1256.36,844.78,1256.84,847.08Z"/><path class="cls-1" d="M1447.25,757a49.33,49.33,0,0,1-2.28,4.6c-5.93,9.25-14.93,14.4-24.82,18.29-1.53.6-3.68,1.06-4.54-.54-1-1.9,0-3.78,2.09-4.68A61.81,61.81,0,0,0,1442,755.38c.76-1,2.11-2.1,3.54-1C1446.28,754.92,1446.64,756.05,1447.25,757Z"/><path class="cls-1" d="M1149.9,873c-10.23-1.28-19.78-2.41-29.3-3.72-1.76-.24-4.33-.51-4.13-3.09s2.64-2.57,4.49-2.55a191.54,191.54,0,0,1,29.55,3.07c2.55.43,5.1,1.68,4.32,4.86S1150.94,872,1149.9,873Z"/><path class="cls-1" d="M1403.55,784.78a6.12,6.12,0,0,1-3.88,4l-27.26,12c-1.77.77-3.77,1.83-4.87-.79a3.27,3.27,0,0,1,1.55-4.3c10.12-5,20.28-10,31.38-12.61C1401.78,782.7,1403.28,782.81,1403.55,784.78Z"/><path class="cls-1" d="M1065.05,864c-1.16-1.88-.93-3.83-.32-5.8,10.78-1,21.36,1.53,32.08,1.85,2.56.08,5.21.94,4.77,4.31s-3.41,2.26-5.29,2.14C1085.87,865.78,1075.46,864.84,1065.05,864Z"/><path class="cls-1" d="M1182.79,876.47c-3.93,0-7,0-10,0-1.65,0-3.39,0-3.46-2.42,0-2,1.11-3,3-3.16,3.56-.27,7.12-.51,10.69-.59,6-.13,12.08,0,17.52-3.49,2.08-1.31,5.22-2.35,6.55.37,1.75,3.56-1.86,4.82-4.26,5.66C1196.07,875.21,1189.21,877.28,1182.79,876.47Z"/><path class="cls-1" d="M1543.14,384.1a27.13,27.13,0,0,1-.38,4.51c-.4,1.72-.17,4.21-2.92,4.21-2.56,0-2.95-2-3.07-4-.62-9.88-1.84-19.62-5.89-28.8-.76-1.72-1.32-4,1-5s4.08.22,5.27,2.47C1541.53,365.69,1542.63,374.62,1543.14,384.1Z"/><path class="cls-1" d="M1537.62,600.35c-1.81,2-3.75,5-6.6,2.77-2-1.57-.57-4.44.35-6.81,2.16-5.54,4.55-11.07,4.48-17.21.3-2.15.64-4.29.91-6.45.33-2.55-1-6.67,2.7-6.71,4.28-.05,3.23,4.45,3.27,7.15C1542.89,582.49,1541.72,591.71,1537.62,600.35Z"/><path class="cls-1" d="M1465.06,328.89a182.3,182.3,0,0,1-27-7.17c-1.8-.65-4.18-1.07-3.83-3.44.4-2.77,3-3.11,5.17-2.58,9.84,2.37,19.63,4.91,29.43,7.42,2,.52,3.8,1.73,3.14,4C1471.23,329.76,1468.88,329.81,1465.06,328.89Z"/><path class="cls-1" d="M1543,532.54c-.28,5.48-.52,11-.87,16.42-.1,1.6-.2,3.49-2.53,3.44-2.08,0-2.79-1.54-2.79-3.34q0-16.47.1-32.93a2.88,2.88,0,0,1,2.19-3.1c2-.29,3,1.24,3,3.05.09,5.48,0,11,0,16.45Z"/><path class="cls-1" d="M1536.8,478.75c0-5.23,0-10.46,0-15.68,0-1.66.14-3.63,2.19-3.89,2.48-.33,3.24,1.53,3.35,3.65a226.06,226.06,0,0,1,0,31.34c-.17,2-.73,4.18-3.19,4s-2.36-2.63-2.38-4.53c0-4.95,0-9.9,0-14.86Z"/><path class="cls-1" d="M1491.5,328c8.83,2.9,17.69,5.68,26.46,8.77,2.56.9,5.48,2.73,4,6.05-1.62,3.54-4.56,2.1-6.84.4-7.32-5.51-16.42-5.67-24.67-8.36-2.28-.74-4.61-1.7-4.29-4.14C1486.46,328,1489.08,328,1491.5,328Z"/><path class="cls-1" d="M1415.16,316.57c-9.11-1.88-18.5-3.75-27.86-5.76-2.29-.5-4.13-1.87-3.83-4.57.4-3.52,2.83-2.29,5-2a152.09,152.09,0,0,1,27.88,7.05c1.76.59,4.25.95,3.87,3.43C1419.77,317.49,1417.15,316.11,1415.16,316.57Z"/><path class="cls-1" d="M1536.81,425.56c0-5.23,0-10.46,0-15.68,0-1.72.38-3.42,2.56-3.49s2.9,1.46,3,3.21a212.85,212.85,0,0,1,.09,32.14c-.17,2.12-1.38,3.78-3.73,3.45-2.14-.31-2-2.31-2-3.94,0-5.23,0-10.46,0-15.69Z"/><path class="cls-1" d="M378.21,439.86c0-5.25,0-10.5,0-15.76,0-1.8.73-3.39,2.73-3.44,2.22-.06,2.49,1.78,2.6,3.48a202,202,0,0,1-.09,31.5c-.13,1.52.28,3.59-2.17,3.72s-3.32-1.52-3.32-3.73c0-5.25,0-10.51,0-15.77Z"/><path class="cls-1" d="M389.83,354.68c-4.74-.93-3.28-3.72-1.67-6,7-10.07,17.34-14.81,29-17a3.25,3.25,0,0,1,2.8.92c.7,1.16.64,3.19-.7,3.64-10.69,3.55-19.2,10.28-27.16,17.93C391.62,354.6,390.58,354.51,389.83,354.68Z"/><path class="cls-1" d="M384.41,387c-.31,5.25-.58,10.5-1,15.74-.09,1.29,0,3-1.88,3.13a3,3,0,0,1-3.32-3c-.6-10.5-1.16-21,.74-31.43.31-1.67,1-4.1,3.7-3.4,1.91.49,2.36,2.3,2.3,4-.17,5-.5,9.95-.77,14.93Z"/><path class="cls-1" d="M384.7,487.59c-.32,6.84-.55,13.67-1,20.49-.11,1.63.6,4.31-2.42,4.31s-3.09-2.5-3.17-4.71c-.23-6-.41-12-.61-18.05.23-4.36.45-8.72.69-13.08.1-1.83.81-3.24,2.88-3.14,1.62.08,2.26,1.31,2.42,2.79Q384.09,481.9,384.7,487.59Z"/><path class="cls-1" d="M439.16,332.31c-1.74-.21-4.62.37-5-2.4-.28-2.1,2.09-3,4-3.51,9.56-2.56,19.14-5,28.7-7.62,2.12-.57,4.05-.46,4.52,2,.43,2.23-1.13,3.39-3.18,4.12A148.09,148.09,0,0,1,439.16,332.31Z"/><path class="cls-1" d="M491.49,319.85c-2.31-.56-4.93,1-5.18-2.08-.16-1.92,1.54-2.57,3.23-3.13a161.57,161.57,0,0,1,28.84-6.94c2.14-.3,5-1.29,5.63,1.51.53,2.39-1.9,3.7-4.2,4.22C510.18,315.63,500.54,317.8,491.49,319.85Z"/><path class="cls-1" d="M1086.45,267.36c-5.25,0-10.49.07-15.74,0-2.1-.05-3.92-1.16-4-3.42-.1-2.67,2.11-2.9,4.11-2.85q15.33.39,30.66.91c2,.07,4,.58,3.86,3.23-.12,2.47-1.72,3.1-4,3.06-5-.09-9.95,0-14.92,0Z"/><path class="cls-1" d="M926.19,258c5,0,9.91,0,14.86,0,1.86,0,4-.29,3.94,2.74-.06,2.16-1.45,2.94-3.18,3-10.44.28-20.87.53-31.31.57-2.4,0-2.93-2.39-2.89-4.25,0-2.27,2.14-2.1,3.73-2.12,4.95-.05,9.9,0,14.85,0Z"/><path class="cls-1" d="M1132.26,264.16c8.16,1,15,1.7,21.88,2.62,2.24.3,4.69,1.19,4.39,4-.32,3.14-3.13,2.61-5.22,2.42-9.36-.85-18.71-1.81-28.06-2.77-2.19-.23-4.66-.26-4.37-3.56.25-2.81,2.56-2.54,4.36-2.66C1128,264,1130.76,264.16,1132.26,264.16Z"/><path class="cls-1" d="M874.19,258.18h14.09c2.2,0,4.78-.37,4.69,3-.08,2.93-2.28,3.47-4.64,3.5q-15.78.17-31.54.28c-1.69,0-3.49,0-3.71-2.25-.26-2.65,1.58-3.27,3.7-3.28,5.8-.05,11.6,0,17.41,0Z"/><path class="cls-1" d="M765.83,273.4c-5.75,0-9.87,0-14,0-1.84,0-3.37-.54-3.66-2.48a3.23,3.23,0,0,1,3.24-3.92c10.42-.61,20.85-1.06,31.28-1.52,2-.09,2.87,1.18,3.06,3.07.27,2.62-1.32,3.27-3.48,3.44C776.26,272.5,770.25,273,765.83,273.4Z"/><path class="cls-1" d="M830.29,261.52c2.76,1.37,8.85-3,9.17,2.25.28,4.74-6,4.09-10,4.43q-11.52,1-23,1.73c-2,.13-4.8,1-5-2.48-.16-2.94,2.33-3.71,4.45-3.92C813.85,262.72,821.82,262.19,830.29,261.52Z"/><path class="cls-1" d="M1032.16,265c-4-.27-9.52-.56-15-1.05-2-.17-4-1-3.8-3.45.2-2.81,2.63-2.46,4.43-2.39,9.91.38,19.81.87,29.72,1.39,1.86.09,4.08-.05,4.14,2.78.08,3.77-2.92,2.56-4.76,2.65C1042.48,265.14,1038.06,265,1032.16,265Z"/><path class="cls-1" d="M388.61,595.22c2.37,4.94,4.77,9.87,7.1,14.82,1,2.06,1.83,4.58-.45,6-2.92,1.77-4.68-.75-5.68-3-3.83-8.58-10.24-16-11.64-25.7.92-2.26-1.3-6.24,2.53-6.71,3.39-.41,3.49,3.34,4.46,5.71C386.15,589.29,387.38,592.25,388.61,595.22Z"/><path class="cls-1" d="M546.09,791.68c5.47,2.53,11,5,16.38,7.6,2.33,1.13,4.64,2.88,3.2,5.76s-3.95,1-5.79.22c-10.39-4.2-21.48-6.8-30.76-13.52,0-4.79,3.09-4.42,6.2-3.55C539,789.2,542.51,790.5,546.09,791.68Z"/><path class="cls-1" d="M378.12,545c0-5.22,0-10.45,0-15.67,0-1.77.58-3.27,2.82-3.11,1.71.12,2.31,1.35,2.46,2.77a165.61,165.61,0,0,1,0,33.76c-.14,1.41-.83,2.78-2.61,2.32a3.37,3.37,0,0,1-2.75-3.58C378.15,556,378.11,550.46,378.12,545Z"/><path class="cls-1" d="M608.83,826.76c-8.34-3.61-18-7.73-27.52-12-2.1-.92-2.62-2.85-1.85-4.88.93-2.48,3.29-2.08,4.95-1.42q14.19,5.68,28.2,11.81c1.72.75,3.43,2.28,2.71,4.57C614.52,827.42,612.19,826.51,608.83,826.76Z"/><path class="cls-1" d="M631.26,829c11.07,4.09,22.24,8,32.64,13.7a2,2,0,0,1,.74,2.84c-1.1,1.74-2.79,3.1-4.84,2.26q-14.47-6-28.8-12.3c-2-.87-2.44-2.87-2-4.93C629.2,829.37,629.88,828.62,631.26,829Z"/><path class="cls-1" d="M758.85,868c2.06,1.27,6.35-1.43,6.42,2.94.06,3.5-3.28,3.81-6.06,4.06-6.77.6-13.55,1.16-20.32,1.74l-9.83-.3c-1.63-.06-3.41.06-3.6-2.26a3.2,3.2,0,0,1,3.25-3.83c2.72-.22,5.46-.37,8.19-.35A107.71,107.71,0,0,0,758.85,868Z"/><path class="cls-1" d="M712.45,866.49c-.15,2.64-2.23,2.27-4.07,1.53-9.39-3.82-18.78-7.66-28-11.74-1.83-.8-4.45-2.32-3.33-4.92s3.87-1.64,5.8-.86c8.89,3.59,17.72,7.36,26.55,11.11A4.74,4.74,0,0,1,712.45,866.49Z"/><path class="cls-1" d="M1506.17,650.13c-2.48-.26-2.46-2.09-1.86-3.63a141.76,141.76,0,0,1,16.88-30.29,2.8,2.8,0,0,1,3.57-1.2,2.89,2.89,0,0,1,1.62,3.49,115.12,115.12,0,0,1-18.76,30.88C1507.3,649.76,1506.66,649.88,1506.17,650.13Z"/><path class="cls-1" d="M449.55,706.9c-3.37,1.92-5.7.67-7.49-2.41-4.44-7.62-9-15.18-13.3-22.86-1.34-2.38-2.84-5.36.64-7.17s4.19,1.66,5.39,3.54c4,6.25,7.79,12.63,11.66,19C446.8,700.49,450,703.12,449.55,706.9Z"/><path class="cls-1" d="M474.58,754c-3.44.47-5.51-1.06-7.13-4.11-4.46-8.4-9.2-16.65-13.83-25-1.28-2.3-.86-4.09,1.56-5.31,7.34,3.34,8.85,11.23,13.12,17a93.46,93.46,0,0,1,6.39,10.4C475.94,749.28,478.05,751.77,474.58,754Z"/><path class="cls-1" d="M837,858.15c9.37.76,18.57-1.16,27.85-1.67,1.92-.11,4.89-1.11,5.3,2.12s-2.48,3.93-4.9,4.26c-7.32,1-14.67,1.81-22,2.69-1.6-.06-3.22,0-4.81-.19-2.47-.24-6.11,1.78-7-1.72C830.41,859.77,834.28,859.17,837,858.15Z"/><path class="cls-1" d="M804.09,862.28c4.34.81,12.3-2.53,12.56,1.64.32,5.23-7.65,3.81-12.19,4.6-6.8,1.19-13.66,2.11-20.52,2.85-1.84.19-4.88,1.24-5-2.38-.12-2.91,2.31-3.65,4.47-4C790.21,864,797.08,863.19,804.09,862.28Z"/><path class="cls-1" d="M532.82,712.76a33.82,33.82,0,1,1,33.81-33.82A33.86,33.86,0,0,1,532.82,712.76Zm0-61A27.16,27.16,0,1,0,560,678.94,27.19,27.19,0,0,0,532.82,651.78Z"/><path class="cls-1" d="M1387.08,712.76a33.82,33.82,0,1,1,33.81-33.82A33.86,33.86,0,0,1,1387.08,712.76Zm0-61a27.16,27.16,0,1,0,27.16,27.16A27.19,27.19,0,0,0,1387.08,651.78Z"/><path class="cls-1" d="M1011.7,737.5a64.32,64.32,0,0,0-103.5,0l-.65.88V813l.65.88a64.32,64.32,0,0,0,103.5,0l.65-.88V738.39Zm-6,73.23a57.64,57.64,0,0,1-91.49,0V740.56a57.64,57.64,0,0,1,91.49,0Z"/><rect class="cls-2" x="1919" y="1079" width="1" height="1"/><rect class="cls-2" width="1" height="1"/><rect class="cls-2" y="1079" width="1" height="1"/><rect class="cls-2" x="1919" width="1" height="1"/></g><g id="Capa_3" data-name="Capa 3"><path d="M871.57,460.77v111H851.75V501.06L832.24,516,816.06,528.5,799.88,516l-19.51-14.91V571.8H760.54v-111L780.37,476l35.69,27.44L851.75,476Z"/><path d="M925.5,497.73v75.5H905.67V495.67a15.8,15.8,0,0,0-13.48-13.48h-4.45V462.52H892v.16a35.35,35.35,0,0,1,29.5,19.82,42.36,42.36,0,0,1,2.7,7.46,33.41,33.41,0,0,1,.95,8.09Z"/><path d="M1043,516.45A32.75,32.75,0,0,1,1019.55,572H974a32.59,32.59,0,0,1-30.14-20,34.5,34.5,0,0,1-2.54-12.85,32.65,32.65,0,0,1,9.2-22.84,31.28,31.28,0,0,1-6.82-10,34.41,34.41,0,0,1-2.53-12.84,32.2,32.2,0,0,1,32-32.84h46.47a32.88,32.88,0,0,1,23,55.68Zm-24.27-9.68a12.94,12.94,0,0,0,.47-25.85H972.44a12.93,12.93,0,0,0,.32,25.85h46Zm.16,45.52a13.06,13.06,0,0,0,13-13,12.92,12.92,0,0,0-12.21-13H973.24A12.89,12.89,0,0,0,961,539.13a13.06,13.06,0,0,0,13,13h45.52Z"/><path d="M1155.8,480.44a34.6,34.6,0,0,1,3.64,15.54v75.66h-19.82V494.08a15.81,15.81,0,0,0-13.49-13.48h-58.21V460.77h56.31a34.51,34.51,0,0,1,15.55,3.65,35.27,35.27,0,0,1,16,16.18Z"/></g></g></svg>