<svg xmlns="http://www.w3.org/2000/svg" viewBox="0 0 1920 1080"><defs><style>.cls-1{fill:#020202;}.cls-2{fill:#f2f2f2;}</style></defs><g id="Capa_2" data-name="Capa 2"><g id="Capa_1-2" data-name="Capa 1"><path class="cls-1" d="M1702.48,590.5c-16.82-.12-33.63-.17-50.43.1-4.85.09-6.58-1.28-6.39-6.2.41-9.95.32-19.91.43-29.88-.11-6.27.1-12.55-.38-18.78-.44-5.86,2-7.16,7.45-7,15.12.38,30.24.16,45.36.11,20.83-.07,24.66-3.77,24.78-24.25,0,0,.12-60.72.12-67.5s-5.92-17.57-5.92-17.57A60,60,0,0,0,1688.86,394c-22.84-10.13-45.5-20.7-68.39-30.75-38.33-16.85-76.8-33.33-115.83-48.6-43.6-17.07-87.25-33.89-132.17-47.19a1296.92,1296.92,0,0,0-139.8-32.71c-30-5.36-60-10-90.21-14.16-26.89-3.7-53.86-6.46-80.74-10-10.36-1.37-19.56.37-27.52,7.89-6.53,6.18-14.3,8.66-23.79,8l-102.61,0c-7.8.31-14.57-1-20.24-6.76-7.22-7.42-16.18-9.51-26.44-9.49-26.8,0-142.15,19-142.15,19-122.68,18.63-239.51,56.7-353.19,105.57q-66.7,28.7-132.83,58.55C220.4,399,210,406.87,203.32,418.78c-1.5,2.48-6.13,14-6.13,14v76.82c0,13.87,5.43,19.13,19.15,19.27,11.4.12,22.83-.26,34.21.08,7.88.23,18.58-3.63,22.86,1.61,4.44,5.43,1.32,15.81,1,24,.11,10-.1,20,.43,29.88.29,5.29-2,6.1-6.45,6.06q-25.67-.19-51.31.07c-14.31.15-19.49,5.36-19.81,19.59-.21,8.82-.31,17.62-.45,26.44.65,21.75,1,43.5-.2,65.24.22,8.21.32,16.43.7,24.65.51,11.35,5.69,16.09,17.12,16.56,4.64.18,10.4-2.11,13.6,2.63,4.59,6.78,8.36,14.15,12.14,21.44,1.2,2.3-1.38,3.34-2.87,4.56L222.11,784c.84,1.6-.46,3.21,1.32,5.23q20,22.78,39.15,46.28c4.52,5.55,9.07,7.2,14.11,1.67,13.46-14.87,30.36-17.93,49.42-16.44,14.74,1.14,29.62.53,44.43.7a370.5,370.5,0,0,1,40.13-.19,26.63,26.63,0,0,1,12.82,4.25q29.28,17.57,58.48,35.27c16.22,9.8,31.67,8.34,42.49,8.39,24.23.14,47-3.2,69.11-12.29,1.83-.75,3.77-1.2,5.65-1.8,20.42-9.35,40-20.22,57.78-34a64.89,64.89,0,0,1,24.4-11.49c29.42-7.47,58.84-14.88,88.18-22.73,4.79-1.28,8.06-1,11.16,2.86,4.78,6,11.27,8.16,18.8,8.21,15.07.1,30.14.44,44.94-3.17,35-7.67,70.33-13.1,106.22-14.78l18,0c30.46,1,60.5,5.24,90.31,11.39,20.84,4.4,41.73,8.27,63.26,6.42,6.85-.58,13-2.4,17.24-7.89,3.1-4,6-5,10.86-3.07,5.7,2.31,11.8,3.63,17.72,5.38,44.42,9.45,89.2,17.93,125.1,49.08a287,287,0,0,0,57.45,23.53c24.28,7,49.16,5.53,73.68,2.22,12.4-1.68,22-11.54,32.93-17.53q4.43-2.44,8.87-4.87c10.76-8,22.63-14.18,34.08-21,4-2.4,8.67-2.55,13.26-2.57,32.21,0,64.4-.27,96.61,0,18.24.13,34.4-4,46.39-18.89a352.2,352.2,0,0,0,33-52.66c2.6-5,5.93-6.68,11.47-6.61,18.14.22,21.92-3.2,22.1-21q.54-55.55.24-111.09C1723.27,595.6,1717.87,590.62,1702.48,590.5ZM228.89,784.59c8.17.68,41.61,38.95,42,49.14C257.2,817.67,243.45,801.59,228.89,784.59ZM281.26,825c-2.11,1.37-3.65.08-5-1.6q-17-20.73-34.11-41.37c-1.54-1.85-2.83-3.8-.12-5.72s3.94-.07,5.38,1.94c5.77,8.06,11.4,16.25,17.57,24,4.94,6.23,10.6,11.85,18.39,14.71,1.42.51,2.62,1.61,4.5,2.81C285.16,821.88,283.33,823.61,281.26,825Zm20-17.4c-10.7-.93-19.12-5-25.22-12.64-6.35-8-12-16.59-17.93-24.93-1.93-2.73-1.9-4.58,1.22-7q28-21.71,55.6-44c4-3.2,6.64-3.52,11-.22,13.8,10.55,27.91,20.67,42.18,30.59,4,2.75,4.42,4.38.56,7.36q-31.08,24.07-62,48.27C304.74,806.45,302.75,807.53,301.22,807.57Zm-.87-253c-.85-35.33-2.16-70.77.45-106,2.63-35.69,23.08-61.05,54.78-77.05,55.19-27.87,113-49.16,172.2-66.71,67-19.87,135.15-35.26,204-47.45,10-1.78,20.43-2,30.67-2l347.71-.33a558.09,558.09,0,0,1,138.06,13.6c73.46,16.54,146.48,34.37,217.29,60.24a907.54,907.54,0,0,1,99.42,42.75c29.18,14.81,47.61,38.06,54.28,70.31a24.2,24.2,0,0,1,.67,4.19c1.65,36.17,1,72.35.55,108.52q1.26,41-.05,82c1.15,11.37,1.27,22.88-.91,34-3.39,17.43-12.93,31.2-27.5,41.71q-80.37,57.95-160.42,116.33c-7.71,5.61-15.93,7.69-25.38,8.27-28.32,1.73-55.5-1.61-81.39-13.91-7.67-3.64-15.94-6-24-8.85-10.09-3.55-19.08-8.75-26.22-16.89-6.59-7.51-14.83-11.78-24.63-14.26-27.51-7-54.86-14.69-82.26-22.12-4.93-1.24-9.93-2.23-14.76-3.77-9.2-2.93-17.74-3.86-24.44,5.14-1.35,1.81-3.66,2.5-6.06,2.6-21.61.92-43-.17-63.79-6.75-18.89-2.55-37.81-4.79-56.61-7.84,0,0-25.47-2.59-40.55-2.59s-21.15,1.06-28.17,1.66c-29.28,2.44-58,7.45-86.93,12-16.26,5.48-33.08,3.22-49.71,3.41-2.67,0-4.77-1.73-6.32-3.83-4.76-6.49-10.72-7-18-4.82-10.8,3.27-21.83,5.74-32.77,8.55q-35.09,9.48-70.16,18.94c-3.78,1-7.52,2.24-11.27,3.37-2.7,2.06-5.77,3.77-8,6.22-24.66,26.56-59.79,30.24-91.2,42.06a192.1,192.1,0,0,1-55.84.2c-11.25-1.57-19.06-10.92-28-17.31-28.25-20.16-56.17-40.78-84.4-60.91-5.38-3.84-5.19-5.24.17-9.23,22.12-16.43,43.77-33.5,65.6-50.33,4.91-4,3.84-8,.55-12.45C448.39,673.74,423.22,639,423.22,639c-4.11-7.94-9.11-8.75-15.29-2.14l-83.36,66c-3.33,2.67-5.06,2.18-7.61-.72-9.45-10.75-15.92-22.88-16.66-37.35-.48-9.33,0-18.71.1-28.08C299.72,609.32,299.53,582,300.35,554.57Zm48.39,144.21c-1.47-1.9-3.63-3.87-1-5.64l62.77-49.83c2.94-2.35,4.93-4.14,8,.36,9.73,14.33,19.73,28.5,30.09,42.37,3.25,4.36,2.57,6.42-1.42,9.48q-29.82,22.82-59.27,46.12c-3.68,2.91-5.2,2.35-7.86-1.34C369.86,726.28,359.29,712.53,348.74,698.78Zm23.77,43c-.41.45-.82.89-1.25,1.32q-20.6-14.82-41.21-29.63c-3.34-2.41-3.57-4.12.18-6.86,10.3-7.56,10.07-7.67,17.8,2.75C356.09,720.28,364.35,731,372.51,741.81ZM1710,722c0,5-.72,8.17-7,7.55-13.29-1.35-22.21,4.45-27.35,16.92-2.24,5.41-6,10.19-9.11,15.24A158.42,158.42,0,0,1,1642,797.46c-5.89,6.58-13.51,9.22-22.18,9.27-30.79.14-61.61,1-92.38.19-19.37-.5-36.24,4.12-52,15.39-11.78,8.43-25,14.76-37.08,22.86-11.16,7.52-23.2,9-36.26,10-42.58,3.56-79-12.3-114.29-33.1a10.34,10.34,0,0,1-1.78-1.78c-28.16-25.19-64.85-28.19-98.91-38-11.75-3.36-23.76-5.86-35.47-9.32-8.37-2.46-15.31-.89-20.74,5.74-3.63,4.42-8,5.43-13.46,5.8-25.19,1.75-49-6.21-73.43-9.91-24.79-3.73-49.54-7.52-74.66-8l-17.43-.08c-40.07.7-79.25,8.12-118.33,16.2-11.27,2.33-22.67,1.93-34.08,1.8a11.29,11.29,0,0,1-9.5-4.73c-5.72-7.62-12.81-8.85-21.92-6.4-32.14,8.64-64.42,16.76-96.7,24.95A53.14,53.14,0,0,0,651,808.75a227.15,227.15,0,0,1-89.77,44c-20,4.79-40.79,3.46-61.27,1.28-4.62-.49-8.44-3.34-12.31-5.68-17.28-10.5-34.68-20.84-51.73-31.68a60.82,60.82,0,0,0-34.75-9.78c-26.23.45-52.47.62-78.7.89-1.61,0-3.22,0-4.83,0-.26-.65-.52-1.28-.77-1.93,17.24-13.48,34.45-27,51.75-40.44,10.29-8,10.27-7.72,21,.07q40,29.24,80.23,58.28c4.95,3.58,9.88,7.19,14.85,10.75,9.07,6.49,19.26,8.31,30.34,9.57,36.39,4.18,68.74-8.7,101.48-21.16,14.11-5.4,26.9-12.14,37-23.55,4.1-4.64,9.37-7.24,15.28-8.8,35.39-9.42,70.79-18.8,106.13-28.41,4.66-1.25,7.83.22,10.42,3.63,3.64,4.8,8.54,5.72,14.24,6.17,28,2.1,54.84-4.87,82-9.58A564.34,564.34,0,0,1,951.16,755l18.75,0c35.37,1.32,70.23,6.44,104.69,14.26,16.67,3.79,33.44,2.11,50.17,2.49,4.28.08,7.36-2.64,10-5.83,3-3.63,6.32-4.57,11.29-3.22,34.78,9.47,69.67,18.57,104.54,27.78a33.92,33.92,0,0,1,18.67,12.17c4.41,5.55,11.21,9.22,17,13.7,25.51,9.35,50.44,21.19,77,26.44,16.73,3.31,34.66.91,52,.38,6.54-.2,12.52-3.51,17.93-7.43,55.6-40.23,111.43-80.18,166.76-120.78,20-14.69,28-35.94,28-60.41,0-6,.29-11.94.43-17.92-.36-37.67-2.69-75.34-.6-113,0-19.37,0-38.75.13-58.14.23-47.86-21.33-81.85-64.43-102.73-60.32-29.18-123-52-187.45-69.93-61.15-17.06-123-30.91-185.49-42.2a169.92,169.92,0,0,0-30.67-2.34q-94.14.08-188.28,0l-21.39,0c-46.18,0-92.39-.26-138.59.15-27.6.24-55.33-2.27-82.81,2.43-46.82,8-93.12,18.41-139.17,30-81.55,20.47-161.21,46.31-236.63,84-31.76,15.9-52.22,40.66-58.75,76.07-1.71,9.3-1.45,18.73-1.45,28.14,0,40.46.05,80.94.05,121.43,0,2.82-.38,5.65-.57,8.47a19.22,19.22,0,0,1,0,10.45,6.12,6.12,0,0,1,0,5,79.66,79.66,0,0,1,0,22.4c.18,4.51.69,9.05.45,13.53-.93,17.09,2.6,33.09,11.23,47.9,10.72,12.28,10.69,12.23-1.74,22-14.94,11.78-29.87,23.58-44.65,35.55-3.92,3.18-6.52,4.12-8.63-1.65-1.06-2.87-3.34-5.3-4.48-8.18-5-12.49-14.1-18-27.39-16.49-5.25.61-7.15-1.24-6.76-6.53.53-7.05.53-14.14.75-21.21-.66-21.87-.82-43.76.05-65.62-.15-8.52-.06-17-.53-25.52-.3-5.45,2-6.71,7-6.63,17.08.24,34.15-.07,51.22.11,6.9.06,12.83-1.7,17.57-6.82,3.48-12.6,1.42-25.5,1.8-38.26.28-9.11.1-18.25-.19-27.36-.34-10.82-5.68-16.13-16.64-16.27-18-.22-36-.31-53.89.05-5.81.11-7.31-1.93-7.23-7.33q.49-31.2.43-62.43c0-18.6,8.82-31,25.52-38.77C291,381.53,346.09,357.09,402,334.51,461.1,310.67,520.57,288,582.34,271.8,645.7,255.22,710,243.27,774.85,234.35c29.06-4,58.19-7.3,87.37-10.33,5.89-.6,10.7.51,14.76,4.69,9.2,9.46,20.28,12.28,33.32,11.25l106.36,0c8.81.28,16.39-1.81,22.57-8,7-7.06,15-8.65,24.83-7.64a2126,2126,0,0,1,219.21,34.28c84.72,17.91,165.53,47.52,245.36,80.26,52.13,21.39,103.6,44.17,154.74,67.8,17.77,8.22,26.66,21.39,26.57,40.88-.06,20-.12,39.91.11,59.88.08,6.22-2,8.25-8.46,8.06-16.82-.49-33.67,0-50.49-.25-7.43-.09-13.39,2.12-17.5,8.53-1.42,20.48-1.16,41-.68,61.51.36,14.86,4.33,18.71,19,18.76,17.11.07,34.21.23,51.32,0,5.24-.09,6.85,1.61,6.82,6.83Q1709.77,666.4,1710,722Z"/><path class="cls-2" d="M1619.44,670.68c-3.39,17.43-12.93,31.2-27.5,41.71q-80.37,57.95-160.42,116.33c-7.71,5.61-15.93,7.69-25.38,8.27-28.32,1.73-55.5-1.61-81.39-13.91-7.67-3.64-15.94-6-24-8.85-10.09-3.55-19.08-8.75-26.22-16.89-6.59-7.51-14.83-11.78-24.63-14.26-27.51-7-54.86-14.69-82.26-22.12-4.93-1.24-9.93-2.23-14.76-3.77-9.2-2.93-17.74-3.86-24.44,5.14-1.35,1.81-3.66,2.5-6.06,2.6-21.61.92-43-.17-63.79-6.75-18.89-2.55-37.81-4.79-56.61-7.84,0,0-25.47-2.59-40.55-2.59s-21.15,1.06-28.17,1.66c-29.28,2.44-58,7.45-86.93,12-16.26,5.48-33.08,3.22-49.71,3.41-2.67,0-4.77-1.73-6.32-3.83-4.76-6.49-10.72-7-18-4.82-10.8,3.27-21.83,5.74-32.77,8.55q-35.09,9.48-70.16,18.94c-3.78,1-7.52,2.24-11.27,3.37-2.7,2.06-5.77,3.77-8,6.22-24.66,26.56-59.79,30.24-91.2,42.06a192.1,192.1,0,0,1-55.84.2c-11.25-1.57-19.06-10.92-28-17.31-28.25-20.16-56.17-40.78-84.4-60.91-5.38-3.84-5.19-5.24.17-9.23,22.12-16.43,43.77-33.5,65.6-50.33,4.91-4,3.84-8,.55-12.45C448.39,673.74,423.22,639,423.22,639c-4.11-7.94-9.11-8.75-15.29-2.14l-83.36,66c-3.33,2.67-5.06,2.18-7.61-.72-9.45-10.75-15.92-22.88-16.66-37.35-.48-9.33,0-18.71.1-28.08-.68-27.38-.87-54.75,0-82.13-.85-35.33-2.16-70.77.45-106,2.63-35.69,23.08-61.05,54.78-77.05,55.19-27.87,113-49.16,172.2-66.71,67-19.87,135.15-35.26,204-47.45,10-1.78,20.43-2,30.67-2l347.71-.33a558.09,558.09,0,0,1,138.06,13.6c73.46,16.54,146.48,34.37,217.29,60.24a907.54,907.54,0,0,1,99.42,42.75c29.18,14.81,47.61,38.06,54.28,70.31a24.2,24.2,0,0,1,.67,4.19c1.65,36.17,1,72.35.55,108.52q1.26,41-.05,82C1621.5,648,1621.62,659.53,1619.44,670.68Z"/><rect class="cls-2" x="1919" y="1079" width="1" height="1"/><rect class="cls-2" width="1" height="1"/><rect class="cls-2" y="1079" width="1" height="1"/><rect class="cls-2" x="1919" width="1" height="1"/></g><g id="Capa_3" data-name="Capa 3"><path d="M861.82,457v111H842V497.31l-19.51,14.91L806.3,524.75l-16.18-12.53-19.51-14.91v70.75H750.79V457l19.82,15.22,35.69,27.44L842,472.25Z"/><path d="M915.74,494v75.5H895.91V491.92a15.8,15.8,0,0,0-13.48-13.48H878V458.77h4.28v.16a35.42,35.42,0,0,1,29.5,19.82,40.82,40.82,0,0,1,2.7,7.46,33,33,0,0,1,.95,8.09Z"/><path d="M1039.78,477a34.5,34.5,0,0,1,2.53,12.85v45.52a32.66,32.66,0,0,1-10.47,24.11,33.94,33.94,0,0,1-7.29,5.23,31.42,31.42,0,0,1-14.91,3.65h-69V548.55h69a13.06,13.06,0,0,0,13-13V520a32.59,32.59,0,0,1-12.37,2.53H963.48A32.75,32.75,0,0,1,964,457h45.52a32.58,32.58,0,0,1,30.14,20Zm-88.67,12.85a13.06,13.06,0,0,0,12.37,13h46.79a13,13,0,0,0-.63-26H964.12A13.07,13.07,0,0,0,951.11,489.86Z"/><path d="M1169,490.65a32.67,32.67,0,0,1-9.2,22.84A32.76,32.76,0,0,1,1136.37,569h-78.2V549.18h78.2a13.07,13.07,0,0,0,13-13,12.91,12.91,0,0,0-12.21-13h-59V503.34h59a13,13,0,0,0-.64-26h-78.19V457.5h78.19a32.63,32.63,0,0,1,32.68,32.68Z"/><path d="M402.32,715.87A25.63,25.63,0,1,1,428,690.24,25.66,25.66,0,0,1,402.32,715.87Zm0-44.26A18.63,18.63,0,1,0,421,690.24,18.65,18.65,0,0,0,402.32,671.61Z"/><path d="M1517.68,715.87a25.63,25.63,0,1,1,25.63-25.63A25.66,25.66,0,0,1,1517.68,715.87Zm0-44.26a18.63,18.63,0,1,0,18.63,18.63A18.65,18.65,0,0,0,1517.68,671.61Z"/></g></g></svg>