<svg xmlns="http://www.w3.org/2000/svg" viewBox="0 0 1920 1080"><defs><style>.cls-1{fill:#010001;}.cls-2{fill:#f2f2f2;}</style></defs><g id="Capa_2" data-name="Capa 2"><g id="Capa_1-2" data-name="Capa 1"><path class="cls-1" d="M985.08,759.61a42.51,42.51,0,0,0-.53-5.42c-.41-2.38-.67-5.24-4.12-4.78-3.15.43-1.93,3.26-2.12,5.12a26.35,26.35,0,0,0,0,7.26c1.59,8.92-2,11.56-10.77,10.93l-17.71,0c-6.18-.09-8-1.91-7.2-8a35.16,35.16,0,0,0-1.22-15.32c-2.78-.22-5.69-.7-5.31,3.73.17,2.1.08,4.24.09,6.37,0,6-2.13,13.45.62,17.71s10.68,1.41,16.31,1.41l14.22-.1C985.84,778.52,985.85,778.27,985.08,759.61Zm0,0a42.51,42.51,0,0,0-.53-5.42c-.41-2.38-.67-5.24-4.12-4.78-3.15.43-1.93,3.26-2.12,5.12a26.35,26.35,0,0,0,0,7.26c1.59,8.92-2,11.56-10.77,10.93l-17.71,0c-6.18-.09-8-1.91-7.2-8a35.16,35.16,0,0,0-1.22-15.32c-2.78-.22-5.69-.7-5.31,3.73.17,2.1.08,4.24.09,6.37,0,6-2.13,13.45.62,17.71s10.68,1.41,16.31,1.41l14.22-.1C985.84,778.52,985.85,778.27,985.08,759.61Zm725.94-178c-.29-8.25-6.26-8.55-12.22-8.56-24.6-.05-49.2-.25-73.8.19-6.64.11-8-1.94-7.86-8.17q.63-43.73.23-87.45c-.07-6.25,1.8-7.45,7.63-7.36,24.59.34,49.19.24,73.79.15,10.86,0,12-1.19,11.91-12.19,0,0-.55-44.62-.55-54.06s-10.23-16.13-10.23-16.13c-47.78-26.15-99.15-43.42-150.83-59.63-81.94-25.68-165.69-43.75-250.34-57.73-41.28-6.82-82.79-12.16-124.38-16.75-28.38-3.27-104.55-8.77-104.55-8.77-11,0-21.76-1.16-30,8.91-2.66,3.23-8.42,4.59-8.84-2.72-.38-6.76-4.27-6.73-9.22-6.69H896.25c-4.13,0-7.56-.28-8,5.71-.56,7.77-6,7.65-9.85,3.17-7.82-9.14-17.5-9.41-28.14-8.7-77.54,5.14-154.71,13.61-231.41,26.22-70.63,11.6-140.56,26.44-209.43,46-65.37,18.58-129.95,39.25-190.34,71.12-10.88,5.6-10.14,16-10.14,16v55.14c0,8.31,2.7,11.34,11,11.23,24-.34,48,.17,72-.29,7.59-.15,10.46,1.13,10.26,9.73-.67,27.91-.57,55.86,0,83.79.14,7.7-1.9,9.6-9.46,9.46-24.28-.48-48.58-.15-72.88-.1-6.28,0-10.95,1-10.88,9.44.32,39.47,0,78.95.17,118.42,0,11.17,11.94,23.47,23,23.87,12,.42,24.29,1.74,33.95-8.56,3.84-4.11,8.66-2.28,11.78,1.84,3.64,4.8-1.47,6.17-4,8.13q-11.22,8.55-22.72,16.71c-5.13,3.63-6.37,7.18-2.28,12.78q23,31.59,45.42,63.65c3.13,4.46,5.92,5.37,10.29,1.81,5.64-4.59,11.79-8.55,17.31-13.28,5.34-4.58,8.38-3.81,11.25,2.61,6.83,15.28,19.21,21.87,35.67,21.85,11.21,0,22.44.39,33.67.6,15.14-.1,30.31-.53,45.46-.21,10.15.2,19.09-1.13,26.12-9.6,3.14-3.79,8.21-8,8.68,2.28.18,3.88,3.42,3.72,6.12,3.72,32.78,0,65.56-.06,98.34,0,3.44,0,6.09-.81,6.35-4.76.47-7.07,4.14-5,6.6-1.81,8.77,11.54,20.69,11.95,33.91,12.61,31.14,1.57,60.67-7.2,90.79-12A1576,1576,0,0,1,888.42,806a1383.45,1383.45,0,0,1,142.85,0l51.63,3.51c25.95,2.2,51.94,4.25,77.58,9.13,26.89,2.31,53.35,7.51,79.66,13.17,13.54,2.91,27.09,2.58,40.66,3.39a41.88,41.88,0,0,1,6.31-.31c12.36,1.2,23.53-.5,31.11-11.83a9.1,9.1,0,0,1,2.09-1.72c2.55-2.05,5.14-1.58,5.21,1.58.13,7.08,4.79,6.34,9.33,6.36q31.26.13,62.53.3c8.46-.13,16.94-.54,25.4-.28,7.75.24,15.23.8,15-11.37,3.68,2.47,6.84,3.6,8.46,5.85,5.92,8.22,14.13,9.2,23.31,9.07,16.63-.26,33.27.08,49.91.17,0,0,24.66.35,36.3.35a34.71,34.71,0,0,0,19.47-6c24-35.53,43.63-72.59,65.73-108.19,4-6.46,8.58-6.57,13.19-2,10.84,10.71,24.17,8.27,36.91,7.15,9.44-.82,19.17-14.67,20-26.07Q1711,640,1711,581.63ZM1052.88,262.14c.28-3.09,4.14-2.86,6.87-2.93,1.65,0,3.29,0,3.69,0,65.69,3.89,128.38,10.57,190.87,19.48,93,13.28,184.91,32.05,275,58.82,36.86,10.95,73.37,23,108.9,37.83,1.9.79,4.92.75,4.78,3.3-.17,3.17-3.5,2.76-5.75,3.26-5,1.1-9.52-.5-14.06-2.41-70.86-29.85-145-48.85-219.74-65.63-51.15-11.48-102.74-20.65-154.57-28.35C1198.56,278,1148,272,1097.19,268.2c-12.7-.95-25.41-1.93-38.09-3.13C1056.81,264.84,1052.48,266.37,1052.88,262.14ZM278,376.69A91.78,91.78,0,0,1,288.81,372C365.61,341.8,445,320.3,525.55,303.11c65.8-14.05,132.18-24.64,199-32.47,42.45-5,85-9.15,127.73-11.13,5.21-.25,10.74-1.24,17.16,4.66-23,2-43.76,3.94-64.51,5.63-59.22,4.84-118.07,12.72-176.66,22.44-63,10.46-125.49,23.54-187.3,39.69-49.22,12.87-97.72,27.91-144.73,47.52-5.63,2.35-11.38,4.27-17.61,2.08C275,380.25,275.08,378.31,278,376.69Zm55.84,407.59c-4-6.79-7.68-13.75-11.89-20.39-2-3.21-3.48-8.49-9.5-4.89-5.68,3.39-6.32,7.5-2.87,12.85,4.09,6.38,7.73,13,12,19.25,2.94,4.24,2.2,6.8-1.9,9.58-6.27,4.24-12.19,12.44-18.32,12.5-6.69.06-9.16-10.61-13.56-16.51-10.3-13.87-20-28.18-30.38-42-3-4-2.69-5.71,1.38-8.34,6.87-4.42,13.4-9.39,19.93-14.32,4.1-3.11,6.81-4.11,9.33,2,2.26,5.54,6.1,10.43,9.24,15.6,2.06,3.39,4.4,5.88,8.71,3.11,3.74-2.39,5.89-5.44,3.57-9.8-3.41-6.4-6.67-13-10.83-18.86-5.12-7.29,2.3-7.73,5.1-10.65,3.76-3.9,5.9-1.51,8.44,1.92q19.79,26.63,40,52.93c2.49,3.26,4.26,5.88-.1,9-2.88,2.06-4.37,3.28-6.45-1.36-4.56-10.18-10-20-15.26-29.86-.94-1.79-2-4.25-4.54-3.78-2.89.54-1.94,3.24-2.12,5.67,3.41,11.31,7.76,22.51,17.21,30.93,1.22,1.08,4.09,1.74,2.62,3.89A13.71,13.71,0,0,1,338,787C335.84,787.88,334.73,785.79,333.83,784.28Zm-11.35-76.15c-.57,1.77.92,5.22-2.2,4.67a6.7,6.7,0,0,1-5.07-6.47c-.06-2.34,2.33-3.72,4.22-3.86C324.15,702.12,321.56,706.16,322.48,708.13Zm6.9-11.85c-.11-2,1.9-2.95,3.36-4l45.83-32.76c8.59-6.52,17.22-13,25.76-19.6,2.84-2.2,4.76-1.54,6.64,1.25,10.88,16.22,23.91,30.9,34.06,47.65,10.52,12.51,10.45,12.42-2.84,22.1-24.27,17.69-48.57,35.34-72.6,53.36-5.31,4-8.2,5.12-12.44-1.52a193.65,193.65,0,0,0-20.88-27.52C325.26,723.41,330.16,709.5,329.38,696.28Zm158.08,69.55c-2.61-5.62-.73-10.68-1.26-15.46-.31-2.81-.44-6.16-4-5.82-2.94.27-2.66,3.58-2.65,5.94.1,13.28-1.69,26.66,2.53,39.74,1.39,4.32,1.62,8.77-5.34,8.2-1.44-.12-3.4-.2-3.88,1.55-4.32,15.57-16.11,17.59-29.88,17.47-24-.2-48-.31-71.92.83-15.78.75-22.61-9-29.2-20.34-2.53-4.34,1.22-5.24,3.39-6.84q36.63-26.93,73.37-53.73c13.22-9.65,26.56-19.14,39.75-28.83,3.26-2.4,7.79-4.49,4.91-10-14.4-19.29-28.91-38.49-43.18-57.88-10.12-13.75-10-13.85-24.1-3.82-2.68,1.9-5.48,3.65-8.22,5.46-20.73,15.19-40.67,31.36-62.53,45.11-9.18,5.76-17.69,13.54-26.19,20.76-4.17,3.54-7,5.28-11.58-.54-7.67-9.78-18.67-10.25-30.06-2.84-4,2.61-7.44,5.85-12.87,6-17,.65-21.27-3-21.34-19.91-.12-32.46,0-64.94-.34-97.4-.07-5.91,2.4-6.22,7-6.18q34.14.25,68.29,0c13.49-.1,17.53-3.57,17.66-17.26.33-32.76.18-65.53-.26-98.29-.17-12.37-4.19-15.69-17-15.76-22.46-.14-44.92-.25-67.38.12-6.11.1-8.47-1.06-8.2-7.8.52-13,.21-26.09-.24-39.12-.16-5,1.58-7.78,5.75-10.18,10.54-6.07,21.69-10.78,32.79-15.64,2.71-1.18,5.64-2.41,8.45.29,8.53,8.16,18.18,7,27.9,2.85,38.74-16.42,78.66-29.48,119.15-40.71,51.56-14.3,103.52-26.94,156.3-36a207.26,207.26,0,0,1,37.13-6.74L637.34,298q11.94-1.92,23.89-3.81l34.5-4.46A56.49,56.49,0,0,1,712.35,287c55.56-7.24,111.27-12.9,167.27-15.26,2.8-.12,8-3.27,8,3.43,0,5-2.28,7.88-7.86,7.52a122.91,122.91,0,0,0-12.73.11c-2.22.09-5.37-.83-5.48,2.92-.12,4.12,3.31,3.68,5.87,3.88,3,.22,5.93.05,9.84.05-3.49,6.07-8.81,5.11-13,5.46-33.54,2.76-67.16,4.68-100.67,7.82-44.94,4.2-89.86,9.06-134.43,16.28-17.45,2.83-27.48,15.36-28.16,32.84-.33,8.18,0,16.39-.44,24.57-.7,13.79-6.11,19.14-20,19.2-44.3.19-88.61.15-132.92.21-11.77,0-23,1.84-32.07,10.29-8.38,7.79-13.19,17.24-13.21,28.85,0,21.25.12,42.48-.17,63.72-.07,5.64,2.53,8.88,6.66,12,22.3,16.76,44.32,33.89,66.84,50.35,5.39,3.94,8.43,6.9,4.09,13.26-.91,1.34-.58,3.53-.82,5.33.12,8.75.16,17.52.41,26.28.08,2.57-.29,6.18,3.53,6.23,4.06.06,3.3-3.65,3.32-6.15.12-11.78.05-23.55.05-35.55,0,0,.82-.56,1.05-.37,15.52,12,31.79,23.17,46.27,36.33,17.48,15.88,20.86,39.6,10.18,60.57-5.46,10.73-12,20.9-18.07,31.32ZM1320,798.66c-9.09-.31-18.19-.29-27.28-.13-2.35.05-6.29-1.79-6.67,2.3-.41,4.48,4,4,6.66,4.12a134.58,134.58,0,0,0,16.31-.25c2.36-.14,4.63-.75,7.62,1-9.13,8.24-16.7,14.9-30.41,15.17-30.8.61-59.92-8.09-89.85-12.15-12-1.62-23.89-3.67-35.84-5.52-52.24-6.14-104.53-11.8-157.2-12.64l-50.84-.83c-20.34.49-40.69.62-61,1.64q-72.28,3.66-144,13.53c-25.86,3.61-51.41,8.69-77,13.45-15.66,2.9-31.5,1.88-47.26,1.65-8.6-.12-11.83-9-18.51-12.56l.63-2.23c7.08,0,14.17.25,21.23-.13,2.61-.14,7.12.35,6.55-4.2-.46-3.71-4.27-2.47-6.82-2.49-8.81-.07-17.62-.21-26.41.15-5.17.21-7-1.38-6.56-6.74.92-11.83,6.68-19.55,18.79-22.63C657,757.77,702.2,748,747.86,740.14c32-5.49,64.26-8.73,96.49-12.21,18.23-2,28.73-12.81,34-29.64.07-9.09-.12-18.2.28-27.26.59-13.11,5.73-18,18.67-18.22,10.62-.16,21.26.32,31.85-.2,5.79-.28,7.57,1.59,7.05,7.14-.4,4.21,0,8.48.06,12.73,0,1.53.26,3.1,2.17,3.44,2.32.42,3.39-1,3.63-3,.45-3.9.76-7.84,1-11.76s-1.92-9.1,5.51-8.47l25.48.14c7.13-.53,3.13,5.56,3.92,8.69.51,2-.14,4.27.22,6.33.49,2.87-2,7.79,3.15,7.83,3.64,0,2.94-4.55,3.72-7.32,1.4-5.07-3-12.12,2.31-15.06,4-2.21,10.08-.54,15.23-.55,6.37,0,12.74,0,19.11.06,13.22.19,18.66,5.48,19.13,18.78.16,4.85.06,9.71-.07,14.55-.46,15.6,4.89,28.35,18,37.39,12.36,5.67,25.78,5.83,38.91,7,21,1.86,41.93,4.48,62.71,8.17,50,7.41,99.15,18.7,148.12,30.87,11.44,2.84,17.13,11.26,17.54,22.57C1326.28,796.69,1325,798.84,1320,798.66Zm109.32,22.7h-95.24c-2.1-6.89-1.37-20.62-1.37-20.62.21-3,.51-6.06.48-9.08-.13-14.25-7.92-24.74-21.81-28.84-10.13-3-20.41-5.48-30.63-8.18-34.16-7.09-68.13-15.09-102.57-20.76-5.94-1-11.84-2.16-17.75-3.23-28.51-3.37-57-6.46-85.51-10.19-15.73-2.07-24.64-12-26.11-27.72-.56-6-.34-12.09-.51-18.13-.62-21-7.24-28-28.1-29.67l-124.7.56c-15.17.48-23.77,9.54-24.48,24.66-.52,11,2.4,22.4-3.26,32.91-3.9,10.36-11.53,16.14-22.39,17.21-49.44,4.86-98.61,11.46-147.25,21.65-28.69,6-57.37,12.1-85.68,19.78-20.21,5.49-25.36,12.23-26.2,33.34l-2,26.3H490.56c-.4-14,.56-40.15.56-40.15,2-12.43,8.76-22.43,14.85-32.82,10.21-17.43,20.6-34.76,30.9-52.14,5.45-10.1,11.88-19.81,16.15-30.39,9.79-24.2,2.53-50.93-17.46-68.45L414.65,506.06c-4-2.86-5.29-6-5.24-10.67.2-19.74-.05-39.48.26-59.21.29-17.63,12.8-31.26,30.39-32.59l138.72-.48c21.16-.08,29.56-8.81,29.4-30.16-.06-7.28-.19-14.59.15-21.86.57-12.7,8.79-22.41,21.39-24.58,32.87-5.65,66.06-9,99.19-12.68,45.23-5.07,90.55-9,136-11.17a28.69,28.69,0,0,0,16.13-5.53,36.66,36.66,0,0,0,13.68-20.44l1.31-22.14c-.51-3.57,2.68-3.1,5.13-3l115.88.08c2.25,0,6.37-1.9,6,2.68l1.64,24.38c1.13,7.3,7.88,14.06,7.88,14.06,7.37,7.89,16.89,9.83,27.19,10.32,57.54,2.73,114.82,8.45,172,15.71,16.81,2.14,33.67,4.1,50.5,6.12,19.72,2.38,29,12.66,29.21,32.5.08,6.68-.06,13.36.14,20,.5,17.08,9.08,25.64,26.09,25.71l135.7.13c22.39.19,36.4,13.62,36.88,36,.39,18.8,0,37.62.12,56.43,0,3.24-.61,5.88-3.33,7.95l-119.25,90.59c-27.08,21.53-33.14,52.34-16.07,82.66,15.14,26.87,30.89,53.42,46.71,79.9,6,10.09,10.18,20.69,11.21,32.3C1430.4,798,1429.35,821.36,1429.35,821.36ZM1696.2,691.85c0,6.76.75,14.35-6.83,17.27-8,3-17,4.17-24.13-2-9.87-8.54-19.75-9.53-30.64-2.68-2.63,3.45-5.81,6.32-8.08,10.22-17.59,30.1-35.73,59.87-53.24,90-5.14,8.83-11.79,13.1-22,13-27.92-.16-55.84.18-83.77.07-8,0-18.28-8.43-21.25-16.69-.6-1.67-1.54-2.75-3.15-2.65-9.32.61-7-5.4-5.49-10.17,4.17-13.13,1.21-26.5,1.87-39.72.11-2.09-1-3.82-2.93-3.94-2.17-.13-3,1.78-3,3.78,0,5,0,10,0,15-4.06,0-4.4-2.48-5.37-4.14-16.55-28.59-33.18-57.13-49.51-85.84-16.61-29.2-9.61-57.71,18.45-76.56,11.84-9.22,23.68-18.43,35.7-27.77,0,12.12-.14,23,.09,33.77.07,3.38-1.18,8.83,3.21,9.29,5.71.6,1.93-5.69,3.89-8.24,0-.83.09-1.64.14-2.46a24.08,24.08,0,0,1,.16-10.45c-3-6.86,3.54-15.34-4.22-21.76-1.91-1.59,2.39-4.13,4.41-5.66,22-16.68,43.86-33.53,66.16-49.79,7.78-5.65,11.74-11.64,11.19-21.8-.94-17.26-.17-34.6-.32-51.92-.24-27.33-16.26-43.74-43.64-43.93-44.34-.31-88.68-.09-133-.21-17.37,0-21.9-4.79-22-22.3,0-6.68.09-13.36-.1-20-.52-18.54-10.5-31.5-28.79-34.37-27.54-4.34-55.27-7.64-83-10.82-50.64-5.81-101.39-10.62-152.33-13-4.25-.2-9-.38-12.89-4.4,4.39-2.78,8.82-.69,12.7-1.92,1.75-.55,3.71-.88,3.63-3.28s-1.85-2.88-3.8-2.9c-4.85-.07-9.72-.17-14.57-.05-3.73.1-6.07-.92-7.56-4.84-2.29-6,.17-6.35,5.26-6.32,23.09.14,46,2.59,69,4.47,29,2.35,57.89,5.93,86.84,9q18.24,2.65,36.51,5.31c15.42,2.26,30.86,4.43,46.27,6.77,50.79,7.66,101.09,17.9,151.1,29.54,56.51,13.15,112.42,28.42,166.74,49q14.85,5.63,29.48,11.79c9.26,3.9,17.74,2.83,25.55-3.3,2.53-2,4.54-3.28,8-1.47,11,5.69,22.65,10.07,33.57,16.06,4.56,2.5,5.77,5.4,5.72,10-.16,13.35-.32,26.7.09,40.05.17,5.64-1.57,7.29-7.15,7.22-22.46-.27-44.91-.19-67.38-.07-14.19.06-18.57,4.44-18.61,18.34-.09,31.26-.06,62.51-.19,93.76,0,5.89.45,11.51,4.46,16.22,4.48,3.19,9.66,3.19,14.81,3.18,21.83,0,43.67.22,65.49-.32,6.69-.17,8.71,1.19,8.63,8.24C1696,627.59,1696.15,659.72,1696.2,691.85ZM984.55,754.19c-.41-2.38-.67-5.24-4.12-4.78-3.15.43-1.93,3.26-2.12,5.12a26.35,26.35,0,0,0,0,7.26c1.59,8.92-2,11.56-10.77,10.93l-17.71,0c-6.18-.09-8-1.91-7.2-8a35.16,35.16,0,0,0-1.22-15.32c-2.78-.22-5.69-.7-5.31,3.73.17,2.1.08,4.24.09,6.37,0,6-2.13,13.45.62,17.71s10.68,1.41,16.31,1.41l14.22-.1c18.52-.08,18.53-.33,17.76-19A42.51,42.51,0,0,0,984.55,754.19Z"/><path class="cls-2" d="M1510.34,495.7c0,3.24-.61,5.88-3.33,7.95l-119.25,90.59c-27.08,21.53-33.14,52.34-16.07,82.66,15.14,26.87,30.89,53.42,46.71,79.9,6,10.09,10.18,20.69,11.21,32.3.79,8.88-.26,32.26-.26,32.26h-95.24c-2.1-6.89-1.37-20.62-1.37-20.62.21-3,.51-6.06.48-9.08-.13-14.25-7.92-24.74-21.81-28.84-10.13-3-20.41-5.48-30.63-8.18-34.16-7.09-68.13-15.09-102.57-20.76-5.94-1-11.84-2.16-17.75-3.23-28.51-3.37-57-6.46-85.51-10.19-15.73-2.07-24.64-12-26.11-27.72-.56-6-.34-12.09-.51-18.13-.62-21-7.24-28-28.1-29.67l-124.7.56c-15.17.48-23.77,9.54-24.48,24.66-.52,11,2.4,22.4-3.26,32.91-3.9,10.36-11.53,16.14-22.39,17.21-49.44,4.86-98.61,11.46-147.25,21.65-28.69,6-57.37,12.1-85.68,19.78-20.21,5.49-25.36,12.23-26.2,33.34l-2,26.3H490.56c-.4-14,.56-40.15.56-40.15,2-12.43,8.76-22.43,14.85-32.82,10.21-17.43,20.6-34.76,30.9-52.14,5.45-10.1,11.88-19.81,16.15-30.39,9.79-24.2,2.53-50.93-17.46-68.45L414.65,506.06c-4-2.86-5.29-6-5.24-10.67.2-19.74-.05-39.48.26-59.21.29-17.63,12.8-31.26,30.39-32.59l138.72-.48c21.16-.08,29.56-8.81,29.4-30.16-.06-7.28-.19-14.59.15-21.86.57-12.7,8.79-22.41,21.39-24.58,32.87-5.65,66.06-9,99.19-12.68,45.23-5.07,90.55-9,136-11.17a28.69,28.69,0,0,0,16.13-5.53,36.66,36.66,0,0,0,13.68-20.44l1.31-22.14c-.51-3.57,2.68-3.1,5.13-3l115.88.08c2.25,0,6.37-1.9,6,2.68l1.64,24.38c1.13,7.3,7.88,14.06,7.88,14.06,7.37,7.89,16.89,9.83,27.19,10.32,57.54,2.73,114.82,8.45,172,15.71,16.81,2.14,33.67,4.1,50.5,6.12,19.72,2.38,29,12.66,29.21,32.5.08,6.68-.06,13.36.14,20,.5,17.08,9.08,25.64,26.09,25.71l135.7.13c22.39.19,36.4,13.62,36.88,36C1510.61,458.07,1510.25,476.89,1510.34,495.7Z"/><path class="cls-1" d="M500.62,333.4c-.95,4.08-2.84,5.88-5.26,6-9.52.57-9.53,6.87-9.15,13.93.33,6.05.15,12.13,0,18.2-.07,2.44,1.07,6.17-3.28,6-3.86-.12-3.53-3.65-3.59-6.21-.16-6.67-.51-13.4.17-20,.74-7.1-2.15-7.75-7.77-5.88a79.24,79.24,0,0,1-9.62,2.44c-1.73.34-3.87.61-4.58-1.68s1-3.53,2.68-4.09C473.06,337.86,485.94,333.61,500.62,333.4Z"/><path class="cls-1" d="M352,385.31a3,3,0,0,1-1.91-1,3.74,3.74,0,0,1,.9-4.89,78.17,78.17,0,0,1,32.18-18c1.52-.41,3.87-1.06,4.52,1.41.79,3-1.49,4.49-3.69,5.49-7.71,3.51-15.47,6.85-22.38,11.91C359,382.14,357,385.22,352,385.31Z"/><path class="cls-1" d="M823.26,290.88c-5.13,0-10.25.07-15.37,0-2.22,0-4.38-.67-4.23-3.52.12-2.21,1.85-2.95,3.8-3q17.17-.81,34.34-1.54c1.86-.08,3.86.06,4.16,2.42.34,2.62-1.56,4-3.73,4.22-6.31.54-12.64.72-19,1.05Z"/><path class="cls-1" d="M339.62,394.36c2.16,6.42-.44,10-1.95,13.89-3.05,7.87-5.81,15.86-8.79,23.77-.74,1.94-1.59,4.2-4.35,3.72-2.41-.41-2.42-2.53-2.21-4.28C324,417.73,328.8,405.53,339.62,394.36Z"/><path class="cls-1" d="M444.09,348.7c-11.76,7.12-24.71,10.49-37.71,13.68a3,3,0,0,1-3.73-1.76c-.62-1.58-.3-3.42,1.11-4C416.67,351.46,429.85,347.47,444.09,348.7Z"/><path class="cls-1" d="M766,293.86c-4.52,0-9.06.15-13.58-.06-2.36-.12-6.2,1.57-6.29-2.76-.09-3.74,3.74-3.64,6.15-3.87,6-.58,12-.58,18.08-.79,4.22-.15,8.44-.33,12.67-.39,2.5,0,5.84-1.36,5.92,3.16.07,4.08-3.24,4-5.75,4.1-5.72.26-11.46.08-17.2.08Z"/><path class="cls-1" d="M522.21,334.12c-2.64-.24-5.31.91-5.64-2.36-.25-2.46,1.31-4,3.57-4.57q16.27-3.92,32.61-7.6c1.67-.37,3.85-.57,4.36,1.9a3.9,3.9,0,0,1-3,4.86C543.26,329.09,532.41,331.65,522.21,334.12Z"/><path class="cls-1" d="M322.6,588.51c0-5.75-.13-11.51.1-17.26.05-1.28,1.15-3.42,2.06-3.6,2-.37,3.29,1.39,3.54,3.31,1.55,12.06,1.11,24.16.36,36.24-.11,1.7-.91,3.77-3.35,3.44-2.16-.28-2.94-2.07-3-3.95-.09-6.06,0-12.12,0-18.18Z"/><path class="cls-1" d="M322.43,531.17c0-5.42,0-10.84,0-16.27,0-2.12.1-4.46,3.09-4.47s3.34,2.39,3.35,4.46c.09,11.14.09,22.28-.09,33.42,0,1.93-.3,4.63-3.2,4.64s-3-2.61-3-4.62c-.13-5.71-.05-11.44-.05-17.16Z"/><path class="cls-1" d="M322.3,646.55c0-5.44-.1-10.89.05-16.33.06-1.93-.31-4.64,2.85-4.66,2.81,0,3.46,2.43,3.51,4.47.23,11.19.3,22.37.29,33.56,0,2.13-.61,4.57-3.25,4.62s-3.45-2.15-3.48-4.42c-.08-5.74,0-11.49,0-17.24Z"/><path class="cls-1" d="M329,472.67c0,5.13.14,10.27-.06,15.4-.09,2.22.18,5.44-3.11,5.44-2.35,0-3.26-2.52-3.29-4.71q-.22-17.21-.21-34.42c0-1.78.4-3.79,2.95-3.55a3.61,3.61,0,0,1,3.28,3.74c.18,6,.07,12.06.07,18.1Z"/><path class="cls-1" d="M575.51,313.55l34.69-5.64c7.2,2.21,4.3,5.35-.06,6.4-11.43,2.74-23,5.8-34.67,6.28C569.22,320.84,573,316.05,575.51,313.55Z"/><path class="cls-1" d="M694,293.43c6.38.94,12.26-1.79,18.42-2.54,4.2-.2,8.4-.37,12.61-.61,2-.11,3.84.4,4.29,2.42a3.29,3.29,0,0,1-2.95,3.9c-11.61,1.61-23.24,3-34.87,4.46-1.56.19-3.09-.13-3.26-2.12C687.84,294.78,691,294.15,694,293.43Z"/><path class="cls-1" d="M635.65,302.58l25.58-3.82c1.79-.14,3.58-.4,5.37-.39s4.08,0,4.53,2c.6,2.62-1.78,3.72-3.81,4.12-10,2-20.08,3.91-30.19,5.44-3.07.46-7.7.2-8.25-3.27C628.24,302.58,633.23,303.84,635.65,302.58Z"/><path class="cls-1" d="M1419,333.82c13.73-.44,26,4.1,38.44,7.56,1.79.5,3.28,1.77,2.58,4-.56,1.78-2.13,1.92-3.72,1.74a12.53,12.53,0,0,0-1.78-.31c-5,.22-11-5.15-14.23-.68-2.45,3.43-.56,9.93-.64,15.07-.06,4.24-.11,8.49-.29,12.73-.08,1.83-.45,3.71-2.85,3.88-3.24.23-3.15-2.16-3.16-4.28-.07-7-.27-14,0-20.93.25-6.76,0-12.67-9-13.19C1422.24,339.28,1419.6,338.31,1419,333.82Z"/><path class="cls-1" d="M1581.26,396c.77.89,1.76,1.94,2.64,3.08,6.91,9.09,10.86,19.49,13.3,30.51.5,2.29,1.17,5.21-2.08,6.06-3,.78-4.4-1.51-5.1-4a216.21,216.21,0,0,0-11.62-30.41C1577.44,399.16,1576.68,396.34,1581.26,396Z"/><path class="cls-1" d="M1536.39,361.56c11.6,3.36,22.21,8.84,31,17.52,1.61,1.59,2.45,3.76,1.12,5.75-1.66,2.47-3.78,1.16-5.43-.21-8.23-6.78-17.56-11.67-27.22-16-2.36-1.06-4.21-2.65-3.39-5.57C1533,361.16,1534.68,361.37,1536.39,361.56Z"/><path class="cls-1" d="M1397.2,334.31c-10.61-2.61-21.13-5.21-31.66-7.77-2.39-.59-4.13-2.4-3.79-4.43.56-3.34,3.68-2.54,5.92-2.07q15.48,3.29,30.89,6.93c2.58.61,5.85,1.64,5,5.17C1402.69,335.46,1399.31,333.12,1397.2,334.31Z"/><path class="cls-1" d="M1597.66,532.26c0,5.77,0,11.54,0,17.31,0,2-.29,3.94-2.62,3.89-2.1,0-4.39-.78-4.39-3.59,0-12.44,0-24.88.2-37.32a3.42,3.42,0,0,1,3.74-3.25c2.17.13,2.94,1.86,3,3.84,0,6.37,0,12.75,0,19.12Z"/><path class="cls-1" d="M1479.51,347.23c11.6,1.56,22.45,3.86,32.89,7.86,2.31.88,5,2.17,4.1,5-1,3.29-3.74,2.83-6.71,1.85-10.26-3.36-20.63-6.4-31-9.54-1.79-.54-3.84-1.31-3.37-3.37S1478.27,347.22,1479.51,347.23Z"/><path class="cls-1" d="M1597.92,601.68c-.15,1.5-.38,3-.44,4.49-.08,2.14.12,4.64-2.81,4.78-3.11.16-4.06-2.16-4.12-4.84-.18-8.16-.31-16.33-.46-24.5.15-3,.28-6,.46-9.05.14-2.49.32-5.19,3.64-5.22,3.62,0,3.25,3,3.3,5.29C1597.7,582.31,1597.79,592,1597.92,601.68Z"/><path class="cls-1" d="M1597.68,472.6c0,5.75,0,11.51,0,17.27,0,1.74.28,3.95-2.25,4.15-2.32.18-4.57-1-4.6-3.39-.14-12.4,0-24.81.13-37.22,0-2.1,1.78-3.17,3.81-3,2.32.21,2.71,2.11,2.72,4,0,6.06,0,12.12,0,18.18Z"/><path class="cls-1" d="M1311.14,308.15c10,1.84,20.89,3.81,31.8,5.91,2.14.41,4.16,1.62,3.8,4.23-.38,2.8-2.67,2.89-4.86,2.51-10.63-1.85-21.27-3.64-31.84-5.74-2.22-.44-5.1-1.66-4.92-4.52S1308.11,308.29,1311.14,308.15Z"/><path class="cls-1" d="M1152.47,293.47h-17.16c-2.39,0-4-.76-4.1-3.57-.09-3,1.67-3.46,4-3.45,11.43.09,22.89-.66,34.25,1.34,1.94.34,4.78-.1,4.19,3.17-.44,2.48-2.64,2.92-4.93,2.9-5.42-.05-10.84,0-16.26,0Z"/><path class="cls-1" d="M1253.33,298.67c10.48,1.44,20.67,2.84,30.87,4.22,2.2.3,4.43.76,4.47,3.49s-1.89,3.86-4.22,3.68c-11.76-.91-23.27-3.38-34.7-6.19a2.56,2.56,0,0,1-1.76-3.61C1249.18,297.58,1251.71,299.26,1253.33,298.67Z"/><path class="cls-1" d="M1094.88,289.79c-5.75,0-11.49.09-17.24-.05-2.51-.06-5-.74-4.64-4.13.29-3.07,2.75-2.83,4.79-2.75,11.17.45,22.34,1,33.51,1.54,2.31.11,4.42,1,4.17,3.62-.22,2.32-2.5,2.27-4.27,2.29-5.44.07-10.88,0-16.32,0Z"/><path class="cls-1" d="M1193.28,289.94l36.16,4.52c2.89,4.06,2.65,7.07-3.12,6.5-11.27-1.11-22.4-3.3-33.71-4.4C1186.87,296,1188.73,291.85,1193.28,289.94Z"/><path class="cls-1" d="M1555.78,698.24c-1,21.28-15.51,33.31-32.78,27.23-10.47-3.69-15.54-12.55-15.44-27,4.36-12.79,12.12-19.16,24-19.65C1542,678.38,1550.32,685.08,1555.78,698.24Zm-24.91-11.48c-8.72.08-16.52,7.71-16.47,16.11s8.66,16.9,17.17,16.87c8.66,0,17-8.51,16.76-17.09C1548.09,693.37,1540.73,686.66,1530.87,686.76Z"/><path class="cls-1" d="M1439.32,648.59c0,6.06.07,12.13,0,18.19,0,1.86-.77,3.7-3.15,3.52-1.82-.14-2.41-1.72-2.61-3.26-1.64-12.4-.39-24.82,0-37.23a2.58,2.58,0,0,1,3.09-2.56c2.24.31,2.76,2.16,2.78,4,.06,5.76,0,11.53,0,17.29Z"/><path class="cls-1" d="M1597.89,691q-.27,15.76-.54,31.53c0,2.36.36,5.52-2.73,5.75-3.45.26-4.09-2.7-4.11-5.67-.07-9.31-.22-18.62-.33-27.94a35.54,35.54,0,0,0,.35-3.55c0-3.19.47-6.8,4.2-6.7C1598.27,684.49,1596.91,688.67,1597.89,691Z"/><path class="cls-1" d="M1597.37,646.86c0,6,.05,12.09,0,18.13,0,1.79-.16,3.89-2.61,4a3.54,3.54,0,0,1-3.76-3.25,270.61,270.61,0,0,1,.08-38c.11-1.62,1.59-2.49,3.28-2.52,2.36,0,3.09,1.57,3.11,3.52.07,6,0,12.09,0,18.13Z"/><path class="cls-1" d="M1440,691c-.13,10.26-.17,20.52-.43,30.77-.07,2.49.43,6.24-3.61,5.9-3.25-.28-2.58-3.72-2.62-5.89-.18-11.48-.12-23-.14-34.44C1439.24,681.55,1438.78,687.84,1440,691Z"/><path class="cls-1" d="M769.29,792.92c-2.62.23-5.13-.16-5.53-3.23-.44-3.32,2.13-3.75,4.7-4.08,10.19-1.33,20.36-2.76,30.54-4.11,2.58-.34,5.91-1.58,6.47,2.42.43,3.07-2.44,3.91-4.87,4.29C790.17,789.85,779.72,791.36,769.29,792.92Z"/><path class="cls-1" d="M833.23,785.69c-3.36,0-4.87,0-6.38,0-2.42.07-4.27-.75-4.26-3.42s1.78-3.58,4.17-3.77q15.78-1.28,31.55-2.58c2.65-.22,5.1.4,5.66,3.25.84,4.27-2.87,2.92-4.8,3.19C849.93,783.68,840.66,784.76,833.23,785.69Z"/><path class="cls-1" d="M935.78,712.87c.16-5.4.22-10.8.53-16.19.14-2.37-2-6.12,2.21-6.58,3.75-.42,3.87,3.21,4,5.81.53,12.6,1.81,25.23-1.1,37.73-3.91,1-5.54-.43-5.45-4.49C936.07,723.73,935.85,718.3,935.78,712.87Z"/><path class="cls-1" d="M669.08,798.42c5.72,0,11.45,0,17.17,0,2,0,4.42-.63,4.5,2.69a3.26,3.26,0,0,1-3.22,3.58,154.56,154.56,0,0,1-37.72-.14,3.13,3.13,0,0,1-2.93-3.81c.39-2.46,2.39-2.34,4.13-2.36,6,0,12,0,18.07,0Z"/><path class="cls-1" d="M713.8,800.46c-2.89-1-7.19,1.87-7.4-3.18-.18-4.18,3.46-4,6.51-4.44,9.84-1.37,19.65-2.93,29.47-4.38,2.32-.35,5.43-1.38,6,1.9.44,2.69-2.24,4-4.75,4.51C733.55,796.79,723.5,798.65,713.8,800.46Z"/><path class="cls-1" d="M900.88,780.59c-5.74,0-11.48.07-17.22,0-1.86,0-3.56-.64-3.7-3-.14-2.61,1.75-3,3.54-3q18.12-.13,36.25,0c1.79,0,3.7.28,3.72,2.84s-1.66,3.12-3.56,3.15c-6.34.1-12.69,0-19,0Z"/><path class="cls-1" d="M1525.61,804.51c-2.08,0-4.78.46-5.38-2.11-.74-3.22,2-3.87,4.45-4.33a140.1,140.1,0,0,0,30.24-9c2.33-1,4.91-1.65,6.09,1.4,1.09,2.83-.8,4.64-3.24,5.55C1547.34,799.91,1537,804.07,1525.61,804.51Z"/><path class="cls-1" d="M1481.52,798.37c6,0,12,0,18,0,2.1,0,4.56-.2,5.06,2.54s-1.64,4-3.76,4.1c-12.3.76-24.62,1.34-36.9-.3-2.16-.3-4.25-1.59-3.84-4.14.47-2.94,3.21-2.13,5.14-2.17C1470.68,798.29,1476.1,798.37,1481.52,798.37Z"/><path class="cls-1" d="M1595,747a61.27,61.27,0,0,1-16.18,31.35c-1.5,1.59-3.42,3-5.47,1.28-1.72-1.45-.58-3.37.41-4.86,6-9.07,11.34-18.49,14.77-28.89.7-2.12,1.94-4.2,4.4-3.72C1595.91,742.72,1593.85,745.78,1595,747Z"/><path class="cls-1" d="M1055,777.14c13.19-2.36,26.17,1,39.25,1.54,2.53.11,3.56,2.48,3.24,4.61-.42,2.79-3,2.5-5.08,2.38-12.29-.73-24.63-1-36.64-4.18C1055.52,780,1055.26,778.59,1055,777.14Z"/><path class="cls-1" d="M1040.13,776.59c-.6,4.91-4.55,4-7.62,4.16-7.8.3-15.62.3-23.43.43-3.58-.29-7.15-.56-10.72-.89-2.21-.2-3-1.79-3.14-3.7-.11-1.67.91-3.31,2.51-3,13.87,2.29,28.09-1.91,41.82,2.37C1039.79,776,1039.94,776.36,1040.13,776.59Z"/><path class="cls-1" d="M978.25,711.05c0-5.73,0-11.47,0-17.2,0-1.68-.49-4,2.05-4.23,2-.19,3.32,1.29,3.78,3.21a24.22,24.22,0,0,1,.82,5.33c.11,9.35.27,18.71,0,28.06-.08,2.75.18,7.1-3.74,7.18-4.85.11-2.77-4.41-2.92-7-.32-5.12-.1-10.26-.1-15.39Z"/><path class="cls-1" d="M486.2,649.07c0,5.45,0,10.9,0,16.35,0,2.38-.54,4.32-3.33,4.31s-3.48-2-3.48-4.31c0-11.2,0-22.4.2-33.6,0-2,.31-4.55,3.28-4.51s3.24,2.31,3.26,4.5c.07,5.75,0,11.51,0,17.26Z"/><path class="cls-1" d="M486.57,696.46c-.14,8.42-.25,16.84-.46,25.26-.05,2.31.41,5.46-2.84,5.73-4,.34-3.75-3.3-3.83-5.79-.32-9-.35-18-.49-27,.17-1.47.29-3,.53-4.42.4-2.33.47-5.12,3.94-4.79,3,.28,2.63,2.75,2.77,4.8S486.44,694.38,486.57,696.46Z"/><path class="cls-1" d="M436,798.37h18.14c1.89,0,3.85.17,4.19,2.44.41,2.71-1.67,4.09-3.79,4.11-12.07.11-24.14,0-36.21-.21-2.12,0-4.35-1.11-4.3-3.78.05-3.32,2.85-2.49,4.74-2.53C424.55,798.29,430.3,798.37,436,798.37Z"/><path class="cls-1" d="M392.06,804.6a87.93,87.93,0,0,1-29.59-8.78c-2-1-4.6-2.65-3.21-5.59,1.15-2.41,3.74-1.65,5.63-1,10.27,3.34,20.25,7.62,31.05,9.11,2.25.31,3.32,1.69,2.6,3.73C397.34,805.45,394.2,804.41,392.06,804.6Z"/><path class="cls-1" d="M1205.61,800.58c-9.19-1.66-19-3.39-28.76-5.23-2.68-.5-6.17-1.2-5.61-4.65.63-4,4.13-2.31,6.67-1.94,9.58,1.37,19.14,2.86,28.73,4.13,3.52.46,7.6,1.19,7.18,5.18C1213.35,802.6,1208.84,799.32,1205.61,800.58Z"/><path class="cls-1" d="M1155,793c-12.19,0-24-3.25-36-4.54-2.57-.28-6.14-1.08-5.6-4.66.57-3.82,4.14-2.69,6.66-2.36,11.41,1.5,22.79,3.17,34.19,4.78C1155.1,788.38,1156.31,790.53,1155,793Z"/><path class="cls-1" d="M1250.61,798.44c5.73,0,11.47,0,17.2,0,1.74,0,3.83-.18,4,2.48.11,2.22-1.2,3.34-3.22,3.55-12.32,1.3-24.65,1.8-37,0-1.91-.28-3.53-1-3.59-3.3-.08-3.4,2.58-2.71,4.5-2.74,6-.1,12.07,0,18.11,0Z"/><path class="cls-1" d="M384.44,678.78c6.6.19,10.84-4.51,15.73-7.75,4.55-3,8.1-2.85,11.33,2,4.49,6.67,10.21,12.5,13.77,19.82-8.48,8.27-14.3,18.62-21.71,27.65-6.33,7.73-16,8.39-25.09,4.56-8.65-3.65-13.9-10.34-14.44-20.22-.58-10.48,3.53-18.21,12.92-23C379.35,680.62,381.94,679.79,384.44,678.78Zm2.47,8c-9.17.07-15.69,6.79-15.73,16.22,0,8.72,8.25,17,16.79,16.81,8.26-.2,16.24-8.21,16.36-16.43C404.48,693.69,397.19,686.74,386.91,686.82Zm16-9.28c-.42.33-1.71.83-2.06,1.7s-.23,2.7.41,3.25c3.91,3.33,6.67,7.54,9.72,11.57,1.14,1.5,3.24,1.76,4.24-.54C416.41,690.81,406.77,677.68,402.92,677.54Z"/><rect class="cls-2" x="1919" y="1079" width="1" height="1"/><rect class="cls-2" width="1" height="1"/><rect class="cls-2" y="1079" width="1" height="1"/><rect class="cls-2" x="1919" width="1" height="1"/></g><g id="Capa_3" data-name="Capa 3"><path d="M861.9,433.69v111H842.08V474l-19.51,14.91-16.18,12.53-16.18-12.53L770.7,474v70.75H750.87v-111l19.83,15.22,35.69,27.44,35.69-27.44Z"/><path d="M915.83,470.64v75.5H896V468.58a15.8,15.8,0,0,0-13.48-13.48h-4.44V435.43h4.28v.16a35.4,35.4,0,0,1,29.5,19.83,42.26,42.26,0,0,1,2.7,7.45,33.47,33.47,0,0,1,1,8.09Z"/><path d="M1039.86,453.67a34.31,34.31,0,0,1,2.54,12.85V512a32.69,32.69,0,0,1-10.47,24.11,33.76,33.76,0,0,1-7.3,5.23,31.38,31.38,0,0,1-14.9,3.65h-69V525.21h69a13.07,13.07,0,0,0,13-13V496.66a32.67,32.67,0,0,1-12.37,2.53H963.57a32.75,32.75,0,0,1,.47-65.5h45.53a32.55,32.55,0,0,1,30.13,20ZM951.2,466.52a13.06,13.06,0,0,0,12.37,13h46.79a13,13,0,0,0-.63-26H964.2A13.06,13.06,0,0,0,951.2,466.52Z"/><path d="M1166.43,499.67a31.67,31.67,0,0,1,2.7,12.85,32.63,32.63,0,0,1-32.68,32.67h-78.2V525.37h78.2a12.93,12.93,0,0,0,12.85-13,12.77,12.77,0,0,0-11.42-12.85h-79.63V434.16h101.68V454h-81.85v25.69h59.64a32.17,32.17,0,0,1,28.87,19.83Z"/></g></g></svg>