<svg xmlns="http://www.w3.org/2000/svg" viewBox="0 0 1920 1080"><defs><style>.cls-1{fill:#010101;}.cls-2{fill:#f2f2f2;}</style></defs><g id="Capa_2" data-name="Capa 2"><g id="Capa_1-2" data-name="Capa 1"><path class="cls-1" d="M956.8,804.5a2.29,2.29,0,0,0-2,0,2.33,2.33,0,0,0,1.78.21,3.29,3.29,0,0,0,.52-.13A1.12,1.12,0,0,0,956.8,804.5Zm0,0a2.29,2.29,0,0,0-2,0,2.33,2.33,0,0,0,1.78.21,3.29,3.29,0,0,0,.52-.13A1.12,1.12,0,0,0,956.8,804.5Zm736.9-112.88c-8.87-.38-17.79-.42-26.66,0-5.36.27-6.94-1.45-6.92-6.75q.44-78,.4-155.94c0-5,1.78-6.59,6.49-6.57,10.77.07,21.56.16,32.31-.36,13.44-.66,18.84-6.46,18.82-19.9-.07-37.7-.48-75.4-.46-113.11,0-2.55-7.78-10.15-7.78-10.15-5-3.87-10.25-6.91-16.71-7.39-21.27-1.55-42.11-1.24-59.74,13.4-17.77,14.95-26.17,15.77-46.62,5.49-62.62-31.46-126-61.15-191.6-86.12-2-.77-4.69-1.24-3.78-4.07,2.11-6.53-2.26-7.65-6.8-9.2-18.52-6.3-37-12.75-55.49-19.14-6.17-1.83-12.31-3.81-18.54-5.43-4.17-1.09-9.37-4.85-10.8,3.54-.43,2.51-3,1.47-4.8,1-12.26-3-24.46-6.21-36.77-9-56.81-12.75-114.32-20.67-172.38-24.89-39.24-2.85-78.53-4.32-117.87-4.16,0,0-14.3.48-19.07.55-106.7,1.51-178.14,9.66-178.14,9.66a1142,1142,0,0,0-144.88,27.29c-3.3.84-6.17,2.07-7-3.14-.8-4.73-4.51-2.62-7.08-1.87-8.41,2.44-16.76,5.11-25.14,7.7-16.83,7-34.46,11.73-51.64,17.75-4.32,1.51-9.34,2.28-6.89,9.06.8,2.2-.84,3.17-2.88,3.94-51.86,19.35-101.89,42.94-152.1,66.09a2.6,2.6,0,0,1-.8.07,11,11,0,0,1-5.81,2.94l-2.59,1.44c-13.3,6.8-26.27,14.39-40,20.14-9.75,4.07-20.18,4.32-29.62-3.05-10.49-8.18-21-16.54-34.31-20-8.07-.22-16.13-.45-24.2-.64-11.35-.27-21.75,2.16-30.06,12.13-4.41,4.45-3.84,12.11-3.84,12.11V507.87a14.31,14.31,0,0,0,13.92,13.81c11,.41,22.12,1.31,33.06.45,8.72-.69,10.4,2.61,10.35,10.26-.19,28.26.14,56.52.19,84.78,0,21.26-.09,42.52-.14,63.79,0,11.38,1.45,10.49-10.18,10.47-7.53,0-15.08-.14-22.6.21-17.83.84-25,11.63-20.6,29.06,4.48,17.68,14.82,31.07,28.48,42.41,2.67,1.79,5.45,3.44,8,5.4,27.62,21.24,56.75,39.9,89.47,52.45,14.27,5.94,39.77,6.34,39.77,6.34,129,0,269.52.05,398.57,0,4.83,0,9.77.08,14.48-.84a1005.92,1005.92,0,0,1,119.93-15.71c4.56-.33,9-2.17,9.52,5.29.25,3.46,4.28,2.44,6.8,2.44l75.25-.59c4.19-.17,10.32,2.21,10-6.1-.06-1.54,2.12-1.79,3.93-1.64,25.74,2.13,51.51,4,77,8.26,31.84,5.32,63.56,9.66,96.12,9.19,73.27-1,146.56-.31,219.84-.32,52.54,0,105.11,1,157.58-.81,13.79-.47,21.33,1.62,25.59,14.21,2.67,7.87,7.25,7.46,13.67,3.89,25.59-14.24,51.38-28.14,77.12-42.12,15.1-8.21,15.12-8.18,6.49-23.48a23.55,23.55,0,0,0-2.43-4.18c-4-4.39-3.11-7,1.7-10.76,16.11-12.53,28.85-27.57,31-49C1715.19,700.78,1708,692.24,1693.7,691.62ZM629.48,282.77c7.28-1.48,14.51-3.19,21.77-4.81,29.44-8.52,59.64-13.31,89.86-17.74A1329.27,1329.27,0,0,1,901,246.69c16.88-.42,33.8-.79,50.69-1.28l40.28-.06c58.57,1.49,118.21,5,177.44,13.29a1012.38,1012.38,0,0,1,119.54,24c3.07.81,7.26.69,4.49,5.72-1.81,3.3-.19,9.61-8.24,7.43a1067.09,1067.09,0,0,0-108-23.14,1278.71,1278.71,0,0,0-186.36-16.22l-39-.49c-34.18.23-68.33,1.27-102.42,3.92-40.77,3.18-81.28,8.15-121.55,15.3-26.43,4.68-52.54,10.78-78.8,16.19-5.37,1.52-10.85,2.73-16.06,4.65-4.37,1.61-5.85.2-6.21-4C626.5,288.52,622.49,284.2,629.48,282.77ZM906.94,798.15C865.72,800,825,806,784.5,813.46c-6.41,1.19-12.85,1.23-19.31,1.23q-195.59,0-391.18.12c-15.35,0-29.89-2.46-44-8.42A318.8,318.8,0,0,1,255,761.33c-16.65-11.08-31.25-23.79-36-44.5-2.22-9.63-.29-12.33,9.61-12.44,9.42-.11,18.83.08,28.24.14,12.85-3.91,15-6.94,15-20q.15-70.95.48-141.9-.35-8-.67-15.94c-.46-11.07-5.72-16.77-16.82-17.18-11.47-.43-23-.24-34.45-.31-3.45,0-6.73-.22-5.48-5.19l-.09-3.22a193.78,193.78,0,0,1-.08-32.32c-.07-23.39-.29-46.78-.12-70.16.06-8.61,5.5-13.27,14.29-14.15,20.56-2.05,39.31.93,55.39,15.67,15.29,14,32.7,12.64,50.22,4,27.16-13.39,54.07-27.31,82-39,26.68-13.89,54.68-24.83,82.27-36.66,9.37-4,18.87-7.73,28.34-11.51,2.35-.94,5.47-3,5.91,1.71.27,2.89,4.28,6.77-1.52,8.66-38.54,12.64-75.57,29.14-113,44.47-27.38,13.76-55.07,26.87-82.05,41.46-21.21,11.47-36.81,27.49-46.76,49.26-7.59,20.13-6.45,41.16-6.54,62.08,0,6.17-.31,12.33-.48,18.5q.24,80.78.46,161.57c0,16.9,2.63,33.29,10.91,48.22,17.41,31.4,44.29,49.85,80.1,50.08,128,.85,255.94.54,383.91.21,18.27-.05,36-6.05,54-8.74,31.14-4.63,62.37-8.29,93.77-10.71,7-.53,8,2.89,8.52,8.25C914.94,797.68,911.52,798,906.94,798.15Zm1.59-24c-1.32-.75-2.9.59-4.35,1.39-4.38,2.39-8.93,4.65-13.33-.17a5.35,5.35,0,0,0-5.28-1.33c-10.89,2.55-22.57,1.32-32.83,6.9-3.45,1.87-7.33,1.58-11.09,1.42-14.4-.61-28.43,1-41.93,6.35a25.54,25.54,0,0,1-5.42,1.52c-39.32,6.19-78.9,7-118.57,5.26-18-.78-36,1-54.08.28-25.51-1-51.11,0-76.66.61-10.54.26-21-1.46-31.46-1-45.15,1.8-90.32,1.33-135.48,1.19-28.11-.09-51-11.54-68.79-33.2A82.43,82.43,0,0,1,290,710.47c-.37-47.38-.17-94.76-.19-142.14-.73-28.19-1.24-56.38,1-84.52.71-9,4.69-17,7.93-25.22,1.27-3.21,3-5.86,5.28-.32.79,1.91,2.83.41,4.3.11,2.81-7.41,7.94-13.23,13-19.12,2.66-3.09,5.75-5.26,5.4-10.77-.28-4.31,6.65-8.24,9.82-7,7.81,2.95,12.78-1.75,18.64-4.24a106.39,106.39,0,0,0,11.42-5.91c2.9-1.66,7-1.89,4.57-7.94-1.5-3.69,5.2-2.85,7.55-5.2,1.3-1.31,4.06-3.09,5.28,0,2,5,5.22,2.7,7.85,1.57,6.38-2.73,12.64-5.78,18.83-9,3.91-2,9-2.38,7.74-9.89-.61-3.48,6.51-4.3,10.15-6.23,3.81-2,3.17,1.55,4.14,3.52,1.35,2.78,3.59,1.13,5.47.3q10.24-4.56,20.47-9.15c2.63-2.57,6.87-3.31,6.54-8.93-.2-3.49,11.19-6,13.85-3s4.59,1.63,7.07.59c6.68-2.8,13.41-5.48,20.07-8.32,3.6-1.54,7-2.62,8.22-7.68s10.38-6.52,14.4-2.72c3.16,3,5.3.51,6.6-1.42,8.89-7.2,4.19-20.26,4.19-20.26l-5-18.91,76.17-25.22c2.94-1.2,3.6.67,3.6.67l5.22,17.56c5.48,19.42,14.13,16,14.13,16,4-.29,3.78-8.58,10.38-8.08,2.93.22,6-2.56,7.56,2.53.76,2.5,3.77,1.54,5.72,1.06,7.82-1.92,15.59-4.06,23.38-6.1a9.11,9.11,0,0,0,6.3-4.54c2-3.66,5.43-4.91,9.44-4.84,15.59,6.77,29.25,1.09,42.56-6.65,4-2.3,7.89-5.08,12.3-1.21,2.14,1.89,4.51,1.66,6.81,1.29,11.45-1.87,23.48-.89,33.81-8.27,3.29-2.35,8.37-3.74,12.2,1.15,1.62,2.07,4.44,1.08,6.85.86,9.08-.84,18.17-1.54,27.25-2.29,6.45-7.72,8.07-7.91,17.65-2.49a6.28,6.28,0,0,0,3.85.67c11.52-2,23.7.36,34.62-6,3.65-2.13,8.68-3.71,12.2,1.54,1.68,2.5,4.4,1.46,6.7,1.36,6.71-.29,13.45-.51,20.12-1.24,5.74-.62,7.27,1.47,7.24,7.14-.23,40.62-.11,81.25-.11,121.87q0,180-.07,359.93c0,2.41-.21,4.83-.33,7.24a28.19,28.19,0,0,0,.32,3.2c1.74,8.28-1.73,11-9.79,9.9C923.38,774.7,915.74,778.18,908.53,774.1Zm49.61,34.45c-.17,4.25-3.06,4.26-6.19,3.76H920.59c-.09-.82-.17-1.64-.26-2.46,10.2-3.46,21.21.11,31.64-1.38,1.57-.52,1.47-3.13,2.78-3.94-1.08-.78-.55-3-1.14-4.2-1.8-3.8-5.76-3.16-8.85-3.34a107.79,107.79,0,0,0-18.5.23c-8.46,1-5.19-5.33-6.14-9-1.18-4.56.66-6.27,5.38-6.15a218.31,218.31,0,0,0,24.14-.37c6.43-.56,9.72.86,8.47,7.93a23.44,23.44,0,0,0,0,4h.15a42.25,42.25,0,0,1-.05,5.63c-.24,1.79,1.15,4.53-1.13,5.32C958.74,805.37,958.2,807.16,958.14,808.55Zm.16-39.64c0,4.57-1.19,6.64-6.38,6.8-5.9.19-4.88-3.34-4.88-6.69q0-245.07.09-490.15c0-15.78.12-15.24,16.21-16.46,8-.6,9.61,1.46,9.6,9.26q-.36,247.91-.25,495.8c0,3.17,2.28,7.94-4.44,8.11-4.88.12-7.6-.72-7-6.44.3-3,1.21-6.36-1.4-10.16C957.45,762.6,958.29,765.88,958.3,768.91Zm40.81,43.71c-11.92,0-23.83.07-35.75,0-2.33,0-2-2.15-1.82-3.68.09-.89.13-2.37,1.78-1.85,11,3.44,22.37.47,33.51,1.64.92.09,1.75,1,2.63,1.46C999.34,811,999.23,811.8,999.11,812.62Zm1.12-25.57c-1.07,3.75,2.44,10.15-5.26,10.35-4.55.13-9.13-.39-13.69-.62,0,.09,0,.18,0,.26-3.49,0-7,.18-10.48,0-3.09-.2-7.63,2.66-8.84-.12-1.58-3.61-.56-8.39-.53-12.66,0-3,2.33-2.32,4.09-2.31,10,.05,19.9.24,29.85.17C999,782,1001.39,783,1000.23,787.05ZM985.91,776c-5.87-.4-6.79-2.07-6.78-7.43q.21-247.66,0-495.34c0-5.92,1.71-7.5,7.26-6.79,5.32.67,10.74.66,16.11,1,1.62.09,3.68.92,4.77.22,14.35-9.18,26.68,2.82,40,3.63l4.83.28c4.76-1.66,10.37.47,14.61-4.74,1.54-1.89,8.57-1.76,10.5.91,4.56,6.28,10.79,5.22,16.68,5.57,8.75.53,17.62,5.16,26.3-1.51,2.57-2,6.71.31,9.87,2,12.59,6.65,25.66,9.55,39.77,5.42,4.35-1.27,8.19.27,12.08,2.63,11.59,7,23.64,11,37.58,6.51,4.62-1.49,10.91-1.44,13.61,4.78,1.14,2.64,2.87,3.55,5.36,4.16,7.31,1.78,14.54,3.9,21.89,5.49,3.2.69,7.14,3.27,8.88-2.95.73-2.63,11.81.35,13.45,4.49,1.84,4.66,3.46,3.61,7.08,2,5.64-2.44,9.1-11.32,9.1-11.32s4.89-15.35,5.89-18.28,2.74-3.08,2.74-3.08S1367.08,293,1377,295.77s7.61,4.81,7.61,4.81l-6,18.81a16.59,16.59,0,0,0,3.34,16.57c2.29,3.56,5.55,8.13,10.5,1.63,2.31-3,11.24.06,12.18,4.52,1,4.69,4,5.81,7.57,7.19,7.52,2.89,14.89,6.15,22.42,9,1.69.64,4.7,3.73,5.36-1,.45-3.21,2-3.63,4.29-2.19,3.47,2.19,10.38,1,9.91,6.77-.33,4.08,1.46,4.47,3.78,5.58,6.3,3,12.55,6.17,18.94,9,3.85,1.7,7.82,6.9,11.71-.75,1.33-2.62,13.15,3.15,13,6.85-.21,4.29,2.08,5.55,5.11,7,7.27,3.48,14.42,7.2,21.72,10.62,1.69.79,4.2,2.78,5.5-.28,1.14-2.66,2.44-4.69,5.1-2.49,3.21,2.66,10,1.55,9.56,7.78-.25,3.27,1,4.35,3.22,5.48,7.46,3.71,14.9,7.45,22.37,11.14a8.64,8.64,0,0,0,6.9.43c5.54-1.72,11.34,2.71,11.65,8.69.17,3.36,2.28,5.26,4,7.59,4.06,5.36,8.1,10.73,11.94,16.23,3,4.35,5.7,9.38,10.46-.12,5.27,11.48,9.56,21.85,10.17,33.21,2.5,46.29,0,92.61.53,138.91.18,13.43,0,26.86,0,40.29.87,7.5,1.37,15-1.53,22.2-1.54,3.83,1.31,6.68,1.57,10.08,3.11,40.59-20.88,79.67-59.76,92.52-3.26,1.08-4.5,1.35-6.19-2.78-4.42-10.81-11.13-20.43-18.42-30.78-2.14,7.28-2.14,7.28,14.26,36.41-5,1.59-10,1.76-15,1.77-36.91.06-73.87,1.35-110.72-.18-43.52-1.82-87,.49-130.49-.6-42.2-1-84.47.33-126.72.76a87.19,87.19,0,0,1-25.52-3.19c-7.74-2.27-15.33-4.67-23.72-3-2.85.58-6.29-1-9.31-2.07-13.55-4.63-27.31-7.48-41.76-5.92-2.62.28-5.84.44-7.92-.79-9.69-5.79-20.8-5-31.23-7.25-3.51-.75-8-2.55-10.33,3-.62,1.5-3,1.23-4.44.64C1010.53,773,998.09,776.81,985.91,776ZM1701,714.48c-2.53,17.85-14.11,29.73-27,40.73-3,2.53-4-.07-5.24-2.33-2.77-5.22-5.77-10.33-8.48-15.58-1.56-3-4-5.14-7-3.56-3.74,2-.35,4.64.68,6.65,2.57,5,5,10.29,8.5,14.6,4.5,5.51,2.32,8.23-2.62,11.26-5.95,3.66-11.56,7.87-17.41,11.7-3.33,2.19-4,4.67-1.86,8.09,2.31,3.64,5.21,4.56,8.79,2.1,6.2-4.25,12.4-8.54,18.42-13,3.07-2.29,4.64-2.26,6.78,1.4,8.78,15,8.92,14.92-6.06,23.11-22.64,12.38-45.37,24.61-67.85,37.28-5.53,3.12-8.64,2.7-10.94-3.32-1-2.48-2.68-4.64-3.9-7s-3.15-4.59,1-6.43c3.09-1.38,2.5-4.61,1.88-7.15-.7-2.84-3.56-3.07-5.9-3.21-3.31-.18-7,1.35-8.87-3.18-.59-1.4-2.59-1.75-4.29-.91s-2,2.52-1.42,4.09c1.56,4.13-.93,4.52-4,4.58-5.12.1-10.23.33-15.34.34-129.3,0-258.59-.15-387.89.29-21.27.07-41.6-4.81-62.32-7.76-28.24-4-56.51-7.84-85-9-4.13-.17-8.25.64-7.39-5.92.65-5,.45-9.56,8-8.86,23.3,2.18,46.64,4,69.82,7.32s46.2,7,69.09,11.76a47.79,47.79,0,0,0,9.66.57q189.5,0,379-.06a94.31,94.31,0,0,0,91.52-70.29,73,73,0,0,0,2.61-20.16c4,.48,4.31,4,6.08,6,1.38,1.58,2.82,2.77,4.79,1.6s1.86-3.19.85-5c-2.52-4.45-5-9-7.82-13.18a19.79,19.79,0,0,1-3.65-11.33c.1-27.72.35-55.43.56-83.15-1.16-21-.87-42.11-.35-63.18,0-2.78,0-5.56,0-8.34-.19-13.45-.34-26.9-.58-40.35-.64-36-17.44-62.79-48.28-80.21C1525,380.07,1459,352.11,1391.34,327.86c-2.88-1-6.82-1-6.35-5.7s.77-8.21,7.69-5.47c64.27,25.49,127,54.47,188.64,85.61,20.28,10.24,38.88,11.3,56.74-4.3a15.88,15.88,0,0,1,2.79-1.59c15.69-15.59,35.25-13.47,54.51-11.34,6.1.67,9.8,6.15,9.84,12.22.24,35.43.06,70.86.14,106.3,0,4.29-2,5.6-5.91,5.56-9.92-.12-19.84-.12-29.76-.16-1.58.22-3.16.47-4.75.64-12.3,1.35-17.15,6.78-17.31,20.52-.21,19.05,0,38.11,0,57.16,0,2.93-.29,5.86-.45,8.79,0,1.08,0,2.17,0,3.25a54.57,54.57,0,0,1,0,16.14c1.49,22.59.14,45.21.37,67.81.16,15.77,5,20.94,20.62,21,8.08,0,16.16.1,24.24,0C1699.47,704.23,1702,707.77,1701,714.48Zm-746.26,90a2.33,2.33,0,0,0,1.78.21,3.29,3.29,0,0,0,.52-.13,1.12,1.12,0,0,0-.25-.11A2.29,2.29,0,0,0,954.75,804.53Zm2,0a2.29,2.29,0,0,0-2,0,2.33,2.33,0,0,0,1.78.21,3.29,3.29,0,0,0,.52-.13A1.12,1.12,0,0,0,956.8,804.5Zm0,0a2.29,2.29,0,0,0-2,0,2.33,2.33,0,0,0,1.78.21,3.29,3.29,0,0,0,.52-.13A1.12,1.12,0,0,0,956.8,804.5Z"/><path class="cls-2" d="M940.49,765.82a28.19,28.19,0,0,1-.32-3.2c.12-2.41.33-4.83.33-7.24q.06-180,.07-359.93c0-40.62-.12-81.25.11-121.87,0-5.67-1.5-7.76-7.24-7.14-6.67.73-13.41.95-20.12,1.24-2.3.1-5,1.14-6.7-1.36-3.52-5.25-8.55-3.67-12.2-1.54-10.92,6.39-23.1,4.05-34.62,6a6.28,6.28,0,0,1-3.85-.67c-9.58-5.42-11.2-5.23-17.65,2.49-9.08.75-18.17,1.45-27.25,2.29-2.41.22-5.23,1.21-6.85-.86-3.83-4.89-8.91-3.5-12.2-1.15-10.33,7.38-22.36,6.4-33.81,8.27-2.3.37-4.67.6-6.81-1.29C747,276,743,278.8,739.08,281.1c-13.31,7.74-27,13.42-42.56,6.65-4-.07-7.46,1.18-9.44,4.84a9.11,9.11,0,0,1-6.3,4.54c-7.79,2-15.56,4.18-23.38,6.1-1.95.48-5,1.44-5.72-1.06-1.54-5.09-4.63-2.31-7.56-2.53-6.6-.5-6.37,7.79-10.38,8.08,0,0-8.65,3.4-14.13-16l-5.22-17.56s-.66-1.87-3.6-.67l-76.17,25.22,5,18.91s4.7,13.06-4.19,20.26c-1.3,1.93-3.44,4.42-6.6,1.42-4-3.8-13.14-2.44-14.4,2.72s-4.62,6.14-8.22,7.68c-6.66,2.84-13.39,5.52-20.07,8.32-2.48,1-4.5,2.33-7.07-.59s-14.05-.52-13.85,3c.33,5.62-3.91,6.36-6.54,8.93q-10.23,4.57-20.47,9.15c-1.88.83-4.12,2.48-5.47-.3-1-2-.33-5.53-4.14-3.52-3.64,1.93-10.76,2.75-10.15,6.23,1.3,7.51-3.83,7.87-7.74,9.89-6.19,3.18-12.45,6.23-18.83,9-2.63,1.13-5.87,3.45-7.85-1.57-1.22-3.08-4-1.3-5.28,0-2.35,2.35-9.05,1.51-7.55,5.2,2.46,6.05-1.67,6.28-4.57,7.94a106.39,106.39,0,0,1-11.42,5.91c-5.86,2.49-10.83,7.19-18.64,4.24-3.17-1.2-10.1,2.73-9.82,7,.35,5.51-2.74,7.68-5.4,10.77-5.06,5.89-10.19,11.71-13,19.12-1.47.3-3.51,1.8-4.3-.11-2.32-5.54-4-2.89-5.28.32-3.24,8.21-7.22,16.26-7.93,25.22-2.24,28.14-1.73,56.33-1,84.52,0,47.38-.18,94.76.19,142.14a82.43,82.43,0,0,0,19.25,52.81c17.78,21.66,40.68,33.11,68.79,33.2,45.16.14,90.33.61,135.48-1.19,10.46-.42,20.92,1.3,31.46,1,25.55-.62,51.15-1.65,76.66-.61,18.08.73,36.05-1.06,54.08-.28,39.67,1.73,79.25.93,118.57-5.26a25.54,25.54,0,0,0,5.42-1.52c13.5-5.31,27.53-7,41.93-6.35,3.76.16,7.64.45,11.09-1.42,10.26-5.58,21.94-4.35,32.83-6.9a5.35,5.35,0,0,1,5.28,1.33c4.4,4.82,8.95,2.56,13.33.17,1.45-.8,3-2.14,4.35-1.39,7.21,4.08,14.85.6,22.17,1.62C938.76,776.85,942.23,774.1,940.49,765.82ZM331.62,615.29c1.39-2.47,3.77-1.28,5.67-.25q12,6.53,24,13.16a6.64,6.64,0,0,1,3.55,5.06c-.47,3-2.57,2.48-4.23,1.64q-13.28-6.71-26.43-13.68C331.82,620,330.18,617.86,331.62,615.29ZM296.2,478.57c.1-2.23,1.4-5.52,4.09-5.29,3.66.32,1.6,3.76,1.72,5.8.23,4,.07,8.07.07,12.1h-.35c-.26,5.37-.47,10.75-.78,16.12-.09,1.57-.11,3.47-2.4,3.44a2.8,2.8,0,0,1-2.89-3.15C295.77,497.91,295.77,488.23,296.2,478.57ZM296,559c-.45-10.44-.27-20.91-.26-31.37,0-1.74.75-3.16,2.89-2.91s2.53,1.89,2.56,3.52c.15,7.5.2,15,.26,22.52,0,3.22,0,6.43,0,9.64v.11C298.64,563.51,296.16,562.46,296,559Zm5,17.72c2.58.18,3.34,1.68,4,3.14,3.48,7.95,8.42,15,13.75,21.74,1.26,1.61,3.12,3.67.74,5.57-1.66,1.33-3.38.29-5-1.12A51.76,51.76,0,0,1,299,581.9C298.43,579.92,297.56,576.82,301,576.68Zm4.32,143.37c-3.62-8.19,10.92-28.81,18.81-28.59,5.1,0,4.6,3.5,3.39,4.32-9,6.11-15.33,13.92-18.1,24.64C308.94,722.26,306.51,722.78,305.31,720.05Zm37.34,29.49c-2.63.4-5.34.39-8,.56-8.21,0-15.3-2.57-20.8-8.78-1.38-1.55-3.14-3.68-1.25-5.63,1.73-1.79,3.47.21,4.79,1.36a26.52,26.52,0,0,0,23.88,6.24c1.93-.4,4.78-1.41,5.18,1.73A4.21,4.21,0,0,1,342.65,749.54Zm18.53-15.62c-.92,1.1-1.82,3-3.75,1.84a3.29,3.29,0,0,1-1.34-4.23c6.38-14.84.1-25.15-11.88-33.45-1.38-1-2.83-2.21-1.71-3.86s3.48-1.17,5.21-.88c7.48,1.26,15.53,11.45,17.06,21.45a25.86,25.86,0,0,1,.26,4.14C365.16,725.86,364.25,730.25,361.18,733.92Zm44.88-71.59c-.68-.11-1.34,0-1.72-.31-8.4-6.22-16.37-13-25.68-18a2.65,2.65,0,0,1,2.6-4.62c10.1,4,19.61,8.91,26.5,17.64C409.38,659.09,409.66,661.64,406.06,662.33Zm17.14,40.36A104.77,104.77,0,0,0,415.86,679c-.95-2.2-1.73-5.06,1-6.25,2.39-1,3.72,1.5,4.77,3.32A62,62,0,0,1,430,701.87c-.23,2.71,1.17,6.71-2.89,7.21C422.63,709.63,423.66,705.3,423.2,702.69Zm19.54,55.18c-2.47,1-4-.39-5.25-2.39-5.38-8.89-7.37-18.84-8.82-29-.33-1.73,0-3.39,1.85-3.9,2.18-.61,3.64.61,4.1,2.73,2.16,9.95,4.16,19.94,8.87,29.11C444.14,755.72,444.32,757.21,442.74,757.87Zm32.63,35.22c-9.92-4.33-18.78-10.18-25.59-18.77a3.19,3.19,0,0,1,4.52-4.49c7.58,6.81,15.92,12.6,24.18,18.5.76.54,1,1.76,1.38,2.41C479.17,793.74,477.05,793.82,475.37,793.09Z"/><path class="cls-2" d="M1628.22,689.22c2.9-7.18,2.4-14.7,1.53-22.2,0-13.43.23-26.86,0-40.29-.58-46.3,2-92.62-.53-138.91-.61-11.36-4.9-21.73-10.17-33.21-4.76,9.5-7.42,4.47-10.46.12-3.84-5.5-7.88-10.87-11.94-16.23-1.76-2.33-3.87-4.23-4-7.59-.31-6-6.11-10.41-11.65-8.69a8.64,8.64,0,0,1-6.9-.43c-7.47-3.69-14.91-7.43-22.37-11.14-2.26-1.13-3.47-2.21-3.22-5.48.47-6.23-6.35-5.12-9.56-7.78-2.66-2.2-4-.17-5.1,2.49-1.3,3.06-3.81,1.07-5.5.28-7.3-3.42-14.45-7.14-21.72-10.62-3-1.46-5.32-2.72-5.11-7,.19-3.7-11.63-9.47-13-6.85-3.89,7.65-7.86,2.45-11.71.75-6.39-2.84-12.64-6-18.94-9-2.32-1.11-4.11-1.5-3.78-5.58.47-5.78-6.44-4.58-9.91-6.77-2.27-1.44-3.84-1-4.29,2.19-.66,4.76-3.67,1.67-5.36,1-7.53-2.84-14.9-6.1-22.42-9-3.6-1.38-6.58-2.5-7.57-7.19-.94-4.46-9.87-7.54-12.18-4.52-5,6.5-8.21,1.93-10.5-1.63a16.59,16.59,0,0,1-3.34-16.57l6-18.81s2.27-2-7.61-4.81-69.45-22.17-69.45-22.17-1.75.14-2.74,3.08-5.89,18.28-5.89,18.28-3.46,8.88-9.1,11.32c-3.62,1.57-5.24,2.62-7.08-2-1.64-4.14-12.72-7.12-13.45-4.49-1.74,6.22-5.68,3.64-8.88,2.95-7.35-1.59-14.58-3.71-21.89-5.49-2.49-.61-4.22-1.52-5.36-4.16-2.7-6.22-9-6.27-13.61-4.78-13.94,4.5-26,.5-37.58-6.51-3.89-2.36-7.73-3.9-12.08-2.63-14.11,4.13-27.18,1.23-39.77-5.42-3.16-1.67-7.3-3.95-9.87-2-8.68,6.67-17.55,2-26.3,1.51-5.89-.35-12.12.71-16.68-5.57-1.93-2.67-9-2.8-10.5-.91-4.24,5.21-9.85,3.08-14.61,4.74l-4.83-.28c-13.36-.81-25.69-12.81-40-3.63-1.09.7-3.15-.13-4.77-.22-5.37-.3-10.79-.29-16.11-1-5.55-.71-7.26.87-7.26,6.79q.25,247.67,0,495.34c0,5.36.91,7,6.78,7.43,12.18.84,24.62-2.94,36.58,1.9,1.47.59,3.82.86,4.44-.64,2.28-5.55,6.82-3.75,10.33-3,10.43,2.23,21.54,1.46,31.23,7.25,2.08,1.23,5.3,1.07,7.92.79,14.45-1.56,28.21,1.29,41.76,5.92,3,1,6.46,2.65,9.31,2.07,8.39-1.7,16,.7,23.72,3a87.19,87.19,0,0,0,25.52,3.19c42.25-.43,84.52-1.81,126.72-.76,43.51,1.09,87-1.22,130.49.6,36.85,1.53,73.81.24,110.72.18,5,0,10-.18,15-1.77-16.4-29.13-16.4-29.13-14.26-36.41,7.29,10.35,14,20,18.42,30.78,1.69,4.13,2.93,3.86,6.19,2.78,38.88-12.85,62.87-51.93,59.76-92.52C1629.53,695.9,1626.68,693.05,1628.22,689.22Zm-158.07,82.9c-1.38,4.81-21.9,21.17-26.65,21.23a4,4,0,0,1-4.08-2.07c-1.09-1.89.4-3.18,1.71-3.88,8.85-4.71,16.54-11,24.15-17.41a4,4,0,0,1,4.5-.62C1471.17,770,1470.43,771.14,1470.15,772.12Zm21.41-44.52c-1.14,7.39-2.51,14.74-5.44,21.69-.93,2.21-1.84,4.42-2.76,6.63-2,1.75-4.1,3.22-6.86,1.43,2-11,8.15-20.89,9.06-32.24a2.71,2.71,0,0,1,3.37-2.6C1491.58,723.13,1491.91,725.38,1491.56,727.6ZM1501.5,684c-2,7-4.16,13.89-6.17,20.85-.58,2-1.44,3.64-3.78,3.3-1.93-.29-2.54-1.85-2.19-3.64,2.25-11.56,4.67-23.05,13.19-33.29C1505.49,676.85,1502.52,680.3,1501.5,684Zm10.57-26.72c2.16-5.5,21.56-18.08,27.79-18a4.37,4.37,0,0,1,2.83,1c1,.91.28,2.29-.5,2.83-9.2,6.38-18.48,12.66-27.74,19a2.94,2.94,0,0,1-.9.2C1510.29,661.47,1511.31,659.19,1512.07,657.25Zm24.14,90.66c-3.17,1.86-5.52-5.8-8.34-9.1-.52-.6-1-1.19-1.58-1.78q-4.18-7.69-8.35-15.4c-1.15-2.12-2.77-4.49.28-6.19,2.88-1.61,4.46.76,5.71,2.79,3.51,5.66,6.87,11.42,10.28,17.14C1534.89,739.76,1541.5,744.82,1536.21,747.91Zm6.21-61c-9,7.29-19.53,11.81-31,18.14-.31-.83-.62-1.87-1.06-2.85a2.74,2.74,0,0,1,1.09-3.52c8.77-6.07,17.66-12,27.52-16.2a2.88,2.88,0,0,1,3.6.82A2.47,2.47,0,0,1,1542.42,686.87Zm57.69-84.54A91,91,0,0,0,1615.73,579c.59-1.24,1.36-2.61,2.88-2.38s2,1.62,1.61,4c-2.43,9.93-8.45,18.69-16.23,26.34a3.39,3.39,0,0,1-4.5.27C1597.5,605.5,1599,603.59,1600.11,602.33Zm-42.83,25.94q12.27-6.88,24.73-13.43c2.6-1.37,5.25-1.93,5.81,1.95a4.59,4.59,0,0,1-2.73,4.07c-8.19,4.58-16.35,9.23-24.62,13.67-1.86,1-4.56,1.56-5.91-.54C1552.77,631.22,1555.21,629.44,1557.28,628.27Zm-1.29,45c9.55-7.1,19.72-13,31.8-15.26-7.9,9.84-18.9,15-29.64,20.52a2.94,2.94,0,0,1-2.72-.86A3.34,3.34,0,0,1,1556,673.23Zm15.17,28c-2.05,2.44-4.72,4.4-5.62,7.67-3.92,6.3-4.94,13-2.49,20.06.85,2.44,3.18,5.4-.16,7-3.68,1.8-5-1.89-6.34-4.41a31.47,31.47,0,0,1-1.66-4.54c.34-7.2-.05-14.53,3.62-21.16,2.11-3.78,4.51-7.36,8.33-9.62,2.87-1.7,6.58-5.51,9.09-2.21C1578.26,697.09,1573.09,698.91,1571.16,701.21Zm34.31,40.92c-6.14,5-13,8.44-21.16,7.68h-4.06c-3.41,0-7.51-.78-7.06-4.56.49-4.07,4.71-1.7,7.19-1.5,8.07.65,15.32-1,21.74-6.11,1.52-1.19,3.45-3.73,5.39-1.53C1609.59,738.49,1607.25,740.68,1605.47,742.13Zm6.1-20.42c-3.59.82-3.26-2.61-3.66-4.82a25.35,25.35,0,0,0-11.77-17.38c-2-1.31-4.08-2.59-4.92-5,.69-4,3.53-2.69,6-2.41,9,5.23,15.26,12.46,17,23C1614.68,717.8,1614.83,721,1611.57,721.71Zm8.41-46.18c-3.32,2-4.65-2-6.26-4.22-2.81-6.34-6.71-12-10.48-17.79-1.22-1.88-5.07-4-1.42-6.48,3-2,6.3-1,8.18,2.31,3.4,6,6.61,12.11,9.9,18.17C1620.48,670.25,1623.06,673.71,1620,675.53Zm4.46-117c0,2-.21,3.86-2.9,3.73s-2.45-2.45-2.5-4.15c-.13-5.09,0-10.18,0-15.28h.32c0-4.83,0-9.65,0-14.47,0-1.93.15-4,2.82-3.86,2.08.1,2.39,1.76,2.39,3.47Q1624.5,543.25,1624.44,558.53Zm.07-63.7c0,4.29,0,8.57,0,12.86,0,1.29,0,2.74-1.9,2.85s-3.09-.61-3.18-2.63c-.48-11-1-21.92-1.39-32.89,0-1.25.16-3.09,2-2.68a4.82,4.82,0,0,1,2.71,2.65C1625.41,481.37,1624.31,488.18,1624.51,494.83Z"/><path class="cls-1" d="M1571.16,701.21c-2.05,2.44-4.72,4.4-5.62,7.67-3.92,6.3-4.94,13-2.49,20.06.85,2.44,3.18,5.4-.16,7-3.68,1.8-5-1.89-6.34-4.41a31.47,31.47,0,0,1-1.66-4.54c.34-7.2-.05-14.53,3.62-21.16,2.11-3.78,4.51-7.36,8.33-9.62,2.87-1.7,6.58-5.51,9.09-2.21C1578.26,697.09,1573.09,698.91,1571.16,701.21Z"/><path class="cls-1" d="M1536.21,747.91c-3.17,1.86-5.52-5.8-8.34-9.1-.52-.6-1-1.19-1.58-1.78q-4.18-7.69-8.35-15.4c-1.15-2.12-2.77-4.49.28-6.19,2.88-1.61,4.46.76,5.71,2.79,3.51,5.66,6.87,11.42,10.28,17.14C1534.89,739.76,1541.5,744.82,1536.21,747.91Z"/><path class="cls-1" d="M1491.56,727.6c-1.14,7.39-2.51,14.74-5.44,21.69-.93,2.21-1.84,4.42-2.76,6.63-2,1.75-4.1,3.22-6.86,1.43,2-11,8.15-20.89,9.06-32.24a2.71,2.71,0,0,1,3.37-2.6C1491.58,723.13,1491.91,725.38,1491.56,727.6Z"/><path class="cls-1" d="M1611.57,721.71c-3.59.82-3.26-2.61-3.66-4.82a25.35,25.35,0,0,0-11.77-17.38c-2-1.31-4.08-2.59-4.92-5,.69-4,3.53-2.69,6-2.41,9,5.23,15.26,12.46,17,23C1614.68,717.8,1614.83,721,1611.57,721.71Z"/><path class="cls-1" d="M1470.15,772.12c-1.38,4.81-21.9,21.17-26.65,21.23a4,4,0,0,1-4.08-2.07c-1.09-1.89.4-3.18,1.71-3.88,8.85-4.71,16.54-11,24.15-17.41a4,4,0,0,1,4.5-.62C1471.17,770,1470.43,771.14,1470.15,772.12Z"/><path class="cls-1" d="M1620,675.53c-3.32,2-4.65-2-6.26-4.22-2.81-6.34-6.71-12-10.48-17.79-1.22-1.88-5.07-4-1.42-6.48,3-2,6.3-1,8.18,2.31,3.4,6,6.61,12.11,9.9,18.17C1620.48,670.25,1623.06,673.71,1620,675.53Z"/><path class="cls-1" d="M1605.47,742.13c-6.14,5-13,8.44-21.16,7.68h-4.06c-3.41,0-7.51-.78-7.06-4.56.49-4.07,4.71-1.7,7.19-1.5,8.07.65,15.32-1,21.74-6.11,1.52-1.19,3.45-3.73,5.39-1.53C1609.59,738.49,1607.25,740.68,1605.47,742.13Z"/><path class="cls-1" d="M361.18,733.92c-.92,1.1-1.82,3-3.75,1.84a3.29,3.29,0,0,1-1.34-4.23c6.38-14.84.1-25.15-11.88-33.45-1.38-1-2.83-2.21-1.71-3.86s3.48-1.17,5.21-.88c7.48,1.26,15.53,11.45,17.06,21.45a25.86,25.86,0,0,1,.26,4.14C365.16,725.86,364.25,730.25,361.18,733.92Z"/><path class="cls-1" d="M364.83,633.26c-.47,3-2.57,2.48-4.23,1.64q-13.28-6.71-26.43-13.68c-2.35-1.24-4-3.36-2.55-5.93s3.77-1.28,5.67-.25q12,6.53,24,13.16A6.64,6.64,0,0,1,364.83,633.26Z"/><path class="cls-1" d="M427.1,709.08c-4.47.55-3.44-3.78-3.9-6.39A104.77,104.77,0,0,0,415.86,679c-.95-2.2-1.73-5.06,1-6.25,2.39-1,3.72,1.5,4.77,3.32A62,62,0,0,1,430,701.87C429.76,704.58,431.16,708.58,427.1,709.08Z"/><path class="cls-1" d="M479.86,790.74c-.69,3-2.81,3.08-4.49,2.35-9.92-4.33-18.78-10.18-25.59-18.77a3.19,3.19,0,0,1,4.52-4.49c7.58,6.81,15.92,12.6,24.18,18.5C479.24,788.87,479.51,790.09,479.86,790.74Z"/><path class="cls-1" d="M406.06,662.33c-.68-.11-1.34,0-1.72-.31-8.4-6.22-16.37-13-25.68-18a2.65,2.65,0,0,1,2.6-4.62c10.1,4,19.61,8.91,26.5,17.64C409.38,659.09,409.66,661.64,406.06,662.33Z"/><path class="cls-1" d="M442.74,757.87c-2.47,1-4-.39-5.25-2.39-5.38-8.89-7.37-18.84-8.82-29-.33-1.73,0-3.39,1.85-3.9,2.18-.61,3.64.61,4.1,2.73,2.16,9.95,4.16,19.94,8.87,29.11C444.14,755.72,444.32,757.21,442.74,757.87Z"/><path class="cls-1" d="M342.65,749.54c-2.63.4-5.34.39-8,.56-8.21,0-15.3-2.57-20.8-8.78-1.38-1.55-3.14-3.68-1.25-5.63,1.73-1.79,3.47.21,4.79,1.36a26.52,26.52,0,0,0,23.88,6.24c1.93-.4,4.78-1.41,5.18,1.73A4.21,4.21,0,0,1,342.65,749.54Z"/><path class="cls-1" d="M319.46,607.13c-1.66,1.33-3.38.29-5-1.12A51.76,51.76,0,0,1,299,581.9c-.61-2-1.48-5.08,1.95-5.22,2.58.18,3.34,1.68,4,3.14,3.48,7.95,8.42,15,13.75,21.74C320,603.17,321.84,605.23,319.46,607.13Z"/><path class="cls-1" d="M327.51,695.78c-9,6.11-15.33,13.92-18.1,24.64-.47,1.84-2.9,2.36-4.1-.37-3.62-8.19,10.92-28.81,18.81-28.59C329.22,691.49,328.72,695,327.51,695.78Z"/><path class="cls-1" d="M1587.82,616.79a4.59,4.59,0,0,1-2.73,4.07c-8.19,4.58-16.35,9.23-24.62,13.67-1.86,1-4.56,1.56-5.91-.54-1.79-2.77.65-4.55,2.72-5.72q12.27-6.88,24.73-13.43C1584.61,613.47,1587.26,612.91,1587.82,616.79Z"/><path class="cls-1" d="M1542.42,686.87c-9,7.29-19.53,11.81-31,18.14-.31-.83-.62-1.87-1.06-2.85a2.74,2.74,0,0,1,1.09-3.52c8.77-6.07,17.66-12,27.52-16.2a2.88,2.88,0,0,1,3.6.82A2.47,2.47,0,0,1,1542.42,686.87Z"/><path class="cls-1" d="M1542.19,643.05c-9.2,6.38-18.48,12.66-27.74,19a2.94,2.94,0,0,1-.9.2c-3.26-.74-2.24-3-1.48-5,2.16-5.5,21.56-18.08,27.79-18a4.37,4.37,0,0,1,2.83,1C1543.65,641.13,1543,642.51,1542.19,643.05Z"/><path class="cls-1" d="M1501.5,684c-2,7-4.16,13.89-6.17,20.85-.58,2-1.44,3.64-3.78,3.3-1.93-.29-2.54-1.85-2.19-3.64,2.25-11.56,4.67-23.05,13.19-33.29C1505.49,676.85,1502.52,680.3,1501.5,684Z"/><path class="cls-1" d="M1587.79,658c-7.9,9.84-18.9,15-29.64,20.52a2.94,2.94,0,0,1-2.72-.86,3.34,3.34,0,0,1,.56-4.4C1565.54,666.13,1575.71,660.21,1587.79,658Z"/><path class="cls-1" d="M1620.22,580.62c-2.43,9.93-8.45,18.69-16.23,26.34a3.39,3.39,0,0,1-4.5.27c-2-1.73-.54-3.64.62-4.9A91,91,0,0,0,1615.73,579c.59-1.24,1.36-2.61,2.88-2.38S1620.57,578.26,1620.22,580.62Z"/><path class="cls-1" d="M1624.51,494.83c0,4.29,0,8.57,0,12.86,0,1.29,0,2.74-1.9,2.85s-3.09-.61-3.18-2.63c-.48-11-1-21.92-1.39-32.89,0-1.25.16-3.09,2-2.68a4.82,4.82,0,0,1,2.71,2.65C1625.41,481.37,1624.31,488.18,1624.51,494.83Z"/><path class="cls-1" d="M1624.54,528q0,15.27-.1,30.55c0,2-.21,3.86-2.9,3.73s-2.45-2.45-2.5-4.15c-.13-5.09,0-10.18,0-15.28h.32c0-4.83,0-9.65,0-14.47,0-1.93.15-4,2.82-3.86C1624.23,524.61,1624.54,526.27,1624.54,528Z"/><path class="cls-1" d="M301.47,560.36v.11c-2.82,3-5.3,2-5.45-1.51-.45-10.44-.27-20.91-.26-31.37,0-1.74.75-3.16,2.89-2.91s2.53,1.89,2.56,3.52c.15,7.5.2,15,.26,22.52C301.49,553.94,301.47,557.15,301.47,560.36Z"/><path class="cls-1" d="M302,479.08c.23,4,.07,8.07.07,12.1h-.35c-.26,5.37-.47,10.75-.78,16.12-.09,1.57-.11,3.47-2.4,3.44a2.8,2.8,0,0,1-2.89-3.15c.11-9.68.11-19.36.54-29,.1-2.23,1.4-5.52,4.09-5.29C304,473.6,301.89,477,302,479.08Z"/><path class="cls-1" d="M1602.89,814.3c-4.74.55-6.42-1-7.37-3.48s-1-5,1.59-6.41c10.24-5.86,20.5-11.69,30.87-17.31,2.61-1.41,4.78.45,6,2.65s3.08,5.38.46,7.4C1624.36,804.92,1612.5,809.37,1602.89,814.3Z"/><path class="cls-1" d="M958.69,607.05V527.23h1.68v79.86Z"/><path class="cls-1" d="M958.78,723.39V643.46h1.58v79.94Z"/><path class="cls-1" d="M960.6,294.54v79.8h-1.69V294.44Z"/><path class="cls-1" d="M960.55,410.82v79.83h-1.68v-80Z"/><path class="cls-1" d="M959.4,402.47c-1.73-6.42-2-11.23.85-15.93C961.34,391.38,962.44,396.22,959.4,402.47Z"/><path class="cls-1" d="M959.86,633.45c-2.37-4.78-1.57-9.51-.36-14.25C962.54,623.9,961.08,628.7,959.86,633.45Z"/><path class="cls-1" d="M959.56,749.5c-2.12-4.73-1.55-9.36.55-14C961.36,740.25,962.16,744.93,959.56,749.5Z"/><path class="cls-1" d="M959.88,269.8c1.85,4.82,2.39,9.56-.38,14.12A19.28,19.28,0,0,1,959.88,269.8Z"/><path class="cls-1" d="M959.65,516.63c-2.57-4.6-1-9.21-.23-13.86C962.09,507.28,961.83,511.91,959.65,516.63Z"/><rect class="cls-2" x="1919" y="1079" width="1" height="1"/><rect class="cls-2" width="1" height="1"/><rect class="cls-2" y="1079" width="1" height="1"/><rect class="cls-2" x="1919" width="1" height="1"/></g><g id="Capa_3" data-name="Capa 3"><path d="M1156.63,465v111H1136.8V505.32l-19.51,14.91-16.18,12.53-16.17-12.53-19.51-14.91v70.74H1045.6V465l19.83,15.23,35.68,27.44,35.69-27.44Z"/><path d="M1283,556.55v19.83H1172.33V543.71a31.66,31.66,0,0,1,2.69-12.85,32.59,32.59,0,0,1,28.87-20H1252a13,13,0,0,0-1.11-25.85h-78.2V465.19h78.2a32.63,32.63,0,0,1,32.67,32.68,31.61,31.61,0,0,1-2.69,12.84,31.94,31.94,0,0,1-6.66,9.84,32.94,32.94,0,0,1-22.37,10h-47.9a12.92,12.92,0,0,0-11.58,12.85v12.85Z"/><path d="M1369.48,465a35.81,35.81,0,0,1,35.84,35.85v39.18a35.81,35.81,0,0,1-35.84,35.85h-34.26a35.81,35.81,0,0,1-35.85-35.85V500.88A35.81,35.81,0,0,1,1335.22,465Zm-34.26,19.83A16.25,16.25,0,0,0,1319,501v39.18a16.25,16.25,0,0,0,16.18,16.18h34.26a16.25,16.25,0,0,0,16.18-16.18V501a16.25,16.25,0,0,0-16.18-16.18Z"/><path d="M1529.51,531a31.49,31.49,0,0,1,2.7,12.84,32.63,32.63,0,0,1-32.67,32.68h-78.2V556.71h78.2a12.93,12.93,0,0,0,12.84-13A12.76,12.76,0,0,0,1501,530.86h-79.62V465.51H1523v19.83h-81.84V511h59.63a32.16,32.16,0,0,1,28.87,19.83Z"/></g></g></svg>