<svg xmlns="http://www.w3.org/2000/svg" viewBox="0 0 1920 1080"><defs><style>.cls-1{fill:#020202;}.cls-2{fill:#f2f2f2;}.cls-3{fill:#ccc;}</style></defs><g id="Capa_2" data-name="Capa 2"><g id="Capa_1-2" data-name="Capa 1"><path class="cls-1" d="M1524.47,214.05c-38-16.42-76.28-30.64-118.8-30.39-108.43.58-216.88.36-325.31.17-36.57-.06-27.47,6.21-44.73-25.58-13.43-24.76-29.15-33.23-56.37-32-13,.61-44.37,0-54.42,0a42.14,42.14,0,0,0-17.83,4.1c-15.11,13.52-22.15,30.34-31.67,45.45-4.35,6.9-10,8.15-17.39,8.14-111.28-.15-222.56.68-333.82-.47C478.9,183,438,196.39,397.34,213.41c-14.49,6.07-20.25,27.7-20.25,27.7s-1.89,565,0,571.87c0,17.14,0,17.14,16.69,17.21,7.46,0,14.91.13,22.36,0,4.17-.07,6.33,2.06,7.4,5.75s-1.84,4.33-4.23,5.14c-4,1.37-4.65,4.6-4.75,8.18l47.14,98.27c2.13,6.81,6.48,7.91,12.57,4.27,11.39-6.83,23.77-9.31,37-8.34,6.55.5,13.18-.13,19.77.2,11.1.57,21.42-1.81,31.69-6.07,13.46-5.57,27.31-10.21,41-15.26,27.4-11,55.56-19.74,84-27.75,45.39-13.56,91.78-21.94,138.77-27.35q46-6.12,92.33-7.74s36.07-1.29,48.09-1.15c25.45.3,50.93.83,76.27,3.77,85.88,5.8,169.5,22.65,250.62,51.59,9.67,3.45,19.63,6.16,28.84,10.8,13.19,4.93,26.42,9.74,39.53,14.83,4.82,1.88,9.67,4,14.78,4.09,19.46.25,38.91.3,58.37,0,8.13-.14,13.73-5,17.51-12,1.48-2.73,2.91-5.49,4.36-8.23,11.56-27.42,24.46-54.22,37.31-81,2-9.15,7.1-13.34,17-12.15,7.35.88,14.91-.28,22.34.18,8.53.52,9.94-4,9.92-11.13V235S1543.11,221.86,1524.47,214.05ZM469.65,938.8c-5.38,2.89-6.23-4.21-7.85-7.63-12.36-26.09-24.5-52.28-36.63-78.49-1-2.25-3.42-4.88-.24-7.07,4,.08,4.37,2.84,5.45,5.14,12.23,26.12,24.67,52.14,36.6,78.38C468.34,932.13,474.25,936.34,469.65,938.8Zm1053.9-122.37c-6-.27-12,.25-18,0-9.82-.49-16.31,3.87-20.34,12.64-2.87,6.21-6,12.29-9.08,18.43-11.7,25.47-23.47,50.9-35,76.43-2.1,4.66-5.2,6.19-10.07,6.14-16.06-.2-32.12-.12-48.19-.15a37.3,37.3,0,0,1-14.2-3,1279.79,1279.79,0,0,0-169.4-55.78,1048.8,1048.8,0,0,0-150.16-22.71c-25.4-2-51-2.71-76.45-3.06l-22.5-.56a1199.64,1199.64,0,0,0-122.61,8.08c-93,11.1-182.23,36.21-268.7,71.63-10.56,4.33-21.14,6.8-33.16,5.47,2.79-5.36,8.59-5.43,12.62-8.08,2.37-1.58,5-2.8,7.31-4.45a3,3,0,0,0,1.22-3.78c-.9-1.86-2.53-2.11-4.33-1.36q-6.3,2.63-12.59,5.29c-12.93,7-25.31,15.63-41.39,12.54-3.18-.61-6.26-.51-7.82-4q-10.69-23.8-21.42-47.59-8.55-17.71-17.12-35.44c-.24-.51-.8-1.12-.68-1.54,2.2-8.08,10.84-6.43,15.86-10.34,2.71-2.1,4.91-1.51,6.64,2.07,5.21,10.78,9.88,21.84,17.2,31.55,13.22,17.53,30.81,27.89,51.93,32.53,6.07,1.34,11.61,2.42,13.91,9.32,1,3.09,3.68,6,7.19,4.27s.21-4.57-.7-6.48c-1.55-3.24-1.21-4.78,2.52-5.14,4.19-.4,8.38-.91,12.73-1.38-.58,3-3,3.63-4.8,4.91s-4.34,2.45-2.79,5.32c1.43,2.64,4.18,2,6.13,1.11,8.55-3.94,17.88-7,25.21-12.64,8.33-6.35,17.38-9.38,27.07-12,55.66-15.2,111.26-30.61,168.06-41.19a803.34,803.34,0,0,1,114.26-13c20-.82,40-2.79,60.14-1.49,35.1-1,70,1.87,104.91,5.26a379.67,379.67,0,0,1,41.55,5.32l16.72,3c3.21-.69,6.06.59,8.94,1.69,8.15,1,16.29,2.13,24.06,5,3.68-.54,7,.59,10.36,2,6.44,1,12.91,1.87,19,4.55,29.49,5.49,58.2,14.16,87.21,21.62,25.42,6.53,50.52,14.55,76.19,19.91,41.29,8.64,79.17-10.74,98.41-48.46.9-1.74,2.06-3.36,3.1-5,12.81-30.8,28.29-60.37,42.56-90.48,9.86-20.8,15.24-42.3,15.43-65.22.15-19.72.45-39.43.69-59.15l0-75.72c-.22-42.12-1.28-84.27-.32-126.36.51-22.43-10.28-35.7-28.74-44.25-21.6-10-44.73-15.82-67.64-21.83-80.31-21.12-161.43-38.44-243.74-49.62A1429.92,1429.92,0,0,0,970.1,298l-26.34-.44a1574.75,1574.75,0,0,0-322.25,36.14c-57.29,12.43-114.57,24.87-170.14,43.91-5.93,2-12,4.21-17.33,7.38-14.85,8.78-24.13,20.19-23.63,39.42,1,39.25.18,78.56,0,117.85,0,2.55-.38,5.09-.59,7.64,1.44,28,.87,56.1.51,84.15q0,30.21,0,60.41c-.29,31.42,15,57.78,27.75,84.93,5.71,12.13,11.38,24.28,17.55,36.18,2.44,4.69,1.95,7.31-2.95,9.24a61.38,61.38,0,0,0-7.73,3.67c-5,2.78-8.78,4.12-11.72-3.22-2.51-6.26-8.82-8.66-15.57-8.78-7.15-.11-14.31-.19-21.46,0-3.84.12-5.73-.8-5.7-5.15q.42-58.32.58-116.66,0-31.15-.06-62.34l0-82.1c-.13-10.31-.38-20.62-.39-30.93q-.06-132,0-264.07c0-22.67,2.57-26.26,23.57-34.13,22.46-8.42,44.42-18.47,68.62-21.44a279,279,0,0,1,34.3-2.14c112.14,0,224.29-.26,336.44.38,17.71.11,29.57-5.64,37.41-21.29,4.22-8.42,9.51-16.32,14.4-24.4s11.75-12.17,21.34-11.92l61.47-.1c14.3-1.41,24.06,4.64,30.49,17.38,4,7.9,9.4,15.07,13.49,22.92,6.41,12.26,15.91,17.24,29.92,17.19,113.86-.32,227.73.28,341.6-.42,40.77-.25,77.52,12.89,113.84,28.75,9.44,4.12,12.35,12.85,12.35,22.73q0,74.82,0,149.66-.09,75.69-.35,151.37,0,41.34.05,82.66.15,88.88.4,177.73C1530.07,815.29,1528.2,816.63,1523.55,816.43ZM418,549.86q-1.57-67,0-134.06c.33-14.05,11.89-21.2,23-26.46,21.52-10.14,44.67-15.76,67.55-21.87A2045.51,2045.51,0,0,1,725.62,321.7c64.3-9.88,129-15.89,194.13-16.46l5.16-.07c15.79-.3,15.9-.31,15.89,15.28q-.1,110.48-.3,220.94c0,1.7-.32,3.39-.5,5.09.21,9.13.59,18.27.59,27.41q0,120.76,0,241.52c0,4.33-.16,6.71-5.64,6.77-34.68.41-69.21,3.41-103.69,6.91A1208.53,1208.53,0,0,0,700.48,856c-14.9,3.89-29.85,7.63-44.78,11.43-1.66.43-3.81,1.72-4.92,1.13-11.18-6.21-18.91,3.61-28.26,5.78a274.52,274.52,0,0,1-64.93,18.14c-7.07,1.11-11.2-1-13.68-8-1.25-3.49-2-10.8-7.2-8.52-6.53,2.84.58,7.47,1.19,11.41a24,24,0,0,0,.82,2.76c-3.18,1.81-6.08.27-8.85-.6C507.25,882.52,489.5,869,479,847.68c-17.69-35.86-34.63-72.09-51.41-108.4a96.72,96.72,0,0,1-9.36-41.48c-1.49-21.79-1-43.58-.31-65.38C417.12,604.9,417,577.38,418,549.86ZM947.2,457.18c-.09-48.44.16-96.89-.05-145.33,0-5.2.85-6.93,6.35-7,19.85-.14,20-.35,20,19.17q0,243.81-.13,487.64c0,3.39,2,7.8-2.2,10.15-4.58,2.6-9-.55-9.29-6.05-.15-3,.83-6.21-1-9.5-3.65,2.14-1.86,5.58-2.34,8.31-.67,3.88-.94,7.65-6.72,7.52-6-.15-4.31-4.35-4.34-7.27-.08-9.72.22-19.45.37-29.17a5.39,5.39,0,0,1,0-5.33,10.27,10.27,0,0,1,0-6.77,549.79,549.79,0,0,1,.05-62.1c-.89-5.72-.5-11.43,0-17.16a8.52,8.52,0,0,1,0-6.77,180.32,180.32,0,0,1,0-27.5c-1.23-27-1.32-54,0-81,0-1.17,0-2.35,0-3.51v-3.18C947.64,534,947.28,495.58,947.2,457.18ZM980.59,769.9q0-228.36-.22-456.71c0-6.67,1.44-8.39,8.37-8.35a1415.13,1415.13,0,0,1,167.15,11.38c73.83,9.26,146.63,24.2,218.9,41.69,32.76,7.92,65.41,16.3,97.11,28a62,62,0,0,1,21.26,12.59c5.57,5.16,10.29,11.08,10.29,19.1,0,44.14-.21,88.27-.34,132.4q1.37,41.16,0,82.31c.27,32,3.81,64.18-5.71,95.53-5.59,18.41-15.29,35.08-23.34,52.45-8.66,18.68-17.67,37.2-26.63,55.74-1.16,2.42-1.27,5.8-4.86,6.47-.17,7.41-4.73,12.83-9,18-21.48,26.28-49.46,37.65-82.42,29.75-49.13-11.79-97.71-25.85-146.53-38.95L1154,840.13c-37.38-7.45-75.1-12.33-113-15.68-18.33-.77-36.65-1.68-55-2.19-4.49-.12-5.82-1.38-5.72-5.92C980.63,800.87,980.59,785.38,980.59,769.9Z"/><path class="cls-2" d="M1503.06,632.31q1.47-41.16,0-82.31c.13-44.13.33-88.26.34-132.4,0-8-4.72-13.94-10.29-19.1a62,62,0,0,0-21.26-12.59c-31.7-11.7-64.35-20.08-97.11-28-72.27-17.49-145.07-32.43-218.9-41.69a1415.13,1415.13,0,0,0-167.15-11.38c-6.93,0-8.38,1.68-8.37,8.35q.33,228.36.22,456.71c0,15.48,0,31-.31,46.44-.1,4.54,1.23,5.8,5.72,5.92,18.33.51,36.65,1.42,55,2.19,37.94,3.35,75.66,8.23,113,15.68l50.55,11.2c48.82,13.1,97.4,27.16,146.53,38.95,33,7.9,60.94-3.47,82.42-29.75,4.27-5.2,8.83-10.62,9-18,3.59-.67,3.7-4,4.86-6.47,9-18.54,18-37.06,26.63-55.74,8-17.37,17.75-34,23.34-52.45C1506.87,696.49,1503.33,664.28,1503.06,632.31Zm-162.9,207.25c-3.3,1.63-5.38,8.34-9.15,5.25-3.25-2.67,2.12-6.1,3.79-9.17,1.44-2.67,4.3-5.39,2.37-8.51-1.7-2.77-5.24-1.19-8-1.68-8-1.45-11.12,1.41-10.54,9.81a113.22,113.22,0,0,1-1.77,29.46c-.61-.89-1.9-2-1.72-2.66,2.14-8.78-1.45-12.34-10.18-13.43-5.46-.69-8.61-6.18-12.44-10-1-2.64-2.43-5.22-2.88-8-.71-4.31-2.63-6.16-7-5-1.82.5-4.09.48-4.26-1.43-.27-3,2.64-2.3,4.4-2.32,8-.09,16.08-.42,24.06.13,6.18.41,9.45-1.17,8.11-7.82-.74-3.7,2.68-9.12-1.5-10.79-3.77-1.5-7.87,2.27-11.26,4.94a8.67,8.67,0,0,1-.66.57c-3.33,2.12-6.63,9.15-9.95,5.18s3.28-8,6.39-11.34a14.19,14.19,0,0,1,5-3.2c6.36-2.59,14.36-3.2,13.89-13.92,2.07,6.33,2.88,12,10.71,13.11-3,4-8.68,3.19-8.67,9.65,0,14-.73,13.83,13.49,13.74,4.3,0,6.08-1,4.36-5.26-1.06-2.66-3-5.84.79-7.27s4.57,2.49,5.73,4.92c1.83,3.87,1.7,3.93,13.79,10.4C1343.66,821.75,1344.19,833,1340.16,839.56Z"/><path class="cls-2" d="M940.8,320.45c0-15.59-.1-15.58-15.89-15.28l-5.16.07c-65.13.57-129.83,6.58-194.13,16.46a2045.51,2045.51,0,0,0-217.09,45.77c-22.88,6.11-46,11.73-67.55,21.87-11.13,5.26-22.69,12.41-23,26.46q-1.56,67,0,134.06c-.95,27.52-.83,55,0,82.56-.69,21.8-1.18,43.59.31,65.38a96.72,96.72,0,0,0,9.36,41.48c16.78,36.31,33.72,72.54,51.41,108.4,10.49,21.27,28.24,34.84,50.86,41.91,2.77.87,5.67,2.41,8.85.6a24,24,0,0,1-.82-2.76c-.61-3.94-7.72-8.57-1.19-11.41,5.21-2.28,5.95,5,7.2,8.52,2.48,6.92,6.61,9.08,13.68,8a274.52,274.52,0,0,0,64.93-18.14c9.35-2.17,17.08-12,28.26-5.78,1.11.59,3.26-.7,4.92-1.13,14.93-3.8,29.88-7.54,44.78-11.43a1208.53,1208.53,0,0,1,130.77-26.94c34.48-3.5,69-6.5,103.69-6.91,5.48-.06,5.65-2.44,5.64-6.77q-.12-120.76,0-241.52c0-9.14-.38-18.28-.59-27.41.18-1.7.49-3.39.5-5.09Q940.68,430.93,940.8,320.45ZM580.86,764.86a195.93,195.93,0,0,1,30-14.64c2.62-1.05,3.72.06,3.72,3.19.13,1.89-1.48,3.2-3.28,4.09-9,4.35-17.95,8.71-27,12.79-1.67.76-4.39,2.46-5.71-.44C577.59,767.84,579,766,580.86,764.86Zm-71.31,40.87c-2.59,2.95-4.46,5.45-9.83,5-4.69-.39-9.73,3.78-14.66,5.8-2.07.85-4.49,1.94-5.67-1.19-1-2.59,1.15-3.33,2.93-4.25,4.5-2.32,9-4.69,13.47-7a97.39,97.39,0,0,1,10.15-4.15c2.7-.79,6.14-4.39,8.27-.92C516.52,802.75,511.3,803.51,509.55,805.73Zm19.29,55.83a2.82,2.82,0,0,1-3.58-1.64c-4.73-10.06-9.41-20.16-13.89-30.34-.41-.94.31-3,1.19-3.75,1.19-1.11,2.85-.26,3.66,1,6.27,9.63,10.25,20.29,14.09,30C530,859.23,530.57,860.93,528.84,861.56ZM532.43,794c-.89.46-3.24.94-3.57-1-.39-2.29,2.14-3.1,3.32-4.61,8.09-4,16.16-8,24.28-11.88,3-1.44,6.18-3.44,9,.35C556,785.6,543.41,788.23,532.43,794Zm101.5,19.66c-6.87,3.42-13.71,7.09-20.93,9.6-6.14,2.13-6.71,5-3.44,9.81,1.81,2.69,1.65,7.77,5.49,7.74s5.49-4.55,7.2-7.79a34.17,34.17,0,0,0,2.3-6.43c.75-2.59,1.76-5.54,4.91-4.58s2,4.4,1.61,6.73c-1,5.45-3,11-7.56,14-6.34,4.21-7.6,8.37-2.88,14.4.77,1,.51,2.76.73,4.17-4.26.66-4.12-3.3-5.37-5.45-2.28-3.88-4.37-7.56-12.47-5.55,9.2-8.1,3.13-13.63.93-19.53-.94-2.54-2.71-2.45-4.84-1.42-3.08,1.49-6.21,2.91-9.38,4.22s-5,3-1.83,6.21c1.54,1.6,3.72,3.68,1.13,5.67-1.8,1.38-4.28-.36-5.13-1.94-3.1-5.75-7-4.45-11.31-1.93-1.08.62-2.71,1.59-3.42-.29-.23-.61,1-1.76,1.59-2.67,5.2-.74,6.69-3.63,4.9-8.45-2.27-6.06-.85-11.81,1.68-17.38.81-1.79,2.3-4.07,4.39-3.34s3.24,3.11,2,5.7c-.24.52-.45,1.06-.67,1.58-2.05,4.94-3.93,11.78.3,14.3,4.85,2.89,10-3.44,15.09-5.41,3.25-1.26,1-3.84.18-5.78q-5.48-12.54-11.1-25c-.7-1.55-2-2.88-.56-4.62,5.74-1.06,3.56,8.56,8.82,6.93a24.17,24.17,0,0,1,11.76-.75c5.36,1,10.89,2.73,14.38,7,4.67,5.68,9.26,9.31,17,3.76C639.47,812.19,636.12,812.57,633.93,813.67Zm15.25-41.33c-2.44,1-4-.46-5-2.14-2.74-5-5.16-10.17-7.74-15.27-1.38-2.75-2-6-5.38-7.38-2.48-1-4-2.7-1.59-5.13,2-2,4.85-4.74,7.24-1.57,6.37,8.47,10.71,18.13,14.43,27.44C651.13,770.41,650.74,771.68,649.18,772.34Zm3.61,16,4.21-2.11c7.73,9.38,10.5,21.13,15.21,31.93.58,1.31.94,2.91-.92,3.52-2.78.91-4.25-.89-5.23-3.1C661.6,808.55,657.21,798.45,652.79,788.37Zm24.11,67.47c-3.75,2-7.66,3.77-11.6,5.41-1.86.78-4.33.89-5.41-1-1.21-2.08.66-3.65,2.28-4.91.44-.35.92-.66,1.39-1,1.47-1,13.47-17.09,13.76-18.91,5.7,2.71,7.5,8.22,8.07,13.09C685.91,853.07,680.29,854,676.9,855.84Z"/><path class="cls-1" d="M1343.36,814.64c-1.16-2.43-2-6.34-5.73-4.92s-1.85,4.61-.79,7.27c1.72,4.31-.06,5.24-4.36,5.26-14.22.09-13.47.26-13.49-13.74,0-6.46,5.66-5.68,8.67-9.65-7.83-1.07-8.64-6.78-10.71-13.11.47,10.72-7.53,11.33-13.89,13.92a14.19,14.19,0,0,0-5,3.2c-3.11,3.38-9.82,7.24-6.39,11.34s6.62-3.06,9.95-5.18a8.67,8.67,0,0,0,.66-.57c3.39-2.67,7.49-6.44,11.26-4.94,4.18,1.67.76,7.09,1.5,10.79,1.34,6.65-1.93,8.23-8.11,7.82-8-.55-16-.22-24.06-.13-1.76,0-4.67-.68-4.4,2.32.17,1.91,2.44,1.93,4.26,1.43,4.33-1.21,6.25.64,7,5,.45,2.75,1.89,5.33,2.88,8,3.83,3.78,7,9.27,12.44,10,8.73,1.09,12.32,4.65,10.18,13.43-.18.71,1.11,1.77,1.72,2.66a113.22,113.22,0,0,0,1.77-29.46c-.58-8.4,2.51-11.26,10.54-9.81,2.72.49,6.26-1.09,8,1.68,1.93,3.12-.93,5.84-2.37,8.51-1.67,3.07-7,6.5-3.79,9.17,3.77,3.09,5.85-3.62,9.15-5.25,4-6.53,3.5-17.81,17-14.52C1345.06,818.57,1345.19,818.51,1343.36,814.64Zm-31.24,29c-5.3.57-16.83-10.43-15.49-15,1.76-6.07,7.62-2.75,11.58-3.08,6.91-.56,6.94-.14,7,10C1313.57,837.62,1318.38,843,1312.12,843.62Z"/><path class="cls-1" d="M622.47,803.41c-3.49-4.25-9-6-14.38-7a24.17,24.17,0,0,0-11.76.75c-5.26,1.63-3.08-8-8.82-6.93-1.4,1.74-.14,3.07.56,4.62q5.65,12.46,11.1,25c.86,1.94,3.07,4.52-.18,5.78-5.12,2-10.24,8.3-15.09,5.41-4.23-2.52-2.35-9.36-.3-14.3.22-.52.43-1.06.67-1.58,1.2-2.59.17-4.93-2-5.7s-3.58,1.55-4.39,3.34c-2.53,5.57-4,11.32-1.68,17.38,1.79,4.82.3,7.71-4.9,8.45-.57.91-1.82,2.06-1.59,2.67.71,1.88,2.34.91,3.42.29,4.35-2.52,8.21-3.82,11.31,1.93.85,1.58,3.33,3.32,5.13,1.94,2.59-2,.41-4.07-1.13-5.67-3.12-3.25-1.45-4.86,1.83-6.21s6.3-2.73,9.38-4.22c2.13-1,3.9-1.12,4.84,1.42,2.2,5.9,8.27,11.43-.93,19.53,8.1-2,10.19,1.67,12.47,5.55,1.25,2.15,1.11,6.11,5.37,5.45-.22-1.41,0-3.19-.73-4.17-4.72-6-3.46-10.19,2.88-14.4,4.59-3,6.58-8.56,7.56-14,.42-2.33,1.59-5.74-1.61-6.73s-4.16,2-4.91,4.58a34.17,34.17,0,0,1-2.3,6.43c-1.71,3.24-3.29,7.75-7.2,7.79s-3.68-5.05-5.49-7.74c-3.27-4.82-2.7-7.68,3.44-9.81,7.22-2.51,14.06-6.18,20.93-9.6,2.19-1.1,5.54-1.48,5.52-6.5C631.73,812.72,627.14,809.09,622.47,803.41ZM607.81,821.7c-2.1,1.1-3.5-.41-4.41-2.64-1.59-3.95-3.52-7.77-5.41-11.59-2.13-4.28-.87-5.9,3.8-5.14a63,63,0,0,1,7.58,1.2c5.36,1.53,12.22,4.42,11.81,9.54C620.74,818.53,612.64,819.16,607.81,821.7Z"/><path class="cls-1" d="M509.55,805.73c-2.59,2.95-4.46,5.45-9.83,5-4.69-.39-9.73,3.78-14.66,5.8-2.07.85-4.49,1.94-5.67-1.19-1-2.59,1.15-3.33,2.93-4.25,4.5-2.32,9-4.69,13.47-7a97.39,97.39,0,0,1,10.15-4.15c2.7-.79,6.14-4.39,8.27-.92C516.52,802.75,511.3,803.51,509.55,805.73Z"/><path class="cls-1" d="M676.9,855.84c-3.75,2-7.66,3.77-11.6,5.41-1.86.78-4.33.89-5.41-1-1.21-2.08.66-3.65,2.28-4.91.44-.35.92-.66,1.39-1,1.47-1,13.47-17.09,13.76-18.91,5.7,2.71,7.5,8.22,8.07,13.09C685.91,853.07,680.29,854,676.9,855.84Z"/><path class="cls-1" d="M671.29,821.71c-2.78.91-4.25-.89-5.23-3.1-4.46-10.06-8.85-20.16-13.27-30.24l4.21-2.11c7.73,9.38,10.5,21.13,15.21,31.93C672.79,819.5,673.15,821.1,671.29,821.71Z"/><path class="cls-1" d="M565.51,776.9c-9.47,8.7-22.1,11.33-33.08,17.11-.89.46-3.24.94-3.57-1-.39-2.29,2.14-3.1,3.32-4.61,8.09-4,16.16-8,24.28-11.88C559.47,775.11,562.64,773.11,565.51,776.9Z"/><path class="cls-1" d="M614.55,753.41c.13,1.89-1.48,3.2-3.28,4.09-9,4.35-17.95,8.71-27,12.79-1.67.76-4.39,2.46-5.71-.44-.92-2,.53-3.87,2.35-5a195.93,195.93,0,0,1,30-14.64C613.45,749.17,614.55,750.28,614.55,753.41Z"/><path class="cls-1" d="M651.17,768.29c0,2.12-.43,3.39-2,4.05-2.44,1-4-.46-5-2.14-2.74-5-5.16-10.17-7.74-15.27-1.38-2.75-2-6-5.38-7.38-2.48-1-4-2.7-1.59-5.13,2-2,4.85-4.74,7.24-1.57C643.11,749.32,647.45,759,651.17,768.29Z"/><path class="cls-1" d="M530.31,856.77c-.29,2.46.26,4.16-1.47,4.79a2.82,2.82,0,0,1-3.58-1.64c-4.73-10.06-9.41-20.16-13.89-30.34-.41-.94.31-3,1.19-3.75,1.19-1.11,2.85-.26,3.66,1C522.49,836.44,526.47,847.1,530.31,856.77Z"/><path class="cls-1" d="M961.11,709v84.82h-1.73V709Z"/><path class="cls-1" d="M961.06,337v85.3h-1.72V337Z"/><path class="cls-1" d="M961.35,460.94v85.18l-1.53,0V461Z"/><path class="cls-1" d="M961.21,584.94v84.87l-1.72,0V584.9Z"/><path class="cls-1" d="M960.29,450.25c-2.39-5.2-1.89-10.34.05-15.49A20.89,20.89,0,0,1,960.29,450.25Z"/><path class="cls-1" d="M959.6,311c2.95,6.12,3,8.45.63,16.21C957.32,321.28,958.66,316.08,959.6,311Z"/><path class="cls-1" d="M958.72,697.74l-.48-6.83c.9-2.63-.78-5.77,1.54-8.17C963.2,688.81,962.79,694.41,958.72,697.74Z"/><path class="cls-1" d="M958.76,573.83l-.5-6.8c1.16-2.63-1.23-6.11,1.93-8.41C963.11,566.47,962.68,570.79,958.76,573.83Z"/><path class="cls-1" d="M470.68,330.43a49.22,49.22,0,1,1,49.22-49.22A49.28,49.28,0,0,1,470.68,330.43Zm0-91.55A42.33,42.33,0,1,0,513,281.21,42.38,42.38,0,0,0,470.68,238.88Z"/><path class="cls-1" d="M1450.1,330.43a49.22,49.22,0,1,1,49.22-49.22A49.28,49.28,0,0,1,1450.1,330.43Zm0-91.55a42.33,42.33,0,1,0,42.33,42.33A42.38,42.38,0,0,0,1450.1,238.88Z"/><path class="cls-1" d="M960.39,274.41a41,41,0,1,1,41-41A41,41,0,0,1,960.39,274.41Zm0-75.08a34.1,34.1,0,1,0,34.1,34.09A34.13,34.13,0,0,0,960.39,199.33Z"/><rect class="cls-2" x="1919" y="1079" width="1" height="1"/><rect class="cls-2" width="1" height="1"/><rect class="cls-2" y="1079" width="1" height="1"/><rect class="cls-2" x="1919" width="1" height="1"/></g><g id="Capa_3" data-name="Capa 3"><path class="cls-3" d="M491,608l-5.78,20.49-2.81,10-7.31,25.71H464.61l7.31-25.71,2.81-10L480.52,608Z"/><path class="cls-3" d="M555.25,606.81v56.24h-10V627.22l-9.88,7.55-8.2,6.35-8.19-6.35L509,627.22v35.83H499V606.81l10,7.71,18.08,13.9,18.08-13.9Z"/><path class="cls-3" d="M582.57,625.53v38.25H572.52v-39.3a8,8,0,0,0-6.82-6.83h-2.25v-10h2.16v.08a17.95,17.95,0,0,1,14.95,10.05,22.07,22.07,0,0,1,1.37,3.77,16.94,16.94,0,0,1,.48,4.1Z"/><path class="cls-3" d="M646.45,653.17v10H590.36V646.66a16.08,16.08,0,0,1,1.37-6.51A16.51,16.51,0,0,1,606.35,630H630.7a6.56,6.56,0,0,0-.56-13.1H590.52v-10h39.62a16.52,16.52,0,0,1,16.55,16.55A16.33,16.33,0,0,1,642,634.93,16.69,16.69,0,0,1,630.62,640H606.35a6.54,6.54,0,0,0-5.86,6.51V653Z"/><path class="cls-3" d="M706.4,635a16.59,16.59,0,0,1-11.9,28.12H671.44A16.48,16.48,0,0,1,656.18,653a17.29,17.29,0,0,1-1.29-6.51,16.55,16.55,0,0,1,4.66-11.57,15.63,15.63,0,0,1-3.45-5.06,17.29,17.29,0,0,1-1.29-6.51A16.29,16.29,0,0,1,671,606.73h23.54a16.64,16.64,0,0,1,11.65,28.2Zm-12.3-4.9a6.56,6.56,0,0,0,.24-13.1h-23.7a6.55,6.55,0,0,0,.16,13.1h23.3Zm.08,23.06a6.62,6.62,0,0,0,6.59-6.59,6.55,6.55,0,0,0-6.19-6.59H671a6.54,6.54,0,0,0-6.19,6.51,6.62,6.62,0,0,0,6.59,6.59H694.5Z"/><path d="M579.54,447.59v111H559.71V487.88l-19.5,14.91L524,515.32l-16.18-12.53-19.51-14.91v70.74H468.51v-111l19.83,15.23L524,490.26l35.68-27.44Z"/><path d="M706,539.11v19.83H595.24V526.26a31.61,31.61,0,0,1,2.69-12.84,32.6,32.6,0,0,1,28.87-20h48.06a13,13,0,0,0-1.11-25.85H595.56V447.75h78.19a32.63,32.63,0,0,1,32.68,32.67,31.5,31.5,0,0,1-2.7,12.85,31.94,31.94,0,0,1-6.66,9.84,32.94,32.94,0,0,1-22.37,10H626.8A12.91,12.91,0,0,0,615.22,526v12.84Z"/><path d="M760.35,484.55v75.5H740.52V482.49A15.83,15.83,0,0,0,727,469H722.6V449.34h4.28v.15a35.55,35.55,0,0,1,13.48,3.65,35.17,35.17,0,0,1,16,16.18,40.82,40.82,0,0,1,2.7,7.46,32.92,32.92,0,0,1,.95,8.09Z"/><path d="M886.76,447.59v111H866.94V512.94H808.41a31.39,31.39,0,0,1-14.91-3.65,32.39,32.39,0,0,1-17.77-29V447.59h19.83v32.68a13.07,13.07,0,0,0,13,13H867.1V447.59Z"/></g></g></svg>