<svg xmlns="http://www.w3.org/2000/svg" viewBox="0 0 1920 1080"><defs><style>.cls-1{fill:#010101;}.cls-2{fill:#f2f2f2;}</style></defs><g id="Capa_2" data-name="Capa 2"><g id="Capa_1-2" data-name="Capa 1"><path class="cls-1" d="M970,480.45c-8.61-3.81-23.15-.64-23.15-.64-12.81,1.95-21.33,16.91-20.79,30.64.53,13.19,11.05,25.86,23.88,28.72a52.91,52.91,0,0,0,16.11-.69,35.53,35.53,0,0,0,12.61-7.09C995,516.61,990.27,489.08,970,480.45Zm-15.57,51c-10.38,0-20.7-11.81-20.45-23.32.3-12.18,11.21-23,23.35-23.05s23.5,11.71,23.42,24.12C980.65,522.18,969.59,531.54,954.43,531.48Zm15.57-51c-8.61-3.81-23.15-.64-23.15-.64-12.81,1.95-21.33,16.91-20.79,30.64.53,13.19,11.05,25.86,23.88,28.72a52.91,52.91,0,0,0,16.11-.69,35.53,35.53,0,0,0,12.61-7.09C995,516.61,990.27,489.08,970,480.45Zm-15.57,51c-10.38,0-20.7-11.81-20.45-23.32.3-12.18,11.21-23,23.35-23.05s23.5,11.71,23.42,24.12C980.65,522.18,969.59,531.54,954.43,531.48Zm25.77-77.11c-17.32-7.72-42.83-.84-42.83-.84-25.64,9.09-40.36,31.62-38.93,58.73,1.37,26,19,47.26,44.59,53.79a117.77,117.77,0,0,0,23.35.78c27.08-5.37,46.41-24.77,49.45-49.5C1019.21,489.78,1006.23,466.34,980.2,454.37Zm-8.7,103.41c-7.53,2.91-21.33,1.54-21.33,1.54-24.07-2.69-44-25.71-44-50.57,0-25.17,19.24-45.17,43.82-51.07,7.58-1.84,17.08.53,17.08.53,23.84,4.69,41.51,26.53,41.36,51C1008.28,531.09,992.91,551.48,971.5,557.78ZM970,480.45c-8.61-3.81-23.15-.64-23.15-.64-12.81,1.95-21.33,16.91-20.79,30.64.53,13.19,11.05,25.86,23.88,28.72a52.91,52.91,0,0,0,16.11-.69,35.53,35.53,0,0,0,12.61-7.09C995,516.61,990.27,489.08,970,480.45Zm-15.57,51c-10.38,0-20.7-11.81-20.45-23.32.3-12.18,11.21-23,23.35-23.05s23.5,11.71,23.42,24.12C980.65,522.18,969.59,531.54,954.43,531.48Zm25.77-77.11c-17.32-7.72-42.83-.84-42.83-.84-25.64,9.09-40.36,31.62-38.93,58.73,1.37,26,19,47.26,44.59,53.79a117.77,117.77,0,0,0,23.35.78c27.08-5.37,46.41-24.77,49.45-49.5C1019.21,489.78,1006.23,466.34,980.2,454.37Zm-8.7,103.41c-7.53,2.91-21.33,1.54-21.33,1.54-24.07-2.69-44-25.71-44-50.57,0-25.17,19.24-45.17,43.82-51.07,7.58-1.84,17.08.53,17.08.53,23.84,4.69,41.51,26.53,41.36,51C1008.28,531.09,992.91,551.48,971.5,557.78ZM970,480.45c-8.61-3.81-23.15-.64-23.15-.64-12.81,1.95-21.33,16.91-20.79,30.64.53,13.19,11.05,25.86,23.88,28.72a52.91,52.91,0,0,0,16.11-.69,35.53,35.53,0,0,0,12.61-7.09C995,516.61,990.27,489.08,970,480.45Zm-15.57,51c-10.38,0-20.7-11.81-20.45-23.32.3-12.18,11.21-23,23.35-23.05s23.5,11.71,23.42,24.12C980.65,522.18,969.59,531.54,954.43,531.48Zm789.53-185c-7.18-2.64-14.67-2.72-22.13-2.68-17.25.08-34.51.39-51.76.43-12,0-22.44,4-32.67,10.3-8.62,5.3-16.48,13-27.62,13.06-32.65.28-64.74,1.37-96.39-12.27-36.7-15.8-75-28.14-113.67-38.7-18.71-5.12-37-11.57-55.8-16.42-39.71-10.28-79.87-18.06-120.28-24.89-45.89-7.76-91.84-14.6-138.35-17.16-5.12-.28-10.17-1.1-14.72-3.74a12,12,0,0,1-7.51-6.12c-8.17-6.72-12.3-14.88-12.67-26-.9-27.3-16.5-42.47-41.66-42.12-14.63.22-26.3,6.3-29.39,18.13-3.36,12.75-8.25,26.84,6.3,37.05a6.54,6.54,0,0,1,2.89,5.82c-.33,11.7.53,23.41-1.7,35.06-1.94,10.15-8.19,15.76-17.46,19-8.82,2.15-19.94-.19-19.94-.19-9.5-2.66-16-9.64-16.31-18.67-.51-15.88-9.83-33.69,7.37-46.93a4.13,4.13,0,0,0,1-1.66c10.09-21.84-5.81-47.92-29.76-47.23-14.84.23-23.63,4.59-23.63,4.59-16,11.73-18.81,26-19.11,41.94-.29,15.42-16.93,29.32-35,30.62-26.94,1.93-53.77,4.88-80.55,8.23-127.17,16-249.32,51-368.63,96.76a68,68,0,0,1-24.69,4.9c-7.8,0-15.66-.47-23.42.2-23.21,2-44.46-2-63.15-17-6.38-5.14-14.63-6.69-23.05-6.67-16.93.06-33.87-.31-50.8-.35-10,0-20.19-.7-29.42,6.55-5.67,3.46-6.2,12.87-6.2,12.87V500.73c0,2.54-.51,5.12.9,7.27,9.6,14.65,9.09,30.91,7.78,47.34.22,11.67.94,23.36.49,35-.47,12,4.5,20.2,14.41,26.63,14.66,9.52,28.84,19.79,43.21,29.72,11.51,9.21,24.75,11.3,39,9.83,6.16-.62,11.4-2.15,14.31-8.15.24-16.89.61-33.8.65-50.7,0-6,1.35-11,7-13.88,5.92-3,11.32-1.68,16.21,2.51,7.29,6.25,15.7,8.29,25.26,8.13,22.11-.37,44.24.06,66.37-.14,14.47-.11,25,5.3,30.89,19.08l106.36,204.9c20,32.32,47.63,55.59,82.69,70.13,0,0,24.63,7.67,43.85,10.25S711.74,897,711.74,897c17.36-4,34.61-8.43,51.91-12.67,50.78-12.57,102-22.08,154.54-22.72,36-.43,93.8.39,93.8.39,40.47.65,80,7.92,119.38,16.56,23.41,5.14,46.5,11.79,69.88,17,34.9,7.8,69.06,4.91,102.12-9,3-1.25,6-2.31,9-3.46,39.69-20,65.44-52.46,84.83-91.76,23.82-48.25,49.63-95.51,74.57-143.17q10.59-20.85,21.18-41.71c5-9.89,14.35-11.67,24-11.86,18.22-.38,36.46-.49,54.7-.18,15.39.25,30.07,0,43.6-9.85,9.17-6.67,19.2.29,19.51,12.61.47,17.24.3,34.49.41,51.71,2.53,5.87,8,7.19,13.3,7.51,12,.72,24.11,1.41,34.7-6.1,16.48-11.46,32.79-23.19,49.53-34.28,9.58-6.31,14.33-14.31,13.9-25.9-.39-10.36.17-20.77.33-31.13.08-13.51-3.68-27.74,1.86-40.27,5.45-12.32,7.33-24.56,7.23-37.58l0-120.87S1751.11,349.11,1744,346.47Zm-727.8-36.39c10.91,1.43,21.93,2.1,33,2.51,4.93.19,7.57,1.64,9,6.64a169.54,169.54,0,0,0,7.79,20.92c2.38,5.52.72,6.71-4.77,6.59-13.34-.31-26.69-.1-40-.1v-.17c-13,0-26,0-39,0-2.09,0-4.89.82-5.67-2.27-.88-3.48,1.9-4.44,4.32-5.39,13.14-5.13,23.68-13.28,30.38-26C1012.15,310.81,1012.89,309.65,1016.16,310.08Zm17.77-19c7,.74,15.21-2,17.32,8.64.75,3.66.67,5.71-3.73,5.16-9.9-1.27-19.81-.86-30.46.51C1019.6,295.67,1023.72,290,1033.93,291.08Zm-14.7-4.77V228.73l2.79-.33c7,16.64,13.9,33.29,21,49.85,2.09,4.87-.14,5.48-4.22,5.38C1032.07,283.47,1025.25,282.63,1019.23,286.31Zm488,128.08c6.76-.92,8.6,3.34,11.08,8.37,9.78,19.77,9.92,39.34-.09,58.91-13.44,26.29-26,53-40.87,78.57-14.64,31-30.46,61.38-46.72,91.52-23.91,48.26-46.91,97-74,143.49-31.82,54.43-95.71,77.91-159.94,62-17.88-4.44-35.83-8.64-53.76-13-25.63-4.19-51.23-8.63-76.92-12.48-16.67-2.5-33.51-4.12-50.26-6.14-13.57-.92-27.12-2.05-40.71-2.68l-31.63,0c-9.68-.23-19.38.9-29.08,1.45-44.63,4.48-89,10.79-133,19.65,0,0-16.05,3.81-51.4,12.38s-58.2,5.22-58.2,5.22c-34.88-3-65.07-16.72-89.35-42.43-9.91-8.62-17.56-19.12-23.62-30.6-10.89-20.61-21.15-41.55-31.69-62.35-14.08-25.3-27.14-51.12-39.63-77.26-16.72-31-33.18-62.1-48.12-94-14.7-26.71-29.48-53.45-41.39-81.51-7.51-17.71-4.12-35.44,3.87-52.81,3.41-7.37,18.73-4.53,14.12-17.65,6.9-6.12,15-10.34,23.52-13.51,13.67-5.05,27.51-9.72,41.25-14.59a1505.11,1505.11,0,0,1,229-61.56c47.26-8.78,94.8-15.61,142.69-20.06,10.42-1,10.34-.67,6.53,9.36-4.72,12.44-9.92,24.75-13.69,37.48-12.81,43.21-42.43,76.37-66.63,112.79a43.84,43.84,0,0,0-3.32,4.81c-9.29,19-23.37,28.47-45.23,23.89-6.23-1.31-9.09,1.2-8.78,8.59.63,14.93.16,29.95-.27,44.91-.18,6.12,1.43,9.42,8.15,8.42,1.61-.25,3.31.22,4.87-.11,23.7-5.18,37.15,7,45.95,27,4.75,6.53,9.91,12.78,14.11,19.63,6.05,9.77,14,14.11,25.77,14l280.72-.12c10.52.12,18-3.72,23.68-12.26,8.6-12.92,17.81-25.48,26-38.65,4.48-7.18,9.84-10.5,18.3-9.86,7.72.61,15.52.32,23.31.41,4.51,0,7.13-1.48,7-6.84q-.61-23.89-.47-47.82c0-5.59-2.35-7.67-7.59-7.3-.64.06-1.33-.15-1.94,0-21.23,4.32-33.86-5.48-44.44-23.37-12.22-20.64-27.35-39.55-41.29-59.14-21.84-30.72-30.67-67-44.11-101.39-2.24-5.77,2.1-4.83,5.17-4.5,19.37,2,38.81,3.67,58.1,6.37,68.41,9.56,136.26,22,203,40.2q79.27,21.59,156.08,50.62a82.69,82.69,0,0,1,18.85,10.07c2.95,2.09,7.1,3.48,3,8.78C1500.54,412.83,1503.89,414.84,1507.27,414.39ZM1113.05,592.45c-2.19,2.69-5.18,3.63-8.62,3.61L816,595.93c-9.64,0-23.91-18.48-24.65-31.19-.18-3.21.21-6.45.33-9.68q-.18-50.26-.39-100.51c0-5.28,2.66-9.23,5.47-13.22,9.72-13.82,19.34-27.7,29.27-41.39,8.68-12,14.7-25.24,19.49-39.06,1.64-4.69,3.54-6.65,8.9-6.57l210.63.12c3.32,0,6.37-.53,7.7,3.83,9.42,30.83,30.34,54.86,48.35,80.55a36,36,0,0,1,6.84,22.62c-.53,31.22-.53,62.45-.72,93.65C1131.1,570.8,1121.83,581.55,1113.05,592.45Zm-360.9-97.27c0-2.17-.68-5.44,2.21-5.77,13.67-1.58,17.13-13.59,23.72-22.47,1.1-1.44,1.47-3.71,4.81-3.83v94.22c-4.75-2.62-6-6.84-8.29-10.11-4.26-6.14-9.07-11.16-17.19-11-4.28.09-5.49-1.8-5.41-5.89C752.23,518.62,752.1,506.91,752.15,495.18Zm-23.3-1c-.12-6.3,3.93-5.36,7.82-5.36s8-.41,7.7,5.69-.06,12.32-.06,18.48h-.07c0,4.53-.57,9.17.11,13.59,1.45,9.07-3.42,10.14-10.57,9.71-3.7-.23-5.11-1.33-5-5.16C729,518.85,729,506.52,728.85,494.22Zm435.51,41.68c-13.06-.13-18.09,9.7-24,18.56a11.82,11.82,0,0,1-1.84,2.25c-.41.37-1.15.35-2.52.72V460.12c5.86,8,10.4,14,14.68,20.2,2.29,3.28,5,7.31,8.62,7.37,10.29.16,8.82,6.8,8.68,13.27-.17,9.43-.09,18.83-.13,28.24C1167.82,532,1168.64,535.94,1164.36,535.9Zm26.82-23.56h-.49c0,4.87-.54,9.82.12,14.57,1.25,8.8-2.84,10.54-10.46,9.56-4-.51-5.55-1.51-5.46-5.87.32-12,.26-24-.05-36-.18-6.84,4.26-5.67,8.44-5.85,4.5-.17,8.55-.68,8,6.06C1190.83,500.65,1191.18,506.52,1191.18,512.34Zm-214.91-203c5.14-.62,10.4-.25,15.58-.39,2.23-.06,5,.45,5.91-2.25,1.13-3.32-1.76-3.4-3.87-4.1-3.11-1-3.07-3.13-1.1-5.11,9.31-9.34,9.76-21.5,10.54-33.45.51-7.78.31-15.6.41-23.4a20,20,0,0,0-7.13-16.29c-6.63-5.81-7.47-14.72-2.62-21.9,2.44-3.61,5.86-6.53,10.28-6.64,5.34-.14,5.06,5.16,6.47,8.44,2.91,6.83,1.55,14.08,1.55,21.18s0,14.31,0,23.65c-.61,12.11-.86,26.42-2.15,40.65-2,22.19-18.64,39.92-40.42,44.32-5.59,1.14-8.83,1-8.78-6.62C961.1,311.37,960.59,311.22,976.27,309.34Zm-13.1,33.06c1.7-1.15,5-3.6,5.63,1.23.51,3.6-2.11,4.17-5,4.13-1.61,0-3.23,0-6.18,0a24.21,24.21,0,0,1-5.36-.53,3.34,3.34,0,0,1-2.17-4.67c.74-2,2.39-1.47,4-.94C957.05,342.56,959.71,344.75,963.17,342.4ZM908.33,205.25c2.13-3.54,1.31-10.38,7.76-9.35,5.69.92,9.76,5,11.17,11,.51,2.19.47,4.52.88,8.8.43,2.23-.9,5.61-4.44,8.17-6.39,4.67-8.25,11-7.7,18.77.91,12.92-1.26,26,2.44,38.75,1.27,4.32,2.29,9.21,5,12.5,3.39,4,6.48,6.55-.58,9.52-.77.33-1.43,2.25-1.25,3.24.46,2.53,2.75,2.37,4.67,2.35a196.57,196.57,0,0,1,24.24,1.62c5.38.63,7,2,7.06,7.49.14,18.91-.66,19.81-18.07,12.4-20.37-8.72-29.89-25.09-30.83-46.65-1-22.41-1.48-44.82-2.17-67.22C906.42,212.72,906.24,208.73,908.33,205.25Zm0,108c7,11.81,16.37,20.82,29.7,25.14,2.7.86,4.83,2.58,4.48,5.54s-3.15,2.62-5.4,2.62H851.18c4.17-11.07,7.76-20.38,11.17-29.76,1.19-3.3,3.36-4,6.64-4.22,11.32-.67,22.74.17,33.94-2.12C905.69,310,907,311,908.33,313.29ZM873,291.94c10.91-5.42,24.58.45,28.94,12.73-8.9,0-17.56.15-26.22-.08-2.84-.08-7.57,2.54-8.08-2C867.25,298.82,868.88,294,873,291.94Zm29.41-95.16c-6.49,14.1-10.17,29.33-19.85,41.65C886.71,223.28,880.41,203.31,902.45,196.78ZM897,229.38l4.17.23v52.87c0,2.89-1.76,2.91-3.89,2.44-1.88-.41-3.8-.72-5.67-1.19-5.34-1.39-13.14,3.17-15.63-2.29-1.54-3.44,3.35-9.83,5.44-14.88Q889.13,248,897,229.38Zm842,271.41c-9.36,17.13-7.72,35.86-8.33,54.27.12,12.36.1,24.72.39,37.07.12,4.79-1.85,7.76-5.78,10.36q-25.66,16.93-51,34.34c-5.44,3.73-11.36,4.14-17.6,4.57-5.38.39-6.65-1.66-6.51-6.65.31-12-.43-24.1.23-36.11,1.45-26.45-26.82-41-47.49-25.59-6.45,4.81-13.33,5.9-21,6-23.76.26-47.53-1-71.27.65-20.55,1.43-30.73,15.25-38.91,31.89-32.82,66.69-66.57,132.95-102.5,198-32.52,58.85-104.58,87.55-169.53,70.06-53.42-14.37-107.07-27.51-162.38-32-22.68-1.84-45.47-2.21-68.23-2.93l-20.28-.06c-73.39-.43-145,11.59-215.41,31.57-31.7,9-63.23,11.68-95.1,1.94-40.81-12.45-71.74-37-91.54-75.16-33.18-64-67.1-127.65-99.54-192.05-11.77-23.36-28.39-33.82-54.35-32.24-19.45,1.19-39.05.2-58.58.31-6,0-11.38-1.11-16.36-4.94-10.34-8-21.59-10.19-33.67-3.7-11.89,6.36-15.17,16.93-14.9,29.51.26,11.39-.31,22.79.2,34.17.27,6.37-2.17,7.78-7.94,7.35-5.94-.45-11.46-1.39-16.56-4.85q-25.4-17.32-51.07-34.19c-3.93-2.58-6.16-5.36-6-10.19.49-12.34.76-24.67,1.13-37-.23-7.47-.56-14.94-.68-22.4-.14-8.88-1.1-17.46-5.65-25.38-2.62-4.6-3.34-9.72-3.34-15.06,0-40.35.19-80.72-.22-121.08-.1-9,3-12.08,11.87-11.85,19.84.49,39.71.41,59.57.26,7-.06,12.65,2.93,18.05,6.51,15.07,10,30.5,18.38,49.62,17.36,7.43-.39,12.73,6,19,9.23,4,2,7.86,4.55,11.83,6.76,2.15,1.21,4.77,3.72,6.61.41,1.39-2.48-.45-5-2.8-6.57-4.22-2.83-8.5-5.57-12.82-8.4.92-1.06,1.35-1.92,1.64-1.86,33.92,5.08,62.49-12.2,92.57-22.5,75.34-25.77,151-50.25,229.54-64.35,56.62-10.16,113.32-19.88,170.92-22.74,16.2-.82,29.71-6.41,38.65-20.76,1.11-1.8,2.07-4.24,6.51-3.91-4.67,11.63-9.09,22.89-13.8,34-1.22,2.87-4.38,2.25-6.92,2.46-85.33,7.06-169.34,22-252.26,43.07C549.19,343.13,492.51,361.8,436.5,382.6,424.77,387,414,392.86,405.72,402.48c-6.47,7.49-14.41,3.52-21.85,3.31-4.21-.12-10.6-4.64-11.95.72-1.58,6.24,6.55,5.18,10.48,7.29s10.32-2.26,12,2.76c1,3.05-2.77,7.59-4.1,11.56-6.81,20.09-5.24,39.7,4.14,58.59C405.1,508.22,416.12,529.57,427,551q45.12,87.66,90.26,175.33c10.56,20.47,20.87,41.08,31.58,61.47,33.9,64.62,103.9,95.16,174.61,77.35,73.85-18.6,148.75-30.89,225-34.26l21.06,0c47.18,1.83,93.83,7.85,140.3,16.09,33.88,6,67.18,14.64,101,20.92,63.64,11.8,128.94-20.67,159.09-79,41.28-79.77,82.08-159.76,123.1-239.66,10.65-20.75,21.43-41.43,32-62.24,11.29-22.28,12-44.79.86-67.43a40.22,40.22,0,0,1-1.6-4.71c7-.59,13.57-.59,19.53-3.48,1.86-.9,5.2-.94,4.6-4.05-.67-3.3-3.85-3.11-6.42-2.83-6.1.6-12.2,1.6-18.31,2.19-2.51.25-5.34.68-7.26-1.7-15-18.66-37.28-23.93-58.22-31.52C1366.64,340.27,1273,315.4,1176.93,300c-38.5-6.2-77.11-11.66-116-14.59-3.66-.27-7.19-.27-8.82-4.5-3.42-8.93-7-17.83-10.44-26.72-8.33-18.81-16.67-37.62-25.34-57.17,10.58,2.05,16.09,6.72,17.52,16.11,2,13.33,2.74,26.9,9.5,39,15.12,18.81,36,20.53,58.31,22.39,147.94,12.32,290.22,48.88,428.17,103a75.66,75.66,0,0,0,29.45,5.61c6.31-.12,12.63,0,21.93,0-6.27,4.42-10.14,7-13.9,9.85-2.25,1.68-5.77,3.56-3.52,6.79,1.84,2.66,4.67.33,6.88-1,2.8-1.66,5.58-3.32,8.35-5,10.31-6.33,20.63-11.43,33.55-11.14,13.55.33,24.58-7.8,35.35-15a46.29,46.29,0,0,1,28.39-8c17.23.49,34.49.35,51.73-.14,8.7-.25,12.42,2.76,12.36,11.69-.29,40.67-.21,81.34-.35,122C1740,495.69,1740.14,498.66,1739,500.79ZM980.2,454.37c-17.32-7.72-42.83-.84-42.83-.84-25.64,9.09-40.36,31.62-38.93,58.73,1.37,26,19,47.26,44.59,53.79a117.77,117.77,0,0,0,23.35.78c27.08-5.37,46.41-24.77,49.45-49.5C1019.21,489.78,1006.23,466.34,980.2,454.37Zm-8.7,103.41c-7.53,2.91-21.33,1.54-21.33,1.54-24.07-2.69-44-25.71-44-50.57,0-25.17,19.24-45.17,43.82-51.07,7.58-1.84,17.08.53,17.08.53,23.84,4.69,41.51,26.53,41.36,51C1008.28,531.09,992.91,551.48,971.5,557.78ZM970,480.45c-8.61-3.81-23.15-.64-23.15-.64-12.81,1.95-21.33,16.91-20.79,30.64.53,13.19,11.05,25.86,23.88,28.72a52.91,52.91,0,0,0,16.11-.69,35.53,35.53,0,0,0,12.61-7.09C995,516.61,990.27,489.08,970,480.45Zm-15.57,51c-10.38,0-20.7-11.81-20.45-23.32.3-12.18,11.21-23,23.35-23.05s23.5,11.71,23.42,24.12C980.65,522.18,969.59,531.54,954.43,531.48Z"/><path class="cls-2" d="M1518.35,422.76c-2.48-5-4.32-9.29-11.08-8.37-3.38.45-6.73-1.56-4.07-5,4.07-5.3-.08-6.69-3-8.78a82.69,82.69,0,0,0-18.85-10.07q-76.86-28.89-156.08-50.62c-66.72-18.18-134.57-30.64-203-40.2-19.29-2.7-38.73-4.34-58.1-6.37-3.07-.33-7.41-1.27-5.17,4.5,13.44,34.35,22.27,70.67,44.11,101.39,13.94,19.59,29.07,38.5,41.29,59.14,10.58,17.89,23.21,27.69,44.44,23.37.61-.12,1.3.09,1.94,0,5.24-.37,7.63,1.71,7.59,7.3q-.12,23.9.47,47.82c.13,5.36-2.49,6.8-7,6.84-7.79-.09-15.59.2-23.31-.41-8.46-.64-13.82,2.68-18.3,9.86-8.21,13.17-17.42,25.73-26,38.65-5.69,8.54-13.16,12.38-23.68,12.26l-280.72.12c-11.81.15-19.72-4.19-25.77-14-4.2-6.85-9.36-13.1-14.11-19.63-8.8-20.08-22.25-32.22-45.95-27-1.56.33-3.26-.14-4.87.11-6.72,1-8.33-2.3-8.15-8.42.43-15,.9-30,.27-44.91-.31-7.39,2.55-9.9,8.78-8.59,21.86,4.58,35.94-4.92,45.23-23.89a43.84,43.84,0,0,1,3.32-4.81c24.2-36.42,53.82-69.58,66.63-112.79,3.77-12.73,9-25,13.69-37.48,3.81-10,3.89-10.34-6.53-9.36-47.89,4.45-95.43,11.28-142.69,20.06A1505.11,1505.11,0,0,0,480.7,375.05c-13.74,4.87-27.58,9.54-41.25,14.59-8.56,3.17-16.62,7.39-23.52,13.51,4.61,13.12-10.71,10.28-14.12,17.65-8,17.37-11.38,35.1-3.87,52.81,11.91,28.06,26.69,54.8,41.39,81.51,14.94,31.89,31.4,63,48.12,94,12.49,26.14,25.55,52,39.63,77.26,10.54,20.8,20.8,41.74,31.69,62.35,6.06,11.48,13.71,22,23.62,30.6,24.28,25.71,54.47,39.45,89.35,42.43,0,0,22.84,3.32,58.2-5.22s51.4-12.38,51.4-12.38c44-8.86,88.36-15.17,133-19.65,9.7-.55,19.4-1.68,29.08-1.45L975,823c13.59.63,27.14,1.76,40.71,2.68,16.75,2,33.59,3.64,50.26,6.14,25.69,3.85,51.29,8.29,76.92,12.48,17.93,4.32,35.88,8.52,53.76,13,64.23,15.89,128.12-7.59,159.94-62,27.13-46.45,50.13-95.23,74-143.49,16.26-30.14,32.08-60.53,46.72-91.52,14.9-25.53,27.43-52.28,40.87-78.57C1528.27,462.1,1528.13,442.53,1518.35,422.76ZM1082,315c-2.76-.17-4.3-1.45-4.19-4.18a3.31,3.31,0,0,1,3.85-3.39c12.34.69,24.68,1.3,37,2.21,3,.22,5.2,2.33,6.9,6.73C1110.28,317.73,1096.14,315.89,1082,315Zm104,9.21c-.76,3.13-3.5,2.11-5.87,2.33-11.9-1.92-24-3.89-36.17-5.77-2.19-.35-3.87-1.39-3.83-3.52.06-2.85,2.45-3.89,4.83-3.58,12.49,1.72,25,3.52,37.44,5.59C1184.51,319.61,1186.7,321.37,1186,324.2ZM800.13,309.54q18.42-1.1,36.84-1.92c2.54-.12,4.63,1,4.44,3.85-.2,2.58-2.13,3.66-4.75,3.81-8.08.45-16.13,1.06-23.49,1.57-4.61,0-8.5-.12-12.39,0-2.76.1-4.36-1-4.42-3.78C796.32,310.69,798.12,309.65,800.13,309.54Zm-60.66,8.85c11.14-1.56,22.3-3.14,33.45-4.83,3-.45,5.36.3,6.1,3.21,1,4.07-2.43,3.68-4.81,4.07-11.11,1.8-22.23,3.54-32,5.1-3.91,0-7,.57-7.56-2.91S736.65,318.78,739.47,318.39Zm-300.74,88c-1.92.68-4.83,1.44-6-1.32-1-2.42.75-4.84,2.72-5.59,13.1-5,26-10.69,40.1-12.94.76,4.79-1.41,6.9-4.16,8Q455.18,400.68,438.73,406.36Zm45.61,103c-16.89.08-30.91-14-31-31.2s14.53-31.48,32.09-31.07,30.46,14,30.28,31.56C515.5,495.82,501.74,509.29,484.34,509.37Zm48.27-136c-12.24,4.21-24.52,8.35-36.34,12.38-2.17.55-3.76.35-4.5-1.49-.94-2.29.43-3.83,2.23-4.71a211.59,211.59,0,0,1,36.36-13.69c1.72-.46,4.09-.7,4.74,2C535.7,370.2,535.31,372.43,532.61,373.35ZM591.56,357a239.87,239.87,0,0,1-34.33,8.78c-2.31-.63-5.32,1.09-6.08-2s2-3.63,4.16-4.26q17.19-5,34.39-9.85c2.13-.61,4.6-1.72,5.59,1.48S594,356.09,591.56,357Zm61.86-17c-12.4,3.6-24.79,7.1-36.13,10.32-3-.49-5.4.43-5.89-2.36a3.52,3.52,0,0,1,2.19-3.93c12.22-5.34,24.89-9,38.29-9.74,1.5-.08,3.4.1,3.91,2.09S655.08,339.47,653.42,340Zm59.38-11c-11.4,3.74-23.29,4.91-36,6.94-1.29,0-4.08.28-4.51-2.6-.37-2.48,1.64-4.26,4-4.75q18.45-3.78,37-7.29c1.76-.33,3.36.35,3.67,2.23C717.49,326.62,715.61,328,712.8,328.93Zm534.47,4.65c-.6,3.45-4,2.19-6.53,2.12-11.45-1.74-22.93-3.41-34-7-2.6-.84-5.49-2.27-4.75-5.07.82-3,4-2.23,6.65-1.72,11.07,2.17,22.15,4.27,33.28,6.2C1245.26,328.68,1247.84,330.32,1247.27,333.58Zm60.63,14.3c-1,3.4-4.2,2.6-6.61,2-10.65-2.58-21.29-5.26-31.84-8.23-2.55-.72-6.77-1.15-6.16-4.91.66-4.06,4.79-1.87,8.07-2.93,10.38,2.78,21.31,5.57,32.14,8.72C1305.71,343.18,1308.92,344.49,1307.9,347.88Zm53.93,18.32c-11.15-3.11-22.68-6.28-34.16-9.56a4.23,4.23,0,0,1-3.27-5.21c.61-3.08,2.68-3,5.19-2.22q17.15,5.31,34.35,10.42c2,.6,4.08,1.37,3.85,3.63C1367.44,366.59,1364.33,365.22,1361.83,366.2Zm22.34,2.5c1.12-2.6,3.6-2.33,5.91-1.9,12.22,2.23,23.36,7.55,34.84,11.93,1.89.7,3.44,2.17,2.52,4.52-.82,2.05-2.68,3.14-4.71,2.44q-18.33-6.33-36.52-13.06C1384.8,372.12,1383.47,370.34,1384.17,368.7Zm50.09,140.22c-17.46-.25-30.83-13.76-30.73-31,.12-17.63,14.17-31,32.2-30.63,17.56.33,30.23,13.68,29.93,31.55C1465.37,496.39,1452.06,509.16,1434.26,508.92ZM1481,406.37c-11.32-3.85-22.58-7.89-33.78-12-2.08-.78-4.19-2.35-3.68-5.1.67-3.56,3.81-2.33,5.48-1.8,11.39,3.62,22.7,7.57,34,11.46a5.47,5.47,0,0,1,3.55,4.4C1486.27,407,1483.47,407.22,1481,406.37Z"/><path class="cls-1" d="M485.42,447.1c-17.56-.41-32.21,13.76-32.09,31.07s14.12,31.28,31,31.2c17.4-.08,31.16-13.55,31.36-30.71C515.88,461.12,502.84,447.49,485.42,447.1Zm-.83,54c-12.68-.08-23.18-10.23-23.36-22.6-.16-12.91,10.56-24,23.21-23.89s23.64,11.28,23.54,23.77C507.88,490.39,496.74,501.2,484.59,501.14Z"/><path class="cls-1" d="M532.61,373.35c-12.24,4.21-24.52,8.35-36.34,12.38-2.17.55-3.76.35-4.5-1.49-.94-2.29.43-3.83,2.23-4.71a211.59,211.59,0,0,1,36.36-13.69c1.72-.46,4.09-.7,4.74,2C535.7,370.2,535.31,372.43,532.61,373.35Z"/><path class="cls-1" d="M774.21,320.84c-11.11,1.8-22.23,3.54-32,5.1-3.91,0-7,.57-7.56-2.91s2-4.25,4.83-4.64c11.14-1.56,22.3-3.14,33.45-4.83,3-.45,5.36.3,6.1,3.21C780.05,320.84,776.59,320.45,774.21,320.84Z"/><path class="cls-1" d="M841.41,311.47c-.2,2.58-2.13,3.66-4.75,3.81-8.08.45-16.13,1.06-23.49,1.57-4.61,0-8.5-.12-12.39,0-2.76.1-4.36-1-4.42-3.78,0-2.4,1.76-3.44,3.77-3.55q18.42-1.1,36.84-1.92C839.51,307.5,841.6,308.66,841.41,311.47Z"/><path class="cls-1" d="M712.8,328.93c-11.4,3.74-23.29,4.91-36,6.94-1.29,0-4.08.28-4.51-2.6-.37-2.48,1.64-4.26,4-4.75q18.45-3.78,37-7.29c1.76-.33,3.36.35,3.67,2.23C717.49,326.62,715.61,328,712.8,328.93Z"/><path class="cls-1" d="M591.56,357a239.87,239.87,0,0,1-34.33,8.78c-2.31-.63-5.32,1.09-6.08-2s2-3.63,4.16-4.26q17.19-5,34.39-9.85c2.13-.61,4.6-1.72,5.59,1.48S594,356.09,591.56,357Z"/><path class="cls-1" d="M471.44,394.47q-16.26,6.21-32.71,11.89c-1.92.68-4.83,1.44-6-1.32-1-2.42.75-4.84,2.72-5.59,13.1-5,26-10.69,40.1-12.94C476.36,391.3,474.19,393.41,471.44,394.47Z"/><path class="cls-1" d="M653.42,340c-12.4,3.6-24.79,7.1-36.13,10.32-3-.49-5.4.43-5.89-2.36a3.52,3.52,0,0,1,2.19-3.93c12.22-5.34,24.89-9,38.29-9.74,1.5-.08,3.4.1,3.91,2.09S655.08,339.47,653.42,340Z"/><path class="cls-1" d="M1435.73,447.26c-18-.36-32.08,13-32.2,30.63-.1,17.27,13.27,30.78,30.73,31,17.8.24,31.11-12.53,31.4-30.11C1466,460.94,1453.29,447.59,1435.73,447.26Zm-.23,54.25c-12,.24-24.17-11.42-24.33-23.32-.15-11.5,11.58-23.54,22.92-23.5,13.21,0,23.71,10.24,23.85,23.18C1458.08,490.39,1447.73,501.28,1435.5,501.51Z"/><path class="cls-1" d="M1307.9,347.88c-1,3.4-4.2,2.6-6.61,2-10.65-2.58-21.29-5.26-31.84-8.23-2.55-.72-6.77-1.15-6.16-4.91.66-4.06,4.79-1.87,8.07-2.93,10.38,2.78,21.31,5.57,32.14,8.72C1305.71,343.18,1308.92,344.49,1307.9,347.88Z"/><path class="cls-1" d="M1247.27,333.58c-.6,3.45-4,2.19-6.53,2.12-11.45-1.74-22.93-3.41-34-7-2.6-.84-5.49-2.27-4.75-5.07.82-3,4-2.23,6.65-1.72,11.07,2.17,22.15,4.27,33.28,6.2C1245.26,328.68,1247.84,330.32,1247.27,333.58Z"/><path class="cls-1" d="M1186,324.2c-.76,3.13-3.5,2.11-5.87,2.33-11.9-1.92-24-3.89-36.17-5.77-2.19-.35-3.87-1.39-3.83-3.52.06-2.85,2.45-3.89,4.83-3.58,12.49,1.72,25,3.52,37.44,5.59C1184.51,319.61,1186.7,321.37,1186,324.2Z"/><path class="cls-1" d="M1125.53,316.36c-15.25,1.37-29.39-.47-43.54-1.37-2.76-.17-4.3-1.45-4.19-4.18a3.31,3.31,0,0,1,3.85-3.39c12.34.69,24.68,1.3,37,2.21C1121.66,309.85,1123.83,312,1125.53,316.36Z"/><path class="cls-1" d="M1427.44,383.25c-.82,2.05-2.68,3.14-4.71,2.44q-18.33-6.33-36.52-13.06c-1.41-.51-2.74-2.29-2-3.93,1.12-2.6,3.6-2.33,5.91-1.9,12.22,2.23,23.36,7.55,34.84,11.93C1426.81,379.43,1428.36,380.9,1427.44,383.25Z"/><path class="cls-1" d="M1486.56,403.29c-.29,3.71-3.09,3.93-5.59,3.08-11.32-3.85-22.58-7.89-33.78-12-2.08-.78-4.19-2.35-3.68-5.1.67-3.56,3.81-2.33,5.48-1.8,11.39,3.62,22.7,7.57,34,11.46A5.47,5.47,0,0,1,1486.56,403.29Z"/><path class="cls-1" d="M1367.79,363.26c-.35,3.33-3.46,2-6,2.94-11.15-3.11-22.68-6.28-34.16-9.56a4.23,4.23,0,0,1-3.27-5.21c.61-3.08,2.68-3,5.19-2.22q17.15,5.31,34.35,10.42C1365.89,360.23,1368,361,1367.79,363.26Z"/><rect class="cls-2" x="1919" y="1079" width="1" height="1"/><rect class="cls-2" width="1" height="1"/><rect class="cls-2" y="1079" width="1" height="1"/><rect class="cls-2" x="1919" width="1" height="1"/></g><g id="Capa_3" data-name="Capa 3"><path d="M825.19,653.41v111H805.36V693.7l-19.51,14.91-16.18,12.53-16.18-12.53L734,693.7v70.74H714.16v-111L734,668.64l35.69,27.44,35.69-27.44Z"/><path d="M951.6,744.93v19.83H840.88V732.08a31.54,31.54,0,0,1,2.7-12.85,32.56,32.56,0,0,1,28.87-20h48.06a13,13,0,0,0-1.11-25.86H841.2V653.57h78.2a32.62,32.62,0,0,1,32.67,32.67,32.28,32.28,0,0,1-9.36,22.68,32.94,32.94,0,0,1-22.36,10h-47.9a12.89,12.89,0,0,0-11.58,12.84v12.85Z"/><path d="M1078.8,653.41v111H1059V718.76h-58.53a31.45,31.45,0,0,1-14.91-3.65,32.41,32.41,0,0,1-17.76-29V653.41H987.6v32.67a13.07,13.07,0,0,0,13,13h58.53V653.41Z"/><path d="M1205.69,687a32.67,32.67,0,0,1-9.2,22.84A32.75,32.75,0,0,1,1173,765.39h-78.2V745.56H1173a13.06,13.06,0,0,0,13-13,12.93,12.93,0,0,0-12.22-13h-59V699.72h59a13,13,0,0,0-.63-26H1095V653.89h78.2a32.62,32.62,0,0,1,32.67,32.67Z"/></g></g></svg>