<svg xmlns="http://www.w3.org/2000/svg" viewBox="0 0 1920 1080"><defs><style>.cls-1{fill:#f2f2f2;}.cls-2{fill:#010101;}</style></defs><g id="Capa_2" data-name="Capa 2"><g id="Capa_1-2" data-name="Capa 1"><rect class="cls-1" x="1919" y="1079" width="1" height="1"/><rect class="cls-1" width="1" height="1"/><rect class="cls-1" y="1079" width="1" height="1"/><rect class="cls-1" x="1919" width="1" height="1"/></g><g id="Capa_3" data-name="Capa 3"><path class="cls-2" d="M1676.35,609.38c-.11-10.86-4.58-15.72-15.45-16.1-11.83-.42-23.68-.36-35.51-.19-4.53.07-6.35-1.38-6.29-6.07.22-23.42.24-46.86.32-70.29-.08-14.46,0-28.91-.34-43.35-.11-4.64,1.85-5.51,5.85-5.47q14.94.18,29.86-.14c18.17-.37,21.7-3.67,21.68-20.26,0-9.95-.4-19.91-.4-29.86a26.79,26.79,0,0,1-.16-3.91c0-3.41-17.5-14.87-17.5-14.87-29.2-15.72-58.86-30.54-89.09-44.23-58.1-26.27-117.42-49.36-178.65-67.38-4.45-1.31-10-2.06-9.29-9.05.29-2.86-2.64-2.58-4-2.94C1354.52,269,1331.54,263,1308.57,257c-2.06-.54-4.47-1.44-4.8,1.88-.54,5.34-3.94,3.48-6.73,2.79q-39.18-9.58-78.92-16.37c-35.37-6-70.88-11.19-106.63-14.78q-41.22-4.14-82.52-6.48c-20.32-1.15-40.71-1.47-61.07-1.47-80.55,0-159.7,7.91-159.7,7.91A1378.23,1378.23,0,0,0,622.15,262c-1.61.4-3.89,2.27-4.66-.77-1.52-6-5.49-4.54-9.48-3.47-21.44,5.74-42.89,11.51-64.37,17.16-2.88.75-5.1,1.72-4.16,5.14,1.16,4.27-1.8,4.46-4.6,5.31a1473.1,1473.1,0,0,0-241.42,96.88c-10.54,5.37-20.91,11.09-31.46,16.46-5.07,2.58-8.94,6.68-14.27,11.1a22.21,22.21,0,0,0-4.47,11.06v31.64c-.37,8.93,7.58,15.7,16.63,15.42,12.08-.37,24.18,0,36.27,0,4.07,0,5.37,1.92,5.37,5.65q0,56.55.1,113.11c0,4.52-1.92,6.35-6.41,6.35-11.13,0-22.28.25-33.43.23-4.86,0-9.4.81-13.47,3.6-3.18,3.54-4.26,7.85-4.25,12.42,0,38.73.16,77.46.17,116.19a33.48,33.48,0,0,0,4.9,17.43c4.82,6.45,11.82,10,18.54,13.87q35.57,20.61,71.1,41.28l86.14,49.07c9.54,5.44,22.77,10.38,22.77,10.38h249.8c15.53,0,29.59-6,44.18-9.77a968.34,968.34,0,0,1,105.8-20.63l21.84-2.89c14.45-1.24,29-1.76,43.4-3.27,5.94-.61,7.33,1.31,6.51,6.55-.9,5.74,1.19,8,7.37,7.57l66.86-.16c5.14.11,7.8-1.7,6.69-7-1.37-6.56,1.84-7.13,7.3-6.85a836.9,836.9,0,0,1,113.26,13.77c28.54,5.44,56.87,11.71,84.52,20.76,7,1.66,14,1.49,21.12,1.5q115,0,229.92.08c2.59,0,5.17.23,7.76.35a57.28,57.28,0,0,0,29.94-9.32c7.59-4.78,15.35-9.31,23.13-13.78q70.67-40.56,141.45-81c12.31-7,18.21-17,18-31.08-.2-13.5.1-27,.19-40.53v-2.9c0-1.88,0-3.75,0-5.63C1676.62,652,1676.56,630.68,1676.35,609.38ZM1388.67,297.87a1527.94,1527.94,0,0,1,217.16,86.22c5.79,2.85,4.65,6.75,4.84,11,0,.94,0,1.9,0,2.84.08,7.36-.19,7.57-6.88,4.18a1380.41,1380.41,0,0,0-226-90.14c-3.83-1.14-4.91-2.32-3.73-6.4C1377.4,294.28,1377.17,294.28,1388.67,297.87ZM627.39,272.08c48.44-11.16,97.27-20.23,146.56-26.59q45.45-5.87,91.22-8.82c44.72-2.87,89.53-4,134.34-2.67a1493.83,1493.83,0,0,1,169.08,14.59c42.16,6.12,83.86,14.5,125.47,23.52,4.23.91,6.57,2.31,4.39,7a16.34,16.34,0,0,0-1,4.13c-.85,4.74-2.62,6.32-8.14,5a1419.3,1419.3,0,0,0-318.83-38.09l-23.28-.11a1392.4,1392.4,0,0,0-163.78,10.79,1322.55,1322.55,0,0,0-152.16,27.37c-11,2.69-6.93-6.14-9.05-9.86C619.29,273.3,623.86,272.9,627.39,272.08Zm665.5,28.31q-6.17,21.11-11.54,42.41c-1.11,4.4-2.75,5.79-7.32,4.68-41.44-10-83.34-17.47-125.55-23.35q-56-7.8-112.47-10.77c-22.5-1.16-45-2.37-67.54-1.92l-19.36-.28a1415.15,1415.15,0,0,0-149.68,9.35c-51.25,6.1-102.11,14.61-152.28,26.87-4.3,1.05-6.58,1.11-7.83-4.1-3.49-14.47-7.49-28.82-11.56-43.13-1.25-4.4.28-5.72,4.31-6.64,65.38-14.82,131.33-25.84,198.14-31.75a1443.17,1443.17,0,0,1,192.5-4.54,1519.25,1519.25,0,0,1,154.78,15c37.4,5.55,74.49,13,111.35,21.48C1292.94,294.7,1294.16,296.06,1292.89,300.39Zm-974.4,82A1506,1506,0,0,1,537.88,296c4.22-1.29,6.23-.92,6.88,3.51a6.76,6.76,0,0,0,.44,2.07c3.42,6.67,1.33,9.54-5.94,11.65-43.08,12.56-85.19,28-126.62,45.18-31.66,13.16-63,27-93.5,42.65-9.2,4.71-9.15,4.8-9.05-6.92C307.37,387.44,312.82,385.17,318.49,382.39ZM920.67,805.17c0,3.21-.8,4.5-4.31,4.71-18,1.11-35.9,2.52-53.84,3.82-40.4,4.67-80.2,12.57-119.79,21.64-19.16,6-38.24,11.18-58.83,11-73.41-.63-146.84-.33-220.26-.19-11.86,0-23.14-1.08-32.56-9.2-9-5-18-9.79-26.92-14.93-22.17-12.85-44.27-25.85-66.41-38.78-25.51-13.52-50.39-28.18-75.11-43.1a14.1,14.1,0,0,1-6.82-11.08,91.72,91.72,0,0,1-.74-9.2c0-35.58.17-71.15-.11-106.72-.06-6.8,2.1-9.14,8.83-8.85,9.69.42,19.43.34,29.16,0,14.86-.46,20-5.87,20-20.55q0-53.35,0-106.71c0-15.69-4.48-20.19-20.35-20.49-10.18-.18-20.39-.19-30.59-.1-5.15.05-7.23-2.29-7.05-7.33.32-8,.35-16.1.64-24.15a16.58,16.58,0,0,1,8.9-14.49c12.79-7.08,25.76-13.86,40-21.46,0,6.76.19,12.29-.05,17.8-.29,6.11,1.9,6.88,7.1,4.34,18.7-9.16,37.39-18.31,56.29-27a1410.06,1410.06,0,0,1,176.06-66.88c4.23-1.31,5.71-.84,6.8,3.61,3.31,13.77,6.69,27.57,11,41.07,1.95,6.19.46,8-5.37,9.7a1269.38,1269.38,0,0,0-149.68,55.13c-26.26,11.62-39.36,32.27-40.25,60.8-.3,9.71-.39,19.42-.56,29.13.17,21,.42,41.88.49,62.83,0,9.4-.29,18.79-.44,28.19.66,27.52.51,55.05-.09,82.56,1.27,11.2-.26,22.67,3.16,33.69,8.43,27.14,31,44.68,59.51,46.28.94.05,1.86.25,2.79.38,2.83-.16,5.66-.46,8.5-.46q166.83,0,333.66,0c1.65,0,3.3.18,5,.28,33.23-.55,66.46-.62,99.7,0,12.8-.13,25.59-.17,38.39-.45,3.46-.07,4.45,1.15,4.38,4.53C920.54,784.78,920.54,795,920.67,805.17Zm73.62-23.75c.07,14.68.07,29.36.27,44,0,3.15-1,4.1-4.1,4l-58.31.1c-4.52.26-6.13-.88-6-5.75.31-17.5,0-35,.26-52.53.07-4.64-1.34-6.22-5.9-6.22-13.24,0-26.47-.37-39.71-.58-32.24.66-64.49.81-96.73,0-13.71.17-27.44.51-41.15.51q-147,.06-294.08,0c-5.91,0-11.8-.47-17.71-.72-27.85,1.07-55.33-22.67-58.31-50.55a143.18,143.18,0,0,1-.33-26.19q-1.32-38.92.1-77.86c-.65-30.95-.82-61.92,0-92.89-1.05-13.26-1.57-26.61.6-39.71,3.42-20.59,15.21-35.64,34.14-44.16,49.84-22.41,101.14-40.94,153.41-56.8,10-3,9.92-3,7.2-12.84-7.17-26.2-14.24-52.42-21.48-78.6-.91-3.28-.1-4.57,3.18-5.44,19.18-5,38.33-10.22,57.47-15.44,3.74-1,5.25-.08,6.31,4C620.41,295.22,628,322.52,635,350c1.24,4.84,3.2,5.37,7.32,4.35,34.17-8.62,68.76-15.17,103.55-20.65,40-6.31,80.23-10.65,120.66-13.54,28.16-2,56.36-2.65,84.56-3.14l23.48.22c54.84,0,109.33,4.37,163.68,11.42,46.92,6.09,93.44,14.28,139.37,25.63,5.16,1.28,6.91-.17,8.19-5.17,7.05-27.47,14.58-54.81,21.62-82.29,1-3.76,2.49-3.88,5.35-3.12,19.37,5.22,38.73,10.46,58.12,15.58,3.83,1,3.88,3,3,6.32q-10.77,39-21.18,78c-2.55,9.43-2.5,9.53,6.41,12.25a1437.14,1437.14,0,0,1,147.57,54c20.34,8.75,35.3,22.11,40.2,44.35,3.09,14,1.42,28.31,1.21,42.51V545.2c.11,23.44.29,46.88.31,70.32,0,29.83.17,59.67-.11,89.5-.3,33.27-24.78,58.34-57.91,59.58-8.73.33-17.49,1-26.23-.14-12.05.15-24.11.44-36.15.44q-207.9,0-415.8-.06C995.3,764.83,995.3,764.81,994.29,781.42Zm671-55.64c-.11,9.44-6.31,14.23-13.56,18.4q-55.7,32-111.36,64.06c-17.43,10-34.93,20-52.21,30.23a51.82,51.82,0,0,1-27.54,7.63q-118.38-.26-236.74,0c-15.76,0-30-6.39-44.81-10.08-57.11-14.15-114.87-23.82-173.76-26-3.93-.14-5.4-1.09-5.25-5.17.32-9.69.29-19.4.41-29.11,0-1,0-1.93,0-2.88l.21-1.34c.91-2.21,2.84-1.24,4.3-1.24q227.58-.06,455.14,0c1.41,0,2.82.21,4.23.32,12.73-1.19,25.62,1.1,38.26-1.48,29.4-6,51.08-31.08,51.59-61.31.61-36.71.14-73.45.18-110.17,0-11.83.2-23.66.3-35.5-.38-15.09-.75-30.17.29-45.23-.25-9.94-.47-19.88-.74-29.81-.74-28.06-13.74-48.47-39.28-59.87a1188.94,1188.94,0,0,0-150.83-55.45c-6.31-1.85-6.88-4.1-5.11-9.81,4-12.86,7.57-25.86,10.55-39,1.35-5.92,3.43-6.87,9-5.12a1553.08,1553.08,0,0,1,157.75,58.93c24.27,10.64,47.87,22.6,71.8,33.89,7.66,3.62,7.91,3.21,8.3-5.34.21-4.88-2.51-12.26.78-14,3.83-2.05,9,3.44,13.61,5.68,7.65,3.74,15.07,8,22.64,11.86s11.85,9.91,11.85,18.65c0,7.35-.07,14.7.23,22.05.2,5-2.18,6.69-6.78,6.74-11.38.1-22.75.2-34.12.6-11.93.42-16.53,5.21-16.73,17.23-.21,14.21-.21,28.42-.31,42.65.11,22.68.17,45.38.36,68.07.11,14.61,4.91,19.44,19.66,19.68,10.65.17,21.3.07,31.94,0,3.46,0,5.79.45,5.72,4.94-.25,16.53-.2,33.08-.25,49.61C1665.79,681.27,1665.52,703.53,1665.26,725.78Z"/><path class="cls-1" d="M1548.41,615.52c0,29.83.17,59.67-.11,89.5-.3,33.27-24.78,58.34-57.91,59.58-8.73.33-17.49,1-26.23-.14-12.05.15-24.11.44-36.15.44q-207.9,0-415.8-.06c-16.91,0-16.91,0-17.92,16.58.07,14.68.07,29.36.27,44,0,3.15-1,4.1-4.1,4l-58.31.1c-4.52.26-6.13-.88-6-5.75.31-17.5,0-35,.26-52.53.07-4.64-1.34-6.22-5.9-6.22-13.24,0-26.47-.37-39.71-.58-32.24.66-64.49.81-96.73,0-13.71.17-27.44.51-41.15.51q-147,.06-294.08,0c-5.91,0-11.8-.47-17.71-.72-27.85,1.07-55.33-22.67-58.31-50.55a143.18,143.18,0,0,1-.33-26.19q-1.32-38.92.1-77.86c-.65-30.95-.82-61.92,0-92.89-1.05-13.26-1.57-26.61.6-39.71,3.42-20.59,15.21-35.64,34.14-44.16,49.84-22.41,101.14-40.94,153.41-56.8,10-3,9.92-3,7.2-12.84-7.17-26.2-14.24-52.42-21.48-78.6-.91-3.28-.1-4.57,3.18-5.44,19.18-5,38.33-10.22,57.47-15.44,3.74-1,5.25-.08,6.31,4C620.41,295.22,628,322.52,635,350c1.24,4.84,3.2,5.37,7.32,4.35,34.17-8.62,68.76-15.17,103.55-20.65,40-6.31,80.23-10.65,120.66-13.54,28.16-2,56.36-2.65,84.56-3.14l23.48.22c54.84,0,109.33,4.37,163.68,11.42,46.92,6.09,93.44,14.28,139.37,25.63,5.16,1.28,6.91-.17,8.19-5.17,7.05-27.47,14.58-54.81,21.62-82.29,1-3.76,2.49-3.88,5.35-3.12,19.37,5.22,38.73,10.46,58.12,15.58,3.83,1,3.88,3,3,6.32q-10.77,39-21.18,78c-2.55,9.43-2.5,9.53,6.41,12.25a1437.14,1437.14,0,0,1,147.57,54c20.34,8.75,35.3,22.11,40.2,44.35,3.09,14,1.42,28.31,1.21,42.51V545.2C1548.21,568.64,1548.39,592.08,1548.41,615.52Z"/><path d="M834.93,489.19v111H815.11V529.48L795.6,544.39l-16.18,12.53-16.18-12.53-19.51-14.91v70.74H723.9v-111l19.83,15.23,35.69,27.44,35.69-27.44Z"/><path d="M961.34,580.71v19.83H850.63V567.86a31.45,31.45,0,0,1,2.7-12.84,32.58,32.58,0,0,1,28.86-20h48.07a13,13,0,0,0-1.11-25.85H851V489.35h78.2A32.62,32.62,0,0,1,961.82,522a32.45,32.45,0,0,1-9.36,22.69,33,33,0,0,1-22.36,10H882.19a12.9,12.9,0,0,0-11.57,12.85v12.84Z"/><path d="M1088.55,489.19v111h-19.83V554.54h-58.53a31.42,31.42,0,0,1-14.91-3.65,32.38,32.38,0,0,1-17.76-29V489.19h19.82v32.68a13.07,13.07,0,0,0,13,13h58.53V489.19Z"/><path d="M1192.43,508.86a34.47,34.47,0,0,1,3.65,15.54v75.66h-19.83V522.5A15.8,15.8,0,0,0,1162.77,509h-58.21V489.19h56.31a34.44,34.44,0,0,1,15.54,3.65,35.17,35.17,0,0,1,16,16.18Z"/></g></g></svg>