<svg xmlns="http://www.w3.org/2000/svg" viewBox="0 0 1920 1080"><defs><style>.cls-1{fill:#f2f2f2;}.cls-2{fill:#010101;}</style></defs><g id="Capa_2" data-name="Capa 2"><g id="Capa_1-2" data-name="Capa 1"><rect class="cls-1" x="1919" y="1079" width="1" height="1"/><rect class="cls-1" width="1" height="1"/><rect class="cls-1" y="1079" width="1" height="1"/><rect class="cls-1" x="1919" width="1" height="1"/></g><g id="Capa_3" data-name="Capa 3"><path class="cls-1" d="M1614.23,607.54c-4.58,1-5.48,8-9.21,5-3-2.41.59-6.63,2-9.67a63.39,63.39,0,0,0,6.44-28.3c-.35-38-.57-76.14,0-114.19.31-19.18-8.4-31.32-25.09-39.1-29.54-13.8-59.23-27.16-89.32-39.67-9.66-4-9.66-4.07-9.46,6.87a48,48,0,0,1-.34,7.1c-.23,1.71-.73,3.66-3.18,3.43-2.18-.22-3-1.81-3-3.71a110.53,110.53,0,0,1-.09-13.37c.48-5.39-1.75-7.69-6.73-9.57-49.56-18.7-99.6-35.94-150.3-51.34-75.69-23-152.7-38.77-231.78-43.62-24.61-1.5-49.21-3.37-73.8-5.05-5.23-.36-9.53-.68-10.4-8-1-8,3.92-19-2.93-23.25-6.07-3.72-16.17-.86-24.49-.9H927.72c-16.67,0-16.67,0-17.08,17.05a26.73,26.73,0,0,0-.09,3.57c.86,8-3.1,11.08-10.74,11.56-25.79,1.61-51.56,3.5-77.35,5.34-42.37,3-84.61,7.58-126.07,16.77C614.47,312.64,534.66,338,456.33,368c-17.86,6.85-17.9,6.76-18.7,25.34,0,.59,0,1.2-.06,1.77-.28,1.87.59,4.69-2.62,4.57-2.44-.11-3.39-2.25-3.55-4.45a90.52,90.52,0,0,1-.27-10.67c.27-4.64-.55-6.91-5.89-4.64C392,394,358.5,407.75,326.35,424.38c-11.29,5.86-18.5,15.16-18.88,28.18-.44,16,0,32.09.11,48.14-.48,28.89-1,57.77.25,86.66.64,9.08,8.32,16.28,8,26-4.55-.13-5.11-4.82-9.46-5.37,1.77,15.65-1.21,31.19,2.11,46.56,3.05,14.94,12.88,24.06,26.07,30.25,2.34,1.09,4.91,2.84,6.48-1.16,2.75-7,5.42-2,6.49.59,2.45,6,7.2,8,12.69,9.9,9.21,3.13,18.1,7.35,27.47,9.85,17.79,4.73,27.38,15.3,26.93,34.11-.27,9.19.36,18.52-1,27.54-1.42,9.38,2.73,12.77,10.78,14.56,4.86,1.07,7.36.73,6.78-5.19a64.32,64.32,0,0,1,.31-13.3c.27-2.46.78-6.1,4.28-5.69,3.32.39,1.79,3.82,2,5.92.77,9.1-2.55,18.88,5.82,27.15-10.88,2.55-19.52-2.86-29-3.73v22.32c-.2,11.55,0,23.11-.72,34.64-.35,6.16,1.86,7.36,7.53,7.27,19.56-.36,39.14-.16,58.7-.18,6.8,0,15.53,2.5,19.9-.79,5.21-3.89,1.48-13.17,1.79-20.07.37-8.5,4.08-12.39,12.61-12.3,14.23.16,28.45,0,42.68-.11,6.78-.07,13.63,0,19.88-3.35L632,789.62a232.28,232.28,0,0,0,34.09-13.57l2.46-1v.12c5.87-1.76,11.77-3.48,17-6.87,12.9-3,25.05-8.14,37.37-12.8l17.86-5.37c10.6-2.76,21.2-5.55,34.11-8.94-6.8-1.91-10.62-.12-14.6.54-7.55,1.25-14.24,5.74-22.13,5.6-3-4.28-2.36-6.78,3.16-8,8.62-1.89,17.11-4.42,25.75-6.31,2.75-.59,6-1.84,8.6-.11,3,2-1.76,5.37.91,8.07l21.33-5c11.44-1.89,23.2-2.11,34.07-6.78l17.65-.63,37.58-3.8,64.11-3,17.79.59c18.37.16,36.77.43,55.1,1.77,31,2.28,61.85,5.53,92.5,11.17,22.41,4.12,44.31,10.26,66.44,15.46a100.58,100.58,0,0,1,9.8,3.6c4.21,2,6.87,2.79,5.82-3.66-.81-5,3-3.28,5.19-2.74,10.92,2.65,21.2,7.15,31.55,11.42,3,1.23,6.75,3,.56,5.94-2.77,1.3-1.5,3.8.83,4.41,4.22,1.11,7.54,4.78,12.3,4.14q20.57,8.67,41.1,17.36c15,6.23,30.27,12,45.07,18.83a64.09,64.09,0,0,0,27.46,6.18c14.57-.07,29.15.14,43.71,0,8.24-.07,12,3.94,12.08,11.92,0,5.35.38,10.73-.07,16-.41,5.09,1.8,5.73,6.19,5.68,25-.32,49.94-.59,74.89-.25,5.78.07,6.92-1.45,6.83-6.82q-.45-25.86.11-51.74c.11-5.31-.84-6.94-6.35-5.1s-11.48,2.84-17.28,4c-2.46.47-6.08-.36-3.84-3.41,5.79-7.83,3-16.52,3.77-24.82.2-2.14,0-4.71,2.52-5,2.94-.34,4,2.11,4.08,4.73.07,5.05-.09,10.1,0,15.15,0,1.86-.85,4.32,2.41,4.75,6.61.86,14.48-6,14.51-12.65.06-11.6.06-23.2.18-34.8.14-13.78,6.66-22.9,19.83-27.42,12-4.12,23.95-8.71,36-12.95,4-1.43,7.71-2.93,9.48-7.3,1.91-4.71,3.9-9.25,8-1.2,1.1,2.14,3.55,1.25,5.58.36,12.6-5.48,22.4-13.87,25.93-27.5C1615.62,641.44,1612.21,624.61,1614.23,607.54Z"/><path class="cls-2" d="M1674.93,528.36c19,.12,38-.43,57.07-.23,7.66.09,10-2.52,9.94-10.39V463.5c0-1.76-10.62-9.35-10.62-9.35a609.08,609.08,0,0,0-57.73-38.64c-65-38.55-134.37-67.76-204.83-94.62-132.42-50.47-268.88-83.38-410.26-95.55-15.58-1.34-28.32-1.2-35.85,14.72-.84,1.77-2.13,3.87-4.71,3.3-1.88-.43-1.68-2.25-1.58-3.66.4-5.83-2.89-6.69-7.81-6.58l-96.95.12c-2.74,0-6.19-1.21-7.42,3-.68,2.3,1.16,6.15-2.37,6.62-3.31.41-4.81-3.21-6.11-5.75-5.8-11.28-15.49-15.33-27.39-14.38-8.52.67-84.65,11.78-84.65,11.78-151.52,20.31-295.22,67.14-434.5,128.69-56.59,25-111.17,53.74-160.49,91.55-12.25,9.12-10.53,45.92-10.53,45.92.19,5.93.89,11.89.44,17.76-.57,7.57,2.88,10,9.8,9.92,18.7-.16,37.42.15,56.13-.32,5.46-.12,8,.27,7.74,6.73-.55,17.22-.39,34.46-.5,51.68.7,11.27.7,11.21-10.1,11.19-17.74,0-35.49.31-53.23,0-7.57-.11-10.18,2.62-9.94,10.33.44,15.37-.11,30.75-.25,46.14q.18,43.77.37,87.57c3.55,14.85,12,22.2,27.34,20.72,12.71-1.23,21.4,3,29,12.69,6.94,8.83,15.11,16.69,22.73,25,15,15.51,30,31,44.85,46.43a29.3,29.3,0,0,0,3.77,3.77c2.64,2.27,58.29,1.91,58.29,1.91,9.08,0,17.63-1.45,25.48-6.48,2.66-1.71,6-2.55,9-3.52,5.21-1.64,8.3.13,7.51,5.91-1.05,7.59,3.11,8.91,9.32,8.87q42.33-.13,84.65,0c6.33,0,9.3-2.32,8.53-9-.29-2.39-1.29-5.83,2.35-6.74a8.83,8.83,0,0,1,8.25,2.32c17.88,16.28,38.23,10.94,57.39,4.64,13.6-4.46,25.85-13,38.7-19.76,3.1-1.68,6.15-3.46,9.29-5.05,46.3-23.32,95.54-38.28,145.4-51.54,31.79-8.46,63.77-15.85,96.54-19.29,28.25-3.86,56.68-5,85.16-5.7l13.74.06c62.15,0,130.62,12.53,130.62,12.53,73.62,16,146,35.76,213.18,71.21,9.18,4.83,18.37,9.63,27.31,14.88,7,4.1,14.15,7.33,22.4,7.44,2.37-.09,4.74-.27,7.12-.27,12.94.08,26,1.91,36.14-10,4.32-5.07,8.8-2.62,8.49,4.46-.32,7.27,1.89,9.94,9.34,9.78,13.63-.28,27.3.27,41,.47l3.52,0c13.06,0,26.13-.37,39.17-.07,6.68.16,10.39-1.77,9.39-9-.86-6.1,2.29-7,7.34-6.42a21.77,21.77,0,0,1,10.58,4.33c5.75,4.29,12.22,5.84,19.22,5.84,15.17,0,30.34,0,45.49,0,11.6.06,21-3.76,29.09-12.67,18.56-20.49,38.12-40.05,56.59-60.59,9.73-10.81,19.42-19.92,35.43-16.49,1.37.29,3-.28,4.41-.53,12-1.93,19.84-10.39,19.88-22.51.16-44.31-.09-88.63.13-132.94,0-7.32-3-9.08-9.66-9-18.72.34-37.46-.11-56.18.43-6.55.2-7.84-1.95-7.71-8q.54-27.2-.06-54.41C1668,530,1669.45,528.32,1674.93,528.36ZM393.21,829c-1.45.25-3.2.27-4.25,1.11-13.38,10.67-29.16,8-44.33,7.78-37.34-.43-25.93,5-52.33-22.52-1.8-1.88-3.32-4.05-5-6.11q-24-24.88-48.08-49.79c-3.69-3.84-7.35-7.69-12.47-9.67-7.36-1.52-14.8-1.29-22.19-1-8.47.32-11.85-3.7-11.79-11.74.23-27.61.34-55.22.5-82.83-.24-12.44-.22-24.88-.77-37.28-.25-5.38,2.46-5.57,6.49-5.52,14.23.16,28.43.14,42.64.11,22,0,23.68-1.61,25-23.31-.14-18.67-.2-37.33-.45-56-.17-12.89-4.73-17.47-17.74-18.1-7.08-.34-14.17-.46-21.25-.69l-9,0a14.52,14.52,0,0,1-8.87,0c-16.67,1.48-16.67,1.48-16.7-14.9-.06-30.84.08-30.64,26.68-48.65,65.28-44.21,136.61-76.3,209.59-105,77.58-30.46,156.55-56.75,237.93-75.15a1366.38,1366.38,0,0,1,144.7-24.31c18.87-2.18,37.8-3.91,56.6-6.6,8.12-1.16,13.4.69,17.47,8,3.1,5.59,6.66,11.64,14.94,10.44a2.25,2.25,0,0,1,2.78,2.55c-.09,1.52-.3,3.22-2,3.59a41.74,41.74,0,0,1-7.87,1.07c-9.48.23-19-.34-28.25,2.46-6,1.81-11.49-1.17-17.24-1.71-9.42-.89-19-.55-28.5-.57-3.48,0-6.46-1-7.66,5.19-1,5.21-8.71,1.43-13.31,2.59-4.93,1.23-3.11-2.35-2.73-4.8s-1.57-2.89-3.38-2.94c-11-.29-22-.45-32.92.89-2.47.3-4.91,1-4.62,4.21.3,3.77,3.4,2.61,5.49,2.59,9.57-.11,19.1-2.89,28.86,1q-26.79,3.58-53.59,7.12c-1.15.16-2.38-.07-2.61-1.67s.64-2.13,1.87-2.48c2.32-.68,5-1.18,3.47-4.63-1.29-2.78-3.75-2.32-6.18-1.85-9.58,1.91-19.17,3.87-28.8,5.58-7.32,1.29-5.73,4.27-1.79,7.93,9.73-2.64,19.42-5.46,29.81-4.13-9.41,4.63-19.78,5-29.79,6.88C613.54,305.31,528,332.62,444,364.86c-1.81.7-4.41,3.73-6,.36s.61-5.53,3.79-6.78c6.32-2.52,12.63-5.05,18.91-7.64,1.93-.78,4.27-1.82,3.7-4.28-.71-3.11-3.44-1.8-5.14-1.2-10.58,3.79-21.15,7.62-31.59,11.78-2.41,1-6.6,3-1.37,5.91,2.05,1.16,4.73,1.18,4.65,4.34-.1,4-3.71,4-6.26,5.13-24.45,10.62-49,21.14-73.37,31.86-8.65,3.8-17,8.48-25.7,12.08-6.39,2.64-10.56,8.07-16.33,11.37C301,440,299.57,453.62,299.74,468c.4,29.89-.1,59.8-.25,89.71,1.9,9.62-1.8,19-.91,28.63,2.24,21.95.56,44,1.34,65.94,3.41,18.23,12.75,32.45,30.59,38.36,10.8,3.57,16.92,9.4,20,20,1.1,3.73,2.39,11,7.71,8.78,6.05-2.52.59-8.12-.41-12.31-.45-1.9-1.47-3.66-3-7.41,15.1,5.78,28.71,10.37,41.76,16.26,8,3.6,11.23,11.05,9.83,20-.37,13.46,2.15,26.86-1.83,40.46-1.52,5.23,3,12.12,2.21,18.72-.52,4.09-.32,8.28-.45,12.42a49.25,49.25,0,0,1,.57,5.25C407,826.63,407,826.61,393.21,829Zm1012-1.51a19,19,0,0,0-12.39,4.21c-10.51,8.53-33.21,10.38-45.58,3.25-42.49-24.54-86.93-44.78-133.76-59.43-43-13.48-86.36-26-130.93-33.2a688.29,688.29,0,0,0-109.61-9.1l-23.25-.2c-70.12.56-138.44,12.16-205.8,31.5-60.1,17.26-118.05,39.21-172,71.09-10.67,6.3-34.44,3.74-44-4a17.87,17.87,0,0,0-12.33-4.19c-2,.07-5.55,1.35-5-2.7.43-3.26,3.5-2.34,5.8-2.25,9.49.34,19,.41,28.46,1.09,19.46,1.38,37.14-3.68,54.92-11.58,59.77-26.58,120.3-51.38,184.44-65.61a720.32,720.32,0,0,1,169.28-16.91l55.7.24c15.12.58,30.27,1.56,45.24,3.47,50.67,6.42,100.8,15.29,149.22,32.26,39.92,14,79.74,28.43,117.82,46.83,21.62,10.44,43.57,12.28,66.59,10.66,5.62-.41,11.28-.52,16.92-.63,2.37-.05,5.41.08,5.34,3.18C1410.06,828.29,1407,827.44,1405.16,827.44Zm84.32-66c0-2.62-1.14-5.07-4.08-4.73-2.5.31-2.32,2.88-2.52,5-.8,8.3,2,17-3.77,24.82-2.24,3,1.38,3.88,3.84,3.41,5.8-1.12,11.69-2.1,17.28-4s6.46-.21,6.35,5.1q-.54,25.86-.11,51.74c.09,5.37-1,6.89-6.83,6.82-25-.34-49.94-.07-74.89.25-4.39,0-6.6-.59-6.19-5.68.45-5.31.11-10.69.07-16-.05-8-3.84-12-12.08-11.92-14.56.14-29.14-.07-43.71,0a64.09,64.09,0,0,1-27.46-6.18c-14.8-6.78-30-12.6-45.07-18.83q-20.55-8.7-41.1-17.36c-4.76.64-8.08-3-12.3-4.14-2.33-.61-3.6-3.11-.83-4.41,6.19-2.89,2.46-4.71-.56-5.94-10.35-4.27-20.63-8.77-31.55-11.42-2.2-.54-6-2.25-5.19,2.74,1,6.45-1.61,5.7-5.82,3.66a100.58,100.58,0,0,0-9.8-3.6c-22.13-5.2-44-11.34-66.44-15.46-30.65-5.64-61.52-8.89-92.5-11.17-18.33-1.34-36.73-1.61-55.1-1.77l-17.79-.59-64.11,3-37.58,3.8-17.65.63c-10.87,4.67-22.63,4.89-34.07,6.78l-21.33,5c-2.67-2.7,2.07-6.09-.91-8.07-2.62-1.73-5.85-.48-8.6.11-8.64,1.89-17.13,4.42-25.75,6.31-5.52,1.2-6.21,3.7-3.16,8,7.89.14,14.58-4.35,22.13-5.6,4-.66,7.8-2.45,14.6-.54-12.91,3.39-23.51,6.18-34.11,8.94l-17.86,5.37c-12.32,4.66-24.47,9.82-37.37,12.8-5.22,3.39-11.12,5.11-17,6.87V775l-2.46,1A232.28,232.28,0,0,1,632,789.62l-55.14,23.13c-6.25,3.37-13.1,3.28-19.88,3.35-14.23.16-28.45.27-42.68.11-8.53-.09-12.24,3.8-12.61,12.3-.31,6.9,3.42,16.18-1.79,20.07-4.37,3.29-13.1.77-19.9.79-19.56,0-39.14-.18-58.7.18-5.67.09-7.88-1.11-7.53-7.27.68-11.53.52-23.09.72-34.64V785.32c9.44.87,18.08,6.28,29,3.73-8.37-8.27-5.05-18-5.82-27.15-.17-2.1,1.36-5.53-2-5.92-3.5-.41-4,3.23-4.28,5.69a64.32,64.32,0,0,0-.31,13.3c.58,5.92-1.92,6.26-6.78,5.19-8.05-1.79-12.2-5.18-10.78-14.56,1.38-9,.75-18.35,1-27.54.45-18.81-9.14-29.38-26.93-34.11-9.37-2.5-18.26-6.72-27.47-9.85-5.49-1.85-10.24-3.94-12.69-9.9-1.07-2.63-3.74-7.61-6.49-.59-1.57,4-4.14,2.25-6.48,1.16-13.19-6.19-23-15.31-26.07-30.25-3.32-15.37-.34-30.91-2.11-46.56,4.35.55,4.91,5.24,9.46,5.37.36-9.69-7.32-16.89-8-26-1.29-28.89-.73-57.77-.25-86.66-.07-16.05-.55-32.11-.11-48.14.38-13,7.59-22.32,18.88-28.18C358.5,407.75,392,394,425.24,379.91c5.34-2.27,6.16,0,5.89,4.64a90.52,90.52,0,0,0,.27,10.67c.16,2.2,1.11,4.34,3.55,4.45,3.21.12,2.34-2.7,2.62-4.57.09-.57,0-1.18.06-1.77.8-18.58.84-18.49,18.7-25.34,78.33-30,158.14-55.35,240.06-73.5,41.46-9.19,83.7-13.74,126.07-16.77,25.79-1.84,51.56-3.73,77.35-5.34,7.64-.48,11.6-3.55,10.74-11.56a26.73,26.73,0,0,1,.09-3.57c.41-17.05.41-17.05,17.08-17.05h54.82c8.32,0,18.42-2.82,24.49.9,6.85,4.21,2,15.26,2.93,23.25.87,7.3,5.17,7.62,10.4,8,24.59,1.68,49.19,3.55,73.8,5.05,79.08,4.85,156.09,20.61,231.78,43.62,50.7,15.4,100.74,32.64,150.3,51.34,5,1.88,7.21,4.18,6.73,9.57a110.53,110.53,0,0,0,.09,13.37c0,1.9.85,3.49,3,3.71,2.45.23,3-1.72,3.18-3.43a48,48,0,0,0,.34-7.1c-.2-10.94-.2-10.89,9.46-6.87,30.09,12.51,59.78,25.87,89.32,39.67,16.69,7.78,25.4,19.92,25.09,39.1-.57,38.05-.35,76.14,0,114.19a63.39,63.39,0,0,1-6.44,28.3c-1.43,3-5,7.26-2,9.67,3.73,3,4.63-3.94,9.21-5-2,17.07,1.39,33.9-2.84,50.3-3.53,13.63-13.33,22-25.93,27.5-2,.89-4.48,1.78-5.58-.36-4.13-8.05-6.12-3.51-8,1.2-1.77,4.37-5.47,5.87-9.48,7.3-12,4.24-23.92,8.83-36,12.95-13.17,4.52-19.69,13.64-19.83,27.42-.12,11.6-.12,23.2-.18,34.8,0,6.69-7.9,13.51-14.51,12.65-3.26-.43-2.37-2.89-2.41-4.75C1489.39,771.5,1489.55,766.45,1489.48,761.4Zm164.73-168.85c0,14.19,4.59,18.83,18.45,18.9,16,.07,32.11.27,48.14-.14,5.6-.14,6.94,1.52,6.9,6.94-.23,38.66-.09,77.32-.18,116,0,12.23-2,15-13.77,14-16.08-1.32-27.47,4.71-38,16.6-19.51,22-40.41,42.78-60.38,64.37-5.67,6.16-11.74,9.28-20.22,8.89-11-.5-22-.34-33-.09-10.29.25-20.1-.28-28.6-7.32-4.12-3.42-9.53-3.12-14.56-2.33-4.5.71-5.74-1-5.66-5.23.24-12.19.24-24.38.22-36.57,0-2.52.46-4.91,2.32-6.5,3.12-2.67,3.19-4.55-.56-6.67-1-.57-1.76-2.52-1.74-3.82.28-13.64-1.11-27.33.83-40.94,1-6.91,5.09-11.48,11.16-13.91,12.31-4.92,24.82-9.35,37.8-14.17,1.18,5.18-1.93,8.43-3.16,12.14-.87,2.68-1.36,5.5,1.71,7s4-1.37,5.25-3.28c4.52-7,23.24-24.88,30.52-29.59,14.4-9.32,23-22.34,23-39.85.06-63.57-.32-127.14-.05-190.69,0-9.95-4.43-18-7.49-26.67-36-26.55-78.41-39.72-118.61-57.48-4.59-2-8.8-4.48-1.29-8.57,5.19-2.82,2-5.78-.78-6.91-10.11-4.12-20.48-7.65-30.77-11.33-1.36-.48-3.11-.85-3.72,1.06-.76,2.4.47,3.9,2.7,4.8,5.75,2.33,11.48,4.67,17.19,7.08,2.8,1.2,6.21,2.91,4.58,6.34-1.48,3.14-4.87.82-7.08,0C1413,340.45,1349.64,319.32,1285,302.22c-10.19-2.69-20.42-5.32-30.63-8l-17.61-4.3L1219,286.21q-17.91-3.07-35.84-6.19l-21.23-2.78a227.29,227.29,0,0,1-35.82-4.55c-4.43-.24-8.85-.38-13.28-.74-1.39-.1-3.91-.62-4-1.17-1.18-9.57-8.57-6-13.56-6.11-10.3-.14-20.62-.89-30.82,2.5-6,2-12.23-1.43-18.39-1.93-7.67-.62-15.43-.32-23.14-.44-3.06-.06-5.32-1.41-5.61-4.57-.35-3.93,2.64-2.89,4.91-3,8.41-.25,10.58-7.8,14.51-13,3.12-4.12,6-6.42,11.65-5.85,65.84,6.67,131.37,15.31,196.12,29.3,68.75,14.87,135.67,36,201.69,60,69.4,25.29,137.7,53.25,202.22,89.59a679.55,679.55,0,0,1,71.91,46.2c5.21,3.9,7.78,8.21,7.46,14.92a272.55,272.55,0,0,0,.19,29.43c.34,5.36-1.32,6.54-6.35,6.43q-23.19-.54-46.37-.22c-16.85.22-21,4.63-21.06,21.33Q1654.14,564,1654.21,592.55Z"/><path class="cls-2" d="M946.1,714.86c-12.56,4.28-25.75,1.25-38.51,3.35-2.23.38-2.91-1.41-2.82-3.48.11-2.62,1.52-3.51,4-3.64,8.85-.48,17.7-1.07,26.55-1.6C949.39,708.09,946.1,714.86,946.1,714.86Z"/><path class="cls-2" d="M1602.11,632.12a179.94,179.94,0,0,1-15.86,33.52c-.27.44-1,.64-1.5,1-2.84.09-2.71-2.16-2.25-3.68,3.57-11.6,7.69-23,13.69-33.62.77-1.34,2.12-2.48,3.62-1.68S1602.74,630.37,1602.11,632.12Z"/><path class="cls-2" d="M437.54,680.47c-.07,1.94,1.5,5.4-2.39,5.4-2.86,0-3.79-2.8-3.86-5.15-.34-10-.44-20.06-.64-30.09,1.23-3.39-.11-9.27,6.87-7.14.16,1.19.34,2.39.52,3.59,0,1.39,0,2.78,0,4.17C437.91,661,437.86,670.74,437.54,680.47Z"/><path class="cls-2" d="M435.06,514.49c-3.21,0-3.61-3.34-3.95-6s-.42-5.21-.64-7.82c.22-7.92.38-15.84.7-23.77.09-2.34.34-5,3.59-5.1,3.89-.14,2.83,2.92,2.89,5.05.21,7.92.3,15.86.44,23.79a65.69,65.69,0,0,1-.52,7.82C437.2,510.65,439.27,514.51,435.06,514.49Z"/><path class="cls-2" d="M555.4,790.1q-18.76.07-37.53.14c-6.37-3.37-2.93-5.83,1.19-6.26a152.14,152.14,0,0,1,34.59.07C557.08,784.48,560.34,786.49,555.4,790.1Z"/><path class="cls-2" d="M437.63,707c.23,11.53.11,23.08.12,34.61-3.24,2.62-4.62-.7-6.58-2.09,0-10.64-.07-21.29,0-31.93.06-3.42-.37-8.39,4.43-8.08C439.43,699.78,437.57,704.42,437.63,707Z"/><path class="cls-2" d="M1404.78,787c.31,3.39-2,2.86-4.1,2.86h-16.87v0c-5.64,0-11.26.06-16.88,0-1.93,0-4.52.55-4.41-2.75,0-2.23,1.73-2.84,3.62-3.07,11.8-1.54,23.65-.56,35.5-.56C1403.82,783.51,1404.6,785,1404.78,787Z"/><path class="cls-2" d="M498.31,789.94,459,789.89c-2-4.54-.43-6.7,4.44-6.7,10.55,0,21.11-.18,31.66,0C500.11,783.26,501.32,785.76,498.31,789.94Z"/><path class="cls-2" d="M1183.27,747.09c-12.1-1.3-23.45-5.73-35.2-8.5-2.87-.67-5.3-2.46-4.57-5.42.83-3.34,3.81-1.59,6-1.18,5.23,1,10.46,2,15.69,3.07,5.21,1.64,10.51,3.11,15.65,5C1184.14,741.25,1186.84,743.22,1183.27,747.09Z"/><path class="cls-2" d="M1348.8,787.76c-.18,2.5-2.43,2-4.09,2.07-5.93.07-11.85,0-17.76,0V790c-5.62,0-11.24,0-16.86,0-1.7,0-3.79.18-3.88-2.45-.07-2.14,1.18-3.17,3.22-3.4a167.59,167.59,0,0,1,36.31,0A3.34,3.34,0,0,1,1348.8,787.76Z"/><path class="cls-2" d="M338.6,662.73c-.75,3.14-1.75,6.55-5.07,2-2.38-3.25-3.84-7.14-5.7-10.75-2.28-6.1-4.64-12.17-6.78-18.33-.92-2.66-2.73-6.44.72-7.76,3.17-1.21,3.89,3,4.83,5.21C330.76,642.9,334.62,652.84,338.6,662.73Z"/><path class="cls-2" d="M437.61,621.75c-.05,2,1.43,5.34-2.12,5.69s-4.39-2.9-4.38-5.46c0-11.76.43-23.52.68-35.3,2-2.21,4-3.94,6.2-.28C437.9,598.18,437.86,610,437.61,621.75Z"/><path class="cls-2" d="M1489.13,452.44c0,1.71-1,3.62-3.31,3.34-2.08-.27-2.89-1.91-2.9-3.84-.06-5.94,0-11.87,0-17.79h0c0-5.36,0-10.69,0-16,0-1.84.08-3.95,2.28-4.18,2.46-.28,4,1.57,4,3.84Q1489.36,435.11,1489.13,452.44Z"/><path class="cls-2" d="M1489,624.11c-.15,1.83-1.4,3.49-3.59,3-2-.48-2.57-2.28-2.57-4.19,0-5.64,0-11.28,0-16.92h0c0-5.64,0-11.28,0-16.92,0-1.86.27-3.77,2.64-3.82a3.39,3.39,0,0,1,3.52,3.34A242.43,242.43,0,0,1,1489,624.11Z"/><path class="cls-2" d="M667.46,771.4c-12.24,5.39-23.92,12.17-37.19,15-3.55-3.32-2.09-5.62,1.64-7.17,10-4.14,19.93-8.3,30-12.14C665.5,765.67,668.51,766.29,667.46,771.4Z"/><path class="cls-2" d="M1290.29,786.46c-13.24-2.7-24.69-10-37.21-14.6-3.46-5.19.9-5.66,3.73-4.91,11.62,3.09,22.62,8,33.5,13.1C1293.45,781.52,1292.83,784.3,1290.29,786.46Z"/><path class="cls-2" d="M1461.87,787.37c0,2.55-1.85,2.53-3.67,2.52h-16.89V790c-5.31,0-10.65.07-16,0-1.89,0-4.55.64-4.67-2.53-.13-2.8,2.1-3.43,4.21-3.48,11.22-.31,22.47-.43,33.69-.68C1461.61,783.16,1461.84,785.23,1461.87,787.37Z"/><path class="cls-2" d="M1489.2,567.39c-.11,1.91-1.29,3.32-3.54,2.89s-2.74-2.09-2.76-3.94c-.07-5.91,0-11.82,0-17.74h.07c0-5.32,0-10.64,0-16,0-1.78,0-3.69,2.52-3.78a3.23,3.23,0,0,1,3.58,3.16C1490.13,543.8,1489.82,555.59,1489.2,567.39Z"/><path class="cls-2" d="M613.94,787.89c-.36,2.94-3.32,1.5-5,2.28l-25.06,0c-2.64-.09-5.28-.07-7.9-.3-1.8-.16-4.55,1-4.48-2.5.07-2.68,2.09-3.3,4.23-3.54,11.47-1.21,22.93-.51,34.37.13C612.35,784.12,614.22,785.51,613.94,787.89Z"/><path class="cls-2" d="M435.22,456.2a3.42,3.42,0,0,1-3.59-3.24c-1.27-12.35-1.48-24.72.57-37a3.1,3.1,0,0,1,3.09-2.69c2.66,0,2.37,2.14,2.39,3.8.07,5.91,0,11.81,0,17.72h-.06c0,5.62.09,11.24-.05,16.85C437.56,453.4,438.63,456.17,435.22,456.2Z"/><path class="cls-2" d="M1489.05,682.5a2.5,2.5,0,0,1-2.94,2.55c-2-.34-3.21-1.46-3.21-3.55,0-5.92,0-11.83,0-17.74h.12c0-5.62,0-11.24,0-16.86,0-1.41,0-3.09,2-3.38s3.55.72,3.82,2.75C1490.32,658.34,1489.88,670.42,1489.05,682.5Z"/><path class="cls-2" d="M1489.13,704.22q.07,16.89-.22,33.82c0,1.64-.28,3.75-2.87,3.57-2.2-.16-3.07-1.66-3.09-3.61-.07-5.94,0-11.88,0-17.82,0-5-.08-10.11,0-15.16,0-1.85-.86-4.49,2.39-4.74C1488.09,700,1489.13,702,1489.13,704.22Z"/><path class="cls-2" d="M721,754c-9,3.27-18.14,6.41-27.11,9.82-3.34,1.26-6.55,2.5-10.18,1.64-4-2.25-3.53-4.55.36-6,10.74-4.06,21.52-8.1,32.46-11.67C723.32,745.59,720.82,751,721,754Z"/><path class="cls-2" d="M1489.23,510.74c0,1.57-1,3.63-3.44,3a3.62,3.62,0,0,1-2.93-3.87V492.13h.13c0-5.34-.07-10.67,0-16,0-1.64-.28-3.8,2.32-4a3.23,3.23,0,0,1,3.59,3.14C1490.34,487.1,1489.7,498.93,1489.23,510.74Z"/><path class="cls-2" d="M887,719.91l-37.25,5.42c-2.42-4.14-2.84-6.74,3.46-7.38,9.93-1,19.76-3,29.67-4.4C888.46,712.77,891.6,714,887,719.91Z"/><path class="cls-2" d="M832.49,723.57c0,1.12-1.7,2.23-2.61,3.33l-32,6.54c-2.23-1-6.21.42-6.51-3.13-.29-3.32,3.31-3.82,5.74-4.32a196.7,196.7,0,0,1,31.43-4.12C830,721.82,832.52,720.82,832.49,723.57Z"/><path class="cls-2" d="M1015.74,715.18c-.23,5.21-4.34,2.39-6.71,3.09a10.26,10.26,0,0,1-2.66,0v-1.57c-8.87,0-17.74,0-26.63,0-2.5,0-5-.41-5-3.6s2.82-2.31,4.67-2.57c10.05-1.47,20.1-1,30.13.25C1012.3,711.15,1015.94,710.63,1015.74,715.18Z"/><path class="cls-2" d="M1072.22,722.32c-.35,2.26-2.42,2.53-4.12,2.37-10.24-.94-20.54-1.73-30.69-3.35-2.11-.34-6.2-1.65-6-5.52.16-3,2.89-2.21,5.37-2.5,10.24,1.59,21,3.25,31.8,5C1070.81,718.64,1072.65,719.68,1072.22,722.32Z"/><path class="cls-2" d="M1129.17,730.69c-.44,4.19-4.8,2.55-7.22,2.18-9-1.36-17.94-3.16-26.85-5-3.24-.68-8.63-.91-7.88-5,.8-4.37,5.49-.27,8.83-1.23,8.62,1.36,17.65,2.66,26.63,4.28C1125.48,726.42,1129.55,727.24,1129.17,730.69Z"/><path class="cls-2" d="M1613.22,429.68c.4-.41,1.23-1,1.15-1.21-1.06-3.15-5.82-7-2.22-9.24,4-2.56,7.14,2.57,9.86,5.55a131.51,131.51,0,0,1,14.55,20.14c1.42,2.32,3.11,4.95,0,6.95s-4.71-.81-6.26-3c-4.29-6-8.51-12.08-12.93-18-.9-1.21-1.75-4.36-4.27-1.42Z"/><path class="cls-2" d="M1641.9,519.89c3.9,8.77,1.37,14.35-.6,19.7-2.45,6.62-5.73,12.93-8.63,19.38-.78,1.74-1.94,3.17-4,2.75-2.48-.51-1.94-2.84-1.63-4.33C1629.69,544.71,1635.27,533.28,1641.9,519.89Z"/><path class="cls-2" d="M1408.2,326.14c10,3.22,20.11,6.42,30.16,9.77,2.24.74,4.83,2,3.84,5-.92,2.79-3.34,2.77-5.9,1.9-10-3.44-20.11-6.7-30.1-10.23-1.77-.62-4.27-1.64-3.49-4.32S1406,326.61,1408.2,326.14Z"/><path class="cls-2" d="M1547.27,383.22c-.08,3.07-1.81,3.35-4.14,2.35-10-4.28-20-8.48-29.91-13-2-.9-4.32-3-3-5.61,1.51-2.85,4-1.13,6.18-.24,8.69,3.6,17.39,7.16,26.08,10.76C1545.09,378.55,1547.23,380,1547.27,383.22Z"/><path class="cls-2" d="M1643.29,496.66c0-7-1.48-14.47-3.41-21.93-.72-2.8-2.11-6.58,1.44-7.78,3.76-1.29,4.81,2.72,5.5,5.42,2.38,9.44,4.89,19,2.9,28.81-.51,2.54-.39,7.07-4.55,6.26-3.55-.69-3.14-4.35-2.33-7.37A30.42,30.42,0,0,0,1643.29,496.66Z"/><path class="cls-2" d="M1328.23,307.17c-10.51-2.82-21.06-5.52-31.51-8.54-2-.57-5-1.61-3.82-4.8.87-2.39,3.45-2.25,5.41-1.78q15.48,3.7,30.88,7.78c2.24.6,4.62,1.73,3.94,4.91C1332.52,307.58,1330.48,307.43,1328.23,307.17Z"/><path class="cls-2" d="M1532.8,766.62c-4.1-.12-3.24-3-1.87-4.75,7-9.08,14.23-18,21.49-26.85.83-1,2-2.38,3.74-1.45a3,3,0,0,1,1.3,3.84c-5.35,11.35-12.59,21.24-22.88,28.67A5.84,5.84,0,0,1,1532.8,766.62Z"/><path class="cls-2" d="M1254.6,290.15l-16.39-5.3c-.62-4.38,2-5.16,5.39-4.52,10.4,2,20.76,4.16,31.14,6.28,2.12.43,4.31,1.21,4,3.81-.4,3-2.82,3.51-5.37,3.07C1267.08,292.43,1260.84,291.27,1254.6,290.15Z"/><path class="cls-2" d="M1353.72,307.51c10.13,3.28,21.07,6.72,31.92,10.42a3.49,3.49,0,0,1,2,4.47c-.74,2.27-2.81,2.08-4.43,1.56-11-3.45-21.9-7-32.82-10.62-1.89-.62-3-2.18-2.23-4.11S1351.11,307.86,1353.72,307.51Z"/><path class="cls-2" d="M1566.18,389.68c10.73,3.6,20.91,9.4,30.71,15.93,1.44,1,2.62,2.84,1.6,4.61s-3,1.4-4.71.6c-10-4.84-20.24-9.33-29.55-15.52-1.41-.93-3-2.28-2.35-4.32C1562.45,389.26,1564.18,389.62,1566.18,389.68Z"/><path class="cls-2" d="M1218.82,282.75l-35.67-6.54c-2.65-3.65-2.44-6.26,2.76-6.07,11,.41,21.63,3.17,32.27,5.65C1224.23,277.21,1220.42,280.24,1218.82,282.75Z"/><path class="cls-2" d="M1161.88,272.72l-35.38-2.86c-1-2.33-1.83-4.92,2-5,11.15-.16,22.35-.83,33.42,1.21,1.56.28,3.44.58,3.67,3C1165.91,272.16,1164,272.45,1161.88,272.72Z"/><path class="cls-2" d="M437.7,549.74h-.09c0,5.66.07,11.31,0,17,0,1.63.68,4-1.65,4.48a3.62,3.62,0,0,1-4.4-3.41,223.05,223.05,0,0,1,.29-36.46,3.65,3.65,0,0,1,3.62-3.35c2.64,0,2.2,2.34,2.23,4C437.75,537.85,437.7,543.8,437.7,549.74Z"/><path class="cls-2" d="M295.37,557.78c-1.83,5.9-5.43,5.54-7.69,1.05-4.88-9.71-9.77-19.54-11.92-30.36-.44-2.19,0-4.55,1.85-5.59,2.6-1.48,2.86,2.28,4.71,2.85C286,536.69,292.48,546.51,295.37,557.78Z"/><path class="cls-2" d="M377.3,385.51c-2.28.84-3.32.52-3.76-.82-.6-1.79-.64-4,.9-4.93,10.61-6.6,22.45-10.38,34.16-14.39a2.3,2.3,0,0,1,2.91,1.38c.69,1.67-.37,2.84-1.43,3.82-3.34,3.08-7.65,4.38-11.72,6.1C391,379.79,383.68,382.84,377.3,385.51Z"/><path class="cls-2" d="M648.17,293.45c-2.57.05-5.17.81-5.73-1.94s1.66-4.28,4.1-4.86c10.06-2.37,20.13-4.69,30.23-6.89,2-.45,4.37-.42,5.15,2.16.73,2.38-.31,4.08-2.78,4.63C668.64,288.91,658.13,291.23,648.17,293.45Z"/><path class="cls-2" d="M359.09,391.12c-.24,2.46-1.9,3.42-3.4,4.22-9.58,5.15-19.22,10.2-28.87,15.23-1.56.81-3.68,1.72-4.82,0-1.28-1.94-.22-4.07,1.69-5.28,9.7-6.19,19.56-12.11,30.61-15.65C356.26,389,358.38,388.55,359.09,391.12Z"/><path class="cls-2" d="M482.54,343.16a3.34,3.34,0,0,1-1.46-6.45c10.76-4.77,22.09-7.8,33.46-10.64,1.37-.34,3.09-.16,3.37,1.81a3.32,3.32,0,0,1-2.15,3.5C505.13,336.41,493.85,339.65,482.54,343.16Z"/><path class="cls-2" d="M593.21,306.19c-3.71.52-5.62.77-5.94-1.77a3,3,0,0,1,1.9-3.55c11.38-4.39,23.39-6.32,35.2-9.06,1.48-.34,3.11.13,3.28,2,.22,2.58-1.79,3.59-3.72,4.38C613.46,302.51,602.22,303.83,593.21,306.19Z"/><path class="cls-2" d="M277.08,507.73c-2-.05-4.27.79-5.54-1.68.65-10.85-.63-21.83,2-32.57.73-3,.68-7.46,5.28-6.45,4.07.9,2.4,4.88,1.72,7.43C277.6,485.39,280.81,496.92,277.08,507.73Z"/><path class="cls-2" d="M568.07,307.15c1.71.57,3.74.64,4.24,1.56,1.07,1.92-.67,3.61-2.23,4.15Q553.4,318.64,536.55,324a3.16,3.16,0,0,1-4.08-2.49,3.12,3.12,0,0,1,2.21-3.49C545.83,314.3,557,310.72,568.07,307.15Z"/><path class="cls-2" d="M309.3,427.65c-3.71-3.75-4.4,1.22-5.61,2.41-5.72,5.66-9.61,12.73-13.82,19.53-1.08,1.74-2.63,3.9-4.92,2.63-1.6-.9-1.23-3.38-.56-5,5.05-11.83,12.27-21.91,22.77-29,5.16,3.06-1.8,6.94,2,9.53Z"/><path class="cls-2" d="M373.85,741.92c3,6.62,8.6,11.09,13.11,16.46,1.88,2.23,6.37,4.71,3.13,7.77-2.74,2.59-5.78-1.15-8.2-3.13-8.18-6.68-13.14-15.7-17.78-24.93-.05-4.57,1.95-5.11,5-2.26C371,737.57,372.29,739.87,373.85,741.92Z"/><path d="M825.18,432.39v111H805.35V472.68l-19.51,14.9-16.18,12.54-16.17-12.54L734,472.68v70.74H714.15v-111L734,447.61l35.68,27.44,35.69-27.44Z"/><path d="M951.59,523.91v19.83H840.88V511.06a31.69,31.69,0,0,1,2.69-12.85,32.56,32.56,0,0,1,28.87-20H920.5a13,13,0,0,0-1.11-25.86h-78.2V432.55h78.2a32.63,32.63,0,0,1,32.68,32.67,32.4,32.4,0,0,1-9.36,22.68,33,33,0,0,1-22.37,10h-47.9a12.9,12.9,0,0,0-11.58,12.84v12.85Z"/><path d="M1076.1,498.37a31.69,31.69,0,0,1,2.69,12.85,32.62,32.62,0,0,1-32.67,32.67h-78.2V524.07h78.2a12.93,12.93,0,0,0,12.85-13,12.78,12.78,0,0,0-11.43-12.85H967.92V432.86h101.67v19.83H987.75v25.7h59.64a32.14,32.14,0,0,1,28.86,19.82Z"/><path d="M1196.32,487.43a32.75,32.75,0,0,1-23.48,55.51h-45.52a32.59,32.59,0,0,1-30.14-20,34.5,34.5,0,0,1-2.53-12.85V464.59a32.12,32.12,0,0,1,8.25-21.42,33.46,33.46,0,0,1,9.51-7.45,31.42,31.42,0,0,1,14.91-3.65h69V451.9h-69a13.06,13.06,0,0,0-13,13v15.55a32.41,32.41,0,0,1,12.37-2.54h46.79a32.81,32.81,0,0,1,23,10Zm-23.63,35.69a13.07,13.07,0,0,0,13-13,12.92,12.92,0,0,0-12.21-13h-46.79a13,13,0,0,0,.63,26h45.37Z"/></g></g></svg>