<svg xmlns="http://www.w3.org/2000/svg" viewBox="0 0 1920 1080"><defs><style>.cls-1{fill:#f2f2f2;}.cls-2{fill:#010101;}</style></defs><g id="Capa_2" data-name="Capa 2"><g id="Capa_1-2" data-name="Capa 1"><rect class="cls-1" x="1919" y="1079" width="1" height="1"/><rect class="cls-1" width="1" height="1"/><rect class="cls-1" y="1079" width="1" height="1"/><rect class="cls-1" x="1919" width="1" height="1"/><path class="cls-1" d="M1624.67,556.82a13.88,13.88,0,0,0,3.26-9.44c-.08-32.29.27-64.59-.18-96.87-.25-18.18-8-33.24-22.25-44.75-6.87-5.57-14.85-9.35-22.91-12.72-16.21-6.79-23.95-18.44-22-36.08l12.82-37.08c.29-5.52-3.69-5.43-6.36-6.41-18.15-6.67-36.36-13.19-54.57-19.71-6.72-2.4-14.55-7.87-19.94-6.1l-16.15,39.28c-13.32,16.51-18.44,18-38.43,12.37-27.06-7.57-54.1-15.24-81.31-22.25-54.19-14-108.74-26.42-164.23-34.07-52.76-7.27-105.88-11.23-159-15-20.69-1.46-26.16-7.3-27.68-28.62-.16-2.2,1.14-5.6-2.88-5.68-5.91-.13-12.57-1.53-17.5.71-3.8,1.73-.75,8.59-1.22,13.14-.35,3.42.27,7-.27,10.32-.67,4.14,2.37,11.51-4,11.42-5.5-.09-2.94-7.23-3-11.17-.29-26.8-.17-26.66-27-24.88-4.79.31-6.32,1.37-6,6.46.43,8.41-.15,16.88-.46,25.33-.08,2.05,0,4.78-3.31,4.51-3.1-.25-2.88-2.81-2.89-5-.07-8.46-.29-16.94,0-25.39.16-4.63-1.56-6.24-6-5.78a31.56,31.56,0,0,1-7.52.1c-6.5-.87-9.18.68-9.16,8.29.05,15.74-9.21,24.89-24.77,26.14-21.55,1.74-43.11,3.45-64.68,4.94A1309.27,1309.27,0,0,0,583.67,312c-37.17,9.7-74.21,19.88-111.39,29.53-11.23,2.91-20.36-1.76-25.8-11.9l-15.85-38.2c-1.55-4.8-3.94-5.08-8.41-3.4-23.63,8.9-47.39,17.46-71.12,26.07-2.05.75-5.26,1.16-4.65,3.61l12.93,39.54c2.36,17.52-6.09,28.59-21.61,35.29-3.72,1.6-7.4,3.35-11,5.27-20.14,10.83-32.8,26.82-34.05,50.36-1.47,27.56-1,55.13-.41,82.71-.95,11.51-1.66,22.52,6.72,32.63,5.47,6.6,8.54,15.23,12.52,23,1.3,2.54,2.37,6.11-.37,7.71-3.52,2.07-5.61-1.06-7-4s-2.67-6.36-4.45-9.27c-1.89-3.11-1.86-7.83-6.72-9.17.39,13.44,9.21,32.16,18.56,40.07,2,1.67,4.56,4.06,6,.76,3.92-8.75,6.86-2.23,8.07.8,4.75,11.89,14.48,13.35,25.25,13.34h139.5c17.44-.34,30,7.29,38.31,22.39,10.73,19.46,20.64,39.44,32.49,58.2C576.9,732.19,586.87,758,583,787.9a10.34,10.34,0,0,0,.39,2.77c-.4,15.33-.68,30.67-1.29,46-.18,4.59.72,7.25,6,6.79,2.14-.18,4.56,0,4.66,3.17.08,2.52-2,3.42-3.68,3.43-7.37,0-7.44,4.51-6.82,10a51,51,0,0,1,.06,11.25c-.69,6.09,2,7.33,7.59,7.23,21-.37,42-.37,63-.36,15,0,15.75.08,14.9-15-1.4-25.29,16.58-44,36.8-49.07,5.44-1.37,10.78-3.1,16.16-4.67,40-8.15,80-16.11,120.52-20.88,15.19.63,29-2.47,37.54-16.42,12-19.62,28.91-28.87,51.94-26.34,5.05.56,6.56-1.58,6.4-6.42-.27-8.14-.06-16.3.06-24.45,0-2.7-.55-6.45,3.41-6.48,3.65,0,2.66,3.74,2.76,5.9.4,8.14.93,16.32.43,24.43-.38,6,1.7,7.24,7.32,7.35,6.08.13,7.21-2.08,7.12-7.6-.31-18.49-.18-37,0-55.49,0-3-1.55-6.77,2.42-9.06,2.06,3.22,1.14,6.4,1.15,9.41.08,18.5.31,37-.1,55.5-.15,6.31,2.54,7,7.78,7.13,5.71.17,7.85-1.41,7.4-7.35a167.87,167.87,0,0,1,0-20.68c.16-3.37-1.82-9.07,3.21-9.26s3.81,5.43,3.88,9a200.86,200.86,0,0,1-.12,20.68c-.53,6.39,1.92,7.94,7.91,7.59,14.81-.88,28.72,1.59,39.48,13.16,12.18,21,29.46,32.72,54.67,30.06,2.1.48,4.18,1.14,6.32,1.41A1027,1027,0,0,1,1213,813.36c16.58,4.14,28.62,13.46,35.88,29,4,8.56,4.11,17.83,3.58,26.74-.52,8.67,2.94,9.62,10.17,9.41,18.18-.51,36.37-.34,54.56-.36,19.58,0,19.42,0,20.59-19.59.31-5.25,0-8.72-6.55-7.84-2.44.33-4.22-.88-4.3-3.72-.08-3,1.84-3.63,4.27-3.62,3.54,0,6.53.44,6.44-5.18-.38-24.11.06-48.24-.37-72.36a69.91,69.91,0,0,1,9.56-36.63c14-24.77,27.28-49.94,40.87-75,10.85-21.76,28.71-29.87,52.41-27.61l131.66-.15c9-.26,18.65-.64,21.83-12,2.34-4.8,4.54-11,8.35-.82.8,2.14,2.09,1.54,3.64.82,10.4-4.85,23.06-30.7,20.83-45.23-4.53,8.25-8.22,15.2-12.15,22-1.22,2.11-3.18,4.81-5.88,3.17-1.93-1.16-1-4.11-.1-6.09C1613.27,577.58,1617,566.16,1624.67,556.82Z"/><path class="cls-2" d="M1714.14,294.07c0-2.49-10.19-11.49-10.19-11.49-5.13-4.36-11.34-5.08-17.65-5.2-7.84-.15-15.76.67-23.52-.13-27.16-2.8-48.13,4.95-59.18,32a20.61,20.61,0,0,1-14.71,12.23c-3.75.88-9.24,2-6.56-5.5,1.56-4.36-1.69-5.59-4.5-6.76-4.33-1.78-8.84-3.12-13.26-4.71-22.92-8.27-45.81-16.66-68.8-24.74-3.32-1.17-8.51-4.8-10.12,1.5s-4.15,5.33-8.71,3.79c-41.2-14-83.11-25.48-125.34-35.81-66.06-16.16-132.75-29-200.36-36.78-43.64-5-87.36-8.62-131.32-8.89-2.94,0-6.87,1.18-6.93-3.79-.07-5.77-4.12-5.38-7.87-5.4l-89.43-.16c-5.1-.07-9.69-.18-8.74,7.13.37,2.89-1.76,3.55-4.28,3.59-4,.07-8.11.52-12.16.48-101.5,0-191.4,16.94-191.4,16.94a1771,1771,0,0,0-256,62.65c-4.17,1.36-7.5,3.39-8.67-3.5-.84-4.9-5.72-3.4-8.58-2.38q-42,14.91-83.79,30.4c-2.67,1-6.46,2.23-4.68,6.64,3.05,7.56-2.05,6.5-6.05,5.4-6.24-1.71-11.7-5.24-14.24-11.36-11.35-27.36-32.42-36.21-60.51-33-9,1-18.17.34-27.25.79a25.43,25.43,0,0,0-24,22.79V604.93c.17,21.94,8,29.57,30.1,29.69,17.48.09,35,.26,52.45.39,4.2-.84,6.91,0,5.77,5.14a22.07,22.07,0,0,1,.16,11.21c.41,11.57.61,23.15,1.28,34.69.95,16.22,11.59,26.46,27.75,27.17,10.3.46,20.54,9.49,22.54,19.4.65,3.2-1.53,3.91-3.25,4.81-15.23,8-30.54,15.76-45.83,23.62-6,3.64-7.19,7.5-3.39,14.37l48.86,92.23c6.63,13.42,23.69,0,23.69,0,4.35-5.25,10.54-6.76,15.62-9.87,3.19-2,6.67-3.43,10-5.17,4.44-2.3,8.8-6.4,13.28-6.52,5.42-.15,4.84,7.85,8.88,10.8,3.47,2.53,6.72,5.37,10.06,8.07,9.79,5.81,30.2,8.57,30.2,8.57,38.48-.14,77-.22,115.45-.48,4.15,0,6.85.62,6.16,5.52-.87,6.23,2.79,7.26,7.87,7.22,28.16-.21,56.32-.43,84.48-.33,6.12,0,8.61-1.93,7.84-8.14-.45-3.68-.69-7.41,4.57-8.63,12.44-2.88,24.55-7.18,37.26-9,40.84-10.33,82.11-18.3,124.06-22.52,37.34-6.51,75.15-7,112.86-8.79l17.14,0c39,2.19,78.13,3.26,116.8,9.74,46.06,5.29,91.25,15.13,136.15,26.44,3.63.91,7.18,2.49,10.85,2.82,7.7.69,11.29,4,9.89,12.08-.76,4.36,1.74,6.25,6,6.23q44.21-.24,88.41-.4c3.52,0,5.61-1.24,5-4.85-1.17-7.11,2.94-7.32,8.27-7.29,37,.16,74-.47,111,.36,25.31.56,42.1-10.35,53.3-32.49,9.87-19.5,20.87-38.43,31.37-57.62q17.25-32.52,34.52-65c2.12-4,5.43-5.14,10-5.17,21.54-.12,31.38-9.66,32.49-30.9.35-6.52.6-13,.89-19.57-.15-6.88-.14-13.77-.51-20.64-.31-5.76,2.16-7.63,7.79-7.54,17.25.25,34.51.12,51.76.08,21,0,29.54-8.42,29.49-29.66C1714.43,498.65,1715,400.38,1714.14,294.07Zm-701.26-72.16c.36-5.2,4.47-3.4,7.14-3.41,42.07-.07,84,3.22,125.69,8.13A1655.56,1655.56,0,0,1,1333.25,260c46.58,11,92.6,24.12,138.2,38.66,2.21.71,5.34.48,5.16,4.19-.7,3.89-2.21,6.59-6.92,5.09-5.07-1.61-10.13-3.24-15.26-4.64-6-1.64-11.84-3.44-18.35-2.18a15.33,15.33,0,0,1-12.4-3.35c-13-11.12-28.88-11.94-44.61-13.17a39.24,39.24,0,0,1-15.19-4.29c-13.27-6.79-27.13-11.19-42.21-11a7.88,7.88,0,0,1-2.8-.13c-23.49-9.07-48.39-12-72.82-17-14.69-3.06-29-7.9-44.25-7.26a23.4,23.4,0,0,1-9.24-1.25c-17.3-6.73-35.7-5.25-53.55-7.81-39.78-5.7-79.79-7.15-119.81-9.1C1016,226.52,1012.56,226.64,1012.88,221.91Zm6.76,12c38.41,2.89,76.87,5.09,115.16,9.6a1497.3,1497.3,0,0,1,232.42,46.55c32.45,9.17,64.69,19.1,97.08,28.47,5.36,1.54,5.59,3.85,2.77,7.88-4.78,6.84-10.62,9.9-19.31,7.5-41.59-11.48-83.17-23-125.11-33.2-67.36-16.37-135.47-27.92-204.59-33.42-29-2.31-58.13-4.33-87.16-6.84-12.15-1.05-18.18-8.49-18-21.18C1011.93,234,1015.26,233.6,1019.64,233.93Zm-82.53-32.09,51-.09c18,0,17.73,0,17.6,17.52,0,5.35-1.47,7.11-6.86,6.91l-78.71-.13c-3.93.12-5.31-.93-5.58-5.14C913.4,201.76,913.25,201.77,937.11,201.84Zm-488,96.44c30.86-9.17,61.66-18.58,92.74-26.93a1641,1641,0,0,1,216.08-42.77c31.65-4.09,63.43-7.29,95.42-8.49,15.92-.6,31.85-1.46,47.79-1.5,2.43,0,6.06-1.41,6.13,3.36,0,4-2.52,4.44-5.6,4.6-21.58,1.12-43.23,1.19-64.74,3.77a330,330,0,0,0-45.7,4.47c-14.44,2.54-29.62,1.19-43.88,4.3-25.91,5.66-52.69,6-78.19,14.45-11.63,3.87-25,1.87-36.78,6.41-19.11,7.37-40.22,6.72-59,14S535,284.37,515.62,288.58c-7.31,1.58-14.48,3.71-20.33,9.06-1.94,1.77-5.35,3.5-7.65,3-12.17-2.47-22.56,3.51-33.62,6.27a9.92,9.92,0,0,0-1.82.47c-4,1.89-7.15,1.69-8.91-3.13C441.09,298.28,446.55,299,449.06,298.28Zm458.16-57.93c-.38,12.84-6.31,19.59-19.14,20.39-28.77,1.8-57.51,4-86.24,6.31-83.87,6.82-166.05,22.79-247.2,44.51-25.65,6.86-51.19,14.14-76.8,21.13-8.57,2.34-17,4.65-23.75-4.57-3.91-5.33-4.53-7.71,2.88-9.84,33.33-9.61,66.39-20.17,99.8-29.48,69.67-19.42,140.32-34.26,212.1-43.44,43.52-5.56,87.28-8.41,131-11.38C905.52,233.6,908.51,234.7,907.22,240.35ZM415.84,830.45q-30.61,16.39-61.16,32.94c-3.49,1.9-5.17,1.68-7.2-2.19-15.31-29.07-30.88-58-46.42-86.92-1.85-3.46-2.48-5.71,2.13-8,13.46-6.63,26.77-13.61,39.81-21,5.57-3.17,7.82-2.18,10.4,3.49,3.48,7.65,8,14.86,12.37,22.07,1.87,3.08,4.12,7.1,8.8,3.58,3.63-2.74,6.77-5.91,3.84-11-4.33-7.61-8.7-15.19-13-22.83-1.49-2.69-3.67-5.75.78-7.79,3.51-1.61,4.86.78,6.31,3.55Q395,779,417.63,821.64c.72,1.38,1.36,2.8,1.94,4C420,828.78,417.81,829.4,415.84,830.45Zm22.74-114.36c5.84-.11,3.7-7.86,3-11.69-2.12-11.68,4.87-15.7,13.84-18.09,10.66-2.84,21.43-3.58,31.92,1.1,18.6,4.55,29.91,16.85,36.08,34.33,7,19.93,1.92,37.47-11.33,53.09-5.54,6.52-12.66,11-20.2,15-14.1,7.43-28.16,14.93-42,22.78-5.83,3.29-9.1,4-8.13-4.46a77.24,77.24,0,0,0,0-10.32c0-2.13.28-5-2.66-5.15-3.19-.22-4.05,2.61-4.18,5.15-.29,5.62-.33,11.26-.34,16.88,0,3.2.2,6.48-3.61,7.75-4.46,1.49-5.06-2.57-6.55-5-2.11-3.46-3.9-7.11-6.3-11.56,13.64,1.74,7.8-4.74,5.06-10-3.29-6.34-7.53-12.21-9.49-19.2-3.72-3.21-4.07-12.88-12.71-6.61l-1.51,1.43-.39-1.55c-1.89-3.57-3.79-7.13-5.68-10.71-1.49-2.8-3.74-5.31,2.16-6.17,4.65-.68,2.07-4.66,1.07-6.73a182.32,182.32,0,0,0-9.52-17.2c-2.58-4.11-2.27-6.32,2.4-8.66q19.68-9.84,38.88-20.62c6.27-3.52,6.45-.72,6.44,4.5C434.83,708.68,432.87,716.2,438.58,716.09ZM567.81,843.57c-5.93-.39-11.91-.08-17.86-.07-1.77,5.28-.05,7.66,5.68,7.31,4.37-.27,8.77-.11,13.16,0,2.67.05,6.12-.85,6.29,3.48s-3,4-5.88,4l-74.26-.43-7.63-.12-20.6-.1c-8.47,1.1-16.9.45-25.27-.89a24.23,24.23,0,0,1-8.76-3c-5.91-3.6-13.84-9-12.48-14.85,1.43-6.17,11.16-7.87,17.6-10.89,2.87-1.34,4.59,1.14,6.44,2.73a58.55,58.55,0,0,0,21.24,11.62c2.82.87,6.66,2.94,8.14-.9,1.27-3.3-2.71-4.28-5.13-5.53-5-2.56-10.11-5-15-7.7-2.11-1.16-5.27-2.08-5.33-4.79-.07-3,3.42-3.27,5.49-4.4,17.32-9.42,35.26-17.84,51.92-28.29,21.55-13.52,31.28-34.4,28.11-59.43-3.3-26.1-18.32-44-43.89-52.16-4.44-1.41-9.11-2.08-13.67-3.09-11.48.72-22.91,1.72-32.67,7.84-3.23-4.18,1-11.82-4.73-11.63-6.23.21-3.79,7.38-3.92,11.65-.12,3.91-2.31,5.48-5.19,6.9-17.06,8.38-33.07,18.8-51,25.6-5.11,1.94-9.53,5.77-14.13,8.92-3.85,2.63-6.05,1.7-7.85-2.48a99.13,99.13,0,0,0-6.17-11.54c-5-8.39-12.27-12.71-22.33-12.93-15.29-.35-18.05-2.92-18.74-18.09-.49-10.88.21-21.81.37-32.73-2.75-27.27-3.5-27.93-31.4-28-15.94,0-31.89-.16-47.83,0-7,.08-10.39-2.75-10.33-9.94.21-26.23.27-52.47.38-78.7q-.21-67.65-.4-135.29-.09-43.69.07-87.38c.05-13.25,2.19-15.59,15-15.86,13.47-.28,27-.09,40.42-.13,8.9,0,15.58,3.56,19.89,11.59,2.8,5.23,6.05,10.21,9.12,15.29,4.9,8.12,11.64,14,21,16,8,1.69,6.4,6.29,3.78,11-1.5,2.71-6.21,4.38-1.72,8.25,3.4,2.94,6,7.75,11.84,4.78a2.7,2.7,0,0,1,.86-.37c3.77-.38,7.84-5.45,10.88-1.75,2.64,3.19.85,8.46-.3,12.67a18.17,18.17,0,0,1-7.42,10.54c-2.58,1.75-5.15,3.74-8,4.82-38.65,14.4-53.88,42.74-51.33,83,1.31,20.78.23,41.71.23,62.57l-2.26.79c-4.42-7.85-8.74-15.75-13.31-23.52-1.4-2.39-2.05-7.36-6.12-5.14-3.19,1.74-1.26,5.55.18,8.4,2.67,5.25,5.3,10.52,7.94,15.78,4.33,4.31,5.26,11.13,11.64,14.17,3.44,1.64,1.66,6.27,1.69,9.55.15,16.85-.24,33.67,8.29,49.21,5.73,10.43,13.31,19,23.7,24.55a32.36,32.36,0,0,1,16.31,19.41c2.41,3.13,5.13,5.45,9.43,3.55,1.11-4.6-2.44-8.17-3.4-13.29h13.93c24.65,0,49.31.26,73.95-.24,6.6-.13,9,1.33,8.22,8-.49,4.29.12,8.71.24,13.07,4.7,1.18,7.74.12,7.38-5.49V636.32c-.19-1.31.27-2,1.7-1.76,16.91,0,33.83-.35,50.73,0,12.91.29,21.52,8.17,27.42,18.72,16.48,29.47,32.55,59.15,48.75,88.77,3.24,5.93,4.21,12.45,4.24,19.07.13,25.08,0,50.15.34,75.22C575.61,842.41,573.33,843.94,567.81,843.57Zm676,8.73c-1.29,4.14-4.18,1.11-6.07.61-31.47-8.37-63.25-15.28-95.24-21.35a1050.94,1050.94,0,0,0-169-17.85C954,813,884,817,884,817c-25.74,3.43-51.7,5.14-77.39,9.3q-59.82,9.69-118.48,24.8c-1.21.31-2.38,1.09-3.57,1.12-2.82,0-6.87,3.62-8.16-.32-1.42-4.33,2.63-6.21,6.68-7.17,7.59-1.81,15.18-3.69,22.61-6.06,2.57-.81,7.81,0,6.89-4.44-1-4.71-5.74-2.32-8.74-2-6.11.66-11.69,4.2-19.34,4.09,5.28-8.86,13-12.68,21.23-14.79A910.88,910.88,0,0,1,801.23,802c18.58-2.7,37.21-5.11,55.84-7.43,11.28-1.4,20.73-6.41,26.42-15.94,12.15-20.33,29.33-29,52.72-25.64a32.61,32.61,0,0,0,7.52,0l34.48.07a42.41,42.41,0,0,0,5.64,0c22.44-3,39.68,4.17,51.34,24.41,8,13.88,22,17.68,36.89,18.83,47.54,3.69,94.06,13.21,140.19,24.8,9,2.26,17.29,6.26,23.36,14.75-6.49,1.53-11.19-1.73-16.29-2.66-3.73-.69-9.1-3.83-10.46,1.07-1.25,4.47,4.83,4.46,8.2,5.4,5.41,1.5,10.92,2.61,16.36,4a29.71,29.71,0,0,1,7,2.51C1242.69,847.39,1244.69,849.55,1243.83,852.3Zm93.42-86.46c.43,24.12,0,48.25.37,72.36.09,5.62-2.9,5.19-6.44,5.18-2.43,0-4.35.61-4.27,3.62.08,2.84,1.86,4,4.3,3.72,6.59-.88,6.86,2.59,6.55,7.84-1.17,19.59-1,19.56-20.59,19.59-18.19,0-36.38-.15-54.56.36-7.23.21-10.69-.74-10.17-9.41.53-8.91.42-18.18-3.58-26.74-7.26-15.54-19.3-24.86-35.88-29a1027,1027,0,0,0-120.72-22.82c-2.14-.27-4.22-.93-6.32-1.41-25.21,2.66-42.49-9.07-54.67-30.06-10.76-11.57-24.67-14-39.48-13.16-6,.35-8.44-1.2-7.91-7.59a200.86,200.86,0,0,0,.12-20.68c-.07-3.53,1.24-9.16-3.88-9s-3,5.89-3.21,9.26a167.87,167.87,0,0,0,0,20.68c.45,5.94-1.69,7.52-7.4,7.35-5.24-.14-7.93-.82-7.78-7.13.41-18.49.18-37,.1-55.5,0-3,.91-6.19-1.15-9.41-4,2.29-2.39,6.09-2.42,9.06-.18,18.5-.31,37,0,55.49.09,5.52-1,7.73-7.12,7.6-5.62-.11-7.7-1.31-7.32-7.35.5-8.11,0-16.29-.43-24.43-.1-2.16.89-5.93-2.76-5.9-4,0-3.38,3.78-3.41,6.48-.12,8.15-.33,16.31-.06,24.45.16,4.84-1.35,7-6.4,6.42-23-2.53-39.94,6.72-51.94,26.34-8.53,13.95-22.35,17-37.54,16.42-40.55,4.77-80.55,12.73-120.52,20.88-5.38,1.57-10.72,3.3-16.16,4.67-20.22,5.1-38.2,23.78-36.8,49.07.85,15.12,0,15-14.9,15-21,0-42,0-63,.36-5.57.1-8.28-1.14-7.59-7.23a51,51,0,0,0-.06-11.25c-.62-5.49-.55-10,6.82-10,1.66,0,3.76-.91,3.68-3.43-.1-3.18-2.52-3.35-4.66-3.17-5.28.46-6.18-2.2-6-6.79.61-15.32.89-30.66,1.29-46a10.34,10.34,0,0,1-.39-2.77c3.83-29.87-6.14-55.71-21.83-80.54-11.85-18.76-21.76-38.74-32.49-58.2-8.33-15.1-20.87-22.73-38.31-22.39H350.91c-10.77,0-20.5-1.45-25.25-13.34-1.21-3-4.15-9.55-8.07-.8-1.48,3.3-4.07.91-6-.76C302.2,604,293.38,585.23,293,571.79c4.86,1.34,4.83,6.06,6.72,9.17,1.78,2.91,3,6.18,4.45,9.27s3.53,6.12,7,4c2.74-1.6,1.67-5.17.37-7.71-4-7.8-7.05-16.43-12.52-23-8.38-10.11-7.67-21.12-6.72-32.63-.55-27.58-1.06-55.15.41-82.71,1.25-23.54,13.91-39.53,34.05-50.36,3.57-1.92,7.25-3.67,11-5.27,15.52-6.7,24-17.77,21.61-35.29l-12.93-39.54c-.61-2.45,2.6-2.86,4.65-3.61,23.73-8.61,47.49-17.17,71.12-26.07,4.47-1.68,6.86-1.4,8.41,3.4l15.85,38.2c5.44,10.14,14.57,14.81,25.8,11.9,37.18-9.65,74.22-19.83,111.39-29.53a1309.27,1309.27,0,0,1,241.4-39.14c21.57-1.49,43.13-3.2,64.68-4.94,15.56-1.25,24.82-10.4,24.77-26.14,0-7.61,2.66-9.16,9.16-8.29a31.56,31.56,0,0,0,7.52-.1c4.43-.46,6.15,1.15,6,5.78-.29,8.45-.07,16.93,0,25.39,0,2.16-.21,4.72,2.89,5,3.28.27,3.23-2.46,3.31-4.51.31-8.45.89-16.92.46-25.33-.27-5.09,1.26-6.15,6-6.46,26.86-1.78,26.74-1.92,27,24.88.05,3.94-2.51,11.08,3,11.17,6.34.09,3.3-7.28,4-11.42.54-3.36-.08-6.9.27-10.32.47-4.55-2.58-11.41,1.22-13.14,4.93-2.24,11.59-.84,17.5-.71,4,.08,2.72,3.48,2.88,5.68,1.52,21.32,7,27.16,27.68,28.62,53.12,3.74,106.24,7.7,159,15,55.49,7.65,110,20.1,164.23,34.07,27.21,7,54.25,14.68,81.31,22.25,20,5.59,25.11,4.14,38.43-12.37l16.15-39.28c5.39-1.77,13.22,3.7,19.94,6.1,18.21,6.52,36.42,13,54.57,19.71,2.67,1,6.65.89,6.36,6.41L1560.61,357c-2,17.64,5.77,29.29,22,36.08,8.06,3.37,16,7.15,22.91,12.72,14.21,11.51,22,26.57,22.25,44.75.45,32.28.1,64.58.18,96.87a13.88,13.88,0,0,1-3.26,9.44c-7.63,9.34-11.4,20.76-16.4,31.51-.93,2-1.83,4.93.1,6.09,2.7,1.64,4.66-1.06,5.88-3.17,3.93-6.82,7.62-13.77,12.15-22,2.23,14.53-10.43,40.38-20.83,45.23-1.55.72-2.84,1.32-3.64-.82-3.81-10.2-6-4-8.35.82-3.18,11.4-12.79,11.78-21.83,12l-131.66.15c-23.7-2.26-41.56,5.85-52.41,27.61-13.59,25-26.88,50.18-40.87,75A69.91,69.91,0,0,0,1337.25,765.84ZM1699.7,607c0,11.11-1.5,12.42-12.6,12.49-18.5.13-37,.14-55.49.15-9.61,0-17.12,3.27-20.72,12.88-.21,16.53-.2,33.06-.72,49.58-.39,12.49-4,16.21-16.63,16s-20.38,5.65-26,16.29c-6.19,11.83-12.95,23.36-19.47,35-15.15,31.24-32.46,61.33-49,91.83-6,11.17-15.77,16.56-28.47,16.61q-60.18.24-120.35.51c-3.1,0-5.69-.12-5.47-4.28.19-3.84,2.93-3.28,5.38-3.32l15-.21c3,0,4.81-1.62,4.72-4.59-.11-3.37-3-2.34-5-2.67-6.54-1.12-15.56,3.59-19.14-2.27-3.08-5.05-.89-13.37-.88-20.25q.09-31.49.3-63a31.46,31.46,0,0,1,3.63-15.37q24.91-45.16,49.84-90.34a27.23,27.23,0,0,1,2.92-3.64c5.7-9.86,14.5-14.09,25.63-14.17,14.42-.1,28.84.09,43.23-.55,6.3-.29,7.58,2.08,7,7.54a79,79,0,0,0,0,10.32c0,2.1.91,3.62,3.23,3.77s3.2-1.51,3.48-3.5c.18-1.24.19-2.49.28-3.74,1-14,1-13.78,15.41-14,25.67-.47,51.36,1.28,77-1.07,6.57-.6,4.35,3.23,3.29,6.5-.9,2.77-3.62,6.28.57,7.95,3.61,1.44,5.61-2.13,6.82-5,3.54-8.39,8.66-15.15,17.53-18.4,23.29-16.24,31.94-39.08,30.41-66.7-.4-7.14-.24-13.22,6.31-19.7,7.69-7.6,11.51-19.1,17-28.9,1.44-2.56,1.28-5.21-1.19-6.6-2.83-1.6-4.59.88-5.86,3-5,8.47-9.92,17-15.18,26.05-2.67-3.05-1.49-5.91-1.52-8.49-.28-27.23,2-54.55-1-81.68-2.48-22.08-14.88-38.07-34.4-48.49-6.9-3.69-13.94-7.09-20.9-10.65-5.37-2.74-8.56-7.39-10.18-12.94-1.21-4.16-2.61-9.55.45-12.52,2.59-2.51,7.44.37,10.34,2.34,6.27,4.27,8.5-.73,12.31-3.8,5.26-4.23.49-5.83-1.2-8.75-2.56-4.43-3.65-9.22,3.25-11,10.81-2.73,17.8-10,23.28-19.09,2.58-4.28,5-8.71,7.74-12.86,4.83-7.18,11.24-11.37,20.39-11.18,13.47.29,27-.1,40.44.07,11.21.15,14.09,2.92,14.09,13.91Q1699.83,456.64,1699.7,607Z"/><path class="cls-2" d="M959.93,632.12c-2-3.09-1.61-6.59-1.61-10,0-25.64,0-51.28.15-76.91,0-2.49-2.34-6.8,3.31-6.83q.09,43.54.14,87.09C961.91,627.78,962.85,630.59,959.93,632.12Z"/><path class="cls-2" d="M960.83,267.67v92.8l-1.34,0v-92.8Z"/><path class="cls-2" d="M961.05,403.46v92.47l-1.51,0V403.49Z"/><path class="cls-2" d="M943.44,626.36c-.23,2.08-.06,4.76-3.27,4.54-3-.2-3-2.6-3-4.84,0-5.6,0-11.21,0-16.81h.12c0-5.6,0-11.2,0-16.8,0-2.15-.07-4.7,2.9-5,3.39-.36,3,2.48,3.18,4.48A169.5,169.5,0,0,1,943.44,626.36Z"/><path class="cls-2" d="M944.28,430.18c-.28,4.68-.61,10.56-1,16.45-.12,2-.56,3.85-3.08,3.68-2.28-.16-3.05-1.79-3.05-3.88,0-11.81.05-23.62.14-35.43,0-1.88.28-3.93,2.72-4.16,3.27-.29,3.2,2.37,3.33,4.43C943.76,417.15,944,423.05,944.28,430.18Z"/><path class="cls-2" d="M943.53,323.89c-.22,2.06.91,5.78-3.09,5.65-4.41-.15-3.15-3.94-3.25-6.46-.21-5-.06-10-.06-15h.14c0-6,0-11.9,0-17.85,0-2.42.48-4.54,3.52-4.32,2.66.19,2.34,2.49,2.5,4.26A170.79,170.79,0,0,1,943.53,323.89Z"/><path class="cls-2" d="M944.38,550.37c-.28,4.89-.58,10.78-1,16.67-.13,1.85-.35,3.9-3,3.73-2.26-.14-3.2-1.52-3.2-3.71.05-11.82.06-23.65.13-35.47,0-2,.81-3.82,3.08-3.89,2.51-.07,2.92,2.22,3,3.95C943.89,537.53,944.05,543.44,944.38,550.37Z"/><path class="cls-2" d="M980,690.9c-3.61-.25-3.17-4.09-3.16-6.79,0-12.12.22-24.23.35-36.35,4.59-3.1,5.66.66,7.13,3.65-.13,10.87-.15,21.74-.49,32.61C983.75,686.75,984.73,691.23,980,690.9Z"/><path class="cls-2" d="M983.75,308.72c0,5.61.16,11.22-.09,16.82-.08,2-.51,4.69-3.67,4.22-2.18-.33-3-2.13-3-4.13q0-18.22.12-36.45c0-2,.88-3.84,3-3.93,2.33-.09,3.12,2.07,3.25,3.89.48,6.51.69,13,1,19.57Z"/><path class="cls-2" d="M983.52,506.86c-.12,1.77-.73,3.91-3.32,3.58-2.19-.28-3.17-1.95-3.2-4-.08-6.24,0-12.48,0-18.73h.08c0-5.93,0-11.85,0-17.78,0-2,.88-3.92,2.88-4.18,2.32-.3,3.17,1.85,3.38,3.7C984.7,481.94,984.31,494.41,983.52,506.86Z"/><path class="cls-2" d="M983.75,446.73c0,1.75-.8,3.95-3.15,3.88-2.65-.07-3.7-2-3.71-4.48,0-5.94,0-11.87,0-17.81H977c0-5.93-.07-11.87,0-17.8,0-1.9.57-3.82,3-3.95s3.38,1.82,3.41,3.65Q983.81,428.48,983.75,446.73Z"/><path class="cls-2" d="M943.61,386.08c-.16,1.8-.28,3.9-2.9,4-3,.1-3.57-1.77-3.55-4.27.05-5.92,0-11.84,0-17.76h.05c0-5.3,0-10.6,0-15.9,0-2.25.25-4.75,2.94-5.11,3.24-.43,3.11,2.51,3.28,4.52A195.32,195.32,0,0,1,943.61,386.08Z"/><path class="cls-2" d="M983.67,387.26c0,1.65-1.21,3.84-3.67,3.25a4,4,0,0,1-3.1-4.14c0-6.25,0-12.49,0-18.74H977c0-5.31-.12-10.62.06-15.92.07-2.06.15-4.73,3.21-4.75a3.61,3.61,0,0,1,3.45,3.79Q983.94,369,983.67,387.26Z"/><path class="cls-2" d="M943.46,505.78c-.24,2,0,4.75-3.36,4.45-3.19-.27-2.86-2.82-2.88-4.94-.07-5.63,0-11.27,0-16.9h.1c0-5.95,0-11.9,0-17.85,0-2.09.66-3.8,2.93-4,2.61-.28,2.89,1.72,3,3.67C944.26,482,944.86,493.91,943.46,505.78Z"/><path class="cls-2" d="M943.26,687.39c-.21,2-.64,3.73-3.22,3.51s-2.79-2.14-2.8-4.06c0-5.93,0-11.87,0-17.81h0c0-5.93,0-11.87,0-17.81,0-2,.46-3.82,2.87-4s3,1.7,3.18,3.67A173.09,173.09,0,0,1,943.26,687.39Z"/><path class="cls-2" d="M1310.1,846.35c0,2.23-1.13,3.74-3.25,3.78q-18.25.36-36.49.42c-2.58,0-4-1.72-3.75-4.31.25-2.39,2.24-2.75,4.18-2.76,5.93,0,11.86,0,17.8,0v-.09c5.93,0,11.86,0,17.79,0C1308.33,843.4,1310.12,843.71,1310.1,846.35Z"/><path class="cls-2" d="M983.93,529.27c0,11.86,0,23.71-.15,35.57,0,2.68.14,6.19-4.14,5.72-3.65-.41-2.8-3.59-2.82-5.92-.13-11.22-.15-22.45-.2-33.68C978.18,526.61,980.82,526.93,983.93,529.27Z"/><path class="cls-2" d="M653.13,846.3c-.08,2.09-.79,3.91-3.07,3.94-12.22.14-24.45.2-36.67.07-2.08,0-3.28-2.16-3-4.07s2.12-2.86,4.24-2.85c6,0,11.92,0,17.88,0v0h16.94C651.49,843.36,653.23,843.62,653.13,846.3Z"/><path class="cls-2" d="M958.88,661.52V643.63C963,650.09,963.06,653.2,958.88,661.52Z"/><path class="cls-2" d="M960.36,390.87c-3.08-5.68-2.35-11.38-.61-19.33C963.08,379.36,961.82,385.13,960.36,390.87Z"/><path class="cls-2" d="M960.82,528.63C957,520.86,958,515,960,509.1,962.3,514.89,962.19,520.69,960.82,528.63Z"/><path class="cls-2" d="M960.66,255.46c-4-5.23-2.33-10.94-.58-16.66C962.6,244.22,961.62,249.82,960.66,255.46Z"/><path class="cls-2" d="M983.57,627.4c0,1.89-1.06,3.68-3.51,3.45-2.3-.2-3.17-1.78-3.18-3.85,0-6,0-11.89,0-17.84H977c0-5.94-.05-11.88,0-17.83,0-1.89.38-3.84,2.92-4a3.3,3.3,0,0,1,3.61,3.49Q983.75,609.13,983.57,627.4Z"/><path class="cls-2" d="M1477.55,751.32c-8.58,10.33-17.6,17.34-31.19,17s-25-8.93-28.61-22.65c-3.51-13.34,2.77-28.18,14.63-34.55,12.24-6.57,27.42-3.3,37.22,5.8,16.32,15.16,16.46,34.06,14.69,53.77-.21,2.4-.33,5.42-4,5-3.08-.37-2.67-3-2.69-5.14C1477.5,764.1,1477.55,757.71,1477.55,751.32Zm-30.37,9.34c12.77-.08,23.29-10.65,23-23.12-.27-12.86-10.58-22.62-23.71-22.44-11.37.15-22,10.87-22.08,22.31C1424.3,750.58,1434.24,760.74,1447.18,760.66Z"/><path class="cls-2" d="M1484.69,811.38c3.45,10.43-3.66,16.6-12.59,21.7-5.94,3.39-11.68,7.2-18.34,9.13-2.26.66-5.25,2.69-6.59-.33-1.47-3.33,1.77-4.73,4.32-6,3.89-2,7.71-4.08,11.62-6,10.42-5.13,16.59-12.39,14.66-25.07-.54-3.6-2.65-10.89,2.75-11,6.41-.08,3.56,7.18,4.13,11.44A55.06,55.06,0,0,1,1484.69,811.38Z"/><path class="cls-2" d="M1494.69,807c1.48-14.77,9.82-26.32,17.53-38.13a2.81,2.81,0,0,1,4.07-.82,3.66,3.66,0,0,1,.72,3.36C1511.45,784.38,1506.93,798,1494.69,807Z"/><path class="cls-2" d="M1407.42,850.79c-5.17,0-9.87,0-14.57,0-2.75,0-5.1-.56-5.31-3.85-.25-3.87,2.68-3.51,5.14-3.59,11.56-.34,23.17.79,34.65-1.63,1.69-.36,4.11-.49,4.54,2s-1.8,4-3.64,4.92C1421.45,852,1414.07,850.24,1407.42,850.79Z"/><path class="cls-2" d="M1532.74,726.86c2-3.08,3.9-6.23,6-9.22,1.29-1.8,3.32-3.69,5.43-2.62,2.37,1.2,1.24,3.91.45,5.8-2.25,5.38-4.76,10.65-7.18,16-2.09,3.38-4.2,6.76-6.29,10.14-1.85,3-2.92,9-6.78,7.22-4.62-2.15-.54-7.09.72-10.47C1527.26,737.93,1530.16,732.45,1532.74,726.86Z"/><path class="cls-2" d="M1477.38,674c3.74-3.7,5.95-2.07,6.85,2.24a73,73,0,0,1,.79,9c-.15,8.13-.27,16.27-.45,24.4-.06,2.49.09,5.76-3,6.06-4,.39-3.93-3.34-4-6C1477.4,697.82,1477.43,685.91,1477.38,674Z"/><path class="cls-2" d="M1681,453.33a99,99,0,0,1-10,31.79c-1,2-2.16,5.24-5.44,3.64-2.77-1.34-2.27-4.41-1.56-6.67,3.34-10.68,6.9-21.29,10.48-31.89.71-2.11,2-4.37,4.68-3.46C1682.38,447.86,1680.46,451,1681,453.33Z"/><path class="cls-2" d="M1613.44,355.7c12,4.42,24.13,9.29,33.93,18.48,1.14,1.07,2,2.72.93,4.22a2.91,2.91,0,0,1-4.18.67c-10-6.5-21.16-10.58-31.77-15.83a4.71,4.71,0,0,1-2.87-5.37C1609.88,355.87,1611.42,355.74,1613.44,355.7Z"/><path class="cls-2" d="M1679,423.47c.33,4,.32,5.93-1.93,6.67-2.89.95-4.14-1.16-4.62-3.29-2.58-11.37-8-21.48-13.63-31.53-1-1.85-1.52-4.51.82-5.77,1.77-.95,3.76.33,4.81,2C1671.25,402,1676.58,413.18,1679,423.47Z"/><path class="cls-2" d="M241,427.36c2.39-14.17,5.84-25.44,13.19-35.16,1.44-1.9,3.1-4.56,6.05-2.34a4.86,4.86,0,0,1,1.16,6.76,93.42,93.42,0,0,0-13.31,31.8c-.41,1.93-2,3.54-4.12,2.83A4,4,0,0,1,241,427.36Z"/><path class="cls-2" d="M242.7,446.48a3.65,3.65,0,0,1,3.59,3.64c1,12.07,5.64,23,10.36,33.87.77,1.77,1.41,3.75-.69,4.94s-3.82-.1-4.92-1.58c-8.32-11.28-10.48-24.48-11.36-38C239.55,447.37,241.11,446.5,242.7,446.48Z"/><path class="cls-2" d="M277.53,379c-3.74.72-4.89-.16-5.67-1.68-.9-1.76.13-3.07,1.3-4,10-8.33,21.78-13.24,34-17.19,1.35-.44,3.47-.64,3.64,1.55.1,1.39-.37,3.65-1.32,4.16C298.28,367.77,285.61,371,277.53,379Z"/><path class="cls-2" d="M983.73,785.1c.17,15.17.18,15.16,15.11,15.69,3.12.11,6.25.27,9.36.55,2.19.19,4.47.4,4.38,3.57s-2,4.36-4.9,4.23c-11.87-.52-23.73-1.11-35.6-1.68-1.79-.08-2.87-.89-2.91-2.81,0-1.65.25-3.64,1.94-3.82,7.29-.79,5.55-6.16,5.64-10.6.12-5.94.1-11.88.25-17.82,0-1.84.1-4.06,2.5-4.41,2.81-.4,4,1.7,4.16,4C983.91,776.34,983.73,780.73,983.73,785.1Z"/><path class="cls-2" d="M917.11,809.18c-1.25,0-2.51.06-3.76,0-2.76-.17-6.11.28-6.07-3.95,0-3.72,3.12-3.28,5.51-3.48,5.62-.47,11.26-1.25,16.87-1.12s7.94-1.62,7.6-7.5c-.39-6.87,0-13.79.1-20.68,0-1.92.3-4.13,2.58-4.41,3.24-.41,3.21,2.37,3.31,4.46.29,6.58.38,13.16.6,19.73.11,3.4-.38,7,3.89,8.66,1.78.7,3.19,2.28,2.33,4.45s-3,2-4.81,2.15c-9.38.51-18.77,1-28.16,1.42C917.1,809,917.11,809.09,917.11,809.18Z"/><path class="cls-2" d="M795.26,821.09c-3.12-.78-7,1.77-7.81-2-.74-3.36,3-4.74,5.61-5.16,10.81-1.74,21.67-3.17,32.55-4.41,2.06-.24,5.6-1.38,5.76,2.67.13,3.19-2.6,4.06-5.13,4.44C815.72,818.23,805.18,819.68,795.26,821.09Z"/><path class="cls-2" d="M1045.53,803.73c6,.68,13.76,1.47,21.51,2.5,2.7.35,6.29.62,5.76,4.58-.55,4.13-4.29,2.92-6.81,2.75-10-.66-20-1.56-30-2.5-2.64-.26-6.45.14-6.37-3.79s3.78-3.38,6.49-3.51C1038.67,803.64,1041.18,803.73,1045.53,803.73Z"/><path class="cls-2" d="M765,819.83c2.36.78,6.26-.77,6.71,3,.35,3-2.86,3.66-5.27,4.16-10.92,2.3-21.84,4.57-32.78,6.72-2.13.41-4.8.47-5.65-2-1.19-3.47,2.17-4.09,4.22-4.87C742.78,822.87,753.87,821.36,765,819.83Z"/><path class="cls-2" d="M1124.32,821.09c-9.87-1.44-19.71-2.78-29.51-4.36-2.38-.38-5.37-1.15-5.14-4.35.34-4.58,4.23-2.87,6.52-2.63q14.37,1.53,28.65,3.85c3.14.51,8.32.62,7.93,4.75C1132.28,823.38,1127.1,819.39,1124.32,821.09Z"/><path class="cls-2" d="M1155.84,820.52a157,157,0,0,1,31.68,6c2.33.69,4.19,1.95,3.71,4.54-.53,2.84-3,2.79-5.23,2.39-10.06-1.87-20.14-3.67-30.13-5.88-2.75-.61-7.27-1.09-6.62-5.07S1154.07,821.7,1155.84,820.52Z"/><path class="cls-2" d="M854.89,813.46c.3,0-1.57.06-3.43,0-1.55-.06-3.29-.12-3.58-2.12s.62-3.8,2.75-4.17c12.26-2.11,24.55-4.08,37.07-3.22a2.65,2.65,0,0,1,2.73,3c0,3.2-2.72,3.29-4.61,3.51C876.25,811.53,866.65,812.34,854.89,813.46Z"/><path class="cls-2" d="M532.45,843.57c1.31,5,0,7.46-5.73,7.27-10.58-.33-21.16-.19-31.74-.25-2.07-2-6.82-2.38-5.46-6.43,1.44-4.29,5.3-1.52,8.15-1.45Q515.05,843.12,532.45,843.57Z"/><path class="cls-2" d="M1575.06,664a37,37,0,0,1-2,5.72q-7.65,13.83-15.53,27.52c-1.3,2.25-3.32,4.11-6.12,3-3.87-1.56-1.26-4.57-.42-6.23,5-9.94,10.37-19.74,15.89-29.43,1.14-2,3.24-4.1,6.15-3C1574,661.88,1574.49,663.24,1575.06,664Z"/><path class="cls-2" d="M400.84,828.4c-3,.1-4.43-1.82-5.71-4.1-6-10.62-12-21.22-17.91-31.84-2.84-5.06-1.12-9.22,3.17-12.24,5.18-3.65,7.4.95,9.35,4.3,6,10.25,12,20.5,17.26,31.12C410,821.61,406.18,828.27,400.84,828.4Z"/><path class="cls-2" d="M349,661.1c2,.18,2.63,1.59,3.36,3,5.21,10,10.52,19.87,15.6,29.9.88,1.73,2.79,4.28.44,5.88s-4.21-.67-5.27-2.51c-5.6-9.72-11.16-19.46-16.41-29.37C345.39,665.45,345.65,662.47,349,661.1Z"/><path class="cls-2" d="M434.3,768.05c.09-3.42.91-7,.14-10.23-4.2-17.63,6.33-29.32,16.45-40.94,9.48-10.88,21.58-12,39.43-4.78,7.08,6.84,12.85,14.15,12.7,24.91-.22,15.23-9.24,27.33-23.7,30.71-14,3.26-27-3.24-33.88-16.93a8.06,8.06,0,0,0-3.61-3.95c0,6.86.21,13.72-.1,20.57-.14,3,2.07,7.93-2.91,8.38S435.23,771,434.3,768.05Zm38.08-53c-12.12-.17-22.52,10-22.95,22.4-.43,12.2,10.39,23,23.25,23.21,12.13.19,22.79-10.3,22.86-22.5C495.61,725.21,485.65,715.27,472.38,715.09Z"/></g><g id="Capa_3" data-name="Capa 3"><path d="M1184.94,436V547h-19.83V476.26l-19.51,14.9-16.18,12.54-16.18-12.54-19.51-14.9V547h-19.82V436l19.82,15.22,35.69,27.44,35.69-27.44Z"/><path d="M1311.35,527.49v19.82H1200.63V514.64a31.7,31.7,0,0,1,2.7-12.85,32.56,32.56,0,0,1,28.87-20h48.06a13,13,0,0,0-1.11-25.86H1201V436.13h78.2a32.62,32.62,0,0,1,32.67,32.67,32.28,32.28,0,0,1-9.36,22.68,32.89,32.89,0,0,1-22.36,10h-47.9a12.91,12.91,0,0,0-11.58,12.85v12.85Z"/><path d="M1415.55,455.63a34.51,34.51,0,0,1,3.65,15.55v75.66h-19.83V469.28a15.83,15.83,0,0,0-13.48-13.49h-58.21V436H1384a34.6,34.6,0,0,1,15.54,3.64,35.17,35.17,0,0,1,16,16.18Z"/><path d="M1505.16,436A35.81,35.81,0,0,1,1541,471.81V511a35.81,35.81,0,0,1-35.85,35.85H1470.9A35.81,35.81,0,0,1,1435.05,511V471.81A35.81,35.81,0,0,1,1470.9,436Zm-34.26,19.82A16.25,16.25,0,0,0,1454.72,472v39.18a16.25,16.25,0,0,0,16.18,16.18h34.26a16.25,16.25,0,0,0,16.18-16.18V472a16.25,16.25,0,0,0-16.18-16.18Z"/></g></g></svg>