<svg xmlns="http://www.w3.org/2000/svg" viewBox="0 0 1920 1080"><defs><style>.cls-1{fill:#150e10;}.cls-2{fill:#f2f2f2;}</style></defs><g id="Capa_2" data-name="Capa 2"><g id="Capa_1-2" data-name="Capa 1"><path class="cls-1" d="M1765.69,719.65c-1.27-14.74-1.28-14.82-16.38-15-10.36-.12-20.73-.16-31.08.15-6.07.19-8-2.44-8-8.21.13-42.59.19-85.19,0-127.78,0-7.23,3.26-8.64,9.44-8.49q16.39.39,32.81,0c11.85-.32,12.42-.8,12.58-13.08.27-21.3-.17-42.6.27-63.89.18-8.36-2.72-14.27-9.37-19a77,77,0,0,0-40-14.42c-9.6-.7-19.17,1.31-25.11,8.83s-12.95,8.09-21.18,7.93c-16.68-.33-33.87,2.2-49.92-1.05-15.51-3.15-27.72-15.71-41.53-23.86-120.6-71.17-250.37-116.89-388-141.15A1291,1291,0,0,0,1029.09,283c-2.27-.11-4.52-.5-6.78-.77-33.57-2.32-95.62-2.78-127.38-.57-19.44,1.35-38.68,3.29-58,4.94-162.92,13.9-317,57.91-461.22,135.33-22.77,12.21-44.69,26-66.62,39.73-6.15,3.83-12,6.15-19.21,5.95-10.35-.28-20.72-.18-31.08,0-12.58.25-24.79,1.66-33.92-11-4.67-6.48-13.94-7.47-22.33-6.68a85.88,85.88,0,0,0-23.38,5.57C157.3,464,154,468.92,154,492.39c.05,19,.25,38,.05,57-.08,7.88,2.66,11.56,11.08,11.15,10.92-.52,21.91.45,32.8-.3,8.69-.6,10.6,2.74,10.49,10.82-.42,32.23.12,64.47-.38,96.69-.19,11.84,5.09,26.95-2.94,34.68-7.25,7-22,1.23-33.33,2a63.79,63.79,0,0,1-8.63.15c-6.83-.46-9.34,3.26-9.12,9.38,0,0,0,16.76,0,32.17s8.77,20,8.77,20L216.59,798l642.46,1.1c66.5-18.16,133.1-18.64,199.75,0l610.18.69a181.63,181.63,0,0,0,37.15-4.1l54.52-33C1767.83,754.28,1765.69,719.65,1765.69,719.65ZM1675,480.93c-4.33,18.22-14.26,18.64-34.51,0Zm-16.18,37.69c14.24,9.91,18.27,23,15.79,38.92-4.08,26.33-13.15,51.16-24.23,75.2A66.31,66.31,0,0,1,1621,663.48c-27.18,14.58-45,36.93-56.46,65-9.77,24-28.19,35.32-53.35,36.88-6.88.42-13.79.5-20.68.51-120.22,0-240.44-.43-360.65.34-34.26.22-67.29-7.89-101.06-10.53l-39.53-3c-11.8-.9-12-.9-12-13.08q-.22-63-.23-126,0-40.54,0-81.1,0-101.81,0-203.62c0-15.94-1.57-15,14.86-14.9,86.06.73,170.73,12.93,254.21,33,122.16,29.34,238.86,73.4,349.5,133.17A656.55,656.55,0,0,1,1658.77,518.62Zm-71.69-53.08q-624.32-318.1-1249.83-2.31C640.88,258.69,1202.54,219.75,1587.08,465.54ZM970,534.19q-.11,101.85-.49,203.7c0,5,3,12.09-6.23,13.43-10.12,1.46-12.83-.63-12.84-11.72q-.1-103.58,0-207.15h-.19q0-102.71,0-205.42c0-12.94,1-13.31,11.52-13.25s8.2,7.41,8.21,13.27Q970.07,430.61,970,534.19ZM379.52,451.08c113.53-54.18,231.83-94.23,355.54-117.54,64-12.05,128.5-19.35,193.71-19.66,15.5-.07,14.24.26,14.23,14q-.07,102.74,0,205.47h-.08q0,101,0,202c0,17.19,2,16.53-16.93,17.19-29.39,1-58.38,5.15-87.28,10.33a203.17,203.17,0,0,1-36.06,3.22q-189.93-.25-379.86-.32c-6.88,0-13.77-.86-20.66-1-21.95-.43-35.35-13.34-45.44-31-2.55-4.48-4.68-9.22-6.8-13.94-10.17-22.66-24.88-41.19-47.15-53.21-21.32-11.51-34.61-29.67-42.41-52.31-6.54-19-13.8-37.68-15.84-58-1.71-17.06,3-29.89,17.76-39.76C299.6,491.59,339.06,470.39,379.52,451.08ZM276.9,482.72c-18.69,16.2-26.83,15.8-33.47-1.1C254.35,482.18,265.05,479.93,276.9,482.72ZM1731.91,764c-22.31,15.75-45.86,20.08-72.78,20-192.23-.77-384.46-.33-576.69-.14-11.06,0-21.74-2-32.44-4.15-61.09-12-122.11-13-183.18.39A173.88,173.88,0,0,1,829.14,784q-295.24-.32-590.5-.17c-12.61,0-23.73-2.37-34-9.66-6.56-4.63-13.8-8.27-20.55-12.66-5.62-3.66-14.37-4.63-15.74-12.21-1.52-8.36-.8-17.17-.59-25.78.12-4.7,4.16-4.75,7.61-4.77,10.94-.08,21.88.14,32.81-.08,13.42-.27,14.1-.68,14.13-13.4q.16-72.53-.19-145c-.07-13.36-.45-13.5-13.6-13.73q-16.39-.3-32.81.06c-5.74.12-8.35-2-8.29-8,.17-17.84,0-35.68.12-53.52,0-2.22,0-5.19,1.27-6.53,9.75-10,22.49-13.31,35.85-14.55,11.27-1,16.26,6.75,20.4,15.42,1,2.07,2.06,4.11,2.93,6.24,5.46,13.34,11.73,25.63,31.15,22.8-28.09,16.88-23.56,41.8-19.23,65.69,3.59,19.78,11.29,38.56,19.31,57,6.59,15.15,16.52,28,30.94,36.12C318,682.87,336.73,705.7,348.58,735c10.15,25.11,30.8,35.59,56.41,38.31a99.16,99.16,0,0,0,10.35.16q196-.12,391.94-.15a162.81,162.81,0,0,0,29.15-2.86,685.72,685.72,0,0,1,252.22,1.09,118.5,118.5,0,0,0,22.28,1.93q196,0,391.94.06c14.08,0,27.35-2.24,39.9-8.88,11.58-6.14,20.53-14.55,26-26.58q5.39-11.75,11.34-23.23c8.65-16.7,20.31-30.9,36.95-40,25.69-14,41.51-35.35,50.16-63,4.8-15.35,10.45-30.35,13.31-46.3,3.92-21.84,2.45-41.47-22.55-56.61,22.59.51,28.84-13,35-27.33,7.58-17.71,14.14-20.4,32.47-15.87a69.71,69.71,0,0,1,17.53,7c5.42,3,8.51,6.78,8.34,13.59-.43,17.26-.51,34.54,0,51.79.21,7.51-3.41,8.51-9.41,8.41-11.51-.21-23,.22-34.53-.16-8.26-.28-11.17,3.38-11.15,11.3q.23,75.11,0,150.21c0,8.48,4.11,10.92,11.78,10.71,11.5-.31,23,.1,34.53-.27,6.81-.21,8.52,2.64,8.81,9.15C1752.39,751.26,1751.78,750,1731.91,764Z"/><path class="cls-2" d="M943,327.9q-.07,102.74,0,205.47h-.08q0,101,0,202c0,17.19,2,16.53-16.93,17.19-29.39,1-58.38,5.15-87.28,10.33a203.17,203.17,0,0,1-36.06,3.22q-189.93-.25-379.86-.32c-6.88,0-13.77-.86-20.66-1-21.95-.43-35.35-13.34-45.44-31-2.55-4.48-4.68-9.22-6.8-13.94-10.17-22.66-24.88-41.19-47.15-53.21-21.32-11.51-34.61-29.67-42.41-52.31-6.54-19-13.8-37.68-15.84-58-1.71-17.06,3-29.89,17.76-39.76,37.39-25,76.85-46.17,117.31-65.48,113.53-54.18,231.83-94.23,355.54-117.54,64-12.05,128.5-19.35,193.71-19.66C944.27,313.81,943,314.14,943,327.9Z"/><path class="cls-2" d="M1674.56,557.54c-4.08,26.33-13.15,51.16-24.23,75.2A66.31,66.31,0,0,1,1621,663.48c-27.18,14.58-45,36.93-56.46,65-9.77,24-28.19,35.32-53.35,36.88-6.88.42-13.79.5-20.68.51-120.22,0-240.44-.43-360.65.34-34.26.22-67.29-7.89-101.06-10.53l-39.53-3c-11.8-.9-12-.9-12-13.08q-.22-63-.23-126,0-40.54,0-81.1,0-101.81,0-203.62c0-15.94-1.57-15,14.86-14.9,86.06.73,170.73,12.93,254.21,33,122.16,29.34,238.86,73.4,349.5,133.17a656.55,656.55,0,0,1,63.19,38.53C1673,528.53,1677,541.58,1674.56,557.54Z"/><path class="cls-1" d="M303.26,708.06c16.82-.33,29.53,12.09,29.57,28.9,0,16.57-13.11,29.82-29.33,29.58-15.85-.25-28.14-12.39-28.77-28.43C274.07,721.36,286.39,708.4,303.26,708.06Zm0,50.24c11.09.37,21.18-8.85,21.87-20a21.9,21.9,0,0,0-20.79-22.89,21.46,21.46,0,0,0-1.08,42.9Z"/><path class="cls-1" d="M1658.25,738.52c-.32,15-14.13,28.2-29.3,28.12-16-.08-29.4-13.78-29.34-30,.07-16.41,13.18-28.76,30.19-28.44C1646.31,708.54,1658.61,721.64,1658.25,738.52Zm-30-23.13c-11.36.3-21.72,11.54-20.92,22.69.78,10.78,10.8,20.07,21.68,20.08,11.89,0,21.94-10,21.7-21.71S1640.2,715.07,1628.26,715.39Z"/><rect class="cls-2" x="1919" y="1079" width="1" height="1"/><rect class="cls-2" width="1" height="1"/><rect class="cls-2" y="1079" width="1" height="1"/><rect class="cls-2" x="1919" width="1" height="1"/></g><g id="Capa_3" data-name="Capa 3"><path d="M1150.44,516.93V628h-19.83V557.22l-19.5,14.91-16.18,12.53-16.18-12.53-19.51-14.91V628h-19.83v-111l19.83,15.23,35.69,27.44,35.68-27.44Z"/><path d="M1276.85,608.45v19.83H1166.14V595.6a31.65,31.65,0,0,1,2.69-12.84,32.6,32.6,0,0,1,28.87-20h48.06a13,13,0,0,0-1.11-25.85h-78.19V517.09h78.19a32.63,32.63,0,0,1,32.68,32.67,31.5,31.5,0,0,1-2.7,12.85,31.94,31.94,0,0,1-6.66,9.84,32.94,32.94,0,0,1-22.37,10h-47.9a12.91,12.91,0,0,0-11.58,12.85v12.85Z"/><path d="M1381.05,536.6a34.47,34.47,0,0,1,3.65,15.54V627.8h-19.82V550.24a15.83,15.83,0,0,0-13.49-13.48h-58.21V516.93h56.31a34.44,34.44,0,0,1,15.54,3.65,35.17,35.17,0,0,1,16,16.18Z"/><path d="M1508.73,582.92a31.45,31.45,0,0,1,2.7,12.84,32.63,32.63,0,0,1-32.67,32.68h-78.2V608.61h78.2a12.93,12.93,0,0,0,12.84-13,12.76,12.76,0,0,0-11.42-12.84h-79.62V517.41h101.67v19.82h-81.84v25.7H1480a32.17,32.17,0,0,1,28.87,19.83Z"/></g></g></svg>