<svg xmlns="http://www.w3.org/2000/svg" viewBox="0 0 1920 1080"><defs><style>.cls-1{fill:#f2f2f2;}.cls-2{fill:#020202;}</style></defs><g id="Capa_2" data-name="Capa 2"><g id="Capa_1-2" data-name="Capa 1"><rect class="cls-1" x="1919" y="1079" width="1" height="1"/><rect class="cls-1" width="1" height="1"/><rect class="cls-1" y="1079" width="1" height="1"/><rect class="cls-1" x="1919" width="1" height="1"/></g><g id="Capa_3" data-name="Capa 3"><path class="cls-2" d="M1769.6,492.55c-6.13-3.93-12.89-5.12-20.09-5.08-19.86.12-39.75-.19-59.63.12-7.77.13-12-2-11.44-10.63a187.45,187.45,0,0,0-.31-21.06c-.86-16.13-8.61-24.36-24.84-26.21-3.55-.41-6.39-.76-8.1-4.5-4.46-9.75-12.85-15.24-22.14-19.61-23.36-11-46.58-22.33-70.1-33-22.86-10.33-45.66-20.8-69.13-29.85-38.65-14.91-77.88-28-117.52-39.82-52.9-15.83-106.2-30.33-160.63-40.07-28.28-5-56.72-9.32-85.19-13.09-23.14-3.06-46.44-5-69.68-7.19-10.3-1-20.73-1.93-27.76,8.39-1.95,2.86-5.16,3.27-8.26,2.6-15.11-3.25-30.45-2.14-45.68-2l-21.06,0c-14-.22-28.13-1.08-42,1.95-4.83,1-8.19-.33-11.11-4.15-4.19-5.49-9.79-7.55-16.82-7.16C825.39,245,737.35,258.7,737.35,258.7,630.57,277.32,527,307.44,426.09,346.81c-46.08,18-90.68,39.38-134.78,61.76a6.87,6.87,0,0,0-.81.42c-12.41,9.77-22.32,22.62-39.23,26.59-6.35,1.49-9.29,10-9.4,17.61-.08,6.74-.24,13.46-.39,20.18-.31,13.25-1.12,14.08-14.1,14.11-16.82,0-33.63,0-50.47,0-11.24,0-22.75-.77-32.63,11.13-5.36,6.67-4.83,16.58-4.83,16.58v91.43c-.16,10.52,2.41,19.67,9.57,27.43,7.14,4,14.89,4.81,22.93,4.78q43.91-.23,87.82-.08c2.07,0,5.49-1.45,5.87,2.24.28,2.81-2.71,2.74-4.66,3.29-7.2,2-6.81,6.28-4,11.88,7.76,15.46,15.29,31.06,22.93,46.62,2.84,4.49,4.63,10,12.25,5.19,4.62-2.94,3.74,2.13,3.21,4.35-1.64,6.78-7.09,10.47-12.43,14-10.45,6.94-18.77,15.5-22.35,27.93-5,17.42-1.1,33,9.37,47.37,9.12,8.22,19.4,13.62,32.09,13.21,3-.09,4.83.81,6,4.12,2.08,5.74,5.2,6.59,5.2,6.59h61.62q72.7.06,145.43.33c17.7-.13,35.39-.29,53.08-.33,1.81,0,5.08-1.2,4.71,2.26-.84,8.2,4.85,6.85,9.5,6.85,24.4.05,48.82,0,73.24,0,4.07,0,8.07.45,8-5.73-.1-4,3.19-3.53,6-3.53q34.33.11,68.67.09c4,0,6.9.48,8,5.33,1.3,5.74,5.31,7.27,11.42,7.12l381.78-.4c9.53-.15,19.68,2.42,25.67-10,2.39-5,11.22-1.63,17.15-1.65q28.86-.23,57.74-.42c2,0,5.07-.76,5,2.29,0,8.26,5.58,7,10.72,7,23.23-.07,46.47,0,69.7-.11,4.31,0,9.32,1.52,9.23-6.23,0-4.48,4.61-2.82,7.35-2.82q71.52-.09,143.06,0,58.22,0,116.46,0c23.92,0,42.12-9.69,52.16-31.78,9.58-21.08,4.31-45-12.67-62.44-2.13-2.19-4.3-4.35-6.55-6.41-18.11-16.4-19.15-22.51-7.64-44.23,6.42-12.14,12.89-24.25,19.07-36.48,1.62-3.21,2.87-5.75,7.16-5.64,16.79.39,33.59.5,50.38.72,14-.22,28.1-.3,42.14-.68,20-.55,28.94-9.64,29.23-29.56l.46-95C1780.56,502,1769.6,492.55,1769.6,492.55ZM1481.44,363c1.67-3.85,3.67-4.31,7.82-2.61,45.37,18.58,89.59,39.61,133.57,61.25,6,3,9,7.92,10.46,12.84.53,2.35.5,4.09-.75,4.07a12,12,0,0,1-5-1.78c-28-14.78-56.14-29.26-85-42.37-18.82-8.56-37.55-17.32-57.09-24.17C1481.77,369,1479.58,367.28,1481.44,363Zm-20.73-13.6c4.15-.08,15.09,6.57,15,9.41-.63,2.41-1.43,6.19-4.76,4.82-5.41-2.24-13-1.73-15.13-8.84C1455.31,353.2,1457.07,349.49,1460.71,349.42Zm-.9,17.84c8.19,2.08,13.53,5.33,7.32,14.73-1.23,1.87-1.76,5.21.54,6.68s3.45-1.36,4.92-2.85c7-7.05,11.09,2.06,16.41,3.49,5.67,1.53,3.75,7.79,3.25,12-.4,3.34-3.49,1.12-5.12.42-14.47-6.26-28.88-12.65-42.75-18.77-1.3-9,16-5.87,8.87-18.12C1456.41,366,1458.06,366.82,1459.81,367.26ZM1050.47,256.83c101.88,8.51,201.92,26.47,299.78,56.45,31.18,9.55,62.32,19.12,93.18,29.62,4,1.36,7.93,1.91,5.91,7.71-2,5.6-5.3,3.16-8.76,1.91-59.63-21.78-120.24-40.17-182.33-53.65-74.16-16.1-148.94-27.26-224.8-30.64-1.69-.08-3.38-.35-5.73-.61C1033.61,258.66,1040.63,256,1050.47,256.83Zm-33.2,17.62c22.26,1,44.53,2,66.72,3.78,14.88,1.16,29.67,3.4,44.45,5.49,1.69.24,9.31-1.58,3.27,4.92-2,2.23-.27,4.21,2.09,4.59,11.74,1.95,23.51,3.68,35.26,5.42,2.09.31,3.36-.55,3.92-2.77.5-1.93-1.94-6.63,1.88-5.35,5.62,1.91,11.67-.71,16.8,2.67.36.24.75,1.15.6,1.37-9.32,13.06,5.49,8.41,8.21,9.39,8.19,2.93,17.2,3.61,25.89,5.14,2.15.38,4.57.86,5-2.19.42-2.88-1.1-4.11-4.06-4.84-9.6-2.39-19.81-2-29-6.47,16.18.85,31.87,4.57,47.59,8,13.49,2.94,27.32,4.75,40.15,10.3.28.11.57.24.85.37a.4.4,0,0,1,.15.07h0l-.24-.24.13,0a2.11,2.11,0,0,1,.35-.05,0,0,0,0,1,.06,0c7.08-1.1,12.88,4,21,3.82-6.37,6.9-3.38,9.23,3.21,10.79,8.26,2,16.3,4.85,24.49,7.2,2.19.62,4.59,2.57,6.8.15,2.75-3-2.26-4.47-1.35-8,34.78,8.81,68.4,21,101.78,34-7.61.74-14.09-2.46-20.53-5.47-3.18-1.49-6.21-2.33-7.47,1.54-1.2,3.64,2.42,4.3,4.92,5.18,5.16,1.78,10.24,4.24,15.57,5,6.22.88,5.72,4.35,4.59,8.41-1.49,5.31-4.83,3-7.92,1.64-73.64-31.27-151.16-48.79-229.17-64.58-48.51-9.82-97.27-17.66-146.68-21.13-11.57-.81-23.15-1.58-34.74-2.4-2.13-.15-4.4,0-6.33-.72-4.7-1.74-5.89-5.91-5.82-10.39C1009.89,274,1014.33,274.32,1017.27,274.45Zm-118.22,0c9.73-.55,12.6,3.42,9.53,11-1.74,4.3-5.43,4.23-9.11,4.52q-30.57,2.42-61.14,4.94c-43.84,3.61-87,11.84-130,20.54-56.15,11.37-112,23.8-166.35,42.3C523.55,364,505.46,371.25,487.2,378c-3.05,1.12-6.45,5-8.43-1.6-1.49-4.94-.66-7,4.77-8.15,5.9-1.21,11.51-3.78,17.22-5.89,2.37-.86,5-2.24,3.64-5.22-1-2.25-3.69-1.72-5.73-1.1-7.67,2.33-14.83,6.41-23.21,6.52,33-13.9,67-24.47,101.08-34.7,1.85,4-3.38,5.73-.55,8.37,2.22,2.08,4.66.08,6.86-.53,8.52-2.35,16.95-5,25.45-7.33,5.91-1.63,10.12-3.78,3.54-10.31C657,306.69,701.68,297,747.27,289.89c-3.14,9.31-2.74,9.73,6.33,8.26,9.64-1.56,19.28-3,28.92-4.51,3.6-.55,6.85-.92,4.44-6.19-2.33-5.09,2.78-3.65,4.56-3.89,10.26-1.38,20.65-2,30.9-3.49C847.83,276.32,873.48,275.9,899.05,274.43ZM475.3,343.34c65.88-23,132.72-42.87,200.82-58.17A1245.27,1245.27,0,0,1,836,260.28c11.23-1,22.54-1.69,33.71-3.31,9.45-1.37,16.45,1.09,21.53,10.91-29.58,1.08-58.07,3.67-86.53,6.9a1431.59,1431.59,0,0,0-170.9,30.52c-52.51,12.54-103.88,28.79-154.63,47.09-3.58,1.29-7.32,4.19-9.56-2C467.48,344.5,472.2,344.42,475.3,343.34Zm-30.79,12c4.9-2.32,9.78-5,15.31-5.44,2.72-.22,2.79,2.81,3.86,4.52.93,1.49.84,3.12-.83,3.87-4.7,2.12-9.51,4-14.32,6-2.85.07-3.07-2.57-4-4.25C443.74,358.67,442.12,356.47,444.51,355.33ZM449,388.49c1.21,1.78,4.72,1.65,5-2.24.07-1.2-.35-2.41-.3-3.62.19-4.09-5.8-8-3.21-10.58,3.53-3.54,9.42-4.71,16.36-7.82-6.15,13.22,11.73,8.65,8.34,18.79-12.89,5.72-27.12,12.11-41.43,18.32-1.72.75-4.92,2.15-5.37-.63-.65-3.83-2.8-9.41,2.31-11.31C436.3,387.33,442.18,378.41,449,388.49ZM287.14,432.37a17.76,17.76,0,0,1,8.91-10.05c44-22.14,88.48-43.44,134.32-61.65.85-.33,1.64-.79,2.26-1.08,4.22-.79,4.53,2.6,5.54,4.94,1.71,4-1.78,4.62-4.14,5.5-20,7.42-39.3,16.36-58.63,25.23Q333,414.66,292.18,437c-1.64.9-3.44,2.46-4.91,1.31C285.38,436.79,286.43,434.35,287.14,432.37Zm-24.05,220.3c.68-.35,1.38-.68,2.06-1,9.36,14.64,14.21,31.49,21.57,47.11Q274.92,675.71,263.09,652.67ZM293.46,692c-6.48-13.42-14.52-26.3-19.28-40.29-3.8-11.14,9.84-7.85,14.62-12.39,1.92-1.82,6.13-6,8.9,1.27,3.56,9.33,8.58,18.1,13.11,27,1.1,2.15,2.63,4.37,5.6,3.86,1.65-.3,2.42-1.67,2.48-4-.57-1.47-1.25-3.49-2.17-5.4-4.06-8.5-8.15-17-12.34-25.43-1.17-2.35-2.11-4.35.87-6.15,2.53-1.56,4.05-.51,5.14,1.62q10.74,21.09,21.35,42.28c1.27,2.54-.31,4-2.31,5.13-9.64,5.19-19.3,10.33-29,15.51C296.82,697.08,295,695.27,293.46,692ZM282.79,792.89l-.16-.19-.08,0a.41.41,0,0,0,0-.11c-5.33-5.64-9.29-11.9-8.63-20.21,3.34,6.53,8.09,12.48,8.63,20.21,0,0,0,.06.09.07l.31-.14Zm26.39,5.87c-12.08,3.14-13,2.61-18.09-8.41-4.24-9.12-8.35-18.32-13-27.24-3.16-6.08-2.19-10.71,2.42-15.61,5.29-5.65,11.9-9.51,17.81-14.28,7.59-6.14,11.61-14,11.7-23.74a25.41,25.41,0,0,1,0-2.76c.31-3.21-4.28-7.91,1.23-9.29,3.93-1,4.2,4.43,5.61,7.22,12.21,24.2,24.09,48.56,36.6,72.59,3.39,6.52,3.3,9.29-4.56,11.06C335.58,791.29,322.45,795.31,309.18,798.76Zm264.73,3.31c-5.49,0-11-.13-16.49-.09-2.66,0-5.89-.52-5.49,3.91.33,3.63,2.57,4.11,5.77,4,6.33-.24,12.67-.07,19.81-.07-1.87,3.14-4.13,2.05-5.82,2.05q-74.55-.33-149.12-.8c-3.2,0-7,.93-5.93-4.76.57-2.92-1.45-4.26-4.24-4.85-9.09-1.91-17.1-6.33-24.94-11.12-2.58-1.6-5.74-4-7.93-.44-2.07,3.37,1.6,5.36,3.8,7.23,8.34,7,19.12,8.68,28.75,13.55H325.9c8.41-5.23,16.75-5.51,24.4-7.77,2.33-.69,4.72-1.23,7.05-1.92,13-4,13.5-5.68,7.29-17.7-14.59-28.35-28.9-56.86-43.25-85.34-.76-1.53-1.8-3.23-.08-6.48,9.48,9.91,11.18,24,20.31,33.87,3.91-4.86-.74-8.37-.59-12.17-2.39-4.5-4.48-9.16-7.21-13.42-4.63-7.18-7.24-13,4-16.71,5-1.63,3.11-6.48,1.36-10.13-5.72-12-11.53-24.06-17.29-36.06C311.62,620,311.6,620,293.09,628.71c-6.63,3.14-12.87,8.5-19.11-1.5-2.59-4.15-9-3-13.83-3.05-29.63,0-59.28.07-88.91,0-14.82,0-17-2.2-17-17-.05-19.53.17-39.07.28-58.62-.07-11.28-.17-22.55-.24-33.82,0-8.36,4.31-12.23,12.47-12.29,19.81-.11,39.64-.25,59.45-.29,23-.05,29.08-5.91,29.83-29.08.2-6.39.33-12.8.52-19.19.16-4.88,2.82-9.33,7.34-8.81,5.16.6,12.06-7.51,15.79,2.7,1.41,3.87,4.61,1.43,6.9.29,8.39-4.2,16.73-8.54,25.1-12.81a135.26,135.26,0,0,1,23.8-12.49q11.7-5.67,23.42-11.33a241.3,241.3,0,0,1,32.13-15c6.21-2.87,12.4-5.75,20.26-9.4-2.45,8.59-1.91,13.1,6.64,8.59,2.13-1.12,3.49.4,3.58,2.59.2,4.29.35,8.53-4.68,10.77-9.73,4.34-19.39,8.84-29,13.41C376.91,427.5,369,435.47,365,447.18c-2.2,6.5-2.28,13.19-2.35,19.89q-.53,40.69-.92,81.44.33,32.06.68,64.12c.11,9,.77,17.82,9.42,23.42C386,640,400.39,637.71,414.67,638c5.24.09,7.05,1.58,6.74,6.74-.35,5.78-.07,11.59-.07,17.39,0,1.91.15,3.74,2.62,4,2.79.26,3.77-1.34,3.82-3.85.15-6.12.44-12.21.43-18.31,0-7.6,4-7,8.84-4.46a12.77,12.77,0,0,1,3.88,3.8q20.46,28.59,40.78,57.29c19.4,26.12,38.57,52.41,56.64,79.5,6.48,9.71,15.7,15.93,28.14,15.64,2.45-.06,4.89.09,7.35.11s5.1.26,4.88,3.73C578.54,802.73,576,802.07,573.91,802.07ZM952,822.5c-60.2,0-120.4,0-180.61.64-9,.1-10.5-6.9-15.18-11-9.13-2.06-18.82,2.55-27.69-2.39-6,2-12.1,2.5-18.21.26-3.36,4.11-7.91,1.74-11.84,1.89-9.88.39-19.76.13-29.64.13,0-.85,0-1.71.06-2.55h41.62c1.08-5.86-.94-8.12-7.21-7.73-9.46.6-19,.35-28.44.31-2.65,0-6.5,2.06-6.85-3.18s2.93-5.69,7.08-5.69c24.46,0,49-1.08,73.39,0,28.51,1.3,55.67-5.71,83.21-10.7,6-1.09,12-1.68,18.08-2.5,27.8-5.09,55.89-7.09,84.07-8.5,4.52-.24,6,1.61,5.75,5.82-.18,3.32.17,6.68.07,10-.11,3.95,1.64,5.6,5.53,5.07.39-1.17.77-2.35,1.16-3.54q.3-7.35.62-14.71c1.56-5.21,5.93-3.28,9-2.95,3.36.34,2.17,3.83,2.21,6,.13,13.13-.09,26.28.29,39.41C958.65,821.88,956.41,822.48,952,822.5Zm291.89-20.3c-10.08.07-20.14-.08-30.22,0-2.18,0-5.56-.81-5.65,2.83-.08,3.21,2.22,4.76,5.5,4.65,12.4-.45,24.83,1.24,37.42-1.25-.29,4.61-3.43,3.52-5.87,3.5-25.27-.24-50.55.46-75.78-1.37-4.25-.32-7,3-9.89,5.69-3.47,9.58-11.31,5.63-17.85,5.76a205,205,0,0,1-31.15-.14H1103a142.75,142.75,0,0,1-27.5,0c-35.77.21-71.51.34-107.28.72-4.41.06-5.91-1.08-5.78-5.56.4-13.44.46-26.88.6-40.34,0-3.19,0-6,4.65-6,5.07-.06,4.75,2.81,5.19,6.46.61,5.22-3.56,14.34,3.69,14.56,5.7.17,2.8-9.16,3.09-14.21.26-4.2,1.12-6,5.65-5.82,27.18.92,54.28,2.61,81,8,15.59.72,31,3.66,45.88,7.6,21.59,5.75,43.39,5.71,65.33,5.68s44,0,66-.08c4,0,8.35-.6,8.32,5.49C1251.77,805.12,1247,802.18,1243.89,802.2Zm89-3.42v25.63s-.08,2.66-4.34,2.66h-67.6s-2.74.57-2.74-6.11.81-21.37.81-21.37c0-11.55-2.42-14.12-13.79-14.23-19.24-.18-38.48-.26-57.72-.39-33.54,3.33-66.13-3-98.67-9.8-7.42-1.56-14.91-2.72-22.36-4.08-26.82-2.71-53.58-6.33-80.58-6.86-27.19-.61-51.61-.3-51.61-.3-33.27,1.25-66.25,5.4-99.17,10C795.39,784.7,754.94,787.42,714,785q-19.69.19-39.38.38c-11.83.08-13.22,1.38-13.65,13v24.78s1.27,3.93-5.39,3.93H589.21s-3.55,0-3.55-8.37.3-20.08.3-20.08c.33-9.92-6.47-10.73-13.59-10.18-12.58,1-21.06-3.91-28.15-14.57C529,751,512.63,729,496.73,706.58q-23.12-32.15-46.22-64.28c-4.95-5.35-9.45-11.5-17.81-11.44,0,0-27.56.26-37.76.26a95.73,95.73,0,0,1-17.67-1.56c-6.07-1.18-6.9-6.54-6.9-11.48-.05-23.19.17-46.38.29-69.55-1.28-30.53-1.17-61.08-.05-91.62.42-12,7.29-20.6,17.48-26.18l59-27.65c86.47-40.22,177.78-64.31,271-82.31,46.15-8.92,92.42-16.58,139.22-21,13.68-1.29,27.43-1.82,41.17-2.65,12.39-.75,16.87-5.1,17.64-17.27,1.32-20.68,1.78-21.12,22-21.15l51.23-.19c9-1.16,11.69,3.53,13,11,4.56,25.54,4.56,26.33,30,28.22,37.16,2.76,74.29,5.71,110.93,12.4,93.79,17.07,187.44,34.81,276.38,71,21.44,8.7,42.61,18,64,26.67l27.3,12.56c30,10,42.21,29.73,39.09,61.34-2.19,22.11-.86,44.56-1.12,66.85,1.28,23.43.59,46.88.16,70.3-.14,7.9-4.44,11.63-12.08,11.74l-48.73.14c-7.16-.49-11.82,3.95-16.61,8.16q-50.27,70.41-100.49,140.85c-5.8,8.19-13.91,8.84-22.69,8.73C1341.26,788.35,1334.79,787.67,1332.87,798.78Zm432.49-188.06c-.09,9.88-3.49,13.14-13.44,13.24-29.93.23-59.87.45-89.8.11-10.76-.13-19.17,2.46-24,12.7-7.16,14.16-14.38,28.26-21.44,42.45-10.91,21.94-8,37.8,10.39,53.87,10.85,9.45,20,19.5,21.48,34.77,2.29,22.93-14,42.63-37.09,42.93-34.22.46-68.46.13-104,.13,4.24-4,8.78-4.15,12.69-5.36a51,51,0,0,0,16.74-9.11c2.32-1.86,4.47-4.13,2.46-6.85-1.76-2.44-4.38-.9-6.42.63-7.71,5.76-16.6,8.88-25.73,11.49-1.13.31-3.12.79-3.15,1.32-1.12,13.59-11,6.59-17.5,7.58a127.93,127.93,0,0,1-42.1-.24,56.83,56.83,0,0,1-18.45.22c-14,2.5-28.09,2-42.14,0-4.9,1-9.82.57-14.74.08-8.78,3-17.66.64-26.48,1.48l-.11-3.14h25c.17-3.19.29-6-4.5-5.65-5.78.38-11.6,0-17.4.13-3,.09-4.85-.92-5-3.91-.14-3.23,2.15-4,4.85-4.1a43.54,43.54,0,0,1,4.57,0c13.2,1.12,22.77-4.59,30.28-15.18,19.77-27.89,39.8-55.58,59.74-83.36q18.43-25.63,36.89-51.28a33.45,33.45,0,0,1,4.79-5.49,8.66,8.66,0,0,1,8.5-2.2c3.6,1.18,2,4.66,2.11,7.16.26,5.47,0,11,.22,16.47.11,2,.76,4.48,3.69,4.3s2.89-2.61,3-4.7c.11-1.22.09-2.45.11-3.68.5-19.44.5-19.42,20.34-19.35,10.34,0,20.79.94,30.56-3.71,6.55-6.27,7.16-14.41,7.21-22.76q.23-29.78.57-59.54c-.29-27.75-1.27-55.51-.68-83.23.53-24.33-9.29-40.85-31.89-49.92-5.64-2.28-10.82-5.9-16.6-7.49-9.09-2.52-11.14-7.93-8.63-16.67,5.79,1.94,14,6.05,5.56-8.76l22.92,10.35c8.5,3.71,17.09,7.26,25.46,11.26,2,.95,5.53,1,5.55,4.5,0,.11,0,.23,0,.34v.13a1.83,1.83,0,0,1,.33,0,5.61,5.61,0,0,1,.59.06c8.17.6,14.47,5.62,21.26,9.45,10.23,3,19.22,8.32,27.94,14.19q12,6.09,23.89,12.18c2,1,5.07,1.8,5.77-.28,3.87-11.4,12-3.54,17.2-3,6.7.65,7.14,8.08,7.29,14,.16,6.39,0,12.8.16,19.21.3,15.71,7.93,23.48,23.78,23.63,19.2.16,38.41-.15,57.61,0,18,.11,20.05,2.26,20,19.88,0,8.83-.24,17.67-.37,26.5C1765.28,569.22,1765.56,590,1765.36,610.72Z"/><path class="cls-1" d="M1550.16,481.66c-2.19,22.11-.86,44.56-1.12,66.85,1.28,23.43.59,46.88.16,70.3-.14,7.9-4.44,11.63-12.08,11.74l-48.73.14c-7.16-.49-11.82,3.95-16.61,8.16q-50.27,70.41-100.49,140.85c-5.8,8.19-13.91,8.84-22.69,8.73-7.34-.08-13.81-.76-15.73,10.35v25.63s-.08,2.66-4.34,2.66h-67.6s-2.74.57-2.74-6.11.81-21.37.81-21.37c0-11.55-2.42-14.12-13.79-14.23-19.24-.18-38.48-.26-57.72-.39-33.54,3.33-66.13-3-98.67-9.8-7.42-1.56-14.91-2.72-22.36-4.08-26.82-2.71-53.58-6.33-80.58-6.86-27.19-.61-51.61-.3-51.61-.3-33.27,1.25-66.25,5.4-99.17,10C795.39,784.7,754.94,787.42,714,785q-19.69.19-39.38.38c-11.83.08-13.22,1.38-13.65,13v24.78s1.27,3.93-5.39,3.93H589.21s-3.55,0-3.55-8.37.3-20.08.3-20.08c.33-9.92-6.47-10.73-13.59-10.18-12.58,1-21.06-3.91-28.15-14.57C529,751,512.63,729,496.73,706.58q-23.12-32.15-46.22-64.28c-4.95-5.35-9.45-11.5-17.81-11.44,0,0-27.56.26-37.76.26a95.73,95.73,0,0,1-17.67-1.56c-6.07-1.18-6.9-6.54-6.9-11.48-.05-23.19.17-46.38.29-69.55-1.28-30.53-1.17-61.08-.05-91.62.42-12,7.29-20.6,17.48-26.18l59-27.65c86.47-40.22,177.78-64.31,271-82.31,46.15-8.92,92.42-16.58,139.22-21,13.68-1.29,27.43-1.82,41.17-2.65,12.39-.75,16.87-5.1,17.64-17.27,1.32-20.68,1.78-21.12,22-21.15l51.23-.19c9-1.16,11.69,3.53,13,11,4.56,25.54,4.56,26.33,30,28.22,37.16,2.76,74.29,5.71,110.93,12.4,93.79,17.07,187.44,34.81,276.38,71,21.44,8.7,42.61,18,64,26.67l27.3,12.56C1541.09,430.31,1553.28,450.05,1550.16,481.66Z"/><path class="cls-2" d="M1608.17,749.9c11,.11,18.32,7.47,18.25,18.33-.06,9.78-8.23,18.15-17.79,18.25a18.26,18.26,0,0,1-18.76-18.16C1589.81,757.78,1597.74,749.8,1608.17,749.9Zm-.46,7c-6.34.42-10.26,4.65-10.48,10.9-.24,6.47,4.21,11,10.58,11.26,6.6.25,11-4.41,11-10.83C1618.83,762.08,1615.26,757.5,1607.71,756.93Z"/><path class="cls-2" d="M1579.85,724.44c-3.65.09-4.11-1.78-3.27-4.16,3.93-11.17,8.66-22,15.22-31.88.94-1.43,2.5-3.09,4.54-2.14,2.37,1.09,2.35,3.26,1.54,5.46a154.24,154.24,0,0,1-15,30A14.07,14.07,0,0,1,1579.85,724.44Z"/><path class="cls-2" d="M1553.59,777.79c-3.39-.78-4.63-2.43-3.12-5.34,5.32-10.26,10.67-20.52,16.13-30.71.78-1.47,1.78-3.57,4.12-2.55,1.66.73,1.7,2.56,1.25,4A129.57,129.57,0,0,1,1556.3,776C1555.7,776.85,1554.39,777.27,1553.59,777.79Z"/><path class="cls-2" d="M1492.81,760.66c0-5.19-.07-10.38,0-15.56.05-2.4,0-5.39,3.32-5.53s3.68,2.65,3.69,5.18q.06,16.49,0,33c0,2.4.19,5.29-3.33,5.36-4.23.09-3.63-3.33-3.69-5.94-.12-5.49,0-11,0-16.47Z"/><path class="cls-2" d="M1499.84,703.31c0,5.16.07,10.33,0,15.49,0,2.37.07,5.34-3.38,5.3-2.61,0-3.44-2.43-3.45-4.58q-.09-17.31.17-34.62c0-1.72.75-3.88,2.93-4,2.72-.18,3.63,2,3.67,4.21.12,6.08,0,12.15,0,18.23Z"/><path class="cls-2" d="M1426.41,808.68c-12.14,1.55-24.33.67-36.49.78-2.38,0-4-1.15-5.58-2.57-.19-4.28,2.73-4.85,6-4.87,10.25-.08,20.52.11,30.77-.22C1426.58,801.62,1426.82,804.69,1426.41,808.68Z"/><path class="cls-2" d="M1485.58,808.92c-13.56.91-27.11,1.53-40.64-.3-.87-4.8.42-7.08,6-6.81a231.46,231.46,0,0,0,28-.12C1485.18,801.23,1486.14,804,1485.58,808.92Z"/><path class="cls-2" d="M1617.16,635.82c2-.83,3.37-5,6.27-1.22-3.33,14-10.69,25.85-19.6,37.06C1604.35,658.24,1612.59,647.69,1617.16,635.82Z"/><path class="cls-2" d="M421.25,706.18c.26-6.95.48-13.9.83-20.85.1-1.9-.84-4.68,2.41-4.88s3.71,2.41,3.83,4.95q.48,10.43.94,20.86c-.31,4.79-.66,9.58-.93,14.37-.13,2.48-1.09,4-3.82,3.86s-2.39-2.23-2.5-4C421.71,715.75,421.5,711,421.25,706.18Z"/><path class="cls-2" d="M514.35,809.49c-5.46,0-10.93,0-16.4,0-2.54,0-4-1-4.23-3.62-.23-2.91,1.73-3.65,4-3.67,10.94-.08,21.87-.13,32.8-.08,2.22,0,4.18.62,4.2,3.59,0,3.59-2.4,3.68-4.91,3.7-5.17,0-10.33,0-15.49,0Z"/><path class="cls-2" d="M456.27,802.13c5.16,0,10.32.06,15.48,0,2.85-.05,4.73.78,4.67,4-.05,2.73-1.64,3.57-4.13,3.56q-16.38,0-32.77,0c-2.53,0-3.94-.95-4-3.68-.1-3.15,1.31-4.25,4.38-4.16,5.46.16,10.93,0,16.39,0Z"/><path class="cls-2" d="M369.48,772.77c0,1.58-.22,2.78-1.78,2.93s-3.19.2-4-1.4c-5-9.36-10.13-18.66-14.72-28.21-1-2.1-1.28-5.86,2.05-7.05,3.12-1.11,4.07,1.94,5.08,4.06,4.32,9.08,8.54,18.2,12.77,27.33A13.51,13.51,0,0,1,369.48,772.77Z"/><path class="cls-2" d="M428.51,761.63c0,6.07,0,12.13,0,18.2,0,1.46-.09,3.1-2.19,3.25s-3.87-.43-3.88-2.72q-.14-19.08.06-38.15a2.73,2.73,0,0,1,3.1-2.64c2.46.1,2.75,2,2.78,3.87.08,6.06,0,12.13,0,18.19Z"/><path class="cls-2" d="M1580.62,425.35c10,2.64,18.29,8.8,27.39,13.3,1.2,4.07,10.09,3.72,7.24,8.25-3,4.82-7.81-1.09-11.5-2.6-8.09-3.3-16.23-6.7-23.38-11.9C1577.17,430.07,1575.28,427.51,1580.62,425.35Z"/><path class="cls-2" d="M1625,477.22c-.17-3.19-.43-8.37-.73-13.55-.1-1.88-.23-3.93,1.91-4.61,2.58-.82,4.23.91,4.75,3.09a41.27,41.27,0,0,1,1.1,9q.19,12.38-.07,24.75c-.05,2.42,1.16,6.31-3.21,6.12-3.61-.15-3.67-3.55-3.72-6.3C1624.88,490.22,1625,484.72,1625,477.22Z"/><path class="cls-2" d="M1632.33,548.33a10.31,10.31,0,0,1-.33,1.76c-1.15,3.21,2.68,9.17-3.27,9.37s-2.59-6.18-4.19-9.28c.17-8.84.29-17.68.53-26.52.07-2.66-.28-6.18,3.55-6.22,4.1-.05,3.3,3.63,3.37,6.19C1632.19,531.86,1632.23,540.09,1632.33,548.33Z"/><path class="cls-2" d="M1529.23,398.85l31.3,13.7c1.73,2.63,3.34,5.93.88,8.23-2.29,2.15-5-.82-7.29-1.91-8.26-3.82-16.52-7.64-24.67-11.71C1524.6,404.74,1522.1,401.81,1529.23,398.85Z"/><path class="cls-2" d="M1631.9,598.7c0,5.46,0,10.92,0,16.38,0,2.19-.3,4.66-2.92,4.92-3.4.33-3.79-2.59-3.8-5,0-11.21,0-22.43.2-33.65,0-1.81.51-3.82,2.84-4,2.75-.19,3.71,1.66,3.74,4,0,5.77,0,11.53,0,17.29Z"/><path class="cls-2" d="M295.83,555.73c-1.25,1.85-1.52,4.84-5,4.06-3-.68-2.23-3.15-2.52-5.08s-.49-4.15-.72-6.23c.33-8.43.6-16.87,1-25.29.11-2.18-1.08-5.54,2.43-5.82,3.71-.29,4,3,4.1,5.76C295.44,534,295.62,544.86,295.83,555.73Z"/><path class="cls-2" d="M294.91,479.72c0,6.08.1,12.16-.05,18.24-.06,2.18-.85,4.41-3.69,4.22-1.77-.12-2.43-1.69-2.49-3.3-.38-11.24-1.09-22.52.77-33.69.45-2.65,2-6.32,4.73-6,3.83.48,1.71,4.39,1.81,6.82.19,4.55.06,9.12.06,13.68Z"/><path class="cls-2" d="M312.6,438.41l24.06-12c2.24.05,5.24-2,6.45,1,1.11,2.79-1.88,4.35-3.8,5.38q-13.95,7.49-28.2,14.39c-2,.95-5,3.17-6.51.54-1.89-3.19,1.83-4.39,3.81-6C309.8,440.6,311.2,439.51,312.6,438.41Z"/><path class="cls-2" d="M361.49,413.57c10.81-4.32,20.3-11.63,31.88-14.24,4.12,4.46.38,6.28-2.85,7.93-8.37,4.27-16.77,8.48-25.28,12.45-2.55,1.18-6.18,3.62-8-.06C355.73,416.77,359.94,415.61,361.49,413.57Z"/><path class="cls-2" d="M288.69,598.05c0-5.78,0-11.55,0-17.32,0-1.52.16-3.2,2.1-3.43a3,3,0,0,1,3.66,3c.76,12.13,1.16,24.27.16,36.41a2.93,2.93,0,0,1-2.84,3c-2.45.16-3.18-1.5-3.21-3.44-.09-6.08,0-12.15,0-18.22Z"/><path class="cls-2" d="M808.42,291.23c-.84-.13-3.58,1.1-3.93-2.15a4.17,4.17,0,0,1,3.69-4.58c10.85-1.43,21.73-2.77,32.64-3.51,1.85-.13,6.14.29,5.95,4.07-.22,4.41-4.11,2.42-6.42,2.7C830.07,289,819.76,290,808.42,291.23Z"/><path class="cls-2" d="M523.78,354.35c-1.65-.54-3.75-.61-4.17-1.49a3.44,3.44,0,0,1,1.92-4.55c11.2-3.62,22.46-7.09,33.82-10.18.95-.26,4.41.29,4.77,2.92a3.43,3.43,0,0,1-1.77,2.72A272.6,272.6,0,0,1,523.78,354.35Z"/><path class="cls-2" d="M637.22,321.1c-2.15-.93-5.41,1.22-5.23-2.44.12-2.37,1.6-5.22,4.21-5.34,10.76-.46,20.86-4.38,31.44-5.62,2.62-.31,5.35.58,5.84,3.24.53,2.94-2.68,3-4.53,3.37C658.26,316.72,647.52,318.92,637.22,321.1Z"/><path class="cls-2" d="M696.42,308.26c-2.57-.45-6.77,2.21-7.13-2.63-.29-3.76,3.57-3,6.12-3.67,9.63-2.68,19.91-2.59,29.17-6.77,3.06-1.39,4.86.42,5.88,2.59,1.59,3.38-1.2,4-3.65,4.61C716.77,304.7,706.79,307.33,696.42,308.26Z"/><path class="cls-2" d="M881.21,280.06c4.86-.56,11.53-1.25,18.18-2.12,2.8-.37,5.19.19,5.56,3.15.48,4-2.9,3-5.11,3.17q-14.62.92-29.25,1.64c-2.42.12-5.58.23-5.58-3.1,0-3.86,3.4-3.58,6.12-3.5S876.6,279.7,881.21,280.06Z"/><path class="cls-2" d="M859.43,801.44l27.34.52c2.08,4,2.58,7-3.55,7-11.55-.09-23.11.09-34.67-.09-2,0-5.41,1-5.4-2.93,0-3.56,3.39-3.12,5.42-3.54C852.11,801.65,855.8,801.71,859.43,801.44Z"/><path class="cls-2" d="M905.54,802l39.78.2c1.44,4.16,1.36,6.9-4.43,6.76-10.6-.27-21.21,0-31.81,0C903.2,809.05,901.53,807,905.54,802Z"/><path class="cls-2" d="M808.4,808.85c-5.47,0-10.95,0-16.42,0-2,0-4.55.41-4.61-2.8a3.28,3.28,0,0,1,3.29-3.63c12.14-.22,24.29-.37,36.43-.32,2.12,0,2.94,2.11,2.71,4-.26,2.26-2.14,2.67-4.07,2.67-5.78,0-11.55,0-17.33,0Z"/><path class="cls-2" d="M754.87,809.8,729,809.58c-1.61-5-1.9-8.36,5.49-7.84,9.37.66,18.83,0,28.25.12,2.67,0,6.74-1.39,6.86,3.52.12,5.24-4.12,3-6.67,3.43S757.55,809.48,754.87,809.8Z"/><path class="cls-2" d="M1395.84,354.14A227.22,227.22,0,0,1,1363.3,344c-1.29-.54-2.82-1.5-2.45-3.39.48-2.41,2.65-2.66,4.27-2.21,11.12,3,22.18,6.28,33.24,9.52,2.15.62,2.67,2.47,2.35,4.36C1400.25,355.09,1397.87,353.62,1395.84,354.14Z"/><path class="cls-2" d="M1087.55,281.65c7.17-1.07,14.43,2.37,22.08,2.38,3.08,0,5.63,1.41,4.83,5s-4,2.29-6.09,2c-9.95-1.45-19.83-3.37-30-3.23-2.34,0-5.53.49-5.53-3s2.9-4.25,5.91-4C1081.53,281,1084.25,281.32,1087.55,281.65Z"/><path class="cls-2" d="M1287.33,314c1.74,5.7-.55,8-6.17,6.83-9.78-2.09-19.51-4.37-29.22-6.73-2.23-.54-5.47-1.14-4.45-4.44.89-2.87,4-2.3,6.3-1.87,11.27,2.08,22.51,4.28,33.78,6.45Z"/><path class="cls-2" d="M1040.28,286.19c-7-.65-13.94-1.31-20.92-1.94-2.49-.22-4.13-1.28-3.69-4,.4-2.44,2.33-2.27,4.22-2.15,10.31.63,20.55,2.74,31,.87,2.24-.4,5.44,1,5.71,3.52.33,3.32-2.94,3.2-5.29,3.28-3.66.12-7.32,0-11,0Z"/><path class="cls-2" d="M996,802c5.5,0,11,0,16.5,0,2.74,0,4,1.54,4,3.89,0,2.17-1.71,2.95-3.79,2.95q-17.42,0-34.83.08c-2.08,0-3.75-.69-4.11-2.75-.52-2.9,1.75-3.77,3.94-3.83,6.1-.17,12.2-.06,18.31-.06Z"/><path class="cls-2" d="M1066.8,801.48c4.32.56,9.8,0,7.25,7.33-12.13,0-24.26.08-36.39,0-2.18,0-5.4,1-5.65-2.69-.29-4,3.11-3.94,5.72-4C1047.42,801.78,1057.11,801.67,1066.8,801.48Z"/><path class="cls-2" d="M1113.16,808.89c-5.47,0-11,0-16.42,0-2,0-4.58.48-4.61-2.78s1.95-4.12,4.77-4.13c10.95,0,21.9,0,32.84-.09,2.69,0,4,1.31,4.12,3.73.19,3-2,3.24-4.28,3.23-5.47,0-10.95,0-16.42,0Z"/><path class="cls-2" d="M1169.83,809.54c-5.24-2-11.1-.32-16.71-.68a3.18,3.18,0,0,1-3.11-2.77c-.34-1.72.84-3.55,2.12-3.58,12.47-.35,24.95-.48,37.43-.49,1.72,0,2.18,1.79,2.2,3.43,0,2.6-1.22,4-3.79,4.07C1181.92,809.58,1175.88,809.54,1169.83,809.54Z"/><path class="cls-2" d="M312.05,749.85c10.67-.09,18.6,7.48,18.87,18,.25,9.71-8.75,18.86-18.4,18.7a18.53,18.53,0,0,1-18.29-18.76A17.75,17.75,0,0,1,312.05,749.85Zm11.36,19.37c.34-7.14-3.38-10.74-9.46-11.69-6.84-1.08-11.39,2.31-12.18,9.12s3.57,11.29,9.74,12.22C318.35,779.9,321.68,774.84,323.41,769.22Z"/><path d="M832.39,477.48v111H812.57V517.77l-19.51,14.91-16.18,12.53L760.7,532.68l-19.51-14.91v70.74H721.36v-111l19.83,15.23,35.69,27.44,35.69-27.44Z"/><path d="M958.8,569v19.83H848.09V556.15a31.54,31.54,0,0,1,2.7-12.85,32.55,32.55,0,0,1,28.86-20h48.06a13,13,0,0,0-1.11-25.86H848.41V477.64H926.6a32.63,32.63,0,0,1,32.68,32.67A32.4,32.4,0,0,1,949.92,533a32.94,32.94,0,0,1-22.36,10H879.65a12.9,12.9,0,0,0-11.58,12.84v12.85Z"/><path d="M1063,497.15a34.47,34.47,0,0,1,3.65,15.54v75.66h-19.83V510.79a15.81,15.81,0,0,0-13.48-13.48H975.13V477.48h56.31a34.51,34.51,0,0,1,15.55,3.65,35.17,35.17,0,0,1,16,16.18Z"/><path d="M1184,532.52A32.75,32.75,0,0,1,1160.55,588H1115a32.57,32.57,0,0,1-30.14-20,34.31,34.31,0,0,1-2.54-12.85V509.68a32.14,32.14,0,0,1,8.25-21.42,33.65,33.65,0,0,1,9.52-7.45,31.39,31.39,0,0,1,14.91-3.65h69V497h-69a13.07,13.07,0,0,0-13,13v15.54a32.48,32.48,0,0,1,12.37-2.54h46.79a32.81,32.81,0,0,1,23,10Zm-23.63,35.69a13.07,13.07,0,0,0,13-13,12.93,12.93,0,0,0-12.22-13h-46.79a13,13,0,0,0,.64,26h45.36Z"/></g></g></svg>