<svg xmlns="http://www.w3.org/2000/svg" viewBox="0 0 1920 1080"><defs><style>.cls-1{fill:#f2f2f2;}.cls-2{fill:#020202;}.cls-3{fill:#ccc;}</style></defs><g id="Capa_2" data-name="Capa 2"><g id="Capa_1-2" data-name="Capa 1"><path class="cls-1" d="M1536.42,799.24l-.1-424.34a25.48,25.48,0,0,0-2.52-10.34c-.78-1.83-1.53-3.14-3.86-2.6-12.73,3-21.88-6-32.53-9.94a2.79,2.79,0,0,1-1.75-3.73c1-2,2.64-1.79,4.58-1.12,5,1.74,10.19,3,14.8,5.92,2.36,1.51,5.13,3.79,9,1-4.21-1.53-6.08-4.7-7.94-8s-5.65-6-8.7-5.47c-9.42,1.78-16.64-3.49-24.67-6.15-5.25-1.74-10.58-3-13.25-9.19-1.3-3-5.88-3.4-9-2.94-13,1.89-23.56-4.54-34.19-9.82-4.62-2.3-8.81-5.11-14-5.08a49.12,49.12,0,0,1-12.78-2.07c-16.66-4.38-32.34-12.05-49.75-14-13.64-1.54-25.9-8.76-40-9.56-10.72-.61-21.72-2.3-31.42-8.23-5.22-3.19-11.23.92-16.36-.46-10.46-2.79-22-2-31.36-8.81-2.44-1.78-5.83-1.79-8.93-1.21-13.55,2.53-26.5,1.59-38.46-6.11-2.91-1.87-7-2.54-9.59-.87-5.33,3.4-11.13,3.25-16.31,2-7.72-1.8-16.72,1.26-23.3-6.68-1.76-2.12-8.83-3.36-12.52,1-1.84,2.15-3.71,2.26-6.06,2.06-7.64-.67-15.3-1.24-22.93-2-1.47-.14-3.75-.36-4.18-1.25-4-8.27-9.74-4-15.54-2.87-12.29,2.45-24.84,5.54-36.28-3.15-1.17-.89-2.91-1.53-4.25-.38-1.52,1.31-.29,2.89.35,4.11,2.69,5.2,6.84,8,12.93,7.68,1.86-.1,3.71.58,4,2.73a2.69,2.69,0,0,1-1.68,2.07c-6,.3-13.27,3.14-16.79-3.61,0,0-4.81-11.56-4.81-23.24v-17c.24-4.1-3.15-3-5.52-3.09-5.58-.28-13.89,1.63-16.21-1.26-5.41-6.73-11.28-4.31-17.24-4.37h-11c-3.18-.33-15-.4-16.25,1.84-2.24,4-5.79,3.56-9.21,3.72-3.81.18-7.63,0-11.44,0-1.75,0-3.83-.22-3.92,2.36l.06,17.43-.12,18c-4.72,5.81-9.23,12-18.26,9.57-1.91-.51-5.37,1.42-5.23-2.39.11-3.06,3.11-2.61,5.41-2.81,7.07-.63,11.72-5.42,12-12.75-10.31,8.93-22.52,6.19-34.2,6.46-2,.05-4.05.28-5.69-1.47-4.26-4.56-8.46-2.75-12.77.11-10.49,6.94-22.5,4.26-33.94,5.09-.5,0-1.16-.86-1.61-1.42-4.43-5.58-8.93-3-12.77.41-1.59,1.39-2.76,2.69-5,2.91-8.14.82-16.27,1.77-24.41,2.58-2,.2-4.27.79-5.94-.67-5.26-4.59-9.94-2.42-15.07.48a47.61,47.61,0,0,1-32.42,5.51c-6.19-1.21-10.61-.86-15.43,1.83-3.63,2-7.49,2.9-11.42,4-11.66,3.34-24.24-.43-35.4,4.39-10.52,4.54-21.59,6.08-32.61,7.93-4.71.79-9.71.26-14.34,1.83-25.85,8.78-53,12.81-79,21.06-9,2.84-17.74,5.58-26.31,9.54-9.1,4.21-18.25,9.16-29.16,7.24-3.12-.55-6.58,1-9,3.57-9.16,9.91-21,13.49-33.95,14.1-7.34.35-15.37,6.8-17.56,15.49,6.43-2.57,12.45-5.08,18.56-7.36,2.18-.82,5.15-2.93,6.57.56,1.55,3.81-2.12,4.63-4.57,5.66-6.82,2.87-13.74,5.5-20.58,8.34-2.19.91-4.61,1.86-6.68,1-5.36-2.33-6.75,1.55-8.49,4.92-1.84,3.57-1.27,7.51-1.28,11.32q0,60.68,0,121.35c.05,35.07.23,70.14.36,105.2q0,36.88,0,73.77,0,29.19-.05,58.37c-.14,18.87,0,37.76-.62,56.62-.23,6.59,1.89,10,8.12,11.23,0,0,23,12.71,24.35,20.33s2.33,16.62,2.33,16.62l.59,22.65c-.2,4.3,1.45,5,5.28,5,14.05-.21,28.1-.08,42.16-.08v-.1c13.8,0,27.6-.1,41.39.07,3.5,0,5.39-.66,4.91-4.6l.42-26.06s-1-13.45,5.44-14.14c1.75,0,4.7.28,4.67-1.52-.13-8,5.65-5.43,9.64-5.66a115.64,115.64,0,0,1,15.35-.06c4,.3,10.81-3.14,9.63,5.93,0,.35,1,1.2,1.52,1.21,4.09.08,8.23.38,12.26-.13,3.19-.39.86-3.36,1.47-5.06.83-2.28,2.75-1.93,4.48-1.94,8.7-.06,17.4-.07,26.11-.1,2.09,0,4.92,0,4.44,2.76-1.29,7.5,3.9,4.87,5.92,3.27,9.92-7.86,22-4.78,32.91-7.11,63.22-13.5,126.74-25.06,191.27-30.29,25-.95,50-3.28,75.08-3.18,0,0,43.13,0,54.88.23,14.83.25,29.65.91,44.48,1.4,33.44,2.24,66.82,5,100,9.49,4.8.65,10.3,4.3,14.86-1.43.73-.92,2.93.38,4,1.57a11.14,11.14,0,0,0,6.57,3.65l86.51,16.61c10.9,2.48,21.8,5,32.72,7.41,1.56.35,3.7,1.69,4.39-1.06.91-3.56,3.62-3,6.11-3,5.88-.1,11.79-.59,17.64-.15,4.37.33,11.66-3.68,11.24,6.07-.05,1.22,1.68,1.35,2.47,1.09,4.13-1.39,11.36,4.25,12-5.35.15-2.25,2.78-1.77,4.49-1.79,8.44-.08,16.88-.09,25.32-.13,2.36,0,5.28-.06,4.59,3.32-1,5.06,2.26,4,4.87,4,0,0,16.72-1.89,16.72,5.22v33.68c.1,4.54,2.34,4.65,5.8,4.61,13.54-.15,27.08-.06,40.62-.06v-.07c13.8,0,27.59-.09,41.38.06,3.67,0,5.71-.52,5.57-4.92l0-25s-1.34-19.79,9.36-25.56c7.52-3.06,15-6.26,22.58-9.09C1536.44,803.34,1536.44,801.71,1536.42,799.24Z"/><path class="cls-2" d="M966.14,762.42l-12.4.1c-5.36-.26-10.75-.08-16.12-.1-2.09,0-4.37-.17-4.39,2.83s2,3,4.24,3l28.78.47C969.88,766,970.57,764.46,966.14,762.42Zm44.19.21s-20.94-.18-23.92-.63-3,2.93-3,4.74,26.14,1.66,26.14,1.66a1.82,1.82,0,0,0,.77,0c3-.93,8.63,2.43,8.32-3.38C1018.43,760.42,1013.12,762.39,1010.33,762.63Zm0,0s-20.94-.18-23.92-.63-3,2.93-3,4.74,26.14,1.66,26.14,1.66a1.82,1.82,0,0,0,.77,0c3-.93,8.63,2.43,8.32-3.38C1018.43,760.42,1013.12,762.39,1010.33,762.63Zm-44.19-.21-12.4.1c-5.36-.26-10.75-.08-16.12-.1-2.09,0-4.37-.17-4.39,2.83s2,3,4.24,3l28.78.47C969.88,766,970.57,764.46,966.14,762.42Zm818.1-302.36q-26.12-.4-52.23,0c-4.93.07-7.1-1.08-6.33-6.38.43-3,.4-6.14,1.8-8.94,8.67-17.3,3.32-35.25-13.84-43.2-91-42.16-182.28-84-277.68-115.6-67.78-22.47-137.45-37.43-207.9-48.74,0,0-63.35-8.86-84.68-11.23S1038,220,1038,220c-2.14,0-5.73.69-5.3-2.56,1.51-11.47-6.49-9-12.71-9.16-4-.11-10.74,1.37-11.62-.3-3.81-7.23-9.89-5.14-15.35-5.32l-25.32.21c-3.93.1-9.69-1.93-11.37,1.84-2.19,4.9-4.93,3.87-8.47,3.71-4.6-.21-9.22-.05-13.82.14-2.28.1-5.17.39-4.6,3.66,1.31,7.55-3.19,7.39-8.57,7.44-42.27.37-84.44,2.63-126.35,8.36-39.52,5.41-78.89,11.67-118,19.5-64,12.82-127.06,28.81-188.32,51.5C423.94,322.85,361.07,350,298.72,378.31c-17.22,7.82-34.58,15.38-51.53,23.74-16.3,8-21.41,27.09-12.41,43a15.45,15.45,0,0,1,.59,14c-1.47,3-5.87-.67-9-.79l-92-.56c-6.8-.43-9.17,1.47-9.11,8.76.33,40.45.13,80.91.08,121.36,0,17.64-.06,17.63,17.17,18.12a13.25,13.25,0,0,1,1.52.22c6.39-.09,12.78-.47,19.16-.23,31.17,1.17,62.22-1.34,93.29-3.12,5.28-.31,10.51.07,13.19,5.59,2.49,5.12,0,9.58-3.14,13.37-5.6,6.71-7,14.29-6.94,22.82.26,31.19.05,62.38.13,93.58,0,3,.83,6,1.27,9l75,67.22c28.39,17.94,60,29.28,90.07,43.76,7,3.36,14.63,1.78,22,1.47,4.93-.21,6.78.89,6.55,6.18-.47,10.61-.19,10.61,10.2,10.59,29.16,0,58.32-.2,87.48.06,5.72,0,7.7-1.72,7.62-7.3,0-3.16-2.38-8.59,2.43-9.07,6-.58,14.08-3.33,17.81,3,5.13,8.73,12.13,9.3,20.65,9,13-.4,26.1-.46,39.12,0,6.37.22,10.88-1.81,14-7.1a7.91,7.91,0,0,1,7.55-4.13q67.14.24,134.27.29c8.77,1.29,13.15-4.87,18-10.45,16.32-18.82,36.58-30.23,61.69-32.33l195.17-.94c34.19-.56,61.58,12.26,82.75,38.75,2.67,3.34,5.57,5,9.66,5q68.36-.15,136.71-.34c4,0,7.06,1.44,9,4.77,3.11,5.36,7.69,6.55,13.59,6.46,0,0,35.52-.09,45.84-.09s11.48-5.07,11.48-5.07a6.24,6.24,0,0,1,5.21-6.68c4.54-.61,9.18-.43,13.78-.57,1.84-.05,3.09.83,2.7,2.7,0,0,.06,2.87.07,8.71s9,5.22,9,5.22c30,0,60.39,3.24,89.76-.93,8.88-1,7.42-11.41,7.42-11.41,0-5.07,3.7-4.37,6.46-4,13.36,1.79,25.06-2.81,36.74-8.43,17-8.19,34.24-16,51.49-23.73,9.87-4.41,18.74-10.38,27.67-16.31L1695.49,753c6-4.69,7.18-10.9,7.1-18.28-.35-30.71-.46-61.43,0-92.14.14-8.9-3.25-15.72-8-22.56-2.2-3.21-5.69-6.27-2.79-10.95s7-6.29,12.09-6.27c13.82,0,27.64.19,41.46.3l38.78-.28c3.54,0,7.13.21,10.27-2,.11-4.34.32-8.68.31-13V473.3C1794.76,459.84,1784.24,460.06,1784.24,460.06Zm-120.61-56c4.71-10.28,4.58-10.38,15.15-5.49,9.71,4.5,19.22,9.45,29.11,13.52,8.46,3.49,10.6,10.29,11.49,18.19.46,3.71-1.16,4.89-4.4,3.32-16.5-8-32.94-16.15-49.42-24.2C1663.09,408.2,1662.29,407,1663.63,404.07ZM1663.09,606c1,25,.6,50,.26,75.06.06,13.26,0,26.53.23,39.79.11,6.31-4.72,9.29-8.14,13.24-2,2.3-4.31,4.32-6.48,6.47-9.89,13.16-21,24.28-37.18,30.34-21.19,8-41.75,17.58-62.49,26.69-4.66,2-6.75,2.32-6.55-4l.29-433.58c-.62-2.79,0-3.87,2.73-1.94,25.8,12.27,51.56,24.63,77.45,36.72,4.78,2.23,4.44,4.7,2.06,8.32-1.28,1.94-2.54,4.42.32,5.91s4.42-.83,5.23-3c2.08-5.68,5.21-6,9.77-2.67a26.48,26.48,0,0,0,7.45,3.88c4.77,1.47,6.26,3.77,3.51,8.32-1,1.71-2,4.07.4,5.4,2.75,1.52,4.66-.67,5.37-2.76,1.84-5.38,4.28-4.81,8.41-2.17A212.86,212.86,0,0,0,1695,431.14c3.94,1.72,5.67,4.16,5.64,8.78-.18,27.65-.07,55.3.09,82.95a15.47,15.47,0,0,1-4,10.44c-9,10.81-17.82,21.81-27.15,32.33-4.18,4.72-6.29,9.51-6.07,15.85C1663.78,589.65,1663.26,597.84,1663.09,606Zm-21.52-221.94c.83-2.49,3.43-.81,5.23,0,3.22,1.47,6.54,2.75,9.65,4.43,2.26,1.22,6.69,1,6.11,4.42s-3.19,6.76-5,10c-.28.5-1.3.58-2.3,1-5.72-2.94-12.39-5-17.08-9.25C1635.09,391.94,1640.35,387.73,1641.57,384.07ZM1037.8,231.24c8.19,0,16.37,0,24.55,0,55.11,1.87,109.56,8.92,163.85,17.86,72.87,12,144.89,27.6,214.92,51.24,64.88,21.9,127.58,49.35,190.25,76.78,3,1.29,7,2.33,3.49,6.88-2.38,3.05-2.14,8.93-9.65,5.23-55.82-27.53-111.16-56.36-170.38-76.06-71.06-23.65-144-40.43-217.51-54.34C1181,248.19,1124,242.7,1066.68,240.06c-9.7-.45-19.41-1-29.12-1.46-2.69-.13-5.23-.23-5.17-4C1032.45,230.58,1035.26,231.23,1037.8,231.24ZM328.73,378.05c68-29.88,136-59.87,206.85-82.57,62.35-20,126.15-33.88,190.65-44.82,34.51-5.86,69.09-11.15,103.92-14.61,31.32-3.1,62.82-3.62,94.27-4.86,2.72-.11,5.32-.13,5.13,3.74-.12,3.69-2.72,3.57-5.41,3.7-18.4.91-36.8,1.76-55.19,2.89a1234.78,1234.78,0,0,0-188.89,26.2c-60.86,13.36-121.46,27.78-180.46,48-42.82,14.69-83.26,35.06-124.08,54.44q-20.4,9.69-40.6,19.77c-7.42,3.71-5.87-4.14-8.43-6.48S325.78,379.34,328.73,378.05Zm103.13-27.11c-1.84,4-3.54,6.25-6.81,6.83-.23,0-1.05-1.17-1-1.69C424.73,352.54,427.3,351.51,431.86,350.94Zm-130.5,39.85c5-3.72,11.38-5.59,17.55-8.45,3.62,1.43,3.81,5.43,5.59,8.23,1.68,2.64.37,4.34-2,5.53-4.76,2.43-9.57,4.76-14.36,7.14-2.31,1.15-4.26.71-4.53-2C303.29,397.56,296.63,394.32,301.36,390.79Zm4,27.3c.52,1.63,1.76,3.72,3.8,3,2.77-1,1.66-3.77.74-5.22-3.06-4.81-.68-6.85,3.54-8.48a36.72,36.72,0,0,0,6.9-3.29c5.23-3.42,9.82-5.42,12,3.05a2.65,2.65,0,0,0,3.51,2.08c2.48-.85,2.11-3.13,1.12-4.42-5.67-7.44.12-9.44,5.33-11.93,23.28-11.1,46.57-22.15,69.77-33.43,5-2.44,6-2,6.61,4.38l-.29,432.07c-.23,4.43-8.64.23-10.77-.67-18.53-7.85-37-15.82-55.47-23.77-4.68-2-9.37-4-14-6.16-3.2-1.51-6.44-3.1-8.41-6.31q-14.49-15.32-29-30.64c-2.29-2.42-2.68-5.41-2.67-8.55q.18-61.44.34-122.9c0-4.59,1.56-9,.75-13.73-1.22-7-1.43-14.31-10.08-19.22,17.78-3.82,28.26-12.31,29.72-28.83,1.09-12.37-6.39-24.05-17.57-28.89-13.31-5.77-24.19-2.25-39.83,13.44,0-12.83-.05-24.86,0-36.9,0-3,2.44-2.71,4.48-2.71,6.15,0,12.29.06,18.44-.06,2.39-.05,5.91.65,5.69-3.21-.21-3.62-3.38-2-5.46-2-5.63,0-11.29-.34-16.89.1s-6.9-2-6.7-7.15c.38-9.46.4-18.95.1-28.41-.12-4,1.53-5.93,4.89-7.6q15.42-7.68,30.58-15.89C300.48,413.73,303.55,412.48,305.33,418.09ZM278.75,549.8c-2.54-2.87-4.8-6-7.21-9-9.17-11.35-3.72-26.51,10.9-30.16a47.92,47.92,0,0,1,5.17-.81c10.8,0,20.25,6.42,23.6,15.39,3.51,9.38.67,19.56-7.33,26.25C294.85,559.05,286.45,558.53,278.75,549.8Zm-36.24-119c.52-8.65,3-14.39,9.91-17.61,12-5.61,24.08-11.18,35.93-17.14,5.41-2.71,6.11,1.4,7.39,4.44s5.45,6.36-.65,9.31c-16.07,7.77-32,15.83-48,23.72C242,436.1,242.38,432.51,242.51,430.84Zm-9.79,40.64c15.42-1.4,15.43-1.4,15.48-17.55,0-4.08-.15-8.16-.14-12.24,0-2.95,2.39-4,4.59-4.28,3.35-.45,2.52,2.4,2.53,4.24,0,9.18,0,18.36-.06,27.54,0,1.84.86,4.65-2.23,4.75-6.93.24-13.93,1-21.86-.53C232.38,471.85,232.53,471.5,232.72,471.48Zm-63.93-3.82c-1.45,21.22-.46,42.47-.71,57,0,27.45-.22,48.19.15,68.91.1,5.29-1.5,6.48-6.38,6.28-8.43-.34-16.9-.3-25.34,0-4.45.18-5.42-1.26-5.41-5.6q.27-63,0-125.92c0-3.46.87-4.54,4.14-4.52q15.36.09,30.71-.11C169,463.7,169,465.32,168.79,467.66ZM232.11,583.1c-6-.13-8.86,1.84-7.7,7.91,1.49,7.87-2.13,9.34-9.2,8.91-10-.59-20-.35-30,0-4.46.16-5.67-1.28-5.63-5.61.2-20.74.09-41.47.09-62.2,0-20.23.17-40.45-.1-60.67-.08-5.44,1-7.75,7.11-7.43,10.72.55,21.5.29,32.25,0,4.06-.11,5.94.37,5.67,5.27-.57,10.58-.25,10.45,10.49,10.65,6.34.11,14.62-2.75,18.51,1.09,4.23,4.19,1.19,12.6,1.43,19.15.23,6.14-.29,12.3,0,18.43,1,18.45,6.42,34.52,24.45,43.58,5.18,2.61,8.2,7.72,11.28,12.28,3.67,5.43.89,9.09-5.75,9C267.44,583.32,249.77,583.48,232.11,583.1ZM448.45,848.47c-8.95-.35-17.95-.21-25.73-5.73-26.69-12.4-54.69-22.13-79.27-38.8-3.34-2.26-6.82-4.48-9.2-7.9q-29.83-26.32-59.71-52.6c-2.64-2.31-3-5.06-3-8.24.08-30.94.27-61.9,0-92.84-.07-6.91,3.94-11.33,7-16.5,8.11-13.44,4.49-26.15-9.42-33.25a5.37,5.37,0,0,1-2.49-2.59c8.09,1.24,16.16-.3,24.1.88,2.57.38,1.18,4.06,1.18,6.16.08,39.9.23,79.8-.11,119.7-.07,8,2.09,14.22,7.68,19.89,8.42,8.56,16.4,17.54,24.44,26.46,3.12,3.46,6.91,5.93,10.76,8.4,22,8,43.06,18.22,64.68,27.15,3.52,1.45,7.06,2.86,10.63,4.18,0,0,16.21,7.53,25.73,12.74a57.71,57.71,0,0,1,15.4,12.34l2.55,15.38C454.21,848.07,452.43,848.62,448.45,848.47Zm942.88-.52c-8.49-.39-16.59-.55-20.47,9.18-1.16,2.91-3.84,2.94-6.48,2.92-13.06-.07-26.12-.16-39.18-.11-4.09,0-7.47-.79-9.77-4.61-3.26-5.4-8.27-6.65-14.43-6.62-43.27.22-86.55.06-129.82.27-5.58,0-9.49-1.4-13.11-5.89-9.62-11.9-22.06-20.44-35.36-27.79-17.76-8.15-36.65-10.1-55.89-10.27-2.77,0-5.55-.49-8.32-.75l-67.2-.39q-20.25-.14-40.48-.31l-72.2,1.71c-30.73,2.89-56.39,15.61-76,39.64-3.05,3.74-6.7,4-10.9,4-43.26,0-86.52.07-129.78-.13-6.89,0-12.64,1.14-16.43,7.37-1.82,3-4.64,3.68-7.9,3.67-13.31,0-26.62,0-39.93,0-3.21,0-6.23-.4-7.64-3.83-3.08-7.48-9.1-8.95-16.3-8.09-.76.09-1.54.05-2.3.08-10.76.4-14-3.55-11.69-14.2.87-4.07,4.07-2.25,6.16-2.26,23.29-.11,46.61-.59,69.87.23,16.45.58,31.77-4.68,47.66-6.8a126.58,126.58,0,0,0,23.79-5.59c2.18-.74,5.17-2.44,5.16,2.32,0,2.69,2.14,2.36,3.88,2.36,8.7,0,17.4,0,26.11-.08,1.9,0,4.42.55,4.34-2.7s-2.63-2.7-4.51-2.73c-7.12-.1-14.25,0-21.37,0l-.24-1.95,57.54-11c-3.46,6.36-7.29,10.74-13.14,13.1-1.68.68-3.67,1-3.28,3.42.51,3.16,3.14,1.85,4.93,1.92,3.39.13,6-1.89,7.74-4.37,10.24-15,25.57-18.68,42.36-20,19.61-1.55,39.16-3.81,58.73-5.75,33.29-2.49,66.6-4.6,100-3.88l78.38,2c26.8.65,53.41,3.59,80,6.59,10.13,1.14,20.23,2.61,30.32,4.05,3.71.52,7.74.49,10.26,4.1,3.73,3.84,7.37,7.77,11.22,11.48,1.38,1.34,3.32,3,5.31,1.45s.52-3.73-.37-5.51c-1.23-2.47-4.2-3.77-4.89-7.73,10.94,1.92,21.51,3.67,32,5.65,8.77,1.65,17.49,3.53,26.22,5.36,3.85.81,8.44.24,9.89,5.54.42,1.5,2.18,1.19,3.35,1.09,16.08-1.32,31.33,3.41,46.93,6,20.28,3.35,40.88,1.15,61.34,1.46,10.49.16,21,.23,31.49,0,4.06-.08,5.84.69,5.86,5.34C1402.87,848.35,1403.12,848.5,1391.33,848ZM1501.71,839l0,25c.14,4.4-1.9,5-5.57,4.92-13.79-.15-27.58-.06-41.38-.06V869c-13.54,0-27.08-.09-40.62.06-3.46,0-5.7-.07-5.8-4.61V830.73c0-7.11-16.72-5.22-16.72-5.22-2.61,0-5.9,1.11-4.87-4,.69-3.38-2.23-3.33-4.59-3.32-8.44,0-16.88,0-25.32.13-1.71,0-4.34-.46-4.49,1.79-.66,9.6-7.89,4-12,5.35-.79.26-2.52.13-2.47-1.09.42-9.75-6.87-5.74-11.24-6.07-5.85-.44-11.76,0-17.64.15-2.49,0-5.2-.57-6.11,3-.69,2.75-2.83,1.41-4.39,1.06-10.92-2.43-21.82-4.93-32.72-7.41l-86.51-16.61a11.14,11.14,0,0,1-6.57-3.65c-1-1.19-3.24-2.49-4-1.57-4.56,5.73-10.06,2.08-14.86,1.43-33.23-4.45-66.61-7.25-100-9.49-14.83-.49-29.65-1.15-44.48-1.4-11.75-.27-54.88-.23-54.88-.23-25.08-.1-50.05,2.23-75.08,3.18-64.53,5.23-128,16.79-191.27,30.29-11,2.33-23-.75-32.91,7.11-2,1.6-7.21,4.23-5.92-3.27.48-2.74-2.35-2.76-4.44-2.76-8.71,0-17.41,0-26.11.1-1.73,0-3.65-.34-4.48,1.94-.61,1.7,1.72,4.67-1.47,5.06-4,.51-8.17.21-12.26.13-.54,0-1.57-.86-1.52-1.21,1.18-9.07-5.66-5.63-9.63-5.93a115.64,115.64,0,0,0-15.35.06c-4,.23-9.77-2.36-9.64,5.66,0,1.8-2.92,1.52-4.67,1.52-6.48.69-5.44,14.14-5.44,14.14l-.42,26.06c.48,3.94-1.41,4.64-4.91,4.6-13.79-.17-27.59-.07-41.39-.07v.1c-14.06,0-28.11-.13-42.16.08-3.83.05-5.48-.68-5.28-5l-.59-22.65s-1-9-2.33-16.62-24.35-20.33-24.35-20.33c-6.23-1.21-8.35-4.64-8.12-11.23.65-18.86.48-37.75.62-56.62q0-29.19.05-58.37,0-36.89,0-73.77c-.13-35.06-.31-70.13-.36-105.2q-.09-60.67,0-121.35c0-3.81-.56-7.75,1.28-11.32,1.74-3.37,3.13-7.25,8.49-4.92,2.07.9,4.49-.05,6.68-1,6.84-2.84,13.76-5.47,20.58-8.34,2.45-1,6.12-1.85,4.57-5.66-1.42-3.49-4.39-1.38-6.57-.56-6.11,2.28-12.13,4.79-18.56,7.36,2.19-8.69,10.22-15.14,17.56-15.49,12.93-.61,24.79-4.19,33.95-14.1,2.39-2.59,5.85-4.12,9-3.57,10.91,1.92,20.06-3,29.16-7.24,8.57-4,17.34-6.7,26.31-9.54,26-8.25,53.17-12.28,79-21.06,4.63-1.57,9.63-1,14.34-1.83,11-1.85,22.09-3.39,32.61-7.93,11.16-4.82,23.74-1.05,35.4-4.39,3.93-1.13,7.79-2,11.42-4,4.82-2.69,9.24-3,15.43-1.83a47.61,47.61,0,0,0,32.42-5.51c5.13-2.9,9.81-5.07,15.07-.48,1.67,1.46,3.94.87,5.94.67,8.14-.81,16.27-1.76,24.41-2.58,2.19-.22,3.36-1.52,5-2.91,3.84-3.37,8.34-6,12.77-.41.45.56,1.11,1.45,1.61,1.42,11.44-.83,23.45,1.85,33.94-5.09,4.31-2.86,8.51-4.67,12.77-.11,1.64,1.75,3.7,1.52,5.69,1.47,11.68-.27,23.89,2.47,34.2-6.46-.33,7.33-5,12.12-12,12.75-2.3.2-5.3-.25-5.41,2.81-.14,3.81,3.32,1.88,5.23,2.39,9,2.44,13.54-3.76,18.26-9.57l.12-18-.06-17.43c.09-2.58,2.17-2.35,3.92-2.36,3.81,0,7.63.16,11.44,0,3.42-.16,7,.29,9.21-3.72,1.26-2.24,13.07-2.17,16.25-1.84h11c6,.06,11.83-2.36,17.24,4.37,2.32,2.89,10.63,1,16.21,1.26,2.37.12,5.76-1,5.52,3.09v17c0,11.68,4.81,23.24,4.81,23.24,3.52,6.75,10.84,3.91,16.79,3.61a2.69,2.69,0,0,0,1.68-2.07c-.29-2.15-2.14-2.83-4-2.73-6.09.34-10.24-2.48-12.93-7.68-.64-1.22-1.87-2.8-.35-4.11,1.34-1.15,3.08-.51,4.25.38,11.44,8.69,24,5.6,36.28,3.15,5.8-1.16,11.54-5.4,15.54,2.87.43.89,2.71,1.11,4.18,1.25,7.63.71,15.29,1.28,22.93,2,2.35.2,4.22.09,6.06-2.06,3.69-4.31,10.76-3.07,12.52-1,6.58,7.94,15.58,4.88,23.3,6.68,5.18,1.21,11,1.36,16.31-2,2.64-1.67,6.68-1,9.59.87,12,7.7,24.91,8.64,38.46,6.11,3.1-.58,6.49-.57,8.93,1.21,9.4,6.85,20.9,6,31.36,8.81,5.13,1.38,11.14-2.73,16.36.46,9.7,5.93,20.7,7.62,31.42,8.23,14.11.8,26.37,8,40,9.56,17.41,1.95,33.09,9.62,49.75,14a49.12,49.12,0,0,0,12.78,2.07c5.19,0,9.38,2.78,14,5.08,10.63,5.28,21.24,11.71,34.19,9.82,3.08-.46,7.66-.06,9,2.94,2.67,6.16,8,7.45,13.25,9.19,8,2.66,15.25,7.93,24.67,6.15,3-.58,6.82,2.13,8.7,5.47s3.73,6.47,7.94,8c-3.86,2.79-6.63.51-9-1-4.61-2.93-9.77-4.18-14.8-5.92-1.94-.67-3.61-.87-4.58,1.12a2.79,2.79,0,0,0,1.75,3.73c10.65,3.94,19.8,12.9,32.53,9.94,2.33-.54,3.08.77,3.86,2.6a25.48,25.48,0,0,1,2.52,10.34l.1,424.34c0,2.47,0,4.1-2.77,5.14-7.6,2.83-15.06,6-22.58,9.09C1500.37,819.24,1501.71,839,1501.71,839ZM1782.93,585.2c0,5-1.55,5.86-6.12,5.81-24.06-.26-48.13-.4-72.2-.13-15.95.17-23.5,6.73-26,21.36.43,5.19,2,10.16,5.28,14.06,5.74,6.72,6.88,14.29,6.44,22.75-.53,10.17-.28,20.38-.36,30.57q.07,28.39.15,56.79c0,2.29.07,4.71-2.46,6-26.26,23.34-50.52,49-80,68.63-2.5,1.67-5.41,2.74-8.12,4.09-22.66,10.53-45.19,21.38-68.08,31.39-6.21,2.72-13.62,1.69-20.54,1.72-2.6,0-3.71-1.21-3.66-3.72,0,0,.77-9.39,2-15.65s6.94-10.16,6.94-10.16l33.92-14.35c22.7-9.84,45.29-19.92,68.14-29.4A65.47,65.47,0,0,0,1643,757.53c7.74-8.8,16-17.15,24-25.69,2.39-3.54,2.79-7.5,2.8-11.66,0-14,.23-28.07.36-42.11q0-32.27,0-64.54c-.16-11.26-.51-22.51-.42-33.77.07-8.51,6.34-13.8,12.55-17.13,18.47-9.9,24.12-26.07,24.27-45.26.2-24.57-.06-49.14-.06-73.71,0-2.22-1.92-5.81,2.25-5.93,3.27-.09,5.76,1.94,5.72,5.84-.07,6.91.22,13.84-.2,20.72-.37,6.09,2,8,8,7.91,17.92-.28,35.85.18,53.77-.26,6-.14,7.12,1.65,7.06,7.29Q1782.63,532.21,1782.93,585.2Zm-772.6,177.43s-20.94-.18-23.92-.63-3,2.93-3,4.74,26.14,1.66,26.14,1.66a1.82,1.82,0,0,0,.77,0c3-.93,8.63,2.43,8.32-3.38C1018.43,760.42,1013.12,762.39,1010.33,762.63Zm-44.19-.21-12.4.1c-5.36-.26-10.75-.08-16.12-.1-2.09,0-4.37-.17-4.39,2.83s2,3,4.24,3l28.78.47C969.88,766,970.57,764.46,966.14,762.42Zm0,0-12.4.1c-5.36-.26-10.75-.08-16.12-.1-2.09,0-4.37-.17-4.39,2.83s2,3,4.24,3l28.78.47C969.88,766,970.57,764.46,966.14,762.42Zm44.19.21s-20.94-.18-23.92-.63-3,2.93-3,4.74,26.14,1.66,26.14,1.66a1.82,1.82,0,0,0,.77,0c3-.93,8.63,2.43,8.32-3.38C1018.43,760.42,1013.12,762.39,1010.33,762.63Zm0,0s-20.94-.18-23.92-.63-3,2.93-3,4.74,26.14,1.66,26.14,1.66a1.82,1.82,0,0,0,.77,0c3-.93,8.63,2.43,8.32-3.38C1018.43,760.42,1013.12,762.39,1010.33,762.63Zm-44.19-.21-12.4.1c-5.36-.26-10.75-.08-16.12-.1-2.09,0-4.37-.17-4.39,2.83s2,3,4.24,3l28.78.47C969.88,766,970.57,764.46,966.14,762.42Zm44.19.21s-20.94-.18-23.92-.63-3,2.93-3,4.74,26.14,1.66,26.14,1.66a1.82,1.82,0,0,0,.77,0c3-.93,8.63,2.43,8.32-3.38C1018.43,760.42,1013.12,762.39,1010.33,762.63Zm0,0s-20.94-.18-23.92-.63-3,2.93-3,4.74,26.14,1.66,26.14,1.66a1.82,1.82,0,0,0,.77,0c3-.93,8.63,2.43,8.32-3.38C1018.43,760.42,1013.12,762.39,1010.33,762.63Zm-44.19-.21-12.4.1c-5.36-.26-10.75-.08-16.12-.1-2.09,0-4.37-.17-4.39,2.83s2,3,4.24,3l28.78.47C969.88,766,970.57,764.46,966.14,762.42Zm0,0-12.4.1c-5.36-.26-10.75-.08-16.12-.1-2.09,0-4.37-.17-4.39,2.83s2,3,4.24,3l28.78.47C969.88,766,970.57,764.46,966.14,762.42Z"/><path class="cls-1" d="M1700.64,439.92c0-4.62-1.7-7.06-5.64-8.78a212.86,212.86,0,0,1-29.27-15.07c-4.13-2.64-6.57-3.21-8.41,2.17-.71,2.09-2.62,4.28-5.37,2.76-2.41-1.33-1.44-3.69-.4-5.4,2.75-4.55,1.26-6.85-3.51-8.32a26.48,26.48,0,0,1-7.45-3.88c-4.56-3.33-7.69-3-9.77,2.67-.81,2.18-2.48,4.44-5.23,3s-1.6-4-.32-5.91c2.38-3.62,2.72-6.09-2.06-8.32-25.89-12.09-51.65-24.45-77.45-36.72-2.75-1.93-3.35-.85-2.73,1.94l-.29,433.58c-.2,6.27,1.89,6,6.55,4,20.74-9.11,41.3-18.74,62.49-26.69,16.17-6.06,27.29-17.18,37.18-30.34,2.17-2.15,4.49-4.17,6.48-6.47,3.42-4,8.25-6.93,8.14-13.24-.23-13.26-.17-26.53-.23-39.79.34-25,.78-50-.26-75.06.17-8.17.69-16.36.41-24.52-.22-6.34,1.89-11.13,6.07-15.85,9.33-10.52,18.13-21.52,27.15-32.33a15.47,15.47,0,0,0,4-10.44C1700.57,495.22,1700.46,467.57,1700.64,439.92ZM1602.38,449c4.45-8.86,9-17.66,13.66-26.43a2.6,2.6,0,0,1,3.33-1.08c1.14.38,1.37,1.36,1.37,2.93-.87,2.16-1.8,4.81-3,7.34q-4.55,9.66-9.34,19.22c-.92,1.81-2.25,3.65-4.8,2.57C1601.4,452.6,1601.58,450.59,1602.38,449Zm20.84,34.56c-4,7.43-6.58,17-16.47,14.66-15.68,0-22.84-12-16.43-24.62,1.73-3.4,3.06-10.15,6.89-8.56,4.49,1.86.07,7.09-1.36,10.36-1.62,3.7-1.26,5.64,2.43,7.07,1.42.54,2.76,1.31,4.12,2,9.64,4.87,9.63,4.87,15.34-4.07,1.5-2.35,3.14-5.64,6.32-3.54C1626.8,478.65,1624.28,481.6,1623.22,483.55ZM1633.39,463c-.52.79-2.31,1.23-3.38,1.05-1.59-.26-1.57-1.94-1.07-3.06,4.54-10.28,9.12-20.55,17.38-28.85C1645.27,443.86,1639.61,453.58,1633.39,463Zm31.08,95.54c-2.27,3.2-6,1.15-8.82-.81-12.77-8.82-16.53-28.18-8-41,1.32-2,2.91-3.57,5.46-4,2.13.35,2,2.08,1.63,3.49-.66,2.17-1.78,4.21-2.66,6.33-5.38,13-3,21.33,8.19,30C1662.3,554.18,1666.8,555.29,1664.47,558.57Zm32.55-38c-2.42,2.38-4-.58-5.49-2a29.51,29.51,0,0,0-18.27-8.41c-2.46-.25-6.66-.05-6.06-4,.52-3.35,4.3-1.15,6.44-1.88,8.8.52,16.5,3.3,22.26,10.13C1697.32,516.12,1699,518.68,1697,520.61Z"/><path class="cls-1" d="M412.06,359.43c-23.2,11.28-46.49,22.33-69.77,33.43-5.21,2.49-11,4.49-5.33,11.93,1,1.29,1.36,3.57-1.12,4.42a2.65,2.65,0,0,1-3.51-2.08c-2.2-8.47-6.79-6.47-12-3.05a36.72,36.72,0,0,1-6.9,3.29c-4.22,1.63-6.6,3.67-3.54,8.48.92,1.45,2,4.22-.74,5.22-2,.74-3.28-1.35-3.8-3-1.78-5.61-4.85-4.36-8.74-2.25Q281.44,424,266,431.73c-3.36,1.67-5,3.56-4.89,7.6.3,9.46.28,18.95-.1,28.41-.2,5.13,1,7.59,6.7,7.15s11.26-.12,16.89-.1c2.08,0,5.25-1.64,5.46,2,.22,3.86-3.3,3.16-5.69,3.21-6.15.12-12.29,0-18.44.06-2,0-4.46-.29-4.48,2.71-.08,12,0,24.07,0,36.9C277.07,504,288,500.44,301.26,506.21c11.18,4.84,18.66,16.52,17.57,28.89-1.46,16.52-11.94,25-29.72,28.83,8.65,4.91,8.86,12.2,10.08,19.22.81,4.71-.74,9.14-.75,13.73q-.12,61.46-.34,122.9c0,3.14.38,6.13,2.67,8.55q14.52,15.31,29,30.64c2,3.21,5.21,4.8,8.41,6.31,4.59,2.18,9.28,4.15,14,6.16,18.47,7.95,36.94,15.92,55.47,23.77,2.13.9,10.54,5.1,10.77.67l.29-432.07C418.06,357.4,417.07,357,412.06,359.43Zm-69.3,62c3.06-.09,4.05,1.54,4.83,3.1,3.75,7.53,7.47,15.08,11,22.71.92,2,2,4.93-.45,6.21-2.93,1.55-4.69-1.1-5.82-3.44-3.63-7.57-7.15-15.21-10.65-22.84C340.54,424.69,339.85,422.24,342.76,421.41Zm-27.44,11.26c3.15-1.94,4.51,1.05,5.62,3.27q5.76,11.55,11.29,23.22c.93,1.95,1.8,4.17-.8,5.27a6.8,6.8,0,0,1-4.4-3.74c-4-7.06-8.06-14.07-11.87-21.22C314,437.36,312.46,434.43,315.32,432.67ZM341.38,581c-1.42,3.18-2,7.25-6.08,8.18-7.57,1.71-15.23.75-22.85.07a2.35,2.35,0,0,1-2.31-2.5c-.1-2.17,1.4-2.52,3-2.56,3.06-.09,6.12,0,9.18,0,5.28-.39,11.51,2,13.89-5.78.43-1.4,2.4-2,4-1.27A2.76,2.76,0,0,1,341.38,581Zm17.41-34.23q-4.53,8-9.24,15.9c-.66,1.11-1.73,2-3.17,1.63-1.71-.49-1.42-2.1-1.05-3.14a154.84,154.84,0,0,1,12.75-26.92c.77-1.31,2.19-2.33,3.88-1.59s1.82,2.31,2,4.44C362.39,540.08,360.66,543.47,358.79,546.78ZM357.65,498c-3.48.43-3.87,1.54-2.74,4.2,1.7,4,3.66,7.85,5.2,11.89.74,1.93,2.24,4.58-1.18,5.69-2.77.9-4.06-.83-5.1-3.21-4.69-10.72-9.88-21.25-14.12-32.14-1.45-3.74-3.22-4.55-6.62-4.52-8.94.08-17.88,0-26.82,0-2.11,0-4.42,0-4.33-2.93.08-2.71,2.5-2.12,4.09-2.16,4.85-.14,9.7-.05,14.56,0,3.57,0,7.17.23,10.72-.05,6.7-.51,11.37,2,13.84,8.36,2.22,5.7,5.82,6.3,10.7,3.14a20.37,20.37,0,0,1,5.56-2.52c5.22-1.44,6.22-3.93,3.56-8.86-1.61-3-4.93-8.11-.41-9.93s5.31,4.35,6.75,7.47C377.4,485.63,371.75,496.29,357.65,498Z"/><path class="cls-2" d="M1389.07,313.18c-.37,2.53-2.32,2.44-4.11,2q-13.7-3.37-27.34-6.93c-1.93-.5-4.49-1-3.74-3.77.64-2.34,2.91-2.53,6.59-1.86,7.42,1.87,16.31,4.13,25.22,6.34C1388,309.52,1389.45,310.66,1389.07,313.18Z"/><path class="cls-2" d="M1342.38,301.65c-.6,2.45-2.75,2-4.39,1.63-9.14-2-18.25-4.2-27.37-6.34-2.19-.51-3.77-1.8-3.79-4.15,0-3,2.57-1.49,3.93-2.34,9.7,2.4,19.31,4.71,28.86,7.22C1341.31,298.12,1342.92,299.48,1342.38,301.65Z"/><path class="cls-2" d="M1148.48,265c-.36,1.79-2.18,1.89-3.74,1.8q-14.45-.82-28.9-1.7c-1.55-.1-3.18-.3-3.33-2.3-.17-2.26,1.37-3.27,3.3-3.34,4-.15,8.11,0,12.17,0,5.83.73,11.69.65,17.42,2.1C1147.31,262,1148.92,262.86,1148.48,265Z"/><path class="cls-2" d="M1099.71,261c0,2.46-2.07,2.55-3.88,2.58-3.3.06-6.61,0-9.55,0l-18.61-1.54c-1.8-.14-3.91-.12-3.85-2.6.06-2.24,1.86-2.78,3.82-2.79a201.26,201.26,0,0,1,28.92,1.68C1098.15,258.59,1099.74,259.15,1099.71,261Z"/><path class="cls-2" d="M1246.25,280.3c-.33,2.15-2.21,2.72-4.11,2.55-10.45-.93-20.5-3.94-30.69-6.16a2.29,2.29,0,0,1-1.71-3c1-2.46,3.17-2.11,5.25-1.82l27.86,5.18C1244.7,277.43,1246.61,277.93,1246.25,280.3Z"/><path class="cls-2" d="M1197.91,271.07c-.1,2.68-2.41,3.16-4.49,2.86-9.79-1.44-19.56-3-29.34-4.58-1.63-.26-3.06-1-3-2.81.13-2.22,2.13-1.77,3.53-1.91s3,0,6.11,0c6.8,1,15.11,2.15,23.4,3.43C1195.89,268.29,1198,268.86,1197.91,271.07Z"/><path class="cls-2" d="M1067.55,765.76c-.08,2-1.43,2.51-3.07,2.58-3.54.14-7.08.23-10.62.35-6.32-.14-12.64-.27-18.95-.43-1.75,0-3.86.11-4-2.35-.17-2.65,1.68-3.32,4-3.37,6.32-.15,12.63-.36,19-.54,3.55.15,7.09.34,10.64.41C1066.74,762.46,1067.65,763.6,1067.55,765.76Z"/><path class="cls-2" d="M1293.23,290.85c-.71,2.69-3.43,1.81-5.21,1.5-8.51-1.47-17-3.08-25.42-4.9-2-.44-5-1.08-4.16-4.3.8-2.9,3.56-.71,5-1.72,8.77,1.68,17.26,3.23,25.72,5C1291.42,286.87,1294,287.86,1293.23,290.85Z"/><path class="cls-2" d="M1483.4,343.11c-.42,1.55-2,1.76-3.15,1.49-11.1-2.53-21.91-5.81-33.42-13,7.36-2.6,11.69.24,16.06,1.63,6.29,2,12.4,4.6,18.53,7.07C1482.5,340.72,1483.83,341.55,1483.4,343.11Z"/><path class="cls-2" d="M1436.3,327c-.61,1.79-2.5,1.71-3.91,1.31-9.25-2.67-18.48-5.44-27.69-8.24-1.76-.54-3.63-1.62-2.74-3.75.68-1.63,2.69-.7,4.52-.84,8.9,2.69,18.15,5.44,27.35,8.32C1435.18,324.2,1437,325,1436.3,327Z"/><path class="cls-2" d="M604.82,308q-11.46,3-22.94,5.86c-2.22.56-4.46,1-6.7,1.51-1.24,0-2.71.27-3.37-1.1a2.77,2.77,0,0,1,1.5-3.86c10.17-4.21,20.92-6.26,31.73-8a2.44,2.44,0,0,1,2.89,1.95C608.28,306.71,606.67,307.57,604.82,308Z"/><path class="cls-2" d="M848.21,262.49c-.05,3.26-2.54,2.46-4.42,2.62-6.32.52-12.64,1-19.13,1.52-3.79-1.18-11,2.39-11.24-2-.36-5.73,7.14-3.43,11.11-4.17,6.19-1.15,12.63-1,19-1.32C845.88,259,848.27,259.09,848.21,262.49Z"/><path class="cls-2" d="M651.84,296.27c-9.05,3.5-18.69,4.72-28.07,7-1.59.38-3.94.95-4.47-1.45-.45-2.05,1.42-3.26,3.12-3.75,9.27-2.65,18.58-5.16,26.5-7.34,3.42.23,6-.64,6.47,2.22C655.77,295.25,653.4,295.67,651.84,296.27Z"/><path class="cls-2" d="M896,262a227.28,227.28,0,0,1-29.63,1.53c-1.52,0-3.16,0-3.19-2.21,0-1.87,1-2.69,2.77-2.87,6.06-.61,12.11-1.26,16.18-1.69,5.82,0,9.62,0,13.43,0,1.64,0,3,.6,3.25,2.48S897.63,261.8,896,262Z"/><path class="cls-2" d="M800.35,266.33a2.68,2.68,0,0,1-2.27,2.7,217.94,217.94,0,0,1-30.9,4.92c-1.86.16-3.75-.13-3.64-2.69.1-2.26,1.92-2.93,3.68-3.21,8.55-1.33,17.12-2.54,23.71-3.51,3.53,0,5.07-.08,6.59,0C798.73,264.64,800.25,264.57,800.35,266.33Z"/><path class="cls-2" d="M752.35,274.07c.1,1.83-1.45,2.54-3,2.87-9.67,2-19.35,4.05-29.05,6-1.74.35-3.77.27-4.44-1.91s.47-3.41,2.56-3.81c10-1.9,20-3.76,30.11-5.67C749.93,272,752.21,271.64,752.35,274.07Z"/><path class="cls-2" d="M703.22,283.87c.24,2.46-1.62,3.55-3.85,3.93l-27.46,4.61c-1.18-.37-3.5,1.19-4.09-1.52-.49-2.2.87-3.29,2.83-3.77,9.16-2.24,18.31-4.61,27.74-5.4C700.18,281.57,702.93,280.8,703.22,283.87Z"/><path class="cls-2" d="M512.82,332.2c-.12,1.65-1.41,2.52-2.87,3-8.82,3.16-17.65,6.31-26.52,9.3-1.29.44-3.29.9-4-.8s.67-3,2-3.66a126.55,126.55,0,0,1,28.77-9.85C511.54,330,512.72,330.3,512.82,332.2Z"/><path class="cls-2" d="M559.7,317.18c-.1,2.54-2,3-3.67,3.45-9,2.64-18,5.21-27,7.78-1.41.4-3.06,1.24-3.82-.83a2.36,2.36,0,0,1,1.5-3.09,210.42,210.42,0,0,1,30.48-9.17A1.9,1.9,0,0,1,559.7,317.18Z"/><path class="cls-2" d="M871.1,765.34c0,2.45-1.45,2.92-3.46,2.91-4.83,0-9.65,0-14.48,0v0c-5.08,0-10.16,0-15.24,0-1.61,0-3.26-.59-3.37-2.34-.14-2,1.19-3.27,3.32-3.27q15.24-.08,30.48-.08C870.22,762.51,871.06,763.5,871.1,765.34Z"/><path class="cls-2" d="M821.58,766.2c.22,3-19.42,25.09-23.11,25.48a5.29,5.29,0,0,1-1.93-1.16,2.73,2.73,0,0,1,.36-3.52c6.56-7.79,13.17-15.56,21-22.1C819.51,763.6,821.36,763.24,821.58,766.2Z"/><path class="cls-2" d="M920,765.42c0,2.58-1.69,2.82-3.59,2.83-4.86,0-9.72,0-14.58,0s-9.72,0-14.59,0c-1.73,0-3.9.27-4-2.33s1.83-3.36,4.11-3.38l29.17-.17C918.65,762.37,920,763.06,920,765.42Z"/><path class="cls-2" d="M354.91,502.22c1.7,4,3.66,7.85,5.2,11.89.74,1.93,2.24,4.58-1.18,5.69-2.77.9-4.06-.83-5.1-3.21-4.69-10.72-9.88-21.25-14.12-32.14-1.45-3.74-3.22-4.55-6.62-4.52-8.94.08-17.88,0-26.82,0-2.11,0-4.42,0-4.33-2.93.08-2.71,2.5-2.12,4.09-2.16,4.85-.14,9.7-.05,14.56,0,3.57,0,7.17.23,10.72-.05,6.7-.51,11.37,2,13.84,8.36,2.22,5.7,5.82,6.3,10.7,3.14a20.37,20.37,0,0,1,5.56-2.52c5.22-1.44,6.22-3.93,3.56-8.86-1.61-3-4.93-8.11-.41-9.93s5.31,4.35,6.75,7.47c6.09,13.23.44,23.89-13.66,25.62C354.17,498.45,353.78,499.56,354.91,502.22Z"/><path class="cls-2" d="M341.38,581c-1.42,3.18-2,7.25-6.08,8.18-7.57,1.71-15.23.75-22.85.07a2.35,2.35,0,0,1-2.31-2.5c-.1-2.17,1.4-2.52,3-2.56,3.06-.09,6.12,0,9.18,0,5.28-.39,11.51,2,13.89-5.78.43-1.4,2.4-2,4-1.27A2.76,2.76,0,0,1,341.38,581Z"/><path class="cls-2" d="M358.14,453.43c-2.93,1.55-4.69-1.1-5.82-3.44-3.63-7.57-7.15-15.21-10.65-22.84-1.13-2.46-1.82-4.91,1.09-5.74,3.06-.09,4.05,1.54,4.83,3.1,3.75,7.53,7.47,15.08,11,22.71C359.51,449.22,360.56,452.15,358.14,453.43Z"/><path class="cls-2" d="M364,537.1c-1.6,3-3.33,6.37-5.2,9.68q-4.53,8-9.24,15.9c-.66,1.11-1.73,2-3.17,1.63-1.71-.49-1.42-2.1-1.05-3.14a154.84,154.84,0,0,1,12.75-26.92c.77-1.31,2.19-2.33,3.88-1.59S363.78,535,364,537.1Z"/><path class="cls-2" d="M331.43,464.43a6.8,6.8,0,0,1-4.4-3.74c-4-7.06-8.06-14.07-11.87-21.22-1.13-2.11-2.7-5,.16-6.8,3.15-1.94,4.51,1.05,5.62,3.27q5.76,11.55,11.29,23.22C333.16,461.11,334,463.33,331.43,464.43Z"/><path class="cls-2" d="M1116.74,765.21c-.12,2.34-1.63,3-3.59,3-5.08,0-10.15,0-15.23,0a.08.08,0,0,1,0,0h-13.71c-2,0-3.55-.66-3.55-2.95s1.67-2.79,3.65-2.78h28.92C1115.14,762.42,1116.87,762.62,1116.74,765.21Z"/><path class="cls-2" d="M1157.74,783.81c-1.35.71-2.5-.08-3.38-1-2.94-3.2-5.89-6.4-8.69-9.72-2.6-3.07-5.54-5.18-9.77-5.23-2.15,0-5.86,2-5.81-2.1.05-3.8,3.8-3.3,6.58-3.37,6.29,0,21,12,22,18.09C1158.91,781.67,1159.14,783.09,1157.74,783.81Z"/><path class="cls-2" d="M1623.22,483.55c-4,7.43-6.58,17-16.47,14.66-15.68,0-22.84-12-16.43-24.62,1.73-3.4,3.06-10.15,6.89-8.56,4.49,1.86.07,7.09-1.36,10.36-1.62,3.7-1.26,5.64,2.43,7.07,1.42.54,2.76,1.31,4.12,2,9.64,4.87,9.63,4.87,15.34-4.07,1.5-2.35,3.14-5.64,6.32-3.54C1626.8,478.65,1624.28,481.6,1623.22,483.55Z"/><path class="cls-2" d="M1664.47,558.57c-2.27,3.2-6,1.15-8.82-.81-12.77-8.82-16.53-28.18-8-41,1.32-2,2.91-3.57,5.46-4,2.13.35,2,2.08,1.63,3.49-.66,2.17-1.78,4.21-2.66,6.33-5.38,13-3,21.33,8.19,30C1662.3,554.18,1666.8,555.29,1664.47,558.57Z"/><path class="cls-2" d="M1620.74,424.41c-.87,2.16-1.8,4.81-3,7.34q-4.55,9.66-9.34,19.22c-.92,1.81-2.25,3.65-4.8,2.57-2.21-.94-2-3-1.23-4.55,4.45-8.86,9-17.66,13.66-26.43a2.6,2.6,0,0,1,3.33-1.08C1620.51,421.86,1620.74,422.84,1620.74,424.41Z"/><path class="cls-2" d="M1646.32,432.17c-1,11.69-6.71,21.41-12.93,30.86-.52.79-2.31,1.23-3.38,1.05-1.59-.26-1.57-1.94-1.07-3.06C1633.48,450.74,1638.06,440.47,1646.32,432.17Z"/><path class="cls-2" d="M1697,520.61c-2.42,2.38-4-.58-5.49-2a29.51,29.51,0,0,0-18.27-8.41c-2.46-.25-6.66-.05-6.06-4,.52-3.35,4.3-1.15,6.44-1.88,8.8.52,16.5,3.3,22.26,10.13C1697.32,516.12,1699,518.68,1697,520.61Z"/><path class="cls-2" d="M231.77,529c0,9.94.11,19.88-.06,29.82-.05,2.4,1.44,6.55-3.06,6.29-3.89-.23-3.09-4.07-3.09-6.72q0-29.05.13-58.11c0-2.57-1.12-6.69,2.86-6.71,4.58,0,3.09,4.42,3.14,7.13C231.86,510.12,231.76,519.55,231.77,529Z"/><path class="cls-2" d="M1221.47,824.05c-4.57,0-9.14,0-13.71,0-2,0-3.59-.24-3.63-2.69s1.66-3,3.54-3c9.64.08,19.28.26,28.92.42,1.73,0,3,.83,3.07,2.64.13,2.71-2.05,2.46-3.73,2.49-4.82.08-9.64,0-14.46,0Z"/><rect class="cls-1" x="1919" y="1079" width="1" height="1"/><rect class="cls-1" width="1" height="1"/><rect class="cls-1" y="1079" width="1" height="1"/><rect class="cls-1" x="1919" width="1" height="1"/></g><g id="Capa_3" data-name="Capa 3"><path class="cls-3" d="M850.8,603,845,623.52l-2.81,10-7.31,25.71H824.44l7.31-25.71,2.82-10L840.35,603Z"/><path class="cls-3" d="M915.08,601.82v56.25H905V622.23l-9.89,7.55L887,636.13l-8.2-6.35-9.88-7.55v35.84h-10V601.82l10,7.71L887,623.44,905,609.53Z"/><path class="cls-3" d="M942.4,620.54v38.25h-10V619.5a8,8,0,0,0-6.83-6.83h-2.25v-10h2.17v.09a18.05,18.05,0,0,1,6.83,1.84,17.8,17.8,0,0,1,8.11,8.2,20.33,20.33,0,0,1,1.37,3.78,16.86,16.86,0,0,1,.48,4.09Z"/><path class="cls-3" d="M969.56,620.54v38.25h-10V619.5a8,8,0,0,0-6.83-6.83h-2.25v-10h2.17v.09a18.05,18.05,0,0,1,6.83,1.84,17.8,17.8,0,0,1,8.11,8.2,20.33,20.33,0,0,1,1.37,3.78,16.86,16.86,0,0,1,.48,4.09Z"/><path class="cls-3" d="M1013,601.82A18.14,18.14,0,0,1,1031.11,620v19.85A18.14,18.14,0,0,1,1013,658H995.6a18.14,18.14,0,0,1-18.16-18.16V620a18.14,18.14,0,0,1,18.16-18.16Zm-17.35,10a8.24,8.24,0,0,0-8.2,8.2v19.85a8.23,8.23,0,0,0,8.2,8.19H1013a8.23,8.23,0,0,0,8.2-8.19V620.06a8.24,8.24,0,0,0-8.2-8.2Z"/><path class="cls-3" d="M1090.9,630A16.59,16.59,0,0,1,1079,658.15H1056A16.5,16.5,0,0,1,1040.68,648a17.2,17.2,0,0,1-1.29-6.5,16.59,16.59,0,0,1,4.66-11.58,15.68,15.68,0,0,1-3.45-5.06,17.29,17.29,0,0,1-1.29-6.51,16.94,16.94,0,0,1,10-15.34,16.29,16.29,0,0,1,6.26-1.29h23.55a16.65,16.65,0,0,1,11.65,28.2Zm-12.3-4.91a6.55,6.55,0,0,0,.25-13.09h-23.71a6.55,6.55,0,0,0,.16,13.09h23.3Zm.08,23.06a6.61,6.61,0,0,0,6.59-6.58,6.54,6.54,0,0,0-6.18-6.59h-23.55a6.52,6.52,0,0,0-6.18,6.51,6.61,6.61,0,0,0,6.59,6.58H1079Z"/><path d="M824.27,442.61v111H804.44V482.89L784.93,497.8l-16.18,12.53L752.57,497.8l-19.51-14.91v70.75H713.24v-111l19.82,15.22,35.69,27.44,35.69-27.44Z"/><path d="M950.68,534.13V554H840V521.28a31.54,31.54,0,0,1,2.7-12.85,32.56,32.56,0,0,1,28.87-20h48.06a13,13,0,0,0-1.11-25.86h-78.2V442.76h78.2a32.63,32.63,0,0,1,32.67,32.68,32.28,32.28,0,0,1-9.36,22.68,32.89,32.89,0,0,1-22.36,10h-47.9A12.91,12.91,0,0,0,860,521v12.85Z"/><path d="M1069,498.28a32.75,32.75,0,0,1-23.48,55.51H1000a32.58,32.58,0,0,1-30.14-20A34.5,34.5,0,0,1,967.32,521a32.67,32.67,0,0,1,9.2-22.84,31.24,31.24,0,0,1-6.82-10,34.5,34.5,0,0,1-2.53-12.85,32.17,32.17,0,0,1,32-32.83h46.47a32.87,32.87,0,0,1,23,55.67Zm-24.27-9.68a12.94,12.94,0,0,0,.47-25.85H998.41a12.93,12.93,0,0,0,.32,25.85h46Zm.16,45.53a13.07,13.07,0,0,0,13-13,12.92,12.92,0,0,0-12.21-13H999.21A12.89,12.89,0,0,0,987,521a13.07,13.07,0,0,0,13,13h45.52Z"/><path d="M1204.76,442.61v111h-19.82V508h-58.53a31.42,31.42,0,0,1-14.91-3.65,32.41,32.41,0,0,1-17.77-29V442.61h19.83v32.67a13.07,13.07,0,0,0,13,13h58.53V442.61Z"/></g></g></svg>