<svg xmlns="http://www.w3.org/2000/svg" viewBox="0 0 1920 1080"><defs><style>.cls-1{fill:#020202;}.cls-2{fill:#f2f2f2;}</style></defs><g id="Capa_2" data-name="Capa 2"><g id="Capa_1-2" data-name="Capa 1"><path class="cls-1" d="M1398.4,570.09q0-25,0-50v-2.78q0-6.47,0-12.92,0-23.49-.07-47c0-1.44,0-2.89,0-4.33,0-6.16,0-12.32,0-18.47v-4.36c-.18-54.88-.46-107-.5-161.91,0-3.43-8.17-9.55-8.17-9.55-6.56-4.54-8.93-10.46-9-18.72,0-19.89,1.9-39.86-1.25-59.69-6.78-42.71-44.38-73.74-85.5-75.14-21.61-.74-43.27.26-64.88-.3-27.69-.71-53.5,3.84-74.92,23a8.89,8.89,0,0,1-4,3.68c-1.59,1.61-3.16,3.21-4.74,4.83a33.61,33.61,0,0,1-6.91,8.9c-1.94,3.23-3.9,6.45-5.85,9.66-4.6,11.49-10.59,22.06-20,30.36-3.08,4.43-8.14,6.16-12.32,9.11-14.64,10.33-30.84,14.93-48.7,14.89q-91.63-.19-183.26,0c-36.59.05-62.41-16.84-78.81-49.17C771.2,124,741.77,105.21,701,105.1c0,0-50.52-.23-69.06-.23s-36,6.89-36,6.89c-37,16.72-56.24,45.21-56.82,86-.19,13.3-1,26.67.12,39.89,1,11.63-4.09,18.7-14.24,25.12-3.27,2.21-2.94,3.57-2.94,3.57q-.06,110.52-.16,221c0,5.22-.2,10.43-.31,15.65q0,34.77,0,69.53c.1,24.43.3,48.85.28,73.29,0,33.68-.2,67.35-.31,101q0,35.71,0,71.39c.07,10,.57,20,.09,29.92-.36,7.08,2.17,12,7.18,16.78C545.58,880.81,562,897,578.4,913.17q27.21,26.69,54.27,53.56c9.62,9.54,11.52,8.28,21.79,5.26a591.69,591.69,0,0,1,58.1-13.51c34.74-6.49,69.51-12.9,104.73-16.58,21.18-2.21,42.38-4.16,63.6-6,23.85-2,47.73-2,71.6-2.77l17-.06c25.9.36,51.78,1,77.57,3.61l2.9.1s41.93,4.34,76.81,8.82,77.91,13.32,77.91,13.32c22.69,4,45.19,8.35,67.09,15.63a9.38,9.38,0,0,0,10.34-2.66c4.29-4.72,9-9,13.59-13.53q49.62-49,99.29-97.92a10.36,10.36,0,0,0,3.3-8.1c-.11-12.8.09-25.6.17-38.42q0-32.84,0-65.67Zm-11.54-78.45c0,3.31-.23,6.64-.35,9.95q0,35.64,0,71.31c.62,16.64.56,33.27,0,49.91q0,35.64,0,71.31c.66,17.11.59,34.23.06,51.34q0,32.79-.1,65.6c.16,12.59.21,25.17.53,37.75.08,3.5-1.51,5.74-3.8,8q-51.92,50.87-103.72,101.86c-3.3,3.26-6.12,3.67-10.66,2.49a1205.55,1205.55,0,0,0-153.71-29.09,1253.9,1253.9,0,0,0-148.47-10.22l-13.95-.14c-27.09.15-54.16,1.4-81.16,3.51C796.61,931,722.6,942.53,649.85,961.54c-3.91,1-6.18,0-8.74-2.5q-52.38-51.42-104.87-102.71a9.71,9.71,0,0,1-3.27-7.52c.23-13.53.4-27.06.6-40.59q0-30,0-59.92-.16-56.46-.3-112.92c0-21.3.19-42.6.3-63.9q0-33.53,0-67c-.13-6.89-.34-13.77-.34-20.65q-.09-102.63-.22-205.29c0-5.31,1.4-9.2,5.7-12.1,9.33-6.28,12.56-14.76,11.89-26.14-1-15.85-.4-31.82-.06-47.72.85-39.45,34.51-74.44,73.92-75.72,28.49-.94,57.12-1.57,85.54.11,31.24,1.86,54.58,18.33,68.44,46.52,18.75,38.11,48.72,57.43,91.31,57.25l183.93-.09c39.49-.56,68.52-18.77,86.18-54,16.67-33.17,42.76-50.31,80-50.21,23.07.07,46.12-.13,69.17,0,45.67.29,80,34.48,80.53,80.15.18,15.92.42,31.85-.06,47.75-.26,8.13,2,14.55,8.62,19.08,7.22,4.94,8.92,11.49,8.89,20.05C1386.71,352.88,1386.87,422.26,1386.86,491.64Z"/><path class="cls-1" d="M1366.72,504.43c-.17-16.61-.25-33.24-.52-49.86-.75-44.71-29.31-80-72.93-89.84-58.49-13.25-118-19.24-177.6-24.2q-73.93-6.13-148.08-6.55l-15.82-.13c-21.86.29-43.72,1.06-65.55,1.7-43.49,1.31-86.78,5.3-130.06,9.29-43.75,4-87.22,10.15-130,20.07-41.32,9.56-68,40.35-71.55,82.57-1.51,17.94-.87,36.07-1.21,54.11q0,35.64.07,71.31c.1,28.4.3,56.8.29,85.21,0,29.11-.2,58.23-.32,87.33q0,34.24-.07,68.47c.81,22.35,10.11,40.44,26.68,55.38,16.23,14.63,32.47,29.35,47.51,45.16s33,20.3,53.18,16.84c37.6-6.45,74.91-14.37,112.77-19.41a1419.49,1419.49,0,0,1,147.59-12.1c46.13-1.29,92.1,2,138,6.61a1359.64,1359.64,0,0,1,152.32,24c23.69,5.12,45.3,1.6,63-17.94,13.84-15.26,29.49-29,44.9-42.71,16.83-15,26.59-33.09,27.35-55.79V748.3c-.57-18.06-.64-36.13,0-54.18V625.66q-.93-27.81,0-55.6Q1366.71,537.24,1366.72,504.43Zm-23,352c-21,20.71-42.46,40.87-64,61-11.88,11.09-26.89,10.28-41.18,8-25-4-49.77-9.83-74.83-13.87a1403,1403,0,0,0-155.07-16.34c-13.77-.66-27.56-1.2-41.33-1.26l-14.62,0A1341.52,1341.52,0,0,0,699,922.3c-11.66,2.44-23.24,4.57-35.23,4-8.85-.41-16.9-2.81-23.41-8.93-21.26-20-42.69-39.92-63.51-60.41-11.82-11.63-17.69-26.19-16.54-43.12-1.12-21.83-1-43.67,0-65.51-.17-10.65-.48-21.29-.5-31.94q-.06-69.67,0-139.33c0-1.89.26-3.77.39-5.64-1-22.8-.9-45.58.08-68.37-.65-21.12-2.32-42.41.83-63.32,5.47-36.31,34.1-63,72.31-70.8,52.85-10.82,106.25-17.13,160-21.67,52.58-4.45,105.2-7.45,158-7.22l15.71.1c45.66-.46,91.21,1.7,136.71,5.25,32.19,2.5,64.34,5.32,96.37,9.31,31.77,3.94,63.47,8.66,94.53,16.38,37.61,9.36,62.92,40,65.2,78.6,1,17.73,0,35.59-.14,53.4,1,22.75.84,45.53.1,68.29.8,17.65.48,35.29,0,52.94.91,23.24.83,46.46,0,69.7.78,18.13.56,36.24-.06,54.35.83,22.79,1.13,45.57-.16,68.35C1360.28,832.34,1354.54,845.78,1343.72,856.47Z"/><path class="cls-2" d="M1359.69,816.72c.59,15.62-5.15,29.06-16,39.75-21,20.71-42.46,40.87-64,61-11.88,11.09-26.89,10.28-41.18,8-25-4-49.77-9.83-74.83-13.87a1403,1403,0,0,0-155.07-16.34c-13.77-.66-27.56-1.2-41.33-1.26l-14.62,0A1341.52,1341.52,0,0,0,699,922.3c-11.66,2.44-23.24,4.57-35.23,4-8.85-.41-16.9-2.81-23.41-8.93-21.26-20-42.69-39.92-63.51-60.41-11.82-11.63-17.69-26.19-16.54-43.12-1.12-21.83-1-43.67,0-65.51-.17-10.65-.48-21.29-.5-31.94q-.06-69.67,0-139.33c0-1.89.26-3.77.39-5.64-1-22.8-.9-45.58.08-68.37-.65-21.12-2.32-42.41.83-63.32,5.47-36.31,34.1-63,72.31-70.8,52.85-10.82,106.25-17.13,160-21.67,52.58-4.45,105.2-7.45,158-7.22l15.71.1c45.66-.46,91.21,1.7,136.71,5.25,32.19,2.5,64.34,5.32,96.37,9.31,31.77,3.94,63.47,8.66,94.53,16.38,37.61,9.36,62.92,40,65.2,78.6,1,17.73,0,35.59-.14,53.4,1,22.75.84,45.53.1,68.29.8,17.65.48,35.29,0,52.94.91,23.24.83,46.46,0,69.7.78,18.13.56,36.24-.06,54.35C1360.68,771.16,1361,793.94,1359.69,816.72Z"/><path class="cls-1" d="M1277.17,266.42c-10.22,0-20.45-.22-30.66.1-5.24.16-9-1.8-12.45-5.46-20.76-21.85-21.11-64.23-.69-86.38a18.39,18.39,0,0,1,14.42-6.38q29.94.18,59.88-.09c6.17-.07,10.3,3.12,14,7.23,19.68,21.63,18.6,64.88-2,85.89-3.35,3.42-6.93,5.24-11.9,5.09-10.21-.3-20.44-.09-30.65-.09Zm-.46-5.69c10,0,20-.15,29.94.07a11.47,11.47,0,0,0,9.29-4c17.74-18.56,18.77-56.85,2-76.4-3.46-4-7.29-6.16-12.84-6.1-18.53.18-37.07.15-55.59-.27-5.58-.13-9.4,1.81-13,5.76C1219,199,1220.63,241,1239.6,258.43c2.17,2,4.52,2.31,7.17,2.3Z"/><path class="cls-1" d="M642.52,266.38c-10.46,0-20.92-.05-31.37,0a12.39,12.39,0,0,1-8.55-2.71c-23.62-19.49-24.49-70.64-1.56-90.9a16.48,16.48,0,0,1,11.56-4.55c19.72.11,39.45.18,59.17,0a19,19,0,0,1,15,6.61c20.92,22.57,19.83,65.76-2.19,87.28a13.83,13.83,0,0,1-10.73,4.33C663.43,266.21,653,266.37,642.52,266.38Zm0-5.67v.07c10,0,20-.15,29.95.08a11.71,11.71,0,0,0,9.88-4.36c16.27-18.51,18.15-53.29,3.89-73.25-4.41-6.19-9.66-9.6-17.85-9.34-17.58.56-35.19.51-52.77.06-5.94-.16-9.81,1.88-13.41,6.17-16.51,19.73-16.06,55.23.89,75.43,3.2,3.81,6.62,5.44,11.61,5.24C623.92,260.46,633.21,260.71,642.48,260.71Z"/><rect class="cls-2" x="1919" y="1079" width="1" height="1"/><rect class="cls-2" width="1" height="1"/><rect class="cls-2" y="1079" width="1" height="1"/><rect class="cls-2" x="1919" width="1" height="1"/></g><g id="Capa_3" data-name="Capa 3"><path d="M860.67,553.59v111H840.84V593.88l-19.51,14.91-16.18,12.53L789,608.79l-19.5-14.91v70.74H749.64v-111l19.83,15.23,35.68,27.44,35.69-27.44Z"/><path d="M987.08,645.11v19.83H876.36V632.26a31.65,31.65,0,0,1,2.7-12.84,32.59,32.59,0,0,1,28.87-20H956a13,13,0,0,0-1.11-25.85h-78.2V553.75h78.2a32.62,32.62,0,0,1,32.67,32.67,32.38,32.38,0,0,1-9.35,22.69,32.94,32.94,0,0,1-22.37,10h-47.9A12.91,12.91,0,0,0,896.35,632v12.84Z"/><path d="M1111.9,573.58a34.26,34.26,0,0,1,2.54,12.84V632A32.67,32.67,0,0,1,1104,656.06a34.29,34.29,0,0,1-7.29,5.23,31.45,31.45,0,0,1-14.91,3.65h-69V645.11h69a13.06,13.06,0,0,0,13-13V616.56a32.44,32.44,0,0,1-12.37,2.54h-46.79a32.76,32.76,0,0,1,.47-65.51h45.53a32.56,32.56,0,0,1,30.13,20Zm-88.66,12.84a13.06,13.06,0,0,0,12.37,13h46.79a13,13,0,0,0-.63-26h-45.53A13.06,13.06,0,0,0,1023.24,586.42Z"/><path d="M1168.36,590.55v75.5h-19.82V588.49A15.85,15.85,0,0,0,1135.05,575h-4.44V555.34h4.28v.16a35.35,35.35,0,0,1,29.51,19.82,41.54,41.54,0,0,1,2.69,7.46,32.92,32.92,0,0,1,1,8.09Z"/></g></g></svg>