<svg xmlns="http://www.w3.org/2000/svg" viewBox="0 0 1920 1080"><defs><style>.cls-1{fill:#f2f2f2;}.cls-2{fill:#010101;}</style></defs><g id="Capa_2" data-name="Capa 2"><g id="Capa_1-2" data-name="Capa 1"><rect class="cls-1" x="1919" y="1079" width="1" height="1"/><rect class="cls-1" width="1" height="1"/><rect class="cls-1" y="1079" width="1" height="1"/><rect class="cls-1" x="1919" width="1" height="1"/><path class="cls-2" d="M1756.25,513.73c-5.32-4.68-11.72-5.22-18.3-5.24-22.91,0-45.82.17-68.71,0-17.92-.15-23-5.3-23.21-23.43-.2-17.95-.57-35.92.11-53.86.89-22.58-9.72-37-29.09-47.21-32.91-17.27-66.46-33.17-100.17-48.74-7.86-3.62-16-6.65-24.84-4.78a24.29,24.29,0,0,1-13.69-1.26q-42.9-15.29-85.85-30.4c-4.92-1.75-9.61-3.81-13.41-7.67-6.53-6.63-14.56-10.55-23.52-13.14-96.13-27.8-194-46.29-293.83-53.63-16-1.19-32.26-3.91-47.35,4.7-3.27,1.86-4.91.41-4.52-3.19.57-5-2.42-5.34-6.25-5.29h-88c-3.45,0-6.31.09-5.81,4.79.57,5.5-2.77,4.5-5.82,3.13-6.94-3.13-14-5.17-21.76-5.17-33.95,0-115.72,11-115.72,11-43,6-85.54,14.41-127.84,24.12-25.56,5.88-50.86,12.79-76.06,20.07-4.79,1.37-9.93,2.47-13.44,5.94-12.94,12.79-29.91,17.25-46.23,23.06-20.54,7.31-41.14,14.5-61.7,21.78-4.22,1.5-8.32,2.24-12.93,1.22-8.78-1.92-17,.8-24.89,4.44-34,15.66-67.79,31.66-100.95,49.05-19.75,10.36-29.84,25.38-28.95,48.16.72,18.44,0,36.94-.24,55.41-.21,15.1-5.82,20.71-20.84,20.82-21.86.15-43.74,0-65.6.12-8.52.06-16.13,1.13-24.44,5.75-7.59,4.24-8,21-8,21-.07,31.65.22,63.29-.14,94.92-.2,19.17,7.44,33.42,24.05,42.92a56.62,56.62,0,0,0,22,3.85c27.76-.13,55.53,0,83.31,0,17.94,0,20.55,2.69,20.29,20.89,0,1.28-.17,2.58-.27,3.86.1,8.83.42,17.66.19,26.49A26.77,26.77,0,0,0,308.64,745q32.64,46.53,65,93.2c1.39,2,2.83,3.67,5.2,4.36,25.13-.08,50.27.14,75.4-.44,7.8-.17,5.2,5,6.19,8.64,2.3,1.6,5,1.36,7.53,1.36,22.57,0,45.15-.12,67.73-.12,4.79,0,8.45-.57,9.2-6.75.61-5.18,5.39-3.36,8.12-2.49,5.25,1.67,9.08,5.55,13.71,11.64,4.69,3.83,22.8,3.72,22.8,3.72a61.85,61.85,0,0,0,27.06-5.78,752.19,752.19,0,0,1,139.9-47.1c37.09-9.12,74.53-16.22,112.58-19.81,9.14-1.89,19.08-.63,27.51-4.58,11.49-5.41,22.27-5.55,34.63-5.63l77.63,1.52c9.54.36,17.82,6.11,27.69,7,58.54,6.41,114.42,18.66,114.42,18.66,54.1,12,106.18,29.84,157.06,51.85,17.47,7.54,36.56,8.47,52-7.43a14.92,14.92,0,0,1,6.5-4.06c3.94-1,8.77-2.23,8.41,4.83-.21,3.62,2.06,4.19,5,4.19q37.07-.11,74.13-.11c2.86,0,5.63-.55,5.28-4.07-.56-5.84,3.1-5.25,6.86-5.25,23.41.07,46.82,0,70.24.07,4.13,0,7.35-.68,10-4.47q32.1-46.53,64.56-92.78a24.6,24.6,0,0,0,4.76-15.25c-.23-12.48-.14-25,0-37.45.11-11.71,3.75-15.4,15.5-15.46,23.68-.09,47.35.08,71,0,10.64,0,21.32.83,31.9-1.12,21.79-8.72,31-22.29,31.23-46,.17-20.8.24-41.58.37-62.37V537A34.48,34.48,0,0,0,1756.25,513.73ZM1018,240.8c21.14-10.35,43.08-4.08,64.49-2.33,71.29,5.8,141.51,18.53,210.92,35.6,20.64,5.07,41.07,11.07,61.55,16.73,2.74.77,6.07,1.33,7.86,3.19,16.93,17.63,40.8,20.38,61.84,29.08,15.73,6.52,32.39,10.64,47.89,17.86,6.55,3.06,13.71,1.56,20.57,1.44a35.34,35.34,0,0,1,15.87,2.94c36.57,16.78,73.24,33.36,108.29,53.23a31.86,31.86,0,0,1,15.89,20.32c-4.64-.05-7.26-2.86-10.31-4.49a1501.4,1501.4,0,0,0-154.82-72,1385.42,1385.42,0,0,0-301.83-82,1219.34,1219.34,0,0,0-147.46-13.78c-3-.09-8.06,1.48-8.47-2.49C1010,241.23,1015.37,242.08,1018,240.8Zm-716.26,158c36.23-20.41,73.94-37.88,111.94-54.66,1.88-.83,4.07-1.84,5.94-1.59,24,3.21,44.13-9.46,65.69-16,13.41-4.05,26.37-9.5,39.63-14,10.19-3.46,19.82-7.62,27.54-15.54,4.28-4.41,10.28-6,16-7.61C640.26,269,713,253.28,787.11,243.84c29.67-3.76,59.42-6.26,89.25-8.37,11.52-.81,21.11,4.8,31.69,6.89a1.87,1.87,0,0,1,1.63,2.22c-.14,1.33-1.22,1.62-2.19,1.76a49.58,49.58,0,0,1-5.44.4c-101.23,2.84-200.37,19.26-298.18,45-55.38,14.56-109.41,33.3-162.5,54.41a1267.9,1267.9,0,0,0-149.56,71.1c-1.32.75-2.75,1.34-5.65,2.75C288.67,409.51,294.16,403.09,301.74,398.81ZM360,796.89c-8.35-12.17-16.71-24.36-25.46-36.25-2.67-3.63-3.48-5.47.81-8.49,8.46-5.92,9.54-10.53,4.77-19.83-2.17-4.25-2.14-7.14,1.86-9.87,11.74-8,23.42-16.15,35.13-24.22,10.26-4.71,18.78-3.16,25.3,5.7,12.89,17.58,25.59,35.31,37.91,53.3,7.4,10.83,5.65,21.64-4.8,29.47-10.61,7.92-21.91,14.88-32.83,22.41-4.16,2.86-7.44,1.58-10.13-1.84-3.75-4.77-8.55-6.52-14.39-6C367.07,807.39,367.16,807.33,360,796.89Zm93.47,33.39c-21.58-.28-43.17-.53-64.74.05-7.93.22-9-6-12.06-10.16-1.75-2.36-7.2-5.06-2.91-8.79,4.1-3.55,8.86-5.8,14.19,0,6.66,7.17,11.72,7.2,19.94,1.78q15.28-10.08,30.4-20.42c13-9,16.86-24.47,8.25-37.55-12.43-18.86-25.49-37.32-38.93-55.46-8.36-11.3-23.52-13.35-35.69-5.89-5.89,3.61-11.59,7.54-17.39,11.33-5.17,3.81-10.46,7.5-15.49,11.5-7.75,6.19-8.67,10.7-4.37,19.45,2.83,5.75.81,10.82-5,13-1.47.54-2.73.48-3.37-.67-3.81-6.82-10.94-11.86-10.14-21.12.64-7.45.28-15,.37-22.47-.09-3.89-.22-7.79-.26-11.68-.21-19.08-9.24-28.3-28.16-28.37-28.86-.09-57.73.19-86.6-.11-23.68-.23-34.9-12-34.9-35.95q0-44.09.08-88.15c.06-17.75,2.16-19.83,19.66-19.88,21.84,0,43.69-.07,65.54.1,7.72.06,14.95-1.21,21.59-5.25a5.38,5.38,0,0,1,3.56-2.83c6.69-7.67,8.8-16.74,8.66-26.72-.23-17.18.11-34.35-.17-51.52-.08-4.8,1.44-7.44,5.69-9.78a1395.67,1395.67,0,0,1,246.52-107,1347.59,1347.59,0,0,1,185.33-46.27c45-7.88,90.36-13.78,136.07-16.38,13.75-.78,27.5-1.83,41.25-2.72,1.69-.11,4-1.12,4.83.94,1,2.49-1.42,3.63-3.17,4.64-3,1.77-6.47,1.71-9.86,1.89a1396.7,1396.7,0,0,0-407.91,84.57C451,356.67,418,370.1,386.06,385.65c-25.9,12.6-40.27,32.61-39.88,62.32.3,22.11-.19,44.22-.33,66.33.11,17.68.67,35.37.2,53-.37,14.33,1.8,27.88,8.29,40.68,14.31,21.64,34.31,32.28,60.38,31.2,13.46-.56,26.43-.12,36.31,11.47,5.69,6.68,9,13.87,9,22.55,0,50.18-.07,100.36.11,150.53C460.11,828.91,458.58,830.35,453.48,830.28Zm916.09-.2a19.72,19.72,0,0,0-16.86,6.55c-12.14,13.22-26.76,11.4-40.92,5.73-21.68-8.69-43-18.25-65.13-25.8-7.11-2.43-14.21-4.9-21.32-7.34-29.25-8.86-58.78-16.67-88.69-23-33.55-7.09-68.23-8.64-101.32-16.37-30.61-7.14-60.69-4.74-91-6.21-2-.11-4.09-.37-6.14-.56a34.65,34.65,0,0,1-5.35.48,118.37,118.37,0,0,0-47.59,7.11c-5.63,2-11.64,1.61-17.55,1.41-22.3,3.56-44.63,7-66.9,10.77-11.51,1.93-22.92,4.5-34.38,6.78-39.45,10.05-78.75,20.58-116.72,35.47-13,5.11-25.88,10.77-38.83,16.11-16.32,6.72-32,8.89-45.56-6-3.95-4.34-9.31-5.66-15-5-5,.63-6-1.41-5.87-6.11.44-14.42,5.26-19.41,19.84-19.44,7.55,0,15.16-.7,22.62.1,33.81,3.59,64.91-5.69,96-17.74,25.55-9.92,52.27-16.72,79.31-21.77,28.29-7.09,57.09-11.3,86-15.08,6.92-.9,13.88-1.47,20.82-2.18,37.73-4.49,103.5-5.55,103.5-5.55,95.78,3.58,189.68,17.42,280.26,49.92,5.6,2,11,4.5,16.52,6.77,10.67,5.31,22.14,5.64,33.72,5.59q26.54-.11,53.08,0c14,.07,19.1,5.54,19.16,19.5C1375.23,828.61,1374.15,830.49,1369.57,830.08Zm83.9-157.25c-.19,9.61-.23,19.24-.34,28.85q0,51.54,0,103.1c.08,12.17.06,24.36.31,36.55.08,3.45-1.09,4.34-4.47,4.31-21-.15-42-.22-63,0-4.53.05-4.73-1.82-4.84-5.48-.3-11,2-22.36-3.28-32.91-5.29-6.55-12.16-9.06-20.52-9-19.25.22-38.49,0-57.74,0a74.3,74.3,0,0,1-28-5.69c-49.81-19.87-101.55-33-154.32-42.12A992.16,992.16,0,0,0,956.7,736.26c-7.79-.06-15.57.14-23.35.22l-61,4.25q-51.79,6-103.05,15.69c-25.3,6.65-50.91,12.05-75.81,20.19-16,5.25-32.08,10.39-47.59,17a59.1,59.1,0,0,1-23.51,4.72c-20.28,0-40.58,0-60.86.19-14.86.14-22.52,7.63-23.08,22.41-.25,6.75-.28,13.53,0,20.28.14,3.39-.65,4.44-4.22,4.41-21.07-.17-42.15-.3-63.22,0-6.37.09-4.75-3.91-4.75-7.16q-.09-81.94,0-163.89c0-15.87-6.53-28-20.06-36.37-6.65-4.1-13.93-5.3-21.63-5.24-13,.08-26,.78-38.27-5.08-5.14-2.47-10.09-5.09-13.63-9.78-12.58-10.22-19.36-23.74-19.84-39.64-.64-21.21,0-42.46.06-63.7-.11-24.44-.94-48.91-.12-73.31.78-23.65,14.53-39.84,35-49.6,57.37-27.43,116.78-49.68,177.63-68.16A1418.31,1418.31,0,0,1,733.93,283.8c37.61-6.56,75.47-11.3,113.52-14.53,16-1.36,32.16-2.11,48.24-3.27,11.69-.84,19.86-9.73,20.32-21.61.23-5.89-2.54-13.75,1.42-17.08,3.31-2.8,10.92-.5,16.62-.48l65.46-.27c3.8-.14,4.36,1.24,4.16,4.42-.23,4.16-.19,8.33-.13,12.49.21,13.39,8.36,22,21.63,22.56,40,1.83,79.84,5.74,119.45,11.36a1393.67,1393.67,0,0,1,154.73,30.94,1344.9,1344.9,0,0,1,228.1,81.35c20.12,9.33,34.87,23.29,39,46.15a52.34,52.34,0,0,1,.74,9.28c0,41.63-.84,83.27.26,124.85.94,35-25.59,65.34-63.52,63.14-11.12-.65-22.31-.71-32.26,6.23C1459.89,647.55,1453.75,658.55,1453.47,672.83ZM1585.69,760Q1570.19,781.86,1555,804c-2.17,3.17-3.62,3.9-7.2,1.46-9.14-6.22-12.83-6-20.41,1.5-6.17,6.15-10.45,2.82-15-1.68a222.74,222.74,0,0,1-29-19.47c-9.42-7.29-11.53-17.69-4.92-27.57,9.8-14.61,20.55-28.56,30.88-42.8.9-1.56,1.7-3.17,2.73-4.64,12.89-18.56,20-19.83,38.8-6.88,8.33,5.75,16.57,11.61,25,17.29,4.8,3.23,6.41,6.45,3.11,12.2-4.56,8-2.88,13.75,5.25,19.24C1587.87,755.1,1588,756.71,1585.69,760ZM1753,632.59c-.24,20.4-13.74,32.52-34.15,31.63l-77.13.57c-4.41,0-8.83-.07-13.23.21-16.57,1-24.76,9.63-25,26.43-.22,12-.44,23.92,0,35.84.34,9.15-6,14.6-10.3,21.16-1.63,2.47-3.64.66-5.22-.7-2.92-2.5-6.64-4.64-4.2-9.55,1.37-2.76,3.54-5.14,3.78-8.44.39-5.83-2.45-10-7-13.11-11-7.76-21.87-15.84-33.28-23-13.91-8.81-29.33-3.9-40.38,12.08-8.48,14.24-19,27.07-28.3,40.74-3.18,4.69-6.64,9.24-8.47,14.74a27.74,27.74,0,0,0,9.38,30.59c3.22,2.55,6.63,4.89,9.94,7.33,8.89,5.58,17.56,11.57,26.75,16.58,5.75,3.14,11,.38,15.38-4.08,1.76-1.81,3.17-4.2,6.33-3.87,3.51.36,7,1.76,8.89,4.28,2,2.69-1.43,5-2.66,7.44-4.14,8.2-10.14,11.37-19.92,10.89-19.19-1-38.49-.36-57.73,0-5.39.11-7.47-1.25-7-6.86.56-6.19.39-12.44.53-18.67q0-51.28,0-102.57c-.1-10.66-.64-21.33-.16-32,.78-17,15.11-30.39,32.22-31,9.6-.34,19.21.57,28.8-1.14,29.82-5.26,52.19-30.69,52.41-61,.35-44.76.58-89.51-.11-134.26-.42-27.93-16.33-46.34-40.66-57.85-72.41-34.26-147.67-60.69-225-81.13a1359.89,1359.89,0,0,0-240-41.19c-14-1.11-28-1.93-42-3a43.13,43.13,0,0,1-6.84-1.19c-2.39-.6-5-2-4.41-4.6.7-3.39,3.73-1.43,5.78-1.31,25.16,1.55,50.32,2.92,75.45,5.27,29.5,2.75,58.81,6.69,88,11.45a1345.28,1345.28,0,0,1,213.16,53.35A1450.19,1450.19,0,0,1,1619,419.36c11.73,6.3,16.5,12.87,15.28,26.09-1.31,14.19-.1,28.6-.27,42.91-.12,9.26,2.52,17.33,8.63,24.29,7.2,6.4,15.66,8.31,25.16,8.15,23.15-.35,46.33-.2,69.49-.2,11.59,0,15.83,4,15.84,15.22C1753.17,568.07,1753.32,600.34,1753,632.59Z"/><path class="cls-1" d="M1567.43,570c-1.1-41.58-.21-83.22-.26-124.85a52.34,52.34,0,0,0-.74-9.28c-4.11-22.86-18.86-36.82-39-46.15a1344.9,1344.9,0,0,0-228.1-81.35,1393.67,1393.67,0,0,0-154.73-30.94c-39.61-5.62-79.45-9.53-119.45-11.36-13.27-.61-21.42-9.17-21.63-22.56-.06-4.16-.1-8.33.13-12.49.2-3.18-.36-4.56-4.16-4.42l-65.46.27c-5.7,0-13.31-2.32-16.62.48-4,3.33-1.19,11.19-1.42,17.08-.46,11.88-8.63,20.77-20.32,21.61-16.08,1.16-32.19,1.91-48.24,3.27-38.05,3.23-75.91,8-113.52,14.53a1418.31,1418.31,0,0,0-168.59,39.93c-60.85,18.48-120.26,40.73-177.63,68.16-20.45,9.76-34.2,25.95-35,49.6-.82,24.4,0,48.87.12,73.31-.08,21.24-.7,42.49-.06,63.7.48,15.9,7.26,29.42,19.84,39.64,3.54,4.69,8.49,7.31,13.63,9.78,12.22,5.86,25.3,5.16,38.27,5.08,7.7-.06,15,1.14,21.63,5.24,13.53,8.36,20.07,20.5,20.06,36.37q-.08,81.95,0,163.89c0,3.25-1.62,7.25,4.75,7.16,21.07-.33,42.15-.2,63.22,0,3.57,0,4.36-1,4.22-4.41-.26-6.75-.23-13.53,0-20.28.56-14.78,8.22-22.27,23.08-22.41,20.28-.2,40.58-.19,60.86-.19a59.1,59.1,0,0,0,23.51-4.72c15.51-6.62,31.58-11.76,47.59-17,24.9-8.14,50.51-13.54,75.81-20.19q51.26-9.61,103.05-15.69l61-4.25c7.78-.08,15.56-.28,23.35-.22a992.16,992.16,0,0,1,160.56,14.27c52.77,9.08,104.51,22.25,154.32,42.12a74.3,74.3,0,0,0,28,5.69c19.25,0,38.49.19,57.74,0,8.36-.09,15.23,2.42,20.52,9,5.31,10.55,3,21.88,3.28,32.91.11,3.66.31,5.53,4.84,5.48,21-.25,42-.18,63,0,3.38,0,4.55-.86,4.47-4.31-.25-12.19-.23-24.38-.31-36.55q0-51.57,0-103.1c.11-9.61.15-19.24.34-28.85.28-14.28,6.42-25.28,18.18-33.5,9.95-6.94,21.14-6.88,32.26-6.23C1541.84,635.3,1568.37,605,1567.43,570ZM959.82,686.47a25.86,25.86,0,1,1,25.86-25.86A25.88,25.88,0,0,1,959.82,686.47Z"/><path class="cls-2" d="M959.82,634.75a25.86,25.86,0,1,0,25.86,25.86A25.88,25.88,0,0,0,959.82,634.75Zm0,43.91a18.05,18.05,0,1,1,18-18A18.06,18.06,0,0,1,959.82,678.66Z"/></g><g id="Capa_3" data-name="Capa 3"><path d="M853.08,440.64v111H833.25V480.93l-19.5,14.91-16.18,12.53-16.18-12.53-19.51-14.91v70.74H742.05v-111l19.83,15.23,35.69,27.44,35.68-27.44Z"/><path d="M979.81,474.27a32.67,32.67,0,0,1-9.2,22.84,32.75,32.75,0,0,1-23.48,55.51H868.94V532.8h78.19a13.07,13.07,0,0,0,13-13,12.92,12.92,0,0,0-12.21-13h-59V487h59a13,13,0,0,0-.64-26h-78.2V441.12h78.2A32.63,32.63,0,0,1,980,473.79Z"/><path d="M1106.69,440.64v111h-19.82V506h-58.53a31.42,31.42,0,0,1-14.91-3.65,32.39,32.39,0,0,1-17.77-29V440.64h19.83v32.68a13.07,13.07,0,0,0,13,13H1087V440.64Z"/><path d="M1160.77,477.6v75.5H1141V475.53a15.83,15.83,0,0,0-13.48-13.48H1123V442.38h4.29v.16a35.55,35.55,0,0,1,13.48,3.65,35.17,35.17,0,0,1,16,16.18,42.36,42.36,0,0,1,2.7,7.46,33.38,33.38,0,0,1,1,8.08Z"/></g></g></svg>