<svg xmlns="http://www.w3.org/2000/svg" viewBox="0 0 1920 1080"><defs><style>.cls-1{fill:#f2f2f2;}.cls-2{fill:#010101;}</style></defs><g id="Capa_2" data-name="Capa 2"><g id="Capa_1-2" data-name="Capa 1"><rect class="cls-1" x="1919" y="1079" width="1" height="1"/><rect class="cls-1" width="1" height="1"/><rect class="cls-1" y="1079" width="1" height="1"/><rect class="cls-1" x="1919" width="1" height="1"/><path class="cls-2" d="M1764.32,483c0-2.78-7-8.71-7-8.71-5.82-4.15-12.46-4.11-19.17-4.1q-38.94.07-77.87,0c-12.51,0-13.45-1-13.47-13.45,0-25.48.06-51,0-76.44-.1-26.12-12.44-44.39-36.28-54.62-28.36-12.16-57-23.68-85.34-35.91-9.5-4.11-18.59-5-28.27-1.32a17.76,17.76,0,0,1-12.52.6q-43.45-14.76-87-29.17c-5.48-1.81-9.79-4.69-12.53-9.8-3.65-6.77-9.51-10.21-16.88-11.89-64.65-14.71-129.6-28-195.18-37.84a1174.73,1174.73,0,0,0-127.15-12c-9.51-.38-18,1.32-24.76,8.42-3.4,3.54-7.71,4.24-12.43,4.15l-96.11,0c-5.8.17-10.58-1.29-15-5.21s-9.11-7.07-15.79-7.06c-39.87,0-106.58,8.1-106.58,8.1C733.76,201.37,693.13,209,652.54,217c-33.81,6.59-67.55,13.5-101.09,21.32-7.38,1.72-13.2,5.22-16.91,11.89-2.81,5.07-7.08,8-12.57,9.79q-43,14.18-85.78,28.74a20.55,20.55,0,0,1-14.59-.53c-9-3.49-17.43-2.46-26.21,1.3-28.39,12.15-57,23.83-85.47,35.74-24.61,10.29-37,28.84-37.17,55.48-.14,24.76-.09,49.53-.12,74.29,0,14.5-.69,15.2-15.5,15.23-22.62.05-45.24,0-67.86.06-10.35,0-21-1.47-31,6.45-3.3,3.45-4.09,10.94-4.09,10.94V588.26c0,33.23,16.37,52.47,48.16,57.74,32.77,0,65.54,0,98.31-.17,6.86,0,9.44,2.29,9.36,9.54-.36,35.62-.17,71.24-.25,106.86a125.45,125.45,0,0,0,1.73,23.39c2.41,4.34,4.57,8.84,7.27,13q27.64,42.39,55.49,84.63c4.37,6.67,16.71,8.4,16.71,8.4h27.22c12.33,0,17.17-3.54,21.38-14.91a27.1,27.1,0,0,0,1.4-4c1.24-6.16,4.78-8.11,11.12-8.05q44.25.43,88.53-.08c8.1-.08,15.4,1.42,22.43,5.53,5.7,3.33,11.59,6.78,18.44,7.12,13.35.66,26.46.4,39-5.73,7.83-3.82,16.46-6,24.74-8.91,32.61-12.41,66.23-21.42,100.19-29.14a1003.16,1003.16,0,0,1,205.37-24.77l16.65,0c27,.39,54,1.83,80.85,4.68,32.88,2.68,65.42,7.79,97.75,14.15a894.13,894.13,0,0,1,122.08,32.6,27.57,27.57,0,0,1,3.13,1.55c10.38,2.6,20.27,6.6,30.12,10.64,18.9,7.77,37.39,7.92,55.39-2.42a40.49,40.49,0,0,1,21.1-5.26c27.37.21,54.73-.08,82.09.18,18.28.17,13.85-3.4,20.92,14.29,3.25,8.11,8.72,12.71,17.81,12.57,9.76-.16,19.52-.22,29.27.05,8.51.22,14.46-3.53,18.94-10.47,3.6-5.58,7.48-11,11.23-16.44,14.34-24.07,30-47.28,45.71-70.48,4.93-8.69,6.25-18.1,6-28-.21-7.79.15-15.58.25-23.37V674.37c-.1-6.41.17-12.86-.39-19.24-.62-7.16,2-9.52,9.24-9.43,30.45.33,60.91.19,91.36.13,29.16-.06,49-16.54,54.58-45.07q.47-24.64.94-49.28C1765.29,528.65,1764.34,505.82,1764.32,483ZM374.25,854.93c-4.9,3.85-5.51-.84-7.09-3.23q-15.62-23.44-31-47c-1-1.5-3.15-3.13-1.68-5s3.75-2.76,5.16-3.73c2.56-.25,3,1.3,3.82,2.42,11.18,15.35,22.13,30.88,33.64,46C381.3,850,378.06,851.94,374.25,854.93ZM951.16,797.6a946,946,0,0,0-174.41,17.69,971.83,971.83,0,0,0-167,47.76c-13.4,5.21-27.55,5.53-40.53-2.52-9-5.59-18.6-7.53-29.21-7.38-29.28.43-58.57.5-87.85,0-10.3-.16-17.51,2.93-21.32,12.71-.67,2.25-1.39,4.49-2,6.76-1.58,6-5.25,8.45-11.51,7.86-4.7-.44-9.49-.07-14.24-.06-17.93,0-17.86,0-27.5-15.11-2.07-3.23-1.36-4.67,2.08-5.43,4.65-4,9.3-7.92,12.42-13.33,1.15-2,2-5.31-1.08-4.14-6.1,2.33-7.49-2.07-9.9-5.16-2-2.55-4.52-4.82-5.45-8.12-8.3-11-16.64-21.93-24.87-33-1-1.3-3.1-3.58.1-4.44,5.43-1.46,3.06-4.64,1.65-7-2.9-4.9-6.36-9.46-9.51-14.21-1.26-1.89-3.24-2.69-4.89-1.65-2.35,1.49-1.22,3.84,0,5.6,3.08,4.42,6.33,8.72,9.74,13.38-3.49,1.28-7,.45-9.16,2.95-5.43,6.35-8.18,2.74-11.19-2.48A32.78,32.78,0,0,1,321,771.39q.12-58.18,0-116.38c0-13.23-2.87-17-15.77-20.74-34.31.11-68.63.84-102.94-.32-20.91-2.15-36.36-17.87-36.76-39.4-.63-34.28-.28-68.57-.15-102.85,0-8,2.56-10,11.34-10.06,27.86-.09,55.71,0,83.57-.07,16.7,0,23.62-7.17,23.61-24q0-38.22,0-76.43,0-32.83,30.38-45.46c29.15-12.16,58.35-24.23,87.4-36.62a19.06,19.06,0,0,1,15.83-.07c8.19,3.53,16,2.62,24.24-.22q42-14.55,84.29-28.46c7.85-2.58,14.29-6.38,17.95-14,2.33-4.84,6.76-6.48,11.48-7.54,39.15-8.83,78.5-16.72,117.89-24.42,42.47-8.3,85.21-14.86,128.24-19.34,16.08-1.67,32.19-3,48.37-3.81,9.46-.44,18.91-1,28.39-1.29,4.35-.13,7.85,1,10.93,4,6.29,6.24,13.83,8.37,22.72,8,13.31-.61,26.66-.18,40-.45,4-.07,6.15.66,6.15,5.34s-2.3,4.86-5.84,4.85c-52.89-.11-105.66,2.62-158.32,7.1C672.22,239,553.34,262.5,439.59,308.79,411,320.42,382.35,331.87,354.1,344.3c-36.66,16.14-55.39,44.22-55.55,84.39q-.23,53.21-.14,106.42c0,5.46.59,10.91.91,16.36,1.74,8,4.73,15.62,7.77,23.2q34.73,51.15,69.45,102.3c1.18,1.75,2.19,3.62,3.28,5.43,15.55,20.41,29.05,42.24,43.75,63.24,12.4,17.72,24,36,36.81,53.41,19.9,27,47.12,40.71,80.69,41.09,28.33.32,56.67,0,85,.1,11.34,0,22.1-2.72,32.71-6.37,59.68-20.52,121-34.22,183.36-43.39,36-5.3,72.38-7.46,108.79-8.74,6.56-.24,7.3,2.43,7.3,7.8S957.9,797.55,951.16,797.6ZM978.8,227.49c48.8.39,97.56,2.46,146.15,6.95,80.72,7.46,160.8,18.89,239,41.1,69.27,19.68,136,46.13,201.7,75.43,32.7,14.6,49.06,41.09,49.56,76.73.5,35.94.12,71.9,0,107.86,0,5-1,9.91-1.55,14.86-1.72,14.15-9.25,25.6-17.13,36.89s-15.9,22.87-23.85,34.31c-9.11,13.58-18.38,27.06-27.27,40.78-3.8,5.88-9.26,10.51-12.2,17q-19.77,29.32-39.55,58.65c-1.84,2.72-3.83,5.34-5.76,8-12.21,18.23-23.75,36.93-37.6,54-17.32,21.78-40.37,33.1-67.71,34-30.64,1-61.35.38-92,.22-10.32-.06-20.07-3.25-29.73-6.68-27.5-9.78-55.77-17-83.87-24.81-30.6-6.52-61.23-12.86-92.26-17.14a958,958,0,0,0-97.15-8.89c-3.55-.13-7.09-.6-10.63-.91-31.34-1-62.51,2-93.73,3.89-44.1,4.92-87.92,11.55-131.19,21.53-3.12.72-6.3,1.2-9.45,1.79-24.54,7.18-49.66,12.49-73.64,21.42a165.14,165.14,0,0,1-64.27,10.15c-20.44-.71-40.93-.08-61.4-.22-33.19-.23-60-13.4-79.08-40.7-26.12-37.43-51.65-75.27-77.41-113a23.49,23.49,0,0,1-1.55-3.14c-9.07-13-18.2-26-27.2-39.08-12.94-18.8-25.68-37.75-38.72-56.49-8.92-12.82-14.64-26.81-14.77-42.44-.35-40.47-1.88-81,.65-121.38,1.86-29.76,17.53-52.18,44.35-65.22,29.43-14.3,59.93-26.28,90.44-38.14,54.89-21.34,110.56-40.14,168.21-52.7,49-10.68,98.48-18.28,148.33-23.85C830.36,230.08,904.49,226.9,978.8,227.49Zm604.55,577.17c-10.95,16.38-21.68,32.91-32.51,49.37-.75,1.14-1.28,2.64-3.23,2.62-2.48-2-5.47-3.67-7.55-6.14-1.81-2.15.93-3.71,2.13-5.34,11.22-15.33,22.48-30.63,33.62-46,1.66-2.3,2.61-4.33,6-1.94C1584.91,799.45,1585.63,801.24,1583.35,804.66Zm170.46-213.11c.06,24.85-16.2,42.35-40.88,42.77-29.53.51-59.06.14-88.6.21a78.66,78.66,0,0,0-11.39.55c-9.25,1.35-14.23,7.09-14.49,16.43-.22,7.61-.24,15.22-.35,22.84q0,34.33,0,68.67c0,10.67.14,21.35.09,32,0,7-3.72,12.6-7.5,18.1-.87,1.27-2.16,2.37-3.52,1.22-3.65-3.08-7.24-5.72-12.37-6.27-2.1-.23-.34-2.55.65-3.78q3.78-4.71,7.49-9.48c1.53-2,3-4.36.33-6.08-2.08-1.34-3.9.34-5.21,2.34-2.73,4.15-5.79,8.1-8.36,12.35-1.67,2.77-4.31,5.11.73,8.61,4.13,2.87-1.85,5.41-3.33,8.1q-14.59,20.13-29.17,40.29c-1.77,2.47-3.78,3.48-6.67,2.09-1.13-.54-2.29-.78-3.07.58s.29,2.21.91,3.13c3.22,4.69,6.7,9.16,11.25,12.68,4.09,1.73,4.15,3.4,2.07,7.77-4.82,10.12-11.11,15.72-23,13.87a63.81,63.81,0,0,0-16.28,0c-7.37.77-11.74-1.86-13.13-9.23-.34-1.83-.94-3.62-1.43-5.42-3.9-10.17-11.44-13-22-12.79-29.51.55-59,.42-88.55.12-10.1-.1-19.29,2-27.85,7.22-12.75,7.83-26.64,8.07-39.8,2.9-62.17-24.44-126.38-41.24-192.09-52.54-49.57-8.52-99.58-12.39-149.83-13.29-4.42-.08-8.13.27-7.2-6,.65-4.45-2-9.72,6.72-9.57a910.29,910.29,0,0,1,99.57,7.06,952.85,952.85,0,0,1,140.12,28.38c21.87,6.22,43.46,13.45,65.19,20.18a70.1,70.1,0,0,0,21.13,2.72c27.14-.07,54.28-.12,81.42,0,35.36.15,63.3-14.37,84.56-42.33.71-.93,1.58-1.73,2.37-2.59,12.68-19.88,25.92-39.38,39.93-58.35,14.68-22.87,29.7-45.51,45.89-67.35q17-26.83,35.76-52.49c6-9.11,11.75-18.44,18.15-27.27,8.47-11.69,15.08-24.12,18-38.36,2.24-42.34,1.4-84.74.69-127.07-.6-36.25-18.3-63.39-51.5-78.24-72-32.19-145.2-61.19-221.66-81.14-52.48-13.69-105.84-22.82-159.66-29.51a1856.73,1856.73,0,0,0-221.45-13.87c-4.15,0-5.23-1.21-5.26-5.22,0-4.25,1.61-5.13,5.49-5.05,14.28.27,28.58,0,42.85.4,7.07.18,13.26-1.5,18.26-6.4,4.81-4.72,10.33-5.87,16.88-5.65,46.42,1.56,92.5,6.53,138.34,13.67,60.09,9.34,119.57,21.84,178.94,34.93,6.71,1.48,11.85,4.07,14.94,10.55,2.46,5.14,6.94,8.18,12.42,10q46.57,15.56,93,31.34c6.52,2.22,12.68,1.27,18.76-1.19,6.36-2.57,12.17-1.87,18.52.85,28.35,12.19,56.88,24,85.38,35.82,19.88,8.28,30.28,23,30.33,44.66,0,26.19,0,52.38.07,78.57,0,15.47,7.36,22.66,22.79,22.66q41.43,0,82.86,0c10.93,0,13.1,2.08,13.07,12.74,0,19-.17,38.08-.27,57.12C1754.34,564.83,1754.56,578.19,1753.81,591.55Z"/><path class="cls-1" d="M1615.18,535.56c0,5-1,9.91-1.55,14.86-1.72,14.15-9.25,25.6-17.13,36.89s-15.9,22.87-23.85,34.31c-9.11,13.58-18.38,27.06-27.27,40.78-3.8,5.88-9.26,10.51-12.2,17q-19.77,29.32-39.55,58.65c-1.84,2.72-3.83,5.34-5.76,8-12.21,18.23-23.75,36.93-37.6,54-17.32,21.78-40.37,33.1-67.71,34-30.64,1-61.35.38-92,.22-10.32-.06-20.07-3.25-29.73-6.68-27.5-9.78-55.77-17-83.87-24.81-30.6-6.52-61.23-12.86-92.26-17.14a958,958,0,0,0-97.15-8.89c-3.55-.13-7.09-.6-10.63-.91-31.34-1-62.51,2-93.73,3.89-44.1,4.92-87.92,11.55-131.19,21.53-3.12.72-6.3,1.2-9.45,1.79-24.54,7.18-49.66,12.49-73.64,21.42a165.14,165.14,0,0,1-64.27,10.15c-20.44-.71-40.93-.08-61.4-.22-33.19-.23-60-13.4-79.08-40.7-26.12-37.43-51.65-75.27-77.41-113a23.49,23.49,0,0,1-1.55-3.14c-9.07-13-18.2-26-27.2-39.08-12.94-18.8-25.68-37.75-38.72-56.49-8.92-12.82-14.64-26.81-14.77-42.44-.35-40.47-1.88-81,.65-121.38,1.86-29.76,17.53-52.18,44.35-65.22,29.43-14.3,59.93-26.28,90.44-38.14,54.89-21.34,110.56-40.14,168.21-52.7,49-10.68,98.48-18.28,148.33-23.85,73.9-8.25,148-11.43,222.34-10.84,48.8.39,97.56,2.46,146.15,6.95,80.72,7.46,160.8,18.89,239,41.1,69.27,19.68,136,46.13,201.7,75.43,32.7,14.6,49.06,41.09,49.56,76.73C1615.71,463.64,1615.33,499.6,1615.18,535.56Z"/><path class="cls-2" d="M377.09,744.49c-7.08,5.57-14.11,11.19-21.27,16.65-1.16.88-2.83,2.59-4.35.92a3.4,3.4,0,0,1,.17-5.12c7.8-6.37,14.79-14,25.1-16.6A5,5,0,0,1,377.09,744.49Z"/><path class="cls-2" d="M449.42,817.51c-.52,7.25-4.14,14.19-10.95,19.36-1.64,1.24-3.93,3.08-5.69,1.31s.1-4,1.55-5.46c5.62-5.49,9.62-11.68,9.92-19.84.06-1.65,1.06-3.84,3-3C449.73,811,449.42,813.83,449.42,817.51Z"/><path class="cls-2" d="M423.24,771a16.71,16.71,0,0,1,2.17,2c5.16,6.77,10.34,13.52,15.37,20.38,1,1.42,2.57,3.44.26,4.91a3.61,3.61,0,0,1-5-1.21c-4.9-6.94-9.87-13.83-14.55-20.91C420.35,774.46,420.29,772.14,423.24,771Z"/><path class="cls-2" d="M393.16,738.27a32.64,32.64,0,0,1,15.72,11.29c2.73,3.57,8.38,9.3,5.12,11.78-4,3.08-5.78-4.7-8.66-7.53A81.12,81.12,0,0,0,392,743.28c-1.17-.75-2.52-1.63-2-3.33C390.38,738.67,391.6,738.37,393.16,738.27Z"/><path class="cls-2" d="M405.93,862.57c-4.54,2.22-8.87,3.92-9.32-3.83,7.66-3.54,14.64-8.23,21.7-12.79,1.2-.78,3-2.37,4.29-.35,1,1.65-.3,3.21-1.54,4.27C416.07,854.16,411,858.34,405.93,862.57Z"/><path class="cls-2" d="M1522.37,860c-3.87,6.16-6,6.24-12,.44-4.2-3.74-8.45-7.41-12.56-11.25-1-.88-1.86-2.22-1-3.74a1.7,1.7,0,0,1,2.49-.43c7.75,4.16,14.47,10.15,23,13C1522.51,858,1522.35,859.28,1522.37,860Z"/><path class="cls-2" d="M1472.24,809.37c2.35.68,2.58,2.29,2.69,3.58.72,8.31,5.15,14.62,10.62,20.44,1.16,1.23,2.47,2.85,1.56,4.4-1,1.73-2.92.91-4.47.25C1473.3,834.08,1467.65,818.72,1472.24,809.37Z"/><path class="cls-2" d="M1477,795.85c5.2-7,10.36-14,15.62-21,1.31-1.74,2.66-4.91,5.35-2.75,2.33,1.87.2,4.3-1.06,6.22-2.83,4.32-5.74,8.59-8.61,12.89a51,51,0,0,1-5.12,5.73C1481,798.85,1478.25,800.76,1477,795.85Z"/><path class="cls-2" d="M1542.09,740.42c5.23-.27,8.55,3.76,12.79,5.72,3.71,3,7.46,5.82,11.1,8.85,2.07,1.73,4.2,4.1,2.23,6.68-2.23,2.93-4.21-.22-5.84-1.43-6.08-4.55-12-9.29-17.93-14.06C1542.68,744.76,1540.23,743.41,1542.09,740.42Z"/><path class="cls-2" d="M1513,746.31c3.12-2.11,6.21-4.27,9.38-6.32,2.54-1.64,5.17-2.51,7.68.14a3.48,3.48,0,0,1-1.81,2.86c-8,3.7-13.9,9.76-18.85,16.91-.87,1.26-1.88,3.34-3.82,2.28-2.41-1.33-1-3.34,0-4.88C1508,753.59,1510.5,750,1513,746.31Z"/></g><g id="Capa_3" data-name="Capa 3"><path d="M821.18,449.74v111H801.35V490l-19.51,14.91-16.18,12.53-16.17-12.53L730,490v70.74H710.15v-111L730,465l35.68,27.44L801.35,465Z"/><path d="M947.91,483.37a32.67,32.67,0,0,1-9.2,22.84,32.75,32.75,0,0,1-23.48,55.51H837V541.9h78.2a13.07,13.07,0,0,0,13-13,12.92,12.92,0,0,0-12.22-13H857V496.06h59a13,13,0,0,0-.63-26h-78.2V450.22h78.2a32.63,32.63,0,0,1,32.68,32.67Z"/><path d="M1074.79,449.74v111H1055V515.09H996.44a31.39,31.39,0,0,1-14.91-3.65,32.4,32.4,0,0,1-17.77-29V449.74h19.83v32.67a13.07,13.07,0,0,0,13,13h58.52V449.74Z"/><path d="M1201.36,541.26v19.83H1090.65V528.41a31.61,31.61,0,0,1,2.69-12.84,32.58,32.58,0,0,1,28.87-20h48.06a13,13,0,0,0-1.11-25.85H1091V449.9h78.2a32.63,32.63,0,0,1,32.68,32.67,32.4,32.4,0,0,1-9.36,22.68,33,33,0,0,1-22.37,10h-47.9a12.91,12.91,0,0,0-11.58,12.85v12.84Z"/></g></g></svg>