<svg xmlns="http://www.w3.org/2000/svg" viewBox="0 0 1920 1080"><defs><style>.cls-1{fill:#020202;}.cls-2{fill:#f2f2f2;}</style></defs><g id="Capa_2" data-name="Capa 2"><g id="Capa_1-2" data-name="Capa 1"><path class="cls-1" d="M1765.76,611.63c0-27.78-9.07-25.08-9.07-25.08-17.64-.23-35.29-.29-52.92-.38-26.1-.13-27.42-1.36-27.5-27.5-.17-54.13,0-108.27-.49-162.41-.29-28.2-13.15-44.49-39.86-53.72-70.24-24.31-141.75-43.88-214.36-59.77-21.72-4.77-43.64-8.19-65.11-15.62-25-8.67-52.35-10.66-78.67-15.55-.93-.17-2.35-.81-2.71-.43-6.07,6.19-13,1.62-19,.81-56.3-7.56-112.83-12.7-169.45-16.78q-60-4.3-120.23-5.55l-13.51.12c-37.77,0-137.34,6.63-137.34,6.63-50.59,3.89-101.11,8.36-151.32,15.77-7.43,1.09-14.76.48-22.28-.13-8.11-.64-16.55,2.65-24.85,4.22-16.11,3.06-32.19,6.42-48.38,9.09-10.52,1.74-19.22,7.92-30,9.81-58.93,10.32-117,24.7-174.33,41.61-28.17,8.29-56.26,16.93-83.82,27.1-23.83,8.81-36.4,26-36.64,51.66-.36,41.31-.11,82.64-.16,124,0,2.41-.18,4.82-.3,7.21.09,15.2.38,30.4.16,45.6a13.86,13.86,0,0,1-13.3,13.64l-68.75.81c-7,.34-7.45,7.45-7.45,7.45V702c0,12.18,4,15.83,16.11,16,7,.11,14,.33,21,.49,35.41-.75,70.81-.84,106.21,0,9.39-.51,18.07,2.32,26.29,6.34l137.7,75.59c25.07,13.3,48.67,29.41,75.39,39.56,12.31,4,22.73,6,30.64,6.14l343.92,0c3.69,6.57,9.87,3.41,15,3.68l74.44.1c2.08,0,4.71.92,5.85-1.58,1.47-3.25,4-2.7,6.68-2.7q162.8.14,325.59.19c11.11,0,22.2-.45,33.16-2.57,35.33-10.42,64.94-32.27,97.27-48.68l112.27-62.2c17.56-10.62,36.06-14.82,56.49-14.44,36.93.67,73.87.14,110.81.13,13.18,0,16.78-3.28,16.84-16.66C1765.93,671.49,1765.73,641.56,1765.76,611.63ZM965.39,254.52c1.3.07,3.1.55,3.35-1.6.17-1.67-.78-3.07-2.35-3.07l-18.94-.25c-12.08,0-12.08,0-12.18,11.94,0,1.69-.12,3.39,0,5.07.4,5-1.81,6.52-6.8,6.56-39.14.36-78.21,2.57-117.23,5.55-40,3-79.84,7-119.54,12.67-12.8,1.81-24-.66-33.08-10.22a27,27,0,0,1-4.47-5.63c-4.78-9-4.23-10,6-11.35a2694,2694,0,0,1,287.25-22.92l21,0s58.93,1.88,89.37,3.55,82.79,6.14,82.79,6.14q61.71,5.37,123.09,13.61c1.95.26,4.84-.13,4.59,3.22-.23,2.83-2.14,3.57-4.65,2.81a3.15,3.15,0,0,0-4.13,1.88c-1,2.12.56,2.72,2.32,3.5,3.74,1.68.65,3.73-.36,4.91-7.12,8.1-15.93,12.29-26.93,10.95-17.27-2.1-34.52-4.29-51.8-6.25q-94.41-10.71-189.42-12.57c-2.66-.06-6.77,1.61-7.73-1.82a30.23,30.23,0,0,1,0-15c.41-1.76,2.89-1.17,4.56-1.12,7,.19,14,.4,21,.52,1.32,0,3.19.57,3.57-1.39s-.9-3.28-2.78-3.55a171.49,171.49,0,0,0-27.47-1c-2.28.06-2.69,1.86-3,3.47a58.81,58.81,0,0,0-1.37,8.52c-.71,11.6-3.68,13.76-15.35,11.41l-12.6.06c-11.61-.38-11.63,0-11.79-10,.6-3.08-3.15-9.71,4.94-7.9ZM912.32,832.71c-.58,3.24-4.12,1.48-6.23,1.48q-91.7.19-183.42.17c-47.6,0-95.21-.21-142.81-.08-20.94.05-40.68-4.1-59.07-14.34Q458.92,785.52,397,751.25L375,739c-12-5.09-22.89-12.23-34.21-18.57-14.1-7.92-28.67-13.66-45-14.2-3.9,0-7.79,0-11.68-.07q-56.81.15-113.58.35c-3,0-4.4-.69-4.4-4q.15-51,.14-102a4,4,0,0,1,.54-1.34c.2-1.92,1.45-1.63,2.73-1.26,7.24,0,14.49,0,21.71.06,11.82-.14,23.63-.25,35.45-.4,14.79-.17,22.24-5.53,27.29-19.5.2-.54,1.14-.8,2.09-1.43.3,1,.58,1.82.81,2.63.52,1.83.68,4.21,3.3,4,3-.3,1.77-2.94,1.8-4.58.1-7.23.26-14.49-.12-21.7-.15-3,2.54-7.48-4.44-8.1-2.47-.22-2.21-9.63-.64-9.93,8.49-1.69,4.11-8.16,5.6-12.28-.1-6.27-.13-12.56-.3-18.81-.05-2,.87-5-2.88-4.28-4,.72-3.26-2.44-3-4,.54-2.67-2.52-7.11,2.3-7.77,4.23-.56,3.57-3,3.6-5.58.07-6.52.52-13.08-.06-19.56-.31-3.39,3.8-9.95-5.11-9.37-1.8.11-.95-12.54,1.28-12.7,4.76-.31,3.74-3.34,3.81-6.11a142.74,142.74,0,0,1,1.63-20.94c.33-1.91,2-4.81-1-5.57s-4,1.86-4.46,4.49a7.15,7.15,0,0,1-.91,1.85C247.21,396,260,364,282.73,355.63c42-15.53,85-28.1,128.23-39.9,47.74-13,96.13-23,144.64-32.6,4-.8,4.34.88,4.43,4.06.3,11.83-6.56,22.38-19.09,25.93-32.46,9.15-65.1,17.6-97.69,26.34-3.1.84-4.13-.12-4.31-3.48-.59-11.41-.74-11.4,10.18-14.47,4.16-1.18,8.33-2.4,12.48-3.63,1.25-.37,2.25-1.09,2-2.51a2.37,2.37,0,0,0-3.11-2.17c-9.33,2.37-18.66,4.73-27.92,7.36-1.82.51-2.31,2.31-.91,4.11,3.74,4.78,1.22,10.23,1.6,15.39.2,2.78-2,3.65-3.77,4.74-35.87,21.79-48.76,52.31-39.8,93.39,6.11,28,11.81,56.19,17.65,84.29a36.39,36.39,0,0,1,.42,4.3c5.67,21.9,9.54,44.18,14.21,66.29.41,1.87.64,3.77,1,5.64,3.63,17.52,8.91,34.71,10.24,52.68.22,8.68.41,17.34.69,26,0,1.48-.21,4.75,1.75,3.69,7.86-4.21,5.29,3.44,5.77,5.41,4,16.42,7.06,33,11,49.46,7.33,30.54,27.54,49.49,56.22,59.94,7.52,2.73,15.91,1.82,24,1.83q175.46,0,350.87,0c9.24,0,18.64-.7,24.55,8.65.77,1.2,1.86,2.28,1.58,4-1.33,1.46-3.11.34-4.64.66-1.31.28-2.37.77-2.51,2.15-.21,1.92,1.35,2.22,2.75,2.67,2.54.81,6.82-1.1,7.43,2.43A42.82,42.82,0,0,1,912.32,832.71ZM1001,819.78c0,6.51-.15,13,.06,19.53.1,3.47-.38,5.19-4.6,5l-73,.16c-3.54.08-4.7-1-4.54-4.46.29-6.52.26-13,.26-19.55S912,802.31,912,802.31c-4.34-7.95-12.87-10.07-21.93-10q-83.71.22-167.46.13-93.89,0-187.77-.14c-15.19,0-29.82-2.11-42.6-11.28-13.5-8.12-24.28-18.63-29.8-33.78-4.58-8.85-5.73-18.68-7.78-28.23l-61.1-292c-4.94-29,7.75-58.31,35.72-75.83,5.54-3.77,18-7.26,18-7.26,30.58-7.95,61.06-16.31,91.66-24.29,12.91-3.37,22.18-10.37,25.69-23.65a55.8,55.8,0,0,0,.86-13.11c-.64-10.93-.84-10.85,10.28-12.94,20.39-3.85,40.83-7.51,61.12-11.86,5-1.08,6.15.14,7.21,4.55,2.21,9.18,5.32,18.15,12.4,24.9,9.23,8.79,20.35,11.22,32.82,9.56C765.55,286.92,842.07,280.36,919,278.7l73,0c79.6,1.12,158.76,7.87,237.64,18.26,16.15,2.14,29.06-2.48,38.72-15.5a97.15,97.15,0,0,0,5.45-12.29c.71-2.3,2.17-4.45,2.45-6.75.55-4.55,2.25-5.06,6.69-4.14,21,4.27,42.18,8.08,63.3,11.87,10.44,1.87,10.09,1.61,8.49,12.27a107.29,107.29,0,0,0-.58,11.86c2.4,14.63,21.24,23.61,21.24,23.61,21.61,5.94,43.28,11.6,64.91,17.45,12.09,3.28,24.11,6.84,36.23,10l11,4.66c26.37,13.3,44,43.6,39.55,72.26-5.62,35.73-14,71-22.11,106.26l-40.58,195.27c-2.82,19.36-10.09,36.45-25.34,49.41-3.39,2.87-6.54,6.2-11.57,6.07-2-.06-1.06,2.39-2.21,3.19-12.1,8.39-26,9.8-40.07,9.87-33.85.17-67.7.16-101.55.16q-111,0-221.94-.1c-2.88,0-5.76-.29-8.65-.44-8.43.15-16.86.26-25.31.45A27.53,27.53,0,0,0,1001,819.78ZM1754,700.4c0,4.07-.64,6.12-5.43,6.09-39.33-.24-78.67-.25-118-.32-13.31.11-26.36,1.58-38.56,7.44l-2.89,1.34-1.53.46q-37.82,21.06-75.62,42.08-43.22,24-86.47,47.86c-11.16,6.15-22.32,12.32-33.55,18.33-3,1.55-5.93,3.3-9.44,3.43-9.78,5.41-20.64,6.73-31.39,6.76-89.69.32-179.37.28-269,.33a5.76,5.76,0,0,1-1.41-.32c-22.65.14-45.27.16-67.92.48-4.44.08-5.8-1.42-5.92-5.74-.3-12.12-.46-12.14,11.67-12,3.61,0,7.23.24,10.83.32,1.62,0,3.63.52,3.8-2,.16-2.19-1.35-2.89-3.19-3-6.66-.48-13.33-.92-21.06-1.44,4.53-7.15,10-11.9,18.26-12.41,6.7-.42,13.45-.11,20.19-.14q41.32-.09,82.63-.18h253.85c4.82,0,9.66-.07,14.47-.1a6,6,0,0,1,4.45-.81l15.77-3.75c32.63-13.55,47.8-39.72,53-73.15.55-3.53,1.57-7,2.36-10.48l.27-1.48c1.64-7.8,2.29-15.81,5.37-23.26-.32-1.77.07-4.38,1.68-4.05,7.24,1.53,5-3.83,5.14-6.9.38-7.42.3-14.87.42-22.3.87-15,5.66-29.22,8-43.92a80.38,80.38,0,0,1,2.23-8.32q6.51-36.56,15.2-72.63c6.28-30.48,12.31-61,18.91-91.42,8.25-38-6.18-71-40.06-90-3.37-1.88-5.09-3.78-4.54-7.86.48-3.53.1-7.17.1-11.22,9.19,2.54,17.94,5,26.68,7.4,1.83.52,3.79,1.67,4.76-1.12,1.07-3.09-1.13-3.64-3.35-4.26-7.19-2-14.3-4.29-21.53-6.13-9.44-2.41-12.21-.17-12,9.16.19,9,.18,9.06-8.48,6.79-30.55-8-61.06-16.1-91.61-24.05-9.76-2.54-16.2-8.56-20.8-18,6-.22,10.81,1.44,15.72,2.41,2.39.48,5.74,2.42,6.8-.76,1.22-3.64-2.57-3.77-5.08-4.39-4.67-1.17-9.33-2.39-14-3.59-2.13-.55-4.7-1.12-4.2-3.95s3.06-2.41,5.26-2c52,9.18,103.35,21.2,154.26,35.15,39.24,10.77,78.19,22.57,116.46,36.46,19.45,7.07,28.64,20,28.67,40.42,0,13.53-.07,27-.17,40.57,0,2.42,1.13,5.7-3.76,4.62-2.41-.56-2.27,1.85-2.25,3.51.06,8.94.08,17.88.23,26.81a4.68,4.68,0,0,0,1.06,3.18c6.34,5.28,6.37,8.28,0,14.08-1.43,1.3-1.13,3.1-1.11,4.76q0,14.48.1,29c1.94.59,5.79-1.51,5.27,2.51-.41,3.14,3.9,8.46-3.27,9.33a1.85,1.85,0,0,0-1.83,1.8c.19,11-1.94,22,1.11,32.89,3.62-2.68,3.75,0,4.25,2.63,3.63,19.63,12.09,26.58,32.19,26.59,17.14,0,34.29.21,51.41,0,4.82-.06,6.74,1,6.7,6.33C1753.78,636.22,1753.84,668.31,1754,700.4Z"/><path class="cls-2" d="M1527.06,422.2c-5.62,35.73-14,71-22.11,106.26l-40.58,195.27c-2.82,19.36-10.09,36.45-25.34,49.41-3.39,2.87-6.54,6.2-11.57,6.07-2-.06-1.06,2.39-2.21,3.19-12.1,8.39-26,9.8-40.07,9.87-33.85.17-67.7.16-101.55.16q-111,0-221.94-.1c-2.88,0-5.76-.29-8.65-.44-8.43.15-16.86.26-25.31.45A27.53,27.53,0,0,0,1001,819.78c0,6.51-.15,13,.06,19.53.1,3.47-.38,5.19-4.6,5l-73,.16c-3.54.08-4.7-1-4.54-4.46.29-6.52.26-13,.26-19.55S912,802.31,912,802.31c-4.34-7.95-12.87-10.07-21.93-10q-83.71.22-167.46.13-93.89,0-187.77-.14c-15.19,0-29.82-2.11-42.6-11.28-13.5-8.12-24.28-18.63-29.8-33.78-4.58-8.85-5.73-18.68-7.78-28.23l-61.1-292c-4.94-29,7.75-58.31,35.72-75.83,5.54-3.77,18-7.26,18-7.26,30.58-7.95,61.06-16.31,91.66-24.29,12.91-3.37,22.18-10.37,25.69-23.65a55.8,55.8,0,0,0,.86-13.11c-.64-10.93-.84-10.85,10.28-12.94,20.39-3.85,40.83-7.51,61.12-11.86,5-1.08,6.15.14,7.21,4.55,2.21,9.18,5.32,18.15,12.4,24.9,9.23,8.79,20.35,11.22,32.82,9.56C765.55,286.92,842.07,280.36,919,278.7l73,0c79.6,1.12,158.76,7.87,237.64,18.26,16.15,2.14,29.06-2.48,38.72-15.5a97.15,97.15,0,0,0,5.45-12.29c.71-2.3,2.17-4.45,2.45-6.75.55-4.55,2.25-5.06,6.69-4.14,21,4.27,42.18,8.08,63.3,11.87,10.44,1.87,10.09,1.61,8.49,12.27a107.29,107.29,0,0,0-.58,11.86c2.4,14.63,21.24,23.61,21.24,23.61,21.61,5.94,43.28,11.6,64.91,17.45,12.09,3.28,24.11,6.84,36.23,10l11,4.66C1513.88,363.24,1531.54,393.54,1527.06,422.2Z"/><path class="cls-1" d="M524.94,302.16c-2,.11-3.59.41-4-1.53a2.8,2.8,0,0,1,2.41-3.7c8.92-1.81,17.84-3.64,26.77-5.4,1.63-.32,3.41-.73,3.81,1.84.35,2.24-1.17,3.26-2.74,3.59C542.28,298.84,533.34,300.52,524.94,302.16Z"/><path class="cls-1" d="M370.52,338.87c2.06,0,3.4.39,3.83,2.66s-.79,2.71-2.7,3.21c-8.4,2.21-16.76,4.58-25.08,7-1.73.52-3.28,1.33-4.25-.83s.28-3.35,2-3.91C353.05,344.25,361.79,341.58,370.52,338.87Z"/><path class="cls-1" d="M395.89,747l-19.17-9.78c-2.23-3.68-10.23-2.61-8.11-9.86,10.4,1.94,18.47,8.68,27.45,13.52C398.94,742.45,397.48,745,395.89,747Z"/><path class="cls-1" d="M298.9,693.9c-2.93-2.37-5.9-4.7-8.77-7.13-1.69-1.43-3.22-3.64-1.54-5.36,1.53-1.56,3.75-.13,5.29,1.34,5.22,5.49,12.82,7.28,18.59,12,1.92,1.55,4.68,3,3.06,5.42-1.44,2.18-3.82-.17-5.66-1C306.2,697.41,302.56,695.65,298.9,693.9Z"/><path class="cls-1" d="M267.64,399.87c-3-.48-2.77-2.72-1.92-4.34A80.84,80.84,0,0,1,283.37,373c.78-.71,2.29-1.5,3.15-.23.58.84.93,2.63.43,3.29-5.71,7.69-11.59,15.25-17.48,22.8C269.07,399.36,268.25,399.55,267.64,399.87Z"/><path class="cls-1" d="M330.08,356.93a7.23,7.23,0,0,1-3,1.6c-8.07,2.45-16.14,4.9-23.85,8.38-1.41.63-3.42,1.52-4.31-.7a3.14,3.14,0,0,1,1.41-3.81c8.62-5.12,18.56-6.47,27.89-9.55C329.43,352.44,330.38,353.58,330.08,356.93Z"/><path class="cls-1" d="M506.14,301.71a2.84,2.84,0,0,1,2,2.29c.47,2.12-.95,3-2.79,3.38-8.67,2-17.32,4-26,5.9-1.66.37-3.61.5-4-1.83-.29-1.95.9-3.1,2.81-3.52C486.91,306,495.57,304.07,506.14,301.71Z"/><path class="cls-1" d="M356.68,720.69c-.16,2.37-1.73,2.63-3.08,2q-12.6-6.13-25-12.58c-1.44-.75-1.55-2.36-1-3.84s1.81-1.55,2.92-1q12.69,6.81,25.28,13.79C356.25,719.37,356.44,720.25,356.68,720.69Z"/><path class="cls-1" d="M419.35,327.63c-9.46,5.44-19.82,7.89-30,10.77-1.18.33-2.6.08-2.7-1.45-.05-.78.65-2.19,1.27-2.36C398.24,331.7,408.32,327.54,419.35,327.63Z"/><path class="cls-1" d="M1578.76,348.2c7.76,2.55,16.22,5.26,24.63,8.15,1.74.6,3.79,1.55,3,4.14s-2.76,1.84-4.69,1.26c-8.05-2.45-16.14-4.79-24.21-7.17-2.4-.71-3.76-2.31-3.44-4.8C1574.35,347.09,1576.42,348.23,1578.76,348.2Z"/><path class="cls-1" d="M1469.88,321.85c-9.58-2.78-17.89-5.14-26.15-7.66-1.63-.5-3.08-1.77-2.6-3.78.54-2.32,2.41-1.91,4.09-1.48,8.38,2.13,16.76,4.22,25.11,6.48,1.85.5,3.85,1.62,3,4.07C1472.6,321.6,1470.81,322.25,1469.88,321.85Z"/><path class="cls-1" d="M1531,333.87l29.62,8.68a2.49,2.49,0,0,1,1.9,3.3c-.5,2.06-2,2.7-3.86,2.15q-13.19-3.84-26.34-7.79c-2-.6-2.45-2.21-2.09-4C1530.47,334.86,1531.23,334,1531,333.87Z"/><path class="cls-1" d="M1662,423.13c-.58,1.87,1.46,5.32-2.17,5.74s-2.92-2.87-3.38-5.17c-1.42-7.09-3-14.16-4.58-21.21-.52-2.3-2.21-5.22.85-6.25,2.54-.86,3.16,2.29,3.92,4.23A79.7,79.7,0,0,1,1662,423.13Z"/><path class="cls-1" d="M1645.63,382.81a3.17,3.17,0,0,1-1.63,3,2.63,2.63,0,0,1-3.84-.65c-5-7.67-12-13-19.93-17.24a2.28,2.28,0,0,1-1-3.11,1.69,1.69,0,0,1,2.42-.74c9.27,3.84,17.27,9.37,23.32,17.5A9.13,9.13,0,0,1,1645.63,382.81Z"/><path class="cls-1" d="M1396.71,299.6c.13-1.63.58-2.85,2.65-2.3,8.82,2.37,17.65,4.69,26.46,7.11,1.77.48,3.16,1.81,2.49,3.74-.77,2.18-3,1.31-4.38,1-8.2-1.84-16.36-3.89-24.53-5.88A3.14,3.14,0,0,1,1396.71,299.6Z"/><path class="cls-1" d="M438.81,756.58c-.5,2.59,2.28,9.36-1.46,11.51-4.16,2.39-9-2.84-13.35-5.12-4-2.11-8.06-4.29-12-6.66-1.94-1.18-5.09-2.52-3.34-5.35,1.44-2.33,4.45-1.37,6.61-.23,4,2.14,7.92,4.57,11.9,6.82,1.82,1,3.6,3.31,5.73,2.07,1.76-1,.67-3.52.74-5.36.16-3.85.07-7.71.24-11.56.06-1.49.73-2.89,2.59-2.81s2.26,1.56,2.28,3.05C438.85,746.8,438.81,750.65,438.81,756.58Z"/><path class="cls-1" d="M479.47,788.38c-.66,2.44-1.71,3.8-4.17,2.47-8.25-4.44-16.52-8.86-24.7-13.44-1.36-.76-2.9-2-1.48-4.09a3,3,0,0,1,3.81-1.25q12.42,6.57,24.66,13.51C478.5,786.09,478.9,787.5,479.47,788.38Z"/><path class="cls-1" d="M492.64,794c2.42,1.14,5.09,2.24,7.61,3.61,5.44,2.95,10.84,6,16.16,9.12,1.88,1.11,3.75,2.79,2.22,5.27-1.34,2.16-3.35,1.19-5,.27-7.41-4-14.82-7.93-22.16-12-1.39-.77-3.06-1.8-2.3-3.94A3.32,3.32,0,0,1,492.64,794Z"/><path class="cls-1" d="M556.6,822.94a71.65,71.65,0,0,1-23.72-2.27c-1.39-.38-3.85-.8-3.11-3,.49-1.49,2.19-2.33,4.18-2,8.53,1.23,17.08,2.36,25.62,3.51,2.06.27,5-.17,4.33,3.12-.58,2.87-3.06.64-4.65.85A7.46,7.46,0,0,1,556.6,822.94Z"/><path class="cls-1" d="M439,711.51c0,4.34.05,8.67,0,13,0,1.69-.18,3.57-2.56,3.55s-2.62-1.61-2.62-3.47q0-13.37-.06-26.73c0-1.77.18-3.61,2.45-3.61s2.66,1.69,2.66,3.54q0,6.86,0,13.72Z"/><path class="cls-1" d="M781.21,818.86c2.39-.12,6.48-.38,10.58-.5,1.7-.05,4.16-1.14,4.11,2.18,0,2.33-1.67,2.59-3.49,2.59q-13.38,0-26.76,0c-1.53,0-3.11-.08-3.3-1.91-.25-2.48,1.63-2.43,3.4-2.41C770.33,818.89,774.91,818.86,781.21,818.86Z"/><path class="cls-1" d="M824.47,821.24h-13c-1.52,0-3-.15-2.94-2.2a2.52,2.52,0,0,1,2.71-2.69c9.37-.46,18.74-.88,28.11-1.35,2-.1,2.41,1.23,2.6,2.71.29,2.28-1.12,2.9-3.06,2.9H824.47Z"/><path class="cls-1" d="M872.44,818.35H859.5c-1.72,0-3.52,0-3.6-2.43-.08-2.57,1.83-2.24,3.49-2.32,8.37-.39,16.74-.89,25.12-1.19,1.9-.07,4.71-1,4.76,2.52.05,3.3-2.48,2.93-4.61,2.94-4.08,0-8.15,0-12.22,0Z"/><path class="cls-1" d="M593.88,824c-4.81,0-9.63.07-14.44,0-1.62,0-3.64-.13-3.4-2.62s2.36-2,3.87-2q14.07-.06,28.15.08c1.58,0,3.7-.32,3.83,2.12s-1.95,2.42-3.57,2.45c-4.81.09-9.63,0-14.44,0Z"/><path class="cls-1" d="M733.65,819.27c4.57,0,9.15,0,13.72,0,1.56,0,3.66-.44,3.83,2.06s-1.72,2.58-3.43,2.59c-9.14.08-18.29.08-27.43.14-2.16,0-4-.43-3.65-3.11s2.46-1.55,4-1.57c4.34,0,8.67,0,13,0Z"/><path class="cls-1" d="M640.33,819.34c4.59,0,9.18-.07,13.77,0,1.5,0,3.85-.64,3.76,2a2.89,2.89,0,0,1-3,2.64q-14.49.06-29,0c-1.87,0-2.49-1.16-2.44-2.8.06-2.16,1.66-1.86,3.08-1.86h13.77Z"/><path class="cls-1" d="M686.07,819.3c4.55,0,9.1,0,13.64,0,1.56,0,3.7-.44,3.76,2.07.06,2.16-1.59,2.69-3.44,2.69-9.1,0-18.2,0-27.3,0-2.25,0-4-.87-3.65-3.25s2.55-1.42,4.06-1.44c4.31,0,8.62,0,12.93,0Z"/><path class="cls-1" d="M1655.29,655.55c-2,.85-3,3.88-5.81,2.63s-.36-3.15-.5-4.74c4-6.78,5.18-14.45,7.12-21.9.51-2,.25-5,3.47-4.29,2.83.64,2.06,3.34,1.83,5.45C1660.55,640.63,1657,647.85,1655.29,655.55Z"/><path class="cls-1" d="M1657.94,589.09q.7-5.4,1.42-10.8a5.42,5.42,0,0,1,3.62,4.91c.91,9.36.11,18.71-.14,28.06-.06,2.21-1.3,3-3.26,2.78-2.14-.25-1.56-2-1.57-3.35C1658,603.49,1658,596.29,1657.94,589.09Z"/><path class="cls-1" d="M281.05,671.76c-4.4.8-5.73-2-7.63-4-5.57-6-8.15-13.44-10.5-21-.45-1.45-1.41-3.45,1-4.2a2.87,2.87,0,0,1,3.58,1.74C270.34,654.09,277.07,662.12,281.05,671.76Z"/><path class="cls-1" d="M262,612.4c.42,5.42.71,9.72,1.1,14,.14,1.5.31,3.11-1.52,3.46s-3.24-.62-3.34-2.73c-.43-9.09-.89-18.17-1.23-27.26a2.94,2.94,0,0,1,3.1-3.26c2.41.16,1.85,2.38,1.87,3.94C262,604.89,262,609.2,262,612.4Z"/><path class="cls-1" d="M1397.55,809.89c2.16.34,5.34-1.88,6.29,1.15s-2.72,3.36-4.56,4.51c-6.72,4.22-14.64,5.35-21.87,8.29-2.82,1.38-4.84.71-5.49-2.46-.58-2.82,1.36-3.39,3.65-4.06C1383,815.16,1391,814.61,1397.55,809.89Z"/><path class="cls-1" d="M1108.37,817.06c4.8.29,9.61.71,14.42.81,2.39,0,3.86,1,3.8,3.23-.07,2.78-2.47,1.58-3.84,1.54-8.91-.31-17.81-.75-26.71-1.19-1.66-.08-3.56,0-3.56-2.51,0-2.78,2-2,3.6-2h12.28Z"/><path class="cls-1" d="M1051.61,818.29c-3.2-.88-6.53-1.7-2.9-5.93,8.85.7,17.69,1.43,26.54,2.08,2.43.18,5.37,0,5.12,3.41s-3.31,1.8-5.06,1.73C1067.41,819.3,1059.51,818.75,1051.61,818.29Z"/><path class="cls-1" d="M1156.14,819.17c4.59,0,9.18,0,13.78,0,1.64,0,2.94.47,2.88,2.33,0,1.65-1,2.55-2.81,2.54-9.18,0-18.37-.08-27.55,0-1.85,0-2.68-.78-2.79-2.48-.18-2.69,1.76-2.32,3.44-2.31h13.05Z"/><path class="cls-1" d="M1248.92,819.28c4.57,0,9.15,0,13.72,0,1.58,0,3.72-.32,3.62,2.24-.07,1.67-1.43,2.43-3,2.44-9.39,0-18.78,0-28.16.11-2.09,0-3.24-.94-3.12-3s1.94-1.61,3.25-1.62c4.57,0,9.15,0,13.72,0Z"/><path class="cls-1" d="M1342.08,824c-4.35,0-8.7,0-13,0-1.85,0-3.48-.24-3.69-2.45-.3-3,2-2,3.45-2,8.94-.11,17.87-.2,26.81-.21,1.54,0,3.7-.56,3.75,2.06,0,2.32-1.71,2.59-3.51,2.59Z"/><path class="cls-1" d="M1203.27,819.31c4.57,0,9.14,0,13.7,0,1.41,0,3.1-.13,3.24,1.87.16,2.23-1.45,2.82-3.28,2.83-9.13,0-18.27,0-27.4,0-1.94,0-3.39-.43-3.51-2.58-.14-2.85,2-2,3.54-2,4.57,0,9.14,0,13.71,0Z"/><path class="cls-1" d="M1296,819.24c4.09,0,8.17,0,12.25,0,1.62,0,3.71-.37,3.79,2.1.07,2.13-1.47,2.67-3.41,2.66-8.89,0-17.79,0-26.68.1-2.25,0-3.08-1-2.91-3,.18-2.21,2-1.52,3.26-1.53,4.57,0,9.14,0,13.7,0Z"/><path class="cls-1" d="M1587.68,713l-2.92,1.81c-2.54-.21-5.6,4.14-7.34.38s3-5.21,5.07-7.5c5.86-3.17,11.66-6.45,17.6-9.45,1.87-.94,4.31-3.76,6.14-.66s-.6,5.14-3.34,6.68c-4.14,2.34-8.17,4.89-12.25,7.36Z"/><path class="cls-1" d="M1643.51,671.53a18.81,18.81,0,0,1-1.71,3.48,88.31,88.31,0,0,1-18.33,17.21c-1.56,1.07-3.58,2.4-5.11.36s.21-3.63,1.69-4.85c6.52-5.34,12.83-10.88,18.18-17.45a2.83,2.83,0,0,1,3.82-.93C1642.73,669.76,1643,670.79,1643.51,671.53Z"/><path class="cls-1" d="M1486.18,726.54c-3.67,3.69-4.72,1.58-4.92-2.25-.49-10-.82-20,.22-29.94,3.92-.44,4.78,1.68,4.73,5.13C1486.08,708.5,1486.18,717.52,1486.18,726.54Z"/><path class="cls-1" d="M1559.53,720.11c2.48-.42,5.73-2.31,7,.92,1.34,3.41-2.62,4.08-4.64,5.25q-9.32,5.41-19,10.17c-1.8.89-4.46,3.6-6.08.3-1.14-2.31,1.44-3.58,3.36-4.68,4.15-2.37,8.23-4.87,12.33-7.32Z"/><path class="cls-1" d="M1240.92,274.23c-7.87-1.17-16.21-2.39-24.53-3.66-1.57-.24-3.76-.08-3.24-2.69.41-2.07,1.55-3.33,4.08-2.93,8.32,1.32,16.66,2.51,25,3.71,2.35.33,4.51,1,3.92,3.91S1243.16,274.14,1240.92,274.23Z"/><path class="cls-1" d="M1145.45,262.82c-6.5-.56-13-1.09-19.5-1.7-2.4-.23-5.49-.39-5.23-3.64s3.37-2,5.28-1.91c8,.5,15.89,1.21,23.84,1.87,2.2.18,4.85.33,4.47,3.36s-3.17,2.14-5.23,2.09c-1.21,0-2.41-.12-3.62-.19Z"/><path class="cls-1" d="M1043.2,251.15c5.56.31,10.12.59,14.67.8,1.84.08,3.48.42,3.55,2.62s-1.63,2.69-3.44,2.63c-8.89-.29-17.79-.59-26.67-1-1.65-.07-3.57-.24-3.52-2.64.07-3,2.23-2.47,4.16-2.45C1036,251.18,1040.12,251.15,1043.2,251.15Z"/><path class="cls-1" d="M1190.61,267.33c-5.77-.7-12.94-1.53-20.09-2.47-1.82-.24-4.26-.22-4-3s2.71-2.16,4.52-2c7.9.68,15.81,1.37,23.7,2.25,2.12.23,5.59-.53,5.19,3.21s-3.78,1.5-5.8,2A20,20,0,0,1,1190.61,267.33Z"/><path class="cls-1" d="M1091,253.74c4.31,0,8.63-.05,12.94,0,2.69.05,5,.95,4.44,4.18-.49,3.05-3,1.47-4.63,1.42-7.91-.27-15.81-.68-23.72-1.06-2.41-.12-5.3,0-5-3.56s3.31-1.83,5.16-1.93c3.58-.2,7.18-.06,10.77-.06Z"/><path class="cls-1" d="M662.18,275.5c-2.94.62-4.92-.89-5-3.61-.1-3,2.82-1.86,4.42-2.06,8.36-1,16.75-1.9,25.14-2.75,1.56-.16,3.52-.78,3.89,1.81s-1.21,3.36-3.36,3.62Z"/><path class="cls-1" d="M859.44,251.77c4.08-.18,8.16-.37,12.24-.53,1.63-.07,3.5-.56,3.94,1.87a2.76,2.76,0,0,1-2.76,3.45c-9.1.54-18.22.91-27.33,1.24-2,.07-3-1.24-2.85-3.28s1.64-2.06,3.09-2.06c4.56,0,9.12,0,13.68,0C859.45,252.22,859.44,252,859.44,251.77Z"/><path class="cls-1" d="M774.82,257.14c1.44-.13,2.88-.22,4.31-.4,1.87-.24,3.34-.12,3.44,2.35.06,1.75-.67,2.93-2.28,3.08q-13.66,1.24-27.34,2.24c-1.68.13-2.63-1.09-2.89-2.65-.41-2.49,1.5-2.68,3.18-2.83,7.19-.65,14.38-1.21,21.58-1.81Z"/><path class="cls-1" d="M731.46,261.34c2.27.29,5-1.28,5.23,2.39.16,3.29-2.37,2.9-4.49,3.16-7.13.9-14.25,2-21.4,2.76-2.36.25-5.93,1.78-6.59-2-.76-4.35,3.21-3.12,5.5-3.44C717.07,263.12,724.45,262.24,731.46,261.34Z"/><path class="cls-1" d="M904,256.24c-3.61,0-7.22-.11-10.82,0-2.12.09-3.91.27-3.86-2.68.05-2.3,1.33-2.65,3.28-2.7,8.42-.22,16.84-.57,25.26-.83,1.69,0,3.79,0,3.83,2.18s-1.75,3.11-4,3.18c-4.57.15-9.14.44-13.71.68Z"/><path class="cls-1" d="M812.29,259.76l-12.95,1c-2.05.17-3.2-.64-3.23-2.81,0-1.81.92-2.59,2.61-2.69l27.42-1.51c2-.12,3.12.69,3.15,2.87,0,2.34-1.41,2.81-3.26,2.82-4.58,0-9.15,0-13.73,0Z"/><path class="cls-1" d="M1486.58,753.82c2.48,10.37-3.18,17.27-13.66,21.58-4.65,1.91-9,4.68-13.46,7-1.5.76-3.36,1.53-4.38-.58-1-1.95.43-3.1,2-4,6.33-3.47,12.48-7.32,19-10.28,3.83-1.73,4.8-4.07,4.74-7.82-.08-5.31.18-10.62.34-15.93,0-1.74.26-3.52,2.64-3.49,2.22,0,2.77,1.42,2.72,3.38C1486.53,746.55,1486.58,749.45,1486.58,753.82Z"/><path class="cls-1" d="M1418.51,798.36c1.18-.31,2.55-.28,3.1-1.72q8-4,16.09-8.06c2.12-1.06,5.12-3.17,6.44-.8,1.74,3.1-2.15,4.22-4.21,5.45-6,3.57-12.06,7-18.29,10.19-2.11,1.06-5.27,3.79-7,1.05S1416.86,800.26,1418.51,798.36Z"/><path class="cls-1" d="M1499.28,760.43c-2.1.28-3.21,0-3.27-1.06s.22-2.84.93-3.22c8.4-4.56,16.89-8.94,25.4-13.27a2.27,2.27,0,0,1,3.11.9,2.05,2.05,0,0,1-.29,1.94C1516.86,751.9,1507.28,755.76,1499.28,760.43Z"/><rect class="cls-2" x="1919" y="1079" width="1" height="1"/><rect class="cls-2" width="1" height="1"/><rect class="cls-2" y="1079" width="1" height="1"/><rect class="cls-2" x="1919" width="1" height="1"/></g><g id="Capa_3" data-name="Capa 3"><path d="M823.18,481.87v111H803.35V522.15l-19.51,14.91-16.18,12.53-16.17-12.53L732,522.15V592.9H712.15v-111L732,497.09l35.68,27.44,35.69-27.44Z"/><path d="M949.91,515.49a32.67,32.67,0,0,1-9.2,22.84,32.76,32.76,0,0,1-23.48,55.52H839V574h78.2a13.07,13.07,0,0,0,13-13A12.91,12.91,0,0,0,918,548H859V528.18h59a13,13,0,0,0-.63-26h-78.2V482.34h78.2A32.63,32.63,0,0,1,950.07,515Z"/><path d="M1076.79,481.87v111H1057V547.21H998.44a31.38,31.38,0,0,1-14.91-3.64,32.41,32.41,0,0,1-17.77-29V481.87h19.83v32.67a13.07,13.07,0,0,0,13,13h58.52V481.87Z"/><path d="M1203.68,515.49a32.67,32.67,0,0,1-9.2,22.84A32.76,32.76,0,0,1,1171,593.85h-78.19V574H1171a13.07,13.07,0,0,0,13-13,12.91,12.91,0,0,0-12.21-13h-59V528.18h59a13,13,0,0,0-.64-26H1093V482.34h78.2A32.63,32.63,0,0,1,1203.84,515Z"/></g></g></svg>