<svg xmlns="http://www.w3.org/2000/svg" viewBox="0 0 1920 1080"><defs><style>.cls-1{fill:#f2f2f2;}.cls-2{fill:#010101;}</style></defs><g id="Capa_2" data-name="Capa 2"><g id="Capa_1-2" data-name="Capa 1"><rect class="cls-1" x="1919" y="1079" width="1" height="1"/><rect class="cls-1" width="1" height="1"/><rect class="cls-1" y="1079" width="1" height="1"/><rect class="cls-1" x="1919" width="1" height="1"/></g><g id="Capa_3" data-name="Capa 3"><path class="cls-1" d="M305.38,399.07V615.28L295.54,620l-57.35,1.65s-9.93,1.13-9.93,20.94v98l12.88,12.86H452l39.28,59.71h107.4l20.86,18.23H738.73l1.56-4.95h473.25l4.35,4.17h118.87l21.38-17.34h108.45l38.93-57.56H1711.3l16.87-11.47V625.71s-6.62-4.54-21.39-4.54h-49.71l-6.35-14.93V398.38l-171.09-69.69-192.57-53.88-150.51-24.33-178.32-5.91L787.91,255,615.5,287.67,445.88,339.08Z"/><path class="cls-2" d="M1210.67,822.42c3.29,0,6.87-1.15,9.83,1.43.07,5.52.32,11,.13,16.54-.14,4,.94,5.51,5.32,5.37,38.88-1.17,77.76-.51,116.65-.28,16.68.1,16.68.11,22.75-15.36,2.89-1.65,6.06-1.44,9.2-1.44q54.38,0,108.75,0c16.17,0,15.88,0,16.3-16.36.31-11.71-2-23.6,1.9-35.13,3.92-.23,7.84-.65,11.76-.66,36.49,0,73,0,109.47,0,28.07,0,56.15-.24,84.22-.37,13.65.11,27.29,0,40.93.42,4.61.13,5.71-1.47,5.69-5.84q-.27-78.33-.23-156.66c.22-1.06.14-1.88-1.28-1.71l-50.49.22-30,0-3.17-.21c-4.19-1.58-4.54-5-4.55-8.83,0-14.54-.22-29.07-.35-43.61,0-2,0-4,0-6l0-.24c.1-16.3.43-32.59.19-48.88-.11-7.45,1.88-10.67,10.22-10.48,24.17.57,48.37.11,72.56.34,4.41.05,5.94-.92,5.69-5.56-.42-7.87-.85-15.85.06-23.63,1.06-9.16-2.4-13.8-10.47-18.13C1715,432.91,1688,419,1660.6,405.7c-6-2.93-7.71-2.05-7,4.72a115.34,115.34,0,0,1,.09,17.34c-.1,2.32.69,6.16-2.9,6.24-3.84.1-2.9-3.65-3-6.08-.16-7.36-.45-14.73-.08-22.07.24-4.73-1.61-6.88-5.81-8.74-107.43-47.76-217.94-86.47-332.42-113.55a1343.35,1343.35,0,0,0-189.29-30.45c-49.25-4.43-98.65-5.37-148.1-4.83l-22.22-.07a1392.33,1392.33,0,0,0-176.7,12.88A1540.71,1540.71,0,0,0,550,309.51a1832.65,1832.65,0,0,0-235.59,87c-4.53,2-6.31,4.3-6,9.36.51,7.32.1,14.71,0,22.07,0,1.93.68,4.55-2.6,4.67-3.09.11-3.21-2.46-3.26-4.41-.14-6.31-.24-12.63.12-18.92.3-5.25-.3-7.38-6.21-4.45-29.36,14.54-58.79,28.92-87,45.73-3.7,2.2-5,4.78-4.9,8.9.23,9.2.45,18.42,0,27.6-.32,6.3,1.79,7.76,8,7.64,23.39-.45,46.8-.16,70.2-.27,7.1,0,10.53,1.8,10.37,10.3-.59,31.54-.2,63.09-.22,94.64,0,12.22-.41,12.66-12.94,12.85s-25.22.16-37.83.23c-6-.08-12-.37-18-.17-6.69.22-15.81-3.29-19.38,1.21-3.32,4.18-.58,13-1.05,19.68-.33,4.62,1.25,6,5.71,5.67,8.78-.57,17.59-.73,26.38-1.06,27.37,1.35,54.74,1,82.11.31a170.46,170.46,0,0,0,27.58.35c4.35,1.57,3.37,5.39,3.41,8.59.23,15.83-.76,31.67.45,47.49-.19,12.52-.6,25-.47,37.56.06,6.07-1.57,8.94-8.31,8.55-8-.46-16.15.11-24.23.24-8.13-.08-16.25-.19-24.37-.24q-26-.14-51.93-.21c-1.77,0-4.05-.57-4.91,1.48s1.29,3.19,2.37,4.57c3.47,4.4,8.36,4.84,13.49,4.89,2.05,0,5.34-1.21,5.38,2.58s-3.16,3.65-5.76,3.5c-3.88-.23-7.75-.77-11.63-1.17-4.61-2.66-8.51-6.07-11-10.86-2.1-4.06-20.41-7.31-23.4-3.93-.72.81-.78,2.4-.79,3.64-.07,8.9.09,17.82-.15,26.72-.11,3.95,1.53,4.88,5.12,4.72,8.36-.39,16.74-.48,25.11-.69,29.65.72,59.29.78,88.94-.2,32.54.9,65.09.73,97.64.18,9.18.19,18.37.63,27.55.47,6.33-.11,9,2.13,8.84,8.73-.35,11-.15,22.06,0,33.09.13,12.32-1.65,10.53,10.19,10.55,37.83.07,75.66,0,113.5,0,3.9,0,7.91-.49,11.54,1.59,4.29,15.45,4.29,15.32,20.08,15.25,36.25-.17,72.5-.38,108.75-.23,15.61.07,15.61.45,14.64-15.22-.65-6.83,3-7.86,9-7.85ZM747.31,828.6c-1.53,0-3.76-.59-4.32,1-1.6,4.5-1.24,9.38-.56,13.92.64,4.21,4.77,2,7.25,2.06l453.29.08c12.34,0,12.21.21,11.49-12.64-.18-3.36-1.11-4.5-4.56-4.48ZM231,674c-4,.92-5.2-1.31-5.28-4.69-.16-6.55-.37-13.1-.28-19.65,0-3.45-.62-5.35-4.71-5.18-8.9.35-17.83.48-26.74.35-3.89-.06-5.54.74-5.51,5.15q.22,39.74-.14,79.47c0,3.9,1.34,4.91,5,4.8,10.48-.29,21-.31,31.44-.44h94.63c6.26.13,12.51.24,18.77.4,2.64.07,4.57-.37,4.44-3.76-.29-7.8-.38-15.6-.55-23.41q.29-24.74.58-49.49c.15-12.92.14-12.86-12.75-12.84-30.68.07-61.37.18-92.05,0-5,0-7,.95-6.59,6.49C231.79,658.76,231.18,666.39,231,674Zm367.9,184.46c-7.81,0-13.09-2.14-14.14-10-.89-6.74-4.49-7.33-10.2-7.29-39.16.23-78.32.15-117.49.13-11.36,0-11.36-.06-13-11.13.16-6.76.69-13.54.37-20.27-.33-6.89,3.45-16.59-1.25-19.92s-13.94-.77-21.18-.77H316.28l-78.87-.05c-12.09-.07-24.17-.33-36.25-.13-6.76.11-10.17-1.82-9.76-9.45.55-10.22-.39-20.52.22-30.74.41-6.86-1.22-9.33-8.49-8.55-7.54.8-15.23.1-22.85.25-4.08.08-6.29-1-6.27-5.72q.18-45,0-89.9c0-4.62,1.6-6.63,6.43-6.47,7.35.24,14.76-.56,22.06.1,7.54.69,9.64-2.12,9.09-9.28s.17-14.72-.13-22.06c-.21-5.37,1.67-7.53,7.2-7.52,12.34,0,24.67-.5,37-.79l42.75.58c1.06.29,1.78.1,1.73-1.2.21-28.87.33-57.75.7-86.62.07-5.57-3.29-4.75-6.75-4.75-23.66.06-47.33.11-71,0-10.64,0-11-.43-10.9-11.22V434S205.92,421.9,213,418.24c98.4-51.21,200.1-94.52,305.87-128.15,74.44-23.67,150.39-40.54,227.66-51.83a1611.11,1611.11,0,0,1,203.3-16.71l16.87.14s102.08-.14,209.88,12.1c70.71,8.47,140.51,21.67,209.11,40.81,127.56,35.58,249.1,86.09,366,148.06,0,0,14.31,8,14.31,11.35s-1.35,57.22-1.35,57.22c0,15.72,0,15.75-16.05,15.77-21.82,0-43.65.2-65.47-.12-5-.08-7,.68-6.87,6.22.44,15.23.31,30.48.4,45.72-.11,12-.11,24-.38,36.07-.08,3.67,1,5.08,4.85,4.94,12-.45,24-.56,36-.81,12.86.22,25.73.82,38.57.49,7.68-.19,10.19,2.93,10.15,10.16-.14,22.59.08,45.18.1,67.78q0,48.46,0,96.94c0,14.5-.11,14.55-14.36,14.54q-113.5,0-227-.06c-12.47,0-12.51,0-12.45,12.15,0,9.71.21,19.42.32,29.13-.84,11.09-.84,11.13-12.07,11.14-40.22,0-80.44.19-120.66-.17-7.44-.07-7.29,5.15-7.94,9.22,0,0-5.23,7.65-28,7.65Zm1152.9-413c1.88-6.68-1.29-9.71-6.23-12.17-21.1-10.5-42-21.51-63.2-31.7-102.3-49.11-207.33-91-317.33-119.68-67.11-17.5-135.2-29.53-204.1-37.37-33.15-3.77-66.38-6.52-99.65-8.7-32-2.09-64.08-2.39-96.15-2.11-2.89,0-5.07,0-5.08,4s2.18,4.2,5.07,4c1.31-.07,2.63-.07,3.94-.08,81.3-.77,162.27,3.54,242.64,16.31a1490.55,1490.55,0,0,1,217,51.72c97,30.77,191.72,67.06,282.26,113.75C1724.63,430.45,1738,438,1751.84,445.43Zm-830-211.68c-43.05,2.61-86,5.9-128.81,10.88-57.65,6.7-114.78,16.24-171.22,29.68C501.39,303,386.61,347.33,275.28,401c-22.43,10.81-44.84,21.7-66.54,34-3.36,1.91-6,5-4.11,8.2s4.87-.15,7-1.37A1211.44,1211.44,0,0,1,327,384c126.64-55.1,257.34-97,393.62-120.77a1375.69,1375.69,0,0,1,158.71-18.56c23.88-1.36,47.77-2.5,71.7-2.55,3.25,0,5.55-.38,5.72-4.5.21-4.85-2.89-3.89-5.72-3.88C941.31,233.77,931.59,233.75,921.86,233.75Zm-739.68,456h0c0-13.39-.18-26.79.07-40.17.12-6.67-4.64-4-7.66-4.45-3.33-.47-5.9-.33-5.85,4.65q.33,39.38-.07,78.76c0,4.42,1,6.26,5.61,5.7,3.9-.47,8.36,1.34,8-5.9C181.74,715.47,182.18,702.58,182.18,689.72Z"/><path class="cls-2" d="M1697.45,693.16c-5.19,24.06-24.36,35.81-46.31,28.07-12.59-4.44-18.31-14.66-21.16-27-1.65-28.86,23.58-42.8,44-36.27C1688.57,662.7,1696.55,674.44,1697.45,693.16Zm-34.12-30.42a26.86,26.86,0,0,0-26.82,27.07c.07,15.47,12.36,27.71,27.53,27.41a27.37,27.37,0,0,0,26.93-28.1C1690.76,674.49,1678.4,662.68,1663.33,662.74Z"/><path class="cls-2" d="M1443.6,816.17c-4.73,0-9.46,0-14.19,0-1.79,0-3.79.32-4-2.48-.18-2.56,1.4-3.3,3.37-3.3q15.36,0,30.74.23c1.48,0,3.33.61,3.08,2.76a3,3,0,0,1-3.24,2.74H1443.6Z"/><path class="cls-2" d="M1487.24,775.51c2.59-2.24,5-3.29,6.8.86-2.89,10.68-10.67,18.28-17,26.77-.86,1.16-2.49,2.34-4.11,1.31-2.18-1.38-1-3.32-.11-4.81C1477.56,791.56,1482.42,783.55,1487.24,775.51Z"/><path class="cls-2" d="M1392,816.09c-4.47,0-8.93-.05-13.39,0-2.3,0-4.42-.22-4.42-3.06,0-2.5,2.12-2.7,4-2.7q14.17,0,28.35.11c1.89,0,4,.26,4.07,2.66.07,2.86-2.16,3.09-4.42,3.07-4.73,0-9.45,0-14.18,0Z"/><path class="cls-2" d="M1648,516.69c0-4.73-.09-9.46,0-14.18,0-1.77.18-4,2.79-3.86,2.17.12,2,2.13,2.12,3.61a156.51,156.51,0,0,1,.22,29.12c-.11,1.62.23,4.22-2.45,4.14s-3-2.45-3-4.64c0-4.73,0-9.46,0-14.19Z"/><path class="cls-2" d="M1351.32,824c-4.85,3.25-7.74,9.32-14.08,10.31-3.85.61-8.75,1.41-6-5.55,5.34-.43,9-3.81,12.59-7.26a79.2,79.2,0,0,1,6.24-5.93c2.9-2.22,6.36-7.53,9.55-4.25,4.29,4.41-3.41,5.37-4.81,8.52C1354.07,821.46,1352.5,822.67,1351.32,824Z"/><path class="cls-2" d="M1714.11,757.43c-3.14,0-6.28.1-9.42.08-2,0-4.6.52-4.89-2.48-.33-3.42,2.3-3.56,4.76-3.65,7.81-.26,15.34-1.09,19.3-9.3a3.71,3.71,0,0,0,.22-.76c2-1.15,2.64-5.57,5.9-3.12,2.65,2,.69,5-.48,7.07C1726.1,751.39,1720,754.35,1714.11,757.43Z"/><path class="cls-2" d="M308.59,601.43c0,.54.05,1.08.07,1.62-.93,14.9-5.66,20.6-17.4,21.12-2.73.12-6,.22-6.2-3s3.44-2.58,5.54-2.79c8.18-.83,11.92-5,12-13.38C302.61,598.44,303.83,598,308.59,601.43Z"/><path class="cls-2" d="M1654,465.37c-.23,5.22-.41,10.45-.75,15.66-.1,1.6-.74,3.28-2.78,3.05-1.7-.2-2.63-1.38-2.63-3.27q0-14.91,0-29.84c0-2,1-2.83,2.86-2.82,2,0,2.67,1.35,2.68,3.09,0,4.71,0,9.41,0,14.12Z"/><path class="cls-2" d="M1728.31,725.18a5,5,0,0,1-3.38-3.88l0-8.17c0-1.27,0-2.54,0-3.82.14-6,.25-11.93.44-17.9.05-1.57.34-3.2,2.42-3.29,1.07,0,2.23.34,2.3,1.58C1730.7,701.58,1733.62,713.59,1728.31,725.18Z"/><path class="cls-2" d="M308.37,515.59c0,5,0,10,0,15,0,1.61,0,3.51-2.06,3.62a3.18,3.18,0,0,1-3.64-3.28q0-15.35.18-30.71c0-1.66.89-3,2.95-2.86s2.54,1.59,2.55,3.29C308.38,505.61,308.36,510.6,308.37,515.59Z"/><path class="cls-2" d="M1725.31,654.63c0-5,0-9.9,0-14.85,0-1.63.53-3.28,2.39-3.45s2.56,1.51,2.72,3.13a199.5,199.5,0,0,1,.25,31.21,2.86,2.86,0,0,1-3,2.94c-1.94-.11-2.47-1.68-2.48-3.34,0-5.21,0-10.42,0-15.64Z"/><path class="cls-2" d="M308.37,466.56c0,4.71,0,9.43,0,14.13,0,1.53.12,3.44-2,3.64-1.64.14-3.39-.92-3.48-2.52-.66-11-.86-21.93.44-32.85a2.2,2.2,0,0,1,2.9-1.87,2.81,2.81,0,0,1,2,3c.05,5.5,0,11,0,16.48Z"/><path class="cls-2" d="M1722,624.87c-10.43-.36-20.85-.68-31.27-1.11-2-.08-4.68.37-4.72-2.7,0-3.24,2.85-2.38,4.71-2.61,3.59-.45,7.22-.67,10.84-1,5.18.45,10.36,1.11,15.55,1.27C1721.43,618.89,1722.48,621.12,1722,624.87Z"/><path class="cls-2" d="M1653.87,554.47c-.87,9,1.19,18.2-1.14,27.18-.4,1.52.75,4.12-2.31,3.88-2.42-.19-2.55-2.22-2.57-4.1q-.16-12.88-.29-25.76c.88-2.24-.87-6,2.51-6.62C1654.05,548.3,1652.6,552.6,1653.87,554.47Z"/><path class="cls-2" d="M308.34,566.39c0,4.71,0,9.42,0,14.13,0,1.55,0,3.31-2.1,3.63-2.5.39-3.34-1.52-3.38-3.32-.22-9.94-.27-19.88-.3-29.81,0-1.66.71-3.09,2.71-3.13,2.42-.06,3.11,1.54,3.12,3.58,0,5,0,9.94,0,14.92Z"/><path class="cls-2" d="M1266.58,830.14c-.09,3.07-1.33,4.59-4.74,4.52-9-.19-18.09-.12-27.13-.06-4.13,0-5.73-1.67-4.38-5.74C1242.42,829,1254.6,826.74,1266.58,830.14Z"/><path class="cls-2" d="M1316.25,828.76c1.67,3.56.47,5.63-3.37,5.68-9.6.14-19.2.13-28.8.06-4.06,0-4.61-2.53-3.64-5.84Z"/><path class="cls-2" d="M235.85,625c-1.2-5.36,2-6.48,6.32-6.59,8.32-.09,16.64-.27,25-.23,1.85,0,4.7-.45,4.57,2.73-.12,2.86-2.62,2.76-4.7,2.84Q251.42,624.44,235.85,625Z"/><path class="cls-2" d="M512.09,816.14c-4.45,0-8.9,0-13.35,0-2,0-4.48.38-4.59-2.76-.09-2.89,1.86-3.34,4.2-3.3,9.16.14,18.32.18,27.47.42,1.95,0,4.72-.13,4.81,2.78.11,3.71-3,2.84-5.2,2.89-4.44.12-8.89,0-13.34,0Z"/><path class="cls-2" d="M464.15,772.53a7.43,7.43,0,0,1,4.64,3.26c4.92,7.42,9.89,14.81,14.63,22.34,1,1.55,2.81,3.91.22,5.49-2.26,1.38-3.91-.56-5.1-2.29-5.34-7.73-11.58-14.89-15.64-23.46C461.93,775.82,460.83,773.42,464.15,772.53Z"/><path class="cls-2" d="M561.62,816c-5,0-9.93.05-14.9,0-1.71,0-3.07-.74-3-2.74,0-1.61,1.28-2.26,2.6-2.42,10.68-1.24,21.37-.61,32.05-.09a2.3,2.3,0,0,1,2.17,2.74,2.91,2.91,0,0,1-3.22,2.7c-5.23,0-10.46,0-15.68,0Z"/><path class="cls-2" d="M623.9,828.78c.17,1.61,2.23,3.2,0,4.83-1.95,1.44-3.8,1-5.79,0-4.6-2.14-7.65-6.08-11.31-9.33-2.41-2.13-3.9-5.7-8-5.45.24-3.36-6.75-5-3.11-8.14,2.8-2.41,6.44,1.65,9.42,3.4C612,818.19,615.48,826.65,623.9,828.78Z"/><path class="cls-2" d="M422.18,757c-1.5-1.82-1.79-3.68-.19-5.61,7,0,14.07,0,21.11.05,3.66,0,7.31.61,10.45,2.65,2.27,1.47,4.4,3.71,3,6.46-1.61,3.27-4.36.59-6-.25C441.5,755.55,431.62,758.34,422.18,757Z"/><path class="cls-2" d="M724.94,828.58c2.16,3,2.27,5.76-2.13,5.87-10.15.25-20.31,0-30.46-.09-2.54,0-3.54-1.82-3.65-4.18,6.91-3.42,14.26-1.09,21.39-1.59C715,828.23,720,828.56,724.94,828.58Z"/><path class="cls-2" d="M676.51,830.13c0,3.42-2.22,4.32-5.14,4.33l-27.17,0c-4.05,0-5.82-1.67-4.25-5.79C652.14,829.15,664.44,826.74,676.51,830.13Z"/><path class="cls-2" d="M1617.24,751.21c4.46,0,8.93-.06,13.39,0,1.71,0,4-.51,4.19,2.23s-1.55,3.67-4,3.7c-9.71.11-19.43.17-29.14.33-2.41,0-3.38-1.21-3.28-3.34.11-2.37,1.8-2.88,3.85-2.86,5,0,10,0,15,0Z"/><path class="cls-2" d="M1519.73,751.19c4.37,0,6.71-.06,9,0,1.93.07,4.48-.76,4.29,2.74-.16,2.84-2.11,3.19-4.34,3.32-8.94.54-18.31-1.23-26.28,4.89-.64.49-3.14-.07-3.37-.69-.57-1.46.38-3,1.58-4.09C1506.65,751.76,1514,750.86,1519.73,751.19Z"/><path class="cls-2" d="M1566.63,751.19c4.73,0,9.45,0,14.18,0,1.77,0,3.83-.27,3.9,2.55.06,2.4-1.32,3.37-3.38,3.39q-15,.2-29.91.2c-2.32,0-3.22-1.5-3.11-3.62s1.73-2.38,3.36-2.39c5,0,10,0,15,0Z"/><path class="cls-2" d="M1666.2,757.47c-4.43,0-8.86-.11-13.29,0-2.52.08-4.12-.75-4.1-3.37,0-3,2.39-2.85,4.5-2.86l27.36,0c1.79,0,3.81-.31,3.8,2.51,0,2.31-1.35,3.33-3.42,3.37-5,.08-9.9,0-14.85,0Z"/><path class="cls-2" d="M1647.82,606.14c1-1.95-2.29-6.26,2.7-6.38,4.14-.11,2.75,3.9,2.92,6,.64,8.27,4.92,12.08,13.07,12.44,2.16.1,6.27-1.19,6.06,2.82s-4.21,3-6.87,3C1653.71,624.06,1647.86,618.2,1647.82,606.14Z"/><path class="cls-2" d="M321.72,757.34c-.34-1.48-.69-3-1-4.43,11.4-3.7,23.11-.77,34.65-1.55a2.18,2.18,0,0,1,2.61,2.21c0,2.58-1.74,3.65-4.11,3.69q-11.35.16-22.71.23C328,757.5,324.86,757.39,321.72,757.34Z"/><path class="cls-2" d="M389,757.42H375.64c-2.18,0-4.35,0-4.2-3.16.12-2.5,1.8-2.89,3.77-2.9q14.55-.08,29.11-.12c1.94,0,3.7.22,3.46,3-.22,2.44-1.89,3-3.82,3-5,.07-10,0-14.95,0Z"/><path class="cls-2" d="M292.78,723.25c-19.07-.07-33.29-14.35-33.29-33.43a33,33,0,0,1,33.61-33.28c19.19.09,33.67,14.67,33.83,34.06C327.08,708.82,311.91,723.32,292.78,723.25Zm.84-60.41c-15-.23-27.46,11.51-27.77,26.21-.32,14.9,12.13,28.08,26.8,28.37s27.55-12.4,27.9-27.35C320.88,675.7,308.38,663.06,293.62,662.84Z"/><path class="cls-2" d="M226.68,723.66c-1.87-12.8-3.23-25.59,1.21-38.19,3.07.86,3.58,3.07,3.56,5.95q-.12,14,.16,28C231.68,723.16,230.7,725,226.68,723.66Z"/><path class="cls-2" d="M288.43,751.26c4.71,0,9.42-.06,14.13,0,1.67,0,4.05-.56,3.84,2.4-.14,2-1.12,3.56-3.38,3.58q-14.91.12-29.82.14c-2.43,0-2.9-1.76-2.9-3.77,0-2.28,1.61-2.33,3.22-2.34h14.91Z"/><path d="M888.71,478V589H868.88V518.29L849.37,533.2l-16.18,12.53L817,533.2l-19.5-14.91V589H777.68V478l19.83,15.23,35.68,27.44,35.69-27.44Z"/><path d="M1015.44,511.63a32.67,32.67,0,0,1-9.2,22.84A32.76,32.76,0,0,1,982.76,590h-78.2V570.16h78.2a13.07,13.07,0,0,0,13-13,12.91,12.91,0,0,0-12.22-13h-59V524.32h59a13,13,0,0,0-.63-26h-78.2V478.48h78.2a32.62,32.62,0,0,1,32.67,32.67Z"/><path d="M1139.63,544a31.65,31.65,0,0,1,2.69,12.84,32.63,32.63,0,0,1-32.67,32.68h-78.2V569.68h78.2a12.93,12.93,0,0,0,12.84-13,12.76,12.76,0,0,0-11.42-12.85h-79.62V478.48h101.67v19.83h-81.84V524h59.64a32.16,32.16,0,0,1,28.86,19.83Z"/></g></g></svg>