<svg xmlns="http://www.w3.org/2000/svg" viewBox="0 0 1920 1080"><defs><style>.cls-1{fill:#f2f2f2;}</style></defs><g id="Capa_2" data-name="Capa 2"><g id="Capa_1-2" data-name="Capa 1"><rect class="cls-1" x="1919" y="1079" width="1" height="1"/><rect class="cls-1" width="1" height="1"/><rect class="cls-1" y="1079" width="1" height="1"/><rect class="cls-1" x="1919" width="1" height="1"/></g><g id="Capa_3" data-name="Capa 3"><path d="M1751.49,764.41a54.28,54.28,0,0,0-6.6-1.82c-11.39-1.52-19-5.05-17.65-19.48.85-9.36-6.56-14.66-17-15.39-8-.56-16.09-.35-24.13-.12-6.21.17-9.5-2-9-8.66.3-4,0-8.05,0-12.07q0-159.24.05-318.46c0-13.5-2.23-26-10.78-36.78-7.12-9-16.54-14.16-27.3-17.84-51.3-17.57-102.48-35.46-153.72-53.21-3.78-1.31-7.81-2-11.1-4.94a21.7,21.7,0,0,1,.37-4.22c4.78-16.7,4.82-16.75-11.08-21.27q-29.68-8.44-59.43-16.7c-11.67-3.25-11.67-3.19-16.45,8.78a11.77,11.77,0,0,1-1.76,2.39c-63.11-20-129.18-23-193.87-33.81-44.62-7.46-89.57-12.95-134.27-19.93-12.74-2-24-1.34-33.49,8.24a14,14,0,0,1-10.81,4.25H908.83a20,20,0,0,1-14.94-5.76c-6.12-5.73-13.44-7.89-22-7.89L776.4,203.59q-97.73,14.5-195.53,28.32c-16.1,2.27-30.87,8.6-45.67,13.39-3.16-1.58-3.4-4.28-3.87-6.58-1.45-7-5.35-8.63-12-6.65C496.29,239,473.2,245.84,450,252.15c-6.83,1.86-9.62,4.51-7.05,11.52,1.38,3.75,2.22,7.7,3.61,12.66-22.82,8.06-45.43,16.16-68.13,24-32.74,11.35-65.56,22.45-98.3,33.79-24.91,8.62-37,25.3-37.42,52.18-.37,25.65-.26,51.31-.27,77q0,123,0,246c0,2,0,4,0,6-.18,11.86-.19,11.86-12.73,12-6.53.09-13.11-.26-19.6.33-11.54,1-17.95,5.65-17.54,16.64.49,12.83-5.88,16.22-16.14,17.72a39.39,39.39,0,0,0-5.66,1.67c-5.67,1.66-6.76,10.08-6.76,10.08v25.89c.24,15,5.31,21.58,19.72,23.38,6.65.83,8,3.11,8.28,9.18,1,18.59,4.43,21.78,22.78,21.83,29.67.09,59.36.41,89-.34,16.21-.41,29.42,4.69,40.77,15.87,5.19,5.12,10.76,9.85,17.66,16.12,4.57,4.11,13.76,4.56,13.76,4.56h117.4a81.92,81.92,0,0,0,33.6-7c54.83-24.08,111.5-42.76,169.41-57.76,60.43-15.65,121.4-28.06,184.07-29.94,3.84-.12,9.15-2.78,11.26,1.25,4.26,8.1,11,5.62,17.06,5.24a761.13,761.13,0,0,1,102.54.07c3,.22,6,.16,9.06.22,2.6.05,5.54-.24,6.35-2.94,1.92-6.46,6.78-4.57,11.07-4.42,40.3,1.32,80.1,6.83,119.53,15,81.34,16.83,160.56,40.54,236.86,73.64,7.82,3.39,15.74,6.58,24.58,6.56,38.74-.09,77.48,0,116.23,0,11,0,20.66-3.82,29.2-10.56a86.25,86.25,0,0,0,10.27-8.87c12.16-13.22,27.15-17.54,44.84-16.94,26.14.88,52.32.35,78.49.41,4,0,8.06.1,12.07-.14,13.37-.79,17.39-5,18.29-18.65a31.13,31.13,0,0,0,0-4.53c-.4-4.89,1.5-6.65,6.65-7.6,17.44-3.21,21.18-7.82,21.3-25.07V770.67C1756.06,767.17,1751.49,764.41,1751.49,764.41ZM542.82,255.7c12.27-4.42,24.39-9.29,37.42-11.17q86.49-12.53,173-25.1C790.49,214,827.81,208.9,865,203c9.19-1.47,16.94-1.26,23.33,6,4.73,5.38,10.75,6.83,17.62,6.75l103,0c9.38.21,17.91-.85,24.75-8.4,4.71-5.19,11-6.2,18-5.15q116.27,17.42,232.57,34.58c16.9,2.5,33.81,5,50.77,7,14.66,1.72,28.18,7,42,11.72,6.12,2.09,5.55,5.27,4.41,10.31-1.36,6-4.93,5.34-9,4.31-45.81-11.69-92.24-20.25-138.87-27.84a1675.66,1675.66,0,0,0-182.92-19.6c-24.11-1.24-48.27-1.7-72.41-2.16l-20.35,0a1572,1572,0,0,0-179.71,9.44A1726.47,1726.47,0,0,0,548.28,270c-6.54,1.62-9.14-.36-10.29-6.69C537.17,258.76,538.91,257.11,542.82,255.7ZM881.75,782.41c-125,6.8-243.23,40.69-358.07,88.4-10.38,4.31-20.75,6.94-32.09,6.84-33.19-.28-66.39-.33-99.58.06-13.34.16-24.58-3.72-34.2-12.91-4-3.81-8.43-7.15-12.7-10.66-10.52-8.65-22.52-12.59-36.21-12.5-30.68.21-61.36,0-92-.1-11.38,0-11.38-.14-12.33-11.08-1.36-15.56-2.45-16.71-18.77-19.82-1.47-.28-3.31,0-4.36-.86-9.47-7.3-3.52-17.63-5-26.53-.95-5.9,2-9.13,7.9-10.64,17.72-4.52,17.89-4.65,20.1-23.65.71-6.1,2.81-9,9.28-8.91a251.84,251.84,0,0,0,25.63-.57c11.14-.9,14.86-5.05,15.57-16.23.25-4,.08-8,.08-12.06q-.06-155.41-.12-310.83c0-6.53-.38-13.13.36-19.59,1.84-16.22,9.49-28.41,25.63-34Q361.27,319,441.66,291.31c1.89-.64,3.77-1.34,5.7-1.79a2.75,2.75,0,0,1,3.29,2.23c.47,1.79,1.67,4.13-.6,5.38a53.9,53.9,0,0,1-8.31,3.41c-21.77,7.66-43.47,15.53-65.35,22.84-38.84,13-56.21,46.27-56,78.79q1.14,161.43,0,322.89c-.14,27.43,10.84,49.06,31.1,65.44,10.13,8.2,23.75,12.33,37.65,12.38q24.89.09,49.78.14,49.8,0,99.59,0v-.17c32.69,0,65.4-.74,98.07.2,35.39,1,69.85-3.07,104.41-10.93a869.64,869.64,0,0,1,140.14-19.58c4-.24,11.39-4.46,11.88,3.91C893.51,784.12,886.25,782.17,881.75,782.41Zm139-4.06c-.11,5.43,1,11-.61,15.68-.52,2.05-3.35,1.34-3.35,1.34s-42.17-2.62-55.4-2.5-54.71,3-54.71,3c-5.17.32-7.65-1.35-7.09-6.68a12.63,12.63,0,0,0,0-1.51c-.16-6.93,3.29-15.57-1.31-20.37-5.33-5.58-14.42-1.86-21.74-1.37-59.35,4-117.69,14.64-175.53,28.11a103.91,103.91,0,0,1-23.87,2.84c-93.59-.08-187.18-.57-280.77-.17-31.18.13-60.69-21.78-67.81-53.59a83,83,0,0,1-1.51-18q-.13-162.28,0-324.56c.05-34.22,17-58.21,49.17-70.05,24.48-9,49.18-17.43,73.76-26.19,9.82-3.51,9.86-3.63,7.2-13.76s-5.47-20.26-8.47-31.32c23.72-6.88,46.82-13.53,69.89-20.31,4.68-1.38,6.27.89,7.28,4.9,1.95,7.79,4.1,15.54,6.29,23.27,3.43,12.14,3.53,12.35,15.13,9.47,41.46-10.3,83.3-18.77,125.43-25.75,53.57-8.87,107.44-15.23,161.6-19.7,0,0,56.37-3,78-4.07s69.37,0,69.37,0c50.33.46,100.59,2.74,150.62,8.1,75,8,149.33,20,222.77,37.34,5.87,1.39,11.71,2.87,17.6,4.14,11.28,2.45,11.39,2.43,14.65-8.28,3-10,5.86-20.15,8.92-30.73l75.07,21.65c-3.09,11.08-6.16,21.13-8.67,31.32-2.44,9.88-2,10.38,7.91,13.92,24.59,8.77,49.13,17.69,73.83,26.14,14.88,5.09,26.4,14.38,35.6,26.71,9,12.09,12.62,25.82,12.58,41q-.29,135.11-.05,270.21c0,20.13-.62,40.28.1,60.38,1.19,32.76-27.17,67.08-65.21,67.63-24.65.36-49.31.35-74,.36-67.43,0-134.86-.13-202.29,0a183,183,0,0,1-41.76-5c-57.88-13.36-116.33-23.14-175.73-26.39C1020.94,764.93,1021,765.08,1020.78,778.35Zm722.64,4.31c-.19,4,0,8.05,0,12.07-.15,13.46-.16,13.46-13.33,16.15-10.48,2.15-13.76,6.48-14.6,19.3-.73,11.15-.73,11.28-12,11.33-29.69.15-59.38.53-89,.09-17.61-.26-33,4.63-45,17.38-13.88,14.77-30.37,19.52-50.26,18.84-30.65-1.06-61.37-.39-92.06-.15a66.56,66.56,0,0,1-27.75-5.8,1072.53,1072.53,0,0,0-146.17-51.56c-70.72-19.37-142.12-35.31-215.85-37.59-1.51-.05-3-.12-4.53-.16-3.58-.1-5.42-1.71-5.49-5.52-.07-4,2-5.2,5.54-5,6,.25,12.1.14,18.1.72a1241.79,1241.79,0,0,1,167.81,27.83,82.93,82.93,0,0,0,19.37,2.32q144.15,0,288.31-.14c30.65-.09,52.15-15.49,66.06-42.28,5.74-11.07,6.71-23,6.68-35.17q-.18-81.51-.05-163h0c0-53.33-1-106.69.33-160,.95-38.28-23-68.41-55.64-78.95-23.4-7.56-46.43-16.25-69.64-24.37-3.45-1.2-7.51-2.16-5-6.9,1.73-3.32,4.79-1.69,7.77-.63,33.75,12,67.52,24,101.4,35.76,21.22,7.34,42.78,13.74,63.89,21.38,13.36,4.83,20.3,15.71,22.22,29.53.75,5.44.38,11.05.38,16.58q0,154.72,0,309.44c0,6-.23,12.09.2,18.1.88,12.14,5.74,16.85,18.06,17.48,7.53.39,15.09.25,22.64.21,6.58,0,9.72,2.26,10.17,9.66,1.13,18.39,1.81,18.91,19.06,22.92C1740.71,773.82,1743.72,776.51,1743.42,782.66Z"/><path class="cls-1" d="M1592.69,729c-.72-20.1-.1-40.25-.1-60.38q0-135.11.05-270.21c0-15.16-3.56-28.89-12.58-41-9.2-12.33-20.72-21.62-35.6-26.71-24.7-8.45-49.24-17.37-73.83-26.14-9.91-3.54-10.35-4-7.91-13.92,2.51-10.19,5.58-20.24,8.67-31.32l-75.07-21.65c-3.06,10.58-5.87,20.69-8.92,30.73-3.26,10.71-3.37,10.73-14.65,8.28-5.89-1.27-11.73-2.75-17.6-4.14-73.44-17.33-147.8-29.3-222.77-37.34-50-5.36-100.29-7.64-150.62-8.1,0,0-47.74-1-69.37,0s-78,4.07-78,4.07c-54.16,4.47-108,10.83-161.6,19.7-42.13,7-84,15.45-125.43,25.75-11.6,2.88-11.7,2.67-15.13-9.47-2.19-7.73-4.34-15.48-6.29-23.27-1-4-2.6-6.28-7.28-4.9-23.07,6.78-46.17,13.43-69.89,20.31,3,11.06,5.82,21.17,8.47,31.32s2.62,10.25-7.2,13.76c-24.58,8.76-49.28,17.17-73.76,26.19-32.14,11.84-49.12,35.83-49.17,70.05q-.25,162.27,0,324.56a83,83,0,0,0,1.51,18c7.12,31.81,36.63,53.72,67.81,53.59,93.59-.4,187.18.09,280.77.17a103.91,103.91,0,0,0,23.87-2.84C758.93,780.59,817.27,770,876.62,766c7.32-.49,16.41-4.21,21.74,1.37,4.6,4.8,1.15,13.44,1.31,20.37a12.63,12.63,0,0,1,0,1.51c-.56,5.33,1.92,7,7.09,6.68,0,0,41.49-2.88,54.71-3s55.4,2.5,55.4,2.5,2.83.71,3.35-1.34c1.58-4.72.5-10.25.61-15.68.25-13.27.16-13.42,13-12.72,59.4,3.25,117.85,13,175.73,26.39a183,183,0,0,0,41.76,5c67.43-.18,134.86,0,202.29,0,24.65,0,49.31,0,74-.36C1565.52,796.06,1593.88,761.74,1592.69,729ZM1473.52,646.6c-10.09-.35-17.84-3-24.08-9.69-6-6.4-10.13-14.81-10.42-22.45-.58-15.5,17.34-30.32,33.51-30.33,17.44,0,31.72,14.15,31.6,31.35S1489.64,646.74,1473.52,646.6Z"/><path d="M1472.53,584.13c-16.17,0-34.09,14.83-33.51,30.33.29,7.64,4.43,16,10.42,22.45,6.24,6.68,14,9.34,24.08,9.69,16.12.14,30.5-13.9,30.61-31.12S1490,584.12,1472.53,584.13Zm-.79,55.74c-13.2-.37-24.82-12.63-24.24-25.58.61-13.67,11.86-23.93,25.89-23.62,13.35-.86,24.42,12.7,24.3,25.34C1497.57,629.13,1485.15,640.25,1471.74,639.87Z"/><path d="M1615.66,789.33c0-7.52.21-15-.06-22.54-.23-6.2,1.89-9.2,8.54-9.09,15.53.26,31.06.16,46.58.08,6.23,0,9,2.6,8.86,9.05q-.43,23.29-.1,46.58c.09,6.86-2.24,10.08-9.54,9.92q-22.53-.48-45.08,0c-7.4.17-9.65-3.08-9.32-10,.37-8,.08-16,.08-24Zm57.54,2.51c0-1.64,0-2.15,0-2.65-.69-7.9,3.43-17.7-1.81-23.28s-15.24-1.81-23.09-1.92c-8.36-.13-19.16-3.72-24.52,1.91s-1.56,16.3-1.77,24.75c-.19,8-2.65,18.2,1.23,23.54,4.88,6.69,15.84,2.2,24.12,2.43,7.91.22,17.91,3.53,23.34-1.47C1676.86,809.47,1672.11,799,1673.2,791.84Z"/><path d="M241.08,789.59c0-7.53.46-15.1-.12-22.59-.59-7.65,2.94-9.54,9.74-9.41,14.56.29,29.13.26,43.69.14,7.26-.07,11.1,2.26,10.86,10.45-.44,15.05-.23,30.13,0,45.2.1,6.82-2.32,10.08-9.63,9.94-15.06-.29-30.14-.29-45.2.15-7.38.22-9.84-2.84-9.59-9.78.29-8,.07-16.06.07-24.1Zm6.53-.93c0,1.75,0,2.25,0,2.75.74,7.91-3.39,17.75,1.73,23.27,5.28,5.69,15.26,2,23.11,1.93,8.33,0,19,3.88,24.46-2.14,5.35-5.85,1.86-16.35,1.77-24.76s3.94-18.78-2.07-24.45c-5.31-5-15.33-1.2-23.25-1.3s-18-3.33-23.29,1.62C244,771.17,248.6,781.63,247.61,788.66Z"/><path d="M825.08,439v111H805.26V479.31l-19.51,14.91-16.18,12.53-16.18-12.53-19.51-14.91v70.74H714.05V439l19.83,15.23,35.69,27.44,35.69-27.44Z"/><path d="M951.81,472.65a32.67,32.67,0,0,1-9.2,22.84A32.75,32.75,0,0,1,919.13,551H840.94V531.18h78.19a13.07,13.07,0,0,0,13-13,12.92,12.92,0,0,0-12.21-13h-59V485.34h59a13,13,0,0,0-.64-26H841.1V439.5h78.19A32.63,32.63,0,0,1,952,472.17Z"/><path d="M1076,505a31.69,31.69,0,0,1,2.69,12.85A32.63,32.63,0,0,1,1046,550.53h-78.2V530.7H1046a12.93,12.93,0,0,0,12.85-13,12.77,12.77,0,0,0-11.42-12.84H967.82V439.5H1069.5v19.82H987.65V485h59.64a32.16,32.16,0,0,1,28.87,19.83Z"/><path d="M1164.82,439a35.81,35.81,0,0,1,35.84,35.85V514a35.81,35.81,0,0,1-35.84,35.85h-34.26A35.81,35.81,0,0,1,1094.71,514V474.87A35.81,35.81,0,0,1,1130.56,439Zm-34.26,19.83A16.24,16.24,0,0,0,1114.38,475V514.2a16.24,16.24,0,0,0,16.18,16.18h34.26A16.25,16.25,0,0,0,1181,514.2V475a16.24,16.24,0,0,0-16.18-16.17Z"/></g></g></svg>