<svg xmlns="http://www.w3.org/2000/svg" viewBox="0 0 1920 1080"><defs><style>.cls-1{fill:#f2f2f2;}</style></defs><g id="Capa_2" data-name="Capa 2"><g id="Capa_1-2" data-name="Capa 1"><path class="cls-1" d="M1540,729.46c-2.68,31.54-20.79,47.81-47.49,55.75-2.53.75-4.94,0-7.44,0-22.32-.58-44.67-1.17-67,.24-13.12.82-16,4.59-16.43,18.2-.31,8.64-.19,17.31-.09,26,.07,5.08-2.41,7.3-7.24,6.65-15.33-2.08-30.63-1.37-45.93.15-7.45.76-10.52-2.18-10.5-10,0-11.61,1.15-23.26-2-34.9-1.19-4.34-2.45-5.12-6.15-5.57-38.41-4.76-77-2.23-115.45-2.7-13.33-.16-25.64-5-38.26-8.06-42.93-10.43-86.5-16.37-130.43-19.75-17.46-1.34-35-1.53-52.52-2.23-5.36-.22-10.22-1-10.43-8-.05-1.42-.89-2.88-2.52-2.76s-2.19,1.65-2.34,3c-.56,5.44-4.39,5.66-8.55,5.63-6.42,0-12.83,0-19.27,0-5.06,0-10.45.72-11.26-6.65a3.15,3.15,0,0,0-2.28-2c-1.59-.19-2.53,1.15-2.58,2.64-.23,6.12-4.54,5.78-8.88,6.1-53,3.81-106.07,7.51-158.16,19-15,3.3-29.91,6.9-44.64,11.09-15.69,4.48-31.57,4-47.41,2.67-24.59-2-49,.2-73.56,1.44-5.56.28-11.14.42-16.7.69-1.68.08-3.56.26-4,2.26-.39,1.61.87,2.56,2.22,3.08s2.5,1.22,1.85,3c-4,10.86-1.93,22.14-2,33.22,0,6.73-2.56,9.35-8.83,8.63-15.87-1.85-31.78-1.13-47.69-1.24-5.34,0-7.5-2.47-7.45-7.68.06-7.54.32-15.11-.32-22.6-1.31-15.45-7.44-21.44-23-21.49-17,0-34.05,1.8-51,1.18-34.15-1.23-56.92-19.32-61.7-53-1.52-10.74-.67-22.2-.68-33.33q-.21-111,.11-222c0-10.93-1.09-22.24,3.91-34,10.75,15.07,25.17,16,36.83,3.86,4.19-4.36,5-8.63,1.54-13.41-5.06-6.87-6.6-15.33-10.74-22.62-2.73-4.81,1.76-5.6,4.66-6.79,26-10.77,52.24-21.13,78.9-30.26a1453.39,1453.39,0,0,1,198-52.38c38.27-7.32,76.86-12.68,115.66-16.87,30.78-3.34,61.57-5.62,92.51-6.57,8.31-.27,16.89-.62,22.48-8.63,1.86-2.68,4.81-2.26,7.66-1.44,3.37.95,3.77,3.52,4.17,6.45.54,3.74-1.86,10.24,4.08,9.92,4.57-.25,3.23-6.69,2.63-10.07-1.6-8.83,5.71-9.24,11.32-12-5.06-4.37-10.15-2.58-14.84-2.26-11.23.75-12.8-.52-12.79-11.45,0-20.51,0-20.51,20.28-20.51,12,0,24,.24,36-.06,6.24-.15,8.63,2.31,8.16,8.41a84.8,84.8,0,0,0,0,12.55c.5,6.5-1,10.1-8.61,11.19-8.3,1.21-13.95,13.36-11.3,21.43.45,1.43,1.09,2.79,2.6,2.87,2.08.12,3-1.54,3-3.3-.08-4,2.25-6.6,4.24-9.67,3.56-5.46,8.28-6.28,12.81-2.7,9.76,7.76,20.84,8.08,32.49,8,26.79-.18,53.43,2.28,80,5.48,27.6,3.32,55.41,5.6,82.72,10.56,38.34,7,76.66,14.23,114.55,23.63,49.93,12.38,98.44,28.94,146.67,46.6,17.54,6.41,35.14,12.61,52.45,19.63,5.38,2.17,5.88,4.41,2.81,9.22-3.73,5.85-6.37,12.42-9.72,18.52-3.77,6.85-3,12.15,3.22,17.57,11.4,9.89,23.88,8.68,32-3.88,1.16-1.81,1.67-4.24,4.41-4.9,2.91,2.7,3,6.15,3.11,9.87,1.36,63.38.89,126.77,0,190.14C1539.47,668.7,1542.62,699.13,1540,729.46Z"/><path d="M1707.52,783.87v-24c.27-15.15-1.19-17.69-15.58-20.24-12.82-2.24-12.82-2.24-13.59-15-.84-14-5.82-18.8-20-19-10-.13-20.1,0-30.16-.05-10.27-.12-12.78-2.71-12.82-13q-.15-43.12-.21-86.28-.06-98,0-196c0-25-8.5-37.28-31.59-46.83-42.28-17.48-84-36.21-127-51.9a1299.39,1299.39,0,0,0-143.26-43.26c-24.12-5.75-48.5-10.31-72.88-14.92-42.17-8-84.65-14.06-126.88-21.68-26.32-4.76-52.85-3.35-79.32-3.55-17.66-.14-17.68,0-23.49,16.35-.83,2.3-2.1,3.94-4.48,4.48-2.14.48-3-1.11-3.58-2.72-2.74-7.79-9.22-9.2-16.19-9.26-18.7-.19-37.42-.17-56.13-.12-5,0-9.22,1.57-11.83,6.43-1.11,2.06-.26,6.59-4.73,5.33-3-.85-3.62-3.8-4.12-6.7-1.78-10-7.68-14.53-17.58-15.4L831.6,230.3c-6.22.84-12.05,3.09-18,3.77-50.64,5.77-100.83,14.38-151,22.94C592.2,269,524,288.92,457.33,314c-41.19,15.49-81.62,33-122.41,49.55C315.4,371.44,305.88,386,306,407c0,13.39.68,26.79.75,40.15.37,81.52.25,163,.22,244.54,0,10.1-2.75,12.63-13.17,12.74s-20.66-.27-31,.16c-12.1.52-17.89,5.35-19.05,14.85-2.11,17.33-2.1,17.41-18.75,21.31-5.43,1.26-11,2.77-11.4,9.19-.65,10.27-2.32,21.26.1,30.76,3.07,11.93,16.78,13.61,16.78,13.61,12.67,2.17,12.73,1.76,13,14.61.29,14.54,4.11,18.26,18.59,18.26H497.31c1.67,0,3.35,0,5,.07,2.35.12,4.68.47,4.75,3.48,0,0-.52,14.25,12.38,14.25s61.44.6,61.44.6c7.09.08,11.9-2.66,11.77-9.8-.15-8.28,4.3-8.65,10.6-8.65,78.46.12,156.91-.2,235.36.19,48.58.23,97-5.5,145.53-3.84q51,1.76,102,4.27c6.2.3,12.23-.58,18.36-.58q106.8.15,213.6-.09c5.59,0,8.76.76,9,7.32.3,7.54,4.55,11.32,12.61,11.2,20.38-.29,40.77-.17,61.15,0,6.63,0,11.34-2.43,11.11-9.42-.25-7.86,3.5-9.05,10.24-9,60.86.18,121.73.1,182.59.1,18.43,0,36.88-.49,55.28.2,8.65.32,13-3.13,15.08-10.81.5-1.87,1.46-3.75,1.49-5.63.22-10.86,3.91-17.16,16.44-17.31C1709.18,793.6,1707.52,783.87,1707.52,783.87ZM1543.14,357.08c18.43,7.46,18.52,7.31,10.25,25.76q-6.5,14.51-13.13,29c-.89,2-1.58,4.2-4.58,4.86-2.19-1.91-4.52-3.84-6.73-5.9-11.82-10.94-11.78-10.94-5-25.86,3.68-8.12,7.45-16.22,10.92-24.43C1536.62,356.31,1538.62,355.26,1543.14,357.08Zm-10.52,72.14c-3.3,5.8-6.71,11.56-10.27,17.21-1.11,1.77-3.19,2.09-5.27,1.69-12.23-.32-17.62-8.93-12.31-19.72,2.44-5,5.29-9.82,7.59-14.9s4.79-4.56,8.85-1.59c4.44,3.25,7.27,7.61,10.4,11.85C1532.77,425.33,1533.72,427.31,1532.62,429.22ZM1010.89,258.45c5.56-2.56,8.55-7.45,9.75-12.9,1.36-6.1,4.88-7.25,10.22-7.14,10,.2,20.09.05,34.24.05,30-2.16,63.05,5.72,96.25,11.18,53.58,8.83,107.22,17.64,160,30.7a1254.81,1254.81,0,0,1,149.76,47.2c18,6.9,35.7,14.28,53.57,21.38,5.45,2.16,7.18,5.11,4.23,10.89-5.45,10.68-10.39,21.62-15.27,32.56-1.82,4.09-3.42,4.93-8.11,3.18-40.46-15.13-81-30.14-122-43.81-48.5-16.16-98.08-27.85-148.18-37.54-27.57-5.34-55.35-9.4-83.11-13.6-30.87-4.68-62-6.74-93-9.57-14-1.29-28.13-3.47-42.43-2.33-6.4.5-13.4-.05-15.33-8.28C999.35,271.09,1003.43,261.89,1010.89,258.45ZM394.51,349.37c18.73-7.25,37.23-15.11,56.06-22.05,24.84-9.16,49.69-18.43,74.94-26.34,31.37-9.82,63.09-18.56,95.31-25.42,57-12.11,114.6-20.26,172.15-29,32.38-4.92,64.83-6.65,97.37-8.31,6.1-.32,9.74,1.68,10.28,8,.47,5.53,3.52,9.41,8.26,11.78,8.49,4.22,8.58,4.07,8.43,13.75-.21,14-1,14.51-14.65,15-26.46,1-52.78,3.57-79.16,5.93q-54.21,4.89-107.72,14.05A1471,1471,0,0,0,537,349.59c-40.63,12.4-80.29,27.18-119.67,42.88-6.75,2.7-11,2.55-13.76-4.76-1.47-3.9-3.53-7.57-5.19-11.39-2.06-4.79-1.9-8.61,4.17-10.34,1.88-.52,5.14-1.27,3.89-4.22-1-2.38-3.82-1.43-6-1.06-3.15.5-6.51,4.89-9.43-.13C388.14,355.71,388.31,351.77,394.51,349.37Zm19.77,77.05c.47,1,.84,2.06,1.29,3.08,5.33,12.2.7,19.07-13.07,19.42-3.22.32-5.33-1.29-6.75-3.95-1.71-3.18-3.2-6.5-5-9.65-3-5.21-1.77-9,2.6-13.12C406.86,409.48,404.59,405.68,414.28,426.42ZM392.46,379c3,5.95,5.68,12.06,8.43,18-1.57,6.13-6,9.68-9.82,13.59-7.94,8.09-8.16,8-12.68-2.72-.87-2-1.65-4.13-2.63-6.13-9.25-18.77-8.27-14.74,10.85-24C388.89,376.64,391.26,376.62,392.46,379Zm-27.9-16.94c3-1.31,6-2.85,9.12-4,7.5-2.68,12.95,1,13.4,9.09.29,5.32-3.08,4.91-7.24,3.73-3.25-.38-6.3,1.75-9.58,3.1-2.53,1.06-5.11,5.67-7.47-.35C361.11,369.35,357.69,365,364.56,362.06ZM497.73,816.63c-36.32-.14-72.61.1-108.9.1q-61.59,0-123.15-.19c-11.14,0-11.22-.16-11.44-11.12-.34-17.16-5.13-22.12-22.14-21.74-4.92.12-7.1-1.71-8.37-6.08-2-6.85-1.7-13.81-1.48-20.78.15-5.14,4-6.08,8.06-6.77,21-3.5,22.35-4.91,23.79-26.69.34-4.88,1.58-7.84,7.31-7.71,9.45.22,19-.73,28.37,0,19.2,1.44,26.27-4.54,26.29-23.9,0-27.93-.13-55.84-.18-83.78q-.06-29.73,0-59.47h.3c0-46.63-.07-93.26,0-139.9.05-22.28,11.93-36.32,33.62-40.65,3.43-.68,4.55,1.14,5.63,3.52q11.25,25.21,22.48,50.46c1.5,3.31,1,6.51,0,9.76-6.17,18.86-6.65,38.31-6.63,57.93.08,75.94-.46,151.9,0,227.86.13,21.09,4.44,41.57,20.68,57.42,5.74,5.61,14.21,7.93,18.23,15.62.5,1,3,1,4.66,1.24,26.25,4.54,52.76,3.23,79.2,3.16,11.38,0,11.92,1,13.12,12.24C508.05,815.07,504.68,816.66,497.73,816.63Zm818.26-.1q-59.07,0-118.12,0v-.11c-35.74,0-71.49.41-107.22-.12-36.21-.55-72.42-1.07-108.6-3-38-2.08-75.8,3.17-113.72,3.33-88.8.39-177.59.1-266.4.12-4.77,0-9.2-.07-9-6.75.23-6.25-1.68-13.58,7.89-14.73a55.36,55.36,0,0,1,6.7-.22c28.47,0,57-.52,85.44.24,14.1.36,27.87-2.37,41.41-4.39,9-1.36,18.08-7.11,27.77-9.15,33.29-7,66.84-12,100.7-15.7,29.21-3.22,58.35-2.55,87.54-3.12,27.86-.54,55.83-1.36,83.48,1.44,23.22,2.36,46.6,3.55,69.72,7.44,21.92,3.67,43.83,7.24,65.42,12.58,3.28.81,6.4,1.43,8.32,4.83,1.78,3.13,5.32,2.41,8.33,2.73,43.54,4.74,87.25,2.45,130.89,3.13,5.58.1,10.85.76,10.62,8.52C1326.87,815.05,1325.81,816.51,1316,816.53Zm85.73-12.92c-.31,8.64-.19,17.31-.09,26,.07,5.08-2.41,7.3-7.24,6.65-15.33-2.08-30.63-1.37-45.93.15-7.45.76-10.52-2.18-10.5-10,0-11.61,1.15-23.26-2-34.9-1.19-4.34-2.45-5.12-6.15-5.57-38.41-4.76-77-2.23-115.45-2.7-13.33-.16-25.64-5-38.26-8.06-42.93-10.43-86.5-16.37-130.43-19.75-17.46-1.34-35-1.53-52.52-2.23-5.36-.22-10.22-1-10.43-8-.05-1.42-.89-2.88-2.52-2.76s-2.19,1.65-2.34,3c-.56,5.44-4.39,5.66-8.55,5.63-6.42,0-12.83,0-19.27,0-5.06,0-10.45.72-11.26-6.65a3.15,3.15,0,0,0-2.28-2c-1.59-.19-2.53,1.15-2.58,2.64-.23,6.12-4.54,5.78-8.88,6.1-53,3.81-106.07,7.51-158.16,19-15,3.3-29.91,6.9-44.64,11.09-15.69,4.48-31.57,4-47.41,2.67-24.59-2-49,.2-73.56,1.44-5.56.28-11.14.42-16.7.69-1.68.08-3.56.26-4,2.26-.39,1.61.87,2.56,2.22,3.08s2.5,1.22,1.85,3c-4,10.86-1.93,22.14-2,33.22,0,6.73-2.56,9.35-8.83,8.63-15.87-1.85-31.78-1.13-47.69-1.24-5.34,0-7.5-2.47-7.45-7.68.06-7.54.32-15.11-.32-22.6-1.31-15.45-7.44-21.44-23-21.49-17,0-34.05,1.8-51,1.18-34.15-1.23-56.92-19.32-61.7-53-1.52-10.74-.67-22.2-.68-33.33q-.21-111,.11-222c0-10.93-1.09-22.24,3.91-34,10.75,15.07,25.17,16,36.83,3.86,4.19-4.36,5-8.63,1.54-13.41-5.06-6.87-6.6-15.33-10.74-22.62-2.73-4.81,1.76-5.6,4.66-6.79,26-10.77,52.24-21.13,78.9-30.26a1453.39,1453.39,0,0,1,198-52.38c38.27-7.32,76.86-12.68,115.66-16.87,30.78-3.34,61.57-5.62,92.51-6.57,8.31-.27,16.89-.62,22.48-8.63,1.86-2.68,4.81-2.26,7.66-1.44,3.37.95,3.77,3.52,4.17,6.45.54,3.74-1.86,10.24,4.08,9.92,4.57-.25,3.23-6.69,2.63-10.07-1.6-8.83,5.71-9.24,11.32-12-5.06-4.37-10.15-2.58-14.84-2.26-11.23.75-12.8-.52-12.79-11.45,0-20.51,0-20.51,20.28-20.51,12,0,24,.24,36-.06,6.24-.15,8.63,2.31,8.16,8.41a84.8,84.8,0,0,0,0,12.55c.5,6.5-1,10.1-8.61,11.19-8.3,1.21-13.95,13.36-11.3,21.43.45,1.43,1.09,2.79,2.6,2.87,2.08.12,3-1.54,3-3.3-.08-4,2.25-6.6,4.24-9.67,3.56-5.46,8.28-6.28,12.81-2.7,9.76,7.76,20.84,8.08,32.49,8,26.79-.18,53.43,2.28,80,5.48,27.6,3.32,55.41,5.6,82.72,10.56,38.34,7,76.66,14.23,114.55,23.63,49.93,12.38,98.44,28.94,146.67,46.6,17.54,6.41,35.14,12.61,52.45,19.63,5.38,2.17,5.88,4.41,2.81,9.22-3.73,5.85-6.37,12.42-9.72,18.52-3.77,6.85-3,12.15,3.22,17.57,11.4,9.89,23.88,8.68,32-3.88,1.16-1.81,1.67-4.24,4.41-4.9,2.91,2.7,3,6.15,3.11,9.87,1.36,63.38.89,126.77,0,190.14-.4,30.41,2.75,60.84.17,91.17-2.68,31.54-20.79,47.81-47.49,55.75-2.53.75-4.94,0-7.44,0-22.32-.58-44.67-1.17-67,.24C1405,786.23,1402.17,790,1401.72,803.61Zm296.45-42.43c-.23,3.33,0,6.7-.07,10.05-.3,10.74-2.09,12.42-12.63,12-11.76-.4-17.33,4.88-17.71,16.84-.47,14.51-2.42,16.44-16.44,16.44q-113.5.11-227,.17c-11.41,0-15.17-5.28-11.73-16.27,1.61-5.15,5.78-5.45,10.1-5.47,19.27,0,38.56.37,57.79-.2,8.23-.23,18.07,0,24.27-4.19,18.63-12.68,35.87-27.16,40.53-51.59a146.78,146.78,0,0,0,2.08-29.93c-1.39-84.3-.94-168.62-1-252.93,0-5.8-.07-12.17-2.32-17.3-4.82-11-1.07-20.05,3.88-29.32,1.45-2.7,3-5.35,4.32-8.11,5.09-10.77,5.08-10.79,15.16-5.68,1.43.72,2.9,2.33,4.41.55,1.37-1.61.13-3.15-1-4.4-1.28-1.46-2.72-2.8-4.09-4.18-5.16-5.12-5.06-12.11,0-17.36,2-2.09,3.84-1.45,6-.73,25,8.14,32.91,19.12,32.93,45.72q0,68.7,0,137.39,0,69.53.07,139.06a83.75,83.75,0,0,0,1.13,12.45c1,6.3,4.78,9.62,11.15,10.62,12.8,2,25.65.76,38.47,1.11,9.94.27,11,1.24,11.26,11.09.42,17.87,2.7,20.7,20.48,22.74C1695.57,750.66,1698.71,753.91,1698.17,761.18Z"/><path d="M1635,761.45c-.51,7.76-1,15.51-1.49,23.27-.17,2.93-.91,5.64-3.44,7.24-8.65,5.48-17.62,3.61-26.34.37-6.62-2.46-7.41-8.75-7.38-14.59,0-7.48,1-15,1.62-22.43a13.75,13.75,0,0,1,.51-2.44c1.45-5.1-2.85-12.8,3.59-15.14,8.56-3.13,18.1-2.53,27,.07,4.28,1.25,5.39,5.29,5.42,9.45,0,4.72,0,9.45,0,14.17Zm-7.35,4.82h-.1c0-2.5,0-5,0-7.5,0-2.77,0-5.55.08-8.32.08-4.32-1.31-7-6.34-6.3a34.08,34.08,0,0,1-5.8,0c-9.15-.37-11.47,1.38-11.8,10.75-.23,6.33.31,12.66-.22,19-1,12.32.73,13.88,13.2,13.9,10.28,0,11.08-.77,11-10.72C1627.65,773.48,1627.67,769.87,1627.67,766.27Z"/><path d="M306.05,737.43c2.79,0,5.58,0,8.38,0,6.28.07,9.66,3.78,9.17,9.53-.86,10.1.92,20.06.56,30.08-.23,6.49-.74,14-7.56,16.53a36.16,36.16,0,0,1-25.36-.46c-3.37-1.29-3.61-5-3.62-8-.05-12.82.08-25.66.5-38.48.21-6.33,3.83-9.61,10.39-9.28C301,737.54,303.54,737.43,306.05,737.43Zm11.06,26.65c0-23.29,2.84-20.32-15.51-20.68-6.09-.12-8.74,2.45-8.71,8.36,0,7.81-.06,15.61-.05,23.42,0,12.37.44,12.78,12.49,12.77,10.53,0,11.34-.75,11.75-11.33C317.24,772.45,317.11,768.26,317.11,764.08Z"/><rect class="cls-1" width="1" height="1"/><rect class="cls-1" x="1919" y="1079" width="1" height="1"/><rect class="cls-1" y="1079" width="1" height="1"/><rect class="cls-1" x="1919" width="1" height="1"/></g><g id="Capa_3" data-name="Capa 3"><path d="M834.93,481.8v111H815.11V522.09L795.6,537l-16.18,12.54L763.24,537l-19.51-14.9v70.74H723.9v-111L743.73,497l35.69,27.44L815.11,497Z"/><path d="M961.66,515.42a32.63,32.63,0,0,1-9.2,22.84A32.76,32.76,0,0,1,929,593.78h-78.2V574H929a13.06,13.06,0,0,0,13-13,12.92,12.92,0,0,0-12.21-13h-59V528.11h59a13,13,0,0,0-.63-26H851V482.27h78.2A32.63,32.63,0,0,1,961.82,515Z"/><path d="M1085.85,547.78a31.7,31.7,0,0,1,2.7,12.85,32.63,32.63,0,0,1-32.68,32.67h-78.2V573.48h78.2a12.93,12.93,0,0,0,12.85-13,12.78,12.78,0,0,0-11.42-12.85H977.67V482.27h101.68V502.1H997.5v25.7h59.64A32.15,32.15,0,0,1,1086,547.62Z"/><path d="M1192.43,501.47a34.44,34.44,0,0,1,3.65,15.54v75.66h-19.83V515.11a15.83,15.83,0,0,0-13.48-13.49h-58.21V481.8h56.31a34.56,34.56,0,0,1,15.54,3.64,35.26,35.26,0,0,1,16,16.18Z"/></g></g></svg>