<svg xmlns="http://www.w3.org/2000/svg" viewBox="0 0 1920 1080"><defs><style>.cls-1{fill:#f2f2f2;}.cls-2{fill:#050505;}.cls-3{fill:#f1f1f1;}</style></defs><g id="Capa_2" data-name="Capa 2"><g id="Capa_1-2" data-name="Capa 1"><rect class="cls-1" width="1" height="1"/><rect class="cls-1" x="1919" y="1079" width="1" height="1"/><rect class="cls-1" y="1079" width="1" height="1"/><rect class="cls-1" x="1919" width="1" height="1"/><path class="cls-2" d="M331.9,476.17q0-84.39,0-168.79c0-17.14.25-34.27.53-51.41.07-4.31.64-8.61,1.1-12.91.57-5.43,3-9.24,8-12.24C358,221,374.17,210.88,390,200.17c10.12-6.85,21.5-9.31,33.57-9.29q104.91.19,209.83.32c13,0,26-.41,38.92-.65,9.57-.17,16.38-4.72,20.74-13.13,2.13-4.13,4.28-8.24,6.38-12.38,7.06-13.95,18.77-20,34-20.1q55.27-.44,95.16,37.82c12.18,11.7,22.15,25.26,32.48,38.5,3.8,4.88,8.26,7.17,14.47,7.15q83.94-.14,167.88,0a19.53,19.53,0,0,0,16.34-7.75c9.26-11.33,17.61-23.42,27.87-33.91,23.68-24.22,52.27-38.31,86.12-41.36,4.14-.37,8.31-.46,12.46-.46,15.31,0,26.78,6.8,34.51,19.9,2.1,3.56,3.79,7.37,5.62,11.09,4.67,9.5,12.12,14.81,22.86,14.91q29.48.27,58.94.34,58.95.09,117.91,0,36.72,0,73.42-.34a54.47,54.47,0,0,1,31.82,9.79c14.15,9.59,28.46,19.06,43.32,27.49,10.69,6.07,13.55,15.11,13.79,26.09,0,1,0,2,0,3V519.42q0,88.11,0,176.22c0,14.87-5.18,27.25-18.09,35.71-7.88,5.18-16.77,6.13-25.78,6.21-12,.11-24-.27-36-.25-21.8,0-43.61.05-65.41.39-16,.25-31,5.48-46.38,9q-76,17.58-152,35-71.14,16.27-142.33,32.4c-1.29.3-2.61.49-3.92.75-9.19,1.83-11.36,5.07-9.54,14.24.29,1.47,1.09,2.51,2.62,2.51,16.37,0,32.79,3.56,49.09-1.58s32.8-9.65,49.2-14.49c10.51-3.1,21-6.18,31.47-9.49,7.08-2.24,13.32-2.12,19.55,2.89,6.72,5.39,14.2,9.83,21.33,14.72,2.42,1.66,4.4,3.55,3.61,7-3.4,14.72-5.66,29.7-10,44.18-2.74,9.1-5,10.05-13.76,6.56-6.26-2.49-12.24-6.4-19.49-3.9a49.28,49.28,0,0,0-6,2.33q-38.11,19-76.18,38.05a35.92,35.92,0,0,1-16.78,3.95c-19.81-.18-39.63-.17-59.45-.21-5.91,0-6.6.68-6.43,6.58.13,4.27-1.76,6.59-6,6.86-1.32.08-2.66,0-4,0l-174.35-.34c-6.1,0-8-1.47-8.19-7.32-.15-4.93-2.57-6.11-7-6-18.48.24-37,.23-55.44.42a27.38,27.38,0,0,1-12.94-3c-25.5-12.82-51.1-25.45-76.6-38.28-8.14-4.09-16.07-4.37-24.41-.56-12.31,5.63-13.16,5.4-16.65-7.63-3.34-12.49-5.78-25.23-8.53-37.87-.88-4.08.52-7.53,3.57-10.34,7.38-6.79,16.05-11.79,24.37-17.24,4.9-3.22,10.58-2.45,16-.85q40.81,12.12,81.58,24.39c7.6,2.28,15.39,2.52,23.23,2.4,3,0,6-.15,9-.15,8.73,0,8.51,0,10-8.59.85-4.9-1-7.14-5.52-8.16C769.85,803.21,714,790.6,658.11,777.72c-50.17-11.57-100.53-22.35-150.37-35.29-15.43-4-31.19-4.5-47-4.87-26.31-.61-52.6.41-78.9.22a101.78,101.78,0,0,1-18.88-1.4c-18.37-3.61-29.46-17.1-30.54-36.68-.94-16.94-.64-33.87-.29-50.83.32-16.11-.48-32.25-.52-48.38-.09-41.44,0-82.88,0-124.32Zm1244.18.42h.34q0-109.86.06-219.72c0-9-3.22-15.47-11.15-20.09-13.78-8-27.25-16.58-40.43-25.57a44.79,44.79,0,0,0-23.32-7.91c-15.63-.73-31.27-.16-46.91-.13q-102.18.24-204.35,0c-15.15,0-26.86-6.69-34.12-20.35-1.94-3.66-3.6-7.48-5.61-11.1-5.61-10.09-14.52-15.25-25.82-15-32.37.8-60.62,12.11-84.25,34.46-10.81,10.23-19.51,22.24-28.44,34-7.72,10.21-17.65,15.45-30.78,15.36-41.13-.25-82.27-.08-123.4-.1-15,0-30,.07-45-.2-8.84-.16-15.87-4.15-21.25-11.24-5.62-7.43-11.38-14.75-17.21-22-21.59-26.86-49-43.74-83.31-49.35-24.45-4-34.33.19-45.27,22.11-8.15,16.34-21,23.48-38.84,23.45q-123.9-.15-247.81-.1a36.26,36.26,0,0,0-20.65,6.09c-14.16,9.3-28.39,18.48-43,27-6.75,3.94-10.53,9.8-11.54,17.65-.77,6-.11,12-.11,17.93q.18,204.74.33,409.45c0,5.83,0,11.65,0,17.48a24.15,24.15,0,0,0,.78,6.9c3.57,12.06,14.61,19.57,29.25,19.55q49.44-.09,98.9-.3a67.15,67.15,0,0,1,15.34,1.62Q659.78,765.72,831,804.86c10.46,2.4,11.52,3.84,11.92,15,.24,6.88.63,7.31,7.48,7.31h217.83c8.25,0,9.61-1.55,8.87-9.75-.6-6.68,1.78-10.21,8.08-11.65,38.22-8.72,76.45-17.33,114.65-26.1,61.51-14.13,123.05-28.18,184.5-42.61,29.21-6.86,58.46-13.17,88.67-12,24.8.94,49.57.18,74.35-.09,19.22-.21,28.71-9.88,28.71-29.13Q1576.1,586.19,1576.08,476.59ZM1013.62,838.83c-14.81,0-29.62,0-44.43,0-6.09,0-7.13,1.25-7.05,7.42.08,6.32.09,12.64,0,19,0,1.24,1,3.41-1.43,3.48-2.94.07-1.61-2.41-1.64-3.72-.14-6.48-.1-13,0-19.46s-.18-6.75-6.74-6.68c-19.3.18-38.59.47-57.89.62-7.15.06-14.31-.41-21.45-.13-6.9.26-8.43,2.09-8.32,8.94s1,13.6-.25,20.39c-.33,1.85-.46,3.82-3,3.75-2.73-.07-2.46-2.17-2.46-4,0-8-.12-16,0-24,.07-3.84-1.42-5.38-5.28-5.37s-6.08.89-6.09,5.2c-.05,21.79-.21,43.57-.3,65.36,0,3.71,1.37,6,5.62,5.78,4-.16,6.2-1.43,6.06-5.9-.22-6.82-.06-13.65-.05-20.47,0-1.87,0-4,2.63-3.88s2.52,2.08,2.56,4c.12,6.15.55,12.3.41,18.44-.15,6.86.47,7.76,7.4,7.76h76.92c8.88,0,9-.11,10.13-9,.17-1.36.11-3.12,1.69-3.13,2.1,0,1.72,2.09,1.74,3.44.14,9,.14,9.06,9.08,8.72,1.66-.07,3.32,0,5,0,27,0,53.94-.07,80.91.06,4.64,0,6.68-1.44,6.48-6.33-.27-6.48,0-13,.08-19.46,0-2-.17-4.26,2.78-4.31s3,2.2,3,4.2c.08,6.48.24,13,0,19.46-.18,3.86.08,6.43,5,6.47,4.52,0,6.26-1.54,6.15-6.12-.3-13.3-.35-26.61-.37-39.91,0-8.15.15-16.29.32-24.44.08-4-1.38-6.23-5.76-6.23-4.19,0-5.39,2-5.29,5.92.21,7.81,0,15.64,0,23.46,0,2.11-.34,4.2-3.06,4.23s-2.92-2.08-2.92-4.19c0-7.49,0-15,0-22.47,0-6.19-.55-6.88-6.73-6.89Q1035.32,838.79,1013.62,838.83Zm120.79,36.45h-.34c0,10.64,0,21.28,0,31.92,0,5.7,1.1,6.36,6,3.85q37.95-19.23,75.87-38.54c6.32-3.23,12.64-3.83,19.21-1.25a59,59,0,0,1,8.1,3.76c4.13,2.41,5.89,1.1,6.84-3.3,2.67-12.32,5.59-24.6,8.42-36.89.77-3.34-.36-5.76-3.21-7.65-7.21-4.76-14.34-9.63-21.5-14.47a9.21,9.21,0,0,0-8.91-1.29c-5.3,1.91-10.76,3.4-16.18,5C1186,823,1163.61,831,1140.53,836.49c-4.42,1.06-6.22,2.93-6.16,7.35C1134.5,854.31,1134.41,864.8,1134.41,875.28ZM793.6,877.57c0-9.8,0-19.6,0-29.41,0-8.93-1.38-10.56-10-12.68-3.38-.83-6.77-1.63-10.11-2.63q-35-10.54-70-21.23c-3.22-1-6-1.14-8.94.89q-10.43,7.26-21.05,14.21c-3.07,2-4.15,4.66-3.27,8.1,3.16,12.38,6.14,24.8,8.17,37.43.59,3.65,3,4.53,6.25,3.12,1.67-.72,3.27-1.62,4.93-2.36,7.46-3.33,15.05-4.42,22.54-.37,25.23,13.66,51.29,25.65,76.82,38.7,3.89,2,4.62.69,4.61-2.86C793.57,898.17,793.59,887.87,793.6,877.57Zm6.52-.51c0,11,.16,21.92-.09,32.87-.09,4.27,1.62,5.56,5.57,5.5,8.48-.14,17,0,25.44,0,10.52,0,11.16,1.08,10.21-10.48-.08-1,0-2,0-3,0-19.28-.09-38.56.07-57.83,0-3.91-1.28-5.52-5.15-5.26-10.29.67-20.59.28-30.88,0-3.78-.11-5.3,1.44-5.24,5.36C800.24,855.14,800.11,866.1,800.12,877.06Zm286.81-.79c0,11.3.08,22.6,0,33.9,0,3.85,1.55,5.45,5.33,5.41,10.14-.13,20.28-.31,30.42-.12,4.44.09,5.82-1.75,5.78-5.89-.19-21.76-.35-43.52-.28-65.28,0-4-1-5.58-5.27-5.55q-15.19.09-30.39-.68c-4.22-.21-5.65,1.2-5.59,5.31C1087,854.33,1086.93,865.3,1086.93,876.27Z"/><path class="cls-2" d="M1562.79,557.82q0,61.41,0,122.83c0,16.08-10.17,27-26.16,28.28-3,.25-6,.37-9,.38-33.64,0-67.28.27-100.92-.11a142,142,0,0,0-41.72,5.94q-137.46,40-275.09,79.36c-17.06,4.88-34,10.51-51.75,12.57a111.73,111.73,0,0,1-12.93.76c-32,0-64-.11-95.92-.12-18,0-36-.29-53.95.25-27.24.82-53.3-3.82-79.41-11.82-56.64-17.36-113.8-33.06-170.76-49.39Q585.12,729.55,525,712.5a97.23,97.23,0,0,0-27.59-3.27c-34.63.23-69.28.15-103.92,0A78.35,78.35,0,0,1,379.1,708c-12.49-2.37-18.75-8.87-20.75-21.48a124.75,124.75,0,0,1-1.11-18.41c-.08-10.32,0-20.64,0-31-.1-24.79-.33-49.59-.31-74.38,0-43.27.3-86.53.27-129.8,0-18.5,8.36-31.27,25.07-38.84,40.27-18.25,81.85-33,124.08-45.94C568.5,329.12,631.86,315,695.76,303.13Q770.37,289.24,846,282.6c29.16-2.54,58.38-4.4,87.67-4.82a1381.58,1381.58,0,0,1,185.25,9.32c112.3,13.54,222.49,36.69,330,72.1a929.18,929.18,0,0,1,87.2,33.83c20.44,9.11,28.15,23.14,27.29,45.5-1,25.92-.87,51.89-.29,77.85.3,13.81,0,27.63,0,41.44ZM1557.3,535q0-51.93,0-103.88c0-13-5.37-22.68-16.94-28.76-4.11-2.15-8.25-4.3-12.49-6.17-60.15-26.46-122.65-45.86-186.27-61.86-37.6-9.45-75.54-17.41-113.6-24.72q-44.48-8.54-89.41-14.18c-24.55-3-49.16-5.41-73.83-7.36-29.16-2.31-58.34-4.08-87.57-4.58-37.75-.66-75.46.71-113.12,3.68-22.52,1.77-45,3.78-67.44,6.43q-39.51,4.68-78.74,11.56c-41.95,7.33-83.59,16.06-125.06,25.69a1249.38,1249.38,0,0,0-140.26,41.56c-23.37,8.39-46.78,16.63-69,27.76C369.82,407,363.09,417.31,363.26,433c.45,41.24.16,82.48.22,123.72,0,19.12.54,38.26.29,57.35-.29,22.28.05,44.55-.19,66.83-.13,12.14,6.74,19.75,18.47,21.68a74,74,0,0,0,11.9.86q47.46.1,94.93,0c4.31,0,8.63-.6,12.93-.4,13.65.63,26.79,3.83,39.91,7.6,95,27.31,190.24,54.1,285.16,81.85a223.53,223.53,0,0,0,67,9.51c46-.7,91.93-.21,137.9-.42,10.63,0,21.26.55,31.91-.75,9.63-1.18,18.46-5,27.61-7.58,91.16-25.86,182.19-52.17,273.27-78.33,22.41-6.43,44.48-13,68.59-11.82,34,1.69,68.21.75,102.31-.19,13.28-.37,21-8,21.21-21.22.26-15,.27-29.93.45-44.89C1557.58,602.88,1557.3,568.92,1557.3,535Z"/><path class="cls-2" d="M1505.24,239.83q12.73,0,25.45,0a15.37,15.37,0,0,1,11.78,5.57c15.6,17.29,15.28,48.45-.65,65.43a15.52,15.52,0,0,1-11.89,5.27h-47.44a17.41,17.41,0,0,1-14.25-6.84c-14.75-18-14-47.52,1.6-64.32a13.66,13.66,0,0,1,10.94-4.84c8.15.21,16.31.06,24.46.06Zm-.09,69.92v-.46c7.32,0,14.65.17,22-.05s12.45-3.65,15.63-10.42a49.36,49.36,0,0,0,4.85-26.09c-1.74-18.68-10.32-26.69-29.06-26.85-11.65-.1-23.3.12-34.94-.09-4.66-.08-7.83,1.81-10.55,5.36a43.8,43.8,0,0,0-1.79,50.79c3.62,5.55,8.3,8.18,15,7.87C1492.52,309.52,1498.84,309.75,1505.15,309.75Z"/><path class="cls-2" d="M415.12,316.11c-7.47,0-14.95-.07-22.43,0a19.47,19.47,0,0,1-16-7.6c-14.49-17.62-13.66-46.7,1.8-63.36a15.5,15.5,0,0,1,12.4-5.29c15.11.52,30.22.42,45.32-.12,7.1-.25,12.47,2.12,16.81,7.73,13.62,17.6,13.42,43.72-.52,61.07-4.14,5.16-9.15,7.87-15.91,7.61C429.42,315.9,422.27,316.11,415.12,316.11Zm-.75-6.69c7.65,0,15.3-.13,22.94.06a11.09,11.09,0,0,0,9.47-4.42A42.72,42.72,0,0,0,450.13,255c-4.08-6.52-9.56-9.47-17.42-9.19-13.26.49-26.55.61-39.82.29-5.33-.13-8.75,1.75-11.72,5.82a43.91,43.91,0,0,0,1.29,53.18,11,11,0,0,0,9.46,4.42C399.4,309.3,406.89,309.42,414.37,309.42Z"/><path class="cls-2" d="M1215,234.7a36.08,36.08,0,0,1-36.53,35.62c-19.67-.2-35.84-16.6-35.58-36.1.26-20.49,16.53-36.07,37.4-35.83C1199.56,198.61,1215.13,214.9,1215,234.7Zm-6.33-.33c.25-16.06-13.44-29.74-29.84-29.8-15.59,0-29.75,14.05-29.75,29.63,0,15.26,14.72,29.81,30.3,29.94C1195.17,264.28,1208.4,250.82,1208.66,234.37Z"/><path class="cls-2" d="M777.13,234c0,20.58-15.41,36.29-35.59,36.29a36,36,0,0,1-36.21-36.51c0-19.39,16.1-35.37,35.64-35.42C761.55,198.34,777.13,213.69,777.13,234Zm-6,.35c.08-15.72-13.63-29.53-29.59-29.81s-29.83,13.71-29.84,30c0,15.58,14,29.57,29.76,29.62C757,264.19,771,250.08,771.12,234.38Z"/><path class="cls-2" d="M995.8,873.23c.06-11.8,8.27-19.84,20.19-19.77s19.92,8.21,19.81,20.15c-.1,11.62-8.64,20-20.27,20S995.75,885.06,995.8,873.23Zm33.63.25c0-7.41-6.57-14.21-13.81-14.29-6.89-.08-14,7.06-14.12,14.11s7.47,14.41,14.58,14.28S1029.44,880.77,1029.43,873.48Z"/><path class="cls-2" d="M907,853.46c11.69,0,20.34,8.58,20.25,20a20.06,20.06,0,0,1-20.42,20.1c-11.71,0-19.91-8.31-19.91-20.23S894.89,853.43,907,853.46Zm0,6.18a13.65,13.65,0,0,0-14,13.13c-.24,7.57,6.45,14.88,13.68,15,6.79.07,14-7.1,14.24-14.15C921.08,866.17,914.7,859.77,907,859.64Z"/><path class="cls-3" d="M1557.18,636.84c-.18,15-.19,29.93-.45,44.89-.23,13.21-7.93,20.85-21.21,21.22-34.1.94-68.27,1.88-102.31.19-24.11-1.2-46.18,5.39-68.59,11.82-91.08,26.16-182.11,52.47-273.27,78.33-9.16,2.59-18,6.4-27.61,7.58-10.65,1.3-21.28.7-31.91.75-46,.21-91.95-.28-137.9.42a223.48,223.48,0,0,1-67-9.51C732,764.78,636.76,738,541.71,710.68c-13.11-3.77-26.26-7-39.9-7.6-4.3-.2-8.62.4-12.93.4q-47.47.06-94.94,0a73.91,73.91,0,0,1-11.89-.86c-11.73-1.93-18.61-9.54-18.48-21.68.24-22.28-.09-44.55.2-66.83.25-19.09-.26-38.23-.29-57.35-.06-41.24.22-82.48-.22-123.72-.17-15.71,6.56-26,20.27-32.89,22.28-11.13,45.69-19.37,69.05-27.76a1250.16,1250.16,0,0,1,140.27-41.56c41.47-9.63,83.11-18.36,125.06-25.69q39.23-6.86,78.74-11.56c22.42-2.65,44.92-4.66,67.44-6.43,37.66-3,75.37-4.34,113.12-3.68,29.23.5,58.41,2.27,87.57,4.58,24.67,2,49.28,4.32,73.83,7.36q44.94,5.58,89.4,14.18c38.07,7.31,76,15.27,113.61,24.72,63.62,16,126.12,35.4,186.26,61.86,4.25,1.87,8.38,4,12.49,6.17,11.58,6.08,17,15.8,16.94,28.76q-.06,51.94,0,103.88C1557.3,568.92,1557.57,602.88,1557.18,636.84Z"/><path d="M825.19,479.17v111H805.36V519.45l-19.51,14.91-16.18,12.53-16.18-12.53L734,519.45V590.2H714.16v-111L734,494.39l35.69,27.44,35.69-27.44Z"/><path d="M951.91,512.79a32.67,32.67,0,0,1-9.2,22.84,32.76,32.76,0,0,1-23.47,55.52H841V571.32h78.2a13.07,13.07,0,0,0,13-13,12.91,12.91,0,0,0-12.22-13H861V525.48h59a13,13,0,0,0-.63-26H841.2V479.64h78.2a32.63,32.63,0,0,1,32.67,32.68Z"/><path d="M1069.44,534.2A32.76,32.76,0,0,1,1046,589.72h-45.53a32.56,32.56,0,0,1-30.13-20,34.22,34.22,0,0,1-2.54-12.84V511.36A32.11,32.11,0,0,1,976,490a33.6,33.6,0,0,1,9.51-7.45,31.45,31.45,0,0,1,14.91-3.65h69v19.82h-69a13.07,13.07,0,0,0-13,13v15.55a32.44,32.44,0,0,1,12.37-2.54h46.79a32.77,32.77,0,0,1,23,10Zm-23.63,35.69a13.06,13.06,0,0,0,13-13,12.92,12.92,0,0,0-12.21-13H999.81a13,13,0,0,0,.63,26h45.37Z"/><path d="M1205.37,570.69v19.82H1094.65V557.84a31.7,31.7,0,0,1,2.7-12.85,32.59,32.59,0,0,1,28.87-20h48.06a13,13,0,0,0-1.11-25.85H1095V479.32h78.2A32.63,32.63,0,0,1,1205.84,512a32.33,32.33,0,0,1-9.35,22.68,32.93,32.93,0,0,1-22.37,10h-47.9a12.92,12.92,0,0,0-11.58,12.85v12.85Z"/></g></g></svg>