<svg xmlns="http://www.w3.org/2000/svg" viewBox="0 0 1920 1080"><defs><style>.cls-1{fill:#f2f2f2;}</style></defs><g id="Capa_2" data-name="Capa 2"><g id="Capa_1-2" data-name="Capa 1"><rect class="cls-1" x="1919" y="1079" width="1" height="1"/><rect class="cls-1" width="1" height="1"/><rect class="cls-1" y="1079" width="1" height="1"/><rect class="cls-1" x="1919" width="1" height="1"/></g><g id="Capa_3" data-name="Capa 3"><path d="M1726.8,334.69c16.17-.69,32.41-.08,48.63-.38,17.4-.31,26.63-11.38,24.24-28.6-3.34-24.35-24-46.48-48.44-49.74a186.51,186.51,0,0,0-49.73.08c-20.88,2.85-37.74,13.88-53,27.64-12.67,11.38-25.39,22.66-38.93,33-22.31,17.11-47.2,26.1-75.57,25.24-13.36-.41-26.76-.37-40.13.06a100.71,100.71,0,0,1-36.85-6.09c-73-25.46-146.86-47.77-222.77-62.93a1327,1327,0,0,0-216.86-25.59c-14.33-.52-11.7-1.3-57.35-1.3s-132.7,4.5-132.7,4.5c-25.71,4.61-51.88,7.1-77.85,11.13a1465.35,1465.35,0,0,0-190.29,43c-32.95,9.71-65.54,20.6-98,31.93A91.24,91.24,0,0,1,429.05,342c-15.8-.29-31.61-.11-47.41-.06a108.44,108.44,0,0,1-60.74-18.09C302.81,312.05,287,297.52,271,283.24c-15.06-13.41-31.52-24.25-52-27-17.72-2.36-35.64-2.74-53.2.52-23.25,4.34-42.83,26.41-45.53,49.61-2,17.5,6.94,27.7,24.83,27.95,16.62.22,33.3-.61,49.84.52,23.42,1.61,38.72,25.21,31.89,47.39-4,13.15-21,27.46-34.37,26.63-10.5-.64-21.06,0-31.61-.08-26.4-.21-31.83,5.17-31.85,32,0,47.42.91,94.86-.22,142.25,0,28.48,2.76,47.21,2.76,47.21,11.23,27.57,34.7,44.23,56.17,62.47,27.76,23.59,56.2,46.39,84.34,69.54,1.55,1.27,3,2.58,4.3,3.67.49,2.78-1.19,4.09-2.35,5.6-8.63,11.28-8.67,11.3,2.1,19.89l49.28,39.17c5.34,4.94,9.79,3.2,13-2,7.4-11.74,18-14.09,31.13-13.55,22.65.92,45.38,0,68.08.23A72.59,72.59,0,0,0,462.51,811a1697,1697,0,0,1,283-72.23c65.69-10.88,131.65-17.76,198.3-17.42l37.48,0c72.39-.17,144,8.15,215.07,20.93a1682.29,1682.29,0,0,1,251.11,65.32c15.19,5.23,30.11,8.25,46.18,7.78,21.46-.64,43,.27,64.44-.15,7.92-.16,14.29,1.19,18.8,8.16a38.7,38.7,0,0,0,4.82,5.45c6.23,6.49,6.39,6.66,13.92.82q25.44-19.78,50.61-39.88c8.64-6.89,8.55-7.17,1.54-16.39-1.47-1.92-3-3.83-5-6.48,12.23-10,24.29-20,36.44-29.87,25.49-20.69,50.81-41.59,75.29-63.46,5.73-5.13,11.31-10.46,16.87-15.77s9.23-12.13,13.36-18.79c4.55-9.67,6.58-23.58,6.58-23.58v-163c0-7.71.2-15.44-.49-23.09-1.15-13.11-7.93-19.52-21.13-20.58-4-.32-8.09-.06-12.15-.06-10.54,0-21.1.54-31.61-.08-21.67-1.27-38.06-23.78-33.16-44.83C1696.84,346.07,1708.65,335.48,1726.8,334.69Zm-.41,256.64a113.67,113.67,0,0,1-1.47,19.36c-2.65,14.4-11.14,21.78-25.67,22.9-4.83.37-9.72.23-14.58.23q-88.79,0-177.57.06c-5.65,0-11.48-.08-16.92,1.21-15.83,3.77-24.74,15.61-24.92,33-.25,25.54,0,51.08-.12,76.62,0,4.86,0,9.81-.88,14.53-1.84,9.56-7.06,13.83-16.72,14.21-13.81.52-27.19-.59-40.6-5.27A1348.61,1348.61,0,0,0,1211.32,716a1275.76,1275.76,0,0,0-143.27-18.71c-32-2.34-64-3.13-96-3.4l-22,0q-29.17.32-58.34,1.2c-47,1.39-93.67,6.81-140.18,13.68-83.12,12.3-163.94,33.78-243.29,61-13.09,4.49-26.29,3.94-39.62,3.42-8-.32-11-6.39-12.64-12.79-1.17-4.61-1-9.64-1-14.49,0-23.1.09-46.2.14-69.3,0-3.64.06-7.31-.27-10.93-1.76-19.29-12.84-30.24-32.1-31.52-6.85-.46-13.76-.35-20.65-.35-57.56,0-115.11-.55-172.65.18-26.54.34-35.15-11.67-35.83-35.13-.73-25.1-.18-50.25-.17-75.38a35.08,35.08,0,0,1,11.85-26.93c7.78-7.21,16.54-13,25.55-18.46,71.37-43.46,146.86-78.39,224.72-108.37a1457.75,1457.75,0,0,1,267-75,1281,1281,0,0,1,224.84-19.92l28.2,0c114.47.28,226.86,16,337.32,45.79,127.91,34.48,249.73,83.75,364.35,150.45,10.84,6.3,21.6,12.74,31.55,20.47,12,9.29,18.33,20.81,17.8,36.53C1725.92,549.15,1726.56,570.25,1726.39,591.33ZM297.58,796c-5.68-5.05-11.79-9.63-17.62-14.33,12.09-23.62,30.34-41.92,46.74-62.48,5.35,10.88,16.71,14.24,24.42,25-10.49-4-15.25-13-26.17-16.22,3.57,8.84,10.48,11.74,15.22,16.51,1.62,1.63,4.23,2.66,3.36,5.77-1.44,5-6.48,6.46-10.73,3.34-3.68-2.7-6-7.71-12.81-7.87,1.85,8.33,10.51,10.22,13.32,16.85-8.93,10.76-18,21.55-26.92,32.52C303.55,798.53,301.24,799.26,297.58,796ZM434,725.56c.76,6.24-1.13,10.75-5.54,15.07a229.48,229.48,0,0,0-17.19,18.77c-3.7,4.56-7.49,5-12.73,3.27-11.4-3.69-20-9.41-36.19-25.29,5.82-8.66,5.76-8.59,12.39-2.77,18.81,16.5,14.4,16.08,28.61-3,5.76-7.74,5.65-7.81,14.72-3.11,1.35-3.61-.83-4.77-2-6.13-2.48-2.83-3.32-5.3-.2-8.25,5-4.75,3.9-10,1.27-15.54-1.55-3.27-2.14-7.05-3.95-10.13-4.32-7.34-2.55-12.87,4.57-17.64,8.22,6.07,14.6,12.66,14,24.58C431.29,705.38,432.8,715.55,434,725.56Zm-42.58-24.65,15-17.4c.76,11.54,12.78,19.53,1.89,31.24Zm11.93,19c0,7.69-8.11,13.28-12.77,20.74-23.15-19.33-22.52-11.55-2.58-34.46.64.21,1.51.22,2,.66C394.51,711.36,403.37,714.43,403.37,719.88ZM396.6,686.4c-9.64,11.71-11,11.74-21.28.65-1.31-1.43-3.17-2.67-1.85-5,1.15-2,3.22-2.21,5.18-2.14,6.69.23,13.36.6,22,1C398.43,683.93,397.58,685.21,396.6,686.4ZM374.37,713c-1.82,2.13-3.66,4.24-6,7-6.34-3.42-11.22-8.51-16.63-14,4.29-4.92,8.6-9.6,12.6-14.53,2.2-2.73,4.21-3.47,6.87-.86a9.87,9.87,0,0,0,.9.8C384.65,701,384.65,701,374.37,713Zm27.81-37.45c-6.05,0-12.12-.53-18.16-1-5.21-.39-10.57-1.81-14.56,3.22-3.8,4.78-6.64-4.1-10.36-.78,3.42,8.65,3.28,8.53-3.76,16.53-12.88,14.59-14.43,10.66,1.7,25.37,7.22,6.58,7.34,6.44-.39,14.87C349.46,728,342.37,722,335,716.48s-6.78-14.25-8.81-21.82c-1.55-5.79,3.84-8.41,6.82-12,5.19-6.2,10.68-12.14,15.9-18.3a11.75,11.75,0,0,1,10.52-4.54c14.52.83,29.08,1.15,43.61,1.82,3.39.14,7.77-1,9.2,3.54C413.18,668.35,406.29,675.57,402.18,675.58Zm-72,145.8c-7.57-5.91-15.19-11.84-23.51-18.31,9.47-11.47,18.78-22.57,27.88-33.84,2.74-3.4,4.65-3.07,7.73-.29,3.92,3.53,7.28,8.29,14.19,9.61-1.07-7.08-6.41-9.16-9.9-12.58-3-2.94-6.28-4.79-1.71-9.57,3.84-4,6.15-3.71,9.81-.22,4.19,4,8.45,8.19,14.84,9.18C366.58,757.08,358,754,351.82,745c12.34,5.46,18.62,15.07,29.08,19.64C365.76,785.09,349.86,804.59,330.14,821.38ZM957.19,706.51c-.44,3.4-1.54,5.32-5.2,5.09-1.62-.1-3.24,0-4.86,0C846.55,710.64,747.8,725.2,650,747.23A1720,1720,0,0,0,456.6,802.58c-3.86,1.37-7.65,2.56-11.77,2.56H356c10.64-13.49,19.66-24.8,28.54-36.23,3.56-4.6,7.91-3.57,12-1.61,8.31,4,14.6,2.06,19.61-5.41a19.19,19.19,0,0,1,4.1-4.47c16.73-12.82,22.52-29.47,18-50a51.13,51.13,0,0,1-1-12.1c.29-10.35-2.46-19.43-11.31-25.33-5.57-3.73-2-8.23-.62-13.09-5.21.71-8.35,5.05-12.21.85-1.94-2.09-5.4-1.24-8.21-1.36-14.57-.61-29.16-.95-43.72-1.88-7-.43-12.28,1.14-17,6.83A183.18,183.18,0,0,1,326,680.89c-4.71,4.24-7.86,10.13-4.64,17.24,1,2.17,1.08,4.73,1.84,7,1.81,5.52.62,9.9-3.34,14.38-9.93,11.23-19.51,22.79-28.85,34.52-3.65,4.59-6.09,6.2-11.46,1.77-39.08-32.23-78.52-64-116.36-97.73-16.45-14.64-24.59-32.41-24.46-54.59.33-55.54.11-111.07.1-166.61,0-.81,0-1.62,0-2.43.55-13.44,3.12-15.92,17-15.93,10.94,0,21.9,0,32.83.35,12.89.45,23.69-4.09,33.18-12.52,15.17-13.48,20.38-31.93,13.37-50.63s-20.61-29.89-41-30.74c-15.79-.65-31.62-.14-47.43-.28-13.92-.11-19.91-7.79-16-21.13,6.39-21.52,22.72-39.66,49.51-38.65,6.48.24,13,.17,19.45-.17,23.64-1.24,43.5,7.43,60.94,22.75q17.34,15.25,34.92,30.24c27.32,23.12,58.21,36.15,94.71,33.95a287.65,287.65,0,0,1,32.83,0c16.51.89,32-2.51,47.51-8,66.44-23.31,133.78-43.56,202.74-58.18,90.27-19.14,181.45-29.47,273.77-29.22,4.2,0,10.1-2.55,10.19,6,.06,5.91-1.71,7.57-7.55,7.51-21.89-.2-43.75.57-65.62,1.57-89.77,4.09-177.92,18.4-264.86,40.73A1524.85,1524.85,0,0,0,283,442.5C263.7,452.72,244.92,463.94,226.1,475a184.84,184.84,0,0,0-20,13.84c-11.84,9.28-18,21.25-17.65,36.79.48,23.49,0,47,0,70.53a77.59,77.59,0,0,0,.74,10.88c3.32,22.9,13.43,31.79,36.56,31.81q90,.07,180,0a160.55,160.55,0,0,1,18.23.56c14.65,1.68,23.49,10.5,24.91,25.15.79,8.05.65,16.19.7,24.29.12,20.27.08,40.55.18,60.81,0,6.08.16,12.14,3.1,17.78,3.45,6.58,8.38,10.83,16.11,11.09,14.17.47,28.06.48,41.93-4.34a1360.63,1360.63,0,0,1,187.2-50.77c52.52-10.18,105.38-17.65,158.82-21.22,30.77-2.06,61.54-2.53,92.34-2.83C954.6,699.31,958,700,957.19,706.51Zm632.89,114.77c-19.61-16.26-35.14-35.66-50.07-56,8.38-6.58,16.6-13,24.8-19.47.49.7,1,1.39,1.45,2.08-5.28,5-10.59,9.86-15.79,14.88-.43.4-.22,1.47-.4,3.07,9.53-.62,13-10.38,20.6-13.15,8,8.22,7.8,8,.31,15.36-2.74,2.69-9.71,5.18-5.74,9.59,2.66,3,6.08-3.45,9.16-5.63,2.29-1.62,4.23-3.74,7.39-6.6,10.31,12.31,20.51,24.46,31.35,37.38Zm-101.73-126c-.92-11.39,4.47-19.07,13.88-24.55,8.31,7.85,8.33,7.85,4.91,16.84-1.73,4.52-3.55,9-5.19,13.58-1.25,3.47-2.64,7.67.33,10.34,6.43,5.77,2.52,9.58-1.55,13.8-.34.35.1,1.45.21,2.47,4.27,2.22,5.72-3.64,10.33-3.32,4,5.62,8.43,11.82,12.76,18.09,3.24,4.67,6.77,5.2,11,1.29,5.33-4.88,10.79-9.66,16.17-14.46,7.65,8,7.81,8.27.57,13.53-9.7,7.05-17.82,16.45-30.26,19.58-5.26,1.32-9.35,1.79-12.59-3.28a32.22,32.22,0,0,0-3.23-3.6c-6.42-7.23-15.77-13.51-18.5-21.92-3-9.38,0-20.7.39-31.17C1487.72,700.12,1488.55,697.68,1488.35,695.31Zm39.89,5.12a99.07,99.07,0,0,1-16.49,14.11c-11.6-11.45,1.48-19.68,1.34-32.09Zm-9.59-19.75c9.13-.39,16.15-.79,23.17-.93,1.93,0,4.1.3,5.06,2.55,1,2.45-.74,3.73-2.24,5-3.65,3.13-7.38,6.18-12.06,10.08C1528,691.91,1524.19,687.33,1518.65,680.68Zm13.49,24.65c4.72,5.65,9,10.92,13.47,16.08,2,2.29,1.87,4.14-.4,6.11-4.78,4.17-9.49,8.43-13.53,12-3.14-.36-3.86-1.92-4.81-3.13C1513.51,719.39,1513.53,719.39,1532.14,705.33Zm10,3.56c-1.79-2.16-3.55-4.34-6-7.38L1552,688c4.5,4.81,8.76,9.53,13.22,14.07,2.85,2.9,2.66,5-.26,8C1553.1,722.16,1553.21,722.26,1542.1,708.89Zm20.6,10c13.78-12.63,13.78-12.63,1.11-26.13a6.29,6.29,0,0,0-.84-.87c-6.06-4.24-7-9.07-1.29-15.28-5.61.85-9.64,5.5-13.86-.72-1.74-2.57-6-1.77-9.24-1.48-4.83.42-9.76.33-14.52,1.17-9.29,1.62-14.29-2.82-17.27-10.74,2.79-3.63,6.55-3.24,10.13-3.37,14.17-.56,28.35-.92,42.5-1.8,5.4-.33,9.16,1.16,12.54,5.44,4.77,6,10,11.63,15.24,17.32,8.83,9.69,8.59,24.37-1.21,33-7.22,6.39-15.06,12.08-22.58,18.06C1555.62,725.42,1555.62,725.42,1562.7,718.92Zm55,80.44c-10.65-12.74-20.73-24.78-31.71-37.9,4.86-4.56,9-8.37,13-12.32.42-.41.2-1.51.36-3.14-7.69.39-10.54,8.17-16.55,10.42-8.09-7.7-7.94-7.55-.83-14.06,4.25-3.89,10.22-6.32,12.83-14.47-10.36,3.05-15.2,11.87-25.9,16.4,7.65-10.62,18.42-14.62,24.65-24.48,15.81,19.44,33.62,37.84,46.3,61.9Zm65.8-415.43c5.08,18.65,24.15,34.27,43.62,34.71,13,.29,25.94-.2,38.92-.09,11.25.1,15.06,3.07,15.14,14.27.47,59.58,1.15,119.18-.48,178.76-.47,16.82-7.6,31.26-20.22,42.81-39.5,36.15-81.23,69.63-122.9,103.19-.9.72-2.18,1-3.71,1.61-11.76-13.86-23.47-27.8-35.38-41.56-2.36-2.75-3.19-5.46-2.32-8.89,1-3.92,1.71-7.91,2.83-11.79,1.49-5.15.53-9.26-3.33-13.26-7.3-7.58-14.38-15.42-21.08-23.54-3.8-4.59-8.18-6-13.85-5.72-15.77.84-31.57,1.44-47.36,2.13-2.46.11-5.25,0-6.9,1.78-3.69,4-6.45-.48-11-.79,3.47,7,1.06,11.91-4.49,16-5.19,3.81-7.26,9.05-7.5,15.72-.5,13.34-1.8,26.67-3,40-.45,4.89,1.21,8.62,4.43,12.06,7.48,8,15,15.92,22.23,24.16,3.72,4.27,7.26,5.06,12.73,3.08,13.3-4.82,10.58-5.31,19.78,6,7.64,9.38,15.07,18.94,22.49,28.3-1.94,4.14-5.16,2.21-7.6,2.24-23.11.18-46.22.07-69.33.29a79.3,79.3,0,0,1-27.25-4.64,1747.88,1747.88,0,0,0-254.32-67c-54.63-10.05-109.57-17.48-165-20.79-22.64-1.34-45.39-.86-68.08-1.27-7.42-.13-8.37-1.21-7.93-7.18.26-3.5,1.69-5.13,5.24-5,2.83.08,5.68,0,8.52,0,143.52-.47,282.8,24.48,418.61,70.06,16.59,5.56,33,10.6,50.86,9.36,15.88-1.1,23.48-7.76,24.3-24,.4-8.09.19-16.21.2-24.32,0-19.47-.09-38.92.1-58.38.23-23.64,9.46-33.2,33.32-33.31,61.62-.29,123.25-.14,184.87-.18,4,0,8.12.15,12.16-.18,16.46-1.32,27-10.78,29.29-27.18a196.73,196.73,0,0,0,1.45-25.47c.19-19.87-.25-39.73.15-59.6.33-16.4-6.24-28.93-19.16-38.56-24.74-18.48-51.9-33-79.13-47.31a1528.5,1528.5,0,0,0-362.6-135.64c-64.34-15.09-129.43-25.71-195.4-30.72-34.77-2.64-69.58-4.29-104.45-4.26-8.33,0-9.41-1.56-8.51-8.77.69-5.61,4.75-4.67,8.14-4.67,26.34.07,52.7.47,79,2,137.27,8.19,269.69,39.32,398.92,85.14,15.91,5.64,31.77,8.89,48.69,8.19,17.79-.73,35.69.23,53.47-.75,25.59-1.44,47.49-12.76,67.21-28.35,12.39-9.79,24.1-20.44,36.1-30.72,14-11.94,28.35-23.12,47.3-25.83a189.29,189.29,0,0,1,48.5-.31c19.12,2.19,36.56,20.13,39.54,39.51,2.25,14.67-3.48,19.89-15.64,19.53-15.79-.48-31.61-.07-47.41.17C1693.81,325.46,1676.47,358.16,1683.5,383.93Z"/><path class="cls-1" d="M1708.83,491.56c-9.95-7.73-20.71-14.17-31.55-20.47-114.62-66.7-236.44-116-364.35-150.45-110.46-29.77-222.85-45.51-337.32-45.79l-28.2,0a1281,1281,0,0,0-224.84,19.92,1457.75,1457.75,0,0,0-267,75c-77.86,30-153.35,64.91-224.72,108.37-9,5.48-17.77,11.25-25.55,18.46a35.08,35.08,0,0,0-11.85,26.93c0,25.13-.56,50.28.17,75.38.68,23.46,9.29,35.47,35.83,35.13,57.54-.73,115.09-.22,172.65-.18,6.89,0,13.8-.11,20.65.35,19.26,1.28,30.34,12.23,32.1,31.52.33,3.62.27,7.29.27,10.93-.05,23.1-.17,46.2-.14,69.3,0,4.85-.19,9.88,1,14.49,1.63,6.4,4.63,12.47,12.64,12.79,13.33.52,26.53,1.07,39.62-3.42,79.35-27.25,160.17-48.73,243.29-61,46.51-6.87,93.16-12.29,140.18-13.68q29.17-.86,58.34-1.2l22,0c32,.27,64,1.06,96,3.4A1275.76,1275.76,0,0,1,1211.32,716a1348.61,1348.61,0,0,1,195.62,52.22c13.41,4.68,26.79,5.79,40.6,5.27,9.66-.38,14.88-4.65,16.72-14.21.92-4.72.85-9.67.88-14.53.08-25.54-.13-51.08.12-76.62.18-17.43,9.09-29.27,24.92-33,5.44-1.29,11.27-1.2,16.92-1.21q88.77-.12,177.57-.06c4.86,0,9.75.14,14.58-.23,14.53-1.12,23-8.5,25.67-22.9a113.67,113.67,0,0,0,1.47-19.36c.17-21.08-.47-42.18.24-63.24C1727.16,512.37,1720.81,500.85,1708.83,491.56ZM253.62,600.63a29.72,29.72,0,0,1-29.25-30.55,30.38,30.38,0,1,1,60.76.85C284.85,588,271.1,601,253.62,600.63ZM617,563.8a29.16,29.16,0,0,1-.71-58.32,28.46,28.46,0,0,1,29.61,28.74C646,550.87,633.49,563.73,617,563.8Zm686.14,0a29.3,29.3,0,0,1-29.41-29.33c-.1-15.51,12.79-28.68,28.41-29,16.69-.37,29.53,12,29.7,28.61S1319.66,563.68,1303.17,563.83Zm362.91,36.79c-17.69.37-30.9-12.56-30.93-30.29,0-16.57,13.7-30.46,30-30.34,16.58.11,30.37,13.64,30.61,30A30.11,30.11,0,0,1,1666.08,600.62Z"/><path d="M616.32,505.48A29.16,29.16,0,0,0,617,563.8c16.46-.07,29-12.93,28.9-29.58A28.46,28.46,0,0,0,616.32,505.48Zm-2.78,53c-11.28-2.81-17.4-9.15-19.46-17.59.06-3,.57-3.48,1.56-3.47C616.16,537.65,615.39,531.91,613.54,558.44Zm-19.12-27.13c1.66-12.52,6.05-17.07,19.12-19.79a3.69,3.69,0,0,1,.41,1.1C614.45,535,618.14,533,594.42,531.31Zm25.8-19c12.1,1,17.45,6.21,19.52,19.13C616,533,618.72,534.61,620.22,512.26Zm4.42,45.18c-3.8,1.55-4.88,0-5.3-3.62-1.8-15.91-1.08-16.78,15.07-16.69h6.17C639,548,633.35,553.89,624.64,557.44Z"/><path d="M254.53,540a30.62,30.62,0,0,0-30.16,30.1,29.72,29.72,0,0,0,29.25,30.55c17.48.33,31.23-12.63,31.51-29.7A30.8,30.8,0,0,0,254.53,540Zm0,55.67c-13.67-.08-25.41-12-25.13-25.57a25.54,25.54,0,0,1,26-24.77c12.85.31,24.62,12.28,24.67,25.1C280.12,584.11,268.36,595.75,254.56,595.65Z"/><path d="M1302.17,505.49c-15.62.33-28.51,13.5-28.41,29a29.3,29.3,0,0,0,29.41,29.33c16.49-.15,28.87-13,28.7-29.73S1318.86,505.12,1302.17,505.49Zm-2.94,53c-11.21-3.22-17.42-9.39-19.46-19.55,1.1-.82,1.68-1.63,2.24-1.61C1301.75,537.83,1301.54,531.35,1299.23,558.53ZM1281,531.65c0-11.48,4.77-16.79,18.37-20.28.17.34.48.68.5,1C1300.68,536,1303.13,532.44,1281,531.65Zm25.41-19.45c12.37,1.64,16.19,5.21,19.8,19.1a8.77,8.77,0,0,1-1.82.54C1303.65,532,1303.91,536.45,1306.4,512.2Zm.95,46c-.93-1-1.4-1.31-1.42-1.62-1.19-23.92-3-19.51,19.72-18.88C1324.23,549.35,1321,553.05,1307.35,558.21Z"/><path d="M1665.19,540c-16.34-.12-30.08,13.77-30,30.34,0,17.73,13.24,30.66,30.93,30.29A30.11,30.11,0,0,0,1695.8,570C1695.56,553.63,1681.77,540.1,1665.19,540Zm-.81,55.63a25.17,25.17,0,0,1,1.32-50.31c13.61.19,25.37,12.39,25,25.91C1690.28,585,1678.26,596.13,1664.38,595.62Z"/><path d="M252.9,554.24c5.53,4,.44,10.47,4.44,13.51,3.68,2.8,9.31-.65,13.58,2.31-1.36,5.18-5.32,3.42-8,3.4-4.85,0-7.6,1.09-7.1,6.7.22,2.49,1.11,5.67-.85,6.74-2.33,1-3,.72-3.17-.32-.58-3.91.08-8.64-1.93-11.52-2.34-3.35-7.58-.75-11.39-1.8a12.4,12.4,0,0,1-2.86-1.63c.2-.94.13-2,.5-2.18,4.39-2.24,10.12,1.44,13.79-2.31C253,564,249.35,558.43,252.9,554.24Z"/><path d="M1648.86,570.65c.32-.54.41-1,.65-1.09,4.37-2.38,10.13,1.31,13.74-2.34,3.17-3.19-.37-8.69,2.47-12.57,4.51.09,3.76,3.67,3.5,6.11-.7,6.53,2.16,8.59,8.28,8,2.13-.21,4.81-1.09,6.48,1.65-1,4.89-5,3.12-7.69,3.05-5-.13-7.5,1.28-7,6.76.22,2.52,1.06,5.67-1.5,7-1.68.65-2.17.3-2.62-.54-2.13-4,1.62-9.84-2.41-12.35-3-1.87-7.8-.76-11.76-1.3C1650.15,573,1649.52,571.44,1648.86,570.65Z"/><path d="M827.64,428.81v111H807.81V469.1L788.3,484l-16.18,12.53L755.94,484,736.43,469.1v70.74H716.61v-111L736.43,444l35.69,27.44L807.81,444Z"/><path d="M954.36,428.81v111H934.54V494.16H876a31.42,31.42,0,0,1-14.91-3.65,32.39,32.39,0,0,1-17.77-29V428.81h19.83v32.68a13.07,13.07,0,0,0,13,13H934.7V428.81Z"/><path d="M1040.49,428.81a35.81,35.81,0,0,1,35.84,35.85v39.17a35.81,35.81,0,0,1-35.84,35.85h-34.27a35.81,35.81,0,0,1-35.84-35.85V464.66a35.81,35.81,0,0,1,35.84-35.85Zm-34.27,19.83a16.24,16.24,0,0,0-16.17,16.18V504a16.24,16.24,0,0,0,16.17,16.18h34.27A16.25,16.25,0,0,0,1056.67,504V464.82a16.25,16.25,0,0,0-16.18-16.18Z"/><path d="M1202.9,520.33v19.83H1092.19V507.48a31.45,31.45,0,0,1,2.7-12.84,32.55,32.55,0,0,1,28.86-20h48.06a13,13,0,0,0-1.11-25.85h-78.19V429h78.19a32.63,32.63,0,0,1,32.68,32.67,32.45,32.45,0,0,1-9.36,22.69,33,33,0,0,1-22.36,10h-47.91a12.91,12.91,0,0,0-11.58,12.85V520Z"/></g></g></svg>