<svg xmlns="http://www.w3.org/2000/svg" viewBox="0 0 1920 1080"><defs><style>.cls-1{fill:#f2f2f2;}.cls-2{fill:#020202;}</style></defs><g id="Capa_2" data-name="Capa 2"><g id="Capa_1-2" data-name="Capa 1"><rect class="cls-1" width="1" height="1"/><rect class="cls-1" x="1919" y="1079" width="1" height="1"/><rect class="cls-1" y="1079" width="1" height="1"/><rect class="cls-1" x="1919" width="1" height="1"/><path class="cls-2" d="M1587.91,275.62c0-5-12.77-13.36-12.77-13.36-12.54-8.46-25.36-16.52-37.6-25.4-9.62-7-19.94-9.62-31.7-9.59-80.55.22-161.11-.05-241.67.38-13.28.07-23.07-3.79-30.32-15.05-5-7.75-11-14.82-16.58-22.23-4.46-6-10.28-9-17.83-8.9-8.2.15-16.4.15-24.61.08-23.14-.2-42.62,8.18-58.57,24.87-13.08,13.68-26.24,27.27-39.13,41.13-7.55,8.12-16.44,12.32-27.63,12.24l-163.73.15c-14,.39-24.6-4.41-33.82-14.67-12-13.28-24.62-25.91-37.06-38.74-16.31-16.84-36.12-25.43-59.7-25-10.51.17-21,.3-31.54.3-2.68,0-7.45,5.9-7.45,5.9-7,9.22-14.05,18.34-20.81,27.69-6.17,8.52-14,12.17-24.75,12.14-80.31-.25-160.63.12-240.94-.29-15-.08-27.89,3.17-39.92,12.19-12.92,9.7-26.56,18.44-40,27.47-8.15,5.49-6.9,27.68-6.9,27.68q-.09,115.11-.09,230.21c0,2.51-.22,5-.34,7.53.14,3.34.39,6.68.39,10q.12,93.55.15,187.12a31.38,31.38,0,0,0,10.46,24c2.58,2.38,5.78,4.09,8.7,6.11a75.22,75.22,0,0,0,21.09,2.4c24.09-.07,48.19.06,72.28.11,14.49-1.17,28.23,3.45,42.31,5.44,8.5,1.21,16.94,3,25.4,4.48,3.34.61,6.48,1.55,8,6.26l-71.92-5c-25.15-.24-50.15-3.24-75.26-4.3-7.32-.31-14.65-.75-22-1.14-9.78,3.28-18.49,8.78-27.7,13.25-3.51,1.7-3.29,4.07-2.21,7.25,2.46,7.27,6.92,13.83,7.63,21.7,1.11,1.69,2.35,3.32,3.29,5.1,2.8,5.27,2.42,13.44,8,15.66s12-2.44,17.84-4.48a34.08,34.08,0,0,1,25.6.69c15.47,6.38,31.32,11.86,47.07,17.57,8.63,3.13,17,7.55,26.38,7.86,19.92.63,40-1.15,59.66,3.5,3.2.76,7.07-.85,9.66,1.8,4.47,4.57,10.25,6.43,16,8.45,22.33,7.87,44.7,15.62,67,23.54,0,0,18.32,4.69,29.17,7.55s44.1-.17,44.1-.17a81.45,81.45,0,0,0,22.32-3.29C757.69,882.12,799.5,870,842.7,864.5c30.63-3.92,61.54-5.08,92.45-5l75.8.16,47.91,2.25,2.56.1c15.44.46,30.68,3,45.84,5.49,32,5.25,63.28,13.68,94.36,22.71,16.29,4.74,32.52,7.94,49.55,6.94,13.19-.78,26.5,1.22,39.63-1.17,11-2,21.17-6.68,31.65-10.31q30.32-10.51,60.52-21.36c9.2-3.3,15-9.17,15.71-19.75.91-12.79-.34-25.6.82-38.36-.88-8.38-.5-16.77-.2-25.16.17-5,3-7.9,7.6-8.63,26.28-4.15,52.09-11.4,79.1-10.65,20.8.58,41.63,0,62.45.23,8.3.09,16.3-.84,24-3.93,7.66-5.61,14-12.28,15.11-22.16a196.36,196.36,0,0,0,.89-22C1588,567.8,1589.1,421.71,1587.91,275.62ZM374.85,819.78c-6,1.7-12,3.49-18,5.52-2.79,1-4.09.42-5.18-2.39-4.4-11.3-9-22.5-13.56-33.74-.53-1.33-1.63-3,.05-3.95,6.92-3.83,14-7.44,19.74-10.48,3.32-.77,3.75.4,4.34,2q7.26,19,14.75,37.94C378.06,817.24,378,818.9,374.85,819.78Zm129.54,27.9c-20.83-.33-41.58,1.3-61.65-7.93-18.72-8.6-38.6-14.66-58-21.83-4.78-6-5.85-13.55-8.78-20.32-3.29-7.61-6.08-15.44-9.34-23.8,8.28-1.11,15.79.33,23.31,1,6.47,2.34,13.14.44,19.71.95,15.27,1.17,30.58,2,45.87,3,13.73.76,27.45,1.59,41.18,2.24,2.93.14,3.33,1.58,3.27,4-.19,8.75-.24,17.5-.34,26.25.08,4,.42,8,.18,11.93-.47,7.81.6,15,6.3,21C508.54,846.66,507.44,847.73,504.39,847.68Zm26.94,3a1.76,1.76,0,0,1-.61.13c-5-.86-11.29,2.61-14.74-1.94-5.37-7.06-12.7-13.57-11.08-24.19.74-4.9.33-10,.44-15-.12-8.18-.2-16.37-.4-24.55-.06-2.39.7-3.48,3.25-3.28,6.9.54,13.82,1,20.74,1.36,2.57.11,3.23,1.33,3.2,3.55Q532,799,531.91,811.3l.66,37.8C533,850.3,532.67,850.88,531.33,850.65ZM542.21,839c-.1-10.08.26-20.16.41-30.24a141.81,141.81,0,0,1,0-21.42c-.22-1.26-.13-2.27,1.59-2q40.92,7.55,81.85,15.12c8,1.48,16,3.16,23.94,4.76,13.17,2.43,26.4,4.61,39.5,7.38a29.07,29.07,0,0,1,23.31,24.31c.39,2.34.88,5-2,5.81s-6.31.46-7.2-3.12c-2.22-9-7.48-14.82-16.62-16.87-3.88-.87-.15-5.43-3.39-6.51L673.36,825a19.93,19.93,0,0,0-8,8.66c-3.52,7.22-3.53,7.22-10.16,8.93,1.27.58,10.44,9.59,11.55,11.24,2.66,4,6.12,7.32,10.93,7.74,5.11.45,4.45,4,4.16,6.79-.46,4.24-4.05,2-6,1.71-40.84-6.21-81.65-12.64-122.49-18.9C542.53,849.56,542.32,849.75,542.21,839ZM684.93,833c-.09-1.79-1.68-5.1,2.14-5.23,4.12-.14,11.66,7.74,10.95,11.62-.84,4.52-4.89,1-6.2,1.91C682.35,843.35,685.14,836.91,684.93,833Zm7.38,11.38c1.45.88,5.39-2.93,5.8,1.9.32,3.75-7.77,11.72-11.27,11.23s-2-3.58-2-5.49C684.59,847.34,683.49,841.45,692.31,844.4ZM687,862.32c8.61-2.27,14.59-6.91,16.28-16.09.55-3,3.12-2.08,5-2.24,4.89-.81,5.16,1.1,3.86,5.21-3.6,11.43-11.3,18.23-22.66,21.14-1.57.41-4,1.81-4.59-1.16C684.38,866.7,683.27,863.3,687,862.32Zm-5.15-28.14c.11,6.81-5.46,10.1-11.83,7.45-2-.85-1.52-2.3-1.1-3.58a15.46,15.46,0,0,1,5-7c1.9-1.57,4-4,6.44-3.13C683.38,829,681.05,832.33,681.83,834.18Zm-6.76,9.73c2.41.59,5.86-1.26,6.49,1.16.91,3.48.33,7.41.05,11.12-.1,1.23-1.66.84-2.66.72-3.65-.44-9.89-6.71-9.76-10.47C669.35,841.6,673.41,845.24,675.07,843.91Zm903.46-119.09c-.11,19.11-7.89,26.82-26.88,26.87q-37.86.12-75.71,0a134.65,134.65,0,0,0-25.67,2.35l-42.64,7.9c-12.7,2.35-18,8.46-18.31,21.49-.25,9.22-.32,18.45-.46,27.67.88,10.7.45,21.41.2,32.11-.17,7-4.86,10.17-10.84,12.27-24.75,8.68-49.35,17.8-74.22,26.11-27.85,9.31-56.52,7.65-84.64,2.58-22.42-4-44.24-11.39-66.33-17.29-47.86-12.77-96.77-16.7-146.06-17.35-9.26-.12-18.51-.16-27.76-.28H958.72c-37.42.37-74.86.5-112.12,4.77-32.64,3.75-64.39,11.69-96.07,20-13.19,3.46-26.3,7.22-39.46,10.8a28.56,28.56,0,0,1-6.77,1.37c-24.67.38-49.57,4.43-73.78-3.47-15.75-5.14-31.29-10.91-46.91-16.43-3.15-1.11-6.26-2.35-9.38-3.52-4.49-.54-8.47-2.37-13.76-5.44l13.76,2.13c30.62,4.79,61.22,9.65,91.84,14.31,8.26,1.26,16.58,3.3,25,1.31,25.54-6.06,35.47-35.66,19-56.26-1-1.3-2.2-2.5-3.3-3.75-12.3-9.48-27.45-9.69-41.7-12.49-39.1-7.67-78.29-14.91-117.47-22.2-3.42-.63-5.56-1.71-6.68-5.37-2.32-7.61-8.22-11.65-15.72-12.86-23.17-3.74-46-9.72-69.6-10.68l-65.56,0c-6.47.39-13,.74-19.37-.52-10-2-16.59-9.24-17.45-19.42a122,122,0,0,1,.15-21.28q-.06-45.09-.11-90.17Q353,454.58,352.71,289c0-8.87,2.47-14.89,10.37-19.64,12.95-7.79,25.4-16.44,37.73-25.18a36.83,36.83,0,0,1,22.36-6.86c81.81.11,163.62-.09,245.42.32,16,.08,28-5.53,36.81-18.73,5-7.49,10.74-14.52,16-21.86,2.78-3.87,6-5.86,11.1-5.55,12.14.76,24.38-1,36.49,1.1A68.16,68.16,0,0,1,807.23,213c13,13.43,26.13,26.77,38.7,40.61,10.15,11.17,22.23,16.3,37.31,16.23q81.71-.37,163.41,0c15.7.09,28.53-4.78,39.14-16.59,12.21-13.59,25-26.66,37.71-39.84,13.6-14.13,30.14-21.72,49.92-21.79,8.63,0,17.25,0,25.87-.11a11.24,11.24,0,0,1,10.17,5c6.5,9,13.29,17.85,20,26.73,7.19,9.54,16.64,14.18,28.72,14.16,83.07-.09,166.14,0,249.21-.11,8.55,0,15.94,1.91,23,6.88,13,9.21,26.34,18,39.77,26.67,6.17,3.95,8.61,9,8.6,16.22q-.23,182.59-.2,365.19C1578.52,676.47,1578.66,700.65,1578.53,724.82Z"/><path class="cls-2" d="M1572.56,448.26c0-16.13-7.38-27.63-22-34.39-25.69-11.87-51.65-23.11-78.16-33.05-48.77-18.28-99.07-31.42-149.5-44.09-44.37-11.15-89.11-20.58-134.36-27.5-3.19-.49-6.32,0-6-4.94.27-3.81-.41-6.68,5.17-7.83,13-2.67,21.51-10.91,24-24.32.68-3.58,1.92-4.83,5.74-4.65,4.22.2,8.81,1.32,12.73-1.9a69.42,69.42,0,0,0-13.56-.65c-3.13.14-4.42-1.07-5-4.16-2.44-13.72-10.86-22-24.32-24.69-4.26-.86-4.88-2.72-4.83-6.32.06-3.92.73-8-1.07-11.77-1.92,4.16-1.21,8.5-1.26,12.74,0,3.11-.43,4.72-4.28,5.24a28.61,28.61,0,0,0-24.78,23.46c-.84,4.81-3,5.59-7.12,5.5-3.83-.07-7.93-1.07-12,1,1.76,2.12,3.61,1.87,5.14,1.64,8.23-1.19,13.13.22,15.55,10.14,2.76,11.31,12.07,17.63,24.12,19.09,5.91.72,2.84,5.58,3.18,8.58.42,3.67-2.71,2.32-4.47,2.11-6.26-.73-12.48-1.77-18.73-2.56-51.53-6.54-103.26-10.83-155.19-12.33l-36.8-1.15c-29.64.7-59.27,1.62-88.86,3.65-39.43,2.71-78.74,6.52-117.91,11.75-2.07.27-5.47,2.86-5.8-1.7-.24-3.36-1.71-7.39,4.2-8.72,13-2.94,21.63-10.87,24-24.34.69-3.86,2.54-4.56,5.91-4.57,4.41,0,8.93.75,13.26-1.31-4.24-1.88-8.73-1.38-13.08-1.21-3.73.14-5.46-.69-6.26-4.8-2.52-13.05-10.79-21.11-23.6-24.05-3.75-.86-4.66-2.2-4.66-5.75,0-4.08,1.31-8.46-1.65-13.53-1.55,5.19-.85,9.33-.86,13.35,0,3.48-.86,5.11-4.77,5.74-13.68,2.21-22.27,10.5-25.11,23.95-1,4.54-2.87,5.32-6.75,5.07s-7.57,0-11.35,0c0,.57,0,1.15,0,1.72,4.23,1.82,8.79.79,13.19.9,2.53.07,4,.22,4.63,3.51,2.75,15.2,10.85,23.25,26.09,25.62,5.19.81,3.64,4.08,3.81,6.92s.21,5.15-4,5.51c-14.45,1.23-28.62,4.34-42.85,7-45,8.38-89.35,19.28-133.62,30.76C504.42,363.57,441.64,385,381.38,413.67c-14.81,7.05-22.31,18-22.32,34.69,0,78.23-.33,156.46-.48,234.68,0,9,.31,18.07.48,27.1,3.81,13.06,11.95,21,26,22.08,2.47.18,4.94.43,7.41.65q30.32-.81,60.62,0c16.39-.93,32.78-.18,49.16-.2a86.42,86.42,0,0,1,23.58,3.53q74.75,21,149.54,41.8,51.15,14.32,102.25,28.76c14.15,3.87,28.28,7.78,42.44,11.6C842.65,824.43,864.83,832,889,831c23.93-1,47.94-.08,71.91,0l15-.11c25.24,0,50.47-.07,75.7-.11a108.12,108.12,0,0,0,29.19-4c23.81-6.64,47.7-12.94,71.56-19.37a19.88,19.88,0,0,1,2.76-1.23q95-26.55,189.93-53c19.89-5.54,39.81-11,59.71-16.43,1.78-1.55,4.16-1.15,6.18-1.9l2.61-.38a26.24,26.24,0,0,1,9.92-1.51q50.17-.18,100.33-.33c7.57,0,15.18.31,22.69-.38,16.18-1.49,26.21-12.72,26.22-29Q1572.66,575.7,1572.56,448.26Zm-392.37-163.1c0,8.4-.28,8.52-8.36,5.25-8.42-3.4-13.28-9.75-15.85-18.27-1-3.38-.12-4.63,3.34-4.47,2.93.13,5.88,0,8.81,0,12-.11,12-.11,12.06,11.81C1180.19,281.39,1180.2,283.28,1180.19,285.16Zm0-39.24c-.38,2.24-.06,4.6-.06,6.91,0,12.13,0,12.13-12.22,12.06l-4.41,0c-9.71-.06-10.13-.76-5.69-9.68,3.44-6.89,8.76-11.76,16.15-14C1177.76,240.06,1181.2,240.12,1180.23,245.92Zm-428.11,7.27c0-1.26,0-2.52,0-3.78.1-9.84,1.52-10.66,10.46-5.75,6.84,3.76,10.67,9.73,12.85,17.11,1,3.39-.16,4.17-3.11,4.15s-5.89,0-8.83,0C752.05,264.8,752.05,264.8,752.12,253.19ZM752,287.66a73.09,73.09,0,0,0,0-7.55c.06-12.47.06-12.47,12.53-12.54l3.15,0c9.67-.05,9.87.25,6.08,9.08-3.17,7.38-8.76,12.07-16.21,14.79C753.9,292.79,751.52,292.65,752,287.66Zm437.29-46.12c9.22,3.29,14.52,10,17.44,19,1.2,3.71-.28,4.43-3.45,4.33-2.72-.09-5.43,0-8.15,0-12.56-.07-12.56-.07-12.51-12.84a37.91,37.91,0,0,0,0-5.64C1181.74,240.36,1184.5,239.82,1189.33,241.54Zm-6.85,46.07a67.15,67.15,0,0,0,0-7.51c.09-12.44.09-12.44,12.26-12.51l2.5,0c11.09-.09,12,1.59,6.53,11.7-3.5,6.48-9,10.14-15.86,12.3C1184,292.81,1182,292.4,1182.48,287.61ZM726.79,255c3.83-7.13,9.21-12.4,17.47-14.15,3.52-.74,5.6-.31,5.27,4.13a84.27,84.27,0,0,0,0,13.85c.49,5.25-1.74,6.73-6.53,6.15a57,57,0,0,0-6.92-.05H732.3C723.1,264.94,722.25,263.46,726.79,255Zm13.55,35.41c-8.21-3.24-13-9.53-15.65-17.63-1.17-3.54-.35-5.52,4-5.28a106.47,106.47,0,0,0,15-.08c4.84-.41,6.44,1.39,5.84,6a54.57,54.57,0,0,0-.05,6.89c0,1.26,0,2.51,0,3.77C749.57,293.72,749.24,293.93,740.34,290.41Zm210.7,318c0,13-.27,25.92-.42,38.88a6,6,0,0,1,0,4.94,88.37,88.37,0,0,1,0,19,2,2,0,0,1,0,2.42,5,5,0,0,1,0,3.9,3.67,3.67,0,0,1,0,3.67c.13,15.32.36,30.63.37,45.95,0,30.46-.27,60.92.08,91.38.07,6.42-2,7.49-7.78,7.32-13.86-.4-27.79-.9-41.59.06-29.52,2.06-57.31-5.17-85-13.92-6.37-2-12.8-3.87-19.21-5.79l-2.55-.49-15.13-4.47c-14.17-2.8-27.84-7.45-41.72-11.3q-61-17-122-34.11a22.9,22.9,0,0,1-2.81-1.18c-25-6.09-49.81-13.12-74.48-20.56-24.7-8.68-50.35-6.7-75.81-6.78-3.34,0-6.67-.28-10-.43-20.63.59-41.27.66-61.9,0-15.22,2.55-27.44-9.34-27.39-23.74.21-55.91.12-111.82.17-167.73a8.39,8.39,0,0,1,.41-1.82c-1-29.19-.74-58.39-.29-87.58.22-14.2,8.77-22.62,21.18-28.51,60.58-28.77,123.82-49.87,188.61-66.76,52.72-13.75,105.72-26.23,159.51-34.93q55.92-9,112.48-13.23c28.71-2.15,57.4-4.36,86.19-5.06,4.81-.12,9.65.46,14.43.09,4.15-.33,4.65,1.28,4.64,5q-.2,65.88-.07,131.76,0,54.22,0,108.45c0,2.07-.23,4.15-.36,6.23a1.81,1.81,0,0,1,0,2.27,4.94,4.94,0,0,1,0,3.9,9.05,9.05,0,0,1,0,6.2C950.8,577,951,592.7,951,608.38ZM980.46,442q0,64.61-.09,129.22c0,1-.18,2.09-.27,3.13.09,22.88.24,45.77.27,68.65q.11,62.71.09,125.42c0,1.25-.17,2.5-.26,3.75,0,16.72,0,33.44.14,50.16,0,2.61-.69,4.11-3.53,3.65a44.65,44.65,0,0,0-15.93.13c-3.4.68-4.93-.58-4.78-4.32.36-9.39.41-18.8.58-28.2a322.85,322.85,0,0,1,0-34.08V748.16c-.14-26.41-.34-52.81-.39-79.21-.06-29.56,0-59.12.05-88.68,0-1.66.22-3.33.34-5-.16-32.35-.42-64.7-.47-97-.07-58.41,0-116.82-.08-175.23,0-4.33.16-7.07,5.87-6.72,4.17.25,4.73,1.71,4.7,5.26-.17,17.23-.14,34.46-.09,51.69,0,2.16-.91,4.54.93,6.5,2.69-.51,1.78-2.59,1.79-4q.07-26.79,0-53.58c0-3.15-1-6.32,4.32-5.79,3.94.39,7-.29,6.93,5.72C980.31,348.7,980.47,395.34,980.46,442Zm586.85,152.64,0,47.51q0,30.3-.08,60.62c.29,14.27-8,23.85-22.27,24.12-25.82.48-51.7,1.29-77.47.11-34-1.56-66.72,3.36-98.93,14-16.67,5.5-33.85,9.43-50.8,14.07q-72.95,20.51-145.89,41c-23.4,6.55-46.84,13-70.26,19.47-20.82,7-42,11.32-64.22,10.36-15.53-.67-31.13-.21-46.69.09-4.52.09-5.51-1.37-5.51-5.7q.23-259,.12-517.93c0-4.48,1-5.46,5.6-5.32q57.7,1.77,115.14,7.29c25.21,2.46,50.32,5.94,75.42,9.52C1272,326.71,1360,349.64,1447,377.34c35,11.15,68.56,25.93,101.72,41.61,12.51,5.91,18.93,16,18.84,30.15-.19,28.17-.17,56.35-.24,84.52Q1567.29,564.13,1567.31,594.63Z"/><path class="cls-1" d="M1567.27,533.62q0,30.51,0,61l0,47.51q0,30.3-.08,60.62c.29,14.27-8,23.85-22.27,24.12-25.82.48-51.7,1.29-77.47.11-34-1.56-66.72,3.36-98.93,14-16.67,5.5-33.85,9.43-50.8,14.07q-72.95,20.51-145.89,41c-23.4,6.55-46.84,13-70.26,19.47-20.82,7-42,11.32-64.22,10.36-15.53-.67-31.13-.21-46.69.09-4.52.09-5.51-1.37-5.51-5.7q.23-259,.12-517.93c0-4.48,1-5.46,5.6-5.32q57.7,1.77,115.14,7.29c25.21,2.46,50.32,5.94,75.42,9.52C1272,326.71,1360,349.64,1447,377.34c35,11.15,68.56,25.93,101.72,41.61,12.51,5.91,18.93,16,18.84,30.15C1567.32,477.27,1567.34,505.45,1567.27,533.62Z"/><path class="cls-1" d="M950.67,652.2a88.37,88.37,0,0,1,0,19,2,2,0,0,1,0,2.42,5,5,0,0,1,0,3.9,3.67,3.67,0,0,1,0,3.67c.13,15.32.36,30.63.37,45.95,0,30.46-.27,60.92.08,91.38.07,6.42-2,7.49-7.78,7.32-13.86-.4-27.79-.9-41.59.06-29.52,2.06-57.31-5.17-85-13.92-6.37-2-12.8-3.87-19.21-5.79l-2.55-.49-15.13-4.47c-14.17-2.8-27.84-7.45-41.72-11.3q-61-17-122-34.11a22.9,22.9,0,0,1-2.81-1.18c-25-6.09-49.81-13.12-74.48-20.56-24.7-8.68-50.35-6.7-75.81-6.78-3.34,0-6.67-.28-10-.43-20.63.59-41.27.66-61.9,0-15.22,2.55-27.44-9.34-27.39-23.74.21-55.91.12-111.82.17-167.73a8.39,8.39,0,0,1,.41-1.82c-1-29.19-.74-58.39-.29-87.58.22-14.2,8.77-22.62,21.18-28.51,60.58-28.77,123.82-49.87,188.61-66.76,52.72-13.75,105.72-26.23,159.51-34.93q55.92-9,112.48-13.23c28.71-2.15,57.4-4.36,86.19-5.06,4.81-.12,9.65.46,14.43.09,4.15-.33,4.65,1.28,4.64,5q-.2,65.88-.07,131.76,0,54.22,0,108.45c0,2.07-.23,4.15-.36,6.23a1.81,1.81,0,0,1,0,2.27,4.94,4.94,0,0,1,0,3.9,9.05,9.05,0,0,1,0,6.2c.13,15.68.37,31.35.37,47,0,13-.27,25.92-.42,38.88A6,6,0,0,1,950.67,652.2Z"/><path class="cls-2" d="M1447.09,306.73a37.39,37.39,0,0,1,3.92-.79c10.28-.77,10.23-.77,12.71-10.32a44.79,44.79,0,0,1,3-8.9c5-9.77,11-17.9,24.07-15.76,4.5.74,9.53,1.16,13.78-.09,5.8-1.71,0-8.57,3.84-11.85,1.21-.12,1.12.93,1.2,1.59,1.28,10.53,1.27,10.53,11.68,10.41,17.93-.2,27.33,7.63,30.37,27.25,1.06,6.85,3.31,8.93,9.66,7.81,1.3-.23,3-.46,3.89,1.35-2.2,2.44-5.14,1.35-7.66,1.26-3.87-.15-5,1.27-5.09,5.05-.32,11.15-4.66,20.71-12.29,28.86a11.26,11.26,0,0,1-8.87,3.84c-15.54-.1-31.09-.14-46.64,0-5.46.07-9-2.76-12.22-6.57A42.77,42.77,0,0,1,1462.27,314c-.22-4.49-1.82-5.63-6-5.3C1453.5,309,1450.36,309.69,1447.09,306.73ZM1508.86,322c-2.88-2.92-2.11-5.44-1.81-7.47.73-4.93-1.19-6-5.8-5.81-7.55.39-15.13.1-22.7.12-13.48,0-13.61.24-9.61,13.73,4.16,14.05,10.19,18.6,24.66,18.61,2.1,0,4.27-.31,6.3.09,6.09,1.19,7.79-1.54,7.22-7.13-.16-1.52-1.31-4.51,1.54-4.5,2.3,0,1.42,2.74,1.18,4.15-1.11,6.52,1.47,8.84,7.84,7.58a27.29,27.29,0,0,1,5-.07c14.06-.11,16.61-1.81,21.75-15a62.39,62.39,0,0,0,2.62-9c1.13-5.11,1.49-9.82-6.29-8.48-.61.11-1.36-.64-2-1,1.76-4,8.43,1.42,8.5-5,0-3.86-1.52-7.35-2.63-10.95-.24-.79-.68-1.53-1-2.3-3.84-9.26-9.4-15.74-20.8-13.6a30.75,30.75,0,0,1-8.19.06c-3.49-.31-4.8.86-4.73,4.5.17,8.82.07,17.65-.12,26.47C1509.69,311.69,1510.5,316.47,1508.86,322Zm-22.17-16.19v.2c4.82,0,9.68-.36,14.46.1s6.18-1.26,5.89-5.93c-.4-6.48-.29-13-.06-19.49.12-3.4-.61-4.88-4.41-4.69-6.07.3-12.16.05-18.24,0a5.63,5.63,0,0,0-4.55,1.57c-6.55,6.84-10.87,14.75-12.27,24.23-.52,3.52.87,4.24,4.09,4.07C1476.62,305.62,1481.66,305.82,1486.69,305.82Z"/><path class="cls-2" d="M363.52,308.39c3.65-2.51,6.65-1.6,9.33-1.46,4.07.22,5.89-.81,6.33-5.31a44,44,0,0,1,11.28-26.09c2.72-3,5.63-4.68,9.83-4.48,5.45.27,10.95-.31,16.37.17,5.09.45,6.84-1.32,6.15-6.24a25.4,25.4,0,0,1,.3-5.11c3,.85,2.21,3.24,2,4.67-1,6,1.92,7.16,7.11,6.63,3.95-.41,8,.28,12-.22,7.29-.94,11.92,2.7,15.76,8.13,4.79,6.78,8.35,14.18,9,22.49.35,4.32,1.57,5.83,5.95,5.29,2.27-.28,5-1,7.3,1.38-2.39,2.44-5.27,1.24-7.68,1-3.73-.34-5.06.51-5.29,4.58a43.09,43.09,0,0,1-11.92,27.72,14.58,14.58,0,0,1-11.68,4.94c-13-.23-26.1-.85-39.05.15-11.95.92-18.38-4.88-23-14.54A44.91,44.91,0,0,1,378.82,314c-.11-4.19-1.75-4.93-5.36-4.58C370.51,309.71,367.41,310.05,363.52,308.39Zm59.24,14.16c0-3.17-.11-6.34,0-9.51.11-2.53-.49-3.81-3.43-3.76-10.71.17-21.43.12-32.14.13-1.8,0-3.61.11-3.46,2.49a45.31,45.31,0,0,0,9.56,25.46c4,5.22,9.38,3.57,14.44,3.86,1.47.08,2.94,0,4.41,0,9.85.11,9.84.11,10.69-9.8,0-.49.18-1.31,1.46-.89.15.24.65.67.71,1.17,1.24,9.59,1.23,9.59,10.91,9.53a26,26,0,0,1,4.41,0c10.26,1.84,15.44-4.37,19.4-12.3a47.59,47.59,0,0,0,3.22-8.83c2.5-9.37,2.43-9.38-6.85-11.18-.2,0-.3-.61-.46-.94,9.52-3,9.52-3,6.33-13.62-.06-.2-.07-.41-.14-.61C457.68,280.47,451.74,276,438.05,276a44.36,44.36,0,0,1-6.92,0c-5.28-.83-6.1,1.72-6,6.3.29,11.33.13,22.68.07,34C425.2,318.43,425.75,320.77,422.76,322.55Zm-19.68-15.73v0h2.52c5.45-.05,12.65,2,15.88-.73,3.74-3.13,1.15-10.59,1.23-16.16.21-13.84.08-13.84-13.81-13.86-13.58,0-17.09,2.28-22,15.18-1.4,3.68-2,7.66-3,11.51-.73,2.92.25,4.2,3.45,4.08C392.59,306.68,397.84,306.82,403.08,306.82Z"/><path class="cls-2" d="M1246.43,872.22c2.22-9.43-3.93-10.38-9.47-12.47-3.09-1.16-5.19-4.13-6.82-7.18-4.08-7.65-4.11-7.64-10.59-10.6,8.1,1.7,8.42-4.35,10.47-8.88,1.78-3.93,4.78-7.23,8.89-8.48,4.92-1.49,8.81-3.28,8.85-10.11-.23,7.68,5.23,8.52,9.93,10.54a15.44,15.44,0,0,1,9,10.82c1,4.67,3,6.39,7.57,5.76a1.36,1.36,0,0,1,1.71,1.48c-1.17,1.6-3,.81-4.44.74-2.6-.12-3.89.82-4.24,3.41-.87,6.47-5,10.64-10.57,13.1-4.8,2.13-9.63,3.58-7.09,11.36Zm-7.36-30.67c7.46,0,7.68,0,7.32-6.6-.14-2.46,2-6.41-2.29-7.19-3.68-.66-11.53,7.74-11.07,11.55C1233.61,844.06,1237.52,840.29,1239.07,841.55Zm6.76,10.82c2.16-8-1.31-9.42-6.61-8.36-2.06.41-5.45-2.2-6.1,1.84-.6,3.7,6.73,11.36,10.61,11.24C1248.64,857,1245.49,852.92,1245.83,852.37Zm11.64-11.63c.47-.29,4.26,2.94,5-1.41.61-3.74-7.57-12-11.18-11.4-3.93.66-1.66,4.07-1.93,6.15C1248.72,838.67,1248.64,843.41,1257.47,840.74Zm-.87,3.24c-7.23-.09-7.64-.05-7.14,4.95.27,2.7-3,7.17,2.3,8,3.4.56,11.24-7.9,10.6-11C1261.6,842.14,1258.22,844.92,1256.6,844Z"/><path class="cls-2" d="M1326.18,811.61c2-1.15,3.78-2.72,5.89-3.37,4.47-1.37,9.16-2.19,7.29-9.28,2.7,4.85,4.8,6.62,10.94,10.16,2.29,1.32,4.22,3.27,6.31,4.93a7,7,0,0,0,.65,1.74c3.17,4.39,1.61,13.35,12.7,10.15-3.53,4.38-7.52.58-9.25,3.63-1.32,2.34-1.84,5.14-3.16,7.48a18.1,18.1,0,0,1-7.21,6.86c-4.71,2.58-12.28,2.51-7.92,13.19l-2.76-1.73a14.11,14.11,0,0,1-.56-3.63c.41-3.62-1.11-5.31-4.66-6a16,16,0,0,1-11.22-8.38c-2.54-4.54-2-12.1-12.84-7.77l1-3.39c7.85,1.61,9.22-3.27,10.85-8.26C1323,815.68,1324.85,813.72,1326.18,811.61Zm13.09,7.25c-.7-2.35,1.22-5.8-1.32-6.88-2.81-1.19-5.38,1.33-7.62,3.21a15.27,15.27,0,0,0-4.81,7.88c-.31,1.12-.78,3,.89,3,3.72.13,7.64.34,11.15-.65C1340.63,824.59,1338.46,821.06,1339.27,818.86Zm9.32,7.13c1.71-1.66,7.27,3,6.24-3.09a13,13,0,0,0-10.14-10.75c-1.09-.26-2.81-1.38-3,.53-.31,4.13-.75,8.46.21,12.38C1342.48,827.24,1346.09,825.27,1348.59,826Zm-6.73,9.85c.84,1-2.95,5,1.9,5.38,3.87.29,10.81-6.25,10.91-10.13.11-4.6-3.61-2.31-5.54-2.49C1344.82,828.2,1339.66,827.46,1341.86,835.84Zm-2.85-.33c.37-4.16,1.09-7.54-4.82-7.18-7.89.49-8.52.25-8.34,2.49.29,3.57,7.35,10.74,10.78,10.49C1341.43,841,1338,837,1339,835.51Z"/><path class="cls-2" d="M576.73,811.64c3.34-1.67,6.27-4.4,10.11-4.79,4.8-.48,1.28-5.77,4.89-7.36-.59,5.55,2.39,7.72,7.21,8.75,2.33.5,4.38,2.33,6.55,3.56,1.2,2,3,3.77,3.49,5.89,1.34,5.57,3.11,10.22,10.35,8.64a16.84,16.84,0,0,1-.39,1.83c-5.27-.24-8.74,1.22-9.91,7.28-.69,3.58-4.18,6.15-7.43,8.22-8.31,5.27-8.31,5.26-11.65,11.46,1.45-7.62-3.35-9-8.54-10.81a14,14,0,0,1-8.93-9.94c-1-4.48-2.91-6.5-7.54-5.78-.55.08-1.25-.79-3.85-2.56,8.6,1.73,10.18-2.64,11.56-7.62A12.93,12.93,0,0,1,576.73,811.64Zm15.67,0c-.68,15.08-.68,15.08,9.82,14.22a4.42,4.42,0,0,1,.63,0c3.11.05,3.62-1.72,2.6-4.1C603.06,816.2,599.24,812.37,592.4,811.6Zm-2.77,5.76a38.49,38.49,0,0,0-.37-4.71c-.23-1.34-1.47-1.27-2.5-.89-5.24,2-8.8,5.5-10.25,11-.32,1.21-.46,2.34,1.09,3.12C583.28,828.72,589.69,825.06,589.63,817.36Zm9.91,11.16c-3.95.08-8.74-1.22-7.37,5.19.56,2.62-2.16,6.87,2.62,7.62,3.24.51,11-7.2,10.75-10.42C605.17,826.13,601.19,829.66,599.54,828.52Zm-15.86.2a48,48,0,0,0-6.22.07c-1.41.19-1.18,1.47-.78,2.47a16.3,16.3,0,0,0,10.49,10c1,.33,2.38.12,2.43-1.15.14-3.54.7-7.3-.28-10.56C588.56,827,585.19,829.23,583.68,828.72Z"/><path class="cls-2" d="M969.63,593v39.18l-2.71,0-.61-59.2c.4-.88.64-2.37,1.22-2.51,1.72-.43,1.86,1,1.89,2.31.09,3.08.13,6.15.19,9.22v3.1Z"/><path class="cls-2" d="M967.71,388.68c2.24,1.05,1.7,2.65,1.7,4q0,26.69-.06,53.36c0,1.46,1,4-1.27,4.12-2.59.12-1.42-2.52-1.43-3.9-.1-18-.09-36-.11-54C966.54,391,966.43,389.8,967.71,388.68Z"/><path class="cls-2" d="M968.59,479.61v61.95C966.14,538.14,965.61,486,968.59,479.61Z"/><path class="cls-2" d="M968.27,563.66c-2.67-4.2-1.46-7.76-1.81-11,0-.33.71-1,1.16-1.07,1-.16,1.54.54,1.54,1.47C969.15,556.16,969.78,559.38,968.27,563.66Z"/><path class="cls-2" d="M967.8,381.72c-2-3.9-.94-6.88-1.37-9.73-.15-1,.09-2.15,1.48-2.2s1.76,1.09,1.6,2.11C969.06,374.79,970.11,378,967.8,381.72Z"/><path class="cls-2" d="M969.5,466.08c-.69,1.64,1.07,4.87-1.54,4.49s-1.09-3.76-1.31-5.79c-.15-1.44-.7-4.34,1.11-4.1C970.88,461.1,968.76,464.32,969.5,466.08Z"/><path class="cls-2" d="M966.32,754.7c.33-1.52.37-3.33,2.78-2.69l.54,3.74,0,2.47v55.57l-2.19.13c-2-6.25.07-13-1-19.33C966.81,781.29,966.91,768,966.32,754.7Z"/><path class="cls-2" d="M967.16,723.13V661.28C969.7,664,970.61,714.48,967.16,723.13Z"/><path class="cls-2" d="M969.09,743.91l-1.94.23c-.32-.82-.65-1.63-1-2.45l0-1.32a8.94,8.94,0,0,0-.28-6.36c.29-.38.57-.76.86-1.13,3.38-.18,2.78,2.2,2.7,4.22C969.34,739.37,969.2,741.64,969.09,743.91Z"/><path class="cls-2" d="M968.09,652.89c-1.93-3.68-1.63-7.33-.38-10.95C970.25,645.55,969.21,649.23,968.09,652.89Z"/><path class="cls-2" d="M1531.33,306.75c-5.3,3-9.14,1.88-13,1.19C1522,305.24,1525.84,305.43,1531.33,306.75Z"/><path class="cls-2" d="M446.66,307.79c-3.74,2.57-7.48,1.5-11.22.55C439.19,305.91,442.92,306.89,446.66,307.79Z"/></g><g id="Capa_3" data-name="Capa 3"><path d="M1139.44,502.6v111h-19.83V542.88l-19.51,14.91-16.18,12.54-16.18-12.54-19.51-14.91v70.75h-19.82v-111l19.82,15.22,35.69,27.44,35.69-27.44Z"/><path d="M1266.16,502.6v111h-19.82V568h-58.53a31.39,31.39,0,0,1-14.91-3.65,32.41,32.41,0,0,1-17.77-29V502.6H1175v32.67a13.07,13.07,0,0,0,13,13h58.52V502.6Z"/><path d="M1393.05,536.22a32.65,32.65,0,0,1-9.2,22.84,32.76,32.76,0,0,1-23.48,55.52h-78.19V594.75h78.19a13.07,13.07,0,0,0,13-13,12.92,12.92,0,0,0-12.21-13h-59V548.91h59a13,13,0,0,0-.64-26h-78.19V503.07h78.19a32.63,32.63,0,0,1,32.68,32.68Z"/><path d="M1517.55,522.58a34.31,34.31,0,0,1,2.54,12.85V581a32.66,32.66,0,0,1-10.47,24.11,34.33,34.33,0,0,1-7.29,5.24,31.41,31.41,0,0,1-14.91,3.64h-69V594.12h69a13.07,13.07,0,0,0,13-13V565.57a32.59,32.59,0,0,1-12.37,2.53h-46.79a32.75,32.75,0,0,1,.48-65.5h45.52a32.58,32.58,0,0,1,30.14,20Zm-88.66,12.85a13.06,13.06,0,0,0,12.37,13h46.79a13,13,0,0,0-.63-26h-45.53A13.07,13.07,0,0,0,1428.89,535.43Z"/></g></g></svg>