<svg xmlns="http://www.w3.org/2000/svg" viewBox="0 0 1920 1080"><defs><style>.cls-1{fill:#020202;}.cls-2{fill:#f2f2f2;}.cls-3{fill:#ccc;}</style></defs><g id="Capa_2" data-name="Capa 2"><g id="Capa_1-2" data-name="Capa 1"><path class="cls-1" d="M1702.36,340.58a210,210,0,0,0-32.77-.71c-47.86,3.35-93.78-4.32-139-20.12-32.52-11.36-66.09-19.81-99.73-27.62-4.38-1-8-1.63-5.5-7.83,2.25-5.68-2.91-6.09-6.5-6.81q-54.16-11-108.36-21.87c-2.31-.47-4.63-.91-6.9-1.57-7.6-2.14-14.08-2.5-14.38,8.19-.06,1.93-1.07,3.8-3.13,3.55-6.42-.75-12.85-1.72-19.2-2.93-3.23-.62-2.26-3.62-2.44-5.86-1.29-16.37-9.81-25-26.39-24.16-11.56.62-19.09-2.47-23.44-13.47-2.89-7.3-8.8-10.51-16.9-10.3-10.61.28-21.26.09-31.9-.14-11.13-.23-17.23,6.92-22.08,15.28-3.73,6.41-8.52,8.54-15.87,8.51l-339.13-.09c-4.87,0-7.85-2.12-9.82-6.13-7.06-14.31-18.74-18-34.19-18-35.64,0-36.14,4.29-36.14,4.29-6.69,18.64-7.88,19.51-26,19.74-1.19,0-2.37,0-3.55.06-11.55.64-22.17,8.82-22,20.18.17,10.58-5.29,11.22-12.68,11.65a21.37,21.37,0,0,0-5.27.65c-5.43,1.74-7.95-.51-8-5.82-.08-6.3-3.18-7.35-8.69-6-6.86,1.67-13.88,2.79-20.8,4.17q-49.46,9.93-98.88,19.92c-4.54.9-8.86,2.09-6.76,8.52,1.49,4.6-1.78,5.17-5.2,6-31.6,7.42-63.2,15.11-93.77,25.83-48.78,17.1-98.34,26.19-150.18,22.25-14.38-1.1-29.56-2.79-43.46,8.66-5.43,4.9-4.63,18.67-4.63,18.67-1.3,55.85-.57,111.74-.35,167.62,0,16.42,9.79,25.77,26.2,25.9,32.52.21,65.06,0,97.58.05,14.43,0,17,2.52,17.15,17,.12,10.91-.11,21.83-.2,32.75.22,15.6.61,31.19.57,46.79a75.83,75.83,0,0,0,7.14,33.38c2.89,6,1.61,9.26-3.8,11.92-13,12.38-26,24.86-39.15,37.09-9.76,9.07-9.88,8.91-1,18.42L404,868.14c3.8,4.44,7.21,4.27,11.15.45l53.16-48.11a3.88,3.88,0,0,1,1.37,1.1C476.7,829,485.47,834.24,494,840.1c4.1,2.75,12.21,4.51,12.21,4.51h90.86c22.72.28,45.32.23,67.65-5.61a297.74,297.74,0,0,1,46-8.45c24.64-5.52,49.76-7.76,74.75-10.76,11.65-1.39,23.36-2,35-3q34.49-1.63,69-3.27c1.54-.07,3.35,0,3.83,1.46,2.08,6.44,7.42,4.68,11.81,4.7,34.86.14,69.73.34,104.59,0,6.18,0,14.36,4.18,18.29-5.25.25-.6,2.73-.36,4.17-.36,55.31.22,110.18,5.61,164.84,13.8,30.93,4.63,61.19,12.62,92.14,17.08,40.4-.24,80.8-.52,121.21-.57a14.64,14.64,0,0,0,6.51-1.51c17.22-5.81,30.48-17.08,42.94-29.88,14.33-14.73,29.43-28.72,44.2-43.05,15.64-15.64,31-31.58,47-46.86,19.83-19,30.2-41.83,30.29-69.29.09-25.12.09-50.24.21-75.37.07-15.25,2.29-17.45,17.49-17.49,31.93,0,63.87,0,95.8-.07,18.13-.05,27.27-9.16,27.25-27.23V360.85C1722.1,345.32,1702.36,340.58,1702.36,340.58Zm-280.14-33c1.49-6.07,6.32-1.79,9.37-1.05,49.87,12.06,98.9,27,147.89,42.11a107,107,0,0,0,33,5.06q35.89-.35,71.81-.12a120.78,120.78,0,0,1,16.77,1.27,7.46,7.46,0,0,1,6.73,8.08c-.36,5.13-5,2.77-7.63,2.81-16.55.23-33.09.1-45.84.1-32.29-.58-61.14,3-88.51-9-7.47-3.29-15.71-4.87-23.63-7.14-37.37-10.77-74.77-21.41-113-28.79C1420.6,319.24,1420.89,313.15,1422.22,307.61Zm34.69,28.92c-8.92,1.63-14.54-1.08-21.22-5.82C1444.12,329.92,1450.21,331.24,1456.91,336.53ZM1241,246.44c7,0,9,5.09,9.39,11.43.82,15,2.82,17,18.16,19.4,2.89.45,5.84.75,8.7,1.37,2.68.59,7.74-1.6,6.74,4-.81,4.63-1.49,10.77-7.88,11.2-22.21,1.49-39.69-14.83-39.85-37.35C1238.1,253.64,1232.49,246.44,1241,246.44Zm-545,.07c6.92.35,12.94-2.38,15.18-8.61,5.23-14.65,15.94-17.13,29.38-15.3a36.61,36.61,0,0,0,8,0c7.58-.7,12.9,2.11,16.45,9.05,5.91,11.57,15.77,15.27,28.56,15.16l337-.05c9.32,0,17.6-2.26,21.87-10.6,6.22-12.07,15.54-15.71,28.18-13.69a21.05,21.05,0,0,0,6.19,0c9.64-1.28,16.4,1.87,20.12,11.45,2.45,6.27,7.06,12,14.09,12,8.41,0,8.61,4.09,8.2,10.39-.9,13.51,3.59,24.89,14.31,33.58,1.12.89,3.44,1.6,2.13,4-8.25-1.1-8.22-1-16.74,2.89-1.44.66-3.46-.1-5.18.09-6.7.8-9-7.67-12-8-12.71-1.21-25.61-7.92-38.61-.27-3.74,2.2-10.75,2.19-12.53-.74-4.85-8-12-5.77-18.51-6.25-9.45-.69-19-3.8-28.34,2.22a9.3,9.3,0,0,1-11.48-1.9c-3.07-3.75-7-4.08-11.1-4.39a201.15,201.15,0,0,0-20.38-.72c-3.37.1-9.09-2.58-9.67,2.82-.78,7,6.12,2.95,9.21,4.69.39.23.64.74,1.53,1.82-25.58,9.87-29.42,31-28.94,54.79.43,21.28.18,42.57-.05,63.85-.18,17.52-8.63,25.94-26.26,26.24H905.89c-19.51-.25-28.19-8.88-28.32-28.17-.18-24.84.09-49.67-.32-74.51-.3-18.53-7.76-33.07-25.45-41-1.07-.48-2.29-.78-2.1-2.91a69.92,69.92,0,0,0,7.33-.77c2-.41,2.77-2,2.67-4a2.48,2.48,0,0,0-2.88-2.59c-13.44,1-27.64-3.69-40,5.8-3.25,2.49-8,2.45-11.95.77-12.3-5.24-33.62-3.36-44.32,3.94-3.06,2.08-7.64,3.18-10.18,1.51-11.29-7.35-22.68-2.4-34.06-1.44-4.42.37-7.95,1.15-10.72,6-2.56,4.42-12.63,5-13.21,3.84-4.14-7.95-10.83-3.78-19.1-4.4,16.4-11.61,19.54-26.56,18.09-43.16C691,246.22,693.57,246.38,696,246.51Zm-52.78,32.18c4-.83,8.13-1.22,12.21-1.72,10-1.21,14.15-5.34,14.65-15.35.23-4.53.51-8.79,3.71-12.34a8.57,8.57,0,0,1,8.06-2.66c3.89.63,2.31,4.2,2.38,6.53,1.1,29.86-15.37,37.19-39.94,40.58-6.07-.11-6.22-6.76-7.48-11.2C635.17,276.76,640.67,279.21,643.21,278.69ZM215.3,357.81c3.78-5,9.48-4.15,14.63-4.17q41.22-.21,82.44,0a72.6,72.6,0,0,0,21.83-2.78C356.45,344,378.65,337,401,330.65c29.75-8.47,59.61-16.49,89.47-24.57,2.79-.74,6.45-3.08,8.5,1.14,2.35,4.86-1.79,12.6-7.24,13.63-39.12,7.44-77.61,17.7-115.51,29.67-34.94,11-69.75,19.77-99.23,15.28-24.32,0-41.15.05-58-.07-2.13,0-5.13,1.37-6.19-1.62C211.93,361.68,213.92,359.64,215.3,357.81ZM483.6,332a22.9,22.9,0,0,1-18.17,4.65C471.55,330.81,476.45,329.66,483.6,332ZM425.5,848.58c-16.72,16.49-16.93,16.46-32.32-4.12l-85.46-91.22c-3.37-3.59-1-5.44,1.54-7.83,19.83-18.53,39.66-37.07,59.26-55.81,3.69-3.54,4.61-2.12,6.87,1.38,3.64,5.66,8.16,10.78,12.44,16,1.26,1.55,3.11,3.5,5.22,2.15,2.77-1.78,1-4.42-.18-6.23-3.64-5.7-7.47-11.31-11.52-16.72-2.59-3.48-2.64-6.56.52-9.34,3.76-3.32,5.62.18,7.83,2.5,32.59,34.44,65.13,69,98,103.16,3.62,3.76,3.12,5.52-.34,8.13Zm-32.08-182.1c22.62-20.23,43.74-42.09,67-61.6,1.11-2.43,4-2.36,5.57-3.76,20.09-18,43.58-19.42,67.72-12.43,52,15.08,72.06,80.12,37.39,121.73-21.22,25.44-48.13,45.32-71.36,68.84-2.26,2.31-3.68,1.62-5.7-.57Q455.41,737.26,416.54,696c-7.74-7.63-15.47-15.32-23.29-22.88C390.73,670.69,391,668.67,393.42,666.48ZM893.51,797.92c-1.1,3.48-4.54,1.88-7,1.88-66.62.07-132.41,8.29-197.91,19.63-19.46,3.36-38.43,10.21-58.21,10.65-36.6.82-73.24.41-109.87.29-14.55,0-26.61-6.61-37.59-15.66-3.79-3.12-4.16-5.32-.64-9.27s5.3-2.34,8.27.5a54.09,54.09,0,0,0,26.32,13.58c1.9.41,5.21,1.76,6.06-1.49s-1.72-4.69-4.53-5.31c-7.93-1.74-14.75-5.62-21.34-10.26-5.16-3.64-5.34-5.87-.42-10.49,28.35-26.66,58-52,84.46-80.57C601,678,600.8,644.79,579.71,611.93c-.64-.6-1.33-1.17-1.91-1.83-36.09-40.38-87.5-43.21-127.59-7-5.23,4.74-10.56,9.39-15.83,14.09-23.29,24.48-49.74,45.57-74.2,70.27-9.77-26-7.53-51.63-6.45-77.15-1.92-13.51-.39-27.13-1.22-40.67-.75-12-8.12-20.24-20.22-21.73a125.71,125.71,0,0,0-15-.87c-29.56-.07-59.12.05-88.67-.07-13.65-.07-16.12-2.63-16.16-16-.08-49.65.06-99.28-.28-148.92,0-7.1,1.44-9.55,9.09-9.44,30.44.48,60.89,0,91.31.28a84.91,84.91,0,0,0,26.1-3.76q24.87-7.64,49.81-15,16.93-5,34-9.48c1.9-.5,4.93-2.54,5.95.94.83,2.84-1.9,4.26-4.07,4.9a42.32,42.32,0,0,1-11.2,2.18A20.36,20.36,0,0,0,403,355.06c-7.24,4.14-15.26,6.29-23.18,8.5-25.15,7-39.48,24.87-39.73,50.76-.25,28.36-.09,56.73-.07,85.1,0,13.35,5.36,24,16.53,31.51,3.74,2.5,7.54,4.58,7,10.1-.16,1.63.66,3.85,2.68,4.05,2.63.25,3.5-1.9,3.53-4.1.09-4.23,2.49-4.62,5.93-4.19a93.67,93.67,0,0,0,10.6.46c42.27.18,84.59-1,126.77.83,47.78,2.1,84.53,24.91,109.54,66,5.56,7.34,9.09,15.74,11.79,24.4,9.44,30.29,19.32,60.47,27.66,91,7.33,26.9,22.06,46.3,48.71,55.85,13.47,2.38,26.88,2.15,40.46.25,17.2-2.4,34.52-3.78,51.8-5.59,21.17-3.84,42.58-6,64-5.33,11.75.36,19.11,8.61,24.58,18.34-5.15,3.82-12.39.07-15.44,6.64,2.77,5.93,7.6,2.66,11.59,2.43C892.23,791.86,895.11,793,893.51,797.92Zm131.9-22c-3.83,8.8-5.63,29.45-5.63,29.45.85,5.52-.8,7.79-7,7.53l-107.21-.07c-2,0-4.58.33-4.65-2.65,0,0,.18-10.22-.26-14.84s-3.27-15.68-3.27-15.68c-7.6-16.24-20.88-23.43-38.56-22.26-18.53,1.23-37,2.9-55.54,4.37C785.67,764,768,766.3,750.4,768.4c-13.32,1.58-26.7,4.42-39.68-1.81-20.52-6.13-32.22-20.83-38.41-40.37-11.84-37.26-23.29-74.63-34.9-112C629.67,600.68,622.09,587,611,575.7c-29.38-29.93-64.88-45.37-107-45.36-41.4,0-82.8-.17-124.18.15-7.45,0-11.09-1.58-10-9.71a55.92,55.92,0,0,0-.12-12.4c-.16-1.81-.34-4.58-3.07-4.65s-3.16,2.51-3.29,4.48c-.25,4.13-.05,8.27-.19,12.41-.06,1.61.94,3.76-1.24,4.65-2,.81-3.29-.77-4.5-2-6.23-6.37-9.92-13.93-10-22.95-.12-29.56-.67-59.12,0-88.66.43-18.9,10.85-31.86,28.05-39.49,3.28-1.46,5.71-2.38,5.09,2.91-.18,1.54-.71,3.6,1.95,4.65.82-.39,2.17-.64,2.81-1.44,10.19-13.06,25.23-16.37,40.07-20.43,0,0,51.83-12.53,63.41-17.82s16.27-22.76,16.27-22.76c1.9-8.83.29-17.67-1.49-26.35-1-4.65-.14-6.39,5.13-7.42,36.13-7.13,72.16-14.68,108.15-22.42,5.89-1.26,7.56.5,8.68,6,2.34,11.47,3.78,23.38,11.86,32.86,0,0,1,1.1,1.35,1.4,11.16,9,22.54,8.7,35,6.52,50.63-8.86,101.65-14.1,153-17.42,28.63-1.82,44.06,18,43.65,41.46s-.07,46.68.05,70c.13,24.76,11.56,36.25,36.34,36.32q54.08.11,108.18-.07c23.45-.06,35-11.29,35.18-34.55.22-22.15,0-44.33.22-66.48.09-7.63-.2-15.36,2.66-22.7,6.18-16,19.4-24.48,38.41-23.72,52.89,2.13,105.33,8.31,157.41,17.5,24,4.24,37.24-4,43.19-27.48,1.23-4.84,2.91-9.65,3.41-14.59.55-5.54,3.37-5.89,7.74-5,36.32,7.55,72.62,15.22,109,22.33,5.24,1,5.27,3.13,4.76,7-.85,6.73-1,13.57-2.08,20.24-2.32,15.21,0,18.8,2.54,23s49.74,16.44,49.74,16.44c23.45,6.85,50.4,6.73,67.94,28.38,2,2.49,4.17,1.07,4.74-2.16.32-1.81-1.76-4,.89-5.45,18.65,5.43,32,20.61,32.23,38.7.48,30.71.14,61.46.09,92.18,0,8.88-4.56,15.66-10.47,21.73-1.24,1.26-2.58,2.68-4.55,1.69-1.65-.84-1-2.59-1-3.94,0-4.74,0-9.46.12-14.19.06-2-.19-3.6-2.57-3.71a3,3,0,0,0-3.5,3.11c-.28,5-1,10.05-.64,15,.46,6.8-1.7,9.07-8.91,9-40.77-.36-81.57-.16-122.36-.2-11.54,0-23,.62-34.32,3.15-45.25,10.11-77.75,36.6-99.64,76.91-11.24,27.06-17.41,55.76-27.18,83.3-3.14,10.7-6.08,21.48-9.49,32.11-10,31.33-36.09,47.66-68.74,43.72s-65.52-7.81-98.34-11.11c-16.23-1.63-32.88-4.1-47.56,6.5C1031,768.57,1027.15,772,1025.41,776ZM1708,529.39c0,16.33-1.06,17.52-17.75,17.61-31.63.17-63.27-.13-94.9.1-18.78.16-27.61,9.21-27.71,27.91q-.24,38.58-.07,77.15c.1,21-6.36,39.8-20.92,54.82-19.7,20.34-40.38,39.72-60.65,59.53-17.22,17-34.21,34.21-51.79,50.83A46.13,46.13,0,0,1,1402,830.12c-55.67-.5-111.37,4-166.63-9.43-47-11.39-95.47-15.44-143.83-18.85-19.78-1.4-39.55-1.69-59.34-1.79-2.61,0-5.54.42-5.63-3.68-.07-4.42,3-4.52,6-4.43,2.64.08,5.27.63,7.91.81s3.59-1.24,3.61-3.81-1.65-2.88-3.46-2.79c-3.63.16-6.89-1-10.23-2.15,5.68-14.09,14.93-20.11,30.71-19.53,38.13,1.42,75.82,7.21,113.61,11.79,23.86,2.89,45.16-.78,63.38-17.24,10.79-11.69,16.81-25.77,20.87-40.95,2-7.6,4.85-15,7.3-22.47,2.33-8.42,4.26-17,7.06-25.21,7.09-20.93,10.64-43.14,22.64-62.28a48.34,48.34,0,0,1,3-6.31c27-40.16,64.32-62.83,113-64,44.32-1.07,88.69-.48,133-.91,4.56,0,5.68,1.87,6.23,5.42.34,2.09,1.56,3.14,3.62,3,2.58-.23,2.19-2.27,2.19-4,0-3.21-.22-6.07,3.62-8.08,14.77-7.67,19.93-20.57,19.76-36.66-.34-27.48-.18-55-.23-82.45-.06-24.82-12.34-42.54-36.22-49.53-14-4.1-27-11.81-42-12.78a17.49,17.49,0,0,1-7.38-2.75c-1.78-1-5.12-2.12-3.59-5,1.26-2.38,3.69-.27,5.5.25,19.85,5.52,40,10.15,59.42,16.92,25.72,8.93,51.69,13.11,79,11.8,21.82-1.06,43.74.05,65.61-.32,6.18-.09,7.9,1.42,7.86,7.76C1708.08,430.08,1708.17,479.73,1708,529.39ZM937.31,280.31q23.06,0,46.12.1c2.22,0,4.13-.3,5.11-2.57.67-1.6.27-3.32-1.17-3.74a26.19,26.19,0,0,0-6.93-.66l-25.33,0c-1.47-.07-2.94,0-4.44,0-4.42,0-8.85,0-13.29,0-2.38,0-5-.12-5,3.36S934.82,280.31,937.31,280.31Zm50.06-6.21a26.19,26.19,0,0,0-6.93-.66l-25.33,0c-1.47-.07-2.94,0-4.44,0-4.42,0-8.85,0-13.29,0-2.38,0-5-.12-5,3.36s2.48,3.48,5,3.48q23.06,0,46.12.1c2.22,0,4.13-.3,5.11-2.57C989.21,276.24,988.81,274.52,987.37,274.1Zm0,0a26.19,26.19,0,0,0-6.93-.66l-25.33,0c-1.47-.07-2.94,0-4.44,0-4.42,0-8.85,0-13.29,0-2.38,0-5-.12-5,3.36s2.48,3.48,5,3.48q23.06,0,46.12.1c2.22,0,4.13-.3,5.11-2.57C989.21,276.24,988.81,274.52,987.37,274.1Z"/><path class="cls-2" d="M1573,409.65c-.28-18.09-13.58-33.27-32.23-38.7-2.65,1.4-.57,3.64-.89,5.45-.57,3.23-2.74,4.65-4.74,2.16-17.54-21.65-44.49-21.53-67.94-28.38,0,0-47.2-12.25-49.74-16.44s-4.86-7.76-2.54-23c1-6.67,1.23-13.51,2.08-20.24.51-3.9.48-6-4.76-7-36.41-7.11-72.71-14.78-109-22.33-4.37-.9-7.19-.55-7.74,5-.5,4.94-2.18,9.75-3.41,14.59-6,23.52-19.19,31.72-43.19,27.48-52.08-9.19-104.52-15.37-157.41-17.5-19-.76-32.23,7.76-38.41,23.72-2.86,7.34-2.57,15.07-2.66,22.7-.22,22.15,0,44.33-.22,66.48-.23,23.26-11.73,34.49-35.18,34.55q-54.11.15-108.18.07c-24.78-.07-36.21-11.56-36.34-36.32-.12-23.35-.44-46.69-.05-70s-15-43.28-43.65-41.46c-51.32,3.32-102.34,8.56-153,17.42-12.5,2.18-23.88,2.47-35-6.52-.36-.3-1.35-1.4-1.35-1.4-8.08-9.48-9.52-21.39-11.86-32.86-1.12-5.5-2.79-7.26-8.68-6-36,7.74-72,15.29-108.15,22.42-5.27,1-6.1,2.77-5.13,7.42,1.78,8.68,3.39,17.52,1.49,26.35,0,0-4.68,17.48-16.27,22.76s-63.41,17.82-63.41,17.82c-14.84,4.06-29.88,7.37-40.07,20.43-.64.8-2,1.05-2.81,1.44-2.66-1.05-2.13-3.11-1.95-4.65.62-5.29-1.81-4.37-5.09-2.91-17.2,7.63-27.62,20.59-28.05,39.49-.64,29.54-.09,59.1,0,88.66,0,9,3.73,16.58,10,22.95,1.21,1.24,2.51,2.82,4.5,2,2.18-.89,1.18-3,1.24-4.65.14-4.14-.06-8.28.19-12.41.13-2,.55-4.53,3.29-4.48s2.91,2.84,3.07,4.65a55.92,55.92,0,0,1,.12,12.4c-1.08,8.13,2.56,9.76,10,9.71,41.38-.32,82.78-.15,124.18-.15,42.09,0,77.59,15.43,107,45.36,11.1,11.31,18.68,25,26.42,38.56,11.61,37.33,23.06,74.7,34.9,112,6.19,19.54,17.89,34.24,38.41,40.37,13,6.23,26.36,3.39,39.68,1.81,17.64-2.1,35.27-4.37,52.92-6.59,18.51-1.47,37-3.14,55.54-4.37,17.68-1.17,31,6,38.56,22.26,0,0,2.82,11.08,3.27,15.68s.26,14.84.26,14.84c.07,3,2.63,2.65,4.65,2.65l107.21.07c6.17.26,7.82-2,7-7.53,0,0,1.8-20.65,5.63-29.45,1.74-4,5.59-7.39,8.54-11,14.68-10.6,31.33-8.13,47.56-6.5,32.82,3.3,65.59,7.17,98.34,11.11s58.69-12.39,68.74-43.72c3.41-10.63,6.35-21.41,9.49-32.11,9.77-27.54,15.94-56.24,27.18-83.3,21.89-40.31,54.39-66.8,99.64-76.91,11.35-2.53,22.78-3.15,34.32-3.15,40.79,0,81.59-.16,122.36.2,7.21.07,9.37-2.2,8.91-9-.33-5,.36-10,.64-15a3,3,0,0,1,3.5-3.11c2.38.11,2.63,1.74,2.57,3.71-.12,4.73-.17,9.45-.12,14.19,0,1.35-.66,3.1,1,3.94,2,1,3.31-.43,4.55-1.69,5.91-6.07,10.45-12.85,10.47-21.73C1573.14,471.11,1573.48,440.36,1573,409.65ZM366.44,488.77c-2.73.12-3-2.36-3.09-4.31-.16-5-.05-10-.05-15h.19c0-6.2-.14-12.39.09-18.57.06-1.67,1.07-3.59,3.32-3.32,1.71.18,2.42,2,2.45,3.27.25,11.48.36,23,.45,34.45A3.46,3.46,0,0,1,366.44,488.77Zm7.87-90.57c-2.42,7.29-3.2,14.93-4.21,22.53-.57,4.2,2.32,11.66-4.07,11.52-5.38-.13-1.9-7.37-3-11,.44-8.9,1.4-17.4,4.24-25.53.8-2.32,2-5.7,5.4-4.35C375.64,392.55,375.25,395.32,374.31,398.2Zm636.63,324.33a61.56,61.56,0,0,1-7.1,6.79,69.44,69.44,0,0,1-87.68,0,63.22,63.22,0,0,1-7.1-6.79V640.58a64.22,64.22,0,0,1,7.1-6.8,69.47,69.47,0,0,1,87.68,0,62.51,62.51,0,0,1,7.1,6.8ZM1557.11,486c0,1.8-.15,3.63-2.66,3.73-2.2.11-3.23-1.06-3.46-3.07a175.17,175.17,0,0,1,.07-36.27c.18-1.91.94-3.4,3.23-3.35,3.14.05,2.81,2.31,2.81,4.38v16h0C1557.13,473.54,1557.17,479.75,1557.11,486Zm-2.62-53c-5.36.31-4.14-5-4.26-8-.36-8.88-2.06-17.51-4-26.11-.62-2.83-2.35-6.38,1.45-7.67s4.78,2.73,5.54,5.3c2.45,8.21,4.16,16.57,3.91,24.11,0,2.27.26,3.55-.07,4.62C1556.28,427.88,1559.65,432.67,1554.49,433Z"/><path class="cls-1" d="M370.1,420.73c-.57,4.2,2.32,11.66-4.07,11.52-5.38-.13-1.9-7.37-3-11,.44-8.9,1.4-17.4,4.24-25.53.8-2.32,2-5.7,5.4-4.35,3,1.17,2.61,3.94,1.67,6.82C371.89,405.49,371.11,413.13,370.1,420.73Z"/><path class="cls-1" d="M1554.49,433c-5.36.31-4.14-5-4.26-8-.36-8.88-2.06-17.51-4-26.11-.62-2.83-2.35-6.38,1.45-7.67s4.78,2.73,5.54,5.3c2.45,8.21,4.16,16.57,3.91,24.11,0,2.27.26,3.55-.07,4.62C1556.28,427.88,1559.65,432.67,1554.49,433Z"/><path class="cls-1" d="M1557.11,486c0,1.8-.15,3.63-2.66,3.73-2.2.11-3.23-1.06-3.46-3.07a175.17,175.17,0,0,1,.07-36.27c.18-1.91.94-3.4,3.23-3.35,3.14.05,2.81,2.31,2.81,4.38v16h0C1557.13,473.54,1557.17,479.75,1557.11,486Z"/><path class="cls-1" d="M369.8,485.25a3.46,3.46,0,0,1-3.36,3.52c-2.73.12-3-2.36-3.09-4.31-.16-5-.05-10-.05-15h.19c0-6.2-.14-12.39.09-18.57.06-1.67,1.07-3.59,3.32-3.32,1.71.18,2.42,2,2.45,3.27C369.6,462.28,369.71,473.77,369.8,485.25Z"/><path class="cls-1" d="M1545,675.12c-4.21,8.94-8.84,17.62-15.84,24.79a30.46,30.46,0,0,0-1.88,3.91c-.62,1.9-1.73,4.28.48,5.57,2,1.17,4-.42,5.41-1.89,7.43-8,13.64-16.86,17.6-27C1552.57,675.84,1550.68,672.88,1545,675.12Z"/><path class="cls-1" d="M1485.12,746.11c1.34,3.52,4,3.54,6.19,1.49,8.06-7.7,15.85-15.68,23.7-23.58a3.57,3.57,0,0,0,.53-4.83,3.14,3.14,0,0,0-4.73-.51c-8.58,8-17.49,15.63-24.72,24.94A9.43,9.43,0,0,0,1485.12,746.11Z"/><path class="cls-1" d="M1557.13,582.27c0-5.3,0-10.6,0-15.9,0-2.27.49-5.16-2.91-5.39-3-.19-3,2.58-3.15,4.44-1.2,11.45-1,22.93-.38,34.41.12,2.28,1.11,3.88,3.83,3.73,3.31-.17,2.53-2.59,2.55-4.5,0-5.59,0-11.19,0-16.79Z"/><path class="cls-1" d="M1551.12,618.2q-.27,19.13-.53,38.26c3.16,5,6,3.74,6.25-1.22.58-11.37.27-22.79.23-34.2C1557.05,616.21,1554.15,617,1551.12,618.2Z"/><path class="cls-1" d="M1465.09,762.39c-5.88,5.74-11.84,11.42-17.63,17.26-2.08,2.1-4.29,5.12-1.67,7.6,2.28,2.15,5-.34,6.81-2.14,7.6-7.33,15.09-14.78,22.61-22.19.58-3.4.5-6.34-4.23-4.26A45.87,45.87,0,0,0,1465.09,762.39Z"/><path class="cls-1" d="M1025.62,281.7c5,0,10,.09,15-.05,2.36-.06,5.15-.34,5-3.6-.11-2.73-2.58-2.82-4.67-2.83q-16.83-.08-33.65-.06c-1.74,0-3.73,0-3.72,2.56,0,2.19,1.53,3.15,3.43,3.29,6.17.46,12.35.78,18.53,1.15Z"/><path class="cls-1" d="M896.29,275.19H880.44c-1.81,0-3.83.08-4,2.36a3.51,3.51,0,0,0,3.72,4c11.15.21,22.3.32,33.45.41,2.12,0,3-1.29,3.19-3.34.2-2.78-1.34-3.54-3.76-3.53-5.58,0-11.16,0-16.74,0Z"/><path class="cls-1" d="M363.22,581.85c0,5.31-.06,10.62,0,15.93,0,2.88.86,5.43,4.46,5.19,3.33-.23,2.15-3.12,2.17-4.77.15-10.32.05-20.65,0-31,0-2.37-.17-5.4-3.09-5.45-3.6-.06-3.56,3.22-3.58,5.91,0,4.72,0,9.45,0,14.17Z"/><path class="cls-1" d="M1402.18,819.92c12.67-1.87,23-7.41,31-17.17,1.14-1.39,2.4-2.9.85-4.6s-3.49-.52-4.84.26c-4.05,2.35-7.88,5.06-11.82,7.6a58.2,58.2,0,0,1-16,7c-2.26.63-4.7,1.67-4,4.76S1400.64,819.13,1402.18,819.92Z"/><path class="cls-1" d="M1068.59,785.93c-2.91,0-4.39,0-5.86,0-2,0-4.28-.34-4.15,2.92.1,2.5,1.33,3.89,3.7,4.1q16.71,1.47,33.44,2.78c1.8.15,3.84-.09,4.06-2.34s-1.25-3.76-3.68-4.06C1086.47,788.16,1076.83,787,1068.59,785.93Z"/><path class="cls-1" d="M1261.3,817.69c5,.36,7.41,0,7.63-3.05.17-2.48-1.69-3.39-4-3.78-10.37-1.76-20.72-3.68-31.11-5.35-1.76-.28-4.33-1.09-5,1.92s1.49,4.32,3.85,4.8C1243,814.3,1253.37,816.19,1261.3,817.69Z"/><path class="cls-1" d="M1362.44,821.53c5.57,0,11.13,0,16.7,0,2.4,0,4-1.22,3.77-3.76-.17-2.09-1.77-2.88-3.71-2.87-11.13,0-22.26.1-33.38.23-2.18,0-4.28.67-4.27,3.34,0,3.5,2.75,3.1,5.08,3.1Z"/><path class="cls-1" d="M1305.82,821.47c5.6,0,11.2,0,16.8,0,1.76,0,3.74,0,4.08-2.36a3.33,3.33,0,0,0-3.53-4.09c-11.78-.1-23.57,0-35.35.07a3.15,3.15,0,0,0-3.21,3.45c0,2.13,1.44,3,3.52,3C1294,821.45,1299.92,821.48,1305.82,821.47Z"/><path class="cls-1" d="M1143.48,800.19c2,.12,4.1.41,6.14.33,2.57-.11,6.42,1.91,6.63-3,.15-3.82-3.21-3.74-5.68-4-9.34-.88-18.7-1.55-28-2.26-2.67-.2-5.72-.41-6.2,3.09-.54,3.84,2.55,3.84,5.26,4.07,7.29.62,14.58,1.32,21.88,2Z"/><path class="cls-1" d="M1185,797.8c-4.31,1.37-11.89-2.66-12.21,2.9-.39,6.66,7.57,4,12,4.62,7.26,1.09,14.62,1.6,22,2,2.21.14,5.77,1.87,6.14-2.42s-3.14-4.29-6-4.64C1199.55,799.44,1192.24,798.63,1185,797.8Z"/><path class="cls-1" d="M650.22,814.44c1.44,3.27,4.26,4,7.34,3.53,10.14-1.71,20.25-3.59,30.36-5.52,2.62-.5,4-2.35,3.91-5.09-1.25-.64-2.64-2-3.75-1.8C675.28,807.74,662,807.81,650.22,814.44Z"/><path class="cls-1" d="M595.36,816.19c-.4,3.65,1,5.54,4.91,5.5,10.61-.12,21.22-.1,31.83-.2,4,0,6-2,5.37-6.18C623.41,814.47,609.36,814.05,595.36,816.19Z"/><path class="cls-1" d="M707,803.8c0,3.64,2.14,4.33,5.23,4,10.24-1,20.39-3,30.76-2.76,2.25,0,5-.72,4.94-3.87-.1-4.26-3.63-3.05-5.95-3.08-11.54-.16-22.88,1.6-34.17,3.77Z"/><path class="cls-1" d="M861.23,786.15c-11.74,0-23.35,1.36-35,3-3.65.53-6.31,1.36-5.83,5.76,12.49,1.12,24.86-.11,37.23-1.71C862.63,792.6,861.8,789.39,861.23,786.15Z"/><path class="cls-1" d="M805.82,792c-12.45-1.83-24.63,1.2-36.92,2.15-2.16.17-5.1.54-4.82,3.93.31,3.67,3.38,2.77,5.45,2.63,10.29-.68,20.58-1.45,30.84-2.5,3.34-.34,6.44-1.74,5.39-6.27l.52-.51Z"/><path class="cls-1" d="M559,821.47c5.3,0,10.6.06,15.9,0,2.29,0,4.17-1,3.89-3.65a3.39,3.39,0,0,0-3.72-3c-11.19.1-22.38.19-33.57.43-2.09,0-4.31.86-4,3.61s2.66,2.71,4.73,2.72c5.59,0,11.19,0,16.79,0Z"/><path class="cls-1" d="M453.14,769.55c5.22,4.92,10.46,9.82,15.65,14.77,2.59,2.47,5.13,4.87,9.07,2.69-4.84-13.64-17.74-19.26-27.72-27.78-.86-.73-2.08-1.29-3.13-.19-1.29,1.36-.66,2.74.32,3.91C449.22,765.19,451.2,767.35,453.14,769.55Z"/><path class="cls-1" d="M405.59,720.36a5.86,5.86,0,0,0,2.1,4.67c7.28,7.24,14.55,14.49,21.9,21.65,1.15,1.12,2.62,3,4.43,1.44,1.55-1.36.88-3.53-.18-4.85-7.17-9-15.43-16.88-23.91-24.55C408.31,717.25,406,717.05,405.59,720.36Z"/><path class="cls-1" d="M369.8,638.73c0-5.32.13-10.63-.06-15.94-.08-2.17.14-5.26-3.47-4.87-2.41.27-3.19,2.28-3.18,4.58.05,10.33,0,20.66.17,31,0,2.7.71,6,3.91,5.94,2.94-.06,2.63-3.37,2.66-5.65.08-5,0-10,0-15Z"/><path class="cls-1" d="M960,395c-27.71,0-50.25-21.39-50.25-47.67S932.29,299.6,960,299.6s50.25,21.39,50.25,47.68S987.71,395,960,395Zm0-88.25c-23.79,0-43.15,18.2-43.15,40.58s19.36,40.57,43.15,40.57,43.15-18.2,43.15-40.57S983.79,306.7,960,306.7Z"/><path class="cls-1" d="M517,706.57c-27.71,0-50.25-21.39-50.25-47.68s22.54-47.67,50.25-47.67,50.25,21.39,50.25,47.67S544.69,706.57,517,706.57Zm0-88.25c-23.79,0-43.15,18.2-43.15,40.57s19.36,40.58,43.15,40.58,43.15-18.2,43.15-40.58S540.77,618.32,517,618.32Z"/><path class="cls-1" d="M1403,706.57c-27.7,0-50.25-21.39-50.25-47.68s22.55-47.67,50.25-47.67,50.25,21.39,50.25,47.67S1430.73,706.57,1403,706.57Zm0-88.25c-23.79,0-43.14,18.2-43.14,40.57s19.35,40.58,43.14,40.58,43.15-18.2,43.15-40.58S1426.82,618.32,1403,618.32Z"/><path class="cls-1" d="M1003.84,633.78a69.47,69.47,0,0,0-87.68,0,64.22,64.22,0,0,0-7.1,6.8v81.95a63.22,63.22,0,0,0,7.1,6.79,69.44,69.44,0,0,0,87.68,0,61.56,61.56,0,0,0,7.1-6.79V640.58A62.51,62.51,0,0,0,1003.84,633.78Zm0,86a62.19,62.19,0,0,1-87.68,0V643.39a62.19,62.19,0,0,1,87.68,0Z"/><rect class="cls-2" x="1919" y="1079" width="1" height="1"/><rect class="cls-2" width="1" height="1"/><rect class="cls-2" y="1079" width="1" height="1"/><rect class="cls-2" x="1919" width="1" height="1"/></g><g id="Capa_3" data-name="Capa 3"><path class="cls-3" d="M1237.38,394.73l-5.78,20.49-2.81,10L1221.47,451H1211l7.31-25.71,2.81-10,5.79-20.49Z"/><path class="cls-3" d="M1301.67,393.53v56.24h-10.05V413.94l-9.88,7.55-8.2,6.35-8.19-6.35-9.89-7.55v35.83h-10V393.53l10,7.71,18.08,13.9,18.08-13.9Z"/><path class="cls-3" d="M1365.87,393.53v56.24h-10V426.63h-29.65a16,16,0,0,1-7.56-1.84,16.43,16.43,0,0,1-9-14.71V393.53h10.05v16.55a6.62,6.62,0,0,0,6.59,6.59h29.65V393.53Z"/><path class="cls-3" d="M1425.42,421.41a16.59,16.59,0,0,1-11.9,28.12h-23.06a16.51,16.51,0,0,1-15.27-10.12,17.48,17.48,0,0,1-1.28-6.51V409.84a16.28,16.28,0,0,1,4.18-10.85,16.94,16.94,0,0,1,4.82-3.77,15.86,15.86,0,0,1,7.55-1.85h35v10h-35a6.62,6.62,0,0,0-6.59,6.59v7.87a16.56,16.56,0,0,1,6.27-1.28h23.7a16.65,16.65,0,0,1,11.66,5.06Zm-12,18.08a6.62,6.62,0,0,0,6.59-6.59,6.55,6.55,0,0,0-6.19-6.59h-23.7a6.59,6.59,0,0,0,.32,13.18h23Z"/><path class="cls-3" d="M1494.28,439.89v10.05h-56.09V433.38a15.92,15.92,0,0,1,1.37-6.51,16.5,16.5,0,0,1,14.62-10.12h24.35a6.56,6.56,0,0,0-.56-13.1h-39.62v-10H1478a16.52,16.52,0,0,1,16.55,16.55,16.45,16.45,0,0,1-4.74,11.49,16.69,16.69,0,0,1-11.33,5.06h-24.27a6.54,6.54,0,0,0-5.86,6.51v6.51Z"/><path d="M861.82,471.24v111H842V511.53l-19.51,14.91L806.3,539l-16.18-12.53-19.51-14.91v70.74H750.79v-111l19.82,15.23,35.69,27.44L842,486.47Z"/><path d="M915.74,508.2v75.5H895.91V506.14a15.8,15.8,0,0,0-13.48-13.48H878V473h4.28v.16A35.35,35.35,0,0,1,911.77,493a40.82,40.82,0,0,1,2.7,7.46,33,33,0,0,1,.95,8.09Z"/><path d="M1033.27,526.92a32.75,32.75,0,0,1-23.47,55.51H964.27a32.57,32.57,0,0,1-30.13-20,34.31,34.31,0,0,1-2.54-12.85,32.67,32.67,0,0,1,9.2-22.84,31,31,0,0,1-6.82-10,34.31,34.31,0,0,1-2.54-12.85,32.22,32.22,0,0,1,32-32.84H1010a32.88,32.88,0,0,1,23,55.68ZM1009,517.24a12.94,12.94,0,0,0,.48-25.85H962.69a12.93,12.93,0,0,0,.31,25.85h46Zm.16,45.52a13.07,13.07,0,0,0,13-13,12.92,12.92,0,0,0-12.21-13H963.48a12.88,12.88,0,0,0-12.21,12.85,13.06,13.06,0,0,0,13,13h45.53Z"/><path d="M1168.72,562.76v19.83H1058V549.92a31.5,31.5,0,0,1,2.7-12.85,32.57,32.57,0,0,1,28.86-20h48.06a13,13,0,0,0-1.11-25.85h-78.19V471.4h78.19a32.63,32.63,0,0,1,32.68,32.68,32.45,32.45,0,0,1-9.36,22.68,32.93,32.93,0,0,1-22.36,10h-47.91A12.91,12.91,0,0,0,1078,549.6v12.85Z"/></g></g></svg>