<svg xmlns="http://www.w3.org/2000/svg" viewBox="0 0 1920 1080"><defs><style>.cls-1{fill:#f2f2f2;}</style></defs><g id="Capa_2" data-name="Capa 2"><g id="Capa_1-2" data-name="Capa 1"><path d="M992.74,346.35c.18-17.42-10.61-32.76-28.61-36.27-3.48-.85-11.37.62-11.37.62-16.42,4.69-25.11,16.33-25.25,33.36q-.28,34,.09,68.05c.2,16.59,8.16,27.25,24,32.69,7.63,2,15.66.13,15.66.13,16.69-5.61,25.18-16.79,25.36-34.31C992.88,389.2,992.54,367.77,992.74,346.35ZM977.13,414.2c0,7.47-4.67,12-10.27,15.66-12.77,3.74-19.56-4.27-19.56-4.27a13.72,13.72,0,0,1-4.69-10.65c0-24.92-.11-49.83-.05-74.75,0-5.39,7-13.64,12-15.09,4.27-2.47,11.18.25,11.18.25,6.37,3.62,11.5,8.27,11.5,16.38Q977.21,378,977.13,414.2Zm15.61-67.85c.18-17.42-10.61-32.76-28.61-36.27-3.48-.85-11.37.62-11.37.62-16.42,4.69-25.11,16.33-25.25,33.36q-.28,34,.09,68.05c.2,16.59,8.16,27.25,24,32.69,7.63,2,15.66.13,15.66.13,16.69-5.61,25.18-16.79,25.36-34.31C992.88,389.2,992.54,367.77,992.74,346.35ZM977.13,414.2c0,7.47-4.67,12-10.27,15.66-12.77,3.74-19.56-4.27-19.56-4.27a13.72,13.72,0,0,1-4.69-10.65c0-24.92-.11-49.83-.05-74.75,0-5.39,7-13.64,12-15.09,4.27-2.47,11.18.25,11.18.25,6.37,3.62,11.5,8.27,11.5,16.38Q977.21,378,977.13,414.2Zm807.06,97.24a50.84,50.84,0,0,0-9.49-28.81c-7.1-7.57-16-9.7-26-9.53q-29.49.47-59,0c-17.81-.28-24.67-7.12-25.19-24.78-.33-11.34-.83-22.74,0-34,.79-10.22-2.69-14.95-12.32-19.48-51-24-102.4-46.87-154.85-67.41-3.65-1.42-4.74-3-2.9-6.66,3.61-7.14-1.16-10.55-10.59-12.05-18-2.87-35.61-8.34-51.55-17.27-8.88-5-14.85-5.3-16.65,2.41-1.06,4.6-3.49,4.54-7.16,3.4a1512.51,1512.51,0,0,0-193-45.61c-45.21-7.67-90.58-14-136.31-17.51C1042,231.27,1004.7,230,967.36,230c-103.39,0-157.69,7-157.69,7-41.16,3.84-81.9,10.41-122.54,17.69a1570.54,1570.54,0,0,0-174.45,42c-4.58,1.38-7.23.89-8.34-4-1.21-5.37-4.39-5.73-9.06-4.14q-31.42,10.71-63,21c-6.22,2-9,5.21-6.25,11.66,1.56,3.6-.33,4.86-3.34,6C368,348.48,314.62,372.6,261.61,397.59c-4.68,2.21-6.36,4.65-6.28,9.58.23,14.37-.33,28.75.15,43.08.55,15.81-9.66,22.62-22.13,22.74-18.65.2-37.33.68-55.95.09-14.79-.47-28.15,1.33-36.77,14.46-3.12,4-4.74,17.41-4.74,17.41s-.19,128.48,0,129.59c3.05,16.24,6.35,27.37,20.52,34.51,7.73,1.47,15.54.79,23.32.83q42.63.25,85.24.32c11.31-.1,22.62-.27,33.94-.3,32.11-.06,32.11,0,46.08,28.78a5.91,5.91,0,0,1,.29,1.46c10.94,17.46,19.51,36.2,29.64,54.09,12.8,22.65,26.85,44.28,47.38,60.91C437,825.21,452.15,834.37,469,840.92c9.4,3.65,32.77,8.3,32.77,8.3,32.53,2.91,63.16-2.54,93.34-12.81,22.12-7.52,43.63-16.78,66.15-23.14,24.41-9.42,50-14.47,75.33-20.68,49.42-12.11,99.68-19,150.37-23,4-.32,8-.9,12-1.26s8-1.48,7.7,5.3c-.19,4.55,4.32,4.18,7.47,4.21h91c4.73,0,9.27.1,9-6.77-.15-4.19,3.36-2.94,5.51-2.76,10.7.93,21.39,2.08,32.08,3.14,24.32,1.89,48.5,5.11,72.55,9.13,41.46,6.93,82.2,17,122.61,28.42a76.31,76.31,0,0,1,7.59,3.08c1.21.27,2.44.47,3.63.8,31.46,8.61,60.79,23.25,92.55,31.29,37.76,9.54,74.1,7.42,110-7.19,13.59-5.54,24.93-14.75,37.3-22.28,22.11-18.53,37.16-42.34,50.46-67.46,1.15-2.18,2.59-4.19,3.89-6.28,10.19-19.59,20.09-39.33,31.57-58.22,3.52-8.75,10.41-12.65,19.42-12.68,27.65-.09,55.31.06,83,.12,20.92-.09,41.88-1.27,62.71,0,21.48,1.31,35.77-16.76,35.26-35.11ZM516.73,307.87A1473.28,1473.28,0,0,1,669.63,270c45.71-8.73,91.7-15.77,138-20.8,64-7,128.2-8.14,192.46-7.19,40.84.61,81.53,3.67,122.1,8.31A1622.68,1622.68,0,0,1,1357.68,295c15.76,4.23,31.32,9.22,47.15,13.22,5.53,1.38,4.53,4.07,3.56,7.67-1.06,3.91-2.42,5.94-7.37,4.36q-35.57-11.36-71.77-20.48a1480.43,1480.43,0,0,0-189.84-35.42c-57.39-6.77-114.85-11.49-172.66-10.25l-22.92-.65c-54.24.42-108.19,4.51-162.08,10.66-75.55,8.63-149.63,24.31-223,43.87-13.19,3.51-26.11,7.82-39.09,12.05-6.16,2-6.55-1.76-8.13-5.76C509.37,308.63,513.35,308.9,516.73,307.87Zm371.7,449.51c-74.19,5-146.76,19.07-218,39.86C645.85,804.41,622,814,597.77,822.43c-27.53,9.55-55.25,18.39-85,15.44-20-2-39.66-5.91-57.28-16.52-25-12.37-44.14-30.85-58.86-54.55-16.48-26.53-29.82-54.73-45.2-81.82q-4.83-8.49-9.68-17c-8.36-7.69-18.23-10.54-29.55-10.27-15.75.38-31.5,0-47.26-.12-33.24,0-66.49.23-99.73,0-9.81-.06-16.82-7.52-16.85-17.5q-.18-68,0-136c0-11.82,6.58-18.48,18.77-18.67,20.9-.3,41.82-.24,62.73-.15,8.72,0,16.94-1.47,24.46-6.05,12.57-9.58,13.87-22.92,12.93-37.29-.61-9.29-.11-18.65-.35-27.95-.09-3.76,1.18-5.83,4.69-7.54,50.61-24.78,102.33-47,154.57-68,2.55-1,5.36-2.94,6.15,1.75.59,3.58,4.95,7.33-2.24,10.06C389.62,365.64,350,383,310.45,400.45c-17.14,7.56-24.91,18.67-24.69,37.75.68,60.21.77,120.42-.15,180.61-.28,17.56,14.1,35.44,34.15,33.42,7.94-.78,16.07.17,24.11.32,8.63-.8,14.86,2.35,19.28,10.11,8.24,14.48,14.46,29.86,21.62,44.81,16.05,33.47,38,61.63,71,80,38.64,21.59,79.32,24.57,122.08,14.81,32.27-7.37,62.2-21.45,94-30,45.48-12.28,91.25-22.7,137.83-29.8,30.4-4.61,60.93-7.72,91.6-9.76,4-.26,5.13.47,5.22,4.66C906.91,755.93,907.08,756.12,888.43,757.38Zm113.2-29.4c.5,10.81,0,21.65.25,32.47.08,4-.89,6.1-5.38,5.88l-70.83-.2c-7.77,1.56-7.19-1.59-7.18-5,0-11.33-.2-22.67,0-34,.13-6-2.23-7.93-8.16-7.36-11.26,1.09-22.59,1.61-33.88,2.36-34.92,3.77-69.78,8.15-104.36,14.46C753.66,740,735.3,744,716.87,747.8c-39.73,10.12-78.67,22.72-117.48,36-30.26,10.34-61.94,16.31-94.41,9.28-51.71-11.2-86.53-42.8-108.61-89.81q-9.45-20.13-18.83-40.34c-6.73-14.45-17.34-23.22-33.93-23.33-9.07.07-18.13.31-27.2.13-11.53-.23-18.26-6.76-18.27-18.4-.14-62.74,0-125.49-.17-188.25,0-10.47,5.53-15.94,14.28-19.95,40.23-18.47,80.91-35.86,122.22-51.77,18-6.93,15.53-5.89,7.57-29.87-.75-2.21-1.64-4.35-2.55-6.5-1.54-3.68-.48-5,3.3-6.23,15.79-5.08,31.47-10.49,47.16-15.92,3.57-1.24,5.25-.89,6.34,3.27,1.83,7,4.9,13.71,6.75,20.72s5.15,9.18,12.49,6.78q24.71-8.07,49.83-14.89a1516.1,1516.1,0,0,1,214.47-42.37,1601.53,1601.53,0,0,1,174.11-11.16l11.21.44c30,0,60,.44,89.91,2.54,64.59,4.56,128.75,12.48,192.26,25.21A1556.23,1556.23,0,0,1,1402.83,333c10.33,3.21,11.39,2.65,14.81-7.38,2.1-6.18,4.52-12.31,6-18.65,1.24-5.3,3.36-5.38,7.93-3.74,14.89,5.36,29.86,10.53,45,15,5.36,1.59,5.45,3.38,3.53,7.79-2.59,6-4.5,12.26-6.63,18.43-3.47,10.1-3,10.93,7,15,26.77,10.9,53.62,21.61,80.26,32.79,16.93,7.1,33.53,14.94,50.29,22.42,7.1,3.17,11.06,8.3,11.22,16.32.36,17.63.74,35.26-.06,52.88,1,24.68.78,49.36.1,74.05.52,18.68.83,37.34-.18,56,.53,7.52,1.36,15-5.48,20.75-3.62,3.06-7.16,5.07-12.08,5-14.82-.12-29.65.25-44.49,0-5.33-.08-8.29,2-10.41,6.72-6.39,14.15-13,28.17-19.56,42.25-8.28,20.16-18.79,39-33.17,55.52-21.14,25.13-47.91,41.14-79.86,48.21-24,5.32-48.1,4.15-71.86-2.07-45.46-11.91-88.89-30.53-134.85-40.83a1224.13,1224.13,0,0,0-156.14-26.18c-14.77-1.52-29.62-2.26-44.41-3.56C1003.59,719.31,1001.32,721.55,1001.63,728Zm770-87.2c-1.19,10.15-8.5,17-18.77,17-21.89.06-43.78-.1-65.66-.16-25.9.08-51.82.65-77.7.05-16-.36-28.31,5-37,18.38-13.76,27-27.76,53.84-43.26,79.89a153.34,153.34,0,0,1-62.62,64.79c-2,1.09-3.85,2.39-6.27,2.12-11.9,8.27-25.87,10.55-39.55,13.23-24.26,4.74-48.13,2.27-71.59-5.18-11.43-3.61-23.46-5.4-34.2-11.2-24.37-8.58-48.47-18-73.37-24.9-46.73-13-94-23.55-142.08-30.38-11.93-1.7-23.9-3-35.86-4.45l-44.38-3.57c-.26,0-.55.09-.76,0l-5.83-.6s-.38-22.21.29-22.88,6.92.11,6.92.11c19.24,1,38.4,2.94,57.52,5.25a1026.16,1026.16,0,0,1,101.89,16.89c46.53,10,91.72,24.32,136.66,39.94,44.52,15.44,90,19.54,134.7-1a169.28,169.28,0,0,0,62.29-49c17.36-21.63,26.16-47.8,38.39-72.16,4.52-14.39,13.47-22.26,29.42-21,7.74.62,15.58.11,23.38,0,17.69-.3,30-12.61,30.48-30.41.08-2.48.35-5,.53-7.46-.72-22.19-.78-44.4,0-66.59-.93-20.21-.83-40.42-.17-60.64-.17-17.62-.71-35.24-.38-52.86.31-15.7-7.17-25.37-21-31.55-40.6-18.13-81.26-36.18-123-51.62-7.09-2.63-4.28-6.28-3.16-10.41,1.62-5.95,5.27-2.26,7.69-1.29,51.5,20.81,102.42,42.94,152.48,67,3.59,1.73,4.78,3.7,4.72,7.41-.13,10.83.31,21.67-.12,32.5-.48,12.5,2.79,23.29,12.23,31.86a41.23,41.23,0,0,0,19.73,7.6q27.22,0,54.43.06c3.74-.09,7.48-.3,11.22-.26,15.85.22,21.92,6.66,21.57,22.8q.17,65.62.32,131.26A10.09,10.09,0,0,1,1771.61,640.78ZM964.13,310.08c-3.48-.85-11.37.62-11.37.62-16.42,4.69-25.11,16.33-25.25,33.36q-.28,34,.09,68.05c.2,16.59,8.16,27.25,24,32.69,7.63,2,15.66.13,15.66.13,16.69-5.61,25.18-16.79,25.36-34.31.23-21.42-.11-42.85.09-64.27C992.92,328.93,982.13,313.59,964.13,310.08Zm13,104.12c0,7.47-4.67,12-10.27,15.66-12.77,3.74-19.56-4.27-19.56-4.27a13.72,13.72,0,0,1-4.69-10.65c0-24.92-.11-49.83-.05-74.75,0-5.39,7-13.64,12-15.09,4.27-2.47,11.18.25,11.18.25,6.37,3.62,11.5,8.27,11.5,16.38Q977.21,378,977.13,414.2Z"/><path class="cls-1" d="M1622.34,558c.68-24.69.85-49.37-.1-74.05.8-17.62.42-35.25.06-52.88-.16-8-4.12-13.15-11.22-16.32-16.76-7.48-33.36-15.32-50.29-22.42-26.64-11.18-53.49-21.89-80.26-32.79-10.06-4.1-10.49-4.93-7-15,2.13-6.17,4-12.46,6.63-18.43,1.92-4.41,1.83-6.2-3.53-7.79-15.17-4.51-30.14-9.68-45-15-4.57-1.64-6.69-1.56-7.93,3.74-1.49,6.34-3.91,12.47-6,18.65-3.42,10-4.48,10.59-14.81,7.38a1556.23,1556.23,0,0,0-155.51-39.64c-63.51-12.73-127.67-20.65-192.26-25.21-29.92-2.1-59.91-2.52-89.91-2.54l-11.21-.44a1601.53,1601.53,0,0,0-174.11,11.16,1516.1,1516.1,0,0,0-214.47,42.37q-25.08,6.81-49.83,14.89c-7.34,2.4-10.61.35-12.49-6.78s-4.92-13.7-6.75-20.72c-1.09-4.16-2.77-4.51-6.34-3.27-15.69,5.43-31.37,10.84-47.16,15.92C439,320,438,321.3,439.49,325c.91,2.15,1.8,4.29,2.55,6.5,8,24,10.43,22.94-7.57,29.87-41.31,15.91-82,33.3-122.22,51.77-8.75,4-14.31,9.48-14.28,19.95.18,62.76,0,125.51.17,188.25,0,11.64,6.74,18.17,18.27,18.4,9.07.18,18.13-.06,27.2-.13,16.59.11,27.2,8.88,33.93,23.33q9.38,20.19,18.83,40.34c22.08,47,56.9,78.61,108.61,89.81,32.47,7,64.15,1.06,94.41-9.28,38.81-13.27,77.75-25.87,117.48-36,18.43-3.77,36.79-7.84,55.27-11.22,34.58-6.31,69.44-10.69,104.36-14.46,11.29-.75,22.62-1.27,33.88-2.36,5.93-.57,8.29,1.32,8.16,7.36-.25,11.34,0,22.68,0,34,0,3.41-.59,6.56,7.18,5l70.83.2c4.49.22,5.46-1.84,5.38-5.88-.22-10.82.25-21.66-.25-32.47-.31-6.43,2-8.67,8.22-8.11,14.79,1.3,29.64,2,44.41,3.56a1224.13,1224.13,0,0,1,156.14,26.18c46,10.3,89.39,28.92,134.85,40.83,23.76,6.22,47.82,7.39,71.86,2.07,32-7.07,58.72-23.08,79.86-48.21,14.38-16.53,24.89-35.36,33.17-55.52,6.54-14.08,13.17-28.1,19.56-42.25,2.12-4.7,5.08-6.8,10.41-6.72,14.84.22,29.67-.15,44.49,0,4.92,0,8.46-2,12.08-5,6.84-5.78,6-13.23,5.48-20.75C1623.17,595.33,1622.86,576.67,1622.34,558ZM959.91,707.91a31.7,31.7,0,1,1,31.7-31.7A31.74,31.74,0,0,1,959.91,707.91Zm32.74-297.29c-.18,17.52-8.67,28.7-25.36,34.31,0,0-8,1.86-15.66-.13-15.87-5.44-23.83-16.1-24-32.69q-.37-34-.09-68.05c.14-17,8.83-28.67,25.25-33.36,0,0,7.89-1.47,11.37-.62,18,3.51,28.79,18.85,28.61,36.27C992.54,367.77,992.88,389.2,992.65,410.62Z"/><path d="M959.91,644.51a31.7,31.7,0,1,0,31.7,31.7A31.73,31.73,0,0,0,959.91,644.51Zm0,49.78A18.08,18.08,0,1,1,978,676.21,18.1,18.1,0,0,1,959.91,694.29Z"/><rect class="cls-1" width="1" height="1"/><rect class="cls-1" x="1919" y="1079" width="1" height="1"/><rect class="cls-1" y="1079" width="1" height="1"/><rect class="cls-1" x="1919" width="1" height="1"/></g><g id="Capa_3" data-name="Capa 3"><path d="M823.19,485.89v111H803.36V526.18l-19.51,14.91-16.18,12.53-16.18-12.53L732,526.18v70.74H712.16v-111L732,501.12l35.69,27.44,35.69-27.44Z"/><path d="M949.91,485.89v111H930.09V551.24H871.56a31.42,31.42,0,0,1-14.91-3.65,32.38,32.38,0,0,1-17.77-29V485.89h19.83v32.68a13.06,13.06,0,0,0,13,13h58.53V485.89Z"/><path d="M1067.92,541.57a32.75,32.75,0,0,1-23.48,55.51H998.92a32.59,32.59,0,0,1-30.14-20,34.5,34.5,0,0,1-2.54-12.85,32.67,32.67,0,0,1,9.2-22.84,31.35,31.35,0,0,1-6.82-10,34.5,34.5,0,0,1-2.53-12.85,32.2,32.2,0,0,1,32-32.84h46.47a32.88,32.88,0,0,1,23,55.68Zm-24.27-9.68a12.94,12.94,0,0,0,.48-25.85h-46.8a12.93,12.93,0,0,0,.32,25.85h46Zm.16,45.52a13.05,13.05,0,0,0,13-13,12.92,12.92,0,0,0-12.21-13H998.13a12.89,12.89,0,0,0-12.22,12.85,13.07,13.07,0,0,0,13,13h45.52Z"/><path d="M1201.31,505.88a34.46,34.46,0,0,1,2.53,12.85v45.52a32.69,32.69,0,0,1-10.46,24.11,34.25,34.25,0,0,1-7.3,5.23,31.42,31.42,0,0,1-14.91,3.65h-69V577.41h69a13.06,13.06,0,0,0,13-13V548.86a32.49,32.49,0,0,1-12.38,2.54H1125a32.76,32.76,0,0,1,.48-65.51H1171a32.59,32.59,0,0,1,30.14,20Zm-88.67,12.85a13,13,0,0,0,12.37,13h46.79a13,13,0,0,0-.63-26h-45.52A13.07,13.07,0,0,0,1112.64,518.73Z"/></g></g></svg>