<svg xmlns="http://www.w3.org/2000/svg" viewBox="0 0 1920 1080"><defs><style>.cls-1{fill:#020202;}.cls-2{fill:#f2f2f2;}.cls-3{fill:none;}.cls-4{fill:#ccc;}</style></defs><g id="Capa_2" data-name="Capa 2"><g id="Capa_1-2" data-name="Capa 1"><path class="cls-1" d="M993.77,229.22l-67.34,0s-1-.58-.76,3S943.3,234,943.3,234l50-.28C994.67,232.18,993.78,230.74,993.77,229.22Zm0,0-67.34,0s-1-.58-.76,3S943.3,234,943.3,234l50-.28C994.67,232.18,993.78,230.74,993.77,229.22Zm0,0-67.34,0s-1-.58-.76,3S943.3,234,943.3,234l50-.28C994.67,232.18,993.78,230.74,993.77,229.22Zm0,0-67.34,0s-1-.58-.76,3S943.3,234,943.3,234l50-.28C994.67,232.18,993.78,230.74,993.77,229.22Zm667.92,44.42c-.12-.42-.21-.84-.31-1.25-8-10.3-19.11-12.73-31.27-12.73-47.45,0-94.87-.19-142.3.23-10.78.09-21-2.08-31.19-4.44-28.17-6.52-56.15-13.9-84.36-20.19-46.21-10.33-92.54-20-139.59-25.89-23-2.89-45.93-6.34-69.08-7.45-12.12-.58-20-5.74-24.58-16.68-3.46-8.25-9.63-12.63-18.65-12.66-9.38-.05-18.76-.26-28.12,0-8.78.29-13.31,4.68-13,13.72.22,7-3.27,7.35-8.38,6.93-4.64-.38-11.07,2.05-10-6.77s-3.25-10.75-11.31-10.62l-180.73.05c-6.75-.09-10.57,1.87-9.81,8.75.72,6.71-2.29,8.18-8.06,7.4a21.12,21.12,0,0,0-6.4,0c-3,.51-3.37-.71-3.57-3.38-1.08-13.52-4-16.36-17.19-16.48,0,0-10.77.21-24.85.21S784.5,176,784.5,176c-3.49,13.43-11.63,24.79-26.56,25.76-74.66,4.85-147.91,18.8-220.62,35.81-29.39,6.87-58.7,14-88.06,21-6.33,1.49-12.79,1.09-19.21,1.09q-69.53,0-139,0c-12.73,0-24.57,2-33.63,14.74-3.79,4.55-5,11.27-5,11.27V494.18c0,10.12,2.84,18.17,10.2,24.81h0c1,.72,2,1.45,3,2.19,6.2,2.12,12.6,2.06,19,2,30.52-.05,61.05-.13,91.57.07,13.14.08,19.3,5.3,20.45,16.52.45,4.52.16,8.67-5.79,9.52-4.36.63-5.27,3.85-5.23,7.69.06,7.22-.47,14.5.11,21.67.64,8-1.61,11.08-10.41,10.73-19.24-.74-38.54-.22-57.82-.26-12,0-12-.06-13.09,11,1.24,19.35.37,38.71-.18,58.06,1.26,26.77,1.14,53.56-.06,80.32-1.31,6,2.86,5.8,6.66,5.81,21.68.08,43.38.5,65.05-.05,7.4-.19,9.61,1.6,9.11,9-.64,9.59.14,19.25,0,28.89-.25,14.49,5.75,24.58,18.76,31.72,51.51,28.33,102.74,57.18,154,85.86,0,0,.26,1.13,9.83,5.2s45.92-2.2,45.92-2.2c10.57-2,14.59-6.58,13.62-17.12-.66-7,3.86-7.58,8-8.42,5.42-1.11,4.31,4.12,4.35,6.55.08,6.94,3.63,7.9,9.34,7.06,46-6.77,92.07-13.41,138.08-20.19,15-2.2,15-2.34,15.64-17,0-.32.66-.61,1-.9,1.35-.12,1.9.88,2.19,1.86,2.27,7.36,6.66,9.27,14.56,8.3,15.38-1.88,30.95-2.2,46.43-3.16,28.79-2.72,57.69-2.47,86.53-3.21,18.86,0,71.16,1.42,71.16,1.42l24,1.48q23.6,1.51,47.23,3c13.35.84,13.35.82,20.69-10.48,4,5.37-3.33,14.67,6.22,17.58,21.16,3,42.36,5.58,63.42,9,26.26,4.26,52.85,6.26,78.89,12.11,4.27,1,10,2.48,14.47-1.29.38-1,.75-2.09,1.12-3.13l1-3c-.34-5.11.22-9,6.56-4.65,5.73.31,4.75,4.32,4.66,8.1-.2,9,4.19,14.68,13,16.18,11,1.85,22.13,3.15,33.2,4.7,5.78.79,10.91-.71,16-3.57,19.93-11.22,40-22.14,60.07-33.18q48.69-27.48,97.37-54.95c8.61-4.84,17.22-9.69,21.16-19.55,1.42-9.31,1.35-18.69,1.37-28.07q.12-80,.21-159.91c0-2.65.24-5.32.37-8-.28-14.16-.62-28.32-.79-42.46,0-4.36-.58-7.91-6-8.54s-5.87-4.84-5.5-9c1-11.32,7.39-16.89,20.14-17,30-.18,59.94-.11,89.92-.06,7,0,13.88,0,20.64-2,8.92-6.2,13.62-14.19,13.61-25.56V285.43C1667.61,280.64,1661.69,273.64,1661.69,273.64ZM1223.34,220.7c46.5,5.4,92.34,14.67,137.93,25.09,35.91,8.21,71.72,16.9,107.54,25.5,4.8,1.14,9.58,1.08,14.37,1.08q74.34,0,148.7,0c9.39,0,17.24,2.32,21.28,11.58-1.19,2-2.67,1.37-3.86,1.37-56,0-112-.18-168,.11-15.65.08-29.87-5.47-44.56-9.17-44.58-11.24-89.16-22.58-134.54-30.06-43.27-7.15-86.79-12.75-130.44-17.28-11.8-1.23-21.7-5-27.41-17C1171.36,214.91,1197.37,217.67,1223.34,220.7Zm-137.91-17.55c.21-5.35.13-10.72.12-16.06,0-5.52,2.15-8.38,8.17-8.16,8.56.33,17.15,0,25.71.18,8.81.21,13,4.14,14.38,12.9,1,6.07,1.48,12.25,3,18.15,3,11.42,10.32,18.9,21.67,22.7,2.19.72,9.69-.84,4.78,6.4-1.09,1.59,1.92,2.8,3.75,3,10.09,1.14,20.17,2.2,30.26,3.25,1.3.14,2.7.13,3.52-1.21,2.45-4,9.94-6.06,13.92-3.78.59.34,1.53,1.26,1.4,1.53-4.17,9.65,4.39,6.26,7.67,6.89,7.32,1.41,14.85,1.75,22.28,2.6,6.32.74,6.32.79,4.44-6.34,3.65.5,6.68.54,9.43,1.4,2.56.82,10.47-3.42,5.82,5.57-.78,1.54,2.24,2.49,4.11,2.86,9.13,1.85,18.32,3.43,27.46,5.36,7,1.48,4.63-3.78,2.47-7.32,5.8-1,10.24,1.67,15,1.85,3,.11,8.3-.32,2.31,4.78-2.25,1.93.23,3.63,1.84,3.94,10,1.82,20,3.39,30,5,.7.11,2.06-.27,2.16-.67,2.56-9.82,8.56-1.89,12.85-2.51.73-.1,2.18.33,2.22.66,1.68,13.73,13.9,7.14,20.87,10.47,3.49,1.66,5.66,2.17,5.79,6.69.16,5.41-1.59,6.27-6.48,5.26-17.78-3.7-35.64-7.06-53.45-10.58-74.8-14.82-150-26.76-226.35-30.14-9.82-.43-19.83-.14-29.52-2.57-4.4-1.11-8.46-2.75-11.32-8.12,9.31,0,17.7.08,26.08-.07,1.81,0,4.77,1.3,5.14-2s-2.76-3.82-4.92-3.93c-8.28-.42-16.58-.4-24.89-.66-2.46-.06-5.79,1-6-3.25-.19-4.08,3-2.73,5.12-3C1077.76,222.51,1085,214.7,1085.43,203.15ZM1069.94,205c2.3,1.39,7-2.93,8.16,2.56.82,3.89-7.21,9.81-12.76,10.33-6.27.59-4.09-4.14-4.57-7C1059.4,202.78,1065.49,205.38,1069.94,205Zm-227.83,2.13c1.32-5.1,5.95-.65,7.77-1.85,6.08-.81,10.86-1.13,10.06,6.51-.34,3.27.32,6.48-4.8,6.15C849.19,217.54,841,211.48,842.11,207.14Zm-57.29-2.32c.18-1.32.23-2.67.41-4,2.54-20.93,3.73-22,25-21.86,5.35,0,10.73.32,16.07,0,6.13-.4,8.14,2.82,8.19,8.18,0,5.08-.23,10.18,0,15.25.67,13.38,6.72,19.91,19.93,21.78,2.06.29,4.54-.34,4.62,2.93.08,3.67-2.61,3.39-5,3.44-8.3.15-16.6.21-24.9.43-3,.09-6.7.34-6.29,4.33.35,3.46,3.94,1.76,6,1.76,7,0,13.92-.41,20.88-.62,1.55,0,3.59-.3,3.72,1.84.06,1-1.09,2.41-2.08,3.09-6.21,4.31-13.43,4.9-20.67,5.32C793,248.83,755.4,251.5,717.88,256c-49.64,6-98.61,15.93-147.71,25.16-12.34,2.32-24.61,5-36.95,7.24-1.85.34-5.36,2.78-5.62-1.47-.19-3.23-2.51-7.91,3.11-9.33,4.41-1.11,9-1.43,13.27-3,3.64-1.32,10.86,1.9,9.31-7.61-.43-2.73,7.42-2.41,11.36-3.89s3.17,1.72,3.35,4.1,2.27,1.79,3.73,1.56c8.7-1.33,17.42-2.76,26.13-4.15,2.39-.38,5.37-.7,6.22-3,1.19-3.15-4-2.07-4.23-5.69l19.51-3.67c1.79,3.35-4,4.76-.83,7.56,2.22,2,4.6.05,6.87-.3,7.38-1.19,14.78-2.32,22.09-3.91,3-.66,8.57,0,5.67-6.41-.75-1.67.66-2.28,2.13-2.47l11.11-1.45c1.15-.15,2.53.18,2.45,1.33-.63,8.48,5.2,4.4,8.51,4.19,7.72-.52,15.43-1.6,23.13-2.3,2.26-.21,4.33-.24,4.83-3,.32-1.76-5-5.88.85-4.85,4.44.76,11.31-8,13.64,2.75.41,1.87,2.5,1.89,4.08,1.73,9.58-.92,19.16-1.95,28.73-2.88,2.09-.21,3.62-.95,3.92-3.21.37-2.78-2.59-2.1-3.87-3.42,2.07-2.48,5-1.39,7.4-2.08C773,229.77,783.15,218.19,784.82,204.82ZM272.41,276.54c4.66-3.69,10.26-4.14,16-4.14,37.22,0,74.48-.87,111.68.24,32.7,1,64.14-3.75,95.72-11.95,60-15.6,120.54-28.89,182-37.55,29.38-4.13,59-6.72,88.45-10.07,2.86-.32,5.7-1,10.43-1.88-5.62,9.75-12,15.19-21.5,16.39-24.4,3.14-48.79,6.34-73.23,9.22-66.23,7.79-131.29,21.43-195.51,39-23.39,6.41-46.68,10.19-71.1,9.72-46.85-.88-93.73-.21-140.61-.29-2.46,0-6.18,1.51-7.19-1.32C266.21,280.38,270,278.43,272.41,276.54Zm249,418.35c.38,6.56-3.46,7.43-8.18,8.06-24.92,3.35-44.59-16.28-41.71-41.57,2.19-22,24.44-36.68,46-30.61,3.62,1,3.75,3.05,3.7,5.85-.13,8.25-.21,16.51-.31,24.76C521,672.54,520.73,683.74,521.38,694.89Zm-1-71.85c-2.64,3.88-9.25-.4-14.2,0-17.39,1.35-30.63,9-38,25.15-2.14,4.68-5.67,9.09-5,14.8,2,8.46,1.67,17.32,6.56,25.26,10.53,17.06,25.92,23.44,45,20.83,6.56-.89,7.28,1,6.58,6.31a59.39,59.39,0,0,0-.1,8c-.05,12.66,0,12.72-12.4,13.54-24.05,1.61-48.17.69-72.25,1.37-4.25.11-5.63-1.34-5.5-5.5.25-7.5.16-15,0-22.48-.05-2.14,1.2-5.55-2.42-5.77-4.26-.26-3.15,3.65-3.25,5.92-.33,7.48-.51,15-.22,22.47.19,5.15-2.48,5.26-6.45,5.41-4.38.14-5.49-1.42-5.42-5.52.3-16.31.33-32.63.48-48.94-.1-27.81-.16-55.63-.36-83.44,0-3.22.62-5,4.35-4.93,31.53.84,63.11-1.51,94.64,1.42,7.21.68,9.72,3.46,8.91,10.5C520.7,612.72,522.87,619.38,520.36,623Zm-12.74-85.4c-10.81-.63-20.86-3.42-29.18-10.83-12.74-8.56-21-20.55-21.48-35.7q-2.31-70.29,0-140.6c.82-25.05,21.82-44.89,50.52-50.55,13.91-2.74,13.87-2.74,13.87,11.28q-.07,99.66-.08,199.32c0,4.54-.25,9.09-.37,13.63C521.62,538.41,521.62,538.47,507.62,537.64ZM376,510.45q-47.42.17-94.83.06c-12.66,0-15.69-2.94-15.7-15.65-.1-65.62,0-131.24-.21-196.85,0-5.76,2.17-6.38,7-6.37,53.06.13,106.1,0,159.15.12,11,0,21.93.17,32.52-3.46,1.54-.53,5.06-2.59,4.71,1.11-.95,9.87,4.41,4.58,7.38,3.15,6.29-3,12.57-5.95,19.36-7.63,3.83-.95,6.51-3.25,9.23-5.95s6.45-4.62,10.17-2.78c3.22,1.59,6.51,3.76,6.55,8.38,0,4.09-.16,7-5.65,7.5-6.58.64-13.11,2.44-19.53,4.21-26.64,7.32-45.4,29.43-45.91,57.1-.84,44.7-.26,89.44-.26,134.17,0,11.88,4.42,22.36,10.6,32.25,13.63,17.58,31.82,25.4,53.76,24.49,5.89-.25,7.11,1.85,7,7.23-.35,11.76-.14,23.54,0,35.3.05,3.35-.55,4.81-4.42,4.2-26.34-4.09-52.85-1.48-79.28-1.79-5.87-.06-7.56-1-6.86-7.3,1-8.72.39-17.62.36-26.45,0-2.2.88-5.4-2.93-5.31-3.07.1-2.7,3-2.72,4.93-.08,9.6-.58,19.27.34,28.79.48,5-1.16,5.28-5,5.15A163.09,163.09,0,0,0,404,589c-5.2.35-6.52-1.9-6.18-6.6a109.68,109.68,0,0,0-.05-12.82c-.25-5,.79-8.53,5.3-12.19,8.93-7.27,6.71-17.75,5.1-27.61C401.7,516.24,390.71,510.4,376,510.45Zm11.62,226.81c-23.58.81-47.17,1.15-70.75.29-3.82,1.26-6.28.68-5.86-4.13.31-3.65.47-7.34.69-11-.8-20.34-.8-40.67.21-61-.24-20.59-.45-41.19-.75-61.78,0-3.28,1.49-4,4.44-4q32.55.18,65.07.13c3.19,0,4.25,1.21,4.26,4.23,0,6.42.12,12.86.53,19.26.28,4.31-2.06,10.36,6.13,10.26,7.73-.08,5.44-5.77,5.65-9.82.31-6.15.26-12.33.11-18.47-.09-3.94,1.11-5.83,5.49-5.84,4.73,0,4.21,3,4.21,5.92,0,43.9-.13,87.8,0,131.7,0,3.93-1.16,5.23-5,4.9C397.21,737.44,392.4,737.46,387.61,737.26Zm235,130.59a14.63,14.63,0,0,0-8.53,9c.74,13.19.42,12-11.86,15.1-18.21,4.65-33.2.26-49.11-9.07-45-26.35-90.43-52-136.53-76.26-16-8.44-21.72-19.06-18.81-35.84-.1-6.69.06-13.38-.42-20-.35-5,1.42-6.26,6.36-6.23,26.52.16,53,0,79.56-.18,11.23-.08,22.51.28,33.59-2.07,3.12-.66,4.38.29,4.36,3.59q-.06,36.95,0,73.92c0,3.26-.86,4.63-4.2,2.75-2.79-1.55-5.52-3.38-9-3-1.42,2.07-1.42,4,.87,5.37,8.86,5.23,17.58,10.73,27.15,14.62,1.64.68,3.68.95,4.84-1.22a6.55,6.55,0,0,0-4.68-5c-8.4-2.45-9.25-8.56-9.07-16.15.5-21.88.4-43.78.53-65.67-.53-6.55-2.4-13.77,7.66-14.87,24.24-13.22,38.83-33.33,43.37-60.63.16-2.67.32-5.36.47-8l.14-4.88c-.74-25.5-11.33-45.72-32.42-60.26-2.15-1-4.2-2.54-6.45-3-13-2.41-14.38-11.16-13.37-22.26.86-9.25.34-18.65.26-28,0-3.11.53-4.81,4.22-5.15,43.58-4.15,65.79,25.76,65.23,54.33a342.51,342.51,0,0,1,7.82,54.52c.22,4,3.27,7.33,1.95,11.45,4.71,24.47,7.86,49.18,10.89,73.89q5.24,27.15,8,54.63c2,11.83,3.88,23.65,6,35.43.66,3.67-1,4.58-4.1,5.19-6.79,1.32-13.53,2.93-20.25,4.57-2.4.6-5,1.74-4,4.85.85,2.81,3.6,1.83,5.49,1.46,6.51-1.3,13-2.83,19.46-4.39,3.62-.87,5.73-.07,5.52,4.13a21.52,21.52,0,0,0,.37,4C636,862.38,636,862.42,622.65,867.85ZM527.38,606.31c-.1-4,.8-5.52,5-3.57,23.21,10.8,41,30.74,39.87,61.84,1,29.09-18.25,58.16-44.82,66.83,0-7.84,0-15.49,0-23.14a5,5,0,0,1,2.56-4.63c12.58-7.56,18.37-19.54,21.78-33.12-1.17-17-6.23-31.95-22-41.07-2.33-1.36-2.38-3.33-2.36-5.49C527.38,618.09,527.54,612.2,527.38,606.31Zm.21,90.43V636.57C549.42,648.53,549.77,682.25,527.59,696.74Zm582.17,142.73c-6,10.79-13.74,11.08-23.75,9.55-9.22-1.4-18.56-1.89-27.84-2.8-30.81-3.2-101.93-2.59-101.93-2.59-32.52-.59-65,2.3-97.45,2.74-12.22,1.19-24.46,2.32-36.69,3.63-3.14.34-5-.85-6.48-3.45a61.34,61.34,0,0,0-5.36-8c-6.55-8.07-6.57-9.18,1-16.49,4.56-4.4,10-7.36,16.28-7.85,9.32-.72,18.68-.9,28-1.32,32.78-1.09,65.55-2.55,98.36-2.25,2.62,0,5.24.5,7.85.77,15.38-1.65,30.77-.42,46.15-.22,15.69.21,31.36,1,47,1.54,12.52.45,25.07.69,37.58,1.43,6,.36,11.22,3.11,15.62,7.29C1116.55,829.45,1115.2,829.62,1109.76,839.47Zm173.32-17.7-8.1,58.29c0,4.68-3,4.73-6.65,4.18q-60.3-9.07-120.64-18c-6.35-1-12.72-1.79-19.13-2.29-3.37-.27-5-1.51-4.58-4.9,0,0,.14-4.33,0-13.5s-4.42-20.38-4.42-20.38a34.35,34.35,0,0,0-14.89-14.11c1.23-.95,1.55-1.37,1.95-1.5,2.54-.8,7.08,1.71,7.45-2.12.39-4.07-4.34-4-7.34-4.36-6.9-.85-13.85-1.48-20.78-1.87-3.72-.19-7.39-1.16-9.93,4-2.06,4.18-11.81,2-12.72-2.8-.66-3.47-3.41-2.81-5.1-4.15-9-.1-18-.24-27.06-.24-1.85,0-5.52-1.13-4.92,1.9,1.6,8.32-3.93,5.63-7.76,5.63-2.89,0-5.81-.26-8.7-.42-1.22.35-3,1.11-3.22-.63-.34-2.3,1.83-1.8,3.27-1.93,1.83-3.94,2-6.16-3.77-6.29l-27.62.44c-1.77-.12-3.62,1.14-2.54,2.89,4.45,7.23-2.08,4.62-4.39,4.73-6.42.29-12.86.1-19.29-.05-3.49-.06-8.87,2.06-6.81-5.32a1.78,1.78,0,0,0-1.77-2.2l-25.29-.39a19.38,19.38,0,0,1-2.41,0c-6.71-.79-10.34.5-4.6,7.68-5.24,1.81-10.1.53-14.82,1.17-1.19.16-3.41.11-3-1.38,2.46-10-5.35-5.6-8.64-5.7-9.05-.25-18.14.49-27.23.82-2.16,2.13,1.88,7.53-3.35,7.52-4,0-9.35,3.08-11.71-3.4-.95-2.62-3.57-2.07-5.55-1.93-8.53.58-17.05,1.21-25.53,2.19-2.38.27-6.28.47-6,4,.37,4.07,4.29,1.38,6.5,2.2.64.24,1.35.36,4.63,1.18a104.36,104.36,0,0,0-14.9,11.74c-8.62,8-6,40-6,40-.85,1.27-2.2,1.24-3.54,1.4q-22.22,2.65-44.45,5.38c-32.46,5-64.94,9.94-97.39,15-4.6.73-4.83-2.23-5.18-5.14l-3.33-22.29q-3.17-24.61-6.39-49.22c-4.23-22.91-7.67-45.93-9.92-69.12-5-25.51-8.29-51.3-11.44-77.09-3.91-20.23-6.53-40.65-9-61.11-1.12-5.73-2-11.52-3.42-17.2-6.47-26-27.71-43.58-54.43-45.11-3.18-.18-6.4-.16-9.6-.19-10.8-.07-10.8-.05-10-11.47q-.12-88.36-.26-176.74c0-16.05,0-32.13,0-48.2,0-3.46.19-5.72,4.78-6.56,38.61-7,77.1-14.58,115.7-21.67a1147.12,1147.12,0,0,1,137.63-16.94c17.1-1.05,34.2-2,51.28-3.31,15.06-1.1,24.87-8.77,28.17-23l.77-42.15c.34-4.71,2.5-5.5,6.66-5.49l174.76.13c3.12,0,7.14-1.67,7.61,4.17l.36,43.47c4.52,15.39,13.83,22.28,29.81,23,71.92,3.13,143.29,10.9,213.93,25.13,29.29,5.88,58.68,11.21,88.06,16.66,3.52.66,5.82,1.39,5.82,5.83q-.36,111.2-.46,222.4c.85,14.55.85,14.55-13.36,14.66-33.94.27-57.4,20.69-62.08,53.93-.4,2.91-1.12,5.75-1.72,8.63Zm371.53-327.59c0,12.87-3.38,16.25-16.14,16.28-31.32.08-62.66.18-94,0-12.68-.06-23,4-30.2,14.8-2.86,7.82-5.37,15.69-2.54,24.08.6,1.74,1.16,4,2.49,4.89,10.85,7,8.13,17.8,8.19,27.8,0,6.12-.22,12.23-.35,18.34.13,19,.35,37.9.35,56.86,0,40.86-.35,81.72,0,122.58.1,11.63-3.68,19.6-14.93,23.41-27.36,15.47-54.68,31-82.09,46.39-18.36,10.28-36.82,20.36-55.24,30.51-7.42,4.34-14.89,8.62-22.24,13-3.49,2.09-7.11,1.87-10.86,1.32-7.38-1.06-14.76-2.8-22.17-2.88-7.75-.09-10.79-2.78-9.16-10.42a31,31,0,0,0,.32-4c-2.13-7.6-8.34-10.32-15-11.29-6.22-.9-6.9-3.84-6.32-9.26,1.87-17.19,1.68-17.2,18.7-13.61,2.86.59,5.71,1.28,8.6,1.64,1.69.21,4,1,4.76-1.45.81-2.67-1.27-4-3.34-4.57-6.45-1.64-12.94-3.25-19.48-4.39-4.56-.79-6.28-2.17-5.09-7.34,2.05-8.78,3.08-17.82,4.52-26.75q14-96.32,28.06-192.58c.52-3.58-.82-7.47,1.67-10.72,1.76-33.75,27.11-56.22,65.75-52.62,3.43.32,3.8,2,3.78,4.71q-.16,25.68-.22,51.35c.09,4,0,8,.32,12,.84,9.41-1.4,16-9.67,22.89-20.4,16.83-17.81,50.79,3.81,66.12,4.15,2.94,6,5.78,5.92,11-.33,28.57-.3,57.12-.41,85.69.08,8-.07,16.06.33,24,.23,4.64-1.09,7.63-5.56,9.29a30.15,30.15,0,0,0-5.52,3.23c-1.42.9-2.72,2.2-1.92,3.91,1,2,2.79,1.11,4.14.4q13.17-6.78,26.24-13.75c1.72-.92,3.26-2.61,2.35-4.54-1.55-3.23-3.65-.39-5.36.15a79.7,79.7,0,0,0-7.72,3.36V799.6c-.08-28.6-.07-57.2-.31-85.79,0-4.76,1-5.36,5.81-4.62,20.8,3.19,39.9-7.35,47.83-25.56a43.39,43.39,0,0,0-12.41-50.74,40.7,40.7,0,0,0-34.47-9c-5.12.92-7.43.55-6.89-5.4s.32-11.75.44-17.62c-.07-16.81,0-33.6-.31-50.4-.09-4.68,1.63-6.16,6-6a73.61,73.61,0,0,0,26.74-3.89c13.72-4.78,23.38-14.45,31.24-26.21,5.71-10.65,7.4-22.08,7.36-34.05-.13-39.88,0-79.76,0-119.64,0-36.43-20.19-60-57.11-67.09a39.42,39.42,0,0,1-6.3-1.21c-2.84-1.06-7.59,1-7.91-4.6-.24-4.2.26-7.9,4.18-10.53s8.48-2.22,11.09.72c8.91,10.05,22.7,9.48,33.2,16.17,6.24,4,3.88-3.54,4.91-6.73,21.39,7.16,43.16,4,64.69,4.23,43.37.42,86.74.25,130.13,0,5.93,0,7.64,1.37,7.61,7.48C1654.57,364.1,1654.66,429.14,1654.61,494.18Zm-262.23,141.7v59.44c-8.75-3.23-16.17-15.12-16.54-27.6C1375.46,654.74,1380.48,644.2,1392.38,635.88Zm6.53,3.89c-.61-7.11,2.53-9.36,8.71-10.29,19.4-2.9,39.07,12.34,41.57,32.43,2.52,20.24-12.58,39.4-32.48,41.2-1.07.1-2.13.13-3.21.15-13.43.28-14.47-.71-14.49-13.82V666.21h.08C1399.09,657.39,1399.67,648.53,1398.91,639.77Zm.18-337.22c0-2.48-.45-5,3.48-4.39,21.79,3.33,41.61,9.86,53.49,30.68,4.48,7.86,7.56,16,7.57,25,.08,44.46.36,88.93-.19,133.38-.21,16.94-7.64,30.93-22.39,40.34-11.25,9.37-24.68,10.46-38.48,10.28-2.84,0-3.72-1.33-3.59-3.94.17-3.71.22-7.45.34-11.18Q1399.22,412.64,1399.09,302.55ZM926.43,229.26s-1-.58-.76,3S943.3,234,943.3,234l50-.28c1.34-1.53.45-3,.44-4.49Zm67.34,0-67.34,0s-1-.58-.76,3S943.3,234,943.3,234l50-.28C994.67,232.18,993.78,230.74,993.77,229.22Zm0,0-67.34,0s-1-.58-.76,3S943.3,234,943.3,234l50-.28C994.67,232.18,993.78,230.74,993.77,229.22Z"/><path class="cls-2" d="M521.22,510.56c0,4.54-.25,9.09-.37,13.63.77,14.22.77,14.28-13.23,13.45-10.81-.63-20.86-3.42-29.18-10.83-12.74-8.56-21-20.55-21.48-35.7q-2.31-70.29,0-140.6c.82-25.05,21.82-44.89,50.52-50.55,13.91-2.74,13.87-2.74,13.87,11.28Q521.23,410.9,521.22,510.56Z"/><path class="cls-2" d="M1463.44,487.22c-.21,16.94-7.64,30.93-22.39,40.34-11.25,9.37-24.68,10.46-38.48,10.28-2.84,0-3.72-1.33-3.59-3.94.17-3.71.22-7.45.34-11.18q-.1-110.09-.23-220.17c0-2.48-.45-5,3.48-4.39,21.79,3.33,41.61,9.86,53.49,30.68,4.48,7.86,7.56,16,7.57,25C1463.71,398.3,1464,442.77,1463.44,487.22Z"/><path class="cls-3" d="M943.3,234l50-.28c1.34-1.53.45-3,.44-4.49l-67.34,0s-1-.58-.76,3S943.3,234,943.3,234Z"/><path class="cls-3" d="M786.26,806.1c-8.71.9-17.39,2.09-26,3.41-2.48.37-6.16.74-5.63,4.25.58,3.88,4.28,1.5,6.9,2.16,8.38-1.21,17-2.42,25.73-3.74,2.44-.37,5.27-1.41,4.92-4.21C791.69,804.43,788.25,805.89,786.26,806.1Z"/><path class="cls-3" d="M960,241.66c-29.58,0-53.65,26.49-53.65,59.06s24.07,59,53.65,59,53.67-26.48,53.67-59S989.58,241.66,960,241.66Z"/><path class="cls-3" d="M737.27,812.42q-15.3,2.69-30.55,5.64c-1.88.37-3.65,1.75-3.48,3.86.26,2.8,2.74,1.65,4.88,2,9.46-1.88,19.55-2.85,29.23-5.91,1.91-.59,3.64-1.54,3.56-3.7S738.69,812.18,737.27,812.42Z"/><path class="cls-3" d="M685.6,821.34c-6.52,1.14-13,2.35-19.5,3.54-2.61.62-5.2,1.28-7.79,1.89s-6,1.08-5.32,4.59c.59,3.23,4,2.19,6.09,1.82,10.24-1.84,20.73-2.61,30.28-7.24C691.52,821.61,689.51,820.65,685.6,821.34Z"/><path class="cls-3" d="M910,231.75c.08-4.1-4.28-2.66-7-2.88-.79-.07-1.59-.13-2.38-.21l-25.74.42c-2.88,3.6-2.78,5.52,2.61,5.34,8.51-.27,17,0,25.53-.37C905.48,234,909.92,236,910,231.75Z"/><path class="cls-3" d="M1019.54,228.64c-1.32.07-2.64.08-4,.2-2.39.17-6.1-1.43-6,2.83.08,3.63,3.59,2.3,5.66,2.35,9,.17,18.07.11,27.1.13,2.33,0,5.14.56,4.52-3.4C1038,226.78,1028.58,230.28,1019.54,228.64Z"/><path class="cls-3" d="M1263.57,827.27c-9.35-2-18.74-3.76-27.64-5.51-2.4.45-5.19-1.2-5.71,2-.43,2.87,2.27,3.43,4.17,4a166.9,166.9,0,0,0,28.09,5.51c1.65.19,4,.9,4.65-1.69C1267.8,828.82,1265.68,827.72,1263.57,827.27Z"/><path class="cls-3" d="M1158.41,809.45c-8.4-1.32-16.83-2.37-25.26-3.36-1.66-.2-4.05-.78-4.54,1.85s1.56,3.82,3.75,4.18c8.38,1.33,16.8,2.52,25.1,3.75,2.73-.76,7,1.9,7.74-1.84C1166.06,809.58,1161.27,809.9,1158.41,809.45Z"/><path class="cls-3" d="M1212.94,817.94c-9.67-1.85-19.33-3.68-29-5.34-1.67-.29-4.14-.75-4.78,1.63-.77,2.92,2,3.68,3.86,4.08,9.35,2.09,18.76,3.88,27.25,5.58,2.87-.54,5.68,1,6.17-2.22C1216.72,819.47,1214.87,818.31,1212.94,817.94Z"/><path class="cls-2" d="M1392.75,300.72c0-4.44-2.3-5.17-5.82-5.83-29.38-5.45-58.77-10.78-88.06-16.66-70.64-14.23-142-22-213.93-25.13-16-.71-25.29-7.6-29.81-23l-.36-43.47c-.47-5.84-4.49-4.15-7.61-4.17l-174.76-.13c-4.16,0-6.32.78-6.66,5.49L865,230c-3.3,14.19-13.11,21.86-28.17,23-17.08,1.27-34.18,2.26-51.28,3.31a1147.12,1147.12,0,0,0-137.63,16.94c-38.6,7.09-77.09,14.64-115.7,21.67-4.59.84-4.8,3.1-4.78,6.56.05,16.07,0,32.15,0,48.2q.12,88.36.26,176.74c-.84,11.42-.84,11.4,10,11.47,3.2,0,6.42,0,9.6.19,26.72,1.53,48,19.1,54.43,45.11,1.39,5.68,2.3,11.47,3.42,17.2,2.45,20.46,5.07,40.88,9,61.11,3.15,25.79,6.45,51.58,11.44,77.09,2.25,23.19,5.69,46.21,9.92,69.12q3.19,24.61,6.39,49.22l3.33,22.29c.35,2.91.58,5.87,5.18,5.14,32.45-5.11,64.93-10,97.39-15q22.23-2.71,44.45-5.38c1.34-.16,2.69-.13,3.54-1.4,0,0-2.62-32.06,6-40a104.36,104.36,0,0,1,14.9-11.74c-3.28-.82-4-.94-4.63-1.18-2.21-.82-6.13,1.87-6.5-2.2-.33-3.52,3.57-3.72,6-4,8.48-1,17-1.61,25.53-2.19,2-.14,4.6-.69,5.55,1.93,2.36,6.48,7.75,3.4,11.71,3.4,5.23,0,1.19-5.39,3.35-7.52,9.09-.33,18.18-1.07,27.23-.82,3.29.1,11.1-4.34,8.64,5.7-.37,1.49,1.85,1.54,3,1.38,4.72-.64,9.58.64,14.82-1.17-5.74-7.18-2.11-8.47,4.6-7.68a19.38,19.38,0,0,0,2.41,0l25.29.39a1.78,1.78,0,0,1,1.77,2.2c-2.06,7.38,3.32,5.26,6.81,5.32,6.43.15,12.87.34,19.29.05,2.31-.11,8.84,2.5,4.39-4.73-1.08-1.75.77-3,2.54-2.89l27.62-.44c5.73.13,5.6,2.35,3.77,6.29-1.44.13-3.61-.37-3.27,1.93.26,1.74,2,1,3.22.63,2.89.16,5.81.42,8.7.42,3.83,0,9.36,2.69,7.76-5.63-.6-3,3.07-1.9,4.92-1.9,9,0,18,.14,27.06.24,1.69,1.34,4.44.68,5.1,4.15.91,4.76,10.66,7,12.72,2.8,2.54-5.15,6.21-4.18,9.93-4,6.93.39,13.88,1,20.78,1.87,3,.37,7.73.29,7.34,4.36-.37,3.83-4.91,1.32-7.45,2.12-.4.13-.72.55-1.95,1.5a34.35,34.35,0,0,1,14.89,14.11s4.29,11.21,4.42,20.38,0,13.5,0,13.5c-.44,3.39,1.21,4.63,4.58,4.9,6.41.5,12.78,1.34,19.13,2.29q60.33,8.93,120.64,18c3.64.55,6.65.5,6.65-4.18l8.1-58.29,32.05-221.43c.6-2.88,1.32-5.72,1.72-8.63,4.68-33.24,28.14-53.66,62.08-53.93,14.21-.11,14.21-.11,13.36-14.66Q1392.47,411.93,1392.75,300.72ZM689.36,825.94c-9.55,4.63-20,5.4-30.28,7.24-2.05.37-5.5,1.41-6.09-1.82-.65-3.51,2.72-4,5.32-4.59s5.18-1.27,7.79-1.89c6.5-1.19,13-2.4,19.5-3.54C689.51,820.65,691.52,821.61,689.36,825.94Zm48-8c-9.68,3.06-19.77,4-29.23,5.91-2.14-.31-4.62.84-4.88-2-.17-2.11,1.6-3.49,3.48-3.86q15.22-3,30.55-5.64c1.42-.24,3.55-.41,3.64,1.85S739.26,817.38,737.35,818Zm49.86-5.79c-8.68,1.32-17.35,2.53-25.73,3.74-2.62-.66-6.32,1.72-6.9-2.16-.53-3.51,3.15-3.88,5.63-4.25,8.66-1.32,17.34-2.51,26-3.41,2-.21,5.43-1.67,5.87,1.87C792.48,810.77,789.65,811.81,787.21,812.18ZM926.43,229.26l67.34,0c0,1.52.9,3-.44,4.49l-50,.28s-17.37,1.76-17.63-1.77S926.43,229.26,926.43,229.26ZM903,234.05c-8.5.32-17,.1-25.53.37-5.39.18-5.49-1.74-2.61-5.34l25.74-.42c.79.08,1.59.14,2.38.21,2.72.22,7.08-1.22,7,2.88S905.48,234,903,234.05Zm57,125.71c-29.58,0-53.65-26.48-53.65-59s24.07-59.06,53.65-59.06,53.67,26.49,53.67,59.06S989.58,359.76,960,359.76Zm82.34-125.61c-9,0-18.07,0-27.1-.13-2.07-.05-5.58,1.28-5.66-2.35-.1-4.26,3.61-2.66,6-2.83,1.32-.12,2.64-.13,4-.2,9,1.64,18.47-1.86,27.32,2.11C1047.48,234.71,1044.67,234.15,1042.34,234.15ZM1165.2,814c-.71,3.74-5,1.08-7.74,1.84-8.3-1.23-16.72-2.42-25.1-3.75-2.19-.36-4.26-1.43-3.75-4.18s2.88-2.05,4.54-1.85c8.43,1,16.86,2,25.26,3.36C1161.27,809.9,1166.06,809.58,1165.2,814Zm51.19,7.64c-.49,3.22-3.3,1.68-6.17,2.22-8.49-1.7-17.9-3.49-27.25-5.58-1.85-.4-4.63-1.16-3.86-4.08.64-2.38,3.11-1.92,4.78-1.63,9.72,1.66,19.38,3.49,29,5.34C1214.87,818.31,1216.72,819.47,1216.39,821.67Zm50.74,10c-.65,2.59-3,1.88-4.65,1.69a166.9,166.9,0,0,1-28.09-5.51c-1.9-.56-4.6-1.12-4.17-4,.52-3.25,3.31-1.6,5.71-2,8.9,1.75,18.29,3.55,27.64,5.51C1265.68,827.72,1267.8,828.82,1267.13,831.62Z"/><path class="cls-1" d="M689.36,825.94c-9.55,4.63-20,5.4-30.28,7.24-2.05.37-5.5,1.41-6.09-1.82-.65-3.51,2.72-4,5.32-4.59s5.18-1.27,7.79-1.89c6.5-1.19,13-2.4,19.5-3.54C689.51,820.65,691.52,821.61,689.36,825.94Z"/><path class="cls-1" d="M792.13,808c.35,2.8-2.48,3.84-4.92,4.21-8.68,1.32-17.35,2.53-25.73,3.74-2.62-.66-6.32,1.72-6.9-2.16-.53-3.51,3.15-3.88,5.63-4.25,8.66-1.32,17.34-2.51,26-3.41C788.25,805.89,791.69,804.43,792.13,808Z"/><path class="cls-1" d="M740.91,814.27c.08,2.16-1.65,3.11-3.56,3.7-9.68,3.06-19.77,4-29.23,5.91-2.14-.31-4.62.84-4.88-2-.17-2.11,1.6-3.49,3.48-3.86q15.22-3,30.55-5.64C738.69,812.18,740.82,812,740.91,814.27Z"/><path class="cls-1" d="M910,231.75c-.08,4.23-4.52,2.2-7,2.3-8.5.32-17,.1-25.53.37-5.39.18-5.49-1.74-2.61-5.34l25.74-.42c.79.08,1.59.14,2.38.21C905.72,229.09,910.08,227.65,910,231.75Z"/><path class="cls-1" d="M1042.34,234.15c-9,0-18.07,0-27.1-.13-2.07-.05-5.58,1.28-5.66-2.35-.1-4.26,3.61-2.66,6-2.83,1.32-.12,2.64-.13,4-.2,9,1.64,18.47-1.86,27.32,2.11C1047.48,234.71,1044.67,234.15,1042.34,234.15Z"/><path class="cls-1" d="M424.81,368.56c.63-6.34,1.23-13,2-19.62.26-2.16,1-4.49,3.9-4,2.52.41,2.14,2.76,2,4.54-.53,9.87-1.15,19.73-1.72,29.59-.1,1.67-.15,3.39-2.42,3.27a3.2,3.2,0,0,1-3.19-3C425.13,375.83,425,372.36,424.81,368.56Z"/><path class="cls-1" d="M457.55,304.1a18.07,18.07,0,0,1-1.89,3.5A128.08,128.08,0,0,0,440,328.89c-.84,1.5-2.24,3.67-4.38,2.59s-1-3.17-.31-4.9a82.44,82.44,0,0,1,15.29-23.38,5.31,5.31,0,0,1,5.82-1.71A1.82,1.82,0,0,1,457.55,304.1Z"/><path class="cls-1" d="M431,467.27c0,4.55.07,9.1,0,13.65-.05,2,.58,4.77-2.7,4.7-2.24,0-3.09-2-3.08-4,0-10.16.09-20.32.28-30.48,0-1.58.78-3.28,2.82-3.24s2.6,1.64,2.62,3.32c.06,5.35,0,10.7,0,16Z"/><path class="cls-1" d="M431,414.58c0,4.52.08,9.05,0,13.57,0,2,.47,4.77-2.47,5.06s-3.29-2.61-3.3-4.49c-.05-9.83.16-19.67.4-29.51,0-1.51.28-3.43,2.41-3.51,2.44-.09,3.05,1.62,3.05,3.72,0,5.05,0,10.11,0,15.16Z"/><path class="cls-1" d="M431.39,522.12c-.12,3.42-.21,6.84-.37,10.25-.08,1.79.26,4-2.52,4-2.38,0-3.07-1.8-3.29-3.72-.3-2.61-.41-5.24-.6-7.86.2-6.68.33-13.36.65-20,.1-2.2-.7-5.46,2.78-5.61,3.65-.15,2.93,3.11,3,5.35C431.24,510.36,431.29,516.24,431.39,522.12Z"/><path class="cls-1" d="M1486.83,330a2.84,2.84,0,0,1-2,1.75,3,3,0,0,1-3.51-1.28c-5.21-8.71-11.86-16.34-18-24.34-.91-1.17-1.85-2.8-.29-4.28,1.13-1.07,2.49-.72,3.77-.31C1471.48,303,1487.05,324.1,1486.83,330Z"/><path class="cls-1" d="M1495.63,369.91c-1.92,4,2.34,11.38-3.65,11.47-5.82.09-2.34-7.05-2.93-10.89-1-6.79-1.24-13.72-1.65-20.6-.12-2-.67-4.66,2.46-4.92s3,2.7,3.28,4.53C1494.15,356.31,1494.83,363.17,1495.63,369.91Z"/><path class="cls-1" d="M1495.25,532.85c-1.28,1.42-1.55,4.75-4.35,3.45-3.74-1.74-.89-5.84-2.28-8.55V526c0-1.82.07-3.65.1-5.48.12-5.06.12-10.13.4-15.19.14-2.36-1.24-6.28,2.87-6.12,3.7.14,2.78,4,2.86,6.42C1495.14,514.7,1495.14,523.78,1495.25,532.85Z"/><path class="cls-1" d="M1489.13,466.31c0-4.79,0-9.59,0-14.38,0-1.94.34-3.92,2.81-4,2.08-.05,2.62,1.82,2.65,3.35.18,10.38.28,20.76.24,31.13,0,1.94-1.09,3.77-3.46,3.5-2-.22-2.32-2-2.33-3.63,0-5.33,0-10.65,0-16Z"/><path class="cls-1" d="M1489.11,414c0-4.53,0-9.06,0-13.59,0-2.06-.25-4.67,2.86-4.67,2.5,0,2.79,2.27,2.8,4.11.06,9.85.07,19.7-.1,29.55,0,1.7-.39,4-3,3.88s-2.53-2.3-2.55-4.09c-.08-5.06,0-10.12,0-15.19Z"/><path class="cls-1" d="M1267.13,831.62c-.65,2.59-3,1.88-4.65,1.69a166.9,166.9,0,0,1-28.09-5.51c-1.9-.56-4.6-1.12-4.17-4,.52-3.25,3.31-1.6,5.71-2,8.9,1.75,18.29,3.55,27.64,5.51C1265.68,827.72,1267.8,828.82,1267.13,831.62Z"/><path class="cls-1" d="M1216.39,821.67c-.49,3.22-3.3,1.68-6.17,2.22-8.49-1.7-17.9-3.49-27.25-5.58-1.85-.4-4.63-1.16-3.86-4.08.64-2.38,3.11-1.92,4.78-1.63,9.72,1.66,19.38,3.49,29,5.34C1214.87,818.31,1216.72,819.47,1216.39,821.67Z"/><path class="cls-1" d="M1165.2,814c-.71,3.74-5,1.08-7.74,1.84-8.3-1.23-16.72-2.42-25.1-3.75-2.19-.36-4.26-1.43-3.75-4.18s2.88-2.05,4.54-1.85c8.43,1,16.86,2,25.26,3.36C1161.27,809.9,1166.06,809.58,1165.2,814Z"/><path class="cls-1" d="M1487.28,754.47c2.42,2.84,3.22,4.71,2.47,7a71.07,71.07,0,0,1-14.83,25.31c-1.38,1.54-3.24,3.19-5.49,1.2-1.48-1.3-.9-2.82,0-4.29C1475.22,774.23,1481,764.76,1487.28,754.47Z"/><path class="cls-1" d="M1458.4,799.59c-8.44,7-18.7,10.83-28.24,15.9-1.65.87-3.92,1.27-5-.62-1-1.7-.2-3.74,1.4-5,2.09-1.61,4.36-3,6.54-4.47,6.38-3.07,12.77-6.11,19.12-9.22C1456,794.36,1458.36,794.75,1458.4,799.59Z"/><path class="cls-1" d="M1489.14,723.3c0-5,0-10.1,0-15.15,0-1.93.37-3.89,3-3.72,2,.12,2.56,1.81,2.59,3.42.19,10.36.29,20.72.41,31.09,0,2.24-1.13,3.55-3.37,3.46-2.46-.1-2.8-1.93-2.79-3.95,0-5.05,0-10.1,0-15.15Z"/><path class="cls-1" d="M1489.28,602.29c2-.44,3.94-.37,5.34,1.49.13,10.13.33,20.25.35,30.38,0,2.51.39,6.14-3.47,5.93-3.34-.19-2.52-3.59-2.52-5.81C1489,623.62,1489.16,613,1489.28,602.29Z"/><path class="cls-1" d="M1489.08,672.17c0-4.82,0-9.64,0-14.45,0-1.86-.08-4.08,2.43-4.36s3.14,1.8,3.16,3.7q.19,14.85.1,29.69c0,1.87-.53,3.78-3.15,3.78-2.88,0-2.6-2.09-2.62-3.91,0-4.81,0-9.63,0-14.45Z"/><path class="cls-1" d="M1345.49,845.23c5.23-.15,11.11.29,16.8-1.78,1.57-.57,3.89-1.45,4.82,1,1,2.69-1.09,4.07-3.11,4.7a56.24,56.24,0,0,1-30,.92c-1.79-.42-4.09-1-3.85-3.33.34-3.24,3.23-2,5.1-2.06C1338.48,844.63,1341.68,845,1345.49,845.23Z"/><path class="cls-1" d="M561.29,851.35c-3.23-1.71-8-1.49-8.48-6.69,2.66-3.33,5.4-.3,8,0,7.74.9,15.45.27,23.17,0,1.86-.08,4.87-1.64,5.45,1.24.67,3.3-2.27,4.48-5,4.93C576.75,852.06,569,851.41,561.29,851.35Z"/><path class="cls-1" d="M1489.16,568.9c0-5-.06-10.08,0-15.12,0-1.91.48-3.89,3-3.67,2,.18,2.4,2,2.41,3.57,0,10.07,0,20.14-.1,30.21,0,1.72-.36,4.06-3,3.7-2.46-.33-2.4-2.56-2.43-4.37-.1-4.77,0-9.54,0-14.32Z"/><path class="cls-1" d="M779.34,240.33c-1.33,0-2.65,0-4,0-1.82,0-4,.33-3.91-2.48a3.61,3.61,0,0,1,3.45-3.74q14.28-1.11,28.58-2c1.78-.11,3.85-.22,4,2.55s-2,3.07-3.64,3.25C795.73,238.86,787.53,239.55,779.34,240.33Z"/><path class="cls-1" d="M1122.68,232.08c7.12.66,13.76,1.22,20.39,1.92,2.28.25,5.19.11,5.22,3.55,0,4.09-3.29,2.78-5.26,2.66-8.24-.47-16.5-1.07-24.69-2.06-2.2-.27-6.37.29-5.84-3.64.49-3.69,4.18-2.22,6.65-2.41C1120.48,232,1121.82,232.08,1122.68,232.08Z"/><path class="cls-1" d="M388.14,682c-5.89-6.07-1.22-13.93-3.48-20.61.21-6.39.54-12.78.58-19.17,0-3.92,1.89-5,5.5-4.85,3.42.17,6.52.17,6.51,4.88,0,11.48.08,23,.08,34.44C397.33,683.72,392.21,682,388.14,682Z"/><path class="cls-1" d="M387.68,732.44a5.16,5.16,0,0,1-2.25-4.83c.3-12.92-2.11-25.9.89-38.76,10.9-.89,11-.87,11,9.57.05,8.23-.57,16.5.15,24.67C398.21,731.09,395.12,733.69,387.68,732.44Z"/><path class="cls-1" d="M493.76,816.31c-11.1-2.35-20.11-9.08-29.82-14.34-2.1-1.14-2.42-3.33-2.18-5.57,2.19-2.21,4.33-1.06,6.51.06,7.37,3.76,14.8,7.4,22.12,11.27C493.8,809.53,497.33,811.61,493.76,816.31Z"/><path class="cls-1" d="M450.15,789.19l-1.93.13c-9.44-7.44-13.31-18.38-18-28.78-.68-1.51-1-3.16.88-4.11a2.73,2.73,0,0,1,3.62.77c5.38,10,13,18.86,16.49,29.93C451.35,787.65,450.51,788.49,450.15,789.19Z"/><path class="cls-1" d="M424.67,672.65c.21-5,.28-10,.71-14.91.15-1.84-.1-4.64,3.13-4.4,3.07.23,2.33,2.95,2.86,4.81-.09,9.27-.13,18.54-.3,27.81,0,1.88.81,4.63-2.62,4.61-2.95,0-3.23-2.29-3.33-4.46C424.9,681.63,424.81,677.14,424.67,672.65Z"/><path class="cls-1" d="M431.05,621.47c0,4.81.07,9.62,0,14.42,0,1.75.45,4.14-2.16,4.46-2.45.3-3.13-1.73-3.3-3.65-.93-10.39-.57-20.79,0-31.18.09-1.56.58-3.39,2.68-3.32,2.55.08,2.75,2.13,2.76,4,0,5.08,0,10.15,0,15.23Z"/><path class="cls-1" d="M960,343.52a42.81,42.81,0,1,1,42.81-42.81A42.85,42.85,0,0,1,960,343.52Zm0-79.18a36.37,36.37,0,1,0,36.38,36.37A36.42,36.42,0,0,0,960,264.34Z"/><path class="cls-1" d="M960,241.66c-29.58,0-53.65,26.49-53.65,59.06s24.07,59,53.65,59,53.67-26.48,53.67-59S989.58,241.66,960,241.66Zm0,111.66c-26,0-47.22-23.6-47.22-52.6S934,248.09,960,248.09s47.23,23.6,47.23,52.63S986.05,353.32,960,353.32Z"/><rect class="cls-2" x="1919" y="1079" width="1" height="1"/><rect class="cls-2" width="1" height="1"/><rect class="cls-2" y="1079" width="1" height="1"/><rect class="cls-2" x="1919" width="1" height="1"/></g><g id="Capa_3" data-name="Capa 3"><path class="cls-4" d="M863.17,608.75l-5.78,20.49-2.82,10L847.26,665H836.82l7.31-25.72,2.81-10,5.79-20.49Z"/><path class="cls-4" d="M927.45,607.55v56.24h-10V628l-9.88,7.55-8.2,6.35-8.19-6.35L881.25,628v35.83h-10V607.55l10,7.71,18.08,13.9,18.08-13.9Z"/><path class="cls-4" d="M954.78,626.27v38.25h-10v-39.3a8,8,0,0,0-6.83-6.83h-2.25v-10h2.17v.08a18,18,0,0,1,14.95,10,21.32,21.32,0,0,1,1.36,3.78,16.93,16.93,0,0,1,.49,4.1Z"/><path class="cls-4" d="M1014.32,635.75a16.59,16.59,0,0,1-11.89,28.12H979.37a16.5,16.5,0,0,1-15.27-10.12,17.29,17.29,0,0,1-1.29-6.51,16.55,16.55,0,0,1,4.66-11.57,15.79,15.79,0,0,1-3.45-5.06,17.29,17.29,0,0,1-1.29-6.51,16.55,16.55,0,0,1,4.66-11.57A15.59,15.59,0,0,1,979,607.47h23.55a16.65,16.65,0,0,1,11.65,28.2Zm-12.3-4.9a6.56,6.56,0,0,0,.25-13.1H978.56a6.55,6.55,0,0,0,.16,13.1H1002Zm.08,23.06a6.62,6.62,0,0,0,6.59-6.59,6.54,6.54,0,0,0-6.18-6.59H979a6.52,6.52,0,0,0-6.18,6.51,6.62,6.62,0,0,0,6.59,6.59h23.06Z"/><path class="cls-4" d="M1083.1,624.58a16.55,16.55,0,0,1-4.66,11.57,16.59,16.59,0,0,1-11.89,28.12h-39.61v-10h39.61a6.62,6.62,0,0,0,6.59-6.59,6.55,6.55,0,0,0-6.19-6.59h-29.89V631H1067a6.59,6.59,0,0,0-.32-13.18H1027v-10h39.61a16.52,16.52,0,0,1,16.55,16.55Z"/><path d="M827.64,448.33v111H807.81V488.62L788.3,503.53l-16.18,12.53-16.18-12.53-19.51-14.91v70.74H716.61v-111l19.82,15.23L772.12,491l35.69-27.44Z"/><path d="M945,503.37a32.75,32.75,0,0,1-23.48,55.51H876a32.58,32.58,0,0,1-30.14-20,34.5,34.5,0,0,1-2.54-12.85V480.53a32.19,32.19,0,0,1,8.25-21.42,33.65,33.65,0,0,1,9.52-7.45A31.42,31.42,0,0,1,876,448h69v19.83H876a13.07,13.07,0,0,0-13,13v15.54a32.48,32.48,0,0,1,12.37-2.54h46.8a32.77,32.77,0,0,1,23,10Zm-23.64,35.69a13.07,13.07,0,0,0,13-13,12.92,12.92,0,0,0-12.21-13h-46.8a13,13,0,0,0,.64,26h45.36Z"/><path d="M1081.25,482a32.67,32.67,0,0,1-9.2,22.84,32.75,32.75,0,0,1-23.47,55.51h-78.2V540.48h78.2a13.06,13.06,0,0,0,13-13,12.92,12.92,0,0,0-12.21-13h-59V494.65h59a13,13,0,0,0-.64-26H970.54V448.81h78.19a32.63,32.63,0,0,1,32.68,32.67Z"/><path d="M1167.37,448.33a35.81,35.81,0,0,1,35.85,35.85v39.17a35.81,35.81,0,0,1-35.85,35.85h-34.26a35.81,35.81,0,0,1-35.85-35.85V484.18a35.81,35.81,0,0,1,35.85-35.85Zm-34.26,19.83a16.24,16.24,0,0,0-16.18,16.17v39.18a16.25,16.25,0,0,0,16.18,16.18h34.26a16.25,16.25,0,0,0,16.18-16.18V484.33a16.24,16.24,0,0,0-16.18-16.17Z"/></g></g></svg>