<svg xmlns="http://www.w3.org/2000/svg" viewBox="0 0 1920 1080"><defs><style>.cls-1{fill:#010101;}.cls-2{fill:#f2f2f2;}</style></defs><g id="Capa_2" data-name="Capa 2"><g id="Capa_1-2" data-name="Capa 1"><path class="cls-1" d="M1402.36,814.41c-1.52-3.15-3.54-.29-5.25.14-2.46.58-4.31,3-7.54,2.56l-.12-113.24,0-6.69a34.67,34.67,0,0,1-6.39-3.27v7.27l0,114.66c.23,4.51-1.06,7.47-5.45,9.08a30,30,0,0,0-5.38,3.17c-1.38.88-2.66,2.14-1.87,3.81.91,2,2.71,1.09,4,.39q12.87-6.63,25.65-13.45C1401.75,818,1403.27,816.29,1402.36,814.41ZM1643.47,275.5c-8.79-8.66-19.74-9.66-31.15-9.65q-69.58.11-139.14,0c-4.91,0-9.77.18-14.74-1.07-32.54-8-65.11-16-97.8-23.44-19.41-4.43-39.07-7.78-58.55-12-42.38-9.06-85.24-14.63-128.31-19.07-9-.92-18.36.55-27-3.46a8.22,8.22,0,0,1-4.77-4.32c-3.38-1.84-5.24-4.72-6.58-8.36-3.19-8.73-9.47-13.54-19.06-13.51-8.64,0-17.29-.19-25.93,0-9.75.24-14.11,4.16-13.89,13.88.15,6.56-3.25,6.84-7.81,6.31-4.22-.49-10.31,2.8-10.29-6.16,0-10.6-.55-10.63-11.28-10.63l-176-.11c-6.93-.09-10.87,1.95-10,9,.8,6.55-2.18,7.44-7.44,6.81a26.91,26.91,0,0,0-7.06.05c-2.69.43-2.8-.79-3.05-2.94-1.72-14.5-3.79-16.42-18-16.52,0,0-19,.19-27.41.19s-9.51,3.65-9.51,3.65c-5.56,15.57-11.35,24.1-29.85,25.31-62,4.09-123,14.63-183.54,28.32-38.19,8.63-76.26,17.93-114.39,26.9-6.18,1.46-12.51,1.13-18.78,1.13-44,0-88,.08-132-.05-13.86,0-27.21.74-36.27,12.93-4.6,6.34-5.79,16.22-5.79,16.22V494.19c-.05,11.76,3.51,20.72,13,27.42,6.05,2.07,12.3,2,18.59,2,29.84-.06,59.68-.14,89.53,0,12.86.08,18.87,5.19,20,16.15.46,4.44.16,8.48-5.65,9.32-4.28.61-5.16,3.76-5.11,7.53.05,7.06-.46,14.16.09,21.19.63,7.85-1.55,10.84-10.16,10.49-18.81-.74-37.69-.22-56.53-.25-11.72,0-11.72-.06-12.83,10.75,1.23,18.92.38,37.84-.15,56.77,1.22,26.19,1.11,52.37-.08,78.54-1.26,5.86,2.81,5.67,6.53,5.68,21.2.08,42.41.51,63.6,0,7.25-.19,9.39,1.57,8.9,8.8-.63,9.38.14,18.83,0,28.26-.23,14.19,5.64,24,18.35,31,50.37,27.69,100.47,55.9,150.62,84a49.89,49.89,0,0,0,22.61,6.62c6,.27,31.85-3.71,31.85-3.71,10.46-2,14.32-6.34,13.36-16.77-.63-6.91,3.83-7.4,7.85-8.2,5.27-1.07,4.18,4,4.21,6.42.08,6.8,3.59,7.69,9.16,6.87q67.5-9.93,135-19.74c14.6-2.15,14.58-2.28,15.28-16.67,0-.32.64-.59,1-.88,1.32-.08,1.85.88,2.15,1.84,2.2,7.2,6.5,9.07,14.22,8.13,15-1.84,30.25-2.16,45.4-3.1,28.16-2.66,56.4-2.42,84.62-3.15,19.9,0,66.4,1.31,66.4,1.31l28.24,1.59c14.88,1,29.74,2,44.62,2.89,13,.84,13,.81,20.23-10.25,3.87,5.25-3.25,14.34,6.09,17.19,20.67,2.91,41.41,5.46,62,8.81,25.66,4.17,51.66,6.13,77.13,11.86,4.17.94,9.76,2.41,14.14-1.26l1.11-3.07,1-3c-.33-5,.2-8.76,6.41-4.54,5.6.29,4.65,4.21,4.57,7.91-.21,8.81,4.09,14.38,12.74,15.82,10.77,1.81,21.64,3.1,32.47,4.6,5.64.78,10.65-.68,15.63-3.48,19.51-11,39.16-21.66,58.74-32.44q47.6-26.87,95.21-53.73c8.43-4.75,16.83-9.49,20.7-19.13,1.38-9.11,1.3-18.28,1.32-27.45q.12-78.21.2-156.38c0-2.62.26-5.21.38-7.82-.28-13.85-.61-27.69-.78-41.53,0-4.27-.57-7.73-5.84-8.36s-5.76-4.71-5.4-8.8c1-11.08,7.24-16.54,19.7-16.62,29.31-.15,58.61-.11,87.92-.06,6.79,0,13.57,0,20.18-1.93,9.82-6.5,13.36-15.53,13.34-27.36V292.86C1651.9,283.17,1643.47,275.5,1643.47,275.5Zm-250.42-14c19.79,4.79,39.48,9.95,59.27,14.76a75.85,75.85,0,0,0,17.87,2.06q73.51-.14,147,0c11.87,0,16.92,3.17,20.42,12.64h-6.2c-46.11,0-92.22-.54-138.31.18a231.15,231.15,0,0,1-66.49-8.57c-43.31-12-87.07-22.42-131.45-29.78-42.57-7.08-85.37-12.55-128.3-17-11.58-1.21-21.14-5.06-26.21-15.84C1226.21,225.41,1310,241.49,1393.05,261.54Zm-310.44-50c.13-1.82.11-3.66.11-5.49,0-22.24-.91-18.7,18.9-19.08,4.18-.08,8.38,0,12.57.08,10.74.24,14.44,3.6,15.9,14.14.72,5.16,1.38,10.35,2.6,15.42,2.84,11.92,10.25,19.58,22,23.2,2.34.73,8.5-.09,4,6-1,1.27,1.21,2.69,2.81,2.87q15.56,1.8,31.12,3.4c1.65.16,2.89-.39,3-2.61.08-1.26-3-4,.85-3.81,4.58.24,13.11,1.83,13.11,2.19-1.31,13.94,9.77,5.87,14.55,8,4.58,2,10.29,1.21,15.4,2.23,5.69,1.12,7.64-.06,3.9-6.21,4.81.52,8.45.79,12,1.34,2.39.36,7.27-1.34,3.62,4.56-1.48,2.39,1.71,3.18,3.73,3.6,8.92,1.92,17.91,3.35,26.83,5.29,7.3,1.57,3.81-4,2.72-7.68,6,.87,11.39,1.59,16.76,2.47,2.18.35,3.77,1.46,1.35,3.45-4.56,3.69-.68,4.87,1.84,5.36,9,1.73,18,3,27,4.39,1,.14,2.79-.13,2.9-.54,2.47-9.47,8.33-2.14,12.57-2.53.91-.09,2.67.65,2.72,1.1.93,13.11,12.5,5.71,18.26,9.49,2.66,1.73,7.39-.08,7.39,5.93,0,5.61-1.24,7.19-7,6-22.52-4.64-45.12-8.84-67.66-13.29-67.8-13.39-136-23.19-205.17-26.43-9.61-.45-19.39-.16-28.88-2.52-4.31-1.07-8.3-2.64-11.06-7.67,8.86-1.59,17.09.16,25.22-.35,1.81-.12,4.64,1.28,5.14-1.84.57-3.4-2.54-3.81-4.65-3.92-8.1-.42-16.22-.4-24.32-.67-2.38-.08-5.73,1.08-6-3-.27-4.63,3.46-2.77,5.61-3.12C1074.84,229.48,1081.94,221.85,1082.61,211.5Zm-14.66.84c2.33,1.15,6.53-2.32,7.54,2.48.83,4-7.77,10.26-13.2,10.24s-3.32-4.26-3.73-6.81C1057.16,209.52,1063.93,213.22,1068,212.34Zm-223.23,2.07c1.4-4.78,5.86-.63,7.58-1.66,6.21-1,10.62-.93,9.88,6.4-.33,3.27.14,6.29-4.8,5.91C851.56,224.62,843.5,218.55,844.72,214.41Zm-55.57-6.78c.41-3.11.6-6.26,1.22-9.34,1.4-7,5.5-11.22,12.86-11.34,8.91-.16,17.83.22,26.73,0,5.21-.14,7.1,2.57,7.24,7.1.15,5.22-.16,10.47.09,15.7.65,13.05,6.66,19.61,19.41,21.41,2,.26,4.47-.46,4.61,2.75.16,3.55-2.39,3.43-4.81,3.46-7.6.09-15.2.06-22.78.35-3.19.12-8.13-.57-7.72,4.21.31,3.75,4.75,1.72,7.26,1.78,5.76.14,11.52-.33,17.29-.43,1.91,0,4.69-1.32,5.26,1.59.48,2.44-2.19,3.28-3.92,4.27-5.63,3.22-11.92,3.68-18.2,4-38.7,2.11-77.35,4.85-115.81,9.74-46.68,5.93-92.8,15.18-139,24-12.06,2.31-24.06,4.89-36.14,7.11-1.81.33-5.23,2.71-5.53-1.37-.22-3.14-2.5-7.75,3-9.17,4.55-1.19,9.25-1.78,13.77-3.08,3.61-1,9.78,1.43,8.38-7.22-.46-2.8,7.22-2.33,11-3.86,3.64-1.46,3.29,1.47,3.35,3.94s2.14,1.82,3.56,1.6c8.53-1.29,17-2.71,25.56-4.06,2.36-.36,5.29-.71,6.14-2.85,1.24-3.09-3.81-2.07-4.16-5.36a37,37,0,0,1,4.08-1.24c5.08-.9,10.18-1.72,15-2.54,1.85,3.2-3.84,4.55-.87,7.27,2.17,2,4.5.13,6.7-.23,7.22-1.17,14.47-2.25,21.6-3.83,2.94-.64,8.31.15,5.68-6.19-.93-2.22,1.18-2.36,2.74-2.57,3.1-.42,6.19-.86,9.29-1.26,1.28-.15,3.32-.37,3.23,1.12-.6,8.24,5,4.42,8.27,4.2,7.57-.52,15.09-1.56,22.64-2.26,2.15-.21,4.17-.13,4.8-2.88.39-1.75-5-5.71.75-4.83,4.34.66,10.89-7.57,13.42,2.59.65,2.61,3.49,1.92,5.46,1.73,8.59-.78,17.16-1.73,25.75-2.67,1.73-.19,3.52-.17,4.5-2.36,1.62-3.57-3.19-2.53-3.3-4.8C777.83,237.68,786.53,228.24,789.15,207.63ZM287.94,282.17c4.38-3.31,9.56-3.84,14.91-3.84,47.14,0,94.27-.41,141.42.17,21.16.25,40.57-6.94,60.53-11.7,59.21-14.1,118.47-28,178.77-36.58,28.71-4.09,57.65-6.57,86.49-9.84,3-.35,6.05-1,10.07-1.69-4.38,9.27-10.83,14.47-20,15.7q-36.15,4.85-72.38,9.16c-64.74,7.63-128.36,21-191.16,38.21-22.6,6.18-45.11,9.91-68.74,9.45-45.81-.89-91.65-.2-137.49-.31-2.58,0-6.59,1.81-7.6-1.56S285.5,284,287.94,282.17Zm101,229q-46.38.17-92.74.05c-12.38,0-15.34-2.87-15.35-15.31-.08-64.18,0-128.35-.21-192.51,0-5.65,2.14-6.23,6.85-6.23,51.86.14,103.73,0,155.61.12,10.74,0,21.44.18,31.81-3.4,1.49-.51,4.93-2.51,4.59,1.09-1,9.66,4.29,4.5,7.22,3.1,6.13-3,12.28-5.82,18.91-7.46,3.74-.93,6.37-3.17,9-5.83s6.31-4.5,9.94-2.71c3.15,1.54,6.39,3.68,6.42,8.18,0,4-.14,6.83-5.51,7.35-6.45.63-12.82,2.39-19.11,4.12-26.05,7.16-44.39,28.77-44.9,55.83-.82,43.71-.25,87.46-.25,131.21,0,11.62,4.33,21.87,10.35,31.54,13.34,17.19,31.13,24.76,52.59,24,4.78-.17,7,.66,6.83,6.26-.46,11.75-.19,23.53,0,35.3.05,3.29-.55,4.7-4.34,4.11-25.74-4-51.68-1.45-77.52-1.75-5.73-.06-7.38-1-6.69-7.14.95-8.53.38-17.23.35-25.86,0-2.16.86-5.29-2.86-5.19-3,.07-2.65,2.94-2.66,4.81-.08,9.41-.55,18.86.33,28.17.48,4.94-1.15,5.15-4.85,5a158.75,158.75,0,0,0-16.47,0c-5.08.35-6.37-1.86-6.05-6.45a102.89,102.89,0,0,0,0-12.54c-.24-4.89.77-8.33,5.17-11.92,8.75-7.11,6.58-17.37,5-27C414.11,516.79,403.37,511.08,389,511.13ZM537,604.9c-.1-3.79.71-5.49,4.87-3.55,22.61,10.52,40.13,30,39,60.5,1,28.44-17.66,56.63-43.83,65.39V694.08l0-61.27V604.9ZM531.06,606l0,17.1v6.68L531,697.15v6.68l0,15.58c0,12.35,0,12.41-12.16,13.21-23.51,1.57-47.1.69-70.64,1.34-4.17.11-5.49-1.34-5.35-5.4.25-7.33.14-14.66,0-22-.05-2.09,1.16-5.43-2.39-5.61-4.16-.24-3.06,3.6-3.15,5.82-.33,7.31-.52,14.64-.22,22,.19,5.08-2.45,5.12-6.32,5.27-4.3.15-5.35-1.42-5.29-5.42.3-16.47.33-33,.46-49.42-.1-26.68-.16-53.36-.33-80,0-3.15.61-4.89,4.24-4.8,30.84.82,61.72-1.48,92.53,1.39C529.42,596.38,531.84,599.11,531.06,606Zm-130.73,127c-23.06.78-46.12,1.11-69.18.28-3.71,1.23-6.14.68-5.73-4,.3-3.58.46-7.19.68-10.77-.79-19.89-.79-39.77.2-59.65-.23-20.14-.44-40.29-.74-60.43,0-3.19,1.47-4,4.35-4q31.83.2,63.63.13c3.11,0,4.15,1.18,4.17,4.14,0,6.29.11,12.57.52,18.84.26,4.22-2,10.13,6,10,7.55-.1,5.32-5.66,5.52-9.63.3-6,.25-12,.11-18.06-.09-3.87,1.1-5.69,5.36-5.69,4.63,0,4.13,2.91,4.13,5.79,0,42.93-.13,85.87,0,128.8,0,3.86-1.13,5.11-4.9,4.78C409.72,733.11,405,733.13,400.33,732.94Zm229.82,127.7a14.32,14.32,0,0,0-8.34,8.76c.72,12.9.41,11.71-11.58,14.77-17.81,4.57-32.48.26-48-8.87-44-25.77-88.41-50.81-133.49-74.58-15.66-8.26-21.24-18.64-18.39-35.05-.11-6.54,0-13.09-.41-19.6-.35-4.92,1.38-6.13,6.21-6.1,24.62.17,49.24,0,73.87-.14,12.29-.1,24.62.37,36.78-2.06,3-.62,4.27.29,4.27,3.5q-.1,36.15,0,72.3c0,3.2-.84,4.55-4.12,2.71-2.71-1.53-5.38-3.3-8.75-2.93-1.39,2-1.39,3.92.85,5.24,8.65,5.13,17.19,10.49,26.54,14.32,1.6.64,3.6.91,4.73-1.21a6.38,6.38,0,0,0-4.58-4.93c-8.22-2.41-9-8.38-8.87-15.81.49-21.39.4-42.8.52-64.21.08-6.11-3.43-14,7.49-14.55,23.71-12.92,38-32.58,42.41-59.28.16-2.62.3-5.25.46-7.86,0-1.59.09-3.2.14-4.78-.73-24.94-11.08-44.7-31.7-58.93-2.11-1-4.11-2.47-6.31-2.88-12.74-2.36-14.06-10.92-13.07-21.77.83-9.06.33-18.25.25-27.38,0-3.05.52-4.7,4.12-5,42.63-4.06,61.92,25.86,64.29,52.87l33.43,225.12c.65,3.57-.93,4.49-4,5.07-6.64,1.29-13.23,2.88-19.8,4.48-2.35.57-4.85,1.68-3.92,4.74.83,2.75,3.54,1.77,5.36,1.41,6.39-1.26,12.73-2.77,19.05-4.29,3.54-.85,5.59,0,5.38,4a21.54,21.54,0,0,0,.37,3.9C643.17,855.29,643.2,855.34,630.15,860.64Zm476.28-27.75c-5.82,10.56-13.43,10.84-23.22,9.34-9-1.36-18.15-1.85-27.23-2.73q-46.27-1.32-92.53-2.71l-7.14.17c-31.79-.58-63.49,2.24-95.27,2.66-11.95,1.18-23.92,2.28-35.88,3.57-3.08.33-4.86-.83-6.34-3.38a59.72,59.72,0,0,0-5.24-7.8c-6.41-7.9-6.41-9,.95-16.11,4.43-4.32,9.74-7.22,15.92-7.69,9.11-.71,18.26-.88,27.4-1.29,32-1.07,64.09-2.5,96.16-2.2l52.81.53c15.34.21,30.66,1,46,1.51,12.26.44,24.53.68,36.77,1.4,5.85.35,11,3,15.27,7.14C1113.09,823.11,1111.76,823.23,1106.43,832.89ZM1268,872.31c.16,4.38-2.47,5-6.25,4.42-45.62-7.39-91.36-14-137.19-20-2.25-.3-4.62-.64-4.12-3.4,1-5.53-3.68-12.46,4.82-16.37a4.74,4.74,0,0,0-.55-8.73c-4.19-1.91-6.41-5.12-8.39-8.85a34.69,34.69,0,0,0-14.82-14.37s-18-6.58-136.5-6.58-145.18,6.28-145.18,6.28c-13.74,4.73-15.14,18.91-26,24.7-2.73,1.47-1.43,6.07,1.84,8.49s5.63,14.49,3.7,17.43c-.82,1.26-2.16,1.23-3.46,1.38q-21.74,2.6-43.47,5.26c-31.74,4.89-63.49,9.72-95.22,14.72-4.49.71-4.73-2.18-5.06-5L609.65,582.2c-6.33-25.43-27.09-42.61-53.22-44.11-3.13-.17-6.26-.17-9.39-.19l-29.37-.18c-10.57-.63-20.4-3.36-28.52-10.61-12.46-8.33-20.51-20-21-34.84q-2.28-68.62-.08-137.28c.76-24.5,21-43.91,49-49.65l137.74-26.26a1120.87,1120.87,0,0,1,134.56-16.56c16.72-1,33.44-2,50.15-3.23,14.72-1.08,24.32-8.59,27.55-22.46l.75-41.21c.32-4.61,2.42-5.4,6.5-5.37q39.31.24,78.6,0l14.46.08c25.94.11,51.88,0,77.82,0,3,0,7-1.65,7.44,4.06L1053,237c4.5,15.33,13.67,21.78,29.94,22.51,69.79,3,139.06,10.68,207.63,24.33l102.14,19.71c21.31,3.24,40.69,9.63,52.3,30,4.24,7.44,7.33,15.12,7.35,23.66.09,44,.44,88-.19,132-.23,16.21-7.64,29.68-21.83,38.66-11,9.17-24.13,10.24-37.63,10.07l-23.11-.06c-33.18.26-56.13,20.23-60.69,52.73Zm371.17-377.1c0,12.59-3.3,15.89-15.76,15.92-30.65.08-61.28.19-91.9,0-12.4-.07-22.5,3.93-29.55,14.48-2.78,7.65-5.23,15.34-2.47,23.54.59,1.71,1.14,4,2.44,4.78,10.61,6.83,7.95,17.41,8,27.2,0,6-.22,12-.35,17.93.13,18,.35,36,.35,54,0,40.47-.35,81,0,121.44.09,11.37-3.6,19.16-14.6,22.89-26.74,15.13-53.47,30.33-80.27,45.38-17.94,10-36,19.9-54,29.83-7.26,4.25-14.54,8.43-21.74,12.76-3.4,2-6.94,1.82-10.61,1.3-7.22-1.05-14.45-2.75-21.69-2.83-7.57-.09-10.55-2.72-9-10.19a31.4,31.4,0,0,0,.33-3.89c-2.07-7.44-8.14-10.1-14.7-11-6.11-.88-6.77-3.76-6.19-9.06,1.81-16.82,1.62-16.84,18.27-13.33,2.8.58,5.58,1.26,8.41,1.62,1.66.21,3.95,1,4.68-1.41.78-2.63-1.25-4-3.29-4.47-6.31-1.6-12.63-3.18-19-4.29-4.45-.79-6.15-2.13-5-7.18l33.49-225c1.7-33,26.48-55,64.3-51.46,3.33.3,3.71,1.94,3.68,4.6v76.94l0,7.26v68.17l0,114.66c.23,4.51-1.06,7.47-5.45,9.08a30,30,0,0,0-5.38,3.17c-1.38.88-2.66,2.14-1.87,3.81.91,2,2.71,1.09,4,.39q12.87-6.63,25.65-13.45c1.68-.89,3.2-2.55,2.29-4.43-1.52-3.15-3.54-.29-5.25.14-2.46.58-4.31,3-7.54,2.56l-.12-113.24,0-6.69-.06-67.44,0-6.67-.08-72.85c-.09-4.59,1.59-6,5.82-5.88a72.18,72.18,0,0,0,26.15-3.81c13.42-4.67,22.86-14.12,30.55-25.62,5.57-10.42,7.22-21.62,7.19-33.31-.13-39,0-78,0-117,0-35.63-19.76-58.7-55.86-65.6a38.65,38.65,0,0,1-6.15-1.18c-2.79-1-7.43,1-7.73-4.52-.23-4.1.27-7.72,4.09-10.3s8.29-2.15,10.86.72c8.7,9.82,22.18,9.29,32.46,15.81,6.22,3.94,3.5-3.69,5.18-6.46,20.26,6.83,41.29,3.84,62.06,4,42.68.37,85.35.23,128,0,5.81,0,7.48,1.34,7.44,7.31C1639.13,368,1639.22,431.61,1639.16,495.21Z"/><path class="cls-2" d="M1452.37,357.17c0-8.54-3.11-16.22-7.35-23.66-11.61-20.37-31-26.76-52.3-30L1290.58,283.8C1222,270.15,1152.74,262.52,1083,259.47c-16.27-.73-25.44-7.18-29.94-22.51l-.35-42.52c-.45-5.71-4.4-4.05-7.44-4.06-25.94,0-51.88.08-77.82,0l-14.46-.08q-39.3.21-78.6,0c-4.08,0-6.18.76-6.5,5.37l-.75,41.21c-3.23,13.87-12.83,21.38-27.55,22.46-16.71,1.23-33.43,2.22-50.15,3.23a1120.87,1120.87,0,0,0-134.56,16.56L517.09,305.34c-28,5.74-48.28,25.15-49,49.65q-2.1,68.61.08,137.28c.51,14.8,8.56,26.51,21,34.84,8.12,7.25,18,10,28.52,10.61l29.37.18c3.13,0,6.26,0,9.39.19,26.13,1.5,46.89,18.68,53.22,44.11l42.52,289.5c.33,2.85.57,5.74,5.06,5,31.73-5,63.48-9.83,95.22-14.72q21.74-2.64,43.47-5.26c1.3-.15,2.64-.12,3.46-1.38,1.93-2.94-.57-15.12-3.7-17.43s-4.57-7-1.84-8.49c10.83-5.79,12.23-20,26-24.7,0,0,26.72-6.28,145.18-6.28s136.5,6.58,136.5,6.58a34.69,34.69,0,0,1,14.82,14.37c2,3.73,4.2,6.94,8.39,8.85a4.74,4.74,0,0,1,.55,8.73c-8.5,3.91-3.81,10.84-4.82,16.37-.5,2.76,1.87,3.1,4.12,3.4,45.83,6,91.57,12.57,137.19,20,3.78.62,6.41,0,6.25-4.42l40.93-281.72c4.56-32.5,27.51-52.47,60.69-52.73l23.11.06c13.5.17,26.63-.9,37.63-10.07,14.19-9,21.6-22.45,21.83-38.66C1452.81,445.19,1452.46,401.19,1452.37,357.17Zm-493.21,7.36a57.3,57.3,0,1,1,57.31-57.29A57.35,57.35,0,0,1,959.16,364.53Z"/><path class="cls-1" d="M436.67,372.43c.68-6.59,1.29-13.09,2.08-19.56.22-1.82.87-3.75,3.29-3.67,2.68.1,2.54,2.23,2.45,4-.52,9.9-1.14,19.81-1.68,29.71-.08,1.42-.34,2.76-1.93,2.87a2.92,2.92,0,0,1-3.4-2.53C437.08,379.66,436.92,376,436.67,372.43Z"/><path class="cls-1" d="M448.46,336.37c-3.06-.33-2.58-2.37-1.91-4a77.76,77.76,0,0,1,15.73-24.19c1.52-1.61,3.68-2.38,5.7-1.15s.65,3.09-.15,4.09a278.18,278.18,0,0,0-17.58,24C449.88,335.68,449,336,448.46,336.37Z"/><path class="cls-1" d="M442.75,468.33v14.9c0,1.64-.22,3.51-2.09,3.68a3.14,3.14,0,0,1-3.47-3.42c0-10.19.06-20.38.24-30.57,0-1.59.93-3.15,2.91-3s2.34,1.87,2.36,3.47c.06,5,0,9.94,0,14.91Z"/><path class="cls-1" d="M443.14,522.54c-.12,3.34-.21,6.68-.36,10-.08,1.74.25,3.88-2.47,3.88-2.32,0-3-1.75-3.21-3.63-.3-2.55-.4-5.12-.59-7.69.2-6.52.33-13.06.64-19.58.1-2.15-.69-5.34,2.72-5.48s2.86,3,2.93,5.23C443,511,443,516.79,443.14,522.54Z"/><path class="cls-1" d="M442.7,417.05c0,4.94.07,9.88,0,14.82,0,1.79-.17,3.87-2.82,3.75-2.06-.09-2.57-2.05-2.58-3.35-.06-10.13.06-20.26.26-30.39,0-1.5.6-3.24,2.75-3,1.86.23,2.51,1.55,2.51,3.31q0,7.42,0,14.83Z"/><path class="cls-1" d="M1454,306.1c1.57.92,3.12,1.46,4.18,2.5a77.18,77.18,0,0,1,16,22c.88,1.86,2,4.08-.49,5.47s-4-.5-5-2.34c-4.47-7.7-10.17-14.46-15.88-21.22-1.12-1.33-2.36-3.05-1.39-4.95C1451.77,306.83,1453.06,306.59,1454,306.1Z"/><path class="cls-1" d="M1483.79,373.84c-2.09,3.86,2.41,11-3.86,11.13-5.67.07-2.07-6.62-2.61-10.17-1-6.89-1.24-13.93-1.66-20.91-.12-2-.49-4.49,2.63-4.6,2.64-.1,2.61,2.28,2.85,3.9C1482.15,360.1,1482.94,367.05,1483.79,373.84Z"/><path class="cls-1" d="M1476.86,526.34,1477,521c.12-5,.12-9.91.4-14.85.13-2.31-1.21-6.14,2.8-6,3.62.14,2.71,3.95,2.79,6.28.29,8.86.29,17.74.4,26.61-1.25,1.38-1.51,4.64-4.24,3.37-3.66-1.71-.87-5.71-2.24-8.37Z"/><path class="cls-1" d="M1477.34,468.73c0-4.68,0-9.37,0-14.06,0-2-.15-4.56,2.77-4.64,2.49-.06,2.68,2.34,2.71,4,.19,9.63.23,19.26.2,28.89,0,2.16-.71,4.45-3.47,4.16-2.37-.24-2.29-2.49-2.3-4.3,0-4.69,0-9.38,0-14.07Z"/><path class="cls-1" d="M1477.37,416.77c0-4.69,0-9.38,0-14.07,0-1.87.28-3.85,2.82-3.75,1.94.08,2.51,1.67,2.6,3.31.55,10.14.89,20.29-.17,30.42-.17,1.59-.83,3.09-2.86,3s-2.4-1.71-2.42-3.29c-.06-5.21,0-10.42,0-15.63Z"/><path class="cls-1" d="M1478.5,755.06c-3.53,10.56-8.55,19.85-16.41,27.41a2.72,2.72,0,0,1-4.17-.09,2.84,2.84,0,0,1-.11-3.59c5.1-8.46,10.14-16.95,15.31-25.37.73-1.18,1.69-3.25,3.43-2.23C1477.62,751.82,1477.91,753.79,1478.5,755.06Z"/><path class="cls-1" d="M1447.32,793.89c-8.25,6.87-18.29,10.57-27.61,15.53-1.61.86-3.83,1.25-4.91-.59-1-1.66-.2-3.65,1.37-4.86,2-1.57,4.25-2.92,6.39-4.37,6.23-3,12.48-6,18.69-9C1444.91,788.78,1447.28,789.15,1447.32,793.89Z"/><path class="cls-1" d="M1477.34,719.42c0-4.67,0-9.35,0-14,0-2-.24-4.54,2.79-4.56,2.46,0,2.73,2.19,2.76,4,.18,9.87.23,19.74.33,29.61,0,2.15-.92,3.55-3.16,3.53s-2.89-1.67-2.87-3.72c0-4.93,0-9.87,0-14.81Z"/><path class="cls-1" d="M1477.51,600.94c2-.43,3.85-.36,5.21,1.45.13,9.9.33,19.8.34,29.7,0,2.46.39,6-3.38,5.8-3.26-.18-2.46-3.51-2.46-5.67C1477.23,621.79,1477.4,611.36,1477.51,600.94Z"/><path class="cls-1" d="M1477.35,669.08c0-5,0-9.94,0-14.91,0-1.65.53-3.19,2.53-3.29s2.69,1.39,2.8,3a203.76,203.76,0,0,1,0,30.56,2.74,2.74,0,0,1-3.11,2.74c-2.23,0-2.35-1.61-2.36-3.23,0-5,0-10,0-14.92Z"/><path class="cls-1" d="M1337.43,838.49c4.43-.08,10.43.31,16.25-1.79,1.51-.55,3.8-1.31,4.49,1.36.58,2.23-1,3.53-2.77,4.09a52.88,52.88,0,0,1-30.74.72c-1.59-.45-3.05-1.37-2.71-3.23.37-2,2.29-1.77,3.78-1.73C1329.12,838,1332.5,838.24,1337.43,838.49Z"/><path class="cls-1" d="M570.15,844.5c-3.16-1.68-7.81-1.46-8.28-6.54,2.59-3.25,5.27-.29,7.84,0,7.57.89,15.1.27,22.66,0,1.81-.07,4.75-1.6,5.32,1.22.65,3.23-2.22,4.37-4.92,4.81C585.26,845.2,577.7,844.55,570.15,844.5Z"/><path class="cls-1" d="M1477.42,568.08c0-5-.05-10,0-14.92,0-1.66.68-3.22,2.58-3.29s2.69,1.57,2.7,3.19c.06,10,.08,19.89-.06,29.83,0,1.69-.32,4-3,3.66-2.43-.33-2.33-2.55-2.37-4.33-.1-4.71,0-9.42,0-14.14Z"/><path class="cls-1" d="M802,238.87c2.56,1.31,8.32-2.46,8.52,2.53.17,4.56-5.67,3.63-9.25,4-6.72.62-13.44,1.18-20.17,1.49-2,.09-5.25,1.53-5.36-2.3-.08-2.86,2.21-3.66,4.85-3.85C787.52,240.19,794.49,239.52,802,238.87Z"/><path class="cls-1" d="M1118.87,238.9c7,.64,14,1.21,21,2,2,.22,4.3.53,4.26,3.5-.06,3.45-2.73,2.62-4.53,2.51-8.06-.48-16.14-1-24.15-1.94-2.36-.29-6.85.51-6.32-3.78.42-3.46,4.15-2.05,6.59-2.23C1116.77,238.84,1117.82,238.9,1118.87,238.9Z"/><path class="cls-1" d="M400.86,678.92c-5.77-5.93-1.2-13.62-3.41-20.15.2-6.25.53-12.49.57-18.74,0-3.83,1.84-4.92,5.37-4.75,3.34.17,6.37.17,6.36,4.77,0,11.23.08,22.45.09,33.68C409.84,680.56,404.83,678.88,400.86,678.92Z"/><path class="cls-1" d="M400.4,728.21c-2.64-2-2.36-5-2.38-7.78-.1-11.09-.06-22.18-.07-33.27,9.29-4.15,11.8-2.72,11.89,6.94.09,8.32-.54,16.68.17,24.94C410.68,726.85,407.71,729.44,400.4,728.21Z"/><path class="cls-1" d="M505.6,809.3c-2.91,1.46-5.52.44-8.12-.93-6.86-3.61-13.76-7.17-20.61-10.8-2.68-1.43-4.57-3.42-4-6.81,1.29-.78,2.46-1.88,4.2-1,8.47,4.33,17,8.61,25.45,13C505.11,804.1,505.77,806.54,505.6,809.3Z"/><path class="cls-1" d="M461.48,783.71l-1.88.13c-9.23-7.27-13-18-17.62-28.13-.67-1.48-1-3.09.84-4a2.67,2.67,0,0,1,3.55.74c5.25,9.82,12.71,18.44,16.12,29.26C462.65,782.21,461.84,783,461.48,783.71Z"/><path class="cls-1" d="M436.57,668.17c.24-4.6.4-9.21.8-13.79.12-1.39.17-3.25,2.22-3.52,2.3-.3,3.15,1.17,3.49,3.14-.07,9.58-.1,19.17-.26,28.75,0,1.85.8,4.53-2.56,4.52-2.89,0-3.16-2.26-3.25-4.38C436.8,678,436.71,673.08,436.57,668.17Z"/><path class="cls-1" d="M442.78,619.75c0,5,0,9.92,0,14.88,0,1.53,0,3.36-2.14,3.54-1.92.16-2.84-1.18-3-2.88a174.73,174.73,0,0,1,0-32,2.36,2.36,0,0,1,2.51-2.44c1.94.14,2.58,1.56,2.6,3.25,0,5.22,0,10.44,0,15.67Z"/><path class="cls-1" d="M959.16,249.93a57.3,57.3,0,1,0,57.31,57.31A57.37,57.37,0,0,0,959.16,249.93Zm0,106.74a49.44,49.44,0,1,1,49.44-49.43A49.49,49.49,0,0,1,959.16,356.67Z"/><path class="cls-1" d="M1402.58,706a42.5,42.5,0,1,1,42.5-42.5A42.55,42.55,0,0,1,1402.58,706Zm0-78.71a36.21,36.21,0,1,0,36.21,36.21A36.25,36.25,0,0,0,1402.58,627.24Z"/><path class="cls-1" d="M517.75,706a42.5,42.5,0,1,1,42.5-42.5A42.55,42.55,0,0,1,517.75,706Zm0-78.71A36.21,36.21,0,1,0,554,663.45,36.25,36.25,0,0,0,517.75,627.24Z"/><rect class="cls-2" x="1919" y="1079" width="1" height="1"/><rect class="cls-2" width="1" height="1"/><rect class="cls-2" y="1079" width="1" height="1"/><rect class="cls-2" x="1919" width="1" height="1"/></g><g id="Capa_3" data-name="Capa 3"><path d="M861.82,489.79v111H842V530.08L822.48,545,806.3,557.52,790.12,545l-19.51-14.91v70.74H750.79v-111L770.61,505l35.69,27.44L842,505Z"/><path d="M979.19,544.83a32.75,32.75,0,0,1-23.48,55.51H910.19a32.58,32.58,0,0,1-30.14-20,34.5,34.5,0,0,1-2.54-12.85V522a32.17,32.17,0,0,1,8.25-21.42,33.65,33.65,0,0,1,9.52-7.45,31.42,31.42,0,0,1,14.91-3.65h69V509.3h-69a13.07,13.07,0,0,0-13,13v15.55a32.48,32.48,0,0,1,12.37-2.54h46.8a32.81,32.81,0,0,1,23,10Zm-23.64,35.69a13.07,13.07,0,0,0,13-13,12.92,12.92,0,0,0-12.21-13h-46.8a13,13,0,0,0,.64,26h45.36Z"/><path d="M1115.43,523.41a32.67,32.67,0,0,1-9.2,22.85,32.75,32.75,0,0,1-23.47,55.51h-78.2V581.94h78.2a13.06,13.06,0,0,0,13-13,12.92,12.92,0,0,0-12.21-13h-59V536.1h59a13,13,0,0,0-.64-26h-78.19V490.26h78.19a32.63,32.63,0,0,1,32.68,32.68Z"/><path d="M1169.51,526.75v75.5h-19.83V524.68a15.8,15.8,0,0,0-13.48-13.48h-4.44V491.53H1136v.16a35.64,35.64,0,0,1,13.49,3.65,35.27,35.27,0,0,1,16,16.18,41.72,41.72,0,0,1,2.69,7.45,33,33,0,0,1,1,8.09Z"/></g></g></svg>