<svg xmlns="http://www.w3.org/2000/svg" viewBox="0 0 1920 1080"><defs><style>.cls-1{fill:#f2f2f2;}</style></defs><g id="Capa_2" data-name="Capa 2"><g id="Capa_1-2" data-name="Capa 1"><rect class="cls-1" width="1" height="1"/><rect class="cls-1" x="1919" y="1079" width="1" height="1"/><rect class="cls-1" y="1079" width="1" height="1"/><rect class="cls-1" x="1919" width="1" height="1"/></g><g id="Capa_3" data-name="Capa 3"><path d="M1636.59,575c.24-16.8-5.5-24-22.4-24.07-23.87,0-47.75-.14-71.62,0-6.5.05-12.08-1.5-17-5.82-12.7-11-24.33-23.11-35.79-35.38-4.73-5-6.45-10.8-6.21-17.72.39-11.47.38-23,0-34.46-.68-23.89-2.54-47.71-10.75-70.36-14.79-40.75-39.41-74-76.58-97.21-18.34-11.46-37.85-20.46-59-25.19-39.27-8.79-78.7-16.84-118-25.38a532.54,532.54,0,0,0-70.31-10c-9.8-.79-19.54-2.15-29.32-3.25l-70.7-7.92c-12.87-2-22.92.17-31.6,10.36-5.12,6-17.73,5-18.45-.76-.89-7.26-5.47-7.61-10.6-7.64-19.74-.13-39.49-.08-59.23-.11-3.74,0-6.78.71-8.58,4.69-4.48,9.85-11.67,10.92-19.1,2.87-5.87-6.34-12.76-11-21.54-10.13-14.91,1.39-29.71,3.81-44.58,5.47-15.2,1.71-30.44,3-45.66,4.51-22.69,2.25-45.49,3.64-67.94,7.84-37,6.92-73.41,16.26-110.42,23-47.21,8.58-90.26,25.05-123.74,62.07-30.9,34.15-48.12,73.42-50.58,119.12-.86,16.12-.19,32.32.08,48.49.17,10.34-3.08,18.95-10.67,26.09-9,8.48-18.2,16.82-26.54,25.92-7.38,8.06-15.88,11.2-26.64,11-23.27-.39-46.56-.16-69.84-.09-14.08,0-20.48,6.56-20.47,20.5,0,0-2.41,101.12,5.56,110.8,3.91,3.44,6.06,5,7.76,6.89,6.55,7.33,15.21,10.33,24.45,10.39,33.58.21,67.18-.07,100.76-.33,7.25,0,11.81,3.15,13.51,10a51.67,51.67,0,0,1,1.78,12.2c0,22.38-.5,44.76-.41,67.15,0,5-1.27,10.23,3.47,14.76,17.22,16.5,34.1,33.37,50.95,50.25,4.36,4.36,9.12,7.32,15.38,7.68,35.62,2.06,71.28,1.28,106.93.82,8-.11,14.9-3.42,18.11-11.72.75-1.93,1.63-4.08,3.84-4.56,8.44-1.8,17-.53,25.53-.85,4.61-.16,5.51,3.63,7.59,6.32,1.8,2.32,4.56,2.46,7.26,2.46q30.93,0,61.88-.1c3.23,0,7.05.13,8.42-3.49,2.09-5.46,6.39-5.54,10.87-5.23,12.43.88,24.78-.71,36.91-2.59,19.9-3.08,38.57-11.21,56.39-19.93,27.83-13.62,57.51-18.94,87.46-22.39,24.12-2.79,48.51-.1,72.62,4.06,26.33,4.54,51,14,75.18,24.64,24.65,10.86,50,16.93,76.9,16.27,5.22-.13,10,0,12.15,6.21,1,2.81,3.77,3.12,6.68,3.07,18.85-.28,37.7-.39,56.56-.56,6.63-.06,13.79,1.63,17.5-6.64,1-2.29,4.09-2,6.45-2,5.89,0,11.78.11,17.67,0,4.65-.08,7.83,1.65,9.61,6.14,3.27,8.23,10,11.24,18.29,11.25,35.66.06,71.31,0,107,.06a16.44,16.44,0,0,0,12.52-5.35c14-14.28,27.84-28.68,42.31-42.43,10.73-10.22,15.75-21.85,15.23-36.85-.75-21.19-.21-42.43,0-63.64.06-9,5.81-15.53,13.51-15.15,29.45,1.46,58.92,0,88.37.74,15.5.4,29.89-1.24,40.95-13.85,8.66-10.22,10.93-30.56,10.93-30.56C1637.51,628.57,1636.22,601.77,1636.59,575ZM1013,243.62c6.15-.41,10.32-3.76,13.71-8.53,3.74-5.27,8.9-8.08,15.26-6.76,13.5,2.81,27.25,3.25,40.87,4.84,24.24,2.81,48.52,5.26,72.81,7.64,31.57,3.11,62.62,9,93.5,16.15,26.6,6.18,53.45,11.29,80.15,17.06a183.23,183.23,0,0,1,79.42,38.66c1.06.88,2.65,1.56,2,4-9.3-.4-18.14-3.63-27-5.9C1333.77,298.07,1284,285,1234,272.74c-17.44-4.28-34.63-9.52-52.63-10.6-29.89-1.78-59.62-5.44-89.53-7.18-12.1-.69-24.49-2.13-36.63-3.14-12.73-1.06-25.53-2.95-38.39-3-5.29,0-10.5-.18-16.54-3.31C1005.35,242.77,1009.25,243.87,1013,243.62ZM552.78,286.15c23.94-11.18,50-14.62,75.44-20,29.59-6.23,59-13.07,88.71-18.91,28.25-5.57,57-7.51,85.6-10.49,17.8-1.86,35.66-3.12,53.38-6,8-1.3,16.28-.35,24.32-2.47a9.37,9.37,0,0,1,9,2.72c3.92,3.94,7,8.78,12.16,11.39,4.9,2.49,10.54.08,16.68,2.58-4.5,3.73-9,4-13.23,3.74-12.91-.94-25.58,2-38.37,2.76-17.73,1-35.52,2.92-53.32,4.27-24.55,1.88-49.07,4.42-73.63,6.21-28.71,2.08-55.79,11.52-83.51,18-24.31,5.65-48.41,12.18-72.59,18.38q-34.57,8.88-69.1,17.91c-1.95.5-3.86,1.43-6.64.11C520.56,302.46,536.36,293.84,552.78,286.15Zm-69.1,546c-11-12.15-22.49-23.89-34-35.61-4.6-4.68-3.21-10.32-3.61-16.23,1.07-3.32-2.31-9.06,2-10.66,3.31-1.24,5.47,4.48,8.16,7,14.18,13.48,28,27.37,42.38,40.6,5.73,5.26,3,8.36-1.18,11.89S490.6,839.75,483.68,832.11ZM529,850.41c-7.25,0-14.51.11-21.77,0-5.17-.1-10.05-3.25-10.67-7.49-.9-6,5.41-9.13,9.64-12.4s6.62.6,9.43,3.28c4.84,4.62,10.07,8.83,15.14,13.22Zm130-16.82c-7.36-.19-14.73.15-22.09-.06-7.06-.21-12.08,2.55-14.36,9.28-2.17,6.4-6.24,7.86-12.86,7.66-20.91-.59-41.83-.43-62.75-.24-4.48,0-7.7-1-10.83-4.33-5.38-5.81-11.39-11.06-17.08-16.59-4.39-4.27-4.5-8.09.26-12.66,14.84-14.25,29.32-28.89,44-43.28,3.69-3.61,5.13-7,.9-11.25s-8.3-9.14-12.41-13.76c-4.58-5.16-9-5.72-14.15-.41-9.82,10.18-19.84,20.15-29.95,30-4,3.91-4.32,7.32-.08,11.17,2.83,2.57,5.17,5.71,8.12,8.11,5.64,4.57,5.16,8,.37,13.58-6.6,7.76-10.8,4.71-16.16-.71q-24.18-24.52-48.74-48.68c-4-3.89-5.06-8.4-5-13.57q0-17.24,0-34.47c0-16.14-8.27-24.64-24.39-24.72-28.29-.16-56.58-.14-84.86-.11-6.81,0-13.39-1.15-20.09-2.19-15.08-2.34-23.17-12-23.85-25.55-1.47-29.66-1.91-59.43.32-89.15.52-6.92,4-9.63,10.41-10.62,10.57-1.64,21.17-.85,31.75-.82,15.89,0,31.8-.59,47.7.51,7.68.53,14.34-2.9,19.8-8.33,12.31-12.27,24.54-24.62,36.85-36.87,4.43-4.41,6.76-9.6,6.39-15.86-1.55-25.94.54-51.83,2.92-77.51,1.44-15.53,6.76-30.81,13.56-45.43a182.75,182.75,0,0,1,28.53-44.32,19.62,19.62,0,0,1,10.47-6C537,317.28,572.25,308,607.59,299q57.6-14.73,115.33-29c10-2.5,20.51-2.07,30.67-2.54,40.79-1.92,81.24-7.72,122-9.83,10.52-.54,21.15-.9,31.68-2.17,4.29-.53,10.29-3.76,11.77,3.2,1.29,6.12,2.32,13.2-4.51,17.55a14.64,14.64,0,0,1-6.5,2.37c-21.65,1.66-43.37,2.61-65,4.78-22.8,2.3-45.67,3.88-68.29,8-19.33,3.53-39,5.09-58.29,8.83-50.5,9.8-100.89,20.29-149.67,37-21.46,7.34-37.8,31.75-37.86,55-.12,44.2,0,88.39,0,132.59h-.13c0,43.59.09,87.19,0,130.78-.11,49.41,36.94,97.82,84.63,110.9,13.14,3.6,26.19,6.64,40,6.14,8-.3,12.88,3.72,12.93,12.2.07,13.85,0,27.7.1,41.55C666.45,831.47,664.3,833.73,659,833.59ZM520.15,785c-3.59-3-4.1-6.23-.52-9.65,6.55-6.27,13.06-12.6,19.72-18.75,2.45-2.26,5.24-3.8,8.67-1.41a30.29,30.29,0,0,1,10.13,11.95,43.92,43.92,0,0,1-3.3,4.37c-6.38,6.47-12.89,12.81-19.23,19.3-2.69,2.76-5.1,3.6-8.16.5C525.21,789,522.61,787.09,520.15,785Zm643.72,47.63c-30.9,1.75-59.6-5.32-86.93-19.34a216.37,216.37,0,0,0-72.2-22c-22.16-2.72-44.94-4.42-68.12-1.4-20.74,2.7-41.09,6-61.21,11.36-18,4.76-34.89,12.6-51.78,20.17-22.26,10-45.49,12.87-69.52,12.26-5.74-.15-7.83-2.48-7.75-8,.17-12.36-.1-24.72.09-37.09.18-11.86,4.82-16.18,17-16.18q98,0,196.09,0h195.2c14.41,0,19,4.46,19.1,18.94.11,10.31-.29,20.64.17,30.92C1174.32,829.8,1171.57,832.2,1163.87,832.63Zm78.71-45.89c0,15.92-.13,31.83.11,47.74.11,6.07-2.17,8.42-8.3,8.3-13.25-.28-26.52-.36-39.77,0-7.19.21-10.1-2.31-9.93-9.66.31-14.14.06-28.29,0-42.43-.14-18.75-9.42-30.11-29.92-29.54-31.22.86-62.52,1.39-93.69-.1-30.94-1.5-61.88-1.91-92.74-.93-68.93,2.15-137.86.68-206.79,1.26-17,.14-26.34,9.25-25.8,26.61.48,15.67-2.09,31.13-1.77,46.74.11,5.56-2.25,8-7.91,8-13.56-.16-27.11-.18-40.67,0-5.78.08-7.75-2.48-7.7-8,.15-15.91.09-31.82-.09-47.73-.17-15.23-7.62-23.67-22.59-25.38-8.15-.92-16.58-.19-24.53-1.87-48.85-10.37-77.91-41.69-89.39-88.22-2.5-10.12-2.58-21.06-2.38-31.6,1.5-80.14.26-160.29.54-240.43.06-17.41,5.17-32.17,18.08-44.21,7.92-7.38,17.92-10.38,27.67-13.12,38.24-10.72,76.69-20.56,115.78-27.91,41.86-7.89,83.86-14.9,126.28-18.63,13.33-1.17,26.53-3.64,40.23-3.21s27.31-2.1,41.2-1.88c12.78.2,21.73-11.15,21.88-24.23.1-9.13.17-18.28-.05-27.41-.16-6.3,2.29-9.11,8.83-9,14.14.26,28.29.23,42.44,0,6.1-.09,8.42,2.48,8.26,8.49-.27,9.71-.12,19.45,0,29.17.12,13.47,10.25,23.75,23.51,23.37,33.48-.93,66.53,3.9,99.73,6.93,27.87,2.54,55.38,7.56,82.94,12.05,34.17,5.57,67.91,13.5,101.45,22.25,16.49,4.3,33,8.56,49.12,14.07,18.64,6.36,32.3,23.71,32.44,44,.32,45.67.1,91.35.1,137h.13c0,43,.16,86.06,0,129.07-.2,41.22-28.61,80.87-67,96.41-14.87,6-30.06,7.74-45.59,8.8C1249.78,762.72,1242.58,770.12,1242.58,786.74Zm219.67,18.19q-21.6,20-42.3,41.07c-4.24,4.31-8.33,5.48-14.08,4.67-5.12-.74-10.43-.17-15.66-.17,27.51-28.17,52.46-57.4,82-84.34C1473.75,781.58,1473.59,794.42,1462.25,804.93Zm164.36-146.54c-.41,17.91-13.44,29.79-31.36,30-16.2.21-32.41,0-48.6,0v.06c-16.21,0-32.41-.08-48.62,0-17.1.11-24.94,7.83-25.17,24.74-.15,11.48-.2,23,0,34.46a20.19,20.19,0,0,1-6.4,15.76q-41.94,41.06-83.54,82.46c-3.41,3.4-6.77,4.46-11.64,4.4-20.9-.26-41.83-1.14-62.7.47-3.93.3-7.81-.11-8.73-4.09-3.35-14.45-14.41-14-25.47-13.9-2.36,0-4.69.52-7,.59-11.38.32-12.72-1.31-13.63-12.83a254.11,254.11,0,0,1-.9-32.63c.6-11.7,4.9-15.46,16.68-15.69,27.24-.54,52.62-7.64,74-24.66,29.57-23.49,46.87-53.86,46.9-92.57.06-86.32-.42-172.64.29-258.95.2-25.72-16.69-53.29-43.12-61.12-25.67-7.59-51.4-14.85-77.59-20.64-28.1-6.21-56.16-12.6-84.57-17.15-35.89-5.75-71.9-10.91-108.15-14.05-21.56-1.87-43.2-2.95-64.81-4.47-9.14-.64-17.13-13.72-13.3-21.65,1.67-3.46,4.89-2.73,7.75-2.5,32.51,2.68,65,5.54,97.54,8.09,29,2.26,57.93,4.22,86.84,6.72,17.07,1.49,33.74,7.68,50.56,11.91q61.08,15.36,122.1,30.89c18.51,4.73,36.91,9.92,55.47,14.45,8.75,2.13,12.9,9.25,17.38,15.44,16.6,22.93,28.2,48.29,32.53,76.39a356.78,356.78,0,0,1,3.46,70.42c-.63,14.14,3.9,24.92,14.51,34.2,10.17,8.88,19.5,18.78,28.89,28.54a26.87,26.87,0,0,0,21.2,8.76c22.08-.39,44.18-.22,66.28-.1,4.38,0,8.76.83,13.14,1.25,7.34.7,10,5.3,10,12.06C1626.85,601.83,1627.27,630.13,1626.61,658.39Z"/><path d="M635.88,471.33c-.75-19.87,17.56-31.29,32.45-31.09,18.36.24,31.28,14.88,30.65,33.78-.55,16.27-17,32.38-32.48,30.81C650.11,503.17,634.21,489,635.88,471.33Zm55.66,1.22c.05-15.6-9.39-25.61-24-25.53-13.62.08-26.17,11.62-26.55,24.42-.41,13.56,12.41,26,26.93,26.18C681.33,497.77,691.5,487,691.54,472.55Z"/><path d="M1375.43,744c3,0,4.71,1.62,6.38,3.29,10,9.95,19.8,20,29.94,29.82,4.36,4.2,4.34,7.79.22,11.91-4.76,4.77-9.24,9.81-14.11,14.45-3.86,3.67-8,3.17-11.68-.53-10.16-10.16-20.27-20.38-30.45-30.52-3.71-3.7-4.6-7-.17-11.07s8-8.55,12-12.89C1369.78,746,1372.38,744.27,1375.43,744Zm-.22,8.45c-4.73,2.19-7.3,6.31-10.8,9.34-4.13,3.57-4.5,6.9,0,10.87,6.15,5.41,11.85,11.35,17.66,17.14,3.55,3.54,7,3.92,10.59.13a61.65,61.65,0,0,1,6.29-6.13c3.62-2.83,3.79-5.21.34-8.46-6.61-6.24-12.87-12.83-19.35-19.2A48.38,48.38,0,0,0,1375.21,752.48Z"/><path class="cls-1" d="M1379.18,656.35c-.2,41.22-28.61,80.87-67,96.41-14.87,6-30.06,7.74-45.59,8.8-16.78,1.16-24,8.56-24,25.18,0,15.92-.13,31.83.11,47.74.11,6.07-2.17,8.42-8.3,8.3-13.25-.28-26.52-.36-39.77,0-7.19.21-10.1-2.31-9.93-9.66.31-14.14.06-28.29,0-42.43-.14-18.75-9.42-30.11-29.92-29.54-31.22.86-62.52,1.39-93.69-.1-30.94-1.5-61.88-1.91-92.74-.93-68.93,2.15-137.86.68-206.79,1.26-17,.14-26.34,9.25-25.8,26.61.48,15.67-2.09,31.13-1.77,46.74.11,5.56-2.25,8-7.91,8-13.56-.16-27.11-.18-40.67,0-5.78.08-7.75-2.48-7.7-8,.15-15.91.09-31.82-.09-47.73-.17-15.23-7.62-23.67-22.59-25.38-8.15-.92-16.58-.19-24.53-1.87-48.85-10.37-77.91-41.69-89.39-88.22-2.5-10.12-2.58-21.06-2.38-31.6,1.5-80.14.26-160.29.54-240.43.06-17.41,5.17-32.17,18.08-44.21,7.92-7.38,17.92-10.38,27.67-13.12,38.24-10.72,76.69-20.56,115.78-27.91,41.86-7.89,83.86-14.9,126.28-18.63,13.33-1.17,26.53-3.64,40.23-3.21s27.31-2.1,41.2-1.88c12.78.2,21.73-11.15,21.88-24.23.1-9.13.17-18.28-.05-27.41-.16-6.3,2.29-9.11,8.83-9,14.14.26,28.29.23,42.44,0,6.1-.09,8.42,2.48,8.26,8.49-.27,9.71-.12,19.45,0,29.17.12,13.47,10.25,23.75,23.51,23.37,33.48-.93,66.53,3.9,99.73,6.93,27.87,2.54,55.38,7.56,82.94,12.05,34.17,5.57,67.91,13.5,101.45,22.25,16.49,4.3,33,8.56,49.12,14.07,18.64,6.36,32.3,23.71,32.44,44,.32,45.67.1,91.35.1,137h.13C1379.22,570.31,1379.38,613.34,1379.18,656.35Z"/><path d="M831.54,476.43V588.67h-20V517.16l-19.72,15.07L775.42,544.9l-16.36-12.67-19.72-15.07v71.51h-20V476.43l20,15.39,36.08,27.74,36.08-27.74Z"/><path d="M950.2,532.07a33.11,33.11,0,0,1-23.74,56.12h-46A32.93,32.93,0,0,1,850,568a34.62,34.62,0,0,1-2.57-13V509a32.48,32.48,0,0,1,8.34-21.65,33.86,33.86,0,0,1,9.62-7.53,31.7,31.7,0,0,1,15.07-3.69H950.2v20H880.44a13.21,13.21,0,0,0-13.15,13.15V525a33,33,0,0,1,12.51-2.56h47.31a33.15,33.15,0,0,1,23.25,10.1Zm-23.9,36.08A13.2,13.2,0,0,0,939.45,555a13.06,13.06,0,0,0-12.34-13.15H879.8a13.16,13.16,0,0,0,.64,26.3H926.3Z"/><path d="M1064.68,496.31a34.8,34.8,0,0,1,3.69,15.72v76.48h-20V510.1a16,16,0,0,0-13.63-13.63H975.85v-20h56.92a34.84,34.84,0,0,1,15.72,3.69,35.57,35.57,0,0,1,16.19,16.35Z"/><path d="M1193.76,543.13a32,32,0,0,1,2.72,13,33,33,0,0,1-33,33h-79v-20h79a13.07,13.07,0,0,0,13-13.15,12.92,12.92,0,0,0-11.55-13H1084.4V476.91h102.78v20h-82.74v26h60.29a32.53,32.53,0,0,1,29.19,20Z"/></g></g></svg>