<svg xmlns="http://www.w3.org/2000/svg" viewBox="0 0 1920 1080"><defs><style>.cls-1{fill:#f2f2f2;}.cls-2{fill:#020202;}</style></defs><g id="Capa_2" data-name="Capa 2"><g id="Capa_1-2" data-name="Capa 1"><rect class="cls-1" width="1" height="1"/><rect class="cls-1" x="1919" y="1079" width="1" height="1"/><rect class="cls-1" y="1079" width="1" height="1"/><rect class="cls-1" x="1919" width="1" height="1"/></g><g id="Capa_3" data-name="Capa 3"><path class="cls-1" d="M975.07,292.75c.17,5.88-1.9,6.84-7.16,7L951,299.66c-5.08.47-6-1.82-6-6.29.19-20.16.34-40.33.05-60.49-.07-5.44,1.88-6.86,6.76-6.28,2.63.31,6.28,2,7.33,1.58,5-1.72,11.5-3.58,14.27-.58,3.92,4.21,1.32,11.41,1.41,17.32C975.11,260.85,974.62,276.82,975.07,292.75Z"/><path class="cls-1" d="M1572.67,443.41c5,4.77,2.3,10.06,1.3,15.16-7,35.67-14.19,71.3-20.92,107-.79,4.21-3.42,7.48-4,11.59.46,15.66-5.51,30.31-7.32,45.62-.43,3.73-3.82,3.19-6.44,3.2-6.58.06-13.18,0-19.78,0-2.17,0-4.34.44-4.18,3.4.13,2.46,2.33,2.71,3.93,2.75,8,.16,16.09.07,25.08.07-2.62,11.49-4.94,21.56-7.25,31.65q-6.64,35.88-13.3,71.76c-.72,3.94-3.07,4-5.85,2.24-6.3-3.93-14-5.79-18-13-1-1.86-2.73-4-5-2.91-2.64,1.37-1.23,4.16-.69,6.33,1.79,7.12,7.42,10.24,13.37,13.56,15.71,8.81,15,3.78,8.95,22.84-5,16-13.75,30-24.74,42.63-3.4,3.9-6.6,7-12.12,3.2-1.53-1.05-4.36-1.67-5.77.32s.62,3.57,2.08,4.36c5.61,3.06,1.88,5.1-.72,7-16.82,12.38-35.63,20.27-56.39,22.08-15.57,1.35-31.28.9-46.94,1.32-3.62.09-6.71-.24-6.75-5,0-1.89-.7-3.81-2.89-3.9s-2.84,1.77-2.91,3.72c-.16,4.69-3.38,4.94-7,4.94-15.35,0-30.72-.16-46.07.24-5.72.16-7.18-2-7.16-7.31,0-4.45,1.66-12.35-3.22-12.28-5.12.07-2.64,7.89-3.17,12.33-.41,3.71.06,7.2-5.51,7.11-31.31-.6-62.63,1.07-93.91-.79-23.42,1.82-46.52-1.36-69.61-4.4-15.93-2.11-31.88-4.14-47.81-6.2-27.94-1.48-55.66-6.1-83.69-6.29-4.63,0-6.26-1.79-6.22-6.46q.27-42,.09-84c0-4.68,2.15-5.48,6-5.39,5.41.13,10.84.08,16.24-.2,2.17-.1,4.23-1.19,3.93-3.94-.27-2.35-2.26-2.48-4.09-2.6-1.5-.09-3-.11-4.5-.15-17.69-.52-17.65-.52-17.65-18.64q0-196-.13-392.08c0-6.27,1.36-9,7.9-8.32,2.23.22,6,1.58,6.1-2.91.12-3.65-3.13-3.51-5.23-3.29-8.23.87-9.15-3.49-9-10.31.51-18.37.72-36.74.29-55.1-.16-6.69,2-8.28,8.12-7.92,7.5.45,15.06-.23,22.57.18a228.68,228.68,0,0,0,80.11-9.84c14.74-4.5,29.89-.61,44.78,1.09,48.66,5.61,97.38,11,145.55,19.86,41.92,7.66,83.24,18.21,124.44,29,9.58,2.53,17.14,8.93,24.07,15.48a118.27,118.27,0,0,0,48,27.59c5.43,1.63,6.33,3.91,3.78,8.92-2.71,5.32-6.45,10.67-4.16,18.17,5.39-3.07,6.75-8,7.89-12.28,2.18-8.13,5.17-10.19,13.52-6.23,13,6.16,27,10.14,38.77,18.75a103.58,103.58,0,0,1,34,42.35c2.53,5.66,2.7,10.63-.47,16.19-3.42,6-6.15,12.42-6.91,19.4-.27,2.55-.88,5.95,2.68,6.64,3.29.61,3.4-2.54,4.12-4.81,1.4-4.45,2.93-8.85,5.72-13,1,12,6.72,24.52-5.48,34.49C1571.73,439.81,1571.32,442.11,1572.67,443.41Z"/><path class="cls-1" d="M975,820.13c0,4.89-.9,7.09-6.31,6.77L951.2,827c-6.87.41-6.16-3.33-6.15-7.73.13-26.76.42-53.54,0-80.31-.1-6.65,2.57-6.83,7.78-7.18l16.06,0c7.16,0,5.84,4,5.86,8.08C974.77,766.59,974.69,793.35,975,820.13Z"/><path class="cls-1" d="M974.87,312.18q.12,37.4,0,74.81,0,89.26,0,178.52c0,3.89-.3,7.78-.48,11.67.14,47.56.16,95.1.5,142.64.06,6.39-3.85,5.26-7.63,5.74L951,725.28c-4.16-.2-5.9-.95-5.88-5.46q.4-69.52.54-139-.18-79.49-.4-159-.08-52.41,0-104.8c0-12,0-12,12.82-9.91,1.52.47.65,4.31,3.71,2.64,1.1-7.19,6.54-2.69,9.82-3.27C975.78,305.68,974.87,309.7,974.87,312.18Z"/><path class="cls-1" d="M938,738.16q-.19,41.07-.17,82.15c0,4.45-.7,7.36-6.31,7.44-28,.36-55.71,4.7-83.63,6.42-36.1,4.19-71.91,11.23-108.42,11.32-33.72.09-67.45-.17-101.18.16-6.05.05-8.37-1.59-7.52-7.52a12.91,12.91,0,0,0,0-3.62c-.45-3,1.29-8-3.18-8.08s-3.45,5.3-3.16,7.94c1.15,10.12-3.66,11.7-12.48,11.21-13.2-.73-26.5-.17-39.73,0-4.14,0-8.12.29-7.92-5.66,0-1.59-.67-3.07-2.48-3.18-2.21-.11-3.18,1.37-3.26,3.4-.09,3-.86,5.33-4.52,5.33-29.13,0-58.55,2.15-85.79-11.73a13.65,13.65,0,0,1-2.08-1.61c-30-13.57-48.32-37.38-59.17-67.58a133.17,133.17,0,0,1-6.22-28c-4.75-24.17-10.72-48.12-13.92-72.6-1.92-8.74-3.66-17.53-5.81-26.21-1.14-4.57,1.07-5,4.63-5,6,0,12.05-.09,18.05-.4,2-.11,4.61-.47,4.48-3.31s-2.64-2.87-4.73-2.91c-6.62-.11-13.24-.22-19.86,0-3.56.07-5.28-.91-5.95-4.83-2.55-15.08-5.53-30.08-8.35-45.12q-12.45-61.8-24.94-123.57c-.49-2.42-.89-4.66.94-6.8,3.34-3.92,4.81-7.11-2.44-8.41-2.3-.41-2.53-3.92-2.68-6.27-.54-9-1.3-17.94-.11-27.8,5.32,4,4.61,9.86,6.53,14.49,1,2.4.81,6.16,4.63,5.17,3.26-.85,2.69-4.16,2.41-6.91-.89-8.21-4.06-15.7-7.53-23a15.2,15.2,0,0,1,0-13.76c10-21.7,24.94-38.94,46.57-49.59,9.66-4.75,19.93-8.3,29.8-12.62,4.16-1.83,6.6-1.43,8,3.34,1.09,3.73,3.1,7.17,4.51,10.8,1.05,2.71,2.31,5.37,5.71,4.07,4.23-1.61,2.32-4.72,1.18-7.47-.24-.56-.58-1.05-.83-1.59-6.43-13.85-6.5-14,8.26-19.66,11.66-4.43,22.6-10.07,31.48-18.84,14.85-14.69,33-21.67,53-26.82A1496.5,1496.5,0,0,1,757.94,221c12.57-1.29,25-3.37,37.56-4.81,12.91-1.49,25.79-2.05,38.34,2.6,27.54,10.2,56.31,7.74,84.81,7.85,19.26.05,19.28,0,19.32,19.1,0,15.35-.24,30.72.1,46.06.13,5.64-1.08,8.46-7.36,8-2.6-.18-7.23-1.06-7.28,3-.06,5.19,4.88,3.27,7.7,3.2,4.77-.12,7,.91,7,6.42q-.43,132.31-.51,264.62.2,71.29.4,142.61c0,3.6-1,5.73-5,5.64-2.5,0-5.23.47-5.38,3.55-.18,3.76,3.08,3.15,5.25,3C937.75,731.54,938.06,734.42,938,738.16Z"/><path class="cls-2" d="M1749.21,518.17c-4.07.38-6-3.4-6.21-7.45-.12-2.41-.16-4.81-.16-7.22,0-16,0-31.91-.07-47.88-.13-18.25-8.16-26.35-26.49-26.53-24.71-.24-49.39-.22-74.09-.42-13-.09-21.09-8.26-21.13-21.25,0-22.28,0-44.55,0-66.83,0-4.58.06-9.64-5.82-10.71-8.59-1.54-7.43-6.24-4.1-11.56,4.14-6.6,2.11-9.47-5-12-30.25-10.87-60.27-22.32-90.4-33.51-11.37-4.23-11.43-4.2-16.54,6.87-1.14,2.44-1.67,5.44-5.32,5s-5.14-3.38-5-6.48c.76-15.67-9-21-22.16-24.7-102-28.53-205-52.37-310.73-62.42-28.75-2.73-57.56-5.1-86.33-7.65-11.14-1-21.4.68-27.36,11.39-3.53,6.33-8.65,7.49-15,7.45l-140-.27a8.47,8.47,0,0,1-8-4.85c-6-11.46-16-14.17-28-14.21l-61.42,5-34.19,3.83c-103.24,10.43-203.7,34.49-303.49,61.92-12.35,3.4-21.95,8.39-21.17,23.49.16,3.22-1.31,6.82-5.3,7.36s-5.16-3.29-5.66-5.86c-1.92-9.89-7.42-9.62-15.12-6.67-29.71,11.43-59.46,22.75-89.37,33.6-8,2.91-10.76,6.67-6.35,14.41,2.68,4.7,3,8.39-3.83,9.57-6.1,1.06-6.82,5.71-6.78,11,.14,22.28.1,44.55.12,66.83,0,13.22-7.92,21.25-21.05,21.27q-39.3,0-78.59.05c-9.46,0-19.64.06-25.82,8.32-5,6.62-7,17-7,17l-1.87,114.08c0,2.4-.27,4.79-.43,7.19q.24,21.13.49,42.28c.25,21.9,10.7,32.3,32.77,32.3,40.25,0,80.49.33,120.72-.32,11.4-.2,19.73,3,25.72,12.51,7.3,7.07,14.59,14.18,21.93,21.21a11.3,11.3,0,0,1,3.89,8.74c-.25,12.91-.4,25.82-.59,38.75-2.5,28.25,14.39,50,24.81,74,6.45,14.82,13.69,29.33,20.76,43.89,6.54,13.5,15.71,24.79,28.68,32.73,0,0,5.42,3.2,12.2,6.58s83,3.73,83,3.73c14.4-.08,14.34,0,15-14,.11-2.37-1.48-6.51,2.48-6.44,3.58.06,2.37,4.15,2.5,6.57,1.08,19.17,1,19.15,20.45,19.17q22.51,0,45,.11c5.61.29,8.34-1.92,7.58-8-.42-3.24.48-6.67,0-9.91-1.23-7.69,2.35-8.92,9.17-8.81,25.59.44,51.19.27,76.8.31,18.35,0,36.67.33,55-1.95,25.64-3.2,51.34-6.33,77.22-7.33,34.39-3.94,69-4,103.49-5.37l23.15,1a831,831,0,0,1,94,4.27c26.44,1.19,52.68,4.59,78.94,7.63a343.38,343.38,0,0,0,41.43,2c30.4-.18,60.79-.14,91.17-.5,5.59-.08,7.09,1.61,7.17,7.12.29,19.5.5,19.5,19.89,19.5,15,0,30.09-.26,45.14,0,5.71.09,8.42-1.49,7.81-7.64-.49-4.77-.26-9.62-.33-14.43,0-2,.54-3.81,2.75-3.88,2.48-.08,2.35,2,2.59,3.87,2.26,16.85,2.28,17.12,19.56,16.69,21.94-.56,43.91,1.59,65.81-1.38,8.19-1.1,15.55-4.34,22.89-7.79,15.19-9,25.72-22.06,32.18-38.32,2.31-5.86,4.16-8.25,10.65-4.07,7.5,4.83,16.07,8,24,12.21,4.26,2.29,7,2.11,9.35-2.59q16.73-34.26,33.72-68.41c2.24-4.54.6-7.18-3.61-9.31-8-4-15.74-8.7-23.91-12.37-4.76-2.16-6.82-4.6-6.71-10.06.34-18.61.29-37.23,0-55.86-.08-4.88,1.17-8.61,4.79-11.88,6.44-5.81,12.64-11.88,18.93-17.83,6.64-10.36,15.32-14.61,28.38-14.31,39.69.95,79.42.33,119.15.26,22.82-.06,33.11-10.07,33.62-32.72.25-12,.36-24,.54-36v-53C1756.06,518.68,1749.21,518.17,1749.21,518.17ZM1507.33,278.7c1.29-2.49,3.86-.29,5.59.36,26.13,9.68,52.25,19.37,78.27,29.34,4.76,1.82,10.58,2.17,13.87,7.21-2.33,2.12-4.32,1.2-6.2.49q-42.61-15.81-85.21-31.7a18,18,0,0,1-2.48-1C1509.27,282.3,1505.65,282,1507.33,278.7Zm-3.86,8.36c.9-3.42,3.7-1.59,5.91-.78q44.16,16.35,88.32,32.68c1.61.59,3.53,1,3.78,3.92-1.94,1.7-3.62.87-5.3.24q-44.16-16.47-88.34-33C1506.16,289.48,1502.81,289.46,1503.47,287.06ZM433.62,296.53c8-3.65,12.16-9.78,11.34-18.62-.52-5.74,2.23-7.91,7.31-9.32,78.74-21.91,157.91-42,238.87-54,46.71-6.93,93.64-12.17,140.78-15.28,6.31-.42,12.59-1.23,21.56-2.14,4.72-1.14,10,1.25,14,7.94,4.65,7.92,11.79,11.05,21.16,11q71.39-.39,142.77,0c9.37,0,16.4-3.09,21-11.2,3.36-6,8.06-7.93,14.9-7.43,44.74,3.28,89.29,8,133.8,13.44,90.31,11.05,178.13,33.65,265.72,57.23,5.41,1.47,8.59,3.89,8.1,9.88-.72,9,3.91,14.83,11.42,18.77,2.44,1.28,5.64,2.37,4.37,5.68-1.55,4-5.24,2.24-7.76,1.19-11.35-4.68-24.07-7.5-32.76-16.53-21.83-22.68-50.1-30.07-79.3-37.38-68.68-17.2-138.27-28.48-208.56-36-12.86-1.38-25.66-3.26-38.5-4.74-15.41-1.79-30.6-.9-45.47,4-16.44,5.39-33.27,7.14-50.63,6.92q-65.06-.87-130.1-.09c-20,.22-39.6-.88-58.7-7.47s-38.66-4-58.1-1.62c-44.47,5.44-89,10.48-133.22,17.79-46,7.6-91,19.49-136.18,30.89-12.31,3.11-22.11,10.94-31.06,19.47-12.52,12-27.69,18.9-43.48,24.94-2.67,1-5.8,2.91-7.65-1.28C427.22,298.09,431,297.73,433.62,296.53Zm541.45-3.78c.17,5.88-1.9,6.84-7.16,7L951,299.66c-5.08.47-6-1.82-6-6.29.19-20.16.34-40.33.05-60.49-.07-5.44,1.88-6.86,6.76-6.28,2.63.31,6.28,2,7.33,1.58,5-1.72,11.5-3.58,14.27-.58,3.92,4.21,1.32,11.41,1.41,17.32C975.11,260.85,974.62,276.82,975.07,292.75ZM945.05,739c-.1-6.65,2.57-6.83,7.78-7.18l16.06,0c7.16,0,5.84,4,5.86,8.08,0,26.77-.06,53.53.21,80.31,0,4.89-.9,7.09-6.31,6.77L951.2,827c-6.87.41-6.16-3.33-6.15-7.73C945.18,792.52,945.47,765.74,945.05,739Zm.18-317.17q-.08-52.41,0-104.8c0-12,0-12,12.82-9.91,1.52.47.65,4.31,3.71,2.64,1.1-7.19,6.54-2.69,9.82-3.27,4.23-.78,3.32,3.24,3.32,5.72q.12,37.4,0,74.81,0,89.26,0,178.52c0,3.89-.3,7.78-.48,11.67.14,47.56.16,95.1.5,142.64.06,6.39-3.85,5.26-7.63,5.74L951,725.28c-4.16-.2-5.9-.95-5.88-5.46q.4-69.52.54-139Q945.45,501.29,945.23,421.8ZM322.44,310.6q41.26-15.62,82.67-30.81c2.09-.76,5.15-4.34,6.89-.69s-3.11,3.49-4.89,5.15a1.48,1.48,0,0,0-.43,2.1c3,1.65,5.44-1.88,8.81.22-31.29,15.1-64.22,25.88-96.41,38.1-2.31-4.95,4.68-4.08,2.88-7.88-2.19-1-4.76,1.17-6.93-.94C315.63,311.54,319.68,311.65,322.44,310.6Zm40.4,348.88c-14.52-19.35-33-25.19-57.09-23.93-36,1.88-72.17.33-108.26-.07-15.54-.16-18.61-3.44-18.69-18.63-.07-13.22.22-26.45.35-39.67-.13-39.75-.38-79.48-.31-119.23,0-9.64,5.37-14.52,15.63-14.61,28.6-.27,57.21-.24,85.84-.33C298,443,313,427.84,313,410.15c0-20.79,0-41.57,0-62.35,0-2.53-1.23-6.35,2.06-7.09,3.69-.85,3.49,3.47,4.43,5.64,2.59,6.06,4.62,12.36,7.06,18.47.87,2.17,2.06,5,5.06,3.8,2.51-1.05,2.82-3.82,1.86-6.28-2.51-6.44-4.86-12.95-7.83-19.17-2-4.1-.76-6,3.08-7.41q44.36-16.44,88.66-32.95c2.54-.94,5.32-2.08,6.78,1.63s-.95,4.66-3.72,5.78c-9.48,3.8-19,7.56-28.28,11.74-42.25,19-66.7,64.81-59,110.31,2.85,16.84,2.85,16.8-13.33,21.48-2.86.84-8.25,0-7.07,4.65,1.12,4.34,5.93,2.88,9.38,1.76,5.07-1.63,10.06-3.49,15.61-5.45,7.88,41.43,15.68,82.36,23.47,123.28,3.15,14.65,8.43,29.3,8.41,43.94,0,6.19,1.39,9.75,3.13,15,4.18,12.64,5.82,26.14,8.77,40.73C374.56,671,367.73,666,362.84,659.48ZM553.63,857.15c-9.06.69-13,6.57-14.45,14.67-.54,3.07-.33,5.86-4.88,5.62-21.32-1-42.77,1.54-64-1.55-17.9-2.61-31.56-12.41-39.55-28.25-15.55-30.82-30.07-62.17-44.88-93.37-3.62-7.65-2.23-16-2.35-24-.17-10.83,0-21.65,0-32.48,6.73,17.76,8.9,36.21,12.42,54.33A123.53,123.53,0,0,0,518.65,852.29c11.45-.11,22.88-.31,34.33-.38,1.9,0,4.66-.74,4.59,2.53C557.53,856.72,555.55,857,553.63,857.15Zm65.88,32.61q-24.74,0-49.46-.11c-2.1,0-4.58.11-4.54-2.93,0-3.2,2.75-2.57,4.68-2.59,8.39-.07,16.79,0,25.18,0V884c8.1,0,16.18,0,24.28,0,2.08,0,4.51-.27,4.42,2.91S621.61,889.77,619.51,889.76Zm-53.46-17.2c0-.56,0-1.1,0-1.66h57.18c0,.56.06,1.1.07,1.66ZM623,878.07c-18.57,3.6-37.29,2.17-56,2.45,0-.82.06-1.63.09-2.45Zm-2.78-21.15c-17.09.09-34.18.09-51.27.1-2,0-3.62-.68-3.4-3,.23-2.68,2.49-2,4.08-2,8.4-.07,16.79,0,25.18,0v0c8.39,0,16.8,0,25.19,0,1.39,0,3.22-.22,3.51,1.82C623.81,856.14,622.06,856.92,620.2,856.92Zm10.61-18.79a12.91,12.91,0,0,0,0-3.62c-.45-3,1.29-8-3.18-8.08s-3.45,5.3-3.16,7.94c1.15,10.12-3.66,11.7-12.48,11.21-13.2-.73-26.5-.17-39.73,0-4.14,0-8.12.29-7.92-5.66,0-1.59-.67-3.07-2.48-3.18-2.21-.11-3.18,1.37-3.26,3.4-.09,3-.86,5.33-4.52,5.33-29.13,0-58.55,2.15-85.79-11.73a13.65,13.65,0,0,1-2.08-1.61c-30-13.57-48.32-37.38-59.17-67.58a133.17,133.17,0,0,1-6.22-28c-4.75-24.17-10.72-48.12-13.92-72.6-1.92-8.74-3.66-17.53-5.81-26.21-1.14-4.57,1.07-5,4.63-5,6,0,12.05-.09,18.05-.4,2-.11,4.61-.47,4.48-3.31s-2.64-2.87-4.73-2.91c-6.62-.11-13.24-.22-19.86,0-3.56.07-5.28-.91-5.95-4.83-2.55-15.08-5.53-30.08-8.35-45.12q-12.45-61.8-24.94-123.57c-.49-2.42-.89-4.66.94-6.8,3.34-3.92,4.81-7.11-2.44-8.41-2.3-.41-2.53-3.92-2.68-6.27-.54-9-1.3-17.94-.11-27.8,5.32,4,4.61,9.86,6.53,14.49,1,2.4.81,6.16,4.63,5.17,3.26-.85,2.69-4.16,2.41-6.91-.89-8.21-4.06-15.7-7.53-23a15.2,15.2,0,0,1,0-13.76c10-21.7,24.94-38.94,46.57-49.59,9.66-4.75,19.93-8.3,29.8-12.62,4.16-1.83,6.6-1.43,8,3.34,1.09,3.73,3.1,7.17,4.51,10.8,1.05,2.71,2.31,5.37,5.71,4.07,4.23-1.61,2.32-4.72,1.18-7.47-.24-.56-.58-1.05-.83-1.59-6.43-13.85-6.5-14,8.26-19.66,11.66-4.43,22.6-10.07,31.48-18.84,14.85-14.69,33-21.67,53-26.82A1496.5,1496.5,0,0,1,757.94,221c12.57-1.29,25-3.37,37.56-4.81,12.91-1.49,25.79-2.05,38.34,2.6,27.54,10.2,56.31,7.74,84.81,7.85,19.26.05,19.28,0,19.32,19.1,0,15.35-.24,30.72.1,46.06.13,5.64-1.08,8.46-7.36,8-2.6-.18-7.23-1.06-7.28,3-.06,5.19,4.88,3.27,7.7,3.2,4.77-.12,7,.91,7,6.42q-.43,132.31-.51,264.62.2,71.29.4,142.61c0,3.6-1,5.73-5,5.64-2.5,0-5.23.47-5.38,3.55-.18,3.76,3.08,3.15,5.25,3,4.92-.36,5.23,2.52,5.21,6.26q-.19,41.07-.17,82.15c0,4.45-.7,7.36-6.31,7.44-28,.36-55.71,4.7-83.63,6.42-36.1,4.19-71.91,11.23-108.42,11.32-33.72.09-67.45-.17-101.18.16C632.28,845.7,630,844.06,630.81,838.13ZM1278,856.86c-41.84-.54-83.78,2.37-125.5-1.91-42.23-4.35-84.42-8.63-126.8-11.09-53.44-3.11-106.84-3.2-160.12,2-75.23,7.36-150.46,14-226.16,11.15-1.21,0-2.42,0-3.61,0-2.12-.06-4.72.07-4.63-2.88.09-3.34,3.07-2.15,4.84-2.15,17.17-.09,34.35-.05,51.51,0h13.56c49.32,3.62,97.78-4.88,146.52-10.11,34.68-3.72,69.46-7.1,104.38-7.79,35.13-.67,70.13,2,104.92,6.73,73.49,10.11,147.29,13.36,221.4,11.26,3.18-.09,9.22-2,9.22,1.94C1287.56,859.45,1281.36,856.9,1278,856.86Zm72.72,32.75-50.44,0c-2.19,0-4.5-.14-4.38-3.11.17-3.24,2.93-2.39,4.8-2.41,8.39-.1,16.8-.05,25.21-.05V884c8.1,0,16.2-.07,24.3.07,1.83,0,4.72-.9,4.87,2.3C1355.23,889,1353.06,889.61,1350.75,889.61Zm-54.49-16.67c0-.53,0-1,0-1.56h58.22c0,.53,0,1,0,1.56Zm57.18,6.76H1297L1297,878h56.38C1353.42,878.54,1353.42,879.12,1353.44,879.7ZM1350.55,857q-25.29,0-50.58,0c-1.92,0-3.89-.51-3.94-2.73-.11-3.58,2.89-2.28,4.62-2.32,8.12-.14,16.26-.05,24.38-.05,8.45,0,16.87,0,25.3,0,1.72,0,4.05-.2,4.09,2.27C1354.44,856.39,1352.48,857,1350.55,857Zm10.7-16.33c0-1.89-.7-3.81-2.89-3.9s-2.84,1.77-2.91,3.72c-.16,4.69-3.38,4.94-7,4.94-15.35,0-30.72-.16-46.07.24-5.72.16-7.18-2-7.16-7.31,0-4.45,1.66-12.35-3.22-12.28-5.12.07-2.64,7.89-3.17,12.33-.41,3.71.06,7.2-5.51,7.11-31.31-.6-62.63,1.07-93.91-.79-23.42,1.82-46.52-1.36-69.61-4.4-15.93-2.11-31.88-4.14-47.81-6.2-27.94-1.48-55.66-6.1-83.69-6.29-4.63,0-6.26-1.79-6.22-6.46q.27-42,.09-84c0-4.68,2.15-5.48,6-5.39,5.41.13,10.84.08,16.24-.2,2.17-.1,4.23-1.19,3.93-3.94-.27-2.35-2.26-2.48-4.09-2.6-1.5-.09-3-.11-4.5-.15-17.69-.52-17.65-.52-17.65-18.64q0-196-.13-392.08c0-6.27,1.36-9,7.9-8.32,2.23.22,6,1.58,6.1-2.91.12-3.65-3.13-3.51-5.23-3.29-8.23.87-9.15-3.49-9-10.31.51-18.37.72-36.74.29-55.1-.16-6.69,2-8.28,8.12-7.92,7.5.45,15.06-.23,22.57.18a228.68,228.68,0,0,0,80.11-9.84c14.74-4.5,29.89-.61,44.78,1.09,48.66,5.61,97.38,11,145.55,19.86,41.92,7.66,83.24,18.21,124.44,29,9.58,2.53,17.14,8.93,24.07,15.48a118.27,118.27,0,0,0,48,27.59c5.43,1.63,6.33,3.91,3.78,8.92-2.71,5.32-6.45,10.67-4.16,18.17,5.39-3.07,6.75-8,7.89-12.28,2.18-8.13,5.17-10.19,13.52-6.23,13,6.16,27,10.14,38.77,18.75a103.58,103.58,0,0,1,34,42.35c2.53,5.66,2.7,10.63-.47,16.19-3.42,6-6.15,12.42-6.91,19.4-.27,2.55-.88,5.95,2.68,6.64,3.29.61,3.4-2.54,4.12-4.81,1.4-4.45,2.93-8.85,5.72-13,1,12,6.72,24.52-5.48,34.49-1.54,1.26-2,3.56-.6,4.86,5,4.77,2.3,10.06,1.3,15.16-7,35.67-14.19,71.3-20.92,107-.79,4.21-3.42,7.48-4,11.59.46,15.66-5.51,30.31-7.32,45.62-.43,3.73-3.82,3.19-6.44,3.2-6.58.06-13.18,0-19.78,0-2.17,0-4.34.44-4.18,3.4.13,2.46,2.33,2.71,3.93,2.75,8,.16,16.09.07,25.08.07-2.62,11.49-4.94,21.56-7.25,31.65q-6.64,35.88-13.3,71.76c-.72,3.94-3.07,4-5.85,2.24-6.3-3.93-14-5.79-18-13-1-1.86-2.73-4-5-2.91-2.64,1.37-1.23,4.16-.69,6.33,1.79,7.12,7.42,10.24,13.37,13.56,15.71,8.81,15,3.78,8.95,22.84-5,16-13.75,30-24.74,42.63-3.4,3.9-6.6,7-12.12,3.2-1.53-1.05-4.36-1.67-5.77.32s.62,3.57,2.08,4.36c5.61,3.06,1.88,5.1-.72,7-16.82,12.38-35.63,20.27-56.39,22.08-15.57,1.35-31.28.9-46.94,1.32C1364.38,845.76,1361.29,845.43,1361.25,840.69Zm133-2.8c-11.76,27.24-32.41,40.67-62.32,39.46-6-.23-12,0-18,0-5.1,0-10.22,0-15.32,0-9.26.07-20.14,3.62-20.34-12.3-.06-4.55-5.48-6.72-10.06-7.83-2.37-.56-6.52.71-5.8-3.4.63-3.56,4.54-1.73,6.94-1.75q16.23-.2,32.45.13c28.77.5,54.41-8.49,76.56-26.46,7.56-6.13,11.7.11,16.64,2.44C1500.84,830.91,1495.54,835,1494.3,837.89Zm9.94-20.31c-1,2.07-1.5,5.52-4.36,4.81-3.32-.83-7.19-2.44-9.18-5s1.92-4.32,3.61-6.18c20.08-22,28.36-49,33.17-77.53,2.17-12.93,4.81-25.8,7.25-38.7l1.74.06c0,17.14,0,34.27,0,51.39,0,3.69-1.63,7-3.18,10.22Q1518.75,787.13,1504.24,817.58Zm53.11-41.44c2.65-5.77,5.11-7.67,10.31-3.17,3,2.57,8.3,2.32,9.3,7.27-.92,2-1.63,3.69-2.43,5.3-8.8,18.08-17.77,36.09-26.38,54.27-2.13,4.52-3.82,5.66-8.7,3-11.12-6-11.41-5.68-5.93-17.16C1541.42,809.12,1549.74,792.81,1557.35,776.14Zm-2.8-11.31c2.14,7.51-25.17,65-32.66,69.55-.41-8.73,7.47-14.3,7.58-22.35-5.26.29-4.09,5.46-6.18,8.14-2.65,3.36-2.68,8.66-9.32,9.51,10.82-22.77,21.63-45.52,33-69.46,3.93,5.54.89,8.16-.21,10.91-4.81,12.08-12.93,22.71-15.79,35.68,4.1-.38,4.07-4.27,5.37-6.75C1542.36,788.58,1547,776.35,1554.55,764.83Zm186.63-144.41c-.44,10.94-5.79,15.13-18.07,15.22-44.47.31-88.95.6-133.42.53-6.62,0-11.38,2-15.79,6.71-9.62,10.3-19.62,20.27-29.46,30.39-1.41,1.45-2.24,3.71-5.89,3.15,2.73-13.67,5.42-27.27,8.23-40.87.47-2.24,2.36-3.34,4.43-4.1,1.48-.53,3.18-2.1,1.62-3-7.1-4.2-2.53-9.73-1.71-14.43,2.15-12.39,5-24.67,7.55-37,7.55-38.93,15.21-77.83,22.48-116.8,1.12-6.08,2.63-5.77,7.27-3,3.73,2.22,8.43,2.95,12.79,4,2.4.58,5.1.27,5.79-2.79.75-3.29-1.54-3.94-4.24-4.28a48.8,48.8,0,0,1-7-1.56c-11.12-3.09-12.33-5.11-10-16.53,9.73-48.57-15.41-96.29-60.92-115.53q-12.45-5.26-25-10.15c-2.57-1-5.52-1.35-4.29-5.3,1.14-3.65,3.75-3.36,6.51-2.33,29.8,11.1,59.59,22.3,89.43,33.31,4,1.47,4,3.51,2.62,6.84-2.71,6.34-5.15,12.8-7.78,19.18-1.19,2.91-.87,5.92,2,7s3.94-2.06,4.81-4.27c2.52-6.4,4.78-12.93,7.42-19.3.79-1.89.72-5.57,4.25-4.53,2.33.68,2,3.4,2,5.51q-.06,19.86-.09,39.75c0,4.81.78,9.78-.15,14.41-3.38,17.13,5.32,28.45,17.24,38.68,4.36,3.75,9.26,3.87,14.36,3.89q38.4.13,76.8.24c11.75.05,14,2.31,14,14.37q0,25.74-.18,51.49c-.08,7.88,1,15,8.93,19.15a7.63,7.63,0,0,1,4.19,7.43c-.25,12.61-.45,25.23-.68,37.85C1742.52,589.24,1741.77,604.85,1741.18,620.42Z"/><path class="cls-2" d="M1424.27,429.79a35.89,35.89,0,0,1,8.4-23.71c1.29-1.59,3.12-3.52,5.32-2.29,3,1.65,1,4.23.24,6.27-.65,1.64-2,3-2.84,4.56-8,14.55-4.71,28.17,9,37.51,2.64,1.79,6.92,3.29,4.5,7.28-2.73,4.51-6.52,1.3-9.23-.64C1429.59,451.56,1423.55,442.08,1424.27,429.79Z"/><path class="cls-2" d="M1446.45,722.77c8.8,0,16.69,2,22.49,9.2,1.28,1.59,3.3,3.29,1.4,5.4-1.45,1.62-4,2.23-5.68.6-7.88-7.62-17.26-8.75-27.48-7.09-1.59.25-3.93.74-4.37-1.74a4.34,4.34,0,0,1,3-4.94C1439.28,723.3,1442.91,723.2,1446.45,722.77Z"/><path class="cls-2" d="M1076.59,738.46c5.28,4.94,10.79,9.32,18.64,9,2.46-.1,5.21.41,5.28,3.48.08,3.38-2.94,2.89-5.23,3.31-9.11,1.66-15.83-3.81-23.14-7.57-2-1.75-4.06-3.44-6-5.28s-4.34-3.79-1.82-6.77,4.78-.84,7,.61C1073.08,736.35,1074.85,737.39,1076.59,738.46Z"/><path class="cls-2" d="M1460.64,393.29c11,1.43,21,4.6,27.24,14.78,1.42,2.33,3.09,5.41.83,7.39-2.7,2.38-4.87-.76-6.55-2.58-6.28-6.78-13.58-11.58-23-12.68-2.63-.3-6.1,0-5.69-3.88C1454,391.72,1458,393.72,1460.64,393.29Z"/><path class="cls-2" d="M1392,747.4c2.71.4,3.57,2.14,3.83,4.42a98.53,98.53,0,0,0,8.37,29.22c.71,1.6,2.11,4.26-.57,5.55-2.84,1.37-4.38-.94-5.75-3-6.52-9.53-8.28-20.42-8.82-31.61C1388.92,749.93,1389.32,747.75,1392,747.4Z"/><path class="cls-2" d="M1415.3,752c.33-1.58.93-4.81,1.71-8,.51-2.11,1.34-4.38,4.17-3.39a3.93,3.93,0,0,1,2.59,5.13c-3.41,10.29,1.19,18.08,7.69,25.3,1.7,1.89,3.54,4.08,1.73,6.3-2.26,2.78-5.19,1-7.14-.75C1419.29,770.5,1415.24,763,1415.3,752Z"/><path class="cls-2" d="M1447.75,695.26c11.29.66,21.15,3,29.93,8.77,1.89,1.24,4.82,2.76,3.24,5.52-1.38,2.39-4.38,1.76-6.49.59a71.6,71.6,0,0,0-26.51-8.12c-3.1-.37-8,.48-7.62-3.88C1440.67,694.19,1445.65,695.81,1447.75,695.26Z"/><path class="cls-2" d="M1432.28,357.85c-.14.25-.45,1.58-1.27,2.09-1.57,1-2.92-.14-3.76-1.39-6.5-9.69-13.07-19.35-18.19-29.88-.69-1.42-1.15-2.9.07-4.11,1.49-1.46,3.36-1.06,5-.28C1417.23,325.7,1432.42,353.19,1432.28,357.85Z"/><path class="cls-2" d="M1413.45,668.09c8.06-5.13,16.06-10.36,24.22-15.31,2.24-1.37,5-5.09,7.52-1.53,1.74,2.47-1.51,4.67-3.42,6.52l-3.19,3.08c-6.69,4.34-13.35,8.74-20.09,13-2.15,1.35-4.63,3.85-7.15,1.47C1407.93,672.08,1412.18,670.36,1413.45,668.09Z"/><path class="cls-2" d="M1475.59,755.7c.19,11.17-9.31,23.1-20.43,25.67-1.9.44-4.49,1.94-5.72-.45-1.42-2.75.85-4.25,3.16-5.33,9-4.2,15-10.73,16.53-20.84.34-2.2.45-5.39,3.88-4.81S1475.07,753.72,1475.59,755.7Z"/><path class="cls-2" d="M1397.88,731.52c-3,.06-3.11-2-2.84-4.24.88-7.37,17.58-24.74,25.41-26.53,1.45-.32,2.9-1,4,.67s1.11,4.08-.25,5c-9.74,6.57-18.59,13.94-24.59,24.27C1399.33,731.1,1398.54,731.21,1397.88,731.52Z"/><path class="cls-2" d="M1026.08,709.17c11.71.06,20.71,5.91,24.13,14.65.81,2.07,1.14,4.13-.92,5.65-2.34,1.72-4.24.19-5.23-1.61-5.17-9.46-12.21-14.35-23.4-10.75a3.11,3.11,0,0,1-3.95-2.71c-.38-2.28.52-4.36,2.91-4.81A39.67,39.67,0,0,1,1026.08,709.17Z"/><path class="cls-2" d="M1493.13,435.91c-.53,11.5-12.83,24.78-24,26.65-2.28.39-4.3.76-5-2a3.23,3.23,0,0,1,2.33-4.21c10.91-3.05,17-10.47,19.7-21.19a4.45,4.45,0,0,1,5.55-3.37C1493.91,432.38,1492.89,434.78,1493.13,435.91Z"/><path class="cls-2" d="M1450.32,375.9c-1.48-.18-3-.34-4.44-.57-1.77-.26-3.77-.44-3.76-2.87,0-2.28,1.76-3,3.65-2.94,11.32.7,17.46-5.94,22-15.13,1-2.12,2.21-4.68,5.32-3,2.32,1.23,1.69,3.46,1.29,5.54C1472.3,367.5,1461.16,376.34,1450.32,375.9Z"/><path class="cls-2" d="M1367.8,299.51c10.69.54,19.87,2.73,28.35,7.53,1.9,1.07,3.81,2.44,2.9,4.86-1,2.66-3.81,1.85-5.38,1.22-10.3-4.13-20.75-7.34-32-7a2.94,2.94,0,0,1-3.21-2.5c-.22-2,1.3-3.3,3.27-3.58C1364.06,299.7,1366.45,299.62,1367.8,299.51Z"/><path class="cls-2" d="M1249.06,747.2c7.22-.89,15.25.37,21,7.9,1.18,1.55,3.15,3.29,1,5.41-1.43,1.41-3.8,1.57-4.85.18-7.14-9.4-17.34-5.72-26.49-6.56-2.93-.27-7.55,1.51-7.33-3.74.19-4.34,4.36-3,7.11-3.15S1244.86,747.2,1249.06,747.2Z"/><path class="cls-2" d="M1032.34,306.21c-5.72,0-11.44,0-17.17,0-2,0-3.71-.59-3.89-2.77s1.57-3.21,3.49-3.26c11.74-.33,23.48-.56,35.22-.77a3.28,3.28,0,0,1,3.59,3.23c.26,2.93-1.76,3.48-4.07,3.49-5.72,0-11.44,0-17.17,0Z"/><path class="cls-2" d="M1205.54,306.22c-5.42,0-10.83,0-16.25,0-2.24,0-4.44-.15-4.4-3.1,0-2.28,1.91-3,3.76-3q17.6-.41,35.19-.6c2.12,0,3.27,1.43,3.28,3.5,0,2.24-1.48,3.12-3.52,3.13-6,0-12,0-18.06,0Z"/><path class="cls-2" d="M1446.64,809.56c-9.92-.56-18.85-1.31-26.9-5.92-2.39-1.36-5.44-2.78-4-5.94,1.58-3.42,4.56-1.47,6.92-.35,7.4,3.54,15.24,5.08,23.37,5.6,3.38.22,8.86-.55,8.56,4C1454.28,812,1448.89,809.12,1446.64,809.56Z"/><path class="cls-2" d="M1263,306.22c-5.09,0-10.19.1-15.28-.05-2.17-.07-5.32,1-5.7-2.59s2.76-3.51,5-3.58c11.09-.3,22.18-.35,33.27-.61,2.67-.06,4,1.21,4.1,3.59.15,2.92-2,3.19-4.27,3.18-5.69,0-11.39,0-17.09,0Z"/><path class="cls-2" d="M1361.26,741.05q0,8.58,0,17.14c0,2-.67,3.63-2.91,3.77-2.41.15-3-1.7-3-3.57-.28-11.41-.51-22.81-.63-34.22,0-2.08,1.35-3.25,3.58-3a3.25,3.25,0,0,1,3.17,3.6c0,5.41,0,10.83,0,16.24Z"/><path class="cls-2" d="M1089,306.2c-5.39,0-10.79,0-16.19,0-2.11,0-4.39,0-4.28-3.14.08-2.45,2-2.83,3.78-2.88,11.68-.32,23.36-.5,35-.78,2.33-.06,3.24,1.41,3.51,3.26.43,2.89-1.52,3.51-3.87,3.51h-18Z"/><path class="cls-2" d="M1288.91,793.66a19.15,19.15,0,0,0-5.27-15.4c-1.47-1.62-3.68-3.78-.93-6.06,2-1.67,3.91-.13,5.61,1.06,6.57,4.61,10.7,28,6.17,34.26a2.61,2.61,0,0,1-3,1.18,3.2,3.2,0,0,1-2.57-3.23C1288.87,802.2,1288.91,798.92,1288.91,793.66Z"/><path class="cls-2" d="M1361.22,800.94c0,5.38,0,10.76,0,16.14,0,1.76-.22,3.8-2.55,4.11s-3-1.32-3.21-3.29c-1.54-11.94-.7-23.87.06-35.8.11-1.65.7-2.88,2.67-2.72,2.26.17,3.06,1.64,3.07,3.63C1361.26,789,1361.24,795,1361.22,800.94Z"/><path class="cls-2" d="M1185.89,754.56a35.39,35.39,0,0,1-3.57-.37c-2.65-.51-6.82,1.45-7.24-3.08-.51-5.55,4.61-3.08,7.18-4.27,9.61.12,19.21.21,28.81.37,2.31,0,5.27-.57,5.53,2.92.3,3.93-2.67,4-5.51,4C1202.69,754.28,1194.29,754.43,1185.89,754.56Z"/><path class="cls-2" d="M1322,306.23c-5.39,0-10.78,0-16.17,0-2,0-4.39.33-4.4-2.89,0-3,2.18-3.41,4.27-3.45,11.07-.18,22.15-.24,33.22-.29,2.22,0,4.23.44,4.32,3.32.1,3-2,3.25-4.18,3.25-5.68,0-11.37,0-17.06,0Z"/><path class="cls-2" d="M1148,306.23c-5.09,0-10.19.07-15.28,0-1.91-.05-4.56.72-4.82-2.47-.28-3.39,2.3-3.86,4.74-3.9,10.78-.16,21.56-.19,32.34-.28,2.63,0,4.89.46,4.71,3.83-.17,3.12-2.6,2.75-4.63,2.76-5.68.05-11.37,0-17.06,0Z"/><path class="cls-2" d="M1365.28,709.07c-.56-.31-1.91-.72-1.92-1.15,0-1.39,0-3.36.81-4.11a169.65,169.65,0,0,1,29.21-20.38c1.29-.72,2.93-.9,4,.52a2.3,2.3,0,0,1-.45,3.21c-9.39,8.32-19.87,15.13-30.56,21.63A4.63,4.63,0,0,1,1365.28,709.07Z"/><path class="cls-2" d="M495.51,429.51c.14,14.53-7,23.8-18.29,30.54-2.06,1.23-4.72,2.67-6.45.22-2-2.78.11-4.56,2.51-6.47,17.52-13.94,19.27-23.35,8.53-43.13-1-1.91-3.85-4.14-1.25-6.22,3-2.4,5.72-.1,7.57,2.37C493.34,413.74,495.94,421.55,495.51,429.51Z"/><path class="cls-2" d="M558.47,819.34c0-11.41,0-22.82.12-34.22,0-2.47-.57-6.2,3.46-6,3.36.19,2.56,3.67,2.61,5.81.28,11.4.32,22.8.44,34.2C563,822.22,560.74,821.68,558.47,819.34Z"/><path class="cls-2" d="M462.11,393.38c1.41.24,4-.22,4.35,2.62.32,2.67-1.73,3.73-3.94,3.88-10.48.74-18.82,5.13-24.78,13.9-1.47,2.17-3.72,3.67-6.07,2-3-2.14-1.13-4.76.33-7C438.92,398.05,449.17,393.63,462.11,393.38Z"/><path class="cls-2" d="M510.82,328.68c-3.51,5.9-7.32,13-11.85,19.67-2.86,4.2-6.13,13.2-9.7,10.81-5.28-3.54,1.28-9.86,3.6-14.6,3.15-6.42,7-12.52,10.73-18.61a4.49,4.49,0,0,1,5.43-2.13C510.68,324.38,511.17,325.74,510.82,328.68Z"/><path class="cls-2" d="M450.44,462c-11.34-1.32-23.07-13.65-23.71-25.09-.1-1.85-1.18-4.59,1.92-5.12a3.81,3.81,0,0,1,4.24,2.71c3.12,10.88,9.8,18.29,20.56,22.09a3.12,3.12,0,0,1,1.81,4.46C454.19,463,452.18,462.28,450.44,462Z"/><path class="cls-2" d="M846.17,736.48c3.43,0,6.9-6.58,9.8-1.31,2.33,4.25-3.07,6.28-6,8.58-2.55,2-5.25,3.86-7.88,5.79-5.46,3.32-11.2,5.51-17.78,4.76-2.51-.29-5.1-.68-5.28-3.63s2.67-3.12,4.54-3.07C833.16,747.87,839.64,742.19,846.17,736.48Z"/><path class="cls-2" d="M470.22,375.84c-12.83-.42-20.84-6.26-24-17.07-.83-2.81-2.77-6.35,1-7.79,3.11-1.2,4.18,2.47,5.38,4.77,3.94,7.46,8.81,13.54,18.29,13.65,2.77,0,7.17-.74,6.4,3.79C476.65,376.77,472.46,375.58,470.22,375.84Z"/><path class="cls-2" d="M552,300c1.79,0,3.58,0,5.37,0,2,.06,3.41.9,3.33,3.21s-1.7,2.82-3.64,2.94c-10.76.66-21.24,2.49-31.21,6.9-1.53.68-4.4,1.85-5.31-1.05-.75-2.41,1.44-3.74,3.24-4.8A53.31,53.31,0,0,1,552,300Z"/><path class="cls-2" d="M886.78,306.22c-5.4,0-10.8,0-16.2,0-2,0-4.43.36-4.76-2.69s1.93-3.41,4.06-3.45c11.4-.17,22.79-.23,34.19-.36,2,0,3.51.53,3.66,2.87.19,2.8-1.33,3.62-3.85,3.59-5.7-.07-11.4,0-17.1,0Z"/><path class="cls-2" d="M713.92,306.19h-18c-2,0-3.51-.58-3.6-3s1.64-3.06,3.5-3.09c11.72-.24,23.44-.34,35.17-.55,2.33,0,3.19,1.17,3.3,3.26.16,3-1.72,3.35-4.09,3.33-5.41-.06-10.82,0-16.24,0Z"/><path class="cls-2" d="M596.76,306.24c-5.08,0-10.17,0-15.26,0-2.31,0-5.17.48-5.22-3.16,0-3,2.5-3.12,4.48-3.14,11.36-.11,22.73-.08,34.1,0,1.92,0,3.49.7,3.4,3.13s-1.58,3-3.54,3.05c-6,.05-12,0-18,0Z"/><path class="cls-2" d="M771.66,299.79c5.39,0,10.78-.05,16.17,0,2.23,0,4.21.6,3.93,3.56-.23,2.45-2.06,2.7-3.88,2.71-11.38.07-22.76.07-34.14.11-1.91,0-3.65-.27-4-2.61-.39-3,1.75-3.59,3.92-3.63,6-.13,12,0,18,0Z"/><path class="cls-2" d="M656.09,299.5c5.38,0,10.77.14,16.14-.05,2.87-.1,4.84.72,4.88,3.71s-2.28,3-4.47,3c-10.76,0-21.53.07-32.29.08-2.39,0-5.35.24-5.45-3.07-.12-4,3.47-3.46,5.94-3.56,5.07-.22,10.16-.07,15.25-.07Z"/><path class="cls-2" d="M829.93,306.23h-17c-2.27,0-4.34-.43-4.54-3.14-.21-3,2.36-3.32,4.31-3.36,11.36-.2,22.72-.16,34.08-.29,2.73,0,3.92,1.53,3.89,3.81,0,2.87-2.39,2.91-4.56,2.91H829.93Z"/><path class="cls-2" d="M781.58,754.2H765.45c-2.27,0-4.26-.58-4.59-3.2-.36-2.92,1.82-3.56,4-3.59,11-.14,22.11-.17,33.16-.16,2.21,0,4.43.64,4.2,3.43-.2,2.48-2.2,3.39-4.48,3.42-5.38,0-10.76,0-16.14,0Z"/><path class="cls-2" d="M558,729.25c1.12-2.82-1.54-8.23,4.09-7.87,4.57.29,2.38,5,3.17,7.81a29.55,29.55,0,0,1,.55,3.41c-.22,6-.07,12-.78,17.87-.49,4,2,11.21-3.16,11.26-6.19.06-3-7.11-3.33-11C557.81,743.61,558.08,736.41,558,729.25Z"/><path class="cls-2" d="M506.14,667.79c.85,2.26,5.34,3.31,2.87,6.52-2.32,3-5.26,1.6-7.94-.22-7.69-5.23-15.43-10.37-23.16-15.54-1.31-2.54-4.44-4.29-3.14-8.81C486.73,653.29,495.41,662.44,506.14,667.79Z"/><path class="cls-2" d="M462.85,641.09c-1.07,3.2-3.2,3-5.13,1.91a129.35,129.35,0,0,1-11.47-6.93c-5.82-4.05-12.6-3.1-19-4.15-1.66-.28-3.76-.23-4-2.67s1.49-2.91,3.37-3.16c13.21-1.76,24.92.91,33.88,11.55A35.11,35.11,0,0,1,462.85,641.09Z"/><path class="cls-2" d="M674.88,747.4c3.18,1.82,12-4.23,11.88,3.68-.06,6.19-8.45,2.51-13,2.92-7.09.65-14.48-.9-19.61,6.16a3.43,3.43,0,0,1-5.54.13c-1.76-2.12-.12-4,1.21-5.54C656.18,747.32,664.73,746.5,674.88,747.4Z"/><path class="cls-2" d="M724.85,747.28c5.42,0,10.84,0,16.25,0,1.91,0,3.68.45,3.92,2.77.28,2.72-1.39,3.84-3.8,3.86q-17.15.18-34.3.2c-2.47,0-4.22-1.32-4-3.82.23-2.71,2.62-2.93,4.79-2.94,5.71,0,11.43,0,17.15,0Z"/><path class="cls-2" d="M635.31,771.42c3.34.09,4.09,3.14,2.25,4.68-8.89,7.47-6.06,17.51-6.76,26.82-.18,2.44.62,6.17-3.62,5.8-3.06-.26-3.39-3.22-3.18-5.63.79-9-2.6-18.82,4.56-26.8C630.39,774.25,632.22,772.29,635.31,771.42Z"/><path class="cls-2" d="M1485.05,626c3.6,1.12,10.53-2.36,10.7,2.63.2,6-6.87,4.2-10.85,3.93-8.42-.58-13.74,5.05-20.13,8.66-2.22,1.25-5.11,3.95-7.07,1.17s1.59-4.63,3.47-6.29C1468,630.11,1474.72,624,1485.05,626Z"/><path class="cls-2" d="M211.51,512.46c0-5.72-.06-11.43,0-17.15,0-2.32,1.1-4.33,3.68-4.15,2.32.15,2.32,2.48,2.4,4.18.5,11.43.91,22.86-.18,34.28-.16,1.65-.06,4.07-2.66,3.78a3.69,3.69,0,0,1-3.2-3.81c-.09-5.71,0-11.42,0-17.13Z"/><path class="cls-2" d="M239.84,568.77c-9.23,1.89-18.5,1.55-27.79.38-1.52-5.33-.73-10.75-.63-16.14,0-2.24.72-4.44,3.46-4.29,2.44.13,2.53,2.52,2.28,4.14-1.67,11,4.93,11.25,13,10.8C233.87,563.45,240,560.73,239.84,568.77Z"/><path class="cls-2" d="M296.24,569.32l-40.54.35c-1.06-2.79-1.62-5.42,2.59-5.81,11.67-1.08,23.36-.68,35-.27C297.72,563.74,296.85,566.61,296.24,569.32Z"/><path class="cls-2" d="M275.91,454.3c5.39,0,10.78-.07,16.16,0,1.87,0,4.5-.87,4.66,2.54.11,2.51-1,4.19-3.53,4.21-11.37.1-22.74.12-34.11-.07-2.06,0-4.23-1.21-4-3.89.2-2.92,2.62-2.82,4.7-2.84,5.39-.06,10.78,0,16.17,0Z"/><path class="cls-2" d="M224.55,454.23c1.89,0,3.16-.26,4.27,0,3.25.92,9.21-2.68,9.19,3.41,0,4.56-5.56,3.65-8.82,3.35-8.15-.76-13.49.82-11.85,10.71.24,1.5.5,3.94-2.08,4.15s-3.61-1.78-3.73-4c-.24-4.17-1.07-8.5-.28-12.5C213,450.64,220.51,455.88,224.55,454.23Z"/><path class="cls-2" d="M311.61,573.52c0,10.82.21,21.65-.06,32.46-.07,2.69,2,7.59-3.62,7.32-4.67-.22-2.87-4.51-3-7.09-.37-9.58-.39-19.18-.53-28.77C305.77,574.2,305.82,568.59,311.61,573.52Z"/><path class="cls-2" d="M890.75,731.6c-5.7,0-11.4.06-17.1,0-2.06,0-4.53-.08-4.72-3s2-3.33,4.24-3.35q17.1-.1,34.19-.16c2.18,0,4.37.11,4.49,3.06.15,3.65-2.41,3.43-4.9,3.41-5.4-.05-10.8,0-16.2,0Z"/><path class="cls-2" d="M1707.53,568.78c-9.25,1.84-18.54,1.51-27.84.44-1.35-4.92,2-5.62,5.48-5.78a48.85,48.85,0,0,1,9,.24c6.17.84,9.31-.87,7.79-7.75-.66-3-.84-6.83,3.26-6.87,3.48,0,3.18,3.73,3.1,6.36C1708.16,559.88,1707.8,564.33,1707.53,568.78Z"/><path class="cls-2" d="M1663,569.73l-39.53-.22c-2.27-3.21-2.29-5.56,2.43-5.66,11.36-.26,22.72-.58,34.08-.53C1664.54,563.33,1665.81,565.79,1663,569.73Z"/><path class="cls-2" d="M1644,454.16c5.4,0,10.81,0,16.22,0,2.09,0,4.39-.07,4.3,3.09-.07,2.71-1.88,3.72-4.14,3.75q-16.67.21-33.34.18c-2.25,0-4.25-1-4.33-3.61-.12-3.65,2.69-3.31,5.06-3.32,5.41,0,10.82,0,16.23,0Z"/><path class="cls-2" d="M1615.28,579.3c-.21,9.89-.4,19.77-.68,29.66-.06,2,.45,4.56-2.57,4.86-3.61.36-3.66-2.49-3.71-4.85-.24-10.49-.35-21-.51-31.46,1-2.13-.11-6.31,3.55-6C1615.67,572,1614,576.63,1615.28,579.3Z"/><path class="cls-2" d="M1708.21,513c0,5.39,0,10.78,0,16.17,0,1.8-.29,3.93-2.45,4.23s-3.06-1.54-3.31-3.44c-1.56-11.94-.43-23.9-.07-35.86.05-1.49.87-3.08,2.76-2.83a3.51,3.51,0,0,1,3.09,3.76C1708.27,501.06,1708.23,507.05,1708.21,513Z"/><path class="cls-2" d="M1695.11,454.27c14-.1,15.09,1.27,13.32,16.74-.27,2.35,0,5.26-3.59,4.95-3-.25-3-3.15-2.67-4.85,2.18-10.11-3.55-10.65-11.1-10-3.59.31-9.39,1.45-9.36-3.81,0-5,5.71-2.33,8.89-3A22.62,22.62,0,0,1,1695.11,454.27Z"/><path class="cls-2" d="M526.7,683.13c1.46,1,4.25,2.68,6.95,4.55Q544,694.82,554.3,702.1c2,1.41,4.11,3.44,2.47,5.93-1.3,2-3.93,1.27-5.69,0-8.83-6.19-17.62-12.45-26.3-18.86-1.58-1.17-3.29-2.84-2.4-5.35C522.86,682.47,523.88,682.13,526.7,683.13Z"/><path class="cls-2" d="M1138.79,747.12c5.42,0,10.85,0,16.27,0,2.29,0,4.4.23,4.29,3.17-.09,2.46-1.59,3.79-4.11,3.8-11.14,0-22.28.1-33.42.09-2.28,0-4.37-.79-4.45-3.43-.11-3.6,2.86-3.32,5.16-3.38,5.42-.12,10.84,0,16.26,0Z"/><path class="cls-2" d="M342.5,631.73c-10.16,0-20.33,0-30.49-.05-1.91,0-4.75.58-4.94-2.4-.22-3.53,2.84-3.26,5.13-3.27,10.17-.07,20.36-.08,30.53.08,2.41,0,6.17-1.14,6.29,2.93C349.15,633.54,345.53,632.92,342.5,631.73Z"/><path class="cls-2" d="M1591.3,631.51c-5.37.36-10.72.87-16.09,1-2,0-4.4-.51-4.57-3.24-.19-3,2.12-3.24,4.28-3.24,10.79,0,21.58,0,32.37.05,2.35,0,5.33,0,5.17,3.42-.16,3.11-3.16,2.13-5,2.2-5.39.2-10.79.07-16.18.07C1591.31,631.68,1591.31,631.6,1591.3,631.51Z"/><path class="cls-2" d="M406.93,286.23c-4.14,4.66-10.23,5.21-15.57,7.22q-31.16,11.73-62.51,22.92c-2,.72-4.49,3.48-7.07.64-.19-2.2,1.75-2.09,3-2.54Q364,300,403.29,285.67C404.53,285.22,406,284,406.93,286.23Z"/><path class="cls-2" d="M1529.26,812.2c-3.11-3.11-.28-4.26,1.85-5.64C1533.87,809.55,1531.48,810.85,1529.26,812.2Z"/><rect class="cls-1" x="920.63" y="306.63" width="77.26" height="418.65" rx="6.03"/><path d="M843.69,466.75v111H823.86V507L804.35,522l-16.18,12.53L772,522,752.49,507v70.74H732.66v-111L752.49,482l35.68,27.44L823.86,482Z"/><path d="M961.06,521.79a32.76,32.76,0,0,1-23.48,55.52H892.06a32.59,32.59,0,0,1-30.14-20,34.46,34.46,0,0,1-2.54-12.85V499a32.14,32.14,0,0,1,8.25-21.41,33.68,33.68,0,0,1,9.52-7.46,31.42,31.42,0,0,1,14.91-3.65h69v19.83h-69a13.07,13.07,0,0,0-13,13v15.54a32.68,32.68,0,0,1,12.38-2.54h46.79a32.78,32.78,0,0,1,23,10Zm-23.64,35.69a13.07,13.07,0,0,0,13-13,12.9,12.9,0,0,0-12.21-13H891.43a13,13,0,0,0,.63,26h45.36Z"/><path d="M1074.3,486.42A34.47,34.47,0,0,1,1078,502v75.66h-19.83V500.06a15.8,15.8,0,0,0-13.48-13.48H986.43V466.75h56.31a34.47,34.47,0,0,1,15.54,3.65,35.17,35.17,0,0,1,16,16.18Z"/><path d="M1181.68,486.42a34.47,34.47,0,0,1,3.65,15.54v75.66H1165.5V500.06A15.8,15.8,0,0,0,1152,486.58h-58.21V466.75h56.3a34.48,34.48,0,0,1,15.55,3.65,35.17,35.17,0,0,1,16,16.18Z"/></g></g></svg>