<svg xmlns="http://www.w3.org/2000/svg" viewBox="0 0 1920 1080"><defs><style>.cls-1{fill:#020202;}.cls-2{fill:#f2f2f2;}</style></defs><g id="Capa_2" data-name="Capa 2"><g id="Capa_1-2" data-name="Capa 1"><path class="cls-1" d="M1676.63,508.11a23.31,23.31,0,0,0-1.68-8.53,23,23,0,0,0-4.7-7.29c-16.52-13.43-16.52-13.43-39.41-13.45-11.66,0-23.31.17-35,0-16.88-.28-25.37-8.6-25.59-25.37q-.39-31.67-.13-63.3c.17-18.62-7.16-31.82-25.22-38.67-11.39-4.29-22.25-9.9-33.51-14.58C1375,280,1234.31,240.24,1086,230.93c-37.73-2.37-75.48-3.92-113.21-3.92l-37.08-.59c-60.56-.58-152.57,6.06-152.57,6.06-59.87,9.94-119.16,20.57-177.45,36.39-78.72,21.35-155.08,49.05-229.67,82-18.78,8.3-27,21.37-26.67,41.37.39,20.5.22,41.05,0,61.57-.22,16.69-8.78,24.84-25.74,25-11.09.13-22.21.35-33.29-.06-15.16-.54-30-.67-40.08,14.75-6.64,7.54-7.44,21.71-7.44,21.71L242,585.4c3,28.93,27.08,50.41,56.53,50.47,13.28,0,26.77,1.53,39.8-.3,30-4.25,48.85,7.78,58.64,35.7l33.05,57c8.9,14.58,18.43,28.85,26.58,43.85,12.57,23,27.51,44.07,47.17,61.64,3.47,3.11,6.38,6.88,12,13.07C528.4,858,585.08,852,585.08,852c37.73-15.46,75.24-31.41,113.9-44.54,50.77-17.25,102.1-31.89,156-35.51,40.81-7.14,81.93-8.95,123.26-6.81,26.9-.52,53.68,1,80.22,5.86a513.5,513.5,0,0,1,113.83,21.52c50.49,13,98.46,33,146.38,53,24.69,10.31,50.49,8.45,75.07,3.58,20.78-4.12,31.69-24.84,45.43-39.73,7-7.63,11.9-17.27,17.46-26.2,3.58-5.75,6-12,14.81-6,6,4.12,8.43-1.57,11-6,9-15.24,18.28-30.38,27.31-45.62,1.38-2.3,3.6-6.64,2.89-7.33-22.92-21.62,7.37-31.34,10.33-47,9.61-26.75,27-40.1,56.83-35.72,13.56,2,27.64.34,41.46.34A56.7,56.7,0,0,0,1678,585.36C1677.56,559.62,1676.8,533.85,1676.63,508.11Zm-219,247.41c-1.89,3.19-4.31,5-8.06,2.46-2.59-1.75-6.47-2.46-5-8.34,8.21-14.71,16.75-30.77,26.13-46.33,3-4.94,6.66.56,9.89,1.66,4.29,1.44,4.19,4.37,2.2,7.78Q1470.19,734.13,1457.61,755.52Zm-32.85-79.94c7-2,11.66,4.68,17.37,7.38,3.73,1.76,2.4,5.21.56,8.4-5.86,10.33-11.47,20.81-17.18,31.2-1.16-.39-2.35-.8-3.51-1.21,0-11.83-.15-23.67.1-35.51C1422.17,682.27,1420.4,676.85,1424.76,675.58Zm-20.68,77.16c-15.78-22.4-9.14-42.47,3.82-62.6,1.49-2.33,2.93-4.68,4.4-7l3.23.19c0,31.76.06,63.51-.11,95.29a12.86,12.86,0,0,1-2.67,7.55c-4.31,5.24-8.65,15.61-15.35,11.47-5.84-3.58-1.55-12.62,3.69-18.65C1407.83,771.2,1409.86,760.93,1404.08,752.74ZM1398,692.92c-2.57-8.45-3.64-16.39-.82-24.47v-3.39a22,22,0,0,1-.06-15.95,15.12,15.12,0,0,1,0-10.82,201.58,201.58,0,0,1-.1-49c-.39-40.38-.93-80.74-1.13-121.1s.59-80.86-.4-121.29c-.42-15.91,4-17.29,17.59-11.88,22,8.8,44.88,15.48,67.11,23.81,52.37,19.59,67.29,79.59,28.24,119.6-28.65,29.35-47.13,64.75-67.69,99.15-2.44,4.08-.89,8.71-4,12.12-7.85,24-15.89,47.78-19.62,73C1415.34,674.38,1402.64,681.23,1398,692.92Zm49.46,9.07c2.32,1.81-.22,3.26-1.47,4.57-1.53,4.77-3.06,9.51-7.42,12.59-.58,1.6-.6,4.64-3.25,2.72-2.37-1.72.23-3.19,1.42-4.53,1.19-5,3.32-9.35,7.22-12.78C1444.59,703,1444.81,700,1447.42,702Zm1.74-8.34c1.4-1.32,2.8-2.61,4.21-3.92,1.89,2.6,1.31,4.63-1.43,6.2-.64,1.69-.84,4.64-3.6,2.83C1445.86,697.12,1448.51,695.33,1449.16,693.65Zm-15,33.8c-.45.43-.82.8-1.19,1.19a11.49,11.49,0,0,1-1-2.24c-.07-.28.67-.74,1-1.1C1433.42,726,1433.81,726.74,1434.2,727.45Zm-5.13,8.93c-.93,3.69-1.42,7.63-6.17,9.33-.86-4.7.87-8.21,4.53-11,.54-1.58.56-4.57,3.17-2.65C1433,733.79,1430.43,735.19,1429.07,736.38Zm-6,27.4c1.16-4.16,2.82-7.95,7.65-11.06,2.61,7-1.62,10.07-5.26,13.35-1,.6-1.92,1.18-2.89,1.76C1422.73,766.48,1422.9,765.14,1423.08,763.78Zm6-12.09q8.28-14.21,16.56-28.38c4.68-9.83,9.23-19.72,17.85-27.35-2.26,11.25-7.8,21-14.51,30.26C1444.79,736.18,1440.84,746.34,1429.11,751.69ZM1502.52,725c-7.81,12.74-17.25,28.37-27,43.81-1.34,2.13-4.1,1.42-5.74-.35-1-1.06-2.24-3.23-1.78-4q13.48-23.81,27.42-47.3c1.4-2.35,3.94-1.81,5.73-.3C1502.67,718.1,1505.3,719.11,1502.52,725Zm160.94-136.45c-3.86,18.11-22.53,34-40,34-17.75,0-35.53.91-53.19-.21-24.34-1.58-41.89,7-52.22,29.58-2.26,4.89-6,9.12-9,13.66-17.94,37.24-18,37.3-53,17.19-7.11-4.1-13.88-8.8-20.82-13.2-9.58-.08-12.12-5-10.22-13.9,5-23.7,10.58-47.17,21.9-68.88a334.45,334.45,0,0,1,65.65-103c43.2-46.18,27.4-110.53-32.21-132.09-102.08-37-205-71.19-312.84-87.62-51.57-7.87-103.51-11.36-155.7-12.85-131.75-3.7-262.09,4.38-389.57,41-63.28,18.15-126,38.09-187.78,60.77-53.12,19.51-68.88,87.4-29.64,128.6,29.06,30.53,51.54,64.81,67.2,103.76,13.69,27.23,22.22,55.88,23.67,86.48,3.27,19,1.89,38,.79,57,1.47,5.3,1.73,10.58-.25,15.82q.51,20.12,1,40.19c8.28,13.34,18.46,26.1,31.13,34.17,19.75,12.54,43.21,10.19,63.58,1.46,56.66-24.29,113.51-48,173.83-61.16,63.66-13.82,128.15-17.72,193.66-19.27,130.28-3,251.44,27.14,368.45,80.76,33.5,15.35,68.66,2.61,92.1-32.13,5.28-7.8,10.3-15.78,15.47-23.67,2.59-3.94,5.8-4.59,9.9-2.13s4.64,5.45,2.44,9.66c-13.18,24.92-29.69,49.28-54,61.74-20.42,10.46-46.78,8.52-69.4-.8-65.06-26.82-130.26-53.14-199.7-66.59-46.89-9.1-94.3-13.28-142.14-15.14-130.92-5-255,22.77-373.44,76.73-24.69,11.26-49.44,10-74.81,9.6-6.55-.11-11.06-4.23-15.76-8.28-30.55-26.26-49.8-60.39-67.35-95.75-12.76-17.31-23-36.15-32.86-55.17-6.31-10.28-13.21-20.24-18.82-30.89C390,629.9,375.4,621.9,355.13,622.44c-18.78.5-37.58.13-56.35.13s-34-11.06-41.48-30c-2.87-26.54-1.58-53.18-.91-79.72.32-12.7,9.36-20.61,23.07-20.72,15-.13,30,.06,44.93,0,23.82-.2,38.16-14.43,38.29-38,.13-20.53.43-41-.15-61.58-.46-15.37,6.25-24.1,20.3-30.33C555,285.84,733.94,243.46,923.3,239.81c211.14-4.07,412.7,32.73,605.67,118.47,20.85,9.27,30.83,20.57,28.4,43.74-1.73,16.45-.41,33.25-.28,49.89.19,26.8,13.75,40.08,40.85,40.16,13.32.07,26.65-.08,40,.05,16.19.15,26,9.24,26.13,24.94C1664.15,540.9,1663.67,564.73,1663.46,588.57Zm-1132.54,210c-1.23-8.45,3-9.39,10.44-9.89,14.87-1,22.81-10.5,23.73-25,.87-13.48-9.22-24.11-24.57-25.89-6.19-.74-11.45-.59-8.76-9.08q0-28.33,0-56.66,0-43.31,0-86.6c-.24-82.7-.32-165.4-.86-248.12-.07-8.45,3.51-11.32,10.65-13.73C675.63,278.29,813.13,255.66,955,257.47c92.34,1.18,184.09,5.09,274.57,24.94,50.39,11,99.67,26,148.91,41.18,7.35,2.26,10.69,5.41,10.65,13.71-.52,82.7-.62,165.42-.84,248.12l-.06,86.54c.23,4.42.66,8.82.69,13.22.19,25.69.15,25.69-24.28,32.51-23.76,6.62-36.31,25.8-33.87,51.85,2.16,22.91,20.61,40.48,44,42.17,4.25.3,8.8-1.64,14.68,2.71-18.73,7.55-38.18,8.8-53.81,2a1578.07,1578.07,0,0,0-164.19-61l-113.1-19.28q-40-2.26-80.07-4.48c-70.54,0-153.39,10-153.39,10-17.81,3.54-35.88,5.93-53.81,8.82A993.91,993.91,0,0,0,588.83,815.2c-15.93,7.44-32.7,4-49,3.15C527.58,817.7,532,806.14,530.92,798.55ZM530.41,763c2.88-7-5.22-19.21,9.89-18.54,11,.5,17.68,7.2,17.79,18.07.11,11.29-5.82,19.29-17.94,19.53C523.53,782.34,534.61,768.76,530.41,763Zm849.42,25.83c4.83.58,9.87-1.29,9.57,7-.28,7.59-4.1,9.08-10.48,9.49-21.75,1.44-42.17-18.78-42-42,.13-23.75,19.82-42.75,42.65-41.19,5.13.34,9.83.3,9.76,7.84-.06,6.86-3,7.85-9.07,8-16,.39-24.22,9.77-25.18,25.16C1354.17,776.85,1364.15,787,1379.83,788.79Zm.73-6.75c-12.09.15-18.52-7.48-18.73-18.86-.24-11.77,6.9-18.8,18.67-18.8,15.37,0,4.35,13.11,9.94,18.3C1385.39,769.19,1395.8,781.87,1380.56,782ZM503.89,665.64c-4.77-25.26-11.71-49.95-19.71-74.37-20.82-43.6-45.74-84-78.62-120.26-31.48-34.71-15.74-91.45,27.68-109.45,26-10.76,52.95-19.24,79.51-28.68,7.35-2.63,11.94-2.74,11.88,7.91-.65,108.12-.86,216.22-1.19,324.34.07,2.33.13,4.67.2,7,.79,22.38,2,44.78-.72,67.14-10.34,15.2-15.63,30-.21,45.85,3,3.09,1.49,10.52,2.39,19-12.78-9.44-21.86-17.27-21-32.51.86-14.32.64-28.67.88-43Q504.45,697.14,503.89,665.64Z"/><path class="cls-2" d="M1415.42,778.59a12.86,12.86,0,0,1-2.67,7.55c-4.31,5.24-8.65,15.61-15.35,11.47-5.84-3.58-1.55-12.62,3.69-18.65,6.74-7.76,8.77-18,3-26.22-15.78-22.4-9.14-42.47,3.82-62.6,1.49-2.33,2.93-4.68,4.4-7l3.23.19C1415.53,715.06,1415.59,746.81,1415.42,778.59Z"/><path class="cls-2" d="M1389.4,795.75c-.28,7.59-4.1,9.08-10.48,9.49-21.75,1.44-42.17-18.78-42-42,.13-23.75,19.82-42.75,42.65-41.19,5.13.34,9.83.3,9.76,7.84-.06,6.86-3,7.85-9.07,8-16,.39-24.22,9.77-25.18,25.16-.87,13.76,9.11,23.89,24.79,25.7C1384.66,789.37,1389.7,787.5,1389.4,795.75Z"/><path class="cls-2" d="M1508.36,478.4c-28.65,29.35-47.13,64.75-67.69,99.15-2.44,4.08-.89,8.71-4,12.12-7.85,24-15.89,47.78-19.62,73-1.72,11.71-14.42,18.56-19.1,30.25-2.57-8.45-3.64-16.39-.82-24.47v-3.39a22,22,0,0,1-.06-15.95,15.12,15.12,0,0,1,0-10.82,201.58,201.58,0,0,1-.1-49c-.39-40.38-.93-80.74-1.13-121.1s.59-80.86-.4-121.29c-.42-15.91,4-17.29,17.59-11.88,22,8.8,44.88,15.48,67.11,23.81C1532.49,378.39,1547.41,438.39,1508.36,478.4Z"/><path class="cls-2" d="M525.1,804.16c-12.78-9.44-21.86-17.27-21-32.51.86-14.32.64-28.67.88-43q-.58-31.5-1.14-63c-4.77-25.26-11.71-49.95-19.71-74.37-20.82-43.6-45.74-84-78.62-120.26-31.48-34.71-15.74-91.45,27.68-109.45,26-10.76,52.95-19.24,79.51-28.68,7.35-2.63,11.94-2.74,11.88,7.91-.65,108.12-.86,216.22-1.19,324.34.07,2.33.13,4.67.2,7,.79,22.38,2,44.78-.72,67.14-10.34,15.2-15.63,30-.21,45.85C525.71,788.21,524.2,795.64,525.1,804.16Z"/><path class="cls-2" d="M1389.44,814.42c-18.73,7.55-38.18,8.8-53.81,2a1578.07,1578.07,0,0,0-164.19-61l-113.1-19.28q-40-2.26-80.07-4.48c-70.54,0-153.39,10-153.39,10-17.81,3.54-35.88,5.93-53.81,8.82A993.91,993.91,0,0,0,588.83,815.2c-15.93,7.44-32.7,4-49,3.15-12.25-.65-7.81-12.21-8.91-19.8-1.23-8.45,3-9.39,10.44-9.89,14.87-1,22.81-10.5,23.73-25,.87-13.48-9.22-24.11-24.57-25.89-6.19-.74-11.45-.59-8.76-9.08q0-28.33,0-56.66,0-43.31,0-86.6c-.24-82.7-.32-165.4-.86-248.12-.07-8.45,3.51-11.32,10.65-13.73C675.63,278.29,813.13,255.66,955,257.47c92.34,1.18,184.09,5.09,274.57,24.94,50.39,11,99.67,26,148.91,41.18,7.35,2.26,10.69,5.41,10.65,13.71-.52,82.7-.62,165.42-.84,248.12l-.06,86.54c.23,4.42.66,8.82.69,13.22.19,25.69.15,25.69-24.28,32.51-23.76,6.62-36.31,25.8-33.87,51.85,2.16,22.91,20.61,40.48,44,42.17C1379,812,1383.56,810.07,1389.44,814.42Z"/><path class="cls-1" d="M367.54,583.46c-10.09,6.09-20.77,7.2-32,3.87-17.21-11.36-22-29.5-11.89-44.73a29.82,29.82,0,0,1,43.43-6.79C381.93,547.43,382.1,565.09,367.54,583.46Zm4.32-24.66c-.36-12.28-11.43-23.16-23.48-23.07-12.85.1-23.94,12.09-23.16,25S336.45,583,349.5,582.51A23,23,0,0,0,371.86,558.8Z"/><path class="cls-1" d="M1588,585.41a38.53,38.53,0,0,1-33.35.05c-18.35-19.64-17.28-42.24,2.47-52.55a29.76,29.76,0,0,1,38.28,8.69Q1610.23,561.82,1588,585.41Zm-16.29-49.71c-12.1-.22-23.31,10.6-23.7,22.88a23.28,23.28,0,1,0,46.56.76C1594.52,547,1583.82,535.91,1571.66,535.7Z"/><rect class="cls-2" width="1" height="1"/><rect class="cls-2" x="1919" y="1079" width="1" height="1"/><rect class="cls-2" y="1079" width="1" height="1"/><rect class="cls-2" x="1919" width="1" height="1"/></g><g id="Capa_3" data-name="Capa 3"><path d="M825.18,471.5v111H805.35V511.78l-19.51,14.91-16.18,12.53-16.17-12.53L734,511.78v70.75H714.15v-111L734,486.72l35.68,27.44,35.69-27.44Z"/><path d="M942.55,526.53a32.76,32.76,0,0,1-23.48,55.52H873.55a32.59,32.59,0,0,1-30.14-20,34.41,34.41,0,0,1-2.53-12.84V503.69a32.15,32.15,0,0,1,8.24-21.41,33.65,33.65,0,0,1,9.52-7.45,31.42,31.42,0,0,1,14.91-3.65h69V491h-69a13.07,13.07,0,0,0-13,13v15.55A32.49,32.49,0,0,1,872.92,517h46.79a32.77,32.77,0,0,1,23,10Zm-23.64,35.69a13.07,13.07,0,0,0,13-13,12.92,12.92,0,0,0-12.21-13H872.92a13,13,0,0,0,.63,26h45.36Z"/><path d="M1069.91,527.17a32.75,32.75,0,0,1-23.48,55.51h-45.52a32.55,32.55,0,0,1-30.13-20,34.31,34.31,0,0,1-2.54-12.85,32.67,32.67,0,0,1,9.2-22.84,30.92,30.92,0,0,1-6.82-10,34.31,34.31,0,0,1-2.54-12.85,32.19,32.19,0,0,1,32-32.83h46.47a32.87,32.87,0,0,1,23,55.67Zm-24.27-9.68a12.94,12.94,0,0,0,.48-25.85H999.33a12.93,12.93,0,0,0,.31,25.85h46Zm.16,45.53a13.07,13.07,0,0,0,13-13,12.93,12.93,0,0,0-12.22-13h-46.47a12.88,12.88,0,0,0-12.21,12.85,13.06,13.06,0,0,0,13,13h45.52Z"/><path d="M1205.68,471.5v111h-19.83V536.84h-58.53a31.41,31.41,0,0,1-14.91-3.64,32.42,32.42,0,0,1-17.76-29V471.5h19.82v32.67a13.07,13.07,0,0,0,13,13H1186V471.5Z"/></g></g></svg>