<svg xmlns="http://www.w3.org/2000/svg" viewBox="0 0 1920 1080"><defs><style>.cls-1{fill:#020202;}.cls-2{fill:#f2f2f2;}</style></defs><g id="Capa_2" data-name="Capa 2"><g id="Capa_1-2" data-name="Capa 1"><path class="cls-1" d="M1517.45,451.9c-24.64-61.76-71.75-98.48-134.75-116.42-48.64-13.83-97.68-26-147.44-35-5-.9-7-2.51-6.26-7.43a5.25,5.25,0,0,0,0-1.48c-.69-7.88-.46-13.19,10.23-15.65,16.06-3.71,24.83-22,21.12-38s-18.7-26.58-36-25c-16.05,1.45-28.28,15.16-28.92,32-.13,3.62,2.38,8.61-1.62,10.56-3.12,1.52-7.58.3-12.55.3,3.71,4.35,7.6,2.57,10.88,2.76,3.6.19,6,.53,8.2,4.39a27.78,27.78,0,0,0,20.31,14.49c4.32.67,4.89,2.54,5,6.19.43,15.22.56,15-14.36,12.5-53.37-8.89-107-15.39-161-18.44-27.77-1.56-55.53-2.79-83.34-2.58l-24.3-.24c-81.29,1-162,8.2-241.92,23.34-5.09,1-8.79,1-7.4-5.89a14.87,14.87,0,0,0,0-4.42c-.7-5.89.16-9.2,7.56-10.84,16.36-3.65,26.58-19.4,24.32-34.65-2.67-18.15-15.32-29.6-32.75-29.67-16.51-.07-29.81,11.57-32.49,28.43a17.28,17.28,0,0,1-.33,2.92c-1.27,3.76,3.6,8.47-.16,10.86-2.87,1.82-7.63.64-11.53.87-.56,0-1.09.51-1.56.74l.16,1c12.08-1.53,19,6,26,14.13,3.43,4,8.88,5.18,14,6,3.23.53,4.16,2,4,4.89,0,.48,0,1,0,1.47.4,15.27.41,15.33-14.36,18.24-50.09,9.85-100.07,20.3-148.64,36.2C458.83,361,414.57,407.39,394.85,477c-1.94,6.83-3,13.9-4.46,20.86a235.72,235.72,0,0,0,3.34,70.91c5.48,17.85,12.07,35.25,21.51,51.44,14.48,25.45,31,49.66,44.78,75.52,11.54,19.22,24.75,37.18,40.77,53,22.13,19.85,46.35,36.31,75.28,44.63,32.09,9.22,64.55,12.25,97.5,4.71a51.41,51.41,0,0,1,6.59-.62,618.63,618.63,0,0,1,68.3-17.46c13.12-2.66,26.36-4.79,39.54-7.15,38.77-5.94,77.54-11.69,116.77-14,32-1.88,64-.81,96-.55,44.12,2.53,88,6.9,131.6,14.44a38.84,38.84,0,0,1,4.21,1.21c21.8,2.08,42.88,7.82,64.16,12.56,20.8,4.62,41.06,11.94,62.33,14.1,49,5,94.45-5.32,135.09-34.08,1.6-1.12,3.27-2.14,4.89-3.2l6.56-5.34q4.5-4,9-8c41.54-46.34,72.41-99.65,98.56-155.54C1539.07,547.56,1536.29,499.09,1517.45,451.9Zm-274.55-184a15.33,15.33,0,0,1-4.46,2.41c-2.85.93-6.41,3.79-8.6,1-2.39-3-1.74-8.25-.34-11.19,1.76-3.68,7-.62,10-1.56a11.2,11.2,0,0,1,1.3,0c3.21.61,8.53-1.77,9.24,1.14C1250.89,263.41,1245.9,265.65,1242.9,267.94Zm-41.37-24.7c1.2-15.56,15.63-26.62,31.65-24.26,13.84,2.05,24.2,17.51,21.6,31.91-.58,3.18-1.73,5-5.16,4.73a12,12,0,0,0-1.47,0c-18.83.74-18.8.74-19-17.94,0-3,.5-6.16-3.46-10.11,0,8.85-.2,16,.09,23.14.15,3.7-.62,5.54-4.74,5.08a75.36,75.36,0,0,0-8.1-.07C1201.43,255.77,1200.64,254.91,1201.53,243.24Zm23.3,28.31c-.8,1.33-3.19.34-4.76-.34-5.8-2.53-11-5.79-14.83-12.57,6.37,0,11.86,0,17.36,0,1.57,0,3.12.22,3,2.19C1225.41,264.41,1226.8,268.3,1224.83,271.55Zm-527.49.61c-2.61.63-3.87.16-4.21-3-1.06-9.93-.68-10.5,9.52-10.53,4.06,0,8.11,0,13.29,0C711,266.53,704.89,270.31,697.34,272.16ZM665.71,245.5c.32-11,5.49-19.5,15.36-24.16,9.49-4.46,19.23-3.93,27.63,3.06s12.71,15.46,10.07,26.63c-.45,1.9-.42,4.34-3,4.43-6.88.24-13.78.41-20.65.12-2.86-.14-1.6-3.08-1.76-4.8-.71-7.08,1.18-14.37-.88-21.34-.67,0-1.35,0-2,0,0,7.09-.21,14.21.07,21.29.15,3.93-1.25,5.32-5.08,5-3.18-.23-6.4,0-9.6,0C666.43,255.76,665.41,254.91,665.71,245.5Zm23.8,25.93c-3.26,2.19-7-.71-10-2.55-3.65-2.27-7.42-4.72-10.09-10.3,6.57,0,12.1.13,17.62-.06,3-.09,3.92,1.14,3.49,3.88C690,265.49,692.05,269.75,689.51,271.43ZM482.3,716.18c-2.46.93-3.17-1.89-4.09-3.38-8.64-14.26-17.17-28.61-25.71-42.93q-12.63-21.14-25.2-42.3c-11.47-18.38-21.89-37.25-26.14-58.83a163.69,163.69,0,0,1-4.05-70.91c8.48-54.58,35.8-97.38,80.73-129.19,1.33-.95,2.71-2.56,4.57-1.57,1.58.84.77,2.56.77,3.95q-.26,58.28-.49,116.56c0,3.43-.22,6.85-.34,10.3q0,36.14.1,72.31,0,26.59-.09,53.16.31,39.4.64,78.79c0,2.94.38,5.88.34,8.81C483.32,712.75,484.59,715.32,482.3,716.18Zm460.59-38.24q.14,34.6.31,69.19c0,2.81-.37,4.67-3.88,4.63-38.88-.5-77.29,4.92-115.83,9-20.76,3.5-41.56,6.84-62.29,10.57-23.89,4.3-47.44,10.1-70.83,16.59-1.88.52-3.83.77-5.75,1.14-62,16-118.28,4.83-168.26-35.73a4.5,4.5,0,0,1-.78-1.21c-8.75-6.37-16-14.3-23.44-22.05-2.39-2.48-3.07-5.55-3.05-8.76,0-8.55.26-17.09.41-25.65a7.62,7.62,0,0,1-.05-5.82c0-1.51,0-3,0-4.51a372.6,372.6,0,0,1,0-47.14c0-1.51,0-3,0-4.52a17,17,0,0,1,0-8.78c-.85-21.69-.75-43.37-.07-65.06a568.21,568.21,0,0,1,.06-58.95c-.18-24.57-.41-49.14-.53-73.71-.11-19.43.19-38.86-.25-58.28-.12-5.54,1.68-8.37,6.47-10.75,27.2-13.54,56.34-21.09,85.55-28.59a1589.07,1589.07,0,0,1,187.64-36.28c55.81-7.34,111.89-12.23,168.28-12.44,3.81,0,6.75-.6,6.73,5.38q-.35,130.19-.19,260.4a9,9,0,0,1-.24,1.45q0,47.26,0,94.53Q942.88,660.26,942.89,677.94ZM971.73,418.3q0,73.4-.09,146.79c0,2.69-.28,5.38-.44,8.08.15,7.11.41,14.23.41,21.35,0,50.19-.16,100.38.11,150.57,0,6.18-1.88,7.2-7.43,6.87-15.16-.88-15.16-.65-15.16-15.76q0-81.18,0-162.38c0-2.7.21-5.39.32-8.08q-.18-70.08-.33-140.14,0-68.6.18-137.19c0-2.45-1.78-6.31,1.52-7.14l18.53-.19c3.72.27,2.14,3.86,2.14,5.92Q971.75,352.66,971.73,418.3Zm534.69,186c-15.64,31.28-34.73,60.44-53.12,90.07-4.77,7.71-9.49,15.47-14.61,23.8-2.32,3.78-15.58,18.31-15.58,18.31-36.15,38.13-80.26,58-132.84,58.92-21,2.27-40.9-2.93-60.87-8.1-39.2-10.12-78.68-18.87-118.9-23.95a19.64,19.64,0,0,1-3.46-1.12c-19.26-2.08-38.55-4-57.78-6.31-20.54-2.45-41.17-2.7-61.79-3.4-11.91-.4-10.18.36-9.93-10.46,0-1.7.31-3.4.47-5.11-.12-11.72-.32-23.45-.32-35.18q0-56.58.06-113.15a48.75,48.75,0,0,1,.47-5.07c-.21-7.59-.59-15.2-.59-22.8q0-136.11-.12-272.23c0-6.44,2-7.74,7.87-7.61,49.18,1.11,98.17,4.26,147.06,10a1448.23,1448.23,0,0,1,188,34.29c30.12,7.61,60.49,14.59,89.47,26.19,11.75,4.44,34,18.3,34,18.3,39.61,28.1,66.09,65.21,76.89,112.9C1530.35,524.8,1525.89,565.31,1506.42,604.29Zm11-152.39c-24.64-61.76-71.75-98.48-134.75-116.42-48.64-13.83-97.68-26-147.44-35-5-.9-7-2.51-6.26-7.43a5.25,5.25,0,0,0,0-1.48c-.69-7.88-.46-13.19,10.23-15.65,16.06-3.71,24.83-22,21.12-38s-18.7-26.58-36-25c-16.05,1.45-28.28,15.16-28.92,32-.13,3.62,2.38,8.61-1.62,10.56-3.12,1.52-7.58.3-12.55.3,3.71,4.35,7.6,2.57,10.88,2.76,3.6.19,6,.53,8.2,4.39a27.78,27.78,0,0,0,20.31,14.49c4.32.67,4.89,2.54,5,6.19.43,15.22.56,15-14.36,12.5-53.37-8.89-107-15.39-161-18.44-27.77-1.56-55.53-2.79-83.34-2.58l-24.3-.24c-81.29,1-162,8.2-241.92,23.34-5.09,1-8.79,1-7.4-5.89a14.87,14.87,0,0,0,0-4.42c-.7-5.89.16-9.2,7.56-10.84,16.36-3.65,26.58-19.4,24.32-34.65-2.67-18.15-15.32-29.6-32.75-29.67-16.51-.07-29.81,11.57-32.49,28.43a17.28,17.28,0,0,1-.33,2.92c-1.27,3.76,3.6,8.47-.16,10.86-2.87,1.82-7.63.64-11.53.87-.56,0-1.09.51-1.56.74l.16,1c12.08-1.53,19,6,26,14.13,3.43,4,8.88,5.18,14,6,3.23.53,4.16,2,4,4.89,0,.48,0,1,0,1.47.4,15.27.41,15.33-14.36,18.24-50.09,9.85-100.07,20.3-148.64,36.2C458.83,361,414.57,407.39,394.85,477c-1.94,6.83-3,13.9-4.46,20.86a235.72,235.72,0,0,0,3.34,70.91c5.48,17.85,12.07,35.25,21.51,51.44,14.48,25.45,31,49.66,44.78,75.52,11.54,19.22,24.75,37.18,40.77,53,22.13,19.85,46.35,36.31,75.28,44.63,32.09,9.22,64.55,12.25,97.5,4.71a51.41,51.41,0,0,1,6.59-.62,618.63,618.63,0,0,1,68.3-17.46c13.12-2.66,26.36-4.79,39.54-7.15,38.77-5.94,77.54-11.69,116.77-14,32-1.88,64-.81,96-.55,44.12,2.53,88,6.9,131.6,14.44a38.84,38.84,0,0,1,4.21,1.21c21.8,2.08,42.88,7.82,64.16,12.56,20.8,4.62,41.06,11.94,62.33,14.1,49,5,94.45-5.32,135.09-34.08,1.6-1.12,3.27-2.14,4.89-3.2l6.56-5.34q4.5-4,9-8c41.54-46.34,72.41-99.65,98.56-155.54C1539.07,547.56,1536.29,499.09,1517.45,451.9Zm-274.55-184a15.33,15.33,0,0,1-4.46,2.41c-2.85.93-6.41,3.79-8.6,1-2.39-3-1.74-8.25-.34-11.19,1.76-3.68,7-.62,10-1.56a11.2,11.2,0,0,1,1.3,0c3.21.61,8.53-1.77,9.24,1.14C1250.89,263.41,1245.9,265.65,1242.9,267.94Zm-41.37-24.7c1.2-15.56,15.63-26.62,31.65-24.26,13.84,2.05,24.2,17.51,21.6,31.91-.58,3.18-1.73,5-5.16,4.73a12,12,0,0,0-1.47,0c-18.83.74-18.8.74-19-17.94,0-3,.5-6.16-3.46-10.11,0,8.85-.2,16,.09,23.14.15,3.7-.62,5.54-4.74,5.08a75.36,75.36,0,0,0-8.1-.07C1201.43,255.77,1200.64,254.91,1201.53,243.24Zm23.3,28.31c-.8,1.33-3.19.34-4.76-.34-5.8-2.53-11-5.79-14.83-12.57,6.37,0,11.86,0,17.36,0,1.57,0,3.12.22,3,2.19C1225.41,264.41,1226.8,268.3,1224.83,271.55Zm-527.49.61c-2.61.63-3.87.16-4.21-3-1.06-9.93-.68-10.5,9.52-10.53,4.06,0,8.11,0,13.29,0C711,266.53,704.89,270.31,697.34,272.16ZM665.71,245.5c.32-11,5.49-19.5,15.36-24.16,9.49-4.46,19.23-3.93,27.63,3.06s12.71,15.46,10.07,26.63c-.45,1.9-.42,4.34-3,4.43-6.88.24-13.78.41-20.65.12-2.86-.14-1.6-3.08-1.76-4.8-.71-7.08,1.18-14.37-.88-21.34-.67,0-1.35,0-2,0,0,7.09-.21,14.21.07,21.29.15,3.93-1.25,5.32-5.08,5-3.18-.23-6.4,0-9.6,0C666.43,255.76,665.41,254.91,665.71,245.5Zm23.8,25.93c-3.26,2.19-7-.71-10-2.55-3.65-2.27-7.42-4.72-10.09-10.3,6.57,0,12.1.13,17.62-.06,3-.09,3.92,1.14,3.49,3.88C690,265.49,692.05,269.75,689.51,271.43ZM482.3,716.18c-2.46.93-3.17-1.89-4.09-3.38-8.64-14.26-17.17-28.61-25.71-42.93q-12.63-21.14-25.2-42.3c-11.47-18.38-21.89-37.25-26.14-58.83a163.69,163.69,0,0,1-4.05-70.91c8.48-54.58,35.8-97.38,80.73-129.19,1.33-.95,2.71-2.56,4.57-1.57,1.58.84.77,2.56.77,3.95q-.26,58.28-.49,116.56c0,3.43-.22,6.85-.34,10.3q0,36.14.1,72.31,0,26.59-.09,53.16.31,39.4.64,78.79c0,2.94.38,5.88.34,8.81C483.32,712.75,484.59,715.32,482.3,716.18Zm460.59-38.24q.14,34.6.31,69.19c0,2.81-.37,4.67-3.88,4.63-38.88-.5-77.29,4.92-115.83,9-20.76,3.5-41.56,6.84-62.29,10.57-23.89,4.3-47.44,10.1-70.83,16.59-1.88.52-3.83.77-5.75,1.14-62,16-118.28,4.83-168.26-35.73a4.5,4.5,0,0,1-.78-1.21c-8.75-6.37-16-14.3-23.44-22.05-2.39-2.48-3.07-5.55-3.05-8.76,0-8.55.26-17.09.41-25.65a7.62,7.62,0,0,1-.05-5.82c0-1.51,0-3,0-4.51a372.6,372.6,0,0,1,0-47.14c0-1.51,0-3,0-4.52a17,17,0,0,1,0-8.78c-.85-21.69-.75-43.37-.07-65.06a568.21,568.21,0,0,1,.06-58.95c-.18-24.57-.41-49.14-.53-73.71-.11-19.43.19-38.86-.25-58.28-.12-5.54,1.68-8.37,6.47-10.75,27.2-13.54,56.34-21.09,85.55-28.59a1589.07,1589.07,0,0,1,187.64-36.28c55.81-7.34,111.89-12.23,168.28-12.44,3.81,0,6.75-.6,6.73,5.38q-.35,130.19-.19,260.4a9,9,0,0,1-.24,1.45q0,47.26,0,94.53Q942.88,660.26,942.89,677.94ZM971.73,418.3q0,73.4-.09,146.79c0,2.69-.28,5.38-.44,8.08.15,7.11.41,14.23.41,21.35,0,50.19-.16,100.38.11,150.57,0,6.18-1.88,7.2-7.43,6.87-15.16-.88-15.16-.65-15.16-15.76q0-81.18,0-162.38c0-2.7.21-5.39.32-8.08q-.18-70.08-.33-140.14,0-68.6.18-137.19c0-2.45-1.78-6.31,1.52-7.14l18.53-.19c3.72.27,2.14,3.86,2.14,5.92Q971.75,352.66,971.73,418.3Zm534.69,186c-15.64,31.28-34.73,60.44-53.12,90.07-4.77,7.71-9.49,15.47-14.61,23.8-2.32,3.78-15.58,18.31-15.58,18.31-36.15,38.13-80.26,58-132.84,58.92-21,2.27-40.9-2.93-60.87-8.1-39.2-10.12-78.68-18.87-118.9-23.95a19.64,19.64,0,0,1-3.46-1.12c-19.26-2.08-38.55-4-57.78-6.31-20.54-2.45-41.17-2.7-61.79-3.4-11.91-.4-10.18.36-9.93-10.46,0-1.7.31-3.4.47-5.11-.12-11.72-.32-23.45-.32-35.18q0-56.58.06-113.15a48.75,48.75,0,0,1,.47-5.07c-.21-7.59-.59-15.2-.59-22.8q0-136.11-.12-272.23c0-6.44,2-7.74,7.87-7.61,49.18,1.11,98.17,4.26,147.06,10a1448.23,1448.23,0,0,1,188,34.29c30.12,7.61,60.49,14.59,89.47,26.19,11.75,4.44,34,18.3,34,18.3,39.61,28.1,66.09,65.21,76.89,112.9C1530.35,524.8,1525.89,565.31,1506.42,604.29Zm91.39-365.62c-10.83-19.29-27.08-29-49.4-28.82-37.9.23-75.8.1-113.7.16-10.47,0-10.47.06-10.67-10.18-.07-3.16.64-6.4-4.58-6.32-18.21.22-36.42.12-54.63,0-2.72,0-4.14.7-3.88,3.71.2,2.2-.26,4.46,0,6.63.71,4.94-1.32,6.24-6.1,6.17-16.49-.29-33-.26-49.47-.06-5.69.07-9.69-1.6-12.86-6.64a64.59,64.59,0,0,0-13.44-15.59c-31.89-26.47-74.51-24.88-105,4.32q-20,19.14-39.1,39.2c-5.38,5.67-11.23,7.86-18.88,7.83l-310.28.1c-8.1,0-14.45-2.11-20.23-8.27-12.08-12.93-25-25.15-37.47-37.69-16.26-16.29-35.81-24.43-58.93-24.43-10.07,0-28.3,6.73-28.3,6.73-12.84,5.82-23.76,14-31.19,26.1-3.91,6.42-9,8.66-16.44,8.42-15.49-.48-31-.29-46.49.06-5,.11-6.78-.84-6.56-6.33.49-12.21,1-10-10-10.1-15.27-.13-30.52.23-45.76-.17-5.79-.17-8.41,1.42-7.35,7.31,1.33,7.36-1.34,9.43-9,9.32-37.64-.45-75.28.2-112.92-.38-23.74-.36-41.25,8.91-52.64,29.71-.34.62-.67,1.26-1,1.88-5.94,14.58-5.43,44.71-5.43,44.71-.83,65.91-.22,131.85-.25,197.79,0,4.66-.26,9.33-.39,14,.62,23.61.71,47.23,0,70.84.65,18.71.59,37.4,0,56.1.66,23.63.72,47.24,0,70.87q.24,26.59.51,53.22c2.47,12.47,10.23,19.44,22.51,22q77.33,16.21,154.59,32.62c2.3.49,4.85.5,6.54,2.87-3.13,1.65-6.32.68-9.39.71-29.21.31-58.42.5-87.63.75-8.12.07-9.47,4.21-4.45,13.27,8.72,11.83,17.57,23.58,26.09,35.55,2.85,4,5.51,5.61,9.28,1.5,6.1-6.66,13.18-6.19,20.92-3.42,15.93,5.68,32.08,10.77,47.9,16.69,21.18,7.92,43.68,8.84,65.53,13,14.69,2.82,29.49,5.12,44.3,7.2,4.71.65,7.44,2.48,9.45,6.75,1.51,3.19,4.3,5.79,6.46,8.57a27.35,27.35,0,0,0,8.16,4.14,65.41,65.41,0,0,0,19.6-2.81c14.29-4.45,28.56-9,43-13,6.27-1.73,10.77-5.1,14.94-9.95,22.64-26.24,48.33-48.92,78.5-66.26,26.76-18,56.13-30.06,87.37-37.74,15.51-3.8,31.16-6.85,47.19-7.52,1.28-.31,1.46.52,1.48,1.48,1.59,2.52-.11,4.93-.22,7.4-.42,4.3,1.21,6.06,5.82,5.78l53.35-.05c3.55.12,5-1.12,4.67-4.64-.19-2.18.12-4.43-.09-6.62-.35-3.79,1.09-4.29,4.7-3.85a332.65,332.65,0,0,1,47.69,8.89Q1140.8,808.72,1206,884.62a34.73,34.73,0,0,0,18.09,11.58c14,3.75,27.8,8,41.59,12.32,20.73,6.55,34.06-1.31,37.82-22.63,2.87-16.18,5.68-32.36,8.53-48.54,1-5.48,3.59-9.88,9.32-11.14,23-5,45.88-10.53,69.12-14.32,3.86-1.39,7.71-2.79,11.91-2.57a308.28,308.28,0,0,1,34-7.28,12.21,12.21,0,0,1,7.4-1.48,37.75,37.75,0,0,1,4.17-1.39q66.25-14.05,132.56-28c17.36-3.65,24-12,24-29.76V258.3C1604.52,251.25,1597.81,238.67,1597.81,238.67Zm-181.12-38.41c0,.41,0,.83,0,1.23h-49.11c0-.4,0-.82,0-1.23Zm-49.43,8.14c.25-1.61,1.76-1.42,2.91-1.42,7.36,0,14.7,0,22.06,0v.13c7.36,0,14.7,0,22.06,0,1.11,0,2.68-.52,2.88,1.27s-1.06,2.42-2.76,2.4l-44.86-.31C1368.18,210.47,1367,210,1367.26,208.4Zm-813.93-8.26q0,.59,0,1.17H503.67c0-.39-.05-.78-.08-1.17Zm-46.66,6.92c15.79,0,31.59,0,48,0-1,3.87-3,3.62-4.6,3.62q-21.64,0-43.29-.16c-1.34,0-3.35.47-3.38-1.61S505.29,207.07,506.67,207.06ZM528,872.34c-15.23-2.78-29.4-9-44-13.83q-14.26-4.74-28.47-9.72c-4-1.41-8.41-2.91-12.17-1.57-7.29,2.6-10.7-.89-14.08-6.34-3.21-5.17-7-9.94-10.61-14.89-3-3.39-8.31-6.86-6.7-11,1.1-2.86,7.57-1,11.62-1.1,34.05-.6,68.13-.91,102.18-1.7,6.16-.14,8,1.75,6.49,7.48.5,16.15.84,32.31,1.58,48.46C534.09,873.34,531.52,873,528,872.34Zm108.2,25.77c-.31-.24-.16-1.79-.06-1.81,3.49-.62,6.81-.09,11.44,1.73C642.69,899.91,639.33,900.38,636.17,898.11ZM701,872.59a24.41,24.41,0,0,1-12.67,13.62c-18.36,9-37.19,6.5-56.13,2.88-3.2-.6-3.37-3-3.69-5.52-.93-7.3-2.07-14.57-2.93-21.87-.44-3.81-1.31-6.81-6-6.5-4.93.31-6.25,3.38-5.77,7.58.71,6.09,1.38,12.2,2.57,18.19.92,4.61-.54,5.63-4.87,4.89-20.08-3.42-40.16-6.84-60.3-9.84-4.45-.67-6-2.2-5.54-6.5a65.35,65.35,0,0,0,0-8.85c0-1.36.48-3.51-1.31-3.76-10.62-1.49-4-9.57-5.63-14.45-.28-.85.22-2.39,1.33-2,9.41,3.65,5.13-4.24,5.5-7,.79-5.77-1.76-14.46,1.21-16.88,3.91-3.21,11.23,1.62,17.17,2.58,5.55.92,11,2.31,16.59,3.31,5,.93,8.16-.69,8-6.41,0-1.48-1.08-3.84,1.91-3.65,2.18.13,4.8.07,6.38,1.23,2.1,1.53-.58,2.66-1.37,4-3.09,5.07-.21,7.83,4.19,9.5,5.43,2.06,8.1,5.79,8.45,11.76-12.64-10-20.06-11.49-28.19-5.73-7,5-9.41,13.87-6,22.34a17.92,17.92,0,0,0,18.77,11.24c9.65-1.12,15.36-8,17.23-21,3,2.12,5.74,5.57,9.68,2.81,4.15-2.92,2.25-7,1.49-10.79-1.92-9.73-7.67-16.69-15.72-22.93q16.29,2.54,32.58,5.07c12.12,1.91,24.29,3.5,36.33,5.84C696.65,830.07,709.06,852,701,872.59ZM603.37,848.7c-.13,5.8-6.72,12.19-12.56,12.13-6.69-.06-12.63-6.1-12.5-12.71s5.62-12.32,12-12.44C597.18,835.55,603.52,841.86,603.37,848.7Zm332.75-66.53c0-.32,0-.63,0-.95H985c0,.32,0,.63,0,.95Zm-.19-7.75c16.39-2.82,32.83-3.14,49.31-2.15,0,.72,0,1.43,0,2.15Zm656.55-36.73c0,2.71-.25,5.41-.22,8.11.06,7.7-4.23,11.66-11.32,13.17q-76.35,16.29-152.71,32.53a10.88,10.88,0,0,1-2.21,0q-41,8.94-82,17.88c-6,1.3-12,2.79-18.06,3.53a33.33,33.33,0,0,0-22.15,11.87c-6.57,16.63-6.76,34.57-10.62,51.77-.28,1.2-.31,2.44-.53,3.65-3.72,19.12-8.84,22.41-27.19,16-12.26-4.28-24.86-7.62-37.35-11.26a27.55,27.55,0,0,1-13.47-8.45c-29.18-33.19-62.74-60.8-102.43-80.75-35.25-17.7-72.45-28.65-111.46-33.88-15.82-.16-31.59-1.77-47.46-1.52-69.69,1-132.75,21.65-189,62.87a20.61,20.61,0,0,1-2.54,1.39c-18.78,14.86-37.19,30.14-53.31,48.27.51-8.11,2.18-15.79-.13-23.55-4.89-16.43-16.58-25.4-32.43-29.89q-38.93-6.09-77.84-12.18c-3.88-.59-7.83-1.59-11.7-1.39-29.45,1.54-57.43-6.7-85.74-12.67-52.85-11.13-105.64-22.52-158.48-33.76-3.14-.68-6.25-1.33-8.89-3.3-4.94-2.47-5.51-7.25-5.54-11.8-.15-16.2.09-32.41.16-48.6q0-35.47,0-71,0-28.06,0-56.13,0-33.61,0-67.24c-.12-18.93-.33-37.87-.36-56.8-.05-57.56.09-115.14-.16-172.71-.07-18.75,5.68-34.13,22-44.68,6.45-4.18,13.44-5.58,21-5.57,79.74.06,159.48-.17,239.21.26,14.11.08,23.83-3.91,32-16.14C661.13,176.35,707.3,172,734,196.55c15.93,14.64,31,30.25,46.1,45.73a26.86,26.86,0,0,0,20.36,8.6l316.78,0c10.27.05,18.41-3.23,25.55-10.69,13.27-13.85,27.13-27.15,40.59-40.8,28.67-29.09,78.9-23.18,99.49,11,4.82,8,12.06,11.35,21.63,11.32,80.22-.21,160.45.5,240.66-.53,27.5-.35,47.65,18.73,47.5,46.33-.29,55.84,0,111.68,0,167.53Q1592.65,586.41,1592.48,737.69ZM1382.7,335.48c-48.64-13.83-97.68-26-147.44-35-5-.9-7-2.51-6.26-7.43a5.25,5.25,0,0,0,0-1.48c-.69-7.88-.46-13.19,10.23-15.65,16.06-3.71,24.83-22,21.12-38s-18.7-26.58-36-25c-16.05,1.45-28.28,15.16-28.92,32-.13,3.62,2.38,8.61-1.62,10.56-3.12,1.52-7.58.3-12.55.3,3.71,4.35,7.6,2.57,10.88,2.76,3.6.19,6,.53,8.2,4.39a27.78,27.78,0,0,0,20.31,14.49c4.32.67,4.89,2.54,5,6.19.43,15.22.56,15-14.36,12.5-53.37-8.89-107-15.39-161-18.44-27.77-1.56-55.53-2.79-83.34-2.58l-24.3-.24c-81.29,1-162,8.2-241.92,23.34-5.09,1-8.79,1-7.4-5.89a14.87,14.87,0,0,0,0-4.42c-.7-5.89.16-9.2,7.56-10.84,16.36-3.65,26.58-19.4,24.32-34.65-2.67-18.15-15.32-29.6-32.75-29.67-16.51-.07-29.81,11.57-32.49,28.43a17.28,17.28,0,0,1-.33,2.92c-1.27,3.76,3.6,8.47-.16,10.86-2.87,1.82-7.63.64-11.53.87-.56,0-1.09.51-1.56.74l.16,1c12.08-1.53,19,6,26,14.13,3.43,4,8.88,5.18,14,6,3.23.53,4.16,2,4,4.89,0,.48,0,1,0,1.47.4,15.27.41,15.33-14.36,18.24-50.09,9.85-100.07,20.3-148.64,36.2C458.83,361,414.57,407.39,394.85,477c-1.94,6.83-3,13.9-4.46,20.86a235.72,235.72,0,0,0,3.34,70.91c5.48,17.85,12.07,35.25,21.51,51.44,14.48,25.45,31,49.66,44.78,75.52,11.54,19.22,24.75,37.18,40.77,53,22.13,19.85,46.35,36.31,75.28,44.63,32.09,9.22,64.55,12.25,97.5,4.71a51.41,51.41,0,0,1,6.59-.62,618.63,618.63,0,0,1,68.3-17.46c13.12-2.66,26.36-4.79,39.54-7.15,38.77-5.94,77.54-11.69,116.77-14,32-1.88,64-.81,96-.55,44.12,2.53,88,6.9,131.6,14.44a38.84,38.84,0,0,1,4.21,1.21c21.8,2.08,42.88,7.82,64.16,12.56,20.8,4.62,41.06,11.94,62.33,14.1,49,5,94.45-5.32,135.09-34.08,1.6-1.12,3.27-2.14,4.89-3.2l6.56-5.34q4.5-4,9-8c41.54-46.34,72.41-99.65,98.56-155.54,21.9-46.83,19.12-95.3.28-142.49C1492.81,390.14,1445.7,353.42,1382.7,335.48Zm-139.8-67.54a15.33,15.33,0,0,1-4.46,2.41c-2.85.93-6.41,3.79-8.6,1-2.39-3-1.74-8.25-.34-11.19,1.76-3.68,7-.62,10-1.56a11.2,11.2,0,0,1,1.3,0c3.21.61,8.53-1.77,9.24,1.14C1250.89,263.41,1245.9,265.65,1242.9,267.94Zm-41.37-24.7c1.2-15.56,15.63-26.62,31.65-24.26,13.84,2.05,24.2,17.51,21.6,31.91-.58,3.18-1.73,5-5.16,4.73a12,12,0,0,0-1.47,0c-18.83.74-18.8.74-19-17.94,0-3,.5-6.16-3.46-10.11,0,8.85-.2,16,.09,23.14.15,3.7-.62,5.54-4.74,5.08a75.36,75.36,0,0,0-8.1-.07C1201.43,255.77,1200.64,254.91,1201.53,243.24Zm23.3,28.31c-.8,1.33-3.19.34-4.76-.34-5.8-2.53-11-5.79-14.83-12.57,6.37,0,11.86,0,17.36,0,1.57,0,3.12.22,3,2.19C1225.41,264.41,1226.8,268.3,1224.83,271.55Zm-527.49.61c-2.61.63-3.87.16-4.21-3-1.06-9.93-.68-10.5,9.52-10.53,4.06,0,8.11,0,13.29,0C711,266.53,704.89,270.31,697.34,272.16ZM665.71,245.5c.32-11,5.49-19.5,15.36-24.16,9.49-4.46,19.23-3.93,27.63,3.06s12.71,15.46,10.07,26.63c-.45,1.9-.42,4.34-3,4.43-6.88.24-13.78.41-20.65.12-2.86-.14-1.6-3.08-1.76-4.8-.71-7.08,1.18-14.37-.88-21.34-.67,0-1.35,0-2,0,0,7.09-.21,14.21.07,21.29.15,3.93-1.25,5.32-5.08,5-3.18-.23-6.4,0-9.6,0C666.43,255.76,665.41,254.91,665.71,245.5Zm23.8,25.93c-3.26,2.19-7-.71-10-2.55-3.65-2.27-7.42-4.72-10.09-10.3,6.57,0,12.1.13,17.62-.06,3-.09,3.92,1.14,3.49,3.88C690,265.49,692.05,269.75,689.51,271.43ZM482.3,716.18c-2.46.93-3.17-1.89-4.09-3.38-8.64-14.26-17.17-28.61-25.71-42.93q-12.63-21.14-25.2-42.3c-11.47-18.38-21.89-37.25-26.14-58.83a163.69,163.69,0,0,1-4.05-70.91c8.48-54.58,35.8-97.38,80.73-129.19,1.33-.95,2.71-2.56,4.57-1.57,1.58.84.77,2.56.77,3.95q-.26,58.28-.49,116.56c0,3.43-.22,6.85-.34,10.3q0,36.14.1,72.31,0,26.59-.09,53.16.31,39.4.64,78.79c0,2.94.38,5.88.34,8.81C483.32,712.75,484.59,715.32,482.3,716.18Zm460.59-38.24q.14,34.6.31,69.19c0,2.81-.37,4.67-3.88,4.63-38.88-.5-77.29,4.92-115.83,9-20.76,3.5-41.56,6.84-62.29,10.57-23.89,4.3-47.44,10.1-70.83,16.59-1.88.52-3.83.77-5.75,1.14-62,16-118.28,4.83-168.26-35.73a4.5,4.5,0,0,1-.78-1.21c-8.75-6.37-16-14.3-23.44-22.05-2.39-2.48-3.07-5.55-3.05-8.76,0-8.55.26-17.09.41-25.65a7.62,7.62,0,0,1-.05-5.82c0-1.51,0-3,0-4.51a372.6,372.6,0,0,1,0-47.14c0-1.51,0-3,0-4.52a17,17,0,0,1,0-8.78c-.85-21.69-.75-43.37-.07-65.06a568.21,568.21,0,0,1,.06-58.95c-.18-24.57-.41-49.14-.53-73.71-.11-19.43.19-38.86-.25-58.28-.12-5.54,1.68-8.37,6.47-10.75,27.2-13.54,56.34-21.09,85.55-28.59a1589.07,1589.07,0,0,1,187.64-36.28c55.81-7.34,111.89-12.23,168.28-12.44,3.81,0,6.75-.6,6.73,5.38q-.35,130.19-.19,260.4a9,9,0,0,1-.24,1.45q0,47.26,0,94.53Q942.88,660.26,942.89,677.94ZM971.73,418.3q0,73.4-.09,146.79c0,2.69-.28,5.38-.44,8.08.15,7.11.41,14.23.41,21.35,0,50.19-.16,100.38.11,150.57,0,6.18-1.88,7.2-7.43,6.87-15.16-.88-15.16-.65-15.16-15.76q0-81.18,0-162.38c0-2.7.21-5.39.32-8.08q-.18-70.08-.33-140.14,0-68.6.18-137.19c0-2.45-1.78-6.31,1.52-7.14l18.53-.19c3.72.27,2.14,3.86,2.14,5.92Q971.75,352.66,971.73,418.3Zm534.69,186c-15.64,31.28-34.73,60.44-53.12,90.07-4.77,7.71-9.49,15.47-14.61,23.8-2.32,3.78-15.58,18.31-15.58,18.31-36.15,38.13-80.26,58-132.84,58.92-21,2.27-40.9-2.93-60.87-8.1-39.2-10.12-78.68-18.87-118.9-23.95a19.64,19.64,0,0,1-3.46-1.12c-19.26-2.08-38.55-4-57.78-6.31-20.54-2.45-41.17-2.7-61.79-3.4-11.91-.4-10.18.36-9.93-10.46,0-1.7.31-3.4.47-5.11-.12-11.72-.32-23.45-.32-35.18q0-56.58.06-113.15a48.75,48.75,0,0,1,.47-5.07c-.21-7.59-.59-15.2-.59-22.8q0-136.11-.12-272.23c0-6.44,2-7.74,7.87-7.61,49.18,1.11,98.17,4.26,147.06,10a1448.23,1448.23,0,0,1,188,34.29c30.12,7.61,60.49,14.59,89.47,26.19,11.75,4.44,34,18.3,34,18.3,39.61,28.1,66.09,65.21,76.89,112.9C1530.35,524.8,1525.89,565.31,1506.42,604.29Zm11-152.39c-24.64-61.76-71.75-98.48-134.75-116.42-48.64-13.83-97.68-26-147.44-35-5-.9-7-2.51-6.26-7.43a5.25,5.25,0,0,0,0-1.48c-.69-7.88-.46-13.19,10.23-15.65,16.06-3.71,24.83-22,21.12-38s-18.7-26.58-36-25c-16.05,1.45-28.28,15.16-28.92,32-.13,3.62,2.38,8.61-1.62,10.56-3.12,1.52-7.58.3-12.55.3,3.71,4.35,7.6,2.57,10.88,2.76,3.6.19,6,.53,8.2,4.39a27.78,27.78,0,0,0,20.31,14.49c4.32.67,4.89,2.54,5,6.19.43,15.22.56,15-14.36,12.5-53.37-8.89-107-15.39-161-18.44-27.77-1.56-55.53-2.79-83.34-2.58l-24.3-.24c-81.29,1-162,8.2-241.92,23.34-5.09,1-8.79,1-7.4-5.89a14.87,14.87,0,0,0,0-4.42c-.7-5.89.16-9.2,7.56-10.84,16.36-3.65,26.58-19.4,24.32-34.65-2.67-18.15-15.32-29.6-32.75-29.67-16.51-.07-29.81,11.57-32.49,28.43a17.28,17.28,0,0,1-.33,2.92c-1.27,3.76,3.6,8.47-.16,10.86-2.87,1.82-7.63.64-11.53.87-.56,0-1.09.51-1.56.74l.16,1c12.08-1.53,19,6,26,14.13,3.43,4,8.88,5.18,14,6,3.23.53,4.16,2,4,4.89,0,.48,0,1,0,1.47.4,15.27.41,15.33-14.36,18.24-50.09,9.85-100.07,20.3-148.64,36.2C458.83,361,414.57,407.39,394.85,477c-1.94,6.83-3,13.9-4.46,20.86a235.72,235.72,0,0,0,3.34,70.91c5.48,17.85,12.07,35.25,21.51,51.44,14.48,25.45,31,49.66,44.78,75.52,11.54,19.22,24.75,37.18,40.77,53,22.13,19.85,46.35,36.31,75.28,44.63,32.09,9.22,64.55,12.25,97.5,4.71a51.41,51.41,0,0,1,6.59-.62,618.63,618.63,0,0,1,68.3-17.46c13.12-2.66,26.36-4.79,39.54-7.15,38.77-5.94,77.54-11.69,116.77-14,32-1.88,64-.81,96-.55,44.12,2.53,88,6.9,131.6,14.44a38.84,38.84,0,0,1,4.21,1.21c21.8,2.08,42.88,7.82,64.16,12.56,20.8,4.62,41.06,11.94,62.33,14.1,49,5,94.45-5.32,135.09-34.08,1.6-1.12,3.27-2.14,4.89-3.2l6.56-5.34q4.5-4,9-8c41.54-46.34,72.41-99.65,98.56-155.54C1539.07,547.56,1536.29,499.09,1517.45,451.9Zm-274.55-184a15.33,15.33,0,0,1-4.46,2.41c-2.85.93-6.41,3.79-8.6,1-2.39-3-1.74-8.25-.34-11.19,1.76-3.68,7-.62,10-1.56a11.2,11.2,0,0,1,1.3,0c3.21.61,8.53-1.77,9.24,1.14C1250.89,263.41,1245.9,265.65,1242.9,267.94Zm-41.37-24.7c1.2-15.56,15.63-26.62,31.65-24.26,13.84,2.05,24.2,17.51,21.6,31.91-.58,3.18-1.73,5-5.16,4.73a12,12,0,0,0-1.47,0c-18.83.74-18.8.74-19-17.94,0-3,.5-6.16-3.46-10.11,0,8.85-.2,16,.09,23.14.15,3.7-.62,5.54-4.74,5.08a75.36,75.36,0,0,0-8.1-.07C1201.43,255.77,1200.64,254.91,1201.53,243.24Zm23.3,28.31c-.8,1.33-3.19.34-4.76-.34-5.8-2.53-11-5.79-14.83-12.57,6.37,0,11.86,0,17.36,0,1.57,0,3.12.22,3,2.19C1225.41,264.41,1226.8,268.3,1224.83,271.55Zm-527.49.61c-2.61.63-3.87.16-4.21-3-1.06-9.93-.68-10.5,9.52-10.53,4.06,0,8.11,0,13.29,0C711,266.53,704.89,270.31,697.34,272.16ZM665.71,245.5c.32-11,5.49-19.5,15.36-24.16,9.49-4.46,19.23-3.93,27.63,3.06s12.71,15.46,10.07,26.63c-.45,1.9-.42,4.34-3,4.43-6.88.24-13.78.41-20.65.12-2.86-.14-1.6-3.08-1.76-4.8-.71-7.08,1.18-14.37-.88-21.34-.67,0-1.35,0-2,0,0,7.09-.21,14.21.07,21.29.15,3.93-1.25,5.32-5.08,5-3.18-.23-6.4,0-9.6,0C666.43,255.76,665.41,254.91,665.71,245.5Zm23.8,25.93c-3.26,2.19-7-.71-10-2.55-3.65-2.27-7.42-4.72-10.09-10.3,6.57,0,12.1.13,17.62-.06,3-.09,3.92,1.14,3.49,3.88C690,265.49,692.05,269.75,689.51,271.43ZM482.3,716.18c-2.46.93-3.17-1.89-4.09-3.38-8.64-14.26-17.17-28.61-25.71-42.93q-12.63-21.14-25.2-42.3c-11.47-18.38-21.89-37.25-26.14-58.83a163.69,163.69,0,0,1-4.05-70.91c8.48-54.58,35.8-97.38,80.73-129.19,1.33-.95,2.71-2.56,4.57-1.57,1.58.84.77,2.56.77,3.95q-.26,58.28-.49,116.56c0,3.43-.22,6.85-.34,10.3q0,36.14.1,72.31,0,26.59-.09,53.16.31,39.4.64,78.79c0,2.94.38,5.88.34,8.81C483.32,712.75,484.59,715.32,482.3,716.18Zm460.59-38.24q.14,34.6.31,69.19c0,2.81-.37,4.67-3.88,4.63-38.88-.5-77.29,4.92-115.83,9-20.76,3.5-41.56,6.84-62.29,10.57-23.89,4.3-47.44,10.1-70.83,16.59-1.88.52-3.83.77-5.75,1.14-62,16-118.28,4.83-168.26-35.73a4.5,4.5,0,0,1-.78-1.21c-8.75-6.37-16-14.3-23.44-22.05-2.39-2.48-3.07-5.55-3.05-8.76,0-8.55.26-17.09.41-25.65a7.62,7.62,0,0,1-.05-5.82c0-1.51,0-3,0-4.51a372.6,372.6,0,0,1,0-47.14c0-1.51,0-3,0-4.52a17,17,0,0,1,0-8.78c-.85-21.69-.75-43.37-.07-65.06a568.21,568.21,0,0,1,.06-58.95c-.18-24.57-.41-49.14-.53-73.71-.11-19.43.19-38.86-.25-58.28-.12-5.54,1.68-8.37,6.47-10.75,27.2-13.54,56.34-21.09,85.55-28.59a1589.07,1589.07,0,0,1,187.64-36.28c55.81-7.34,111.89-12.23,168.28-12.44,3.81,0,6.75-.6,6.73,5.38q-.35,130.19-.19,260.4a9,9,0,0,1-.24,1.45q0,47.26,0,94.53Q942.88,660.26,942.89,677.94ZM971.73,418.3q0,73.4-.09,146.79c0,2.69-.28,5.38-.44,8.08.15,7.11.41,14.23.41,21.35,0,50.19-.16,100.38.11,150.57,0,6.18-1.88,7.2-7.43,6.87-15.16-.88-15.16-.65-15.16-15.76q0-81.18,0-162.38c0-2.7.21-5.39.32-8.08q-.18-70.08-.33-140.14,0-68.6.18-137.19c0-2.45-1.78-6.31,1.52-7.14l18.53-.19c3.72.27,2.14,3.86,2.14,5.92Q971.75,352.66,971.73,418.3Zm534.69,186c-15.64,31.28-34.73,60.44-53.12,90.07-4.77,7.71-9.49,15.47-14.61,23.8-2.32,3.78-15.58,18.31-15.58,18.31-36.15,38.13-80.26,58-132.84,58.92-21,2.27-40.9-2.93-60.87-8.1-39.2-10.12-78.68-18.87-118.9-23.95a19.64,19.64,0,0,1-3.46-1.12c-19.26-2.08-38.55-4-57.78-6.31-20.54-2.45-41.17-2.7-61.79-3.4-11.91-.4-10.18.36-9.93-10.46,0-1.7.31-3.4.47-5.11-.12-11.72-.32-23.45-.32-35.18q0-56.58.06-113.15a48.75,48.75,0,0,1,.47-5.07c-.21-7.59-.59-15.2-.59-22.8q0-136.11-.12-272.23c0-6.44,2-7.74,7.87-7.61,49.18,1.11,98.17,4.26,147.06,10a1448.23,1448.23,0,0,1,188,34.29c30.12,7.61,60.49,14.59,89.47,26.19,11.75,4.44,34,18.3,34,18.3,39.61,28.1,66.09,65.21,76.89,112.9C1530.35,524.8,1525.89,565.31,1506.42,604.29Zm11-152.39c-24.64-61.76-71.75-98.48-134.75-116.42-48.64-13.83-97.68-26-147.44-35-5-.9-7-2.51-6.26-7.43a5.25,5.25,0,0,0,0-1.48c-.69-7.88-.46-13.19,10.23-15.65,16.06-3.71,24.83-22,21.12-38s-18.7-26.58-36-25c-16.05,1.45-28.28,15.16-28.92,32-.13,3.62,2.38,8.61-1.62,10.56-3.12,1.52-7.58.3-12.55.3,3.71,4.35,7.6,2.57,10.88,2.76,3.6.19,6,.53,8.2,4.39a27.78,27.78,0,0,0,20.31,14.49c4.32.67,4.89,2.54,5,6.19.43,15.22.56,15-14.36,12.5-53.37-8.89-107-15.39-161-18.44-27.77-1.56-55.53-2.79-83.34-2.58l-24.3-.24c-81.29,1-162,8.2-241.92,23.34-5.09,1-8.79,1-7.4-5.89a14.87,14.87,0,0,0,0-4.42c-.7-5.89.16-9.2,7.56-10.84,16.36-3.65,26.58-19.4,24.32-34.65-2.67-18.15-15.32-29.6-32.75-29.67-16.51-.07-29.81,11.57-32.49,28.43a17.28,17.28,0,0,1-.33,2.92c-1.27,3.76,3.6,8.47-.16,10.86-2.87,1.82-7.63.64-11.53.87-.56,0-1.09.51-1.56.74l.16,1c12.08-1.53,19,6,26,14.13,3.43,4,8.88,5.18,14,6,3.23.53,4.16,2,4,4.89,0,.48,0,1,0,1.47.4,15.27.41,15.33-14.36,18.24-50.09,9.85-100.07,20.3-148.64,36.2C458.83,361,414.57,407.39,394.85,477c-1.94,6.83-3,13.9-4.46,20.86a235.72,235.72,0,0,0,3.34,70.91c5.48,17.85,12.07,35.25,21.51,51.44,14.48,25.45,31,49.66,44.78,75.52,11.54,19.22,24.75,37.18,40.77,53,22.13,19.85,46.35,36.31,75.28,44.63,32.09,9.22,64.55,12.25,97.5,4.71a51.41,51.41,0,0,1,6.59-.62,618.63,618.63,0,0,1,68.3-17.46c13.12-2.66,26.36-4.79,39.54-7.15,38.77-5.94,77.54-11.69,116.77-14,32-1.88,64-.81,96-.55,44.12,2.53,88,6.9,131.6,14.44a38.84,38.84,0,0,1,4.21,1.21c21.8,2.08,42.88,7.82,64.16,12.56,20.8,4.62,41.06,11.94,62.33,14.1,49,5,94.45-5.32,135.09-34.08,1.6-1.12,3.27-2.14,4.89-3.2l6.56-5.34q4.5-4,9-8c41.54-46.34,72.41-99.65,98.56-155.54C1539.07,547.56,1536.29,499.09,1517.45,451.9Zm-274.55-184a15.33,15.33,0,0,1-4.46,2.41c-2.85.93-6.41,3.79-8.6,1-2.39-3-1.74-8.25-.34-11.19,1.76-3.68,7-.62,10-1.56a11.2,11.2,0,0,1,1.3,0c3.21.61,8.53-1.77,9.24,1.14C1250.89,263.41,1245.9,265.65,1242.9,267.94Zm-41.37-24.7c1.2-15.56,15.63-26.62,31.65-24.26,13.84,2.05,24.2,17.51,21.6,31.91-.58,3.18-1.73,5-5.16,4.73a12,12,0,0,0-1.47,0c-18.83.74-18.8.74-19-17.94,0-3,.5-6.16-3.46-10.11,0,8.85-.2,16,.09,23.14.15,3.7-.62,5.54-4.74,5.08a75.36,75.36,0,0,0-8.1-.07C1201.43,255.77,1200.64,254.91,1201.53,243.24Zm23.3,28.31c-.8,1.33-3.19.34-4.76-.34-5.8-2.53-11-5.79-14.83-12.57,6.37,0,11.86,0,17.36,0,1.57,0,3.12.22,3,2.19C1225.41,264.41,1226.8,268.3,1224.83,271.55Zm-527.49.61c-2.61.63-3.87.16-4.21-3-1.06-9.93-.68-10.5,9.52-10.53,4.06,0,8.11,0,13.29,0C711,266.53,704.89,270.31,697.34,272.16ZM665.71,245.5c.32-11,5.49-19.5,15.36-24.16,9.49-4.46,19.23-3.93,27.63,3.06s12.71,15.46,10.07,26.63c-.45,1.9-.42,4.34-3,4.43-6.88.24-13.78.41-20.65.12-2.86-.14-1.6-3.08-1.76-4.8-.71-7.08,1.18-14.37-.88-21.34-.67,0-1.35,0-2,0,0,7.09-.21,14.21.07,21.29.15,3.93-1.25,5.32-5.08,5-3.18-.23-6.4,0-9.6,0C666.43,255.76,665.41,254.91,665.71,245.5Zm23.8,25.93c-3.26,2.19-7-.71-10-2.55-3.65-2.27-7.42-4.72-10.09-10.3,6.57,0,12.1.13,17.62-.06,3-.09,3.92,1.14,3.49,3.88C690,265.49,692.05,269.75,689.51,271.43ZM482.3,716.18c-2.46.93-3.17-1.89-4.09-3.38-8.64-14.26-17.17-28.61-25.71-42.93q-12.63-21.14-25.2-42.3c-11.47-18.38-21.89-37.25-26.14-58.83a163.69,163.69,0,0,1-4.05-70.91c8.48-54.58,35.8-97.38,80.73-129.19,1.33-.95,2.71-2.56,4.57-1.57,1.58.84.77,2.56.77,3.95q-.26,58.28-.49,116.56c0,3.43-.22,6.85-.34,10.3q0,36.14.1,72.31,0,26.59-.09,53.16.31,39.4.64,78.79c0,2.94.38,5.88.34,8.81C483.32,712.75,484.59,715.32,482.3,716.18Zm460.59-38.24q.14,34.6.31,69.19c0,2.81-.37,4.67-3.88,4.63-38.88-.5-77.29,4.92-115.83,9-20.76,3.5-41.56,6.84-62.29,10.57-23.89,4.3-47.44,10.1-70.83,16.59-1.88.52-3.83.77-5.75,1.14-62,16-118.28,4.83-168.26-35.73a4.5,4.5,0,0,1-.78-1.21c-8.75-6.37-16-14.3-23.44-22.05-2.39-2.48-3.07-5.55-3.05-8.76,0-8.55.26-17.09.41-25.65a7.62,7.62,0,0,1-.05-5.82c0-1.51,0-3,0-4.51a372.6,372.6,0,0,1,0-47.14c0-1.51,0-3,0-4.52a17,17,0,0,1,0-8.78c-.85-21.69-.75-43.37-.07-65.06a568.21,568.21,0,0,1,.06-58.95c-.18-24.57-.41-49.14-.53-73.71-.11-19.43.19-38.86-.25-58.28-.12-5.54,1.68-8.37,6.47-10.75,27.2-13.54,56.34-21.09,85.55-28.59a1589.07,1589.07,0,0,1,187.64-36.28c55.81-7.34,111.89-12.23,168.28-12.44,3.81,0,6.75-.6,6.73,5.38q-.35,130.19-.19,260.4a9,9,0,0,1-.24,1.45q0,47.26,0,94.53Q942.88,660.26,942.89,677.94ZM971.73,418.3q0,73.4-.09,146.79c0,2.69-.28,5.38-.44,8.08.15,7.11.41,14.23.41,21.35,0,50.19-.16,100.38.11,150.57,0,6.18-1.88,7.2-7.43,6.87-15.16-.88-15.16-.65-15.16-15.76q0-81.18,0-162.38c0-2.7.21-5.39.32-8.08q-.18-70.08-.33-140.14,0-68.6.18-137.19c0-2.45-1.78-6.31,1.52-7.14l18.53-.19c3.72.27,2.14,3.86,2.14,5.92Q971.75,352.66,971.73,418.3Zm534.69,186c-15.64,31.28-34.73,60.44-53.12,90.07-4.77,7.71-9.49,15.47-14.61,23.8-2.32,3.78-15.58,18.31-15.58,18.31-36.15,38.13-80.26,58-132.84,58.92-21,2.27-40.9-2.93-60.87-8.1-39.2-10.12-78.68-18.87-118.9-23.95a19.64,19.64,0,0,1-3.46-1.12c-19.26-2.08-38.55-4-57.78-6.31-20.54-2.45-41.17-2.7-61.79-3.4-11.91-.4-10.18.36-9.93-10.46,0-1.7.31-3.4.47-5.11-.12-11.72-.32-23.45-.32-35.18q0-56.58.06-113.15a48.75,48.75,0,0,1,.47-5.07c-.21-7.59-.59-15.2-.59-22.8q0-136.11-.12-272.23c0-6.44,2-7.74,7.87-7.61,49.18,1.11,98.17,4.26,147.06,10a1448.23,1448.23,0,0,1,188,34.29c30.12,7.61,60.49,14.59,89.47,26.19,11.75,4.44,34,18.3,34,18.3,39.61,28.1,66.09,65.21,76.89,112.9C1530.35,524.8,1525.89,565.31,1506.42,604.29Zm11-152.39c-24.64-61.76-71.75-98.48-134.75-116.42-48.64-13.83-97.68-26-147.44-35-5-.9-7-2.51-6.26-7.43a5.25,5.25,0,0,0,0-1.48c-.69-7.88-.46-13.19,10.23-15.65,16.06-3.71,24.83-22,21.12-38s-18.7-26.58-36-25c-16.05,1.45-28.28,15.16-28.92,32-.13,3.62,2.38,8.61-1.62,10.56-3.12,1.52-7.58.3-12.55.3,3.71,4.35,7.6,2.57,10.88,2.76,3.6.19,6,.53,8.2,4.39a27.78,27.78,0,0,0,20.31,14.49c4.32.67,4.89,2.54,5,6.19.43,15.22.56,15-14.36,12.5-53.37-8.89-107-15.39-161-18.44-27.77-1.56-55.53-2.79-83.34-2.58l-24.3-.24c-81.29,1-162,8.2-241.92,23.34-5.09,1-8.79,1-7.4-5.89a14.87,14.87,0,0,0,0-4.42c-.7-5.89.16-9.2,7.56-10.84,16.36-3.65,26.58-19.4,24.32-34.65-2.67-18.15-15.32-29.6-32.75-29.67-16.51-.07-29.81,11.57-32.49,28.43a17.28,17.28,0,0,1-.33,2.92c-1.27,3.76,3.6,8.47-.16,10.86-2.87,1.82-7.63.64-11.53.87-.56,0-1.09.51-1.56.74l.16,1c12.08-1.53,19,6,26,14.13,3.43,4,8.88,5.18,14,6,3.23.53,4.16,2,4,4.89,0,.48,0,1,0,1.47.4,15.27.41,15.33-14.36,18.24-50.09,9.85-100.07,20.3-148.64,36.2C458.83,361,414.57,407.39,394.85,477c-1.94,6.83-3,13.9-4.46,20.86a235.72,235.72,0,0,0,3.34,70.91c5.48,17.85,12.07,35.25,21.51,51.44,14.48,25.45,31,49.66,44.78,75.52,11.54,19.22,24.75,37.18,40.77,53,22.13,19.85,46.35,36.31,75.28,44.63,32.09,9.22,64.55,12.25,97.5,4.71a51.41,51.41,0,0,1,6.59-.62,618.63,618.63,0,0,1,68.3-17.46c13.12-2.66,26.36-4.79,39.54-7.15,38.77-5.94,77.54-11.69,116.77-14,32-1.88,64-.81,96-.55,44.12,2.53,88,6.9,131.6,14.44a38.84,38.84,0,0,1,4.21,1.21c21.8,2.08,42.88,7.82,64.16,12.56,20.8,4.62,41.06,11.94,62.33,14.1,49,5,94.45-5.32,135.09-34.08,1.6-1.12,3.27-2.14,4.89-3.2l6.56-5.34q4.5-4,9-8c41.54-46.34,72.41-99.65,98.56-155.54C1539.07,547.56,1536.29,499.09,1517.45,451.9Zm-274.55-184a15.33,15.33,0,0,1-4.46,2.41c-2.85.93-6.41,3.79-8.6,1-2.39-3-1.74-8.25-.34-11.19,1.76-3.68,7-.62,10-1.56a11.2,11.2,0,0,1,1.3,0c3.21.61,8.53-1.77,9.24,1.14C1250.89,263.41,1245.9,265.65,1242.9,267.94Zm-41.37-24.7c1.2-15.56,15.63-26.62,31.65-24.26,13.84,2.05,24.2,17.51,21.6,31.91-.58,3.18-1.73,5-5.16,4.73a12,12,0,0,0-1.47,0c-18.83.74-18.8.74-19-17.94,0-3,.5-6.16-3.46-10.11,0,8.85-.2,16,.09,23.14.15,3.7-.62,5.54-4.74,5.08a75.36,75.36,0,0,0-8.1-.07C1201.43,255.77,1200.64,254.91,1201.53,243.24Zm23.3,28.31c-.8,1.33-3.19.34-4.76-.34-5.8-2.53-11-5.79-14.83-12.57,6.37,0,11.86,0,17.36,0,1.57,0,3.12.22,3,2.19C1225.41,264.41,1226.8,268.3,1224.83,271.55Zm-527.49.61c-2.61.63-3.87.16-4.21-3-1.06-9.93-.68-10.5,9.52-10.53,4.06,0,8.11,0,13.29,0C711,266.53,704.89,270.31,697.34,272.16ZM665.71,245.5c.32-11,5.49-19.5,15.36-24.16,9.49-4.46,19.23-3.93,27.63,3.06s12.71,15.46,10.07,26.63c-.45,1.9-.42,4.34-3,4.43-6.88.24-13.78.41-20.65.12-2.86-.14-1.6-3.08-1.76-4.8-.71-7.08,1.18-14.37-.88-21.34-.67,0-1.35,0-2,0,0,7.09-.21,14.21.07,21.29.15,3.93-1.25,5.32-5.08,5-3.18-.23-6.4,0-9.6,0C666.43,255.76,665.41,254.91,665.71,245.5Zm23.8,25.93c-3.26,2.19-7-.71-10-2.55-3.65-2.27-7.42-4.72-10.09-10.3,6.57,0,12.1.13,17.62-.06,3-.09,3.92,1.14,3.49,3.88C690,265.49,692.05,269.75,689.51,271.43ZM482.3,716.18c-2.46.93-3.17-1.89-4.09-3.38-8.64-14.26-17.17-28.61-25.71-42.93q-12.63-21.14-25.2-42.3c-11.47-18.38-21.89-37.25-26.14-58.83a163.69,163.69,0,0,1-4.05-70.91c8.48-54.58,35.8-97.38,80.73-129.19,1.33-.95,2.71-2.56,4.57-1.57,1.58.84.77,2.56.77,3.95q-.26,58.28-.49,116.56c0,3.43-.22,6.85-.34,10.3q0,36.14.1,72.31,0,26.59-.09,53.16.31,39.4.64,78.79c0,2.94.38,5.88.34,8.81C483.32,712.75,484.59,715.32,482.3,716.18Zm460.59-38.24q.14,34.6.31,69.19c0,2.81-.37,4.67-3.88,4.63-38.88-.5-77.29,4.92-115.83,9-20.76,3.5-41.56,6.84-62.29,10.57-23.89,4.3-47.44,10.1-70.83,16.59-1.88.52-3.83.77-5.75,1.14-62,16-118.28,4.83-168.26-35.73a4.5,4.5,0,0,1-.78-1.21c-8.75-6.37-16-14.3-23.44-22.05-2.39-2.48-3.07-5.55-3.05-8.76,0-8.55.26-17.09.41-25.65a7.62,7.62,0,0,1-.05-5.82c0-1.51,0-3,0-4.51a372.6,372.6,0,0,1,0-47.14c0-1.51,0-3,0-4.52a17,17,0,0,1,0-8.78c-.85-21.69-.75-43.37-.07-65.06a568.21,568.21,0,0,1,.06-58.95c-.18-24.57-.41-49.14-.53-73.71-.11-19.43.19-38.86-.25-58.28-.12-5.54,1.68-8.37,6.47-10.75,27.2-13.54,56.34-21.09,85.55-28.59a1589.07,1589.07,0,0,1,187.64-36.28c55.81-7.34,111.89-12.23,168.28-12.44,3.81,0,6.75-.6,6.73,5.38q-.35,130.19-.19,260.4a9,9,0,0,1-.24,1.45q0,47.26,0,94.53Q942.88,660.26,942.89,677.94ZM971.73,418.3q0,73.4-.09,146.79c0,2.69-.28,5.38-.44,8.08.15,7.11.41,14.23.41,21.35,0,50.19-.16,100.38.11,150.57,0,6.18-1.88,7.2-7.43,6.87-15.16-.88-15.16-.65-15.16-15.76q0-81.18,0-162.38c0-2.7.21-5.39.32-8.08q-.18-70.08-.33-140.14,0-68.6.18-137.19c0-2.45-1.78-6.31,1.52-7.14l18.53-.19c3.72.27,2.14,3.86,2.14,5.92Q971.75,352.66,971.73,418.3Zm534.69,186c-15.64,31.28-34.73,60.44-53.12,90.07-4.77,7.71-9.49,15.47-14.61,23.8-2.32,3.78-15.58,18.31-15.58,18.31-36.15,38.13-80.26,58-132.84,58.92-21,2.27-40.9-2.93-60.87-8.1-39.2-10.12-78.68-18.87-118.9-23.95a19.64,19.64,0,0,1-3.46-1.12c-19.26-2.08-38.55-4-57.78-6.31-20.54-2.45-41.17-2.7-61.79-3.4-11.91-.4-10.18.36-9.93-10.46,0-1.7.31-3.4.47-5.11-.12-11.72-.32-23.45-.32-35.18q0-56.58.06-113.15a48.75,48.75,0,0,1,.47-5.07c-.21-7.59-.59-15.2-.59-22.8q0-136.11-.12-272.23c0-6.44,2-7.74,7.87-7.61,49.18,1.11,98.17,4.26,147.06,10a1448.23,1448.23,0,0,1,188,34.29c30.12,7.61,60.49,14.59,89.47,26.19,11.75,4.44,34,18.3,34,18.3,39.61,28.1,66.09,65.21,76.89,112.9C1530.35,524.8,1525.89,565.31,1506.42,604.29Zm11-152.39c-24.64-61.76-71.75-98.48-134.75-116.42-48.64-13.83-97.68-26-147.44-35-5-.9-7-2.51-6.26-7.43a5.25,5.25,0,0,0,0-1.48c-.69-7.88-.46-13.19,10.23-15.65,16.06-3.71,24.83-22,21.12-38s-18.7-26.58-36-25c-16.05,1.45-28.28,15.16-28.92,32-.13,3.62,2.38,8.61-1.62,10.56-3.12,1.52-7.58.3-12.55.3,3.71,4.35,7.6,2.57,10.88,2.76,3.6.19,6,.53,8.2,4.39a27.78,27.78,0,0,0,20.31,14.49c4.32.67,4.89,2.54,5,6.19.43,15.22.56,15-14.36,12.5-53.37-8.89-107-15.39-161-18.44-27.77-1.56-55.53-2.79-83.34-2.58l-24.3-.24c-81.29,1-162,8.2-241.92,23.34-5.09,1-8.79,1-7.4-5.89a14.87,14.87,0,0,0,0-4.42c-.7-5.89.16-9.2,7.56-10.84,16.36-3.65,26.58-19.4,24.32-34.65-2.67-18.15-15.32-29.6-32.75-29.67-16.51-.07-29.81,11.57-32.49,28.43a17.28,17.28,0,0,1-.33,2.92c-1.27,3.76,3.6,8.47-.16,10.86-2.87,1.82-7.63.64-11.53.87-.56,0-1.09.51-1.56.74l.16,1c12.08-1.53,19,6,26,14.13,3.43,4,8.88,5.18,14,6,3.23.53,4.16,2,4,4.89,0,.48,0,1,0,1.47.4,15.27.41,15.33-14.36,18.24-50.09,9.85-100.07,20.3-148.64,36.2C458.83,361,414.57,407.39,394.85,477c-1.94,6.83-3,13.9-4.46,20.86a235.72,235.72,0,0,0,3.34,70.91c5.48,17.85,12.07,35.25,21.51,51.44,14.48,25.45,31,49.66,44.78,75.52,11.54,19.22,24.75,37.18,40.77,53,22.13,19.85,46.35,36.31,75.28,44.63,32.09,9.22,64.55,12.25,97.5,4.71a51.41,51.41,0,0,1,6.59-.62,618.63,618.63,0,0,1,68.3-17.46c13.12-2.66,26.36-4.79,39.54-7.15,38.77-5.94,77.54-11.69,116.77-14,32-1.88,64-.81,96-.55,44.12,2.53,88,6.9,131.6,14.44a38.84,38.84,0,0,1,4.21,1.21c21.8,2.08,42.88,7.82,64.16,12.56,20.8,4.62,41.06,11.94,62.33,14.1,49,5,94.45-5.32,135.09-34.08,1.6-1.12,3.27-2.14,4.89-3.2l6.56-5.34q4.5-4,9-8c41.54-46.34,72.41-99.65,98.56-155.54C1539.07,547.56,1536.29,499.09,1517.45,451.9Zm-274.55-184a15.33,15.33,0,0,1-4.46,2.41c-2.85.93-6.41,3.79-8.6,1-2.39-3-1.74-8.25-.34-11.19,1.76-3.68,7-.62,10-1.56a11.2,11.2,0,0,1,1.3,0c3.21.61,8.53-1.77,9.24,1.14C1250.89,263.41,1245.9,265.65,1242.9,267.94Zm-41.37-24.7c1.2-15.56,15.63-26.62,31.65-24.26,13.84,2.05,24.2,17.51,21.6,31.91-.58,3.18-1.73,5-5.16,4.73a12,12,0,0,0-1.47,0c-18.83.74-18.8.74-19-17.94,0-3,.5-6.16-3.46-10.11,0,8.85-.2,16,.09,23.14.15,3.7-.62,5.54-4.74,5.08a75.36,75.36,0,0,0-8.1-.07C1201.43,255.77,1200.64,254.91,1201.53,243.24Zm23.3,28.31c-.8,1.33-3.19.34-4.76-.34-5.8-2.53-11-5.79-14.83-12.57,6.37,0,11.86,0,17.36,0,1.57,0,3.12.22,3,2.19C1225.41,264.41,1226.8,268.3,1224.83,271.55Zm-527.49.61c-2.61.63-3.87.16-4.21-3-1.06-9.93-.68-10.5,9.52-10.53,4.06,0,8.11,0,13.29,0C711,266.53,704.89,270.31,697.34,272.16ZM665.71,245.5c.32-11,5.49-19.5,15.36-24.16,9.49-4.46,19.23-3.93,27.63,3.06s12.71,15.46,10.07,26.63c-.45,1.9-.42,4.34-3,4.43-6.88.24-13.78.41-20.65.12-2.86-.14-1.6-3.08-1.76-4.8-.71-7.08,1.18-14.37-.88-21.34-.67,0-1.35,0-2,0,0,7.09-.21,14.21.07,21.29.15,3.93-1.25,5.32-5.08,5-3.18-.23-6.4,0-9.6,0C666.43,255.76,665.41,254.91,665.71,245.5Zm23.8,25.93c-3.26,2.19-7-.71-10-2.55-3.65-2.27-7.42-4.72-10.09-10.3,6.57,0,12.1.13,17.62-.06,3-.09,3.92,1.14,3.49,3.88C690,265.49,692.05,269.75,689.51,271.43ZM482.3,716.18c-2.46.93-3.17-1.89-4.09-3.38-8.64-14.26-17.17-28.61-25.71-42.93q-12.63-21.14-25.2-42.3c-11.47-18.38-21.89-37.25-26.14-58.83a163.69,163.69,0,0,1-4.05-70.91c8.48-54.58,35.8-97.38,80.73-129.19,1.33-.95,2.71-2.56,4.57-1.57,1.58.84.77,2.56.77,3.95q-.26,58.28-.49,116.56c0,3.43-.22,6.85-.34,10.3q0,36.14.1,72.31,0,26.59-.09,53.16.31,39.4.64,78.79c0,2.94.38,5.88.34,8.81C483.32,712.75,484.59,715.32,482.3,716.18Zm460.59-38.24q.14,34.6.31,69.19c0,2.81-.37,4.67-3.88,4.63-38.88-.5-77.29,4.92-115.83,9-20.76,3.5-41.56,6.84-62.29,10.57-23.89,4.3-47.44,10.1-70.83,16.59-1.88.52-3.83.77-5.75,1.14-62,16-118.28,4.83-168.26-35.73a4.5,4.5,0,0,1-.78-1.21c-8.75-6.37-16-14.3-23.44-22.05-2.39-2.48-3.07-5.55-3.05-8.76,0-8.55.26-17.09.41-25.65a7.62,7.62,0,0,1-.05-5.82c0-1.51,0-3,0-4.51a372.6,372.6,0,0,1,0-47.14c0-1.51,0-3,0-4.52a17,17,0,0,1,0-8.78c-.85-21.69-.75-43.37-.07-65.06a568.21,568.21,0,0,1,.06-58.95c-.18-24.57-.41-49.14-.53-73.71-.11-19.43.19-38.86-.25-58.28-.12-5.54,1.68-8.37,6.47-10.75,27.2-13.54,56.34-21.09,85.55-28.59a1589.07,1589.07,0,0,1,187.64-36.28c55.81-7.34,111.89-12.23,168.28-12.44,3.81,0,6.75-.6,6.73,5.38q-.35,130.19-.19,260.4a9,9,0,0,1-.24,1.45q0,47.26,0,94.53Q942.88,660.26,942.89,677.94ZM971.73,418.3q0,73.4-.09,146.79c0,2.69-.28,5.38-.44,8.08.15,7.11.41,14.23.41,21.35,0,50.19-.16,100.38.11,150.57,0,6.18-1.88,7.2-7.43,6.87-15.16-.88-15.16-.65-15.16-15.76q0-81.18,0-162.38c0-2.7.21-5.39.32-8.08q-.18-70.08-.33-140.14,0-68.6.18-137.19c0-2.45-1.78-6.31,1.52-7.14l18.53-.19c3.72.27,2.14,3.86,2.14,5.92Q971.75,352.66,971.73,418.3Zm534.69,186c-15.64,31.28-34.73,60.44-53.12,90.07-4.77,7.71-9.49,15.47-14.61,23.8-2.32,3.78-15.58,18.31-15.58,18.31-36.15,38.13-80.26,58-132.84,58.92-21,2.27-40.9-2.93-60.87-8.1-39.2-10.12-78.68-18.87-118.9-23.95a19.64,19.64,0,0,1-3.46-1.12c-19.26-2.08-38.55-4-57.78-6.31-20.54-2.45-41.17-2.7-61.79-3.4-11.91-.4-10.18.36-9.93-10.46,0-1.7.31-3.4.47-5.11-.12-11.72-.32-23.45-.32-35.18q0-56.58.06-113.15a48.75,48.75,0,0,1,.47-5.07c-.21-7.59-.59-15.2-.59-22.8q0-136.11-.12-272.23c0-6.44,2-7.74,7.87-7.61,49.18,1.11,98.17,4.26,147.06,10a1448.23,1448.23,0,0,1,188,34.29c30.12,7.61,60.49,14.59,89.47,26.19,11.75,4.44,34,18.3,34,18.3,39.61,28.1,66.09,65.21,76.89,112.9C1530.35,524.8,1525.89,565.31,1506.42,604.29Z"/><path class="cls-2" d="M1506.42,604.29c-15.64,31.28-34.73,60.44-53.12,90.07-4.77,7.71-9.49,15.47-14.61,23.8-2.32,3.78-15.58,18.31-15.58,18.31-36.15,38.13-80.26,58-132.84,58.92-21,2.27-40.9-2.93-60.87-8.1-39.2-10.12-78.68-18.87-118.9-23.95a19.64,19.64,0,0,1-3.46-1.12c-19.26-2.08-38.55-4-57.78-6.31-20.54-2.45-41.17-2.7-61.79-3.4-11.91-.4-10.18.36-9.93-10.46,0-1.7.31-3.4.47-5.11-.12-11.72-.32-23.45-.32-35.18q0-56.58.06-113.15a48.75,48.75,0,0,1,.47-5.07c-.21-7.59-.59-15.2-.59-22.8q0-136.11-.12-272.23c0-6.44,2-7.74,7.87-7.61,49.18,1.11,98.17,4.26,147.06,10a1448.23,1448.23,0,0,1,188,34.29c30.12,7.61,60.49,14.59,89.47,26.19,11.75,4.44,34,18.3,34,18.3,39.61,28.1,66.09,65.21,76.89,112.9C1530.35,524.8,1525.89,565.31,1506.42,604.29Z"/><path class="cls-2" d="M942.89,677.94q.14,34.6.31,69.19c0,2.81-.37,4.67-3.88,4.63-38.88-.5-77.29,4.92-115.83,9-20.76,3.5-41.56,6.84-62.29,10.57-23.89,4.3-47.44,10.1-70.83,16.59-1.88.52-3.83.77-5.75,1.14-62,16-118.28,4.83-168.26-35.73a4.5,4.5,0,0,1-.78-1.21c-8.75-6.37-16-14.3-23.44-22.05-2.39-2.48-3.07-5.55-3.05-8.76,0-8.55.26-17.09.41-25.65a7.62,7.62,0,0,1-.05-5.82c0-1.51,0-3,0-4.51a372.6,372.6,0,0,1,0-47.14c0-1.51,0-3,0-4.52a17,17,0,0,1,0-8.78c-.85-21.69-.75-43.37-.07-65.06a568.21,568.21,0,0,1,.06-58.95c-.18-24.57-.41-49.14-.53-73.71-.11-19.43.19-38.86-.25-58.28-.12-5.54,1.68-8.37,6.47-10.75,27.2-13.54,56.34-21.09,85.55-28.59a1589.07,1589.07,0,0,1,187.64-36.28c55.81-7.34,111.89-12.23,168.28-12.44,3.81,0,6.75-.6,6.73,5.38q-.35,130.19-.19,260.4a9,9,0,0,1-.24,1.45q0,47.26,0,94.53Q942.88,660.26,942.89,677.94Z"/><path class="cls-2" d="M482.3,716.18c-2.46.93-3.17-1.89-4.09-3.38-8.64-14.26-17.17-28.61-25.71-42.93q-12.63-21.14-25.2-42.3c-11.47-18.38-21.89-37.25-26.14-58.83a163.69,163.69,0,0,1-4.05-70.91c8.48-54.58,35.8-97.38,80.73-129.19,1.33-.95,2.71-2.56,4.57-1.57,1.58.84.77,2.56.77,3.95q-.26,58.28-.49,116.56c0,3.43-.22,6.85-.34,10.3q0,36.14.1,72.31,0,26.59-.09,53.16.31,39.4.64,78.79c0,2.94.38,5.88.34,8.81C483.32,712.75,484.59,715.32,482.3,716.18Z"/><path class="cls-1" d="M1527.41,336.05c-1.83-6.48-.76-13.26-.79-19.86,0-4.53-.79-6.08-5.91-6.15-19.73-.28-33.12-13.15-33.72-31.55-.61-18.56,11.73-32.25,31.37-34,9-.82,18.15-.94,27.17.84,16.43,3.23,27.92,17.26,26.28,33.86-.65,6.67,1,8.42,7.08,7.4a24,24,0,0,1,4.41-.11c1,0,2,.12,2.12,1.43s-.72,2-1.74,1.77c-11.93-3.23-16.84,6-23.63,12.63s-16,8.37-25.3,7.85c-4.42-.25-5.49,1.24-5.37,5.26.22,6.84.06,13.7.06,20.56ZM1513,287.88a3.9,3.9,0,0,1,4.3-1.34c8.12,1.6,9.88-2.29,9.43-9.58-.29-4.7-1.72-9.9,2-14.32a121.19,121.19,0,0,1,.63,18.83c-.16,3.79,1,5.25,4.94,5.14,8.34-.22,16.71-.33,25,.11,5.09.27,6.5-2.19,6.71-6.43.93-19-14.73-33.46-35.34-29.53-1.32.25-2.17,1.32-4,.89-17.82-4.29-33.31,7.19-33.91,25.25-.15,4.59-.94,10.67,7.2,9.53,1.11-.16,2.6-.28,2.76,1.48s-1.12,1.87-2.39,1.76c-3.8-.32-3.44,1.34-2,3.82,3.86,6.55,17.82,12.56,25.31,10.88,1.25-.28,2.56-.47,2.58-2,.07-3.91.85-8.11-.36-11.61-.89-2.58-4.87-.55-7.43-.95C1516.68,289.52,1514.52,290.48,1513,287.88Zm33.42,1.84v.06c-4.42,0-8.85.07-13.27,0-5.65-.12-3.87,4.2-3.65,6.81s-2.86,7.53,3.32,7.85c8.55.46,16.74-.76,23.53-6.46,2.3-1.93,6.15-4.06,4.87-7.35-.93-2.38-4.86-.62-7.43-.85S1548.86,289.72,1546.4,289.72Z"/><path class="cls-1" d="M448.87,287.84c-4.4,3.34-8.85,1.68-12.95,2-2.46.17-4.41-.05-5.93,2.88-6.45,12.45-17.65,17.44-31,17.34-5.94,0-7,2.06-6.73,7.15.33,6.34.08,12.72.08,19.91-4.6-3.51-2.21-7.7-2.85-11.18a21.49,21.49,0,0,1,0-3.68c-.05-10.85-.05-10.85-10.83-12.21C360.85,307.78,349,294.62,349,277.32c.09-17.67,11.76-30.62,30.39-32.75a94.21,94.21,0,0,1,27.18.55c16.95,3,28.15,16,26.93,33.14-.55,7.71,1.83,9.54,8.68,8.32A7.69,7.69,0,0,1,448.87,287.84Zm-73.29-.33a15,15,0,0,1,3-1c10.85-.93,10.67-.92,11-11.71.11-4-1.61-8.47,2.83-13.4,0,7.66.17,13.76-.07,19.85-.14,3.72,1,5.37,4.93,5.28,8.11-.18,16.24-.09,24.35.07,3.88.08,5.72-1.29,6.24-5.38,2.54-19.81-16.25-35.78-35.37-29.76a4.39,4.39,0,0,1-3.19,0c-13-4.24-27.1,2.74-32.29,15.71a26.48,26.48,0,0,0-1.28,16.61c1.3,5.2,7.09,1.17,9.83,4.18-7.68,3.49-7.64,3.83-1.07,9.56,5.9,5.16,12.82,6.93,20.42,6.81,1.9,0,3.73.34,4.5-2.46,2.22-8.06-.31-11.82-8.55-12.19C379.2,289.64,377.34,290.27,375.58,287.51Zm49.17,2.27c-10.43,0-19.67.08-28.91,0-4.46-.05-4,3.19-3.45,5.57.75,3.05-3,7.81,2.82,9.08C405.55,306.64,418.21,300.66,424.75,289.78Z"/><path class="cls-1" d="M1246.6,878.83c-11.09.08-19.4-8.29-19.45-19.58a19.77,19.77,0,0,1,39.53,0C1266.75,870.8,1258.61,878.75,1246.6,878.83Zm14.16-19.13a13.84,13.84,0,0,0-13.9-13.92c-7.19,0-13.82,6.34-13.87,13.29s7.06,14.21,14.13,14.22S1260.63,866.76,1260.76,859.7Z"/><path class="cls-1" d="M668.25,878.86c-11.28,0-19.15-8.16-19-19.67.1-11.08,8.57-19.37,19.75-19.31a19.68,19.68,0,0,1,19.69,19.56C688.65,870.57,679.91,878.9,668.25,878.86Zm.86-33.25a13.93,13.93,0,0,0-14,13.91,14.34,14.34,0,0,0,13.51,13.71c7.16.16,14.34-6.9,14.2-14A14.28,14.28,0,0,0,669.11,845.61Z"/><rect class="cls-2" width="1" height="1"/><rect class="cls-2" x="1919" y="1079" width="1" height="1"/><rect class="cls-2" y="1079" width="1" height="1"/><rect class="cls-2" x="1919" width="1" height="1"/></g><g id="Capa_3" data-name="Capa 3"><path d="M1118.12,469.28v111h-19.83V509.57l-19.5,14.91L1062.61,537l-16.18-12.53-19.51-14.91v70.74h-19.83v-111l19.83,15.23L1062.61,512l35.68-27.44Z"/><path d="M1235.49,524.32A32.76,32.76,0,0,1,1212,579.84h-45.52a32.56,32.56,0,0,1-30.13-20,34.27,34.27,0,0,1-2.54-12.85V501.48a32.09,32.09,0,0,1,8.25-21.41,33.67,33.67,0,0,1,9.51-7.46,31.41,31.41,0,0,1,14.91-3.64h69v19.82h-69a13.06,13.06,0,0,0-13,13v15.54a32.63,32.63,0,0,1,12.37-2.53h46.79a32.73,32.73,0,0,1,23,10ZM1211.86,560a13.07,13.07,0,0,0,13-13,12.92,12.92,0,0,0-12.21-13h-46.79a13,13,0,0,0,.63,26h45.37Z"/><path d="M1369.35,489.27a34.27,34.27,0,0,1,2.54,12.85v45.52a32.66,32.66,0,0,1-10.47,24.11,34.29,34.29,0,0,1-7.29,5.23,31.42,31.42,0,0,1-14.91,3.65h-69V560.8h69a13.06,13.06,0,0,0,13-13V532.25a32.44,32.44,0,0,1-12.37,2.54h-46.79a32.76,32.76,0,0,1,.48-65.51h45.52a32.59,32.59,0,0,1,30.14,20Zm-88.66,12.85a13,13,0,0,0,12.37,13h46.79a13,13,0,0,0-.63-26h-45.53A13.07,13.07,0,0,0,1280.69,502.12Z"/><path d="M1457.86,469.28a35.81,35.81,0,0,1,35.84,35.85v39.18a35.82,35.82,0,0,1-35.84,35.85h-34.27a35.82,35.82,0,0,1-35.84-35.85V505.13a35.81,35.81,0,0,1,35.84-35.85Zm-34.27,19.83a16.24,16.24,0,0,0-16.17,16.18v39.18a16.24,16.24,0,0,0,16.17,16.18h34.27A16.24,16.24,0,0,0,1474,544.47V505.29a16.24,16.24,0,0,0-16.17-16.18Z"/></g></g></svg>