<svg xmlns="http://www.w3.org/2000/svg" viewBox="0 0 1920 1080"><defs><style>.cls-1{fill:#010101;}.cls-2{fill:#f2f2f2;}</style></defs><g id="Capa_2" data-name="Capa 2"><g id="Capa_1-2" data-name="Capa 1"><path class="cls-1" d="M1710.9,497.05c-31.39-.35-62.8-.24-94.2-.35-6.55,0-13.12,0-19.65-.51-8.13-.63-13.16-5.79-14-14a97.13,97.13,0,0,1-.31-10.52c0-35.85-.21-71.69.08-107.53.1-11.4-4.67-19.77-13.43-26.28-8.15-6-17.29-10.3-26.8-13.61-50-17.37-101.4-29.45-152.7-41.81-63.06-15.2-127.18-24.54-191.68-31.55-55.43-6-111-10.48-166.71-12.1-102.79-5.91-217.3,2.84-217.3,2.84-5.29,0-10.58,1.41-15.87,1.41-17.19,1.75-34.39,3.61-51.59,5.26-42.65,4.06-85,9.89-127.34,16.59-76.83,12.19-151.65,32.68-226.27,54-13.47,3.85-26.64,8.82-38.65,16.37-11.38,7.15-17.29,16.74-17.11,30.75.44,36.51.12,73.06.09,109.59,0,4.47-.07,8.87-2.36,13-3.24,5.76-8.3,7.8-14.63,7.8q-36.9,0-73.79.21c-12.42.06-24.84.05-37.25.45s-10,29.78-10,29.78c.11,17.54.27,35.1.31,52.64.06,28.09.13,56.19-.07,84.28,0,4.8,1.66,7.93,5.43,10.52q22,15.09,43.84,30.37c1.92,1.32,3.7,2.8,5.55,4.21,5,2.94,10.57,3.18,16.24,3.18,24.52,0,49.05.18,73.57.29,17.07-.08,34.16-.46,51.24-.14,9.62.2,16,5.81,19.41,14.71q10.38,27.14,20.68,54.3c1.73,4.57,3.4,9.18,5.09,13.77q3.64,9.4,7.29,18.82c4,10.42,11.3,18.2,22.5,24.94,7.3,2.23,20.59,4.08,20.59,4.08,20.67,2,39.75-4.65,59.09-10.09,70.74-19.86,142.45-35.15,215.36-44.63,4.85-.63,9.74-1.06,14.61-1.58,18.64-3.34,37.53-4.71,56.33-6.52,13.72-1.32,27.52-1.83,41.27-2.72,25.38-2.47,50.85-2.18,76.28-2.89l21,.14c53.33.94,106.51,3.86,159.37,11.26,24,2.13,47.81,5.78,71.5,9.88a1570.38,1570.38,0,0,1,163.85,37.09c19.32,5.53,38.45,11.39,59,10.31s36.45-11.31,43.79-30.45q15.66-40.85,31-81.85c5.46-14.55,10.94-18.7,26.6-18.75,34.42-.13,68.85-.61,103.26.12,16.85.37,32.69-.35,45.61-12.78.16-.16.44-.17.66-.26,11.41-8.06,22.72-16.27,34.28-24.1,4.73-3.2,6.68-6.84,6.56-12.72-.34-15.63.08-31.27.19-46.9V504.51S1721.61,497.15,1710.9,497.05Zm-4.72,169.6-34.7,23.67c-8.36,7.86-17.78,11.14-29.71,10.89-36.74-.76-73.5,0-110.25-.4-13.83-.14-25.4,3.22-33.27,15.31-1.75,2.7-3.84,2.81-6.58,1.71-4.77-1.9-9.56-3.74-14.46-5.2-1.57-.47-4.13-2.86-5.23.55-.94,2.92,1.22,4.13,3.68,4.85,4.7,1.38,9.3,3.12,14.07,4.12,3.62.76,4.64,1.81,3.22,5.54-10.52,27.45-20.72,55-31.31,82.44-4.14,10.69-12.2,17.53-23.38,20.33-1.84.45-4.13,2.53-5.74.34-1.08-1.48.34-3.49,1-5.25q2.55-6.88,4.74-13.88c.55-1.78,2.42-4.24-.85-5.22-2.64-.8-3.75,1.52-4.48,3.44-2.07,5.45-4.35,10.88-5.76,16.5-1.16,4.63-3.57,5.63-8,5.59-16.19-.16-31.15-5.73-46.4-10.06-37-10.52-74.55-19.16-112.14-27.46-25.54-4.48-51-9.34-76.64-13.42a1403.24,1403.24,0,0,0-213.89-17.59c-7,0-10.36-1.17-8.61-8.85.41-1.77,1-4.25-1.54-5.64-2.85,1.73-.51,4.85-1.89,6.92,2.24,5.92.1,7.54-6,7.34-25-.78-50,1.93-74.94,2.32l-87,7.67c-17.5,2.49-35,4.81-52.5,7.5a1642.36,1642.36,0,0,0-213.31,47.82c-7.92,2.32-16.06,3-24.26,3.46-4.08.24-5.81-1.28-6.91-5-1.69-5.81-3.89-11.48-6-17.18-.73-2-1.72-4.27-4.45-3.32-3.2,1.13-1.32,3.46-.73,5.26,1.73,5.32,3.69,10.55,5.42,15.87,1.12,3.42.27,4.74-3.66,3.68-12.08-3.23-21.08-9.95-25.58-21.85-10.26-27.08-20.33-54.23-30.64-81.28-1.46-3.87-.75-5.29,3.36-6.07,4.32-.83,8.45-2.61,12.69-4,2.5-.78,5.71-1.75,4.44-4.93-1.14-2.85-4.05-.58-6.16-.27a32.78,32.78,0,0,0-3.37.76c-3.62,1.45-7.25,2.84-10.83,4.35-2.66,1.09-4.36,0-5.8-2.16-3.77-5.74-9.17-9.6-15-13-6.53-2.24-13.29-2.12-20-2.12-35.07.07-70.15-.43-105.2.47-13.51.34-24.76-2.51-34.32-11.91-11.05-7.41-22.05-14.85-33.13-22.18a6.85,6.85,0,0,1-3.43-6.37q.25-64.59.38-129.17,0-10.79-.1-21.59c-.31-1,0-1.45,1.1-1.35,20.8-1.35,41.63-.21,62.45-.65,16.39-.34,32.82,1.28,49.15-.51,15.17-1.66,24.67-12.56,24.75-28.13.19-34.42.09-68.85,0-103.27,0-4.46-.73-8.92,6.22-5.14,1.56.86,4.12,0,6.2-.26s3.57-1.33,3.24-3.7c-.37-2.55-2.48-1.83-3.86-1.59-3.84.69-6.64.55-8.11-4.12s-2.49-8.19,1.92-11.85c9.37-7.78,20.16-12.82,31.57-16.37,56.23-17.5,113.19-32.38,170.69-45,47.53-10.44,95.62-17.77,143.91-23.53q55.76-6.67,111.81-10.52,69.07-4.65,138.27-5.53c5.13-.07,9.42-.13,9,7.64,2.22-11,10.21-7.43,16.32-7.42,52.48.06,104.86,2.75,157.14,7.05,95.88,7.89,191.06,20.48,284.31,44.93,39,10.24,78.5,19.17,116.77,32.24,11.3,3.84,22.21,8.53,31.58,16.31,4.29,3.55,3.85,7.27,2.43,11.9s-4.41,4.73-8.17,4.22c-1.87-.25-4.25-.29-4.42,2.11-.15,2.15,2,3,3.94,3.29,4,.68,7.88.71,11.27-1.88,1.88,3.09,1,5.68,1,8.14.06,33.25,0,66.51.09,99.76.07,20.41,10.73,31.2,31.18,31.3,33.49.16,67,0,100.49-.06,3,0,6.09-1,6,4.11-.25,27.38-.27,54.78-.38,82.17q.19,33.66.41,67.32C1709.38,664.11,1708,665.44,1706.18,666.65Z"/><path class="cls-1" d="M1547.81,396.13c-.42-11.07,2-22.76-9.09-30.06,2-2.86,5.67-.62,5.74-3.49.07-3.12-3-3.74-5.46-4.46-13.47-3.82-26.83-7.95-40.07-12.57-37.16-13-75.73-20.44-114.26-27.8-43.84-8.35-87.64-17.05-131.85-23.32-39.63-5.61-79.42-9.52-119.34-12.53-53-4-106.07-6.87-159.24-7.15-10.93-.05-10.93.14-13.43-10.08-.06-.24-.76-.31-1.66-.66a27.3,27.3,0,0,0-.54,5.33c.44,4.47-1.59,5.44-5.77,5.44-42.39,0-84.72,1.76-127,4.36-73.59,4.53-146.76,12.07-219.4,25.32-75.86,13.83-151.59,27.78-224.59,53.48-2.44.86-5.62,1.14-6,4-.59,4,4.6.82,5.38,3.62-8.74,10.55-8.12,10.57-8.87,25.36-1.26,24.82,4.28,48.79,7.88,73,3.26,21.93,6.84,43.81,10.28,65.71.95,5.05,1.86,10.11,2.84,15.15,3.28,16.72,13.06,25.12,30.15,25.43,14.05.26,28.12,0,42.17.18,11.69.14,17.09,4,20.93,14.91,3.42,9.68,6.68,19.4,10,29.09,10.51,28.88,21,57.78,31.55,86.63,1.56,4.26,2.72,8.37,1.06,12.8,5.6,1.6,5.67,7,7.34,11.11,2.49,6,4.25,12.35,6.4,18.51,1.69,4.83,4.88,9.33,2.77,14.86,9.31,6,14.71,16.81,26.22,20.28a81.22,81.22,0,0,0,40.27,1.65c41.81-8.78,83.6-17.54,125.91-23.58,16.79-2.4,33.54-5.13,50.49-6.26,10.19-1.23,20.34-2.81,30.55-3.63,18.38-1.47,36.68-4,55.16-3.65.5-.38,1-1.1,1.5-1.11,20.62-.16,41.2-2.41,61.85-1.68,8.88-.25,17.77-.8,26.64-.7a1598,1598,0,0,1,177.87,11.74c43.4,5.39,86.53,12.3,129.35,21.27,20.53,4.29,40.75,10.68,62.23,8.72,9.63-.88,18.77-3.06,25.75-9.69,6.2-5.88,13.87-10.15,15.44-20.8,1.59-10.86,7.39-21.07,10.95-31.69,1-3,5.29-4.55,4.63-7.15-1.49-6,1.84-10.22,3.67-15.08,2-6,3.71-12,5.93-17.9,8-21.36,14.45-43.28,23.48-64.27A231.61,231.61,0,0,1,1434.84,582c4.17-10,12.68-12.86,23-11.39,12.56-.1,25.12-.13,37.68-.33,16-.24,24.9-6.45,30.68-21.15,1.21-6.36,2.4-12.72,3.61-19.09,2.93-19.16,6-38.3,8.75-57.49C1542.14,447.16,1548.81,422.14,1547.81,396.13ZM548,739.89c-2.56-7.26-5.3-14.45-8.08-21.61-1.28-3.29-1.52-5.4,3-6.36s8.81-3,13.17-4.64c2.15-.8,5.3-1.66,4.3-4.43-1.09-3.09-4.36-1.9-6.7-1.11-4.65,1.56-9.19,3.39-13.78,5.13-2.22.86-3.67,1-4.68-2C525.6,676.9,515.8,649,506.07,621c-4.69-12.66-9.51-25.27-14-38-4.37-12.3-12.92-18.37-25.92-18.37-12.63,0-25.25,0-37.87-.1-19.94-.17-26.62-5.9-30-25.6-.44-2.53-.71-5.09-1.06-7.63-5.4-33.12-10.5-66.3-16.37-99.35-2.8-15.79-2.79-31.6-2.8-47.48,0-4.8,1.77-8.43,4.94-11.89,9.53-10.42,22.32-15.2,35-19.87,36.23-13.38,74.06-20.61,111.77-28.22,12.57-2.55,25.22-4.71,37.79-7.17,3.89-.76,5.9-.54,5.88,4.5q-.29,102.12-.22,204.25a14.81,14.81,0,0,1-.27,2.08c.72,30.92.58,61.84.06,92.75q.06,52,.14,104a13.09,13.09,0,0,1-.31,7.12c-4-1.07-3.32-4.29-3.48-7.08-2.33-2.63-1.73-9.63-5.55-8.2-4.47,1.69.22,6.76.77,10.26.76,5,2.74,9.84,4.33,14.71,1.06,3.25.36,4.88-3.17,6.25C552.62,753.08,552.75,753.24,548,739.89Zm23.79,31.63c-2.84,1.17-5.82-2.3-8.23-4.39-2.9-2.5-7.75-4.71-7.17-8.69.5-3.46,5.77-2.81,8.9-4,8-2.93,8.05-2.8,8,8.71C572.35,765.64,575.19,770.14,571.81,771.52Zm764.25,4.11c-20,1.87-39-3.17-58.21-7.37-51.89-11.35-104.31-19.36-157.11-25.09-51-5.55-102.14-8.88-153.46-8.56l-13.06-.08c-6.5-.14-13-.17-19.49-.25l-53.35,1.77-91.18,7.69c-14.5,2-29,3.88-43.49,5.91-44.63,6.24-88.86,14.61-132.76,24.8-10.38,2.42-21,.93-31.46,1.15-3.32.07-3.7-1.66-3.69-4.4q.3-77.18.48-154.36,0-44.3,0-88.58c-.1-2.79-.29-5.61-.29-8.41,0-66.05,0-132.09-.22-198.14,0-5.5,1.79-6.76,6.86-7.73,52.14-10.07,104.56-18.14,157.45-22.87,61.58-5.51,123.23-10,185.11-10.44,8.42-.07,16.86-.08,25.29-.47l14.08.08c32.31.49,64.62.87,96.91,2.79,24.54,1.43,49.07,2.91,73.58,4.79q45.49,3.48,90.79,9c35.74,4.31,71.07,11,106.49,17.35,5.39,1,6.06,2.83,6,7.52-.16,60-.1,119.92-.14,179.87,0,8.43-.17,16.85-.27,25.28l0,94.18,0,75.88c.14,24.79.2,49.61.48,74.41C1341.46,775.64,1339,775.35,1336.06,775.63Zm22.79-10.51a14.67,14.67,0,0,1-1.52,1.44c-3,2.11-5.94,6.51-9.22,5.14s-.53-6.3-1.26-9c.15-11,.15-11,9.9-7.52C1365.7,758.29,1365.74,758.44,1358.85,765.12Zm174.22-295c-3.67,24.24-8,48.38-11.87,72.57-2.24,13.88-9.71,21.2-23.94,21.7-12.85.45-25.73.05-38.6,0-4.15.36-8.43.22-12.44,1.14-9.14,2.13-14.81,8.27-18,16.94q-6.57,18-13.18,35.92-11.7,33.42-23.39,66.85c-2.09,5.92-4.6,11.73-6.32,17.76-1.27,4.46-3.21,4.63-7.07,3.11-6-2.35-11.72-6-18.64-4.85-.69,2.65.1,4.48,2.82,5.45,3.51,1.26,6.93,2.73,10.43,4,8.65,3.1,8.61,3.06,5.34,12.09-3.09,8.52-6.3,17-9,25.68-1.07,3.43-2.59,4-5.53,2.84-.42-.18-.83-.42-1.27-.57-12.67-4.55-12.67-4.55-8.6-17.39,1.25-4,2.6-8,3.68-12,.45-1.69,1.52-4.27-.38-5.11-2.71-1.19-3.16,1.86-4.18,3.53-.59,1-1.15,2-1.74,2.94.53,1.89-1.59,2.31-2,3.67.76,2.55,1,5-1.78,6.68a11.44,11.44,0,0,1-.38-6.93c0-1.7,0-3.4,0-5.11,0-1.49,0-3,0-4.48s0-2.76.08-4.15c0-1.9,0-3.8.07-5.71l.06-88.45c-.65-30-.79-60,.07-90-.14-8.88-.4-17.75-.4-26.63,0-59.67,0-119.33-.14-179,0-4.88,1.13-6.12,5.8-5.21,50.34,9.85,101,18.13,149.58,35.45,11.18,4,22.18,8.68,31.48,16.5,5.68,4.8,8.28,10.37,8.63,18.12C1543.67,415.55,1537.23,442.72,1533.07,470.14Z"/><path class="cls-2" d="M1358.85,765.12a14.67,14.67,0,0,1-1.52,1.44c-3,2.11-5.94,6.51-9.22,5.14s-.53-6.3-1.26-9c.15-11,.15-11,9.9-7.52C1365.7,758.29,1365.74,758.44,1358.85,765.12Z"/><path class="cls-2" d="M571.81,771.52c-2.84,1.17-5.82-2.3-8.23-4.39-2.9-2.5-7.75-4.71-7.17-8.69.5-3.46,5.77-2.81,8.9-4,8-2.93,8.05-2.8,8,8.71C572.35,765.64,575.19,770.14,571.81,771.52Z"/><path class="cls-2" d="M1533.07,470.14c-3.67,24.24-8,48.38-11.87,72.57-2.24,13.88-9.71,21.2-23.94,21.7-12.85.45-25.73.05-38.6,0-4.15.36-8.43.22-12.44,1.14-9.14,2.13-14.81,8.27-18,16.94q-6.57,18-13.18,35.92-11.7,33.42-23.39,66.85c-2.09,5.92-4.6,11.73-6.32,17.76-1.27,4.46-3.21,4.63-7.07,3.11-6-2.35-11.72-6-18.64-4.85-.69,2.65.1,4.48,2.82,5.45,3.51,1.26,6.93,2.73,10.43,4,8.65,3.1,8.61,3.06,5.34,12.09-3.09,8.52-6.3,17-9,25.68-1.07,3.43-2.59,4-5.53,2.84-.42-.18-.83-.42-1.27-.57-12.67-4.55-12.67-4.55-8.6-17.39,1.25-4,2.6-8,3.68-12,.45-1.69,1.52-4.27-.38-5.11-2.71-1.19-3.16,1.86-4.18,3.53-.59,1-1.15,2-1.74,2.94.53,1.89-1.59,2.31-2,3.67.76,2.55,1,5-1.78,6.68a11.44,11.44,0,0,1-.38-6.93c0-1.7,0-3.4,0-5.11,0-1.49,0-3,0-4.48s0-2.76.08-4.15c0-1.9,0-3.8.07-5.71l.06-88.45c-.65-30-.79-60,.07-90-.14-8.88-.4-17.75-.4-26.63,0-59.67,0-119.33-.14-179,0-4.88,1.13-6.12,5.8-5.21,50.34,9.85,101,18.13,149.58,35.45,11.18,4,22.18,8.68,31.48,16.5,5.68,4.8,8.28,10.37,8.63,18.12C1543.67,415.55,1537.23,442.72,1533.07,470.14Z"/><path class="cls-2" d="M1341.42,771.33c0,4.31-2.41,4-5.36,4.3-20,1.87-39-3.17-58.21-7.37-51.89-11.35-104.31-19.36-157.11-25.09-51-5.55-102.14-8.88-153.46-8.56l-13.06-.08c-6.5-.14-13-.17-19.49-.25l-53.35,1.77-91.18,7.69c-14.5,2-29,3.88-43.49,5.91-44.63,6.24-88.86,14.61-132.76,24.8-10.38,2.42-21,.93-31.46,1.15-3.32.07-3.7-1.66-3.69-4.4q.3-77.18.48-154.36,0-44.3,0-88.58c-.1-2.79-.29-5.61-.29-8.41,0-66.05,0-132.09-.22-198.14,0-5.5,1.79-6.76,6.86-7.73,52.14-10.07,104.56-18.14,157.45-22.87,61.58-5.51,123.23-10,185.11-10.44,8.42-.07,16.86-.08,25.29-.47l14.08.08c32.31.49,64.62.87,96.91,2.79,24.54,1.43,49.07,2.91,73.58,4.79q45.49,3.48,90.79,9c35.74,4.31,71.07,11,106.49,17.35,5.39,1,6.06,2.83,6,7.52-.16,60-.1,119.92-.14,179.87,0,8.43-.17,16.85-.27,25.28l0,94.18,0,75.88C1341.08,721.71,1341.14,746.53,1341.42,771.33Z"/><path class="cls-2" d="M572.74,732.11c-4-1.07-3.32-4.29-3.48-7.08-2.33-2.63-1.73-9.63-5.55-8.2-4.47,1.69.22,6.76.77,10.26.76,5,2.74,9.84,4.33,14.71,1.06,3.25.36,4.88-3.17,6.25-13,5-12.89,5.19-17.62-8.16-2.56-7.26-5.3-14.45-8.08-21.61-1.28-3.29-1.52-5.4,3-6.36s8.81-3,13.17-4.64c2.15-.8,5.3-1.66,4.3-4.43-1.09-3.09-4.36-1.9-6.7-1.11-4.65,1.56-9.19,3.39-13.78,5.13-2.22.86-3.67,1-4.68-2C525.6,676.9,515.8,649,506.07,621c-4.69-12.66-9.51-25.27-14-38-4.37-12.3-12.92-18.37-25.92-18.37-12.63,0-25.25,0-37.87-.1-19.94-.17-26.62-5.9-30-25.6-.44-2.53-.71-5.09-1.06-7.63-5.4-33.12-10.5-66.3-16.37-99.35-2.8-15.79-2.79-31.6-2.8-47.48,0-4.8,1.77-8.43,4.94-11.89,9.53-10.42,22.32-15.2,35-19.87,36.23-13.38,74.06-20.61,111.77-28.22,12.57-2.55,25.22-4.71,37.79-7.17,3.89-.76,5.9-.54,5.88,4.5q-.29,102.12-.22,204.25a14.81,14.81,0,0,1-.27,2.08c.72,30.92.58,61.84.06,92.75q.06,52,.14,104A13.09,13.09,0,0,1,572.74,732.11Z"/><path class="cls-1" d="M345.47,567.12c17.34,13.31,21.7,30.53,15.37,51-7.56,13.2-18,22.63-33.72,24.28-16.46,1.73-29.9-4-39-18-8.88-13.62-9.28-27.88-1.91-42.48C295.08,564.31,320.3,552.36,345.47,567.12Zm4.49,13.1c-9.88-12.8-25-17.37-39.93-12-13.38,4.79-23.66,20-23.28,34.46s11.34,28.33,26.2,33c13.36,4.2,29.07-1.1,37.28-12.58C360.66,609.25,360.55,593.55,350,580.22Z"/><path class="cls-1" d="M466.73,768.8c-.21-3,.31-5.06,2.18-5.69,2-.68,2.64,1.44,3.18,2.92,2.87,7.89,5.74,15.79,8.44,23.74.56,1.64,1.3,4-.84,5s-3.38-1.1-4.2-2.72C471.55,784.33,469.22,776,466.73,768.8Z"/><path class="cls-1" d="M465.69,747.13c-.22,2.44.44,4.37-1.95,4.76a2.64,2.64,0,0,1-3.2-2c-2.58-8.37-5.16-16.76-7.65-25.16a2.84,2.84,0,0,1,1.72-3.45c2-.87,3.09.61,3.61,2.19C460.86,731.61,463.38,739.78,465.69,747.13Z"/><path class="cls-1" d="M513.25,748.74c1.73,2.56,2.7,3.41,2.92,4.41,1.72,7.85,5.48,11.55,13.7,7.33,1-.51,3-.85,3.41,1.08.36,1.6-.9,2.46-2.26,3-.21.09-.39.27-.6.34-4.43,1.33-9.23,7.25-12.92,3.68C513.16,764.41,511.87,757.4,513.25,748.74Z"/><path class="cls-1" d="M509.47,740.37c-5.19-5.71-6.14-11.75-7.82-17.43-.49-1.66.27-3.12,2.29-3.69,2.92-.81,5.74-2,8.67-2.73,1.66-.43,4-1.49,4.6,1.27.46,2.2-1.48,3.7-3.3,3.88-7.52.76-7.17,4.76-4.6,10C510.45,734,510.65,736.5,509.47,740.37Z"/><path class="cls-1" d="M1562.75,579.11c16.29-20.25,39.82-24.72,58.78-11.16,24.3,17.36,23.15,52.78-2.21,68.6-1,.61-1.93,1.3-2.89,2a42.17,42.17,0,0,1-46.13-5.87c-12.63-11.18-17.18-30-11-45.92C1560.25,584.11,1561.58,581.64,1562.75,579.11Zm46.83,55.62a51.84,51.84,0,0,0,5.72-2.46c13.43-7.78,20.61-24.08,17-38.27-4.13-16-17.43-27.28-32.92-27.83-16.09-.58-30,9-34.75,23.94-5.21,13.69-1.95,25.7,7.93,35.85C1582.86,636.59,1595.34,639.77,1609.58,634.73Z"/><path class="cls-1" d="M1440,787q3.74-9.9,7.48-19.78c.92-2.44,1.83-4.88,5.28-3.88,2.85,5.37-.69,9.86-2.2,14.54a127.11,127.11,0,0,1-5.5,13.49c-.83,1.8-2.1,4.28-4.56,3.33-2.07-.79-1-3.21-.89-5C1439.62,788.83,1439.83,787.91,1440,787Z"/><path class="cls-1" d="M1457.53,752.6c-4.75-1.15-2.82-4.73-2.22-7.24,1.66-6.92,3.8-13.74,5.75-20.6,1.69-1.06,2-4.87,5.12-3,2.26,1.41,1.11,3.7.43,5.65C1463.67,735.87,1462.87,745.05,1457.53,752.6Z"/><path class="cls-1" d="M1408.14,754.16c-1.36,4.29-2.71,9-4.36,13.59-.73,2-2.56,2.7-4.62,1.76-3.39-1.54-6.73-3.21-10.11-4.78-1.35-.64-2.57-1.57-2.19-3.1.45-1.83,2.21-1.35,3.53-1.19a12.66,12.66,0,0,1,3.37.92c4.67,2.08,7.48.9,8.46-4.35.28-1.55,1.33-3,2-4.44.5-1,1-2.32,2.45-1.84S1407.83,752.6,1408.14,754.16Z"/><path class="cls-1" d="M1410.82,739.84a6.75,6.75,0,0,1-.49-6.3c2.35-5.73,4.47-11.11-4.9-12.23a2.91,2.91,0,0,1-2.34-3.75c.71-2.28,2.69-1.31,4.14-1,2.28.43,4.47,1.32,6.75,1.75,4.65.88,5.65,3.68,4,7.63C1416.06,730.47,1415.34,735.71,1410.82,739.84Z"/><rect class="cls-2" width="1" height="1"/><rect class="cls-2" x="1919" y="1079" width="1" height="1"/><rect class="cls-2" y="1079" width="1" height="1"/><rect class="cls-2" x="1919" width="1" height="1"/></g><g id="Capa_3" data-name="Capa 3"><path d="M835,457v111H815.19V497.31l-19.51,14.91-16.17,12.53-16.18-12.53-19.51-14.91v70.75H724V457l19.83,15.22,35.69,27.44,35.68-27.44Z"/><path d="M938.75,476.69a34.51,34.51,0,0,1,3.65,15.55V567.9H922.57V490.33a15.81,15.81,0,0,0-13.48-13.48H850.88V457h56.3a34.48,34.48,0,0,1,15.55,3.64,35.17,35.17,0,0,1,16,16.18Z"/><path d="M1069.12,457v111H1049.3V522.38H990.77a31.42,31.42,0,0,1-14.91-3.65,32.41,32.41,0,0,1-17.77-29V457h19.83V489.7a13.07,13.07,0,0,0,13,13h58.53V457Z"/><path d="M1193.31,523a31.5,31.5,0,0,1,2.7,12.85,32.63,32.63,0,0,1-32.68,32.67h-78.19V548.71h78.19a12.93,12.93,0,0,0,12.85-13,12.77,12.77,0,0,0-11.42-12.85h-79.62V457.5h101.67v19.83H1105V503h59.64a32.17,32.17,0,0,1,28.87,19.83Z"/></g></g></svg>