<svg xmlns="http://www.w3.org/2000/svg" viewBox="0 0 1920 1080"><defs><style>.cls-1{fill:#f2f2f2;}.cls-2{fill:#020202;}.cls-3{isolation:isolate;}</style></defs><g id="Capa_2" data-name="Capa 2"><g id="Capa_1-2" data-name="Capa 1"><g id="Capa_2-2" data-name="Capa 2"><g id="Capa_1-2-2" data-name="Capa 1-2"><path class="cls-1" d="M1551.34,628.16a51.19,51.19,0,0,1-4.8,23.4c-9.74-1.48-14.44-12.61-26.2-13.5,1.22,8.45,7.85,11,12.61,13.5,11.42,6,10.65,12.84,5.54,23-11.8,23.6-27.44,44.06-49.31,58.48-27.27,18-55.76,34.1-83.72,51-.75,2-2.13,3.39-4.28,2.66-.73-.24-.93-2-1.38-3.1-.2-53.92-1.8-107.83.83-161.72a157.89,157.89,0,0,1,.1-45.12c-.08-1.33-.16-2.67-.26-4a4.3,4.3,0,0,1,.2-5.66c-2.37-34.61-1.4-69.26-.77-103.91-.06-.81-.12-1.6-.18-2.39l2.7,1.78c6.55,1.58,9.2-1.56,4.38-6-8.9-8.27-7.42-18.33-7.44-28.39,0-28,.42-56-.21-83.92-.24-10.38,2.13-13.52,12.57-10.12,32.63,10.67,65.27,21.54,96.37,36,28.09,13,44.16,36.5,45.26,67.4,1.34,37.59,0,75.26-.16,112.92C1553.57,576.36,1556.25,602.35,1551.34,628.16Z"/><path class="cls-1" d="M1392.87,472.93c-.71,24.78-.59,49.6-.79,74.39,1.31,20.24,1.31,20.24-26.14,43.68,10.56,2.84,16.85-5.74,26.06-7.57v48.08c.22,51.17.24,102.33.87,153.51.1,8.49-5,11-10.81,13.88-43.86,21.9-89.21,26.63-136.21,11.79-26.14-8.26-52.17-16.79-78.27-25.21-35.11-8.43-70.74-14-106.4-19.34-24.19-1.62-48.36-3.83-72.57-4.6-13-.43-8-9.25-8-14.76q-.39-174-.18-348c0-41.54.28-83.09-.24-124.63-.11-9.63,1.78-12.74,12.3-12.55,133.56,2.23,263.57,25.52,391.08,64.39,7,2.13,9.33,4.93,9.25,12.21-.41,30.76-.67,61.52.14,92.25.26,9.68-4,10.65-13,9.82C1393.86,448.58,1393.21,460.52,1392.87,472.93Z"/><path class="cls-1" d="M938.06,547.26c.2,67.93.29,135.87.75,203.79.06,7.79-2.47,10-10,10.32-22.59,1.08-45.16,3-67.73,4.61-64.68,7.52-127.37,23.07-188.7,44.89-23.89,8.47-49,11.45-74.39,5.8-19.73,0-37.19-8.07-55.21-14.7-14-5.15-19.25-13.67-15.74-27.92,0-2.13.06-4.26.08-6.41l.06-77.84V583.29c8.9,1.42,14.58,10.26,28.27,7.73-16.67-10.67-37.35-16.95-28.25-40.53-.22-30.72,0-61.44-1-92.12-.26-9.18,7.62-10.82,12.35-18-11.56,1.42-12.51-4.64-12.33-13.48.59-28.57.45-57.14,0-85.71-.1-8.5,1.4-12.85,11-15.75C663.67,287,792.54,264,924.88,261.92c6.19-.08,14-3.65,14,8.86C938.26,362.94,938.26,455.11,938.06,547.26Z"/><path class="cls-1" d="M519,563.32c1.6,21.55,1.22,43.13.12,64.68L519,700.81v88c-40.12-28.31-84.93-44.67-116.3-80.94-3.79-4.38-8.56-8.28-9.81-14.44a92.94,92.94,0,0,1-5.8-7.6c-13.71-22.49-13.67-22.49,6.18-39.09a27.86,27.86,0,0,0,4.46-4.49c.45-.6-.08-1.92-.16-2.91-3.1-2.58-4.78.46-6.81,1.74-21.33,13.64-21.33,13.64-22.75-12.82-1.87-4-2.86-8-1.32-12.36a15.15,15.15,0,0,1-.06-10.93c-2.05-17.14-1.7-34.27-.4-51.42C366,514.8,364.4,476,365.9,437.31c1.24-31.47,18-54.89,47-68,30.84-14,62.85-24.92,95.13-35.2,8.68-2.75,12.25-1.84,12,8.76-.65,31.75-1,63.57.16,95.28.4,10.74-9.1,15.31-10.93,25.2,6.14-2.84,11-5.61,10.73,4.77C519.16,499.84,519.27,531.59,519,563.32Z"/><path class="cls-2" d="M1634,559.39c-13.43.24-26.89-.51-40.29.24-10.08.55-12.37-3.67-10.28-12.39-.2-8.07-.59-16.14-.59-24.23-.06-39.25,0-39.25,39.33-39.31,30.68-.06,34.6-3.92,34.62-34.27l-8.11-24.05c-12.72-40.45-43-62.85-79.91-78.83-72.85-31.47-148.14-55.82-224.58-76.58-100.18-27.23-202-45.27-305.84-50.47-7.92-.4-16.36-2.25-23.25,3.84-15.57,13.72-33.92,4.94-51,6.28l-11.1.73c-18.12-1.54-37.71,5.82-53.63-9.81-2.77-2.72-9.2-2.25-14-2.29L804.26,223c-71.81,11.28-142.72,24-212.47,42.56-82.22,21.84-163.22,47.3-241.44,81.19-37.51,16.24-68.13,38.92-80,80.47l-7.1,28.63c.09,23.9,4.36,27.59,28.92,27.63,11.33,0,22.69.49,34,0,7.91-.33,10.4,2.75,10.16,10.4-.59,17.78-.57,35.58-.81,53.38v6.51c.3,2.68-.06,4.79-3.59,4.28-16,3-32.08.83-48.14,1.34-12.83.4-18.49,6.81-18.69,19q-.45,26.55-.77,53.1c3.3,18.35-3.93,37.63,4.93,55.47,6.38,5.84,12.57,12,26.13,10.38-10.14,8.86-7.44,14.7-1.64,21.31,12.39,14.14,24,29,35.93,43.5,7,7.76,14.31,15.38,21.13,23.39,5,5.86,9.48,9.92,16.18,2,3.67-4.34,7.21-5.39,10.36,1.4,3.93,8.47,12.93,5.64,19.83,7.46,23.66-.38,47.32-.65,71-1.22,6.21-.14,10.12,2.62,13,7.75,12.31,22.45,28.24,41.46,51.21,55l13.14,3.81c5.19-.24,10.47.83,15.21-3,14.9-12,32.73-10.08,49.94-9.21,19,1,37.16-1.25,54.42-9.46,63.32-22.65,128.69-36,195.42-43.27C889.88,789.5,920,790,949.85,788l29.85.18a407.42,407.42,0,0,1,81.65,8.78c59.37,6.71,118.23,16.89,174.41,37.18,31.51,11.4,62.63,17.93,95.8,15.21,7.83-.65,14.52.67,20.34,6.83,6.18,6.57,13.85,6.15,22.34,3.53,22-6.77,38.45-20.74,52.88-37.79,7.4-20.74,20.66-30.31,43.92-27,16.36,2.27,33.29.55,50,.47,8.45,0,17.52,1.6,22.18-8.72,2.72-6,6.25-2.25,8.42.46,7.07,8.84,11.53,4.79,17.25-2,20.42-24.21,41.38-48,62.15-71.92,3.28-6.27-3.71-9-5.09-13.69,22.46-5.39,28.06-12.55,28.08-35.6,0-27.94-.24-55.86.08-83.8C1654.24,566,1648.24,559.12,1634,559.39ZM946,612.25a257.89,257.89,0,0,1,.08-45.66Q945.63,419,945,271.39c0-8.92,3.67-13.2,11-9,5.92,3.38,9.89-4.79,14.6-.18,2.63-.37,3.24.93,2.61,3.22q.21,141.33.41,282.64c0,66.22-.39,132.45.16,198.67.1,11.63-3.51,14-14.42,14.21-11.41.18-15.61-3.12-14.07-14.38.79-5.82.51-11.8.71-17.7a317.75,317.75,0,0,1,0-52.17Q946.08,644.5,946,612.25ZM362.23,782.81c-3.06,2.21-4.89,0-6.63-2.07-18.82-22.18-37.53-44.47-56.51-66.53-3.12-3.63-3.51-6.08.12-9.38,3.11-2.84,5.56-2.54,8.15.36q29.65,33.12,59.23,66.3c1,1.14,1.54,2.74,3.14,5.66C367.38,778.91,364.85,780.92,362.23,782.81Zm266.22,53.81c-14.56.12-29.12.26-43.67-.08-8.86-.23-17.22-.12-23.42,7.62-4.62,5.76-10,4.18-16,2-21.21-7.83-37.39-21.64-47.59-41.51-8.67-16.93-20.72-24.13-40.1-22.44s-38.79.48-58.19.28c-4.51,0-10.34,2-12.49-4.38-2.09-6.2,3.81-8,7-11.31,3.85-3.94,9.86-6,11.32-12-2.86-2.37-4.67-.91-6.41.27-18.39,12.39-18.37,12.39-33.6-4.62C352,735.54,339.4,720,325.15,706.1c-11.18-10.87-11.16-18,3-24.63,2.15-3.29,7.74-4.32,6.53-10-6.8-1.88-10.22,3.59-13.37,7.08-9.61,10.7-21.77,7.36-32.76,5.88-6.69-.89-11.07-7.48-10.67-15.84.63-13.38.59-26.78.81-40.18-1-17.38-1.5-34.74.27-52.09-.08-3.63,2.29-3.47,4.78-3.1,15.6-.31,31.21-1,46.8-.75,12.73.2,19.08-4.57,18.73-18-.54-21-.75-42.07-.3-63.1.3-14.8-7-20.44-20.74-20.31-13.49.12-27-.29-40.45.14-9.55.3-12.84-3.67-10.81-12.71.37-1.57.41-3.21.73-4.79,4.83-24.25,7.3-50,37.77-55.94-1-7.24-6.83-4.46-9.12-7.75,14.48-16.95,34.55-25.54,54.28-33.67C525.57,288.43,696.19,243.7,874.84,232.43c10.73-.69,21.7-2.25,29.6,7.93a6.68,6.68,0,0,0,4.14,2.31c6.37.63,15.23-1.44,18.51,2,3.9,4,7.38,7.82,13.51,9.65-20.4,8.41-40.56,1.84-60.3,2.72-146.66,6.34-287.15,41.22-425.23,88.3-3.67,1.23-7.95,6.3-12.63,1.33-4.72,9.35-15,9.41-22.95,12.68-41,16.76-60.34,44.83-60.44,89.55q-.18,88-.41,176c8.13,16,2.6,27.15-15.35,34.2,17.95,4.91,29.77,12.64,35.47,27.74,10.88,15.35,21,31.41,36.35,42.8,6,4.48,4.72,9.07,1.5,15.72,9.75-7.2,15.92-2,22.73,2.23,26.42,16.6,52.78,33.33,79.66,49.17,46,27.14,95,36.43,147.55,23,4.1-1.06,8.37-5.66,16.52,1C662.9,825,647.67,836.46,628.45,836.62Zm310.36-85.57c.06,7.79-2.47,10-10,10.32-22.59,1.08-45.16,3-67.73,4.61-64.68,7.52-127.37,23.07-188.7,44.89-23.89,8.47-49,11.45-74.39,5.8-19.73,0-37.19-8.07-55.21-14.7-14-5.15-19.25-13.67-15.74-27.92,0-2.13.06-4.26.08-6.41l.06-77.84V583.29c8.9,1.42,14.58,10.26,28.27,7.73-16.67-10.67-37.35-16.95-28.25-40.53-.22-30.72,0-61.44-1-92.12-.26-9.18,7.62-10.82,12.35-18-11.56,1.42-12.51-4.64-12.33-13.48.59-28.57.45-57.14,0-85.71-.1-8.5,1.4-12.85,11-15.75C663.67,287,792.54,264,924.88,261.92c6.19-.08,14-3.65,14,8.86-.59,92.16-.59,184.33-.79,276.48C938.26,615.19,938.35,683.13,938.81,751.05ZM520,468.13c-.88,31.71-.77,63.46-1.06,95.19,1.6,21.55,1.22,43.13.12,64.68L519,700.81v88c-40.12-28.31-84.93-44.67-116.3-80.94-3.79-4.38-8.56-8.28-9.81-14.44a92.94,92.94,0,0,1-5.8-7.6c-13.71-22.49-13.67-22.49,6.18-39.09a27.86,27.86,0,0,0,4.46-4.49c.45-.6-.08-1.92-.16-2.91-3.1-2.58-4.78.46-6.81,1.74-21.33,13.64-21.33,13.64-22.75-12.82-1.87-4-2.86-8-1.32-12.36a15.15,15.15,0,0,1-.06-10.93c-2.05-17.14-1.7-34.27-.4-51.42C366,514.8,364.4,476,365.9,437.31c1.24-31.47,18-54.89,47-68,30.84-14,62.85-24.92,95.13-35.2,8.68-2.75,12.25-1.84,12,8.76-.65,31.75-1,63.57.16,95.28.4,10.74-9.1,15.31-10.93,25.2C515.45,460.52,520.32,457.75,520,468.13Zm1096.79,250c-15.26,18.69-31.67,36.51-46.57,55.49-7.38,9.37-13.5,12.09-22.1,2.47,19.89-22.22,39.29-44.18,59.14-65.73,3.11-3.39,5.3-12.71,13.2-5.17,6.88,6.49-1,9.69-3.63,12.92Zm19.21-39.3h-1c-9.31,11-20.46,8.07-31.24,3.39-6.55-2.84-10.35-10.69-18.23-11.76-3.21,4.5.12,6.16,2.31,8.15,16.73,15.23,16.75,15.23,2.21,31.51-13.61,15.24-28,29.86-40.61,45.92-8.42,10.73-15.15,13.32-24.7,2.31-2-2.29-5.31-3.36-9.22-5.71-.9,10,7.82,11.19,11.67,15.89,2.23,2.72,6.9,4.1,5.46,8.8-1.56,5.17-6,5.31-10.53,5.29-22.06,0-44.16.79-66.18-.26-14.88-.71-24.16,4.87-31.3,17.52-7.36,13-15.11,26.17-29.12,33.64-6.38,7.07-15.2,9.73-23.6,13.28-4.3,1.82-8.8,3.22-11.86-.8-8.64-11.37-20.86-10.68-32.4-9.12-43.84,5.94-81.81-15.17-122-25.59a1162.27,1162.27,0,0,0-202.33-34.12C904,769.44,808,788.79,712.45,811.74c-5.23,1.26-10.34,3.06-15.57,4.32-4.42,1.05-8.94,1.68-13.44,2.49-1.64-5.8,3-5,5.45-5.94,106.65-38.91,217-50.3,329.63-43.17,75.16,4.77,148.5,19,219.26,45.64,24.53,9.21,50.36,11.3,76.4,10.95l22.64-3.28,5.78-1.46c50.15-13.87,89.91-47.08,134.31-71.7,6.12-3.4,11.52-12.79,20.9-5.15,1.34,1.1,5.4-.83,4.14-2.87-6.39-10.45,4.3-12.47,8.48-16.77,12.47-12.82,22.24-27.33,31.87-42.3,6.73-10.48,14.7-22.08,31.39-21.77-5.36-9.57-11.18-12.13-21.58-.73,3.39-13.24,5.74-22.49,8.09-31.74q.52-38.93,1-77.81-.09-29.09-.21-58.16c-.24-16.68-.08-33.39-.77-50-1.58-38-19.64-64.66-54.6-80.55-15.31-7-33.11-8.88-45.66-21.62-11.39,2-20.78-1.94-29-9.59-6.51,4.51-11.91-.73-17.44-2.35-85.77-25.1-171.7-49.77-260.77-60.24-55.41-6.51-111-12.26-166.91-12.49a63.8,63.8,0,0,1-21.73-3.26c15.35,2.21,26.8-11.94,42-8.84,1,.2,2.47.32,3.18-.2,29.75-22.53,62.59-8.76,93.25-5.62,152,15.57,298.22,55.35,439.92,112,21.92,8.76,44,17.68,62.51,32.91,3.15,2.6,12.31,5.15,1.46,11.58-5,3,1.67,6.08,4.63,7.09,30.47,10.47,25.77,39,31.61,61.89,1.86,7.25-5.15,8.11-10.81,8.15-13,0-25.91.5-38.83-.13-15.41-.73-23.46,5.7-23.66,21.33l-.24,58.14c2,20.58,3.38,21.67,24.43,21.91,13.79.15,27.55.65,41.32,1,5.64-1,5.9,2.49,5.9,6.63,0,30,.08,60-.06,90.06C1640.76,673.62,1642,678.83,1636,678.83ZM980.46,398.78c0-41.54.28-83.09-.24-124.63-.11-9.63,1.78-12.74,12.3-12.55,133.56,2.23,263.57,25.52,391.08,64.39,7,2.13,9.33,4.93,9.25,12.21-.41,30.76-.67,61.52.14,92.25.26,9.68-4,10.65-13,9.82,13.89,8.31,13.24,20.25,12.9,32.66-.71,24.78-.59,49.6-.79,74.39,1.31,20.24,1.31,20.24-26.14,43.68,10.56,2.84,16.85-5.74,26.06-7.57v48.08c.22,51.17.24,102.33.87,153.51.1,8.49-5,11-10.81,13.88-43.86,21.9-89.21,26.63-136.21,11.79-26.14-8.26-52.17-16.79-78.27-25.21-35.11-8.43-70.74-14-106.4-19.34-24.19-1.62-48.36-3.83-72.57-4.6-13-.43-8-9.25-8-14.76Q980.26,572.78,980.46,398.78Zm420,174a4.3,4.3,0,0,1,.2-5.66c-2.37-34.61-1.4-69.26-.77-103.91-.06-.81-.12-1.6-.18-2.39l2.7,1.78c6.55,1.58,9.2-1.56,4.38-6-8.9-8.27-7.42-18.33-7.44-28.39,0-28,.42-56-.21-83.92-.24-10.38,2.13-13.52,12.57-10.12,32.63,10.67,65.27,21.54,96.37,36,28.09,13,44.16,36.5,45.26,67.4,1.34,37.59,0,75.26-.16,112.92.38,25.91,3.06,51.9-1.85,77.71a51.19,51.19,0,0,1-4.8,23.4c-9.74-1.48-14.44-12.61-26.2-13.5,1.22,8.45,7.85,11,12.61,13.5,11.42,6,10.65,12.84,5.54,23-11.8,23.6-27.44,44.06-49.31,58.48-27.27,18-55.76,34.1-83.72,51-.75,2-2.13,3.39-4.28,2.66-.73-.24-.93-2-1.38-3.1-.2-53.92-1.8-107.83.83-161.72a157.89,157.89,0,0,1,.1-45.12c-.07-1.33-.15-2.67-.25-4Z"/><path class="cls-1" d="M973.87,746.76c.1,11.63-3.51,14-14.42,14.21-11.41.18-15.61-3.12-14.07-14.38.79-5.82.51-11.8.71-17.7a317.75,317.75,0,0,1,0-52.17q-.06-32.24-.1-64.47a257.89,257.89,0,0,1,.08-45.66Q945.62,419,945,271.39c0-8.92,3.67-13.2,11-9,5.92,3.38,9.89-4.79,14.6-.18,2.63-.37,3.24.93,2.61,3.22q.21,141.33.41,282.64C973.75,614.31,973.32,680.54,973.87,746.76Z"/><path class="cls-2" d="M1281.54,689.69c-13.75,2.88-21.31-4.12-24-16.87-2.84-13.73,4.26-23.4,17.43-25.15C1258.82,672.05,1259.66,676.8,1281.54,689.69Z"/><path class="cls-2" d="M1266.07,546.31l.43.12c-8.74-10.66-8.67-23-6.63-35.74C1262.57,522.44,1271.77,533,1266.07,546.31Z"/><path class="cls-2" d="M1316.27,434.56c-8.59,8.25-20.17,11.51-29.62,18.33C1292.85,440.63,1303,434.9,1316.27,434.56Z"/><path class="cls-2" d="M1277.38,464.86c-3.7,12.6-11.4,22.13-13.24,35.35C1257.8,488,1263.92,472,1277.38,464.86Z"/><path class="cls-2" d="M1294.4,685.84c3-13.9,4.72-24.24-5.39-32.82,8.85-4,11.23,1.26,13.23,6.57C1305.55,668.38,1305.09,676.37,1294.4,685.84Z"/><path class="cls-2" d="M1332.08,428.59c11.87-.81,24.06-3.65,34,7.56l-34.44-3.32C1331.79,431.42,1331.93,430,1332.08,428.59Z"/><path class="cls-2" d="M632.78,454.11l-30-17.34c14.28-1.9,24,4.55,32.2,13.85Z"/><path class="cls-2" d="M651.94,546.66s.89-.26.9-.25c-5.63-12.91,5.63-23.6,4.8-35.85C662.74,523.66,662.13,535.9,651.94,546.66Z"/><path class="cls-2" d="M642.7,465.64C654.55,474,659.85,485,655.85,499.7Q649.28,482.68,642.7,465.64Z"/><path class="cls-2" d="M587.49,432.86l-34.65,3.3c10.06-11.3,22.44-7.67,34.15-8.24C587.15,429.57,587.32,431.21,587.49,432.86Z"/><path class="cls-2" d="M636.25,689.78c.19-.5.26-1.32.61-1.46C662.24,678,662.23,666.57,644,649c15.06-1.08,20.38,7.72,17.72,29.32C654.64,685.3,649.62,696.86,636.25,689.78Z"/><path class="cls-2" d="M567.05,592.6l35.3-5c.2,1.4.4,2.79.61,4.18-11.05,6.63-23.23,5.49-35.33,4.87C567.44,595.27,567.25,593.94,567.05,592.6Z"/><path class="cls-2" d="M617,581.08c7.13-6.9,14.22-13.82,21.39-20.66,1.62-1.54,3.57-2.33,5.62-.59,2.47,2.11.54,3.76-.8,5.16-7.12,7.39-13.24,16.14-23.47,19.44Z"/><path class="cls-2" d="M495.56,515.41c-4.73-17.6-1.9-29.68,7-38.19.49.85,1.51,1.83,1.35,2.55C501.5,490.43,499,501.05,495.56,515.41Z"/><path class="cls-2" d="M513,558.87c-11.6,4.39-8.79-9-14.51-11.8-.33-6.65-6.21-12.42-2.16-24.22C502.37,537.29,505.77,549.16,513,558.87Z"/><path class="cls-2" d="M1420.24,550.68c-5,2.35-3.85,15.66-14.37,8,6.36-9.63,10.73-20.28,15.48-33.35C1427.79,535.94,1420.43,543.11,1420.24,550.68Z"/><path class="cls-2" d="M1422.31,512.4q-3.78-17.34-7.58-34.67l4.27-1.05c7.74,10.23,8.07,22.38,7.64,34.72Z"/><path class="cls-2" d="M1353,592.4c-13.06,6.92-25.17,4.45-37.06-.31.14-1.45.28-2.91.43-4.36Z"/><path class="cls-2" d="M1299.44,584.42c-11.08-4.76-19.23-12.59-22.38-25.82l25,22.61Z"/><path class="cls-2" d="M724.25,265.91c10.65-8.31,22.91-6.45,34.89-6.86C748.51,266.77,736,264.17,724.25,265.91Z"/><path class="cls-2" d="M606.69,289.11a67,67,0,0,1-34.08,8.5C582.63,290.27,593.87,287,606.69,289.11Z"/><path class="cls-2" d="M707.72,265.86c-10.84,5.95-22.54,7.83-34.79,7.26C683.23,265.34,695.34,265,707.72,265.86Z"/><path class="cls-2" d="M442.56,346.45c-5.52-5.13-11.29,3.7-19.56-1.36,12.7-4.89,22.6-11,35.09-11-1.59,9.63-14.61,3.2-15.69,12.53Z"/><path class="cls-2" d="M557.22,302.47c-9.51,8-21.09,10-33.27,10.28C533.87,305.91,544.77,302,557.22,302.47Z"/><path class="cls-2" d="M377.79,364.85c9.48-6.92,19.37-13.22,35.59-14.16C401.25,361.56,389.07,362,377.79,364.85Z"/><path class="cls-2" d="M811.35,257.63l-35,2.85c-.11-1.34-.22-2.68-.34-4,11.38-4.12,23.15-4.75,35.18-3.21Z"/><path class="cls-2" d="M361.64,374.57l-30,14.57-2.18-4.08c9.14-6.51,19.53-10.68,30.15-14.41C360.26,372,361,373.26,361.64,374.57Z"/><path class="cls-2" d="M862,250.72c-10.8,5-22,5.73-38,3.6C839,247.16,850.47,249.05,862,250.72Z"/><path class="cls-2" d="M914.67,248.41c-10.87,6.69-22.67,3-34.24,1.87C891.45,245.27,902.93,245.34,914.67,248.41Z"/><path class="cls-2" d="M623.33,282.08c10.52-3.83,21-7.77,32.64-6.9l1.11,4.27-32.57,6.88Z"/><path class="cls-2" d="M507.1,318.64c-10.38,6.57-21.22,11.61-38.61,11.37C483.09,320.86,494.52,317.85,507.1,318.64Z"/><path class="cls-2" d="M1346.23,300.21l-32.84-8.75c13.13-5.23,23.53-.26,34,4.51Z"/><path class="cls-2" d="M1194.17,264.07c-12.17,2.21-24,1.39-35-4.49C1171.28,257.2,1182.83,259.67,1194.17,264.07Z"/><path class="cls-2" d="M1431,330.49c-3.44-8-14.16-3.89-21.08-13.95,15.17,1,25.75,5.41,37.27,10.1-5.8,7.69-12-1.48-16.38,3.68Z"/><path class="cls-2" d="M1142.76,260.71l-35.29-3.33.36-4.5C1119.78,252,1131.65,252.43,1142.76,260.71Z"/><path class="cls-2" d="M1245.09,275.19l-34-6.6.73-4.31C1223.6,264.12,1235.08,265.81,1245.09,275.19Z"/><path class="cls-2" d="M1506,350.81c16.74,1.25,26.87,7.31,36.79,13.94C1530.84,363.56,1519.35,361.2,1506,350.81Z"/><path class="cls-2" d="M1395.16,311.72c-11.91,2.12-22.22-1.94-32-8.14C1375,301.08,1384.87,307.35,1395.16,311.72Z"/><path class="cls-2" d="M1554.9,370.75c19.4,4.78,26.27,8.26,34.65,16.54C1577.23,385.11,1571.34,382.43,1554.9,370.75Z"/><path class="cls-2" d="M1460,340.09c1.89-2.32.56-8.26,6.24-6.31a197.58,197.58,0,0,1,28.48,12c-12.75,2.8-22.53-8.21-34.91-5.92Z"/><path class="cls-2" d="M1040.72,251.43c-13.5,1.15-24.81,2.45-37.72-1.44C1015.56,244.42,1027.15,244.82,1040.72,251.43Z"/><path class="cls-2" d="M1091.63,253.54c-11.46,2.73-22.67,2.29-33.48-3.38C1069.41,250,1080.86,247.48,1091.63,253.54Z"/><path class="cls-2" d="M1295,283.81c-11.66.49-22.8-.57-35.51-7.81C1274.7,273.63,1284.89,279,1295,283.81Z"/><path class="cls-2" d="M1455.19,676.56c-4.65-12.63-5.28-24.63,6.11-33.92C1460.45,654.13,1456.24,664.94,1455.19,676.56Z"/><path class="cls-2" d="M1498.62,694.63c-20.33-.29-26.75-7.57-26.53-27C1478.41,677.42,1482.73,688.93,1498.62,694.63Z"/><path class="cls-2" d="M1472.72,628.25c12.22-3.78,24.44-8.67,36.62.11-11.12,5.07-23.6,1-35,5.13C1472.56,634.14,1472.81,630.24,1472.72,628.25Z"/><path class="cls-2" d="M1487.61,715.75c-11.61-4.24-17.23-14.37-23.83-23.64C1473.33,698.34,1483.08,704.29,1487.61,715.75Z"/><path class="cls-2" d="M1502.33,648.13c-11.44,1.6-21.3,5.31-27.58,17.58C1473.4,647.71,1483.28,641.72,1502.33,648.13Z"/><path class="cls-2" d="M1516.08,656.69c7.15,7.71,6.4,15.15,4.27,22.22-1.45,4.82-4.35,12.83-9.62,10.52-6.94-3,1.3-7.52,2.78-10.95C1516.43,671.72,1513.11,664.71,1516.08,656.69Z"/><path class="cls-2" d="M957.42,719.48a243.49,243.49,0,0,0,.1-44.2V657.5c.31-1,.62-2,.92-2.93,7.54,24.62.37,49.54.74,74.47Q958.3,724.27,957.42,719.48Z"/><path class="cls-2" d="M960.53,306.79V380H959V307.4Z"/><path class="cls-2" d="M957.8,615.07a2.49,2.49,0,0,0-.28-3V599.19a132.54,132.54,0,0,0,0-32.46q.63-13.4,1.24-26.78h2.53c0,24.22,0,48.44-.14,72.66C961.11,613.44,959,614.25,957.8,615.07Z"/><path class="cls-2" d="M960.47,423.44v73.14h-1.42V423.45Z"/><path class="cls-2" d="M446.77,631.63c-12.06,2.63-24-3.62-36.09-.38C416.77,620.84,433.61,621,446.77,631.63Z"/><path class="cls-2" d="M627.88,652c-5.63,9.62-10,19.07-.22,33C610.34,672.94,611.55,661.67,627.88,652Z"/><path class="cls-2" d="M457.62,690.45c-5.44,11.84-15,19.45-28.35,28.63,3.88-14.62,15.77-18,20.62-27Z"/><path class="cls-2" d="M445.44,686.52c-7,2.25-10.57,16.61-21.19,6,10.85-4.49,18.78-11.7,21.07-25.27C453.21,675.17,446.78,680.75,445.44,686.52Z"/><path class="cls-2" d="M464.76,676.43c-.82-11.51-5.59-22.33-8.83-36.58C470.45,652,469,664,464.76,676.43Z"/><path class="cls-2" d="M410.82,690c-4,1.17-6.31-1.77-9-3.75-7.15-17.22-6.89-20,5.31-30.88C401.11,669.54,406,679.75,410.82,690Z"/><path class="cls-2" d="M444.86,663.28c-4.57-3.76-9.05-7.42-13.51-11.11-4.07-3.35-10.81,1.17-14.31-4.66C434.26,641.44,443.93,647,444.86,663.28Z"/><rect class="cls-1" width="1" height="1"/><rect class="cls-1" x="1919" y="1079" width="1" height="1"/><rect class="cls-1" y="1079" width="1" height="1"/><rect class="cls-1" x="1919" width="1" height="1"/><rect class="cls-1" x="683.38" y="405.46" width="549.38" height="210.53"/></g><g id="Capa_3" data-name="Capa 3"><g class="cls-3"><path d="M826,466.22V559.7H809.28V500.14l-16.43,12.55-13.62,10.55-13.62-10.55-16.43-12.55V559.7H732.49V466.22L749.18,479l30.05,23.1,30-23.1Z"/><path d="M871.38,497.33V560.9h-16.7V495.6a13.3,13.3,0,0,0-11.35-11.35h-3.74V467.69h3.61v.13a30.06,30.06,0,0,1,11.35,3.07A29.66,29.66,0,0,1,868,484.51a36.24,36.24,0,0,1,2.27,6.28,28.24,28.24,0,0,1,.8,6.81Z"/><path d="M943.49,466.22a30.15,30.15,0,0,1,30.18,30.18v33a30.15,30.15,0,0,1-30.18,30.18H914.65a30.15,30.15,0,0,1-30.18-30.18v-33a30.15,30.15,0,0,1,30.18-30.18Zm-28.84,16.69A13.68,13.68,0,0,0,901,496.53v33a13.68,13.68,0,0,0,13.63,13.62h28.84a13.67,13.67,0,0,0,13.62-13.62v-33a13.67,13.67,0,0,0-13.62-13.62Z"/><path d="M1080.51,494.53a27.52,27.52,0,0,1-7.74,19.23A27.58,27.58,0,0,1,1053,560.5H987.17V543.81H1053a11,11,0,0,0,11-10.95,10.87,10.87,0,0,0-10.28-11H1004v-16.7h49.68a11,11,0,0,0-.53-21.9H987.3V466.62h65.84a27.48,27.48,0,0,1,27.51,27.51Z"/><path d="M1185.35,483.05a29,29,0,0,1,2.13,10.81v38.33a27.51,27.51,0,0,1-8.81,20.3,29.17,29.17,0,0,1-6.14,4.41A26.52,26.52,0,0,1,1160,560h-58.09v-16.7H1160a11,11,0,0,0,11-10.95V519.24a27.47,27.47,0,0,1-10.41,2.13h-39.4a27.58,27.58,0,0,1,.4-55.15h38.33a27.41,27.41,0,0,1,25.37,16.83Zm-74.65,10.81a11,11,0,0,0,10.41,10.95h39.4a11,11,0,0,0-.54-21.9h-38.32A11,11,0,0,0,1110.7,493.86Z"/></g></g></g></g></g></svg>