<svg xmlns="http://www.w3.org/2000/svg" viewBox="0 0 1920 1080"><defs><style>.cls-1{fill:#f2f2f2;}.cls-2{fill:#010101;}</style></defs><g id="Capa_2" data-name="Capa 2"><g id="Capa_3" data-name="Capa 3"><g id="Capa_2-2" data-name="Capa 2"><g id="Capa_1-2" data-name="Capa 1-2"><rect class="cls-1" width="1" height="1"/><rect class="cls-1" x="1919" y="1079" width="1" height="1"/><rect class="cls-1" y="1079" width="1" height="1"/><rect class="cls-1" x="1919" width="1" height="1"/></g><g id="Capa_3-2" data-name="Capa 3"><path class="cls-2" d="M974.14,799.73c36.52,2.21,73.15,2.85,109.55,6.92,16.32,2.15,32.72,3.84,49,6.54,27.18,4.53,54.26,9.7,81.38,14.6,23.83,6.14,47.42,13.51,71.54,18.17,42.91,8.3,88.93-14.37,106-53.66,18.85-43.25,33.44-88.24,48.84-132.85,8.86-23.81,18-47.53,26.47-71.46,3.57-10,8.35-18.92,16.58-25.78,8.56-4.48,17.81-5.83,27.32-5.89,12.46-.08,24.92-.18,37.38-.11,5.88,0,11.16-1,15.86-5,18.38-15.78,48.71-7.72,56,15.73v42.48c0,4.21-.12,7.75,6.13,7.85,19.69.31,34.9-10,48.92-21.49,10.4-8.54,8.73-21.89,8.07-34.1.86-15.44,2.87-30.37,15.83-41.27,3.69-3.11,3.29-8,3.33-12.37.16-23,.33-46,.37-69.06,0-27.24,0-27.06-27.57-27.4-6-.07-9,1.65-11.56,7.17-5.37,11.5-14.8,18.55-27.7,19.23-28.81,1.51-56.71-.38-84.54-11a1586.32,1586.32,0,0,0-371-93.26C1167,332,1153,332,1141.08,324.85c-6.5-3.88-13-4.91-20.2-4.9q-85.73.18-171.45,0H814.33c-14.08,0-28.4-1.72-41.05,7.27-2.82,2-7,2.27-10.68,2.86-30.67,4.95-61.53,8.56-92.16,13.87C576.8,360.22,485.12,383.74,396,416.76c-34.68,12.86-69,25.61-107.08,21.88-12.67-1.25-24.8-4.07-29.75-15.66s-12.86-11.71-22.42-11.26a67.3,67.3,0,0,1-10.14.11c-7-.74-9.47,2.18-9.45,9.16.08,28.77-.31,57.54-.32,86.32,0,4.67.22,9.71,4.08,13.21,12.24,11.08,16.26,25.24,15.87,41.15-.6,11.48-2,24,6.81,32.53,13.43,13,29.22,22.41,49,22.92,6.35.17,8.31-2.07,8.28-8-.09-15.13.17-30.26.29-45.4,10.78-19,31.89-27.71,47.57-16.56,12.64,9,25.4,9.15,39.2,9.19,16.46,0,33.24-2.22,48.78,5.74,9.19,7.2,13.46,17.3,17.23,27.95,8.22,23.18,15.79,46.6,25.73,69.13Q492.42,698.5,508,736.78c6,19.54,12.38,39,21.44,57.33a88.42,88.42,0,0,0,44.09,42.38c20.74,11.61,42.86,14.28,65.64,8.58,50.18-12.55,100.39-24.9,151.64-32.38,17-2.48,34-4.72,51-7.07h0l4.26-.31c30-1.58,59.93-3.34,89.91-4.67ZM217.83,397.6c2.91-1.6,7.32-.62,11-.62,27.44,0,54.87-.08,82.3.06a99.08,99.08,0,0,0,35.66-6.72c65.83-24.74,132.6-46.49,201-63.07,64.8-15.7,130.1-28.51,196.37-35.95,11-1.23,17.26-5.53,21.71-15.79,8.92-20.51,24.21-35.62,44-46.13,4.09-2.18,8.13-4.48,12.19-6.72a69.73,69.73,0,0,1,27.63-5.87h208.42c46.24.18,79.26,21.7,98.66,63.59,2.94,6.35,6.5,8.91,13.49,9.76a1694.13,1694.13,0,0,1,402.3,99.72,107.33,107.33,0,0,0,39.66,7.22c24.39-.19,48.78-.1,73.17-.12,9.39,0,19-1.29,26.69,4.84,0,0,6,7.07,6,31v76.9c0,9.09-2.06,16.68-9,22.64-9.13,7.9-11.23,18-9.59,29.39a9.9,9.9,0,0,0-.49,2c-1.93,42-32.11,69.81-75.12,69.13-12-.19-18.91-6.54-19.3-18.61-.43-12.83-.41-25.69-.18-38.53.12-6.77-1.91-12-8.2-14.89-6.66-3-13.74-5.26-19.86.64-9.6,9.25-21.08,10.89-33.7,10.39-12.82-.51-25.69.07-38.54,0-9.65-.06-16.33,4.54-19.55,13.28-9.07,24.64-17.73,49.44-26.55,74.17a41.89,41.89,0,0,0-2.26,4.49c-14.21,38.93-28.66,77.79-42.51,116.85-21.89,61.75-77.33,92.53-141.15,78.18-18.06-4.06-35.56-10.46-54-13-34-9.34-68.83-14.58-103.64-19.8-10-1.49-20-2.36-30-3.51-35.32-3.89-70.67-7.2-106.28-6.25L953,815.61c-40.49.63-80.93,2-121.11,7.62A876.37,876.37,0,0,0,671.78,853s-65.72,18.34-88.3,6-35.16-18.13-47.35-29.37c-14.3-15.65-24.3-33.73-31.17-53.75-5-14.57-10.73-28.89-16.13-43.32-4.11-11.75-7.87-23.63-12.42-35.2s-6.25-24-14.09-34.09c-.15-2,.15-4.2-.51-6-8.79-24.45-17.48-49-26.72-73.23-3.21-8.42-10.51-12-19.41-12.09-12.53-.09-25.07-.4-37.59,0s-24-.53-33.79-10.08c-5.43-5.3-12.75-4.91-19.9-1.41-6.91,3.39-8.5,8.92-8.45,15.83q.14,17.78-.18,35.55c-.25,14.22-6.24,20.3-20.31,21-40.21,2-72.11-26.89-73.95-66.9a31.77,31.77,0,0,0-.66-4,30.09,30.09,0,0,0-9.63-29.48c-7.73-7-9.38-15.16-9.36-24.55V417.92S205.51,400,217.83,397.6ZM857.24,249.22c-29.67,1-50.83,16.2-63.49,43.11-1.73,3.66-3.58,7.26-5.39,10.89-1.15,2.31-4.68,4-3.31,6.87,1.65,3.4,5.46,1.58,8.24,1.58q166.13.15,332.24.06c3,0,7.12.55,8.58-1.07,2.66-3-2-5-3.12-7.54-2.32-5.24-4.69-10.48-7.41-15.51-12.95-23.9-33.12-37.54-60.19-38.44Zm202.7-8.3a81.26,81.26,0,0,1,27.91,4.43c22.29,8.05,37.65,23.31,46.81,45,3.9,9.23,8.37,17.83,19,21,2.07.61,4.4,2.25,3.29,4.25-4.71,8.46,2.62,6.88,6.27,7.42,22.74,3.35,45.61,6,68.29,9.65,108,17.57,213.51,44.65,315.66,83.9,28.18,10.83,56.43,15.5,86.23,13.37,7.51-.53,13.92-2.61,18.63-8.65,2-2.57,5.86-5.08,4.12-8.51-1.42-2.79-5.48-1.26-8.34-1.13-34.68,1.56-68.83.85-101.21-14.75-13.92-6.71-29-11-43.78-15.93-109.6-36.67-221.52-63-336.47-75.68-11.58-1.28-19.17-6.64-23.42-17.77a85.79,85.79,0,0,0-80-55.13H859.6c-38,.11-65.42,17.36-80.92,51.89-6.15,13.69-15,20-29.81,21.57-25.84,2.83-51.56,6.89-77.22,11.14A1610.32,1610.32,0,0,0,352.7,404.42a109.12,109.12,0,0,1-42.62,7.45c-15.45-.39-30.92-.09-46.51-.09,3.25,11.43,10.42,17.16,21.54,18,30.1,2.28,58.75-2.13,87.27-13.09,100.49-38.61,204.18-65.81,310.47-83,25.34-4.09,50.81-7.44,76.18-11.4,2-.31,8,1.59,5.32-4.06-2.36-5.08.95-6,3.83-7.45,8.42-4.15,13.17-11.29,16.78-19.55q22.06-50.37,77.11-50.41Z"/><path class="cls-2" d="M971.26,348c139,.56,274.54,22.91,406.82,65.3,32.55,10.43,45.37,32.56,39.79,66.19-4.53,27.32-8.27,54.78-12.36,82.18-2.16,13-4.64,25.93-6.39,39-1.39,10.35-4.7,19.3-12.06,27.15-8.28,8.84-15.49,18.69-23.17,28.09-29.89,35.27-60,70.37-89.57,105.88-14.9,17.88-33.09,25.84-56.2,21.92a827,827,0,0,0-133.84-26.18,826.29,826.29,0,0,0-106-7.91l-33.41-.73c-37.74,2-75.52,3-112.88,9.35-40,4.1-79.47,11-118,22.73-11.56,1-22.57,6.06-34.77,2.69-11-3-20.86-7.38-28.35-16.15-13.53-15.86-26.94-31.81-40.46-47.68-2.36-2.76-5-5.28-7.53-7.91-14.79-18.95-30.09-37.47-46.4-55.14-8.52-10.36-16.83-20.9-25.63-31a40.91,40.91,0,0,1-9.64-21.69c-2.22-14.91-4.71-29.78-7.09-44.67-4.11-26.35-7.72-52.79-12.46-79-5.8-32.11,7.4-56.51,38.38-66.63a1321.35,1321.35,0,0,1,180.69-45c76.11-13.44,152.74-21.29,230.1-20.68Z"/><path class="cls-1" d="M1409.59,477.16q-6.9,42.46-13.73,84.94-2.77,20.05-5.59,40.08a38.41,38.41,0,0,1-9.82,20.7c-11.71,13.09-23.09,26.47-34.6,39.71-27.72,33.15-55.24,66.46-83.26,99.37-11.94,14-27.67,16.93-45.08,12.37a1203.81,1203.81,0,0,0-133.61-26c-38.52-3.87-77.12-6.42-115.8-7.94-45.53.53-90.92,3.57-136.2,8.22-26.89,4.73-53.8,9.39-80.68,14.22-7.62,1.37-15.16,3.24-22.74,4.9a185.28,185.28,0,0,1-33.34,7.85c-14.29,1.84-27-1.7-36.58-12.91q-41.26-48.1-82.27-96.44c-11.59-13.65-22.85-27.59-34.55-41.15-7.51-8.72-12.2-18.24-13.11-30-.86-11.07-3.06-22-4.67-33-5-30.66-10.42-61.24-14.8-92-3-21,8.73-39.51,29.09-46.75,51.9-18.51,105.36-31.39,159.32-42,82.76-16.24,166.33-25.33,250.81-25.4l36.31.36c133.68,1.87,264,24,391.17,65C1403.65,430.24,1414.28,448.33,1409.59,477.16Z"/></g><path d="M844.69,484.25v111H824.86V524.54l-19.51,14.9L789.17,552,773,539.44l-19.5-14.9v70.74H733.66v-111l19.83,15.22,35.68,27.44,35.69-27.44Z"/><path d="M948.42,503.92a34.43,34.43,0,0,1,3.64,15.54v75.66H932.24V517.56a15.84,15.84,0,0,0-13.48-13.49H860.54V484.25h56.31a34.64,34.64,0,0,1,15.55,3.64,35.17,35.17,0,0,1,16,16.18Z"/><path d="M1055.79,503.92a34.44,34.44,0,0,1,3.65,15.54v75.66h-19.83V517.56a15.83,15.83,0,0,0-13.48-13.49H967.92V484.25h56.31a34.6,34.6,0,0,1,15.54,3.64,35.17,35.17,0,0,1,16,16.18Z"/><path d="M1183.47,550.23a31.54,31.54,0,0,1,2.7,12.85,32.63,32.63,0,0,1-32.68,32.67H1075.3V575.93h78.19a12.93,12.93,0,0,0,12.85-13,12.78,12.78,0,0,0-11.42-12.85H1075.3V484.72H1177v19.83h-81.85v25.7h59.64a32.15,32.15,0,0,1,28.87,19.82Z"/></g></g></g></svg>