<svg xmlns="http://www.w3.org/2000/svg" viewBox="0 0 1920 1080"><defs><style>.cls-1{fill:#f2f2f2;}.cls-2{fill:#020202;}</style></defs><g id="Capa_2" data-name="Capa 2"><g id="Capa_3" data-name="Capa 3"><g id="Capa_2-2" data-name="Capa 2"><g id="Capa_1-2" data-name="Capa 1-2"><g id="Capa_2-2-2" data-name="Capa 2-2"><g id="Capa_1-2-2" data-name="Capa 1-2-2"><path class="cls-1" d="M1635,502.28c-.38,7.83-.42,15.68-.62,23.53q.3,34.55.6,69.07c.08,12.46-6.61,18.87-18.56,19.41-9.64.42-19.33-.26-29-.44-36.89.18-73.78.3-110.69.64-6.87.08-13.74,1-20.61,1.56-2.32.78-4.63,1.59-7,2.37-21.09,12.51-30,30.66-29.14,55.43,1,30.46-.24,61-.52,91.49,3.63,11.73-.24,17-12.86,15.38-2.9-.38-6.53-.85-7.83,3.3,6.45,4.65,17.43-3,20.89,5.35,2.79,6.71.58,15.46.6,23.31,0,2.76-.34,5.59.06,8.31,1.24,8.53-2.14,10.89-10.69,10.69-26.32-.58-52.65-.64-79,.08-9.15.25-10.61-3.1-10.25-11,.54-11.82,2.32-24.37-9.4-32.86-101.73-31.47-205.93-48.11-312.3-51.33-13.28-.4-27.43,1.58-21.17-20.13-8.55,2.9-4.9,8.39-5.66,12.38-.58,3,.26,6.7-4.59,6.93-5.47.22-5.67-3.49-5.57-7.33.24-9.2.56-18.37.86-27.56q-.81-12-1.64-23.89H958c0,15.34.3,30.68-.2,46-.12,4.22,3.78,11.67-4.31,12.19-8.75.55-4.18-7.17-5.09-11.31-.56-2.6.47-5.65-2.7-7.39a10.71,10.71,0,0,0-2,.68c2.52,20-10.4,19.85-24.39,19.43-12.4-.38-24.82.38-37.23.64-1.75.12-3.49.24-5.21.34l-6.53.94-79,8.51c-51.41,8.43-102.6,18-152.84,31.94a49,49,0,0,1-10.9,1.63c-17.08.74-27.8,12-28.14,30-.44,21-.44,21-22,21-22.19,0-44.38-.56-66.53.26-9.63.37-11.95-3-11.23-11.69a104.26,104.26,0,0,0-.16-20.75c-1-9,1.28-14.92,12.66-16.16-13-.82-12.62-8.49-12.52-17.2.38-30-.94-60.11.44-90.07,1.14-25-7.25-44-28.26-57.39-35.57-8.25-71.7-2.11-107.5-4.15-4.15-.24-8.28-.3-12.42-.46-15.7.18-31.42.72-47.1.44-13.18-.24-19.51-6.73-19.61-19.83-.2-31.44,0-62.88-.08-94.3,0-8.07,2.72-14.74,9.65-18.75,23-13.36,46.3-26.35,71.14-40.45v32.46c6.61.32,4.9-3.82,5.22-6.63,1.53-12.78,3-26.57,2.85-38.31-.2-18.36,10.17-20.71,20.73-26.5,2.06-1.14,4-2.38,3.66-6-8,.06-14.56,4.46-21.17,7.91-15.19,8-11.19-8.47-16.34-13-6-5.29-1.82-8.89,4.17-11.74,24.59-11.67,49.12-23.47,73.38-35.8,6.65-3.39,10.71-3.79,13.33,4a26.42,26.42,0,0,0,3.19,6.15c5.07,7.55,10.07,15-4.53,21,12.62-4.53,19,4.32,27.22,8.13s16.18.62,24.07-2.34c70-26.26,140.89-49.73,214.55-63.69,54.58-10.33,109.77-15.46,165.18-18.17,24.38-1.18,31.73-9.55,29-34.22-1.12-10.12.44-16.82,13.5-15.1,10.9,1.44,22.07.9,33.13,1.22,3.82-2,7.69-1.32,11.55-.16,9.56-.28,19.09-.4,28.62-.88,7.41-.38,13.08-.58,12.74,10.17-.14,4.45-1.08,7.29-2.79,9-.9-.32-2.06.3-3.54,1.87a21.07,21.07,0,0,1-7.47-.26,84.22,84.22,0,0,0-9.53-.6l-5.93.06c-5.89.1-10.92.38-9.09,9,1.56,7.39-1.19,15.36,1.34,22.53,3.68.44,4.2-1.52,4-3.17-1.44-14.52-1.26-27.41,19.65-22.71,1.38.32,3.74-.94,4.73-2.2a28.61,28.61,0,0,1,2.26-2.66,6.45,6.45,0,0,0,3.54-1.87c1.25.48,2,2.79,2.59,7,2.32,17.23,7.93,22.25,25.13,22.73,129.76,3.71,254.28,32.27,375,78.77,15.28,5.87,29.44,12.94,44.5-2.2,5.67-5.71,13.18,6,21.75,4.94.58-7.43-6.11-7.51-9.9-8.77-7.37-2.5-7.57-5.48-4.22-11.93,10.45-20.21,10.17-20.33,30.24-10.5,21.13,10.36,42.22,20.79,63.43,31,5.3,2.55,9.63,5.77,3.94,10.82-5.25,4.69-1.38,20.35-16.24,13.84-4-1.74-7.65-5.25-12.76-4.07-1.94,4.85,2,5.39,4.65,6.65,7.17,3.37,14.86,6.39,8.75,16.7a1.69,1.69,0,0,0-.22,1.35c10,15.08,2.8,32.7,9,48.86V440.16c26.54,15.12,50.59,28.47,74.22,42.51C1634,486.78,1635.42,494.41,1635,502.28Z"/><path class="cls-2" d="M996.14,270.13a84.22,84.22,0,0,0-9.53-.6l-5.93.06c-5.89.1-10.92.38-9.09,9,1.56,7.39-1.19,15.36,1.34,22.53,3.68.44,4.2-1.52,4-3.17-1.44-14.52-1.26-27.41,19.65-22.71,1.38.32,3.74-.94,4.73-2.2a28.61,28.61,0,0,1,2.26-2.66A21.09,21.09,0,0,1,996.14,270.13Zm829.72,347.45c-.6-13.84-1.7-27.66-1.7-41.5l-2.89-24.81c-11.39-13.3-23.53-14.18-36.25-13.86-14.33.36-28.67.1-43,.08-18.55,0-19.37-.1-18.53-18.43.84-18.58-6.53-31.1-21.63-41.73a1411.22,1411.22,0,0,0-124-78.57c-6.07-3.38-14.71-4.87-8.78-15.42,1.75-3.13-2.18-4.43-4.6-5.63q-43.53-21.33-87-42.68c-4.23-2.08-8.29-2.9-10.09,2.67-3.51,10.75-9.74,6-16.07,3.4-128.85-53.15-262.39-85.79-402.14-89.7-27.52-.76-53.75-12.32-81.69-7.65l-13.76.08c-21.79.14-43.16,3.67-64.67,6.07l-112.41,7.87c-19.56,3.16-37.11,5.87-54.57,8.87-87.72,15.1-172.27,41-254.38,75-6.59,2.75-11.72,4.95-14.88-4-1.89-5.33-5.89-4.75-10.18-2.63q-43.5,21.39-87,42.66c-2.46,1.2-6.34,2.63-4.58,5.67,6.19,10.71-2.85,12-8.77,15.34C301.5,421.53,262.47,447,223.84,473.12c-18.49,12.5-30,26.86-27.48,50-.34,15.06-1.32,15.62-24.87,13.82-12.94.2-25.88.78-38.8.48-12-.28-22.89,1.58-31.26,10.77C92,561,94.24,614.86,94.24,614.86v19.49a173.38,173.38,0,0,1,0,38.51,4.8,4.8,0,0,1,.34,1.34c-1.52,43.46,13,49,51.11,47.17,8.63-.4,17.34.58,26,.9a13,13,0,0,1,10.63.1,90,90,0,0,1,25.6,0c5.38-1.4,10.77-1.59,17.94.22-8,5.4-7.11,11-3.67,18.14,10.18,21.21,18,43.62,29.18,64.31,8.27,15.22,11.92,13.74,11.92,13.74,29.52-2.27,59-1.73,88.54.14a10.68,10.68,0,0,1,8.65.26,1.63,1.63,0,0,1,2.3-.18h0l.18.18a395.38,395.38,0,0,1,61.37,0,1.66,1.66,0,0,1,2.34-.16l.16.16a32.58,32.58,0,0,1,16.92-.1c14.28-.3,28.58-.3,42.86-1,8-.4,7.93,4.44,7.41,9.75-.74,7.29,2.3,9.59,9.51,9.53,31-.3,61.91-.34,92.87.06,8,.12,9.25-3.54,8.71-10.07-.36-4.57-1.08-9.41,6.37-9.19,31.12.94,59.08-13.5,89-18.65,25.43-4.36,50.51-10.73,76.34-12.66a559.7,559.7,0,0,1,88.54-9,455.76,455.76,0,0,1,67.29-3.24l34.49-1.16c48.79,1,97.53,2.52,145.94,9.51,36.39,2.94,72.11,10.15,107.94,16.84,29.4,5.49,57,19.43,87.72,18.43,7.35-.24,6.65,4.92,6.25,9.43-.6,6.77,1.06,9.91,8.93,9.79,31-.44,61.95-.3,92.93-.12,6,0,10.39-1,9.17-8.15-1.9-11.31,4.77-11.15,13-11.11,44.84.26,89.68-.22,134.52.32,13.9.16,23.55-4.89,31.58-15.94,16.58-22.8,33.77-45.11,50.85-67.52,4.71-6.16,9.19-13.39,18.2-13.41,11.94,0,24-1.25,35.83,1.54,3.15-.44,6.39-1.36,8.79,1.78.37-3.08,2.69-3.14,5-3.12l64,.72a8,8,0,0,1,7.71-.12c2.78-.38,5.57-.78,8.33-1.18,11.82-4.65,18.44-13.72,21.93-25.52.1-7.55.2-15.08.28-22.63A372.67,372.67,0,0,1,1825.86,617.58ZM1025.88,271c-3.69-.46-10.51,3.62-10.58-4.35,0-9.13,7.51-4.78,11.46-4.84,37-.55,73.94,2.34,110.65,6.76,104.62,12.62,205.48,40,302.83,80.17,5.41,2.23,17.7,1,14.56,11.28-5.09,16.64-15.58,21.89-28.68,17.3-20.45-7.15-40.8-14.62-61.16-22-106-38.41-215.51-57.92-328-62.42-8.15-.32-15.86-.82-20.2-9.06-2.77-5.28-2.59-8.73,5-8,8,.75,16,.83,24,1.21C1039.72,270.75,1032.65,271.81,1025.88,271ZM470.81,352.42A1105,1105,0,0,1,576,313.67c100.14-31.65,202.54-49.89,307.66-52.1,5.08-.1,10.17-.06,15.26,0,2.68,0,5.73-.38,6,3.67.38,4.61-2.59,5.21-6.15,5.27-2.77,0-5.53.34-8.31.46s-5.43-.14-9.76,5.1c6.43,0,10.5-.28,14.5.08,3.21.3,7.89-2.94,9.28,2.59,1,4-1.93,7-4.61,9.53-3.51,3.35-7.87,4.35-12.72,4.47-135.92,3.68-266.08,34.4-392.09,84.19-9.39,3.71-16.9,2.08-23.37-5.15.86-4.9,8.23-3.2,8.09-9.41-1.68.14-3.46-.08-4.95.5-4.06,1.6-7.43,3.17-10.05-2.6C461.52,353.08,467.81,353.7,470.81,352.42Zm-299.26,357c-15.63.22-31.27.76-46.89.56-11.55-.14-18.28-7-18.4-18.18-.42-41-.52-82,0-123,.18-13.86,7.17-20,21-20.19,14.72-.24,29.44.32,44.16.54,13.69-1.44,29.7,2.81,36.73-15-.05-5.52.42-11.13-.22-16.6-1.51-12.94,3.9-21.83,14.23-29.22,40.94-29.24,83.14-56.48,127.24-80.71,10.93-6,15-3.48,16.52,9.09,1.44,11.68-.86,19.81-13.1,25.6-19.13,9-36.89,20.87-55.59,30.8-12.36,6.55-18.13,15.74-17.91,29.9.5,29.54.08,59.12.18,88.68.08,20.51,7.81,28.16,28.74,28.4,15.24.18,30.5-.32,45.72.26,4,.14,12-4.37,11.4,4.67-.58,8.15,5.89,18.72-6.13,24.11-5.49,2.44-10.84,5.25-16.46,7.21-7.39,2.58-12.38,6.57-10.64,15.12,1.16,5.73-2.8,7.17-6.55,8.91q-10,4.62-20.14,9c-27.16,11.86-27.16,11.86-47.19-10-7.49,7.27,2.47,8.65,4.49,12.46,2.26,4.22,10.35,6.66,8.53,11.17-2.12,5.37-9.65,6.55-15.62,6.57-28.05.2-56.07-.06-84.1-.18ZM255.88,802c-8.53-20.86-18-41.35-27.52-61.82-2.82-6.11-3.16-9.63,4.39-12.24,10.37-3.58,20.33-8.43,30.44-12.73,20.43-9.36,40.77-18.89,61.32-28,7.89-3.53,15.66-6.43,13.28-17.58a6.65,6.65,0,0,1,1.58-4.85c7.09-8.29,36.63-15.16,47.19-11.16,10.29,3.91,20.34,8.76,30.94,11.52,16,4.17,23.17,14.82,25.61,30-3.4,20.15-11.91,38.77-20.79,56.64-5.94,12-22.39,13-34.28,18.56-6.89,3.23-7.89-6.67-13.48-7.29s-1.4-8-7.55-9.59c0,10-5.63,15.18-15.08,16.42-27.14,13.22-54.59,25.7-82.71,36.69C262,813,259.14,810,255.88,802Zm16.9,12.16c-.22-.6-.44-1.2-.68-1.8,11.92-5.33,23.89-10.48,35.69-16,4.32-2.05,5.79.76,7.63,3.34,3.12,4.41,6.15,8.89,10,14.5Zm221.6-15c-1.18,5.35-1.54,8.21-7.85,7.93-13.38-.6-26.78-.54-40.17-.74-23.13,1-46.27,1.32-69.4-.14h-5.54a35.67,35.67,0,0,1-16.69,0c-3.6.28-7.21.58-10.83.78-9.59.56-14.86-5.33-19.07-12.84-1.32-2.36-1.28-4.72,1.4-5.4,8.46-2.09,15.37-13.44,25.7-4.43,8.13.42,16.28,2.92,26.29-.1-4.5-4.15-9.47-7.63-6.42-13.7,20.7,10.18,51.39-2.62,60.16-25,3-7.67,6.33-15.18,9.49-22.77,4.79-15.6,13-31,.84-47.17-3.34-4.48-5.73-9-11.51-11.11-17.35-6.27-34.19-14.2-51.87-19.19-13.58-3.8-6.77-13.15-7.45-19.94-.91-8.92,7.17-4.89,11.11-5,21.73-.4,43.46-.34,65.21-.14,27.26.26,46,18.92,46.26,46.3.26,32.83-.22,65.67.22,98.49.14,10.26.24,18.89-15.24,16.75,8.69,3.94,18.13,5,15.36,17.46Zm463.07-39.45c.88,4.74-6.79,2.52-10.42,2.58-89.38,1.62-177.94,10-265.24,30.1-21.5,4.93-42,14.72-64.56,14.6-4,0-10.42,3.17-11.66-3.32-1-5.37,3.27-9.6,8.49-11.24,12.7-4,25.54-10.45,38.32-10.43,9.49,0,19.46,4.5,29.71,2.46,2.09-.4,4.71-.08,6.19-5-8.77-1.24-16.84,3.23-28.7-.3,95-24.33,188-36.39,286.29-37.85-8.57,9.58-18,3.71-26,10.56,10.81,2.66,19.64.7,28.29.66a4.65,4.65,0,0,0,3.41-1.74c6.47-10.56,6.65-10.66,21.65-6.57-8.06,3.51-18.12,3-15.77,15.53Zm357.18,44.5c-1,4.64-5.17,2.86-8,2.9-7.85.1-15.64-.12-23.33-2.4-100.88-29.9-204.44-40.46-309.18-42.26-2.3,0-4.61.08-6.93.06-3,0-5.27-.82-5.47-4.52-.24-4.35,1.91-5.49,5.85-5.39,7.17.18,14.36,0,22.57,0-3-7.49-9.91-2.87-14.46-11.1,94.87.88,185.89,13.38,279,36.25-13.06,5.19-22.21-2.2-32.08-1.18,8.09,9.87,23,11.94,30.2,3.75,2.74-3.13,5.44-2.23,6.77-1.15,11.55,9.4,26.71,4.75,39.11,10.5,4.16,1.9,8.59,3.42,12.33,6a8.48,8.48,0,0,1,3.62,8.58Zm105.44-130.4c1,30.46-.24,61-.52,91.49,3.63,11.73-.24,17-12.86,15.38-2.9-.38-6.53-.85-7.83,3.3,6.45,4.65,17.43-3,20.89,5.35,2.79,6.71.58,15.46.6,23.31,0,2.76-.34,5.59.06,8.31,1.24,8.53-2.14,10.89-10.69,10.69-26.32-.58-52.65-.64-79,.08-9.15.25-10.61-3.1-10.25-11,.54-11.82,2.32-24.37-9.4-32.86-101.73-31.47-205.93-48.11-312.3-51.33-13.28-.4-27.43,1.58-21.17-20.13-8.55,2.9-4.9,8.39-5.66,12.38-.58,3,.26,6.7-4.59,6.93-5.47.22-5.67-3.49-5.57-7.33.24-9.2.56-18.37.86-27.56q-.81-12-1.64-23.89h-2.88c0,15.34.3,30.68-.2,46-.12,4.22,3.78,11.67-4.31,12.19-8.75.55-4.18-7.17-5.09-11.31-.56-2.6.47-5.65-2.7-7.39a10.71,10.71,0,0,0-2,.68c2.52,20-10.4,19.85-24.39,19.43-12.4-.38-24.82.38-37.23.64-1.75.12-3.49.24-5.21.34l-6.53.94L791.3,747c-51.41,8.43-102.6,18-152.84,31.94a49,49,0,0,1-10.9,1.63c-17.08.74-27.8,12-28.14,30-.44,21-.44,21-22,21-22.19,0-44.38-.56-66.53.26-9.63.37-11.95-3-11.23-11.69a104.26,104.26,0,0,0-.16-20.75c-1-9,1.28-14.92,12.66-16.16-13-.82-12.62-8.49-12.52-17.2.38-30-.94-60.11.44-90.07,1.14-25-7.25-44-28.26-57.39-35.57-8.25-71.7-2.11-107.5-4.15-4.15-.24-8.28-.3-12.42-.46-15.7.18-31.42.72-47.1.44-13.18-.24-19.51-6.73-19.61-19.83-.2-31.44,0-62.88-.08-94.3,0-8.07,2.72-14.74,9.65-18.75,23-13.36,46.3-26.35,71.14-40.45v32.46c6.61.32,4.9-3.82,5.22-6.63,1.53-12.78,3-26.57,2.85-38.31-.2-18.36,10.17-20.71,20.73-26.5,2.06-1.14,4-2.38,3.66-6-8,.06-14.56,4.46-21.17,7.91-15.19,8-11.19-8.47-16.34-13-6-5.29-1.82-8.89,4.17-11.74,24.59-11.67,49.12-23.47,73.38-35.8,6.65-3.39,10.71-3.79,13.33,4a26.42,26.42,0,0,0,3.19,6.15c5.07,7.55,10.07,15-4.53,21,12.62-4.53,19,4.32,27.22,8.13s16.18.62,24.07-2.34c70-26.26,140.89-49.73,214.55-63.69,54.58-10.33,109.77-15.46,165.18-18.17,24.38-1.18,31.73-9.55,29-34.22-1.12-10.12.44-16.82,13.5-15.1,10.9,1.44,22.07.9,33.13,1.22,3.82-2,7.69-1.32,11.55-.16,9.56-.28,19.09-.4,28.62-.88,7.41-.38,13.08-.58,12.74,10.17-.14,4.45-1.08,7.29-2.79,9,1.25.48,2,2.79,2.59,7,2.32,17.23,7.93,22.25,25.13,22.73,129.76,3.71,254.28,32.27,375,78.77,15.28,5.87,29.44,12.94,44.5-2.2,5.67-5.71,13.18,6,21.75,4.94.58-7.43-6.11-7.51-9.9-8.77-7.37-2.5-7.57-5.48-4.22-11.93,10.45-20.21,10.17-20.33,30.24-10.5,21.13,10.36,42.22,20.79,63.43,31,5.3,2.55,9.63,5.77,3.94,10.82-5.25,4.69-1.38,20.35-16.24,13.84-4-1.74-7.65-5.25-12.76-4.07-1.94,4.85,2,5.39,4.65,6.65,7.17,3.37,14.86,6.39,8.75,16.7a1.69,1.69,0,0,0-.22,1.35c10,15.08,2.8,32.7,9,48.86v-33.6c26.54,15.12,50.59,28.47,74.22,42.51,6.91,4.11,8.35,11.74,8,19.61s-.42,15.68-.62,23.53q.3,34.55.6,69.07c.08,12.46-6.61,18.87-18.56,19.41-9.64.42-19.33-.26-29-.44-36.89.18-73.78.3-110.69.64-6.87.08-13.74,1-20.61,1.56-2.32.78-4.63,1.59-7,2.37-21,12.51-29.91,30.66-29.07,55.43ZM1813,692.64c.44,12.59-7.51,17.4-18.2,17.46-39.42.18-78.85-.3-118.28-.52-13.06.76-21.85,7.87-29.34,18.1-16.6,22.67-34,44.74-50.57,67.44-6.31,8.65-13.62,12.19-24.43,12.07-43.34-.48-86.68-.18-130-.18-18.94,0-19.39-.66-14-20.69-3.94-31.24-1.94-62.58-1.54-93.88-.18-10.14-.94-20.29-.4-30.36a44,44,0,0,1,43.34-41.82c23.49-.48,47,.18,70.51-.34,7.43-.18,9.22,2.14,9.14,9.23s-2.17,15,5,21.67c0-7,.26-14-.06-21-.32-7.21,2.89-10,9.9-9.73,11.49.42,23,.48,34.52.7,41.82-3.06,42-3.32,42.1-45.54,0-12.8.38-25.6.58-38.39-.22-10.62-1.08-21.29-.48-31.87.88-15.18-5.13-25.19-18.67-32.3-20.4-10.71-40.25-22.55-60.26-34-8.55-4.88-10.23-27.53-2.7-33.9,2.88-2.43,5-.44,7.37.84a1110.76,1110.76,0,0,1,136.56,87c8.5,6.29,9.22,15.14,9.14,24.77-.22,27.24,3.84,31.16,31.12,31.24,16.66,0,33.32-.28,50,0,12.45.2,20.5,6.37,20.54,19.37.1,28.64-.48,57.3-.76,85.93a26.68,26.68,0,0,1,0,16.11A71.92,71.92,0,0,1,1813,692.64ZM996.14,270.13a84.22,84.22,0,0,0-9.53-.6l-5.93.06c-5.89.1-10.92.38-9.09,9,1.56,7.39-1.19,15.36,1.34,22.53,3.68.44,4.2-1.52,4-3.17-1.44-14.52-1.26-27.41,19.65-22.71,1.38.32,3.74-.94,4.73-2.2a28.61,28.61,0,0,1,2.26-2.66A21.09,21.09,0,0,1,996.14,270.13Z"/><path class="cls-2" d="M961.8,341.69h-3.52q-.25-14.76-.5-29.5-.06-14.91-.13-29.81a1.3,1.3,0,0,0-.29-1.78c.75-4.43-1.29-7-5.61-6.29-4.09.65-3.33,4.25-2.88,7.26v2.74c-1.73,5.71,1.41,12.55-3.71,19-3.78-8.47-1.31-15.89-2.25-23-1.42-10.72-13-.24-16.5-8.82,10-2.9,20-3.29,30.15-3l.55-.66-.65.55c8.45,7.65,3.93,18.13,5.95,27.19-.17.28-.52.58-.49.85a10.09,10.09,0,0,0,.48,1.71q0,7-.07,14.06l-.48,29.46Z"/><path class="cls-2" d="M965.34,523.12c-6.4,4-1.5,11.61-5.13,16.9-3.72-3.45-.44-8-2.7-11.3.37-2.18,1.21-4.58-2.36-4.83l2.73-2.33q-.11-21.51-.2-43a1.59,1.59,0,0,0,.52-2.19h0l-.15-.2a4.9,4.9,0,0,0,1.66-1.41q1.38,4.71,2.77,9.41C963,497.18,957.81,510.61,965.34,523.12Z"/><path class="cls-2" d="M962.56,606.46v5.43l-1.44,27.43h-2.2l-1.44-27.41v-5.43l.39-30.91c7.09-.17,1.87,6.33,4.62,8.52Q962.55,595.26,962.56,606.46Z"/><path class="cls-2" d="M948.9,337.77c-1,3.73,0,8.51-7.72,10.56,1.34-11.53-5.79-22.78,4.17-33.09C950.49,322.13,946.84,330.4,948.9,337.77Z"/><path class="cls-2" d="M942.16,610.1q.78-13.5,1.55-27c5.95,10,4,20.6,4.12,31C944.29,615.11,943.12,612.75,942.16,610.1Z"/><path class="cls-2" d="M941.19,449.13a7.43,7.43,0,0,1,7.63,4.52q0,8.34.08,16.69c-.11,2.73-.23,5.47-.34,8.2-5.21,4.27-8.08,3.49-7.93-3.7Q940.9,462,941.19,449.13Z"/><path class="cls-2" d="M972.26,614.09c-.08-10.5-1.62-21.13,1.87-34.68,5.3,12.26,1.18,22,3.8,31.06C976.93,613.06,975.54,615.06,972.26,614.09Z"/><path class="cls-2" d="M408.23,391.27a144.54,144.54,0,0,1,31.49-13.73C434.29,386.52,421.57,392.16,408.23,391.27Z"/><path class="cls-2" d="M1488.88,383.16c11.21.42,21,4.12,28.49,13.13C1506.4,395.3,1497.28,390.05,1488.88,383.16Z"/><path class="cls-2" d="M948.14,361.33v23.15c0,3.43-.37,6.46-4.84,6.49-.09-8.52-.25-17.05-.21-25.57C943.08,362.23,943,358.39,948.14,361.33Z"/><path class="cls-2" d="M945.23,671.44c4.08,10,3.6,20.12.32,30.15C942.29,691.59,942.74,681.58,945.23,671.44Z"/><path class="cls-2" d="M974.68,657.49c-4.32-10.32-2.53-20.35-.35-30.43C977.82,637.19,977.52,647.44,974.68,657.49Z"/><path class="cls-2" d="M943.93,656.58V627C948.77,637.31,949.42,647.54,943.93,656.58Z"/><path class="cls-2" d="M976,525.63l-2.8-.58c-2.47-10.57-1.8-21.08.89-31.61C978.53,504,977.28,514.79,976,525.63Z"/><path class="cls-2" d="M977.6,692.37c-2.47,2.47,3.16,10.48-5.82,8.5V671.58l4.32-.26Z"/><path class="cls-2" d="M1549.07,576.54c4.75-1.7,5.1,1.88,5.9,4.92q-.59,12.78-1.15,25.56l-4.75.3Z"/><path class="cls-2" d="M975.81,392.2c-7.93-9.49-1.86-20.71-3.81-30.95,3.66-1.85,5.1-.18,5,3.36C976.76,373.82,978.29,383.1,975.81,392.2Z"/><path class="cls-2" d="M946.91,525.11l-2.79.48q-.75-15.51-1.49-31C950.39,504.17,948.57,514.65,946.91,525.11Z"/><path class="cls-2" d="M976.85,434.65c-8.72-10-6.61-20.32-.8-30.71C978.16,414.13,976.85,424.4,976.85,434.65Z"/><path class="cls-2" d="M944.1,404c5.7,10.4,7.9,20.7-.85,30.69C943.28,424.41,941.88,414.13,944.1,404Z"/><path class="cls-2" d="M971.24,342.6l.24-24.13a35.28,35.28,0,0,1,3.67-.8,48.9,48.9,0,0,1,.56,28.05C974.23,351,972.22,344.86,971.24,342.6Z"/><path class="cls-2" d="M971.28,453.65c1.44-1.72,2.16-4.78,5.51-2.95-2.46,9.84,4.8,21-4.09,29.95l-1.5-10.31Z"/><path class="cls-2" d="M1551.8,487.45c3.73,9.95,2.28,20,.46,30C1547.94,507.62,1548.54,497.59,1551.8,487.45Z"/><path class="cls-2" d="M368.39,487.46c3.63,10,2.85,20-.2,29.92C365.81,507.41,364.67,497.45,368.39,487.46Z"/><path class="cls-2" d="M368.48,562.71c-3.58-9.91-3.22-20-.33-30.1C372.43,542.39,371.29,552.49,368.48,562.71Z"/><path class="cls-2" d="M368.42,606.84c-3.65-10.05-3.26-20.14-.24-30.27C372.13,586.61,371.78,596.71,368.42,606.84Z"/><path class="cls-2" d="M945.45,568a53.17,53.17,0,0,1-.19-29.9C949.17,548,948.61,557.94,945.45,568Z"/><path class="cls-2" d="M974.5,568.34a44.78,44.78,0,0,1,.19-30.42C977.69,548.07,978.15,558.21,974.5,568.34Z"/><path class="cls-2" d="M569.28,783a51,51,0,0,1,30.9.06C589.87,786.26,579.57,786.64,569.28,783Z"/><path class="cls-2" d="M554.47,782c-9.74,4.57-18.28,4.65-32.76.47C534.46,779.52,544.34,780.92,554.47,782Z"/><path class="cls-2" d="M1387.53,784.05a66.58,66.58,0,0,1-32.77,0C1365.69,778.51,1376.61,778.36,1387.53,784.05Z"/><path class="cls-2" d="M1343.33,784.08c-9.85,3.5-20.1.56-30.09,1.82-.14-1.51-2.66-4.2-.64-4.26C1322.89,781.32,1333.63,776.93,1343.33,784.08Z"/><path class="cls-2" d="M1547.47,680.52c3.12-5.35-.82-11.31,5.42-16,2.56,9.49-.78,20.6,10.27,25.2.46.19.23,3.72-.61,5.14-8.33,13.93-9.43,29.33-7.85,44.9-8,.61-4.33-5.61-6.89-7.76-.63.26-1.79.4-1.91.82-2.74,9.76-8.25,10.32-16.4,5.83-7.26-4-15.28-6.6-22.63-10.45-14.36-7.53-20.27-23.23-14.6-37.59,6-15.26,21.22-22.62,37.35-17.59C1535.73,675,1541.49,678,1547.47,680.52Zm-51.6,20.17c.1,8.92,3.81,16.06,11.09,21.09,24.7,17.07,30.68,15.58,42.12-11.6,1.76-4.19,6.45-7.18,2-15.21-7.5-13.67-19.19-15.83-31.1-17.4C1507.34,675.89,1496.19,688,1495.87,700.69Z"/><path class="cls-2" d="M1531.15,782.43c28.12,3.57,13.41-18.94,19.91-29.5,9.3,8.43-6,27.17,16.29,29.92C1553.78,786.6,1543.35,786.63,1531.15,782.43Z"/><path class="cls-2" d="M1488.92,783.1a49.62,49.62,0,0,1,31.27.06A51.14,51.14,0,0,1,1488.92,783.1Z"/><path class="cls-2" d="M1445.58,785.3c-1.07-7.79,6-2.86,8.29-5.28,7.29,1.88,15.23-1.3,24.68,3.27C1466.17,787.11,1455.8,785.2,1445.58,785.3Z"/><path class="cls-2" d="M1574.62,773.24,1594,752.37c1,.88,1.92,1.76,2.87,2.65-6.28,7.6-11.57,16.11-20.35,21.45C1575.89,775.39,1575.26,774.31,1574.62,773.24Z"/><path class="cls-2" d="M1654.2,686.83l4.56,2.65c-5.39,8.8-13,15.16-21.32,21C1639.53,699.8,1648.56,694.58,1654.2,686.83Z"/><path class="cls-2" d="M1606.67,742.27c4.55-9.12,9.64-18,22-24.39C1623.21,730.59,1615,736.4,1606.67,742.27Z"/><path class="cls-2" d="M1670.62,483.78c-10.33-1.42-18.23-6.59-25-16.41C1655.7,469.07,1663,473.88,1670.62,483.78Z"/><path class="cls-2" d="M1607.34,443.57c10.94,2.07,19.49,8,26.67,16.22A52.84,52.84,0,0,1,1607.34,443.57Z"/><path class="cls-2" d="M1682.31,491.91c11.08,3.81,20.21,9.47,20.73,22.4C1696.9,506.13,1688.69,499.9,1682.31,491.91Z"/><path class="cls-2" d="M1568.67,421.07c11.13.94,19.47,7.08,26.8,15.08C1585.45,433.15,1576.06,429,1568.67,421.07Z"/><path class="cls-2" d="M1703.88,527.21c3.15,10.19,4.21,20.28-.18,30.25C1700.36,547.38,1700.79,537.27,1703.88,527.21Z"/><path class="cls-2" d="M1706.06,603.28c-9.35-1.6-2.5-9.5-5.31-13.64,1.75-5.47-1.52-11.65,4.29-19.94C1707.5,582.65,1706.69,593,1706.06,603.28Z"/><path class="cls-2" d="M1703.64,616.73c3.81,11,4.81,21.59-6.79,29.3C1700.92,636.6,1701.45,626.55,1703.64,616.73Z"/><path class="cls-2" d="M1687.93,656.52c-5.72,8.29-10.53,17.37-23.31,24.12C1671.3,667.9,1678.26,660.84,1687.93,656.52Z"/><path class="cls-2" d="M224.15,646.09c11.93,6.75,17.11,14.77,23.33,21.64a3.53,3.53,0,0,1-.1,3.42c-.59.67-2.85,1-3.34.46C237.5,664.73,229.17,659.14,224.15,646.09Z"/><path class="cls-2" d="M218.1,642.5c-6.8-14.26-4.38-24.82-3.68-35.36l3.68-.12Z"/><path class="cls-2" d="M216.42,563.1c2.86,10,3.39,20.09-.21,30.19C212.6,583.35,213,573.3,216.42,563.1Z"/><path class="cls-2" d="M212.82,536.92c.2-3.95.15-7.94.68-11.85.31-2.25-1.49-6.26,2.14-6.41,4.48-.19,2.59,4.67,3.87,7.12-.44,7.92-.89,15.85-1.43,25.36C211.42,546.73,214.78,540.92,212.82,536.92Z"/><path class="cls-2" d="M257.23,481.22c3.5-10.71,12.45-14.25,19.94-19.48,1.53-1.07,3.66-1.31,4.79.55a3.33,3.33,0,0,1-.85,4.63l-.22.14C273,471.84,265.12,476.51,257.23,481.22Z"/><path class="cls-2" d="M330.76,429.38l23-13.12c1.84-1.06,3.47-.81,4.61,1,1.34,2.17-.47,3.63-1.8,4.33-7.82,4.06-15.78,7.86-23.69,11.75Z"/><path class="cls-2" d="M246,489l-24.27,17.83C224.57,496.22,230,491.66,246,489Z"/><path class="cls-2" d="M294,455.42c5.94-8.88,15.07-13.34,25.39-16.09C312.9,447.41,304,452,294,455.42Z"/><path class="cls-2" d="M648.57,306.9a47.17,47.17,0,0,1-28.45,8.86C628,308.09,638,306.68,648.57,306.9Z"/><path class="cls-2" d="M706,295.23c9.29-5.64,19.29-7.08,29.78-5.58C726.27,293.72,716.55,296.85,706,295.23Z"/><path class="cls-2" d="M536.09,345.84c7-10.16,17.34-12.06,27.58-14.23l1.5,3.73Z"/><path class="cls-2" d="M794.15,282.21c9.59-4.92,19.6-5.66,29.93-3.88C814.52,282.71,804.46,283.62,794.15,282.21Z"/><path class="cls-2" d="M838.75,277.86c9.32-5,19.09-4.95,29.06-2.57C858.45,279.82,848.72,280.14,838.75,277.86Z"/><path class="cls-2" d="M521.53,347.77c-7.77,7.15-17,10.44-27.51,10.44A46,46,0,0,1,521.53,347.77Z"/><path class="cls-2" d="M692.86,297.45c-9.48,4.67-19.21,7.55-29.75,6.26C672,297.09,682.46,297,692.86,297.45Z"/><path class="cls-2" d="M577.13,329.32c8-7.62,18.51-8.45,28.79-9.94C597.22,325.08,588,329.33,577.13,329.32Z"/><path class="cls-2" d="M779.09,283.22c-9.4,4.77-19.28,6.55-29.77,4.35C758.76,283.1,768.51,280.49,779.09,283.22Z"/><path class="cls-2" d="M1060.45,276.24c10.41-3.2,20.44-1.55,30.36,1.81C1080.5,282,1070.43,279,1060.45,276.24Z"/><path class="cls-2" d="M1237.06,299.32c10.41-1.36,19.81,1.31,28.71,6.34C1255.44,307.2,1246.07,303.82,1237.06,299.32Z"/><path class="cls-2" d="M1104.83,279.55c10.23-3.07,19.79,0,29.38,2.9C1123.91,286.18,1114.35,283.08,1104.83,279.55Z"/><path class="cls-2" d="M1363.92,335.77c10.95.26,20.84,3.41,29.07,11C1382.64,344.88,1372.39,342.72,1363.92,335.77Z"/><path class="cls-2" d="M1149.32,284.92c10.34-3,19.92,0,29.56,3C1168.6,291.46,1158.91,288.32,1149.32,284.92Z"/><path class="cls-2" d="M1434,360.86c-10.31-.11-19.48-4-28-9.93C1416.45,350.4,1425.19,355.43,1434,360.86Z"/><path class="cls-2" d="M1308.13,320.18l-28.79-8.6.92-3.56a87.85,87.85,0,0,1,28.75,8C1308.72,317.4,1308.42,318.79,1308.13,320.18Z"/><path class="cls-2" d="M1350.71,331.5c-10.43.51-19-4.14-27.6-9C1333.08,323.11,1342.65,325,1350.71,331.5Z"/><path class="cls-2" d="M1222.58,296.59a47.86,47.86,0,0,1-28.69-5.24C1204.29,288.82,1213.59,292,1222.58,296.59Z"/><path class="cls-2" d="M446.29,786.37c-3.22-1.39-7.54.57-10-3.32,2.24-4.06,6.77-1.2,9.72-3.12,6.8,2.36,14.47-1.68,21.45,2.76C460.9,788.66,452.92,783.61,446.29,786.37Z"/><path class="cls-2" d="M430.52,703.48c-2.65,13.92-10.74,23.09-24,28-2.81,1-6.89,1.34-7.09,5.54-.33,6.94-2.91,11.73-10.51,11.93-8.31.23-10.36-6.41-13-12.35-.7-1.61-1.55-3.14-2.34-4.71-4.65,1.14-.25,8.41-5.45,7.57-4.58-.73-2.53-5.42-2.27-8.09,1.35-14.42-2.85-27.17-10.59-39-6.94-14.13,11-16.68,13.21-28.9,1.82,18.79,10.5,14.21,21.6,10C410.53,665.67,427.42,679,430.52,703.48Zm-31-26.56c-13.68.21-32.62,13.4-33,23-.16,4.43,15.44,34.45,18,34.64,14.38,1.1,39.6-19.89,39.7-33a24.52,24.52,0,0,0-24.4-24.64h-.3Z"/><path class="cls-2" d="M317.23,746.69c9.62,4.78,16.87,11.82,20.47,22.31A47.23,47.23,0,0,1,317.23,746.69Z"/><path class="cls-2" d="M286.28,714.11c9.89,4.65,16.3,12.58,20.69,22.41C297.62,731.36,291.13,723.51,286.28,714.11Z"/><path class="cls-2" d="M1551.81,562.66c-3.57-10-3.71-19.84.4-29.78C1554.48,542.77,1555.14,552.7,1551.81,562.66Z"/><path class="cls-2" d="M833.55,756.56a40.56,40.56,0,0,1,30.2-3.15C854.13,758.37,844,758.84,833.55,756.56Z"/><path class="cls-2" d="M877.46,751a73.33,73.33,0,0,1,29.92-1.8c.12,1.36.23,2.71.34,4.06l-29.62,1.68Z"/><path class="cls-2" d="M702.2,776.49c9.33-4.65,18.86-7.58,29.36-5.31A45.11,45.11,0,0,1,702.2,776.49Z"/><path class="cls-2" d="M745.4,768.12c9.43-3.35,18.51-7.94,28.76-4.85C765,767.54,755.6,770.5,745.4,768.12Z"/><path class="cls-2" d="M819.35,758c-9.75,4.23-19.76,6.31-30.34,3.64C798.71,757,808.71,754.84,819.35,758Z"/><path class="cls-2" d="M1209.18,774.9c-10.53,2-20.16-.58-29.37-5.66C1190.24,767.1,1199.93,769.81,1209.18,774.9Z"/><path class="cls-2" d="M1076.9,754.08c-10.13,3.82-19.92,3.15-32.85.41C1057.23,748,1067.19,753.4,1076.9,754.08Z"/><path class="cls-2" d="M1122.09,760.32c-10.53,2.48-20.35.54-29.76-4.56C1102.57,754.89,1112.64,755.3,1122.09,760.32Z"/><path class="cls-2" d="M1165.75,767.11c-10.37.25-20.52-.56-33.74-6.28C1146.74,758.56,1156.27,763,1165.75,767.11Z"/><path class="cls-2" d="M1032.13,752c-9.85,2.07-19.73,2.84-29.46-.87C1012.5,746.75,1022.31,748.07,1032.13,752Z"/><path class="cls-2" d="M391.84,781.41H421l.06,3.53C411.22,785.88,401.37,786.71,391.84,781.41Z"/><rect class="cls-1" width="1" height="1"/><rect class="cls-1" x="1919" y="1079" width="1" height="1"/><rect class="cls-1" y="1079" width="1" height="1"/><rect class="cls-1" x="1919" width="1" height="1"/></g><g id="Capa_3-2" data-name="Capa 3"><polygon class="cls-1" points="932.85 441.62 990.4 443.57 996.38 614.34 996 640 982 663 955.15 644.19 944 663 922 621 932.85 441.62"/><path d="M869.57,496.16v111H849.75V536.45l-19.51,14.91-16.18,12.53-16.18-12.53-19.51-14.91v70.74H758.54v-111l19.83,15.23,35.69,27.44,35.69-27.44Z"/><path d="M973.3,515.83A34.47,34.47,0,0,1,977,531.37V607H957.12V529.47A15.8,15.8,0,0,0,943.64,516H885.43V496.16h56.31a34.47,34.47,0,0,1,15.54,3.65,35.17,35.17,0,0,1,16,16.18Z"/><path d="M1094.79,551.83a32.76,32.76,0,0,1-23.47,55.52H1025.8a32.59,32.59,0,0,1-30.14-20,34.22,34.22,0,0,1-2.54-12.84,32.63,32.63,0,0,1,9.2-22.84,31.28,31.28,0,0,1-6.82-10A34.26,34.26,0,0,1,993,528.84,32.22,32.22,0,0,1,1025,496h46.48a32.88,32.88,0,0,1,23,55.68Zm-24.26-9.67a12.94,12.94,0,0,0,.47-25.86h-46.79a12.94,12.94,0,0,0,.32,25.86h46Zm.15,45.52a13.07,13.07,0,0,0,13-13,12.92,12.92,0,0,0-12.21-13H1025a12.88,12.88,0,0,0-12.21,12.85,13.07,13.07,0,0,0,13,13h45.52Z"/><path d="M1157.76,533.12v75.5h-19.83V531.06a15.81,15.81,0,0,0-13.48-13.49H1120V497.9h4.28v.16a35.55,35.55,0,0,1,13.48,3.65,35.17,35.17,0,0,1,16,16.18,42.36,42.36,0,0,1,2.7,7.46,33.38,33.38,0,0,1,1,8.08Z"/></g></g></g></g></g></g></svg>