<svg xmlns="http://www.w3.org/2000/svg" viewBox="0 0 1920 1080"><defs><style>.cls-1{fill:#020202;}.cls-2{fill:#f2f2f2;}</style></defs><g id="Capa_2" data-name="Capa 2"><g id="Capa_1-2" data-name="Capa 1"><path class="cls-1" d="M1026.35,268.83c8.22.14,15.53-1.69,21.93-6.68,11.07-8.62,23.5-10.92,37.38-10.39,71.92,2.74,143.22,10.6,213.8,24.76,14.63,2.94,29.25,5.93,43.94,8.53,11.9,2.11,21.32,7.86,27.62,18.11,4.1,6.66,10,9.73,17.35,10.95,33.43,5.56,66.18,14.25,99.14,21.94,8.28,1.93,15.65,2.08,23.09-2.67,11-7,22.71-4.8,34.41-1.86,42.42,10.67,82.54,27.46,122,45.87,10,4.65,15.14,12.56,14.73,23.8-.09,2.61,0,5.22,0,7.83,0,13.3,0,13.35,13.63,13.37q40.92.08,81.86,0c4.55,0,9.14-.06,13.07,2.54,0,0,8.55,4.54,8.64,6.51,1.85,42.92.54,82.08.9,125,.18,20.67-10.28,30.88-31.11,31-20.65.13-41.3.27-61.93-.07-6.59-.11-10.11,3-12.63,8.3s-1.34,9.59,2.76,13.4c8.07,7.32,10.49,16.45,9.87,27.15-.58,9.8.1,19.67.23,29.51-.24,11.11-.4,22.22-.72,33.32-.46,16.15-8.31,24.41-24.59,24.88-14.91.43-29.84.15-44.75,0-8.09-.09-14.89-4.12-21.83-7.73-8.61-4.5-17.25-8.76-27.62-6.47-4.18.92-5.25,2-3.06,6,3.85,7,6.82,14.59,11,21.42,3.67,6,1.88,8.94-4,11a40.57,40.57,0,0,0-5,2.57c-18.44,8.52-36.93,16.93-55.28,25.63-4.66,2.21-7.06,1.67-9.1-3.38-3.26-8.1-7.81-15.69-10.76-23.88-2-5.6-4.36-5.23-8.83-3.26q-44.49,19.53-89.15,38.67a46.25,46.25,0,0,0-19.28,15.06c-7.31,7.07-14.78,14-21.86,21.27a22.21,22.21,0,0,1-17.15,7.09c-2.14,0-4.27,0-6.41,0-33.14-.33-24.43,3.21-46.86-18a17.29,17.29,0,0,0-12.77-4.93q-71.16.21-142.33,0c-4.93,0-9.08,1.29-11.93,5-11.84,15.57-27.64,20.48-46.41,17.85a5.19,5.19,0,0,0-1.42,0c-17.41,2.5-32.26-2.13-44-15.62-3.71-4.27-8.71-5.3-14.12-5.29l-140.31.13a13.77,13.77,0,0,0-9.19,3.19c-24.59,20.95-17.91,17.32-51.9,17.6a8.61,8.61,0,0,0-1.4.26c-15.52,1.91-28.4-2.78-38.12-15.3-4.93-6.34-11.36-8-19.31-8-41.48.33-83,.74-124.44-.14-14.81-.31-26.78,2.51-36.06,14.51-5.51,7.13-13.32,8.83-22.16,8.77H561.14s-9.67-3.32-15.12-8.75-11.07-11-16.64-16.47-10.11-12.29-17.38-15.5C481.74,774,451.32,761.08,421,748l-52.28-22.69c-9.68-4.29-19.43-8.44-29-12.91-10-4.66-20.17-4.58-29.22,1-15.22,9.44-31.53,11.93-48.89,10.75-3.52-.24-7.08.13-10.62.22-3.07-.1-6.13-.27-9.2-.27-20.14,0-28.13-7.4-28.5-27.56-.41-22.23-.14-44.47-.18-66.7,0-5.82,1.17-11.22,5.28-15.64,4.14-3.6,8.17-7.28,8.34-13.36.22-7.67-5.19-13.29-13.12-13.32-20.85-.08-41.7,0-62.55-.07-5.76,0-11.56.16-16.87-2.7l-2.69-1.82c-10.71-6.47-11.49-16.74-11.48-27.89V437.49s3-8.7,6.92-10.94c5.18-3.88,10.9-4.12,16.87-4.12q39.51,0,79-.05c15.24,0,15.24-.08,15.27-14.9,0-2.13,0-4.27,0-6.4,0-11,4.72-19.07,14.87-23.76,38.73-17.88,78-34.41,119.33-45.4,11.83-3.15,23.75-5.78,35.07,1.42,7.61,4.83,15.18,4.59,23.75,2.65,29.77-6.76,59.16-15.43,89.43-19.76,14.08-2,25.7-6.15,33.43-19.28,4-6.88,12-9.68,19.92-11.23,16-3.13,32-6.45,48.09-9.44,34.47-6.41,69-12.56,103.86-16.45,0,0,82.26-8.45,110.41-8.45,13.17,0,24.78,2.71,35.21,10.69,6.44,4.94,13.74,6.86,21.94,6.74Zm399.49,405.23c-.1,1.42-.25,2.83-.27,4.24-.32,23.54,17.65,34.41,38.25,23.3,3-1.65,4.47-3.11,2.7-6.53-4-7.74-7.85-15.56-11.75-23.35-4.55-10-9.07-20-13.64-30-2.76-6-2.65-11.82,1.45-17.23,3.54-4.67,7.16-9.26,10.75-13.88q10.41-11.9,20.84-23.77c5.81-6.59,13-9.9,21.93-9.49,14.88.69,29.78,1.15,44.67,1.7,7.59.28,12.82,3.81,16,10.84,3.37,7.5,7.15,14.83,10.74,22.23,3.74,8.62,7.39,17.28,11.27,25.83,1,2.27.94,6.36,5.19,5.22,3.2-.86,4-3.65,3.92-6.75-.12-9.19-.17-18.38-.24-27.57.05-10,.38-19.92.11-29.87a33.2,33.2,0,0,0-33.39-32.75q-47.34-.26-94.67,0c-19.54.11-33.15,13.19-34,32.76-.45,10.88,0,21.81.12,32.71Q1425.83,642.89,1425.84,674.06Zm153.66-3.67c8.36-4.38,2.81-9.58.91-14.62-1.2-3.18-2.83-3.59-5.87-2-11.18,5.9-22.5,11.56-33.76,17.3-21,8.71-40.92,19.67-61.56,29.14-2.27,1-3.48,2.59-1.75,5,2,2.8,2.71,6.68,6.62,8,1.29.43,3.12,1.35,2.11,3-3.36,5.43,1.88,8.66,3,12.9,1,3.71,3.3,3.6,6.58,2.22,27.3-11.41,54.68-22.62,82-33.92a30.54,30.54,0,0,0,6.38-3.07c4.77-3.51,6.4-8.56,6.32-14.33s-4.29-6.25-8.36-6.86A2.87,2.87,0,0,1,1579.5,670.39Zm-19.14-57.48c-3.16-7.09-6.37-14.16-9.46-21.29-2-4.7-5.72-6.68-10.59-6.86-14.88-.56-29.76-.94-44.62-1.71a18.92,18.92,0,0,0-16.25,7c-6.91,8.06-13.66,16.26-20.48,24.4-3.13,3.54-6,7.35-9.44,10.55-5.5,5.11-5.21,10.44-2.12,16.64,5.7,11.42,11.07,23,16.59,34.53,3.16,6.6,4.84,16.72,9.89,18.86,5.92,2.51,13.44-5,20.21-8.26,25.63-12.2,51.07-24.8,76.56-37.31,2.52-1.24,6.26-1.65,3.89-6.4C1569.6,633.08,1565.07,623,1560.36,612.91ZM923.15,768.19c-.37-1.65.65-2.82,1.41-4.09a134.45,134.45,0,0,1,29.06-.17l13-.09c8.26-.5,16.54-.38,24.82-.52,1.8.72,4.93.43,4.3,3.39-.7,3.26-4.08.7-5.94,1.85Zm29.78-471c-65.51-.24-130.85,3.52-196.08,9-63.5,5.36-126.7,13.39-189.41,25-70.54,13-140.55,28.32-209.17,49.44-35.68,11-68.77,28-101.68,45.27a68,68,0,0,1-32.71,8c-26.57-.16-53.14-.07-79.72-.05-11.88,0-12.77.82-12.78,12.36q-.07,56.22,0,112.43c0,11.65,5.62,17.39,17.46,17.5,20.16.18,40.33.07,60.5.11,21.53,0,31.43,11.75,27.65,32.67-15,14.15-13.73,32.4-12.91,50.59.25,5.45,0,10.91.05,16.37,0,7.59-.19,15.19.21,22.76.56,10.65,4.07,13.92,14.53,14.15,4.5.1,9-.1,13.5-.16,17.69.46,35.3,2.08,51.57-8.27,13.54-8.61,28-7.84,42.76-1.33q70.41,31,141.21,61.12c20.9,8.84,41,18.38,55.62,36.61,3.53,4.4,8,8.06,12,12.05,1.71,1.68,3.58,3.7,5.93,3.68,16.34-.18,33.91,4.81,46.2-12,6.18-8.43,15.18-10.84,25.69-10.76,44.33.35,88.67.49,133-.13,12.61-.18,22.92,2.74,30.82,12.49,7.63,9.41,17.21,12.66,28.91,10.36,16.35,1.69,31.79.9,43.81-12.88,5.57-6.4,13.6-7.89,21.94-7.84,9.42.06,18.83-.23,28.25-.36h71.19c10.9.11,21.81.53,32.7.24,9.51-.25,18.35,1.08,26,7.17,9.07,10.3,19.66,16.47,34.17,14.13a69.36,69.36,0,0,1,17.75-.06c7.13.7,12.36-2,16.87-7.09,2.09-2.35,4.39-4.52,6.6-6.78,7-7.35,15.74-9.33,25.7-9.28q67.79.35,135.57-.07c8.93-.05,16.8,1.67,23.24,8.14,8.46,10.89,18.72,17.8,33.36,15a7.92,7.92,0,0,1,2.83,0c12.1,2.19,20.28-3.61,26.72-13,3-2.93,6.3-5.69,9.11-8.84,10-11.15,21.95-19,35.85-24.63,19.92-8,39.49-16.9,59.19-25.46,3.45-1.5,8.13-2.4,9.82-5.1,2-3.09-2.5-6.34-3.8-9.7-3.53-9.12-3.59-8.86-12.53-4.78-4.72,2.15-8.86,6.69-14.93,4.56-.67-3.19,1.24-4.81,3.72-6,3.61-1.76,7.2-3.54,10.87-5.15s7.2-2.56,4.14-8c-2.32-4.12-3.86-7.34-9.15-3.57a27.82,27.82,0,0,1-8.4,3.58c-16.75,4.84-33.18-5.12-36.35-22.11-.69-3.68-.55-7.52-.79-11.28l0-68.39c.14-10.42.06-20.85.45-31.26.75-19.93,16.37-36.46,36.22-36.82q50.11-.88,100.26,0c21.06.36,36.83,17.15,37.1,38.19.25,19.43-.07,38.87.11,58.3,0,5-.76,8.77-6.2,10.36-3.24.95-3.61,3.22-1.89,6.07a33.94,33.94,0,0,1,2.76,5.73c1.29,3.45,3,3.46,5.64,1.27,3.08-2.58,6.37-4.91,9.63-7.27,1.47-1.06,3.29-1.34,4.54.06,1.42,1.6.05,3.12-1,4.36a11.2,11.2,0,0,1-2.7,2.29c-7.37,4.54-13.62,8.84-8.44,19.57,2.72,5.64-2.55,11.52-4.91,17.83,13.31,0,24.1,6,35.08,11.5,3.57,1.8,7.29,3.58,11.42,3.6,15.41.08,30.81.19,46.22,0,6.68-.08,10.74-3.93,11.09-10.56a457,457,0,0,0,.17-51.82c1-12.81,2.91-25.73-8.52-35.69-2-1.71-2.7-4.83-4-7.3-4.38-17.74,10-32.17,26.91-31.29,20.35,1.08,40.8.3,61.2.21,11.85,0,17.95-6.11,18-18q.12-56.92,0-113.85c0-9.22-1.43-10.52-10.91-10.54q-41.64-.06-83.27,0a63.72,63.72,0,0,1-30.68-7.54c-40-21.24-80.7-40.49-124.64-52.51a2158.32,2158.32,0,0,0-213.28-47.16c-41.83-7-83.84-12.49-126-16.81q-44.57-4.56-89.27-7.4c-47.58-3.08-95.18-5.33-142.88-5.23Zm14.91,10c4-.06,8.06-.06,12.1-.06,1.41,0,2.94-.12,3.07,1.95s-.8,3.34-2.76,3.36q-20.28.16-40.55.12c-1.72,0-3.49-.87-3.45-2.86,0-2.65,2.28-2.53,4.18-2.54,4,0,8.07-.12,12.1,0Zm404.06,16.13a64.56,64.56,0,0,1-9.9-13.13c-5.08-8.85-13-12.59-22.51-14.34q-39.78-7.35-79.54-14.8c-58.13-10.86-116.9-15.36-175.88-18-10.93-.49-20.54,1.49-29.27,8.3-8.53,6.64-18.44,9-29.29,8.8-19-.31-38-.07-56.93.13-2.08,0-5.89-2.19-6,2.34-.1,4.29,3.6,2.85,5.88,2.89,67.59,1.22,135.1,4,202.44,10.18,54.75,5,109.32,11.43,163.51,20.85C1346.92,318.67,1359.4,321,1371.9,323.23Zm-826-1.58,1,1.56c1.62-.19,3.26-.27,4.85-.57,36.3-7,72.81-12.63,109.47-17.44,53.62-7,107.46-11.74,161.42-15.12,43.57-2.73,87.21-3.84,130.86-4.64,2.26,0,5.27.76,5.05-3-.2-3.42-3.07-2.21-4.94-2.22-18.51-.13-37-.75-55.52-.05-13.7.53-25.72-2.53-36.51-10.94-6.22-4.85-13.35-6.65-21.32-6.24-28.42,1.46-56.81,3-85.19,5.35-59.39,4.86-117.7,16.36-176,27.74-6,1.18-12.19,2.83-16.37,7.85C557.49,310.15,553.49,317.44,545.91,321.65Zm-123.6,29.28c-.07-.65-.15-1.3-.23-1.95-5.74,0-11.59-.28-16.23-3.64C397.1,339,388,339.47,378.15,342c-38.59,10-75.1,25.36-111.55,41.17-12.46,5.41-19.31,12.19-17.56,26.47.89,7.3.11,7.45,6.91,3.81,43.07-23,87.54-42.56,135.19-54.19C401.59,356.74,411.93,353.73,422.31,350.93Zm1073.41-.22c2.49.65,5,1.36,7.46,2,43.77,10.39,86.65,23.34,127,43.78q17.68,9,35.4,17.91c1.67.85,3.74,3.09,5-.31,3.57-9.61-1.29-23-10.25-27.19-39.15-18.48-79.14-34.75-121.29-45.2-6.69-1.66-13.63-3.36-20.13.13C1511.58,345.7,1504.36,349.49,1495.72,350.71Zm33.7,420.19c.43-.18,1.09-.43,1.72-.72q28.3-13.21,56.63-26.42c3-1.38,2.79-3.12,1.47-5.66-3.28-6.29-6.93-12.47-9.29-19.11-1.9-5.35-4.32-4.93-8.42-3.1q-26.57,11.88-53.3,23.38c-3.07,1.32-4.06,2.42-2.48,5.65,3.75,7.65,7.23,15.42,10.74,23.17C1527.08,769.4,1527.32,770.86,1529.42,770.9Z"/><path class="cls-1" d="M500.38,608.84l0,66.54c-.1,2.12-.25,4.24-.29,6.37-.38,23.09-21.73,36.59-42.72,26.73-17.94-8.43-35.67-17.34-53.54-26-5.3-2.55-10.76-4.79-16.15-7.18-3.49-1.85-6.94-3.76-10.47-5.54Q351.86,657,326.45,644.26c0-22.51-.49-45,.12-67.51.53-19.5,16.68-35.69,36.21-36q50.1-.82,100.24,0c21,.37,36.61,17.19,37,38.27C500.26,589,500.28,598.89,500.38,608.84Zm-85.51,71.78c13.36,8.1,28.28,13.2,41.68,21.11,21.76,12.84,41.14-5,37.51-24.51q0-34.2,0-68.38c0-10.2.46-20.4.06-30.58a33.16,33.16,0,0,0-33.33-32q-47.34-.26-94.67,0c-19.52.1-33.08,13.16-34,32.76-.44,9.93,0,19.9.11,29.86-.11,7.33.33,14.72-.48,22-.86,7.7,1.17,12.43,9.07,14.65,4.48,1.26,8.55,4,12.82,6Z"/><path class="cls-1" d="M1635.46,541c0-4.49,0-9,0-13.48,0-1.66.24-3.53,2.58-3.38,2,.12,2.7,1.54,2.69,3.44q0,13.85,0,27.68c0,1.57-.46,2.91-2.28,2.92s-3.1-.81-3.07-3c.06-4.73,0-9.46,0-14.19Z"/><path class="cls-1" d="M464.29,727.16c-.84,3.13-2.3,4.5-5.24,3.1-7.67-3.64-15.36-7.27-23-11-2-1-3.77-2.44-2.65-5,.88-2,2.85-1.63,4.32-1q12.22,5.6,24.32,11.47C463,725.25,463.61,726.42,464.29,727.16Z"/><path class="cls-1" d="M1640.88,503.08c0,2.12.08,4.24,0,6.34-.1,1.85,0,4.05-2.84,3.9s-2.66-2.29-2.69-4.15a122.71,122.71,0,0,0-3.13-25.1c-.45-2-.72-4.82,1.91-5.32s3.17,2.08,3.65,4.23C1639.27,489.61,1641,496.2,1640.88,503.08Z"/><path class="cls-1" d="M1444.25,732c2,2.21,2.07,4.43-.72,5.78-7.86,3.81-15.84,7.4-23.77,11.06-1.88.86-4,1.13-5-1-1.28-2.7,1.13-3.8,3-4.75,5.66-2.94,11.39-5.73,17.08-8.57C1437.93,733.53,1440.77,731.59,1444.25,732Z"/><path class="cls-1" d="M1637.72,603.23l-4.09-.45c-.31-10.1,2.82-20,1.86-30.15-.15-1.54.18-3.52,2.54-3.42,2.09.09,2.69,1.61,2.7,3.43C1640.81,582.94,1641.74,593.33,1637.72,603.23Z"/><path class="cls-1" d="M279.59,502.68c.7-5.22,1.64-12.46,2.65-19.68.25-1.87.51-4.13,3.09-3.88s2.52,2.49,2.34,4.39c-.79,8.43-1.69,16.86-2.52,25.29-.16,1.64,0,3.62-2.26,3.71s-3.47-1.15-3.32-3.55C279.66,507.55,279.59,506.13,279.59,502.68Z"/><path class="cls-1" d="M1615.18,439.14a19,19,0,0,1,2.89,2.59,116.13,116.13,0,0,1,12.6,20.49c.86,1.84,2.3,4.07-.64,5.42-2.12,1-3.71-.29-4.7-2q-6.25-11.1-12.33-22.31C1611.93,441.32,1612,439.64,1615.18,439.14Z"/><path class="cls-1" d="M285.07,597.43c.81,2.07,2.76,5.2-.75,5.87-4,.76-3.48-2.66-4-5.09-1.57-7.94-.54-15.94-.64-23.92,0-2-.07-4.77,3-4.52,2.33.19,2.38,2.49,2.38,4.43Q285.06,585.81,285.07,597.43Z"/><path class="cls-1" d="M622.83,341c-1.84.17-3.56-.45-4-2.19-.6-2.48,1.36-3.14,3.37-3.44,8.37-1.23,16.72-2.52,25.1-3.64,1.7-.23,4.21-.63,4.33,2.07.09,2.08-1.56,3.1-3.75,3.4C639.53,338.4,631.19,339.73,622.83,341Z"/><path class="cls-1" d="M1472.93,382.93l-24.39-7.6c-1.51-.47-2.56-1.6-2.23-3.13.42-1.95,2.14-2.59,3.88-2.09q12.93,3.74,25.77,7.69a2.78,2.78,0,0,1,2.19,3.2C1477.8,383.42,1475.91,382.92,1472.93,382.93Z"/><path class="cls-1" d="M423.18,708.3c-.37,3.47-2.89,3.63-4.72,2.82-8.37-3.73-16.6-7.78-24.84-11.8-1-.49-2-1.5-1.48-2.85a2.35,2.35,0,0,1,2.95-1.35,145.49,145.49,0,0,1,26.58,11.17C422.39,706.68,422.76,707.72,423.18,708.3Z"/><path class="cls-1" d="M1632.05,614.39l1.79,3c-1.91,10.08-7.36,18.18-14.3,25.42-.94,1-2.22,2.18-3.7,1.46-1.22-.58-1.09-2.18-.57-3.13q7.24-13.3,14.76-26.46C1630.24,614.34,1631.35,614.49,1632.05,614.39Z"/><path class="cls-1" d="M444.85,383.3c-1.66,0-3-.08-3.29-2a2.86,2.86,0,0,1,1.91-3.35c8.81-3.53,18-5.59,27.2-7.76a2,2,0,0,1,2.72,1.5,2.76,2.76,0,0,1-2.1,3.79Z"/><path class="cls-1" d="M1201.46,327.07a99.55,99.55,0,0,1-19.93-2.27c-1.94-.38-3.94-1.24-3.29-3.68.52-2,2.45-1.75,4.16-1.58q12,1.17,24,2.22c2.85.25,5.56,1.09,4.93,4.48s-3.31,1.21-5.18,1.08S1202.38,327.12,1201.46,327.07Z"/><path class="cls-1" d="M579.09,350.13c-2.94-.21-4.82.26-5.37-2s1.26-2.85,2.81-3.24q13-3.26,26-6.31c1.62-.38,3.61-.37,4,1.78A3.29,3.29,0,0,1,603.7,344C595.1,346.21,586.46,348.3,579.09,350.13Z"/><path class="cls-1" d="M1539.48,395.23c7,1.92,15.16,4,23.25,6.46,2.12.63,5,1.81,3.79,4.86-1.32,3.25-3.88,1.11-6,.51-7.43-2.13-14.89-4.17-22.28-6.44-2-.6-4.25-1.67-3.65-4.35C1535.06,394.38,1536.92,395.21,1539.48,395.23Z"/><path class="cls-1" d="M547.09,765.41c-.69,2.5-2.65,2.47-4.47,1.73q-12.11-4.92-24.08-10.13a3.25,3.25,0,0,1-2.13-4c.63-2.14,2.58-2.11,4.1-1.53,8.57,3.28,16.32,8.47,25.27,10.9C547.16,762.76,547.18,764.1,547.09,765.41Z"/><path class="cls-1" d="M401.74,395.45c-2-.27-3.68.32-4.15-1.69a3.06,3.06,0,0,1,2.28-3.85q12.83-3.89,25.76-7.46c1.45-.39,3.61-.87,4.28,1.19s-1,3-2.64,3.54C418.56,390,409.83,392.84,401.74,395.45Z"/><path class="cls-1" d="M1230.22,325.27l22.66,3.34c2,.29,3.8,1,3.7,3.4-.12,3-2.59,2.35-4.24,2.14-7.45-1-14.91-1.93-22.27-3.35-2.39-.46-7,.49-6.48-3.56S1228.16,326.13,1230.22,325.27Z"/><path class="cls-1" d="M1272.88,331.74q12.6,1.89,25.21,3.77c1.72.26,3.49.63,3.3,2.82a3,3,0,0,1-3.66,2.57c-8.86-1.2-17.7-2.61-26.54-4-1.84-.3-3.25-1.82-3-3.45C1268.66,330.78,1271.12,331.85,1272.88,331.74Z"/><path class="cls-1" d="M305.33,439c2.84.38,3.17,2.23,2.09,4.09-4.48,7.78-9.15,15.46-13.76,23.17-.65,1.1-1.55,1.82-2.9,1.43a2.18,2.18,0,0,1-1.42-2.86,55.89,55.89,0,0,1,14.17-25A5.4,5.4,0,0,1,305.33,439Z"/><path class="cls-1" d="M478.1,731.64c8.57,4.31,17.18,8.57,25.69,13a2.65,2.65,0,0,1,1,3.67c-.92,1.61-2.29,1.31-3.65.67-7.85-3.69-15.71-7.35-23.52-11.11-2-1-2.3-2.79-1.7-4.83A1.74,1.74,0,0,1,478.1,731.64Z"/><path class="cls-1" d="M1341.63,350.47c-8.16-2.07-16.32-4.1-24.46-6.22-2.12-.56-4.38-1.7-3.57-4.26.75-2.36,3.16-1.39,4.89-1,8,1.83,16,3.71,24,5.7,1.81.45,3.8,1.28,3.25,3.79C1345.19,350.71,1343.38,350.38,1341.63,350.47Z"/><path class="cls-1" d="M761.22,322.85c-.3,0-1.72.16-3.14.24s-2.94.3-3.23-1.72.27-3.47,2.3-3.73c9.62-1.22,19.27-2.29,29-2.15,1.07,0,1.82.49,1.8,1.64-.05,2.39-1.91,3.43-3.71,3.67-5.86.79-11.76,1.25-17.65,1.8C765.18,322.74,763.76,322.74,761.22,322.85Z"/><path class="cls-1" d="M719.61,327.23c-2.6,0-5.21-.05-7.81,0-1.78.06-2.6-.72-2.67-2.45s.64-2.85,2.3-3c9-.83,17.92-1.52,26.87-2.36a2.58,2.58,0,0,1,3.06,2.18c.66,2.37-1.23,2.94-2.76,3.26A104.46,104.46,0,0,1,719.61,327.23Z"/><path class="cls-1" d="M689.74,325.05c3.45.05,6.51-.78,6.73,2.59.19,3-3,2.54-4.84,2.87-7.38,1.35-14.81,2.46-22.25,3.44-2.21.29-5.23.66-5.41-2.75-.17-3.08,2.62-2.63,4.64-2.93C676,327.16,683.46,326,689.74,325.05Z"/><path class="cls-1" d="M386.14,396.42a4,4,0,0,1-2.75,3.09q-13.42,4.25-26.91,8.33c-1.19.37-2.38.24-2.93-1.12a2.74,2.74,0,0,1,1.2-3.66,41.1,41.1,0,0,1,7.74-3.29c6.33-1.79,12.76-3.27,19.13-4.9C383.52,394.39,385.33,394,386.14,396.42Z"/><path class="cls-1" d="M815,319c-3.54,0-7.08,0-10.62,0-1.89,0-4.1.35-4.3-2.35-.23-3.18,2.26-3,4.39-3.1,7.78-.29,15.56-.68,23.35-.78,1.67,0,4.83-1.48,4.65,2.25-.14,2.71-2.5,3.14-4.73,3.16-4.25,0-8.49,0-12.74,0Z"/><path class="cls-1" d="M1517.93,395.3c-7.94-2.38-16.06-4.77-24.14-7.26-1.87-.58-3.65-1.82-3.12-4.06.65-2.74,3.14-1.75,4.68-1.32,8.15,2.25,16.25,4.7,24.33,7.21,1.85.57,3.61,1.77,2.75,4.12C1521.68,396,1519.67,395.16,1517.93,395.3Z"/><path class="cls-1" d="M488.9,371.06c-1.44-.09-3.15.5-3.43-1.61a3,3,0,0,1,1.89-3.47c8.89-2.4,17.81-4.66,26.75-6.85,1.6-.39,2.7.66,3,2.27.41,2.22-1.4,3-2.88,3.41C505.78,367,497.28,369,488.9,371.06Z"/><path class="cls-1" d="M1405.83,359.28l26,6.2a2.91,2.91,0,0,1,2.41,3.68c-.39,2.38-2.21,2.21-3.83,1.81-8.47-2.05-16.94-4.15-25.38-6.37-1.42-.38-3.71-.54-3.28-2.9S1404.55,359.67,1405.83,359.28Z"/><path class="cls-1" d="M1104,318.75c-4.33-.3-9.49-.58-14.63-1.07-1.63-.16-3.36-.85-2.93-3.1.33-1.78,1.82-1.92,3.28-1.88,9.15.22,18.3.48,27.46.67,1.75,0,2.52.79,2.6,2.5.08,2.11-.92,2.92-3,2.9C1112.82,318.71,1108.82,318.75,1104,318.75Z"/><path class="cls-1" d="M289,614.38a12.56,12.56,0,0,1,1.66,2q6.72,12,13.35,24.09c.67,1.22,1.46,2.82-.06,3.78-1.33.85-2.74,0-3.76-1.13a60.15,60.15,0,0,1-13.39-23.81C286.29,617.53,286.44,615.47,289,614.38Z"/><path class="cls-1" d="M860.7,316.15c-4.24,0-8.48.08-12.71,0-1.62,0-3.51-.36-3.33-2.69.14-1.78,1.59-2.17,3.07-2.25,8.71-.46,17.43-.93,26.14-1.28,1.44-.05,3.58-.7,3.7,2,.11,2.35-1.19,3.48-3.43,3.5-4.48,0-9,0-13.44,0Z"/><path class="cls-1" d="M1386.23,360.13c-8.15-2-16.39-4-24.62-6.11-2-.51-3.52-1.76-2.95-4.08.72-2.89,3.13-1.7,4.68-1.33,7.81,1.85,15.58,3.89,23.32,6,1.73.47,3.87,1.05,3.56,3.65S1387.87,359.87,1386.23,360.13Z"/><path class="cls-1" d="M1604.66,427.89c-.45,2.73-2.56,2.35-3.74,1.6q-11.33-7.25-22.37-14.92a2.89,2.89,0,0,1-.58-4.41c1.13-1.28,2.68-.69,3.88,0A112.27,112.27,0,0,1,1603,425.72,19.29,19.29,0,0,1,1604.66,427.89Z"/><path class="cls-1" d="M1158.24,322.77c-7.42-.55-14.24-1.08-21.06-1.55-2.26-.15-4.63-.53-4.44-3.32.22-3.13,3-2.42,5-2.3,6.59.41,13.2.82,19.77,1.53,2.73.3,7.35-1.12,7.33,3.24C1164.79,325.66,1160,321.81,1158.24,322.77Z"/><path class="cls-1" d="M534.36,360c-2.31-.28-4.05.56-4.32-1.65a2.71,2.71,0,0,1,2.1-3.22c8.62-2.29,17.25-4.55,25.92-6.7,1.22-.3,2.92-.59,3.47,1.35a2.84,2.84,0,0,1-2.2,3.8C550.71,355.86,542.06,358,534.36,360Z"/><path class="cls-1" d="M1014.21,313.47c-4.73,0-9.47.09-14.19,0-1.85-.06-4.15-.24-4.23-2.79-.1-3.19,2.62-2.1,4.18-2.12,8.52-.09,17,0,25.56.09,2.2,0,4.82.52,4.63,3.2-.18,2.42-2.73,1.89-4.6,1.86-3.78-.07-7.57,0-11.35,0Z"/><path class="cls-1" d="M342.21,411.21a4.62,4.62,0,0,1-2.22,4.24c-6.39,4.41-12.72,8.93-19.14,13.3-1.51,1-3.54,2.46-5.12.86-2.06-2.07.58-3.32,1.72-4.46a88.68,88.68,0,0,1,19.86-14.61C339.21,409.48,341.74,407.8,342.21,411.21Z"/><path class="cls-1" d="M320.52,656.32c4.16,4.48,9.65,7.08,14.68,10.31,2.44,1.57,4.86,2.9,4,6.41l-5.68-.32a10,10,0,0,0-5.72-2.84c-4.15-3.34-8.46-6.52-12.39-10.11-1.73-1.57-4.55-3.94-2.39-6.42,2.35-2.68,3.68,1.39,5.63,2A12.91,12.91,0,0,1,320.52,656.32Z"/><path class="cls-1" d="M1059,315.37c-4.73,0-9.46,0-14.2,0-1.88,0-3.28-1-3.19-3a2.52,2.52,0,0,1,2.88-2.44q13.83.59,27.64,1.21c1.95.08,2.19,1.52,2.06,3-.16,1.91-1.67,2-3.13,2-4,0-8,0-12.06,0Z"/><path class="cls-1" d="M906.75,313.43c-4.49,0-9,.09-13.47,0-1.73-.05-3.35-.79-3-3,.28-1.89,1.91-1.84,3.3-1.85q13.83,0,27.66.08c1.31,0,3.08-.44,3.39,1.56.34,2.16-1.19,3-3,3-5,.1-9.91,0-14.87,0Z"/><path class="cls-1" d="M351.53,679.48c-1.7-5.28,1.7-3.59,4-2.74,5.87,2.19,11.66,4.59,17.48,6.91,2.6,2.32,9.28,2.75,7.28,6.81s-6.6-.49-9.71-1.77C364.06,686,357.85,682.6,351.53,679.48Z"/><path class="cls-1" d="M285,541.85c0,4.24,0,8.48,0,12.72,0,1.44-.26,3-2.07,3.19-2.1.25-3.13-1.25-3.14-3q-.06-13.77.23-27.54a2.37,2.37,0,0,1,2.74-2.53c1.7.23,2.26,1.44,2.26,3Z"/><path class="cls-1" d="M758.71,768.42c-4.74,0-9.48,0-14.22,0-1.32,0-3.19.34-3.09-1.79a2.83,2.83,0,0,1,2.8-2.72,202,202,0,0,1,29.11,0,2.46,2.46,0,0,1,2.32,3c-.12,1.6-1.56,1.53-2.7,1.54-4.74,0-9.48,0-14.22,0Z"/><path class="cls-1" d="M621.64,768.42c-4.49,0-9,0-13.48,0-1.29,0-3.19.54-3.38-1.45s1.21-3,3.08-3.13a229,229,0,0,1,28.34,0,2.58,2.58,0,0,1,2.66,2.7c0,2-1.65,2-3,2-4.72,0-9.45,0-14.18,0Z"/><path class="cls-1" d="M575.18,768.5c-4.5,0-9,0-13.5,0-1.34,0-3,.3-3.17-1.76-.12-1.71,1-2.62,2.58-2.77a184.65,184.65,0,0,1,29.09-.06,2.39,2.39,0,0,1,2.43,2.84c-.2,2.1-1.93,1.66-3.22,1.67-4.74.06-9.47,0-14.21,0Z"/><path class="cls-1" d="M712,768.57c-4.47,0-8.93,0-13.4,0-1.33,0-3,.49-3.35-1.5s1-3,2.84-3.15c9.4-.93,18.8-.57,28.19-.12,1.81.09,3.28.83,3.06,3s-1.95,1.62-3.22,1.63c-4.71.06-9.41,0-14.12,0Z"/><path class="cls-1" d="M803.49,768.48c-4.49,0-9,0-13.46,0-1.26,0-3.06.61-3.45-1.35a2.48,2.48,0,0,1,2.32-3,150,150,0,0,1,29.66-.15c1.39.1,2,1.07,2,2.42,0,2.11-1.53,2-2.92,2-4.72,0-9.44,0-14.16,0Z"/><path class="cls-1" d="M666.64,768.49c-4.27,0-8.54,0-12.81,0-1.48,0-3.74.86-4-1.55s2-3,3.92-3.1c4.5-.25,9-.41,13.51-.42,4.26,0,8.54.14,12.8.36,1.83.1,4.13.14,3.92,2.9-.2,2.53-2.39,1.74-3.86,1.77-4.51.09-9,0-13.52,0Z"/><path class="cls-1" d="M894.8,768.41c-4.47,0-8.94,0-13.41,0-1.28,0-3.13.45-3.33-1.54a2.47,2.47,0,0,1,2.5-2.81c9.87-.11,19.75-.16,29.62-.1,1.66,0,2.37,1.46,2.19,3s-1.63,1.45-2.74,1.46C904.69,768.44,899.75,768.41,894.8,768.41Z"/><path class="cls-1" d="M848.44,768.46c-4.47,0-9,0-13.42,0-1.32,0-3,.34-3.28-1.66-.23-1.73.87-2.61,2.45-2.73a199.35,199.35,0,0,1,29.63,0c1.68.12,2.43,1.28,2.18,2.94s-1.64,1.39-2.72,1.4c-4.95,0-9.89,0-14.84,0Z"/><path class="cls-1" d="M1403.45,753a4.56,4.56,0,0,1-2.75,3.9c-7.86,3.68-15.55,7.77-23.9,10.29-1.51.46-3.37,1.35-4.07-1-.56-1.89.4-2.94,2.22-3.72,8.22-3.5,16.37-7.17,24.57-10.7C1401.08,751,1402.79,750.7,1403.45,753Z"/><path class="cls-1" d="M1344,768.47c-5,0-9.94,0-14.91,0-1.21,0-2.5-.23-2.52-1.78a2.31,2.31,0,0,1,2-2.5,161.12,161.12,0,0,1,30.43-.09,2.29,2.29,0,0,1,1.82,2.64c-.13,1.6-1.53,1.6-2.66,1.61-4.73.06-9.46,0-14.19,0Z"/><path class="cls-1" d="M1070.32,768.47c-4.47,0-9,0-13.42,0-1.52,0-3.69.51-3.69-2,0-1.48,1.28-2.37,2.9-2.5a234.33,234.33,0,0,1,28.91-.1,2.54,2.54,0,0,1,2.6,2.75c-.11,2-1.86,1.75-3.18,1.76-4.71.05-9.42,0-14.12,0Z"/><path class="cls-1" d="M1207.44,768.49c-4.71,0-9.41,0-14.12,0-1.32,0-3.09.34-3.36-1.6a2.42,2.42,0,0,1,2.44-2.8A195.12,195.12,0,0,1,1222,764a2.46,2.46,0,0,1,2.3,3c-.21,1.63-1.68,1.43-2.74,1.45-4.71.07-9.42,0-14.13,0Z"/><path class="cls-1" d="M1162.64,768.46c-4.75,0-9.49,0-14.23,0-1.56,0-3.69.44-3.61-2.11,0-1.69,1.51-2.34,3-2.35,9.48-.07,19-.12,28.43-.09,1.49,0,2.83.73,2.87,2.51,0,2.1-1.63,2-3,2-4.5.05-9,0-13.51,0Z"/><path class="cls-1" d="M1025.81,768.47c-5,0-10,0-14.93,0-1.14,0-2.5,0-2.7-1.57a2.36,2.36,0,0,1,2.41-2.82c9.7-.91,19.41-.59,29.11-.17,1.53.07,2.79.86,2.72,2.63-.07,2.08-1.78,1.83-3.1,1.84-4.51.06-9,0-13.51,0Z"/><path class="cls-1" d="M1298.43,768.45c-4.49,0-9,0-13.48,0-1.32,0-3,.36-3.33-1.63-.25-1.73.9-2.61,2.46-2.75a216.93,216.93,0,0,1,29.07-.14c1.52.08,2.75.92,2.64,2.68-.13,2.07-1.86,1.75-3.16,1.76-4.74.06-9.47,0-14.2,0Z"/><path class="cls-1" d="M1115.89,768.48c-4.51,0-9,0-13.52,0-1.45,0-2.89-.15-2.95-2.14s1.08-2.58,2.65-2.59c9.24,0,18.49-.08,27.74,0a2.6,2.6,0,0,1,2.69,2.73c0,2.07-1.74,1.85-3.09,1.87-4.51,0-9,0-13.52,0Z"/><path class="cls-1" d="M1253.17,768.48c-4.74,0-9.48,0-14.23,0-1.49,0-2.85-.26-2.86-2.24s1.24-2.48,2.77-2.49q13.51-.11,27-.07c1.83,0,3.4.87,3.25,2.91-.18,2.55-2.41,1.71-3.86,1.75-4,.11-8.06,0-12.09,0Z"/><path class="cls-1" d="M1475.63,624.56c5.39-20.79,17.81-31.31,36-29.8,16,1.32,25.6,10.75,30.56,25.51,1.42,14.71-2.52,27.11-15.61,35.36a32.73,32.73,0,0,1-49.9-22.7C1476.26,630.15,1476,627.35,1475.63,624.56ZM1509,600.17c-14.83,0-27.26,12.79-27.15,27.88.1,14.64,12.58,26.65,27.62,26.58a27.09,27.09,0,0,0,27.13-27C1536.68,612.66,1524.08,600.13,1509,600.17Z"/><path class="cls-1" d="M1555.11,679.9c4.84-.86,9-4,14.09-4.08,1.14,2.15.38,3.54-1.71,4.52-7.67,3.63-15.28,7.4-23,10.9-1.8.82-4.6,1.78-5.6-.72-.93-2.33,1.48-3.73,3.41-4.66C1546.53,683.8,1550.83,681.88,1555.11,679.9Z"/><path class="cls-1" d="M1527.2,696.65c-.24,1.84-1.47,2.8-3,3.54-7.44,3.46-14.86,7-22.29,10.46-1.27.59-2.83,1.42-3.64-.26a3.13,3.13,0,0,1,1.38-4.28,203.43,203.43,0,0,1,25.14-10.9C1526.32,694.61,1526.84,695.39,1527.2,696.65Z"/><path class="cls-1" d="M439.59,610.6c5.37,11.35,6.28,22.77-.37,33.86a33.43,33.43,0,0,1-42.71,13c-15.35-7.08-22.7-24.69-17.15-41.11.52-1.55,1.1-3.1,1.65-4.65C397.78,588.86,422,588.4,439.59,610.6Zm-1.84,17.48c.07-15.59-11.65-27.75-26.88-27.89a27.6,27.6,0,0,0-27.54,27.34c0,14.58,12.49,27.05,27.12,27.11C425.87,654.7,437.68,643.21,437.75,628.08Z"/><rect class="cls-2" x="1919" y="1079" width="1" height="1"/><rect class="cls-2" width="1" height="1"/><rect class="cls-2" y="1079" width="1" height="1"/><rect class="cls-2" x="1919" width="1" height="1"/></g><g id="Capa_3" data-name="Capa 3"><path d="M834.86,475V586H815V515.27l-19.51,14.91-16.18,12.53-16.18-12.53-19.51-14.91V586H723.83V475l19.83,15.22,35.69,27.44L815,490.21Z"/><path d="M938.59,494.65a34.51,34.51,0,0,1,3.65,15.55v75.66H922.41V508.29a15.81,15.81,0,0,0-13.48-13.48H850.72V475H907a34.46,34.46,0,0,1,15.54,3.64,35.17,35.17,0,0,1,16,16.18Z"/><path d="M1066.59,495a34.5,34.5,0,0,1,2.53,12.85v45.52a32.69,32.69,0,0,1-10.46,24.11,34.65,34.65,0,0,1-7.3,5.24,31.53,31.53,0,0,1-14.91,3.64h-69V566.51h69a13.07,13.07,0,0,0,13-13V538a32.68,32.68,0,0,1-12.38,2.53H990.29a32.75,32.75,0,0,1,.48-65.5h45.52a32.58,32.58,0,0,1,30.14,20Zm-88.67,12.85a13.06,13.06,0,0,0,12.37,13h46.79a13,13,0,0,0-.63-26H990.93A13.07,13.07,0,0,0,977.92,507.82Z"/><path d="M1187,530.66a32.75,32.75,0,0,1-23.48,55.51H1118a32.58,32.58,0,0,1-30.14-20,34.5,34.5,0,0,1-2.53-12.85,32.67,32.67,0,0,1,9.2-22.84,31.1,31.1,0,0,1-6.83-10,34.5,34.5,0,0,1-2.53-12.85,32.19,32.19,0,0,1,32-32.83h46.47a32.87,32.87,0,0,1,23,55.67ZM1162.7,521a12.94,12.94,0,0,0,.48-25.85h-46.8a12.93,12.93,0,0,0,.32,25.85h46Zm.16,45.53a13.07,13.07,0,0,0,13-13,12.93,12.93,0,0,0-12.22-13h-46.47A12.89,12.89,0,0,0,1105,553.34a13.07,13.07,0,0,0,13,13h45.52Z"/></g></g></svg>