<svg xmlns="http://www.w3.org/2000/svg" viewBox="0 0 1920 1080"><defs><style>.cls-1{fill:#f2f2f2;}.cls-2{isolation:isolate;}</style></defs><g id="Capa_2" data-name="Capa 2"><g id="Capa_3" data-name="Capa 3"><g id="Capa_2-2" data-name="Capa 2"><g id="Capa_1-2" data-name="Capa 1-2"><path d="M171.89,517.6c8.29-1.13,15.57-2.8,22.89-3,17-.42,34,.37,51-.4,5.34-.25,13.82-2.75,15-6.25,2-5.83.13-13.49-1.48-20-2.24-9.15-7.39-17.83-8.3-27-1.43-14.5-.1-29.25-.43-43.87-.38-16.53,6.63-27.82,21.88-34.47,48.41-21.11,96.62-42.67,145.19-63.42,6.47-2.76,14.52-2,21.87-2.49,5.86-.42,12.43,1.35,17.54-.7,34.63-13.93,71-22,105.22-38.72C593.6,262,631,259,665.26,250.72c6.72,13.21,12.47,14,23.43,6.73,7.16-4.75,15.38-9.3,23.67-10.73,32.43-5.55,65.08-9.82,97.64-14.56L864.81,227c2.82,0,6.34-.57,8.35.82,22.3,15.45,47.44,7.74,71.36,8.73,25.36,1.06,50.81.63,76.2,0,6.14-.14,12.17-3.55,18.32-5.2,5.75-1.54,11.8-4.5,17.36-3.84Q1135.81,237.1,1215,248c5.54.76,11,5,15.67,8.55,11.45,8.69,17,7.78,24.17-5.88,34,8.22,71,11.07,101.91,26.28,33.77,16.62,69.81,24.35,103.94,38.38,5.89,2.42,13.47.64,20.25,1.05,6.46.38,13.6-.52,19.25,1.9,49.86,21.38,99.47,43.35,149.14,65.2,13.59,6,20,16.64,20,31.35,0,17,.68,34.06-.35,51-.42,6.94-5.16,13.51-6.87,20.51-1.79,7.33-3.91,15.29-2.56,22.33.54,2.82,10,5.32,15.42,5.53,17.92.68,35.89,0,53.84.3,20.41.3,34.31,24.78,23.35,42-2,3.1-9.07,4.15-13.77,4-8.74-.18-11.76,3.51-11.67,11.75.16,16.53-.2,33.07-.12,49.6,0,7.25,1.81,13.2,11.22,12.45,9.89-.78,17.26.39,16.57,14-.91,18-5.56,26.78-19.55,27.37-18.87.78-37.8-.23-56.67.53-6.33.25-17.57,3-17.88,5.6-1,8.44.16,18.36,4.06,25.84,4.87,9.35,9.1,39.51,1.65,46.92-5,5-13.63,8.72-20.69,8.82-52,.72-103.92.39-155.88.4h-18.07c.78,16.74-9.49,24.66-21.6,32.2-23.64,14.71-46.6,30.52-69.93,45.74-22.18,14.46-43.83,13.51-65.65-2.45a11.79,11.79,0,0,0-6.41-2.14c-19.37-.19-38.74-.28-58.1,0-2.12,0-4.15,2.65-6.31,3.91-3.59,2.08-7.24,5.74-10.9,5.79-32.12.44-64.24.28-96.36.1-3.11,0-8.7-.89-8.93-2.13-2.39-13-12.33-9-20-9.17-21.25-.37-42.57.59-63.74-.77-7-.44-15.93-4.7-19.8-10.18-5.46-7.73-10.94-10.42-19.77-10.08-13.13.49-26.3.12-41.48.12V853l-4,.08v-38c-17.88,0-33.82-.39-49.72.31-3.36.15-7.95,3.58-9.55,6.73-5.56,10.94-14.45,13.75-25.75,13.58-22.19-.33-44.41-.49-66.59.19-4.23.13-8.29,4.52-12.52,6.77-3,1.61-6.19,4.16-9.31,4.19-32.59.34-65.18.27-97.77.25-2.33,0-6.17.23-6.77-.94-8.2-16.08-22.84-7.3-34.56-9-7.4-1.07-15.09,0-22.65-.24-9.06-.26-16.67.36-23.74,8.53C595.54,850,585.81,851,578.69,851l-31.19-4c-6.72-4.56-10.63-7.31-14.63-9.92q-32.6-21.33-65.23-42.59C451.52,783.94,451.5,784,447.77,764H275.69c-19.12,0-25.37-6.22-25.7-25.45-.22-12.52-1.87-24.82,9.28-35.41,3.77-3.58,2.74-14.73.42-21.17-1.19-3.32-10-5.24-15.41-5.47-17.92-.74-35.89-.3-53.84-.54-20.18-.26-32.11-18.12-23.64-36.32,1.33-2.88,7.74-5.11,11.57-4.79,12.49,1,15.5-5.16,15.2-16.06-.42-15.58-.09-31.17-.09-46.76,0-7-2-12.44-10.5-11.22-16.4,2.35-16.54-7.54-16.47-19.71C166.47,541.09,167.55,520.21,171.89,517.6ZM563,281.3c4.21,27.23-1.28,34.63-25.7,41.13-18.19,4.85-36.09,10.9-53.88,17.1-24.73,8.63-36.74,24.94-36.83,51.1-.28,87.86-.54,175.73.42,263.58.11,10.11,5.7,22.16,12.61,29.85,22.08,24.56,46.15,47.31,69.08,71.13,9.16,9.51,19.73,13.76,32.82,13.64,29.28-.28,58.57-.33,87.86,0,20.6.24,32.43,12,33.16,32.55.45,12.63.08,25.28.08,38.82H789c-5.07-12.37,9.73-28.55-9.14-35.07,4-5.39,8.41-10.14,11.56-15.6,6.74-11.69,16.35-18,29.91-18H938c1.45-6.16,2.41-10.28,3.37-14.39l2.37.19L946.6,770h26.6q1.77-6.42,3.52-12.84l2.45.65,2.51,13.72c38.71,0,76.46.17,114.21-.09,14-.1,24.6,4.87,32.07,16.89,3.8,6.13,8.43,11.76,12.18,16.92-17.69,7.47-4.35,23.06-9.05,34.86h106.08c0-11.73-.08-22.5,0-33.27.24-27,11.24-38,37.83-38.05,27.87,0,55.79.88,83.59-.57,10-.52,22.15-4.15,29.25-10.75,25.93-24.07,50.69-49.49,74.62-75.56,6.08-6.62,10.44-17.54,10.51-26.52.75-88.8.61-177.61.28-266.42-.09-24.45-12.18-40.83-35.69-48.9-20.47-7-41.31-13-62.12-19-14.71-4.23-22.17-15.4-19.7-30.82.43-2.69.59-5.43,1-9.11l-99.41-23.74-7.46,28,12.26,7.3-1,2.43-13.49-1.08c-6.71,20.15-21.24,26-40.91,25.84-70.38-.53-140.77-.23-211.16-.24h-13.8c-1.33,6-2.34,10.55-3.35,15.08l-2.32-.19c-.93-4.72-1.87-9.44-2.83-14.3-20.26-1.55-6.1,17-14.07,22.51-2-22.71-2-22.71-12.88-21.17q-1.38,6.71-2.74,13.4l-2.76-.49-2.37-14.84H924.14c-68.5,0-137-.51-205.48.32-21.77.27-39.41-3.54-46.8-26H658.31c-.09-.75-.19-1.49-.29-2.24l12.37-5.89-8.12-28.49Zm906.14,68.54c3.3,13.57,9.44,27.39,9.58,41.27q1.32,131.76-.19,263.52c-.15,11.49-6.08,25.17-13.8,33.86-21.91,24.66-46.35,47.06-69.36,70.78-10.62,10.94-23,15.62-38,15.42-28.8-.39-57.61-.29-86.42-.06-15.66.12-26.25,8.86-27.47,22.86-.76,8.75-.14,17.62-.14,27.94,22.11,0,42.78-.32,63.43.22,5.27.13,11.64,1.55,15.48,4.79,12.79,10.79,32.64,13.33,47.52,3.84q40.59-25.89,80.59-52.69c3.57-2.38,8.09-6.74,8.21-10.32.54-16.31,10.16-19,23.72-19,53.36.31,106.74.38,160.1-.15,5.28,0,14.63-4.34,15-7.56,1.41-11.11,2.48-21.9-5.16-33.5-5.65-8.57-4.93-23.36-2.74-34.54s14-12.07,24.45-11.9c17.94.3,35.89.22,53.84,0,14.71-.16,16.63-3.09,12.18-19.68-8.91,0-21.06,3.54-26.86-1s-5.1-17.17-7.69-28.08H1655V576.38h49.61c3.3-10.38,3.54-22,8.92-25.34,6.94-4.26,18-1.83,27-2.28,2.88-20.94,1.23-23-17.62-23-16.06,0-32.12-.15-48.17.06-10.19.14-21,.52-25.54-10.6-4.88-12.08-5.89-24.59,3.43-36a22.45,22.45,0,0,0,5-12.43c.57-17.46.35-34.94.24-52.42-.06-10.57-4.93-17.71-16-21.06-1,4.86-1.84,9.14-2.17,10.79L1367.58,302.21l-2.49,6.71,116.64,38.91-1.12,4.19ZM178.8,646.24c-2.35,16.56-.94,18.41,14.35,18.48,19.37.09,38.74-.09,58.1-.12,10.7,0,19.26,4.57,20.86,15.27,1.82,12.17,3.33,24-5.93,36.1-5.39,7.07-4.15,20.6-2.59,30.71.44,2.84,12.6,5.41,19.4,5.47,52.43.44,104.86.34,157.29.14,12.06,0,20.11,3.34,21,17.11a15.33,15.33,0,0,0,5.85,10.34c28.65,19.15,56.75,39.42,87,55.77,10.14,5.49,28.58,5.14,38.26-.73,9.37-5.68,17.14-9.54,27.69-9.42,18.65.21,37.31.06,56.35.06,0-7-.12-11.7,0-16.37.75-25.73-7.52-34.43-32.78-34.44-27.4,0-54.8-.23-82.19.06-14.58.15-26.47-4.72-36.67-15.24-21.36-22-42.62-44.22-65-65.21-13.86-13-19.33-27.66-19.19-46.46.56-78.88.23-157.77.24-236.65,0-21.34-2.65-43.23,16-62.18l-17.56,3c-.38-1.32-.77-2.64-1.16-4L555.25,308.7c-.82-2.21-1.64-4.43-2.47-6.64L279.71,404.23C279.44,402,279,398,278.34,393c-11.08,3.65-16.21,10.48-16.31,21.12-.14,14.65-1,29.37.17,43.9.69,8.27,6.08,16.08,7.3,24.39,1.58,10.76,3.35,22.35.91,32.61-2.52,10.62-13.78,11-23.67,10.8-16.53-.28-33.06-.1-49.6-.08-18.9,0-22,4.13-16.63,24.35,8.5,0,19.71-3.26,25.67.94,5.67,4,5.84,15.77,9,26.13h49.45v40.11H214.41c-2.36,10.25-1.64,23.1-7,26.65C200.32,648.54,188.43,645.81,178.8,646.24ZM1244.28,284c-72.07-36.53-519.61-35.84-567,.52L692.86,286l-14.05,7.71c5.65,16.31,17.47,20.41,32.51,20.37,71.75-.18,143.5.09,215.25-.35,5.5,0,11-4.35,17.44-7.09l9.71,7.11c1.52-4.86,3.65-9.63,4.4-14.61s.17-10.36.17-15.55l3.54.2c0,7.43-.52,14.92.26,22.27.29,2.75,3.59,5.18,5.52,7.75,2.42-2.06,5-4,7.19-6.25a4.52,4.52,0,0,0,1.31-2.48c4.75,3.28,8.82,8.54,12.93,8.57q112.57.72,225.16.24c13.59,0,22.93-6.73,26.89-20.56l-13.9-7Zm-238,503.15c-.08,1-.15,1.9-.23,2.85H975.11c-.8-4.48-1.49-8.34-2.13-11.9H946.26c-.5,4.48-.94,8.38-1.3,11.55H913.21l-.06-2.8,26.62-3.1c-1.48-4.64-2.18-5.69-2.88-5.69-40.11-.17-80.23-.71-120.33,0-11,.18-18.48,7.5-20.79,19.18l17,3.23-18.13,6.85c.26,5.66.5,10.6.79,16.65,28,0,54.89.34,81.7-.37,4-.11,7.74-5.44,11.87-7.89,7.23-4.3,14.36-10.81,22.11-11.8,14.84-1.88,30.09-.54,45.45-.54,1-4.11,1.77-7.46,3.34-14.09,1.71,6.63,2.58,10,3.68,14.28,14.35,0,28.5.27,42.63-.08,11.31-.27,20.26,2.66,25.69,13.63,1.44,2.89,5.32,6.43,8.13,6.48,28.14.48,56.29.29,84.59.29V807L1111,801.3c.18-.84.35-1.68.53-2.52l13.75-1.23c-5.2-14.48-14.62-20.3-28.39-20.28-35.89.06-71.78,0-107.66.05-2.94,0-5.86,1.13-8.79,1.73-.13,1.56-.27,3.11-.4,4.67Zm-317-518,243.28-22.72a194.86,194.86,0,0,1-35.65,1.29c-6.34-.36-12.56-2.76-18.82-4.28s-12.51-5-18.39-4.28c-48.7,5.63-97.37,11.63-145.89,18.56-8.45,1.28-16.14,7.41-24.58,11.48ZM987.5,247.87c.09-.47.18-1,.28-1.42l242.79,22.72c-7.75-3.87-15.08-10-23.12-11.16-49.5-7-99.13-13.12-148.79-19-5-.6-10.49,2.35-15.72,3.79-5.76,1.6-11.41,4.47-17.23,4.81-12.71.82-25.52.31-38.26.31ZM450.8,331l.14-2.2c-9.13,0-19.39-2.75-27.2.46-44.33,18.26-88.12,37.83-131.92,57.36-3.31,1.48-5.2,6.14-7.75,9.32l2.36,1.32Zm1019.47.39,163.45,65.92c-1.18-5.62-4.21-10.24-8.45-12.15-35.59-16-71.42-31.41-107.12-47.13-15.85-7-31.25-16.49-47.88-6.66ZM1693.35,583.7h-32.7v25.88h32.7Zm-1466.22-.42v26.18H259V583.28Z"/><path d="M1594.86,699.2c20.2.07,23.38,2.15,23.24,15.28-.14,13.71-10.51,24-24.19,24a24.44,24.44,0,0,1-24.31-24.14C1569.62,701.45,1573.5,699.14,1594.86,699.2ZM1618,715.51c-7.62-5.34-10.77-9-14.54-9.84-5.41-1.17-11.29.09-16.93-.3-10.86-.75-13.34,6.93-9.39,13.28,3.78,6.08,12.36,12.63,18.8,12.6C1602.06,731.22,1608.16,723,1618,715.51Z"/><path d="M1521.46,367.69l-19.21-5.61c-.54,8.33-1,16-1.53,23.68l-3.47.32c-.84-10.69-1.68-21.38-2.65-33.7l28.74,11.33Z"/><path d="M325.12,699.47c11.68.16,24.87-3.41,25.06,14.66a24.12,24.12,0,0,1-24.12,24.12h-.29c-13.76-.07-23.8-10.55-23.94-24.38C301.64,695.1,315.22,699.83,325.12,699.47Zm1.39,5.48c-6.58,2.27-18.81-5.11-18.3,9.87.37,10.83,6.67,17.64,17.91,17.54s17.6-7,18.06-17.69c.59-13.57-10.5-8.28-17.67-9.67Z"/><path d="M425,352.44c-.62,12.18-1.16,22.82-1.71,33.47H419.4c-.49-7.43-1-14.86-1.54-23.45l-19.48,4.81-1.44-3.54Z"/><path d="M279.88,614.3q-1.77-15.22-3.55-30.46l4.85-.68,4.47,30.67Z"/><path d="M946,266.6c-.63,8.18-1.16,14.93-2,25.35-7.86-10.56,2.82-26.81-16.75-26.26q1.14-2.12,2.29-4.23h60.63c-15.6,4.64-7.93,18.22-13.87,27.17l-2.77-22Z"/><path class="cls-1" d="M1473,655.41c-.07,9-4.43,19.9-10.51,26.52-23.93,26.07-48.69,51.49-74.62,75.56-7.1,6.6-19.21,10.23-29.25,10.75-27.8,1.45-55.72.52-83.59.57-26.59,0-37.59,11.09-37.83,38.05-.1,10.77,0,21.54,0,33.27H1131.09c4.7-11.8-8.64-27.39,9.05-34.86-3.75-5.16-8.38-10.79-12.18-16.92-7.47-12-18.1-17-32.07-16.89-37.75.26-75.5.09-114.21.09l-2.51-13.72-2.45-.65Q975,763.6,973.2,770H946.6l-2.84-12.7-2.37-.19c-1,4.11-1.92,8.23-3.37,14.39H821.37c-13.56,0-23.17,6.29-29.91,18-3.15,5.46-7.52,10.21-11.56,15.6,18.87,6.52,4.07,22.7,9.14,35.07H682.66c0-13.54.37-26.19-.08-38.82C681.85,780.8,670,769,649.42,768.8c-29.29-.34-58.58-.29-87.86,0-13.09.12-23.66-4.13-32.82-13.64-22.93-23.82-47-46.57-69.08-71.13-6.91-7.69-12.5-19.74-12.61-29.85-1-87.85-.7-175.72-.42-263.58.09-26.16,12.1-42.47,36.83-51.1,17.79-6.2,35.69-12.25,53.88-17.1,24.42-6.5,29.91-13.9,25.7-41.13l99.23-23.93,8.12,28.49L658,291.75c.1.75.2,1.49.29,2.24h13.55c7.39,22.48,25,26.29,46.8,26,68.48-.83,137-.31,205.48-.32h14.35l2.37,14.84,2.76.49c.91-4.47,1.82-8.93,2.74-13.41,10.83-1.53,10.83-1.53,12.88,21.18,8-5.56-6.19-24.06,14.07-22.51,1,4.86,1.9,9.58,2.83,14.3l2.32.19c1-4.53,2-9.07,3.35-15.08h13.8c70.39,0,140.78-.29,211.16.24,19.67.15,34.2-5.69,40.91-25.84l13.49,1.08,1-2.43-12.26-7.3c2.3-8.64,4.58-17.21,7.46-28l99.41,23.74c-.39,3.68-.55,6.42-1,9.11-2.47,15.42,5,26.59,19.7,30.82,20.81,6,41.65,12,62.12,19,23.51,8.07,35.6,24.45,35.69,48.9C1473.6,477.8,1473.74,566.61,1473,655.41Z"/><rect class="cls-1" width="1" height="1"/><rect class="cls-1" x="1919" y="1079" width="1" height="1"/><rect class="cls-1" y="1079" width="1" height="1"/><rect class="cls-1" x="1919" width="1" height="1"/><g class="cls-2"><path d="M825.18,481.87v111H805.35V522.16l-19.5,14.91L769.67,549.6l-16.18-12.53L734,522.16V592.9H714.15v-111L734,497.1l35.69,27.44,35.68-27.44Z"/><path d="M943,537.54a32.76,32.76,0,0,1-23.48,55.52H874a32.59,32.59,0,0,1-30.14-20,34.41,34.41,0,0,1-2.54-12.84,32.67,32.67,0,0,1,9.2-22.85,31.13,31.13,0,0,1-6.82-10,34.46,34.46,0,0,1-2.53-12.85,32.2,32.2,0,0,1,32-32.83h46.47a32.87,32.87,0,0,1,23,55.67Zm-24.27-9.67a12.94,12.94,0,0,0,.47-25.86H872.44a12.94,12.94,0,0,0,.32,25.86h46Zm.16,45.52a13.07,13.07,0,0,0,13-13,12.92,12.92,0,0,0-12.21-13H873.24A12.89,12.89,0,0,0,861,560.23a13.07,13.07,0,0,0,13,13h45.52Z"/><path d="M1078.48,573.39v19.83H967.76V560.54a31.62,31.62,0,0,1,2.7-12.84,32.57,32.57,0,0,1,28.87-20h48.06a13,13,0,0,0-1.11-25.85h-78.2V482h78.2A32.62,32.62,0,0,1,1079,514.7a32.33,32.33,0,0,1-9.35,22.68,33,33,0,0,1-22.37,10h-47.9a12.91,12.91,0,0,0-11.58,12.85v12.84Z"/><path d="M1196.32,536.91a32.75,32.75,0,0,1-23.47,55.51h-45.52a32.57,32.57,0,0,1-30.14-20,34.31,34.31,0,0,1-2.54-12.85V514.07a32.09,32.09,0,0,1,8.25-21.41,33.5,33.5,0,0,1,9.52-7.46,31.39,31.39,0,0,1,14.91-3.65h69v19.83h-69a13.07,13.07,0,0,0-13,13v15.54a32.44,32.44,0,0,1,12.37-2.54h46.79a32.81,32.81,0,0,1,23,10Zm-23.63,35.69a13.07,13.07,0,0,0,13-13,12.93,12.93,0,0,0-12.22-13h-46.79a13,13,0,0,0,.64,26h45.36Z"/></g></g></g></g></g></svg>