<svg xmlns="http://www.w3.org/2000/svg" viewBox="0 0 1920 1080"><defs><style>.cls-1{fill:#010101;}.cls-2{fill:#f2f2f2;}</style></defs><g id="Capa_2" data-name="Capa 2"><g id="Capa_1-2" data-name="Capa 1"><path class="cls-1" d="M1672.77,585.49c-3.79-20.42-7.31-23.61-27.44-27.09-4.9-.84-7.78-3-7.71-8.22q.17-13.42.33-26.85c-.17-27.87-.4-55.75-.5-83.62,0-9.47.55-10,10.29-11.5,14.9-2.31,21.57-8.75,24.27-23.5.72-3.93,1.37-7.9,2.08-11.83,5.47-30,11.18-59.76,10.18-90.55,0-31-5.85-35.71-5.85-35.71-10.13-16.52-26.84-14.22-42.9-14.22q-85.49.06-171,0a63.89,63.89,0,0,1-17.41-2.56c-19.31-5.42-38.66-10.69-58.14-15.39-5.08-1.23-7.65-2.58-6.33-8.09,1.12-4.66-1.29-6.15-5.64-6.69-7-.88-14-2.33-20.93-3.56q-30.31-5.34-60.65-10.73c-3.78-.67-7.21-1.18-6.84,4.6.28,4.45-2.57,4.67-6.12,4.11-25.93-4-51.94-7.2-78.12-9-3.59-.25-6.91-1.07-9-4.63-4.19-7.23-11-8.89-18.78-8.81-20.82.22-41.67-.72-62.42.43-15,.82-26.22-2.63-35.94-15.06-10.3-13.15-29.37-11.79-40.27.91-2.46,2.85-5,5.69-7.17,8.77-2.75,3.86-6.33,5.07-11,5l-111.07.2c-11.5.75-19.87-2.39-26.16-12.38-4.62-7.34-11.79-10.91-20.93-10.91-15.83,0-18.49,3.37-18.49,3.37-4.53,11.67-15.93,19.73-27.53,19.75-24.36,0-48.72.13-73.09,0-7.49,0-14.09,1.37-18.28,8.32-2.19,3.63-5.72,4.61-9.59,4.91-26.37,2.11-52.68,5-78.79,9.31-3.77.63-5.44-.32-5.16-4.21.37-5.21-2.47-5.65-6.71-4.89C598.51,210,573,214.46,547.41,219a31.92,31.92,0,0,1-4.9.75c-4.77,0-7.23,1.94-5.89,7s-.88,6.46-5.78,7.64c-18.33,4.45-36.49,9.59-54.69,14.58a89.84,89.84,0,0,1-24.39,3.54c-56.76-.17-113.53,0-170.29-.13-15.46,0-31.1-1.12-41.17,15.08,0,0-4,1.39-4.9,32.33C234.41,332.3,247.33,405,247.33,405c3.66,15.19,9.54,21.58,25.13,23.18,6.67.7,9.59,3.3,9.55,10.2q-.33,55.32-.2,110.64c0,6.66-2.94,9.58-9.27,9.65-8.53.12-15.52,3.34-20.78,10.13-7.07,16-7.34,33.48-11.39,50.12-6.4,26.25-4.74,53-4.86,79.6,0,12.07,5.16,21.28,14.93,28.11,6.23,3.17,12.82,4.15,19.8,4.12,21.68-.13,43.38.09,65.06.17,29.73,0,59.46-.13,89.19-.07,2.51,0,5,1,7.53,1.55,8.54,1.63,11.36,8.63,14,15.43,10.08,26.35,19.94,52.79,29.85,79.21,4.06,10.79,8,21.61,12,32.4,3.18,7.84,6,15.84,9.61,23.45a49,49,0,0,0,22.76,23.33c5.49,3.15,22.13,5.47,22.13,5.47,7.17,0,13.11-1.75,17.44-7.43,5.83-7.67,13.29-9.82,22.81-9.43,17.47.73,35,0,52.48.32,8.29.15,14.66-2.7,19.56-9.26,1.12-1.52,2.43-2.9,3.64-4.35,2.6-3.15,6.23-5.15,9.89-3.77,3.1,1.15,1.17,5,1.48,7.71a58.74,58.74,0,0,1,.11,6.37c0,3.08,1.17,4.6,4.63,4.59q41.85-.21,83.7-.1c4.77,0,5.9-2,6-6.38.19-11.87.33-12.16,12.34-13.83,16.6-2.3,33.22-4.4,50-4.88,35.85-3.17,71.74-4.47,107.73-4.44,8.12,0,32.47-.4,32.47-.4,59.59.08,119.07,2.06,178.23,9.89a7.66,7.66,0,0,0,2.11.2c7.68-1.15,8.73,2.91,8.55,9.47-.33,11.29-1.48,10.3,10.12,10.34,25.06.1,50.13-.31,75.18.3,7.71.18,9.47-2.71,8.77-9.26a14.89,14.89,0,0,1,0-3.53c.3-2.19-1-5.23,1.87-6.21,2.47-.84,5.13.1,7.33,1.66a8.54,8.54,0,0,1,2.51,2.46c6.89,11.78,17.48,14.1,30.28,13.5,17.23-.82,34.52-.11,51.77-.26,4.27,0,7.82.94,10.82,4.09,6.7,7,13.13,14.54,24.49,13,13.74-1.91,26-6.74,35.41-17.36,8.39-9.44,12-21.27,16.41-32.68.5-1.3,1.14-2.52,1.72-3.77,14.34-38.33,28.59-76.68,43.1-114.94,3.42-9.05,11-12.47,20.29-12.51q14.52-.09,29.05-.07c42,0,84.09-.33,126.12.18,17,.22,34.68-13.68,32.76-32.82-.44-4.3-1-8.89.67-13.2C1686.62,651,1678.85,618.31,1672.77,585.49ZM647.15,223.89c23.61-3.54,47.38-5.53,71.1-8,5.86-.61,10.52-2.7,13.7-7.54,2.95-4.47,7-5.63,12.11-5.61q36.54.3,73.08,0c4.5-.06,6,1.09,5.28,5.46a30.37,30.37,0,0,0-.13,5c0,12.93,0,13-13.37,13.53-3.78.17-7.57.2-11.35.28-1.87,0-3.36.82-3.52,2.71-.18,2.06,1.34,2.89,3.2,2.8,9.21-.43,18.41-.88,27.61-1.42,2.43-.14,2.74-2,3-4,3.27-21.83,3.41-21.73,19.17-40.62,4-4.78,8.36-7,14.65-6.74,4.67.21,8.18,1.77,11,5.37,2.17,2.79,4.45,5.52,6.56,8.34,5.06,6.75,11.59,9.74,20.16,9.56l112.77.18c14.6,1.21,25.26-3.7,32.91-15.93,3.23-5.14,7.56-8,14.1-7.56,4.83.29,8.46,1.69,11.73,5.35,5.45,6.1,9.9,13.36,17.92,16.81,2.52,1.09,2.62,3.68,2.6,6.12-.06,5.9,0,11.82-.13,17.73,0,3.17.54,5.52,4.51,5.67,8.27.28,16.51.85,24.78,1.22,2.06.08,4.7.49,4.54-2.79-.13-2.54-2.37-2.51-4.27-2.61-6.14-.28-12.28-.72-18.43-.78-4.32,0-6.76-1-5.72-6.15,1.12-5.49-2.22-13,1.5-16.27,3.93-3.49,11.29-1,17.14-1,19.86-.13,39.72.05,59.59-.12,5.36-.05,9.61,1.17,12.69,5.94s7.41,6.57,13.09,7.12c26.78,2.57,53.59,5,80.17,9.32,4.09.67,5.34,1.72,4.08,5.71a40.66,40.66,0,0,0-1.54,8.36c-.35,3.83-1.24,6.52-6,4.94-1.69-.55-3.61.1-4,1.94-.54,2.57,1.59,3,3.55,3.3,1.33.21,2.82,0,3.62,1.63.86,1.82-1.81,21.08-3.35,22.06-1.72,1.11-3.68.44-5.51.15-46.91-7.77-94.26-11.48-141.6-15.24-45.71-3.63-91.47-6.63-137.34-7.72-5.92-.14-8.86-1.79-7.51-8.07,1.29-6-3-13.26,3.94-18.2,1-.72-.07-2.27-1.23-2.71a9.94,9.94,0,0,0-3.47-.61c-16.55,0-33.09,0-49.65.1-1.73,0-4.09-.67-4.91,1.69s1.72,2.3,2.67,3.42c3.1,3.68,1.31,8.15,1.41,12.24.27,11.53.1,11.51-11.28,11.94q-94.28,3.51-188.2,12.42c-29.15,2.73-58.34,5.38-87.16,10.86-4.15.78-6.13-.41-6.59-4.67s-1.23-8.4-1.94-12.59c-.59-3.45-1.2-6.76,4.09-6.76,1.8,0,3.32-1.19,3-3.16a2.74,2.74,0,0,0-3.75-2.22c-4.53,1.51-5.61-.61-6.33-4.68C633.45,225.63,633.33,226,647.15,223.89Zm314.12,9.17c-.89-6.33,1.28-8,7.55-7.74,11.26.53,11.29.13,11.16,12.27s-3.05,14.42-15.74,11.94c-2.47-.49-3-1.75-3-3.82C961.33,241.48,961.85,237.19,961.27,233.06Zm-20.42-6.86c4.07-1.9,9.63-.67,14.56-.67,2.75,0,2.62,2.13,2.64,4.05,0,4.7-.21,9.41.1,14.1s-1.59,5.89-6.14,5.88c-12.56,0-12.56.19-12.48-12.75C940.22,233.53,937.53,227.75,940.85,226.2ZM643.64,881.11c-2.37,2.9-5.35,2.54-8.38,2.56-18.89,0-37.79.42-56.67-.06-10.59-.27-19,3.22-25.33,11.39-4,5.15-8.73,6.36-15,5.06-15.76-3.25-27-11.75-32.87-26.9-1.69-4.39-3.14-8.87-4.7-13.3q-21-55.1-41.94-110.16c-2.34-6.14-4.23-12.51-8.33-17.85-5.16-6.67-12.11-10.28-20.15-12.11l-85.14-.24c-2.35,0-4.67-.2-7-.31-24.35.71-48.7.78-73,0-10.51-.31-17.37-7.21-17.95-18.2-1.63-30.52-.67-60.9,6.25-90.88,2.13-9.18,3.45-18.55,5.31-27.8,1.76-8.78,4.8-11.3,13.65-12.53s17.95-.73,26.92-1.09c1.71-.08,4.29.79,4.65-1.86.42-3.27-2.63-2.65-4.48-3.06a13.92,13.92,0,0,0-4.23-.08c-4.71.38-7.15-.6-3.67-5.6,1.59-2.28,1.32-5,1.32-7.55q.06-57.45,0-114.92c0-3.32-.2-6.48-2.27-9.44-2.7-3.84-.68-4.84,3.21-4.63,2.14.13,5.69,1.06,5.72-2.11,0-3.73-3.81-2.6-6.15-2.66-6.62-.17-13.25,0-19.86-.08-8.64-.11-13-3.1-14.58-11.36-7.44-38.94-15.38-77.83-12.7-117.92,1.1-16.36,8.1-23.63,24.34-23.64,33.82-.06,67.64,0,101.45-.17,4.56,0,6,1,5.95,5.75,0,16.88.19,16.85,17.32,16.81,14.86-.05,29.71,0,44.88,0-.46,2.41-5,4-2.38,6.74,1.66,1.76,4.44.38,6.71-.2,7.53-1.93,15.08-3.8,22.61-5.81,2.32-.61,4.94-1.54,4.2-4.62s-3.52-1.67-5.38-1.68c-25.32-.07-50.62-.17-75.92.13-5.34.07-6.87-1.36-6.61-6.72.47-10.22.14-10.25,10.73-10.26,18.68,0,37.38-.47,56,.15,12.6.43,24.22-2.88,36.05-6.21,15.89-4.48,31.89-8.52,47.78-13,3.9-1.1,5.86-.69,5.86,3.75a18.63,18.63,0,0,0,.81,3.42c2.21,11.48,2.2,11.48-9.2,13.86-1.15.24-2.32.47-3.47.77-2.18.61-4.34,1.76-3.64,4.3s3.15,1.16,4.88,1.21c4.8.1,10.58-4.69,13.83-1.2,2.84,3,1.84,9.43,3.09,14.19,1.2,4.51-.79,5.66-4.71,6.43-12.95,2.58-25.88,5.27-38.7,8.35-4.38,1-5.71,0-5.2-4.22a20.23,20.23,0,0,0,.13-5.65c-1.35-7.6,1-11.95,9.35-12.32,2.22-.1,6-.9,5.31-4.41-.82-4.38-4.13-1.6-6.27-1.17-7.4,1.47-14.77,3.08-22.08,5-1.77.46-4.77,1.11-4,4s3.6,2,5.36,1.3c7.17-2.71,7.49,1,7.27,6.67-.46,12.78-.25,12.82-12.48,15.55-13.34,3-26.76,5.59-40,8.85-23,5.63-36.65,23-36.76,46.64-.17,38.3-.1,76.61-.09,114.91,0,12.54,3.88,24.24,8.08,35.86a25.93,25.93,0,0,1,.77,4c4.13,2.83,4,7.75,5.48,11.76,9.33,25.13,18.34,50.38,27.47,75.6q13.83,37,27.64,74c5.51,14.76,10.65,29.66,16.47,44.28,3.71,9.31,3.33,18.77,3.2,28.79-3.93-1.15-3.48-4.43-4.42-6.83-.82-2.08-1.87-4.18-4.54-3.15-2.17.85-2,2.94-1.32,4.86q4.47,11.87,9,23.72c.51,1.35,1.32,2.67,3,2.57,2.49-.15,1.87-2.28,2.07-3.77.49-3.5.86-7,1.28-10.5v-8.93c2.76,2.76,4.63,5.2,3.59,8.9,5.41,8.55,7.26,18.56,11.29,27.66,1.31,3,2.07,6.14,3.1,9.22a8,8,0,0,1,2.37,6.85c-3.06-1.6-4.5-4-5.73-6.63-2.2-3.3-4.37-6.61-6.61-9.89a3.73,3.73,0,0,0-5-1.39c-1.85,1-.84,3,0,4.34,4.4,6.94,8.9,13.8,13.37,20.69.26.39.59,1.06.87,1.06,10.61-.28,9,9.4,11.76,15.07,3.22,6.7,5.45,13.91,8.81,20.62,2.08,4.16,4.59,7.6,8.76,9.7,11.36,8.25,24.1,11.05,38,10.55,13-.47,26-.82,38.87,1.35,13.46,2.26,26.7-3.08,40.15-1.09a18.5,18.5,0,0,1,6.25,1.49C655.44,865.07,649.82,873.59,643.64,881.11Zm506.89-15.7c-23.25-2.53-46.49-4.86-69.83-6.43-24.53-1.66-49.09-2.22-78.38-3.55-8.74,0-22.21,0-35.68,0H953.75c-18.19,0-36.39-.27-52.93.85-44.84,1.29-88,3.78-130.91,9-1.84.22-5.36,2.57-5.63-1.17-.19-2.68,3.39-2.64,5.69-2.78,53.92-3.61,107.73-9.47,161.88-9.16,7.32,0,14.64-.45,21.95-.54l12.54-.1c30,1.59,60,.17,90,2.79,19.76,1.71,39.58,2.72,59.36,4.2,11.76.88,23.5,2,35.23,3.17,1.57.17,4.57-.08,4.31,2.44C1154.91,866.84,1152.16,865.58,1150.53,865.41Zm99.92-6.82s-5.11,3.44-5.74,9.26a77.34,77.34,0,0,0-.52,17.6c.4,4.78-1.39,5.4-5.47,5.37-24-.14-48.07-.21-72.09,0-4.75.06-6-1.29-5.71-5.9.48-8.45.31-16.94.41-25.42-1-2.38-3.12-2.48-5.3-2.69-39-4-78.1-7-117.27-8.64-24.3-1-48.61-2.66-73-1.81l-18.89-.46q-46,1.6-92,3.3c-29.83,2.37-59.71,4.13-89.5,7.25-6,.63-7.57,2.53-7.22,8.08.42,7.06,0,14.16.25,21.23.14,3.53-.58,5-4.51,5q-37.17-.21-74.31,0c-3.94,0-4.55-1.38-4.38-5.08a123.58,123.58,0,0,0-.66-19,26.64,26.64,0,0,0-.93-5.85C672.68,857.1,607,858,607,858c-5.21,0-9.61-.69-14.39-3.85-6.78-4.47-14.9-6.92-22.52-10-1.44-.58-3.48-2.71-4.83,0-1,2.05.33,3.69,2.07,4.67,3.07,1.74,6.24,3.3,9.39,4.9,2.19,1.09,4.41,2.13,7.48,3.61-23.38,3.09-43-8.51-48.1-28.37,4.41,3,8.22,5.47,12,8,1.83,1.25,4.12,2.63,5.61.58,1.16-1.6-.44-3.69-2.21-4.61-19.7-10.17-26.09-29.22-32.79-48.26L420.31,514.84c-7.18-15.79-11.88-31.92-11.51-49.71.71-34.5.13-69,.34-103.54.14-23.07,13-38.89,35.52-43.77q50.41-10.95,100.93-21.33c5.79-1.18,8.41-3.13,6.85-9.23l-9.66-56.94c-.5-2.87-.45-4.7,3.29-5.37,25.09-4.4,50.12-9.06,75.18-13.61,2.61-.47,4.43-.19,4.9,3.22l9.6,58.54c-.15,7,3.39,7.22,9,6.3,58.32-9.56,117.23-13.8,176.1-18.12,43.38-3.18,86.82-5.35,130.32-6.19l15.25.07c29.55.7,59.08,1.51,88.57,3.5,32.06,2.14,64.13,4,96.14,6.66,25.42,2.07,50.78,4.87,76.12,7.69,16.62,1.85,33.22,4.17,49.79,6.56,4.26.62,6-.37,6.43-4.83l9.85-61.05c.5-3.43,2.82-2.68,4.75-2.33,25,4.53,50.06,9.25,75.14,13.63,3.7.64,4,2.2,3.48,5.19l-7.37,44.42c-4,20.6-3.87,20.3,16.79,24.56,30.66,6.32,61.29,12.78,91.78,19.84,19.92,4.61,32.28,20.65,32.36,41,.18,38.29.07,76.59.06,114.9a59.56,59.56,0,0,1-3.82,20.74L1401.17,781.51a221.74,221.74,0,0,1-11.77,31.75c-3.65,7.69-11.26,11.9-17.73,17-1.66,1.32-3.41,2.53-5.06,3.88a2.78,2.78,0,0,0-.83,3.79c1,1.33,2.75.78,3.87.05,4.3-2.79,8.49-5.77,13.06-8.93-2.82,18.94-25.21,32-46.85,28.63,4.55-3.79,9.81-5.07,14.31-7.71,2.13-1.25,5.54-2.47,3.89-5.64s-4.18-.38-6,.54c-8.36,4.29-17.86,6.15-25.48,12-1.79,1.38-4.06,1.15-6.18,1.1Zm421.71-156.75c-.74,10.38-8.1,17.23-18.71,17.43-20.52.38-41,.29-61.55.31q-45.27.07-90.56,0c-10.51,0-20.75.82-29.21,8.1-10.79,12.75-13.56,29.14-19.92,43.89-1.84,4.27-3.42,8.65-5.12,13-3.55,9.74-7,19.48-10.67,29.19-5,13.37-10.1,26.73-15.16,40.09-.64,1.7-.68,3.81-3,4.4-4.2,23.93-16.52,37.51-36.37,41.79-6.32,1.36-11.51.55-15.75-4.9-6.68-8.63-15.44-12.06-26.6-11.62-18.16.71-36.38.15-54.55.34-4.86,0-8.33-1.23-11.5-5.25-7-8.91-7.27-8.72-21.2-14.52,8,0,16.07-1,23.8.3a68.52,68.52,0,0,0,21,.79c13.63-1.82,27.34-1.67,41-1.38,12.33.26,23.9-1.86,34.3-8.83,13.53-9.71,17.5-25,23-39.38,1.29-3.39,1.39-8.55,7.51-7a1.45,1.45,0,0,0,1.19-.59c5.24-8.76,13.65-15.71,15.35-26.51-4-1.15-5.39,1.83-7.11,4.37-3.24,4.83-6.51,9.63-9.76,14.44-.54-.31-1.09-.61-1.64-.91q9.54-25.51,19-51l1.32.09c.55,6.17,1.07,12.35,1.75,18.51.12,1.23-.15,3.11,1.73,3.41,1.69.27,2.55-1.11,3.05-2.42,3-7.92,6-15.84,8.92-23.82.69-1.93,1.59-4.73-1.24-5.4-2.38-.56-3.52,2-4.19,4-.83,2.58-1.3,5.31-4.43,7.75-2.66-25.81,10.34-46.5,17.92-68.6,4.11-15.64,10.78-30.36,16.27-45.49,17-46.71,34.33-93.27,51.41-140a54.32,54.32,0,0,0,3.32-18.74c.05-39.71.26-79.42.1-119.13-.08-21.85-14.48-39.88-36-45.14-15.58-3.8-31.31-7-47-10.11-4.7-.93-7.3-2.55-6.27-7.79a16,16,0,0,0,.07-5.65c-1-6.56.64-9.88,8-7.6,1.59.5,4,1.45,4.49-1.52.4-2.54-1.87-3.19-3.61-3.63-8.22-2.06-16.49-3.93-24.76-5.84-1.74-.39-3.53-.08-4,1.82s.91,3,2.66,3.55a8.69,8.69,0,0,1,1.3.54c3.51,1.6,9.35.08,10.5,4,1.46,5,.53,10.75.55,16.17,0,2.67-1.7,3-3.88,2.55-14-3-28.09-6.13-42.19-8.95-2.88-.57-3.51-1.82-3-4.29.22-1.15.55-2.29.79-3.45.88-4.38.34-10.22,3-12.74,2.87-2.71,8.22,1,12.54,1.37,2,.17,5.23,2,5.79-1.57.47-2.95-2.31-3.47-4.74-4.07-13.13-3.22-12.82-3.22-10.87-17.08.68-4.9,1.81-5.75,6.51-4.39,15.62,4.52,31.49,8.14,47,12.88,13.67,4.19,27.32,6.66,41.71,6.19,18.43-.61,36.89,0,55.33-.28,4.4-.06,6.82.71,5.94,5.67a10.78,10.78,0,0,0,0,3.54c1,6.05-1,8.05-7.5,7.92-24.82-.44-49.64-.22-74.47-.15-2.08,0-5.25-1.41-6,2-.65,3.17,2.42,3.52,4.52,4.4,8.12,3.39,16.92,4.12,25.33,6.39,1.22.33,3.4.2,3.93-.55,2-2.84-2.31-4-2.33-6.58,17.85,0,35.54-.27,53.21.14,6.63.16,9.22-1.59,9-8.63-.34-14,0-14,14.39-14q46.47,0,92.93,0c16.11,0,23.34,7.44,24.08,23.85,1.46,32.3-1.72,64.13-8.56,95.68-1.45,6.67-2.36,13.47-3.74,20.17-2,10-5.86,13.14-16,13.26-7.08.09-14.18,0-21.26.1-1.84,0-4.14-.24-3.92,2.7.2,2.51,2.5,2.14,3.83,2,7-.93,8,1.31,4.25,7-1.65,2.46-1,5.51-1,8.33q-.29,40.41-.51,80.8a29.21,29.21,0,0,1,0,10.13q.09,12,.16,23.95c-.2,4.12,4.23,8.26,2.69,11.1s-7,.53-10.64,1.24c-1.5.28-2.8.8-2.77,2.59,0,2.57,2.13,2.13,3.62,2.15,9.68.11,19.35.2,29,1.2,6.14.64,10.45,3.43,11.61,9.49,5.1,26.83,12.14,53.34,13.13,80.83a35.36,35.36,0,0,1-.48,4.88C1673.57,677.39,1673,689.64,1672.16,701.84Z"/><path class="cls-2" d="M1510.34,474.93a59.56,59.56,0,0,1-3.82,20.74L1401.17,781.51a221.74,221.74,0,0,1-11.77,31.75c-3.65,7.69-11.26,11.9-17.73,17-1.66,1.32-3.41,2.53-5.06,3.88a2.78,2.78,0,0,0-.83,3.79c1,1.33,2.75.78,3.87.05,4.3-2.79,8.49-5.77,13.06-8.93-2.82,18.94-25.21,32-46.85,28.63,4.55-3.79,9.81-5.07,14.31-7.71,2.13-1.25,5.54-2.47,3.89-5.64s-4.18-.38-6,.54c-8.36,4.29-17.86,6.15-25.48,12-1.79,1.38-4.06,1.15-6.18,1.1l-66,.66s-5.11,3.44-5.74,9.26a77.34,77.34,0,0,0-.52,17.6c.4,4.78-1.39,5.4-5.47,5.37-24-.14-48.07-.21-72.09,0-4.75.06-6-1.29-5.71-5.9.48-8.45.31-16.94.41-25.42-1-2.38-3.12-2.48-5.3-2.69-39-4-78.1-7-117.27-8.64-24.3-1-48.61-2.66-73-1.81l-18.89-.46q-46,1.6-92,3.3c-29.83,2.37-59.71,4.13-89.5,7.25-6,.63-7.57,2.53-7.22,8.08.42,7.06,0,14.16.25,21.23.14,3.53-.58,5-4.51,5q-37.17-.21-74.31,0c-3.94,0-4.55-1.38-4.38-5.08a123.58,123.58,0,0,0-.66-19,26.64,26.64,0,0,0-.93-5.85C672.68,857.1,607,858,607,858c-5.21,0-9.61-.69-14.39-3.85-6.78-4.47-14.9-6.92-22.52-10-1.44-.58-3.48-2.71-4.83,0-1,2.05.33,3.69,2.07,4.67,3.07,1.74,6.24,3.3,9.39,4.9,2.19,1.09,4.41,2.13,7.48,3.61-23.38,3.09-43-8.51-48.1-28.37,4.41,3,8.22,5.47,12,8,1.83,1.25,4.12,2.63,5.61.58,1.16-1.6-.44-3.69-2.21-4.61-19.7-10.17-26.09-29.22-32.79-48.26L420.31,514.84c-7.18-15.79-11.88-31.92-11.51-49.71.71-34.5.13-69,.34-103.54.14-23.07,13-38.89,35.52-43.77q50.41-10.95,100.93-21.33c5.79-1.18,8.41-3.13,6.85-9.23l-9.66-56.94c-.5-2.87-.45-4.7,3.29-5.37,25.09-4.4,50.12-9.06,75.18-13.61,2.61-.47,4.43-.19,4.9,3.22l9.6,58.54c-.15,7,3.39,7.22,9,6.3,58.32-9.56,117.23-13.8,176.1-18.12,43.38-3.18,86.82-5.35,130.32-6.19l15.25.07c29.55.7,59.08,1.51,88.57,3.5,32.06,2.14,64.13,4,96.14,6.66,25.42,2.07,50.78,4.87,76.12,7.69,16.62,1.85,33.22,4.17,49.79,6.56,4.26.62,6-.37,6.43-4.83l9.85-61.05c.5-3.43,2.82-2.68,4.75-2.33,25,4.53,50.06,9.25,75.14,13.63,3.7.64,4,2.2,3.48,5.19l-7.37,44.42c-4,20.6-3.87,20.3,16.79,24.56,30.66,6.32,61.29,12.78,91.78,19.84,19.92,4.61,32.28,20.65,32.36,41C1510.46,398.32,1510.35,436.62,1510.34,474.93Z"/><path class="cls-1" d="M377.24,514.62c-7.5,2.74-15.29.89-22.93,1.35-4.9.29-9.82.25-14.74.36-7.3-.13-14.6-.43-21.9-.34-4,0-5.48-1.51-5.42-5.39.18-11.55.36-23.1.19-34.65-.05-3.61,1.64-4.55,4.57-4.56,18.39,0,36.79.09,55.18,0,4.7,0,5.45,3,5.44,6.46C377.6,490.12,377.39,502.37,377.24,514.62Zm-27.45-37.56v.15c-6.38,0-12.76.12-19.13,0-3.08-.09-4.06,1-4,4.07.11,8.5.08,17-.18,25.49-.09,3.29,1.25,3.9,4.17,3.87q18.78-.22,37.55-.07c3.12,0,4.05-1,4-4.11-.16-8.5-.12-17,.06-25.5.07-3.09-.94-4.05-4.05-3.92C362.06,477.24,355.92,477.06,349.79,477.06ZM321.1,493.89h0c0-4.49.05-9,0-13.46,0-1.28.52-3.15-1.45-3.42-2.29-.31-2.61,1.45-2.61,3.23q0,13.81,0,27.62c0,1.47.33,3.19,2,3.2,2.46,0,2-2.16,2-3.72C321.13,502.86,321.1,498.37,321.1,493.89Z"/><path class="cls-1" d="M465.79,682.55a9.81,9.81,0,0,1-1.37,2.49c-1,.93-2.16.62-3.24,0-2.46-1.5-11.76-26.94-10.62-29.34,1-2.14,3-3,4.1-.59C458.58,664.1,462.09,673.31,465.79,682.55Z"/><path class="cls-1" d="M434.15,616.53c.35-2.48,0-4.19,1.5-4.83,2-.83,3.24.65,3.82,2.18,3.11,8.33,6.1,16.7,9,25.09.47,1.36.41,2.88-1.41,3.4s-3.37,0-4.05-1.82C439.92,632.24,436.87,623.9,434.15,616.53Z"/><path class="cls-1" d="M400.94,514.79c-5,4.08-4.81-2.08-7-3.57-2.32-7.08-4.67-14.15-6.93-21.25-.64-2-1.46-4.58,1.12-5.43,2-.66,3.17,1.64,3.91,3.3C395.89,496.53,399.72,505.24,400.94,514.79Z"/><path class="cls-1" d="M357.54,398.85a3.78,3.78,0,0,1,3.28,3.17,156.21,156.21,0,0,0,8,23.13c.61,1.43,1.28,3.46-.5,4.42s-3.59.09-4.64-1.85a83.76,83.76,0,0,1-8.45-25.08A3,3,0,0,1,357.54,398.85Z"/><path class="cls-1" d="M468.47,697.25c1.86.41,2.48,1.71,3,3,3.11,7.37,6.21,14.75,9.23,22.16.81,2,1.6,4.26-1,5.56-2.9,1.49-3.69-1-4.39-2.92q-4.19-11.61-8.14-23.29C466.69,700.13,466,698,468.47,697.25Z"/><path class="cls-1" d="M384.63,319.61a5.73,5.73,0,0,1-.76,1.29c-4.88,6.62-9.76,13.24-14.71,19.81-1,1.26-2.12,3-4,1.82s-.93-3-.3-4.47a58.26,58.26,0,0,1,15.34-20.8,4.1,4.1,0,0,1,3.87-1.17C385.09,316.37,385.28,317.4,384.63,319.61Z"/><path class="cls-1" d="M384.94,469.11c-.05,2-.12,3-1.21,3.35a2.24,2.24,0,0,1-2.91-1.21A178.18,178.18,0,0,1,370,444.62a2.72,2.72,0,0,1,1.81-3.4,2.18,2.18,0,0,1,2.88,1.34C378.25,451.71,381.77,460.88,384.94,469.11Z"/><path class="cls-1" d="M421.26,293.2c1.53.37,3.34-.53,3.73,1.53a2.76,2.76,0,0,1-2,3.28,176.69,176.69,0,0,0-25.07,10.86c-1,.51-2.47.82-3-.59a3.19,3.19,0,0,1,1.33-3.69A59.13,59.13,0,0,1,421.26,293.2Z"/><path class="cls-1" d="M362.38,359.36a201.26,201.26,0,0,0-3.6,23.69c-.13,1.32-.63,2.81-2.52,2.82-2.32,0-2.49-1.62-2.58-3.34a76.36,76.36,0,0,1,3.49-25.61c.44-1.47,1.31-3.29,3.42-2.79S362.65,356.38,362.38,359.36Z"/><path class="cls-1" d="M301.12,490c0-4.22-.05-8.43,0-12.65,0-1.06-.22-2.57,1.31-2.8a2.34,2.34,0,0,1,2.82,2.37c.16,9.36.2,18.73.24,28.09a2.27,2.27,0,0,1-2.09,2.4c-1.76.15-2.49-1.13-2.51-2.67-.06-4.91,0-9.83,0-14.74Z"/><path class="cls-1" d="M305.55,537.1c0,4.23.07,8.46,0,12.69,0,1.86-.39,4.18-2.72,4.12-2,0-2.08-2.34-2.08-3.88.05-8.92.21-17.85.41-26.77,0-1-.34-2.54,1.36-2.74a2.4,2.4,0,0,1,2.75,2.51c.15,4.69.06,9.38.06,14.07Z"/><path class="cls-1" d="M305.55,445.94c0,4.47,0,8.94,0,13.41,0,1.49-.45,2.8-2.31,2.87s-2.32-1.37-2.32-2.8q0-13.73.21-27.46a2.29,2.29,0,0,1,2.65-2.52c2,.12,1.89,1.72,1.91,3.09,0,4.47,0,8.94,0,13.41Z"/><path class="cls-1" d="M1607.4,507.54c.52,7-2.64,8.95-9.55,8.7-15.57-.57-31.18-.17-46.78-.24-3,0-6.17.42-9-1.37-.13-12.25-.28-24.5-.35-36.75,0-3.64,1-6.83,5.45-6.61,19.78,1,39.61-1.25,59.36,1.07l.64,2.92Zm-37.4,3v-.08c6.14,0,12.29-.16,18.43.06,3.47.12,4.45-1.18,4.38-4.52-.16-8.27-.08-16.55.1-24.81.06-3-.87-4.05-4-4q-18.44.21-36.87-.12c-3.77-.06-4.81,1.38-4.72,5,.2,8,.14,16.08-.12,24.1-.11,3.42,1,4.56,4.39,4.45C1557.7,510.37,1563.85,510.52,1570,510.52Zm32.29-17.24h0c0-4.48,0-9,0-13.45,0-1.62-.85-2.77-2.51-2.65s-1.42,1.64-1.43,2.75q-.13,13.8-.18,27.61c0,1.36-.12,3,2,2.92,1.91-.09,2.13-1.55,2.14-3C1602.31,502.72,1602.29,498,1602.29,493.28Z"/><path class="cls-1" d="M1457.45,685.78l-1.89.44c-1.61-2.6-2.21-4.63-.42-8,3.51-6.7,5.68-14.09,8.45-21.18.67-1.71,1.31-4,3.8-3,2.22.85,2,3.35,1.36,4.91C1464.81,667.77,1464,678,1457.45,685.78Z"/><path class="cls-1" d="M1524.41,513.4l-2.79,3.12c-3-.21-3.35-2.37-2.85-4.54a95.54,95.54,0,0,1,9.22-25c.73-1.31,1.64-3.34,3.65-2.51s1.44,3,1,4.38C1530,497,1527.17,505.21,1524.41,513.4Z"/><path class="cls-1" d="M1555.4,341a5.11,5.11,0,0,1-1.31,1.59,2.3,2.3,0,0,1-3.1-.85c-5.46-7.33-11-14.64-16.16-22.14-1.18-1.71-.78-3.85,2.28-3.39C1541.31,316.79,1555.73,335.85,1555.4,341Z"/><path class="cls-1" d="M1485,615.15c-1.64,8.65-5.44,17-8.82,25.41-.77,1.91-2.28,2.3-4,1.7s-1.58-2.17-1.14-3.53c2.64-8.24,5-16.58,8.82-24.4.7-1.43,1.61-3.13,3.57-2.94C1485.58,611.6,1484.67,613.49,1485,615.15Z"/><path class="cls-1" d="M1564.1,403.37c-1.85,8.39-4.18,16.53-8.33,24.05-1,1.85-2.51,3.14-4.57,2.24s-1-2.89-.49-4.32c2.5-7.6,5.14-15.15,7.67-22.74.64-1.91,1.49-3.86,3.68-3.65C1564.75,399.21,1564,401.67,1564.1,403.37Z"/><path class="cls-1" d="M1549.59,444.66c-3.3,8.78-6.56,18-11.45,26.64a2.21,2.21,0,0,1-3,1c-.5-.28-.74-1.76-.49-2.48,3.15-8.84,6.43-17.63,9.63-26.45.55-1.51,1.42-2.46,3.06-2.35C1549.28,441.15,1549.26,442.75,1549.59,444.66Z"/><path class="cls-1" d="M1487.27,595.54c2.84-7.53,5.83-15.64,9-23.68.53-1.33,1.28-3.49,3.48-2.3a3.47,3.47,0,0,1,1.42,4.36c-1.78,5.07-3.73,10.08-5.71,15.08-1.12,2.83-2.39,5.6-3.69,8.36-.68,1.44-1.36,3.34-3.49,2.58C1486.44,599.28,1487.53,597.54,1487.27,595.54Z"/><path class="cls-1" d="M1515.85,526.49c.25.84.49,1.69.74,2.54-1.59,8.85-5.55,16.93-8.27,25.42-.71,2.22-2,4-4.58,3.3-2.82-.74-1.75-3.23-1.12-4.68C1506.57,544,1508.06,533.66,1515.85,526.49Z"/><path class="cls-1" d="M1498.9,293.36A63.82,63.82,0,0,1,1522.67,304c1.45,1.08,2.52,2.64,1.73,4.24-1,2.06-2.87.83-4.26.15-7.4-3.64-14.76-7.33-22.66-9.81-1.52-.47-3.31-1.25-3-3.34C1494.73,292.8,1496.77,293.5,1498.9,293.36Z"/><path class="cls-1" d="M1565.76,378.16c0,1.41.08,2.83,0,4.23-.1,1.57.18,3.47-2.33,3.48a2.61,2.61,0,0,1-2.88-2.5c-.28-8.72-2.51-17.16-3.61-25.75-.22-1.72.19-3.39,2.44-3.51s2.7,1.77,3.11,3.23A84.36,84.36,0,0,1,1565.76,378.16Z"/><path class="cls-1" d="M1613.75,445.53c0-4.47,0-8.94,0-13.4,0-1.16,0-2.44,1.59-2.59s2.86.36,3,2.12a151.63,151.63,0,0,1,0,28.82,1.9,1.9,0,0,1-2.53,1.71c-1.62-.39-2-1.75-2-3.27C1613.75,454.46,1613.76,450,1613.75,445.53Z"/><path class="cls-1" d="M1613.86,490.59c0-4.24,0-8.48,0-12.71,0-1.76.34-3.46,2.61-3.3,1.89.14,2,1.8,2,3.18q.1,13,.09,26.11c0,1.73-.38,3.6-2.64,3.27-2-.29-2.16-2.08-2.13-3.84.06-4.23,0-8.47,0-12.71Z"/><path class="cls-1" d="M1618.14,520.45q.63,2.85,1.27,5.7l-.51,25.38c-1.87,2.4-4.59,3.2-4.82-.4-.61-9.83-.91-19.72.43-29.54.08-.59,1.46-1,2.23-1.49Z"/><path class="cls-1" d="M900.29,228.24H889c-1.61,0-3.51.35-3.62-2.11A2.69,2.69,0,0,1,887.7,223c9.6-.83,19.21-1.6,28.84-.59a1.8,1.8,0,0,1,1.68,2.47,2.94,2.94,0,0,1-3.14,2.29c-4.93.07-9.86,0-14.79,0Z"/><path class="cls-1" d="M730.3,232.93c1.83.21,4.77-1.12,5.33,2.38.61,3.84-2.67,3.17-4.71,3.38-7.46.76-14.94,1.34-22.42,1.88-1.83.14-4,.27-4.31-2.37-.42-3.24,2-3,4.1-3.23C715.52,234.33,722.75,233.64,730.3,232.93Z"/><path class="cls-1" d="M1018.25,227.83c-4.44-.23-8.89-.41-13.33-.7-1.9-.13-4.07-.43-3.94-3,.14-2.39,2.41-1.9,3.86-1.89,8.2,0,16.4.23,24.6.38,2.28,0,4.34.48,4.25,3.39-.1,3.12-2.58,2-4.19,2.1-3.75.14-7.5,0-11.25,0Z"/><path class="cls-1" d="M1211.45,240.64c-9-.79-16.49-1.44-24-2.11-1.85-.16-4-.05-3.89-2.85.14-3.13,2.58-3,4.66-2.84,7.51.67,15,1.49,22.49,2.3,1.88.21,4.64-.84,4.46,2.74C1215,241.69,1212.15,240.59,1211.45,240.64Z"/><path class="cls-1" d="M754.66,236.62c-3.12.2-5.44.5-5.69-2-.27-2.68,1.86-3.42,4.21-3.61,8.19-.64,16.39-1.28,24.57-2.06,1.72-.16,3.53-.73,4,1.44s-.89,3.44-3.13,3.68C770.23,235,761.83,235.85,754.66,236.62Z"/><path class="cls-1" d="M682.59,237.94c2.84,1.51,8.42-2.2,8.44,3.19,0,4.51-5.19,2.35-8.14,2.71-6.51.82-13,1.41-19.58,2-1.81.18-4,.87-4.46-1.87-.42-2.53,1.55-3.17,3.49-3.44C669.07,239.66,675.81,238.82,682.59,237.94Z"/><path class="cls-1" d="M856.51,223.74c3.77-.19,7.53-.46,11.31-.52,1.82,0,4-.18,4,2.7,0,2.42-1.85,2.29-3.47,2.54a150.06,150.06,0,0,1-25.42,1.3c-1.5,0-3.69.62-3.93-1.77-.29-2.79,1.78-3.66,4.1-3.71,4.47-.11,9,0,13.44,0Z"/><path class="cls-1" d="M1067.73,229.92l-16.61-1.47c-1.63-.14-3.58,0-3.62-2.35,0-2.54,1.84-3.08,3.87-3q12.72.58,25.43,1.33c2,.12,3.8,1,3.56,3.44s-2.27,2-3.83,2C1073.7,230,1070.87,229.92,1067.73,229.92Z"/><path class="cls-1" d="M1236.67,237.9c6.51.88,13,1.72,19.54,2.66,2,.29,4.77.13,4.24,3.33-.62,3.73-3.36,2.08-5.56,1.86-7-.7-14-1.31-21.06-1.93-2.47-.22-6,.53-5.73-3.31.22-3.44,3.59-2,5.71-2.29a20.39,20.39,0,0,1,2.82,0Z"/><path class="cls-1" d="M1148.32,229.35c5.84.56,11.68,1.16,17.53,1.66,2.24.19,4.39.38,4.24,3.37-.18,3.59-3.07,2.33-4.77,2.19-8-.63-15.87-1.54-23.8-2.39-2.13-.22-4.76-.51-4.28-3.38.4-2.41,3-1.65,4.74-1.65,2.11,0,4.22.25,6.32.4Z"/><path class="cls-1" d="M404,526.54c6.21,8.46,10,17.91,13.2,27.61.44,1.32.54,2.83-1.26,3.51-1.48.56-3.27.39-3.76-.9C408.49,547,403.81,537.43,404,526.54Z"/><path class="cls-1" d="M432.06,595.19c.24,2.87.54,4.18-.9,4.71-1.63.6-2.79-.32-3.37-1.71-3.31-8-6.62-16.06-9.73-24.16a3.39,3.39,0,0,1,2.17-4.6c2.1-.61,2.62,1.46,3.19,3C426.51,580.5,429.57,588.62,432.06,595.19Z"/><path class="cls-1" d="M1451.47,694.86c2.14,6.51-.38,10.48-1.66,14.47-1.77,5.56-4.09,10.94-6.21,16.39-.64,1.64-1.86,3-3.65,2.72a2.39,2.39,0,0,1-1.91-3.22A121,121,0,0,1,1451.47,694.86Z"/><rect class="cls-2" x="1919" y="1079" width="1" height="1"/><rect class="cls-2" width="1" height="1"/><rect class="cls-2" y="1079" width="1" height="1"/><rect class="cls-2" x="1919" width="1" height="1"/></g><g id="Capa_3" data-name="Capa 3"><path d="M846.2,487.1v101H828.15V523.76L810.4,537.33l-14.72,11.4L781,537.33,763.2,523.76v64.37h-18v-101l18,13.86,32.48,25,32.47-25Z"/><path d="M953.43,537.76a29.81,29.81,0,0,1-21.36,50.52H890.64a29.64,29.64,0,0,1-27.42-18.19,31.31,31.31,0,0,1-2.31-11.69,29.74,29.74,0,0,1,8.37-20.78,28.17,28.17,0,0,1-6.2-9.1,31.11,31.11,0,0,1-2.31-11.69A29.3,29.3,0,0,1,889.92,487h42.29a29.92,29.92,0,0,1,20.93,50.67ZM931.35,529a11.78,11.78,0,0,0,.43-23.53H889.2a11.77,11.77,0,0,0,.29,23.53h41.86Zm.14,41.42a11.9,11.9,0,0,0,11.84-11.84,11.75,11.75,0,0,0-11.12-11.83H889.92a11.72,11.72,0,0,0-11.11,11.69,11.89,11.89,0,0,0,11.83,11.84h41.43Z"/><path d="M1076.68,570.38v18H975.94V558.69A28.69,28.69,0,0,1,978.39,547a29.65,29.65,0,0,1,26.27-18.19h43.73a11.79,11.79,0,0,0-1-23.52H976.23V487.24h71.15A29.7,29.7,0,0,1,1077.12,517a29.53,29.53,0,0,1-8.52,20.64,30,30,0,0,1-20.35,9.09h-43.59a11.74,11.74,0,0,0-10.53,11.69v11.69Z"/><path d="M1171.51,505a31.44,31.44,0,0,1,3.32,14.14V588h-18V517.41a14.38,14.38,0,0,0-12.26-12.27h-53v-18h51.24a31.32,31.32,0,0,1,14.15,3.32,32,32,0,0,1,14.58,14.72Z"/></g></g></svg>