<svg xmlns="http://www.w3.org/2000/svg" viewBox="0 0 1920 1080"><defs><style>.cls-1{fill:#010101;}.cls-2{fill:#f2f2f2;}</style></defs><g id="Capa_2" data-name="Capa 2"><g id="Capa_1-2" data-name="Capa 1"><path class="cls-1" d="M1743.3,590c-4.17-22.44-8-26-30.16-29.77-5.38-.92-8.55-3.29-8.47-9q.18-14.74.36-29.5c-.19-30.63-.44-61.27-.55-91.9,0-10.41.61-11,11.31-12.64,16.37-2.52,23.7-9.61,26.67-25.82.79-4.32,1.51-8.67,2.29-13,6-32.92,12.28-65.67,11.19-99.51,0-34-6.43-39.24-6.43-39.24-11.14-18.16-29.51-15.63-47.15-15.63q-93.94.06-187.9,0a70.54,70.54,0,0,1-19.13-2.8c-21.22-6-42.49-11.75-63.89-16.92-5.59-1.35-8.41-2.84-7-8.89,1.23-5.12-1.42-6.76-6.2-7.35-7.7-1-15.33-2.56-23-3.92q-33.33-5.86-66.66-11.79c-4.15-.73-7.92-1.3-7.52,5.05.31,4.9-2.82,5.14-6.72,4.53-28.49-4.45-57.08-7.91-85.85-9.88-4-.26-7.6-1.17-9.86-5.08-4.6-8-12-9.77-20.64-9.68-22.87.24-45.79-.79-68.59.47-16.52.91-28.82-2.89-39.5-16.55-11.32-14.45-32.27-12.95-44.25,1-2.7,3.13-5.48,6.25-7.88,9.64-3,4.24-7,5.57-12,5.54l-122.06.21c-12.63.83-21.84-2.62-28.75-13.6-5.07-8.07-13-12-23-12-17.4,0-20.31,3.69-20.31,3.69-5,12.83-17.51,21.69-30.26,21.71-26.77,0-53.54.14-80.32,0-8.24,0-15.49,1.51-20.09,9.14-2.41,4-6.29,5.07-10.54,5.4-29,2.33-57.9,5.46-86.59,10.24-4.13.68-6-.36-5.66-4.64.4-5.72-2.72-6.21-7.38-5.37-28.07,5.12-56.16,10.07-84.23,15.08a33.17,33.17,0,0,1-5.38.82c-5.24,0-7.94,2.14-6.47,7.68s-1,7.1-6.35,8.39c-20.15,4.89-40.1,10.54-60.1,16a98.85,98.85,0,0,1-26.81,3.88c-62.38-.18-124.76,0-187.14-.14-17,0-34.18-1.23-45.24,16.57,0,0-4.34,1.53-5.39,35.53-1.09,35.73,13.11,115.57,13.11,115.57,4,16.69,10.49,23.71,27.62,25.48,7.33.76,10.54,3.62,10.5,11.2q-.37,60.8-.22,121.59c0,7.32-3.23,10.53-10.19,10.61-9.38.12-17.05,3.66-22.84,11.12-7.77,17.54-8.07,36.79-12.51,55.08-7,28.85-5.22,58.23-5.34,87.48-.06,13.26,5.66,23.39,16.4,30.89,6.85,3.48,14.09,4.56,21.76,4.53,23.83-.14,47.67.09,71.49.19,32.68,0,65.35-.14,98-.08,2.76,0,5.52,1.11,8.28,1.7,9.38,1.79,12.49,9.49,15.36,17,11.07,29,21.92,58,32.81,87,4.46,11.85,8.81,23.74,13.21,35.6,3.5,8.61,6.57,17.41,10.57,25.78a53.84,53.84,0,0,0,25,25.63c6,3.46,24.32,6,24.32,6,7.88,0,14.4-1.92,19.16-8.16,6.41-8.43,14.61-10.8,25.07-10.36,19.2.79,38.45,0,57.67.34,9.11.17,16.12-3,21.5-10.17,1.23-1.67,2.67-3.19,4-4.78,2.85-3.46,6.85-5.66,10.87-4.15,3.4,1.27,1.28,5.54,1.62,8.48a65.22,65.22,0,0,1,.13,7c0,3.39,1.28,5.06,5.08,5q46-.24,92-.11c5.24,0,6.49-2.15,6.57-7,.2-13,.36-13.38,13.56-15.2,18.24-2.53,36.51-4.84,54.93-5.37,39.4-3.48,78.84-4.91,118.4-4.88,8.92,0,35.68-.44,35.68-.44,65.48.09,130.84,2.26,195.86,10.88a8.4,8.4,0,0,0,2.32.21c8.44-1.26,9.6,3.2,9.39,10.41-.35,12.41-1.62,11.31,11.13,11.36,27.54.11,55.09-.34,82.61.33,8.48.2,10.41-3,9.65-10.18a16.25,16.25,0,0,1,0-3.88c.33-2.4-1.14-5.74,2.06-6.82,2.72-.92,5.63.11,8,1.83a9.12,9.12,0,0,1,2.76,2.7c7.57,13,19.21,15.49,33.28,14.83,18.93-.9,37.93-.12,56.89-.28,4.7,0,8.6,1,11.89,4.5,7.36,7.74,14.43,16,26.91,14.23,15.11-2.11,28.54-7.41,38.92-19.09,9.22-10.37,13.18-23.37,18-35.91.55-1.42,1.25-2.76,1.89-4.14,15.76-42.12,31.42-84.27,47.37-126.31,3.76-9.94,12.08-13.7,22.3-13.75q16-.09,31.92-.08c46.2,0,92.41-.36,138.6.2,18.73.24,38.11-15,36-36.07-.49-4.73-1.13-9.77.73-14.51C1758.51,662,1750,626.06,1743.3,590ZM616.19,192.61c25.95-3.89,52.07-6.07,78.14-8.75,6.44-.68,11.56-3,15.06-8.29,3.24-4.91,7.64-6.19,13.3-6.16q40.17.33,80.31,0c5-.07,6.63,1.2,5.8,6a34.14,34.14,0,0,0-.14,5.45c0,14.21,0,14.23-14.69,14.87-4.15.18-8.32.22-12.47.31-2.06.05-3.7.9-3.87,3-.2,2.26,1.47,3.17,3.51,3.07,10.13-.46,20.24-1,30.35-1.56,2.67-.15,3-2.2,3.35-4.41,3.59-24,3.75-23.89,21.07-44.64,4.4-5.26,9.19-7.74,16.1-7.41,5.13.23,9,2,12,5.9,2.39,3.07,4.89,6.06,7.21,9.17,5.56,7.41,12.73,10.7,22.16,10.5l123.93.2c16,1.33,27.75-4.07,36.16-17.5,3.55-5.65,8.3-8.76,15.5-8.32,5.3.33,9.3,1.86,12.88,5.88,6,6.71,10.88,14.68,19.69,18.48,2.78,1.2,2.89,4,2.86,6.72-.06,6.49,0,13-.14,19.49,0,3.48.59,6.07,5,6.22,9.08.32,18.15.94,27.23,1.35,2.26.09,5.16.54,5-3.06-.14-2.8-2.61-2.76-4.7-2.87-6.74-.32-13.49-.8-20.25-.86-4.74-.05-7.42-1.14-6.29-6.76,1.24-6-2.43-14.27,1.66-17.88,4.32-3.84,12.4-1.09,18.83-1.14,21.83-.14,43.66.07,65.48-.12,5.9-.06,10.57,1.28,14,6.52,3.29,5.09,8.15,7.22,14.39,7.83,29.42,2.83,58.9,5.46,88.11,10.24,4.49.73,5.86,1.89,4.47,6.27a44.56,44.56,0,0,0-1.68,9.19c-.39,4.21-1.37,7.16-6.63,5.43-1.86-.61-4,.11-4.4,2.14-.6,2.82,1.74,3.26,3.9,3.62,1.46.23,3.1,0,4,1.79,1,2-2,23.17-3.69,24.25-1.88,1.21-4,.48-6,.15C1251,238.34,1199,234.27,1147,230.13c-50.24-4-100.53-7.28-150.94-8.49-6.51-.15-9.74-2-8.26-8.86,1.42-6.64-3.29-14.57,4.34-20,1.11-.8-.08-2.5-1.35-3a11,11,0,0,0-3.81-.67c-18.19,0-36.37,0-54.56.11-1.91,0-4.5-.74-5.4,1.85s1.89,2.53,2.93,3.76c3.4,4.05,1.44,9,1.55,13.45.29,12.67.1,12.66-12.39,13.13q-103.62,3.85-206.83,13.65c-32,3-64.11,5.91-95.78,11.93-4.56.86-6.74-.45-7.24-5.13s-1.36-9.24-2.14-13.84c-.64-3.79-1.31-7.43,4.49-7.43,2,0,3.65-1.31,3.3-3.47a3,3,0,0,0-4.12-2.44c-5,1.66-6.17-.67-7-5.15C601.14,194.53,601,194.89,616.19,192.61ZM961.4,202.69c-1-7,1.4-8.83,8.3-8.51,12.37.58,12.4.14,12.26,13.48-.12,13.5-3.35,15.86-17.3,13.13-2.72-.53-3.29-1.92-3.26-4.2C961.46,211.94,962,207.23,961.4,202.69ZM939,195.15c4.46-2.09,10.58-.73,16-.73,3,0,2.89,2.34,2.91,4.44,0,5.17-.24,10.35.1,15.5s-1.74,6.47-6.74,6.46c-13.8,0-13.8.22-13.71-14C938.26,203.2,935.31,196.85,939,195.15ZM612.34,914.86c-2.61,3.19-5.88,2.79-9.21,2.81-20.76.05-41.53.47-62.28-.06-11.64-.3-20.85,3.54-27.84,12.51-4.41,5.67-9.59,7-16.43,5.57-17.32-3.57-29.67-12.92-36.12-29.57-1.85-4.82-3.44-9.75-5.16-14.61q-23-60.56-46.09-121.06c-2.57-6.74-4.65-13.75-9.16-19.62-5.66-7.33-13.31-11.29-22.14-13.31l-93.57-.26c-2.57,0-5.13-.22-7.69-.34-26.76.78-53.52.85-80.26,0-11.54-.35-19.08-7.93-19.72-20-1.79-33.54-.73-66.93,6.87-99.87,2.34-10.09,3.79-20.39,5.83-30.55,1.94-9.65,5.27-12.42,15-13.77s19.72-.8,29.58-1.2c1.88-.08,4.71.87,5.1-2,.47-3.59-2.88-2.9-4.91-3.35a15.38,15.38,0,0,0-4.65-.1c-5.18.42-7.86-.65-4-6.14,1.75-2.52,1.45-5.5,1.45-8.3q.08-63.15.05-126.29c0-3.65-.22-7.13-2.5-10.38-3-4.22-.75-5.32,3.53-5.08,2.35.14,6.25,1.15,6.28-2.33,0-4.1-4.18-2.85-6.75-2.92-7.27-.18-14.56,0-21.83-.09-9.49-.12-14.28-3.4-16-12.48-8.18-42.8-16.9-85.53-13.95-129.6,1.2-18,8.89-26,26.74-26,37.17-.07,74.33,0,111.5-.19,5,0,6.55,1.12,6.53,6.32,0,18.55.21,18.52,19,18.47,16.32-.05,32.64,0,49.32,0-.52,2.65-5.51,4.37-2.62,7.41,1.82,1.94,4.88.42,7.38-.22,8.27-2.12,16.57-4.18,24.84-6.38,2.56-.67,5.43-1.7,4.61-5.08S419.2,255,417.15,255c-27.82-.08-55.62-.19-83.43.14-5.86.07-7.55-1.5-7.27-7.38.52-11.24.16-11.27,11.8-11.28,20.53,0,41.08-.52,61.6.17,13.84.47,26.62-3.17,39.61-6.84,17.46-4.91,35.05-9.36,52.51-14.27,4.29-1.22,6.44-.77,6.44,4.12a21.09,21.09,0,0,0,.89,3.76c2.43,12.6,2.42,12.6-10.11,15.22-1.27.27-2.55.52-3.81.85-2.4.67-4.77,1.93-4,4.72s3.47,1.28,5.37,1.33c5.27.11,11.62-5.15,15.2-1.31,3.12,3.34,2,10.36,3.4,15.59,1.31,5-.88,6.22-5.18,7.06-14.23,2.84-28.45,5.79-42.54,9.18-4.8,1.15-6.27.06-5.71-4.63a21.61,21.61,0,0,0,.14-6.21c-1.48-8.35,1.08-13.14,10.29-13.55,2.43-.11,6.56-1,5.83-4.83-.9-4.83-4.54-1.77-6.89-1.3-8.13,1.62-16.23,3.39-24.27,5.45-1.95.5-5.24,1.21-4.4,4.4s4,2.16,5.9,1.43c7.88-3,8.22,1.14,8,7.33-.52,14.05-.28,14.09-13.71,17.09-14.67,3.26-29.42,6.15-44,9.72-25.23,6.19-40.27,25.26-40.4,51.25-.19,42.1-.11,84.19-.09,126.29,0,13.78,4.26,26.63,8.88,39.41a29.36,29.36,0,0,1,.84,4.37c4.54,3.11,4.38,8.52,6,12.92,10.25,27.62,20.16,55.37,30.19,83.08q15.19,40.63,30.38,81.29c6.05,16.23,11.7,32.59,18.1,48.67,4.07,10.23,3.65,20.62,3.51,31.64-4.32-1.27-3.82-4.87-4.85-7.51-.91-2.29-2.06-4.6-5-3.46-2.38.93-2.24,3.23-1.45,5.33q4.92,13,9.93,26.08c.56,1.48,1.45,2.93,3.27,2.82,2.73-.17,2.06-2.51,2.28-4.15.53-3.84.94-7.69,1.4-11.53v-9.81c3,3,5.09,5.71,3.95,9.78,5.95,9.39,8,20.39,12.41,30.39,1.43,3.25,2.27,6.74,3.4,10.13a8.73,8.73,0,0,1,2.6,7.53c-3.35-1.76-4.94-4.4-6.29-7.28-2.41-3.64-4.8-7.27-7.27-10.88a4.12,4.12,0,0,0-5.46-1.53c-2,1.13-.92,3.31,0,4.78,4.84,7.63,9.79,15.16,14.7,22.73.28.44.64,1.17,1,1.17,11.66-.31,9.94,10.33,12.92,16.56,3.54,7.36,6,15.29,9.69,22.67,2.28,4.57,5,8.34,9.63,10.65,12.48,9.07,26.47,12.14,41.75,11.6,14.24-.52,28.55-.91,42.72,1.48,14.79,2.48,29.35-3.39,44.12-1.2a20.63,20.63,0,0,1,6.87,1.63C625.3,897.23,619.13,906.59,612.34,914.86Zm557-17.25c-25.54-2.78-51.08-5.34-76.74-7.07-27-1.83-54-2.44-86.14-3.9-9.59,0-24.4,0-39.21,0l-14.16,0c-20,0-40-.29-58.17.94-49.27,1.42-96.67,4.15-143.85,9.91-2,.25-5.9,2.82-6.2-1.28-.2-2.95,3.73-2.9,6.26-3.06,59.26-4,118.39-10.41,177.9-10.06,8,0,16.08-.5,24.12-.6l13.78-.1c32.93,1.74,66,.18,98.87,3,21.72,1.89,43.5,3,65.23,4.62,12.92,1,25.83,2.17,38.71,3.48,1.74.19,5-.08,4.75,2.68C1174.2,899.18,1171.17,897.79,1169.38,897.61Zm109.81-7.49s-5.62,3.77-6.31,10.17a84.63,84.63,0,0,0-.57,19.35c.43,5.24-1.53,5.93-6,5.89-26.41-.15-52.83-.23-79.23.05-5.21.06-6.57-1.42-6.27-6.49.53-9.28.34-18.61.45-27.93-1.11-2.62-3.43-2.73-5.82-3-42.86-4.4-85.83-7.66-128.87-9.49-26.72-1.14-53.43-2.93-80.17-2l-20.77-.5q-50.57,1.75-101.15,3.62c-32.78,2.61-65.62,4.54-98.36,8-6.58.68-8.31,2.77-7.94,8.88.47,7.75,0,15.55.28,23.32.16,3.89-.64,5.54-5,5.51q-40.83-.24-81.66,0c-4.32,0-5-1.51-4.81-5.58a136.61,136.61,0,0,0-.73-20.92,29.5,29.5,0,0,0-1-6.43c-1-4.12-73.23-3.11-73.23-3.11-5.72,0-10.56-.75-15.82-4.23-7.44-4.91-16.36-7.59-24.74-11-1.58-.64-3.83-3-5.31,0-1.11,2.25.36,4.06,2.28,5.13,3.37,1.91,6.85,3.62,10.31,5.39,2.41,1.2,4.86,2.34,8.23,4-25.7,3.4-47.3-9.35-52.87-31.17,4.86,3.24,9,6,13.17,8.81,2,1.37,4.53,2.89,6.17.64,1.27-1.76-.49-4.06-2.44-5.07-21.64-11.17-28.66-32.11-36-53L366.91,512.35C359,495,353.85,477.28,354.26,457.73c.78-37.92.14-75.86.37-113.79.16-25.36,14.26-42.74,39-48.11q55.4-12,110.92-23.43c6.36-1.3,9.23-3.45,7.52-10.14L501.5,199.68c-.55-3.16-.5-5.17,3.62-5.9,27.57-4.84,55.07-10,82.61-15,2.87-.52,4.87-.21,5.39,3.54l10.54,64.33c-.15,7.69,3.73,7.94,9.93,6.92,64.09-10.5,128.83-15.16,193.53-19.9,47.67-3.5,95.41-5.89,143.21-6.81l16.76.08c32.47.76,64.92,1.65,97.33,3.84,35.23,2.35,70.48,4.45,105.66,7.32,27.93,2.27,55.79,5.35,83.64,8.45,18.28,2,36.51,4.59,54.72,7.21,4.68.69,6.63-.4,7.07-5.3l10.83-67.09c.54-3.78,3.09-2.95,5.21-2.56,27.52,5,55,10.15,82.58,15,4.06.7,4.4,2.41,3.83,5.69l-8.1,48.82c-4.37,22.64-4.26,22.31,18.44,27,33.7,6.95,67.36,14,100.87,21.8,21.89,5.07,35.47,22.7,35.56,45.09.2,42.08.08,84.18.06,126.27a65.39,65.39,0,0,1-4.2,22.8L1444.82,805.41a242.43,242.43,0,0,1-12.93,34.89c-4,8.45-12.37,13.07-19.49,18.66-1.82,1.45-3.74,2.78-5.55,4.26-1.34,1.11-1.89,2.82-.92,4.16s3,.86,4.26.07c4.72-3.08,9.33-6.35,14.35-9.82-3.1,20.82-27.71,35.12-51.49,31.46,5-4.17,10.78-5.57,15.73-8.48,2.34-1.37,6.08-2.71,4.27-6.19s-4.6-.42-6.58.59c-9.19,4.72-19.63,6.76-28,13.17-2,1.52-4.46,1.27-6.78,1.2Zm463.44-172.27c-.81,11.41-8.91,18.94-20.57,19.16-22.54.42-45.09.31-67.63.34q-49.76.07-99.53,0c-11.55,0-22.8.9-32.1,8.91-11.85,14-14.9,32-21.89,48.22-2,4.7-3.76,9.51-5.63,14.27-3.9,10.7-7.74,21.4-11.72,32.07-5.5,14.7-11.1,29.38-16.66,44.07-.7,1.87-.75,4.18-3.26,4.83-4.62,26.29-18.16,41.22-40,45.92-7,1.5-12.66.61-17.31-5.38-7.35-9.49-17-13.25-29.24-12.77-19.95.78-40,.16-59.94.38-5.34.05-9.16-1.36-12.64-5.77-7.71-9.8-8-9.58-23.29-16,8.73,0,17.66-1.12,26.15.33a75.14,75.14,0,0,0,23.1.88c15-2,30-1.84,45.08-1.52,13.54.28,26.26-2,37.7-9.7,14.86-10.67,19.22-27.45,25.26-43.28,1.42-3.73,1.53-9.4,8.25-7.65a1.58,1.58,0,0,0,1.31-.65c5.76-9.63,15-17.26,16.87-29.13-4.39-1.27-5.93,2-7.82,4.8-3.56,5.31-7.15,10.58-10.72,15.87-.59-.34-1.2-.67-1.81-1q10.49-28,20.94-56.09l1.45.09c.61,6.79,1.17,13.58,1.92,20.35.14,1.36-.16,3.42,1.9,3.74,1.86.3,2.81-1.21,3.36-2.65,3.34-8.7,6.64-17.41,9.8-26.18.76-2.12,1.74-5.19-1.36-5.93-2.62-.62-3.87,2.19-4.6,4.43-.92,2.84-1.44,5.84-4.87,8.52-2.94-28.36,11.36-51.1,19.69-75.39,4.51-17.18,11.84-33.36,17.88-50,18.64-51.33,37.73-102.49,56.5-153.79a59.87,59.87,0,0,0,3.65-20.6c0-43.64.28-87.28.11-130.92-.1-24-15.92-43.83-39.57-49.6-17.12-4.18-34.41-7.68-51.69-11.11-5.17-1-8-2.81-6.9-8.56a17.52,17.52,0,0,0,.08-6.21c-1.14-7.21.7-10.86,8.8-8.35,1.75.55,4.41,1.59,4.93-1.67.44-2.79-2.06-3.51-4-4-9-2.27-18.13-4.33-27.22-6.42-1.91-.43-3.88-.09-4.43,2s1,3.29,2.92,3.9a9.47,9.47,0,0,1,1.44.59c3.85,1.77,10.26.1,11.53,4.42,1.6,5.52.59,11.81.61,17.77,0,2.93-1.88,3.32-4.26,2.81-15.45-3.32-30.88-6.74-46.37-9.85-3.17-.62-3.86-2-3.31-4.71.25-1.26.61-2.51.87-3.79,1-4.81.38-11.23,3.28-14,3.15-3,9,1.08,13.78,1.5,2.18.19,5.74,2.25,6.36-1.71.52-3.25-2.54-3.83-5.21-4.48-14.43-3.54-14.09-3.54-12-18.77.75-5.38,2-6.32,7.16-4.82,17.16,5,34.61,8.94,51.69,14.15,15,4.6,30,7.32,45.84,6.8,20.25-.67,40.54-.05,60.8-.31,4.84-.06,7.49.78,6.53,6.24a11.81,11.81,0,0,0,0,3.89c1.15,6.64-1.07,8.84-8.24,8.7-27.28-.48-54.55-.25-81.84-.17-2.29,0-5.77-1.54-6.54,2.17-.71,3.48,2.66,3.87,5,4.84,8.92,3.72,18.59,4.52,27.83,7,1.34.36,3.75.22,4.32-.61,2.17-3.12-2.54-4.42-2.56-7.23,19.62,0,39.06-.29,58.48.16,7.29.17,10.13-1.75,9.94-9.49-.37-15.38,0-15.38,15.82-15.38q51.07,0,102.12,0c17.71,0,25.65,8.17,26.46,26.21,1.61,35.49-1.89,70.47-9.41,105.14-1.59,7.34-2.59,14.81-4.1,22.17-2.25,11-6.44,14.44-17.54,14.58-7.78.09-15.58,0-23.37.11-2,0-4.54-.27-4.31,3,.22,2.76,2.75,2.36,4.22,2.17,7.66-1,8.8,1.43,4.66,7.64-1.81,2.7-1.12,6.06-1.14,9.16q-.3,44.4-.56,88.8a32,32,0,0,1,0,11.12q.09,13.15.17,26.32c-.22,4.53,4.65,9.08,3,12.2s-7.68.58-11.71,1.36c-1.63.31-3.07.89-3,2.86,0,2.82,2.34,2.34,4,2.35,10.64.13,21.27.22,31.89,1.33,6.76.7,11.49,3.76,12.76,10.42,5.61,29.49,13.34,58.62,14.44,88.83a40.87,40.87,0,0,1-.53,5.36C1744.17,691,1743.58,704.45,1742.63,717.85Z"/><path class="cls-2" d="M1564.79,468.49a65.39,65.39,0,0,1-4.2,22.8L1444.82,805.41a242.43,242.43,0,0,1-12.93,34.89c-4,8.45-12.37,13.07-19.49,18.66-1.82,1.45-3.74,2.78-5.55,4.26-1.34,1.11-1.89,2.82-.92,4.16s3,.86,4.26.07c4.72-3.08,9.33-6.35,14.35-9.82-3.1,20.82-27.71,35.12-51.49,31.46,5-4.17,10.78-5.57,15.73-8.48,2.34-1.37,6.08-2.71,4.27-6.19s-4.6-.42-6.58.59c-9.19,4.72-19.63,6.76-28,13.17-2,1.52-4.46,1.27-6.78,1.2l-72.49.74s-5.62,3.77-6.31,10.17a84.63,84.63,0,0,0-.57,19.35c.43,5.24-1.53,5.93-6,5.89-26.41-.15-52.83-.23-79.23.05-5.21.06-6.57-1.42-6.27-6.49.53-9.28.34-18.61.45-27.93-1.11-2.62-3.43-2.73-5.82-3-42.86-4.4-85.83-7.66-128.87-9.49-26.72-1.14-53.43-2.93-80.17-2l-20.77-.5q-50.57,1.75-101.15,3.62c-32.78,2.61-65.62,4.54-98.36,8-6.58.68-8.31,2.77-7.94,8.88.47,7.75,0,15.55.28,23.32.16,3.89-.64,5.54-5,5.51q-40.83-.24-81.66,0c-4.32,0-5-1.51-4.81-5.58a136.61,136.61,0,0,0-.73-20.92,29.5,29.5,0,0,0-1-6.43c-1-4.12-73.23-3.11-73.23-3.11-5.72,0-10.56-.75-15.82-4.23-7.44-4.91-16.36-7.59-24.74-11-1.58-.64-3.83-3-5.31,0-1.11,2.25.36,4.06,2.28,5.13,3.37,1.91,6.85,3.62,10.31,5.39,2.41,1.2,4.86,2.34,8.23,4-25.7,3.4-47.3-9.35-52.87-31.17,4.86,3.24,9,6,13.17,8.81,2,1.37,4.53,2.89,6.17.64,1.27-1.76-.49-4.06-2.44-5.07-21.64-11.17-28.66-32.11-36-53L366.91,512.35C359,495,353.85,477.28,354.26,457.73c.78-37.92.14-75.86.37-113.79.16-25.36,14.26-42.74,39-48.11q55.4-12,110.92-23.43c6.36-1.3,9.23-3.45,7.52-10.14L501.5,199.68c-.55-3.16-.5-5.17,3.62-5.9,27.57-4.84,55.07-10,82.61-15,2.87-.52,4.87-.21,5.39,3.54l10.54,64.33c-.15,7.69,3.73,7.94,9.93,6.92,64.09-10.5,128.83-15.16,193.53-19.9,47.67-3.5,95.41-5.89,143.21-6.81l16.76.08c32.47.76,64.92,1.65,97.33,3.84,35.23,2.35,70.48,4.45,105.66,7.32,27.93,2.27,55.79,5.35,83.64,8.45,18.28,2,36.51,4.59,54.72,7.21,4.68.69,6.63-.4,7.07-5.3l10.83-67.09c.54-3.78,3.09-2.95,5.21-2.56,27.52,5,55,10.15,82.58,15,4.06.7,4.4,2.41,3.83,5.69l-8.1,48.82c-4.37,22.64-4.26,22.31,18.44,27,33.7,6.95,67.36,14,100.87,21.8,21.89,5.07,35.47,22.7,35.56,45.09C1564.93,384.3,1564.81,426.4,1564.79,468.49Z"/><path class="cls-1" d="M319.58,512.11c-8.25,3-16.8,1-25.21,1.48-5.38.32-10.79.28-16.18.4-8-.15-16.06-.48-24.08-.38-4.36.06-6-1.66-6-5.92.2-12.69.39-25.39.21-38.08-.06-4,1.8-5,5-5,20.21,0,40.43.09,60.64,0,5.17,0,6,3.29,6,7.11C320,485.18,319.74,498.65,319.58,512.11Zm-30.17-41.27V471c-7,0-14,.13-21-.06-3.39-.09-4.47,1.13-4.42,4.48.12,9.33.08,18.67-.19,28-.11,3.62,1.37,4.29,4.58,4.26q20.63-.26,41.26-.07c3.43,0,4.45-1.16,4.39-4.53-.18-9.33-.14-18.68.07-28,.07-3.41-1-4.45-4.46-4.31C302.9,471,296.15,470.84,289.41,470.84Zm-31.52,18.48h0c0-4.93.05-9.86,0-14.79,0-1.4.57-3.46-1.6-3.75-2.51-.34-2.86,1.59-2.86,3.54q0,15.18,0,30.36c0,1.61.37,3.51,2.24,3.52,2.71,0,2.17-2.38,2.19-4.09C257.92,499.18,257.89,494.25,257.89,489.32Z"/><path class="cls-1" d="M416.89,696.65a10.92,10.92,0,0,1-1.5,2.74c-1.08,1-2.38.68-3.56,0-2.71-1.65-12.93-29.61-11.68-32.25,1.12-2.35,3.35-3.31,4.5-.65C409,676.38,412.82,686.5,416.89,696.65Z"/><path class="cls-1" d="M382.12,624.1c.39-2.73,0-4.6,1.65-5.31,2.17-.91,3.56.72,4.19,2.4,3.42,9.15,6.71,18.35,10,27.57.52,1.49.45,3.17-1.55,3.73s-3.7,0-4.45-2C388.46,641.37,385.11,632.21,382.12,624.1Z"/><path class="cls-1" d="M345.62,512.3c-5.52,4.47-5.29-2.29-7.68-3.93-2.55-7.78-5.13-15.55-7.62-23.35-.7-2.18-1.6-5,1.23-6,2.17-.72,3.49,1.8,4.3,3.63C340.07,492.23,344.28,501.8,345.62,512.3Z"/><path class="cls-1" d="M297.93,384.88a4.16,4.16,0,0,1,3.6,3.48,171.86,171.86,0,0,0,8.82,25.43c.66,1.56,1.4,3.8-.55,4.86s-3.94.09-5.1-2a92.12,92.12,0,0,1-9.29-27.56A3.31,3.31,0,0,1,297.93,384.88Z"/><path class="cls-1" d="M419.84,712.81c2,.45,2.72,1.88,3.32,3.3,3.41,8.11,6.81,16.22,10.14,24.36.89,2.18,1.75,4.68-1,6.11-3.19,1.64-4.06-1.09-4.83-3.21-3.06-8.5-6.07-17-8.94-25.59C417.88,716,417.07,713.68,419.84,712.81Z"/><path class="cls-1" d="M327.69,297.8a5.38,5.38,0,0,1-.83,1.42c-5.36,7.28-10.72,14.55-16.16,21.77-1.05,1.39-2.34,3.31-4.39,2s-1-3.27-.32-4.91a63.93,63.93,0,0,1,16.85-22.86,4.51,4.51,0,0,1,4.26-1.28C328.2,294.25,328.41,295.37,327.69,297.8Z"/><path class="cls-1" d="M328,462.09c-.05,2.25-.13,3.31-1.33,3.68a2.45,2.45,0,0,1-3.2-1.32,196,196,0,0,1-11.9-29.27,3,3,0,0,1,2-3.73,2.39,2.39,0,0,1,3.16,1.46C320.69,443,324.55,453.05,328,462.09Z"/><path class="cls-1" d="M368,268.78c1.69.4,3.67-.58,4.1,1.68a3,3,0,0,1-2.2,3.6A194.74,194.74,0,0,0,342.3,286c-1.08.56-2.71.9-3.3-.65s.13-3,1.46-4.05A64.86,64.86,0,0,1,368,268.78Z"/><path class="cls-1" d="M303.25,341.49a219.34,219.34,0,0,0-4,26c-.14,1.44-.69,3.08-2.76,3.09-2.56,0-2.75-1.78-2.84-3.67a83.55,83.55,0,0,1,3.83-28.14c.48-1.62,1.44-3.62,3.76-3.07S303.55,338.21,303.25,341.49Z"/><path class="cls-1" d="M235.92,485c0-4.64,0-9.27,0-13.9,0-1.16-.24-2.83,1.44-3.08a2.57,2.57,0,0,1,3.09,2.61c.18,10.28.23,20.58.27,30.87a2.48,2.48,0,0,1-2.3,2.63c-1.93.16-2.73-1.24-2.75-2.93-.07-5.4,0-10.8,0-16.2Z"/><path class="cls-1" d="M240.79,536.82c0,4.64.08,9.29,0,13.93-.05,2-.43,4.6-3,4.54-2.17,0-2.29-2.57-2.28-4.27.05-9.8.22-19.61.45-29.42,0-1.11-.38-2.79,1.49-3a2.64,2.64,0,0,1,3,2.76c.17,5.15.07,10.31.07,15.47Z"/><path class="cls-1" d="M240.79,436.63c0,4.91,0,9.83,0,14.74,0,1.63-.49,3.07-2.54,3.15s-2.55-1.51-2.55-3.07q0-15.09.24-30.18a2.51,2.51,0,0,1,2.91-2.77c2.19.14,2.08,1.89,2.09,3.39,0,4.92,0,9.83,0,14.74Z"/><path class="cls-1" d="M1671.46,504.32c.57,7.68-2.9,9.85-10.49,9.57-17.12-.63-34.27-.19-51.41-.26-3.33,0-6.79.46-9.84-1.51-.14-13.46-.31-26.92-.39-40.39,0-4,1.13-7.5,6-7.26,21.74,1.1,43.53-1.37,65.24,1.17.23,1.07.47,2.14.7,3.21Zm-41.11,3.28v-.09c6.76,0,13.52-.17,20.26.07,3.82.14,4.89-1.3,4.82-5-.19-9.08-.1-18.18.1-27.26.07-3.33-1-4.45-4.42-4.41q-20.27.22-40.52-.13c-4.15-.07-5.29,1.52-5.19,5.49.22,8.82.16,17.66-.13,26.48-.12,3.76,1.1,5,4.83,4.89C1616.84,507.44,1623.6,507.6,1630.35,507.6Zm35.49-18.94h0c0-4.93,0-9.86,0-14.78,0-1.78-.93-3.05-2.76-2.92s-1.56,1.8-1.57,3q-.15,15.18-.19,30.34c0,1.5-.14,3.32,2.19,3.22,2.09-.1,2.34-1.71,2.35-3.32C1665.86,499,1665.84,493.85,1665.84,488.66Z"/><path class="cls-1" d="M1506.67,700.2l-2.08.49c-1.77-2.86-2.42-5.09-.46-8.83,3.86-7.35,6.24-15.48,9.29-23.27.74-1.89,1.44-4.4,4.18-3.34,2.43.93,2.25,3.68,1.49,5.39C1514.75,680.42,1513.86,691.64,1506.67,700.2Z"/><path class="cls-1" d="M1580.25,510.77l-3.06,3.42c-3.33-.22-3.68-2.6-3.13-5a105.13,105.13,0,0,1,10.13-27.52c.8-1.44,1.8-3.67,4-2.76s1.57,3.26,1.07,4.81C1586.4,492.79,1583.29,501.77,1580.25,510.77Z"/><path class="cls-1" d="M1614.31,321.27a5.75,5.75,0,0,1-1.44,1.75,2.53,2.53,0,0,1-3.4-.94c-6-8.06-12-16.09-17.76-24.34-1.3-1.87-.86-4.22,2.5-3.72C1598.83,294.71,1614.67,315.65,1614.31,321.27Z"/><path class="cls-1" d="M1537,622.58c-1.81,9.51-6,18.64-9.69,27.93-.85,2.1-2.51,2.53-4.42,1.87s-1.73-2.39-1.26-3.88c2.91-9.06,5.52-18.23,9.7-26.82.77-1.56,1.77-3.43,3.92-3.22C1537.58,618.68,1536.59,620.76,1537,622.58Z"/><path class="cls-1" d="M1623.87,389.85c-2,9.23-4.59,18.17-9.15,26.43-1.13,2-2.76,3.45-5,2.47s-1-3.19-.54-4.75c2.74-8.35,5.65-16.65,8.43-25,.7-2.09,1.63-4.24,4-4C1624.59,385.27,1623.74,388,1623.87,389.85Z"/><path class="cls-1" d="M1607.92,435.23c-3.62,9.64-7.2,19.83-12.58,29.27a2.43,2.43,0,0,1-3.3,1.12c-.54-.31-.81-1.94-.53-2.73,3.46-9.71,7.07-19.38,10.58-29.07.6-1.66,1.56-2.7,3.37-2.58C1607.59,431.37,1607.57,433.13,1607.92,435.23Z"/><path class="cls-1" d="M1539.44,601c3.12-8.28,6.41-17.19,9.89-26,.58-1.46,1.41-3.83,3.83-2.53a3.83,3.83,0,0,1,1.56,4.79c-2,5.57-4.1,11.08-6.28,16.57-1.23,3.11-2.62,6.17-4,9.19-.75,1.59-1.5,3.68-3.84,2.84C1538.53,605.14,1539.72,603.23,1539.44,601Z"/><path class="cls-1" d="M1570.85,525.15l.81,2.79c-1.74,9.73-6.1,18.61-9.09,27.94-.78,2.44-2.25,4.35-5,3.62-3.1-.8-1.92-3.54-1.23-5.14C1560.65,544.38,1562.29,533,1570.85,525.15Z"/><path class="cls-1" d="M1552.22,269a70,70,0,0,1,26.12,11.69c1.6,1.18,2.77,2.9,1.9,4.65-1.12,2.27-3.15.92-4.68.17-8.13-4-16.22-8-24.9-10.77-1.67-.53-3.64-1.38-3.35-3.68C1547.64,268.34,1549.88,269.11,1552.22,269Z"/><path class="cls-1" d="M1625.7,362.15c0,1.55.09,3.1,0,4.65-.12,1.72.19,3.8-2.56,3.82a2.88,2.88,0,0,1-3.17-2.75c-.3-9.59-2.76-18.85-4-28.3-.24-1.89.22-3.72,2.69-3.85s3,1.94,3.41,3.55A92.73,92.73,0,0,1,1625.7,362.15Z"/><path class="cls-1" d="M1678.44,436.18c0-4.91,0-9.82,0-14.73,0-1.27-.06-2.67,1.74-2.84s3.14.39,3.31,2.33a166.71,166.71,0,0,1,0,31.67,2.09,2.09,0,0,1-2.78,1.88c-1.78-.42-2.25-1.93-2.25-3.59Q1678.44,443.54,1678.44,436.18Z"/><path class="cls-1" d="M1678.55,485.7c0-4.66,0-9.31,0-14,0-1.93.38-3.8,2.88-3.62,2.08.15,2.17,2,2.18,3.49q.12,14.36.1,28.7c0,1.9-.42,3.95-2.9,3.59-2.2-.32-2.37-2.28-2.34-4.22.06-4.65,0-9.31,0-14Z"/><path class="cls-1" d="M1683.26,518.52c.46,2.09.93,4.17,1.39,6.26q-.27,13.94-.56,27.89c-2,2.63-5,3.51-5.29-.44-.67-10.8-1-21.67.47-32.46.09-.65,1.6-1.09,2.45-1.63Z"/><path class="cls-1" d="M894.38,197.39c-4.13,0-8.26,0-12.39,0-1.77,0-3.86.38-4-2.33-.08-1.74.86-3.24,2.54-3.39,10.55-.9,21.11-1.76,31.7-.64a2,2,0,0,1,1.85,2.72,3.23,3.23,0,0,1-3.45,2.51c-5.42.07-10.84,0-16.26,0Z"/><path class="cls-1" d="M707.57,202.55c2,.23,5.25-1.24,5.86,2.61.67,4.22-2.93,3.49-5.18,3.72-8.2.83-16.41,1.46-24.63,2.06-2,.15-4.36.3-4.74-2.6-.46-3.57,2.17-3.34,4.5-3.55C691.33,204.08,699.28,203.32,707.57,202.55Z"/><path class="cls-1" d="M1024,196.94c-4.89-.25-9.78-.45-14.66-.77-2.08-.14-4.47-.47-4.32-3.26.14-2.63,2.64-2.09,4.24-2.08,9,0,18,.25,27,.41,2.51,0,4.77.54,4.67,3.74-.11,3.42-2.84,2.24-4.61,2.3-4.11.16-8.23.05-12.35.05Z"/><path class="cls-1" d="M1236.33,211c-9.87-.87-18.12-1.58-26.36-2.32-2-.18-4.42-.06-4.28-3.13.16-3.44,2.84-3.32,5.12-3.12,8.25.74,16.49,1.63,24.72,2.53,2.06.22,5.09-.92,4.9,3C1240.22,212.18,1237.1,211,1236.33,211Z"/><path class="cls-1" d="M734.34,206.6c-3.43.23-6,.55-6.25-2.2-.29-2.94,2-3.76,4.62-4,9-.71,18-1.4,27-2.27,1.88-.18,3.88-.8,4.41,1.59s-1,3.78-3.45,4Z"/><path class="cls-1" d="M655.14,208.06c3.12,1.65,9.26-2.43,9.27,3.5,0,5-5.7,2.58-8.94,3-7.15.9-14.34,1.54-21.52,2.25-2,.2-4.41,1-4.9-2.06-.45-2.78,1.71-3.49,3.83-3.78C640.28,209.94,647.69,209,655.14,208.06Z"/><path class="cls-1" d="M846.27,192.44c4.14-.2,8.28-.5,12.42-.57,2,0,4.39-.19,4.37,3,0,2.65-2,2.51-3.81,2.78a164.18,164.18,0,0,1-27.94,1.43c-1.64,0-4,.68-4.32-1.95-.31-3.06,2-4,4.51-4.07,4.92-.12,9.84,0,14.77,0Z"/><path class="cls-1" d="M1078.39,199.24l-18.26-1.62c-1.78-.15-3.93,0-4-2.57-.06-2.8,2-3.39,4.25-3.29,9.32.43,18.63.9,27.94,1.46,2.22.13,4.18,1.06,3.91,3.77s-2.49,2.18-4.2,2.23C1085,199.31,1081.84,199.24,1078.39,199.24Z"/><path class="cls-1" d="M1264,208c7.16,1,14.33,1.89,21.48,2.93,2.19.31,5.24.14,4.65,3.65-.67,4.1-3.69,2.28-6.1,2-7.71-.77-15.43-1.43-23.15-2.12-2.71-.24-6.56.59-6.29-3.63.24-3.79,3.95-2.18,6.27-2.52a21.36,21.36,0,0,1,3.1,0C1264,208.23,1264,208.12,1264,208Z"/><path class="cls-1" d="M1167,198.61c6.42.62,12.83,1.28,19.25,1.82,2.47.21,4.83.42,4.67,3.71-.2,3.94-3.37,2.56-5.25,2.41-8.73-.7-17.44-1.7-26.15-2.63-2.35-.25-5.23-.57-4.7-3.71.44-2.65,3.28-1.82,5.2-1.82,2.32,0,4.64.28,7,.44Z"/><path class="cls-1" d="M349,525.21c6.84,9.29,11,19.68,14.52,30.34.48,1.45.58,3.11-1.39,3.86-1.63.61-3.59.42-4.13-1C353.92,547.68,348.77,537.18,349,525.21Z"/><path class="cls-1" d="M379.82,600.66c.27,3.15.6,4.58-1,5.16-1.8.67-3.07-.34-3.71-1.87-3.63-8.82-7.27-17.65-10.69-26.56a3.72,3.72,0,0,1,2.39-5c2.3-.67,2.87,1.61,3.5,3.25C373.73,584.5,377.09,593.43,379.82,600.66Z"/><path class="cls-1" d="M1500.09,710.18c2.36,7.16-.41,11.51-1.81,15.9-2,6.11-4.5,12-6.83,18-.71,1.8-2,3.27-4,3a2.63,2.63,0,0,1-2.09-3.54C1488.74,732.41,1492.9,721.63,1500.09,710.18Z"/><rect class="cls-2" x="1919" y="1079" width="1" height="1"/><rect class="cls-2" width="1" height="1"/><rect class="cls-2" y="1079" width="1" height="1"/><rect class="cls-2" x="1919" width="1" height="1"/></g><g id="Capa_3" data-name="Capa 3"><path d="M834.93,481.87v111H815.11V522.15L795.6,537.06l-16.18,12.53-16.18-12.53-19.51-14.91V592.9H723.9v-111l19.83,15.22,35.69,27.44,35.69-27.44Z"/><path d="M952.78,537.54a32.75,32.75,0,0,1-23.48,55.51H883.78a32.58,32.58,0,0,1-30.14-20,34.5,34.5,0,0,1-2.53-12.85,32.67,32.67,0,0,1,9.2-22.84,30.92,30.92,0,0,1-6.82-10A34.31,34.31,0,0,1,851,514.54a32.19,32.19,0,0,1,32-32.83h46.47a32.87,32.87,0,0,1,23,55.67Zm-24.27-9.68A12.94,12.94,0,0,0,929,502h-46.8a12.93,12.93,0,0,0,.32,25.85h46Zm.16,45.53a13.07,13.07,0,0,0,13-13,12.93,12.93,0,0,0-12.22-13H883a12.89,12.89,0,0,0-12.22,12.85,13.07,13.07,0,0,0,13,13H929.3Z"/><path d="M1088.23,573.39v19.82H977.52V560.54a31.69,31.69,0,0,1,2.69-12.85,32.56,32.56,0,0,1,28.87-20h48.06a13,13,0,0,0-1.11-25.86h-78.2V482H1056a32.64,32.64,0,0,1,32.68,32.68,32.4,32.4,0,0,1-9.36,22.68,32.89,32.89,0,0,1-22.37,10h-47.9a12.92,12.92,0,0,0-11.58,12.85v12.85Z"/><path d="M1192.43,501.53a34.51,34.51,0,0,1,3.65,15.55v75.66h-19.83V515.17a15.81,15.81,0,0,0-13.48-13.48h-58.21V481.87h56.31a34.43,34.43,0,0,1,15.54,3.64,35.17,35.17,0,0,1,16,16.18Z"/></g></g></svg>