<svg xmlns="http://www.w3.org/2000/svg" viewBox="0 0 1920 1080"><defs><style>.cls-1{fill:#010101;}.cls-2{fill:#f2f2f2;}</style></defs><g id="Capa_2" data-name="Capa 2"><g id="Capa_1-2" data-name="Capa 1"><path class="cls-1" d="M1737.15,636.44c-6.28,1.6-9.7-.44-9.87-6.86-.53-18.14-.77-36.28.16-54.42-.1-4-.48-8.09-.23-12.11.49-7.92,3.62-9.59,11.39-7.38,5.14,1.46,9.93,7,15.9,2a136,136,0,0,0,1.38-26.79c-.8-13.79-9.4-16.93-9.4-16.93-5.75-3.44-12-4.6-18.66-4.54-19.38.17-38.77,0-58.15.07-6,0-11.26-1.09-14-6.93-2.84-6,.33-10.71,4.11-15.07s6.85-8.8,6.85-14.79c0-27.86.25-55.72-.09-83.57-.11-10.4-7.9-16.64-18.31-17.66-5.85-.57-11.79-1.22-17.53-3.81q-57.33-25.8-115-50.78c-8.52-3.67-16.92-9.72-27.15-6.19-9.06,3.13-17.38.76-25.91-2.3a1303.84,1303.84,0,0,0-186.66-51.66c-12-2.38-24.36-3.67-33.56-13.37-2.64-2.79-6.74-3.64-10.64-4.2-15-2.17-29.9-4.49-44.86-6.58-19-2.67-38-5.42-57-7.66-22.23-2.62-44.51-4.82-66.82-7-7.94-.77-16.68-1.36-22.14,5.44-6.21,7.73-13.49,9.93-22.74,8.91a80.78,80.78,0,0,0-12.34.13c-3.15.16-5.13-.27-4.56-4.28.55-3.81-1.83-4.9-5.36-4.87l-73.1,0c-2.65,0-4.9.11-6.35,3.11-2.39,5-6.54,6.72-12.16,5.92a54.94,54.94,0,0,0-11.61,0c-5.26.34-9.25-1.14-12.44-5.7-4.29-6.15-10.59-8.66-18.16-8.64L736.14,232c-16.29,2.35-32.55,4.85-48.86,7.15-3.94.56-8,1.47-10.59,4.27-8.64,9.3-20.33,10.65-31.65,12.88A1363.73,1363.73,0,0,0,449.5,310.57c-4.75,1.7-9.59,2.75-14.18,1-8.94-3.46-17.05-1.46-25.24,2.18-39.15,17.36-78.35,34.58-117.45,52a57.73,57.73,0,0,1-20.11,5.31c-13.77.9-20,7.83-20.12,21.5-.13,25.7,0,51.39-.13,77.09,0,6.95,2.46,12.62,6.93,17.76,3.73,4.26,7.05,8.83,4.27,15.05-2.91,6.51-8.63,7-14.66,7q-26.91,0-53.82,0c-14.94,0-14.94.07-27.18,7.48-5,3-3.73,33.91-3.73,33.91,0,8.92,2.32,10.29,10.6,7.07,2.26-.87,4.44-2,6.76-2.6,6.62-1.9,10,.24,10,7.13q.3,33.45,0,66.91c-.06,6.58-3.84,8.88-10.34,7-3.24-.93-6.41-2.13-9.6-3.23-4.17-1.44-6.66-.22-6.87,4.38-.27,5.56-.62,11.12-.59,16.7.06,16,5.87,23,21.42,25.94,22-.05,44-.15,66-.1,10.7,0,16.33,7.84,9.88,16.4-12.14,16.16-8.8,34-8.79,51.52,0,13.74,10.44,23.42,24,23.74,5.55.15,11.1.25,16.64.37l72.73,0c22.76-.12,45.5-.15,68.25-.39,3.9-.05,5.27,1.55,5.08,5.11-.67,12.68,6.75,20.29,16.09,27.34,22.4,16.9,44.43,34.28,66.6,51.5a9.93,9.93,0,0,1,1.31,1.48,37.71,37.71,0,0,0,18.47,5c8.81.13,14.63-4.17,19.19-10.94,2.43-3.61,5.33-6.16,9.88-6.5,3.29-.24,6.47-.87,6.32,4.2-.12,3.55,2.77,3.46,5.18,3.46q37.47-.11,74.92-.3c1.58,0,4.1.48,3.94-1.91-.45-7,4.33-5.39,8.23-5.39,67.17,0,134.32-.07,201.47.15,10.65,0,18.45-3.67,22.79-13.38,3.56-8,9.33-10.58,17.89-10.21l106.2,1.12c2,0,2.81,1.23,3.18,3a38.13,38.13,0,0,1,3,4.57c5.54,11.63,14.61,16.32,27.41,15,5.68-.6,11.49.12,17.25.25a5.36,5.36,0,0,1,1.38-.38q91.76.06,183.52.17c6.18-.72,3.08,4.31,4.16,6.74l79.79.35c1.67,0,3.52.22,4.21-1.9.71-2.29-.5-5.87,3.8-5.67s8.54.67,11.4,5c4.06,6.07,8.64,11.4,16.72,12.73,9.62,1.55,17.43-1.49,24.81-7.33,19.33-15.3,38.81-30.39,58.26-45.55,2.08-1.63,4.32-3,6.48-4.57,2.91-2.53,5.89-5,8.73-7.6,4.88-4.45,8-9.79,7.05-16.64-1-7.1,1.89-8.8,8.77-8.77,51.12.27,102.24.19,153.35.08,13.94,0,25.15-8.92,25.32-21.73.23-18,4.21-36.45-8.41-53.11-6.63-8.75-1-16.88,10-16.91,19.85-.06,39.73-.25,59.58,0s29.16-9.33,27.57-30.57C1753.77,632.27,1753.45,632.29,1737.15,636.44ZM1041.56,240.31c5.31-4.63,8.35-13.47,15-11.83,27.76,3,52.58,5.31,77.31,8.42,30.23,3.82,60.39,8.3,90.58,12.45,6.12.84,11.62,2.52,16.09,7.32a24.8,24.8,0,0,0,14,7.24A1375.37,1375.37,0,0,1,1429.84,309c12.15,4,24.26,8.14,36.27,12.57,6.58,2.41,13,3.56,19.79,1.18,6.24-2.2,12.1-1.42,18.18,1.31,39.09,17.41,78.28,34.6,117.42,51.86,2.35,1,5.33,11.27,3.83,13.27-1.75,2.35-3.54.45-5.06-.29-39.32-19.24-79.93-35.39-120.92-50.58A1687,1687,0,0,0,1248.74,267a1205,1205,0,0,0-169-22.05c-11.85-.71-23.7-1.31-35.55-1.91C1042.2,243,1039.11,242.45,1041.56,240.31ZM300.84,374.37c38-16.29,75.77-33.15,113.53-50,5.74-2.57,11.44-4.41,17.4-1.94,7.32,3,14.21,1.63,21.15-.89,68.74-25,139.14-43.8,210.94-57.56,4.4-.84,8.91-2.14,11.75-5.28,7-7.75,16.16-9.06,25.55-10.35,48.9-6.76,97.72-14.1,147-18a15.85,15.85,0,0,0,3.59-.49c12.27-3.79,20.16,2,26.83,12.77-31.88,1.34-62.79,3.34-93.6,6.66-42.12,4.56-83.83,11.3-125.33,19.92C554,291.13,451.67,323.52,352.15,364.94c-18.06,7.52-36.13,15.12-53.5,24.22-3.43,1.79-5.14,2-5.3-2.75C293.18,380.51,294.59,377.05,300.84,374.37Zm267.74,459c-2.24-.3-4.67.79-7,1.24l-4.92,3.26a1.15,1.15,0,0,1-.82.64c-11.58,16.22-15.51,16.83-31.18,4.56-12.33-9.67-24.57-19.47-36.84-29.2a336.54,336.54,0,0,1-31.29-24.39c-5.38-2.12-5.21-7-5.57-11.53-1.1-13.55-4.9-17.39-18.43-17.55-21.21-.25-42.44-.27-63.66-.38l-74.2,0c-6.05.06-12.1.29-18.14.1-7.4-.23-11.87-4.09-12.29-11.61-.57-10.15-.31-20.34-.29-30.52,0-3.85,2.39-6.8,4.53-9.71a30.85,30.85,0,0,0,5.94-21.16c-.75-11.56-7.27-18.45-18.93-18.56-21.57-.21-43.15,0-64.72-.08-12.72,0-15.68-3.42-15.46-16.14.07-4.16,1.6-4.62,5.18-4.41,16.29.91,22.59-4.86,22.8-21.34.27-22.77.17-45.55.23-68.32-3.74-11.52-11.27-16.71-22.94-14.71-4.72.8-5.53-.49-5.16-4.52.24-2.41,0-4.84.21-7.24.61-7.18,3.8-10.47,11.11-10.55,20.52-.22,41-.18,61.57-.25,10.37,0,19.6-2.21,25.1-12.39,2.07-3.81,2.26-7.79,2.61-11.85-.89-3.24-1.79-6.51-2.7-9.75-7.8-7.88-10.13-17.24-9.76-28.3.72-21.53.17-43.12.32-64.68,0-9.55,1.47-10.89,10.74-11.69.48,0,1-.06,1.46-.09,11.79-.76,12-.76,12,11,0,8.65,5,4.41,8,3.09,21.45-9.38,42.61-19.49,64.23-28.51a1657.83,1657.83,0,0,1,239.09-79c54.68-13.54,109.78-25.1,165.78-31.65A1407.06,1407.06,0,0,1,913,247.49c2.11,0,4.8-.75,4.48,2.79s1,8.45-4.73,9.09c-4.57.51-9.2.4-13.8.59-1.63.08-3.42-.29-4.45,1.59-3.83,7-7.7,7.21-14.07.89-1.41-1.4-3.18-.83-4.82-.77-6.28.2-12.6.23-18.86.87-3.86.39-9.41-2.29-9.81,5.82-.15,3-6,.89-9.13,1.84-1.89.56-3.44-.31-3.19-2.62.41-4-2.24-3.45-4.67-3.32-8.23.48-16.45,1-24.68,1.44-2.69.14-5.09.7-4.18,4.16.54,2,2.19,4.69-1.57,3.9-3.55-.75-8.18,4.76-10.32-1-1.11-3-2.42-3.76-5-3.84a112.73,112.73,0,0,0-26.69,2.69c-6.84,1.41-.75,4,.41,6.49-4.18,2.35-8.95,1.33-13.16,2.7a1.63,1.63,0,0,1-2.26-1.15c-1-7.69-6.17-4.87-10.46-4.26-6.7,1-13.4,2-20.11,2.92-3.33.42-5.28,1.66-3.33,5.12s0,3.55-2.55,3.76c-3.59.3-7.17.78-11.09,1.22-1.18-2.29,2.65-4.56.55-6.28s-4.58,0-6.93.43c-6.63,1.31-13.33,2.37-19.94,3.77-2,.4-5.69.26-5.49,2.53,1.09,11.62-9.42,5.3-13.8,10.31,2.91-10.53-2.43-8.14-7.47-6.77-6.52,1.77-13.14,3.19-19.71,4.82-1.6.4-4.54.9-4.13,2.27,3.23,10.55-6.5,5.49-9.76,8-1,.76-3.23,2.26-5.28,1.15l-27.62,7.3c-3.3.73-6.66,1.23-9.88,2.24s-6.09,2.93-6.17-2.87c-.05-2.52-2.39-1.75-4-1.38-7.77,1.76-15.57,3.45-23.3,5.43-3.06.78-7.65,1.37-3.43,6.39.35.42.65,1.51.43,1.72-2.3,2.09-5.46,1.7-8.17,2.7-2.52.95-5.55,3.27-6.42-1.87-.47-2.86-2.65-2.45-4.51-1.91-8.37,2.43-16.74,4.82-25,7.5-5.82,1.87-.33,4.95-.48,7.78-3.07.88-6.27,1.64-9.36,2.71-2.47.88-4.42,2.14-4.64-2.24-.22-4.16-3.28-2.44-5.4-1.7-7.31,2.56-14.49,5.51-21.87,7.79-5.78,1.77-4.8,4.12-.8,7.58l-13.77,4.57c-1.19.41-2.66.64-2.85-1-.83-7.05-4.79-3.29-7.79-2.27-5.74,1.92-11.5,3.81-17.06,6.14-3,1.27-8.84.35-5.54,7.6,1.15,2.56-5.12,2.93-7.87,4.51-2.05,1.2-5.26,4.23-5.77-1.73-.23-2.76-2.59-1.47-4-.87-9.73,4.25-21.22,5.3-27.29,16.17-1.66,3-5.91,4.17-9.69,4.06-7.56-.21-25.1,9.67-27.11,16.59-5.5,19-13.7,37.06-12.17,58.05,1.78,24.34.53,48.93.31,73.41-.13,14.87,5,27.31,15.4,37.84q46,46.49,91.8,93.13c1.85,1.87,3.51,4,5.26,5.93,17.79,17.24,35.31,34.75,52.16,52.94,16,16,31.89,32.15,48.17,47.9a41,41,0,0,0,27.73,11.87c7.38.29,14.69,1.56,22.18,1.3,5.11-.17,12.1,8.21,12.35,13.88.2,4.59,0,9.2,0,13.8,0,1,0,2,0,2.93C578,829.17,578,834.65,568.58,833.34Zm688.9-4.19c0,2.91-1,4.3-4.26,4.28q-101.35-.28-202.75-.38a2.48,2.48,0,0,1-.72-.19c-6.58,1.71-11.37-.52-14.07-6.74-5.91-13.55-16.73-16.87-30.6-16.51-22,.6-43.94-.08-65.89-.21-10.16.14-20.31.58-30.46.39-10.71-.19-19,3.51-23.49,13.54-3.55,7.86-9.17,10.1-17.81,10-66.31-.35-132.62-.11-198.93-.16-2.34,0-5.73,1.68-6.79-2.09-1-3.45.83-5.29,4.29-6.13,1.75-.43,1.19-2.35.89-3.76-3.86.15-5.87-1.32-5.49-5.56.31-3.38-.13-6.81.19-10.18.81-8.67,7-14.66,15.74-14.68,32.95-.12,65.91,0,98.86,0h16.52c-5.85,3.06-11.15,3.61-16.38,4.37a12.31,12.31,0,0,1-2.56,1c-2,.36-4,.88-3.89,3.36.16,3.36,3,2.24,4.91,2.5C781.92,800,789,797.76,796.6,798c2.28-1.69,5.44-1.61,6.62-5.51s6.07-2.58,8.24-1.52c8.53,4.18,17,1.34,25.39.57,11.32-1,22.61-.86,33.92-.66l84.72.09c3.22,1.31.34,3.67.93,5.43,0,1.47,0,2.94,0,4.41.13,2.16,1.35,3,3.38,2.54,1.83-.44,2-2.12,1.68-3.48-2.48-9.32,3-9.32,9.85-9.28,32.18.22,64.4.44,96.59-.1,17.12-.29,33.65,2.45,50.16,6.16,11.85,2.14,23.69,4.32,35.55,6.38,2.33.4,5.74,2.41,6.39-1.74.54-3.39-2.74-3.14-5.08-3.61-10.22-2.06-20.38-4.36-31.23-4.7,1.14-2.75,2.74-2.2,4-2.2q54.88-.13,109.77-.16c14.35,0,20,5.93,20,20.38C1257.52,817,1257.45,823.09,1257.48,829.15Zm78.61-24c.42,15.18.42,15-14.69,15.49-3.69.12-10.54-2.11-10.5,2.55,0,5,6.77,2.23,10.38,2.34,14.76.48,14.47.26,14.85,14.89.16,5.62-1.51,6.82-6.91,6.72q-29.78-.52-59.56,0c-5.24.07-6.48-1.47-6.33-6.53.43-14.83.22-14.84,15-14.92,5.08,0,10.16,0,15.24-.07,1.74,0,3.53-.09,3.51-2.56s-2-2.42-3.59-2.42c-7.51,0-15.06-.41-22.51.28-6.46.58-9-1.25-7.57-7.79a32.46,32.46,0,0,0,.37-5.05c-2.36-16.92-9.34-23.12-26.53-23.15-43.61-.06-87.23,0-130.84,0-13.57,0-27.12.11-40.66-1.31-6.93-.73-13.89-1.14-20.88.91-3,.91-7.26,2-9.31-2.82-.92-2.11-3.35-1.62-5.2-1.75-7.27-.48-14.52-1-21.76-1.19-2.73,0-7.88-2-5.55,4.61a1.3,1.3,0,0,1-1.75,1.57c-4.7-1.58-11.27,3.94-14.5-4.76-1-2.81-7.1-4-9.72-7.45-2.74,4-10.77,6.39-14.43,4.35-2.53-1.39-1.54-3.84-1.54-5.85-.06-18.65,0-37.31-.06-56,0-2.41.8-5.14-2.46-8.65-1.81,27,1.38,52.54-2.65,78.08H939.33c.15-3.09,4.12-2.73,4.25-5.52.09-1.92,1-4.16-.91-5.4s-2.58.44-3.73,1.89c-1.48,1.91-4.21,1.94-6.64,2-6,.19-12.11.38-18.15.76-2,.11-4.18,0-5.69,2.31-3.69,5.71-8,6-12.83.61-1.77-2-3.48-1.06-5.24-1.07-3.14,0-6.27.08-9.42.14-28.87,6.65-58.23,4.15-87.4,4.46-37.27.37-74.54,0-111.8,0-16,0-22.26,5-26.27,20.22.6,15,.6,15-14.44,15.4a25.12,25.12,0,0,0-2.88.1c-2,.3-5-.53-4.82,2.77s3.25,1.88,5.17,2.24a9.86,9.86,0,0,0,1.44.05c16.76.48,16.66.48,15.69,17.14-.17,3.16-1.12,4.18-4.2,4.17q-31.89-.07-63.77.13c-3.39,0-4.87-1-4.78-4.48.2-7.23.18-14.46.26-21.7,0-1.32,0-2.63,0-3.94,0-3,0-6,0-9-2-16.31-9.37-23.88-25.76-22.86-20.33,1.25-35.7-5.79-49-21-14.47-16.51-30.55-31.64-45.92-47.37-13.71-7.84-12-20.85-11.28-33.53-1.53-1.66-.5-3.71-.86-5.53s1.16-4.57-1.75-4.65-2.89,2.83-2.94,5c-.08,6.52,0,13,0,19.24L381.82,635.2l-14.47-14.79c-16.87-16.33-33.63-32.8-49.36-50.24-7.09-7.87-10.4-17.25-10.37-27.92q.13-43.26,0-86.55c-.09-26.32,12.49-45,35.61-56,25.75-12.26,52.77-21.53,79.64-31.1,6.15-2.18,12.29-4.35,18.36-6.72,3.66-1.43,4.75-.31,4.54,3.42-.22,4.1,0,8.22,0,12.34,0,1.89.73,3.54,2.65,3.79,2.57.33,2.21-2,2.5-3.53a22.75,22.75,0,0,0,.18-3.62c.37-15.93.36-16,15.12-20.88,75.13-24.88,151.82-43.74,229.43-58.87C751.34,283.69,807.67,278,864.2,274c10.16-.72,20.35-1.93,30.49-1.58,11.44.4,20.73-5.7,31.1-8.43,1.36-.36,2.36-1.84,1.26-2.62-7.86-5.5-2.93-13.33-3.47-19.93-1-12.41-.41-12.66,12.1-12.35,7.16.17,16.39-3.19,20.9,1.42,4.18,4.27.57,13.45,1.49,20.35.81,6.09-1.28,7.6-7.21,7.75-11.76.29-11.74.71-11.8,12.58,0,6.53-.06,13.08,0,19.62,0,2,.18,4.22,3,4,2.47-.23,1.86-2.56,1.89-4.05.19-6.53.7-13.13.07-19.61-.58-6.07,1.62-7.65,7.22-7.16,4.08.35,8.24-.14,12.36-.26,2.17-.07,4-.93,4.09-3.25s-1.92-2.5-3.61-2.34c-3.46.32-3.21-1.82-3-4.14.16-1.92.06-3.87.19-5.8.44-6.21-2.69-14.68,1.47-18,3.93-3.13,12-1.12,18.29-1.15,14.67-.09,14.67,0,14.7,14.48V245c0,4.35,1.59,9.59-.29,12.82-2.27,3.89-8,.89-12.22,1.49-5.41.78-8.29,2.87-8,8.83.27,6.77-.29,13.57-.1,20.36,0,2.27-1.21,6.27,2.88,6.17,3.67-.09,2.11-3.77,2.18-5.81.26-6.54.25-13.09,0-19.62-.13-3.61.54-5.23,4.76-4.82,7.39.7,14.57.54,21.56,4.77s15.57,2.86,23.51,3.26c49.11,2.59,98,7.11,146.66,14.46,97.69,14.75,193,39.23,286.78,70,3.91,1.28,4.94,3,4.9,6.58-.06,4.85.1,9.69.19,14.54,0,1.78.33,3.65,2.64,3.49,1.74-.11,2.14-1.79,2.18-3.29.12-4.1.25-8.24.14-12.34-.08-3.65.28-5.31,4.82-3.68,32.29,11.57,64.8,22.6,96,36.89,24.48,11.2,37.5,30.38,37.38,57.82-.12,28.12-.06,56.25-.15,84.36,0,7.58-1,15-5.43,21.46-1.36,2.24-2.4,4.76-4.13,6.65C1582,591,1561.2,611.7,1540.08,632.08c-16.38,16.72-32.68,33.52-49.17,50.11-5.4,5.43-11.3,10.38-17.46,16V683.23c0-2.19,0-4.36-.1-6.53-.06-1.79-.47-3.65-2.56-3.72-2.32-.09-2.38,1.89-2.48,3.64-.14,2.14-.36,4.28-.55,6.42.06.23.15.46.19.69,2.85,15.39-2.55,26.94-14.46,37.16-13.11,11.25-24.72,24.25-37,36.49-5.48,5.74-10.78,11.65-16.44,17.17-7,6.87-15.74,10-25.52,10.19-4.58.08-9.15.1-13.74.17C1346.33,785.16,1339.14,791,1336.09,805.1Zm392.09-136.67c-20.85.15-41.69,0-62.54.19-12.59.12-17.35,3.86-21.15,15.74-.06,1.49-.1,3-.16,4.44s0,2.85,0,4.28c.42,3.65,1.06,7.51,3.43,10.19,8.65,9.7,8,21.37,7.49,33-.29,6.6,1.58,13.7-3.54,19.47-2.88,5.34-8.07,4.58-12.8,4.58q-70.86.13-141.7.13a156.86,156.86,0,0,0-16.67.73c-7.86.86-12.26,4.78-12,12.74.35,9.86-4.35,15.63-11.76,20.79-8.72,6.05-17,12.71-25.55,19.1-14.12,12.15-28.92,23.45-44,34.43-7.29,5.32-14.23,4-19.45-3.47-5.44-7.79-12.27-12.24-22-11.41-5.53.46-4.79-3.36-3.75-6.12.94-2.5,2.33-4.6.72-7.22-1.71-5.44-1.22-11.07-.39-16.45,1.11-7.1,5.24-13.83,16.79-12.62,25.92,2.72,44.6-8.24,60.29-27.32,5-6.12,11.3-11.18,17-16.71,21.77-23,43.92-45.61,66.76-67.54,19.26-20.8,39.4-40.76,59.62-60.63,11.25-11.59,22.43-23.28,33.81-34.76,6.64-6.71,12.93-13.64,17.28-22.12a81.47,81.47,0,0,0,3.15-24.32q-.18-42.84.07-85.7c0-6.82-2.21-13.15-3.58-20.28,4.88,1.43,6.16,5.3,8.49,8.09,1.07,1.3,2.08,3.05,4.07,1.66,1.44-1,1-2.62.47-4-3.42-8.43-8.91-15.46-15.2-21.91-.63-.64-1.85-1.47-2.46-1.25-8.59,3-9.2-4.78-11.69-9-2.82-4.87-20.32-18.61-25.69-18.49-2.81.07-5,3.58-8.53,1.13-2.94-2.05-8.61-.75-7.21-7.54.51-2.47-27.21-13.83-28.27-11.73-3.47,6.75-7.53,2.05-11.3,1.31-3-.6-5.7-1.5-3-5.66,1.56-2.43-1-3.28-2.77-3.9-7.74-2.76-15.49-5.45-23.24-8.13-1.75-.59-3.51-1.79-4.94.79-2.66,4.83-5.9,5.2-7.83.36-2.61-6.5-7.62-8.92-13.6-10.68-5.33-1.56-10.58-3.35-15.91-4.92-3.23-1-7.06-3.7-8.18,2.63-.38,2.13-2.4,1.11-3.61.73-3.22-1-6.36-2.21-9.54-3.35l-29.07-8.91-.13,0h-.07c-5.68.09-10.66-2.61-16.83-4,7.19-6,2.78-7.3-2.65-8.52-7.54-1.69-15-3.73-22.55-5.43-2.53-.57-5.93-1.5-3.83,3.49,1.33,3.15-1.31,2.41-2.63,2.14-4.88-1-9.68-2.22-14.31-3.32-.37-3.39,4.6-1.23,3.65-4.58-.64-2.29-2.81-2.74-4.56-3.16-7.94-1.88-15.56-5.5-24-5-2,.13-4.74-.7-3.29,3.31.89,2.41-1.45,1.87-2.6,1.67-3.57-.61-7.09-1.53-10.66-2.18-1.85-.35-2.84-1.47-1.77-2.92,3.43-4.63,0-5.09-3.24-5.91-7-1.76-14-3.66-21.1-5.31-2-.47-4.76-1.56-6.13.44-1.84,2.69,1.64,3.94,2.81,6-5.43,1.43-9.82-2.51-14.85-2.43-.47,0-1.43-.93-1.36-1.25,2-8.62-5.5-7-9.53-8.31a77.74,77.74,0,0,0-16.39-3c-2.68-.24-8.07-3.22-6.83,4.16.39,2.34-2,1.34-3.16,1.21-4.08-.45-8.12-1.12-12.84-1.81,5.14-4.77,3.41-6.56-2.4-7.26-7.67-.93-15.27-2.49-22.94-3.57-1.53-.22-4.47-1.79-4.43,1.59.13,10.17-6.46,1.93-9.58,3.39-2.52,1.18-5.73.36-3.93-4.4,1-2.51-1.35-3.74-3.87-3.94-8.46-.7-16.9-1.44-25.35-2.16-1.41-.13-3.53-.42-3.39,1.47.32,4.27-1.76,5.38-5.09,4.11-2.94-1.12-8.58,2.49-8.49-4.56,0-3.05-2.68-3-4.79-3.2-7.73-.63-15.49-1-23.21-1.73-5-.48-6,1.26-3.15,6-6.06-1.25-13.12,2.46-15.17-6.55-.47-2-3.09-1.88-5.07-1.92-6.78-.18-13.57-.63-20.35-.57-3,0-7.86-2-7.12,4.66.18,1.58-12.39,1.21-13.64-1.15-1.76-3.32-4.32-4.44-7.56-4.65-3.46-.21-4.2-2.25-4.68-5.24-.83-5.22.3-7,6.29-6.93a1424,1424,0,0,1,156.51,11.05c41,5.11,81.49,13.5,121.84,22.58,107.58,24.2,211.54,59.19,312.25,104,8.6,3.83,17.13,7.82,25.66,11.79,4.65,2.17,7,2,6.79-4.33-.4-10.57,0-10.57,10.41-10.33,12.38.3,14,1.74,14,13.8.06,24-.19,48,.09,72,.08,6.58-3.73,10.79-7.06,15.45-4.28,6-6.58,12.23-4.34,19.68,3.89,12.88,10.7,17.88,25.34,17.95,19.39.07,38.8-.1,58.19,0,13.47.09,18.65,6.79,16.14,19.95-.53,2.84-2,2.56-4.09,2.52-18.38-.4-24.35,5.88-24,24,.35,19.39.67,38.79.06,58.17-.48,15.34,8.49,25.4,23.44,22.33,3.39-.7,4.53.35,4.54,4.1C1743.66,665.12,1740.93,668.35,1728.18,668.43Z"/><path class="cls-2" d="M1574.18,399.08c-31.2-14.29-63.71-25.32-96-36.89-4.54-1.63-4.9,0-4.82,3.68.11,4.1,0,8.24-.14,12.34,0,1.5-.44,3.18-2.18,3.29-2.31.16-2.6-1.71-2.64-3.49-.09-4.85-.25-9.69-.19-14.54,0-3.55-1-5.3-4.9-6.58-93.78-30.75-189.09-55.23-286.78-70-48.63-7.35-97.55-11.87-146.66-14.46-7.94-.4-16.6.94-23.51-3.26s-14.17-4.07-21.56-4.77c-4.22-.41-4.89,1.21-4.76,4.82.23,6.53.24,13.08,0,19.62-.07,2,1.49,5.72-2.18,5.81-4.09.1-2.83-3.9-2.88-6.17-.19-6.79.37-13.59.1-20.36-.26-6,2.62-8.05,8-8.83,4.2-.6,9.95,2.4,12.22-1.49,1.88-3.23.33-8.47.29-12.82v-1.46c0-14.51,0-14.57-14.7-14.48-6.26,0-14.36-2-18.29,1.15-4.16,3.3-1,11.77-1.47,18-.13,1.93,0,3.88-.19,5.8-.17,2.32-.42,4.46,3,4.14,1.69-.16,3.75-.09,3.61,2.34s-1.92,3.18-4.09,3.25c-4.12.12-8.28.61-12.36.26-5.6-.49-7.8,1.09-7.22,7.16.63,6.48.12,13.08-.07,19.61,0,1.49.58,3.82-1.89,4.05-2.78.26-3-1.95-3-4,0-6.54,0-13.09,0-19.62.06-11.87,0-12.29,11.8-12.58,5.93-.15,8-1.66,7.21-7.75-.92-6.9,2.69-16.08-1.49-20.35-4.51-4.61-13.74-1.25-20.9-1.42-12.51-.31-13.1-.06-12.1,12.35.54,6.6-4.39,14.43,3.47,19.93,1.1.78.1,2.26-1.26,2.62-10.37,2.73-19.66,8.83-31.1,8.43-10.14-.35-20.33.86-30.49,1.58-56.53,3.93-112.86,9.66-168.53,20.52-77.61,15.13-154.3,34-229.43,58.87-14.76,4.89-14.75,4.95-15.12,20.88a22.75,22.75,0,0,1-.18,3.62c-.29,1.52.07,3.86-2.5,3.53-1.92-.25-2.65-1.9-2.65-3.79,0-4.12-.24-8.24,0-12.34.21-3.73-.88-4.85-4.54-3.42-6.07,2.37-12.21,4.54-18.36,6.72-26.87,9.57-53.89,18.84-79.64,31.1-23.12,11-35.7,29.66-35.61,56q.15,43.29,0,86.55c0,10.67,3.28,20,10.37,27.92,15.73,17.44,32.49,33.91,49.36,50.24l14.47,14.79,63.76,62.07c0-6.2-.05-12.72,0-19.24.05-2.14.1-5,2.94-5s1.42,3,1.75,4.65-.67,3.87.86,5.53c-.71,12.68-2.43,25.69,11.28,33.53,15.37,15.73,31.45,30.86,45.92,47.37,13.33,15.21,28.7,22.25,49,21,16.39-1,23.78,6.55,25.76,22.86,0,3,0,6,0,9,0,1.31,0,2.62,0,3.94-.08,7.24-.06,14.47-.26,21.7-.09,3.52,1.39,4.51,4.78,4.48q31.89-.24,63.77-.13c3.08,0,4-1,4.2-4.17,1-16.66,1.07-16.66-15.69-17.14a9.86,9.86,0,0,1-1.44-.05c-1.92-.36-5,1.05-5.17-2.24s2.84-2.47,4.82-2.77a25.12,25.12,0,0,1,2.88-.1c15-.35,15-.35,14.44-15.4,4-15.24,10.3-20.21,26.27-20.22,37.26-.06,74.53.33,111.8,0,29.17-.31,58.53,2.19,87.4-4.46,3.15-.06,6.28-.19,9.42-.14,1.76,0,3.47-.91,5.24,1.07,4.79,5.35,9.14,5.1,12.83-.61,1.51-2.33,3.64-2.2,5.69-2.31,6-.38,12.1-.57,18.15-.76,2.43-.07,5.16-.1,6.64-2,1.15-1.45,1.92-3.08,3.73-1.89s1,3.48.91,5.4c-.13,2.79-4.1,2.43-4.25,5.52H955.9c4-25.54.84-51.09,2.65-78.08,3.26,3.51,2.46,6.24,2.46,8.65.06,18.65,0,37.31.06,56,0,2-1,4.46,1.54,5.85,3.66,2,11.69-.39,14.43-4.35,2.62,3.49,8.69,4.64,9.72,7.45,3.23,8.7,9.8,3.18,14.5,4.76a1.3,1.3,0,0,0,1.75-1.57c-2.33-6.61,2.82-4.66,5.55-4.61,7.24.16,14.49.71,21.76,1.19,1.85.13,4.28-.36,5.2,1.75,2,4.77,6.26,3.73,9.31,2.82,7-2,14-1.64,20.88-.91,13.54,1.42,27.09,1.31,40.66,1.31,43.61,0,87.23-.08,130.84,0,17.19,0,24.17,6.23,26.53,23.15a32.46,32.46,0,0,1-.37,5.05c-1.44,6.54,1.11,8.37,7.57,7.79,7.45-.69,15-.29,22.51-.28,1.61,0,3.56-.14,3.59,2.42s-1.77,2.53-3.51,2.56c-5.08.06-10.16.06-15.24.07-14.74.08-14.53.09-15,14.92-.15,5.06,1.09,6.6,6.33,6.53q29.79-.51,59.56,0c5.4.1,7.07-1.1,6.91-6.72-.38-14.63-.09-14.41-14.85-14.89-3.61-.11-10.35,2.62-10.38-2.34,0-4.66,6.81-2.43,10.5-2.55,15.11-.49,15.11-.31,14.69-15.49,3.05-14.06,10.24-19.94,24.73-20.19,4.59-.07,9.16-.09,13.74-.17,9.78-.19,18.48-3.32,25.52-10.19,5.66-5.52,11-11.43,16.44-17.17,12.25-12.24,23.86-25.24,37-36.49,11.91-10.22,17.31-21.77,14.46-37.16,0-.23-.13-.46-.19-.69.19-2.14.41-4.28.55-6.42.1-1.75.16-3.73,2.48-3.64,2.09.07,2.5,1.93,2.56,3.72.06,2.17.09,4.34.1,6.53v14.95c6.16-5.61,12.06-10.56,17.46-16,16.49-16.59,32.79-33.39,49.17-50.11,21.12-20.38,41.88-41.12,61.77-62.71,1.73-1.89,2.77-4.41,4.13-6.65,4.42-6.5,5.41-13.88,5.43-21.46.09-28.11,0-56.24.15-84.36C1611.68,429.46,1598.66,410.28,1574.18,399.08ZM445.82,397.52c0-1.72.24-3.77,2.38-3.83,2.74-.07,2.65,2.37,2.7,4.24.1,4.35,0,8.7,0,13,0,4.1.08,8.22-.05,12.33-.06,1.75.45,4.25-2.66,4-2.33-.14-2.45-2-2.45-3.72C445.76,414.91,445.76,406.22,445.82,397.52Zm5,60.18c0,4.83,0,9.67,0,14.48,0,1.17-.19,2.54-1.76,2.7a2.48,2.48,0,0,1-3-2.41c-.07-9.65,0-19.31.09-29a2.39,2.39,0,0,1,2.3-2.4c1.94-.19,2.4,1.29,2.42,2.84C450.82,448.51,450.8,453.11,450.78,457.7Zm-5,33.34c0-1.81.59-3.66,2.59-3.77,2.28-.14,2.52,1.87,2.54,3.62.06,8.94.1,17.88,0,26.83,0,1.32-.06,3.23-1.92,3.32s-3.13-1.17-3.16-3.19c0-4.58,0-9.18,0-13.77h-.1C445.73,499.73,445.7,495.37,445.74,491Zm2.87,169.42c-3.91.13-2.94-4.22-2.94-6.89,0-8.63.2-17.28.34-25.91,3.68-2.74,4.2.28,5,2.76,0,7.68.2,15.36,0,23C451,656,452.31,660.33,448.61,660.46Zm2.17-49.41c-.16,1.56,0,3.81-2.47,3.62-2.13-.17-2.48-2-2.48-3.8,0-4.36,0-8.73,0-13.08h.07c0-4.37,0-8.74,0-13.09,0-1.73.16-3.8,2.23-4.05,2.35-.29,2.43,1.85,2.57,3.54A148.76,148.76,0,0,1,450.78,611.05Zm.48-52.51c-1.35,2.74,1.6,8.27-2.65,8.27-5.12,0-1.64-5.93-3.27-8.78.13-6.74.21-13.49.43-20.24.06-1.86-.1-4.38,2.52-4.45s2.53,2.48,2.61,4.31c.29,6.74.43,13.48.64,20.22A6.35,6.35,0,0,1,451.26,558.54Zm163.42,267c-7.74.13-15.5.05-23.24.26-4.63.11-5.77-1.6-3.5-5.62l2.11-.09c8.21.16,16.41.29,24.62.53,1.72,0,4.25-1,4.53,2C619.53,826.2,616.69,825.48,614.68,825.53Zm329.21-82.34h0c0,4.35.09,8.72,0,13.07,0,1.56.22,3.7-2.33,3.67-1.84,0-2.42-1.49-2.43-3C939,747.48,939,738,939,728.6c0-1.45.78-2.15,2.27-2.07a2.57,2.57,0,0,1,2.59,2.86C943.93,734,943.89,738.59,943.89,743.19Zm-4.73-384.5c.07-1.66-.76-4.35,2.26-4.36,2.22,0,2.44,2.15,2.46,3.78,0,9.14,0,18.3-.11,27.44,0,1.44-.29,3.16-2.27,3a2.83,2.83,0,0,1-2.46-3.09c0-4.57,0-9.14,0-13.73h.07C939.1,367.37,939,363,939.16,358.69ZM939,696.4h.1c0-4.59,0-9.17,0-13.76,0-1.16,0-2.47,1.7-2.63s2.88.73,2.9,2.39c0,9.65,0,19.3-.07,28.94,0,1.22-.43,2.4-2,2.35-1.81,0-2.56-1.19-2.59-2.81C939,706.05,939,701.23,939,696.4Zm4.49-357.08a1.85,1.85,0,0,1-2.51,1.73,2.42,2.42,0,0,1-1.93-2.65c-.06-5.07,0-10.13,0-15.2H939c0-4.34,0-8.68,0-13,0-1.18-.06-2.49,1.64-2.64s3.07.42,3.15,2.16A215.16,215.16,0,0,1,943.53,339.32Zm14.35-45.38c0-1.47-.93-3.78,1.67-3.83,2,0,1.65,2,1.65,3.32q-.06,32.24-.19,64.45a2.12,2.12,0,0,1-1.82,2.36c-1.41-.91-1.3-2.16-1.3-3.31Q957.86,325.45,957.88,293.94Zm2.08,406c-3.3-5.74-1.77-10.32-.62-14.79C961.71,689.59,961.23,694,960,699.94Zm1.36-326.05c-.57,3.52.85,7.47-3.56,10.57,0-3.42,0-6.84,0-10.26,0-1.24.26-2.46,2-2.33A1.69,1.69,0,0,1,961.32,373.89Zm0-101c-.61,2.35.8,5.93-1.62,5.93-3.77,0-1.6-3.72-1.66-5.71,0-1.82-1.33-5.34,1.65-5.24S960.51,271.42,961.33,272.86Zm16.39,34.69c2-.06,2.42,1.22,2.42,2.78,0,4.82,0,9.65,0,14.47h-.08c0,4.11.08,8.21-.06,12.32,0,1.5.57,3.74-1.91,4-2.18.21-2.85-1.48-2.87-3.32-.08-9.17-.13-18.32-.13-27.5A2.43,2.43,0,0,1,977.72,307.55ZM980,371.39c0,4.57,0,9.14,0,13.71,0,1.57-.45,3.12-2.09,3.3-2.26.27-2.75-1.54-2.74-3.34.06-9.38.13-18.75.28-28.14,0-1.53.8-2.87,2.65-2.67,1.47.18,1.8,1.5,1.83,2.7.06,4.81,0,9.62,0,14.44Zm0,386.4c0,2-1.5,2.15-2.94,2.39-2.37-1.66-2.29-4.28-2-6.57,1.12-9.14-2.29-18.57,1.76-27.51,1.63.32,3.39.35,3.36,2.81C980,738.54,980,748.17,980,757.79Zm-1.46-43.7c-2.19-.35-3.39-1.44-3.36-3.85.12-9.18.15-18.35.18-27.54,0-2.21,1.38-2.84,3.18-3.11A72,72,0,0,1,978.49,714.09Zm489.76-304h.12c0-4.33,0-8.65,0-13,0-1.73.26-3.62,2.51-3.6,1.74,0,2.33,1.58,2.33,3.11q0,14.06,0,28.14c0,1.55-.71,2.89-2.5,2.82s-2.38-1.51-2.41-3C1468.23,419.73,1468.25,414.91,1468.25,410.11Zm-.07,59.95c0-8.47.15-16.93.32-25.4,0-1.52-.55-3.82,2.24-3.5,2.13.25,2.51,2,2.52,3.82,0,4.35,0,8.7,0,13h.11c0,4.12.12,8.24,0,12.35-.07,1.77.38,4.41-2.39,4.5C1467.63,475,1468.18,472,1468.18,470.06Zm5.2,34c0,4.32.09,8.65,0,13-.06,1.86-.15,4.24-2.87,4.09-2.26-.13-2.24-2.27-2.24-3.88,0-8.9.11-17.79.21-26.69,0-1.41,0-3.14,1.84-3.38,2.17-.26,2.94,1.34,3,3.19.07,4.56,0,9.13,0,13.69Zm0,151.92c0,2,.23,5-3,4.69-2.58-.25-2.14-2.88-2.14-4.7,0-8.94.07-17.88.11-26.82.57-1.28,1-2.94,2.83-2.56,2.06.42,1.67,2.62,2.38,4C1473.5,639.06,1473.51,647.52,1473.35,656Zm-4.83-72.51c.1-1.5.26-3.08,2.31-2.76,1.65.26,2.32,1.63,2.32,3.2,0,4.8,0,9.62,0,14.43h.13c0,4.09.1,8.16,0,12.25-.06,1.79.19,4.25-2.71,4.12-2.37-.1-2.14-2.3-2.27-3.86C1467.47,601.72,1467.91,592.59,1468.52,583.46Zm2.12-16.49c-4.47-.1-1.24-6.16-3-9.09.28-6.44.52-12.89.83-19.34.1-2-.92-5.07,2.11-5.21,3.62-.18,2.68,3.3,2.79,5.43.34,6.43.4,12.89.57,19.34C1472.27,561,1475.39,567.08,1470.64,567Z"/><path class="cls-1" d="M450.91,517.72c0,1.32-.06,3.23-1.92,3.32s-3.13-1.17-3.16-3.19c0-4.58,0-9.18,0-13.77h-.1c0-4.35,0-8.71,0-13,0-1.81.59-3.66,2.59-3.77,2.28-.14,2.52,1.87,2.54,3.62C450.93,499.83,451,508.77,450.91,517.72Z"/><path class="cls-1" d="M451.26,558.54c-1.35,2.74,1.6,8.27-2.65,8.27-5.12,0-1.64-5.93-3.27-8.78.13-6.74.21-13.49.43-20.24.06-1.86-.1-4.38,2.52-4.45s2.53,2.48,2.61,4.31c.29,6.74.43,13.48.64,20.22A6.35,6.35,0,0,1,451.26,558.54Z"/><path class="cls-1" d="M450.88,423.3c-.06,1.75.45,4.25-2.66,4-2.33-.14-2.45-2-2.45-3.72,0-8.7,0-17.39.05-26.09,0-1.72.24-3.77,2.38-3.83,2.74-.07,2.65,2.37,2.7,4.24.1,4.35,0,8.7,0,13C450.93,415.07,451,419.19,450.88,423.3Z"/><path class="cls-1" d="M450.78,457.7c0,4.83,0,9.67,0,14.48,0,1.17-.19,2.54-1.76,2.7a2.48,2.48,0,0,1-3-2.41c-.07-9.65,0-19.31.09-29a2.39,2.39,0,0,1,2.3-2.4c1.94-.19,2.4,1.29,2.42,2.84C450.82,448.51,450.8,453.11,450.78,457.7Z"/><path class="cls-1" d="M1473.35,470.38c-.07,1.77.38,4.41-2.39,4.5-3.33.1-2.78-2.86-2.78-4.82,0-8.47.15-16.93.32-25.4,0-1.52-.55-3.82,2.24-3.5,2.13.25,2.51,2,2.52,3.82,0,4.35,0,8.7,0,13h.11C1473.39,462.15,1473.51,466.27,1473.35,470.38Z"/><path class="cls-1" d="M943.88,358.11c0,9.14,0,18.3-.11,27.44,0,1.44-.29,3.16-2.27,3a2.83,2.83,0,0,1-2.46-3.09c0-4.57,0-9.14,0-13.73h.07c0-4.32-.12-8.67.06-13,.07-1.66-.76-4.35,2.26-4.36C943.64,354.33,943.86,356.48,943.88,358.11Z"/><path class="cls-1" d="M1473.34,517c-.06,1.86-.15,4.24-2.87,4.09-2.26-.13-2.24-2.27-2.24-3.88,0-8.9.11-17.79.21-26.69,0-1.41,0-3.14,1.84-3.38,2.17-.26,2.94,1.34,3,3.19.07,4.56,0,9.13,0,13.69h.1C1473.38,508.37,1473.47,512.7,1473.34,517Z"/><path class="cls-1" d="M1473.23,396.62q0,14.06,0,28.14c0,1.55-.71,2.89-2.5,2.82s-2.38-1.51-2.41-3c0-4.81,0-9.63,0-14.43h.12c0-4.33,0-8.65,0-13,0-1.73.26-3.62,2.51-3.6C1472.64,393.53,1473.23,395.09,1473.23,396.62Z"/><path class="cls-1" d="M961.2,293.43q-.06,32.24-.19,64.45a2.12,2.12,0,0,1-1.82,2.36c-1.41-.91-1.3-2.16-1.3-3.31q0-31.49,0-63c0-1.47-.93-3.78,1.67-3.83C961.53,290.08,961.2,292.08,961.2,293.43Z"/><path class="cls-1" d="M1470.64,567c-4.47-.1-1.24-6.16-3-9.09.28-6.44.52-12.89.83-19.34.1-2-.92-5.07,2.11-5.21,3.62-.18,2.68,3.3,2.79,5.43.34,6.43.4,12.89.57,19.34C1472.27,561,1475.39,567.08,1470.64,567Z"/><path class="cls-1" d="M1473.55,630.6c0,8.46,0,16.92-.2,25.37,0,2,.23,5-3,4.69-2.58-.25-2.14-2.88-2.14-4.7,0-8.94.07-17.88.11-26.82.57-1.28,1-2.94,2.83-2.56C1473.23,627,1472.84,629.2,1473.55,630.6Z"/><path class="cls-1" d="M980.15,324.8h-.08c0,4.11.08,8.21-.06,12.32,0,1.5.57,3.74-1.91,4-2.18.21-2.85-1.48-2.87-3.32-.08-9.17-.13-18.32-.13-27.5a2.43,2.43,0,0,1,2.62-2.72c2-.06,2.42,1.22,2.42,2.78C980.18,315.15,980.15,320,980.15,324.8Z"/><path class="cls-1" d="M980,371.39c0,4.57,0,9.14,0,13.71,0,1.57-.45,3.12-2.09,3.3-2.26.27-2.75-1.54-2.74-3.34.06-9.38.13-18.75.28-28.14,0-1.53.8-2.87,2.65-2.67,1.47.18,1.8,1.5,1.83,2.7.06,4.81,0,9.62,0,14.44Z"/><path class="cls-1" d="M980.12,728.91c-.1,9.63-.11,19.26-.17,28.88,0,2-1.5,2.15-2.94,2.39-2.37-1.66-2.29-4.28-2-6.57,1.12-9.14-2.29-18.57,1.76-27.51C978.39,726.42,980.15,726.45,980.12,728.91Z"/><path class="cls-1" d="M943.53,339.32a1.85,1.85,0,0,1-2.51,1.73,2.42,2.42,0,0,1-1.93-2.65c-.06-5.07,0-10.13,0-15.2H939c0-4.34,0-8.68,0-13,0-1.18-.06-2.49,1.64-2.64s3.07.42,3.15,2.16A215.16,215.16,0,0,1,943.53,339.32Z"/><path class="cls-1" d="M978.49,714.09c-2.19-.35-3.39-1.44-3.36-3.85.12-9.18.15-18.35.18-27.54,0-2.21,1.38-2.84,3.18-3.11A72,72,0,0,1,978.49,714.09Z"/><path class="cls-1" d="M961.33,272.86c-.61,2.35.8,5.93-1.62,5.93-3.77,0-1.6-3.72-1.66-5.71,0-1.82-1.33-5.34,1.65-5.24S960.51,271.42,961.33,272.86Z"/><path class="cls-1" d="M961.32,373.89c-.57,3.52.85,7.47-3.56,10.57,0-3.42,0-6.84,0-10.26,0-1.24.26-2.46,2-2.33A1.69,1.69,0,0,1,961.32,373.89Z"/><path class="cls-1" d="M448.61,660.46c-3.91.13-2.94-4.22-2.94-6.89,0-8.63.2-17.28.34-25.91,3.68-2.74,4.2.28,5,2.76,0,7.68.2,15.36,0,23C451,656,452.31,660.33,448.61,660.46Z"/><path class="cls-1" d="M450.78,611.05c-.16,1.56,0,3.81-2.47,3.62-2.13-.17-2.48-2-2.48-3.8,0-4.36,0-8.73,0-13.08h.07c0-4.37,0-8.74,0-13.09,0-1.73.16-3.8,2.23-4.05,2.35-.29,2.43,1.85,2.57,3.54A148.76,148.76,0,0,1,450.78,611.05Z"/><path class="cls-1" d="M943.89,743.19h0c0,4.35.09,8.72,0,13.07,0,1.56.22,3.7-2.33,3.67-1.84,0-2.42-1.49-2.43-3C939,747.48,939,738,939,728.6c0-1.45.78-2.15,2.27-2.07a2.57,2.57,0,0,1,2.59,2.86C943.93,734,943.89,738.59,943.89,743.19Z"/><path class="cls-1" d="M943.69,711.34c0,1.22-.43,2.4-2,2.35-1.81,0-2.56-1.19-2.59-2.81-.06-4.83,0-9.65,0-14.48h.1c0-4.59,0-9.17,0-13.76,0-1.16,0-2.47,1.7-2.63s2.88.73,2.9,2.39C943.8,692.05,943.76,701.7,943.69,711.34Z"/><path class="cls-1" d="M960,699.94c-3.3-5.74-1.77-10.32-.62-14.79C961.71,689.59,961.23,694,960,699.94Z"/><path class="cls-1" d="M1473.25,610.58c-.06,1.79.19,4.25-2.71,4.12-2.37-.1-2.14-2.3-2.27-3.86-.8-9.12-.36-18.25.25-27.38.1-1.5.26-3.08,2.31-2.76,1.65.26,2.32,1.63,2.32,3.2,0,4.8,0,9.62,0,14.43h.13C1473.29,602.42,1473.39,606.49,1473.25,610.58Z"/><path class="cls-1" d="M1657.91,616.07c-6.28-.1-12.57-.49-18.83-.19-5.79.28-8.39-1.6-8-7.74.45-8,.28-16,.36-23.94,0-1.45.38-4-.13-4.18-11.19-4.31-1.2-10.73-1.72-16,1.37-4.87,2.66-9.77,4.15-14.61.54-1.76,1-4.3,3.43-4,2.69.29,2,2.85,2.07,4.68.17,6.69-2,12.88-4.3,19-1.42,3.89-.52,5,3.67,4.9,13.33-.23,26.67.09,40-.12,4.4-.06,6.1,1.44,6,5.83q-.25,15.26,0,30.54c.06,4.11-1.69,5.52-5.63,5.49C1672,615.64,1664.93,615.92,1657.91,616.07Zm-5.21-6.42c15.51-.15,15.51-.15,15.62-13.2.13-16.66.13-16.66-16.72-16.69-14.32,0-14.32,0-14.49,14.56C1636.92,609.79,1636.92,609.79,1652.7,609.65Zm26.41-14.5h-.18c0-4.11,0-8.22,0-12.33,0-1.41-.06-3.12-2-3.31-2.35-.24-2.79,1.58-2.8,3.33-.05,8.22,0,16.44,0,24.66,0,1.67.55,2.77,2.45,2.74s2.53-1.09,2.53-2.76C1679.12,603.37,1679.11,599.26,1679.11,595.15Z"/><path class="cls-1" d="M1599.47,685.33c5,5.56,7.81,11.84,4.35,19.13s-9.59,9.79-17.35,9.11c-1.68-.14-3.38,0-5.07,0-14.08-.17-19.2-6.49-17.54-21.64C1571,681.56,1586.45,678.72,1599.47,685.33ZM1583,707.72h6.18c6.24,0,9.34-3.74,9.9-9.36.58-5.8-3.53-9.69-9.82-9.94a97.26,97.26,0,0,0-11.58,0c-6.37.49-9.93,6.46-7.83,12.54C1572.3,708.12,1578.07,708.14,1583,707.72Z"/><path class="cls-1" d="M1526.82,690.6c0,5.15-4.8,6.91-7.52,10-3.78,4.38-8.16,8.25-12.37,12.24-1.36,1.29-3,3-5,1.14-1.62-1.5-.58-3.5.49-4.55,7.19-7.05,13.45-15.24,23.08-19.38A2.14,2.14,0,0,0,1526.82,690.6Z"/><path class="cls-1" d="M1639.53,481.27c-.22,1.2,1,4.85-2.7,5.17s-2.47-3.51-2.72-5.45c-1-7.65-1.89-15.28-4.39-22.63-.61-1.81-1.31-4.18,1.14-4.92s3.17,1.51,3.83,3.38A73.52,73.52,0,0,1,1639.53,481.27Z"/><path class="cls-1" d="M1581.64,630.79c3.72-1.77,5.54-6.94,10.77-6,.31,5.31-4.49,7-7.28,10.08-3.56,3.9-7.47,7.49-11.22,11.22-1.57,1.56-3.49,3.58-5.45,1.55-1.67-1.73.62-3.47,1.8-4.77C1574,638.74,1577.84,634.8,1581.64,630.79Z"/><path class="cls-1" d="M1541.66,680.06c-2.05.8-3.41,3-5.91,2.86-.57-1.29-1.8-2.63-.7-4a112.4,112.4,0,0,1,23.37-22C1556.58,667.46,1546.71,672,1541.66,680.06Z"/><path class="cls-1" d="M1423.7,335.89c-7.16-2.13-14.34-4.21-21.48-6.41-2.56-.79-5.07-1.47-7.74-.67-2.09-6.86.7-7.55,6.52-5.57,6.77,2.3,13.72,4.07,20.6,6C1425.7,330.43,1426.78,332.49,1423.7,335.89Z"/><path class="cls-1" d="M1635.29,514.45q0-6.5,0-13c0-1.52.19-3.14,2-3.35a2.7,2.7,0,0,1,2.89,2.67c.8,9.62,1.34,19.25.46,28.89a2.83,2.83,0,0,1-2.7,2.85c-2.63.15-2.24-2.07-2.27-3.61-.1-4.82,0-9.65,0-14.48Z"/><path class="cls-1" d="M288,612.91c-1.07,3-3.56,2.82-6,2.82-13.56,0-27.12-.13-40.67,0-5.2.07-7.34-1.73-7.11-7.18.41-9.67.52-19.37.17-29-.18-4.71,1.58-5.78,5.8-5.72,13.56.18,27.13-.1,40.68.21,5,.12,5.9-1.11,3.86-5.65-1.46-3.26-1.95-7-2.87-10.46,4-3.25,5.8-.56,6.68,2.81,1.89,7.29,4.9,14.12,7.81,21,1.17,2.75,3.28,6.39-2.66,6.39-1-2.07-1.94-5.38-4.5-4.6s-1.32,3.94-.86,6.17Q288.15,601.33,288,612.91Zm-21.38-3.15c15.52-.24,15.52-.24,15.37-15.8-.14-14.08-.14-14.08-16.27-14.18-14.75-.09-14.75-.09-14.88,14.49C250.7,610,250.7,610,266.61,609.76Zm-21.69-14.49h-.06c0-4.1.08-8.2,0-12.3,0-1.7-.47-3.58-2.83-3.26-2.06.27-1.58,2.1-1.58,3.42q0,11.58.11,23.15c0,1.5-.7,3.83,2,3.65,2.16-.14,2.37-2,2.37-3.8C244.91,602.51,244.92,598.89,244.92,595.27Z"/><path class="cls-1" d="M335.28,713.48c-7.32.46-13.69.23-18.23-6a15.41,15.41,0,0,1-1.6-16.45c2.33-5,6.55-8.4,12.57-8.46,4.36,0,8.73-.14,13.07.12,8.66.5,14.54,6.52,14.68,14.76a15.58,15.58,0,0,1-14.58,16C339,713.63,336.83,713.48,335.28,713.48Zm-.63-5.77c1.7,0,3.39,0,5.09,0,6-.25,9.56-3.29,10-9.29.42-5.62-3.64-9.6-9.9-10a88.29,88.29,0,0,0-10.16-.09c-6.32.36-10.16,4.25-10.09,9.93.08,5.39,4.34,9.17,10.69,9.44C331.74,707.75,333.2,707.7,334.65,707.71Z"/><path class="cls-1" d="M304.6,598.16a5.77,5.77,0,0,1,4.14,2.33q8.25,9.16,16.56,18.31c1.17,1.28,2.65,2.62,1.19,4.3s-3.39.74-4.69-.13c-7.75-5.2-13.59-12.36-19.17-19.66C301,601.15,301.79,598.66,304.6,598.16Z"/><path class="cls-1" d="M358.93,653.8c.49,1.54.12,2.42-.85,2.85a3.63,3.63,0,0,1-4.11-.4,159.28,159.28,0,0,1-18.16-19.73c-1-1.27-1.49-3.34.2-4.58,1.26-.92,2.86-.36,4,.67a191.75,191.75,0,0,1,18.23,19.68A5.34,5.34,0,0,1,358.93,653.8Z"/><path class="cls-1" d="M392.76,687.27c-1.58,4.44-4.08,2-6,.59-3.05-2.25-5.83-4.86-8.72-7.31-2.62-3.36-6.71-5.29-8.83-9.14-1-1.79-3.46-3.55-1.14-5.54,1.64-1.41,3.67,0,5.08,1.35C379.77,673.8,387,679.84,392.76,687.27Z"/><path class="cls-1" d="M303.42,420.9c2.07,2.31,1.95,4.38,1.13,5.94-4,7.66-8.17,15.22-12.39,22.76-.82,1.47-2.21,2.89-4.12,2s-1.31-3-.74-4.46C291,437.43,296.63,429,303.42,420.9Z"/><path class="cls-1" d="M278.64,496.74l-.39-9.84a62.38,62.38,0,0,1,3.37-19.71c.5-1.51,1.2-2.68,3-2.32,1.58.32,1.5,1.8,1.4,2.88-.95,9.53-1.79,19.07-3.11,28.55C282.41,499.75,280.19,497.52,278.64,496.74Z"/><path class="cls-1" d="M283.73,527.57c.25,4.08.57,8.15.75,12.23.07,1.62.32,3.49-2.27,3.59-2.23.09-3-1.42-3.25-3.1-1.09-8.86-.63-17.75-.33-26.63.06-2,1.13-3.3,3.06-3.15s1.56,2.08,1.58,3.39c.08,4.56,0,9.12,0,13.68Z"/><path class="cls-1" d="M602.88,307.22l-27.47,6.84c-4.09-1.42-4.87-3.28-.37-5.12,8.2-3.36,16.93-4.94,25.55-6.63C604.91,301.46,602.54,305.34,602.88,307.22Z"/><path class="cls-1" d="M1472.1,747.78l-3.49-.82c0-7.5,0-15,0-22.49,0-1.63-.18-3.67,2.31-3.72s2.32,2,2.34,3.62c.07,4.06,0,8.12,0,13.28,5.81-3.37,8.49-8.7,12.94-12,1.87-1.38,3.71-5.29,6.4-2.43,2.48,2.64-.92,4.75-2.62,6.51C1484.12,735.86,1478.08,741.79,1472.1,747.78Z"/><path class="cls-1" d="M1458.6,755.49c2.81,2.41,1.51,4.49-.53,6.52-5.46,5.41-10.87,10.87-16.42,16.19-1.26,1.21-2.84,3.44-4.83,1.71s-.77-4.32.7-5.74c6.5-6.27,13.23-12.29,19.87-18.4A1,1,0,0,0,1458.6,755.49Z"/><path class="cls-1" d="M1199.77,814.15c-6.76-1.69-15.35-3.82-23.93-6-1.67-.42-3.69-1.15-3.24-3.13.62-2.72,3-2.54,5.25-2q12.57,3.12,25.15,6.17c1.86.45,4.33.73,3.65,3.36S1203.53,814,1199.77,814.15Z"/><path class="cls-1" d="M1245.12,825.77c-8.34-.84-16.19-4-24.26-6.24a3.1,3.1,0,0,1-2.43-3.85c.47-2.48,2.53-2,4-1.66,8.6,2.19,17.15,4.57,25.73,6.84,1.59.43,2.79,1.35,2.42,3C1249.85,827.07,1247.09,825.22,1245.12,825.77Z"/><path class="cls-1" d="M680.45,817.81c8.66-2.21,17.3-4.52,26-6.56,2.34-.55,5.53-1.77,6,2.59-9.63,6.4-20.8,7.86-31.8,8.85C676.37,823.07,679.65,819.58,680.45,817.81Z"/><path class="cls-1" d="M724.77,812c-2.41-2.77-2-4.66,1.71-5.58,9.06-2.23,18-4.88,27.2-6.6,5.39-1,3.86,2.35,2.09,5.1C745.53,807.7,735.33,810.62,724.77,812Z"/><path class="cls-1" d="M451.66,742.56c-.37,3.12,1.92,4.83,3.75,6.62s3.12,3.65,2.12,6.33c-10.26-3.79-15.7-13-22.83-20.34a2.51,2.51,0,0,1,.14-3.35c1.46-1.47,2.59-.1,3.64.77.74.61,1.28,1.46,2,2.08,1.24,1.07,2.37,3,4.15,2.39,2.09-.7.82-2.92,1.16-4.44.92-4-2.82-11.1,2.76-11.43,3.81-.22,1.42,7.38,2.19,11.41C451.37,735.86,450.13,739.34,451.66,742.56Z"/><path class="cls-1" d="M466.65,767.33c-.42-3.91.64-6.37,4.56-3.09a131.1,131.1,0,0,1,18.57,18.3c1.13,1.42,3,3.38,1,5s-4.08.35-5.74-1.32c-6.19-6.25-13.14-11.77-18.39-18.94Z"/><path class="cls-1" d="M404,697.62a8.51,8.51,0,0,1,2.43,1.45q9,9.43,17.88,19c1.14,1.24,2.22,2.94.77,4.52-1.26,1.37-2.83.19-3.83-.62A112.76,112.76,0,0,1,402,702.37a6.79,6.79,0,0,1-1.07-4C401,697.25,402.27,697.25,404,697.62Z"/><path class="cls-1" d="M1389.42,814.3c.73,2.88-.61,4.45-3.21,5.48a85.28,85.28,0,0,1-24.4,5.75c-1.8.14-4.84,1.34-5-2.13-.15-3,2.78-2.82,4.69-3.47,1.75-.6,3.89.18,5.4-1.44,5.18-.58,10.27-1.19,14.92-4C1384,813.08,1386.86,813.58,1389.42,814.3Z"/><path class="cls-1" d="M1416.31,803.49c-5.17,2.6-9.1,7.82-15.69,7.38-.78-2.76.41-4.4,2.75-5.9,6.88-4.42,13.62-9,19.16-15.19,1.07-1.18,2.56-2.78,4.29-1.36,2,1.61,1,3.55-.45,5C1423.08,796.84,1419.67,800.14,1416.31,803.49Z"/><path class="cls-1" d="M528.62,813.05c-.94,3.61-3.11,3.45-6,2.29A81.14,81.14,0,0,1,502,803.46c-1.14-2-3.73-4.19-1.42-6.32s4.65.16,6.35,1.68C513.45,804.69,521.79,807.72,528.62,813.05Z"/><path class="cls-1" d="M571.32,820.42c.66.73,1.33,1.45,2,2.17-2.59,6.61-8.53,1.38-12.39,3.51-5.67-.83-11.36-1.57-17-2.57-2.09-.37-4.68-1.24-4.23-3.94s3.07-1.58,4.79-1.47c5,.33,10,.86,15,1.31Z"/><path class="cls-1" d="M1622.51,588.93c-2.07,11.85-10.23,19.63-18,27.61-1,1-2.24.55-3.22-.39-1.38-1.33-.7-2.93,0-4C1607.4,603.64,1613.46,595,1622.51,588.93Z"/><path class="cls-1" d="M614.68,825.53c-7.74.13-15.5.05-23.24.26-4.63.11-5.77-1.6-3.5-5.62l2.11-.09c8.21.16,16.41.29,24.62.53,1.72,0,4.25-1,4.53,2C619.53,826.2,616.69,825.48,614.68,825.53Z"/><rect class="cls-2" width="1" height="1"/><rect class="cls-2" x="1919" y="1079" width="1" height="1"/><rect class="cls-2" y="1079" width="1" height="1"/><rect class="cls-2" x="1919" width="1" height="1"/></g><g id="Capa_3" data-name="Capa 3"><path d="M825.11,469.67v111H805.28V510l-19.51,14.91L769.59,537.4l-16.18-12.53L733.9,510V580.7H714.08v-111L733.9,484.9l35.69,27.44,35.69-27.44Z"/><path d="M943,525.35a32.75,32.75,0,0,1-23.47,55.51H874a32.56,32.56,0,0,1-30.13-20A34.22,34.22,0,0,1,841.28,548a32.65,32.65,0,0,1,9.2-22.84,31.12,31.12,0,0,1-6.82-10,34.22,34.22,0,0,1-2.54-12.84,32.22,32.22,0,0,1,32-32.84h46.48a32.88,32.88,0,0,1,23,55.68Zm-24.27-9.68a12.94,12.94,0,0,0,.48-25.86H872.37a12.94,12.94,0,0,0,.32,25.86h46Zm.16,45.52a13.07,13.07,0,0,0,13-13,12.92,12.92,0,0,0-12.21-13H873.16A12.88,12.88,0,0,0,861,548a13.06,13.06,0,0,0,13,13h45.53Z"/><path d="M1078.4,561.19V581H967.69V548.34a31.45,31.45,0,0,1,2.7-12.84,32.57,32.57,0,0,1,28.86-20h48.06a13,13,0,0,0-1.11-25.85H968V469.83h78.19a32.63,32.63,0,0,1,32.68,32.67,32.45,32.45,0,0,1-9.36,22.69,32.93,32.93,0,0,1-22.36,10H999.25A12.91,12.91,0,0,0,987.67,548v12.84Z"/><path d="M1196.72,525.35a32.75,32.75,0,0,1-23.47,55.51h-45.52a32.58,32.58,0,0,1-30.14-20,34.22,34.22,0,0,1-2.54-12.84,32.65,32.65,0,0,1,9.2-22.84,31.28,31.28,0,0,1-6.82-10,34.22,34.22,0,0,1-2.54-12.84,32.22,32.22,0,0,1,32-32.84h46.48a32.88,32.88,0,0,1,23,55.68Zm-24.26-9.68a12.94,12.94,0,0,0,.47-25.86h-46.79a12.94,12.94,0,0,0,.32,25.86h46Zm.15,45.52a13.07,13.07,0,0,0,13-13,12.92,12.92,0,0,0-12.21-13h-46.48A12.88,12.88,0,0,0,1114.72,548a13.07,13.07,0,0,0,13,13h45.52Z"/></g></g></svg>