<svg xmlns="http://www.w3.org/2000/svg" viewBox="0 0 1920 1080"><defs><style>.cls-1{fill:#f2f2f2;}</style></defs><g id="Capa_2" data-name="Capa 2"><g id="Capa_1-2" data-name="Capa 1"><rect class="cls-1" width="1" height="1"/><rect class="cls-1" x="1919" y="1079" width="1" height="1"/><rect class="cls-1" y="1079" width="1" height="1"/><rect class="cls-1" x="1919" width="1" height="1"/><path d="M1699.29,562q.14-23.56.35-47.15c0-12.95-4.9-18.39-4.9-18.39-6.55-5.88-13.21-11.62-19.58-17.66-6.06-5.73-12.92-8.25-21.35-8.11-20.73.32-41.49.2-62.23,0-16.61-.13-18.57-2.15-18.58-18.49,0-35,0-70.09,0-105.14,0-9.53.25-19.1-.42-28.6-2.37-34-16.31-61.66-45.07-81.19-16.93-11.51-35.56-19.13-54.79-25.57q-38.94-13-79-22.21c-3.82-.88-5.31-2.25-4.13-6,.2-.67.11-1.44.31-2.12,1.07-3.79-.46-5.88-4.2-6.66-1.86-.39-3.68-1-5.55-1.36q-38.09-8-76.2-15.95c-3-.63-6.09-1.06-9.13-1.6s-4.72.83-5.77,3.82-1.15,6.13-3.23,8.69q-14.73-2.29-29.52-4.6c-26.13-4-52.32-7.81-78.63-10.47-32.49-3.29-65-6.25-97.61-8.24-34-2.08-68.06-4.36-102.15-4.72-48.19,0-129.64,3.78-129.64,3.78-5.89.5-11.78,1-17.67,1.51-33,2.72-66.07,5-99,8.76-26,3-52,6.87-77.85,10.86-5.87.9-11.83,1.45-17.55,3.21-2.24.7-3-.28-3.37-2.27a24.59,24.59,0,0,0-1.06-3.39c-2.63-7.73-2.92-8.08-10.52-6.5q-41.6,8.68-83.15,17.64c-9.32,2-9.27,2.18-7.31,12a14.59,14.59,0,0,1,0,2.41c-17.16,4-34.2,8.4-51.07,13.38-21.22,6.26-42.44,12.56-62.66,21.73-15.27,6.92-29.25,15.78-41.2,27.8-16.52,16.62-24.76,36.94-27.56,59.77a203.81,203.81,0,0,0-1.43,25q.08,55.07-.08,110.13c0,4.76-.05,9.54-.43,14.29-.49,6.13-3.19,9-9.23,10a66.49,66.49,0,0,1-10,.55c-20.26.06-40.53.26-60.79-.06-8.89-.15-16.09,2.3-22.46,8.71-6,6-12.63,11.31-18.48,17.49-5.57,5.47-5.06,13.12-5.06,13.12v77c0,7.88,2.54,13.44,8.43,18.54,18,15.6,35.59,31.72,53.51,47.44,18.56,16.28,12.59,14.72,38.63,14.82,17.4.06,34.81-.31,52.21-.18,9.4.07,12.54,2.83,15.17,11.93A68.17,68.17,0,0,1,390.78,698c.09,15.25.09,30.51.11,45.77,0,32.9.17,65.8.05,98.7a27.2,27.2,0,0,0,7.19,18.81c8.77,10.06,17,20.57,26,30.43,14.49,15.92,27.56,33.37,46.71,44.64,5.53,3.53,18.13,3.1,18.13,3.1a65.58,65.58,0,0,0,23.13-3.9c8.45-3.17,16.81-6.59,25.28-9.74,67.87-25.19,136.87-46.62,207.5-62.71a903.16,903.16,0,0,1,163.23-21.36c1.31,1.87.79,3.84.85,5.71.2,6.4.18,6.42,6.9,6.48,7.39.06,14.78-.13,22.17.13s14.66.23,22,.5c7.06.27,14.37-.4,21.57-.5,9.51-.13,19,0,28.29,0,1.34-2.51.8-4.69.91-6.79.28-5.35.25-5.37,5.64-5.17,15.72.59,31.4,1.74,47.05,3.33,26.3,2.67,52.52,5.89,78.49,10.89,76.09,14.67,150.09,36.77,222.87,63.11,15,5.42,29.81,11.25,44.82,16.55,8.59,3,17.5,4.58,26.7,3.2,11.49-1.73,21.05-7.1,29.34-15.1,19.24-18.58,35.82-39.54,53.52-59.5,7.52-8.47,10.87-17.59,10.31-28.56,0-.47,0-.95,0-1.43,0-33.61.12-67.22-.09-100.82-.08-13.35-.19-26.69.19-40a53.42,53.42,0,0,1,3-17.48c1.87-5,5.32-7.79,10.61-8.19,3.32-.25,6.66-.4,10-.39,19.54.07,39.1.14,58.64.35,6.28.07,11.55-1.73,16.12-6.22,5.45-5.33,11.26-10.29,16.94-15.37,15.64-14,31.2-28,47-41.83,5-4.4,7.63-9.35,7.42-16.1C1699.08,579.68,1699.24,570.86,1699.29,562Zm-312.16-362.1c2.84-1.79,7.45,1.44,11.3,2.39,28.37,7.1,56.6,14.73,84,25,15,5.63,29.3,12.48,42.24,22,14,10.31,24.33,23.37,30.22,39.78,1.08,3,2.8,6,2,9.65-6.19-1.34-10.44-4.2-12.09-10.51a25.53,25.53,0,0,0-4-7.54c-2.91-4.24-4.21-4-7.29,1,2.33,4,5.29,7.68,6.69,13.66-5.31-4.09-6.54-9.33-9.5-13.34l-9.44-10.42c-8.13-6-17-10.82-25.87-15.5-4.06-1-7.54-3.54-13.46-3.38,2.34-2.76,5.55-2.47,5-4.94-.42-1.77-2.18-2.43-3.65-3.11a164.46,164.46,0,0,0-24.67-8.68c-1.59-.45-3.43-.7-4.17,1.31s.76,3,2.29,3.78,3,1.43,4.44,2.14c4.61.67,8.54,3.17,12.73,5-4.28-1.09-8.76-1.46-12.71-3.74l-42.1-10.74c-.69-.18-1.36-.45-2-.62-1.08-.26-1.75-1-1.59-2,.2-1.24,1.31-1.12,2.22-.88,2.29.62,4.55,1.38,6.86,1.94,4.62,1.11,9.25,2.2,13.91,3.15,1.53.32,3.63,1,4.15-1.31.48-2.2-1.64-2.71-3.12-3.21-7.88-2.66-15.8-5.28-24-6.7-4.64-.79-4.65-.66-5.56,4.57a21.51,21.51,0,0,1-.72,2.29c-6.81-1.94-13.89-2.51-21.58-6.65,4.69-.93,8.13,1.33,11.25-.38.16-2.27-1.71-2.68-3.19-3.24a58,58,0,0,0-8.14-2.63c-3.74-.8-5.28-2.35-4-6.4S1383.82,202,1387.13,199.94Zm-425-43.21c0-5.16.18-5.2,5.8-5.25,21.93-.19,43.8,1.11,65.69,2.21,21.16,1.07,42.32,2.3,63.46,3.82,18.75,1.35,37.47,3.15,56.19,4.85q32.71,3,65.24,7.51c21.19,3,42.36,6.13,63.51,9.19,0,11.39-3.89,17.77-12.8,21.2a8,8,0,0,1-6.81.54c-7.48-2.37-15.36-2-23-3.37-2.32-.42-4.73-.38-6.88-1.57-16.28-2-32.54-4.22-48.86-5.89q-35.88-3.69-71.81-6.69c-32-2.64-64.14-4.53-96.28-5.4-8.81-.24-17.62-.44-26.43-.66-1.67,0-3.34-.06-5-.17a1.93,1.93,0,0,1-1.94-1.7,2.09,2.09,0,0,1,1.73-2.64c1.38-.3,2.82-.29,4.23-.46,1.26-.16,2.3-.62,2.37-2.11.09-1.78-.94-2.54-2.55-2.76A143.3,143.3,0,0,0,970.93,166C960.94,165.84,962.05,167.76,962.14,156.73ZM962,173.52c.09-1.94,1.51-2.12,2.93-2.19,1.64-.08,3.29,0,4.92,0v.36c1.88,0,3.75,0,5.63,0a2,2,0,0,1,2.19,2.16c0,1.47-.14,3.07-1.92,3.15-3.74.17-7.5.13-11.24,0C962.41,176.93,961.93,175.36,962,173.52Zm-294.21,1.1c23.55-3.47,47.1-7,70.8-9.37,22.5-2.28,45-4.55,67.57-6.32q39.2-3.08,78.45-5.2c23.08-1.26,46.18-2.52,69.31-2.26,5.31.06,5.43.13,5.35,5.54-.17,11.07,1.17,8.71-9.08,9.09-5.47.2-10.94.44-16.41.77-1.56.1-3.53-.16-3.75,2.28-.17,2,.83,3.11,2.75,3.47a13.14,13.14,0,0,1,2.09.44,2.11,2.11,0,0,1,1.26,2.29,1.76,1.76,0,0,1-1.79,1.81c-1.9.11-3.8.16-5.71.18-37.2.27-74.3,2.49-111.39,5.21-28.53,2.09-57,4.59-85.42,7.78-14.89,1.67-29.75,3.57-44.63,5.37-7.92,2.43-16.28,2-20.64,3,4.37-1.12,12.35-3.31,20.63-3.94a7.2,7.2,0,0,0,1.53-1.48c1.71-3.13,1.29-4.07-1.86-3.83a89.3,89.3,0,0,0-9.91,1.32c-5.61,1.07-11.2,2.27-16.77,3.56-4.34,1-4.31,1.09-3.38,6.22-10.95,1.46-16.52-4.39-19.76-21.3C647.31,177.72,657.55,176.13,667.8,174.62Zm282.85-3.24c1.9,0,3.81.05,5.7,0,1.63-.05,2.81.33,2.87,2.22s-.11,3.48-2.43,3.5c-4.27,0-8.55,0-12.83,0-2.22,0-2.77-1.59-2.76-3.35,0-2,1.58-2,3-2,2.14,0,4.28,0,6.42,0A2.35,2.35,0,0,1,950.65,171.38ZM363.3,293.62c7.78-24.23,24-41.17,45.83-53.35,15.26-8.51,31.58-14.36,48.1-19.74,23.3-7.58,47-13.89,70.73-19.81,1.8-.45,3.63-1.08,5.9-.42.91,4.25,1.78,8.64,2.78,13,.63,2.71-.4,3.85-3.07,4.39-3.26.65-6.42,1.77-9.61,2.72-1.37.4-3,.84-2.57,2.71.33,1.59,1.85,1.08,3,1.11a29.63,29.63,0,0,1,6.31.51c-6.25,3.46-13,4.75-19.47,5.91a3.22,3.22,0,0,1-1.28-3c-.14-3.4-1.61-4.48-5.09-3.77A209,209,0,0,0,480.13,231c-1.28.43-3.16,1.19-2.69,2.81.5,1.77,2.49,2.18,4.21,1.79q9.38-2.16,18.7-4.55c1.38-.35,2.64-1.13,4.11-.43-2.76,2.85-2.76,2.84-14.13,5.69-5.08,1.27-10.15,2.6-15.21,3.93-5.28,1.38-10.54,2.82-15.8,4.23-3.1,2.36-7.06,2-9.94,3a22.6,22.6,0,0,1,8.95-3.94c1.47-2,4.59-1.23,5.93-3.52.63-1.07,1.1-2.24.46-3.3a2.27,2.27,0,0,0-2.58-.7c-3.17.86-6.39,1.64-9.49,2.71-5.57,1.92-11.13,3.87-16.57,6.1-3.73,1.54-3.64,1.82-.68,6.51a41.16,41.16,0,0,1-11.32,4.87c-7.21,4.23-14.77,7.83-21.64,12.63-9.09,7-15.46,16.31-21.52,26-.23-4.48,1.86-7.88,3.59-11.37.95-1.91,1.49-3.7-.66-4.94s-3.5.45-4.45,2.13c-1.64,2.9-3.29,5.8-4.7,8.82-3.3,7.07-3.25,7.1-11.91,8.81C361.69,296.6,362.8,295.14,363.3,293.62ZM298.36,652.2q-30.78-27.8-61.81-55.29a12.56,12.56,0,0,1-4.66-10.47q.38-31.1,0-62.21c-.05-4.57,1.17-7.63,5.13-10a61.71,61.71,0,0,0,7.86-6.18,13.27,13.27,0,0,0,2.85-3.14,2.9,2.9,0,0,0-.47-3.91c-1-.82-2.32-.4-3.3.32-2.89,2.11-5.69,4.33-8.56,6.45-.88.65-1.79,1.44-2.95,1.31-.89-2.07.58-3,1.44-3.87a281,281,0,0,1,20.71-19.69c.18-.16.38-.3.57-.44,5.86-4.06,11.85-5.85,12.68,5.5-1.85,1.8-4.51.33-6.61,1.38a3.27,3.27,0,0,0-2,3.44c.11,1.86,1.41,2.11,3,2.26,2.7.27,6-2.26,8,.71,1.35,2.05,1.36,5,2,7.5Q291.11,577.28,310,648.64c.65,2.45,1.13,5,1.69,7.51C306.24,657.3,302.19,655.66,298.36,652.2Zm23.11,4.51c-3.53.1-3.65-2.28-4.23-4.47C313.46,638,309.75,623.75,306,609.5Q291.61,555,277.22,500.58c-.29-1.12-.41-2.3-.73-4.21,4.55,0,8.78,0,13,0,1.5,0,2.91-.3,3-2.2.14-2.35-1.46-2.65-3.27-2.65-3.1,0-6.2,0-9.3-.05-5.68-.08-5.7-.09-6.63-5.86-.14-.91-.16-1.86-.29-3.38,8.49,0,16.78,0,25.08,0,3.45,0,3.51,2.7,4.1,4.82,3,10.77,5.87,21.56,8.73,32.36q16.8,63.42,33.55,126.84c.84,3.19,2,6.34,2,10.41C338.05,656.62,329.75,656.46,321.47,656.71ZM904.54,830.89c-9,.19-18.11.59-27.14,1.25a905.94,905.94,0,0,0-146.73,22.53A1614.54,1614.54,0,0,0,515,922.39,105.53,105.53,0,0,1,500,927.11c-14.21,3.32-26.4-.52-36.91-10.16-10.2-9.36-19.35-19.75-28.45-30.15-9.72-11.12-19-22.62-28.57-33.87-2.26-2.65-3.71-5.4-3.75-9-.16-14.77-.71-29.54.15-44.31-.1-5.46-.29-10.93-.3-16.4q0-42.88,0-85.76A85.26,85.26,0,0,0,399.59,677c-3.24-13.14-10.45-19.61-23.83-20.75-6.15-.52-12.37-.24-18.55-.2-2.72,0-4.34-.74-5.06-3.72-3.14-12.91-6.5-25.77-9.79-38.64-4.23-10.58-6-21.83-9-32.75-7.14-26.1-13.94-52.29-20.87-78.44-.47-1.81-.76-3.68-1.25-6.07,6.92,0,13.51,0,20.12,0a32.91,32.91,0,0,0,5-.27c1.36-.22,1.81-1.38,1.76-2.69a2,2,0,0,0-2.24-2.12c-1.42,0-2.85-.12-4.28-.12-5,0-10,0-15,0-7.81.07-7.81.09-8.65-8.62C321,481,334.52,484.56,347.57,479c1.33,2.75-3.08,6.09.78,8.28l4-1A95,95,0,0,0,357.83,455c.4-36.35.27-72.71.32-109.07,0-10.93.24-21.83,1.15-32.75.38-4.61,1.55-7.72,6.43-8.6a18.05,18.05,0,0,0,3.08-1.13c3,1.05.43,5,3.43,5.69,1.31.3,2.14-.81,3-1.58.44-2.69.57-5.53,3.94-7.67-.25,3.71-.52,6.69-2.37,9.33-.58,3.27-1.15,6.53-1.74,9.8-.23,1.29-1,2.48-2.3,2.15-4.35-1.1-4.19,1.78-4,4.44.37,5.7.67,11.42,1.46,17.06a144.68,144.68,0,0,1,1.48,23.51c-.87,38.12-1.94,76.23-2.65,114.35-.32,17.63-.06,35.27,4.71,52.48a103.62,103.62,0,0,0,7.15,19.39c33.55,66,61.92,134.38,93.11,201.46,11.74,25.24,23.1,50.69,37.39,74.64C521.84,846,536.74,858,556.61,863.37a102,102,0,0,0,29,3.33c6.19-.16,12.38-.54,18.58-.56,5.76,0,11.25-.31,16.48-3.42,2.75-1.63,6.34-2.2,9.61-2.5,12.4-1.16,24.12-4.71,35.66-9.21,3.79-1.49,7.61-4.38,12.11-1.51.61.39,1.87,0,2.74-.3a231.87,231.87,0,0,1,22.79-6c2.21-.46,3.62-2,5.33-3.26,3.43-2.55,7.1-4.89,11.71-2.1,1.89,1.14,4.21.66,6.32.4a141.77,141.77,0,0,0,20.31-4c2.27-.64,4.75-.89,5.31-3.93.25-1.42,1.6-1.56,2.77-1.78,3.25-.61,6.51-1.22,9.77-1.85.64,5.4.65,5.48,5.19,4.84,7.78-1.09,15.55-2.27,23.31-3.43,2.16-.33,4.49-.52,3.93-3.72-.4-2.3,1-2.9,2.85-3.13,3.06-.38,6.11-.78,9-1.15,1.35,1,.77,2.26.82,3.37.1,2.13,1.28,3,3.26,2.77,9-1.26,17.91-2.59,26.86-3.9a2.83,2.83,0,0,0,2.58-2.1c.34-1.27-.26-3.14,1.69-3.47,3-.52,6.12-.93,9.21-1.17a1.63,1.63,0,0,1,1.57,2c-.57,3.85,2,3.61,4.43,3.47q12.48-.74,25-1.51c1.42-.09,3.36-.13,3.57-1.72.84-6.12,5.28-4.29,8.73-4A12.83,12.83,0,0,1,909,826.32C909.08,829.77,908,830.82,904.54,830.89Zm102.18-19.7q-9.65,0-19.31,0c-1.52,0-2.89.09-2.87,2.14,0,1.81.31,3.36,2.61,3.39,3.35,0,6.68.06,10,.21,2.8.13,5.67-.53,8.81.7-1,8.94-1,18-1,27,0,2.71-.88,3.8-3.7,3.76-11.91-.12-23.84-.28-35.76,0-4.08.1-3.68-2.58-4.56-6.28-1.38,5.75-4.55,6.48-8.94,6.34-10.71-.37-21.46-.07-32.18-.11-5.07,0-5.14-.1-5.17-5-.06-8.57,0-17.14,0-26.09,3.7-.95,7.73-.16,11.68-.39,1.9-.11,3.83,0,5.71-.24,2-.25,2.66-1.81,2.6-3.64-.08-2.17-1.79-1.78-3.13-1.78-5.95,0-11.91,0-17.87,0-1.66,0-3.67.38-4.9-.4-5.21-3.34-11-2.86-16.64-2.79-36,.44-71.79,4.38-107.45,9.45-47.77,6.8-94.17,19.25-140.35,32.76-13,3.81-26.27,7.43-39.75,8.54-11.73,1-23.42,3.19-35.46,1.52-26-3.61-44.12-17.65-56.14-40.41-8.68-16.46-17.05-33.09-24.73-50-3-6.59-7-12.71-8.81-19.82-2.82-4-4.43-8.51-5.89-13.1-8.52-16.15-15.5-33-23.07-49.58-6-13.1-11.86-26.22-17.8-39.33L416.45,611q-13.38-27.06-26.73-54.15c-.71-1.46-1.73-2.88-1.61-4.67-5.33-9-8.35-18.93-10.14-29.16a171.88,171.88,0,0,1-2.64-39.49c-.91-15.25-.05-30.49.35-45.72.35-12.86.77-25.72,1.16-38.51,2.31-1.79,3.86,1.7,6.46.25,1.57-5.42-.46-11.23-1.25-16.94s-.78-11.91-4.36-17.11c-.71-1-.7-2.76-.62-4.15,1-17.81,1.78-35.64,6.54-53,5.29-19.28,16.87-33.23,34.53-42.39,14.47-7.51,30-12,45.58-16.38,13.26-3.74,26.61-7.15,39.61-10.61,2.32,1.31,1.52,3.19,1.61,4.7.19,3.57.13,7.15.21,10.72,0,1.66-.17,3.46,2.34,3.56s2.52-1.55,2.51-3.31c0-4.05.31-8.13,0-12.16-.37-4.23,1.34-6,5.39-6.59A87.61,87.61,0,0,0,526.42,233c5.32-1.55,10.4-3.57,13.4-8.73,1.19-2,3.11-2.72,5.3-3.15a54.44,54.44,0,0,0,6.85-1.93,2.3,2.3,0,0,0,1.51-3.4c-.6-1.36-1.23-2.42-3.19-1.75-2.21.75-4.4,1.85-7.26,1.64-1.85-10.38-4-20.77-6.74-31-1.13-4.25-1-4.34,3.74-5.34,19.1-4,38.22-7.95,57.32-12,8.15-1.72,16.26-3.6,24.38-5.47,2.49-.58,3.63-.2,4.44,2.71,3,11,6.49,21.8,10,33.37-5.53.82-10.6,1.56-15.66,2.33-2.11.32-4.22.72-6.33,1.06-1.93.32-3,1.36-2.82,3.4.21,2.48,2.11,2.3,3.71,2.09,7.33-.95,14.65-1.87,21.92-3.12,2.68-.46,5.09-.79,7.56.64,4.79,2.76,9.93,2.79,15.26,2q27.9-4.12,55.85-8c24.54-3.44,49.2-5.78,73.87-8,23.73-2.14,47.49-4.13,71.29-5.23,23.33-1.07,46.63-2.89,70-2.57,5,.06,5,.08,5.18,5.08.09,3.33.13,6.68.09,10,0,2,.66,3.11,2.88,3s2.71-1.24,2.65-3.23c-.13-3.81,0-7.63-.08-11.44-.07-2.33.64-3.23,3.18-3.41,14.51-1.06,14.49-1.14,14.54,12.94q0,8.22.14,16.45c0,.9,0,1.9,1.31,2.33,1.9-.43,1.25-2.12,1.26-3.28.08-7.87.14-15.74,0-23.6-.06-3.16.61-4.64,4.25-4.82,11.1-.55,11.08-.73,11.23,10.55,0,1.67.08,3.34.13,5,.06,2,1.08,3.17,3.1,3s2-1.59,1.93-3.14c0-3.81.2-7.63,0-11.43-.17-3.08.9-4.26,4-4.17,8.35.24,16.7.14,25,.45q65.73,2.44,131.23,8.55c37.47,3.53,74.85,7.66,111.94,14.21,7.51,1.32,15.06,2.95,22.05-2.1,1.57-1.14,3.7-.19,5.59.06,7.07.95,14.16,1.85,21.25,2.66,1.77.2,4.07.86,4.31-2.12.19-2.41-1.8-2.47-3.39-2.74-5.87-1-11.75-1.9-17.62-2.88-.91-.15-1.78-.49-3.41-.95,4.05-12,7.75-23.9,10.74-36.32l36,7.57c16.07,3.36,32.15,6.68,48.22,10.1,6.21,1.31,6.16,1.4,4.77,7.35-2.26,9.71-4.48,19.43-6.75,29.29-2.24.82-4-.88-5.95-1.33-1.47-.33-2.91-.76-3.61,1s-.89,3.93,1.22,4.12c8,.72,12.6,6.73,18.53,10.8,4.71,3.23,10.68,3.89,16.2,5.33,7.94,2.07,7,.8,7.22,9.43.1,3.34.17,6.67.32,10,.08,1.65.08,3.71,2.48,3.46,2.2-.23,2.06-2.19,2.07-3.88,0-2.62.06-5.24.08-7.87,0-2.36,0-4.72,0-7.38,4.53-.23,8.18,1.58,12,2.56,17.29,4.41,34.61,8.71,51.53,14.4,10.63,3.57,20.92,7.86,30.38,14,16.61,10.8,25.43,26.48,29.26,45.51,3,15,3.72,30.22,4.15,45.46a13.25,13.25,0,0,1-.45,4.93c-3.62,9.48-3.66,19.6-5.59,29.38a9.55,9.55,0,0,0-.25,1.4c-.07,1.19-.14,2.5,1,3.23,1.34.89,2.09-.41,3-1.1.66-.52,1.05-1.66,2.49-1,.36,5.06,1,10.22,1.06,15.38.46,31.68,3.08,63.37.3,95-1.36,15.42-5.71,29.86-12.25,44.16-13.61,29.8-28.53,58.95-41.92,88.86-13.31,29.73-25.42,60-40.08,89.1-5.51,11-10.32,22.22-16,33.08-3.41,6.55-5.68,13.72-9.3,20.14-7,12.45-11.32,26.18-18.71,38.45-7.91,13.12-17.57,24.37-31.66,31-11.34,5.36-23.46,8.28-36,7.73a268.86,268.86,0,0,1-62.37-10.48c-32.94-9.43-65.74-19.35-99.47-25.77-26-5-52-9.28-78.35-12.11a732.42,732.42,0,0,0-74.9-4.57c-3.73,0-7.55-.69-10.67,2.56C1010.91,812,1008.61,811.2,1006.72,811.19ZM1561.09,655.9c-6.66-.18-13.32-.48-20,.56-9.64,1.51-16.06,6.83-19.38,15.87a52.89,52.89,0,0,0-3.2,17.48c-.24,17.15-.48,34.32-.51,51.47,0,31.46.1,62.92.08,94.38,0,3.32-.52,6.64-.69,10a10.38,10.38,0,0,1-2.73,6.4c-16.83,19.78-33.15,40-51.46,58.49-1.68,1.69-3.34,3.39-5,5-12.39,12-26.65,15.74-43.32,10.33-12.68-4.11-24.83-9.56-37.34-14.1C1312,888,1245.43,867.45,1177.37,852A884.7,884.7,0,0,0,1061,833.74c-15-1.36-29.91-2.61-44.93-3-1.93,0-4.5.8-5.25-2.29s.94-9.25,3.15-9.94a8,8,0,0,0,3.87-2.76c1.74-2,10-2.88,12-1.6.2.12.6.23.6.35.23,7.76,6.35,4.58,10.07,5.11,6.36.89,12.81,1.11,19.23,1.47,1.24.07,3.52.61,3.45-1.31-.22-5.9,3.72-4.43,6.7-3.86,2.62.51,6.54-1,7.07,3.9.24,2.24,2.51,2.5,4.47,2.79,7.76,1.17,15.51,2.47,23.28,3.59,1.8.26,4,1,5.26-1s-1-3.38-1.58-5.18c4.13-.9,7.88,1.25,11.85,1.39,1,0,2.2.71,2,1.61-1,5.4,2.94,4.85,6.12,5.34,6.82,1,13.63,2.14,20.46,3.17,5.28.79,5.29.76,6.95-4.8,2.77.57,5.56,1.09,8.33,1.72.9.2,2.29.45,2.52,1,2.18,5.62,7.5,5,11.87,6.08,4.63,1.11,9.34,1.89,14,2.6,2.55.38,5.15.86,7.7-.49,4.86-2.57,8.9-.26,11.9,3.18a7.43,7.43,0,0,0,5.28,2.87c5.71.63,11.13,2.53,16.7,3.76,3.74.83,7,2.75,11.51.93,3-1.2,7.42,1.21,10.57,3.31a25.82,25.82,0,0,0,10,3.62c1.63.31,3.25.73,4.88,1,6.7,1.29,13,4.45,20.14,3.83,2.22-.2,4.61,1,6.87,1.75,4.23,1.37,7.79,4.53,12.64,4.26,16.14-.86,32.38,2,48.46-1.63,20.88-4.69,36.66-16.42,48.18-34.21,5.84-9,10.43-18.7,15.27-28.25C1442,764,1459,724.62,1476.75,685.68q19.26-42.2,38.11-84.56c7.67-17.17,16.86-33.57,25.24-50.37a1.49,1.49,0,0,1,1-1.87,72.71,72.71,0,0,1,4.56-12.44c-.13-1.66-.12-3.28,1.26-4.52a1,1,0,0,1,.22-1.2c-.13-1.69-.34-3.41,1.12-4.73,5.39-40.13,1.5-80.31.74-120.49-.3-16.18-.75-32.37-.44-48.55.16-9,1.77-18,2.67-26.95.18-1.89.16-3.81.17-5.71,0-1.67-.72-2.89-2.55-2.37-3.22.93-3.68-1.26-4-3.42-.94-6.07-2.92-11.87-5.09-18.69,4.19,2,4.18,5.62,5.72,8.15.52.84,1,1.7,2.07,1.75a1.92,1.92,0,0,0,2-1.62c.46-1.8-.72-5,3-4,3,.78,7,.57,7.46,5.21.31,2.82,1,5.63,1.1,8.46.28,6.18.43,12.38.44,18.56,0,37.14.19,74.28-.06,111.41-.07,10.13,2.24,19.81,3.76,29.65.29,1.88.4,3.78.6,5.68.34.31.69.62,1,1,1.18,1.21,1.54,3.85,4.14,2.67,2.27-1,.73-2.89.74-4.4,0-.91,0-1.82,0-3.63,13.16,5.47,26.56,2.82,39.55,3.92,1.16,1.8.2,3.39,0,5-.43,3.24-2.34,4.11-5.53,4-5.94-.26-11.91-.15-17.86,0-2.57.07-5.28-.24-7.88,1.52,1.31,3.28,4.17,3.29,6.94,3.3,7.1.05,14.2,0,22.11,0l-7.25,26.91c-2.89,10.74-5.13,21.66-8.83,32.18-2.16,12.43-6.09,24.43-9.21,36.61-5,19.58-10.37,39.06-15.58,58.59C1566.76,656.05,1566.76,656.06,1561.09,655.9Zm34.42.52H1573.1c10.35-40.46,20.49-80.37,31.71-120-.41-.84,0-1.32.73-1.67,2.16-12.61,6.29-24.74,9.42-37.11,1-4.14,2.29-8.23,3.31-12.37.44-1.8,1.1-3.07,3.21-3.07,8.51,0,17,0,25.32,0,.66,2.37-.44,3.84-.65,5.45-.39,3-2,3.9-4.86,3.75-3.57-.17-7.14-.07-10.7,0-1.55,0-2.87.61-3,2.36-.16,2.37,1.51,2.64,3.3,2.64,4,0,8,0,12.2,0-.1,6.4-2.13,11.8-3.58,17.26q-18.16,68.52-36.56,137C1601.42,656.45,1601.42,656.43,1595.51,656.42Zm91.31-63.79c-3,5.94-9.89,10-15.19,14.69-16.68,14.95-33.47,29.79-50.09,44.81-3.81,3.44-7.77,5.23-13.37,3.75,2.29-9,4.5-17.93,6.84-26.83q16.73-63.45,33.51-126.89c1.5-5.67,1.54-5.65,7.5-4.7a15.19,15.19,0,0,0,2.84.34c.89,0,1.94-.08,2.2-1.3a2.86,2.86,0,0,0-.89-2.57,7.07,7.07,0,0,0-3.73-1.95c-1.56-.42-3.4-.19-4.6-1.93a15.07,15.07,0,0,1,.33-1.89c1.92-6.37,5.66-8.23,10.74-4.06,8.23,6.75,16.84,13.21,23.41,21.79.83.95,2.27,1.94.73,3.19-.76.62-1.59-.38-2.06-1.18-3.12-2.17-6.2-4.39-9.37-6.45-1.46-.95-3.33-1.39-4.47.3-1,1.48.42,2.65,1.47,3.55,3.25,2.8,6.34,5.88,9.93,8.15,4.48,2.82,5.41,6.72,5.36,11.51-.15,15.5-.08,31-.19,46.49C1687.66,578.59,1689.85,586.61,1686.82,592.63Z"/><path class="cls-1" d="M1543.63,413.39c-.08-5.16-.7-10.32-1.06-15.38-1.44-.69-1.83.46-2.48,1-.89.68-1.63,2-3,1.1-1.11-.73-1-2-1-3.23a9.55,9.55,0,0,1,.25-1.4c1.92-9.78,2-19.9,5.59-29.38a13.48,13.48,0,0,0,.46-4.93c-.44-15.23-1.12-30.44-4.16-45.46-3.83-19-12.65-34.71-29.26-45.51-9.46-6.14-19.75-10.43-30.38-14-16.92-5.67-34.24-10-51.53-14.39-3.78-1-7.44-2.79-12-2.57,0,2.67,0,5,0,7.39,0,2.63-.09,5.25-.09,7.87,0,1.69.14,3.65-2.07,3.88-2.4.25-2.4-1.81-2.49-3.46-.14-3.33-.21-6.67-.31-10-.26-8.63.72-7.36-7.22-9.43-5.52-1.44-11.49-2.1-16.19-5.33-5.94-4.07-10.57-10.07-18.54-10.8-2.11-.19-1.87-2.51-1.23-4.12s2.15-1.31,3.62-1c2,.45,3.72,2.15,5.95,1.33,2.28-9.85,4.49-19.59,6.76-29.29,1.38-5.95,1.43-6-4.78-7.35-16.07-3.41-32.15-6.74-48.22-10.1l-36-7.58c-3,12.43-6.68,24.31-10.73,36.32a33.23,33.23,0,0,0,3.41,1c5.87,1,11.75,1.88,17.61,2.88,1.59.27,3.59.34,3.4,2.75-.24,3-2.54,2.31-4.31,2.11-7.09-.81-14.18-1.71-21.25-2.66-1.89-.25-4-1.2-5.59-.06-7,5-14.54,3.42-22.05,2.1-37.09-6.54-74.47-10.68-111.94-14.21q-65.49-6.18-131.23-8.55c-8.33-.31-16.68-.2-25-.45-3.12-.09-4.19,1.09-4,4.17.2,3.79,0,7.62,0,11.44,0,1.54,0,3-1.94,3.13s-3-1-3.09-3.05c-.06-1.66-.12-3.33-.14-5-.14-11.27-.13-11.1-11.23-10.55-3.65.18-4.31,1.66-4.24,4.82.15,7.86.09,15.73,0,23.6,0,1.16.65,2.85-1.25,3.28-1.29-.43-1.3-1.43-1.31-2.33q-.12-8.22-.14-16.45c0-14.08,0-14-14.54-12.94-2.54.18-3.25,1.08-3.18,3.41.11,3.82,0,7.62.07,11.44.07,2-.45,3.12-2.64,3.23s-2.91-1-2.88-3c0-3.33,0-6.68-.1-10-.13-5-.16-5-5.17-5.08-23.38-.33-46.68,1.5-70,2.57-23.8,1.1-47.56,3.09-71.29,5.23-24.67,2.22-49.33,4.55-73.87,8q-27.93,3.93-55.85,8c-5.33.8-10.47.77-15.26-2-2.46-1.43-4.88-1.1-7.56-.64-7.28,1.25-14.59,2.17-21.91,3.12-1.6.21-3.51.4-3.72-2.09-.17-2,.89-3.07,2.82-3.4,2.11-.34,4.21-.74,6.33-1.06,5.06-.77,10.13-1.5,15.65-2.33-3.52-11.57-7-22.41-10-33.37-.8-2.91-1.95-3.29-4.44-2.71-8.12,1.87-16.23,3.75-24.38,5.47-19.09,4-38.22,8-57.32,12-4.76,1-4.88,1.08-3.73,5.34,2.74,10.25,4.88,20.64,6.72,31,2.87.2,5.06-.9,7.27-1.65,2-.66,2.58.39,3.19,1.74a2.31,2.31,0,0,1-1.5,3.42,52.86,52.86,0,0,1-6.86,1.91c-2.19.44-4.11,1.12-5.3,3.16-3,5.16-8.08,7.18-13.4,8.73a87.9,87.9,0,0,1-11.06,2.82c-4.06.63-5.77,2.36-5.4,6.59.36,4,0,8.1,0,12.16,0,1.77,0,3.41-2.51,3.31s-2.31-1.9-2.34-3.56c-.08-3.56,0-7.15-.21-10.71-.09-1.53.71-3.4-1.61-4.71-13,3.46-26.36,6.87-39.62,10.6-15.56,4.4-31.1,8.88-45.58,16.39-17.65,9.16-29.22,23.1-34.52,42.4-4.77,17.37-5.55,35.2-6.54,53-.08,1.38-.09,3.11.63,4.15,3.57,5.19,3.54,11.33,4.34,17.11s2.84,11.52,1.26,16.94c-2.6,1.45-4.15-2-6.46-.25-.39,12.79-.81,25.65-1.16,38.5-.4,15.24-1.26,30.48-.35,45.73A171.37,171.37,0,0,0,378,523c1.78,10.23,4.81,20.12,10.13,29.16-.12,1.78.9,3.21,1.61,4.67Q403,583.94,416.45,611l16.24,37.07c5.94,13.1,11.84,26.22,17.8,39.31C458.06,704,465,720.81,473.55,737c1.48,4.6,3.08,9.13,5.9,13.11,1.81,7.11,5.83,13.23,8.82,19.82,7.67,17,16,33.58,24.72,50,12,22.77,30.1,36.81,56.15,40.42,12,1.67,23.71-.55,35.45-1.51,13.48-1.12,26.71-4.73,39.74-8.55,46.19-13.5,92.58-26,140.36-32.75,35.67-5.08,71.4-9,107.45-9.46,5.67-.07,11.43-.55,16.64,2.79,1.23.78,3.25.39,4.9.4,6,0,11.92,0,17.87,0,1.34,0,3.06-.38,3.12,1.78.07,1.84-.55,3.39-2.6,3.64-1.88.23-3.8.13-5.69.24-4,.23-8-.56-11.69.38,0,9,0,17.53,0,26.1,0,4.88.09,5,5.16,5,10.73,0,21.47-.26,32.19.11,4.39.14,7.56-.59,8.93-6.33.89,3.7.48,6.37,4.57,6.27,11.92-.28,23.85-.12,35.76,0,2.83,0,3.71-1,3.7-3.76,0-9-.06-18.09,1-27-3.15-1.23-6-.57-8.82-.7-3.34-.15-6.67-.16-10-.2-2.31,0-2.6-1.59-2.62-3.4,0-2,1.34-2.15,2.88-2.15,6.42,0,12.87,0,19.3,0,1.89,0,4.19.82,5.54-.57,3.12-3.25,6.94-2.58,10.67-2.57a734.9,734.9,0,0,1,74.89,4.57c26.32,2.83,52.38,7.16,78.36,12.1,33.73,6.43,66.53,16.36,99.47,25.78A269.92,269.92,0,0,0,1338,861a76,76,0,0,0,36-7.73c14.09-6.66,23.75-17.91,31.65-31,7.4-12.27,11.7-26,18.72-38.45,3.62-6.42,5.89-13.59,9.31-20.14,5.66-10.86,10.47-22.14,16-33.08,14.66-29.09,26.77-59.37,40.08-89.1,13.39-29.91,28.32-59.06,41.92-88.86,6.54-14.31,10.89-28.73,12.25-44.16C1546.72,476.75,1544.09,445.07,1543.63,413.39ZM384,443.24c-1.67-9.32-3.28-18.64-3.51-28.13,0-1.49.23-2.91,2.23-2.85,1.84.05,2.27,1.38,2.5,2.86,1,6.06,2,12.12,2.92,18.2.47,3.05.76,6.1,1.14,9.16.22,1.65-.36,2.86-2.12,3A2.72,2.72,0,0,1,384,443.24Zm5.29,43.55a4.65,4.65,0,0,0-1-3.23,125.73,125.73,0,0,0-1.32-19.1c-.16-1.17-.14-2.36-.19-3.54-.07-1.69-.17-3.71,1.88-4,2.35-.37,3.27,1.45,3.49,3.54q1,9.52,1.94,19.06c.13,1.41.08,2.85,1,4.07v7C391.82,491,389.41,490.76,389.33,486.79ZM406,533.54c-1.85.82-3.06,0-3.91-1.85-3.66-7.7-7.36-15.4-9.38-23.72a10.42,10.42,0,0,1,0-4.2c.16-.91,1.1-1.48,2.55-1.29,1.24.22,2.06,1.36,2.55,2.73,3,8.2,5.94,16.4,8.81,24.65C407.06,531,407.85,532.73,406,533.54ZM425.17,576c-2.12,1.1-2.92-1.07-3.59-2.36-2.7-5.27-5.1-10.68-7.81-15.94-1-2-1.25-4.68-3.86-5.65a5.08,5.08,0,0,1,.11-1.37c.7-1.91-1.12-5.13,2.53-5.49,3.16-.31,3,2.85,4.21,4.58.85,1.29,1.62,2.64,2.42,4,1.84,4.6,3.7,9.19,5.52,13.8.53,1.33.85,2.72,1.34,4.05C426.66,573.28,426.91,575.11,425.17,576Zm17.93,41.5c-2.66-2.29-3.2-6.25-6.39-8.12.3-1-.31-1.44-1.12-1.71v0l0,0,0,0c.42-2.73-.78-5-1.86-7.39-1.47-3.21-2.89-6.46-4.09-9.77-.58-1.59-.53-3.31,1.69-4,1.5-.44,2.89-.41,3.66,1.13,4.17,8.46,8.65,16.79,11.56,25.8C447.5,616.39,445.39,617.13,443.1,617.51Zm21.25,41.07c-1.3.57-2.26-.13-3.07-1a9.15,9.15,0,0,1-1.22-1.75,258.19,258.19,0,0,1-11.21-23.74c-.68-1.58-1-3.23,1.15-4.16a2.92,2.92,0,0,1,4.16,1.45,211.31,211.31,0,0,1,11.57,24.32,14.82,14.82,0,0,1,.47,2A3.35,3.35,0,0,1,464.35,658.58Zm20.1,40.92a2.23,2.23,0,0,1-3-1.17c-4.33-8.63-9.19-17-11.9-26.4-.17-.6.18-1.36.4-2.78,1.32.68,2.17.84,2.46,1.32a190.61,190.61,0,0,1,12.68,25.32C485.61,697,486.14,698.69,484.45,699.5ZM602.19,502.32c-1.58,2.77-4.32,1.13-6.32.51-3.23-1-5.51-3.83-8.74-5.16-3.88-1.6-7.35-4.5-11.33-5.51-3.1-.78-3.27-2.77-3.17-4.49.16-3.06,2.85-1.18,4.42-1.52a9.36,9.36,0,0,1,1.41-.12c7.19,2,13.18,6.4,19.79,9.56.47.52,1,1,1.41,1.56C601,498.67,603.6,499.84,602.19,502.32ZM568.76,210.73a78.66,78.66,0,0,1,8.29-2q8.73-1.59,17.52-2.89c1.74-.26,4.15-1,4.63,1.76.5,3-2.06,3.32-4.13,3.74-4.4.9-8.84,1.68-13.25,2.54-4,.78-7.89,1.59-11.52,2.32-1.91.17-3.12-.18-3.33-2.07C566.8,212.57,567.17,211.18,568.76,210.73Zm-4.55,315.43c-.05,1.23-.88,1.53-1.86,1.71-2.12.35-4.24.69-6.35,1.08-5.64,1-10.81,3-14.71,7.51a17.08,17.08,0,0,1-2.66,2.36A2.36,2.36,0,0,1,536,539c-.84-.52-.91-1.51-.73-2.54.77-4.58,3.74-7.43,7.39-9.88,4.26-2.87,9.13-3.16,13.59-3.8,2.5.1,4.68.05,6.65,1.07A2.36,2.36,0,0,1,564.21,526.16Zm-33.37,30.32c0-1,0-1.89,0-2.84,1.52-.63,2.4-3.4,4.72-1.44a1.63,1.63,0,0,0,1,1.87v0c1,6.75,4.88,11.59,10.5,15.2,1.78,1.14,3.62,2.19,5.43,3.31.8.52,1.55,1.23,1.28,2.27-.37,1.5-1.7,1.59-2.84,1.26-7.18-2.12-13.65-5.31-17.23-12.43-1-1.89-1.77-3.86-2.65-5.79a1.36,1.36,0,0,0,.1-.51C531.11,557.09,531,556.79,530.84,556.48Zm6.06,55c.55-2.87,2.8-2,4.53-1.65a102.91,102.91,0,0,0,25.4,2.58c1.34,0,3-.49,3.24,1.65.23,2.33-1.42,2.7-3.16,2.84-2.36.19-4.73.31-7.22.47-6.24-.59-12.65-.63-18.92-2.13C538.55,614.73,536.32,614.57,536.9,611.49Zm-8.17-121.56c.85-1.8,3.78-.92,4-3.32,3.91.44,7.34-1.55,11-2.27a49.61,49.61,0,0,1,12.67-1.14c2.25.13,4.26.6,4.9,3.17-5.68,3.74-12.68,2.78-18.8,5.24-2.21.89-4.85,1.37-7.17,2.35a12,12,0,0,1-4.69,1.25,4,4,0,0,1-3.26-2.34C526.73,491.67,528.27,490.92,528.73,489.93ZM507.4,270.67c2.49-.17,2.32,1.86,2.34,3.48.06,4.74,0,9.47,0,14.22h-.05c0,4,0,8.05,0,12.07,0,1.6.3,3.69-2.21,3.56-1.83-.11-1.9-1.78-1.92-3.24,0-2.13-.05-4.27-.06-6.4,0-6.64-.08-13.27,0-19.9C505.49,273,504.87,270.82,507.4,270.67Zm.06,78.79c-1.79-.12-1.92-1.74-1.92-3.24,0-4.73,0-9.47,0-14.19,0-4.26,0-8.52,0-12.78,0-1.43.08-3,2-3.17s2.12,1.47,2.12,2.93c0,4.73,0,9.46,0,14.19,0,4.26,0,8.52,0,12.78C509.62,347.58,510,349.65,507.46,349.46Zm.05,12.52c2.07-.11,2.13,1.48,2.14,2.93,0,4.76,0,9.52,0,14.29h0c0,4.53,0,9.06,0,13.59,0,1.5-.3,3-2.26,2.81-1.44-.12-1.81-1.33-1.83-2.62,0-3.33-.07-6.66-.07-10q0-8.93,0-17.87C505.53,363.69,505.56,362.09,507.51,362Zm-1.9,48.23c0-1.32.66-2.31,2.1-2.32s1.89,1.17,1.91,2.41c0,5,0,10,0,14.94h.06c0,4.51,0,9,0,13.52,0,1.18-.1,2.51-1.67,2.63-1.84.13-2.41-1.15-2.41-2.73q0-11,0-22.05C505.57,414.48,505.55,412.34,505.61,410.21Zm-.21,48.3c.06-1.87-1.06-5,2.2-5s2.09,3.14,2.16,5c.31,8.8.42,17.61.61,26.41-1.85,2.15-3.71,1.56-5.58,0C505,476.14,505.11,467.32,505.4,458.51Zm-8,62.53c1.82-3.46,3.05-7.16,5.65-10.3,2.48-3,2.16-7.09,2.26-11.34,3.82.68,7.16,2.3,10.8.17,1.9-1.1,2.73,1.06,2.45,2.95-.39,2.58-2.51,4-4.25,5.48-3.06,2.51-4,5.62-4,9.34,0,4-.18,8-.32,12.07-.06,1.76-.42,3.35-2.77,3.12-1.76-.17-2.4-1.41-2.45-2.93s.13-3.27.22-5a2.7,2.7,0,0,0-3.25.46c-1.82,1.65-4.14,2.12-5.73.7C494.18,524,496.63,522.57,497.42,521Zm10.45,57.51c-3.64.08-2.77-3.71-2.85-6.13-.31-9-.48-17.94-.71-26.9,5.67,1.54,5.67,1.54,6.12,8.12-.16,6.37-.22,12.74-.56,19.1C509.77,574.83,511.1,578.47,507.87,578.55Zm-16.56-35.12c-.21-2.95,1.24-4.59,3.74-4.64,3.43-.09,1.78,3.14,2.51,4.84-1.24,7.14-.25,14.18.81,21.24.35,2.38,2,6.2-1.08,7-3.74.94-3.84-3.31-4.58-5.85-1.49-5-1.33-10.35-2-15.52A43.23,43.23,0,0,0,491.31,543.43Zm12.87,201.88c-6.16-9.28-10.45-19.47-14.89-29.58-.64-1.46-1.91-3.32.13-4.34a3.42,3.42,0,0,1,4.79,1.85c1.84,3.84,3.62,7.73,5.4,11.61,1.18,2.57,1.8,5.41,4,8,1.65-2,1.62-6.43,5.85-4.54a55,55,0,0,1-.09,19.57C507,748.23,505.57,747.41,504.18,745.31Zm3.49-62.63c2.32.22,2.21,2.1,2.23,3.74.05,4.27,0,8.55,0,12.83s0,8.53,0,12.82c0,1.64.19,3.53-2.21,3.67s-2.57-1.58-2.57-3.33c0-8.79.05-17.58.13-26.36C505.26,684.45,505.07,682.44,507.67,682.68Zm2.22-29c0,4.52,0,9,0,13.56,0,1.7-.64,2.66-2.51,2.5a2,2,0,0,1-2.07-2.28q0-14.26,0-28.53a2,2,0,0,1,2.1-2.26c2-.07,2.37,1.18,2.37,2.74,0,4.76,0,9.51,0,14.27ZM524.09,782a2.66,2.66,0,0,1-3.73-.95,25.74,25.74,0,0,0-5-5.74c.27-1-.34-1.43-1.15-1.69v0l0,0,0,0c-2.13-5.18-4.28-10.35-6.38-15.54-1-2.45-2.56-5.18,1.88-5.93,2.18,0,3.34,1.28,4.28,3.09,3.89,7.56,7.48,15.26,10.65,23.15C525.27,779.91,525.58,781.18,524.09,782ZM526.28,606c-1.19,2-2.9,2.13-4.88,1-3.76-2.09-6.57-5.31-9.58-8.29l-1.81.4c0,6.09,0,12.19,0,18.29a34.4,34.4,0,0,1-.25,5c-.15,1.09-1.15,1.38-2.18,1.3s-2-.09-2.19-1.3a28,28,0,0,1-.25-3.55c0-5.48,0-11-.09-16.45-.11-6.28,1.39-12.82-3.66-18.56,3.69-1.47,5.28.54,6.59,2.3a69.33,69.33,0,0,0,16.71,16.47C525.75,603.29,527.35,604.17,526.28,606Zm17,217.47a2.13,2.13,0,0,1-2.59-.52,19.49,19.49,0,0,1-4.1-5.74c-3.17-6.32-6.39-12.63-9.59-18.94.2-1.53-.65-3.52,1.74-4.08,2.21-.5,3.45.35,4.32,2.52.46,1.17.71,2.84,2.29,3.39,2.29,5.18,4.61,10.35,6.86,15.55a45.54,45.54,0,0,1,1.91,5.32A2.18,2.18,0,0,1,543.24,823.42ZM574,856.65c-.8,1.16-1.93,1.11-3.15.58a54.51,54.51,0,0,1-12.59-8c-3.48-2.9-6.88-5.91-9-10-1.23-2.43-.17-5.07,1.79-5a2.85,2.85,0,0,1,2.32,1.43c5.07,6.78,11.73,11.72,18.64,16.38a12,12,0,0,1,1.67,1.33A2.41,2.41,0,0,1,574,856.65Zm.12-283.37a32,32,0,0,1-3.53,2.37c-1,.56-2.24,1.12-3.25.11-1.28-1.27-.69-2.75.26-3.81,1.74-1.93,3.79-3.59,5.56-5.49,5.29-5.66,8.41-12,6.12-20,.33-.8-.06-1.27-.73-1.6-.29-2.63-2.94-4.23-3-6.94.76-2.26-2.08-5.79,1.43-6.78,3.12-.87,4,2.86,5.24,4.85,3.56,5.82,3.89,12.44,3.62,19.09C583.77,562.35,580.2,568.64,574.1,573.28Zm34.08,21.79a55.72,55.72,0,0,1-21.86,16.64c-1.32.58-2.77,1-3.59-.76-.74-1.58-1.13-3.36.85-4.28,8.1-3.8,14.44-9.87,21-15.67,2.32-2,4.85-1.32,5,1.47A16.41,16.41,0,0,1,608.18,595.07ZM610,512.62c1.47-.92,2.77.31,3.64,1.36,4.38,5.36,7,11.63,8.9,18.18.74,2.46,1.2,5,1.59,6.73.35,2.42,0,3.65-1.85,3.93-1.58.23-3.28.81-3.85-1.56-.09-.38-.9-.66-.9-1,0-8.84-5.24-15.94-7.86-23.91C609.23,514.94,608.57,513.52,610,512.62Zm12.49,57.84a42.21,42.21,0,0,1-2.36,5.94c-.92,1.88-2,4.44-4.53,3.41s-.72-3.23-.3-5c1.18-5.06,3.5-9.88,3.3-15.24a2.25,2.25,0,0,0,.64-2.75,5.88,5.88,0,0,0,.44-3.74c.12-.46.24-.9.37-1.34.36-1.21-.72-3,1.19-3.51a3.27,3.27,0,0,1,4,2.07,14,14,0,0,1,.66,2.7A79.11,79.11,0,0,1,622.5,570.46Zm291.55-48.08c-4.76,17.8-16.21,29.73-34.06,33.66-18.17,4-34.3-.93-46.46-15.95-1-1.28-2.15-2.46-3.22-3.69-2.26-4.86-4.67-9.62-5.93-14.93-1.84-7.78-.91-15.35.54-23,1.23-1,1.35-2.45,1.34-3.92,1.78-1.37,1-3.42,1.37-5.16,4.36-4.5,8-9.65,13-13.62,22.34-18,55.54-11.19,69.49,14.29,1.14,2.06,2.14,4.2,3.2,6.3C915.12,505,916.37,513.71,914.05,522.38Zm27.88,89.9c-5.8-.13-5.85-.13-5.88-5.49,0-7.32.29-14.66,0-22-.17-4.16,1.62-5.39,5.27-5.17C942.61,590.5,941.53,601.4,941.93,612.28Zm-.07,47.19c-5.7-.34-5.74-.34-5.78-5.76-.05-7.35-.08-14.7,0-22.06,0-4.83.12-4.83,5.69-5Q941.82,643,941.86,659.47ZM942,539.62c-.63,9.35.5,18.75-.54,28.11-3.38,0-5.67-.7-5.44-5.12.37-8,.14-16.09.14-24.13,0-1.68,0-3.34,1.4-4.56C940.11,534.94,942.2,535.82,942,539.62Zm-5.74-322.17c0-1.41-.05-2.93,2.06-2.92,1.85,0,3.27.47,3.27,2.7,0,4.73,0,9.45,0,14.19h.07c0,4.26,0,8.52,0,12.77,0,1.82-.25,3.2-2.58,3.27s-2.81-1.14-2.81-3C936.22,235.43,936.19,226.44,936.21,217.45ZM938.75,260c1.52.05,2.83.42,2.83,2.35v13.55h0c0,4.52,0,9,0,13.56,0,1.93-.52,3.22-2.7,3.31s-2.77-1.33-2.77-3.2c0-9,0-18,0-27.09C936.13,260.56,937.08,259.89,938.75,260Zm-2.58,48.4c0-2,.65-3.18,2.91-2.94s2.56,1.6,2.54,3.47c-.06,4.51,0,9,0,13.55h0c0,4,0,8.09,0,12.13,0,1.9-.39,3.16-2.68,3.22s-2.86-1.08-2.85-3Q936.17,321.55,936.17,308.36Zm0,46.41c0-1.42,0-2.89,2.1-2.92,2.36-.05,3.44.9,3.39,3.35-.09,4.51,0,9,0,13.54h0c0,4.28,0,8.57,0,12.83,0,1.85-.26,3.21-2.62,3.22-2.12,0-2.93-.87-2.92-2.93C936.14,372.83,936.11,363.8,936.13,354.77Zm5.45,59.38h0c0,4.27,0,8.55,0,12.83,0,2.07-.89,3.09-3,3.06-1.81,0-2.45-1.13-2.46-2.77q0-13.89-.05-27.8c0-2,1.26-2.31,2.84-2.19s2.64.73,2.61,2.61C941.55,404.63,941.58,409.39,941.58,414.15Zm-5.47,45h.06V445.63c0-1.55.37-2.95,2.22-2.93s3.22.55,3.21,2.83c0,9,0,18,.07,27,0,2.4-1.33,2.68-3.11,2.72s-2.48-.9-2.46-2.63C936.14,468.08,936.11,463.59,936.11,459.1Zm0,34.5c0-2-.71-4.51,2.86-4.36s2.67,2.71,2.67,4.65c0,9.28,0,18.55,0,27.83-3.23.64-5.81.3-5.79-3.9C935.88,509.75,936,501.67,936.08,493.6Zm3.25,303.07c-2,0-3.08-.91-3.11-2.93-.05-5,0-9.92-.11-14.89,0-2.6-.16-5.18-.25-7.77a36.09,36.09,0,0,0,.31-4.62c-.1-2.11,1.19-2.58,2.81-2.83,1.35.41,2.66.71,2.65,2.65,0,9.22,0,18.42,0,27.64C941.64,795.5,941.27,796.66,939.33,796.67Zm2.44-47.18c-5.52.19-5.58.19-5.62-4.76-.06-7.56.24-15.13-.13-22.68-.21-4.27,1.76-5.24,5.3-5.08C942.61,727.79,941.51,738.65,941.77,749.49Zm-.24-44.39c-3.83,0-5.9-1.16-5.61-5.77.48-7.51.1-15.07.21-22.61.06-4.8.16-4.8,5.87-4.4C941.61,683.24,942.53,694.19,941.53,705.1ZM960.9,225.5c1.52,4.13.48,8.36.4,12.67C959.75,234.05,960.09,229.78,960.9,225.5Zm-.16,22.77c1.76,5.27,1.78,63.84,0,69.13C958.94,312.23,958.92,256.21,960.74,248.27Zm.77,101.88v71.53C958.82,415,958.91,356.7,961.51,350.15Zm0,81.84v11.73C959,439.82,959.75,435.91,961.49,432Zm-.44-103.85c.94,4.17,1.47,8.33-.31,12.43C959.15,336.38,959.79,332.25,961.05,328.14Zm.1,218.68c-1.8-5.68-1.77-6.64-.17-13C962.81,538.7,961.7,542.82,961.15,546.82Zm-1.21-91.09c0-.61.67-1.21,1.57-2.76v70.24a6.31,6.31,0,0,1-1.12-.22c-.23-.08-.58-.19-.59-.33a30,30,0,0,1-.42-4.21Q959.62,487.09,959.94,455.73Zm1,101.12c1.52,6,1.4,64.69-.13,69.55C958.78,620.85,958.88,563.6,961,556.85Zm-.07,172.52a2.36,2.36,0,0,1-.65-.21c-.39-.25-.53-.12-.58,0,0-.06,0-.17,0-.33q-.06-31.08-.08-62.18a41.32,41.32,0,0,1,.58-5.64c0-.37.54-.68.89-1.06C962.5,667.19,962.33,724.19,960.92,729.37Zm-.18,23.18c-1.59-4.19-1-8.32.3-12.44C962,744.3,962.52,748.46,960.74,752.55Zm-.28-102.47V637.51l1,0v12.7Zm8.92,165.12c-2.35.18-4.7.32-7.54.51v18.81c-2.93-4.74-2.29-8.49-2.39-12.06-.17-6.8-.11-6.8-6.63-7.17-.94-.06-1.9-.08-2.83-.18-1.85-.24-2.17-1.63-2.2-3.13s1-2,2.32-2.06c.48,0,1,0,1.43-.06,7.83-.56,7.81-.56,7.83-8.07,0-10,0-20,.09-30,0-3-.05-6,2.54-8.76v45.88c2.54,1.49,5,1.15,7.31,1.15,1.58,0,3.06.27,3.18,1.95C972.62,813.93,971.33,815.05,969.38,815.2Zm13.46-446.11h-.1c0,4.29-.12,8.58,0,12.86.09,2.12-.45,3-2.7,3s-2.74-1.16-2.72-3.13q.11-13.56.07-27.12c0-1.93.47-3.23,2.75-3.18s2.7,1.34,2.67,3.28C982.79,359.58,982.84,364.34,982.84,369.09Zm-.23,58.67c0,1.6-.19,2.83-2.19,2.78-1.57-.05-2.87-.42-2.88-2.32q-.07-14.28-.11-28.55c0-2.17,1.38-3,3.24-2.87s2,1.7,2,3.13c0,4.76,0,9.52,0,14.27h-.13C982.6,418.72,982.56,423.24,982.61,427.76ZM980.1,214.25c1.8,0,2.53,1,2.53,2.67q0,7.52,0,15h-.16c0,4.29-.06,8.56,0,12.85,0,1.63-.16,2.8-2.11,2.83-1.55,0-2.87-.23-2.87-2.21,0-9.52,0-19,0-28.56C977.49,215,978.4,214.26,980.1,214.25Zm.15,45.2c2.41-.1,2.5,1.7,2.52,3.39.05,4.48,0,9,0,13.45h0v13.47c0,1.63.38,3.44-2.24,3.43-2,0-3.1-.7-3.1-2.85q0-13.81,0-27.63C977.4,260.75,978.21,259.52,980.25,259.45Zm-2.85,49c0-2.16.55-3.77,3.16-3.61s2.07,2.19,2.1,3.69c.08,4.51,0,9,0,13.52,0,4.28,0,8.54,0,12.82,0,1.66.45,3.52-2,3.64s-3.13-1.57-3.14-3.73c0-3.33-.16-6.64-.17-10C977.34,319.36,977.4,313.91,977.4,308.45Zm0,137.31c0-2.16.56-3.75,3.17-3.59s2.11,2.14,2.14,3.67c.08,4.51,0,9,0,13.53,0,4.26-.05,8.54,0,12.81,0,1.69.42,3.52-2.07,3.6s-3.25-1.44-3.22-3.68-.09-4.27-.09-6.41C977.36,459.05,977.4,452.41,977.4,445.76ZM982.69,552c0,4.48,0,9,0,13.47,0,1.38-.38,2.29-1.86,2.35s-2.93.05-3.23-1.86a16.47,16.47,0,0,1-.22-2.81q0-12.07,0-24.13c0-.71,0-1.42,0-2.12a2.44,2.44,0,0,1,2.7-2.58c1.9-.08,2.38,1.28,2.4,2.77,0,5,0,9.94,0,14.91Zm-5.31,30.89c0-1.83.55-3.22,2.74-3.38,2.43-.16,2.65,1.45,2.66,3.2,0,4.75,0,9.5,0,14.24,0,4.27,0,8.55,0,12.82,0,1.78.1,3.46-2.36,3.38-2-.06-3-1.21-3-3.2,0-2.37-.1-4.74-.1-7.12C977.35,596.16,977.37,589.51,977.38,582.86Zm5.44,119.2c0,1.9-.23,3.18-2.58,3.13S977.4,704,977.41,702q0-13.81,0-27.63c0-2.13,1.25-3,3.15-2.93s2.22,1.45,2.23,2.94c0,4.72,0,9.45,0,14.18h0C982.8,693.08,982.74,697.57,982.82,702.06Zm-.05-59h-.19c0,4.5-.06,9,0,13.51,0,1.51.24,2.93-1.85,3-1.71.05-3.36.1-3.34-2.44.06-9.48.05-19,.06-28.44,0-1.84,1.08-2.46,2.72-2.42s2.6.77,2.59,2.58C982.74,633.59,982.77,638.33,982.77,643.07Zm-5.38,77.37c0-2.17.57-3.74,3.17-3.62s2.08,2.15,2.11,3.67c.07,4.5,0,9,0,13.5h0c0,4.27,0,8.53,0,12.79,0,1.68.5,3.55-2,3.66s-3.15-1.53-3.16-3.7c0-2.61-.16-5.21-.16-7.81C977.35,732.76,977.4,726.6,977.39,720.44Zm5.5,60.37h-.39c0,4.27-.06,8.55,0,12.83,0,1.69.49,3.44-2.11,3.43-2,0-2.93-1-2.93-3.06,0-7.36-.07-14.72-.1-22.1,0-1.88.08-3.79.08-5.69,0-1.71.72-2.65,2.52-2.69,2.09,0,3,.91,2.92,3C982.83,771.3,982.89,776.06,982.89,780.81Zm0-274.56h-.22c0,4.51-.06,9,0,13.51,0,1.9-.81,2.51-2.51,2.47s-2.76-.38-2.75-2.33q0-14.23,0-28.47c0-1.79,1-2.49,2.66-2.52,2.16,0,2.84,1.08,2.81,3.11C982.83,496.77,982.89,501.51,982.89,506.25Zm67.41,51c-25.48-.23-45.89-20.57-45.64-45.94.25-25.11,20.7-45.8,45.38-45.59,26.39.23,46.17,19.83,46.31,45.79A45.36,45.36,0,0,1,1050.3,557.2Zm308.16-73.52c10.62-1.79,20.59.57,30.29,4.71a19.74,19.74,0,0,1,2.06,1.91c.94,1.11,1.8,2.29.65,3.8a2.8,2.8,0,0,1-3.2.91c-1.59-.41-3.14-1-4.7-1.58-7-2.53-14-4.89-21.45-4.73C1357.88,488.79,1358.14,486.48,1358.46,483.68ZM1389.58,555c-2.12,8.78-6.82,15.58-15.21,19.38-2.45,1.12-5,2.76-8.3.6.65-3.08,3.5-3.53,5.48-4.83,6.6-4.31,11.72-9.62,12.37-18C1387,550.89,1388.19,553.11,1389.58,555Zm-29.89-31.93c9.76-1,17.64,2.31,23.54,10.14a22.67,22.67,0,0,1,1.86,3.5c-.1,1.74-.85,2.46-2.25,2.4a4.23,4.23,0,0,1-3-1.69c-5.21-6.26-12.33-8.46-20-9.48-1.54-.2-3.74.32-3.68-2.16C1356.19,523.81,1357.89,523.3,1359.69,523.11ZM1321,207.9c.46-3,2.77-1.68,4.6-1.92A192.65,192.65,0,0,1,1350,210.4c2.14.51,3.65,1.51,3.16,3.83s-2.43,1.84-4.06,1.54c-8.17-1.48-16.34-3-24.51-4.49C1322.71,210.94,1320.58,210.7,1321,207.9ZM1318.38,499a37.36,37.36,0,0,0,4-3.95c6-3.52,12-6.84,18.62-9l5.61-.2,1.34,1c-.1,2.89-2.31,3.93-4.42,5q-10.23,5.17-20.47,10.31a12.25,12.25,0,0,1-2.47,1.26c-1.14.25-2.75.3-3.28-.71A2.81,2.81,0,0,1,1318.38,499Zm-13.94,80.76c-1.53.74-2.73-.21-3.49-1.54-3.22-5.67-4.6-11.91-5.7-18.24-.37-2.09-.54-4.22-.79-6.34.08-.93.09-1.86.24-2.78.17-1.16.36-2.38,1.88-2.51s2.73.29,3.13,2c.25,1.11.65,2.19,1,3.27-.19,5.55,1.07,10.84,2.63,16.08.68,2.27,1.32,4.55,1.88,6.85C1305.47,577.73,1305.68,579.16,1304.44,579.76Zm5.43-63a131.59,131.59,0,0,0-9.21,21.91,19.57,19.57,0,0,1-1.21,2.53,2.35,2.35,0,0,1-2.31,1.38,2,2,0,0,1-1.55-2.1c0-.94,0-1.9,0-2.84,1.77-8.48,3.57-16.88,9.2-23.94a3.75,3.75,0,0,1,5-1.15C1311.73,513.49,1310.7,515.2,1309.87,516.77Zm28.22,94.06c-2.06,1.7-4.09,1.2-6.34.21-2-.9-3.9-2.53-6.41-1.85-.4-1.42-1.67-1.25-2.71-1.53h0c0-3.21-3.15-3.88-4.81-5.74-2.36-2.65-5.22-4.91-6.59-8.32a2.57,2.57,0,0,1,.66-3.23,2.49,2.49,0,0,1,3.26.18,14.1,14.1,0,0,1,2.11,1.9c5,5.59,11.06,9.69,17.6,13.19C1336.81,606.69,1339.6,607.5,1338.09,610.83Zm-2.75-52.57c-.69-2.15-.26-4.76-2.61-6.22,0-.85,0-1.71,0-2.57,2.67-3.41,1.64-7.73,2.78-11.51,2.31-.38,2.26-2.73,3.4-4.08,1.51-1.78,3.29-4.18,5.69-2.63,2.17,1.41.61,3.69-.57,5.44a11.24,11.24,0,0,0-.63,1.25c-5.33,8.8-3.41,22.44,3,28,2.12,1.86,4.11,3.89,6.07,5.94,1,1,2.09,2.21.75,3.64s-2.64.6-3.84-.16C1342.74,571.3,1337.71,565.85,1335.34,558.26ZM1369,842.1a64,64,0,0,1-16.92,14.08,5.94,5.94,0,0,1-4,1.11c-.9-.17-1.91-.32-2.33-1.39a2.28,2.28,0,0,1,.58-2.58,5.63,5.63,0,0,1,1.06-1,84.51,84.51,0,0,0,19.85-17.24,2.48,2.48,0,0,1,2.47-1c.86.18,1.51,1.48,1.48,2.91C1371.4,839.1,1370.21,840.65,1369,842.1Zm-15.54-224.81c-2.29-.16-4.25-.78-4.26-3.63a3.7,3.7,0,0,1,3.13-1.29,145.34,145.34,0,0,0,24.51-2.7c2.46-.46,5.21-1.1,6.68,2.06-.87,2.57-2.94,3.45-5.36,4A90.58,90.58,0,0,1,1353.46,617.29Zm38.36,180.62q-5.08,10.13-10.15,20.23c-.85,1.69-1.45,3.54-3.08,4.68-.53.38-1.21,1-1.85.27-.46-.5-1.13-1.26-1-1.7.57-2,1.37-4,2.13-6,2-5.27,5.59-9.89,6.46-15.64,1.56-1.13,1.83-3.07,2.82-4.56s2.52-1.3,3.77-.94C1392.92,794.89,1391.73,796.63,1391.82,797.91Zm36.29-256.8c1.74,4,.91,8.35,1.53,12.51-.79,4.19-1.51,8.41-2.42,12.58a24.16,24.16,0,0,1-1.66,4.68c-.56,1.28-1.74,1.46-3,1.17a2,2,0,0,1-1.41-2.2,27.43,27.43,0,0,1,.44-5.66,60.33,60.33,0,0,0,.84-20.58c.58-1.36-3-3.1.58-4.31C1425.46,538.49,1427,538.6,1428.11,541.11Zm-17.46-81.84c0-1.43,0-2.86.21-4.27a1.73,1.73,0,0,1,1.93-1.64,1.79,1.79,0,0,1,2,1.6c.2,1.9.21,3.8.24,5.71.17,8.1.29,16.19.44,24.28-1.85,3.24-3.73,2.46-5.61,0Q1410.25,472.13,1410.65,459.27Zm-8.58,40.92c1.29-1.71,3-.51,4.43.28s2.84,1.22,4.51-.17c2.41-2,4.28-.9,4,2.05-.61,6.41,2.15,11.42,5.83,16.19a2.12,2.12,0,0,1,.4.59c.78,2.23,4.17,4.3,1.44,6.78-2.32,2.11-4.21-.69-6.14-1.84-.17-.11-.46,0-.77,0-1.12,2-.46,4.11-.62,6.15-.17,1.86-1.33,2.37-2.89,2.31a2.11,2.11,0,0,1-2.16-2.28c-.09-3.57-.36-7.15-.1-10.7.32-4.33-.73-7.93-4-10.91a21.55,21.55,0,0,1-3.21-3.79C1401.9,503.45,1401,501.63,1402.07,500.19Zm7.83,50c-.35-3.9,1.85-4.77,5.09-4.54,0,9.76.09,19.52.17,29.27,0,1.89-.52,3.48-2.57,3.58-2.25.09-2.44-1.74-2.48-3.48-.17-7.13-.35-14.28-.51-21.41A20,20,0,0,0,1409.9,550.21Zm-13.66,51.65c5.83-4.9,11.52-9.94,16.15-16a6.43,6.43,0,0,1,5.54-2.69c-4,9.17-2.8,18.45-2.46,27.69-.13,3.31-.31,6.63-.4,9.94,0,1.52-.11,2.92-2,3.09s-2.42-1.19-2.48-2.69c-.2-4.75-.37-9.49-.48-14.24-.07-2.8,0-5.59,0-9.7-3.64,3.32-6.46,5.64-9,8.25s-4.84,2.65-7.66,1.06C1393.31,604.33,1394.77,603.1,1396.24,601.86Zm18.87,51.92c0,4.51,0,9,0,13.53,0,1.69-.64,2.77-2.42,2.7-1.53-.07-1.81-1.31-1.81-2.54q-.08-14.24-.06-28.46c0-1.22.29-2.41,1.9-2.45s2,1,2,2.28c0,5,0,10,0,14.94Zm-2.2,28.78c1.51.09,1.86,1.24,1.87,2.48,0,4.73,0,9.46,0,14.2h.36c0,4.5-.05,9,0,13.49,0,1.66-.48,2.8-2.2,3s-2.61-.92-2.64-2.55c-.19-9.47-.29-18.93.37-28.39C1410.8,683.45,1411.44,682.48,1412.91,682.56ZM1411.86,757q-5.29,11.28-10.73,22.46c-.7,1.42-1.34,3.15-4.36,3.05-.93,0-1.81-1.16-1.57-2.73a17.11,17.11,0,0,1,1.6-4.67c3.25-6.86,6.56-13.69,9.87-20.51,1-2,2.55-2.88,4.64-1.86S1412.55,755.48,1411.86,757Zm19.39-42.77a43.58,43.58,0,0,1-2.23,6c-2.93,6.42-5.94,12.79-8.92,19.18-2.44,1.47-5,2.7-5.31,6.13-.1,1.1-.81,2.42-2.29,2.23-1.69-.22-2.32-1.66-2.37-3.1-.15-3.56-.1-7.14-.13-10.7,0-1.43,0-2.84,0-4.26,3.13-3.94,4,0,5.78,1.9,2.67-2.23,3.42-5.53,4.9-8.35,2-3.76,3.61-7.72,6.39-11a2.71,2.71,0,0,1,3.17-1C1431.56,711.71,1431.56,713.09,1431.25,714.18Zm8.42-17.73c-.74,1.52-1.21,4.18-3.83,2.76-2.23-1.22-1.11-3.41-.39-5,2.13-4.72,4.48-9.32,6.72-14,.4-.84.63-1.76.95-2.65,1.43-2.17,2.61-4.57,4.36-6.44,1.58-1.7,3.41-1.72,3.88,1.26C1447.47,680.4,1443.62,688.45,1439.67,696.45Zm30.27-64.63a230.32,230.32,0,0,1-10.19,25c-.9,1.9-2.7,1.84-4.32,1.31-2.28-.72-1.76-2.83-1.19-4.18,2.47-5.9,5.17-11.7,7.87-17.49a73.51,73.51,0,0,1,3.65-6.91c.72-1.19,1.84-2.44,3.48-1.61C1470.49,628.59,1470.12,630,1469.94,631.82Zm20.61-41.18c-.28.65-.54,1.3-.84,2-3.86,8.23-7.22,16.7-11.82,24.57-3,.76-4.7-.53-5.31-3.47q5.58-11.57,11.15-23.12a27,27,0,0,1,1.36-2.47c1-1.54,2.28-2.48,4.14-1.61S1491.31,588.87,1490.55,590.64Zm19-40.75a18.41,18.41,0,0,1-.26,2.06c-3.07,6.15-6.12,12.3-9.2,18.43-.74,1.49-1.47,3-2.3,4.42a2.6,2.6,0,0,1-2.93,1.51,3.21,3.21,0,0,1-2.46-3.12c-.15-1.75.83-3.17,1.5-4.69,2.08-4.78,4.84-9.27,6.18-14.36a10.73,10.73,0,0,0,2.93-5.42c.7-2.8,2.14-4.09,4.85-3.46S1509.59,548.13,1509.56,549.89ZM1521,525.4a73.05,73.05,0,0,1-3.79,6.72,2.48,2.48,0,0,1-3,1.27c-1.61-.44-1.35-1.72-1-2.84,2.48-7.9,5-15.76,7.5-23.66.87-2.82,2.68-4.27,6.33-4.7C1526.74,510.62,1524.21,518.1,1521,525.4Zm12.2-65.29c-.89,7.32-1.79,14.65-2.65,22-.26,2.12-.41,4.26-.6,6.38-.5.49-.92,1.22-1.52,1.45-3.8,1.46-4.51,1-4.48-2.92,0-1.16,0-2.31,0-3.49,1.07-6.56,2.15-13.13,3.18-19.72.29-1.88.22-3.95,1.58-5.37a4.29,4.29,0,0,1,3.18-1.14C1533.38,457.43,1533.36,458.88,1533.21,460.11Zm6.55-44.52c-.7,6.58-1.5,13.14-2.31,19.7a27.61,27.61,0,0,1-1.63,7.59c-.68,1.58-1.29,3.37-3.3,3-1.73-.36-1.42-2.19-1.47-3.56,0-.48,0-.95,0-2.6,1.08-7.25,2.34-15.66,3.59-24.06a3.88,3.88,0,0,1,.18-.69c.58-1.62,1.32-3.18,3.45-2.75C1540.23,412.58,1539.9,414.32,1539.76,415.59Z"/><path d="M913.28,496.39c-1.06-2.11-2.06-4.25-3.2-6.31-14-25.48-47.15-32.3-69.49-14.29-4.92,4-8.6,9.12-13,13.62-.39,1.74.4,3.79-1.37,5.17,0,1.46-.11,2.87-1.33,3.9-1.46,7.63-2.39,15.21-.55,23,1.26,5.32,3.67,10.08,5.93,14.94,1.07,1.23,2.2,2.42,3.22,3.69C845.69,555.11,861.82,560,880,556c17.85-3.92,29.3-15.84,34.07-33.64C916.37,513.71,915.12,505,913.28,496.39Zm-44,54.9c-25.44-.53-40.37-21.24-39.37-40.2a39.88,39.88,0,0,1,39.95-39.86c22.26,0,39.57,18,39.44,41C909.13,533.65,890.79,551.73,869.23,551.29Z"/><path d="M1050.05,465.67c-24.69-.21-45.15,20.48-45.4,45.6-.25,25.36,20.16,45.7,45.64,45.93a45.33,45.33,0,0,0,46-45.74C1096.21,485.49,1076.43,465.9,1050.05,465.67Zm1.44,85.74c-22.53.93-41-17.51-41.06-39.61a40.55,40.55,0,0,1,40.34-40.53,39.68,39.68,0,0,1,39.55,40.33C1089.85,535.59,1071.72,550.56,1051.49,551.41Z"/><path d="M972.49,812c.14,1.89-1.16,3-3.11,3.16-2.35.18-4.7.32-7.54.52v18.8c-2.93-4.73-2.3-8.48-2.39-12.06-.17-6.81-.11-6.81-6.63-7.17-.94-.06-1.9-.07-2.84-.19-1.84-.23-2.17-1.62-2.19-3.11s1-2,2.32-2.07c.47,0,.95,0,1.43-.06,7.83-.56,7.82-.56,7.83-8.07,0-10,0-20,.09-30,0-3,0-6,2.55-8.76v45.88c2.53,1.49,5,1.16,7.3,1.14C970.89,810.08,972.38,810.36,972.49,812Z"/><path d="M1415.47,610.82c-.13,3.32-.31,6.63-.4,9.94,0,1.51-.1,2.92-2,3.09s-2.41-1.18-2.47-2.69c-.2-4.75-.37-9.49-.48-14.25-.07-2.79,0-5.58,0-9.69-3.64,3.32-6.46,5.64-9,8.26s-4.84,2.64-7.66,1c-.12-2.2,1.34-3.43,2.81-4.67,5.83-4.9,11.51-9.94,16.15-16a6.43,6.43,0,0,1,5.54-2.69C1414,592.29,1415.13,601.58,1415.47,610.82Z"/><path d="M1353.2,575.57c-1.23,1.31-2.65.59-3.85-.16-6.62-4.11-11.64-9.55-14-17.15-.68-2.14-.25-4.76-2.59-6.22l0-2.56c2.69-3.42,1.66-7.73,2.79-11.53,2.31-.37,2.26-2.72,3.4-4.07,1.51-1.78,3.29-4.19,5.69-2.63,2.16,1.41.61,3.69-.57,5.44a11.24,11.24,0,0,0-.63,1.25c-5.32,8.79-3.41,22.44,3,28,2.12,1.86,4.11,3.9,6.07,5.94C1353.4,572.93,1354.53,574.14,1353.2,575.57Z"/><path d="M1431.25,714.18a44.08,44.08,0,0,1-2.23,6c-2.93,6.41-5.94,12.8-8.92,19.19-2.44,1.46-5,2.69-5.31,6.12-.1,1.1-.81,2.42-2.29,2.23-1.69-.22-2.32-1.65-2.37-3.1-.15-3.56-.1-7.14-.12-10.7,0-1.42,0-2.84,0-4.26,3.12-3.94,4,0,5.78,1.9,2.66-2.23,3.4-5.53,4.89-8.35,2-3.76,3.62-7.72,6.39-11a2.73,2.73,0,0,1,3.17-1C1431.56,711.7,1431.55,713.1,1431.25,714.18Z"/><path d="M961.51,350.15v71.53C958.83,415,958.91,356.7,961.51,350.15Z"/><path d="M960.85,626.4c-2.08-5.55-2-62.8.15-69.55C962.51,562.87,962.39,621.54,960.85,626.4Z"/><path d="M960.78,317.41c-1.84-5.18-1.86-61.2,0-69.14C962.49,253.54,962.52,312.11,960.78,317.41Z"/><path d="M960.91,729.36a2.28,2.28,0,0,1-.64-.2c-.39-.25-.53-.12-.58,0,0-.06,0-.17,0-.33q-.06-31.08-.08-62.17a41.6,41.6,0,0,1,.58-5.66c0-.36.55-.66.89-1.05C962.5,667.19,962.34,724.19,960.91,729.36Z"/><path d="M961.51,453v70.24a10.81,10.81,0,0,1-1.13-.21c-.21-.08-.57-.2-.59-.34a31.55,31.55,0,0,1-.4-4.21q.23-31.37.56-62.73C960,455.12,960.6,454.53,961.51,453Z"/><path d="M1391.46,494.1a2.81,2.81,0,0,1-3.2.91c-1.59-.41-3.15-1-4.7-1.59-7-2.52-14-4.88-21.45-4.72-4.23.09-4-2.22-3.65-5,10.62-1.79,20.59.58,30.29,4.71a23.53,23.53,0,0,1,2.07,1.91C1391.75,491.41,1392.61,492.59,1391.46,494.1Z"/><path d="M982.5,780.81c0,4.27,0,8.55,0,12.82,0,1.7.49,3.44-2.11,3.44-2,0-2.93-1-2.93-3.06,0-7.36-.07-14.73-.1-22.09,0-1.9.08-3.8.08-5.7,0-1.71.72-2.65,2.52-2.69,2.09,0,3,.91,2.91,3-.07,4.75,0,9.5,0,14.26Z"/><path d="M982.74,369.1c0,4.29-.12,8.57,0,12.85.09,2.12-.45,3-2.7,3s-2.74-1.15-2.72-3.12q.11-13.56.07-27.12c0-1.93.48-3.23,2.75-3.18s2.7,1.33,2.67,3.28c-.07,4.76,0,9.52,0,14.27Z"/><path d="M1490.55,590.64c-.28.64-.54,1.3-.84,2-3.86,8.23-7.22,16.69-11.82,24.57-3,.76-4.71-.53-5.31-3.47q5.58-11.57,11.15-23.11a27,27,0,0,1,1.36-2.48c1-1.53,2.29-2.48,4.15-1.61S1491.32,588.87,1490.55,590.64Z"/><path d="M982.58,643.07c0,4.5-.06,9,0,13.51,0,1.51.23,2.93-1.86,3-1.7,0-3.35.09-3.33-2.44.06-9.49.05-19,.06-28.45,0-1.85,1.08-2.46,2.72-2.42s2.6.76,2.59,2.58c0,4.75,0,9.49,0,14.23Z"/><path d="M980.23,705.19c-2.21-.05-2.82-1.25-2.82-3.15q0-13.81,0-27.63c0-2.13,1.25-3,3.15-2.93s2.22,1.45,2.23,2.94c0,4.73,0,9.45,0,14.17h0c0,4.49-.06,9,0,13.46C982.85,704,982.59,705.24,980.23,705.19Z"/><path d="M982.76,276.3v13.46c0,1.62.38,3.44-2.24,3.43-2,0-3.1-.7-3.1-2.85q0-13.81,0-27.63c0-2,.82-3.19,2.85-3.27,2.4-.09,2.5,1.72,2.52,3.4.05,4.48,0,9,0,13.46Z"/><path d="M982.67,506.26c0,4.5-.06,9,0,13.51,0,1.89-.81,2.5-2.52,2.46s-2.74-.38-2.74-2.33q0-14.23,0-28.47c0-1.79,1-2.49,2.66-2.52,2.16,0,2.84,1.07,2.81,3.11-.09,4.75,0,9.49,0,14.24Z"/><path d="M982.71,565.44c0,1.38-.38,2.3-1.86,2.36s-2.93,0-3.24-1.86a17.83,17.83,0,0,1-.2-2.82q0-12.07,0-24.13c0-.71,0-1.42,0-2.12a2.45,2.45,0,0,1,2.7-2.59c1.9-.07,2.38,1.29,2.4,2.79,0,5,0,9.93,0,14.9h.09C982.7,556.45,982.66,561,982.71,565.44Z"/><path d="M980.67,475.78c-2.45.08-3.25-1.44-3.22-3.68s-.09-4.27-.09-6.41c0-6.64,0-13.28,0-19.93,0-2.17.56-3.75,3.18-3.59s2.1,2.14,2.13,3.67c.08,4.51,0,9,0,13.53,0,4.26-.05,8.53,0,12.81C982.77,473.87,983.16,475.7,980.67,475.78Z"/><path d="M982.6,414.21c0,4.51,0,9,0,13.55,0,1.6-.19,2.83-2.19,2.78-1.57-.05-2.87-.42-2.88-2.33q-.07-14.26-.11-28.54c0-2.17,1.38-3,3.24-2.87s2,1.69,2.05,3.13c0,4.76,0,9.52,0,14.28Z"/><path d="M1509.56,549.88a18.29,18.29,0,0,1-.26,2.07q-4.6,9.22-9.19,18.44c-.75,1.48-1.48,3-2.31,4.41a2.6,2.6,0,0,1-2.93,1.51,3.21,3.21,0,0,1-2.46-3.12c-.15-1.74.83-3.17,1.49-4.69,2.09-4.78,4.85-9.27,6.19-14.37a10.62,10.62,0,0,0,2.93-5.41c.69-2.8,2.15-4.1,4.85-3.46S1509.58,548.13,1509.56,549.88Z"/><path d="M980.43,613.13c-2-.07-2.94-1.22-3-3.2,0-2.38-.1-4.75-.1-7.12q0-10,0-19.94c0-1.84.54-3.24,2.73-3.39,2.43-.16,2.65,1.45,2.66,3.2,0,4.75,0,9.5,0,14.24,0,4.28,0,8.55,0,12.82C982.83,611.52,982.9,613.2,980.43,613.13Z"/><path d="M980.69,750.45c-2.5.11-3.15-1.53-3.16-3.71,0-2.6-.16-5.21-.17-7.81,0-6.17,0-12.33,0-18.49,0-2.17.58-3.74,3.17-3.61s2.08,2.14,2.11,3.66c.07,4.5,0,9,0,13.51h0c0,4.26,0,8.53,0,12.78C982.71,748.46,983.18,750.33,980.69,750.45Z"/><path d="M980.67,338.5c-2.53.12-3.13-1.56-3.14-3.72,0-3.32-.17-6.65-.17-10,0-5.46,0-10.91,0-16.37,0-2.16.55-3.77,3.16-3.61s2.06,2.2,2.09,3.69c.1,4.51,0,9,0,13.52,0,4.27,0,8.54,0,12.81C982.73,336.54,983.16,338.4,980.67,338.5Z"/><path d="M1322.61,607.66h0Z"/><path d="M1338.1,610.83c-2.07,1.71-4.1,1.2-6.35.21-2-.89-3.9-2.53-6.41-1.85-.4-1.42-1.67-1.25-2.72-1.53,0-3.21-3.14-3.88-4.8-5.73-2.37-2.66-5.22-4.92-6.59-8.33a2.58,2.58,0,0,1,.66-3.23,2.49,2.49,0,0,1,3.25.18,13.7,13.7,0,0,1,2.12,1.9c5,5.59,11.06,9.69,17.61,13.2C1336.81,606.69,1339.6,607.51,1338.1,610.83Z"/><path d="M561.31,486.38c-5.68,3.73-12.68,2.77-18.8,5.23-2.22.89-4.86,1.37-7.17,2.35a12,12,0,0,1-4.69,1.25,3.93,3.93,0,0,1-3.25-2.34c-.68-1.2.87-1.95,1.33-2.94.85-1.8,3.78-.92,4-3.32,3.91.44,7.34-1.55,11-2.27a50,50,0,0,1,12.67-1.14C558.66,483.33,560.67,483.8,561.31,486.38Z"/><path d="M1429.64,553.61c-.79,4.2-1.51,8.42-2.42,12.59a23.84,23.84,0,0,1-1.66,4.67c-.56,1.29-1.74,1.47-3,1.18a2,2,0,0,1-1.41-2.19,26.7,26.7,0,0,1,.45-5.67,60.33,60.33,0,0,0,.83-20.58c.58-1.36-3-3.1.58-4.31,2.44-.82,4-.7,5.09,1.81C1429.85,545.14,1429,549.46,1429.64,553.61Z"/><path d="M602.19,502.32c-1.58,2.77-4.33,1.12-6.32.51-3.23-1-5.52-3.83-8.74-5.16-3.88-1.6-7.35-4.5-11.33-5.51-3.09-.78-3.27-2.77-3.17-4.48.16-3.07,2.85-1.19,4.42-1.53a9.46,9.46,0,0,1,1.41-.11c7.19,2,13.18,6.39,19.8,9.55.46.52,1,1,1.4,1.56C601,498.67,603.6,499.84,602.19,502.32Z"/><path d="M1533.21,460.11q-1.34,11-2.66,22c-.25,2.12-.4,4.25-.59,6.37-.5.5-.92,1.21-1.52,1.45-3.81,1.47-4.5,1-4.48-2.92,0-1.16,0-2.32,0-3.48,1.07-6.57,2.16-13.14,3.18-19.72.29-1.88.22-4,1.58-5.38a4.31,4.31,0,0,1,3.18-1.14C1533.38,457.43,1533.36,458.88,1533.21,460.11Z"/><path d="M595.07,211.36c-4.4.9-8.84,1.68-13.25,2.54-4,.77-7.89,1.59-11.51,2.32-1.93.17-3.13-.18-3.34-2.08-.17-1.57.2-3,1.79-3.42a83.91,83.91,0,0,1,8.29-2c5.83-1.05,11.67-2,17.52-2.89,1.75-.26,4.16-1,4.62,1.76C599.69,210.63,597.14,210.94,595.07,211.36Z"/><path d="M1383.52,611.74c-.87,2.56-2.94,3.45-5.35,4a89.89,89.89,0,0,1-24.71,1.58c-2.29-.15-4.24-.76-4.26-3.62a3.72,3.72,0,0,1,3.12-1.29,146.49,146.49,0,0,0,24.52-2.69C1379.3,609.21,1382.06,608.57,1383.52,611.74Z"/><path d="M1348,486.85c-.1,2.87-2.31,3.92-4.42,5-6.81,3.46-13.65,6.87-20.47,10.32a11.71,11.71,0,0,1-2.47,1.25c-1.15.26-2.76.31-3.28-.7a2.82,2.82,0,0,1,1-3.72,36.54,36.54,0,0,0,4-3.95c6-3.51,12-6.83,18.63-9l5.6-.21Z"/><path d="M574,856.65c-.79,1.16-1.92,1.11-3.13.58a54.61,54.61,0,0,1-12.6-8c-3.48-2.89-6.88-5.9-9-10-1.23-2.43-.16-5.07,1.79-5a2.89,2.89,0,0,1,2.33,1.43c5.06,6.78,11.72,11.72,18.63,16.38a10.76,10.76,0,0,1,1.66,1.33A2.39,2.39,0,0,1,574,856.65Z"/><path d="M387.2,445.45a2.72,2.72,0,0,1-3.16-2.22c-1.67-9.31-3.28-18.63-3.51-28.12,0-1.49.23-2.91,2.22-2.86,1.84.05,2.28,1.4,2.52,2.87,1,6.07,2,12.13,2.92,18.2.46,3,.75,6.11,1.13,9.16C389.55,444.14,389,445.34,387.2,445.45Z"/><path d="M395.14,483.55v7.05c-3.33.43-5.74.15-5.81-3.81a4.72,4.72,0,0,0-1-3.23,127,127,0,0,0-1.32-19.1c-.15-1.17-.14-2.36-.19-3.54-.08-1.69-.17-3.71,1.88-4,2.35-.37,3.27,1.45,3.49,3.55q1,9.51,1.94,19.05C394.28,480.89,394.23,482.33,395.14,483.55Z"/><path d="M543.24,823.42a2.13,2.13,0,0,1-2.59-.52,19.31,19.31,0,0,1-4.1-5.74q-4.77-9.48-9.59-18.94c.2-1.53-.64-3.52,1.75-4.08,2.2-.51,3.44.35,4.31,2.52.47,1.17.71,2.84,2.29,3.39,2.29,5.18,4.61,10.36,6.86,15.55a50.36,50.36,0,0,1,1.92,5.32A2.18,2.18,0,0,1,543.24,823.42Z"/><path d="M1539.76,415.6c-.69,6.57-1.5,13.13-2.32,19.69a26.9,26.9,0,0,1-1.63,7.59c-.67,1.58-1.27,3.37-3.29,3-1.73-.36-1.42-2.18-1.47-3.56,0-.48,0-.95,0-2.59,1.08-7.26,2.34-15.67,3.59-24.07a3.88,3.88,0,0,1,.18-.69c.58-1.62,1.32-3.18,3.45-2.75C1540.23,412.58,1539.9,414.32,1539.76,415.6Z"/><path d="M1353.12,214.24c-.48,2.28-2.43,1.82-4.06,1.53-8.17-1.48-16.35-3-24.5-4.49-1.84-.34-4-.59-3.55-3.38.47-3,2.79-1.68,4.61-1.92A193.13,193.13,0,0,1,1350,210.4C1352.1,210.91,1353.6,211.91,1353.12,214.24Z"/><path d="M1369,842.1a63.8,63.8,0,0,1-16.92,14.07,5.83,5.83,0,0,1-4,1.11c-.9-.16-1.91-.31-2.33-1.38a2.28,2.28,0,0,1,.58-2.58,5.31,5.31,0,0,1,1.06-1,84.71,84.71,0,0,0,19.85-17.24,2.48,2.48,0,0,1,2.47-1c.86.19,1.51,1.49,1.48,2.91C1371.4,839.1,1370.21,840.65,1369,842.1Z"/><path d="M1389.58,555c-2.12,8.78-6.82,15.58-15.21,19.38-2.45,1.12-5.06,2.76-8.3.6.65-3.08,3.49-3.53,5.48-4.83,6.6-4.3,11.72-9.61,12.38-18C1387,550.89,1388.19,553.1,1389.58,555Z"/><path d="M1415.44,484.94c-1.85,3.25-3.72,2.47-5.61,0q.42-12.84.82-25.7c0-1.43,0-2.86.21-4.28a1.75,1.75,0,0,1,1.93-1.64,1.8,1.8,0,0,1,2,1.61c.2,1.89.21,3.8.24,5.71Q1415.25,472.8,1415.44,484.94Z"/><path d="M1415.18,712.73c0,1.66-.48,2.8-2.2,3s-2.61-.93-2.64-2.56c-.2-9.47-.29-18.94.37-28.39.09-1.3.73-2.28,2.2-2.19s1.86,1.24,1.87,2.48c0,4.73,0,9.46,0,14.2h.36C1415.15,703.74,1415.1,708.23,1415.18,712.73Z"/><path d="M941.63,427c0,2.07-.89,3.09-3,3.06-1.82,0-2.47-1.13-2.47-2.76q0-13.9-.05-27.81c0-1.94,1.26-2.31,2.84-2.19s2.64.73,2.61,2.61c-.06,4.75,0,9.51,0,14.26h0C941.62,418.42,941.57,422.7,941.63,427Z"/><path d="M941.64,289.42c0,1.93-.52,3.22-2.7,3.31s-2.77-1.32-2.77-3.19c0-9,0-18.06,0-27.1,0-1.88,1-2.54,2.61-2.48s2.84.42,2.84,2.35q0,6.78,0,13.55h0C941.62,280.38,941.58,284.9,941.64,289.42Z"/><path d="M942,539.62c-.63,9.35.5,18.75-.54,28.11-3.38,0-5.66-.7-5.45-5.12.38-8,.15-16.09.15-24.13,0-1.68,0-3.34,1.4-4.56C940.11,534.94,942.2,535.82,942,539.62Z"/><path d="M982.46,231.92c0,4.29-.06,8.57,0,12.85,0,1.63-.17,2.79-2.11,2.82-1.55,0-2.87-.21-2.87-2.2q0-14.28,0-28.56c0-1.8.91-2.57,2.61-2.57s2.52,1,2.52,2.67v15Z"/><path d="M1391.82,797.91q-5.07,10.13-10.15,20.23c-.85,1.68-1.45,3.54-3.08,4.68-.53.38-1.2,1-1.86.26-.45-.49-1.12-1.25-1-1.7.57-2,1.37-4,2.13-6,2-5.26,5.59-9.89,6.46-15.63,1.56-1.14,1.83-3.08,2.82-4.58s2.52-1.3,3.77-.93C1392.92,794.89,1391.73,796.63,1391.82,797.91Z"/><path d="M941.67,472.48c0,2.39-1.33,2.68-3.11,2.72s-2.48-.91-2.46-2.62c0-4.5,0-9,0-13.48h.06V445.63c0-1.55.37-2.95,2.22-2.93s3.22.55,3.21,2.83C941.57,454.51,941.55,463.5,941.67,472.48Z"/><path d="M1415.16,575c0,1.89-.52,3.47-2.56,3.57-2.27.1-2.46-1.74-2.49-3.48q-.25-10.71-.51-21.41a20,20,0,0,0,.31-3.42c-.36-3.9,1.84-4.76,5.08-4.54C1415,555.43,1415.08,565.19,1415.16,575Z"/><path d="M1451.36,672.37c-3.89,8-7.74,16.08-11.69,24.08-.74,1.52-1.21,4.18-3.83,2.76-2.22-1.22-1.11-3.42-.39-5,2.13-4.71,4.48-9.32,6.72-14,.4-.85.63-1.77.95-2.66,1.43-2.17,2.61-4.57,4.36-6.44C1449.06,669.41,1450.89,669.39,1451.36,672.37Z"/><path d="M941.93,612.28c-5.8-.13-5.85-.13-5.87-5.49,0-7.33.28-14.65,0-22-.17-4.16,1.62-5.39,5.28-5.18C942.6,590.5,941.53,601.4,941.93,612.28Z"/><path d="M1304.44,579.76c-1.53.75-2.73-.21-3.49-1.54-3.21-5.66-4.61-11.91-5.7-18.24-.37-2.1-.54-4.23-.8-6.34.08-.93.1-1.87.25-2.78.17-1.16.37-2.38,1.88-2.5s2.73.29,3.13,2c.25,1.11.64,2.19,1,3.29-.19,5.53,1.07,10.83,2.63,16.07.68,2.27,1.33,4.55,1.88,6.85C1305.47,577.73,1305.68,579.16,1304.44,579.76Z"/><path d="M941.77,749.49c-5.52.19-5.58.19-5.62-4.76-.06-7.56.24-15.13-.13-22.67-.21-4.28,1.75-5.25,5.3-5.09C942.6,727.79,941.51,738.65,941.77,749.49Z"/><path d="M941.62,493.89c0,9.27,0,18.55,0,27.82-3.23.64-5.81.31-5.79-3.89.1-8.07.18-16.15.3-24.22,0-2-.71-4.51,2.87-4.36S941.61,492,941.62,493.89Z"/><path d="M941.64,793.92c0,1.57-.37,2.75-2.31,2.75s-3.09-.91-3.11-2.93c-.05-5,0-9.93-.11-14.89,0-2.59-.16-5.19-.25-7.78a35.82,35.82,0,0,0,.31-4.61c-.1-2.11,1.19-2.58,2.81-2.83,1.36.42,2.67.71,2.65,2.65C941.58,775.5,941.63,784.71,941.64,793.92Z"/><path d="M939,384.79c-2.12,0-2.93-.87-2.92-2.93,0-9,0-18.06,0-27.09,0-1.42,0-2.88,2.1-2.93,2.36,0,3.44.91,3.39,3.36-.09,4.51,0,9,0,13.54h0c0,4.28,0,8.56,0,12.83C941.67,383.43,941.4,384.79,939,384.79Z"/><path d="M941.64,334.57c0,1.9-.4,3.15-2.68,3.22s-2.86-1.08-2.85-3q.06-13.2.06-26.39c0-2,.65-3.18,2.91-2.95s2.57,1.61,2.54,3.49c-.07,4.51,0,9,0,13.54h0C941.62,326.48,941.58,330.52,941.64,334.57Z"/><path d="M941.61,244.19c0,1.81-.24,3.2-2.58,3.27s-2.82-1.13-2.82-3c0-9,0-18,0-27,0-1.43-.05-2.94,2.06-2.93,1.85,0,3.27.46,3.27,2.7q0,7.1,0,14.19h.07C941.6,235.68,941.59,239.94,941.61,244.19Z"/><path d="M941.87,659.47c-5.71-.34-5.75-.34-5.79-5.76-.05-7.35-.07-14.71,0-22.06,0-4.83.12-4.83,5.69-5Q941.82,643,941.87,659.47Z"/><path d="M941.52,705.1c-3.82,0-5.89-1.16-5.6-5.77.48-7.52.1-15.07.21-22.61.06-4.8.16-4.8,5.87-4.4C941.61,683.24,942.53,694.18,941.52,705.1Z"/><path d="M509.66,379.2h0c0,4.53,0,9.06,0,13.59,0,1.51-.3,3-2.26,2.82-1.44-.13-1.81-1.35-1.83-2.62,0-3.34-.07-6.67-.07-10q0-8.93,0-17.87c0-1.42.05-3,2-3.13s2.12,1.48,2.13,2.93C509.68,369.67,509.66,374.44,509.66,379.2Z"/><path d="M509.68,438.75c0,1.19-.1,2.52-1.66,2.64-1.85.13-2.41-1.15-2.42-2.73q0-11,0-22.05c0-2.13,0-4.27,0-6.4,0-1.31.66-2.31,2.1-2.31s1.9,1.15,1.91,2.4c0,5,0,10,0,14.94h.05C509.68,429.74,509.71,434.25,509.68,438.75Z"/><path d="M509.76,288.36h-.05c0,4,0,8.06,0,12.09,0,1.59.3,3.68-2.2,3.54-1.83-.1-1.91-1.77-1.93-3.23,0-2.13-.05-4.27-.06-6.4,0-6.63-.07-13.27,0-19.9,0-1.5-.6-3.64,1.91-3.79s2.33,1.86,2.35,3.47C509.79,278.88,509.76,283.62,509.76,288.36Z"/><path d="M509.63,346c0,1.6.33,3.67-2.18,3.49-1.78-.13-1.92-1.75-1.91-3.25,0-4.73,0-9.46,0-14.19,0-4.26,0-8.52,0-12.78,0-1.43.08-3,2-3.17s2.11,1.47,2.11,2.93c0,4.73,0,9.46,0,14.19C509.64,337.46,509.66,341.72,509.63,346Z"/><path d="M510.37,484.93c-1.85,2.15-3.71,1.56-5.58,0,.19-8.81.32-17.62.61-26.43.06-1.87-1-5,2.19-5s2.1,3.14,2.17,5C510.06,467.32,510.19,476.13,510.37,484.93Z"/><path d="M961.15,546.83c-1.79-5.69-1.76-6.64-.17-13C962.82,538.7,961.69,542.83,961.15,546.83Z"/><path d="M960.75,752.56c-1.6-4.2-1-8.33.29-12.45C962,744.29,962.53,748.46,960.75,752.56Z"/><path d="M960.75,340.57c-1.6-4.19-1-8.32.3-12.43C962,332.31,962.53,336.48,960.75,340.57Z"/><path d="M961.49,432v11.73C959,439.82,959.74,435.91,961.49,432Z"/><path d="M961.46,637.47v12.7c-.33,0-.66-.07-1-.09V637.51Z"/><path d="M961.3,238.17c-1.56-4.12-1.21-8.4-.4-12.67C962.41,229.64,961.38,233.86,961.3,238.17Z"/><path d="M509.35,747.92c-2.33.31-3.79-.51-5.18-2.61-6.15-9.28-10.44-19.47-14.88-29.58-.64-1.46-1.91-3.32.13-4.34a3.43,3.43,0,0,1,4.79,1.85c1.85,3.84,3.62,7.73,5.4,11.61,1.18,2.57,1.8,5.4,4,8,1.65-2,1.62-6.43,5.85-4.54A55.46,55.46,0,0,1,509.35,747.92Z"/><path d="M585.77,555.06c-2,7.28-5.56,13.58-11.67,18.23a32.38,32.38,0,0,1-3.53,2.36c-1,.56-2.24,1.13-3.25.11-1.28-1.27-.68-2.75.26-3.81,1.74-1.94,3.79-3.59,5.56-5.49,5.29-5.66,8.41-12,6.11-20,.35-.8,0-1.27-.73-1.6-.28-2.64-2.94-4.23-3-6.94.76-2.26-2.08-5.79,1.43-6.78,3.12-.87,4,2.86,5.24,4.85C585.71,541.8,586.05,548.42,585.77,555.06Z"/><path d="M518.58,502.53c-.39,2.57-2.51,4-4.26,5.47-3.05,2.51-4,5.62-4,9.35,0,4-.18,8-.32,12.06-.06,1.76-.42,3.35-2.77,3.12-1.76-.17-2.4-1.4-2.45-2.93s.13-3.28.22-5a2.7,2.7,0,0,0-3.25.46c-1.82,1.66-4.14,2.13-5.73.7-1.89-1.71.56-3.17,1.36-4.7,1.81-3.46,3-7.16,5.64-10.3,2.48-3,2.16-7.09,2.26-11.34,3.83.68,7.17,2.3,10.8.17C518,498.46,518.87,500.64,518.58,502.53Z"/><path d="M514.21,773.62l0,0v0Z"/><path d="M524.08,782a2.65,2.65,0,0,1-3.72-.95,26,26,0,0,0-5-5.75c.27-1-.34-1.42-1.15-1.68-2.13-5.19-4.28-10.35-6.38-15.55-1-2.45-2.56-5.17,1.88-5.92,2.18,0,3.34,1.28,4.28,3.09,3.89,7.56,7.48,15.26,10.64,23.15C525.27,779.91,525.58,781.17,524.08,782Z"/><path d="M425.16,576c-2.11,1.1-2.92-1.06-3.58-2.36-2.7-5.27-5.1-10.68-7.82-15.94-1-2-1.23-4.69-3.85-5.65a5.19,5.19,0,0,1,.11-1.38c.7-1.9-1.12-5.12,2.53-5.48,3.17-.31,3,2.84,4.21,4.58.85,1.29,1.62,2.64,2.42,4,1.85,4.6,3.71,9.19,5.52,13.8.52,1.33.85,2.72,1.34,4.05C426.66,573.28,426.91,575.1,425.16,576Z"/><path d="M625.87,553a79.13,79.13,0,0,1-3.38,17.44,39.92,39.92,0,0,1-2.36,5.94c-.91,1.88-2,4.44-4.53,3.41s-.71-3.23-.29-5c1.19-5.06,3.5-9.88,3.3-15.24a2.26,2.26,0,0,0,.64-2.74,6.06,6.06,0,0,0,.44-3.75c.12-.45.24-.9.37-1.34.35-1.2-.73-3,1.2-3.51a3.27,3.27,0,0,1,4,2.07A14.2,14.2,0,0,1,625.87,553Z"/><path d="M622.29,542.82c-1.58.24-3.28.82-3.85-1.56-.09-.39-.9-.67-.9-1,0-8.83-5.24-15.94-7.86-23.91-.45-1.41-1.1-2.83.33-3.72s2.77.3,3.64,1.36c4.37,5.35,7,11.62,8.9,18.17.74,2.47,1.2,5,1.6,6.73C624.49,541.31,624.13,542.54,622.29,542.82Z"/><path d="M406,533.54c-1.85.82-3.06,0-3.91-1.85-3.66-7.7-7.35-15.39-9.38-23.72a10.42,10.42,0,0,1,0-4.2c.16-.91,1.1-1.48,2.55-1.3,1.24.22,2.06,1.37,2.55,2.74,3,8.2,6,16.4,8.81,24.65C407.07,531,407.85,532.74,406,533.54Z"/><path d="M553.82,574.87c-.37,1.5-1.7,1.59-2.83,1.26-7.19-2.12-13.66-5.31-17.24-12.43-1-1.89-1.77-3.85-2.65-5.79a1.36,1.36,0,0,0,.1-.51c-.09-.31-.24-.61-.36-.92,0-.94,0-1.89,0-2.84,1.53-.63,2.41-3.39,4.72-1.44a1.62,1.62,0,0,0,1,1.87h0c1,6.77,4.89,11.61,10.5,15.2,1.78,1.15,3.63,2.2,5.42,3.33C553.35,573.12,554.08,573.84,553.82,574.87Z"/><path d="M497.29,571.84c-3.74.94-3.84-3.31-4.58-5.85-1.49-5-1.32-10.35-2-15.52a43.14,43.14,0,0,0,.58-7c-.2-2.95,1.24-4.58,3.75-4.65,3.42-.08,1.76,3.15,2.5,4.85-1.24,7.14-.26,14.18.8,21.25C498.72,567.25,500.34,571.07,497.29,571.84Z"/><path d="M564.2,526.17c0,1.22-.88,1.53-1.86,1.7-2.11.36-4.23.69-6.34,1.08-5.64,1-10.8,3-14.71,7.51a17.2,17.2,0,0,1-2.66,2.37,2.4,2.4,0,0,1-2.68.2c-.84-.53-.9-1.51-.73-2.54.77-4.58,3.74-7.43,7.39-9.88,4.26-2.86,9.13-3.16,13.59-3.8,2.5.1,4.68,0,6.64,1.07A2.32,2.32,0,0,1,564.2,526.17Z"/><path d="M507.87,578.55c-3.65.08-2.77-3.71-2.85-6.13-.31-9-.48-17.94-.7-26.9,5.66,1.54,5.66,1.54,6.12,8.12-.17,6.37-.23,12.74-.57,19.09C509.76,574.82,511.09,578.47,507.87,578.55Z"/><path d="M526.29,606c-1.2,2-2.91,2.12-4.89,1-3.76-2.1-6.57-5.32-9.58-8.3l-1.81.4c0,6.1,0,12.19,0,18.29a34.48,34.48,0,0,1-.25,5c-.15,1.09-1.15,1.38-2.18,1.3s-2-.09-2.18-1.3a24.86,24.86,0,0,1-.25-3.56c-.05-5.48,0-11-.1-16.44-.11-6.29,1.39-12.82-3.65-18.56,3.67-1.47,5.27.54,6.57,2.3a69.37,69.37,0,0,0,16.72,16.47C525.75,603.29,527.35,604.17,526.29,606Z"/><path d="M466.2,655.66a3.33,3.33,0,0,1-1.85,2.92c-1.3.56-2.26-.13-3.07-1a9.08,9.08,0,0,1-1.22-1.74,260.83,260.83,0,0,1-11.21-23.74c-.68-1.58-1-3.23,1.16-4.15a2.89,2.89,0,0,1,4.15,1.44,211.31,211.31,0,0,1,11.57,24.32A14.47,14.47,0,0,1,466.2,655.66Z"/><path d="M435.54,607.66l0,0v0Z"/><path d="M443.11,617.51c-2.67-2.29-3.21-6.24-6.39-8.12.29-1-.31-1.44-1.13-1.71.42-2.73-.77-5-1.86-7.39-1.47-3.21-2.88-6.46-4.09-9.77-.57-1.59-.53-3.31,1.69-3.95,1.5-.45,2.89-.42,3.65,1.12,4.18,8.46,8.66,16.78,11.58,25.79C447.49,616.39,445.39,617.13,443.11,617.51Z"/><path d="M609.62,592.47a15.63,15.63,0,0,1-1.44,2.6,55.76,55.76,0,0,1-21.85,16.64c-1.33.59-2.79,1-3.6-.75-.73-1.59-1.14-3.37.85-4.3,8.1-3.79,14.44-9.86,21-15.66C606.93,589,609.46,589.68,609.62,592.47Z"/><path d="M566.91,616.91c-2.36.2-4.73.31-7.22.47-6.24-.59-12.65-.63-18.92-2.13-2.22-.52-4.46-.69-3.87-3.76.55-2.87,2.8-2,4.53-1.66a102.4,102.4,0,0,0,25.4,2.59c1.33,0,3-.5,3.24,1.65C570.3,616.4,568.65,616.78,566.91,616.91Z"/><path d="M484.45,699.49a2.21,2.21,0,0,1-3-1.16c-4.33-8.63-9.19-17-11.9-26.4-.17-.61.18-1.36.4-2.78,1.32.69,2.17.84,2.46,1.32a189.35,189.35,0,0,1,12.67,25.32C485.61,697,486.14,698.68,484.45,699.49Z"/><path d="M509.9,712.07c0,1.64.19,3.53-2.21,3.68s-2.57-1.59-2.56-3.34c0-8.79,0-17.58.12-26.36,0-1.6-.18-3.61,2.42-3.37,2.32.22,2.21,2.1,2.24,3.74,0,4.27,0,8.55,0,12.82S509.93,707.79,509.9,712.07Z"/><path d="M509.9,667.24c0,1.7-.64,2.66-2.51,2.5a2,2,0,0,1-2.07-2.27q0-14.26,0-28.54a2,2,0,0,1,2.09-2.26c2-.07,2.37,1.18,2.37,2.74,0,4.76,0,9.51,0,14.27h.09C509.89,658.21,509.88,662.72,509.9,667.24Z"/><path d="M1118.41,179.92c-5.92-.43-11.84-.84-17.76-1.31a28.07,28.07,0,0,1-4.93-.74,2.45,2.45,0,0,1-1.83-2.7,2.08,2.08,0,0,1,2.44-2c3.8.1,7.6.18,11.39.43,5.22.34,10.43.77,15.64,1.26,1.66.16,3.44.5,3.39,2.8-.07,2.87-2.14,2.62-4.07,2.53-1.42-.06-2.85-.18-4.27-.27Z"/><path d="M1212.88,191.74l-23.47-3.89a16,16,0,0,1-2.75-.67,2.37,2.37,0,0,1-1.47-2.86,2.1,2.1,0,0,1,2.55-1.85c9.36,1.28,18.7,2.6,28,4a2.6,2.6,0,0,1,2.29,3.64C1217.18,192.63,1214.89,191.4,1212.88,191.74Z"/><path d="M1140.13,177c10.08,1.16,19.74,2.25,29.39,3.41,1.62.19,3.63.53,3.49,2.7-.16,2.34-2.06,3.07-4.16,2.81-8.49-1.07-17-2.15-25.44-3.41C1141.06,182.19,1139.64,180.61,1140.13,177Z"/><path d="M1065.87,176.2c-5-.36-9.94-.7-14.9-1.08-2.1-.16-3.79-.85-3.36-3.41s2.5-1.61,4-1.58c7.82.19,15.67.06,23.45,1.12,1.41.19,2.84.27,4.23.54a2.93,2.93,0,0,1,2.63,2.9c0,2.09-1.91,1.75-3.21,1.78-4.26.09-8.53,0-12.79,0Z"/><path d="M1020,173.1c-4,0-8.07,0-12.11,0-1.4,0-2.93.1-4-1a3.6,3.6,0,0,1-.82-3.29c.21-1.28,1.23-1.28,2.14-1.24,9.25.38,18.51.81,27.76,1.18,2,.08,3.17.95,3,3s-1.83,1.77-3.17,1.78c-4.27,0-8.55,0-12.82,0Z"/><path d="M1262.31,199.32c-8.85.13-17.14-3.25-25.83-4.17-.94-.1-1.88-.15-2.81-.23-1.29-.59-2.66-1.1-2.86-2.8-.22-1.9.09-3.42,2.54-2.94,9.27,1.8,18.55,3.61,27.8,5.49C1264.6,195.37,1263.72,197.32,1262.31,199.32Z"/><path d="M901.61,167.68h12.76c1.41,0,2.92-.23,3,1.92.06,1.86-.35,3.28-2.55,3.43l-.7.05c-9,.28-18,.51-27,.88-2.2.08-2.92-.77-2.92-2.85,0-2.31,1.27-2.71,3.18-2.69,4.73.05,9.46,0,14.19,0Z"/><path d="M775.31,177.42c1,0,1.9-.13,2.85-.14s1.82.34,2,1.5a2.45,2.45,0,0,1-.87,2.54,14.43,14.43,0,0,1-4.63,1.72c-7.76,1.06-15.54,2-23.32,2.87-1.76.19-4,.83-4.2-2.22-.16-2.51,1.28-3.22,3.45-3.48,8.26-1,16.5-2,24.74-3Z"/><path d="M818.27,173c.85,0,2.74,0,4.64,0,.91,0,2-.16,2.44.84a3.07,3.07,0,0,1-.85,3.25c-1,1.19-2.49,1.29-3.89,1.4-8,.67-16.06,1.34-24.1,1.89-1.68.12-4,1-4-2.23,0-2.87,1.77-3.39,4.18-3.54C803.5,174.22,810.36,173.64,818.27,173Z"/><path d="M855.93,170.28h11.38c1.65,0,3.49-.28,3.5,2.26s-1.5,3-3.7,3.08c-8.29.27-16.57.66-24.86,1.07-2.22.11-3.63-.44-3.7-3-.07-2.37,1.4-2.75,3.17-2.76,4.74,0,9.48,0,14.21,0Z"/><path d="M705.91,191.7c-1.93-.06-3.59.37-4.14-1.39a2.8,2.8,0,0,1,2.23-3.8,157.73,157.73,0,0,1,28.2-3.77c1.31,0,2.42.41,2.44,1.88a2.5,2.5,0,0,1-1.9,2.65c-1.84.47-3.68,1-5.55,1.27C719.92,189.67,712.63,190.71,705.91,191.7Z"/><path d="M422.37,254.43c-4.48,3.48-10,5-14.73,8.12-2.31,1.52-5,2.5-6.71,4.88-.62.32-1.22.7-1.86,1-1.76.74-3.54,3.13-5.33.13-1.57-2.62.64-3.88,2.16-5.22,6.12-5.38,13.24-8.91,20.85-11.8C420.53,250.07,421.12,252.29,422.37,254.43Z"/><path d="M1522.71,270.3c-7.38-6.16-15.3-11.38-24.61-14.18.49-5.6.54-5.75,5-4.4a53.6,53.6,0,0,1,21.86,12.94C1528.18,267.8,1527.77,268.64,1522.71,270.3Z"/><path d="M1469.94,631.82a228.44,228.44,0,0,1-10.2,25c-.89,1.91-2.69,1.83-4.31,1.31-2.28-.72-1.75-2.83-1.19-4.18,2.47-5.89,5.17-11.69,7.87-17.49a72.14,72.14,0,0,1,3.65-6.9c.73-1.2,1.83-2.45,3.47-1.62C1470.49,628.59,1470.12,630,1469.94,631.82Z"/><path d="M1415.12,667.31c0,1.69-.64,2.78-2.42,2.7-1.54-.07-1.81-1.31-1.81-2.54q-.08-14.24-.06-28.47c0-1.21.28-2.4,1.89-2.44s2,1,2,2.28c0,5,0,10,0,14.94h.35C1415.11,658.29,1415.09,662.8,1415.12,667.31Z"/><path d="M1411.86,757c-3.53,7.51-7.09,15-10.74,22.46-.69,1.42-1.33,3.15-4.35,3-.92,0-1.81-1.15-1.57-2.72a17.08,17.08,0,0,1,1.59-4.67c3.25-6.86,6.57-13.68,9.87-20.51,1-2,2.56-2.88,4.66-1.86S1412.55,755.49,1411.86,757Z"/><path d="M1422.69,525.92c-2.33,2.1-4.22-.71-6.14-1.85-.18-.1-.47,0-.78,0-1.13,2-.46,4.11-.63,6.15-.15,1.86-1.33,2.37-2.89,2.31a2.1,2.1,0,0,1-2.15-2.29c-.09-3.56-.36-7.15-.1-10.69.32-4.33-.73-7.93-4-10.9a21.32,21.32,0,0,1-3.21-3.81c-.92-1.38-1.82-3.19-.75-4.63,1.29-1.71,3-.51,4.44.28s2.82,1.22,4.5-.17c2.41-2,4.28-.9,4,2.05-.62,6.41,2.15,11.42,5.83,16.19a2.5,2.5,0,0,1,.4.58C1422,521.36,1425.41,523.43,1422.69,525.92Z"/><path d="M1309.86,516.77a132.35,132.35,0,0,0-9.19,21.91,21.87,21.87,0,0,1-1.22,2.54,2.36,2.36,0,0,1-2.31,1.37,2,2,0,0,1-1.56-2.1c0-.94,0-1.89,0-2.84,1.78-8.48,3.58-16.88,9.21-23.94a3.77,3.77,0,0,1,5-1.15C1311.73,513.49,1310.7,515.19,1309.86,516.77Z"/><path d="M1385.09,536.75c-.1,1.73-.85,2.46-2.26,2.4a4.21,4.21,0,0,1-3-1.7c-5.21-6.25-12.33-8.45-20-9.47-1.54-.2-3.73.32-3.68-2.16,0-2,1.74-2.52,3.55-2.72,9.76-1,17.64,2.32,23.54,10.16A22.15,22.15,0,0,1,1385.09,536.75Z"/><path d="M1527.05,502.18c-.31,8.43-2.83,15.92-6,23.22a73.05,73.05,0,0,1-3.79,6.72,2.48,2.48,0,0,1-3,1.27c-1.61-.45-1.35-1.72-1-2.84,2.49-7.9,5-15.76,7.5-23.66C1521.61,504.07,1523.42,502.62,1527.05,502.18Z"/></g><g id="Capa_3" data-name="Capa 3"><path d="M1142.48,291.88v111h-19.82V332.17l-19.51,14.91L1087,359.61l-16.18-12.53-19.51-14.91v70.74h-19.83v-111l19.83,15.23L1087,334.55l35.69-27.44Z"/><path d="M1196.41,328.84v75.5h-19.83V326.78a15.8,15.8,0,0,0-13.48-13.48h-4.45V293.63h4.29v.16a35.35,35.35,0,0,1,29.5,19.82,42.36,42.36,0,0,1,2.7,7.46,33.47,33.47,0,0,1,.95,8.09Z"/><path d="M1282.05,291.88a35.81,35.81,0,0,1,35.85,35.85v39.18a35.82,35.82,0,0,1-35.85,35.85h-34.26A35.82,35.82,0,0,1,1212,366.91V327.73a35.81,35.81,0,0,1,35.84-35.85Zm-34.26,19.83a16.24,16.24,0,0,0-16.17,16.18v39.18a16.24,16.24,0,0,0,16.17,16.18h34.26a16.25,16.25,0,0,0,16.18-16.18V327.89a16.25,16.25,0,0,0-16.18-16.18Z"/><path d="M1372,328.84v75.5h-19.82V326.78a15.81,15.81,0,0,0-13.48-13.48h-4.45V293.63h4.29v.16a35.35,35.35,0,0,1,29.5,19.82,41.54,41.54,0,0,1,2.69,7.46,33,33,0,0,1,1,8.09Z"/><path d="M1498.4,325.51a32.67,32.67,0,0,1-9.2,22.84,32.76,32.76,0,0,1-23.48,55.52h-78.19V384h78.19a13.07,13.07,0,0,0,13-13,12.9,12.9,0,0,0-12.21-13h-59V338.2h59a13,13,0,0,0-.64-26h-78.19V292.36h78.19A32.63,32.63,0,0,1,1498.56,325Z"/></g></g></svg>