<svg xmlns="http://www.w3.org/2000/svg" viewBox="0 0 1920 1080"><defs><style>.cls-1{fill:#f2f2f2;}.cls-2{fill:#010101;}.cls-3{fill:#ccc;}</style></defs><g id="Capa_2" data-name="Capa 2"><g id="Capa_1-2" data-name="Capa 1"><rect class="cls-1" width="1" height="1"/><rect class="cls-1" x="1919" y="1079" width="1" height="1"/><rect class="cls-1" y="1079" width="1" height="1"/><rect class="cls-1" x="1919" width="1" height="1"/><path class="cls-1" d="M1439,385.86c-47.66-13.48-96.15-23.31-144.72-32.78q-54.57-10.65-109.77-17.25c-25.52-3.08-51.1-5.69-76.67-8.28a112,112,0,0,0-24.21.22c-21.42,2.46-40.06,11.12-56.76,24.61-14.91,12-32.26,18.58-51.16,21.26,0,0-13.88,1.08-24.82.68-24-2-44.85-11.63-63.91-26.26a103.35,103.35,0,0,0-71.41-20.57c-38.5,3.15-76.93,7.32-115.12,13C643,349,586.16,360.12,529.71,373.36c-20.3,4.76-40.8,9-60.3,16.82-39.64,15.85-67.56,61.06-60.82,105.54a166,166,0,0,0,8.5,31.83Q458.78,642.29,500.63,757c5.65,15.49,10.56,31.29,18.53,45.83,20.54,37.55,64.83,58.5,106.41,49.47,38.33-8.34,76.4-17.92,115.21-24,48.65-7.55,97.44-14,146.66-16.24q61.13-2.7,122.32-.82c56.32,1.73,112,8.63,167.53,17.16,36.26,5.56,72.08,13.48,107.66,22.43,18.51,4.64,37.06,4.88,55.47-.66,35-10.5,57.57-33.76,69.88-67.68q47.39-130.8,94.86-261.58c3.13-8.61,5.93-17.39,6.8-26.57C1516.33,448.11,1489.18,400.06,1439,385.86Zm-887,360.28c-13.35-18.42-11.94-58.64,2.27-79.5-2.48,13.33-9.12,25.65-9,39.69C545.22,720,550,732.72,551.92,746.14Zm50.13,45.15a72.67,72.67,0,0,1-10.27-3.62c-10.69-5.13-21.18-10.6-28-21,3.1-2,4.9-.25,6.37,1.22,8,7.89,17.62,12.9,28,16.83a33,33,0,0,1,5.72,3.12,2.35,2.35,0,0,1,.6,1.88A1.8,1.8,0,0,1,602.05,791.29Zm-32-142.91c5.67-12.09,27.12-23.36,42.48-22.48C598.1,632.24,584.18,638.92,570.06,648.38Zm55.48,143.4c17-1.49,31.32-5.79,45.48-10.69C658.76,792.65,637,798,625.54,791.78ZM635,626.1c14.64-4.6,37.55,4.2,42.86,17.2C664,635.15,650.7,628.11,635,626.1Zm9.83-52.42c-20.38,0-38.15-17.36-38.37-37.56a38.6,38.6,0,0,1,39-39.08c20.87.22,38.13,18.06,37.85,39.18C683.09,556.39,665.37,573.64,644.87,573.68Zm41.65,191.81c12.86-12.89,18.27-27.36,23-42.11C712.19,740,700.86,761.84,686.52,765.49Zm25.31-61.16c-5.54-16.82-8.43-32.39-16.78-46C707.69,670.45,714.24,688.42,711.83,704.33ZM1219,747.69c-19.61-19.26-17.45-64.18,1-81C1207.84,692.9,1205.86,719.26,1219,747.69Zm9.63,18c12.65,9.34,26.18,16.62,40.16,23.15C1257.53,790.73,1240.32,780.94,1228.64,765.69ZM1256,635.91c-6.7,3.4-13,7.5-19.55,11.3-.48-.77-1-1.54-1.46-2.3,11.45-11.41,24.81-19,41.09-20.67l1.15,2.29C1270.09,629.64,1262.84,632.43,1256,635.91Zm18.77-62.23c-20.37,0-38.14-17.36-38.36-37.56a38.58,38.58,0,0,1,39-39.08c20.89.22,38.13,18.06,37.87,39.18C1312.94,556.39,1295.23,573.64,1274.72,573.68Zm17.47,219.25c7.41-3.75,15.33-2.69,22.48-5s13.75-6.49,22-7.07C1327.64,791.41,1304.18,797.82,1292.19,792.93Zm7.69-167.28c18.14-2.56,35.31,4.18,44,18C1328.55,636.06,1315.6,627.37,1299.88,625.65Zm53.85,139.74c3.1-8,9.47-13.25,12.65-20.55,3-6.91,3.55-14.76,9-23.59C1377.11,739.26,1365.59,761.81,1353.73,765.39Zm22.51-63.77c-4.35-15-8.74-29.87-18.5-45.07C1370.44,665.85,1379.88,689.49,1376.24,701.62Z"/><path class="cls-2" d="M545.16,706.33c.06,13.69,4.79,26.39,6.76,39.81-13.35-18.42-11.94-58.64,2.27-79.5C551.71,680,545.07,692.29,545.16,706.33Z"/><path class="cls-2" d="M671,781.09c-12.26,11.56-34,16.89-45.48,10.69C642.52,790.29,656.86,786,671,781.09Z"/><path class="cls-2" d="M686.52,765.49c12.86-12.89,18.27-27.36,23-42.11C712.19,740,700.86,761.84,686.52,765.49Z"/><path class="cls-2" d="M711.83,704.33c-5.54-16.82-8.43-32.39-16.78-46C707.69,670.45,714.24,688.42,711.83,704.33Z"/><path class="cls-2" d="M604.38,789.67a1.8,1.8,0,0,1-2.33,1.62,72.67,72.67,0,0,1-10.27-3.62c-10.69-5.13-21.18-10.6-28-21,3.1-2,4.9-.25,6.37,1.22,8,7.89,17.62,12.9,28,16.83a33,33,0,0,1,5.72,3.12A2.35,2.35,0,0,1,604.38,789.67Z"/><path class="cls-2" d="M677.9,643.3C664,635.15,650.7,628.11,635,626.1,649.68,621.5,672.59,630.3,677.9,643.3Z"/><path class="cls-2" d="M612.54,625.9c-14.44,6.34-28.36,13-42.48,22.48C575.73,636.29,597.18,625,612.54,625.9Z"/><path class="cls-2" d="M1219,747.69c-19.61-19.26-17.45-64.18,1-81C1207.84,692.9,1205.86,719.26,1219,747.69Z"/><path class="cls-2" d="M1277.18,626.53c-7.09,3.11-14.34,5.9-21.23,9.38-6.7,3.4-13,7.5-19.55,11.3-.48-.77-1-1.54-1.46-2.3,11.45-11.41,24.81-19,41.09-20.67Z"/><path class="cls-2" d="M1336.72,780.84c-9.08,10.57-32.54,17-44.53,12.09,7.41-3.75,15.33-2.69,22.48-5S1328.42,781.42,1336.72,780.84Z"/><path class="cls-2" d="M1353.73,765.39c3.1-8,9.47-13.25,12.65-20.55,3-6.91,3.55-14.76,9-23.59C1377.11,739.26,1365.59,761.81,1353.73,765.39Z"/><path class="cls-2" d="M1343.88,643.68c-15.33-7.62-28.28-16.31-44-18C1318,623.09,1335.19,629.83,1343.88,643.68Z"/><path class="cls-2" d="M1376.24,701.62c-4.35-15-8.74-29.87-18.5-45.07C1370.44,665.85,1379.88,689.49,1376.24,701.62Z"/><path class="cls-2" d="M1268.8,788.84c-11.27,1.89-28.48-7.9-40.16-23.15C1241.29,775,1254.82,782.31,1268.8,788.84Z"/><path class="cls-2" d="M645.49,497a38.6,38.6,0,0,0-39,39.08c.22,20.2,18,37.6,38.37,37.56s38.22-17.29,38.47-37.46C683.62,515.1,666.36,497.26,645.49,497Zm-.86,72c-17.76,0-33.77-16-33.87-33.67s16-33.63,33.8-33.45c19.49.2,34.62,15.17,34.28,33.89C678.51,553.71,662.66,569.11,644.63,569.05Z"/><path class="cls-2" d="M1275.33,497a38.58,38.58,0,0,0-39,39.08c.22,20.2,18,37.6,38.36,37.56s38.22-17.29,38.48-37.46C1313.46,515.1,1296.22,497.26,1275.33,497Zm-.86,72c-17.74,0-33.76-16-33.85-33.67s16-33.63,33.8-33.45c19.47.2,34.62,15.17,34.27,33.89C1308.36,553.71,1292.51,569.11,1274.47,569.05Z"/><path class="cls-2" d="M1493.38,410c-13.76-16.73-31.94-26.74-52.45-32.73-40.52-11.83-81.87-20.29-123.21-28.62-36.7-7.4-73.55-14-110.68-18.79-35.33-4.52-70.66-9.18-106.24-11.31-27.87-1.67-53.07,5.86-75,23.35a112.31,112.31,0,0,1-55.95,23.88c-6.95,1.14-19.29.09-19.29.09-19.18-2.82-37.06-9-52.36-21.31a118.83,118.83,0,0,0-46-22.81,123.29,123.29,0,0,0-41.56-2.91c-61.83,5.52-123.36,13.25-184.39,24.85-47.23,9-94.2,18.93-140.66,31.26-50.32,13.34-81.84,49.92-87,101.51-1.68,16.7,2.29,32.86,8,48.51q34.89,96.13,69.91,192.25,12.59,34.63,25.21,69.25c14.81,40.38,42.95,65.78,85.16,74.91,16.79,3.63,33.66,2.61,50.22-1.73,62.24-16.32,125.62-26.38,189.39-34.12,40.91-5,82.11-5.39,123.25-6.34l21-.18c25.72.73,51.47,1.11,77.13,2.68,49.89,3.06,99.27,10.46,148.51,18.84,31.1,5.29,61.66,13.16,92.43,20,60.28,13.41,107.52-22.07,125.81-65.42,9.67-22.94,17.41-46.71,25.91-70.13q36.4-100.29,72.72-200.59C1528.59,482.37,1521.62,444.32,1493.38,410ZM1512,494.35c-.87,9.18-3.67,18-6.81,26.57q-47.37,130.8-94.85,261.58c-12.31,33.93-34.91,57.18-69.88,67.68-18.41,5.54-37,5.29-55.46.66-35.59-9-71.4-16.86-107.68-22.43-55.53-8.54-111.2-15.43-167.52-17.16q-61.23-1.87-122.32.82c-49.22,2.19-98,8.7-146.66,16.25-38.8,6-76.88,15.62-115.22,24-41.57,9-85.86-11.92-106.39-49.47-8-14.54-12.9-30.34-18.54-45.83Q458.8,642.28,417.1,527.55a165.53,165.53,0,0,1-8.51-31.83c-6.73-44.48,21.19-89.69,60.83-105.54,19.5-7.81,40-12.06,60.29-16.82C586.16,360.12,643,349,700.39,340.46c38.2-5.66,76.63-9.82,115.13-13a103.39,103.39,0,0,1,71.42,20.57c19,14.63,39.86,24.27,63.89,26.26,10.94.4,24.82-.67,24.82-.67,18.91-2.68,36.26-9.24,51.18-21.27,16.69-13.49,35.33-22.14,56.75-24.61a111.38,111.38,0,0,1,24.21-.21c25.58,2.58,51.15,5.19,76.67,8.27q55.17,6.65,109.77,17.25c48.58,9.47,97.06,19.3,144.72,32.79C1489.18,400.05,1516.33,448.11,1512,494.35Z"/><path class="cls-2" d="M1784.19,525.82c-.17-11.44-.14-23.11-.12-34.38q0-7.37,0-14.7,0-7.75,0-15.52c0-12.13.05-24.69-.06-37.06,0-5-.08-8.89-3-11.84s-6.47-3-11.5-3.22c-2.24-.09-4.45-.07-6.58-.05l-35.45.09-65.53.17h-.28c-15.17,0-28.69-2.27-41.31-6.93-83.37-30.78-161.39-54.2-238.51-71.59-70.62-16-134.76-27.17-196-34.3-9.72-1.14-14.61-4.68-17.46-12.67-1-2.72-2.2-5.39-3.26-7.68-13.4-28.82-35.76-47.77-66.45-56.3-14.29-4-28.68-4-42.53-3.93-5.48,0-11.12,0-16.59-.24h-11.37l-.21-.83a55,55,0,0,0-13.5-21.85c-1.18-1.22-2.33-2.51-3.64-4-.34-.38-.67-.79-1-1.2a20.13,20.13,0,0,1,5.18-1.71l.27-.07q39-8.93,78-17.88,43.17-9.91,86.38-19.82c4.72-1.08,9.3-2.26,13.51-4.68,5.7-3.3,7.79-9.6,5.43-16.38s-6.31-9.47-13.49-8.8a87.5,87.5,0,0,0-12,2c-69.21,16-137,31.76-205.06,47.7a39.23,39.23,0,0,1-18.12.13L918.62,161c-40.64-9.48-82.68-19.29-124.06-28.74-6.72-1.53-13.53-3.18-20.11-4.79-13.11-3.18-26.66-6.48-40.18-9-7.17-1.33-12.14,1.69-15.23,9.22-2.6,6.28.57,13.84,7,16.82a56.14,56.14,0,0,0,11.1,3.38l.59.14q48.5,11.15,97,22.25l43,9.83,21.92,5.07,8.5,2a7.92,7.92,0,0,1-2.84,3.61c-.46.41-.93.82-1.36,1.25a58.06,58.06,0,0,0-14.21,22.56s-.1.39-.26,1.12h-9.95c-4.79.15-9.54.15-14.07.15-7.68,0-15.63,0-24,.74-41.31,3.65-70.91,24.62-88,62.32-.51,1.11-1,2.21-1.57,3.31s-1.21,2.49-1.78,3.74c-2.83,6.22-7.34,9.28-15.1,10.26-59.71,7.47-112.41,16.16-161.11,26.57-62.88,13.44-145.39,32.73-226.1,62.78-40.47,15.07-87,30.57-127.32,23.7l-.51-.09h-.52c-8.54,0-16.35,0-23.62,0-17.14,0-31.93.05-46.37-.13-2.69,0-7.18-.07-10.43,3.15s-3.23,7.9-3.22,9.43c.14,33.06,0,66.68-.09,99.19l0,9.16a17.32,17.32,0,0,0,6.53,14.34c10.3,8.55,14.95,20.33,14.64,37.09-.14,7.7.29,15.17.78,22.79.68,10.32,5.44,18.83,14.55,26a128.7,128.7,0,0,0,16.59,10.53c2.26,1.27,4.6,2.58,6.82,3.92,10.15,6.1,21,6.77,31.26,6.59,1.39,0,5.64-.11,8.61-3.19,2.64-2.75,2.92-6.3,2.86-9.09-.18-9.31-.17-18.82-.17-28,0-4,0-8.08,0-12.12,0-9.08,3.16-15.9,10.06-21.45,12.42-10,29.37-9.8,43.16.53,6.37,4.77,12.72,6.7,21.23,6.48,16.41-.45,32.48-.76,48.54.34,16.53,1.15,26.84,9.18,32.44,25.3,4.89,14.07,10.15,28.24,15.23,41.95q3.49,9.42,7,18.86L474.11,830c10.28,28.1,28.39,48.85,53.84,61.68,19.41,9.78,37.82,14.64,55.69,14.64a98.62,98.62,0,0,0,26.48-3.64c66.89-18.61,128-31.19,186.8-38.47a1364.32,1364.32,0,0,1,139.57-10.56l33.29.15a1255.45,1255.45,0,0,1,334.3,47.5c32.55,9.28,64.44,4.73,94.77-13.53,23-13.83,39.42-35.37,50.26-65.85,18.47-52,37.65-104.67,56.2-155.64q8.68-23.87,17.35-47.71a133.72,133.72,0,0,1,6.13-14.77c5.86-11.69,15.21-17.88,28.58-18.91,11.21-.87,22.76-.71,33.92-.55,4.83.07,9.82.14,14.78.12h.89c7.51,0,16.85,0,24.07-8.66,1.35-1.62,4.54-2.62,7.63-3.59l1.38-.44c10.6-3.39,22.69-1.44,30.79,5,5.1,4,11,11.65,9.9,25-.47,6-.34,12.06-.22,17.89,0,2.4.1,4.79.11,7.18,0,10.74.06,17.84,5,22.11s12,3.22,22.66,1.63a34.15,34.15,0,0,0,11.62-3.67c8.94-4.93,16.9-9.49,24.36-14,12.15-7.29,18.45-18.81,18.22-33.3l-.07-4.1c-.12-6.27-.24-12.75,0-19,.45-12.79,5.13-23.37,13.91-31.45C1783.4,538.61,1784.27,531.71,1784.19,525.82Zm-758.8-291.45c.14,12,1.44,24,1.32,35.95-.07,4.15,0,8.3-.16,12.45a66.72,66.72,0,0,0-19.77-40.85c1.7-6.77,5.79-9,16.3-9.69A2.18,2.18,0,0,1,1025.39,234.37Zm-124.58-1.89c6.93,1.24,10.81,3.9,12.35,9.61a66.65,66.65,0,0,0-19.77,42.74c-.59-15.37-.68-30.69-.66-46C892.73,232,894.1,231.31,900.81,232.48ZM914,249.12c.32,7.1,0,14.24,0,21.38H914c0,6.24-.16,12.48,0,18.72.64,23.16,15.28,40.38,38.11,44,5.15,1.08,14.64.65,14.64.65,26.82-3.26,39.62-27.54,39-48.07-.35-11.72-.6-23.48,0-35.18,0-.65.08-1.27.13-1.86A61.36,61.36,0,0,1,960,351.08q-1.42,0-2.85-.06c-2.49-.19-4.77-.42-6.57-.66A61.34,61.34,0,0,1,914,249.12Zm73.39,3.52c.05,1.39.11,2.76.15,4.14a42.75,42.75,0,0,0-55.64.57q0-3,0-6.08a49.37,49.37,0,0,0-2.11-15,61.18,61.18,0,0,1,60.07-.24A39.41,39.41,0,0,0,987.39,252.64Zm-.08,39.68c-1.08,13.81-9.77,22-24.17,23.2-4.57.67-15.12-1.08-15.12-1.08-9.85-5.09-15.66-13.37-16-24.6-.24-8.26-.21-16.52-.16-24.78a37.37,37.37,0,0,1,55.91-.53A268.35,268.35,0,0,1,987.31,292.32ZM960,222.81a66.61,66.61,0,0,0-32.31,8.35,27.27,27.27,0,0,0-9.66-10.78c3-6.79,8.69-12,17.09-15.6a58.64,58.64,0,0,1,47.38-.36c8.63,3.6,14.52,9.18,17.66,16.65a33.31,33.31,0,0,0-8,10A66.45,66.45,0,0,0,960,222.81Zm61.11-7.59-6.77.4a24.61,24.61,0,0,0-8.59,2c-4.78-10.66-14-18-27.78-21.93a11.79,11.79,0,0,0-1.68-.32,3.9,3.9,0,0,1-2.42-.81l5.49-1,18.83-3.43c3-.55,5.07,1,7.65,3.33A54.39,54.39,0,0,1,1021.15,215.22ZM1082.8,150c1-1.82,4.83-2.7,11.77-4.28l.24-.05q22.32-5.1,44.64-10.29l36-8.3a105,105,0,0,1,10.65-1.89,7.23,7.23,0,0,1,.91,0c2.46,0,4.08,1.37,5.06,4.3,1.2,3.6.42,6.24-2.37,8-3.32,2.15-7.1,3.11-11.69,4.16-23.59,5.36-47.17,10.8-70.94,16.25l-21.55,5C1083.07,155.8,1081.77,151.86,1082.8,150Zm-8.34.41.1.14a8.86,8.86,0,0,1,.79,1.5c2.05,6.13,3.19,9.68,2.24,11.35s-4.37,2.48-10.39,3.84l-7.64,1.73c-16.28,3.68-33.13,7.5-49.65,11.46-6.26,1.49-10.89,1.2-15.48-1-3.59-1.75-7.39-2.55-11.4-3.41a75.76,75.76,0,0,1-8.87-2.29Zm-85.35,34.13c-21,9.73-41.23,6.11-60.17.15C945.33,176.33,966.93,176.27,989.11,184.54ZM831.86,160.92c-1.86,1.19-5.73.31-12.73-1.3l-.19,0q-19.46-4.47-38.94-8.87-20.78-4.72-41.57-9.48a75.24,75.24,0,0,1-9.31-2.87c-3.29-1.22-4.83-3.68-4.42-7.11.38-3.28,3.67-5.77,7.47-5.77h.54c6.31.41,12.59,1.93,18.66,3.42,1.83.45,3.69.9,5.54,1.32,20.76,4.71,41.83,9.65,62.22,14.41l15.36,3.59a7.49,7.49,0,0,1,1.53.59l.17.09a.41.41,0,0,1,0,.08C834.62,155.93,833.72,159.75,831.86,160.92Zm63.06,16.48c-15.92-4.14-32.25-7.75-48-11.26l-3.31-.74c-2.28-.5-3.52-1.1-3.89-1.88s-.12-1.93.68-3.61a52.82,52.82,0,0,0,2.56-7.19c.21-.73.43-1.46.65-2.17l.27,0a3.78,3.78,0,0,1,.81-.09c31.68,7.49,63.38,15,95.5,22.67l2.73.66a18.65,18.65,0,0,1-5.66,1.53,22.07,22.07,0,0,0-5.58,1.45C920.05,182.18,908.57,180.94,894.92,177.4Zm16.83,16.38c2.86-2.65,5.45-3.91,8.21-3.91a10.54,10.54,0,0,1,3.07.48,68.54,68.54,0,0,0,8.17,1.7,47.5,47.5,0,0,1,12.37,3.22l-1.45.38c-5.37,1.42-10.45,2.76-15,5.57-7.32,4.46-12.41,9.85-15.25,16.1a47.48,47.48,0,0,0-14.59-2.59A55.36,55.36,0,0,1,911.75,193.78ZM1768,536.08c-11.12,10.23-17.3,24.08-17.87,40-.24,6.62-.12,13.28,0,19.71l.07,4.08c.16,10.14-3.85,17.52-12.26,22.56-7.32,4.38-15.16,8.88-24,13.73a22.28,22.28,0,0,1-7.51,2.28c-4.08.61-10.78,1.61-12.8,1.14-.77-1.92-.8-8.66-.81-12.77,0-2.46-.06-4.93-.11-7.4-.12-5.78-.23-11.25.19-16.68,1.15-14.65-4-27.31-14.53-35.63-11.39-9-27.55-11.71-42.16-7l-1.31.41c-4.32,1.36-9.7,3-13.36,7.42-3.4,4.06-7.37,4.25-14.69,4.27h-.9c-4.86,0-9.79-.06-14.57-.12-11.44-.17-23.27-.33-35,.58-17.77,1.38-30.77,10-38.6,25.65a147.61,147.61,0,0,0-6.71,16.08q-8.65,23.86-17.34,47.71c-18.56,51-37.75,103.72-56.24,155.72-9.85,27.7-24.57,47.14-45,59.45-27.69,16.67-55.52,20.67-85.08,12.24a1268.31,1268.31,0,0,0-337.62-48l-33.35-.15h-.16A1379,1379,0,0,0,795.41,852C736,859.4,674.31,872.1,606.83,890.86c-23.09,6.43-47.09,3.11-73.35-10.13-22.57-11.38-38.66-29.86-47.84-54.93L427.43,666.66q-3.46-9.46-7-18.91C415.38,634.1,410.15,620,405.3,606c-7.21-20.76-21.74-32-43.2-33.52-16.6-1.13-33-.82-49.71-.37-5.65.15-9.46-1-13.54-4-18.14-13.59-41.55-13.69-58.23-.27-9.75,7.86-14.68,18.31-14.63,31.06q0,6,0,12.07c0,9.18,0,18.66.17,28-9.44.13-17.19-.68-24.12-4.85-2.37-1.42-4.79-2.78-7.12-4.09a116.62,116.62,0,0,1-15-9.48c-6.39-5-9.44-10.33-9.89-17.16-.48-7.35-.89-14.54-.76-21.76.38-20.51-5.86-35.81-19.06-46.76-1.65-1.37-2.12-2.46-2.11-4.86l0-9.16c.12-32.53.23-66.17.09-99.28v-.24h1.22c14.52.17,29.36.15,46.54.12,7.12,0,14.75,0,23.09,0,43.16,7.17,91.35-8.82,133.15-24.38,80-29.77,161.91-48.92,224.37-62.28,48.35-10.33,100.72-19,160.08-26.4,12-1.5,20.12-7.18,24.76-17.36.53-1.17,1.09-2.33,1.65-3.48s1.14-2.36,1.69-3.57c15.31-33.85,40.78-51.89,77.86-55.17,7.81-.69,15.16-.68,22.9-.69,4.62,0,9.41,0,14.36-.15h7.8c-.27,3.08-.45,6.55-.42,10.27.14,13.58,1,27.18,1.12,40.77.06,8.83.39,17.71,3,26.18,6.48,21.21,19.09,35.16,36.67,43.15a66.79,66.79,0,0,0,64.47-.25c23.64-11.48,38.15-34,38.68-61.16.3-15.81.24-31.6,0-47.4,0,0-.21-5.31-.91-11.59h8.9c5.71.25,11.45.24,17,.24,13.66,0,26.57,0,39.23,3.48,27.45,7.64,46.62,23.88,58.6,49.63,1,2.15,2,4.43,2.84,6.68,4.44,12.44,13.21,19,27.59,20.71,60.87,7.08,124.58,18.23,194.78,34.08,76.59,17.27,154.1,40.54,237,71.13,14,5.17,28.92,7.69,45.57,7.69h.31l65.54-.16,33.94-.09h1.58c2.07,0,4,0,6,.05l2.62.11c0,.93,0,2,0,2.78.11,12.31.08,24.82.06,36.93q0,7.77,0,15.54,0,7.33,0,14.67c0,11.33,0,23,.12,34.58C1772,530.86,1771,533.31,1768,536.08Z"/></g><g id="Capa_3" data-name="Capa 3"><path d="M859.82,512V623H840V552.27l-19.51,14.91L804.3,579.71l-16.18-12.53-19.51-14.91V623H748.79V512l19.82,15.22,35.69,27.44L840,527.21Z"/><path d="M984.17,532a34.5,34.5,0,0,1,2.53,12.85v45.52a32.69,32.69,0,0,1-10.46,24.11,34.25,34.25,0,0,1-7.3,5.23A31.42,31.42,0,0,1,954,623.33H885V603.51h69a13.07,13.07,0,0,0,13-13V575a32.49,32.49,0,0,1-12.38,2.54H907.87a32.75,32.75,0,0,1,.48-65.5h45.52A32.58,32.58,0,0,1,984,532ZM895.5,544.82a13,13,0,0,0,12.37,13h46.79a13,13,0,0,0-.63-26H908.51A13.07,13.07,0,0,0,895.5,544.82Z"/><path d="M1040.63,548.94v75.5H1020.8V546.88a15.8,15.8,0,0,0-13.48-13.48h-4.44V513.73h4.28v.16a35.42,35.42,0,0,1,29.5,19.82,42.36,42.36,0,0,1,2.7,7.46,33.47,33.47,0,0,1,1,8.09Z"/><path d="M1157.68,567a32.76,32.76,0,0,1-23.47,55.52h-45.53a32.56,32.56,0,0,1-30.13-20,34.22,34.22,0,0,1-2.54-12.84V544.18a32.11,32.11,0,0,1,8.25-21.41,33.6,33.6,0,0,1,9.51-7.45,31.45,31.45,0,0,1,14.91-3.65h69v19.82h-69a13.07,13.07,0,0,0-13,13v15.55a32.44,32.44,0,0,1,12.37-2.54h46.79a32.77,32.77,0,0,1,23,10Zm-23.63,35.69a13.06,13.06,0,0,0,13-13,12.92,12.92,0,0,0-12.21-13h-46.79a13,13,0,0,0,.63,26h45.37Z"/><path class="cls-3" d="M831,660.19l-5.78,20.49-2.82,10-7.31,25.71H804.67L812,690.72l2.81-10,5.78-20.49Z"/><path class="cls-3" d="M895.31,659v56.25h-10V679.39L875.39,687l-8.2,6.34L859,687l-9.88-7.56v35.84h-10V659l10,7.72,18.08,13.9,18.08-13.9Z"/><path class="cls-3" d="M922.63,677.71V716h-10V676.66a8,8,0,0,0-6.83-6.83h-2.25v-10h2.17V660a18.05,18.05,0,0,1,6.83,1.84,17.87,17.87,0,0,1,8.12,8.2,21.32,21.32,0,0,1,1.36,3.78,16.88,16.88,0,0,1,.48,4.1Z"/><path class="cls-3" d="M986.52,705.35v10H930.43V698.84a15.92,15.92,0,0,1,1.37-6.51,16.51,16.51,0,0,1,14.62-10.13h24.35a6.56,6.56,0,0,0-.56-13.09H930.59V659.06h39.62a16.53,16.53,0,0,1,16.55,16.56,15.84,15.84,0,0,1-1.37,6.5,16.16,16.16,0,0,1-3.37,5,16.71,16.71,0,0,1-11.33,5.06H946.42a6.54,6.54,0,0,0-5.87,6.51v6.51Z"/><path class="cls-3" d="M1049.6,692.41a16.08,16.08,0,0,1,1.36,6.51,16.52,16.52,0,0,1-16.55,16.55H994.79v-10h39.62a6.56,6.56,0,0,0,6.51-6.59,6.47,6.47,0,0,0-5.79-6.51H994.79V659.22h51.51v10h-41.46v13h30.21a16.29,16.29,0,0,1,14.63,10Z"/><path class="cls-3" d="M1115.25,676a16.51,16.51,0,0,1-4.67,11.57,16.58,16.58,0,0,1-11.89,28.12h-39.61v-10h39.61a6.62,6.62,0,0,0,6.59-6.59,6.54,6.54,0,0,0-6.19-6.59H1069.2v-10h29.89a6.59,6.59,0,0,0-.32-13.18h-39.61v-10h39.61a16.54,16.54,0,0,1,16.56,16.56Z"/></g></g></svg>