<svg xmlns="http://www.w3.org/2000/svg" viewBox="0 0 1920 1080"><defs><style>.cls-1{fill:#010001;}.cls-2{fill:#f2f2f2;}</style></defs><g id="Capa_2" data-name="Capa 2"><g id="Capa_1-2" data-name="Capa 1"><path class="cls-1" d="M1766,481.83c0-10.95-12.43-18.42-12.43-18.42-11.15-4.19-23.16-2.09-34.74-1.73-7.2.21-9.4-2.1-9.27-8.94.21-10.4.19-20.87-.64-31.23-3.56-44.76-26.8-76.94-67.34-94-47-19.8-95.85-34.79-144.56-49.93-5.62-1.77-12.94-1.48-13.24-10.58-.1-2.77-4-2.65-6.29-3.34q-27.62-8.17-55.29-16.07c-3.52-1-7.42-2.54-9.38,2.85-1.53,4.32-5.09,2.69-8,1.95-59.64-15-120.15-25.57-180.91-34.68-72.4-11.73-234.11-17-234.11-17l-28.4-.53c-83.47-.47-166.32,7-248.91,18.72-59.55,8.46-118.47,20-177,33.83-3.39,1.39-6,1.39-5.87-3.35-3-3.75-6.71-2.58-10.39-1.59-16.35,4.43-32.82,8.54-49,13.58-4.2,1.31-11.67,1.73-12,5.78-.78,9.29-7.77,8.8-13.08,10.45Q376.9,298.61,309.94,323.4c-35.11,13-60.47,35.19-71.82,71.69-2.13,6.8-5.08,13.64-5.58,20.62-.87,12.54-.41,25.2,0,37.79.21,6.12-1.72,8.09-8,8.05-14.31-.09-28.83-1.91-43,3.57l-4.9,3.65c-3.19,5.46-10.88,1.73-16.57,2.22-4.24.38-6.14,1.44-6.1,6.14q.35,47.82.19,95.65c0,5.63,2.22,6.06,7.09,6.1C167.94,579,176,575.75,181,582c4.79,6,10.67,6.38,17.09,6.5,6.62.13,13.25,0,19.88,0,14,0,17,6.07,10.18,18.92-1.82,3.43-5.31,5.95-5.27,10.59.25,28.41-.47,56.84.63,85.21.47,12.37,8.15,21.6,19.88,27.23,11.22,5.38,24.31,3.58,35.15,10.18,14.21,8.66,28.67,16.94,43,25.37a26.33,26.33,0,0,1,9.89,5.9c9.59,3.58,16.66,11.39,25.89,15.59,11.64,4.1,21.89,10.71,31.38,18.33,5.54,4.45,8.25,10.74,8.57,18.21.76,17.27,10.21,26.23,27.63,26.48,11,.17,22.08-.12,33.11-.19,6.54,0,11.88.85,15.31,8.11,4,8.53,11.67,12.6,21.59,12.45,18.28-.29,36.57-.1,54.88-.08,3.94,0,8.41-1.29,8.57,5.38.07,3.42,3.67,3,6,3,21.13,0,42.27-.13,63.4-.25,1.85,0,4.56.16,4.77-2,.85-8.56,7.18-6.44,11.94-6.06,44,3.5,86.36-6.71,129.14-14.18C835.12,846,897.11,839.44,959.65,839l18.86.34c35.25,0,140.61,10.42,140.61,10.42,33.8,3,66.9,10.2,100.18,16.28,10.18,1.86,20.39,3.43,30.59,5.14,17.85-.12,35.72-.27,53.59-.33,2,0,5-.91,5.06,2.43.06,7.69,5.61,6.06,10,6.14,16.9.25,33.81.36,50.71.53,5.1-3,15.24,3.26,15.71-8.51,0-.28,2.88-.62,4.42-.62l61.16,0c11.88,0,16.22-7.1,16.22-7.1.4-5.12,3.58-12.42,11.79-12.55,7.88-.15,15.76-.36,23.65-.53,6.63-.15,13.26,0,19.86-.47,12.28-.93,21.22-8.44,21.79-20.75.76-16.45,9.91-25.47,23.07-32.92,30.94-17.55,61.64-35.56,92.4-53.46a67,67,0,0,1,24.83-8.49c20.26-2.87,34.13-17.8,35.23-38.15.4-7.55.4-15.13.57-22.69-.12-7.56-.19-15.12-.38-22.7-.42-16.53,2-33.26-8.8-48.35-4.88-6.82.14-13.57,8.82-13.89,8.83-.32,17.7,0,26.51-.34,11.88-.49,18.46-7.11,19.25-19,.38-5.67.44-11.34.63-17a11.2,11.2,0,0,1-.32-1.88S1766,492.78,1766,481.83ZM174,571.45c-3.45.15-2.85-2.63-2.87-4.72-.09-7.88.06-15.77-.24-23.63-.12-2.69,2-7.32-3-7.43-4.81-.11-4.55,4.36-4.59,7.79-.07,8.72,0,17.45,0,26.17l-2,.08V481.36c3.32.7,1.72,3.46,1.76,5.23.17,7.88.29,15.76-.07,23.65-.19,4.24,2,6,5.43,6,4,0,2.68-3.53,2.71-5.8.1-8.51,0-17,.1-25.53,0-2.25-1.31-5.72,2.39-6s3.43,2.94,3.43,5.44q.07,41.18.09,82.31C177.11,568.89,177,571.32,174,571.45ZM543.86,275A1874.54,1874.54,0,0,1,736.8,239.48c74.48-9.89,149.26-14.84,224.33-16l20.58,0c9.46-.15,18.93-.05,28.41-.05,69.09,2.78,137.89,8.13,206.4,17.66,60.87,8.47,121.21,19.37,180.92,33.87,2.87.7,8.36-.63,7.32,4.92-1.1,5.8-5.72,3.24-9.17,2.39a1785.3,1785.3,0,0,0-249.44-42.85c-54.68-5.47-109.39-9.45-164.38-9.25H961.64c-24.3-.05-48.57.48-72.83,1.82a1933.13,1933.13,0,0,0-193.55,20.4q-75.59,11.94-149.9,30c-2.85.68-6.52,2.78-7.89-1.86C535.78,274.73,541,275.72,543.86,275ZM233.06,566.14c0,4.31-1.65,5.27-5.63,5.18-10.1-.27-20.2-.34-30.29,0-5,.19-5.59-2.05-5.51-6.22.21-13.25.07-26.49.07-39.74h.18c0-12.94.24-25.89-.12-38.81-.13-5.44.76-8.13,7.09-7.77,9.44.51,19,.32,28.39-.06,4.74-.19,6,1.63,6,6Q233,525.44,233.06,566.14ZM548.65,855.91c-17,.09-34.09-.15-51.13.11-5.65.08-9.49-1.3-12.09-6.74-4.7-9.91-13.27-13.84-23.92-13.86-12.31,0-24.63-.41-36.93,0-8.09.27-11.94-3.43-12-11-.15-13.64-6.71-23.92-16.11-32.94q-50.65-29.44-101.29-58.9c-11.52-6.69-23.56-11.73-37-13.34A22.66,22.66,0,0,1,238,696.64c-.3-22.42-.11-44.84-.13-67.25,0-5.56,1.92-10.43,4.93-15,6.69-10.22,7.16-20.58.38-31-1.76-2.67-3-5.36-2.77-8.79,1.67-31.86.42-63.75.66-95.63,0-1.9-.6-4.3.33-5.59,9.87-13.65,5.49-29.26,6-44,.8-21.19,6.8-40.2,19.56-57.18a31.69,31.69,0,0,1,13.87-10.9c57.23-23.06,115.21-44.06,174.37-61.66a7.45,7.45,0,0,1,1.77-.65c3.14-.17,7.29-2.82,8.56,2.46,1.18,4.86-3.33,4.5-6,5.41-25.33,8.6-50.77,16.9-76,25.69-14.25,5-28.62,9.9-42.22,16.32-25.42,12.05-39.44,31.18-39.21,61,.72,92.83.49,185.65.13,278.47-.11,28.92,12.37,49.2,37.56,62.6,21.36,11.35,43.42,21.41,64,34.28,27.65,14.31,55.79,27.8,82.82,43.21,19.73,11.26,39.57,18.8,62.59,16,3.57-.44,9.1-2.67,9.16,5.31C558.36,857.84,553,855.87,548.65,855.91Zm752.82.3c-37.06,1.6-73.49-2.57-109.69-10.57-21.49-4.76-43.41-7.54-65.13-11.2-23.48-2.43-46.94-5.08-70.44-7.2-36.43-3.28-73-3.66-109.54-3.87l-39.82,1.73-15.27,1.36c-63.93,4.87-126.9,16.09-189.82,27.92-20.85,3.9-42.24.7-63.35,1.62-4.95.21-4.55-3-4.63-6.29-.06-3-.17-5.68,4.17-5.53,40.06,1.38,77.13-14.4,115.95-20.32,47.71-7.26,95.47-14,143.63-17.22,48-2.87,86.19-2.43,86.19-2.43,46.37.42,92.46,4.42,138.46,10a83.76,83.76,0,0,1,8.28,1.78c26.06,2.1,51.72,7,77.32,12,21.58,4.23,43,9.27,64.41,14.37,9.71,2.31,19.43,1.52,29.17,1.74,4.08.1,8-1,7.79,5.82C1309,856.06,1306,856,1301.47,856.21Zm74.81-15.71c.11,8.47-.08,17,.41,25.44.31,5.09-1.55,6.44-6.38,6.38-16-.19-32.07-.19-48.08.15-5.2.12-6.43-1.83-6.16-6.57.38-6.9-.15-13.86.32-20.74.45-6.63-2.16-9.07-8.68-8.62-20.62,1.44-40.58-2.08-60.11-8.53-43-9-86.23-16.64-129.82-22.3-36.1-4.08-72.32-6.81-108.57-9.1-33.13,0-66.24-.4-99.36,1.54A1322,1322,0,0,0,673.6,833.47c-12.76,3.13-25.62,3.64-38.53,2.94-7.37-.4-9.82,2.2-8.76,9.08a3,3,0,0,1,0,.94c-.79,8.36,3.68,19.16-1.83,24.47-5,4.85-15.66,1.18-23.81,1.36-9.77.25-19.57-.11-29.35.18-4.46.15-6.22-1.07-5.93-5.8.41-7.24,0-14.52.3-21.78.23-5.89-1.84-9.32-8.15-8.28-30.11,5-55.17-7.66-79.92-22.21-16-9.38-33.14-16.62-48.74-26.7-32.5-15.45-64.7-31.65-95.4-50.36-15.39-9.4-23.41-25-23.42-43.81,0-6.58.19-13.17.28-19.77q0-60.66,0-121.34c-.1-50.51-.93-101,.06-151.5.45-23.33,16.2-37.88,36.51-46.32A1150.36,1150.36,0,0,1,465.32,313.2c8.15-2.39,10.84-5.53,7.72-13.83-2.64-7.05-3.7-14.67-6-21.83-1.44-4.42-1.5-6.56,3.89-8,15.78-4.19,31.42-9,47.05-13.78,3.91-1.18,5.57-.29,6.54,3.83,2,8.24,5.33,16.24,6.56,24.56,1.29,8.73,6.17,7.94,12.13,6.56,20.24-4.65,40.4-9.58,60.7-13.88a1837.35,1837.35,0,0,1,188.41-29.64c55.57-5.83,111.26-9.68,167.17-9.36l30.44.06c68.2.34,136,5.68,203.67,14.55a1834,1834,0,0,1,205.79,38.59c7.31,1.82,10.27-.15,11.84-7.15,1.8-8,5-15.61,6.64-23.61,1.09-5.33,2.9-5.52,7.58-4,14.68,4.66,29.47,9.06,44.4,12.85,6,1.52,6.75,4.23,5.25,9.36-2.2,7.55-3.66,15.32-6.22,22.73-2.27,6.61-.7,9.28,6.18,11.41,39.38,12.09,78.44,25.12,116.66,40.51,28.39,11.43,40.9,29.62,40.88,60.08,0,46.39-.21,92.8-.32,139.2V676.52c3.62,33.07-9.15,56.41-39.65,71-30,14.36-59.2,30.41-88.76,45.73C1478,807,1452.5,821.4,1426.17,834.15c-12.11,5.86-26.17,1.6-39.34,2.39C1382.93,836.79,1378.34,835.29,1376.28,840.5Zm354.63-267c-4.07.13-8.17,0-12.24.11-18.65.7-28.88,16.81-22.25,34.42,2.08,5.51,7.13,9.76,6.8,16.24,2.2,10.75,1.06,21.57.89,32.37,0,4.45,0,8.91,0,13.36,0,9.15.38,18.31,0,27.44-.46,10-7.58,20-17.25,21.15-22.89,2.64-41.24,15-60.32,25.89-23.54,13.45-46.71,27.52-70.27,40.93-15.22,8.66-25.62,20.26-26.65,38.55-.47,8.57-4.77,12.09-13.55,11.5-10.36-.7-20.79-.39-31.19-.53-13,.34-24.37,3.53-29.81,17-1.48,3.7-4.53,3.87-7.79,3.87-19.22.05-38.43,0-57.65.3-4.09,0-5.7-1.1-5.42-5.31.23-3.6-.21-7.48,5.15-6.54,33,5.92,58.58-11.76,85.25-26.24,5.21-2.85,10.63-5.29,15.94-7.92,37.22-19.73,74.4-39.56,111.68-59.17,19.84-10.44,33.46-25.55,37.18-48.23a98.67,98.67,0,0,0,1-16c0-91.27-.74-182.54.32-273.81.38-34-19-56.93-45.5-67-36.77-13.94-73.71-27.46-111.38-38.85-3-.89-9,.19-7-6.15,1.63-5.1,5.84-2.41,8.76-1.54,59.72,17.83,118.35,38.79,176.13,62.12,12.55,5.06,18,16.41,23.64,27.18,6.7,12.75,9,26.78,9.26,41.14.15,9.16.1,18.31.44,27.46.49,12.57,7.26,19.09,19.63,19.18,9.48.08,18.95.19,28.43-.11,5.25-.17,7.43,1.68,7.37,7-.23,23-.26,46.07-.36,69.11C1751.25,578.41,1752.19,572.78,1730.91,573.46Z"/><path class="cls-2" d="M1632.25,676.52V552.39c.11-46.4.3-92.81.32-139.2,0-30.46-12.49-48.65-40.88-60.08-38.22-15.39-77.28-28.42-116.66-40.51-6.88-2.13-8.45-4.8-6.18-11.41,2.56-7.41,4-15.18,6.22-22.73,1.5-5.13.7-7.84-5.25-9.36-14.93-3.79-29.72-8.19-44.4-12.85-4.68-1.48-6.49-1.29-7.58,4-1.65,8-4.84,15.65-6.64,23.61-1.57,7-4.53,9-11.84,7.15a1834,1834,0,0,0-205.79-38.59c-67.64-8.87-135.47-14.21-203.67-14.55l-30.44-.06c-55.91-.32-111.6,3.53-167.17,9.36a1837.35,1837.35,0,0,0-188.41,29.64c-20.3,4.3-40.46,9.23-60.7,13.88-6,1.38-10.84,2.17-12.13-6.56-1.23-8.32-4.61-16.32-6.56-24.56-1-4.12-2.63-5-6.54-3.83-15.63,4.76-31.27,9.59-47.05,13.78-5.39,1.42-5.33,3.56-3.89,8,2.33,7.16,3.39,14.78,6,21.83,3.12,8.3.43,11.44-7.72,13.83a1150.36,1150.36,0,0,0-118.39,41.37c-20.31,8.44-36.06,23-36.51,46.32-1,50.47-.16,101-.06,151.5q0,60.66,0,121.34c-.09,6.6-.28,13.19-.28,19.77,0,18.76,8,34.41,23.42,43.81,30.7,18.71,62.9,34.91,95.4,50.36,15.6,10.08,32.77,17.32,48.74,26.7,24.75,14.55,49.81,27.19,79.92,22.21,6.31-1,8.38,2.39,8.15,8.28-.28,7.26.11,14.54-.3,21.78-.29,4.73,1.47,6,5.93,5.8,9.78-.29,19.58.07,29.35-.18,8.15-.18,18.77,3.49,23.81-1.36,5.51-5.31,1-16.11,1.83-24.47a3,3,0,0,0,0-.94c-1.06-6.88,1.39-9.48,8.76-9.08,12.91.7,25.77.19,38.53-2.94a1322,1322,0,0,1,236.25-35.32c33.12-1.94,66.23-1.58,99.36-1.54,36.25,2.29,72.47,5,108.57,9.1,43.59,5.66,86.82,13.28,129.82,22.3,19.53,6.45,39.49,10,60.11,8.53,6.52-.45,9.13,2,8.68,8.62-.47,6.88.06,13.84-.32,20.74-.27,4.74,1,6.69,6.16,6.57,16-.34,32.06-.34,48.08-.15,4.83.06,6.69-1.29,6.38-6.38-.49-8.46-.3-17-.41-25.44,2.06-5.21,6.65-3.71,10.55-4,13.17-.79,27.23,3.47,39.34-2.39,26.33-12.75,51.84-27.15,77.67-40.87,29.56-15.32,58.76-31.37,88.76-45.73C1623.1,732.93,1635.87,709.59,1632.25,676.52ZM448.89,473.38a31,31,0,1,1,31-30.95A31,31,0,0,1,448.89,473.38Z"/><path class="cls-1" d="M448.89,411.44a31,31,0,1,0,31,31A31,31,0,0,0,448.89,411.44Zm0,53.39a22.41,22.41,0,1,1,22.4-22.4A22.43,22.43,0,0,1,448.89,464.83Z"/><rect class="cls-2" x="1919" y="1079" width="1" height="1"/><rect class="cls-2" width="1" height="1"/><rect class="cls-2" y="1079" width="1" height="1"/><rect class="cls-2" x="1919" width="1" height="1"/></g><g id="Capa_3" data-name="Capa 3"><path d="M871.58,462.88v111H851.75V503.17l-19.51,14.91-16.18,12.53-16.17-12.53-19.51-14.91v70.74H760.55v-111l19.83,15.23,35.68,27.44,35.69-27.44Z"/><path d="M995.93,482.87a34.46,34.46,0,0,1,2.53,12.85v45.52A32.7,32.7,0,0,1,988,565.35a34.1,34.1,0,0,1-7.3,5.23,31.42,31.42,0,0,1-14.91,3.65h-69V554.4h69a13.07,13.07,0,0,0,13-13V525.85a32.49,32.49,0,0,1-12.38,2.54H919.63a32.76,32.76,0,0,1,.48-65.51h45.52a32.59,32.59,0,0,1,30.14,20Zm-88.67,12.85a13.06,13.06,0,0,0,12.37,13h46.79a13,13,0,0,0-.63-26H920.27A13.07,13.07,0,0,0,907.26,495.72Z"/><path d="M1052.39,499.84v75.5h-19.83V497.78a15.8,15.8,0,0,0-13.48-13.48h-4.44V464.63h4.28v.16a35.35,35.35,0,0,1,29.5,19.82,42.36,42.36,0,0,1,2.7,7.46,33.41,33.41,0,0,1,1,8.09Z"/><path d="M1155.8,482.55a34.47,34.47,0,0,1,3.65,15.54v75.66h-19.83V496.19a15.8,15.8,0,0,0-13.48-13.48h-58.21V462.88h56.31a34.47,34.47,0,0,1,15.54,3.65,35.17,35.17,0,0,1,16,16.18Z"/></g></g></svg>