<svg xmlns="http://www.w3.org/2000/svg" viewBox="0 0 1920 1080"><defs><style>.cls-1{fill:#f2f2f2;}.cls-2{fill:#010101;}</style></defs><g id="Capa_2" data-name="Capa 2"><g id="Capa_1-2" data-name="Capa 1"><path class="cls-1" d="M1587.34,532.74c.39,4.32-1.78,8-3.6,11.52-13.85,26.92-28,53.72-42,80.55q-14.68,32-32,62.58c-9.88,17.48-26,24.65-45.52,25.14-24.38.64-48.82-.67-73.14,1.59-25.3,2.33-43.47,15.59-53.87,38.42-9,19.73-16.61,40.09-24.73,60.2-7,17.41-19.05,28.6-38.16,31.15-1.73.23-3.64.78-5.22.36-19.22-5.07-39-8.14-57.23-16.53-10.22-4.73-21.26-6.48-31.81-9.92-7.78,3.21-14.15.48-21.37-3.12-12.12-6-25.09-10.83-39.2-6.71-4.18,1.22-8.64,1-11.87-1.21-13.62-9.41-28.81-7.73-43.91-7.31-5.1,4.5-10.38,3-15.37.11-12.1-6.92-25.09-4.08-37.65-2.93-4.59.42-7.39,6.4-9.47,10.89-1.7,3.65-4,4.39-7.61,4.18-8.78-.53-17.59-.74-26.39-1-2.88-.11-5.29-.46-5.22-4.27.07-4.06,2.84-3.71,5.52-3.73,5.88,0,11.75-.08,17.64,0,3.11,0,6.37,0,6.07-4.27s-3.92-2.41-6.23-2.7c-2.61-.3-5.25-.28-7.88-.39a15.36,15.36,0,0,1-1.75.25c-13.37.5-13.37.48-14-13-.08-1.37-.38-2.75-.69-5-3.85,3.65-2.74,7.65-2.61,11.08.17,4.94-.71,7.21-6.57,7.39-6.89.21-4.74-4-4.76-7.27-.09-10.29,0-20.55-.14-30.84,0-2.35,1.14-6-2.77-6.28-3.62-.21-3.79,3.16-3.69,5.79.55,12.45-1.71,25.05,1.62,37.73-3.72,1.4-8.11,0-12.31.64-2.47.39-6.72-2.21-7.06,2.45-.38,5.45,4.24,4.46,7.61,4.48,7.35.07,14.69,0,22,0,2.74,0,6.21-1.07,6.09,3.85-.12,4.71-3.46,3.81-6.25,3.92-5.85.23-11.73.42-17.6.54-7,.18-14.08,2.32-18.18-7.19-2.22-5.16-9.75-7.61-15.15-7.64-12.53-.13-25.39-2.12-37.42,4.62-5.89,3.3-12.88,2.59-18.72-1.92-14,2.61-28.68,2.31-41.67,9.52-4.85,2.7-9.86-1.07-14.54-.33-12.59,2-25.72,2.34-36.76,10.09a14.4,14.4,0,0,1-9.3,2.27c-15.81-.91-29.52,5.9-43.88,11-15.4,5.43-31.29,10.87-47.37,12.61-18.63,2-32.6-8.78-40.84-25.23a330.53,330.53,0,0,1-19.67-47.86c-2.27-5-4.62-10.06-6.79-15.14-11.87-27.8-33.19-41.7-63.13-42.43-21.73-.53-43.5-.21-65.24-.83-18.91-.54-35-7-45-24.39-13-22.32-24.29-45.54-35.49-68.79-14.47-25.78-27.7-52.21-40.76-78.72-.88-1.78-1.07-3.92-1.59-5.88-2.41-3.68-1.88-8-2-12-.77-24.08-.91-48.2.34-72.26.83-15.76,8.18-28.14,22.19-35.71,42.29-22.86,85.3-44.16,131-59.59,5.22-1.75,8.61-2.23,7.46,5.08-.3,1.85-.28,4.62,2.61,4.62,2.66,0,3.39-2.67,3-4.55-2.18-10.13,5-11.15,11.88-13.16,29.8-8.61,59.52-17.54,89.27-26.31,11.2-3.32,21-8,22.49-21.49.39-3.61,2.81-4.34,6.05-5,13.52-2.72,26.89-6.05,40.39-8.73,10.55-2.08,20.27-5.65,28.74-12.41,4.48-3.58,7.51-4.3,9.75,3,3.88,12.7,13.27,18.31,26.48,16.33,50.55-7.55,101.32-12.91,152.27-16.48,16.13-1.12,32.29-1.64,48.41-2.69,5.09-.36,7.86.65,7.06,6.51-.37,2.64.16,6,3.78,5.62s3.08-3.81,2.73-6.31c-.65-4.77,1.31-5.75,5.84-6,5.22-.22,5.59,2.17,5.58,6.23q-.16,34.86,0,69.67c0,3-.79,6.26,2,9.12,2.26-3.4,1.34-6.63,1.34-9.65.12-22.63.05-45.27.18-67.9,0-3.11-1.36-7.18,4.6-7.45,5-.21,6,1.87,5.84,6.11-.07,2.61.35,6,3.92,5.61,2.82-.27,3-3.28,2.7-5.65-.78-5.49,2.11-6.14,6.67-5.94q55.91,2.3,111.58,8c30.33,3.12,60.62,6.77,90.79,11.25,13.2,2,22-4.11,26.29-16.74,1.34-3.95,2.93-7.2,7.07-4,21.37,16.42,48.1,15.44,72.28,22.56,3.37,1,4.64,1.91,5.31,5.42,2.07,10.8,8.63,17.11,19.46,20.18,31.83,9,63.43,18.74,95.18,27.93,5.14,1.48,8.1,3.33,7.47,9.35-.32,2.91-.13,7.66,4,7.55,4.54-.1,2.1-4.57,2.23-7,.38-8.08,5.45-3.47,8-2.63,32.78,11.1,64.36,25.07,95.2,40.76,11.24,5.71,22.55,11.32,33.59,17.41,16.46,9.07,25.5,22.85,25.46,42.06,0,22.05,0,44.09,0,66.14C1589.16,525.36,1589.39,529.24,1587.34,532.74Z"/><path class="cls-2" d="M998,841.35c6.79.3,9.91-2,9-9-.52-3.91,0-7,5.29-6.42,15.33,1.57,30.68,2.93,46,4.36,71.48,6.86,141.44,20.85,208.87,46.05,25.49,9.52,51.07,17,78.79,14.78,40.63-3.28,74.36-19.79,100.93-50.77a59,59,0,0,1,4.34-4.17c33.22-54.18,62.89-110.37,93.82-165.85,4.76-8.58,10.06-12.85,20.52-12.67,39.6.67,79.21.41,118.84.49,9.36-.1,18.75-.14,28.13-.31,16.48-.32,25.66-8.84,26-25.64.55-26.11.26-52.25.35-78.36,0-2.93.23-5.86.36-8.79-.6-20.82-1.59-41.64-1.7-62.45,0-4.59-9.7-7.77-9.7-7.77-6.39-2.71-12.48-6.4-19.87-5.68-12.42,1.2-20.23,7.52-24.47,19.53-4.87,13.76-7.58,15.1-22.12,15.23-8.82.07-17.64-.2-26.45,0-7.74.16-10.83-3.2-10.76-11.05.21-25.86,0-51.74-.14-77.61-.12-20.12-6.33-37.64-24.35-48.48-11.89-7.12-24.29-13.81-37.2-18.77-23.34-9-45.61-20.34-69.13-28.88-32-11.62-64-23.37-96.5-33.62-24.52-7.73-49.59-13.39-74-21.26-3.83-1.06-10.45,1.55-8.72-6.72-.92-3.69,4.31-9.06-4.13-10.66-28.77-5.51-57.44-11.64-86.13-17.57-3.68-.76-7-.92-8.31,3.61-1.53,10.32-2.4,10.64-11.16,4.33a44.25,44.25,0,0,1-4.27-3.09c-40-36.24-87.21-52.7-140.81-52.31-29.39.23-58.8-.19-88.19.25L949.62,181c-152,0-158.2,10.79-158.2,10.79-26.74,8.58-49.94,23.08-71,41.39-2.42,2.12-4.89,4.22-7.5,6.09-5,3.51-8.5,2.26-8.94-3.83-.44-6.44-4.11-7.15-9-6.16-28.4,5.82-56.77,11.8-85.2,17.52-6.08,1.24-5.9,5.28-4.42,9.25,1.8,4.78,1,6.43-4.2,7.71-93.86,22.61-184,55.59-271.06,97.22-22.62,10.82-34.74,27.68-34.26,53.39.44,25,0,50-.05,74.94,0,12.56-1.8,14.45-14.13,14.56-10,.07-20-.13-30-.25-6.62-.09-10.85-3.58-13.66-9.37-13.63-28.14-26.07-31.75-51.72-15.17-7.41,7.32-5.37,53.63-5.37,53.63q0,43.27.06,86.52c.12,2.63.31,5.26.33,7.89.11,23.95,7,30.78,30.86,30.76,44,0,88,1.12,131.86-.54,18.63-.71,29.19,5.54,35.09,22.14a4.58,4.58,0,0,1,.19.85q25.1,44.22,50.21,88.4c2.37,4.13,1.11,6-2.93,8-6.3,3.1-12.08,7.2-18.34,10.35-5.84,2.95-6.37,6.39-3.22,11.88,9.34,16.21,18.3,32.64,27.35,49a29.42,29.42,0,0,1,1.52,4c7.74,11.89,15.1,24,20.73,37.09,0,0,5.77,9.63,9.26,9.93s17-9.83,17-9.83c9.38-5.29,18.73-10.65,28.21-15.79,1-.56,3-.19,4.18.44,13.37,7.22,27.72,11.93,42.23,16.52,47.2,7.35,97.28-14.08,97.28-14.08,3.8-1.5,7.73-2.65,11.6-3.94,11.43-3.86,22.77-8,34.31-11.52a749.9,749.9,0,0,1,91.7-21.1c17.44-2.91,34.76-6.65,52.54-7.07,15.51-3.39,31.39-3.58,47.11-5.21,3.77-.4,7.73,0,11.38-.84,7.64-1.84,12.61-1.18,11.31,8.59-.59,4.45,1.73,6.21,6.26,6.12Zm310.73-562.11c1.5-5.23,5.88-2.21,8.81-1.49q60.23,14.69,118.76,35.09a1477.48,1477.48,0,0,1,144.56,59.37c11.63,5.47,22.25,11.86,27.37,26.9-9.79-3.82-17.57-7.41-23.91-13.74-3.91-3.93-7.44-7.07-14.5-5.38-3.72.88-11.82.05-12-8.71-.1-4.2-31.23-18.34-35.21-16.61-9,3.94-13.78,1.91-16.23-7.23-.8-2.93-3.16-3.19-5.26-3.95-8.26-3-16.53-6-24.84-8.77-2.56-.86-4.62-2.06-7.62,1.06-3.44,3.58-15.16-1.85-15.12-6.83,0-4.23-2.51-4.92-5.21-5.77-8.11-2.54-16.23-5-24.43-7.21-3.07-.83-6.58-4.26-8.75,2.25-1,3.13-15.56-2.09-15.9-6.24-.28-3.55-2-4.34-4.73-5.15-7-2.08-13.88-5-21-6.25-4.27-.76-10.51-7.83-13.53,2.61-.76,2.63-14.73-3.1-14.53-6.58.22-4.23-2.26-4.73-5.24-5.48q-12.36-3.11-24.67-6.46C1312.45,283.84,1307.11,284.93,1308.73,279.24Zm111.66,60.84c-2.13,4.29-5.13,1.19-7.5.48-27.47-8.1-54.88-16.37-82.32-24.58-3.63-1.07-7.28-2.2-11-2.94-7.78-1.59-12.31-6.18-14.06-15.51,12.26,3,23.31,5.5,34.23,8.47,24.8,6.7,49.55,13.62,74.31,20.48C1419.83,328.09,1423,334.86,1420.39,340.08Zm-176.11-93a177,177,0,0,0-18.11-3.48c-3.16-.51-5.08-1.87-4.22-5.17.93-3.56,3.79-1.87,5.82-1.44,24.61,5,49.21,10.19,73.82,15.26,3,.63,6.23,1.16,5.22,5.27-1,3.94-4.43,2.24-6.6,1.85-8.93-1.6-17.82-3.52-26.66-5.52-5-1.13-9.17-.4-10.26,5.1-1.13,5.66,3.54,6.58,7.62,7.53,8.84,2.05,17.62,4.27,26.51,6s3.66,7.48,3.37,11.57c-.35,5.19-4,4.78-7.71,3.8-1.48-.39-3.61-1.2-3-2.51,4.58-9.86-4.41-7-8-8.2a101.3,101.3,0,0,0-17.94-4.13c-4.49-.67-10.11-6.12-13,3.42-.88,3-7.92.83-10.14-1.39-5.29-5.33-12.26-8.33-17.34-13.73-.73-.74-.87-2-2-4.83,7.67,1.73,13.56,3.42,19.56,4.3,5.47.8,12.88,3.76,14.72-4.46C1258,247.3,1249.35,248.43,1244.28,247Zm-531.77,7.2c8.93-2.32,15.16-8.65,21.86-14.36,32.94-28.07,71-43.09,114.32-43.88,34.09-.62,68.21,0,102.29-.35,6.14-.06,7.29,1.95,7.06,7.41-.41,9.17-.12,18.36-.12,27.54l2.87.08c1.64-9.51.71-19.14.6-28.68,0-5.15,1.66-6.32,6.53-6.28,36.17.23,72.37-.9,108.46.47,39.56,1.52,74.84,16,105.72,40.92,8.11,6.56,14.71,15.4,26,17.18,2.71.42,2.66,2.77,2.38,4.87s-1.68,2.94-3.73,2.72a25.81,25.81,0,0,0-2.61-.43c-3-.07-7.3-2.5-8.31,1.85-1.19,5.16,4.26,4,6.74,4.33,6.83.77,5.81,4.23,3.71,8.46-4.13,8.3-10.92,10.61-19.78,9.39q-34.45-4.71-69-8.91c-42.91-5.19-86-8.24-129.14-9.83a11.18,11.18,0,0,1-9.62-16.42c1.32-2.52,3.57-1.55,5.42-1.46,7,.28,14.08.95,21.12,1.12,2.41.06,6,.16,6.21-3.28.21-3.77-3.25-3.26-5.84-3.4-9.39-.53-18.78-.94-28.14-1.68-4.56-.35-6.74,1-5.86,5.81a4.28,4.28,0,0,1,0,.88c-.18,18.95-.18,18.95-19.29,18-2.54-.15-6.08.56-5.47-3.52.75-4.69-3.37-10.88,2.72-13.76,2.68-1.27,5-1.83,4.62-4.9-.54-4-4.14-2.24-6.33-2.31a167.78,167.78,0,0,0-29,1.2c-2.2.3-5.29,0-4.92,3.47.33,3.14,3.25,3,5.52,3,2.93,0,5.86-.44,8.8-.51,14-.26,10.84-2,11.72,11.31.39,6-2.42,6.39-7.27,6.51-66.14,1.89-131.84,8.77-197.29,18.14-11.74,1.67-17.52-.39-21.95-8.35-2.33-4.18-2.52-7,3.39-7.67a93.37,93.37,0,0,0,11.15-2.38c2.1-.52,2.73-2.26,2.31-4.1-.37-1.64-2-2.2-3.48-2.06-4.11.33-8.18.86-12.26,1.36-2.47.3-4.9.33-5.79-2.53C707.94,256.16,710.15,254.85,712.51,254.24Zm-94.44-2.05q36.91-7.47,73.8-15.12c2.72-.55,5.64-1.52,6.09,2.4.4,3.72-2.72,3.63-5.4,4.11-7.48,1.34-14.95,2.82-22.36,4.46-4,.89-7.28,2.86-6.52,7.73.79,5.17,4.44,6.32,9.1,6.12,6.55-1.44,13.09-3,19.67-4.32,1.54-.33,3.53-1.43,4.52.86.69,1.65-.57,2.85-1.63,3.76-4.62,4-7.93,9.79-14,11.75-2.47.81-8.22,8.45-8.05-2.34,0-2.24-2.8-1.31-4.39-1-8.63,1.57-17.33,2.95-25.86,4.92-4,.94-9.13.53-8.12,8.4.63,4.91-6.69,1.59-9.95,3.71-1.82,1.18-4.36,1.3-5.86-1.64-4.25-8.31-2.24-12.34,7-14.49,8.8-2.06,17.52-4.51,26.23-6.93,3-.83,5.54-2.4,4.63-6.23s-3.35-5.43-7.16-4.76c-10.08,1.8-20.12,3.81-30.21,5.48-2.54.43-6.4,2.53-7.27-1.78C611.58,253.58,615,252.81,618.07,252.19Zm-7,54.27a16.28,16.28,0,0,1-8.61,5.78c-34.79,10.2-69.79,19.69-104.23,31.37-1.83-14.08-1.76-13.86,11-17.83,32.2-10,64.85-18.19,97.46-26.66,2.27-.58,4.94-2.08,6.45.21C614.77,301.87,612.66,304.36,611.05,306.46ZM332.83,375.3c49.45-24.35,100.4-45.08,152.45-63.2q56.82-19.78,115.27-34.05c2-.49,4-1,6-1.34,2.26-.42,4.15,0,4.7,2.63s-1.1,3.79-3.25,4.38c-7.34,2-14.71,3.9-22,6-2.94.86-5.87,1.36-5.78,6.16.08,6.91-6.95,3-10.24,5.4-2.7,1.92-4.65.61-4.76-3.29-.09-3.17-2.93-2.22-4.76-1.71-10.45,2.9-20.84,5.93-31.27,8.91-1.42.41-3.54,1-3.29,2.37,1.83,9.86-7.27,6.72-11.24,9.58-1,.7-3.3,1-3.46-1.06-.67-8.91-5.89-3.94-9.28-2.91-6.72,2-13.25,4.67-19.87,7.05-4.85,1.75-9.73,2.61-11.46,9.25-1.24,4.69-10.16,5.11-14.43,1.43-2.09-1.8-3.85-.44-5.65.26-8.73,3.37-17.45,6.81-26.16,10.22a8.94,8.94,0,0,0-6.09,6.65c-1.64,6-9.79,8.29-14.91,4.57-2-1.47-3.33-.34-4.76.21-7.66,2.89-15.31,5.84-22.87,9-3.72,1.57-6.56,3.48-8,8.26-1.69,5.52-7.9,9.53-13.21,7.13-6-2.74-9.05.23-12.34,3.1-8.66,7.57-17.9,14.05-29.53,17.35C316.14,387.35,323.11,380.1,332.83,375.3ZM324.93,644c-38.43-.54-76.85-.1-115.28-.14-12.54,0-14.06-1.5-14.38-14.2-.17-7,.18-14.06.3-21.08v-5.29q0-9.72,0-19.41a171.67,171.67,0,0,1,0-28.23q-.24-28.63-.46-57.26c-.05-8.26,3.95-13.47,12.09-14.77,7.78-1.27,12.52,2.43,15.56,9.74,8.62,20.69,14.29,24.18,36.64,24,10-.11,20,.07,30-.39,11.24-.5,18.4-7.59,19.27-18.92,2.05-26.71-.32-53.47.83-80.2.51-12.08,4.06-15,16.11-12.61,3.47.69,4.88-1.48,6.29-3.58,3.44-5.08,8.28-8.07,13.71-10.61,44.88-21,90.28-40.68,137.26-56.5,2.47-.83,7.13-5.56,8.34.53.89,4.3,2.9,10.25-5.13,12.66C439,362,395.41,384.4,352,407.19c-18,9.46-27,24.58-28.13,44.62-.35,6.46-.42,12.93-.91,19.36-.21,2.84,2.36,8.75-5.1,5.29-2.51-1.17-2.33,1.71-2.35,3.32q-.24,16.74-.33,33.5c0,1.67-.23,3.54,2.25,4,2,.36,5.47-2.68,5.83.94.49,4.8,2.36,10.53-1,14.47-2.82,3.28-1.59,5.77-1,8.76,14.94,23,28.28,46.83,38.44,72.34,11.52,8.85,12.65,23.09,19.34,36.76C360.86,640,342.6,644.27,324.93,644Zm101,87.23c-8-3.71-7.3-12.19-4.07-20.7,19,12,39.71,8.14,59.73,9.32,3.32.21,9.32-2.84,9.57,2.29.3,6.14,3.81,14.2-3.18,18.72-11.56,7.5-23.73,14-35.6,21-3.07,1.82-4.8.79-6.25-2.08-2.48-5-5-10-7.71-14.84C435.31,739.52,432.72,734.41,425.91,731.25ZM501.4,868c-.7,4.26-7.69,5.33-11.84,7.93-8.16,5.13-16.47,10-24.62,14.94-16.85-30.06-33.54-60.2-50.65-90.08-3.09-5.38-2.79-7.85,3-10.38,6.1-2.63,11.7-10,17.55-8.59s7.4,10.41,10.54,16.2c12.42,22.7,25.53,44.76,46.15,61.3C495.09,862.15,502.09,863.9,501.4,868Zm7.5-13.07c-11.47-9.17-23-18.29-31.42-30.61-1.78-2.61-5.45-4.67-.83-8.63,2.54-2.17-.58-5.48-2.26-7.62-7.74-9.81-12-22.31-23.27-29.44-4.34-2.72-3.68-5.65.95-8.52,12.58-7.75,12.3-7.85,19.11,4.67,9.93,18.21,18.42,37.17,30.12,55.4-5.74.78-9.32-7.75-12.44-2.49s4,8.08,7.55,11.15c6,5.24,14.66,7.73,17.11,16.6C511.55,857.62,510,855.8,508.9,854.92Zm12.28-1.76c-3-10.94-10.94-19.2-15.95-29.1-5.33-10.51-9-20.88-8.08-32.72.27-3.5,0-7,.05-10.57,0-2.15-.26-4.64-2.82-4.57s-2.7,2.77-2.77,4.78c-.12,3.69,0,7.38,0,13.76-6.92-8.24-9.92-15.68-13.54-22.67-7.09-13.71-6.93-13.67,6.83-21.06,4.43-2.38,7.09-2.93,6.65,3.58-.15,2.42-.7,6.35,2.88,6.26,3.19-.09,3.51-4,2.87-6.4-3.1-11.42,6.55-13.09,12.71-17.94,8.78-6.9,17.34-8.44,27.1-2.44a36.94,36.94,0,0,0,10.51,4.36c9.77,2.33,14.48,9,16.76,18.1,3.93,7.5,8,14.94,11.79,22.49,13.42,26.66,6.86,45.08-20.5,57.76-9.46,5.84-18.9,11.7-28.39,17.49C525,855.64,522.38,857.53,521.18,853.16ZM501,720.26c6.27-.74,12.67-.16,19-.16l.69,2c-6.47,3.83-12.91,7.76-19.48,11.45-2.64,1.5-4.35-.25-3.58-2.63C498.76,727.3,493.48,721.14,501,720.26Zm25.9,2.29c10.25-2,22.81,2.81,33.63,13.44Zm40.49,20.7c10,9.86,12.86,23.32,17.7,35.65C578.5,767.59,572.08,755.84,567.35,743.25Zm339.31,69.24c-56.75,2.51-112.59,11.49-168,23.62A708.91,708.91,0,0,0,637,867c-34.74,13.31-69.21,14.05-103.92.66-2.34-.92-7.32-.76-6-4.5,1.24-3.53,5.72-5.24,9.74-3.51,6.81,2.94,14,4.46,21.19,5.64a99.1,99.1,0,0,0,13.15.78c2.29.07,5.08.23,5.18-3.18s-2.59-3.54-4.94-3.6c-9.12-.21-17.85-2.52-26.76-4.23-.12-4.83,4.09-4.82,6.33-6.7a13.54,13.54,0,0,1,3.78-2.21c20.08-7.73,33.1-21.35,36.24-43.26.21-1.45.67-2.89,3.31-3.79,2.08,5.5,4,10.37,5.77,15.29,6.83,19.16,20.11,30.65,39.77,36.35,8.73,2.54,16,1.9,24.26-.67,73-22.73,147-40.07,223.86-42.5,6.16-.2,12.3-1,18.45-1.31,2.37-.12,5.08.2,5.33,3.28C912,813.44,908.75,812.4,906.66,812.49Zm45.87,21.68c-4.71-.17-9.4,0-14.11,0v.14c-4.69,0-9.4,0-14.1,0-3,0-5-.62-5.27-4.27s1.69-4.45,4.76-4.55c9.69-.32,19.37-.66,29.06-1.17,3.92-.23,5,1.45,5.1,5.15C958.06,833.63,956,834.31,952.53,834.17Zm43.55.13c-5.3-.11-10.59,0-15.88,0v-.16c-4.69,0-9.41-.09-14.1,0-3.51.09-4.55-1.64-4.52-4.89s1.63-4.81,4.84-4.73c10,.3,20,.69,30,.9,3.25.07,3.74,1.84,3.71,4.57S999.18,834.37,996.08,834.3Zm495.46-98c-11,6.45-13.81,17.62-19.74,27.06-2,3.18-3.39,6.74-2.68,10.83s-1.38,7.57-4.27,10.13c-9.53,8.45-15.49,19.86-24.33,28.9-2,2.06-7.53,5.68.85,7.48,3.47.74,1.48,3.31.19,4.58-4.78,4.73-8,10.89-13.76,14.7a123.82,123.82,0,0,1-48.52,29.82c-30.48,11.11-61,10.19-91.12-1-38.21-14.11-76.81-26.73-116.75-35.07C1120.19,823,1068.64,814.84,1016.24,813c-1.76,0-3.53,0-5.27-.16-1.91-.17-3.44-1-3.48-3.16,0-2.62,1.59-3.6,4-3.54,5.29.14,10.57.23,15.86.51,75.09,4.06,148.3,18.56,219.89,41.05,23.71,7.47,43.67,3.46,61.45-13.41,14.08-21.18,21.19-45.51,30.43-68.82,11.67-29.43,31.57-45.39,63.94-45.25,17.63.07,17.59-.56,17.57,17,0,6.44.11,12.9.34,19.34.1,2.47,1.2,4.94,4.07,4.74,3.06-.21,2-3.14,2-4.9.23-8.8.85-17.66.11-26.39-.69-7.91,1.41-11.21,9.74-10.29,5.5.62,11.13-.09,16.71,0,15.7.23,31.1-.76,45.64-9.72C1493.69,718.26,1501.1,730.7,1491.54,736.28Zm18.14-48.89c-9.88,17.48-26,24.65-45.52,25.14-24.38.64-48.82-.67-73.14,1.59-25.3,2.33-43.47,15.59-53.87,38.42-9,19.73-16.61,40.09-24.73,60.2-7,17.41-19.05,28.6-38.16,31.15-1.73.23-3.64.78-5.22.36-19.22-5.07-39-8.14-57.23-16.53-10.22-4.73-21.26-6.48-31.81-9.92-7.78,3.21-14.15.48-21.37-3.12-12.12-6-25.09-10.83-39.2-6.71-4.18,1.22-8.64,1-11.87-1.21-13.62-9.41-28.81-7.73-43.91-7.31-5.1,4.5-10.38,3-15.37.11-12.1-6.92-25.09-4.08-37.65-2.93-4.59.42-7.39,6.4-9.47,10.89-1.7,3.65-4,4.39-7.61,4.18-8.78-.53-17.59-.74-26.39-1-2.88-.11-5.29-.46-5.22-4.27.07-4.06,2.84-3.71,5.52-3.73,5.88,0,11.75-.08,17.64,0,3.11,0,6.37,0,6.07-4.27s-3.92-2.41-6.23-2.7c-2.61-.3-5.25-.28-7.88-.39a15.36,15.36,0,0,1-1.75.25c-13.37.5-13.37.48-14-13-.08-1.37-.38-2.75-.69-5-3.85,3.65-2.74,7.65-2.61,11.08.17,4.94-.71,7.21-6.57,7.39-6.89.21-4.74-4-4.76-7.27-.09-10.29,0-20.55-.14-30.84,0-2.35,1.14-6-2.77-6.28-3.62-.21-3.79,3.16-3.69,5.79.55,12.45-1.71,25.05,1.62,37.73-3.72,1.4-8.11,0-12.31.64-2.47.39-6.72-2.21-7.06,2.45-.38,5.45,4.24,4.46,7.61,4.48,7.35.07,14.69,0,22,0,2.74,0,6.21-1.07,6.09,3.85-.12,4.71-3.46,3.81-6.25,3.92-5.85.23-11.73.42-17.6.54-7,.18-14.08,2.32-18.18-7.19-2.22-5.16-9.75-7.61-15.15-7.64-12.53-.13-25.39-2.12-37.42,4.62-5.89,3.3-12.88,2.59-18.72-1.92-14,2.61-28.68,2.31-41.67,9.52-4.85,2.7-9.86-1.07-14.54-.33-12.59,2-25.72,2.34-36.76,10.09a14.4,14.4,0,0,1-9.3,2.27c-15.81-.91-29.52,5.9-43.88,11-15.4,5.43-31.29,10.87-47.37,12.61-18.63,2-32.6-8.78-40.84-25.23a330.53,330.53,0,0,1-19.67-47.86c-2.27-5-4.62-10.06-6.79-15.14-11.87-27.8-33.19-41.7-63.13-42.43-21.73-.53-43.5-.21-65.24-.83-18.91-.54-35-7-45-24.39-13-22.32-24.29-45.54-35.49-68.79-14.47-25.78-27.7-52.21-40.76-78.72-.88-1.78-1.07-3.92-1.59-5.88-2.41-3.68-1.88-8-2-12-.77-24.08-.91-48.2.34-72.26.83-15.76,8.18-28.14,22.19-35.71,42.29-22.86,85.3-44.16,131-59.59,5.22-1.75,8.61-2.23,7.46,5.08-.3,1.85-.28,4.62,2.61,4.62,2.66,0,3.39-2.67,3-4.55-2.18-10.13,5-11.15,11.88-13.16,29.8-8.61,59.52-17.54,89.27-26.31,11.2-3.32,21-8,22.49-21.49.39-3.61,2.81-4.34,6.05-5,13.52-2.72,26.89-6.05,40.39-8.73,10.55-2.08,20.27-5.65,28.74-12.41,4.48-3.58,7.51-4.3,9.75,3,3.88,12.7,13.27,18.31,26.48,16.33,50.55-7.55,101.32-12.91,152.27-16.48,16.13-1.12,32.29-1.64,48.41-2.69,5.09-.36,7.86.65,7.06,6.51-.37,2.64.16,6,3.78,5.62s3.08-3.81,2.73-6.31c-.65-4.77,1.31-5.75,5.84-6,5.22-.22,5.59,2.17,5.58,6.23q-.16,34.86,0,69.67c0,3-.79,6.26,2,9.12,2.26-3.4,1.34-6.63,1.34-9.65.12-22.63.05-45.27.18-67.9,0-3.11-1.36-7.18,4.6-7.45,5-.21,6,1.87,5.84,6.11-.07,2.61.35,6,3.92,5.61,2.82-.27,3-3.28,2.7-5.65-.78-5.49,2.11-6.14,6.67-5.94q55.91,2.3,111.58,8c30.33,3.12,60.62,6.77,90.79,11.25,13.2,2,22-4.11,26.29-16.74,1.34-3.95,2.93-7.2,7.07-4,21.37,16.42,48.1,15.44,72.28,22.56,3.37,1,4.64,1.91,5.31,5.42,2.07,10.8,8.63,17.11,19.46,20.18,31.83,9,63.43,18.74,95.18,27.93,5.14,1.48,8.1,3.33,7.47,9.35-.32,2.91-.13,7.66,4,7.55,4.54-.1,2.1-4.57,2.23-7,.38-8.08,5.45-3.47,8-2.63,32.78,11.1,64.36,25.07,95.2,40.76,11.24,5.71,22.55,11.32,33.59,17.41,16.46,9.07,25.5,22.85,25.46,42.06,0,22.05,0,44.09,0,66.14,0,3.79.23,7.67-1.82,11.17.39,4.32-1.78,8-3.6,11.52-13.85,26.92-28,53.72-42,80.55Q1527,656.78,1509.68,687.39Zm215.15-163.84q-.09,52.44-.3,104.86c-.06,13.43-2,15.21-15.35,14.93q-6.23,0-12.44,0-61,.24-122.12.53c-10.66.05-21.51-1.16-31.92,5.51.2-12.74,5.58-21.53,14.33-28.64,5.33-12.19,11.26-24,15.63-36.75s14.47-23.69,22-35.42c2-4.8,1-9.81,1.21-14.73.23-4.52-1.76-10,5.74-11.45,2.89-.57,2.93-4.94,3-7.7.34-9.08.32-18.17.21-27.25-.07-5-2.24-5.75-5.84-2.28-.56,8.93,1.08,18-2.17,26.8V488.47c-1.23-8.13-.7-16.26-.33-24.64,3.23-.18,3.4,5.57,7,3.28,2.44-1.55,1.34-4.27,1.38-6.44.11-8.82.26-17.64-.14-26.43-.13-2.82-.16-7.66-4.61-7-5.11.74-2.43,5.1-1.73,7.78,2.28,8.73-.1,17.23.46,26.21-5.78-1.8-4-5.71-4-8.52.44-21.36-9.54-36.24-28-46-43.24-22.88-86.89-44.85-133.87-59.33-5-1.54-8.31-9.77-5.67-14.06,2.14-3.48,4.73-.51,6.8.21,27.7,9.49,55.08,19.85,81.87,31.67,18.23,8,36.28,16.48,54.63,24.22,8.76,3.71,16,8.36,19.31,17.77.87,2.43,2.16,5.33,5.37,5s2.66-3.25,2.5-5.54c-.14-2,.2-3.88,2.68-2.9,3.69,1.47,8.17,2.3,9.48,6.83.63,2.19.24,4.68.24,7,0,24.67.34,49.35,0,74-.21,14,6.34,26.78,25.78,25.76,10.55-.56,21.13-.07,31.7-.25,13.9-.23,23.18-6.82,27.75-20.13,2.21-6.42,4.61-12.87,13.06-13.55,8.87-.7,15.29,4.31,15.91,13.68C1725,505.9,1724.83,514.74,1724.83,523.55Z"/><path class="cls-2" d="M395.69,615.22c-20.76-9.26-30.36-25.1-29.22-47.94.55-11.08-.19-22.21,4.43-32.69,22.27-31.34,58-31.36,80.27-.05,6.05,15.8,6.29,32.31,3.29,48.44-3.43,18.48-16.55,28.81-34.18,33.77C412,618.12,403.79,617.24,395.69,615.22Zm-22-51.28c0,3.23-.07,6.47,0,9.7a37.5,37.5,0,0,0,35.71,36.57c19,1,36.37-13.43,38.46-32.63.88-8.12.57-16.43.16-24.62-1-20.11-16.69-34.43-37.24-34.37-20.25,0-36.08,14.86-37.09,34.78C373.54,556.88,373.69,560.42,373.7,563.94Z"/><path class="cls-2" d="M1492.35,614.91c-20-9.12-29.24-24.69-28.52-46.57.32-9.88-.27-19.8,2.7-29.42,12.75-30.3,53.3-36.63,74.71-13.74,2.19,2.34,4,5,6,7.52,8.32,17.11,8,35.28,4,52.95-3.38,15.11-14.91,24.5-29.19,30.18C1512.11,618.34,1502.2,617.54,1492.35,614.91ZM1471,563.78c0,2.65,0,5.29,0,7.94.39,20.6,15.08,36.73,35,38.41,19.57,1.66,35.71-11.62,39.59-32.31,1.59-8.52.49-17-.06-25.44-1.18-18.1-14.73-31.74-32.56-33.67-18.43-2-34.62,8.5-40.12,25.89C1470.86,550.89,1470.88,557.32,1471,563.78Z"/><path class="cls-2" d="M1427.24,534.2c-2.92,2-4.79-1-7.17-1.52.18-11.07.29-22.14.59-33.21.07-2.78-.35-6.83,3.48-7,4.82-.17,2.75,4.31,2.81,6.67C1427.26,510.84,1427.18,522.52,1427.24,534.2Z"/><path class="cls-2" d="M1420.09,619.14q.38-3.9.73-7.8c.22-2.35.24-5.18,3.31-5.34,3.69-.19,2.72,3,2.92,5.14.3,3.19.42,6.39.62,9.59-.15,7.3-.17,14.6-.53,21.88-.09,1.9,1.36,5.22-2.64,5.18-3.24,0-3.55-2.9-3.67-5C1420.4,634.88,1420.31,627,1420.09,619.14Z"/><path class="cls-2" d="M1427.18,458.11c0,5.55.06,11.09,0,16.63,0,1.58.37,3.78-2.34,3.73a3.31,3.31,0,0,1-3.58-3.07c-1.48-12.2-.93-24.4.08-36.59a2.81,2.81,0,0,1,2.87-2.76c2.24.07,2.78,1.85,2.79,3.69.06,6.12,0,12.25,0,18.37Z"/><path class="cls-2" d="M1427.05,401.22c0,5.85.07,11.69,0,17.54,0,1.56.46,3.92-2.1,4-1.8,0-3.06-1.19-3.61-3.16-1.28-4.62-.68-9.3-.64-13.95,0-6.71.26-13.42.51-20.12.09-2.39.56-5.26,3.4-5.35,3.77-.12,2.37,3.36,2.47,5.3.24,5.25.08,10.52.08,15.78Z"/><path class="cls-2" d="M1427.1,683.36c0,5.27.12,10.55-.07,15.82-.06,1.69,1.25,4.53-2.21,4.62-2.64.07-3.58-2-3.68-4.1-.3-5.84-.4-11.7-.43-17.55,0-5.56,0-11.12.3-16.67.11-2.1,1.18-4.12,3.87-3.8,2.47.3,2.08,2.47,2.1,4.1.08,5.86,0,11.72,0,17.58Z"/><path class="cls-2" d="M491.74,456.74c0-5.56-.06-11.12,0-16.68,0-1.42.3-3.18,2.06-3.43,2.23-.31,3.24,1.65,3.27,3.24.2,11.71.19,23.42.17,35.13a2.9,2.9,0,0,1-3.31,3.19c-2.49-.13-2.5-2.31-2.54-3.89-.16-5.85-.06-11.71-.06-17.56Z"/><path class="cls-2" d="M940.07,320c0-5.55-.05-11.09,0-16.63,0-2.17.85-4.33,3.27-4.38,2.63-.06,3.08,2.29,3.09,4.39,0,11.09.08,22.18,0,33.27,0,2.36-.51,5.16-3.67,4.8-2.31-.27-2.77-2.68-2.78-4.82,0-5.54,0-11.09,0-16.63Z"/><path class="cls-2" d="M972.37,735.78c-.5-13.19-1.64-26.38.88-39.49,4.17-1.15,5.26,1.44,5.3,4.7.13,10.45.06,20.9.14,31.36C978.73,737.6,975.77,737,972.37,735.78Z"/><path class="cls-2" d="M940.21,376.77c0-5.57-.07-11.13,0-16.69,0-1.77.68-3.6,2.86-3.71s3.08,1.71,3.11,3.48q.25,17.11.21,34.22c0,2.23-1.11,4.22-3.63,4S940,395.6,940,393.45q0-8.34,0-16.68Z"/><path class="cls-2" d="M975.31,793c-4.09-1.88-3.47-5.58-3.47-9q0-16.1,0-32.19c3.6-.65,6.66-.15,6.68,4.36.06,11-.05,22.09-.18,33.14A3.71,3.71,0,0,1,975.31,793Z"/><path class="cls-2" d="M972,378.23q0-8.37,0-16.74c0-2.44,1.09-4,3.65-3.82,2.09.16,2.93,1.78,2.94,3.71.05,10.86,0,21.72.1,32.59,0,2-.82,3.72-2.73,3.75s-4-.91-4-3.64C972,388.79,971.94,383.51,972,378.23Z"/><path class="cls-2" d="M978.52,320.42c0,5.56.06,11.12,0,16.68,0,1.86-.83,3.45-3,3.51a3,3,0,0,1-3.28-3.33c0-11.4,0-22.8.24-34.2,0-1.7,1-3.52,3.3-3.23s2.68,2.13,2.71,3.9c.1,5.56,0,11.12,0,16.67Z"/><path class="cls-2" d="M496.82,534.36c-3.23.9-4.79-.78-5.58-3.64.12-11.08.18-22.17.44-33.25,0-1.8-.51-4.76,2.3-4.91,3.18-.16,3.35,2.81,3.35,5.07C497.32,509.88,498.38,522.14,496.82,534.36Z"/><path class="cls-2" d="M497.41,401.93c0,5.28,0,10.55,0,15.83,0,2.1-.4,4.51-2.85,4.76-2.87.28-3.05-2.45-3.07-4.38-.09-11.13,0-22.26.06-33.39,0-1.79.42-3.71,2.71-3.76,2.78-.06,3.2,2.06,3.21,4.23,0,5.57,0,11.14,0,16.71Z"/><path class="cls-2" d="M959.85,386.78a17.62,17.62,0,0,1,.36-16.46A29.53,29.53,0,0,1,959.85,386.78Z"/><path class="cls-2" d="M497.86,618.87c-.13,7.92-.22,15.84-.42,23.76-.05,2.31,0,5.06-3.44,4.92-3.06-.12-2.67-3-2.77-4.7-.44-7.9-.51-15.81-.71-23.72.28-2.28.5-4.57.86-6.83s-.54-6.14,3.05-6.14,2.51,3.94,3.38,6.21c0,.63,0,1.26,0,1.9C497.84,615.8,497.85,617.34,497.86,618.87Z"/><path class="cls-2" d="M497.27,571c0,5.85.06,11.69,0,17.53,0,1.9-1,3.47-3.13,3.34-1.72-.11-2.33-1.61-2.52-3.12-1.57-12-.26-23.92.09-35.88a2.5,2.5,0,0,1,3-2.47c2.12.32,2.65,2.08,2.66,3.94,0,5.55,0,11.11,0,16.66Z"/><path class="cls-2" d="M490.38,686.24c.42-6.64.76-13.3,1.31-19.93.15-1.82-.29-4.67,2.72-4.5,2.55.15,2.8,2.67,2.89,4.66.34,7.23.52,14.47.76,21.7-.17,3.2-.3,6.39-.51,9.58-.15,2.25.35,5.35-2.8,5.55-3.88.24-3.32-3.33-3.59-5.75C490.74,693.8,490.62,690,490.38,686.24Z"/><path class="cls-2" d="M946.5,715.76c0,5.58,0,11.16,0,16.74,0,2.43-1.3,3.93-3.84,3.71-2.16-.19-2.73-1.75-2.71-3.75.09-10.86.1-21.73.23-32.59,0-2.19,1-4.28,3.4-4.38,2.8-.12,3,2.37,3,4.42.08,5.28,0,10.57,0,15.85Z"/><path class="cls-2" d="M960.08,770.71c-2.88-7.72-2.54-13.25-.33-20.77C962.51,757.41,961.43,763,960.08,770.71Z"/><path class="cls-2" d="M883.6,243.43c3.52,0,7,0,10.54,0,1.78,0,3.58.11,3.75,2.59s-1,4-3.42,4.14q-16.19,1-32.39,1.86c-2.22.11-5.11.52-5.12-3,0-3,2.16-3.77,4.76-4C869,244.56,876.31,244,883.6,243.43Z"/><path class="cls-2" d="M1052.93,252.2c-6.86.53-14.07-1-21.34-1.82-2.33-.25-5-.89-4.95-3.92,0-3.64,3.12-2.94,5.24-2.76,10.2.88,20.38,1.93,30.56,3,2.25.23,5.32.18,5.08,3.44-.32,4.27-3.85,2.38-6.18,2.42C1058.71,252.61,1056.08,252.35,1052.93,252.2Z"/><path class="cls-2" d="M752.87,263.09c-2.51-.81-6.12,1.77-6.83-2.13-.76-4.16,3.17-4.37,5.84-4.78,9.77-1.49,19.57-2.82,29.38-3.91,1.93-.21,5.23-1.58,5.81,1.7s-2.63,4.3-5.14,4.71C772.19,260.3,762.4,261.67,752.87,263.09Z"/><path class="cls-2" d="M813.53,256.32c-4.07-1.75-11.08,2.81-11.46-2.57-.42-5.91,7.07-4.29,11.35-4.79,8.12-1,16.3-1.38,24.46-1.88,2-.12,4.51-.21,4.8,2.55s-2.31,3.35-4.16,3.61C830.15,254.43,821.73,255.33,813.53,256.32Z"/><path class="cls-2" d="M1171.84,262.9c-9.3-1-18.6-1.88-27.89-2.9-2.37-.26-5-.79-4.37-4.09.54-2.83,3.16-2.19,5-2.06,10.2.73,20.42,1.42,30.57,2.61,2.38.28,7-.44,6.5,3.92s-4.64,2-7.2,2.5A12.82,12.82,0,0,1,1171.84,262.9Z"/><path class="cls-2" d="M1104.24,255.65c-5.56,0-11.12,0-16.67,0-2.41,0-4-.94-3.92-3.51.11-2.39,1.51-3.62,4-3.5q16.63.81,33.28,1.55c2.33.11,2.88,1.56,2.78,3.53-.13,2.43-1.91,2.61-3.71,2.62-5.27,0-10.53,0-15.79,0Z"/><path class="cls-2" d="M959.25,259.36c-1.68-5.1-1.77-10.16.67-15.06C961.61,249.36,962.1,254.38,959.25,259.36Z"/><path class="cls-2" d="M1418.19,792.32a24.13,24.13,0,0,1-24.69,24.36c-12.54-.14-22.93-11-23.13-24.13-.22-13.55,10.71-24.17,24.84-24.14C1408.09,768.44,1418.09,778.84,1418.19,792.32Zm-6.92-.13c-.08-9.27-8.42-17.57-17.48-17.39-8.33.17-16.41,8.87-16.41,17.68,0,9.07,8.6,17.41,17.68,17.15C1403.92,809.38,1411.34,801.4,1411.27,792.19Z"/><path class="cls-2" d="M1426.19,837.24c-8,5-16,10.2-24.19,15.12-3.13,1.89-6.48,4.2-10.22,1-.39-6.18,6-6.44,8.69-9.9,6.83-3.75,13.64-7.53,20.48-11.26,1.8-1,4-2.16,5.69-.59S1426.54,835.33,1426.19,837.24Z"/><path class="cls-2" d="M1427,796.23c0,5.55.06,11.11,0,16.65,0,1.58.56,3.74-2.18,3.89-2.13.11-3.4-1-3.4-3q0-17.94.22-35.87a3.06,3.06,0,0,1,2.91-2.82c2.58-.22,2.39,2,2.41,3.67.07,5.84,0,11.68,0,17.52Z"/><path class="cls-2" d="M316,441.14c0-5.54-.24-11.09.12-16.61.15-2.31,2-4.92,4.42-4.78,3.67.21,2.11,3.73,1.88,5.54A182.31,182.31,0,0,0,321,455c.08,2.29.42,5.3-2.82,5.43-3.83.14-2.44-3.29-2.53-5.27-.22-4.67-.07-9.35-.07-14Z"/><path class="cls-2" d="M599,868.11c-3.58-.63-7,1-7.41-3.07-.21-2.34,1.74-3.55,3.94-4,10.05-1.86,20.08-3.8,30.16-5.41,2-.32,5.23-1.16,5.71,2.21.4,2.79-2,4.06-4.4,4.56C617.31,864.45,607.59,866.38,599,868.11Z"/><path class="cls-2" d="M1313.91,866.27c-10-.11-18.63-3-27.29-5.46-3-.85-5.83-2.54-4.53-6.15,1.39-3.87,4.74-1.18,6.78-.72,8.23,1.85,16.34,4.18,24.77,5.21,3.54.43,9.21,0,8.5,5C1321.49,868.73,1316,864.75,1313.91,866.27Z"/><path class="cls-2" d="M1343.93,868.23c-2.73-.26-5.92.1-6.44-3.28-.59-3.76,2.82-3.61,5.36-4.07,9.45-1.71,18.86-3.6,28.34-5.08,2.17-.34,5.65-2.09,6.52,1.8.73,3.27-1.79,4.5-4.66,5Q1358.49,865.4,1343.93,868.23Z"/><path class="cls-2" d="M537.76,771c14.43,15.22,15.21,24.6,3.35,39.94-1.28.68-2.56,1.34-3.83,2-10.49,5.73-21,4.6-29-3.12-6.38-6.12-8.68-19.07-4.92-27.69,4.27-9.78,13.29-14.63,25.12-13.25A86.66,86.66,0,0,1,537.76,771ZM524,775.09c-7.93.25-16.29,9-16.14,16.85.17,9.55,8.89,17.83,18.36,17.46,8.66-.35,16.25-8.86,15.85-17.76A17.49,17.49,0,0,0,524,775.09Z"/><path class="cls-2" d="M1427.09,571.47c0,5.54.09,11.08,0,16.61,0,1.48.69,3.9-1.92,4a3.41,3.41,0,0,1-3.77-2.94c-1.31-12.5-.83-25,.39-37.46.16-1.62,1.69-2.31,3.3-2,1.78.4,2,1.95,2,3.42,0,6.12,0,12.24,0,18.35Z"/><path class="cls-2" d="M410.81,593.36c-16-.12-29.38-13.39-29.19-29a29.78,29.78,0,0,1,30-29.31,29,29,0,0,1,29,30C440.22,581,427.07,593.48,410.81,593.36ZM389.15,564a22.09,22.09,0,0,0,22.18,22.53c11.3.12,21.75-10.26,22.17-22,.41-11.38-10.5-22.3-22.59-22.63C399.54,541.54,389.35,551.89,389.15,564Z"/><path class="cls-2" d="M1507.27,593.27c-16-.66-29.24-14.46-28.55-29.69A30,30,0,0,1,1509.49,535a29.15,29.15,0,1,1-2.22,58.26Zm-20.92-29.72a22.42,22.42,0,0,0,21.94,22.88c11.46.32,22-9.91,22.37-21.64.35-12.06-10.59-23-23.06-23.06C1496.85,541.68,1486.55,552.25,1486.35,563.55Z"/><rect class="cls-1" width="1" height="1"/><rect class="cls-1" x="1919" y="1079" width="1" height="1"/><rect class="cls-1" y="1079" width="1" height="1"/><rect class="cls-1" x="1919" width="1" height="1"/></g><g id="Capa_3" data-name="Capa 3"><path d="M824.19,495.22v111H804.36V535.51l-19.51,14.91L768.67,563l-16.18-12.53L733,535.51v70.74H713.16v-111L733,510.45l35.69,27.44,35.69-27.44Z"/><path d="M948.53,515.21a34.27,34.27,0,0,1,2.54,12.85v45.52a32.67,32.67,0,0,1-10.47,24.11,34.29,34.29,0,0,1-7.29,5.23,31.42,31.42,0,0,1-14.91,3.65h-69V586.74h69a13.05,13.05,0,0,0,13-13V558.19A32.44,32.44,0,0,1,919,560.73H872.24a32.76,32.76,0,0,1,.48-65.51h45.52a32.59,32.59,0,0,1,30.14,20Zm-88.66,12.85a13,13,0,0,0,12.37,13H919a13,13,0,0,0-.63-26H872.88A13.07,13.07,0,0,0,859.87,528.06Z"/><path d="M1075.1,561.21a31.45,31.45,0,0,1,2.7,12.84,32.63,32.63,0,0,1-32.67,32.68h-78.2V586.9h78.2a12.93,12.93,0,0,0,12.84-13,12.76,12.76,0,0,0-11.42-12.85H966.93V495.7H1068.6v19.82H986.75v25.7h59.64a32.17,32.17,0,0,1,28.87,19.83Z"/><path d="M1204.69,528.85a32.67,32.67,0,0,1-9.2,22.84A32.76,32.76,0,0,1,1172,607.21h-78.2V587.38H1172a13.07,13.07,0,0,0,13-13,12.91,12.91,0,0,0-12.22-13h-59V541.54h59a13,13,0,0,0-.63-26H1094V495.7h78.2a32.62,32.62,0,0,1,32.67,32.67Z"/></g></g></svg>