<svg xmlns="http://www.w3.org/2000/svg" viewBox="0 0 1920 1080"><defs><style>.cls-1{fill:#f2f2f2;}.cls-2{fill:#010101;}</style></defs><g id="Capa_2" data-name="Capa 2"><g id="Capa_1-2" data-name="Capa 1"><path class="cls-1" d="M1492.59,513.17c-.57,1.73-1.29,4.05.35,5.38,2.2,1.8,3.9-.33,5.59-1.59,1.7-5.13,3.12-10.38,6.93-16.09.94,6.1-.78,10.39-2.14,14.72-2.27,11.45-4.19,23-7.7,34.16-4.63,26.33-10,52.5-16.45,78.44q-4.32,22.75-8.62,45.56c-.64,3.45-2.41,4.79-6.17,4.76q-35.91-.27-71.83,0c-4.72,0-6.36-1.67-6.24-6.12.13-4.89,0-9.8-.1-14.69,0-2-.18-4-3-3.82-2.23.14-2.31,1.93-2.37,3.56-.17,4.63-.64,9.28-.3,13.87.43,5.79-1.71,7.28-7.47,7.21-29.39-.34-58.78,0-88.17-.29a42.24,42.24,0,0,0-23,6.38c-31.89,19.15-64.09,37.76-96.2,56.58-33.65,22.64-69.72,39.65-109.92,47-4.41,1.84-9,4.89-11.9-2.19-.28-.68-2.47-.75-3.78-.83-8.14-.57-16.27-1.29-24.42-1.49-2.81-.06-7.78-2.16-7.91,2.73-.13,5.45,5.15,3.26,8.26,3.6,5.51.61,11.28-.79,18.54,2.67a377.4,377.4,0,0,1-69.19,2.82c-2.16-.09-3.83-.81-3.88-3.17,0-3.73,2.93-2.42,4.76-2.45,7.35-.1,14.69.06,22.05,0,2.34,0,5.31.28,5.31-3.39,0-3.84-3.1-3-5.36-3.1-7.33-.38-14.67-.61-22-.94-1.86-.09-4,.05-4.27-2.63-.27-2.84,1.88-2.7,3.77-3,1.6-.26,3.4-.42,4.67-1.29,4.16-2.81,10.86,3.32,12.38-1.06,5.12-14.69,19-29,8.46-45.43-7.75-12.06-7.87-24.24-7.7-37.16,0-3.94.39-8-5.42-7.75-4.82,5.72-1,12.56-2.47,18.69-.59,2.5,2.82,8-3,7-4.25-.72-11.64,1.57-11.48-7.61.36-19,.12-38.09.08-57.14a28,28,0,0,0-.55-4c-3.91,1-2.52,4-2.54,6.09C958,664.59,958,682,958,699.43c0,7.44-4.23,11.38-11.28,10.89-3.17-.21-2.32-2.32-2.34-4.06-.08-5.43-.06-10.87-.16-16.32-.05-2.6-.44-4.87-4-4.82-3.24,0-5.22,1-5.15,4.61.06,3.27-.1,6.54-.1,9.79,0,9.74-.13,18.8-6.15,27.84-5.86,8.8-5.12,19.67-.34,29.73,2.32,4.88,6,9,6.86,14.67.45,3,2.72,3.78,5.55,3.11,4.46-1,8.53.8,12.74,1.68,2.21.46,4.38.61,4.3,3.7-.1,3.5-2.73,2.75-4.73,2.8-6.8.18-13.6.09-20.41.36-2.42.09-6.2-1.23-6.29,3-.13,5,4,3.35,6.64,3.39,6.8.11,13.6,0,20.41-.25,2.22-.06,4.46-.82,4.49,2.68,0,3.09-1.86,3.37-4.3,3.39-22.94.13-45.94.85-70.5-3.26,8-2.92,14.57-1.79,21-2.48,2.76-.3,7.55,2.09,7.71-3.13.15-5.52-4.79-3.17-7.4-3.14-8.43.14-16.83.85-25.24,1.35-.82,0-2.08-.17-2.37.26-7.67,11.17-15.95.31-23.88.72-28.31-6.38-54.49-18-79.46-32.52-7.49-4.36-14.75-9.07-22.13-13.63C720.92,722.44,690.7,704.58,661,686c-10.24-7.64-22-8-34.18-7.83-26.4.37-52.81-.26-79.19.54-8.91.28-10.79-2.77-9.88-10.47.45-3.76,0-7.6,0-11.41,0-1.74-.64-3.44-2.54-3.6-2.2-.2-2.52,1.85-2.65,3.38-.41,5.43-.86,10.86-.85,16.29,0,4-1,5.79-5.52,5.76-23.68-.21-47.37-.13-71-.07-2.67,0-5-.11-5.46-3.37-2.73-17.41-8.11-34.32-10.06-51.89-6.57-25.36-11.56-51.06-16.31-76.8a194.2,194.2,0,0,1-6.68-31c-3.06-6.06-3.31-12.75-4.22-19.34a40.82,40.82,0,0,1,7.57,19.31c1.73,2.54,3.78,5.45,7.11,3.21,2.65-1.77.44-4.57-.41-6.64-3.81-9.26-6.75-19-12.77-27.18-2.73-3.7-2.6-7.77-1.83-11.71,2.83-14.59,2.37-29.11.11-43.72-1.47-9.55,2.31-18.8,2-28.34-.1-3,2.85-3.71,5.17-4.4Q471.92,381,524.56,365.28c5.77-1.74,8.93-1.06,7.55,6a15.46,15.46,0,0,0,.33,4.86c.19,1.44.91,2.6,2.58,2.58,2.06,0,3.16-1.35,2.73-3.14-3.64-15.06,7.4-15.92,17.29-18.52,55.75-14.61,112.11-26,169.33-33,30-3.63,59.87-7.54,89.83-11.12,10.54-1.24,19-5.84,26.11-13.56,9.6-10.41,19.47-20.57,29.24-30.82.83-.89,1.39-2.41,3.12-1.66l-.11.17.16-.15a.06.06,0,0,0-.05,0c7.29-10.25,16.93-18.39,25.27-27.68,1.85-2.06,4.59-1.26,7-1.26,15,.06,30,.41,44.92.1,6.07-.14,9.36,1,8.16,7.89-.27,1.64-.73,3.95,1.93,4.65,3.68-12.61,3.68-12.64,18.65-12.71,11.71,0,23.43.12,35.13,0,5-.08,8.58,1.67,12,5.38,17.8,19.14,35.87,38,53.82,57A40.32,40.32,0,0,0,1105.21,313c48.87,5.48,97.7,11.22,146.22,19.34,42,7,83.41,17,124.59,27.85,3.61.95,4.92,2.75,4.69,6.32a71.38,71.38,0,0,0,.15,8.14c.08,1.62.23,3.45,2.44,3.55s2.37-1.5,2.89-3.17c1.18-3.65-2.34-9.27,2.32-10.75,3.31-1,7.82,1.43,11.71,2.6,33.25,9.93,66.43,20,99.76,29.77,5.32,1.55,6.06,4.33,6.66,9.22,2,15.51-1.06,30.93-.21,46.32.9,16.32,2.21,32.23-8.47,46.51C1495,502.67,1494.18,508.26,1492.59,513.17Z"/><path class="cls-2" d="M972.46,822.48a784.5,784.5,0,0,1,84,2.3c29.08,1.16,58,4.53,86.76,8.37,39.63,5.3,78.35,15.21,117.6,22.39,47.14,8.61,90-2,128.84-29.88a31.87,31.87,0,0,1,2.8-1.57c33.85-25.8,50.63-63.14,66.69-100.61,5-11.69,10.84-15.52,23.7-15.24,45.68,1,91.39.43,137.08.48,3.78,0,7.57.34,11.37.54,8.39-.18,16.81-.15,25.2-.58,18.28-.9,29.86-11.13,30.65-29.3,1.06-24.7.57-49.46.76-74.2q.19-25.27.43-50.52s1.16-39.14-4.71-50.88c-5.5-6.11-9.09-11.09-13.46-15.4-16.55-16.28-44.57-9.06-49.82,15.3-2.37,11-7.68,15.34-19,15.74-13,.47-26.14.23-39.22.37-18.14.22-22-6.08-21.85-22,.25-38.11,1-76.2-.49-114.3-1.19-29.78-15.27-51-42-63-14.25-6.39-29.57-10.5-44.7-14.91q-38.88-11.37-78-21.9c-24.28-6.59-48.75-12.84-73.34-17.63-32.65-6.36-65.31-13-98.36-17.5-23.53-3.21-47.07-6.66-70.7-8.93s-47-4.14-70.68-4.32a15.07,15.07,0,0,1-11.42-5c-7.57-7.83-15.81-15-23.35-22.83-5-5.13-10.63-7-17.55-7H910.11c-6.43.29-15.2,2.17-20.3,9.42q-12,11.63-24.16,23.16c-2.6,2.47-5.93,2.38-9.22,2.47-88,1.91-174.22,16.5-259.82,35.78-56.48,12.74-112.4,27.62-167.3,46.08-31.7,10.67-50,36.41-50.11,69.8-.15,37.86-.07,75.71-.11,113.57,0,13.75-4.83,18.84-18.62,18.94-15,.11-29.94-.15-44.9-.43-8.49-.16-14.15-4.92-15.79-12.87-2.86-14-10.38-23.52-24.45-26.18-14.65-2.78-24.85,5.31-33.31,16.2-.77,1-1.57,2-3.56,4.44l-5.91,11.44c-1.65,11.75-.64,23.88-.83,35.82q0,39.27,0,78.52c1.28,20.08-1.21,40.24,1.51,60.28,6.52,16.65,15.32,22,35.61,22q78.78-.08,157.54-.07c2.72,0,5.45,0,8.17.05,19.42.15,19.29.21,27.06,17.5,1.78,4,1.08,5.95-2.81,7.47-5.82,2.26-11.45,5.06-17.34,7.05s-6.7,4.91-4.63,10.42L480.73,872c1.29,7.56,4.77,9,11.82,6.41,9.91-3.63,20.17-6.31,30.26-9.4,14.94-6.1,30.12-9.29,46.64-8.65,34.75,1.32,69.5.18,103.75-7.05,16.6-3.68,33.1-7.82,49.8-10.94,22.91-4.32,45.9-7.92,69.16-10.45,20.9-2.26,41.72-5.29,62.75-6.33,15.62-2,31.33-2.46,47-2.85,16.85-.42,33.71-.15,50.54-.78Zm101.45-574.31a1279.75,1279.75,0,0,1,154,17.2,1829,1829,0,0,1,257.53,63.85c22.21,7.24,35.8,22.57,41.6,47-8.66-2.75-15.86-5-23-7.31-1.54-.51-3.09-1.12-3.69-2.92-4-11.71-14-16.81-24-21.83-1.56-.78-3.78-3.6-5.48-.46-1.42,2.67.57,4.65,2.71,6,3.67,2.34,7.54,4.36,11.11,6.85,2.32,1.6,4.86,3.32,6.72,8.93-134.63-47.07-271.81-72.53-411.16-87.48-1.19-.13-1.59-1.29-1.41-2.84,4.94,0,9.93.06,14.92,0,1.72,0,4.14.84,4.49-2s-1.48-4-3.9-4.22c-6-.45-12-1-17.93-.92s-8.53-2.16-7.82-8.18a27.4,27.4,0,0,0-.16-6.52C1067.92,249,1069.38,248,1073.91,248.17Zm306.35,102.75c.08,5.54-4.81,2.62-7.4,1.88C1306.6,334,1239,322.33,1170.68,314.22c-20.77-2.47-41.49-5.58-62.35-7.23-16.09-1.27-24.28-12.46-35.4-24,21.88,5.47,41.75,5.84,61.33,8.36,32,4.12,64,8.9,95.83,14,49.29,7.95,97.78,19.43,146.09,31.83C1385.8,339.65,1380.19,346.44,1380.26,350.92Zm-419-127.6c.22-5.08-1.17-10.14,7.24-9.82,13.82.5,27.7,0,41.56-.15a10.89,10.89,0,0,1,8.55,3.68c8.19,8.31,16.6,16.38,25.12,24.35,3.89,3.65,7.67,7.87,14.11,6.3,2.62-.63,4.06,1.14,4.16,3.72s0,5.43,0,8.15h.23a14.15,14.15,0,0,1,.1,3.24c-.34,1.93,1.49,4.76-1.42,5.61-2.36.68-3.76-1.64-5.24-3.19-7.29-7.67-15-15-21.78-23.11s-14.46-11.11-24.84-10.58c-13.54.68-27.18-.35-40.74.16C961.31,231.94,961,228.57,961.25,223.32ZM857.74,263c0-2.17.34-4.35.21-6.51-.33-5.34-.19-9.83,7.43-8.58,3.43.55,5.93-2.19,8.32-4.5,8.64-8.29,17.39-16.45,25.92-24.84a16.78,16.78,0,0,1,13.12-5.12c13.07.36,26.13.36,39.2.11,4.45-.09,6.31.77,6.13,5.71-.52,14.57,2,12.05-11.76,12.37-6.26.14-12.52,0-18.79,0-23.73-6.1-40.33,4.38-53.69,22.81-2.86,3.94-6.57,7.25-9.89,10.85-1.44,1.57-2.77,3.9-5.27,2.78C856.46,267.1,857.71,264.77,857.74,263Zm-464,107.78c5.38-16.77,15-30.47,31.32-37.78,21.62-9.65,44.71-15.13,67.38-21.69,74.18-21.44,149.36-38.56,225.7-50.25a1157,1157,0,0,1,127.42-12.69c4.89-.2,6,1.24,6,5.8.1,12.92-.3,13.56-13.38,14.2-3.53.18-7.08.13-10.61.31-2.44.13-5.32.23-5.4,3.58-.08,4,3.15,2.81,5.38,2.88,3.79.11,7.6,0,11.86,0-1.28,4.3-4.6,4.48-7.67,4.78a1740.21,1740.21,0,0,0-382.14,78.2c-6.41,2.09-13,3.8-19.46,5.68l-1.11.78c-.07-.65-.13-1.31-.2-1.94,3.57-6.28,9.85-9,15.82-12.19,2.55-1.36,6.47-2.57,4.56-6.3-1.83-3.56-5-.6-6.95.54-9.5,5.57-20.23,9.85-24,21.79-.61,1.85-21.13,9-23.27,8.6C391.58,374.45,393.31,372.2,393.77,370.76Zm453-89.1c-11.34,16-23.89,24.56-42.37,26.31-86.33,8.2-172,20.89-255.75,44.13-11.69,3.23-11.8,2.84-11.08-9.18.21-3.61,1.89-4.59,4.72-5.35C585.82,326,629.61,315.73,674,307.87c48.95-8.68,98.21-15.25,147.6-20.7C829.54,286.29,837.51,285.67,846.81,281.66Zm-395,414.25c-3.47.3-7-.26-10.52-.42-23.4.11-46.79.31-70.19.34-34.58,0-69.15.15-103.72-.08-17.27-.12-22.39-5.56-22.37-22.65,0-16.06.18-32.11.26-48.17q0-38.41,0-76.84c-.08-7.35-.22-14.67-.22-22,0-12.26,5.13-22,14.71-29.52,9.88-7.75,22.12-4,25.93,7.92,7.21,22.65,14.63,28,38.25,27.83,12.79-.11,25.58,0,38.36-.26,19.29-.41,29.62-10.86,29.67-30,.08-36.74.23-73.47-.11-110.22-.07-6.59,1.86-8.95,8.19-11.07C441,367.06,482.2,354.62,523.69,343c2.47-.69,6.62-5.2,8.63.44,2.16,6-1,13.79-5.52,15-33.58,8.81-66.74,19.07-99.89,29.35-3.6,1.11-7.2,2.24-10.75,3.36-.47-.53-1-.82-1.13-1.25-1-2.79,2.19-7.65-2.08-8.39-5.25-.9-3.64,4.63-4.85,7.59-3.52,8.62-2.82,17.61-2.85,26.56,0,4.07.12,8.16,0,12.25-1.46,41.11.06,81.95,11.07,121.95q8,38.22,15.95,76.46c3.64,16.91,7.11,33.85,11.1,50.68.75,3.21-.51,9,6.12,8.34,9.79-.24,19.57-.31,29.35-.77,4.55-.21,6.61,1.75,8.46,5.77,4,8.57,6,18.11,12.93,26-6.88,2.9-13.57,5.61-20.14,8.54-3.27,1.46-4.89.49-6.23-2.68-2.44-5.74-5.78-11.15-7.79-17C463.59,698,459.12,695.29,451.85,695.91Zm39.56,175.86c-5.56.21-4.86-5.29-5.63-8.28-1.08-4.27,3.29-2.76,3.68-2.88,7.8-1.5,8.05,3.54,8.41,6.73C498.27,871.13,494.12,871.65,491.41,871.77Zm16.56-5.3c-2.7.88-4-.57-4.36-3.14-.41-2.93,1.7-2.91,3.58-3,4.18-.06,8.37,0,12.56,0,.08.64.16,1.27.26,1.91C516,863.69,512,865.18,508,866.47ZM560.76,850c-18.3,7.76-37.55,7.91-56.91,7-2.76-.12-3.25-2.16-4-4.34-1.65-4.87-3.65-9.63-5.54-14.42-.62-1.57-1.46-3.07-3.54-2.45-1.81.54-2.38,2.06-2.43,3.81-.08,4.23,2.16,7.77,3.55,11.56.7,1.9,3.66,5.12-.89,5.35-2.78.14-6.67,5.13-9.09-1.74-11.92-33.77-24.22-67.39-36.58-101-1.69-4.53-2.21-7.08,3.46-9,6.05-2,6,1.81,7.22,5.43,2.09,6.44,4.31,12.85,6.83,19.15.75,1.86,1,5.61,4.66,4.09,2.6-1.08,3.08-3.58,2.14-6.2-2.35-6.66-4.8-13.26-7-20-.95-2.8-4.08-6.14.47-8.41,5-2.5,5,2.45,6.3,5,2.53,4.79,4.79,9.73,7.21,14.58,2.06,4.09,3.71,9.44,10,6.07,5.94-3.19,3.06-7.67,1-11.85-2.55-5.11-4.87-10.31-7.62-15.3-1.85-3.33-1.81-5,2.29-6.59,8.6-3.25,16.95-7.19,25.42-10.81,2.79-1.19,5.44-2.48,7.11,1.88,7.61,19.76,15.41,39.45,23.22,59.39-3.46,1.61-4.15-1.75-6-2.82-1.6-1-2.66-4.31-5.2-1.76-1.78,1.81-1.16,4.25.27,6,3.25,4,6.37,8.24,10.25,11.56a50.6,50.6,0,0,1,17.25,29.5c.22.51.41,1,.61,1.52-.48-.22-.93-.45-1.41-.68-7.39-2.9-13.82-7.39-19.79-12.48-3.77-3.22-7.42-4.89-11.22-.44-4,4.69-.09,7.59,3,10,10.16,8,19.51,17.52,34,17.32,3.58,0,3.45,3.6,4.17,6.08C564.64,847.86,563,849.1,560.76,850ZM531.65,743.81c-6-9.35-8.21-18.12-11.18-26.34-1.67-4.6,4.84-4.58,7.81-5.88,3.73-1.61,3.42,1.67,3.41,4.19C531.62,724.32,531.65,732.85,531.65,743.81Zm6-31.61c-.06-4.63,1.52-6.61,6-6.33,23.85,1.44,47.86-.92,71.62,2.13s40.93,23.55,41.24,47.9c.32,14.11-5.16,25.82-15.27,35.34C624.55,807,607.65,822.51,590.74,838c-4.72,4.35-8.34-.43-12.31-1.95-10.85,2-14.41-4.5-16-13.46q-14.69-36.3-29.4-72.63c-2-4.94,0-5.52,4.14-4.44C537.39,734.44,537.84,723.32,537.67,712.2Zm27.25,145.06c7.55-7.24,19.53-7,34.16,1A212.83,212.83,0,0,0,564.92,857.26Zm386-48.9c-31.5,1.08-63,1.95-94.53,2.88-35.6,3.93-71.42,6.38-106.68,13-30.64,5.79-61.19,12.12-91.76,18.29-9.63,1.93-19.36,2.35-29.14,2.37-9,1.28-17.81-1.11-26.73-1.39-1.22,0-3-.59-3.51-1.46-1-1.84,1-2.71,2.16-3.76,1.58-1.49,3.48-2.73,4.74-4.45,4.87-6.62,10.94-9.07,18.86-6.13,5.62-3,12-2,18-3.5,2.36-.6,4.79-1,7.12-1.62,2.11-.6,3.15-2.14,2.51-4.35s-2.42-1.73-4-1.47c-8.72,1.37-17.45,2.8-28.59,4.58,18.6-18.71,41-32,44.29-59.19.51-23.14-7.41-42-27.83-54.41-8.59-5.23-18.06-7.32-28-7.52q-29.81-.57-59.59-1.06c-14.3-.26-25.56,8.47-38.3,12.8-2.51.85-4.52,3.09-7.74,2.6-1.18-8.35-4.53-16.09-7.42-23.94-1.82-4.91-1.62-6.87,4.41-6.44,7.87.57,15.78.24,23.67.37,4.38.07,9.81-1.66,10,5.83.05,1.58,1.59,2,3,1.88,1.8-.18,2.09-1.61,1.86-3-.8-4.86,2.54-4.48,5.53-4.48q48.21,0,96.38.06c2.68,0,5.36.16,7.86,1.67q48.16,29,96.36,58c22,11.61,42.7,25.87,66.27,34.56,5.82,2.14,11.68,4.23,17.4,6.31.66,2.73-1.57,2.49-2.84,3.14-1.59.8-2.87,1.95-2.39,3.76s2.39,2,4,2c6.77-.21,13.55-.49,20.32-.75,8.3-1.11,16.17,1.76,24,3.27,26.59,5.12,53.42,5.77,80.33,5.89,2.36,0,6.86-2.54,6.87,2.69S953.4,808.28,951,808.36Zm2.76-12.72c-22.94.13-45.94.85-70.5-3.26,8-2.92,14.57-1.79,21-2.48,2.76-.3,7.55,2.09,7.71-3.13.15-5.52-4.79-3.17-7.4-3.14-8.43.14-16.83.85-25.24,1.35-.82,0-2.08-.17-2.37.26-7.67,11.17-15.95.31-23.88.72-28.31-6.38-54.49-18-79.46-32.52-7.49-4.36-14.75-9.07-22.13-13.63C720.92,722.44,690.7,704.58,661,686c-10.24-7.64-22-8-34.18-7.83-26.4.37-52.81-.26-79.19.54-8.91.28-10.79-2.77-9.88-10.47.45-3.76,0-7.6,0-11.41,0-1.74-.64-3.44-2.54-3.6-2.2-.2-2.52,1.85-2.65,3.38-.41,5.43-.86,10.86-.85,16.29,0,4-1,5.79-5.52,5.76-23.68-.21-47.37-.13-71-.07-2.67,0-5-.11-5.46-3.37-2.73-17.41-8.11-34.32-10.06-51.89-6.57-25.36-11.56-51.06-16.31-76.8a194.2,194.2,0,0,1-6.68-31c-3.06-6.06-3.31-12.75-4.22-19.34a40.82,40.82,0,0,1,7.57,19.31c1.73,2.54,3.78,5.45,7.11,3.21,2.65-1.77.44-4.57-.41-6.64-3.81-9.26-6.75-19-12.77-27.18-2.73-3.7-2.6-7.77-1.83-11.71,2.83-14.59,2.37-29.11.11-43.72-1.47-9.55,2.31-18.8,2-28.34-.1-3,2.85-3.71,5.17-4.4Q471.92,381,524.56,365.28c5.77-1.74,8.93-1.06,7.55,6a15.46,15.46,0,0,0,.33,4.86c.19,1.44.91,2.6,2.58,2.58,2.06,0,3.16-1.35,2.73-3.14-3.64-15.06,7.4-15.92,17.29-18.52,55.75-14.61,112.11-26,169.33-33,30-3.63,59.87-7.54,89.83-11.12,10.54-1.24,19-5.84,26.11-13.56,9.6-10.41,19.47-20.57,29.24-30.82.83-.89,1.39-2.41,3.12-1.66,7.29-10.25,16.93-18.39,25.27-27.68,1.85-2.06,4.59-1.26,7-1.26,15,.06,30,.41,44.92.1,6.07-.14,9.36,1,8.16,7.89-.27,1.64-.73,3.95,1.93,4.65,3.68-12.61,3.68-12.64,18.65-12.71,11.71,0,23.43.12,35.13,0,5-.08,8.58,1.67,12,5.38,17.8,19.14,35.87,38,53.82,57A40.32,40.32,0,0,0,1105.21,313c48.87,5.48,97.7,11.22,146.22,19.34,42,7,83.41,17,124.59,27.85,3.61.95,4.92,2.75,4.69,6.32a71.38,71.38,0,0,0,.15,8.14c.08,1.62.23,3.45,2.44,3.55s2.37-1.5,2.89-3.17c1.18-3.65-2.34-9.27,2.32-10.75,3.31-1,7.82,1.43,11.71,2.6,33.25,9.93,66.43,20,99.76,29.77,5.32,1.55,6.06,4.33,6.66,9.22,2,15.51-1.06,30.93-.21,46.32.9,16.32,2.21,32.23-8.47,46.51-3,3.94-3.78,9.53-5.37,14.44-.57,1.73-1.29,4.05.35,5.38,2.2,1.8,3.9-.33,5.59-1.59,1.7-5.13,3.12-10.38,6.93-16.09.94,6.1-.78,10.39-2.14,14.72-2.27,11.45-4.19,23-7.7,34.16-4.63,26.33-10,52.5-16.45,78.44q-4.32,22.75-8.62,45.56c-.64,3.45-2.41,4.79-6.17,4.76q-35.91-.27-71.83,0c-4.72,0-6.36-1.67-6.24-6.12.13-4.89,0-9.8-.1-14.69,0-2-.18-4-3-3.82-2.23.14-2.31,1.93-2.37,3.56-.17,4.63-.64,9.28-.3,13.87.43,5.79-1.71,7.28-7.47,7.21-29.39-.34-58.78,0-88.17-.29a42.24,42.24,0,0,0-23,6.38c-31.89,19.15-64.09,37.76-96.2,56.58-33.65,22.64-69.72,39.65-109.92,47-4.41,1.84-9,4.89-11.9-2.19-.28-.68-2.47-.75-3.78-.83-8.14-.57-16.27-1.29-24.42-1.49-2.81-.06-7.78-2.16-7.91,2.73-.13,5.45,5.15,3.26,8.26,3.6,5.51.61,11.28-.79,18.54,2.67a377.4,377.4,0,0,1-69.19,2.82c-2.16-.09-3.83-.81-3.88-3.17,0-3.73,2.93-2.42,4.76-2.45,7.35-.1,14.69.06,22.05,0,2.34,0,5.31.28,5.31-3.39,0-3.84-3.1-3-5.36-3.1-7.33-.38-14.67-.61-22-.94-1.86-.09-4,.05-4.27-2.63-.27-2.84,1.88-2.7,3.77-3,1.6-.26,3.4-.42,4.67-1.29,4.16-2.81,10.86,3.32,12.38-1.06,5.12-14.69,19-29,8.46-45.43-7.75-12.06-7.87-24.24-7.7-37.16,0-3.94.39-8-5.42-7.75-4.82,5.72-1,12.56-2.47,18.69-.59,2.5,2.82,8-3,7-4.25-.72-11.64,1.57-11.48-7.61.36-19,.12-38.09.08-57.14a28,28,0,0,0-.55-4c-3.91,1-2.52,4-2.54,6.09C958,664.59,958,682,958,699.43c0,7.44-4.23,11.38-11.28,10.89-3.17-.21-2.32-2.32-2.34-4.06-.08-5.43-.06-10.87-.16-16.32-.05-2.6-.44-4.87-4-4.82-3.24,0-5.22,1-5.15,4.61.06,3.27-.1,6.54-.1,9.79,0,9.74-.13,18.8-6.15,27.84-5.86,8.8-5.12,19.67-.34,29.73,2.32,4.88,6,9,6.86,14.67.45,3,2.72,3.78,5.55,3.11,4.46-1,8.53.8,12.74,1.68,2.21.46,4.38.61,4.3,3.7-.1,3.5-2.73,2.75-4.73,2.8-6.8.18-13.6.09-20.41.36-2.42.09-6.2-1.23-6.29,3-.13,5,4,3.35,6.64,3.39,6.8.11,13.6,0,20.41-.25,2.22-.06,4.46-.82,4.49,2.68C958,795.34,956.16,795.62,953.72,795.64Zm552.92-295.72c0,.21-.33.39-.49.57l-.56-.32.58-.84C1506.35,499.53,1506.64,499.73,1506.64,499.92ZM960.18,759.09c-2,.19-1.78,1.75-2.26,2.94-1,2.58,3,8.08-3.66,7.33-5-.58-10.58-1.16-9.91-8.88.48-5.4.15-10.88.13-16.32,0-3.24.62-6.73-4.5-6.84s-5.78,2.78-5.56,6.8a49.92,49.92,0,0,1-.24,5.06c-5.32-13.72,7.57-33.79,20.8-33.81,4.78,0,1.75,5.27,5.61,6.35.61-4.58,2.58-7.43,7.69-5.15,12.13,5.41,24.53,18.93,16.52,37.37-3.28-4-1.35-8.39-2-12.29-.39-2.29.12-5.44-3.55-5.2-3.35.22-3.25,3-3.27,5.51,0,6.27,0,12.53-.19,18.78-.17,5-7.53,10.19-12.2,8.81-2-.57-2.16-2.12-2.34-3.81C961,763.5,962.26,761,960.18,759.09Zm714.58-103c0,3.78-.41,7.57-.62,11.35,1.18,4.87.49,9.74-.36,14.52-1.37,7.83-7.06,13.1-14.91,13.62-8.12.54-16.24,1-24.36-.1-5.15.2-10.28.58-15.43.59-50.34.07-100.68.23-151,0-7.57-.05-11.53,2.42-14.8,9.34-11.23,23.77-20.41,48.65-34.9,70.78-17.58,26.85-41,46.9-71.58,57.82-18.79,9-38.91,11.35-59.35,11.22-18.79-.13-37-4.23-55-9.38l-68.67-13.2c-29.65-3.88-59.28-7.93-89.16-10-35-2.37-70.1-3.19-105.16-4-1.1,0-2.18,0-3.27,0-2.18,0-4.6.2-4.71-3-.13-3.56,2.6-2.81,4.59-2.87,11.71-.41,23.41-.81,35.12-1.07,19.28-.44,38.41-2.27,57.17-6.88,10.34-2.54,20.57-.66,30.88-.49,2.7,0,6.78,2.06,7.85-1.82s-4.09-3.19-6.35-6c9.29-3.74,18.19-7.37,27.12-10.94,14.93-6,28.26-15,42.58-22.14q55.2-33.19,110.35-66.42c3-1.81,6.16-2,9.42-2q47.38-.15,94.77-.27c3.25,0,6.1.09,6.13,4.42a2.48,2.48,0,0,0,2.39,2.75c2.3.14,2.68-1.59,2.57-3.24-.27-3.68,2.11-3.8,4.71-3.81,10.35,0,20.7,0,31-.18,4.84-.1,4.75,2.12,3.28,5.56-2.45,5.74-4.94,11.48-7.16,17.3-.88,2.31-3,5.59.59,6.95,3.29,1.24,4.55-2.17,5.64-4.61,2.8-6.18,6-12.25,8-18.69,1.73-5.58,4.79-6.74,10.11-6.43,7.86.47,15.78,0,23.68.18,6,.15,9.29-1.62,10.56-8.29,3.21-16.8,7.33-33.41,11.07-50.11,4.71-26.31,10.29-52.45,16.39-78.48,3.34-17.32,8.1-34.5,9.7-52,2.93-31.71,1.45-63.62.59-95.43-.15-5.57-2.44-11.1-3.91-16.59-.56-2-2.18-3.29-4.37-2.6-2.4.75-1.13,2.64-.8,4.05,1.26,5.27-.33,6-5.35,4.4-35.45-11.15-71-22.11-106.91-31.6-5.75-1.5-9.5-11.2-6.37-16.32,1.65-2.73,3.77-.68,5.62-.16,32.35,9.09,64.59,18.58,96.52,29,10.83,3.52,21.58,7.35,32.53,10.44,5.19,1.47,6.72,4,6.71,9.22-.21,36.73-.08,73.48-.15,110.23,0,8.93,1,17.37,8,23.91,4.53,4.2,9.49,7.28,15.87,7.28,17.69,0,35.39.36,53.07,0,14.57-.35,25-9.42,28.11-23.7,1.54-7.21,5-12.87,12-15.11,7.3-2.32,13.33,1.08,18.29,6.23,5.75,6,9.79,12.81,10.86,21.34,1.34,10.6.78,21.2.8,31.81Q1674.86,604.29,1674.76,656.14Z"/><path class="cls-2" d="M957.93,368.48c0-7.45-.32-14.92.09-22.35.45-8.15-6-6.38-10.08-7.06-6.19-1-2.94,4.15-3.41,6.69-.45,2.38,0,4.91-.43,7.3a3.7,3.7,0,0,1-4.74,3.29c-2.11-.42-4.39-.89-4.28-3.89,0-.82-.14-1.64-.07-2.45,1-10.86-2-20.22-7.45-30-7.09-12.58-4.31-27-1.73-40.71.68-3.65,3.31-6.88,2.18-11a2.49,2.49,0,0,1,1.74-3.23c11.62-3.12,21.74-11.36,35-9.24,9.34,1.49,16.72,7.85,25.94,9.38.83.14,2.16,1.43,2.11,2.11-1,13.48,5.46,26.35,3,40-1,5.69-1.22,11.92-5.11,16-7.14,7.52-7.36,16.27-7.22,25.58,0,2.91,2,8.13-3.92,7.81-5.39-.28-3.79-5.07-3.83-8.31-.14-11.33-.23-11.27-10.14-8.84-4.13,1-4.13,3.42-4.16,6.5-.07,7.07-.23,14.14-.41,21.21,0,.43-.61.84-.93,1.26Zm1-81.49c1.35,1.62,1.89,2,1.89,2.32.14,6.49.45,13,.25,19.49s2.43,6.81,7.18,3.79c6.56-4.17,9.37-11.82,7.18-20-1.74-6.49-8.83-11.44-16.17-11.19s-12.5,3.83-14.64,10.72c-2.82,9.11.42,16.73,7.81,21,4.1,2.35,5.76,1.82,5.68-3.22C958,302.72,957.33,295.48,958.93,287ZM986,277.1l-2.29.24c0,6.41.06,12.82,0,19.24-.14,12.26-5.15,20.34-16.74,23.94-5.92,1.84-5.88,5.29-5.72,9.71.09,2.4,1.5,3.71,3.7,2.93,4.28-1.51,10.53-.81,10.81-7.61.21-5.38.52-9.68,7.73-6.63,1.5.63,2.72-.54,3-1.92C989.39,303.57,990.53,290.19,986,277.1Zm-50.92,2.71-3.09.11c-1.3,11.68-1.85,23.36.76,35.06.42,1.88,1.34,4.23,3.54,3.8,7.45-1.47,7.55,3.31,8.33,8.48.86,5.75,6.57,4.62,10.38,5.92,2.75.94,3.15-1.42,3.09-3.37-.12-3.81,1.21-7.66-5-9.19-11.24-2.77-17.57-12.08-18-24.18C934.91,290.9,935.07,285.35,935.07,279.81Zm26.07-9.49c1.72,6.21,6.64,4.65,9.57,6.59,1.55,1,4.16,2.66,5-.87.66-2.85,0-5.52-3.7-5.69C968.59,270.2,965.17,270.32,961.14,270.32Zm-9.27-.08c-3.45.25-7.81-1.38-7.64,4.51,0,1.54.21,4.41,1.89,3.28,3.73-2.51,10.23-1,11.43-5.92C958.28,269.08,953.73,271,951.87,270.24Z"/><path class="cls-2" d="M441.09,548.14c1.51,4,3.28,7.91,4.43,12,.76,2.74,3.62,6.55-1.16,8.19-4.16,1.43-4.56-2.83-5.63-5.25-2.89-6.61-5.46-13.36-8.16-20.05-.35-1.29-.65-2.6-1.07-3.87-.78-2.33-1.93-5,1.43-6,2.68-.8,3.44,1.59,4.38,3.62C437.09,540.66,439.15,544.37,441.09,548.14Z"/><path class="cls-2" d="M1386.27,413.28c0,4.89,0,9.77,0,14.66,0,1.53.1,3.6-2.16,3.66s-3.41-1.4-3.4-3.66q.1-15.46.26-30.94c0-2,.45-4,3.11-3.74,2.15.23,2.2,2.14,2.22,3.73C1386.32,402.42,1386.28,407.85,1386.27,413.28Z"/><path class="cls-2" d="M1485.67,551.38c-2.1,4.86-4.13,9.76-6.35,14.57-.81,1.75-2.39,3.24-4.42,2.4s-1.85-2.93-1.21-4.86c1.42-4.29,2.79-8.61,4.18-12.92,3.81-5.84,4.93-13.14,10.71-19.52C1491.78,539.18,1485.8,545,1485.67,551.38Z"/><path class="cls-2" d="M1448.4,630.36l3.59-.12c0,11.75-5.94,21.75-9.67,32.4-.77,2.19-2.65,3.83-5.09,2.71-2.89-1.33-1.19-4-.54-5.68C1440.45,649.85,1444.47,640.12,1448.4,630.36Z"/><path class="cls-2" d="M537.81,464c0,4.88,0,9.77,0,14.66,0,2.09.46,4.93-2.41,5.27-3,.36-3.26-2.68-3.28-4.64-.09-10.3.06-20.61.24-30.91,0-1.9.57-4.13,3.18-3.7,1.83.3,2.26,2.07,2.25,3.84,0,5.16,0,10.32,0,15.48Z"/><path class="cls-2" d="M537.79,516.56c0,5.15,0,10.29,0,15.44,0,1.9-.09,4.09-2.72,4.08-2.12,0-2.33-1.92-2.56-3.52-1.52-10.8-.86-21.62-.19-32.43.11-1.76.55-4.19,3.2-3.7,1.76.32,2.24,2.13,2.24,3.88q0,8.13,0,16.25Z"/><path class="cls-2" d="M872.55,267.08c11.33-1.81,22.73-1.3,34.12-1,2.2.06,5.54-.7,5.26,3.15-.21,2.92-2.92,2.72-5.06,2.74-10,.11-20.12-.29-30.11.46-5.63.42-2.16-4.12-4-5.47Z"/><path class="cls-2" d="M537.8,412.43c0,4.9.12,9.8-.06,14.68-.07,1.9.86,4.77-2.62,4.86-2.74.08-2.79-2.33-3-4.07a170.84,170.84,0,0,1,.16-31.74c.14-1.67.64-3.37,2.77-3.33,2.71.06,2.68,2.21,2.69,4.11C537.82,402.1,537.8,407.27,537.8,412.43Z"/><path class="cls-2" d="M537.53,549.82c.09,11.16.27,22.32.17,33.47,0,2,1.39,5.58-2.65,5.51-3.51-.07-3.17-3.51-3.2-5.63-.13-11.13-1.12-22.31,1.09-33.37Z"/><path class="cls-2" d="M1025.58,271.93H1011c-2.32,0-4.58-.53-4.75-3.26-.19-3.18,2.44-3,4.56-3,9.7.22,19.41.45,29.1.87,1.64.07,4.31-.27,4.21,2.56-.09,3-2.58,2.88-4.77,2.88h-13.77Z"/><path class="cls-2" d="M1385.57,550c2.12,11.31,1,22.69.68,34.06-.06,1.69.59,4.28-2.14,4.5-3,.25-3.42-2.11-3.38-4.42.18-11.37-.64-22.76.9-34.1Z"/><path class="cls-2" d="M1380.3,626.37c.19-6.74.36-13.49.59-20.24.06-1.89,0-4.08,2.73-4.07s2.58,2.31,2.67,4.13c.37,7.28.65,14.56,1,21.85-.31,3-.63,5.91-.92,8.87-.17,1.67-.24,3.39-2.64,3.16a2.9,2.9,0,0,1-3-3.12C1380.61,633.42,1380.45,629.9,1380.3,626.37Z"/><path class="cls-2" d="M1386.28,464.65c0,5.14,0,10.28,0,15.42,0,1.63-.13,3.42-2.52,3.18-1.83-.2-3-1.2-3-3.15,0-10.55.06-21.11.16-31.66,0-1.69.53-3.27,2.69-3.29s2.66,1.6,2.69,3.27C1386.34,453.83,1386.29,459.24,1386.28,464.65Z"/><path class="cls-2" d="M1380.87,515.42c0-4.86,0-9.72,0-14.58,0-1.94.18-4,2.86-3.88,2.1.09,2.49,1.8,2.5,3.47,0,10.27.09,20.53,0,30.79,0,1.8.08,4.1-2.83,3.82-2.54-.24-2.76-2.4-2.81-4.22-.15-5.13-.05-10.26-.05-15.4Z"/><path class="cls-2" d="M1328.64,793.79c-16.89-.06-29.13-9.41-32.29-22.9-3.51-14.94,2.79-28.72,16.28-35.61,12.5-6.39,28.62-3,37.89,7.58,3.5,4,4,8.24,2.14,12.87-4.05,10.35-8.41,20.59-12.33,31C1337.73,793.62,1332.22,793.89,1328.64,793.79Zm-26.71-31.36c-.27,12.6,9.62,23.1,23.16,25.13,4.85.72,7.87-.74,9.66-5.2,3.64-9.08,7.16-18.2,11.08-27.16,1.73-4,.68-6.62-2.15-9.4-7.13-7-17.82-9.7-26.24-5.61C1308.32,744.61,1302.63,751.9,1301.93,762.43Z"/><path class="cls-2" d="M1415.6,732.79a107.53,107.53,0,0,1-11.71,28.46c-.79,1.35-2.16,2.75-4,1.76s-1.42-2.87-1-4.38c2.62-10.25,7.49-19.63,11.63-29.28.59-1.39,1.56-3.28,3.54-2.32S1415.24,730.34,1415.6,732.79Z"/><path class="cls-2" d="M1369.2,804.26a2.5,2.5,0,0,1-2.72-1.64,3.21,3.21,0,0,1,.86-3.71c7.71-6.46,14.23-14,20.49-21.83,1.14-1.42,3.09-2.35,5.05-.84s2.15,3.59.82,5c-7.16,7.72-13.84,16-22.49,22.15A9.39,9.39,0,0,1,1369.2,804.26Z"/><path class="cls-2" d="M1245.64,819.05c-7.91-2.7-17.19-3.95-26.39-5.59-2-.37-3.58-1.31-3.31-3.78s1.93-3.07,4.07-2.65c9.3,1.85,18.58,3.76,27.88,5.59,2.71.53,4.95,2,4.37,4.76C1251.64,820.41,1248.76,818.88,1245.64,819.05Z"/><path class="cls-2" d="M1338.64,821.38c-6.31,1.35-12.32,4.08-18.9,4.23-1.63-2.93-1.37-5.24,2.26-6.17a163.09,163.09,0,0,0,26.6-9.54c2-.93,5-2.32,6.29.87,1.14,2.84-1.15,4.36-3.57,5.36C1347.09,817.87,1342.86,819.63,1338.64,821.38Z"/><path class="cls-2" d="M1304.26,822.66c.34,7.38-5.29,5-8.59,4.6-9.11-1.14-18.12-3.06-27.16-4.67-.54-1.76-4.27-1.14-3.2-3.77.8-2,3.29-1.71,5-1.58A211,211,0,0,1,1304.26,822.66Z"/><path class="cls-2" d="M1167,804.46c-1.93-1.76-4.89-3.24-1.69-6.36,10.72-.33,21,2.61,31.3,4.72,2.11.43,5,.71,4.55,3.5-.58,3.57-3.75,2.06-5.93,1.8C1185.85,807,1176.45,805.69,1167,804.46Z"/><path class="cls-2" d="M1386.17,726.33c0,5.15.06,10.3,0,15.44,0,1.52.17,3.56-2.15,3.62a2.75,2.75,0,0,1-2.91-2.36,171.33,171.33,0,0,1,.23-34,2.39,2.39,0,0,1,3-2c1.8.28,1.82,1.86,1.84,3.12C1386.22,715.5,1386.17,720.92,1386.17,726.33Z"/><path class="cls-2" d="M1386.34,765.16c-.42,2.53.85,6.31-3,6.48-3.47.14-2.6-3.59-2.77-5.7-.23-2.92.09-6.92,3.76-6.82C1387.46,759.2,1385.51,763.14,1386.34,765.16Z"/><path class="cls-2" d="M464.14,617c-4.85.91-5.41-3.46-7.44-6-2.75-7-5.58-14-8.21-21-1.15-3.07-2.22-7.16,1.57-8.47,3.21-1.11,3.73,3.07,4.73,5.4,3,6.92,6,13.84,8.65,20.89C464.53,610.63,466.39,613.73,464.14,617Z"/><path class="cls-2" d="M470.51,629.88c5.32,9.85,8.32,20.59,12.09,31,.55,1.55,1.24,3.26-.67,4.28s-3.33-.07-4.05-1.6c-4.61-9.8-9.29-19.59-11.81-30.19-.25-1.07.86-2.46,1.34-3.71Z"/><path class="cls-2" d="M538.12,608.61c-.08,9.11-.11,18.23-.28,27.34,0,2,.34,4.82-2.71,4.92s-3-2.86-3.22-4.76c-.54-4.24-.58-8.54-.82-12.82.25-4.78.37-9.58.8-14.35.25-2.7-.9-7,3.09-7.16C539.68,601.56,536.77,606.4,538.12,608.61Z"/><path class="cls-2" d="M1469.89,581.24c.62,12.69-5,23.46-10,34.38a3.14,3.14,0,0,1-3.51,1.53c-1.86-.31-2-1.9-1.58-3.14C1458.33,602.48,1462.16,591.06,1469.89,581.24Z"/><path class="cls-2" d="M745.47,276.83a21.47,21.47,0,0,1,3.25,0c2.79.65,7.59-2,7.78,3s-4.7,3-7.46,3.36c-8.32,1.07-16.7,1.72-25,2.73-2.49.31-5.12,1.34-5.71-2.23-.54-3.24,1.87-4.11,4.51-4.41C730.9,278.44,739,277.55,745.47,276.83Z"/><path class="cls-2" d="M778.22,280c-1.63,0-3.25,0-4.87,0-1.79,0-3.22-.65-3.35-2.69-.13-2.21.86-3.74,3.2-3.78a233.66,233.66,0,0,0,31.45-3.05c2.35-.37,3.69.78,3.8,3.05.12,2.44-1.64,3-3.7,3.3-8.83,1.15-17.65,2.36-26.47,3.55Z"/><path class="cls-2" d="M496.06,327.24c1.94.16,3.55-.35,3.91,1.53s-.07,3.43-1.91,4q-15.48,4.83-31,9.42c-1.14.34-2.93.48-3.33-1.31a3.5,3.5,0,0,1,2-4.09C475.68,332.49,486.16,329.75,496.06,327.24Z"/><path class="cls-2" d="M518.81,328c-2.74-.12-4.88-.07-5.29-2.51-.34-2,1.24-2.79,2.9-3.29q14.76-4.47,29.52-8.94c1.74-.52,3.26-.35,3.93,1.64.75,2.22-.19,3.76-2.3,4.41C537.75,322.36,527.91,325.3,518.81,328Z"/><path class="cls-2" d="M620.39,303.15c-2.23-.66-5.15,1.09-5.72-2.12-.47-2.68,1.68-3.86,3.93-4.29,9.32-1.77,18.66-3.41,28-5.12,2.3-.43,4.73-.44,5.36,2.19.66,2.8-1.84,3.71-4,4.13C638.7,299.79,629.38,301.47,620.39,303.15Z"/><path class="cls-2" d="M596.44,301.84c2.5.54,5-.1,5.12,2.64.13,2.39-2,3.1-3.83,3.5q-14.22,3.19-28.5,6.15c-1.59.33-3.37.3-3.84-1.86s0-3.79,2.41-4.31Z"/><path class="cls-2" d="M673.41,293.43c-2.41-.75-6.2,2.05-6.59-2.43-.34-3.94,3.43-3.54,5.88-3.92q12.82-2,25.71-3.64c2-.26,4.53-.73,5.11,2.41s-1.43,3.64-3.77,4C690.91,291,682.08,292.24,673.41,293.43Z"/><path class="cls-2" d="M1173.42,276.86c6.47.69,14.3,1.46,22.11,2.4,3.08.37,6.66,1.46,5.8,5.23s-4.5,1.52-6.91,1.31c-8.36-.74-16.6-2.77-25.08-2.46-2.92.11-7,.59-6.84-3.57.14-4.55,4.49-2.42,7.11-2.89A30.38,30.38,0,0,1,1173.42,276.86Z"/><path class="cls-2" d="M1399.5,327.85c-8.72-2.65-18.5-5.59-28.26-8.61-1.65-.51-3-1.81-2.33-3.57.39-1,2-2.39,3-2.28,11.33,1.34,22,5.14,32.33,9.73a2.38,2.38,0,0,1,1,3.5C1404.15,328.16,1402.26,327.63,1399.5,327.85Z"/><path class="cls-2" d="M1137.93,280.09c-7-1-15.37-2.14-23.68-3.28-1.86-.26-3-1.15-2.92-3.14.1-2.53,1.74-3.14,3.89-2.95,10.26.94,20.51,1.94,30.77,2.8,2.26.19,3.65.94,3.53,3.37s-1.52,3.27-3.79,3.21S1141.39,280.09,1137.93,280.09Z"/><path class="cls-2" d="M1297.92,303.23c-8.54-1.73-17.8-3.52-27-5.52-2.08-.45-4.57-1.48-4-4.2.61-3.11,3.53-2,5.37-1.71,9.07,1.41,18.1,3.1,27.14,4.69,2.71.48,6.07.93,5.48,4.48C1304.33,304.31,1300.86,302.51,1297.92,303.23Z"/><path class="cls-2" d="M1324.87,302.41c7.64,1.59,16.68,3.47,25.72,5.38,2.13.45,4.78.91,4.48,3.7-.37,3.36-3.32,3.24-5.73,2.73-9-1.91-18-4.05-27-6-2.46-.54-5.49-.9-4.63-4.21C1318.42,301.33,1321.32,302.44,1324.87,302.41Z"/><path class="cls-2" d="M1425.3,327.37c8.77,2.73,17.83,5.54,26.87,8.39,2.27.72,4.12,2.34,3.41,4.71-.85,2.85-3.73,1.95-5.61,1.42-8.61-2.42-17.12-5.16-25.69-7.71-2.66-.79-4.54-2.26-4-5.18S1423.25,327.54,1425.3,327.37Z"/><path class="cls-2" d="M1244.59,293.48c-7.86-1.18-15.89-2.39-23.92-3.58-2.51-.38-5.36-.89-5.23-4,.16-3.85,3.57-2.62,5.66-2.38,8.08,1,16.16,2,24.16,3.48,3,.54,8.13.66,7.7,4.35C1252.45,295.84,1247.66,292.83,1244.59,293.48Z"/><path class="cls-2" d="M704.09,809.75c-.28,2.82-2.2,3.39-4,3.76q-14.68,3-29.4,5.74c-1.57.29-3.4.3-3.74-2-.3-2,.11-3.91,2.48-4.38,10.33-2.06,20.68-4,31-6C703.06,806.35,703.49,808.33,704.09,809.75Z"/><path class="cls-2" d="M777.1,800.09c-2.16,0-3.53.11-4.87,0-1.52-.15-3.45.12-3.81-2.06-.41-2.54,1.33-3.19,3.38-3.54a168.2,168.2,0,0,1,31.5-3c1.71,0,4.07-.69,4.21,2.34.11,2.65-2.07,3.14-3.79,3.35C794.59,798.31,785.44,799.2,777.1,800.09Z"/><path class="cls-2" d="M724.4,808.34c-3.09,0-5.06.77-5.52-1.53s1.12-3.36,3.22-3.74c9.29-1.69,18.56-3.5,27.88-5,1.76-.28,4.71-1.34,5.12,2.06.35,2.92-2.23,3.67-4.2,4C741.59,805.78,732.23,807.13,724.4,808.34Z"/><path class="cls-2" d="M512.61,808.48a8.89,8.89,0,0,1-6.3-3.33,169.65,169.65,0,0,1-18.12-25c-2.2-3.8-1.48-6.78,2.1-9s6.49-1.44,9,2.06c6.09,8.33,12.39,16.49,18.6,24.72,1.72,2.28,2.91,4.74,1,7.42A7.26,7.26,0,0,1,512.61,808.48Z"/><path class="cls-2" d="M520.83,757.49c0,2.25-.21,4.46-2.14,5.11-1.72.58-2.86-1.23-3.64-2.66-4.8-8.79-8.16-18.2-11.38-27.64-.58-1.7-.45-3.89,1.93-4.71,1.77-.6,3.32-.15,4.06,1.57C513.73,738.57,518.41,747.75,520.83,757.49Z"/><path class="cls-2" d="M487.33,816.92c-.12,3,.52,4.9-1.59,5.55-1.79.55-3.16-.31-4-1.91-5-9.6-7.83-20-10.81-30.32a2.62,2.62,0,0,1,1.68-3.28,2.85,2.85,0,0,1,3.89,1.86C480.32,798.59,484.05,808.4,487.33,816.92Z"/><path class="cls-2" d="M1124.62,791.57c5.93.67,13.72,1.47,21.47,2.49,2.06.27,4.66.8,4.08,3.86-.46,2.4-2.8,2.43-4.58,2.3q-14.94-1.05-29.85-2.43c-2.29-.21-4.36-1.32-4-4.07s2.76-2,4.52-2.12C1118.41,791.48,1120.58,791.57,1124.62,791.57Z"/><path class="cls-2" d="M624.43,758.93c-.68,22.73-14.49,36.33-34.78,34.86-5.77-.41-8.92-2.92-10.94-7.93-3.86-9.55-7.86-19-11.81-28.55-3.53-8.32.57-13.83,6.81-18.58,18.21-13.85,43.08-5.57,49.32,16.41C623.39,756.43,624,757.67,624.43,758.93Zm-6.81,3.88c0-10.22-7.15-19.74-17.43-23.25-8.55-2.91-20,.53-25.93,7.53-1.87,2.2-2,4.12-.94,6.68q6,14.72,11.62,29.56c1.27,3.37,3.57,4.43,6.9,4.48A25.16,25.16,0,0,0,617.62,762.81Z"/><path class="cls-2" d="M587,823.39,567.19,816c-1-2.05-3.71-3.9-1.63-6.43s4.6-.62,6.67.34a147.81,147.81,0,0,0,23.53,8.91c2.24.62,5.37.8,4.29,4.43-1,3.25-3.44,2.71-6,1.92C591.75,824.41,589.34,824,587,823.39Z"/><path class="cls-2" d="M960.06,748.6c-2.51-5.51-2.59-8.35-.42-14.35C962.1,739.81,962.13,740.89,960.06,748.6Z"/><rect class="cls-1" width="1" height="1"/><rect class="cls-1" x="1919" y="1079" width="1" height="1"/><rect class="cls-1" y="1079" width="1" height="1"/><rect class="cls-1" x="1919" width="1" height="1"/></g><g id="Capa_3" data-name="Capa 3"><path d="M825.27,450.7v111H805.44V491L785.93,505.9l-16.18,12.53L753.57,505.9,734.06,491v70.74H714.24v-111l19.82,15.22,35.69,27.44,35.69-27.44Z"/><path d="M949.61,470.68a34.31,34.31,0,0,1,2.54,12.85v45.52a32.66,32.66,0,0,1-10.47,24.11,34.33,34.33,0,0,1-7.29,5.24A31.41,31.41,0,0,1,919.48,562h-69V542.22h69a13.07,13.07,0,0,0,13-13V513.67a32.63,32.63,0,0,1-12.37,2.54H873.32a32.76,32.76,0,0,1,.48-65.51h45.52a32.59,32.59,0,0,1,30.14,20ZM861,483.53a13.06,13.06,0,0,0,12.37,13h46.79a13,13,0,0,0-.63-26H874A13.07,13.07,0,0,0,861,483.53Z"/><path d="M1076.18,516.68a31.54,31.54,0,0,1,2.7,12.85,32.63,32.63,0,0,1-32.68,32.67H968V542.38h78.19a12.93,12.93,0,0,0,12.85-13,12.77,12.77,0,0,0-11.42-12.85H968V451.17h101.67V471H987.83v25.7h59.64a32.15,32.15,0,0,1,28.87,19.82Z"/><path d="M1205.76,450.7v111h-19.82V516.05h-58.53a31.42,31.42,0,0,1-14.91-3.65,32.4,32.4,0,0,1-17.77-29V450.7h19.83v32.67a13.07,13.07,0,0,0,13,13h58.53V450.7Z"/></g></g></svg>