<svg xmlns="http://www.w3.org/2000/svg" viewBox="0 0 1920 1080"><defs><style>.cls-1{fill:#f2f2f2;}.cls-2{fill:#020202;}.cls-3{fill:#ccc;}</style></defs><g id="Capa_2" data-name="Capa 2"><g id="Capa_1-2" data-name="Capa 1"><path class="cls-1" d="M1628.64,569.34c.1-44.2.43-88.4.23-132.58-.06-12.54-6.58-22.58-17.2-28.72-33.12-19.08-68.42-33.53-103.92-47.52-4.7-1.85-5.9-.49-5.19,4.2.25,1.67-.46,3.5-.79,5.24-.41,2.2-2,2.82-4,2.6-2.15-.23-1.77-2-1.81-3.42a37.59,37.59,0,0,1,0-6.28c.73-5.47-1.84-7.63-6.92-9.44-72.5-25.87-146.79-45.17-221.86-61.89a1300.87,1300.87,0,0,0-199.83-28.83c-17.58-1.13-35.17-2.31-52.74-3.34-7.93-.46-15.22-2.64-18.69-10.21-2.28-5-2.21-36.87-2.21-36.87.47-5.2-2.08-6-6.45-5.47l-56,0c-3.81-.09-5.44,1.45-5.25,5.22,0,0,.79,31.3-1.39,36.7C921,258,912.27,259,903.71,259.4c-50.12,2.24-100.14,6.15-149.78,13.1-51,7.14-101.23,18.78-151.35,30.69-57.05,13.56-113.38,29.59-168.67,49.29-6.45,2.3-9.4,5.08-8.56,11.75a8.92,8.92,0,0,1-.34,3.56c-.57,1.81-.11,4.66-3.12,4.59-2.73-.07-3.46-2.4-3.2-4.49,1.46-11.38-4.17-8.12-10.52-5.65-31.91,12.47-63.29,26.1-93.59,42.14-15.23,8.05-23.79,19.79-23.58,37.77.43,42.4.28,84.81.37,127.19,0,19-.88,38.09.2,57,.86,15.36,9,27.32,22.82,34.87,6.95,5.37,15.06,6.69,23.57,6.69,25.4,0,50.78,0,76.18.16,44.79.31,78.47,30.85,83,75.2A71,71,0,0,1,493.27,775c-6.77,18.62-3,37.85-4.14,56.77V864c-.05,3.16,2,3.81,4.77,3.76,8.34-.1,16.72-.21,25.08.08,4.72.14,5.42-2,5-6-.77-7.1-.29-14.26-.94-21.42-1.7-18,4.75-28.07,21.74-35.8,46.74-21.28,95.18-37.72,144.88-50.45,77.77-19.89,156.72-30.35,237-32.74,21.54-.63,70.1.08,70.1.08a915.87,915.87,0,0,1,95.19,7c3.81.49,7.69.39,11.55.58,23.28,4.07,46.58,8.08,69.85,12.2,9,1.59,18,3.4,27,5.13,37.8,9.61,75.51,19.49,112.23,32.77,21.6,7.81,42.79,16.49,63.75,25.83,11.34,5.08,19.86,12.18,19.76,25.91l.35,17.14c-1.58,19.38-1.6,19.38,17.92,19.43,16.61.06,16.29,0,16.84-16.31l.17-22.89c-1-20.4.6-40.82-6.35-60.93-5.6-16.18-2.13-33,3.57-49,11.48-24.14,29.3-40.85,55.62-47.6A97.26,97.26,0,0,1,1508,668c25.34-.08,50.65-.25,76-.37,22,.29,43.68-19.07,44.65-41.27C1629.44,607.39,1628.69,588.36,1628.64,569.34Z"/><path class="cls-2" d="M1739.8,601a10,10,0,0,0-3.2-4.18c-10.83-6.65-10.09-17-9-27.48-1.68-12.24-1.46-23.72,10.26-31.79,5.22-3.61,3.76-9.69,3.76-14.9V415s.16-7.27-4.22-6.83l-2.29.1c-3.72-10.48-1-21.72-2.51-32.47-2.73-2.72-5.76-5.24-8.14-8.24-7-8.85-15.51-12.51-27.13-12-20,.91-40,.17-60,.28a74.64,74.64,0,0,1-35.24-8.55c-102-52.75-211.46-83.12-323.29-105.95-55.55-11.34-111.92-17.18-168.13-23.85-7.4-.72-14.79-1.41-24.71-2.37,0,0-71.33-4-77.44-4-4.73,0-8.35.27-7.77-6.1.41-4.47-2.49-5.33-6.33-5.24L929,199.7c-5.34-.16-10.33-.29-9.89,7.45.19,3.21-2.27,3.29-4.94,3.39a1764.92,1764.92,0,0,0-212,20.48C568.45,251.9,438.41,285.59,317.08,347.64A72.51,72.51,0,0,1,282.66,356c-20.32-.23-40.66.48-60.93-.38-10.95-.47-19,3-25.6,11.23-3,3.7-6.28,7.16-9.42,10.73-.25,10.21,1,20.57-3.09,30.39,0,0-5.16.93-5.16,3.67,0,37.92-.21,75.86-.36,113.79,0,4.81-.47,10,4.29,12.91,9.43,5.9,11.12,14.67,10.1,24.78-.43,4.44-.33,8.93-.48,13.41.62,5.94,1.65,12.06-4.32,16.17-7.74,5.35-9.75,12.86-9.09,21.77.41,5.61.08,11.29.06,16.94,0,14.6,15.84,30.59,30.61,30.8,14.25.2,28.51.32,42.76.51,6.11.21,12.78-3.11,17,5.28,22.69,45.53,45.42,91.06,68.81,136.24,12.93,24.94,21.89,52.33,43,72.44,19.92,15.86,42.94,21,67.86,19.55,11.22-.66,16.66-5.86,17.67-17.09a54.9,54.9,0,0,0-.12-7.14c-.19-4.41-.31-8.58,6-8.51,5,.07,10.78-1.59,10.33,6.7-.17,3,1.31,4.16,4.33,4.07,14.58-.41,29.18,1.21,43.77-.36l1-8.7c1.11-2.93,3.31-1.5,5.18-1.27,8.6-.32,17.12-.22,25.24-4.22a662.38,662.38,0,0,1,92.76-36.72c35.42-11.15,71.1-21.41,107.84-27.45a752,752,0,0,1,121.94-16.44c23.38-3.07,46.9-3,70.39-3.31l17.93.42A782.51,782.51,0,0,1,1053,780c16.21,1.51,32.55,2.53,48.5,6.3,26.21,1.87,51.77,7.62,77.3,13.33,61.38,13.73,121.23,32.3,178.16,59.48,3.76,1.78,7.77,2.94,11.67,4.4,3.57.12,7.15.59,10.69.28,5.4-.46,10.21-1,9.9,6.89-.12,3.68,3.1,3.68,5.88,3.68,12.22,0,24.44,0,36.65.1,4,0,7.18-.55,6.56-5.78-.44-3.86,1.49-5,5.32-5.12,6.62-.18,10.1,1,9.83,9.19-.6,18.68,5,23.73,23.87,23.19,0,0,27.56-.45,36.65-4.75,23.47-11.17,38.74-26,48-47.29.78-1.76,1.71-3.57,3.78-2.8,7.19,2.65,8.69-2.89,10.9-7.3,9.5-19.14,19.25-38.2,28.27-57.57,3.73-8,12.53-15.44,4.93-25.77a2.14,2.14,0,0,1,.25-1.7c5.76-9.47,8.41-20.74,16.49-28.91.26-1.74.12-3.69.88-5.22,8.1-16.18,16.45-32.24,24.48-48.45,2.08-4.16,5.49-3.93,9-3.95,15.17,0,30.38-.28,45.55.15,8.39.23,15.91-1,22-7.2,1.12-1.36,2.15-2.78,3.34-4C1740,642.35,1745,611.66,1739.8,601ZM1530.56,334c2.52-5.53,6.23-1.84,8.94-.61q27.91,12.83,55.62,26.19c10,4.85,20,9.78,31.27,9.38,10.74-.39,13,4.67,11.39,13.75a10,10,0,0,1-.5,1.52c-1.61.86-2.88,0-4.23-.59-32.06-14.87-64.64-28.54-97.48-41.55C1531.5,340.47,1528.23,339.08,1530.56,334Zm2.69,14.58c28.43,12,56.78,24.28,85.33,36,6.37,2.61,7.76,6.15,5.63,12.56-9.28-4.63-17.48-10.64-26.75-13.81-2.35,2.32.72,5.64-2.46,7.53l-20-9.69c7.91-2.71,7.93-5.15,2-7.81-8.13-3.62-16.13-7.6-24.37-11-3.53-1.44-9-7.19-9.76,2.81-.16,2.13-2.16,1.32-3.52.76-3.57-1.46-7.29-2.66-10.62-4.57-5.35-3.08-.8-8.78-2.64-13.31C1525.18,346,1530.74,347.5,1533.25,348.55Zm-28.39-22.72c.66-2.19,1.23-4.63,4-5,4.84,1.83,9.56,3.48,14.16,5.4,2.23.93,4.51,2.37,2.51,5.29-1.5,2.23-2.24,5.92-6.46,4.18-3.8-1.57-7.62-3.15-11.53-4.41C1504.5,330.33,1504.1,328.36,1504.86,325.83Zm15.21,22c-7.58-2.18-14.25-2.76-19-10.33C1513.07,339.25,1515.75,340.62,1520.07,347.8ZM1010,225.32c.86-1.72,2.35-1.13,3.83-1,8,.69,16.06,1.23,24.09,1.84,25.64,1.25,51.17,3.7,76.7,6.24,46.58,4.69,93.08,10.19,139.17,18.48a1474.38,1474.38,0,0,1,239.67,63.81c3.41,1.24,6.94,1.41,4.89,7-1.77,4.87-4,4.76-8,3.31-70.09-25.42-141.84-44.73-214.81-59.77a1507.24,1507.24,0,0,0-158.11-24.11c-32.08-3.14-64.21-5.58-96.33-8.24-3.71-.3-7.07-1-9.76-3.73C1010.21,228.15,1009.16,227,1010,225.32ZM1001.75,240a15.52,15.52,0,0,1,13.59,1.82c4.21,2.73,8.65,9,12.58-.54.29-.7,3.28-.49,5-.39,31,1.77,61.85,4.53,92.71,7.74,31.87,3.31,63.66,7.41,95.16,13,53.77,9.54,107.17,21.08,159.81,35.93,36.08,10.17,71.81,21.27,107.17,33.68,2.32.82,6.4,1.32,4.16,5-1.91,3.13-1.67,9.53-7.45,8.31-5.54-1.18-10.74-4-16.23-6.17,1.76-2.91,5.73-.49,6-3.73s-2.77-3.68-4.86-4.41c-8.39-3-16.88-5.78-25.38-8.51-3.51-1.12-8-3.67-7.39,3.7.17,2.08-1.54,3-2.78,2.06-5-3.64-15.85,1.06-15.1-10.79.17-2.86-2.8-3.4-5.17-4-9.2-2.5-18.37-5.11-27.57-7.6-1.73-.46-4.2-2.36-4.63,1.37-.27,2.39,1.17,6.49-3.52,4.59s-14.4-1.36-13.83-5c1.53-9.51-5-7.74-9.3-9.11-7.07-2.3-14.41-3.81-21.46-6.21-6.66-2.28-9.52-1-6.92,7.22-7.75-1.88-14.55-3.81-21.48-5.16-17.24-3.35-34.3-7.54-51.55-10.83-15-2.9-29.8-7.27-45-9.69-5.34-.86-14.08,1.49-12.19-9.49.26-1.56-2.27-1.46-3.67-1.65-9.13-1.29-18.26-2.87-27.44-3.68-3.41-.3-9.88-3.66-8.61,5.15.3,2.06-2,1.79-3.34,1.63q-5.76-.72-11.47-1.73c-2.11-.34-4.73-.94-2.4-3.79,3.62-4.48.45-4.87-2.85-5.26-9.47-1.13-18.94-2.44-28.45-3.12-3.5-.23-10.24-3.1-7.7,5.7.49,1.72-1.12,1.87-2.2,1.85-4.77-.11-9.54-.32-14.31-.59-1.46-.07-3.36-.38-2.09-2.51,5.15-8.65-3.16-7.19-6.47-7.72-7.93-1.24-16-1.39-24.08-1.84-2.81-.17-6.27-1.83-8.23,1.36-2.39,3.91,4.31,3.14,3.82,7.34-11.52-.68-23-1.32-34.43-2.05-5.22-.34-9.09-2.78-10.9-7.83C1000.84,242.72,1000.37,240.47,1001.75,240Zm-83.36.87c1.84,4.05-1.38,7.91-5.5,9.89a15.2,15.2,0,0,1-5.2,1.2q-45.53,3.24-91.06,6.38c-.48,0-1-.56-1.44-.88-.14-2.69,4.61-3.37,2.54-7.16-9.7-.71-19.26,1.92-28.93,3.34-4.22.62-11.44-1.94-9.38,7.33.43,2-2.06,1.66-3.32,1.85-4.11.67-8.27,1.15-12.42,1.56-1.63.19-4.58,1-4.46-1.23.6-11.05-7-5.34-11-5.17-6.79.31-13.52,2.06-20.33,2.85-9.21,1.08-9.4,1.26-5.27,10-7.05,1.22-14.05,2.2-21,3.67-34.65,7.43-69.51,13.76-103.85,22.56-1.76.45-5.38,2-5.31-.53.29-10.89-7-4.4-10.15-4.13a68.12,68.12,0,0,0-18.12,4.52c-4.36,1.65-13.88-.77-9.73,9.79.11.29-1.57,1.68-2.57,2-4,1.21-8.06,2.18-12.08,3.29-1.53.42-3.69.57-3.67-1.06.17-9.86-5.82-4.63-9.48-3.8-6.94,1.57-13.81,3.64-20.65,5.69-4.57,1.34-11.26,1.18-7.67,9.34.94,2.15-1,2.53-2.21,2.89-3.69,1.12-7.5,1.89-11.19,3-2,.62-3.64,1-3.57-1.79.12-5.06-2.69-4.13-5.87-3.21-9.13,2.7-18.31,5.24-27.47,7.88-2.3.66-5.9,2-4.6,4.3,5,9-3.79,6.77-6.84,8.77-5.51,3.63-6.85-.61-8.59-4.8-1.83-4.44-.73-6.19,3.77-7.65,22.33-7.21,44.4-15.26,66.86-22.1A1637.65,1637.65,0,0,1,710.5,260.35C746,254.54,781.63,250,817.4,246.52c22-2.12,44-3.66,66-5.42,2.51-.19,5.73-1.61,6.88,2,1.89,5.94,5.73,4,9.18,2.37,3.24-1.51,6-4.16,9.3-5.29C911.86,239.13,916.85,237.48,918.39,240.91Zm-492.23,74c23.45-7.77,46.74-16,70.38-23.18A1453,1453,0,0,1,749,238.94c51.87-6.07,103.78-11.45,155.92-14.32,1.68-.16,3.74-1.24,4.62,1.13.75,2-1.1,3.17-2.17,4.51-2.66,3.26-6.53,2.66-10,2.9-51.51,3.37-102.9,7.87-154.07,15.05A1637,1637,0,0,0,512,298.09C484.29,306.19,456.8,315,429.69,325c-4.17,1.53-7.23,2-9-3.3C418.8,316.09,422.91,316,426.16,314.89ZM418,339c-2.61,5.54-8.78,5.16-13.23,7.68-1.25.69-2.83.73-4.9-1,4.54-5.47,11.2-6.65,17.27-8.77C417.24,336.85,418.28,338.49,418,339Zm-23.44-8.72c1.38-8,10.31-4.58,13.85-8.67,4.66-.29,6.64,3.43,6.14,5.55-1.73,7.5-9.73,6-14.88,8.5C396.14,337.38,394.17,332.83,394.6,330.26ZM290,369.31c11.48.63,22.17-3.46,32.45-8.39q28.92-13.89,57.91-27.64c3.22-1.55,6.26-3.88,8.68,1.34,2.33,5-.65,6-4.34,7.46Q336,360.64,288.84,382.8c-5.56,2.62-7.83,1.46-6.64-5C281.05,371.77,282.52,368.92,290,369.31Zm191.8,453.42c.82,12.45.39,12.5-12.47,13.53-2,.16-4.33-.48-4.43,2.8s1.68,4,4.51,3.84a72.19,72.19,0,0,1,8.05.28c2.28.18,5.32-.29,5.06,3.36-.26,3.31-3.16,3-5.48,3.21-3.56.24-7.23,0-10.7.65-8.27,1.55-13.23,6.54-13.83,15.17-.28,3.57-.1,7.15-.21,10.74-.12,3.89-2,5.61-6.11,6-31.55,3-58.73-11.39-73.19-39.84-28.88-56.83-57.4-113.85-86.1-170.78-3.49-6.88-6.78-13.92-11.86-19.87-5.62-3.09-11.68-3.95-18-3.95q-21.84,0-43.7-.24c-3.55,0-7.15.14-10.33-2-11.75-7.64-14.89-33.79-4.63-43.45,6.19-5.78,9-12.1,8.35-20.44-.32-4.11.19-8.3.33-12.44-.12-3.87-.67-7.78-.28-11.6,1.11-10.53-1.21-19.45-10.37-25.8-3.62-2.51-4-6.3-4-10.35.08-31.93,0-63.88.08-95.83,0-2.64-.66-5.64,1.6-7.65,7-6.16,6.23-14.32,6.08-22.37-.33-18.09,7.41-25.95,25.54-26,10.75,0,21.51,0,32.26,0,16.53,0,16.75,0,16.84,16.45,0,6.94,1.85,9.83,8.77,6.21,5.36-2.81,6.27.07,5.62,4.5a20.86,20.86,0,0,1-1.94,5.85c-1,2.16-2.83,4.65-.65,6.45,1.92,1.58,4.38.09,6.26-1.43,7.43-9.47,20.59-10.91,29.24-20.29-8.5-2.2-13.71,2.83-19.55,5.76-1.86.93-4.18,4-5.92.75-1.35-2.44-1.57-5.86,1.67-7.87a21.68,21.68,0,0,1,3.17-1.56c21.26-9.13,42.39-18.62,63.85-27.25,9.63-3.88,18.89-9.3,32.4-11.46-4.78,5.65-10.06,8.84-6.49,14.63a6.38,6.38,0,0,1-2.5,2.17c-3.85,1.56-7.76,3-11.69,4.32-1.23.43-3.45,1.39-3.31-.93.46-7.64-4.05-3.89-6.71-2.89-8.88,3.38-17.67,7-26.37,10.79-2.13.93-6.62,2.56-3.93,5.22,6.64,6.51-.68,6.13-3.28,7.49-14.08,7.4-29.08,13.28-40.51,24.95-4.12,6.06-6.19,13-8.92,19.72q-.25,15.25-.51,30.5,0,11.61.05,23.22v28.76q0,14.28,0,28.6v82.62c-5.38-1.56-4.83-5.13-4.9-8.25-.14-5.65,0-11.32-.23-17-.09-2.05,1.28-5.26-2.53-5.51-3.12-.21-4.09,2.18-4.14,4.7-.17,9.47-1.39,19.08,2.31,28.22,1,2.46,1.67,5.91,4.56,6.17,10,.94,9.11,8,9,14.78,2,13.13,10.83,22.95,16.56,34.27a3.09,3.09,0,0,0,3.86,1.49c2.53-.94,1.17-3,.79-4.51-1.35-5.45-6.24-9.61-6.41-17.56,15.37,13.46,32.63,13.68,50.15,13.39,19.44-.34,38.86.21,58.25-.29,6.61-.19,7.95,1.82,7.59,7.94-.53,9.22-.11,18.52,0,27.77,0,2.21-.77,5.37,2.61,5.76,4,.48,4-3,4-5.52.15-9.27.37-18.54-.2-27.75-.34-5.85,1.4-7.29,7-6.21,36.44,7.07,64.53,46.69,56.71,83C484.12,780.86,480.33,801.34,481.75,822.73Zm469.88-60.82c-19.92.33-39.82,1.05-59.72,1.62l-79.07,8.08c-6.49,1.08-13,2.16-19.5,3.26l-5.58.5a18.82,18.82,0,0,1-8.84,1.65,17.22,17.22,0,0,1-9.12,1.67c-4,1-8.07,2.17-12.16,3C688,796,620.15,816.07,555.77,846.83c-5.54,2.66-11.48,3.11-17.47,3.16-3.08,0-7.62,1.17-7.82-3.52-.19-5.34,4.54-3.35,7.38-3.22a41.34,41.34,0,0,0,18.26-3.61c2.91-1.25,7.06-2.88,5.35-6.85-1.53-3.55-5.05-1.2-7.77-.3-5.06,1.66-10,3.6-15.5,4-6.88.46-8.24-2.32-7.05-8.43,1.58-8,7.28-11.84,13.92-15,33.58-16.28,68.51-29,104.15-39.9,43.61-13.32,87.81-24.18,133.07-30.33,31.41-6.44,63.25-9.26,95.17-11.59,18.68-1.08,37.4-2,56.07-3.39,4.67-.34,4.72,1.7,4.91,5,.19,2.89-1.81,7.64,3.12,7.71,3.76.06,3.57-4.32,3.47-7.12-.21-6.1,3.82-5.25,7.73-5.59,5.45-.48,5.6,2.65,5.53,6.64-.17,6.85-.1,13.68.09,20.52C958.5,759.77,956.76,761.83,951.63,761.91Zm432.86,88.27a54.84,54.84,0,0,1-24.23-5.2c-61.18-29-125.55-48.34-191.63-62.06a1024.49,1024.49,0,0,0-190-21.2c-16.18-.3-16.16-.63-16.09-16.86,0-3,0-6,0-9,.07-4.12-.79-8.44,6-8.42,6,0,7.91,2.38,7.5,8-.15,2.12-1.94,6.05,2.85,5.83,3.82-.18,3.87-3.79,3.62-6.06-.7-6.55,2.47-7,7.87-6.86,21.5.56,42.92,2,64.33,3.67a999.62,999.62,0,0,1,246.09,50.83c24.82,8.47,49,18.4,73,29.16,6.51,2.95,13,6.25,14.78,14.34,2,9.2.89,10.66-8.27,9.91A44.26,44.26,0,0,1,1367.4,833c-2.23-.9-5.25-3.78-7-.26-1.61,3.29,1.55,5.37,4.14,6.9,6.23,3.64,13.17,3.33,20,3.46,2.33,0,5.18.07,5.08,3.54C1389.58,849.83,1386.93,850.18,1384.49,850.18Zm46.48,1c-.56,16.35-.24,16.37-16.85,16.31-19.51,0-19.49,0-17.91-19.43l-.35-17.14c.09-13.73-8.43-20.83-19.76-25.91-21-9.34-42.16-18-63.76-25.83-36.72-13.28-74.43-23.16-112.22-32.77-9-1.73-18-3.54-27-5.13-23.27-4.12-46.57-8.13-69.85-12.2-3.86-.19-7.73-.09-11.55-.58a915.88,915.88,0,0,0-95.18-7s-48.56-.71-70.11-.08c-80.29,2.39-159.24,12.85-237,32.74-49.7,12.73-98.13,29.17-144.88,50.45-17,7.73-23.43,17.76-21.74,35.8.66,7.16.17,14.32.94,21.42.48,4-.22,6.17-4.94,6-8.36-.29-16.75-.18-25.09-.08-2.79.05-4.82-.6-4.77-3.76V831.8c1.13-18.92-2.63-38.15,4.15-56.77a71.15,71.15,0,0,0,3.9-31.72c-4.57-44.35-38.24-74.89-83-75.2-25.39-.17-50.78-.14-76.18-.16-8.51,0-16.61-1.32-23.57-6.69-13.85-7.55-22-19.51-22.82-34.87-1.07-19-.21-38-.2-57-.08-42.38.06-84.79-.37-127.19-.21-18,8.35-29.72,23.59-37.77,30.29-16,61.67-29.67,93.58-42.14,6.35-2.47,12-5.73,10.53,5.65-.27,2.09.47,4.42,3.2,4.49,3,.07,2.54-2.78,3.12-4.59a8.92,8.92,0,0,0,.33-3.56c-.84-6.67,2.12-9.45,8.56-11.75,55.29-19.7,111.62-35.73,168.68-49.29,50.12-11.91,100.33-23.55,151.34-30.69,49.64-6.95,99.66-10.86,149.78-13.1,8.57-.4,17.28-1.43,21-10.69,2.19-5.4,1.4-36.7,1.4-36.7-.2-3.77,1.43-5.31,5.24-5.22l56,0c4.37-.52,6.92.27,6.45,5.47,0,0-.07,31.92,2.21,36.87,3.48,7.57,10.76,9.75,18.69,10.21,17.58,1,35.16,2.21,52.74,3.34a1300.69,1300.69,0,0,1,199.83,28.83c75.08,16.72,149.36,36,221.87,61.89,5.08,1.81,7.64,4,6.91,9.44a38.69,38.69,0,0,0,0,6.28c0,1.39-.34,3.19,1.82,3.42,1.95.22,3.55-.4,4-2.6.33-1.74,1-3.57.79-5.24-.72-4.69.48-6.05,5.18-4.2,35.5,14,70.8,28.44,103.92,47.52,10.62,6.14,17.15,16.18,17.2,28.72.2,44.18-.12,88.38-.23,132.58.06,19,.8,38,0,57-1,22.2-22.64,41.56-44.65,41.27-25.33.12-50.64.29-76,.37a97.28,97.28,0,0,0-23.88,2.71c-26.32,6.75-44.14,23.46-55.62,47.6-5.69,16-9.17,32.86-3.57,49,7,20.11,5.33,40.53,6.35,60.93Zm117-10.64c-14,28.23-37.22,41.49-68.39,41.84-11.45.15-12-.13-12-11.91,0-14.74-4.68-19.46-19.59-20.65-3.62-.3-10.29,2-10-3.64.24-5.28,6.86-1.81,10.43-3,3.84-1.25,11.05,1.79,10.79-4.27-.22-5.41-7-2.72-10.56-2.38-8.81.86-11.12-2.39-10.87-11,.62-20.48,1.36-40.91-5.81-61-4.45-12.46-3.39-25.82,2.67-38.18,5.34-23,31.13-46.39,54.57-49.4,2.14-.27,5.95-1.71,6.15,1.24.63,8.84.33,17.77.11,26.68,0,1.37-1.79,2-3.37,2.38-17.44,3.69-28.7,14.64-35.67,30.56-5.63,26.34.55,47.36,20.44,57.57,14,7.17,22.65,14.71,19.08,31.32-.34,1.56-.38,3.73,2.12,4.15,2.67.42,4.07-1.24,4.23-3.49a84,84,0,0,0,0-12.49c-.38-4.82,1.87-5,5.27-3.4,7.24,3.44,14.39,7.07,21.63,10.57,2,1,3.68,2.06,2.37,4.74-.89,1.77-2.83,3.81-.48,5.48,2,1.45,4.05-.28,5.52-1.67,5-4.72,9.13-.57,12.74,1.75C1553.7,835.14,1549.14,838.12,1547.94,840.55ZM1603.05,764c-9.16,17.74-17.88,35.7-26.82,53.55-8.25,16.52-8.21,16.38-24.62,8-4.39-2.22-5.83-4.28-3.09-8.82a97.29,97.29,0,0,0,6.22-12.83c.72-1.72,1.94-4.21-.76-5.43-2.25-1-4.13.32-5.28,2.21a125.37,125.37,0,0,0-7.35,13.25c-1.87,4.27-3.67,5.3-8,2.74-6.64-3.93-13.64-7.3-20.64-10.6-5.78-2.71-11.53-5-10.55-13.22.2-1.67-.4-4.49-3.21-4.63-4-.22-2.89,2.91-3,5.08-.16,2.63-.88,3.57-3.87,2.76-16.33-4.45-30.62-23.39-30.81-41.15-.15-17.29,12.63-34.51,28.6-40.72,4.79-1.87,7,4.58,10.23,1.63,7.38-6.76,14.35-2,20.59.86,18.12,8.3,35.79,17.55,53.67,26.32,3.09,1.52,5,2.07,1.53,6-7.81,8.82-11,20.25-15.79,30.8-.61,1.39-1.29,3,.2,4,2,1.36,3.48-.24,4.38-1.71,3.87-6.33,7.37-12.91,11.4-19.14,3.11-4.77,3.22-13.45,8.29-14.15,4.87-.67,10.46,4.72,15.88,7.12C1604.25,757.74,1605.33,759.55,1603.05,764Zm124.14-136.33c-.44,11.16-8.66,20.09-20,20.2-17.83.15-35.66.1-53.5.14-7.43,2-12.17,7-15.58,13.7-12.53,24.78-25.62,49.25-37.58,74.27-3.77,7.91-6.89,8.86-14.41,5-21.49-11-43.43-21.13-65.05-31.93-6-3-15.51.41-18.31-6.09-2.6-6.11-.22-14.16-1-21.24-.72-6.16,1.81-6.78,6.94-6.68,14,.33,28.09.5,42.13.09,22.47-.67,46,4.72,66.37-11.3a76.65,76.65,0,0,1-5.7,13.1c-.91,1.79-.8,3.62.79,4.86,2.11,1.61,4,.65,5.39-1.2s2.49-4,3.71-6.09c7.86-13.13,11.43-27.68,14.17-42.51,0-1.39.65-2,2.07-1.42,2.32-.23,4.81.46,6.9-1.17,0-1.18.12-2.33,1.46-2.85.41-3.51.82-7,1.25-10.53,0-2.42.07-4.84.11-7.26,0-3.55,0-7.1,0-10.66,0-1.21.09-2.45.12-3.7s-.15-2.3-.22-3.45c-5.39-2.86-6.19.43-6.23,4.66,0,7.44,0,14.89-.1,22.33,0,2,.24,4.67-2.59,4.89-3.64.24-2.22-2.88-2.22-4.53,0-28.27.17-56.54.3-84.83q-.06-16.07-.11-32.17c0-8.39,0-16.78.09-25.18-.12-10.91-.84-21.85-.25-32.7.7-12.94-2.55-24.19-10.92-34-6.23-4.07-11.81-9-18-13.16-2.71-1-5.89-1.09-7.5-4.16l0-.13a1.24,1.24,0,0,0-.2-.1l.32-.16-.12.26a56,56,0,0,1,7.45,4.29,3,3,0,0,1,.57.22c6.62,2.87,13.5,5.32,18.89,10.45,8-.46,4-6.11,4.27-9.88.17-2.68-1.3-7.4,3.91-4.91,9.7,4.65,10.57-.36,10-8-.2-2.68.2-5.39-.08-8-.55-4.91,1-6.85,6.35-6.7,15.17.45,30.38.4,45.57.43,13.61,0,22.63,8.85,23.11,22.25.34,9.51-2.64,19.91,6.87,27.34,1.13.88.72,3.95.74,6q0,48.71,0,97.42c0,3.76-.39,7.2-3.81,9.41-9.35,6.07-12,14.85-10.77,25.47.43,3.8-.16,7.71-.28,11.59.1,5.63.23,11.27.33,16.91.08,3.59-.23,7.78,3,9.89C1727.67,603.92,1727.64,615.48,1727.19,627.63Z"/><path class="cls-2" d="M1503,569.38c-.31,9.51-.53,19-1,28.48-.1,2-.68,4.5-3.46,4.31-3-.17-2.59-2.78-2.63-4.79-.19-9.2-.29-18.42-.44-27.64,1.64-3.46-2.3-10.16,3.17-10.44C1503.83,559,1501.05,566.07,1503,569.38Z"/><path class="cls-2" d="M1501.9,541.6c-.2,1.87-1.11,3.65-3.24,3.55-2.74-.15-3-2.37-2.93-4.6,0-5.61,0-11.24,0-16.88h.19c0-5.92,0-11.84,0-17.76,0-1.88.63-3.71,2.6-4.12,1.7-.36,2.73,1,2.87,2.61C1502.56,516.79,1503.29,529.18,1501.9,541.6Z"/><path class="cls-2" d="M1502,482.56c-.18,2-.6,4.46-3.39,4.36-3.71-.13-2.73-3.21-2.78-5.37-.13-5.32,0-10.66,0-16h.09c0-5.92,0-11.85,0-17.77,0-1.75.05-3.68,2.55-3.9,2.31-.2,3,1.12,3.19,3.18C1502.57,458.88,1503,470.72,1502,482.56Z"/><path class="cls-2" d="M1502,423.27c-.18,2-.6,4.47-3.39,4.36-3.71-.13-2.73-3.21-2.78-5.37-.13-5.32,0-10.65,0-16h.09c0-5.92,0-11.86,0-17.78,0-1.74.05-3.68,2.55-3.89,2.31-.2,3,1.11,3.19,3.16C1502.57,399.59,1503,411.43,1502,423.27Z"/><path class="cls-2" d="M425,482a4,4,0,0,1-3.86,4.22c-3,0-2.67-2.69-2.71-4.7-.08-5.35,0-10.74,0-16.1h.08c0-6-.08-12,.05-17.92,0-1.91,1-3.47,3.28-3.42,1.94,0,2.52,1.55,2.56,3C424.7,458.72,425,470.34,425,482Z"/><path class="cls-2" d="M425,422a4,4,0,0,1-3.86,4.23c-3,0-2.67-2.71-2.71-4.71-.08-5.35,0-10.74,0-16.11h.08c0-6-.08-11.94.05-17.91,0-1.91,1-3.47,3.28-3.43,1.94,0,2.52,1.56,2.56,3C424.7,398.75,425,410.37,425,422Z"/><path class="cls-2" d="M422.78,658.38c-1.38-.43-2.78-.87-4.16-1.28-.09-11.28-.31-22.57-.2-33.85,0-2.58-1.43-7,3.12-6.87,4.08.13,3.11,4.49,3.25,7.14.36,7.41.51,14.85.32,22.26C425,650.05,426.74,654.79,422.78,658.38Z"/><path class="cls-2" d="M425.54,569.36c-.16,8.84-.17,17.69-.52,26.51-.08,2.5-.22,5.89-4,5.56-3.55-.29-2.44-3.53-2.5-5.63-.23-10.62-.28-21.24-.41-31.86.39-2,.79-4.15,3.53-4.15,2.28,0,2.8,1.78,3.13,3.53C425.09,565.31,425.28,567.35,425.54,569.36Z"/><path class="cls-2" d="M424.8,541.39c0,2-1.39,3.21-3.55,3.14-2.38-.1-2.78-1.83-2.78-3.7,0-5.66,0-11.33,0-17h0v-17c0-1.89.32-3.62,2.57-4.06a2.92,2.92,0,0,1,3.67,2.93C424.87,517.63,424.88,529.52,424.8,541.39Z"/><path class="cls-2" d="M1502.72,655.33c-1.35,1.59-1.93,4.28-5,3.51-3.26-.8-1.37-3.8-2.35-5.59.14-9.51.07-19.06.62-28.55.15-3-2.61-8.51,2.9-8.43,4.72.09,3,5.63,3.14,8.68C1502.59,635.08,1502.54,645.2,1502.72,655.33Z"/><path class="cls-2" d="M389.17,834.68a14.93,14.93,0,0,0,3.08-1.92c1.37-1.44.36-3-.73-3.82-8.76-6.71-13.67-16.3-19.3-25.37-1.17-1.88-2.39-4.73-5.41-3.1-2.64,1.44-1.89,3.92-1.06,6.29,3.65,10.4,10.18,18.73,18.5,25.72C385.54,833.56,387.42,833.93,389.17,834.68Z"/><path class="cls-2" d="M339.83,754.73a246.89,246.89,0,0,0,16.64,31.62,3.65,3.65,0,0,0,3.07,1.21c2-.33,1.77-2.34,1.4-3.57a131.5,131.5,0,0,0-15.28-33c-.75-1.19-2.14-2.2-3.81-1.4C340,750.45,339.44,752.06,339.83,754.73Z"/><path class="cls-2" d="M313.77,702.31c.76,1.8,1.65,4.32,2.87,6.68,4.08,7.94,8.21,15.85,12.48,23.69.94,1.72,2.19,4,4.78,2.91,2-.86,1.84-2.79,1.12-4.6a162,162,0,0,0-15.37-30.21c-1-1.45-2.3-2.88-4.44-2.19C313.79,699.05,313.86,700.33,313.77,702.31Z"/><path class="cls-2" d="M418.43,810.11c0,5.06,0,10.12,0,15.17,0,2.22.38,4.48,2.95,4.68s3.56-2,3.56-4.21q0-16.95-.21-33.89c0-1.7-.66-3.82-3.11-3.37a3.68,3.68,0,0,0-3.12,3.78c-.05,6,0,11.9,0,17.84Z"/><path class="cls-2" d="M428.31,836.29c-4.27-.27-10.54.94-16.65-1-1.6-.5-3.53-1.6-4.18,1.11-.43,1.84.08,4.11,1.88,4.53,12.6,2.94,25.32,1.95,38,.52.71-.08,1.64-1.72,1.76-2.72.22-1.87-1.26-2.45-2.87-2.46C440.91,836.28,435.57,836.29,428.31,836.29Z"/><path class="cls-2" d="M1647.14,444c-.4-7.34.55-14.27-2.32-20.77-.85-1.95-2-4.33-4.2-4-3.06.48-1.86,3.42-1.43,5.13,2.52,10.21,1.84,20.58,2,30.91,0,2.16-.78,5.33,3,5.18,3.59-.13,2.83-3.2,2.9-5.42C1647.23,451.23,1647.14,447.35,1647.14,444Z"/><path class="cls-2" d="M1641.71,533.76c-.16,12.83-.34,25.65-.45,38.48,0,1.65-.42,3.6,2.14,4.21,3,.71,3.32-1.73,4.45-3.3-.32-11.44-.85-22.88-.85-34.31C1647,534.7,1646.22,532.62,1641.71,533.76Z"/><path class="cls-2" d="M1641.19,476.15l-.45,25.14.48,13.24c.07,2.19,1.24,3.15,3.37,3a2.65,2.65,0,0,0,2.6-2.92c0-12.38.19-24.77-.27-37.13C1646.75,472.78,1643.51,474.93,1641.19,476.15Z"/><path class="cls-2" d="M278.77,513.82l0-28.72c-.72-2.57.43-6.83-4.19-6.18-3.45.49-2.87,4-2.9,6.54-.09,9.44-.16,18.88,0,28.32,0,2.69-1.07,6.74,3.37,6.81S277.87,516.32,278.77,513.82Z"/><path class="cls-2" d="M278.64,461.83l.3-30.51a7,7,0,0,0-.12-2.61c-1.16-2.48,5.53-4.95.45-6.79-3.9-1.4-5.46,2.18-6.17,5.61-2.18,10.51-1.63,21.17-1.45,31.77C271.76,465.15,275.11,464.28,278.64,461.83Z"/><path class="cls-2" d="M271.23,569.34a21.45,21.45,0,0,1,.37,2.62c0,2.82.27,5.84,4,5.46,3.17-.32,2.77-3.31,2.8-5.63q.21-14.67.37-29.34c-.9-2.48.95-7-3.61-6.8-4.08.15-3.49,4.1-3.55,7C271.44,551.53,271.35,560.44,271.23,569.34Z"/><path class="cls-2" d="M1256,791.47c-1.81.28-3.6-.39-4,1.68a3.64,3.64,0,0,0,2.07,4.44,264.46,264.46,0,0,0,35.39,11.33,2.58,2.58,0,0,0,3.25-2.26,5,5,0,0,0-3.18-4.93C1278.57,797.08,1267.07,794.31,1256,791.47Z"/><path class="cls-2" d="M1118.58,768.58c2.6-.58,5.25.84,5.87-2.16s-1.57-4.35-4-4.71q-16.22-2.38-32.49-4.42c-1.87-.23-4.6-.83-5.25,1.83-.79,3.21,2.1,4.08,4.3,4.46C1097.72,765.42,1108.52,767,1118.58,768.58Z"/><path class="cls-2" d="M1058.69,761.29c2.47-1.22,8.38,3.27,8.84-2.41.48-5.9-5.8-4.4-9.62-4.77q-12.4-1.18-24.87-1.88c-2.32-.13-5.87-1.58-6.13,2.65s3.14,4.26,6.19,4.48C1041.39,760,1049.67,760.6,1058.69,761.29Z"/><path class="cls-2" d="M1307.29,812.52c.35,2.5,1.93,3.3,3.61,4q13.95,5.82,27.9,11.63c2.21.92,4.88,2.25,6.23-.51,1.48-3-.81-4.92-3.49-6.12-9.7-4.31-19.5-8.31-29.83-11C1309.19,809.91,1307.76,810.2,1307.29,812.52Z"/><path class="cls-2" d="M1231.72,791.8c2.7-.58,5,.49,5.57-1.93.66-2.65-1.37-3.75-3.39-4.37-10.72-3.3-21.52-6.32-32.63-8-1.54-.24-3.76-.81-4.4,1.62-.4,1.51,0,2.92,1.8,3.43Z"/><path class="cls-2" d="M1140.54,768.9c.26,2.55,2,2.92,3.83,3.3,10.48,2.18,20.94,4.4,31.43,6.54,2.23.45,4.62-.2,5.32-2.3.9-2.65-1.78-3.64-3.63-4.06-10.43-2.35-20.7-5.69-31.52-5.91C1143.91,766.42,1140.91,765.36,1140.54,768.9Z"/><path class="cls-2" d="M992.41,757.89h14.25c2.14,0,4.41,0,4.57-2.87.13-2.22-1.58-2.89-3.45-3.3-11.46-2.47-23-1.19-34.6-1.31-1.72,0-2.62.94-2.74,2.72-.16,2.44,1.55,3.11,3.32,3.25,6.21.5,12.43.81,18.64,1.19Z"/><path class="cls-2" d="M769.8,774.14l8.69-1.63c2.56-1.11,4.58-2.67,5.14-6.48-14-1-27,2.68-39.91,6.44-1.79.52-3.19,2-2.56,4,.79,2.53,3.15,2.52,5.21,2.15C754.19,777.23,762,775.65,769.8,774.14Z"/><path class="cls-2" d="M812.69,767.57c7.28-1.18,14.58-2.24,21.83-3.61,2.22-.42,5.25-1.17,4.89-4.21-.4-3.44-3.65-2.41-5.76-2.26a184,184,0,0,0-36,5.82c-1.16,4,.63,5.49,4.47,5.17C805.67,768.19,809.18,767.87,812.69,767.57Z"/><path class="cls-2" d="M664.36,791.62c-10.05,3-20.62,6.09-31.13,9.35-2.6.81-3.92,3-2.94,5.64s3.42,1.87,5.38,1.46c10.84-2.28,20.87-6.89,31.07-11,1.73-.7,3.29-2,2.74-4.05C668.79,790.43,666.49,792.23,664.36,791.62Z"/><path class="cls-2" d="M610.5,809.28c-10.74,2.74-21.23,7.39-31.47,12.65-1.56.8-3.21,2.28-2.25,4.23s3.17,1.57,4.73,1q15.81-5.59,31.5-11.51c2.13-.8,3.45-2.52,2.61-4.88S612.67,809.54,610.5,809.28Z"/><path class="cls-2" d="M720.23,776.94c-10.17,2.4-20.8,4.93-31.43,7.42-2.34.55-3.86,1.94-3.49,4.32.4,2.6,2.53,3.12,4.76,2.56,10.57-2.64,21.11-5.38,31.66-8.06,2.16-.55,4.1-1.51,3.86-4C725.28,775.91,722.58,777.27,720.23,776.94Z"/><path class="cls-2" d="M1493.87,842.73c5.94-.34,11.88-.53,17.8-1.07,2.7-.25,4.37-2.2,3.83-5-.59-3-3.31-2.18-5.08-1.7-10,2.7-20.11.72-30.14,1.41-2.47.17-6.91-2.27-6.9,2.56,0,4.18,4.45,3.1,7.12,3.31,4.43.35,8.91.1,13.37.1Z"/><path class="cls-2" d="M1585.74,727.34c-.48,3.79.28,5.25,2.31,5.82a4.15,4.15,0,0,0,5.22-2.29c4.72-9.88,9.38-19.8,13.85-29.8a4.34,4.34,0,0,0-1.88-5.46,2.46,2.46,0,0,0-3.77.81C1594.61,706.56,1590.48,718,1585.74,727.34Z"/><path class="cls-2" d="M613.37,290.6c10.54-2.4,20.67-4.77,30.83-7,3-.64,4.13-2.81,3.74-5.16-.55-3.36-3.41-1.45-5-1.1-10.18,2.23-20.31,4.69-30.43,7.18-1.93.47-4.57,1-4.09,3.74C609,291.36,612.1,288.9,613.37,290.6Z"/><path class="cls-2" d="M842.94,254.65c9.67-1.34,18.78-2.58,27.89-3.91,1.95-.28,4.57-.48,3.88-3.45-.58-2.48-2.79-2.82-5-2.31-8.79,2-17.78,1.24-26.65,2.1-3.45.33-8.6,0-8.32,4.53C835.06,257.29,840.7,252.57,842.94,254.65Z"/><path class="cls-2" d="M697.64,265.42c-9.71,2.21-20.41,4.55-31,7.18-1.5.37-3.58,1.87-2.73,3.92.4,1,2.62,1.92,3.77,1.69,11.06-2.22,21.94-5.38,33.27-6.23a3.1,3.1,0,0,0,2.73-3.9C703.12,265.34,700.75,265.61,697.64,265.42Z"/><path class="cls-2" d="M1269.17,278.51c1.24,1.65,1.26,3.8,4,4.4,10.16,2.23,20.23,4.91,30.34,7.36,2.43.59,5.06.69,5.79-2.36s-1.36-4.34-3.93-4.91q-15.25-3.39-30.53-6.68C1272.51,275.82,1270.1,275.49,1269.17,278.51Z"/><path class="cls-2" d="M1213.26,268.83c.63,2.45,1.63,4.16,4.23,4,10-.56,19.28,2.76,28.8,4.82,2.65.57,6,1.28,7-1.74,1.13-3.72-2.72-3.49-5.1-4.42-9.49-3.72-19.66-4.2-29.48-6.34C1215.64,264.5,1213.43,265.53,1213.26,268.83Z"/><path class="cls-2" d="M893.41,759c4.32-5.24,2.68-7.22-3.65-6.77-7.09.5-14.18.91-21.27,1.36-4.69,2-14-1.48-13.31,5.9.46,4.8,9.28,1.34,14.24,1.33C877.42,760.78,885.41,759.65,893.41,759Z"/><path class="cls-2" d="M931.25,757c5.35,0,10.71.21,16-.1,2.09-.12,5.22,0,5.18-3.51s-3-3.1-5.25-3.08c-9.51.11-19,.09-28.52.61-2.88.15-7.63,0-7.16,4.63.45,4.46,4.66,2.25,7.25,2.29,4.15.06,8.31-.36,12.47-.58Z"/><path class="cls-2" d="M411.34,778.54a22.33,22.33,0,1,1,22.34-22.33A22.35,22.35,0,0,1,411.34,778.54Zm0-38.66a16.33,16.33,0,1,0,16.34,16.33A16.35,16.35,0,0,0,411.34,739.88Z"/><path class="cls-2" d="M1507.66,778.54A22.33,22.33,0,1,1,1530,756.21,22.35,22.35,0,0,1,1507.66,778.54Zm0-38.66A16.33,16.33,0,1,0,1524,756.21,16.36,16.36,0,0,0,1507.66,739.88Z"/><rect class="cls-1" x="1919" y="1079" width="1" height="1"/><rect class="cls-1" width="1" height="1"/><rect class="cls-1" y="1079" width="1" height="1"/><rect class="cls-1" x="1919" width="1" height="1"/></g><g id="Capa_3" data-name="Capa 3"><path d="M824.35,423.57v111H804.52V463.86L785,478.77,768.83,491.3l-16.18-12.53-19.51-14.91V534.6H713.32v-111l19.82,15.23,35.69,27.44,35.69-27.44Z"/><path d="M948.69,443.56a34.22,34.22,0,0,1,2.54,12.84v45.53A32.67,32.67,0,0,1,940.76,526a34.29,34.29,0,0,1-7.29,5.23,31.42,31.42,0,0,1-14.91,3.65h-69V515.09h69a13.06,13.06,0,0,0,13-13V486.54a32.44,32.44,0,0,1-12.37,2.54H872.4a32.76,32.76,0,0,1,.48-65.51H918.4a32.56,32.56,0,0,1,30.13,20ZM860,456.4a13.06,13.06,0,0,0,12.37,13h46.79a13,13,0,0,0-.63-26H873A13.06,13.06,0,0,0,860,456.4Z"/><path d="M1075.26,489.55a31.54,31.54,0,0,1,2.7,12.85,32.63,32.63,0,0,1-32.68,32.68H967.09V515.25h78.19a12.93,12.93,0,0,0,12.85-13,12.77,12.77,0,0,0-11.42-12.84H967.09V424.05h101.67v19.82H986.91v25.7h59.64a32.17,32.17,0,0,1,28.87,19.83Z"/><path d="M1195.48,478.61A32.76,32.76,0,0,1,1172,534.13h-45.52a32.59,32.59,0,0,1-30.14-20,34.31,34.31,0,0,1-2.54-12.85V455.77a32.09,32.09,0,0,1,8.25-21.41,33.68,33.68,0,0,1,9.52-7.46,31.39,31.39,0,0,1,14.91-3.65h69v19.83h-69a13.07,13.07,0,0,0-13,13v15.54a32.48,32.48,0,0,1,12.37-2.54h46.79a32.78,32.78,0,0,1,23,10Zm-23.63,35.69a13.07,13.07,0,0,0,13-13,12.91,12.91,0,0,0-12.22-13h-46.79a13,13,0,0,0,.64,26h45.36Z"/><path class="cls-3" d="M848.55,563.55,842.77,584,840,594.09l-7.31,25.71H822.2l7.31-25.71L832.32,584l5.79-20.49Z"/><path class="cls-3" d="M912.83,562.35v56.24h-10V582.76l-9.88,7.55-8.2,6.35-8.19-6.35-9.89-7.55v35.83h-10V562.35l10,7.71L884.71,584l18.08-13.9Z"/><path class="cls-3" d="M972.54,590.55a16.59,16.59,0,0,1-11.89,28.12H937.59a16.49,16.49,0,0,1-15.27-10.12A17.29,17.29,0,0,1,921,602a16.55,16.55,0,0,1,4.66-11.57,15.79,15.79,0,0,1-3.45-5.06A17.29,17.29,0,0,1,921,578.9a16.55,16.55,0,0,1,4.66-11.57,15.59,15.59,0,0,1,11.57-5.06h23.55a16.65,16.65,0,0,1,11.65,28.2Zm-12.29-4.9a6.56,6.56,0,0,0,.24-13.1H936.78a6.55,6.55,0,0,0,.16,13.1h23.31Zm.08,23.06a6.61,6.61,0,0,0,6.58-6.59,6.55,6.55,0,0,0-6.18-6.59H937.18A6.53,6.53,0,0,0,931,602a6.62,6.62,0,0,0,6.59,6.59h23.06Z"/><path class="cls-3" d="M1029.67,572.31a17.4,17.4,0,0,1,1.85,7.87v38.33h-10V579.22a8,8,0,0,0-6.83-6.83H985.16v-10h28.52a17.56,17.56,0,0,1,7.88,1.84,17.85,17.85,0,0,1,8.11,8.2Z"/><path class="cls-3" d="M1094.52,572.47a17.48,17.48,0,0,1,1.28,6.51V602a16.56,16.56,0,0,1-5.3,12.21,17.14,17.14,0,0,1-3.7,2.66,16,16,0,0,1-7.55,1.84h-35v-10h35a6.62,6.62,0,0,0,6.59-6.59v-7.87a16.56,16.56,0,0,1-6.27,1.28h-23.7a16.59,16.59,0,0,1,.24-33.18h23.06a16.5,16.5,0,0,1,15.27,10.12ZM1049.6,579a6.62,6.62,0,0,0,6.27,6.59h23.7a6.59,6.59,0,0,0-.32-13.18h-23.06A6.62,6.62,0,0,0,1049.6,579Z"/></g></g></svg>