<svg xmlns="http://www.w3.org/2000/svg" viewBox="0 0 1920 1080"><defs><style>.cls-1{fill:#f2f2f2;}.cls-2{fill:#020202;}</style></defs><g id="Capa_2" data-name="Capa 2"><g id="Capa_1-2" data-name="Capa 1"><rect class="cls-1" width="1" height="1"/><rect class="cls-1" x="1919" y="1079" width="1" height="1"/><rect class="cls-1" y="1079" width="1" height="1"/><rect class="cls-1" x="1919" width="1" height="1"/></g><g id="Capa_3" data-name="Capa 3"><path d="M834.94,536.79v111H815.11V577.08L795.6,592l-16.17,12.53L763.25,592l-19.51-14.91v70.74H723.91v-111L743.74,552l35.69,27.44L815.11,552Z"/><path d="M888.86,573.75v75.5H869V571.69a15.83,15.83,0,0,0-13.49-13.48h-4.44V538.54h4.29v.16a35.35,35.35,0,0,1,29.5,19.82,41.54,41.54,0,0,1,2.69,7.46,33,33,0,0,1,1,8.09Z"/><path d="M942.47,573.75v75.5H922.65V571.69a15.83,15.83,0,0,0-13.49-13.48h-4.44V538.54H909v.16a35.35,35.35,0,0,1,29.51,19.82A41.54,41.54,0,0,1,941.2,566a33,33,0,0,1,1,8.09Z"/><path d="M1068.89,536.79v111h-19.83V602.14H990.53a31.42,31.42,0,0,1-14.91-3.65,32.37,32.37,0,0,1-17.76-29V536.79h19.82v32.68a13.06,13.06,0,0,0,13,13h58.53V536.79Z"/><path d="M1186.89,592.47A32.75,32.75,0,0,1,1163.42,648h-45.53a32.57,32.57,0,0,1-30.13-20,34.31,34.31,0,0,1-2.54-12.85,32.67,32.67,0,0,1,9.2-22.84,31,31,0,0,1-6.82-10,34.31,34.31,0,0,1-2.54-12.85,32.67,32.67,0,0,1,9.2-22.84,30.81,30.81,0,0,1,22.84-10h46.47a32.88,32.88,0,0,1,23,55.68Zm-24.27-9.68a12.94,12.94,0,0,0,.48-25.85h-46.79a12.93,12.93,0,0,0,.31,25.85h46Zm.16,45.52a13.06,13.06,0,0,0,13-13,12.93,12.93,0,0,0-12.22-13H1117.1a12.88,12.88,0,0,0-12.21,12.85,13.06,13.06,0,0,0,13,13h45.53Z"/><path class="cls-2" d="M970,839.88c3.36,0,6.71-.1,10.07,0,1.88.06,4.41-.47,4.24,2.74s-2.67,2.44-4.54,2.5c-4.7.14-9.4.31-14.09.14-3.31-.12-4.39,1.18-4.07,4.32a28.36,28.36,0,0,1,0,6c-.46,4.24.86,5.65,5.52,5.72,23.48.37,47,.65,70.43,2.08,26.77,1.63,53.57,3.5,80,8.49,45.67,8.63,90.5,20.78,135.16,33.43a251.34,251.34,0,0,0,72.62,10c59.29-.76,118.6-.18,177.9-.29,16.77,0,33.58.85,50.33-.52a52.84,52.84,0,0,0,48.57-45.93c2.12-15.77,1.1-31.69.82-47.56q0-25.77,0-51.54V711c.48-19,.57-38,0-57q0-29.25,0-58.5,0-30,0-60c0-51.89.55-103.79-.15-155.67-.21-15.49-4.78-30.39-17.74-41.21-5.12-4.28-9.45-9.52-14.25-14.2-10-9.75-14.6-21.68-14.71-35.49-.07-9.84,0-19.68-.16-29.53-.88-70.41-69.46-111.81-129.93-86.21-12.57,5.32-24,13-35.78,19.68a124.77,124.77,0,0,1-63.47,16.39c-29.53-.14-59.07.1-88.61-.16-5.36,0-7.11.93-7.05,6.78q.51,44.61,0,89.25c-.35,29-24.92,52.17-54.66,52.13-29.9,0-53.79-23.18-53.93-52.53q-.23-44.62,0-89.26c0-4.83-.89-6.42-6.16-6.39-55.2.23-110.4.17-165.6.17q-179.23,0-358.48-.06a131.46,131.46,0,0,1-35.1-4.62c-18.37-5.09-34.17-15.39-50.26-24.93-63.67-37.78-140.24,5-142.32,76.3-.36,12.3-.22,24.61-.72,36.9-.42,10.32-3.82,19.75-10.84,27.49-5.71,6.29-11.41,12.69-17.83,18.21-12.76,10.95-17.59,25.77-17.83,41.2-.78,51.21-.22,102.44-.18,153.66-.09,1.78-.26,3.55-.26,5.33q0,103.88,0,207.75c0,27,.18,54,.28,81.05-.07,11.4-.36,22.81-.09,34.2a56.65,56.65,0,0,0,3,16.42c6,18.45,24.73,37.38,55.56,37.2q113.77-.67,227.58-.08a205.3,205.3,0,0,0,57.48-8c43.59-12.37,87.32-24.38,131.76-33.32,52.41-10.53,105.68-11.73,158.92-12.78,3.45-.07,8.14,1.1,6.93-4.77-.85-4.12,4.72-11.82-5.58-11.51-1.86.06-3.72-.4-3.65-2.86s2.17-2.07,3.5-1.85Zm-17.13,31.9c-38.72.42-77.36,2.2-115.9,6.07-36.82,3.69-72.5,12.84-108.18,22.06C698.33,907.77,668,916,637.51,923.83c-6.93,1.79-14.14,2-21.31,2q-111.47,0-222.92-.06s-38,.46-50.82-6.83c-23.46-12.51-34.93-32.38-35.86-58.61-.34-9.38-.29-18.77-.42-28.16.11-1.32.3-2.65.3-4q0-139-.07-278c0-5.35-.19-10.69-.28-16,.11-31.54,0-63.08.39-94.62V370.88a51,51,0,0,1,3.67-15.52c5-15.68,18.34-24.5,28.95-35.32,9.8-10,15.15-21.22,14.75-35.32-.27-9.6-.07-19.24.32-28.84,1.72-42.88,22.28-73.39,60.81-92,3.45-1.66,7-3.18,11.83-5.4,0,0,6.86-2.4,8.82-2.74a104.74,104.74,0,0,1,38.81.5,124.27,124.27,0,0,1,37.45,13.9c16.78,9.23,32.64,20.36,51.71,24.94a119,119,0,0,0,27.89,3.4H1123.2c17.74,0,26.06,8.28,26.17,26.22.09,15.43-.1,30.88.13,46.31.09,6.28-1.5,11.5-6.8,15.14-2.42,1.67-2.89,3.29-1.64,6.17,4.33,10,8.37,20.2,12.39,30.37,4.33,10.95,12,16.82,24.06,16.68,10.6-.12,18-5.41,22.59-16.73,3.88-9.5,7.51-19.11,11.51-28.55,1.49-3.51,1.88-6.08-1.72-8.64-4.07-2.88-5.58-7.19-5.54-12.26.13-17.45-.07-34.91.12-52.36.14-12.91,9.57-22.21,22.41-22.25,32-.1,64-.34,96,0,24.12.26,46.37-5.27,67.08-17.81,14.49-8.78,29-17.65,45.59-22.31,59.22-16.64,121.41,23.46,129.69,84.42,1.74,12.77,1.22,25.92.85,38.87-.45,16,4.74,29.22,16.7,40,6.15,5.52,11.82,11.59,17.62,17.49,4.16,4.22,5.92,9.86,8.24,15.13,0,0,5.21,13,5.21,18.22V854.12c.05,19.73-4.45,37.57-18.75,52.1-13.33,13.56-29.7,19.57-48.35,19.58q-122.54.11-245.07,0c-18.88,0-36.39-6.36-54.26-11.07-40.76-10.76-81.36-22.17-122.7-30.61-29.64-6.06-59.74-8.24-89.85-10.17-21.67-1.38-43.38-1.64-65.08-2.17Zm174.87-610.93c.17,14.07-.56,28.13-.14,42.23.78,26.33,21.36,48.12,47.16,48.9,27,.81,50.5-20.14,51.09-46.9.68-30.62.19-61.27.14-91.9,0-1.38.85-3.36-1.36-3.91a4.31,4.31,0,0,0-4.25,1.41c-3.33,3.46-5.79,7.21-5.77,12.36.06,15.65,0,31.3-.16,47a11.28,11.28,0,0,0,4.65,9.82c4.44,3.33,5.89,7.92,3.89,13.1-4.88,12.69-9.52,25.51-15.15,37.88-6.23,13.68-17.83,19.09-32.58,18.82-14.42-.26-24.61-7-30.34-19.93-5.06-11.4-9.2-23.2-13.8-34.8-2.51-6.36-1.61-11.8,4.1-16a8.3,8.3,0,0,0,3.62-7.4q-.22-24.5,0-49c0-4.63-2-8.08-5.09-11.2-1.33-1.32-2.66-2.68-4.58-2.05-2.37.77-1.32,3-1.33,4.62C1127.69,229.54,1127.73,245.19,1127.73,260.85Z"/><path class="cls-2" d="M1462.38,210.58c8.49,0,17-.14,25.49,0,11.64.25,19.7,7.86,20.53,19.55a192.93,192.93,0,0,1-.14,28.14c-.79,10.8-8.56,19-19.42,19.27-18.32.41-36.67.36-55,0-10.09-.18-17.58-7.61-18.67-17.58a176.17,176.17,0,0,1-.28-30.12c.76-12,8.59-18.93,20.65-19.3,4.47-.14,9-.08,13.42-.09h13.42ZM1461.3,216c-8.49,0-17-.08-25.47,0-8.87.1-14.91,5.39-15.35,14.15-.46,9.13-.51,18.31-.15,27.44.35,8.85,6.25,14.55,15.07,14.65q26.46.32,52.93,0c8.41-.1,13.82-5.28,14.3-13.75.49-8.91.6-17.86.28-26.77-.37-10.2-6-15.49-16.15-15.68C1478.28,215.82,1469.79,215.94,1461.3,216Z"/><path class="cls-2" d="M458.58,277.75c-8.27,0-16.55.1-24.82,0-13.74-.2-21.69-8-21.92-21.61-.15-8.49-.26-17,.08-25.48.5-12,8.59-19.89,20.71-20q26.16-.3,52.33,0c11.75.16,19.32,7.15,20.31,18.87.85,10,1.3,20.1,0,30.11-1.38,10.81-9.55,17.91-20.55,18.09C476,277.86,467.3,277.74,458.58,277.75ZM459,216v-.05c-8.94,0-17.88-.16-26.81,0-8.32.19-14,5.37-14.7,13.5a182.12,182.12,0,0,0,.13,29.45c.58,7.46,6.07,13.07,13.46,13.2,18.32.31,36.64.28,55,0,6.77-.09,12.81-5.53,13.51-11.8a131.5,131.5,0,0,0,.18-31.41c-1-7.62-6.91-12.77-14.6-12.91C476.46,215.86,467.74,216,459,216Z"/><path class="cls-2" d="M970.47,258.51c5.81.08,11.63,0,17.44.06,1.74,0,4-.1,4,2.41,0,2.75-2.48,2-4.08,2-7.15.09-14.32.29-21.45,0,0,0-4.93.81-5.15.11s-1.44-4.44,3-4.46S970.47,258.51,970.47,258.51Z"/><path class="cls-2" d="M1589,437.05c-.49,2,.72,4.31-1.8,4.86s-3-1.67-3.37-3.3a96.32,96.32,0,0,0-7.84-21.94c-.81-1.68-1.58-3.54.65-4.56,2.07-.95,3.3.71,4.33,2.19C1585.73,421.27,1587.93,429.13,1589,437.05Z"/><path class="cls-2" d="M1226,364.71c-.12,2.28-1.4,3.29-2.56,4.3a75.16,75.16,0,0,1-18.53,11.86c-1.83.82-4.38,2.62-5.68-.56-1-2.5,1.24-3.49,3.09-4.3a75.22,75.22,0,0,0,17.89-11.6C1222.37,362.58,1224.37,362.43,1226,364.71Z"/><path class="cls-2" d="M1010,841.39c4.22.23,8.44.38,12.64.74,1.7.14,3.89.25,3.89,2.7s-1.91,2.83-3.79,2.72c-8-.5-15.94-1.09-23.91-1.65-1.64-.12-3.33-.47-3.34-2.46,0-2.53,2.1-2.52,3.86-2.48,3.56.08,7.1.31,10.65.48Z"/><path class="cls-2" d="M445.55,361.54c-.56,2.56-2.48,3.31-4.33,4.08-6.37,2.65-12.77,5.23-19.11,7.94-2.28,1-4.67,1.37-5.88-1s1.27-3.53,3-4.23Q430.11,364,441.1,360C442.8,359.38,445.14,358.51,445.55,361.54Z"/><path class="cls-2" d="M1451.44,351.87c-.5,1.94-1.93,2.3-3.58,1.71-7.94-2.83-15.85-5.77-23.8-8.59a3,3,0,0,1-2.18-3.6c.25-1.71,1.67-2.06,3-1.66a162.09,162.09,0,0,1,24.36,8.91A3.67,3.67,0,0,1,1451.44,351.87Z"/><path class="cls-2" d="M1385.44,325.68a135.59,135.59,0,0,1,23.22,8.17c1.76.79,3.25,1.87,2.15,4.06-.87,1.72-2.46,1.6-4.06,1-7.31-2.6-14.65-5.13-21.93-7.8-1.64-.6-3.36-1.55-3-3.84S1383.8,325.27,1385.44,325.68Z"/><path class="cls-2" d="M1264,322.78c-2.19.45-2.88.05-3.33-.84a2.82,2.82,0,0,1,.54-3.13c6.09-7.28,14.31-11.12,23.13-13.84a3.73,3.73,0,0,1,3,1,1.93,1.93,0,0,1-.43,2.94C1278.75,313.46,1270.13,317.14,1264,322.78Z"/><path class="cls-2" d="M1569.9,402.25c-.48,2.94-2.88,2.55-4.43,1.41-6.32-4.67-13.38-8-20.1-12-1.54-.9-3.21-2.54-2.19-4.37s3.2-1.06,4.77-.27c6.17,3.07,12.85,5.19,18.29,9.64C1568,398.09,1569.83,399.42,1569.9,402.25Z"/><path class="cls-2" d="M1173.83,386.47c-4.65-.46-9.32-.81-14-1.43-1.7-.23-3.72-.76-3.62-3.15.11-2.81,2.38-2.14,4-2.07,8,.36,16.06.84,24.1,1.23,1.62.08,3.37.07,3.43,2.19,0,1.95-1.54,2.67-3.2,2.72-3.57.11-7.15,0-10.72,0C1173.86,386.15,1173.85,386.31,1173.83,386.47Z"/><path class="cls-2" d="M1553.26,897.34c-1.47-.38-3.75.2-4-2.3-.19-2,1.42-2.38,3-2.74a43.28,43.28,0,0,0,19.89-10.08c1.19-1.07,2.55-2.13,4-.46a2.56,2.56,0,0,1-.34,3.61C1569.64,891.74,1562.34,896.08,1553.26,897.34Z"/><path class="cls-2" d="M1304.11,302.07c7.14,1.09,14.51,1.57,21.56,3.86,1.88.61,4.3,1,3.78,3.73-.66,3.49-3.38,2-5.37,1.68-7-1.27-14-2.66-20.95-4-2-.39-4.5-1.07-4.17-3.41C1299.34,301.14,1302.16,302.42,1304.11,302.07Z"/><path class="cls-2" d="M824.54,854.84c-.84-.06-3.13.68-3.53-1.74-.32-1.93,1-3.23,3.1-3.54,7.89-1.13,15.79-2.2,23.79-2.14,1.7,0,3.8,0,3.79,2.6,0,2-1.52,2.37-3.19,2.52C840.78,853.25,833.08,854,824.54,854.84Z"/><path class="cls-2" d="M1253.18,882.22c8.39,2.17,16.79,4.32,25.16,6.55a2.53,2.53,0,0,1,2,3,2.57,2.57,0,0,1-3.15,1.85,173.78,173.78,0,0,1-25.74-6.58,2.58,2.58,0,0,1-1.87-3.11C1250.08,882.54,1251.69,882.6,1253.18,882.22Z"/><path class="cls-2" d="M1487.39,369.12A161.51,161.51,0,0,1,1464,358.9a2.26,2.26,0,0,1-1.38-2.72c.45-1.31,1.67-1.35,2.78-1.07,8.87,2.19,17.08,6.15,25.53,9.47a2.2,2.2,0,0,1,1,3.35C1491.07,369.71,1489.34,369.05,1487.39,369.12Z"/><path class="cls-2" d="M1366.64,324.92c-8-2.74-16-5.44-24-8.2a2.41,2.41,0,0,1-1.68-3.13,2.62,2.62,0,0,1,3.58-2c8.14,2.87,16.24,5.87,24.33,8.89,1.32.49,2.38,1.59,1.77,3.1C1369.93,325.4,1368,324.52,1366.64,324.92Z"/><path class="cls-2" d="M1169.64,864.28c7.38,1.46,15,2.87,22.55,4.51,1.85.4,4.23,1.16,3.54,3.86-.57,2.22-2.62,2.05-4.42,1.67-7.55-1.63-15.11-3.22-22.62-5-1.65-.39-3.79-1.33-3.58-3.4C1165.41,863.12,1167.92,864.89,1169.64,864.28Z"/><path class="cls-2" d="M333.62,852.91a2.48,2.48,0,0,1,2.16,2.21c.78,8.17,4.58,15.18,8.42,22.19,1,1.77,2,4-.28,5.22-1.74.92-3.31-.85-4.37-2.24-5.57-7.28-8.7-15.38-7.95-24.7C331.7,854.27,331.63,852.8,333.62,852.91Z"/><path class="cls-2" d="M935.13,258.55c3.1,0,6.22-.13,9.31.05,1.79.1,4.57-.88,4.77,2.08.22,3.19-2.64,2.3-4.41,2.41-7.53.46-15.07.86-22.6,1.12-1.52.05-4.08,1.22-4.29-1.45-.16-2.14,1.67-3.59,3.92-3.78,4.42-.37,8.85-.59,13.28-.87Z"/><path class="cls-2" d="M836.75,271c-1.67-.3-4.5,1-5-1.62-.55-2.95,2.23-3.44,4.48-3.67,7.77-.82,15.56-1.57,23.34-2.3,1.78-.16,3.81-.47,3.78,2.33,0,2-1.39,2.5-3.12,2.68C852.45,269.23,844.69,270.11,836.75,271Z"/><path class="cls-2" d="M730.91,279.07c1.52.34,3.56-.87,3.92,1.55a3,3,0,0,1-2.77,3.74c-8.52,1.35-17,2.76-25.54,4.07-1,.14-2.41.56-2.74-.91a3.44,3.44,0,0,1,2.49-4.16,81.86,81.86,0,0,1,9.73-2C721,280.52,726.05,279.81,730.91,279.07Z"/><path class="cls-2" d="M679,880c2.46.27,4.14-.32,4.47,1.54a2.57,2.57,0,0,1-2,3c-8.61,2.21-17.23,4.38-25.88,6.43a2.15,2.15,0,0,1-2.84-2c-.07-1.8,1.07-2.83,2.77-3.25Z"/><path class="cls-2" d="M1589.37,768q-.27,7.28-.53,14.56c-.06,1.67-.39,3.24-2.45,3.17s-2.15-1.77-2.18-3.38c-.11-5.28-.25-10.57-.38-15.85.13-2.18.21-4.36.41-6.54s-.64-5.16,2.56-5.06c2.91.09,1.49,3.05,1.79,4.78C1589.06,762.43,1587.77,765.35,1589.37,768Z"/><path class="cls-2" d="M1588.87,853.23c-.18,5.08,0,10.2-1.52,15.16-.58,1.94-1.53,3.36-3.62,3.14-2.69-.28-2.16-2.55-1.83-4.13a112.22,112.22,0,0,0,2.41-23.75c0-1.58.19-3.42,2.19-3.55,2.81-.2,2.24,2.24,2.32,3.82C1589,847,1588.87,850.12,1588.87,853.23Z"/><path class="cls-2" d="M1062.49,851.15c-7.22-.82-14-1.53-20.85-2.43-1.57-.21-4-.08-3.65-2.78s2.44-2.68,4.55-2.46q9.92,1,19.84,2c3,.31,7.63.07,7.19,3.87C1069.17,852.89,1064.6,849.78,1062.49,851.15Z"/><path class="cls-2" d="M1105.94,857.4c-6.21-1-14.13-2.3-22-3.54-1.79-.28-3-1-2.82-3,.27-2.65,2.33-2.32,4.07-2.08,7.73,1.09,15.45,2.28,23.17,3.41,1.85.27,3.86.62,3.48,3C1111.46,857.37,1109.64,857.85,1105.94,857.4Z"/><path class="cls-2" d="M699.24,880.66c-2.15-.38-4.13.47-4.69-1.57-.63-2.32,1.3-3.27,3-3.62,8-1.65,16.06-3.14,24.12-4.59,1.84-.33,3.85,0,4.14,2.26.25,2-1.77,2.5-3.15,2.8C714.64,877.66,706.6,879.19,699.24,880.66Z"/><path class="cls-2" d="M1050.88,261.43a68.63,68.63,0,0,1,22.54,10.93c1.06.81,2.28,1.94,1.38,3.28a3.22,3.22,0,0,1-3,.68c-8.16-3.37-16.26-6.89-24.35-10.42a2.41,2.41,0,0,1-1.32-3.32C1046.89,260.61,1048.64,261.29,1050.88,261.43Z"/><path class="cls-2" d="M749.66,281.56c-1.38.09-2.79.06-3-1.72-.18-1.42.36-2.92,1.82-3.15,9.17-1.45,18.36-2.77,27.55-4.05a1.8,1.8,0,0,1,2.1,2,3,3,0,0,1-2.89,3.07C766.71,278.94,758.19,280.26,749.66,281.56Z"/><path class="cls-2" d="M645.93,295c2.52.35,4.54-.45,4.59,2a3.27,3.27,0,0,1-2.83,3.26q-12.29,2.88-24.6,5.56c-1.42.32-2.78-.13-3.07-1.73a2.88,2.88,0,0,1,2.42-3.44C630.6,298.61,638.78,296.68,645.93,295Z"/><path class="cls-2" d="M405.41,377.18a4.25,4.25,0,0,1-3,3.5c-6.72,2.86-13.42,5.75-20.23,8.36-1.91.74-4.7,1.69-5.73-1.27-.93-2.65,1.62-3.3,3.4-4,7-2.67,14.09-5.31,21.2-7.75C402.51,375.56,404.62,374.78,405.41,377.18Z"/><path class="cls-2" d="M763.08,861.62c2.5.24,4.38-.39,4.79,1.84s-1,3.16-3,3.54c-8.06,1.52-16.13,3-24.18,4.65-1.86.36-3.79.69-4.17-1.73-.26-1.73,1.07-2.79,2.8-3.16C747.58,865,755.82,863.2,763.08,861.62Z"/><path class="cls-2" d="M1151,865.83c-8.19-1.72-16-3.37-23.85-5-2.06-.44-4.29-1.29-3.71-3.77.55-2.32,2.77-1.53,4.53-1.18q11.48,2.26,23,4.45c2.26.43,3.87,1.57,3.55,4S1152,865.18,1151,865.83Z"/><path class="cls-2" d="M344.4,414.4c-1.95,0-2-1.43-1.9-2.79.32-4.86,15.49-19.23,20.7-19.54a3,3,0,0,1,2.28.78,2.37,2.37,0,0,1-.16,2.32c-7.18,5.61-13.27,12.35-19.73,18.7A3.92,3.92,0,0,1,344.4,414.4Z"/><path class="cls-2" d="M1233.88,354.85c-2.71-.37-2.43-2.06-1.33-3.72,4.93-7.43,11.32-13.61,17.43-20,.8-.85,2-1.41,2.84-.32s1.84,2.33.87,3.6a141.62,141.62,0,0,1-18.48,19.91A4.48,4.48,0,0,1,1233.88,354.85Z"/><path class="cls-2" d="M1211.74,873.34c8.14,2,16.29,4,24.41,6.19,1.27.33,2.48,1.33,2,3a2.55,2.55,0,0,1-3,2q-12.6-2.84-25.14-5.91a2.58,2.58,0,0,1-2.17-2.95C1208.29,873.74,1210,873.68,1211.74,873.34Z"/><path class="cls-2" d="M583,317c-2-.07-3.81.56-4.23-1.68s1.43-3.05,3.12-3.56c7.62-2.28,15.25-4.49,22.9-6.7,1.45-.42,3.26-1.16,4.11.69.94,2.07-.6,3.38-2.31,4.06A181.25,181.25,0,0,1,583,317Z"/><path class="cls-2" d="M869.67,849.72c-1.79-.88-5.36,1.84-5.65-2.17-.25-3.51,2.94-3.18,5.36-3.35,7.1-.51,14.21-1.13,21.32-1.47,1.62-.07,4.47-1.58,4.71,1.67.21,2.7-2.48,3-4.33,3.2C884,848.44,876.92,849,869.67,849.72Z"/><path class="cls-2" d="M815.54,267.7c2.07.32,4.49-1,4.85,1.68s-2,3-4.06,3.35c-7.71,1.19-15.42,2.45-23.14,3.54-1.65.23-4,.66-4.06-2-.07-2.19,1.79-2.9,3.66-3.18C800.52,269.89,808.25,268.77,815.54,267.7Z"/><path class="cls-2" d="M1085.18,283.94a12.3,12.3,0,0,1,2.51,2c4.65,6.57,8.88,13.37,11.34,21.12.46,1.47,1.23,3.17-.88,4-1.59.59-2.55-.72-3.19-1.83-4.08-7.16-8.14-14.33-12-21.59C1081.92,285.78,1082.54,284.23,1085.18,283.94Z"/><path class="cls-2" d="M616.89,897.47a28,28,0,0,1-4,0c-1.48-.23-3.36-.34-3.18-2.57.14-1.62,1.49-2,2.89-2.19,8.39-.95,16.79-1.94,25.19-2.78,1.34-.13,3.47-.94,3.8,1.35.27,1.92-1.55,2.42-3,3C631.54,896.66,624.17,896.84,616.89,897.47Z"/><path class="cls-2" d="M1099.66,328.8c0-3-.3-5.62,2-6.1s2.36,2.26,2.8,3.84c1.91,6.91,5.13,13.29,7.92,19.83.72,1.69,1.75,3.82.09,4.89-2.24,1.45-3.63-.85-4.7-2.47A49.53,49.53,0,0,1,1099.66,328.8Z"/><path class="cls-2" d="M665.71,296.56c-1.36-.06-3.55.57-3.88-2-.3-2.31,1.55-3,3.38-3.36,7.9-1.41,15.8-2.84,23.73-4.06,1.29-.2,3.47-1,3.93,1.18s-1.52,3.21-3.22,3.57C681.8,293.53,673.92,295,665.71,296.56Z"/><path class="cls-2" d="M780.85,862.79a2,2,0,0,1-2.07-1.74A2.87,2.87,0,0,1,780.9,858c8.46-3,17.45-3.1,26.18-4.65a1.66,1.66,0,0,1,2.1,1.89,3.59,3.59,0,0,1-3,3.21c-5.88,1.15-11.79,2.14-17.69,3.17C786.32,862,784.12,862.28,780.85,862.79Z"/><path class="cls-2" d="M882.2,267.08a17,17,0,0,1-2.67,0c-1.8-.3-4.58,1.07-5-1.76-.48-3.07,2.23-3.41,4.49-3.59,7.35-.58,14.69-1.15,22-1.56,1.51-.08,3.94-1.27,4.33,1.5s-1.73,3.44-3.84,3.66C895.1,266,888.65,266.5,882.2,267.08Z"/><path class="cls-2" d="M1122.76,359.92a25.79,25.79,0,0,1,2.69,2.1,59.78,59.78,0,0,0,16.31,11.26c1.9.9,4.62,2.07,3.43,4.81-1.27,3-3.74,1.3-5.67.4-6.87-3.21-13.21-7.2-18.11-13.13-1-1.19-2-2.45-1.29-4.19C1120.5,360.27,1121.2,359.82,1122.76,359.92Z"/><path class="cls-2" d="M540.68,329.4a2.66,2.66,0,0,1-2.92-1.23c-.87-1.63.33-2.57,1.51-3.11a146.69,146.69,0,0,1,24.57-8.28c1.49-.39,3.35-.3,3.77,1.73.31,1.55-1,2.57-2.23,3C557.17,324.2,548.92,326.78,540.68,329.4Z"/><path class="cls-2" d="M485.25,346.66c-.24,2.1-1.92,2.64-3.25,3.2-6.7,2.86-13.42,5.67-20.24,8.22-1.67.63-4.33,1.62-5.35-.72-1.1-2.53,1.6-3.42,3.28-4.1q10.77-4.31,21.72-8.18C482.88,344.56,485.1,343.82,485.25,346.66Z"/><path class="cls-2" d="M1506.27,370.76c7.73,3.08,16,6.34,24.22,9.68a2.42,2.42,0,0,1,1.58,2.69c-.4,1.68-1.88,1.71-3.24,1.36-8.21-2.09-15.93-5.55-23.74-8.72A3.14,3.14,0,0,1,1503,372C1503.32,370.62,1504.5,370.65,1506.27,370.76Z"/><path class="cls-2" d="M526.82,332.31c-.36,1.87-1.73,2.58-3.25,3.11-7.57,2.63-15.13,5.32-22.74,7.83-1.28.42-3.27,1.2-4-.87-.5-1.51.95-2.38,2.12-3,7.74-4.07,16.12-6.41,24.45-8.85C524.92,330.11,526.65,330,526.82,332.31Z"/><path class="cls-2" d="M372.4,897.67c-4.74-.22-11.29-1.12-17.25-4.47-1.46-.82-2.67-2.07-1.77-3.75.73-1.35,2.4-.92,3.61-.48a60.51,60.51,0,0,0,20.86,3.6c2,0,5.15-.83,5,2.56s-3.21,2.23-5.22,2.51A50.08,50.08,0,0,1,372.4,897.67Z"/><path class="cls-2" d="M331.38,444.14a43.35,43.35,0,0,1,2.87-16.9c.55-1.43,1-3.31,3-3,2.27.39,1.43,2.41,1.29,3.79-.81,7.92-1.71,15.83-2.6,23.74-.17,1.48,0,3.37-2.36,3.16-2.19-.21-2.07-2-2.13-3.52C331.32,449,331.38,446.58,331.38,444.14Z"/><path class="cls-2" d="M1585.29,829.08c-2.37-9.63-.6-19.38-.86-29.07,0-1.36.65-2.76,2.31-2.68,2.21.1,2.07,2,2.11,3.49.25,8.19.4,16.37.59,24.56C1589,827.67,1588.14,829.49,1585.29,829.08Z"/><path class="cls-2" d="M1309.58,897.94c-4.67-.4-9.33-.83-14-1.18-2.08-.15-3.64-1.11-3.58-3.16.08-2.67,2.44-2.28,4.06-2,7.55,1.29,15.16.75,22.74,1,1.56.06,3.91-.82,4,2.1,0,2.55-2.13,2.7-3.78,2.82-3.11.23-6.25.06-9.38.06Z"/><path class="cls-2" d="M331.57,481.2v-12c0-1.4.19-2.88,2-2.84a2.41,2.41,0,0,1,2.39,2.66c0,8.67,0,17.33-.08,26,0,1.38-.48,2.83-2.15,2.86-2.2,0-2.26-1.81-2.29-3.34-.07-4.44,0-8.89,0-13.33Z"/><path class="cls-2" d="M922.59,845.84c-5.33,0-9.11,0-12.89,0-1.2,0-3,.3-3-1.61,0-1.61,1.47-2.21,2.78-2.31q12.63-1,25.27-1.78c1.57-.1,3.34,0,3.38,2.2,0,1.94-1.45,2.72-3.08,2.84C930.37,845.48,925.71,845.67,922.59,845.84Z"/><path class="cls-2" d="M1521.29,897.39c-4,0-8,.07-12.07,0-1.71,0-3.08-.74-2.83-2.86.21-1.79,1.5-2,2.93-2,8.27,0,16.55,0,24.83.09,1.37,0,2.93.2,3,1.89.14,2-1.62,2.65-3.17,2.71-4.24.15-8.49,0-12.73,0Z"/><path class="cls-2" d="M1479.06,892.6c4,0,8-.06,12,0,1.41,0,3.34-.41,3.43,2a2.48,2.48,0,0,1-2.44,2.66c-8.85.46-17.71.91-26.55-.21-1.51-.2-2.41-1.06-2.12-2.72s1.67-1.81,3-1.8h12.65Z"/><path class="cls-2" d="M1393.14,892.62c4,0,8,0,12,0,1.35,0,2.87.12,3.19,1.73s-.91,2.55-2.28,2.7a140.91,140.91,0,0,1-26.54.15c-1.55-.12-2.25-1.25-2-2.84.29-1.78,1.64-1.82,3-1.82h12.64Z"/><path class="cls-2" d="M1350.67,892.59c3.78,0,7.55-.07,11.32,0,1.39,0,3.4-.53,3.58,1.85a2.72,2.72,0,0,1-2.94,2.95c-8.42.06-16.84-.06-25.26-.23-1.56,0-3.23-.51-2.93-2.72s2.06-1.92,3.58-1.93c4.22,0,8.44,0,12.65,0Z"/><path class="cls-2" d="M583.28,892.63h12c1.73,0,3.24.44,3.07,2.53-.13,1.56-1.44,2.18-2.87,2.2-8.23.08-16.46.16-24.7.12-1.55,0-3.34-.51-3.39-2.5-.06-2.67,2.14-2.35,3.85-2.38,4-.05,8,0,12,0Z"/><path class="cls-2" d="M540.47,892.64h12.66c1.45,0,2.79.38,3,2,.25,2.1-1.31,2.65-3,2.68-8.22.11-16.43.21-24.65.17-1.73,0-3.74-.36-3.55-2.9.18-2.31,2.09-1.93,3.54-2,4-.08,8,0,12,0Z"/><path class="cls-2" d="M496.93,892.61H509c1.44,0,2.69.29,2.89,2,.25,2.16-1.18,2.73-2.9,2.74-8.26.08-16.52.15-24.77.08-1.45,0-3.38-.18-3.33-2.41s1.68-2.38,3.32-2.39C488.44,892.6,492.68,892.62,496.93,892.61Z"/><path class="cls-2" d="M453.71,897.49c-4,0-8,.08-11.95,0-1.57-.05-3.26-.58-3.27-2.59s1.67-2.26,3.29-2.26q12.3,0,24.6.07c1.62,0,3.32.29,3.33,2.33s-1.87,2.31-3.37,2.35c-4.21.12-8.42,0-12.63,0Z"/><path class="cls-2" d="M411.2,892.63h12.65c1.63,0,3.29.14,3.34,2.28s-1.74,2.36-3.28,2.39c-8,.13-16,.24-24,.19-1.61,0-3.83,0-3.88-2.57-.06-2.82,2.2-2.28,3.82-2.32,3.77-.1,7.55,0,11.33,0Z"/><path class="cls-2" d="M1436.84,892.61c4,0,8,0,12.06,0,1.31,0,2.75-.09,2.84,1.9a2.31,2.31,0,0,1-2.39,2.61c-8.9.7-17.81,1-26.7-.17-1.28-.17-2-.81-2-2.17.08-1.78,1.34-2.14,2.75-2.16C1427.9,892.6,1432.37,892.62,1436.84,892.61Z"/><path class="cls-2" d="M1588.74,512.61c0,4,0,8,0,12,0,1.78-.59,3.26-2.3,3.5-2.4.33-2.2-1.81-2.2-3.23,0-8.26,0-16.51.15-24.76,0-1.65.52-3.38,2.52-3.25s1.91,2.24,2,3.65c.15,4,0,8,0,12.05Z"/><path class="cls-2" d="M330.7,832c.28-6.15.54-12.31.87-18.46.06-1.21-.31-2.83,1.64-3s2.59,1.16,2.71,2.91c.18,2.62.44,5.24.66,7.86-.18,5.54-.3,11.08-.58,16.61-.07,1.41.27,3.46-1.91,3.65-2.62.24-2.49-1.93-2.7-3.66Z"/><path class="cls-2" d="M1589.25,652.26c-1,1.51.27,4.71-2.71,4.57-3.93-.18-1.4-4-2.73-5.78.18-6.91.33-13.82.55-20.73.07-1.93-.24-4.62,2.63-4.47,2.39.13,1.88,2.71,1.93,4.33C1589.12,637.54,1589.16,644.9,1589.25,652.26Z"/><path class="cls-2" d="M1583.9,598.46c.13-4.18.22-8.36.4-12.54.07-1.51,0-3.42,2-3.6,2.72-.24,2.33,2.09,2.45,3.71.25,3.74.34,7.49.5,11.23-.22,4.46-.42,8.92-.67,13.38-.07,1.32,0,2.94-1.84,3-2.09.1-2.4-1.49-2.45-3.19C1584.23,606.48,1584.05,602.47,1583.9,598.46Z"/><path class="cls-2" d="M336.64,537c-1.21,1.34.1,4.87-2.89,4.37-4.12-.69-1.41-5-3-7.16.3-6.86.54-13.71.93-20.56.08-1.32-.88-3.52,1.51-3.65s2.62,2,2.69,3.77C336.15,521.5,336.38,529.25,336.64,537Z"/><path class="cls-2" d="M1588.7,469.41c0,4.22,0,8.44,0,12.66,0,1.42-.37,2.77-2.1,2.79s-2.19-1.22-2.2-2.7c0-8.66-.06-17.32,0-26,0-1.4.66-2.84,2.22-2.86,2.18,0,2.16,1.91,2.19,3.42.07,4.22,0,8.44,0,12.66Z"/><path class="cls-2" d="M1018.55,263.07c-4.25,0-8.5,0-12.75,0-1.37,0-2.76-.15-2.76-2,0-1.74,1.17-2.34,2.63-2.35q13.08-.07,26.17,0c1.44,0,2.63.67,2.42,2.44s-1.56,1.95-3,2C1027.06,263.08,1022.81,263.07,1018.55,263.07Z"/><path class="cls-2" d="M1584.17,714.07c.43-1.41.71-3.31,2.53-3.19,2.82.18,1.56,3,2.43,4.53-.13,7.8-.24,15.61-.42,23.41,0,1.46.36,3.46-1.85,3.68-2.74.27-2.5-2-2.52-3.68C1584.23,730.57,1584.22,722.32,1584.17,714.07Z"/><path class="cls-2" d="M1584.31,555.4c0-4-.07-8,0-12,0-1.71,0-3.91,2.54-3.82,2.29.07,1.93,2.18,1.95,3.58.09,8,.08,16,0,24,0,1.68.26,4-2.44,3.77-2.48-.22-2.12-2.46-2.14-4.18,0-3.78,0-7.56,0-11.33Z"/><path class="cls-2" d="M1588.83,683.56c0,4.44,0,8.87,0,13.31,0,1.33-.14,2.86-1.9,3-2,.14-2.59-1.29-2.59-3,0-8.43,0-16.86.08-25.29,0-1.56.46-3.27,2.63-3,1.77.21,1.75,1.83,1.78,3.09C1588.9,675.58,1588.84,679.57,1588.83,683.56Z"/><path class="cls-2" d="M331.55,567.32c0-3.79-.06-7.59,0-11.38,0-1.43-.41-3.45,2.09-3.29,1.65.11,2.2,1.42,2.21,2.84.05,8.49.08,17,0,25.45,0,1.25-.07,2.82-1.94,2.9-2.18.09-2.52-1.5-2.54-3.13-.05-4.46,0-8.93,0-13.39Z"/><path class="cls-2" d="M331.55,739c0-3.78,0-7.56,0-11.34,0-1.47-.37-3.47,1.88-3.57,2-.09,2.51,1.5,2.51,3.19,0,8.23,0,16.47-.08,24.7,0,1.47,0,3.46-2.12,3.56-2.72.13-2.36-2.26-2.41-3.86-.15-4.22-.05-8.45-.05-12.68Z"/><path class="cls-2" d="M331.55,609.86c0-3.78,0-7.57,0-11.35,0-1.55-.13-3.4,2.14-3.32,1.55,0,2.24,1.31,2.24,2.8,0,8.68-.06,17.36-.17,26,0,1.37-.5,2.75-2.27,2.7s-2-1.56-2.06-2.85c-.09-4.67,0-9.34,0-14Z"/><path class="cls-2" d="M335.93,697.38c0,4.23,0,8.45,0,12.68,0,1.3-.24,2.77-2.14,2.7a2.12,2.12,0,0,1-2.18-2.06c-.93-9.12-.13-18.24.09-27.35,0-1.36.92-1.86,2.23-1.62,1.7.29,2,1.61,2,3C336,688.92,335.94,693.15,335.93,697.38Z"/><path class="cls-2" d="M331.59,782.88c0-4-.06-8,0-12,0-1.14-.6-2.89,1.35-3.17a2.31,2.31,0,0,1,2.65,2.36,178.1,178.1,0,0,1,.11,27.33,1.8,1.8,0,0,1-2.19,1.85,2.79,2.79,0,0,1-2.12-3c-.05-4.45,0-8.9,0-13.35Z"/><path class="cls-2" d="M331.58,654.05c0-4-.06-8,.05-12,0-1.15-.62-2.89,1.31-3.21a2.27,2.27,0,0,1,2.67,2.31,175.6,175.6,0,0,1,.13,27.33c-.09,1.2-.86,2.14-2.16,1.9a2.73,2.73,0,0,1-2.15-3c-.05-4.45,0-8.9,0-13.35Z"/></g></g></svg>