<svg xmlns="http://www.w3.org/2000/svg" viewBox="0 0 1920 1080"><defs><style>.cls-1{fill:#f2f2f2;}.cls-2{fill:#010101;}</style></defs><g id="Capa_2" data-name="Capa 2"><g id="Capa_1-2" data-name="Capa 1"><rect class="cls-1" width="1" height="1"/><rect class="cls-1" x="1919" y="1079" width="1" height="1"/><rect class="cls-1" y="1079" width="1" height="1"/><rect class="cls-1" x="1919" width="1" height="1"/></g><g id="Capa_3" data-name="Capa 3"><path class="cls-2" d="M1547.72,665.43q-.87-23.74,0-47.53,0-29.53,0-59.09c-.1-20.72-.27-41.43-.28-62.15,0,0,.35-154.85.35-175.41s-3-29-3-29c-3.93-3-4.76-6.35-6.72-8.92-5.65-7.45-13.24-12.39-21.17-17-21.69-12.5-43.31-25.12-65.07-37.48-9-5.1-16.78-11.25-23-19.56-14-18.76-31.59-32.63-54.21-39.59-13.91-5.43-40.92-5.37-40.92-5.37-33.76-.39-61.64,10.49-83.61,36-23.2,27-52.74,38.52-88,38.17-50-.48-99.94-.18-149.91.05-5.33,0-7.12-1.5-6.25-6.55s-1.59-6.41-6.31-6.32l-79.2-.09c-5-.1-7.41,1.39-6.49,6.64.77,4.39-.6,6.2-5.54,6.19-52.25-.19-104.5-.1-156.76-.18a113.33,113.33,0,0,1-25.27-2.79c-23.09-5.26-41.57-17.91-57-35.46a110.69,110.69,0,0,0-29.61-24.33C621,165.4,600.75,164.21,580,164.38c-35.69.33-64.78,13.77-86.58,42.12a90.89,90.89,0,0,1-28.09,24c-22.9,12.9-45.56,26.24-68.29,39.44a49.78,49.78,0,0,0-17.38,16.57c-5.24,6.86-7.07,18.56-7.07,18.56v19.45q0,106.34,0,212.69c0,6.83-.19,13.67-.29,20.5.1,32.74.25,65.49.28,98.23q.06,80.22,0,160.44a49.08,49.08,0,0,0,2.37,15.84c5.39,10,13.5,16.22,24.71,19,12.82,3.2,25.36,7.48,38.14,10.82,4.93,1.28,5.36,3.26,4.12,7.8-5.56,20.53-10.64,41.21-16.11,61.77-1,4-.1,5.46,3.89,6.48q36.62,9.27,73.09,19.13c4.84,1.32,6.53-.09,7.68-4.6,5.36-21.26,11.14-42.39,16.36-63.67,1-4.12,2.46-4.17,5.85-3.26,16.74,4.54,33.71,8.3,50.27,13.43,21.11,6.54,42,9.08,63.13.77,3.88-1.53,4.94.43,5.05,3.56.14,3.88,1.94,5.29,5.58,4.35q33.57-8.75,67.12-17.55c2.42-.64,4.4-1.95,3.19-4.82-2.22-5.28.92-6.2,5-7,35.75-7,71.57-13.32,107.87-16.89,38-3.74,76-5.17,114.18-5.73h13c21.76.41,43.5,1.21,65.25,2.13,53.09,2.28,105.36,10.43,157.38,20.82,3.33.68,5,1.82,3.57,5.3-1.57,3.89.14,5.6,3.85,6.56q32.37,8.31,64.71,16.85c4.45,1.19,6.77.2,7-4.65.14-2.67,1.14-3.89,4.39-3.19,24,5.09,35.85,5.33,41.19,4.92s20.58-5.09,20.58-5.09c61.19-16,122.35-32.07,183.6-47.85,10.78-2.77,19.43-7.89,25.44-17.29,3.25-6.87,3.49-14.2,3.48-21.62,0-13.75.18-27.49.3-41.25q-.83-23.1-.07-46.22Q1547.7,695.34,1547.72,665.43ZM516.86,908.17q-5.47,20.33-10.77,40.74c-.6,2.29-1.11,4.1-4.62,2.74-19.17-5-39-10.07-58.72-15.41-4.07-1.11-10.09-.21-11.71-3.73-1.33-2.89,1.6-7.72,2.66-11.71,2.83-10.78,5.93-21.5,8.37-32.38.94-4.16,2.47-4.22,5.94-3.25q32.79,9.14,65.7,17.81C517,903.83,517.67,905.17,516.86,908.17Zm2.91-11c-.64,3-2.62,1.79-4.36,1.33q-33.51-9-67-18c-1.69-.46-3.91-.85-3.52-3.47.34-2.23,2.07-1.41,3.1-1.36,16.67,4.36,33,8.63,49.39,12.92,6.37,1.67,12.76,3.34,19.12,5.07C518.2,894.12,520.34,894.46,519.77,897.15Zm5.34-34.4a1.69,1.69,0,0,0-.64,2.64c5.17,8.17-2,15-2.57,22.5-.18,2.25-2.65,1.4-4.16,1C495.36,883,473,877,450.58,871.29c-3.48-.89-3.61-2.16-2.64-5.14a139.15,139.15,0,0,0,4.11-15.56c.68-3.41,1.95-3.93,5.09-2.83a143.94,143.94,0,0,0,14.24,4.14c1.41.35,3.65,1.06,4.34-1,.89-2.58-1.54-3.1-3.22-3.57-4.17-1.19-8.42-2.11-12.62-3.14-1.21-.3-2.9-.2-3.53-1-4.09-5.07,1.47-9.26,1.56-14,0-2.13.8-4,3.88-3.15,22.54,6,45.11,11.86,67.66,17.79,2,.52,3.5,1.52,2.87,4.12C529.67,852.69,532.73,860.21,525.11,862.75Zm6.61-24.14c.12,1.25-2.07.3-3.16,0-21.8-5.71-43.59-11.46-65.4-17.08-2.85-.75-3.37-1.72-2.56-4.72,7-25.75,13.72-51.54,20.45-77.34.85-3.23,1.58-4.88,5.8-3.67,16.66,4.77,33.47,9,50.21,13.45,5.38,1.39,10.73,2.9,16.13,4.13,2.64.61,4.06,1.24,3,4.48-2.13,6.45-3.83,13-5.72,19.56q-6.29,24.88-12.55,49.78C536.84,831.49,531.22,833.24,531.72,838.61Zm9.42-4c6.49-25.21,13.11-50.39,19.62-75.6,2.06-8,1.8-8.16-6-10.15-23.2-6-46.43-11.89-69.57-18.1-5.23-1.41-7.32,0-8.61,5.2-6.32,25.49-13,50.88-19.5,76.32-.44,1.68-.37,3.69-2.83,4.73-2.28-3.13-1.08-6.4-.3-9.41q9-35.12,18.33-70.15c2.92-11.06,5-12.12,15.71-9.3,22.33,5.85,44.74,11.41,67.05,17.4,11,3,13.18,3.44,10.21,16-5.74,24.31-12.63,48.36-19,72.52-.16.59-.41,1.17-.63,1.75-.83,2.18-2,5-4.5,4.11S540.68,836.32,541.14,834.58ZM642.63,891.1c-21.48,8-41.84,3-62.48-2.93-14.07-4-28.34-7.42-42.52-11.11a48.75,48.75,0,0,1-4.75-1.39c-1.94-.72-2.13-2.2-1.62-4s1.32-2.88,3.49-2.39c4.4,1,8.83,2,13.29,2.7,1.38.22,3.64,1.22,4.17-1.16s-1.63-3.12-3.4-3.57c-3.79-1-7.62-1.88-11.49-2.47-3.26-.49-2.94-1.56-2.33-4.51,1.71-8.31,3.88-15.62,12.93-19.14,3.22-1.27,3-6.07,4.74-9.09,4.38-20,9.77-39.83,15.49-59.54,1-4.4,2.06-8.78,3-13.17,1.74-8.09-1.22-13.89-9.09-16.47-6.82-2.24-13.84-4-20.85-5.57-3.44-.78-4.56-2.35-4.45-5.87.22-6.38-.14-12.76-.27-19.14-4-1.44-4,1.56-4.12,4a113,113,0,0,0,0,13c.39,4.93-1.4,5.41-5.71,4.17-12.46-3.57-25-6.84-37.58-10.07-13.35-3.42-17.94-.71-21.69,12.63-2.71,9.71-5.29,19.45-7.93,29.18-3.61,14.26-7.38,28.51-10.72,42.83-1.17,5-1.4,10.32,3.44,14.21,1.94,1.57,1.3,3.65.73,5.7-2.05,7.54-4.09,15.1-6,22.68-.72,2.85-1.56,4-5,3-14.37-4.47-28.87-8.42-43.25-12.83-4.1-1.26-8.15-3-10.57-7-4.31-3.91-5.53-9.06-5.74-14.56-.24-6.4-.6-12.81.22-19.21q-.09-56.26-.17-112.52c-.05-123.09.09-246.19-.31-369.29-.06-19.83,7.74-33.25,25-42.71,24.31-13.33,48-27.72,72.08-41.54,8.86-5.09,15.36-12.51,21.34-20.52,14.88-20,34.44-33.19,59-37,25.72-4,51.61-4.83,75.72,8.35,11.28,6.16,20.45,14.74,28.87,24.21,18.59,20.91,41.49,33.79,69.23,38,6.2.95,12.4.85,18.6.85q78.35.09,156.71-.05c4.4,0,5.45,1.16,5.51,5.48.23,14.58-.94,28.56-11,40.32-3,3.55-6.21,5.67-11.09,5.47a148.38,148.38,0,0,0-14.9.53c-1.53.09-3.81-.33-3.92,2-.14,2.51,2.17,2.55,4,2.89,3,.56,6.11-1.17,9.13.08.41,2.21-1.16,2.41-2.5,2.77a79.64,79.64,0,0,1-21.53,2.45c-13-.12-26.1-.15-39.15-.21H809.3c4.69-2.34,9.41-.47,13.52-2.69.43-3.75-1.93-4-4.7-3.82-6.21.33-12.42.56-18.63.92-2.9.17-6.19-.65-6.55,4.28-.19,2.4-8.34,2.11-10.57-.73-1.21-1.53-2-2.17-4-1.82-35,6.37-70.28,3.56-105.46,3.83-54.73.43-109.46.1-164.2.07-9.15,0-18.2.37-26.83,4-20.49,8.64-31.45,24.13-33.2,46.19a114.35,114.35,0,0,0-.18,12.42c.09,2.89-.13,5.28-3.33,6.52-1.27.48-2.73,1.55-2.34,3.26s2,1.07,3.12,1c2.44-.19,2.7,1.23,2.61,3.09,0,1,0,2.08,0,3.11q0,125-.16,250a66.86,66.86,0,0,0,10.43,36.36c12.54,16.81,31.52,21.18,50.25,26.12,9.31,2.47,18.56,5.18,27.83,7.78,16.46,4.52,33.1,8.47,49.32,13.73,14.25,4.62,23.5,15,27.68,29.48,1.89,6.51,3.14,13.22,4.68,19.84,5,19.89,10.42,39.7,14.35,59.85,4.67,13,6.63,26.78,10.57,40,1.22,4-4.32,4.69-4,7.6.36,3.86,5.81-.74,6.68,3.17C646.94,886.37,648.42,888.93,642.63,891.1ZM955.9,834.8c4.12,2.35,3,6.34,2.16,9.4-.93,3.41-4.63,1.68-7,1.72-51.79.74-103.44,3.33-154.72,11.11q-33.72,5.13-67.09,12.23c-2.2.46-5,1.83-5.76-2.25-.7-3.56.24-5.35,4-5.85,4.91-.64,9.78-1.62,14.64-2.5,1.74-.31,4.2,0,3.81-2.85-.43-3.14-3-2.28-4.9-2-5.29.86-10.55,1.89-15.81,2.92-3.13.63-4.13-.17-3.21-3.51,2.11-7.68,6.71-12.61,14.6-14.35q29.05-6.46,58.55-10.36c5.11-.67,10.24-1.27,15.37-1.9l2.64-.35,13.65-1.42c17-2.71,34.13-3.42,51.24-4.54,21.46-1.41,43-2.41,64.46-2a58.65,58.65,0,0,1,8-.26c2.61.28,6.91-2,7.47,1.76s3,8.61-2.13,11.66C954.19,832.54,954.12,833.81,955.9,834.8Zm238.44,22.45c-1.26-.09-2.58.41-2.74,1.91a2.42,2.42,0,0,0,2.15,2.63c3.92.74,2.85,3.69,2.4,5.86-.72,3.51-3.71,2-5.59,1.58a986.56,986.56,0,0,0-111.5-17.77c-37.14-3.67-74.41-5.16-111.72-5.33-5,0-6.44-1.38-6.1-6.21.24-3.31.57-4.89,4.52-4.46a94.49,94.49,0,0,0,13.67,0c1.71-.07,4.23.22,4.3-2.38.1-3-2.52-2.1-4.17-2.15a117.59,117.59,0,0,0-13.67.1c-5,.48-4.91-2.62-4.5-5.79.37-2.93-2.23-7.46,4.21-7.39,23.82.28,47.64.76,71.42,2.23,22.88,1.46,45.76,2.87,68.49,6.09a735.54,735.54,0,0,1,77,12.6c7.42,1.65,12.74,5.73,14.9,13.29C1198.22,854.82,1198.89,857.57,1194.34,857.25Zm70.33,42.59c-1,4.51-3.77,2.24-5.67,1.75-16-4-32-8.3-47.91-12.47-13.43-3.51-13.44-3.5-10.56-17.5,1.77-8.59,1.74-8.39,10.62-6.59,2.78.56,7.42,4,8.43-.42,1.07-4.67-4.5-3.38-7.31-3.89-5.77-1.05-10-2-10.29-9.91s-6.7-12.84-13.91-15.94c-25-5.48-50.22-10-75.66-13.17-24-3-48.15-5-72.31-6.56-1-.07-2-.3-3.06-.47q-36.3-.79-72.59-1.63c-1.57,0-3.45.24-3.85-2.09-1.76,2.38-4.38,1.92-6.78,1.94-35.17.24-70.3,1.44-105.35,4.47-38.69,3.35-77.12,8.43-115,17.13-14.88,6.64-18.65,14.32-15.25,30.58,1.17,5.65,1.83,11.4,3,17,.64,3-.47,4-3.14,4.71q-29.07,7.39-58.07,15c-2.84.75-4.48.84-5-2.87a131.57,131.57,0,0,0-3.66-15.65c-.9-3.19,0-4.51,3.21-5.09a93.12,93.12,0,0,0,10.78-2.77c1.49-.47,3.49-1.3,3-3.33-.49-2.23-2.73-1.63-4.16-1.36a72.22,72.22,0,0,0-11.37,2.86c-3.09,1.14-4,0-4.58-2.7-3-12.85-6-25.67-9-38.5q-7.38-29.85-14.75-59.7c-2.2-8.15-4.05-16.42-6.64-24.45-5-15.65-15.69-26-31.43-30.67-15.23-4.48-30.6-8.43-45.89-12.7-2.8-.78-5.55-.29-4.18-6,1.86-7.82.51-16.42.47-24.7,0-1.47-1.25-2-2.4-2.49-2.46,1.43-2.09,3.83-2,6.07.15,7.22-.84,14.48.54,21.65.51,2.65-.68,3.84-2.93,2.94-14.39-5.7-29.9-7.74-44.28-13.37-11.51-4.51-20.49-12.15-25.88-23.57-4.29-6.33-5.72-13.61-6.07-21-.43-9.23,0-18.5,0-27.77,0-.66,0-1.33,0-2v-1.65c0-2.85,0-5.72,0-8.58v-3.69q0-21.15,0-42.34-.12-55.62-.23-111.28c0-20.1.11-40.21-.13-60.31-.07-4.58.63-7.44,5.83-8.13,3-.41,5.84-2,8.73-3.08,1.51-.57,3.66-1.22,2.93-3.18s-2.85-1.2-4.42-.79c-3.2.85-6.36,1.82-9.54,2.75-2.14.64-3.35.54-3.53-2.34-2.1-30.59,14.13-51.49,39-56.75,4.32-.92,8.66-.8,13-.81q102.6-.15,205.23-.21c1.42,0,3.92-.43,3.9.84-.08,7.46,4.79,3.95,7.57,3.29,27-6.55,54.45-3.37,81.7-3.94,20.94-.42,41.88.08,62.82-.07,31-.24,52.17-21.51,52.38-52.44.07-9.11.07-18.23-.08-27.36-.07-3.12.77-4.33,4.2-4.24l73.28,0c3.5-.09,4.66.72,4.57,4.39-.24,9.74,0,19.49,0,29.22,0,11.08,3,21.19,9.86,30,.78,1,2.61,2,1.63,3.61-.9,1.48-2.67.66-4,.74-2.26.12-4.55,0-6.83.05-1.41,0-3.06-.14-3.09,2s1.81,2.21,3.09,2.13c12-.79,22.47,3.58,32.91,8.91,5.27,2.69,11.56,3,17.61,3,35.24,0,70.48.16,105.73-.09,11.7-.09,23.39,2,35.1.17,2.43-.38,5.07-.36,5.93,3,.35,1.37,1.87,1.51,3.06,1.75q9.73,1.88,19.48,3.68c1.91.35,4.13.5,4.59-1.84.53-2.7-2-2.37-3.68-3-3.57-1.24-7.75-.31-10.9-3.74h11.92c63.64,0,127.3.13,190.94,0,22.59-.05,39,9.31,48.31,30.1a41,41,0,0,1,3.72,16.84q.06,98,0,195.87a8.62,8.62,0,0,1-.18,1.24v59.74c.07,13,1.58,26.11-2.36,38.85-.91,2.94-1.59,6-3.79,8.39a43.9,43.9,0,0,1-27.08,23.93c-15.1,4.88-30.45,9-46.21,13.6,1.43-8.92.83-17.51.86-26.07,0-2,.17-4.86-2.67-4.7-2.29.13-2.05,2.82-1.9,4.59.65,8.14-1.63,16.39,1.26,24.48,1.18,3.29-2.31,2.82-3.91,3.26Q1361,710,1341.47,715.13c-9.26,2.44-18.14,5.64-25.76,11.64-10.5,9.53-15,22-17.57,35.48-.58,3-1.62,6-2.46,9q-7.52,30.62-15.06,61.22C1275.28,854.9,1269.86,877.34,1264.67,899.84Zm273.06-455q-.07,123.73-.17,247.47c0,1.44-.18,2.88-.26,4.31v2.48c.33,26.95.83,53.92,0,80.87a7.38,7.38,0,0,1,0,5q0,12.44,0,24.88c.36,6.83,1.36,13.72-2.76,19.92a22.79,22.79,0,0,1-14.4,11.16c-67.39,17.55-134.83,34.93-202.13,52.87-15,4-28.63.09-42.65-3.36-3.16-.77-2.61-3-2.2-5.41.5-2.91,1.82-3.88,4.67-3.05,5.35,1.56,10.6,3.52,16.21,4,1.38.12,3.24.82,3.62-1.16.28-1.58-1.23-2.54-2.68-3-5.31-1.64-10.62-3.37-16-4.74-2.62-.68-3.42-1.87-2.76-4.37q5.37-20.33,10.7-40.64c4.08-20,9.27-39.78,14.37-59.57,1.69-7.19,2.89-14.55,5.18-21.56,5.37-16.46,16.69-26.5,33.87-29.66,21.35-6.93,43.1-12.43,64.71-18.38,6.38-1.75,12.71-3.62,19.14-5.13,19.69-4.6,34.35-15.55,43.22-33.91,6-15.45,3.45-31.63,4.05-47.54.12-3.09.16-6.16.23-9.24,0-2.51,0-5,0-7.53v-3.67q0-5,0-10v-4.92c0-1.68,0-3.36,0-5V562.21q-.13-49.44-.26-98.85c0-25.08.15-50.16-.16-75.24-.06-5.58,1.7-5.74,6-4.15,4.83,1.8,9.86,3,14.76,4.63,1.46.46,3.08,1.06,3.82-.57,1-2.25-1.19-2.82-2.57-3.36-5.58-2.17-11.08-4.85-16.89-6-4.83-1-5.3-3.22-5.1-7.21.6-11.69-.22-23.13-6.07-33.75-9.48-17.19-24.11-26.54-43.43-27.87-12.6-.87-25.28-.46-37.92-.46q-96.09,0-192.17.19c-12.84,0-25.66-.71-38.46-.94-9.39-.16-18.88-3.88-28.66-4-2.51,0-5.6-1.16-5.49,3.36,0,1.66-1.6,1.57-2.82,1.58-6,0-12,0-18.86,0,2.39-2.91,4.69-1.65,6.61-1.94,1.4-.2,3.11.21,3.26-1.89a2.42,2.42,0,0,0-2.53-2.86q-11.81-.53-23.6-1c-1.35-.05-2.63.43-2.39,2.06a2.92,2.92,0,0,0,3,2.55c4,.35,7.92.81,12.09,1.25-.46.88-.61,1.44-.77,1.46-15.54.51-31.09,1-46.58-.3-20.93-1.77-40.3-21.73-40.59-43.72-.24-17.59-.68-17.54,17-17.53,48.71,0,97.44-.05,146.15.1,34.84.1,63.56-13.27,86.66-39,13-14.41,27.33-27.27,46.72-31.24,40.86-8.36,80.85-6.23,109.62,28,17.35,20.62,38.43,34,60.8,46.86,13.27,7.64,26.25,15.83,39.82,22.9,17.51,9.12,25.49,22.9,25.28,42.61C1537.48,360.25,1537.76,402.52,1537.73,444.81Z"/><path class="cls-1" d="M1466.14,618.24V558.5a8.62,8.62,0,0,0,.18-1.24q0-97.92,0-195.87a41,41,0,0,0-3.72-16.84c-9.35-20.79-25.72-30.15-48.31-30.1-63.64.14-127.3,0-190.94,0h-11.92c3.15,3.43,7.33,2.5,10.9,3.74,1.73.6,4.21.27,3.68,3-.46,2.34-2.68,2.19-4.59,1.84q-9.73-1.81-19.48-3.68c-1.19-.24-2.71-.38-3.06-1.75-.86-3.36-3.5-3.38-5.93-3-11.71,1.87-23.4-.26-35.1-.17-35.25.25-70.49.07-105.73.09-6,0-12.34-.29-17.61-3-10.44-5.33-20.9-9.7-32.91-8.91-1.28.08-3.1.05-3.09-2.13s1.68-2,3.09-2c2.28-.07,4.57.07,6.83-.05,1.37-.08,3.14.74,4-.74,1-1.64-.85-2.6-1.63-3.61-6.9-8.85-9.84-19-9.86-30,0-9.73-.23-19.48,0-29.22.09-3.67-1.07-4.48-4.57-4.39l-73.28,0c-3.43-.09-4.27,1.12-4.2,4.24.15,9.13.15,18.25.08,27.36-.21,30.93-21.4,52.2-52.38,52.44-20.94.15-41.88-.35-62.82.07-27.25.57-54.71-2.61-81.7,3.94-2.78.66-7.65,4.17-7.57-3.29,0-1.27-2.48-.84-3.9-.84q-102.61.09-205.23.21c-4.34,0-8.68-.11-13,.81-24.87,5.26-41.1,26.16-39,56.75.18,2.88,1.39,3,3.53,2.34,3.18-.93,6.34-1.9,9.54-2.75,1.57-.41,3.74-1.06,4.42.79s-1.42,2.61-2.93,3.18c-2.89,1.11-5.74,2.67-8.73,3.08-5.2.69-5.9,3.55-5.83,8.13.24,20.1.11,40.21.13,60.31q.09,55.65.23,111.28,0,21.18,0,42.34v3.69c0,2.86,0,5.73,0,8.58v1.65c0,.66,0,1.33,0,2,0,9.27-.44,18.54,0,27.77.35,7.37,1.78,14.65,6.07,21,5.39,11.42,14.37,19.06,25.88,23.57,14.38,5.63,29.89,7.67,44.28,13.37,2.25.9,3.44-.29,2.93-2.94-1.38-7.17-.39-14.43-.54-21.65,0-2.24-.41-4.64,2-6.07,1.15.48,2.4,1,2.4,2.49,0,8.28,1.39,16.88-.47,24.7-1.37,5.67,1.38,5.18,4.18,6,15.29,4.27,30.66,8.22,45.89,12.7,15.74,4.65,26.39,15,31.43,30.67,2.59,8,4.44,16.3,6.64,24.45q7.37,29.85,14.75,59.7c3,12.83,6.07,25.65,9,38.5.63,2.73,1.49,3.84,4.58,2.7a72.22,72.22,0,0,1,11.37-2.86c1.43-.27,3.67-.87,4.16,1.36.46,2-1.54,2.86-3,3.33a93.12,93.12,0,0,1-10.78,2.77c-3.16.58-4.11,1.9-3.21,5.09A131.57,131.57,0,0,1,655,899c.56,3.71,2.2,3.62,5,2.87q29-7.62,58.07-15c2.67-.69,3.78-1.72,3.14-4.71-1.2-5.64-1.86-11.39-3-17-3.4-16.26.37-23.94,15.25-30.58,37.89-8.7,76.32-13.78,115-17.13,35-3,70.18-4.23,105.35-4.47,2.4,0,5,.44,6.78-1.94.4,2.33,2.28,2.06,3.85,2.09q36.3.87,72.59,1.63c1,.17,2,.4,3.06.47,24.16,1.6,48.27,3.59,72.31,6.56,25.44,3.15,50.63,7.69,75.66,13.17,7.21,3.1,13.57,8.08,13.91,15.94s4.52,8.86,10.29,9.91c2.81.51,8.38-.78,7.31,3.89-1,4.38-5.65,1-8.43.42-8.88-1.8-8.85-2-10.62,6.59-2.88,14-2.87,14,10.56,17.5,16,4.17,31.91,8.43,47.91,12.47,1.9.49,4.64,2.76,5.67-1.75,5.19-22.5,10.61-44.94,15.95-67.41q7.53-30.61,15.06-61.22c.84-3,1.88-5.93,2.46-9,2.55-13.48,7.07-26,17.57-35.48,7.62-6,16.5-9.2,25.76-11.64q19.48-5.11,38.87-10.56c1.6-.44,5.09,0,3.91-3.26-2.89-8.09-.61-16.34-1.26-24.48-.15-1.77-.39-4.46,1.9-4.59,2.84-.16,2.68,2.72,2.67,4.7,0,8.56.57,17.15-.86,26.07,15.76-4.6,31.11-8.72,46.21-13.6A43.9,43.9,0,0,0,1460,665.48c2.2-2.37,2.88-5.45,3.79-8.39C1467.72,644.35,1466.21,631.25,1466.14,618.24ZM506.66,364c-6.83,2.23-13.68,4.42-20.58,6.44-1.68.48-4.11,1-4.83-1.3-.81-2.53,1.73-2.95,3.35-3.46,6.87-2.15,13.76-4.24,20.7-6.09,1.36-.36,3.85-1.5,4.17,1C509.55,363.21,507.94,363.61,506.66,364Zm30.2,293.7c0,1.84.23,3.87-2.45,4.17-.76-.2-1.51-.39-2.27-.57.07-8,.08-16.08.24-24.1,0-1.69-.4-4.19,2.41-4.13s2.08,2.61,2.1,4.24C537,644.13,536.9,650.93,536.86,657.73Zm0-37c-1.51,1.09-3,.57-4.35-.27-.05-7.86-.14-15.73-.16-23.6,0-1.8-.23-4.33,2.2-4.42,3.24-.14,2.34,2.83,2.35,4.67C537,605,536.85,612.82,536.82,620.71Zm.07-42.33c0,1.52.47,3.62-2.11,3.66-2.39,0-2.45-1.92-2.49-3.54-.17-6.41-.23-12.82-.33-19.23.89-7.08.89-7.08,5.09-4.51C537,562.63,537,570.51,536.89,578.38Zm0-38.82c0,1.25-.09,2.62-1.77,2.77a2.37,2.37,0,0,1-2.74-2.63c0-7.86,0-15.71.12-23.55,0-1.29.53-2.42,2.17-2.44,2.06,0,2.27,1.39,2.28,2.91,0,3.72,0,7.44,0,11.17h-.06C536.85,531.71,536.87,535.64,536.84,539.56Zm0-79.81c0,1.43.08,3-2.07,3.05-2,0-2.44-1.46-2.44-2.92,0-7.87,0-15.74.07-23.61,0-1.59.66-3,2.49-2.85s2,1.84,2,3.34c0,3.73,0,7.45,0,11.19h0C536.87,451.88,536.9,455.82,536.86,459.75Zm0-51h0c0,3.51,0,7,0,10.55,0,1.55.36,3.58-2.21,3.57-2,0-2.34-1.59-2.34-3,0-7.65,0-15.3.11-22.95,0-1.57.68-2.83,2.63-2.63,1.67.18,1.84,1.46,1.86,2.72C536.92,400.93,536.9,404.85,536.9,408.78Zm-4.59,67.5c0-1.68.33-3.57,2.61-3.42,1.93.14,1.93,1.9,2,3.34,0,3.73,0,7.45,0,11.19s0,7.45,0,11.18c0,1.47.07,3.22-1.84,3.33s-2.88-1.3-2.87-3.25C532.23,491.2,532.22,483.74,532.31,476.28Zm12.81-122.62c-9.19.41-8.4,6.83-8.17,13.1.14,4.13,0,8.26-.06,12.41,0,1.45.11,3.22-1.82,3.32s-2.88-1.28-2.86-3.25c0-3.1,0-6.21,0-9.31h.06v-3.1c0-8.07.05-8-7.78-7.27-1.68.16-4.15,1.1-4.81-1.23-.58-2,1.77-2.63,3.19-3.18,7-2.7,14.24-4.14,21.53-5.55,1-.2,2.76-.71,3.07,1A2.5,2.5,0,0,1,545.12,353.66Zm38.54-8.94c-7,1.83-13.92,3.74-20.89,5.58-1.41.37-3,.76-3.55-1.23s.3-3.12,2.29-3.6c7.22-1.73,14.43-3.51,21.11-5.14,1.86.44,3.79-.4,3.94,1.84C586.68,344.1,585.1,344.34,583.66,344.72ZM622.35,337c-6.86,1.46-13.73,2.83-20.12,4.14-2.09-.73-4.75,1.17-5-1.78-.21-2.27,2.2-2.87,4-3.24q10-2.1,20.07-3.85c1.38-.23,3.59-1.22,4,1.3C625.55,335.48,624.09,336.63,622.35,337ZM662,329.62c-7.27,1.37-14.54,2.81-21,4.07-2.42-.16-4.26.34-4.57-2.15-.27-2.17,1.41-2.36,2.71-2.62q10.9-2.18,21.86-4.14c1.32-.24,3.14-.67,3.54,1.37C664.86,328,664,329.25,662,329.62Zm14.17-4.9c-.29-2.06.83-3.14,2.66-3.47,7.49-1.36,14.88-3.33,21.52-3.44,2.41-.56,3.78-.2,3.92,1.22a2.69,2.69,0,0,1-2.39,3.07c-7.49,1.36-15,2.8-22.44,4.2C677.93,326.58,676.44,326.87,676.13,324.72Zm28.31,541a169.41,169.41,0,0,1-22.2,5.54c-2.2.23-4,.21-4.35-1.89-.25-1.73,1.31-2.29,2.78-2.68,7.34-1.9,14.67-3.88,22-5.72,1.59-.39,3.62-.36,4.34,1.42C707.87,864.51,706,865.27,704.44,865.75ZM939.15,302c-4.13.08-8.26,0-12.38,0v.54c-3.73,0-7.44.07-11.16,0-1.28,0-3.18.44-3.08-1.88,0-1.5,1.15-2.13,2.5-2.21q12.06-.64,24.11-1.23c1.66-.07,2.9.72,3,2.43C942.2,301.57,940.64,302,939.15,302Zm49.3-2.43c-.21,3-2.89,2.43-4.83,2.47,0,0-10.16.16-18.65.16s-10.52-1.12-10.52-1.12a1.69,1.69,0,0,1,.29-3.36l29.21-.52C985.65,297.5,988.69,296,988.45,299.59Zm270.25,574.7c-.39,1.57-1.66,1.85-2.9,1.53-7.58-1.85-15.17-3.77-22.72-5.73a2.41,2.41,0,0,1-1.88-3.3c.52-1.72,2-.92,3.72-1,6.85,1.68,14.27,3.46,21.65,5.34C1258.05,871.49,1259.17,872.46,1258.7,874.29Zm6.16-545.69c-.75,2-2.58,1.61-4.26,1.59-7-1.43-14-2.87-21.09-4.27-1.38-.27-2.35-.92-2.28-2.36a2.48,2.48,0,0,1,3-2.39c7.64,1.44,15.26,3.08,22.86,4.72A2,2,0,0,1,1264.86,328.6Zm39.55,7c-.49,3.25-3.87.55-5.24,1.61a95.79,95.79,0,0,1-19.73-3.92c-1.58-.45-4.24-.82-3.54-3.29.62-2.18,3.06-1.78,4.83-1.46,6.25,1.14,12.49,2.33,18.68,3.75C1301.4,332.77,1304.86,332.68,1304.41,335.63ZM1343,344.2c-.25,1.62-1.53,1.79-2.79,1.67-8.18-.87-16.08-3.1-24.06-4.93a1.8,1.8,0,0,1-1.61-2.21c.66-2.6,2.91-1.48,4.81-1.93,7.06,1.39,14.3,2.78,21.53,4.22A2.5,2.5,0,0,1,1343,344.2Zm28.88,9.31c-4.94-1.89-10.33-2.68-15.54-3.87-1.46-.34-3.11-.61-3-2.45.19-2.22,2.11-2.43,3.76-2.06,9.77,2.22,19.87,3.43,28.58,9.08,1.77,1.14,1.86,2.54,1.86,4.18,0,6.61,0,13.22-.09,19.82,0,1.77.19,4.34-2.29,4.33-3.06,0-2.26-2.85-2.33-4.75-.11-3.3,0-6.61,0-9.91h.06c0-3.91,1.23-8.44-.32-11.58C1380.86,352.83,1375.56,354.92,1371.92,353.51ZM1383,475.42c0-1.28.52-2.54,2-2.63a2.17,2.17,0,0,1,2.27,2.4q.15,12.3,0,24.62a2.07,2.07,0,0,1-2.34,2.26,2.35,2.35,0,0,1-2.06-2.61c0-4.1,0-8.21,0-12.32h.08C1383,483.23,1383,479.32,1383,475.42Zm1.91-12.64c-1.55-.2-2-1.31-2-2.64,0-3.94,0-7.87,0-11.8h.07c0-3.94,0-7.87,0-11.81,0-1.49.21-3.08,2.06-3.21,1.53-.11,2.18,1.31,2.19,2.53q.19,12.39.13,24.81A2,2,0,0,1,1384.94,462.78Zm-2,53.8c0-1.42,0-3,2.16-2.86,2,.15,2.22,1.74,2.26,3.11.13,3.92,0,7.84,0,11.76h.06c0,3.52.07,7,0,10.54,0,1.35-.12,3.15-2.07,3.22-2.32.09-2.47-1.78-2.47-3.47Q1382.9,527.74,1383,516.58Zm4.48-96.75c0,1.33-.15,3.11-2.17,3.12s-2.34-1.43-2.34-3q0-11.44,0-22.9c0-1.19-.13-2.63,1.64-2.78s2.67,1.12,2.72,2.64c.12,3.92,0,7.84,0,11.76h.13C1387.51,412.39,1387.6,416.12,1387.46,419.83Zm-4.84,198.41c.11-6.61.11-13.23.37-19.86.09-2.19-1.18-5.88,2.35-5.88,2.83,0,2.19,3.51,2.21,5.62.06,7.46-.08,14.9-.13,22.36C1384.64,622.25,1383.06,621.46,1382.62,618.24Zm4,43.39-3.38-.4c-.1-8.26-.23-16.51-.24-24.76,0-1.29-.54-3.18,1.65-3.37s2.79,1.64,2.78,3.28C1387.36,644.79,1388.59,653.26,1386.61,661.63Zm1.31-85.7c-.14.79-.21,1.6-.41,2.39-.38,1.45.11,3.67-2.18,3.73-2.75.09-2.44-2.25-2.48-4-.1-6.51-.11-13-.15-19.56.69-1.9-.76-5.07,2.17-5.55,2.75-.43,2.3,2.64,3,4.33l.08,11.21C1388,571,1387.93,573.44,1387.92,575.93Zm32.91-212.2c-.23,1.82-1.66,2.12-3.27,1.42-7.53-1.92-15.06-3.82-22.59-5.75a2.86,2.86,0,0,1-2.17-3.81c.45-1.82,2-1,3.07-.74,7.36,1.81,14.69,3.74,22,5.58C1419.71,360.88,1421.1,361.81,1420.83,363.73Zm37.81,12c-.52,1.53-2.06,1.36-3.14,1.06q-11.26-3.07-22.45-6.44a3,3,0,0,1-2.33-3.25c.26-2,2-1.66,4.37-1.83,6.76,2.1,14.4,4.4,22,6.88A2.66,2.66,0,0,1,1458.64,375.73Z"/><path class="cls-2" d="M988.45,299.59c-.21,3-2.89,2.43-4.83,2.47,0,0-10.16.16-18.65.16s-10.52-1.12-10.52-1.12a1.69,1.69,0,0,1,.29-3.36l29.21-.52C985.65,297.5,988.69,296,988.45,299.59Z"/><path class="cls-2" d="M1387.62,358.39c0,6.61,0,13.22-.09,19.82,0,1.77.19,4.34-2.29,4.33-3.06,0-2.26-2.85-2.33-4.75-.11-3.3,0-6.61,0-9.91h.06c0-3.91,1.23-8.44-.32-11.58-1.76-3.47-7.06-1.38-10.7-2.79-4.94-1.89-10.33-2.68-15.54-3.87-1.46-.34-3.11-.61-3-2.45.19-2.22,2.11-2.43,3.76-2.06,9.77,2.22,19.87,3.43,28.58,9.08C1387.53,355.35,1387.62,356.75,1387.62,358.39Z"/><path class="cls-2" d="M545.12,353.66c-9.19.41-8.4,6.83-8.17,13.1.14,4.13,0,8.26-.06,12.41,0,1.45.11,3.22-1.82,3.32s-2.88-1.28-2.86-3.25c0-3.1,0-6.21,0-9.31h.06v-3.1c0-8.07.05-8-7.78-7.27-1.68.16-4.15,1.1-4.81-1.23-.58-2,1.77-2.63,3.19-3.18,7-2.7,14.24-4.14,21.53-5.55,1-.2,2.76-.71,3.07,1A2.5,2.5,0,0,1,545.12,353.66Z"/><path class="cls-2" d="M1458.64,375.73c-.52,1.53-2.06,1.36-3.14,1.06q-11.26-3.07-22.45-6.44a3,3,0,0,1-2.33-3.25c.26-2,2-1.66,4.37-1.83,6.76,2.1,14.4,4.4,22,6.88A2.66,2.66,0,0,1,1458.64,375.73Z"/><path class="cls-2" d="M701.84,322.1c-7.49,1.36-15,2.8-22.44,4.2-1.47.28-3,.57-3.27-1.58s.83-3.14,2.66-3.47c7.49-1.36,14.88-3.33,21.52-3.44,2.41-.56,3.78-.2,3.92,1.22A2.69,2.69,0,0,1,701.84,322.1Z"/><path class="cls-2" d="M662,329.62c-7.27,1.37-14.54,2.81-21,4.07-2.42-.16-4.26.34-4.57-2.15-.27-2.17,1.41-2.36,2.71-2.62q10.9-2.18,21.86-4.14c1.32-.24,3.14-.67,3.54,1.37C664.86,328,664,329.25,662,329.62Z"/><path class="cls-2" d="M942.12,299.67c.08,1.9-1.48,2.33-3,2.35-4.13.08-8.26,0-12.38,0v.54c-3.73,0-7.44.07-11.16,0-1.28,0-3.18.44-3.08-1.88,0-1.5,1.15-2.13,2.5-2.21q12.06-.64,24.11-1.23C940.8,297.17,942,298,942.12,299.67Z"/><path class="cls-2" d="M1420.83,363.73c-.23,1.82-1.66,2.12-3.27,1.42-7.53-1.92-15.06-3.82-22.59-5.75a2.86,2.86,0,0,1-2.17-3.81c.45-1.82,2-1,3.07-.74,7.36,1.81,14.69,3.74,22,5.58C1419.71,360.88,1421.1,361.81,1420.83,363.73Z"/><path class="cls-2" d="M1264.86,328.6c-.75,2-2.58,1.61-4.26,1.59-7-1.43-14-2.87-21.09-4.27-1.38-.27-2.35-.92-2.28-2.36a2.48,2.48,0,0,1,3-2.39c7.64,1.44,15.26,3.08,22.86,4.72A2,2,0,0,1,1264.86,328.6Z"/><path class="cls-2" d="M509.47,360.58c.08,2.63-1.53,3-2.81,3.45-6.83,2.23-13.68,4.42-20.58,6.44-1.68.48-4.11,1-4.83-1.3-.81-2.53,1.73-2.95,3.35-3.46,6.87-2.15,13.76-4.24,20.7-6.09C506.66,359.26,509.15,358.12,509.47,360.58Z"/><path class="cls-2" d="M622.35,337c-6.86,1.46-13.73,2.83-20.12,4.14-2.09-.73-4.75,1.17-5-1.78-.21-2.27,2.2-2.87,4-3.24q10-2.1,20.07-3.85c1.38-.23,3.59-1.22,4,1.3C625.55,335.48,624.09,336.63,622.35,337Z"/><path class="cls-2" d="M1343,344.2c-.25,1.62-1.53,1.79-2.79,1.67-8.18-.87-16.08-3.1-24.06-4.93a1.8,1.8,0,0,1-1.61-2.21c.66-2.6,2.91-1.48,4.81-1.93,7.06,1.39,14.3,2.78,21.53,4.22A2.5,2.5,0,0,1,1343,344.2Z"/><path class="cls-2" d="M1304.41,335.63c-.49,3.25-3.87.55-5.24,1.61a95.79,95.79,0,0,1-19.73-3.92c-1.58-.45-4.24-.82-3.54-3.29.62-2.18,3.06-1.78,4.83-1.46,6.25,1.14,12.49,2.33,18.68,3.75C1301.4,332.77,1304.86,332.68,1304.41,335.63Z"/><path class="cls-2" d="M536.89,578.38c0,1.52.47,3.62-2.11,3.66-2.39,0-2.45-1.92-2.49-3.54-.17-6.41-.23-12.82-.33-19.23.89-7.08.89-7.08,5.09-4.51C537,562.63,537,570.51,536.89,578.38Z"/><path class="cls-2" d="M586.56,342.17c.12,1.93-1.46,2.17-2.9,2.55-7,1.83-13.92,3.74-20.89,5.58-1.41.37-3,.76-3.55-1.23s.3-3.12,2.29-3.6c7.22-1.73,14.43-3.51,21.11-5.14C584.48,340.77,586.41,339.93,586.56,342.17Z"/><path class="cls-2" d="M1388,568.47c0,2.49,0,5,0,7.46-.14.79-.21,1.6-.41,2.39-.38,1.45.11,3.67-2.18,3.73-2.75.09-2.44-2.25-2.48-4-.1-6.51-.11-13-.15-19.56.69-1.9-.76-5.07,2.17-5.55,2.75-.43,2.3,2.64,3,4.33Z"/><path class="cls-2" d="M1387.36,460.66a2,2,0,0,1-2.42,2.12c-1.55-.2-2-1.31-2-2.64,0-3.94,0-7.87,0-11.8h.07c0-3.94,0-7.87,0-11.81,0-1.49.21-3.08,2.06-3.21,1.53-.11,2.18,1.31,2.19,2.53Q1387.42,448.24,1387.36,460.66Z"/><path class="cls-2" d="M1387.33,499.81a2.07,2.07,0,0,1-2.34,2.26,2.35,2.35,0,0,1-2.06-2.61c0-4.1,0-8.21,0-12.32h.08c0-3.91,0-7.82,0-11.72,0-1.28.52-2.54,2-2.63a2.17,2.17,0,0,1,2.27,2.4Q1387.45,487.49,1387.33,499.81Z"/><path class="cls-2" d="M536.91,448h0c0,3.93,0,7.87,0,11.8,0,1.43.08,3-2.07,3.05-2,0-2.44-1.46-2.44-2.92,0-7.87,0-15.74.07-23.61,0-1.59.66-3,2.49-2.85s2,1.84,2,3.34C536.92,440.49,536.91,444.21,536.91,448Z"/><path class="cls-2" d="M1387.55,598.12c.06,7.46-.08,14.9-.13,22.36-2.78,1.77-4.36,1-4.8-2.24.11-6.61.11-13.23.37-19.86.09-2.19-1.18-5.88,2.35-5.88C1388.17,592.5,1387.53,596,1387.55,598.12Z"/><path class="cls-2" d="M536.9,487.39c0,3.72,0,7.45,0,11.18,0,1.47.07,3.22-1.84,3.33s-2.88-1.3-2.87-3.25c0-7.45,0-14.91.12-22.37,0-1.68.33-3.57,2.61-3.42,1.93.14,1.93,1.9,2,3.34C536.92,479.93,536.89,483.65,536.9,487.39Z"/><path class="cls-2" d="M1387.47,539.13c0,1.35-.12,3.15-2.07,3.22-2.32.09-2.47-1.78-2.47-3.47q0-11.14,0-22.3c0-1.42,0-3,2.16-2.86,2,.15,2.22,1.74,2.26,3.11.13,3.92,0,7.84,0,11.76h.06C1387.51,532.11,1387.58,535.62,1387.47,539.13Z"/><path class="cls-2" d="M536.85,527.79c0,3.92,0,7.85,0,11.77,0,1.25-.09,2.62-1.77,2.77a2.37,2.37,0,0,1-2.74-2.63c0-7.86,0-15.71.12-23.55,0-1.29.53-2.42,2.17-2.44,2.06,0,2.27,1.39,2.28,2.91,0,3.72,0,7.44,0,11.17Z"/><path class="cls-2" d="M1387.46,419.83c0,1.33-.15,3.11-2.17,3.12s-2.34-1.43-2.34-3q0-11.44,0-22.9c0-1.19-.13-2.63,1.64-2.78s2.67,1.12,2.72,2.64c.12,3.92,0,7.84,0,11.76h.13C1387.51,412.39,1387.6,416.12,1387.46,419.83Z"/><path class="cls-2" d="M536.9,408.78h0c0,3.51,0,7,0,10.55,0,1.55.36,3.58-2.21,3.57-2,0-2.34-1.59-2.34-3,0-7.65,0-15.3.11-22.95,0-1.57.68-2.83,2.63-2.63,1.67.18,1.84,1.46,1.86,2.72C536.92,400.93,536.9,404.85,536.9,408.78Z"/><path class="cls-2" d="M1386.61,661.63l-3.38-.4c-.1-8.26-.23-16.51-.24-24.76,0-1.29-.54-3.18,1.65-3.37s2.79,1.64,2.78,3.28C1387.36,644.79,1388.59,653.26,1386.61,661.63Z"/><path class="cls-2" d="M587.69,293.64c-9.33,0-18.65-.15-28,.08a10.29,10.29,0,0,1-8.63-3.86c-15.27-17.47-14.82-50.72.93-67.73a9.19,9.19,0,0,1,7.16-3q28.91,0,57.81,0a10,10,0,0,1,8.44,4.25,54,54,0,0,1,1.88,63.76c-3.21,4.63-6.95,7-12.9,6.66C605.53,293.27,596.6,293.63,587.69,293.64Zm.52-5c8.9,0,17.81-.18,26.7.08,3.79.11,6-1.29,8.07-4.37,12-17.72,11.62-39.11-.92-56.81a7.42,7.42,0,0,0-6.75-3.4q-27,0-54-.19a7.18,7.18,0,0,0-6.3,3,48.4,48.4,0,0,0-.86,58.3,7.51,7.51,0,0,0,6.76,3.39C570,288.57,579.11,288.65,588.21,288.67Z"/><path class="cls-2" d="M413.42,830.81c6.34,1.8,13.67,3.86,21,6,1.47.43,2.78,1.46,2.33,3.12s-2.21,1.76-3.64,1.4q-10.8-2.66-21.56-5.5c-1.64-.44-3.23-1.36-2.79-3.43S411,831.13,413.42,830.81Z"/><path class="cls-2" d="M433.15,385.18a3.78,3.78,0,0,1-2.81,3c-6.76,1.82-12.94,5.07-19.28,7.95-1.55.71-3.13,1.45-4.2-.64s.34-3.11,1.82-3.92c6.86-3.75,14.29-6.09,21.73-8.34C431.86,382.8,433.39,383,433.15,385.18Z"/><path class="cls-2" d="M395.39,827c-3.92-6.42-7.12-13.07-6.43-20.9.22-2.39-.14-5,2.38-6.61,1.84.88,1.83,2.76,1.94,4.28a45.09,45.09,0,0,0,5.65,18.83C401.23,826.75,399.39,827.83,395.39,827Z"/><path class="cls-2" d="M847.2,306.07c-3.51,0-7,0-10.52,0-1.18,0-2.64.28-2.81-1.54a2.53,2.53,0,0,1,2.36-3,172,172,0,0,1,24.13-.57c1.32.05,2.47.69,2.48,2.22,0,1.75-1.52,1.78-2.66,1.87-4.32.35-8.65.56-13,.82Z"/><path class="cls-2" d="M388.93,425.59c.47-7.47,2.22-14.16,6.4-20,.92-1.3,2.17-3.08,3.93-1.94,1.34.87.51,2.6-.08,4-2.55,5.85-4.82,11.76-5.45,18.21-.2,2.05.52,5.6-2.3,5.49C388.2,431.14,389.3,427.52,388.93,425.59Z"/><path class="cls-2" d="M388.76,734.53c.2-4.1.37-8.2.63-12.3.06-1,.38-2.24,1.52-2.38,1.56-.19,2.1,1.15,2.25,2.39a141.23,141.23,0,0,1,.31,24.59c-.07,1.13-.7,2.62-2.18,2.54-1.77-.09-2.2-1.7-2.24-3.13-.1-3.9,0-7.8,0-11.71Z"/><path class="cls-2" d="M393.52,496.09c0,3.93.09,7.85-.06,11.77,0,1.12-.5,2.63-2,2.7s-2.13-1.53-2.15-2.58q-.17-12.06.05-24.12c0-1.08.28-2.74,1.91-2.73,2,0,2.08,1.93,2.14,3.2.18,3.91.06,7.84.06,11.76Z"/><path class="cls-2" d="M393.52,615.71c0,3.9.1,7.8-.06,11.7a2.42,2.42,0,0,1-2.18,2.57,2.33,2.33,0,0,1-2.15-2.54c0-8.21.11-16.42.26-24.63,0-1,.36-2.25,1.51-2.39,1.55-.19,2.15,1.15,2.25,2.39.35,4.29.55,8.59.8,12.89Z"/><path class="cls-2" d="M393.51,576.07c0,3.91.1,7.83-.06,11.73-.05,1.29-.06,3.18-2.18,3-1.53-.1-2-1.64-2-2.72q-.17-12.35,0-24.69c0-1.12.52-2.56,2.19-2.43s1.9,1.67,1.95,2.72c.17,4.11.07,8.23.07,12.35Z"/><path class="cls-2" d="M393.51,456.57c0,4.13,0,8.26,0,12.39,0,1-.41,2.18-1.58,2.37-1.59.26-2.29-1-2.4-2.24a131.31,131.31,0,0,1,.06-25.31c.1-.94.42-2.13,1.77-2.16,1.73,0,2,1.5,2.07,2.57.16,4.12.06,8.25.06,12.38Z"/><path class="cls-2" d="M389.1,655.65c0-3.91-.08-7.83,0-11.74,0-1.18.52-2.74,1.79-2.92,1.94-.28,2.38,1.72,2.41,2.93.22,8,.23,16.06.24,24.08,0,1.3-.57,2.48-2.18,2.37-1.8-.12-2.43-1.43-2.45-3-.07-3.91,0-7.83,0-11.74Z"/><path class="cls-2" d="M393.49,695.63c0,3.91.07,7.82,0,11.72,0,1.16-.18,2.72-1.7,2.93-2,.27-2.49-1.57-2.51-2.84q-.24-12-.05-24.06c0-1.27.31-3.14,2.38-2.93,1.56.17,1.77,1.77,1.81,2.84.16,4.11.06,8.22.06,12.34Z"/><path class="cls-2" d="M390.09,519.88c4.43,4.4,3.51,8,3.6,11.35.15,5.54,0,11.09-.07,16.64,0,1.23-.11,2.65-1.6,3a2.14,2.14,0,0,1-2.62-2C389.1,539.73,388.39,530.59,390.09,519.88Z"/><path class="cls-2" d="M389.13,775.42c0-4.12-.1-8.24.07-12.34.05-1.07.49-2.63,2-2.7s2,1.62,2.09,2.61c.86,8.2.55,16.44.25,24.67a2,2,0,0,1-2.4,2.1,2.49,2.49,0,0,1-2.16-2.61c-.08-3.91,0-7.82,0-11.73Z"/><path class="cls-2" d="M536.86,597.09c.09,7.87,0,15.73,0,23.62-1.51,1.09-3,.57-4.35-.27-.05-7.86-.14-15.73-.16-23.6,0-1.8-.23-4.33,2.2-4.42C537.75,592.28,536.85,595.25,536.86,597.09Z"/><path class="cls-2" d="M1331.5,293.59c-9.74,0-19.48-.07-29.22,0a9.4,9.4,0,0,1-8-3.86c-14.86-18.25-14.89-48.23-.06-66.35a10.85,10.85,0,0,1,9.08-4.37q28.29.13,56.58,0a10.11,10.11,0,0,1,8.56,4c14.92,18.24,15.49,46.65,1.29,65.23-2.83,3.7-5.86,5.74-10.9,5.48-9.1-.46-18.24-.13-27.36-.13Zm-.21-4.93v0c8.91,0,17.81-.15,26.71.07a8.48,8.48,0,0,0,7.85-3.68c12.58-16.61,12-42.2-1.26-58.24-1.87-2.26-3.84-2.77-6.42-2.77-17.81,0-35.61.09-53.42,0-3.52,0-5.67,1.32-7.57,4.22-12.18,18.61-12.19,37.86-.15,56.36,2,3,4.09,4.16,7.56,4.1C1313.49,288.55,1322.39,288.66,1331.29,288.66Z"/><path class="cls-2" d="M1527.11,410.27a2,2,0,0,1-1.57,2.31,2.79,2.79,0,0,1-3.24-1.22,55,55,0,0,0-15.74-17.06,1.59,1.59,0,0,1-.49-2.19c.53-.81,1.35-.65,2.18-.62C1514.17,391.64,1527.17,404.56,1527.11,410.27Z"/><path class="cls-2" d="M1529.41,571.46c-3.41-.24-3.39-2.66-3.37-5.19s-.13-5.18-.2-7.78c.15-4.54.25-9.08.49-13.61a2.68,2.68,0,0,1,2-2.78c1.41-.28,1.86,1,1.89,1.93C1530.53,553.19,1532.61,562.41,1529.41,571.46Z"/><path class="cls-2" d="M1526.12,436.58c0-3.52,0-7,0-10.56,0-1.54.12-3.29,1.76-3.53,2.35-.35,2.54,1.93,2.58,3.42.21,7.65.24,15.31.27,23,0,1.26-.32,2.67-1.8,2.86-1.86.24-2.6-1.22-2.64-2.74-.12-4.13,0-8.27,0-12.41Z"/><path class="cls-2" d="M1526.2,477c0-3.31,0-6.63,0-9.94,0-1.5-.23-3.1,1.67-3.43s2.66,1.08,2.68,2.65c.08,7.86.11,15.73,0,23.59,0,1.15-.45,2.63-2.07,2.61-1.92,0-2.3-1.55-2.32-3.05-.07-4.14,0-8.28,0-12.43Z"/><path class="cls-2" d="M1529.76,612c-3.24.31-3.67-1.76-3.65-4.26.06-7.15.12-14.31.11-21.46,0-3.75,1.62-4.25,4.55-2.48C1530.37,593.21,1532.28,602.69,1529.76,612Z"/><path class="cls-2" d="M1530.8,516.94c0,3.72.07,7.44,0,11.16,0,1.55,0,3.65-2.33,3.53-1.66-.08-2.29-1.66-2.28-3.2q0-11.46.12-22.93a2.47,2.47,0,0,1,2.09-2.66c2-.17,2.25,1.52,2.29,3,.09,3.72,0,7.44,0,11.15Z"/><path class="cls-2" d="M1530.72,689.87c-4,2-4.58-.43-4.62-3.55q-.12-9.8-.22-19.6c.59-1.79-.2-4.91,2.55-4.82,3.21.1,2.35,3.33,2.38,5.33C1530.91,674.77,1530.77,682.32,1530.72,689.87Z"/><path class="cls-2" d="M1530.72,637.32c0,3.72.06,7.45,0,11.17,0,1.26-.54,2.56-2.06,2.55a2.37,2.37,0,0,1-2.35-2.44q0-12.09.22-24.18a2,2,0,0,1,1.93-2c1.54,0,2.09,1.29,2.11,2.53.1,4.14,0,8.27,0,12.41Z"/><path class="cls-2" d="M1054.75,304.39c-3.92,0-7.84.12-11.75-.06-1.54-.07-3.47-.3-3.54-2.61-.08-2.82,2.16-2,3.53-2,7.42.22,14.84.59,22.25.93,1.61.07,2.94.68,2.83,2.51s-1.62,1.61-2.81,1.63c-3.5.06-7,0-10.51,0Z"/><path class="cls-2" d="M536.86,657.73c0,1.84.23,3.87-2.45,4.17-.76-.2-1.51-.39-2.27-.57.07-8,.08-16.08.24-24.1,0-1.69-.4-4.19,2.41-4.13s2.08,2.61,2.1,4.24C537,644.13,536.9,650.93,536.86,657.73Z"/><path class="cls-2" d="M1351.68,772.46c-1-4.59-2.14-9.16-3.11-13.76-1.72-8.22,1.24-13.49,9.39-16.09a127.19,127.19,0,0,1,17.84-4.74c5.81-1,8.25-3.42,7.1-9.32a39.25,39.25,0,0,1-.26-6.15c.13-2.48.28-4.95.37-7.43.06-1.39.73-2.71,1.94-2.87,1.82-.23,2.45,1.43,2.48,2.91.11,5,.26,10,0,14.91-.2,3.94.75,5.07,4.87,3.87,12.89-3.74,25.88-7.16,38.85-10.59,5.94-1.57,11.84-2.16,17.07,2.19,5.67,10.72,6.85,22.82,10.41,34.18,1.34,4.28,2.5,8.62,3.74,12.93,2.52,10,4.84,20.06,7.61,30,4.08,14.61,1.67,19.5-12.54,24.13-22,5.63-44.08,11.31-66.16,16.85-3,.76-4,2.32-3.75,5.24a63.48,63.48,0,0,1-.1,8c-.08,1.43-.43,3-2.38,3-2.17.06-2-1.6-2.07-3a31.3,31.3,0,0,1,0-4.33c.42-4.26.19-7.19-5.66-7.36-4-.12-6.56-4-8-7.81-1-2.49-1.78-5-2.66-7.57C1362.27,810.46,1357.16,791.41,1351.68,772.46Zm104.54,0c-3.44-13.54-6.74-27.11-10.4-40.58-1.37-5.06-5.59-5.63-10-4.49q-38.23,9.92-76.44,20c-5.17,1.35-7,5-5.9,9.88,1.18,5.17,2.88,10.22,4.36,15.33q4.82,19.19,9.64,38.36c2,8,4.13,16,6.23,24,.94,3.55,3.12,6.1,7,5.76,4-.37,1.76-3.88,2.24-6,.33-1.41.15-3.32,1.79-3.56,2.33-.34,2.38,1.94,2.56,3.45.36,3,.18,5.43,4.91,4.12,22-6.15,44.23-11.83,66.34-17.79,7.7-2.07,9.42-4.45,7.57-12C1463.13,796.63,1459.54,784.58,1456.22,772.46Z"/><path class="cls-2" d="M1503.92,831.46c6.68-1.25,12.5-4,17.11-9.17.86-1,1.66-2.82,3.4-2s1.65,2.67,1.43,4.36c-5.68,5.34-11.61,10.25-19.62,11.66-1.75.3-3.84,1.47-4.93-.74C1500.15,833.2,1502.55,832.53,1503.92,831.46Z"/><path class="cls-2" d="M1311,887.89c-1.37.26-2.55-.08-2.79-1.59-.21-1.27.17-2.57,1.62-2.92q11.94-2.86,23.91-5.59a2.42,2.42,0,0,1,2.91,1.72c.55,1.55-.52,2.14-1.81,2.58A125.09,125.09,0,0,1,1311,887.89Z"/><path class="cls-2" d="M1388.34,867.81c-1.43,0-2.63-.13-3-1.71a2.13,2.13,0,0,1,1.29-2.54c8.09-3.22,16.72-4.36,25.11-6.41a1.42,1.42,0,0,1,1.82,1.23,3.16,3.16,0,0,1-2.49,3.7Z"/><path class="cls-2" d="M1427.93,858c-2,0-3.36-.07-3.83-1.41-.65-1.87.92-2.62,2.25-3,7.25-2.23,14.52-4.41,21.82-6.43,1.19-.33,3.08-.84,3.62,1.15.46,1.68-.67,2.83-2.12,3.27C1442.23,853.81,1434.75,856,1427.93,858Z"/><path class="cls-2" d="M1466.37,847.3c-2.71-.08-4.2.2-4.43-1.49a2.56,2.56,0,0,1,2-2.75,176.87,176.87,0,0,1,23.2-5.92c.89-.17,2.21-.51,2.63.75.5,1.53-.78,2.43-1.86,2.77C1480.3,843.1,1472.65,845.38,1466.37,847.3Z"/><path class="cls-2" d="M1371,867.84c1.87.19,3.43-.4,3.83,1.19s-1,2.24-2.13,2.58c-7.44,2.28-14.9,4.49-22.4,6.57-1.14.32-3,1.13-3.45-1.14a2.81,2.81,0,0,1,2.27-3.24C1356.59,871.67,1364.12,869.7,1371,867.84Z"/><path class="cls-2" d="M1530.76,703.24c.07,7.24.23,14.48.16,21.73,0,2.29.73,6-2.36,6.13-3.51.19-2-3.76-2.78-5.88.16-6.5.38-13,.45-19.51C1526.26,701.94,1527.86,701.5,1530.76,703.24Z"/><path class="cls-2" d="M566.92,872.8c7.11,1.84,14.26,3.66,21.39,5.55,1.7.46,3.12,1.41,2.42,3.52-.63,1.87-2.37,1.56-3.67,1.24q-10.74-2.62-21.4-5.54c-1.54-.43-3.51-1.29-3.06-3.27C563.12,872,565.36,873.39,566.92,872.8Z"/><path class="cls-2" d="M612.62,888.18c-2.67.26-5.66-.49-8.7-1.1-1.61-.32-2.83-.83-2.72-2.63s1.61-2.33,3.13-2.05c7.24,1.36,14.33.5,21.42-1.06,1.56-.34,3.84-.27,4.27,1.5.59,2.46-1.91,2.85-3.6,3.28C622.05,887.24,617.65,888.33,612.62,888.18Z"/><path class="cls-2" d="M1137.35,851c-6.7-1-13.64-2-20.53-3.25-1.72-.3-4.19-.84-3.81-3.24.43-2.77,2.86-1.59,4.54-1.38,7,.87,13.91,1.82,20.86,2.78,1.86.26,4.16.65,4,3C1142.25,852.2,1139.36,850.53,1137.35,851Z"/><path class="cls-2" d="M1176.71,858.48c-6.63-1.43-13.63-2.88-20.59-4.52-1.73-.41-4-1.26-3.51-3.54.6-2.57,2.83-1.52,4.61-1.16q10.24,2.06,20.51,4c1.85.36,3.93.7,3.74,3.17C1181.23,859.47,1178.67,857.89,1176.71,858.48Z"/><path class="cls-2" d="M1092.45,844.65c-4.32-.41-9.46-.88-14.61-1.38-2.21-.22-4.54-1.08-4.39-3.47.18-2.71,2.81-1.6,4.44-1.5,6.77.45,13.55.93,20.3,1.66,1.8.2,4.82-.32,4.83,2.59,0,3.35-3,1.81-4.78,2.05A48.54,48.54,0,0,1,1092.45,844.65Z"/><path class="cls-2" d="M1039.52,834.28l20.83,2.4c1.61.52,3.37,1,2.8,3.27-.49,1.95-2.16,1.52-3.57,1.39q-9.87-.92-19.75-1.88c-2.18-.22-5.29.25-5.48-2.72C1034.12,832.88,1037.84,835.3,1039.52,834.28Z"/><path class="cls-2" d="M1010.28,837.08c-3.93,0-7.85.06-11.78,0-1.72,0-3.42-.6-3.55-2.67-.16-2.58,1.95-2.21,3.5-2.21,7.22,0,14.46-.38,21.63,1,1.64.31,3.7.29,3.47,2.54-.25,2.44-2.51,1.51-4,1.57-3.09.12-6.19,0-9.29,0Z"/><path class="cls-2" d="M915.18,832.3l21.09-1.36c2.67,1,7.79-1.55,7.87,2.36.1,4.74-5.17,2.45-8,2.82-5.49.7-11.09.52-16.63.86C916,837.2,914.5,835.84,915.18,832.3Z"/><path class="cls-2" d="M875.32,834.7c9.52-.74,19-1.73,28.59-1.24,1.75,3.15-.16,4.25-2.77,4.44-7.62.58-15.26,1-22.88,1.41C874.5,839.54,875.17,837,875.32,834.7Z"/><path class="cls-2" d="M842,843.6c-2.43-.5-5.7,1.32-6-2.1-.23-3,3-2.78,5.13-3.1,5.71-.83,11.42-1.68,17.15-2.38,2.21-.27,5.27-.59,5.64,2.15s-2.74,2.44-4.65,2.75C853.42,841.89,847.51,842.76,842,843.6Z"/><path class="cls-2" d="M760.43,854.56c-1.37-.08-3,.32-3.32-1.76a2.57,2.57,0,0,1,2.36-3.06c7.51-1,15-2,22.58-2.86,1.27-.14,3.11-.35,3.44,1.65.4,2.4-1.59,2.63-3.14,2.87C775.05,852.51,767.74,853.51,760.43,854.56Z"/><path class="cls-2" d="M819.31,840.72c2.26.45,5.55-1,5.74,2.25.15,2.49-3.13,2.32-4.94,2.64-6.5,1.14-13.07,2-19.63,2.74-1.5.18-3.65.64-3.86-1.84-.19-2.13,1.52-2.76,3.23-3C806.4,842.52,813,841.62,819.31,840.72Z"/><path class="cls-2" d="M1258.7,874.29c-.39,1.57-1.66,1.85-2.9,1.53-7.58-1.85-15.17-3.77-22.72-5.73a2.41,2.41,0,0,1-1.88-3.3c.52-1.72,2-.92,3.72-1,6.85,1.68,14.27,3.46,21.65,5.34C1258.05,871.49,1259.17,872.46,1258.7,874.29Z"/><path class="cls-2" d="M704.44,865.75a169.41,169.41,0,0,1-22.2,5.54c-2.2.23-4,.21-4.35-1.89-.25-1.73,1.31-2.29,2.78-2.68,7.34-1.9,14.67-3.88,22-5.72,1.59-.39,3.62-.36,4.34,1.42C707.87,864.51,706,865.27,704.44,865.75Z"/><path class="cls-2" d="M1526.36,769.4q-.09-11.77-.16-23.53c0-1.89.07-4.2,2.51-4.15,2.07,0,2.08,2.27,2,3.87-.42,8.38,1.6,16.88-1.18,25.15Z"/><path class="cls-2" d="M1531.09,784.92l-.6,24.68c-3.47,1.25-4.41-.55-4.4-3.59,0-7,0-13.89.07-20.84,0-1.66,0-3.61,2-4C1531,780.73,1530.46,783.39,1531.09,784.92Z"/><path class="cls-2" d="M536.5,753.24q.32,11.68.62,23.37c-3.81,9.1.22,18.24-.13,27.36-.17,4.34-.12,8.69-.3,13-.07,1.56,0,3.75-2.16,3.8s-2.24-2.14-2.26-3.73c-.09-6,0-12,0-18.07-2.12-.52-2.83,1.64-4,2.86-9.22,9.47-21.88,11.59-32.79,5.46a26.6,26.6,0,0,1-12.34-31.44c1.18-3.86,1.43-7-1-10.37-2.09-2.94-1.33-5.38,1.79-7.2,5-2.9,10-5.9,15-8.8,3.6-2.08,6.49-1.16,8.06,2.62,1.36,3.27,3.86,4.59,7,5.32,5.78,1.34,10.85,3.91,14.75,8.54.71.85,1.36,2.44,2.88,1.59,1.28-.72.72-2.18.74-3.36,0-2.89,0-5.79.2-8.67C532.73,753.09,533.72,751.5,536.5,753.24Zm-11.75,30.62A16.42,16.42,0,0,0,508,767.62c-7.58.09-15.6,8-15.79,15.58-.23,9.47,7.11,16.63,17,16.57A15.65,15.65,0,0,0,524.75,783.86Zm-16-21.32c-7.41-8.27-7.41-8.27-16.24-3.23-.89.5-1.79,1-2.65,1.56-2.39,1.54-2.32,8.33-.12,10.24,1,.85,1.61.35,2-.15C495.61,765.19,501.71,763.59,508.72,762.54Z"/><path class="cls-2" d="M490.8,851.9c6.32,1.93,13.56,4.14,20.8,6.37,1.21.38,2.45,1,2.21,2.49a2.58,2.58,0,0,1-3.25,2.13,164.81,164.81,0,0,1-22.88-6.95c-1.34-.54-2.09-1.48-1.61-2.84C486.73,851.25,488.42,852,490.8,851.9Z"/><path class="cls-2" d="M1390.38,778.69c3-9.33,9.43-14.9,19.06-15.81,9.79-.93,16.78,4,21.51,12.41,2.76,13.71-.2,21.91-9.8,27.12a20.81,20.81,0,0,1-30.86-18.78ZM1411,799.78c8.84.05,16.43-7.33,16.4-15.93,0-8.79-7.83-16.39-16.79-16.37-8.12,0-15.33,7.55-15.48,16.18A15.63,15.63,0,0,0,1411,799.78Z"/><path class="cls-2" d="M1383,805.67q0-5.56,0-11.15c0-1.35.51-2.77,1.7-3,1.38-.26,2,1.1,2.25,2.43,1.28,8.22.87,16.47.32,24.71-.08,1.26-.73,2.49-2.35,2.2s-1.89-1.52-1.91-2.81C1382.93,813.94,1383,809.81,1383,805.67Z"/><path class="cls-2" d="M1382.65,772.45c.1-5.34.14-10.68.33-16,0-1.46-.75-3.73,1.67-4,2.69-.26,2.76,2.23,2.78,3.9.1,7.8,0,15.6-.06,23.4-2.52,2-4.14,1.69-4.43-1.78C1382.78,776.15,1382.75,774.3,1382.65,772.45Z"/><path d="M800.83,504.16v111H781V544.45L761.5,559.36l-16.18,12.53-16.18-12.53-19.51-14.91v70.74H689.8v-111l19.83,15.23,35.69,27.44L781,519.39Z"/><path d="M854.76,541.12v75.5H834.93V539.06a15.81,15.81,0,0,0-13.48-13.49H817V505.9h4.29v.16a35.55,35.55,0,0,1,13.48,3.65,35.17,35.17,0,0,1,16,16.18,42.36,42.36,0,0,1,2.7,7.46,33.41,33.41,0,0,1,1,8.09Z"/><path d="M940.4,504.16A35.81,35.81,0,0,1,976.25,540v39.18A35.81,35.81,0,0,1,940.4,615H906.14a35.81,35.81,0,0,1-35.84-35.84V540a35.81,35.81,0,0,1,35.84-35.85ZM906.14,524A16.24,16.24,0,0,0,890,540.17v39.17a16.24,16.24,0,0,0,16.17,16.18H940.4a16.24,16.24,0,0,0,16.18-16.18V540.17A16.24,16.24,0,0,0,940.4,524Z"/><path d="M1094.26,559.83a32.76,32.76,0,0,1-23.48,55.52h-45.52a32.59,32.59,0,0,1-30.14-20,34.41,34.41,0,0,1-2.54-12.84,32.63,32.63,0,0,1,9.2-22.84,31.28,31.28,0,0,1-6.82-10,34.41,34.41,0,0,1-2.53-12.84,32.2,32.2,0,0,1,32-32.84h46.47a32.88,32.88,0,0,1,23,55.68ZM1070,550.16a12.94,12.94,0,0,0,.47-25.86h-46.79a12.94,12.94,0,0,0,.32,25.86h46Zm.16,45.52a13.06,13.06,0,0,0,13-13,12.92,12.92,0,0,0-12.21-13h-46.47a12.89,12.89,0,0,0-12.22,12.85,13.07,13.07,0,0,0,13,13h45.52Z"/><path d="M1220.67,559.2a32.76,32.76,0,0,1-23.48,55.52h-45.52a32.59,32.59,0,0,1-30.14-20,34.5,34.5,0,0,1-2.54-12.85V536.36a32.14,32.14,0,0,1,8.25-21.41,33.68,33.68,0,0,1,9.52-7.46,31.42,31.42,0,0,1,14.91-3.65h69v19.83h-69a13.07,13.07,0,0,0-13,13v15.54a32.48,32.48,0,0,1,12.37-2.54h46.8a32.78,32.78,0,0,1,23,10ZM1197,594.89a13.07,13.07,0,0,0,13-13,12.9,12.9,0,0,0-12.21-13H1151a13,13,0,0,0,.64,26H1197Z"/></g></g></svg>