<svg xmlns="http://www.w3.org/2000/svg" viewBox="0 0 1920 1080"><defs><style>.cls-1{fill:#f2f2f2;}.cls-2{fill:#010101;}.cls-3{fill:#ccc;}</style></defs><g id="Capa_2" data-name="Capa 2"><g id="Capa_1-2" data-name="Capa 1"><rect class="cls-1" x="1919" y="1079" width="1" height="1"/><rect class="cls-1" width="1" height="1"/><rect class="cls-1" y="1079" width="1" height="1"/><rect class="cls-1" x="1919" width="1" height="1"/><path class="cls-2" d="M1756.06,507.27c0-15.51-8.23-21.22-13.18-26.79-6.39-7.18-12.75-9.94-22-9.47-12,.63-24.1-.18-36.14.27-7,.28-10.17-1.81-9.93-9.19.27-9.43-.75-18.91-.18-28.32,1-17-6.61-29.1-19.34-39.33-18.58-15-40.59-23.08-62.11-32.18-44-18.6-87.81-37.47-133-53-2.17-.72-5.48-1.11-5.7-3.19-1.21-11.07-10.81-10.93-17.89-13.49-20.12-7.28-40.52-13.87-60.75-20.91-4.67-1.62-8.23-2.31-9.11,4.14-.78,5.81-5,3.94-8.26,3.13-46.78-11.28-93.93-20.75-141.29-29.29-51-9.22-102.18-16.63-154-18.14-10.41-.31-10.79-7.2-13.41-13.31-6.26-11.39-21.85-8.71-21.85-8.71-9.66,0-14.84,5.3-20.1,11.59-2.49,3-4.23,7.14-8.8,7-12.25-.39-24.61,1.76-36.78-1.21-2,.07-4.08.15-6.14.24-8.63,2.3-17.48.23-26.13,1.27-9,1.07-15-2.28-20.75-9.37-13.11-16.28-33-13.62-41.72,5.14-2.17,4.68-4.63,6.87-10.09,7.08-66.85,2.66-132.64,13.44-198.07,26.66-32.82,6.63-65.48,14-98.2,21.06-3.33.7-7.89,2.8-8.69-2.6-1.17-8-5.49-6.16-10.44-4.44-23,8-46,15.85-69,23.93-2.88,1-7.27,1.44-7.12,5.57.22,5.85-3.63,6.79-7.74,8.21-31.9,11.21-63.5,23.2-94.39,36.93C334.13,359.76,303,369.78,275,386.71c-20.6,12.46-33.56,28.61-29.95,54.22a52.36,52.36,0,0,1,0,7.82c-.3,22.4-.3,22.29-23.2,22.48-18.31.15-37.86-4.19-51.77,13.57-6.92,6.82-6.12,16.66-6.12,16.66V654.08c-.09,25.39,4.28,45.49,24.12,62.82,9.46,8.25,17.69,12.19,29.9,11.91,29.63-.67,59.28-.24,88.92-.13,5.63,0,20.88,19.5,19.39,24.6-.7,2.35-3.38,2.72-5.29,3.84-15.67,9.29-31.2,18.79-47,27.88-5.68,3.31-6.9,7-3.59,12.66q20,34.56,39.74,69.3c2.85,5.07,5.94,6.06,10.95,3,8-4.89,16.3-9.39,24.45-14.06,7.59-6.17,16.87-9.68,24.74-15.26,10.75-7.61,22.53-9,35.11-8.86,27,.29,54,.1,81,.27,5.79,0,13.54-3.89,15,6.75.33,2.27,4,1.58,6.13,1.58q40.05,0,80.06-.17c2.71,0,6.25.9,7.09-3.27,2.48-12.11,7.19-4.14,10.56-.89,4.38,4.18,7.2,10.49,14.47,10.36,26.51-.55,52.65,1.06,79.05-7.2,73.41-22.87,149.39-30.65,225.95-33.47l44.54-.09a800,800,0,0,1,88.64,4.17c40.85,3.46,81.54,7.94,121.2,19,13.36.95,26.3,4.53,38.51,9.4,21.85,8.72,44.36,8.74,67.12,8.25,6.48-.13,13,0,19.45.09,0,0,81.34.7,97.5.7s16-7.43,16-7.43c.45-5.75,2.7-8,9.26-7.92,34.85.48,69.68.19,104.53.39,12.62.07,21.18-4.66,27.19-16.43,13.74-26.89,28.73-53.16,42.91-79.86,2.93-5.53,6.3-7.76,12.84-7.69,30.59.4,61.23,0,91.82.25,9.39.11,16.81-2,23-9.8,6-7.59,13.44-14,20.24-21,5.22-5.57,6.29-12.22,6.28-19.69-.14-34.41.14-68.82.27-103.24ZM1445.59,324.91c1.32-4.87,5.16-2.74,8-1.71q87.41,31.67,171.88,70.49c18.09,8.3,27.33,17.16,33.6,29.48-10.89-5.71-19.38-10.21-27.91-14.63a1243.68,1243.68,0,0,0-178.85-76C1448.72,331.3,1444.08,330.33,1445.59,324.91Zm169,106.1c-3.9,1.9-8.28-2.48-12.25-4.43-40.64-20.14-81.66-39.45-123.36-57.27-6-2.6-9-5.89-8.09-12.17-1.33-7,2.58-5.85,6.8-4.89,14,3.17,26.83,9,40,14.37,30,12.21,59.56,25.26,89.19,38.22,7,3.08,12.14,5.85,8.68,14.6C1614.12,423.29,1618.82,429,1614.62,431Zm-166.83-91.18c2.75,1.6,5.55,3.77,8.54,4.2,6.7,1,8.44,4.94,7.82,10,1.18,6.57-1.53,8.17-6.26,5.77-6.94-3.52-15.71-5.4-16.57-15.41-.17-2.06-1.27-4.77,1.22-6.08C1444.37,337.34,1446.09,338.83,1447.79,339.83ZM1041.34,237.56a18,18,0,0,0,15.25,8.93c99.88,4.08,197.13,24.85,294.22,46.57,3.38.77,9.4-.44,8.08,5.64-1.43,6.55-7.05,3-10.47,2.09q-42.78-11.64-86.29-20.16c-66.75-13.22-134-22.83-202.06-26.25-15.42-.78-25-10-25.82-26.19A91.4,91.4,0,0,1,1041.34,237.56Zm-7.5,26.62c.62-3.7,4.23-1.82,6.51-1.92,5.21-.21,10.43-.06,15.63-.06,14.24-2.62,27.67,3.58,41.58,4.05,34.5,1.16,68.34,8.1,102.59,11.52,8.35.84,16.45,4,24.78,5,29.67,3.59,58,13.35,87.58,17.67,12.7,1.89,25,6.66,37.42,10.14,5.67,1.6,3.61,4.44.74,6.73-4.69,3.72-10,3.73-15.72,2.33-36-8.88-72.16-16.77-108.68-23-60.33-10.29-120.93-18.25-182.12-21.13-3.19-.15-7.36.93-9.13-1.93C1033.49,271.1,1033.33,267.21,1033.84,264.18ZM896.29,253.61c-4.64-7.1.35-15.72-.86-24.27,2,.23,3.05.12,3.2.42,7,13.74,19,13.87,32.25,13.39,22.73-.81,45.49-.45,68.22,0,7.89.16,13.91-1.54,18-8.61,1.25-2.17,3-5.49,5.6-4.73,3.76,1.12,1.92,5.15,1.62,7.63-.74,6.53,3.84,14-3.95,19.6-2,1.42,1.57,3.53,3.27,4.79,3.5,2.56,3.5,6.44,2.77,9.76-1,4.72-5.35,2.29-8.15,2.27-11.39,0-22.79-.86-34.15-.52-6.28.17-6.71-2.75-6.82-7.61-.14-6.54,3.81-5.25,7.8-5a123.54,123.54,0,0,0,12.62,0,3.77,3.77,0,0,0,3.89-3.64c.21-3-2.21-2.64-4-2.79-24.66-2.26-49.34-3.12-74-.09-2.33.28-5,.28-5.11,3.23-.2,3.76,3.17,3.68,5.56,3.74a84.48,84.48,0,0,0,11.68-.69c4.43-.51,6.86.73,6.6,5.7-.21,4-.74,6.8-5.9,6.84-11.69.08-23.41.84-35.11,1-2.48,0-6.53,2.28-7.37-2-.62-3.22-1.82-7.54,1.85-9.82C900.63,259.15,899,257.8,896.29,253.61Zm52.57,11c-.14-4.71,2.81-5.12,6.43-4.86,2.25.19,4.52,0,6.77.24,3.05.28,7.9-2.58,7.86,3.64,0,3.24,2.05,7.63-2.17,9.58l-15,.14C948,272.14,949,268.05,948.86,264.57ZM566.37,293.2c27.35-5.65,54.59-11.75,81.93-17.37,54.74-11.22,109.76-20.89,165.46-26.22,14.25-1.38,28.57-3,42.84-2.78,12.48.13,20.6-4.21,24.82-15.92.72-2,1.22-4.5,4.7-5.21-.54,17.82-9.33,27.48-27.09,28.52-34.46,2-68.77,5.34-103,9.86a1404.9,1404.9,0,0,0-169.28,32.76c-6.3,1.63-12.59,3.25-18.95,4.54-2.54.51-6.18,2.34-7.08-2.25C559.88,294.79,562.7,294,566.37,293.2Zm320-26.4c-.08,5.69-1.92,8.07-7.82,8.33-38.4,1.56-76.62,5.26-114.72,10.29A1549.71,1549.71,0,0,0,591.52,318c-5.6,1.41-11.26,3.89-17.21,2.14-3.42-1.05-7.74-2.66-7.78-6.46,0-4,4.92-3.32,7.72-4.33,22.4-7.93,46.2-10,69-16.15,9.35-2.53,18.33-6.81,32.64-6.06,7.2-.34,17.93-4.68,29.13-6.4,32.06-4.91,64-10.88,96.48-12.69,25.61-1.43,50.87-7.52,76.73-5.81C881.46,262.48,886.45,259.5,886.33,266.8ZM456,354.73c-1.46-6.1,1.12-8.68,5.75-10.25a74.29,74.29,0,0,0,8.82-4c2.46-1.22,4.81-4.32,7.64-1.49,2.1,2.07.62,4.93-.15,7.36-2.9,9.42-11.48,12.28-19.3,14.53C453.59,362.36,456.86,356.22,456,354.73ZM261.88,420.11c6.79-12.75,18.66-19.8,30.88-25.63,49.56-23.61,100.49-44.05,151.8-63.55,6.06-2.31,12.13-4.64,18.3-6.61,3.72-1.19,8.63-6.54,11,1,2.19,7-4.67,6.28-8.28,7.64-21.27,8-42.82,15.32-63.89,23.77-46.46,18.64-91.94,39.45-135.66,64a18.38,18.38,0,0,1-2.77.93l-2.21.2C261.31,421.29,261.61,420.71,261.88,420.11Zm175.05-49c-42.39,18.21-84.3,37.53-125.33,58.66-7.24,3.72-7.72,1.77-8.45-5.39-1.14-11.39,2.77-16.92,13.37-21.6C345,390.23,374,378.73,402.41,366.19a279.27,279.27,0,0,1,45.16-15.47C450.24,361.44,447,366.82,436.93,371.14ZM415.75,816.39c3.28-5.78,3.28-5.78,16.43,0Zm21.12-9c-4-.68-4.54-2.27-1.8-4.85,3.65-3.44,7.63-6.56,12.33-10.54C449.55,807.21,447.83,809.32,436.87,807.4Zm-7.61-10.79q-14.08,8.7-28.42,17c-11.81,6.77-19.59,4.71-27.09-6.56-3-4.43-5.7-11-12.65-6.25-5.79,4-4,9.6-.84,14.69,1.54,2.48,2.72,5.51,4.91,7.21,8.41,6.6,4.84,9.86-2.56,13.87-13.15,7.11-26,14.81-38.59,22.79-5.11,3.22-7.32,2.75-10.31-2.65-10.86-19.59-22.14-38.95-33.6-58.22-2.57-4.3-2.7-6.51,2-9.17,14.15-7.94,28.11-16.22,42-24.63,4.86-2.93,7.73-3.07,10.19,3,2.56,6.28,6.5,12,9.51,18.08,2.79,5.63,6,10.86,13.24,7.31,8.49-4.12,2.68-10,.69-14.77-2.72-6.58-6.26-12.83-9.38-19.26-1.18-2.47-4-5.16-1.52-7.74,1.82-1.94,4.93-1.14,7.22.45,3.4,2.36,5.4.25,5.28-2.54-.27-5.95,4-7.69,7.84-10,6.94-4.21,13.85-8.47,21-12.29,29.67-15.82,61.45,3.55,61.08,36.15C448.47,778.43,441.39,789.11,429.26,796.61Zm60.36,10.9c-3.19-.43-6.49,0-9.76,0-1.68,0-4,.41-3.69,2.15.68,4,2.44,8.19-4.52,6.79-5.31-1-11.67,1.81-13.84-7.54-2.91-12.68-2.63-25.2-1.32-37.67,1.77-17-2.25-33.75-.86-50.64.16-1.94-.42-4.29-2.74-4.5-2.76-.26-4,1.91-4.3,4.36-.37,3-.41,6.13-.61,9.19-1.43-.09-2.25.08-2.64-.23-24.86-20.33-40.37-21.53-68.28-5.34-5.61,3.26-11.46,6.21-16.72,10s-7.73,2.33-10.17-3c-2.31-5-5.42-9.64-8.33-14.34-1.69-2.7-4.25-4.42-7.41-2.81-4,2-1.79,4.75-.28,7.27,2.86,4.74,5.85,9.39,8.43,14.27,1.46,2.75,6.18,6.13,1.27,8.85-4,2.2-4.93-2.83-6.5-5.41-3-5-6-10.06-8.94-15.11-4.34-7.46-10.81-10.58-19.45-10.54-31.28.14-62.55-.13-93.83.13-6.1,0-10-2.53-14.53-6.17-17-13.56-21.82-30.33-21.09-52,1.69-48.14.54-96.4.54-144.6,0-18,6-24,23.56-23.89,11.07,0,22.16.22,33.24-.11,16-.47,23-7.75,23.47-23.62,0-.67,0-1.32.05-2,.55-31.34.61-31.2,29.62-44.69,5.51-2.56,7-1.29,6.8,4.22-.35,10.33.19,20.65-8,29.06-4.07,4.15-6.08,10.06-6.84,15.93-3.15,24.27-3.83,48.78-.12,72.87,2.5,16.33,12.36,30.22,20.93,44.3,10.13,16.62,19.83,33.53,29.43,50.46,4.66,8.21,9.43,16.27,15.75,23.36,13,10.51,28,13.88,44.42,13.37,16.19-.49,32.42.06,48.62-.34,6.1-.13,7.8,1.95,7.37,7.85-.48,6.77.1,13.6.19,20.4,2.15-.06,4.32-.09,6.47-.15.3-7.12,1-14.26.77-21.37-.23-5.9,2.5-6.69,7-5.33C477.35,675.38,489,683.34,495,698c4.83,7.09,5,15.26,5.08,23.32.14,25.4-.27,50.81.23,76.22C500.5,806,497.5,808.61,489.62,807.51Zm794.16,24c-27.63,1.21-53.45-5.61-79.31-12.91-36.34-10.26-73.5-15.87-110.8-20.67C1025,789,956,787.78,887,792.22c-68.27,4.39-135.8,13.87-201.33,34.47-20.12,6.32-40.7,4.1-61.1,3.71-7.52-.14-9.67-9.86-15.39-15.55,10.62,0,21.22.1,31.82-.05,2.6,0,6.66,1,6-3.84-.56-4.44-3.81-2.61-6.62-2.52-10.07.25-20.19,0-30.26.13-7.77.14-7.77.28-5.5,8.14-3.44,0-7.65,1.76-8.4-3.62s3.57-6.22,7.52-6.76a53.48,53.48,0,0,1,7.81-.32c20.2-.06,40.46-1.08,60.58.17,19.09,1.2,36.41-3.85,54.05-9.67,44-14.52,89.47-21.72,135.42-26.41,24-2.44,48-3.82,72.12-4.51,4.56-.15,8.35-.75,8.33,5.92s-3.7,6.36-8.31,6.1c-5.52-.3-11.07-.17-16.61-.17-2,0-4.11.27-4.46,2.73-.43,3.07,1.77,3.8,4.21,4,1.62.15,3.25.36,4.87.36,25.71,0,51.44.12,77.16,0,2.83,0,7.61,1.38,7.88-3.22.35-5.72-4.93-3.94-8-4.11a81.08,81.08,0,0,0-14.61.45c-5.34.65-6.67-1.53-6.86-6.51-.24-5.89,3.42-5.12,7-5.07,76.73,1.33,152.22,10.51,225.14,35.75a57.53,57.53,0,0,1,6.38,3.2,16.73,16.73,0,0,1-2.08,2.21c-2.35,1.58-7.42.52-6.65,4.94.67,3.7,4.82,2.16,7.45,2.22,10.42.21,20.83.44,31.23.17,4.06-.12,8,.6,9.57-6.49,1.25-5.74,9.63-1.67,14.75-2.51,4.25-.71,3,2,2.75,4.85-.48,5.08,4.15,4.2,6.93,4.28,10.23.3,20.48.13,32.06.13C1304,824.59,1297.24,830.87,1283.78,831.48Zm-334-59.6c-.43-4,.08-6.69,4.26-6.59,3.89.1,5,2.27,4.5,5.81-.41,3.17.14,7-4.64,7.08C948.55,778.3,950.25,774,949.74,771.88Zm15.35-6.27c4.54-.73,5.3,2.24,4.89,5.55-.17,3.57-.08,7.24-4.7,7.05-5.84-.23-3.28-6-5-8.93C958.36,765.91,963,766,965.09,765.61Zm360,72.91c-3.26,4.68-8.5,2.05-15.33,2.75,4.62-5.63,6.52-10.85,12.5-9.25C1324.71,832.67,1326.41,836.62,1325.1,838.52Zm-9.57-31.29c5.63,0,8.86,2.07,8.26,7.38-.28,2.51-2.73,2.64-4.59,2.39C1311.9,816,1319,809.92,1315.53,807.23Zm96-81.71.31,95.37c.34,8.92-1.12,12.5-11.31,12-19.46-1-39-.72-58.52,0-8.21.32-11.12-2.09-10.22-10,0,0,.33-11.93-.79-14.09-6-11.6-16.34-11-26.68-11.63-26,.11-52,.78-78,.13-16.79-.41-31.48-9.56-47.39-13.84-35.47-8.71-71.14-16.15-107.58-19.46,0,0-19.89-2.84-48.95-4.56s-71.61-2.52-71.61-2.52c-82.4,2.86-164.31,9.31-242.76,37.69a55.91,55.91,0,0,1-19.17,3c-26.71,0-53.43.09-80.15,0-8.31,0-15.39,2-19.63,9.88-3.51,5.5-2.33,11.67-2.15,17.58.15,5.14-.88,7.44-6.85,7.35-22-.31-44-.17-66.07.18-5.32.08-7.81-1.94-6.11-6.65,0,0,2.4-110.64-1-122.09-7.74-22.21-22.16-37-46.14-40.82l-76.9-1.44c-16.46,0-28.56-7.48-37.19-21-4.49-7.08-8.53-14.45-12.75-21.69-9.31-16-18.7-32-27.85-48-8.91-15.71-12.63-17.69-14.76-25.77-6.44-24.29-4.29-53.34-1.59-78.32,1.94-18.08,26.83-30.89,26.83-30.89L465.5,366.32c21.25-9.42,23.81-15.63,16.67-37.95-1.1-3.41-1.82-6.91-2.88-10.31-4.44-14.26-4.44-14.22,10.16-19.29C506,293,522.58,287.43,539,281.23c5.73-2.15,8.25-1.66,9.17,4.86l15.92,37.35c6.51,4.7,13.15,6,21.08,4,42.57-10.4,85.36-19.8,128.65-26.82A1606.26,1606.26,0,0,1,905.9,281.57c25.39-1,80.94-1.2,80.94-1.2a1650.56,1650.56,0,0,1,223.24,21.24q62,10.18,122.89,25.67c11.26,2.85,19.93,0,26.48-9.08l7.65-20c7-19,6.93-19,26.05-12.36,15,5.24,29.94,10.75,45.12,15.45,6.08,1.9,6.46,4.65,4.62,9.8-2.86,7.92-5.34,16-7.7,24.07-4.1,13.91.17,23,13.49,29.19l159.23,74.24c14.64,6.83,21.94,27.6,21.94,27.6,2.85,25.56,4.18,51.24-.86,76.75-.61,3.12-2.7,6-5.42,10.32-13.75,21.69-51.75,89.56-51.75,89.56-6.69,11.25-17.42,17.2-30.59,18.39l-82.67,1.7c-9.08,1.52-17.3,5.32-25.22,9.88C1417.07,686.65,1410.75,704.26,1411.52,725.52Zm328.13-45.86c-.19,10.47-10.74,15.33-17.23,22.24-4.89,8.86-12,11.83-22.39,11.58-29.26-.71-58.56.13-87.82-.24-11.15-.13-18.27,4.39-23.39,14-13.89,26-28.34,51.81-42.18,77.9-4.06,7.71-8.75,11.6-18.2,10.9-13.51-1-27.14-.28-42.72-.28,5.91-2.26,10.31-4.07,14.79-5.67,3-1.06,4.21-2.93,3.26-5.94-1.11-3.57-3.46-1.61-5.53-1.16-6.65,1.44-13.32,2.79-20,4.25-5.54,1.23-7.76-.79-7.37-6.54a155.72,155.72,0,0,0,0-15.58c-.1-2.86.17-6.85-3.6-7-4.68-.16-2.57,4.28-2.87,6.65-1.1,8.56,1.33,17.54-3.62,25.69-1.28,2.1,1.31,8.44-3.93,5.57-4.66-2.54-13.31,6.66-14.23-5.11-.41-5.08-4.71-3.36-7.63-3.43-15.6-.3-15.52-.27-15.46-16.1.09-24.06,0-48.14.09-72.2,0-11.69,2.7-22.5,11.21-31.16,6.18-10,16.07-14.41,26.88-17.31,4.24-1.14,6.88-.17,6.49,5.09-.39,5.46-.38,10.95-.53,16.45,1.14,2,.06,5.48,3.74,5.7,4.51.28,2.48-4.35,4.4-6.06,0-1.19.13-2.39.2-3.57-.3-4.19-.65-8.39-.89-12.58-.19-3.62.14-6.84,5.23-5.38,19.46-1.8,38.94-.25,58.41-.77,22.6-.6,38.2-11.48,49.45-30.76L1628,562.45c9.55-14.44,12.62-30.2,11.66-47.28-.74-13.28-.41-26.63-.59-40-.11-10.77-3.29-20.73-10.38-28.7-7.77-8.73-5.46-18.86-5.72-28.72-.11-4.6,2.86-3.29,5.25-2,9.15,4.86,18.23,9.91,27.42,14.68,4,2.07,3.94,5.57,4,9.14.08,8.46-.1,16.92.14,25.36.39,13.92,8.09,21.59,21.91,21.72,13.31.17,26.65-.13,40,.13,8.92.15,18.25,9.07,18.31,17.93.15,23.39-.15,46.76-.28,70.15C1739.71,609.82,1740.28,644.75,1739.65,679.66Z"/><path class="cls-1" d="M1629,543c-.61,3.12-2.7,6-5.42,10.32-13.75,21.69-51.75,89.56-51.75,89.56-6.69,11.25-17.42,17.2-30.59,18.39l-82.67,1.7c-9.08,1.52-17.3,5.32-25.22,9.88-16.27,13.85-22.59,31.46-21.82,52.72l.31,95.37c.34,8.92-1.12,12.5-11.31,12-19.46-1-39-.72-58.52,0-8.21.32-11.12-2.09-10.22-10,0,0,.33-11.93-.79-14.09-6-11.6-16.34-11-26.68-11.63-26,.11-52,.78-78,.13-16.79-.41-31.48-9.56-47.39-13.84-35.47-8.71-71.14-16.15-107.58-19.46,0,0-19.89-2.84-48.95-4.56s-71.61-2.52-71.61-2.52c-82.4,2.86-164.31,9.31-242.76,37.69a55.91,55.91,0,0,1-19.17,3c-26.71,0-53.43.09-80.15,0-8.31,0-15.39,2-19.63,9.88-3.51,5.5-2.33,11.67-2.15,17.58.15,5.14-.88,7.44-6.85,7.35-22-.31-44-.17-66.07.18-5.32.08-7.81-1.94-6.11-6.65,0,0,2.4-110.64-1-122.09-7.74-22.21-22.16-37-46.14-40.82l-76.9-1.44c-16.46,0-28.56-7.48-37.19-21-4.49-7.08-8.53-14.45-12.75-21.69-9.31-16-18.7-32-27.85-48-8.91-15.71-12.63-17.69-14.76-25.77-6.44-24.29-4.29-53.34-1.59-78.32,1.94-18.08,26.83-30.89,26.83-30.89L465.5,366.32c21.25-9.42,23.81-15.63,16.67-37.95-1.1-3.41-1.82-6.91-2.88-10.31-4.44-14.26-4.44-14.22,10.16-19.29C506,293,522.58,287.43,539,281.23c5.73-2.15,8.25-1.66,9.17,4.86l15.92,37.35c6.51,4.7,13.15,6,21.08,4,42.57-10.4,85.36-19.8,128.65-26.82A1606.26,1606.26,0,0,1,905.9,281.57c25.39-1,80.94-1.2,80.94-1.2a1650.56,1650.56,0,0,1,223.24,21.24q62,10.18,122.89,25.67c11.26,2.85,19.93,0,26.48-9.08l7.65-20c7-19,6.93-19,26.05-12.36,15,5.24,29.94,10.75,45.12,15.45,6.08,1.9,6.46,4.65,4.62,9.8-2.86,7.92-5.34,16-7.7,24.07-4.1,13.91.17,23,13.49,29.19l159.23,74.24c14.64,6.83,21.94,27.6,21.94,27.6C1632.7,491.76,1634,517.44,1629,543Z"/><path class="cls-2" d="M303.17,659.15c3,.15,4.13,2.1,5.27,4.11,5.41,9.56,10.89,19.09,16.21,28.7,1,1.75,3.48,3.94.75,5.84-2.43,1.7-5,.71-6.63-1.82-6-9.55-13.23-18.41-17.3-29.07C300.46,664.29,298.39,660.59,303.17,659.15Z"/><path class="cls-2" d="M303.47,621.43c0,5.17,0,10.34,0,15.51,0,2.07.81,4.88-2.86,4.84-2.57,0-4.46-1-4.42-3.93.15-11.94.3-23.88.62-35.82,0-1.81.53-4.16,3.16-4,2.36.11,3.2,2.08,3.24,4.07.12,6.46,0,12.92,0,19.37Z"/><path class="cls-2" d="M1616.31,672.32c-4.91,7.58-9.7,15.25-14.77,22.72-2.2,3.24-4.85,7.19-8.51,1.1,5.64-10.43,11.2-20.91,17-31.28,1.52-2.72,3.57-6.84,7-5.35,4.55,2,1.27,6,.32,9.1C1616.93,669.84,1616.64,671.08,1616.31,672.32Z"/><path class="cls-2" d="M1622.93,621.07c0,5.51,0,11,0,16.52,0,2.33-.33,4.81-3.37,4.86-2.27,0-3.54-1.77-3.64-3.82a271.68,271.68,0,0,1,.55-37.85c.17-1.85,1.31-3,3.24-2.65a3.45,3.45,0,0,1,2.76,3.54c.11,6.47,0,12.94,0,19.4Z"/><path class="cls-2" d="M1510.07,788a25.26,25.26,0,0,1-25.45-25.22,25.63,25.63,0,0,1,25.78-26c13.88.13,25.61,11.63,25.73,25.23C1536.25,775.75,1523.92,788.05,1510.07,788Zm.61-7.72c8.87,0,17.69-9.39,17.53-18.67-.15-9-8.64-17.15-17.87-17.14-9.48,0-18,8.55-18.06,18.08C1492.23,771.8,1501,780.23,1510.68,780.24Z"/><path class="cls-2" d="M1563.17,752.72c-4.26-.09-4.31-2.8-3.17-5.37a164.31,164.31,0,0,1,19.5-32.5c1.35-1.79,3.33-1.85,5.3-1.12a2.69,2.69,0,0,1,1.72,3.9c-5.66,12.08-12.29,23.59-21,33.79A7.54,7.54,0,0,1,1563.17,752.72Z"/><path class="cls-2" d="M1525,799.68a5.1,5.1,0,0,1-5-2.46c-1.25-2.05-.21-3.92,1.42-5,10-6.75,18.53-15.12,26.6-24,1-1.16,2.74-2.23,4.27-1a4.65,4.65,0,0,1,1.33,3.31C1553.48,776.12,1530.53,799.31,1525,799.68Z"/><path class="cls-2" d="M1464.42,738c0-5.84-.09-11.68.06-17.52,0-1.74-.41-4.25,2.31-4.54,2.44-.27,3.51,1.77,3.68,3.67a251.19,251.19,0,0,1,.07,38.89c-.12,1.82-1,3.32-2.93,3.12-2.2-.24-3.3-2-3.32-4.16-.06-6.49,0-13,0-19.46Z"/><path class="cls-2" d="M823.21,783.59c3.32.56,7.45-3.07,8.43,2.33.93,5.15-4,4.5-6.57,5-9.8,1.86-19.68,3.31-29.57,4.55-2.45.31-6.43,2.09-7.07-2.32-.53-3.64,2.67-4.7,5.71-5.17C804,786.46,813.89,785,823.21,783.59Z"/><path class="cls-2" d="M1037.18,778c9.91.89,18.3,1.55,26.66,2.47,2.15.23,5,.91,5.05,3.57.06,3.28-2.82,4.09-5.53,3.92-11-.68-21.93-1.48-32.89-2.34-2.89-.23-6.27-.41-5.68-4.73.53-3.83,3.76-2.72,6.15-2.85C1033.52,777.91,1036.12,778,1037.18,778Z"/><path class="cls-2" d="M1096,783.68c9.55,1.4,20.11,2.83,30.63,4.55,2.34.38,5.89.81,5.38,4.24-.45,3-3.73,3.46-6.28,3.13-10.55-1.33-21.11-2.74-31.59-4.54-2.76-.48-7.55-.46-6.52-5.23C1088.42,781.87,1092.28,784,1096,783.68Z"/><path class="cls-2" d="M886.58,778c-.66,0,1.6,0,3.86,0s3.8.6,4,3.07-1.31,3.62-3.42,3.8q-18.3,1.63-36.61,3.06c-2,.16-3.85-.23-3.86-3,0-3.49,2.35-4.3,5.08-4.52C865,779.61,874.32,778.92,886.58,778Z"/><path class="cls-2" d="M1193.18,805.74c-14.3,1.19-27.47-3.6-41-5.87-2.27-.38-3.39-1.76-3.16-4a2.39,2.39,0,0,1,2.75-2.15C1166.41,794.6,1180.82,796.55,1193.18,805.74Z"/><path class="cls-2" d="M730.83,809.64c-2-.52-4.58.9-5-2.07-.32-2.36,1.49-3.35,3.41-4a241.33,241.33,0,0,1,36.48-9.36c1.83-.32,4.12-.7,4.9,1.75a3.86,3.86,0,0,1-3,5.21C755.3,804.14,742.89,806.89,730.83,809.64Z"/><path class="cls-2" d="M686.83,814.73c-5.83,0-11.66.18-17.48-.1-2-.1-4.9-.49-4.49-3.76.32-2.56,2.34-2.51,4.42-2.44a274.77,274.77,0,0,0,34-.65c3-.27,7.88-.87,8,3.09s-5,3.14-7.88,3.53c-5.44.74-11,.63-16.49.87Z"/><path class="cls-2" d="M434.81,762.84a25.5,25.5,0,0,1-25.48,25.27,26.08,26.08,0,0,1-25.72-26.3c.16-14.42,11.74-25.31,26.56-25A25.32,25.32,0,0,1,434.81,762.84Zm-8-.1c.19-9.67-8.22-18.77-17.4-18.81s-17.93,8.88-18,18.42c-.07,10,7.74,17.74,18,17.81C418.56,780.22,426.65,772.12,426.84,762.74Z"/><path class="cls-2" d="M366.93,766.06c7.41,3,10.76,10.17,16.49,14.59,4.59,3.54,9.24,7,13.8,10.56,1.81,1.42,3.59,3.12,2.31,5.69a5.12,5.12,0,0,1-5.57,2.94C385.81,798.86,366.66,775.34,366.93,766.06Z"/></g><g id="Capa_3" data-name="Capa 3"><path class="cls-3" d="M849.55,636.56l-5.78,20.49-2.82,10-7.31,25.71H823.2l7.31-25.71,2.81-10,5.79-20.49Z"/><path class="cls-3" d="M913.83,635.35V691.6h-10V655.76l-9.88,7.55-8.2,6.35-8.19-6.35-9.89-7.55V691.6h-10V635.35l10,7.72L885.71,657l18.08-13.9Z"/><path class="cls-3" d="M973.3,663.23a16.6,16.6,0,0,1-11.89,28.13H938.34a16.49,16.49,0,0,1-15.26-10.13,17.29,17.29,0,0,1-1.29-6.51V651.66A16.27,16.27,0,0,1,926,640.82a16.93,16.93,0,0,1,4.82-3.78,15.86,15.86,0,0,1,7.55-1.85h35v10h-35a6.61,6.61,0,0,0-6.58,6.58v7.88a16.48,16.48,0,0,1,6.26-1.29h23.71a16.57,16.57,0,0,1,11.65,5.07Zm-12,18.08a6.61,6.61,0,0,0,6.58-6.59,6.54,6.54,0,0,0-6.18-6.58H938a6.59,6.59,0,0,0,.32,13.17h23Z"/><path class="cls-3" d="M1042.16,681.71v10H986.08V675.21a16.08,16.08,0,0,1,1.36-6.51,16.5,16.5,0,0,1,14.63-10.13h24.34a6.56,6.56,0,0,0-.56-13.09H986.24V635.43h39.61A16.52,16.52,0,0,1,1042.4,652a16.38,16.38,0,0,1-4.74,11.5,16.69,16.69,0,0,1-11.33,5.06h-24.26a6.54,6.54,0,0,0-5.87,6.51v6.5Z"/><path class="cls-3" d="M1095,645.32a17.52,17.52,0,0,1,1.84,7.87v38.33h-10V652.23a8,8,0,0,0-6.83-6.83h-29.49v-10H1079a17.4,17.4,0,0,1,7.87,1.85,17.82,17.82,0,0,1,8.12,8.2Z"/><path d="M861.83,476.14v111H842V516.42l-19.51,14.91-16.18,12.53-16.18-12.53-19.51-14.91v70.75H750.8v-111l19.82,15.22,35.69,27.44L842,491.36Z"/><path d="M986.18,496.12A34.5,34.5,0,0,1,988.71,509v45.52a32.69,32.69,0,0,1-10.46,24.11,33.76,33.76,0,0,1-7.3,5.23A31.42,31.42,0,0,1,956,587.48H887V567.66h69a13.07,13.07,0,0,0,13-13V539.11a32.68,32.68,0,0,1-12.38,2.53H909.88a32.75,32.75,0,0,1,.48-65.5h45.52a32.58,32.58,0,0,1,30.14,20ZM897.51,509a13.06,13.06,0,0,0,12.37,13h46.79a13,13,0,0,0-.63-26H910.52A13.07,13.07,0,0,0,897.51,509Z"/><path d="M1113.06,496.12A34.31,34.31,0,0,1,1115.6,509v45.52a32.69,32.69,0,0,1-10.47,24.11,33.76,33.76,0,0,1-7.3,5.23,31.39,31.39,0,0,1-14.91,3.65h-69V567.66h69a13.07,13.07,0,0,0,13-13V539.11a32.67,32.67,0,0,1-12.37,2.53h-46.79a32.75,32.75,0,0,1,.47-65.5h45.53a32.55,32.55,0,0,1,30.13,20ZM1024.4,509a13.06,13.06,0,0,0,12.37,13h46.79a13,13,0,0,0-.64-26H1037.4A13.06,13.06,0,0,0,1024.4,509Z"/><path d="M1169.52,513.09v75.5H1149.7V511a15.83,15.83,0,0,0-13.49-13.48h-4.44V477.88h4.28V478a35.64,35.64,0,0,1,13.49,3.65,35.17,35.17,0,0,1,16,16.18,41.44,41.44,0,0,1,2.69,7.45,33,33,0,0,1,1,8.09Z"/></g></g></svg>