<svg xmlns="http://www.w3.org/2000/svg" viewBox="0 0 1920 1080"><defs><style>.cls-1{fill:#f2f2f2;}</style></defs><g id="Capa_2" data-name="Capa 2"><g id="Capa_1-2" data-name="Capa 1"><rect class="cls-1" x="1919" y="1079" width="1" height="1"/><rect class="cls-1" width="1" height="1"/><rect class="cls-1" y="1079" width="1" height="1"/><rect class="cls-1" x="1919" width="1" height="1"/></g><g id="Capa_3" data-name="Capa 3"><path d="M378.63,986.67c4.66-.88,8.83-3.18,13.86-5.3-1.95,4.65.38,4.61,3.32,4.61,24.7-.05,49.39,0,74.09,0,3.77,0,3.84-.12,2.12-3.65-.25-.53-.43-1.1-.94-2.41,2.85,2.47,5.65,3.42,8.4,4.5,4.19,1.64,4.25,1.67,4.26-3,0-14.44,0-28.88,0-43.32q0-132,.05-264c0-5.31.08-10.62.18-15.92,0-1.6-.12-2.25-2.2-2.12-11.82.72-23.66,1.21-35.5,1.67-1.91.08-3,.23-2.75,2.61,1.57,14.89.94,29.84,1,44.77.07,30.36,0,60.73-.05,91.09,0,3.21-.37,6.41-.39,9.62,0,2.22-1.12,2.94-3.14,3.2-6.53.82-13.05.52-19.59.4-3-.06-4.33-1.23-4.15-4.07.15-2.5-1.07-2.81-3.28-3.21-3.9-.7-7.56,1.71-11.53.31-1.53-.54-1.34,1.65-1.37,2.78-.05,2.14-.25,4-3.12,3.85l-2.26.08c-5.43,0-10.86-.07-16.29-.13s-6.26-.65-5.48-5.53a53,53,0,0,0,.29-8.7c.1-46.54.09-93.09.25-139.63,0-4.58,1.53-9.06,1.4-13.76-.09-3-1-3.56-3.76-3.56q-49.65.09-99.29,0H268c1.44-2.26,3.21-1.39,4.64-1.45a88.39,88.39,0,0,1,9.63,0c2.48.15,2.63-1,2.11-2.84a24.52,24.52,0,0,0-3.08-7.47c-1.4-2-.68-2.42,1.28-2,2.33.53,2.61-.55,2.6-2.56q-.15-69.63-.23-139.25a18.26,18.26,0,0,0-.24-2.2,90.54,90.54,0,0,0,0-14.82,5.28,5.28,0,0,0,0-3.05,81.43,81.43,0,0,0-.05-14.73c.31-9.88.65-19.76.13-29.65.32-11.87.63-23.75-.08-35.63a30.11,30.11,0,0,0,.33-3.28q.06-64.78.11-129.56c0-1.83,0-3.28-2.54-2.59-1.7.46-1.9-.3-1.37-1.78.78-2.19,1.38-4.42,2.91-6.3.74-.91,1.58-2.19.89-3.39s-2-.47-3-.49a68,68,0,0,1-9.75-.53c1.29-1.32,2.85-.95,4.27-.95,31.72,0,63.44,0,95.17.1,3.11,0,4.19-.54,4-3.9-3.31-53.18-.91-106.42-1.5-159.64-.09-8.77,0-8.79,8.89-8.94,3.7-.07,7.42.16,11.1-.17s5.47,1.33,6.5,4.47c.39,1.2.34,2.65,1.89,3.14a3.09,3.09,0,0,0,2.7.4l5.17,0,2.24,0c3,.6,4.78-.18,4.42-3.69-.3-2.89,1-4.27,4-4.19,6.26.19,12.55-.69,18.79.57,2.46.5,3.57,1.75,4,4.38.76,5.16.53,10.32.53,15.48q0,59.57-.11,119.15c0,3.79-.9,7.56-.5,11.38,0,1.83,1.15,1.45,2.25,1.2,10.48.37,21,.76,31.45,1.1,2.28.07,4.44,1,6.77.76,1.1-.1,1.7.7,1.79,1.89.12,1.58.57,3.15.58,4.73,0,14.56-.13,29.13.1,43.69.06,3.5-2.61,5.83-2.46,9.43.48,10.72-.86,21.65.72,32.16,1.49,9.95,2.31,19.89,1.27,29.63-3.18,29.79-.94,59.59-1.24,89.37-.08,8.6,0,8.57,8.67,8.87,3,.1,6.12-.4,9.18.32-.32,1.87-1.72,1.26-2.67,1.29-4.07.13-8.14.17-12.22.18-1.88,0-2.87.45-2.9,2.71-.36,28.14-.8,56.29-.47,84.43,3.5,8.56,2.52,17.63,1.73,26.3-1.41,15.46-3.24,31.07-1.25,46.32,1.83,14,1.82,27.95,1.45,41.88-3.25,120.69-.69,241.39-1.35,362.08,0,1.46.53,3.12-1.55,5.31,0-5.33,0-9.67,0-14,0-3.79-.87-4.33-4.35-2.49-2.12,1.11-4.6,1.64-6.27,3.6-.29.35-1,1-1.54.21s.07-.92.6-1.36a2.63,2.63,0,0,0,1-3.2c-.6-1.23-2-.73-3-.73q-36.87-.06-73.73-.07c-5.39,0-5.39,0-3.53,4.86l-13.41-4.85Zm88.79-586q-.24,15.81-.47,31.64c0,3,2.31,1.36,3.49,1.49s3.41,1.14,3.36-1.8c-.18-9.94-.28-19.89-.41-29.83.08-18.12-.05-36.24.35-54.36.11-5-3-6.47-6.54-9.21,0,12.45,0,24.14,0,35.84C467.24,383.22,467.35,392,467.42,400.71ZM435.7,436.52H407.61c1.31-2.34,2.52-1.84,3.51-1.84,12.23-.08,24.45-.17,36.68-.14,1.82,0,2.74-.21,2.72-2.32-.1-10.73-.1-21.47-.13-32.2a14.71,14.71,0,0,0,0-5.21l0-11.09,0-1.5c.05-.86.16-1.72.16-2.58q0-61.85-.06-123.71c0-4.8,0-9.6-.51-14.41-.32-3-1.55-3.6-4.16-3.6-15.8,0-31.61-.13-47.42-.2-5.79,0-5.81,0-5.81,6q0,67.41,0,134.83c0,1,.09,2,.14,3l0,2.24v1.46q0,16.68,0,33.36c0,4.66,0,9.33-.17,14-.1,2.25.91,2.39,2.64,2s3.43-.58,5,.77a4.67,4.67,0,0,1-4.06.95c-3-.36-3.88.94-3.67,3.8.26,3.42.16,6.86.21,10.3q0,15.93-.05,31.86,0,10.35,0,20.72l0,37.8q-.06,45.18-.18,90.37c0,2.65,1.49,2.23,3.07,2.23q24.27,0,48.54,0a11.61,11.61,0,0,0,3.64-.47c1-.32,1.76-.56,1.83-1.86.14-2.69.89-5.31.87-8.06-.06-10.49.1-21,.09-31.48,0-17.16-.09-34.31-.14-51.47a114.51,114.51,0,0,0-.05-14.82l0-43c0-3,0-5.94,0-8.92l0-14.95c0-1.93,0-3.85,0-5.78,0-4.55,0-9.11.1-13.66.06-2-.64-2.56-2.56-2.49C443.82,436.58,439.76,436.5,435.7,436.52Zm28.37-.18c.08-.76.15-1.53.22-2.3q0-10.17,0-20.35,0-35.73,0-71.45c0-.51,0-1,0-1.54,0-1.47.58-3.2,0-4.38-2.17-4.43-1.42-9.15-1.93-13.75-.85-7.59,1.78-14.77,2.22-22.23,1-16.66-2.37-33-2.3-49.61,0-1.85,0-3.71-.18-5.55-.3-3-2.28-4-6.87-3.6-3,.25-1.76,2.56-1.76,4q-.15,43-.11,85.92c0,20.37.18,40.74.27,61.11v6q0,11.46-.05,22.92c0,1.25,0,2.49,0,3.74,0,1.47,0,2.93-.09,4.39-.1,2.55-.25,5.1,3,6a.83.83,0,0,0-.12.65c-3.05-.14-2.81,2-2.81,4q-.07,92.2-.25,184.42c0,4.2,2.39,3.3,4.75,3.53,2.81.27,4.32-.3,4.27-3.67-.14-8.51.46-17,0-25.54-.4-7.6,3.33-14.66,2.25-22.25-.13-.89.8-2-.44-2.65-2-1.13-1.73-3.07-1.71-4.9.16-13.59.83-27.14,1.59-40.71,1.45-26.09.34-52.32.22-78.49C464.25,445.42,465,440.87,464.07,436.34ZM375.48,481.5V453.32c.06-4.07.13-8.14.16-12.21,0-4.76,0-4.77-4.72-4.79h-8.68l.07-1.68c3.06,0,6.13-.22,9.16.06,3.32.29,4.27-.73,4.26-4.18q-.17-96.07,0-192.16c0-3.14-1.09-3.54-3.76-3.54-21.24.07-42.48,0-63.71,0-6.3,0-12.6,0-18.89-.09-2.15,0-2.66.73-1.91,2.6,1,2.49,1.94,5,3,7.46.45,1,.51,2.42-.61,2.27-4.27-.58-3.14,2.44-3.15,4.48q-.13,44.07-.16,88.13c0,13.93.14,27.87.21,41.81-.22,12.11-.61,24.21,0,36.31-.4,9.14-.4,18.27-.09,27.41-.49,12.84-.53,25.67,0,38.51-.06,1.35-.19,2.71-.19,4.06q.09,65.7.19,131.41c0,5.06,0,5.06,4.81,4.92-.63,1.18-1.33,2.32-1.87,3.53s-1.07,2.72-1.55,4.09c-1.63,4.6-1.63,4.6,3,4.6,27.28,0,54.56,0,81.84.17,2.91,0,2.73-1.22,2.73-3.18,0-27.52,0-55,0-82.55,0-8.27-.14-16.53-.21-24.79,0-.51,0-1,0-1.53V502.74l0-11.64Zm4.33,249.68h-.1q0,35.36,0,70.7c0,1.68-.05,2.44,2,2.31,4.17-.25,8.37-.2,12.56-.16.92,0,1.77-.31,1.33-1-1.69-2.8.18-5.45.17-8.17-.19-43.07-.18-86.14-.2-129.21,0-9.41,4.28-13.78,13.69-13.86,22.71-.18,45.41-.57,68.11-1.44,2.72-.11,3.6-.71,3.55-3.51-.2-11.23-.65-22.48-.07-33.68.42-8.11-3.62-13.14-9.17-17.76-.84-.69-1.83-1.65-2.93-1.1s-.37,1.78-.37,2.69c0,8.51.24,17,0,25.54-.31,11.8,2,11.32-10.82,11.75-.92,0-2.17-.31-2.25,1.19-.19,3.37-2.47,3.33-5,3.33-18,0-36.05-.32-54.06.49-5.67.25-9.34,4-9.61,9.78-.09,2,0,3.94-.25,5.89-.21,1.72-1.15,3.22-3.13,2.88-3.32-.56-3.51,1.21-3.51,3.78Q379.86,696.38,379.81,731.18Zm15.86-592.35h-.13V114.39c0-14.8-.07-29.61.08-44.42,0-2.68-.67-3.43-3.31-3.18a40.17,40.17,0,0,1-8.13-.08c-3.27-.36-4.14.75-4.13,4.05.12,27.65.05,55.29,0,82.93,0,18,.06,36-.21,54.05-.05,3.36.34,5.07,4,4.72,1.42-.14,1.72,1.08,2.22,2.08,1,2,.58,4.11.6,6.14.07,8.06,2.92,11,11.07,11,14.69,0,29.38,0,44.06.08a50.51,50.51,0,0,1,10.7.65c.81.17,1.85-.13,2.11,1,.45,2,2.06,1.73,3.48,1.94,2.18.34,4.35.8,6.54,1,2.82.31,3.86,1.61,3.75,4.56-.23,6.16-.06,12.34-.06,18.51,0,4.69,0,4.67,4.83,4.63a51.11,51.11,0,0,1,5.54.16c1.41.13,2-.17,2-1.72q-.09-20-.05-40c0-2.06-1-2.39-2.74-2.44-5.92-.18-11.84-.36-17.75-.79-17.74-1.31-35.53-.67-53.28-1.45-8.29-.36-11.2-3.25-11.22-11.7C395.63,183.75,395.67,161.29,395.67,138.83Zm42.73-4.54h.05c0-12.21.06-24.43,0-36.65-.06-9.26-.33-18.51-.4-27.76,0-1.95-.4-2.76-2.63-2.81-3.09-.07-6.18.21-9.23,0-3.24-.2-3.83,1-3.82,4,.08,38.38,0,76.77,0,115.15,0,9.1,3,12.09,11.78,14.72,4.23,1.26,4.27-.21,4.26-3.35Q438.36,166,438.4,134.29Zm.09,602h-.41c0-20.84.06-41.69,0-62.53,0-5.19-.26-5.19-5.22-3.85a15.09,15.09,0,0,0-2.11.63c-2.35,1-5.15,1.69-6.07,4.35a39.62,39.62,0,0,0-2.1,12.8q-.1,45.52-.22,91c0,7.52,0,15-.22,22.57-.05,2,.51,2.47,2.43,2.41a63.79,63.79,0,0,1,10.35.22c3.2.41,3.68-.82,3.67-3.62C438.45,779,438.49,757.63,438.49,736.29Zm-37-604.15h0c0,19.26,0,38.51-.05,57.77,0,2.06.3,2.73,2.57,2.51a46,46,0,0,1,9.24.12c2.51.27,3.31-.19,3.3-2.95q-.19-56.47-.15-112.94c0-4.78,0-4.79-5-4.85a56.75,56.75,0,0,1-7-.09c-2.71-.38-2.92.83-2.91,3C401.56,93.88,401.53,113,401.53,132.14ZM385.35,435.38V458q0,87,0,174.08c0,1-1.39,3.23,1.55,3.1,2.22-.1,2.93-1.13,2.85-3.28-.13-3.7,0-7.41,0-11.11q0-185.56,0-371.13V238.52c0-1.27,0-2.36-1.69-2.76-3.3-.78-2.85,1.34-2.86,3.32C384.8,304.51,385.09,370,385.35,435.38Zm31,305.39h0q0-27,0-54.08c0-5.07,0-5.08-4.86-5.16-2.47,0-4.95.08-7.4-.12-2.12-.16-2.63.55-2.63,2.64q.06,56.49-.09,113c0,1.85.23,2.55,2.36,2.35a33.54,33.54,0,0,1,9.23.09c3.16.61,3.42-.53,3.41-3.14C416.33,777.81,416.37,759.29,416.37,740.77ZM378,327.39h0q0,26.12,0,52.22c0,17.4,0,34.81,0,52.21,0,1.72.21,2.58,2.13,2.28,1.41-.22,2.89.24,2.71-2.29-.38-5.29-.45-10.6-.45-15.91q0-88.87,0-177.76c0-6.28-1.05-12.45-1.51-18.68-.06-.87-.09-1.94-1.18-2-1.45-.12-.83,1.22-1,1.9-.85,3.51-.66,7.11-.67,10.67Q378,278.69,378,327.39Zm1.28,325.07a3.1,3.1,0,0,0,2.14-3.14c.15-3.24-1.93-6.69.9-9.71.19-.2.05-.72.05-1.09,0-3,.13-5.92.12-8.88q-.12-66.07-.25-132.14c0-19.37.09-38.75.09-58.12,0-1.06.71-2.65-1.32-2.84-1.17-.11-2.34,0-2.79,1.27a7.67,7.67,0,0,0-.2,2.55Q378,540.49,378,640.6A40.42,40.42,0,0,0,379.28,652.46Zm87.6-121.74c4-1.91,7-3,6.93-8.13-.4-27.63-.24-55.28-.2-82.92,0-1.85-.31-2.51-2.35-2.63-3-.17-4.46.58-3.94,3.83a21.59,21.59,0,0,1,.11,3.69q-.27,37.95-.55,75.89C466.86,523.74,466.88,527,466.88,530.72ZM481.6,290.29h-.34c0-5.92-.06-11.85,0-17.77,0-1.63-.46-2.2-2.09-2.14-3.21.14-6.42.17-9.63.15-1.33,0-2.08.3-2.11,1.81q-.27,17.58-.63,35.16c0,1.63.55,2.16,2.15,2.11,3.33-.11,6.67-.18,10,0,2.06.09,2.73-.47,2.66-2.63C481.48,301.4,481.6,295.84,481.6,290.29Zm.16,99.33h0q0-20.91,0-41.84c0-1.26.58-2.59-1.53-3.1-3.2-.78-3.82.51-3.81,3.37q.14,41.29.12,82.58c0,.49,0,1,0,1.48,0,2.85,2.17,1.6,3.49,1.88,1.89.42,1.79-.75,1.79-2.15C481.74,417.77,481.76,403.7,481.76,389.62Zm0,92.25h-.06c0-13.82,0-27.65,0-41.47,0-1.5.79-3.45-2.27-3.47-2.87,0-2.84,1.45-2.84,3.45,0,11.6-.15,23.2-.2,34.8-.06,16.17,0,32.33-.2,48.5,0,2.89,1.59,2.31,3.26,2.45,1.91.17,2.42-.4,2.4-2.42C481.7,509.76,481.76,495.82,481.76,481.87Zm-13.33,85.88c3.54-1.9,6-4.4,8.69-6.68a9.88,9.88,0,0,0,3.57-7.77c.07-6.41,0-12.82.07-19.23,0-2-.59-2.21-2.45-1.61-4.62,1.49-10.3,6.12-10,12.47C468.72,552.31,468.43,559.72,468.43,567.75ZM417.66,668.07h0c0-2.72,0-5.43,0-8.14,0-1.55-.51-2.25-2.17-2.12-3.43.29-6.88.5-10.33.64-1.93.09-2.72.93-3.07,2.89-.92,5.15-.33,10.34-.63,15.5-.1,1.68.74,1.65,2,1.6,3.82-.14,7.65-.22,11.47-.09,2,.07,2.7-.6,2.65-2.51C417.61,673.25,417.66,670.66,417.66,668.07ZM409.4,195.44c-7.92.05-7.92.05-7.83,8,0,.5,0,1,0,1.49.09,6.42,1,7.34,7.51,7.54,8.82.28,8.82.28,8.82-8.44S417.91,195.38,409.4,195.44Zm71.31,132.48h.08v-5.55c0-6.58,0-6.58-6.56-6.68-5.94-.09-5.94-.09-5.9,5.67,0,1.48.1,3,.07,4.44-.13,6.66,5.36,9.16,9.49,12.54,1.49,1.22,3.13.92,2.87-1.91S480.71,330.76,480.71,327.92Zm.87,238.1c-8.77,7.21-7.73,3.63-7.27,21.23.12,4.4,5.31,5.79,8,10C481.43,586.14,481.59,576.18,481.58,566Zm-51.25,91.54c-10.07.3-10.07.3-9.5,8.72a5.93,5.93,0,0,1,0,.73c-.06,1.7,1,1.63,1.83.89,4.24-3.92,9.45-4.41,14.79-4.23,2.88.09,2.58-1.68,2.72-3.57.17-2.29-1-2.64-2.85-2.56C435,657.64,432.66,657.56,430.33,657.56Zm-9.66-454.7c0,2.22.11,4.66,0,7.08-.11,1.93.6,2.55,2.51,2.52,4.79-.07,9.58-.05,14.36.14,2.32.1,2.51-1,2.57-2.87s-.43-2.63-2.37-2.64c-5.18,0-10.23-.63-14.53-4A2.2,2.2,0,0,0,420.67,202.86Zm46.58,378.07h.29c0,1.6,0,3.19,0,4.78,0,1.12-.44,2.52,1.61,2.54s2-1.37,2-2.73c-.11-3.55-.27-7.1-.46-10.65-.05-.89.26-2.17-1.25-2.18-1.25,0-1.64,1-1.75,2C467.45,576.76,467.39,578.85,467.25,580.93Zm-81.8,406.23a21.38,21.38,0,0,0,2.26.32c.87,0,2,.65,2.44-.65a1.21,1.21,0,0,0-.25-.94c-.9-1.25-1.67.05-2,.4C387.13,987,386.12,985.77,385.45,987.16Z"/><path d="M880.21,508.14c-.13-3.63-1.42-7.06-2.08-10.59-1-5.05-1.32-10.17-2-15.22-.9-7-1.31-14.08-2.28-21.13-.9-6.53-.23-13.27-.26-19.92,0-5.16-1.25-6.4-6.21-4.92-2,.61-3.06-.56-4.6-.74,2.43-1.59,5.12-1,7.67-.85,2.32.12,3.29-.28,3.19-2.93-.21-5.67,0-11.35,0-17q1.8-16.67,3.61-33.35a348.54,348.54,0,0,1,21.87-82.88l1-2.32c2.61-9.37,7.24-18,11.19-26.73,2.62-5.83,6.22-11.53,9.52-17.2,2.23-3.84,4.31-7.75,6.87-11.4,3.91-5.56,7.15-11.55,11-17.15,5.23-7.52,10.59-14.92,16.38-22,1.27-1.56,2.49-3.16,3.74-4.74a3.42,3.42,0,0,0,1.67-2.14c3.48-5.2,8.13-9.4,12.27-14,5.36-6,11.37-11.35,17.18-16.91a373.68,373.68,0,0,1,122.19-78c22-8.72,44.83-14.67,68-19.13,20.86-4,42-5.52,63.25-5.87,2.86,0,4-.65,3.69-3.61a57.37,57.37,0,0,1,0-6.29c.75-.59.82.37,1.23.55-.37,9-.38,9.16,8.43,9.38a375.43,375.43,0,0,1,299.3,161,365.31,365.31,0,0,1,49.29,100.29,382.66,382.66,0,0,1,14.25,65.61,355.84,355.84,0,0,1,3.12,43.89c0,2.42.61,3.27,3,3,2.17-.21,4.38,0,7.47,0-2.77,2.22-5.16,1.51-7.28,1.4-2.56-.12-3.21.54-3.27,3.21-.91,40.51-7.47,80-20.63,118.44a369.39,369.39,0,0,1-52.48,99.68,364.35,364.35,0,0,1-47,52.5c-7.86,7.23-15.91,14.24-24.31,20.84a3.41,3.41,0,0,0-2.18,1.65,477.76,477.76,0,0,1-42.23,28.12c-.58.12-1.22.15-1.47.84-12.37,6.66-24.89,13-37.78,18.64a1.36,1.36,0,0,0-1.48.7l-23,8.88c-1.44-.12-2.58.65-3.79,1.23-5.81,1.8-11.56,4-17.34,5.57a112.44,112.44,0,0,1-15.62,3.57,70.68,70.68,0,0,0-7,1.56l-5.28,1a425.8,425.8,0,0,1-49.57,6.4,10.43,10.43,0,0,0-4.48.22c-5,.14-10.08.43-15.11.35-2.86,0-3.44,1.26-3.51,3.73-.07,2.1,1,4.39-1,6.6-.4-1.61-.8-3-1.08-4.45-.37-1.89.93-4.5-.61-5.55-1.36-.93-3.78-.31-5.74-.36l-5.51-.12a24,24,0,0,0-7.47-.39l-16.27-1.42-1.51-.09-11-1.29-1.6-.19c-11.55-1.59-23-3.55-34.41-6.19-8.64-2-17.44-3.76-25.65-6.82-9-3.35-18.34-5.78-27.23-9.49-8.67-3.61-17-8-25.7-11.48-9.13-3.64-17.47-8.83-26-13.66-6.59-3.74-12.62-8.45-19-12.5a179,179,0,0,1-18.59-12.85c-7.52-6.22-15.45-12-22.4-18.88-5.26-5.26-11.07-10-16.2-15.37-7.21-7.56-14.55-15-21-23.3-2.36-3-4.9-6-7.33-9-8.68-10.7-16.1-22.26-23.58-33.81a358.73,358.73,0,0,1-18.26-32.3c-5-9.75-8.9-19.94-13.13-30-3.38-8-5.58-16.41-8.69-24.49-.48-1.25.21-2.77-1-3.77-.27-1.18-.47-2.38-.81-3.53C884.75,528.61,882.67,518.33,880.21,508.14Zm16.43,37.06c.4,1.65.69,3.35,1.22,5a367.9,367.9,0,0,0,34.32,74.75c22.35,37.07,50.05,69.42,83.81,96.56a371.75,371.75,0,0,0,106.11,60.1,353.88,353.88,0,0,0,69.75,17.75,375,375,0,0,0,51.94,4.45c2.3,0,3.22-.34,3.09-3-.23-4.92,0-9.87.17-14.8,0-.91-.51-2.35,1.45-2.42,0,5.47.14,10.9,0,16.32-.1,3,.8,4,4,3.9a377.18,377.18,0,0,0,57.73-5.35A370.32,370.32,0,0,0,1394,773.51c66.43-28.77,119.71-73.41,160.36-133.19,22.77-33.5,39-70,49.63-109a349.66,349.66,0,0,0,10.6-55.9c1.23-12,2.28-24.06,2.35-36.16,0-2.21-.54-3.11-2.89-3-3.45.17-6.91,0-10.37,0h-7.72l0-1.44c5.84,0,11.68-.15,17.51.07,2.87.11,3.54-.87,3.43-3.59-.51-13.18-1.22-26.34-2.72-39.47A368.75,368.75,0,0,0,1542.69,214a373.35,373.35,0,0,0-101.87-92.76,367.31,367.31,0,0,0-165.47-53.65c-8.24-.63-16.52-.64-24.78-1-1.63-.06-2.58.35-2.31,2.29a10.54,10.54,0,0,1-.16,3.31c-.4,2.13.05,3.13,2.49,3.72,5.07,1.23,6.78,4.19,6.21,9.33-.1.9-.12,1.81-1.28,1.86s-1-.91-1.1-1.59c-.51-2.4-.87-4.85-2.61-6.79-.81-.9-1.82-1.52-2.93-1.08-1.39.56-.78,1.78-.57,2.86.41,2.11.79,4.26-.57,6.14-.62-5.51-1.4-11-.92-16.43.35-3.89-1.17-3.72-3.9-3.68A357.1,357.1,0,0,0,1160,77.3c-46.09,11.69-88.75,31-127.37,59a365.91,365.91,0,0,0-93.12,97.49c-29.1,44.69-48.13,93.31-55.93,146.17-2.29,17.23-3.48,34.54-4,51.9-.08,2.37.67,2.93,2.9,2.88,5.18-.1,10.36.05,15.54.14,1,0,2.27-.56,3.13,1.44-3.38,0-6.52-.18-9.63,0-3.94.29-9.36-1.91-11.41,1.14-1.89,2.79-.58,7.86-.35,11.92a401.29,401.29,0,0,0,8.71,65.4C890.76,525,893,535.31,896.64,545.2Z"/><path d="M682.54,1017.81c-1.21-14-.39-28.07-.45-42.11-.11-25.1-.05-50.19,0-75.29,0-3.11-.42-6.1.3-9.36,1.88-8.49,8.49-11.58,14.57-11.65,16.67-.19,33.35-.21,50-.21q204.16-.06,408.33-.07,181.74,0,363.49,0,113.76,0,227.51.16c5.72,0,11.34.42,15.56,5.15a14.83,14.83,0,0,1,4.14,10.3q-.08,60-.06,120c0,8.51-5.52,14.24-14.08,14.24q-91,.06-181.93,0-144.87,0-289.75.14-170.82,0-341.64-.08l-240.1-.06c-1.35,0-2.71-.09-4.07-.06-5.05.09-8.24-2.47-10.11-7a18.65,18.65,0,0,0-1-1.91C683.16,1019.26,683.4,1018.38,682.54,1017.81ZM1695.66,955c-12.17.12-31.55-.35-50.92.35-2.23.08-3.3.4-3.28,3q.13,32.94,0,65.88c0,2.4.56,3,3.09,3,33.33-.09,66.65,0,100,0,2.58,0,5.18-.44,7.75-.27,5.81.38,10.92-6.4,11.51-11.07a58.7,58.7,0,0,0,.58-7.36c0-16.66-.09-33.32.05-50,0-3-1-3.66-3.79-3.64C1741.38,955.09,1722.12,955,1695.66,955Zm7.38-1.78v0q29.25,0,58.5,0c1.69,0,2.85-.08,2.84-2.25-.05-18.13.23-36.28-.17-54.4-.19-8.85-5.28-14.25-12.7-15a103.55,103.55,0,0,0-10.71-.57c-31.59-.06-63.19,0-94.78-.15-3.75,0-4.5,1.3-4.49,4.67q.12,31.83-.11,63.66c0,3.35,1.15,4.14,4.24,4.12C1664.79,953.2,1683.92,953.25,1703,953.25Zm-239.1,0v0c18.89,0,37.79,0,56.68.06,2.33,0,3.2-.44,3.19-3q-.15-33.52,0-67c0-1.88-.35-2.41-2.43-2.41q-55.93.09-111.88,0c-4.93,0-5,.08-5,5.12-.07,20.86,0,41.73-.19,62.59,0,4,1.39,4.7,4.87,4.68C1427.38,953.2,1445.66,953.26,1463.94,953.26ZM1223.06,881v0q-26.85,0-53.72,0c-4.95,0-5,.08-5,5.18,0,20.87,0,41.73-.14,62.59,0,3.47,1,4.57,4.54,4.56q54.46-.16,108.92.05c2.79,0,3.26-1.08,3.25-3.41-.07-22.09-.13-44.19-.06-66.28,0-2.38-.72-2.74-2.93-2.73C1259.61,881,1241.34,881,1223.06,881ZM983.81,1027.25v.16h54.42c5.45,0,5.45,0,5.58-5.52v-.37c0-19.74,0-39.48,0-59.21,0-7.25-.1-7.27-7.47-7.27q-43.87,0-87.74,0c-7.15,0-14.31.33-21.46.31-2.5,0-3.08.93-3.07,3.26q.12,32.56,0,65.13c0,2.59.57,3.61,3.47,3.59C946.3,1027.18,965.06,1027.25,983.81,1027.25Zm120.11-74v0c16.3,0,32.6,0,48.91,0,9.38,0,9.5.06,9.51-9.3,0-20.12-.14-40.24-.16-60.37,0-1.87-.13-2.72-2.52-2.72q-54.65.17-109.3,0c-3.5,0-4.71,1-4.69,4.51q.16,31.85,0,63.7c0,3.15.85,4.23,4.16,4.2C1067.85,953.17,1085.89,953.25,1103.92,953.25Zm239.23,0v.1c18.27,0,36.55-.09,54.82.08,3.24,0,4.41-.6,4.42-4.1.1-21.84.16-43.69-.11-65.53,0-2.2-.36-2.82-2.76-2.81-37.17.08-74.34,0-111.5,0-5,0-5.13.09-5.14,5.08-.06,20.86,0,41.72-.17,62.58,0,3.94,1.36,4.68,4.87,4.65C1306.11,953.14,1324.63,953.21,1343.15,953.21ZM1583.34,881v-.13q-25.36,0-50.75,0c-6.49,0-6.59,0-6.62,6.55-.07,19.5-.12,39,0,58.51,0,8.42-1.26,7.2,7.28,7.24,34.08.17,68.16,0,102.24.22,3.41,0,4-1,4-4.1q-.2-32.77-.07-65.54c0-2.17-.29-2.85-2.73-2.83C1618.9,881.08,1601.12,881,1583.34,881ZM744,952.87v.42c18.64,0,37.29,0,55.93.05,2.55,0,3.71-.32,3.69-3.28q-.21-33-.12-65.9c0-2.39-.41-3.24-3.17-3.23-29.51.1-59,0-88.52,0a126,126,0,0,0-14.41.68c-5.64.64-12.56,3.71-12.83,12.65-.09,3-.5,5.9-.51,8.86-.07,15.42,0,30.85-.15,46.28,0,2.75.68,3.56,3.44,3.54C706.2,952.82,725.09,952.87,744,952.87Zm719.93,74.36v.17c18.63,0,37.26-.1,55.89.1,3.37,0,4-1,4-4.07q-.18-32.74,0-65.49c0-2.32-.53-2.83-2.82-2.82-18.5,0-37-.15-55.52-.12-19.25,0-38.5-.27-57.74.37-2.47.08-3.45.57-3.44,3.26q.15,32.94,0,65.87c0,2.28.61,2.82,2.92,2.8C1426.14,1027.18,1445,1027.23,1463.9,1027.23ZM864.4,881v-.09c-18.14,0-36.29.09-54.43-.09-3.4,0-4.47.91-4.45,4.3q.16,31.83,0,63.66c0,3.55,1.1,4.51,4.61,4.51q54.43-.15,108.87,0c2.26,0,3.26-.38,3.27-3,0-22.21.37-44.41-.19-66.62-.06-2.15-.43-2.83-2.85-2.81C900.94,881.09,882.67,881,864.4,881Zm477.68,146.17v.22c18.89,0,37.78-.07,56.67.07,2.75,0,3.48-.67,3.52-3.41.37-22.21.27-44.42.1-66.64,0-1.83-.43-2.28-2.24-2.27-6.54.05-13.08-.17-19.62-.14-31.48.14-63-.41-94.44.33-2.25,0-3.31.37-3.3,3q.12,33.13,0,66.27c0,2,.44,2.67,2.66,2.66C1304.31,1027.15,1323.19,1027.2,1342.08,1027.2Zm-478.27,0v.16c18.27,0,36.53-.06,54.8.06,2.71,0,3.56-.63,3.55-3.41q-.17-33.3,0-66.61c0-2.2-.8-2.31-2.58-2.31q-46.1,0-92.19-.1c-6.16,0-12.33.27-18.5.25-2.46,0-3.41.69-3.4,3.35q.15,32.57,0,65.14c0,2.73.78,3.54,3.53,3.52C827.29,1027.18,845.55,1027.24,863.81,1027.24Zm-119.68-72V955c-18.77,0-37.53.08-56.3-.08-3.14,0-3.94.89-3.92,3.93.13,16.53.07,33.07,0,49.61a43.75,43.75,0,0,0,.72,8.08c1.21,6.55,4.77,9.82,11.41,10.3,3.2.23,6.41.41,9.62.41,31.35.06,62.71,0,94.07.2,3.21,0,3.87-1.09,3.86-3.92q-.15-33.12-.07-66.26c0-2.47-1.28-2.1-2.77-2.1Zm359.26,72v.21c18.52,0,37,0,55.57,0,2.31,0,3.13-.46,3.17-3,.36-22.34.29-44.68.17-67,0-2.21-.94-2.31-2.66-2.31-9.26,0-18.52-.18-27.78-.14-27.66.13-55.32-.36-83,.4-2.33.06-3.27.47-3.26,3q.15,32.77.06,65.55c0,2.37.45,3.35,3.26,3.33C1067.09,1027.1,1085.24,1027.18,1103.39,1027.18Zm479.13,0v.25c17.78,0,35.57-.06,53.35.06,2.66,0,3.54-.51,3.59-3.35.42-22.22.2-44.44,0-66.67,0-2.27-.93-2.26-2.63-2.26-15.81,0-31.61-.25-47.42-.2-20.13,0-40.26-.3-60.39.26-2.36.07-3.19.76-3.19,3.21q.11,33-.05,65.93c0,2.36.75,2.83,3,2.82C1546.71,1027.13,1564.61,1027.17,1582.52,1027.17Zm-360.23,0v.24c18.15,0,36.3-.11,54.44.09,3.36,0,4.08-1,4.12-4q.38-33,0-65.89c0-2-.63-2.44-2.54-2.41-5.3.1-10.61-.12-15.92-.1-31.6.13-63.2-.42-94.79.24-2.94.06-3.45,1.09-3.44,3.68q.11,32.58-.06,65.15c0,2.71.86,3.14,3.36,3.12C1185.76,1027.11,1204,1027.16,1222.29,1027.16ZM984.08,881v-.08c-18.65,0-37.3.08-56-.06-3.15,0-4,1-4,4,.08,21.36.09,42.72-.08,64.08,0,3.53,1.23,4.29,4.45,4.29q56.13-.06,112.27.13c2.47,0,2.78-.91,2.78-3q-.08-33.33.06-66.67c0-2.31-.57-2.78-2.86-2.77C1021.88,881.06,1003,881,984.08,881Z"/><path d="M210.78,381.55c-.48,12-.41,24.05-.08,36.08-.49,9.2-.17,18.4,0,27.6-.07,11.32-.19,22.63-.19,33.94q0,33.39.13,66.79c-.06,10.71-.18,21.43-.18,32.15q0,107.63,0,215.26c-3.77,1.15-2.48,2.92-.48,5.15l1.45-3.1a3.9,3.9,0,0,0,.95-.56c.85-.87,1.81-2.3,3-1.34s-.27,2.1-.81,3.07C209.19,806,209.18,806,220,806q72.4.11,144.8.26c1,0,2.21-.5,3.36.78-1.22.84-2.51.54-3.7.54H210.4a3.6,3.6,0,0,0-.73.13l-3,.07c-3.83-.79-7.81.28-11.64-.74,0-1.59,1.11-1.24,1.86-1.24,2.84,0,5.67.12,8.51.13,2.64,0,4.08-1.85,2.69-4.08-1.09-1.76-1.3-3.91-2.7-5.41-2-2.17-.42-3.23,1.32-3.47,2-.27,2.23-1.1,2.23-2.84q0-120.63,0-241.26c0-1.23-.1-2.45-.16-3.68q.08-36.56.14-73.1c0-8.73-.09-17.46-.13-26.19q0-14.07,0-28.13.54-18.17,0-36.32,0-27.77.06-55.52,0-122.34.07-244.69A14.18,14.18,0,0,0,208,77l-.18-.81-.32.8c-2.52,1.48-2.14-.4-2-1.78.33-2.74,2.12-4.93,2.88-7.6,1-3.52-1-3.07-2.56-2.46-4,1.58-7.41-.89-11.16-.65l0-1c1.25,0,2.5,0,3.75,0q84.95-.51,169.88.12a4.83,4.83,0,0,0,.73-.12l-.07.92c-33.94,1-67.88.23-101.83.42-17.88.1-35.76.21-53.64.17-2.63,0-2.87.73-2.08,2.94a38.9,38.9,0,0,0,4.11,7.79c.42.67,1.27,1.42.08,2.15-.84.51-1.32-.16-1.83-.69-1.14-1.18-2-3.83-3.62-3-1.74.93-.24,3.23.11,5a21.12,21.12,0,0,1,.09,4.06q0,147.53.12,295.06C210.48,379.36,210.68,380.45,210.78,381.55Z"/><path d="M375.57,898.57a3.4,3.4,0,0,0,.39-1c.16-16.45.57-32.9.1-49.35v-31h1.28v51a30.52,30.52,0,0,0,7.73-3.15c1.55-.86,3-1.42,4.31.69,1,1.58,2.95,1.58,4.67,1.59,10.49.05,21,0,31.47.11,4.09,0,2.45-2.54,1.84-4.87,3.57,1.82,6.69,3.38,9.77,5,2.48,1.3,3.14.51,3.13-2.14-.1-14.92-.07-29.85,0-44.77,0-1.4-.43-2.93,1.13-4.85V924c-2.13-1.09-.8-2.76-.73-4.18.1-1.92.08-3.65-2.68-2.93a5.06,5.06,0,0,0-.92-.61c-1.48-.6-2.32-2.84-4.35-1.87a2.1,2.1,0,0,0-.49,2c.93,1.6,2.8.94,4.23,1.4-1.59,2-4.16,1.18-6.12,2.15-.2.09-.87-.26-.86-.34.79-5.44-3.5-3.07-5.42-3.12-10.1-.27-20.22-.14-30.34-.14-4.38,0-4.38,0-2.16,4.54-2.25-1.23-4.09-2.2-5.89-3.21-5.14-2.89-8.1-1.37-8.08,4.3q.12,31.62.34,63.24c0,.09-.09.19-.06.27a3.31,3.31,0,0,0,.22.47,2.9,2.9,0,0,0,0,.72l-.17.76V1004h-1.5c-.06-1.48-.19-3-.19-4.46,0-26.41-.11-52.82,0-79.23,0-3.15-.58-4.05-4-4-40.62.14-81.24.07-121.86,0-2.24,0-4.56.28-6.69-1.25,1.34-.07,2.68-.2,4-.2H368.79c6.43,0,6.73,0,7.23-6.17.25-3.06.49-6.31-.45-9.41Zm58.34-29.08.76-.41-.23-.24c-.17.25-.35.49-.52.73a3.06,3.06,0,0,0-3.58-3c-2.2.55-.15,2.84-.82,4.33C430.5,868.73,432.11,868.84,433.91,869.49Zm-4.72,40c2.93,1.47,6.23,2.12,8.95,4,1.62,1.14,2.31,1,2.28-1.24q-.23-20.16-.24-40.32c0-2.35-.55-2.44-2.78-1.86a28,28,0,0,0-9.7,5.12c.64-6.28.63-6.1-5.26-6.32-12.13-.46-24.36,1.35-36.4-1.51-.5-.12-1.25-.25-1.65,1.1,3.18.43,3.8,3.73,6.09,5.48-4.62-.47-8.11-3.78-12.66-4.91-.62,15.36-.17,30.52,0,45.77,4-.75,7.06-2.71,10.4-3.86.66-.22,1.26-1,2-.31.53.48.24,1.17,0,1.72-1,2-.26,2.5,1.79,2.5q18.33,0,36.64.17c2.33,0,2.38-1.28,1.85-2.88a15,15,0,0,0-1.41-2.52Z"/><path d="M526.16,528.51c13.83.57,27.65-.28,41.47-.25h4.89c-2.72-4.36-4.31-8.71-6.18-13.59,3,.62,4.6,3.52,7.57,2.1-1.45-2.6-1.22-5.43-1.26-8.23q-.9-61.28-.74-122.58c0-1.55.37-3.17-.52-4.64,1-4.56.18-9.19.45-13.79s.25-9,.36-13.49c.27-.94.58-2.22-.67-2.33-1.08-.09-1.77,1.07-1.92,2.26-1.13.57-.81,3.41-3.18,2l0,0c.87-4.11,3.19-7.63,4.64-11.51.59-.72,1.37-1.53.83-2.47-.65-1.13-1.84-.53-2.83-.44H497.51v-1.46h93.57c-1.34,1.71-3.09,1.16-4.57,1.24-2.83.17-5.68.09-8.52.11-6,0-6.16.32-4,6,.57,1.48,1.18,2.94,1.81,4.39.79,1.84,2.08,3.43-1.24,4.56-1.88.64-.74,3.28-.88,5,0,.5,0,1,0,1.51q0,7,0,14c0,.5,0,1,0,1.5s0,1,0,1.46q.17,39.16.34,78.32c.1,16.38.28,32.75.43,49.13,0,1.71-.07,3.41,0,5.11,0,.84-.07,2.21.82,2.18,3.58-.08,1.43,2.46,1.91,3.77a1.13,1.13,0,0,0-.55,1.51,1.17,1.17,0,0,0,.15,1.47l0,.06c-2.86.91-2.56,3.64-2.76,5.69-.08.75,2.33,1,3.74,1.07,4.21.26,8.41.57,12.61,1.22-3.31,1.35-6.78.3-10.13.84l-54.1.08-31.52-.33,0-1.47h15.17l1.59,0Z"/><path d="M271.9,894.05c3.2,1.87,3.64,4.85,2.69,8s-3,5.13-6.81,5.59c-4.53.55-9,.32-13.52.57-2.06.11-2.4-.81-2.4-2.57,0-8.39-.1-16.78-.3-25.16,0-1.51.33-1.94,1.76-1.93,5.42,0,10.85-.11,16.2.88,3.65.69,5.1,6.13,3,10.85C270.21,891.15,269,892.26,271.9,894.05Zm-10,8.32a30.13,30.13,0,0,0,3-.2,3.5,3.5,0,0,0,3.19-3.81c0-2.64-2-1.89-3.49-2s-2.7,0-4.05-.08c-2.18-.12-2.7,1-2.54,3C258.34,902,260,902.71,261.94,902.37Zm0-12c2.57.18,5.19.21,5.22-3.07,0-2.94-2.53-2.84-4.6-2.8s-4.47-.63-4.68,2.56C257.68,890.15,259.48,890.86,262,890.42Z"/><path d="M395.58,845.71c0-4.07.05-8.14,0-12.2,0-1.53.37-2.3,2-2.25,4.91.16,9.83-.39,14.73.61a5.81,5.81,0,0,1,4.84,4.84c.63,2.52.79,4.82-2,6.32-1.89,1-2.08,2.74,0,3.49,3.82,1.4,4.19,4.12,3.34,7.34-.9,3.44-3,5.91-6.81,6.15-4.43.28-8.86.37-13.28.64-2.07.13-2.84-.63-2.77-2.75.13-4.06,0-8.13,0-12.19Zm10.36,9.15h2c2.32.06,3.86-1,3.92-3.35.06-2.66-2.07-2.56-3.95-2.57-1.1,0-2.21-.1-3.3,0s-2.49-.61-2.88.77A5.17,5.17,0,0,0,402,854C403,855.48,404.73,854.66,405.94,854.86Zm1.13-11.66c1.36.18,3.74,0,3.85-3,.14-3.65-2.86-3-5.08-3-1.91,0-4.27-.83-4.43,2.73C401.24,843.77,403.84,843,407.07,843.2Z"/><path d="M169.44,445.88c-3.21,0-6.43-.14-9.62,0s-4.8-.5-5.44-4.23a27.31,27.31,0,0,1,2.38-16.2c2.79-6.1,8.66-8.23,15.66-6.84,6.1,1.2,9.56,5.46,11.21,11.25,1.3,4.56.67,9.26.79,13.91,0,1.66-.92,2-2.4,1.94-4.19-.08-8.39,0-12.58,0Zm.58-6.71c2.46-.14,4.54-.23,6.62-.38,1.2-.09,2.3-.58,2.25-1.93-.1-2.91.12-5.91-2-8.39a11.33,11.33,0,0,0-11.1-3.2c-2.89.85-5.44,5.39-5.81,9.91-.19,2.36.66,3.43,3,3.51S167.93,439,170,439.17Z"/><path d="M444,958.72c0,4.07-.2,8.16.07,12.22.15,2.35-1,2.6-2.62,2.23s-4.38,1.74-4.3-2c0-2.35-.1-4.71.1-7,.17-1.93-.39-2.79-2.39-2.53a18.26,18.26,0,0,1-2.22,0c-8.81,0-8.88,0-7.93,8.85.2,1.9.44,3.35-2.06,2.88-1.77-.34-4.88,1.67-4.7-2.51q.53-12.4,0-24.81c-.15-3.74,2.6-1.9,4.17-2.14s3-.25,2.91,2.35c-.35,9.41-.24,9.3,9.14,9.36,2.64,0,3.5-.65,3.08-3.26-.25-1.56.12-3.23-.12-4.8-.48-3.19.84-3.86,3.84-3.76,2.48.08,3.21.78,3,3.15-.2,2-.06,4-.07,5.92v5.93Z"/><path d="M297.83,894.12c-1.46,3.41-.63,7-.67,10.48,0,2.77-.9,3.49-3.65,3.52s-3.26-.75-3.17-3.23c.17-4.93.14-9.86,0-14.79-.05-2,.46-3,2.61-2.63,3.34.64,7.05-.73,9.92.25,4.63,1.58,8.61-.2,12.85-.55,3.39-.28,4.92,1.84,5.61,4.46a48.31,48.31,0,0,1,1.05,14.2c-.13,3.09-2.61,1.81-4.17,2.12-1.73.34-2.75-.17-2.66-2.29.14-3.07,0-6.16,0-9.24-.05-1.44.53-3.68-1.86-3.52-2,.15-4.06,1.06-4,3.86s-.17,5.43,0,8.12-1.15,3.15-3.51,3.27c-2.72.14-3.35-.85-3.31-3.37.06-3.3-.31-6.62-.5-9.93.33-1.45-.41-1.66-1.59-1.36l-2.2.06C298.05,893.38,297.83,893.61,297.83,894.12Z"/><path d="M526.15,431.13c6.76-2.78,13.49-5.65,20.31-8.28,1.39-.54,3.51-2.91,4.48-.38a5.23,5.23,0,0,1-2.52,6.63,11.88,11.88,0,0,1-1.38.51c-2.24.89-3.81,2.21-3.2,5a3.22,3.22,0,0,1,0,1.48c-1.2,4.34.12,6.88,4.84,7.59,1.83.28,3,6.18,1.6,7.3-.63.5-1.35.16-2.06-.16-1.43-.65-2.9-1.19-4.36-1.77L540,447.5c-.69-.89-1.76-.85-2.7-1.12-5.57-1.55-10.29-5-15.74-6.84-1.59-.53-1.46-1.77-1.31-2.94a5.94,5.94,0,0,1,4-4.71C524.85,431.63,525.72,431.94,526.15,431.13Zm4.07,4.8c1.74,1.79,3.65,2.16,5.47,2.7,1,.31,2.16,1.16,2.86-.29a3.48,3.48,0,0,0,0-3.2c-.67-1.22-1.67-1.05-2.85-.63C534.07,435.07,532.38,435.38,530.22,435.93Z"/><path d="M337.15,887.48c4.53,0,9.07,0,13.6,0,2,0,3.69.36,4.31,2.59l1.21,3.52c.47,4.37-.41,8.84,1,13.14l-.44.6c-1.79,1.2-3.83.49-5.74.76-1.65.24-1.35-1-1.35-1.9,0-3.09,0-6.17-.05-9.26,0-1.13.43-2.62-1.43-2.89s-4.14-2.33-4.37,1.58c-.05,3.3-.14,6.59-.13,9.89,0,3.53-2.69,2.31-4.48,2.61-2.08.35-2.74-.54-2.56-2.67a124,124,0,0,0-.1-16.47Z"/><path d="M333.49,888.21c0,5.67-.19,11.35,0,17,.08,2.8-1.35,2.89-3.44,2.88s-3.72.1-3.49-2.75c.48-6-1.05-12,.19-17.94C329,887.89,331.38,886.71,333.49,888.21Z"/><path d="M326.78,883.65c-.61-1.47-1.48-3.18,0-4.33s3.73-.81,5.5,0c2.11,1,.77,2.85.9,4.35Z"/><path d="M823.59,435.16h20.22a99.84,99.84,0,0,1-20.28.92Z"/><path d="M1671.89,435.33a71.77,71.77,0,0,1-20.8,0Z"/><path d="M1247.11,844.48c.46-1.48-1.83-3.17-.18-4.28,2.13-1.41,1.58.62,1.58,1.71,0,.73,0,1.46,0,2.19,0,4.27,0,8.54,0,12.81,0,.59.42,1.64-.85,1.4-.26-.06-.39-.79-.58-1.21v-1.51c0-3,0-5.91,0-8.87Z"/><path d="M857.73,435.09c-2.7,1.38-4.76,1.41-6.86.34C853,434.67,855.16,434.8,857.73,435.09Z"/><path d="M1639.37,435.79c2.12-1.19,4.25-1,6.41-.29C1643.71,436.67,1641.5,436,1639.37,435.79Z"/><path d="M566.43,356c0,.1.05.26.12.28.37.13.37.2,0,.18-.06,0-.1-.28-.15-.43Z"/><path d="M249.64,443.12H240l-3.68,0-2.18-.22q0-8.88,0-17.74c0-1.41,0-2.92,2.12-2.39,1.52.38,4-.68,3.76,2.53-.18,2.58.19,5.19,0,7.76-.28,2.85,1.11,3.14,3.45,3.22,2.56.08,3.58-.71,3.4-3.32-.16-2.33,0-4.68,0-7,0-1.45-.06-2.88,2-2.6,1.57.21,3.6-.08,3.42,2.61-.17,2.45-.07,4.92-.29,7.36-.15,1.82.58,2.43,2.28,2.47,2.33.05,4.68.4,7,.31,3.69-.15,3.43,2.6,3.54,4.79.15,2.66-2.06,2-3.65,2.12-1.84.08-3.69.1-5.53.15Z"/><path d="M1015.31,466c-.4-9.24-1.77-18.42-1.56-27.69,0-2.33-1.31-2.11-2.89-2.1q-15.18,0-30.36,0c-1.3,0-2.67.38-4.18-.57,1.23-1.12,2.6-.73,3.8-.73,10.12-.05,20.25-.16,30.37,0,2.67,0,3.31-.78,3.27-3.32-.06-4.3.29-8.62.46-12.93a321.55,321.55,0,0,1,4.58-35.64c2.64-8.75,5-17.6,8-26.24a234.81,234.81,0,0,1,48.69-81.17,232,232,0,0,1,169-75.54c4-.06,4.2-.34,3.18-4.14-.11-.41-.65-.79.13-1,3.94-1,5.07-4.94,7.57-7.6a6.18,6.18,0,0,1-4.19,7.53c-1,.36-2.13.63-3.14,1.06-1.38.59-.55,1.69-.45,2.57.2,1.8,1.64,1.51,2.83,1.54,9.51.26,19,1,28.41,2.14,25.49,3,49.54,10.69,72.51,21.88a228,228,0,0,1,69,51.79c23.2,25.41,40.46,54.29,50.79,87.28,1.07,3.43,1.69,7,2.83,10.38a108.39,108.39,0,0,1,3,12.09c.86,4.09,1.56,8.21,2.19,12.34s1,8.32,1.61,12.46a90.9,90.9,0,0,1,.66,12.56c0,.32.28.63.43.95a62.9,62.9,0,0,1,.12,7.76c-.3,3,.87,3.36,3.52,3.32,10.74-.17,21.48-.08,32.22-.07.85,0,1.71.14,3.41.29a8.6,8.6,0,0,1-4.72,1c-10.49.05-21,.18-31.47.1-2.28,0-3,.57-2.94,2.88a84.83,84.83,0,0,1-.33,8.87,303.46,303.46,0,0,1-6.48,43.76c-3.14,10.4-6,20.89-10.24,30.93a239.13,239.13,0,0,1-46.64,72.13c-22.78,24.25-49.85,42.23-80.22,55.47-4.11,1.79-8.36,3.27-12.63,4.93.34,1.51,2.34,1.74,2.58,3.29a5,5,0,0,0-.44.48c-2.07-4.63-5.19-3.28-8.83-2-15.3,5.49-31.19,8.33-47.35,9.73-6.63.57-13.29,1-19.94,1.25-2.47.09-3,.93-3,3.26.13,10.62.09,21.23,0,31.85,0,1.11.78,2.51-.75,3.31-1.21-.42-.69-1.43-.69-2.18,0-11.24.06-22.47.22-33.7,0-1.91,0-2.78-2.43-2.8q-72.54-.63-131.94-42.31a235.08,235.08,0,0,1-65.44-69.95c-15.26-24.75-24.89-51.5-30.51-79.85-.55-2.77-.89-5.58-1.32-8.38Zm221.49,102.3c-4.86-2.57-4.88-2.59-7.45,2.76-.63,1.31-.9,2.79-1.52,4.1-1.29,2.73-.1,3.55,2.48,4.27,3,.85,6.36-.08,9.85,2.09-4.79-.09-8.88.63-12.59-1.59-.86,1.4.2,2.48.27,3.66.75,12.11,18.19,23.47,32.88,13.39,2-1.36,2.12-2.95.72-4.93-1-1.37-3.09-1.84-3.14-3.94,2,.92,3.22,2.65,4.61,4.19,1.11,1.24,1.79,1.22,2.75-.21,2.17-3.22,3.12-6.85,4-10.55.59-2.36-1.11-1.5-1.85-1.39-4.49.72-8.95,1.7-13.54,1.45-.62,0-1.33-.07-1.52.66s.45,1,.83,1.53c1.14,1.45,3.19,1.91,4,3.69-2,.47-2.65-1.54-4-2.25-1.79-.93-3-4.27-4.77-3.29-2,1.13-.44,4.24-.64,6.47-.14,1.58,1,3.41-.7,4.83-.31-.29-.47-.37-.48-.46a74.89,74.89,0,0,0-.39-8.36c-.41-2.71.45-5.76-1.8-8.07,1.58.22,2.55.1,2.31-2-.27-2.43.11-4.92,0-7.38-.16-2.74,1.47-6.78-.65-7.91-2.65-1.4-6,1.12-8.76,2.67-4.28,2.38-4.26,2.42-.81,5.76C1237.26,567.74,1237.07,568,1236.8,568.25Zm33.07,33c-2,.85-3.33-.26-4.43-1.58-.65-.77-1-1.92-2.16-1-4.32,3.37-9.65,4.12-14.62,5.81l-1.51.17c-2-1.63-4.66-1.28-6.89-2.3-9-4.12-14.76-10.75-15.87-20.81-.22-2-1-2.62-2.89-2.81-8.78-.87-17.14-3.41-25.35-6.54a13.72,13.72,0,0,1-6-4,21.72,21.72,0,0,1,3.39,1.23c8.72,4.84,18.39,6.23,28,7.82,1,.17,2.24.64,2.69-1a40.56,40.56,0,0,1,6-12.85c.79-1.08.34-1.6-.63-2.31-1.28-.93-1.64-.24-2.12.75-.33.68-.1,1.85-1.41,1.81a3.73,3.73,0,0,1-.3-.64c-.06-.23-.14-.56,0-.72,2.56-3.92-.7-5.33-3-7.16a5.76,5.76,0,0,1-.85-1.13c3.19,2,7.59,2.33,9.19,6.54.61,1.6,1.46.92,2.21.25,11.86-10.54,35.92-5.46,39.1,15,.21,1.38.59,2,2.06,1.69,3.1-.71,6.28-.88,9.35-1.86,7.31-2.35,14.68-4.53,22-6.78.31.72-.3.69-.68.9-6,3.28-12.88,3.75-19,6.53a40.68,40.68,0,0,1-11.71,2.93c-1.79.23-1.92,1.07-1.94,2.4a19.48,19.48,0,0,1-3,10.08c-1.34,2.19-2.86,4.05,1,5.32a3,3,0,0,1,1.81,3.32c-.3,1.28.16,1.68.91,2.38,12.6,11.63,24.22,24.24,35.91,36.75,2.09,2.25,3.9,2.44,6.46,1.57,33.12-11.15,62.21-28.89,86.73-53.8,27.57-28,46.59-60.94,55.91-99.27,4-15.77,5.87-31.84,6.89-48.05.2-3.21-.84-3.8-3.87-3.74-10.11.23-20.22.1-30.33.07-1.24,0-2.6.31-4.12-.79,3.38-1.31,6.5,0,9.43-.82,8.51.07,17,0,25.54.27,2.88.09,3.46-.84,3.31-3.57a339,339,0,0,0-6.73-49.67c-.34-1.66-.83-2.45-2.6-1-14.36,11.63-27.8,24.31-41.82,36.32-2.21,1.27-2.92,2-1.09,5,3.18,5.1,5.43,10.85,3.76,17.37-1.72,6.69-4.86,12.2-10.89,15.83a25.62,25.62,0,0,1-10.45,3.06,2.44,2.44,0,0,0-2.68,2.27c-1.54,6.77-3.35,13.48-5,20.21-1.7,4-2.72,8.43-6.1,11.68l.75-3.39c4.86-8.83,6.39-18.67,8.59-28.31.37-1.62-.31-2-1.9-2.19-10.85-1.45-18.62-9.25-19.9-20a31.23,31.23,0,0,1,.93-13.17c3.65-7.86,9.53-12.91,18.22-14.34,2-.32,2.76-1.24,2.34-3.23-1.26-6.08-2.51-12.16-5.06-17.88-3.87-14.19-11.33-26.67-19.64-39.62a5.49,5.49,0,0,1,3.33,2.49c4.2,6.63,8.6,13.17,11.6,20.46,4.46,10.82,7.32,22.19,11.18,33.22.58,1.65.72,3.51,3.12,3.93a30,30,0,0,1,12.11,5.17c2.89,2,5,1.3,7.37-.77q20.37-17.71,40.89-35.26c1.45-1.24,1.79-2.26,1.1-4.09-1.94-5.15-3.55-10.41-5.44-15.57a208.16,208.16,0,0,0-52.25-80.12c-41.19-39.31-90.47-59.51-147.38-61.27-2.49-.08-3,.54-3,3,.21,10.49.21,21,.22,31.47,0,1.15.71,2.71-1.47,3.57v-4.27c0-10.24,0-20.48.11-30.73,0-2.21-.26-3.06-3-3a192.91,192.91,0,0,0-37.4,4.07,219,219,0,0,0-62.61,22.93c-43,23.88-74.66,58.13-94.51,103.17-4.77,10.83-9,21.86-11.4,33.53a172.38,172.38,0,0,0-6,35.73,67.73,67.73,0,0,0-.92,12.48c-.1,4.65-.13,4.64,4.65,4.63,10.1,0,20.19,0,30.29,0,1.17,0,2.54-.44,3.88,1-1.41.13-2.36.3-3.32.3-10.71,0-21.42.16-32.13-.12-3.16-.09-3.62.82-3.48,3.62.22,4.31.55,8.59,1.1,12.86.19,2.18.32,4.38.6,6.55,1,7.75,1.58,15.56,3.76,23.11a167.35,167.35,0,0,0,13.06,39.09,118.92,118.92,0,0,0,9.71,19.66,25.13,25.13,0,0,0,1.13,2.67,202.26,202.26,0,0,0,19,27.65A210.09,210.09,0,0,0,1133,618.64a214.35,214.35,0,0,0,68.46,28.11,209.89,209.89,0,0,0,42.45,5.13c2.11,0,3.34-.32,3-2.82a23.41,23.41,0,0,1-.45-6.13c1.22-9.14.35-18.28.7-27.4,1.1-.94,1.16.21,1.51.76-.06,11.22,0,22.45-.26,33.67,0,2.36,1.16,1.88,2.5,1.89,19.33.12,38.11-3.62,56.76-8.18,1.85-.46,3-.89,1-3-7.07-7.22-13.95-14.64-20.91-22-5.57-5.85-11-11.86-17.32-16.91.92.58,1.56-.06,1.48-.74a2,2,0,0,0-1.47-1.36C1269.54,599.73,1269.27,600.48,1269.87,601.28ZM1019.62,426.51a48.9,48.9,0,0,1,0,5.55c-.34,3.07,2,2,3.38,2.36,2.19.49,2.47-.86,2.48-2.55a203.75,203.75,0,0,1,7.57-54.6c12.28-44,35.4-81.13,70-111,39.7-34.24,86.2-51.25,138.28-53.48,4.15-.18,5.8-1.1,6-5.15.1-1.92-.36-2.39-2.16-2.31-11,.51-21.93,1.1-32.76,2.93a235.15,235.15,0,0,0-88.87,34.52A227.24,227.24,0,0,0,1025,384.86,263,263,0,0,0,1019.62,426.51Zm238.61-220.69c-2.22-.1-4.45-.06-6.65-.33-3.3-.39-3.7,1.31-3.82,4.09-.13,3.12,1.59,2.95,3.7,3a224.73,224.73,0,0,1,41.81,4.72c55.81,11.93,100.66,41.07,134.72,86.8,28.22,37.89,41.41,80.9,43,127.76.07,2,.57,2.45,2.48,2.41s2.74-.45,2.58-2.5c-.28-3.68-.45-7.37-.54-11.06-.48-18.7-4.34-36.9-10-54.51-17.44-54.24-50.4-96.8-99-126.83C1333.41,218.88,1297.18,207.83,1258.23,205.82Zm-17.17,456.36c1.3,0,2.78-.08,4.26,0,2.25.14,1.77-1.48,1.93-2.75.2-1.57-.58-1.68-1.93-1.72-9.24-.29-18.44-1-27.62-2.13a208.8,208.8,0,0,1-54.51-14.27c-34.63-14.27-64.08-35.68-87.58-65.06-13.64-17-25.6-35.16-33.61-55.53-10.4-26.46-17-53.8-16.57-82.48,0-3.16-2.63-1.87-4.12-2.33-2.12-.65-1.67,1.14-1.67,2.24,0,6.31.82,12.54,1.41,18.81,2.3,24.22,8.85,47.25,18.64,69.48a223.65,223.65,0,0,0,65,84.88,227.44,227.44,0,0,0,57.85,33.93C1187.68,655.49,1213.86,660.67,1241.06,662.18Zm18,0a253,253,0,0,0,34.67-5.07A225.66,225.66,0,0,0,1391.29,611c30.79-24.85,53.31-55.83,68.4-92.25,7.29-17.61,11.31-36.16,14.17-54.94,1.24-8.17,1.63-16.43,2.1-24.67.14-2.48-.92-2.77-3-2.88-2.46-.13-2.08,1.24-2.06,2.77a172,172,0,0,1-1.27,20.28c-2.56,25.34-9.8,49.37-20.69,72.29a217.57,217.57,0,0,1-73.88,86.89,214.72,214.72,0,0,1-62.61,30.19c-20.2,5.85-40.79,9.54-62,9.05-1,0-2.56-.54-2.07,1.47.3,1.23-.43,3.18,2.12,3C1253.37,662.06,1256.22,662.18,1259.05,662.18ZM1391.49,455.9l3.22-.38c15.84-2.07,23.78-18.27,15.73-32.09-.69-1.19-1-2.48-2.93-1.2-3.9,2.62-7,6.18-10.76,8.93a2.47,2.47,0,0,0-.84,2.32c.12,1.23,1.33.89,2.07.95,2.93.23,5.86.32,9.88.51-3.95,1.59-7,1.29-10,1.14-1.11-.06-2.25-.35-2.43,1.37A71.46,71.46,0,0,1,1391.49,455.9Zm-142.9,113.38h.07c0,2.83.09,5.66,0,8.48s2.16,4,4,3.54c4.77-1.28,9.7-1.25,14.46-2.32,1.9-.43,2.59-1.25,2.21-3.31a21.78,21.78,0,0,0-17.54-17.08c-2.1-.33-3.31.12-3.19,2.58C1248.68,563.87,1248.59,566.58,1248.59,569.28Zm132.56-134.51c4.3,0,7.26-.06,10.22,0,1.51,0,2.18-.23,2.07-2a122.75,122.75,0,0,0-2.52-17.5c-.22-1-.48-1.67-1.92-1.5-7.74.91-16.48,9.75-17.43,17.51-.31,2.51.29,3.23,2.8,3.12A55.45,55.45,0,0,1,1381.15,434.77Zm1.92,1.62v-.22a72.91,72.91,0,0,1-8.1-.06c-3.73-.42-3.83,1.66-3.06,4.13,2.44,7.84,7.77,12.75,15.62,15.05,2.07.61,2.76-.28,3.48-2.05,1.83-4.5,2.36-9.21,2.77-14,.17-2,0-3.23-2.6-2.94A73.06,73.06,0,0,1,1383.07,436.39Zm25.1-16a30.28,30.28,0,0,0-12.9-6.78c-1.6-.37-2.74-.45-2.44,1.74.59,4.32,1.16,8.65,1.78,13.24a59.78,59.78,0,0,0,6.05-2.87C1403.14,424.21,1405.46,422.38,1408.17,420.43Z"/><path d="M1546.87,344.46c-5.95,1.44-7.46,1-10-3.47-1.58-2.74-2.76-2.43-3.73.26-1.17,3.24-3.65,3.93-6.71,3.9-7.51,0-15-.11-22.53.05-2.33.05-3-.78-3-2.9,0-8.27-.06-16.53-.21-24.8,0-1.78.75-2,2.2-2,5.43.09,10.86.09,16.29.12,1.4,0,3-.06,2.71,2-.23,1.71,0,3.9-2.87,3.83-3.08-.07-6.17.08-9.26,0-2.26,0-3.26.66-3.21,3.24s1.09,2.78,3.11,2.69c2.83-.12,5.67,0,8.51-.05,1.39,0,2.67-.15,2.72,1.93.05,1.88.05,3.53-2.35,3.67-3,.17-5.9.21-8.85.35-1.55.07-3.31-.3-3.12,2.35.15,2.22.81,3.52,3.24,3.49,3.2,0,6.42.18,9.62,0,2.16-.14,2.93.51,2.67,2.62-.08.65-.47,1.57.5,1.92s1.5-.51,2-1.18c.92-1.15,1.84-2.3,2.81-3.41,4.22-4.8,4.06-7.06-.83-11.27-.77-.66-2.46-.8-1.92-2.24s2-.95,3.25-1.09c2.85-.32,5,.34,6,3.38.8,2.3,2.2,2.31,3,0,1.12-3.28,3.5-3.76,6.43-3.38.67.09,1.59-.27,1.81.76a1.91,1.91,0,0,1-.92,1.88c-.48.39-1,.7-1.47,1.11-3.51,3.32-3.79,5.28-1.28,9.27.78,1.24,1.57,2.48,2.47,3.64S1545.83,343.27,1546.87,344.46Z"/><path d="M1411.13,672.77c-.06,1.22-.12,2.7-.19,4.18-.11,2.51-1.29,3.92-3.84,4.65-4.85,1.39-9.66,1.86-14.51.37-7.34-2.26-10.76-8.19-9.79-16.76.64-5.76,6.87-11.39,13.29-11.83,4.3-.29,8.65-.44,12.33,2.5.87.69,1.93,1.3,1.8,2.59-.17,1.55-1.7,1.68-2.74,2.09-2.1.82-4.08-.39-6.07-.85-4.14-1-8.31.08-10.27,3a8.81,8.81,0,0,0-.38,9.71,9.66,9.66,0,0,0,9.63,4.77c1.87-.16,3.47-.73,3.84-2.76.42-2.28-1.18-2.92-3-3.34s-3.62-1.74-3.34-3.77,2.5-1.94,4.19-2.14a10.39,10.39,0,0,1,1.48,0C1411.94,665.4,1410.76,663.39,1411.13,672.77Z"/><path d="M1559.74,357.32c-1.64,1.3-3.36,1-5,1q-32,.06-64,0c-5.14,0-10.4-.53-14.34,4,1.59-3.47,4-5.25,6.91-5.35,24.92-.85,49.84-.38,74.76.06A11.31,11.31,0,0,1,1559.74,357.32Z"/><path d="M1354.68,686c4.14,5.21,9.82,5.6,15.77,5.61,19.37,0,38.75.17,58.12.31,1.39,0,2.89-.38,4.77,1-1.28.14-2,.3-2.8.3-20.85,0-41.71-.05-62.56.08C1362.09,693.33,1357.6,691.27,1354.68,686Z"/><path d="M1353.07,685.29c-8.59-8.24-17-16.62-24.83-25.63a5,5,0,0,0,.5-.43c8.86,8,16.93,16.81,25,25.63Z"/><path d="M927,436.43l-7.26-.45c2.35-1.7,4.9-.72,7.26-1.31h30.12c0,.59,0,1.17,0,1.76Z"/><path d="M1576,435.92h-36.26l0-.95q18.15-.17,36.31-.07Z"/><path d="M1248.26,762.91c-1.73-5.51-1.26-33.2,0-35.88Z"/><path d="M1302.15,84.15c5.36-5,11.56-4.28,14.92.72.42.63.89,1.34.39,2-.78,1-1.81.1-2.2-.31C1311.81,82.9,1307.57,82.87,1302.15,84.15Z"/><path d="M1210.42,181.76c3.91,4.55,3.77,9.39,1.73,14.36a2,2,0,0,1-2,1.37.91.91,0,0,1-.7-1.38C1211.73,191.48,1211.54,186.69,1210.42,181.76Z"/><path d="M1247.52,164.6c1.36,4,1.31,22.78-.1,25.48C1247.89,181.59,1247.27,173.09,1247.52,164.6Z"/><path d="M1311.93,120.14c-2,7.36-1.79,15.16-4.55,22.37C1307.46,134.77,1310.73,127.66,1311.93,120.14Z"/><path d="M1246.2,130.26c3.22-2.1.24-4.36.78-6.53.43-1.69-.12-5.07.53-5,2.73.43-.39,2.43.48,4s.59,3.47.9,5.22S1248.52,130.46,1246.2,130.26Z"/><path d="M1297.12,106.55a13,13,0,0,1,0-2.63c.23-1.14.88-2,2.29-1.73,2.09.45,0,1.47.29,2.19.77,2.16-1.81,3.26-1.71,5.23,0,.1-.31.25-.49.32-.53.2-.63-.22-.62-.55C1296.93,108.53,1297,107.68,1297.12,106.55Z"/><path d="M1254.59,110.47c0-.37-.15-.89,0-1.08.86-.85-1.47-2.13.38-2.71.54-.17,1.48-.25,1.73.06.83,1,.31,1.93-.39,2.88a3.67,3.67,0,0,0-.4,2.82c.08.55,1.66.78.4,1.58a2.16,2.16,0,0,1-1.71.29c-.75-.3-.15-1.06-.16-1.62,0-.74,0-1.48,0-2.22Z"/><path d="M1284.92,176.81c.44-1.91-.41-3.73.76-5.52.59-.91,1.25-1.26,2.09-.83a1.34,1.34,0,0,1,.49,1.89C1287.19,173.76,1288,176.48,1284.92,176.81Z"/><path d="M1241.16,173.51c.14,2.77.28,5.41.38,8.06a1,1,0,0,1-.7,1.16c-.57.19-.92-.12-1.22-.53C1238.68,180.89,1239.64,175,1241.16,173.51Z"/><path d="M1285.61,181.93c-.32,2.82-.64,5.64-.94,8.46-.09.79-.54,1-1.23.82s-1.76-.79-1.31-1.4C1283.9,187.43,1283,184.16,1285.61,181.93Z"/><path d="M1206.94,154.79c.67,2.67,1.35,5.35,2,8,.15.64,0,1.33-.74,1.43-.3.05-.93-.47-1-.83-.62-2.77-1.66-5.51-1.31-8.39Z"/><path d="M1190.51,152.5c.46.33.65.42.65.47a7.24,7.24,0,0,0,1.67,6.36c.72.81,0,1.26-.62,1.64s-1.29.3-1.41-.44C1190.39,157.93,1188.76,155.34,1190.51,152.5Z"/><path d="M1199.46,107.46c-.34,1,0,2.07-.85,2.57a1.43,1.43,0,0,1-1.34-.06c-.74-.7-.5-1.53,0-2.32.83-1.31,0-2.24-.68-3.29s-.79-2.4.46-2.78c1.82-.54.81,1.26,1.12,2A38.94,38.94,0,0,1,1199.46,107.46Z"/><path d="M1240.38,129.79c-1.72-3.66.2-6.47-1.27-9-.37-.65.38-1.35,1.18-1.51.49-.09,1.22.09,1.13.59C1240.84,122.77,1241.81,125.93,1240.38,129.79Z"/><path d="M1314,105.17c1.06,3.15,0,5.92-1,8.68a.93.93,0,0,1-1.46.49c-.7-.48-.31-.9-.1-1.49C1312.34,110.31,1313.15,107.73,1314,105.17Z"/><path d="M1180.08,101c0-.82,0-1.74.93-1.81s.88.92.94,1.61a17,17,0,0,0,1.65,5.58c.43.92.11,1.44-.73,1.62s-.85-.48-1-1.12C1181.32,104.85,1180.67,102.88,1180.08,101Z"/><path d="M1186.14,126c1.49,2.25.54,5.14,2,7.34.3.45.34,1-.25,1.19a1.7,1.7,0,0,1-1.34-.24C1185.46,133.39,1185.17,127.39,1186.14,126Z"/><path d="M1192.36,83.51c-3.21.86-5.6-.68-8.44-.79C1186.5,80.27,1189.21,80.53,1192.36,83.51Z"/><path d="M1201.16,127.75a15.71,15.71,0,0,1,2.43,9.86C1202.26,134.46,1200.85,131.32,1201.16,127.75Z"/><path d="M1295.19,128.54c-.7,3.43-.87,6.67-2.23,9.81C1291.65,134.94,1292.59,130.48,1295.19,128.54Z"/><path d="M1300.05,185.91c1.13,2.91-.1,5.06-.23,7.29,0,1-.42,1.74-1.54,1.34s-1.76-1.09-1.26-2.25C1297.87,190.31,1298.86,188.39,1300.05,185.91Z"/><path d="M1197.23,189.08c-2.33-2.71-2.93-5.78-2.47-9.7C1197.21,182.58,1197.25,185.85,1197.23,189.08Z"/><path d="M1254.28,137.86c-.39-1.12,1.24-2.18.6-3.8-.43-1.07.94-.74,1.47-.75,1.56,0,.43,1.11.39,1.47-.2,1.81-2.65,3.53,0,5.43.26.19,0,1-.62,1.09s-1.26.27-1.42-.59S1254.43,139,1254.28,137.86Z"/><path d="M1254.36,174.09c3.75,2.7,1.92,5.25,1.79,7.54,0,.18-.56.47-.85.45-.85-.06-.78-.8-.81-1.38C1254.4,178.78,1255.34,176.93,1254.36,174.09Zm2.45,5.1c-.32-.29-.57-.67-.78-.66a1,1,0,0,0-.63.66c-.12.5.18.89.72.77C1256.36,179.91,1256.53,179.52,1256.81,179.19Z"/><path d="M1254.47,168.51c.39-2.19-.44-4.39.53-6.43.32-.66.28-2,1.56-1.35.87.41,1.2,1.16.19,1.94-1.45,1.12-1.08,2.84-.59,4C1257.2,169.09,1255,167.83,1254.47,168.51Z"/><path d="M1239.68,96.14c.25-1.48-1.24-4,1.21-3.89,1.66.06.74,2.44.41,3.79s.79,4.2-.92,4.09C1238.3,100,1240.25,97.45,1239.68,96.14Z"/><path d="M1254.14,127.07c1.52-2.09-.58-4.7,1.25-6.83.59-.69.78-1.12,1.5-.51.53.44.71,1.15-.18,1.32-1.89.36-1.24,1.48-.73,2.4C1257,125.33,1256.46,126.51,1254.14,127.07Z"/><path d="M1305,155.16a18.69,18.69,0,0,1,2-10.22C1307.27,149.19,1306.6,153.2,1305,155.16Z"/><path d="M1291.35,154.87a10.25,10.25,0,0,0-2,7.26c.11,1.06-.08,2.21-1.36,2.09-1.53-.16-.94-1.76-.72-2.36C1288.05,159.64,1287.23,156.47,1291.35,154.87Z"/><path d="M1195.9,96.26c-.58-1.93-1.19-3.84-1.71-5.77a1.17,1.17,0,0,1,1-1.63c.72-.07,1,.65,1.07,1.25C1196.49,92.09,1197.08,94.05,1195.9,96.26Z"/><path d="M1247.27,134.68c-.26-1,.13-1.64,1.33-2,.44,2.81-1.23,5.67.25,8.41a1.06,1.06,0,0,1-.85,1.39c-.85.11-.8-.57-.78-1.23,0-1.68,0-3.36,0-5,0-.1-.13-.29-.2-.29-.44,0-.58.23-.42.61.2.68.84,1.06,1.24.5A1.43,1.43,0,0,0,1247.27,134.68Z"/><path d="M1241,133.1c1.06,2.53-1.06,4.87.12,7.12a1.58,1.58,0,0,1-.78.53c-.29,0-.88-.31-.86-.4C1239.93,138,1238.06,135.2,1241,133.1Z"/><path d="M1301.77,91.79c-.2,1.6.27,3.85-1.69,4.26-1.53.31-.92-1.64-.89-2.52,0-1.51.1-3.47,2-3.73C1302.35,89.65,1302,91,1301.77,91.79Z"/><path d="M1179.9,86.86c.65.88-.87,2,.42,2.54,1.55.6,1.11,1.68.77,2.67-.1.29-.79.55-1.19.53-1.27-.09-1.16-1.38-1.59-2.15C1177.3,88.64,1178.1,87.54,1179.9,86.86Z"/><path d="M1302,174.54c.64,2.11.45,3.37-1.14,7C1299.13,178.71,1300.3,176.51,1302,174.54Z"/><path d="M1302.32,168.41c-.66-2.53.4-4.46.75-6.44.13-.76.75-1.69,1.88-1.16,1.41.65.43,1.1-.1,1.78C1303.62,164.18,1305,166.83,1302.32,168.41Z"/><path d="M1290.47,199.63c-1.33-.69-3.69.24-3.87-2.3a1.14,1.14,0,0,1,1.52-1.13c1.65.55,3.74.78,4.16,2.83C1292.47,200,1291.13,199.4,1290.47,199.63Z"/><path d="M1316.93,96.33c-.36,1.22-.33,3.07-2.08,2.94-2.17-.17-.37-1.87-.7-2.82-.68-2,1.21-2.08,2.06-2.14C1317.25,94.23,1317.21,95.43,1316.93,96.33Z"/><path d="M1294.91,123.7c-.28-2.15,1.52-3.69.45-5.55-.55-1,.31-1.47,1-1.44s1.71.44,1.28,1.33C1296.76,119.8,1297.25,122.18,1294.91,123.7Z"/><path d="M1245.52,193.92c-4.25,0-6-2.07-5.33-6.6C1240.84,191,1244.29,191.1,1245.52,193.92Z"/><path d="M1239.59,165.3c.82-1.19-1.79-4,1.09-4,1.92.05,0,2.55.42,4,.25.82.79,2.63-.73,2.66S1239.44,166.42,1239.59,165.3Z"/><path d="M1203.56,141.29c2.09,2.65,2,5.46,2.7,8.28C1204.08,148.19,1203.56,146.53,1203.56,141.29Z"/><path d="M1190.86,145.15c.17,1.18-.22,1.77-.92,1.57-2.09-.6-1.07-3.56-3.1-4.37-.1,0,.91-1.33,1.12-1.09A46.86,46.86,0,0,1,1190.86,145.15Z"/><path d="M1241.22,148.88c0,1.4,0,3.35,0,5.29,0,.77-.06,1.49-1.12,1.42-1.24-.08-.67-.8-.62-1.5.15-1.93.2-3.88.16-5.82,0-1,.14-1.74,1.34-1.54S1241.92,147.61,1241.22,148.88Z"/><path d="M1239.59,110.32c.41-.95-.95-3.37,1-3.45,1.28-.06.62,2.37.55,3.72,0,.49-.12,1-.17,1.45-.08.74.57,2-.9,1.85-1.21-.12-.4-1.11-.42-1.73S1239.63,111.19,1239.59,110.32Z"/><path d="M1201.78,117.85c-.34-.7-.84-.88-1.35-.25a1.81,1.81,0,0,0,.25,2.62c2.33,1.24,0,1.68-.31,3.29-.88-2.83-1.53-4.91-2.19-7,1.79-.74,2,1.82,3.51,1.31Z"/><path d="M1198.21,193.42c2.31,1,2.93,2.87,4.1,4.26.52.61.74,1.44,0,2-1,.78-1.5-.16-1.95-.89A12.8,12.8,0,0,1,1198.21,193.42Z"/><path d="M1255.38,99.91c-.34-1.45.06-2.94-1-4.21s.18-1.82,1.15-2c1.3-.31,1.38.69,1.27,1.6C1256.64,96.82,1257.59,98.75,1255.38,99.91Z"/><path d="M1182.71,115.56c.11-.86,0-2.15.81-1.86,2.46.86,1.21,3.51,2.1,5.21a.73.73,0,0,1-.95,1C1182.68,119,1183.1,117,1182.71,115.56Z"/><path d="M1247.34,720v-5.9l.51,0V720Z"/><path d="M1241.13,79c.79,2.8.14,4.75-.55,7.08C1239.31,83,1239.35,82.3,1241.13,79Z"/><path d="M1526.33,434.94l6-.63C1530.51,436,1528.61,437.24,1526.33,434.94Z"/><path d="M1292.51,142.65c-.37,3.07-.39,5.6-2.29,7.52C1290.07,147.58,1289.89,145,1292.51,142.65Z"/><path d="M1211,176.12a1.41,1.41,0,0,1-1.47-1.47c0-1.58-2.35-2.37-1.34-4.19.1-.19.91-.22.92-.17.62,1.8,2.47,3,2.43,5.1C1211.49,175.66,1211.12,175.91,1211,176.12Z"/><path d="M1193.64,174.25c-.83-2.46-2-4.45-.56-6.71C1192.17,169.83,1197,171.22,1193.64,174.25Z"/><path d="M1583.54,435.51c1.68-.76,3.39-1.5,5.54.31C1586.87,436.41,1585.21,436.46,1583.54,435.51Z"/><path d="M1247.69,107.81c1.59,2.32.44,4.76,1.32,6.82.28.65-.6.89-1.24.87-.47,0-1.15-.11-.8-.74C1248.1,112.67,1246.39,110.3,1247.69,107.81Z"/><path d="M1247.24,776.57c0-1.66,0-3.32,0-5,0-.56,0-1.11.08-1.69.86.16.73.76.74,1.18,0,1.8,0,3.6,0,5.4Z"/><path d="M1475.58,362.32a3.21,3.21,0,0,1-2.41,2.7C1473.3,363.29,1474.45,362.79,1475.58,362.32Z"/><path d="M1201.69,117.81c.18.15.34.32.53.45s.18,0,.27,0c-.08-.41-.24-.66-.71-.41Z"/><path d="M1353.71,684.86c.31.28.74.61.21,1s-.67-.2-.85-.55Z"/><path d="M1328.24,659.66c-.23-.23-.45-.47-.67-.7a5,5,0,0,1,.44-.48.73.73,0,0,1,.73.75A5,5,0,0,1,1328.24,659.66Z"/><path d="M1246.11,194.66l-.26-.13.27-.35.25.25Z"/><path d="M1709.89,993a5.43,5.43,0,0,1,4.39-1.76c2.94-.14,3.94-2.29,4.77-4.46a3.24,3.24,0,0,0-1.35-3.92c-1.88-1.17-4-.88-6,0-1.43.66-2.73,1.62-4.18,2.22a2.23,2.23,0,0,1-2-.33,1.78,1.78,0,0,1,.36-2.34,8.69,8.69,0,0,1,2.25-1.86,13.31,13.31,0,0,1,11.72-.25c5.37,2.47,5.12,7.85-.3,12.15,5.68,4.87,6.39,8.12,2.86,13.18-3,4.26-14,4.37-16.9.14a2.28,2.28,0,0,1-.33-2.73c.72-1,1.63-.14,2.31.1,1.36.47,2.57,1.36,3.92,1.89,3.52,1.39,6.8.29,7.78-2.51a6.24,6.24,0,0,0-4.16-8.42C1713.51,993.68,1711.93,993.46,1709.89,993Z"/><path d="M1683.16,987.91c1.37-4.48,5.78-8.22,9.81-8.66,1.65-.17,2.54.14,2.53,2.07q-.11,12.95,0,25.91c0,1.26-.37,1.85-1.66,1.72-1.13-.12-2.46.4-2.86-1.47a33.56,33.56,0,0,1-.4-6.63c-.07-4.44-.16-8.88-.11-13.32,0-2-.43-2.49-2.24-1.31A7.45,7.45,0,0,1,1683.16,987.91Z"/><path d="M1716.32,927.73c0,8.28-.24,8.61-8.28,9.89a21.29,21.29,0,0,1-10.89-1.07c-6.25-2.31-10.23-8.55-9.43-14.67,1-7.65,6.23-13,13.6-13.61,3.53-.27,7.19-.64,10.52,1.09,1.7.89,4.3,1.87,3.5,4s-3.23,2.69-5.65,1.77a19,19,0,0,0-3.57-.88c-3.95-.65-7.49.24-9.77,3.66a8.44,8.44,0,0,0-.24,9.67c2.21,3.52,5.61,4.55,9.53,4.26a7.26,7.26,0,0,0,2.09-.62,3.25,3.25,0,0,0,2-3.57c-.11-1.68-1.56-1.67-2.79-1.73-2.15-.11-3.56-1-3.54-3.33,0-2.68,2.06-2.63,4-2.68h1.11C1716.35,920,1716.35,920,1716.32,927.73Z"/><path d="M1474.64,937.79c-2.72.49-4.31-.6-5.3-3-1.93-4.63-6.08-2.49-9.37-2.86-2.57-.3-4,1-4.74,3.55-.57,2-5.2,3.26-7,2.19-1.18-.71-.72-1.7-.31-2.58,3.9-8.38,7.57-16.86,10.91-25.48.61-1.56,1.89-1.55,3.32-1.63a4,4,0,0,1,4.28,2.76q4.47,10.39,8.89,20.81a22.43,22.43,0,0,0,1.36,3C1478.41,937.31,1477.69,938.37,1474.64,937.79Zm-15.78-12.43c2.39-.2,4.9,1.77,6-.74.73-1.66-.13-4.8-1.68-5.62-1.91-1-1.79,1.91-2.62,3A26.9,26.9,0,0,0,1458.86,925.36Z"/><path d="M1223.83,908.17c4.2,0,7,.31,9.42,2,1.1.77,3.06,1.43,1.67,3.32-1.13,1.53-2.49,3.41-4.82,2.09a11.15,11.15,0,0,0-5.51-1.52c-4.24-.09-6.18,2.61-7.52,5.9s.3,8.39,3.25,10.61,6,1.54,8.88-.35c2.25-1.47,4.71-.78,6.12,2,1.19,2.38-1.15,2.84-2.5,3.58-6.3,3.43-16.13,1.85-20.1-3.6-3.7-5.07-3.62-10.9-1.18-16.43C1214.07,910.07,1219.45,908.64,1223.83,908.17Z"/><path d="M974.55,1008.71c-2.59,0-5.19.18-7.76-.05-2.93-.25-3.78-2-2.73-4.78.79-2.11,2.55-3.3,4.27-4.46A52.71,52.71,0,0,0,977,992c2.69-2.83,3.12-5.93,1.12-8.28-2.27-2.67-4.87-1.29-7.36-.27a4.25,4.25,0,0,0-1,.48c-1.55,1.06-4,2.48-4.87,1-1.09-1.87,1.37-3.35,3-4.36,6.46-3.91,14.71-.84,15.79,5.82.5,3.06-.74,5.54-2.84,7.62-3.23,3.2-6.28,6.61-10.16,9.1-.62.4-1.43.85-1.24,1.63s1.18,1.17,2,1.19c3.58.09,7.16.1,10.73.19.92,0,2.24-.18,2.25,1.21,0,1.22-1.13,1.49-2.17,1.5-2.6,0-5.19,0-7.78,0Z"/><path d="M1003.66,990.41a44.39,44.39,0,0,1,0,5.16c-.36,2.94-.35,5.34,3.75,4.7a1.26,1.26,0,0,1,1.43,1.35c0,.8-.87.88-1.39.88-3.08,0-4.66,1.23-4.1,4.57.29,1.7-.89,2-2.32,2s-2.24-.65-2-2c.92-4.53-2-4.16-4.93-4.16-8.74,0-8.77-.14-4.46-8,2.28-4.18,4.62-8.34,6.7-12.63a5.15,5.15,0,0,1,4.59-3.06c1.92-.23,2.74.39,2.7,2.34,0,3,0,5.9,0,8.86Zm-4.73-4.89-1-.24c-1.77,3.46-3.48,6.94-5.32,10.36-2.42,4.5-2.45,4.29,2.66,4.49,2.92.11,3.91-.74,3.7-3.7C998.73,992.81,998.93,989.16,998.93,985.52Z"/><path d="M1088.54,922.9c0-4.2.16-8.4-.07-12.58-.12-2.39,1.14-2.46,2.67-2s4.37-1.66,4.17,2.11c0,.12,0,.25,0,.37.07,2.94-1.36,6.84.41,8.56,2.11,2.06,6.08.3,9.24.56,1.73.14,2.46-.27,2.27-2.2-.22-2.32.07-4.69-.14-7s1.12-2.67,2.92-2.4,4.08-1.12,4,2.45c-.11,8.14,0,16.28.18,24.42.07,3.3-2.21,2.51-4,2.7-2,.21-3.47-.17-3-2.7a2.29,2.29,0,0,0,0-.37c-.12-9.53-.11-9.49-9.87-8.8-1.56.11-2.21.46-2.09,2.12.14,2.09-.24,4.25.13,6.28.85,4.64-2.65,2.94-4.62,3.32-3.18.6-2.12-1.85-2.15-3.32-.08-3.82,0-7.64,0-11.46Z"/><path d="M1368.46,918.39c-2.33,1.72-4.18,3.07-5.49,5.27s-1.39,3.61.07,5.49,2.94,4.23,4.49,6.27c1.33,1.76.74,2.22-1.2,2.41-3.32.32-5.78-.57-7-3.91-.87-2.33-1.94-2.63-3.35-.27-2.55,4.28-6.51,4.43-10.92,3.82-2.29-.32-4.69.28-7,.32-4.07.06-8.14-.09-12.21,0-2,.06-2.87-.5-2.86-2.68q.09-12.21-.14-24.41c0-2,.54-2.58,2.5-2.53,5.3.14,10.61.11,15.91.09,1.53,0,2.74.1,2.52,2.11-.17,1.55.19,3.4-2.25,3.46-3,.07-5.92.1-8.87.25-1.66.09-3.79-.77-3.82,2.43s1.4,3.7,4,3.55c2.46-.14,4.94-.05,7.4,0,1.27,0,2.81-.47,2.71,1.81-.07,1.88.27,3.89-2.45,4s-5.67.11-8.5.17c-1.88,0-3.38.32-3.22,2.88.14,2.27,1.14,3,3.27,2.93,3.08-.1,6.17.11,9.24-.08,2.28-.13,3.27.54,2.8,2.87-.13.67-.63,1.44.41,1.85s1.28-.53,1.73-1c1.08-1.17,2.06-2.43,3.11-3.64,4.22-4.88,4.1-7.21-.73-11.52-.7-.63-2-.92-1.56-2.13.38-1,1.52-1,2.57-1,2.8-.09,5.37,0,6.76,3.17.54,1.22,1.57,1.71,2.72.1C1361.84,916.51,1363.13,916.26,1368.46,918.39Z"/><path d="M1578.42,922.93c0-4.19.07-8.39,0-12.58,0-1.61.4-2.16,2.06-2.12,5.43.13,10.86.13,16.29.15,1.9,0,2.65.81,2.43,2.74-.19,1.73-.39,3.13-2.71,3-2.84-.13-5.69.1-8.52,0-2.26-.1-3.34.54-3.48,3-.18,3,1.65,2.83,3.54,2.86,2.35.05,4.69,0,7,.1,1.18.06,3.07-.72,3.07,1.5,0,1.68-.17,3.42-2.44,4-2.7.64-5.41.37-8.09.26-2-.09-2.63.52-2.49,2.47s0,3.7,0,5.55c0,3.38-2,4.81-5.37,3.94-1.66-.44-1.18-1.67-1.19-2.66-.06-4.07,0-8.14,0-12.22Z"/><path d="M740.92,905.22a42.54,42.54,0,0,1,8,.62c7.16,1.66,11.44,7,11.34,14.57-.09,6.52-5.5,12.58-12.16,13.71a76.37,76.37,0,0,1-12.91.73c-1.37,0-2.34-.09-2.37-1.9-.16-8.63.36-17.27-.34-25.89-.11-1.43.67-1.92,2.06-1.86C736.49,905.29,738.47,905.22,740.92,905.22Zm2,23.68c6.15,0,10.42-4.3,10.28-10-.11-4.45-5.14-8.09-10.67-7.9-2.16.07-3.11.8-3,3.06.11,3.68.08,7.38,0,11.06C739.32,927.91,740.08,929.55,742.89,928.9Z"/><path d="M1474.19,1008.94c-7.27,0-11.82-5.78-9.61-13,1.75-5.65,5.2-10.49,8.89-15.1a4.09,4.09,0,0,1,3.92-1.55c.9.11,1.92.34,2.21,1.1.38,1-.78,1.29-1.43,1.82-2,1.64-3.13,4-4.64,6.12-.75,1-.77,2.13,1,2.26a10.94,10.94,0,0,1,1.45.29c6,1.18,9.16,4.52,8.66,9.08C1484,1006,1480.55,1008.91,1474.19,1008.94Zm-5.56-8.71a5.43,5.43,0,0,0,5.25,5.76c3.67.17,5.87-2.13,6-6.25.08-3.23-1.94-5.51-4.94-5.59C1471.15,994.05,1468.72,996.4,1468.63,1000.23Z"/><path d="M1451.16,1008.94c-7.72.08-12.06-5.93-9.44-13.39,1.93-5.48,5.48-10.1,8.62-14.93.94-1.44,2.43-1.55,4-1.38.69.08,1.57-.07,1.92.78s-.17,1.41-.76,1.89c-2,1.58-2.9,3.93-4.4,5.86s-1.13,3.07,1.47,3.29,5.53.45,7.28,2.88a9.32,9.32,0,0,1,.65,9.82c-1.48,3.19-4,5.32-7.81,5.18C1452.15,1008.93,1451.66,1008.94,1451.16,1008.94Zm5.77-9.44c0-3.75-1.7-5.3-5.81-5.29-3,0-6,3.21-5.91,6.25.09,2.82,2.85,5.35,5.94,5.44C1454.75,1006,1456.94,1003.59,1456.93,999.5Z"/><path d="M856.49,922.59c0-4.19,0-8.39,0-12.59,0-1-.59-2.36,1.39-2.24,4.56.26,9.12.3,13.66.68,4.78.41,7.58,4.17,6.89,9-.19,1.33-.37,2.61-2.14,3-2.06.48-2.59,1.43-.32,2.63,3.48,1.86,4.42,5,3.43,8.47s-3.62,5.15-7.33,5.69c-4.43.65-8.86.42-13.29.65-1.83.1-2.32-.59-2.28-2.3.08-4.32,0-8.64,0-13Zm12,3.35c-4.93-.12-5.7.16-5.72,2.4,0,2.42.93,3.76,3.77,3.66,4.47-.16,6.31-1.1,6.19-3.94C872.63,924.63,869.83,926.56,868.54,925.94ZM867.3,914.1c-1.79.37-4.62-.7-4.68,2.82,0,2.91,1.92,3.21,4.23,3.19s4.65-.15,4.76-3.15C871.72,914.16,869.49,914.15,867.3,914.1Z"/><path d="M1357.93,1008.94c-8,0-12.15-5.61-9.6-13.22,1.86-5.52,5.32-10.15,8.62-14.85a4.51,4.51,0,0,1,3.1-1.84,2.44,2.44,0,0,1,2.63.85c.55.89-.32,1.58-.84,2.25s-1.25,1.52-1.79,2.33c-1.15,1.74-3.32,3.67-3.1,5.24.36,2.55,3.42,1,5.23,1.56,4,1.32,6.89,5,6.43,8.79C1367.87,1005.94,1364.25,1009,1357.93,1008.94Zm.62-14.83c-4,0-6.65,2.55-6.61,6.31,0,3,2.83,5.55,6.15,5.58s5.34-2.43,5.36-6.48C1363.47,996,1361.77,994.08,1358.55,994.11Z"/><path d="M1325,990.28a36.43,36.43,0,0,1,0,4.79c-.47,3.43-.17,6,4.35,5.11.6-.12,1.7-.09,1.63.94,0,.8-.91,1.12-1.69,1.13-3.34.06-5.25,1.44-4.58,5.06.31,1.69-.51,1.88-1.84,1.74s-2.75-.13-2.27-2c1.08-4.17-1.25-4.12-4.35-4.12-12.1,0-8.89-.63-5-8.57,2.18-4.5,5.15-8.6,7.68-12.93,1.05-1.78,2.38-2.73,4.51-2.39,2.54.4,1.57,2.47,1.69,3.82.22,2.45.06,4.92.06,7.39Zm-4.41-3.8-.68-.14c-1.71,2.79-3.5,5.54-5.09,8.4-.84,1.52-3,3-1.92,4.73.86,1.36,3.2.27,4.85.58,2.18.4,3-.31,2.89-2.69C1320.42,993.75,1320.58,990.11,1320.58,986.48Z"/><path d="M1331,1011.85c-.88-.1-1.63-.55-.92-2.07,4.68-10.08,7.76-20.78,12.09-31a7.16,7.16,0,0,1,1.19-1.84,2.52,2.52,0,0,1,2.7-.74c.86.39.29,1.48,0,2.29q-6,15.69-11.9,31.39C1333.59,1011.22,1332.84,1011.92,1331,1011.85Z"/><path d="M872.45,1008.94c-7.44,1-12.24-7.24-9.21-14.64,1.84-4.51,4.79-8.49,7.59-12.48a6.5,6.5,0,0,1,2.4-2.24c1.21-.55,2.84-.73,3.81.36,1.3,1.47-.53,2-1.23,2.84a12.42,12.42,0,0,0-1.28,1.79c-1,1.81-3.54,3.32-3.11,5.2.56,2.42,3.51.92,5.33,1.56,4.38,1.54,6.6,5.07,5.85,9.76C881.73,1006.47,878.51,1009,872.45,1008.94Zm5.66-9.31c0-3.64-2-5.5-5.77-5.45s-5.7,2.33-5.64,6.59a5.7,5.7,0,0,0,5.52,5.3C875.82,1006.16,878.11,1003.66,878.11,999.63Z"/><path d="M839.85,985c.1-2.16,1.44-3.19,2.94-4.11,3.37-2.07,7.18-2.06,10.75-1.4,5.51,1,8,9.29,4,13.27-3.63,3.66-7,7.63-11.32,10.55-.57.38-1.57.69-1.29,1.56s1.29,1,2.14,1.07c3.57.05,7.14.1,10.71.07,1.16,0,1.94.22,1.93,1.56,0,1.17-.78,1.42-1.72,1.38-5.53-.22-11.06.32-16.6-.48-2.56-.37-2.63-1.61-2.2-3.49a6.81,6.81,0,0,1,2.54-3.92q4.61-3.67,9.09-7.52c1.37-1.17,3.09-2.21,3.47-4.12.44-2.15.8-4.52-1.08-6.24s-3.87-.85-5.89-.23C845,983.67,842.94,985.69,839.85,985Z"/><path d="M743.05,979.33c3.24-.69,6,1.21,7.33,4.22,1.1,2.5,1.07,5.63-1.72,7.66-1.48,1.09-.49,1.67.32,2.51,3.81,3.95,3.8,9.07,0,13-2.4,2.54-10.73,2.88-13.46.55a9.16,9.16,0,0,1-1.39-12.87c1.75-2.07,1.9-3.1.05-5.18-2.49-2.79-.56-7.66,3.24-9.27C739.12,979.31,740.83,979.37,743.05,979.33Zm-6.45,20.58c-.08,3.48,1.95,6,4.91,6.07,3.77.1,5.92-2,6-5.81a5.55,5.55,0,0,0-5.82-6.09C738.81,994,736.69,996.46,736.6,999.91Zm4.8-8.67c2.61.17,5.33-2,5.23-4.61s-1.34-4.45-4.3-4.54c-2.61-.07-4.37.84-4.35,3.72C738,988.29,737.94,990.91,741.4,991.24Z"/><path d="M713.3,1004.73c3.48,1.77,6.6,1.09,9.62,1.33,1.6.12,3.2.19,4.78.4.56.08,1.28.36,1.16,1.16a1.28,1.28,0,0,1-1.28,1.1c-6,.06-12.09.11-18.13.1-1.23,0-1.16-1.11-1.19-1.94-.07-2.21-.31-4.59,2-5.92a47.58,47.58,0,0,0,9.78-7.8,19,19,0,0,0,2.79-3.41,4.93,4.93,0,0,0-.34-6.08c-1.63-2.07-3.69-1.57-5.7-1s-3.8,2.25-6,2.57c-.58.08-1.33.5-1.68-.15-.23-.44,0-1.13.06-1.71a1.44,1.44,0,0,1,.33-.65c3.24-4.09,7.83-3.89,12.19-3.3,3.35.45,5.59,3.06,6.52,6.28s-1.06,6-3.06,8.29A65.89,65.89,0,0,1,713.3,1004.73Z"/><path d="M765,979.41a9.49,9.49,0,0,1,5.35,1c4.71,2.18,5.38,7.33,1.41,10.69-1,.86-2.75,1.78-.36,2.75,3.07,1.25,4,3.52,3.63,6.44-.45,3.25-1.63,6.33-5,7.66a16.1,16.1,0,0,1-11.18,0,4.53,4.53,0,0,1-2.58-2c-.55-.94-1.32-2-.53-3s1.79.07,2.61.36c1.48.54,2.84,1.4,4.33,1.93,3.54,1.26,5.95.09,7.23-3.37,1.54-4.19-.36-6.88-5.51-7.8-1-.18-2.59.28-2.6-1.27,0-1.4,1.56-1.28,2.58-1.51,4.91-1.11,6.88-4.61,4.34-7.65-1.57-1.87-3.5-1.55-5.4-1.08a11,11,0,0,0-2.89,1.56c-1.43.9-3.21,2.45-4.4.58-1-1.55,1-2.71,2.29-3.67A9.23,9.23,0,0,1,765,979.41Z"/><path d="M1124.63,1004.89c4.17,1.62,7.54.89,10.8,1.16,1,.09,2,0,3,.06,1.23.06,2.94,0,2.9,1.52s-1.8,1.21-2.94,1.22c-4.69,0-9.38.11-14.06,0-1.58,0-3.75.72-4.37-1.66a5.33,5.33,0,0,1,1.93-5.61c2.44-2.06,5.07-3.9,7.55-5.92,2.09-1.71,4.17-3.48,5.38-6,1.11-2.29,1.06-4.52-.78-6.46-1.67-1.76-3.63-1.05-5.45-.39s-3.54,1.66-5.37,2.31c-.69.24-1.88.52-2.26-.47a2.45,2.45,0,0,1,.51-2c3.36-3.78,8-3.84,12.32-3.17a8.25,8.25,0,0,1,6.85,6.41c.84,3.39-1.27,5.92-3.31,8.17A57.21,57.21,0,0,1,1124.63,1004.89Z"/><path d="M1107.64,1002.06c-.6.18-1.07.49-1.48.42-3.59-.58-4.92,1-4.37,4.44.3,1.77-.55,2.08-2,2.07s-2.6-.46-2.27-2.06c.86-4.29-1.85-4-4.68-4-2.65,0-6.27,1.23-7.69-.74s1.78-4.35,2.8-6.59c2.22-4.88,5-9.52,7.56-14.23,1.3-2.36,3.7-2.56,5.81-1.93,1.9.56,1.35,2.69,1.08,4.17a52.62,52.62,0,0,0-.41,9.21c0,3.5-1.37,7.85,4.5,8.2C1106.81,1001,1107.15,1001.6,1107.64,1002.06Zm-18.83-2.09c2.78,0,4.73,0,6.69,0,1.28,0,2.11-.23,2.09-1.78,0-3.93,0-7.87,0-11.81l-.75-.06Z"/><path d="M1072.76,1008.89a12.55,12.55,0,0,1-8.63-2.65c-.86-.7-2.07-1.43-1.54-2.62s1.93-.62,2.9-.32c2,.59,3.87,1.48,5.86,2,3.69,1,5.7-.25,6.55-3.8.71-3-1.46-6.77-4.22-7.38a10.32,10.32,0,0,0-1.48-.1c-1.1,0-2.62,0-2.63-1.33s1.53-1.4,2.59-1.39a4.77,4.77,0,0,0,4.65-2.95c1.8-3.53.29-6-3.71-6.1-2.54-.1-4.33,1.56-6.52,2.25-1.25.39-3,1.21-3.67-.3-.85-1.82,1.09-2.55,2.31-3.14,3.87-1.84,7.94-2.59,12.09-1,4.88,1.9,6.07,6.45,2.45,10.25-1.93,2-2,2.88.49,4.3,3.19,1.81,1.66,5.14,1.6,7.74a5.83,5.83,0,0,1-4.43,5.72C1075.79,1008.55,1074.15,1009.36,1072.76,1008.89Z"/><path d="M1113.36,1003c2.15-.42,2.49.67,1.81,2.47a35.8,35.8,0,0,1-2.07,5.08,2.68,2.68,0,0,1-3.85,1.06c-1.66-1.17-.25-2.31.71-3.28a4.18,4.18,0,0,0,1.53-3.59C1111.23,1003.12,1111.88,1002.73,1113.36,1003Z"/><path d="M1606.26,992.48c4.42,2.21,6.54,5.08,5.06,9.69-1,3.07-2.31,5.63-5.88,6.29-4.39.81-8.57.55-12.28-2.16-.85-.62-1.64-1.9-1-2.91s2-.53,3-.12,1.92,1.05,2.92,1.51c3.83,1.79,7.22.92,8.42-2.13,1.57-4-.22-7.41-4.6-8.61-1.29-.35-2.61-.59-3.93-.88-.24-1.33.84-1.3,1.59-1.5.94-.26,2-.3,2.88-.58a5.4,5.4,0,0,0,3.65-6.63c-1.23-3.45-4-2.26-6.19-1.81-1.48.31-2.76,1.52-4.18,2.24-1,.52-2.4.82-3-.17s0-2.24,1.13-3.07c3.7-2.59,7.86-2.83,12-2a6.35,6.35,0,0,1,5.06,5.32C1611.4,988.29,1609.72,990.62,1606.26,992.48Z"/><path d="M1573.82,992.92a8.85,8.85,0,0,1,4.76-1.74,5.24,5.24,0,0,0,5-3.72,4.07,4.07,0,0,0-1.64-4.6,6,6,0,0,0-6.29.29c-1.35.78-2.38,2.1-4.17,2.14s-2.23-.53-1.46-2.17c1.39-3,6.91-4.71,12-3.76,2.9.55,6.11,4.48,6.06,7.52a5.24,5.24,0,0,1-2.31,4c-1.32,1.05-1.22,2,.06,2.92,3.71,2.8,2.83,6.37,1.63,10-1.28,3.82-4.1,5.16-8,5.11-3.4,0-6.64-.47-9.27-2.84-.9-.82-1.85-2-1-3.19.74-1,1.77.13,2.62.39,1.63.48,3.15,1.34,4.79,1.79,4.07,1.12,6.6-.18,7.52-3.68.77-2.93-1.28-6.3-4.55-7.25C1577.93,993.65,1576.26,993.42,1573.82,992.92Z"/><path d="M1558.94,994.36c0,3.94,0,7.88,0,11.81,0,1.3.54,2.67-1.72,2.81s-2.85-.86-2.89-2.68c-.13-6-.34-12-.24-18.07,0-2.72-.64-2.89-2.83-1.74-1.4.74-3.55,2.22-4.52.67s1.19-2.91,2.42-4.08a6.78,6.78,0,0,1,1.45-1.12c2.47-1.26,5.1-3.9,7.65-2.55,2.1,1.12.64,4.48.73,6.84.11,2.7,0,5.41,0,8.11Z"/><path d="M1246.9,979.35c3-.21,6.14.5,7.38,3.76s1.23,6.51-2.3,8.77c-1.62,1,0,1.74.65,2,3.65,1.65,3.49,4.72,2.9,7.8-.67,3.41-2.31,6-6.14,6.88-8.75,1.95-14.42-3.12-12.85-11.46.45-2.4,3-3.25,3.38-4.88s-2.82-2.66-3.07-5C1236.36,982.62,1240.38,979.3,1246.9,979.35Zm-6.39,20.67c0,3.7,2.14,6,5.37,6,3.57-.06,5.5-2.22,5.56-6.25,0-3.28-2.43-5.62-5.9-5.59C1242.48,994.19,1240.47,996.53,1240.51,1000Zm1.46-13.26c.08,2.57.7,4.61,4,4.46,2.73-.12,4.43-2,4.37-5.16-.06-2.89-1.85-3.7-4.39-3.77C1242.74,982.2,1241.83,984,1242,986.76Z"/><path d="M1233.08,993.84a19.07,19.07,0,0,1-1.59,9.44c-1.79,4.12-4.26,5.72-8.55,5.59-4.76-.15-7.74-2.26-9.15-6.55a27.38,27.38,0,0,1,.13-17c1.24-4,4.69-6.08,9.55-6a9.24,9.24,0,0,1,8.75,6.59A19.19,19.19,0,0,1,1233.08,993.84Zm-4.22.49c-.16-2.8.06-5.69-1-8.35a5.24,5.24,0,0,0-5-3.69c-2.61-.1-3.79,1.5-4.42,3.6a31.28,31.28,0,0,0-.25,16,4.44,4.44,0,0,0,4.75,3.73,4.8,4.8,0,0,0,4.9-3.63C1228.76,999.45,1228.65,996.88,1228.86,994.33Z"/><path d="M1198.54,985.09c-1.65.78-2.48,1.26-3.37,1.57-1.41.5-3.26,1.88-4.22.44-.76-1.14,1-2.55,2-3.57a8.34,8.34,0,0,1,1.71-1.39c2.55-1.35,5.23-4.14,8-2.67,2,1.11.65,4.53.68,6.9.08,6.53-.06,13-.1,19.58,0,1.42.54,2.93-1.93,3s-2.7-1.28-2.71-2.91C1198.5,999.33,1198.54,992.57,1198.54,985.09Z"/><path d="M933.61,922.68c0-4.19,0-8.39,0-12.58,0-.93-.42-2.2,1.22-2.07,5.52.42,11.1-.41,16.58.92a4.48,4.48,0,0,1,3.68,4.46c.09,2.53,1.43,5.66-1.83,7.27-2.36,1.17-1.62,2.14,0,2.82,3.56,1.45,3.65,4.3,3.26,7.36-.44,3.43-2.5,5.46-5.84,6.22-5.12,1.16-10.31.6-15.48.75-1.8.06-1.55-1.11-1.55-2.2,0-4.31,0-8.63,0-13Zm12.44,3.25c-5.57,0-6.43.32-6.33,2.76.11,2.74,1.84,3.33,4.3,3.27,4.33-.11,6.1-1.2,6-4.25C949.85,924.28,947.07,926.8,946.05,925.93ZM944,920.06c2.47.07,4.88.17,5-2.73.1-2.72-2-3.46-4.3-3.19-2.06.24-5-.84-5,3C939.54,920.78,942.36,919.69,944,920.06Z"/><path d="M972.24,927.16c0-2-.1-3.95,0-5.92.08-1.41-.85-3.5.57-4.08a5.78,5.78,0,0,1,5.6.56c1,.84,1.2.71,2.23.25,3-1.33,6-2,8.45,1.24.94,1.25,1.94,1.38,2.71-.36,1.6-3.57,4.72-1.21,7.11-1.65,1.95-.36,3,.92,3.71,2.79,2,5.22,1.54,10.67,1.61,16,0,3.07-2.79,1.37-4.33,1.72s-2.66.06-2.59-2c.1-3.2.06-6.41,0-9.61,0-1.32.73-3.45-1.45-3.48-2,0-4.3.59-4.43,3.37s-.21,5.67-.1,8.5-1.24,3.21-3.64,3.25-3.23-1-3.13-3.29c.13-3,.05-5.91.05-8.87,0-1.65-.31-2.76-2.48-2.67s-3.25.57-3.19,2.9c.07,2.84-.32,5.71,0,8.5.38,3.37-1.41,3.35-3.9,3.52-3.2.23-2.95-1.61-2.91-3.67.06-2.34,0-4.68,0-7Z"/><path d="M1028,917.23a4.29,4.29,0,0,1,.87-.07c7.52-.42,8.84.73,9.33,8.44.17,2.7.07,5.43.11,8.14.06,3.59-1.7,4.9-5.24,4-1.49-.37-1.49-1.38-1.5-2.53,0-3,0-5.93-.07-8.89,0-2.19-1-3.29-3.39-3.37-2.83-.09-2.47,1.66-2.49,3.38a56,56,0,0,0,0,7.77c.5,3.71-1.72,3.51-4.21,3.73-3.12.27-3-1.49-3-3.67.06-4.32.09-8.65-.2-12.95-.22-3.14.48-4.7,4-4.05C1023.72,917.47,1025.37,917.23,1028,917.23Z"/><path d="M1015.23,927.62c0,2.22-.16,4.45,0,6.65.25,2.66-.52,3.64-3.41,3.64s-3.58-.68-3.51-3.46c.14-4.92,0-9.86-.32-14.78-.16-2.33.79-2.95,2.71-2.54,1.65.35,4.59-1.56,4.45,2.36-.1,2.7,0,5.42,0,8.13Z"/><path d="M1011.22,913.42c-1.25-.17-3.44.61-3.45-2.46,0-3.22,2.26-2.59,4.13-2.68s3.41,0,3.47,2.58C1015.44,913.83,1013.52,913.49,1011.22,913.42Z"/><polygon points="427.95 909.33 427.98 909.15 427.93 909.39 427.95 909.33"/><path d="M427.93,909.39c.49-.57.92-.64,1.26.13l-.19.17-1.05-.36Z"/><path d="M1332.11,386.05a114.16,114.16,0,0,1,10.77,27.29c.76,6.55,2.42,13,2.22,19.66,0,1.25.88,1.56,2,1.72,1.26.19,2.67-.34,3.77.65a.93.93,0,0,1-1.34.86c-4.45-1.38-4.31,1.2-4.58,4.51-2.55,31.39-16.15,56.58-42.31,74.68a104.15,104.15,0,0,1-28.74,13.48c-6.49,1.12-12.81,3.25-19.52,3-3.11-.1-7-1.08-6.23,4.8-1.9-4.78-1.9-4.7-7.09-4.89a88.81,88.81,0,0,1-16.65-2.7c-13.54-3.12-25.58-9.4-36.82-17.38-1-.9-2.27-1.19-3.18-2.25-3.91-4.55-8.07-8.91-11.87-13.55-1.72-2.1-3.14-1.9-4.91-.48q-7.32,5.88-14.61,11.77a114.94,114.94,0,0,0-11.69,9.42c-1.62,1.49-2.13,4.2-4.3,4.89-4.87,1.53-2.44,3.57-.66,5.68a50.25,50.25,0,0,1,4,4.79c1.28,1.94,3.77,3.09,3.83,5.82-7.41-6.11-12.54-14.11-18.08-21.75-1.87-2.58-3.58-5.27-5.37-7.91,0-.37-.2-.85,0-1.08.55-.8.49.2.67.33,3.38,2.45,5.07,6.23,7.37,9.53,3.25,4.63,4.48,4.78,6.51-.19,1-2.43,2-2,3.68-1.62-.1.22-.2.44-.29.67-.26-.46-.6-.57-1-.14s-.27.74.28.9a.74.74,0,0,0-.51,1.08c.26.71.77.37,1.07.09.59-.54,1.1-1.18,1.64-1.78l29.43-23.84c-9.39-11.83-14.83-25.65-17.29-40.75-.22-1.33-.47-2.66-.7-4,0-1.37-.07-2.74-.11-4.11a10.22,10.22,0,0,0,.1-1.1c0-5.4,0-5.4-5.16-6.14-.6-.09-1.22-.12-1.56-.87.14-.11.28-.32.44-.33,6.13-.32,6.14-.32,6.24-6.65.09-6,1.48-11.88,2.51-17.77.6-.4.51-1,.39-1.57a99.25,99.25,0,0,1,27.43-44.61c17-16,37.33-24.47,60.6-25.83,3.33-.2,6.58.06,5.77-3.1-1.15,4.64,3.59,2.95,6.82,3.23,25.7,2.2,47.57,12.22,64.63,31.87,1.42,1.64,2.06.84,3.17.08,10-6.89,19.42-14.65,28.79-22.41a2.91,2.91,0,0,0,.57.4c-5.69,6.54-13.19,10.92-19.72,16.45-2.72,2.29-5.58,4.41-8.43,6.53-1,.72-2,1.25-.74,2.51C1326.78,377.62,1329.22,382,1332.11,386.05Zm-1.64,12.38c-.21-.66-.41-1.32-.62-2-2.79-6.89-7-12.95-11.33-18.91-.53-.72-1-1.52-2-.53-4.35,4.37-10,7.19-14.21,11.71q-17.56,14-35.15,27.94c-1.09.87-1.93,2.54-3.83,1.87l16.13-13.08c12.69-9.5,24.1-20.62,37.42-29.54a150,150,0,0,0-12.52-11.78c-15.21-12.19-32.59-18.6-52-19.8-3.23-.2-4,1-3.88,3.94.19,5.92.07,11.85,0,17.78,0,.86.59,2-1.09,2.59a13.46,13.46,0,0,1-.29-2c-.07-6.54-.13-13.09-.13-19.63,0-2.07-.41-3-2.94-2.78a110.08,110.08,0,0,0-15.63,2.39c-22,5.2-40,16.34-53.28,34.82-8.37,10.78-13.36,23.06-16.08,36.34-1.26,4.66-1.49,9.44-1.79,14.23-.14,2.14.45,2.78,2.59,2.76,6.65-.06,13.3.05,20,.13.87,0,2.07-.51,2.41,1.34-7.3,0-14.54.13-21.77-.07-2.69-.08-3.21.77-3.12,3.29a76,76,0,0,0,1.71,13.11c2.34,12.29,7.45,23.42,14,34,1.42,2.31,2.49,2.07,4.21.45,7.72-7.26,16.23-13.58,24.46-20.22q12-9.69,24.15-19.31l10.48-7.86.46.38c-1.41,1.91-2.62,4-5,5-15.7,11.59-30.81,23.93-45.92,36.26-2.91,2.45-5.8,4.94-8.74,7.35-1.14.93-1.55,1.68-.43,3,10,11.81,21.73,21.2,36.18,27a71.81,71.81,0,0,0,31.29,7.3c2,0,2.87-.48,2.85-2.62,0-6.53,0-13.06.09-19.59.2-.54.26-1.37.63-1.54.55-.26.64.36.64.88,0,1.22.07,2.43.11,3.65-.12,5.39-.1,10.78-.43,16.16-.17,2.81,1.07,3.14,3.39,3.09a82.8,82.8,0,0,0,26.17-4.87,58,58,0,0,0,13.45-5.87c28-16.25,44.49-40.05,47.6-72.64.61-6.34.77-6.32-5.57-6.31h-18.86c.9-2.11,2.31-1.38,3.39-1.39,6.18-.06,12.36-.16,18.53,0,2.57.07,3-.8,2.83-3.16-.66-7.1-1.25-14.21-3.64-21-1-2.92-1.26-6.18-3.62-8.55A5.09,5.09,0,0,0,1330.47,398.43Z"/><path d="M1123.24,444.4c-3.71,6.63-8.8,11.59-16.35,13.6-1.88.51-1.56,1.86-1.26,3.21a178.61,178.61,0,0,0,5.71,21.07c.29,3.4,2.72,6.3,2.32,10.35-2.48-3.73-3.05-7.76-4.62-11.36q-2.54-10-5.07-19.93c-.42-1.65-1.13-2.45-3.25-2.56-10.22-.49-17.88-5.19-22.38-14.59-3.15-9.09-1.73-17.49,3.81-25.27,5.06-5.84,11.68-8.25,19.17-8.49,1.86-.05,2.31-.71,2.9-2.38,2.07-5.82,1.75-12.32,5.14-17.74-.28,5.38-2.88,10.22-3.55,15.54-.41,3.19-.6,5.32,3.43,6.34s7.42,4.06,10.44,7.12C1125.34,427,1126.37,435.43,1123.24,444.4ZM1102.87,446c2.71,1.74,1.15,4.21,1.13,6.17,0,3.07,1.15,3.32,3.54,2.39,8.32-3.23,12.58-9.61,14.37-18.36-3.09,0-6-.41-8.73.1-3.34.63-7.36-2.15-10.07,1.86,0,0-.64-.24-.71-.45-.61-2.06-2.28-1.35-3.65-1.45l-10.18-.72a45.27,45.27,0,0,1,10.87-.74c1.7.06,2.35-.35,2.45-2.21.29-5.28.68-10.58,1.34-15.83.32-2.54-.59-2.81-2.75-2.73-12.84.5-22.31,9.55-20.27,24.67,1.19,8.74,9.93,16.14,19.73,17,2.47.21,3.22-.48,3-2.91C1102.69,450.61,1102.87,448.4,1102.87,446Zm9.32-11.26v-.07c2.59,0,5.18.06,7.77,0,1.75-.05,2.79-.26,2.24-2.82-1.75-8.2-6.68-13.38-14.1-16.71-2.08-.93-2.88-.46-3.13,1.66-.49,4.27-1.14,8.53-1.52,12.81-.45,5.19-.36,5.19,4.68,5.15Z"/><path d="M1173.85,310.45c1.75-2.69,4.68-3.84,7.3-5.23a120.54,120.54,0,0,1,40.74-13c2.56-.34,2.21-1.69,2.26-3.26.35-11.39,8.32-21.05,19-23.07,13.82-2.62,26.42,6.54,29.23,20.45,2.55,12.63-9.07,24.9-19.09,27-13.14,2.79-25.29-5.2-28.35-16.82-.86-3.28-2.31-3.5-5.18-3-15.88,2.79-30.48,9-44.66,16.36a8.53,8.53,0,0,1-1.35.44Zm94.22-19.57c-.94.11-1.43.22-1.92.22-4.81,0-9.62.13-14.42-.09-2.52-.12-3.22.72-3.12,3.11.15,3.57,0,7.15,0,10.72,0,7.07,0,7.07,6.69,4.63,9.21-3.36,15.52-13.77,14-22.66A21.7,21.7,0,0,0,1246,268.75c-8.56.57-17.46,8.65-18.88,17.92-.34,2.2.31,3.05,2.7,2.93,4.31-.2,8.64-.26,12.94-.05,3.16.16,4.39-.82,4.22-4.13-.15-2.76-.63-5.67,1-8.39a40,40,0,0,1,.52,9.63c-.17,2.5.73,3,3.11,3C1257,289.62,1262.44,289.07,1268.07,290.88Zm-30.63.43v-.19c-2.47,0-5,.15-7.4,0-3-.24-3.23,1.27-2.68,3.59,1.94,8.06,9.65,14.93,17.86,16.11,1.85.26,1.83-.65,1.84-1.83,0-2.84.13-5.69,0-8.52-.14-3,1.4-7.19-.68-8.81C1244.46,290.14,1240.5,291.31,1237.44,291.31Z"/><path d="M1143.14,356.54c-13.44.32-22.81-10.75-22.39-25,.32-10.71,10.85-22.4,24.41-21.3,13,1,22.69,10.92,21.86,25.33C1166.41,346.31,1158.19,357.13,1143.14,356.54Zm-2.68-15.11c5.43,3,12.7-2.15,11.83-9.72-.11-1-.39-2-1.5-2.3a1.9,1.9,0,0,0-2.49.94c-1.87,3.44-5.25,5.46-7.84,8.22-1.76.23-2.21-.59-.88-1.63,2.45-1.93,4.28-4.38,6.34-6.64.83-.91,3-1,2.31-2.81s-2.44-2.25-4.26-2.37c-3.84-.24-7.62,2.17-8.62,5.55C1133.93,335.51,1135.49,338.79,1140.46,341.43ZM1159.35,319a19.61,19.61,0,0,0-14.27-7.2c-9.38-.43-17.78,4.72-21.06,12.66a23.43,23.43,0,0,0-1,14.5c1,4.16,2.48,7.78,7.16,10.61,7.4,4.48,7.5,5.67,15.28,5.26A21.08,21.08,0,0,0,1163.16,324c-2.26-4.39-2.53-4.43-6.2-1.11a6,6,0,0,1-2.08,1.49c-2.24.61-1.76,1.6-.9,3.17,2.68,4.86.91,12.71-3.43,15.93-3.76,2.79-11.1,2.54-14.48-.57-5-4.58-5.34-9.69-2.59-15.78,2.15-4.75,7.17-6.2,13-4.33,1.16.37,2.26.92,3.4,1.32.89.31,1.69.79,2.71,0C1154.77,322.31,1157.09,320.72,1159.35,319Z"/><path d="M1318.19,306.31c-1,1.49-2,.25-2.8-.08-11-4.53-22.18-8.62-33.56-12.08-1.72-.52-2.7-2.88-4.65-2.18a136.38,136.38,0,0,1,37.27,12.84c1.19.6,2.26,1.45,3.67,1.5Z"/><path d="M1114.21,380.79l-4.92,9.63c0-2.95,2.29-5.26,2.31-8.2,3.71-8.65,7.64-17.19,12.73-25.15.64-1,1-2.23,2.93-2.85C1122.7,363.29,1117.35,371.52,1114.21,380.79Z"/><path d="M1329.09,313.73a116.44,116.44,0,0,1,28.27,24.68c-2.21.25-2.9-1.17-3.73-2.06a151.17,151.17,0,0,0-22.77-19.88,5.45,5.45,0,0,1-2.22-2.36Z"/><path d="M1357.61,347.39l-2.32,3.24a18.59,18.59,0,0,1-2.33-5.83c-.07-.29-.49-.45-.1-.91,1.8-2.13,9.65-.92,11.29,1.91-1.46.67-3.06-.71-4.42.31-1.1-2.13-2.86-1.84-5.24,1Z"/><path d="M1115.62,497.09c3.33,1.92,4.25,4.08,3.89,7.08C1117.36,502.48,1116.75,500.13,1115.62,497.09Z"/><path d="M1318.63,307.19c2.59.65,4.24,2.69,6.2,4.31a12.4,12.4,0,0,1-6.52-4.11Z"/><path d="M1133.07,436.2c1.73-2.7,3.28-1.66,5.81-.78A8.63,8.63,0,0,1,1133.07,436.2Z"/><path d="M1165.87,314.51c1.94-.39,3-2.19,4.69-3,1-.48,1.81-1.91,3.29-1.1l-.06-.1c-2.51,1.66-4.24,4.8-8,4.16Z"/><path d="M1328.64,314.11a6.44,6.44,0,0,1-3.15-2.15,6.67,6.67,0,0,1,3.6,1.77Z"/><path d="M1115.7,497l-.24-.15.25-.36c.07.09.2.18.2.26S1115.78,496.9,1115.7,497Z"/><path d="M1357.57,347.46c-.16-.74.58-.55.87-.83Z"/><polygon points="1164.77 315.94 1164.52 316.01 1164.54 315.82 1164.77 315.94"/><path d="M1165.84,314.51l.54.71c-.83.22-.3-.51-.51-.71Z"/><path d="M1351.63,348.1c.21-.22.52-.68.61-.64.7.33.19.69,0,1A2.91,2.91,0,0,1,1351.63,348.1Z"/><path d="M1318.12,306.31c.16.3.31.6.49.9l-.3.18c-.23-.17-.58-.28-.69-.51-.26-.54.36-.37.56-.57Z"/><path d="M1154.45,546.64c1.4-.33,2.32.54,3.25,1.32,9.81,8.27,21,14.33,32.32,20.16a14.63,14.63,0,0,1-5.48-1.35C1173.68,561.28,1163,555.58,1154.45,546.64Z"/><path d="M1153.75,545.37c.07.57,1.4.41.81,1.37l-4.24-2a7.73,7.73,0,0,1-3.23-4.78C1150.11,540.77,1151.32,543.83,1153.75,545.37Z"/><path d="M1333.19,523.22c8.37-1.75,16.58-2.18,24,3.19,1.5,1.09,2.35,1,3.57-.51,3.48-4.17,6.51-8.65,9.61-13.1,1.09-1.56,2.39-3,4-5-1,4.08-3.08,6.88-5.09,9.62-2.54,3.46-4.66,7.27-7.87,10.22-1.24,1.14-.9,2.07,0,3.17A20.43,20.43,0,0,1,1366,543c.68,9.21-2.46,16.49-10.38,21.68-9.08,5.94-19.26,5.56-27.39-1.77-2.51-2.25-4.27-2.23-7-.67-4.93,2.75-9.9,5.56-15.54,6.7,4.32-4,10.1-5.3,15.07-8.09,2-1.12,2.5-2,1.6-4.3C1316.45,541.49,1319.6,532.07,1333.19,523.22Zm-6.06,7.43c-6.4,6.21-7.24,13.67-4.61,21.72,2,6,2.15,6,7.4,2.25a9.49,9.49,0,0,1,1.54-1c2.06-1,2.4-2.1,1.18-4.23a10.22,10.22,0,0,1,.47-11.78c1.59-2.22,4.22-2.8,6.36-4.15,2.17.26,4.75-.12,6.45.92,4.7,2.88,7.4,1,10.47-2.66,1.72-2.06,1.19-2.86-.42-3.92C1346.16,521.33,1335.76,520.67,1327.13,530.65Zm-.5,28.15c5.45,7.28,14.72,10.41,22.71,7,14.68-6.26,17.42-16.53,13.34-29.23-2-6.26-3.19-6.23-7.19-1.35-1,1.19-2.62,2-1.58,4.37,2.22,5,.49,11.3-3.63,15-3.4,3-9.1,3.44-13.79.66a4,4,0,0,0-4.75.06C1330,556.42,1328.33,557.62,1326.63,558.8Zm16.69-21.72c-5.29-.17-8.68,2.82-8.77,7.74a9.27,9.27,0,0,0,8.84,9.09c4.24,0,7.78-3.9,8-8.92C1351.62,541.09,1347.66,537.23,1343.32,537.08Z"/><path d="M1213.22,546.91c1.89-.72,2.71,1.11,4,1.68,1,2.34,4.23,2.79,4.73,5.56C1218.61,552.29,1216,549.51,1213.22,546.91Z"/><path d="M1363.78,435c-2.12,1.12-3.78,1.75-6,.86C1359.49,434,1361.24,434.13,1363.78,435Z"/><path d="M1375.39,506.39c.32-4,1.66-6.77,3.77-8.29C1378.92,500.51,1377.55,503.3,1375.39,506.39Z"/><path d="M1144.83,538.51c1.2-.11,1.7.83,2.35,1.55Z"/><path d="M1144.09,537.75c.8-.23,1.06.06.84.84Z"/><path d="M1238.26,568.84c.8.27,1.56.57.77,1.6C1238.16,570.2,1237.42,569.9,1238.26,568.84Z"/><path d="M1244.19,574.76c.77.3,1.55.59.76,1.62C1244.45,576,1243.45,575.77,1244.19,574.76Z"/><path d="M1239.7,571.11c1-.77,1.34-.05,1.6.77C1240.25,572.7,1239.93,572,1239.7,571.11Z"/><path d="M1236.74,568.14c1-.73,1.29.06,1.6.78C1237.23,569.86,1237,569,1236.74,568.14Z"/><path d="M1243.43,574a.83.83,0,0,1,.84.85c-.29,0-.5.46-.9.06S1243.39,574.32,1243.43,574Z"/><path d="M1242.69,573.28a.8.8,0,0,1,.84.84c-.3,0-.5.47-.91.07S1242.65,573.58,1242.69,573.28Z"/><path d="M1241.2,571.81c.58,0,.83.29.84.83-.29,0-.49.48-.9.07S1241.16,572.1,1241.2,571.81Z"/><path d="M1242,572.55c.55,0,.78.33.84.83-.3,0-.5.47-.91.07S1241.91,572.84,1242,572.55Z"/><path d="M1239,570.35c.29,0,.5-.47.9-.07s0,.61-.07.9C1239.2,571.22,1238.92,570.94,1239,570.35Z"/><path d="M1257.49,587.38c.53,0,.75.38.85.84C1257.49,588.51,1257,588.43,1257.49,587.38Z"/><path d="M1215.41,416.66c-5.65-6.48-6.26-13.67-2.64-21.22a10.52,10.52,0,0,1,8.61-6.23,84.87,84.87,0,0,1,10.34-.16c2.86.08,3.32,1.9,2.86,4.35s-1.61,3.39-4.09,2.28a10.74,10.74,0,0,0-8.24-.11,7.13,7.13,0,0,0-4.69,6.09c-.73,4.59.39,8.62,4.51,11.25,2.42,1.56,4.92.86,7.34-.36,1.16-.58,2.07-2.72,3.24-1.83,1.63,1.24,3.94,2.23,4.12,4.83C1231.68,420.21,1223.2,420.64,1215.41,416.66Z"/><path d="M1248.47,446.36c-.91,10.51-.16,21-.24,31.55,0,1.34,0,2.69-.07,4l-1.08-.12c-.52-11.16-.25-22.31,0-33.46a17.64,17.64,0,0,0-.18-2.17Z"/><path d="M1247.06,422.23c.65-10.33-.08-20.67,0-31v-1.48c1.35.1,1,.94,1,1.59-.13,9.83.74,19.66.12,29.49a12.64,12.64,0,0,0,.47,2.87C1246.45,425,1247.81,422.48,1247.06,422.23Z"/><path d="M1240.54,435.35c-12.91,1.24-25.91.76-38.92.32C1214.56,434.59,1227.52,435,1240.54,435.35Z"/><path d="M1258.14,435.29h36V436H1258Z"/><path d="M1254.8,424.93l5-3.49c-2,3.73-5.92,5.32-8.88,8-2,1.79-5,2.78-1.13,5.59a1.81,1.81,0,0,1,.27,1.67c-.27.64-1.11.45-1.66.31-1.73-.47-3.44-1-5.63-1.71A89.25,89.25,0,0,1,1254.8,424.93Z"/><path d="M1301.62,435.72c1.91-1.52,3.84-.89,5.77-.37C1305.48,436.59,1303.55,436.15,1301.62,435.72Z"/><path d="M1247.3,494.87v-6.24c1.39,2.2,1.1,4.15,1,6.08Z"/><path d="M1188.88,435.52a6.67,6.67,0,0,1,5.8,0A6.47,6.47,0,0,1,1188.88,435.52Z"/><path d="M1259.72,421.53a7.94,7.94,0,0,1,3.81-3C1263.09,420.53,1261.69,421.39,1259.72,421.53Z"/><path d="M1236.36,439.65c.28-.41.75-.88,1.1-.43s-.09.78-.64.81Z"/><path d="M1348.58,541.79c-.59,1.48-1.93,2.07-3.07,2.74s-2.64,1.76-4,.65-.09-1.28.77-1.47a14.51,14.51,0,0,1,2.16-.44C1345.89,543.17,1346.59,541.14,1348.58,541.79Z"/></g></g></svg>