<svg xmlns="http://www.w3.org/2000/svg" viewBox="0 0 1920 1080"><defs><style>.cls-1{fill:#f2f2f2;}</style></defs><g id="Capa_2" data-name="Capa 2"><g id="Capa_1-2" data-name="Capa 1"><rect class="cls-1" x="1919" y="1079" width="1" height="1"/><rect class="cls-1" width="1" height="1"/><rect class="cls-1" y="1079" width="1" height="1"/><rect class="cls-1" x="1919" width="1" height="1"/></g><g id="Capa_3" data-name="Capa 3"><path d="M290.35,365.18c-1.22-3.14-.56-6.43-.66-9.63-.21-6.11-.27-12.24,0-18.34.14-2.89-1.62-6.32,1.86-8.68.56-.38.28-2.06.29-3.13,0-10.64-.41-21.27.14-31.91,0-.47.09-1.3-.12-1.39-3.76-1.65-2.15-5-2.18-7.55-.17-14.8-.1-29.6-.08-44.4a26.16,26.16,0,0,1,.31-3.64c.1-.77.7-1.68,1.4-1.3,2.92,1.62,5.68-.33,8.52-.17l1.49-.06,23.51-.81,1.52-.08a2.23,2.23,0,0,0,.36,0c6.36.1,6.17.14,4.92-6.16-.54-2.69-.07-5.58-.08-8.37-.12-43.83-.27-87.67,0-131.5,0-3.61.93-4.45,4.27-4.77,6.24-.58,12.47-.32,18.7-.38,3.41,0,3.21,3.07,3.64,5,.59,2.63,1.81,3.21,4.19,3.1a87.83,87.83,0,0,1,9.18.06c2.23.14,2.82-.67,3-2.86.51-5.78-.68-5.19,5.64-5.24,6.8,0,13.62-.16,20.32,1.39.11.48.23,1,.34,1.44,1,47.88.26,95.77.43,143.65,0,7.09-1.58,14.05-1.39,21.18.08,2.8.52,3.65,3.51,3.64,32.71-.12,65.42-.08,98.13-.07.42,0,.84.06,1.86.15-2,1.77-4,1.09-5.64,1.45-.94-.13-2-.47-2.63.5s.21,1.72.83,2.41c1.25,2.41,1.18,5.44,3.46,7.38a.8.8,0,0,1,.17,1.23c-1,1.11-2-.1-3,0-1.42-1.64-2.09-3.7-3-5.67.07,2.06-1.85,4.55,1.33,5.83-.11,5.75-.29,11.5-.31,17.25-.21,60,.67,120.06.44,180.08q-.34,88-.38,176a7.68,7.68,0,0,1-.27,1.4c-2.79,1.76-.79,3.53-.08,5.49,1.66-2,2.24-3.72.08-5.49,2,1.52,3.88-1.18,6.14.1-2.75,2.42-3.65,5.73-4.71,9-.7,1.84-1.24,3.58,1.91,2.86h7.79l0,1.17c-1.84.85-3.9.47-5.83.48q-42.66.06-85.32,0c-3.68,0-7.37.22-11,0-2.68-.15-3.65.48-3.5,3.4.76,15,1.55,30,1.47,45.1-.19,38.24-.14,76.48-.23,114.71,0,7.28-.12,7.29-7.33,7.33-4.66,0-9.32,0-14,0s-5.39-.59-5.59-5.16c-.09-2.07-.71-2.81-2.72-2.74-2.2.08-4.41.06-6.61,0-3.92-.21-7.43-.1-6.95,5.42.13,1.52-1.14,1.76-2.51,2-7.11,1-14.19.15-21.28-.15-1.89-.08-2.36-1.39-2.39-3-.08-4.29-.29-8.58-.29-12.87q-.08-62.13-.13-124.27c0-2.79,1.78-5,1.75-7.79,0-1.58-.3-2-2-2.1q-18-.62-36-1.49c-2.21-.1-2.88.31-2.87,2.75q.27,53.86.29,107.73.06,106.06,0,212.15c0,4.84,0,4.82,4.63,2.84,2.19-.94,4.44-1.74,6.21-4-.27,1.35-.46,2.3-.64,3.25-.38,2,.34,2.65,2.49,2.65,25.87-.07,51.74,0,77.6,0a7.9,7.9,0,0,0,1.06-.14c.42-1.48-.72-2.51-1.18-4.58l12.66,5.57c0,.18,0,.36,0,.54-4.56.35-8.23,3.23-13,4.7,1.52-3.71.35-4.69-3.22-4.67q-36.39.2-72.79,0c-3.64,0-4.72.85-2.61,4.84-3.07-1.24-5.39-2.34-7.81-3.1-2.21-.68-3.95-.66-3.67,2.74a64.87,64.87,0,0,1-.39,12.52c-1.32-.79-1-1.89-1-2.86,0-113,.18-225.94-.39-338.91-.08-16.1-.8-32.27-1-48.41,0-2.68-.07-5.36-.09-8,0-.86-.3-2,.1-2.54,3.69-5.28,1.67-11.24,2.05-16.89.31-4.63.1-9.31,0-14,0-3,.56-6-1.89-8.59-1-1.1-.13-3.07-.14-4.65,0-7.35-.23-14.7-.05-22,.08-3.07-1.35-6.63,2-9.12.35-.27.05-1.41.05-2.14,0-27.45-.09-54.89,0-82.34,0-3-1.12-3.55-3.59-3.53q-6.42,0-12.86-.12c-1.28,0-2.74.33-4.12-1.3,5.9-1,11.58-.58,17.19-.64,2.72,0,3.64-.57,3.43-3.41-.33-4.38-.23-8.8-.31-13.21l0-4.22c.21-22,.37-44.06-.22-66.1C292.21,365.56,291.53,365.22,290.35,365.18Zm110.3,88.3,12.35.87,0,.94-12.35,1.36c-.51,0-1.13-.32-1.37.41-.16.51.14.8.65.88v3.7c-.23.23-.68.47-.67.68.22,5.18.61,10.34.74,15.52.19,7.54.2,15.09.3,22.63l-.14,1.7c-1.38.91-1.34,1.84,0,2.78q0,4.89.08,9.8-.72,20.88-.16,41.78a6.71,6.71,0,0,0-.16,1.08c0,31.38,0,62.76-.07,94.13,0,2.59,1.11,2.62,3,2.61,13.6-.06,27.21,0,40.82,0,15.69,0,31.38,0,47.07.05,2.68,0,3.3-.68,2.26-3.12s-1.72-4.78-2.76-7.09c-.43-.93-.64-2,.24-2.13,3.43-.45,2.62-3,2.63-5q.09-38.43.12-76.85,0-35.65,0-71.32c.11-5,.32-10,.32-15,0-19.76.41-39.53-.21-59.3,0-1.95.06-3.91.06-5.87q-.12-68.58-.25-137.16c0-1.19.53-3-.71-3.36-3.26-1-2-2.94-1.43-4.77a32.68,32.68,0,0,1,1.73-4.36c1.09-2.35,1-3.39-2.17-3.38q-43.4.17-86.8,0c-3.33,0-4,.94-4,4.1q.14,65.83,0,131.65c0,3.3.14,6.61.22,9.91l.15,37.62-.06,13.88C399.88,453.36,400.12,453.53,400.65,453.48Zm-75,31.69,0,12.51a15.45,15.45,0,0,0,0,5.87c-.06,1-.17,1.95-.17,2.92.06,45.22,0,90.44.27,135.66.06,10.75-.3,8.72,9,9,15.31.54,30.64.19,46,.34,2,0,2.49-.49,2.46-2.41-.12-6.61-.08-13.23-.07-19.85q0-85.29.06-170.58c0-2.2-.46-3-2.79-3-2,0-4.29.87-6.24-1.17a21.26,21.26,0,0,1,6.86-.36c1.58.07,2.14-.42,2.13-2.07-.13-16.17-.19-32.34-.27-48.51,0-.51,0-1,0-1.53.06-13.11.16-26.22.17-39.33q0-50.55,0-101.12c0-1.44.67-3.09-2.13-3.06-16.42.18-32.85.08-49.28.25-5.58.06-5.77.49-5.91,6.14,0,.49,0,1,0,1.47-.05,24.89-.14,49.77-.14,74.65,0,20.1.1,40.19.15,60.29-.43,11.77-.51,23.55.08,35.32,0,5,0,10-.16,15-.05,1.94.58,2.41,2.54,2.39,11.87-.13,23.74-.08,35.61-.08.91,0,2.29-.56,2.35.86s-1.44.82-2.26.95a16.93,16.93,0,0,1-2.57,0c-10.89.05-21.79.14-32.68.11-2.35,0-3.17.71-3.11,3.17.2,7.7.15,15.41.2,23.12C325.63,483.21,325.62,484.19,325.62,485.17ZM307.93,612.78l-1.23-.39a57.52,57.52,0,0,0-8.62,7.12,7.38,7.38,0,0,0-2.39,5.5c-.05,13.61-.08,27.21-.19,40.81,0,1.66.28,2.34,2.17,2.38,7.48.14,14.94.6,22.41.76q23,.48,45.94.74c5.29.06,9.82,1.09,12.57,6.32a17.21,17.21,0,0,1,1.61,8.45q0,62.31-.1,124.63c0,3.66-1.33,8.58.51,10.66,2.08,2.35,7.14.43,10.85.91,3.3.42,4.05-.74,4-4-.14-40.81-.11-81.62-.15-122.43,0-5-.25-10-.26-15.06,0-2.51-.35-4.33-3.59-3.67-1.07.22-2.43,0-2.5-1.48-.1-2.3-1.11-4.41-.93-6.79.48-6.28-3.14-10-9.44-10.08q-26.47-.24-52.95-.5c-2.27,0-5.2.88-4.77-3.26.08-.8-.74-1.1-1.6-1.08-1.34,0-2.69,0-4-.09-6.74-.38-7.27-.83-7.33-7.52C307.86,634.08,307.93,623.43,307.93,612.78Zm87.3-451.23h.06q0-32.91,0-65.81c0-6.68-.07-6.69-6.59-6.82a21.75,21.75,0,0,1-4,0C380.41,88,380,90.13,380,93.67q.16,64.17.09,128.33a57.08,57.08,0,0,1-.71,9.14,8.79,8.79,0,0,1-8.33,7.8,61.67,61.67,0,0,1-6.23.24q-33.28-.27-66.5,1.92c-2.48.16-2.95.91-2.92,3.2.14,10.54.08,21.08.08,31.63,0,9.58,0,9.52,9.59,9,2-.09,2.44-.76,2.45-2.62,0-6.61.41-13.23.25-19.84-.08-3.46,1.41-4.9,4.49-5.43,2.65-.45,6.13-.12,7.72-1.69,2.71-2.68,5.61-2.49,8.66-2.51,16.92-.14,33.83-.15,50.75-.28,5.57,0,8.82-3.13,9.38-8.69.25-2.56.51-5.12.63-7.69.08-1.61.64-2.8,2.35-2.48,3.42.65,3.48-1.27,3.48-3.8Q395.18,195.76,395.23,161.55ZM322.64,358.31h0q0-44.47,0-89c0-7.12-.12-7.23-7.23-6.34-1.18.15-1.82.39-1.76,1.69.51,10.82-1.12,21.5-1.79,32.24-.72,11.78-1.93,23.76,1.18,35.63,1.27,4.83.65,10.21.39,15.37s-1.85,9.8-1.84,14.88c.08,49.38-.18,98.76.11,148.13.1,16.32-.88,32.61,1.62,49,2,13.37.38,27.24-1.11,40.83-.36,3.25.93,6.23,1.12,9.38.62,10.78.37,21.56.23,32.34,0,2.64.5,4,3.37,3.68a7.91,7.91,0,0,1,2.57.08c2.63.58,3.18-.48,3.18-3q-.15-92.26-.11-184.53c0-1.64-.07-3-2.24-2.84a1.22,1.22,0,0,1-1.41-.91,1,1,0,0,1,1.09-1.15c3.23.17,2.59-2.15,2.6-4Q322.65,404.08,322.64,358.31Zm51.49,390.51H374c0-19.84.06-39.69,0-59.53,0-13.16-1-13.93-14-13.72-2.16,0-2.89.45-2.89,2.8,0,6.34,1.24,12.65,1.31,18.86.41,38.58.21,77.17.07,115.76,0,2.72.78,3.26,3.25,3.08a50.82,50.82,0,0,1,8.81.08c2.79.29,3.64-.38,3.62-3.38C374.06,791.45,374.13,770.14,374.13,748.82ZM374,161.51h.07c0-21.43,0-42.86,0-64.29,0-2.43-.4-3.55-3.17-3.32a62.15,62.15,0,0,1-9.55-.07c-2.25-.16-2.82.49-2.85,2.79C358,140.4,360.3,184.21,357.15,228c-.4,5.63-.06,5.66,5.46,5.65,11.13,0,11.41-.27,11.42-11.49Q374,191.81,374,161.51ZM337.42,753.72h-.08c0,4.41,0,8.82,0,13.23,0,17.15,0,34.3-.13,51.45,0,1.83.49,2.27,2.22,2.22a103.86,103.86,0,0,1,11,.08c2,.16,2.36-.32,2.36-2.24q-.17-59.37-.22-118.73c0-6.86-4.68-11.77-11.45-12.8-2.76-.42-3.82,0-3.79,3.2C337.5,711.32,337.42,732.52,337.42,753.72Zm0-597.31h-.07q0,29.6,0,59.19c0,8.46.69,8.91,8.51,5.21,4.48-2.11,7.21-5,7-10.71-.44-14.57-.17-29.16-.17-43.75,0-24.75,0-49.51.05-74.26,0-2.35-.41-3.35-3-3.12A60.24,60.24,0,0,1,341,89c-2.91-.19-3.64,1-3.63,3.79C337.45,114,337.4,135.21,337.4,156.41Zm52.9,298.92q0-45.58,0-91.17c0-34.43.13-68.87.09-103.3,0-1.52,1.55-4.4-2-4.39-3.35,0-2.4,2.73-2.51,4.63-.14,2.45-.19,4.9-.22,7.35-.67,68.25-.25,136.5,0,204.75.2,57.6-.71,115.19,0,172.79,0,1.59,0,3.18.19,4.77.18,2.11,2.11,2.49,3.51,2.56,2.06.1,1-1.81,1-2.79,0-10.41-.12-20.83-.11-31.25C390.38,564.63,389.76,510,390.3,455.33Zm2.05-103q0,49.1-.06,98.17c0,2.4.66,2.84,2.95,2.93,2.62.1,2.25-1.25,2.24-2.89-.23-41.79-.6-83.59-.58-125.38,0-28.15-1-56.33,1.22-84.45.05-.74-.05-1.24-.77-1.35a1.33,1.33,0,0,0-1.57,1.21c-.21,4.66-2.31,9-2.45,13.6C392.3,286.92,392.65,319.65,392.35,352.37Zm.58,190.33c0,41.94.1,70.12-.06,98.3a145.77,145.77,0,0,0,2.73,27.27c.18,1,.38,2.21,1.54,2.11,1.8-.16.55-1.5.53-2.27-.18-7.83-.61-15.66-.64-23.5-.27-61.62-.39-123.25.26-184.87,0-1.42,1-3.39-2.17-3.37-3,0-2.57,1.55-2.58,3.43C392.46,492,393.23,524.24,392.93,542.7Zm-84-183.8c-.75.7-1.33,1.69-2.15,1.94-4.32,1.3-5.08,4.48-5.07,8.44q0,41-.14,82c0,1.89.68,2.15,2.33,2.21,5,.16,5,.24,5-4.68,0-.36,0-.73,0-1.1Zm.37,192.25c0-1.77,0-3.21,0-4.65-.51-28.88-.43-57.76-.29-86.64,0-2.6-.48-3.69-3.37-3.54-2.61.14-4.67.07-4.13,3.64a37.31,37.31,0,0,1,.1,5.5q0,38.55,0,77.09c0,1.42-.46,3.2,1.32,3.84C305.47,547.3,306.94,549.47,309.29,551.15Zm-.65-240.28h-.05c0-3.18,0-6.36,0-9.54,0-3.38,1.23-8.06-.85-9.74s-6.53-.25-9.93-.39c-2.35-.09-3.17.65-3.14,3.13.14,8.18,0,16.37,0,24.56,0,3.62-1.63,8.57.67,10.48s7,.35,10.62.59c2.43.17,2.78-.82,2.72-3C308.54,321.62,308.64,316.24,308.64,310.87ZM299.11,409h.09q0-20.94,0-41.88c0-.93.64-2.46-1.17-2.45-1.53,0-3.39-.22-3.69,2.06a25.72,25.72,0,0,0-.2,3.29c0,26.94,0,53.88-.05,80.82,0,2.26.59,2.59,2.67,2.42,2.26-.18,2.41-1.32,2.4-3.11C299.09,436.41,299.11,422.69,299.11,409Zm.08,91.66h-.06q0-20.37,0-40.75c0-1.6.67-3.44-2.26-3.47s-2.77,1.48-2.77,3.5c0,18.72,0,37.44,0,56.16,0,8.07,0,16.15.21,24.22.05,1.87-.93,5.13,3.1,4.55,3.28-.46,1.65-3.1,1.67-4.57C299.26,527.06,299.19,513.84,299.19,500.63Zm-3.55,63.6h-.16l.48,9.1c.06,1.18-.92,2.5.11,3.5,3,2.88,6,5.67,9.08,8.43,1.35,1.21,2,.89,2.07-1,.13-5.74-.07-11.52.69-17.18,1.07-8-3.74-12.06-9.39-15.78-1.73-1.14-3-1-2.9,1.59C295.71,556.66,295.64,560.45,295.64,564.23Zm-.11-216.83h.15c0,3.3.12,6.61,0,9.9-.09,1.92.66,2.36,2,1.38,4.8-3.43,10.23-6.41,10-13.62-.31-10.53,2.31-8.52-8.19-9.09a4.42,4.42,0,0,1-.73,0c-2.47-.49-3.56.25-3.31,3S295.53,344.58,295.53,347.4Zm-1.41,265.78c8.59-3.17,7.91-10.33,7.93-17.55,0-5.34-3.18-7.78-7.18-10.69C294.34,594.75,295,604.08,294.12,613.18Zm60.05,73.12c0-3.4,0-6,0-8.67,0-1.52-.44-2.14-2.11-2.11-4.64.11-9.28.06-13.92,0-1.39,0-2.57.09-2.16,1.9.35,1.55-.78,4.29,2.07,4.15C343.8,681.29,349.11,682.24,354.17,686.3Zm-9.3-452.63h0c2.32,0,4.64-.05,6.95,0,1.46,0,2.38-.35,2.37-2,0-2.07,0-4.15-.05-6.22,0-1.38-.74-1.9-1.83-1-4.26,3.58-9.47,3.39-14.53,3.7-1.33.08-1.89.28-2,1.8-.13,2.68.48,4.15,3.58,3.7A38.51,38.51,0,0,1,344.87,233.67ZM310.36,605.53c-.32-1.26-2-1.21-1.52-2.8.86-2.84-.43-5.77,0-8.66.35-2.33-1.41-2.12-2.76-2.37-2.06-.38-1.68,1.24-1.73,2.31-.1,2.07-.07,4.14,0,6.21C304.36,606,304.37,606,310.36,605.53Zm-15.27,397c1.9,0,3.77.9,5.91.3C298.93,1000.08,297,1002.35,295.09,1002.51Zm95.53.15c-2-1-3.18-2.18-4.81-1.09a1.31,1.31,0,0,0-.24,1A5.68,5.68,0,0,0,390.62,1002.66Z"/><path d="M1607,342.64c2.48,10.09,5.68,20,7.67,30.2.42,2.15.94,4.27,1.42,6.4.18.5.37,1,.56,1.49q1.89,11.76,3.8,23.52l.24,1.58c1.44,15.33,3.24,30.64,3.19,46.07,0,2.09.76,2.46,2.56,2.37,2.47-.13,5,0,7.42,0v1.47c-2.57,0-5.15,0-7.72,0-1.41,0-2.23.14-2.25,1.92,0,5-.31,10-.48,15,0,.74,0,1.49,0,2.23-1.25,10.91-2,21.87-3.57,32.76-.62,4.24-2,8.45-1.74,12.82a3.17,3.17,0,0,0-.6,3c-2.24,9.65-4.38,19.31-6.74,28.92-2.28,9.28-5.56,18.26-8.55,27.32a307.9,307.9,0,0,1-15,36.07c-4.86,10.17-9.66,20.48-15.68,30a439.48,439.48,0,0,1-32.89,45.94c-4.46,5.36-8.82,11-13.62,15.86-9.22,9.42-18.36,19-28.72,27.33-6.73,5.4-13.09,11.27-20,16.46s-14.23,10.34-21.52,15.29c-4.75,3.22-9.59,6.46-14.51,9.19-6.77,3.75-13.55,7.63-20.61,10.91-6.69,3.11-13.29,6.42-19.93,9.64a1.27,1.27,0,0,0-1.48.69c-6.51,2.66-13.1,5.12-19.62,7.76-7.27,2.93-15,4.71-22.53,7a6.73,6.73,0,0,0-1.25.7,8.75,8.75,0,0,0-4.72,1.3c-6.4.76-12.45,3.09-18.79,4.24s-12.75,2.35-19.14,3.47a1.33,1.33,0,0,0-1.5.5c-7,.88-14.07,1.35-21,2.77-2.47.51-5.08.27-7.63.38a3,3,0,0,0-2.32.21l-5.78.45-3,.1c-5.26.18-10.51.39-15.78.5-2,0-2.73.81-2.75,2.89,0,2.34.94,4.86-.81,7,0,.05-.22,0-.29,0a1.11,1.11,0,0,1-.24-.28c0-1,0-2-.07-3l-.1-5.87c.25-.57,0-.7-.54-.65-9.11-.27-18.24-.52-27.32-1-6.11-.35-12.26-1.49-18.42-2.14A269.34,269.34,0,0,1,1171,817.5c-9.48-2.24-18.75-5.42-28.27-7.47-8.27-1.78-15.78-5.48-23.72-8a169.69,169.69,0,0,1-25.23-10.75c-3.13-1.61-6.73-2.42-9.66-4.29-6.79-4.33-14-7.82-21-11.74-9.19-5.16-17.06-12.28-26.69-16.77-4.1-1.91-7.32-5.67-10.94-8.59a5.1,5.1,0,0,0-2.44-2c-11.79-8.43-22.27-18.42-32.54-28.53-10-9.84-19.88-19.87-28.23-31.23-6.62-9-14-17.48-19.8-27l-.06,0c-5.15-7.35-9.6-15.13-14.25-22.8-5-8.19-9.19-16.75-13.4-25.3-3.59-7.3-6.28-15-9.34-22.58a337.73,337.73,0,0,1-17.24-57.94c-.94-4.44-2.83-8.69-2.77-13.33a5.16,5.16,0,0,0-.62-3.7c-.2-4.31-1.82-8.48-2-12.66-.32-6.93-1.86-13.73-1.74-20.72.13-7.82-.54-15.66-.71-23.49,0-1.93-.36-2.88-2.6-2.82a20,20,0,0,1-8-1.34c2.75,0,5.49-.07,8.23,0,1.7.06,2.37-.42,2.34-2.26-.1-5.88,0-11.76,0-17.64Q882,418.24,883.78,402c.45-9.71,3.25-19,4.86-28.55a34.21,34.21,0,0,1,2.39-8.11c.08-.53.15-1.05.23-1.57,1.37-4.54,2-9.25,3.13-13.79.84-3.36,2.09-6.74,3.21-10.09,2.3-6.84,4.85-13.61,7.5-20.33,2.44-6.21,5-12.41,7.76-18.47,3.45-7.49,7-15,10.94-22.2,3.07-5.61,6.56-11,9.7-16.58s7.17-10.07,10-15.62c3.16-6.12,8.14-11.11,12.08-16.76a215.62,215.62,0,0,1,21.31-25.51c7.3-7.62,14.06-15.8,22-22.75,8.38-7.32,16.81-14.6,25.57-21.53,9-7.11,19.16-12.45,27.81-19.93a8,8,0,0,1,2.3-1,2,2,0,0,0,1.56-1.08,182.74,182.74,0,0,1,18.28-10.72c5.78-3,11.52-6,17.35-8.92s11.9-5.66,17.89-8.11c10.61-4.36,21.55-8,32.52-11.48,7.18-2.28,14.5-4,21.72-6,5.81-1.62,12-2.43,18-3.45,9.71-1.65,19.4-3.39,29.2-4.44a5.12,5.12,0,0,0,1.3-.52l0-.06c3.5.9,7-.28,10.43-.35,8.44-.18,16.87-.78,25.31-1,2-.06,2.79-.46,2.76-2.62-.08-5.5-.25-11,.22-16.51.82-9.5-1-19,0-28.44,1.34.13,1,1.12,1,1.93V50c0,.37.14.82,0,1.09-2.73,4.67,0,9.37-.1,14a1.14,1.14,0,0,0-.21,1.58c-.66,4.53.2,9,.29,13.54,0,2.17.79,2.91,3,2.91,5.76,0,11.52.23,17.28.47,4.61.18,9.23.51,13.84.77l1.52.32c6.47.49,13.06.85,19.34,2.07,9.73,1.9,19.63,3.06,29.16,5.88a13.65,13.65,0,0,0,3.55.58c.62.86,1.49.72,2.36.62l16.89,4.53c.57.78,1.4.73,2.22.71a27.73,27.73,0,0,0,7.32,2.31c.34.66.94.58,1.52.53l29.21,11.19a5.37,5.37,0,0,0,3.15,1.37c5.81,2.91,12,5.17,17.61,8.29,11,6.13,22.2,12.15,32.86,19a396.48,396.48,0,0,1,49.67,38.31,316.94,316.94,0,0,1,36.35,38.68c6.13,7.7,12.16,15.47,18,23.38,7.11,9.62,13,20,19,30.31,4.8,8.28,9.65,16.57,13.61,25.25,4.58,10.07,8.24,20.56,12.23,30.89,1.39,3.6,2.59,7.27,3.87,10.9C1606.22,340.56,1606.1,341.81,1607,342.64ZM903.11,563.87a17,17,0,0,0,.4,2.13,354.88,354.88,0,0,0,37.7,81.74,362.41,362.41,0,0,0,77.48,88.89,373.35,373.35,0,0,0,112,63.31,344.54,344.54,0,0,0,64,16.12,380.46,380.46,0,0,0,52.66,4.56c3,0,3.66-.74,3.51-3.64-.26-4.76,0-9.55.13-14.33,0-.88-.52-2.27,1.45-2.64,0,5.78.14,11.38-.06,17-.1,2.88.74,3.67,3.68,3.63a364.13,364.13,0,0,0,58-5.41,370.17,370.17,0,0,0,66-17.93q99.35-37.37,163.69-121.76a358.28,358.28,0,0,0,59.11-116.88c9.14-30.81,13.8-62.25,15.15-94.26.36-8.68.27-8.68-8.36-8.71h-12.51c0-.38,0-.76,0-1.14,1.12-.09,2.24-.25,3.35-.26,4.91,0,9.81-.09,14.71.05,2.2.07,3-.5,3-2.86-.48-14.69-1.13-29.38-3.14-43.95a376,376,0,0,0-20.2-80.56,365.46,365.46,0,0,0-160-189.08c-54.25-31.44-112.72-47.53-175.3-49.06-6.54-.16-6.47,0-7.44,6.22-.29,1.81,0,2.35,2,2.79,5.63,1.22,6.78,4.79,6.65,9.76,0,.85-.38,1.47-1.21,1.54-1.11.09-1-.86-1-1.54a11.74,11.74,0,0,0-2.61-6.69c-.85-1.08-1.92-1.74-3.15-1.09s-.58,1.71-.38,2.83c.38,2.12,1.19,4.47-1.31,7.14,1.49-6.41-1.09-11.91-.13-17.46.57-3.32-.54-3.77-3.55-3.68-31,.88-61.46,4.9-91.42,13.17A366.24,366.24,0,0,0,897.94,361.93a262.32,262.32,0,0,0-7.46,37.16,4.91,4.91,0,0,0-.54,1.31c-1.44,14.61-3.14,29.19-3.36,43.9-.05,3.13-1.69,7.16.3,9.14s6,.63,9.19.79c3.51.18,7.08-.37,11.25.56a5.75,5.75,0,0,1-4.05.9c-4.41.06-8.83.28-13.22,0-3.18-.23-3.86.85-3.82,3.86.31,25.64,3.71,50.92,9.11,75.94C897.41,545.06,899.63,554.64,903.11,563.87Z"/><path d="M1228.35,1044.44q-88.81,0-177.63,0-114,0-228-.16c-39.11,0-78.21-.3-117.31.13-9.27.11-15.87-7.46-15.69-16.61.33-16.37.44-32.74.5-49.12.07-21.32,0-42.65.06-64,0-5.28-.13-10.47,4.35-14.85,3.65-3.57,7.83-4.19,12.22-4.23,24.27-.17,48.54-.16,72.82-.17q191.6,0,383.21-.05,179.46,0,358.94,0,109.59,0,219.19.07c4.15,0,8.36-.31,12.46.2,6.52.82,12.47,7.82,12.5,14.71.09,20.22-.06,40.45-.07,60.67q0,28.3.09,56.61c0,4-.32,7.57-2.8,11s-5.57,5.52-10,5.51q-50.92,0-101.87,0H1228.35Zm475.23-73.61c-19.37.1-38.73-.5-58.09.22-2.58.09-3,1-3,3.23q.07,32.73,0,65.44c0,2.24.51,2.8,2.86,2.8,32.85-.09,65.7,0,98.55,0,2.69,0,5.4,0,8.08-.21,7-.61,11.51-5.45,12-12.65,1.23-18.61.29-37.24.62-55.86,0-2.58-.9-3-3.21-3C1742.06,970.87,1722.82,970.83,1703.58,970.83Zm0-1.83c19.23,0,38.47-.08,57.7.07,2.85,0,3.28-1.06,3.25-3.42-.08-6.24.08-12.49,0-18.74-.16-12.23.7-24.49-.63-36.71-.68-6.33-4-10.09-10.26-11.77a44.9,44.9,0,0,0-11.64-1.19c-31.49-.08-63,0-94.47-.1-3.76,0-5,1.05-5,4.92q.21,31.23-.06,62.47c0,3.45,1,4.57,4.51,4.54C1665.82,968.91,1684.69,969,1703.56,969Zm-237,0V969c18.5,0,37-.06,55.52.06,2.63,0,3.59-.46,3.58-3.31-.12-22.06-.1-44.11-.06-66.17,0-1.77-.19-2.43-2.34-2.43-37,.09-74,0-111,.06-5,0-5.07.13-5.08,5-.06,20.83,0,41.67-.16,62.5,0,3.48,1.22,4.29,4.42,4.27C1429.83,968.92,1448.21,969,1466.6,969ZM1227,897.27v-.1c-17.89,0-35.78.13-53.66-.1-3.88-.05-4.7,1.23-4.68,4.77.11,20.83.14,41.65-.07,62.48,0,3.81,1.14,4.68,4.73,4.67,33.94-.08,67.88,0,101.82,0,2.91,0,6.62.91,8.52-.51,2.1-1.58.75-5.5.75-8.38,0-20-.07-39.93-.07-59.89,0-2.15-.25-3.08-2.94-3.06C1263.3,897.35,1245.17,897.27,1227,897.27ZM1109.47,969h47.42c3,0,6.95,1.06,8.94-.42,2.4-1.78.81-5.93.82-9,.09-19.84,0-39.68-.05-59.53,0-1.54.45-2.9-2.26-2.9q-54.58.17-109.17,0c-3.25,0-4.19.92-4.17,4.12q.18,31.78,0,63.57c0,3.52,1.24,4.28,4.44,4.26C1073.45,968.94,1091.46,969,1109.47,969Zm236.47,0V969c18.5,0,37-.06,55.5.08,2.86,0,3.83-.68,3.81-3.6q-.21-32.7-.12-65.4c0-2.61-.83-2.92-3.12-2.92q-55.5.08-111-.07c-3.45,0-4.63.85-4.6,4.44.13,20.94.15,41.89-.06,62.84,0,3.89,1.32,4.66,4.83,4.63C1309.42,968.88,1327.68,969,1345.94,969Zm-475.58,73.52v.13q27.39,0,54.78,0c1.86,0,3.09.09,3.15-2.55.51-22.29.28-44.59.16-66.88,0-2.08-.64-2.32-2.52-2.29-6.12.08-12.24-.19-18.37-.17-30.38.1-60.77-.35-91.16.23-2.77.06-3.78.7-3.76,3.7q.18,32.34,0,64.68c0,2.66.82,3.21,3.34,3.19C834.09,1042.43,852.23,1042.48,870.36,1042.48Zm238.34,0v.12h52.92c5.12,0,5.18,0,5.18-5,0-21.31-.12-42.62-.07-63.93,0-2.26-.45-2.84-2.77-2.84-28.54,0-57.09-.08-85.63-.09-8.2,0-16.41.27-24.61.3-2.1,0-2.74.74-2.74,2.78q.11,32.72,0,65.41c0,2.85,1.06,3.34,3.67,3.32C1072.68,1042.42,1090.69,1042.48,1108.7,1042.48Zm475.72-145.23v-.09q-25.55,0-51.08,0c-5.42,0-5.51.06-5.53,5.65-.07,20-.13,39.92-.07,59.89,0,6.85-1.19,6.23,6.32,6.25,34.42.11,68.85,0,103.27.13,2.72,0,3.29-1,3.28-3.33q-.12-32.88-.08-65.76c0-2.21-.5-2.83-2.82-2.81C1620,897.31,1602.18,897.25,1584.42,897.25ZM748.92,969c20.93,0,39.18-.1,57.43.1,3.58,0,4.53-1.06,4.5-4.45q-.26-32.32-.2-64.66c0-2.28-.52-2.78-2.79-2.77-29.89,0-59.78-.05-89.67,0a93.81,93.81,0,0,0-12.09.64c-7.49,1-13.28,4.37-13.58,13-.08,2.45-.44,4.88-.45,7.33-.06,15.8,0,31.6-.13,47.39,0,2.46.73,3,3.06,3.09C713.86,969.27,732.73,968.78,748.92,969Zm241,73.49v.12q27.95,0,55.9,0c2.13,0,3.22-.17,3.25-2.87.22-22.3.16-44.6,0-66.91,0-1.8-.68-1.94-2.14-1.94-6.13,0-12.25-.19-18.38-.16-31.63.17-63.25-.4-94.88.25-2.17,0-3.34.25-3.32,2.92q.15,32.91,0,65.81c0,2.32.7,2.82,2.95,2.81C952.17,1042.44,971.05,1042.48,989.93,1042.48Zm476,0v.18c18.76,0,37.51-.07,56.26.06,2.73,0,3.45-.63,3.5-3.39.37-21.81.09-43.62.07-65.43,0-2.42-.46-3-3-3-37.75-.11-75.49-.4-113.23.24-2.78,0-2.48,1.64-2.48,3.37,0,21.69,0,43.38,0,65.06,0,2.32.45,3,3,3C1428.67,1042.38,1447.31,1042.45,1465.93,1042.45ZM871.18,897.25v-.08c-18,0-36,.1-54-.08-3.46,0-4.38,1.13-4.37,4.37q.12,31.62-.06,63.23c0,3.57,1.24,4.41,4.68,4.4q53.32-.18,106.64,0c3.55,0,4.59-1,4.58-4.41-.11-21.57.22-43.13-.23-64.7,0-2.18-.4-2.84-2.77-2.82C907.46,897.3,889.32,897.25,871.18,897.25ZM1345.8,1042.5v.12c18.63,0,37.25,0,55.88.06,2.51,0,3.64-.53,3.31-3.15a20.3,20.3,0,0,1,.13-2.57q0-29.58.06-59.17c0-7,0-7-7.15-7q-41.54,0-83.08,0c-8.45,0-16.91.24-25.36.26-2.28,0-3.21.64-3.2,3.14q.13,32.71,0,65.42c0,2.4.71,3.06,3.16,3C1308.31,1042.44,1327.05,1042.5,1345.8,1042.5Zm-589.47,0v.12c17,0,34.08,0,51.12.05,2.32,0,3.15-.48,3.13-3-.06-7.11.29-14.21.29-21.32,0-14.83-.18-29.66-.13-44.49,0-2.41-.55-3.16-3-3-3.41.22-6.85-.13-10.28-.12q-51.12,0-102.25.09c-2,0-3.17.22-3.16,2.7.1,17.77,0,35.54.19,53.31.07,5.53,1,11.18,6.63,14.14,3.55,1.87,7.65,1.43,11.54,1.46C725.68,1042.53,741,1042.48,756.33,1042.48Zm827.63,0v.15c17.52,0,35-.09,52.56.07,3,0,3.93-.64,4-3.71.39-21.93.24-43.85,0-65.77,0-2.14-.74-2.32-2.53-2.33-35.53-.27-71.06-.38-106.58.14-2.84,0-3.77.77-3.76,3.71.12,21.56.08,43.12,0,64.68,0,2.24.33,3.16,3,3.13C1548.43,1042.39,1566.2,1042.46,1584,1042.46Zm-357.4,0v.17c17.89,0,35.79-.09,53.69.07,3.22,0,4.41-.67,4.38-4.1q-.26-32.71-.13-65.44c0-2.14-.75-2.37-2.57-2.29-3.18.12-6.37-.1-9.55-.09-33.34.08-66.68-.36-100,.16-2.91.05-3.71.92-3.7,3.78q.16,32.17,0,64.34c0,2.81.79,3.48,3.49,3.46C1190.28,1042.39,1208.42,1042.44,1226.56,1042.44ZM990.65,897.27v-.1c-18.62,0-37.23.07-55.85-.07-3.11,0-4.36.73-4.35,4q.1,32.16-.06,64.3c0,2.85.88,3.7,3.78,3.69q56-.14,112.08,0c2.09,0,2.73-.52,2.73-2.63q-.13-33.43-.07-66.87c0-1.81-.31-2.38-2.4-2.37C1027.89,897.32,1009.27,897.27,990.65,897.27Z"/><path d="M564.69,401.32c-.65,11.51-.12,23-.16,34.53q-.15,60.61,0,121.23c0,2.24-1.37,5.06,1.36,6.87.08,0,.24,0,.36,0,.38,0,.42-.06.12-.37,0-.47-.3-.6-.68-.55s-1,.28-1,.85c-.1,1.09-.18,2.19-.18,3.29q0,118.59,0,237.19c0,2.24-.46,4.65,1.22,6.62-1.2,1.4-3.92,2.11-2.07,4.86a5.46,5.46,0,0,0,2.54-4.86c4.92-1.23,2,2.13,2.13,3.66l-1.8,2.76A4.34,4.34,0,0,0,565,822c.55,1.57,2.58.68,3.94.73,3.16.12,6.32,0,9.86,0-2.56,1.91-165.37,2.54-171.69,1l0-1h24.45c7.6.32,15.2.35,22.81,0h2.93q10.31.49,20.61,0,30.75,0,61.5.08c6,0,12-.08,17.93-.12l1.49,0c2.84.75,3.75-.76,2.9-3.06s-1.1-4.82-2.75-6.74a1.86,1.86,0,0,1-.4-2.31c.75-1,1.74-.47,2.57.18,1.48,1.14,2.47,1.29,2.25-1.1-1.2-13.33-.5-26.69-.52-40q-.14-101.05,0-202.13c0-1.21-.21-2.42-.32-3.64.06-15.16.09-30.33.18-45.49.23-37.56.76-75.11,0-112.66,0-1.22-.14-2.43-.21-3.65.1-13,.27-25.94.29-38.91.17-88.28-.33-176.56.34-264.84.34-.69,1.39-1.71.43-2.11-1.61-.67-2,1-2.51,2.11a5.13,5.13,0,0,1-3.1,1.28c.82-3.66,2.95-6.63,4.48-9.87.58-1.22,1.84-2.83-1.44-2.82-37.33,0-74.67-.06-112-.12-12.49,0-25,0-37.46,0-1.83,0-3.65-.22-5.48-.34l.41-.81q36.57-.09,73.16-.17,46,0,91.92,0c2.21,0,4.58-1.27,7.29.54-3.49,1.38-6.65.81-9.71,1.06-1.29.1-3.31-.69-3.7.56a5.46,5.46,0,0,0,.74,5.18,11.86,11.86,0,0,1,1.65,3.57c.71,1.87,1.16,3.11-1.73,2.56-2.25-.42-1.36,1.52-1.37,2.42-.16,10.53-.29,21.07-.29,31.61q0,132.72.08,265.43C564.51,399.38,564.63,400.35,564.69,401.32Zm.67-303.75-.53-.58c-.1.18-.33.39-.3.54a2.23,2.23,0,0,0,.43.65Z"/><path d="M399.72,1019.05c-1.66.64-2-.1-1.92-1.65.08-2.6,0-5.22-.08-7.83v-1.47l0-4.41c.48-.88-.4-1.41-.54-2.14,1.34-1,.67-2.5.68-3.73q.15-30.14.14-60.28c0-1.79.87-4.59-.65-5.13-2.12-.76-5.18-.74-7.05.77s-4,2-6.15,4.65c1.51-5.51-1-5.6-4.52-5.54-11.74.2-23.48.07-35.47.07.4,2.4,2.1,3.64,4.27,5-3.36-.15-5.22-2.53-7.62-3.73-4.63-2.3-4.75-2.34-4.94,2.6-.05,1.27.34,2.68-1,4V833.89h.86V884c3.68-.63,6.86-1.27,9.65-3.18,1.31-.89,2.6-1.31,2.59,1.05,0,2,1.29,2,2.72,2,10.54,0,21.08,0,31.62-.08,2,0,5.14.53,3.84-3.9l11.5,5.66c-4.74,1.85-9,3.23-13.2,6.12.86-2.67,3.88-4,2.69-5.94-1-1.58-3.64-.34-5.54-.35-9.32-.09-18.63,0-27.95-.07-2.06,0-4.13-.37-6.19-.57-.36-.31-.44-1.31-1.21-.6s-.53,1.21.38,1.52c.22.69.48,1.37.65,2.08.23,1,1.81,2,.89,2.83s-2.35-.19-3.48-.75c-2-1-4-2.26-6.39-2.34-.22-.7-.59-1.28-1.43-1.18s-.88.61-.8,1.25q-.07,20.21-.16,40.41c0,1.73.12,2.57,2.2,1.37,2.9-1.67,6-2.91,9.33-4.46a5.11,5.11,0,0,1-.24.9c-.93,1.29-3.31,2-2.6,3.87s2.95,1.27,4.6,1.28c11.15,0,22.3,0,33.45.14,2.23,0,3.05-.65,2.55-2.65-.81-3.24,1.36-1.71,2.25-1.31,3.2,1.44,6.24,3.25,10.33,4,.41-32.87-.37-65.58.63-98.26h1.21V929.5c-.3,1.73.82,1.4,1.82,1.24q41.33.13,82.65.26c14.19,0,28.39,0,42.58,0,.89,0,2-.35,2.91,1.43h-4.36l-118.66,0c-1.95,0-3.91.06-5.87.09-.51-.12-.86,0-.87.61-.9,4-.36,8-.37,12,0,21.74,0,43.49.09,65.23,0,.72.13,1.45.2,2.17Q399.72,1015.75,399.72,1019.05ZM343,931.92c.3.3.57.93,1.07.41s-.09-.77-.45-1c-.6-.43-1.26-1.68-1.9-.84S342.35,931.56,343,931.92Zm.31-45.19.38.52.11-.48-.55.05c-.26-1.54-2.29-1.91-5.1-.81C340,886.34,341.54,887,343.28,886.73Zm44.55-2.6c1.48,2,3.14,2.21,5.45,1.18C391.47,884,389.92,883.36,387.83,884.13Z"/><path d="M201.17,540.34c-.29-2.19-2.21-4.1-1.18-6.64,1.32.92,2.57,1.84,3.87,2.67a1.51,1.51,0,0,0,2-.19c.83-.72.3-1.31,0-1.9-1.57-2.65-1.54-5.57-1.61-8.51-.44-17.71-.26-35.43-.1-53.15,0-1.22-.12-2.43-.19-3.65.27-11.06.56-22.12-.16-33.18a15.7,15.7,0,0,0,0-6.44,27.31,27.31,0,0,0-.05-7.5,177.47,177.47,0,0,0,0-20.5q.23-9.19.44-18.4c.27-3.1.56-6.2.77-9.3.06-.82.08-1.86-1-2-.36,0-.84.7-1.26,1.09-1.17,1-1.33,2.85-3.24,3.7-.42-4.66,2.45-7.88,3.92-11.54.34-.85,1.47-1.49,1-2.56s-1.71-.66-2.64-.68c-4.53-.06-9.07,0-13.6-.15-1.09,0-2.48.48-3.22-.85h93v1h-5.63l-62.51,0c-5.35,0-5.47.19-3.55,5.16.88,2.27,2.75,4.06,3.06,6.65.11,1,.16,2-.81,2-2.84-.11-2.38,1.91-2.43,3.48-.26,7.46-.7,14.93-.2,22.39-.64,12.26-.51,24.52,0,36.78-.42,11-.21,22.07,0,33.1-.89,7.18-.3,14.39-.26,21.58q.09,17.61.35,35.21c0,2.19-.35,4.67,2.4,5.9,1,.47,1.06,1.64.78,2.6-1,3.48-2,7-4.7,9.63C202.38,544.65,202,542.39,201.17,540.34Z"/><path d="M535.18,438.51c7,3.32,9.43,9.33,9.66,16.6.08,2.31-.06,4.65.19,6.94.22,2-.55,3-2.41,3.31-8,0-15.92-.21-23.87,0-3.06.08-3.58-1-3.59-3.74,0-4.33-.21-8.8.1-13,.19-2.73,2.81-6.48,6.27-8.42a20.49,20.49,0,0,1,10-2.34l3,.25Zm-5,19.53V458h6.59c1,0,1.88-.13,2.22-1.37a9.32,9.32,0,0,0-9.24-11.87c-5.18.16-8.27,3.5-9,9.58-.33,2.59.4,4,3.26,3.77C526,457.94,528.07,458,530.14,458Z"/><path d="M427.88,894.73a62,62,0,0,1,7,.3c5.35.84,6.59,4.53,6.89,9.18.08,1.18-.34,1.44-1.53,1.75-3.53.94-3.58,1.37-.78,3.91,1.65,1.48,3.33,2.7,3.2,5.38-.28,5.84-2.26,7.78-9.27,8.75-3.73.51-7.59.1-11.38.2-1.83,0-2.28-.81-2.27-2.47.07-9,.07-17.89.09-26.84ZM431,912.49c-.85,0-1.71.06-2.56,0-3-.24-3.23,1.7-2.73,3.76s2.26,2.38,4.08,2.15c2-.27,4.55,1.13,5.66-1.86S435.47,912.45,431,912.49Zm-1-5.84c1.81-.33,4.52.94,4.58-2.79.06-3.52-2.46-3.05-4.51-3.07s-4.49-.47-4.49,3.05S428,906.36,430,906.65Z"/><path d="M367.46,847.82a65.72,65.72,0,0,1,6.88.35c3.57.56,5.16,2.62,6,5.93.54,2.24.2,3.77-1.89,4.89-2.26,1.21-2.29,3.08-.15,4,3.12,1.37,3.79,3.57,3.19,6.44-.72,3.4-2.5,6.18-6.14,6.9a50.65,50.65,0,0,1-14.6.52c-1.46-.13-2.13-.58-2.12-2.2q.09-12.45,0-24.91c0-1.43.44-2,1.87-2C362.53,847.87,364.61,847.82,367.46,847.82Zm2.47,17.73c-3.52-.35-6-.6-5.39,3.56.5,3.14,2.77,2.13,4.46,2.13,2.35,0,5.78,1,5.84-2.87C374.92,864.33,371.33,865.84,369.93,865.55Zm-1.11-11.94c-1.67.32-4.31-.81-4.47,2.56s2.29,3.36,4.66,3.4,4.7,0,4.75-3.06C373.82,853.14,371.11,853.74,368.82,853.61Z"/><path d="M457.26,913.43c0-1.83,0-3.67,0-5.5,0-4.61,0-4.95,4.4-4.1,2.73.53,5.23-.26,7.83-.14,1.48.07,3.21-.53,4,1.57a1.23,1.23,0,0,0,2.12.27c1.82-3.12,4.73-1.5,7.15-1.79,3.07-.37,4.69,1.45,5.33,4.22,1.08,4.66.87,9.42.93,14.16,0,3-2.27,1.82-3.71,2s-3.21.34-3.09-2.23c.15-3,0-6.11-.05-9.17,0-1.47.49-3.64-1.85-3.62-2.15,0-4,1-3.94,3.76s-.16,5.4,0,8.08c.18,3.07-1.57,3.25-3.94,3.24s-3.67-.57-3.43-3.32c.25-2.91.14-5.84.19-8.76,0-1.58-.07-2.8-2.32-2.65-2,.14-2.93.76-2.93,2.79,0,3.06-.25,6.12-.1,9.17.17,3.33-2.17,2.43-4,2.72-2.2.36-2.78-.59-2.68-2.63C457.35,918.82,457.25,916.12,457.26,913.43Z"/><path d="M351.39,959.57c6.72,0,6.69,0,6.68,6.52,0,6.85-.12,13.7.14,20.54.09,2.23-.74,2.71-2.42,2.29s-4.58,1.75-4.45-2.22c.07-2.32,0-4.65.07-7,.1-1.82-.36-2.81-2.41-2.48a13.48,13.48,0,0,1-2.2,0c-8.89-.13-9.33.25-7.65,9.06.39,2.05-.12,2.24-1.77,2.38-5.16.45-5.15.49-5.14-4.51,0-6.85.22-13.71-.09-20.54-.16-3.52,1-4.58,4.27-4a19,19,0,0,0,2.93,0l.37.64a12.42,12.42,0,0,0-.4,9.83c.65,1.74,4.41.93,6.79,1a24.72,24.72,0,0,0,3.65-.08c.69-.08,1.64-.32,1.56-1.21-.26-3.18,1.05-6.5-.76-9.56Z"/><path d="M154.24,455c1.18-2.33,3.61-2.81,5.64-4,7.68-4.36,16-7.06,24.38-10,.77,4,.17,7-4,8.37-4.53,1.45-2.75,5.29-3.12,8.33-.34,2.8,1.24,4.08,3.48,5.26,1.35.72,3.86.06,3.91,2.5,0,1.5.59,3.35-.87,4.48-1.27,1-2.48-.24-3.63-.7-6.95-2.77-13.91-5.51-20.78-8.47-1.91-.82-3.5-2.36-5.24-3.57Zm8.83.36c2.26,1.36,3.73,2.37,5.3,3.16,3.6,1.83,4.22,1.31,4.46-2.68.15-2.41-.89-2.74-2.77-2.3C168,454.06,165.91,454.65,163.07,455.39Z"/><path d="M523.63,916.18a18.66,18.66,0,0,0,0,4c.66,3.39-.75,4.16-3.91,4-2.17-.08-2.9-.76-2.63-2.71.5-3.67-.82-7.17-.86-10.82,0-2.41-2.4-.81-3.72-1-.52-.13-.73.09-.68.6-1.45,3.66-.53,7.48-.72,11.22-.09,1.69-.29,3.11-2.36,2.6-1.71-.43-4.79,1.8-4.85-2.15-.09-5.48-.06-11-.06-16.42,0-1.35.73-2.14,2.09-1.83,4.34,1,8.67,0,13,0,1.84,0,2.75.94,3.36,2.7a30.56,30.56,0,0,1,1.35,7.5Z"/><path d="M237.35,549.29l-46.37,0c-1.44-.46-3.45.65-4.83-2.19h6.32a6.17,6.17,0,0,0,3.66,0l8.1-.08c3.33,1.09,6.76.45,10.14.47,7.66.06,15.32-.06,23-.11h43.2a4.2,4.2,0,0,1-4.06,2C263.44,548.55,250.39,549,237.35,549.29Z"/><path d="M493,913.59c0-2,0-3.91,0-5.86,0-3.86,2-5.23,5.83-4.05,1.4.43,1.1,1.41,1.11,2.32,0,5.13-.08,10.27,0,15.4.05,2.38-1,3-3.13,2.78-1.74-.14-3.84.56-3.64-2.53.18-2.67,0-5.37,0-8.06Z"/><path d="M496.69,900.08c-1.94,0-4,.12-3.91-2.58.11-3,2.58-2.22,4.35-2.42s3,.4,2.92,2.59C500,900.24,498.38,900.21,496.69,900.08Z"/><path d="M830.86,454.59h20c0,.23,0,.47,0,.71H830.81C830.83,455.06,830.84,454.82,830.86,454.59Z"/><path d="M1673,454.7a121.24,121.24,0,0,1-21.18.91c0-.31,0-.61,0-.91Z"/><path d="M1250.93,873.49V856.11c1.76.16,1.4,1,1.36,1.88a125.77,125.77,0,0,0,.15,16c.1,1.32.15,2.26-1.44,1C1251,874.49,1251,874,1250.93,873.49Z"/><path d="M1640.47,455c1.77-.84,3.59-.77,5.88-.52A5.5,5.5,0,0,1,1640.47,455Z"/><path d="M1251.21,848.37v-5C1253,845.16,1251.8,846.81,1251.21,848.37Z"/><path d="M442.64,462.25l.08-19.49c1.7-1.36,3.52-.15,5.28-.23,1.12,0,.73.82.71,1.54,0,2.93,0,5.85,0,8.78,0,2.7,1.84,2.62,3.77,2.73,2.14.11,2.76-.78,2.65-2.81-.14-2.56,0-5.13,0-7.69,0-1.25-.59-2.8,1.74-2.59,1.74.16,3.54-.07,3.5,2.52a55.05,55.05,0,0,1,0,6.55c-.34,2.48.08,3.65,2.9,3.52,2.17-.09,4.36.58,6.54.56,2.77,0,3.17,1.61,3.25,3.76.1,2.68-1.79,2.92-3.68,2.92C460.48,462.34,451.56,462.28,442.64,462.25Z"/><path d="M1020.37,478.47c-1.44-6.69-.89-13.49-1-20.25,0-2.17-.84-2.61-2.83-2.59-10.26.07-20.53,0-30.8,0h-4.46c1.36-1.83,2.92-1.27,4.19-1.28,10.26-.07,20.53-.15,30.8,0,2.41,0,3.1-.61,3.08-3,0-4.63.31-9.27.5-13.9a298.47,298.47,0,0,1,4.49-34.6c2.8-10,5.77-20,9.35-29.81a229.73,229.73,0,0,1,40.58-69.6c24.52-29.16,54.54-50.72,89.6-65.34,18.15-7.57,37.1-12.13,56.58-14.83a233.34,233.34,0,0,1,66.5.72c48.84,7.24,90.75,28.52,126.21,62.51a225.4,225.4,0,0,1,58.85,92.82c.66,2,.59,4.31,2,6.06.27-.07.45-.06.5-.13,4.83-7.16,11.76-8.58,20-8.6,21.33-.06,42.65.22,64,.52.73,0,1.76-.41,2.34,1.28h-4c-22.55.13-45.1-.3-67.65-.13-6.66.05-10.12,4-14,8-.78.81-.37,1.72-.08,2.71a210.5,210.5,0,0,1,8.45,50.33,19.27,19.27,0,0,0,.69,3.2l.09,2.22c0,.48,0,1,0,1.45s0,1,0,1.49,0,1,0,1.44c-.54,5.27-.54,5.2,4.75,5.18q15.35-.07,30.68,0c.9,0,2-.42,2.6.71-.16,0-.22.12-.17.28-11.73.71-23.47.38-35.2.33-2.32,0-3,.61-2.87,2.84.26,5.88-.54,11.72-1.09,17.56a226.72,226.72,0,0,1-8.71,45.06,233.49,233.49,0,0,1-35.29,70.16c-21.88,29.93-49.68,52.83-82.58,69.78a227.85,227.85,0,0,1-101,24.72c-2.59.06-3.47.54-3.39,3.44.27,10.66.16,21.32.18,32,0,1,.64,2.23-.86,2.81-1.24-.8-.56-2-.56-3,0-10.91.07-21.81.23-32.71,0-2-.18-2.74-2.5-2.76-49.09-.35-93.67-15-133.28-43.78-43-31.22-72.07-72.6-87.18-123.66a268.26,268.26,0,0,1-6.71-29.92Zm236,123c-.6.81-1.06.11-1.44-.21-2.57-2.22-2.78-.69-2.89,1.64a72.12,72.12,0,0,0,.54,9.48c-2-2.33-1.74-4.29-1.82-6.09-.18-4.26-.18-8.54-2.68-12.29,1.7-.61,1.33,2.27,2.93,1.8V584.05c0-7.95-.94-8.48-8.19-4.61a26.4,26.4,0,0,1-2.82,1.67c-1.66.64-2.08,1.88-2.13,3.44a2.67,2.67,0,0,0-2.81,1.86q-1.55,3.27-3,6.55c-1.19,2.64-.6,4,2.47,4.86s6.29.21,9.62,1.89c-4.63.42-8.69.54-12.87-1.48.87,9.48,5.28,15.86,13.71,19.34,8,3.32,15.5.84,21.55-3.69,1.45-1.09.72-2,0-3,1.28.45,2.24.69,3.16-.95a41.41,41.41,0,0,0,3.74-9.05c.75-2.67-.39-2.83-2.21-2.36a39.78,39.78,0,0,1-13.77,1.25C1255.53,599.6,1256,600.5,1256.33,601.46Zm204.42-147.09a10.84,10.84,0,0,1,2.2,0c3.7.68,4.29-1.05,4.17-4.39-.55-16.4-3.21-32.49-6.51-48.51-.24-1.17-.56-2.38-2.18-2.28,1-1.06.62-2.15.28-3.39A201,201,0,0,0,1436.93,345a215.9,215.9,0,0,0-181.62-105.52c-2.42-.06-3.09.52-3,3,.19,10.41.16,20.82.15,31.24,0,1.06.71,2.48-1,3.12-.94-1.1-.49-2.36-.49-3.51,0-10.29,0-20.58.15-30.87.05-2.64-.68-3.1-3.24-3a211.59,211.59,0,0,0-53.68,8.19,215.56,215.56,0,0,0-142.88,130c-4.55,11.72-8.36,23.67-10,36.2a120.38,120.38,0,0,0-3.47,23.58c-1.08,4.57-.57,9.27-1,13.87-.27,2.58.62,3.11,3,3.09,10.53-.1,21,0,31.58,0,1.23,0,2.46.13,3.7.2a8.17,8.17,0,0,1-4.49,1.08c-10.28,0-20.56.07-30.84-.06-2.18,0-3,.26-2.88,2.7a301.58,301.58,0,0,0,3.29,31.33c-.16,3.2,1.22,6.14,1.48,9.27a190.22,190.22,0,0,0,9,30.64,212,212,0,0,0,17.25,35.9c7.11,12.78,16.18,24.13,26,34.86,24,26.28,53,45.13,86.42,57.07a209.21,209.21,0,0,0,67,12.47c1.85,0,3.54.48,3.52-2.58-.07-10.53.16-21.07.31-31.61,0-.84-.53-1.91.45-2.47,2.42,1.81,1,4,1,6.2-.14,9.32-.09,18.63-.16,28,0,1.92.53,2.55,2.68,2.53a183.48,183.48,0,0,0,32.85-3.1c8-1.54,15.91-3.53,23.84-5.41.91-.21,3.34.05,1.1-2.25-11-11.21-21.8-22.54-32.67-33.83-1.86-1.93-3.91-3.65-4.87-6.34-.52-1.45-1.78-2.83-2.79-.15a1.47,1.47,0,0,1-1.6,1.16,1.32,1.32,0,0,1-1.33-1.45c0-3.06-1.62-2-3-1.12a27.31,27.31,0,0,1-12.49,4.71c-2,.23-2.67,1.33-2.37,3.43,0-2-.42-3.06-2.59-3.53-11.73-2.56-18.67-9.93-20.64-21.76-.33-2-1-2.66-2.86-2.86-8.53-.86-16.56-3.81-24.67-6.33-2.51-.78-5.08-1.79-6.52-4.34a10.89,10.89,0,0,1,2.06.71c8.82,5.1,18.74,6.37,28.48,8.39,2.71.56,3.36-.56,4-2.65,1-3.34,2.09-6.71,4.19-9.61.6-.83,1.74-1.64.81-2.8-1.37-1.71-2,.91-3.39.79.09-3.57-2.22-5.7-4.46-7.94-2.73-2.73-6.15-4.78-8.17-8.21,1.14-.48,1.7.85,2.68.87,2.91,3.46,5.67,7.38,9.78,9.2,2.81,1.23,4.35,2.55,4.49,5.79.72-.51,1.13-.74,1.48-1,12.34-11,32-6.37,38.46,8.86,1,2.33-.28,6.32,3.1,6.81,2.72.39,5.69-1,8.55-1.53,2.57-.51,4.94-2,8.34-1.53a42.84,42.84,0,0,1-13.19,4.13c-3.6.62-6.46,1.32-5.76,6,.19,1.28-.78,2.75-1.27,4.11-1.22,3.39-4.89,6.52.74,10,1.88,1.16,3,4.77,5,6.88,10.55,10.91,21.25,21.69,31.51,32.86,2.69,2.93,4.92,3,8.15,1.9a213.66,213.66,0,0,0,31.64-13.71c45.49-24.34,78.76-59.95,98.83-107.64,4-9.5,7.56-19.15,9.5-29.32.16-.19.4-.35.45-.56a263.38,263.38,0,0,0,6.92-48.39c.16-2.76-.58-3.46-3.36-3.42-10.52.17-21,.07-31.56,0-1.14,0-2.56.45-3.75-1.54h10.73l15.42.23A5.39,5.39,0,0,0,1460.75,454.37ZM1251.5,229.07c.7,4.45.7,4.35,5.8,4.6,16.75.79,33.37,2.69,49.63,6.93,47.48,12.37,86.7,37.83,117.53,75.8,31.8,39.16,47.11,84.58,48.82,134.77.07,2.12.57,2.65,2.57,2.79,2.54.17,2.38-1.19,2.37-3-.13-22.71-4.21-44.78-10.9-66.4a207.77,207.77,0,0,0-8.78-22.75A224.91,224.91,0,0,0,1401,283.42c-30.45-26.83-65.65-43.9-105.31-52.29a214.22,214.22,0,0,0-74-2.39,229.15,229.15,0,0,0-78,25.76,222.85,222.85,0,0,0-68.32,56.82c-22.07,27.31-37.34,58.11-44.62,92.65a255.54,255.54,0,0,0-5.66,46.85c-.07,2.75,1,3.07,3.28,3.19,2.81.14,2.48-1.56,2.51-3.31.27-14.58,1.56-29.05,4.95-43.27,7.86-32.93,21.49-63.12,42.64-89.74a221.91,221.91,0,0,1,74.37-60.59c28.59-14.49,59-21.46,90.8-23.33C1249.45,233.43,1249.45,233.4,1251.5,229.07Zm6.16,446.45a268.85,268.85,0,0,1-27.56-1.19A204,204,0,0,1,1168,659.39c-46.08-18.9-81.45-50.25-107.08-92.87-12.28-20.42-20.07-42.49-25.37-65.59a182.82,182.82,0,0,1-4.66-41.79c0-3.84-1.9-3.65-4.08-3.75-2.93-.13-1.53,2.32-1.47,3.44,1.3,26.55,6,52.31,15.93,77.2,18.39,46.17,48.49,82.41,90.22,109.12a231.5,231.5,0,0,0,39,19.48A233,233,0,0,0,1255.1,680c16.09-.07,31.85-2.6,47.48-6.19a220.75,220.75,0,0,0,78.92-35.26c36.92-26.15,64.09-60,80.78-102.08,10-25.16,14.61-51.4,15.85-78.33.11-2.41-1.33-2.31-3-2.49-2.24-.25-1.95,1.07-1.95,2.45a205,205,0,0,1-9.7,61.57c-15.44,48.61-43.69,88-85.72,117.19a214.43,214.43,0,0,1-62.29,29.75C1296.19,672.28,1276.59,675.78,1257.66,675.52Zm-5.26-87.29h.22a74.67,74.67,0,0,1-.06,8.06,2.86,2.86,0,0,0,3.31,3.34c4.93-1.75,10.23-.71,15.12-2.49,1.94-.71,2.37-1.63,2-3.51-1.51-8.16-9.73-15.77-17.87-16.51-1.8-.17-2.81.26-2.76,2.3C1252.46,582.35,1252.4,585.29,1252.4,588.23Zm18.8,27.33c-.27-.4,0-1.34-.87-1.19a1.58,1.58,0,0,0-1.24,1.57c-.06.84.7.89,1.24.91C1271.15,616.88,1271.14,616.18,1271.2,615.56Z"/><path d="M1548.79,365c-4.8.6-8.71,1.12-10.25-4.28-.52-1.84-1.72-1.95-3-.08-3.33,4.89-5,5.15-10.87,4.26-3.25-.49-6.69.28-10.05.37-2.94.07-5.89-.2-8.82,0-2.41.17-2.89-.89-2.89-3,0-8-.07-15.92-.17-23.88,0-1.56.12-2.57,2.11-2.5q7.89.27,15.8.26c2.26,0,2.89,1,2.85,3.14,0,2.33-1.37,2.47-3.13,2.44-2.81-.05-5.63,0-8.45,0-2.07,0-3.41.23-3.46,2.94s1.13,3,3.27,3c2.82-.09,5.64.05,8.45,0,1.51,0,2.69.15,2.78,2s-.17,3-2.25,3.51c-2.93.68-5.87.15-8.78.43-1.41.14-3.37-.61-3.45,2-.08,2.45,1,3.71,3.4,3.74,3.18,0,6.37.14,9.55,0,2-.11,3,.35,2.58,2.56-.12.69-.85,1.79.46,2.15,1,.29,1.39-.7,1.91-1.36a51.63,51.63,0,0,1,4.71-5.58c2-1.83,1.82-3.52.35-5.37-1.18-1.49-1.83-3.47-3.87-4.24-.64-.24-1.47-.74-1.06-1.6a2,2,0,0,1,1.46-.93c2.86-.11,6-.9,7.44,2.88.89,2.28,2.32,1.92,3.2-.06,1.31-2.93,3.67-3.25,6.39-3,.71.07,1.58,0,1.83.87s-.46,1.31-.95,1.86c-5.75,6.42-5.76,6.43-.47,13.38C1546.35,362.1,1547.39,363.27,1548.79,365Z"/><path d="M1413.63,690.38c0,1.47-.06,2.94,0,4.41a4.12,4.12,0,0,1-3.1,4.39,22.21,22.21,0,0,1-17.07-.45c-6.32-2.82-9.07-8.6-7.77-16,1-5.59,6.79-10.92,12.8-11.4,4.37-.36,8.83-.69,12.57,2.44.92.78,2.29,1.45,1.76,2.88s-1.85,1.84-3.24,2c-2.15.25-4-.9-6-1.29-3.73-.71-7.28,0-9.58,3s-2,6.61-.3,10,4.65,4.42,8.08,4.66a6,6,0,0,0,3.49-.86,3.81,3.81,0,0,0,1.8-3.75c0-1.87-1.58-1.53-2.71-1.66-2-.23-3.81-.93-3.73-3.18.08-2.43,2.1-2.65,4-2.62h1.84C1413.73,683,1413.73,683,1413.63,690.38Z"/><path d="M1360.33,706.08c2.83,3,6.53,3,10.22,3q29.06.24,58.1.48c2.28,0,4.6-.24,6.88,1.06-1.21.08-2.42.23-3.62.23-20.23,0-40.46,0-60.68-.1-4.19,0-8.77.48-11.34-4.16A5.49,5.49,0,0,0,1360.33,706.08Z"/><path d="M1251.4,780V744.33l.63,0v35.76Z"/><path d="M1356.21,702.92c-8.45-8.24-17.18-16.22-24.27-25.75l.52-.49q12.15,12.9,24.28,25.81A4.33,4.33,0,0,0,1356.21,702.92Z"/><path d="M1315.26,141.76c-2.59,12.38-3,25.23-6.9,35C1308.78,166.29,1313.43,154.31,1315.26,141.76Z"/><path d="M1577.53,455.32h-36.39c0-.18,0-.35,0-.52h36.38C1577.52,455,1577.52,455.14,1577.53,455.32Z"/><path d="M933.27,455.85c-2.11-.71-4.48.52-7.06-1,2.61-1.19,4.95-.12,7.07-.79,9.88.56,19.82-.32,29.7.53v1.21Z"/><path d="M1215.14,209.18a12,12,0,0,0-.65-4.57c-.19-.73-.15-1.6.78-1.72.59-.08,1,.59,1.18,1.19,1.55,4.49,1.18,9,0,13.46a1.54,1.54,0,0,1-2,1.08c-1.36-.38-1-1.65-.76-2.43C1214.28,213.87,1215.58,211.72,1215.14,209.18Z"/><path d="M1306.11,105.87c4.55-4.43,10.65-4,13.9.58.49.69,1.19,1.39.43,2.22s-1.45.15-2-.12C1311.66,105.47,1311.67,105.45,1306.11,105.87Z"/><path d="M1252.09,193.54c.08,5.51.84,11-.46,16.52.16-5.53-1.11-11.09.49-16.59Z"/><path d="M1260.66,127.46c.63,3.18-2.77,5.25.07,7.68.31.27-1.51,1.14-3.52,1.23C1259.79,133.85,1256.49,129.88,1260.66,127.46Z"/><path d="M1304,124.38c-2.5,2.26-.16,6.28-2.94,8.63C1299.37,127,1300.51,123.83,1304,124.38Z"/><path d="M1286.3,211.18c.37-2.62.63-4.68,1-6.71.11-.65.27-1.56,1.25-1.32.69.17.73.85.57,1.51-.58,2.33-1.31,4.64-.6,7.09.21.73-.27,1.19-1,1.1C1286.08,212.68,1286.33,211.53,1286.3,211.18Z"/><path d="M1210.56,175.48c1.78,3.31,2.08,6,2.76,8.47a1.24,1.24,0,0,1-.91,1.69c-.66.14-1.08-.43-1.19-1.08C1210.77,181.92,1209.87,179.3,1210.56,175.48Z"/><path d="M1201.23,122.49c2.09,3,2.17,5.76,2,8.59,0,.47-.19,1-.84.89s-1.33-.64-1.14-1.15C1202.18,128.25,1200.36,125.68,1201.23,122.49Z"/><path d="M1253.1,216.11c1.85-3.17,4.92-4.62,6.35-8.11C1260.32,212.4,1258.6,214.53,1253.1,216.11Z"/><path d="M1294,176.66a32,32,0,0,0-1.41,7.82c-.07.59-.21,1.25-1,1.28a.91.91,0,0,1-1-1.17C1291.41,181.82,1291,178.53,1294,176.66Z"/><path d="M1243.52,146.73c0-1.3.6-2.65-.43-3.84-.52-.6-.13-1.09.39-1.5a1.45,1.45,0,0,1,1.68-.26,1.08,1.08,0,0,1,.41,1.56c-.91,1.75-.08,3.6-.4,5.37-.14.8.65,2.27-.88,2.29-1.77,0-.09-1.53-.73-2.22C1243.32,147.88,1243.52,147.21,1243.52,146.73Z"/><path d="M1199.29,201a18,18,0,0,1,2.64,8.87C1199.31,208.32,1198.72,206.46,1199.29,201Z"/><path d="M1258.18,159.5c.11-.75,0-1.51.26-1.65,1.17-.66-1.12-3.61,1.57-2.76,1.67.53.43,2.07-.12,3.24a3.2,3.2,0,0,0,.08,2.43c.4.83,1.73,1.56,0,2.11s-.91-1.26-1.42-1.89C1258.18,160.57,1258.25,159.84,1258.18,159.5Z"/><path d="M1245.31,195c0,2.42,0,4.85,0,7.28,0,.7,0,1.25-.81,1.24-.4,0-1.16-.36-1.15-.51C1243.57,200.21,1242.72,197.24,1245.31,195Z"/><path d="M1185.36,121.11c.12,0,.33,0,.35,0,.8,2.75,1.66,5.49,2.28,8.29.08.36-1.46.77-1.71,0-.73-2.4-1.22-4.87-1.74-7.33C1184.43,121.57,1184.83,121.22,1185.36,121.11Z"/><path d="M1205.62,149.59c1.83,2.59,1.88,5.75,2.8,8.63a.77.77,0,0,1-.67,1.06c-.6.07-.89-.17-.88-.79C1206.91,155.46,1204.8,152.81,1205.62,149.59Z"/><path d="M1299,148.57a56.1,56.1,0,0,1-2.79,12.12A17.05,17.05,0,0,1,1299,148.57Z"/><path d="M1243.72,118.08c.38-1.15-1.14-4.1,1-4,2.49.18,0,2.77.45,4.25a1.5,1.5,0,0,1,0,.73c-.2,1.09.73,3.09-.83,3.07-1.72,0-.73-1.9-.72-3C1243.64,118.92,1243.67,118.68,1243.72,118.08Z"/><path d="M1190.15,147.08c1.62,3.09,1,5.75,2.48,7.81.42.58.42,1.16-.34,1.39-.56.17-1.44.21-1.6-.42C1190,153.21,1189.06,150.55,1190.15,147.08Z"/><path d="M1303.54,207.53c1.28,2.91-.28,4.87-.34,7,0,.74-.34,1.57-1.28,1.32s-1.86-1.05-1.42-2.13C1301.29,211.77,1302.34,209.93,1303.54,207.53Z"/><path d="M1188.56,104.11c2.83-1.5,5.46-1.45,8.34,1.21A11.54,11.54,0,0,1,1188.56,104.11Z"/><path d="M1317.67,127.14a12.58,12.58,0,0,1-2.06,9.19C1315.17,133,1316.47,130.08,1317.67,127.14Z"/><path d="M1245.18,154.76c.67,2.59-.8,4.81,0,7.05.16.49-.5.79-1,.67-.31-.08-.84-.52-.81-.61C1244.24,159.66,1241.8,156.75,1245.18,154.76Z"/><path d="M1204.18,144.31c-.38-1.52-.71-3-1.15-4.46-.19-.64-.37-1.27.42-1.42.52-.11,1.12.24,1.7.33,1.15.2.57.69.2,1.13C1204.28,141.17,1206.8,143.25,1204.18,144.31Z"/><path d="M1194.15,177.05a15.66,15.66,0,0,1,.57-2.09c.16-.4.46-.93,1-.75a.79.79,0,0,1,.45,1.19c-1.28,2.22-.67,4.14.86,5.91.56.65.37,1.2-.22,1.42s-1.49.39-1.7-.68C1194.81,180.39,1194.48,178.74,1194.15,177.05Z"/><path d="M1251.16,161.09c-1-1.81,1.75-3.77-.23-5.71-.32-.32.38-1.1,1-1.16s.62.36.6.91c-.1,2.56-1.75,5.14.11,7.71.19.25-.22.93-.81,1s-.9-.23-.85-.85S1251.11,161.77,1251.16,161.09Z"/><path d="M1250.37,151.77c1.86-1.78.27-3.87.88-5.77.08-.24,0-.56.11-.74a.69.69,0,0,1,.65,0c1,1.46.42,3.16.67,4.75C1252.87,151.2,1252.27,152.12,1250.37,151.77Z"/><path d="M1259.05,203.4c-1.46-2.24.79-4.7-1.06-7.19C1261.08,197.74,1261.3,200.73,1259.05,203.4Z"/><path d="M1288.45,197.71c1.47-1.61-.48-4.59,2.49-4.7a23.32,23.32,0,0,1,.24,2.89C1291.17,197.4,1290.34,198,1288.45,197.71Zm1.3-1.7.26-.25a2,2,0,0,0-.47-.23s-.15.14-.23.22Z"/><path d="M1259.71,169.36c1.68,2.62-.86,4.93-.2,7.45C1257.82,174.27,1259.4,171.81,1259.71,169.36Z"/><path d="M1243.6,132.58c0-.52-.22-1-.08-1.23.5-.92-.74-2.82.94-2.78s1.09,1.69.87,2.82c-.07.36,0,.82-.27,1.05-.93,1,1.06,3.31-1,3.18S1244.51,133.42,1243.6,132.58Z"/><path d="M1258.31,186.62a28.57,28.57,0,0,1,.4-3.59,1.12,1.12,0,0,1,1.74-.73c.72.41,1,1.08.15,1.69-1.31.94-.79,2.24-.54,3.35s.83,2.5-.75,2.56c-1.76.06-.6-1.65-.88-2.53a2.61,2.61,0,0,1,0-.74Z"/><path d="M1207.85,163.8c2.63,1.51,1.79,4.31,2.61,6.41a.68.68,0,0,1-.66,1c-.63,0-1.32-.22-1.28-.94C1208.64,168.11,1207.3,166.12,1207.85,163.8Z"/><path d="M1296.1,220.39c-1.53,0-2.91.1-4.27,0-1-.1-1.9-.64-1.69-1.88.24-1.43,1.51-1.27,2.27-.91C1293.7,218.18,1295.47,218.31,1296.1,220.39Z"/><path d="M1305.44,190.8c.26-3.29.55-5.8,1.91-8,.21-.35.63-.81.94-.81a.67.67,0,0,1,.6,1C1307.66,185.25,1308.2,188.26,1305.44,190.8Z"/><path d="M1192.35,162.54c.7.12,3,5,2.63,5.34s-.84.31-1.27.44c-.25-1.89-1.59-3.28-2.27-5C1191.38,163.21,1192.09,162.76,1192.35,162.54Z"/><path d="M1186,112.27c-.48,1.23-.6,2.4-1.67,2.17-1.53-.35-2-1.86-2.35-3.16-.22-.81.42-2,1.23-1.83C1184.74,109.81,1184.25,112.15,1186,112.27Z"/><path d="M1259,122c-.09-1.74.57-3.27-.76-4.42-.62-.55-.33-1.13.25-1.48s1.14-.69,1.61-.58c.66.16.68,1,.57,1.57C1260.43,118.61,1261.35,120.52,1259,122Z"/><path d="M1243.25,173.26c1.09-1.79-.66-4.93,1.55-4.8s0,2.77.26,4.33c.2,1.29,1.12,4.16-1.06,4S1245.18,174.19,1243.25,173.26Z"/><path d="M1201.79,214.22c2.66,1.39,3.5,3.05,4.63,4.45.61.75,1,1.62.16,2.22s-1.53,0-1.94-.91C1203.86,218.38,1203.06,216.79,1201.79,214.22Z"/><path d="M1319.74,115.21a6,6,0,0,1-1,6.21c-.25.33-1.1.51-1.16,0A6.46,6.46,0,0,1,1319.74,115.21Z"/><path d="M1244.09,186c-1.2-2.13-.82-3.58.62-3.45,1.77.15.47,1.76.37,2.63-.16,1.41,1.07,4.06-.82,4C1241.73,189.07,1244.61,186.54,1244.09,186Z"/><path d="M1252.16,129.51c.25,2.55.54,4.72.63,6.91a1.09,1.09,0,0,1-1.58,1c-1.44-.52-.12-1.15.11-1.5C1252.63,134,1249.86,131.78,1252.16,129.51Z"/><path d="M1305.24,114.41c-.31,1.16,0,3.24-1.46,3.45s-1.15-1.77-1.08-2.82c.09-1.23.17-2.93,2-2.79C1306.22,112.36,1304.75,113.59,1305.24,114.41Z"/><path d="M1199.13,109.93c1.7,2.83,1.51,5.48,1.54,8.08C1199.4,115.69,1198,113.41,1199.13,109.93Z"/><path d="M1252.12,193.47a.75.75,0,0,1-1.45-.27c.66-2.42-.07-5.1,1.76-7.34-.11,2.56-.23,5.13-.34,7.69A.69.69,0,0,1,1252.12,193.47Z"/><path d="M1259.63,143.13c-1.11.67-.57,1.35-.06,2.1,1.54,2.23,1.52,2.24-1.7,3.37,1.6-1.83,0-4.07,1.83-5.52Z"/><path d="M1243.89,209.57c1.39,1.28,2.17,3.12,4.28,3.51.94.18.79,1.21.61,1.81s-1.06.46-1.57.32C1244.29,214.4,1243.93,212.08,1243.89,209.57Z"/><path d="M1305.87,195.61c.23,3-.72,4.87-1.34,7C1302.43,200.05,1303.64,198.15,1305.87,195.61Z"/><path d="M1187.07,137.58c.13-1-.1-2.49.8-2.23,2.66.75.59,3.64,1.91,5.19.43.5-.09,1.43-.69,1.26C1186.82,141.14,1187.66,138.93,1187.07,137.58Z"/><path d="M1212.42,190.39a18.93,18.93,0,0,1,3.24,5.84c.13.35-.19.87-.3,1.31-.44-.13-1.23-.22-1.25-.4C1213.85,195.06,1211.67,193.54,1212.42,190.39Z"/><path d="M1590.1,454.38c-.08.37-.06.55-.13.59a5.25,5.25,0,0,1-4.79.4c-.09,0,0-.87.11-.93A6.18,6.18,0,0,1,1590.1,454.38Z"/><path d="M1295.62,164.87c-.35,2.36.11,4.92-1.81,7.85C1293.6,169.33,1293.51,166.88,1295.62,164.87Z"/><path d="M1299.23,145.61c-.91-2.6.4-4.44-.22-6.29-.18-.53.48-1.11,1.11-1a1.09,1.09,0,0,1,.82,1.39C1300.51,141.43,1300,143.14,1299.23,145.61Z"/><path d="M1198,196.23c-.84-3.07-2.11-5.21-.45-7.58C1197.36,190.9,1199.74,192.94,1198,196.23Z"/><path d="M1527.81,455.24c1.93-1,4.09-1.11,6.17-1.57C1532.52,456.54,1530.12,455.74,1527.81,455.24Z"/><path d="M1244.35,108.58c-1-2.87-1-4.72.24-6.39.35-.47,1.08-.32,1.13.16C1245.91,104.22,1245,105.87,1244.35,108.58Z"/><path d="M975.12,454.92c-1.58,1.06-3.24.54-4.9.25A6.1,6.1,0,0,1,975.12,454.92Z"/><path d="M1331.94,677.17c-1.12-.58-1.41-1.77-2.3-2.88,1.82.13,2,1.57,2.82,2.39Z"/><path d="M1251.18,216.91l-.37-.65c.31-.09.63-.2,1-.26s.7.08.52.46C1252.18,216.67,1251.72,216.7,1251.18,216.91Z"/><path d="M1359.15,705.87a2.13,2.13,0,0,1-1.48-1.47,3.67,3.67,0,0,0,.44-.52l1.57,1.55A4.42,4.42,0,0,0,1359.15,705.87Z"/><path d="M1260.51,142.19l.42-.32c-.06,0-.14-.05-.16,0a2.31,2.31,0,0,0-.19.28Z"/><path d="M1356.93,703.68l-.72-.76a4.33,4.33,0,0,1,.53-.43l.78.76A3.07,3.07,0,0,0,1356.93,703.68Z"/><path d="M1359.89,706.6a.72.72,0,0,1-.74-.73,4.42,4.42,0,0,1,.53-.44l.65.65A5.49,5.49,0,0,1,1359.89,706.6Z"/><path d="M1357.67,704.4l-.74-.72a3.07,3.07,0,0,1,.59-.43l.59.63A3.67,3.67,0,0,1,1357.67,704.4Z"/><path d="M1259.7,143.08c.82.21,1.08-.1.81-.89l.07-.07-.95,1Z"/><path d="M919.56,454.69c-3.55.79-3.55.79-5.45.12A7.12,7.12,0,0,1,919.56,454.69Z"/><path d="M1710.53,1008.47c1.33-1.64,3-1.45,4.46-1.72,2.72-.53,3.81-2.5,4.55-4.72a3.16,3.16,0,0,0-1.48-3.51c-2.06-1.45-4.16-.79-6.19.2a10.32,10.32,0,0,0-.89.63c-1.54,1-3.87,2.51-4.84.88-1.15-1.93,1.24-3.39,3-4.25a12.91,12.91,0,0,1,10.65-.3c5.5,2.2,5.49,7.76,0,12.51,1.9,1.4,4.42,2.17,4.9,4.93a11.38,11.38,0,0,1-.68,6.09c-1.48,4-4.91,4.75-8.56,5a15.06,15.06,0,0,1-8.43-2,2.93,2.93,0,0,1-1.36-3.81c.92-1.86,1.93.25,2.89.46a36,36,0,0,1,3.65,1.56c3.39,1.22,6.47.14,7.43-2.51a6.5,6.5,0,0,0-3.94-8.31A48.11,48.11,0,0,0,1710.53,1008.47Z"/><path d="M1682.87,1003.16c2.47-4.54,6.31-6.9,10.68-8.56,1.69-.65,2.51.06,2.51,1.89q0,13,0,26.09c0,1.18-.21,2-1.57,1.71-1-.2-2.62.7-2.91-1.24a29.91,29.91,0,0,1-.46-4c-.07-4.78-.16-9.56,0-14.33.08-2.91-.44-4.26-3.52-2.45A6.29,6.29,0,0,1,1682.87,1003.16Z"/><path d="M1716.83,943.28c0,8.21-1.88,10.1-10.16,10.39a27,27,0,0,1-8-.86c-6.15-1.65-10.83-8.21-10.33-14.29.63-7.62,6.23-13.75,13.21-14.23,4.25-.28,8.57-.52,12.39,2,1,.65,2.25,1.15,2.16,2.68s-1.59,1.66-2.6,2.21a5,5,0,0,1-4.21,0c-2.91-1-5.85-1.64-8.88-.2a8.64,8.64,0,0,0-4.33,11.34c1.64,4.15,7.11,6.76,11.16,5.26a4.08,4.08,0,0,0,3-4.13c-.1-2.43-2.19-1.93-3.58-2.06-1.92-.17-3.11-1-3.09-2.87,0-2.09,1.71-2.4,3.4-2.46.85,0,1.71,0,2.57,0C1716.82,936,1716.82,936,1716.83,943.28Z"/><path d="M1449.53,953.44c4-9.34,7.74-18.47,11.74-27.5,1.35-3,5.08-2.88,6.88.13,2.86,4.79,4.54,10.12,6.73,15.22,1.42,3.32,2.83,6.67,4.42,9.92.83,1.7.68,2.4-1.36,2.52-2.67.15-5.15.18-6.26-3-.85-2.42-2.68-3.23-5.18-3a46.2,46.2,0,0,1-5.13,0c-1.34,0-2.59.36-2.91,1.7C1457.22,954.54,1453.48,953.75,1449.53,953.44Zm14.75-11.55c1.31-.2,3.3-.07,3-2.13-.26-1.7.2-4.77-2.34-4.58-2.14.16-2,3.29-2.74,5.08S1463.15,941.74,1464.28,941.89Z"/><path d="M1230.41,924.18a8.68,8.68,0,0,1,6.77,2.07c.85.78,2.78,1.26,1.71,3.07-1,1.66-2.34,2.89-4.5,2.3-.8-.22-1.54-.68-2.33-1a7.87,7.87,0,0,0-9.67,2.87,9.65,9.65,0,0,0,.92,11.8c2.52,2.74,6,3.29,9.63.93,2.87-1.85,4.82-.62,6.08,1.54,1.44,2.48-1.15,3.38-2.72,4.28-5.06,2.89-13.07,1.75-17.77-2.37-4.14-3.63-5.63-11.08-3.38-16.9C1217.17,927.58,1223.12,924.13,1230.41,924.18Z"/><path d="M1093.6,939c0-4.17.16-8.34-.06-12.49-.15-2.62,1.35-2.47,2.94-2.17,1.43.28,4.08-1.41,3.79,2.08a5.93,5.93,0,0,0,0,.73c.06,9.93.18,10,10.26,8.85,1.28-.15,1.7-.52,1.63-1.75a47.6,47.6,0,0,0-.17-5.49c-.63-3.7.6-5,4.4-4.51,1.82.23,2.54.52,2.54,2.45q0,12.12.23,24.23c.07,3.91-2.88,2.34-4.72,2.72-2.39.5-2.61-1-2.4-2.8a2.16,2.16,0,0,0,0-.36c-.27-2.76,1.33-6.88-.63-8-2.55-1.41-6.39-.46-9.67-.59-1.45-.06-1.51.76-1.47,1.86,0,1.83,0,3.67,0,5.5,0,4.12-1.23,5.1-5.38,4.32-1.69-.31-1.3-1.49-1.31-2.51,0-4,0-8.07,0-12.11Z"/><path d="M1371.74,953.48c-4.26.35-8.16.72-9.77-4.33-.3-.92-1.45-2.39-2.28-.64-2.74,5.72-7.32,4.77-12.46,4.81-5.58,0-11.24-.11-16.83.39-3.3.3-4.18-.84-4.12-4,.15-7.58,0-15.18-.13-22.76-.05-2.11.6-2.75,2.69-2.69,5.14.14,10.29.13,15.43,0,1.88,0,2.68.54,2.59,2.47-.07,1.67,0,3.27-2.34,3.29q-4.41,0-8.82.14c-2.08,0-3.77.18-3.68,3.17.09,2.83,1.65,2.73,3.58,2.69,2.69,0,5.39,0,8.08,0,1.19,0,2.51-.33,2.5,1.65,0,1.69.46,3.68-2,3.92-2.91.29-5.86.19-8.79.36-1.44.09-3.37-.54-3.43,2.08s1,3.64,3.45,3.66c2.94,0,5.88.19,8.81,0,2.24-.12,3.6.28,3.1,2.91-.13.69-.39,1.55.6,1.83s1.2-.58,1.63-1.13a29.55,29.55,0,0,1,2.5-3.15c5.78-5.59,4.12-6.17-.34-11.63-.68-.84-1.87-1.3-1.25-2.63.53-1.15,1.68-.75,2.61-.8,2.38-.12,4.58-.09,5.63,2.81.63,1.75,1.92,1.51,3,.08a6.54,6.54,0,0,1,7-2.84c.56.11,1.3-.17,1.6.56s-.22,1.31-.72,1.88c-6.85,7.67-5.41,5.63-.51,13.94C1369.82,950.77,1371.28,951.48,1371.74,953.48Z"/><path d="M879.54,1024.28a53.89,53.89,0,0,1-6.23-.06c-1.34-.16-3.62,1.3-3.91-1.08-.26-2.21-1.17-4.91,1.59-6.6a53.26,53.26,0,0,0,9.6-7.86,19,19,0,0,0,2.69-3.42c1.31-2.14,1.51-4.23-.44-6.28-1.8-1.89-3.7-1.4-5.65-.59-1.34.56-2.57,1.38-3.9,1.94-1.1.47-2.47,1-3.22-.37s-.15-2.42,1.38-3.14c4.6-2.19,9.29-3.22,13.92-.51,4.33,2.53,5.14,6.26,2.41,10.52-2.93,4.57-7.1,8-11.18,11.5-.8.68-2.27,1.18-1.89,2.36s1.93.65,2.93.68c3.3.12,6.6,0,9.9.08,1.05,0,2.51-.09,2.41,1.5-.09,1.31-1.41,1.11-2.34,1.12-2.69,0-5.38,0-8.07,0Z"/><path d="M857.26,1024.14a62.09,62.09,0,0,1-7-.07c-1.45-.17-3.48.57-4.16-1.76s.25-4,2-5.41c3.29-2.72,6.61-5.41,9.86-8.18,1.1-.94,2.45-1.93,2.94-3.19a6.29,6.29,0,0,0-1-6.87c-1.68-1.74-3.78-.87-5.76-.27-1.76.53-3,2.2-4.88,2.32-.67,0-1.62.63-2-.19a3.13,3.13,0,0,1,.39-2,4.33,4.33,0,0,1,1.1-1.46c3.74-3.39,8.2-2.57,12.43-1.66,3,.65,5.15,5.11,5.11,8.93a5.56,5.56,0,0,1-2,4.13c-3.68,3.4-7,7.22-11.1,10.1-.69.48-1.72,1-1.36,1.9s1.37.88,2.26.88c2.93,0,5.87,0,8.8.09,1.34,0,3.38-.62,3.36,1.65s-2,1.12-3.11,1.22c-1.94.17-3.91,0-5.87,0Z"/><path d="M1124.22,998c-.68,4.9,0,9.68-.32,14.43-.15,2.32.22,3.44,2.78,3.15.89-.11,2.2-.19,2.23,1.21s-1.35,1.57-2.15,1.46c-3.29-.45-3.19,1.57-3,3.76.15,1.6-.25,2.48-2.16,2.44s-2.49-.77-2.2-2.42c.55-3.18-.88-4.06-3.82-3.7-1.82.22-3.69-.08-5.51.1-2.75.27-3.46-1.1-2.4-3.22,3.13-6.29,6.37-12.54,9.82-18.66,1.16-2.07,3.72-1.87,5.7-1.55C1124.68,995.2,1124.06,997,1124.22,998Zm-5.48,2.57c-2.55,4.69-4.48,8.52-6.69,12.2-1.43,2.38-.74,3,1.7,2.75a17.79,17.79,0,0,1,2.92,0c2,.19,2.89-.55,2.73-2.68C1119.11,1009.06,1119,1005.3,1118.74,1000.53Z"/><path d="M1090.61,1007.83c1.59-.4,3.18-.81,4.77-1.19a6.18,6.18,0,0,0,4.49-4.4c.53-1.63-.9-3.16-2.18-3.88a5.94,5.94,0,0,0-5.92.13c-1.27.7-2.21,2-3.75,2.17-.8.09-1.8.41-2.31-.55a1.81,1.81,0,0,1,.36-2.05c2.94-3.31,6.87-3.48,10.79-3.08a7.73,7.73,0,0,1,6.85,5.19,5,5,0,0,1-1.91,5.84c-1.6,1.26-2.08,2.32-.09,3.58,3,1.9,3.17,4.94,2.41,7.8s-2.16,5.47-5.75,6.34a14.42,14.42,0,0,1-12.12-2.17c-.79-.54-1.78-1.13-1.19-2.32s1.52-.86,2.52-.47a50.37,50.37,0,0,0,5.46,1.9c3.86,1,5.82-.28,7-4.3a5.79,5.79,0,0,0-4-6.84c-1.74-.46-3.55-.62-5.33-.92C1090.62,1008.35,1090.61,1008.09,1090.61,1007.83Z"/><path d="M1589.81,924.42c2.57,0,5.14,0,7.71,0,1.73,0,3.13.1,3,2.53-.1,2.26-.79,3.36-3.25,3.22-2.93-.17-5.88,0-8.81,0-1.74,0-2.83.26-2.63,2.39.16,1.77,0,3.51,2.57,3.49s5.38,0,8.07.14c1.11,0,2.75-.45,2.7,1.51,0,1.51.11,3.12-2.08,3.73-2.8.77-5.59.42-8.38.42-1.78,0-2.36.52-2.24,2.28.15,2.07-.41,4.3.17,6.2.83,2.7-.55,2.85-2.43,3.11-4.13.59-4.29.47-4.3-3.77,0-7.59.06-15.18-.12-22.76,0-2.23.64-2.71,2.67-2.57,2.43.18,4.89.05,7.34.05Z"/><path d="M740.37,936c0-4,0-8.09,0-12.13,0-1.2-.26-2.58,1.7-2.5,4.76.18,9.54-.47,14.27.64,7.5,1.75,11.47,6.68,11.38,14.34a14.19,14.19,0,0,1-12,13.64,80.77,80.77,0,0,1-12.82.77c-2,0-2.47-.82-2.43-2.63.1-4,0-8.08,0-12.13Zm6.78-.11h0c0,2.2,0,4.39,0,6.58,0,1.12.11,2.09,1.59,2.43,4.88,1.11,10.61-2.58,11.62-7.59s-2.37-9.3-8-10.11c-4.53-.67-5.18-.14-5.22,4.31C747.14,932.93,747.15,934.39,747.15,935.85Z"/><path d="M1002.38,1024.29c-4.4.47-6.58-2.26-8.07-5.64-2.73-6.2-2.47-12.55-.12-18.78,1.22-3.23,3.84-4.87,7.36-5,3.87-.18,7.3.47,9.22,4.36,3.42,6.9,3.1,13.85,0,20.69C1009.18,1023.38,1006.05,1024.59,1002.38,1024.29Zm5.84-14.87c.48-2.56-.2-5.21-.84-7.81a4.76,4.76,0,0,0-4.69-3.89c-2.5-.16-3.35,1.33-4.13,3.31-2.1,5.35-1.81,10.76-.51,16.17.48,2,1.32,4.06,4,4.1,2.84,0,4.59-1.63,5.41-4.12A17.55,17.55,0,0,0,1008.22,1009.42Z"/><path d="M979.83,1024.33c-2.68-.15-5.37-.44-8.05-.4-2.39,0-2.51-.94-2.06-2.92a9.16,9.16,0,0,1,3.65-5.63c2.93-2.18,5.7-4.59,8.44-7a11.42,11.42,0,0,0,2.7-3.42,5.43,5.43,0,0,0-.79-6.11c-1.5-1.82-3.41-1.17-5.06-.71-2.06.59-4,1.74-6,2.54a2.07,2.07,0,0,1-1.72-.11c-.61-.54-.17-1.33.13-2a4.49,4.49,0,0,1,.64-.88c3.35-4.14,12.77-4.05,16,.15,3,3.88,3,7.2-.33,10.79a81.61,81.61,0,0,1-10.08,9.59c-.76.58-2,1.1-1.69,2.16s1.56.94,2.55,1c2.82,0,5.63,0,8.44.13,1.32,0,3.45-.76,3.41,1.52,0,2-2,1.19-3.22,1.24-2.32.11-4.65,0-7,0Z"/><path d="M1476.52,1024.29c-7.79,0-12.37-6.81-9.32-14.06a60.14,60.14,0,0,1,8.39-13.6,4.66,4.66,0,0,1,2.61-1.91c1.11-.24,2.34-.48,3,.5s-.37,1.73-.94,2.49c-1.39,1.84-2.7,3.73-4.11,5.55-1.55,2-1.16,2.92,1.42,3.06,4.07.22,7.36,1.84,8.86,5.88C1488.69,1018.19,1483.59,1024.32,1476.52,1024.29Zm5.55-9.44a5.13,5.13,0,0,0-5.62-5.21c-3.63.1-5.6,2.3-5.51,6.15a5.43,5.43,0,0,0,5.39,5.56C1479.81,1021.31,1482.13,1018.69,1482.07,1014.85Z"/><path d="M1453.67,1024.28c-7.8,0-11.9-5.36-9.55-12.86,1.78-5.64,5.16-10.43,8.72-15.07a3.92,3.92,0,0,1,2.73-1.68c1-.1,2.15-.5,2.75.32.83,1.13-.23,2-1,2.83a12.09,12.09,0,0,0-1.24,1.35c-1.23,2-3.54,4.08-3.32,5.87.29,2.32,3.59,1.15,5.51,1.75,3.5,1.1,5.33,3.81,5.38,8.16,0,4.11-2.1,7.57-5.33,8.74A13.65,13.65,0,0,1,1453.67,1024.28Zm5.62-9.35c0-3.67-1.56-5.26-5.34-5.27a6.49,6.49,0,0,0-6.24,5.92c-.14,3,2.88,5.79,6.33,5.75S1459.23,1019.27,1459.29,1014.93Z"/><path d="M879.88,937.11c4.07,2.46,6.8,4.54,6.32,8.78-.41,3.72-2.26,6.31-5.9,6.91a79.7,79.7,0,0,1-14.65.85c-1.74,0-2.33-.73-2.32-2.44q.06-12.5,0-25c0-1.27.09-2.1,1.71-2,4.89.21,9.78-.18,14.66.68,3.32.59,4.88,2.32,5.08,5.57C884.93,933.48,885.3,936.56,879.88,937.11Zm-5.31,4.62c-2,.75-5.23-1.48-5.27,2.69,0,2.74,1.68,3.4,4.13,3.38,4.69,0,6.29-.88,6.12-3.8C879.32,940,876,942.89,874.57,941.73Zm-.73-5.67c2.21,0,4.68.15,4.71-2.44,0-2.94-2.43-3.61-4.94-3.43-1.82.12-4.39-.93-4.38,2.61S871.94,935.77,873.84,936.06Z"/><path d="M1359.76,1005.86c1.57.24,3,.42,4.41.7,4.78.92,7.24,3.76,7.19,8.21,0,4.89-2.73,8.43-7.1,9.37-6.76,1.44-12.63-1.82-13.56-7.68-.47-3,.71-5.76,1.93-8.38a55.82,55.82,0,0,1,6.81-10.78,9.67,9.67,0,0,1,2.75-2.34,2.58,2.58,0,0,1,3.37.28c1,1.13-.25,2-.88,2.81C1362.91,1000.47,1360.65,1002.6,1359.76,1005.86Zm1.59,3.68c-4.06,0-6.31,2.31-6.27,6.33,0,3,2.82,5.48,6.11,5.47s5.33-2.26,5.34-6C1366.55,1011.34,1364.92,1009.51,1361.35,1009.54Z"/><path d="M1328.45,1005.4c0,1.47.12,3,0,4.4-.32,3.38-.89,6.83,4.49,5.77.57-.11,1.33.12,1.31.89a1.28,1.28,0,0,1-1.25,1.16c-3.36.17-5.31,1.23-4.7,5.25.33,2.19-1.89,1.28-3,1.23s-2.09-.66-1.34-2.17c1.44-2.94,0-3.68-2.71-3.58a43,43,0,0,1-7.68-.47c-2.25-.32-2.8-.92-1.63-2.93,3.4-5.88,6.73-11.81,10.13-17.69a4.55,4.55,0,0,1,2.92-2.61c1.93-.41,3.43-.29,3.38,2.29-.06,2.82,0,5.64,0,8.46Zm-4.47-3.6-.64-.2c-1.72,2.88-3.52,5.72-5.15,8.65-.8,1.44-2.67,3-1.8,4.5s3.15.36,4.77.69c2.12.42,3.08-.17,2.89-2.66C1323.78,1009.14,1324,1005.46,1324,1001.8Z"/><path d="M1349.69,992.17c-2.89,7.92-5.73,15.72-8.59,23.51-1.08,3-2.22,5.88-3.34,8.81-.72,1.86-1.87,3.57-4,2.43s.08-2.45.5-3.59q5.15-14,10.46-27.87C1345.47,993.43,1346.33,991.24,1349.69,992.17Z"/><path d="M772.67,1024.3c-7.68,0-11.91-5.15-9.85-12.45,1.67-5.93,5.39-10.83,9.13-15.63a5,5,0,0,1,3.17-1.7,1.94,1.94,0,0,1,2,.71c.52.71.12,1.37-.34,2l-4.7,6.52c-1.09,1.53-.86,2.44,1.17,2.54.37,0,.73.12,1.09.17,6.37.9,8.72,3.5,8.32,9.2C782.21,1021.52,779,1024.31,772.67,1024.3Zm.12-14.75c-3.91,0-6,2.26-6.08,6.49,0,2.67,2.85,5.31,5.84,5.35,3.29,0,5.4-2.24,5.46-5.91C778.08,1011.54,776.34,1009.57,772.79,1009.55Z"/><path d="M748.18,1005.73c2.7.94,5.55.55,7.85,2.27,2.58,1.91,5,4.18,4.12,7.52-1,3.73-2.66,7.68-7.13,8.48-4.1.75-8.27.9-11.3-3.1s-2.82-8.09-.87-12.06A101.34,101.34,0,0,1,748,997.42a7.08,7.08,0,0,1,2.78-2.3c1.21-.56,3-.77,3.82.16,1,1.22-.8,2-1.43,2.89C751.48,1000.64,749.24,1002.77,748.18,1005.73Zm1.65,3.88c-3.56,0-6,2.62-5.88,6.4a5.68,5.68,0,0,0,5.38,5.35c3.7,0,6-2.63,5.92-6.78C755.18,1011.44,753.16,1009.59,749.83,1009.61Z"/><path d="M721.19,1020.47c3.51,1.42,6.74.77,9.87,1,1.21.1,2.45,0,3.67,0,.77,0,1.53.26,1.61,1.15a1.3,1.3,0,0,1-1.41,1.37c-5.88.1-11.75.14-17.63.18-1.48,0-1.42-1.22-1.4-2.1.07-2.62.51-5,3.18-6.52a49,49,0,0,0,9.09-7.36,12.22,12.22,0,0,0,2.62-3.46,5.14,5.14,0,0,0-.87-6c-1.51-1.64-3.42-1.11-5.1-.59-2,.61-3.72,1.77-5.66,2.44-.78.27-2.1.6-2.55-.6a2.58,2.58,0,0,1,.92-2.63c3.69-3.68,13.68-3.23,17.11.75,2.5,2.91,1.8,7.94-1.83,11.5S725.35,1016.61,721.19,1020.47Z"/><path d="M1598.77,1008.53c1.54-1.58,3.08-1.49,4.43-1.88,3.36-1,5.26-3.87,4.18-6.45s-3.72-3.27-7.19-1.7c-1.44.65-2.47,2.06-4.15,2.19-.84.06-1.82.21-2.13-.9a2,2,0,0,1,.56-2c2.85-3.15,11.22-4,14.64-1.4,4,3.05,4.33,6.65.69,10.13-1.13,1.09-2,1.57-.1,2.83,4.8,3.21,4.29,10.34-.83,13.57-3.25,2-10.63,1.66-13.56-.72-1.18-1-2.4-2.19-1.37-3.65.85-1.19,2.18-.2,3.23.39.84.48,1.67,1,2.54,1.38,3.31,1.61,6.89.54,8-2.37a6.09,6.09,0,0,0-4-8.39C1602.27,1009.14,1600.71,1008.93,1598.77,1008.53Z"/><path d="M1575.51,1008.57c1.43-1.8,3.47-1.38,5.12-1.85a5.76,5.76,0,0,0,4.23-4.14,3.88,3.88,0,0,0-1.55-4.23,5.79,5.79,0,0,0-5.91.18,31.85,31.85,0,0,1-3.45,2c-.81.32-2,.59-2.66-.4-.5-.82.12-1.71.67-2.33,3.08-3.42,7.25-3.18,11.23-2.91,2.77.19,4.37,2.5,5.54,4.78s.53,4.54-1.37,6.26c-1.49,1.35-1.15,2.27.14,3.59,4.47,4.6,2.25,12.81-3.93,14.25a13.8,13.8,0,0,1-11.83-2.26c-.93-.69-1.74-1.69-1.23-2.8.7-1.52,1.89-.3,2.79,0,1.73.51,3.38,1.38,5.13,1.8,4.08,1,6-.15,6.84-3.82a5.92,5.92,0,0,0-4.31-7.15C1579.24,1009.11,1577.47,1008.91,1575.51,1008.57Z"/><path d="M1555.81,1001l-5.2,2.14c-.69.29-1.45.6-2,0s0-1.38.34-2a14.43,14.43,0,0,1,9.41-6.23c1.76-.41,2.37.58,2.36,2.27q-.12,12.79-.15,25.6c0,1.37-.79,1.66-1.89,1.54s-2.34.55-2.47-1.24c-.11-1.46-.34-2.91-.35-4.36C1555.78,1012.86,1555.81,1007.06,1555.81,1001Z"/><path d="M1250.56,994.9c3.25-.22,6.33.69,7.78,4,1.34,3,.83,6-2.11,8.13-1.63,1.15-.65,1.86.34,2.36,3.5,1.75,3.47,4.7,2.73,7.84s-2.22,5.83-5.86,6.68c-5.66,1.31-10.63-.5-12.58-4.77a9.34,9.34,0,0,1,2.21-10.33c.66-.61,2-1.06.48-2.09-3-2-3.19-4.84-1.89-7.75s4.12-4,7.25-4Zm4.69,20.4a5.4,5.4,0,1,0-10.78-.3c-.09,3.74,2.18,6.35,5.48,6.3S1255.2,1019.17,1255.25,1015.3Zm-9.41-13.23c.19,2.28.51,4.69,3.94,4.65,2.64,0,4.54-2.16,4.4-5.12-.13-2.72-1.84-3.7-4.37-3.77C1247,997.75,1245.79,999.11,1245.84,1002.07Z"/><path d="M1237.16,1009a28.32,28.32,0,0,1-1.37,9c-1.21,3.9-3.63,5.91-7.58,6.23-4.1.32-7.75-.91-9.47-4.77a22.61,22.61,0,0,1,.71-21c2-3.71,5.67-4,9.29-3.5a8.13,8.13,0,0,1,7,5.5A22.33,22.33,0,0,1,1237.16,1009Zm-15.54,1.2a18,18,0,0,0,.87,7.45,4.37,4.37,0,0,0,4.38,3.28c2.28,0,4.21-.91,4.89-3.17a28,28,0,0,0,.08-16.24,5,5,0,0,0-5.26-3.74c-2.67.07-3.43,1.91-4.14,3.93C1221.52,1004.3,1221.54,1007,1221.62,1010.2Z"/><path d="M1202.67,1000.77c-2.1.66-3.48,2.22-5.48,2.47-1.7.22-2.42.06-1.64-1.83,1-2.56,7.26-6.56,10-6.63,1.8,0,2,.91,2,2.27-.08,8.46-.19,16.91-.21,25.36,0,1.47-.53,1.9-1.92,1.94-1.57,0-2.63-.28-2.64-2.1,0-5-.11-10-.16-15C1202.65,1005.15,1202.67,1003.1,1202.67,1000.77Z"/><path d="M939.77,938.49c0-4,.09-8.08,0-12.11-.06-1.7.19-2.37,2.12-2.26,3.91.22,7.83,0,11.74.24,2.91.14,5.88.32,7.1,3.87,1.14,3.3,1.86,6.27-1.78,8.63-1.63,1-.54,2.19.68,2.68,3.79,1.51,3.59,4.59,3,7.67-.62,3.4-3,5.07-6.29,5.76-4.73,1-9.5.59-14.26.75-1.87.07-2.25-.73-2.22-2.37.09-4.29,0-8.57,0-12.86Zm11.88,3.31c-2.31.39-5.48-1-5.67,2.86-.13,2.67,1.71,3.28,4.14,3.21,4.07-.11,6-1.33,5.71-4.32S952.87,942.67,951.65,941.8ZM950,930.18c-1.56.31-4.39-.55-4.23,3s3.15,2.62,5.22,2.87,4.14-.36,4-3C954.88,930.28,952.62,930.09,950,930.18Z"/><path d="M978.09,943.24c0-2,0-3.92,0-5.87-.1-4.2,2-5.82,5.88-3.94a3.74,3.74,0,0,0,3.33.23c2.71-.8,5.67-1.78,7.71,1.61.63,1.07,1.71,1.43,2.4-.24,1.58-3.83,4.85-1.42,7.32-1.82,2.14-.36,3,1.23,3.78,3.16,2,5.22,1.32,10.62,1.28,15.94,0,2.39-2.51,1.07-3.87,1.27s-2.81.34-2.79-1.81c0-3.31,0-6.61-.07-9.92,0-1.29.73-3.44-1.53-3.34-1.95.09-4.24.68-4.29,3.49a75.11,75.11,0,0,0,0,8.08c.24,2.83-.9,3.47-3.56,3.55-3,.1-3.46-1.31-3.36-3.78.13-2.8,0-5.62,0-8.43,0-1.37,0-2.67-2.1-2.54-1.94.12-3.36.36-3.35,2.75,0,3-.31,6.13-.13,9.17.22,3.57-2.26,2.61-4.16,2.88-2.26.31-2.64-.79-2.54-2.73.13-2.56,0-5.14,0-7.71Z"/><path d="M1024.1,943.45c0-3.17-1.14-7.08.3-9.31,1.67-2.57,5.86-.66,8.93-.85,9.4-.6,10,.06,10.24,9.73.06,2.57-.16,5.17.15,7.7s-.82,2.9-2.9,2.84-4,.46-3.85-2.75c.16-3-.09-6.11-.11-9.17,0-2-.76-2.81-2.88-2.72-2,.09-3,.61-2.91,2.74.08,3.18-.07,6.36,0,9.54,0,3.42-2.56,2.14-4.21,2.42-1.83.32-3.07-.16-2.95-2.46.14-2.56,0-5.14,0-7.71Z"/><path d="M1020.81,943.21v6.59c0,3.4-2.82,5.18-5.91,3.78-1-.48-.84-1.38-.87-2.17-.17-5.37-.21-10.74-.5-16.1-.13-2.26,1.12-2.62,2.65-2.16s4.59-2,4.63,2C1020.84,937.84,1020.82,940.53,1020.81,943.21Z"/><path d="M1017.29,924.27c2-.15,3.53.12,3.52,2.79,0,2.41-1.32,2.79-3.26,2.73-2.13-.07-3.82-.58-3.82-3.17S1015.48,924.15,1017.29,924.27Z"/><path d="M1158.8,480.66l-2.07-10.18-.18-1.58-.35-1.39c0-1.23-.09-2.45-.13-3.68,0-2.33.53-4.79-.08-6.94-.7-2.51-4.13-.21-5.5-2.26.1-.12.23-.43.37-.44,5.25-.34,5.16-.34,5.27-5.83.38-18.89,7.11-35.52,18.19-50.59,15.39-20.93,36.06-33.38,61.45-38.17a77,77,0,0,1,12-1.24c25.32-.77,54.35,8,74.3,30.72,1.7,1.94,2.58,2.54,5.12.86,3.68-2.43,6.8-5.56,10.58-7.8l.53.54c-3.67,3-7.25,6.06-11,8.87-1.21.91-1.88,1.25-.6,2.61,4.49,4.79,7.87,10.37,11.18,16l.3.82.77,1.58c.33.69.26,1.6,1.1,2l1.83,4.61a.43.43,0,0,0,.37.54c0,.59-.07,1.23.63,1.54q1.65,6.25,3.31,12.5c.9,6,2.38,12,2,18.15-.09,1.59.58,2.27,2.1,2.27h3.9c-.79,2-2.14,1.57-3.14,1.28-2.5-.73-2.79.4-2.92,2.57-2,34.58-17.62,61.12-47.12,79.49a94.87,94.87,0,0,1-23,9.9c-7.79,1.93-15.61,3.67-23.73,3.33-1,0-1.64.2-2,1.53-1.17,4.6-1.95,9.15-.43,13.82.06,2-1.4,3.77-.47,5.79a79.5,79.5,0,0,1-.23-10.24c2.26-3.52-.79-6.77-.55-10.21,0-.82-1.13-.74-1.84-.75-19-.16-36-6.59-51.9-16.32-7.86-5.47-14.37-12.33-20.37-19.71-1.12-1.37-2-2.33-3.84-.82-5.3,4.45-10.69,8.8-16,13.19a55,55,0,0,0-12.37,10.75c-.72.82-1.3,2-2.21,2.41-4.36,2.06-2.93,4.2-.46,6.76a89.12,89.12,0,0,1,6.37,7.59c.63.82,2.12,1.52,1.17,3l0,0c-9.3-9-16.51-19.66-23.43-30.51,1.57-1.24,2,.51,2.46,1.18,2.18,2.94,4.16,6,6.26,9s2.63,3,4.45-.08c.85-1.42,1.4-3.07,2.92-4.21.58,1-.18,2.67,1.17,3.06,1,.28,1.67-.79,2.36-1.44,8.31-8,18.07-14.22,26.63-21.91.92-.83,2.56-1.1,1-3-6.34-7.76-10.1-16.85-13.26-26.24a9.12,9.12,0,0,0-.67-1.27C1159,481.7,1158.91,481.18,1158.8,480.66Zm4-14.62a16.57,16.57,0,0,0,.08,2.91,110.44,110.44,0,0,0,13.77,35.67c1.19,2,2.29,3.05,4.57,2.64-1,1.2-1.37,2.17,0,3.63,3.29,3.59,6.56,7.2,10.19,10.46a79.24,79.24,0,0,0,20.68,13.84c11.48,6.47,23.87,9.32,37,9.49,1.86,0,1.9-.92,1.9-2.27,0-5.84,0-11.69,0-17.54,0-1.47.09-2.94.13-4.4l.69.14c.23,1.91-.62,3.95.69,5.72-.69,5.43-.36,10.87-.32,16.32,0,1.62.79,2.1,2.25,2.08a75.42,75.42,0,0,0,27.63-5.07,12.83,12.83,0,0,0,1.75-.45c35.57-15.28,55.43-41.92,58.5-80.76.19-2.28-.34-2.89-2.67-2.84-7.27.16-14.54.06-22,.06.87-2,2.28-1.3,3.37-1.32,6-.09,12-.22,18-.07,2.75.07,3.49-.67,3.32-3.51a95.12,95.12,0,0,0-9.57-35.46c-2.63-6.41-6.59-12-10.6-17.59a1.73,1.73,0,0,0-1.85-.81c-.84-3-3.6-4.49-5.6-6.51-16.24-16.4-36-24.75-59-25.89-2.64-.13-3.35.77-3.28,3.29.17,6.12.09,12.24.08,18.37,0,.71.72,2-.73,1.93s-.68-1.31-.69-2c-.11-6.24-.26-12.49-.19-18.73,0-2.51-.93-3-3.24-2.84a92.75,92.75,0,0,0-44.86,14.73,76.39,76.39,0,0,0-22.36,21.32c-9,10.75-13.86,23.32-16.67,36.83-1.55,4.95-1.46,10.1-1.87,15.18-.16,1.94,1.26,1.69,2.46,1.7q9.71.08,19.42.15c1.11,0,2.35-.39,3.9,1.07-2,.11-3.4.25-4.78.25-6.1,0-12.21,0-18.32.06-1.1,0-2.68-.52-2.48,1.58C1162.24,460.26,1161.57,463.24,1162.81,466Z"/><path d="M1371.85,447.91c3.06-9.42,9.06-15.64,19.1-17.35,1.83-.31,2.37-1.32,2.15-3a56,56,0,0,0-4.56-17.1c-.17-.91-.34-1.82-.54-2.86,1.42.65,1.56,2,1.9,3.05,1.7,5.41,3.28,10.86,4.87,16.3.56,1.92,1.24,2.95,3.72,3.25a22.65,22.65,0,0,1,12.08,5.66c1.67,1.45,2.7,1.25,4.27.05,8-6.08,15.24-13,22.91-19.46,6.91-5.81,13.47-12,20.79-17.36-1.34,3.29-4.54,4.75-7,6.9-11.31,9.88-22.76,19.6-34.13,29.41a20.45,20.45,0,0,0-2.11,2.51c-1.17.18-2.51.43-1.13,1.91,3.22,3.47,4.25,7.84,5.2,12.22.33,1.49.72,2.56,2.85,2.53a5.14,5.14,0,0,0-3,3.94c-1.6,6.38-4.65,11.93-10.31,15.7-3.61,1.71-7.28,3.24-11.36,3.39-1.28,0-1.85.62-2.11,1.95-1.48,7.61-3.67,15-5.81,22.47-2,4.16-3,8.81-6.53,13.33.47-3.12,2.11-5,1.86-7.34,4.75-8.77,6.39-18.5,8.62-28.05.31-1.3.2-2.18-1.7-2.27-10.85-.51-20.19-10.65-20.17-22.05C1371.74,453,1371.81,450.48,1371.85,447.91Zm37.65,6.57c0,.3.07.59.1.89a40.8,40.8,0,0,1-8.91.12c-1.08-.07-2.38-.46-2.47,1.23-.36,6.17-2,12.11-3.58,18.34,7.94-.43,14.24-3.06,18.34-9.87,4.33-7.21,4.36-14.45.47-21.85-1.06-2-2.06-2.34-3.84-.85-3.33,2.8-6.79,5.44-10.1,8.26a3.1,3.1,0,0,0-.85,2.32c.11,1.24,1.33.72,2.08.78C1403.66,454.11,1406.58,454.28,1409.5,454.48Zm-22-.13v-.08c2.33,0,4.66-.08,7,0,1.61.08,2.27-.48,2-2.1-.77-5.8-1.3-11.63-3-17.29-.41-1.41-.93-1.93-2.57-1.37-8.69,2.95-14.69,8.32-16.76,17.61-.43,2-.21,2.63,1.9,2.66C1380,453.86,1383.75,454.16,1387.54,454.35Zm-1.54,1.48v-.2a72.55,72.55,0,0,1-8.08-.06c-3.66-.41-3.9,1.55-3,4.06,2.71,7.53,7.35,13.1,15.62,14.93,1.72.38,2.42,0,3-1.53a48.59,48.59,0,0,0,3.07-12.74c.36-3.19-.15-5.08-4-4.51A47,47,0,0,1,1386,455.83Zm11.57-6.87c4.25-2.74,8-5.12,11.68-7.55.63-.41,2.36-.66.88-1.89-3.58-3-7.41-5.55-12.11-6.45-1.66-.31-2.56.08-2.27,2.06C1396.4,439.58,1396.93,444,1397.57,449Z"/><path d="M1127.42,465.3a26.34,26.34,0,0,1-15.07,11.88c-1.35.41-2.36.85-1.86,2.77,1.82,6.88,2.94,13.94,5.35,20.68,1.37,4.53,2.73,9.06,4.16,13.84-3.22-4-3.88-8.86-5.9-13.11-1.7-6.83-3.35-13.67-5.14-20.47-.36-1.37-.48-3-2.89-3-8.67.09-15.52-3.61-20.59-10.64-.23-.32-.82-.38-1.23-.56-3.69-10.05-3.55-19.66,3.25-28.51a23.88,23.88,0,0,1,19.22-8c1,0,1.59-.18,1.81-1.28,1.85-9.18,5.26-17.9,8-26.83,3.85-8.62,7.54-17.3,13-25.08.65-.93.88-2.34,2.88-2.08a155.9,155.9,0,0,0-13.15,25.38,82.73,82.73,0,0,0-8.85,27.28c-.3,2.37.38,3.26,2.48,3.81,4,1,7.13,3.47,10.24,6C1130.89,445.68,1131.17,455.18,1127.42,465.3Zm-19.11-6-.69.07c0-3-1.45-3.86-4.35-3.79s-6.18.5-9.1-1a76.9,76.9,0,0,1,10.06-.29c1.32,0,1.85-.08,2-1.65.34-4.15.94-8.28,1.52-12.4,1-7.31,1-7.38-6.65-6.07a22.48,22.48,0,0,0-2.85.58c-4.69,1.43-7.65,4.93-10.53,8.62-3.55,4.54-2.82,9.88-2.31,14.76.85,8.05,6.39,12.86,13.77,15.45,8.84,3.1,10.4,1.69,8.56-7.36l.66-.42c1.31,1,2,2,1.14,3.88-.57,1.27-.91,3.45.51,4.41,1.17.79,2.76-.32,4-.9,6.7-3,10.5-8.21,12.17-15.29.47-2,0-2.3-1.71-2.27-4.27.08-8.55.27-12.8,0C1108.71,455.49,1107.75,456.53,1108.31,459.34Zm8.74-5.1c2.44,0,4.88-.05,7.32,0,2.05.07,2.67-.6,2.48-2.8-.73-8.48-8.19-14.41-14.72-17-2-.8-1.87,1.1-2,2-.72,4.81-1.21,9.65-1.92,14.46-.42,2.84.66,3.66,3.37,3.3A43.54,43.54,0,0,1,1117.05,454.24Z"/><path d="M1172,333.91c13.74-9.3,28.35-16.55,44.93-19.3,3.32-.55,6.44-2.06,9.9-2.26,1.68-.09,1.29-1.8,1.37-3,.91-12.48,8.24-20.86,20.12-23,13.24-2.37,25.66,7.57,27.92,21.33,1.81,11-8.26,23.18-18.17,25.71a23.79,23.79,0,0,1-27.65-12.95c-1.14-2.33-.92-5.95-3.3-6.81-2.1-.75-5,.44-7.46,1.08-11.92,3.05-23.55,6.89-34.49,12.62-4.3,2.25-8.51,4.68-12.76,7Zm97.27-22.31c-4.4,0-8.82.22-13.21-.07-3.09-.21-3.74,1-3.58,3.76.19,3.54,0,7.1,0,10.65,0,5.95,0,5.95,5.82,4.13a19.75,19.75,0,0,0,14.24-15.64c1.61-7.68-.54-14.55-6.66-19.77-6.38-5.44-13.61-6.7-21.49-3.75-7.69,2.88-11.66,8.79-13.14,16.6-.22,1.19-.63,2.66,1.74,2.58,5.14-.17,10.28-.08,15.42,0,1.87,0,2.46-.69,2.44-2.64,0-3.21-.43-6.5.68-9.68,1.42,3.11.88,6.4.88,9.59,0,2.21.52,2.86,2.86,2.85C1259.94,310.13,1264.72,309.46,1269.23,311.6Zm-27.94,0a64,64,0,0,1-7.33,0c-3.11-.36-3.25,1.18-2.52,3.38,2.59,7.81,7,13.49,15.61,15.65,3.83,1,4-.23,3.92-3.19-.13-3.18-.07-6.36-.06-9.53,0-6.17,0-6.17-6-6.24C1243.73,311.59,1242.51,311.61,1241.29,311.59Z"/><path d="M1147.64,376.57c-12.69.75-22.53-11.06-22.1-24.54.37-11.67,11.28-22.24,23.85-21.54a23.6,23.6,0,0,1,22.3,25.1C1171.11,367.5,1160.49,377,1147.64,376.57Zm1.92-14.4c4.91-1.36,8-5.41,7.41-9.74a2.89,2.89,0,0,0-1.57-2.65c-.74-.3-1.34.22-1.9.76-2.79,2.68-5.62,5.32-8.43,8-1.41.34-2.14-.08-1-1.32,2.07-2.22,4.31-4.29,6.56-6.34,1-.91,3.11-1.07,2.49-3s-2.4-2.26-4.13-2.45c-4-.44-7.85,1.89-8.91,5.39-1.6,5.27-.38,7.88,5,10.79a3.15,3.15,0,0,0,2.92.6Zm-10.46,4.18c-.54.4-1,.78-1.49,1.09-2.55,1.58-2.8,3-.16,4.93,4,2.94,8.44,2.79,13,2.52a20.88,20.88,0,0,0,17-31.14c-.73-1.28-1.63-3.74-3-2.94-2.42,1.41-4.3,3.78-6.92,5.08.27.4.55.8.81,1.22,3.24,5,1.85,9.87-1.09,14.32-2.69,4.07-7,4.46-11.45,3.87-5.23-.7-9.59-6.22-9.12-11.47.69-7.76,4.43-11.76,10.86-11.57a17.76,17.76,0,0,1,7.63,2.22c.62.32,1.57,1.51,2.41.14,1.14-1.85,3-2.89,4.75-3.91,2.08-1.22,1.48-2.08.2-3.22a17.3,17.3,0,0,0-2.26-1.84,21.85,21.85,0,0,0-27.55,3c-6.3,6.64-7.28,20.34-1.84,27.95,1.35,1.89,3,4,5.34.67A2.2,2.2,0,0,1,1139.1,366.35Z"/><path d="M1328.19,332.35c-9.94-6.59-21-10.56-32.23-14.35l-13.57-4.63a9.73,9.73,0,0,1,5.78.41c13.11,4.17,26.22,8.35,37.74,16.21.89.61,2.56.7,2.21,2.48Z"/><path d="M1328.12,332.47c1-1.22,1.74.09,2.44.43,7.08,3.37,25.53,19.12,29.81,25.91-10.66-8.91-20.56-18.75-32.17-26.47Z"/><path d="M1369.24,370.51c5.27,4.55,8,10.87,11.24,16.75s6.57,11.86,7,19.12C1382.8,393.56,1376.24,381.94,1369.24,370.51Z"/><path d="M1356.22,367.75c1-1.79-.82-2.23-2.07-3.8,4.62.64,9.15-3.73,13.38,2.07h-4.71c0-.42.36-1.22-.17-1.19C1360.17,365,1357.45,364.79,1356.22,367.75Z"/><path d="M1337.81,382.14c4.37-4.34,9.7-7.48,14.33-11.5l.51.6c-4.38,4.31-9.51,7.66-14.31,11.44Z"/><path d="M1142.76,454.89c-1.68,1.27-3.11.83-4.62.91C1139.55,453.3,1139.55,453.3,1142.76,454.89Z"/><path d="M1358,367.54l3.51-.83a24.42,24.42,0,0,1-2.27,3c-2,2-1.92.21-2-1.19v0Z"/><path d="M1352.14,370.64c.86-.63,1.16-2.23,2.75-1.61l-.11-.07a3.46,3.46,0,0,1-2.13,2.28Z"/><path d="M1172.37,334.42c-.25.6-.87,1-1.24.53-.48-.64.56-.66.83-1Z"/><path d="M1361.35,366.8a1.24,1.24,0,0,1,1.59-.8C1362.68,366.81,1362.05,366.88,1361.35,366.8Z"/><path d="M1354.89,369c-.32-.25-.36-.53,0-.79.07-.06.23,0,.35,0l-.43.69Z"/><path d="M1339.34,541.06c7.73-1.14,15.05-.15,21.57,4.47,1.54,1.09,2,.06,2.83-.91,3.35-4,6.29-8.36,9.27-12.66a17.52,17.52,0,0,1,4-4,95.24,95.24,0,0,1-11.77,17.7c-1.46,1.78-1.76,2.65-.28,4.54a21.42,21.42,0,0,1,4,10.78c-.31,4.59,0,9.15-2.11,13.59-4.93,10.29-20.82,18.06-33.93,8.31a22,22,0,0,1-2.93-2.17c-1.58-1.66-3-1.46-4.87-.39a89.49,89.49,0,0,1-16.4,7.69c4.25-3.85,9.58-5.81,14.57-8.32,2.57-1.3,3.21-2.45,1.93-5.32C1319.12,560.59,1325.94,544.66,1339.34,541.06Zm-11.06,11c-4.29,6.73-4.77,13.79-1.93,21.19,1,2.49,2.2,3.19,4.48,1.31a22.41,22.41,0,0,1,4.36-2.64c1.87-.92,1.8-1.85.85-3.6-3.1-5.7-2.17-10,2.72-14.22,4.51-2.79,9-2.14,13.56,0,.79.37,1.52,1.84,2.78.4,1.79-2.06,4.23-3.55,5.55-6,.13-.23-.55-1.05-1-1.41C1351.15,540.16,1334.28,540.05,1328.28,552.09ZM1367.22,565c0-5.17-.86-8.91-2.81-12.3-1.24-2.15-2.31-4-4.29-.48a16.52,16.52,0,0,1-3.43,3.77c-.8.74-.72,1.26-.26,2.14,2.68,5.13,1.52,10.82-3,15-3.38,3.14-9,3.52-13.52.57a4,4,0,0,0-4.72,0c-1.47.85-2.87,1.84-4.33,2.7s-1.49,1.43-.29,2.7c5.37,5.64,15.51,8,22.81,5.07C1362.05,580.73,1367.19,573.6,1367.22,565Zm-29.45-1.36c0,4.49,4.39,8.94,8.94,9,4.22,0,8-4.4,7.89-9.34-.07-3.86-4.42-7.49-9-7.49A7.56,7.56,0,0,0,1337.77,563.62Z"/><path d="M1307.41,588.31a11.63,11.63,0,0,1-8,2.58C1301.81,589.16,1304.75,589.17,1307.41,588.31Z"/><path d="M1360.16,454.8a11.6,11.6,0,0,1,6.28-.33C1364.12,455.94,1364.12,455.94,1360.16,454.8Z"/><path d="M1160.58,565.3c8.34,7.57,18.06,13,28,18.21,2,1,4,2.11,5.94,3.17-5.7-.67-10.41-3.68-15.21-6.47-7.58-4.41-15.27-8.7-21-15.64Z"/><path d="M1153.3,562.14c-.22-.91-1.22-1.57-.71-2.89,3.14.52,4,3.54,5.83,5.41C1156.35,564.56,1155,563,1153.3,562.14Z"/><path d="M1381.42,518.7l-1.93,6.59C1377.25,521.88,1379,520.19,1381.42,518.7Z"/><path d="M1149.17,557.56l0,0Z"/><path d="M1218,565.42l-.64-.78C1217.65,564.83,1218.2,564.8,1218,565.42Z"/><path d="M1124.17,523.79l-4.08-8.26c3.06,2,5,4.48,4,8.3Z"/><path d="M1124.13,523.83l.83-.13,0,.49c-.24-.14-.49-.28-.75-.41Z"/><path d="M1256.19,601.31c5.51,3.73,6.56,4.7,7.39,6.75-2-1.48-4.09-2.89-6-4.47C1256.92,603.06,1255.41,602.8,1256.19,601.31Z"/><path d="M1237.77,584.44c1.83-.34,2.79.48,3,2.27A4,4,0,0,1,1237.77,584.44Z"/><path d="M1246.65,599.65l1.57-.1-1.57-.18Z"/><path d="M1264.24,608.71c1.26-.22,2,.06,1.56,1.56A2.64,2.64,0,0,1,1264.24,608.71Z"/><path d="M1243.65,589.59c1-.74,1.26.1,1.59.76C1244.11,591.35,1243.89,590.46,1243.65,589.59Z"/><path d="M1245.17,590.28c.58.37,1.49.59.76,1.59C1245,591.66,1244.32,591.34,1245.17,590.28Z"/><path d="M1247.32,593.25c1.06-.51.93.19.85.84C1247.61,594.09,1247.28,593.85,1247.32,593.25Z"/><path d="M1245.86,591.78c.29,0,.49-.47.89-.07s0,.61-.07.9C1246.09,592.65,1245.82,592.37,1245.86,591.78Z"/><path d="M1263.5,608c.29,0,.5-.48.91-.07s0,.61-.07.91A.87.87,0,0,1,1263.5,608Z"/><path d="M1265.7,610.17c1-.49.84.29.86.84Z"/><path d="M1242.92,588.84c.28,0,.48-.46.88-.07s0,.6-.06.88C1243,589.81,1242.88,589.42,1242.92,588.84Z"/><path d="M1242.18,588.1c.29,0,.49-.46.89-.06s0,.6-.07.89C1242.4,589,1242.11,588.72,1242.18,588.1Z"/><path d="M1246.59,592.51c1.09-.53,1.07,0,.83.84C1246.86,593.35,1246.55,593.11,1246.59,592.51Z"/><path d="M1240.72,586.63c.28,0,.48-.46.88-.06s0,.59-.07.88C1240.89,587.55,1240.56,587.33,1240.72,586.63Z"/><path d="M1241.45,587.37c.29,0,.49-.46.89-.06s0,.59-.07.88C1241.66,588.25,1241.32,588,1241.45,587.37Z"/><path d="M1319.49,396.9c-2.48,3.74-6.73,5.4-9.89,8.34-.88.83-1.81,1.59-2.72,2.39q-21.86,17.5-43.71,35c-2.94,2.35-5.77,4.88-9.19,6.56,1.56-3.09,4.77-4.43,7.2-6.57,1-.92,2.28-1.68,3.31-2.67,5.55-4.56,11.51-8.61,16.75-13.55,10.94-8.67,21.85-17.38,32.83-26C1315.75,399.1,1317.26,397.41,1319.49,396.9Z"/><path d="M1237,463.8c-7.26,4.56-13.76,10.12-20.38,15.52-8.42,6.86-17.4,13.05-25.43,20.39l-9.22,6.86c-.35-1.85,1.31-2.25,2.3-3q23.8-18.94,47.65-37.85c1.86-.94,3.12-2.83,5.24-3.37C1237.88,462.89,1237,463.3,1237,463.8Z"/><path d="M1241.43,458.7l2.74-3h-38.34c.18-1.73,1.09-1.44,1.72-1.44,11,0,22,0,33,.07,1.66,0,3.42-.2,4.92.81.85.57,1.34.29,1.67-.51,1-2.48,3.49-3.36,5.41-4.83-1.38,1.38-1.72,2.58.42,3.61a1.82,1.82,0,0,1,1,2.47,1.29,1.29,0,0,1-1.91.42c-3.89-2.44-6.65-.7-9.21,2.23C1242.6,458.84,1242,459.55,1241.43,458.7Z"/><path d="M1251.87,465c.1,9.37.15,18.75.32,28.12,0,2.24-.42,4.56.64,6.72-.65.86-1.57.53-2.41.53.94-2.21.59-4.55.55-6.82-.16-9.38.51-18.76-.24-28.13Z"/><path d="M1297.83,455.35H1262l0-.45h35.9Z"/><path d="M1310.28,455a6.45,6.45,0,0,1-5.15.49C1307,453.19,1308.64,453.91,1310.28,455Z"/><path d="M1251.21,513.65c-.08-1.8-.17-3.59-.23-5.38,0-.1.11-.21.61-1C1252.24,509.8,1252.65,511.7,1251.21,513.65Z"/><path d="M1238.54,461.7c-.25-1.74,1.07-2,2.25-2.33C1240.93,461,1239.43,461.07,1238.54,461.7Z"/><path d="M1237,462.39c.28-.8.6-1.49,1.6-.77C1238.27,462.26,1238,463.1,1237,462.39Z"/><path d="M1252.49,449.89c.29-.75.57-1.5,1.58-.77A1.24,1.24,0,0,1,1252.49,449.89Z"/><path d="M1181.17,507.31c0-.29-.5-.48-.09-.9s.61,0,.9.08Z"/><path d="M1240.7,459.46c0-.6.35-.76.83-.84,0,.29.55.6,0,.85C1241.34,459.58,1241,459.47,1240.7,459.46Z"/><path d="M1240.69,435.15c-1.82,2.68-4.82,3.11-7.6,3.51a21.14,21.14,0,0,1-16.56-4.38c-.54-4.22-1.87-8.3-1.59-12.68.41-6.5,4.64-11.74,11-12.73a28.64,28.64,0,0,1,9.51.1c2.14.37,4.18,1.25,3.55,4s-2.79,2.87-4.94,2.31a16.39,16.39,0,0,0-7.12-.33c-4.75.79-6.42,8.14-4.82,12.48,1.9,5.15,6.48,7.09,11.16,4.78C1237.46,430.17,1238.65,430.64,1240.69,435.15Z"/><path d="M1252.91,443.78l-1.73-1.29V409.73h1c0,4.19,0,8.38,0,12.57,0,6,0,12,.09,18C1252.34,441.45,1251.94,442.74,1252.91,443.78Z"/><path d="M1198.71,454.51a6,6,0,0,1-.68.48c-1.43.65-2.89,1.24-4.4.32-.11-.07.12-1.17.39-1.26C1195.6,453.46,1197.23,453.11,1198.71,454.51Z"/><path d="M1351.81,560.54c-1.71,1.35-3.14,2.59-4.68,3.67a1.57,1.57,0,0,1-2.4-.82c-.55-1.16.74-1.68,1.35-1.47C1348.27,562.68,1349.25,559.63,1351.81,560.54Z"/></g></g></svg>