<?xml version="1.0" encoding="utf-8"?>
<!-- Generator: Adobe Illustrator 26.2.1, SVG Export Plug-In . SVG Version: 6.00 Build 0)  -->
<svg version="1.1" id="Capa_1" xmlns="http://www.w3.org/2000/svg" xmlns:xlink="http://www.w3.org/1999/xlink" x="0px" y="0px"
	 viewBox="0 0 226 36.4" style="enable-background:new 0 0 226 36.4;" xml:space="preserve">
<style type="text/css">
	.st0{fill:#FFFFFF;}
	.st1{fill:#BB0000;}
</style>
<g>
	<g>
		<path class="st0" d="M67.8,9.6L65,19.2c-0.2,0.6-0.3,1.1-0.4,1.5c-0.1,0.4-0.2,0.8-0.2,1.1c-0.1-0.6-0.2-1.4-0.5-2.2
			c-0.1-0.2-0.1-0.3-0.1-0.3L61,9.6h-5.1L53,28.3h4.7l1.1-8.1c0.1-0.7,0.2-1.4,0.2-2.1c0.1-0.7,0.1-1.4,0.2-2.1
			c0.1,0.8,0.3,1.8,0.7,3c0.1,0.2,0.1,0.4,0.2,0.5l2.5,8.8h3.4l2.5-8.8c0-0.1,0.1-0.3,0.2-0.5c0.3-1.2,0.6-2.2,0.7-3
			c0.1,0.8,0.1,1.6,0.2,2.3c0.1,0.7,0.1,1.3,0.2,1.9l1.1,8.1h4.8L72.9,9.6H67.8z"/>
		<path class="st0" d="M82.8,9.6l-6.5,18.7h5.1l1-3.4h7.3l0.9,3.4h5.1L89.2,9.6H82.8z M83.5,21.3l1.9-6.2c0.1-0.4,0.2-0.8,0.3-1.2
			c0.1-0.4,0.2-0.9,0.3-1.3c0.2,0.7,0.3,1.2,0.4,1.6c0.1,0.4,0.2,0.7,0.2,0.9l1.9,6.2H83.5z"/>
		<polygon class="st0" points="94.9,14 99.1,14 99.1,28.3 104.2,28.3 104.2,14 108.4,14 108.4,9.6 94.9,9.6 		"/>
		<path class="st0" d="M121.9,18.4c-0.7-0.7-2-1.3-4.1-1.9l-0.2-0.1c-1-0.3-1.6-0.5-2-0.8c-0.3-0.3-0.5-0.7-0.5-1.1
			c0-0.5,0.2-0.8,0.6-1.1c0.4-0.3,0.9-0.4,1.5-0.4c0.6,0,1.2,0.1,1.8,0.4c0.6,0.3,1.2,0.6,1.8,1.1l1.6-3.7c-0.8-0.6-1.7-1-2.6-1.3
			c-0.9-0.3-1.9-0.4-2.9-0.4c-1.9,0-3.5,0.6-4.7,1.7c-1.2,1.1-1.8,2.6-1.8,4.4c0,1.4,0.4,2.5,1.1,3.3c0.8,0.8,2.1,1.4,3.9,1.9
			c1.3,0.4,2.2,0.7,2.6,1c0.4,0.3,0.6,0.8,0.6,1.4c0,0.6-0.2,1-0.7,1.4c-0.4,0.4-1,0.6-1.7,0.6c-0.7,0-1.5-0.2-2.2-0.6
			c-0.7-0.4-1.5-1.1-2.2-1.9l-2.3,3.8c1,0.9,2,1.6,3.1,2.1c1.1,0.4,2.3,0.7,3.6,0.7c2.2,0,3.9-0.6,5.2-1.8c1.3-1.2,2-2.8,2-4.8
			c0-0.8-0.1-1.5-0.3-2.1C122.7,19.4,122.3,18.9,121.9,18.4z"/>
		<path class="st0" d="M137.6,17.4v1.3c0,1.3,0,2.3-0.1,2.9c-0.1,0.6-0.2,1.1-0.3,1.5c-0.2,0.5-0.5,0.8-1,1.1
			c-0.5,0.3-1.1,0.4-1.8,0.4c-0.7,0-1.3-0.1-1.8-0.4c-0.5-0.3-0.8-0.6-1-1.1c-0.2-0.4-0.3-0.9-0.3-1.5c-0.1-0.6-0.1-1.5-0.1-2.9V9.6
			H126v8v1.9c0,2.1,0.1,3.6,0.4,4.5c0.3,1,0.7,1.8,1.2,2.5c0.6,0.8,1.5,1.3,2.6,1.7c1.1,0.4,2.5,0.6,4.1,0.6c1.6,0,3-0.2,4.1-0.6
			c1.1-0.4,2-0.9,2.6-1.7c0.6-0.7,1-1.5,1.3-2.5c0.2-1,0.4-2.5,0.4-4.5V9.6h-5.1V17.4z"/>
		<path class="st0" d="M160.1,9.6l-2.9,9.6c-0.2,0.6-0.3,1.1-0.4,1.5c-0.1,0.4-0.2,0.8-0.2,1.1c-0.1-0.6-0.2-1.4-0.5-2.2
			c-0.1-0.2-0.1-0.3-0.1-0.3l-2.8-9.7h-5.1l-2.9,18.7h4.7l1.1-8.1c0.1-0.7,0.2-1.4,0.2-2.1c0.1-0.7,0.1-1.4,0.2-2.1
			c0.1,0.8,0.3,1.8,0.7,3c0.1,0.2,0.1,0.4,0.2,0.5l2.5,8.8h3.4l2.5-8.8c0-0.1,0.1-0.3,0.2-0.5c0.3-1.2,0.6-2.2,0.7-3
			c0.1,0.8,0.1,1.6,0.2,2.3c0.1,0.7,0.1,1.3,0.2,1.9l1.1,8.1h4.8l-2.9-18.7H160.1z"/>
		<path class="st0" d="M187.1,12c-0.9-0.9-2-1.6-3.3-2.1c-1.2-0.5-2.5-0.7-3.8-0.7c-1.3,0-2.6,0.2-3.8,0.7c-1.2,0.5-2.3,1.2-3.2,2.1
			c-1,0.9-1.7,2-2.2,3.2c-0.5,1.2-0.7,2.4-0.7,3.8c0,1.3,0.2,2.6,0.7,3.8c0.5,1.2,1.2,2.2,2.2,3.2c0.9,0.9,2,1.6,3.2,2.1
			c1.2,0.5,2.5,0.7,3.8,0.7c1.3,0,2.6-0.2,3.8-0.7c1.2-0.5,2.3-1.2,3.3-2.1c0.9-0.9,1.7-2,2.2-3.2c0.5-1.2,0.7-2.4,0.7-3.8
			c0-1.3-0.2-2.6-0.7-3.8C188.8,14,188,13,187.1,12z M183.5,22.9c-0.9,1-2.1,1.6-3.5,1.6c-1.4,0-2.6-0.5-3.5-1.5
			c-0.9-1-1.4-2.3-1.4-4c0-1.6,0.5-2.9,1.4-3.9c0.9-1,2.1-1.6,3.5-1.6c1.4,0,2.6,0.5,3.5,1.6c0.9,1,1.4,2.4,1.4,3.9
			C184.9,20.6,184.4,21.9,183.5,22.9z"/>
		<polygon class="st0" points="191.2,14 195.4,14 195.4,28.3 200.5,28.3 200.5,14 204.7,14 204.7,9.6 191.2,9.6 		"/>
		<path class="st0" d="M225.3,15.2c-0.5-1.2-1.2-2.2-2.2-3.2c-0.9-0.9-2-1.6-3.3-2.1c-1.2-0.5-2.5-0.7-3.8-0.7
			c-1.3,0-2.6,0.2-3.8,0.7c-1.2,0.5-2.3,1.2-3.2,2.1c-1,0.9-1.7,2-2.2,3.2c-0.5,1.2-0.7,2.4-0.7,3.8c0,1.3,0.2,2.6,0.7,3.8
			c0.5,1.2,1.2,2.2,2.2,3.2c0.9,0.9,2,1.6,3.2,2.1c1.2,0.5,2.5,0.7,3.8,0.7c1.3,0,2.6-0.2,3.8-0.7c1.2-0.5,2.3-1.2,3.3-2.1
			c0.9-0.9,1.7-2,2.2-3.2c0.5-1.2,0.7-2.4,0.7-3.8C226,17.7,225.8,16.4,225.3,15.2z M219.5,22.9c-0.9,1-2.1,1.6-3.5,1.6
			c-1.4,0-2.6-0.5-3.5-1.5c-0.9-1-1.4-2.3-1.4-4c0-1.6,0.5-2.9,1.4-3.9c0.9-1,2.1-1.6,3.5-1.6c1.4,0,2.6,0.5,3.5,1.6
			c0.9,1,1.4,2.4,1.4,3.9C220.9,20.6,220.4,21.9,219.5,22.9z"/>
	</g>
	<g>
		<polygon class="st0" points="18.4,0 0,0 0,36.4 8.7,36.4 		"/>
		<polygon class="st0" points="14.9,36.4 24.9,0 19.4,0 11.5,31 		"/>
		<polygon class="st1" points="23.6,36.4 29.3,13 27.1,4.6 31.6,2.4 32.1,0 26.4,0 16.2,36.4 		"/>
		<path class="st0" d="M36.8,36.4h3.3V0h-6.6l-4.9,21.4L36.8,36.4z M36.2,10.7c0.7,0,1.3,0.5,1.3,1.2c0,0.7-0.6,1.2-1.3,1.2
			s-1.3-0.5-1.3-1.2C34.9,11.2,35.5,10.7,36.2,10.7z"/>
	</g>
</g>
</svg>
