<?xml version="1.0" encoding="utf-8"?>
<!-- Generator: Adobe Illustrator 26.2.1, SVG Export Plug-In . SVG Version: 6.00 Build 0)  -->
<svg version="1.1" id="Capa_1" xmlns="http://www.w3.org/2000/svg" xmlns:xlink="http://www.w3.org/1999/xlink" x="0px" y="0px"
	 viewBox="0 0 226 36.4" style="enable-background:new 0 0 226 36.4;" xml:space="preserve">
<style type="text/css">
	.st0{fill:#FFFFFF;}
</style>
<g>
	<polygon class="st0" points="28.9,36.4 16.2,29.1 16.2,0 28.9,7.3 	"/>
	<polygon class="st0" points="44.2,26.7 31.5,19.5 31.5,3.6 44.2,10.8 	"/>
</g>
<g>
	<path class="st0" d="M63.4,15.3c-0.5-0.4-1.1-0.6-1.8-0.8c-0.7-0.2-1.3-0.2-2-0.2c-1,0-1.8,0.1-2.6,0.4c-0.8,0.3-1.5,0.7-2,1.3
		S54,17.1,53.8,18l3,0.5c0.1-0.3,0.3-0.6,0.5-0.9s0.6-0.5,0.9-0.6s0.8-0.2,1.4-0.2c0.5,0,1,0.1,1.3,0.2c0.4,0.2,0.6,0.4,0.8,0.7
		c0.2,0.3,0.3,0.7,0.3,1.1v0.1c0,0.3-0.1,0.5-0.3,0.7c-0.2,0.1-0.6,0.3-1.1,0.3S59.4,20,58.6,20c-0.7,0.1-1.3,0.2-1.9,0.3
		c-0.6,0.2-1.2,0.4-1.7,0.7c-0.5,0.3-0.9,0.7-1.2,1.2c-0.3,0.5-0.4,1.1-0.4,1.9c0,0.9,0.2,1.6,0.6,2.2c0.4,0.6,0.9,1.1,1.6,1.4
		c0.7,0.3,1.5,0.5,2.3,0.5c0.7,0,1.3-0.1,1.8-0.3c0.5-0.2,1-0.5,1.3-0.8c0.4-0.3,0.6-0.7,0.8-1.1h0.1V28h3.1v-9.1
		c0-0.9-0.2-1.6-0.5-2.2C64.3,16.1,63.9,15.6,63.4,15.3z M62,23.1c0,0.5-0.1,1-0.4,1.4c-0.3,0.4-0.6,0.8-1.1,1
		c-0.5,0.3-1,0.4-1.7,0.4c-0.5,0-0.9-0.1-1.2-0.2s-0.6-0.3-0.8-0.6c-0.2-0.3-0.3-0.6-0.3-1c0-0.4,0.1-0.8,0.3-1s0.5-0.5,0.9-0.6
		c0.4-0.2,0.8-0.3,1.3-0.3c0.2,0,0.5-0.1,0.8-0.1c0.3,0,0.6-0.1,0.9-0.1c0.3-0.1,0.6-0.1,0.8-0.2c0.2-0.1,0.4-0.1,0.5-0.2V23.1z"/>
	<path class="st0" d="M77.6,22.3c0,0.7-0.1,1.2-0.4,1.7c-0.2,0.5-0.6,0.8-1,1.1s-0.9,0.4-1.5,0.4c-0.8,0-1.5-0.3-2-0.8
		c-0.5-0.5-0.7-1.2-0.7-2.2v-8.1h-3.2V23c0,1.1,0.2,2,0.6,2.8c0.4,0.8,0.9,1.4,1.6,1.8s1.5,0.6,2.5,0.6c1.1,0,2-0.3,2.8-0.9
		c0.6-0.5,1-1.1,1.4-1.9l0,2.6h3V14.4h-3.2V22.3z"/>
	<path class="st0" d="M90.3,25.5c-0.2,0-0.4,0-0.6,0c-0.5,0-0.8-0.1-1.1-0.3c-0.2-0.2-0.3-0.6-0.3-1.1v-7.2H91v-2.5h-2.7v-3.3h-3.2
		v3.3h-2v2.5h2v7.5c0,1.2,0.3,2.1,1,2.7c0.7,0.6,1.7,0.9,3,0.9c0.3,0,0.7,0,1.1-0.1c0.4,0,0.7-0.1,1-0.2l-0.4-2.5
		C90.8,25.5,90.6,25.5,90.3,25.5z"/>
	<path class="st0" d="M103.1,15.1c-1-0.6-2.1-0.9-3.5-0.9c-1.3,0-2.5,0.3-3.4,0.9c-1,0.6-1.7,1.4-2.3,2.5c-0.5,1.1-0.8,2.3-0.8,3.7
		c0,1.4,0.3,2.6,0.8,3.7c0.5,1.1,1.3,1.9,2.3,2.5s2.1,0.9,3.4,0.9c1.3,0,2.5-0.3,3.5-0.9s1.7-1.4,2.3-2.5s0.8-2.3,0.8-3.7
		c0-1.4-0.3-2.6-0.8-3.7C104.8,16.5,104.1,15.7,103.1,15.1z M102.6,23.5c-0.2,0.7-0.6,1.2-1.1,1.6c-0.5,0.4-1.1,0.6-1.8,0.6
		c-0.7,0-1.3-0.2-1.8-0.6c-0.5-0.4-0.9-0.9-1.1-1.6c-0.2-0.7-0.4-1.4-0.4-2.3c0-0.9,0.1-1.6,0.4-2.3c0.2-0.7,0.6-1.2,1.1-1.6
		c0.5-0.4,1.1-0.6,1.8-0.6c0.7,0,1.3,0.2,1.8,0.6c0.5,0.4,0.9,0.9,1.1,1.6c0.2,0.7,0.4,1.4,0.4,2.3
		C102.9,22.1,102.8,22.8,102.6,23.5z"/>
	<path class="st0" d="M111.5,24.3c-0.5,0-1,0.2-1.4,0.6c-0.4,0.4-0.6,0.8-0.6,1.4c0,0.5,0.2,1,0.6,1.4c0.4,0.4,0.8,0.6,1.4,0.6
		c0.5,0,1-0.2,1.4-0.6c0.4-0.4,0.6-0.8,0.6-1.4c0-0.5-0.2-1-0.6-1.4C112.5,24.5,112,24.3,111.5,24.3z"/>
	<path class="st0" d="M127.5,15c-0.8-0.5-1.8-0.8-2.9-0.8c-0.8,0-1.4,0.1-1.9,0.4c-0.5,0.2-0.9,0.6-1.3,0.9
		c-0.3,0.4-0.6,0.7-0.8,1.1h-0.2v-2.2h-3.1v18.7h3.2v-7.3h0.1c0.2,0.4,0.4,0.7,0.8,1.1c0.3,0.4,0.7,0.7,1.3,0.9
		c0.5,0.2,1.1,0.4,1.9,0.4c1.1,0,2.1-0.3,2.9-0.8c0.9-0.6,1.5-1.4,2-2.4c0.5-1,0.7-2.3,0.7-3.8c0-1.5-0.2-2.8-0.7-3.8
		C129,16.4,128.3,15.6,127.5,15z M126.6,23.5c-0.3,0.7-0.6,1.2-1.1,1.6c-0.5,0.4-1.1,0.6-1.8,0.6c-0.7,0-1.3-0.2-1.8-0.6
		c-0.5-0.4-0.9-0.9-1.1-1.5c-0.3-0.7-0.4-1.4-0.4-2.3c0-0.9,0.1-1.7,0.4-2.3c0.3-0.7,0.6-1.2,1.1-1.5c0.5-0.4,1.1-0.5,1.8-0.5
		c0.7,0,1.3,0.2,1.8,0.6s0.8,0.9,1.1,1.5s0.4,1.4,0.4,2.3C127,22.1,126.9,22.8,126.6,23.5z"/>
	<path class="st0" d="M142.9,15.3c-0.5-0.4-1.1-0.6-1.8-0.8c-0.7-0.2-1.3-0.2-2-0.2c-1,0-1.8,0.1-2.6,0.4c-0.8,0.3-1.5,0.7-2,1.3
		c-0.5,0.6-0.9,1.2-1.1,2.1l3,0.5c0.1-0.3,0.3-0.6,0.5-0.9s0.6-0.5,0.9-0.6c0.4-0.2,0.8-0.2,1.4-0.2c0.5,0,1,0.1,1.3,0.2
		s0.6,0.4,0.8,0.7c0.2,0.3,0.3,0.7,0.3,1.1v0.1c0,0.3-0.1,0.5-0.3,0.7c-0.2,0.1-0.6,0.3-1.1,0.3c-0.5,0.1-1.1,0.1-1.9,0.2
		c-0.7,0.1-1.3,0.2-1.9,0.3c-0.6,0.2-1.2,0.4-1.7,0.7c-0.5,0.3-0.9,0.7-1.2,1.2c-0.3,0.5-0.4,1.1-0.4,1.9c0,0.9,0.2,1.6,0.6,2.2
		s0.9,1.1,1.6,1.4c0.7,0.3,1.5,0.5,2.3,0.5c0.7,0,1.3-0.1,1.8-0.3c0.5-0.2,1-0.5,1.3-0.8c0.4-0.3,0.6-0.7,0.8-1.1h0.1V28h3.1v-9.1
		c0-0.9-0.2-1.6-0.5-2.2C143.8,16.1,143.4,15.6,142.9,15.3z M141.5,23.1c0,0.5-0.1,1-0.4,1.4c-0.3,0.4-0.6,0.8-1.1,1s-1,0.4-1.7,0.4
		c-0.5,0-0.9-0.1-1.2-0.2c-0.3-0.1-0.6-0.3-0.8-0.6c-0.2-0.3-0.3-0.6-0.3-1c0-0.4,0.1-0.8,0.3-1c0.2-0.3,0.5-0.5,0.9-0.6
		s0.8-0.3,1.3-0.3c0.2,0,0.5-0.1,0.8-0.1c0.3,0,0.6-0.1,0.9-0.1c0.3-0.1,0.6-0.1,0.8-0.2s0.4-0.1,0.5-0.2V23.1z"/>
	<path class="st0" d="M154.9,14.2c-0.8,0-1.5,0.2-2.1,0.6c-0.6,0.4-1,1-1.3,1.8h-0.1v-2.3h-3.1V28h3.2v-7.9c0-0.6,0.1-1.1,0.4-1.6
		c0.3-0.4,0.6-0.8,1.1-1c0.5-0.2,1-0.4,1.5-0.4c0.3,0,0.6,0,0.9,0c0.3,0,0.5,0.1,0.6,0.1v-2.9c-0.1,0-0.3,0-0.5-0.1
		C155.3,14.3,155.1,14.2,154.9,14.2z"/>
	<path class="st0" d="M164.9,25.5c-0.2,0-0.4,0-0.6,0c-0.5,0-0.8-0.1-1.1-0.3c-0.2-0.2-0.3-0.6-0.3-1.1v-7.2h2.7v-2.5h-2.7v-3.3
		h-3.2v3.3h-2v2.5h2v7.5c0,1.2,0.3,2.1,1,2.7c0.7,0.6,1.7,0.9,3,0.9c0.3,0,0.7,0,1.1-0.1c0.4,0,0.7-0.1,1-0.2l-0.4-2.5
		C165.3,25.5,165.1,25.5,164.9,25.5z"/>
	<path class="st0" d="M178.3,21.6c-0.6-0.6-1.6-1-2.9-1.3l-2.3-0.5c-0.7-0.1-1.1-0.3-1.5-0.6c-0.3-0.3-0.5-0.6-0.5-1
		c0-0.5,0.2-0.8,0.7-1.1s1-0.4,1.7-0.4c0.7,0,1.3,0.2,1.7,0.5s0.7,0.8,0.8,1.3l2.9-0.4c-0.1-0.8-0.5-1.4-0.9-2s-1.1-1-1.8-1.3
		c-0.8-0.3-1.7-0.5-2.7-0.5c-1.1,0-2,0.2-2.9,0.5s-1.5,0.8-1.9,1.4s-0.7,1.3-0.7,2.2c0,1,0.3,1.8,1,2.5c0.6,0.6,1.6,1.1,2.9,1.4
		l2.3,0.5c0.6,0.1,1.1,0.3,1.4,0.6c0.3,0.3,0.5,0.6,0.5,1c0,0.5-0.2,0.8-0.7,1.2s-1.1,0.5-1.8,0.5c-0.8,0-1.4-0.2-1.9-0.5
		c-0.5-0.3-0.8-0.8-0.9-1.5l-3,0.4c0.1,0.9,0.5,1.6,1,2.2c0.5,0.6,1.2,1,2,1.4c0.8,0.3,1.8,0.5,2.8,0.5c1.1,0,2.1-0.2,3-0.5
		c0.9-0.4,1.6-0.9,2.1-1.5c0.5-0.6,0.7-1.4,0.7-2.3C179.2,23,178.9,22.2,178.3,21.6z"/>
</g>
</svg>
